<svg id="Layer_1" data-name="Layer 1" xmlns="http://www.w3.org/2000/svg" viewBox="0 0 200 150"><title>Game Icon_Mini Game_Studyo</title><path d="M32.07,28.45H51.38a0,0,0,0,1,0,0v93.38a0,0,0,0,1,0,0H32.07a9.91,9.91,0,0,1-9.91-9.91V38.36A9.91,9.91,0,0,1,32.07,28.45Z"/><rect x="59.65" y="28.45" width="25.33" height="93.38"/><rect x="94.02" y="28.45" width="25.33" height="93.38"/><path d="M171.59,16.08a17,17,0,0,1,5.29,10.8v9.49h7.87a15.53,15.53,0,0,1,13.31,13.31V99.07a15.15,15.15,0,0,1-3.86,9.21,15.34,15.34,0,0,1-10.2,4.85h-7.14v9a16.52,16.52,0,0,1-15.54,15.54H20.44a17,17,0,0,1-12.09-4.93,17.07,17.07,0,0,1-4.83-12V28.45A18.1,18.1,0,0,1,9.3,16.14a17.87,17.87,0,0,1,11-4.47H160.76A16.94,16.94,0,0,1,171.59,16.08ZM15.66,23.35a7.2,7.2,0,0,0-2.32,5.1v92.46a7.39,7.39,0,0,0,2.36,5,7.26,7.26,0,0,0,4.43,1.82H160a6.54,6.54,0,0,0,5.17-2,6.43,6.43,0,0,0,1.64-4.85V28.47a6.85,6.85,0,0,0-1.64-4.53,7.07,7.07,0,0,0-5.23-2.34H20.13A7.11,7.11,0,0,0,15.66,23.35Z"/><path d="M126.25,28.45h19.32a9.91,9.91,0,0,1,9.91,9.91v73.56a9.91,9.91,0,0,1-9.91,9.91H126.25Zm8,85.38h10.87a2.08,2.08,0,0,0,1.83-.52,2.13,2.13,0,0,0,.57-1.87V38.74a2.18,2.18,0,0,0-.52-1.67,2.16,2.16,0,0,0-1.79-.64h-11Z"/></svg>