<svg id="Layer_1" data-name="Layer 1" xmlns="http://www.w3.org/2000/svg" viewBox="0 0 130 130"><title>l12_4_1</title><path d="M87.56,97.51H14.44a5.73,5.73,0,0,1-5.73-5.74V46.36a5.73,5.73,0,0,1,5.73-5.74H87.56a5.74,5.74,0,0,1,5.74,5.74V91.77A5.74,5.74,0,0,1,87.56,97.51ZM25.36,83.35a8.29,8.29,0,0,0,7.08-3.26c1.63-2.17,2.45-5.3,2.45-9.41s-.82-7.21-2.46-9.38A8.35,8.35,0,0,0,25.36,58a8.32,8.32,0,0,0-7.09,3.26q-2.44,3.26-2.44,9.38c0,4.11.81,7.24,2.44,9.41A8.3,8.3,0,0,0,25.36,83.35Zm0-4.86a2.54,2.54,0,0,1-2.45-1.82,17.44,17.44,0,0,1-.74-6,17.27,17.27,0,0,1,.74-6,2.56,2.56,0,0,1,4.89,0,17,17,0,0,1,.75,6,17.15,17.15,0,0,1-.75,6A2.53,2.53,0,0,1,25.36,78.49ZM40.8,83.25a3.42,3.42,0,0,0,2.43-5.81,3.26,3.26,0,0,0-2.43-1,3.3,3.3,0,0,0-2.46,1,3.26,3.26,0,0,0-1,2.41,3.3,3.3,0,0,0,1,2.42A3.34,3.34,0,0,0,40.8,83.25ZM63.41,58.36H49.52a3.53,3.53,0,0,0-2.34.65A2.45,2.45,0,0,0,46.44,61a2.38,2.38,0,0,0,.72,1.89,3.58,3.58,0,0,0,2.36.63h8.86L49.27,78.83a3.34,3.34,0,0,0-.49,1.69,2.55,2.55,0,0,0,.95,2,3.27,3.27,0,0,0,2.2.82,3.08,3.08,0,0,0,1.51-.4,3.3,3.3,0,0,0,1.22-1.24L65.39,63.33A4.44,4.44,0,0,0,66.07,61a2.72,2.72,0,0,0-.69-1.91A2.55,2.55,0,0,0,63.41,58.36Zm21.26,0H70.78a3.53,3.53,0,0,0-2.34.65A2.42,2.42,0,0,0,67.7,61a2.38,2.38,0,0,0,.72,1.89,3.58,3.58,0,0,0,2.36.63h8.86L70.53,78.83a3.35,3.35,0,0,0-.5,1.69,2.56,2.56,0,0,0,1,2,3.27,3.27,0,0,0,2.2.82,3,3,0,0,0,1.5-.4,3.32,3.32,0,0,0,1.23-1.24L86.65,63.33A4.43,4.43,0,0,0,87.32,61a2.72,2.72,0,0,0-.69-1.91A2.53,2.53,0,0,0,84.67,58.36ZM130,57.05V80.4a11,11,0,0,1-11,11H102.44v5.32a9.76,9.76,0,0,1-9.19,9.18H10A10.06,10.06,0,0,1,2.84,103,10.09,10.09,0,0,1,0,95.91V41.36a10.72,10.72,0,0,1,3.42-7.27,10.52,10.52,0,0,1,6.5-2.64h83a9.83,9.83,0,0,1,9.53,9v5.61H119A11,11,0,0,1,130,57.05ZM96.5,96V41.38a4.09,4.09,0,0,0-1-2.68,4.16,4.16,0,0,0-3.09-1.38H9.81a4.18,4.18,0,0,0-2.64,1,4.28,4.28,0,0,0-1.38,3V96A4.42,4.42,0,0,0,7.19,99,4.32,4.32,0,0,0,9.81,100H92.47a3.7,3.7,0,0,0,4-4ZM122,65.71h-5.61V60.17a2.49,2.49,0,0,0-.76-1.85,2.71,2.71,0,0,0-3.74,0,2.52,2.52,0,0,0-.75,1.85v5.54h-5.62a2.56,2.56,0,0,0-1.87.75,2.52,2.52,0,0,0-.75,1.85,2.58,2.58,0,0,0,.75,1.87,2.54,2.54,0,0,0,1.87.77h5.62v5.5a2.52,2.52,0,0,0,.75,1.85,2.62,2.62,0,0,0,4.5-1.85V71H122a2.61,2.61,0,0,0,2.63-2.64,2.49,2.49,0,0,0-.76-1.85A2.55,2.55,0,0,0,122,65.71Z"/></svg>