<svg id="Layer_1" data-name="Layer 1" xmlns="http://www.w3.org/2000/svg" viewBox="0 0 130 130"><title>l12_2_1</title><path d="M99.55,98.64H15.88a5.74,5.74,0,0,1-5.74-5.74V40.4a5.74,5.74,0,0,1,5.74-5.74H99.55a5.74,5.74,0,0,1,5.73,5.74V92.9A5.74,5.74,0,0,1,99.55,98.64Zm5.31-74.3H11.49a11.85,11.85,0,0,0-7.3,3A12,12,0,0,0,.34,35.49V96.85a11.31,11.31,0,0,0,3.21,8,11.31,11.31,0,0,0,8,3.28h93.64a11,11,0,0,0,10.33-10.33v-6h4.75a9.91,9.91,0,0,0,9.35-9.34V49.61a10.34,10.34,0,0,0-8.85-8.85h-5.24V34.45a11,11,0,0,0-10.71-10.11Zm-93.48,6.6h92.93a4.7,4.7,0,0,1,3.48,1.56,4.58,4.58,0,0,1,1.09,3V96.93a4.16,4.16,0,0,1-4.53,4.53h-93a4.81,4.81,0,0,1-2.94-1.2A4.92,4.92,0,0,1,6.87,97V35.5a4.61,4.61,0,0,1,4.51-4.56ZM32.69,67.09a6.08,6.08,0,0,0,3.18-2.36,6.88,6.88,0,0,0,1.15-4,6.61,6.61,0,0,0-2.81-5.62,12.79,12.79,0,0,0-7.68-2.06,12.78,12.78,0,0,0-7.65,2.06,6.57,6.57,0,0,0-2.83,5.62,6.73,6.73,0,0,0,1.13,3.9,6.65,6.65,0,0,0,3.24,2.46,6.76,6.76,0,0,0-3.81,2.38,7,7,0,0,0-1.33,4.38,6.88,6.88,0,0,0,3,5.94q3,2.14,8.24,2.14c3.49,0,6.23-.71,8.24-2.14a7.47,7.47,0,0,0,1.7-10.24A7,7,0,0,0,32.69,67.09Zm-6.16,9.28q-4.41,0-4.41-3.12t4.41-3.12q4.42,0,4.42,3.12T26.53,76.37Zm0-17.76a4.36,4.36,0,0,1,2.72.7,2.72,2.72,0,0,1,.89,2.26,2.77,2.77,0,0,1-.89,2.28,4.29,4.29,0,0,1-2.72.72,4.26,4.26,0,0,1-2.71-.72,2.77,2.77,0,0,1-.89-2.28,2.72,2.72,0,0,1,.89-2.26A4.33,4.33,0,0,1,26.53,58.61Zm26.28,4.56a10.26,10.26,0,0,0-4,.72V59h8.75q3.53,0,3.52-2.8t-3.52-2.76H45a3.1,3.1,0,0,0-3.44,3.44V67.69a2.16,2.16,0,0,0,.77,1.74,2.8,2.8,0,0,0,1.9.66,3.94,3.94,0,0,0,1.82-.44,13.85,13.85,0,0,1,2.33-.72,11.45,11.45,0,0,1,2.2-.2,4.59,4.59,0,0,1,3.16,1,3.53,3.53,0,0,1,1.14,2.8,3.44,3.44,0,0,1-1.1,2.82,5.23,5.23,0,0,1-3.36.9,6.7,6.7,0,0,1-2.24-.36,21.94,21.94,0,0,1-2.29-1l-.81-.4c-.54-.29-.95-.49-1.22-.6a2.67,2.67,0,0,0-1-.16,2.12,2.12,0,0,0-1.7.86,3.24,3.24,0,0,0-.69,2.1,2.87,2.87,0,0,0,.31,1.38,3.54,3.54,0,0,0,.95,1.1,13.46,13.46,0,0,0,4.15,2,17,17,0,0,0,4.92.72,13.32,13.32,0,0,0,5.79-1.2,9,9,0,0,0,3.88-3.4,9.37,9.37,0,0,0,1.38-5.08,9.51,9.51,0,0,0-1.15-4.74,8.2,8.2,0,0,0-3.2-3.2A9.46,9.46,0,0,0,52.81,63.17Zm19,7A7.18,7.18,0,0,0,77.35,68q2-2.22,2-6.42t-2-6.38a7.18,7.18,0,0,0-5.59-2.22,7.2,7.2,0,0,0-5.59,2.22,9.07,9.07,0,0,0-2,6.34q0,4.2,2,6.44A7.17,7.17,0,0,0,71.76,70.17Zm0-4.32a1.41,1.41,0,0,1-1.35-1A9.06,9.06,0,0,1,70,61.53a8.74,8.74,0,0,1,.43-3.26,1.41,1.41,0,0,1,1.35-1,1.44,1.44,0,0,1,1.34,1,8.5,8.5,0,0,1,.44,3.26,9.33,9.33,0,0,1-.42,3.34A1.43,1.43,0,0,1,71.76,65.85Zm6,14.8L91.68,57a3.68,3.68,0,0,0,.57-1.88,2.41,2.41,0,0,0-.71-1.78,2.33,2.33,0,0,0-1.72-.7,2.75,2.75,0,0,0-1.44.44,3.76,3.76,0,0,0-1.23,1.32L73.26,78.05a3.68,3.68,0,0,0-.57,1.88,2.41,2.41,0,0,0,.73,1.76,2.35,2.35,0,0,0,1.7.72A2.72,2.72,0,0,0,76.56,82,3.76,3.76,0,0,0,77.79,80.65Zm15.39,1.24a7.18,7.18,0,0,0,5.59-2.22q2-2.22,2-6.42t-2-6.38a8.15,8.15,0,0,0-11.18,0,9.07,9.07,0,0,0-2,6.34q0,4.2,2,6.44A7.17,7.17,0,0,0,93.18,81.89Zm0-4.32a1.41,1.41,0,0,1-1.35-1,9.06,9.06,0,0,1-.43-3.34,8.88,8.88,0,0,1,.43-3.3,1.41,1.41,0,0,1,1.35-1,1.43,1.43,0,0,1,1.34,1A8.68,8.68,0,0,1,95,73.25a9.33,9.33,0,0,1-.42,3.34A1.43,1.43,0,0,1,93.18,77.57Z"/></svg>