<svg id="Layer_1" data-name="Layer 1" xmlns="http://www.w3.org/2000/svg" viewBox="0 0 130 130"><title>l12_4_1</title><path d="M87.55,91.52H14.43A5.74,5.74,0,0,1,8.7,85.78V40.37a5.74,5.74,0,0,1,5.73-5.74H87.55a5.74,5.74,0,0,1,5.74,5.74V85.78A5.74,5.74,0,0,1,87.55,91.52Zm-49.29-19H29.1L35.57,66a21.43,21.43,0,0,0,3.81-5.06,11.3,11.3,0,0,0,1.11-5,8.13,8.13,0,0,0-1.39-4.7A8.77,8.77,0,0,0,35.16,48a14.71,14.71,0,0,0-5.92-1.1,18.61,18.61,0,0,0-10.07,3,3,3,0,0,0-1.11,1.17,4.26,4.26,0,0,0,.48,4,2.3,2.3,0,0,0,1.91,1,2.71,2.71,0,0,0,.86-.13,5,5,0,0,0,.94-.43l.7-.38.92-.45a20.76,20.76,0,0,1,2.57-1.1,7.35,7.35,0,0,1,2.44-.39,3.6,3.6,0,0,1,2.52.82,3,3,0,0,1,.89,2.34q0,2.61-3,5.71l-9.66,10a4.89,4.89,0,0,0-1.55,3.5,3.35,3.35,0,0,0,1,2.46,3.48,3.48,0,0,0,2.59,1H38.26a4.59,4.59,0,0,0,3-.8,3.07,3.07,0,0,0,1-2.53,3,3,0,0,0-1-2.45A4.72,4.72,0,0,0,38.26,72.47Zm11,8L59.58,48.4a5,5,0,0,0,.18-1,2.63,2.63,0,0,0-1-2.12,3.41,3.41,0,0,0-2.25-.8,3.07,3.07,0,0,0-1.76.54,3,3,0,0,0-1.16,1.61L43.27,78.73a3,3,0,0,0-.18,1A2.61,2.61,0,0,0,44,81.83a3.37,3.37,0,0,0,2.24.81,3.17,3.17,0,0,0,1.8-.54A3,3,0,0,0,49.24,80.49ZM78.85,62.71A7.41,7.41,0,0,0,82.47,60a7.49,7.49,0,0,0,1.3-4.35,7.86,7.86,0,0,0-1.39-4.59,8.9,8.9,0,0,0-4-3,15.21,15.21,0,0,0-5.94-1.08,18.49,18.49,0,0,0-5.4.8A15.3,15.3,0,0,0,62.45,50a3.83,3.83,0,0,0-1.1,1.22A3.49,3.49,0,0,0,61,52.76a3.65,3.65,0,0,0,.77,2.37,2.37,2.37,0,0,0,1.91,1,2.9,2.9,0,0,0,1.14-.2,14.81,14.81,0,0,0,1.37-.65l1-.45a25.11,25.11,0,0,1,2.49-1.08,6.94,6.94,0,0,1,2.39-.41,3.94,3.94,0,0,1,2.78.93,3.32,3.32,0,0,1,1,2.58,2.51,2.51,0,0,1-1.14,2.3,7,7,0,0,1-3.64.72h-2a2.6,2.6,0,0,0-2.14,1,3.67,3.67,0,0,0,0,4.5,2.62,2.62,0,0,0,2.14.94h2.83a6.9,6.9,0,0,1,3.73.77,2.79,2.79,0,0,1,1.14,2.51,3.12,3.12,0,0,1-1.12,2.71A6.36,6.36,0,0,1,72,73a8.21,8.21,0,0,1-2.62-.38,19.36,19.36,0,0,1-2.62-1.1l-.57-.25-.43-.2c-.58-.3-1-.52-1.37-.65a2.9,2.9,0,0,0-1.14-.21,2.38,2.38,0,0,0-1.91,1,3.65,3.65,0,0,0-.78,2.36A3.11,3.11,0,0,0,62,76.34a14.75,14.75,0,0,0,4.73,2.28,20.7,20.7,0,0,0,5.7.79,17.13,17.13,0,0,0,6.44-1.11,9.44,9.44,0,0,0,4.26-3.13,7.69,7.69,0,0,0,1.51-4.76,7.92,7.92,0,0,0-1.53-4.91A7.76,7.76,0,0,0,78.85,62.71ZM130,51.06V74.41a11,11,0,0,1-11,11H102.43v5.32a9.76,9.76,0,0,1-9.19,9.18H10A10.09,10.09,0,0,1,2.83,97,10.09,10.09,0,0,1,0,89.92V35.37A10.72,10.72,0,0,1,3.4,28.1a10.52,10.52,0,0,1,6.5-2.64h83a9.83,9.83,0,0,1,9.53,9v5.6H119A11,11,0,0,1,130,51.06ZM96.49,90V35.39a4.09,4.09,0,0,0-1-2.68,4.15,4.15,0,0,0-3.09-1.38H9.8a4.08,4.08,0,0,0-4,4V90a4.2,4.2,0,0,0,4,4H92.46a3.7,3.7,0,0,0,4-4ZM122,59.72h-5.61V54.18a2.49,2.49,0,0,0-.76-1.85,2.53,2.53,0,0,0-1.87-.75,2.56,2.56,0,0,0-1.87.75,2.52,2.52,0,0,0-.75,1.85v5.54h-5.62a2.56,2.56,0,0,0-1.87.75,2.52,2.52,0,0,0-.75,1.85,2.58,2.58,0,0,0,.75,1.87,2.54,2.54,0,0,0,1.87.77h5.62v5.5a2.52,2.52,0,0,0,.75,1.85,2.56,2.56,0,0,0,1.87.75,2.53,2.53,0,0,0,2.63-2.6V65H122a2.51,2.51,0,0,0,1.87-.77,2.55,2.55,0,0,0,.76-1.87,2.49,2.49,0,0,0-.76-1.85A2.53,2.53,0,0,0,122,59.72Z"/></svg>