<svg id="Layer_1" data-name="Layer 1" xmlns="http://www.w3.org/2000/svg" viewBox="0 0 130 130"><title>l12_5_1</title><path d="M87.42,93H14.3a5.74,5.74,0,0,1-5.74-5.74V41.83A5.73,5.73,0,0,1,14.3,36.1H87.42a5.72,5.72,0,0,1,5.73,5.73V87.24A5.73,5.73,0,0,1,87.42,93Zm-48.11-19H35.57V52.61a3.9,3.9,0,0,0-1.11-2.93,4.07,4.07,0,0,0-2.94-1.08,7.74,7.74,0,0,0-3.78,1.13l-7.29,4.18a3.05,3.05,0,0,0-1.59,2.79,3.73,3.73,0,0,0,.91,2.45A2.72,2.72,0,0,0,22,60.26a3.16,3.16,0,0,0,1.6-.45l3.64-2.12V73.94H23.5a4.61,4.61,0,0,0-3,.81,3,3,0,0,0-.95,2.43q0,3.33,4,3.33H39.31q4,0,4-3.33a3,3,0,0,0-1-2.43A4.58,4.58,0,0,0,39.31,73.94Zm9.75,8L59.4,49.86a5,5,0,0,0,.18-1,2.61,2.61,0,0,0-1-2.11A3.44,3.44,0,0,0,56.34,46a3,3,0,0,0-2.91,2.16L43.09,80.19a3,3,0,0,0-.18,1,2.61,2.61,0,0,0,1,2.07,3.35,3.35,0,0,0,2.23.81,3.13,3.13,0,0,0,1.8-.54A3.06,3.06,0,0,0,49.06,82Zm32.29-8H72.2l6.46-6.53a21.16,21.16,0,0,0,3.81-5.06,11.3,11.3,0,0,0,1.11-5,8.13,8.13,0,0,0-1.39-4.7,8.77,8.77,0,0,0-3.94-3.15,14.71,14.71,0,0,0-5.92-1.1,18,18,0,0,0-5.26.81,17.66,17.66,0,0,0-4.8,2.25,3,3,0,0,0-1.12,1.17,4.24,4.24,0,0,0,.48,4,2.31,2.31,0,0,0,1.91,1,2.83,2.83,0,0,0,.87-.14,5.25,5.25,0,0,0,.93-.43l.71-.38.91-.45a21.42,21.42,0,0,1,2.57-1.1A7.35,7.35,0,0,1,72,54.77a3.64,3.64,0,0,1,2.53.81,3,3,0,0,1,.88,2.34q0,2.61-3,5.71l-9.66,9.95a4.91,4.91,0,0,0-1.55,3.51,3.34,3.34,0,0,0,1,2.45,3.51,3.51,0,0,0,2.6,1H81.35a4.64,4.64,0,0,0,3-.81,3.09,3.09,0,0,0,1-2.52,3,3,0,0,0-1-2.46A4.77,4.77,0,0,0,81.35,73.94Zm48.51-21.42V75.87a11,11,0,0,1-11,11H102.29V92.2a9.76,9.76,0,0,1-9.18,9.18H9.85A10.06,10.06,0,0,1,2.7,98.47,10.08,10.08,0,0,1-.15,91.39V36.83a10.64,10.64,0,0,1,3.41-7.27,10.52,10.52,0,0,1,6.5-2.64h83a9.81,9.81,0,0,1,9.52,9v5.61h16.56A11,11,0,0,1,129.86,52.52ZM96.35,91.46V36.85a4.09,4.09,0,0,0-1-2.68,4.19,4.19,0,0,0-3.09-1.38H9.66a4.2,4.2,0,0,0-2.64,1,4.23,4.23,0,0,0-1.37,3V91.48a4.37,4.37,0,0,0,1.4,2.94,4.32,4.32,0,0,0,2.61,1.07H92.32a3.69,3.69,0,0,0,4-4Zm11.78-22.55h11a5.43,5.43,0,0,0,3.67-1.07,3.81,3.81,0,0,0,1.2-3,3.73,3.73,0,0,0-1.2-3,5.54,5.54,0,0,0-3.67-1h-11q-4.87,0-4.87,4T108.13,68.91Z"/></svg>