<svg id="Layer_1" data-name="Layer 1" xmlns="http://www.w3.org/2000/svg" viewBox="0 0 130 130"><title>l12_5_1</title><path d="M87.41,91.17H14.29a5.74,5.74,0,0,1-5.74-5.74V40a5.74,5.74,0,0,1,5.74-5.74H87.41A5.74,5.74,0,0,1,93.15,40V85.43A5.74,5.74,0,0,1,87.41,91.17ZM25.31,60.56a9,9,0,0,0-3.51.63V56.88h7.65c2.06,0,3.09-.81,3.09-2.45S31.51,52,29.45,52h-11a3,3,0,0,0-2.23.77A3,3,0,0,0,15.46,55v9.48A1.92,1.92,0,0,0,16.13,66a2.51,2.51,0,0,0,1.67.57,3.36,3.36,0,0,0,1.59-.38,13.37,13.37,0,0,1,2-.63,9.53,9.53,0,0,1,1.93-.18,4,4,0,0,1,2.76.88,3.1,3.1,0,0,1,1,2.45,3,3,0,0,1-1,2.47,4.61,4.61,0,0,1-2.94.78,5.94,5.94,0,0,1-2-.31,19.86,19.86,0,0,1-2-.84l-.71-.35c-.47-.26-.83-.43-1.06-.53a2.52,2.52,0,0,0-.89-.14,1.81,1.81,0,0,0-1.48.76,2.79,2.79,0,0,0-.61,1.83,2.54,2.54,0,0,0,.27,1.21,3,3,0,0,0,.83,1,11.78,11.78,0,0,0,3.63,1.75,15,15,0,0,0,4.31.63,11.58,11.58,0,0,0,5.06-1A8,8,0,0,0,32,73a8.24,8.24,0,0,0,1.2-4.45,8.35,8.35,0,0,0-1-4.14,7,7,0,0,0-2.8-2.8A8.21,8.21,0,0,0,25.31,60.56ZM44.83,77a8.34,8.34,0,0,0,7.09-3.26c1.63-2.17,2.44-5.3,2.44-9.41S53.54,57.13,51.9,55a8.34,8.34,0,0,0-7.07-3.26A8.34,8.34,0,0,0,37.74,55q-2.45,3.26-2.44,9.38c0,4.11.81,7.24,2.44,9.41A8.34,8.34,0,0,0,44.83,77Zm0-4.87a2.52,2.52,0,0,1-2.44-1.82,17,17,0,0,1-.75-6,16.94,16.94,0,0,1,.75-6,2.53,2.53,0,0,1,2.44-1.8,2.55,2.55,0,0,1,2.45,1.82,17.26,17.26,0,0,1,.74,6,17.34,17.34,0,0,1-.74,6A2.54,2.54,0,0,1,44.83,72.14Zm18.32-5.46A6.26,6.26,0,0,0,68,64.74a8.06,8.06,0,0,0,1.77-5.62A8,8,0,0,0,68,53.54a6.3,6.3,0,0,0-4.89-1.94,6.3,6.3,0,0,0-4.89,1.94,8,8,0,0,0-1.77,5.55,8.1,8.1,0,0,0,1.77,5.63A6.24,6.24,0,0,0,63.15,66.68Zm0-3.78A1.23,1.23,0,0,1,62,62.05a8.07,8.07,0,0,1-.37-2.93A7.75,7.75,0,0,1,62,56.27a1.24,1.24,0,0,1,1.19-.86,1.26,1.26,0,0,1,1.17.86,7.45,7.45,0,0,1,.39,2.85,8,8,0,0,1-.38,2.93A1.22,1.22,0,0,1,63.15,62.9Zm5.28,12.95L80.58,55.13a3.21,3.21,0,0,0,.5-1.64,2.12,2.12,0,0,0-.62-1.56A2.08,2.08,0,0,0,79,51.32a2.43,2.43,0,0,0-1.26.38,3.47,3.47,0,0,0-1.08,1.16L64.46,73.58a3.24,3.24,0,0,0-.5,1.64,2.1,2.1,0,0,0,.64,1.54,2.06,2.06,0,0,0,1.49.63A2.36,2.36,0,0,0,67.35,77,3.38,3.38,0,0,0,68.43,75.85Zm13.46,1.09A6.3,6.3,0,0,0,86.78,75a8.08,8.08,0,0,0,1.77-5.62,8,8,0,0,0-1.77-5.58,7.11,7.11,0,0,0-9.78,0,7.93,7.93,0,0,0-1.77,5.54A8.15,8.15,0,0,0,77,75,6.24,6.24,0,0,0,81.89,76.94Zm0-3.78a1.25,1.25,0,0,1-1.19-.86,8.23,8.23,0,0,1-.37-2.92,8.15,8.15,0,0,1,.37-2.89,1.24,1.24,0,0,1,2.36,0,7.61,7.61,0,0,1,.39,2.87,8.23,8.23,0,0,1-.37,2.92A1.25,1.25,0,0,1,81.89,73.16Zm48-22.45V74.06a11,11,0,0,1-11,11H102.29v5.32a9.78,9.78,0,0,1-9.19,9.18H9.84a10.06,10.06,0,0,1-7.15-2.91A10.09,10.09,0,0,1-.16,89.57V35a10.69,10.69,0,0,1,3.41-7.27,10.56,10.56,0,0,1,6.5-2.64h83a9.85,9.85,0,0,1,9.53,9v5.6h16.55A11,11,0,0,1,129.86,50.71ZM96.34,89.65V35a4,4,0,0,0-1-2.68A4.15,4.15,0,0,0,92.28,31H9.65A4.2,4.2,0,0,0,7,32a4.3,4.3,0,0,0-1.37,3V89.67A4.33,4.33,0,0,0,7,92.6a4.28,4.28,0,0,0,2.61,1.08H92.31a3.89,3.89,0,0,0,3.06-1.16A3.82,3.82,0,0,0,96.34,89.65ZM108.12,67.1h11A5.41,5.41,0,0,0,122.83,66a3.82,3.82,0,0,0,1.2-3,3.71,3.71,0,0,0-1.2-3,5.52,5.52,0,0,0-3.67-1h-11q-4.87,0-4.87,4T108.12,67.1Z"/></svg>