<svg id="Layer_1" data-name="Layer 1" xmlns="http://www.w3.org/2000/svg" viewBox="0 0 130 130"><title>l12_5_1</title><path d="M87.41,90H14.29a5.73,5.73,0,0,1-5.74-5.73V38.87a5.74,5.74,0,0,1,5.74-5.74H87.41a5.74,5.74,0,0,1,5.74,5.74V84.28A5.73,5.73,0,0,1,87.41,90ZM38.11,71H29l6.47-6.53a20.89,20.89,0,0,0,3.8-5.06,11.28,11.28,0,0,0,1.12-5A8.23,8.23,0,0,0,39,49.66,9,9,0,0,0,35,46.51a14.92,14.92,0,0,0-5.92-1.1A18.66,18.66,0,0,0,19,48.47a3,3,0,0,0-1.12,1.17,3.79,3.79,0,0,0-.29,1.62,3.84,3.84,0,0,0,.77,2.41,2.34,2.34,0,0,0,1.91,1,2.74,2.74,0,0,0,.87-.14,5.93,5.93,0,0,0,.93-.42l.71-.39.91-.45a23.18,23.18,0,0,1,2.57-1.1,7.66,7.66,0,0,1,2.44-.38,3.63,3.63,0,0,1,2.53.81A3,3,0,0,1,32.15,55q0,2.61-3,5.71l-9.66,10a4.9,4.9,0,0,0-1.54,3.51,3.32,3.32,0,0,0,.95,2.45,3.49,3.49,0,0,0,2.6,1H38.11a4.64,4.64,0,0,0,3-.81,3.09,3.09,0,0,0,1-2.52,3,3,0,0,0-1-2.45A4.7,4.7,0,0,0,38.11,71Zm11,8L59.43,46.89a5.23,5.23,0,0,0,.19-1,2.61,2.61,0,0,0-1-2.11A3.46,3.46,0,0,0,56.38,43a3,3,0,0,0-2.91,2.16L43.13,77.22a2.82,2.82,0,0,0-.19,1,2.59,2.59,0,0,0,1,2.07,3.35,3.35,0,0,0,2.23.81,3.13,3.13,0,0,0,1.8-.54A3,3,0,0,0,49.09,79ZM78.7,61.2a7.25,7.25,0,0,0,4.92-7.06,7.76,7.76,0,0,0-1.39-4.59,8.88,8.88,0,0,0-4-3.06,15.29,15.29,0,0,0-6-1.08,18.39,18.39,0,0,0-5.39.81,15.24,15.24,0,0,0-4.63,2.25,3.66,3.66,0,0,0-1.09,1.21,3.53,3.53,0,0,0-.32,1.58,3.68,3.68,0,0,0,.77,2.36,2.37,2.37,0,0,0,1.92,1,3.17,3.17,0,0,0,1.14-.2c.33-.14.79-.36,1.36-.66l1-.45a25,25,0,0,1,2.48-1.08,7,7,0,0,1,2.39-.4,4,4,0,0,1,2.78.92,3.35,3.35,0,0,1,1,2.59,2.5,2.5,0,0,1-1.13,2.29,7.07,7.07,0,0,1-3.65.72h-2a2.61,2.61,0,0,0-2.14,1,3.64,3.64,0,0,0,0,4.5,2.6,2.6,0,0,0,2.14.94h2.82a6.94,6.94,0,0,1,3.74.77A2.81,2.81,0,0,1,76.61,68a3.12,3.12,0,0,1-1.12,2.7,6.39,6.39,0,0,1-3.67.81,8.54,8.54,0,0,1-2.62-.38A22.27,22.27,0,0,1,66.58,70L66,69.78l-.44-.21c-.57-.3-1-.51-1.36-.65a3.17,3.17,0,0,0-1.14-.2,2.37,2.37,0,0,0-1.92,1,3.68,3.68,0,0,0-.77,2.36,3.51,3.51,0,0,0,.32,1.55,3.45,3.45,0,0,0,1.09,1.24,14.69,14.69,0,0,0,4.74,2.27,20.63,20.63,0,0,0,5.69.79,17.42,17.42,0,0,0,6.45-1.1,9.59,9.59,0,0,0,4.26-3.13,7.79,7.79,0,0,0,1.5-4.77A8,8,0,0,0,82.92,64,7.79,7.79,0,0,0,78.7,61.2Zm51.16-11.65V72.9a11,11,0,0,1-11,11h-12.2l-.14,0h-4.22v5.31a9.8,9.8,0,0,1-9.19,9.19H9.84A10.09,10.09,0,0,1,2.69,95.5,10.08,10.08,0,0,1-.16,88.42V33.87a10.69,10.69,0,0,1,3.41-7.28A10.63,10.63,0,0,1,9.75,24h83a9.85,9.85,0,0,1,9.53,9v5.61h16.55A11,11,0,0,1,129.86,49.55Zm-33.52,39V33.88a4,4,0,0,0-1-2.68,4.19,4.19,0,0,0-3.09-1.38H9.65a4.2,4.2,0,0,0-2.64,1,4.32,4.32,0,0,0-1.37,3V88.51A4.35,4.35,0,0,0,7,91.45a4.25,4.25,0,0,0,2.61,1.07H92.31a3.85,3.85,0,0,0,3.06-1.16A3.8,3.8,0,0,0,96.34,88.5Zm11.78-22.56h11a5.36,5.36,0,0,0,3.67-1.07,3.79,3.79,0,0,0,1.2-3,3.69,3.69,0,0,0-1.2-3,5.47,5.47,0,0,0-3.67-1h-11c-3.25,0-4.87,1.34-4.87,4S104.87,65.94,108.12,65.94Z"/></svg>