<svg id="Layer_1" data-name="Layer 1" xmlns="http://www.w3.org/2000/svg" viewBox="0 0 130 130"><title>l12_2_1</title><path d="M99.72,97.21H16.06a5.74,5.74,0,0,1-5.74-5.74V39a5.74,5.74,0,0,1,5.74-5.74H99.72A5.74,5.74,0,0,1,105.46,39v52.5A5.74,5.74,0,0,1,99.72,97.21ZM105,22.91H11.67a11.92,11.92,0,0,0-7.31,3A12,12,0,0,0,.52,34.06V95.41a11.33,11.33,0,0,0,3.21,8,11.31,11.31,0,0,0,8,3.28h93.64a11,11,0,0,0,10.33-10.33v-6h4.75A9.91,9.91,0,0,0,129.83,81V48.18A10.29,10.29,0,0,0,121,39.33h-5.23V33A11,11,0,0,0,105,22.91Zm-93.48,6.6h92.93a4.48,4.48,0,0,1,4.57,4.57V95.5a4.16,4.16,0,0,1-4.54,4.53h-93a4.77,4.77,0,0,1-2.94-1.21,4.84,4.84,0,0,1-1.57-3.3V34.06a4.59,4.59,0,0,1,4.51-4.55ZM44.29,75.44h-4.4V50.32a4.6,4.6,0,0,0-1.31-3.45,4.8,4.8,0,0,0-3.46-1.27,9.12,9.12,0,0,0-4.46,1.33l-8.58,4.93a3.58,3.58,0,0,0-1.88,3.28A4.4,4.4,0,0,0,21.28,58a3.21,3.21,0,0,0,2.57,1.3,3.75,3.75,0,0,0,1.88-.53L30,56.31V75.44H25.67a5.41,5.41,0,0,0-3.54,1A3.53,3.53,0,0,0,21,79.26q0,3.92,4.66,3.92H44.29q4.66,0,4.67-3.92a3.54,3.54,0,0,0-1.13-2.86A5.39,5.39,0,0,0,44.29,75.44Zm11.48,9.44L68,47.09a6.28,6.28,0,0,0,.22-1.17A3.09,3.09,0,0,0,67,43.43a4,4,0,0,0-2.65-1A3.52,3.52,0,0,0,60.92,45L48.74,82.81A3.56,3.56,0,0,0,48.53,84a3.07,3.07,0,0,0,1.13,2.44,4,4,0,0,0,2.62,1,3.63,3.63,0,0,0,2.12-.64A3.55,3.55,0,0,0,55.77,84.88Zm39.6-15.43H94.19V50.32a4.5,4.5,0,0,0-1.45-3.55,5.11,5.11,0,0,0-3.49-1.27,5.46,5.46,0,0,0-2.39.55A4.87,4.87,0,0,0,85,47.67L69.61,69.29a6,6,0,0,0-1.18,3.5,3.93,3.93,0,0,0,4.19,4.08h12v1.8a4.68,4.68,0,0,0,1.32,3.61,4.89,4.89,0,0,0,3.46,1.22,5,5,0,0,0,3.48-1.22,4.62,4.62,0,0,0,1.35-3.61v-1.8h1.18q4.66,0,4.66-3.76T95.37,69.45Zm-17.23,0,6.44-9.17v9.17Z"/></svg>