<svg id="Layer_1" data-name="Layer 1" xmlns="http://www.w3.org/2000/svg" viewBox="0 0 130 130"><title>l12_2_1</title><path d="M99.55,97.65H15.88a5.74,5.74,0,0,1-5.74-5.74V39.41a5.74,5.74,0,0,1,5.74-5.74H99.55a5.74,5.74,0,0,1,5.73,5.74v52.5A5.74,5.74,0,0,1,99.55,97.65Zm5.31-74.31H11.49a11.82,11.82,0,0,0-7.3,3A12,12,0,0,0,.34,34.5V95.85a11.34,11.34,0,0,0,3.21,8,11.35,11.35,0,0,0,8,3.28h93.64a11,11,0,0,0,10.33-10.33v-6h4.75a10.26,10.26,0,0,0,6.78-3.22,10.13,10.13,0,0,0,2.57-6.13V48.62a10.34,10.34,0,0,0-8.85-8.86h-5.24v-6.3a11.07,11.07,0,0,0-10.71-10.12ZM11.38,30h92.93a4.72,4.72,0,0,1,3.48,1.55,4.6,4.6,0,0,1,1.09,3V95.94a4.17,4.17,0,0,1-4.53,4.53h-93a4.84,4.84,0,0,1-2.94-1.21A4.91,4.91,0,0,1,6.87,96V34.5a4.8,4.8,0,0,1,1.54-3.39A4.69,4.69,0,0,1,11.38,30ZM44.12,75.88h-4.4V50.76a4.57,4.57,0,0,0-1.32-3.45A4.75,4.75,0,0,0,34.94,46a9.17,9.17,0,0,0-4.45,1.32L21.9,52.29A3.6,3.6,0,0,0,20,55.58a4.41,4.41,0,0,0,1.07,2.89,3.24,3.24,0,0,0,2.57,1.3,3.72,3.72,0,0,0,1.88-.53l4.29-2.49V75.88H25.5a5.45,5.45,0,0,0-3.54,1,3.55,3.55,0,0,0-1.13,2.86q0,3.93,4.67,3.93H44.12q4.66,0,4.66-3.93a3.54,3.54,0,0,0-1.12-2.86A5.45,5.45,0,0,0,44.12,75.88ZM55.6,85.31,67.78,47.52A5.82,5.82,0,0,0,68,46.36a3.06,3.06,0,0,0-1.15-2.49,4,4,0,0,0-2.66-1,3.54,3.54,0,0,0-3.43,2.55L48.57,83.25a3.51,3.51,0,0,0-.22,1.21,3.05,3.05,0,0,0,1.13,2.44,3.93,3.93,0,0,0,2.63,1,3.73,3.73,0,0,0,2.12-.64A3.64,3.64,0,0,0,55.6,85.31ZM91.81,64.38A8.09,8.09,0,0,0,96,61.25,9.12,9.12,0,0,0,97.55,56a8.74,8.74,0,0,0-3.73-7.45q-3.72-2.73-10.16-2.73T73.52,48.5A8.72,8.72,0,0,0,69.76,56a9,9,0,0,0,1.5,5.17,8.86,8.86,0,0,0,4.29,3.26,8.89,8.89,0,0,0-5,3.15,9.25,9.25,0,0,0-1.77,5.8,9.13,9.13,0,0,0,4,7.88Q76.73,84,83.66,84t10.91-2.83a9.92,9.92,0,0,0,2.26-13.57A9.32,9.32,0,0,0,91.81,64.38ZM83.66,76.67q-5.85,0-5.85-4.13c0-2.76,2-4.13,5.85-4.13s5.84,1.37,5.84,4.13S87.55,76.67,83.66,76.67Zm0-23.53a5.75,5.75,0,0,1,3.59.93,3.57,3.57,0,0,1,1.18,3,3.63,3.63,0,0,1-1.18,3,5.62,5.62,0,0,1-3.59,1,5.65,5.65,0,0,1-3.6-1,3.63,3.63,0,0,1-1.18-3,3.57,3.57,0,0,1,1.18-3A5.78,5.78,0,0,1,83.66,53.14Z"/></svg>