<svg id="Layer_1" data-name="Layer 1" xmlns="http://www.w3.org/2000/svg" viewBox="0 0 130 130"><title>l12_4_1</title><path d="M87.56,95H14.44a5.73,5.73,0,0,1-5.73-5.74V43.84a5.73,5.73,0,0,1,5.73-5.74H87.56a5.74,5.74,0,0,1,5.74,5.74V89.25A5.74,5.74,0,0,1,87.56,95ZM25.36,80.83a8.32,8.32,0,0,0,7.08-3.26q2.45-3.25,2.45-9.41c0-4.09-.82-7.21-2.46-9.38a8.35,8.35,0,0,0-7.07-3.26,8.32,8.32,0,0,0-7.09,3.26c-1.63,2.17-2.44,5.29-2.44,9.38s.81,7.24,2.44,9.41A8.32,8.32,0,0,0,25.36,80.83Zm0-4.87a2.53,2.53,0,0,1-2.45-1.82,17.38,17.38,0,0,1-.74-6,17.23,17.23,0,0,1,.74-6,2.56,2.56,0,0,1,4.89,0,16.92,16.92,0,0,1,.75,5.95,17.08,17.08,0,0,1-.75,6A2.52,2.52,0,0,1,25.36,76ZM40.8,80.72a3.35,3.35,0,0,0,3.41-3.39,3.46,3.46,0,1,0-3.41,3.39ZM63.41,55.84H49.52a3.54,3.54,0,0,0-2.34.64,2.47,2.47,0,0,0-.74,2,2.38,2.38,0,0,0,.72,1.89,3.58,3.58,0,0,0,2.36.63h8.86L49.27,76.31A3.28,3.28,0,0,0,48.78,78a2.52,2.52,0,0,0,.95,2,3.28,3.28,0,0,0,2.2.83,3.09,3.09,0,0,0,1.51-.41,3.23,3.23,0,0,0,1.22-1.24L65.39,60.81a4.44,4.44,0,0,0,.68-2.31,2.68,2.68,0,0,0-.7-1.91A2.51,2.51,0,0,0,63.41,55.84Zm15.84,8.54a9,9,0,0,0-3.51.63V60.7h7.65c2.06,0,3.08-.82,3.08-2.45s-1-2.41-3.08-2.41h-11a2.71,2.71,0,0,0-3,3v9.48a1.89,1.89,0,0,0,.67,1.52,2.44,2.44,0,0,0,1.66.58,3.52,3.52,0,0,0,1.6-.38,11.44,11.44,0,0,1,2-.63,9.46,9.46,0,0,1,1.93-.18,4,4,0,0,1,2.76.88,3.09,3.09,0,0,1,1,2.45,3,3,0,0,1-1,2.46,4.55,4.55,0,0,1-2.94.79,5.94,5.94,0,0,1-2-.31,19.86,19.86,0,0,1-2-.84l-.71-.35a10.12,10.12,0,0,0-1.06-.53,2.56,2.56,0,0,0-.89-.14A1.84,1.84,0,0,0,69,74.4a2.88,2.88,0,0,0-.6,1.84,2.54,2.54,0,0,0,.27,1.21,2.92,2.92,0,0,0,.83,1,11.56,11.56,0,0,0,3.63,1.75,14.92,14.92,0,0,0,4.3.63,11.6,11.6,0,0,0,5.07-1.05,8,8,0,0,0,3.4-3,8.18,8.18,0,0,0,1.21-4.45,8.42,8.42,0,0,0-1-4.15,7.25,7.25,0,0,0-2.8-2.8A8.34,8.34,0,0,0,79.25,64.38ZM130,54.52V77.87a11,11,0,0,1-11,11H102.44V94.2a10,10,0,0,1-2.67,6.17,10.07,10.07,0,0,1-6.52,3H10a10.11,10.11,0,0,1-7.15-2.91A10.09,10.09,0,0,1,0,93.39V38.84a10.72,10.72,0,0,1,3.42-7.27,10.46,10.46,0,0,1,6.5-2.64h83a9.83,9.83,0,0,1,9.53,9v5.61H119A11,11,0,0,1,130,54.52ZM96.5,93.47V38.85a4.12,4.12,0,0,0-1-2.68,4.21,4.21,0,0,0-3.09-1.38H9.81a4.21,4.21,0,0,0-2.64,1,4.27,4.27,0,0,0-1.38,3V93.49a4.38,4.38,0,0,0,1.4,2.93A4.28,4.28,0,0,0,9.81,97.5H92.47a3.71,3.71,0,0,0,4-4ZM122,63.19h-5.61V57.65a2.47,2.47,0,0,0-.76-1.85,2.71,2.71,0,0,0-3.74,0,2.5,2.5,0,0,0-.75,1.85v5.54h-5.62a2.56,2.56,0,0,0-1.87.75,2.51,2.51,0,0,0-.76,1.85,2.61,2.61,0,0,0,.76,1.87,2.54,2.54,0,0,0,1.87.77h5.62v5.5a2.52,2.52,0,0,0,.75,1.85,2.77,2.77,0,0,0,3.77,0,2.54,2.54,0,0,0,.73-1.85v-5.5H122a2.53,2.53,0,0,0,1.87-.77,2.57,2.57,0,0,0,.76-1.87,2.47,2.47,0,0,0-.76-1.85A2.55,2.55,0,0,0,122,63.19Z"/></svg>