<svg id="Layer_1" data-name="Layer 1" xmlns="http://www.w3.org/2000/svg" viewBox="0 0 130 130"><title>l12_5_1</title><path d="M87.43,91.37H14.32a5.74,5.74,0,0,1-5.74-5.74V40.22a5.74,5.74,0,0,1,5.74-5.74H87.43a5.74,5.74,0,0,1,5.74,5.74V85.63A5.74,5.74,0,0,1,87.43,91.37ZM39.35,72.32H35.61V51a3.9,3.9,0,0,0-1.11-2.93A4.11,4.11,0,0,0,31.56,47a7.74,7.74,0,0,0-3.78,1.13L20.49,52.3a3,3,0,0,0-1.59,2.79,3.76,3.76,0,0,0,.91,2.45A2.74,2.74,0,0,0,22,58.64a3.16,3.16,0,0,0,1.6-.45l3.64-2.12V72.32H23.54a4.61,4.61,0,0,0-3,.81,3,3,0,0,0-1,2.43q0,3.33,4,3.33H39.35q4,0,4-3.33a3,3,0,0,0-1-2.43A4.58,4.58,0,0,0,39.35,72.32Zm9.75,8L59.44,48.25a5.21,5.21,0,0,0,.18-1,2.63,2.63,0,0,0-1-2.12,3.44,3.44,0,0,0-2.26-.81,3,3,0,0,0-2.91,2.16L43.13,78.57a3,3,0,0,0-.18,1,2.61,2.61,0,0,0,.95,2.07,3.35,3.35,0,0,0,2.23.81,3.13,3.13,0,0,0,1.8-.54A3.06,3.06,0,0,0,49.1,80.33ZM79.84,62.55a6.82,6.82,0,0,0,3.58-2.65,7.79,7.79,0,0,0,1.3-4.5,7.41,7.41,0,0,0-3.17-6.32q-3.17-2.32-8.63-2.32t-8.61,2.32a7.38,7.38,0,0,0-3.19,6.32,7.61,7.61,0,0,0,1.28,4.39A7.43,7.43,0,0,0,66,62.55a7.67,7.67,0,0,0-4.28,2.68,7.88,7.88,0,0,0-1.5,4.93,7.73,7.73,0,0,0,3.39,6.68q3.39,2.41,9.27,2.41t9.27-2.41A8.42,8.42,0,0,0,84.1,65.32,8,8,0,0,0,79.84,62.55ZM72.92,73c-3.31,0-5-1.18-5-3.52s1.66-3.51,5-3.51,5,1.17,5,3.51S76.23,73,72.92,73Zm0-20a4.92,4.92,0,0,1,3,.79,3.05,3.05,0,0,1,1,2.55,3.1,3.1,0,0,1-1,2.56,4.79,4.79,0,0,1-3,.81,4.77,4.77,0,0,1-3-.81,3.11,3.11,0,0,1-1-2.56,3.06,3.06,0,0,1,1-2.55A4.9,4.9,0,0,1,72.92,53Zm57-2.11V74.25a11,11,0,0,1-11,11H102.31v5.31a10,10,0,0,1-2.67,6.16,10.05,10.05,0,0,1-6.51,3H9.86a9.87,9.87,0,0,1-10-10V35.22A10.68,10.68,0,0,1,3.28,28a10.56,10.56,0,0,1,6.5-2.65h83a9.83,9.83,0,0,1,9.52,9V39.9h16.56A11,11,0,0,1,129.88,50.9ZM96.37,89.85V35.23a4.12,4.12,0,0,0-1-2.68,4.19,4.19,0,0,0-3.09-1.38H9.68a4.08,4.08,0,0,0-4,4V89.86a4.22,4.22,0,0,0,4,4H92.34a3.91,3.91,0,0,0,3.06-1.17A3.85,3.85,0,0,0,96.37,89.85Zm11.78-23.16h11a5.35,5.35,0,0,0,3.67-1.07,3.77,3.77,0,0,0,1.21-3,3.67,3.67,0,0,0-1.21-3,5.45,5.45,0,0,0-3.67-1h-11c-3.25,0-4.88,1.34-4.88,4S104.9,66.69,108.15,66.69Z"/></svg>