<svg id="Layer_1" data-name="Layer 1" xmlns="http://www.w3.org/2000/svg" viewBox="0 0 130 130"><title>l12_2_1</title><path d="M99.55,98.2H15.88a5.73,5.73,0,0,1-5.74-5.73V40a5.73,5.73,0,0,1,5.74-5.73H99.55A5.73,5.73,0,0,1,105.28,40V92.47A5.73,5.73,0,0,1,99.55,98.2Zm5.31-74.3H11.49a11.75,11.75,0,0,0-7.3,3A12,12,0,0,0,.34,35.06V96.41a11.34,11.34,0,0,0,3.21,8,11.28,11.28,0,0,0,8,3.27h93.64a11,11,0,0,0,10.33-10.33v-6h4.75a10.24,10.24,0,0,0,6.78-3.23A10.11,10.11,0,0,0,129.66,82V49.17a10.34,10.34,0,0,0-8.85-8.85h-5.24V34A11,11,0,0,0,104.86,23.9ZM11.38,30.51h92.93a4.72,4.72,0,0,1,3.48,1.55,4.6,4.6,0,0,1,1.09,3V96.5a4.17,4.17,0,0,1-4.53,4.53h-93a4.84,4.84,0,0,1-2.94-1.21,4.91,4.91,0,0,1-1.57-3.3V35.06a4.8,4.8,0,0,1,1.54-3.39A4.69,4.69,0,0,1,11.38,30.51ZM29,62.61a7.93,7.93,0,0,0-3.42.74,6.49,6.49,0,0,0-2.49,2,10.52,10.52,0,0,1,1.52-5.22,3.88,3.88,0,0,1,3.34-1.86,5.51,5.51,0,0,1,1.86.32c.6.22,1.34.54,2.23,1l.89.44a13.17,13.17,0,0,0,1.22.58,2.64,2.64,0,0,0,1,.18,2.14,2.14,0,0,0,1.72-.86,3.2,3.2,0,0,0,.71-2.1,2.84,2.84,0,0,0-.31-1.4,3.5,3.5,0,0,0-1-1.08,13,13,0,0,0-4.07-2,15.87,15.87,0,0,0-4.63-.72,11,11,0,0,0-6.3,1.8,11.64,11.64,0,0,0-4.17,5.14,19.14,19.14,0,0,0-1.48,7.82q0,6.81,3.12,10.48t8.83,3.68a10.51,10.51,0,0,0,5.14-1.24,8.93,8.93,0,0,0,3.54-3.46,10.54,10.54,0,0,0,.16-9.76A8.18,8.18,0,0,0,29,62.61ZM27.1,75.89a3.24,3.24,0,0,1-2.51-1.06,3.87,3.87,0,0,1-1-2.74,4,4,0,0,1,.95-2.76,3.27,3.27,0,0,1,2.53-1,3.22,3.22,0,0,1,2.53,1,4,4,0,0,1,.91,2.78,4,4,0,0,1-.93,2.76A3.18,3.18,0,0,1,27.1,75.89Zm23.73,5.64a9.53,9.53,0,0,0,8.1-3.72q2.79-3.72,2.79-10.76T58.91,56.33a9.53,9.53,0,0,0-8.08-3.72,9.5,9.5,0,0,0-8.1,3.72q-2.79,3.72-2.79,10.72t2.79,10.76A9.5,9.5,0,0,0,50.83,81.53Zm0-5.56A2.9,2.9,0,0,1,48,73.89a19.81,19.81,0,0,1-.85-6.84A19.71,19.71,0,0,1,48,60.23a2.92,2.92,0,0,1,5.59,0,19.49,19.49,0,0,1,.85,6.8,19.56,19.56,0,0,1-.85,6.84A2.9,2.9,0,0,1,50.83,76Zm20.93-6.24a7.18,7.18,0,0,0,5.59-2.22q2-2.22,2-6.42t-2-6.38a7.18,7.18,0,0,0-5.59-2.22,7.2,7.2,0,0,0-5.59,2.22,9.09,9.09,0,0,0-2,6.34q0,4.2,2,6.44A7.14,7.14,0,0,0,71.76,69.73Zm0-4.32a1.4,1.4,0,0,1-1.35-1A9,9,0,0,1,70,61.09a8.78,8.78,0,0,1,.43-3.26,1.41,1.41,0,0,1,1.35-1,1.44,1.44,0,0,1,1.34,1,8.53,8.53,0,0,1,.44,3.26,9.3,9.3,0,0,1-.42,3.34A1.42,1.42,0,0,1,71.76,65.41Zm6,14.8L91.68,56.53a3.65,3.65,0,0,0,.57-1.88,2.41,2.41,0,0,0-.71-1.78,2.37,2.37,0,0,0-1.72-.7,2.75,2.75,0,0,0-1.44.44,3.94,3.94,0,0,0-1.23,1.32L73.26,77.61a3.68,3.68,0,0,0-.57,1.88,2.39,2.39,0,0,0,.73,1.76,2.35,2.35,0,0,0,1.7.72,2.63,2.63,0,0,0,1.44-.44A3.76,3.76,0,0,0,77.79,80.21Zm15.39,1.24a7.18,7.18,0,0,0,5.59-2.22q2-2.22,2-6.42t-2-6.38a8.15,8.15,0,0,0-11.18,0,9.09,9.09,0,0,0-2,6.34q0,4.2,2,6.44A7.14,7.14,0,0,0,93.18,81.45Zm0-4.32a1.42,1.42,0,0,1-1.36-1,9.3,9.3,0,0,1-.42-3.34,9.23,9.23,0,0,1,.42-3.3,1.42,1.42,0,0,1,2.7,0A8.68,8.68,0,0,1,95,72.81a9.3,9.3,0,0,1-.42,3.34A1.42,1.42,0,0,1,93.18,77.13Z"/></svg>