<svg id="Layer_1" data-name="Layer 1" xmlns="http://www.w3.org/2000/svg" viewBox="0 0 130 130"><title>l12_3_1</title><path d="M99.28,95.59H15.61a5.74,5.74,0,0,1-5.74-5.74V37.35a5.74,5.74,0,0,1,5.74-5.74H99.28A5.74,5.74,0,0,1,105,37.35v52.5A5.74,5.74,0,0,1,99.28,95.59Zm5.31-74.31H11.22a11.86,11.86,0,0,0-7.31,3A12,12,0,0,0,.07,32.44V93.79a11.34,11.34,0,0,0,3.21,8,11.35,11.35,0,0,0,8,3.28H105a11.28,11.28,0,0,0,7.33-3.4,11.16,11.16,0,0,0,3-6.93v-6H120a9.91,9.91,0,0,0,9.35-9.35V46.56a10.31,10.31,0,0,0-8.86-8.85H115.3V31.4a11.07,11.07,0,0,0-10.71-10.12ZM11.11,27.89H104a4.72,4.72,0,0,1,3.48,1.55,4.66,4.66,0,0,1,1.09,3V93.88a4.17,4.17,0,0,1-4.53,4.53h-93A4.84,4.84,0,0,1,8.17,97.2,4.89,4.89,0,0,1,6.6,93.9V32.44a4.75,4.75,0,0,1,1.54-3.39A4.69,4.69,0,0,1,11.11,27.89ZM25.25,50a10.48,10.48,0,0,0-5.14,1.24,8.93,8.93,0,0,0-3.54,3.46,10.58,10.58,0,0,0-.17,9.76,8.2,8.2,0,0,0,7.43,4.46,8,8,0,0,0,3.43-.74,6.64,6.64,0,0,0,2.49-2,10.63,10.63,0,0,1-1.52,5.22,3.89,3.89,0,0,1-3.34,1.86A5.61,5.61,0,0,1,23,72.92q-.89-.33-2.22-1l-.89-.44c-.52-.27-.92-.46-1.22-.58a2.67,2.67,0,0,0-1-.18,2.13,2.13,0,0,0-1.72.86,3.2,3.2,0,0,0-.71,2.1,3,3,0,0,0,.3,1.4,3.68,3.68,0,0,0,1,1.08,13.05,13.05,0,0,0,4.06,2,15.93,15.93,0,0,0,4.64.72,11.09,11.09,0,0,0,6.3-1.8A11.78,11.78,0,0,0,35.72,72a19.31,19.31,0,0,0,1.48-7.82q0-6.81-3.12-10.48T25.25,50Zm.45,13.24a3.21,3.21,0,0,1-2.53-1,4,4,0,0,1-.92-2.78,3.93,3.93,0,0,1,.94-2.76,3.17,3.17,0,0,1,2.51-1,3.25,3.25,0,0,1,2.51,1.06,3.92,3.92,0,0,1,1,2.74,4,4,0,0,1-.95,2.76A3.29,3.29,0,0,1,25.7,63.24Zm26.84-3.12a10.26,10.26,0,0,0-4,.72V55.92h8.75c2.35,0,3.52-.94,3.52-2.8s-1.17-2.76-3.52-2.76H44.73a3.45,3.45,0,0,0-2.55.88,3.41,3.41,0,0,0-.9,2.56V64.64a2.19,2.19,0,0,0,.77,1.74A2.84,2.84,0,0,0,44,67a4,4,0,0,0,1.82-.44,13.85,13.85,0,0,1,2.33-.72,10.64,10.64,0,0,1,2.2-.2,4.59,4.59,0,0,1,3.16,1,3.52,3.52,0,0,1,1.14,2.8,3.44,3.44,0,0,1-1.1,2.82,5.23,5.23,0,0,1-3.36.9,6.81,6.81,0,0,1-2.25-.36,22.79,22.79,0,0,1-2.28-1l-.81-.4a9.89,9.89,0,0,0-1.22-.6,2.71,2.71,0,0,0-1-.16,2.08,2.08,0,0,0-1.7.86,3.24,3.24,0,0,0-.69,2.1,3,3,0,0,0,.3,1.38,3.7,3.7,0,0,0,1,1.1,13.46,13.46,0,0,0,4.15,2,17,17,0,0,0,4.92.72,13.32,13.32,0,0,0,5.79-1.2,9.08,9.08,0,0,0,3.88-3.4,9.37,9.37,0,0,0,1.38-5.08,9.51,9.51,0,0,0-1.15-4.74,8.14,8.14,0,0,0-3.2-3.2A9.46,9.46,0,0,0,52.54,60.12Zm18.95,7a7.18,7.18,0,0,0,5.59-2.22q2-2.22,2-6.42c0-2.78-.67-4.9-2-6.38a7.18,7.18,0,0,0-5.59-2.22A7.2,7.2,0,0,0,65.9,52.1a9.07,9.07,0,0,0-2,6.34c0,2.8.67,4.94,2,6.44A7.17,7.17,0,0,0,71.49,67.12Zm0-4.32a1.43,1.43,0,0,1-1.36-1,9.37,9.37,0,0,1-.42-3.34,9,9,0,0,1,.42-3.26,1.42,1.42,0,0,1,2.7,0,8.7,8.7,0,0,1,.44,3.26,9.37,9.37,0,0,1-.42,3.34A1.43,1.43,0,0,1,71.49,62.8Zm6,14.8L91.41,53.92A3.68,3.68,0,0,0,92,52a2.4,2.4,0,0,0-.71-1.78,2.33,2.33,0,0,0-1.72-.7,2.63,2.63,0,0,0-1.44.44,3.76,3.76,0,0,0-1.23,1.32L73,75a3.65,3.65,0,0,0-.57,1.88,2.41,2.41,0,0,0,.73,1.76,2.35,2.35,0,0,0,1.7.72,2.72,2.72,0,0,0,1.44-.44A3.94,3.94,0,0,0,77.52,77.6Zm15.39,1.24a7.18,7.18,0,0,0,5.59-2.22q2-2.22,2-6.42c0-2.78-.67-4.9-2-6.38a8.15,8.15,0,0,0-11.18,0,9.07,9.07,0,0,0-2,6.34c0,2.8.67,4.94,2,6.44A7.17,7.17,0,0,0,92.91,78.84Zm0-4.32a1.43,1.43,0,0,1-1.36-1,9.37,9.37,0,0,1-.42-3.34,9.15,9.15,0,0,1,.42-3.3,1.42,1.42,0,0,1,1.36-1,1.44,1.44,0,0,1,1.34,1,8.86,8.86,0,0,1,.44,3.28,9.37,9.37,0,0,1-.42,3.34A1.43,1.43,0,0,1,92.91,74.52Z"/></svg>