<svg id="Layer_1" data-name="Layer 1" xmlns="http://www.w3.org/2000/svg" viewBox="0 0 130 130"><title>l12_4_1</title><path d="M87.57,94.05H14.45a5.74,5.74,0,0,1-5.74-5.74V42.9a5.74,5.74,0,0,1,5.74-5.73H87.57a5.74,5.74,0,0,1,5.74,5.73V88.31A5.74,5.74,0,0,1,87.57,94.05ZM30.31,74.47H23.19l5-5.08a16.55,16.55,0,0,0,3-3.93A8.86,8.86,0,0,0,32,61.55,6.4,6.4,0,0,0,31,57.89a7,7,0,0,0-3.06-2.45,11.56,11.56,0,0,0-4.61-.85,14,14,0,0,0-4.09.63A13.82,13.82,0,0,0,15.46,57a2.4,2.4,0,0,0-.87.91A3.31,3.31,0,0,0,15,61a1.82,1.82,0,0,0,1.49.79,2.14,2.14,0,0,0,.67-.11,4.36,4.36,0,0,0,.72-.33l.55-.3.71-.35a18.47,18.47,0,0,1,2-.86,6.06,6.06,0,0,1,1.9-.29,2.84,2.84,0,0,1,2,.63A2.33,2.33,0,0,1,25.67,62q0,2-2.34,4.44l-7.51,7.74a3.77,3.77,0,0,0-1.21,2.73,2.57,2.57,0,0,0,.75,1.9,2.68,2.68,0,0,0,2,.76H30.31A3.59,3.59,0,0,0,32.63,79a2.4,2.4,0,0,0,.76-2,2.29,2.29,0,0,0-.76-1.91A3.65,3.65,0,0,0,30.31,74.47Zm16.44-11a9,9,0,0,0-3.51.63v-4.3h7.65C53,59.77,54,59,54,57.32s-1-2.42-3.08-2.42h-11a2.71,2.71,0,0,0-3,3V67.4a1.9,1.9,0,0,0,.67,1.52,2.49,2.49,0,0,0,1.67.58,3.4,3.4,0,0,0,1.59-.39,13.37,13.37,0,0,1,2-.63,10.34,10.34,0,0,1,1.93-.17,4,4,0,0,1,2.76.87,3.11,3.11,0,0,1,1,2.45,3,3,0,0,1-.95,2.47,4.55,4.55,0,0,1-2.94.79,5.94,5.94,0,0,1-2-.32,19.86,19.86,0,0,1-2-.84L40,73.38c-.47-.25-.83-.43-1.06-.52a2.31,2.31,0,0,0-.89-.14,1.84,1.84,0,0,0-1.49.75,2.85,2.85,0,0,0-.6,1.84,2.5,2.5,0,0,0,.27,1.2,3.05,3.05,0,0,0,.83,1,11.78,11.78,0,0,0,3.63,1.75,15,15,0,0,0,4.31.63,11.58,11.58,0,0,0,5.06-1,7.86,7.86,0,0,0,3.4-3,8.12,8.12,0,0,0,1.21-4.44,8.36,8.36,0,0,0-1-4.15,7.18,7.18,0,0,0-2.8-2.8A8.21,8.21,0,0,0,46.75,63.44Zm16.58,6.13a6.3,6.3,0,0,0,4.89-1.94A8.08,8.08,0,0,0,70,62a8,8,0,0,0-1.77-5.59,6.3,6.3,0,0,0-4.89-1.94,6.3,6.3,0,0,0-4.89,1.94A8,8,0,0,0,56.67,62a8.15,8.15,0,0,0,1.77,5.64A6.28,6.28,0,0,0,63.33,69.57Zm0-3.78a1.24,1.24,0,0,1-1.19-.86A8,8,0,0,1,61.77,62a7.85,7.85,0,0,1,.37-2.86,1.24,1.24,0,0,1,2.36,0A7.55,7.55,0,0,1,64.89,62a8,8,0,0,1-.38,2.92A1.23,1.23,0,0,1,63.33,65.79Zm5.28,12.95L80.76,58a3.25,3.25,0,0,0,.5-1.65,2.1,2.1,0,0,0-2.13-2.17,2.35,2.35,0,0,0-1.26.39,3.34,3.34,0,0,0-1.08,1.15L64.64,76.46a3.25,3.25,0,0,0-.5,1.65,2.11,2.11,0,0,0,.64,1.54,2.06,2.06,0,0,0,1.49.63,2.38,2.38,0,0,0,1.26-.39A3.44,3.44,0,0,0,68.61,78.74Zm13.46,1.08A6.3,6.3,0,0,0,87,77.88a8.08,8.08,0,0,0,1.77-5.62A8,8,0,0,0,87,66.68a7.13,7.13,0,0,0-9.78,0,7.94,7.94,0,0,0-1.77,5.55,8.1,8.1,0,0,0,1.77,5.63A6.24,6.24,0,0,0,82.07,79.82Zm0-3.78a1.24,1.24,0,0,1-1.19-.86,8.23,8.23,0,0,1-.37-2.92,8.09,8.09,0,0,1,.37-2.88,1.24,1.24,0,0,1,1.19-.86,1.25,1.25,0,0,1,1.17.87,7.64,7.64,0,0,1,.39,2.87,8.23,8.23,0,0,1-.37,2.92A1.24,1.24,0,0,1,82.07,76Zm48-22.45V76.94a11,11,0,0,1-11,11h-12.2l-.14,0h-4.22v5.31a9.8,9.8,0,0,1-9.19,9.19H10a10.14,10.14,0,0,1-7.15-2.92A10.08,10.08,0,0,1,0,92.46V37.91a10.72,10.72,0,0,1,3.42-7.28A10.52,10.52,0,0,1,9.92,28h83a9.93,9.93,0,0,1,6.4,2.6A10.06,10.06,0,0,1,102.46,37v5.61H119A11,11,0,0,1,130,53.59ZM96.5,92.53V37.92a4.06,4.06,0,0,0-1-2.68,4.21,4.21,0,0,0-3.1-1.38H9.81a4.16,4.16,0,0,0-2.63,1,4.3,4.3,0,0,0-1.38,3V92.55a4.42,4.42,0,0,0,1.4,2.94,4.32,4.32,0,0,0,2.61,1.07H92.48a3.83,3.83,0,0,0,3-1.16A3.77,3.77,0,0,0,96.5,92.53ZM122,62.26h-5.61V56.71a2.49,2.49,0,0,0-.76-1.85,2.73,2.73,0,0,0-3.74,0,2.53,2.53,0,0,0-.76,1.85v5.55h-5.61a2.6,2.6,0,0,0-1.87.74,2.53,2.53,0,0,0-.76,1.85,2.57,2.57,0,0,0,.76,1.87,2.5,2.5,0,0,0,1.87.77h5.61V73a2.51,2.51,0,0,0,.76,1.85,2.56,2.56,0,0,0,1.87.75,2.55,2.55,0,0,0,2.63-2.6v-5.5H122a2.49,2.49,0,0,0,1.87-.77,2.53,2.53,0,0,0,.76-1.87,2.49,2.49,0,0,0-.76-1.85A2.58,2.58,0,0,0,122,62.26Z"/></svg>