<svg id="Layer_1" data-name="Layer 1" xmlns="http://www.w3.org/2000/svg" viewBox="0 0 130 130"><title>l12_1_1</title><path d="M99.54,95.35H15.87a5.73,5.73,0,0,1-5.73-5.74V37.11a5.73,5.73,0,0,1,5.73-5.74H99.54a5.74,5.74,0,0,1,5.74,5.74v52.5A5.74,5.74,0,0,1,99.54,95.35Zm5.31-74.3H11.49a11.9,11.9,0,0,0-7.31,3A12,12,0,0,0,.34,32.2V93.56A11.07,11.07,0,0,0,11.58,104.8h93.64a11,11,0,0,0,10.34-10.33v-6h4.74a9.91,9.91,0,0,0,9.35-9.34V46.32a10.34,10.34,0,0,0-8.85-8.85h-5.23V31.16a11.07,11.07,0,0,0-10.72-10.11Zm-93.48,6.6H104.3a4.72,4.72,0,0,1,3.48,1.55,4.62,4.62,0,0,1,1.09,3V93.64a4.14,4.14,0,0,1-4.53,4.53h-93A4.79,4.79,0,0,1,8.43,97a4.89,4.89,0,0,1-1.57-3.3V32.2a4.61,4.61,0,0,1,4.51-4.55ZM34.71,50.12H18.83a4,4,0,0,0-2.67.74,2.77,2.77,0,0,0-.85,2.22,2.72,2.72,0,0,0,.83,2.16,4.07,4.07,0,0,0,2.69.72H29L18.55,73.52A3.73,3.73,0,0,0,18,75.44a2.93,2.93,0,0,0,1.1,2.3,3.7,3.7,0,0,0,2.51.94,3.5,3.5,0,0,0,1.72-.46A3.72,3.72,0,0,0,24.7,76.8L37,55.8a5,5,0,0,0,.77-2.64A3.08,3.08,0,0,0,37,51,2.89,2.89,0,0,0,34.71,50.12ZM52.8,59.88a10.2,10.2,0,0,0-4,.72V55.68h8.74q3.52,0,3.52-2.8t-3.52-2.76H45a3.1,3.1,0,0,0-3.44,3.44V64.4a2.16,2.16,0,0,0,.77,1.74,2.8,2.8,0,0,0,1.9.66A3.91,3.91,0,0,0,46,66.36a13.85,13.85,0,0,1,2.33-.72,11.48,11.48,0,0,1,2.21-.2,4.61,4.61,0,0,1,3.16,1,3.56,3.56,0,0,1,1.13,2.8,3.47,3.47,0,0,1-1.09,2.82,5.23,5.23,0,0,1-3.36.9,6.81,6.81,0,0,1-2.25-.36,22.88,22.88,0,0,1-2.29-1l-.81-.4c-.54-.29-.94-.49-1.21-.6a2.73,2.73,0,0,0-1-.16,2.12,2.12,0,0,0-1.7.86,3.24,3.24,0,0,0-.69,2.1,3,3,0,0,0,.31,1.38,3.54,3.54,0,0,0,1,1.1,13.46,13.46,0,0,0,4.15,2,17.13,17.13,0,0,0,4.92.72,13.25,13.25,0,0,0,5.79-1.2A9.1,9.1,0,0,0,60.46,74a10.22,10.22,0,0,0,.22-9.82,8.2,8.2,0,0,0-3.2-3.2A9.43,9.43,0,0,0,52.8,59.88Zm19,7a7.18,7.18,0,0,0,5.59-2.22q2-2.22,2-6.42a9.15,9.15,0,0,0-2-6.38,7.18,7.18,0,0,0-5.59-2.22,7.16,7.16,0,0,0-5.58,2.22,9.08,9.08,0,0,0-2,6.34q0,4.2,2,6.44A7.14,7.14,0,0,0,71.75,66.88Zm0-4.32a1.41,1.41,0,0,1-1.35-1A9.06,9.06,0,0,1,70,58.24,8.74,8.74,0,0,1,70.4,55a1.41,1.41,0,0,1,1.35-1,1.44,1.44,0,0,1,1.34,1,8.45,8.45,0,0,1,.45,3.26,9.28,9.28,0,0,1-.43,3.34A1.42,1.42,0,0,1,71.75,62.56Zm6,14.8L91.67,53.68a3.68,3.68,0,0,0,.57-1.88A2.41,2.41,0,0,0,91.53,50a2.33,2.33,0,0,0-1.72-.7,2.71,2.71,0,0,0-1.43.44,3.69,3.69,0,0,0-1.24,1.32L73.25,74.76a3.68,3.68,0,0,0-.57,1.88,2.41,2.41,0,0,0,.73,1.76,2.36,2.36,0,0,0,1.7.72,2.72,2.72,0,0,0,1.44-.44A3.78,3.78,0,0,0,77.79,77.36ZM93.17,78.6a7.18,7.18,0,0,0,5.59-2.22q2-2.22,2-6.42a9.15,9.15,0,0,0-2-6.38,8.15,8.15,0,0,0-11.18,0,9.12,9.12,0,0,0-2,6.34,9.33,9.33,0,0,0,2,6.44A7.17,7.17,0,0,0,93.17,78.6Zm0-4.32a1.41,1.41,0,0,1-1.35-1A9.06,9.06,0,0,1,91.39,70a8.88,8.88,0,0,1,.43-3.3,1.41,1.41,0,0,1,1.35-1,1.43,1.43,0,0,1,1.34,1A8.64,8.64,0,0,1,95,70a9.28,9.28,0,0,1-.43,3.34A1.42,1.42,0,0,1,93.17,74.28Z"/></svg>