<svg id="Layer_1" data-name="Layer 1" xmlns="http://www.w3.org/2000/svg" viewBox="0 0 130 130"><title>l12_2_1</title><path d="M99.52,98.65H15.86a5.74,5.74,0,0,1-5.74-5.74V40.41a5.74,5.74,0,0,1,5.74-5.74H99.52a5.74,5.74,0,0,1,5.74,5.74v52.5A5.74,5.74,0,0,1,99.52,98.65Zm5.32-74.31H11.47a11.86,11.86,0,0,0-7.31,3A12,12,0,0,0,.32,35.5V96.85a11.34,11.34,0,0,0,3.21,8,11.35,11.35,0,0,0,8,3.28h93.64a11,11,0,0,0,10.33-10.34v-6h4.75a10.28,10.28,0,0,0,6.78-3.22,10.1,10.1,0,0,0,2.56-6.13V49.62a10.31,10.31,0,0,0-8.85-8.86h-5.23v-6.3a11.07,11.07,0,0,0-10.71-10.12ZM11.36,31h92.93a4.72,4.72,0,0,1,3.48,1.55,4.66,4.66,0,0,1,1.09,3V96.94a4.17,4.17,0,0,1-4.53,4.53h-93a4.84,4.84,0,0,1-2.94-1.21A4.91,4.91,0,0,1,6.85,97V35.5a4.75,4.75,0,0,1,1.54-3.39A4.69,4.69,0,0,1,11.36,31ZM31.65,67.1A6.46,6.46,0,0,0,36,60.82a6.87,6.87,0,0,0-1.24-4.08A7.86,7.86,0,0,0,31.27,54a13.59,13.59,0,0,0-5.28-1,16.43,16.43,0,0,0-4.8.72,13.34,13.34,0,0,0-4.11,2,3,3,0,0,0-1,1.08,3.06,3.06,0,0,0-.29,1.4,3.28,3.28,0,0,0,.69,2.1,2.12,2.12,0,0,0,1.7.86,2.64,2.64,0,0,0,1-.18c.3-.12.7-.32,1.22-.58l.85-.4a22.09,22.09,0,0,1,2.2-1,6.27,6.27,0,0,1,2.13-.36,3.49,3.49,0,0,1,2.47.82,3,3,0,0,1,.89,2.3,2.25,2.25,0,0,1-1,2,6.36,6.36,0,0,1-3.24.64H23a2.34,2.34,0,0,0-1.91.84,3.28,3.28,0,0,0,0,4,2.34,2.34,0,0,0,1.91.84h2.51a6.1,6.1,0,0,1,3.32.68,2.5,2.5,0,0,1,1,2.23,2.78,2.78,0,0,1-1,2.41,5.68,5.68,0,0,1-3.26.72,7.66,7.66,0,0,1-2.33-.34,20.13,20.13,0,0,1-2.33-1l-.5-.22L20,74.54c-.51-.27-.92-.46-1.21-.58a2.71,2.71,0,0,0-1-.18,2.11,2.11,0,0,0-1.71.85,3.34,3.34,0,0,0-.68,2.11,3.12,3.12,0,0,0,.28,1.38,3.25,3.25,0,0,0,1,1.1,13.17,13.17,0,0,0,4.21,2,18.46,18.46,0,0,0,5.06.7,15.41,15.41,0,0,0,5.73-1,8.53,8.53,0,0,0,3.79-2.78,6.94,6.94,0,0,0,1.34-4.24,7.06,7.06,0,0,0-1.36-4.36A6.88,6.88,0,0,0,31.65,67.1ZM50.81,82a9.5,9.5,0,0,0,8.09-3.72q2.81-3.72,2.8-10.76T58.88,56.78a9.51,9.51,0,0,0-8.07-3.72,9.5,9.5,0,0,0-8.1,3.72q-2.8,3.72-2.8,10.72t2.8,10.76A9.5,9.5,0,0,0,50.81,82Zm0-5.56A2.91,2.91,0,0,1,48,74.34a19.64,19.64,0,0,1-.85-6.84A19.4,19.4,0,0,1,48,60.68a2.92,2.92,0,0,1,5.59,0,19.42,19.42,0,0,1,.85,6.8,19.64,19.64,0,0,1-.85,6.84A2.91,2.91,0,0,1,50.81,76.42Zm20.93-6.24A7.18,7.18,0,0,0,77.33,68q2-2.22,2-6.42t-2-6.38a7.18,7.18,0,0,0-5.59-2.22,7.18,7.18,0,0,0-5.59,2.22,9.06,9.06,0,0,0-2,6.34c0,2.8.67,4.94,2,6.44A7.16,7.16,0,0,0,71.74,70.18Zm0-4.32a1.43,1.43,0,0,1-1.36-1A9.37,9.37,0,0,1,70,61.54a9,9,0,0,1,.42-3.26,1.42,1.42,0,0,1,2.7,0,8.7,8.7,0,0,1,.44,3.26,9.37,9.37,0,0,1-.42,3.34A1.43,1.43,0,0,1,71.74,65.86Zm6,14.8L91.66,57a3.68,3.68,0,0,0,.57-1.88,2.4,2.4,0,0,0-.71-1.78,2.35,2.35,0,0,0-1.72-.7,2.63,2.63,0,0,0-1.44.44,3.76,3.76,0,0,0-1.23,1.32L73.24,78.06a3.65,3.65,0,0,0-.57,1.88,2.37,2.37,0,0,0,.73,1.76,2.35,2.35,0,0,0,1.7.72A2.72,2.72,0,0,0,76.54,82,3.94,3.94,0,0,0,77.77,80.66ZM93.16,81.9a7.2,7.2,0,0,0,5.59-2.22q2-2.22,2-6.42c0-2.78-.67-4.9-2-6.38a8.15,8.15,0,0,0-11.18,0,9.07,9.07,0,0,0-2,6.34c0,2.8.67,4.94,2,6.44A7.16,7.16,0,0,0,93.16,81.9Zm0-4.32a1.43,1.43,0,0,1-1.36-1,9.37,9.37,0,0,1-.42-3.34A9.15,9.15,0,0,1,91.8,70a1.42,1.42,0,0,1,1.36-1,1.44,1.44,0,0,1,1.34,1,8.86,8.86,0,0,1,.44,3.28,9.37,9.37,0,0,1-.42,3.34A1.43,1.43,0,0,1,93.16,77.58Z"/></svg>