<svg id="Layer_1" data-name="Layer 1" xmlns="http://www.w3.org/2000/svg" viewBox="0 0 130 130"><title>l12_2_1</title><path d="M100.07,98.2H16.41a5.74,5.74,0,0,1-5.74-5.74V40a5.74,5.74,0,0,1,5.74-5.74h83.66A5.74,5.74,0,0,1,105.81,40v52.5A5.74,5.74,0,0,1,100.07,98.2Zm5.32-74.31H12a11.84,11.84,0,0,0-7.31,3A12,12,0,0,0,.87,35.05V96.4a11.36,11.36,0,0,0,3.2,8,11.38,11.38,0,0,0,8,3.28h93.65a11,11,0,0,0,10.33-10.34v-6h4.74a10.25,10.25,0,0,0,6.78-3.22A10.07,10.07,0,0,0,130.18,82V49.17a10.38,10.38,0,0,0-2.82-5.81,10.53,10.53,0,0,0-6-3H116.1V34a11.07,11.07,0,0,0-10.71-10.12ZM11.91,30.5h92.93a4.69,4.69,0,0,1,3.47,1.55,4.55,4.55,0,0,1,1.09,3V96.49a4.23,4.23,0,0,1-1.09,3.22,4.35,4.35,0,0,1-3.44,1.31h-93A4.84,4.84,0,0,1,9,99.81a4.89,4.89,0,0,1-1.58-3.3V35.05a4.83,4.83,0,0,1,1.55-3.39A4.69,4.69,0,0,1,11.91,30.5Zm17,51A9.48,9.48,0,0,0,37,77.8q2.79-3.7,2.79-10.75T37,56.33a9.5,9.5,0,0,0-8.08-3.72,9.49,9.49,0,0,0-8.1,3.72Q18,60,18,67.05T20.82,77.8A9.5,9.5,0,0,0,28.92,81.53Zm0-5.56a2.9,2.9,0,0,1-2.79-2.09,19.54,19.54,0,0,1-.85-6.83,19.5,19.5,0,0,1,.85-6.83,2.92,2.92,0,0,1,5.59,0,19.66,19.66,0,0,1,.85,6.8,19.78,19.78,0,0,1-.85,6.83A2.91,2.91,0,0,1,28.92,76Zm17.66,5.44a3.88,3.88,0,1,0,0-7.76,3.8,3.8,0,0,0-3.93,3.88,3.78,3.78,0,0,0,1.11,2.76A3.83,3.83,0,0,0,46.58,81.41ZM72.41,53H56.54a4,4,0,0,0-2.68.74A2.8,2.8,0,0,0,53,55.93a2.73,2.73,0,0,0,.83,2.16,4.1,4.1,0,0,0,2.7.71H66.66L56.25,76.37a3.73,3.73,0,0,0-.57,1.92,2.94,2.94,0,0,0,1.1,2.3,3.76,3.76,0,0,0,2.51.94A3.58,3.58,0,0,0,61,81.07a3.82,3.82,0,0,0,1.4-1.42l12.26-21A5,5,0,0,0,75.44,56a3.12,3.12,0,0,0-.78-2.18A2.89,2.89,0,0,0,72.41,53ZM88.52,81.53a9.48,9.48,0,0,0,8.1-3.73q2.79-3.7,2.79-10.75T96.6,56.33a9.5,9.5,0,0,0-8.08-3.72,9.5,9.5,0,0,0-8.1,3.72Q77.63,60,77.63,67.05T80.42,77.8A9.51,9.51,0,0,0,88.52,81.53Zm0-5.56a2.91,2.91,0,0,1-2.79-2.09,19.54,19.54,0,0,1-.85-6.83,19.5,19.5,0,0,1,.85-6.83,2.92,2.92,0,0,1,5.59,0,19.66,19.66,0,0,1,.85,6.8,19.78,19.78,0,0,1-.85,6.83A2.91,2.91,0,0,1,88.52,76Z"/></svg>