<svg id="Layer_1" data-name="Layer 1" xmlns="http://www.w3.org/2000/svg" viewBox="0 0 130 130"><title>l12_4_1</title><path d="M87.55,92.68H14.43A5.74,5.74,0,0,1,8.7,86.94V41.53a5.74,5.74,0,0,1,5.73-5.74H87.55a5.74,5.74,0,0,1,5.74,5.74V86.94A5.74,5.74,0,0,1,87.55,92.68ZM25.33,78.52a8.34,8.34,0,0,0,7.09-3.26q2.44-3.26,2.44-9.42T32.4,56.46a8.35,8.35,0,0,0-7.07-3.25,8.35,8.35,0,0,0-7.09,3.25q-2.44,3.26-2.44,9.38t2.44,9.42A8.34,8.34,0,0,0,25.33,78.52Zm0-4.87a2.53,2.53,0,0,1-2.44-1.82,17.11,17.11,0,0,1-.75-6,16.91,16.91,0,0,1,.75-6,2.55,2.55,0,0,1,4.88,0,16.9,16.9,0,0,1,.75,5.94,17.11,17.11,0,0,1-.75,6A2.53,2.53,0,0,1,25.33,73.65Zm15.45,4.76a3.4,3.4,0,1,0,0-6.79A3.35,3.35,0,0,0,37.34,75a3.29,3.29,0,0,0,1,2.41A3.32,3.32,0,0,0,40.78,78.41Zm22-5.32H55.69l5-5.07a16.31,16.31,0,0,0,3-3.94,8.73,8.73,0,0,0,.87-3.91,6.35,6.35,0,0,0-1.08-3.65,6.9,6.9,0,0,0-3.06-2.45,11.59,11.59,0,0,0-4.61-.86,14,14,0,0,0-4.09.63A13.82,13.82,0,0,0,48,55.59a2.26,2.26,0,0,0-.87.91,3.05,3.05,0,0,0-.23,1.26,3,3,0,0,0,.6,1.87,1.82,1.82,0,0,0,1.49.79,2.41,2.41,0,0,0,.67-.1,4.19,4.19,0,0,0,.73-.34l.55-.29.71-.35a16,16,0,0,1,2-.86,5.78,5.78,0,0,1,1.9-.3,2.8,2.8,0,0,1,2,.63,2.34,2.34,0,0,1,.69,1.82q0,2-2.33,4.45l-7.52,7.73a3.83,3.83,0,0,0-1.2,2.73,2.62,2.62,0,0,0,.74,1.91,2.72,2.72,0,0,0,2,.75H62.81a3.57,3.57,0,0,0,2.32-.63,2.39,2.39,0,0,0,.77-2,2.31,2.31,0,0,0-.77-1.91A3.7,3.7,0,0,0,62.81,73.09Zm16.44-11a8.93,8.93,0,0,0-3.5.63V58.39H83.4c2,0,3.08-.82,3.08-2.45s-1-2.41-3.08-2.41h-11a2.71,2.71,0,0,0-3,3V66a1.9,1.9,0,0,0,.68,1.52,2.44,2.44,0,0,0,1.66.58,3.52,3.52,0,0,0,1.6-.38,11.37,11.37,0,0,1,2-.63,9.6,9.6,0,0,1,1.93-.18,4,4,0,0,1,2.77.88,3.09,3.09,0,0,1,1,2.44,3,3,0,0,1-1,2.47,4.51,4.51,0,0,1-2.94.79,5.92,5.92,0,0,1-2-.31,18.94,18.94,0,0,1-2-.84L72.49,72a11.71,11.71,0,0,0-1.07-.52,2.46,2.46,0,0,0-.88-.14,1.84,1.84,0,0,0-1.49.75,2.87,2.87,0,0,0-.6,1.84,2.67,2.67,0,0,0,.26,1.21,3.09,3.09,0,0,0,.84,1,11.56,11.56,0,0,0,3.63,1.75,14.92,14.92,0,0,0,4.3.63,11.63,11.63,0,0,0,5.07-1,8,8,0,0,0,3.4-3,8.94,8.94,0,0,0,.19-8.6,7.15,7.15,0,0,0-2.79-2.8A8.35,8.35,0,0,0,79.25,62.07ZM130,52.21V75.56a11,11,0,0,1-11,11H102.43v5.31a10,10,0,0,1-2.67,6.16,10.05,10.05,0,0,1-6.52,3H10a10.13,10.13,0,0,1-7.15-2.91A10.09,10.09,0,0,1,0,91.08V36.53A10.68,10.68,0,0,1,3.4,29.26a10.56,10.56,0,0,1,6.5-2.65h83a9.83,9.83,0,0,1,9.53,9v5.61H119A11,11,0,0,1,130,52.21ZM96.49,91.16V36.54a4.12,4.12,0,0,0-1-2.68,4.19,4.19,0,0,0-3.09-1.38H9.8a4.1,4.1,0,0,0-4,4.05V91.17a4.22,4.22,0,0,0,4,4H92.46A3.88,3.88,0,0,0,95.51,94,3.83,3.83,0,0,0,96.49,91.16ZM122,60.88h-5.61V55.34a2.47,2.47,0,0,0-.76-1.85,2.53,2.53,0,0,0-1.87-.75,2.56,2.56,0,0,0-1.87.75,2.5,2.5,0,0,0-.75,1.85v5.54h-5.62a2.56,2.56,0,0,0-1.87.75,2.5,2.5,0,0,0-.75,1.85,2.6,2.6,0,0,0,.75,1.87,2.54,2.54,0,0,0,1.87.77h5.62v5.5a2.5,2.5,0,0,0,.75,1.84,2.56,2.56,0,0,0,1.87.75,2.53,2.53,0,0,0,2.63-2.59v-5.5H122a2.51,2.51,0,0,0,1.87-.77,2.57,2.57,0,0,0,.76-1.87,2.47,2.47,0,0,0-.76-1.85A2.53,2.53,0,0,0,122,60.88Z"/></svg>