<svg id="Layer_1" data-name="Layer 1" xmlns="http://www.w3.org/2000/svg" viewBox="0 0 130 130"><title>l12_1_1</title><path d="M100,94.65H16.32a5.74,5.74,0,0,1-5.74-5.74V36.4a5.74,5.74,0,0,1,5.74-5.73H100a5.74,5.74,0,0,1,5.73,5.73V88.91A5.74,5.74,0,0,1,100,94.65Zm5.31-74.31H11.93a11.86,11.86,0,0,0-7.31,3A12,12,0,0,0,.78,31.5V92.85a11.34,11.34,0,0,0,3.21,8,11.35,11.35,0,0,0,8,3.28h93.64a11.33,11.33,0,0,0,7.33-3.4,11.2,11.2,0,0,0,3-6.94v-6h4.75a10.24,10.24,0,0,0,6.78-3.23,10.09,10.09,0,0,0,2.57-6.12V45.61a10.34,10.34,0,0,0-8.86-8.85H116v-6.3A11,11,0,0,0,105.3,20.34ZM11.82,27h92.93a4.72,4.72,0,0,1,3.48,1.55,4.66,4.66,0,0,1,1.09,3V92.94a4.17,4.17,0,0,1-4.53,4.53h-93a4.84,4.84,0,0,1-2.94-1.21A4.91,4.91,0,0,1,7.31,93V31.5a4.75,4.75,0,0,1,1.54-3.39A4.69,4.69,0,0,1,11.82,27ZM34.48,71.78H26.35L32.1,66a19.31,19.31,0,0,0,3.38-4.5,10,10,0,0,0,1-4.46,7.25,7.25,0,0,0-1.24-4.19,7.94,7.94,0,0,0-3.5-2.8,13.23,13.23,0,0,0-5.26-1,15.71,15.71,0,0,0-4.68.72,15.38,15.38,0,0,0-4.27,2,2.55,2.55,0,0,0-1,1,3.29,3.29,0,0,0-.27,1.43A3.46,3.46,0,0,0,17,56.4a2.09,2.09,0,0,0,1.7.89,2.43,2.43,0,0,0,.77-.12,3.9,3.9,0,0,0,.83-.38l.63-.34.81-.39a19.8,19.8,0,0,1,2.29-1,6.79,6.79,0,0,1,2.16-.33,3.26,3.26,0,0,1,2.25.71,2.68,2.68,0,0,1,.79,2.08c0,1.55-.89,3.25-2.67,5.08l-8.59,8.84a4.4,4.4,0,0,0-1.37,3.12,3,3,0,0,0,.85,2.18,3.06,3.06,0,0,0,2.31.86H34.48a4.18,4.18,0,0,0,2.66-.71A2.77,2.77,0,0,0,38,74.65a2.61,2.61,0,0,0-.87-2.17A4.19,4.19,0,0,0,34.48,71.78ZM53.27,59.17a10.07,10.07,0,0,0-4,.73V55H58q3.52,0,3.52-2.81T58,49.41H45.46a3.49,3.49,0,0,0-2.55.88A3.45,3.45,0,0,0,42,52.86V63.7a2.19,2.19,0,0,0,.77,1.74,2.85,2.85,0,0,0,1.9.66,3.83,3.83,0,0,0,1.82-.45,14.69,14.69,0,0,1,2.33-.71,10.7,10.7,0,0,1,2.2-.2,4.59,4.59,0,0,1,3.16,1,4.08,4.08,0,0,1,0,5.62,5.29,5.29,0,0,1-3.36.89,7,7,0,0,1-2.24-.35c-.69-.25-1.46-.57-2.29-1l-.81-.41a11.08,11.08,0,0,0-1.22-.59,2.67,2.67,0,0,0-1-.16,2.11,2.11,0,0,0-1.7.85,3.28,3.28,0,0,0-.69,2.11,2.8,2.8,0,0,0,.31,1.37,3.43,3.43,0,0,0,1,1.1,13,13,0,0,0,4.15,2,16.7,16.7,0,0,0,4.92.73A13.46,13.46,0,0,0,57,76.74a9,9,0,0,0,3.88-3.41,9.34,9.34,0,0,0,1.38-5.08,9.49,9.49,0,0,0-1.15-4.73,8.07,8.07,0,0,0-3.2-3.2A9.46,9.46,0,0,0,53.27,59.17Zm18.95,7A7.15,7.15,0,0,0,77.81,64c1.35-1.47,2-3.62,2-6.42s-.67-4.9-2-6.38a7.18,7.18,0,0,0-5.59-2.21,7.19,7.19,0,0,0-5.59,2.21,9.09,9.09,0,0,0-2,6.34q0,4.2,2,6.45A7.17,7.17,0,0,0,72.22,66.17Zm0-4.31a1.43,1.43,0,0,1-1.36-1,9.3,9.3,0,0,1-.42-3.34,9,9,0,0,1,.42-3.25,1.42,1.42,0,0,1,2.7,0A8.68,8.68,0,0,1,74,57.53a9.3,9.3,0,0,1-.42,3.34A1.43,1.43,0,0,1,72.22,61.86Zm6,14.79L92.14,53a3.71,3.71,0,0,0,.57-1.88A2.38,2.38,0,0,0,92,49.32a2.34,2.34,0,0,0-1.72-.71,2.65,2.65,0,0,0-1.44.45,3.81,3.81,0,0,0-1.23,1.31L73.72,74.06a3.65,3.65,0,0,0-.57,1.88,2.42,2.42,0,0,0,.73,1.76,2.38,2.38,0,0,0,1.7.71A2.71,2.71,0,0,0,77,78,3.88,3.88,0,0,0,78.25,76.65ZM93.64,77.9a7.19,7.19,0,0,0,5.59-2.23q2-2.2,2-6.42a9.17,9.17,0,0,0-2-6.38,8.15,8.15,0,0,0-11.18,0,9.11,9.11,0,0,0-2,6.34c0,2.81.67,5,2,6.44A7.15,7.15,0,0,0,93.64,77.9Zm0-4.33a1.42,1.42,0,0,1-1.36-1,9.4,9.4,0,0,1-.42-3.35,9.23,9.23,0,0,1,.42-3.3,1.42,1.42,0,0,1,1.36-1A1.44,1.44,0,0,1,95,66a8.83,8.83,0,0,1,.44,3.27A9.4,9.4,0,0,1,95,72.6,1.42,1.42,0,0,1,93.64,73.57Z"/></svg>