<svg id="Layer_1" data-name="Layer 1" xmlns="http://www.w3.org/2000/svg" viewBox="0 0 130 130"><title>l12_5_1</title><path d="M87.43,98.2H14.32a5.74,5.74,0,0,1-5.74-5.74V47.05a5.74,5.74,0,0,1,5.74-5.74H87.43a5.74,5.74,0,0,1,5.74,5.74V92.46A5.74,5.74,0,0,1,87.43,98.2Zm-48.08-19H35.61V57.82A3.88,3.88,0,0,0,34.5,54.9a4.07,4.07,0,0,0-2.94-1.08,7.72,7.72,0,0,0-3.78,1.12l-7.29,4.19a3.05,3.05,0,0,0-1.59,2.79,3.73,3.73,0,0,0,.91,2.45A2.71,2.71,0,0,0,22,65.47a3.16,3.16,0,0,0,1.6-.45l3.64-2.11V79.15H23.54a4.61,4.61,0,0,0-3,.81,3,3,0,0,0-1,2.43q0,3.33,4,3.33H39.35q4,0,4-3.33a3,3,0,0,0-1-2.43A4.58,4.58,0,0,0,39.35,79.15Zm9.75,8L59.44,55.08a5,5,0,0,0,.18-1,2.63,2.63,0,0,0-1-2.12,3.44,3.44,0,0,0-2.26-.81,3,3,0,0,0-2.91,2.16L43.13,85.41a3,3,0,0,0-.18,1,2.61,2.61,0,0,0,.95,2.07,3.35,3.35,0,0,0,2.23.81,3.13,3.13,0,0,0,1.8-.54A3.06,3.06,0,0,0,49.1,87.16ZM79.84,69.39a6.88,6.88,0,0,0,3.58-2.66,7.79,7.79,0,0,0,1.3-4.5,7.43,7.43,0,0,0-3.17-6.32c-2.11-1.54-5-2.32-8.63-2.32s-6.48.78-8.61,2.32a7.39,7.39,0,0,0-3.19,6.32,7.59,7.59,0,0,0,1.28,4.39A7.44,7.44,0,0,0,66,69.39a7.57,7.57,0,0,0-4.28,2.68A7.83,7.83,0,0,0,60.26,77a7.73,7.73,0,0,0,3.39,6.68q3.39,2.42,9.27,2.41t9.27-2.41A8.41,8.41,0,0,0,84.1,72.16,7.92,7.92,0,0,0,79.84,69.39ZM72.92,79.83q-5,0-5-3.51t5-3.51q5,0,5,3.51T72.92,79.83Zm0-20a4.93,4.93,0,0,1,3,.78,3.05,3.05,0,0,1,1,2.55,3.09,3.09,0,0,1-1,2.56,4.79,4.79,0,0,1-3,.81,4.77,4.77,0,0,1-3-.81,3.09,3.09,0,0,1-1-2.56,3.06,3.06,0,0,1,1-2.55A4.91,4.91,0,0,1,72.92,59.85Zm57-2.11V81.09a11,11,0,0,1-11,11H102.31v5.31a9.76,9.76,0,0,1-9.18,9.19H9.86a10.05,10.05,0,0,1-7.14-2.91A10.07,10.07,0,0,1-.14,96.6V42.05a10.72,10.72,0,0,1,3.42-7.27,10.52,10.52,0,0,1,6.5-2.64h83a9.83,9.83,0,0,1,9.52,9v5.6h16.56A11,11,0,0,1,129.88,57.74ZM96.37,96.68V42.07A4,4,0,0,0,92.31,38H9.68A4.12,4.12,0,0,0,7,39a4.2,4.2,0,0,0-1.37,3V96.7a4.22,4.22,0,0,0,4,4H92.34a3.69,3.69,0,0,0,4-4Zm11.78-22.55h11a5.35,5.35,0,0,0,3.67-1.08,3.76,3.76,0,0,0,1.21-3,3.69,3.69,0,0,0-1.21-3,5.45,5.45,0,0,0-3.67-1h-11q-4.87,0-4.88,4C103.27,72.77,104.9,74.13,108.15,74.13Z"/></svg>