<svg id="Layer_1" data-name="Layer 1" xmlns="http://www.w3.org/2000/svg" viewBox="0 0 130 130"><title>l12_3_1</title><path d="M99.8,95.08H16.14a5.74,5.74,0,0,1-5.74-5.73V36.84a5.74,5.74,0,0,1,5.74-5.74H99.8a5.74,5.74,0,0,1,5.74,5.74V89.35A5.74,5.74,0,0,1,99.8,95.08Zm5.31-74.3H11.75a11.87,11.87,0,0,0-7.31,3A12,12,0,0,0,.6,31.94V93.29a11.36,11.36,0,0,0,3.2,8,11.35,11.35,0,0,0,8,3.27h93.65A11,11,0,0,0,115.82,94.2v-6h4.74A10.22,10.22,0,0,0,127.34,85a10.11,10.11,0,0,0,2.57-6.12V46.05a10.34,10.34,0,0,0-8.85-8.85h-5.23V30.89a11.07,11.07,0,0,0-10.72-10.11ZM11.63,27.39h92.94A4.61,4.61,0,0,1,108,28.94a4.53,4.53,0,0,1,1.09,3V93.38A4.29,4.29,0,0,1,108,96.6a4.35,4.35,0,0,1-3.44,1.31h-93a4.75,4.75,0,0,1-4.51-4.52V31.94a4.81,4.81,0,0,1,1.55-3.39A4.69,4.69,0,0,1,11.63,27.39Zm25.6,44.82H33.91v-19a3.46,3.46,0,0,0-1-2.6,3.59,3.59,0,0,0-2.61-1,7,7,0,0,0-3.36,1l-6.48,3.72a2.71,2.71,0,0,0-1.42,2.48,3.33,3.33,0,0,0,.81,2.18,2.43,2.43,0,0,0,1.95,1,2.72,2.72,0,0,0,1.41-.4l3.24-1.88V72.21H23.18a4.1,4.1,0,0,0-2.67.72,2.66,2.66,0,0,0-.85,2.16c0,2,1.18,3,3.52,3h14c2.35,0,3.53-1,3.53-3a2.69,2.69,0,0,0-.85-2.16A4.11,4.11,0,0,0,37.23,72.21Zm9.07,6.08a3.91,3.91,0,0,0,2.78-6.64,3.91,3.91,0,0,0-6.7,2.76,3.81,3.81,0,0,0,3.92,3.88ZM65.94,59.61a10.26,10.26,0,0,0-4,.72V55.41h8.75q3.52,0,3.52-2.8t-3.52-2.76H58.13a3.49,3.49,0,0,0-2.55.88,3.42,3.42,0,0,0-.89,2.56V64.13a2.18,2.18,0,0,0,.76,1.74,2.84,2.84,0,0,0,1.91.66,3.82,3.82,0,0,0,1.82-.44,16,16,0,0,1,2.33-.72,11.37,11.37,0,0,1,2.2-.2,4.64,4.64,0,0,1,3.16,1A3.53,3.53,0,0,1,68,69a3.44,3.44,0,0,1-1.1,2.82,5.23,5.23,0,0,1-3.36.9,6.7,6.7,0,0,1-2.24-.36,21.94,21.94,0,0,1-2.29-1l-.81-.4c-.54-.29-1-.49-1.22-.6a2.89,2.89,0,0,0-1-.16,2.12,2.12,0,0,0-1.7.86,3.28,3.28,0,0,0-.69,2.1,2.93,2.93,0,0,0,.3,1.38,3.47,3.47,0,0,0,1,1.1,13.24,13.24,0,0,0,4.15,2,17,17,0,0,0,4.92.72,13.32,13.32,0,0,0,5.79-1.2,9,9,0,0,0,3.88-3.4A9.34,9.34,0,0,0,75,68.69,9.56,9.56,0,0,0,73.82,64a8.2,8.2,0,0,0-3.2-3.2A9.46,9.46,0,0,0,65.94,59.61Zm22.31,18.8a9.5,9.5,0,0,0,8.1-3.72Q99.14,71,99.14,63.93T96.33,53.21a9.53,9.53,0,0,0-8.08-3.72,9.52,9.52,0,0,0-8.1,3.72q-2.79,3.72-2.79,10.72t2.79,10.76A9.52,9.52,0,0,0,88.25,78.41Zm0-5.56a2.89,2.89,0,0,1-2.79-2.08,19.56,19.56,0,0,1-.85-6.84,19.47,19.47,0,0,1,.85-6.82,2.92,2.92,0,0,1,5.59,0,19.74,19.74,0,0,1,.85,6.8,19.81,19.81,0,0,1-.85,6.84A2.9,2.9,0,0,1,88.25,72.85Z"/></svg>