<svg id="Layer_1" data-name="Layer 1" xmlns="http://www.w3.org/2000/svg" viewBox="0 0 130 130"><title>l12_1_1</title><path d="M112.17,23a11.24,11.24,0,0,1,3.52,7.19v6.3h5.23a10.34,10.34,0,0,1,8.85,8.85V78.16a10.11,10.11,0,0,1-2.57,6.12,10.22,10.22,0,0,1-6.78,3.23h-4.74v6a11,11,0,0,1-10.34,10.33H11.7a11.34,11.34,0,0,1-8-3.27,11.32,11.32,0,0,1-3.2-8V31.22A12,12,0,0,1,4.3,23a11.78,11.78,0,0,1,7.31-3H105A11.26,11.26,0,0,1,112.17,23ZM8.53,27.83A4.78,4.78,0,0,0,7,31.22V92.68A4.91,4.91,0,0,0,8.55,96a4.86,4.86,0,0,0,2.94,1.21h93A4.15,4.15,0,0,0,109,92.66V31.23a4.54,4.54,0,0,0-1.09-3,4.67,4.67,0,0,0-3.47-1.55H11.49A4.69,4.69,0,0,0,8.53,27.83Z"/><path d="M99.66,94.36H16a5.74,5.74,0,0,1-5.73-5.73V36.12A5.73,5.73,0,0,1,16,30.39H99.66a5.73,5.73,0,0,1,5.74,5.73V88.63A5.74,5.74,0,0,1,99.66,94.36ZM28.51,77.69A9.52,9.52,0,0,0,36.61,74q2.79-3.72,2.79-10.76T36.59,52.49a9.53,9.53,0,0,0-8.08-3.72,9.5,9.5,0,0,0-8.1,3.72q-2.79,3.72-2.79,10.72T20.41,74A9.5,9.5,0,0,0,28.51,77.69Zm0-5.56a2.88,2.88,0,0,1-2.79-2.08,19.51,19.51,0,0,1-.86-6.84,19.42,19.42,0,0,1,.86-6.82,2.92,2.92,0,0,1,5.58,0,19.49,19.49,0,0,1,.85,6.8,19.56,19.56,0,0,1-.85,6.84A2.89,2.89,0,0,1,28.51,72.13Zm17.65,5.44a3.91,3.91,0,0,0,2.78-6.64,3.92,3.92,0,0,0-6.71,2.76,3.83,3.83,0,0,0,3.93,3.88ZM65.8,58.89a10.26,10.26,0,0,0-4,.72V54.69h8.75q3.52,0,3.52-2.8t-3.52-2.76H58a3.53,3.53,0,0,0-2.56.88,3.46,3.46,0,0,0-.89,2.56V63.41a2.19,2.19,0,0,0,.77,1.74,2.84,2.84,0,0,0,1.91.66A3.85,3.85,0,0,0,59,65.37a16,16,0,0,1,2.33-.72,11.37,11.37,0,0,1,2.2-.2,4.64,4.64,0,0,1,3.16,1,3.53,3.53,0,0,1,1.14,2.8,3.44,3.44,0,0,1-1.1,2.82,5.23,5.23,0,0,1-3.36.9,6.81,6.81,0,0,1-2.25-.36,22.79,22.79,0,0,1-2.28-1l-.81-.4c-.54-.29-1-.49-1.22-.6a2.93,2.93,0,0,0-1-.16,2.1,2.1,0,0,0-1.7.86,3.28,3.28,0,0,0-.69,2.1,2.93,2.93,0,0,0,.3,1.38,3.47,3.47,0,0,0,1,1.1,13.24,13.24,0,0,0,4.15,2,17,17,0,0,0,4.92.72,13.32,13.32,0,0,0,5.79-1.2,9,9,0,0,0,3.88-3.4A9.34,9.34,0,0,0,74.83,68a9.56,9.56,0,0,0-1.15-4.74,8.2,8.2,0,0,0-3.2-3.2A9.48,9.48,0,0,0,65.8,58.89Zm22.31,18.8A9.5,9.5,0,0,0,96.21,74Q99,70.25,99,63.21T96.19,52.49a9.53,9.53,0,0,0-8.08-3.72A9.52,9.52,0,0,0,80,52.49q-2.79,3.72-2.79,10.72T80,74A9.52,9.52,0,0,0,88.11,77.69Zm0-5.56a2.88,2.88,0,0,1-2.79-2.08,19.56,19.56,0,0,1-.85-6.84,19.47,19.47,0,0,1,.85-6.82,2.92,2.92,0,0,1,5.58,0,19.44,19.44,0,0,1,.86,6.8,19.51,19.51,0,0,1-.86,6.84A2.88,2.88,0,0,1,88.11,72.13Z"/></svg>