<svg id="Layer_1" data-name="Layer 1" xmlns="http://www.w3.org/2000/svg" viewBox="0 0 130 130"><title>l12_4_1</title><path d="M87.58,92.87H14.46a5.74,5.74,0,0,1-5.74-5.74V41.72A5.73,5.73,0,0,1,14.46,36H87.58a5.73,5.73,0,0,1,5.74,5.73V87.13A5.74,5.74,0,0,1,87.58,92.87Zm-48.09-19H35.76V52.5a3.87,3.87,0,0,0-1.12-2.93,4,4,0,0,0-2.94-1.08,7.8,7.8,0,0,0-3.78,1.13L20.63,53.8A3.05,3.05,0,0,0,19,56.59,3.73,3.73,0,0,0,20,59a2.76,2.76,0,0,0,2.19,1.11,3.15,3.15,0,0,0,1.59-.45l3.65-2.12V73.83H23.69a4.61,4.61,0,0,0-3,.81,3,3,0,0,0-1,2.43q0,3.33,4,3.33h15.8c2.64,0,4-1.11,4-3.33a3,3,0,0,0-1-2.43A4.61,4.61,0,0,0,39.49,73.83Zm9.75,8L59.58,49.75a5,5,0,0,0,.18-1,2.58,2.58,0,0,0-1-2.11,3.42,3.42,0,0,0-2.25-.81A3,3,0,0,0,53.61,48L43.27,80.08a3,3,0,0,0-.18,1,2.59,2.59,0,0,0,1,2.07,3.35,3.35,0,0,0,2.23.81,3.13,3.13,0,0,0,1.8-.54A3,3,0,0,0,49.24,81.84ZM80,64.06a6.8,6.8,0,0,0,3.57-2.65,7.72,7.72,0,0,0,1.3-4.5,7.43,7.43,0,0,0-3.16-6.33c-2.12-1.54-5-2.31-8.64-2.31s-6.48.77-8.6,2.31a7.41,7.41,0,0,0-3.19,6.33,7.55,7.55,0,0,0,1.27,4.38,7.47,7.47,0,0,0,3.65,2.77,7.59,7.59,0,0,0-4.29,2.68,7.86,7.86,0,0,0-1.5,4.93,7.74,7.74,0,0,0,3.39,6.68c2.27,1.6,5.36,2.41,9.27,2.41s7-.81,9.27-2.41a7.73,7.73,0,0,0,3.4-6.68,7.83,7.83,0,0,0-1.48-4.84A7.92,7.92,0,0,0,80,64.06ZM73.06,74.5q-5,0-5-3.51t5-3.51q5,0,5,3.51T73.06,74.5Zm0-20a4.89,4.89,0,0,1,3.06.79,3,3,0,0,1,1,2.54,3.14,3.14,0,0,1-1,2.57,6.17,6.17,0,0,1-6.11,0,3.11,3.11,0,0,1-1-2.57,3,3,0,0,1,1-2.54A4.88,4.88,0,0,1,73.06,54.52Zm57-2.11V75.76a11,11,0,0,1-11,11H102.46v5.32a9.78,9.78,0,0,1-9.19,9.18H10a10.06,10.06,0,0,1-7.15-2.91A10.08,10.08,0,0,1,0,91.28V36.72a10.67,10.67,0,0,1,3.42-7.27,10.52,10.52,0,0,1,6.49-2.64h83a10,10,0,0,1,6.4,2.6,10.06,10.06,0,0,1,3.13,6.39v5.61H119A11,11,0,0,1,130,52.41ZM96.51,91.35V36.74a4,4,0,0,0-1-2.68,4.19,4.19,0,0,0-3.09-1.38H9.82a4.16,4.16,0,0,0-2.63,1,4.3,4.3,0,0,0-1.38,3V91.37a4.42,4.42,0,0,0,1.4,2.94,4.32,4.32,0,0,0,2.61,1.07H92.48a3.69,3.69,0,0,0,4-4Zm25.54-30.88h-5.61V54.93a2.49,2.49,0,0,0-.76-1.85,2.71,2.71,0,0,0-3.74,0,2.49,2.49,0,0,0-.76,1.85v5.54h-5.61a2.55,2.55,0,0,0-1.87.75,2.49,2.49,0,0,0-.76,1.85,2.61,2.61,0,0,0,2.63,2.64h5.61v5.5a2.49,2.49,0,0,0,.76,1.85,2.62,2.62,0,0,0,4.5-1.85v-5.5h5.61a2.61,2.61,0,0,0,2.63-2.64,2.49,2.49,0,0,0-.76-1.85A2.55,2.55,0,0,0,122.05,60.47Z"/></svg>