<svg id="Layer_1" data-name="Layer 1" xmlns="http://www.w3.org/2000/svg" viewBox="0 0 130 130"><title>l12_4_1</title><path d="M87.56,97H14.44a5.73,5.73,0,0,1-5.73-5.74V45.8a5.73,5.73,0,0,1,5.73-5.74H87.56A5.74,5.74,0,0,1,93.3,45.8V91.21A5.74,5.74,0,0,1,87.56,97Zm-52-28.81a7.25,7.25,0,0,0,4.92-7.07,7.76,7.76,0,0,0-1.39-4.59,8.9,8.9,0,0,0-4-3.06,15.46,15.46,0,0,0-5.94-1.08,18.41,18.41,0,0,0-5.4.81A15.47,15.47,0,0,0,19.2,55.4a3.68,3.68,0,0,0-1.09,1.22,3.48,3.48,0,0,0-.32,1.57,3.66,3.66,0,0,0,.78,2.37,2.35,2.35,0,0,0,1.91,1,3,3,0,0,0,1.14-.2c.33-.13.79-.35,1.37-.65l1-.45a25,25,0,0,1,2.48-1.08,7,7,0,0,1,2.4-.41,3.9,3.9,0,0,1,2.77.93,3.31,3.31,0,0,1,1,2.58,2.52,2.52,0,0,1-1.14,2.3,7.07,7.07,0,0,1-3.65.72h-2a2.58,2.58,0,0,0-2.14.95,3.39,3.39,0,0,0-.78,2.25,3.44,3.44,0,0,0,.78,2.25,2.63,2.63,0,0,0,2.14.94h2.82a6.91,6.91,0,0,1,3.74.77,2.78,2.78,0,0,1,1.14,2.51,3.1,3.1,0,0,1-1.12,2.7,6.39,6.39,0,0,1-3.67.81,8.14,8.14,0,0,1-2.61-.38A19.36,19.36,0,0,1,23.49,77l-.57-.25-.44-.2a14.88,14.88,0,0,0-1.36-.65A3,3,0,0,0,20,75.65a2.36,2.36,0,0,0-1.91,1A3.65,3.65,0,0,0,17.29,79a3.13,3.13,0,0,0,1.41,2.79,14.91,14.91,0,0,0,4.74,2.28,20.63,20.63,0,0,0,5.69.78,17.22,17.22,0,0,0,6.45-1.1,9.44,9.44,0,0,0,4.26-3.13,7.77,7.77,0,0,0,1.5-4.77,8,8,0,0,0-1.52-4.9A7.79,7.79,0,0,0,35.6,68.14ZM49.22,85.92,59.56,53.83a5.23,5.23,0,0,0,.19-1,2.63,2.63,0,0,0-1-2.12,3.45,3.45,0,0,0-2.26-.8,3,3,0,0,0-2.91,2.15L43.26,84.16a2.77,2.77,0,0,0-.19,1,2.59,2.59,0,0,0,1,2.07,3.35,3.35,0,0,0,2.23.81,3.13,3.13,0,0,0,1.8-.54A3.06,3.06,0,0,0,49.22,85.92Zm33-33.17H64.39a4.57,4.57,0,0,0-3,.83,3.17,3.17,0,0,0-1,2.5,3.05,3.05,0,0,0,.93,2.43,4.58,4.58,0,0,0,3,.81H75.78L64.07,79.07a4.27,4.27,0,0,0-.64,2.16,3.26,3.26,0,0,0,1.24,2.59,4.18,4.18,0,0,0,2.82,1.06,3.86,3.86,0,0,0,1.93-.52A4.19,4.19,0,0,0,71,82.76L84.8,59.14a5.67,5.67,0,0,0,.87-3,3.48,3.48,0,0,0-.89-2.45A3.26,3.26,0,0,0,82.25,52.75ZM130,56.49V79.84a11,11,0,0,1-11,11H102.44v5.32a9.76,9.76,0,0,1-9.19,9.18H10a10.06,10.06,0,0,1-7.15-2.91A10.09,10.09,0,0,1,0,95.35V40.8a10.72,10.72,0,0,1,3.42-7.27,10.52,10.52,0,0,1,6.5-2.64h83a9.83,9.83,0,0,1,9.53,9v5.6H119A11,11,0,0,1,130,56.49ZM96.5,95.43V40.82a4.09,4.09,0,0,0-1-2.68,4.16,4.16,0,0,0-3.09-1.38H9.81a4.18,4.18,0,0,0-2.64,1,4.28,4.28,0,0,0-1.38,3V95.45a4.42,4.42,0,0,0,1.4,2.94,4.32,4.32,0,0,0,2.62,1.07H92.47a3.7,3.7,0,0,0,4-4ZM122,65.15h-5.61V59.61a2.49,2.49,0,0,0-.76-1.85,2.71,2.71,0,0,0-3.74,0,2.52,2.52,0,0,0-.75,1.85v5.54h-5.62a2.56,2.56,0,0,0-1.87.75,2.53,2.53,0,0,0-.76,1.85,2.59,2.59,0,0,0,.76,1.87,2.54,2.54,0,0,0,1.87.77h5.62v5.5a2.52,2.52,0,0,0,.75,1.85,2.62,2.62,0,0,0,4.5-1.85v-5.5H122a2.61,2.61,0,0,0,2.63-2.64,2.49,2.49,0,0,0-.76-1.85A2.55,2.55,0,0,0,122,65.15Z"/></svg>