<svg id="Layer_1" data-name="Layer 1" xmlns="http://www.w3.org/2000/svg" viewBox="0 0 130 130"><title>l12_3_1</title><path d="M99.28,93.54H15.61A5.74,5.74,0,0,1,9.87,87.8V35.3a5.74,5.74,0,0,1,5.74-5.74H99.28A5.74,5.74,0,0,1,105,35.3V87.8A5.74,5.74,0,0,1,99.28,93.54Zm5.31-74.3H11.22a11.89,11.89,0,0,0-7.31,3A12,12,0,0,0,.07,30.39V91.75a11.34,11.34,0,0,0,3.21,8,11.33,11.33,0,0,0,8,3.27H105a11,11,0,0,0,10.33-10.33v-6H120a9.91,9.91,0,0,0,9.35-9.34V44.51a10.34,10.34,0,0,0-8.86-8.85H115.3V29.35a11,11,0,0,0-10.71-10.11ZM11.11,25.85H104a4.48,4.48,0,0,1,4.57,4.56V91.84a4.17,4.17,0,0,1-4.53,4.53h-93A4.75,4.75,0,0,1,6.6,91.85V30.4A4.74,4.74,0,0,1,8.14,27,4.69,4.69,0,0,1,11.11,25.85ZM36.69,70.67H33.37v-19a3.46,3.46,0,0,0-1-2.6,3.61,3.61,0,0,0-2.62-1,6.88,6.88,0,0,0-3.36,1l-6.47,3.72a2.71,2.71,0,0,0-1.42,2.48,3.33,3.33,0,0,0,.81,2.18,2.43,2.43,0,0,0,1.94,1,2.76,2.76,0,0,0,1.42-.4l3.24-1.88V70.67H22.64a4.06,4.06,0,0,0-2.67.72,2.66,2.66,0,0,0-.85,2.16q0,3,3.52,3h14q3.53,0,3.52-3a2.66,2.66,0,0,0-.85-2.16A4.1,4.1,0,0,0,36.69,70.67Zm9.07,6.08a3.81,3.81,0,0,0,3.88-3.88,3.78,3.78,0,0,0-1.11-2.76A3.74,3.74,0,0,0,45.76,69a3.81,3.81,0,0,0-3.93,3.88,3.75,3.75,0,0,0,1.11,2.76A3.81,3.81,0,0,0,45.76,76.75Zm25.18-6.08H62.8l5.75-5.8a18.71,18.71,0,0,0,3.39-4.5,10,10,0,0,0,1-4.46,7.22,7.22,0,0,0-1.24-4.18,7.94,7.94,0,0,0-3.5-2.8,13.23,13.23,0,0,0-5.26-1,16.61,16.61,0,0,0-9,2.72,2.61,2.61,0,0,0-1,1,3.36,3.36,0,0,0-.27,1.44,3.41,3.41,0,0,0,.69,2.14,2.08,2.08,0,0,0,1.7.9,2.43,2.43,0,0,0,.77-.12,5.25,5.25,0,0,0,.83-.38l.63-.34.81-.4a18.86,18.86,0,0,1,2.29-1,6.52,6.52,0,0,1,2.16-.34,3.24,3.24,0,0,1,2.25.72,2.66,2.66,0,0,1,.79,2.08q0,2.32-2.67,5.08l-8.59,8.84A4.37,4.37,0,0,0,53,73.47a3,3,0,0,0,.85,2.18,3,3,0,0,0,2.3.86H70.94a4.14,4.14,0,0,0,2.66-.72,2.73,2.73,0,0,0,.87-2.24,2.64,2.64,0,0,0-.87-2.18A4.21,4.21,0,0,0,70.94,70.67Zm18.79-12.6a10.26,10.26,0,0,0-4,.72V53.87h8.75q3.52,0,3.52-2.8t-3.52-2.76H81.92a3.49,3.49,0,0,0-2.55.88,3.43,3.43,0,0,0-.9,2.56V62.59a2.19,2.19,0,0,0,.77,1.74,2.84,2.84,0,0,0,1.91.66A3.82,3.82,0,0,0,83,64.55a14.85,14.85,0,0,1,2.33-.72,11.37,11.37,0,0,1,2.2-.2,4.64,4.64,0,0,1,3.16,1,3.53,3.53,0,0,1,1.14,2.8,3.44,3.44,0,0,1-1.1,2.82,5.23,5.23,0,0,1-3.36.9,6.81,6.81,0,0,1-2.25-.36,22.79,22.79,0,0,1-2.28-1l-.81-.4c-.54-.29-1-.49-1.22-.6a2.89,2.89,0,0,0-1-.16,2.1,2.1,0,0,0-1.7.86,3.28,3.28,0,0,0-.69,2.1,3,3,0,0,0,.3,1.38,3.47,3.47,0,0,0,1,1.1,13.24,13.24,0,0,0,4.15,2,17,17,0,0,0,4.92.72,13.32,13.32,0,0,0,5.79-1.2,9,9,0,0,0,3.88-3.4,9.34,9.34,0,0,0,1.38-5.08,9.51,9.51,0,0,0-1.15-4.74,8.2,8.2,0,0,0-3.2-3.2A9.46,9.46,0,0,0,89.73,58.07Z"/></svg>