<svg id="Layer_1" data-name="Layer 1" xmlns="http://www.w3.org/2000/svg" viewBox="0 0 130 130"><title>l12_3_1</title><path d="M99.79,94.16H16.13a5.74,5.74,0,0,1-5.74-5.74V35.92a5.74,5.74,0,0,1,5.74-5.74H99.79a5.74,5.74,0,0,1,5.74,5.74v52.5A5.74,5.74,0,0,1,99.79,94.16Zm5.32-74.31H11.74a11.84,11.84,0,0,0-7.31,3A12,12,0,0,0,.59,31V92.36a11.36,11.36,0,0,0,3.2,8,11.38,11.38,0,0,0,8,3.28h93.65a11,11,0,0,0,10.33-10.33v-6h4.74a10.25,10.25,0,0,0,6.78-3.22A10,10,0,0,0,129.9,78V45.13a10.41,10.41,0,0,0-2.82-5.81,10.53,10.53,0,0,0-6-3h-5.23V30a11.07,11.07,0,0,0-10.71-10.12ZM11.63,26.46h92.93A4.69,4.69,0,0,1,108,28a4.55,4.55,0,0,1,1.09,3V92.45A4.28,4.28,0,0,1,108,95.67,4.35,4.35,0,0,1,104.59,97h-93a4.84,4.84,0,0,1-2.94-1.21,4.89,4.89,0,0,1-1.58-3.3V31a4.83,4.83,0,0,1,1.55-3.39A4.69,4.69,0,0,1,11.63,26.46ZM42.94,72.39H32.15l7.62-7.69a24.8,24.8,0,0,0,4.48-6,13.15,13.15,0,0,0,1.32-5.91,9.66,9.66,0,0,0-1.64-5.54,10.54,10.54,0,0,0-4.64-3.71,17.56,17.56,0,0,0-7-1.3,21.1,21.1,0,0,0-6.19,1,20.75,20.75,0,0,0-5.66,2.65,3.5,3.5,0,0,0-1.32,1.38A5,5,0,0,0,19.71,52,2.73,2.73,0,0,0,22,53.2,3.11,3.11,0,0,0,23,53a6,6,0,0,0,1.1-.5l.83-.45L26,51.56a25.51,25.51,0,0,1,3-1.3,8.77,8.77,0,0,1,2.87-.45,4.27,4.27,0,0,1,3,.95,3.55,3.55,0,0,1,1,2.76q0,3.07-3.54,6.73L21,72a5.81,5.81,0,0,0-1.82,4.14A4,4,0,0,0,20.3,79a4.1,4.1,0,0,0,3.05,1.14H42.94a5.41,5.41,0,0,0,3.51-1,3.61,3.61,0,0,0,1.15-3,3.46,3.46,0,0,0-1.15-2.88A5.53,5.53,0,0,0,42.94,72.39Zm12.93,9.43L68.05,44a5.82,5.82,0,0,0,.21-1.16,3.06,3.06,0,0,0-1.15-2.49,4,4,0,0,0-2.66-1A3.54,3.54,0,0,0,61,42L48.84,79.75A3.61,3.61,0,0,0,48.62,81a3.05,3.05,0,0,0,1.13,2.44,3.93,3.93,0,0,0,2.63,1,3.73,3.73,0,0,0,2.12-.64A3.64,3.64,0,0,0,55.87,81.82ZM95.46,66.4H94.28V47.27a4.49,4.49,0,0,0-1.45-3.56,5.14,5.14,0,0,0-3.49-1.27A5.43,5.43,0,0,0,87,43a4.9,4.9,0,0,0-1.91,1.62L69.71,66.24a5.88,5.88,0,0,0-1.18,3.5,4,4,0,0,0,1.12,2.91,4.08,4.08,0,0,0,3.06,1.17h12v1.8A4.65,4.65,0,0,0,86,79.22a4.86,4.86,0,0,0,3.46,1.22,5,5,0,0,0,3.49-1.22,4.63,4.63,0,0,0,1.34-3.6v-1.8h1.18q4.67,0,4.67-3.76T95.46,66.4Zm-17.22,0,6.44-9.17V66.4Z"/></svg>