<svg id="Layer_1" data-name="Layer 1" xmlns="http://www.w3.org/2000/svg" viewBox="0 0 130 130"><title>l12_2_1</title><path d="M99.55,96.18H15.88a5.74,5.74,0,0,1-5.74-5.73V37.94a5.74,5.74,0,0,1,5.74-5.74H99.55a5.74,5.74,0,0,1,5.73,5.74V90.45A5.74,5.74,0,0,1,99.55,96.18Zm5.31-74.3H11.49a11.75,11.75,0,0,0-7.3,3A12,12,0,0,0,.34,33V94.39a11.34,11.34,0,0,0,3.21,8,11.33,11.33,0,0,0,8,3.27h93.64A11,11,0,0,0,115.56,95.3v-6h4.75a10.24,10.24,0,0,0,6.78-3.23A10.11,10.11,0,0,0,129.66,80V47.15a10.34,10.34,0,0,0-8.85-8.85h-5.24V32a11,11,0,0,0-10.71-10.12ZM11.38,28.49h92.93A4.68,4.68,0,0,1,107.79,30a4.58,4.58,0,0,1,1.09,3V94.48A4.17,4.17,0,0,1,104.35,99h-93A4.75,4.75,0,0,1,6.87,94.5V33a4.8,4.8,0,0,1,1.54-3.39A4.69,4.69,0,0,1,11.38,28.49ZM43.57,74.85H33.4l7.18-7.25A23.48,23.48,0,0,0,44.81,62a12.45,12.45,0,0,0,1.24-5.58,9.06,9.06,0,0,0-1.54-5.22,9.8,9.8,0,0,0-4.38-3.5,16.43,16.43,0,0,0-6.58-1.23,20.78,20.78,0,0,0-11.19,3.4,3.43,3.43,0,0,0-1.24,1.3,4.78,4.78,0,0,0,.53,4.48,2.6,2.6,0,0,0,2.13,1.12,3,3,0,0,0,1-.15,6.84,6.84,0,0,0,1-.47l.78-.43,1-.5A24.31,24.31,0,0,1,30.44,54a8,8,0,0,1,2.7-.43,4,4,0,0,1,2.81.9,3.34,3.34,0,0,1,1,2.6c0,1.94-1.11,4.05-3.34,6.35L22.87,74.45a5.44,5.44,0,0,0-1.72,3.9,3.72,3.72,0,0,0,1.06,2.73,3.9,3.9,0,0,0,2.89,1.07H43.57a5.16,5.16,0,0,0,3.32-.9A3.44,3.44,0,0,0,48,78.45a3.29,3.29,0,0,0-1.08-2.72A5.22,5.22,0,0,0,43.57,74.85Zm12.2,8.9L67.26,48.1a5.73,5.73,0,0,0,.2-1.1,2.9,2.9,0,0,0-1.09-2.35,3.8,3.8,0,0,0-2.5-.9,3.33,3.33,0,0,0-3.24,2.4L49.14,81.8a3.2,3.2,0,0,0-.2,1.15A2.88,2.88,0,0,0,50,85.25a3.71,3.71,0,0,0,2.48.9,3.49,3.49,0,0,0,2-.6A3.4,3.4,0,0,0,55.77,83.75ZM84.72,59.1a12.81,12.81,0,0,0-5,.9V53.85H90.64c2.94,0,4.4-1.16,4.4-3.5s-1.46-3.45-4.4-3.45H75A4.37,4.37,0,0,0,71.76,48a4.32,4.32,0,0,0-1.11,3.2V64.75a2.74,2.74,0,0,0,1,2.18,3.51,3.51,0,0,0,2.38.82,4.86,4.86,0,0,0,2.28-.55,18.57,18.57,0,0,1,2.91-.9,14.43,14.43,0,0,1,2.76-.25,5.77,5.77,0,0,1,3.94,1.25,4.42,4.42,0,0,1,1.42,3.5,4.32,4.32,0,0,1-1.37,3.53,6.53,6.53,0,0,1-4.2,1.12A8.49,8.49,0,0,1,78.92,75a28.82,28.82,0,0,1-2.86-1.2l-1-.5c-.67-.36-1.18-.61-1.52-.75a3.5,3.5,0,0,0-1.26-.2,2.63,2.63,0,0,0-2.13,1.08,4.07,4.07,0,0,0-.86,2.62,3.74,3.74,0,0,0,.38,1.73,4.39,4.39,0,0,0,1.19,1.37A16.7,16.7,0,0,0,76,81.65a21.39,21.39,0,0,0,6.15.9,16.64,16.64,0,0,0,7.24-1.5,11.34,11.34,0,0,0,4.86-4.25,12.69,12.69,0,0,0,.27-12.27,10.13,10.13,0,0,0-4-4A11.78,11.78,0,0,0,84.72,59.1Z"/></svg>