<svg id="Layer_1" data-name="Layer 1" xmlns="http://www.w3.org/2000/svg" viewBox="0 0 130 130"><title>l12_3_1</title><path d="M99.28,95.08H15.61a5.74,5.74,0,0,1-5.74-5.74V36.84a5.74,5.74,0,0,1,5.74-5.74H99.28A5.74,5.74,0,0,1,105,36.84v52.5A5.74,5.74,0,0,1,99.28,95.08Zm5.31-74.31H11.22a11.86,11.86,0,0,0-7.31,3A12,12,0,0,0,.07,31.93V93.28a11.34,11.34,0,0,0,3.21,8,11.35,11.35,0,0,0,8,3.28H105a11.28,11.28,0,0,0,7.33-3.4,11.16,11.16,0,0,0,3-6.93v-6H120a9.91,9.91,0,0,0,9.35-9.35V46.05a10.31,10.31,0,0,0-8.86-8.85H115.3V30.89a11.07,11.07,0,0,0-10.71-10.12ZM11.11,27.38H104a4.72,4.72,0,0,1,3.48,1.55,4.66,4.66,0,0,1,1.09,3V93.37a4.17,4.17,0,0,1-4.53,4.53h-93a4.77,4.77,0,0,1-2.94-1.21,4.89,4.89,0,0,1-1.57-3.3V31.93a4.75,4.75,0,0,1,1.54-3.39A4.69,4.69,0,0,1,11.11,27.38Zm25.6,44.83H33.39v-19a3.44,3.44,0,0,0-1-2.6,3.61,3.61,0,0,0-2.61-1,6.89,6.89,0,0,0-3.37,1L20,54.41a2.7,2.7,0,0,0-1.42,2.48,3.35,3.35,0,0,0,.81,2.18,2.46,2.46,0,0,0,1.94,1,2.85,2.85,0,0,0,1.42-.4l3.24-1.88V72.21H22.66a4.06,4.06,0,0,0-2.67.72,2.66,2.66,0,0,0-.85,2.16q0,3,3.52,3H36.71q3.52,0,3.52-3a2.66,2.66,0,0,0-.85-2.16A4.1,4.1,0,0,0,36.71,72.21Zm9.07,6.08a3.9,3.9,0,0,0,2.77-6.64,3.72,3.72,0,0,0-2.77-1.12A3.81,3.81,0,0,0,43,71.65a4,4,0,0,0,0,5.52A3.84,3.84,0,0,0,45.78,78.29ZM71.61,49.85H55.74a3.94,3.94,0,0,0-2.67.74,2.77,2.77,0,0,0-.85,2.22A2.68,2.68,0,0,0,53.05,55a4.07,4.07,0,0,0,2.69.72H65.86L55.46,73.25a3.73,3.73,0,0,0-.57,1.92A2.93,2.93,0,0,0,56,77.47a3.78,3.78,0,0,0,2.51.94A3.55,3.55,0,0,0,60.21,78a3.74,3.74,0,0,0,1.4-1.42l12.27-21a5.12,5.12,0,0,0,.77-2.64,3.08,3.08,0,0,0-.79-2.18A2.89,2.89,0,0,0,71.61,49.85Zm18.1,9.76a10.26,10.26,0,0,0-4,.72V55.41h8.75c2.35,0,3.52-.94,3.52-2.8s-1.17-2.76-3.52-2.76H81.9a3.45,3.45,0,0,0-2.55.88,3.41,3.41,0,0,0-.9,2.56V64.13a2.19,2.19,0,0,0,.77,1.74,2.84,2.84,0,0,0,1.91.66A4,4,0,0,0,83,66.09a13.85,13.85,0,0,1,2.33-.72,10.64,10.64,0,0,1,2.2-.2,4.59,4.59,0,0,1,3.16,1A3.52,3.52,0,0,1,91.78,69a3.44,3.44,0,0,1-1.1,2.82,5.23,5.23,0,0,1-3.36.9,6.81,6.81,0,0,1-2.25-.36,22.79,22.79,0,0,1-2.28-1L82,71a9.89,9.89,0,0,0-1.22-.6,2.71,2.71,0,0,0-1-.16,2.08,2.08,0,0,0-1.7.86,3.24,3.24,0,0,0-.69,2.1,3,3,0,0,0,.3,1.38,3.7,3.7,0,0,0,1,1.1,13.46,13.46,0,0,0,4.15,2,17,17,0,0,0,4.92.72,13.32,13.32,0,0,0,5.79-1.2,9.08,9.08,0,0,0,3.88-3.4,9.37,9.37,0,0,0,1.38-5.08A9.51,9.51,0,0,0,97.59,64a8.14,8.14,0,0,0-3.2-3.2A9.46,9.46,0,0,0,89.71,59.61Z"/></svg>