<svg id="Layer_1" data-name="Layer 1" xmlns="http://www.w3.org/2000/svg" viewBox="0 0 130 130"><title>l12_4_1</title><path d="M87.57,97.39H14.45a5.74,5.74,0,0,1-5.74-5.73V46.25a5.74,5.74,0,0,1,5.74-5.74H87.57a5.74,5.74,0,0,1,5.74,5.74V91.66A5.74,5.74,0,0,1,87.57,97.39Zm-49.29-19H29.12l6.47-6.53a20.89,20.89,0,0,0,3.8-5.06,11.14,11.14,0,0,0,1.12-5A8.15,8.15,0,0,0,39.12,57a9,9,0,0,0-3.94-3.15,14.92,14.92,0,0,0-5.92-1.1,18.73,18.73,0,0,0-10.07,3.06A3,3,0,0,0,18.07,57a4,4,0,0,0-.29,1.62,3.9,3.9,0,0,0,.77,2.41,2.36,2.36,0,0,0,1.92,1,2.72,2.72,0,0,0,.86-.14,5.61,5.61,0,0,0,.94-.42c.34-.2.58-.33.7-.39l.91-.45a22.47,22.47,0,0,1,2.58-1.1,7.55,7.55,0,0,1,2.43-.38,3.61,3.61,0,0,1,2.53.81,3,3,0,0,1,.89,2.34q0,2.61-3,5.71L19.65,78A4.87,4.87,0,0,0,18.1,81.5,3.36,3.36,0,0,0,19.05,84a3.49,3.49,0,0,0,2.6,1H38.28a4.61,4.61,0,0,0,3-.81,3.09,3.09,0,0,0,1-2.52,3,3,0,0,0-1-2.45A4.67,4.67,0,0,0,38.28,78.35Zm11,8L59.6,54.27a5,5,0,0,0,.18-1,2.61,2.61,0,0,0-1-2.11,3.44,3.44,0,0,0-2.26-.81,3,3,0,0,0-2.91,2.16L43.29,84.6a3,3,0,0,0-.18,1,2.58,2.58,0,0,0,1,2.07,3.35,3.35,0,0,0,2.23.81,3.13,3.13,0,0,0,1.8-.54A3,3,0,0,0,49.25,86.36Zm33.62-13.1h-1V57a3.81,3.81,0,0,0-1.23-3,4.34,4.34,0,0,0-3-1.08,4.58,4.58,0,0,0-2,.48A4.1,4.1,0,0,0,74,54.77L61,73.13a5,5,0,0,0-1,3,3.4,3.4,0,0,0,1,2.47,3.44,3.44,0,0,0,2.6,1H73.72v1.53a4,4,0,0,0,1.11,3.06,4.17,4.17,0,0,0,2.94,1,4.23,4.23,0,0,0,3-1,3.93,3.93,0,0,0,1.14-3.06V79.56h1c2.64,0,4-1.06,4-3.19S85.51,73.26,82.87,73.26Zm-14.62,0,5.47-7.78v7.78ZM130,56.93V80.28a11,11,0,0,1-11,11h-12.2l-.14,0h-4.22v5.31a9.8,9.8,0,0,1-9.19,9.19H10a10.09,10.09,0,0,1-7.15-2.92A10.08,10.08,0,0,1,0,95.8V41.25A10.72,10.72,0,0,1,3.42,34a10.52,10.52,0,0,1,6.5-2.64h83a9.83,9.83,0,0,1,9.53,9v5.61H119A11,11,0,0,1,130,56.93ZM96.5,95.88V41.26a4.07,4.07,0,0,0-1-2.68,4.21,4.21,0,0,0-3.1-1.38H9.81a4.16,4.16,0,0,0-2.63,1,4.3,4.3,0,0,0-1.38,3V95.89a4.4,4.4,0,0,0,1.4,2.94A4.32,4.32,0,0,0,9.81,99.9H92.48a3.83,3.83,0,0,0,3-1.16A3.76,3.76,0,0,0,96.5,95.88ZM122,65.6h-5.61V60.05a2.45,2.45,0,0,0-.76-1.84,2.71,2.71,0,0,0-3.74,0,2.49,2.49,0,0,0-.76,1.84V65.6h-5.61a2.56,2.56,0,0,0-1.87.75,2.49,2.49,0,0,0-.76,1.84,2.57,2.57,0,0,0,.76,1.87,2.5,2.5,0,0,0,1.87.77h5.61v5.5a2.51,2.51,0,0,0,.76,1.85,2.56,2.56,0,0,0,1.87.75,2.55,2.55,0,0,0,2.63-2.6v-5.5H122a2.49,2.49,0,0,0,1.87-.77,2.53,2.53,0,0,0,.76-1.87,2.45,2.45,0,0,0-.76-1.84A2.55,2.55,0,0,0,122,65.6Z"/></svg>