<svg id="Layer_1" data-name="Layer 1" xmlns="http://www.w3.org/2000/svg" viewBox="0 0 130 130"><title>l12_4_1</title><path d="M87.55,92.18H14.43A5.74,5.74,0,0,1,8.7,86.44V41a5.74,5.74,0,0,1,5.73-5.74H87.55A5.74,5.74,0,0,1,93.29,41V86.44A5.74,5.74,0,0,1,87.55,92.18ZM38.26,73.13H29.1l6.47-6.52a21.26,21.26,0,0,0,3.81-5.07,11.23,11.23,0,0,0,1.11-5,8.18,8.18,0,0,0-1.39-4.71,8.91,8.91,0,0,0-3.94-3.15,14.89,14.89,0,0,0-5.92-1.1,18.73,18.73,0,0,0-10.07,3.06,3,3,0,0,0-1.11,1.17,3.78,3.78,0,0,0-.3,1.62,3.85,3.85,0,0,0,.78,2.41,2.33,2.33,0,0,0,1.91,1,2.71,2.71,0,0,0,.86-.13,5.74,5.74,0,0,0,.94-.43l.7-.38.92-.45a22.65,22.65,0,0,1,2.57-1.11A7.61,7.61,0,0,1,28.88,54a3.6,3.6,0,0,1,2.52.81,3,3,0,0,1,.89,2.34q0,2.61-3,5.72l-9.66,9.94a4.91,4.91,0,0,0-1.55,3.51,3.32,3.32,0,0,0,1,2.45,3.45,3.45,0,0,0,2.59,1H38.26a4.59,4.59,0,0,0,3-.81,3.06,3.06,0,0,0,1-2.52,2.93,2.93,0,0,0-1-2.45A4.65,4.65,0,0,0,38.26,73.13Zm11,8L59.58,49.06a5,5,0,0,0,.18-1,2.63,2.63,0,0,0-1-2.12,3.42,3.42,0,0,0-2.25-.81,3,3,0,0,0-2.92,2.16L43.27,79.39a3,3,0,0,0-.18,1A2.61,2.61,0,0,0,44,82.49a3.37,3.37,0,0,0,2.24.81,3.17,3.17,0,0,0,1.8-.54A3.1,3.1,0,0,0,49.24,81.14ZM78.85,63.37a7.27,7.27,0,0,0,4.92-7.07,7.83,7.83,0,0,0-1.39-4.59,8.91,8.91,0,0,0-4-3.06,15.21,15.21,0,0,0-5.94-1.08,18.51,18.51,0,0,0-5.4.81,15.07,15.07,0,0,0-4.62,2.25,3.72,3.72,0,0,0-1.1,1.22A3.49,3.49,0,0,0,61,53.42a3.62,3.62,0,0,0,.77,2.36,2.35,2.35,0,0,0,1.91,1,3.09,3.09,0,0,0,1.14-.2c.34-.14.79-.35,1.37-.65l1-.45a25.11,25.11,0,0,1,2.49-1.08A6.94,6.94,0,0,1,72.06,54a4,4,0,0,1,2.78.92,3.35,3.35,0,0,1,1,2.59,2.52,2.52,0,0,1-1.14,2.3,7,7,0,0,1-3.64.72h-2a2.62,2.62,0,0,0-2.14.94,3.67,3.67,0,0,0,0,4.5,2.62,2.62,0,0,0,2.14.95h2.83a6.91,6.91,0,0,1,3.73.76,2.81,2.81,0,0,1,1.14,2.52,3.1,3.1,0,0,1-1.12,2.7,6.35,6.35,0,0,1-3.66.81,8.5,8.5,0,0,1-2.62-.38,20.74,20.74,0,0,1-2.62-1.1l-.57-.25-.43-.2c-.58-.3-1-.52-1.37-.66a3.09,3.09,0,0,0-1.14-.2,2.35,2.35,0,0,0-1.91,1,3.63,3.63,0,0,0-.78,2.36,3.51,3.51,0,0,0,.32,1.55A3.59,3.59,0,0,0,62,77a14.54,14.54,0,0,0,4.73,2.27,20.33,20.33,0,0,0,5.7.79A17.33,17.33,0,0,0,78.82,79a9.59,9.59,0,0,0,4.26-3.13,7.74,7.74,0,0,0,1.51-4.77,7.89,7.89,0,0,0-1.53-4.9A7.76,7.76,0,0,0,78.85,63.37ZM130,51.71V75.06a11,11,0,0,1-11,11H102.43v5.31a10,10,0,0,1-2.67,6.17,10.07,10.07,0,0,1-6.52,3H10a10.13,10.13,0,0,1-7.15-2.91A10.09,10.09,0,0,1,0,90.58V36A10.7,10.7,0,0,1,3.4,28.76a10.56,10.56,0,0,1,6.5-2.65h83a9.83,9.83,0,0,1,9.53,9v5.61H119A11,11,0,0,1,130,51.71ZM96.49,90.66V36a4.12,4.12,0,0,0-1-2.68A4.19,4.19,0,0,0,92.43,32H9.8a4.1,4.1,0,0,0-4,4.05V90.68a4.22,4.22,0,0,0,4,4H92.46a3.88,3.88,0,0,0,3.05-1.17A3.83,3.83,0,0,0,96.49,90.66ZM122,60.38h-5.61V54.84a2.47,2.47,0,0,0-.76-1.85,2.53,2.53,0,0,0-1.87-.75,2.56,2.56,0,0,0-1.87.75,2.5,2.5,0,0,0-.75,1.85v5.54h-5.62a2.56,2.56,0,0,0-1.87.75,2.5,2.5,0,0,0-.75,1.85,2.6,2.6,0,0,0,.75,1.87,2.54,2.54,0,0,0,1.87.77h5.62v5.5a2.52,2.52,0,0,0,.75,1.85,2.6,2.6,0,0,0,1.87.74,2.57,2.57,0,0,0,1.9-.74,2.54,2.54,0,0,0,.73-1.85v-5.5H122a2.51,2.51,0,0,0,1.87-.77,2.57,2.57,0,0,0,.76-1.87,2.47,2.47,0,0,0-.76-1.85A2.53,2.53,0,0,0,122,60.38Z"/></svg>