<svg id="Layer_1" data-name="Layer 1" xmlns="http://www.w3.org/2000/svg" viewBox="0 0 130 130"><title>l12_1_1</title><path d="M99.2,94.64H15.54A5.74,5.74,0,0,1,9.8,88.9V36.4a5.74,5.74,0,0,1,5.74-5.74H99.2a5.74,5.74,0,0,1,5.74,5.74V88.9A5.74,5.74,0,0,1,99.2,94.64Zm5.32-74.3H11.15a11.92,11.92,0,0,0-7.31,3A12,12,0,0,0,0,31.49V92.85a11.31,11.31,0,0,0,3.21,8,11.31,11.31,0,0,0,8,3.28h93.64a11,11,0,0,0,10.33-10.33v-6H120a9.89,9.89,0,0,0,9.34-9.34V45.61a10.31,10.31,0,0,0-8.85-8.85h-5.23V30.45a11,11,0,0,0-10.71-10.11ZM11,26.94H104a4.48,4.48,0,0,1,4.57,4.57V92.93A4.16,4.16,0,0,1,104,97.46H11A4.77,4.77,0,0,1,8.1,96.25,4.89,4.89,0,0,1,6.53,93V31.49A4.59,4.59,0,0,1,11,26.94ZM28.18,59.17a10.22,10.22,0,0,0-4,.72V55h8.74q3.53,0,3.53-2.8t-3.53-2.76H20.36a3.45,3.45,0,0,0-2.55.88,3.46,3.46,0,0,0-.89,2.56V63.69a2.16,2.16,0,0,0,.77,1.74,2.82,2.82,0,0,0,1.9.66,3.91,3.91,0,0,0,1.82-.44,13.85,13.85,0,0,1,2.33-.72,11.48,11.48,0,0,1,2.21-.2,4.61,4.61,0,0,1,3.16,1,3.56,3.56,0,0,1,1.13,2.8,3.44,3.44,0,0,1-1.09,2.82,5.23,5.23,0,0,1-3.36.9,6.81,6.81,0,0,1-2.25-.36,22.88,22.88,0,0,1-2.29-1l-.81-.4c-.54-.29-.94-.49-1.21-.6a2.71,2.71,0,0,0-1-.16,2.12,2.12,0,0,0-1.71.86,3.23,3.23,0,0,0-.68,2.1,3,3,0,0,0,.3,1.38,3.54,3.54,0,0,0,.95,1.1,13.57,13.57,0,0,0,4.15,2,17.13,17.13,0,0,0,4.92.72,13.25,13.25,0,0,0,5.79-1.2,9.1,9.1,0,0,0,3.89-3.4,9.37,9.37,0,0,0,1.38-5.08,9.51,9.51,0,0,0-1.16-4.74,8.14,8.14,0,0,0-3.2-3.2A9.42,9.42,0,0,0,28.18,59.17ZM50.49,78a9.5,9.5,0,0,0,8.09-3.72q2.81-3.72,2.8-10.76T58.56,52.77a9.51,9.51,0,0,0-8.07-3.72,9.5,9.5,0,0,0-8.1,3.72q-2.8,3.72-2.8,10.72t2.8,10.76A9.5,9.5,0,0,0,50.49,78Zm0-5.56a2.9,2.9,0,0,1-2.8-2.08,19.64,19.64,0,0,1-.85-6.84,19.43,19.43,0,0,1,.85-6.82,2.92,2.92,0,0,1,5.59,0,19.46,19.46,0,0,1,.85,6.8,19.64,19.64,0,0,1-.85,6.84A2.9,2.9,0,0,1,50.49,72.41Zm20.93-6.24A7.2,7.2,0,0,0,77,64q2-2.22,2-6.42t-2-6.38a7.2,7.2,0,0,0-5.59-2.22,7.18,7.18,0,0,0-5.59,2.22,9.07,9.07,0,0,0-2,6.34q0,4.2,2,6.44A7.16,7.16,0,0,0,71.42,66.17Zm0-4.32a1.43,1.43,0,0,1-1.36-1,9.33,9.33,0,0,1-.42-3.34,9,9,0,0,1,.42-3.26,1.42,1.42,0,0,1,2.7,0,8.7,8.7,0,0,1,.44,3.26,9.06,9.06,0,0,1-.43,3.34A1.41,1.41,0,0,1,71.42,61.85Zm6,14.8L91.34,53a3.68,3.68,0,0,0,.57-1.88,2.41,2.41,0,0,0-.71-1.78,2.35,2.35,0,0,0-1.72-.7,2.72,2.72,0,0,0-1.44.44,3.87,3.87,0,0,0-1.24,1.32L72.92,74.05a3.68,3.68,0,0,0-.57,1.88,2.37,2.37,0,0,0,.73,1.76,2.33,2.33,0,0,0,1.7.72A2.77,2.77,0,0,0,76.22,78,3.76,3.76,0,0,0,77.45,76.65Zm15.39,1.24a7.2,7.2,0,0,0,5.59-2.22q2-2.22,2-6.42t-2-6.38a8.15,8.15,0,0,0-11.18,0,9.07,9.07,0,0,0-2,6.34q0,4.2,2,6.44A7.16,7.16,0,0,0,92.84,77.89Zm0-4.32a1.43,1.43,0,0,1-1.36-1,9.33,9.33,0,0,1-.42-3.34,9.15,9.15,0,0,1,.42-3.3,1.43,1.43,0,0,1,1.36-1,1.42,1.42,0,0,1,1.33,1,8.64,8.64,0,0,1,.45,3.28,9.06,9.06,0,0,1-.43,3.34A1.41,1.41,0,0,1,92.84,73.57Z"/></svg>