<svg id="Layer_1" data-name="Layer 1" xmlns="http://www.w3.org/2000/svg" viewBox="0 0 130 130"><title>l12_5_1</title><path d="M87.42,93.48H14.3a5.74,5.74,0,0,1-5.74-5.74V42.33a5.74,5.74,0,0,1,5.74-5.74H87.42a5.73,5.73,0,0,1,5.73,5.74V87.74A5.73,5.73,0,0,1,87.42,93.48ZM25.21,79.32a8.3,8.3,0,0,0,7.09-3.26c1.63-2.17,2.44-5.3,2.44-9.41s-.82-7.21-2.46-9.38A8.34,8.34,0,0,0,25.21,54a8.32,8.32,0,0,0-7.08,3.26q-2.44,3.25-2.45,9.38c0,4.11.82,7.24,2.45,9.41A8.29,8.29,0,0,0,25.21,79.32Zm0-4.86a2.53,2.53,0,0,1-2.44-1.83,17,17,0,0,1-.75-6,16.94,16.94,0,0,1,.75-6,2.56,2.56,0,0,1,4.89,0,17.26,17.26,0,0,1,.74,6,17.34,17.34,0,0,1-.74,6A2.54,2.54,0,0,1,25.21,74.46Zm15.45,4.76a3.33,3.33,0,0,0,3.4-3.4,3.33,3.33,0,0,0-3.4-3.39,3.42,3.42,0,0,0-2.46,5.81A3.34,3.34,0,0,0,40.66,79.22Zm22.6-24.89H49.38A3.5,3.5,0,0,0,47,55a2.42,2.42,0,0,0-.75,1.94A2.35,2.35,0,0,0,47,58.81a3.56,3.56,0,0,0,2.36.63h8.85L49.13,74.8a3.35,3.35,0,0,0-.5,1.69,2.56,2.56,0,0,0,1,2,3.26,3.26,0,0,0,2.19.82,3,3,0,0,0,1.51-.4,3.3,3.3,0,0,0,1.22-1.24L65.25,59.3A4.43,4.43,0,0,0,65.92,57a2.72,2.72,0,0,0-.69-1.91A2.55,2.55,0,0,0,63.26,54.33ZM79.1,62.87a9,9,0,0,0-3.51.63V59.2h7.66c2,0,3.08-.82,3.08-2.45s-1-2.42-3.08-2.42h-11A3,3,0,0,0,70,55.1a3,3,0,0,0-.78,2.24v9.49a1.93,1.93,0,0,0,.67,1.52,2.51,2.51,0,0,0,1.67.58,3.34,3.34,0,0,0,1.59-.39,13.37,13.37,0,0,1,2-.63,9.56,9.56,0,0,1,1.93-.17,4.09,4.09,0,0,1,2.77.87,3.09,3.09,0,0,1,1,2.45,3,3,0,0,1-1,2.47,4.61,4.61,0,0,1-2.94.78A6,6,0,0,1,75,74a19.86,19.86,0,0,1-2-.84l-.71-.35a8.77,8.77,0,0,0-1.06-.52,2.28,2.28,0,0,0-.88-.15,1.84,1.84,0,0,0-1.49.76,2.85,2.85,0,0,0-.61,1.84,2.53,2.53,0,0,0,.27,1.2,3.33,3.33,0,0,0,.83,1A12,12,0,0,0,73,78.66a15,15,0,0,0,4.31.63,11.81,11.81,0,0,0,5.07-1.05,8,8,0,0,0,3.4-3A8.92,8.92,0,0,0,86,66.67a7,7,0,0,0-2.8-2.8A8.18,8.18,0,0,0,79.1,62.87ZM129.86,53V76.37a11,11,0,0,1-11,11H102.29V92.7a9.76,9.76,0,0,1-9.18,9.18H9.85A10.06,10.06,0,0,1,2.7,99,10.09,10.09,0,0,1-.15,91.88V37.33a10.64,10.64,0,0,1,3.41-7.27,10.52,10.52,0,0,1,6.5-2.64h83A10.06,10.06,0,0,1,99.18,30a10,10,0,0,1,3.12,6.39V42h16.56A11,11,0,0,1,129.86,53ZM96.35,92V37.35a4.09,4.09,0,0,0-1-2.68,4.15,4.15,0,0,0-3.09-1.38H9.66a4.08,4.08,0,0,0-4,4V92a4.37,4.37,0,0,0,1.4,2.94A4.32,4.32,0,0,0,9.66,96H92.32a3.69,3.69,0,0,0,4-4Zm11.78-22.55h11a5.43,5.43,0,0,0,3.67-1.07,3.81,3.81,0,0,0,1.2-3,3.71,3.71,0,0,0-1.2-3,5.54,5.54,0,0,0-3.67-1h-11q-4.87,0-4.87,4T108.13,69.41Z"/></svg>