<svg id="Layer_1" data-name="Layer 1" xmlns="http://www.w3.org/2000/svg" viewBox="0 0 130 130"><title>l12_5_1</title><path d="M87.42,92.33H14.3a5.74,5.74,0,0,1-5.74-5.74V41.18a5.74,5.74,0,0,1,5.74-5.74H87.42a5.73,5.73,0,0,1,5.73,5.74V86.59A5.73,5.73,0,0,1,87.42,92.33Zm-48.11-19H35.57V52A3.9,3.9,0,0,0,34.46,49a4.07,4.07,0,0,0-2.94-1.08,7.74,7.74,0,0,0-3.78,1.13l-7.29,4.18a3.06,3.06,0,0,0-1.59,2.8,3.76,3.76,0,0,0,.91,2.45A2.74,2.74,0,0,0,22,59.6a3.16,3.16,0,0,0,1.6-.45L27.19,57V73.28H23.5a4.61,4.61,0,0,0-3,.81,3,3,0,0,0-.95,2.43q0,3.33,4,3.33H39.31q4,0,4-3.33a3,3,0,0,0-1-2.43A4.58,4.58,0,0,0,39.31,73.28Zm9.75,8L59.4,49.21a5.14,5.14,0,0,0,.18-1,2.61,2.61,0,0,0-1-2.11,3.44,3.44,0,0,0-2.26-.81,3,3,0,0,0-2.91,2.16L43.09,79.53a3,3,0,0,0-.18,1,2.61,2.61,0,0,0,1,2.07,3.35,3.35,0,0,0,2.23.81,3.13,3.13,0,0,0,1.8-.54A3.06,3.06,0,0,0,49.06,81.29Zm32.29-8H72.2l6.46-6.53a21,21,0,0,0,3.81-5.06,11.27,11.27,0,0,0,1.11-5A8.17,8.17,0,0,0,82.19,52a8.91,8.91,0,0,0-3.94-3.15,14.89,14.89,0,0,0-5.92-1.1,18,18,0,0,0-5.26.81,17.66,17.66,0,0,0-4.8,2.25A3,3,0,0,0,61.15,52a3.78,3.78,0,0,0-.3,1.62A3.85,3.85,0,0,0,61.63,56a2.33,2.33,0,0,0,1.91,1,2.83,2.83,0,0,0,.87-.14,5.93,5.93,0,0,0,.93-.42c.35-.2.58-.32.71-.38l.91-.46a25.26,25.26,0,0,1,2.57-1.1A7.61,7.61,0,0,1,72,54.11a3.64,3.64,0,0,1,2.53.81,3,3,0,0,1,.88,2.34q0,2.61-3,5.71l-9.66,10a4.91,4.91,0,0,0-1.55,3.51,3.32,3.32,0,0,0,1,2.45,3.47,3.47,0,0,0,2.6,1H81.35a4.64,4.64,0,0,0,3-.81,3.09,3.09,0,0,0,1-2.52,3,3,0,0,0-1-2.45A4.7,4.7,0,0,0,81.35,73.28Zm48.51-21.42V75.21a11,11,0,0,1-11,11H102.29v5.31a9.89,9.89,0,0,1-2.67,6.16,10,10,0,0,1-6.51,3H9.85A10.09,10.09,0,0,1,2.7,97.81,10.06,10.06,0,0,1-.15,90.73V36.18a10.61,10.61,0,0,1,3.41-7.27,10.56,10.56,0,0,1,6.5-2.65h83a9.83,9.83,0,0,1,9.52,9v5.61h16.56A11,11,0,0,1,129.86,51.86Zm-33.51,39V36.19a4.12,4.12,0,0,0-1-2.68,4.19,4.19,0,0,0-3.09-1.38H9.66a4.2,4.2,0,0,0-2.64,1,4.23,4.23,0,0,0-1.37,3V90.82a4.33,4.33,0,0,0,1.4,2.94,4.28,4.28,0,0,0,2.61,1.08H92.32a3.91,3.91,0,0,0,3.06-1.17A3.8,3.8,0,0,0,96.35,90.81Zm11.78-22.56h11a5.38,5.38,0,0,0,3.67-1.07,3.79,3.79,0,0,0,1.2-3,3.7,3.7,0,0,0-1.2-3,5.49,5.49,0,0,0-3.67-1.05h-11q-4.87,0-4.87,4T108.13,68.25Z"/></svg>