<svg id="Layer_1" data-name="Layer 1" xmlns="http://www.w3.org/2000/svg" viewBox="0 0 130 130"><title>l12_5_1</title><path d="M87.41,91.17H14.29a5.74,5.74,0,0,1-5.74-5.74V40a5.74,5.74,0,0,1,5.74-5.74H87.41A5.74,5.74,0,0,1,93.15,40V85.43A5.74,5.74,0,0,1,87.41,91.17ZM25.19,77a8.29,8.29,0,0,0,7.08-3.26c1.63-2.17,2.45-5.3,2.45-9.41S33.9,57.13,32.25,55a8.32,8.32,0,0,0-7.06-3.26A8.32,8.32,0,0,0,18.1,55q-2.45,3.26-2.45,9.38c0,4.11.82,7.24,2.45,9.41A8.3,8.3,0,0,0,25.19,77Zm0-4.87a2.53,2.53,0,0,1-2.45-1.82,17.09,17.09,0,0,1-.74-6,17,17,0,0,1,.74-6,2.56,2.56,0,0,1,4.89,0,17,17,0,0,1,.74,6,17.09,17.09,0,0,1-.74,6A2.53,2.53,0,0,1,25.19,72.14ZM40.63,76.9a3.4,3.4,0,1,0,0-6.79,3.34,3.34,0,0,0-2.46,1,3.39,3.39,0,0,0,2.46,5.81Zm22-5.32H55.55l5-5.07a16.58,16.58,0,0,0,3-3.94,8.72,8.72,0,0,0,.87-3.9A6.29,6.29,0,0,0,63.32,55a6.9,6.9,0,0,0-3.06-2.45,11.56,11.56,0,0,0-4.61-.86,14.56,14.56,0,0,0-7.83,2.38A2.36,2.36,0,0,0,47,55a2.9,2.9,0,0,0-.23,1.26,3,3,0,0,0,.6,1.88,1.82,1.82,0,0,0,1.49.78,2.13,2.13,0,0,0,.67-.1,4.82,4.82,0,0,0,.73-.33l.55-.3.7-.35a18.53,18.53,0,0,1,2-.86,5.72,5.72,0,0,1,1.89-.29,2.82,2.82,0,0,1,2,.62A2.34,2.34,0,0,1,58,59.12q0,2-2.34,4.45L48.18,71.3A3.84,3.84,0,0,0,47,74a2.59,2.59,0,0,0,.75,1.91,2.71,2.71,0,0,0,2,.75H62.67A3.59,3.59,0,0,0,65,76.06a2.39,2.39,0,0,0,.76-2A2.29,2.29,0,0,0,65,72.2,3.65,3.65,0,0,0,62.67,71.58Zm16.44-11a9,9,0,0,0-3.51.63V56.88h7.65c2.06,0,3.09-.81,3.09-2.45S85.31,52,83.25,52h-11a3,3,0,0,0-2.23.77A3,3,0,0,0,69.26,55v9.48A1.92,1.92,0,0,0,69.93,66a2.51,2.51,0,0,0,1.67.57,3.36,3.36,0,0,0,1.59-.38,13.37,13.37,0,0,1,2-.63,9.56,9.56,0,0,1,1.93-.17,4,4,0,0,1,2.76.87,3.1,3.1,0,0,1,1,2.45,3,3,0,0,1-1,2.47A4.61,4.61,0,0,1,77,72a5.94,5.94,0,0,1-2-.31,19.86,19.86,0,0,1-2-.84l-.71-.35c-.47-.26-.83-.43-1.06-.53a2.52,2.52,0,0,0-.89-.14,1.87,1.87,0,0,0-1.49.76,2.85,2.85,0,0,0-.6,1.84,2.53,2.53,0,0,0,.27,1.2,3,3,0,0,0,.83,1A11.56,11.56,0,0,0,73,76.34a15,15,0,0,0,4.31.63,11.73,11.73,0,0,0,5.06-1,8.08,8.08,0,0,0,3.41-3A8.24,8.24,0,0,0,87,68.5a8.35,8.35,0,0,0-1-4.14,7.11,7.11,0,0,0-2.8-2.8A8.21,8.21,0,0,0,79.11,60.56Zm50.75-9.85V74.06a11,11,0,0,1-11,11H102.29v5.32a9.78,9.78,0,0,1-9.19,9.18H9.84a10.06,10.06,0,0,1-7.15-2.91A10.09,10.09,0,0,1-.16,89.57V35a10.69,10.69,0,0,1,3.41-7.27,10.56,10.56,0,0,1,6.5-2.64h83a9.85,9.85,0,0,1,9.53,9v5.6h16.55A11,11,0,0,1,129.86,50.71ZM96.34,89.65V35a4,4,0,0,0-1-2.68A4.15,4.15,0,0,0,92.28,31H9.65A4.2,4.2,0,0,0,7,32a4.3,4.3,0,0,0-1.37,3V89.67A4.33,4.33,0,0,0,7,92.6a4.28,4.28,0,0,0,2.61,1.08H92.31a3.89,3.89,0,0,0,3.06-1.16A3.82,3.82,0,0,0,96.34,89.65ZM108.12,67.1h11A5.41,5.41,0,0,0,122.83,66a3.81,3.81,0,0,0,1.2-3,3.71,3.71,0,0,0-1.2-3,5.52,5.52,0,0,0-3.67-1h-11q-4.87,0-4.87,4T108.12,67.1Z"/></svg>