<svg id="Layer_1" data-name="Layer 1" xmlns="http://www.w3.org/2000/svg" viewBox="0 0 130 130"><title>l12_1_1</title><path d="M100,102.62H16.32a5.74,5.74,0,0,1-5.74-5.74V44.38a5.74,5.74,0,0,1,5.74-5.74H100a5.74,5.74,0,0,1,5.74,5.74v52.5A5.74,5.74,0,0,1,100,102.62Zm5.31-74.31H11.93a11.84,11.84,0,0,0-7.31,3A12,12,0,0,0,.78,39.47v61.35a11.36,11.36,0,0,0,3.2,8,11.38,11.38,0,0,0,8,3.28h93.65A11,11,0,0,0,116,101.74v-6h4.74a10.25,10.25,0,0,0,6.78-3.22,10,10,0,0,0,2.57-6.13V53.59a10.41,10.41,0,0,0-2.82-5.81,10.53,10.53,0,0,0-6-3.05H116v-6.3a11.09,11.09,0,0,0-10.72-10.12ZM11.81,34.92h92.94a4.69,4.69,0,0,1,3.47,1.55,4.55,4.55,0,0,1,1.09,3v61.42a4.28,4.28,0,0,1-1.09,3.22,4.35,4.35,0,0,1-3.44,1.31h-93a4.75,4.75,0,0,1-4.51-4.51V39.47a4.83,4.83,0,0,1,1.55-3.39A4.69,4.69,0,0,1,11.81,34.92ZM41,70.44a8.06,8.06,0,0,0,5.47-7.85A8.69,8.69,0,0,0,45,57.49a9.86,9.86,0,0,0-4.41-3.4,16.93,16.93,0,0,0-6.6-1.2,20.49,20.49,0,0,0-6,.9,16.85,16.85,0,0,0-5.14,2.5,3.94,3.94,0,0,0-1.21,1.35,3.78,3.78,0,0,0-.36,1.75A4.07,4.07,0,0,0,22.11,62a2.64,2.64,0,0,0,2.13,1.08,3.33,3.33,0,0,0,1.26-.23c.38-.15.88-.39,1.52-.72l1.07-.5a27.87,27.87,0,0,1,2.75-1.2A7.78,7.78,0,0,1,33.5,60a4.4,4.4,0,0,1,3.09,1,3.72,3.72,0,0,1,1.11,2.88,2.81,2.81,0,0,1-1.26,2.55,7.9,7.9,0,0,1-4,.8H30.16a2.92,2.92,0,0,0-2.38,1.05,4.06,4.06,0,0,0,0,5,2.92,2.92,0,0,0,2.38,1H33.3a7.66,7.66,0,0,1,4.15.85A3.13,3.13,0,0,1,38.72,78a3.45,3.45,0,0,1-1.25,3,7.06,7.06,0,0,1-4.07.9,9.37,9.37,0,0,1-2.91-.43,22.72,22.72,0,0,1-2.91-1.22c-.24-.1-.45-.19-.63-.28l-.48-.22c-.65-.34-1.15-.58-1.52-.73a3.38,3.38,0,0,0-1.27-.22,2.6,2.6,0,0,0-2.12,1.07,4,4,0,0,0-.86,2.63,3.83,3.83,0,0,0,.35,1.72,4.12,4.12,0,0,0,1.21,1.38,16.31,16.31,0,0,0,5.27,2.52,22.83,22.83,0,0,0,6.33.88A19.13,19.13,0,0,0,41,87.76a10.63,10.63,0,0,0,4.73-3.47A8.67,8.67,0,0,0,47.42,79a8.79,8.79,0,0,0-1.7-5.45A8.58,8.58,0,0,0,41,70.44ZM56.18,90.19,67.67,54.54a5.87,5.87,0,0,0,.2-1.1,2.89,2.89,0,0,0-1.09-2.35,3.83,3.83,0,0,0-2.51-.9,3.39,3.39,0,0,0-1.94.6A3.35,3.35,0,0,0,61,52.59L49.55,88.24a3.17,3.17,0,0,0-.21,1.15,2.89,2.89,0,0,0,1.07,2.3,3.71,3.71,0,0,0,2.48.9,3.49,3.49,0,0,0,2-.6A3.4,3.4,0,0,0,56.18,90.19ZM93.53,75.64H92.42v-18a4.22,4.22,0,0,0-1.37-3.35A4.82,4.82,0,0,0,87.76,53a5.08,5.08,0,0,0-2.25.52,4.59,4.59,0,0,0-1.8,1.53L69.23,75.49a5.55,5.55,0,0,0-1.11,3.3,3.71,3.71,0,0,0,3.95,3.85H83.36v1.7a4.41,4.41,0,0,0,1.24,3.4,4.62,4.62,0,0,0,3.26,1.15,4.73,4.73,0,0,0,3.29-1.15,4.38,4.38,0,0,0,1.27-3.4v-1.7h1.11c2.94,0,4.4-1.19,4.4-3.55S96.47,75.64,93.53,75.64Zm-16.25,0L83.36,67v8.65Z"/></svg>