<svg id="Layer_1" data-name="Layer 1" xmlns="http://www.w3.org/2000/svg" viewBox="0 0 130 130"><title>l12_5_1</title><path d="M87.42,93.48H14.3a5.74,5.74,0,0,1-5.74-5.74V42.33a5.74,5.74,0,0,1,5.74-5.74H87.42a5.73,5.73,0,0,1,5.73,5.74V87.74A5.73,5.73,0,0,1,87.42,93.48ZM30.74,54.33H16.85a3.53,3.53,0,0,0-2.34.65,2.45,2.45,0,0,0-.74,1.94,2.38,2.38,0,0,0,.72,1.89,3.58,3.58,0,0,0,2.36.63h8.86L16.6,74.81a3.28,3.28,0,0,0-.49,1.68,2.55,2.55,0,0,0,.95,2,3.27,3.27,0,0,0,2.2.82,3.08,3.08,0,0,0,1.51-.4A3.3,3.3,0,0,0,22,77.68L32.72,59.3A4.44,4.44,0,0,0,33.4,57a2.68,2.68,0,0,0-.7-1.91A2.53,2.53,0,0,0,30.74,54.33Zm15.84,8.54a9,9,0,0,0-3.51.63V59.2h7.65c2.06,0,3.08-.82,3.08-2.45s-1-2.42-3.08-2.42h-11a2.71,2.71,0,0,0-3,3v9.49a1.9,1.9,0,0,0,.67,1.52,2.49,2.49,0,0,0,1.66.58,3.41,3.41,0,0,0,1.6-.39,13.37,13.37,0,0,1,2-.63,9.49,9.49,0,0,1,1.93-.17,4,4,0,0,1,2.76.87,3.09,3.09,0,0,1,1,2.45,3,3,0,0,1-1,2.47,4.62,4.62,0,0,1-3,.78,5.92,5.92,0,0,1-2-.31,19.86,19.86,0,0,1-2-.84l-.71-.35a9.58,9.58,0,0,0-1.06-.52,2.34,2.34,0,0,0-.89-.14,1.84,1.84,0,0,0-1.49.75,2.85,2.85,0,0,0-.6,1.84,2.62,2.62,0,0,0,.26,1.2,3.23,3.23,0,0,0,.84,1,11.78,11.78,0,0,0,3.63,1.75,14.92,14.92,0,0,0,4.3.63,11.6,11.6,0,0,0,5.07-1.05,8,8,0,0,0,3.4-3,8.22,8.22,0,0,0,1.21-4.45,8.35,8.35,0,0,0-1-4.14,7.18,7.18,0,0,0-2.8-2.8A8.23,8.23,0,0,0,46.58,62.87ZM63.16,69a6.3,6.3,0,0,0,4.89-2,8,8,0,0,0,1.77-5.61,8,8,0,0,0-1.77-5.59,6.33,6.33,0,0,0-4.89-1.94,6.3,6.3,0,0,0-4.89,1.94A8,8,0,0,0,56.5,61.4,8.15,8.15,0,0,0,58.27,67,6.28,6.28,0,0,0,63.16,69Zm0-3.78A1.24,1.24,0,0,1,62,64.36a8,8,0,0,1-.37-2.92A7.81,7.81,0,0,1,62,58.58a1.24,1.24,0,0,1,2.36,0,7.51,7.51,0,0,1,.39,2.86,8,8,0,0,1-.38,2.92A1.23,1.23,0,0,1,63.16,65.22Zm5.28,13L80.59,57.45a3.23,3.23,0,0,0,.49-1.65,2.08,2.08,0,0,0-.62-1.56,2,2,0,0,0-1.5-.61A2.33,2.33,0,0,0,77.7,54a3.34,3.34,0,0,0-1.08,1.15L64.47,75.89a3.25,3.25,0,0,0-.5,1.65,2.08,2.08,0,0,0,.64,1.54,2,2,0,0,0,1.49.63,2.38,2.38,0,0,0,1.26-.39A3.44,3.44,0,0,0,68.44,78.17ZM81.9,79.25a6.3,6.3,0,0,0,4.89-1.94,8.08,8.08,0,0,0,1.77-5.62,8,8,0,0,0-1.77-5.58,7.13,7.13,0,0,0-9.78,0,7.94,7.94,0,0,0-1.77,5.55A8.12,8.12,0,0,0,77,77.29,6.24,6.24,0,0,0,81.9,79.25Zm0-3.78a1.24,1.24,0,0,1-1.19-.86,8,8,0,0,1-.37-2.92,7.93,7.93,0,0,1,.37-2.89,1.24,1.24,0,0,1,2.36,0,7.61,7.61,0,0,1,.39,2.87,8.23,8.23,0,0,1-.37,2.92A1.24,1.24,0,0,1,81.9,75.47Zm48-22.45V76.37a11,11,0,0,1-11,11H102.29V92.7a9.76,9.76,0,0,1-9.18,9.18H9.85A10.06,10.06,0,0,1,2.7,99,10.09,10.09,0,0,1-.15,91.88V37.33a10.64,10.64,0,0,1,3.41-7.27,10.52,10.52,0,0,1,6.5-2.64h83A10.06,10.06,0,0,1,99.18,30a10,10,0,0,1,3.12,6.39V42h16.56A11,11,0,0,1,129.86,53ZM96.35,92V37.35a4.09,4.09,0,0,0-1-2.68,4.15,4.15,0,0,0-3.09-1.38H9.66a4.08,4.08,0,0,0-4,4V92a4.37,4.37,0,0,0,1.4,2.94A4.32,4.32,0,0,0,9.66,96H92.32a3.69,3.69,0,0,0,4-4Zm11.78-22.55h11a5.43,5.43,0,0,0,3.67-1.07,3.81,3.81,0,0,0,1.2-3,3.71,3.71,0,0,0-1.2-3,5.54,5.54,0,0,0-3.67-1h-11q-4.87,0-4.87,4T108.13,69.41Z"/></svg>