<svg id="Layer_1" data-name="Layer 1" xmlns="http://www.w3.org/2000/svg" viewBox="0 0 130 130"><title>l12_5_1</title><path d="M88.63,94.85H15.51a5.74,5.74,0,0,1-5.74-5.74V43.7A5.74,5.74,0,0,1,15.51,38H88.63a5.74,5.74,0,0,1,5.74,5.74V89.11A5.74,5.74,0,0,1,88.63,94.85ZM31.36,75.26H24.24l5-5.07a16.5,16.5,0,0,0,2.95-3.94,8.72,8.72,0,0,0,.87-3.9A6.36,6.36,0,0,0,32,58.69,6.9,6.9,0,0,0,29,56.24a11.59,11.59,0,0,0-4.61-.86,14,14,0,0,0-4.09.63,14.13,14.13,0,0,0-3.74,1.75,2.39,2.39,0,0,0-.87.91,3.05,3.05,0,0,0-.23,1.26,3,3,0,0,0,.6,1.88,1.83,1.83,0,0,0,1.49.78,2.2,2.2,0,0,0,.68-.1,4.36,4.36,0,0,0,.72-.33c.27-.16.46-.25.55-.3l.71-.35a16,16,0,0,1,2-.86,5.78,5.78,0,0,1,1.9-.3A2.8,2.8,0,0,1,26,61a2.34,2.34,0,0,1,.69,1.82q0,2-2.33,4.45L16.87,75a3.83,3.83,0,0,0-1.2,2.73,2.62,2.62,0,0,0,.74,1.91,2.72,2.72,0,0,0,2,.75H31.36a3.62,3.62,0,0,0,2.33-.63,2.42,2.42,0,0,0,.76-2,2.3,2.3,0,0,0-.76-1.9A3.68,3.68,0,0,0,31.36,75.26Zm16.44-11a8.93,8.93,0,0,0-3.5.63V60.56H52c2,0,3.08-.81,3.08-2.45S54,55.7,52,55.7H41a3.07,3.07,0,0,0-2.24.77A3,3,0,0,0,38,58.71v9.48a1.93,1.93,0,0,0,.68,1.53,2.48,2.48,0,0,0,1.66.57,3.4,3.4,0,0,0,1.6-.38,13.64,13.64,0,0,1,2-.63,9.63,9.63,0,0,1,1.94-.18,4,4,0,0,1,2.76.88,3.09,3.09,0,0,1,1,2.45,3,3,0,0,1-1,2.47,4.57,4.57,0,0,1-2.94.78,5.92,5.92,0,0,1-2-.31,19.86,19.86,0,0,1-2-.84L41,74.18c-.48-.26-.83-.43-1.07-.53a2.46,2.46,0,0,0-.88-.14,1.83,1.83,0,0,0-1.49.76A2.84,2.84,0,0,0,37,76.1a2.67,2.67,0,0,0,.26,1.21,3.09,3.09,0,0,0,.84,1A11.56,11.56,0,0,0,41.73,80a14.92,14.92,0,0,0,4.3.63A11.63,11.63,0,0,0,51.1,79.6a8,8,0,0,0,3.4-3A8.92,8.92,0,0,0,54.69,68a7,7,0,0,0-2.79-2.8A8.25,8.25,0,0,0,47.8,64.24Zm16.59,6.12a6.26,6.26,0,0,0,4.88-1.94,8,8,0,0,0,1.78-5.62,8,8,0,0,0-1.78-5.58,6.29,6.29,0,0,0-4.88-1.94,6.3,6.3,0,0,0-4.89,1.94,7.93,7.93,0,0,0-1.78,5.55A8.06,8.06,0,0,0,59.5,68.4,6.24,6.24,0,0,0,64.39,70.36Zm0-3.78a1.23,1.23,0,0,1-1.19-.85,8.11,8.11,0,0,1-.37-2.93A7.75,7.75,0,0,1,63.2,60a1.23,1.23,0,0,1,2.35,0,7.45,7.45,0,0,1,.39,2.85,8.11,8.11,0,0,1-.37,2.93A1.23,1.23,0,0,1,64.39,66.58Zm5.27,13L81.82,58.81a3.2,3.2,0,0,0,.49-1.64,2.08,2.08,0,0,0-.62-1.56,2,2,0,0,0-1.5-.61,2.4,2.4,0,0,0-1.26.38,3.38,3.38,0,0,0-1.08,1.16L65.7,77.26a3.15,3.15,0,0,0-.5,1.64,2.17,2.17,0,0,0,2.13,2.17,2.39,2.39,0,0,0,1.25-.38A3.2,3.2,0,0,0,69.66,79.53Zm13.47,1.09A6.3,6.3,0,0,0,88,78.68a8.08,8.08,0,0,0,1.77-5.62A8,8,0,0,0,88,67.48a7.11,7.11,0,0,0-9.78,0A7.93,7.93,0,0,0,76.47,73a8.15,8.15,0,0,0,1.77,5.64A6.28,6.28,0,0,0,83.13,80.62Zm0-3.78A1.24,1.24,0,0,1,81.94,76a8,8,0,0,1-.37-2.92,7.93,7.93,0,0,1,.37-2.89,1.24,1.24,0,0,1,1.19-.86,1.26,1.26,0,0,1,1.17.88,7.61,7.61,0,0,1,.39,2.87A8,8,0,0,1,84.31,76,1.23,1.23,0,0,1,83.13,76.84Zm48-22.45V77.74a11,11,0,0,1-11,11H103.51v5.31a9.78,9.78,0,0,1-9.19,9.19H11.06a10.06,10.06,0,0,1-7.15-2.91,10.09,10.09,0,0,1-2.85-7.09V38.7a10.69,10.69,0,0,1,3.41-7.27A10.56,10.56,0,0,1,11,28.79H94a9.85,9.85,0,0,1,9.53,9v5.6h16.55A11,11,0,0,1,131.08,54.39ZM97.56,93.33V38.72a4,4,0,0,0-1-2.68,4.11,4.11,0,0,0-3.09-1.38H10.87a4.2,4.2,0,0,0-2.64,1,4.29,4.29,0,0,0-1.37,3V93.35a4.33,4.33,0,0,0,1.4,2.93,4.28,4.28,0,0,0,2.61,1.08H93.53a3.89,3.89,0,0,0,3.06-1.16A3.82,3.82,0,0,0,97.56,93.33Zm11.78-22.55h11a5.43,5.43,0,0,0,3.67-1.07,3.82,3.82,0,0,0,1.2-3,3.71,3.71,0,0,0-1.2-3,5.49,5.49,0,0,0-3.67-1h-11q-4.87,0-4.87,4C104.47,69.42,106.09,70.78,109.34,70.78Z"/></svg>