<svg id="Layer_1" data-name="Layer 1" xmlns="http://www.w3.org/2000/svg" viewBox="0 0 130 130"><title>l12_5_1</title><path d="M87.42,93.71H14.3A5.74,5.74,0,0,1,8.56,88V42.56a5.74,5.74,0,0,1,5.74-5.74H87.42a5.73,5.73,0,0,1,5.73,5.74V88A5.73,5.73,0,0,1,87.42,93.71ZM25.21,79.55a8.32,8.32,0,0,0,7.09-3.26q2.45-3.26,2.44-9.41c0-4.09-.82-7.21-2.46-9.38a8.34,8.34,0,0,0-7.07-3.26,8.32,8.32,0,0,0-7.08,3.26c-1.63,2.17-2.45,5.29-2.45,9.38s.82,7.24,2.45,9.41A8.32,8.32,0,0,0,25.21,79.55Zm0-4.87a2.53,2.53,0,0,1-2.44-1.82,17.08,17.08,0,0,1-.75-6,16.94,16.94,0,0,1,.75-6,2.56,2.56,0,0,1,4.89,0,17.22,17.22,0,0,1,.74,5.95,17.38,17.38,0,0,1-.74,6A2.54,2.54,0,0,1,25.21,74.68Zm15.45,4.76a3.4,3.4,0,1,0,0-6.79,3.34,3.34,0,0,0-2.46,1,3.47,3.47,0,0,0,0,4.83A3.34,3.34,0,0,0,40.66,79.44Zm20-12.91A5.65,5.65,0,0,0,64.43,61a6.08,6.08,0,0,0-1.08-3.57,6.91,6.91,0,0,0-3.08-2.38,11.86,11.86,0,0,0-4.62-.84,14.35,14.35,0,0,0-4.2.63,11.83,11.83,0,0,0-3.6,1.75,2.85,2.85,0,0,0-.85,1,2.73,2.73,0,0,0-.25,1.22,2.82,2.82,0,0,0,.61,1.84,1.82,1.82,0,0,0,1.48.75,2.28,2.28,0,0,0,.89-.16c.26-.1.61-.27,1.06-.5l.75-.35a19.25,19.25,0,0,1,1.93-.84,5.42,5.42,0,0,1,1.86-.32,3.06,3.06,0,0,1,2.16.72,2.6,2.6,0,0,1,.78,2,2,2,0,0,1-.89,1.79,5.49,5.49,0,0,1-2.83.56H53a2.05,2.05,0,0,0-1.67.73,2.85,2.85,0,0,0,0,3.5,2.06,2.06,0,0,0,1.67.74h2.2a5.35,5.35,0,0,1,2.9.59,2.19,2.19,0,0,1,.89,2,2.42,2.42,0,0,1-.87,2.1,5,5,0,0,1-2.85.63,6.44,6.44,0,0,1-2-.3,15.5,15.5,0,0,1-2-.85l-.44-.2L50.4,73a10.31,10.31,0,0,0-1.06-.51,2.24,2.24,0,0,0-.89-.16,1.82,1.82,0,0,0-1.48.75A2.83,2.83,0,0,0,46.36,75a2.44,2.44,0,0,0,1.1,2.17,11.5,11.5,0,0,0,3.69,1.77,15.8,15.8,0,0,0,4.43.61,13.48,13.48,0,0,0,5-.86,7.42,7.42,0,0,0,3.31-2.43,6.58,6.58,0,0,0,0-7.52A6,6,0,0,0,60.61,66.53ZM79.1,63.1a9,9,0,0,0-3.51.63V59.42h7.66c2,0,3.08-.82,3.08-2.45s-1-2.41-3.08-2.41h-11a2.71,2.71,0,0,0-3,3v9.48a1.92,1.92,0,0,0,.67,1.52,2.46,2.46,0,0,0,1.67.58,3.45,3.45,0,0,0,1.59-.38,11.44,11.44,0,0,1,2-.63A9.53,9.53,0,0,1,77.15,68a4,4,0,0,1,2.77.88,3.09,3.09,0,0,1,1,2.45,3,3,0,0,1-1,2.46,4.55,4.55,0,0,1-2.94.79,6,6,0,0,1-2-.31,19.86,19.86,0,0,1-2-.84L72.33,73a9.22,9.22,0,0,0-1.06-.53,2.46,2.46,0,0,0-.88-.14,1.83,1.83,0,0,0-1.49.75A2.89,2.89,0,0,0,68.29,75a2.54,2.54,0,0,0,.27,1.21,3.18,3.18,0,0,0,.83,1A11.73,11.73,0,0,0,73,78.88a14.92,14.92,0,0,0,4.3.63,11.66,11.66,0,0,0,5.07-1.05,8,8,0,0,0,3.4-3,8.94,8.94,0,0,0,.19-8.6,7.11,7.11,0,0,0-2.8-2.8A8.28,8.28,0,0,0,79.1,63.1Zm50.76-9.86V76.59a11,11,0,0,1-11,11H102.29v5.31a9.93,9.93,0,0,1-2.67,6.17,10.06,10.06,0,0,1-6.51,3H9.85A10.11,10.11,0,0,1,2.7,99.2,10.09,10.09,0,0,1-.15,92.11V37.56a10.62,10.62,0,0,1,3.41-7.27,10.58,10.58,0,0,1,6.5-2.65h83a9.83,9.83,0,0,1,9.52,9v5.61h16.56A11,11,0,0,1,129.86,53.24ZM96.35,92.19V37.57a4.12,4.12,0,0,0-1-2.68,4.19,4.19,0,0,0-3.09-1.38H9.66a4.1,4.1,0,0,0-4,4.05V92.21a4.33,4.33,0,0,0,1.4,2.93,4.28,4.28,0,0,0,2.61,1.08H92.32a3.91,3.91,0,0,0,3.06-1.17A3.8,3.8,0,0,0,96.35,92.19Zm11.78-22.55h11a5.38,5.38,0,0,0,3.67-1.08,3.79,3.79,0,0,0,1.2-3,3.7,3.7,0,0,0-1.2-3,5.49,5.49,0,0,0-3.67-1h-11q-4.87,0-4.87,4C103.26,68.28,104.88,69.64,108.13,69.64Z"/></svg>