<svg id="Layer_1" data-name="Layer 1" xmlns="http://www.w3.org/2000/svg" viewBox="0 0 130 130"><title>l12_4_1</title><path d="M87.56,95.21H14.44a5.73,5.73,0,0,1-5.73-5.74V44.06a5.73,5.73,0,0,1,5.73-5.73H87.56a5.74,5.74,0,0,1,5.74,5.73V89.47A5.74,5.74,0,0,1,87.56,95.21ZM25.36,81.05a8.31,8.31,0,0,0,7.08-3.25q2.45-3.26,2.45-9.42T32.43,59a8.34,8.34,0,0,0-7.07-3.25A8.32,8.32,0,0,0,18.27,59q-2.44,3.26-2.44,9.38t2.44,9.42A8.32,8.32,0,0,0,25.36,81.05Zm0-4.86a2.54,2.54,0,0,1-2.45-1.82,17.44,17.44,0,0,1-.74-6,17.21,17.21,0,0,1,.74-6,2.55,2.55,0,0,1,4.89,0,17,17,0,0,1,.75,5.95,17.15,17.15,0,0,1-.75,6A2.53,2.53,0,0,1,25.36,76.19ZM40.8,81a3.42,3.42,0,0,0,2.43-5.81,3.26,3.26,0,0,0-2.43-1A3.42,3.42,0,0,0,38.34,80,3.34,3.34,0,0,0,40.8,81ZM60.75,68a5.72,5.72,0,0,0,2.82-2.11,5.81,5.81,0,0,0,1-3.38A6,6,0,0,0,63.5,59a6.91,6.91,0,0,0-3.08-2.38,11.91,11.91,0,0,0-4.63-.84,14.35,14.35,0,0,0-4.2.63A11.66,11.66,0,0,0,48,58.13a2.81,2.81,0,0,0-.85.94,2.67,2.67,0,0,0-.25,1.23,2.84,2.84,0,0,0,.6,1.83,1.83,1.83,0,0,0,1.49.76,2.52,2.52,0,0,0,.89-.16,11.42,11.42,0,0,0,1.06-.51l.74-.35A19.25,19.25,0,0,1,53.61,61a5.42,5.42,0,0,1,1.86-.31,3.11,3.11,0,0,1,2.16.71,2.61,2.61,0,0,1,.78,2,2,2,0,0,1-.88,1.78,5.43,5.43,0,0,1-2.84.56H53.13a2,2,0,0,0-1.66.74,2.85,2.85,0,0,0,0,3.5,2,2,0,0,0,1.66.73h2.2a5.35,5.35,0,0,1,2.91.6,2.18,2.18,0,0,1,.88,2,2.42,2.42,0,0,1-.87,2.1,4.94,4.94,0,0,1-2.85.63,6.52,6.52,0,0,1-2-.3,15.05,15.05,0,0,1-2-.86l-.44-.19-.34-.16c-.45-.23-.81-.4-1.06-.5a2.31,2.31,0,0,0-.89-.16,1.84,1.84,0,0,0-1.49.75,2.85,2.85,0,0,0-.6,1.84,2.62,2.62,0,0,0,.25,1.2,2.79,2.79,0,0,0,.85,1,11.54,11.54,0,0,0,3.68,1.77,16.23,16.23,0,0,0,4.43.61,13.48,13.48,0,0,0,5-.86,7.45,7.45,0,0,0,3.32-2.43A6.06,6.06,0,0,0,65.22,74,6.17,6.17,0,0,0,64,70.2,6.06,6.06,0,0,0,60.75,68Zm18.5-3.43a9,9,0,0,0-3.51.63v-4.3h7.65c2.06,0,3.08-.82,3.08-2.45s-1-2.42-3.08-2.42h-11a2.71,2.71,0,0,0-3,3v9.49a1.9,1.9,0,0,0,.67,1.52,2.49,2.49,0,0,0,1.66.58,3.41,3.41,0,0,0,1.6-.39,13.37,13.37,0,0,1,2-.63,10.27,10.27,0,0,1,1.93-.17,4,4,0,0,1,2.76.87,3.11,3.11,0,0,1,1,2.45,3,3,0,0,1-1,2.47,4.55,4.55,0,0,1-2.94.79,5.94,5.94,0,0,1-2-.32,19.86,19.86,0,0,1-2-.84l-.71-.35c-.47-.25-.83-.43-1.06-.52a2.31,2.31,0,0,0-.89-.14,1.84,1.84,0,0,0-1.49.75,2.85,2.85,0,0,0-.6,1.84,2.5,2.5,0,0,0,.27,1.2,3.05,3.05,0,0,0,.83,1,11.78,11.78,0,0,0,3.63,1.75,14.92,14.92,0,0,0,4.3.63,11.6,11.6,0,0,0,5.07-1,7.86,7.86,0,0,0,3.4-3,8.12,8.12,0,0,0,1.21-4.44,8.36,8.36,0,0,0-1-4.15,7.18,7.18,0,0,0-2.8-2.8A8.23,8.23,0,0,0,79.25,64.6ZM130,54.75V78.1a11,11,0,0,1-11,11H106.8l-.14,0h-4.22v5.31a10,10,0,0,1-2.67,6.16,10.05,10.05,0,0,1-6.52,3H10a10.14,10.14,0,0,1-7.15-2.92A10.08,10.08,0,0,1,0,93.62V39.07a10.72,10.72,0,0,1,3.42-7.28,10.52,10.52,0,0,1,6.5-2.64h83a9.81,9.81,0,0,1,9.53,9v5.61H119A11,11,0,0,1,130,54.75ZM96.5,93.69V39.08a4.09,4.09,0,0,0-1-2.68A4.21,4.21,0,0,0,92.44,35H9.81a4.18,4.18,0,0,0-2.64,1,4.3,4.3,0,0,0-1.38,3V93.71a4.42,4.42,0,0,0,1.4,2.94,4.32,4.32,0,0,0,2.62,1.07H92.47a3.7,3.7,0,0,0,4-4ZM122,63.42h-5.61V57.87a2.49,2.49,0,0,0-.76-1.85,2.73,2.73,0,0,0-3.74,0,2.52,2.52,0,0,0-.75,1.85v5.55h-5.62a2.56,2.56,0,0,0-1.87.75,2.48,2.48,0,0,0-.75,1.84,2.56,2.56,0,0,0,.75,1.87,2.5,2.5,0,0,0,1.87.77h5.62v5.5a2.5,2.5,0,0,0,.75,1.85,2.74,2.74,0,0,0,3.77,0,2.53,2.53,0,0,0,.73-1.85v-5.5H122a2.49,2.49,0,0,0,1.87-.77,2.53,2.53,0,0,0,.76-1.87,2.45,2.45,0,0,0-.76-1.84A2.55,2.55,0,0,0,122,63.42Z"/></svg>