<svg id="Layer_1" data-name="Layer 1" xmlns="http://www.w3.org/2000/svg" viewBox="0 0 130 130"><title>l12_5_1</title><path d="M89,93.83H15.88a5.74,5.74,0,0,1-5.74-5.74V42.68A5.74,5.74,0,0,1,15.88,37H89a5.74,5.74,0,0,1,5.74,5.73V88.09A5.74,5.74,0,0,1,89,93.83ZM41.05,69.7h-1V53.46a3.81,3.81,0,0,0-1.23-3,4.34,4.34,0,0,0-3-1.08,4.68,4.68,0,0,0-2,.47,4.31,4.31,0,0,0-1.62,1.38l-13,18.36a5.05,5.05,0,0,0-1,3A3.34,3.34,0,0,0,21.73,76H31.89v1.53A4,4,0,0,0,33,80.59a4.14,4.14,0,0,0,2.94,1,4.24,4.24,0,0,0,3-1,3.93,3.93,0,0,0,1.14-3.06V76h1q4,0,4-3.19T41.05,69.7Zm-14.62,0,5.46-7.78V69.7ZM50.66,82.8,61,50.71a5,5,0,0,0,.18-1,2.58,2.58,0,0,0-1-2.11A3.42,3.42,0,0,0,58,46.8,3,3,0,0,0,55,49L44.69,81a3,3,0,0,0-.18,1,2.59,2.59,0,0,0,1,2.07A3.35,3.35,0,0,0,47.7,85a3.13,3.13,0,0,0,1.8-.54A3,3,0,0,0,50.66,82.8ZM84.28,69.7h-1V53.46a3.81,3.81,0,0,0-1.22-3,4.35,4.35,0,0,0-3-1.08,4.67,4.67,0,0,0-2,.47,4.16,4.16,0,0,0-1.62,1.38l-13,18.36a5,5,0,0,0-1,3A3.34,3.34,0,0,0,65,76H75.12v1.53a4,4,0,0,0,1.12,3.06,4.14,4.14,0,0,0,2.94,1,4.24,4.24,0,0,0,3-1,3.92,3.92,0,0,0,1.13-3.06V76h1q4,0,4-3.19T84.28,69.7Zm-14.63,0,5.47-7.78V69.7Zm61.8-16.33V76.72a11,11,0,0,1-11,11h-12.2l-.14,0h-4.22v5.31a9.78,9.78,0,0,1-9.19,9.18H11.43a10.06,10.06,0,0,1-7.15-2.91,10.08,10.08,0,0,1-2.85-7.08V37.68a10.67,10.67,0,0,1,3.42-7.27,10.52,10.52,0,0,1,6.49-2.64h83a9.83,9.83,0,0,1,9.53,9v5.61h16.55A11,11,0,0,1,131.45,53.37ZM97.93,92.31V37.7A4,4,0,0,0,97,35a4.19,4.19,0,0,0-3.09-1.38H11.24a4.2,4.2,0,0,0-2.64,1,4.32,4.32,0,0,0-1.37,3V92.33a4.42,4.42,0,0,0,1.4,2.94,4.32,4.32,0,0,0,2.61,1.07H93.9a3.69,3.69,0,0,0,4-4Zm11.78-23.15h11a5.41,5.41,0,0,0,3.67-1.07,3.81,3.81,0,0,0,1.2-3,3.71,3.71,0,0,0-1.2-3,5.52,5.52,0,0,0-3.67-1h-11q-4.87,0-4.87,4T109.71,69.16Z"/></svg>