<svg id="Layer_1" data-name="Layer 1" xmlns="http://www.w3.org/2000/svg" viewBox="0 0 130 130"><title>l12_4_1</title><path d="M87.56,93.83H14.44a5.73,5.73,0,0,1-5.73-5.74V42.68A5.72,5.72,0,0,1,14.44,37H87.56a5.73,5.73,0,0,1,5.74,5.73V88.09A5.74,5.74,0,0,1,87.56,93.83Zm-48.11-19H35.72V53.46a3.87,3.87,0,0,0-1.12-2.93,4,4,0,0,0-2.94-1.08,7.8,7.8,0,0,0-3.78,1.13l-7.29,4.18A3.05,3.05,0,0,0,19,57.55,3.73,3.73,0,0,0,19.91,60a2.76,2.76,0,0,0,2.19,1.11,3.15,3.15,0,0,0,1.59-.45l3.65-2.12V74.79H23.65a4.61,4.61,0,0,0-3,.81,3,3,0,0,0-1,2.43q0,3.33,4,3.33h15.8c2.64,0,4-1.11,4-3.33a3,3,0,0,0-1-2.43A4.61,4.61,0,0,0,39.45,74.79Zm9.75,8L59.54,50.71a5,5,0,0,0,.18-1,2.58,2.58,0,0,0-1-2.11,3.42,3.42,0,0,0-2.25-.81A3,3,0,0,0,53.57,49L43.23,81a3,3,0,0,0-.18,1,2.59,2.59,0,0,0,1,2.07,3.35,3.35,0,0,0,2.23.81,3.13,3.13,0,0,0,1.8-.54A3,3,0,0,0,49.2,82.8Zm32.3-8H72.34l6.47-6.53a21.08,21.08,0,0,0,3.8-5.06,11.18,11.18,0,0,0,1.12-5,8.13,8.13,0,0,0-1.39-4.7,8.83,8.83,0,0,0-3.94-3.15,14.75,14.75,0,0,0-5.92-1.1,18.73,18.73,0,0,0-10.07,3.06,3,3,0,0,0-1.12,1.17A4,4,0,0,0,61,55.08a3.85,3.85,0,0,0,.77,2.4,2.34,2.34,0,0,0,1.92,1,2.72,2.72,0,0,0,.86-.14,5,5,0,0,0,.94-.43l.7-.38.91-.45A20.82,20.82,0,0,1,69.68,56a7.29,7.29,0,0,1,2.43-.38,3.61,3.61,0,0,1,2.53.81,3,3,0,0,1,.89,2.34q0,2.61-3,5.71l-9.65,10a4.87,4.87,0,0,0-1.55,3.51,3.37,3.37,0,0,0,1,2.45,3.52,3.52,0,0,0,2.6,1H81.5a4.61,4.61,0,0,0,3-.81,3.09,3.09,0,0,0,1-2.52,3,3,0,0,0-1-2.46A4.74,4.74,0,0,0,81.5,74.79ZM130,53.37V76.72a11,11,0,0,1-11,11H102.44v5.32a9.76,9.76,0,0,1-9.19,9.18H10a10.06,10.06,0,0,1-7.15-2.91A10.08,10.08,0,0,1,0,92.24V37.68a10.72,10.72,0,0,1,3.42-7.27,10.52,10.52,0,0,1,6.5-2.64h83a9.81,9.81,0,0,1,9.53,9v5.61H119A11,11,0,0,1,130,53.37ZM96.5,92.31V37.7a4.09,4.09,0,0,0-1-2.68,4.21,4.21,0,0,0-3.09-1.38H9.81a4.18,4.18,0,0,0-2.64,1,4.3,4.3,0,0,0-1.38,3V92.33a4.42,4.42,0,0,0,1.4,2.94,4.32,4.32,0,0,0,2.62,1.07H92.47a3.7,3.7,0,0,0,4-4ZM122,62h-5.61V56.49a2.49,2.49,0,0,0-.76-1.85,2.73,2.73,0,0,0-3.74,0,2.52,2.52,0,0,0-.75,1.85V62h-5.62a2.6,2.6,0,0,0-1.87.74,2.53,2.53,0,0,0-.76,1.85,2.57,2.57,0,0,0,.76,1.87,2.5,2.5,0,0,0,1.87.77h5.62v5.5a2.52,2.52,0,0,0,.75,1.85,2.62,2.62,0,0,0,4.5-1.85v-5.5H122a2.49,2.49,0,0,0,1.87-.77,2.53,2.53,0,0,0,.76-1.87,2.49,2.49,0,0,0-.76-1.85A2.58,2.58,0,0,0,122,62Z"/></svg>