<svg id="Layer_1" data-name="Layer 1" xmlns="http://www.w3.org/2000/svg" viewBox="0 0 130 130"><title>l12_4_1</title><path d="M87.55,92.68H14.43A5.74,5.74,0,0,1,8.7,86.94V41.53a5.74,5.74,0,0,1,5.73-5.74H87.55a5.74,5.74,0,0,1,5.74,5.74V86.94A5.74,5.74,0,0,1,87.55,92.68ZM25.45,62.07a8.93,8.93,0,0,0-3.5.63V58.39H29.6c2,0,3.08-.82,3.08-2.45s-1-2.41-3.08-2.41h-11a3,3,0,0,0-2.24.77,3,3,0,0,0-.78,2.24V66a1.9,1.9,0,0,0,.68,1.52,2.44,2.44,0,0,0,1.66.58,3.52,3.52,0,0,0,1.6-.38,11.62,11.62,0,0,1,2-.63,9.6,9.6,0,0,1,1.93-.18,4,4,0,0,1,2.77.88,3.09,3.09,0,0,1,1,2.45,3,3,0,0,1-1,2.46,4.51,4.51,0,0,1-2.94.79,5.92,5.92,0,0,1-2-.31,18.94,18.94,0,0,1-2-.84L18.69,72a10,10,0,0,0-1.07-.53,2.46,2.46,0,0,0-.88-.14,1.84,1.84,0,0,0-1.49.75,2.88,2.88,0,0,0-.6,1.84,2.67,2.67,0,0,0,.26,1.21,3.09,3.09,0,0,0,.84,1,11.56,11.56,0,0,0,3.63,1.75,14.92,14.92,0,0,0,4.3.63,11.63,11.63,0,0,0,5.07-1,8,8,0,0,0,3.4-3,8.94,8.94,0,0,0,.19-8.6,7.15,7.15,0,0,0-2.79-2.8A8.35,8.35,0,0,0,25.45,62.07ZM45,78.52a8.32,8.32,0,0,0,7.08-3.26q2.44-3.26,2.45-9.41c0-4.09-.82-7.21-2.47-9.38A8.32,8.32,0,0,0,45,53.21a8.32,8.32,0,0,0-7.09,3.26c-1.63,2.17-2.44,5.29-2.44,9.38s.81,7.24,2.44,9.41A8.32,8.32,0,0,0,45,78.52Zm0-4.87a2.54,2.54,0,0,1-2.45-1.82,17.38,17.38,0,0,1-.74-6,17.23,17.23,0,0,1,.74-6,2.56,2.56,0,0,1,4.89,0,17,17,0,0,1,.74,5.95,17.13,17.13,0,0,1-.74,6A2.54,2.54,0,0,1,45,73.65Zm18.31-5.46a6.3,6.3,0,0,0,4.89-1.94A8.08,8.08,0,0,0,70,60.63a8,8,0,0,0-1.77-5.58,6.26,6.26,0,0,0-4.89-1.94,6.26,6.26,0,0,0-4.89,1.94,7.94,7.94,0,0,0-1.77,5.55,8.12,8.12,0,0,0,1.77,5.63A6.24,6.24,0,0,0,63.29,68.19Zm0-3.78a1.22,1.22,0,0,1-1.18-.86,8,8,0,0,1-.38-2.92,7.7,7.7,0,0,1,.38-2.85,1.23,1.23,0,0,1,1.18-.86,1.26,1.26,0,0,1,1.17.86,7.45,7.45,0,0,1,.39,2.85,8,8,0,0,1-.37,2.92A1.23,1.23,0,0,1,63.29,64.41Zm5.28,13L80.72,56.64a3.24,3.24,0,0,0,.5-1.64,2.12,2.12,0,0,0-.62-1.56,2.06,2.06,0,0,0-1.51-.61,2.3,2.3,0,0,0-1.25.38,3.2,3.2,0,0,0-1.08,1.16L64.6,75.09a3.2,3.2,0,0,0-.49,1.64,2.06,2.06,0,0,0,.64,1.54,2,2,0,0,0,1.48.63,2.4,2.4,0,0,0,1.26-.38A3.47,3.47,0,0,0,68.57,77.36ZM82,78.45a6.26,6.26,0,0,0,4.88-2,8,8,0,0,0,1.78-5.61,8,8,0,0,0-1.78-5.59,7.12,7.12,0,0,0-9.77,0,7.93,7.93,0,0,0-1.78,5.55,8.1,8.1,0,0,0,1.78,5.64A6.28,6.28,0,0,0,82,78.45Zm0-3.78a1.24,1.24,0,0,1-1.19-.86,8,8,0,0,1-.37-2.92A7.89,7.89,0,0,1,80.85,68a1.23,1.23,0,0,1,2.35,0,7.61,7.61,0,0,1,.39,2.87,8,8,0,0,1-.37,2.92A1.24,1.24,0,0,1,82,74.67Zm48-22.46V75.56a11,11,0,0,1-11,11H102.43v5.31a10,10,0,0,1-2.67,6.16,10.05,10.05,0,0,1-6.52,3H10a10.13,10.13,0,0,1-7.15-2.91A10.09,10.09,0,0,1,0,91.08V36.53A10.68,10.68,0,0,1,3.4,29.26a10.56,10.56,0,0,1,6.5-2.65h83a9.83,9.83,0,0,1,9.53,9v5.61H119A11,11,0,0,1,130,52.21ZM96.49,91.16V36.54a4.12,4.12,0,0,0-1-2.68,4.19,4.19,0,0,0-3.09-1.38H9.8a4.1,4.1,0,0,0-4,4.05V91.17a4.22,4.22,0,0,0,4,4H92.46A3.88,3.88,0,0,0,95.51,94,3.83,3.83,0,0,0,96.49,91.16ZM122,60.88h-5.61V55.34a2.47,2.47,0,0,0-.76-1.85,2.53,2.53,0,0,0-1.87-.75,2.56,2.56,0,0,0-1.87.75,2.5,2.5,0,0,0-.75,1.85v5.54h-5.62a2.56,2.56,0,0,0-1.87.75,2.5,2.5,0,0,0-.75,1.85,2.6,2.6,0,0,0,.75,1.87,2.54,2.54,0,0,0,1.87.77h5.62v5.5a2.48,2.48,0,0,0,.75,1.84,2.56,2.56,0,0,0,1.87.75,2.54,2.54,0,0,0,1.9-.75,2.5,2.5,0,0,0,.73-1.84v-5.5H122a2.51,2.51,0,0,0,1.87-.77,2.57,2.57,0,0,0,.76-1.87,2.47,2.47,0,0,0-.76-1.85A2.53,2.53,0,0,0,122,60.88Z"/></svg>