<svg id="Layer_1" data-name="Layer 1" xmlns="http://www.w3.org/2000/svg" viewBox="0 0 130 130"><title>l12_5_1</title><path d="M87.41,90.67H14.29a5.74,5.74,0,0,1-5.74-5.74V39.52a5.74,5.74,0,0,1,5.74-5.74H87.41a5.74,5.74,0,0,1,5.74,5.74V84.93A5.74,5.74,0,0,1,87.41,90.67Zm-49.3-19H29l6.47-6.52A21.08,21.08,0,0,0,39.23,60a11.31,11.31,0,0,0,1.12-5A8.2,8.2,0,0,0,39,50.32,8.83,8.83,0,0,0,35,47.17a14.75,14.75,0,0,0-5.92-1.11,18.05,18.05,0,0,0-5.27.81A18.26,18.26,0,0,0,19,49.12a3.07,3.07,0,0,0-1.12,1.17,3.85,3.85,0,0,0-.29,1.62,3.8,3.8,0,0,0,.77,2.41,2.31,2.31,0,0,0,1.91,1,2.73,2.73,0,0,0,.87-.13,5.25,5.25,0,0,0,.93-.43l.71-.38.91-.45a21.42,21.42,0,0,1,2.57-1.1,7.39,7.39,0,0,1,2.44-.39,3.63,3.63,0,0,1,2.53.81,3,3,0,0,1,.89,2.34c0,1.75-1,3.65-3,5.72l-9.66,9.94a4.9,4.9,0,0,0-1.54,3.51,3.35,3.35,0,0,0,.95,2.46,3.52,3.52,0,0,0,2.6,1H38.11a4.64,4.64,0,0,0,3-.8,3.1,3.1,0,0,0,1-2.53,3,3,0,0,0-1-2.45A4.77,4.77,0,0,0,38.11,71.62Zm11,8L59.43,47.55a5.23,5.23,0,0,0,.19-1,2.63,2.63,0,0,0-1-2.12,3.45,3.45,0,0,0-2.26-.8,3,3,0,0,0-2.91,2.15L43.13,77.88a2.77,2.77,0,0,0-.19,1,2.59,2.59,0,0,0,1,2.07,3.35,3.35,0,0,0,2.23.81,3.13,3.13,0,0,0,1.8-.54A3.06,3.06,0,0,0,49.09,79.64ZM78.7,61.86a7.25,7.25,0,0,0,4.92-7.07,7.76,7.76,0,0,0-1.39-4.59,9,9,0,0,0-4-3.06,15.48,15.48,0,0,0-6-1.08,18.39,18.39,0,0,0-5.39.81,15.47,15.47,0,0,0-4.63,2.25,3.68,3.68,0,0,0-1.09,1.22,3.48,3.48,0,0,0-.32,1.57,3.71,3.71,0,0,0,.77,2.37,2.39,2.39,0,0,0,1.92,1,3,3,0,0,0,1.14-.2,14.88,14.88,0,0,0,1.36-.65l1-.45a25,25,0,0,1,2.48-1.08,7,7,0,0,1,2.39-.41,3.91,3.91,0,0,1,2.78.93,3.31,3.31,0,0,1,1,2.58,2.51,2.51,0,0,1-1.13,2.3,7.07,7.07,0,0,1-3.65.72h-2a2.58,2.58,0,0,0-2.14,1A3.39,3.39,0,0,0,66,62.18a3.44,3.44,0,0,0,.78,2.25,2.63,2.63,0,0,0,2.14.94h2.82a6.94,6.94,0,0,1,3.74.77,2.78,2.78,0,0,1,1.14,2.51,3.12,3.12,0,0,1-1.12,2.7,6.39,6.39,0,0,1-3.67.81,8.25,8.25,0,0,1-2.62-.38,20.49,20.49,0,0,1-2.62-1.1L66,70.43l-.44-.2a14.88,14.88,0,0,0-1.36-.65,3,3,0,0,0-1.14-.21,2.4,2.4,0,0,0-1.92,1,3.7,3.7,0,0,0-.77,2.36,3.59,3.59,0,0,0,.32,1.56,3.51,3.51,0,0,0,1.09,1.23,14.91,14.91,0,0,0,4.74,2.28,20.63,20.63,0,0,0,5.69.78,17.22,17.22,0,0,0,6.45-1.1,9.44,9.44,0,0,0,4.26-3.13,7.77,7.77,0,0,0,1.5-4.77,8,8,0,0,0-1.52-4.9A7.79,7.79,0,0,0,78.7,61.86Zm51.16-11.65V73.56a11,11,0,0,1-11,11H102.29v5.32a9.78,9.78,0,0,1-9.19,9.18H9.84a10.06,10.06,0,0,1-7.15-2.91A10.09,10.09,0,0,1-.16,89.07V34.52a10.69,10.69,0,0,1,3.41-7.27,10.56,10.56,0,0,1,6.5-2.64h83a9.85,9.85,0,0,1,9.53,9v5.6h16.55A11,11,0,0,1,129.86,50.21ZM96.34,89.15V34.54a4,4,0,0,0-1-2.68,4.15,4.15,0,0,0-3.09-1.38H9.65a4.2,4.2,0,0,0-2.64,1,4.3,4.3,0,0,0-1.37,3V89.17A4.37,4.37,0,0,0,7,92.11a4.32,4.32,0,0,0,2.61,1.07H92.31a3.69,3.69,0,0,0,4-4ZM108.12,66.6h11a5.41,5.41,0,0,0,3.67-1.07,3.81,3.81,0,0,0,1.2-3,3.71,3.71,0,0,0-1.2-3,5.52,5.52,0,0,0-3.67-1h-11q-4.87,0-4.87,4T108.12,66.6Z"/></svg>