<svg id="Layer_1" data-name="Layer 1" xmlns="http://www.w3.org/2000/svg" viewBox="0 0 130 130"><title>l12_3_1</title><path d="M99.28,95.15H15.61a5.74,5.74,0,0,1-5.74-5.74V36.91a5.74,5.74,0,0,1,5.74-5.74H99.28A5.74,5.74,0,0,1,105,36.91v52.5A5.74,5.74,0,0,1,99.28,95.15Zm5.31-74.3H11.22a11.89,11.89,0,0,0-7.31,3A12,12,0,0,0,.07,32V93.36a11.31,11.31,0,0,0,3.21,8,11.31,11.31,0,0,0,8,3.28H105a11,11,0,0,0,10.33-10.33v-6H120A9.91,9.91,0,0,0,129.39,79V46.12a10.34,10.34,0,0,0-8.86-8.85H115.3V31a11,11,0,0,0-10.71-10.11Zm-93.48,6.6H104A4.7,4.7,0,0,1,107.52,29a4.64,4.64,0,0,1,1.09,3V93.44A4.16,4.16,0,0,1,104.08,98h-93a4.81,4.81,0,0,1-2.94-1.2A4.92,4.92,0,0,1,6.6,93.46V32a4.61,4.61,0,0,1,4.51-4.56ZM34.44,49.92H18.57a4,4,0,0,0-2.67.74,2.77,2.77,0,0,0-.85,2.22A2.68,2.68,0,0,0,15.88,55a4.07,4.07,0,0,0,2.69.72H28.69L18.29,73.32a3.73,3.73,0,0,0-.57,1.92,2.92,2.92,0,0,0,1.09,2.3,3.73,3.73,0,0,0,2.51.94A3.44,3.44,0,0,0,23,78a3.74,3.74,0,0,0,1.4-1.42l12.27-21A5.07,5.07,0,0,0,37.48,53a3.08,3.08,0,0,0-.79-2.18A2.92,2.92,0,0,0,34.44,49.92ZM50.56,78.48a9.5,9.5,0,0,0,8.09-3.72Q61.46,71,61.45,64T58.64,53.28a9.53,9.53,0,0,0-8.08-3.72,9.5,9.5,0,0,0-8.1,3.72Q39.67,57,39.66,64t2.8,10.76A9.5,9.5,0,0,0,50.56,78.48Zm0-5.56a2.9,2.9,0,0,1-2.8-2.08A19.89,19.89,0,0,1,46.91,64a19.68,19.68,0,0,1,.85-6.82,2.92,2.92,0,0,1,5.59,0A19.46,19.46,0,0,1,54.2,64a19.64,19.64,0,0,1-.85,6.84A2.9,2.9,0,0,1,50.56,72.92Zm20.93-6.24a7.18,7.18,0,0,0,5.59-2.22q2-2.22,2-6.42t-2-6.38a7.18,7.18,0,0,0-5.59-2.22,7.2,7.2,0,0,0-5.59,2.22,9.07,9.07,0,0,0-2,6.34q0,4.2,2,6.44A7.17,7.17,0,0,0,71.49,66.68Zm0-4.32a1.43,1.43,0,0,1-1.36-1A9.33,9.33,0,0,1,69.71,58a9,9,0,0,1,.42-3.26,1.42,1.42,0,0,1,2.7,0A8.7,8.7,0,0,1,73.27,58a9.33,9.33,0,0,1-.42,3.34A1.43,1.43,0,0,1,71.49,62.36Zm6,14.8L91.41,53.48A3.68,3.68,0,0,0,92,51.6a2.41,2.41,0,0,0-.71-1.78,2.35,2.35,0,0,0-1.72-.7,2.72,2.72,0,0,0-1.44.44,3.76,3.76,0,0,0-1.23,1.32L73,74.56a3.68,3.68,0,0,0-.57,1.88,2.41,2.41,0,0,0,.73,1.76,2.35,2.35,0,0,0,1.7.72,2.72,2.72,0,0,0,1.44-.44A3.76,3.76,0,0,0,77.52,77.16ZM92.91,78.4a7.18,7.18,0,0,0,5.59-2.22q2-2.22,2-6.42t-2-6.38a8.15,8.15,0,0,0-11.18,0,9.07,9.07,0,0,0-2,6.34q0,4.2,2,6.44A7.17,7.17,0,0,0,92.91,78.4Zm0-4.32a1.43,1.43,0,0,1-1.36-1,9.33,9.33,0,0,1-.42-3.34,9.15,9.15,0,0,1,.42-3.3,1.42,1.42,0,0,1,2.7,0,8.89,8.89,0,0,1,.44,3.28,9.33,9.33,0,0,1-.42,3.34A1.43,1.43,0,0,1,92.91,74.08Z"/></svg>