<svg id="Layer_1" data-name="Layer 1" xmlns="http://www.w3.org/2000/svg" viewBox="0 0 130 130"><title>l12_4_1</title><path d="M87.58,96.36H14.46a5.74,5.74,0,0,1-5.74-5.73V45.22a5.74,5.74,0,0,1,5.74-5.74H87.58a5.74,5.74,0,0,1,5.74,5.74V90.63A5.74,5.74,0,0,1,87.58,96.36ZM22.86,56.9A9.24,9.24,0,0,0,18.36,58a7.92,7.92,0,0,0-3.1,3,8.61,8.61,0,0,0-1.12,4.39,8.71,8.71,0,0,0,1,4.15,7.15,7.15,0,0,0,6.5,3.9,6.92,6.92,0,0,0,3-.64A5.54,5.54,0,0,0,26.79,71a9.17,9.17,0,0,1-1.33,4.57,3.4,3.4,0,0,1-2.92,1.62A4.69,4.69,0,0,1,20.91,77,18.37,18.37,0,0,1,19,76.11l-.78-.38c-.45-.23-.8-.4-1.06-.51a2.48,2.48,0,0,0-.89-.16,1.86,1.86,0,0,0-1.5.76,2.74,2.74,0,0,0-.62,1.83,2.67,2.67,0,0,0,.26,1.23,3,3,0,0,0,.87.94,11.27,11.27,0,0,0,3.56,1.75,13.93,13.93,0,0,0,4.06.63,9.68,9.68,0,0,0,5.51-1.57A10.27,10.27,0,0,0,32,76.13a16.83,16.83,0,0,0,1.29-6.84c0-4-.91-7-2.73-9.17A9.55,9.55,0,0,0,22.86,56.9Zm.39,11.58A2.81,2.81,0,0,1,21,67.59a4.08,4.08,0,0,1,0-4.85,3.08,3.08,0,0,1,4.39,0,3.86,3.86,0,0,1,0,4.81A2.83,2.83,0,0,1,23.25,68.48ZM45,82.2A8.32,8.32,0,0,0,52.09,79q2.44-3.26,2.44-9.42t-2.46-9.38A8.33,8.33,0,0,0,45,56.9a8.31,8.31,0,0,0-7.08,3.25q-2.45,3.26-2.45,9.38T37.92,79A8.31,8.31,0,0,0,45,82.2Zm0-4.86a2.53,2.53,0,0,1-2.44-1.82,17.11,17.11,0,0,1-.75-6,16.91,16.91,0,0,1,.75-6,2.55,2.55,0,0,1,4.89,0,17.3,17.3,0,0,1,.74,6,17.4,17.4,0,0,1-.74,6A2.54,2.54,0,0,1,45,77.34Zm18.32-5.46a6.3,6.3,0,0,0,4.89-1.94A8.08,8.08,0,0,0,70,64.32a8,8,0,0,0-1.77-5.58,6.27,6.27,0,0,0-4.89-2,6.27,6.27,0,0,0-4.89,2,7.93,7.93,0,0,0-1.77,5.54,8.15,8.15,0,0,0,1.77,5.64A6.24,6.24,0,0,0,63.32,71.88Zm0-3.78a1.25,1.25,0,0,1-1.19-.86,8,8,0,0,1-.37-2.92,7.75,7.75,0,0,1,.37-2.85,1.24,1.24,0,0,1,2.36,0,7.45,7.45,0,0,1,.39,2.85,8.23,8.23,0,0,1-.37,2.92A1.25,1.25,0,0,1,63.32,68.1Zm5.28,13L80.75,60.33a3.25,3.25,0,0,0,.5-1.65,2.12,2.12,0,0,0-2.13-2.17,2.38,2.38,0,0,0-1.26.39,3.44,3.44,0,0,0-1.08,1.15L64.63,78.77a3.25,3.25,0,0,0-.5,1.65A2.1,2.1,0,0,0,64.77,82a2.06,2.06,0,0,0,1.49.63,2.38,2.38,0,0,0,1.26-.39A3.34,3.34,0,0,0,68.6,81.05Zm13.46,1.08A6.26,6.26,0,0,0,87,80.19a8.06,8.06,0,0,0,1.77-5.62A8,8,0,0,0,87,69a7.13,7.13,0,0,0-9.78,0,8,8,0,0,0-1.77,5.55,8.1,8.1,0,0,0,1.77,5.63A6.24,6.24,0,0,0,82.06,82.13Zm0-3.78a1.22,1.22,0,0,1-1.18-.85,8.06,8.06,0,0,1-.38-2.93,7.82,7.82,0,0,1,.38-2.88,1.22,1.22,0,0,1,1.18-.86,1.25,1.25,0,0,1,1.17.87,7.64,7.64,0,0,1,.39,2.87,8.11,8.11,0,0,1-.37,2.93A1.24,1.24,0,0,1,82.06,78.35ZM130,55.9V79.25a11,11,0,0,1-11,11h-12.2l-.14,0h-4.22v5.31a9.8,9.8,0,0,1-9.19,9.19H10a10.09,10.09,0,0,1-7.15-2.92A10.08,10.08,0,0,1,0,94.77V40.22a10.67,10.67,0,0,1,3.42-7.28A10.52,10.52,0,0,1,9.92,30.3h83a9.83,9.83,0,0,1,9.53,9V44.9H119A11,11,0,0,1,130,55.9ZM96.51,94.85V40.23a4,4,0,0,0-1-2.68,4.19,4.19,0,0,0-3.09-1.38H9.82a4.16,4.16,0,0,0-2.63,1,4.3,4.3,0,0,0-1.38,3V94.86a4.42,4.42,0,0,0,1.4,2.94,4.32,4.32,0,0,0,2.61,1.07H92.48a3.85,3.85,0,0,0,3.06-1.16A3.8,3.8,0,0,0,96.51,94.85Zm25.54-30.28h-5.61V59a2.45,2.45,0,0,0-.76-1.84,2.71,2.71,0,0,0-3.74,0,2.45,2.45,0,0,0-.76,1.84v5.55h-5.61a2.55,2.55,0,0,0-1.87.75,2.47,2.47,0,0,0-.76,1.84A2.53,2.53,0,0,0,103.7,69a2.49,2.49,0,0,0,1.87.77h5.61v5.5a2.47,2.47,0,0,0,.76,1.85,2.62,2.62,0,0,0,4.5-1.85V69.8h5.61a2.49,2.49,0,0,0,1.87-.77,2.53,2.53,0,0,0,.76-1.87,2.47,2.47,0,0,0-.76-1.84A2.55,2.55,0,0,0,122.05,64.57Z"/></svg>