<svg id="Layer_1" data-name="Layer 1" xmlns="http://www.w3.org/2000/svg" viewBox="0 0 130 130"><title>l12_2_1</title><path d="M99.55,96.66H15.88a5.74,5.74,0,0,1-5.74-5.74V38.41a5.74,5.74,0,0,1,5.74-5.73H99.55a5.74,5.74,0,0,1,5.73,5.73V90.92A5.74,5.74,0,0,1,99.55,96.66Zm5.31-74.31H11.49a11.82,11.82,0,0,0-7.3,3A12,12,0,0,0,.34,33.51V94.86a11.34,11.34,0,0,0,3.21,8,11.35,11.35,0,0,0,8,3.28h93.64a11,11,0,0,0,10.33-10.34v-6h4.75a10.26,10.26,0,0,0,6.78-3.22,10.13,10.13,0,0,0,2.57-6.13V47.63a10.34,10.34,0,0,0-8.85-8.86h-5.24v-6.3a11.07,11.07,0,0,0-10.71-10.12ZM11.38,29h92.93a4.72,4.72,0,0,1,3.48,1.55,4.6,4.6,0,0,1,1.09,3V95a4.17,4.17,0,0,1-4.53,4.53h-93a4.84,4.84,0,0,1-2.94-1.21A4.91,4.91,0,0,1,6.87,95V33.51a4.8,4.8,0,0,1,1.54-3.39A4.69,4.69,0,0,1,11.38,29Zm17,51a9.48,9.48,0,0,0,8.09-3.73q2.81-3.7,2.8-10.75T36.47,54.79a9.48,9.48,0,0,0-8.07-3.72,9.48,9.48,0,0,0-8.1,3.72q-2.79,3.7-2.8,10.72t2.8,10.75A9.48,9.48,0,0,0,28.4,80Zm0-5.56a2.91,2.91,0,0,1-2.8-2.09,19.54,19.54,0,0,1-.85-6.83,19.5,19.5,0,0,1,.85-6.83,2.92,2.92,0,0,1,5.59,0,19.42,19.42,0,0,1,.85,6.8,19.54,19.54,0,0,1-.85,6.83A2.91,2.91,0,0,1,28.4,74.43Zm17.65,5.44a3.88,3.88,0,1,0,0-7.76,3.81,3.81,0,0,0-2.81,1.11,4,4,0,0,0,0,5.53A3.82,3.82,0,0,0,46.05,79.87Zm22.8-14.76a6.46,6.46,0,0,0,4.37-6.28A6.87,6.87,0,0,0,72,54.75,7.81,7.81,0,0,0,68.46,52a13.37,13.37,0,0,0-5.28-1,16.1,16.1,0,0,0-4.8.72,13.12,13.12,0,0,0-4.11,2,3.11,3.11,0,0,0-1,1.08A3,3,0,0,0,53,56.26a3.28,3.28,0,0,0,.69,2.11,2.11,2.11,0,0,0,1.7.85,2.73,2.73,0,0,0,1-.17c.29-.12.7-.32,1.21-.58l.85-.4a20.06,20.06,0,0,1,2.21-1,6.17,6.17,0,0,1,2.12-.36,3.48,3.48,0,0,1,2.47.82,2.93,2.93,0,0,1,.89,2.3,2.23,2.23,0,0,1-1,2,6.31,6.31,0,0,1-3.24.64H60.14a2.34,2.34,0,0,0-1.9.83,3.08,3.08,0,0,0-.69,2,3,3,0,0,0,.69,2,2.29,2.29,0,0,0,1.9.84h2.51a6.06,6.06,0,0,1,3.32.69,2.48,2.48,0,0,1,1,2.23,2.79,2.79,0,0,1-1,2.41,5.68,5.68,0,0,1-3.26.71,7.67,7.67,0,0,1-2.33-.33,20.06,20.06,0,0,1-2.32-1l-.51-.23-.39-.17A13.23,13.23,0,0,0,56,72a2.49,2.49,0,0,0-1-.18,2.09,2.09,0,0,0-1.7.85,3.28,3.28,0,0,0-.69,2.11,2.75,2.75,0,0,0,1.25,2.47,13.08,13.08,0,0,0,4.21,2,18.48,18.48,0,0,0,5.07.7,15.49,15.49,0,0,0,5.73-1,8.57,8.57,0,0,0,3.78-2.79A6.89,6.89,0,0,0,74,72a7,7,0,0,0-1.36-4.36A6.8,6.8,0,0,0,68.85,65.11ZM90,61.18a10.25,10.25,0,0,0-4,.73V57h8.75q3.52,0,3.52-2.81c0-1.84-1.17-2.75-3.52-2.75H82.17a3.49,3.49,0,0,0-2.55.87,3.45,3.45,0,0,0-.89,2.57V65.71a2.18,2.18,0,0,0,.76,1.74,2.9,2.9,0,0,0,1.91.66,3.94,3.94,0,0,0,1.82-.44A13.85,13.85,0,0,1,85.55,67a10.7,10.7,0,0,1,2.2-.2,4.59,4.59,0,0,1,3.16,1,3.5,3.5,0,0,1,1.14,2.8A3.46,3.46,0,0,1,91,73.37a5.23,5.23,0,0,1-3.36.89,7,7,0,0,1-2.24-.35,24.34,24.34,0,0,1-2.29-1l-.81-.4A9.89,9.89,0,0,0,81,72a2.67,2.67,0,0,0-1-.16,2.11,2.11,0,0,0-1.7.85,3.28,3.28,0,0,0-.69,2.11,2.87,2.87,0,0,0,.31,1.38,3.39,3.39,0,0,0,1,1.09,13,13,0,0,0,4.15,2A16.7,16.7,0,0,0,88,80a13.32,13.32,0,0,0,5.79-1.2,9,9,0,0,0,3.88-3.41A9.34,9.34,0,0,0,99,70.26a9.49,9.49,0,0,0-1.15-4.73,8.14,8.14,0,0,0-3.2-3.2A9.46,9.46,0,0,0,90,61.18Z"/></svg>