<svg id="Layer_1" data-name="Layer 1" xmlns="http://www.w3.org/2000/svg" viewBox="0 0 130 130"><title>l12_4_1</title><path d="M87.56,95H14.44a5.73,5.73,0,0,1-5.73-5.74V43.84a5.73,5.73,0,0,1,5.73-5.74H87.56a5.74,5.74,0,0,1,5.74,5.74V89.25A5.74,5.74,0,0,1,87.56,95ZM30.88,55.84H17a3.5,3.5,0,0,0-2.34.64,2.45,2.45,0,0,0-.75,2,2.35,2.35,0,0,0,.73,1.89A3.56,3.56,0,0,0,17,61h8.85l-9.1,15.36a3.29,3.29,0,0,0-.5,1.68,2.54,2.54,0,0,0,1,2,3.27,3.27,0,0,0,2.19.83,3.06,3.06,0,0,0,1.51-.41,3.23,3.23,0,0,0,1.22-1.24L32.87,60.81a4.43,4.43,0,0,0,.67-2.31,2.72,2.72,0,0,0-.69-1.91A2.55,2.55,0,0,0,30.88,55.84Zm15.84,8.54a9,9,0,0,0-3.51.63V60.7h7.66c2.05,0,3.08-.82,3.08-2.45s-1-2.41-3.08-2.41h-11a2.71,2.71,0,0,0-3,3v9.48a1.89,1.89,0,0,0,.67,1.52,2.46,2.46,0,0,0,1.67.58,3.45,3.45,0,0,0,1.59-.38,11.44,11.44,0,0,1,2-.63,9.53,9.53,0,0,1,1.93-.18,4,4,0,0,1,2.77.88,3.09,3.09,0,0,1,1,2.45,3,3,0,0,1-1,2.46,4.55,4.55,0,0,1-2.94.79,6,6,0,0,1-2-.31,19.86,19.86,0,0,1-2-.84L40,74.32a9.22,9.22,0,0,0-1.06-.53,2.52,2.52,0,0,0-.89-.14,1.82,1.82,0,0,0-1.48.75,2.89,2.89,0,0,0-.61,1.84,2.54,2.54,0,0,0,.27,1.21,3,3,0,0,0,.83,1,11.78,11.78,0,0,0,3.63,1.75,15,15,0,0,0,4.31.63A11.66,11.66,0,0,0,50,79.74a8,8,0,0,0,3.4-3,8.94,8.94,0,0,0,.19-8.6,7.18,7.18,0,0,0-2.8-2.8A8.28,8.28,0,0,0,46.72,64.38ZM63.3,70.5a6.3,6.3,0,0,0,4.89-1.94A8.08,8.08,0,0,0,70,62.94a8,8,0,0,0-1.77-5.58,6.26,6.26,0,0,0-4.89-1.94,6.26,6.26,0,0,0-4.89,1.94,7.94,7.94,0,0,0-1.77,5.55,8.12,8.12,0,0,0,1.77,5.63A6.24,6.24,0,0,0,63.3,70.5Zm0-3.78a1.24,1.24,0,0,1-1.19-.86,8.23,8.23,0,0,1-.37-2.92,8,8,0,0,1,.37-2.85,1.24,1.24,0,0,1,2.36,0,7.45,7.45,0,0,1,.39,2.85,8,8,0,0,1-.37,2.92A1.24,1.24,0,0,1,63.3,66.72Zm5.28,13L80.73,59a3.24,3.24,0,0,0,.5-1.64,2.12,2.12,0,0,0-.62-1.56,2.06,2.06,0,0,0-1.51-.61,2.39,2.39,0,0,0-1.25.38,3.31,3.31,0,0,0-1.09,1.16L64.61,77.4A3.2,3.2,0,0,0,64.12,79a2.15,2.15,0,0,0,2.12,2.17,2.4,2.4,0,0,0,1.26-.38A3.38,3.38,0,0,0,68.58,79.67ZM82,80.76a6.27,6.27,0,0,0,4.89-2,8,8,0,0,0,1.78-5.61,8,8,0,0,0-1.78-5.59,7.13,7.13,0,0,0-9.78,0,8,8,0,0,0-1.77,5.55,8.15,8.15,0,0,0,1.77,5.64A6.28,6.28,0,0,0,82,80.76ZM82,77a1.24,1.24,0,0,1-1.18-.86,8,8,0,0,1-.37-2.92,7.89,7.89,0,0,1,.37-2.89,1.23,1.23,0,0,1,2.35,0,7.61,7.61,0,0,1,.39,2.87,8,8,0,0,1-.37,2.92A1.24,1.24,0,0,1,82,77Zm48-22.46V77.87a11,11,0,0,1-11,11H102.44V94.2a10,10,0,0,1-2.67,6.17,10.07,10.07,0,0,1-6.52,3H10a10.11,10.11,0,0,1-7.15-2.91A10.09,10.09,0,0,1,0,93.39V38.84a10.72,10.72,0,0,1,3.42-7.27,10.46,10.46,0,0,1,6.5-2.64h83a9.83,9.83,0,0,1,9.53,9v5.61H119A11,11,0,0,1,130,54.52ZM96.5,93.47V38.85a4.12,4.12,0,0,0-1-2.68,4.21,4.21,0,0,0-3.09-1.38H9.81a4.21,4.21,0,0,0-2.64,1,4.27,4.27,0,0,0-1.38,3V93.49a4.38,4.38,0,0,0,1.4,2.93A4.28,4.28,0,0,0,9.81,97.5H92.47a3.71,3.71,0,0,0,4-4ZM122,63.19h-5.61V57.65a2.47,2.47,0,0,0-.76-1.85,2.71,2.71,0,0,0-3.74,0,2.5,2.5,0,0,0-.75,1.85v5.54h-5.62a2.56,2.56,0,0,0-1.87.75,2.51,2.51,0,0,0-.76,1.85,2.61,2.61,0,0,0,.76,1.87,2.54,2.54,0,0,0,1.87.77h5.62v5.5a2.48,2.48,0,0,0,.75,1.84,2.74,2.74,0,0,0,3.77,0,2.5,2.5,0,0,0,.73-1.84v-5.5H122a2.53,2.53,0,0,0,1.87-.77,2.57,2.57,0,0,0,.76-1.87,2.47,2.47,0,0,0-.76-1.85A2.55,2.55,0,0,0,122,63.19Z"/></svg>