<svg id="Layer_1" data-name="Layer 1" xmlns="http://www.w3.org/2000/svg" viewBox="0 0 130 130"><title>l12_5_1</title><path d="M87.42,96H14.3a5.73,5.73,0,0,1-5.74-5.73V44.86a5.74,5.74,0,0,1,5.74-5.74H87.42a5.73,5.73,0,0,1,5.73,5.74V90.27A5.72,5.72,0,0,1,87.42,96ZM25.21,81.84a8.32,8.32,0,0,0,7.09-3.25q2.45-3.25,2.44-9.42t-2.46-9.38a8.33,8.33,0,0,0-7.07-3.25,8.31,8.31,0,0,0-7.08,3.25Q15.69,63,15.68,69.17t2.45,9.42A8.31,8.31,0,0,0,25.21,81.84Zm0-4.86a2.53,2.53,0,0,1-2.44-1.82,17.11,17.11,0,0,1-.75-6,16.91,16.91,0,0,1,.75-6,2.55,2.55,0,0,1,4.89,0,17.3,17.3,0,0,1,.74,6,17.4,17.4,0,0,1-.74,6A2.54,2.54,0,0,1,25.21,77Zm15.45,4.76a3.4,3.4,0,1,0,0-6.79,3.34,3.34,0,0,0-2.46,1,3.47,3.47,0,0,0,0,4.83A3.34,3.34,0,0,0,40.66,81.74Zm22.6-24.89H49.38A3.5,3.5,0,0,0,47,57.5a2.42,2.42,0,0,0-.75,1.94A2.35,2.35,0,0,0,47,61.33a3.56,3.56,0,0,0,2.36.63h8.85l-9.1,15.37a3.29,3.29,0,0,0-.5,1.68,2.56,2.56,0,0,0,1,2,3.26,3.26,0,0,0,2.19.82,3,3,0,0,0,1.51-.4,3.3,3.3,0,0,0,1.22-1.24L65.25,61.82a4.38,4.38,0,0,0,.67-2.31,2.69,2.69,0,0,0-.69-1.9A2.55,2.55,0,0,0,63.26,56.85Zm21.26,0H70.63a3.53,3.53,0,0,0-2.34.65,2.45,2.45,0,0,0-.74,1.94,2.35,2.35,0,0,0,.73,1.89,3.55,3.55,0,0,0,2.35.63h8.86l-9.1,15.37a3.2,3.2,0,0,0-.5,1.68,2.56,2.56,0,0,0,1,2,3.24,3.24,0,0,0,2.19.82,3.08,3.08,0,0,0,1.51-.4,3.3,3.3,0,0,0,1.22-1.24L86.51,61.82a4.47,4.47,0,0,0,.67-2.31,2.69,2.69,0,0,0-.69-1.9A2.55,2.55,0,0,0,84.52,56.85Zm45.34-1.31V78.89a11,11,0,0,1-11,11H102.29v5.31a9.89,9.89,0,0,1-2.67,6.16,10,10,0,0,1-6.51,3H9.85a10.09,10.09,0,0,1-7.15-2.92A10.06,10.06,0,0,1-.15,94.41V39.86a10.61,10.61,0,0,1,3.41-7.27,10.58,10.58,0,0,1,6.5-2.65h83a9.83,9.83,0,0,1,9.52,9v5.61h16.56A11,11,0,0,1,129.86,55.54ZM96.35,94.49V39.87a4.1,4.1,0,0,0-1-2.68,4.19,4.19,0,0,0-3.09-1.38H9.66a4.2,4.2,0,0,0-2.64,1,4.23,4.23,0,0,0-1.37,3V94.5a4.24,4.24,0,0,0,4,4H92.32a3.91,3.91,0,0,0,3.06-1.17A3.8,3.8,0,0,0,96.35,94.49Zm11.78-22.56h11a5.38,5.38,0,0,0,3.67-1.07,3.79,3.79,0,0,0,1.2-3,3.7,3.7,0,0,0-1.2-3,5.49,5.49,0,0,0-3.67-1.05h-11q-4.87,0-4.87,4T108.13,71.93Z"/></svg>