<svg id="Layer_1" data-name="Layer 1" xmlns="http://www.w3.org/2000/svg" viewBox="0 0 130 130"><title>l12_3_1</title><path d="M99.69,95.59H16a5.74,5.74,0,0,1-5.74-5.73V37.35A5.73,5.73,0,0,1,16,31.62H99.69a5.73,5.73,0,0,1,5.74,5.73V89.86A5.74,5.74,0,0,1,99.69,95.59ZM105,21.29H11.64a11.78,11.78,0,0,0-7.31,3A12,12,0,0,0,.49,32.45V93.8a11.36,11.36,0,0,0,3.2,8,11.35,11.35,0,0,0,8,3.27h93.65a11,11,0,0,0,10.33-10.33v-6h4.74a10.22,10.22,0,0,0,6.78-3.23,10,10,0,0,0,2.57-6.12V46.56A10.34,10.34,0,0,0,121,37.71h-5.23v-6.3A11,11,0,0,0,105,21.29ZM11.52,27.9h92.94a4.65,4.65,0,0,1,3.47,1.55,4.53,4.53,0,0,1,1.09,3V93.89a4.28,4.28,0,0,1-1.09,3.22,4.35,4.35,0,0,1-3.44,1.31h-93A4.75,4.75,0,0,1,7,93.91V32.45a4.83,4.83,0,0,1,1.55-3.39A4.69,4.69,0,0,1,11.52,27.9ZM38.7,62.32A8.53,8.53,0,0,0,44.49,54a9.15,9.15,0,0,0-1.63-5.4A10.53,10.53,0,0,0,38.19,45a18,18,0,0,0-7-1.27,21.93,21.93,0,0,0-6.36,1,18.08,18.08,0,0,0-5.45,2.65,4.32,4.32,0,0,0-1.28,1.44,4.06,4.06,0,0,0-.38,1.85,4.28,4.28,0,0,0,.91,2.78,2.79,2.79,0,0,0,2.26,1.14,3.56,3.56,0,0,0,1.34-.24c.39-.16.93-.41,1.61-.76L25,53a30.23,30.23,0,0,1,2.93-1.28,8.33,8.33,0,0,1,2.81-.47A4.68,4.68,0,0,1,34,52.33a4,4,0,0,1,1.18,3.05,3,3,0,0,1-1.34,2.7,8.29,8.29,0,0,1-4.3.85H27.16A3.09,3.09,0,0,0,24.64,60a4.31,4.31,0,0,0,0,5.3,3.07,3.07,0,0,0,2.52,1.12h3.33a8.17,8.17,0,0,1,4.4.9,3.32,3.32,0,0,1,1.34,3,3.69,3.69,0,0,1-1.31,3.18,7.59,7.59,0,0,1-4.32.95A9.85,9.85,0,0,1,27.51,74a23.3,23.3,0,0,1-3.08-1.3l-.67-.29-.51-.24c-.68-.35-1.22-.61-1.61-.77a3.56,3.56,0,0,0-1.34-.24A2.79,2.79,0,0,0,18,72.31a4.31,4.31,0,0,0-.91,2.79,3.74,3.74,0,0,0,1.66,3.28,17.42,17.42,0,0,0,5.58,2.68,24.06,24.06,0,0,0,6.71.93,20.44,20.44,0,0,0,7.59-1.3,11.29,11.29,0,0,0,5-3.69,9.15,9.15,0,0,0,1.77-5.61,9.32,9.32,0,0,0-1.8-5.78A9.13,9.13,0,0,0,38.7,62.32Zm16,20.94L66.92,45.47a5.88,5.88,0,0,0,.21-1.17A3.08,3.08,0,0,0,66,41.81a4.09,4.09,0,0,0-2.66-1,3.52,3.52,0,0,0-3.43,2.54L47.71,81.19a3.6,3.6,0,0,0-.21,1.22,3.06,3.06,0,0,0,1.12,2.44,4,4,0,0,0,2.63,1,3.7,3.7,0,0,0,2.12-.63A3.63,3.63,0,0,0,54.74,83.26ZM85.43,57.13a13.65,13.65,0,0,0-5.31.95V51.56H91.7c3.12,0,4.67-1.23,4.67-3.71S94.82,44.2,91.7,44.2H75.07a4.65,4.65,0,0,0-3.38,1.16,4.6,4.6,0,0,0-1.18,3.4V63.12a2.88,2.88,0,0,0,1,2.3,3.71,3.71,0,0,0,2.52.88,5.3,5.3,0,0,0,2.42-.58,19.7,19.7,0,0,1,3.08-1,14.65,14.65,0,0,1,2.93-.26,6.13,6.13,0,0,1,4.18,1.32,4.7,4.7,0,0,1,1.5,3.71,4.59,4.59,0,0,1-1.44,3.74,7,7,0,0,1-4.46,1.19,9,9,0,0,1-3-.48,28.56,28.56,0,0,1-3-1.27l-1.07-.53a15.76,15.76,0,0,0-1.61-.79,3.68,3.68,0,0,0-1.34-.22A2.77,2.77,0,0,0,70,72.31a4.32,4.32,0,0,0-.92,2.79,3.85,3.85,0,0,0,.41,1.82,4.44,4.44,0,0,0,1.26,1.46A17.58,17.58,0,0,0,76.23,81a22.47,22.47,0,0,0,6.52,1,17.61,17.61,0,0,0,7.67-1.59,12.13,12.13,0,0,0,5.15-4.51,12.47,12.47,0,0,0,1.82-6.73,12.62,12.62,0,0,0-1.53-6.28,10.81,10.81,0,0,0-4.24-4.24A12.45,12.45,0,0,0,85.43,57.13Z"/></svg>