<svg id="Layer_1" data-name="Layer 1" xmlns="http://www.w3.org/2000/svg" viewBox="0 0 130 130"><title>l12_4_1</title><path d="M87.14,95.34H14A5.74,5.74,0,0,1,8.29,89.6V44.19A5.74,5.74,0,0,1,14,38.45H87.14a5.74,5.74,0,0,1,5.74,5.74V89.6A5.74,5.74,0,0,1,87.14,95.34ZM39.19,71.21h-1V55A3.79,3.79,0,0,0,37,52a4.34,4.34,0,0,0-3-1.08,4.71,4.71,0,0,0-2,.47,4.18,4.18,0,0,0-1.61,1.37l-13,18.36a5,5,0,0,0-1,3,3.33,3.33,0,0,0,3.55,3.47H30V79a4,4,0,0,0,1.11,3.06,4.17,4.17,0,0,0,2.94,1,4.22,4.22,0,0,0,3-1A3.93,3.93,0,0,0,38.19,79V77.51h1q4,0,4-3.2T39.19,71.21Zm-14.62,0L30,63.42v7.79ZM48.8,84.3,59.15,52.22a5,5,0,0,0,.18-1,2.63,2.63,0,0,0-1-2.12,3.44,3.44,0,0,0-2.26-.81,3,3,0,0,0-2.91,2.16L42.84,82.55a3,3,0,0,0-.18,1,2.58,2.58,0,0,0,1,2.07,3.35,3.35,0,0,0,2.23.81,3.13,3.13,0,0,0,1.8-.54A3,3,0,0,0,48.8,84.3ZM82.42,71.21h-1V55a3.79,3.79,0,0,0-1.23-3,4.34,4.34,0,0,0-3-1.08,4.71,4.71,0,0,0-2,.47,4.28,4.28,0,0,0-1.62,1.37l-13,18.36a5,5,0,0,0-1,3,3.35,3.35,0,0,0,3.56,3.47H73.27V79a4,4,0,0,0,1.11,3.06,4.17,4.17,0,0,0,2.94,1,4.22,4.22,0,0,0,3-1A3.93,3.93,0,0,0,81.42,79V77.51h1c2.64,0,4-1.07,4-3.2S85.06,71.21,82.42,71.21Zm-14.62,0,5.47-7.79v7.79Zm61.79-16.33V78.23a11,11,0,0,1-11,11H102v5.31a9.76,9.76,0,0,1-9.18,9.19H9.57a10.09,10.09,0,0,1-7.15-2.91A10.09,10.09,0,0,1-.43,93.74V39.19A10.72,10.72,0,0,1,3,31.92a10.52,10.52,0,0,1,6.5-2.64h83a9.83,9.83,0,0,1,9.52,9v5.6h16.56A11,11,0,0,1,129.59,54.88ZM96.08,93.82V39.21A4,4,0,0,0,92,35.15H9.39a4.08,4.08,0,0,0-4,4V93.84a4.22,4.22,0,0,0,4,4H92.05a3.7,3.7,0,0,0,4-4Zm25.54-30.88H116V57.4a2.5,2.5,0,0,0-.75-1.85,2.72,2.72,0,0,0-3.75,0,2.5,2.5,0,0,0-.75,1.85v5.54h-5.61a2.57,2.57,0,0,0-1.88.75,2.5,2.5,0,0,0-.75,1.85,2.6,2.6,0,0,0,.75,1.87,2.55,2.55,0,0,0,1.88.77h5.61v5.5a2.52,2.52,0,0,0,.75,1.85,2.6,2.6,0,0,0,1.88.74A2.52,2.52,0,0,0,116,73.68v-5.5h5.62a2.54,2.54,0,0,0,1.87-.77,2.6,2.6,0,0,0,.75-1.87,2.5,2.5,0,0,0-.75-1.85A2.56,2.56,0,0,0,121.62,62.94Z"/></svg>