<svg id="Layer_1" data-name="Layer 1" xmlns="http://www.w3.org/2000/svg" viewBox="0 0 130 130"><title>l12_1_1</title><path d="M99.55,95.66H15.88a5.74,5.74,0,0,1-5.74-5.74V37.42a5.74,5.74,0,0,1,5.74-5.74H99.55a5.74,5.74,0,0,1,5.73,5.74v52.5A5.74,5.74,0,0,1,99.55,95.66Zm5.31-74.3H11.49a11.88,11.88,0,0,0-7.3,3A12,12,0,0,0,.34,32.51V93.86a11.33,11.33,0,0,0,3.21,8,11.35,11.35,0,0,0,8,3.28h93.64a11.28,11.28,0,0,0,7.33-3.4,11.16,11.16,0,0,0,3-6.93v-6h4.75a9.91,9.91,0,0,0,9.35-9.35V46.63a10.31,10.31,0,0,0-8.85-8.85h-5.24V31.47a11,11,0,0,0-10.71-10.11ZM11.38,28h92.93a4.72,4.72,0,0,1,3.48,1.55,4.62,4.62,0,0,1,1.09,3V94a4.17,4.17,0,0,1-4.53,4.53h-93a4.77,4.77,0,0,1-2.94-1.21A4.89,4.89,0,0,1,6.87,94V32.51a4.8,4.8,0,0,1,1.54-3.39A4.69,4.69,0,0,1,11.38,28Zm17,51a9.5,9.5,0,0,0,8.09-3.72q2.81-3.72,2.8-10.76T36.45,53.79a9.51,9.51,0,0,0-8.07-3.72,9.5,9.5,0,0,0-8.1,3.72q-2.79,3.72-2.8,10.72t2.8,10.76A9.5,9.5,0,0,0,28.38,79Zm0-5.56a2.91,2.91,0,0,1-2.8-2.08,19.64,19.64,0,0,1-.85-6.84,19.4,19.4,0,0,1,.85-6.82,2.92,2.92,0,0,1,5.59,0,19.42,19.42,0,0,1,.85,6.8,19.64,19.64,0,0,1-.85,6.84A2.91,2.91,0,0,1,28.38,73.43ZM46,78.87a3.72,3.72,0,0,0,2.77-1.12,4,4,0,0,0,0-5.52A3.72,3.72,0,0,0,46,71.11a3.82,3.82,0,0,0-2.82,1.12,4,4,0,0,0,0,5.52A3.82,3.82,0,0,0,46,78.87Zm25.18-6.08H63.08L68.83,67a19.31,19.31,0,0,0,3.38-4.5,10,10,0,0,0,1-4.46A7.22,7.22,0,0,0,72,53.85a7.8,7.8,0,0,0-3.5-2.8,13.06,13.06,0,0,0-5.26-1,16,16,0,0,0-4.68.72,15.67,15.67,0,0,0-4.27,2,2.61,2.61,0,0,0-1,1A3.3,3.3,0,0,0,53,55.27a3.43,3.43,0,0,0,.69,2.14,2.08,2.08,0,0,0,1.7.9,2.43,2.43,0,0,0,.77-.12,5.25,5.25,0,0,0,.83-.38c.31-.18.52-.29.63-.34l.81-.4a17.4,17.4,0,0,1,2.29-1,6.52,6.52,0,0,1,2.16-.34,3.24,3.24,0,0,1,2.25.72,2.66,2.66,0,0,1,.79,2.08c0,1.54-.89,3.24-2.67,5.08l-8.59,8.84a4.37,4.37,0,0,0-1.37,3.12,3,3,0,0,0,.85,2.18,3.09,3.09,0,0,0,2.3.86H71.21a4.12,4.12,0,0,0,2.66-.72,2.75,2.75,0,0,0,.87-2.24,2.63,2.63,0,0,0-.87-2.18A4.19,4.19,0,0,0,71.21,72.79ZM90,60.19a10.26,10.26,0,0,0-4,.72V56h8.75c2.35,0,3.52-.94,3.52-2.8s-1.17-2.76-3.52-2.76H82.19a3.45,3.45,0,0,0-2.55.88,3.41,3.41,0,0,0-.89,2.56V64.71a2.18,2.18,0,0,0,.76,1.74,2.84,2.84,0,0,0,1.91.66,3.94,3.94,0,0,0,1.82-.44A13.85,13.85,0,0,1,85.57,66a10.64,10.64,0,0,1,2.2-.2,4.59,4.59,0,0,1,3.16,1,3.53,3.53,0,0,1,1.14,2.8A3.44,3.44,0,0,1,91,72.37a5.23,5.23,0,0,1-3.36.9,6.7,6.7,0,0,1-2.24-.36,21.94,21.94,0,0,1-2.29-1l-.81-.4a9.89,9.89,0,0,0-1.22-.6,2.67,2.67,0,0,0-1-.16,2.12,2.12,0,0,0-1.7.86,3.24,3.24,0,0,0-.69,2.1A2.87,2.87,0,0,0,78,75.13a3.52,3.52,0,0,0,1,1.1,13.46,13.46,0,0,0,4.15,2A17,17,0,0,0,88,79a13.32,13.32,0,0,0,5.79-1.2,9.08,9.08,0,0,0,3.88-3.4A9.37,9.37,0,0,0,99,69.27a9.51,9.51,0,0,0-1.15-4.74,8.2,8.2,0,0,0-3.2-3.2A9.46,9.46,0,0,0,90,60.19Z"/></svg>