<svg id="Layer_1" data-name="Layer 1" xmlns="http://www.w3.org/2000/svg" viewBox="0 0 130 130"><title>l12_3_1</title><path d="M99.25,95.59H15.59a5.74,5.74,0,0,1-5.74-5.74V37.35a5.74,5.74,0,0,1,5.74-5.74H99.25A5.74,5.74,0,0,1,105,37.35v52.5A5.74,5.74,0,0,1,99.25,95.59Zm5.32-74.3H11.2a11.89,11.89,0,0,0-7.31,3A12,12,0,0,0,.05,32.45V93.8a11.34,11.34,0,0,0,3.21,8,11.33,11.33,0,0,0,8,3.27h93.64a11,11,0,0,0,10.33-10.33v-6H120a10.23,10.23,0,0,0,6.77-3.23,10,10,0,0,0,2.57-6.12V46.56a10.31,10.31,0,0,0-8.85-8.85h-5.23V31.4a11,11,0,0,0-10.71-10.11ZM11.09,27.9H104a4.48,4.48,0,0,1,4.57,4.56V93.89a4.17,4.17,0,0,1-4.54,4.53h-93A4.75,4.75,0,0,1,6.58,93.9V32.45a4.74,4.74,0,0,1,1.54-3.39A4.69,4.69,0,0,1,11.09,27.9ZM35,68.2h-.89V53.76A3.39,3.39,0,0,0,33,51.08a3.84,3.84,0,0,0-2.63-1,4.09,4.09,0,0,0-1.8.42,3.77,3.77,0,0,0-1.44,1.22L15.51,68.08a4.49,4.49,0,0,0-.89,2.64,3,3,0,0,0,.85,2.2,3.06,3.06,0,0,0,2.31.88h9v1.36a3.53,3.53,0,0,0,1,2.72,3.65,3.65,0,0,0,2.61.92A3.72,3.72,0,0,0,33,77.88a3.47,3.47,0,0,0,1-2.72V73.8H35c2.34,0,3.52-.94,3.52-2.84S37.29,68.2,35,68.2Zm-13,0,4.86-6.92V68.2Zm30.57-8.08a10.22,10.22,0,0,0-4,.72V55.92h8.75c2.34,0,3.52-.93,3.52-2.8s-1.18-2.76-3.52-2.76H44.7a3.52,3.52,0,0,0-2.55.88,3.46,3.46,0,0,0-.89,2.56V64.64A2.19,2.19,0,0,0,42,66.38a2.82,2.82,0,0,0,1.9.66,3.86,3.86,0,0,0,1.83-.44,15.92,15.92,0,0,1,2.32-.72,11.56,11.56,0,0,1,2.21-.2,4.66,4.66,0,0,1,3.16,1,3.53,3.53,0,0,1,1.13,2.8,3.44,3.44,0,0,1-1.09,2.82,5.23,5.23,0,0,1-3.36.9,6.81,6.81,0,0,1-2.25-.36,22.88,22.88,0,0,1-2.29-1l-.81-.4c-.54-.29-.94-.49-1.21-.6a2.93,2.93,0,0,0-1-.16,2.1,2.1,0,0,0-1.7.86,3.28,3.28,0,0,0-.69,2.1,2.93,2.93,0,0,0,.3,1.38,3.56,3.56,0,0,0,1,1.1,13.35,13.35,0,0,0,4.15,2,17.13,17.13,0,0,0,4.92.72,13.25,13.25,0,0,0,5.79-1.2,9,9,0,0,0,3.89-3.4,9.34,9.34,0,0,0,1.38-5.08,9.56,9.56,0,0,0-1.16-4.74,8.18,8.18,0,0,0-3.19-3.2A9.48,9.48,0,0,0,52.52,60.12Zm18.95,7a7.2,7.2,0,0,0,5.59-2.22q2-2.22,2-6.42t-2-6.38a7.2,7.2,0,0,0-5.59-2.22,7.18,7.18,0,0,0-5.59,2.22,9.09,9.09,0,0,0-2,6.34q0,4.2,2,6.44A7.13,7.13,0,0,0,71.47,67.12Zm0-4.32a1.42,1.42,0,0,1-1.36-1,9.3,9.3,0,0,1-.42-3.34,9,9,0,0,1,.42-3.26,1.42,1.42,0,0,1,2.7,0,8.74,8.74,0,0,1,.44,3.26,9,9,0,0,1-.43,3.34A1.4,1.4,0,0,1,71.47,62.8Zm6,14.8L91.39,53.92A3.65,3.65,0,0,0,92,52a2.41,2.41,0,0,0-.71-1.78,2.39,2.39,0,0,0-1.72-.7,2.72,2.72,0,0,0-1.44.44,4.06,4.06,0,0,0-1.24,1.32L73,75a3.68,3.68,0,0,0-.57,1.88,2.35,2.35,0,0,0,.73,1.76,2.33,2.33,0,0,0,1.7.72,2.68,2.68,0,0,0,1.44-.44A3.76,3.76,0,0,0,77.5,77.6Zm15.39,1.24a7.2,7.2,0,0,0,5.59-2.22q2-2.22,2-6.42t-2-6.38a8.15,8.15,0,0,0-11.18,0,9.09,9.09,0,0,0-2,6.34q0,4.2,2,6.44A7.13,7.13,0,0,0,92.89,78.84Zm0-4.32a1.42,1.42,0,0,1-1.36-1,9.3,9.3,0,0,1-.42-3.34,9.23,9.23,0,0,1,.42-3.3,1.41,1.41,0,0,1,2.69,0,8.64,8.64,0,0,1,.45,3.28,9,9,0,0,1-.43,3.34A1.4,1.4,0,0,1,92.89,74.52Z"/></svg>