<svg id="Layer_1" data-name="Layer 1" xmlns="http://www.w3.org/2000/svg" viewBox="0 0 130 130"><title>l12_3_1</title><path d="M99.78,95.15H16.12a5.74,5.74,0,0,1-5.74-5.74V36.91a5.74,5.74,0,0,1,5.74-5.74H99.78a5.74,5.74,0,0,1,5.74,5.74v52.5A5.74,5.74,0,0,1,99.78,95.15Zm5.31-74.3H11.73a11.87,11.87,0,0,0-7.31,3A12,12,0,0,0,.58,32V93.36a11.36,11.36,0,0,0,3.2,8,11.35,11.35,0,0,0,8,3.27h93.65A11,11,0,0,0,115.8,94.27v-6h4.74A9.91,9.91,0,0,0,129.89,79V46.12A10.34,10.34,0,0,0,121,37.27h-5.23V31a11.07,11.07,0,0,0-10.72-10.11Zm-93.48,6.6h92.94A4.68,4.68,0,0,1,108,29a4.53,4.53,0,0,1,1.09,3V93.44A4.3,4.3,0,0,1,108,96.67,4.35,4.35,0,0,1,104.58,98h-93A4.75,4.75,0,0,1,7.1,93.46V32a4.81,4.81,0,0,1,1.55-3.39A4.72,4.72,0,0,1,11.61,27.45ZM45.3,68.17H44.18V50.12a4.23,4.23,0,0,0-1.36-3.35,4.82,4.82,0,0,0-3.29-1.2,5.17,5.17,0,0,0-2.26.53,4.69,4.69,0,0,0-1.79,1.52L21,68a5.55,5.55,0,0,0-1.11,3.3A3.79,3.79,0,0,0,21,74.07a3.84,3.84,0,0,0,2.89,1.1H35.12v1.7a4.44,4.44,0,0,0,1.24,3.4,4.61,4.61,0,0,0,3.27,1.15,4.7,4.7,0,0,0,3.29-1.15,4.38,4.38,0,0,0,1.26-3.4v-1.7H45.3q4.39,0,4.4-3.55T45.3,68.17Zm-16.25,0,6.07-8.65v8.65ZM56,82.72,67.47,47.07a5.73,5.73,0,0,0,.2-1.1,2.89,2.89,0,0,0-1.09-2.35,3.83,3.83,0,0,0-2.51-.9,3.39,3.39,0,0,0-1.94.6,3.35,3.35,0,0,0-1.29,1.8L49.35,80.77a3.21,3.21,0,0,0-.21,1.15,2.89,2.89,0,0,0,1.07,2.3,3.71,3.71,0,0,0,2.48.9,3.49,3.49,0,0,0,2-.6A3.4,3.4,0,0,0,56,82.72Zm29.5-24.8a9.78,9.78,0,0,0-4.27.93,8,8,0,0,0-3.12,2.52A13.26,13.26,0,0,1,80,54.85a4.88,4.88,0,0,1,4.18-2.33,6.8,6.8,0,0,1,2.33.4c.74.27,1.67.67,2.78,1.2l1.11.55c.64.33,1.15.58,1.52.73a3.35,3.35,0,0,0,1.27.22,2.71,2.71,0,0,0,2.15-1.07,4,4,0,0,0,.88-2.63,3.57,3.57,0,0,0-.38-1.75,4.35,4.35,0,0,0-1.23-1.35,16.24,16.24,0,0,0-5.09-2.5,19.93,19.93,0,0,0-5.8-.9,13.85,13.85,0,0,0-7.87,2.25,14.58,14.58,0,0,0-5.21,6.43,24,24,0,0,0-1.85,9.77q0,8.51,3.9,13.1t11,4.6A13.21,13.21,0,0,0,90.14,80a11.16,11.16,0,0,0,4.43-4.32,13.25,13.25,0,0,0,.2-12.2,10.26,10.26,0,0,0-9.29-5.58Zm-2.32,16.6A4.06,4.06,0,0,1,80,73.2a5.51,5.51,0,0,1,0-6.88A4.11,4.11,0,0,1,83.16,65a4,4,0,0,1,3.16,1.28,5.76,5.76,0,0,1,0,6.92A4,4,0,0,1,83.16,74.52Z"/></svg>