<svg id="Layer_1" data-name="Layer 1" xmlns="http://www.w3.org/2000/svg" viewBox="0 0 130 130"><title>l12_2_1</title><path d="M99.55,98.19H15.88a5.74,5.74,0,0,1-5.74-5.74V40a5.74,5.74,0,0,1,5.74-5.74H99.55A5.74,5.74,0,0,1,105.28,40v52.5A5.74,5.74,0,0,1,99.55,98.19Zm5.31-74.3H11.49a11.85,11.85,0,0,0-7.3,3A12,12,0,0,0,.34,35V96.4a11.31,11.31,0,0,0,3.21,8,11.31,11.31,0,0,0,8,3.28h93.64a11,11,0,0,0,10.33-10.33v-6h4.75A9.91,9.91,0,0,0,129.66,82V49.16a10.34,10.34,0,0,0-8.85-8.85h-5.24V34a11,11,0,0,0-10.71-10.11Zm-93.48,6.6h92.93a4.7,4.7,0,0,1,3.48,1.56,4.58,4.58,0,0,1,1.09,3V96.48a4.32,4.32,0,0,1-1.1,3.23,4.37,4.37,0,0,1-3.43,1.31h-93A4.75,4.75,0,0,1,6.87,96.5V35.05a4.61,4.61,0,0,1,4.51-4.56Zm17,51a9.5,9.5,0,0,0,8.09-3.72Q39.3,74.08,39.29,67T36.47,56.32A9.5,9.5,0,0,0,28.4,52.6a9.5,9.5,0,0,0-8.1,3.72Q17.51,60,17.5,67T20.3,77.8A9.5,9.5,0,0,0,28.4,81.52Zm0-5.56a2.9,2.9,0,0,1-2.8-2.08A19.64,19.64,0,0,1,24.75,67a19.43,19.43,0,0,1,.85-6.82,2.92,2.92,0,0,1,5.59,0A19.46,19.46,0,0,1,32,67a19.64,19.64,0,0,1-.85,6.84A2.9,2.9,0,0,1,28.4,76ZM46.05,81.4a3.88,3.88,0,1,0,0-7.76,3.88,3.88,0,1,0,0,7.76ZM69.86,66.64A6.08,6.08,0,0,0,73,64.28a6.88,6.88,0,0,0,1.15-4,6.61,6.61,0,0,0-2.81-5.62A12.79,12.79,0,0,0,63.7,52.6a12.78,12.78,0,0,0-7.65,2.06,6.57,6.57,0,0,0-2.83,5.62,6.73,6.73,0,0,0,1.13,3.9,6.65,6.65,0,0,0,3.24,2.46A6.76,6.76,0,0,0,53.78,69a7,7,0,0,0-1.33,4.38,6.88,6.88,0,0,0,3,5.94q3,2.14,8.24,2.14c3.49,0,6.23-.71,8.24-2.14a7.47,7.47,0,0,0,1.7-10.24A7,7,0,0,0,69.86,66.64ZM63.7,75.92q-4.41,0-4.41-3.12t4.41-3.12q4.42,0,4.42,3.12T63.7,75.92Zm0-17.76a4.36,4.36,0,0,1,2.72.7,2.72,2.72,0,0,1,.89,2.26,2.77,2.77,0,0,1-.89,2.28,4.29,4.29,0,0,1-2.72.72A4.26,4.26,0,0,1,61,63.4a2.77,2.77,0,0,1-.89-2.28A2.72,2.72,0,0,1,61,58.86,4.33,4.33,0,0,1,63.7,58.16ZM90,62.72a10.26,10.26,0,0,0-4,.72V58.52h8.75q3.52,0,3.52-2.8T94.72,53H82.17a3.1,3.1,0,0,0-3.44,3.44V67.24A2.18,2.18,0,0,0,79.49,69a2.84,2.84,0,0,0,1.91.66,3.94,3.94,0,0,0,1.82-.44,13.85,13.85,0,0,1,2.33-.72,11.45,11.45,0,0,1,2.2-.2,4.59,4.59,0,0,1,3.16,1,3.53,3.53,0,0,1,1.14,2.8A3.44,3.44,0,0,1,91,74.9a5.23,5.23,0,0,1-3.36.9,6.7,6.7,0,0,1-2.24-.36,21.94,21.94,0,0,1-2.29-1l-.81-.4c-.54-.29-1-.49-1.22-.6a2.67,2.67,0,0,0-1-.16,2.12,2.12,0,0,0-1.7.86,3.24,3.24,0,0,0-.69,2.1,2.87,2.87,0,0,0,.31,1.38,3.41,3.41,0,0,0,1,1.1,13.46,13.46,0,0,0,4.15,2,17,17,0,0,0,4.92.72,13.32,13.32,0,0,0,5.79-1.2,9,9,0,0,0,3.88-3.4A9.37,9.37,0,0,0,99,71.8a9.51,9.51,0,0,0-1.15-4.74,8.2,8.2,0,0,0-3.2-3.2A9.46,9.46,0,0,0,90,62.72Z"/></svg>