<svg id="Layer_1" data-name="Layer 1" xmlns="http://www.w3.org/2000/svg" viewBox="0 0 130 130"><title>l12_4_1</title><path d="M87.58,99.7H14.46A5.73,5.73,0,0,1,8.72,94V48.56a5.74,5.74,0,0,1,5.74-5.74H87.58a5.74,5.74,0,0,1,5.74,5.74V94A5.73,5.73,0,0,1,87.58,99.7Zm-48.09-19H35.76V59.33a3.87,3.87,0,0,0-1.12-2.93,4,4,0,0,0-2.94-1.08,7.8,7.8,0,0,0-3.78,1.13l-7.29,4.18A3.05,3.05,0,0,0,19,63.42,3.77,3.77,0,0,0,20,65.88,2.77,2.77,0,0,0,22.14,67a3.15,3.15,0,0,0,1.59-.45l3.65-2.12V80.66H23.69a4.61,4.61,0,0,0-3,.81,3,3,0,0,0-1,2.43q0,3.33,4,3.33h15.8c2.64,0,4-1.11,4-3.33a3,3,0,0,0-1-2.43A4.61,4.61,0,0,0,39.49,80.66Zm9.75,8L59.58,56.58a5,5,0,0,0,.18-1,2.58,2.58,0,0,0-1-2.11,3.42,3.42,0,0,0-2.25-.81,3,3,0,0,0-2.92,2.16L43.27,86.91a3,3,0,0,0-.18,1,2.59,2.59,0,0,0,1,2.07,3.35,3.35,0,0,0,2.23.81,3.13,3.13,0,0,0,1.8-.54A3,3,0,0,0,49.24,88.67ZM80,70.89a6.8,6.8,0,0,0,3.57-2.65,7.72,7.72,0,0,0,1.3-4.5,7.4,7.4,0,0,0-3.16-6.32c-2.12-1.55-5-2.32-8.64-2.32s-6.48.77-8.6,2.32a7.38,7.38,0,0,0-3.19,6.32,7.61,7.61,0,0,0,1.27,4.39,7.51,7.51,0,0,0,3.65,2.76,7.65,7.65,0,0,0-4.29,2.68,7.88,7.88,0,0,0-1.5,4.93,7.73,7.73,0,0,0,3.39,6.68q3.41,2.41,9.27,2.41t9.27-2.41a7.72,7.72,0,0,0,3.4-6.68,7.85,7.85,0,0,0-1.48-4.84A8,8,0,0,0,80,70.89ZM73.06,81.33q-5,0-5-3.51t5-3.51q5,0,5,3.51T73.06,81.33Zm0-20a5,5,0,0,1,3.06.79,3.06,3.06,0,0,1,1,2.54,3.14,3.14,0,0,1-1,2.57,6.17,6.17,0,0,1-6.11,0,3.11,3.11,0,0,1-1-2.57,3,3,0,0,1,1-2.54A4.94,4.94,0,0,1,73.06,61.35Zm57-2.11V82.59a11,11,0,0,1-11,11H102.46v5.31a9.8,9.8,0,0,1-9.19,9.19H10a10.09,10.09,0,0,1-7.15-2.92A10.06,10.06,0,0,1,0,98.11V43.56a10.63,10.63,0,0,1,3.42-7.27,10.55,10.55,0,0,1,6.49-2.65h83a9.85,9.85,0,0,1,9.53,9v5.61H119A11,11,0,0,1,130,59.24ZM96.51,98.19V43.57a4.06,4.06,0,0,0-1-2.68,4.19,4.19,0,0,0-3.09-1.38H9.82a4.16,4.16,0,0,0-2.63,1,4.3,4.3,0,0,0-1.38,3V98.2a4.4,4.4,0,0,0,1.4,2.94,4.28,4.28,0,0,0,2.61,1.08H92.48a3.91,3.91,0,0,0,3.06-1.17A3.8,3.8,0,0,0,96.51,98.19Zm25.54-30.28h-5.61V62.37a2.47,2.47,0,0,0-.76-1.85,2.71,2.71,0,0,0-3.74,0,2.47,2.47,0,0,0-.76,1.85v5.54h-5.61a2.55,2.55,0,0,0-1.87.75,2.47,2.47,0,0,0-.76,1.84,2.53,2.53,0,0,0,.76,1.87,2.49,2.49,0,0,0,1.87.77h5.61v5.5a2.47,2.47,0,0,0,.76,1.85,2.62,2.62,0,0,0,4.5-1.85v-5.5h5.61a2.49,2.49,0,0,0,1.87-.77,2.53,2.53,0,0,0,.76-1.87,2.47,2.47,0,0,0-.76-1.84A2.55,2.55,0,0,0,122.05,67.91Z"/></svg>