<svg id="Layer_1" data-name="Layer 1" xmlns="http://www.w3.org/2000/svg" viewBox="0 0 130 130"><title>l12_5_1</title><path d="M87.43,93H14.31a5.74,5.74,0,0,1-5.74-5.74V41.83a5.74,5.74,0,0,1,5.74-5.74H87.43a5.74,5.74,0,0,1,5.73,5.74V87.24A5.74,5.74,0,0,1,87.43,93Zm-49.3-19H29l6.46-6.52a21,21,0,0,0,3.81-5.07,11.23,11.23,0,0,0,1.11-5A8.25,8.25,0,0,0,39,52.62,8.93,8.93,0,0,0,35,49.47a14.89,14.89,0,0,0-5.92-1.1,18,18,0,0,0-5.26.81,17.66,17.66,0,0,0-4.8,2.25,3,3,0,0,0-1.12,1.17,3.78,3.78,0,0,0-.3,1.62,3.85,3.85,0,0,0,.78,2.41,2.33,2.33,0,0,0,1.91,1,2.82,2.82,0,0,0,.87-.13,6.09,6.09,0,0,0,.93-.43c.35-.2.58-.32.71-.38l.91-.45a23.45,23.45,0,0,1,2.57-1.11,7.66,7.66,0,0,1,2.44-.38,3.64,3.64,0,0,1,2.53.81,3,3,0,0,1,.88,2.34q0,2.61-3,5.72L19.5,73.57A4.91,4.91,0,0,0,18,77.08a3.32,3.32,0,0,0,1,2.45,3.47,3.47,0,0,0,2.6,1H38.13a4.64,4.64,0,0,0,3-.81,3.09,3.09,0,0,0,1-2.52,3,3,0,0,0-1-2.45A4.7,4.7,0,0,0,38.13,73.93Zm11,8L59.45,49.86a5,5,0,0,0,.18-1,2.6,2.6,0,0,0-1-2.12,3.42,3.42,0,0,0-2.25-.81,3,3,0,0,0-2.92,2.16L43.14,80.19a3,3,0,0,0-.18,1,2.59,2.59,0,0,0,1,2.07,3.35,3.35,0,0,0,2.23.81,3.13,3.13,0,0,0,1.8-.54A3,3,0,0,0,49.11,81.94ZM82.73,68.85h-1V52.6a3.79,3.79,0,0,0-1.23-3,4.35,4.35,0,0,0-3-1.08,4.53,4.53,0,0,0-2,.47,4.13,4.13,0,0,0-1.62,1.37l-13,18.36a5,5,0,0,0-1,3,3.34,3.34,0,0,0,3.55,3.47H73.57v1.53a4,4,0,0,0,1.12,3.06,4.14,4.14,0,0,0,2.94,1,4.24,4.24,0,0,0,3-1,3.93,3.93,0,0,0,1.14-3.06V75.15h1q4,0,4-3.2T82.73,68.85Zm-14.62,0,5.46-7.79v7.79Zm61.76-16.34V75.86a11,11,0,0,1-11,11H102.3v5.31a9.76,9.76,0,0,1-9.18,9.19H9.85a10.1,10.1,0,0,1-7.14-2.91A10,10,0,0,1-.14,91.38V36.83a10.64,10.64,0,0,1,3.41-7.27,10.46,10.46,0,0,1,6.5-2.64h83a9.83,9.83,0,0,1,9.52,9v5.61h16.56A11,11,0,0,1,129.87,52.51ZM96.36,91.46V36.84a4.12,4.12,0,0,0-1-2.68,4.19,4.19,0,0,0-3.09-1.38H9.67a4.1,4.1,0,0,0-4,4V91.48a4.24,4.24,0,0,0,4,4H92.33a3.87,3.87,0,0,0,3.06-1.17A3.8,3.8,0,0,0,96.36,91.46Zm11.78-22.55h11a5.38,5.38,0,0,0,3.67-1.08,3.79,3.79,0,0,0,1.2-3,3.7,3.7,0,0,0-1.2-3,5.49,5.49,0,0,0-3.67-1h-11q-4.87,0-4.87,4C103.27,67.55,104.89,68.91,108.14,68.91Z"/></svg>