<svg id="Layer_1" data-name="Layer 1" xmlns="http://www.w3.org/2000/svg" viewBox="0 0 130 130"><title>l12_1_1</title><path d="M99.55,98.34H15.88a5.74,5.74,0,0,1-5.74-5.74V40.1a5.74,5.74,0,0,1,5.74-5.74H99.55a5.74,5.74,0,0,1,5.73,5.74V92.6A5.74,5.74,0,0,1,99.55,98.34ZM104.86,24H11.49a11.85,11.85,0,0,0-7.3,3A12,12,0,0,0,.34,35.19V96.55a11.34,11.34,0,0,0,3.21,8,11.33,11.33,0,0,0,8,3.27h93.64a11,11,0,0,0,10.33-10.33v-6h4.75a10.24,10.24,0,0,0,6.78-3.23,10.11,10.11,0,0,0,2.57-6.12V49.31a10.34,10.34,0,0,0-8.85-8.85h-5.24V34.15A11,11,0,0,0,104.86,24ZM11.38,30.65h92.93a4.64,4.64,0,0,1,3.48,1.55,4.58,4.58,0,0,1,1.09,3V96.64a4.17,4.17,0,0,1-4.53,4.53h-93a4.75,4.75,0,0,1-4.51-4.52V35.2a4.78,4.78,0,0,1,1.54-3.39A4.69,4.69,0,0,1,11.38,30.65ZM44.09,76.57h-4.4V51.45A4.54,4.54,0,0,0,38.37,48a4.75,4.75,0,0,0-3.46-1.28,9.19,9.19,0,0,0-4.45,1.33L21.88,53A3.58,3.58,0,0,0,20,56.27a4.44,4.44,0,0,0,1.07,2.89,3.23,3.23,0,0,0,2.58,1.3,3.59,3.59,0,0,0,1.87-.53l4.3-2.49V76.57H25.47a5.39,5.39,0,0,0-3.54,1,3.54,3.54,0,0,0-1.13,2.86q0,3.92,4.67,3.92H44.09q4.66,0,4.66-3.92a3.53,3.53,0,0,0-1.12-2.86A5.39,5.39,0,0,0,44.09,76.57ZM55.57,86,67.75,48.22A6,6,0,0,0,68,47.05a3.08,3.08,0,0,0-1.15-2.49,4.09,4.09,0,0,0-2.66-1,3.52,3.52,0,0,0-3.43,2.54L48.54,83.94a3.6,3.6,0,0,0-.21,1.22,3.06,3.06,0,0,0,1.12,2.44,4,4,0,0,0,2.63,1,3.72,3.72,0,0,0,2.12-.63A3.63,3.63,0,0,0,55.57,86Zm38-9.44H82.82l7.62-7.68a25,25,0,0,0,4.48-6A13.21,13.21,0,0,0,96.24,57a9.64,9.64,0,0,0-1.64-5.54A10.4,10.4,0,0,0,90,47.77a17.39,17.39,0,0,0-7-1.3,21.41,21.41,0,0,0-6.19,1,21,21,0,0,0-5.66,2.65,3.63,3.63,0,0,0-1.32,1.38,5,5,0,0,0,.57,4.75,2.73,2.73,0,0,0,2.25,1.19,3.4,3.4,0,0,0,1-.16,6.09,6.09,0,0,0,1.1-.51l.83-.45,1.07-.53a27.74,27.74,0,0,1,3-1.29A8.86,8.86,0,0,1,82.55,54a4.23,4.23,0,0,1,3,1,3.54,3.54,0,0,1,1,2.76c0,2-1.18,4.29-3.54,6.73L71.66,76.15a5.79,5.79,0,0,0-1.82,4.13A3.9,3.9,0,0,0,71,83.17a4.1,4.1,0,0,0,3,1.14H93.61a5.47,5.47,0,0,0,3.51-1,3.64,3.64,0,0,0,1.15-3,3.48,3.48,0,0,0-1.15-2.89A5.53,5.53,0,0,0,93.61,76.57Z"/></svg>