<svg id="Layer_1" data-name="Layer 1" xmlns="http://www.w3.org/2000/svg" viewBox="0 0 130 130"><title>l12_5_1</title><path d="M87.42,95.44H14.3a5.73,5.73,0,0,1-5.74-5.73V44.3a5.74,5.74,0,0,1,5.74-5.74H87.42a5.73,5.73,0,0,1,5.73,5.74V89.71A5.72,5.72,0,0,1,87.42,95.44Zm-52-28.81a7.35,7.35,0,0,0,3.62-2.72,7.44,7.44,0,0,0,1.3-4.34A7.83,7.83,0,0,0,39,55a8.94,8.94,0,0,0-4-3.06,15.29,15.29,0,0,0-6-1.08,18.51,18.51,0,0,0-5.4.81,15.18,15.18,0,0,0-4.62,2.25A3.55,3.55,0,0,0,18,55.11a3.4,3.4,0,0,0-.32,1.58,3.62,3.62,0,0,0,.77,2.36,2.36,2.36,0,0,0,1.91,1,3.09,3.09,0,0,0,1.14-.2c.34-.14.79-.36,1.37-.66l1-.45a24,24,0,0,1,2.48-1.08,6.93,6.93,0,0,1,2.39-.4,4,4,0,0,1,2.78.92,3.35,3.35,0,0,1,1,2.59A2.5,2.5,0,0,1,31.31,63a7,7,0,0,1-3.64.72h-2a2.62,2.62,0,0,0-2.14,1,3.67,3.67,0,0,0,0,4.5,2.62,2.62,0,0,0,2.14.94h2.83a6.9,6.9,0,0,1,3.73.77,2.81,2.81,0,0,1,1.14,2.52,3.12,3.12,0,0,1-1.11,2.7,6.41,6.41,0,0,1-3.67.81A8.5,8.5,0,0,1,26,76.56a21.58,21.58,0,0,1-2.62-1.11l-.57-.24L22.34,75c-.58-.3-1-.51-1.37-.65a3.09,3.09,0,0,0-1.14-.2,2.35,2.35,0,0,0-1.91,1,3.62,3.62,0,0,0-.77,2.36A3.38,3.38,0,0,0,17.47,79a3.45,3.45,0,0,0,1.09,1.24,14.49,14.49,0,0,0,4.74,2.27,20.26,20.26,0,0,0,5.69.79,17.42,17.42,0,0,0,6.45-1.1,9.61,9.61,0,0,0,4.25-3.13,7.74,7.74,0,0,0,1.51-4.77,7.92,7.92,0,0,0-1.53-4.91A7.76,7.76,0,0,0,35.46,66.63ZM49.08,84.41,59.42,52.32a5,5,0,0,0,.18-1,2.61,2.61,0,0,0-1-2.11,3.42,3.42,0,0,0-2.25-.81,3,3,0,0,0-2.92,2.16L43.11,82.65a3,3,0,0,0-.18,1,2.59,2.59,0,0,0,1,2.07,3.33,3.33,0,0,0,2.23.81,3.17,3.17,0,0,0,1.8-.54A3.1,3.1,0,0,0,49.08,84.41Zm33-33.17H64.25a4.49,4.49,0,0,0-3,.84,3.1,3.1,0,0,0-1,2.49A3,3,0,0,0,61.22,57a4.58,4.58,0,0,0,3,.81H75.64L63.93,77.57a4.17,4.17,0,0,0-.64,2.16,3.3,3.3,0,0,0,1.23,2.59,4.22,4.22,0,0,0,2.82,1.05,4,4,0,0,0,1.94-.51,4.24,4.24,0,0,0,1.57-1.6l13.8-23.63a5.67,5.67,0,0,0,.87-3,3.5,3.5,0,0,0-.89-2.45A3.27,3.27,0,0,0,82.1,51.24ZM129.86,55V78.33a11,11,0,0,1-11,11H102.29v5.31a9.89,9.89,0,0,1-2.67,6.16,10,10,0,0,1-6.51,3H9.85a10.09,10.09,0,0,1-7.15-2.92A10.06,10.06,0,0,1-.15,93.85V39.3A10.61,10.61,0,0,1,3.26,32a10.58,10.58,0,0,1,6.5-2.65h83a9.83,9.83,0,0,1,9.52,9V44h16.56A11,11,0,0,1,129.86,55Zm-33.51,39V39.31a4.1,4.1,0,0,0-1-2.68,4.19,4.19,0,0,0-3.09-1.38H9.66a4.2,4.2,0,0,0-2.64,1,4.23,4.23,0,0,0-1.37,3V93.94a4.35,4.35,0,0,0,1.4,2.94A4.25,4.25,0,0,0,9.66,98H92.32a3.85,3.85,0,0,0,3.06-1.16A3.8,3.8,0,0,0,96.35,93.93Zm11.78-22.56h11a5.38,5.38,0,0,0,3.67-1.07,3.79,3.79,0,0,0,1.2-3,3.69,3.69,0,0,0-1.2-3,5.49,5.49,0,0,0-3.67-1h-11c-3.25,0-4.87,1.34-4.87,4S104.88,71.37,108.13,71.37Z"/></svg>