<svg id="Layer_1" data-name="Layer 1" xmlns="http://www.w3.org/2000/svg" viewBox="0 0 130 130"><title>l12_4_1</title><path d="M87.56,94.49H14.44a5.73,5.73,0,0,1-5.73-5.74V43.34a5.73,5.73,0,0,1,5.73-5.74H87.56a5.74,5.74,0,0,1,5.74,5.74V88.75A5.74,5.74,0,0,1,87.56,94.49Zm-48.11-19H35.72V54.11a3.85,3.85,0,0,0-1.12-2.92,4,4,0,0,0-2.94-1.08,7.78,7.78,0,0,0-3.78,1.12l-7.29,4.19A3.05,3.05,0,0,0,19,58.21a3.73,3.73,0,0,0,.91,2.45,2.77,2.77,0,0,0,2.19,1.1,3.15,3.15,0,0,0,1.59-.45l3.65-2.11V75.44H23.65a4.61,4.61,0,0,0-3,.81,3,3,0,0,0-1,2.43q0,3.33,4,3.33h15.8c2.64,0,4-1.11,4-3.33a3,3,0,0,0-1-2.43A4.61,4.61,0,0,0,39.45,75.44Zm9.75,8L59.54,51.37a5,5,0,0,0,.18-1,2.6,2.6,0,0,0-1-2.12,3.42,3.42,0,0,0-2.25-.81,3,3,0,0,0-2.92,2.16L43.23,81.7a3,3,0,0,0-.18,1,2.59,2.59,0,0,0,1,2.07,3.35,3.35,0,0,0,2.23.81,3.13,3.13,0,0,0,1.8-.54A3,3,0,0,0,49.2,83.45Zm32.3-8H72.34l6.47-6.52a20.91,20.91,0,0,0,3.8-5.07,11.1,11.1,0,0,0,1.12-5,8.18,8.18,0,0,0-1.39-4.71A9,9,0,0,0,78.4,51a14.92,14.92,0,0,0-5.92-1.1,18.73,18.73,0,0,0-10.07,3.06,3,3,0,0,0-1.12,1.17A4,4,0,0,0,61,55.73a3.9,3.9,0,0,0,.77,2.41,2.36,2.36,0,0,0,1.92,1,2.71,2.71,0,0,0,.86-.13,5,5,0,0,0,.94-.43c.34-.2.58-.32.7-.38l.91-.45a22.72,22.72,0,0,1,2.58-1.11,7.55,7.55,0,0,1,2.43-.38,3.61,3.61,0,0,1,2.53.81,3,3,0,0,1,.89,2.34q0,2.61-3,5.72l-9.65,9.94a4.87,4.87,0,0,0-1.55,3.51,3.36,3.36,0,0,0,1,2.45,3.49,3.49,0,0,0,2.6,1H81.5a4.61,4.61,0,0,0,3-.81,3.09,3.09,0,0,0,1-2.52,3,3,0,0,0-1-2.45A4.74,4.74,0,0,0,81.5,75.44ZM130,54V77.38a11,11,0,0,1-11,11H102.44V93.7a9.76,9.76,0,0,1-9.19,9.19H10A10.11,10.11,0,0,1,2.84,100,10.09,10.09,0,0,1,0,92.89V38.34a10.72,10.72,0,0,1,3.42-7.27,10.52,10.52,0,0,1,6.5-2.64h83a9.83,9.83,0,0,1,9.53,9V43H119A11,11,0,0,1,130,54ZM96.5,93V38.35a4,4,0,0,0-4.06-4.05H9.81a4.12,4.12,0,0,0-2.64,1,4.27,4.27,0,0,0-1.38,3V93a4.38,4.38,0,0,0,1.4,2.93A4.28,4.28,0,0,0,9.81,97H92.47a3.7,3.7,0,0,0,4-4ZM122,62.69h-5.61V57.15a2.47,2.47,0,0,0-.76-1.85,2.71,2.71,0,0,0-3.74,0,2.5,2.5,0,0,0-.75,1.85v5.54h-5.62a2.56,2.56,0,0,0-1.87.75,2.51,2.51,0,0,0-.76,1.85,2.61,2.61,0,0,0,.76,1.87,2.54,2.54,0,0,0,1.87.77h5.62v5.5a2.52,2.52,0,0,0,.75,1.85,2.77,2.77,0,0,0,3.77,0,2.54,2.54,0,0,0,.73-1.85v-5.5H122a2.53,2.53,0,0,0,1.87-.77,2.57,2.57,0,0,0,.76-1.87,2.47,2.47,0,0,0-.76-1.85A2.55,2.55,0,0,0,122,62.69Z"/></svg>