<svg id="Layer_1" data-name="Layer 1" xmlns="http://www.w3.org/2000/svg" viewBox="0 0 130 130"><title>l12_1_1</title><path d="M99.22,97.43H15.56a5.74,5.74,0,0,1-5.74-5.74V39.19a5.74,5.74,0,0,1,5.74-5.74H99.22A5.74,5.74,0,0,1,105,39.19v52.5A5.74,5.74,0,0,1,99.22,97.43Zm5.32-74.31H11.17a11.86,11.86,0,0,0-7.31,3A12,12,0,0,0,0,34.28V95.63a11.34,11.34,0,0,0,3.21,8,11.35,11.35,0,0,0,8,3.28h93.64a11,11,0,0,0,10.33-10.34v-6H120a10.26,10.26,0,0,0,6.78-3.22,10.13,10.13,0,0,0,2.57-6.13V48.4a10.33,10.33,0,0,0-8.86-8.86h-5.23v-6.3a11.07,11.07,0,0,0-10.71-10.12ZM11.06,29.73H104a4.72,4.72,0,0,1,3.48,1.55,4.66,4.66,0,0,1,1.09,3V95.72a4.17,4.17,0,0,1-4.53,4.53h-93A4.84,4.84,0,0,1,8.12,99a4.91,4.91,0,0,1-1.57-3.3V34.28a4.75,4.75,0,0,1,1.54-3.39A4.69,4.69,0,0,1,11.06,29.73Zm17,51A9.48,9.48,0,0,0,36.17,77Q39,73.33,39,66.28T36.15,55.56a9.48,9.48,0,0,0-8.07-3.72A9.48,9.48,0,0,0,20,55.56q-2.81,3.7-2.8,10.72T20,77A9.48,9.48,0,0,0,28.08,80.76Zm0-5.57a2.9,2.9,0,0,1-2.8-2.08,19.54,19.54,0,0,1-.85-6.83,19.5,19.5,0,0,1,.85-6.83,2.92,2.92,0,0,1,5.59,0,19.42,19.42,0,0,1,.85,6.8,19.54,19.54,0,0,1-.85,6.83A2.9,2.9,0,0,1,28.08,75.19Zm17.65,5.45a3.88,3.88,0,1,0,0-7.76A3.84,3.84,0,0,0,42.91,74a4,4,0,0,0,0,5.53A3.84,3.84,0,0,0,45.73,80.64ZM71.56,52.19H55.69a3.94,3.94,0,0,0-2.67.75,2.76,2.76,0,0,0-.85,2.21A2.71,2.71,0,0,0,53,57.32a4.07,4.07,0,0,0,2.69.71H65.81L55.41,75.6a3.73,3.73,0,0,0-.57,1.92,2.93,2.93,0,0,0,1.09,2.3,3.78,3.78,0,0,0,2.51.94,3.55,3.55,0,0,0,1.72-.46,3.74,3.74,0,0,0,1.4-1.42l12.27-21a5.12,5.12,0,0,0,.77-2.64,3.08,3.08,0,0,0-.79-2.18A2.89,2.89,0,0,0,71.56,52.19ZM89.66,62a10.07,10.07,0,0,0-4,.73V57.76H94.4q3.52,0,3.52-2.81T94.4,52.19H81.84a3.52,3.52,0,0,0-2.55.88,3.49,3.49,0,0,0-.89,2.57V66.48a2.2,2.2,0,0,0,.77,1.74,2.88,2.88,0,0,0,1.91.66,4,4,0,0,0,1.82-.44,13.58,13.58,0,0,1,2.33-.72,10.64,10.64,0,0,1,2.2-.2,4.59,4.59,0,0,1,3.16,1,3.5,3.5,0,0,1,1.13,2.8,3.45,3.45,0,0,1-1.09,2.82,5.23,5.23,0,0,1-3.36.89A7.07,7.07,0,0,1,85,74.68c-.68-.24-1.45-.57-2.28-1l-.81-.4a9.89,9.89,0,0,0-1.22-.6,2.71,2.71,0,0,0-1-.16,2.09,2.09,0,0,0-1.7.85,3.28,3.28,0,0,0-.69,2.11,3,3,0,0,0,.3,1.38,3.56,3.56,0,0,0,1,1.09,13,13,0,0,0,4.15,2,16.69,16.69,0,0,0,4.91.73,13.33,13.33,0,0,0,5.8-1.2,9.09,9.09,0,0,0,3.88-3.41A9.34,9.34,0,0,0,98.69,71a9.6,9.6,0,0,0-1.15-4.73,8.14,8.14,0,0,0-3.2-3.2A9.49,9.49,0,0,0,89.66,62Z"/></svg>