<svg id="Layer_1" data-name="Layer 1" xmlns="http://www.w3.org/2000/svg" viewBox="0 0 130 130"><title>l12_5_1</title><path d="M88.64,97.16H15.52a5.74,5.74,0,0,1-5.74-5.74V46a5.74,5.74,0,0,1,5.74-5.74H88.64A5.73,5.73,0,0,1,94.37,46V91.42A5.73,5.73,0,0,1,88.64,97.16ZM23.92,57.69a9.25,9.25,0,0,0-4.5,1.09,7.73,7.73,0,0,0-3.1,3A8.59,8.59,0,0,0,15.2,66.2a8.73,8.73,0,0,0,1,4.15,7.35,7.35,0,0,0,2.68,2.87,7.21,7.21,0,0,0,3.83,1,6.92,6.92,0,0,0,3-.65,5.68,5.68,0,0,0,2.18-1.76,9.2,9.2,0,0,1-1.33,4.56A3.39,3.39,0,0,1,23.6,78,4.69,4.69,0,0,1,22,77.75q-.78-.28-1.95-.84l-.78-.39c-.45-.23-.8-.4-1.06-.5a2.28,2.28,0,0,0-.89-.16,1.91,1.91,0,0,0-1.51.75,2.82,2.82,0,0,0-.62,1.84,2.48,2.48,0,0,0,.27,1.22,3,3,0,0,0,.87,1,11.27,11.27,0,0,0,3.56,1.75,13.88,13.88,0,0,0,4.06.63,9.71,9.71,0,0,0,5.51-1.58,10.1,10.1,0,0,0,3.64-4.49,16.66,16.66,0,0,0,1.3-6.84q0-6-2.73-9.17A9.56,9.56,0,0,0,23.92,57.69Zm.39,11.59a2.83,2.83,0,0,1-2.22-.89,3.55,3.55,0,0,1-.8-2.44,3.5,3.5,0,0,1,.82-2.41,2.78,2.78,0,0,1,2.2-.91,2.83,2.83,0,0,1,2.19.93A3.38,3.38,0,0,1,27.35,66a3.47,3.47,0,0,1-.83,2.42A2.84,2.84,0,0,1,24.31,69.28ZM46.06,83a8.31,8.31,0,0,0,7.09-3.26c1.62-2.17,2.44-5.3,2.44-9.41s-.82-7.21-2.46-9.38a8.34,8.34,0,0,0-7.07-3.26A8.32,8.32,0,0,0,39,61q-2.44,3.25-2.44,9.38c0,4.11.81,7.24,2.44,9.41A8.3,8.3,0,0,0,46.06,83Zm0-4.87a2.54,2.54,0,0,1-2.45-1.82,17.34,17.34,0,0,1-.74-6,17.23,17.23,0,0,1,.74-6,2.56,2.56,0,0,1,4.89,0,17,17,0,0,1,.75,6,17,17,0,0,1-.75,6A2.52,2.52,0,0,1,46.06,78.13Zm18.32-5.46a6.29,6.29,0,0,0,4.89-1.94A8.06,8.06,0,0,0,71,65.11a8,8,0,0,0-1.77-5.58,6.33,6.33,0,0,0-4.89-1.94,6.3,6.3,0,0,0-4.89,1.94,8,8,0,0,0-1.77,5.55,8.1,8.1,0,0,0,1.77,5.63A6.24,6.24,0,0,0,64.38,72.67Zm0-3.78A1.23,1.23,0,0,1,63.19,68a8.07,8.07,0,0,1-.37-2.93,7.75,7.75,0,0,1,.37-2.85,1.24,1.24,0,0,1,1.19-.86,1.26,1.26,0,0,1,1.17.86,7.45,7.45,0,0,1,.39,2.85A8,8,0,0,1,65.56,68,1.22,1.22,0,0,1,64.38,68.89Zm5.28,13L81.81,61.13a3.26,3.26,0,0,0,.49-1.65,2.08,2.08,0,0,0-.62-1.56,2,2,0,0,0-1.5-.61,2.4,2.4,0,0,0-1.26.38,3.47,3.47,0,0,0-1.08,1.16L65.69,79.57a3.24,3.24,0,0,0-.5,1.64,2.15,2.15,0,0,0,2.13,2.17A2.3,2.3,0,0,0,68.57,83,3.31,3.31,0,0,0,69.66,81.84Zm13.46,1.09A6.3,6.3,0,0,0,88,81a8.08,8.08,0,0,0,1.77-5.62A8,8,0,0,0,88,69.79a7.11,7.11,0,0,0-9.78,0,7.94,7.94,0,0,0-1.77,5.55A8.14,8.14,0,0,0,78.23,81,6.24,6.24,0,0,0,83.12,82.93Zm0-3.78a1.24,1.24,0,0,1-1.19-.86,8,8,0,0,1-.37-2.92,7.93,7.93,0,0,1,.37-2.89,1.23,1.23,0,0,1,1.19-.85,1.25,1.25,0,0,1,1.17.87,7.61,7.61,0,0,1,.39,2.87,8.23,8.23,0,0,1-.37,2.92A1.25,1.25,0,0,1,83.12,79.15Zm48-22.45V80.05a11,11,0,0,1-11,11H103.51v5.32a9.76,9.76,0,0,1-9.18,9.18H11.07a10.06,10.06,0,0,1-7.15-2.91,10.09,10.09,0,0,1-2.85-7.09V41a10.64,10.64,0,0,1,3.41-7.27A10.54,10.54,0,0,1,11,31.1H94a10.06,10.06,0,0,1,6.4,2.61,10,10,0,0,1,3.12,6.39v5.6h16.56A11,11,0,0,1,131.08,56.7ZM97.57,95.64V41a4.09,4.09,0,0,0-1-2.68A4.15,4.15,0,0,0,93.51,37H10.88a4.08,4.08,0,0,0-4,4V95.66a4.37,4.37,0,0,0,1.4,2.94,4.32,4.32,0,0,0,2.61,1.07H93.54a3.89,3.89,0,0,0,3.06-1.16A3.82,3.82,0,0,0,97.57,95.64Zm11.78-22.55h11A5.43,5.43,0,0,0,124.06,72a3.81,3.81,0,0,0,1.2-3,3.71,3.71,0,0,0-1.2-3,5.54,5.54,0,0,0-3.67-1h-11q-4.87,0-4.87,4T109.35,73.09Z"/></svg>