<svg id="Layer_1" data-name="Layer 1" xmlns="http://www.w3.org/2000/svg" viewBox="0 0 180 130"><title>s12_1</title><path d="M154.1,13.34a15.47,15.47,0,0,1,4.83,9.86v8.65h7.18A14.17,14.17,0,0,1,178.26,44V89.06a13.83,13.83,0,0,1-3.53,8.4,14,14,0,0,1-9.3,4.43h-6.52v8.2a15.1,15.1,0,0,1-14.18,14.18H16.2a15.54,15.54,0,0,1-11-4.5,15.58,15.58,0,0,1-4.4-10.93V24.62A16.46,16.46,0,0,1,6,13.4a16.29,16.29,0,0,1,10-4.08H144.22A15.47,15.47,0,0,1,154.1,13.34ZM11.84,20a6.58,6.58,0,0,0-2.12,4.66V109a6.53,6.53,0,0,0,6.19,6.2H143.52a6,6,0,0,0,4.71-1.8,5.91,5.91,0,0,0,1.51-4.42V24.65a6.37,6.37,0,0,0-1.5-4.14,6.47,6.47,0,0,0-4.77-2.13H15.91A6.46,6.46,0,0,0,11.84,20Z"/><path d="M137.63,109.54h-116a5.74,5.74,0,0,1-5.74-5.74V31.71A5.74,5.74,0,0,1,21.67,26h116a5.74,5.74,0,0,1,5.74,5.74V103.8A5.74,5.74,0,0,1,137.63,109.54ZM55.74,79.7a5.31,5.31,0,0,0,3.32-1.08,4.81,4.81,0,0,0,1.78-3.06,8.28,8.28,0,0,1,2-3.65,41.54,41.54,0,0,1,4.6-4.18q3.18-2.79,5.19-4.77a18.06,18.06,0,0,0,3.42-4.77,13.37,13.37,0,0,0,1.41-6.12A13.18,13.18,0,0,0,74.87,44a17.58,17.58,0,0,0-7.29-5.58,26.22,26.22,0,0,0-10.57-2,34.54,34.54,0,0,0-10.52,1.66,32.52,32.52,0,0,0-9.34,4.64,7.79,7.79,0,0,0-2.23,2.43,6.5,6.5,0,0,0-.69,3.15A7.19,7.19,0,0,0,35.83,53,4.85,4.85,0,0,0,39.7,55a11.18,11.18,0,0,0,5-1.71l2.19-1.08A32.92,32.92,0,0,1,51.5,50a11.78,11.78,0,0,1,4.14-.76,6.24,6.24,0,0,1,4,1.17,3.84,3.84,0,0,1,1.46,3.15,6.48,6.48,0,0,1-1,3.6A29.34,29.34,0,0,1,56.92,61a30,30,0,0,0-4.56,5.8,14,14,0,0,0-1.64,7.07,6.36,6.36,0,0,0,1.33,4.32A4.61,4.61,0,0,0,55.74,79.7Zm.18,21.51a8.55,8.55,0,0,0,6.33-2.52,9,9,0,0,0,0-12.42,8.55,8.55,0,0,0-6.33-2.52,8.73,8.73,0,1,0,0,17.46ZM102.56,79.7a5.32,5.32,0,0,0,3.33-1.08,4.76,4.76,0,0,0,1.77-3.06,8.48,8.48,0,0,1,2-3.65,42.74,42.74,0,0,1,4.61-4.18q3.18-2.79,5.19-4.77a18.26,18.26,0,0,0,3.41-4.77A13.74,13.74,0,0,0,121.7,44a17.71,17.71,0,0,0-7.29-5.58,26.22,26.22,0,0,0-10.57-2,34.54,34.54,0,0,0-10.52,1.66A32.52,32.52,0,0,0,84,42.71a7.83,7.83,0,0,0-2.24,2.43,6.61,6.61,0,0,0-.68,3.15A7.14,7.14,0,0,0,82.66,53,4.85,4.85,0,0,0,86.53,55a11.26,11.26,0,0,0,5-1.71l2.19-1.08A32.4,32.4,0,0,1,98.33,50a11.7,11.7,0,0,1,4.14-.76,6.24,6.24,0,0,1,4,1.17,3.84,3.84,0,0,1,1.46,3.15,6.48,6.48,0,0,1-1,3.6A30.18,30.18,0,0,1,103.75,61a29.63,29.63,0,0,0-4.56,5.8,14,14,0,0,0-1.64,7.07,6.41,6.41,0,0,0,1.32,4.32A4.61,4.61,0,0,0,102.56,79.7Zm.18,21.51a8.56,8.56,0,0,0,6.34-2.52,9,9,0,0,0,0-12.42,8.56,8.56,0,0,0-6.34-2.52,8.73,8.73,0,1,0,0,17.46Z"/></svg>