<svg id="Layer_1" data-name="Layer 1" xmlns="http://www.w3.org/2000/svg" viewBox="0 0 180 130"><title>s12_1</title><path d="M154.58,13.34a15.43,15.43,0,0,1,4.82,9.86v8.65h7.18A14.42,14.42,0,0,1,174.87,36a14.27,14.27,0,0,1,3.86,8V89.06a13.8,13.8,0,0,1-3.52,8.4,14,14,0,0,1-9.31,4.43h-6.51v8.2a15.1,15.1,0,0,1-14.18,14.18H16.67A15.2,15.2,0,0,1,1.24,108.84V24.62A16.46,16.46,0,0,1,6.51,13.4a16.29,16.29,0,0,1,10-4.08H144.7A15.49,15.49,0,0,1,154.58,13.34ZM12.31,20a6.58,6.58,0,0,0-2.12,4.66V109a6.52,6.52,0,0,0,6.2,6.2H144a6,6,0,0,0,4.72-1.8,5.88,5.88,0,0,0,1.5-4.42V24.65a6.28,6.28,0,0,0-1.49-4.14A6.49,6.49,0,0,0,144,18.38H16.39A6.48,6.48,0,0,0,12.31,20Z"/><path d="M138.11,109.54h-116a5.74,5.74,0,0,1-5.74-5.74V31.71A5.74,5.74,0,0,1,22.14,26h116a5.74,5.74,0,0,1,5.73,5.74V103.8A5.74,5.74,0,0,1,138.11,109.54ZM69.42,79.82H98q6.38,0,9.49-2.78a9.79,9.79,0,0,0,3.11-7.72,9.56,9.56,0,0,0-3.11-7.65Q104.35,59,98,59H69.42Q56.8,59,56.81,69.32,56.81,79.82,69.42,79.82Z"/></svg>