<svg id="Layer_1" data-name="Layer 1" xmlns="http://www.w3.org/2000/svg" viewBox="0 0 180 130"><title>s12_1</title><path d="M154.6,12.05a15.49,15.49,0,0,1,4.82,9.86v8.65h7.18a14.17,14.17,0,0,1,12.15,12.15V87.77a13.83,13.83,0,0,1-3.53,8.4,14,14,0,0,1-9.3,4.43H159.4v8.2A15.06,15.06,0,0,1,145.22,123H16.69a15.54,15.54,0,0,1-11-4.5,15.57,15.57,0,0,1-4.4-10.93V23.33A16.54,16.54,0,0,1,6.53,12.11,16.27,16.27,0,0,1,16.56,8H144.71A15.51,15.51,0,0,1,154.6,12.05ZM12.33,18.68a6.58,6.58,0,0,0-2.12,4.66v84.35a6.78,6.78,0,0,0,2.16,4.54,6.62,6.62,0,0,0,4,1.66H144a6,6,0,0,0,4.72-1.8,5.93,5.93,0,0,0,1.5-4.42V23.36a6.31,6.31,0,0,0-1.5-4.14A6.47,6.47,0,0,0,144,17.09H16.4A6.46,6.46,0,0,0,12.33,18.68Z"/><path d="M138.12,108.25h-116a5.74,5.74,0,0,1-5.74-5.73V30.42a5.74,5.74,0,0,1,5.74-5.74h116a5.74,5.74,0,0,1,5.74,5.74v72.1A5.74,5.74,0,0,1,138.12,108.25ZM102.61,59H87.31V43.91a6.8,6.8,0,0,0-2.07-5,7.4,7.4,0,0,0-10.2,0,6.8,6.8,0,0,0-2.07,5V59H57.67a7,7,0,0,0-5.1,2,6.8,6.8,0,0,0-2.07,5,7,7,0,0,0,2.07,5.1,6.85,6.85,0,0,0,5.1,2.1H73v15a6.8,6.8,0,0,0,2.07,5,7.14,7.14,0,0,0,12.27-5v-15h15.3a6.85,6.85,0,0,0,5.1-2.1,7,7,0,0,0,2.07-5.1,6.8,6.8,0,0,0-2.07-5A7,7,0,0,0,102.61,59Z"/></svg>