<svg id="Layer_1" data-name="Layer 1" xmlns="http://www.w3.org/2000/svg" viewBox="0 0 180 130"><title>s12_1</title><path d="M156.26,13.34a15.38,15.38,0,0,1,4.82,9.86v8.65h7.18A14.14,14.14,0,0,1,180.41,44V89.06a13.8,13.8,0,0,1-3.52,8.4,14,14,0,0,1-9.31,4.43h-6.51v8.2a15.1,15.1,0,0,1-14.18,14.18H18.35a15.52,15.52,0,0,1-11-4.5,15.54,15.54,0,0,1-4.4-10.93V24.62A16.46,16.46,0,0,1,8.19,13.4a16.29,16.29,0,0,1,10-4.08H146.38A15.47,15.47,0,0,1,156.26,13.34ZM14,20a6.6,6.6,0,0,0-2.13,4.66V109a6.52,6.52,0,0,0,6.2,6.2h127.6a6,6,0,0,0,4.72-1.8,5.84,5.84,0,0,0,1.5-4.42V24.65a6.28,6.28,0,0,0-1.49-4.14,6.47,6.47,0,0,0-4.77-2.13H18.07A6.44,6.44,0,0,0,14,20Z"/><path d="M139.79,109.54h-116a5.73,5.73,0,0,1-5.73-5.74V31.71A5.73,5.73,0,0,1,23.82,26h116a5.73,5.73,0,0,1,5.73,5.74V103.8A5.73,5.73,0,0,1,139.79,109.54ZM63.85,81.08H58.4V50a5.68,5.68,0,0,0-1.63-4.27,5.93,5.93,0,0,0-4.29-1.58A11.39,11.39,0,0,0,47,45.75L36.33,51.86A4.46,4.46,0,0,0,34,55.93a5.47,5.47,0,0,0,1.33,3.58,4,4,0,0,0,3.19,1.61,4.58,4.58,0,0,0,2.33-.66l5.32-3.08v23.7H40.78a6.74,6.74,0,0,0-4.38,1.18A4.37,4.37,0,0,0,35,85.81q0,4.86,5.78,4.86H63.85q5.77,0,5.78-4.86a4.37,4.37,0,0,0-1.4-3.55A6.74,6.74,0,0,0,63.85,81.08ZM78.07,92.77,93.16,46a7.06,7.06,0,0,0,.27-1.44A3.83,3.83,0,0,0,92,41.42a5,5,0,0,0-3.29-1.18,4.39,4.39,0,0,0-4.26,3.15L69.36,90.21a4.48,4.48,0,0,0-.26,1.51,3.79,3.79,0,0,0,1.39,3,4.88,4.88,0,0,0,3.26,1.18,4.55,4.55,0,0,0,2.63-.79A4.43,4.43,0,0,0,78.07,92.77ZM125.2,81.08H111.84l9.44-9.52a30.93,30.93,0,0,0,5.55-7.39,16.45,16.45,0,0,0,1.63-7.32,11.94,11.94,0,0,0-2-6.86,13,13,0,0,0-5.75-4.6A21.66,21.66,0,0,0,112,43.78,26.23,26.23,0,0,0,104.36,45a25.81,25.81,0,0,0-7,3.28A4.3,4.3,0,0,0,95.72,50a6.26,6.26,0,0,0,.7,5.87,3.38,3.38,0,0,0,2.79,1.48,4.05,4.05,0,0,0,1.26-.2,8.16,8.16,0,0,0,1.36-.62l1-.56,1.33-.66a33.51,33.51,0,0,1,3.76-1.6,10.72,10.72,0,0,1,3.56-.56,5.25,5.25,0,0,1,3.68,1.18,4.37,4.37,0,0,1,1.3,3.41q0,3.81-4.39,8.34L98,80.56a7.17,7.17,0,0,0-2.26,5.12,4.89,4.89,0,0,0,1.4,3.58,5.09,5.09,0,0,0,3.79,1.41H125.2a6.76,6.76,0,0,0,4.35-1.18A4.49,4.49,0,0,0,131,85.81a4.31,4.31,0,0,0-1.43-3.58A6.89,6.89,0,0,0,125.2,81.08Z"/></svg>