<svg id="Layer_1" data-name="Layer 1" xmlns="http://www.w3.org/2000/svg" viewBox="0 0 200 150"><defs><style>.cls-1{fill:#020202;}</style></defs><title>g28</title><rect class="cls-1" width="94.89" height="70.92" rx="12.68"/><path class="cls-1" d="M75.87,141.61H19A10.58,10.58,0,0,1,8.44,131v-33A10.58,10.58,0,0,1,19,87.47H75.87A10.58,10.58,0,0,1,86.45,98.05v33A10.58,10.58,0,0,1,75.87,141.61Zm19-4.29V91.76A12.69,12.69,0,0,0,82.2,79.08H12.68A12.68,12.68,0,0,0,0,91.76v45.56A12.68,12.68,0,0,0,12.68,150H82.2A12.69,12.69,0,0,0,94.89,137.32Z"/><path class="cls-1" d="M181,62.53H124.13A10.58,10.58,0,0,1,113.55,52V19A10.58,10.58,0,0,1,124.13,8.39H181A10.58,10.58,0,0,1,191.56,19V52A10.58,10.58,0,0,1,181,62.53Zm19-4.29V12.68A12.68,12.68,0,0,0,187.32,0H117.8a12.69,12.69,0,0,0-12.69,12.68V58.24A12.69,12.69,0,0,0,117.8,70.92h69.52A12.68,12.68,0,0,0,200,58.24Z"/><rect class="cls-1" x="105.11" y="79.08" width="94.89" height="70.92" rx="12.68"/></svg>