<svg id="Layer_1" data-name="Layer 1" xmlns="http://www.w3.org/2000/svg" viewBox="0 0 100 100"><title>l28_3_1</title><path d="M99.88,11.58V70A11.57,11.57,0,0,1,88.3,81.55H81.43v6.87A11.57,11.57,0,0,1,69.85,100H11.46A11.58,11.58,0,0,1-.12,88.42V30A11.58,11.58,0,0,1,11.46,18.45h6.87V11.58A11.58,11.58,0,0,1,29.91,0H88.3A11.57,11.57,0,0,1,99.88,11.58Zm-8,22.12L84.4,26.26l6.84-6.72a4.91,4.91,0,0,0,1.5-3.48,4.49,4.49,0,0,0-1.41-3.27A4.55,4.55,0,0,0,88,11.38,4.8,4.8,0,0,0,84.46,13L78,19.54,71.56,13A4.6,4.6,0,0,0,68,11.32a4.51,4.51,0,0,0-3.33,1.44,4.65,4.65,0,0,0-1.41,3.36,4.71,4.71,0,0,0,1.5,3.42l6.84,6.72L64.18,33.7a4.71,4.71,0,0,0-1.5,3.42,4.54,4.54,0,0,0,1.44,3.3,4.61,4.61,0,0,0,3.36,1.44A4.8,4.8,0,0,0,71,40.24l7-7.32,7,7.32a4.8,4.8,0,0,0,3.54,1.62,4.61,4.61,0,0,0,3.36-1.44,4.54,4.54,0,0,0,1.44-3.3A4.71,4.71,0,0,0,91.84,33.7ZM41.16,54a14.54,14.54,0,0,0-6.34,1.39,12,12,0,0,0-4.61,3.79q.45-6.3,2.81-9.79a7.18,7.18,0,0,1,6.19-3.49,10,10,0,0,1,3.45.6c1.1.4,2.47,1,4.12,1.8l1.65.83q1.43.75,2.25,1.08a4.85,4.85,0,0,0,1.88.34A4,4,0,0,0,55.75,49,6.06,6.06,0,0,0,57.06,45a5.55,5.55,0,0,0-.56-2.62,6.59,6.59,0,0,0-1.84-2,23.88,23.88,0,0,0-7.54-3.75,29.1,29.1,0,0,0-8.59-1.35,20.32,20.32,0,0,0-11.66,3.38,21.77,21.77,0,0,0-7.72,9.63,36.33,36.33,0,0,0-2.74,14.67q0,12.75,5.77,19.65t16.35,6.9a19.36,19.36,0,0,0,9.53-2.33,16.64,16.64,0,0,0,6.56-6.49A18.65,18.65,0,0,0,57,71.26a19,19,0,0,0-2.06-8.89,15.58,15.58,0,0,0-5.66-6.15A15.2,15.2,0,0,0,41.16,54Zm-3.45,24.9a6,6,0,0,1-4.65-2,7.33,7.33,0,0,1-1.8-5.13A7.46,7.46,0,0,1,33,66.61a6,6,0,0,1,4.69-2,6,6,0,0,1,4.69,1.91,7.65,7.65,0,0,1,1.68,5.22A7.51,7.51,0,0,1,42.36,77,5.9,5.9,0,0,1,37.71,78.91Z"/></svg>