<svg id="Layer_1" data-name="Layer 1" xmlns="http://www.w3.org/2000/svg" viewBox="0 0 100 100"><title>l28_4_1</title><path d="M100,11.58V70A11.57,11.57,0,0,1,88.42,81.55H81.55v6.87A11.57,11.57,0,0,1,70,100H11.58A11.57,11.57,0,0,1,0,88.42V30A11.57,11.57,0,0,1,11.58,18.45h6.87V11.58A11.57,11.57,0,0,1,30,0H88.42A11.57,11.57,0,0,1,100,11.58ZM59.72,32.35H87.45A4.23,4.23,0,0,0,90.6,31a4.44,4.44,0,0,0,1.27-3.19,4.35,4.35,0,0,0-4.42-4.42H59.72a4.23,4.23,0,0,0-3.15,1.31,4.42,4.42,0,0,0-1.28,3.19,4.36,4.36,0,0,0,4.43,4.42ZM73.21,18.26a4.57,4.57,0,0,0,3.41-1.42A4.78,4.78,0,0,0,78,13.39,4.68,4.68,0,0,0,76.62,10a4.58,4.58,0,0,0-3.41-1.43A4.51,4.51,0,0,0,69.84,10a4.65,4.65,0,0,0-1.35,3.41,4.79,4.79,0,0,0,1.35,3.45A4.43,4.43,0,0,0,73.21,18.26Zm0,28.93a4.57,4.57,0,0,0,3.41-1.42A4.68,4.68,0,0,0,78,42.4,4.78,4.78,0,0,0,76.62,39a4.58,4.58,0,0,0-3.41-1.43A4.43,4.43,0,0,0,69.84,39a4.79,4.79,0,0,0-1.35,3.45,4.68,4.68,0,0,0,1.35,3.41A4.5,4.5,0,0,0,73.21,47.19ZM41.28,54a14.48,14.48,0,0,0-6.34,1.39,11.83,11.83,0,0,0-4.61,3.79q.45-6.3,2.81-9.79a7.17,7.17,0,0,1,6.19-3.49,10,10,0,0,1,3.45.6c1.1.4,2.47,1,4.12,1.8l1.65.83q1.43.75,2.25,1.08a4.81,4.81,0,0,0,1.88.34A3.94,3.94,0,0,0,55.86,49,6,6,0,0,0,57.18,45a5.43,5.43,0,0,0-.57-2.62,6.42,6.42,0,0,0-1.83-2,24,24,0,0,0-7.54-3.75,29.15,29.15,0,0,0-8.59-1.35A20.29,20.29,0,0,0,27,38.64a21.85,21.85,0,0,0-7.73,9.63,36.5,36.5,0,0,0-2.73,14.67q0,12.75,5.77,19.65t16.35,6.9a19.36,19.36,0,0,0,9.53-2.33,16.77,16.77,0,0,0,6.56-6.49,20.07,20.07,0,0,0,.3-18.3,15.58,15.58,0,0,0-5.66-6.15A15.2,15.2,0,0,0,41.28,54Zm-3.45,24.9a6,6,0,0,1-4.65-2,7.33,7.33,0,0,1-1.8-5.13,7.41,7.41,0,0,1,1.76-5.18,6,6,0,0,1,4.69-2,5.93,5.93,0,0,1,4.68,1.91,7.61,7.61,0,0,1,1.69,5.22A7.51,7.51,0,0,1,42.48,77,5.91,5.91,0,0,1,37.83,78.91Z"/></svg>