<svg id="Layer_1" data-name="Layer 1" xmlns="http://www.w3.org/2000/svg" viewBox="0 0 100 100"><title>l28_3_1</title><path d="M100,11.58V70A11.57,11.57,0,0,1,88.42,81.55H81.55v6.87A11.57,11.57,0,0,1,70,100H11.58A11.57,11.57,0,0,1,0,88.42V30A11.57,11.57,0,0,1,11.58,18.45h6.87V11.58A11.57,11.57,0,0,1,30,0H88.42A11.57,11.57,0,0,1,100,11.58ZM27.72,74.24H24V52.91A3.91,3.91,0,0,0,22.93,50,4,4,0,0,0,20,48.91,7.58,7.58,0,0,0,16.29,50l-7.2,4.19A3.06,3.06,0,0,0,7.51,57a3.79,3.79,0,0,0,.9,2.45,2.69,2.69,0,0,0,2.16,1.1,3.09,3.09,0,0,0,1.58-.45L15.75,58V74.24H12.1a4.5,4.5,0,0,0-3,.81,3,3,0,0,0-.94,2.43q0,3.33,3.91,3.33H27.72q3.91,0,3.91-3.33a3,3,0,0,0-.94-2.43A4.5,4.5,0,0,0,27.72,74.24Zm9.63,8L47.56,50.17a5,5,0,0,0,.18-1,2.64,2.64,0,0,0-1-2.12,3.39,3.39,0,0,0-2.23-.81,3,3,0,0,0-1.73.54,3,3,0,0,0-1.15,1.62L31.45,80.5a3,3,0,0,0-.18,1,2.61,2.61,0,0,0,.95,2.07,3.27,3.27,0,0,0,2.2.81,3,3,0,0,0,2.93-2.16Zm31.9-8h-9l6.39-6.52a21.14,21.14,0,0,0,3.76-5.07,11.36,11.36,0,0,0,1.1-5,8.25,8.25,0,0,0-1.38-4.71,8.81,8.81,0,0,0-3.89-3.15,14.57,14.57,0,0,0-5.85-1.1,18.34,18.34,0,0,0-9.94,3.06,3,3,0,0,0-1.11,1.17A4,4,0,0,0,49,54.53a3.9,3.9,0,0,0,.77,2.41,2.3,2.3,0,0,0,1.89,1,2.65,2.65,0,0,0,.85-.13,6.09,6.09,0,0,0,.93-.43c.34-.2.57-.32.69-.38l.9-.45a23.26,23.26,0,0,1,2.54-1.11A7.47,7.47,0,0,1,60,55.07a3.55,3.55,0,0,1,2.5.81,3,3,0,0,1,.88,2.34q0,2.61-3,5.72l-9.54,9.94a4.93,4.93,0,0,0-1.53,3.51,3.35,3.35,0,0,0,.94,2.45,3.41,3.41,0,0,0,2.57,1H69.25a4.54,4.54,0,0,0,3-.81,3.12,3.12,0,0,0,1-2.52,3,3,0,0,0-1-2.45A4.6,4.6,0,0,0,69.25,74.24ZM91,32l-7.44-7.44,6.84-6.72a4.91,4.91,0,0,0,1.5-3.48,4.49,4.49,0,0,0-1.41-3.27,4.55,4.55,0,0,0-3.33-1.41,4.8,4.8,0,0,0-3.54,1.62L77.1,17.81l-6.42-6.54a4.6,4.6,0,0,0-3.54-1.68A4.51,4.51,0,0,0,63.81,11a4.65,4.65,0,0,0-1.41,3.36,4.71,4.71,0,0,0,1.5,3.42l6.84,6.72L63.3,32a4.71,4.71,0,0,0-1.5,3.42,4.54,4.54,0,0,0,1.44,3.3,4.61,4.61,0,0,0,3.36,1.44,4.8,4.8,0,0,0,3.54-1.62l7-7.32,7,7.32a4.8,4.8,0,0,0,3.54,1.62A4.61,4.61,0,0,0,91,38.69a4.54,4.54,0,0,0,1.44-3.3A4.71,4.71,0,0,0,91,32Z"/></svg>