<svg id="Layer_1" data-name="Layer 1" xmlns="http://www.w3.org/2000/svg" viewBox="0 0 100 100"><title>l28_3_1</title><path d="M99.88,11.58V70A11.57,11.57,0,0,1,88.3,81.55H81.43v6.87A11.57,11.57,0,0,1,69.85,100H11.46A11.58,11.58,0,0,1-.12,88.42V30A11.58,11.58,0,0,1,11.46,18.45h6.87V11.58A11.58,11.58,0,0,1,29.91,0H88.3A11.57,11.57,0,0,1,99.88,11.58Zm-8,22.12L84.4,26.26l6.84-6.72a4.91,4.91,0,0,0,1.5-3.48,4.49,4.49,0,0,0-1.41-3.27A4.55,4.55,0,0,0,88,11.38,4.8,4.8,0,0,0,84.46,13L78,19.54,71.56,13A4.6,4.6,0,0,0,68,11.32a4.51,4.51,0,0,0-3.33,1.44,4.65,4.65,0,0,0-1.41,3.36,4.71,4.71,0,0,0,1.5,3.42l6.84,6.72L64.18,33.7a4.71,4.71,0,0,0-1.5,3.42,4.54,4.54,0,0,0,1.44,3.3,4.61,4.61,0,0,0,3.36,1.44A4.8,4.8,0,0,0,71,40.24l7-7.32,7,7.32a4.8,4.8,0,0,0,3.54,1.62,4.61,4.61,0,0,0,3.36-1.44,4.54,4.54,0,0,0,1.44-3.3A4.71,4.71,0,0,0,91.84,33.7ZM34.78,35.26a19.32,19.32,0,0,0-9.52,2.33,16.78,16.78,0,0,0-6.57,6.48,18.82,18.82,0,0,0-2.36,9.42,18.76,18.76,0,0,0,2.07,8.88,15.37,15.37,0,0,0,5.66,6.15,15.12,15.12,0,0,0,8.1,2.22,14.4,14.4,0,0,0,6.34-1.39,11.89,11.89,0,0,0,4.61-3.79q-.45,6.3-2.81,9.79a7.2,7.2,0,0,1-6.19,3.49,10,10,0,0,1-3.45-.6c-1.1-.4-2.48-1-4.13-1.8l-1.65-.83c-.95-.5-1.7-.86-2.25-1.09a5,5,0,0,0-1.87-.33,4,4,0,0,0-3.19,1.61,6,6,0,0,0-1.31,3.94,5.55,5.55,0,0,0,.56,2.62,6.59,6.59,0,0,0,1.84,2,23.93,23.93,0,0,0,7.53,3.75,29.15,29.15,0,0,0,8.59,1.35,20.29,20.29,0,0,0,11.66-3.38,21.83,21.83,0,0,0,7.73-9.64,36.25,36.25,0,0,0,2.74-14.66q0-12.75-5.78-19.65T34.78,35.26Zm.83,24.83a5.93,5.93,0,0,1-4.69-1.92A7.61,7.61,0,0,1,29.23,53,7.51,7.51,0,0,1,31,47.79a5.9,5.9,0,0,1,4.65-1.95,6,6,0,0,1,4.65,2A7.37,7.37,0,0,1,42.06,53a7.46,7.46,0,0,1-1.76,5.18A6,6,0,0,1,35.61,60.09Z"/></svg>