<svg id="Layer_1" data-name="Layer 1" xmlns="http://www.w3.org/2000/svg" viewBox="0 0 100 100"><title>l28_4_1</title><path d="M99.83,11.58V70A11.58,11.58,0,0,1,88.25,81.55H81.38v6.87A11.58,11.58,0,0,1,69.8,100H11.4A11.57,11.57,0,0,1-.17,88.42V30A11.57,11.57,0,0,1,11.4,18.45h6.87V11.58A11.58,11.58,0,0,1,29.85,0h58.4A11.58,11.58,0,0,1,99.83,11.58ZM59.54,32.35H87.27A4.2,4.2,0,0,0,90.42,31a4.41,4.41,0,0,0,1.28-3.19,4.37,4.37,0,0,0-4.43-4.42H59.54a4.23,4.23,0,0,0-3.15,1.31,4.41,4.41,0,0,0-1.27,3.19,4.34,4.34,0,0,0,4.42,4.42ZM73,18.26a4.56,4.56,0,0,0,3.41-1.42,4.75,4.75,0,0,0,1.39-3.45A4.65,4.65,0,0,0,76.44,10a4.78,4.78,0,0,0-6.78,0,4.69,4.69,0,0,0-1.35,3.41,4.83,4.83,0,0,0,1.35,3.45A4.44,4.44,0,0,0,73,18.26Zm0,28.93a4.56,4.56,0,0,0,3.41-1.42,4.65,4.65,0,0,0,1.39-3.37A4.75,4.75,0,0,0,76.44,39,4.57,4.57,0,0,0,73,37.52,4.45,4.45,0,0,0,69.66,39a4.83,4.83,0,0,0-1.35,3.45,4.72,4.72,0,0,0,1.35,3.41A4.52,4.52,0,0,0,73,47.19Zm-52.87,37q5.9,0,9-4.19t3.1-12.1q0-7.88-3.13-12.06a10.53,10.53,0,0,0-9-4.19q-5.91,0-9,4.19T8.05,67.93q0,7.92,3.11,12.1T20.16,84.22Zm0-6.26a3.23,3.23,0,0,1-3.11-2.34q-.94-2.34-.95-7.69t.95-7.68a3.24,3.24,0,0,1,6.21,0q.94,2.34.94,7.65t-.94,7.69A3.22,3.22,0,0,1,20.16,78Zm19.61,6.12a4.15,4.15,0,0,0,3.09-1.26,4.51,4.51,0,0,0,0-6.21,4.46,4.46,0,0,0-6.21,0,4.51,4.51,0,0,0,0,6.21A4.19,4.19,0,0,0,39.77,84.08Zm26.46-16.6a6.83,6.83,0,0,0,3.54-2.66,7.86,7.86,0,0,0,1.28-4.5A7.44,7.44,0,0,0,67.92,54c-2.08-1.54-4.93-2.32-8.53-2.32A14.07,14.07,0,0,0,50.89,54a7.43,7.43,0,0,0-3.15,6.32A7.65,7.65,0,0,0,49,64.71a7.38,7.38,0,0,0,3.6,2.77,7.51,7.51,0,0,0-4.23,2.67,7.94,7.94,0,0,0-1.49,4.93,7.75,7.75,0,0,0,3.36,6.68q3.34,2.42,9.15,2.41t9.16-2.41a7.74,7.74,0,0,0,3.35-6.68,7.38,7.38,0,0,0-5.67-7.6ZM59.39,77.92q-4.91,0-4.9-3.51t4.9-3.51q4.9,0,4.91,3.51T59.39,77.92Zm0-20a4.85,4.85,0,0,1,3,.78,3.08,3.08,0,0,1,1,2.55,3.11,3.11,0,0,1-1,2.56,4.71,4.71,0,0,1-3,.81,4.68,4.68,0,0,1-3-.81,3.11,3.11,0,0,1-1-2.56,3.08,3.08,0,0,1,1-2.55A4.82,4.82,0,0,1,59.39,57.94Z"/></svg>