<svg id="Layer_1" data-name="Layer 1" xmlns="http://www.w3.org/2000/svg" viewBox="0 0 100 100"><title>l28_4_1</title><path d="M99.83,11.58V70A11.58,11.58,0,0,1,88.25,81.55H81.38v6.87A11.58,11.58,0,0,1,69.8,100H11.4A11.57,11.57,0,0,1-.17,88.42V30A11.57,11.57,0,0,1,11.4,18.45h6.87V11.58A11.58,11.58,0,0,1,29.85,0h58.4A11.58,11.58,0,0,1,99.83,11.58ZM59.54,32.35H87.27A4.2,4.2,0,0,0,90.42,31a4.41,4.41,0,0,0,1.28-3.19,4.37,4.37,0,0,0-4.43-4.42H59.54a4.23,4.23,0,0,0-3.15,1.31,4.41,4.41,0,0,0-1.27,3.19,4.34,4.34,0,0,0,4.42,4.42ZM73,18.26a4.56,4.56,0,0,0,3.41-1.42,4.75,4.75,0,0,0,1.39-3.45A4.65,4.65,0,0,0,76.44,10a4.78,4.78,0,0,0-6.78,0,4.69,4.69,0,0,0-1.35,3.41,4.83,4.83,0,0,0,1.35,3.45A4.44,4.44,0,0,0,73,18.26Zm0,28.93a4.56,4.56,0,0,0,3.41-1.42,4.65,4.65,0,0,0,1.39-3.37A4.75,4.75,0,0,0,76.44,39,4.57,4.57,0,0,0,73,37.52,4.45,4.45,0,0,0,69.66,39a4.83,4.83,0,0,0-1.35,3.45,4.72,4.72,0,0,0,1.35,3.41A4.52,4.52,0,0,0,73,47.19ZM27.74,76.24H24.05V54.91A3.91,3.91,0,0,0,23,52a4,4,0,0,0-2.9-1.08A7.61,7.61,0,0,0,16.31,52l-7.2,4.19A3.05,3.05,0,0,0,7.54,59a3.83,3.83,0,0,0,.89,2.45,2.72,2.72,0,0,0,2.17,1.1,3.05,3.05,0,0,0,1.57-.45L15.77,60V76.24H12.13a4.5,4.5,0,0,0-3,.81,3,3,0,0,0-.95,2.43q0,3.33,3.92,3.33H27.74q3.92,0,3.92-3.33a3,3,0,0,0-.95-2.43A4.5,4.5,0,0,0,27.74,76.24Zm9.63,8L47.58,52.17a5.23,5.23,0,0,0,.19-1,2.65,2.65,0,0,0-1-2.12,3.39,3.39,0,0,0-2.23-.81,3,3,0,0,0-1.73.54,3,3,0,0,0-1.15,1.62L31.47,82.5a3,3,0,0,0-.18,1,2.61,2.61,0,0,0,1,2.07,3.27,3.27,0,0,0,2.2.81,3.07,3.07,0,0,0,1.78-.54A3,3,0,0,0,37.37,84.25ZM67.74,66.48a6.83,6.83,0,0,0,3.54-2.66,7.86,7.86,0,0,0,1.28-4.5A7.44,7.44,0,0,0,69.43,53c-2.08-1.55-4.93-2.32-8.53-2.32s-6.4.77-8.5,2.32a7.43,7.43,0,0,0-3.15,6.32,7.65,7.65,0,0,0,1.26,4.39,7.44,7.44,0,0,0,3.6,2.77,7.51,7.51,0,0,0-4.23,2.67,7.94,7.94,0,0,0-1.49,4.93,7.75,7.75,0,0,0,3.36,6.68q3.34,2.42,9.15,2.41c3.87,0,6.93-.8,9.16-2.41a7.74,7.74,0,0,0,3.35-6.68,7.38,7.38,0,0,0-5.67-7.6ZM60.9,76.92q-4.9,0-4.9-3.51t4.9-3.51q4.91,0,4.91,3.51T60.9,76.92Zm0-20a4.85,4.85,0,0,1,3,.78,3.08,3.08,0,0,1,1,2.55,3.11,3.11,0,0,1-1,2.56,4.71,4.71,0,0,1-3,.81,4.7,4.7,0,0,1-3-.81,3.11,3.11,0,0,1-1-2.56,3.08,3.08,0,0,1,1-2.55A4.83,4.83,0,0,1,60.9,56.94Z"/></svg>