<svg id="Layer_1" data-name="Layer 1" xmlns="http://www.w3.org/2000/svg" viewBox="0 0 100 100"><title>l28_2_1</title><path d="M100,11.58V70A11.57,11.57,0,0,1,88.42,81.55H81.55v6.87A11.57,11.57,0,0,1,70,100H11.58A11.57,11.57,0,0,1,0,88.42V30A11.57,11.57,0,0,1,11.58,18.45h6.87V11.58A11.57,11.57,0,0,1,30,0H88.42A11.57,11.57,0,0,1,100,11.58ZM28.94,74.24H25.25V52.91A3.91,3.91,0,0,0,24.15,50a4,4,0,0,0-2.9-1.08A7.61,7.61,0,0,0,17.51,50l-7.2,4.19A3.05,3.05,0,0,0,8.74,57a3.77,3.77,0,0,0,.9,2.45,2.69,2.69,0,0,0,2.16,1.1,3.05,3.05,0,0,0,1.57-.45L17,58V74.24H13.33a4.5,4.5,0,0,0-3,.81,3,3,0,0,0-.95,2.43q0,3.33,3.92,3.33H28.94q3.92,0,3.92-3.33a3,3,0,0,0-.95-2.43A4.5,4.5,0,0,0,28.94,74.24Zm9.63,8L48.79,50.17a5,5,0,0,0,.18-1,2.65,2.65,0,0,0-1-2.12,3.39,3.39,0,0,0-2.23-.81,3,3,0,0,0-1.73.54,3,3,0,0,0-1.15,1.62L32.68,80.5a3,3,0,0,0-.18,1,2.6,2.6,0,0,0,.94,2.07,3.3,3.3,0,0,0,2.21.81,3,3,0,0,0,2.92-2.16Zm31.91-8H61.43l6.39-6.52a21.14,21.14,0,0,0,3.76-5.07,11.36,11.36,0,0,0,1.1-5,8.32,8.32,0,0,0-1.37-4.71,8.87,8.87,0,0,0-3.89-3.15,14.57,14.57,0,0,0-5.85-1.1,18.33,18.33,0,0,0-10,3.06,2.94,2.94,0,0,0-1.1,1.17,3.79,3.79,0,0,0-.29,1.62A3.89,3.89,0,0,0,51,56.94a2.3,2.3,0,0,0,1.89,1,2.71,2.71,0,0,0,.86-.13,5.2,5.2,0,0,0,.92-.43l.7-.38.9-.45a22.45,22.45,0,0,1,2.54-1.11,7.43,7.43,0,0,1,2.41-.38,3.52,3.52,0,0,1,2.49.81,3,3,0,0,1,.88,2.34q0,2.61-3,5.72l-9.54,9.94a4.93,4.93,0,0,0-1.53,3.51,3.36,3.36,0,0,0,1,2.45,3.39,3.39,0,0,0,2.56,1H70.48A4.49,4.49,0,0,0,73.42,80a3.09,3.09,0,0,0,1-2.52,3,3,0,0,0-1-2.45A4.61,4.61,0,0,0,70.48,74.24ZM68.09,31.53H82.18a6.81,6.81,0,0,0,4.68-1.39,4.92,4.92,0,0,0,1.54-3.86,4.79,4.79,0,0,0-1.54-3.82,6.92,6.92,0,0,0-4.68-1.35H68.09q-6.23,0-6.22,5.17T68.09,31.53Z"/></svg>