<svg id="Layer_1" data-name="Layer 1" xmlns="http://www.w3.org/2000/svg" viewBox="0 0 100 100"><title>l28_2_1</title><path d="M100,11.58V70A11.57,11.57,0,0,1,88.42,81.55H81.55v6.87A11.57,11.57,0,0,1,70,100H11.58A11.57,11.57,0,0,1,0,88.42V30A11.57,11.57,0,0,1,11.58,18.45h6.87V11.58A11.57,11.57,0,0,1,30,0H88.42A11.57,11.57,0,0,1,100,11.58ZM21.16,81.22q5.9,0,9-4.19t3.1-12.1q0-7.88-3.13-12.06a10.51,10.51,0,0,0-9-4.19q-5.89,0-9,4.19T9.05,64.93q0,7.92,3.11,12.1T21.16,81.22Zm0-6.26a3.23,3.23,0,0,1-3.11-2.34q-.94-2.34-.94-7.69t.94-7.68a3.24,3.24,0,0,1,6.21,0,22.19,22.19,0,0,1,.95,7.65q0,5.35-.95,7.69A3.22,3.22,0,0,1,21.16,75Zm19.62,6.12a4.15,4.15,0,0,0,3.08-1.26,4.51,4.51,0,0,0,0-6.21,4.15,4.15,0,0,0-3.08-1.26,4.2,4.2,0,0,0-3.13,1.26,4.51,4.51,0,0,0,0,6.21A4.2,4.2,0,0,0,40.78,81.08Zm29.16-6.84H66.25V52.91A3.88,3.88,0,0,0,65.14,50a4,4,0,0,0-2.9-1.08A7.58,7.58,0,0,0,58.51,50l-7.2,4.19A3,3,0,0,0,49.73,57a3.79,3.79,0,0,0,.9,2.45,2.69,2.69,0,0,0,2.16,1.1,3.09,3.09,0,0,0,1.58-.45L58,58V74.24H54.32a4.5,4.5,0,0,0-3,.81,3,3,0,0,0-.94,2.43q0,3.33,3.91,3.33H69.94q3.91,0,3.91-3.33a3,3,0,0,0-.94-2.43A4.5,4.5,0,0,0,69.94,74.24ZM68.09,31.53H82.18a6.81,6.81,0,0,0,4.68-1.39,4.92,4.92,0,0,0,1.54-3.86,4.79,4.79,0,0,0-1.54-3.82,6.92,6.92,0,0,0-4.68-1.35H68.09q-6.23,0-6.22,5.17T68.09,31.53Z"/></svg>