<svg id="Layer_1" data-name="Layer 1" xmlns="http://www.w3.org/2000/svg" viewBox="0 0 100 100"><title>l28_3_1</title><path d="M100,11.58V70A11.57,11.57,0,0,1,88.42,81.55H81.55v6.87A11.57,11.57,0,0,1,70,100H11.58A11.57,11.57,0,0,1,0,88.42V30A11.57,11.57,0,0,1,11.58,18.45h6.87V11.58A11.57,11.57,0,0,1,30,0H88.42A11.57,11.57,0,0,1,100,11.58ZM20.16,81.22q5.9,0,9-4.19t3.1-12.1q0-7.88-3.13-12.06a10.53,10.53,0,0,0-9-4.19c-3.94,0-6.93,1.4-9,4.19S8.05,59.68,8.05,64.93s1,9.31,3.11,12.1S16.22,81.22,20.16,81.22Zm0-6.26a3.23,3.23,0,0,1-3.11-2.34q-.94-2.34-.94-7.69t.94-7.68a3.24,3.24,0,0,1,6.21,0,22.19,22.19,0,0,1,.95,7.65q0,5.35-.95,7.69A3.22,3.22,0,0,1,20.16,75Zm19.62,6.12a4.15,4.15,0,0,0,3.08-1.26,4.51,4.51,0,0,0,0-6.21,4.15,4.15,0,0,0-3.08-1.26,4.2,4.2,0,0,0-3.13,1.26,4.51,4.51,0,0,0,0,6.21A4.2,4.2,0,0,0,39.78,81.08ZM69.07,69.16h-1V52.91a3.78,3.78,0,0,0-1.22-3,4.24,4.24,0,0,0-2.92-1.08,4.42,4.42,0,0,0-2,.47,4.07,4.07,0,0,0-1.6,1.37L47.47,69a5,5,0,0,0-1,3,3.46,3.46,0,0,0,1,2.48,3.35,3.35,0,0,0,2.56,1H60V77a4,4,0,0,0,1.11,3.06,4.05,4.05,0,0,0,2.9,1,4.13,4.13,0,0,0,2.92-1A4,4,0,0,0,68.08,77V75.46h1q3.92,0,3.91-3.2T69.07,69.16Zm-14.44,0L60,61.37v7.79ZM91,32l-7.44-7.44,6.84-6.72a4.91,4.91,0,0,0,1.5-3.48,4.49,4.49,0,0,0-1.41-3.27,4.55,4.55,0,0,0-3.33-1.41,4.8,4.8,0,0,0-3.54,1.62L77.1,17.81l-6.42-6.54a4.6,4.6,0,0,0-3.54-1.68A4.51,4.51,0,0,0,63.81,11a4.65,4.65,0,0,0-1.41,3.36,4.71,4.71,0,0,0,1.5,3.42l6.84,6.72L63.3,32a4.71,4.71,0,0,0-1.5,3.42,4.54,4.54,0,0,0,1.44,3.3,4.61,4.61,0,0,0,3.36,1.44,4.8,4.8,0,0,0,3.54-1.62l7-7.32,7,7.32a4.8,4.8,0,0,0,3.54,1.62A4.61,4.61,0,0,0,91,38.69a4.54,4.54,0,0,0,1.44-3.3A4.71,4.71,0,0,0,91,32Z"/></svg>