<svg id="Layer_1" data-name="Layer 1" xmlns="http://www.w3.org/2000/svg" viewBox="0 0 100 100"><title>l28_3_1</title><path d="M100,11.58V70A11.57,11.57,0,0,1,88.42,81.55H81.55v6.87A11.57,11.57,0,0,1,70,100H11.58A11.57,11.57,0,0,1,0,88.42V30A11.57,11.57,0,0,1,11.58,18.45h6.87V11.58A11.57,11.57,0,0,1,30,0H88.42A11.57,11.57,0,0,1,100,11.58ZM20.16,81.22q5.9,0,9-4.19t3.1-12.1q0-7.88-3.13-12.06a10.51,10.51,0,0,0-9-4.19q-5.89,0-9,4.19T8.05,64.93q0,7.92,3.11,12.1T20.16,81.22Zm0-6.26a3.23,3.23,0,0,1-3.11-2.34q-.94-2.34-.94-7.69t.94-7.68a3.24,3.24,0,0,1,6.21,0,22.19,22.19,0,0,1,.95,7.65q0,5.35-.95,7.69A3.22,3.22,0,0,1,20.16,75Zm19.62,6.12a4.15,4.15,0,0,0,3.08-1.26,4.51,4.51,0,0,0,0-6.21,4.15,4.15,0,0,0-3.08-1.26,4.2,4.2,0,0,0-3.13,1.26,4.51,4.51,0,0,0,0,6.21A4.2,4.2,0,0,0,39.78,81.08Zm28.7-32H50.85a4.43,4.43,0,0,0-3,.83,3.14,3.14,0,0,0-1,2.5,3.08,3.08,0,0,0,.92,2.43,4.5,4.5,0,0,0,3,.81H62.1L50.53,75.41a4.25,4.25,0,0,0-.63,2.16,3.33,3.33,0,0,0,1.21,2.59,4.17,4.17,0,0,0,2.79,1.06,4,4,0,0,0,1.92-.52,4.19,4.19,0,0,0,1.55-1.6L71,55.48a5.83,5.83,0,0,0,.85-3A3.52,3.52,0,0,0,71,50.05,3.21,3.21,0,0,0,68.48,49.09ZM91,32l-7.44-7.44,6.84-6.72a4.91,4.91,0,0,0,1.5-3.48,4.49,4.49,0,0,0-1.41-3.27,4.55,4.55,0,0,0-3.33-1.41,4.8,4.8,0,0,0-3.54,1.62L77.1,17.81l-6.42-6.54a4.6,4.6,0,0,0-3.54-1.68A4.51,4.51,0,0,0,63.81,11a4.65,4.65,0,0,0-1.41,3.36,4.71,4.71,0,0,0,1.5,3.42l6.84,6.72L63.3,32a4.71,4.71,0,0,0-1.5,3.42,4.54,4.54,0,0,0,1.44,3.3,4.61,4.61,0,0,0,3.36,1.44,4.8,4.8,0,0,0,3.54-1.62l7-7.32,7,7.32a4.8,4.8,0,0,0,3.54,1.62A4.61,4.61,0,0,0,91,38.69a4.54,4.54,0,0,0,1.44-3.3A4.71,4.71,0,0,0,91,32Z"/></svg>