<svg id="Layer_1" data-name="Layer 1" xmlns="http://www.w3.org/2000/svg" viewBox="0 0 100 100"><title>l28_4_1</title><path d="M100,11.58V70A11.57,11.57,0,0,1,88.42,81.55H81.55v6.87A11.57,11.57,0,0,1,70,100H11.58A11.57,11.57,0,0,1,0,88.42V30A11.57,11.57,0,0,1,11.58,18.45h6.87V11.58A11.57,11.57,0,0,1,30,0H88.42A11.57,11.57,0,0,1,100,11.58ZM59.72,32.35H87.45A4.2,4.2,0,0,0,90.6,31a4.44,4.44,0,0,0,1.27-3.19,4.35,4.35,0,0,0-4.42-4.42H59.72a4.23,4.23,0,0,0-3.15,1.31,4.42,4.42,0,0,0-1.28,3.19,4.36,4.36,0,0,0,4.43,4.42ZM73.21,18.26a4.57,4.57,0,0,0,3.41-1.42A4.79,4.79,0,0,0,78,13.39,4.69,4.69,0,0,0,76.62,10a4.58,4.58,0,0,0-3.41-1.43A4.51,4.51,0,0,0,69.84,10a4.69,4.69,0,0,0-1.35,3.41,4.83,4.83,0,0,0,1.35,3.45A4.43,4.43,0,0,0,73.21,18.26Zm0,28.93a4.57,4.57,0,0,0,3.41-1.42A4.69,4.69,0,0,0,78,42.4,4.79,4.79,0,0,0,76.62,39a4.58,4.58,0,0,0-3.41-1.43A4.43,4.43,0,0,0,69.84,39a4.83,4.83,0,0,0-1.35,3.45,4.72,4.72,0,0,0,1.35,3.41A4.5,4.5,0,0,0,73.21,47.19ZM27.74,76.24H24.05V54.91A3.91,3.91,0,0,0,23,52a4,4,0,0,0-2.9-1.08A7.58,7.58,0,0,0,16.31,52l-7.2,4.19A3.06,3.06,0,0,0,7.53,59a3.8,3.8,0,0,0,.91,2.45,2.68,2.68,0,0,0,2.16,1.1,3.05,3.05,0,0,0,1.57-.45L15.77,60V76.24H12.12a4.46,4.46,0,0,0-3,.81,3,3,0,0,0-.95,2.43c0,2.22,1.31,3.33,3.91,3.33H27.74q3.92,0,3.92-3.33a3,3,0,0,0-.95-2.43A4.5,4.5,0,0,0,27.74,76.24Zm9.63,8L47.58,52.17a5.23,5.23,0,0,0,.19-1,2.65,2.65,0,0,0-1-2.12,3.39,3.39,0,0,0-2.23-.81,3,3,0,0,0-1.73.54,3,3,0,0,0-1.15,1.62L31.48,82.5a3,3,0,0,0-.19,1,2.61,2.61,0,0,0,1,2.07,3.27,3.27,0,0,0,2.2.81,3.07,3.07,0,0,0,1.78-.54A3,3,0,0,0,37.37,84.25ZM70,51.09H52.36a4.37,4.37,0,0,0-3,.83,3.14,3.14,0,0,0-1,2.5,3.08,3.08,0,0,0,.92,2.43,4.5,4.5,0,0,0,3,.81H63.61L52,77.41a4.25,4.25,0,0,0-.63,2.16,3.3,3.3,0,0,0,1.21,2.59,4.17,4.17,0,0,0,2.79,1.06,4,4,0,0,0,1.92-.52,4.19,4.19,0,0,0,1.55-1.6L72.52,57.48a5.83,5.83,0,0,0,.85-3,3.52,3.52,0,0,0-.88-2.46A3.21,3.21,0,0,0,70,51.09Z"/></svg>