<svg id="Layer_1" data-name="Layer 1" xmlns="http://www.w3.org/2000/svg" viewBox="0 0 100 100"><title>l28_3_1</title><path d="M100,11.58V70A11.57,11.57,0,0,1,88.42,81.55H81.55v6.87A11.57,11.57,0,0,1,70,100H11.58A11.57,11.57,0,0,1,0,88.42V30A11.57,11.57,0,0,1,11.58,18.45h6.87V11.58A11.57,11.57,0,0,1,30,0H88.42A11.57,11.57,0,0,1,100,11.58ZM27.74,74.24H24.05V52.91A3.91,3.91,0,0,0,23,50a4,4,0,0,0-2.9-1.08A7.61,7.61,0,0,0,16.31,50l-7.2,4.19A3.05,3.05,0,0,0,7.54,57a3.83,3.83,0,0,0,.89,2.45,2.72,2.72,0,0,0,2.17,1.1,3.05,3.05,0,0,0,1.57-.45L15.77,58V74.24H12.13a4.5,4.5,0,0,0-3,.81,3,3,0,0,0-.95,2.43c0,2.22,1.3,3.33,3.92,3.33H27.74q3.92,0,3.92-3.33a3,3,0,0,0-.95-2.43A4.5,4.5,0,0,0,27.74,74.24Zm9.63,8L47.58,50.17a5,5,0,0,0,.18-1,2.64,2.64,0,0,0-1-2.12,3.39,3.39,0,0,0-2.23-.81,3,3,0,0,0-1.73.54,3,3,0,0,0-1.15,1.62L31.47,80.5a3,3,0,0,0-.18,1,2.61,2.61,0,0,0,1,2.07,3.27,3.27,0,0,0,2.2.81,3.07,3.07,0,0,0,1.78-.54A3,3,0,0,0,37.37,82.25ZM70.58,69.16h-1V52.91a3.82,3.82,0,0,0-1.22-3,4.24,4.24,0,0,0-2.92-1.08,4.42,4.42,0,0,0-2,.47,4.07,4.07,0,0,0-1.6,1.37L49,69a5,5,0,0,0-1,3,3.45,3.45,0,0,0,.94,2.48,3.39,3.39,0,0,0,2.57,1h10V77a4,4,0,0,0,1.11,3.06,4.05,4.05,0,0,0,2.9,1,4.13,4.13,0,0,0,2.92-1A4,4,0,0,0,69.59,77V75.46h1q3.92,0,3.91-3.2T70.58,69.16Zm-14.44,0,5.39-7.79v7.79ZM91,32l-7.44-7.44,6.84-6.72a4.91,4.91,0,0,0,1.5-3.48,4.49,4.49,0,0,0-1.41-3.27,4.55,4.55,0,0,0-3.33-1.41,4.8,4.8,0,0,0-3.54,1.62L77.1,17.81l-6.42-6.54a4.6,4.6,0,0,0-3.54-1.68A4.51,4.51,0,0,0,63.81,11a4.65,4.65,0,0,0-1.41,3.36,4.71,4.71,0,0,0,1.5,3.42l6.84,6.72L63.3,32a4.71,4.71,0,0,0-1.5,3.42,4.54,4.54,0,0,0,1.44,3.3,4.61,4.61,0,0,0,3.36,1.44,4.8,4.8,0,0,0,3.54-1.62l7-7.32,7,7.32a4.8,4.8,0,0,0,3.54,1.62A4.61,4.61,0,0,0,91,38.69a4.54,4.54,0,0,0,1.44-3.3A4.71,4.71,0,0,0,91,32Z"/></svg>