<svg id="Layer_1" data-name="Layer 1" xmlns="http://www.w3.org/2000/svg" viewBox="0 0 100 100"><title>l24_1_1</title><path d="M100,11.58V70A11.57,11.57,0,0,1,88.42,81.55H81.55v6.87A11.57,11.57,0,0,1,70,100H11.58A11.57,11.57,0,0,1,0,88.42V30A11.57,11.57,0,0,1,11.58,18.45h6.87V11.58A11.57,11.57,0,0,1,30,0H88.42A11.57,11.57,0,0,1,100,11.58ZM21.16,81.22q5.9,0,9-4.19t3.1-12.1q0-7.88-3.13-12.06a10.51,10.51,0,0,0-9-4.19q-5.89,0-9,4.19T9.05,64.93q0,7.92,3.11,12.1T21.16,81.22Zm0-6.26a3.23,3.23,0,0,1-3.11-2.34q-.94-2.34-.94-7.69t.94-7.68a3.24,3.24,0,0,1,6.21,0,22.19,22.19,0,0,1,.95,7.65q0,5.35-.95,7.69A3.22,3.22,0,0,1,21.16,75Zm19.62,6.12a4.15,4.15,0,0,0,3.08-1.26,4.51,4.51,0,0,0,0-6.21,4.15,4.15,0,0,0-3.08-1.26,4.2,4.2,0,0,0-3.13,1.26,4.51,4.51,0,0,0,0,6.21A4.2,4.2,0,0,0,40.78,81.08ZM63.1,59.93a8.75,8.75,0,0,0-3.81.83A7.14,7.14,0,0,0,56.53,63a12.07,12.07,0,0,1,1.68-5.88,4.33,4.33,0,0,1,3.72-2.09,6,6,0,0,1,2.07.36c.66.24,1.48.6,2.47,1.08l1,.5c.57.3,1,.51,1.35.65a3.08,3.08,0,0,0,1.13.2,2.38,2.38,0,0,0,1.91-1,3.63,3.63,0,0,0,.79-2.36A3.35,3.35,0,0,0,72.3,53a4,4,0,0,0-1.1-1.22,14.34,14.34,0,0,0-4.53-2.25,17.43,17.43,0,0,0-5.15-.81,12.21,12.21,0,0,0-7,2,13.06,13.06,0,0,0-4.63,5.78,21.73,21.73,0,0,0-1.64,8.8q0,7.65,3.46,11.79t9.81,4.14a11.65,11.65,0,0,0,5.72-1.4,10,10,0,0,0,3.93-3.89,12,12,0,0,0,.18-11,9.08,9.08,0,0,0-8.25-5ZM61,74.87a3.59,3.59,0,0,1-2.79-1.19,4.4,4.4,0,0,1-1.08-3.08,4.49,4.49,0,0,1,1.05-3.11A3.63,3.63,0,0,1,61,66.32a3.56,3.56,0,0,1,2.81,1.15,4.58,4.58,0,0,1,1,3.13,4.5,4.5,0,0,1-1,3.1A3.54,3.54,0,0,1,61,74.87ZM89,20.43H79.55V11a4.42,4.42,0,1,0-8.84,0v9.44H61.27a4.35,4.35,0,0,0-4.42,4.42A4.4,4.4,0,0,0,58.12,28a4.2,4.2,0,0,0,3.15,1.31h9.44v9.37a4.48,4.48,0,0,0,7.61,3.15,4.36,4.36,0,0,0,1.23-3.15V29.35H89A4.2,4.2,0,0,0,92.15,28a4.4,4.4,0,0,0,1.27-3.19A4.35,4.35,0,0,0,89,20.43Z"/></svg>