<svg id="Layer_1" data-name="Layer 1" xmlns="http://www.w3.org/2000/svg" viewBox="0 0 100 100"><title>l24_1_1</title><path d="M100,11.58V70A11.57,11.57,0,0,1,88.42,81.55H81.55v6.87A11.57,11.57,0,0,1,70,100H11.58A11.57,11.57,0,0,1,0,88.42V30A11.57,11.57,0,0,1,11.58,18.45h6.87V11.58A11.57,11.57,0,0,1,30,0H88.42A11.57,11.57,0,0,1,100,11.58ZM89,20.43H79.55V11a4.42,4.42,0,1,0-8.84,0v9.44H61.27a4.35,4.35,0,0,0-4.42,4.42A4.4,4.4,0,0,0,58.12,28a4.2,4.2,0,0,0,3.15,1.31h9.44v9.37a4.48,4.48,0,0,0,7.61,3.15,4.36,4.36,0,0,0,1.23-3.15V29.35H89A4.2,4.2,0,0,0,92.15,28a4.4,4.4,0,0,0,1.27-3.19A4.35,4.35,0,0,0,89,20.43ZM45.28,54a14.51,14.51,0,0,0-6.34,1.39,11.91,11.91,0,0,0-4.61,3.79q.45-6.3,2.81-9.79a7.17,7.17,0,0,1,6.19-3.49,10,10,0,0,1,3.45.6c1.1.4,2.47,1,4.12,1.8l1.65.83q1.43.75,2.25,1.08a4.85,4.85,0,0,0,1.88.34A3.94,3.94,0,0,0,59.86,49,6,6,0,0,0,61.18,45a5.43,5.43,0,0,0-.57-2.62,6.42,6.42,0,0,0-1.83-2,23.88,23.88,0,0,0-7.54-3.75,29.15,29.15,0,0,0-8.59-1.35A20.29,20.29,0,0,0,31,38.64a21.85,21.85,0,0,0-7.73,9.63,36.5,36.5,0,0,0-2.73,14.67q0,12.75,5.77,19.65t16.35,6.9a19.36,19.36,0,0,0,9.53-2.33,16.64,16.64,0,0,0,6.56-6.49,20.07,20.07,0,0,0,.3-18.3,15.58,15.58,0,0,0-5.66-6.15A15.2,15.2,0,0,0,45.28,54Zm-3.45,24.9a6,6,0,0,1-4.65-2,7.33,7.33,0,0,1-1.8-5.13,7.41,7.41,0,0,1,1.76-5.18,6,6,0,0,1,4.69-2,5.92,5.92,0,0,1,4.68,1.91,7.61,7.61,0,0,1,1.69,5.22A7.51,7.51,0,0,1,46.48,77,5.9,5.9,0,0,1,41.83,78.91Z"/></svg>