<svg id="Layer_1" data-name="Layer 1" xmlns="http://www.w3.org/2000/svg" viewBox="0 0 100 100"><title>l28_4_1</title><path d="M100,11.58V70A11.57,11.57,0,0,1,88.42,81.55H81.55v6.87A11.57,11.57,0,0,1,70,100H11.58A11.57,11.57,0,0,1,0,88.42V30A11.57,11.57,0,0,1,11.58,18.45h6.87V11.58A11.57,11.57,0,0,1,30,0H88.42A11.57,11.57,0,0,1,100,11.58ZM59.72,32.35H87.45A4.2,4.2,0,0,0,90.6,31a4.44,4.44,0,0,0,1.27-3.19,4.35,4.35,0,0,0-4.42-4.42H59.72a4.23,4.23,0,0,0-3.15,1.31,4.42,4.42,0,0,0-1.28,3.19,4.36,4.36,0,0,0,4.43,4.42ZM73.21,18.26a4.57,4.57,0,0,0,3.41-1.42A4.78,4.78,0,0,0,78,13.39,4.68,4.68,0,0,0,76.62,10a4.58,4.58,0,0,0-3.41-1.43A4.51,4.51,0,0,0,69.84,10a4.65,4.65,0,0,0-1.35,3.41,4.79,4.79,0,0,0,1.35,3.45A4.43,4.43,0,0,0,73.21,18.26Zm0,28.93a4.57,4.57,0,0,0,3.41-1.42A4.68,4.68,0,0,0,78,42.4,4.78,4.78,0,0,0,76.62,39a4.58,4.58,0,0,0-3.41-1.43A4.43,4.43,0,0,0,69.84,39a4.79,4.79,0,0,0-1.35,3.45,4.68,4.68,0,0,0,1.35,3.41A4.5,4.5,0,0,0,73.21,47.19Zm-53,37q5.9,0,9-4.19t3.1-12.1q0-7.88-3.13-12.06a10.51,10.51,0,0,0-9-4.19q-5.89,0-9,4.19T8.05,67.93q0,7.92,3.11,12.1T20.16,84.22Zm0-6.26a3.23,3.23,0,0,1-3.11-2.34q-.94-2.34-.94-7.69t.94-7.68a3.24,3.24,0,0,1,6.21,0,22.19,22.19,0,0,1,.95,7.65q0,5.35-.95,7.69A3.23,3.23,0,0,1,20.16,78Zm19.62,6.12a4.16,4.16,0,0,0,3.08-1.26,4.51,4.51,0,0,0,0-6.21,4.46,4.46,0,0,0-6.21,0,4.51,4.51,0,0,0,0,6.21A4.2,4.2,0,0,0,39.78,84.08Zm25.33-16.6a7.31,7.31,0,0,0,3.58-2.73A7.5,7.5,0,0,0,70,60.41a7.89,7.89,0,0,0-1.37-4.59,8.82,8.82,0,0,0-3.92-3.06,14.88,14.88,0,0,0-5.87-1.08,18,18,0,0,0-5.33.81,14.89,14.89,0,0,0-4.57,2.25A3.64,3.64,0,0,0,47.83,56a3.48,3.48,0,0,0-.32,1.57,3.68,3.68,0,0,0,.77,2.36,2.31,2.31,0,0,0,1.89,1,3.11,3.11,0,0,0,1.13-.2c.32-.14.78-.35,1.35-.65l.94-.45A24.77,24.77,0,0,1,56,58.48a6.86,6.86,0,0,1,2.37-.41,3.88,3.88,0,0,1,2.74.92,3.38,3.38,0,0,1,1,2.59A2.54,2.54,0,0,1,61,63.88a6.85,6.85,0,0,1-3.59.72h-2a2.56,2.56,0,0,0-2.11.94,3.71,3.71,0,0,0,0,4.5,2.57,2.57,0,0,0,2.11.95h2.8a6.8,6.8,0,0,1,3.69.76A2.82,2.82,0,0,1,63,74.27a3.14,3.14,0,0,1-1.1,2.7,6.25,6.25,0,0,1-3.62.81,8,8,0,0,1-2.59-.38,19.14,19.14,0,0,1-2.59-1.1l-.56-.25-.43-.2q-.85-.45-1.35-.66a3.08,3.08,0,0,0-1.13-.2,2.31,2.31,0,0,0-1.89,1A3.69,3.69,0,0,0,47,78.32a3.18,3.18,0,0,0,1.4,2.79,14.41,14.41,0,0,0,4.67,2.27,19.89,19.89,0,0,0,5.63.79,16.83,16.83,0,0,0,6.37-1.1,9.54,9.54,0,0,0,4.21-3.13,8.57,8.57,0,0,0,0-9.67A7.63,7.63,0,0,0,65.11,67.48Z"/></svg>