<svg id="Layer_1" data-name="Layer 1" xmlns="http://www.w3.org/2000/svg" viewBox="0 0 100 100"><title>l24_1_1</title><path d="M100,11.58V70A11.57,11.57,0,0,1,88.42,81.55H81.55v6.87A11.57,11.57,0,0,1,70,100H11.58A11.57,11.57,0,0,1,0,88.42V30A11.57,11.57,0,0,1,11.58,18.45h6.87V11.58A11.57,11.57,0,0,1,30,0H88.42A11.57,11.57,0,0,1,100,11.58ZM21.13,81.22q5.9,0,9-4.19t3.11-12.1q0-7.88-3.13-12.06a10.53,10.53,0,0,0-9-4.19q-5.89,0-9,4.19T9,64.93q0,7.92,3.1,12.1T21.13,81.22Zm0-6.26A3.22,3.22,0,0,1,18,72.62q-.95-2.34-1-7.69t1-7.68a3.24,3.24,0,0,1,6.21,0q.95,2.34.94,7.65t-.94,7.69A3.23,3.23,0,0,1,21.13,75Zm19.62,6.12a4.13,4.13,0,0,0,3.08-1.26,4.51,4.51,0,0,0,0-6.21,4.13,4.13,0,0,0-3.08-1.26,4.21,4.21,0,0,0-3.13,1.26,4.53,4.53,0,0,0,0,6.21A4.21,4.21,0,0,0,40.75,81.08Zm28-6.84h-9l6.39-6.52a20.8,20.8,0,0,0,3.75-5.07,11.23,11.23,0,0,0,1.11-5,8.25,8.25,0,0,0-1.38-4.71,8.81,8.81,0,0,0-3.89-3.15,14.57,14.57,0,0,0-5.85-1.1,18.27,18.27,0,0,0-9.94,3.06,3,3,0,0,0-1.11,1.17,4,4,0,0,0-.29,1.62,3.9,3.9,0,0,0,.77,2.41,2.3,2.3,0,0,0,1.89,1,2.65,2.65,0,0,0,.85-.13,5.62,5.62,0,0,0,.92-.43l.7-.38.9-.45a23.26,23.26,0,0,1,2.54-1.11,7.47,7.47,0,0,1,2.41-.38,3.56,3.56,0,0,1,2.5.81,3,3,0,0,1,.88,2.34q0,2.61-3,5.72l-9.54,9.94a4.93,4.93,0,0,0-1.53,3.51,3.35,3.35,0,0,0,.94,2.45,3.41,3.41,0,0,0,2.57,1H68.74a4.54,4.54,0,0,0,3-.81,3.12,3.12,0,0,0,1-2.52,3,3,0,0,0-1-2.45A4.6,4.6,0,0,0,68.74,74.24ZM89,20.43H79.55V11a4.42,4.42,0,1,0-8.84,0v9.44H61.27a4.37,4.37,0,0,0-4.43,4.42A4.41,4.41,0,0,0,58.12,28a4.2,4.2,0,0,0,3.15,1.31h9.44v9.37a4.48,4.48,0,0,0,7.61,3.15,4.36,4.36,0,0,0,1.23-3.15V29.35H89A4.2,4.2,0,0,0,92.15,28a4.44,4.44,0,0,0,1.27-3.19A4.35,4.35,0,0,0,89,20.43Z"/></svg>