<svg id="Layer_1" data-name="Layer 1" xmlns="http://www.w3.org/2000/svg" viewBox="0 0 100 100"><title>l28_3_1</title><path d="M100,11.58V70A11.57,11.57,0,0,1,88.42,81.55H81.55v6.87A11.57,11.57,0,0,1,70,100H11.58A11.57,11.57,0,0,1,0,88.42V30A11.57,11.57,0,0,1,11.58,18.45h6.87V11.58A11.57,11.57,0,0,1,30,0H88.42A11.57,11.57,0,0,1,100,11.58ZM27.74,74.24H24.05V52.91A3.91,3.91,0,0,0,23,50a4,4,0,0,0-2.9-1.08A7.61,7.61,0,0,0,16.31,50l-7.2,4.19A3.05,3.05,0,0,0,7.54,57a3.77,3.77,0,0,0,.9,2.45,2.69,2.69,0,0,0,2.16,1.1,3.05,3.05,0,0,0,1.57-.45L15.77,58V74.24H12.13a4.5,4.5,0,0,0-3,.81,3,3,0,0,0-.95,2.43q0,3.33,3.92,3.33H27.74q3.92,0,3.92-3.33a3,3,0,0,0-.95-2.43A4.5,4.5,0,0,0,27.74,74.24Zm9.63,8L47.59,50.17a5,5,0,0,0,.18-1,2.65,2.65,0,0,0-1-2.12,3.39,3.39,0,0,0-2.23-.81,3,3,0,0,0-1.73.54,3,3,0,0,0-1.15,1.62L31.48,80.5a3,3,0,0,0-.18,1,2.6,2.6,0,0,0,.94,2.07,3.28,3.28,0,0,0,2.21.81,3,3,0,0,0,2.92-2.16ZM63.11,60.07a11.22,11.22,0,0,0-4.45.81V55.34h9.72q3.91,0,3.91-3.15t-3.91-3.1h-14a3.82,3.82,0,0,0-2.83,1,3.9,3.9,0,0,0-1,2.88V65.15a2.45,2.45,0,0,0,.86,2,3.1,3.1,0,0,0,2.11.74,4.34,4.34,0,0,0,2-.49,16,16,0,0,1,2.58-.81,12.4,12.4,0,0,1,2.46-.23,5.12,5.12,0,0,1,3.51,1.13,4,4,0,0,1,1.26,3.15,3.9,3.9,0,0,1-1.22,3.17,5.79,5.79,0,0,1-3.73,1,7.45,7.45,0,0,1-2.5-.4,23.69,23.69,0,0,1-2.54-1.08l-.9-.45c-.6-.33-1.06-.56-1.35-.68A3.08,3.08,0,0,0,52,72a2.31,2.31,0,0,0-1.89,1,3.69,3.69,0,0,0-.76,2.36,3.38,3.38,0,0,0,.33,1.55,4,4,0,0,0,1.06,1.24,14.9,14.9,0,0,0,4.61,2.25,18.82,18.82,0,0,0,5.47.81,14.66,14.66,0,0,0,6.44-1.35A10.18,10.18,0,0,0,71.62,76a11.55,11.55,0,0,0,.24-11,9,9,0,0,0-3.55-3.6A10.36,10.36,0,0,0,63.11,60.07ZM91,32l-7.44-7.44,6.84-6.72a4.91,4.91,0,0,0,1.5-3.48,4.49,4.49,0,0,0-1.41-3.27,4.55,4.55,0,0,0-3.33-1.41,4.8,4.8,0,0,0-3.54,1.62L77.1,17.81l-6.42-6.54a4.6,4.6,0,0,0-3.54-1.68A4.51,4.51,0,0,0,63.81,11a4.65,4.65,0,0,0-1.41,3.36,4.71,4.71,0,0,0,1.5,3.42l6.84,6.72L63.3,32a4.71,4.71,0,0,0-1.5,3.42,4.54,4.54,0,0,0,1.44,3.3,4.61,4.61,0,0,0,3.36,1.44,4.8,4.8,0,0,0,3.54-1.62l7-7.32,7,7.32a4.8,4.8,0,0,0,3.54,1.62A4.61,4.61,0,0,0,91,38.69a4.54,4.54,0,0,0,1.44-3.3A4.71,4.71,0,0,0,91,32Z"/></svg>