<svg id="Layer_1" data-name="Layer 1" xmlns="http://www.w3.org/2000/svg" viewBox="0 0 100 100"><title>l24_1_1</title><path d="M100,11.58V70A11.57,11.57,0,0,1,88.42,81.55H81.55v6.87A11.57,11.57,0,0,1,70,100H11.58A11.57,11.57,0,0,1,0,88.42V30A11.57,11.57,0,0,1,11.58,18.45h6.87V11.58A11.57,11.57,0,0,1,30,0H88.42A11.57,11.57,0,0,1,100,11.58ZM89,20.43H79.55V11a4.42,4.42,0,1,0-8.84,0v9.44H61.27a4.35,4.35,0,0,0-4.42,4.42A4.4,4.4,0,0,0,58.12,28a4.2,4.2,0,0,0,3.15,1.31h9.44v9.37a4.48,4.48,0,0,0,7.61,3.15,4.36,4.36,0,0,0,1.23-3.15V29.35H89A4.2,4.2,0,0,0,92.15,28a4.4,4.4,0,0,0,1.27-3.19A4.35,4.35,0,0,0,89,20.43ZM56.68,77.86H50.53V42.31a6.52,6.52,0,0,0-1.84-4.87,6.63,6.63,0,0,0-4.84-1.8,12.65,12.65,0,0,0-6.22,1.87l-12,7A5.09,5.09,0,0,0,23,49.14a6.28,6.28,0,0,0,1.5,4.08,4.5,4.5,0,0,0,3.6,1.84,5.16,5.16,0,0,0,2.63-.75l6-3.52V77.86H30.65q-3.37,0-4.95,1.35a5,5,0,0,0-1.58,4.05q0,5.55,6.53,5.55h26q6.52,0,6.52-5.55a5,5,0,0,0-1.57-4.05Q60.05,77.86,56.68,77.86Z"/></svg>