<svg id="Layer_1" data-name="Layer 1" xmlns="http://www.w3.org/2000/svg" viewBox="0 0 100 100"><title>l28_4_1</title><path d="M100,11.58V70A11.57,11.57,0,0,1,88.42,81.55H81.55v6.87A11.57,11.57,0,0,1,70,100H11.58A11.57,11.57,0,0,1,0,88.42V30A11.57,11.57,0,0,1,11.58,18.45h6.87V11.58A11.57,11.57,0,0,1,30,0H88.42A11.57,11.57,0,0,1,100,11.58ZM59.72,32.35H87.45A4.2,4.2,0,0,0,90.6,31a4.44,4.44,0,0,0,1.27-3.19,4.35,4.35,0,0,0-4.42-4.42H59.72a4.23,4.23,0,0,0-3.15,1.31,4.42,4.42,0,0,0-1.28,3.19,4.36,4.36,0,0,0,4.43,4.42ZM73.21,18.26a4.57,4.57,0,0,0,3.41-1.42A4.79,4.79,0,0,0,78,13.39,4.69,4.69,0,0,0,76.62,10a4.58,4.58,0,0,0-3.41-1.43A4.51,4.51,0,0,0,69.84,10a4.65,4.65,0,0,0-1.35,3.41,4.79,4.79,0,0,0,1.35,3.45A4.43,4.43,0,0,0,73.21,18.26Zm0,28.93a4.57,4.57,0,0,0,3.41-1.42A4.69,4.69,0,0,0,78,42.4,4.79,4.79,0,0,0,76.62,39a4.58,4.58,0,0,0-3.41-1.43A4.43,4.43,0,0,0,69.84,39a4.79,4.79,0,0,0-1.35,3.45,4.68,4.68,0,0,0,1.35,3.41A4.5,4.5,0,0,0,73.21,47.19ZM27.74,76.24H24.05V54.91A3.91,3.91,0,0,0,23,52a4,4,0,0,0-2.9-1.08A7.61,7.61,0,0,0,16.31,52l-7.2,4.19A3.05,3.05,0,0,0,7.54,59a3.83,3.83,0,0,0,.89,2.45,2.72,2.72,0,0,0,2.17,1.1,3.05,3.05,0,0,0,1.57-.45L15.77,60V76.24H12.13a4.5,4.5,0,0,0-3,.81,3,3,0,0,0-.95,2.43q0,3.33,3.92,3.33H27.74q3.92,0,3.92-3.33a3,3,0,0,0-.95-2.43A4.5,4.5,0,0,0,27.74,76.24Zm9.63,8L47.58,52.17a5.23,5.23,0,0,0,.19-1,2.65,2.65,0,0,0-1-2.12,3.39,3.39,0,0,0-2.23-.81,3,3,0,0,0-1.73.54,3,3,0,0,0-1.15,1.62L31.48,82.5a2.77,2.77,0,0,0-.19,1,2.61,2.61,0,0,0,1,2.07,3.27,3.27,0,0,0,2.2.81,3.07,3.07,0,0,0,1.78-.54A3,3,0,0,0,37.37,84.25ZM70.58,71.16h-1V54.91a3.82,3.82,0,0,0-1.22-3,4.24,4.24,0,0,0-2.92-1.08,4.42,4.42,0,0,0-2,.47,4.07,4.07,0,0,0-1.6,1.37L49,71a5,5,0,0,0-1,3,3.49,3.49,0,0,0,.94,2.48,3.39,3.39,0,0,0,2.57,1h10V79a4,4,0,0,0,1.11,3.06,4.05,4.05,0,0,0,2.9,1,4.13,4.13,0,0,0,2.92-1A4,4,0,0,0,69.59,79V77.46h1q3.92,0,3.91-3.2T70.58,71.16Zm-14.44,0,5.39-7.79v7.79Z"/></svg>