<svg id="Layer_1" data-name="Layer 1" xmlns="http://www.w3.org/2000/svg" viewBox="0 0 100 100"><title>l24_1_1</title><path d="M100,11.58V70A11.57,11.57,0,0,1,88.42,81.55H81.55v6.87A11.57,11.57,0,0,1,70,100H11.58A11.57,11.57,0,0,1,0,88.42V30A11.57,11.57,0,0,1,11.58,18.45h6.87V11.58A11.57,11.57,0,0,1,30,0H88.42A11.57,11.57,0,0,1,100,11.58ZM21.16,81.22q5.9,0,9-4.19t3.1-12.1q0-7.88-3.13-12.06a10.51,10.51,0,0,0-9-4.19q-5.89,0-9,4.19T9.05,64.93q0,7.92,3.11,12.1T21.16,81.22Zm0-6.26a3.23,3.23,0,0,1-3.11-2.34q-.94-2.34-.94-7.69t.94-7.68a3.24,3.24,0,0,1,6.21,0,22.19,22.19,0,0,1,.95,7.65q0,5.35-.95,7.69A3.22,3.22,0,0,1,21.16,75Zm19.62,6.12a4.15,4.15,0,0,0,3.08-1.26,4.51,4.51,0,0,0,0-6.21,4.15,4.15,0,0,0-3.08-1.26,4.2,4.2,0,0,0-3.13,1.26,4.51,4.51,0,0,0,0,6.21A4.2,4.2,0,0,0,40.78,81.08ZM70.07,69.16h-1V52.91a3.81,3.81,0,0,0-1.21-3,4.26,4.26,0,0,0-2.93-1.08,4.42,4.42,0,0,0-2,.47,4.07,4.07,0,0,0-1.6,1.37L48.47,69a5,5,0,0,0-1,3,3.46,3.46,0,0,0,1,2.48,3.37,3.37,0,0,0,2.56,1H61V77a4,4,0,0,0,1.1,3.06,4.05,4.05,0,0,0,2.9,1,4.16,4.16,0,0,0,2.93-1A4,4,0,0,0,69.08,77V75.46h1q3.92,0,3.92-3.2T70.07,69.16Zm-14.44,0L61,61.37v7.79ZM89,20.43H79.55V11a4.42,4.42,0,1,0-8.84,0v9.44H61.27a4.35,4.35,0,0,0-4.42,4.42A4.4,4.4,0,0,0,58.12,28a4.2,4.2,0,0,0,3.15,1.31h9.44v9.37a4.48,4.48,0,0,0,7.61,3.15,4.36,4.36,0,0,0,1.23-3.15V29.35H89A4.2,4.2,0,0,0,92.15,28a4.4,4.4,0,0,0,1.27-3.19A4.35,4.35,0,0,0,89,20.43Z"/></svg>