<svg id="Layer_1" data-name="Layer 1" xmlns="http://www.w3.org/2000/svg" viewBox="0 0 100 100"><title>l24_1_1</title><path d="M100,11.58V70A11.57,11.57,0,0,1,88.42,81.55H81.55v6.87A11.57,11.57,0,0,1,70,100H11.58A11.57,11.57,0,0,1,0,88.42V30A11.57,11.57,0,0,1,11.58,18.45h6.87V11.58A11.57,11.57,0,0,1,30,0H88.42A11.57,11.57,0,0,1,100,11.58ZM89,20.43H79.55V11a4.42,4.42,0,1,0-8.84,0v9.44H61.27a4.35,4.35,0,0,0-4.42,4.42A4.4,4.4,0,0,0,58.12,28a4.2,4.2,0,0,0,3.15,1.31h9.44v9.37a4.34,4.34,0,0,0,4.42,4.42,4.26,4.26,0,0,0,3.19-1.27,4.36,4.36,0,0,0,1.23-3.15V29.35H89A4.2,4.2,0,0,0,92.15,28a4.4,4.4,0,0,0,1.27-3.19A4.35,4.35,0,0,0,89,20.43ZM44.45,54.24A18.72,18.72,0,0,0,37,55.59V46.36h16.2q6.52,0,6.52-5.25t-6.52-5.17H30a6.41,6.41,0,0,0-4.73,1.65,6.5,6.5,0,0,0-1.65,4.8V62.71A4.1,4.1,0,0,0,25,66a5.15,5.15,0,0,0,3.52,1.24,7.18,7.18,0,0,0,3.38-.82A26.39,26.39,0,0,1,36.24,65a20.47,20.47,0,0,1,4.09-.38,8.48,8.48,0,0,1,5.85,1.88,6.67,6.67,0,0,1,2.1,5.25q0,3.6-2,5.28T40,78.76a12.49,12.49,0,0,1-4.17-.67,42.2,42.2,0,0,1-4.23-1.8l-1.5-.75a23.16,23.16,0,0,0-2.25-1.13,5.11,5.11,0,0,0-1.88-.3,3.89,3.89,0,0,0-3.15,1.61,6.16,6.16,0,0,0-1.27,3.94,5.5,5.5,0,0,0,.56,2.59,6.51,6.51,0,0,0,1.76,2.06,24.72,24.72,0,0,0,7.69,3.75,31.26,31.26,0,0,0,9.11,1.35,24.36,24.36,0,0,0,10.73-2.25,16.87,16.87,0,0,0,7.2-6.37,17.76,17.76,0,0,0,2.55-9.53A18.13,18.13,0,0,0,59,62.37a15.28,15.28,0,0,0-5.93-6A17.34,17.34,0,0,0,44.45,54.24Z"/></svg>