<svg id="Layer_1" data-name="Layer 1" xmlns="http://www.w3.org/2000/svg" viewBox="0 0 100 100"><title>l28_4_1</title><path d="M100,11.58V70A11.57,11.57,0,0,1,88.42,81.55H81.55v6.87A11.57,11.57,0,0,1,70,100H11.58A11.57,11.57,0,0,1,0,88.42V30A11.57,11.57,0,0,1,11.58,18.45h6.87V11.58A11.57,11.57,0,0,1,30,0H88.42A11.57,11.57,0,0,1,100,11.58ZM59.72,32.35H87.45A4.2,4.2,0,0,0,90.6,31a4.44,4.44,0,0,0,1.27-3.19,4.35,4.35,0,0,0-4.42-4.42H59.72a4.23,4.23,0,0,0-3.15,1.31,4.42,4.42,0,0,0-1.28,3.19,4.36,4.36,0,0,0,4.43,4.42ZM73.21,18.26a4.57,4.57,0,0,0,3.41-1.42A4.79,4.79,0,0,0,78,13.39,4.69,4.69,0,0,0,76.62,10a4.58,4.58,0,0,0-3.41-1.43A4.51,4.51,0,0,0,69.84,10a4.65,4.65,0,0,0-1.35,3.41,4.79,4.79,0,0,0,1.35,3.45A4.43,4.43,0,0,0,73.21,18.26Zm0,28.93a4.57,4.57,0,0,0,3.41-1.42A4.69,4.69,0,0,0,78,42.4,4.79,4.79,0,0,0,76.62,39a4.58,4.58,0,0,0-3.41-1.43A4.43,4.43,0,0,0,69.84,39a4.79,4.79,0,0,0-1.35,3.45,4.68,4.68,0,0,0,1.35,3.41A4.5,4.5,0,0,0,73.21,47.19Zm-52.39,37q5.9,0,9-4.19t3.11-12.1q0-7.88-3.13-12.06a10.54,10.54,0,0,0-9-4.19q-5.89,0-9,4.19T8.72,67.93q0,7.92,3.1,12.1T20.82,84.22Zm0-6.26a3.22,3.22,0,0,1-3.1-2.34q-.95-2.34-.95-7.69t.95-7.68a3.24,3.24,0,0,1,6.21,0q.95,2.34.94,7.65t-.94,7.69A3.23,3.23,0,0,1,20.82,78Zm19.62,6.12a4.13,4.13,0,0,0,3.08-1.26,4.51,4.51,0,0,0,0-6.21,4.13,4.13,0,0,0-3.08-1.26,4.21,4.21,0,0,0-3.13,1.26,4.53,4.53,0,0,0,0,6.21A4.21,4.21,0,0,0,40.44,84.08Zm21.83-21a11.28,11.28,0,0,0-4.46.81V58.34h9.72q3.91,0,3.92-3.15t-3.92-3.1h-14a3.82,3.82,0,0,0-2.83,1,3.9,3.9,0,0,0-1,2.88V68.15a2.47,2.47,0,0,0,.85,2,3.15,3.15,0,0,0,2.12.74,4.28,4.28,0,0,0,2-.49,15.81,15.81,0,0,1,2.59-.81,12.22,12.22,0,0,1,2.45-.23,5.09,5.09,0,0,1,3.51,1.13,4,4,0,0,1,1.26,3.15,3.9,3.9,0,0,1-1.21,3.17,5.8,5.8,0,0,1-3.74,1,7.49,7.49,0,0,1-2.5-.4,25.54,25.54,0,0,1-2.54-1.08l-.9-.45a14,14,0,0,0-1.35-.68A3,3,0,0,0,51.2,75a2.31,2.31,0,0,0-1.89,1,3.7,3.7,0,0,0-.77,2.36,3.25,3.25,0,0,0,.34,1.55,3.88,3.88,0,0,0,1.06,1.24,14.79,14.79,0,0,0,4.61,2.25,18.77,18.77,0,0,0,5.47.81,14.58,14.58,0,0,0,6.43-1.35A10.12,10.12,0,0,0,70.77,79a10.66,10.66,0,0,0,1.53-5.72A10.89,10.89,0,0,0,71,68a9.13,9.13,0,0,0-3.56-3.6A10.3,10.3,0,0,0,62.27,63.07Z"/></svg>