<svg id="Layer_1" data-name="Layer 1" xmlns="http://www.w3.org/2000/svg" viewBox="0 0 100 100"><title>l28_4_1</title><path d="M100,11.58V70A11.57,11.57,0,0,1,88.42,81.55H81.55v6.87A11.57,11.57,0,0,1,70,100H11.58A11.57,11.57,0,0,1,0,88.42V30A11.57,11.57,0,0,1,11.58,18.45h6.87V11.58A11.57,11.57,0,0,1,30,0H88.42A11.57,11.57,0,0,1,100,11.58ZM59.72,32.35H87.45A4.2,4.2,0,0,0,90.6,31a4.44,4.44,0,0,0,1.27-3.19,4.35,4.35,0,0,0-4.42-4.42H59.72a4.23,4.23,0,0,0-3.15,1.31,4.42,4.42,0,0,0-1.28,3.19,4.36,4.36,0,0,0,4.43,4.42ZM73.21,18.26a4.57,4.57,0,0,0,3.41-1.42A4.79,4.79,0,0,0,78,13.39,4.69,4.69,0,0,0,76.62,10a4.58,4.58,0,0,0-3.41-1.43A4.51,4.51,0,0,0,69.84,10a4.65,4.65,0,0,0-1.35,3.41,4.79,4.79,0,0,0,1.35,3.45A4.43,4.43,0,0,0,73.21,18.26Zm0,28.93a4.57,4.57,0,0,0,3.41-1.42A4.69,4.69,0,0,0,78,42.4,4.79,4.79,0,0,0,76.62,39a4.58,4.58,0,0,0-3.41-1.43A4.43,4.43,0,0,0,69.84,39a4.79,4.79,0,0,0-1.35,3.45,4.68,4.68,0,0,0,1.35,3.41A4.5,4.5,0,0,0,73.21,47.19Zm-53,37q5.9,0,9-4.19t3.1-12.1q0-7.88-3.13-12.06a10.53,10.53,0,0,0-9-4.19q-5.91,0-9,4.19T8.05,67.93q0,7.92,3.11,12.1T20.16,84.22Zm0-6.26a3.23,3.23,0,0,1-3.11-2.34q-.94-2.34-.94-7.69t.94-7.68a3.24,3.24,0,0,1,6.21,0,22.19,22.19,0,0,1,.95,7.65q0,5.35-.95,7.69A3.23,3.23,0,0,1,20.16,78Zm19.62,6.12a4.15,4.15,0,0,0,3.08-1.26,4.51,4.51,0,0,0,0-6.21,4.15,4.15,0,0,0-3.08-1.26,4.2,4.2,0,0,0-3.13,1.26,4.51,4.51,0,0,0,0,6.21A4.2,4.2,0,0,0,39.78,84.08Zm18.49-32.4a11.62,11.62,0,0,0-5.72,1.4A9.94,9.94,0,0,0,48.62,57a12,12,0,0,0-.18,11,9.19,9.19,0,0,0,3.4,3.69A9.08,9.08,0,0,0,56.69,73a8.65,8.65,0,0,0,3.81-.84,7.1,7.1,0,0,0,2.76-2.27,11.89,11.89,0,0,1-1.68,5.87,4.32,4.32,0,0,1-3.72,2.1,5.91,5.91,0,0,1-2.06-.36,26.14,26.14,0,0,1-2.48-1.08l-1-.5A14.94,14.94,0,0,0,51,75.24a2.88,2.88,0,0,0-1.13-.2,2.4,2.4,0,0,0-1.91,1,3.68,3.68,0,0,0-.79,2.37,3.35,3.35,0,0,0,.34,1.57,4,4,0,0,0,1.1,1.22,14.34,14.34,0,0,0,4.53,2.25,17.43,17.43,0,0,0,5.15.81,12.21,12.21,0,0,0,7-2,13.06,13.06,0,0,0,4.63-5.78,21.73,21.73,0,0,0,1.65-8.8q0-7.65-3.47-11.79T58.27,51.68Zm.49,14.9A3.57,3.57,0,0,1,56,65.43a4.6,4.6,0,0,1-1-3.13,4.5,4.5,0,0,1,1-3.1A3.54,3.54,0,0,1,58.76,58a3.59,3.59,0,0,1,2.79,1.19,4.4,4.4,0,0,1,1.08,3.08,4.49,4.49,0,0,1-1.05,3.11A3.63,3.63,0,0,1,58.76,66.58Z"/></svg>