<svg id="Layer_1" data-name="Layer 1" xmlns="http://www.w3.org/2000/svg" viewBox="0 0 100 100"><title>l28_2_1</title><path d="M100,11.58V70A11.57,11.57,0,0,1,88.42,81.55H81.55v6.87A11.57,11.57,0,0,1,70,100H11.58A11.57,11.57,0,0,1,0,88.42V30A11.57,11.57,0,0,1,11.58,18.45h6.87V11.58A11.57,11.57,0,0,1,30,0H88.42A11.57,11.57,0,0,1,100,11.58ZM21.16,81.22q5.9,0,9-4.19t3.1-12.1q0-7.88-3.13-12.06a10.51,10.51,0,0,0-9-4.19q-5.89,0-9,4.19T9.05,64.93q0,7.92,3.11,12.1T21.16,81.22Zm0-6.26a3.23,3.23,0,0,1-3.11-2.34q-.94-2.34-.94-7.69t.94-7.68a3.24,3.24,0,0,1,6.21,0,22.19,22.19,0,0,1,.95,7.65q0,5.35-.95,7.69A3.22,3.22,0,0,1,21.16,75Zm19.62,6.12a4.15,4.15,0,0,0,3.08-1.26,4.51,4.51,0,0,0,0-6.21,4.15,4.15,0,0,0-3.08-1.26,4.2,4.2,0,0,0-3.13,1.26,4.51,4.51,0,0,0,0,6.21A4.2,4.2,0,0,0,40.78,81.08Zm21.82-21a11.22,11.22,0,0,0-4.45.81V55.34h9.72q3.91,0,3.91-3.15t-3.91-3.1h-14a3.83,3.83,0,0,0-2.84,1,3.9,3.9,0,0,0-1,2.88V65.15a2.48,2.48,0,0,0,.86,2,3.1,3.1,0,0,0,2.11.74,4.32,4.32,0,0,0,2-.49,16,16,0,0,1,2.58-.81,12.4,12.4,0,0,1,2.46-.23,5.11,5.11,0,0,1,3.51,1.13A4,4,0,0,1,64.9,70.6a3.9,3.9,0,0,1-1.22,3.17,5.77,5.77,0,0,1-3.73,1,7.45,7.45,0,0,1-2.5-.4,23.69,23.69,0,0,1-2.54-1.08l-.9-.45a14,14,0,0,0-1.35-.68A3.08,3.08,0,0,0,51.53,72a2.31,2.31,0,0,0-1.89,1,3.69,3.69,0,0,0-.76,2.36,3.38,3.38,0,0,0,.33,1.55,4,4,0,0,0,1.06,1.24,14.9,14.9,0,0,0,4.61,2.25,18.82,18.82,0,0,0,5.47.81,14.66,14.66,0,0,0,6.44-1.35A10.18,10.18,0,0,0,71.11,76a11.55,11.55,0,0,0,.24-11,9,9,0,0,0-3.55-3.6A10.36,10.36,0,0,0,62.6,60.07Zm5.49-28.54H82.18a6.81,6.81,0,0,0,4.68-1.39,4.92,4.92,0,0,0,1.54-3.86,4.79,4.79,0,0,0-1.54-3.82,6.92,6.92,0,0,0-4.68-1.35H68.09q-6.23,0-6.22,5.17T68.09,31.53Z"/></svg>