<svg id="Layer_1" data-name="Layer 1" xmlns="http://www.w3.org/2000/svg" viewBox="0 0 100 100"><title>l24_1_1</title><path d="M100,11.58V70A11.57,11.57,0,0,1,88.42,81.55H81.55v6.87A11.57,11.57,0,0,1,70,100H11.58A11.57,11.57,0,0,1,0,88.42V30A11.57,11.57,0,0,1,11.58,18.45h6.87V11.58A11.57,11.57,0,0,1,30,0H88.42A11.57,11.57,0,0,1,100,11.58ZM29,74.24H25.27V52.91A3.87,3.87,0,0,0,24.17,50a4,4,0,0,0-2.9-1.08A7.61,7.61,0,0,0,17.53,50l-7.2,4.19A3.05,3.05,0,0,0,8.76,57a3.79,3.79,0,0,0,.9,2.45,2.69,2.69,0,0,0,2.16,1.1,3.05,3.05,0,0,0,1.57-.45L17,58V74.24H13.35a4.5,4.5,0,0,0-3,.81,3,3,0,0,0-1,2.43q0,3.33,3.92,3.33H29q3.91,0,3.92-3.33a3,3,0,0,0-1-2.43A4.5,4.5,0,0,0,29,74.24Zm9.63,8L48.81,50.17a5,5,0,0,0,.18-1,2.62,2.62,0,0,0-1-2.12,3.37,3.37,0,0,0-2.23-.81,3,3,0,0,0-1.73.54,3.09,3.09,0,0,0-1.15,1.62L32.7,80.5a3,3,0,0,0-.18,1,2.6,2.6,0,0,0,.94,2.07,3.3,3.3,0,0,0,2.21.81,3,3,0,0,0,2.92-2.16ZM64.83,59.93a8.71,8.71,0,0,0-3.8.83A7.17,7.17,0,0,0,58.26,63,12,12,0,0,1,60,57.16a4.31,4.31,0,0,1,3.71-2.09,6,6,0,0,1,2.07.36c.66.24,1.48.6,2.47,1.08l1,.5c.57.3,1,.51,1.35.65a3.08,3.08,0,0,0,1.13.2,2.36,2.36,0,0,0,1.91-1,3.63,3.63,0,0,0,.79-2.36A3.23,3.23,0,0,0,74,53a3.84,3.84,0,0,0-1.1-1.22,14.39,14.39,0,0,0-4.52-2.25,17.54,17.54,0,0,0-5.16-.81,12.15,12.15,0,0,0-7,2,13,13,0,0,0-4.64,5.78A21.9,21.9,0,0,0,50,65.29q0,7.65,3.46,11.79t9.81,4.14A11.62,11.62,0,0,0,69,79.82a10.09,10.09,0,0,0,3.94-3.89,12.09,12.09,0,0,0,.18-11,9.26,9.26,0,0,0-3.4-3.69A9.05,9.05,0,0,0,64.83,59.93ZM62.76,74.87A3.61,3.61,0,0,1,60,73.68a5,5,0,0,1,0-6.19,3.59,3.59,0,0,1,2.81-1.17,3.53,3.53,0,0,1,2.81,1.15,5.27,5.27,0,0,1,0,6.23A3.54,3.54,0,0,1,62.76,74.87ZM89,20.43H79.55V11a4.42,4.42,0,1,0-8.84,0v9.44H61.27a4.37,4.37,0,0,0-4.43,4.42A4.41,4.41,0,0,0,58.12,28a4.23,4.23,0,0,0,3.15,1.31h9.44v9.37a4.48,4.48,0,0,0,7.61,3.15,4.36,4.36,0,0,0,1.23-3.15V29.35H89A4.23,4.23,0,0,0,92.15,28a4.4,4.4,0,0,0,1.27-3.19A4.35,4.35,0,0,0,89,20.43Z"/></svg>