<svg id="Layer_1" data-name="Layer 1" xmlns="http://www.w3.org/2000/svg" viewBox="0 0 100 100"><title>l28_2_1</title><path d="M100,11.58V70A11.57,11.57,0,0,1,88.42,81.55H81.55v6.87A11.57,11.57,0,0,1,70,100H11.58A11.57,11.57,0,0,1,0,88.42V30A11.57,11.57,0,0,1,11.58,18.45h6.87V11.58A11.57,11.57,0,0,1,30,0H88.42A11.57,11.57,0,0,1,100,11.58ZM29,74.24H25.27V52.91A3.87,3.87,0,0,0,24.17,50a4,4,0,0,0-2.9-1.08A7.61,7.61,0,0,0,17.53,50l-7.2,4.19A3.05,3.05,0,0,0,8.76,57a3.79,3.79,0,0,0,.9,2.45,2.69,2.69,0,0,0,2.16,1.1,3.05,3.05,0,0,0,1.57-.45L17,58V74.24H13.35a4.5,4.5,0,0,0-3,.81,3,3,0,0,0-1,2.43q0,3.33,3.92,3.33H29q3.91,0,3.92-3.33a3,3,0,0,0-1-2.43A4.5,4.5,0,0,0,29,74.24Zm9.63,8L48.81,50.17a5,5,0,0,0,.18-1,2.62,2.62,0,0,0-1-2.12,3.37,3.37,0,0,0-2.23-.81,3,3,0,0,0-1.73.54,3.09,3.09,0,0,0-1.15,1.62L32.7,80.5a3,3,0,0,0-.18,1,2.6,2.6,0,0,0,.94,2.07,3.3,3.3,0,0,0,2.21.81,3,3,0,0,0,2.92-2.16ZM64.33,60.07a11.22,11.22,0,0,0-4.45.81V55.34H69.6q3.91,0,3.91-3.15t-3.91-3.1H55.65a3.85,3.85,0,0,0-2.84,1,3.9,3.9,0,0,0-1,2.88V65.15a2.48,2.48,0,0,0,.86,2,3.12,3.12,0,0,0,2.11.74,4.32,4.32,0,0,0,2-.49,15.81,15.81,0,0,1,2.59-.81,12.22,12.22,0,0,1,2.45-.23,5.09,5.09,0,0,1,3.51,1.13,4,4,0,0,1,1.26,3.15,3.9,3.9,0,0,1-1.22,3.17,5.77,5.77,0,0,1-3.73,1,7.49,7.49,0,0,1-2.5-.4,25.54,25.54,0,0,1-2.54-1.08l-.9-.45a14,14,0,0,0-1.35-.68A3.08,3.08,0,0,0,53.26,72a2.31,2.31,0,0,0-1.89,1,3.67,3.67,0,0,0-.76,2.36A3.25,3.25,0,0,0,51,76.87a3.84,3.84,0,0,0,1,1.24,14.85,14.85,0,0,0,4.62,2.25,18.71,18.71,0,0,0,5.46.81,14.63,14.63,0,0,0,6.44-1.35A10.12,10.12,0,0,0,72.84,76a10.66,10.66,0,0,0,1.53-5.72A10.86,10.86,0,0,0,73.09,65a9.13,9.13,0,0,0-3.56-3.6A10.33,10.33,0,0,0,64.33,60.07Zm3.76-28.54H82.18a6.81,6.81,0,0,0,4.68-1.39,4.92,4.92,0,0,0,1.54-3.86,4.79,4.79,0,0,0-1.54-3.82,6.92,6.92,0,0,0-4.68-1.35H68.09q-6.23,0-6.22,5.17T68.09,31.53Z"/></svg>