<svg id="Layer_1" data-name="Layer 1" xmlns="http://www.w3.org/2000/svg" viewBox="0 0 100 100"><title>l28_4_1</title><path d="M100,11.58V70A11.57,11.57,0,0,1,88.42,81.55H81.55v6.87A11.57,11.57,0,0,1,70,100H11.58A11.57,11.57,0,0,1,0,88.42V30A11.57,11.57,0,0,1,11.58,18.45h6.87V11.58A11.57,11.57,0,0,1,30,0H88.42A11.57,11.57,0,0,1,100,11.58ZM59.72,32.35H87.45A4.2,4.2,0,0,0,90.6,31a4.44,4.44,0,0,0,1.27-3.19,4.35,4.35,0,0,0-4.42-4.42H59.72a4.23,4.23,0,0,0-3.15,1.31,4.42,4.42,0,0,0-1.28,3.19,4.36,4.36,0,0,0,4.43,4.42ZM73.21,18.26a4.57,4.57,0,0,0,3.41-1.42A4.79,4.79,0,0,0,78,13.39,4.69,4.69,0,0,0,76.62,10a4.58,4.58,0,0,0-3.41-1.43A4.51,4.51,0,0,0,69.84,10a4.65,4.65,0,0,0-1.35,3.41,4.79,4.79,0,0,0,1.35,3.45A4.43,4.43,0,0,0,73.21,18.26Zm0,28.93a4.57,4.57,0,0,0,3.41-1.42A4.69,4.69,0,0,0,78,42.4,4.79,4.79,0,0,0,76.62,39a4.58,4.58,0,0,0-3.41-1.43A4.43,4.43,0,0,0,69.84,39a4.79,4.79,0,0,0-1.35,3.45,4.68,4.68,0,0,0,1.35,3.41A4.5,4.5,0,0,0,73.21,47.19ZM27.74,76.24H24.05V54.91A3.91,3.91,0,0,0,23,52a4,4,0,0,0-2.9-1.08A7.61,7.61,0,0,0,16.31,52l-7.2,4.19A3.05,3.05,0,0,0,7.54,59a3.83,3.83,0,0,0,.89,2.45,2.72,2.72,0,0,0,2.16,1.1,3.06,3.06,0,0,0,1.58-.45L15.77,60V76.24H12.13a4.5,4.5,0,0,0-3,.81,3,3,0,0,0-.95,2.43c0,2.22,1.3,3.33,3.92,3.33H27.74q3.92,0,3.92-3.33a3,3,0,0,0-.95-2.43A4.5,4.5,0,0,0,27.74,76.24Zm9.63,8L47.59,52.17a5.53,5.53,0,0,0,.17-1,2.64,2.64,0,0,0-1-2.12,3.39,3.39,0,0,0-2.23-.81,3,3,0,0,0-1.73.54,3,3,0,0,0-1.15,1.62L31.48,82.5a2.77,2.77,0,0,0-.19,1,2.61,2.61,0,0,0,1,2.07,3.27,3.27,0,0,0,2.2.81,3.07,3.07,0,0,0,1.78-.54A3,3,0,0,0,37.37,84.25ZM59.78,50.68a11.58,11.58,0,0,0-5.71,1.4A9.9,9.9,0,0,0,50.13,56,12,12,0,0,0,50,67a9.31,9.31,0,0,0,3.39,3.69A9.17,9.17,0,0,0,58.2,72,8.62,8.62,0,0,0,62,71.13a7,7,0,0,0,2.76-2.27,12,12,0,0,1-1.68,5.87,4.31,4.31,0,0,1-3.72,2.1,6,6,0,0,1-2.06-.36c-.66-.24-1.49-.6-2.48-1.08l-1-.5a14.94,14.94,0,0,0-1.35-.65,2.88,2.88,0,0,0-1.13-.2,2.4,2.4,0,0,0-1.91,1,3.67,3.67,0,0,0-.78,2.37A3.35,3.35,0,0,0,49,78.94a4,4,0,0,0,1.1,1.22,14.34,14.34,0,0,0,4.53,2.25,17.43,17.43,0,0,0,5.15.81,12.21,12.21,0,0,0,7-2,13.11,13.11,0,0,0,4.63-5.78,21.73,21.73,0,0,0,1.65-8.8q0-7.65-3.47-11.79T59.78,50.68Zm.49,14.9a3.59,3.59,0,0,1-2.81-1.15,4.6,4.6,0,0,1-1-3.13,4.46,4.46,0,0,1,1-3.1A3.5,3.5,0,0,1,60.27,57a3.63,3.63,0,0,1,2.8,1.19,4.45,4.45,0,0,1,1.08,3.08,4.49,4.49,0,0,1-1.06,3.11A3.63,3.63,0,0,1,60.27,65.58Z"/></svg>