<svg id="Layer_1" data-name="Layer 1" xmlns="http://www.w3.org/2000/svg" viewBox="0 0 100 100"><title>l28_3_1</title><path d="M100,11.58V70A11.57,11.57,0,0,1,88.42,81.55H81.55v6.87A11.57,11.57,0,0,1,70,100H11.58A11.57,11.57,0,0,1,0,88.42V30A11.57,11.57,0,0,1,11.58,18.45h6.87V11.58A11.57,11.57,0,0,1,30,0H88.42A11.57,11.57,0,0,1,100,11.58ZM20.16,81.22q5.9,0,9-4.19t3.1-12.1q0-7.88-3.13-12.06a10.51,10.51,0,0,0-9-4.19q-5.89,0-9,4.19T8.05,64.93q0,7.92,3.11,12.1T20.16,81.22Zm0-6.26a3.23,3.23,0,0,1-3.11-2.34q-.94-2.34-.94-7.69t.94-7.68a3.24,3.24,0,0,1,6.21,0,22.19,22.19,0,0,1,.95,7.65q0,5.35-.95,7.69A3.22,3.22,0,0,1,20.16,75Zm19.62,6.12a4.15,4.15,0,0,0,3.08-1.26,4.51,4.51,0,0,0,0-6.21,4.15,4.15,0,0,0-3.08-1.26,4.2,4.2,0,0,0-3.13,1.26,4.51,4.51,0,0,0,0,6.21A4.2,4.2,0,0,0,39.78,81.08Zm21.82-21a11.19,11.19,0,0,0-4.45.81V55.34h9.71c2.62,0,3.92-1.05,3.92-3.15s-1.3-3.1-3.92-3.1h-14a3.82,3.82,0,0,0-2.83,1,3.9,3.9,0,0,0-1,2.88V65.15a2.47,2.47,0,0,0,.85,2,3.15,3.15,0,0,0,2.12.74,4.34,4.34,0,0,0,2-.49,15.73,15.73,0,0,1,2.58-.81,12.4,12.4,0,0,1,2.46-.23,5.12,5.12,0,0,1,3.51,1.13A4,4,0,0,1,63.9,70.6a3.9,3.9,0,0,1-1.22,3.17,5.8,5.8,0,0,1-3.74,1,7.43,7.43,0,0,1-2.49-.4A24.67,24.67,0,0,1,53.9,73.3L53,72.85a15.15,15.15,0,0,0-1.36-.68A3,3,0,0,0,50.53,72a2.31,2.31,0,0,0-1.89,1,3.69,3.69,0,0,0-.76,2.36,3.38,3.38,0,0,0,.33,1.55,4,4,0,0,0,1.06,1.24,14.9,14.9,0,0,0,4.61,2.25,18.82,18.82,0,0,0,5.47.81,14.58,14.58,0,0,0,6.43-1.35A10.15,10.15,0,0,0,70.11,76a11.55,11.55,0,0,0,.24-11,9.11,9.11,0,0,0-3.55-3.6A10.36,10.36,0,0,0,61.6,60.07ZM91,32l-7.44-7.44,6.84-6.72a4.91,4.91,0,0,0,1.5-3.48,4.49,4.49,0,0,0-1.41-3.27,4.55,4.55,0,0,0-3.33-1.41,4.8,4.8,0,0,0-3.54,1.62L77.1,17.81l-6.42-6.54a4.6,4.6,0,0,0-3.54-1.68A4.51,4.51,0,0,0,63.81,11a4.65,4.65,0,0,0-1.41,3.36,4.71,4.71,0,0,0,1.5,3.42l6.84,6.72L63.3,32a4.71,4.71,0,0,0-1.5,3.42,4.54,4.54,0,0,0,1.44,3.3,4.61,4.61,0,0,0,3.36,1.44,4.8,4.8,0,0,0,3.54-1.62l7-7.32,7,7.32a4.8,4.8,0,0,0,3.54,1.62A4.61,4.61,0,0,0,91,38.69a4.54,4.54,0,0,0,1.44-3.3A4.71,4.71,0,0,0,91,32Z"/></svg>