<svg id="Layer_1" data-name="Layer 1" xmlns="http://www.w3.org/2000/svg" viewBox="0 0 100 100"><title>l28_4_1</title><path d="M100,11.58V70A11.57,11.57,0,0,1,88.42,81.55H81.55v6.87A11.57,11.57,0,0,1,70,100H11.58A11.57,11.57,0,0,1,0,88.42V30A11.57,11.57,0,0,1,11.58,18.45h6.87V11.58A11.57,11.57,0,0,1,30,0H88.42A11.57,11.57,0,0,1,100,11.58ZM59.72,32.35H87.45A4.2,4.2,0,0,0,90.6,31a4.44,4.44,0,0,0,1.27-3.19,4.35,4.35,0,0,0-4.42-4.42H59.72a4.23,4.23,0,0,0-3.15,1.31,4.42,4.42,0,0,0-1.28,3.19,4.36,4.36,0,0,0,4.43,4.42ZM73.21,18.26a4.57,4.57,0,0,0,3.41-1.42A4.79,4.79,0,0,0,78,13.39,4.69,4.69,0,0,0,76.62,10a4.58,4.58,0,0,0-3.41-1.43A4.51,4.51,0,0,0,69.84,10a4.65,4.65,0,0,0-1.35,3.41,4.79,4.79,0,0,0,1.35,3.45A4.43,4.43,0,0,0,73.21,18.26Zm0,28.93a4.57,4.57,0,0,0,3.41-1.42A4.69,4.69,0,0,0,78,42.4,4.79,4.79,0,0,0,76.62,39a4.58,4.58,0,0,0-3.41-1.43A4.43,4.43,0,0,0,69.84,39a4.79,4.79,0,0,0-1.35,3.45,4.68,4.68,0,0,0,1.35,3.41A4.5,4.5,0,0,0,73.21,47.19ZM27.74,76.24H24.05V54.91A3.91,3.91,0,0,0,23,52a4,4,0,0,0-2.9-1.08A7.61,7.61,0,0,0,16.31,52l-7.2,4.19A3.05,3.05,0,0,0,7.54,59a3.79,3.79,0,0,0,.9,2.45,2.69,2.69,0,0,0,2.16,1.1,3.05,3.05,0,0,0,1.57-.45L15.77,60V76.24H12.13a4.5,4.5,0,0,0-3,.81,3,3,0,0,0-.95,2.43q0,3.33,3.92,3.33H27.74q3.92,0,3.92-3.33a3,3,0,0,0-.95-2.43A4.5,4.5,0,0,0,27.74,76.24Zm9.63,8L47.58,52.17a4.51,4.51,0,0,0,.19-1,2.65,2.65,0,0,0-1-2.12,3.39,3.39,0,0,0-2.23-.81,3,3,0,0,0-1.73.54,3,3,0,0,0-1.15,1.62L31.47,82.5a3.22,3.22,0,0,0-.17,1,2.6,2.6,0,0,0,.94,2.07,3.28,3.28,0,0,0,2.21.81,3,3,0,0,0,2.92-2.16ZM63.11,62.07a11.28,11.28,0,0,0-4.46.81V57.34h9.73c2.6,0,3.91-1.05,3.91-3.15s-1.31-3.1-3.91-3.1h-14a3.82,3.82,0,0,0-2.83,1,3.9,3.9,0,0,0-1,2.88V67.15a2.48,2.48,0,0,0,.86,2,3.1,3.1,0,0,0,2.11.74,4.32,4.32,0,0,0,2-.49,15.73,15.73,0,0,1,2.58-.81,12.32,12.32,0,0,1,2.46-.23,5.06,5.06,0,0,1,3.5,1.13A4,4,0,0,1,65.4,72.6a3.9,3.9,0,0,1-1.21,3.17,5.77,5.77,0,0,1-3.73,1,7.41,7.41,0,0,1-2.5-.4,24.67,24.67,0,0,1-2.55-1.08l-.89-.45a13.91,13.91,0,0,0-1.36-.68A3,3,0,0,0,52,74a2.31,2.31,0,0,0-1.89,1,3.69,3.69,0,0,0-.76,2.36,3.38,3.38,0,0,0,.33,1.55,4,4,0,0,0,1.06,1.24,14.9,14.9,0,0,0,4.61,2.25,18.82,18.82,0,0,0,5.47.81,14.66,14.66,0,0,0,6.44-1.35A10.24,10.24,0,0,0,71.62,78a10.66,10.66,0,0,0,1.52-5.72A10.78,10.78,0,0,0,71.86,67a9,9,0,0,0-3.55-3.6A10.36,10.36,0,0,0,63.11,62.07Z"/></svg>