<svg id="Layer_1" data-name="Layer 1" xmlns="http://www.w3.org/2000/svg" viewBox="0 0 100 100"><title>l24_1_1</title><path d="M100,11.58V70A11.57,11.57,0,0,1,88.42,81.55H81.55v6.87A11.57,11.57,0,0,1,70,100H11.58A11.57,11.57,0,0,1,0,88.42V30A11.57,11.57,0,0,1,11.58,18.45h6.87V11.58A11.57,11.57,0,0,1,30,0H88.42A11.57,11.57,0,0,1,100,11.58ZM21.16,81.22q5.9,0,9-4.19t3.1-12.1q0-7.88-3.13-12.06a10.51,10.51,0,0,0-9-4.19q-5.89,0-9,4.19T9.05,64.93q0,7.92,3.11,12.1T21.16,81.22Zm0-6.26a3.23,3.23,0,0,1-3.11-2.34q-.94-2.34-.94-7.69t.94-7.68a3.24,3.24,0,0,1,6.21,0,22.19,22.19,0,0,1,.95,7.65q0,5.35-.95,7.69A3.22,3.22,0,0,1,21.16,75Zm19.62,6.12a4.15,4.15,0,0,0,3.08-1.26,4.51,4.51,0,0,0,0-6.21,4.15,4.15,0,0,0-3.08-1.26,4.2,4.2,0,0,0-3.13,1.26,4.51,4.51,0,0,0,0,6.21A4.2,4.2,0,0,0,40.78,81.08Zm25.33-16.6a7.31,7.31,0,0,0,3.58-2.73A7.5,7.5,0,0,0,71,57.41a7.89,7.89,0,0,0-1.37-4.59,8.82,8.82,0,0,0-3.92-3.06,14.88,14.88,0,0,0-5.87-1.08,18,18,0,0,0-5.33.81,14.89,14.89,0,0,0-4.57,2.25A3.64,3.64,0,0,0,48.83,53a3.49,3.49,0,0,0-.31,1.57,3.67,3.67,0,0,0,.76,2.36,2.31,2.31,0,0,0,1.89,1,3.11,3.11,0,0,0,1.13-.2c.33-.14.78-.35,1.35-.65l.94-.45A24.77,24.77,0,0,1,57,55.48a6.86,6.86,0,0,1,2.37-.41,3.88,3.88,0,0,1,2.74.92,3.38,3.38,0,0,1,1,2.59A2.55,2.55,0,0,1,62,60.88a6.89,6.89,0,0,1-3.6.72h-2a2.58,2.58,0,0,0-2.12.94,3.71,3.71,0,0,0,0,4.5,2.59,2.59,0,0,0,2.12.95h2.79a6.77,6.77,0,0,1,3.69.76A2.82,2.82,0,0,1,64,71.27a3.14,3.14,0,0,1-1.1,2.7,6.25,6.25,0,0,1-3.62.81,8.3,8.3,0,0,1-2.59-.38,19.14,19.14,0,0,1-2.59-1.1l-.56-.25-.43-.2q-.85-.45-1.35-.66a3,3,0,0,0-1.12-.2,2.29,2.29,0,0,0-1.89,1A3.7,3.7,0,0,0,48,75.32a3.51,3.51,0,0,0,.32,1.55,3.41,3.41,0,0,0,1.08,1.24,14.37,14.37,0,0,0,4.68,2.27,19.77,19.77,0,0,0,5.62.79,17,17,0,0,0,6.37-1.1,9.54,9.54,0,0,0,4.21-3.13,7.84,7.84,0,0,0,1.48-4.77,7.94,7.94,0,0,0-1.51-4.9A7.63,7.63,0,0,0,66.11,64.48ZM89,20.43H79.55V11a4.42,4.42,0,1,0-8.84,0v9.44H61.27a4.37,4.37,0,0,0-4.43,4.42A4.41,4.41,0,0,0,58.12,28a4.2,4.2,0,0,0,3.15,1.31h9.44v9.37a4.48,4.48,0,0,0,7.61,3.15,4.36,4.36,0,0,0,1.23-3.15V29.35H89A4.2,4.2,0,0,0,92.15,28a4.4,4.4,0,0,0,1.27-3.19A4.35,4.35,0,0,0,89,20.43Z"/></svg>