<svg id="Layer_1" data-name="Layer 1" xmlns="http://www.w3.org/2000/svg" viewBox="0 0 100 100"><title>l24_1_1</title><path d="M100,11.58V70A11.57,11.57,0,0,1,88.42,81.55H81.55v6.87A11.57,11.57,0,0,1,70,100H11.58A11.57,11.57,0,0,1,0,88.42V30A11.57,11.57,0,0,1,11.58,18.45h6.87V11.58A11.57,11.57,0,0,1,30,0H88.42A11.57,11.57,0,0,1,100,11.58ZM29,74.24H25.27V52.91A3.87,3.87,0,0,0,24.17,50a4,4,0,0,0-2.9-1.08A7.61,7.61,0,0,0,17.53,50l-7.2,4.19A3.05,3.05,0,0,0,8.76,57a3.77,3.77,0,0,0,.9,2.45,2.69,2.69,0,0,0,2.16,1.1,3.05,3.05,0,0,0,1.57-.45L17,58V74.24H13.35a4.5,4.5,0,0,0-3,.81,3,3,0,0,0-1,2.43q0,3.33,3.92,3.33H29q3.91,0,3.92-3.33a3,3,0,0,0-1-2.43A4.5,4.5,0,0,0,29,74.24Zm9.63,8L48.81,50.17a5,5,0,0,0,.18-1,2.62,2.62,0,0,0-1-2.12,3.37,3.37,0,0,0-2.23-.81,3,3,0,0,0-1.73.54,3.09,3.09,0,0,0-1.15,1.62L32.7,80.5a3,3,0,0,0-.18,1,2.6,2.6,0,0,0,.94,2.07,3.3,3.3,0,0,0,2.21.81,3,3,0,0,0,2.92-2.16ZM67.84,64.48a7.26,7.26,0,0,0,3.58-2.73,7.43,7.43,0,0,0,1.28-4.34,7.82,7.82,0,0,0-1.37-4.59,8.79,8.79,0,0,0-3.91-3.06,15,15,0,0,0-5.88-1.08,18,18,0,0,0-5.33.81,15,15,0,0,0-4.57,2.25A3.64,3.64,0,0,0,50.56,53a3.49,3.49,0,0,0-.31,1.57A3.67,3.67,0,0,0,51,56.89a2.31,2.31,0,0,0,1.89,1,3.08,3.08,0,0,0,1.13-.2c.33-.14.78-.35,1.35-.65l.94-.45a23.87,23.87,0,0,1,2.46-1.08,6.77,6.77,0,0,1,2.36-.41,3.88,3.88,0,0,1,2.74.92,3.38,3.38,0,0,1,1,2.59,2.53,2.53,0,0,1-1.12,2.3,6.89,6.89,0,0,1-3.6.72h-2a2.58,2.58,0,0,0-2.12.94,3.71,3.71,0,0,0,0,4.5,2.59,2.59,0,0,0,2.12.95H61a6.77,6.77,0,0,1,3.69.76,2.82,2.82,0,0,1,1.12,2.52,3.11,3.11,0,0,1-1.1,2.7,6.25,6.25,0,0,1-3.62.81,8.34,8.34,0,0,1-2.59-.38,19.69,19.69,0,0,1-2.59-1.1l-.56-.25-.43-.2q-.85-.45-1.35-.66a3,3,0,0,0-1.12-.2,2.31,2.31,0,0,0-1.89,1,3.7,3.7,0,0,0-.77,2.36,3.18,3.18,0,0,0,1.4,2.79,14.37,14.37,0,0,0,4.68,2.27,19.77,19.77,0,0,0,5.62.79,16.79,16.79,0,0,0,6.37-1.1A9.54,9.54,0,0,0,72,76.94a7.84,7.84,0,0,0,1.48-4.77,8,8,0,0,0-1.5-4.9A7.69,7.69,0,0,0,67.84,64.48ZM89,20.43H79.55V11a4.42,4.42,0,1,0-8.84,0v9.44H61.27a4.37,4.37,0,0,0-4.43,4.42A4.41,4.41,0,0,0,58.12,28a4.23,4.23,0,0,0,3.15,1.31h9.44v9.37a4.48,4.48,0,0,0,7.61,3.15,4.36,4.36,0,0,0,1.23-3.15V29.35H89A4.23,4.23,0,0,0,92.15,28a4.4,4.4,0,0,0,1.27-3.19A4.35,4.35,0,0,0,89,20.43Z"/></svg>