<svg id="Layer_1" data-name="Layer 1" xmlns="http://www.w3.org/2000/svg" viewBox="0 0 100 100"><title>l28_4_1</title><path d="M100,11.58V70A11.57,11.57,0,0,1,88.42,81.55H81.55v6.87A11.57,11.57,0,0,1,70,100H11.58A11.57,11.57,0,0,1,0,88.42V30A11.57,11.57,0,0,1,11.58,18.45h6.87V11.58A11.57,11.57,0,0,1,30,0H88.42A11.57,11.57,0,0,1,100,11.58ZM59.72,32.35H87.45A4.23,4.23,0,0,0,90.6,31a4.44,4.44,0,0,0,1.27-3.19,4.35,4.35,0,0,0-4.42-4.42H59.72a4.23,4.23,0,0,0-3.15,1.31,4.42,4.42,0,0,0-1.28,3.19,4.36,4.36,0,0,0,4.43,4.42ZM73.21,18.26a4.57,4.57,0,0,0,3.41-1.42A4.79,4.79,0,0,0,78,13.39,4.69,4.69,0,0,0,76.62,10a4.58,4.58,0,0,0-3.41-1.43A4.51,4.51,0,0,0,69.84,10a4.65,4.65,0,0,0-1.35,3.41,4.79,4.79,0,0,0,1.35,3.45A4.43,4.43,0,0,0,73.21,18.26Zm0,28.93a4.57,4.57,0,0,0,3.41-1.42A4.69,4.69,0,0,0,78,42.4,4.79,4.79,0,0,0,76.62,39a4.58,4.58,0,0,0-3.41-1.43A4.43,4.43,0,0,0,69.84,39a4.79,4.79,0,0,0-1.35,3.45,4.68,4.68,0,0,0,1.35,3.41A4.5,4.5,0,0,0,73.21,47.19ZM52.68,77.86H46.53V42.31a6.52,6.52,0,0,0-1.84-4.87,6.63,6.63,0,0,0-4.84-1.8,12.65,12.65,0,0,0-6.22,1.87l-12,7A5.1,5.1,0,0,0,19,49.14a6.28,6.28,0,0,0,1.5,4.08,4.5,4.5,0,0,0,3.6,1.84,5.13,5.13,0,0,0,2.63-.75l6-3.52V77.86H26.65q-3.37,0-4.95,1.35a5,5,0,0,0-1.57,4.05q0,5.55,6.52,5.55h26q6.52,0,6.52-5.55a5,5,0,0,0-1.57-4.05Q56.05,77.86,52.68,77.86Z"/></svg>