<svg id="Layer_1" data-name="Layer 1" xmlns="http://www.w3.org/2000/svg" viewBox="0 0 100 100"><title>l28_3_1</title><path d="M100,11.58V70A11.57,11.57,0,0,1,88.42,81.55H81.55v6.87A11.57,11.57,0,0,1,70,100H11.58A11.57,11.57,0,0,1,0,88.42V30A11.57,11.57,0,0,1,11.58,18.45h6.87V11.58A11.57,11.57,0,0,1,30,0H88.42A11.57,11.57,0,0,1,100,11.58ZM92,33.7l-7.44-7.44,6.84-6.72a4.91,4.91,0,0,0,1.5-3.48,4.49,4.49,0,0,0-1.41-3.27,4.55,4.55,0,0,0-3.33-1.41A4.8,4.8,0,0,0,84.58,13L78.1,19.54,71.68,13a4.6,4.6,0,0,0-3.54-1.68,4.51,4.51,0,0,0-3.33,1.44,4.65,4.65,0,0,0-1.41,3.36,4.71,4.71,0,0,0,1.5,3.42l6.84,6.72L64.3,33.7a4.71,4.71,0,0,0-1.5,3.42,4.54,4.54,0,0,0,1.44,3.3,4.61,4.61,0,0,0,3.36,1.44,4.8,4.8,0,0,0,3.54-1.62l7-7.32,7,7.32a4.8,4.8,0,0,0,3.54,1.62A4.61,4.61,0,0,0,92,40.42a4.54,4.54,0,0,0,1.44-3.3A4.71,4.71,0,0,0,92,33.7ZM48.18,61.59a11.27,11.27,0,0,0,5.88-4.43,13,13,0,0,0,2.14-7.5A12.43,12.43,0,0,0,51,39.12q-5.22-3.85-14.21-3.86T22.6,39.12a12.39,12.39,0,0,0-5.25,10.54A12.74,12.74,0,0,0,19.45,57a12.33,12.33,0,0,0,6,4.62,12.46,12.46,0,0,0-7,4.46,13.18,13.18,0,0,0-2.47,8.21A13,13,0,0,0,21.51,85.4q5.59,4,15.27,4T52,85.4a13,13,0,0,0,5.59-11.14,12.34,12.34,0,0,0-9.45-12.67ZM36.78,79q-8.18,0-8.18-5.85t8.18-5.85q8.16,0,8.17,5.85T36.78,79Zm0-33.3a8,8,0,0,1,5,1.31,5.11,5.11,0,0,1,1.65,4.24,5.2,5.2,0,0,1-1.65,4.27,7.82,7.82,0,0,1-5,1.35,7.85,7.85,0,0,1-5-1.35,5.2,5.2,0,0,1-1.65-4.27A5.11,5.11,0,0,1,31.75,47,8,8,0,0,1,36.78,45.69Z"/></svg>