<svg id="Layer_1" data-name="Layer 1" xmlns="http://www.w3.org/2000/svg" viewBox="0 0 100 100"><title>l24_1_1</title><path d="M100,11.58V70A11.57,11.57,0,0,1,88.42,81.55H81.55v6.87A11.57,11.57,0,0,1,70,100H11.58A11.57,11.57,0,0,1,0,88.42V30A11.57,11.57,0,0,1,11.58,18.45h6.87V11.58A11.57,11.57,0,0,1,30,0H88.42A11.57,11.57,0,0,1,100,11.58ZM29,74.24H25.27V52.91A3.87,3.87,0,0,0,24.17,50a4,4,0,0,0-2.9-1.08A7.61,7.61,0,0,0,17.53,50l-7.2,4.19A3.05,3.05,0,0,0,8.76,57a3.77,3.77,0,0,0,.9,2.45,2.69,2.69,0,0,0,2.16,1.1,3.05,3.05,0,0,0,1.57-.45L17,58V74.24H13.35a4.5,4.5,0,0,0-3,.81,3,3,0,0,0-1,2.43q0,3.33,3.92,3.33H29q3.91,0,3.92-3.33a3,3,0,0,0-1-2.43A4.5,4.5,0,0,0,29,74.24Zm9.63,8L48.81,50.17a5,5,0,0,0,.18-1,2.62,2.62,0,0,0-1-2.12,3.37,3.37,0,0,0-2.23-.81,3,3,0,0,0-1.73.54,3.09,3.09,0,0,0-1.15,1.62L32.7,80.5a3,3,0,0,0-.18,1,2.6,2.6,0,0,0,.94,2.07,3.3,3.3,0,0,0,2.21.81,3,3,0,0,0,2.92-2.16Zm33.08-8H68V52.91A3.91,3.91,0,0,0,66.88,50,4,4,0,0,0,64,48.91,7.58,7.58,0,0,0,60.24,50L53,54.22A3.06,3.06,0,0,0,51.46,57a3.77,3.77,0,0,0,.9,2.45,2.69,2.69,0,0,0,2.16,1.1,3.09,3.09,0,0,0,1.58-.45L59.7,58V74.24H56.05a4.5,4.5,0,0,0-3,.81,3,3,0,0,0-.94,2.43q0,3.33,3.91,3.33H71.67q3.92,0,3.91-3.33a3,3,0,0,0-.94-2.43A4.5,4.5,0,0,0,71.67,74.24ZM89,20.43H79.55V11a4.42,4.42,0,1,0-8.84,0v9.44H61.27a4.35,4.35,0,0,0-4.42,4.42A4.4,4.4,0,0,0,58.12,28a4.23,4.23,0,0,0,3.15,1.31h9.44v9.37a4.48,4.48,0,0,0,7.61,3.15,4.36,4.36,0,0,0,1.23-3.15V29.35H89A4.23,4.23,0,0,0,92.15,28a4.4,4.4,0,0,0,1.27-3.19A4.35,4.35,0,0,0,89,20.43Z"/></svg>