<svg id="Layer_1" data-name="Layer 1" xmlns="http://www.w3.org/2000/svg" viewBox="0 0 100 100"><title>l28_3_1</title><path d="M100,11.58V70A11.57,11.57,0,0,1,88.42,81.55H81.55v6.87A11.57,11.57,0,0,1,70,100H11.58A11.57,11.57,0,0,1,0,88.42V30A11.57,11.57,0,0,1,11.58,18.45h6.87V11.58A11.57,11.57,0,0,1,30,0H88.42A11.57,11.57,0,0,1,100,11.58ZM27.74,74.24H24.05V52.91A3.91,3.91,0,0,0,23,50a4,4,0,0,0-2.9-1.08A7.61,7.61,0,0,0,16.31,50l-7.2,4.19A3.05,3.05,0,0,0,7.54,57a3.77,3.77,0,0,0,.9,2.45,2.69,2.69,0,0,0,2.16,1.1,3.05,3.05,0,0,0,1.57-.45L15.77,58V74.24H12.13a4.5,4.5,0,0,0-3,.81,3,3,0,0,0-.95,2.43q0,3.33,3.92,3.33H27.74q3.92,0,3.92-3.33a3,3,0,0,0-.95-2.43A4.5,4.5,0,0,0,27.74,74.24Zm9.63,8L47.58,50.17a4.51,4.51,0,0,0,.19-1,2.65,2.65,0,0,0-1-2.12,3.39,3.39,0,0,0-2.23-.81,3,3,0,0,0-1.73.54,3,3,0,0,0-1.15,1.62L31.47,80.5a3.22,3.22,0,0,0-.17,1,2.6,2.6,0,0,0,.94,2.07,3.28,3.28,0,0,0,2.21.81,3,3,0,0,0,2.92-2.16ZM67.74,64.48a6.83,6.83,0,0,0,3.54-2.66,7.86,7.86,0,0,0,1.28-4.5A7.44,7.44,0,0,0,69.43,51c-2.08-1.54-4.93-2.32-8.53-2.32A14.07,14.07,0,0,0,52.4,51a7.43,7.43,0,0,0-3.15,6.32,7.65,7.65,0,0,0,1.26,4.39,7.38,7.38,0,0,0,3.6,2.77,7.51,7.51,0,0,0-4.23,2.67,7.94,7.94,0,0,0-1.49,4.93,7.75,7.75,0,0,0,3.36,6.68C54,80.37,57,81.17,60.9,81.17s6.93-.8,9.16-2.41a7.74,7.74,0,0,0,3.35-6.68,7.38,7.38,0,0,0-5.67-7.6ZM60.9,74.92c-3.26,0-4.9-1.17-4.9-3.51s1.64-3.51,4.9-3.51,4.91,1.17,4.91,3.51S64.17,74.92,60.9,74.92Zm0-20a4.85,4.85,0,0,1,3,.78,3.08,3.08,0,0,1,1,2.55,3.11,3.11,0,0,1-1,2.56,4.71,4.71,0,0,1-3,.81,4.68,4.68,0,0,1-3-.81,3.11,3.11,0,0,1-1-2.56,3.08,3.08,0,0,1,1-2.55A4.82,4.82,0,0,1,60.9,54.94ZM91,32l-7.44-7.44,6.84-6.72a4.91,4.91,0,0,0,1.5-3.48,4.49,4.49,0,0,0-1.41-3.27,4.55,4.55,0,0,0-3.33-1.41,4.8,4.8,0,0,0-3.54,1.62L77.1,17.81l-6.42-6.54a4.6,4.6,0,0,0-3.54-1.68A4.51,4.51,0,0,0,63.81,11a4.65,4.65,0,0,0-1.41,3.36,4.71,4.71,0,0,0,1.5,3.42l6.84,6.72L63.3,32a4.71,4.71,0,0,0-1.5,3.42,4.54,4.54,0,0,0,1.44,3.3,4.61,4.61,0,0,0,3.36,1.44,4.8,4.8,0,0,0,3.54-1.62l7-7.32,7,7.32a4.8,4.8,0,0,0,3.54,1.62A4.61,4.61,0,0,0,91,38.69a4.54,4.54,0,0,0,1.44-3.3A4.71,4.71,0,0,0,91,32Z"/></svg>