<svg id="Layer_1" data-name="Layer 1" xmlns="http://www.w3.org/2000/svg" viewBox="0 0 100 100"><title>l28_3_1</title><path d="M99.88,11.58V70A11.57,11.57,0,0,1,88.3,81.55H81.43v6.87A11.57,11.57,0,0,1,69.85,100H11.46A11.58,11.58,0,0,1-.12,88.42V30A11.58,11.58,0,0,1,11.46,18.45h6.87V11.58A11.58,11.58,0,0,1,29.91,0H88.3A11.57,11.57,0,0,1,99.88,11.58ZM20,81.22q5.9,0,9-4.19t3.1-12.1q0-7.88-3.12-12.06a10.54,10.54,0,0,0-9-4.19q-5.89,0-9,4.19T7.93,64.93Q7.93,72.85,11,77T20,81.22ZM20,75a3.23,3.23,0,0,1-3.11-2.34Q16,70.28,16,64.93t.94-7.68a3.24,3.24,0,0,1,6.21,0,22.19,22.19,0,0,1,.95,7.65q0,5.35-.95,7.69A3.22,3.22,0,0,1,20,75Zm19.62,6.12a4.15,4.15,0,0,0,3.08-1.26,4.51,4.51,0,0,0,0-6.21,4.15,4.15,0,0,0-3.08-1.26,4.37,4.37,0,1,0,0,8.73ZM62,59.93a8.78,8.78,0,0,0-3.81.83A7.21,7.21,0,0,0,55.41,63a12.07,12.07,0,0,1,1.68-5.88,4.33,4.33,0,0,1,3.72-2.09,6,6,0,0,1,2.07.36c.66.24,1.48.6,2.47,1.08l1,.5c.57.3,1,.51,1.35.65a3.08,3.08,0,0,0,1.13.2,2.38,2.38,0,0,0,1.91-1,3.63,3.63,0,0,0,.79-2.36A3.23,3.23,0,0,0,71.18,53a4,4,0,0,0-1.1-1.22,14.34,14.34,0,0,0-4.53-2.25,17.43,17.43,0,0,0-5.15-.81,12.15,12.15,0,0,0-7,2,13.06,13.06,0,0,0-4.64,5.78,21.73,21.73,0,0,0-1.64,8.8q0,7.65,3.46,11.79t9.81,4.14a11.62,11.62,0,0,0,5.72-1.4,10,10,0,0,0,3.93-3.89,12,12,0,0,0,.18-11,9.24,9.24,0,0,0-3.39-3.69A9.14,9.14,0,0,0,62,59.93ZM59.91,74.87a3.57,3.57,0,0,1-2.79-1.19A4.4,4.4,0,0,1,56,70.6a4.49,4.49,0,0,1,1.05-3.11,3.63,3.63,0,0,1,2.82-1.17,3.54,3.54,0,0,1,2.81,1.15,4.58,4.58,0,0,1,1,3.13,4.5,4.5,0,0,1-1,3.1A3.54,3.54,0,0,1,59.91,74.87ZM90.84,32,83.4,24.53l6.84-6.72a4.91,4.91,0,0,0,1.5-3.48,4.49,4.49,0,0,0-1.41-3.27A4.55,4.55,0,0,0,87,9.65a4.8,4.8,0,0,0-3.54,1.62L77,17.81l-6.42-6.54A4.6,4.6,0,0,0,67,9.59,4.51,4.51,0,0,0,63.69,11a4.65,4.65,0,0,0-1.41,3.36,4.71,4.71,0,0,0,1.5,3.42l6.84,6.72L63.18,32a4.71,4.71,0,0,0-1.5,3.42,4.54,4.54,0,0,0,1.44,3.3,4.61,4.61,0,0,0,3.36,1.44A4.8,4.8,0,0,0,70,38.51l7-7.32,7,7.32a4.8,4.8,0,0,0,3.54,1.62,4.61,4.61,0,0,0,3.36-1.44,4.54,4.54,0,0,0,1.44-3.3A4.71,4.71,0,0,0,90.84,32Z"/></svg>