<svg id="Layer_1" data-name="Layer 1" xmlns="http://www.w3.org/2000/svg" viewBox="0 0 100 100"><title>l28_4_1</title><path d="M100,11.58V70A11.57,11.57,0,0,1,88.42,81.55H81.55v6.87A11.57,11.57,0,0,1,70,100H11.58A11.57,11.57,0,0,1,0,88.42V30A11.57,11.57,0,0,1,11.58,18.45h6.87V11.58A11.57,11.57,0,0,1,30,0H88.42A11.57,11.57,0,0,1,100,11.58ZM59.72,32.35H87.45A4.2,4.2,0,0,0,90.6,31a4.44,4.44,0,0,0,1.27-3.19,4.35,4.35,0,0,0-4.42-4.42H59.72a4.23,4.23,0,0,0-3.15,1.31,4.42,4.42,0,0,0-1.28,3.19,4.36,4.36,0,0,0,4.43,4.42ZM73.21,18.26a4.57,4.57,0,0,0,3.41-1.42A4.79,4.79,0,0,0,78,13.39,4.69,4.69,0,0,0,76.62,10a4.58,4.58,0,0,0-3.41-1.43A4.51,4.51,0,0,0,69.84,10a4.69,4.69,0,0,0-1.35,3.41,4.83,4.83,0,0,0,1.35,3.45A4.43,4.43,0,0,0,73.21,18.26Zm0,28.93a4.57,4.57,0,0,0,3.41-1.42A4.69,4.69,0,0,0,78,42.4,4.79,4.79,0,0,0,76.62,39a4.58,4.58,0,0,0-3.41-1.43A4.43,4.43,0,0,0,69.84,39a4.83,4.83,0,0,0-1.35,3.45,4.72,4.72,0,0,0,1.35,3.41A4.5,4.5,0,0,0,73.21,47.19ZM51.93,35.94H22.53q-3.37,0-5,1.38A5.28,5.28,0,0,0,16,41.49a5.09,5.09,0,0,0,1.54,4c1,.9,2.69,1.35,5,1.35H41.28L22,79.81A7.09,7.09,0,0,0,21,83.41a5.5,5.5,0,0,0,2,4.31,6.86,6.86,0,0,0,4.65,1.77,6.35,6.35,0,0,0,3.18-.87A6.91,6.91,0,0,0,33.4,86L56.13,46.59a9.66,9.66,0,0,0,1.42-5,5.89,5.89,0,0,0-1.46-4.09A5.35,5.35,0,0,0,51.93,35.94Z"/></svg>