<svg id="Layer_1" data-name="Layer 1" xmlns="http://www.w3.org/2000/svg" viewBox="0 0 100 100"><title>l28_4_1</title><path d="M100,11.58V70A11.57,11.57,0,0,1,88.42,81.55H81.55v6.87A11.57,11.57,0,0,1,70,100H11.58A11.57,11.57,0,0,1,0,88.42V30A11.57,11.57,0,0,1,11.58,18.45h6.87V11.58A11.57,11.57,0,0,1,30,0H88.42A11.57,11.57,0,0,1,100,11.58ZM59.72,32.35H87.45A4.23,4.23,0,0,0,90.6,31a4.44,4.44,0,0,0,1.27-3.19,4.35,4.35,0,0,0-4.42-4.42H59.72a4.23,4.23,0,0,0-3.15,1.31,4.42,4.42,0,0,0-1.28,3.19,4.36,4.36,0,0,0,4.43,4.42ZM73.21,18.26a4.57,4.57,0,0,0,3.41-1.42A4.79,4.79,0,0,0,78,13.39,4.69,4.69,0,0,0,76.62,10a4.58,4.58,0,0,0-3.41-1.43A4.51,4.51,0,0,0,69.84,10a4.65,4.65,0,0,0-1.35,3.41,4.79,4.79,0,0,0,1.35,3.45A4.43,4.43,0,0,0,73.21,18.26Zm0,28.93a4.57,4.57,0,0,0,3.41-1.42A4.69,4.69,0,0,0,78,42.4,4.79,4.79,0,0,0,76.62,39a4.58,4.58,0,0,0-3.41-1.43A4.43,4.43,0,0,0,69.84,39a4.79,4.79,0,0,0-1.35,3.45,4.68,4.68,0,0,0,1.35,3.41A4.5,4.5,0,0,0,73.21,47.19ZM40.45,54.24A18.72,18.72,0,0,0,33,55.59V46.36h16.2q6.52,0,6.52-5.25t-6.52-5.17H26a6.41,6.41,0,0,0-4.73,1.65,6.5,6.5,0,0,0-1.65,4.8V62.71A4.1,4.1,0,0,0,21,66a5.13,5.13,0,0,0,3.52,1.24,7.18,7.18,0,0,0,3.38-.82A26.39,26.39,0,0,1,32.24,65a20.47,20.47,0,0,1,4.09-.38,8.48,8.48,0,0,1,5.85,1.88,6.71,6.71,0,0,1,2.1,5.25q0,3.6-2,5.28T36,78.76a12.49,12.49,0,0,1-4.17-.67,42.2,42.2,0,0,1-4.23-1.8l-1.5-.75a23.16,23.16,0,0,0-2.25-1.13,5.11,5.11,0,0,0-1.88-.3,3.89,3.89,0,0,0-3.15,1.61,6.16,6.16,0,0,0-1.27,3.94,5.5,5.5,0,0,0,.56,2.59,6.51,6.51,0,0,0,1.76,2.06,24.72,24.72,0,0,0,7.69,3.75,31.26,31.26,0,0,0,9.11,1.35,24.39,24.39,0,0,0,10.73-2.25,16.87,16.87,0,0,0,7.2-6.37,17.85,17.85,0,0,0,2.55-9.53A18.13,18.13,0,0,0,55,62.37a15.28,15.28,0,0,0-5.93-6A17.34,17.34,0,0,0,40.45,54.24Z"/></svg>