<svg id="Layer_1" data-name="Layer 1" xmlns="http://www.w3.org/2000/svg" viewBox="0 0 100 100"><title>l28_3_1</title><path d="M100,11.58V70A11.57,11.57,0,0,1,88.42,81.55H81.55v6.87A11.57,11.57,0,0,1,70,100H11.58A11.57,11.57,0,0,1,0,88.42V30A11.57,11.57,0,0,1,11.58,18.45h6.87V11.58A11.57,11.57,0,0,1,30,0H88.42A11.57,11.57,0,0,1,100,11.58ZM92,33.7l-7.44-7.44,6.84-6.72a4.91,4.91,0,0,0,1.5-3.48,4.49,4.49,0,0,0-1.41-3.27,4.55,4.55,0,0,0-3.33-1.41A4.8,4.8,0,0,0,84.58,13L78.1,19.54,71.68,13a4.6,4.6,0,0,0-3.54-1.68,4.51,4.51,0,0,0-3.33,1.44,4.65,4.65,0,0,0-1.41,3.36,4.71,4.71,0,0,0,1.5,3.42l6.84,6.72L64.3,33.7a4.71,4.71,0,0,0-1.5,3.42,4.54,4.54,0,0,0,1.44,3.3,4.61,4.61,0,0,0,3.36,1.44,4.8,4.8,0,0,0,3.54-1.62l7-7.32,7,7.32a4.8,4.8,0,0,0,3.54,1.62A4.61,4.61,0,0,0,92,40.42a4.54,4.54,0,0,0,1.44-3.3A4.71,4.71,0,0,0,92,33.7ZM52.68,77.86H46.53V42.31a6.52,6.52,0,0,0-1.84-4.87,6.63,6.63,0,0,0-4.84-1.8,12.65,12.65,0,0,0-6.22,1.87l-12,7A5.1,5.1,0,0,0,19,49.14a6.28,6.28,0,0,0,1.5,4.08,4.5,4.5,0,0,0,3.6,1.84,5.13,5.13,0,0,0,2.63-.75l6-3.52V77.86H26.65q-3.37,0-4.95,1.35a5,5,0,0,0-1.57,4.05q0,5.55,6.52,5.55h26q6.52,0,6.52-5.55a5,5,0,0,0-1.57-4.05Q56.05,77.86,52.68,77.86Z"/></svg>