<svg id="Layer_1" data-name="Layer 1" xmlns="http://www.w3.org/2000/svg" viewBox="0 0 100 100"><title>l28_4_1</title><path d="M100,11.58V70A11.57,11.57,0,0,1,88.42,81.55H81.55v6.87A11.57,11.57,0,0,1,70,100H11.58A11.57,11.57,0,0,1,0,88.42V30A11.57,11.57,0,0,1,11.58,18.45h6.87V11.58A11.57,11.57,0,0,1,30,0H88.42A11.57,11.57,0,0,1,100,11.58ZM59.72,32.35H87.45A4.23,4.23,0,0,0,90.6,31a4.44,4.44,0,0,0,1.27-3.19,4.35,4.35,0,0,0-4.42-4.42H59.72a4.23,4.23,0,0,0-3.15,1.31,4.42,4.42,0,0,0-1.28,3.19,4.36,4.36,0,0,0,4.43,4.42ZM73.21,18.26a4.57,4.57,0,0,0,3.41-1.42A4.79,4.79,0,0,0,78,13.39,4.69,4.69,0,0,0,76.62,10a4.58,4.58,0,0,0-3.41-1.43A4.51,4.51,0,0,0,69.84,10a4.65,4.65,0,0,0-1.35,3.41,4.79,4.79,0,0,0,1.35,3.45A4.43,4.43,0,0,0,73.21,18.26Zm0,28.93a4.57,4.57,0,0,0,3.41-1.42A4.69,4.69,0,0,0,78,42.4,4.79,4.79,0,0,0,76.62,39a4.58,4.58,0,0,0-3.41-1.43A4.43,4.43,0,0,0,69.84,39a4.79,4.79,0,0,0-1.35,3.45,4.68,4.68,0,0,0,1.35,3.41A4.5,4.5,0,0,0,73.21,47.19ZM52.9,69.39H51.25V42.31a6.36,6.36,0,0,0-2-5,7.1,7.1,0,0,0-4.88-1.8,7.6,7.6,0,0,0-3.34.78,7,7,0,0,0-2.66,2.29L16.9,69.16a8.4,8.4,0,0,0-1.65,5,5.75,5.75,0,0,0,1.58,4.13,5.62,5.62,0,0,0,4.27,1.65H37.83v2.55a6.68,6.68,0,0,0,1.83,5.1,6.79,6.79,0,0,0,4.84,1.72,6.93,6.93,0,0,0,4.88-1.72,6.59,6.59,0,0,0,1.87-5.1V79.89H52.9q6.52,0,6.53-5.33Q59.43,69.38,52.9,69.39Zm-24.07,0,9-13v13Z"/></svg>