<svg id="Layer_1" data-name="Layer 1" xmlns="http://www.w3.org/2000/svg" viewBox="0 0 100 100"><title>l28_3_1</title><path d="M100,11.58V70A11.57,11.57,0,0,1,88.42,81.55H81.55v6.87A11.57,11.57,0,0,1,70,100H11.58A11.57,11.57,0,0,1,0,88.42V30A11.57,11.57,0,0,1,11.58,18.45h6.87V11.58A11.57,11.57,0,0,1,30,0H88.42A11.57,11.57,0,0,1,100,11.58ZM20.13,81.22q5.9,0,9-4.19t3.11-12.1q0-7.88-3.13-12.06a10.53,10.53,0,0,0-9-4.19q-5.89,0-9,4.19T8,64.93q0,7.92,3.1,12.1T20.13,81.22Zm0-6.26A3.22,3.22,0,0,1,17,72.62q-.95-2.34-1-7.69t1-7.68a3.24,3.24,0,0,1,6.21,0q.95,2.34.94,7.65t-.94,7.69A3.23,3.23,0,0,1,20.13,75Zm19.62,6.12a4.13,4.13,0,0,0,3.08-1.26,4.51,4.51,0,0,0,0-6.21,4.13,4.13,0,0,0-3.08-1.26,4.21,4.21,0,0,0-3.13,1.26,4.53,4.53,0,0,0,0,6.21A4.21,4.21,0,0,0,39.75,81.08Zm28-6.84h-9l6.39-6.52a20.8,20.8,0,0,0,3.75-5.07,11.23,11.23,0,0,0,1.11-5,8.25,8.25,0,0,0-1.38-4.71,8.81,8.81,0,0,0-3.89-3.15,14.57,14.57,0,0,0-5.85-1.1,18.27,18.27,0,0,0-9.94,3.06,3,3,0,0,0-1.11,1.17,4,4,0,0,0-.29,1.62,3.9,3.9,0,0,0,.77,2.41,2.3,2.3,0,0,0,1.89,1,2.65,2.65,0,0,0,.85-.13,4.89,4.89,0,0,0,.92-.43l.7-.38.9-.45a23.26,23.26,0,0,1,2.54-1.11,7.47,7.47,0,0,1,2.41-.38,3.56,3.56,0,0,1,2.5.81,3,3,0,0,1,.88,2.34q0,2.61-3,5.72l-9.54,9.94a4.93,4.93,0,0,0-1.53,3.51,3.35,3.35,0,0,0,.94,2.45,3.41,3.41,0,0,0,2.57,1H67.74a4.54,4.54,0,0,0,3-.81,3.12,3.12,0,0,0,1-2.52,3,3,0,0,0-1-2.45A4.66,4.66,0,0,0,67.74,74.24ZM91,32l-7.44-7.44,6.84-6.72a4.91,4.91,0,0,0,1.5-3.48,4.49,4.49,0,0,0-1.41-3.27,4.55,4.55,0,0,0-3.33-1.41,4.8,4.8,0,0,0-3.54,1.62L77.1,17.81l-6.42-6.54a4.6,4.6,0,0,0-3.54-1.68A4.51,4.51,0,0,0,63.81,11a4.65,4.65,0,0,0-1.41,3.36,4.71,4.71,0,0,0,1.5,3.42l6.84,6.72L63.3,32a4.71,4.71,0,0,0-1.5,3.42,4.54,4.54,0,0,0,1.44,3.3,4.61,4.61,0,0,0,3.36,1.44,4.8,4.8,0,0,0,3.54-1.62l7-7.32,7,7.32a4.8,4.8,0,0,0,3.54,1.62A4.61,4.61,0,0,0,91,38.69a4.54,4.54,0,0,0,1.44-3.3A4.71,4.71,0,0,0,91,32Z"/></svg>