<svg id="Layer_1" data-name="Layer 1" xmlns="http://www.w3.org/2000/svg" viewBox="0 0 100 100"><title>l28_4_1</title><path d="M100,11.58V70A11.57,11.57,0,0,1,88.42,81.55H81.55v6.87A11.57,11.57,0,0,1,70,100H11.58A11.57,11.57,0,0,1,0,88.42V30A11.57,11.57,0,0,1,11.58,18.45h6.87V11.58A11.57,11.57,0,0,1,30,0H88.42A11.57,11.57,0,0,1,100,11.58ZM59.72,32.35H87.45A4.2,4.2,0,0,0,90.6,31a4.44,4.44,0,0,0,1.27-3.19,4.35,4.35,0,0,0-4.42-4.42H59.72a4.23,4.23,0,0,0-3.15,1.31,4.42,4.42,0,0,0-1.28,3.19,4.36,4.36,0,0,0,4.43,4.42ZM73.21,18.26a4.57,4.57,0,0,0,3.41-1.42A4.79,4.79,0,0,0,78,13.39,4.69,4.69,0,0,0,76.62,10a4.58,4.58,0,0,0-3.41-1.43A4.51,4.51,0,0,0,69.84,10a4.69,4.69,0,0,0-1.35,3.41,4.83,4.83,0,0,0,1.35,3.45A4.43,4.43,0,0,0,73.21,18.26Zm0,28.93a4.57,4.57,0,0,0,3.41-1.42A4.69,4.69,0,0,0,78,42.4,4.79,4.79,0,0,0,76.62,39a4.58,4.58,0,0,0-3.41-1.43A4.43,4.43,0,0,0,69.84,39a4.83,4.83,0,0,0-1.35,3.45,4.72,4.72,0,0,0,1.35,3.41A4.5,4.5,0,0,0,73.21,47.19Zm-53,37q5.9,0,9-4.19t3.1-12.1q0-7.88-3.13-12.06a10.51,10.51,0,0,0-9-4.19q-5.89,0-9,4.19T8.05,67.93q0,7.92,3.11,12.1T20.16,84.22Zm0-6.26a3.23,3.23,0,0,1-3.11-2.34q-.94-2.34-.94-7.69t.94-7.68a3.24,3.24,0,0,1,6.21,0,22.19,22.19,0,0,1,.95,7.65q0,5.35-.95,7.69A3.22,3.22,0,0,1,20.16,78Zm19.62,6.12a4.15,4.15,0,0,0,3.08-1.26,4.51,4.51,0,0,0,0-6.21,4.15,4.15,0,0,0-3.08-1.26,4.2,4.2,0,0,0-3.13,1.26,4.51,4.51,0,0,0,0,6.21A4.2,4.2,0,0,0,39.78,84.08Zm28.7-32H50.85a4.37,4.37,0,0,0-3,.83,3.14,3.14,0,0,0-1,2.5,3.08,3.08,0,0,0,.92,2.43,4.5,4.5,0,0,0,3,.81H62.1L50.53,78.41a4.25,4.25,0,0,0-.63,2.16,3.33,3.33,0,0,0,1.21,2.59,4.19,4.19,0,0,0,2.79,1.06,4,4,0,0,0,1.92-.52,4.19,4.19,0,0,0,1.55-1.6L71,58.48a5.83,5.83,0,0,0,.85-3A3.52,3.52,0,0,0,71,53.05,3.21,3.21,0,0,0,68.48,52.09Z"/></svg>