<svg id="Layer_1" data-name="Layer 1" xmlns="http://www.w3.org/2000/svg" viewBox="0 0 100 100"><title>l28_4_1</title><path d="M100,11.58V70A11.57,11.57,0,0,1,88.42,81.55H81.55v6.87A11.57,11.57,0,0,1,70,100H11.58A11.57,11.57,0,0,1,0,88.42V30A11.57,11.57,0,0,1,11.58,18.45h6.87V11.58A11.57,11.57,0,0,1,30,0H88.42A11.57,11.57,0,0,1,100,11.58ZM59.72,32.35H87.45A4.23,4.23,0,0,0,90.6,31a4.4,4.4,0,0,0,1.27-3.19,4.35,4.35,0,0,0-4.42-4.42H59.72a4.23,4.23,0,0,0-3.15,1.31,4.42,4.42,0,0,0-1.28,3.19,4.36,4.36,0,0,0,4.43,4.42ZM73.21,18.26a4.57,4.57,0,0,0,3.41-1.42A4.79,4.79,0,0,0,78,13.39,4.69,4.69,0,0,0,76.62,10a4.58,4.58,0,0,0-3.41-1.43A4.51,4.51,0,0,0,69.84,10a4.69,4.69,0,0,0-1.35,3.41,4.83,4.83,0,0,0,1.35,3.45A4.43,4.43,0,0,0,73.21,18.26Zm0,28.93a4.57,4.57,0,0,0,3.41-1.42A4.69,4.69,0,0,0,78,42.4,4.79,4.79,0,0,0,76.62,39a4.58,4.58,0,0,0-3.41-1.43A4.43,4.43,0,0,0,69.84,39a4.83,4.83,0,0,0-1.35,3.45,4.72,4.72,0,0,0,1.35,3.41A4.5,4.5,0,0,0,73.21,47.19ZM50.69,77.86H35.61L46.26,67a35.21,35.21,0,0,0,6.27-8.44,18.94,18.94,0,0,0,1.83-8.36,13.8,13.8,0,0,0-2.28-7.84,14.74,14.74,0,0,0-6.49-5.25,24.23,24.23,0,0,0-9.75-1.84,29.3,29.3,0,0,0-8.66,1.35,29.21,29.21,0,0,0-7.92,3.75,4.91,4.91,0,0,0-1.83,2,6.36,6.36,0,0,0-.49,2.7,6.44,6.44,0,0,0,1.27,4,3.81,3.81,0,0,0,3.15,1.69,4.51,4.51,0,0,0,1.43-.22,8.87,8.87,0,0,0,1.54-.72c.57-.32,1-.53,1.16-.63l1.5-.75a36.87,36.87,0,0,1,4.24-1.84,12.26,12.26,0,0,1,4-.64,5.9,5.9,0,0,1,4.16,1.35,5,5,0,0,1,1.46,3.9q0,4.35-5,9.53L20,77.26a8.21,8.21,0,0,0-2.55,5.85A5.61,5.61,0,0,0,19,87.2a5.67,5.67,0,0,0,4.27,1.61H50.69a7.51,7.51,0,0,0,4.91-1.35,5.15,5.15,0,0,0,1.61-4.2,5,5,0,0,0-1.61-4.09A7.7,7.7,0,0,0,50.69,77.86Z"/></svg>