<svg id="Layer_1" data-name="Layer 1" xmlns="http://www.w3.org/2000/svg" viewBox="0 0 100 100"><title>l28_4_1</title><path d="M99.83,11.58V70A11.58,11.58,0,0,1,88.25,81.55H81.38v6.87A11.58,11.58,0,0,1,69.8,100H11.4A11.57,11.57,0,0,1-.17,88.42V30A11.57,11.57,0,0,1,11.4,18.45h6.87V11.58A11.58,11.58,0,0,1,29.85,0h58.4A11.58,11.58,0,0,1,99.83,11.58ZM59.54,32.35H87.27A4.2,4.2,0,0,0,90.42,31a4.41,4.41,0,0,0,1.28-3.19,4.37,4.37,0,0,0-4.43-4.42H59.54a4.23,4.23,0,0,0-3.15,1.31,4.41,4.41,0,0,0-1.27,3.19,4.34,4.34,0,0,0,4.42,4.42ZM73,18.26a4.56,4.56,0,0,0,3.41-1.42,4.75,4.75,0,0,0,1.39-3.45A4.65,4.65,0,0,0,76.44,10a4.78,4.78,0,0,0-6.78,0,4.69,4.69,0,0,0-1.35,3.41,4.83,4.83,0,0,0,1.35,3.45A4.44,4.44,0,0,0,73,18.26Zm0,28.93a4.56,4.56,0,0,0,3.41-1.42,4.65,4.65,0,0,0,1.39-3.37A4.75,4.75,0,0,0,76.44,39,4.57,4.57,0,0,0,73,37.52,4.45,4.45,0,0,0,69.66,39a4.83,4.83,0,0,0-1.35,3.45,4.72,4.72,0,0,0,1.35,3.41A4.52,4.52,0,0,0,73,47.19ZM48,61.59a11.33,11.33,0,0,0,5.89-4.43A13.07,13.07,0,0,0,56,49.66a12.42,12.42,0,0,0-5.22-10.54q-5.2-3.85-14.21-3.86T22.43,39.12a12.39,12.39,0,0,0-5.25,10.54A12.74,12.74,0,0,0,19.28,57a12.33,12.33,0,0,0,6,4.62,12.46,12.46,0,0,0-7,4.46,13.19,13.19,0,0,0-2.48,8.21A12.94,12.94,0,0,0,21.34,85.4q5.58,4,15.26,4t15.26-4a12.94,12.94,0,0,0,5.59-11.14A12.34,12.34,0,0,0,48,61.59ZM36.6,79q-8.18,0-8.17-5.85t8.17-5.85q8.17,0,8.18,5.85T36.6,79Zm0-33.3a8,8,0,0,1,5,1.31,5.11,5.11,0,0,1,1.65,4.24,5.2,5.2,0,0,1-1.65,4.27,7.85,7.85,0,0,1-5,1.35,7.82,7.82,0,0,1-5-1.35,5.2,5.2,0,0,1-1.65-4.27A5.11,5.11,0,0,1,31.58,47,8,8,0,0,1,36.6,45.69Z"/></svg>