<svg id="Layer_1" data-name="Layer 1" xmlns="http://www.w3.org/2000/svg" viewBox="0 0 100 100"><title>l28_2_1</title><path d="M100,11.58V70A11.57,11.57,0,0,1,88.42,81.55H81.55v6.87A11.57,11.57,0,0,1,70,100H11.58A11.57,11.57,0,0,1,0,88.42V30A11.57,11.57,0,0,1,11.58,18.45h6.87V11.58A11.57,11.57,0,0,1,30,0H88.42A11.57,11.57,0,0,1,100,11.58Zm-31.91,20H82.18a6.81,6.81,0,0,0,4.68-1.39,4.92,4.92,0,0,0,1.54-3.86,4.79,4.79,0,0,0-1.54-3.82,6.92,6.92,0,0,0-4.68-1.35H68.09q-6.23,0-6.22,5.17T68.09,31.53ZM29,74.24H25.27V52.91A3.87,3.87,0,0,0,24.17,50a4,4,0,0,0-2.9-1.08A7.61,7.61,0,0,0,17.53,50l-7.2,4.19A3.05,3.05,0,0,0,8.76,57a3.79,3.79,0,0,0,.9,2.45,2.69,2.69,0,0,0,2.16,1.1,3.05,3.05,0,0,0,1.57-.45L17,58V74.24H13.35a4.5,4.5,0,0,0-3,.81,3,3,0,0,0-1,2.43q0,3.33,3.92,3.33H29q3.91,0,3.92-3.33a3,3,0,0,0-1-2.43A4.5,4.5,0,0,0,29,74.24Zm9.63,8L48.81,50.17a5,5,0,0,0,.18-1,2.62,2.62,0,0,0-1-2.12,3.37,3.37,0,0,0-2.23-.81,3,3,0,0,0-1.73.54,3.09,3.09,0,0,0-1.15,1.62L32.7,80.5a3,3,0,0,0-.18,1,2.6,2.6,0,0,0,.94,2.07,3.3,3.3,0,0,0,2.21.81,3,3,0,0,0,2.92-2.16ZM71.22,49.09H53.58a4.39,4.39,0,0,0-3,.83,3.17,3.17,0,0,0-1,2.5,3.05,3.05,0,0,0,.93,2.43,4.47,4.47,0,0,0,3,.81H64.83L53.26,75.41a4.25,4.25,0,0,0-.63,2.16,3.31,3.31,0,0,0,1.22,2.59,4.15,4.15,0,0,0,2.79,1.06,3.89,3.89,0,0,0,1.91-.52,4.19,4.19,0,0,0,1.55-1.6L73.74,55.48a5.74,5.74,0,0,0,.85-3,3.56,3.56,0,0,0-.87-2.46A3.23,3.23,0,0,0,71.22,49.09Z"/></svg>