<svg id="Layer_1" data-name="Layer 1" xmlns="http://www.w3.org/2000/svg" viewBox="0 0 100 100"><title>l28_4_1</title><path d="M100,11.58V70A11.57,11.57,0,0,1,88.42,81.55H81.55v6.87A11.57,11.57,0,0,1,70,100H11.58A11.57,11.57,0,0,1,0,88.42V30A11.57,11.57,0,0,1,11.58,18.45h6.87V11.58A11.57,11.57,0,0,1,30,0H88.42A11.57,11.57,0,0,1,100,11.58ZM59.72,32.35H87.45A4.2,4.2,0,0,0,90.6,31a4.4,4.4,0,0,0,1.27-3.19,4.35,4.35,0,0,0-4.42-4.42H59.72a4.23,4.23,0,0,0-3.15,1.31,4.42,4.42,0,0,0-1.28,3.19,4.36,4.36,0,0,0,4.43,4.42ZM73.21,18.26a4.57,4.57,0,0,0,3.41-1.42A4.79,4.79,0,0,0,78,13.39,4.69,4.69,0,0,0,76.62,10a4.58,4.58,0,0,0-3.41-1.43A4.51,4.51,0,0,0,69.84,10a4.69,4.69,0,0,0-1.35,3.41,4.83,4.83,0,0,0,1.35,3.45A4.43,4.43,0,0,0,73.21,18.26Zm0,28.93a4.57,4.57,0,0,0,3.41-1.42A4.69,4.69,0,0,0,78,42.4,4.79,4.79,0,0,0,76.62,39a4.58,4.58,0,0,0-3.41-1.43A4.43,4.43,0,0,0,69.84,39a4.83,4.83,0,0,0-1.35,3.45,4.72,4.72,0,0,0,1.35,3.41A4.5,4.5,0,0,0,73.21,47.19ZM27.74,76.24H24.05V54.91A3.91,3.91,0,0,0,23,52a4,4,0,0,0-2.9-1.08A7.61,7.61,0,0,0,16.31,52l-7.2,4.19A3.05,3.05,0,0,0,7.54,59a3.79,3.79,0,0,0,.9,2.45,2.68,2.68,0,0,0,2.16,1.1,3.05,3.05,0,0,0,1.57-.45L15.77,60V76.24H12.13a4.5,4.5,0,0,0-3,.81,3,3,0,0,0-.95,2.43q0,3.33,3.92,3.33H27.74q3.92,0,3.92-3.33a3,3,0,0,0-.95-2.43A4.5,4.5,0,0,0,27.74,76.24Zm9.63,8L47.59,52.17a5,5,0,0,0,.18-1,2.65,2.65,0,0,0-1-2.12,3.39,3.39,0,0,0-2.23-.81,3,3,0,0,0-1.73.54,3,3,0,0,0-1.15,1.62L31.48,82.5a3,3,0,0,0-.19,1,2.61,2.61,0,0,0,1,2.07,3.28,3.28,0,0,0,2.21.81,3,3,0,0,0,2.92-2.16ZM63.61,61.93a8.75,8.75,0,0,0-3.81.83A7.14,7.14,0,0,0,57,65a12,12,0,0,1,1.68-5.88,4.33,4.33,0,0,1,3.72-2.09,6,6,0,0,1,2.06.36A26.14,26.14,0,0,1,67,58.51l1,.5c.57.3,1,.51,1.35.65a3,3,0,0,0,1.13.2,2.39,2.39,0,0,0,1.91-1,3.63,3.63,0,0,0,.79-2.36A3.35,3.35,0,0,0,72.81,55a4.1,4.1,0,0,0-1.1-1.22,14.34,14.34,0,0,0-4.53-2.25A17.43,17.43,0,0,0,62,50.68a12.21,12.21,0,0,0-7,2,13.11,13.11,0,0,0-4.63,5.78,21.73,21.73,0,0,0-1.65,8.8q0,7.65,3.47,11.79T62,83.22a11.65,11.65,0,0,0,5.72-1.4,10.07,10.07,0,0,0,3.93-3.89,12,12,0,0,0,.18-11,9.11,9.11,0,0,0-8.25-5ZM61.54,76.87a3.58,3.58,0,0,1-2.79-1.19,4.4,4.4,0,0,1-1.08-3.08,4.49,4.49,0,0,1,1-3.11,3.63,3.63,0,0,1,2.82-1.17,3.56,3.56,0,0,1,2.81,1.15,5.27,5.27,0,0,1,0,6.23A3.55,3.55,0,0,1,61.54,76.87Z"/></svg>