<svg id="Layer_1" data-name="Layer 1" xmlns="http://www.w3.org/2000/svg" viewBox="0 0 100 100"><title>l28_3_1</title><path d="M100,11.58V70A11.57,11.57,0,0,1,88.42,81.55H81.55v6.87A11.57,11.57,0,0,1,70,100H11.58A11.57,11.57,0,0,1,0,88.42V30A11.57,11.57,0,0,1,11.58,18.45h6.87V11.58A11.57,11.57,0,0,1,30,0H88.42A11.57,11.57,0,0,1,100,11.58ZM92,33.7l-7.44-7.44,6.84-6.72a4.91,4.91,0,0,0,1.5-3.48,4.49,4.49,0,0,0-1.41-3.27,4.55,4.55,0,0,0-3.33-1.41A4.8,4.8,0,0,0,84.58,13L78.1,19.54,71.68,13a4.6,4.6,0,0,0-3.54-1.68,4.51,4.51,0,0,0-3.33,1.44,4.65,4.65,0,0,0-1.41,3.36,4.71,4.71,0,0,0,1.5,3.42l6.84,6.72L64.3,33.7a4.71,4.71,0,0,0-1.5,3.42,4.54,4.54,0,0,0,1.44,3.3,4.61,4.61,0,0,0,3.36,1.44,4.8,4.8,0,0,0,3.54-1.62l7-7.32,7,7.32a4.8,4.8,0,0,0,3.54,1.62A4.61,4.61,0,0,0,92,40.42a4.54,4.54,0,0,0,1.44-3.3A4.71,4.71,0,0,0,92,33.7Zm-40,2.24H22.53q-3.37,0-5,1.38A5.28,5.28,0,0,0,16,41.49a5.09,5.09,0,0,0,1.54,4c1,.9,2.69,1.35,5,1.35H41.28L22,79.81A7.09,7.09,0,0,0,21,83.41a5.5,5.5,0,0,0,2,4.31,6.86,6.86,0,0,0,4.65,1.77,6.35,6.35,0,0,0,3.18-.87A6.91,6.91,0,0,0,33.4,86L56.13,46.59a9.66,9.66,0,0,0,1.42-5,5.89,5.89,0,0,0-1.46-4.09A5.35,5.35,0,0,0,51.93,35.94Z"/></svg>