<svg id="Layer_1" data-name="Layer 1" xmlns="http://www.w3.org/2000/svg" viewBox="0 0 100 100"><title>l28_3_1</title><path d="M100,11.58V70A11.57,11.57,0,0,1,88.42,81.55H81.55v6.87A11.57,11.57,0,0,1,70,100H11.58A11.57,11.57,0,0,1,0,88.42V30A11.57,11.57,0,0,1,11.58,18.45h6.87V11.58A11.57,11.57,0,0,1,30,0H88.42A11.57,11.57,0,0,1,100,11.58ZM27.74,74.24H24.05V52.91A3.91,3.91,0,0,0,23,50a4,4,0,0,0-2.9-1.08A7.61,7.61,0,0,0,16.31,50l-7.2,4.19A3.05,3.05,0,0,0,7.54,57a3.72,3.72,0,0,0,.9,2.45,2.68,2.68,0,0,0,2.16,1.1,3.05,3.05,0,0,0,1.57-.45L15.77,58V74.24H12.13a4.5,4.5,0,0,0-3,.81,3,3,0,0,0-.95,2.43q0,3.33,3.92,3.33H27.74q3.92,0,3.92-3.33a3,3,0,0,0-.95-2.43A4.5,4.5,0,0,0,27.74,74.24Zm9.63,8L47.58,50.17a4.51,4.51,0,0,0,.19-1,2.65,2.65,0,0,0-1-2.12,3.39,3.39,0,0,0-2.23-.81,3,3,0,0,0-1.73.54,3,3,0,0,0-1.15,1.62L31.48,80.5a3,3,0,0,0-.19,1,2.61,2.61,0,0,0,1,2.07,3.28,3.28,0,0,0,2.21.81,3,3,0,0,0,2.92-2.16ZM59.78,48.68a11.58,11.58,0,0,0-5.71,1.4A9.9,9.9,0,0,0,50.13,54,12,12,0,0,0,50,65a9.26,9.26,0,0,0,3.4,3.69A9.14,9.14,0,0,0,58.21,70a8.63,8.63,0,0,0,3.8-.84,7.21,7.21,0,0,0,2.77-2.27,12,12,0,0,1-1.69,5.87,4.31,4.31,0,0,1-3.71,2.1,6,6,0,0,1-2.07-.36c-.66-.24-1.49-.6-2.48-1.08l-1-.5a14.94,14.94,0,0,0-1.35-.65,2.83,2.83,0,0,0-1.12-.2,2.41,2.41,0,0,0-1.92,1,3.67,3.67,0,0,0-.78,2.37A3.35,3.35,0,0,0,49,76.94a3.88,3.88,0,0,0,1.11,1.22,14.28,14.28,0,0,0,4.52,2.25,17.43,17.43,0,0,0,5.15.81,12.21,12.21,0,0,0,7-2,13.11,13.11,0,0,0,4.63-5.78,21.73,21.73,0,0,0,1.65-8.8q0-7.65-3.47-11.79T59.78,48.68Zm.5,14.9a3.6,3.6,0,0,1-2.82-1.15,4.6,4.6,0,0,1-1-3.13,4.46,4.46,0,0,1,1-3.1A3.52,3.52,0,0,1,60.28,55a3.61,3.61,0,0,1,2.79,1.19,4.4,4.4,0,0,1,1.08,3.08,4.49,4.49,0,0,1-1.06,3.11A3.61,3.61,0,0,1,60.28,63.58ZM91,32l-7.44-7.44,6.84-6.72a4.91,4.91,0,0,0,1.5-3.48,4.49,4.49,0,0,0-1.41-3.27,4.55,4.55,0,0,0-3.33-1.41,4.8,4.8,0,0,0-3.54,1.62L77.1,17.81l-6.42-6.54a4.6,4.6,0,0,0-3.54-1.68A4.51,4.51,0,0,0,63.81,11a4.65,4.65,0,0,0-1.41,3.36,4.71,4.71,0,0,0,1.5,3.42l6.84,6.72L63.3,32a4.71,4.71,0,0,0-1.5,3.42,4.54,4.54,0,0,0,1.44,3.3,4.61,4.61,0,0,0,3.36,1.44,4.8,4.8,0,0,0,3.54-1.62l7-7.32,7,7.32a4.8,4.8,0,0,0,3.54,1.62A4.61,4.61,0,0,0,91,38.69a4.54,4.54,0,0,0,1.44-3.3A4.71,4.71,0,0,0,91,32Z"/></svg>