<svg id="Layer_1" data-name="Layer 1" xmlns="http://www.w3.org/2000/svg" viewBox="0 0 100 100"><title>l28_3_1</title><path d="M100,11.58V70A11.57,11.57,0,0,1,88.42,81.55H81.55v6.87A11.57,11.57,0,0,1,70,100H11.58A11.57,11.57,0,0,1,0,88.42V30A11.57,11.57,0,0,1,11.58,18.45h6.87V11.58A11.57,11.57,0,0,1,30,0H88.42A11.57,11.57,0,0,1,100,11.58ZM27.74,74.24H24.05V52.91A3.91,3.91,0,0,0,23,50a4,4,0,0,0-2.9-1.08A7.58,7.58,0,0,0,16.31,50l-7.2,4.19A3.05,3.05,0,0,0,7.54,57a3.73,3.73,0,0,0,.9,2.45,2.68,2.68,0,0,0,2.16,1.1,3.05,3.05,0,0,0,1.57-.45L15.77,58V74.24H12.12a4.49,4.49,0,0,0-3,.81,3,3,0,0,0-.95,2.43c0,2.22,1.31,3.33,3.91,3.33H27.74q3.92,0,3.92-3.33a3,3,0,0,0-.95-2.43A4.5,4.5,0,0,0,27.74,74.24Zm9.63,8L47.58,50.17a4.51,4.51,0,0,0,.19-1,2.65,2.65,0,0,0-1-2.12,3.39,3.39,0,0,0-2.23-.81,3,3,0,0,0-1.73.54,3,3,0,0,0-1.15,1.62L31.48,80.5a3,3,0,0,0-.19,1,2.61,2.61,0,0,0,1,2.07,3.28,3.28,0,0,0,2.21.81,3,3,0,0,0,2.92-2.16ZM66.62,64.48a7.31,7.31,0,0,0,3.58-2.73,7.5,7.5,0,0,0,1.28-4.34,7.89,7.89,0,0,0-1.37-4.59,8.82,8.82,0,0,0-3.92-3.06,14.88,14.88,0,0,0-5.87-1.08,18,18,0,0,0-5.33.81,14.89,14.89,0,0,0-4.57,2.25A3.64,3.64,0,0,0,49.34,53,3.49,3.49,0,0,0,49,54.53a3.67,3.67,0,0,0,.76,2.36,2.31,2.31,0,0,0,1.89,1,3.11,3.11,0,0,0,1.13-.2c.32-.14.77-.35,1.35-.65l.94-.45a24.77,24.77,0,0,1,2.45-1.08,6.85,6.85,0,0,1,2.36-.41,3.91,3.91,0,0,1,2.75.92,3.38,3.38,0,0,1,1,2.59,2.55,2.55,0,0,1-1.12,2.3,6.91,6.91,0,0,1-3.61.72H57a2.56,2.56,0,0,0-2.12.94,3.71,3.71,0,0,0,0,4.5A2.57,2.57,0,0,0,57,68h2.79a6.73,6.73,0,0,1,3.68.76,2.83,2.83,0,0,1,1.13,2.52,3.14,3.14,0,0,1-1.1,2.7,6.27,6.27,0,0,1-3.62.81,8.3,8.3,0,0,1-2.59-.38,20.51,20.51,0,0,1-2.59-1.1l-.56-.25-.43-.2q-.85-.45-1.35-.66a3,3,0,0,0-1.12-.2,2.32,2.32,0,0,0-1.9,1,3.73,3.73,0,0,0-.76,2.36,3.2,3.2,0,0,0,1.39,2.79,14.52,14.52,0,0,0,4.69,2.27,19.77,19.77,0,0,0,5.62.79,17,17,0,0,0,6.37-1.1,9.54,9.54,0,0,0,4.21-3.13,8.57,8.57,0,0,0,0-9.67A7.63,7.63,0,0,0,66.62,64.48ZM91,32l-7.44-7.44,6.84-6.72a4.91,4.91,0,0,0,1.5-3.48,4.49,4.49,0,0,0-1.41-3.27,4.55,4.55,0,0,0-3.33-1.41,4.8,4.8,0,0,0-3.54,1.62L77.1,17.81l-6.42-6.54a4.6,4.6,0,0,0-3.54-1.68A4.51,4.51,0,0,0,63.81,11a4.65,4.65,0,0,0-1.41,3.36,4.71,4.71,0,0,0,1.5,3.42l6.84,6.72L63.3,32a4.71,4.71,0,0,0-1.5,3.42,4.54,4.54,0,0,0,1.44,3.3,4.61,4.61,0,0,0,3.36,1.44,4.8,4.8,0,0,0,3.54-1.62l7-7.32,7,7.32a4.8,4.8,0,0,0,3.54,1.62A4.61,4.61,0,0,0,91,38.69a4.54,4.54,0,0,0,1.44-3.3A4.71,4.71,0,0,0,91,32Z"/></svg>