<svg id="Layer_1" data-name="Layer 1" xmlns="http://www.w3.org/2000/svg" viewBox="0 0 100 100"><title>l28_3_1</title><path d="M100,11.58V70A11.57,11.57,0,0,1,88.42,81.55H81.55v6.87A11.57,11.57,0,0,1,70,100H11.58A11.57,11.57,0,0,1,0,88.42V30A11.57,11.57,0,0,1,11.58,18.45h6.87V11.58A11.57,11.57,0,0,1,30,0H88.42A11.57,11.57,0,0,1,100,11.58ZM27.74,74.24H24.05V52.91A3.91,3.91,0,0,0,23,50a4,4,0,0,0-2.9-1.08A7.58,7.58,0,0,0,16.31,50l-7.2,4.19A3.05,3.05,0,0,0,7.54,57a3.72,3.72,0,0,0,.9,2.45,2.68,2.68,0,0,0,2.16,1.1,3.05,3.05,0,0,0,1.57-.45L15.77,58V74.24H12.12a4.49,4.49,0,0,0-3,.81,3,3,0,0,0-.95,2.43c0,2.22,1.31,3.33,3.91,3.33H27.74q3.92,0,3.92-3.33a3,3,0,0,0-.95-2.43A4.5,4.5,0,0,0,27.74,74.24Zm9.63,8L47.58,50.17a5.23,5.23,0,0,0,.19-1,2.65,2.65,0,0,0-1-2.12,3.39,3.39,0,0,0-2.23-.81,3,3,0,0,0-1.73.54,3,3,0,0,0-1.15,1.62L31.48,80.5a3,3,0,0,0-.19,1,2.61,2.61,0,0,0,1,2.07,3.28,3.28,0,0,0,2.21.81,3,3,0,0,0,2.92-2.16ZM63.61,59.93a8.75,8.75,0,0,0-3.81.83A7.14,7.14,0,0,0,57,63a12,12,0,0,1,1.68-5.88,4.33,4.33,0,0,1,3.72-2.09,6,6,0,0,1,2.06.36c.66.24,1.49.6,2.48,1.08l1,.5c.57.3,1,.51,1.35.65a3,3,0,0,0,1.13.2,2.39,2.39,0,0,0,1.91-1,3.63,3.63,0,0,0,.79-2.36A3.35,3.35,0,0,0,72.81,53a4,4,0,0,0-1.11-1.22,14.18,14.18,0,0,0-4.52-2.25A17.43,17.43,0,0,0,62,48.68a12.21,12.21,0,0,0-7,2,13.11,13.11,0,0,0-4.63,5.78,21.73,21.73,0,0,0-1.65,8.8q0,7.65,3.47,11.79T62,81.22a11.65,11.65,0,0,0,5.72-1.4,10.07,10.07,0,0,0,3.93-3.89,12,12,0,0,0,.18-11,9.11,9.11,0,0,0-8.25-5ZM61.54,74.87a3.54,3.54,0,0,1-2.79-1.19,4.41,4.41,0,0,1-1.09-3.08,4.49,4.49,0,0,1,1.06-3.11,3.63,3.63,0,0,1,2.82-1.17,3.56,3.56,0,0,1,2.81,1.15,5.27,5.27,0,0,1,0,6.23A3.57,3.57,0,0,1,61.54,74.87ZM91,32l-7.44-7.44,6.84-6.72a4.91,4.91,0,0,0,1.5-3.48,4.49,4.49,0,0,0-1.41-3.27,4.55,4.55,0,0,0-3.33-1.41,4.8,4.8,0,0,0-3.54,1.62L77.1,17.81l-6.42-6.54a4.6,4.6,0,0,0-3.54-1.68A4.51,4.51,0,0,0,63.81,11a4.65,4.65,0,0,0-1.41,3.36,4.71,4.71,0,0,0,1.5,3.42l6.84,6.72L63.3,32a4.71,4.71,0,0,0-1.5,3.42,4.54,4.54,0,0,0,1.44,3.3,4.61,4.61,0,0,0,3.36,1.44,4.8,4.8,0,0,0,3.54-1.62l7-7.32,7,7.32a4.8,4.8,0,0,0,3.54,1.62A4.61,4.61,0,0,0,91,38.69a4.54,4.54,0,0,0,1.44-3.3A4.71,4.71,0,0,0,91,32Z"/></svg>