<svg id="Layer_1" data-name="Layer 1" xmlns="http://www.w3.org/2000/svg" viewBox="0 0 100 100"><title>l28_4_1</title><path d="M100,11.58V70A11.57,11.57,0,0,1,88.42,81.55H81.55v6.87A11.57,11.57,0,0,1,70,100H11.58A11.57,11.57,0,0,1,0,88.42V30A11.57,11.57,0,0,1,11.58,18.45h6.87V11.58A11.57,11.57,0,0,1,30,0H88.42A11.57,11.57,0,0,1,100,11.58ZM59.72,32.35H87.45A4.2,4.2,0,0,0,90.6,31a4.4,4.4,0,0,0,1.27-3.19,4.35,4.35,0,0,0-4.42-4.42H59.72a4.23,4.23,0,0,0-3.15,1.31,4.42,4.42,0,0,0-1.28,3.19,4.36,4.36,0,0,0,4.43,4.42ZM73.21,18.26a4.57,4.57,0,0,0,3.41-1.42A4.79,4.79,0,0,0,78,13.39,4.69,4.69,0,0,0,76.62,10a4.58,4.58,0,0,0-3.41-1.43A4.51,4.51,0,0,0,69.84,10a4.69,4.69,0,0,0-1.35,3.41,4.83,4.83,0,0,0,1.35,3.45A4.43,4.43,0,0,0,73.21,18.26Zm0,28.93a4.57,4.57,0,0,0,3.41-1.42A4.69,4.69,0,0,0,78,42.4,4.79,4.79,0,0,0,76.62,39a4.58,4.58,0,0,0-3.41-1.43A4.43,4.43,0,0,0,69.84,39a4.83,4.83,0,0,0-1.35,3.45,4.72,4.72,0,0,0,1.35,3.41A4.5,4.5,0,0,0,73.21,47.19ZM20,84.22q5.9,0,9-4.19t3.1-12.1q0-7.88-3.12-12.06a10.54,10.54,0,0,0-9-4.19q-5.89,0-9,4.19T7.93,67.93Q7.93,75.85,11,80T20,84.22ZM20,78a3.23,3.23,0,0,1-3.11-2.34Q16,73.28,16,67.93t.94-7.68a3.24,3.24,0,0,1,6.21,0,22.19,22.19,0,0,1,.95,7.65q0,5.35-.95,7.69A3.22,3.22,0,0,1,20,78Zm19.62,6.12a4.15,4.15,0,0,0,3.08-1.26,4.51,4.51,0,0,0,0-6.21,4.15,4.15,0,0,0-3.08-1.26,4.21,4.21,0,0,0-3.13,1.26,4.51,4.51,0,0,0,0,6.21A4.21,4.21,0,0,0,39.66,84.08ZM62,62.93a8.78,8.78,0,0,0-3.81.83A7.21,7.21,0,0,0,55.41,66a12.07,12.07,0,0,1,1.68-5.88,4.33,4.33,0,0,1,3.72-2.09,6,6,0,0,1,2.07.36c.66.24,1.48.6,2.47,1.08l1,.5c.57.3,1,.51,1.35.65a3.08,3.08,0,0,0,1.13.2,2.36,2.36,0,0,0,1.91-1,3.63,3.63,0,0,0,.79-2.36A3.35,3.35,0,0,0,71.18,56a3.84,3.84,0,0,0-1.1-1.22,14.34,14.34,0,0,0-4.53-2.25,17.43,17.43,0,0,0-5.15-.81,12.21,12.21,0,0,0-7,2,13.11,13.11,0,0,0-4.63,5.78,21.73,21.73,0,0,0-1.64,8.8q0,7.65,3.46,11.79t9.81,4.14a11.62,11.62,0,0,0,5.72-1.4,10,10,0,0,0,3.93-3.89,12,12,0,0,0,.18-11,9.24,9.24,0,0,0-3.39-3.69A9.14,9.14,0,0,0,62,62.93ZM59.91,77.87a3.57,3.57,0,0,1-2.79-1.19A4.4,4.4,0,0,1,56,73.6a4.49,4.49,0,0,1,1.05-3.11,3.63,3.63,0,0,1,2.82-1.17,3.54,3.54,0,0,1,2.81,1.15,4.58,4.58,0,0,1,1,3.13,4.5,4.5,0,0,1-1,3.1A3.54,3.54,0,0,1,59.91,77.87Z"/></svg>