<svg id="Layer_1" data-name="Layer 1" xmlns="http://www.w3.org/2000/svg" viewBox="0 0 100 100"><title>l24_1_1</title><path d="M100,11.58V70A11.57,11.57,0,0,1,88.42,81.55H81.55v6.87A11.57,11.57,0,0,1,70,100H11.58A11.57,11.57,0,0,1,0,88.42V30A11.57,11.57,0,0,1,11.58,18.45h6.87V11.58A11.57,11.57,0,0,1,30,0H88.42A11.57,11.57,0,0,1,100,11.58ZM28.94,74.24H25.25V52.91A3.91,3.91,0,0,0,24.15,50a4,4,0,0,0-2.9-1.08A7.61,7.61,0,0,0,17.51,50l-7.2,4.19A3.05,3.05,0,0,0,8.74,57a3.77,3.77,0,0,0,.9,2.45,2.69,2.69,0,0,0,2.16,1.1,3.05,3.05,0,0,0,1.57-.45L17,58V74.24H13.33a4.5,4.5,0,0,0-3,.81,3,3,0,0,0-.95,2.43q0,3.33,3.92,3.33H28.94q3.92,0,3.92-3.33a3,3,0,0,0-.95-2.43A4.5,4.5,0,0,0,28.94,74.24Zm9.63,8L48.78,50.17a4.51,4.51,0,0,0,.19-1,2.65,2.65,0,0,0-1-2.12,3.39,3.39,0,0,0-2.23-.81,3,3,0,0,0-1.73.54,3,3,0,0,0-1.15,1.62L32.68,80.5a3,3,0,0,0-.19,1,2.61,2.61,0,0,0,.95,2.07,3.28,3.28,0,0,0,2.21.81,3,3,0,0,0,2.92-2.16Zm31.91-8H61.43l6.39-6.52a21.14,21.14,0,0,0,3.76-5.07,11.36,11.36,0,0,0,1.1-5,8.32,8.32,0,0,0-1.37-4.71,8.84,8.84,0,0,0-3.9-3.15,14.52,14.52,0,0,0-5.84-1.1,18.33,18.33,0,0,0-10,3.06,2.94,2.94,0,0,0-1.1,1.17,3.79,3.79,0,0,0-.29,1.62A3.89,3.89,0,0,0,51,56.94a2.3,2.3,0,0,0,1.89,1,2.71,2.71,0,0,0,.86-.13,5.2,5.2,0,0,0,.92-.43l.7-.38.9-.45a21.69,21.69,0,0,1,2.54-1.11,7.37,7.37,0,0,1,2.4-.38,3.55,3.55,0,0,1,2.5.81,3,3,0,0,1,.88,2.34q0,2.61-3,5.72l-9.54,9.94a4.93,4.93,0,0,0-1.53,3.51,3.36,3.36,0,0,0,1,2.45,3.39,3.39,0,0,0,2.56,1H70.48A4.5,4.5,0,0,0,73.42,80a3.09,3.09,0,0,0,1-2.52,3,3,0,0,0-1-2.45A4.63,4.63,0,0,0,70.48,74.24ZM89,20.43H79.55V11a4.42,4.42,0,1,0-8.84,0v9.44H61.27a4.37,4.37,0,0,0-4.43,4.42A4.41,4.41,0,0,0,58.12,28a4.23,4.23,0,0,0,3.15,1.31h9.44v9.37a4.48,4.48,0,0,0,7.61,3.15,4.36,4.36,0,0,0,1.23-3.15V29.35H89A4.23,4.23,0,0,0,92.15,28a4.44,4.44,0,0,0,1.27-3.19A4.35,4.35,0,0,0,89,20.43Z"/></svg>