<svg id="Layer_1" data-name="Layer 1" xmlns="http://www.w3.org/2000/svg" viewBox="0 0 150 100"><title>s24_1</title><path d="M131.41,100H18.59A18.59,18.59,0,0,1,0,81.41V18.59A18.59,18.59,0,0,1,18.59,0H131.41A18.59,18.59,0,0,1,150,18.59V81.41A18.59,18.59,0,0,1,131.41,100Zm-28-58.14H84.05V22.53a9.05,9.05,0,1,0-18.1,0V41.86H46.62a8.91,8.91,0,0,0-9,9,9,9,0,0,0,2.61,6.52,8.6,8.6,0,0,0,6.44,2.69H66V79.3a9.16,9.16,0,0,0,15.57,6.44,8.89,8.89,0,0,0,2.53-6.44V60.12h19.33a8.64,8.64,0,0,0,6.45-2.69,9,9,0,0,0,2.61-6.52,8.91,8.91,0,0,0-9.06-9Z"/></svg>