<svg id="Layer_1" data-name="Layer 1" xmlns="http://www.w3.org/2000/svg" viewBox="0 0 150 100"><title>s24_1</title><path d="M131.41,100H18.59A18.59,18.59,0,0,1,0,81.41V18.59A18.59,18.59,0,0,1,18.59,0H131.41A18.59,18.59,0,0,1,150,18.59V81.41A18.59,18.59,0,0,1,131.41,100ZM44.78,61.6h62.47a9.5,9.5,0,0,0,7.09-3,9.93,9.93,0,0,0,2.87-7.18,9.8,9.8,0,0,0-10-10H44.78a9.5,9.5,0,0,0-7.09,3,9.88,9.88,0,0,0-2.87,7.17,9.8,9.8,0,0,0,10,10ZM75.17,29.86a10.28,10.28,0,0,0,7.68-3.2A10.74,10.74,0,0,0,86,18.89a10.55,10.55,0,0,0-3.12-7.6,10.32,10.32,0,0,0-7.68-3.2,10.18,10.18,0,0,0-7.6,3.12,10.61,10.61,0,0,0-3,7.68,10.92,10.92,0,0,0,3,7.77A10,10,0,0,0,75.17,29.86Zm0,65.17a10.28,10.28,0,0,0,7.68-3.2A10.53,10.53,0,0,0,86,84.23a10.74,10.74,0,0,0-3.12-7.77,10.33,10.33,0,0,0-7.68-3.21,10.07,10.07,0,0,0-7.6,3.21,10.92,10.92,0,0,0-3,7.77,10.61,10.61,0,0,0,3,7.68A10.18,10.18,0,0,0,75.17,95Z"/></svg>