<svg id="Layer_1" data-name="Layer 1" xmlns="http://www.w3.org/2000/svg" viewBox="0 0 200 150"><title>g23</title><path d="M2.89,136.61c3.38-3.91,6.64-7.54,9.74-11.32,5.3-6.43,10.63-12.84,14.58-20.48a24.47,24.47,0,0,0,2.07-5.18c1.07-4.24-.76-6.82-5.16-7.15-4-.29-7.69.6-11.36,1.5-2,.48-3.9,1.1-5.86,1.64-.48.14-1.06.5-1.49-.23-.3-.5.08-.94.31-1.33a40.46,40.46,0,0,1,7.11-9.19,42.65,42.65,0,0,1,8.89-6.55A39.12,39.12,0,0,1,30.41,75s10.88-2.86,21.76.27a11.68,11.68,0,0,1,5.69,3.48l18.39,25.55h0a7.22,7.22,0,0,1,1.26,2.56h0a7.18,7.18,0,0,1,.11,2C75.27,130.33,64.11,143,45,147.86c-.56.14-1.32.54-1.78-.08-.61-.82.18-1.3.54-1.83,2.84-4.15,5.69-8.3,7.55-13.2.77-2,1.84-4.18.06-6.64s-4.18-2.28-6.31-2.2c-6.75.23-12.88,2.23-19,4.3-7,2.38-13.74,5.31-20.53,8.11A2.8,2.8,0,0,1,2.89,136.61Z"/><path d="M66.34,80.91c-4.74-6.66-5.26-7.33-7.08-9.1a23.38,23.38,0,0,0-8.59-5c-3.66-1.33-7.31-2.7-11-4.08a5.21,5.21,0,0,1-2.33-1.43c-1.6-1.94-1.46-4.32.58-5.8,7.14-5.19,14.12-10.63,21.55-15.38a23.54,23.54,0,0,1,21.74-2c3.31,1.25,5.63,1.06,8.43-1.17C94.85,32.8,100.3,29,105.76,25.27a132.31,132.31,0,0,1,44-19.69,108.84,108.84,0,0,1,32.36-3c.46,0,.93.05,1.39.1a4.67,4.67,0,0,1,4.21,6.17,108.49,108.49,0,0,1-13.48,30.58,129.36,129.36,0,0,1-18.79,23.31,127.25,127.25,0,0,1-14,12.19c-5.84,4.27-11.68,8.55-17.61,12.69A4.29,4.29,0,0,0,121.61,92a26.18,26.18,0,0,1-2.44,13.63,23.77,23.77,0,0,1-7.31,9.18q-10,7.32-20.09,14.52c-3,2.18-6.38.65-6.62-3.08-.27-4.09-.42-8.2-.47-12.3A23.42,23.42,0,0,0,80,99.77c-1.64-2.18-2.75-3.9-3.22-4.5C74.82,92.82,72,88.85,66.34,80.91Z"/></svg>