<svg id="Layer_1" data-name="Layer 1" xmlns="http://www.w3.org/2000/svg" viewBox="0 0 100 100"><title>l23_4_1</title><path d="M83.53,100H16.47A16.47,16.47,0,0,1,0,83.53V16.47A16.47,16.47,0,0,1,16.47,0H83.53A16.47,16.47,0,0,1,100,16.47V83.53A16.47,16.47,0,0,1,83.53,100Zm-29-76.12A7.65,7.65,0,0,0,58.23,21a7.84,7.84,0,0,0,1.34-4.54,8.26,8.26,0,0,0-1.43-4.8A9.24,9.24,0,0,0,54,8.49,15.64,15.64,0,0,0,47.9,7.36a18.75,18.75,0,0,0-5.58.85,15.63,15.63,0,0,0-4.77,2.35,3.85,3.85,0,0,0-1.13,1.27,3.67,3.67,0,0,0-.33,1.65,3.89,3.89,0,0,0,.8,2.47,2.44,2.44,0,0,0,2,1A3.05,3.05,0,0,0,40,16.75c.35-.14.82-.37,1.41-.68l1-.47A24.83,24.83,0,0,1,45,14.47,6.93,6.93,0,0,1,47.48,14a4.07,4.07,0,0,1,2.87,1,3.5,3.5,0,0,1,1,2.7,2.64,2.64,0,0,1-1.17,2.4,7.14,7.14,0,0,1-3.77.76H44.37a2.7,2.7,0,0,0-2.21,1,3.87,3.87,0,0,0,0,4.71,2.68,2.68,0,0,0,2.21,1h2.92a7.12,7.12,0,0,1,3.86.8A3,3,0,0,1,52.32,31a3.28,3.28,0,0,1-1.15,2.83,6.58,6.58,0,0,1-3.79.84,8.42,8.42,0,0,1-2.7-.4A20.71,20.71,0,0,1,42,33.1l-.59-.26-.44-.21c-.6-.31-1.07-.54-1.42-.68a3.05,3.05,0,0,0-1.17-.21,2.42,2.42,0,0,0-2,1,3.87,3.87,0,0,0-.8,2.47,3.66,3.66,0,0,0,.33,1.62A3.74,3.74,0,0,0,37,38.14a15.2,15.2,0,0,0,4.9,2.37,20.84,20.84,0,0,0,5.88.83,17.65,17.65,0,0,0,6.66-1.16,9.9,9.9,0,0,0,4.39-3.27,8.17,8.17,0,0,0,1.56-5,8.34,8.34,0,0,0-1.58-5.12A7.94,7.94,0,0,0,54.49,23.88ZM47.44,58.07a12.06,12.06,0,0,0-6,1.46,10.45,10.45,0,0,0-4.12,4.06,11.86,11.86,0,0,0-1.48,5.91,11.71,11.71,0,0,0,1.3,5.57,9.61,9.61,0,0,0,3.55,3.86,9.46,9.46,0,0,0,5.08,1.39,9.05,9.05,0,0,0,4-.87,7.48,7.48,0,0,0,2.9-2.38,12.49,12.49,0,0,1-1.77,6.14A4.5,4.5,0,0,1,47,85.4,6.3,6.3,0,0,1,44.86,85a25.71,25.71,0,0,1-2.59-1.13l-1-.51c-.59-.32-1.06-.54-1.41-.69a3.05,3.05,0,0,0-1.17-.21,2.5,2.5,0,0,0-2,1A3.8,3.8,0,0,0,35.82,86a3.41,3.41,0,0,0,.36,1.65,4.06,4.06,0,0,0,1.15,1.27,15,15,0,0,0,4.73,2.35,18.06,18.06,0,0,0,5.38.85A12.78,12.78,0,0,0,54.76,90a13.66,13.66,0,0,0,4.84-6,22.75,22.75,0,0,0,1.72-9.2q0-8-3.62-12.32C55.28,59.51,51.87,58.07,47.44,58.07ZM48,73.64A3.73,3.73,0,0,1,45,72.44a5.5,5.5,0,0,1,0-6.52,4.07,4.07,0,0,1,5.84,0,5.23,5.23,0,0,1,0,6.47A3.79,3.79,0,0,1,48,73.64ZM76.11,49h0a3.53,3.53,0,0,0-3.52-3.52H26.36A3.52,3.52,0,0,0,22.84,49h0a3.51,3.51,0,0,0,3.52,3.52H72.59A3.52,3.52,0,0,0,76.11,49Z"/></svg>