<svg id="Layer_1" data-name="Layer 1" xmlns="http://www.w3.org/2000/svg" viewBox="0 0 100 100"><title>l23_4_1</title><path d="M83.53,100H16.47A16.47,16.47,0,0,1,0,83.53V16.47A16.47,16.47,0,0,1,16.47,0H83.53A16.47,16.47,0,0,1,100,16.47V83.53A16.47,16.47,0,0,1,83.53,100Zm-25-65.91H54.63V11.78a4.06,4.06,0,0,0-1.15-3,4.13,4.13,0,0,0-3-1.13,8,8,0,0,0-3.9,1.17L39,13.15a3.2,3.2,0,0,0-1.65,2.92,3.93,3.93,0,0,0,.94,2.56,2.83,2.83,0,0,0,2.26,1.15,3.19,3.19,0,0,0,1.65-.47L46,17.1v17H42.16a4.7,4.7,0,0,0-3.11.85,3.18,3.18,0,0,0-1,2.54q0,3.48,4.09,3.48H58.49q4.09,0,4.09-3.48a3.15,3.15,0,0,0-1-2.54A4.67,4.67,0,0,0,58.49,34.09Zm-1.14,50.7H47.89L54.57,78a22.1,22.1,0,0,0,3.93-5.3,11.81,11.81,0,0,0,1.15-5.24,8.69,8.69,0,0,0-1.43-4.92,9.29,9.29,0,0,0-4.07-3.29A15.15,15.15,0,0,0,48,58.07a18.48,18.48,0,0,0-5.43.84,18.18,18.18,0,0,0-5,2.36,3.09,3.09,0,0,0-1.16,1.22,4.09,4.09,0,0,0-.3,1.69A4,4,0,0,0,37,66.7a2.38,2.38,0,0,0,2,1.06,3,3,0,0,0,.9-.14,6.59,6.59,0,0,0,1-.45c.36-.2.6-.34.73-.4l.94-.47a21.58,21.58,0,0,1,2.66-1.15,7.57,7.57,0,0,1,2.52-.4,3.76,3.76,0,0,1,2.61.84A3.18,3.18,0,0,1,51.18,68q0,2.73-3.1,6l-10,10.4a5.14,5.14,0,0,0-1.6,3.67,3.52,3.52,0,0,0,1,2.56,3.58,3.58,0,0,0,2.69,1H57.35a4.77,4.77,0,0,0,3.08-.85,3.27,3.27,0,0,0,1-2.64,3.12,3.12,0,0,0-1-2.56A4.84,4.84,0,0,0,57.35,84.79ZM76.11,49h0a3.53,3.53,0,0,0-3.52-3.52H26.36A3.52,3.52,0,0,0,22.84,49h0a3.51,3.51,0,0,0,3.52,3.52H72.59A3.52,3.52,0,0,0,76.11,49Z"/></svg>