<svg id="Layer_1" data-name="Layer 1" xmlns="http://www.w3.org/2000/svg" viewBox="0 0 100 100"><title>23_3_1</title><path d="M83.67,100H16.6A16.46,16.46,0,0,1,.14,83.53V16.47A16.46,16.46,0,0,1,16.6,0H83.67a16.47,16.47,0,0,1,16.47,16.47V83.53A16.47,16.47,0,0,1,83.67,100ZM34.52,48.79a8.27,8.27,0,0,0,4-3.08A8.47,8.47,0,0,0,40,40.81a8.9,8.9,0,0,0-1.55-5.18A10,10,0,0,0,34,32.18,16.86,16.86,0,0,0,27.41,31a20.3,20.3,0,0,0-6,.92,16.8,16.8,0,0,0-5.16,2.54A4.14,4.14,0,0,0,15,35.79a4,4,0,0,0-.35,1.77,4.21,4.21,0,0,0,.86,2.67,2.63,2.63,0,0,0,2.14,1.09,3.15,3.15,0,0,0,1.26-.23c.38-.15.88-.39,1.53-.73l1.06-.51a26.33,26.33,0,0,1,2.77-1.22A7.8,7.8,0,0,1,27,38.17a4.36,4.36,0,0,1,3.09,1,3.79,3.79,0,0,1,1.12,2.92,2.83,2.83,0,0,1-1.27,2.59,7.76,7.76,0,0,1-4.06.82H23.6a2.89,2.89,0,0,0-2.38,1.06,4.18,4.18,0,0,0,0,5.08,2.89,2.89,0,0,0,2.38,1.07h3.15a7.63,7.63,0,0,1,4.17.86,3.2,3.2,0,0,1,1.27,2.84,3.53,3.53,0,0,1-1.25,3,7,7,0,0,1-4.09.91A9.19,9.19,0,0,1,23.93,60,23.82,23.82,0,0,1,21,58.74l-.63-.28-.48-.23c-.64-.34-1.15-.58-1.52-.74a3.42,3.42,0,0,0-1.27-.22A2.63,2.63,0,0,0,15,58.36,4.16,4.16,0,0,0,14.11,61a3.93,3.93,0,0,0,.36,1.75,3.89,3.89,0,0,0,1.21,1.4A16.44,16.44,0,0,0,21,66.74a22.7,22.7,0,0,0,6.35.88,19.09,19.09,0,0,0,7.19-1.24,10.72,10.72,0,0,0,4.75-3.53,8.89,8.89,0,0,0,1.67-5.38,9.05,9.05,0,0,0-1.7-5.54A8.6,8.6,0,0,0,34.52,48.79ZM50.21,67.52a4.67,4.67,0,0,0,3.48-1.42,5.09,5.09,0,0,0,0-7,4.7,4.7,0,0,0-3.48-1.42,4.77,4.77,0,0,0-3.53,1.42,5.11,5.11,0,0,0,0,7A4.73,4.73,0,0,0,50.21,67.52ZM75.4,43.66a9.7,9.7,0,0,0-4.29.94A7.9,7.9,0,0,0,68,47.16a13.48,13.48,0,0,1,1.9-6.63,4.87,4.87,0,0,1,4.19-2.36,6.86,6.86,0,0,1,2.34.41c.74.27,1.67.68,2.79,1.22l1.12.56c.64.34,1.15.58,1.52.73a3.16,3.16,0,0,0,1.27.23,2.68,2.68,0,0,0,2.15-1.09,4.06,4.06,0,0,0,.89-2.67,3.62,3.62,0,0,0-.38-1.77,4.34,4.34,0,0,0-1.24-1.37,16,16,0,0,0-5.1-2.54A19.72,19.72,0,0,0,73.62,31a13.69,13.69,0,0,0-7.89,2.29,14.69,14.69,0,0,0-5.23,6.52,24.57,24.57,0,0,0-1.86,9.93q0,8.64,3.91,13.3t11.07,4.67a13.11,13.11,0,0,0,6.45-1.57,11.23,11.23,0,0,0,4.44-4.39,12.64,12.64,0,0,0,1.6-6.37,12.78,12.78,0,0,0-1.39-6,10.53,10.53,0,0,0-3.84-4.17A10.31,10.31,0,0,0,75.4,43.66ZM73.06,60.51a4,4,0,0,1-3.14-1.34,5.66,5.66,0,0,1,0-7,4.51,4.51,0,0,1,6.35,0,5.17,5.17,0,0,1,1.14,3.53,5.11,5.11,0,0,1-1.17,3.51A4,4,0,0,1,73.06,60.51Z"/></svg>