<svg id="Layer_1" data-name="Layer 1" xmlns="http://www.w3.org/2000/svg" viewBox="0 0 100 100"><title>23_3_1</title><path d="M83.53,100H16.47A16.47,16.47,0,0,1,0,83.53V16.47A16.47,16.47,0,0,1,16.47,0H83.53A16.47,16.47,0,0,1,100,16.47V83.53A16.47,16.47,0,0,1,83.53,100ZM29.94,43.81a12.64,12.64,0,0,0-5,.91V38.48h11q4.42,0,4.42-3.56t-4.42-3.5H20.14a4.32,4.32,0,0,0-3.2,1.12,4.4,4.4,0,0,0-1.11,3.25V49.55a2.8,2.8,0,0,0,1,2.21,3.55,3.55,0,0,0,2.39.83A4.75,4.75,0,0,0,21.46,52a19.14,19.14,0,0,1,2.92-.91,13.84,13.84,0,0,1,2.77-.25,5.73,5.73,0,0,1,4,1.27,4.5,4.5,0,0,1,1.42,3.55,4.37,4.37,0,0,1-1.37,3.58A6.49,6.49,0,0,1,27,60.41,8.51,8.51,0,0,1,24.13,60a29.45,29.45,0,0,1-2.87-1.22l-1-.51a13.91,13.91,0,0,0-1.52-.76,3.35,3.35,0,0,0-1.27-.2,2.6,2.6,0,0,0-2.13,1.09A4.1,4.1,0,0,0,14.46,61a3.68,3.68,0,0,0,.38,1.75A4.37,4.37,0,0,0,16,64.17a16.81,16.81,0,0,0,5.2,2.54,21.19,21.19,0,0,0,6.17.91,16.43,16.43,0,0,0,7.27-1.52,11.45,11.45,0,0,0,4.87-4.32,12,12,0,0,0,1.73-6.44,12.27,12.27,0,0,0-1.45-6,10.24,10.24,0,0,0-4-4.06A11.69,11.69,0,0,0,29.94,43.81ZM49.59,67.52a4.67,4.67,0,0,0,3.48-1.42,5.09,5.09,0,0,0,0-7,4.7,4.7,0,0,0-3.48-1.42,4.93,4.93,0,1,0,0,9.85ZM74.22,43.81a12.73,12.73,0,0,0-5,.91V38.48h11q4.43,0,4.42-3.56t-4.42-3.5H64.42a4.32,4.32,0,0,0-3.2,1.12,4.4,4.4,0,0,0-1.12,3.25V49.55a2.81,2.81,0,0,0,1,2.21,3.55,3.55,0,0,0,2.39.83A4.75,4.75,0,0,0,65.74,52a19.14,19.14,0,0,1,2.92-.91,13.84,13.84,0,0,1,2.77-.25,5.73,5.73,0,0,1,4,1.27,4.5,4.5,0,0,1,1.42,3.55,4.4,4.4,0,0,1-1.37,3.58,6.49,6.49,0,0,1-4.21,1.14A8.51,8.51,0,0,1,68.41,60a28.45,28.45,0,0,1-2.87-1.22l-1-.51A13.91,13.91,0,0,0,63,57.47a3.35,3.35,0,0,0-1.27-.2,2.6,2.6,0,0,0-2.13,1.09A4.11,4.11,0,0,0,58.73,61a3.8,3.8,0,0,0,.38,1.75,4.54,4.54,0,0,0,1.2,1.4,16.81,16.81,0,0,0,5.2,2.54,21.19,21.19,0,0,0,6.17.91,16.42,16.42,0,0,0,7.26-1.52,11.42,11.42,0,0,0,4.88-4.32,12,12,0,0,0,1.72-6.44,12.27,12.27,0,0,0-1.44-6,10.24,10.24,0,0,0-4-4.06A11.69,11.69,0,0,0,74.22,43.81Z"/></svg>