<svg id="Layer_1" data-name="Layer 1" xmlns="http://www.w3.org/2000/svg" viewBox="0 0 100 100"><title>l23_4_1</title><path d="M83.53,100H16.47A16.47,16.47,0,0,1,0,83.53V16.47A16.47,16.47,0,0,1,16.47,0H83.53A16.47,16.47,0,0,1,100,16.47V83.53A16.47,16.47,0,0,1,83.53,100ZM57.24,34.09H47.78l6.68-6.82A22.1,22.1,0,0,0,58.39,22a11.81,11.81,0,0,0,1.16-5.24,8.6,8.6,0,0,0-1.44-4.92A9.19,9.19,0,0,0,54,8.51a15.32,15.32,0,0,0-6.12-1.15,18.18,18.18,0,0,0-5.43.85,18.36,18.36,0,0,0-5,2.35,3.19,3.19,0,0,0-1.15,1.22,4.14,4.14,0,0,0-.3,1.7,4,4,0,0,0,.8,2.52,2.39,2.39,0,0,0,2,1.05,2.73,2.73,0,0,0,.9-.14,5.55,5.55,0,0,0,1-.44c.36-.21.6-.34.73-.4l.94-.47A21.81,21.81,0,0,1,45,14.44a7.83,7.83,0,0,1,2.52-.4,3.73,3.73,0,0,1,2.61.85,3.17,3.17,0,0,1,.92,2.45q0,2.73-3.11,6L38,33.71a5.18,5.18,0,0,0-1.6,3.67,3.53,3.53,0,0,0,1,2.57,3.6,3.6,0,0,0,2.68,1H57.24a4.68,4.68,0,0,0,3.08-.85,3.21,3.21,0,0,0,1-2.63,3.11,3.11,0,0,0-1-2.57A4.8,4.8,0,0,0,57.24,34.09Zm.11,50.7H47.89L54.57,78a22.1,22.1,0,0,0,3.93-5.3,11.81,11.81,0,0,0,1.15-5.24,8.69,8.69,0,0,0-1.43-4.92,9.29,9.29,0,0,0-4.07-3.29A15.15,15.15,0,0,0,48,58.07a19,19,0,0,0-10.4,3.2,3.13,3.13,0,0,0-1.15,1.22,4.09,4.09,0,0,0-.3,1.69A4,4,0,0,0,37,66.7a2.38,2.38,0,0,0,2,1.06,3,3,0,0,0,.9-.14,6.59,6.59,0,0,0,1-.45c.36-.2.6-.34.73-.4l.94-.47a21.58,21.58,0,0,1,2.66-1.15,7.57,7.57,0,0,1,2.52-.4,3.76,3.76,0,0,1,2.61.84A3.18,3.18,0,0,1,51.18,68q0,2.73-3.1,6l-10,10.4a5.14,5.14,0,0,0-1.6,3.67,3.52,3.52,0,0,0,1,2.56,3.58,3.58,0,0,0,2.69,1H57.35a4.77,4.77,0,0,0,3.08-.85,3.27,3.27,0,0,0,1-2.64,3.12,3.12,0,0,0-1-2.56A4.84,4.84,0,0,0,57.35,84.79ZM76.11,49h0a3.53,3.53,0,0,0-3.52-3.52H26.36A3.52,3.52,0,0,0,22.84,49h0a3.51,3.51,0,0,0,3.52,3.52H72.59A3.52,3.52,0,0,0,76.11,49Z"/></svg>