<svg id="Layer_1" data-name="Layer 1" xmlns="http://www.w3.org/2000/svg" viewBox="0 0 100 100"><title>23_3_1</title><path d="M83.53,100H16.47A16.47,16.47,0,0,1,0,83.53V16.47A16.47,16.47,0,0,1,16.47,0H83.53A16.47,16.47,0,0,1,100,16.47V83.53A16.47,16.47,0,0,1,83.53,100ZM33.7,48.79a8.27,8.27,0,0,0,4-3.08,8.47,8.47,0,0,0,1.44-4.9,8.89,8.89,0,0,0-1.54-5.18,10,10,0,0,0-4.42-3.45A16.86,16.86,0,0,0,26.59,31a20.36,20.36,0,0,0-6,.92,16.75,16.75,0,0,0-5.15,2.54,4,4,0,0,0-1.22,1.37,3.88,3.88,0,0,0-.35,1.77,4.15,4.15,0,0,0,.86,2.67,2.61,2.61,0,0,0,2.13,1.09,3.16,3.16,0,0,0,1.27-.23c.37-.15.88-.39,1.53-.73l1.06-.51a26.33,26.33,0,0,1,2.77-1.22,7.78,7.78,0,0,1,2.66-.46,4.38,4.38,0,0,1,3.1,1,3.79,3.79,0,0,1,1.12,2.92,2.83,2.83,0,0,1-1.27,2.59,7.78,7.78,0,0,1-4.06.82H22.78A2.89,2.89,0,0,0,20.4,46.6a4.14,4.14,0,0,0,0,5.08,2.89,2.89,0,0,0,2.38,1.07h3.15a7.63,7.63,0,0,1,4.17.86,3.2,3.2,0,0,1,1.26,2.84,3.52,3.52,0,0,1-1.24,3,7,7,0,0,1-4.09.91A9.19,9.19,0,0,1,23.11,60a23.82,23.82,0,0,1-2.92-1.24l-.63-.28-.48-.23c-.65-.34-1.15-.58-1.53-.74a3.35,3.35,0,0,0-1.27-.22,2.63,2.63,0,0,0-2.13,1.09,4.55,4.55,0,0,0-.51,4.41,4,4,0,0,0,1.22,1.4,16.44,16.44,0,0,0,5.28,2.57,22.65,22.65,0,0,0,6.35.88,19.09,19.09,0,0,0,7.19-1.24,10.69,10.69,0,0,0,4.74-3.53,8.83,8.83,0,0,0,1.68-5.38,9.05,9.05,0,0,0-1.7-5.54A8.63,8.63,0,0,0,33.7,48.79ZM49.39,67.52a4.67,4.67,0,0,0,3.48-1.42,5.09,5.09,0,0,0,0-7,4.7,4.7,0,0,0-3.48-1.42,4.77,4.77,0,0,0-3.53,1.42,5.11,5.11,0,0,0,0,7A4.73,4.73,0,0,0,49.39,67.52Zm32.9-7.72H78.13V35.74a4.43,4.43,0,0,0-1.24-3.31,4.49,4.49,0,0,0-3.28-1.21,8.53,8.53,0,0,0-4.21,1.27l-8.13,4.72a3.45,3.45,0,0,0-1.77,3.15,4.24,4.24,0,0,0,1,2.76A3.06,3.06,0,0,0,63,44.37a3.47,3.47,0,0,0,1.78-.51l4.06-2.39V59.8H64.67a5.08,5.08,0,0,0-3.35.92,3.41,3.41,0,0,0-1.06,2.74q0,3.76,4.41,3.76H82.29q4.42,0,4.42-3.76a3.41,3.41,0,0,0-1.06-2.74A5.09,5.09,0,0,0,82.29,59.8Z"/></svg>