<svg id="Layer_1" data-name="Layer 1" xmlns="http://www.w3.org/2000/svg" viewBox="0 0 100 100"><title>23_3_1</title><path d="M83.67,100H16.6A16.46,16.46,0,0,1,.14,83.53V16.47A16.46,16.46,0,0,1,16.6,0H83.67a16.47,16.47,0,0,1,16.47,16.47V83.53A16.47,16.47,0,0,1,83.67,100ZM37.09,59.8H26.88l7.21-7.36a23.72,23.72,0,0,0,4.24-5.71,12.8,12.8,0,0,0,1.24-5.66A9.32,9.32,0,0,0,38,35.76a10,10,0,0,0-4.4-3.55A16.29,16.29,0,0,0,27,31a19.82,19.82,0,0,0-5.86.92,19.63,19.63,0,0,0-5.36,2.54,3.27,3.27,0,0,0-1.24,1.32,4.9,4.9,0,0,0,.53,4.54,2.6,2.6,0,0,0,2.13,1.14,3.12,3.12,0,0,0,1-.15,6.11,6.11,0,0,0,1-.48l.79-.43,1-.51a25.12,25.12,0,0,1,2.87-1.25,8.43,8.43,0,0,1,2.72-.43,4,4,0,0,1,2.81.92,3.39,3.39,0,0,1,1,2.64q0,2.94-3.36,6.45L16.32,59.4a5.55,5.55,0,0,0-1.73,4,3.81,3.81,0,0,0,1.07,2.77,3.88,3.88,0,0,0,2.89,1.09H37.09a5.08,5.08,0,0,0,3.32-.92,3.48,3.48,0,0,0,1.09-2.84,3.37,3.37,0,0,0-1.09-2.77A5.2,5.2,0,0,0,37.09,59.8Zm12.74,7.72a4.67,4.67,0,0,0,3.48-1.42,5.09,5.09,0,0,0,0-7,4.7,4.7,0,0,0-3.48-1.42,4.77,4.77,0,0,0-3.53,1.42,5.11,5.11,0,0,0,0,7A4.73,4.73,0,0,0,49.83,67.52Zm32.4-36.1H62.32a5,5,0,0,0-3.35.94,3.57,3.57,0,0,0-1.06,2.82,3.43,3.43,0,0,0,1,2.74,5.05,5.05,0,0,0,3.37.91H75L62,61.12a4.78,4.78,0,0,0-.71,2.44,3.7,3.7,0,0,0,1.37,2.92,4.63,4.63,0,0,0,3.15,1.2,4.33,4.33,0,0,0,2.15-.59,4.76,4.76,0,0,0,1.76-1.8L85.07,38.63a6.51,6.51,0,0,0,1-3.35,4,4,0,0,0-1-2.77A3.6,3.6,0,0,0,82.23,31.42Z"/></svg>