<svg id="Layer_1" data-name="Layer 1" xmlns="http://www.w3.org/2000/svg" viewBox="0 0 100 100"><title>l23_2_1</title><path d="M83.67,100H16.6A16.47,16.47,0,0,1,.13,83.53V16.47A16.47,16.47,0,0,1,16.6,0H83.67a16.46,16.46,0,0,1,16.46,16.47V83.53A16.46,16.46,0,0,1,83.67,100Zm-54-40.2H25.46V35.74a4.23,4.23,0,0,0-4.52-4.52,8.57,8.57,0,0,0-4.22,1.27L8.6,37.21a3.44,3.44,0,0,0-1.78,3.15,4.25,4.25,0,0,0,1,2.76,3,3,0,0,0,2.43,1.25,3.44,3.44,0,0,0,1.78-.51l4.06-2.39V59.8H12a5.08,5.08,0,0,0-3.35.92,3.41,3.41,0,0,0-1.07,2.74c0,2.51,1.48,3.76,4.42,3.76H29.62q4.43,0,4.42-3.76A3.41,3.41,0,0,0,33,60.72,5.08,5.08,0,0,0,29.62,59.8Zm19.7,7.87Q56,67.67,59.48,63T63,49.29q0-8.88-3.53-13.61T49.32,31q-6.65,0-10.15,4.72T35.66,49.29q0,8.94,3.51,13.66T49.32,67.67Zm0-7.05A3.64,3.64,0,0,1,45.82,58q-1.07-2.64-1.07-8.69t1.07-8.65a3.65,3.65,0,0,1,7,0q1.06,2.64,1.06,8.63T52.83,58A3.64,3.64,0,0,1,49.32,60.62Zm30.47,7.05q6.64,0,10.15-4.72t3.51-13.66q0-8.88-3.53-13.61T79.79,31q-6.66,0-10.16,4.72t-3.5,13.61q0,8.94,3.5,13.66T79.79,67.67Zm0-7.05A3.63,3.63,0,0,1,76.29,58c-.72-1.76-1.07-4.66-1.07-8.69s.35-6.91,1.07-8.65a3.64,3.64,0,0,1,7,0q1.06,2.64,1.07,8.63T83.29,58A3.64,3.64,0,0,1,79.79,60.62Z"/></svg>