<svg id="Layer_1" data-name="Layer 1" xmlns="http://www.w3.org/2000/svg" viewBox="0 0 100 100"><title>l23_2_1</title><path d="M83.53,100H16.47A16.47,16.47,0,0,1,0,83.53V16.47A16.47,16.47,0,0,1,16.47,0H83.53A16.47,16.47,0,0,1,100,16.47V83.53A16.47,16.47,0,0,1,83.53,100ZM37.84,43.66a9.7,9.7,0,0,0-4.29.94,8,8,0,0,0-3.13,2.56,13.58,13.58,0,0,1,1.91-6.63,4.86,4.86,0,0,1,4.19-2.36,6.76,6.76,0,0,1,2.33.41c.75.27,1.68.68,2.8,1.22l1.11.56c.64.34,1.15.58,1.52.73a3.42,3.42,0,0,0,1.27.23,2.68,2.68,0,0,0,2.16-1.09,4.12,4.12,0,0,0,.89-2.67,3.74,3.74,0,0,0-.38-1.77A4.47,4.47,0,0,0,47,34.41a16.39,16.39,0,0,0-5.11-2.53A19.7,19.7,0,0,0,36.06,31a13.72,13.72,0,0,0-7.9,2.29,14.83,14.83,0,0,0-5.23,6.52,24.75,24.75,0,0,0-1.85,9.93q0,8.63,3.91,13.3t11.07,4.67a13.11,13.11,0,0,0,6.45-1.57A11.36,11.36,0,0,0,47,61.71a12.64,12.64,0,0,0,1.6-6.37,12.79,12.79,0,0,0-1.4-6,10.44,10.44,0,0,0-3.83-4.17A10.31,10.31,0,0,0,37.84,43.66ZM35.5,60.51a4,4,0,0,1-3.15-1.34,5.64,5.64,0,0,1,0-7,4.05,4.05,0,0,1,3.17-1.32,4,4,0,0,1,3.17,1.29,5.92,5.92,0,0,1,0,7A4,4,0,0,1,35.5,60.51Zm29.76,7.16q6.64,0,10.15-4.72t3.51-13.66q0-8.88-3.53-13.61T65.26,31Q58.6,31,55.1,35.68T51.6,49.29q0,8.94,3.5,13.66T65.26,67.67Zm0-7.05A3.64,3.64,0,0,1,61.75,58q-1.06-2.64-1.06-8.69t1.06-8.65a3.65,3.65,0,0,1,7,0q1.06,2.64,1.07,8.63T68.76,58A3.64,3.64,0,0,1,65.26,60.62Z"/></svg>