<svg id="Layer_1" data-name="Layer 1" xmlns="http://www.w3.org/2000/svg" viewBox="0 0 100 100"><title>l23_1_1</title><path d="M83.67,100H16.6A16.46,16.46,0,0,1,.14,83.53V16.47A16.46,16.46,0,0,1,16.6,0H83.67a16.47,16.47,0,0,1,16.47,16.47V83.53A16.47,16.47,0,0,1,83.67,100Zm-54-40.2H25.46V35.74a4.47,4.47,0,0,0-1.24-3.31,4.52,4.52,0,0,0-3.28-1.21,8.57,8.57,0,0,0-4.22,1.27L8.6,37.21a3.46,3.46,0,0,0-1.78,3.15,4.25,4.25,0,0,0,1,2.76,3.06,3.06,0,0,0,2.44,1.25,3.41,3.41,0,0,0,1.77-.51l4.07-2.39V59.8H12a5.08,5.08,0,0,0-3.35.92,3.41,3.41,0,0,0-1.06,2.74q0,3.76,4.41,3.76H29.62q4.43,0,4.42-3.76A3.41,3.41,0,0,0,33,60.72,5.06,5.06,0,0,0,29.62,59.8Zm19.7,7.87Q56,67.67,59.48,63T63,49.29q0-8.88-3.53-13.61T49.32,31q-6.65,0-10.15,4.72t-3.5,13.61q0,8.94,3.5,13.66T49.32,67.67Zm0-7.05A3.64,3.64,0,0,1,45.82,58q-1.07-2.64-1.07-8.69t1.07-8.65a3.65,3.65,0,0,1,7,0q1.06,2.64,1.06,8.63T52.83,58A3.64,3.64,0,0,1,49.32,60.62Zm30.47,7.05Q86.45,67.67,90,63t3.5-13.66q0-8.88-3.53-13.61T79.79,31q-6.65,0-10.15,4.72T66.13,49.29q0,8.94,3.51,13.66T79.79,67.67Zm0-7.05A3.64,3.64,0,0,1,76.29,58q-1.07-2.64-1.07-8.69t1.07-8.65a3.65,3.65,0,0,1,7,0q1.07,2.64,1.06,8.63T83.3,58A3.65,3.65,0,0,1,79.79,60.62Z"/></svg>