<svg id="Layer_1" data-name="Layer 1" xmlns="http://www.w3.org/2000/svg" viewBox="0 0 100 100"><title>l23_1_1</title><path d="M83.53,100H16.47A16.47,16.47,0,0,1,0,83.53V16.47A16.47,16.47,0,0,1,16.47,0H83.53A16.47,16.47,0,0,1,100,16.47V83.53A16.47,16.47,0,0,1,83.53,100ZM57,48.79a8.27,8.27,0,0,0,4-3.08,8.44,8.44,0,0,0,1.44-4.9,8.82,8.82,0,0,0-1.55-5.18,9.89,9.89,0,0,0-4.41-3.45A16.9,16.9,0,0,0,49.9,31a20.36,20.36,0,0,0-6,.92,16.64,16.64,0,0,0-5.15,2.54,4,4,0,0,0-1.22,1.37,3.88,3.88,0,0,0-.35,1.77A4.15,4.15,0,0,0,38,40.23a2.6,2.6,0,0,0,2.13,1.09,3.2,3.2,0,0,0,1.27-.23c.37-.15.88-.39,1.52-.73L44,39.85a28.59,28.59,0,0,1,2.77-1.22,7.78,7.78,0,0,1,2.66-.46,4.38,4.38,0,0,1,3.1,1,3.79,3.79,0,0,1,1.12,2.92,2.85,2.85,0,0,1-1.27,2.59,7.69,7.69,0,0,1-4.06.82H46.09a2.89,2.89,0,0,0-2.38,1.06,4.14,4.14,0,0,0,0,5.08,2.89,2.89,0,0,0,2.38,1.07h3.15a7.57,7.57,0,0,1,4.16.86,3.18,3.18,0,0,1,1.27,2.84,3.52,3.52,0,0,1-1.24,3,7,7,0,0,1-4.09.91A9.19,9.19,0,0,1,46.42,60a23.19,23.19,0,0,1-2.92-1.24l-.63-.28-.48-.23c-.65-.34-1.16-.58-1.53-.74a3.35,3.35,0,0,0-1.27-.22,2.63,2.63,0,0,0-2.13,1.09A4.12,4.12,0,0,0,36.6,61a3.55,3.55,0,0,0,1.57,3.15,16.44,16.44,0,0,0,5.28,2.57,22.65,22.65,0,0,0,6.35.88A19,19,0,0,0,57,66.38a10.72,10.72,0,0,0,4.75-3.53,8.83,8.83,0,0,0,1.68-5.38,9.05,9.05,0,0,0-1.7-5.54A8.63,8.63,0,0,0,57,48.79Z"/></svg>