<svg id="Layer_1" data-name="Layer 1" xmlns="http://www.w3.org/2000/svg" viewBox="0 0 100 100"><title>l23_1_1</title><path d="M83.44,100H16.38A16.47,16.47,0,0,1-.09,83.53V16.47A16.47,16.47,0,0,1,16.38,0H83.44A16.47,16.47,0,0,1,99.91,16.47V83.53A16.47,16.47,0,0,1,83.44,100ZM45.14,31.42H25.23a5,5,0,0,0-3.35.94,3.56,3.56,0,0,0-1.06,2.82,3.43,3.43,0,0,0,1,2.74,5.05,5.05,0,0,0,3.37.91h12.7l-13,22.29a4.78,4.78,0,0,0-.71,2.44,3.7,3.7,0,0,0,1.37,2.92,4.62,4.62,0,0,0,3.15,1.19,4.31,4.31,0,0,0,2.15-.58,4.76,4.76,0,0,0,1.76-1.8L48,38.63a6.51,6.51,0,0,0,1-3.35,4,4,0,0,0-1-2.77A3.6,3.6,0,0,0,45.14,31.42ZM65.35,67.67Q72,67.67,75.5,63T79,49.29q0-8.88-3.53-13.61T65.35,31q-6.66,0-10.16,4.72t-3.5,13.61q0,8.94,3.5,13.66T65.35,67.67Zm0-7.05A3.64,3.64,0,0,1,61.84,58q-1.06-2.64-1.06-8.69t1.06-8.65a3.65,3.65,0,0,1,7,0q1.07,2.64,1.07,8.63T68.85,58A3.64,3.64,0,0,1,65.35,60.62Z"/></svg>