<svg id="Layer_1" data-name="Layer 1" xmlns="http://www.w3.org/2000/svg" viewBox="0 0 100 100"><title>23_3_1</title><path d="M83.53,100H16.47A16.47,16.47,0,0,1,0,83.53V16.47A16.47,16.47,0,0,1,16.47,0H83.53A16.47,16.47,0,0,1,100,16.47V83.53A16.47,16.47,0,0,1,83.53,100ZM48.78,31a13.11,13.11,0,0,0-6.45,1.58,11.36,11.36,0,0,0-4.44,4.39,12.64,12.64,0,0,0-1.6,6.37,12.67,12.67,0,0,0,1.4,6,10.48,10.48,0,0,0,3.83,4.16A10.23,10.23,0,0,0,47,55,9.7,9.7,0,0,0,51.29,54a8,8,0,0,0,3.13-2.56,13.5,13.5,0,0,1-1.91,6.62,4.84,4.84,0,0,1-4.19,2.36,6.75,6.75,0,0,1-2.33-.4,29.64,29.64,0,0,1-2.79-1.22l-1.12-.56c-.64-.34-1.15-.58-1.52-.73a3.23,3.23,0,0,0-1.27-.23,2.68,2.68,0,0,0-2.16,1.09,4.09,4.09,0,0,0-.89,2.66,3.78,3.78,0,0,0,.38,1.78,4.34,4.34,0,0,0,1.24,1.37A16.19,16.19,0,0,0,43,66.76a19.65,19.65,0,0,0,5.81.92,13.8,13.8,0,0,0,7.9-2.29,14.83,14.83,0,0,0,5.23-6.52,24.75,24.75,0,0,0,1.85-9.93q0-8.64-3.91-13.31T48.78,31Zm.56,16.81a4,4,0,0,1-3.17-1.3A5.08,5.08,0,0,1,45,43a5.1,5.1,0,0,1,1.17-3.51,4,4,0,0,1,3.15-1.32,4,4,0,0,1,3.15,1.35A5,5,0,0,1,53.71,43a5,5,0,0,1-1.2,3.5A4.05,4.05,0,0,1,49.34,47.77Z"/></svg>