<svg id="Layer_1" data-name="Layer 1" xmlns="http://www.w3.org/2000/svg" viewBox="0 0 100 100"><title>l23_2_1</title><path d="M83.35,100H16.29A16.47,16.47,0,0,1-.18,83.53V16.47A16.47,16.47,0,0,1,16.29,0H83.35A16.47,16.47,0,0,1,99.82,16.47V83.53A16.47,16.47,0,0,1,83.35,100ZM41.19,48.79a8.2,8.2,0,0,0,4-3.08,8.38,8.38,0,0,0,1.45-4.9,8.82,8.82,0,0,0-1.55-5.18,9.89,9.89,0,0,0-4.41-3.45A16.93,16.93,0,0,0,34.08,31a20.36,20.36,0,0,0-6,.92,16.64,16.64,0,0,0-5.15,2.54,4,4,0,0,0-1.22,1.37,3.87,3.87,0,0,0-.36,1.77,4.16,4.16,0,0,0,.87,2.67,2.6,2.6,0,0,0,2.13,1.09,3.2,3.2,0,0,0,1.27-.23c.37-.15.88-.39,1.52-.73l1.07-.51A27.56,27.56,0,0,1,31,38.63a7.74,7.74,0,0,1,2.66-.46,4.4,4.4,0,0,1,3.1,1,3.83,3.83,0,0,1,1.12,2.92,2.85,2.85,0,0,1-1.27,2.59,7.7,7.7,0,0,1-4.07.82H30.27a2.91,2.91,0,0,0-2.39,1.06,4.18,4.18,0,0,0,0,5.08,2.91,2.91,0,0,0,2.39,1.07h3.15a7.57,7.57,0,0,1,4.16.86,3.18,3.18,0,0,1,1.27,2.84,3.52,3.52,0,0,1-1.24,3,7,7,0,0,1-4.09.91A9.15,9.15,0,0,1,30.6,60a23.19,23.19,0,0,1-2.92-1.24l-.63-.28-.49-.23c-.64-.34-1.15-.58-1.52-.74a3.35,3.35,0,0,0-1.27-.22,2.6,2.6,0,0,0-2.13,1.09A4.12,4.12,0,0,0,20.78,61a3.55,3.55,0,0,0,1.57,3.15,16.44,16.44,0,0,0,5.28,2.57,22.65,22.65,0,0,0,6.35.88,19,19,0,0,0,7.18-1.24,10.72,10.72,0,0,0,4.75-3.53,8.83,8.83,0,0,0,1.68-5.38,9,9,0,0,0-1.71-5.54A8.57,8.57,0,0,0,41.19,48.79Zm24,18.89q6.65,0,10.15-4.73t3.51-13.66q0-8.88-3.53-13.6T65.21,31q-6.66,0-10.16,4.73t-3.5,13.6q0,8.94,3.5,13.66T65.21,67.68Zm0-7.06A3.64,3.64,0,0,1,61.7,58q-1.06-2.64-1.06-8.69c0-4,.35-6.91,1.06-8.65a3.65,3.65,0,0,1,7,0q1.07,2.64,1.07,8.63T68.71,58A3.64,3.64,0,0,1,65.21,60.62Z"/></svg>