<svg id="Layer_1" data-name="Layer 1" xmlns="http://www.w3.org/2000/svg" viewBox="0 0 100 100"><title>l23_2_1</title><path d="M83.2,100H16.14A16.47,16.47,0,0,1-.33,83.53V16.47A16.47,16.47,0,0,1,16.14,0H83.2A16.47,16.47,0,0,1,99.67,16.47V83.53A16.47,16.47,0,0,1,83.2,100ZM45.81,54.07H44.69V35.74a4.35,4.35,0,0,0-1.37-3.41A4.79,4.79,0,0,0,40,31.11a5,5,0,0,0-2.26.54A4.56,4.56,0,0,0,36,33.2L21.44,53.91a5.67,5.67,0,0,0-1.12,3.36,3.9,3.9,0,0,0,1.06,2.79,3.85,3.85,0,0,0,2.9,1.11H35.6V62.9a4.5,4.5,0,0,0,1.25,3.45,4.58,4.58,0,0,0,3.27,1.17,4.66,4.66,0,0,0,3.3-1.17,4.43,4.43,0,0,0,1.27-3.45V61.17h1.12c2.94,0,4.42-1.2,4.42-3.6S48.75,54.07,45.81,54.07Zm-16.3,0,6.09-8.79v8.79Zm35.85,13.6Q72,67.67,75.51,63T79,49.29q0-8.88-3.53-13.61T65.36,31Q58.7,31,55.2,35.68T51.7,49.29q0,8.94,3.5,13.66T65.36,67.67Zm0-7.05A3.65,3.65,0,0,1,61.85,58q-1.07-2.64-1.06-8.69t1.06-8.65a3.65,3.65,0,0,1,7,0q1.06,2.64,1.07,8.63T68.86,58A3.64,3.64,0,0,1,65.36,60.62Z"/></svg>