<svg id="Layer_1" data-name="Layer 1" xmlns="http://www.w3.org/2000/svg" viewBox="0 0 100 100"><title>l23_1_1</title><path d="M83.53,100H16.47A16.47,16.47,0,0,1,0,83.53V16.47A16.47,16.47,0,0,1,16.47,0H83.53A16.47,16.47,0,0,1,100,16.47V83.53A16.47,16.47,0,0,1,83.53,100ZM45.65,33.6H44.53V15.27a4.35,4.35,0,0,0-1.37-3.41,4.82,4.82,0,0,0-3.3-1.21,5,5,0,0,0-2.26.53,4.66,4.66,0,0,0-1.81,1.55L21.27,33.45a5.7,5.7,0,0,0-1.11,3.35,3.9,3.9,0,0,0,1.06,2.79,3.84,3.84,0,0,0,2.9,1.12H35.44v1.72a4.52,4.52,0,0,0,1.24,3.46A4.58,4.58,0,0,0,40,47.05a4.68,4.68,0,0,0,3.3-1.16,4.46,4.46,0,0,0,1.27-3.46V40.71h1.12c2.94,0,4.41-1.21,4.41-3.61S48.59,33.6,45.65,33.6Zm-16.3,0,6.09-8.79V33.6ZM65.2,47.21q6.64,0,10.15-4.73t3.5-13.66q0-8.88-3.52-13.6T65.2,10.49q-6.66,0-10.16,4.73t-3.5,13.6q0,8.94,3.5,13.66T65.2,47.21Zm0-7.06a3.64,3.64,0,0,1-3.51-2.64q-1.06-2.64-1.07-8.69c0-4,.36-6.91,1.07-8.65a3.65,3.65,0,0,1,7,0q1.06,2.64,1.07,8.63T68.7,37.51A3.64,3.64,0,0,1,65.2,40.15ZM34.73,89.21q6.65,0,10.15-4.73t3.51-13.66q0-8.88-3.53-13.6T34.73,52.49q-6.66,0-10.16,4.73t-3.5,13.6q0,8.94,3.5,13.66T34.73,89.21Zm0-7.06a3.65,3.65,0,0,1-3.51-2.64q-1.06-2.64-1.06-8.69c0-4,.35-6.91,1.06-8.65a3.65,3.65,0,0,1,7,0q1.07,2.64,1.07,8.63t-1.07,8.69A3.64,3.64,0,0,1,34.73,82.15ZM65.2,89.21q6.64,0,10.15-4.73t3.5-13.66q0-8.88-3.52-13.6T65.2,52.49q-6.66,0-10.16,4.73t-3.5,13.6q0,8.94,3.5,13.66T65.2,89.21Zm0-7.06a3.64,3.64,0,0,1-3.51-2.64q-1.06-2.64-1.07-8.69c0-4,.36-6.91,1.07-8.65a3.65,3.65,0,0,1,7,0q1.06,2.64,1.07,8.63T68.7,79.51A3.64,3.64,0,0,1,65.2,82.15Z"/></svg>