<svg id="Layer_1" data-name="Layer 1" xmlns="http://www.w3.org/2000/svg" viewBox="0 0 100 100"><title>l23_1_1</title><path d="M83.52,100.11H16.46A16.47,16.47,0,0,1,0,83.64V16.57A16.46,16.46,0,0,1,16.46.11H83.52A16.46,16.46,0,0,1,100,16.57V83.64A16.47,16.47,0,0,1,83.52,100.11ZM41.36,28.42a8.25,8.25,0,0,0,4-3.07,8.49,8.49,0,0,0,1.44-4.9,8.82,8.82,0,0,0-1.55-5.18,9.89,9.89,0,0,0-4.41-3.45,16.76,16.76,0,0,0-6.63-1.22,20.35,20.35,0,0,0-6,.91,16.86,16.86,0,0,0-5.15,2.54,4.12,4.12,0,0,0-1.22,1.37,4,4,0,0,0-.36,1.78,4.16,4.16,0,0,0,.87,2.67A2.63,2.63,0,0,0,24.5,21a3.38,3.38,0,0,0,1.27-.23c.37-.15.88-.4,1.52-.74l1.07-.51a27.3,27.3,0,0,1,2.77-1.21,7.51,7.51,0,0,1,2.66-.46,4.38,4.38,0,0,1,3.1,1A3.81,3.81,0,0,1,38,21.77a2.87,2.87,0,0,1-1.27,2.59,7.8,7.8,0,0,1-4.06.81H30.44a2.93,2.93,0,0,0-2.39,1.07,4.18,4.18,0,0,0,0,5.08,2.92,2.92,0,0,0,2.39,1.06h3.15a7.56,7.56,0,0,1,4.16.87A3.17,3.17,0,0,1,39,36.09a3.54,3.54,0,0,1-1.24,3,7.12,7.12,0,0,1-4.09.91,9.15,9.15,0,0,1-2.92-.43,22,22,0,0,1-2.92-1.25l-.63-.27-.48-.23c-.65-.34-1.16-.59-1.53-.74a3.34,3.34,0,0,0-1.27-.23A2.64,2.64,0,0,0,21.81,38,4.15,4.15,0,0,0,21,40.66a3.93,3.93,0,0,0,.35,1.75,4,4,0,0,0,1.22,1.4,16.43,16.43,0,0,0,5.28,2.56,22.66,22.66,0,0,0,6.35.89A19,19,0,0,0,41.33,46a10.72,10.72,0,0,0,4.75-3.53,8.86,8.86,0,0,0,1.68-5.38,9,9,0,0,0-1.7-5.54A8.7,8.7,0,0,0,41.36,28.42Zm24,18.89q6.65,0,10.15-4.72T79,28.93q0-8.88-3.53-13.61T65.38,10.6q-6.66,0-10.16,4.72t-3.5,13.61q0,8.94,3.5,13.66T65.38,47.31Zm0-7.06a3.64,3.64,0,0,1-3.51-2.64Q60.8,35,60.81,28.93c0-4,.35-6.91,1.06-8.66a3.65,3.65,0,0,1,7,0q1.07,2.64,1.07,8.63t-1.07,8.68A3.64,3.64,0,0,1,65.38,40.25ZM34.91,89.31q6.65,0,10.16-4.72t3.5-13.66q0-8.88-3.53-13.61T34.91,52.6q-6.66,0-10.16,4.72t-3.5,13.61q0,8.94,3.5,13.66T34.91,89.31Zm0-7.06a3.64,3.64,0,0,1-3.5-2.64Q30.35,77,30.34,70.93c0-4,.36-6.91,1.07-8.66a3.65,3.65,0,0,1,7,0q1.06,2.64,1.07,8.63t-1.07,8.68A3.63,3.63,0,0,1,34.91,82.25Zm30.47,7.06q6.65,0,10.15-4.72T79,70.93q0-8.88-3.53-13.61T65.38,52.6q-6.66,0-10.16,4.72t-3.5,13.61q0,8.94,3.5,13.66T65.38,89.31Zm0-7.06a3.64,3.64,0,0,1-3.51-2.64Q60.8,77,60.81,70.93c0-4,.35-6.91,1.06-8.66a3.65,3.65,0,0,1,7,0q1.07,2.64,1.07,8.63t-1.07,8.68A3.64,3.64,0,0,1,65.38,82.25Z"/></svg>