<svg id="Layer_1" data-name="Layer 1" xmlns="http://www.w3.org/2000/svg" viewBox="0 0 100 100"><title>l23_4_1</title><path d="M83.53,100H16.47A16.47,16.47,0,0,1,0,83.53V16.47A16.47,16.47,0,0,1,16.47,0H83.53A16.47,16.47,0,0,1,100,16.47V83.53A16.47,16.47,0,0,1,83.53,100Zm-29-76.12A7.65,7.65,0,0,0,58.23,21a7.84,7.84,0,0,0,1.34-4.54,8.2,8.2,0,0,0-1.44-4.8A9.15,9.15,0,0,0,54,8.49,15.64,15.64,0,0,0,47.9,7.36a18.75,18.75,0,0,0-5.58.85,15.63,15.63,0,0,0-4.77,2.35,3.74,3.74,0,0,0-1.13,1.27,3.67,3.67,0,0,0-.33,1.65,3.89,3.89,0,0,0,.8,2.47,2.44,2.44,0,0,0,2,1A3.09,3.09,0,0,0,40,16.75c.35-.14.82-.37,1.41-.68l1-.47A22.84,22.84,0,0,1,45,14.47,6.93,6.93,0,0,1,47.48,14a4.07,4.07,0,0,1,2.87,1,3.5,3.5,0,0,1,1,2.7,2.64,2.64,0,0,1-1.17,2.4,7.14,7.14,0,0,1-3.77.76H44.37a2.7,2.7,0,0,0-2.21,1,3.87,3.87,0,0,0,0,4.71,2.68,2.68,0,0,0,2.21,1h2.92a7.12,7.12,0,0,1,3.86.8A3,3,0,0,1,52.32,31a3.28,3.28,0,0,1-1.15,2.83,6.58,6.58,0,0,1-3.79.84,8.42,8.42,0,0,1-2.7-.4A20.71,20.71,0,0,1,42,33.1l-.59-.26-.44-.21c-.6-.31-1.07-.54-1.42-.68a3.05,3.05,0,0,0-1.17-.21,2.42,2.42,0,0,0-2,1,3.87,3.87,0,0,0-.8,2.47,3.66,3.66,0,0,0,.33,1.62A3.74,3.74,0,0,0,37,38.14a15.25,15.25,0,0,0,4.89,2.37,21,21,0,0,0,5.89.82,17.57,17.57,0,0,0,6.65-1.15,9.88,9.88,0,0,0,4.4-3.27,8.17,8.17,0,0,0,1.56-5,8.39,8.39,0,0,0-1.58-5.13A8,8,0,0,0,54.49,23.88Zm-10,60.91H40.62V62.49a4.07,4.07,0,0,0-1.15-3.06,4.16,4.16,0,0,0-3-1.13,8,8,0,0,0-3.91,1.18L25,63.85a3.21,3.21,0,0,0-1.65,2.92,3.92,3.92,0,0,0,.94,2.56,2.84,2.84,0,0,0,2.26,1.16A3.22,3.22,0,0,0,28.2,70L32,67.81v17H28.16a4.76,4.76,0,0,0-3.11.84,3.16,3.16,0,0,0-1,2.54c0,2.32,1.37,3.49,4.1,3.49H44.48c2.73,0,4.09-1.17,4.09-3.49a3.16,3.16,0,0,0-1-2.54A4.71,4.71,0,0,0,44.48,84.79Zm18.25,7.29q6.17,0,9.41-4.38t3.25-12.65q0-8.23-3.27-12.61t-9.39-4.37q-6.16,0-9.41,4.37T50.08,75.05q0,8.28,3.24,12.65T62.73,92.08Zm0-6.54a3.37,3.37,0,0,1-3.24-2.45q-1-2.45-1-8c0-3.73.33-6.41,1-8a3.38,3.38,0,0,1,6.49,0c.66,1.63,1,4.3,1,8s-.32,6.41-1,8A3.38,3.38,0,0,1,62.73,85.54ZM76.11,49h0a3.53,3.53,0,0,0-3.52-3.52H26.36A3.52,3.52,0,0,0,22.84,49h0a3.51,3.51,0,0,0,3.52,3.52H72.59A3.52,3.52,0,0,0,76.11,49Z"/></svg>