<svg id="Layer_1" data-name="Layer 1" xmlns="http://www.w3.org/2000/svg" viewBox="0 0 100 100"><title>l23_2_1</title><path d="M84.43,100H17.37A16.47,16.47,0,0,1,.9,83.53V16.47A16.47,16.47,0,0,1,17.37,0H84.43A16.47,16.47,0,0,1,100.9,16.47V83.53A16.47,16.47,0,0,1,84.43,100ZM49.68,31a13.11,13.11,0,0,0-6.45,1.58,11.36,11.36,0,0,0-4.44,4.39,12.64,12.64,0,0,0-1.6,6.37,12.7,12.7,0,0,0,1.4,6,10.41,10.41,0,0,0,3.83,4.16A10.23,10.23,0,0,0,47.9,55,9.7,9.7,0,0,0,52.19,54a8.09,8.09,0,0,0,3.13-2.56,13.5,13.5,0,0,1-1.91,6.62,4.84,4.84,0,0,1-4.19,2.36,6.75,6.75,0,0,1-2.33-.4c-.75-.27-1.68-.68-2.8-1.22L43,58.28c-.65-.34-1.15-.58-1.53-.74a3.33,3.33,0,0,0-1.26-.22A2.68,2.68,0,0,0,38,58.41a4,4,0,0,0-.89,2.66,3.78,3.78,0,0,0,.38,1.78,4.44,4.44,0,0,0,1.24,1.37,16.19,16.19,0,0,0,5.11,2.54,19.63,19.63,0,0,0,5.81.91,13.79,13.79,0,0,0,7.9-2.28,14.8,14.8,0,0,0,5.23-6.53,24.66,24.66,0,0,0,1.85-9.92q0-8.64-3.91-13.31T49.68,31Zm.56,16.81a4,4,0,0,1-3.17-1.3A5.08,5.08,0,0,1,45.92,43a5.1,5.1,0,0,1,1.17-3.51,4,4,0,0,1,3.15-1.32,4,4,0,0,1,3.15,1.35A5,5,0,0,1,54.61,43a5,5,0,0,1-1.2,3.5A4.05,4.05,0,0,1,50.24,47.77Z"/></svg>