<svg id="Layer_1" data-name="Layer 1" xmlns="http://www.w3.org/2000/svg" viewBox="0 0 100 100"><title>23_3_1</title><path d="M83.53,100H16.47A16.47,16.47,0,0,1,0,83.53V16.47A16.47,16.47,0,0,1,16.47,0H83.53A16.47,16.47,0,0,1,100,16.47V83.53A16.47,16.47,0,0,1,83.53,100Zm-46-68.58H17.65a5,5,0,0,0-3.35.94,3.57,3.57,0,0,0-1.06,2.82,3.43,3.43,0,0,0,1,2.74,5.05,5.05,0,0,0,3.37.91h12.7l-13,22.29a4.78,4.78,0,0,0-.71,2.44A3.73,3.73,0,0,0,18,66.48a4.63,4.63,0,0,0,3.15,1.2,4.39,4.39,0,0,0,2.16-.59A4.81,4.81,0,0,0,25,65.29L40.4,38.63a6.41,6.41,0,0,0,1-3.35,4,4,0,0,0-1-2.77A3.6,3.6,0,0,0,37.56,31.42Zm11.88,36.1a4.67,4.67,0,0,0,3.48-1.42,5.09,5.09,0,0,0,0-7,4.7,4.7,0,0,0-3.48-1.42,4.77,4.77,0,0,0-3.53,1.42,5.11,5.11,0,0,0,0,7A4.73,4.73,0,0,0,49.44,67.52ZM82.35,59.8H78.18V35.74a4.43,4.43,0,0,0-1.24-3.31,4.49,4.49,0,0,0-3.28-1.21,8.53,8.53,0,0,0-4.21,1.27l-8.13,4.72a3.45,3.45,0,0,0-1.77,3.15,4.22,4.22,0,0,0,1,2.76A3.06,3.06,0,0,0,63,44.37a3.47,3.47,0,0,0,1.78-.51l4.06-2.39V59.8H64.73a5.11,5.11,0,0,0-3.36.92,3.41,3.41,0,0,0-1.06,2.74q0,3.76,4.42,3.76H82.35q4.41,0,4.41-3.76a3.41,3.41,0,0,0-1.06-2.74A5.08,5.08,0,0,0,82.35,59.8Z"/></svg>