<svg id="Layer_1" data-name="Layer 1" xmlns="http://www.w3.org/2000/svg" viewBox="0 0 100 100"><title>l23_4_1</title><path d="M83.53,100H16.47A16.47,16.47,0,0,1,0,83.53V16.47A16.47,16.47,0,0,1,16.47,0H83.53A16.47,16.47,0,0,1,100,16.47V83.53A16.47,16.47,0,0,1,83.53,100Zm-25-65.91H54.63V11.78a4.06,4.06,0,0,0-1.15-3,4.13,4.13,0,0,0-3-1.13,8,8,0,0,0-3.9,1.17L39,13.15a3.2,3.2,0,0,0-1.65,2.92,3.93,3.93,0,0,0,.94,2.56,2.83,2.83,0,0,0,2.26,1.15,3.19,3.19,0,0,0,1.65-.47L46,17.1v17H42.16a4.7,4.7,0,0,0-3.11.85,3.18,3.18,0,0,0-1,2.54q0,3.48,4.09,3.48H58.49q4.09,0,4.09-3.48a3.15,3.15,0,0,0-1-2.54A4.65,4.65,0,0,0,58.49,34.09Zm-3.9,40.49a7.59,7.59,0,0,0,3.74-2.85,7.76,7.76,0,0,0,1.34-4.54,8.18,8.18,0,0,0-1.43-4.79,9.21,9.21,0,0,0-4.09-3.2A15.5,15.5,0,0,0,48,58.07a18.75,18.75,0,0,0-5.58.85,15.4,15.4,0,0,0-4.77,2.35,3.74,3.74,0,0,0-1.13,1.27,3.63,3.63,0,0,0-.33,1.64,3.85,3.85,0,0,0,.8,2.47,2.41,2.41,0,0,0,2,1,3.05,3.05,0,0,0,1.17-.21c.35-.14.82-.37,1.41-.68l1-.47a24.83,24.83,0,0,1,2.57-1.13,7.1,7.1,0,0,1,2.46-.42,4.09,4.09,0,0,1,2.88,1,3.57,3.57,0,0,1,1,2.71,2.64,2.64,0,0,1-1.18,2.4,7.21,7.21,0,0,1-3.76.75H44.48a2.68,2.68,0,0,0-2.21,1,3.85,3.85,0,0,0,0,4.7,2.68,2.68,0,0,0,2.21,1H47.4a7.08,7.08,0,0,1,3.85.8,2.93,2.93,0,0,1,1.18,2.63,3.31,3.31,0,0,1-1.15,2.83,6.58,6.58,0,0,1-3.79.84,8.42,8.42,0,0,1-2.7-.4,20.16,20.16,0,0,1-2.71-1.15l-.59-.26-.44-.21c-.6-.31-1.07-.54-1.42-.68a3.05,3.05,0,0,0-1.17-.21,2.42,2.42,0,0,0-2,1,3.85,3.85,0,0,0-.8,2.47,3.29,3.29,0,0,0,1.46,2.91A15.06,15.06,0,0,0,42,91.21a20.88,20.88,0,0,0,5.88.82,17.62,17.62,0,0,0,6.66-1.15A9.93,9.93,0,0,0,59,87.61a8.23,8.23,0,0,0,1.55-5A8.33,8.33,0,0,0,59,77.5,8.06,8.06,0,0,0,54.59,74.58ZM76.11,49h0a3.53,3.53,0,0,0-3.52-3.52H26.36A3.52,3.52,0,0,0,22.84,49h0a3.51,3.51,0,0,0,3.52,3.52H72.59A3.52,3.52,0,0,0,76.11,49Z"/></svg>