<svg id="Layer_1" data-name="Layer 1" xmlns="http://www.w3.org/2000/svg" viewBox="0 0 100 100"><title>l23_4_1</title><path d="M83.53,100H16.47A16.47,16.47,0,0,1,0,83.53V16.47A16.47,16.47,0,0,1,16.47,0H83.53A16.47,16.47,0,0,1,100,16.47V83.53A16.47,16.47,0,0,1,83.53,100ZM57.24,34.09H47.78l6.68-6.82A22.1,22.1,0,0,0,58.39,22a11.81,11.81,0,0,0,1.16-5.24,8.6,8.6,0,0,0-1.44-4.92A9.19,9.19,0,0,0,54,8.51a15.32,15.32,0,0,0-6.12-1.15,19.26,19.26,0,0,0-10.4,3.2,3.19,3.19,0,0,0-1.15,1.22,4.14,4.14,0,0,0-.3,1.7,4,4,0,0,0,.8,2.52,2.39,2.39,0,0,0,2,1.05,2.73,2.73,0,0,0,.9-.14,5.55,5.55,0,0,0,1-.44c.36-.21.6-.34.73-.4l.94-.47A21.81,21.81,0,0,1,45,14.44a7.83,7.83,0,0,1,2.52-.4,3.68,3.68,0,0,1,2.61.85,3.17,3.17,0,0,1,.92,2.45q0,2.73-3.11,6L38,33.71a5.17,5.17,0,0,0-1.59,3.67,3.52,3.52,0,0,0,1,2.57,3.6,3.6,0,0,0,2.68,1H57.24a4.68,4.68,0,0,0,3.08-.85,3.21,3.21,0,0,0,1-2.63,3.11,3.11,0,0,0-1-2.57A4.8,4.8,0,0,0,57.24,34.09ZM44.48,84.79H40.62V62.49a4.07,4.07,0,0,0-1.15-3.06,4.16,4.16,0,0,0-3-1.13,8,8,0,0,0-3.91,1.18L25,63.85a3.21,3.21,0,0,0-1.65,2.92,3.92,3.92,0,0,0,.94,2.56,2.84,2.84,0,0,0,2.26,1.16A3.22,3.22,0,0,0,28.2,70L32,67.81v17H28.16a4.76,4.76,0,0,0-3.11.84,3.16,3.16,0,0,0-1,2.54c0,2.32,1.37,3.49,4.1,3.49H44.48c2.73,0,4.09-1.17,4.09-3.49a3.16,3.16,0,0,0-1-2.54A4.71,4.71,0,0,0,44.48,84.79Zm18.25,7.29q6.17,0,9.41-4.38t3.25-12.65q0-8.23-3.27-12.61t-9.39-4.37q-6.16,0-9.41,4.37T50.08,75.05q0,8.28,3.24,12.65T62.73,92.08Zm0-6.54a3.37,3.37,0,0,1-3.24-2.45q-1-2.45-1-8c0-3.73.33-6.41,1-8a3.38,3.38,0,0,1,6.49,0q1,2.45,1,8t-1,8A3.38,3.38,0,0,1,62.73,85.54ZM76.11,49h0a3.53,3.53,0,0,0-3.52-3.52H26.36A3.52,3.52,0,0,0,22.84,49h0a3.51,3.51,0,0,0,3.52,3.52H72.59A3.52,3.52,0,0,0,76.11,49Z"/></svg>