<svg id="Layer_1" data-name="Layer 1" xmlns="http://www.w3.org/2000/svg" viewBox="0 0 100 100"><title>l23_1_1</title><path d="M83.62,100H16.56A16.47,16.47,0,0,1,.09,83.53V16.47A16.47,16.47,0,0,1,16.56,0H83.62a16.47,16.47,0,0,1,16.47,16.47V83.53A16.47,16.47,0,0,1,83.62,100ZM27.34,48.78a7.66,7.66,0,0,0,4-3,8.87,8.87,0,0,0,1.44-5.08,8.38,8.38,0,0,0-3.53-7.13Q25.72,31,19.62,31T10,33.58a8.37,8.37,0,0,0-3.55,7.13,8.6,8.6,0,0,0,1.42,4.95A8.29,8.29,0,0,0,12,48.78a8.49,8.49,0,0,0-4.77,3A8.9,8.9,0,0,0,5.5,57.37a8.78,8.78,0,0,0,3.79,7.54q3.78,2.72,10.33,2.71T30,64.91a8.76,8.76,0,0,0,3.79-7.54,8.37,8.37,0,0,0-6.4-8.59ZM19.62,60.56c-3.69,0-5.53-1.31-5.53-4s1.84-4,5.53-4,5.54,1.32,5.54,4S23.31,60.56,19.62,60.56Zm0-22.54a5.42,5.42,0,0,1,3.4.89,3.43,3.43,0,0,1,1.12,2.87A3.5,3.5,0,0,1,23,44.67a5.29,5.29,0,0,1-3.4.92,5.29,5.29,0,0,1-3.4-.92,3.5,3.5,0,0,1-1.12-2.89,3.43,3.43,0,0,1,1.12-2.87A5.42,5.42,0,0,1,19.62,38ZM50.09,67.67q6.64,0,10.15-4.72t3.51-13.66q0-8.88-3.53-13.61T50.09,31q-6.66,0-10.16,4.72t-3.5,13.61q0,8.94,3.5,13.66T50.09,67.67Zm0-7.05A3.64,3.64,0,0,1,46.58,58q-1.06-2.64-1.06-8.69t1.06-8.65a3.65,3.65,0,0,1,7,0q1.06,2.64,1.07,8.63T53.59,58A3.64,3.64,0,0,1,50.09,60.62Zm30.46,7.05q6.66,0,10.16-4.72t3.5-13.66q0-8.88-3.53-13.61T80.55,31q-6.64,0-10.15,4.72T66.9,49.29q0,8.94,3.5,13.66T80.55,67.67Zm0-7.05A3.64,3.64,0,0,1,77.05,58Q76,55.34,76,49.29t1.07-8.65a3.65,3.65,0,0,1,7,0q1.06,2.64,1.07,8.63T84.06,58A3.64,3.64,0,0,1,80.55,60.62Z"/></svg>