<svg id="Layer_1" data-name="Layer 1" xmlns="http://www.w3.org/2000/svg" viewBox="0 0 100 100"><title>23_3_1</title><path d="M83.53,100H16.47A16.47,16.47,0,0,1,0,83.53V16.47A16.47,16.47,0,0,1,16.47,0H83.53A16.47,16.47,0,0,1,100,16.47V83.53A16.47,16.47,0,0,1,83.53,100ZM38.47,54.07H37.36V35.74A4.35,4.35,0,0,0,36,32.33a4.83,4.83,0,0,0-3.3-1.22,5,5,0,0,0-2.26.54,4.66,4.66,0,0,0-1.81,1.55L14.1,53.91A5.67,5.67,0,0,0,13,57.27a3.91,3.91,0,0,0,1.07,2.79,3.83,3.83,0,0,0,2.89,1.11H28.27V62.9a4.49,4.49,0,0,0,1.24,3.45,4.59,4.59,0,0,0,3.28,1.17,4.69,4.69,0,0,0,3.3-1.17,4.47,4.47,0,0,0,1.27-3.45V61.17h1.11q4.43,0,4.42-3.6C42.89,55.23,41.42,54.07,38.47,54.07Zm-16.3,0,6.1-8.79v8.79ZM49.7,67.52a4.66,4.66,0,0,0,3.47-1.42,5.09,5.09,0,0,0,0-7,4.7,4.7,0,0,0-3.47-1.42,4.93,4.93,0,1,0,0,9.85ZM82.6,59.8H78.44V35.74a4.23,4.23,0,0,0-4.52-4.52,8.57,8.57,0,0,0-4.22,1.27l-8.12,4.72a3.44,3.44,0,0,0-1.78,3.15,4.23,4.23,0,0,0,1,2.76,3,3,0,0,0,2.43,1.25A3.47,3.47,0,0,0,65,43.86l4.06-2.39V59.8H65a5.08,5.08,0,0,0-3.35.92,3.41,3.41,0,0,0-1.07,2.74q0,3.76,4.42,3.76H82.6C85.54,67.22,87,66,87,63.46A3.41,3.41,0,0,0,86,60.72,5.08,5.08,0,0,0,82.6,59.8Z"/></svg>