<svg id="Layer_1" data-name="Layer 1" xmlns="http://www.w3.org/2000/svg" viewBox="0 0 100 100"><title>23_3_1</title><path d="M83.53,100H16.47A16.47,16.47,0,0,1,0,83.53V16.47A16.47,16.47,0,0,1,16.47,0H83.53A16.47,16.47,0,0,1,100,16.47V83.53A16.47,16.47,0,0,1,83.53,100ZM53,43.66a9.7,9.7,0,0,0-4.29.94,8,8,0,0,0-3.13,2.56,13.58,13.58,0,0,1,1.91-6.63,4.86,4.86,0,0,1,4.19-2.36,6.76,6.76,0,0,1,2.33.41A29.64,29.64,0,0,1,56.8,39.8l1.12.56c.64.34,1.15.58,1.52.73a3.42,3.42,0,0,0,1.27.23,2.68,2.68,0,0,0,2.16-1.09,4.12,4.12,0,0,0,.89-2.67,3.74,3.74,0,0,0-.38-1.77,4.47,4.47,0,0,0-1.24-1.38A16.39,16.39,0,0,0,57,31.88,19.7,19.7,0,0,0,51.22,31a13.72,13.72,0,0,0-7.9,2.29,14.83,14.83,0,0,0-5.23,6.52,24.75,24.75,0,0,0-1.85,9.93q0,8.63,3.91,13.3t11.07,4.67a13.11,13.11,0,0,0,6.45-1.57,11.36,11.36,0,0,0,4.44-4.39,12.64,12.64,0,0,0,1.6-6.37,12.79,12.79,0,0,0-1.4-6,10.51,10.51,0,0,0-3.83-4.17A10.31,10.31,0,0,0,53,43.66ZM50.66,60.51a4,4,0,0,1-3.15-1.34,5.64,5.64,0,0,1,0-7,4.5,4.5,0,0,1,6.34,0,5.92,5.92,0,0,1,0,7A4,4,0,0,1,50.66,60.51Z"/></svg>