<svg id="Layer_1" data-name="Layer 1" xmlns="http://www.w3.org/2000/svg" viewBox="0 0 100 100"><title>l23_1_1</title><path d="M83.53,100H16.47A16.47,16.47,0,0,1,0,83.53V16.47A16.47,16.47,0,0,1,16.47,0H83.53A16.47,16.47,0,0,1,100,16.47V83.53A16.47,16.47,0,0,1,83.53,100Zm-23-45.93H59.42V35.74a4.35,4.35,0,0,0-1.37-3.41,4.79,4.79,0,0,0-3.3-1.22,5,5,0,0,0-2.26.54,4.56,4.56,0,0,0-1.8,1.55L36.17,53.91a5.67,5.67,0,0,0-1.12,3.36,3.9,3.9,0,0,0,1.06,2.79A3.85,3.85,0,0,0,39,61.17H50.33V62.9a4.5,4.5,0,0,0,1.25,3.45,4.58,4.58,0,0,0,3.27,1.17,4.66,4.66,0,0,0,3.3-1.17,4.43,4.43,0,0,0,1.27-3.45V61.17h1.12c2.94,0,4.42-1.2,4.42-3.6S63.48,54.07,60.54,54.07Zm-16.3,0,6.09-8.79v8.79Z"/></svg>