<svg id="Layer_1" data-name="Layer 1" xmlns="http://www.w3.org/2000/svg" viewBox="0 0 100 100"><title>l23_1_1</title><path d="M83.53,100H16.47A16.47,16.47,0,0,1,0,83.53V16.47A16.47,16.47,0,0,1,16.47,0H83.53A16.47,16.47,0,0,1,100,16.47V83.53A16.47,16.47,0,0,1,83.53,100ZM52.08,43.81a12.64,12.64,0,0,0-5,.91V38.48H58q4.41,0,4.41-3.56T58,31.42H42.28a4.33,4.33,0,0,0-3.2,1.12A4.4,4.4,0,0,0,38,35.79V49.55a2.8,2.8,0,0,0,1,2.21,3.57,3.57,0,0,0,2.39.83A4.86,4.86,0,0,0,43.6,52a18.23,18.23,0,0,1,2.92-.92,13.91,13.91,0,0,1,2.77-.25,5.73,5.73,0,0,1,4,1.27,4.5,4.5,0,0,1,1.42,3.55,4.37,4.37,0,0,1-1.37,3.58,6.49,6.49,0,0,1-4.21,1.14A8.51,8.51,0,0,1,46.27,60a29.45,29.45,0,0,1-2.87-1.22l-1-.51a13.91,13.91,0,0,0-1.52-.76,3.35,3.35,0,0,0-1.27-.2,2.63,2.63,0,0,0-2.13,1.09A4.12,4.12,0,0,0,36.6,61,3.68,3.68,0,0,0,37,62.77a4.37,4.37,0,0,0,1.19,1.4,16.92,16.92,0,0,0,5.2,2.54,21.24,21.24,0,0,0,6.17.91,16.43,16.43,0,0,0,7.27-1.52,11.33,11.33,0,0,0,4.87-4.32,12,12,0,0,0,1.73-6.44,12.27,12.27,0,0,0-1.45-6,10.24,10.24,0,0,0-4-4.06A11.69,11.69,0,0,0,52.08,43.81Z"/></svg>