<svg id="Layer_1" data-name="Layer 1" xmlns="http://www.w3.org/2000/svg" viewBox="0 0 100 100"><title>l23_4_1</title><path d="M83.53,100H16.47A16.47,16.47,0,0,1,0,83.53V16.47A16.47,16.47,0,0,1,16.47,0H83.53A16.47,16.47,0,0,1,100,16.47V83.53A16.47,16.47,0,0,1,83.53,100Zm-25-65.91H54.63V11.78a4.1,4.1,0,0,0-1.15-3,4.13,4.13,0,0,0-3-1.13,8,8,0,0,0-3.9,1.17L39,13.15a3.2,3.2,0,0,0-1.65,2.92,3.93,3.93,0,0,0,.94,2.56,2.83,2.83,0,0,0,2.26,1.15,3.19,3.19,0,0,0,1.65-.47L46,17.1v17H42.16a4.7,4.7,0,0,0-3.11.85,3.18,3.18,0,0,0-1,2.54q0,3.48,4.09,3.48H58.49q4.09,0,4.09-3.48a3.15,3.15,0,0,0-1-2.54A4.67,4.67,0,0,0,58.49,34.09Zm-14,50.7H40.62V62.49a4.07,4.07,0,0,0-1.15-3.06,4.16,4.16,0,0,0-3-1.13,8,8,0,0,0-3.91,1.18L25,63.85a3.22,3.22,0,0,0-1.64,2.92,3.92,3.92,0,0,0,.94,2.56,2.84,2.84,0,0,0,2.26,1.16A3.22,3.22,0,0,0,28.2,70L32,67.81v17H28.16a4.74,4.74,0,0,0-3.11.84,3.16,3.16,0,0,0-1,2.54c0,2.32,1.37,3.49,4.1,3.49H44.48c2.73,0,4.09-1.17,4.09-3.49a3.16,3.16,0,0,0-1-2.54A4.71,4.71,0,0,0,44.48,84.79Zm18.25,7.29q6.17,0,9.41-4.38t3.25-12.65q0-8.23-3.27-12.61t-9.39-4.37q-6.16,0-9.41,4.37T50.08,75.05q0,8.28,3.24,12.65T62.73,92.08Zm0-6.54a3.37,3.37,0,0,1-3.24-2.45q-1-2.45-1-8c0-3.73.33-6.41,1-8a3.38,3.38,0,0,1,6.49,0q1,2.45,1,8t-1,8A3.38,3.38,0,0,1,62.73,85.54ZM76.11,49h0a3.53,3.53,0,0,0-3.52-3.52H26.36A3.52,3.52,0,0,0,22.84,49h0a3.51,3.51,0,0,0,3.52,3.52H72.59A3.52,3.52,0,0,0,76.11,49Z"/></svg>