<svg id="Layer_1" data-name="Layer 1" xmlns="http://www.w3.org/2000/svg" viewBox="0 0 100 100"><title>23_3_1</title><path d="M83.53,100H16.47A16.47,16.47,0,0,1,0,83.53V16.47A16.47,16.47,0,0,1,16.47,0H83.53A16.47,16.47,0,0,1,100,16.47V83.53A16.47,16.47,0,0,1,83.53,100ZM37.74,59.8H33.57V35.74a4.43,4.43,0,0,0-1.24-3.31,4.49,4.49,0,0,0-3.28-1.21,8.53,8.53,0,0,0-4.21,1.27l-8.12,4.72a3.44,3.44,0,0,0-1.78,3.15,4.28,4.28,0,0,0,1,2.76,3.06,3.06,0,0,0,2.44,1.25,3.47,3.47,0,0,0,1.78-.51l4.06-2.39V59.8H20.12a5.06,5.06,0,0,0-3.35.92,3.41,3.41,0,0,0-1.07,2.74q0,3.76,4.42,3.76H37.74q4.41,0,4.41-3.76a3.41,3.41,0,0,0-1.06-2.74A5.08,5.08,0,0,0,37.74,59.8Zm11.37,7.72a4.67,4.67,0,0,0,3.48-1.42,5.09,5.09,0,0,0,0-7,4.7,4.7,0,0,0-3.48-1.42,4.77,4.77,0,0,0-3.53,1.42,5.11,5.11,0,0,0,0,7A4.73,4.73,0,0,0,49.11,67.52ZM73.74,43.81a12.69,12.69,0,0,0-5,.91V38.48h11c2.94,0,4.42-1.19,4.42-3.56s-1.48-3.5-4.42-3.5H63.94a4.3,4.3,0,0,0-3.2,1.12,4.36,4.36,0,0,0-1.12,3.25V49.55a2.78,2.78,0,0,0,1,2.21,3.54,3.54,0,0,0,2.38.83A4.87,4.87,0,0,0,65.26,52a18.23,18.23,0,0,1,2.92-.92A13.84,13.84,0,0,1,71,50.87a5.73,5.73,0,0,1,4,1.27,4.53,4.53,0,0,1,1.42,3.55A4.4,4.4,0,0,1,75,59.27a6.52,6.52,0,0,1-4.22,1.14A8.59,8.59,0,0,1,67.92,60a28.36,28.36,0,0,1-2.86-1.22l-1-.51a16,16,0,0,0-1.52-.76,3.35,3.35,0,0,0-1.27-.2,2.63,2.63,0,0,0-2.14,1.09A4.18,4.18,0,0,0,58.25,61a3.8,3.8,0,0,0,.38,1.75,4.41,4.41,0,0,0,1.2,1.4A16.59,16.59,0,0,0,65,66.71a21.14,21.14,0,0,0,6.17.91,16.42,16.42,0,0,0,7.26-1.52,11.41,11.41,0,0,0,4.88-4.32,12,12,0,0,0,1.72-6.44,12.16,12.16,0,0,0-1.45-6,10.24,10.24,0,0,0-4-4.06A11.66,11.66,0,0,0,73.74,43.81Z"/></svg>