<svg id="Layer_1" data-name="Layer 1" xmlns="http://www.w3.org/2000/svg" viewBox="0 0 100 100"><title>l23_1_1</title><path d="M83.77,100H16.7A16.47,16.47,0,0,1,.23,83.53V16.47A16.47,16.47,0,0,1,16.7,0H83.77a16.46,16.46,0,0,1,16.46,16.47V83.53A16.46,16.46,0,0,1,83.77,100ZM37.16,43.81a12.69,12.69,0,0,0-5,.91V38.48h11c2.94,0,4.42-1.19,4.42-3.56s-1.48-3.5-4.42-3.5H27.36a4.3,4.3,0,0,0-3.2,1.12A4.36,4.36,0,0,0,23,35.79V49.55a2.78,2.78,0,0,0,1,2.21,3.54,3.54,0,0,0,2.38.83A4.87,4.87,0,0,0,28.68,52a18.23,18.23,0,0,1,2.92-.92,13.84,13.84,0,0,1,2.77-.25,5.73,5.73,0,0,1,4,1.27,4.53,4.53,0,0,1,1.42,3.55,4.4,4.4,0,0,1-1.37,3.58,6.52,6.52,0,0,1-4.22,1.14A8.59,8.59,0,0,1,31.34,60a28.36,28.36,0,0,1-2.86-1.22l-1-.51a16,16,0,0,0-1.52-.76,3.35,3.35,0,0,0-1.27-.2,2.63,2.63,0,0,0-2.14,1.09A4.18,4.18,0,0,0,21.67,61a3.8,3.8,0,0,0,.38,1.75,4.41,4.41,0,0,0,1.2,1.4,16.81,16.81,0,0,0,5.2,2.54,21.14,21.14,0,0,0,6.17.91,16.42,16.42,0,0,0,7.26-1.52,11.41,11.41,0,0,0,4.88-4.32,12,12,0,0,0,1.72-6.44,12.16,12.16,0,0,0-1.45-6,10.24,10.24,0,0,0-4-4.06A11.66,11.66,0,0,0,37.16,43.81Zm28,23.86q6.64,0,10.15-4.72T78.8,49.29q0-8.88-3.53-13.61T65.14,31Q58.48,31,55,35.68t-3.5,13.61q0,8.94,3.5,13.66T65.14,67.67Zm0-7.05A3.64,3.64,0,0,1,61.63,58q-1.07-2.64-1.06-8.69t1.06-8.65a3.65,3.65,0,0,1,7,0q1.06,2.64,1.07,8.63T68.64,58A3.64,3.64,0,0,1,65.14,60.62Z"/></svg>