<svg id="Layer_1" data-name="Layer 1" xmlns="http://www.w3.org/2000/svg" viewBox="0 0 100 100"><title>l23_2_1</title><path d="M83.49,100H16.43A16.47,16.47,0,0,1,0,83.53V16.47A16.47,16.47,0,0,1,16.43,0H83.49A16.47,16.47,0,0,1,100,16.47V83.53A16.47,16.47,0,0,1,83.49,100ZM44,59.8H33.81L41,52.44a23.72,23.72,0,0,0,4.24-5.71,12.8,12.8,0,0,0,1.25-5.66A9.33,9.33,0,0,0,45,35.76a9.92,9.92,0,0,0-4.39-3.55A16.37,16.37,0,0,0,34,31a19.87,19.87,0,0,0-5.86.92,19.63,19.63,0,0,0-5.36,2.54,3.27,3.27,0,0,0-1.24,1.32,4.32,4.32,0,0,0-.33,1.82A4.41,4.41,0,0,0,22,40.28a2.6,2.6,0,0,0,2.14,1.14,3.06,3.06,0,0,0,1-.15,6.11,6.11,0,0,0,1-.48l.79-.43,1-.51a25.9,25.9,0,0,1,2.87-1.25,8.48,8.48,0,0,1,2.72-.43,4,4,0,0,1,2.82.92,3.42,3.42,0,0,1,1,2.64q0,2.94-3.35,6.45L23.25,59.4a5.55,5.55,0,0,0-1.73,4,3.81,3.81,0,0,0,1.07,2.77,3.9,3.9,0,0,0,2.9,1.09H44a5.06,5.06,0,0,0,3.32-.92,3.49,3.49,0,0,0,1.1-2.84,3.38,3.38,0,0,0-1.1-2.77A5.18,5.18,0,0,0,44,59.8Zm21.07,7.88q6.66,0,10.16-4.73t3.5-13.66q0-8.88-3.53-13.61T65.09,31q-6.65,0-10.15,4.72T51.43,49.29q0,8.94,3.51,13.66T65.09,67.68Zm0-7.06A3.64,3.64,0,0,1,61.59,58q-1.06-2.64-1.07-8.69c0-4,.36-6.91,1.07-8.65a3.65,3.65,0,0,1,7,0q1.07,2.64,1.06,8.63T68.6,58A3.65,3.65,0,0,1,65.09,60.62Z"/></svg>