<svg id="Layer_1" data-name="Layer 1" xmlns="http://www.w3.org/2000/svg" viewBox="0 0 100 100"><title>l23_1_1</title><path d="M83.26,100H16.2A16.47,16.47,0,0,1-.27,83.53V16.47A16.47,16.47,0,0,1,16.2,0H83.26A16.47,16.47,0,0,1,99.73,16.47V83.53A16.47,16.47,0,0,1,83.26,100ZM29.52,31.42H9.61a5,5,0,0,0-3.35.94A3.56,3.56,0,0,0,5.2,35.18a3.43,3.43,0,0,0,1,2.74,5.05,5.05,0,0,0,3.37.91h12.7l-13,22.29a4.78,4.78,0,0,0-.71,2.44,3.7,3.7,0,0,0,1.37,2.92,4.62,4.62,0,0,0,3.15,1.19,4.31,4.31,0,0,0,2.15-.58A4.76,4.76,0,0,0,17,65.29L32.36,38.63a6.51,6.51,0,0,0,1-3.35,4,4,0,0,0-1-2.77A3.6,3.6,0,0,0,29.52,31.42ZM49.73,67.67q6.65,0,10.15-4.72t3.51-13.66q0-8.88-3.53-13.61T49.73,31q-6.66,0-10.16,4.72t-3.5,13.61q0,8.94,3.5,13.66T49.73,67.67Zm0-7.05A3.65,3.65,0,0,1,46.22,58q-1.06-2.64-1.06-8.69t1.06-8.65a3.65,3.65,0,0,1,7,0q1.07,2.64,1.07,8.63T53.23,58A3.64,3.64,0,0,1,49.73,60.62ZM80.2,67.67q6.64,0,10.15-4.72t3.5-13.66q0-8.88-3.52-13.61T80.2,31Q73.54,31,70,35.68t-3.5,13.61q0,8.94,3.5,13.66T80.2,67.67Zm0-7.05A3.64,3.64,0,0,1,76.69,58q-1.06-2.64-1.06-8.69t1.06-8.65a3.65,3.65,0,0,1,7,0q1.06,2.64,1.07,8.63T83.7,58A3.64,3.64,0,0,1,80.2,60.62Z"/></svg>