<svg id="Layer_1" data-name="Layer 1" xmlns="http://www.w3.org/2000/svg" viewBox="0 0 100 100"><title>23_3_1</title><path d="M83.67,100H16.6A16.46,16.46,0,0,1,.14,83.53V16.47A16.46,16.46,0,0,1,16.6,0H83.67a16.47,16.47,0,0,1,16.47,16.47V83.53A16.47,16.47,0,0,1,83.67,100ZM30.13,43.81a12.69,12.69,0,0,0-5,.91V38.48h11q4.43,0,4.42-3.56t-4.42-3.5H20.33a4.32,4.32,0,0,0-3.2,1.12A4.4,4.4,0,0,0,16,35.79V49.55a2.81,2.81,0,0,0,1,2.21,3.55,3.55,0,0,0,2.39.83A4.75,4.75,0,0,0,21.65,52a19.14,19.14,0,0,1,2.92-.91,13.84,13.84,0,0,1,2.77-.25,5.73,5.73,0,0,1,4,1.27,4.5,4.5,0,0,1,1.42,3.55,4.4,4.4,0,0,1-1.37,3.58,6.52,6.52,0,0,1-4.22,1.14A8.49,8.49,0,0,1,24.32,60a28.45,28.45,0,0,1-2.87-1.22l-1-.51a13.91,13.91,0,0,0-1.52-.76,3.35,3.35,0,0,0-1.27-.2,2.6,2.6,0,0,0-2.13,1.09A4.11,4.11,0,0,0,14.64,61,3.8,3.8,0,0,0,15,62.77a4.41,4.41,0,0,0,1.2,1.4,16.81,16.81,0,0,0,5.2,2.54,21.14,21.14,0,0,0,6.17.91,16.42,16.42,0,0,0,7.26-1.52,11.42,11.42,0,0,0,4.88-4.32,12,12,0,0,0,1.72-6.44,12.27,12.27,0,0,0-1.44-6,10.3,10.3,0,0,0-4-4.06A11.69,11.69,0,0,0,30.13,43.81ZM49.78,67.52a4.67,4.67,0,0,0,3.48-1.42,5.09,5.09,0,0,0,0-7,4.7,4.7,0,0,0-3.48-1.42,4.77,4.77,0,0,0-3.53,1.42,5.11,5.11,0,0,0,0,7A4.73,4.73,0,0,0,49.78,67.52ZM70.65,31a13.11,13.11,0,0,0-6.45,1.58,11.36,11.36,0,0,0-4.44,4.39,12.64,12.64,0,0,0-1.6,6.37,12.7,12.7,0,0,0,1.4,6,10.41,10.41,0,0,0,3.83,4.16A10.23,10.23,0,0,0,68.87,55a9.78,9.78,0,0,0,4.3-.94,8.13,8.13,0,0,0,3.12-2.56,13.4,13.4,0,0,1-1.91,6.62,4.84,4.84,0,0,1-4.19,2.36,6.75,6.75,0,0,1-2.33-.4,29.64,29.64,0,0,1-2.79-1.22L64,58.28c-.64-.34-1.15-.58-1.53-.74a3.33,3.33,0,0,0-1.26-.22A2.68,2.68,0,0,0,59,58.41a4.09,4.09,0,0,0-.89,2.66,3.78,3.78,0,0,0,.38,1.78,4.44,4.44,0,0,0,1.24,1.37,16.19,16.19,0,0,0,5.11,2.54,19.68,19.68,0,0,0,5.81.91,13.79,13.79,0,0,0,7.9-2.28,14.8,14.8,0,0,0,5.23-6.53,24.66,24.66,0,0,0,1.85-9.92q0-8.64-3.91-13.31T70.65,31Zm.56,16.81A4,4,0,0,1,68,46.47,5.08,5.08,0,0,1,66.89,43a5.1,5.1,0,0,1,1.17-3.51,4,4,0,0,1,3.15-1.32,4,4,0,0,1,3.15,1.35A5,5,0,0,1,75.58,43a5,5,0,0,1-1.2,3.5A4.05,4.05,0,0,1,71.21,47.77Z"/></svg>