<svg id="Layer_1" data-name="Layer 1" xmlns="http://www.w3.org/2000/svg" viewBox="0 0 100 100"><title>l23_4_1</title><path d="M83.53,100H16.47A16.47,16.47,0,0,1,0,83.53V16.47A16.47,16.47,0,0,1,16.47,0H83.53A16.47,16.47,0,0,1,100,16.47V83.53A16.47,16.47,0,0,1,83.53,100Zm-29-76.12A7.65,7.65,0,0,0,58.23,21a7.84,7.84,0,0,0,1.34-4.54,8.26,8.26,0,0,0-1.43-4.8A9.24,9.24,0,0,0,54,8.49,15.64,15.64,0,0,0,47.9,7.36a18.75,18.75,0,0,0-5.58.85,15.63,15.63,0,0,0-4.77,2.35,3.85,3.85,0,0,0-1.13,1.27,3.67,3.67,0,0,0-.33,1.65,3.89,3.89,0,0,0,.8,2.47,2.44,2.44,0,0,0,2,1A3.05,3.05,0,0,0,40,16.75c.35-.14.82-.37,1.41-.68l1-.47A22.84,22.84,0,0,1,45,14.47,6.93,6.93,0,0,1,47.48,14a4.07,4.07,0,0,1,2.87,1,3.5,3.5,0,0,1,1,2.7,2.64,2.64,0,0,1-1.17,2.4,7.14,7.14,0,0,1-3.77.76H44.37a2.7,2.7,0,0,0-2.21,1,3.87,3.87,0,0,0,0,4.71,2.68,2.68,0,0,0,2.21,1h2.92a7.12,7.12,0,0,1,3.86.8A3,3,0,0,1,52.32,31a3.28,3.28,0,0,1-1.15,2.83,6.58,6.58,0,0,1-3.79.84,8.42,8.42,0,0,1-2.7-.4A20.71,20.71,0,0,1,42,33.1l-.59-.26-.44-.21c-.6-.31-1.07-.54-1.41-.68a3.14,3.14,0,0,0-1.18-.21,2.42,2.42,0,0,0-2,1,3.87,3.87,0,0,0-.8,2.47,3.66,3.66,0,0,0,.33,1.62A3.74,3.74,0,0,0,37,38.14a15.2,15.2,0,0,0,4.9,2.37,20.83,20.83,0,0,0,5.88.82,17.66,17.66,0,0,0,6.66-1.15,9.9,9.9,0,0,0,4.39-3.27,8.17,8.17,0,0,0,1.56-5,8.39,8.39,0,0,0-1.58-5.13A8,8,0,0,0,54.49,23.88Zm2.86,60.91H47.89L54.57,78a22.1,22.1,0,0,0,3.93-5.3,11.81,11.81,0,0,0,1.15-5.24,8.69,8.69,0,0,0-1.43-4.92,9.29,9.29,0,0,0-4.07-3.29A15.15,15.15,0,0,0,48,58.07a18.48,18.48,0,0,0-5.43.84,18.18,18.18,0,0,0-5,2.36,3.09,3.09,0,0,0-1.16,1.22,4.09,4.09,0,0,0-.3,1.69A4,4,0,0,0,37,66.7a2.38,2.38,0,0,0,2,1.06,3,3,0,0,0,.9-.14,6.59,6.59,0,0,0,1-.45c.36-.2.6-.34.73-.4l.94-.47a21.58,21.58,0,0,1,2.66-1.15,7.57,7.57,0,0,1,2.52-.4,3.74,3.74,0,0,1,2.61.84A3.18,3.18,0,0,1,51.18,68q0,2.73-3.1,6l-10,10.4a5.14,5.14,0,0,0-1.6,3.67,3.52,3.52,0,0,0,1,2.56,3.58,3.58,0,0,0,2.69,1H57.35a4.76,4.76,0,0,0,3.08-.85,3.27,3.27,0,0,0,1-2.64,3.12,3.12,0,0,0-1-2.56A4.82,4.82,0,0,0,57.35,84.79ZM76.11,49h0a3.53,3.53,0,0,0-3.52-3.52H26.36A3.52,3.52,0,0,0,22.84,49h0a3.51,3.51,0,0,0,3.52,3.52H72.59A3.52,3.52,0,0,0,76.11,49Z"/></svg>