<svg id="Layer_1" data-name="Layer 1" xmlns="http://www.w3.org/2000/svg" viewBox="0 0 100 100"><title>l23_1_1</title><path d="M83.43,100H16.37A16.47,16.47,0,0,1-.1,83.53V16.47A16.47,16.47,0,0,1,16.37,0H83.43A16.47,16.47,0,0,1,99.9,16.47V83.53A16.47,16.47,0,0,1,83.43,100ZM42.61,48.78a7.66,7.66,0,0,0,4-3A8.87,8.87,0,0,0,48,40.71a8.4,8.4,0,0,0-3.52-7.13C42.16,31.83,39,31,34.89,31s-7.22.87-9.59,2.62a8.38,8.38,0,0,0-3.56,7.13,8.67,8.67,0,0,0,1.42,4.95,8.31,8.31,0,0,0,4.07,3.12,8.48,8.48,0,0,0-4.78,3,9,9,0,0,0-1.67,5.56,8.77,8.77,0,0,0,3.78,7.54q3.78,2.72,10.33,2.71t10.34-2.71A8.77,8.77,0,0,0,49,57.37a8.37,8.37,0,0,0-6.4-8.59ZM34.89,60.56c-3.69,0-5.53-1.31-5.53-4s1.84-4,5.53-4,5.54,1.32,5.54,4S38.58,60.56,34.89,60.56Zm0-22.54a5.45,5.45,0,0,1,3.41.89,3.46,3.46,0,0,1,1.11,2.87,3.53,3.53,0,0,1-1.11,2.89,5.32,5.32,0,0,1-3.41.92,5.31,5.31,0,0,1-3.4-.92,3.53,3.53,0,0,1-1.12-2.89,3.46,3.46,0,0,1,1.12-2.87A5.44,5.44,0,0,1,34.89,38ZM65.36,67.67Q72,67.67,75.52,63T79,49.29q0-8.88-3.53-13.61T65.36,31Q58.7,31,55.2,35.68T51.7,49.29q0,8.94,3.5,13.66T65.36,67.67Zm0-7.05A3.64,3.64,0,0,1,61.86,58q-1.06-2.64-1.07-8.69t1.07-8.65a3.64,3.64,0,0,1,7,0q1.06,2.64,1.07,8.63T68.86,58A3.63,3.63,0,0,1,65.36,60.62Z"/></svg>