<svg id="Layer_1" data-name="Layer 1" xmlns="http://www.w3.org/2000/svg" viewBox="0 0 100 100"><title>l23_2_1</title><path d="M83.53,100H16.47A16.47,16.47,0,0,1,0,83.53V16.47A16.47,16.47,0,0,1,16.47,0H83.53A16.47,16.47,0,0,1,100,16.47V83.53A16.47,16.47,0,0,1,83.53,100ZM44.72,59.8H40.55V35.74a4.43,4.43,0,0,0-1.24-3.31A4.49,4.49,0,0,0,36,31.22a8.53,8.53,0,0,0-4.21,1.27L23.7,37.21a3.44,3.44,0,0,0-1.78,3.15,4.3,4.3,0,0,0,1,2.76,3.06,3.06,0,0,0,2.44,1.25,3.47,3.47,0,0,0,1.78-.51l4.06-2.39V59.8H27.1a5.06,5.06,0,0,0-3.35.92,3.41,3.41,0,0,0-1.07,2.74q0,3.76,4.42,3.76H44.72q4.41,0,4.41-3.76a3.41,3.41,0,0,0-1.06-2.74A5.08,5.08,0,0,0,44.72,59.8Zm19.7,7.87q6.64,0,10.15-4.72t3.51-13.66q0-8.88-3.53-13.61T64.42,31q-6.66,0-10.16,4.72t-3.5,13.61q0,8.94,3.5,13.66T64.42,67.67Zm0-7.05A3.63,3.63,0,0,1,60.92,58c-.72-1.76-1.07-4.66-1.07-8.69s.35-6.91,1.07-8.65a3.64,3.64,0,0,1,7,0Q69,43.3,69,49.29T67.92,58A3.64,3.64,0,0,1,64.42,60.62Z"/></svg>