<svg id="Layer_1" data-name="Layer 1" xmlns="http://www.w3.org/2000/svg" viewBox="0 0 100 100"><title>l23_1_1</title><path d="M83.53,100H16.47A16.47,16.47,0,0,1,0,83.53V16.47A16.47,16.47,0,0,1,16.47,0H83.53A16.47,16.47,0,0,1,100,16.47V83.53A16.47,16.47,0,0,1,83.53,100ZM37.22,23.34a12.69,12.69,0,0,0-5,.91V18h11c2.94,0,4.42-1.19,4.42-3.56S46.1,11,43.16,11H27.42a4.3,4.3,0,0,0-3.2,1.12,4.38,4.38,0,0,0-1.12,3.25V29.08a2.78,2.78,0,0,0,1,2.21,3.48,3.48,0,0,0,2.38.84,4.91,4.91,0,0,0,2.29-.56,17.92,17.92,0,0,1,2.92-.92,13.81,13.81,0,0,1,2.76-.25,5.69,5.69,0,0,1,4,1.27,4.5,4.5,0,0,1,1.43,3.55,4.4,4.4,0,0,1-1.37,3.58,6.52,6.52,0,0,1-4.22,1.14,8.59,8.59,0,0,1-2.82-.45,29.45,29.45,0,0,1-2.87-1.22l-1-.51c-.68-.37-1.19-.62-1.52-.76a3.39,3.39,0,0,0-1.27-.2,2.63,2.63,0,0,0-2.14,1.09,4.18,4.18,0,0,0-.86,2.66,3.84,3.84,0,0,0,.38,1.76A4.45,4.45,0,0,0,23.3,43.7a16.65,16.65,0,0,0,5.21,2.54,21.15,21.15,0,0,0,6.17.92,16.42,16.42,0,0,0,7.26-1.53,11.37,11.37,0,0,0,4.87-4.31,12.06,12.06,0,0,0,1.73-6.45,12.16,12.16,0,0,0-1.45-6,10.24,10.24,0,0,0-4-4.06A11.66,11.66,0,0,0,37.22,23.34Zm28,23.87q6.64,0,10.15-4.73t3.5-13.66q0-8.88-3.52-13.6T65.2,10.49q-6.66,0-10.16,4.73t-3.5,13.6q0,8.94,3.5,13.66T65.2,47.21Zm0-7.06a3.64,3.64,0,0,1-3.51-2.64q-1.06-2.64-1.07-8.69c0-4,.36-6.91,1.07-8.65a3.65,3.65,0,0,1,7,0q1.06,2.64,1.07,8.63T68.7,37.51A3.64,3.64,0,0,1,65.2,40.15ZM34.73,89.21q6.65,0,10.15-4.73t3.51-13.66q0-8.88-3.53-13.6T34.73,52.49q-6.66,0-10.16,4.73t-3.5,13.6q0,8.94,3.5,13.66T34.73,89.21Zm0-7.06a3.65,3.65,0,0,1-3.51-2.64q-1.06-2.64-1.06-8.69c0-4,.35-6.91,1.06-8.65a3.65,3.65,0,0,1,7,0q1.07,2.64,1.07,8.63t-1.07,8.69A3.64,3.64,0,0,1,34.73,82.15ZM65.2,89.21q6.64,0,10.15-4.73t3.5-13.66q0-8.88-3.52-13.6T65.2,52.49q-6.66,0-10.16,4.73t-3.5,13.6q0,8.94,3.5,13.66T65.2,89.21Zm0-7.06a3.64,3.64,0,0,1-3.51-2.64q-1.06-2.64-1.07-8.69c0-4,.36-6.91,1.07-8.65a3.65,3.65,0,0,1,7,0q1.06,2.64,1.07,8.63T68.7,79.51A3.64,3.64,0,0,1,65.2,82.15Z"/></svg>