<svg id="Layer_1" data-name="Layer 1" xmlns="http://www.w3.org/2000/svg" viewBox="0 0 100 100"><title>23_3_1</title><path d="M83.53,100H16.47A16.47,16.47,0,0,1,0,83.53V16.47A16.47,16.47,0,0,1,16.47,0H83.53A16.47,16.47,0,0,1,100,16.47V83.53A16.47,16.47,0,0,1,83.53,100ZM36.31,59.8H26.11l7.21-7.36a23.72,23.72,0,0,0,4.24-5.71,12.8,12.8,0,0,0,1.24-5.66,9.26,9.26,0,0,0-1.55-5.31,9.86,9.86,0,0,0-4.39-3.55A16.29,16.29,0,0,0,26.26,31a19.82,19.82,0,0,0-5.86.92A19.63,19.63,0,0,0,15,34.42a3.27,3.27,0,0,0-1.24,1.32,4.17,4.17,0,0,0-.33,1.82,4.35,4.35,0,0,0,.86,2.72,2.57,2.57,0,0,0,2.13,1.14,3.12,3.12,0,0,0,1-.15,6.11,6.11,0,0,0,1-.48l.78-.43,1-.51a25.12,25.12,0,0,1,2.87-1.25,8.41,8.41,0,0,1,2.71-.43,4,4,0,0,1,2.82.92,3.42,3.42,0,0,1,1,2.64c0,2-1.11,4.11-3.35,6.45L15.55,59.4a5.55,5.55,0,0,0-1.73,4,3.81,3.81,0,0,0,1.07,2.77,3.88,3.88,0,0,0,2.89,1.09H36.31a5.11,5.11,0,0,0,3.33-.92,3.48,3.48,0,0,0,1.09-2.84,3.37,3.37,0,0,0-1.09-2.77A5.23,5.23,0,0,0,36.31,59.8Zm12.75,7.72a4.67,4.67,0,0,0,3.48-1.42,5.09,5.09,0,0,0,0-7,4.7,4.7,0,0,0-3.48-1.42,4.77,4.77,0,0,0-3.53,1.42,5.11,5.11,0,0,0,0,7A4.73,4.73,0,0,0,49.06,67.52ZM82.12,54.07H81V35.74a4.35,4.35,0,0,0-1.37-3.41,4.81,4.81,0,0,0-3.3-1.22,5,5,0,0,0-2.26.54,4.56,4.56,0,0,0-1.8,1.55L57.74,53.91a5.73,5.73,0,0,0-1.11,3.36,3.9,3.9,0,0,0,1.06,2.79,3.84,3.84,0,0,0,2.9,1.12H71.91V62.9a4.48,4.48,0,0,0,1.24,3.45,4.61,4.61,0,0,0,3.28,1.17,4.69,4.69,0,0,0,3.3-1.17A4.42,4.42,0,0,0,81,62.9V61.18h1.12c2.94,0,4.41-1.21,4.41-3.61S85.06,54.07,82.12,54.07Zm-16.3,0,6.09-8.79v8.79Z"/></svg>