<svg id="Layer_1" data-name="Layer 1" xmlns="http://www.w3.org/2000/svg" viewBox="0 0 100 100"><title>l23_4_1</title><path d="M83.53,100H16.47A16.47,16.47,0,0,1,0,83.53V16.47A16.47,16.47,0,0,1,16.47,0H83.53A16.47,16.47,0,0,1,100,16.47V83.53A16.47,16.47,0,0,1,83.53,100ZM57.24,34.09H47.78l6.68-6.82A22.1,22.1,0,0,0,58.39,22a11.81,11.81,0,0,0,1.16-5.24,8.62,8.62,0,0,0-1.44-4.92A9.19,9.19,0,0,0,54,8.51a15.32,15.32,0,0,0-6.12-1.15,18.18,18.18,0,0,0-5.43.85,18.36,18.36,0,0,0-5,2.35,3.19,3.19,0,0,0-1.15,1.22,4.14,4.14,0,0,0-.3,1.7,4,4,0,0,0,.8,2.52,2.39,2.39,0,0,0,2,1.05,2.73,2.73,0,0,0,.9-.14,5.55,5.55,0,0,0,1-.44c.36-.21.6-.34.73-.4l.94-.47A21.81,21.81,0,0,1,45,14.44a7.83,7.83,0,0,1,2.52-.4,3.73,3.73,0,0,1,2.61.85,3.18,3.18,0,0,1,.92,2.45q0,2.73-3.11,6L38,33.71a5.18,5.18,0,0,0-1.6,3.67,3.53,3.53,0,0,0,1,2.57,3.6,3.6,0,0,0,2.68,1H57.24a4.68,4.68,0,0,0,3.08-.85,3.21,3.21,0,0,0,1-2.63,3.11,3.11,0,0,0-1-2.57A4.8,4.8,0,0,0,57.24,34.09Zm-9.8,24a12,12,0,0,0-6,1.46,10.45,10.45,0,0,0-4.12,4.06,12.6,12.6,0,0,0-.19,11.48,9.7,9.7,0,0,0,3.56,3.86,9.43,9.43,0,0,0,5.08,1.39,9.05,9.05,0,0,0,4-.87,7.38,7.38,0,0,0,2.89-2.38,12.39,12.39,0,0,1-1.76,6.14A4.5,4.5,0,0,1,47,85.4,6.25,6.25,0,0,1,44.86,85a25.71,25.71,0,0,1-2.59-1.13l-1-.51c-.59-.32-1.06-.54-1.41-.69a3.09,3.09,0,0,0-1.17-.21,2.5,2.5,0,0,0-2,1A3.8,3.8,0,0,0,35.82,86a3.41,3.41,0,0,0,.36,1.65,4.06,4.06,0,0,0,1.15,1.27,15,15,0,0,0,4.73,2.35,18.06,18.06,0,0,0,5.38.85A12.78,12.78,0,0,0,54.76,90a13.66,13.66,0,0,0,4.84-6,22.75,22.75,0,0,0,1.72-9.2q0-8-3.62-12.32C55.28,59.51,51.87,58.07,47.44,58.07ZM48,73.64A3.73,3.73,0,0,1,45,72.44a5.5,5.5,0,0,1,0-6.52A3.72,3.72,0,0,1,48,64.7,3.78,3.78,0,0,1,50.88,66a5.23,5.23,0,0,1,0,6.47A3.79,3.79,0,0,1,48,73.64ZM76.11,49h0a3.53,3.53,0,0,0-3.52-3.52H26.36A3.52,3.52,0,0,0,22.84,49h0a3.51,3.51,0,0,0,3.52,3.52H72.59A3.52,3.52,0,0,0,76.11,49Z"/></svg>