<svg id="Layer_1" data-name="Layer 1" xmlns="http://www.w3.org/2000/svg" viewBox="0 0 100 100"><title>l23_1_1</title><path d="M83.67,100.14H16.6A16.46,16.46,0,0,1,.14,83.67V16.61A16.46,16.46,0,0,1,16.6.14H83.67a16.47,16.47,0,0,1,16.47,16.47V83.67A16.47,16.47,0,0,1,83.67,100.14ZM26.27,48.93a8.27,8.27,0,0,0,4-3.08A8.47,8.47,0,0,0,31.76,41a8.9,8.9,0,0,0-1.55-5.18,10,10,0,0,0-4.42-3.45,16.86,16.86,0,0,0-6.63-1.22,20.41,20.41,0,0,0-6,.92A16.86,16.86,0,0,0,8,34.56a4.14,4.14,0,0,0-1.22,1.37,4,4,0,0,0-.35,1.77,4.15,4.15,0,0,0,.86,2.67,2.63,2.63,0,0,0,2.13,1.09,3.16,3.16,0,0,0,1.27-.23c.37-.15.88-.39,1.53-.73L13.27,40A26.33,26.33,0,0,1,16,38.77a7.8,7.8,0,0,1,2.67-.46,4.36,4.36,0,0,1,3.09,1,3.79,3.79,0,0,1,1.12,2.92,2.83,2.83,0,0,1-1.27,2.59,7.78,7.78,0,0,1-4.06.82H15.35A2.89,2.89,0,0,0,13,46.74a4.14,4.14,0,0,0,0,5.08,2.89,2.89,0,0,0,2.38,1.07H18.5a7.63,7.63,0,0,1,4.17.86,3.2,3.2,0,0,1,1.27,2.84,3.53,3.53,0,0,1-1.25,3,7,7,0,0,1-4.09.91,9.19,9.19,0,0,1-2.92-.43,23.82,23.82,0,0,1-2.92-1.24l-.63-.28-.48-.23c-.65-.34-1.15-.58-1.53-.74a3.35,3.35,0,0,0-1.27-.22A2.63,2.63,0,0,0,6.72,58.5a4.18,4.18,0,0,0-.86,2.66,4.08,4.08,0,0,0,.35,1.75,4,4,0,0,0,1.22,1.4,16.44,16.44,0,0,0,5.28,2.57,22.65,22.65,0,0,0,6.35.88,19.09,19.09,0,0,0,7.19-1.24A10.69,10.69,0,0,0,31,63a8.83,8.83,0,0,0,1.68-5.38A9.05,9.05,0,0,0,31,52.07,8.63,8.63,0,0,0,26.27,48.93Zm24,18.88q6.65,0,10.15-4.72T64,49.43q0-8.88-3.53-13.61T50.29,31.1q-6.66,0-10.16,4.72t-3.5,13.61q0,8.94,3.5,13.66T50.29,67.81Zm0-7.05a3.63,3.63,0,0,1-3.5-2.64c-.72-1.76-1.07-4.66-1.07-8.69s.35-6.91,1.07-8.65a3.64,3.64,0,0,1,7,0q1.07,2.64,1.07,8.63t-1.07,8.69A3.64,3.64,0,0,1,50.29,60.76Zm30.47,7.05q6.64,0,10.15-4.72t3.51-13.66q0-8.88-3.53-13.61T80.76,31.1q-6.66,0-10.16,4.72T67.1,49.43q0,8.94,3.5,13.66T80.76,67.81Zm0-7.05a3.64,3.64,0,0,1-3.51-2.64q-1.06-2.64-1.06-8.69t1.06-8.65a3.65,3.65,0,0,1,7,0q1.06,2.64,1.07,8.63t-1.07,8.69A3.64,3.64,0,0,1,80.76,60.76Z"/></svg>