<svg id="Layer_1" data-name="Layer 1" xmlns="http://www.w3.org/2000/svg" viewBox="0 0 100 100"><title>l23_4_1</title><path d="M83.53,100H16.47A16.47,16.47,0,0,1,0,83.53V16.47A16.47,16.47,0,0,1,16.47,0H83.53A16.47,16.47,0,0,1,100,16.47V83.53A16.47,16.47,0,0,1,83.53,100ZM57.24,34.09H47.78l6.68-6.82A22.1,22.1,0,0,0,58.39,22a11.81,11.81,0,0,0,1.16-5.24,8.62,8.62,0,0,0-1.44-4.92A9.19,9.19,0,0,0,54,8.51a15.32,15.32,0,0,0-6.12-1.15,19.26,19.26,0,0,0-10.4,3.2,3.19,3.19,0,0,0-1.15,1.22,4.14,4.14,0,0,0-.3,1.7,4,4,0,0,0,.8,2.52,2.4,2.4,0,0,0,2,1.06,2.74,2.74,0,0,0,.9-.15,5.55,5.55,0,0,0,1-.44c.36-.21.6-.34.73-.4l.94-.47A23.49,23.49,0,0,1,45,14.44a7.83,7.83,0,0,1,2.52-.4,3.73,3.73,0,0,1,2.61.85,3.18,3.18,0,0,1,.92,2.45q0,2.73-3.11,6L38,33.71a5.17,5.17,0,0,0-1.59,3.67,3.52,3.52,0,0,0,1,2.57,3.6,3.6,0,0,0,2.68,1H57.24a4.68,4.68,0,0,0,3.08-.85,3.21,3.21,0,0,0,1-2.63,3.11,3.11,0,0,0-1-2.57A4.8,4.8,0,0,0,57.24,34.09Zm1.49,45.38h-1v-17a4,4,0,0,0-1.27-3.15,4.47,4.47,0,0,0-3.06-1.13,4.68,4.68,0,0,0-2.09.49,4.29,4.29,0,0,0-1.67,1.44L36.15,79.33a5.27,5.27,0,0,0-1,3.11,3.59,3.59,0,0,0,1,2.58,3.53,3.53,0,0,0,2.68,1H49.28v1.6a4.18,4.18,0,0,0,1.15,3.2,4.27,4.27,0,0,0,3,1.08,4.32,4.32,0,0,0,3.05-1.08,4.12,4.12,0,0,0,1.18-3.2v-1.6h1c2.73,0,4.1-1.12,4.1-3.34S61.46,79.47,58.73,79.47Zm-15.1,0,5.65-8.14v8.14ZM76.11,49h0a3.53,3.53,0,0,0-3.52-3.52H26.36A3.52,3.52,0,0,0,22.84,49h0a3.51,3.51,0,0,0,3.52,3.52H72.59A3.52,3.52,0,0,0,76.11,49Z"/></svg>