<svg id="Layer_1" data-name="Layer 1" xmlns="http://www.w3.org/2000/svg" viewBox="0 0 100 100"><title>23_3_1</title><path d="M83.67,100H16.6A16.46,16.46,0,0,1,.14,83.53V16.47A16.46,16.46,0,0,1,16.6,0H83.67a16.47,16.47,0,0,1,16.47,16.47V83.53A16.47,16.47,0,0,1,83.67,100ZM30.87,43.66a9.7,9.7,0,0,0-4.29.94,8,8,0,0,0-3.13,2.56,13.58,13.58,0,0,1,1.91-6.63,4.86,4.86,0,0,1,4.19-2.36,6.76,6.76,0,0,1,2.33.41c.75.27,1.68.68,2.8,1.22l1.11.56c.65.34,1.15.58,1.53.73a3.33,3.33,0,0,0,1.26.23,2.68,2.68,0,0,0,2.16-1.09,4.12,4.12,0,0,0,.89-2.67,3.74,3.74,0,0,0-.38-1.77A4.47,4.47,0,0,0,40,34.41a16.39,16.39,0,0,0-5.11-2.53A19.65,19.65,0,0,0,29.09,31a13.72,13.72,0,0,0-7.9,2.29A14.83,14.83,0,0,0,16,39.77a24.75,24.75,0,0,0-1.85,9.93q0,8.63,3.91,13.3t11.07,4.67a13.11,13.11,0,0,0,6.45-1.57A11.36,11.36,0,0,0,40,61.71a12.64,12.64,0,0,0,1.6-6.37,12.79,12.79,0,0,0-1.4-6,10.44,10.44,0,0,0-3.83-4.17A10.31,10.31,0,0,0,30.87,43.66ZM28.53,60.51a4,4,0,0,1-3.15-1.34,5.64,5.64,0,0,1,0-7,4.05,4.05,0,0,1,3.17-1.32,4,4,0,0,1,3.17,1.29,5.92,5.92,0,0,1,0,7A4,4,0,0,1,28.53,60.51Zm21.43,7a4.67,4.67,0,0,0,3.48-1.42,5.11,5.11,0,0,0,0-7A4.7,4.7,0,0,0,50,57.67a4.77,4.77,0,0,0-3.53,1.42,5.09,5.09,0,0,0,0,7A4.73,4.73,0,0,0,50,67.52Zm32.4-36.1H62.45a5,5,0,0,0-3.35.94A3.56,3.56,0,0,0,58,35.18a3.46,3.46,0,0,0,1,2.74,5.08,5.08,0,0,0,3.38.91h12.7L62.1,61.12a4.79,4.79,0,0,0-.72,2.44,3.71,3.71,0,0,0,1.38,2.92,4.61,4.61,0,0,0,3.14,1.19,4.32,4.32,0,0,0,2.16-.58,4.74,4.74,0,0,0,1.75-1.8L85.2,38.63a6.5,6.5,0,0,0,1-3.35,4,4,0,0,0-1-2.77A3.6,3.6,0,0,0,82.36,31.42Z"/></svg>