<svg id="Layer_1" data-name="Layer 1" xmlns="http://www.w3.org/2000/svg" viewBox="0 0 100 100"><title>l23_2_1</title><path d="M83.67,100H16.6A16.47,16.47,0,0,1,.13,83.53V16.47A16.47,16.47,0,0,1,16.6,0H83.67a16.46,16.46,0,0,1,16.46,16.47V83.53A16.46,16.46,0,0,1,83.67,100ZM21.83,43.81a12.69,12.69,0,0,0-5,.91V38.48h11q4.41,0,4.41-3.56t-4.41-3.5H12a4.3,4.3,0,0,0-3.2,1.12,4.36,4.36,0,0,0-1.12,3.25V49.55a2.8,2.8,0,0,0,1,2.21,3.57,3.57,0,0,0,2.39.83A4.93,4.93,0,0,0,13.35,52a17.92,17.92,0,0,1,2.92-.92A13.74,13.74,0,0,1,19,50.87a5.69,5.69,0,0,1,4,1.27,4.5,4.5,0,0,1,1.43,3.55,4.4,4.4,0,0,1-1.37,3.58,6.52,6.52,0,0,1-4.22,1.14A8.55,8.55,0,0,1,16,60a29.45,29.45,0,0,1-2.87-1.22l-1-.51a14.79,14.79,0,0,0-1.53-.76,3.3,3.3,0,0,0-1.26-.2A2.63,2.63,0,0,0,7.2,58.36,4.18,4.18,0,0,0,6.34,61a3.8,3.8,0,0,0,.38,1.75,4.37,4.37,0,0,0,1.19,1.4,16.87,16.87,0,0,0,5.21,2.54,21.14,21.14,0,0,0,6.17.91,16.42,16.42,0,0,0,7.26-1.52,11.33,11.33,0,0,0,4.87-4.32,12,12,0,0,0,1.73-6.44,12.16,12.16,0,0,0-1.45-6,10.24,10.24,0,0,0-4-4.06A11.66,11.66,0,0,0,21.83,43.81Zm28,23.86Q56.46,67.67,60,63t3.5-13.66q0-8.88-3.53-13.61T49.8,31q-6.64,0-10.15,4.72t-3.5,13.61q0,8.94,3.5,13.66T49.8,67.67Zm0-7.05A3.64,3.64,0,0,1,46.3,58q-1.06-2.64-1.07-8.69t1.07-8.65a3.65,3.65,0,0,1,7,0q1.06,2.64,1.07,8.63T53.31,58A3.64,3.64,0,0,1,49.8,60.62Zm30.47,7.05q6.66,0,10.16-4.72t3.5-13.66q0-8.88-3.53-13.61T80.27,31q-6.64,0-10.15,4.72T66.61,49.29q0,8.94,3.51,13.66T80.27,67.67Zm0-7.05A3.64,3.64,0,0,1,76.77,58q-1.06-2.64-1.07-8.69t1.07-8.65a3.65,3.65,0,0,1,7,0q1.06,2.64,1.06,8.63T83.78,58A3.65,3.65,0,0,1,80.27,60.62Z"/></svg>