<svg id="Layer_1" data-name="Layer 1" xmlns="http://www.w3.org/2000/svg" viewBox="0 0 100 100"><title>l23_1_1</title><path d="M83.67,100H16.6A16.46,16.46,0,0,1,.14,83.53V16.47A16.46,16.46,0,0,1,16.6,0H83.67a16.47,16.47,0,0,1,16.47,16.47V83.53A16.47,16.47,0,0,1,83.67,100ZM31,54.07H29.93V35.74a4.35,4.35,0,0,0-1.37-3.41,4.83,4.83,0,0,0-3.3-1.22,5,5,0,0,0-2.26.54,4.66,4.66,0,0,0-1.81,1.55L6.67,53.91a5.74,5.74,0,0,0-1.12,3.36,3.91,3.91,0,0,0,1.07,2.79,3.83,3.83,0,0,0,2.89,1.11H20.84V62.9a4.49,4.49,0,0,0,1.24,3.45,4.59,4.59,0,0,0,3.28,1.17,4.69,4.69,0,0,0,3.3-1.17,4.47,4.47,0,0,0,1.27-3.45V61.17H31q4.43,0,4.42-3.6C35.46,55.23,34,54.07,31,54.07Zm-16.3,0,6.1-8.79v8.79Zm35.85,13.6q6.66,0,10.16-4.72t3.5-13.66q0-8.88-3.53-13.61T50.59,31q-6.65,0-10.15,4.72T36.93,49.29q0,8.94,3.51,13.66T50.59,67.67Zm0-7.05A3.64,3.64,0,0,1,47.09,58Q46,55.34,46,49.29t1.07-8.65a3.65,3.65,0,0,1,7,0q1.07,2.64,1.06,8.63T54.1,58A3.64,3.64,0,0,1,50.59,60.62Zm30.47,7.05q6.66,0,10.16-4.72t3.5-13.66q0-8.88-3.53-13.61T81.06,31q-6.65,0-10.15,4.72T67.4,49.29q0,8.94,3.51,13.66T81.06,67.67Zm0-7.05A3.64,3.64,0,0,1,77.56,58q-1.07-2.64-1.07-8.69t1.07-8.65a3.64,3.64,0,0,1,7,0c.72,1.76,1.07,4.64,1.07,8.63s-.35,6.93-1.07,8.69A3.63,3.63,0,0,1,81.06,60.62Z"/></svg>