<svg id="Layer_1" data-name="Layer 1" xmlns="http://www.w3.org/2000/svg" viewBox="0 0 100 100"><title>l23_1_1</title><path d="M83.51,100H16.44A16.47,16.47,0,0,1,0,83.53V16.47A16.47,16.47,0,0,1,16.44,0H83.51A16.46,16.46,0,0,1,100,16.47V83.53A16.46,16.46,0,0,1,83.51,100Zm-50-69a13.06,13.06,0,0,0-6.45,1.58,11.23,11.23,0,0,0-4.44,4.39,12.64,12.64,0,0,0-1.6,6.37,12.81,12.81,0,0,0,1.39,6,10.43,10.43,0,0,0,3.84,4.16A10.23,10.23,0,0,0,31.77,55,9.7,9.7,0,0,0,36.06,54a8.13,8.13,0,0,0,3.12-2.56,13.4,13.4,0,0,1-1.9,6.62,4.85,4.85,0,0,1-4.19,2.36,6.85,6.85,0,0,1-2.34-.4c-.74-.27-1.67-.68-2.79-1.22l-1.11-.56c-.65-.34-1.16-.58-1.53-.74a3.35,3.35,0,0,0-1.27-.22,2.71,2.71,0,0,0-2.16,1.09A4.08,4.08,0,0,0,21,61.07a3.67,3.67,0,0,0,.38,1.78,4.32,4.32,0,0,0,1.24,1.37,16,16,0,0,0,5.1,2.54,19.7,19.7,0,0,0,5.82.91,13.76,13.76,0,0,0,7.89-2.28,14.73,14.73,0,0,0,5.23-6.53,24.49,24.49,0,0,0,1.86-9.92q0-8.64-3.91-13.31T33.55,31Zm.56,16.81a4,4,0,0,1-3.18-1.3A5.12,5.12,0,0,1,29.79,43,5.1,5.1,0,0,1,31,39.44a4.37,4.37,0,0,1,6.29,0A4.93,4.93,0,0,1,38.47,43a5.05,5.05,0,0,1-1.19,3.5A4.07,4.07,0,0,1,34.11,47.77Zm31.17,19.9q6.66,0,10.16-4.72t3.5-13.66q0-8.88-3.53-13.61T65.28,31q-6.64,0-10.15,4.72T51.62,49.29q0,8.94,3.51,13.66T65.28,67.67Zm0-7.05A3.64,3.64,0,0,1,61.78,58q-1.06-2.64-1.07-8.69t1.07-8.65a3.65,3.65,0,0,1,7,0q1.06,2.64,1.06,8.63T68.79,58A3.64,3.64,0,0,1,65.28,60.62Z"/></svg>