<svg id="Layer_1" data-name="Layer 1" xmlns="http://www.w3.org/2000/svg" viewBox="0 0 100 100"><title>l23_2_1</title><path d="M83.53,100H16.47A16.47,16.47,0,0,1,0,83.53V16.47A16.47,16.47,0,0,1,16.47,0H83.53A16.47,16.47,0,0,1,100,16.47V83.53A16.47,16.47,0,0,1,83.53,100ZM59.22,59.8H49l7.21-7.36a23.72,23.72,0,0,0,4.24-5.71,12.8,12.8,0,0,0,1.24-5.66,9.32,9.32,0,0,0-1.54-5.31,10,10,0,0,0-4.4-3.55A16.29,16.29,0,0,0,49.16,31a20.75,20.75,0,0,0-11.22,3.46,3.27,3.27,0,0,0-1.24,1.32,4.9,4.9,0,0,0,.53,4.54,2.59,2.59,0,0,0,2.13,1.14,3.12,3.12,0,0,0,1-.15,6.11,6.11,0,0,0,1-.48l.79-.43,1-.51A25.12,25.12,0,0,1,46,38.6a8.43,8.43,0,0,1,2.72-.43,4,4,0,0,1,2.81.92,3.42,3.42,0,0,1,1,2.64c0,2-1.11,4.11-3.35,6.45L38.45,59.4a5.55,5.55,0,0,0-1.73,4,3.81,3.81,0,0,0,1.07,2.77,3.88,3.88,0,0,0,2.89,1.09H59.22a5.08,5.08,0,0,0,3.32-.92,3.48,3.48,0,0,0,1.09-2.84,3.37,3.37,0,0,0-1.09-2.77A5.2,5.2,0,0,0,59.22,59.8Z"/></svg>