<svg id="Layer_1" data-name="Layer 1" xmlns="http://www.w3.org/2000/svg" viewBox="0 0 100 100"><title>23_3_1</title><path d="M83.53,100H16.47A16.47,16.47,0,0,1,0,83.53V16.47A16.47,16.47,0,0,1,16.47,0H83.53A16.47,16.47,0,0,1,100,16.47V83.53A16.47,16.47,0,0,1,83.53,100ZM38.22,31.42H18.31a5,5,0,0,0-3.35.94,3.57,3.57,0,0,0-1.06,2.82,3.43,3.43,0,0,0,1,2.74,5.05,5.05,0,0,0,3.37.91H31L18,61.12a4.78,4.78,0,0,0-.71,2.44,3.73,3.73,0,0,0,1.37,2.92,4.63,4.63,0,0,0,3.15,1.2,4.39,4.39,0,0,0,2.16-.59,4.81,4.81,0,0,0,1.75-1.8L41.06,38.63a6.41,6.41,0,0,0,1-3.35,4,4,0,0,0-1-2.77A3.6,3.6,0,0,0,38.22,31.42ZM50.1,67.52a4.67,4.67,0,0,0,3.48-1.42,5.09,5.09,0,0,0,0-7,4.7,4.7,0,0,0-3.48-1.42,4.77,4.77,0,0,0-3.53,1.42,5.11,5.11,0,0,0,0,7A4.73,4.73,0,0,0,50.1,67.52ZM81.69,59.8H71.48l7.21-7.36a23.72,23.72,0,0,0,4.24-5.71,12.8,12.8,0,0,0,1.24-5.66,9.26,9.26,0,0,0-1.55-5.31,9.86,9.86,0,0,0-4.39-3.55A16.29,16.29,0,0,0,71.63,31a20.75,20.75,0,0,0-11.22,3.46,3.27,3.27,0,0,0-1.24,1.32,4.17,4.17,0,0,0-.33,1.82,4.35,4.35,0,0,0,.86,2.72,2.57,2.57,0,0,0,2.13,1.14,3.12,3.12,0,0,0,1-.15,6.11,6.11,0,0,0,1-.48l.78-.43,1-.51a25.12,25.12,0,0,1,2.87-1.25,8.43,8.43,0,0,1,2.72-.43,4,4,0,0,1,2.81.92,3.42,3.42,0,0,1,1,2.64c0,2-1.11,4.11-3.35,6.45L60.92,59.4a5.55,5.55,0,0,0-1.73,4,3.81,3.81,0,0,0,1.07,2.77,3.88,3.88,0,0,0,2.89,1.09H81.69A5.1,5.1,0,0,0,85,66.3a3.48,3.48,0,0,0,1.09-2.84A3.37,3.37,0,0,0,85,60.69,5.22,5.22,0,0,0,81.69,59.8Z"/></svg>