<svg id="Layer_1" data-name="Layer 1" xmlns="http://www.w3.org/2000/svg" viewBox="0 0 100 100"><title>l23_4_1</title><path d="M83.53,100H16.47A16.47,16.47,0,0,1,0,83.53V16.47A16.47,16.47,0,0,1,16.47,0H83.53A16.47,16.47,0,0,1,100,16.47V83.53A16.47,16.47,0,0,1,83.53,100Zm-25-65.91H54.63V11.78a4.06,4.06,0,0,0-1.15-3,4.13,4.13,0,0,0-3-1.13,8,8,0,0,0-3.9,1.17L39,13.15a3.2,3.2,0,0,0-1.65,2.92,3.93,3.93,0,0,0,.94,2.56,2.83,2.83,0,0,0,2.26,1.15,3.19,3.19,0,0,0,1.65-.47L46,17.1v17H42.16a4.7,4.7,0,0,0-3.11.85,3.18,3.18,0,0,0-1,2.54q0,3.48,4.09,3.48H58.49q4.09,0,4.09-3.48a3.15,3.15,0,0,0-1-2.54A4.67,4.67,0,0,0,58.49,34.09Zm-11.05,24a12,12,0,0,0-6,1.46,10.45,10.45,0,0,0-4.12,4.06,11.86,11.86,0,0,0-1.48,5.91,11.71,11.71,0,0,0,1.3,5.57,9.61,9.61,0,0,0,3.55,3.86,9.46,9.46,0,0,0,5.08,1.39,9.05,9.05,0,0,0,4-.87,7.48,7.48,0,0,0,2.9-2.38,12.49,12.49,0,0,1-1.77,6.14A4.5,4.5,0,0,1,47,85.4,6.3,6.3,0,0,1,44.86,85a25.71,25.71,0,0,1-2.59-1.13l-1-.51c-.59-.32-1.06-.54-1.41-.69a3.05,3.05,0,0,0-1.17-.21,2.5,2.5,0,0,0-2,1A3.8,3.8,0,0,0,35.82,86a3.41,3.41,0,0,0,.36,1.65,4.06,4.06,0,0,0,1.15,1.27,15,15,0,0,0,4.73,2.35,18.06,18.06,0,0,0,5.38.85A12.78,12.78,0,0,0,54.76,90a13.66,13.66,0,0,0,4.84-6,22.75,22.75,0,0,0,1.72-9.2q0-8-3.62-12.32C55.28,59.51,51.87,58.07,47.44,58.07ZM48,73.64A3.73,3.73,0,0,1,45,72.44a5.5,5.5,0,0,1,0-6.52A3.72,3.72,0,0,1,48,64.7,3.77,3.77,0,0,1,50.88,66a5.23,5.23,0,0,1,0,6.47A3.79,3.79,0,0,1,48,73.64ZM76.11,49h0a3.53,3.53,0,0,0-3.52-3.52H26.36A3.52,3.52,0,0,0,22.84,49h0a3.51,3.51,0,0,0,3.52,3.52H72.59A3.52,3.52,0,0,0,76.11,49Z"/></svg>