<svg id="Layer_1" data-name="Layer 1" xmlns="http://www.w3.org/2000/svg" viewBox="0 0 100 100"><title>l23_4_1</title><path d="M83.53,100H16.47A16.47,16.47,0,0,1,0,83.53V16.47A16.47,16.47,0,0,1,16.47,0H83.53A16.47,16.47,0,0,1,100,16.47V83.53A16.47,16.47,0,0,1,83.53,100Zm-29-76.12A7.69,7.69,0,0,0,58.23,21a7.84,7.84,0,0,0,1.34-4.54,8.26,8.26,0,0,0-1.43-4.8A9.24,9.24,0,0,0,54,8.49,15.64,15.64,0,0,0,47.9,7.36a18.75,18.75,0,0,0-5.58.85,15.63,15.63,0,0,0-4.77,2.35,3.74,3.74,0,0,0-1.13,1.27,3.67,3.67,0,0,0-.33,1.65,3.89,3.89,0,0,0,.8,2.47,2.44,2.44,0,0,0,2,1A3.05,3.05,0,0,0,40,16.75c.35-.14.82-.37,1.41-.68l1-.47A24.83,24.83,0,0,1,45,14.47,6.93,6.93,0,0,1,47.48,14a4.07,4.07,0,0,1,2.87,1,3.5,3.5,0,0,1,1,2.7,2.64,2.64,0,0,1-1.17,2.4,7.14,7.14,0,0,1-3.77.76H44.37a2.7,2.7,0,0,0-2.21,1,3.87,3.87,0,0,0,0,4.71,2.68,2.68,0,0,0,2.21,1h2.92a7.12,7.12,0,0,1,3.86.8A3,3,0,0,1,52.32,31a3.28,3.28,0,0,1-1.15,2.83,6.58,6.58,0,0,1-3.79.84,8.42,8.42,0,0,1-2.7-.4A20.71,20.71,0,0,1,42,33.1l-.59-.26-.44-.21c-.6-.31-1.07-.54-1.42-.68a3.05,3.05,0,0,0-1.17-.21,2.42,2.42,0,0,0-2,1,3.87,3.87,0,0,0-.8,2.47,3.66,3.66,0,0,0,.33,1.62A3.74,3.74,0,0,0,37,38.14a15.25,15.25,0,0,0,4.89,2.37,21,21,0,0,0,5.89.83,17.65,17.65,0,0,0,6.66-1.16,9.9,9.9,0,0,0,4.39-3.27,8.17,8.17,0,0,0,1.56-5,8.34,8.34,0,0,0-1.58-5.12A7.94,7.94,0,0,0,54.49,23.88ZM50.92,70a11.63,11.63,0,0,0-4.65.85V65H56.43q4.09,0,4.09-3.29t-4.09-3.25H41.85a4,4,0,0,0-3,1,4.07,4.07,0,0,0-1,3V75.29a2.59,2.59,0,0,0,.89,2,3.24,3.24,0,0,0,2.21.78,4.46,4.46,0,0,0,2.12-.52,16.56,16.56,0,0,1,2.7-.85,13.49,13.49,0,0,1,2.57-.23A5.34,5.34,0,0,1,52,77.68,4.23,4.23,0,0,1,53.32,81a4.05,4.05,0,0,1-1.27,3.31,6,6,0,0,1-3.9,1.06,7.85,7.85,0,0,1-2.61-.42,25.61,25.61,0,0,1-2.66-1.13l-.94-.47a15.28,15.28,0,0,0-1.41-.71,3.37,3.37,0,0,0-1.18-.18,2.4,2.4,0,0,0-2,1,3.8,3.8,0,0,0-.8,2.47,3.43,3.43,0,0,0,.35,1.62A4,4,0,0,0,38,88.83a15.15,15.15,0,0,0,4.82,2.35,19.41,19.41,0,0,0,5.71.85,15.31,15.31,0,0,0,6.73-1.41,10.61,10.61,0,0,0,4.52-4,11.15,11.15,0,0,0,1.59-6,11.29,11.29,0,0,0-1.34-5.58,9.52,9.52,0,0,0-3.71-3.76A10.94,10.94,0,0,0,50.92,70ZM76.11,49h0a3.53,3.53,0,0,0-3.52-3.52H26.36A3.52,3.52,0,0,0,22.84,49h0a3.51,3.51,0,0,0,3.52,3.52H72.59A3.52,3.52,0,0,0,76.11,49Z"/></svg>