<svg id="Layer_1" data-name="Layer 1" xmlns="http://www.w3.org/2000/svg" viewBox="0 0 100 100"><title>23_3_1</title><path d="M83.53,100H16.47A16.47,16.47,0,0,1,0,83.53V16.47A16.47,16.47,0,0,1,16.47,0H83.53A16.47,16.47,0,0,1,100,16.47V83.53A16.47,16.47,0,0,1,83.53,100ZM29.92,43.81a12.69,12.69,0,0,0-5,.91V38.48h11c2.94,0,4.42-1.19,4.42-3.56s-1.48-3.5-4.42-3.5H20.12a4.3,4.3,0,0,0-3.2,1.12,4.36,4.36,0,0,0-1.12,3.25V49.55a2.78,2.78,0,0,0,1,2.21,3.52,3.52,0,0,0,2.38.83A4.76,4.76,0,0,0,21.44,52a18.8,18.8,0,0,1,2.92-.91,13.81,13.81,0,0,1,2.76-.25,5.74,5.74,0,0,1,4,1.27,4.53,4.53,0,0,1,1.42,3.55,4.4,4.4,0,0,1-1.37,3.58,6.52,6.52,0,0,1-4.22,1.14A8.59,8.59,0,0,1,24.1,60a29.45,29.45,0,0,1-2.87-1.22l-1-.51a16,16,0,0,0-1.52-.76,3.39,3.39,0,0,0-1.27-.2,2.63,2.63,0,0,0-2.14,1.09A4.16,4.16,0,0,0,14.43,61a3.8,3.8,0,0,0,.38,1.75A4.37,4.37,0,0,0,16,64.17a16.87,16.87,0,0,0,5.21,2.54,21.14,21.14,0,0,0,6.17.91,16.42,16.42,0,0,0,7.26-1.52,11.39,11.39,0,0,0,4.87-4.32,12,12,0,0,0,1.73-6.44,12.16,12.16,0,0,0-1.45-6,10.17,10.17,0,0,0-4-4.06A11.66,11.66,0,0,0,29.92,43.81ZM49.57,67.52a4.67,4.67,0,0,0,3.48-1.42,5.11,5.11,0,0,0,0-7,4.7,4.7,0,0,0-3.48-1.42A4.77,4.77,0,0,0,46,59.09a5.09,5.09,0,0,0,0,7A4.73,4.73,0,0,0,49.57,67.52ZM81.15,59.8H71l7.21-7.36a24,24,0,0,0,4.24-5.71,12.8,12.8,0,0,0,1.24-5.66,9.33,9.33,0,0,0-1.55-5.31,9.86,9.86,0,0,0-4.39-3.55A16.36,16.36,0,0,0,71.1,31a20.79,20.79,0,0,0-11.22,3.45,3.38,3.38,0,0,0-1.25,1.33,4.87,4.87,0,0,0,.54,4.54,2.57,2.57,0,0,0,2.13,1.14,3,3,0,0,0,1-.15,5.77,5.77,0,0,0,1-.48c.39-.22.66-.37.79-.43l1-.51A25.12,25.12,0,0,1,68,38.6a8.37,8.37,0,0,1,2.71-.43,4,4,0,0,1,2.82.92,3.42,3.42,0,0,1,1,2.64q0,2.94-3.35,6.45L60.38,59.4a5.54,5.54,0,0,0-1.72,4,3.8,3.8,0,0,0,1.06,2.77,3.91,3.91,0,0,0,2.9,1.09H81.15a5.11,5.11,0,0,0,3.33-.92,3.48,3.48,0,0,0,1.09-2.84,3.36,3.36,0,0,0-1.09-2.77A5.23,5.23,0,0,0,81.15,59.8Z"/></svg>