<svg id="Layer_1" data-name="Layer 1" xmlns="http://www.w3.org/2000/svg" viewBox="0 0 100 100"><title>l23_4_1</title><path d="M83.53,100H16.47A16.47,16.47,0,0,1,0,83.53V16.47A16.47,16.47,0,0,1,16.47,0H83.53A16.47,16.47,0,0,1,100,16.47V83.53A16.47,16.47,0,0,1,83.53,100ZM57.24,34.09H47.78l6.68-6.82A22.1,22.1,0,0,0,58.39,22a11.81,11.81,0,0,0,1.16-5.24,8.62,8.62,0,0,0-1.44-4.92A9.19,9.19,0,0,0,54,8.51a15.32,15.32,0,0,0-6.12-1.15,18.18,18.18,0,0,0-5.43.85,18.36,18.36,0,0,0-5,2.35,3.19,3.19,0,0,0-1.15,1.22,4.14,4.14,0,0,0-.3,1.7,4,4,0,0,0,.8,2.52,2.39,2.39,0,0,0,2,1.05,2.73,2.73,0,0,0,.9-.14,5.55,5.55,0,0,0,1-.44c.36-.21.6-.34.73-.4l.94-.47A23.49,23.49,0,0,1,45,14.44a7.83,7.83,0,0,1,2.52-.4,3.73,3.73,0,0,1,2.61.85,3.18,3.18,0,0,1,.92,2.45q0,2.73-3.11,6L38,33.71a5.18,5.18,0,0,0-1.6,3.67,3.53,3.53,0,0,0,1,2.57,3.6,3.6,0,0,0,2.68,1H57.24a4.68,4.68,0,0,0,3.08-.85,3.21,3.21,0,0,0,1-2.63,3.11,3.11,0,0,0-1-2.57A4.8,4.8,0,0,0,57.24,34.09ZM55.77,74.58a7,7,0,0,0,3.69-2.78,8.1,8.1,0,0,0,1.34-4.7,7.79,7.79,0,0,0-3.27-6.61q-3.27-2.41-8.91-2.42c-3.73,0-6.7.81-8.89,2.42a7.76,7.76,0,0,0-3.29,6.61,8,8,0,0,0,1.31,4.59,7.75,7.75,0,0,0,3.77,2.89,7.81,7.81,0,0,0-4.43,2.8,8.3,8.3,0,0,0-1.55,5.15,8.1,8.1,0,0,0,3.51,7Q42.55,92,48.62,92t9.57-2.52a8.1,8.1,0,0,0,3.51-7,7.73,7.73,0,0,0-5.93-8ZM48.62,85.49q-5.13,0-5.13-3.67c0-2.44,1.71-3.67,5.13-3.67s5.13,1.23,5.13,3.67S52,85.49,48.62,85.49Zm0-20.88a5,5,0,0,1,3.15.82,3.19,3.19,0,0,1,1,2.66,3.28,3.28,0,0,1-1,2.68,4.94,4.94,0,0,1-3.15.85,4.94,4.94,0,0,1-3.15-.85,3.28,3.28,0,0,1-1-2.68,3.19,3.19,0,0,1,1-2.66A5,5,0,0,1,48.62,64.61ZM76.11,49h0a3.53,3.53,0,0,0-3.52-3.52H26.36A3.52,3.52,0,0,0,22.84,49h0a3.51,3.51,0,0,0,3.52,3.52H72.59A3.52,3.52,0,0,0,76.11,49Z"/></svg>