<svg id="Layer_1" data-name="Layer 1" xmlns="http://www.w3.org/2000/svg" viewBox="0 0 100 100"><title>23_3_1</title><path d="M83.67,100H16.6A16.46,16.46,0,0,1,.14,83.53V16.47A16.46,16.46,0,0,1,16.6,0H83.67a16.47,16.47,0,0,1,16.47,16.47V83.53A16.47,16.47,0,0,1,83.67,100ZM38.38,31.42H18.48a5,5,0,0,0-3.35.94,3.58,3.58,0,0,0-1.07,2.82,3.46,3.46,0,0,0,1,2.74,5.06,5.06,0,0,0,3.38.91H31.17l-13,22.29a4.88,4.88,0,0,0-.71,2.44,3.73,3.73,0,0,0,1.37,2.92,4.67,4.67,0,0,0,3.15,1.2,4.39,4.39,0,0,0,2.16-.59,4.81,4.81,0,0,0,1.75-1.8L41.23,38.63a6.5,6.5,0,0,0,1-3.35,4,4,0,0,0-1-2.77A3.6,3.6,0,0,0,38.38,31.42Zm11.88,36.1a4.67,4.67,0,0,0,3.48-1.42,5.09,5.09,0,0,0,0-7,5,5,0,0,0-7,0,5.09,5.09,0,0,0,0,7A4.71,4.71,0,0,0,50.26,67.52ZM75.45,43.66a9.7,9.7,0,0,0-4.29.94A7.9,7.9,0,0,0,68,47.16a13.48,13.48,0,0,1,1.9-6.63,4.87,4.87,0,0,1,4.19-2.36,6.86,6.86,0,0,1,2.34.41c.74.27,1.67.68,2.79,1.22l1.12.56c.64.34,1.15.58,1.52.73a3.16,3.16,0,0,0,1.27.23,2.71,2.71,0,0,0,2.16-1.09,4.11,4.11,0,0,0,.88-2.67,3.62,3.62,0,0,0-.38-1.77,4.22,4.22,0,0,0-1.24-1.37,16,16,0,0,0-5.1-2.54A19.72,19.72,0,0,0,73.67,31a13.69,13.69,0,0,0-7.89,2.29,14.69,14.69,0,0,0-5.23,6.52,24.57,24.57,0,0,0-1.86,9.93q0,8.64,3.91,13.3t11.07,4.68a13.06,13.06,0,0,0,6.45-1.58,11.23,11.23,0,0,0,4.44-4.39,12.64,12.64,0,0,0,1.6-6.37,12.78,12.78,0,0,0-1.39-6,10.46,10.46,0,0,0-3.84-4.17A10.31,10.31,0,0,0,75.45,43.66ZM73.11,60.51A4,4,0,0,1,70,59.17a5.66,5.66,0,0,1,0-7,4.07,4.07,0,0,1,3.17-1.32,4,4,0,0,1,3.18,1.29,5.17,5.17,0,0,1,1.14,3.53,5.11,5.11,0,0,1-1.17,3.51A4,4,0,0,1,73.11,60.51Z"/></svg>