<svg id="Layer_1" data-name="Layer 1" xmlns="http://www.w3.org/2000/svg" viewBox="0 0 100 100"><title>l23_1_1</title><path d="M83.2,100H16.14A16.47,16.47,0,0,1-.33,83.53V16.47A16.47,16.47,0,0,1,16.14,0H83.2A16.47,16.47,0,0,1,99.67,16.47V83.53A16.47,16.47,0,0,1,83.2,100ZM45.81,54.07H44.69V35.74a4.32,4.32,0,0,0-1.37-3.41A4.79,4.79,0,0,0,40,31.11a5,5,0,0,0-2.26.54A4.56,4.56,0,0,0,36,33.2L21.44,53.91a5.67,5.67,0,0,0-1.12,3.36,3.91,3.91,0,0,0,1.07,2.79,3.81,3.81,0,0,0,2.89,1.11H35.6V62.9a4.5,4.5,0,0,0,1.25,3.45,4.58,4.58,0,0,0,3.27,1.17,4.66,4.66,0,0,0,3.3-1.17,4.43,4.43,0,0,0,1.27-3.45V61.17h1.12q4.42,0,4.42-3.6C50.23,55.23,48.76,54.07,45.81,54.07Zm-16.3,0,6.09-8.79v8.79Zm35.85,13.6Q72,67.67,75.52,63T79,49.29q0-8.88-3.53-13.61T65.36,31q-6.66,0-10.15,4.72T51.7,49.29q0,8.94,3.51,13.66T65.36,67.67Zm0-7.05A3.64,3.64,0,0,1,61.86,58q-1.06-2.64-1.07-8.69t1.07-8.65a3.64,3.64,0,0,1,7,0c.72,1.76,1.07,4.64,1.07,8.63s-.35,6.93-1.07,8.69A3.63,3.63,0,0,1,65.36,60.62Z"/></svg>