<svg id="Layer_1" data-name="Layer 1" xmlns="http://www.w3.org/2000/svg" viewBox="0 0 100 100"><title>23_3_1</title><path d="M83.53,100H16.47A16.47,16.47,0,0,1,0,83.53V16.47A16.47,16.47,0,0,1,16.47,0H83.53A16.47,16.47,0,0,1,100,16.47V83.53A16.47,16.47,0,0,1,83.53,100ZM27.78,67.67q6.66,0,10.16-4.72t3.5-13.66q0-8.88-3.53-13.61T27.78,31q-6.64,0-10.15,4.72t-3.5,13.61q0,8.94,3.5,13.66T27.78,67.67Zm0-7.05A3.64,3.64,0,0,1,24.28,58q-1.07-2.64-1.07-8.69t1.07-8.65a3.65,3.65,0,0,1,7,0q1.07,2.64,1.06,8.63T31.29,58A3.64,3.64,0,0,1,27.78,60.62Zm22.14,6.9A4.67,4.67,0,0,0,53.4,66.1a5.09,5.09,0,0,0,0-7,5,5,0,0,0-7,0,5.09,5.09,0,0,0,0,7A4.71,4.71,0,0,0,49.92,67.52ZM74.55,43.81a12.73,12.73,0,0,0-5,.91V38.48h11q4.42,0,4.42-3.56t-4.42-3.5H64.75a4.32,4.32,0,0,0-3.2,1.12,4.4,4.4,0,0,0-1.11,3.25V49.55a2.8,2.8,0,0,0,1,2.21,3.55,3.55,0,0,0,2.39.83A4.86,4.86,0,0,0,66.07,52,18.23,18.23,0,0,1,69,51.12a13.84,13.84,0,0,1,2.77-.25,5.73,5.73,0,0,1,4,1.27,4.5,4.5,0,0,1,1.42,3.55,4.4,4.4,0,0,1-1.37,3.58,6.49,6.49,0,0,1-4.21,1.14A8.51,8.51,0,0,1,68.74,60a28.45,28.45,0,0,1-2.87-1.22l-1-.51a13.91,13.91,0,0,0-1.52-.76,3.35,3.35,0,0,0-1.27-.2,2.6,2.6,0,0,0-2.13,1.09A4.11,4.11,0,0,0,59.06,61a3.8,3.8,0,0,0,.38,1.75,4.54,4.54,0,0,0,1.2,1.4,16.81,16.81,0,0,0,5.2,2.54,21.19,21.19,0,0,0,6.17.91,16.42,16.42,0,0,0,7.26-1.52,11.42,11.42,0,0,0,4.88-4.32,12,12,0,0,0,1.72-6.44,12.27,12.27,0,0,0-1.44-6,10.3,10.3,0,0,0-4-4.06A11.69,11.69,0,0,0,74.55,43.81Z"/></svg>