<svg id="Layer_1" data-name="Layer 1" xmlns="http://www.w3.org/2000/svg" viewBox="0 0 100 100"><title>l23_1_1</title><path d="M83.53,100H16.47A16.47,16.47,0,0,1,0,83.53V16.47A16.47,16.47,0,0,1,16.47,0H83.53A16.47,16.47,0,0,1,100,16.47V83.53A16.47,16.47,0,0,1,83.53,100ZM44.15,39.33H33.94L41.15,32a23.72,23.72,0,0,0,4.24-5.71,12.8,12.8,0,0,0,1.25-5.66,9.33,9.33,0,0,0-1.55-5.31,10,10,0,0,0-4.39-3.55,16.37,16.37,0,0,0-6.61-1.25,19.82,19.82,0,0,0-5.86.92A19.63,19.63,0,0,0,22.87,14a3.27,3.27,0,0,0-1.24,1.32,4.32,4.32,0,0,0-.33,1.82,4.35,4.35,0,0,0,.86,2.72A2.6,2.6,0,0,0,24.29,21a3.12,3.12,0,0,0,1-.15,6.11,6.11,0,0,0,1-.48l.79-.43,1-.51A23.23,23.23,0,0,1,31,18.14a8.21,8.21,0,0,1,2.72-.44,4,4,0,0,1,2.82.92,3.42,3.42,0,0,1,1,2.64q0,2.94-3.36,6.45L23.38,38.93a5.55,5.55,0,0,0-1.73,4,3.81,3.81,0,0,0,1.07,2.77,3.85,3.85,0,0,0,2.89,1.09H44.15a5.06,5.06,0,0,0,3.32-.92A3.47,3.47,0,0,0,48.57,43a3.38,3.38,0,0,0-1.1-2.77A5.18,5.18,0,0,0,44.15,39.33Zm21.07,7.88q6.66,0,10.16-4.73t3.5-13.66q0-8.88-3.53-13.6T65.22,10.49q-6.64,0-10.15,4.73t-3.51,13.6q0,8.94,3.51,13.66T65.22,47.21Zm0-7.06a3.64,3.64,0,0,1-3.5-2.64q-1.06-2.64-1.07-8.69c0-4,.36-6.91,1.07-8.65a3.64,3.64,0,0,1,7,0c.72,1.76,1.07,4.64,1.07,8.63s-.35,6.93-1.07,8.69A3.63,3.63,0,0,1,65.22,40.15ZM34.73,89.21q6.65,0,10.15-4.73t3.51-13.66q0-8.88-3.53-13.6T34.73,52.49q-6.66,0-10.16,4.73t-3.5,13.6q0,8.94,3.5,13.66T34.73,89.21Zm0-7.06a3.65,3.65,0,0,1-3.51-2.64q-1.06-2.64-1.06-8.69c0-4,.35-6.91,1.06-8.65a3.65,3.65,0,0,1,7,0q1.07,2.64,1.07,8.63t-1.07,8.69A3.64,3.64,0,0,1,34.73,82.15ZM65.2,89.21q6.64,0,10.15-4.73t3.5-13.66q0-8.88-3.52-13.6T65.2,52.49q-6.66,0-10.16,4.73t-3.5,13.6q0,8.94,3.5,13.66T65.2,89.21Zm0-7.06a3.64,3.64,0,0,1-3.51-2.64q-1.06-2.64-1.07-8.69c0-4,.36-6.91,1.07-8.65a3.65,3.65,0,0,1,7,0q1.06,2.64,1.07,8.63T68.7,79.51A3.64,3.64,0,0,1,65.2,82.15Z"/></svg>