<svg id="Layer_1" data-name="Layer 1" xmlns="http://www.w3.org/2000/svg" viewBox="0 0 100 100"><title>23_3_1</title><path d="M83.53,100H16.47A16.47,16.47,0,0,1,0,83.53V16.47A16.47,16.47,0,0,1,16.47,0H83.53A16.47,16.47,0,0,1,100,16.47V83.53A16.47,16.47,0,0,1,83.53,100ZM35.71,48.79a7.67,7.67,0,0,0,4-3,8.78,8.78,0,0,0,1.45-5.08,8.4,8.4,0,0,0-3.53-7.13Q34.08,31,28,31t-9.6,2.62a8.37,8.37,0,0,0-3.55,7.13,8.6,8.6,0,0,0,1.42,4.95,8.36,8.36,0,0,0,4.06,3.13,8.39,8.39,0,0,0-4.77,3,8.9,8.9,0,0,0-1.68,5.56,8.77,8.77,0,0,0,3.78,7.54q3.8,2.72,10.34,2.71t10.33-2.71a8.77,8.77,0,0,0,3.78-7.54,8.35,8.35,0,0,0-6.39-8.58ZM28,60.57q-5.53,0-5.54-4c0-2.64,1.85-4,5.54-4s5.53,1.33,5.53,4S31.68,60.57,28,60.57ZM28,38a5.42,5.42,0,0,1,3.4.89,3.46,3.46,0,0,1,1.12,2.87,3.53,3.53,0,0,1-1.12,2.89,5.29,5.29,0,0,1-3.4.92,5.27,5.27,0,0,1-3.4-.92,3.5,3.5,0,0,1-1.12-2.89,3.43,3.43,0,0,1,1.12-2.87A5.4,5.4,0,0,1,28,38Zm22.14,29.5A4.64,4.64,0,0,0,53.6,66.1a5.09,5.09,0,0,0,0-7,4.68,4.68,0,0,0-3.47-1.42,4.77,4.77,0,0,0-3.53,1.42,5.09,5.09,0,0,0,0,7A4.73,4.73,0,0,0,50.13,67.52ZM81.71,59.8H71.5l7.22-7.36A23.64,23.64,0,0,0,83,46.73a12.8,12.8,0,0,0,1.25-5.66,9.33,9.33,0,0,0-1.55-5.31,9.92,9.92,0,0,0-4.39-3.55A16.36,16.36,0,0,0,71.66,31a19.89,19.89,0,0,0-5.87.92,19.56,19.56,0,0,0-5.35,2.54,3.3,3.3,0,0,0-1.25,1.32,4.32,4.32,0,0,0-.33,1.82,4.41,4.41,0,0,0,.86,2.72,2.6,2.6,0,0,0,2.14,1.14,3.06,3.06,0,0,0,1-.15,5.77,5.77,0,0,0,1-.48l.79-.43,1-.51a25.9,25.9,0,0,1,2.87-1.25,8.48,8.48,0,0,1,2.72-.43,4,4,0,0,1,2.82.92,3.42,3.42,0,0,1,1,2.64q0,2.94-3.35,6.45L60.94,59.4a5.54,5.54,0,0,0-1.72,4,3.8,3.8,0,0,0,1.06,2.77,3.9,3.9,0,0,0,2.9,1.09H81.71A5.11,5.11,0,0,0,85,66.3a3.51,3.51,0,0,0,1.09-2.84A3.4,3.4,0,0,0,85,60.69,5.23,5.23,0,0,0,81.71,59.8Z"/></svg>