<svg id="Layer_1" data-name="Layer 1" xmlns="http://www.w3.org/2000/svg" viewBox="0 0 100 100"><title>23_3_1</title><path d="M83.67,100H16.6A16.46,16.46,0,0,1,.14,83.53V16.47A16.46,16.46,0,0,1,16.6,0H83.67a16.47,16.47,0,0,1,16.47,16.47V83.53A16.47,16.47,0,0,1,83.67,100ZM37.92,59.8H33.76V35.74a4.43,4.43,0,0,0-1.24-3.31,4.5,4.5,0,0,0-3.28-1.21A8.53,8.53,0,0,0,25,32.49L16.9,37.21a3.45,3.45,0,0,0-1.77,3.15,4.22,4.22,0,0,0,1,2.76,3.06,3.06,0,0,0,2.44,1.25,3.41,3.41,0,0,0,1.77-.51l4.07-2.39V59.8H20.3a5.1,5.1,0,0,0-3.35.92,3.41,3.41,0,0,0-1.06,2.74q0,3.76,4.41,3.76H37.92q4.42,0,4.42-3.76a3.41,3.41,0,0,0-1.06-2.74A5.09,5.09,0,0,0,37.92,59.8ZM49.3,67.52a4.67,4.67,0,0,0,3.48-1.42,5.11,5.11,0,0,0,0-7,4.7,4.7,0,0,0-3.48-1.42,4.77,4.77,0,0,0-3.53,1.42,5.09,5.09,0,0,0,0,7A4.73,4.73,0,0,0,49.3,67.52ZM70.17,31a13.06,13.06,0,0,0-6.45,1.58,11.23,11.23,0,0,0-4.44,4.39,12.64,12.64,0,0,0-1.6,6.37,12.78,12.78,0,0,0,1.39,6,10.5,10.5,0,0,0,3.84,4.16A10.23,10.23,0,0,0,68.39,55,9.7,9.7,0,0,0,72.68,54a8,8,0,0,0,3.13-2.56A13.5,13.5,0,0,1,73.9,58.1a4.84,4.84,0,0,1-4.19,2.36,6.75,6.75,0,0,1-2.33-.4c-.75-.27-1.68-.68-2.8-1.22l-1.11-.56c-.65-.34-1.15-.58-1.53-.73a3.16,3.16,0,0,0-1.27-.23,2.71,2.71,0,0,0-2.16,1.09,4.08,4.08,0,0,0-.88,2.66A3.67,3.67,0,0,0,58,62.85a4.22,4.22,0,0,0,1.24,1.37,16,16,0,0,0,5.1,2.54,19.77,19.77,0,0,0,5.82.92,13.82,13.82,0,0,0,7.9-2.29,14.74,14.74,0,0,0,5.22-6.52,24.57,24.57,0,0,0,1.86-9.93q0-8.64-3.91-13.31T70.17,31Zm.56,16.81a4,4,0,0,1-3.18-1.29A5.17,5.17,0,0,1,66.41,43a5.1,5.1,0,0,1,1.17-3.51,4,4,0,0,1,3.15-1.32,4.07,4.07,0,0,1,3.15,1.35A5,5,0,0,1,75.09,43a5,5,0,0,1-1.19,3.5A4.07,4.07,0,0,1,70.73,47.77Z"/></svg>