<svg id="Layer_1" data-name="Layer 1" xmlns="http://www.w3.org/2000/svg" viewBox="0 0 100 100"><title>l23_1_1</title><path d="M83.53,100H16.47A16.47,16.47,0,0,1,0,83.53V16.47A16.47,16.47,0,0,1,16.47,0H83.53A16.47,16.47,0,0,1,100,16.47V83.53A16.47,16.47,0,0,1,83.53,100ZM37.78,23.19a9.78,9.78,0,0,0-4.3.94,8,8,0,0,0-3.12,2.56,13.4,13.4,0,0,1,1.91-6.62,4.85,4.85,0,0,1,4.19-2.37,6.76,6.76,0,0,1,2.33.41,29.64,29.64,0,0,1,2.79,1.22l1.12.56c.64.34,1.15.58,1.52.73a3.23,3.23,0,0,0,1.27.23,2.68,2.68,0,0,0,2.16-1.09,4.12,4.12,0,0,0,.89-2.67,3.74,3.74,0,0,0-.38-1.77A4.26,4.26,0,0,0,46.91,14a16,16,0,0,0-5.1-2.54A19.7,19.7,0,0,0,36,10.49a13.7,13.7,0,0,0-7.9,2.29,14.83,14.83,0,0,0-5.23,6.52A24.75,24.75,0,0,0,21,29.23q0,8.64,3.91,13.3c2.61,3.12,6.29,4.68,11.07,4.68a13.11,13.11,0,0,0,6.45-1.58,11.36,11.36,0,0,0,4.44-4.39,12.64,12.64,0,0,0,1.6-6.37,12.79,12.79,0,0,0-1.4-6,10.41,10.41,0,0,0-3.83-4.16A10.25,10.25,0,0,0,37.78,23.19ZM35.44,40.05a4,4,0,0,1-3.15-1.35,5,5,0,0,1-1.22-3.48,5,5,0,0,1,1.2-3.5,4.05,4.05,0,0,1,3.17-1.32,4,4,0,0,1,3.17,1.29,5.17,5.17,0,0,1,1.15,3.53,5.1,5.1,0,0,1-1.17,3.51A4,4,0,0,1,35.44,40.05ZM65.2,47.21q6.64,0,10.15-4.73t3.5-13.66q0-8.88-3.52-13.6T65.2,10.49q-6.66,0-10.16,4.73t-3.5,13.6q0,8.94,3.5,13.66T65.2,47.21Zm0-7.06a3.64,3.64,0,0,1-3.51-2.64q-1.06-2.64-1.07-8.69c0-4,.36-6.91,1.07-8.65a3.65,3.65,0,0,1,7,0q1.06,2.64,1.07,8.63T68.7,37.51A3.64,3.64,0,0,1,65.2,40.15ZM34.73,89.21q6.65,0,10.15-4.73t3.51-13.66q0-8.88-3.53-13.6T34.73,52.49q-6.66,0-10.16,4.73t-3.5,13.6q0,8.94,3.5,13.66T34.73,89.21Zm0-7.06a3.65,3.65,0,0,1-3.51-2.64q-1.06-2.64-1.06-8.69c0-4,.35-6.91,1.06-8.65a3.65,3.65,0,0,1,7,0q1.07,2.64,1.07,8.63t-1.07,8.69A3.64,3.64,0,0,1,34.73,82.15ZM65.2,89.21q6.64,0,10.15-4.73t3.5-13.66q0-8.88-3.52-13.6T65.2,52.49q-6.66,0-10.16,4.73t-3.5,13.6q0,8.94,3.5,13.66T65.2,89.21Zm0-7.06a3.64,3.64,0,0,1-3.51-2.64q-1.06-2.64-1.07-8.69c0-4,.36-6.91,1.07-8.65a3.65,3.65,0,0,1,7,0q1.06,2.64,1.07,8.63T68.7,79.51A3.64,3.64,0,0,1,65.2,82.15Z"/></svg>