<svg id="Layer_1" data-name="Layer 1" xmlns="http://www.w3.org/2000/svg" viewBox="0 0 100 100"><title>l23_1_1</title><path d="M83.53,100H16.47A16.47,16.47,0,0,1,0,83.53V16.47A16.47,16.47,0,0,1,16.47,0H83.53A16.47,16.47,0,0,1,100,16.47V83.53A16.47,16.47,0,0,1,83.53,100ZM58.94,59.8H54.78V35.74a4.23,4.23,0,0,0-4.52-4.52A8.57,8.57,0,0,0,46,32.49l-8.12,4.72a3.44,3.44,0,0,0-1.78,3.15,4.25,4.25,0,0,0,1,2.76,3.05,3.05,0,0,0,2.44,1.25,3.44,3.44,0,0,0,1.77-.51l4.06-2.39V59.8H41.32a5.08,5.08,0,0,0-3.35.92,3.41,3.41,0,0,0-1.07,2.74c0,2.51,1.48,3.76,4.42,3.76H58.94q4.43,0,4.42-3.76a3.41,3.41,0,0,0-1.07-2.74A5.08,5.08,0,0,0,58.94,59.8Z"/></svg>