<svg id="Layer_1" data-name="Layer 1" xmlns="http://www.w3.org/2000/svg" viewBox="0 0 100 100"><title>l23_2_1</title><path d="M83.52,100.08H16.45A16.47,16.47,0,0,1,0,83.62V16.55A16.48,16.48,0,0,1,16.45.08H83.52A16.47,16.47,0,0,1,100,16.55V83.62A16.46,16.46,0,0,1,83.52,100.08ZM45,11H25.06a5,5,0,0,0-3.35.94,3.57,3.57,0,0,0-1.06,2.82,3.43,3.43,0,0,0,1,2.74,5,5,0,0,0,3.37.92h12.7l-13,22.29A4.72,4.72,0,0,0,24,43.18a3.75,3.75,0,0,0,1.37,2.92,4.67,4.67,0,0,0,3.15,1.19,4.42,4.42,0,0,0,2.15-.58,4.72,4.72,0,0,0,1.76-1.81L47.81,18.25a6.47,6.47,0,0,0,1-3.36,3.94,3.94,0,0,0-1-2.76A3.61,3.61,0,0,0,45,11ZM65.18,47.29q6.64,0,10.15-4.72t3.51-13.66q0-8.89-3.53-13.61T65.18,10.58q-6.66,0-10.16,4.72t-3.5,13.61q0,8.94,3.5,13.66T65.18,47.29Zm0-7.06a3.65,3.65,0,0,1-3.51-2.64q-1.06-2.64-1.06-8.68t1.06-8.66a3.65,3.65,0,0,1,7,0c.71,1.76,1.07,4.63,1.07,8.63s-.36,6.92-1.07,8.68A3.64,3.64,0,0,1,65.18,40.23ZM34.71,89.29q6.66,0,10.16-4.72t3.5-13.66q0-8.89-3.53-13.61T34.71,52.58q-6.64,0-10.15,4.72T21.05,70.91q0,8.94,3.51,13.66T34.71,89.29Zm0-7.06a3.64,3.64,0,0,1-3.5-2.64q-1.07-2.64-1.07-8.68t1.07-8.66a3.65,3.65,0,0,1,7,0c.71,1.76,1.06,4.63,1.06,8.63s-.35,6.92-1.06,8.68A3.64,3.64,0,0,1,34.71,82.23Zm30.47,7.06q6.64,0,10.15-4.72t3.51-13.66q0-8.89-3.53-13.61T65.18,52.58q-6.66,0-10.16,4.72t-3.5,13.61q0,8.94,3.5,13.66T65.18,89.29Zm0-7.06a3.65,3.65,0,0,1-3.51-2.64q-1.06-2.64-1.06-8.68t1.06-8.66a3.65,3.65,0,0,1,7,0c.71,1.76,1.07,4.63,1.07,8.63s-.36,6.92-1.07,8.68A3.64,3.64,0,0,1,65.18,82.23Z"/></svg>