<svg id="Layer_1" data-name="Layer 1" xmlns="http://www.w3.org/2000/svg" viewBox="0 0 100 100"><title>l23_4_1</title><path d="M83.53,100H16.47A16.47,16.47,0,0,1,0,83.53V16.47A16.47,16.47,0,0,1,16.47,0H83.53A16.47,16.47,0,0,1,100,16.47V83.53A16.47,16.47,0,0,1,83.53,100Zm-25-65.91H54.63V11.78a4.06,4.06,0,0,0-1.15-3,4.13,4.13,0,0,0-3-1.13,8,8,0,0,0-3.9,1.17L39,13.15a3.2,3.2,0,0,0-1.65,2.92,3.93,3.93,0,0,0,.94,2.56,2.83,2.83,0,0,0,2.26,1.15,3.19,3.19,0,0,0,1.65-.47L46,17.1v17H42.16a4.7,4.7,0,0,0-3.11.85,3.18,3.18,0,0,0-1,2.54q0,3.48,4.09,3.48H58.49q4.09,0,4.09-3.48a3.15,3.15,0,0,0-1-2.54A4.65,4.65,0,0,0,58.49,34.09Zm.24,45.38h-1v-17a4,4,0,0,0-1.27-3.15,4.47,4.47,0,0,0-3.06-1.13,4.68,4.68,0,0,0-2.09.49,4.29,4.29,0,0,0-1.67,1.44L36.15,79.33a5.27,5.27,0,0,0-1,3.11,3.59,3.59,0,0,0,1,2.58,3.53,3.53,0,0,0,2.68,1H49.28v1.6a4.18,4.18,0,0,0,1.15,3.2,4.27,4.27,0,0,0,3,1.08,4.32,4.32,0,0,0,3.05-1.08,4.12,4.12,0,0,0,1.18-3.2v-1.6h1c2.73,0,4.1-1.12,4.1-3.34S61.46,79.47,58.73,79.47Zm-15.1,0,5.65-8.14v8.14ZM76.11,49h0a3.53,3.53,0,0,0-3.52-3.52H26.36A3.52,3.52,0,0,0,22.84,49h0a3.51,3.51,0,0,0,3.52,3.52H72.59A3.52,3.52,0,0,0,76.11,49Z"/></svg>