<svg id="Layer_1" data-name="Layer 1" xmlns="http://www.w3.org/2000/svg" viewBox="0 0 100 100"><title>l23_4_1</title><path d="M83.53,100H16.47A16.47,16.47,0,0,1,0,83.53V16.47A16.47,16.47,0,0,1,16.47,0H83.53A16.47,16.47,0,0,1,100,16.47V83.53A16.47,16.47,0,0,1,83.53,100ZM57.24,34.09H47.78l6.68-6.82A21.83,21.83,0,0,0,58.39,22a11.81,11.81,0,0,0,1.16-5.24,8.62,8.62,0,0,0-1.44-4.92A9.19,9.19,0,0,0,54,8.51a15.32,15.32,0,0,0-6.12-1.15,19.26,19.26,0,0,0-10.4,3.2,3.19,3.19,0,0,0-1.15,1.22,4.14,4.14,0,0,0-.3,1.7,4,4,0,0,0,.8,2.52,2.4,2.4,0,0,0,2,1.06,2.7,2.7,0,0,0,.9-.15,5.55,5.55,0,0,0,1-.44c.36-.21.6-.34.73-.4l.94-.47A23.49,23.49,0,0,1,45,14.44a7.83,7.83,0,0,1,2.52-.4,3.73,3.73,0,0,1,2.61.85,3.18,3.18,0,0,1,.92,2.45q0,2.73-3.11,6L38,33.71a5.17,5.17,0,0,0-1.59,3.67,3.52,3.52,0,0,0,1,2.57,3.61,3.61,0,0,0,2.69,1H57.24a4.68,4.68,0,0,0,3.08-.85,3.21,3.21,0,0,0,1-2.63,3.11,3.11,0,0,0-1-2.57A4.8,4.8,0,0,0,57.24,34.09ZM54.59,74.58a7.59,7.59,0,0,0,3.74-2.85,7.76,7.76,0,0,0,1.34-4.54,8.18,8.18,0,0,0-1.43-4.79,9.21,9.21,0,0,0-4.09-3.2A15.5,15.5,0,0,0,48,58.07a18.75,18.75,0,0,0-5.58.85,15.4,15.4,0,0,0-4.77,2.35,3.85,3.85,0,0,0-1.13,1.27,3.63,3.63,0,0,0-.33,1.64,3.85,3.85,0,0,0,.8,2.47,2.41,2.41,0,0,0,2,1,3.05,3.05,0,0,0,1.17-.21c.35-.14.82-.37,1.41-.68l1-.47a25.72,25.72,0,0,1,2.56-1.13,7.2,7.2,0,0,1,2.47-.42,4,4,0,0,1,2.87,1,3.54,3.54,0,0,1,1,2.71,2.64,2.64,0,0,1-1.18,2.4,7.21,7.21,0,0,1-3.76.75H44.48a2.68,2.68,0,0,0-2.21,1,3.85,3.85,0,0,0,0,4.7,2.68,2.68,0,0,0,2.21,1H47.4a7.08,7.08,0,0,1,3.85.8,2.93,2.93,0,0,1,1.18,2.63,3.28,3.28,0,0,1-1.15,2.83,6.58,6.58,0,0,1-3.79.84,8.42,8.42,0,0,1-2.7-.4,20.16,20.16,0,0,1-2.71-1.15l-.59-.26-.44-.21c-.6-.31-1.07-.54-1.41-.68a3.14,3.14,0,0,0-1.18-.21,2.42,2.42,0,0,0-2,1,3.85,3.85,0,0,0-.8,2.47,3.29,3.29,0,0,0,1.46,2.91A15.06,15.06,0,0,0,42,91.21a20.93,20.93,0,0,0,5.88.82,17.66,17.66,0,0,0,6.66-1.15A9.93,9.93,0,0,0,59,87.61a8.23,8.23,0,0,0,1.55-5A8.33,8.33,0,0,0,59,77.5,8.06,8.06,0,0,0,54.59,74.58ZM76.11,49h0a3.53,3.53,0,0,0-3.52-3.52H26.36A3.52,3.52,0,0,0,22.84,49h0a3.51,3.51,0,0,0,3.52,3.52H72.59A3.52,3.52,0,0,0,76.11,49Z"/></svg>