<svg id="Layer_1" data-name="Layer 1" xmlns="http://www.w3.org/2000/svg" viewBox="0 0 100 100"><title>l23_4_1</title><path d="M83.53,100H16.47A16.47,16.47,0,0,1,0,83.53V16.47A16.47,16.47,0,0,1,16.47,0H83.53A16.47,16.47,0,0,1,100,16.47V83.53A16.47,16.47,0,0,1,83.53,100Zm-29-76.12A7.65,7.65,0,0,0,58.23,21a7.84,7.84,0,0,0,1.34-4.54,8.26,8.26,0,0,0-1.43-4.8A9.24,9.24,0,0,0,54,8.49,15.64,15.64,0,0,0,47.9,7.36a18.75,18.75,0,0,0-5.58.85,15.63,15.63,0,0,0-4.77,2.35,3.74,3.74,0,0,0-1.13,1.27,3.67,3.67,0,0,0-.33,1.65,3.89,3.89,0,0,0,.8,2.47,2.44,2.44,0,0,0,2,1A3.05,3.05,0,0,0,40,16.75c.35-.14.82-.37,1.41-.68l1-.47A22.84,22.84,0,0,1,45,14.47,6.93,6.93,0,0,1,47.48,14a4,4,0,0,1,2.87,1,3.5,3.5,0,0,1,1,2.7,2.64,2.64,0,0,1-1.17,2.4,7.24,7.24,0,0,1-3.77.76H44.37a2.7,2.7,0,0,0-2.21,1,3.87,3.87,0,0,0,0,4.71,2.68,2.68,0,0,0,2.21,1h2.92a7.12,7.12,0,0,1,3.86.8A3,3,0,0,1,52.32,31a3.28,3.28,0,0,1-1.15,2.83,6.58,6.58,0,0,1-3.79.84,8.42,8.42,0,0,1-2.7-.4A20.71,20.71,0,0,1,42,33.1l-.59-.26-.44-.21c-.6-.31-1.07-.54-1.42-.68a3.05,3.05,0,0,0-1.17-.21,2.42,2.42,0,0,0-2,1,3.87,3.87,0,0,0-.8,2.47,3.66,3.66,0,0,0,.33,1.62A3.74,3.74,0,0,0,37,38.14a15.2,15.2,0,0,0,4.9,2.37,20.83,20.83,0,0,0,5.88.82,17.66,17.66,0,0,0,6.66-1.15,9.9,9.9,0,0,0,4.39-3.27,8.17,8.17,0,0,0,1.56-5,8.39,8.39,0,0,0-1.58-5.13A8,8,0,0,0,54.49,23.88Zm-3.05,46a9,9,0,0,0-4,.87,7.55,7.55,0,0,0-2.9,2.37,12.45,12.45,0,0,1,1.77-6.13,4.5,4.5,0,0,1,3.88-2.19,6.29,6.29,0,0,1,2.16.37c.69.25,1.55.63,2.59,1.13l1,.52c.59.31,1.06.54,1.41.68a3.05,3.05,0,0,0,1.17.21,2.47,2.47,0,0,0,2-1,3.77,3.77,0,0,0,.82-2.47,3.38,3.38,0,0,0-.35-1.64,4,4,0,0,0-1.15-1.27,15,15,0,0,0-4.73-2.36,18.36,18.36,0,0,0-5.38-.84,12.75,12.75,0,0,0-7.32,2.11,13.68,13.68,0,0,0-4.84,6.05,22.71,22.71,0,0,0-1.72,9.2q0,8,3.62,12.32c2.42,2.89,5.83,4.33,10.26,4.33a12.16,12.16,0,0,0,6-1.46,10.47,10.47,0,0,0,4.12-4.07,12.56,12.56,0,0,0,.18-11.48,9.64,9.64,0,0,0-3.55-3.85A9.46,9.46,0,0,0,51.44,69.83ZM49.28,85.45a3.77,3.77,0,0,1-2.92-1.25,5.23,5.23,0,0,1,0-6.47,3.78,3.78,0,0,1,2.94-1.22,3.73,3.73,0,0,1,2.94,1.2A4.8,4.8,0,0,1,53.28,81a4.67,4.67,0,0,1-1.09,3.24A3.68,3.68,0,0,1,49.28,85.45ZM76.11,49h0a3.53,3.53,0,0,0-3.52-3.52H26.36A3.52,3.52,0,0,0,22.84,49h0a3.51,3.51,0,0,0,3.52,3.52H72.59A3.52,3.52,0,0,0,76.11,49Z"/></svg>