<svg id="Layer_1" data-name="Layer 1" xmlns="http://www.w3.org/2000/svg" viewBox="0 0 100 100"><title>l23_4_1</title><path d="M83.53,100H16.47A16.47,16.47,0,0,1,0,83.53V16.47A16.47,16.47,0,0,1,16.47,0H83.53A16.47,16.47,0,0,1,100,16.47V83.53A16.47,16.47,0,0,1,83.53,100Zm-25-65.91H54.63V11.78a4.06,4.06,0,0,0-1.15-3,4.13,4.13,0,0,0-3-1.13,8,8,0,0,0-3.9,1.17L39,13.15a3.2,3.2,0,0,0-1.65,2.92,3.93,3.93,0,0,0,.94,2.56,2.83,2.83,0,0,0,2.26,1.15,3.19,3.19,0,0,0,1.65-.47L46,17.1v17H42.16a4.7,4.7,0,0,0-3.11.85,3.18,3.18,0,0,0-1,2.54q0,3.48,4.09,3.48H58.49q4.09,0,4.09-3.48a3.15,3.15,0,0,0-1-2.54A4.67,4.67,0,0,0,58.49,34.09ZM55.77,74.58a7,7,0,0,0,3.69-2.78,8.1,8.1,0,0,0,1.34-4.7,7.79,7.79,0,0,0-3.27-6.61q-3.27-2.41-8.91-2.42c-3.73,0-6.7.81-8.89,2.42a7.76,7.76,0,0,0-3.29,6.61,8,8,0,0,0,1.31,4.59,7.79,7.79,0,0,0,3.77,2.89,7.81,7.81,0,0,0-4.43,2.8,8.3,8.3,0,0,0-1.55,5.15,8.1,8.1,0,0,0,3.51,7Q42.55,92,48.62,92t9.57-2.52a8.1,8.1,0,0,0,3.51-7,7.73,7.73,0,0,0-5.93-8ZM48.62,85.49q-5.13,0-5.13-3.67c0-2.44,1.71-3.67,5.13-3.67s5.13,1.23,5.13,3.67S52,85.49,48.62,85.49Zm0-20.88a5,5,0,0,1,3.15.82,3.19,3.19,0,0,1,1,2.66,3.28,3.28,0,0,1-1,2.68,4.94,4.94,0,0,1-3.15.85,4.94,4.94,0,0,1-3.15-.85,3.28,3.28,0,0,1-1-2.68,3.19,3.19,0,0,1,1-2.66A5,5,0,0,1,48.62,64.61ZM76.11,49h0a3.53,3.53,0,0,0-3.52-3.52H26.36A3.52,3.52,0,0,0,22.84,49h0a3.51,3.51,0,0,0,3.52,3.52H72.59A3.52,3.52,0,0,0,76.11,49Z"/></svg>