<svg id="Layer_1" data-name="Layer 1" xmlns="http://www.w3.org/2000/svg" viewBox="0 0 100 100"><title>23_3_1</title><path d="M83.53,100H16.47A16.47,16.47,0,0,1,0,83.53V16.47A16.47,16.47,0,0,1,16.47,0H83.53A16.47,16.47,0,0,1,100,16.47V83.53A16.47,16.47,0,0,1,83.53,100ZM37.71,59.8H33.55V35.74A4.23,4.23,0,0,0,29,31.22a8.57,8.57,0,0,0-4.22,1.27l-8.12,4.72a3.44,3.44,0,0,0-1.78,3.15,4.23,4.23,0,0,0,1,2.76,3.05,3.05,0,0,0,2.44,1.25,3.41,3.41,0,0,0,1.77-.51l4.06-2.39V59.8H20.09a5.08,5.08,0,0,0-3.35.92,3.41,3.41,0,0,0-1.07,2.74c0,2.51,1.48,3.76,4.42,3.76H37.71q4.42,0,4.42-3.76a3.41,3.41,0,0,0-1.07-2.74A5.08,5.08,0,0,0,37.71,59.8Zm11.38,7.72a4.66,4.66,0,0,0,3.47-1.42,5.09,5.09,0,0,0,0-7,4.7,4.7,0,0,0-3.47-1.42,4.75,4.75,0,0,0-3.53,1.42,5.09,5.09,0,0,0,0,7A4.72,4.72,0,0,0,49.09,67.52ZM80.67,59.8H70.46l7.21-7.36a23.72,23.72,0,0,0,4.24-5.71,12.8,12.8,0,0,0,1.25-5.66,9.33,9.33,0,0,0-1.55-5.31,9.92,9.92,0,0,0-4.39-3.55A16.36,16.36,0,0,0,70.62,31a19.89,19.89,0,0,0-5.87.92,19.63,19.63,0,0,0-5.36,2.54,3.27,3.27,0,0,0-1.24,1.32,4.32,4.32,0,0,0-.33,1.82,4.41,4.41,0,0,0,.86,2.72,2.6,2.6,0,0,0,2.14,1.14,3.06,3.06,0,0,0,1-.15,5.77,5.77,0,0,0,1-.48l.79-.43,1-.51a25.9,25.9,0,0,1,2.87-1.25,8.48,8.48,0,0,1,2.72-.43,4,4,0,0,1,2.82.92,3.42,3.42,0,0,1,1,2.64q0,2.94-3.35,6.45L59.9,59.4a5.54,5.54,0,0,0-1.72,4,3.8,3.8,0,0,0,1.06,2.77,3.9,3.9,0,0,0,2.9,1.09H80.67A5.11,5.11,0,0,0,84,66.3a3.51,3.51,0,0,0,1.09-2.84A3.4,3.4,0,0,0,84,60.69,5.23,5.23,0,0,0,80.67,59.8Z"/></svg>