<svg id="Layer_1" data-name="Layer 1" xmlns="http://www.w3.org/2000/svg" viewBox="0 0 100 100"><title>23_3_1</title><path d="M83.53,100H16.47A16.47,16.47,0,0,1,0,83.53V16.47A16.47,16.47,0,0,1,16.47,0H83.53A16.47,16.47,0,0,1,100,16.47V83.53A16.47,16.47,0,0,1,83.53,100ZM27.1,67.67q6.65,0,10.15-4.72t3.51-13.66q0-8.88-3.53-13.61T27.1,31q-6.66,0-10.16,4.72t-3.5,13.61q0,8.94,3.5,13.66T27.1,67.67Zm0-7.05A3.63,3.63,0,0,1,23.6,58c-.72-1.76-1.07-4.66-1.07-8.69s.35-6.91,1.07-8.65a3.64,3.64,0,0,1,7,0q1.06,2.64,1.07,8.63T30.6,58A3.64,3.64,0,0,1,27.1,60.62Zm22.14,6.9a4.67,4.67,0,0,0,3.48-1.42,5.11,5.11,0,0,0,0-7,4.7,4.7,0,0,0-3.48-1.42,4.77,4.77,0,0,0-3.53,1.42,5.09,5.09,0,0,0,0,7A4.73,4.73,0,0,0,49.24,67.52Zm32.9-7.72H78V35.74a4.23,4.23,0,0,0-4.52-4.52,8.57,8.57,0,0,0-4.22,1.27l-8.12,4.72a3.46,3.46,0,0,0-1.78,3.15,4.25,4.25,0,0,0,1,2.76,3.06,3.06,0,0,0,2.44,1.25,3.41,3.41,0,0,0,1.77-.51l4.07-2.39V59.8H64.52a5.08,5.08,0,0,0-3.35.92,3.41,3.41,0,0,0-1.07,2.74c0,2.51,1.48,3.76,4.42,3.76H82.14q4.42,0,4.42-3.76a3.41,3.41,0,0,0-1.07-2.74A5.06,5.06,0,0,0,82.14,59.8Z"/></svg>