<svg id="Layer_1" data-name="Layer 1" xmlns="http://www.w3.org/2000/svg" viewBox="0 0 100 100"><title>l23_1_1</title><path d="M84.43,100H17.37A16.47,16.47,0,0,1,.9,83.53V16.47A16.47,16.47,0,0,1,17.37,0H84.43A16.47,16.47,0,0,1,100.9,16.47V83.53A16.47,16.47,0,0,1,84.43,100ZM49.68,31a13.11,13.11,0,0,0-6.45,1.58,11.36,11.36,0,0,0-4.44,4.39,12.64,12.64,0,0,0-1.6,6.37,12.82,12.82,0,0,0,1.4,6,10.48,10.48,0,0,0,3.83,4.16A10.26,10.26,0,0,0,47.91,55,9.76,9.76,0,0,0,52.2,54a8.13,8.13,0,0,0,3.12-2.56,13.4,13.4,0,0,1-1.91,6.62,4.83,4.83,0,0,1-4.18,2.36,6.77,6.77,0,0,1-2.34-.4,29.64,29.64,0,0,1-2.79-1.22L43,58.28c-.64-.34-1.15-.58-1.52-.74a3.42,3.42,0,0,0-1.27-.22A2.68,2.68,0,0,0,38,58.41a4.09,4.09,0,0,0-.89,2.66,3.78,3.78,0,0,0,.38,1.78,4.49,4.49,0,0,0,1.25,1.37,16,16,0,0,0,5.1,2.54,19.68,19.68,0,0,0,5.81.91,13.77,13.77,0,0,0,7.9-2.28,14.8,14.8,0,0,0,5.23-6.53,24.66,24.66,0,0,0,1.85-9.92q0-8.64-3.91-13.31T49.68,31Zm.56,16.81a4,4,0,0,1-3.17-1.3A5.13,5.13,0,0,1,45.92,43a5.1,5.1,0,0,1,1.17-3.51,4,4,0,0,1,3.15-1.32,4,4,0,0,1,3.15,1.35A5,5,0,0,1,54.61,43a5,5,0,0,1-1.2,3.5A4.05,4.05,0,0,1,50.24,47.77Z"/></svg>