<svg id="Layer_1" data-name="Layer 1" xmlns="http://www.w3.org/2000/svg" viewBox="0 0 100 100"><title>23_3_1</title><path d="M83.53,100H16.47A16.47,16.47,0,0,1,0,83.53V16.47A16.47,16.47,0,0,1,16.47,0H83.53A16.47,16.47,0,0,1,100,16.47V83.53A16.47,16.47,0,0,1,83.53,100ZM30.17,43.66a9.7,9.7,0,0,0-4.29.94,8,8,0,0,0-3.12,2.56,13.58,13.58,0,0,1,1.9-6.63,4.87,4.87,0,0,1,4.19-2.36,6.86,6.86,0,0,1,2.34.41c.74.27,1.67.68,2.79,1.22l1.12.56c.64.34,1.15.58,1.52.73a3.38,3.38,0,0,0,1.27.23,2.71,2.71,0,0,0,2.16-1.09,4.12,4.12,0,0,0,.89-2.67,3.74,3.74,0,0,0-.38-1.77,4.51,4.51,0,0,0-1.25-1.38,16.23,16.23,0,0,0-5.1-2.53A19.72,19.72,0,0,0,28.39,31a13.69,13.69,0,0,0-7.89,2.29,14.76,14.76,0,0,0-5.23,6.52,24.57,24.57,0,0,0-1.86,9.93q0,8.63,3.91,13.3t11.07,4.67a13.05,13.05,0,0,0,6.45-1.57,11.32,11.32,0,0,0,4.45-4.39,13.56,13.56,0,0,0,.2-12.39,10.51,10.51,0,0,0-3.83-4.17A10.37,10.37,0,0,0,30.17,43.66ZM27.84,60.51a4,4,0,0,1-3.15-1.34,5,5,0,0,1-1.22-3.48,5.05,5.05,0,0,1,1.19-3.5,4.09,4.09,0,0,1,3.18-1.32A4,4,0,0,1,31,52.16a5.17,5.17,0,0,1,1.14,3.53A5.11,5.11,0,0,1,31,59.2,4,4,0,0,1,27.84,60.51Zm21.42,7a4.67,4.67,0,0,0,3.48-1.42,5.09,5.09,0,0,0,0-7,4.7,4.7,0,0,0-3.48-1.42,4.93,4.93,0,1,0,0,9.85ZM82.17,59.8H78V35.74a4.43,4.43,0,0,0-1.24-3.31,4.49,4.49,0,0,0-3.28-1.21,8.53,8.53,0,0,0-4.21,1.27l-8.12,4.72a3.44,3.44,0,0,0-1.78,3.15,4.3,4.3,0,0,0,1,2.76,3.06,3.06,0,0,0,2.44,1.25,3.47,3.47,0,0,0,1.78-.51l4.06-2.39V59.8H64.55a5.06,5.06,0,0,0-3.35.92,3.41,3.41,0,0,0-1.07,2.74q0,3.76,4.42,3.76H82.17c2.94,0,4.42-1.25,4.42-3.76a3.41,3.41,0,0,0-1.07-2.74A5.08,5.08,0,0,0,82.17,59.8Z"/></svg>