<svg id="Layer_1" data-name="Layer 1" xmlns="http://www.w3.org/2000/svg" viewBox="0 0 100 100"><title>l23_1_1</title><path d="M83.53,100H16.47A16.47,16.47,0,0,1,0,83.53V16.47A16.47,16.47,0,0,1,16.47,0H83.53A16.47,16.47,0,0,1,100,16.47V83.53A16.47,16.47,0,0,1,83.53,100ZM60.26,31.42H40.35a5,5,0,0,0-3.35.94,3.56,3.56,0,0,0-1.06,2.82,3.43,3.43,0,0,0,1,2.74,5.05,5.05,0,0,0,3.37.91h12.7L40,61.12a4.78,4.78,0,0,0-.71,2.44,3.73,3.73,0,0,0,1.37,2.92,4.62,4.62,0,0,0,3.15,1.19A4.31,4.31,0,0,0,46,67.09a4.76,4.76,0,0,0,1.76-1.8L63.1,38.63a6.41,6.41,0,0,0,1-3.35,4,4,0,0,0-1-2.77A3.6,3.6,0,0,0,60.26,31.42Z"/></svg>