<svg id="Layer_1" data-name="Layer 1" xmlns="http://www.w3.org/2000/svg" viewBox="0 0 100 100"><title>23_3_1</title><path d="M83.67,100H16.6A16.46,16.46,0,0,1,.14,83.53V16.47A16.46,16.46,0,0,1,16.6,0H83.67a16.47,16.47,0,0,1,16.47,16.47V83.53A16.47,16.47,0,0,1,83.67,100ZM28,67.67q6.66,0,10.16-4.72t3.5-13.66q0-8.88-3.53-13.61T28,31q-6.64,0-10.15,4.72T14.31,49.29q0,8.94,3.51,13.66T28,67.67Zm0-7.05A3.64,3.64,0,0,1,24.47,58q-1.06-2.64-1.07-8.69t1.07-8.65a3.65,3.65,0,0,1,7,0q1.06,2.64,1.06,8.63T31.48,58A3.64,3.64,0,0,1,28,60.62Zm22.14,6.9a4.67,4.67,0,0,0,3.48-1.42,5.09,5.09,0,0,0,0-7,4.7,4.7,0,0,0-3.48-1.42,4.77,4.77,0,0,0-3.53,1.42,5.11,5.11,0,0,0,0,7A4.73,4.73,0,0,0,50.11,67.52ZM71,31a13.11,13.11,0,0,0-6.45,1.58,11.36,11.36,0,0,0-4.44,4.39,12.64,12.64,0,0,0-1.6,6.37,12.67,12.67,0,0,0,1.4,6,10.48,10.48,0,0,0,3.83,4.16A10.23,10.23,0,0,0,69.2,55,9.7,9.7,0,0,0,73.49,54a8.09,8.09,0,0,0,3.13-2.56,13.5,13.5,0,0,1-1.91,6.62,4.84,4.84,0,0,1-4.19,2.36,6.75,6.75,0,0,1-2.33-.4,29.64,29.64,0,0,1-2.79-1.22l-1.12-.56c-.64-.34-1.15-.58-1.52-.74a3.42,3.42,0,0,0-1.27-.22,2.68,2.68,0,0,0-2.16,1.09,4.09,4.09,0,0,0-.89,2.66,3.78,3.78,0,0,0,.38,1.78,4.34,4.34,0,0,0,1.24,1.37,16.19,16.19,0,0,0,5.11,2.54,19.63,19.63,0,0,0,5.81.91,13.79,13.79,0,0,0,7.9-2.28,14.83,14.83,0,0,0,5.23-6.52A24.75,24.75,0,0,0,86,48.94q0-8.64-3.91-13.31T71,31Zm.56,16.81a4,4,0,0,1-3.17-1.3A5.08,5.08,0,0,1,67.22,43a5.1,5.1,0,0,1,1.17-3.51,4,4,0,0,1,3.15-1.32,4,4,0,0,1,3.15,1.35A5,5,0,0,1,75.91,43a5,5,0,0,1-1.2,3.5A4.05,4.05,0,0,1,71.54,47.77Z"/></svg>