<svg id="Layer_1" data-name="Layer 1" xmlns="http://www.w3.org/2000/svg" viewBox="0 0 100 100"><title>l23_1_1</title><path d="M83.53,100H16.47A16.47,16.47,0,0,1,0,83.53V16.47A16.47,16.47,0,0,1,16.47,0H83.53A16.47,16.47,0,0,1,100,16.47V83.53A16.47,16.47,0,0,1,83.53,100ZM18.26,31a13,13,0,0,0-6.44,1.58,11.32,11.32,0,0,0-4.45,4.39,13.56,13.56,0,0,0-.2,12.39A10.48,10.48,0,0,0,11,53.48,10.29,10.29,0,0,0,16.49,55,9.76,9.76,0,0,0,20.78,54a8.13,8.13,0,0,0,3.12-2.56A13.51,13.51,0,0,1,22,58.1a4.86,4.86,0,0,1-4.19,2.36,6.85,6.85,0,0,1-2.34-.4c-.74-.27-1.67-.68-2.79-1.22l-1.12-.56c-.64-.34-1.15-.58-1.52-.74a3.38,3.38,0,0,0-1.27-.22,2.68,2.68,0,0,0-2.16,1.09,4.09,4.09,0,0,0-.89,2.66,3.78,3.78,0,0,0,.38,1.78,4.49,4.49,0,0,0,1.25,1.37,16,16,0,0,0,5.1,2.54,19.68,19.68,0,0,0,5.81.91,13.77,13.77,0,0,0,7.9-2.28,14.8,14.8,0,0,0,5.23-6.53,24.49,24.49,0,0,0,1.85-9.92q0-8.64-3.91-13.31T18.26,31Zm.56,16.81a4,4,0,0,1-3.17-1.3A5.12,5.12,0,0,1,14.51,43a5.14,5.14,0,0,1,1.16-3.51,4,4,0,0,1,3.15-1.32A4,4,0,0,1,22,39.47,5,5,0,0,1,23.19,43,5.05,5.05,0,0,1,22,46.45,4.09,4.09,0,0,1,18.82,47.77ZM50,67.67q6.66,0,10.16-4.72t3.5-13.66q0-8.88-3.53-13.61T50,31q-6.64,0-10.15,4.72T36.34,49.29q0,8.94,3.51,13.66T50,67.67Zm0-7.05A3.64,3.64,0,0,1,46.5,58q-1.06-2.64-1.07-8.69t1.07-8.65a3.64,3.64,0,0,1,7,0c.72,1.76,1.07,4.64,1.07,8.63S54.22,56.22,53.5,58A3.63,3.63,0,0,1,50,60.62Zm30.47,7.05q6.65,0,10.15-4.72t3.51-13.66q0-8.88-3.53-13.61T80.47,31q-6.66,0-10.16,4.72t-3.5,13.61q0,8.94,3.5,13.66T80.47,67.67Zm0-7.05A3.64,3.64,0,0,1,77,58q-1.06-2.64-1.06-8.69T77,40.64a3.65,3.65,0,0,1,7,0Q85,43.3,85,49.29T84,58A3.64,3.64,0,0,1,80.47,60.62Z"/></svg>