<svg id="Layer_1" data-name="Layer 1" xmlns="http://www.w3.org/2000/svg" viewBox="0 0 100 100"><title>l23_4_1</title><path d="M83.53,100H16.47A16.47,16.47,0,0,1,0,83.53V16.47A16.47,16.47,0,0,1,16.47,0H83.53A16.47,16.47,0,0,1,100,16.47V83.53A16.47,16.47,0,0,1,83.53,100Zm-25-65.91H54.63V11.78a4.06,4.06,0,0,0-1.15-3,4.13,4.13,0,0,0-3-1.13,8,8,0,0,0-3.9,1.17L39,13.15a3.2,3.2,0,0,0-1.65,2.92,3.93,3.93,0,0,0,.94,2.56,2.83,2.83,0,0,0,2.26,1.15,3.19,3.19,0,0,0,1.65-.47L46,17.1v17H42.16a4.7,4.7,0,0,0-3.11.85,3.18,3.18,0,0,0-1,2.54q0,3.48,4.09,3.48H58.49q4.09,0,4.09-3.48a3.15,3.15,0,0,0-1-2.54A4.67,4.67,0,0,0,58.49,34.09ZM50.92,70a11.63,11.63,0,0,0-4.65.85V65H56.43q4.09,0,4.09-3.29t-4.09-3.25H41.85a4,4,0,0,0-3,1,4.07,4.07,0,0,0-1,3V75.29a2.56,2.56,0,0,0,.89,2,3.24,3.24,0,0,0,2.21.78,4.46,4.46,0,0,0,2.12-.52,16.56,16.56,0,0,1,2.7-.85,13.49,13.49,0,0,1,2.57-.23A5.35,5.35,0,0,1,52,77.68,4.23,4.23,0,0,1,53.32,81a4.05,4.05,0,0,1-1.27,3.31,6,6,0,0,1-3.9,1.06,7.85,7.85,0,0,1-2.61-.42,25.61,25.61,0,0,1-2.66-1.13l-.94-.47a15.28,15.28,0,0,0-1.41-.71,3.37,3.37,0,0,0-1.18-.18,2.4,2.4,0,0,0-2,1,3.8,3.8,0,0,0-.8,2.47,3.43,3.43,0,0,0,.35,1.62A4.1,4.1,0,0,0,38,88.83a15.15,15.15,0,0,0,4.82,2.35,19.41,19.41,0,0,0,5.71.85,15.31,15.31,0,0,0,6.73-1.41,10.61,10.61,0,0,0,4.52-4,11.15,11.15,0,0,0,1.59-6,11.29,11.29,0,0,0-1.34-5.58,9.52,9.52,0,0,0-3.71-3.76A10.94,10.94,0,0,0,50.92,70ZM76.11,49h0a3.53,3.53,0,0,0-3.52-3.52H26.36A3.52,3.52,0,0,0,22.84,49h0a3.51,3.51,0,0,0,3.52,3.52H72.59A3.52,3.52,0,0,0,76.11,49Z"/></svg>