<svg id="Layer_1" data-name="Layer 1" xmlns="http://www.w3.org/2000/svg" viewBox="0 0 100 100"><title>l23_1_1</title><path d="M83.53,100H16.47A16.47,16.47,0,0,1,0,83.53V16.47A16.47,16.47,0,0,1,16.47,0H83.53A16.47,16.47,0,0,1,100,16.47V83.53A16.47,16.47,0,0,1,83.53,100Zm-38-60.67H41.33V15.27A4.43,4.43,0,0,0,40.09,12a4.47,4.47,0,0,0-3.28-1.22A8.5,8.5,0,0,0,32.6,12l-8.13,4.72a3.46,3.46,0,0,0-1.78,3.15,4.28,4.28,0,0,0,1,2.77,3.08,3.08,0,0,0,2.44,1.24,3.41,3.41,0,0,0,1.77-.51L32,21V39.33H27.87a5.08,5.08,0,0,0-3.35.92A3.41,3.41,0,0,0,23.46,43q0,3.76,4.41,3.76H45.49q4.42,0,4.42-3.76a3.38,3.38,0,0,0-1.07-2.74A5.06,5.06,0,0,0,45.49,39.33ZM65.2,47.21q6.64,0,10.15-4.73t3.5-13.66q0-8.88-3.52-13.6T65.2,10.49q-6.66,0-10.16,4.73t-3.5,13.6q0,8.94,3.5,13.66T65.2,47.21Zm0-7.06a3.64,3.64,0,0,1-3.51-2.64q-1.06-2.64-1.07-8.69c0-4,.36-6.91,1.07-8.65a3.65,3.65,0,0,1,7,0q1.06,2.64,1.07,8.63T68.7,37.51A3.64,3.64,0,0,1,65.2,40.15ZM34.73,89.21q6.65,0,10.15-4.73t3.51-13.66q0-8.88-3.53-13.6T34.73,52.49q-6.66,0-10.16,4.73t-3.5,13.6q0,8.94,3.5,13.66T34.73,89.21Zm0-7.06a3.65,3.65,0,0,1-3.51-2.64q-1.06-2.64-1.06-8.69c0-4,.35-6.91,1.06-8.65a3.65,3.65,0,0,1,7,0q1.07,2.64,1.07,8.63t-1.07,8.69A3.64,3.64,0,0,1,34.73,82.15ZM65.2,89.21q6.64,0,10.15-4.73t3.5-13.66q0-8.88-3.52-13.6T65.2,52.49q-6.66,0-10.16,4.73t-3.5,13.6q0,8.94,3.5,13.66T65.2,89.21Zm0-7.06a3.64,3.64,0,0,1-3.51-2.64q-1.06-2.64-1.07-8.69c0-4,.36-6.91,1.07-8.65a3.65,3.65,0,0,1,7,0q1.06,2.64,1.07,8.63T68.7,79.51A3.64,3.64,0,0,1,65.2,82.15Z"/></svg>