<svg id="Layer_1" data-name="Layer 1" xmlns="http://www.w3.org/2000/svg" viewBox="0 0 100 100"><title>l23_1_1</title><path d="M83.52,100.08H16.45A16.46,16.46,0,0,1,0,83.62V16.55A16.47,16.47,0,0,1,16.45.08H83.52A16.48,16.48,0,0,1,100,16.55V83.62A16.47,16.47,0,0,1,83.52,100.08ZM42.43,28.4a7.64,7.64,0,0,0,4-3,8.84,8.84,0,0,0,1.45-5.07,8.42,8.42,0,0,0-3.53-7.14c-2.36-1.74-5.56-2.61-9.63-2.61s-7.22.87-9.59,2.61a8.4,8.4,0,0,0-3.56,7.14,8.72,8.72,0,0,0,1.42,5,8.43,8.43,0,0,0,4.07,3.12,8.47,8.47,0,0,0-4.78,3A9,9,0,0,0,20.6,37a8.76,8.76,0,0,0,3.78,7.54q3.78,2.71,10.33,2.72t10.34-2.72A8.76,8.76,0,0,0,48.83,37a8.35,8.35,0,0,0-6.4-8.58ZM34.71,40.18q-5.54,0-5.53-4t5.53-4q5.53,0,5.54,4T34.71,40.18Zm0-22.54a5.45,5.45,0,0,1,3.41.88,3.47,3.47,0,0,1,1.11,2.87,3.55,3.55,0,0,1-1.11,2.9,5.32,5.32,0,0,1-3.41.91,5.31,5.31,0,0,1-3.4-.91,3.55,3.55,0,0,1-1.12-2.9,3.48,3.48,0,0,1,1.12-2.87A5.44,5.44,0,0,1,34.71,17.64ZM65.18,47.29q6.66,0,10.16-4.72t3.5-13.66q0-8.89-3.53-13.61T65.18,10.58q-6.65,0-10.15,4.72T51.52,28.91q0,8.94,3.51,13.66T65.18,47.29Zm0-7.06a3.64,3.64,0,0,1-3.5-2.64q-1.07-2.64-1.07-8.68t1.07-8.66a3.65,3.65,0,0,1,7,0c.72,1.76,1.07,4.63,1.07,8.63s-.35,6.92-1.07,8.68A3.63,3.63,0,0,1,65.18,40.23ZM34.71,89.29q6.66,0,10.16-4.72t3.5-13.66q0-8.89-3.53-13.61T34.71,52.58q-6.64,0-10.15,4.72T21.05,70.91q0,8.94,3.51,13.66T34.71,89.29Zm0-7.06a3.64,3.64,0,0,1-3.5-2.64q-1.07-2.64-1.07-8.68t1.07-8.66a3.65,3.65,0,0,1,7,0c.71,1.76,1.06,4.63,1.06,8.63s-.35,6.92-1.06,8.68A3.64,3.64,0,0,1,34.71,82.23Zm30.47,7.06q6.66,0,10.16-4.72t3.5-13.66q0-8.89-3.53-13.61T65.18,52.58q-6.65,0-10.15,4.72T51.52,70.91q0,8.94,3.51,13.66T65.18,89.29Zm0-7.06a3.64,3.64,0,0,1-3.5-2.64q-1.07-2.64-1.07-8.68t1.07-8.66a3.65,3.65,0,0,1,7,0c.72,1.76,1.07,4.63,1.07,8.63s-.35,6.92-1.07,8.68A3.63,3.63,0,0,1,65.18,82.23Z"/></svg>