<svg id="Layer_1" data-name="Layer 1" xmlns="http://www.w3.org/2000/svg" viewBox="0 0 100 100"><title>l23_1_1</title><path d="M83.52,100H16.46A16.47,16.47,0,0,1,0,83.55V16.49A16.47,16.47,0,0,1,16.46,0H83.52A16.47,16.47,0,0,1,100,16.49V83.55A16.47,16.47,0,0,1,83.52,100ZM22.57,43.68a9.7,9.7,0,0,0-4.29.94,8,8,0,0,0-3.13,2.56,13.5,13.5,0,0,1,1.91-6.62,4.86,4.86,0,0,1,4.19-2.37,6.76,6.76,0,0,1,2.33.41c.75.27,1.68.68,2.8,1.22l1.11.56c.65.34,1.16.58,1.53.73a3.16,3.16,0,0,0,1.27.23,2.68,2.68,0,0,0,2.15-1.09,4.06,4.06,0,0,0,.89-2.67A3.62,3.62,0,0,0,33,35.81a4.34,4.34,0,0,0-1.24-1.37,16,16,0,0,0-5.1-2.54A19.72,19.72,0,0,0,20.79,31a13.76,13.76,0,0,0-7.89,2.29,14.69,14.69,0,0,0-5.23,6.52,24.57,24.57,0,0,0-1.86,9.93q0,8.64,3.91,13.3T20.79,67.7a13.11,13.11,0,0,0,6.45-1.58,11.23,11.23,0,0,0,4.44-4.39,12.64,12.64,0,0,0,1.6-6.37,12.78,12.78,0,0,0-1.39-6,10.44,10.44,0,0,0-3.84-4.16A10.23,10.23,0,0,0,22.57,43.68ZM20.23,60.54a4.07,4.07,0,0,1-3.15-1.35,5.67,5.67,0,0,1,0-7,4.05,4.05,0,0,1,3.17-1.32,4,4,0,0,1,3.18,1.29,5.17,5.17,0,0,1,1.14,3.53,5.1,5.1,0,0,1-1.17,3.51A4,4,0,0,1,20.23,60.54ZM50,67.7q6.65,0,10.15-4.73t3.51-13.66q0-8.88-3.53-13.6T50,31q-6.66,0-10.16,4.73t-3.5,13.6q0,8.94,3.5,13.66T50,67.7Zm0-7.06A3.63,3.63,0,0,1,46.49,58c-.72-1.76-1.07-4.66-1.07-8.69s.35-6.91,1.07-8.65a3.64,3.64,0,0,1,7,0q1.07,2.64,1.07,8.63T53.49,58A3.64,3.64,0,0,1,50,60.64ZM80.46,67.7q6.65,0,10.15-4.73t3.5-13.66q0-8.88-3.52-13.6T80.46,31Q73.8,31,70.3,35.71t-3.5,13.6q0,8.94,3.5,13.66T80.46,67.7Zm0-7.06A3.64,3.64,0,0,1,77,58q-1.07-2.64-1.06-8.69c0-4,.35-6.91,1.06-8.65a3.65,3.65,0,0,1,7,0Q85,43.32,85,49.31T84,58A3.64,3.64,0,0,1,80.46,60.64Z"/></svg>