<svg id="Layer_1" data-name="Layer 1" xmlns="http://www.w3.org/2000/svg" viewBox="0 0 100 100"><title>23_3_1</title><path d="M83.53,100H16.47A16.47,16.47,0,0,1,0,83.53V16.47A16.47,16.47,0,0,1,16.47,0H83.53A16.47,16.47,0,0,1,100,16.47V83.53A16.47,16.47,0,0,1,83.53,100ZM60.26,31.42H40.35a5,5,0,0,0-3.35.94,3.56,3.56,0,0,0-1.07,2.82,3.44,3.44,0,0,0,1,2.74,5,5,0,0,0,3.37.91h12.7L40,61.12a4.78,4.78,0,0,0-.71,2.44,3.7,3.7,0,0,0,1.37,2.92,4.61,4.61,0,0,0,3.14,1.19A4.32,4.32,0,0,0,46,67.09a4.67,4.67,0,0,0,1.75-1.8L63.1,38.63a6.51,6.51,0,0,0,1-3.35,4,4,0,0,0-1-2.77A3.6,3.6,0,0,0,60.26,31.42Z"/></svg>