<svg id="Layer_1" data-name="Layer 1" xmlns="http://www.w3.org/2000/svg" viewBox="0 0 100 100"><title>l23_4_1</title><path d="M83.53,100H16.47A16.47,16.47,0,0,1,0,83.53V16.47A16.47,16.47,0,0,1,16.47,0H83.53A16.47,16.47,0,0,1,100,16.47V83.53A16.47,16.47,0,0,1,83.53,100Zm-25-65.91H54.63V11.78a4.06,4.06,0,0,0-1.15-3,4.13,4.13,0,0,0-3-1.13,8,8,0,0,0-3.9,1.17L39,13.15a3.2,3.2,0,0,0-1.65,2.92,3.93,3.93,0,0,0,.94,2.56,2.83,2.83,0,0,0,2.26,1.15,3.19,3.19,0,0,0,1.65-.47L46,17.1v17H42.16a4.7,4.7,0,0,0-3.11.85,3.18,3.18,0,0,0-1,2.54q0,3.48,4.09,3.48H58.49q4.09,0,4.09-3.48a3.15,3.15,0,0,0-1-2.54A4.67,4.67,0,0,0,58.49,34.09ZM51.44,69.83a9,9,0,0,0-4,.87,7.48,7.48,0,0,0-2.9,2.37,12.45,12.45,0,0,1,1.77-6.13,4.5,4.5,0,0,1,3.88-2.19,6.29,6.29,0,0,1,2.16.37c.69.25,1.55.63,2.59,1.13l1,.52c.6.31,1.07.54,1.42.68a3.05,3.05,0,0,0,1.17.21,2.47,2.47,0,0,0,2-1,3.77,3.77,0,0,0,.82-2.47,3.38,3.38,0,0,0-.35-1.64,4,4,0,0,0-1.15-1.27,15,15,0,0,0-4.73-2.36,18.38,18.38,0,0,0-5.39-.84,12.74,12.74,0,0,0-7.31,2.11,13.77,13.77,0,0,0-4.85,6.05,22.89,22.89,0,0,0-1.71,9.2q0,8,3.62,12.32t10.25,4.33a12.17,12.17,0,0,0,6-1.46,10.47,10.47,0,0,0,4.12-4.07,12.56,12.56,0,0,0,.18-11.48,9.64,9.64,0,0,0-3.55-3.85A9.46,9.46,0,0,0,51.44,69.83ZM49.28,85.45a3.77,3.77,0,0,1-2.92-1.25,5.23,5.23,0,0,1,0-6.47,3.77,3.77,0,0,1,2.94-1.22,3.73,3.73,0,0,1,2.94,1.2A4.8,4.8,0,0,1,53.28,81a4.72,4.72,0,0,1-1.09,3.24A3.68,3.68,0,0,1,49.28,85.45ZM76.11,49h0a3.53,3.53,0,0,0-3.52-3.52H26.36A3.52,3.52,0,0,0,22.84,49h0a3.51,3.51,0,0,0,3.52,3.52H72.59A3.52,3.52,0,0,0,76.11,49Z"/></svg>