<svg id="Layer_1" data-name="Layer 1" xmlns="http://www.w3.org/2000/svg" viewBox="0 0 100 100"><title>l23_1_1</title><path d="M83.52,100.08H16.45A16.46,16.46,0,0,1,0,83.62V16.55A16.47,16.47,0,0,1,16.45.08H83.52A16.48,16.48,0,0,1,100,16.55V83.62A16.47,16.47,0,0,1,83.52,100.08ZM33.44,10.58A13,13,0,0,0,27,12.15a11.38,11.38,0,0,0-4.45,4.39A12.78,12.78,0,0,0,21,22.92a12.75,12.75,0,0,0,1.4,6,10.51,10.51,0,0,0,3.83,4.17,10.29,10.29,0,0,0,5.49,1.5A9.91,9.91,0,0,0,36,33.66a8.07,8.07,0,0,0,3.12-2.57,13.55,13.55,0,0,1-1.9,6.63A4.88,4.88,0,0,1,33,40.08a6.82,6.82,0,0,1-2.34-.41c-.74-.27-1.67-.67-2.79-1.21l-1.12-.56c-.64-.34-1.15-.59-1.52-.74A3.38,3.38,0,0,0,24,36.93,2.71,2.71,0,0,0,21.79,38a4.12,4.12,0,0,0-.89,2.67,3.81,3.81,0,0,0,.38,1.78,4.49,4.49,0,0,0,1.25,1.37,16.24,16.24,0,0,0,5.1,2.54,19.68,19.68,0,0,0,5.81.91A13.7,13.7,0,0,0,41.34,45a14.77,14.77,0,0,0,5.23-6.52,24.58,24.58,0,0,0,1.85-9.93q0-8.62-3.91-13.3T33.44,10.58ZM34,27.38a4,4,0,0,1-3.17-1.29,5.15,5.15,0,0,1-1.14-3.53,5.13,5.13,0,0,1,1.16-3.5A4,4,0,0,1,34,17.74a4.07,4.07,0,0,1,3.15,1.34,5,5,0,0,1,1.22,3.48,5,5,0,0,1-1.19,3.5A4.06,4.06,0,0,1,34,27.38ZM65.18,47.29q6.66,0,10.16-4.72t3.5-13.66q0-8.89-3.53-13.61T65.18,10.58q-6.65,0-10.15,4.72T51.52,28.91q0,8.94,3.51,13.66T65.18,47.29Zm0-7.06a3.64,3.64,0,0,1-3.5-2.64q-1.07-2.64-1.07-8.68t1.07-8.66a3.65,3.65,0,0,1,7,0c.72,1.76,1.07,4.63,1.07,8.63s-.35,6.92-1.07,8.68A3.63,3.63,0,0,1,65.18,40.23ZM34.71,89.29q6.66,0,10.16-4.72t3.5-13.66q0-8.89-3.53-13.61T34.71,52.58q-6.64,0-10.15,4.72T21.05,70.91q0,8.94,3.51,13.66T34.71,89.29Zm0-7.06a3.64,3.64,0,0,1-3.5-2.64q-1.07-2.64-1.07-8.68t1.07-8.66a3.65,3.65,0,0,1,7,0c.71,1.76,1.06,4.63,1.06,8.63s-.35,6.92-1.06,8.68A3.64,3.64,0,0,1,34.71,82.23Zm30.47,7.06q6.66,0,10.16-4.72t3.5-13.66q0-8.89-3.53-13.61T65.18,52.58q-6.65,0-10.15,4.72T51.52,70.91q0,8.94,3.51,13.66T65.18,89.29Zm0-7.06a3.64,3.64,0,0,1-3.5-2.64q-1.07-2.64-1.07-8.68t1.07-8.66a3.65,3.65,0,0,1,7,0c.72,1.76,1.07,4.63,1.07,8.63s-.35,6.92-1.07,8.68A3.63,3.63,0,0,1,65.18,82.23Z"/></svg>