<svg id="Layer_1" data-name="Layer 1" xmlns="http://www.w3.org/2000/svg" viewBox="0 0 100 100"><title>23_3_1</title><path d="M83.67,100H16.6A16.46,16.46,0,0,1,.14,83.53V16.47A16.46,16.46,0,0,1,16.6,0H83.67a16.47,16.47,0,0,1,16.47,16.47V83.53A16.47,16.47,0,0,1,83.67,100ZM35.92,48.79a7.73,7.73,0,0,0,4-3,8.85,8.85,0,0,0,1.44-5.08,8.4,8.4,0,0,0-3.53-7.13Q34.3,31,28.2,31t-9.6,2.62a8.37,8.37,0,0,0-3.55,7.13,8.6,8.6,0,0,0,1.42,4.95,8.36,8.36,0,0,0,4.06,3.13,8.42,8.42,0,0,0-4.77,3,8.9,8.9,0,0,0-1.67,5.56,8.75,8.75,0,0,0,3.78,7.54q3.78,2.72,10.33,2.71t10.33-2.71a8.76,8.76,0,0,0,3.79-7.54,8.35,8.35,0,0,0-6.4-8.58ZM28.2,60.57q-5.53,0-5.53-4c0-2.64,1.84-4,5.53-4s5.54,1.33,5.54,4S31.89,60.57,28.2,60.57ZM28.2,38a5.42,5.42,0,0,1,3.4.89,3.43,3.43,0,0,1,1.12,2.87,3.5,3.5,0,0,1-1.12,2.89,5.29,5.29,0,0,1-3.4.92,5.29,5.29,0,0,1-3.4-.92,3.5,3.5,0,0,1-1.12-2.89,3.43,3.43,0,0,1,1.12-2.87A5.42,5.42,0,0,1,28.2,38Zm22.14,29.5a4.67,4.67,0,0,0,3.48-1.42,5.11,5.11,0,0,0,0-7,4.7,4.7,0,0,0-3.48-1.42,4.77,4.77,0,0,0-3.53,1.42,5.11,5.11,0,0,0,0,7A4.73,4.73,0,0,0,50.34,67.52ZM71.21,31a13.11,13.11,0,0,0-6.45,1.58,11.23,11.23,0,0,0-4.44,4.39,12.64,12.64,0,0,0-1.6,6.37,12.78,12.78,0,0,0,1.39,6A10.5,10.5,0,0,0,64,53.48,10.23,10.23,0,0,0,69.43,55,9.7,9.7,0,0,0,73.72,54a8,8,0,0,0,3.13-2.56,13.5,13.5,0,0,1-1.91,6.62,4.84,4.84,0,0,1-4.19,2.36,6.75,6.75,0,0,1-2.33-.4c-.75-.27-1.68-.68-2.8-1.22l-1.11-.56c-.65-.34-1.15-.58-1.53-.73a3.16,3.16,0,0,0-1.27-.23,2.68,2.68,0,0,0-2.15,1.09,4,4,0,0,0-.89,2.66,3.67,3.67,0,0,0,.38,1.78,4.34,4.34,0,0,0,1.24,1.37,16.09,16.09,0,0,0,5.11,2.54,19.65,19.65,0,0,0,5.81.92,13.82,13.82,0,0,0,7.9-2.29,14.83,14.83,0,0,0,5.23-6.52,24.75,24.75,0,0,0,1.85-9.93q0-8.64-3.91-13.31T71.21,31Zm.56,16.81a4,4,0,0,1-3.18-1.3A5.12,5.12,0,0,1,67.45,43a5.1,5.1,0,0,1,1.17-3.51,4,4,0,0,1,3.15-1.32,4.07,4.07,0,0,1,3.15,1.35A5,5,0,0,1,76.14,43a5,5,0,0,1-1.2,3.5A4.05,4.05,0,0,1,71.77,47.77Z"/></svg>