<svg id="Layer_1" data-name="Layer 1" xmlns="http://www.w3.org/2000/svg" viewBox="0 0 100 100"><title>23_3_1</title><path d="M83.53,100H16.47A16.47,16.47,0,0,1,0,83.53V16.47A16.47,16.47,0,0,1,16.47,0H83.53A16.47,16.47,0,0,1,100,16.47V83.53A16.47,16.47,0,0,1,83.53,100ZM35.73,48.79a7.73,7.73,0,0,0,4-3,8.85,8.85,0,0,0,1.44-5.08,8.4,8.4,0,0,0-3.52-7.13C35.28,31.83,32.08,31,28,31s-7.22.87-9.59,2.62a8.38,8.38,0,0,0-3.56,7.13,8.67,8.67,0,0,0,1.42,4.95,8.39,8.39,0,0,0,4.07,3.13,8.42,8.42,0,0,0-4.78,3,9,9,0,0,0-1.67,5.56,8.77,8.77,0,0,0,3.78,7.54Q21.46,67.63,28,67.62t10.34-2.71a8.77,8.77,0,0,0,3.78-7.54,8.86,8.86,0,0,0-1.65-5.46A8.77,8.77,0,0,0,35.73,48.79ZM28,60.57q-5.53,0-5.53-4c0-2.64,1.84-4,5.53-4s5.54,1.33,5.54,4S31.7,60.57,28,60.57ZM28,38a5.45,5.45,0,0,1,3.41.89,3.46,3.46,0,0,1,1.11,2.87,3.53,3.53,0,0,1-1.11,2.89,5.32,5.32,0,0,1-3.41.92,5.29,5.29,0,0,1-3.4-.92,3.53,3.53,0,0,1-1.12-2.89,3.46,3.46,0,0,1,1.12-2.87A5.42,5.42,0,0,1,28,38Zm22.14,29.5a4.67,4.67,0,0,0,3.48-1.42,5.09,5.09,0,0,0,0-7,4.7,4.7,0,0,0-3.48-1.42,4.77,4.77,0,0,0-3.53,1.42,5.11,5.11,0,0,0,0,7A4.73,4.73,0,0,0,50.15,67.52ZM74.78,43.81a12.69,12.69,0,0,0-5,.91V38.48h11q4.43,0,4.42-3.56t-4.42-3.5H65a4.3,4.3,0,0,0-3.2,1.12,4.4,4.4,0,0,0-1.12,3.25V49.55a2.78,2.78,0,0,0,1,2.21,3.55,3.55,0,0,0,2.39.83A4.86,4.86,0,0,0,66.3,52a18.23,18.23,0,0,1,2.92-.92A13.84,13.84,0,0,1,72,50.87a5.73,5.73,0,0,1,4,1.27,4.5,4.5,0,0,1,1.42,3.55A4.4,4.4,0,0,1,76,59.27a6.52,6.52,0,0,1-4.22,1.14A8.49,8.49,0,0,1,69,60a28.45,28.45,0,0,1-2.87-1.22l-1-.51a14.88,14.88,0,0,0-1.52-.76,3.35,3.35,0,0,0-1.27-.2,2.6,2.6,0,0,0-2.13,1.09A4.13,4.13,0,0,0,59.29,61a3.8,3.8,0,0,0,.38,1.75,4.41,4.41,0,0,0,1.2,1.4,16.59,16.59,0,0,0,5.2,2.54,21.14,21.14,0,0,0,6.17.91A16.42,16.42,0,0,0,79.5,66.1a11.35,11.35,0,0,0,4.88-4.32,12,12,0,0,0,1.72-6.44,12.27,12.27,0,0,0-1.44-6,10.37,10.37,0,0,0-4-4.06A11.69,11.69,0,0,0,74.78,43.81Z"/></svg>