<svg id="Layer_1" data-name="Layer 1" xmlns="http://www.w3.org/2000/svg" viewBox="0 0 100 100"><title>23_3_1</title><path d="M83.53,100H16.47A16.47,16.47,0,0,1,0,83.53V16.47A16.47,16.47,0,0,1,16.47,0H83.53A16.47,16.47,0,0,1,100,16.47V83.53A16.47,16.47,0,0,1,83.53,100ZM57,48.79a8.25,8.25,0,0,0,4-3.08,8.38,8.38,0,0,0,1.45-4.9,8.9,8.9,0,0,0-1.55-5.18,9.89,9.89,0,0,0-4.41-3.45A16.93,16.93,0,0,0,49.9,31a20.36,20.36,0,0,0-6,.92,16.64,16.64,0,0,0-5.15,2.54,4,4,0,0,0-1.22,1.37,3.87,3.87,0,0,0-.36,1.77A4.16,4.16,0,0,0,38,40.23a2.6,2.6,0,0,0,2.13,1.09,3.2,3.2,0,0,0,1.27-.23c.37-.15.88-.39,1.52-.73L44,39.85a27.56,27.56,0,0,1,2.77-1.22,7.7,7.7,0,0,1,2.66-.46,4.4,4.4,0,0,1,3.1,1,3.83,3.83,0,0,1,1.12,2.92,2.85,2.85,0,0,1-1.27,2.59,7.7,7.7,0,0,1-4.07.82H46.09A2.91,2.91,0,0,0,43.7,46.6a4.18,4.18,0,0,0,0,5.08,2.91,2.91,0,0,0,2.39,1.07h3.15a7.57,7.57,0,0,1,4.16.86,3.18,3.18,0,0,1,1.27,2.84,3.52,3.52,0,0,1-1.24,3,7,7,0,0,1-4.09.91A9.15,9.15,0,0,1,46.42,60a23.19,23.19,0,0,1-2.92-1.24l-.63-.28-.49-.23c-.64-.34-1.15-.58-1.52-.74a3.38,3.38,0,0,0-1.27-.22,2.6,2.6,0,0,0-2.13,1.09A4.13,4.13,0,0,0,36.59,61a3.58,3.58,0,0,0,1.58,3.15,16.44,16.44,0,0,0,5.28,2.57,22.65,22.65,0,0,0,6.35.88A19,19,0,0,0,57,66.38a10.72,10.72,0,0,0,4.75-3.53,8.83,8.83,0,0,0,1.68-5.38,9,9,0,0,0-1.71-5.54A8.61,8.61,0,0,0,57,48.79Z"/></svg>