<svg id="Layer_1" data-name="Layer 1" xmlns="http://www.w3.org/2000/svg" viewBox="0 0 100 100"><title>23_3_1</title><path d="M83.53,100H16.47A16.47,16.47,0,0,1,0,83.53V16.47A16.47,16.47,0,0,1,16.47,0H83.53A16.47,16.47,0,0,1,100,16.47V83.53A16.47,16.47,0,0,1,83.53,100ZM39.16,54.07H38V35.74a4.35,4.35,0,0,0-1.37-3.41,4.79,4.79,0,0,0-3.3-1.22,5,5,0,0,0-2.26.54,4.56,4.56,0,0,0-1.8,1.55L14.79,53.91a5.67,5.67,0,0,0-1.12,3.36,3.9,3.9,0,0,0,1.06,2.79,3.85,3.85,0,0,0,2.9,1.11H29V62.9a4.5,4.5,0,0,0,1.25,3.45,4.58,4.58,0,0,0,3.27,1.17,4.66,4.66,0,0,0,3.3-1.17A4.43,4.43,0,0,0,38,62.9V61.17h1.12c2.94,0,4.42-1.2,4.42-3.6S42.1,54.07,39.16,54.07Zm-16.3,0L29,45.28v8.79ZM50.38,67.52a4.67,4.67,0,0,0,3.48-1.42,5.09,5.09,0,0,0,0-7,4.7,4.7,0,0,0-3.48-1.42,4.77,4.77,0,0,0-3.53,1.42,5.11,5.11,0,0,0,0,7A4.73,4.73,0,0,0,50.38,67.52ZM75,43.81a12.69,12.69,0,0,0-5,.91V38.48H81c2.94,0,4.42-1.19,4.42-3.56s-1.48-3.5-4.42-3.5H65.21A4.3,4.3,0,0,0,62,32.54a4.36,4.36,0,0,0-1.12,3.25V49.55a2.78,2.78,0,0,0,1,2.21,3.54,3.54,0,0,0,2.38.83A4.87,4.87,0,0,0,66.53,52a18.23,18.23,0,0,1,2.92-.92,13.84,13.84,0,0,1,2.77-.25,5.73,5.73,0,0,1,4,1.27,4.53,4.53,0,0,1,1.42,3.55,4.4,4.4,0,0,1-1.37,3.58A6.52,6.52,0,0,1,72,60.41,8.59,8.59,0,0,1,69.19,60a29.45,29.45,0,0,1-2.87-1.22l-1-.51a16,16,0,0,0-1.52-.76,3.39,3.39,0,0,0-1.27-.2,2.63,2.63,0,0,0-2.14,1.09A4.18,4.18,0,0,0,59.52,61a3.8,3.8,0,0,0,.38,1.75,4.41,4.41,0,0,0,1.2,1.4,16.81,16.81,0,0,0,5.2,2.54,21.14,21.14,0,0,0,6.17.91,16.42,16.42,0,0,0,7.26-1.52,11.33,11.33,0,0,0,4.87-4.32,11.92,11.92,0,0,0,1.73-6.44,12.16,12.16,0,0,0-1.45-6,10.24,10.24,0,0,0-4-4.06A11.66,11.66,0,0,0,75,43.81Z"/></svg>