<svg id="Layer_1" data-name="Layer 1" xmlns="http://www.w3.org/2000/svg" viewBox="0 0 100 100"><title>23_3_1</title><path d="M83.53,100H16.47A16.47,16.47,0,0,1,0,83.53V16.47A16.47,16.47,0,0,1,16.47,0H83.53A16.47,16.47,0,0,1,100,16.47V83.53A16.47,16.47,0,0,1,83.53,100ZM30.1,43.66a9.78,9.78,0,0,0-4.3.94,8,8,0,0,0-3.12,2.56,13.47,13.47,0,0,1,1.91-6.63,4.85,4.85,0,0,1,4.18-2.36,6.78,6.78,0,0,1,2.34.41c.74.27,1.68.68,2.79,1.22l1.12.56c.64.34,1.15.58,1.52.73a3.42,3.42,0,0,0,1.27.23A2.68,2.68,0,0,0,40,40.23a4.12,4.12,0,0,0,.89-2.67,3.74,3.74,0,0,0-.38-1.77,4.39,4.39,0,0,0-1.25-1.38,16.23,16.23,0,0,0-5.1-2.53A19.7,19.7,0,0,0,28.32,31a13.7,13.7,0,0,0-7.9,2.29,14.83,14.83,0,0,0-5.23,6.52,24.75,24.75,0,0,0-1.85,9.93q0,8.63,3.91,13.3t11.07,4.67a13.11,13.11,0,0,0,6.45-1.57,11.36,11.36,0,0,0,4.44-4.39,12.64,12.64,0,0,0,1.6-6.37,12.79,12.79,0,0,0-1.4-6,10.51,10.51,0,0,0-3.83-4.17A10.34,10.34,0,0,0,30.1,43.66ZM27.76,60.51a4,4,0,0,1-3.15-1.34,5.64,5.64,0,0,1,0-7,4.05,4.05,0,0,1,3.17-1.32,4,4,0,0,1,3.17,1.29,5.17,5.17,0,0,1,1.15,3.53,5.11,5.11,0,0,1-1.17,3.51A4,4,0,0,1,27.76,60.51Zm21.43,7a4.68,4.68,0,0,0,3.48-1.42,5.11,5.11,0,0,0,0-7,4.72,4.72,0,0,0-3.48-1.42,4.77,4.77,0,0,0-3.53,1.42,5.09,5.09,0,0,0,0,7A4.73,4.73,0,0,0,49.19,67.52ZM82.24,54.07H81.13V35.74a4.35,4.35,0,0,0-1.37-3.41,4.83,4.83,0,0,0-3.3-1.22,5,5,0,0,0-2.26.54,4.66,4.66,0,0,0-1.81,1.55L57.87,53.91a5.74,5.74,0,0,0-1.12,3.36,3.91,3.91,0,0,0,1.07,2.79,3.83,3.83,0,0,0,2.89,1.11H72V62.9a4.49,4.49,0,0,0,1.24,3.45,4.59,4.59,0,0,0,3.28,1.17,4.69,4.69,0,0,0,3.3-1.17,4.47,4.47,0,0,0,1.27-3.45V61.17h1.11q4.42,0,4.42-3.6C86.66,55.23,85.19,54.07,82.24,54.07Zm-16.3,0L72,45.28v8.79Z"/></svg>