<svg id="Layer_1" data-name="Layer 1" xmlns="http://www.w3.org/2000/svg" viewBox="0 0 100 100"><title>l23_1_1</title><path d="M83.35,100H16.29A16.47,16.47,0,0,1-.18,83.53V16.47A16.47,16.47,0,0,1,16.29,0H83.35A16.47,16.47,0,0,1,99.82,16.47V83.53A16.47,16.47,0,0,1,83.35,100ZM41.19,48.79a8.27,8.27,0,0,0,4-3.08,8.44,8.44,0,0,0,1.44-4.9,8.89,8.89,0,0,0-1.54-5.18,10,10,0,0,0-4.42-3.45A16.9,16.9,0,0,0,34.08,31a20.36,20.36,0,0,0-6,.92,16.75,16.75,0,0,0-5.15,2.54,4,4,0,0,0-1.22,1.37,3.88,3.88,0,0,0-.35,1.77,4.15,4.15,0,0,0,.86,2.67,2.61,2.61,0,0,0,2.13,1.09,3.16,3.16,0,0,0,1.27-.23c.37-.15.88-.39,1.53-.73l1.06-.51A28.59,28.59,0,0,1,31,38.63a7.78,7.78,0,0,1,2.66-.46,4.38,4.38,0,0,1,3.1,1,3.79,3.79,0,0,1,1.12,2.92,2.83,2.83,0,0,1-1.27,2.59,7.69,7.69,0,0,1-4.06.82H30.27a2.89,2.89,0,0,0-2.38,1.06,4.14,4.14,0,0,0,0,5.08,2.89,2.89,0,0,0,2.38,1.07h3.15a7.57,7.57,0,0,1,4.16.86,3.18,3.18,0,0,1,1.27,2.84,3.52,3.52,0,0,1-1.24,3,7,7,0,0,1-4.09.91A9.19,9.19,0,0,1,30.6,60a23.82,23.82,0,0,1-2.92-1.24l-.63-.28-.48-.23c-.65-.34-1.15-.58-1.53-.74a3.35,3.35,0,0,0-1.27-.22,2.63,2.63,0,0,0-2.13,1.09A4.12,4.12,0,0,0,20.78,61a4.08,4.08,0,0,0,.35,1.75,4,4,0,0,0,1.22,1.4,16.44,16.44,0,0,0,5.28,2.57,22.65,22.65,0,0,0,6.35.88,19.09,19.09,0,0,0,7.19-1.24,10.75,10.75,0,0,0,4.74-3.53,8.83,8.83,0,0,0,1.68-5.38,9.05,9.05,0,0,0-1.7-5.54A8.63,8.63,0,0,0,41.19,48.79Zm24,18.89q6.65,0,10.15-4.73t3.51-13.66q0-8.88-3.53-13.6T65.21,31q-6.66,0-10.16,4.73t-3.5,13.6q0,8.94,3.5,13.66T65.21,67.68Zm0-7.06A3.65,3.65,0,0,1,61.7,58q-1.06-2.64-1.06-8.69c0-4,.35-6.91,1.06-8.65a3.65,3.65,0,0,1,7,0q1.07,2.64,1.07,8.63T68.71,58A3.64,3.64,0,0,1,65.21,60.62Z"/></svg>