<svg id="Layer_1" data-name="Layer 1" xmlns="http://www.w3.org/2000/svg" viewBox="0 0 100 100"><title>23_3_1</title><path d="M83.67,100H16.6A16.46,16.46,0,0,1,.14,83.53V16.47A16.46,16.46,0,0,1,16.6,0H83.67a16.47,16.47,0,0,1,16.47,16.47V83.53A16.47,16.47,0,0,1,83.67,100ZM39.35,54.07H38.23V35.74a4.35,4.35,0,0,0-1.37-3.41,4.83,4.83,0,0,0-3.3-1.22,5,5,0,0,0-2.26.54,4.56,4.56,0,0,0-1.8,1.55L15,53.91a5.73,5.73,0,0,0-1.11,3.36,3.9,3.9,0,0,0,1.06,2.79,3.83,3.83,0,0,0,2.9,1.11H29.14V62.9a4.49,4.49,0,0,0,1.24,3.45,4.61,4.61,0,0,0,3.28,1.17A4.69,4.69,0,0,0,37,66.35a4.43,4.43,0,0,0,1.27-3.45V61.17h1.12q4.41,0,4.41-3.6C43.76,55.23,42.29,54.07,39.35,54.07Zm-16.3,0,6.09-8.79v8.79ZM50.57,67.52a4.67,4.67,0,0,0,3.48-1.42,5.11,5.11,0,0,0,0-7,4.7,4.7,0,0,0-3.48-1.42A4.77,4.77,0,0,0,47,59.09a5.09,5.09,0,0,0,0,7A4.73,4.73,0,0,0,50.57,67.52ZM71.44,31A13.06,13.06,0,0,0,65,32.54a11.23,11.23,0,0,0-4.44,4.39A12.64,12.64,0,0,0,59,43.3a12.78,12.78,0,0,0,1.39,6,10.43,10.43,0,0,0,3.84,4.16A10.23,10.23,0,0,0,69.66,55,9.7,9.7,0,0,0,74,54a8,8,0,0,0,3.12-2.56,13.4,13.4,0,0,1-1.9,6.62A4.85,4.85,0,0,1,71,60.46a6.75,6.75,0,0,1-2.33-.4c-.75-.27-1.68-.68-2.8-1.22l-1.11-.56c-.65-.34-1.16-.58-1.53-.73a3.16,3.16,0,0,0-1.27-.23,2.71,2.71,0,0,0-2.16,1.09,4.08,4.08,0,0,0-.88,2.66,3.67,3.67,0,0,0,.38,1.78,4.22,4.22,0,0,0,1.24,1.37,16,16,0,0,0,5.1,2.54,19.7,19.7,0,0,0,5.82.91,13.76,13.76,0,0,0,7.89-2.28,14.69,14.69,0,0,0,5.23-6.52,24.57,24.57,0,0,0,1.86-9.93q0-8.64-3.91-13.31T71.44,31ZM72,47.77a4,4,0,0,1-3.18-1.3A5.12,5.12,0,0,1,67.68,43a5.1,5.1,0,0,1,1.17-3.51A4,4,0,0,1,72,38.12a4.07,4.07,0,0,1,3.15,1.35A5,5,0,0,1,76.36,43a5,5,0,0,1-1.19,3.5A4.07,4.07,0,0,1,72,47.77Z"/></svg>