<svg id="Layer_1" data-name="Layer 1" xmlns="http://www.w3.org/2000/svg" viewBox="0 0 100 100"><title>l23_2_1</title><path d="M83.52,100H16.45A16.46,16.46,0,0,1,0,83.55V16.49A16.46,16.46,0,0,1,16.45,0H83.52A16.47,16.47,0,0,1,100,16.49V83.55A16.47,16.47,0,0,1,83.52,100ZM22.57,43.68a9.7,9.7,0,0,0-4.29.94,8,8,0,0,0-3.13,2.56,13.5,13.5,0,0,1,1.91-6.62,4.85,4.85,0,0,1,4.19-2.37,6.76,6.76,0,0,1,2.33.41c.75.27,1.68.68,2.8,1.22l1.11.56c.65.34,1.15.58,1.53.73a3.15,3.15,0,0,0,1.26.23,2.68,2.68,0,0,0,2.16-1.09,4.12,4.12,0,0,0,.89-2.67A3.74,3.74,0,0,0,33,35.81a4.34,4.34,0,0,0-1.24-1.37A16.19,16.19,0,0,0,26.6,31.9,19.65,19.65,0,0,0,20.79,31a13.8,13.8,0,0,0-7.9,2.29,14.83,14.83,0,0,0-5.23,6.52,24.75,24.75,0,0,0-1.85,9.93q0,8.64,3.91,13.3T20.79,67.7a13.11,13.11,0,0,0,6.45-1.58,11.36,11.36,0,0,0,4.44-4.39,13.56,13.56,0,0,0,.2-12.39,10.34,10.34,0,0,0-3.83-4.16A10.23,10.23,0,0,0,22.57,43.68ZM20.23,60.54a4.06,4.06,0,0,1-3.15-1.35,5.64,5.64,0,0,1,0-7,4.05,4.05,0,0,1,3.17-1.32,4,4,0,0,1,3.17,1.29,5.92,5.92,0,0,1,0,7A4,4,0,0,1,20.23,60.54ZM50,67.7q6.65,0,10.15-4.73t3.51-13.66q0-8.88-3.53-13.6T50,31q-6.66,0-10.16,4.73t-3.5,13.6q0,8.94,3.5,13.66T50,67.7Zm0-7.06A3.64,3.64,0,0,1,46.48,58q-1.06-2.64-1.06-8.69c0-4,.35-6.91,1.06-8.65a3.65,3.65,0,0,1,7,0q1.07,2.64,1.07,8.63T53.49,58A3.64,3.64,0,0,1,50,60.64ZM80.45,67.7q6.66,0,10.16-4.73t3.5-13.66q0-8.88-3.53-13.6T80.45,31Q73.8,31,70.3,35.71t-3.51,13.6q0,8.94,3.51,13.66T80.45,67.7Zm0-7.06A3.64,3.64,0,0,1,77,58q-1.07-2.64-1.07-8.69c0-4,.36-6.91,1.07-8.65a3.65,3.65,0,0,1,7,0Q85,43.32,85,49.31T84,58A3.64,3.64,0,0,1,80.45,60.64Z"/></svg>