<svg id="Layer_1" data-name="Layer 1" xmlns="http://www.w3.org/2000/svg" viewBox="0 0 100 100"><title>l23_2_1</title><path d="M83.52,100.11H16.46A16.47,16.47,0,0,1,0,83.64V16.57A16.46,16.46,0,0,1,16.46.11H83.52A16.46,16.46,0,0,1,100,16.57V83.64A16.47,16.47,0,0,1,83.52,100.11ZM41.36,28.42a8.23,8.23,0,0,0,4-3.07,8.42,8.42,0,0,0,1.45-4.9,8.9,8.9,0,0,0-1.55-5.18,9.86,9.86,0,0,0-4.42-3.45,16.67,16.67,0,0,0-6.62-1.22,20.35,20.35,0,0,0-6,.91,16.86,16.86,0,0,0-5.15,2.54,4,4,0,0,0-1.22,1.37,4,4,0,0,0-.36,1.78,4.16,4.16,0,0,0,.87,2.67A2.63,2.63,0,0,0,24.5,21a3.38,3.38,0,0,0,1.27-.23c.37-.15.88-.4,1.52-.74l1.07-.51a27.22,27.22,0,0,1,2.76-1.21,7.57,7.57,0,0,1,2.67-.46,4.4,4.4,0,0,1,3.1,1A3.81,3.81,0,0,1,38,21.77a2.87,2.87,0,0,1-1.27,2.59,7.82,7.82,0,0,1-4.07.81H30.44a2.91,2.91,0,0,0-2.39,1.07,4.18,4.18,0,0,0,0,5.08,2.91,2.91,0,0,0,2.39,1.06h3.15a7.56,7.56,0,0,1,4.16.87A3.17,3.17,0,0,1,39,36.09a3.54,3.54,0,0,1-1.24,3,7.15,7.15,0,0,1-4.09.91,9.15,9.15,0,0,1-2.92-.43,22,22,0,0,1-2.92-1.25l-.63-.27-.49-.23c-.64-.34-1.15-.59-1.52-.74a3.38,3.38,0,0,0-1.27-.23A2.63,2.63,0,0,0,21.81,38a4.16,4.16,0,0,0-.87,2.67,3.93,3.93,0,0,0,.36,1.75,4,4,0,0,0,1.22,1.4,16.43,16.43,0,0,0,5.28,2.56,22.66,22.66,0,0,0,6.35.89A19,19,0,0,0,41.33,46a10.72,10.72,0,0,0,4.75-3.53,8.85,8.85,0,0,0,1.67-5.38,9,9,0,0,0-1.7-5.54A8.68,8.68,0,0,0,41.36,28.42Zm24,18.89q6.66,0,10.16-4.72T79,28.93q0-8.88-3.53-13.61T65.37,10.6q-6.65,0-10.15,4.72t-3.5,13.61q0,8.94,3.5,13.66T65.37,47.31Zm0-7.06a3.64,3.64,0,0,1-3.5-2.64Q60.8,35,60.8,28.93c0-4,.36-6.91,1.07-8.66a3.65,3.65,0,0,1,7,0q1.07,2.64,1.07,8.63t-1.07,8.68A3.64,3.64,0,0,1,65.37,40.25ZM34.91,89.31q6.65,0,10.15-4.72t3.51-13.66q0-8.88-3.53-13.61T34.91,52.6q-6.66,0-10.16,4.72t-3.5,13.61q0,8.94,3.5,13.66T34.91,89.31Zm0-7.06a3.65,3.65,0,0,1-3.51-2.64Q30.34,77,30.34,70.93c0-4,.35-6.91,1.06-8.66a3.65,3.65,0,0,1,7,0q1.06,2.64,1.07,8.63t-1.07,8.68A3.64,3.64,0,0,1,34.91,82.25Zm30.46,7.06q6.66,0,10.16-4.72T79,70.93q0-8.88-3.53-13.61T65.37,52.6q-6.65,0-10.15,4.72t-3.5,13.61q0,8.94,3.5,13.66T65.37,89.31Zm0-7.06a3.64,3.64,0,0,1-3.5-2.64Q60.8,77,60.8,70.93c0-4,.36-6.91,1.07-8.66a3.65,3.65,0,0,1,7,0q1.07,2.64,1.07,8.63t-1.07,8.68A3.64,3.64,0,0,1,65.37,82.25Z"/></svg>