<svg id="Layer_1" data-name="Layer 1" xmlns="http://www.w3.org/2000/svg" viewBox="0 0 100 100"><title>l23_2_1</title><path d="M83.43,100H16.36A16.46,16.46,0,0,1-.1,83.53V16.47A16.46,16.46,0,0,1,16.36,0H83.43A16.47,16.47,0,0,1,99.9,16.47V83.53A16.47,16.47,0,0,1,83.43,100ZM42.61,48.78a7.66,7.66,0,0,0,4-3A8.87,8.87,0,0,0,48,40.71a8.38,8.38,0,0,0-3.53-7.13Q41,31,34.89,31t-9.6,2.62a8.37,8.37,0,0,0-3.55,7.13,8.6,8.6,0,0,0,1.42,4.95,8.29,8.29,0,0,0,4.06,3.12,8.49,8.49,0,0,0-4.77,3,8.9,8.9,0,0,0-1.67,5.56,8.77,8.77,0,0,0,3.78,7.54q3.78,2.72,10.33,2.71t10.33-2.71A8.76,8.76,0,0,0,49,57.37a8.37,8.37,0,0,0-6.4-8.59ZM34.89,60.56c-3.69,0-5.53-1.31-5.53-4s1.84-4,5.53-4,5.54,1.32,5.54,4S38.58,60.56,34.89,60.56Zm0-22.54a5.42,5.42,0,0,1,3.4.89,3.43,3.43,0,0,1,1.12,2.87,3.5,3.5,0,0,1-1.12,2.89,5.29,5.29,0,0,1-3.4.92,5.29,5.29,0,0,1-3.4-.92,3.5,3.5,0,0,1-1.12-2.89,3.43,3.43,0,0,1,1.12-2.87A5.42,5.42,0,0,1,34.89,38ZM65.36,67.67Q72,67.67,75.51,63T79,49.29q0-8.88-3.53-13.61T65.36,31Q58.7,31,55.2,35.68T51.7,49.29q0,8.94,3.5,13.66T65.36,67.67Zm0-7.05A3.65,3.65,0,0,1,61.85,58q-1.07-2.64-1.06-8.69t1.06-8.65a3.65,3.65,0,0,1,7,0q1.06,2.64,1.07,8.63T68.86,58A3.64,3.64,0,0,1,65.36,60.62Z"/></svg>