<svg id="Layer_1" data-name="Layer 1" xmlns="http://www.w3.org/2000/svg" viewBox="0 0 100 100"><title>l23_4_1</title><path d="M83.53,100H16.47A16.47,16.47,0,0,1,0,83.53V16.47A16.47,16.47,0,0,1,16.47,0H83.53A16.47,16.47,0,0,1,100,16.47V83.53A16.47,16.47,0,0,1,83.53,100ZM57.24,34.09H47.78l6.68-6.82A22.1,22.1,0,0,0,58.39,22a11.81,11.81,0,0,0,1.16-5.24,8.6,8.6,0,0,0-1.44-4.92A9.19,9.19,0,0,0,54,8.51a15.32,15.32,0,0,0-6.12-1.15,18.18,18.18,0,0,0-5.43.85,18.36,18.36,0,0,0-5,2.35,3.19,3.19,0,0,0-1.15,1.22,4.14,4.14,0,0,0-.3,1.7A4.09,4.09,0,0,0,36.86,16a2.42,2.42,0,0,0,2,1.05,2.73,2.73,0,0,0,.9-.14,5.55,5.55,0,0,0,1-.44c.36-.21.6-.34.73-.4l.94-.47A21.81,21.81,0,0,1,45,14.44a7.83,7.83,0,0,1,2.52-.4,3.68,3.68,0,0,1,2.61.85,3.17,3.17,0,0,1,.92,2.45q0,2.73-3.11,6L38,33.71a5.18,5.18,0,0,0-1.6,3.67,3.53,3.53,0,0,0,1,2.57,3.6,3.6,0,0,0,2.68,1H57.24a4.68,4.68,0,0,0,3.08-.85,3.21,3.21,0,0,0,1-2.63,3.11,3.11,0,0,0-1-2.57A4.8,4.8,0,0,0,57.24,34.09Zm-5.8,35.74a9,9,0,0,0-4,.87,7.48,7.48,0,0,0-2.9,2.37,12.45,12.45,0,0,1,1.77-6.13,4.5,4.5,0,0,1,3.88-2.19,6.29,6.29,0,0,1,2.16.37A28.24,28.24,0,0,1,55,66.25l1,.52c.59.31,1.06.54,1.41.68a3.05,3.05,0,0,0,1.17.21,2.47,2.47,0,0,0,2-1,3.77,3.77,0,0,0,.82-2.47,3.38,3.38,0,0,0-.35-1.64,4,4,0,0,0-1.15-1.27,15,15,0,0,0-4.73-2.36,18.38,18.38,0,0,0-5.39-.84,12.74,12.74,0,0,0-7.31,2.11,13.77,13.77,0,0,0-4.85,6.05,22.89,22.89,0,0,0-1.71,9.2q0,8,3.62,12.32t10.25,4.33a12.17,12.17,0,0,0,6-1.46,10.47,10.47,0,0,0,4.12-4.07,12.56,12.56,0,0,0,.18-11.48,9.64,9.64,0,0,0-3.55-3.85A9.46,9.46,0,0,0,51.44,69.83ZM49.28,85.45a3.77,3.77,0,0,1-2.92-1.25,5.23,5.23,0,0,1,0-6.47,3.77,3.77,0,0,1,2.94-1.22,3.73,3.73,0,0,1,2.94,1.2A4.8,4.8,0,0,1,53.28,81a4.71,4.71,0,0,1-1.08,3.24A3.71,3.71,0,0,1,49.28,85.45ZM76.11,49h0a3.53,3.53,0,0,0-3.52-3.52H26.36A3.52,3.52,0,0,0,22.84,49h0a3.51,3.51,0,0,0,3.52,3.52H72.59A3.52,3.52,0,0,0,76.11,49Z"/></svg>