<svg id="Layer_1" data-name="Layer 1" xmlns="http://www.w3.org/2000/svg" viewBox="0 0 150 100"><title>s23_1</title><path d="M108.59,100H41.52A16.46,16.46,0,0,1,25.06,83.53V16.47A16.46,16.46,0,0,1,41.52,0h67.07a16.47,16.47,0,0,1,16.47,16.47V83.53A16.47,16.47,0,0,1,108.59,100Zm-6.71-58.6H83.61V23.13a8.56,8.56,0,1,0-17.11,0V41.4H48.23A8.4,8.4,0,0,0,39.68,50a8.53,8.53,0,0,0,2.46,6.17,8.17,8.17,0,0,0,6.09,2.53H66.5V76.78a8.67,8.67,0,0,0,14.72,6.09,8.37,8.37,0,0,0,2.39-6.09V58.65h18.27A8.14,8.14,0,0,0,108,56.12,8.5,8.5,0,0,0,110.44,50a8.42,8.42,0,0,0-8.56-8.55Z"/></svg>