<svg id="Layer_1" data-name="Layer 1" xmlns="http://www.w3.org/2000/svg" viewBox="0 0 100 100"><title>l19_2_1</title><path d="M100,51.06a50,50,0,1,1-50-50A50,50,0,0,1,100,51.06ZM52.51,18.89a10.64,10.64,0,0,0-4.25.78V14.38h9.28c2.5,0,3.75-1,3.75-3s-1.25-3-3.75-3H44.21a3.65,3.65,0,0,0-2.7.94,3.72,3.72,0,0,0-.95,2.76V23.75a2.34,2.34,0,0,0,.82,1.87,3,3,0,0,0,2,.71,4.14,4.14,0,0,0,1.93-.47,15.2,15.2,0,0,1,2.48-.78,12,12,0,0,1,2.34-.21,4.88,4.88,0,0,1,3.35,1.07,3.84,3.84,0,0,1,1.21,3,3.72,3.72,0,0,1-1.16,3A5.49,5.49,0,0,1,50,33a7.09,7.09,0,0,1-2.39-.39,22.41,22.41,0,0,1-2.43-1l-.86-.43A12.25,12.25,0,0,0,43,30.46a2.79,2.79,0,0,0-1.07-.17,2.21,2.21,0,0,0-1.81.92,3.52,3.52,0,0,0-.73,2.26A3.23,3.23,0,0,0,39.72,35a3.77,3.77,0,0,0,1,1.18,14,14,0,0,0,4.41,2.15,17.8,17.8,0,0,0,5.22.78,13.91,13.91,0,0,0,6.15-1.29,9.63,9.63,0,0,0,4.13-3.66,10.09,10.09,0,0,0,1.46-5.46,10.39,10.39,0,0,0-1.22-5.09,8.66,8.66,0,0,0-3.4-3.44A9.9,9.9,0,0,0,52.51,18.89ZM46.38,82.43H42.86V62.05a3.75,3.75,0,0,0-1.06-2.79,3.79,3.79,0,0,0-2.77-1,7.24,7.24,0,0,0-3.57,1.08l-6.88,4A2.93,2.93,0,0,0,27.07,66a3.63,3.63,0,0,0,.86,2.35,2.61,2.61,0,0,0,2.07,1,2.88,2.88,0,0,0,1.5-.43l3.44-2V82.43H31.46a4.28,4.28,0,0,0-2.84.78,2.89,2.89,0,0,0-.9,2.32q0,3.18,3.74,3.18H46.38q3.73,0,3.74-3.18a2.89,2.89,0,0,0-.9-2.32A4.28,4.28,0,0,0,46.38,82.43ZM63.07,89.1a10,10,0,0,0,8.6-4q3-4,3-11.57c0-5-1-8.86-3-11.52a10,10,0,0,0-8.57-4q-5.64,0-8.61,4c-2,2.66-3,6.51-3,11.52s1,8.9,3,11.57S59.31,89.1,63.07,89.1Zm0-6a3.07,3.07,0,0,1-3-2.23,21.52,21.52,0,0,1-.9-7.36,21.28,21.28,0,0,1,.9-7.33,3.09,3.09,0,0,1,5.93,0,21.31,21.31,0,0,1,.9,7.31,21.52,21.52,0,0,1-.9,7.36A3.07,3.07,0,0,1,63.07,83.12Zm7.18-34h0a3,3,0,0,0-3-3H31.55a3,3,0,0,0-3,3h0a3,3,0,0,0,3,3H67.23A3,3,0,0,0,70.25,49.1Z"/></svg>