<svg id="Layer_1" data-name="Layer 1" xmlns="http://www.w3.org/2000/svg" viewBox="0 0 100 100"><title>l19_2_1</title><path d="M100,50A50,50,0,1,1,50,0,50,50,0,0,1,100,50ZM59.52,31.38H56V11A3.71,3.71,0,0,0,54.94,8.2a3.77,3.77,0,0,0-2.77-1A7.32,7.32,0,0,0,48.6,8.24l-6.88,4a2.92,2.92,0,0,0-1.5,2.67,3.57,3.57,0,0,0,.86,2.34,2.58,2.58,0,0,0,2.06,1.05,2.85,2.85,0,0,0,1.5-.43l3.44-2V31.38H44.6a4.3,4.3,0,0,0-2.84.77,2.9,2.9,0,0,0-.9,2.32q0,3.18,3.74,3.18H59.52c2.5,0,3.74-1.06,3.74-3.18a2.9,2.9,0,0,0-.9-2.32A4.28,4.28,0,0,0,59.52,31.38ZM52.75,67.7a8.33,8.33,0,0,0-3.64.8,6.81,6.81,0,0,0-2.64,2.17,11.42,11.42,0,0,1,1.61-5.61,4.1,4.1,0,0,1,3.55-2,5.77,5.77,0,0,1,2,.34c.63.23,1.41.57,2.36,1l1,.48c.54.28,1,.49,1.29.62a2.76,2.76,0,0,0,1.07.19,2.26,2.26,0,0,0,1.83-.92,3.48,3.48,0,0,0,.75-2.26,3.2,3.2,0,0,0-.32-1.5,3.88,3.88,0,0,0-1-1.17,14,14,0,0,0-4.33-2.15A16.8,16.8,0,0,0,51.24,57a11.67,11.67,0,0,0-6.69,1.94,12.6,12.6,0,0,0-4.43,5.52,21,21,0,0,0-1.56,8.41q0,7.31,3.31,11.26t9.37,4a11,11,0,0,0,5.46-1.33A9.54,9.54,0,0,0,60.46,83a10.67,10.67,0,0,0,1.36-5.4,10.88,10.88,0,0,0-1.18-5.09A8.81,8.81,0,0,0,57.39,69,8.65,8.65,0,0,0,52.75,67.7ZM50.77,82a3.44,3.44,0,0,1-2.67-1.14,4.79,4.79,0,0,1,0-5.91,3.43,3.43,0,0,1,2.69-1.12,3.38,3.38,0,0,1,2.68,1.09,5,5,0,0,1,0,6A3.38,3.38,0,0,1,50.77,82ZM70.25,48h0a3,3,0,0,0-3-3H31.55a3,3,0,0,0-3,3h0a3,3,0,0,0,3,3H67.23A3,3,0,0,0,70.25,48Z"/></svg>