<svg id="Layer_1" data-name="Layer 1" xmlns="http://www.w3.org/2000/svg" viewBox="0 0 100 100"><title>l19_1_1</title><path d="M100,50A50,50,0,1,1,50,0,50,50,0,0,1,100,50ZM59.52,31.38H56V11A3.71,3.71,0,0,0,54.94,8.2a3.77,3.77,0,0,0-2.77-1A7.32,7.32,0,0,0,48.6,8.24l-6.88,4a2.92,2.92,0,0,0-1.5,2.67,3.57,3.57,0,0,0,.86,2.34,2.59,2.59,0,0,0,2.06,1.06,2.87,2.87,0,0,0,1.5-.44l3.45-2V31.38H44.6a4.36,4.36,0,0,0-2.84.77,2.9,2.9,0,0,0-.9,2.32q0,3.18,3.74,3.18H59.52c2.5,0,3.74-1.06,3.74-3.18a2.9,2.9,0,0,0-.9-2.32A4.34,4.34,0,0,0,59.52,31.38ZM55.63,72A6.9,6.9,0,0,0,59,69.44a7.13,7.13,0,0,0,1.23-4.15A7.52,7.52,0,0,0,59,60.91,8.47,8.47,0,0,0,55.22,58a14.21,14.21,0,0,0-5.61-1,17.16,17.16,0,0,0-5.1.78,14.2,14.2,0,0,0-4.36,2.14,3.47,3.47,0,0,0-1,1.17,3.34,3.34,0,0,0-.3,1.5,3.58,3.58,0,0,0,.73,2.26,2.21,2.21,0,0,0,1.81.92,2.85,2.85,0,0,0,1.08-.19c.31-.13.74-.34,1.29-.62l.9-.43a24.11,24.11,0,0,1,2.34-1,6.7,6.7,0,0,1,2.26-.38,3.68,3.68,0,0,1,2.62.88,3.22,3.22,0,0,1,.95,2.47,2.4,2.4,0,0,1-1.08,2.19,6.54,6.54,0,0,1-3.44.69H46.38a2.46,2.46,0,0,0-2,.9,3.32,3.32,0,0,0-.73,2.16,3.27,3.27,0,0,0,.73,2.14,2.44,2.44,0,0,0,2,.91h2.67a6.41,6.41,0,0,1,3.52.73,2.7,2.7,0,0,1,1.08,2.41,3,3,0,0,1-1.06,2.58,6,6,0,0,1-3.46.77,7.63,7.63,0,0,1-2.47-.37,18.66,18.66,0,0,1-2.47-1l-.54-.24L43.24,80c-.54-.28-1-.49-1.29-.62a2.76,2.76,0,0,0-1.07-.19,2.21,2.21,0,0,0-1.81.92,3.52,3.52,0,0,0-.73,2.26,3,3,0,0,0,1.33,2.66,13.74,13.74,0,0,0,4.48,2.17,18.79,18.79,0,0,0,5.37.76,16,16,0,0,0,6.09-1.06,9.07,9.07,0,0,0,4-3A7.5,7.5,0,0,0,61,79.4a7.63,7.63,0,0,0-1.44-4.69A7.32,7.32,0,0,0,55.63,72ZM70.25,48h0a3,3,0,0,0-3-3H31.55a3,3,0,0,0-3,3h0a3,3,0,0,0,3,3H67.23A3,3,0,0,0,70.25,48Z"/></svg>