<svg id="Layer_1" data-name="Layer 1" xmlns="http://www.w3.org/2000/svg" viewBox="0 0 100 100"><title>l19_2_1</title><path d="M100,51.06a50,50,0,1,1-50-50A50,50,0,0,1,100,51.06Zm-43.06-28a6.45,6.45,0,0,0,3.38-2.53,7.47,7.47,0,0,0,1.22-4.3,7.11,7.11,0,0,0-3-6C56.56,8.75,53.85,8,50.41,8a13.4,13.4,0,0,0-8.13,2.22,7.08,7.08,0,0,0-3,6,7.34,7.34,0,0,0,1.2,4.19,7.08,7.08,0,0,0,3.44,2.64,7.21,7.21,0,0,0-4,2.56,7.62,7.62,0,0,0-1.42,4.71,7.43,7.43,0,0,0,3.21,6.39q3.2,2.3,8.75,2.3t8.75-2.3a7.44,7.44,0,0,0,3.2-6.39,7.09,7.09,0,0,0-5.42-7.27Zm-6.53,10q-4.69,0-4.69-3.35t4.69-3.36q4.68,0,4.68,3.36T50.41,33.08Zm0-19.09a4.59,4.59,0,0,1,2.88.75,2.92,2.92,0,0,1,.94,2.43,3,3,0,0,1-.94,2.45,4.46,4.46,0,0,1-2.88.78,4.51,4.51,0,0,1-2.89-.78,3,3,0,0,1-.94-2.45,2.92,2.92,0,0,1,.94-2.43A4.64,4.64,0,0,1,50.41,14ZM49.09,58a11,11,0,0,0-5.46,1.33,9.54,9.54,0,0,0-3.76,3.72,10.67,10.67,0,0,0-1.36,5.4,10.88,10.88,0,0,0,1.18,5.09,8.81,8.81,0,0,0,3.25,3.53,8.66,8.66,0,0,0,4.65,1.27,8.32,8.32,0,0,0,3.63-.8,6.81,6.81,0,0,0,2.64-2.17A11.42,11.42,0,0,1,52.25,81a4.09,4.09,0,0,1-3.55,2,5.67,5.67,0,0,1-2-.34,25.19,25.19,0,0,1-2.37-1l-1-.48c-.54-.28-1-.49-1.29-.62a2.76,2.76,0,0,0-1.07-.19,2.29,2.29,0,0,0-1.83.92,3.48,3.48,0,0,0-.75,2.26,3.2,3.2,0,0,0,.32,1.5,3.66,3.66,0,0,0,1.06,1.16,13.67,13.67,0,0,0,4.32,2.16,16.8,16.8,0,0,0,4.92.77,11.67,11.67,0,0,0,6.69-1.94,12.6,12.6,0,0,0,4.43-5.52,21,21,0,0,0,1.56-8.41q0-7.31-3.31-11.26T49.09,58Zm.47,14.23a3.38,3.38,0,0,1-2.68-1.09,5,5,0,0,1,0-6,3.38,3.38,0,0,1,2.66-1.12,3.44,3.44,0,0,1,2.67,1.14,4.79,4.79,0,0,1,0,5.91A3.43,3.43,0,0,1,49.56,72.24ZM70.25,49.1h0a3,3,0,0,0-3-3H31.55a3,3,0,0,0-3,3h0a3,3,0,0,0,3,3H67.23A3,3,0,0,0,70.25,49.1Z"/></svg>