<svg id="Layer_1" data-name="Layer 1" xmlns="http://www.w3.org/2000/svg" viewBox="0 0 100 100"><title>l19_1_1</title><path d="M100,51.06a50,50,0,1,1-50-50A50,50,0,0,1,100,51.06ZM59.52,32.44H56V12.05a3.59,3.59,0,0,0-3.83-3.82A7.32,7.32,0,0,0,48.6,9.3l-6.88,4A2.92,2.92,0,0,0,40.22,16a3.57,3.57,0,0,0,.86,2.34,2.58,2.58,0,0,0,2.06,1.05,2.85,2.85,0,0,0,1.5-.43l3.44-2V32.44H44.6a4.3,4.3,0,0,0-2.84.77,2.9,2.9,0,0,0-.9,2.32q0,3.18,3.74,3.18H59.52c2.5,0,3.74-1.06,3.74-3.18a2.9,2.9,0,0,0-.9-2.32A4.28,4.28,0,0,0,59.52,32.44ZM56.7,73.1a6.48,6.48,0,0,0,3.38-2.53,7.54,7.54,0,0,0,1.22-4.3,7.11,7.11,0,0,0-3-6c-2-1.47-4.71-2.21-8.14-2.21A13.45,13.45,0,0,0,42,60.22a7.1,7.1,0,0,0-3,6,7.34,7.34,0,0,0,1.2,4.19,7,7,0,0,0,3.44,2.64,7.16,7.16,0,0,0-4,2.56,7.56,7.56,0,0,0-1.42,4.71,7.45,7.45,0,0,0,3.2,6.39q3.21,2.3,8.76,2.3t8.75-2.3A7.58,7.58,0,0,0,56.7,73.1Zm-6.53,10q-4.7,0-4.69-3.36t4.69-3.35q4.68,0,4.68,3.35T50.17,83.08Zm0-19.09a4.59,4.59,0,0,1,2.88.75A2.92,2.92,0,0,1,54,67.17a3,3,0,0,1-.94,2.45,4.46,4.46,0,0,1-2.88.77,4.49,4.49,0,0,1-2.89-.77,3,3,0,0,1-.94-2.45,2.92,2.92,0,0,1,.94-2.43A4.62,4.62,0,0,1,50.17,64ZM70.25,49.1h0a3,3,0,0,0-3-3H31.55a3,3,0,0,0-3,3h0a3,3,0,0,0,3,3H67.23A3,3,0,0,0,70.25,49.1Z"/></svg>