<svg id="Layer_1" data-name="Layer 1" xmlns="http://www.w3.org/2000/svg" viewBox="0 0 100 100"><title>l19_5_1</title><path d="M61.93,95.05C47.7,99.48,27.85,98.21,14.2,84.67-1.52,69.09-3.21,43,9.2,25.15c13.19-19,36.24-19.94,38.87-20q-.47,23.34-.94,46.68L82.65,82.13A49.65,49.65,0,0,1,61.93,95.05Zm-26.84-57H32.58V23.58a2.63,2.63,0,0,0-.75-2,2.69,2.69,0,0,0-2-.74,5.14,5.14,0,0,0-2.53.77l-4.89,2.84a2.06,2.06,0,0,0-1.07,1.89A2.54,2.54,0,0,0,22,28a1.85,1.85,0,0,0,1.47.75,2.12,2.12,0,0,0,1.07-.3L27,27v11H24.49a3,3,0,0,0-2,.55,2,2,0,0,0-.64,1.65c0,1.5.89,2.26,2.66,2.26h10.6c1.77,0,2.65-.76,2.65-2.26a2,2,0,0,0-.64-1.65A3,3,0,0,0,35.09,38.06ZM32.32,66.94a4.94,4.94,0,0,0,2.43-1.85,5,5,0,0,0,.87-2.94A5.37,5.37,0,0,0,34.69,59,6.09,6.09,0,0,0,32,57a10.29,10.29,0,0,0-4-.73,12.14,12.14,0,0,0-3.62.55,10.32,10.32,0,0,0-3.1,1.53,2.48,2.48,0,0,0-.73.82,2.43,2.43,0,0,0-.21,1.07,2.46,2.46,0,0,0,.52,1.6,1.56,1.56,0,0,0,1.28.66,1.84,1.84,0,0,0,.76-.14c.23-.09.53-.24.92-.44l.64-.3a16.94,16.94,0,0,1,1.66-.74,4.73,4.73,0,0,1,1.61-.27,2.66,2.66,0,0,1,1.86.62,2.29,2.29,0,0,1,.67,1.76,1.72,1.72,0,0,1-.76,1.56A4.72,4.72,0,0,1,27.1,65H25.75a1.72,1.72,0,0,0-1.43.64,2.5,2.5,0,0,0,0,3.05,1.72,1.72,0,0,0,1.43.64h1.9a4.63,4.63,0,0,1,2.5.52,1.92,1.92,0,0,1,.76,1.71,2.16,2.16,0,0,1-.74,1.84,4.3,4.3,0,0,1-2.46.55A5.62,5.62,0,0,1,26,73.68a16.44,16.44,0,0,1-1.76-.75l-.38-.17-.29-.14c-.38-.2-.69-.35-.91-.44a2.07,2.07,0,0,0-.77-.14,1.57,1.57,0,0,0-1.28.66,2.74,2.74,0,0,0-.31,2.66,2.57,2.57,0,0,0,.74.84,9.85,9.85,0,0,0,3.17,1.54,13.87,13.87,0,0,0,3.82.53,11.42,11.42,0,0,0,4.32-.75,6.41,6.41,0,0,0,2.86-2.12,5.8,5.8,0,0,0,0-6.57A5.23,5.23,0,0,0,32.32,66.94ZM42.7,50V49.8a2.05,2.05,0,0,0-2.05-2H15.13a2.05,2.05,0,0,0-2.06,2V50A2.06,2.06,0,0,0,15.13,52H40.65A2.05,2.05,0,0,0,42.7,50Z"/><path d="M89.6,21.9C101.45,38,100.65,61.73,86.73,79.46L51.9,50.51V4.14C54.38,4.12,76.59,4.29,89.6,21.9ZM67.78,43H80a5.86,5.86,0,0,0,4.06-1.21,4.25,4.25,0,0,0,1.33-3.34,4.18,4.18,0,0,0-1.33-3.32A6,6,0,0,0,80,34H67.78q-5.4,0-5.4,4.49T67.78,43Z"/></svg>