<svg id="Layer_1" data-name="Layer 1" xmlns="http://www.w3.org/2000/svg" viewBox="0 0 100 100"><title>l19_3_1</title><path d="M63.23,94.87C49,99.3,29.16,98,15.5,84.5-.21,68.91-1.91,42.84,10.5,25,23.69,6,46.74,5,49.38,5q-.48,23.34-1,46.68L84,82A49.48,49.48,0,0,1,63.23,94.87Zm-26.84-57h-2.5V23.41a2.65,2.65,0,0,0-.75-2,2.7,2.7,0,0,0-2-.73,5.16,5.16,0,0,0-2.54.76l-4.88,2.84a2.06,2.06,0,0,0-1.07,1.89,2.57,2.57,0,0,0,.61,1.67,1.82,1.82,0,0,0,1.46.75,2.1,2.1,0,0,0,1.07-.31l2.45-1.43v11H25.79a3.07,3.07,0,0,0-2,.55,2.06,2.06,0,0,0-.65,1.65c0,1.51.89,2.26,2.66,2.26h10.6c1.77,0,2.66-.75,2.66-2.26a2.09,2.09,0,0,0-.64-1.65A3.1,3.1,0,0,0,36.39,37.88ZM33.62,66.77a5,5,0,0,0,2.43-1.85,5.1,5.1,0,0,0,.87-3A5.31,5.31,0,0,0,36,58.86a6,6,0,0,0-2.66-2.08,10.09,10.09,0,0,0-4-.73,12.14,12.14,0,0,0-3.62.55,10,10,0,0,0-3.1,1.52,2.55,2.55,0,0,0-.74.83A2.4,2.4,0,0,0,21.68,60a2.48,2.48,0,0,0,.52,1.6,1.57,1.57,0,0,0,1.28.66,2.07,2.07,0,0,0,.77-.14c.22-.09.53-.24.91-.44l.64-.31a15.53,15.53,0,0,1,1.67-.73,4.45,4.45,0,0,1,1.6-.28,2.63,2.63,0,0,1,1.87.63,2.3,2.3,0,0,1,.67,1.75,1.7,1.7,0,0,1-.77,1.56,4.62,4.62,0,0,1-2.44.49H27.06a1.78,1.78,0,0,0-1.44.64,2.51,2.51,0,0,0,0,3.06,1.78,1.78,0,0,0,1.44.64H29a4.54,4.54,0,0,1,2.5.52,1.9,1.9,0,0,1,.77,1.71,2.13,2.13,0,0,1-.75,1.83,4.22,4.22,0,0,1-2.46.55,5.55,5.55,0,0,1-1.75-.26,12.63,12.63,0,0,1-1.76-.75l-.38-.17-.29-.13c-.39-.21-.7-.35-.92-.45a2,2,0,0,0-.76-.13,1.58,1.58,0,0,0-1.29.65,2.54,2.54,0,0,0-.51,1.61,2.46,2.46,0,0,0,.21,1.05,2.35,2.35,0,0,0,.73.84,9.81,9.81,0,0,0,3.18,1.54,13.41,13.41,0,0,0,3.82.54,11.42,11.42,0,0,0,4.32-.75,6.45,6.45,0,0,0,2.85-2.12,5.29,5.29,0,0,0,1-3.24,5.45,5.45,0,0,0-1-3.33A5.15,5.15,0,0,0,33.62,66.77ZM44,49.81v-.18A2.06,2.06,0,0,0,42,47.57H16.43a2.05,2.05,0,0,0-2,2.06v.18a2.05,2.05,0,0,0,2,2H42A2.05,2.05,0,0,0,44,49.81Z"/><path d="M53.21,4V50.33L88,79.29C102,61.55,102.76,37.78,90.9,21.72,77.9,4.12,55.68,3.94,53.21,4Z"/></svg>