<svg id="Layer_1" data-name="Layer 1" xmlns="http://www.w3.org/2000/svg" viewBox="0 0 100 100"><title>l19_3_1</title><path d="M51.53,48.49H99.75c.25-2.32,2-21.54-13-36C72.4-1.49,54.17.15,51.68.42Z"/><path d="M93.54,53A46.74,46.74,0,1,1,46.8,6.3V53ZM33.18,40.1h-2.5V25.63a2.65,2.65,0,0,0-.75-2,2.7,2.7,0,0,0-2-.73,5.12,5.12,0,0,0-2.53.76l-4.89,2.84a2.09,2.09,0,0,0-1.07,1.9,2.54,2.54,0,0,0,.61,1.66,1.85,1.85,0,0,0,1.47.75,2.06,2.06,0,0,0,1.07-.31l2.44-1.43v11H22.59a3.1,3.1,0,0,0-2,.55,2.06,2.06,0,0,0-.64,1.65c0,1.51.88,2.26,2.66,2.26H33.18c1.78,0,2.66-.75,2.66-2.26a2.06,2.06,0,0,0-.64-1.65A3.1,3.1,0,0,0,33.18,40.1ZM33.1,72.16h-.67v-11a2.6,2.6,0,0,0-.82-2,2.88,2.88,0,0,0-2-.73,3,3,0,0,0-1.36.32,2.76,2.76,0,0,0-1.08.93L18.44,72.07a3.49,3.49,0,0,0-.67,2,2.38,2.38,0,0,0,.64,1.68,2.33,2.33,0,0,0,1.74.67H27v1a2.69,2.69,0,0,0,.75,2.07,2.77,2.77,0,0,0,2,.71,2.82,2.82,0,0,0,2-.71,2.66,2.66,0,0,0,.76-2.07v-1h.67c1.78,0,2.66-.72,2.66-2.17S34.88,72.16,33.1,72.16Zm-9.8,0L27,66.88v5.28ZM40.8,52v-.18a2.05,2.05,0,0,0-2-2.06H13.23a2.06,2.06,0,0,0-2.06,2.06V52a2.05,2.05,0,0,0,2.06,2H38.75A2.05,2.05,0,0,0,40.8,52Z"/></svg>