<svg id="Layer_1" data-name="Layer 1" xmlns="http://www.w3.org/2000/svg" viewBox="0 0 100 100"><title>l19_3_1</title><path d="M61.36,94.8A46.15,46.15,0,0,1,13.63,84.42C-1.85,69-4.22,43.35,8.63,24.91,20.42,8,42.52.75,62.71,7.41L48.15,50.88,92.33,49C92.58,69.71,80,88.11,61.36,94.8Zm-26.84-57H32V23.33a2.65,2.65,0,0,0-.75-2,2.7,2.7,0,0,0-2-.74,5.21,5.21,0,0,0-2.54.77l-4.88,2.84a2.08,2.08,0,0,0-1.07,1.89,2.57,2.57,0,0,0,.61,1.67,1.87,1.87,0,0,0,1.47.74,2.14,2.14,0,0,0,1.07-.3l2.44-1.44v11H23.92a3,3,0,0,0-2,.55A2,2,0,0,0,21.27,40c0,1.51.88,2.26,2.65,2.26h10.6c1.77,0,2.66-.75,2.66-2.26a2,2,0,0,0-.64-1.65A3,3,0,0,0,34.52,37.81Zm-4.81,25.8a6,6,0,0,0-2.58.56,4.79,4.79,0,0,0-1.88,1.55,8,8,0,0,1,1.15-4,2.91,2.91,0,0,1,2.52-1.42,4.16,4.16,0,0,1,1.4.24c.45.17,1,.41,1.68.74l.67.33c.39.21.69.35.92.45a2,2,0,0,0,.76.13,1.61,1.61,0,0,0,1.3-.65,2.44,2.44,0,0,0,.53-1.61A2.32,2.32,0,0,0,36,58.87a3,3,0,0,0-.75-.82,9.92,9.92,0,0,0-3.07-1.53,12.09,12.09,0,0,0-3.5-.55,8.24,8.24,0,0,0-4.75,1.38,8.84,8.84,0,0,0-3.14,3.92,14.69,14.69,0,0,0-1.12,6q0,5.19,2.35,8a8.21,8.21,0,0,0,6.66,2.8,7.87,7.87,0,0,0,3.88-.94,6.78,6.78,0,0,0,2.67-2.64A8.17,8.17,0,0,0,35.31,67,6.28,6.28,0,0,0,33,64.51,6.19,6.19,0,0,0,29.71,63.61ZM28.3,73.75a2.44,2.44,0,0,1-1.89-.81,3.4,3.4,0,0,1,0-4.2,2.43,2.43,0,0,1,1.9-.8,2.39,2.39,0,0,1,1.91.78,3.1,3.1,0,0,1,.69,2.13,3,3,0,0,1-.7,2.1A2.41,2.41,0,0,1,28.3,73.75Zm13.84-24v-.17a2.06,2.06,0,0,0-2.06-2.06H14.57a2.06,2.06,0,0,0-2.06,2.06v.17a2.06,2.06,0,0,0,2.06,2.06H40.08A2.06,2.06,0,0,0,42.14,49.73Z"/><path d="M69.4,2.51,53.74,46.35l45.1-2.87a39.85,39.85,0,0,0-29.44-41Z"/></svg>