<svg id="Layer_1" data-name="Layer 1" xmlns="http://www.w3.org/2000/svg" viewBox="0 0 100 100"><title>l19_3_1</title><path d="M86.6,82.12c-16.31,20.25-49.86,23.09-69.28,4C1.1,70.23-.82,43.39,12.49,25.53S48.37,7.23,51.12,7.23q.08,23.45.16,46.87l38.4-26C99.59,46.14,98.26,67.65,86.6,82.12ZM38.22,39.38H35.71V24.91a2.65,2.65,0,0,0-.74-2,2.7,2.7,0,0,0-2-.73,5.16,5.16,0,0,0-2.54.76l-4.88,2.84a2.07,2.07,0,0,0-1.07,1.9,2.54,2.54,0,0,0,.61,1.66,1.82,1.82,0,0,0,1.46.75,2,2,0,0,0,1.07-.31l2.45-1.43v11H27.62a3.07,3.07,0,0,0-2,.55A2.06,2.06,0,0,0,25,41.58c0,1.51.89,2.26,2.66,2.26h10.6c1.77,0,2.66-.75,2.66-2.26a2.09,2.09,0,0,0-.64-1.65A3.1,3.1,0,0,0,38.22,39.38ZM28.89,74.9H26.38V60.42a2.55,2.55,0,0,0-2.72-2.72,5.12,5.12,0,0,0-2.53.76L16.24,61.3a2.09,2.09,0,0,0-1.07,1.9,2.6,2.6,0,0,0,.61,1.66,1.85,1.85,0,0,0,1.47.75,2.12,2.12,0,0,0,1.07-.3l2.44-1.44v11H18.29a3,3,0,0,0-2,.55,2,2,0,0,0-.64,1.64c0,1.51.89,2.26,2.66,2.26h10.6c1.77,0,2.65-.75,2.65-2.26a2,2,0,0,0-.64-1.64A3,3,0,0,0,28.89,74.9Zm11.85,4.73a7.13,7.13,0,0,0,6.1-2.84Q49,74,49,68.57t-2.12-8.18a7.14,7.14,0,0,0-6.09-2.84,7.12,7.12,0,0,0-6.11,2.84q-2.12,2.84-2.11,8.18t2.11,8.22A7.14,7.14,0,0,0,40.74,79.63Zm0-4.25a2.19,2.19,0,0,1-2.11-1.58A15.18,15.18,0,0,1,38,68.57a14.94,14.94,0,0,1,.64-5.2,2.19,2.19,0,0,1,4.21,0,15,15,0,0,1,.64,5.19,15.18,15.18,0,0,1-.64,5.23A2.18,2.18,0,0,1,40.74,75.38Zm5.1-24.07v-.18a2.06,2.06,0,0,0-2.06-2.06H18.26a2.05,2.05,0,0,0-2.05,2.06v.18a2.05,2.05,0,0,0,2.05,2H43.78A2.05,2.05,0,0,0,45.84,51.31Z"/><path d="M54.4,1.59l-.21,46.18L91.8,22.72A34.34,34.34,0,0,0,74.67,4.07,33.68,33.68,0,0,0,54.4,1.59Z"/></svg>