<svg id="Layer_1" data-name="Layer 1" xmlns="http://www.w3.org/2000/svg" viewBox="0 0 100 100"><title>l19_5_1</title><path d="M61.93,95.05C47.7,99.48,27.85,98.21,14.2,84.67-1.52,69.09-3.21,43,9.2,25.15c13.19-19,36.24-19.94,38.87-20q-.47,23.34-.94,46.68L82.65,82.13A49.65,49.65,0,0,1,61.93,95.05Zm-26.84-57H32.58V23.58a2.63,2.63,0,0,0-.75-2,2.69,2.69,0,0,0-2-.74,5.14,5.14,0,0,0-2.53.77l-4.89,2.84a2.07,2.07,0,0,0-1.07,1.89A2.53,2.53,0,0,0,22,28a1.85,1.85,0,0,0,1.47.75,2.14,2.14,0,0,0,1.07-.3L27,27v11H24.49a3,3,0,0,0-2,.55,2,2,0,0,0-.64,1.65c0,1.5.88,2.26,2.66,2.26h10.6c1.77,0,2.65-.76,2.65-2.26a2,2,0,0,0-.64-1.65A3,3,0,0,0,35.09,38.06Zm-1,35.51H28l4.34-4.43a14.46,14.46,0,0,0,2.55-3.43,7.71,7.71,0,0,0,.75-3.41,5.59,5.59,0,0,0-.93-3.19A5.94,5.94,0,0,0,32,57a9.83,9.83,0,0,0-4-.75,12.39,12.39,0,0,0-6.75,2.08,2,2,0,0,0-.75.79,2.67,2.67,0,0,0-.2,1.1,2.63,2.63,0,0,0,.52,1.64,1.57,1.57,0,0,0,1.28.68,1.81,1.81,0,0,0,.58-.09,3.74,3.74,0,0,0,.63-.29l.47-.26.61-.3a14.17,14.17,0,0,1,1.73-.75,5,5,0,0,1,1.63-.26,2.4,2.4,0,0,1,1.7.55,2.06,2.06,0,0,1,.59,1.59,6,6,0,0,1-2,3.88l-6.48,6.75a3.34,3.34,0,0,0-1,2.38A2.25,2.25,0,0,0,23,78H34.11a3.12,3.12,0,0,0,2-.55,2.14,2.14,0,0,0,.65-1.71,2.06,2.06,0,0,0-.65-1.67A3.18,3.18,0,0,0,34.11,73.57ZM42.7,50V49.8a2.05,2.05,0,0,0-2.05-2H15.13a2.05,2.05,0,0,0-2.06,2V50A2.06,2.06,0,0,0,15.13,52H40.65A2.05,2.05,0,0,0,42.7,50Z"/><path d="M89.6,21.9C101.45,38,100.65,61.73,86.73,79.46L51.9,50.51V4.14C54.38,4.12,76.59,4.29,89.6,21.9ZM67.78,43H80a5.86,5.86,0,0,0,4.06-1.21,4.25,4.25,0,0,0,1.33-3.34,4.18,4.18,0,0,0-1.33-3.32A6,6,0,0,0,80,34H67.78q-5.4,0-5.4,4.49T67.78,43Z"/></svg>