<svg id="Layer_1" data-name="Layer 1" xmlns="http://www.w3.org/2000/svg" viewBox="0 0 100 100"><title>l19_2_1</title><path d="M100,50A50,50,0,1,1,50,0,50,50,0,0,1,100,50ZM58.38,31.38H49.74l6.11-6.24a20.38,20.38,0,0,0,3.59-4.84,10.82,10.82,0,0,0,1.05-4.79A7.9,7.9,0,0,0,59.18,11a8.4,8.4,0,0,0-3.72-3A13.73,13.73,0,0,0,49.87,7a16.71,16.71,0,0,0-5,.78,16.33,16.33,0,0,0-4.53,2.15A2.83,2.83,0,0,0,39.31,11,3.84,3.84,0,0,0,39,12.54a3.74,3.74,0,0,0,.73,2.3,2.19,2.19,0,0,0,1.81,1,2.47,2.47,0,0,0,.82-.13,4.74,4.74,0,0,0,.88-.41l.66-.36.86-.43a22.29,22.29,0,0,1,2.43-1.06,7.11,7.11,0,0,1,2.3-.36,3.42,3.42,0,0,1,2.39.77,2.9,2.9,0,0,1,.84,2.24q0,2.49-2.84,5.46L40.8,31a4.71,4.71,0,0,0-1.47,3.36,3.2,3.2,0,0,0,.91,2.34,3.23,3.23,0,0,0,2.45.92H58.38a4.31,4.31,0,0,0,2.82-.77,3,3,0,0,0,.92-2.41,2.85,2.85,0,0,0-.92-2.34A4.44,4.44,0,0,0,58.38,31.38Zm1,45.14h-.94V61a3.64,3.64,0,0,0-1.17-2.88,4,4,0,0,0-2.79-1,4.36,4.36,0,0,0-1.92.45,4,4,0,0,0-1.52,1.31L38.77,76.39a4.81,4.81,0,0,0-1,2.83,3.31,3.31,0,0,0,.91,2.37,3.23,3.23,0,0,0,2.45,1h9.59V84a3.82,3.82,0,0,0,1,2.92,3.88,3.88,0,0,0,2.77,1,4,4,0,0,0,2.8-1A3.76,3.76,0,0,0,58.47,84V82.54h.94q3.73,0,3.74-3.06C63.15,77.5,61.9,76.52,59.41,76.52Zm-13.8,0,5.16-7.44v7.44ZM70.25,48h0a3,3,0,0,0-3-3H31.55a3,3,0,0,0-3,3h0a3,3,0,0,0,3,3H67.23A3,3,0,0,0,70.25,48Z"/></svg>