<svg id="Layer_1" data-name="Layer 1" xmlns="http://www.w3.org/2000/svg" viewBox="0 0 100 100"><title>l19_5_1</title><path d="M62.93,95.05C48.7,99.48,28.85,98.21,15.2,84.67-.52,69.09-2.21,43,10.2,25.15c13.19-19,36.24-19.94,38.87-20q-.47,23.34-.94,46.68L83.65,82.13A49.65,49.65,0,0,1,62.93,95.05Zm-26.84-57H33.58V23.58a2.63,2.63,0,0,0-.75-2,2.69,2.69,0,0,0-2-.74,5.14,5.14,0,0,0-2.53.77l-4.89,2.84a2.07,2.07,0,0,0-1.07,1.89A2.53,2.53,0,0,0,23,28a1.85,1.85,0,0,0,1.47.75,2.14,2.14,0,0,0,1.07-.3L28,27v11H25.49a3,3,0,0,0-2,.55,2,2,0,0,0-.64,1.65c0,1.5.88,2.26,2.66,2.26h10.6c1.77,0,2.65-.76,2.65-2.26a2,2,0,0,0-.64-1.65A3,3,0,0,0,36.09,38.06ZM30.94,64a7.62,7.62,0,0,0-3,.55V60.74h6.6c1.77,0,2.66-.71,2.66-2.14s-.89-2.1-2.66-2.1H25a2.58,2.58,0,0,0-1.92.67,2.64,2.64,0,0,0-.67,1.95V67.4A1.67,1.67,0,0,0,23,68.73a2.11,2.11,0,0,0,1.43.5,3,3,0,0,0,1.38-.33,10,10,0,0,1,1.75-.55,8.45,8.45,0,0,1,1.67-.16,3.46,3.46,0,0,1,2.38.77,2.72,2.72,0,0,1,.85,2.14,2.65,2.65,0,0,1-.82,2.15,3.91,3.91,0,0,1-2.54.69,5.12,5.12,0,0,1-1.69-.28,17.29,17.29,0,0,1-1.73-.73l-.61-.31c-.4-.22-.71-.37-.91-.46a2.15,2.15,0,0,0-.77-.12,1.57,1.57,0,0,0-1.28.66,2.48,2.48,0,0,0-.52,1.6,2.33,2.33,0,0,0,.23,1.06,2.74,2.74,0,0,0,.72.84,9.92,9.92,0,0,0,3.13,1.52,12.63,12.63,0,0,0,3.71.55,10,10,0,0,0,4.37-.91,6.87,6.87,0,0,0,2.93-2.6,7.24,7.24,0,0,0,1-3.88,7.37,7.37,0,0,0-.87-3.62,6.17,6.17,0,0,0-2.42-2.44A7,7,0,0,0,30.94,64ZM43.7,50V49.8a2.05,2.05,0,0,0-2.05-2H16.13a2.05,2.05,0,0,0-2.06,2V50A2.06,2.06,0,0,0,16.13,52H41.65A2.05,2.05,0,0,0,43.7,50Z"/><path d="M90.6,21.9C102.45,38,101.65,61.73,87.73,79.46L52.9,50.51V4.14C55.38,4.12,77.59,4.29,90.6,21.9ZM65.35,40.65a6.36,6.36,0,0,0,5-2,8.36,8.36,0,0,0,1.8-5.78,8.3,8.3,0,0,0-1.8-5.74,6.36,6.36,0,0,0-5-2,6.36,6.36,0,0,0-5,2,8.22,8.22,0,0,0-1.8,5.7,8.43,8.43,0,0,0,1.8,5.8A6.34,6.34,0,0,0,65.35,40.65Zm0-3.89a1.28,1.28,0,0,1-1.21-.88,8.51,8.51,0,0,1-.37-3,8.14,8.14,0,0,1,.37-2.93,1.25,1.25,0,0,1,2.4,0,7.83,7.83,0,0,1,.39,2.93,8.51,8.51,0,0,1-.37,3A1.28,1.28,0,0,1,65.35,36.76Zm5.36,13.32L83.06,28.77a3.33,3.33,0,0,0,.51-1.7,2.18,2.18,0,0,0-.63-1.6,2.08,2.08,0,0,0-1.53-.63,2.32,2.32,0,0,0-1.28.4A3.35,3.35,0,0,0,79,26.43L66.68,47.74a3.38,3.38,0,0,0-.5,1.69A2.12,2.12,0,0,0,66.83,51a2,2,0,0,0,1.51.65,2.42,2.42,0,0,0,1.28-.39A3.42,3.42,0,0,0,70.71,50.08Zm13.68,1.11a6.34,6.34,0,0,0,5-2,8.37,8.37,0,0,0,1.8-5.78,8.28,8.28,0,0,0-1.8-5.74,7.16,7.16,0,0,0-9.93,0,8.22,8.22,0,0,0-1.8,5.7,8.43,8.43,0,0,0,1.8,5.8A6.31,6.31,0,0,0,84.39,51.19Zm0-3.88a1.26,1.26,0,0,1-1.2-.89,8.35,8.35,0,0,1-.38-3,8.31,8.31,0,0,1,.38-3,1.25,1.25,0,0,1,1.2-.88,1.27,1.27,0,0,1,1.19.9,7.77,7.77,0,0,1,.4,3,8.35,8.35,0,0,1-.38,3A1.26,1.26,0,0,1,84.39,47.31Z"/></svg>