<svg id="Layer_1" data-name="Layer 1" xmlns="http://www.w3.org/2000/svg" viewBox="0 0 100 100"><title>l19_4_1</title><path d="M62.93,95.05C48.7,99.48,28.85,98.21,15.2,84.67-.52,69.09-2.21,43,10.2,25.15c13.19-19,36.24-19.94,38.87-20q-.47,23.34-.94,46.68L83.65,82.13A49.65,49.65,0,0,1,62.93,95.05Zm-26.84-57H33.58V23.58a2.63,2.63,0,0,0-.75-2,2.69,2.69,0,0,0-2-.74,5.14,5.14,0,0,0-2.53.77l-4.89,2.84a2.07,2.07,0,0,0-1.07,1.89A2.58,2.58,0,0,0,23,28a1.85,1.85,0,0,0,1.47.75,2.12,2.12,0,0,0,1.07-.3L28,27v11H25.49a3,3,0,0,0-2,.55,2,2,0,0,0-.64,1.65c0,1.5.89,2.26,2.66,2.26h10.6c1.77,0,2.65-.76,2.65-2.26a2,2,0,0,0-.64-1.65A3,3,0,0,0,36.09,38.06ZM36,70.12h-.67v-11a2.59,2.59,0,0,0-.83-2,2.89,2.89,0,0,0-2-.74,3.08,3.08,0,0,0-1.35.32,2.9,2.9,0,0,0-1.09.94L21.35,70a3.39,3.39,0,0,0-.67,2,2.33,2.33,0,0,0,.64,1.68,2.26,2.26,0,0,0,1.74.67h6.81v1a2.52,2.52,0,0,0,2.72,2.78,2.8,2.8,0,0,0,2-.7,2.69,2.69,0,0,0,.77-2.08v-1H36c1.77,0,2.65-.72,2.65-2.16S37.78,70.12,36,70.12Zm-9.81,0,3.67-5.29v5.29ZM43.7,50V49.8a2.05,2.05,0,0,0-2.05-2H16.13a2.05,2.05,0,0,0-2.06,2V50A2.06,2.06,0,0,0,16.13,52H41.65A2.05,2.05,0,0,0,43.7,50Z"/><path d="M90.6,21.9C102.45,38,101.65,61.73,87.73,79.46L52.9,50.51V4.14C55.38,4.12,77.59,4.29,90.6,21.9ZM86.92,33.39h-8.2V25.2a3.84,3.84,0,1,0-7.67,0v8.19H62.86A3.77,3.77,0,0,0,59,37.22,3.82,3.82,0,0,0,60.14,40a3.65,3.65,0,0,0,2.72,1.13h8.19v8.13a3.77,3.77,0,0,0,3.84,3.83A3.65,3.65,0,0,0,77.65,52a3.76,3.76,0,0,0,1.07-2.73V41.12h8.2A3.65,3.65,0,0,0,89.64,40a3.82,3.82,0,0,0,1.11-2.77,3.77,3.77,0,0,0-3.83-3.83Z"/></svg>