<svg id="Layer_1" data-name="Layer 1" xmlns="http://www.w3.org/2000/svg" viewBox="0 0 100 100"><title>l19_3_1</title><path d="M63.23,94.87C49,99.3,29.16,98,15.5,84.5-.21,68.91-1.91,42.84,10.5,25,23.69,6,46.74,5,49.38,5q-.48,23.34-1,46.68L84,82A49.48,49.48,0,0,1,63.23,94.87Zm-26.84-57h-2.5V23.41a2.65,2.65,0,0,0-.75-2,2.7,2.7,0,0,0-2-.73,5.16,5.16,0,0,0-2.54.76l-4.88,2.84a2.07,2.07,0,0,0-1.07,1.9,2.54,2.54,0,0,0,.61,1.66,1.83,1.83,0,0,0,1.46.75,2,2,0,0,0,1.07-.31l2.45-1.43v11H25.79a3.07,3.07,0,0,0-2,.55,2.06,2.06,0,0,0-.65,1.65c0,1.51.89,2.26,2.66,2.26h10.6c1.77,0,2.66-.75,2.66-2.26a2.09,2.09,0,0,0-.64-1.65A3.1,3.1,0,0,0,36.39,37.88ZM31.24,63.77a7.72,7.72,0,0,0-3,.55V60.57h6.59c1.78,0,2.66-.72,2.66-2.14s-.88-2.11-2.66-2.11H25.35A2.35,2.35,0,0,0,22.75,59v8.27a1.66,1.66,0,0,0,.58,1.33,2.11,2.11,0,0,0,1.44.51,3,3,0,0,0,1.37-.34,11,11,0,0,1,1.76-.55A8.46,8.46,0,0,1,29.56,68a3.44,3.44,0,0,1,2.38.76,2.72,2.72,0,0,1,.86,2.14A2.64,2.64,0,0,1,32,73.07a3.88,3.88,0,0,1-2.53.69,5.18,5.18,0,0,1-1.7-.27A17.46,17.46,0,0,1,26,72.75l-.61-.3a8.47,8.47,0,0,0-.92-.46,2.09,2.09,0,0,0-.76-.12,1.58,1.58,0,0,0-1.28.65,2.51,2.51,0,0,0-.52,1.61,2.17,2.17,0,0,0,.23,1.05,2.61,2.61,0,0,0,.71.84A10.27,10.27,0,0,0,26,77.55a13,13,0,0,0,3.71.55,9.92,9.92,0,0,0,4.37-.92A6.92,6.92,0,0,0,37,74.59a7.26,7.26,0,0,0,1-3.88,7.34,7.34,0,0,0-.87-3.62,6.17,6.17,0,0,0-2.41-2.45A7.08,7.08,0,0,0,31.24,63.77ZM44,49.81v-.18A2.06,2.06,0,0,0,42,47.57H16.43a2.05,2.05,0,0,0-2,2.06v.18a2.05,2.05,0,0,0,2,2H42A2.05,2.05,0,0,0,44,49.81Z"/><path d="M53.21,4V50.33L88,79.29C102,61.55,102.76,37.78,90.9,21.72,77.9,4.12,55.68,3.94,53.21,4Z"/></svg>