<svg id="Layer_1" data-name="Layer 1" xmlns="http://www.w3.org/2000/svg" viewBox="0 0 100 100"><title>l19_1_1</title><path d="M100,51.06a50,50,0,1,1-50-50A50,50,0,0,1,100,51.06ZM59.52,32.44H56V12.05a3.59,3.59,0,0,0-3.83-3.82A7.32,7.32,0,0,0,48.6,9.3l-6.88,4A2.92,2.92,0,0,0,40.22,16a3.57,3.57,0,0,0,.86,2.34,2.58,2.58,0,0,0,2.06,1.05,2.85,2.85,0,0,0,1.5-.43l3.44-2V32.44H44.6a4.3,4.3,0,0,0-2.84.77,2.9,2.9,0,0,0-.9,2.32q0,3.18,3.74,3.18H59.52c2.5,0,3.74-1.06,3.74-3.18a2.9,2.9,0,0,0-.9-2.32A4.28,4.28,0,0,0,59.52,32.44ZM49.09,58a11,11,0,0,0-5.46,1.33,9.54,9.54,0,0,0-3.76,3.72,10.67,10.67,0,0,0-1.36,5.4,10.88,10.88,0,0,0,1.18,5.09,8.87,8.87,0,0,0,3.25,3.53,8.66,8.66,0,0,0,4.65,1.27,8.32,8.32,0,0,0,3.63-.8,6.81,6.81,0,0,0,2.64-2.17A11.42,11.42,0,0,1,52.25,81a4.09,4.09,0,0,1-3.55,2,5.67,5.67,0,0,1-2-.34,25.19,25.19,0,0,1-2.37-1l-1-.48c-.54-.28-1-.49-1.29-.62a2.76,2.76,0,0,0-1.07-.19,2.29,2.29,0,0,0-1.83.92,3.48,3.48,0,0,0-.75,2.26,3.2,3.2,0,0,0,.32,1.5,3.66,3.66,0,0,0,1.06,1.16,13.45,13.45,0,0,0,4.32,2.15,16.49,16.49,0,0,0,4.92.78,11.67,11.67,0,0,0,6.69-1.94,12.6,12.6,0,0,0,4.43-5.52,21,21,0,0,0,1.56-8.41q0-7.31-3.31-11.26T49.09,58Zm.47,14.23a3.38,3.38,0,0,1-2.68-1.09,5,5,0,0,1,0-6,3.38,3.38,0,0,1,2.66-1.12,3.44,3.44,0,0,1,2.67,1.14,4.79,4.79,0,0,1,0,5.91A3.43,3.43,0,0,1,49.56,72.24ZM70.25,49.1h0a3,3,0,0,0-3-3H31.55a3,3,0,0,0-3,3h0a3,3,0,0,0,3,3H67.23A3,3,0,0,0,70.25,49.1Z"/></svg>