<svg id="Layer_1" data-name="Layer 1" xmlns="http://www.w3.org/2000/svg" viewBox="0 0 100 100"><title>l19_5_1</title><path d="M61.93,95.05C47.7,99.48,27.85,98.21,14.2,84.67-1.52,69.09-3.21,43,9.2,25.15c13.19-19,36.24-19.94,38.87-20q-.47,23.34-.94,46.68L82.65,82.13A49.65,49.65,0,0,1,61.93,95.05Zm-26.84-57H32.58V23.58a2.63,2.63,0,0,0-.75-2,2.69,2.69,0,0,0-2-.74,5.14,5.14,0,0,0-2.53.77l-4.89,2.84a2.07,2.07,0,0,0-1.07,1.89A2.58,2.58,0,0,0,22,28a1.85,1.85,0,0,0,1.47.75,2.12,2.12,0,0,0,1.07-.3L27,27v11H24.49a3,3,0,0,0-2,.55,2,2,0,0,0-.64,1.65c0,1.5.89,2.26,2.66,2.26h10.6c1.77,0,2.65-.76,2.65-2.26a2,2,0,0,0-.64-1.65A3,3,0,0,0,35.09,38.06ZM29.94,64a7.59,7.59,0,0,0-3,.55V60.74h6.6c1.77,0,2.66-.71,2.66-2.14s-.89-2.1-2.66-2.1H24a2.6,2.6,0,0,0-1.92.67,2.64,2.64,0,0,0-.67,1.95V67.4A1.67,1.67,0,0,0,22,68.73a2.11,2.11,0,0,0,1.43.5,3,3,0,0,0,1.38-.33,10,10,0,0,1,1.75-.55,8.53,8.53,0,0,1,1.67-.16,3.46,3.46,0,0,1,2.38.77,2.72,2.72,0,0,1,.85,2.14,2.65,2.65,0,0,1-.82,2.15,3.91,3.91,0,0,1-2.54.69,5.12,5.12,0,0,1-1.69-.28,17.29,17.29,0,0,1-1.73-.73l-.61-.31c-.41-.22-.71-.37-.91-.46a2.15,2.15,0,0,0-.77-.12,1.57,1.57,0,0,0-1.28.66,2.48,2.48,0,0,0-.52,1.6,2.33,2.33,0,0,0,.23,1.06,2.74,2.74,0,0,0,.72.84,9.92,9.92,0,0,0,3.13,1.52,12.63,12.63,0,0,0,3.71.55,10,10,0,0,0,4.37-.91,6.87,6.87,0,0,0,2.93-2.6,7.24,7.24,0,0,0,1-3.88,7.37,7.37,0,0,0-.87-3.62,6.17,6.17,0,0,0-2.42-2.44A7,7,0,0,0,29.94,64ZM42.7,50V49.8a2.05,2.05,0,0,0-2.05-2H15.13a2.05,2.05,0,0,0-2.06,2V50A2.06,2.06,0,0,0,15.13,52H40.65A2.05,2.05,0,0,0,42.7,50Z"/><path d="M89.6,21.9C101.45,38,100.65,61.73,86.73,79.46L51.9,50.51V4.14C54.38,4.12,76.59,4.29,89.6,21.9ZM67.78,43H80a5.86,5.86,0,0,0,4.06-1.21,4.25,4.25,0,0,0,1.33-3.34,4.18,4.18,0,0,0-1.33-3.32A6,6,0,0,0,80,34H67.78q-5.4,0-5.4,4.49T67.78,43Z"/></svg>