<svg id="Layer_1" data-name="Layer 1" xmlns="http://www.w3.org/2000/svg" viewBox="0 0 100 100"><title>l19_4_1</title><path d="M61.93,95.05C47.7,99.48,27.85,98.21,14.2,84.67-1.52,69.09-3.21,43,9.2,25.15c13.19-19,36.24-19.94,38.87-20q-.47,23.34-.94,46.68L82.65,82.13A49.65,49.65,0,0,1,61.93,95.05Zm-26.84-57H32.58V23.58a2.63,2.63,0,0,0-.75-2,2.69,2.69,0,0,0-2-.74,5.14,5.14,0,0,0-2.53.77l-4.89,2.84a2.07,2.07,0,0,0-1.07,1.89A2.58,2.58,0,0,0,22,28a1.85,1.85,0,0,0,1.47.75,2.12,2.12,0,0,0,1.07-.3L27,27v11H24.49a3,3,0,0,0-2,.55,2,2,0,0,0-.64,1.65c0,1.5.89,2.26,2.66,2.26h10.6c1.77,0,2.65-.76,2.65-2.26a2,2,0,0,0-.64-1.65A3,3,0,0,0,35.09,38.06Zm-4.82,25.8a5.87,5.87,0,0,0-2.58.56A4.93,4.93,0,0,0,25.81,66,8.2,8.2,0,0,1,27,62a2.91,2.91,0,0,1,2.52-1.42,4.08,4.08,0,0,1,1.4.24c.45.17,1,.41,1.68.74l.68.33c.38.2.69.35.91.44a1.84,1.84,0,0,0,.76.14,1.61,1.61,0,0,0,1.3-.66,2.42,2.42,0,0,0,.54-1.6,2.29,2.29,0,0,0-.23-1.07,2.57,2.57,0,0,0-.75-.82,9.92,9.92,0,0,0-3.07-1.53,11.76,11.76,0,0,0-3.5-.55,8.27,8.27,0,0,0-4.75,1.38,8.84,8.84,0,0,0-3.14,3.92,14.69,14.69,0,0,0-1.12,6c0,3.46.79,6.13,2.35,8A8.19,8.19,0,0,0,29.2,78.3a7.87,7.87,0,0,0,3.88-.94,6.8,6.8,0,0,0,2.67-2.65,7.52,7.52,0,0,0,1-3.83,7.7,7.7,0,0,0-.84-3.62,6.27,6.27,0,0,0-2.31-2.5A6.19,6.19,0,0,0,30.27,63.86ZM28.87,74a2.44,2.44,0,0,1-1.9-.81A3.4,3.4,0,0,1,27,69a2.7,2.7,0,0,1,3.82,0,3.15,3.15,0,0,1,.68,2.13,3,3,0,0,1-.7,2.1A2.4,2.4,0,0,1,28.87,74ZM42.7,50V49.8a2.05,2.05,0,0,0-2.05-2H15.13a2.05,2.05,0,0,0-2.06,2V50A2.06,2.06,0,0,0,15.13,52H40.65A2.05,2.05,0,0,0,42.7,50Z"/><path d="M89.6,21.9C101.45,38,100.65,61.73,86.73,79.46L51.9,50.51V4.14C54.38,4.12,76.59,4.29,89.6,21.9ZM85.91,33.39H77.72V25.2a3.67,3.67,0,0,0-1.1-2.73,3.84,3.84,0,0,0-6.57,2.73v8.19H61.86A3.76,3.76,0,0,0,58,37.22,3.81,3.81,0,0,0,59.13,40a3.66,3.66,0,0,0,2.73,1.14h8.19v8.13A3.89,3.89,0,0,0,76.65,52a3.76,3.76,0,0,0,1.07-2.73V41.12h8.19A3.63,3.63,0,0,0,88.64,40a3.78,3.78,0,0,0,1.11-2.76,3.77,3.77,0,0,0-3.84-3.83Z"/></svg>