<svg id="Layer_1" data-name="Layer 1" xmlns="http://www.w3.org/2000/svg" viewBox="0 0 100 100"><title>l19_1_1</title><path d="M100,50A50,50,0,1,1,50,0,50,50,0,0,1,100,50ZM59.52,31.38H56V11A3.71,3.71,0,0,0,54.94,8.2a3.77,3.77,0,0,0-2.77-1A7.32,7.32,0,0,0,48.6,8.24l-6.88,4a2.92,2.92,0,0,0-1.5,2.67,3.57,3.57,0,0,0,.86,2.34,2.58,2.58,0,0,0,2.06,1.05,2.85,2.85,0,0,0,1.5-.43l3.45-2V31.38H44.6a4.3,4.3,0,0,0-2.84.77,2.9,2.9,0,0,0-.9,2.32q0,3.18,3.74,3.18H59.52c2.5,0,3.74-1.06,3.74-3.18a2.9,2.9,0,0,0-.9-2.32A4.28,4.28,0,0,0,59.52,31.38ZM52.27,67.83A10.82,10.82,0,0,0,48,68.6V63.31H57.3c2.5,0,3.74-1,3.74-3s-1.24-3-3.74-3H44a3.68,3.68,0,0,0-2.71.94A3.74,3.74,0,0,0,40.32,61V72.69a2.34,2.34,0,0,0,.82,1.87,3,3,0,0,0,2,.71,4.17,4.17,0,0,0,1.93-.47A15.43,15.43,0,0,1,47.56,74a12.15,12.15,0,0,1,2.35-.21,4.88,4.88,0,0,1,3.35,1.07,3.84,3.84,0,0,1,1.21,3,3.7,3.7,0,0,1-1.17,3,5.44,5.44,0,0,1-3.56,1,7.09,7.09,0,0,1-2.39-.39,22.41,22.41,0,0,1-2.43-1L44.06,80a12.25,12.25,0,0,0-1.29-.64,2.8,2.8,0,0,0-1.08-.18,2.22,2.22,0,0,0-1.8.93,3.52,3.52,0,0,0-.73,2.26,3.14,3.14,0,0,0,.32,1.48,3.77,3.77,0,0,0,1,1.18,14,14,0,0,0,4.41,2.15,17.75,17.75,0,0,0,5.22.78,14,14,0,0,0,6.15-1.29,9.69,9.69,0,0,0,4.13-3.66,10.2,10.2,0,0,0,1.46-5.46,10.39,10.39,0,0,0-1.22-5.09,8.75,8.75,0,0,0-3.4-3.45A10,10,0,0,0,52.27,67.83ZM70.25,48h0a3,3,0,0,0-3-3H31.55a3,3,0,0,0-3,3h0a3,3,0,0,0,3,3H67.23A3,3,0,0,0,70.25,48Z"/></svg>