<svg id="Layer_1" data-name="Layer 1" xmlns="http://www.w3.org/2000/svg" viewBox="0 0 100 100"><title>l19_4_1</title><path d="M61.93,95.05C47.7,99.48,27.85,98.21,14.2,84.67-1.52,69.09-3.21,43,9.2,25.15c13.19-19,36.24-19.94,38.87-20q-.47,23.34-.94,46.68L82.65,82.13A49.65,49.65,0,0,1,61.93,95.05Zm-26.84-57H32.58V23.58a2.63,2.63,0,0,0-.75-2,2.69,2.69,0,0,0-2-.74,5.14,5.14,0,0,0-2.53.77l-4.89,2.84a2.07,2.07,0,0,0-1.07,1.89A2.53,2.53,0,0,0,22,28a1.85,1.85,0,0,0,1.47.75,2.14,2.14,0,0,0,1.07-.3L27,27v11H24.49a3,3,0,0,0-2,.55,2,2,0,0,0-.64,1.65c0,1.5.89,2.26,2.66,2.26h10.6c1.77,0,2.65-.76,2.65-2.26a2,2,0,0,0-.64-1.65A3,3,0,0,0,35.09,38.06ZM25.75,73.57h-2.5V59.09a2.65,2.65,0,0,0-.75-2,2.7,2.7,0,0,0-2-.74,5.18,5.18,0,0,0-2.54.77L13.11,60A2.06,2.06,0,0,0,12,61.87a2.57,2.57,0,0,0,.61,1.67,1.82,1.82,0,0,0,1.46.74,2.09,2.09,0,0,0,1.07-.3l2.45-1.44v11H15.15a3,3,0,0,0-2,.55,2.06,2.06,0,0,0-.64,1.65c0,1.51.88,2.26,2.65,2.26h10.6c1.77,0,2.66-.75,2.66-2.26a2.09,2.09,0,0,0-.64-1.65A3,3,0,0,0,25.75,73.57ZM37.6,78.3a7.12,7.12,0,0,0,6.11-2.84c1.4-1.89,2.11-4.63,2.11-8.21s-.71-6.29-2.13-8.19a7.14,7.14,0,0,0-6.09-2.84,7.15,7.15,0,0,0-6.11,2.84c-1.4,1.9-2.1,4.62-2.1,8.19s.7,6.32,2.1,8.21A7.13,7.13,0,0,0,37.6,78.3Zm0-4.24a2.19,2.19,0,0,1-2.11-1.59,15.4,15.4,0,0,1-.64-5.22A15.26,15.26,0,0,1,35.49,62a2.2,2.2,0,0,1,4.22,0,15.06,15.06,0,0,1,.64,5.2,15.15,15.15,0,0,1-.64,5.22A2.19,2.19,0,0,1,37.6,74.06ZM42.7,50V49.8a2.05,2.05,0,0,0-2.05-2H15.13a2.05,2.05,0,0,0-2.06,2V50A2.06,2.06,0,0,0,15.13,52H40.65A2.05,2.05,0,0,0,42.7,50Z"/><path d="M89.6,21.9C101.45,38,100.65,61.73,86.73,79.46L51.9,50.51V4.14C54.38,4.12,76.59,4.29,89.6,21.9ZM85.91,33.39H77.72V25.2a3.84,3.84,0,1,0-7.67,0v8.19H61.86A3.76,3.76,0,0,0,58,37.22,3.85,3.85,0,0,0,59.13,40a3.69,3.69,0,0,0,2.73,1.13h8.19v8.13A3.89,3.89,0,0,0,76.65,52a3.76,3.76,0,0,0,1.07-2.73V41.12h8.19A3.66,3.66,0,0,0,88.64,40a3.82,3.82,0,0,0,1.11-2.77,3.77,3.77,0,0,0-3.84-3.83Z"/></svg>