<svg id="Layer_1" data-name="Layer 1" xmlns="http://www.w3.org/2000/svg" viewBox="0 0 100 100"><title>l19_4_1</title><path d="M61.93,95.05C47.7,99.48,27.85,98.21,14.2,84.67-1.52,69.09-3.21,43,9.2,25.15c13.19-19,36.24-19.94,38.87-20q-.47,23.34-.94,46.68L82.65,82.13A49.65,49.65,0,0,1,61.93,95.05Zm-27.65-57H28.14l4.33-4.43A14,14,0,0,0,35,30.19a7.64,7.64,0,0,0,.75-3.4,5.59,5.59,0,0,0-.93-3.19,5.94,5.94,0,0,0-2.64-2.14,9.8,9.8,0,0,0-4-.75,12.39,12.39,0,0,0-6.75,2.08,2,2,0,0,0-.75.79,2.67,2.67,0,0,0-.2,1.1,2.58,2.58,0,0,0,.52,1.63,1.57,1.57,0,0,0,1.28.69,1.81,1.81,0,0,0,.58-.09,3.41,3.41,0,0,0,.63-.29l.47-.26.61-.31a15.65,15.65,0,0,1,1.73-.74A4.76,4.76,0,0,1,28,25.05a2.4,2.4,0,0,1,1.7.55,2,2,0,0,1,.6,1.58,5.94,5.94,0,0,1-2,3.88l-6.48,6.75a3.37,3.37,0,0,0-1,2.39,2.27,2.27,0,0,0,.64,1.66,2.31,2.31,0,0,0,1.74.66H34.28a3.12,3.12,0,0,0,2-.55,2.14,2.14,0,0,0,.65-1.71,2,2,0,0,0-.65-1.67A3.18,3.18,0,0,0,34.28,38.06Zm-6.6,18.16a7.88,7.88,0,0,0-3.88,1,6.87,6.87,0,0,0-2.68,2.64A8.17,8.17,0,0,0,21,67.26a6.3,6.3,0,0,0,2.31,2.51,6.19,6.19,0,0,0,3.3.9,5.87,5.87,0,0,0,2.58-.57,4.84,4.84,0,0,0,1.88-1.54,8.25,8.25,0,0,1-1.15,4A2.94,2.94,0,0,1,27.4,74a4.08,4.08,0,0,1-1.4-.25c-.45-.16-1-.41-1.68-.73l-.68-.34c-.38-.2-.69-.35-.91-.44a2.07,2.07,0,0,0-.77-.14,1.61,1.61,0,0,0-1.29.66,2.44,2.44,0,0,0-.54,1.6,2.26,2.26,0,0,0,.23,1.07,2.59,2.59,0,0,0,.75.83,9.59,9.59,0,0,0,3.07,1.52,11.76,11.76,0,0,0,3.5.55,8.34,8.34,0,0,0,4.75-1.37A8.93,8.93,0,0,0,35.57,73a14.86,14.86,0,0,0,1.12-6c0-3.46-.79-6.12-2.36-8A8.18,8.18,0,0,0,27.68,56.22ZM28,66.33a2.42,2.42,0,0,1-1.91-.78,3.12,3.12,0,0,1-.68-2.12,3.05,3.05,0,0,1,.7-2.11A2.4,2.4,0,0,1,28,60.53a2.44,2.44,0,0,1,1.9.81,3.4,3.4,0,0,1,0,4.2A2.44,2.44,0,0,1,28,66.33ZM42.7,50V49.8a2.05,2.05,0,0,0-2.05-2H15.13a2.05,2.05,0,0,0-2.06,2V50A2.06,2.06,0,0,0,15.13,52H40.65A2.05,2.05,0,0,0,42.7,50Z"/><path d="M89.6,21.9C101.45,38,100.65,61.73,86.73,79.46L51.9,50.51V4.14C54.38,4.12,76.59,4.29,89.6,21.9ZM85.91,33.39H77.72V25.2a3.84,3.84,0,1,0-7.67,0v8.19H61.86A3.76,3.76,0,0,0,58,37.22,3.85,3.85,0,0,0,59.13,40a3.69,3.69,0,0,0,2.73,1.13h8.19v8.13A3.89,3.89,0,0,0,76.65,52a3.76,3.76,0,0,0,1.07-2.73V41.12h8.19A3.66,3.66,0,0,0,88.64,40a3.82,3.82,0,0,0,1.11-2.77,3.77,3.77,0,0,0-3.84-3.83Z"/></svg>