<svg id="Layer_1" data-name="Layer 1" xmlns="http://www.w3.org/2000/svg" viewBox="0 0 100 100"><title>l19_3_1</title><path d="M53.35,1.59l-.21,46.18L90.75,22.72A34.34,34.34,0,0,0,73.62,4.07,33.68,33.68,0,0,0,53.35,1.59Z"/><path d="M85.55,82.12c-16.3,20.25-49.86,23.09-69.28,4C.05,70.23-1.87,43.39,11.44,25.53S47.33,7.23,50.07,7.23q.07,23.45.16,46.87l38.4-26C98.54,46.14,97.21,67.65,85.55,82.12ZM37.17,40.52h-2.5V26a2.65,2.65,0,0,0-.75-2,2.74,2.74,0,0,0-2-.73,5.26,5.26,0,0,0-2.54.76l-4.88,2.85a2,2,0,0,0-1.07,1.89,2.54,2.54,0,0,0,.61,1.66,1.83,1.83,0,0,0,1.46.75,2.09,2.09,0,0,0,1.07-.3l2.45-1.44v11H26.57a3,3,0,0,0-2,.55,2,2,0,0,0-.64,1.65c0,1.5.88,2.26,2.65,2.26h10.6c1.77,0,2.66-.76,2.66-2.26a2.06,2.06,0,0,0-.64-1.65A3,3,0,0,0,37.17,40.52ZM29.76,58.68a7.91,7.91,0,0,0-3.88,1,6.78,6.78,0,0,0-2.67,2.64,8.17,8.17,0,0,0-.12,7.45,6.42,6.42,0,0,0,2.3,2.51,6.19,6.19,0,0,0,3.3.9,5.81,5.81,0,0,0,2.58-.57A4.77,4.77,0,0,0,33.15,71,8.07,8.07,0,0,1,32,75a2.93,2.93,0,0,1-2.52,1.42,4.18,4.18,0,0,1-1.41-.24c-.45-.16-1-.41-1.68-.73l-.67-.34c-.39-.2-.69-.35-.92-.44a2,2,0,0,0-.76-.14,1.62,1.62,0,0,0-1.3.66,2.49,2.49,0,0,0-.53,1.6,2.15,2.15,0,0,0,.23,1.07,2.67,2.67,0,0,0,.74.83,9.69,9.69,0,0,0,3.07,1.52,11.81,11.81,0,0,0,3.5.55,8.31,8.31,0,0,0,4.75-1.37,9,9,0,0,0,3.15-3.93,14.86,14.86,0,0,0,1.11-6q0-5.19-2.35-8A8.22,8.22,0,0,0,29.76,58.68Zm.34,10.11A2.41,2.41,0,0,1,28.19,68a3.57,3.57,0,0,1,0-4.23A2.4,2.4,0,0,1,30.1,63,2.44,2.44,0,0,1,32,63.8a3,3,0,0,1,.73,2.09A3.08,3.08,0,0,1,32,68,2.45,2.45,0,0,1,30.1,68.79ZM44.79,52.44v-.18a2.05,2.05,0,0,0-2.06-2H17.21a2.05,2.05,0,0,0-2.05,2v.18a2.05,2.05,0,0,0,2.05,2.06H42.73A2.06,2.06,0,0,0,44.79,52.44Z"/></svg>