<svg id="Layer_1" data-name="Layer 1" xmlns="http://www.w3.org/2000/svg" viewBox="0 0 100 100"><title>l19_1_1</title><path d="M100,50A50,50,0,1,1,50,0,50,50,0,0,1,100,50ZM59.52,31.38H56V11A3.71,3.71,0,0,0,54.94,8.2a3.77,3.77,0,0,0-2.77-1A7.32,7.32,0,0,0,48.6,8.24l-6.88,4a2.92,2.92,0,0,0-1.5,2.67,3.57,3.57,0,0,0,.86,2.34,2.58,2.58,0,0,0,2.06,1.05,2.85,2.85,0,0,0,1.5-.43l3.45-2V31.38H44.6a4.36,4.36,0,0,0-2.84.77,2.9,2.9,0,0,0-.9,2.32q0,3.18,3.74,3.18H59.52c2.5,0,3.74-1.06,3.74-3.18a2.9,2.9,0,0,0-.9-2.32A4.34,4.34,0,0,0,59.52,31.38Zm-.11,45.14h-.94V61a3.64,3.64,0,0,0-1.17-2.88,4,4,0,0,0-2.79-1,4.36,4.36,0,0,0-1.92.45,4,4,0,0,0-1.52,1.31L38.77,76.39a4.81,4.81,0,0,0-1,2.83,3.31,3.31,0,0,0,.91,2.37,3.23,3.23,0,0,0,2.45,1h9.59V84a3.82,3.82,0,0,0,1,2.92,3.88,3.88,0,0,0,2.77,1,4,4,0,0,0,2.8-1A3.76,3.76,0,0,0,58.47,84V82.54h.94q3.73,0,3.74-3.06C63.15,77.5,61.9,76.52,59.41,76.52Zm-13.8,0,5.16-7.44v7.44ZM70.25,48h0a3,3,0,0,0-3-3H31.55a3,3,0,0,0-3,3h0a3,3,0,0,0,3,3H67.23A3,3,0,0,0,70.25,48Z"/></svg>