<svg id="Layer_1" data-name="Layer 1" xmlns="http://www.w3.org/2000/svg" viewBox="0 0 100 100"><title>l19_5_1</title><path d="M61.93,95.05C47.7,99.48,27.85,98.21,14.2,84.67-1.52,69.09-3.21,43,9.2,25.15c13.19-19,36.24-19.94,38.87-20q-.47,23.34-.94,46.68L82.65,82.13A49.65,49.65,0,0,1,61.93,95.05Zm-26.84-57H32.58V23.58a2.63,2.63,0,0,0-.75-2,2.69,2.69,0,0,0-2-.74,5.14,5.14,0,0,0-2.53.77l-4.89,2.84a2.07,2.07,0,0,0-1.07,1.89A2.58,2.58,0,0,0,22,28a1.85,1.85,0,0,0,1.47.75,2.12,2.12,0,0,0,1.07-.3L27,27v11H24.49a3,3,0,0,0-2,.55,2,2,0,0,0-.64,1.65c0,1.5.89,2.26,2.66,2.26h10.6c1.77,0,2.65-.76,2.65-2.26a2,2,0,0,0-.64-1.65A3,3,0,0,0,35.09,38.06Zm-2,28.88a4.54,4.54,0,0,0,2.4-1.8,5.31,5.31,0,0,0,.87-3,5.07,5.07,0,0,0-2.12-4.3,9.61,9.61,0,0,0-5.79-1.57,9.58,9.58,0,0,0-5.77,1.57,5,5,0,0,0-2.14,4.3,5.16,5.16,0,0,0,.85,3,5,5,0,0,0,2.45,1.88A5.09,5.09,0,0,0,21,68.76a5.81,5.81,0,0,0,1.26,7.88,10.48,10.48,0,0,0,6.22,1.63,10.48,10.48,0,0,0,6.22-1.63,5.29,5.29,0,0,0,2.27-4.54,5,5,0,0,0-3.85-5.16ZM28.44,74c-2.22,0-3.33-.8-3.33-2.38s1.11-2.39,3.33-2.39,3.33.8,3.33,2.39S30.66,74,28.44,74Zm0-13.56a3.31,3.31,0,0,1,2,.53,2.1,2.1,0,0,1,.67,1.73,2.15,2.15,0,0,1-.67,1.74,3.24,3.24,0,0,1-2,.55,3.24,3.24,0,0,1-2.05-.55,2.12,2.12,0,0,1-.67-1.74A2.07,2.07,0,0,1,26.39,61,3.31,3.31,0,0,1,28.44,60.47ZM42.7,50V49.8a2.05,2.05,0,0,0-2.05-2H15.13a2.05,2.05,0,0,0-2.06,2V50A2.06,2.06,0,0,0,15.13,52H40.65A2.05,2.05,0,0,0,42.7,50Z"/><path d="M89.6,21.9C101.45,38,100.65,61.73,86.73,79.46L51.9,50.51V4.14C54.38,4.12,76.59,4.29,89.6,21.9ZM67.78,43H80a5.86,5.86,0,0,0,4.06-1.21,4.25,4.25,0,0,0,1.33-3.34,4.18,4.18,0,0,0-1.33-3.32A6,6,0,0,0,80,34H67.78q-5.4,0-5.4,4.49T67.78,43Z"/></svg>