<svg id="Layer_1" data-name="Layer 1" xmlns="http://www.w3.org/2000/svg" viewBox="0 0 100 100"><title>l19_5_1</title><path d="M61.93,95.05C47.7,99.48,27.85,98.21,14.2,84.67-1.52,69.09-3.21,43,9.2,25.15c13.19-19,36.24-19.94,38.87-20q-.47,23.34-.94,46.68L82.65,82.13A49.65,49.65,0,0,1,61.93,95.05Zm-26.84-57H32.58V23.58a2.63,2.63,0,0,0-.75-2,2.69,2.69,0,0,0-2-.74,5.14,5.14,0,0,0-2.53.77l-4.89,2.84a2.06,2.06,0,0,0-1.07,1.89A2.54,2.54,0,0,0,22,28a1.85,1.85,0,0,0,1.47.75,2.12,2.12,0,0,0,1.07-.3L27,27v11H24.49a3,3,0,0,0-2,.55,2,2,0,0,0-.64,1.65c0,1.5.89,2.26,2.66,2.26h10.6c1.77,0,2.65-.76,2.65-2.26a2,2,0,0,0-.64-1.65A3,3,0,0,0,35.09,38.06ZM27.68,56.22a7.88,7.88,0,0,0-3.88,1,6.87,6.87,0,0,0-2.68,2.64A8.17,8.17,0,0,0,21,67.26a6.3,6.3,0,0,0,2.31,2.51,6.19,6.19,0,0,0,3.3.9,5.87,5.87,0,0,0,2.58-.57,4.84,4.84,0,0,0,1.88-1.54,8.25,8.25,0,0,1-1.15,4A2.94,2.94,0,0,1,27.4,74a4.08,4.08,0,0,1-1.4-.25c-.45-.16-1-.41-1.68-.73l-.68-.34c-.38-.2-.69-.35-.91-.44a2.07,2.07,0,0,0-.77-.14,1.61,1.61,0,0,0-1.29.66,2.44,2.44,0,0,0-.54,1.6,2.26,2.26,0,0,0,.23,1.07,2.59,2.59,0,0,0,.75.83,9.59,9.59,0,0,0,3.07,1.52,11.76,11.76,0,0,0,3.5.55,8.34,8.34,0,0,0,4.75-1.37A8.93,8.93,0,0,0,35.57,73a14.86,14.86,0,0,0,1.12-6q0-5.19-2.36-8A8.18,8.18,0,0,0,27.68,56.22ZM28,66.33a2.42,2.42,0,0,1-1.91-.78,3.14,3.14,0,0,1-.68-2.12,3.05,3.05,0,0,1,.7-2.11A2.4,2.4,0,0,1,28,60.53a2.44,2.44,0,0,1,1.9.81,3.4,3.4,0,0,1,0,4.2A2.44,2.44,0,0,1,28,66.33ZM42.7,50V49.8a2.05,2.05,0,0,0-2.05-2H15.13a2.05,2.05,0,0,0-2.06,2V50A2.06,2.06,0,0,0,15.13,52H40.65A2.05,2.05,0,0,0,42.7,50Z"/><path d="M89.6,21.9C101.45,38,100.65,61.73,86.73,79.46L51.9,50.51V4.14C54.38,4.12,76.59,4.29,89.6,21.9ZM67.78,43H80a5.86,5.86,0,0,0,4.06-1.21,4.25,4.25,0,0,0,1.33-3.34,4.18,4.18,0,0,0-1.33-3.32A6,6,0,0,0,80,34H67.78q-5.4,0-5.4,4.49T67.78,43Z"/></svg>