<svg id="Layer_1" data-name="Layer 1" xmlns="http://www.w3.org/2000/svg" viewBox="0 0 100 100"><title>l19_2_1</title><path d="M100,50.06a50,50,0,1,1-50-50A50,50,0,0,1,100,50.06ZM59.52,31.44H56V11.05a3.75,3.75,0,0,0-1.06-2.79,3.77,3.77,0,0,0-2.77-1A7.32,7.32,0,0,0,48.6,8.3l-6.88,4A2.92,2.92,0,0,0,40.22,15a3.57,3.57,0,0,0,.86,2.34,2.58,2.58,0,0,0,2.06,1.05,2.85,2.85,0,0,0,1.5-.43l3.44-2V31.44H44.6a4.3,4.3,0,0,0-2.84.77,2.9,2.9,0,0,0-.9,2.32q0,3.18,3.74,3.18H59.52c2.5,0,3.74-1.06,3.74-3.18a2.9,2.9,0,0,0-.9-2.32A4.28,4.28,0,0,0,59.52,31.44Zm-13.14,50H42.85V61.05a3.74,3.74,0,0,0-1.05-2.79,3.79,3.79,0,0,0-2.77-1,7.24,7.24,0,0,0-3.57,1.08l-6.88,4A2.91,2.91,0,0,0,27.07,65a3.62,3.62,0,0,0,.86,2.34,2.6,2.6,0,0,0,2.07,1,2.88,2.88,0,0,0,1.5-.43l3.44-2V81.43H31.46a4.28,4.28,0,0,0-2.84.78,2.89,2.89,0,0,0-.9,2.32q0,3.18,3.74,3.18H46.38q3.73,0,3.74-3.18a2.89,2.89,0,0,0-.9-2.32A4.28,4.28,0,0,0,46.38,81.43ZM63.06,88.1q5.64,0,8.6-4t3-11.57q0-7.52-3-11.52a10,10,0,0,0-8.58-4,10,10,0,0,0-8.6,4q-3,4-3,11.52t3,11.57A10,10,0,0,0,63.06,88.1Zm0-6a3.07,3.07,0,0,1-3-2.23,21.47,21.47,0,0,1-.91-7.36,21.23,21.23,0,0,1,.91-7.33,3.09,3.09,0,0,1,5.93,0,21.31,21.31,0,0,1,.9,7.31,21.52,21.52,0,0,1-.9,7.36A3.07,3.07,0,0,1,63.06,82.12Zm7.19-34h0a3,3,0,0,0-3-3H31.55a3,3,0,0,0-3,3h0a3,3,0,0,0,3,3H67.23A3,3,0,0,0,70.25,48.1Z"/></svg>