<svg id="Layer_1" data-name="Layer 1" xmlns="http://www.w3.org/2000/svg" viewBox="0 0 100 100"><title>l19_3_1</title><path d="M69.78,3.51,54.12,47.34l45.1-2.87a39.85,39.85,0,0,0-29.44-41Z"/><path d="M61.74,95.8A46.19,46.19,0,0,1,14,85.42C-1.47,70-3.84,44.34,9,25.9,20.8,9,42.9,1.74,63.09,8.4Q55.82,30.14,48.53,51.88L92.71,50C93,70.7,80.37,89.11,61.74,95.8ZM33.34,39.16H30.83V24.68A2.56,2.56,0,0,0,28.11,22a5.14,5.14,0,0,0-2.53.77l-4.89,2.84a2.08,2.08,0,0,0-1.07,1.89,2.63,2.63,0,0,0,.61,1.67,1.84,1.84,0,0,0,1.47.74,2.12,2.12,0,0,0,1.07-.3l2.44-1.44v11H22.74a3,3,0,0,0-2,.55,2.09,2.09,0,0,0-.64,1.65c0,1.51.89,2.26,2.66,2.26h10.6c1.77,0,2.65-.75,2.65-2.26a2.06,2.06,0,0,0-.64-1.65A3,3,0,0,0,33.34,39.16ZM32.86,57.6h-12a3,3,0,0,0-2,.56,2.14,2.14,0,0,0-.64,1.7,2.08,2.08,0,0,0,.63,1.65,3.06,3.06,0,0,0,2,.55h7.63l-7.85,13.4a2.94,2.94,0,0,0-.42,1.47,2.25,2.25,0,0,0,.82,1.76,2.79,2.79,0,0,0,1.9.71,2.53,2.53,0,0,0,1.29-.35A2.82,2.82,0,0,0,25.32,78l9.25-16a3.85,3.85,0,0,0,.58-2,2.43,2.43,0,0,0-.59-1.67A2.21,2.21,0,0,0,32.86,57.6ZM41,51.08V50.9a2.05,2.05,0,0,0-2.05-2H13.38a2.05,2.05,0,0,0-2.06,2v.18a2.06,2.06,0,0,0,2.06,2.06H38.9A2.05,2.05,0,0,0,41,51.08Z"/></svg>