<svg id="Layer_1" data-name="Layer 1" xmlns="http://www.w3.org/2000/svg" viewBox="0 0 100 100"><title>l19_4_1</title><path d="M61.93,95.05C47.7,99.48,27.85,98.21,14.2,84.67-1.52,69.09-3.21,43,9.2,25.15c13.19-19,36.24-19.94,38.87-20q-.47,23.34-.94,46.68L82.65,82.13A49.65,49.65,0,0,1,61.93,95.05Zm-26.84-57H32.58V23.58a2.63,2.63,0,0,0-.75-2,2.69,2.69,0,0,0-2-.74,5.14,5.14,0,0,0-2.53.77l-4.89,2.84a2.07,2.07,0,0,0-1.07,1.89A2.58,2.58,0,0,0,22,28a1.85,1.85,0,0,0,1.47.75,2.12,2.12,0,0,0,1.07-.3L27,27v11H24.49a3,3,0,0,0-2,.55,2,2,0,0,0-.64,1.65c0,1.5.89,2.26,2.66,2.26h10.6c1.77,0,2.65-.76,2.65-2.26a2,2,0,0,0-.64-1.65A3,3,0,0,0,35.09,38.06ZM34.61,56.5h-12a3,3,0,0,0-2,.56,2.14,2.14,0,0,0-.64,1.7,2.08,2.08,0,0,0,.63,1.65,3.06,3.06,0,0,0,2,.55h7.63l-7.85,13.4A2.94,2.94,0,0,0,22,75.83a2.25,2.25,0,0,0,.82,1.76,2.83,2.83,0,0,0,1.89.71A2.54,2.54,0,0,0,26,78a2.82,2.82,0,0,0,1.06-1.08l9.25-16a3.85,3.85,0,0,0,.58-2,2.39,2.39,0,0,0-.6-1.67A2.14,2.14,0,0,0,34.61,56.5ZM42.7,50V49.8a2.05,2.05,0,0,0-2.05-2H15.13a2.05,2.05,0,0,0-2.06,2V50A2.06,2.06,0,0,0,15.13,52H40.65A2.05,2.05,0,0,0,42.7,50Z"/><path d="M89.6,21.9C101.45,38,100.65,61.73,86.73,79.46L51.9,50.51V4.14C54.38,4.12,76.59,4.29,89.6,21.9ZM85.91,33.39H77.72V25.2a3.84,3.84,0,1,0-7.67,0v8.19H61.86A3.76,3.76,0,0,0,58,37.22,3.85,3.85,0,0,0,59.13,40a3.69,3.69,0,0,0,2.73,1.13h8.19v8.13A3.89,3.89,0,0,0,76.65,52a3.76,3.76,0,0,0,1.07-2.73V41.12h8.19A3.66,3.66,0,0,0,88.64,40a3.82,3.82,0,0,0,1.11-2.77,3.77,3.77,0,0,0-3.84-3.83Z"/></svg>