<svg id="Layer_1" data-name="Layer 1" xmlns="http://www.w3.org/2000/svg" viewBox="0 0 100 100"><title>l19_3_1</title><path d="M53.94,2.14l-.21,46.18,37.61-25A34.34,34.34,0,0,0,74.21,4.62,33.68,33.68,0,0,0,53.94,2.14Z"/><path d="M86.14,82.67c-16.3,20.25-49.86,23.08-69.28,4C.64,70.78-1.28,43.93,12,26.08S47.92,7.77,50.66,7.78q.08,23.43.16,46.87l38.4-26C99.13,46.69,97.8,68.2,86.14,82.67ZM38.22,40.06H35.71V25.59a2.65,2.65,0,0,0-.74-2,2.7,2.7,0,0,0-2-.73,5.16,5.16,0,0,0-2.54.76l-4.89,2.84a2.08,2.08,0,0,0-1.06,1.9A2.54,2.54,0,0,0,25.12,30a1.82,1.82,0,0,0,1.46.75,2,2,0,0,0,1.07-.31L30.1,29v11H27.62a3.1,3.1,0,0,0-2,.55A2.09,2.09,0,0,0,25,42.26c0,1.51.89,2.26,2.66,2.26h10.6c1.77,0,2.66-.75,2.66-2.26a2.06,2.06,0,0,0-.65-1.65A3.06,3.06,0,0,0,38.22,40.06ZM36.22,69a4.66,4.66,0,0,0,2.39-1.8,5.34,5.34,0,0,0,.87-3.06,5,5,0,0,0-2.12-4.29,9.5,9.5,0,0,0-5.79-1.57A9.54,9.54,0,0,0,25.8,59.8a5.06,5.06,0,0,0-2.14,4.29,5.22,5.22,0,0,0,.86,3A5.06,5.06,0,0,0,27,69a5.07,5.07,0,0,0-2.87,1.81,5.42,5.42,0,0,0-1,3.35,5.25,5.25,0,0,0,2.28,4.53,10.45,10.45,0,0,0,6.21,1.64,10.48,10.48,0,0,0,6.22-1.64,5.24,5.24,0,0,0,2.27-4.53,5.33,5.33,0,0,0-1-3.28A5.23,5.23,0,0,0,36.22,69ZM31.57,76c-2.22,0-3.33-.79-3.33-2.38s1.11-2.38,3.33-2.38,3.33.79,3.33,2.38S33.79,76,31.57,76Zm0-13.56a3.24,3.24,0,0,1,2,.54,2.05,2.05,0,0,1,.67,1.72,2.1,2.1,0,0,1-.67,1.74,3.18,3.18,0,0,1-2,.55,3.15,3.15,0,0,1-2-.55,2.1,2.1,0,0,1-.68-1.74A2.06,2.06,0,0,1,29.53,63,3.21,3.21,0,0,1,31.57,62.47ZM45.84,52v-.18a2.06,2.06,0,0,0-2.06-2.06H18.26a2.05,2.05,0,0,0-2.05,2.06V52a2.05,2.05,0,0,0,2.05,2H43.78A2.05,2.05,0,0,0,45.84,52Z"/></svg>