<svg id="Layer_1" data-name="Layer 1" xmlns="http://www.w3.org/2000/svg" viewBox="0 0 100 100"><title>l19_2_1</title><path d="M100,50A50,50,0,1,1,50,0,50,50,0,0,1,100,50ZM59.52,31.38H56V11A3.71,3.71,0,0,0,54.94,8.2a3.77,3.77,0,0,0-2.77-1A7.32,7.32,0,0,0,48.6,8.24l-6.88,4a2.92,2.92,0,0,0-1.5,2.67,3.57,3.57,0,0,0,.86,2.34,2.59,2.59,0,0,0,2.06,1.06,2.87,2.87,0,0,0,1.5-.44l3.44-2V31.38H44.6a4.36,4.36,0,0,0-2.84.77,2.9,2.9,0,0,0-.9,2.32c0,2.12,1.25,3.19,3.74,3.19H59.52c2.5,0,3.74-1.07,3.74-3.19a2.9,2.9,0,0,0-.9-2.32A4.34,4.34,0,0,0,59.52,31.38Zm-.67,26H42a4.23,4.23,0,0,0-2.84.79,3,3,0,0,0-.91,2.39,2.91,2.91,0,0,0,.89,2.32,4.25,4.25,0,0,0,2.86.78H52.75L41.69,82.49a4.1,4.1,0,0,0-.6,2.07A3.16,3.16,0,0,0,42.25,87a4,4,0,0,0,2.67,1,3.8,3.8,0,0,0,1.83-.49A4,4,0,0,0,48.23,86l13-22.58a5.5,5.5,0,0,0,.82-2.83,3.37,3.37,0,0,0-.84-2.35A3.09,3.09,0,0,0,58.85,57.34ZM70.25,48h0a3,3,0,0,0-3-3H31.55a3,3,0,0,0-3,3h0a3,3,0,0,0,3,3H67.23A3,3,0,0,0,70.25,48Z"/></svg>