<svg id="Layer_1" data-name="Layer 1" xmlns="http://www.w3.org/2000/svg" viewBox="0 0 100 100"><title>l19_2_1</title><path d="M100,50A50,50,0,1,1,50,0,50,50,0,0,1,100,50ZM58.38,31.38H49.74l6.11-6.24a20.38,20.38,0,0,0,3.59-4.84,10.82,10.82,0,0,0,1.05-4.79A7.9,7.9,0,0,0,59.18,11a8.4,8.4,0,0,0-3.72-3A13.73,13.73,0,0,0,49.87,7a16.71,16.71,0,0,0-5,.78,16.33,16.33,0,0,0-4.53,2.15A2.83,2.83,0,0,0,39.31,11,3.84,3.84,0,0,0,39,12.54a3.74,3.74,0,0,0,.73,2.3,2.19,2.19,0,0,0,1.81,1,2.47,2.47,0,0,0,.82-.13,4.74,4.74,0,0,0,.88-.41l.66-.36.86-.43a22.29,22.29,0,0,1,2.43-1.06,7.11,7.11,0,0,1,2.3-.36,3.42,3.42,0,0,1,2.39.77,2.9,2.9,0,0,1,.84,2.24q0,2.49-2.84,5.46L40.79,31a4.74,4.74,0,0,0-1.46,3.36,3.2,3.2,0,0,0,.91,2.34,3.25,3.25,0,0,0,2.45.92H58.38a4.31,4.31,0,0,0,2.82-.77,3,3,0,0,0,.92-2.41,2.82,2.82,0,0,0-.92-2.34A4.44,4.44,0,0,0,58.38,31.38Zm-12,50H42.86V61A3.59,3.59,0,0,0,39,57.17a7.22,7.22,0,0,0-3.57,1.07l-6.88,4a2.93,2.93,0,0,0-1.51,2.67,3.62,3.62,0,0,0,.86,2.34,2.61,2.61,0,0,0,2.07,1,2.88,2.88,0,0,0,1.5-.43l3.44-2V81.37H31.46a4.28,4.28,0,0,0-2.84.78,2.89,2.89,0,0,0-.9,2.32q0,3.18,3.74,3.18H46.38c2.5,0,3.74-1.06,3.74-3.18a2.89,2.89,0,0,0-.9-2.32A4.28,4.28,0,0,0,46.38,81.37ZM63.07,88a10,10,0,0,0,8.6-4q3-4,3-11.57T71.64,61a10,10,0,0,0-8.57-4q-5.64,0-8.61,4t-3,11.52q0,7.57,3,11.57T63.07,88Zm0-6a3.07,3.07,0,0,1-3-2.23,21.52,21.52,0,0,1-.9-7.36,21.28,21.28,0,0,1,.9-7.33,3.09,3.09,0,0,1,5.93,0,21.31,21.31,0,0,1,.9,7.31,21.52,21.52,0,0,1-.9,7.36A3.07,3.07,0,0,1,63.07,82.06Zm7.18-34h0a3,3,0,0,0-3-3H31.55a3,3,0,0,0-3,3h0a3,3,0,0,0,3,3H67.23A3,3,0,0,0,70.25,48Z"/></svg>