<svg id="Layer_1" data-name="Layer 1" xmlns="http://www.w3.org/2000/svg" viewBox="0 0 100 100"><title>l19_2_1</title><path d="M100,50A50,50,0,1,1,50,0,50,50,0,0,1,100,50ZM53,17.7a8.33,8.33,0,0,0-3.64.8,6.81,6.81,0,0,0-2.64,2.17,11.42,11.42,0,0,1,1.61-5.61,4.13,4.13,0,0,1,3.55-2,5.72,5.72,0,0,1,2,.34,25.65,25.65,0,0,1,2.36,1l.95.47a13.7,13.7,0,0,0,1.29.62,2.76,2.76,0,0,0,1.07.2,2.27,2.27,0,0,0,1.83-.93,3.48,3.48,0,0,0,.75-2.26,3.08,3.08,0,0,0-.32-1.5,3.72,3.72,0,0,0-1.05-1.16,13.66,13.66,0,0,0-4.32-2.15A16.61,16.61,0,0,0,51.48,7a11.67,11.67,0,0,0-6.69,1.94,12.51,12.51,0,0,0-4.42,5.52,20.83,20.83,0,0,0-1.57,8.41q0,7.31,3.31,11.27T51.48,38a11,11,0,0,0,5.46-1.33A9.63,9.63,0,0,0,60.71,33a10.77,10.77,0,0,0,1.35-5.4,10.76,10.76,0,0,0-1.18-5.09A8.87,8.87,0,0,0,57.63,19,8.74,8.74,0,0,0,53,17.7ZM51,32a3.44,3.44,0,0,1-2.67-1.14,4.26,4.26,0,0,1-1-2.95,4.25,4.25,0,0,1,1-3A3.43,3.43,0,0,1,51,23.81a3.38,3.38,0,0,1,2.69,1.1,4.36,4.36,0,0,1,1,3,4.3,4.3,0,0,1-1,3A3.35,3.35,0,0,1,51,32Zm7.84,25.36H42a4.23,4.23,0,0,0-2.84.79,3,3,0,0,0-.91,2.39,2.91,2.91,0,0,0,.89,2.32,4.25,4.25,0,0,0,2.86.78H52.75L41.69,82.49a4.1,4.1,0,0,0-.6,2.07A3.16,3.16,0,0,0,42.25,87a4,4,0,0,0,2.67,1,3.8,3.8,0,0,0,1.83-.49A4,4,0,0,0,48.23,86l13-22.58a5.5,5.5,0,0,0,.82-2.83,3.37,3.37,0,0,0-.84-2.35A3.09,3.09,0,0,0,58.85,57.34ZM70.25,48h0a3,3,0,0,0-3-3H31.55a3,3,0,0,0-3,3h0a3,3,0,0,0,3,3H67.23A3,3,0,0,0,70.25,48Z"/></svg>