<svg id="Layer_1" data-name="Layer 1" xmlns="http://www.w3.org/2000/svg" viewBox="0 0 100 100"><title>l19_2_1</title><path d="M100,50A50,50,0,1,1,50,0,50,50,0,0,1,100,50ZM59.52,31.38H56V11A3.71,3.71,0,0,0,54.94,8.2a3.77,3.77,0,0,0-2.77-1A7.32,7.32,0,0,0,48.6,8.24l-6.88,4a2.92,2.92,0,0,0-1.5,2.67,3.57,3.57,0,0,0,.86,2.34,2.58,2.58,0,0,0,2.06,1.05,2.85,2.85,0,0,0,1.5-.43l3.44-2V31.38H44.6a4.3,4.3,0,0,0-2.84.77,2.9,2.9,0,0,0-.9,2.32q0,3.18,3.74,3.18H59.52c2.5,0,3.74-1.06,3.74-3.18a2.9,2.9,0,0,0-.9-2.32A4.28,4.28,0,0,0,59.52,31.38Zm-1.38,50H49.5l6.1-6.23a20.11,20.11,0,0,0,3.59-4.84,10.72,10.72,0,0,0,1.06-4.79A8,8,0,0,0,58.94,61a8.54,8.54,0,0,0-3.72-3,13.9,13.9,0,0,0-5.59-1,17.48,17.48,0,0,0-9.51,2.92,3,3,0,0,0-1,1.12,4.15,4.15,0,0,0,.45,3.85,2.19,2.19,0,0,0,1.81,1,2.51,2.51,0,0,0,.82-.13,5.49,5.49,0,0,0,.88-.41c.33-.18.55-.31.66-.36l.86-.43A22.29,22.29,0,0,1,47,63.42a7.07,7.07,0,0,1,2.3-.36,3.37,3.37,0,0,1,2.39.77,2.9,2.9,0,0,1,.84,2.24q0,2.49-2.84,5.46L40.55,81a4.72,4.72,0,0,0-1.46,3.35,3.24,3.24,0,0,0,.9,2.35,3.31,3.31,0,0,0,2.46.92H58.14A4.37,4.37,0,0,0,61,86.88a3,3,0,0,0,.92-2.41A2.85,2.85,0,0,0,61,82.13,4.44,4.44,0,0,0,58.14,81.37ZM70.25,48h0a3,3,0,0,0-3-3H31.55a3,3,0,0,0-3,3h0a3,3,0,0,0,3,3H67.23A3,3,0,0,0,70.25,48Z"/></svg>