<svg id="Layer_1" data-name="Layer 1" xmlns="http://www.w3.org/2000/svg" viewBox="0 0 150 100"><title>s19_1</title><path d="M74.87,100h0a50,50,0,0,1-50-50h0a50,50,0,0,1,50-50h0a50,50,0,0,1,50,50h0A50,50,0,0,1,74.87,100Zm24.9-58.4H82.13V24a8.26,8.26,0,1,0-16.52,0V41.6H48a8.13,8.13,0,0,0-8.26,8.26,8.19,8.19,0,0,0,2.38,6A7.86,7.86,0,0,0,48,58.26H65.61v17.5a8.37,8.37,0,0,0,14.21,5.88,8.09,8.09,0,0,0,2.31-5.88V58.26H99.77a7.86,7.86,0,0,0,5.88-2.45,8.19,8.19,0,0,0,2.38-6,8.13,8.13,0,0,0-8.26-8.26Z"/></svg>