<svg id="Layer_1" data-name="Layer 1" xmlns="http://www.w3.org/2000/svg" viewBox="0 0 150 100"><title>s19_1</title><path d="M120.39,50a50,50,0,1,1-50-50A50,50,0,0,1,120.39,50ZM70.05,62a5.22,5.22,0,0,0,3.29-1.08,4.78,4.78,0,0,0,1.75-3.06,8.43,8.43,0,0,1,2-3.65A41.92,41.92,0,0,1,81.66,50q3.15-2.79,5.13-4.77a18.18,18.18,0,0,0,3.38-4.77,13.49,13.49,0,0,0,1.39-6.12A13.28,13.28,0,0,0,89,26.32a17.41,17.41,0,0,0-7.2-5.58,25.62,25.62,0,0,0-10.44-2,33.73,33.73,0,0,0-10.39,1.66A32.12,32.12,0,0,0,51.69,25a7.78,7.78,0,0,0-2.2,2.43,6.61,6.61,0,0,0-.68,3.15,7.23,7.23,0,0,0,1.58,4.72,4.77,4.77,0,0,0,3.82,1.94,11,11,0,0,0,4.95-1.71l2.16-1.08a32.6,32.6,0,0,1,4.55-2.21A11.47,11.47,0,0,1,70,31.5a6.11,6.11,0,0,1,4,1.17,3.85,3.85,0,0,1,1.44,3.15,6.54,6.54,0,0,1-1,3.6,29.56,29.56,0,0,1-3.11,3.87,29.53,29.53,0,0,0-4.5,5.8,14.09,14.09,0,0,0-1.62,7.07,6.46,6.46,0,0,0,1.31,4.32A4.52,4.52,0,0,0,70.05,62Zm.18,21.51A8.41,8.41,0,0,0,76.49,81a9,9,0,0,0,0-12.42,8.41,8.41,0,0,0-6.26-2.52,8.28,8.28,0,0,0-6.16,2.52,9,9,0,0,0,0,12.42A8.28,8.28,0,0,0,70.23,83.52Z"/></svg>