<svg id="Layer_1" data-name="Layer 1" xmlns="http://www.w3.org/2000/svg" viewBox="0 0 200 150"><title>g9</title><path d="M200,32.33V59.6a14.17,14.17,0,0,1-14.16,14.17H162.78q0,18.39.05,36.8a7.16,7.16,0,0,1-7.63,7.63H125.48v6.13a14.23,14.23,0,0,1-14.23,14.23H84.1a14.23,14.23,0,0,1-14.23-14.23V118.2h-30a7.25,7.25,0,0,1-4.79-2,8.06,8.06,0,0,1-2.14-4.91c-.54-4.31-.59-18.34,0-37.5H14.16A14.17,14.17,0,0,1,0,59.6V32.33A14.16,14.16,0,0,1,14.16,18.16H69.24A14.16,14.16,0,0,1,83.41,32.33V59.6A14.17,14.17,0,0,1,69.24,73.77H46.82q0,15.08.08,30.15h23V97.18A14.23,14.23,0,0,1,84.1,83h27.15a14.23,14.23,0,0,1,14.23,14.23v6.74h23.23l0-30.15h-18A14.17,14.17,0,0,1,116.59,59.6V32.33a14.16,14.16,0,0,1,14.17-14.17h55.08A14.16,14.16,0,0,1,200,32.33Zm-177.16,23H14L20.24,49a20.67,20.67,0,0,0,3.67-5A11.08,11.08,0,0,0,25,39.09a8.06,8.06,0,0,0-1.34-4.59,8.5,8.5,0,0,0-3.81-3.08,14.13,14.13,0,0,0-5.72-1.08A17.16,17.16,0,0,0,9,31.13a17.26,17.26,0,0,0-4.64,2.2,2.88,2.88,0,0,0-1.08,1.14A3.81,3.81,0,0,0,3,36.06a3.77,3.77,0,0,0,.74,2.35,2.25,2.25,0,0,0,1.85,1,2.63,2.63,0,0,0,.84-.13,5.76,5.76,0,0,0,.9-.42l.68-.37L8.93,38A21.37,21.37,0,0,1,11.42,37a7.11,7.11,0,0,1,2.35-.37,3.45,3.45,0,0,1,2.44.79,2.94,2.94,0,0,1,.86,2.29q0,2.55-2.9,5.58L4.84,55a4.8,4.8,0,0,0-1.5,3.43,3.28,3.28,0,0,0,.93,2.4,3.33,3.33,0,0,0,2.51.94H22.84A4.4,4.4,0,0,0,25.72,61a3,3,0,0,0,.94-2.46,2.9,2.9,0,0,0-.94-2.4A4.52,4.52,0,0,0,22.84,55.33Zm26.4-8.84H43.69V40.94a2.6,2.6,0,1,0-5.19,0v5.55H33a2.55,2.55,0,0,0-2.6,2.59A2.58,2.58,0,0,0,31.11,51a2.45,2.45,0,0,0,1.85.77H38.5v5.5A2.63,2.63,0,0,0,43,59.07a2.57,2.57,0,0,0,.72-1.85v-5.5h5.55A2.44,2.44,0,0,0,51.08,51a2.58,2.58,0,0,0,.75-1.87,2.52,2.52,0,0,0-.75-1.85A2.49,2.49,0,0,0,49.24,46.49Zm23.84-.71a7.09,7.09,0,0,0,3.5-2.66,7.3,7.3,0,0,0,1.26-4.25,7.63,7.63,0,0,0-1.35-4.48,8.66,8.66,0,0,0-3.82-3,14.71,14.71,0,0,0-5.75-1.05,17.56,17.56,0,0,0-5.21.79,14.58,14.58,0,0,0-4.47,2.2,3.45,3.45,0,0,0-1.05,1.19,3.35,3.35,0,0,0-.31,1.54,3.6,3.6,0,0,0,.75,2.31,2.27,2.27,0,0,0,1.85.94,3,3,0,0,0,1.1-.19c.32-.14.76-.35,1.32-.64l.92-.44A25.17,25.17,0,0,1,64.22,37a6.75,6.75,0,0,1,2.31-.39,3.78,3.78,0,0,1,2.68.9,3.26,3.26,0,0,1,1,2.53,2.48,2.48,0,0,1-1.1,2.24,6.72,6.72,0,0,1-3.52.71H63.62a2.47,2.47,0,0,0-2.06.92,3.6,3.6,0,0,0,0,4.4,2.47,2.47,0,0,0,2.06.92h2.73A6.61,6.61,0,0,1,70,50a2.78,2.78,0,0,1,1.1,2.47A3,3,0,0,1,70,55.06a6.08,6.08,0,0,1-3.54.8,8,8,0,0,1-2.53-.38,21,21,0,0,1-2.53-1.07l-.55-.25L60.41,54a14.55,14.55,0,0,0-1.32-.64,2.92,2.92,0,0,0-1.1-.2,2.26,2.26,0,0,0-1.85.95,3.59,3.59,0,0,0-.74,2.31,3.51,3.51,0,0,0,.3,1.51,3.47,3.47,0,0,0,1.06,1.21,14.27,14.27,0,0,0,4.58,2.23,19.64,19.64,0,0,0,5.5.76A16.47,16.47,0,0,0,73.06,61,9.27,9.27,0,0,0,77.18,58a8.37,8.37,0,0,0,0-9.46A7.49,7.49,0,0,0,73.08,45.78Zm88.3-7.39a11.15,11.15,0,0,0-4.85,1,9.16,9.16,0,0,0-3.52,2.9,15.29,15.29,0,0,1,2.15-7.48,5.49,5.49,0,0,1,4.73-2.66,7.55,7.55,0,0,1,2.63.46A33.29,33.29,0,0,1,165.67,34l1.26.63c.73.38,1.3.66,1.72.83a3.8,3.8,0,0,0,1.43.26,3,3,0,0,0,2.44-1.23,4.61,4.61,0,0,0,1-3,4.21,4.21,0,0,0-.43-2,4.83,4.83,0,0,0-1.4-1.54,18.39,18.39,0,0,0-5.76-2.87,22.46,22.46,0,0,0-6.56-1,15.51,15.51,0,0,0-8.91,2.58,16.65,16.65,0,0,0-5.9,7.36,27.87,27.87,0,0,0-2.09,11.2q0,9.75,4.41,15t12.49,5.27a14.83,14.83,0,0,0,7.28-1.77,12.78,12.78,0,0,0,5-5,15.28,15.28,0,0,0,.23-14,11.75,11.75,0,0,0-4.33-4.69A11.52,11.52,0,0,0,161.38,38.39Zm-2.64,19a4.57,4.57,0,0,1-3.55-1.52,6.37,6.37,0,0,1,0-7.88,4.6,4.6,0,0,1,3.58-1.49A4.53,4.53,0,0,1,162.32,48a5.81,5.81,0,0,1,1.29,4,5.76,5.76,0,0,1-1.32,4A4.51,4.51,0,0,1,158.74,57.41Zm-46.83,48h-9.69v-9.7a4.54,4.54,0,1,0-9.08,0v9.7h-9.7A4.47,4.47,0,0,0,78.9,110a4.54,4.54,0,0,0,1.31,3.27,4.35,4.35,0,0,0,3.23,1.34h9.7v9.62a4.6,4.6,0,0,0,7.81,3.23,4.48,4.48,0,0,0,1.27-3.23V114.6h9.69a4.35,4.35,0,0,0,3.23-1.34,4.54,4.54,0,0,0,1.31-3.27,4.47,4.47,0,0,0-4.54-4.54Z"/></svg>