<svg id="Layer_1" data-name="Layer 1" xmlns="http://www.w3.org/2000/svg" viewBox="0 0 122.3 122.3"><title>l9_1_1</title><path d="M122.3,41.3V58a8.65,8.65,0,0,1-8.65,8.65H99.57l0,22.49a4.38,4.38,0,0,1-4.66,4.66H76.78V97.5a8.69,8.69,0,0,1-8.69,8.69H51.5a8.69,8.69,0,0,1-8.69-8.69V93.76H24.47a4.4,4.4,0,0,1-2.92-1.24,4.94,4.94,0,0,1-1.31-3c-.33-2.64-.36-11.21,0-22.92H8.78A8.66,8.66,0,0,1,.12,58V41.3a8.66,8.66,0,0,1,8.66-8.65H42.42a8.66,8.66,0,0,1,8.66,8.65V58a8.66,8.66,0,0,1-8.66,8.65H28.72q0,9.21.05,18.42h14V80.92a8.69,8.69,0,0,1,8.69-8.69H68.09a8.69,8.69,0,0,1,8.69,8.69V85H91q0-9.21,0-18.42H80A8.65,8.65,0,0,1,71.35,58V41.3A8.65,8.65,0,0,1,80,32.65h33.65A8.65,8.65,0,0,1,122.3,41.3ZM13,53.61H11.49V45.08a1.55,1.55,0,0,0-.44-1.17,1.57,1.57,0,0,0-1.16-.43,3,3,0,0,0-1.49.45L5.52,45.6a1.23,1.23,0,0,0-.63,1.12,1.5,1.5,0,0,0,.36,1,1.09,1.09,0,0,0,.86.44A1.21,1.21,0,0,0,6.74,48l1.44-.85v6.5H6.72a1.75,1.75,0,0,0-1.18.33,1.18,1.18,0,0,0-.38,1c0,.89.52,1.33,1.56,1.33H13c1,0,1.57-.44,1.57-1.33a1.21,1.21,0,0,0-.38-1A1.78,1.78,0,0,0,13,53.61Zm9.72-3.9a2.71,2.71,0,0,0,1.41-1.07,3.13,3.13,0,0,0,.52-1.8,3,3,0,0,0-1.26-2.52A5.59,5.59,0,0,0,20,43.39a5.62,5.62,0,0,0-3.4.93,3,3,0,0,0-1.26,2.52,3,3,0,0,0,.51,1.76,2.9,2.9,0,0,0,1.44,1.11,3,3,0,0,0-1.7,1.07,3.2,3.2,0,0,0-.59,2,3.11,3.11,0,0,0,1.34,2.67,6.18,6.18,0,0,0,3.66,1,6.22,6.22,0,0,0,3.67-1A3.11,3.11,0,0,0,25,52.75a3.17,3.17,0,0,0-.59-1.94A3.09,3.09,0,0,0,22.69,49.71ZM20,53.88c-1.3,0-2-.47-2-1.4s.66-1.41,2-1.41,2,.47,2,1.41S21.26,53.88,20,53.88Zm0-8a1.92,1.92,0,0,1,1.21.32,1.22,1.22,0,0,1,.4,1,1.28,1.28,0,0,1-.4,1,1.92,1.92,0,0,1-1.21.32,1.89,1.89,0,0,1-1.2-.32,1.24,1.24,0,0,1-.4-1,1.19,1.19,0,0,1,.4-1A1.89,1.89,0,0,1,20,45.89ZM34.08,50H31.82V47.73a1.06,1.06,0,0,0-1.07-1.07A1,1,0,0,0,30,47a1,1,0,0,0-.31.76V50H27.42a1,1,0,0,0-.75.31,1,1,0,0,0-.31.76,1,1,0,0,0,.31.76,1,1,0,0,0,.75.32h2.27v2.25a1.06,1.06,0,0,0,1.06,1.06,1,1,0,0,0,.77-.31,1,1,0,0,0,.3-.75V52.14h2.26a1,1,0,0,0,.76-.32,1.07,1.07,0,0,0,.31-.76A1.06,1.06,0,0,0,34.08,50Zm11.34,1.59H45v-6.5a1.52,1.52,0,0,0-.49-1.21,1.72,1.72,0,0,0-1.17-.43,1.91,1.91,0,0,0-.8.19,1.7,1.7,0,0,0-.64.55l-5.15,7.34a2.06,2.06,0,0,0-.39,1.19,1.33,1.33,0,0,0,.38,1,1.32,1.32,0,0,0,1,.4h4v.61a1.56,1.56,0,0,0,.44,1.22,1.6,1.6,0,0,0,1.16.42,1.65,1.65,0,0,0,1.17-.42A1.56,1.56,0,0,0,45,54.71V54.1h.39c1,0,1.57-.43,1.57-1.28S46.47,51.58,45.42,51.58Zm-5.77,0,2.16-3.12v3.12Zm54.21,3.87H89L92.44,52a11.66,11.66,0,0,0,2-2.7A6.08,6.08,0,0,0,95,46.59a4.4,4.4,0,0,0-.73-2.51,4.68,4.68,0,0,0-2.07-1.68,7.79,7.79,0,0,0-3.12-.59,9.37,9.37,0,0,0-2.78.44,8.94,8.94,0,0,0-2.53,1.2,1.63,1.63,0,0,0-.59.62,2.11,2.11,0,0,0-.15.86,2,2,0,0,0,.41,1.29,1.21,1.21,0,0,0,1,.54,1.7,1.7,0,0,0,.46-.07,3.44,3.44,0,0,0,.49-.23l.37-.21.48-.24a12.19,12.19,0,0,1,1.36-.58,3.79,3.79,0,0,1,1.29-.21,1.93,1.93,0,0,1,1.33.43,1.63,1.63,0,0,1,.46,1.25A4.64,4.64,0,0,1,89.13,50L84,55.25a2.65,2.65,0,0,0-.81,1.88A1.75,1.75,0,0,0,85.1,59h8.76a2.39,2.39,0,0,0,1.57-.43A1.68,1.68,0,0,0,96,57.17a1.59,1.59,0,0,0-.52-1.3A2.45,2.45,0,0,0,93.86,55.45Zm15,0h-2V44.07a2.08,2.08,0,0,0-.59-1.56,2.14,2.14,0,0,0-1.55-.58,4.05,4.05,0,0,0-2,.6L99,44.77a1.62,1.62,0,0,0-.84,1.48,2,2,0,0,0,.48,1.31,1.45,1.45,0,0,0,1.15.59,1.63,1.63,0,0,0,.84-.24l1.92-1.13v8.67h-1.94a2.42,2.42,0,0,0-1.59.43,1.63,1.63,0,0,0-.5,1.29c0,1.19.7,1.78,2.09,1.78h8.33c1.39,0,2.08-.59,2.08-1.78a1.6,1.6,0,0,0-.5-1.29A2.39,2.39,0,0,0,108.91,55.45Zm-41.1,31.8H62.35V81.8A2.57,2.57,0,0,0,58,80a2.43,2.43,0,0,0-.74,1.82v5.45H51.78a2.53,2.53,0,0,0-2.55,2.56A2.52,2.52,0,0,0,50,91.65a2.44,2.44,0,0,0,1.81.76h5.46v5.41a2.51,2.51,0,0,0,2.55,2.55,2.48,2.48,0,0,0,1.85-.73,2.54,2.54,0,0,0,.71-1.82V92.41h5.46a2.44,2.44,0,0,0,1.81-.76,2.56,2.56,0,0,0,.74-1.84,2.53,2.53,0,0,0-2.55-2.56Z"/></svg>