<svg id="Layer_1" data-name="Layer 1" xmlns="http://www.w3.org/2000/svg" viewBox="0 0 122.3 122.3"><title>l9_1_1</title><path d="M122.59,17.92v40.8a11.74,11.74,0,0,1-11.74,11.74h-11l0,22.5a4.39,4.39,0,0,1-4.67,4.67H75.63l-9.12,18.45c-.31.53-2.2,3.71-5.31,3.8-3.29.1-5.31-3.3-5.59-3.8L45.69,97.63h-21a4.42,4.42,0,0,1-2.93-1.24,4.94,4.94,0,0,1-1.31-3c-.33-2.63-.36-11.21,0-22.93H12A11.74,11.74,0,0,1,.28,58.72V17.92A11.74,11.74,0,0,1,12,6.19H39.55A11.74,11.74,0,0,1,51.29,17.92v40.8A11.74,11.74,0,0,1,39.55,70.46H28.91q0,9.21.05,18.44H41l-2.56-4.77c-.81-1.5-1.65-4.37-.34-6.5a5.93,5.93,0,0,1,4-2.37l35.62,0a5.8,5.8,0,0,1,4.24,1.79,6,6,0,0,1,.38,7Q81.12,86.51,80,88.9H91.22q0-9.23,0-18.44H83.32A11.74,11.74,0,0,1,71.58,58.72V17.92A11.74,11.74,0,0,1,83.32,6.19h27.53A11.74,11.74,0,0,1,122.59,17.92ZM96.29,45.65a2.92,2.92,0,0,0,1.83-.6,2.63,2.63,0,0,0,1-1.7,4.76,4.76,0,0,1,1.13-2A22.93,22.93,0,0,1,102.74,39c1.17-1,2.12-1.92,2.85-2.65a10.19,10.19,0,0,0,1.88-2.65,7.48,7.48,0,0,0,.77-3.4,7.36,7.36,0,0,0-1.45-4.48,9.68,9.68,0,0,0-4-3.1A14.22,14.22,0,0,0,97,21.6a19,19,0,0,0-5.77.92,17.91,17.91,0,0,0-5.13,2.58,4.32,4.32,0,0,0-1.22,1.35,3.66,3.66,0,0,0-.38,1.75,4,4,0,0,0,.88,2.62,2.64,2.64,0,0,0,2.12,1.08A6.14,6.14,0,0,0,90.24,31l1.2-.6A18.53,18.53,0,0,1,94,29.12a6.46,6.46,0,0,1,2.27-.42,3.34,3.34,0,0,1,2.2.65,2.11,2.11,0,0,1,.8,1.75,3.67,3.67,0,0,1-.57,2,16.35,16.35,0,0,1-1.73,2.15,16.66,16.66,0,0,0-2.5,3.22,7.83,7.83,0,0,0-.9,3.93,3.62,3.62,0,0,0,.73,2.4A2.53,2.53,0,0,0,96.29,45.65Zm.1,12a4.85,4.85,0,1,0,0-9.7A4.59,4.59,0,0,0,93,49.3a5,5,0,0,0,0,6.9A4.62,4.62,0,0,0,96.39,57.6ZM68.86,90.34H63.38V84.86A2.49,2.49,0,0,0,62.64,83a2.52,2.52,0,0,0-1.83-.74,2.53,2.53,0,0,0-2.57,2.57v5.48H52.76a2.53,2.53,0,0,0-2.57,2.57,2.58,2.58,0,0,0,.74,1.85,2.43,2.43,0,0,0,1.83.76h5.48V101a2.52,2.52,0,0,0,.74,1.83,2.66,2.66,0,0,0,3.68,0,2.54,2.54,0,0,0,.72-1.83V95.52h5.48a2.46,2.46,0,0,0,1.83-.76,2.58,2.58,0,0,0,.74-1.85,2.49,2.49,0,0,0-.74-1.83A2.52,2.52,0,0,0,68.86,90.34ZM23.06,28.76H20.69V15.08a2.41,2.41,0,0,0-2.57-2.57,4.85,4.85,0,0,0-2.39.72l-4.62,2.69a1.94,1.94,0,0,0-1,1.79,2.45,2.45,0,0,0,.57,1.57,1.76,1.76,0,0,0,1.39.71,2,2,0,0,0,1-.29l2.31-1.36V28.76H13a2.84,2.84,0,0,0-1.9.52,1.93,1.93,0,0,0-.61,1.56c0,1.42.84,2.13,2.51,2.13h10c1.67,0,2.51-.71,2.51-2.13A2,2,0,0,0,25,29.28,2.86,2.86,0,0,0,23.06,28.76Zm11.19,4.47A6.76,6.76,0,0,0,40,30.55c1.32-1.79,2-4.38,2-7.76s-.67-5.95-2-7.74a6.76,6.76,0,0,0-5.76-2.68,6.74,6.74,0,0,0-5.77,2.68q-2,2.68-2,7.74t2,7.76A6.74,6.74,0,0,0,34.25,33.23Zm0-4a2.07,2.07,0,0,1-2-1.5,14.47,14.47,0,0,1-.6-4.93,14.36,14.36,0,0,1,.6-4.92,2.07,2.07,0,0,1,4,0,14.11,14.11,0,0,1,.61,4.91,14.16,14.16,0,0,1-.61,4.93A2.06,2.06,0,0,1,34.25,29.22ZM30.84,45.68H19.53a2.83,2.83,0,0,0-1.91.54,2,2,0,0,0-.6,1.6,2,2,0,0,0,.59,1.56,2.85,2.85,0,0,0,1.92.52h7.21L19.33,62.57A2.71,2.71,0,0,0,18.92,64a2.11,2.11,0,0,0,.78,1.66,2.67,2.67,0,0,0,1.79.68A2.52,2.52,0,0,0,22.72,66a2.66,2.66,0,0,0,1-1l8.75-15.15a3.72,3.72,0,0,0,.55-1.9,2.21,2.21,0,0,0-.57-1.57A2,2,0,0,0,30.84,45.68Zm9.84-6.36h0a2.61,2.61,0,0,0-2.61-2.62H10.81a2.62,2.62,0,0,0-2.62,2.62h0a2.61,2.61,0,0,0,2.62,2.61H38.07A2.61,2.61,0,0,0,40.68,39.32Z"/></svg>