<svg id="Layer_1" data-name="Layer 1" xmlns="http://www.w3.org/2000/svg" viewBox="0 0 122.3 122.3"><title>l9_1_1</title><path d="M122.33,42V52.51a11.74,11.74,0,0,1-11.74,11.74h-11l0,22.52a4.51,4.51,0,0,1-1.24,3.36,4.57,4.57,0,0,1-3.43,1.31H75.13L67,107.85c-.3.53-2.18,3.69-5.28,3.78-3.27.1-5.27-3.28-5.56-3.78L47.36,91.44h-23a4.42,4.42,0,0,1-2.93-1.24,4.9,4.9,0,0,1-1.31-3c-.33-2.64-.36-11.22,0-23H11.71A11.74,11.74,0,0,1,0,52.51V42A11.75,11.75,0,0,1,11.71,30.23H39.26A11.75,11.75,0,0,1,51,42V52.51A11.74,11.74,0,0,1,39.26,64.25H28.61q0,9.23.05,18.45h14l-3.55-6.62a8.51,8.51,0,0,1-.34-6.46,3.93,3.93,0,0,1,2.17-2.36l38.86.06a4.19,4.19,0,0,1,2.8,2.81,9.67,9.67,0,0,1,.12,6L79.45,82.7H91q0-9.23,0-18.45H83A11.74,11.74,0,0,1,71.3,52.51V42A11.75,11.75,0,0,1,83,30.23h27.55A11.75,11.75,0,0,1,122.33,42ZM68.76,82.53H63.28V77.05a2.52,2.52,0,0,0-.74-1.83,2.57,2.57,0,0,0-4.39,1.83v5.48H52.66A2.53,2.53,0,0,0,50.1,85.1,2.53,2.53,0,0,0,50.84,87a2.42,2.42,0,0,0,1.82.76h5.49v5.44A2.45,2.45,0,0,0,58.89,95a2.65,2.65,0,0,0,3.67,0,2.51,2.51,0,0,0,.72-1.83V87.71h5.48A2.43,2.43,0,0,0,70.59,87a2.53,2.53,0,0,0,.74-1.85,2.53,2.53,0,0,0-2.57-2.57Zm-58-36.05a2.81,2.81,0,0,0,1.42-1.06,3.17,3.17,0,0,0,.51-1.8,3,3,0,0,0-1.25-2.53A5.61,5.61,0,0,0,8,40.16a5.63,5.63,0,0,0-3.41.93,3,3,0,0,0-1.26,2.53,3,3,0,0,0,.51,1.75,2.9,2.9,0,0,0,1.44,1.11,3,3,0,0,0-1.69,1.07,3.14,3.14,0,0,0-.6,2,3.11,3.11,0,0,0,1.34,2.67,6.22,6.22,0,0,0,3.67,1,6.18,6.18,0,0,0,3.66-1A3.11,3.11,0,0,0,13,49.52a3.17,3.17,0,0,0-.58-1.94A3.16,3.16,0,0,0,10.73,46.48ZM8,50.65c-1.31,0-2-.46-2-1.4s.66-1.4,2-1.4,2,.46,2,1.4S9.3,50.65,8,50.65Zm0-8A1.89,1.89,0,0,1,9.2,43a1.2,1.2,0,0,1,.4,1,1.24,1.24,0,0,1-.4,1,1.83,1.83,0,0,1-1.2.32A1.86,1.86,0,0,1,6.79,45a1.28,1.28,0,0,1-.4-1,1.23,1.23,0,0,1,.4-1A1.92,1.92,0,0,1,8,42.66Zm11.88,2a3.53,3.53,0,0,0-1.53.33,2.82,2.82,0,0,0-1.1.91,4.75,4.75,0,0,1,.67-2.35,1.72,1.72,0,0,1,1.49-.83,2.34,2.34,0,0,1,.83.14c.26.1.59.24,1,.43l.39.2a6,6,0,0,0,.54.26,1.25,1.25,0,0,0,.45.08,1,1,0,0,0,.77-.39,1.42,1.42,0,0,0,.31-.94,1.34,1.34,0,0,0-.13-.63,1.64,1.64,0,0,0-.44-.49,6,6,0,0,0-1.81-.9,7.23,7.23,0,0,0-2.06-.32,4.88,4.88,0,0,0-2.8.81,5.25,5.25,0,0,0-1.86,2.31,8.71,8.71,0,0,0-.65,3.52,7.2,7.2,0,0,0,1.38,4.72,4.85,4.85,0,0,0,3.93,1.65,4.63,4.63,0,0,0,2.28-.55,4.15,4.15,0,0,0,1.58-1.56,4.59,4.59,0,0,0,.56-2.26,4.52,4.52,0,0,0-.49-2.13,3.63,3.63,0,0,0-3.3-2Zm-.83,6a1.44,1.44,0,0,1-1.12-.48,1.76,1.76,0,0,1-.43-1.23,1.82,1.82,0,0,1,.42-1.25,1.45,1.45,0,0,1,1.13-.46,1.43,1.43,0,0,1,1.12.45,1.85,1.85,0,0,1,.41,1.26,1.79,1.79,0,0,1-.42,1.24A1.4,1.4,0,0,1,19.05,50.64Zm13.88-3.87H30.66V44.5a1,1,0,0,0-1.06-1.06,1,1,0,0,0-.76.3,1.07,1.07,0,0,0-.31.76v2.27H26.27a1,1,0,0,0-.76.3,1.09,1.09,0,0,0,0,1.52,1,1,0,0,0,.76.32h2.26v2.25a1,1,0,0,0,.31.75,1,1,0,0,0,.76.31,1,1,0,0,0,.76-.31,1,1,0,0,0,.3-.75V48.91h2.27a1,1,0,0,0,.75-.32,1.06,1.06,0,0,0-.75-1.82Zm7-6.61a4.65,4.65,0,0,0-2.29.56,4.06,4.06,0,0,0-1.58,1.55,4.59,4.59,0,0,0-.56,2.26A4.53,4.53,0,0,0,36,46.67a3.72,3.72,0,0,0,1.36,1.47,3.61,3.61,0,0,0,2,.53,3.52,3.52,0,0,0,1.52-.33,2.74,2.74,0,0,0,1.1-.91,4.75,4.75,0,0,1-.67,2.35,1.72,1.72,0,0,1-1.49.84,2.29,2.29,0,0,1-.82-.15A8.76,8.76,0,0,1,38,50l-.4-.2L37,49.58a1.25,1.25,0,0,0-.45-.08,1,1,0,0,0-.77.39,1.44,1.44,0,0,0-.31.94,1.28,1.28,0,0,0,.13.63,1.56,1.56,0,0,0,.45.49,5.84,5.84,0,0,0,1.8.9,6.91,6.91,0,0,0,2.07.32,4.85,4.85,0,0,0,2.79-.81,5.25,5.25,0,0,0,1.86-2.31,8.67,8.67,0,0,0,.66-3.52,7.15,7.15,0,0,0-1.39-4.71A4.81,4.81,0,0,0,40,40.16Zm.19,6A1.43,1.43,0,0,1,39,45.66a1.83,1.83,0,0,1-.41-1.25A1.77,1.77,0,0,1,39,43.17a1.38,1.38,0,0,1,1.11-.47,1.46,1.46,0,0,1,1.12.47,1.77,1.77,0,0,1,.43,1.24,1.79,1.79,0,0,1-.42,1.24A1.46,1.46,0,0,1,40.14,46.12Zm56.19,5a1.41,1.41,0,0,0,.88-.29,1.27,1.27,0,0,0,.46-.81,2.29,2.29,0,0,1,.54-1,11.26,11.26,0,0,1,1.22-1.11c.56-.5,1-.92,1.36-1.28a4.41,4.41,0,0,0,.9-1.27,3.67,3.67,0,0,0-.32-3.78,4.69,4.69,0,0,0-1.92-1.49,6.83,6.83,0,0,0-2.78-.54,9.22,9.22,0,0,0-5.24,1.68,2.14,2.14,0,0,0-.58.65,1.8,1.8,0,0,0-.18.84A1.92,1.92,0,0,0,91.09,44a1.26,1.26,0,0,0,1,.52,2.92,2.92,0,0,0,1.32-.46l.57-.29a8.62,8.62,0,0,1,1.21-.58,3,3,0,0,1,1.1-.21,1.61,1.61,0,0,1,1,.32,1,1,0,0,1,.39.83,1.74,1.74,0,0,1-.28,1,7.3,7.3,0,0,1-.83,1,7.88,7.88,0,0,0-1.2,1.54A3.77,3.77,0,0,0,95,49.57a1.72,1.72,0,0,0,.35,1.15A1.2,1.2,0,0,0,96.33,51.13Zm0,5.74a2.33,2.33,0,1,0,0-4.66,2.21,2.21,0,0,0-1.65.67,2.28,2.28,0,0,0-.66,1.66,2.25,2.25,0,0,0,.66,1.65A2.22,2.22,0,0,0,96.38,56.87Z"/></svg>