<svg id="Layer_1" data-name="Layer 1" xmlns="http://www.w3.org/2000/svg" viewBox="0 0 122.3 122.3"><title>l9_1_1</title><path d="M122.48,23.29V64.08a11.74,11.74,0,0,1-11.73,11.74h-11q0,11.25,0,22.5A4.37,4.37,0,0,1,95.09,103H76.92v.66a11.79,11.79,0,0,1-11.79,11.79H54.71a11.79,11.79,0,0,1-11.79-11.79V103H24.57a4.45,4.45,0,0,1-2.93-1.23,5,5,0,0,1-1.31-3c-.33-2.64-.36-11.21,0-22.93H11.93A11.74,11.74,0,0,1,.2,64.08V23.29A11.73,11.73,0,0,1,11.93,11.56H39.46A11.73,11.73,0,0,1,51.19,23.29V64.08A11.74,11.74,0,0,1,39.46,75.82H28.82q0,9.21.05,18.43H42.92v-1A11.79,11.79,0,0,1,54.71,81.43H65.13A11.79,11.79,0,0,1,76.92,93.22v1h14.2q0-9.21,0-18.43H83.22A11.74,11.74,0,0,1,71.49,64.08V23.29A11.73,11.73,0,0,1,83.22,11.56h27.53A11.73,11.73,0,0,1,122.48,23.29ZM22.2,34.13H16.4l4.1-4.19a13.57,13.57,0,0,0,2.41-3.24,7.34,7.34,0,0,0,.71-3.22,5.35,5.35,0,0,0-.88-3,5.67,5.67,0,0,0-2.5-2,9.33,9.33,0,0,0-3.75-.7,11.11,11.11,0,0,0-3.33.52,11,11,0,0,0-3.05,1.44,2,2,0,0,0-.71.75,2.56,2.56,0,0,0-.18,1A2.47,2.47,0,0,0,9.71,23a1.47,1.47,0,0,0,1.21.65,1.71,1.71,0,0,0,.55-.09,3.26,3.26,0,0,0,.59-.27l.45-.25.57-.28a13.5,13.5,0,0,1,1.63-.71,4.84,4.84,0,0,1,1.55-.25,2.31,2.31,0,0,1,1.6.52,2,2,0,0,1,.56,1.5,5.61,5.61,0,0,1-1.9,3.67L10.4,33.9a3.16,3.16,0,0,0-1,2.25A2.13,2.13,0,0,0,10,37.72a2.19,2.19,0,0,0,1.64.62H22.2a2.86,2.86,0,0,0,1.89-.52,2,2,0,0,0,.62-1.62,1.89,1.89,0,0,0-.62-1.57A2.92,2.92,0,0,0,22.2,34.13ZM35.91,25a5.63,5.63,0,0,0-2.44.53,4.64,4.64,0,0,0-1.77,1.46,7.52,7.52,0,0,1,1.08-3.76,2.75,2.75,0,0,1,2.38-1.35,4,4,0,0,1,1.33.23c.42.16.95.39,1.58.7l.64.31a7.12,7.12,0,0,0,.86.42,1.86,1.86,0,0,0,.73.13A1.51,1.51,0,0,0,41.52,23,2.3,2.3,0,0,0,42,21.49a2.16,2.16,0,0,0-.22-1,2.42,2.42,0,0,0-.71-.78,8.85,8.85,0,0,0-2.9-1.44,11,11,0,0,0-3.3-.52A7.87,7.87,0,0,0,30.41,19a8.44,8.44,0,0,0-3,3.71,14,14,0,0,0-1.05,5.64q0,4.9,2.22,7.56A7.75,7.75,0,0,0,34.9,38.6a7.38,7.38,0,0,0,3.66-.9,6.38,6.38,0,0,0,2.53-2.49,7.68,7.68,0,0,0,.11-7A6,6,0,0,0,39,25.8,5.85,5.85,0,0,0,35.91,25Zm-1.33,9.58a2.3,2.3,0,0,1-1.79-.76,3.22,3.22,0,0,1,0-4,2.3,2.3,0,0,1,1.8-.75,2.27,2.27,0,0,1,1.8.73,2.89,2.89,0,0,1,.65,2,2.9,2.9,0,0,1-.66,2A2.27,2.27,0,0,1,34.58,34.53ZM22.38,66.18H20V52.5a2.42,2.42,0,0,0-2.57-2.57,4.91,4.91,0,0,0-2.4.72l-4.61,2.69a1.94,1.94,0,0,0-1,1.79A2.45,2.45,0,0,0,10,56.7a1.76,1.76,0,0,0,1.39.71,2,2,0,0,0,1-.29l2.31-1.36V66.18H12.37a2.86,2.86,0,0,0-1.9.52,1.92,1.92,0,0,0-.61,1.56c0,1.42.84,2.13,2.51,2.13h10c1.68,0,2.51-.71,2.51-2.13a2,2,0,0,0-.6-1.56A2.89,2.89,0,0,0,22.38,66.18ZM35,57.09a7.14,7.14,0,0,0-2.85.52V54.06h6.23c1.67,0,2.51-.67,2.51-2s-.84-2-2.51-2H29.42a2.46,2.46,0,0,0-1.81.63A2.49,2.49,0,0,0,27,52.53v7.82a1.58,1.58,0,0,0,.55,1.26,2,2,0,0,0,1.36.47,2.69,2.69,0,0,0,1.3-.32,10.45,10.45,0,0,1,1.65-.52,8.52,8.52,0,0,1,1.58-.14,3.27,3.27,0,0,1,2.25.72,2.57,2.57,0,0,1,.81,2,2.51,2.51,0,0,1-.78,2,3.72,3.72,0,0,1-2.4.65,4.84,4.84,0,0,1-1.6-.26c-.49-.18-1-.41-1.63-.7l-.58-.29a9.54,9.54,0,0,0-.86-.43,2.18,2.18,0,0,0-.72-.11,1.48,1.48,0,0,0-1.22.62,2.4,2.4,0,0,0-.49,1.51,2.08,2.08,0,0,0,.22,1,2.46,2.46,0,0,0,.68.79,9.18,9.18,0,0,0,3,1.44,11.87,11.87,0,0,0,3.5.52,9.5,9.5,0,0,0,4.13-.86,6.57,6.57,0,0,0,2.77-2.46,6.81,6.81,0,0,0,1-3.66,7,7,0,0,0-.82-3.42,5.89,5.89,0,0,0-2.28-2.31A6.67,6.67,0,0,0,35,57.09Zm62.07-6.67a2.89,2.89,0,0,0,1.82-.6,2.69,2.69,0,0,0,1-1.7,4.63,4.63,0,0,1,1.12-2,23.18,23.18,0,0,1,2.53-2.32c1.16-1,2.11-1.92,2.85-2.65a10.23,10.23,0,0,0,1.87-2.65,7.71,7.71,0,0,0-.67-7.88,9.75,9.75,0,0,0-4-3.1,14.26,14.26,0,0,0-5.8-1.12,19,19,0,0,0-5.78.92,17.85,17.85,0,0,0-5.12,2.58,4.25,4.25,0,0,0-1.23,1.35A3.69,3.69,0,0,0,85.26,33a4,4,0,0,0,.87,2.62,2.64,2.64,0,0,0,2.13,1.08,6.17,6.17,0,0,0,2.75-1l1.2-.6a19.1,19.1,0,0,1,2.52-1.23A6.47,6.47,0,0,1,97,33.47a3.43,3.43,0,0,1,2.2.65,2.15,2.15,0,0,1,.8,1.75,3.68,3.68,0,0,1-.58,2A16.33,16.33,0,0,1,97.71,40a16.27,16.27,0,0,0-2.5,3.22,7.83,7.83,0,0,0-.9,3.93,3.62,3.62,0,0,0,.72,2.4A2.51,2.51,0,0,0,97.06,50.42Zm.1,11.95A4.73,4.73,0,1,0,93.73,61,4.67,4.67,0,0,0,97.16,62.37ZM67.52,96.6H62V91.12a2.45,2.45,0,0,0-.74-1.83,2.62,2.62,0,0,0-3.65,0,2.45,2.45,0,0,0-.74,1.83V96.6H51.41a2.53,2.53,0,0,0-2.56,2.57,2.54,2.54,0,0,0,.74,1.85,2.42,2.42,0,0,0,1.82.76H56.9v5.44a2.6,2.6,0,0,0,4.42,1.83,2.56,2.56,0,0,0,.71-1.83v-5.44h5.49a2.42,2.42,0,0,0,1.82-.76,2.54,2.54,0,0,0,.74-1.85,2.53,2.53,0,0,0-2.56-2.57ZM41.26,44.92h0a2.62,2.62,0,0,0-2.62-2.62H11.38a2.61,2.61,0,0,0-2.61,2.62h0a2.61,2.61,0,0,0,2.61,2.61H38.64A2.62,2.62,0,0,0,41.26,44.92Z"/></svg>