<svg id="Layer_1" data-name="Layer 1" xmlns="http://www.w3.org/2000/svg" viewBox="0 0 122.3 122.3"><title>l9_1_1</title><path d="M122.36,41.55V52.09a11.74,11.74,0,0,1-11.74,11.74h-11l0,22.52A4.39,4.39,0,0,1,95,91H75.16q-4.05,8.22-8.11,16.42c-.31.53-2.18,3.69-5.28,3.78-3.27.1-5.28-3.28-5.56-3.78L47.39,91h-23a4.37,4.37,0,0,1-2.92-1.23,4.9,4.9,0,0,1-1.31-3c-.33-2.64-.36-11.22,0-23H11.74A11.74,11.74,0,0,1,0,52.09V41.55A11.74,11.74,0,0,1,11.74,29.81H39.29A11.74,11.74,0,0,1,51,41.55V52.09A11.74,11.74,0,0,1,39.29,63.83H28.64q0,9.23.05,18.45h14l-3.55-6.62a8.52,8.52,0,0,1-.34-6.46A3.9,3.9,0,0,1,41,66.84l38.86.06a4.19,4.19,0,0,1,2.8,2.81,9.76,9.76,0,0,1,.12,6l-3.27,6.61H91q0-9.23,0-18.45H83.07A11.74,11.74,0,0,1,71.33,52.09V41.55A11.74,11.74,0,0,1,83.07,29.81h27.55A11.74,11.74,0,0,1,122.36,41.55ZM68.79,82.11H63.31V76.63a2.53,2.53,0,0,0-2.57-2.57,2.52,2.52,0,0,0-1.83.74,2.49,2.49,0,0,0-.74,1.83v5.48H52.69a2.52,2.52,0,0,0-1.83.74,2.49,2.49,0,0,0-.74,1.83,2.58,2.58,0,0,0,.74,1.85,2.46,2.46,0,0,0,1.83.76h5.48v5.44a2.53,2.53,0,0,0,2.57,2.57,2.47,2.47,0,0,0,1.85-.74,2.54,2.54,0,0,0,.72-1.83V87.29h5.48a2.43,2.43,0,0,0,1.83-.76,2.58,2.58,0,0,0,.74-1.85,2.53,2.53,0,0,0-2.57-2.57ZM12.84,50H11.36V41.43a1.55,1.55,0,0,0-.44-1.17,1.57,1.57,0,0,0-1.16-.43,3,3,0,0,0-1.49.45L5.39,42a1.23,1.23,0,0,0-.63,1.12,1.52,1.52,0,0,0,.36,1,1.09,1.09,0,0,0,.86.44,1.21,1.21,0,0,0,.63-.18l1.44-.85V50H6.59a1.81,1.81,0,0,0-1.18.32,1.2,1.2,0,0,0-.38,1c0,.88.52,1.33,1.56,1.33h6.25c1,0,1.57-.45,1.57-1.33a1.23,1.23,0,0,0-.38-1A1.84,1.84,0,0,0,12.84,50Zm9.72-3.91A2.64,2.64,0,0,0,24,45a3.06,3.06,0,0,0,.52-1.8,3,3,0,0,0-1.25-2.53,5.71,5.71,0,0,0-3.42-.92,5.69,5.69,0,0,0-3.4.92,3,3,0,0,0-1.26,2.53A3,3,0,0,0,15.67,45a2.89,2.89,0,0,0,1.44,1.1,3,3,0,0,0-1.7,1.08,3.18,3.18,0,0,0-.59,2,3.11,3.11,0,0,0,1.34,2.67,6.21,6.21,0,0,0,3.66,1,6.22,6.22,0,0,0,3.67-1,3.11,3.11,0,0,0,1.34-2.67,3,3,0,0,0-2.27-3.05Zm-2.74,4.18c-1.3,0-2-.47-2-1.4s.66-1.41,2-1.41,2,.47,2,1.41S21.13,50.23,19.82,50.23Zm0-8a1.93,1.93,0,0,1,1.21.31,1.24,1.24,0,0,1,.4,1,1.28,1.28,0,0,1-.4,1,1.92,1.92,0,0,1-1.21.32,1.89,1.89,0,0,1-1.2-.32,1.24,1.24,0,0,1-.4-1,1.21,1.21,0,0,1,.4-1A1.89,1.89,0,0,1,19.82,42.24ZM34,46.34H31.69V44.07a1,1,0,0,0-.31-.75,1,1,0,0,0-.76-.31,1.06,1.06,0,0,0-1.06,1.06v2.27H27.29a1.06,1.06,0,0,0-1.06,1.06,1,1,0,0,0,.31.77,1,1,0,0,0,.75.31h2.27v2.25a1,1,0,0,0,.31.76,1,1,0,0,0,.75.31,1,1,0,0,0,1.07-1.07V48.48H34a1,1,0,0,0,.76-.31A1.09,1.09,0,0,0,35,47.4a1,1,0,0,0-.31-.75A1,1,0,0,0,34,46.34Zm11.34,1.59H44.9v-6.5a1.52,1.52,0,0,0-.49-1.21,1.68,1.68,0,0,0-1.17-.43,1.77,1.77,0,0,0-.8.19,1.7,1.7,0,0,0-.64.55l-5.15,7.34a2,2,0,0,0-.39,1.19,1.33,1.33,0,0,0,.38,1,1.35,1.35,0,0,0,1,.4h4v.61a1.56,1.56,0,0,0,.44,1.22,1.6,1.6,0,0,0,1.16.42,1.65,1.65,0,0,0,1.17-.42,1.56,1.56,0,0,0,.45-1.22v-.61h.39c1.05,0,1.57-.43,1.57-1.28S46.34,47.93,45.29,47.93Zm-5.77,0,2.16-3.12v3.12Zm56.84,2.78a1.38,1.38,0,0,0,.87-.29,1.26,1.26,0,0,0,.47-.82,2.26,2.26,0,0,1,.54-1,13.22,13.22,0,0,1,1.21-1.12c.56-.49,1-.92,1.37-1.27a4.83,4.83,0,0,0,.9-1.27,3.73,3.73,0,0,0-.32-3.78,4.74,4.74,0,0,0-1.92-1.49,6.87,6.87,0,0,0-2.79-.54,8.92,8.92,0,0,0-2.77.45,8.35,8.35,0,0,0-2.46,1.23,2.19,2.19,0,0,0-.59.65,1.74,1.74,0,0,0-.18.84,1.92,1.92,0,0,0,.42,1.26,1.29,1.29,0,0,0,1,.52,3,3,0,0,0,1.32-.46l.58-.29a10.12,10.12,0,0,1,1.21-.59,3.22,3.22,0,0,1,1.09-.2,1.63,1.63,0,0,1,1.06.31,1,1,0,0,1,.38.84,1.78,1.78,0,0,1-.27,1,8.11,8.11,0,0,1-.83,1,8.23,8.23,0,0,0-1.2,1.55A3.75,3.75,0,0,0,95,49.15a1.68,1.68,0,0,0,.35,1.15A1.2,1.2,0,0,0,96.36,50.71Zm0,5.73a2.22,2.22,0,0,0,1.66-.67,2.41,2.41,0,0,0,0-3.31,2.38,2.38,0,0,0-3.31,0,2.41,2.41,0,0,0,0,3.31A2.21,2.21,0,0,0,96.41,56.44Z"/></svg>