<svg id="Layer_1" data-name="Layer 1" xmlns="http://www.w3.org/2000/svg" viewBox="0 0 122.3 122.3"><title>l9_1_1</title><path d="M122.14,40.4V50.93A11.74,11.74,0,0,1,110.4,62.67h-11l0,22.52a4.53,4.53,0,0,1-1.23,3.36,4.6,4.6,0,0,1-3.44,1.31H75q-4.07,8.2-8.12,16.41c-.3.53-2.18,3.69-5.28,3.78-3.26.1-5.27-3.28-5.56-3.78L47.17,89.86h-23a4.42,4.42,0,0,1-2.93-1.24,4.9,4.9,0,0,1-1.31-3c-.33-2.64-.36-11.22,0-23H11.52A11.74,11.74,0,0,1-.22,50.93V40.4A11.74,11.74,0,0,1,11.52,28.66H39.07A11.74,11.74,0,0,1,50.81,40.4V50.93A11.74,11.74,0,0,1,39.07,62.67H28.42q0,9.22,0,18.45h14L38.92,74.5A8.51,8.51,0,0,1,38.58,68a3.93,3.93,0,0,1,2.17-2.36l38.87.06a4.18,4.18,0,0,1,2.79,2.81,9.67,9.67,0,0,1,.12,6l-3.27,6.61h11.5q0-9.23,0-18.45H82.86A11.74,11.74,0,0,1,71.11,50.93V40.4A11.74,11.74,0,0,1,82.86,28.66H110.4A11.74,11.74,0,0,1,122.14,40.4ZM68.58,81H63.09V75.47a2.57,2.57,0,1,0-5.13,0V81H52.47a2.53,2.53,0,0,0-2.56,2.57,2.53,2.53,0,0,0,.74,1.85,2.42,2.42,0,0,0,1.82.76H58v5.44a2.45,2.45,0,0,0,.74,1.83,2.48,2.48,0,0,0,1.82.74,2.46,2.46,0,0,0,1.85-.74,2.51,2.51,0,0,0,.72-1.83V86.13h5.49a2.42,2.42,0,0,0,1.82-.76,2.53,2.53,0,0,0,.74-1.85A2.53,2.53,0,0,0,68.58,81ZM7.34,51.54a2.8,2.8,0,0,0,2.4-1.12,5.35,5.35,0,0,0,.83-3.22A5.28,5.28,0,0,0,9.73,44a2.82,2.82,0,0,0-2.39-1.12A2.81,2.81,0,0,0,4.94,44a5.28,5.28,0,0,0-.83,3.22,5.28,5.28,0,0,0,.83,3.22A2.79,2.79,0,0,0,7.34,51.54Zm0-1.67a.86.86,0,0,1-.83-.62,5.94,5.94,0,0,1-.25-2,5.87,5.87,0,0,1,.25-2.05.86.86,0,0,1,1.66,0,6.09,6.09,0,0,1,.25,2,6.2,6.2,0,0,1-.25,2A.87.87,0,0,1,7.34,49.87Zm5.23,1.63a1.11,1.11,0,0,0,.82-.33,1.21,1.21,0,0,0,0-1.66,1.11,1.11,0,0,0-.82-.33,1.16,1.16,0,1,0,0,2.32Zm5.82-5.6a2.91,2.91,0,0,0-1.19.22V44.64h2.59q1,0,1.05-.84c0-.55-.35-.83-1.05-.83H16.07a1,1,0,0,0-.75.27,1,1,0,0,0-.27.76v3.26a.67.67,0,0,0,.23.52.83.83,0,0,0,.56.2,1.09,1.09,0,0,0,.54-.14,5,5,0,0,1,.69-.21,3.37,3.37,0,0,1,.66-.06,1.33,1.33,0,0,1,.93.3,1.23,1.23,0,0,1,0,1.68,1.55,1.55,0,0,1-1,.27,2.09,2.09,0,0,1-.67-.1c-.2-.08-.43-.17-.67-.29l-.24-.12a2.92,2.92,0,0,0-.36-.18.85.85,0,0,0-.3-.05.64.64,0,0,0-.51.26,1,1,0,0,0-.2.63.86.86,0,0,0,.09.41,1,1,0,0,0,.28.33,3.71,3.71,0,0,0,1.23.6,4.83,4.83,0,0,0,1.46.22,3.84,3.84,0,0,0,1.71-.36,2.75,2.75,0,0,0,1.16-1,3.13,3.13,0,0,0,.06-2.95,2.44,2.44,0,0,0-.95-1A2.72,2.72,0,0,0,18.39,45.9Zm8.83,1.37H25.71V45.76a.69.69,0,0,0-.21-.51.72.72,0,0,0-1,0,.69.69,0,0,0-.21.51v1.51H22.78a.69.69,0,0,0-.5.2.72.72,0,0,0,0,1,.66.66,0,0,0,.5.21h1.51v1.5a.67.67,0,0,0,.21.5.65.65,0,0,0,.5.2.66.66,0,0,0,.51-.2.7.7,0,0,0,.2-.5V48.7h1.51a.66.66,0,0,0,.5-.21.72.72,0,0,0,0-1A.69.69,0,0,0,27.22,47.27Zm5,4.27a2.79,2.79,0,0,0,2.4-1.12,5.35,5.35,0,0,0,.83-3.22A5.28,5.28,0,0,0,34.59,44a3.12,3.12,0,0,0-4.79,0A5.35,5.35,0,0,0,29,47.2a5.35,5.35,0,0,0,.83,3.22A2.79,2.79,0,0,0,32.2,51.54Zm0-1.67a.87.87,0,0,1-.83-.62,5.94,5.94,0,0,1-.25-2,5.87,5.87,0,0,1,.25-2.05.86.86,0,0,1,1.66,0,5.84,5.84,0,0,1,.25,2,5.94,5.94,0,0,1-.25,2A.87.87,0,0,1,32.2,49.87Zm5.23,1.63a1.11,1.11,0,0,0,.82-.33,1.21,1.21,0,0,0,0-1.66,1.11,1.11,0,0,0-.82-.33,1.13,1.13,0,0,0-.83.33,1.21,1.21,0,0,0,0,1.66A1.13,1.13,0,0,0,37.43,51.5Zm7.47-1.82H42.48l1.71-1.74a5.94,5.94,0,0,0,1-1.35,3.1,3.1,0,0,0,.29-1.34A2.21,2.21,0,0,0,45.12,44a2.29,2.29,0,0,0-1-.84,3.81,3.81,0,0,0-1.56-.3,4.85,4.85,0,0,0-1.39.22,4.44,4.44,0,0,0-1.26.6.87.87,0,0,0-.3.31,1.08,1.08,0,0,0-.07.43,1,1,0,0,0,.2.65.61.61,0,0,0,.5.27.85.85,0,0,0,.23,0,1.28,1.28,0,0,0,.25-.11l.18-.11L41.1,45c.26-.12.49-.22.68-.29a1.91,1.91,0,0,1,.64-.1,1,1,0,0,1,.67.21.82.82,0,0,1,.23.63,2.32,2.32,0,0,1-.79,1.52L40,49.58a1.34,1.34,0,0,0-.41.94.88.88,0,0,0,.25.65.9.9,0,0,0,.69.26H44.9a1.21,1.21,0,0,0,.78-.21.85.85,0,0,0,.26-.68.8.8,0,0,0-.26-.65A1.21,1.21,0,0,0,44.9,49.68Zm51.24-.13a1.41,1.41,0,0,0,.88-.29,1.27,1.27,0,0,0,.46-.81,2.29,2.29,0,0,1,.54-1,11.26,11.26,0,0,1,1.22-1.11c.56-.5,1-.92,1.36-1.27a4.6,4.6,0,0,0,.9-1.28,3.67,3.67,0,0,0-.32-3.78,4.59,4.59,0,0,0-1.92-1.48A6.83,6.83,0,0,0,96.48,38a8.92,8.92,0,0,0-2.78.44,8.62,8.62,0,0,0-2.46,1.24,2,2,0,0,0-.58.64,1.8,1.8,0,0,0-.18.84,1.92,1.92,0,0,0,.42,1.26,1.26,1.26,0,0,0,1,.52,2.92,2.92,0,0,0,1.32-.46l.57-.28A7.77,7.77,0,0,1,95,41.62a3,3,0,0,1,1.1-.21,1.61,1.61,0,0,1,1,.32,1,1,0,0,1,.39.84,1.79,1.79,0,0,1-.28,1,7.93,7.93,0,0,1-.83,1,7.92,7.92,0,0,0-1.2,1.55A3.71,3.71,0,0,0,94.82,48a1.72,1.72,0,0,0,.35,1.15A1.2,1.2,0,0,0,96.14,49.55Zm0,5.74A2.29,2.29,0,0,0,98.52,53a2.28,2.28,0,0,0-.66-1.66,2.24,2.24,0,0,0-1.67-.67,2.21,2.21,0,0,0-1.65.67A2.28,2.28,0,0,0,93.88,53a2.25,2.25,0,0,0,.66,1.65A2.22,2.22,0,0,0,96.19,55.29Z"/></svg>