<svg id="Layer_1" data-name="Layer 1" xmlns="http://www.w3.org/2000/svg" viewBox="0 0 122.3 122.3"><title>l9_1_1</title><path d="M121.91,44.44V61.1a8.66,8.66,0,0,1-8.66,8.65H99.17l0,22.49A4.52,4.52,0,0,1,98,95.59a4.57,4.57,0,0,1-3.43,1.31H76.38v3.74a8.69,8.69,0,0,1-8.69,8.69H51.11a8.7,8.7,0,0,1-8.7-8.69V96.9H24.08a4.48,4.48,0,0,1-2.93-1.24,4.92,4.92,0,0,1-1.3-3c-.33-2.63-.36-11.2,0-22.91H8.38A8.65,8.65,0,0,1-.27,61.1V44.44a8.66,8.66,0,0,1,8.65-8.66H42a8.66,8.66,0,0,1,8.65,8.66V61.1A8.65,8.65,0,0,1,42,69.75H28.33q0,9.21.05,18.42h14V84.06a8.71,8.71,0,0,1,8.7-8.7H67.69a8.7,8.7,0,0,1,8.69,8.7v4.11H90.57q0-9.21,0-18.42h-11A8.66,8.66,0,0,1,71,61.1V44.44a8.66,8.66,0,0,1,8.66-8.66h33.64A8.66,8.66,0,0,1,121.91,44.44ZM14,57.31H12.23v-10A1.84,1.84,0,0,0,11.72,46a1.88,1.88,0,0,0-1.36-.5A3.56,3.56,0,0,0,8.62,46L5.26,48a1.42,1.42,0,0,0-.73,1.3A1.75,1.75,0,0,0,5,50.41a1.24,1.24,0,0,0,1,.52,1.43,1.43,0,0,0,.74-.21l1.68-1v7.58H6.67a2.14,2.14,0,0,0-1.39.38,1.42,1.42,0,0,0-.44,1.13q0,1.56,1.83,1.56H14q1.83,0,1.83-1.56a1.42,1.42,0,0,0-.44-1.13A2.12,2.12,0,0,0,14,57.31Zm4.71,3.19a2,2,0,0,0,1.44-.58,2,2,0,0,0,.57-1.45A2,2,0,0,0,20.1,57a2,2,0,0,0-3.48,1.45,2,2,0,0,0,.58,1.45A2,2,0,0,0,18.66,60.5Zm11.82-7.74a3.37,3.37,0,0,0,1.67-1.28,3.46,3.46,0,0,0,.6-2,3.63,3.63,0,0,0-.64-2.14,4.07,4.07,0,0,0-1.83-1.43,6.87,6.87,0,0,0-2.74-.51,8.5,8.5,0,0,0-2.49.38,6.84,6.84,0,0,0-2.13,1.05,1.63,1.63,0,0,0-.5.57,1.61,1.61,0,0,0-.15.73,1.72,1.72,0,0,0,.36,1.11,1.09,1.09,0,0,0,.88.45,1.21,1.21,0,0,0,.52-.1,5.46,5.46,0,0,0,.63-.3l.45-.21a10.24,10.24,0,0,1,1.14-.5,3.07,3.07,0,0,1,1.1-.19,1.77,1.77,0,0,1,1.28.43A1.55,1.55,0,0,1,29.1,50a1.2,1.2,0,0,1-.53,1.08,3.26,3.26,0,0,1-1.68.33H26a1.22,1.22,0,0,0-1,.44,1.63,1.63,0,0,0-.36,1A1.59,1.59,0,0,0,25,54a1.19,1.19,0,0,0,1,.44h1.3a3.12,3.12,0,0,1,1.72.36,1.33,1.33,0,0,1,.53,1.18A1.49,1.49,0,0,1,29,57.19a2.94,2.94,0,0,1-1.69.37,4.11,4.11,0,0,1-1.21-.17,8.72,8.72,0,0,1-1.2-.52l-.27-.11-.2-.1a5.46,5.46,0,0,0-.63-.3,1.24,1.24,0,0,0-.52-.1,1.07,1.07,0,0,0-.88.45A1.74,1.74,0,0,0,22,57.82a1.59,1.59,0,0,0,.15.72,1.56,1.56,0,0,0,.5.58,6.92,6.92,0,0,0,2.18,1.06,9.55,9.55,0,0,0,2.63.37,7.76,7.76,0,0,0,3-.52,4.36,4.36,0,0,0,2-1.46,3.61,3.61,0,0,0,.7-2.22,3.72,3.72,0,0,0-.71-2.29A3.51,3.51,0,0,0,30.48,52.76Zm13.13,0a3.16,3.16,0,0,0,1.64-1.24,3.65,3.65,0,0,0,.6-2.1,3.45,3.45,0,0,0-1.46-3,6.55,6.55,0,0,0-4-1.09,6.58,6.58,0,0,0-4,1.09,3.46,3.46,0,0,0-1.47,3,3.57,3.57,0,0,0,.59,2,3.4,3.4,0,0,0,1.68,1.3,3.51,3.51,0,0,0-2,1.24,3.72,3.72,0,0,0-.69,2.3,3.63,3.63,0,0,0,1.56,3.12,7.19,7.19,0,0,0,4.27,1.13,7.22,7.22,0,0,0,4.28-1.13,3.63,3.63,0,0,0,1.56-3.12,3.45,3.45,0,0,0-2.64-3.54Zm-3.2,4.87c-1.52,0-2.28-.55-2.28-1.64s.76-1.64,2.28-1.64S42.7,54.9,42.7,56,41.94,57.63,40.41,57.63Zm0-9.33a2.28,2.28,0,0,1,1.41.37,1.77,1.77,0,0,1,0,2.38,2.16,2.16,0,0,1-1.41.38,2.11,2.11,0,0,1-1.4-.38,1.74,1.74,0,0,1,0-2.38A2.23,2.23,0,0,1,40.41,48.3Zm55.68,8.2a1.41,1.41,0,0,0,.88-.29,1.31,1.31,0,0,0,.47-.82,2.26,2.26,0,0,1,.54-1,12,12,0,0,1,1.21-1.12c.56-.49,1-.92,1.37-1.27a4.83,4.83,0,0,0,.9-1.27,3.71,3.71,0,0,0,.37-1.63,3.51,3.51,0,0,0-.7-2.15,4.61,4.61,0,0,0-1.92-1.49A6.79,6.79,0,0,0,96.43,45a8.87,8.87,0,0,0-2.77.45,8.35,8.35,0,0,0-2.46,1.23,2.06,2.06,0,0,0-.59.65,1.74,1.74,0,0,0-.18.84,1.92,1.92,0,0,0,.42,1.26,1.29,1.29,0,0,0,1,.52,3,3,0,0,0,1.32-.46l.57-.29A10.19,10.19,0,0,1,95,48.56a3.18,3.18,0,0,1,1.09-.2,1.58,1.58,0,0,1,1.05.31,1,1,0,0,1,.39.84,1.71,1.71,0,0,1-.28,1,7.31,7.31,0,0,1-.83,1,8.23,8.23,0,0,0-1.2,1.55,3.86,3.86,0,0,0-.43,1.89,1.74,1.74,0,0,0,.35,1.15A1.22,1.22,0,0,0,96.09,56.5Zm0,5.73a2.24,2.24,0,0,0,1.67-.67,2.41,2.41,0,0,0,0-3.31,2.24,2.24,0,0,0-1.67-.67,2.19,2.19,0,0,0-1.64.67,2.41,2.41,0,0,0,0,3.31A2.19,2.19,0,0,0,96.14,62.23ZM67.41,90.39H62V84.93a2.56,2.56,0,1,0-5.11,0v5.46H51.39a2.53,2.53,0,0,0-2.56,2.55,2.57,2.57,0,0,0,.74,1.85,2.45,2.45,0,0,0,1.82.75h5.45V101a2.53,2.53,0,0,0,2.56,2.55,2.43,2.43,0,0,0,1.84-.74A2.47,2.47,0,0,0,62,101V95.54h5.46a2.45,2.45,0,0,0,1.82-.75A2.56,2.56,0,0,0,70,92.94a2.45,2.45,0,0,0-.73-1.81A2.48,2.48,0,0,0,67.41,90.39Z"/></svg>