<svg id="Layer_1" data-name="Layer 1" xmlns="http://www.w3.org/2000/svg" viewBox="0 0 122.3 122.3"><title>l9_1_1</title><path d="M122.18,43.14V59.81a8.65,8.65,0,0,1-8.65,8.65H99.44l0,22.48a4.37,4.37,0,0,1-4.66,4.66H76.65v3.75A8.69,8.69,0,0,1,68,108H51.38a8.69,8.69,0,0,1-8.69-8.69V95.6H24.35a4.45,4.45,0,0,1-2.93-1.23,4.94,4.94,0,0,1-1.3-3c-.33-2.63-.36-11.2,0-22.91H8.65A8.65,8.65,0,0,1,0,59.81V43.14a8.65,8.65,0,0,1,8.65-8.65H42.3A8.65,8.65,0,0,1,51,43.14V59.81a8.65,8.65,0,0,1-8.65,8.65H28.6q0,9.21,0,18.42h14V82.76a8.69,8.69,0,0,1,8.69-8.69H68a8.69,8.69,0,0,1,8.69,8.69v4.12H90.84q0-9.21,0-18.42h-11a8.65,8.65,0,0,1-8.65-8.65V43.14a8.65,8.65,0,0,1,8.65-8.65h33.65A8.66,8.66,0,0,1,122.18,43.14ZM12.85,55.46H11.37V46.93a1.55,1.55,0,0,0-.44-1.17,1.59,1.59,0,0,0-1.16-.44,3.06,3.06,0,0,0-1.5.45L5.39,47.45a1.21,1.21,0,0,0-.63,1.11,1.55,1.55,0,0,0,.36,1A1.1,1.1,0,0,0,6,50a1.26,1.26,0,0,0,.63-.18L8.06,49v6.5H6.6a1.84,1.84,0,0,0-1.19.32,1.22,1.22,0,0,0-.38,1c0,.89.53,1.34,1.57,1.34h6.25c1,0,1.56-.45,1.56-1.34a1.19,1.19,0,0,0-.38-1A1.81,1.81,0,0,0,12.85,55.46Zm9.72-3.91A2.69,2.69,0,0,0,24,50.49a3.12,3.12,0,0,0,.51-1.8,3,3,0,0,0-1.25-2.53,5.59,5.59,0,0,0-3.41-.93,5.6,5.6,0,0,0-3.4.93,3,3,0,0,0-1.26,2.53,2.89,2.89,0,0,0,1.94,2.86,3,3,0,0,0-1.69,1.07,3.16,3.16,0,0,0-.59,2,3.1,3.1,0,0,0,1.34,2.68,6.16,6.16,0,0,0,3.66,1,6.16,6.16,0,0,0,3.66-1,3.1,3.1,0,0,0,1.34-2.68,3,3,0,0,0-2.26-3Zm-2.74,4.18c-1.31,0-2-.47-2-1.41s.65-1.4,2-1.4,2,.47,2,1.4S21.14,55.73,19.83,55.73Zm0-8a1.94,1.94,0,0,1,1.21.31,1.53,1.53,0,0,1,0,2,1.88,1.88,0,0,1-1.21.33,1.88,1.88,0,0,1-1.21-.33,1.53,1.53,0,0,1,0-2A1.94,1.94,0,0,1,19.83,47.74ZM34,51.84H31.69V49.57a1.06,1.06,0,0,0-1.06-1.06,1,1,0,0,0-1.06,1.06v2.27H27.3a1,1,0,0,0-1.06,1.06,1.08,1.08,0,0,0,.3.77,1,1,0,0,0,.76.31h2.27v2.25a1,1,0,0,0,1.06,1.06,1,1,0,0,0,.76-.3,1.06,1.06,0,0,0,.3-.76V54H34a1,1,0,0,0,.75-.31A1,1,0,0,0,35,52.9,1.06,1.06,0,0,0,34,51.84Zm11.1-6.44H38a1.78,1.78,0,0,0-1.19.33,1.48,1.48,0,0,0,0,2A1.79,1.79,0,0,0,38,48h4.5l-4.63,7.91a1.64,1.64,0,0,0-.25.86,1.33,1.33,0,0,0,.49,1,1.64,1.64,0,0,0,1.11.42A1.54,1.54,0,0,0,40,58a1.74,1.74,0,0,0,.62-.64L46.07,48a2.28,2.28,0,0,0,.35-1.19,1.39,1.39,0,0,0-.36-1A1.29,1.29,0,0,0,45.06,45.4ZM93.73,56.29H88.91l3.41-3.48a11.18,11.18,0,0,0,2-2.7,6.08,6.08,0,0,0,.59-2.67,4.38,4.38,0,0,0-.73-2.51,4.66,4.66,0,0,0-2.08-1.68A7.72,7.72,0,0,0,89,42.66a9.73,9.73,0,0,0-5.3,1.63,1.52,1.52,0,0,0-.59.63,2.09,2.09,0,0,0-.16.86,2.06,2.06,0,0,0,.41,1.28,1.22,1.22,0,0,0,1,.54,1.43,1.43,0,0,0,.46-.07,2.93,2.93,0,0,0,.49-.23l.37-.2.48-.24a11,11,0,0,1,1.36-.59,4,4,0,0,1,1.28-.2,1.87,1.87,0,0,1,1.33.43,1.62,1.62,0,0,1,.47,1.25,4.7,4.7,0,0,1-1.58,3l-5.09,5.3A2.6,2.6,0,0,0,83.1,58a1.78,1.78,0,0,0,.51,1.31A1.82,1.82,0,0,0,85,59.8h8.76a2.42,2.42,0,0,0,1.58-.44A1.64,1.64,0,0,0,95.82,58a1.6,1.6,0,0,0-.51-1.31A2.48,2.48,0,0,0,93.73,56.29Zm11.4-7.63a4.67,4.67,0,0,0-2,.44,3.79,3.79,0,0,0-1.48,1.22,6.5,6.5,0,0,1,.9-3.14,2.29,2.29,0,0,1,2-1.11,3.14,3.14,0,0,1,1.1.19,12.55,12.55,0,0,1,1.32.58l.53.26c.31.16.55.28.72.35a1.64,1.64,0,0,0,.6.11,1.29,1.29,0,0,0,1-.52,1.92,1.92,0,0,0,.42-1.26,1.74,1.74,0,0,0-.18-.84,2.06,2.06,0,0,0-.59-.65,7.66,7.66,0,0,0-2.41-1.2,9.21,9.21,0,0,0-2.75-.43,6.51,6.51,0,0,0-3.73,1.08,7,7,0,0,0-2.47,3.08,11.73,11.73,0,0,0-.88,4.7,9.52,9.52,0,0,0,1.85,6.28A6.42,6.42,0,0,0,104.29,60a6.23,6.23,0,0,0,3-.74,5.32,5.32,0,0,0,2.1-2.08,5.93,5.93,0,0,0,.76-3,6,6,0,0,0-.66-2.84,5,5,0,0,0-1.81-2A4.9,4.9,0,0,0,105.13,48.66Zm-1.1,8a1.91,1.91,0,0,1-1.49-.64,2.69,2.69,0,0,1,0-3.3,2,2,0,0,1,1.5-.62,1.89,1.89,0,0,1,1.5.61,2.43,2.43,0,0,1,.54,1.67,2.37,2.37,0,0,1-.55,1.65A1.89,1.89,0,0,1,104,56.63ZM67.68,89.1H62.23V83.64a2.56,2.56,0,1,0-5.11,0V89.1H51.66a2.51,2.51,0,0,0-2.56,2.55,2.54,2.54,0,0,0,.74,1.84,2.42,2.42,0,0,0,1.82.76h5.46v5.41a2.58,2.58,0,0,0,4.39,1.82,2.49,2.49,0,0,0,.72-1.82V94.25h5.45a2.42,2.42,0,0,0,1.82-.76,2.54,2.54,0,0,0,.74-1.84,2.51,2.51,0,0,0-2.56-2.55Z"/></svg>