<svg id="Layer_1" data-name="Layer 1" xmlns="http://www.w3.org/2000/svg" viewBox="0 0 122.3 122.3"><title>l9_1_1</title><path d="M122.39,18v40.8A11.74,11.74,0,0,1,110.65,70.5h-11l0,22.5A4.39,4.39,0,0,1,95,97.67H75.43l-9.12,18.45c-.31.53-2.2,3.71-5.31,3.8-3.29.1-5.31-3.3-5.59-3.8L45.49,97.67h-21a4.42,4.42,0,0,1-2.93-1.24,5,5,0,0,1-1.31-3c-.33-2.63-.36-11.21,0-22.93H11.82A11.74,11.74,0,0,1,.08,58.76V18A11.74,11.74,0,0,1,11.82,6.23H39.35A11.74,11.74,0,0,1,51.09,18v40.8A11.74,11.74,0,0,1,39.35,70.5H28.71q0,9.21.05,18.43h12l-2.56-4.77c-.81-1.49-1.65-4.37-.34-6.49a5.89,5.89,0,0,1,4-2.37l35.61,0a5.83,5.83,0,0,1,4.25,1.79,6,6,0,0,1,.37,7c-.79,1.58-1.57,3.17-2.35,4.75H91q0-9.21,0-18.43H83.12A11.74,11.74,0,0,1,71.38,58.76V18A11.74,11.74,0,0,1,83.12,6.23h27.53A11.74,11.74,0,0,1,122.39,18ZM96.1,45.69a2.89,2.89,0,0,0,1.82-.6,2.69,2.69,0,0,0,1-1.7,4.63,4.63,0,0,1,1.12-2A23.18,23.18,0,0,1,102.55,39c1.16-1,2.11-1.92,2.85-2.65a10.41,10.41,0,0,0,1.87-2.65,7.71,7.71,0,0,0-.67-7.88,9.67,9.67,0,0,0-4-3.1,14.26,14.26,0,0,0-5.8-1.12,18.67,18.67,0,0,0-5.78.92,17.85,17.85,0,0,0-5.12,2.58,4.25,4.25,0,0,0-1.23,1.35,3.66,3.66,0,0,0-.37,1.75,4,4,0,0,0,.87,2.62,2.64,2.64,0,0,0,2.13,1.08,6.17,6.17,0,0,0,2.75-1l1.2-.6a16.88,16.88,0,0,1,2.52-1.23,6.47,6.47,0,0,1,2.28-.42,3.37,3.37,0,0,1,2.2.65,2.13,2.13,0,0,1,.8,1.75,3.68,3.68,0,0,1-.58,2,17,17,0,0,1-1.72,2.15,16.27,16.27,0,0,0-2.5,3.22,7.83,7.83,0,0,0-.9,3.93,3.62,3.62,0,0,0,.72,2.4A2.54,2.54,0,0,0,96.1,45.69Zm.1,12a4.67,4.67,0,0,0,3.47-1.4,5,5,0,0,0,0-6.9,5,5,0,0,0-6.9,0,5,5,0,0,0,0,6.9A4.63,4.63,0,0,0,96.2,57.64ZM68.66,90.38H63.18V84.9a2.49,2.49,0,0,0-.74-1.83,2.63,2.63,0,0,0-3.66,0A2.49,2.49,0,0,0,58,84.9v5.48H52.56A2.53,2.53,0,0,0,50,93a2.58,2.58,0,0,0,.74,1.85,2.47,2.47,0,0,0,1.83.76H58V101a2.53,2.53,0,0,0,2.57,2.57,2.49,2.49,0,0,0,1.85-.74,2.54,2.54,0,0,0,.72-1.83V95.56h5.48a2.48,2.48,0,0,0,1.83-.76A2.58,2.58,0,0,0,71.23,93a2.53,2.53,0,0,0-2.57-2.57ZM22.86,28.8H20.49V15.12a2.52,2.52,0,0,0-.71-1.88,2.54,2.54,0,0,0-1.86-.69,4.85,4.85,0,0,0-2.39.72L10.91,16a2,2,0,0,0-1,1.78,2.41,2.41,0,0,0,.58,1.58,1.71,1.71,0,0,0,1.38.7,2,2,0,0,0,1-.28l2.31-1.36V28.8H12.84a2.86,2.86,0,0,0-1.9.52,1.91,1.91,0,0,0-.61,1.56c0,1.42.84,2.13,2.51,2.13h10c1.67,0,2.51-.71,2.51-2.13a1.91,1.91,0,0,0-.61-1.56A2.86,2.86,0,0,0,22.86,28.8Zm14.86-6.26A4.66,4.66,0,0,0,40,20.79,4.81,4.81,0,0,0,40.84,18,5.1,5.1,0,0,0,40,15.06a5.66,5.66,0,0,0-2.51-2,9.64,9.64,0,0,0-3.77-.69,11.4,11.4,0,0,0-3.42.52,9.32,9.32,0,0,0-2.93,1.44,2.23,2.23,0,0,0-.69.78,2.17,2.17,0,0,0-.2,1,2.34,2.34,0,0,0,.49,1.51,1.46,1.46,0,0,0,1.21.62,1.81,1.81,0,0,0,.72-.13,7.9,7.9,0,0,0,.87-.42l.6-.28c.58-.29,1.1-.52,1.57-.7a4.49,4.49,0,0,1,1.52-.26,2.45,2.45,0,0,1,1.76.6,2.14,2.14,0,0,1,.63,1.65,1.63,1.63,0,0,1-.72,1.48,4.5,4.5,0,0,1-2.31.46H31.51a1.66,1.66,0,0,0-1.35.6,2.23,2.23,0,0,0-.49,1.45,2.19,2.19,0,0,0,.49,1.44,1.66,1.66,0,0,0,1.35.61H33.3a4.32,4.32,0,0,1,2.37.49,1.79,1.79,0,0,1,.72,1.61,2,2,0,0,1-.7,1.74,4.1,4.1,0,0,1-2.33.51,5.37,5.37,0,0,1-1.66-.24A12.47,12.47,0,0,1,30,28.19L29.68,28l-.27-.13c-.37-.19-.66-.33-.87-.41a1.81,1.81,0,0,0-.72-.13,1.48,1.48,0,0,0-1.21.62,2.32,2.32,0,0,0-.49,1.51,2.2,2.2,0,0,0,.2,1,2.17,2.17,0,0,0,.69.79,9.32,9.32,0,0,0,3,1.46,13.11,13.11,0,0,0,3.61.5,10.92,10.92,0,0,0,4.09-.7,6.08,6.08,0,0,0,2.69-2,5,5,0,0,0,1-3.06,5.12,5.12,0,0,0-1-3.14A4.89,4.89,0,0,0,37.72,22.54ZM26.23,52.77a7.34,7.34,0,0,0-2.86.51V49.74H29.6c1.68,0,2.51-.68,2.51-2s-.83-2-2.51-2H20.66a2.47,2.47,0,0,0-1.82.64,2.52,2.52,0,0,0-.64,1.85V56a1.59,1.59,0,0,0,.55,1.25,2,2,0,0,0,1.36.48,2.81,2.81,0,0,0,1.3-.32,10.21,10.21,0,0,1,1.66-.52,8.33,8.33,0,0,1,1.57-.14,3.27,3.27,0,0,1,2.25.72,2.56,2.56,0,0,1,.81,2,2.49,2.49,0,0,1-.78,2,3.66,3.66,0,0,1-2.4.65,4.63,4.63,0,0,1-1.6-.26,15.39,15.39,0,0,1-1.63-.69L20.71,61a9.54,9.54,0,0,0-.86-.43,1.87,1.87,0,0,0-.72-.12,1.49,1.49,0,0,0-1.21.62,2.38,2.38,0,0,0-.5,1.52,2.16,2.16,0,0,0,.22,1,2.62,2.62,0,0,0,.68.8,9.49,9.49,0,0,0,3,1.44,11.87,11.87,0,0,0,3.5.52,9.47,9.47,0,0,0,4.13-.86A6.51,6.51,0,0,0,31.68,63a6.77,6.77,0,0,0,1-3.66,6.92,6.92,0,0,0-.82-3.42,5.89,5.89,0,0,0-2.28-2.31A6.63,6.63,0,0,0,26.23,52.77ZM41.06,39.45h0a2.62,2.62,0,0,0-2.62-2.62H11.18a2.61,2.61,0,0,0-2.61,2.62h0a2.61,2.61,0,0,0,2.61,2.61H38.44A2.61,2.61,0,0,0,41.06,39.45Z"/></svg>