<svg id="Layer_1" data-name="Layer 1" xmlns="http://www.w3.org/2000/svg" viewBox="0 0 122.3 122.3"><title>l9_1_1</title><path d="M122.39,44.65V55.18a11.74,11.74,0,0,1-11.74,11.74h-11l0,22.52A4.39,4.39,0,0,1,95,94.11H75.19q-4.05,8.2-8.12,16.41c-.3.53-2.17,3.69-5.28,3.78s-5.27-3.28-5.55-3.78L47.42,94.11h-23a4.44,4.44,0,0,1-2.93-1.24,4.89,4.89,0,0,1-1.3-3c-.33-2.64-.37-11.22,0-23H11.77A11.74,11.74,0,0,1,0,55.18V44.65A11.75,11.75,0,0,1,11.77,32.9H39.31A11.75,11.75,0,0,1,51.06,44.65V55.18A11.74,11.74,0,0,1,39.31,66.92H28.67q0,9.22,0,18.45h14c-1.18-2.21-2.37-4.41-3.56-6.62a8.51,8.51,0,0,1-.33-6.46A3.93,3.93,0,0,1,41,69.93L79.86,70a4.19,4.19,0,0,1,2.8,2.81,9.75,9.75,0,0,1,.12,6l-3.27,6.61H91q0-9.23,0-18.45H83.1A11.74,11.74,0,0,1,71.36,55.18V44.65A11.75,11.75,0,0,1,83.1,32.9h27.55A11.75,11.75,0,0,1,122.39,44.65ZM68.82,85.2H63.34V79.72a2.57,2.57,0,1,0-5.14,0V85.2H52.72a2.53,2.53,0,0,0-2.57,2.57,2.57,2.57,0,0,0,.74,1.85,2.45,2.45,0,0,0,1.83.76H58.2v5.44a2.57,2.57,0,1,0,5.14,0V90.38h5.48a2.43,2.43,0,0,0,1.83-.76,2.57,2.57,0,0,0,.74-1.85,2.52,2.52,0,0,0-.74-1.83A2.49,2.49,0,0,0,68.82,85.2Zm-57-36.05a2.71,2.71,0,0,0,1.41-1.07,3.12,3.12,0,0,0,.51-1.8,3,3,0,0,0-1.25-2.52,5.59,5.59,0,0,0-3.41-.93,5.6,5.6,0,0,0-3.4.93,3,3,0,0,0-1.26,2.52A3,3,0,0,0,4.9,48a2.9,2.9,0,0,0,1.44,1.11,3,3,0,0,0-1.7,1.07,3.2,3.2,0,0,0-.59,2,3.11,3.11,0,0,0,1.34,2.67,6.16,6.16,0,0,0,3.66,1,6.22,6.22,0,0,0,3.67-1,3.11,3.11,0,0,0,1.34-2.67,3.17,3.17,0,0,0-.59-1.94A3.09,3.09,0,0,0,11.79,49.15ZM9.05,53.32c-1.31,0-2-.47-2-1.4s.65-1.41,2-1.41,2,.47,2,1.41S10.36,53.32,9.05,53.32Zm0-8a1.94,1.94,0,0,1,1.21.32,1.23,1.23,0,0,1,.39,1,1.27,1.27,0,0,1-.39,1A1.88,1.88,0,0,1,9.05,48a1.83,1.83,0,0,1-1.2-.32,1.24,1.24,0,0,1-.4-1,1.2,1.2,0,0,1,.4-1A1.89,1.89,0,0,1,9.05,45.33Zm11.88,2a3.49,3.49,0,0,0-1.52.33,2.93,2.93,0,0,0-1.11.91A4.85,4.85,0,0,1,19,46.22a1.71,1.71,0,0,1,1.48-.83,2.3,2.3,0,0,1,.83.14c.27.1.6.24,1,.43l.4.2a6,6,0,0,0,.54.26,1.25,1.25,0,0,0,.45.08.94.94,0,0,0,.76-.39,1.43,1.43,0,0,0,.32-.94,1.33,1.33,0,0,0-.14-.63,1.51,1.51,0,0,0-.44-.49,5.79,5.79,0,0,0-1.81-.9,7.17,7.17,0,0,0-2.06-.32,4.88,4.88,0,0,0-2.8.81A5.31,5.31,0,0,0,15.65,46,8.7,8.7,0,0,0,15,49.47a7.14,7.14,0,0,0,1.39,4.72,4.83,4.83,0,0,0,3.92,1.65,4.57,4.57,0,0,0,2.29-.56,4,4,0,0,0,1.57-1.55,4.82,4.82,0,0,0,.08-4.39,3.75,3.75,0,0,0-1.36-1.48A3.7,3.7,0,0,0,20.93,47.33Zm-.83,6A1.43,1.43,0,0,1,19,52.83a1.76,1.76,0,0,1-.43-1.23A1.82,1.82,0,0,1,19,50.35a1.62,1.62,0,0,1,2.25,0,1.85,1.85,0,0,1,.4,1.26,1.79,1.79,0,0,1-.41,1.24A1.43,1.43,0,0,1,20.1,53.31ZM34,49.43H31.71V47.17a1,1,0,0,0-1.06-1.07,1.06,1.06,0,0,0-1.06,1.07v2.26H27.32a1.07,1.07,0,0,0-.75,1.83,1,1,0,0,0,.75.32h2.27v2.25a1.06,1.06,0,0,0,1.06,1.06,1,1,0,0,0,1.06-1.06V51.58H34a1,1,0,0,0,.76-.32A1.07,1.07,0,0,0,34,49.43Zm7-6.6a4.53,4.53,0,0,0-2.28.56,4,4,0,0,0-1.58,1.55,4.49,4.49,0,0,0-.57,2.26,4.56,4.56,0,0,0,.5,2.14,3.65,3.65,0,0,0,1.36,1.47,3.56,3.56,0,0,0,1.94.53A3.49,3.49,0,0,0,41.89,51,2.77,2.77,0,0,0,43,50.1a4.86,4.86,0,0,1-.67,2.35,1.73,1.73,0,0,1-1.49.84,2.34,2.34,0,0,1-.83-.15,10.66,10.66,0,0,1-1-.43l-.39-.2-.54-.26a1.33,1.33,0,0,0-.45-.08,1,1,0,0,0-.77.39,1.44,1.44,0,0,0-.31.94,1.28,1.28,0,0,0,.13.63,1.64,1.64,0,0,0,.44.49,6,6,0,0,0,1.81.9,6.84,6.84,0,0,0,2.06.32A4.88,4.88,0,0,0,43.8,55a5.25,5.25,0,0,0,1.86-2.31,8.85,8.85,0,0,0,.65-3.52,7.15,7.15,0,0,0-1.38-4.71A4.84,4.84,0,0,0,41,42.83Zm.2,6a1.43,1.43,0,0,1-1.12-.46,1.83,1.83,0,0,1-.41-1.25,1.86,1.86,0,0,1,.41-1.25,1.43,1.43,0,0,1,1.12-.46,1.46,1.46,0,0,1,1.12.47,1.81,1.81,0,0,1,.43,1.24,1.79,1.79,0,0,1-.42,1.24A1.47,1.47,0,0,1,41.2,48.79Zm55.19,5a1.4,1.4,0,0,0,.87-.29,1.24,1.24,0,0,0,.47-.82,2.26,2.26,0,0,1,.54-1,11,11,0,0,1,1.21-1.11c.56-.5,1-.92,1.37-1.28a4.83,4.83,0,0,0,.9-1.27,3.73,3.73,0,0,0-.32-3.78,4.74,4.74,0,0,0-1.92-1.49,6.87,6.87,0,0,0-2.79-.54A8.87,8.87,0,0,0,94,42.7a8.59,8.59,0,0,0-2.46,1.23,2.19,2.19,0,0,0-.59.65,1.8,1.8,0,0,0-.18.84,1.92,1.92,0,0,0,.42,1.26,1.26,1.26,0,0,0,1,.52,2.85,2.85,0,0,0,1.32-.46l.58-.29a8.62,8.62,0,0,1,1.21-.58,3,3,0,0,1,1.09-.21,1.69,1.69,0,0,1,1.06.31,1,1,0,0,1,.38.84,1.74,1.74,0,0,1-.27,1,8.1,8.1,0,0,1-.83,1,7.88,7.88,0,0,0-1.2,1.54,3.77,3.77,0,0,0-.43,1.89,1.73,1.73,0,0,0,.34,1.15A1.24,1.24,0,0,0,96.39,53.8Zm0,5.73a2.22,2.22,0,0,0,1.67-.67,2.41,2.41,0,0,0,0-3.31,2.38,2.38,0,0,0-3.31,0,2.41,2.41,0,0,0,0,3.31A2.2,2.2,0,0,0,96.43,59.53Z"/></svg>