<svg id="Layer_1" data-name="Layer 1" xmlns="http://www.w3.org/2000/svg" viewBox="0 0 122.3 122.3"><title>l9_1_1</title><path d="M122,44.67V61.33A8.65,8.65,0,0,1,113.32,70H99.23l0,22.49A4.51,4.51,0,0,1,98,95.82a4.57,4.57,0,0,1-3.43,1.31H76.44v3.74a8.7,8.7,0,0,1-8.69,8.7H51.17a8.7,8.7,0,0,1-8.69-8.7V97.13H24.14a4.4,4.4,0,0,1-2.92-1.24,4.88,4.88,0,0,1-1.31-3c-.33-2.64-.36-11.21,0-22.92H8.44A8.65,8.65,0,0,1-.21,61.33V44.67A8.65,8.65,0,0,1,8.44,36H42.09a8.65,8.65,0,0,1,8.65,8.65V61.33A8.65,8.65,0,0,1,42.09,70H28.39q0,9.21.05,18.42h14V84.29a8.69,8.69,0,0,1,8.69-8.69H67.75a8.69,8.69,0,0,1,8.69,8.69V88.4H90.63l0-18.42h-11A8.65,8.65,0,0,1,71,61.33V44.67A8.65,8.65,0,0,1,79.67,36h33.65A8.65,8.65,0,0,1,122,44.67ZM9.56,61.8a4.93,4.93,0,0,0,4.21-1.95,9.43,9.43,0,0,0,1.44-5.65,9.24,9.24,0,0,0-1.46-5.63,4.91,4.91,0,0,0-4.19-2,4.89,4.89,0,0,0-4.19,2A9.31,9.31,0,0,0,3.92,54.2a9.35,9.35,0,0,0,1.45,5.65A4.89,4.89,0,0,0,9.56,61.8Zm0-2.92a1.49,1.49,0,0,1-1.44-1.09,10.34,10.34,0,0,1-.44-3.59,10.19,10.19,0,0,1,.44-3.58,1.5,1.5,0,0,1,2.89,0,10.19,10.19,0,0,1,.45,3.57A10.28,10.28,0,0,1,11,57.79,1.49,1.49,0,0,1,9.56,58.88Zm9.16,2.86a2,2,0,0,0,1.44-.59,2.1,2.1,0,0,0,0-2.9,2.08,2.08,0,0,0-2.9,0,2.1,2.1,0,0,0,0,2.9A2,2,0,0,0,18.72,61.74Zm10.19-9.81a5.26,5.26,0,0,0-2.08.38V49.72h4.53q1.83,0,1.83-1.47t-1.83-1.44H24.85a1.78,1.78,0,0,0-1.32.46,1.8,1.8,0,0,0-.46,1.34V54.3a1.15,1.15,0,0,0,.4.92,1.43,1.43,0,0,0,1,.34,2,2,0,0,0,.95-.23A7.41,7.41,0,0,1,26.61,55a5.69,5.69,0,0,1,1.14-.1,2.37,2.37,0,0,1,1.64.52A1.88,1.88,0,0,1,30,56.84a1.8,1.8,0,0,1-.57,1.48,2.66,2.66,0,0,1-1.74.48,3.68,3.68,0,0,1-1.17-.19c-.36-.13-.75-.3-1.19-.51l-.42-.21a5.7,5.7,0,0,0-.63-.31,1.31,1.31,0,0,0-.52-.09,1.1,1.1,0,0,0-.88.46,1.71,1.71,0,0,0-.36,1.1,1.47,1.47,0,0,0,.16.72,1.75,1.75,0,0,0,.49.58,6.84,6.84,0,0,0,2.15,1,8.92,8.92,0,0,0,2.56.38,6.82,6.82,0,0,0,3-.63,4.68,4.68,0,0,0,2-1.79,4.91,4.91,0,0,0,.72-2.66,5,5,0,0,0-.6-2.49,4.26,4.26,0,0,0-1.66-1.68A4.83,4.83,0,0,0,28.91,51.93Zm16,6.62H43.21v-10a1.77,1.77,0,0,0-1.87-1.87,3.58,3.58,0,0,0-1.75.53l-3.36,2a1.42,1.42,0,0,0-.73,1.3,1.79,1.79,0,0,0,.42,1.15,1.27,1.27,0,0,0,1,.51,1.43,1.43,0,0,0,.73-.21l1.68-1v7.59h-1.7a2.09,2.09,0,0,0-1.38.37,1.4,1.4,0,0,0-.45,1.14c0,1,.61,1.55,1.83,1.55h7.29c1.22,0,1.83-.52,1.83-1.55a1.4,1.4,0,0,0-.45-1.14A2.09,2.09,0,0,0,44.93,58.55Zm51.22-1.82a1.41,1.41,0,0,0,.88-.29,1.28,1.28,0,0,0,.47-.82,2.26,2.26,0,0,1,.54-1,11,11,0,0,1,1.21-1.11c.56-.5,1-.92,1.37-1.28a4.83,4.83,0,0,0,.9-1.27,3.55,3.55,0,0,0,.37-1.63,3.51,3.51,0,0,0-.7-2.15,4.61,4.61,0,0,0-1.92-1.49,6.79,6.79,0,0,0-2.78-.54,8.87,8.87,0,0,0-2.77.45,8.59,8.59,0,0,0-2.46,1.23,2.19,2.19,0,0,0-.59.65,1.8,1.8,0,0,0-.18.84,1.92,1.92,0,0,0,.42,1.26,1.26,1.26,0,0,0,1,.52,2.85,2.85,0,0,0,1.32-.46l.58-.29A8.13,8.13,0,0,1,95,48.8a3,3,0,0,1,1.09-.21,1.69,1.69,0,0,1,1.06.31,1,1,0,0,1,.38.84,1.67,1.67,0,0,1-.28,1,7.9,7.9,0,0,1-.82,1,7.18,7.18,0,0,0-1.2,1.54,3.77,3.77,0,0,0-.44,1.89,1.74,1.74,0,0,0,.35,1.15A1.22,1.22,0,0,0,96.15,56.73Zm0,5.73a2.24,2.24,0,0,0,1.67-.67,2.41,2.41,0,0,0,0-3.31,2.24,2.24,0,0,0-1.67-.67,2.2,2.2,0,0,0-1.64.67,2.41,2.41,0,0,0,0,3.31A2.2,2.2,0,0,0,96.2,62.46ZM67.47,90.62H62V85.17a2.56,2.56,0,1,0-5.11,0v5.45H51.45a2.51,2.51,0,0,0-2.55,2.56A2.55,2.55,0,0,0,49.63,95a2.46,2.46,0,0,0,1.82.76h5.46v5.41a2.49,2.49,0,0,0,2.55,2.55A2.44,2.44,0,0,0,61.3,103a2.5,2.5,0,0,0,.72-1.82V95.78h5.45A2.46,2.46,0,0,0,69.29,95,2.56,2.56,0,0,0,70,93.18a2.53,2.53,0,0,0-2.56-2.56Z"/></svg>