<svg id="Layer_1" data-name="Layer 1" xmlns="http://www.w3.org/2000/svg" viewBox="0 0 122.3 122.3"><title>l9_1_1</title><path d="M122.42,44.65V55.18a11.74,11.74,0,0,1-11.75,11.74h-11l0,22.52a4.48,4.48,0,0,1-1.23,3.36A4.57,4.57,0,0,1,95,94.11H75.22L67.1,110.52c-.3.53-2.18,3.69-5.28,3.78-3.26.1-5.27-3.28-5.56-3.78L47.44,94.11h-23a4.42,4.42,0,0,1-2.93-1.24,5,5,0,0,1-1.31-3c-.33-2.64-.36-11.22,0-23H11.8A11.73,11.73,0,0,1,.06,55.18V44.65A11.74,11.74,0,0,1,11.8,32.9H39.34A11.74,11.74,0,0,1,51.08,44.65V55.18A11.73,11.73,0,0,1,39.34,66.92H28.7q0,9.22.05,18.45h14l-3.56-6.62a8.51,8.51,0,0,1-.34-6.46A3.94,3.94,0,0,1,41,69.93L79.89,70a4.19,4.19,0,0,1,2.8,2.81,9.75,9.75,0,0,1,.12,6l-3.27,6.61H91l0-18.45H83.13A11.74,11.74,0,0,1,71.39,55.18V44.65A11.75,11.75,0,0,1,83.13,32.9h27.54A11.75,11.75,0,0,1,122.42,44.65ZM68.85,85.2H63.37V79.72a2.57,2.57,0,1,0-5.14,0V85.2H52.75a2.49,2.49,0,0,0-1.83.74,2.52,2.52,0,0,0-.74,1.83,2.57,2.57,0,0,0,.74,1.85,2.43,2.43,0,0,0,1.83.76h5.48v5.44a2.57,2.57,0,1,0,5.14,0V90.38h5.48a2.46,2.46,0,0,0,1.83-.76,2.57,2.57,0,0,0,.74-1.85,2.53,2.53,0,0,0-2.57-2.57ZM8.13,45.68a3.64,3.64,0,0,0-1.78.44,3.09,3.09,0,0,0-1.22,1.21,3.43,3.43,0,0,0-.44,1.76,3.62,3.62,0,0,0,.38,1.66,2.85,2.85,0,0,0,1.06,1.14,2.79,2.79,0,0,0,1.51.42,2.72,2.72,0,0,0,1.18-.26,2.26,2.26,0,0,0,.87-.71,3.85,3.85,0,0,1-.53,1.83A1.34,1.34,0,0,1,8,53.82a2,2,0,0,1-.65-.11c-.2-.08-.46-.19-.77-.34l-.31-.15A4.05,4.05,0,0,0,5.86,53,1,1,0,0,0,5.51,53a.73.73,0,0,0-.59.3,1.11,1.11,0,0,0-.25.74,1,1,0,0,0,.11.49,1.16,1.16,0,0,0,.34.37,4.45,4.45,0,0,0,1.41.71,5.67,5.67,0,0,0,1.6.25,3.8,3.8,0,0,0,2.18-.63,4.07,4.07,0,0,0,1.44-1.8,6.8,6.8,0,0,0,.51-2.74A5.56,5.56,0,0,0,11.18,47,3.75,3.75,0,0,0,8.13,45.68Zm.16,4.64A1.1,1.1,0,0,1,7.41,50a1.65,1.65,0,0,1,0-1.94,1.1,1.1,0,0,1,.87-.36,1.09,1.09,0,0,1,.86.37,1.54,1.54,0,0,1,0,1.92A1.1,1.1,0,0,1,8.29,50.32ZM19,50.6a2.14,2.14,0,0,0,1.1-.83,2.48,2.48,0,0,0,.4-1.4,2.31,2.31,0,0,0-1-2,4.34,4.34,0,0,0-2.65-.73,4.35,4.35,0,0,0-2.64.73,2.28,2.28,0,0,0-1,2,2.4,2.4,0,0,0,.39,1.37,2.28,2.28,0,0,0,1.12.86,2.38,2.38,0,0,0-1.32.83A2.47,2.47,0,0,0,13,53,2.42,2.42,0,0,0,14,55a4.82,4.82,0,0,0,2.85.75A4.8,4.8,0,0,0,19.73,55a2.4,2.4,0,0,0,1-2.07,2.48,2.48,0,0,0-.45-1.51A2.44,2.44,0,0,0,19,50.6Zm-2.13,3.25c-1,0-1.52-.37-1.52-1.09s.5-1.1,1.52-1.1,1.53.37,1.53,1.1S17.9,53.85,16.88,53.85Zm0-6.22a1.47,1.47,0,0,1,.94.25,1,1,0,0,1,.31.79,1,1,0,0,1-.31.8,1.53,1.53,0,0,1-.94.25,1.53,1.53,0,0,1-.94-.25,1,1,0,0,1-.3-.8,1,1,0,0,1,.3-.79A1.47,1.47,0,0,1,16.88,47.63Zm8.05-2a3.64,3.64,0,0,0-1.78.44,3.09,3.09,0,0,0-1.22,1.21,3.43,3.43,0,0,0-.44,1.76,3.62,3.62,0,0,0,.38,1.66,2.85,2.85,0,0,0,1.06,1.14,2.79,2.79,0,0,0,1.51.42,2.72,2.72,0,0,0,1.18-.26,2.15,2.15,0,0,0,.86-.71A3.75,3.75,0,0,1,26,53.17a1.34,1.34,0,0,1-1.15.65,2,2,0,0,1-.65-.11c-.2-.08-.46-.19-.77-.34l-.31-.15a4.05,4.05,0,0,0-.42-.21,1,1,0,0,0-.35-.06.73.73,0,0,0-.59.3,1.11,1.11,0,0,0-.25.74,1,1,0,0,0,.11.49,1.16,1.16,0,0,0,.34.37,4.45,4.45,0,0,0,1.41.71,5.67,5.67,0,0,0,1.6.25,3.8,3.8,0,0,0,2.18-.63,4.07,4.07,0,0,0,1.44-1.8,6.8,6.8,0,0,0,.51-2.74A5.56,5.56,0,0,0,28,47,3.75,3.75,0,0,0,24.93,45.68Zm.16,4.64a1.1,1.1,0,0,1-.88-.36,1.65,1.65,0,0,1,0-1.94A1.21,1.21,0,0,1,26,48,1.54,1.54,0,0,1,26,50,1.1,1.1,0,0,1,25.09,50.32Zm11.18.5H34.51V49.06a.83.83,0,0,0-1.42-.59.8.8,0,0,0-.23.59v1.76H31.09a.81.81,0,0,0-.59.24.87.87,0,0,0,0,1.18.78.78,0,0,0,.59.25h1.77v1.75a.84.84,0,0,0,1.42.59.84.84,0,0,0,.23-.59V52.49h1.76a.78.78,0,0,0,.59-.25.83.83,0,0,0-.59-1.42Zm7.94-.22a2.14,2.14,0,0,0,1.1-.83,2.48,2.48,0,0,0,.4-1.4,2.31,2.31,0,0,0-1-2,4.34,4.34,0,0,0-2.65-.73,4.35,4.35,0,0,0-2.64.73,2.28,2.28,0,0,0-1,2,2.4,2.4,0,0,0,.39,1.37A2.28,2.28,0,0,0,40,50.6a2.38,2.38,0,0,0-1.32.83A2.47,2.47,0,0,0,38.19,53a2.42,2.42,0,0,0,1,2.07,4.82,4.82,0,0,0,2.85.75A4.82,4.82,0,0,0,44.93,55,2.4,2.4,0,0,0,46,53a2.48,2.48,0,0,0-.45-1.51A2.44,2.44,0,0,0,44.21,50.6Zm-2.13,3.25c-1,0-1.53-.37-1.53-1.09s.51-1.1,1.53-1.1,1.53.37,1.53,1.1S43.1,53.85,42.08,53.85Zm0-6.22a1.47,1.47,0,0,1,.94.25,1,1,0,0,1,.31.79,1,1,0,0,1-.31.8,1.89,1.89,0,0,1-1.88,0,1,1,0,0,1-.3-.8,1,1,0,0,1,.3-.79A1.47,1.47,0,0,1,42.08,47.63ZM96.41,53.8a1.41,1.41,0,0,0,.88-.29,1.28,1.28,0,0,0,.47-.82,2.26,2.26,0,0,1,.54-1,11,11,0,0,1,1.21-1.11c.56-.5,1-.92,1.37-1.28a4.83,4.83,0,0,0,.9-1.27,3.55,3.55,0,0,0,.37-1.63,3.51,3.51,0,0,0-.7-2.15,4.61,4.61,0,0,0-1.92-1.49,6.79,6.79,0,0,0-2.78-.54A8.87,8.87,0,0,0,94,42.7a8.59,8.59,0,0,0-2.46,1.23,2.19,2.19,0,0,0-.59.65,1.8,1.8,0,0,0-.18.84,1.92,1.92,0,0,0,.42,1.26,1.26,1.26,0,0,0,1,.52,2.85,2.85,0,0,0,1.32-.46l.58-.29a8.13,8.13,0,0,1,1.21-.58,3,3,0,0,1,1.09-.21,1.69,1.69,0,0,1,1.06.31,1,1,0,0,1,.38.84,1.67,1.67,0,0,1-.28,1,7.9,7.9,0,0,1-.82,1,7.18,7.18,0,0,0-1.2,1.54,3.77,3.77,0,0,0-.44,1.89,1.74,1.74,0,0,0,.35,1.15A1.22,1.22,0,0,0,96.41,53.8Zm0,5.73a2.24,2.24,0,0,0,1.67-.67,2.41,2.41,0,0,0,0-3.31,2.24,2.24,0,0,0-1.67-.67,2.2,2.2,0,0,0-1.64.67,2.41,2.41,0,0,0,0,3.31A2.2,2.2,0,0,0,96.46,59.53Z"/></svg>