<svg id="Layer_1" data-name="Layer 1" xmlns="http://www.w3.org/2000/svg" viewBox="0 0 122.3 122.3"><title>l9_1_1</title><path d="M122.12,42.91V59.57a8.66,8.66,0,0,1-8.66,8.66H99.38l0,22.48a4.38,4.38,0,0,1-4.66,4.66H76.59v3.75a8.69,8.69,0,0,1-8.69,8.69H51.31a8.69,8.69,0,0,1-8.69-8.69V95.37H24.29a4.45,4.45,0,0,1-2.93-1.23,5,5,0,0,1-1.31-3c-.32-2.63-.36-11.2,0-22.91H8.59A8.66,8.66,0,0,1-.06,59.57V42.91a8.65,8.65,0,0,1,8.65-8.65H42.24a8.65,8.65,0,0,1,8.65,8.65V59.57a8.66,8.66,0,0,1-8.65,8.66H28.54q0,9.21.05,18.42h14V82.53a8.69,8.69,0,0,1,8.69-8.69H67.9a8.69,8.69,0,0,1,8.69,8.69v4.12H90.78q0-9.21,0-18.42h-11a8.66,8.66,0,0,1-8.66-8.66V42.91a8.66,8.66,0,0,1,8.66-8.65h33.64A8.66,8.66,0,0,1,122.12,42.91ZM11.7,51.32a2.76,2.76,0,0,0,1.42-1.06,3.17,3.17,0,0,0,.51-1.8,3,3,0,0,0-1.25-2.53A5.61,5.61,0,0,0,9,45a5.63,5.63,0,0,0-3.41.93A3,3,0,0,0,4.3,48.46a3,3,0,0,0,.51,1.75,3,3,0,0,0,1.44,1.11,3,3,0,0,0-1.69,1.07,3.14,3.14,0,0,0-.6,2A3.11,3.11,0,0,0,5.3,57,6.15,6.15,0,0,0,9,58a6.09,6.09,0,0,0,3.66-1,3.16,3.16,0,0,0-.93-5.71ZM9,55.5c-1.31,0-2-.47-2-1.41s.66-1.4,2-1.4,2,.47,2,1.4S10.27,55.5,9,55.5Zm0-8a1.89,1.89,0,0,1,1.2.32,1.21,1.21,0,0,1,.4,1,1.22,1.22,0,0,1-.4,1,1.83,1.83,0,0,1-1.2.33,1.86,1.86,0,0,1-1.21-.33,1.25,1.25,0,0,1-.4-1,1.24,1.24,0,0,1,.4-1A1.92,1.92,0,0,1,9,47.5Zm11.88,2a3.46,3.46,0,0,0-1.52.33,2.87,2.87,0,0,0-1.11.91,4.89,4.89,0,0,1,.67-2.35,1.75,1.75,0,0,1,1.49-.83,2.58,2.58,0,0,1,.83.14c.26.1.59.24,1,.43l.39.2a6,6,0,0,0,.54.26,1.06,1.06,0,0,0,.45.08,1,1,0,0,0,.77-.38,1.47,1.47,0,0,0,.31-.95,1.34,1.34,0,0,0-.13-.63,1.5,1.5,0,0,0-.44-.48,5.58,5.58,0,0,0-1.81-.9A6.86,6.86,0,0,0,20.22,45a4.88,4.88,0,0,0-2.8.81,5.25,5.25,0,0,0-1.86,2.31,8.91,8.91,0,0,0-.65,3.52,7.18,7.18,0,0,0,1.38,4.72A4.86,4.86,0,0,0,20.22,58a4.64,4.64,0,0,0,2.28-.56,4,4,0,0,0,1.58-1.56,4.86,4.86,0,0,0,.07-4.39A3.74,3.74,0,0,0,22.79,50,3.67,3.67,0,0,0,20.85,49.5Zm-.83,6A1.44,1.44,0,0,1,18.9,55a2,2,0,0,1,0-2.47A1.44,1.44,0,0,1,20,52.06a1.4,1.4,0,0,1,1.12.46,1.81,1.81,0,0,1,.41,1.25A1.79,1.79,0,0,1,21.13,55,1.4,1.4,0,0,1,20,55.48ZM33.9,51.61H31.63V49.34a1,1,0,0,0-1.06-1.06,1,1,0,0,0-.76.3,1.07,1.07,0,0,0-.31.76v2.27H27.24a1,1,0,0,0-.76.3,1.09,1.09,0,0,0,0,1.52,1,1,0,0,0,.76.32H29.5V56a1.07,1.07,0,0,0,.31.76,1,1,0,0,0,.76.3,1,1,0,0,0,.76-.3,1.06,1.06,0,0,0,.3-.76V53.75H33.9a1,1,0,0,0,.75-.32,1.06,1.06,0,0,0-.75-1.82Zm7-6.61a4.65,4.65,0,0,0-2.29.56,3.93,3.93,0,0,0-1.57,1.56,4.46,4.46,0,0,0-.57,2.26A4.52,4.52,0,0,0,37,51.51,3.72,3.72,0,0,0,38.34,53a3.62,3.62,0,0,0,1.95.54,3.36,3.36,0,0,0,1.52-.34,2.74,2.74,0,0,0,1.1-.91,4.75,4.75,0,0,1-.67,2.35,1.72,1.72,0,0,1-1.49.84,2.52,2.52,0,0,1-.82-.14,9.08,9.08,0,0,1-1-.44l-.4-.19L38,54.42a1.25,1.25,0,0,0-.45-.08.94.94,0,0,0-.76.39,1.45,1.45,0,0,0-.32,1,1.33,1.33,0,0,0,.14.63,1.49,1.49,0,0,0,.44.48,5.39,5.39,0,0,0,1.81.9,6.82,6.82,0,0,0,2.06.33,4.9,4.9,0,0,0,2.8-.81,5.34,5.34,0,0,0,1.85-2.32,8.67,8.67,0,0,0,.66-3.52,7.15,7.15,0,0,0-1.39-4.71A4.81,4.81,0,0,0,40.92,45Zm.19,6A1.4,1.4,0,0,1,40,50.5a1.83,1.83,0,0,1-.41-1.25A1.77,1.77,0,0,1,40,48a1.41,1.41,0,0,1,1.11-.47,1.44,1.44,0,0,1,1.12.48,1.74,1.74,0,0,1,.43,1.23,1.77,1.77,0,0,1-.42,1.24A1.46,1.46,0,0,1,41.11,51Zm47.51-8.53a6.26,6.26,0,0,0-3.05.74,5.45,5.45,0,0,0-2.1,2.08,6.43,6.43,0,0,0-.09,5.85,4.93,4.93,0,0,0,1.81,2,4.87,4.87,0,0,0,2.59.71,4.71,4.71,0,0,0,2-.44,3.76,3.76,0,0,0,1.47-1.22,6.29,6.29,0,0,1-.9,3.14,2.29,2.29,0,0,1-2,1.11,3.14,3.14,0,0,1-1.1-.19c-.35-.13-.79-.32-1.32-.58l-.53-.26a7.36,7.36,0,0,0-.72-.35,1.57,1.57,0,0,0-.6-.11,1.29,1.29,0,0,0-1,.52,1.92,1.92,0,0,0-.42,1.26,1.74,1.74,0,0,0,.18.84,2.19,2.19,0,0,0,.59.65,7.77,7.77,0,0,0,2.41,1.2,9.26,9.26,0,0,0,2.75.43,6.49,6.49,0,0,0,3.73-1.08,6.94,6.94,0,0,0,2.47-3.08,11.56,11.56,0,0,0,.88-4.7,9.52,9.52,0,0,0-1.85-6.28A6.41,6.41,0,0,0,88.62,42.43Zm.26,7.94a1.89,1.89,0,0,1-1.5-.61,2.43,2.43,0,0,1-.54-1.67,2.37,2.37,0,0,1,.56-1.65,1.86,1.86,0,0,1,1.48-.63,1.89,1.89,0,0,1,1.49.64A2.32,2.32,0,0,1,91,48.09a2.37,2.37,0,0,1-.57,1.66A1.92,1.92,0,0,1,88.88,50.37ZM104.8,48.5a6,6,0,0,0-2.38.43V46h5.18c1.4,0,2.09-.56,2.09-1.68s-.69-1.66-2.09-1.66h-7.44a2.06,2.06,0,0,0-1.51.53,2.1,2.1,0,0,0-.53,1.54v6.5a1.36,1.36,0,0,0,.46,1,1.67,1.67,0,0,0,1.13.39,2.39,2.39,0,0,0,1.08-.26,8.39,8.39,0,0,1,1.38-.43,6.57,6.57,0,0,1,1.31-.12,2.71,2.71,0,0,1,1.87.6,2.13,2.13,0,0,1,.67,1.68,2.09,2.09,0,0,1-.65,1.69,3.05,3.05,0,0,1-2,.54,3.83,3.83,0,0,1-1.33-.22,12.58,12.58,0,0,1-1.36-.57l-.48-.24a5.84,5.84,0,0,0-.72-.36,1.51,1.51,0,0,0-.6-.1,1.24,1.24,0,0,0-1,.52,2,2,0,0,0-.4,1.26,1.74,1.74,0,0,0,.18.82,1.9,1.9,0,0,0,.56.66,7.63,7.63,0,0,0,2.46,1.2,9.93,9.93,0,0,0,2.92.44A7.79,7.79,0,0,0,107,59a5.38,5.38,0,0,0,2.3-2,5.64,5.64,0,0,0,.82-3,5.78,5.78,0,0,0-.69-2.85,4.85,4.85,0,0,0-1.89-1.92A5.6,5.6,0,0,0,104.8,48.5ZM67.62,88.87H62.16V83.41a2.56,2.56,0,1,0-5.11,0v5.46H51.6A2.51,2.51,0,0,0,49,91.42a2.54,2.54,0,0,0,.74,1.84A2.42,2.42,0,0,0,51.6,94h5.45v5.41a2.59,2.59,0,0,0,4.4,1.82,2.54,2.54,0,0,0,.71-1.82V94h5.46a2.42,2.42,0,0,0,1.82-.76,2.53,2.53,0,0,0,.73-1.84,2.49,2.49,0,0,0-2.55-2.55Z"/></svg>