<svg id="Layer_1" data-name="Layer 1" xmlns="http://www.w3.org/2000/svg" viewBox="0 0 122.3 122.3"><title>l9_1_1</title><path d="M122.59,18v40.8a11.74,11.74,0,0,1-11.74,11.73h-11l0,22.51a4.39,4.39,0,0,1-4.67,4.67H75.63l-9.12,18.45c-.31.53-2.2,3.71-5.31,3.8-3.29.09-5.31-3.3-5.59-3.8L45.69,97.69h-21a4.42,4.42,0,0,1-2.93-1.24,5,5,0,0,1-1.31-3c-.33-2.63-.36-11.21,0-22.94H12A11.74,11.74,0,0,1,.28,58.78V18A11.74,11.74,0,0,1,12,6.24H39.55A11.74,11.74,0,0,1,51.29,18v40.8A11.74,11.74,0,0,1,39.55,70.51H28.91q0,9.22.05,18.44H41l-2.56-4.77c-.81-1.49-1.65-4.37-.34-6.49a5.9,5.9,0,0,1,4-2.37l35.62.05a5.8,5.8,0,0,1,4.24,1.79,6,6,0,0,1,.38,7C81.51,85.78,80.73,87.37,80,89H91.22q0-9.21,0-18.44H83.32A11.74,11.74,0,0,1,71.58,58.78V18A11.74,11.74,0,0,1,83.32,6.24h27.53A11.74,11.74,0,0,1,122.59,18ZM96.29,45.7a2.92,2.92,0,0,0,1.83-.6,2.61,2.61,0,0,0,1-1.7,4.73,4.73,0,0,1,1.13-2,22.87,22.87,0,0,1,2.52-2.33c1.17-1,2.12-1.91,2.85-2.65a9.87,9.87,0,0,0,1.88-2.65,7.73,7.73,0,0,0-.68-7.87,9.6,9.6,0,0,0-4-3.1A14.22,14.22,0,0,0,97,21.65a18.67,18.67,0,0,0-5.77.93,17.89,17.89,0,0,0-5.13,2.57,4.55,4.55,0,0,0-1.22,1.35,3.68,3.68,0,0,0-.38,1.75,4.05,4.05,0,0,0,.88,2.63A2.63,2.63,0,0,0,87.49,32,6,6,0,0,0,90.24,31l1.2-.6A18.36,18.36,0,0,1,94,29.18a6.47,6.47,0,0,1,2.27-.43,3.39,3.39,0,0,1,2.2.65,2.13,2.13,0,0,1,.8,1.75,3.65,3.65,0,0,1-.57,2,15.72,15.72,0,0,1-1.73,2.15,16.7,16.7,0,0,0-2.5,3.23,7.81,7.81,0,0,0-.9,3.92,3.58,3.58,0,0,0,.73,2.4A2.5,2.5,0,0,0,96.29,45.7Zm.1,11.95a4.66,4.66,0,0,0,3.48-1.4A4.85,4.85,0,0,0,96.39,48,4.62,4.62,0,0,0,93,49.35a5,5,0,0,0,0,6.9A4.59,4.59,0,0,0,96.39,57.65ZM68.86,90.4H63.38V84.92a2.53,2.53,0,0,0-2.57-2.57,2.45,2.45,0,0,0-1.83.74,2.49,2.49,0,0,0-.74,1.83V90.4H52.76A2.53,2.53,0,0,0,50.19,93a2.58,2.58,0,0,0,.74,1.85,2.47,2.47,0,0,0,1.83.76h5.48V101a2.48,2.48,0,0,0,.74,1.82,2.66,2.66,0,0,0,3.68,0,2.5,2.5,0,0,0,.72-1.82V95.58h5.48a2.5,2.5,0,0,0,1.83-.76A2.58,2.58,0,0,0,71.43,93a2.49,2.49,0,0,0-.74-1.83A2.52,2.52,0,0,0,68.86,90.4ZM22.29,28.82h-5.8l4.1-4.19A13.57,13.57,0,0,0,23,21.39a7.34,7.34,0,0,0,.7-3.22,5.28,5.28,0,0,0-.88-3,5.59,5.59,0,0,0-2.49-2,9.33,9.33,0,0,0-3.75-.7,11.53,11.53,0,0,0-3.34.51,11.23,11.23,0,0,0-3,1.45,1.92,1.92,0,0,0-.71.75,2.77,2.77,0,0,0,.3,2.58,1.5,1.5,0,0,0,1.22.65,1.61,1.61,0,0,0,.54-.09,2.74,2.74,0,0,0,.6-.27l.44-.25.58-.28a13.5,13.5,0,0,1,1.63-.71,4.8,4.8,0,0,1,1.55-.25A2.31,2.31,0,0,1,18,17a2,2,0,0,1,.56,1.5,5.66,5.66,0,0,1-1.9,3.67l-6.12,6.38a3.12,3.12,0,0,0-1,2.25A2.1,2.1,0,0,0,11.76,33H22.29a2.86,2.86,0,0,0,1.89-.52,2,2,0,0,0,.62-1.61,1.93,1.93,0,0,0-.62-1.58A3,3,0,0,0,22.29,28.82ZM36,19.64a5.63,5.63,0,0,0-2.44.53,4.64,4.64,0,0,0-1.77,1.46,7.55,7.55,0,0,1,1.08-3.76,2.75,2.75,0,0,1,2.38-1.35,4,4,0,0,1,1.33.23c.42.16,1,.39,1.58.7l.64.31a7.12,7.12,0,0,0,.86.42,1.9,1.9,0,0,0,.73.13,1.49,1.49,0,0,0,1.22-.62,2.3,2.3,0,0,0,.51-1.51,2,2,0,0,0-.22-1,2.42,2.42,0,0,0-.71-.78,9.06,9.06,0,0,0-2.9-1.45,11.32,11.32,0,0,0-3.3-.51,7.87,7.87,0,0,0-4.49,1.29,8.44,8.44,0,0,0-3,3.71,14,14,0,0,0-1.05,5.64q0,4.92,2.22,7.57A7.74,7.74,0,0,0,35,33.29a7.46,7.46,0,0,0,3.66-.89,6.47,6.47,0,0,0,2.53-2.5,7.16,7.16,0,0,0,.91-3.62,7.37,7.37,0,0,0-.79-3.42,6,6,0,0,0-2.18-2.37A5.85,5.85,0,0,0,36,19.64Zm-1.33,9.58a2.3,2.3,0,0,1-1.79-.76,3.22,3.22,0,0,1,0-4,2.57,2.57,0,0,1,3.61,0,3,3,0,0,1,.65,2,2.9,2.9,0,0,1-.67,2A2.27,2.27,0,0,1,34.67,29.22ZM22.47,61.88H20.11V48.2a2.52,2.52,0,0,0-.71-1.88,2.54,2.54,0,0,0-1.86-.69,4.91,4.91,0,0,0-2.4.72L10.52,49a2,2,0,0,0-1,1.79,2.49,2.49,0,0,0,.58,1.58,1.75,1.75,0,0,0,1.39.7,1.92,1.92,0,0,0,1-.29l2.31-1.35V61.88H12.46a2.89,2.89,0,0,0-1.91.52A1.93,1.93,0,0,0,10,64c0,1.43.83,2.14,2.51,2.14h10c1.68,0,2.51-.71,2.51-2.14a1.93,1.93,0,0,0-.6-1.55A2.89,2.89,0,0,0,22.47,61.88Zm12.61-9.1a7.29,7.29,0,0,0-2.85.52V49.75h6.23c1.67,0,2.51-.67,2.51-2s-.84-2-2.51-2H29.51a2.41,2.41,0,0,0-1.81.64,2.47,2.47,0,0,0-.64,1.84v7.83a1.56,1.56,0,0,0,.55,1.25,2,2,0,0,0,1.36.48,2.74,2.74,0,0,0,1.29-.32,10.86,10.86,0,0,1,1.66-.52,7.67,7.67,0,0,1,1.58-.14,3.27,3.27,0,0,1,2.25.72,2.56,2.56,0,0,1,.81,2,2.49,2.49,0,0,1-.78,2,3.66,3.66,0,0,1-2.4.65,4.59,4.59,0,0,1-1.6-.26,14.56,14.56,0,0,1-1.63-.69L29.57,61a9.54,9.54,0,0,0-.86-.43,2,2,0,0,0-.73-.12,1.5,1.5,0,0,0-1.21.62,2.37,2.37,0,0,0-.49,1.52,2,2,0,0,0,.22,1,2.49,2.49,0,0,0,.68.8,9.66,9.66,0,0,0,2.95,1.44,12,12,0,0,0,3.51.52,9.36,9.36,0,0,0,4.13-.87A6.48,6.48,0,0,0,40.54,63a7.43,7.43,0,0,0,.16-7.08,5.89,5.89,0,0,0-2.28-2.31A6.67,6.67,0,0,0,35.08,52.78Zm5.17-12.85h0a2.61,2.61,0,0,0-2.61-2.61H10.38a2.61,2.61,0,0,0-2.62,2.61h0a2.62,2.62,0,0,0,2.62,2.62H37.64A2.61,2.61,0,0,0,40.25,39.93Z"/></svg>