<svg id="Layer_1" data-name="Layer 1" xmlns="http://www.w3.org/2000/svg" viewBox="0 0 122.3 122.3"><title>l9_1_1</title><path d="M122.19,17.94v40.8a11.74,11.74,0,0,1-11.74,11.74h-11l0,22.5a4.51,4.51,0,0,1-1.24,3.36,4.57,4.57,0,0,1-3.43,1.31H75.23L66.11,116.1c-.31.53-2.19,3.71-5.31,3.8-3.28.1-5.3-3.3-5.59-3.8L45.29,97.65h-21a4.42,4.42,0,0,1-2.93-1.24,4.94,4.94,0,0,1-1.31-3c-.33-2.63-.36-11.21,0-22.93H11.62A11.74,11.74,0,0,1-.11,58.74V17.94A11.73,11.73,0,0,1,11.62,6.21H39.15A11.73,11.73,0,0,1,50.89,17.94v40.8A11.74,11.74,0,0,1,39.15,70.48H28.51q0,9.21,0,18.43h12L38,84.14c-.81-1.49-1.65-4.37-.34-6.49a5.93,5.93,0,0,1,4-2.37l35.61,0a5.83,5.83,0,0,1,4.25,1.79,6,6,0,0,1,.37,7l-2.35,4.75H90.82q0-9.21,0-18.43H82.92A11.74,11.74,0,0,1,71.18,58.74V17.94A11.74,11.74,0,0,1,82.92,6.21h27.53A11.74,11.74,0,0,1,122.19,17.94ZM95.9,45.67a2.89,2.89,0,0,0,1.82-.6,2.69,2.69,0,0,0,1-1.7,4.63,4.63,0,0,1,1.12-2A23.18,23.18,0,0,1,102.35,39c1.16-1,2.11-1.92,2.85-2.65a10.41,10.41,0,0,0,1.87-2.65,7.71,7.71,0,0,0-.67-7.88,9.67,9.67,0,0,0-4-3.1,14.26,14.26,0,0,0-5.8-1.12,18.67,18.67,0,0,0-5.78.92,17.85,17.85,0,0,0-5.12,2.58,4.25,4.25,0,0,0-1.23,1.35,3.66,3.66,0,0,0-.37,1.75A4,4,0,0,0,85,30.84a2.64,2.64,0,0,0,2.13,1.08,6.17,6.17,0,0,0,2.75-1l1.2-.6a16.88,16.88,0,0,1,2.52-1.23,6.47,6.47,0,0,1,2.28-.42,3.37,3.37,0,0,1,2.2.65,2.13,2.13,0,0,1,.8,1.75,3.68,3.68,0,0,1-.58,2,17,17,0,0,1-1.72,2.15,16.27,16.27,0,0,0-2.5,3.22,7.83,7.83,0,0,0-.9,3.93,3.62,3.62,0,0,0,.72,2.4A2.54,2.54,0,0,0,95.9,45.67ZM96,57.62a4.67,4.67,0,0,0,3.47-1.4,5,5,0,0,0,0-6.9,5,5,0,0,0-6.9,0,5,5,0,0,0,0,6.9A4.63,4.63,0,0,0,96,57.62ZM68.46,90.36H63V84.88a2.53,2.53,0,0,0-2.57-2.57,2.52,2.52,0,0,0-1.83.74,2.49,2.49,0,0,0-.74,1.83v5.48H52.36a2.53,2.53,0,0,0-2.57,2.57,2.58,2.58,0,0,0,.74,1.85,2.48,2.48,0,0,0,1.83.76h5.48V101a2.53,2.53,0,0,0,2.57,2.57,2.47,2.47,0,0,0,1.85-.74A2.54,2.54,0,0,0,63,101V95.54h5.48a2.47,2.47,0,0,0,1.83-.76A2.58,2.58,0,0,0,71,92.93a2.53,2.53,0,0,0-2.57-2.57ZM22.66,28.78H20.29V15.1a2.5,2.5,0,0,0-.71-1.88,2.54,2.54,0,0,0-1.86-.69,4.85,4.85,0,0,0-2.39.72l-4.62,2.69a2,2,0,0,0-1,1.79,2.41,2.41,0,0,0,.58,1.57,1.72,1.72,0,0,0,1.38.71,2,2,0,0,0,1-.29L15,18.36V28.78H12.64a2.86,2.86,0,0,0-1.9.52,1.92,1.92,0,0,0-.61,1.56c0,1.42.84,2.13,2.51,2.13h10c1.67,0,2.51-.71,2.51-2.13a1.92,1.92,0,0,0-.61-1.56A2.86,2.86,0,0,0,22.66,28.78ZM35.59,19.6a5.49,5.49,0,0,0-2.44.54,4.64,4.64,0,0,0-1.78,1.45,7.65,7.65,0,0,1,1.09-3.76,2.75,2.75,0,0,1,2.38-1.35,3.68,3.68,0,0,1,1.32.24,14.75,14.75,0,0,1,1.59.69l.64.32a8.54,8.54,0,0,0,.86.41,1.81,1.81,0,0,0,.72.13,1.52,1.52,0,0,0,1.23-.62,2.28,2.28,0,0,0,.51-1.51,2.16,2.16,0,0,0-.22-1,2.54,2.54,0,0,0-.71-.78,9,9,0,0,0-2.9-1.44,11.07,11.07,0,0,0-3.3-.52,7.78,7.78,0,0,0-4.49,1.3,8.36,8.36,0,0,0-3,3.7A13.89,13.89,0,0,0,26.06,23q0,4.91,2.23,7.56a7.73,7.73,0,0,0,6.29,2.65,7.51,7.51,0,0,0,3.66-.89,6.47,6.47,0,0,0,2.53-2.5,7.68,7.68,0,0,0,.11-7,6,6,0,0,0-2.18-2.37A5.88,5.88,0,0,0,35.59,19.6Zm-1.33,9.58a2.3,2.3,0,0,1-1.79-.76,2.84,2.84,0,0,1-.69-2,2.81,2.81,0,0,1,.68-2,2.3,2.3,0,0,1,1.8-.75,2.27,2.27,0,0,1,1.8.74,2.89,2.89,0,0,1,.65,2,2.9,2.9,0,0,1-.66,2A2.27,2.27,0,0,1,34.26,29.18ZM30.44,45.7H19.13a2.78,2.78,0,0,0-1.9.54,2.38,2.38,0,0,0,0,3.16,2.94,2.94,0,0,0,1.92.52h7.22L18.93,62.59A2.71,2.71,0,0,0,18.52,64a2.11,2.11,0,0,0,.78,1.66,2.67,2.67,0,0,0,1.79.68A2.5,2.5,0,0,0,22.32,66a2.68,2.68,0,0,0,1-1L32.06,49.8a3.62,3.62,0,0,0,.55-1.9,2.25,2.25,0,0,0-.56-1.57A2.05,2.05,0,0,0,30.44,45.7Zm10.43-6.92h0a2.61,2.61,0,0,0-2.61-2.62H11a2.61,2.61,0,0,0-2.61,2.62h0A2.61,2.61,0,0,0,11,41.39H38.26A2.61,2.61,0,0,0,40.87,38.78Z"/></svg>