<svg id="Layer_1" data-name="Layer 1" xmlns="http://www.w3.org/2000/svg" viewBox="0 0 122.3 122.3"><title>l9_1_1</title><path d="M122.3,38.88V49.42a11.74,11.74,0,0,1-11.74,11.74h-11l0,22.52a4.37,4.37,0,0,1-4.67,4.66H75.11Q71,96.56,67,104.76c-.3.53-2.18,3.69-5.28,3.78-3.26.1-5.27-3.28-5.56-3.78L47.33,88.34h-23a4.39,4.39,0,0,1-2.93-1.23,5,5,0,0,1-1.31-3c-.33-2.64-.36-11.22,0-23H11.68A11.74,11.74,0,0,1-.06,49.42V38.88A11.74,11.74,0,0,1,11.68,27.14H39.23A11.74,11.74,0,0,1,51,38.88V49.42A11.74,11.74,0,0,1,39.23,61.16H28.58q0,9.23.05,18.45h14L39.08,73a8.52,8.52,0,0,1-.34-6.46,3.93,3.93,0,0,1,2.17-2.36l38.87.06A4.18,4.18,0,0,1,82.57,67a9.6,9.6,0,0,1,.12,6c-1.09,2.2-2.18,4.41-3.26,6.61H90.92q0-9.23,0-18.45H83A11.75,11.75,0,0,1,71.27,49.42V38.88A11.75,11.75,0,0,1,83,27.14h27.54A11.74,11.74,0,0,1,122.3,38.88ZM68.74,79.44H63.25V74a2.45,2.45,0,0,0-.74-1.83,2.62,2.62,0,0,0-3.65,0A2.45,2.45,0,0,0,58.12,74v5.48H52.63a2.48,2.48,0,0,0-1.82.74A2.45,2.45,0,0,0,50.07,82a2.54,2.54,0,0,0,.74,1.85,2.42,2.42,0,0,0,1.82.76h5.49v5.44a2.6,2.6,0,0,0,4.42,1.83,2.58,2.58,0,0,0,.71-1.83V84.62h5.49a2.42,2.42,0,0,0,1.82-.76A2.54,2.54,0,0,0,71.3,82a2.45,2.45,0,0,0-.74-1.83A2.48,2.48,0,0,0,68.74,79.44Zm-57-32.15H10.31V38.76a1.5,1.5,0,0,0-1.6-1.6,3.06,3.06,0,0,0-1.5.45L4.33,39.28A1.23,1.23,0,0,0,3.7,40.4a1.52,1.52,0,0,0,.36,1,1.1,1.1,0,0,0,.87.44,1.26,1.26,0,0,0,.63-.18L7,40.79v6.5H5.54a1.78,1.78,0,0,0-1.19.33,1.21,1.21,0,0,0-.38,1c0,.89.52,1.33,1.57,1.33h6.24c1.05,0,1.57-.44,1.57-1.33a1.21,1.21,0,0,0-.38-1A1.78,1.78,0,0,0,11.78,47.29Zm9.72-3.9a2.77,2.77,0,0,0,1.42-1.07,3.12,3.12,0,0,0,.51-1.8A3,3,0,0,0,22.18,38a5.68,5.68,0,0,0-3.41-.92,5.67,5.67,0,0,0-3.4.92,3,3,0,0,0-1.26,2.53,3,3,0,0,0,.5,1.76,3,3,0,0,0,1.44,1.11,2.93,2.93,0,0,0-1.69,1.07,3.14,3.14,0,0,0-.6,2A3.11,3.11,0,0,0,15.1,49.1a6.22,6.22,0,0,0,3.67,1,6.16,6.16,0,0,0,3.66-1,3.11,3.11,0,0,0,1.34-2.67,3.15,3.15,0,0,0-.58-1.94A3.09,3.09,0,0,0,21.5,43.39Zm-2.73,4.17c-1.31,0-2-.47-2-1.4s.65-1.41,2-1.41,2,.47,2,1.41S20.08,47.56,18.77,47.56Zm0-8a1.89,1.89,0,0,1,1.2.31,1.21,1.21,0,0,1,.4,1,1.24,1.24,0,0,1-.4,1,1.89,1.89,0,0,1-1.2.32,1.94,1.94,0,0,1-1.21-.32,1.27,1.27,0,0,1-.39-1,1.24,1.24,0,0,1,.39-1A1.94,1.94,0,0,1,18.77,39.57Zm14.13,4.1H30.63V41.41a1,1,0,0,0-.31-.76,1,1,0,0,0-.75-.31,1.07,1.07,0,0,0-.76.31,1,1,0,0,0-.3.76v2.26H26.24a1.07,1.07,0,0,0-.76.31,1,1,0,0,0-.3.76,1.06,1.06,0,0,0,.3.76,1,1,0,0,0,.76.32h2.27v2.25a1,1,0,0,0,1.06,1.06,1,1,0,0,0,.76-.31,1,1,0,0,0,.3-.75V45.82H32.9a1,1,0,0,0,.75-.32,1,1,0,0,0,.31-.76,1,1,0,0,0-.31-.76A1,1,0,0,0,32.9,43.67Zm11.34,1.59h-.4v-6.5a1.55,1.55,0,0,0-.48-1.21,1.76,1.76,0,0,0-1.17-.43,1.78,1.78,0,0,0-.81.19,1.67,1.67,0,0,0-.63.55L35.6,45.2a2,2,0,0,0-.4,1.19,1.37,1.37,0,0,0,.38,1,1.33,1.33,0,0,0,1,.4h4v.61A1.49,1.49,0,0,0,42.22,50a1.65,1.65,0,0,0,1.17-.42,1.56,1.56,0,0,0,.45-1.22v-.61h.4c1,0,1.56-.43,1.56-1.28S45.28,45.26,44.24,45.26Zm-5.78,0,2.16-3.12v3.12ZM96.3,48a1.41,1.41,0,0,0,.88-.29,1.35,1.35,0,0,0,.47-.82,2.16,2.16,0,0,1,.54-1,11,11,0,0,1,1.21-1.12c.56-.49,1-.92,1.37-1.27a4.83,4.83,0,0,0,.9-1.27,3.68,3.68,0,0,0,.37-1.63,3.51,3.51,0,0,0-.7-2.15A4.61,4.61,0,0,0,99.42,37a6.83,6.83,0,0,0-2.78-.54,8.87,8.87,0,0,0-2.77.45,8.23,8.23,0,0,0-2.46,1.23,2.06,2.06,0,0,0-.59.65,1.74,1.74,0,0,0-.18.84,1.92,1.92,0,0,0,.42,1.26,1.29,1.29,0,0,0,1,.52A3,3,0,0,0,93.4,41l.57-.29a10.19,10.19,0,0,1,1.22-.59,3.14,3.14,0,0,1,1.09-.2,1.66,1.66,0,0,1,1,.31,1,1,0,0,1,.39.84,1.69,1.69,0,0,1-.28,1,7.31,7.31,0,0,1-.83,1,8.23,8.23,0,0,0-1.2,1.55A3.86,3.86,0,0,0,95,46.48a1.74,1.74,0,0,0,.35,1.15A1.2,1.2,0,0,0,96.3,48Zm0,5.73A2.24,2.24,0,0,0,98,53.1a2.41,2.41,0,0,0,0-3.31,2.24,2.24,0,0,0-1.67-.67,2.19,2.19,0,0,0-1.64.67,2.38,2.38,0,0,0,0,3.31A2.19,2.19,0,0,0,96.35,53.77Z"/></svg>