<svg id="Layer_1" data-name="Layer 1" xmlns="http://www.w3.org/2000/svg" viewBox="0 0 122.3 122.3"><title>l9_1_1</title><path d="M122.24,44.31V61a8.65,8.65,0,0,1-8.65,8.65H99.51q0,11.25,0,22.49a4.52,4.52,0,0,1-1.23,3.35,4.57,4.57,0,0,1-3.43,1.31H76.72v3.74A8.7,8.7,0,0,1,68,109.2H51.44a8.69,8.69,0,0,1-8.69-8.69V96.77H24.41a4.4,4.4,0,0,1-2.92-1.24,4.88,4.88,0,0,1-1.31-3c-.33-2.64-.36-11.21,0-22.92H8.72A8.66,8.66,0,0,1,.06,61V44.31a8.66,8.66,0,0,1,8.66-8.66H42.36A8.66,8.66,0,0,1,51,44.31V61a8.65,8.65,0,0,1-8.65,8.65H28.66q0,9.21.05,18.42h14V83.93a8.69,8.69,0,0,1,8.69-8.69H68a8.7,8.7,0,0,1,8.7,8.69V88H90.91q0-9.21,0-18.42h-11A8.65,8.65,0,0,1,71.29,61V44.31a8.66,8.66,0,0,1,8.65-8.66h33.65A8.66,8.66,0,0,1,122.24,44.31ZM8.14,48.25a3.64,3.64,0,0,0-1.78.44A3.09,3.09,0,0,0,5.14,49.9a3.43,3.43,0,0,0-.44,1.76,3.55,3.55,0,0,0,.38,1.65,2.86,2.86,0,0,0,2.57,1.57,2.69,2.69,0,0,0,1.18-.26,2.35,2.35,0,0,0,.87-.71,3.85,3.85,0,0,1-.53,1.83A1.34,1.34,0,0,1,8,56.39a2,2,0,0,1-.65-.11c-.2-.08-.46-.19-.77-.34l-.31-.15a2.7,2.7,0,0,0-.42-.21,1,1,0,0,0-.35-.06.73.73,0,0,0-.59.3,1.16,1.16,0,0,0-.25.74,1,1,0,0,0,.11.49,1.16,1.16,0,0,0,.34.37,4.23,4.23,0,0,0,1.41.7,5.35,5.35,0,0,0,1.6.26,3.8,3.8,0,0,0,2.18-.63A4.07,4.07,0,0,0,11.76,56a6.8,6.8,0,0,0,.51-2.74,5.56,5.56,0,0,0-1.08-3.67A3.75,3.75,0,0,0,8.14,48.25Zm.16,4.64a1.1,1.1,0,0,1-.88-.36,1.41,1.41,0,0,1-.31-1,1.39,1.39,0,0,1,.32-1,1.1,1.1,0,0,1,.87-.36,1.09,1.09,0,0,1,.86.37,1.54,1.54,0,0,1,0,1.92A1.1,1.1,0,0,1,8.3,52.89ZM19,53.17a2.14,2.14,0,0,0,1.1-.83,2.48,2.48,0,0,0,.4-1.4,2.34,2.34,0,0,0-1-2,4.34,4.34,0,0,0-2.65-.72,4.35,4.35,0,0,0-2.64.72,2.31,2.31,0,0,0-1,2,2.42,2.42,0,0,0,.39,1.37,2.34,2.34,0,0,0,1.12.86,2.38,2.38,0,0,0-1.32.83A2.46,2.46,0,0,0,13,55.53a2.43,2.43,0,0,0,1,2.08,4.82,4.82,0,0,0,2.85.75,4.8,4.8,0,0,0,2.85-.75,2.4,2.4,0,0,0,1-2.08A2.29,2.29,0,0,0,19,53.17Zm-2.13,3.25c-1,0-1.52-.37-1.52-1.1s.5-1.09,1.52-1.09,1.53.37,1.53,1.09S17.91,56.42,16.89,56.42Zm0-6.22a1.53,1.53,0,0,1,.94.24,1,1,0,0,1,.31.8,1,1,0,0,1-.31.79,1.46,1.46,0,0,1-.94.26A1.46,1.46,0,0,1,16,52a1,1,0,0,1-.3-.79,1,1,0,0,1,.3-.8A1.53,1.53,0,0,1,16.89,50.2Zm8.05-2a3.64,3.64,0,0,0-1.78.44,3.09,3.09,0,0,0-1.22,1.21,3.43,3.43,0,0,0-.44,1.76,3.55,3.55,0,0,0,.38,1.65,2.86,2.86,0,0,0,2.57,1.57,2.72,2.72,0,0,0,1.18-.26,2.35,2.35,0,0,0,.87-.71A3.85,3.85,0,0,1,26,55.74a1.34,1.34,0,0,1-1.15.65,2,2,0,0,1-.65-.11c-.2-.08-.46-.19-.77-.34l-.31-.15a2.7,2.7,0,0,0-.42-.21,1,1,0,0,0-.35-.06.73.73,0,0,0-.59.3,1.11,1.11,0,0,0-.25.74,1,1,0,0,0,.11.49,1.16,1.16,0,0,0,.34.37,4.23,4.23,0,0,0,1.41.7,5.35,5.35,0,0,0,1.6.26,3.8,3.8,0,0,0,2.18-.63A4.07,4.07,0,0,0,28.56,56a6.8,6.8,0,0,0,.51-2.74A5.56,5.56,0,0,0,28,49.54,3.75,3.75,0,0,0,24.94,48.25Zm.16,4.64a1.1,1.1,0,0,1-.88-.36,1.41,1.41,0,0,1-.31-1,1.39,1.39,0,0,1,.32-1,1.21,1.21,0,0,1,1.73,0,1.54,1.54,0,0,1,0,1.92A1.1,1.1,0,0,1,25.1,52.89Zm11.18.5H34.52V51.63a.79.79,0,0,0-.24-.59.85.85,0,0,0-1.18,0,.78.78,0,0,0-.23.59v1.76H31.1a.81.81,0,0,0-.59.24.78.78,0,0,0-.23.59.8.8,0,0,0,.23.59.78.78,0,0,0,.59.25h1.77v1.75a.8.8,0,0,0,.23.59.83.83,0,0,0,1.42-.59V55.06h1.76a.78.78,0,0,0,.59-.25.81.81,0,0,0,.24-.59.79.79,0,0,0-.24-.59A.81.81,0,0,0,36.28,53.39Zm7.94-.22a2.14,2.14,0,0,0,1.1-.83,2.48,2.48,0,0,0,.4-1.4,2.34,2.34,0,0,0-1-2,4.34,4.34,0,0,0-2.65-.72,4.35,4.35,0,0,0-2.64.72,2.31,2.31,0,0,0-1,2,2.42,2.42,0,0,0,.39,1.37,2.34,2.34,0,0,0,1.12.86,2.38,2.38,0,0,0-1.32.83,2.46,2.46,0,0,0-.46,1.53,2.43,2.43,0,0,0,1,2.08,4.82,4.82,0,0,0,2.85.75,4.82,4.82,0,0,0,2.85-.75,2.4,2.4,0,0,0,1-2.08,2.29,2.29,0,0,0-1.76-2.36Zm-2.13,3.25c-1,0-1.53-.37-1.53-1.1s.51-1.09,1.53-1.09,1.53.37,1.53,1.09S43.11,56.42,42.09,56.42Zm0-6.22a1.53,1.53,0,0,1,.94.24,1,1,0,0,1,.31.8A1,1,0,0,1,43,52a1.83,1.83,0,0,1-1.88,0,1,1,0,0,1-.3-.79,1,1,0,0,1,.3-.8A1.53,1.53,0,0,1,42.09,50.2Zm39.45-6.38a6.12,6.12,0,0,0-3,.75,5.29,5.29,0,0,0-2.1,2.07,6,6,0,0,0-.76,3,6,6,0,0,0,.66,2.84,4.93,4.93,0,0,0,1.81,2,4.87,4.87,0,0,0,2.59.71,4.55,4.55,0,0,0,2-.45,3.77,3.77,0,0,0,1.48-1.21,6.46,6.46,0,0,1-.9,3.13,2.29,2.29,0,0,1-2,1.12,3.45,3.45,0,0,1-1.11-.19c-.35-.13-.79-.32-1.32-.58l-.52-.26c-.31-.16-.55-.28-.72-.35a1.64,1.64,0,0,0-.6-.11,1.26,1.26,0,0,0-1,.52,1.92,1.92,0,0,0-.42,1.26,1.8,1.8,0,0,0,.18.84,2,2,0,0,0,.58.64,7.41,7.41,0,0,0,2.42,1.2,9.22,9.22,0,0,0,2.74.44,6.52,6.52,0,0,0,3.74-1.08A7,7,0,0,0,87.75,57a11.68,11.68,0,0,0,.88-4.69A9.55,9.55,0,0,0,86.78,46,6.47,6.47,0,0,0,81.54,43.82Zm.27,8a1.92,1.92,0,0,1-1.5-.61,2.45,2.45,0,0,1-.54-1.67,2.41,2.41,0,0,1,.55-1.66,2.09,2.09,0,0,1,3,0,2.4,2.4,0,0,1,.57,1.65,2.37,2.37,0,0,1-.56,1.65A1.93,1.93,0,0,1,81.81,51.77Zm14.13-8a6.12,6.12,0,0,0-3,.75,5.29,5.29,0,0,0-2.1,2.07,6,6,0,0,0-.76,3,6,6,0,0,0,.66,2.84,4.93,4.93,0,0,0,1.81,2,4.87,4.87,0,0,0,2.59.71,4.55,4.55,0,0,0,2-.45,3.77,3.77,0,0,0,1.48-1.21,6.46,6.46,0,0,1-.9,3.13,2.3,2.3,0,0,1-2,1.12,3.45,3.45,0,0,1-1.11-.19c-.35-.13-.79-.32-1.32-.58l-.52-.26c-.31-.16-.55-.28-.72-.35a1.64,1.64,0,0,0-.6-.11,1.26,1.26,0,0,0-1,.52A1.92,1.92,0,0,0,90,58.06a1.8,1.8,0,0,0,.18.84,2,2,0,0,0,.58.64,7.41,7.41,0,0,0,2.42,1.2,9.22,9.22,0,0,0,2.74.44,6.52,6.52,0,0,0,3.74-1.08A7,7,0,0,0,102.15,57a11.68,11.68,0,0,0,.87-4.69A9.55,9.55,0,0,0,101.18,46,6.47,6.47,0,0,0,95.94,43.82Zm.27,8a1.92,1.92,0,0,1-1.5-.61,2.45,2.45,0,0,1-.54-1.67,2.41,2.41,0,0,1,.55-1.66,2.09,2.09,0,0,1,3,0,2.4,2.4,0,0,1,.57,1.65,2.37,2.37,0,0,1-.56,1.65A1.93,1.93,0,0,1,96.21,51.77ZM115.79,44h-9.41a2.38,2.38,0,0,0-1.58.44,1.68,1.68,0,0,0-.5,1.34,1.62,1.62,0,0,0,.49,1.29,2.38,2.38,0,0,0,1.59.43h6l-6.16,10.54a2.21,2.21,0,0,0-.34,1.15,1.75,1.75,0,0,0,.65,1.38,2.19,2.19,0,0,0,1.49.57,2.12,2.12,0,0,0,1-.28,2.24,2.24,0,0,0,.82-.85l7.28-12.6a3.09,3.09,0,0,0,.45-1.59,1.83,1.83,0,0,0-.47-1.3A1.68,1.68,0,0,0,115.79,44ZM67.74,90.26H62.29V84.81a2.56,2.56,0,1,0-5.11,0v5.45H51.72a2.51,2.51,0,0,0-2.55,2.56,2.55,2.55,0,0,0,.73,1.84,2.45,2.45,0,0,0,1.82.75h5.46v5.42a2.49,2.49,0,0,0,2.55,2.55,2.44,2.44,0,0,0,1.84-.73,2.5,2.5,0,0,0,.72-1.82V95.41h5.45a2.45,2.45,0,0,0,1.82-.75,2.56,2.56,0,0,0,.74-1.84,2.53,2.53,0,0,0-2.56-2.56Z"/></svg>