<svg id="Layer_1" data-name="Layer 1" xmlns="http://www.w3.org/2000/svg" viewBox="0 0 122.3 122.3"><title>l9_1_1</title><path d="M122.57,42.88V53.42a11.74,11.74,0,0,1-11.74,11.74h-11l0,22.51a4.39,4.39,0,0,1-4.67,4.67H75.37q-4.05,8.2-8.11,16.42c-.31.52-2.18,3.68-5.28,3.78-3.27.09-5.28-3.29-5.56-3.78L47.6,92.34h-23a4.43,4.43,0,0,1-2.92-1.23,4.93,4.93,0,0,1-1.31-3c-.33-2.63-.36-11.22,0-22.94H12A11.74,11.74,0,0,1,.21,53.42V42.88A11.74,11.74,0,0,1,12,31.14H39.5A11.74,11.74,0,0,1,51.24,42.88V53.42A11.74,11.74,0,0,1,39.5,65.16H28.85q0,9.23,0,18.44h14L39.35,77A8.51,8.51,0,0,1,39,70.52a3.9,3.9,0,0,1,2.17-2.35l38.86,0A4.22,4.22,0,0,1,82.84,71,9.68,9.68,0,0,1,83,77l-3.27,6.6h11.5q0-9.22,0-18.44H83.28A11.74,11.74,0,0,1,71.54,53.42V42.88A11.74,11.74,0,0,1,83.28,31.14h27.55A11.74,11.74,0,0,1,122.57,42.88ZM69,83.44H63.52V78a2.48,2.48,0,0,0-.74-1.82A2.57,2.57,0,0,0,58.39,78v5.49H52.9A2.53,2.53,0,0,0,50.33,86a2.55,2.55,0,0,0,.74,1.85,2.47,2.47,0,0,0,1.83.77h5.49v5.44a2.6,2.6,0,0,0,4.41,1.82,2.5,2.5,0,0,0,.72-1.82V88.62H69a2.44,2.44,0,0,0,1.83-.77A2.55,2.55,0,0,0,71.57,86a2.48,2.48,0,0,0-.74-1.82A2.45,2.45,0,0,0,69,83.44ZM7.77,54a2.81,2.81,0,0,0,2.4-1.11A5.39,5.39,0,0,0,11,49.68a5.37,5.37,0,0,0-.83-3.22,2.83,2.83,0,0,0-2.4-1.11,2.81,2.81,0,0,0-2.4,1.11,5.37,5.37,0,0,0-.83,3.22,5.39,5.39,0,0,0,.83,3.23A2.81,2.81,0,0,0,7.77,54Zm0-1.66a.87.87,0,0,1-.83-.63,6.16,6.16,0,0,1-.25-2,6.2,6.2,0,0,1,.25-2,.87.87,0,0,1,1.66,0,5.92,5.92,0,0,1,.25,2,5.91,5.91,0,0,1-.25,2A.87.87,0,0,1,7.77,52.36ZM13,54a1.08,1.08,0,0,0,.82-.34,1.2,1.2,0,0,0,0-1.65,1.08,1.08,0,0,0-.82-.34,1.1,1.1,0,0,0-.83.34,1.2,1.2,0,0,0,0,1.65A1.1,1.1,0,0,0,13,54Zm4.93-8.64a3.08,3.08,0,0,0-1.52.37,2.63,2.63,0,0,0-1.05,1,3,3,0,0,0-.38,1.5,3,3,0,0,0,.33,1.43,2.46,2.46,0,0,0,.91,1,2.36,2.36,0,0,0,1.29.35,2.31,2.31,0,0,0,1-.22,2,2,0,0,0,.74-.6,3.21,3.21,0,0,1-.45,1.56,1.17,1.17,0,0,1-1,.56,1.5,1.5,0,0,1-.56-.1c-.17-.06-.39-.16-.66-.28l-.26-.14L16,51.63a.73.73,0,0,0-.3-.05.63.63,0,0,0-.51.25,1,1,0,0,0-.21.63.87.87,0,0,0,.09.42,1.09,1.09,0,0,0,.29.33,4.15,4.15,0,0,0,1.21.6,4.81,4.81,0,0,0,1.37.21,3.24,3.24,0,0,0,1.87-.54A3.55,3.55,0,0,0,21,51.94a5.85,5.85,0,0,0,.43-2.34,4.77,4.77,0,0,0-.92-3.15A3.25,3.25,0,0,0,17.93,45.35Zm.14,4a.93.93,0,0,1-.75-.31,1.2,1.2,0,0,1-.27-.83,1.24,1.24,0,0,1,.27-.83,1,1,0,0,1,.75-.31,1,1,0,0,1,.74.32,1.17,1.17,0,0,1,.29.82,1.24,1.24,0,0,1-.28.83A1,1,0,0,1,18.07,49.32Zm9.58.43H26.14V48.24a.69.69,0,0,0-.2-.5.69.69,0,0,0-.51-.21.67.67,0,0,0-.5.21.65.65,0,0,0-.2.5v1.51H23.21a.67.67,0,0,0-.5.21.65.65,0,0,0-.2.5.69.69,0,0,0,.2.51.67.67,0,0,0,.5.21h1.52v1.5a.65.65,0,0,0,.2.5.67.67,0,0,0,.5.21.66.66,0,0,0,.51-.21.65.65,0,0,0,.2-.5v-1.5h1.51a.69.69,0,0,0,.51-.21.73.73,0,0,0,.2-.51.69.69,0,0,0-.2-.5A.69.69,0,0,0,27.65,49.75Zm5,4.27A2.81,2.81,0,0,0,35,52.91a5.32,5.32,0,0,0,.83-3.23A5.37,5.37,0,0,0,35,46.46a3.15,3.15,0,0,0-4.8,0,5.37,5.37,0,0,0-.82,3.22,5.39,5.39,0,0,0,.82,3.23A2.83,2.83,0,0,0,32.63,54Zm0-1.66a.85.85,0,0,1-.82-.63,5.85,5.85,0,0,1-.26-2,5.89,5.89,0,0,1,.26-2,.84.84,0,0,1,.82-.61.85.85,0,0,1,.83.62,5.92,5.92,0,0,1,.25,2,5.91,5.91,0,0,1-.25,2A.86.86,0,0,1,32.63,52.36ZM37.87,54a1.09,1.09,0,0,0,.82-.34,1.2,1.2,0,0,0,0-1.65,1.09,1.09,0,0,0-.82-.34A1.11,1.11,0,0,0,37,52a1.2,1.2,0,0,0,0,1.65A1.11,1.11,0,0,0,37.87,54Zm7.81-3.18h-.27V46.48a1,1,0,0,0-.32-.81,1.16,1.16,0,0,0-.78-.29,1.25,1.25,0,0,0-.53.13,1,1,0,0,0-.43.37l-3.43,4.89a1.32,1.32,0,0,0-.27.79.9.9,0,0,0,.26.66.87.87,0,0,0,.68.27h2.68v.41a1,1,0,0,0,.29.81,1.06,1.06,0,0,0,.77.28,1.08,1.08,0,0,0,.78-.28,1,1,0,0,0,.3-.81v-.41h.27c.69,0,1-.29,1-.85S46.37,50.81,45.68,50.81Zm-3.85,0,1.44-2.08v2.08ZM96.57,52a1.37,1.37,0,0,0,.87-.28,1.29,1.29,0,0,0,.47-.82,2.2,2.2,0,0,1,.54-1,10.88,10.88,0,0,1,1.21-1.12c.56-.49,1-.92,1.37-1.27a5,5,0,0,0,.9-1.27,3.73,3.73,0,0,0-.32-3.78A4.74,4.74,0,0,0,99.69,41a6.87,6.87,0,0,0-2.79-.54,9.21,9.21,0,0,0-2.77.44,8.62,8.62,0,0,0-2.46,1.24,2.08,2.08,0,0,0-.59.65,1.74,1.74,0,0,0-.18.84,2,2,0,0,0,.42,1.26,1.28,1.28,0,0,0,1,.51A2.93,2.93,0,0,0,93.66,45l.58-.29a8.79,8.79,0,0,1,1.21-.59,3.22,3.22,0,0,1,1.09-.2,1.63,1.63,0,0,1,1.06.31,1,1,0,0,1,.38.84,1.78,1.78,0,0,1-.27,1,8.11,8.11,0,0,1-.83,1,7.92,7.92,0,0,0-1.2,1.55,3.71,3.71,0,0,0-.43,1.88,1.67,1.67,0,0,0,.35,1.15A1.17,1.17,0,0,0,96.57,52Zm.05,5.74a2.25,2.25,0,0,0,1.66-.67,2.28,2.28,0,0,0,.66-1.66,2.25,2.25,0,0,0-.66-1.65,2.35,2.35,0,0,0-3.31,0,2.25,2.25,0,0,0-.66,1.65A2.28,2.28,0,0,0,95,57.1,2.25,2.25,0,0,0,96.62,57.77Z"/></svg>