<svg id="Layer_1" data-name="Layer 1" xmlns="http://www.w3.org/2000/svg" viewBox="0 0 122.3 122.3"><title>l9_1_1</title><path d="M122.38,23.29V64.08a11.74,11.74,0,0,1-11.74,11.74h-11l0,22.5A4.37,4.37,0,0,1,95,103H76.81v.66A11.78,11.78,0,0,1,65,115.43H54.6a11.78,11.78,0,0,1-11.78-11.79V103H24.46a4.43,4.43,0,0,1-2.92-1.23,4.9,4.9,0,0,1-1.31-3c-.33-2.64-.36-11.21,0-22.93H11.83A11.74,11.74,0,0,1,.09,64.08V23.29A11.74,11.74,0,0,1,11.83,11.56H39.36A11.73,11.73,0,0,1,51.09,23.29V64.08A11.74,11.74,0,0,1,39.36,75.82H28.72q0,9.21.05,18.43H42.82v-1A11.78,11.78,0,0,1,54.6,81.43H65A11.78,11.78,0,0,1,76.81,93.22v1H91Q91,85,91,75.82H83.12A11.74,11.74,0,0,1,71.38,64.08V23.29A11.74,11.74,0,0,1,83.12,11.56h27.52A11.74,11.74,0,0,1,122.38,23.29ZM22.86,34.13H20.5V20.45a2.52,2.52,0,0,0-.71-1.88,2.54,2.54,0,0,0-1.86-.69,4.91,4.91,0,0,0-2.4.72l-4.61,2.69a1.94,1.94,0,0,0-1,1.78,2.46,2.46,0,0,0,.57,1.58,1.75,1.75,0,0,0,1.39.7,2,2,0,0,0,1-.28l2.31-1.36V34.13H12.85a2.84,2.84,0,0,0-1.9.52,1.9,1.9,0,0,0-.61,1.55c0,1.43.84,2.14,2.51,2.14h10c1.68,0,2.51-.71,2.51-2.14a1.93,1.93,0,0,0-.6-1.55A2.89,2.89,0,0,0,22.86,34.13Zm14.86-6.27A4.66,4.66,0,0,0,40,26.12a4.8,4.8,0,0,0,.82-2.79A5,5,0,0,0,40,20.39a5.6,5.6,0,0,0-2.51-2,9.61,9.61,0,0,0-3.77-.69,11.49,11.49,0,0,0-3.42.52,9.43,9.43,0,0,0-2.93,1.44,2.46,2.46,0,0,0-.69.78,2.3,2.3,0,0,0-.2,1A2.34,2.34,0,0,0,26.93,23a1.48,1.48,0,0,0,1.21.62,1.81,1.81,0,0,0,.72-.13,7.11,7.11,0,0,0,.87-.42l.61-.28a16.44,16.44,0,0,1,1.57-.7,4.39,4.39,0,0,1,1.51-.26,2.5,2.5,0,0,1,1.76.59,2.15,2.15,0,0,1,.64,1.66,1.63,1.63,0,0,1-.72,1.48,4.5,4.5,0,0,1-2.31.46H31.52a1.66,1.66,0,0,0-1.36.6,2.29,2.29,0,0,0-.49,1.45,2.26,2.26,0,0,0,.49,1.44,1.66,1.66,0,0,0,1.36.6h1.79a4.29,4.29,0,0,1,2.36.5,1.8,1.8,0,0,1,.73,1.61A2,2,0,0,1,35.69,34a4,4,0,0,1-2.32.52,5.32,5.32,0,0,1-1.66-.24,13.28,13.28,0,0,1-1.66-.71l-.36-.16-.28-.13c-.36-.19-.65-.33-.86-.42a2.05,2.05,0,0,0-.72-.13,1.51,1.51,0,0,0-1.22.62,2.43,2.43,0,0,0-.49,1.52,2.3,2.3,0,0,0,.2,1,2.33,2.33,0,0,0,.7.8,9.32,9.32,0,0,0,3,1.46,13,13,0,0,0,3.61.5,10.89,10.89,0,0,0,4.08-.71,6.15,6.15,0,0,0,2.7-2,5.5,5.5,0,0,0,0-6.21A4.92,4.92,0,0,0,37.72,27.86ZM26.23,57.09a7.11,7.11,0,0,0-2.85.52V54.06h6.23c1.67,0,2.51-.67,2.51-2s-.84-2-2.51-2H20.66a2.44,2.44,0,0,0-1.81.63,2.49,2.49,0,0,0-.64,1.85v7.82a1.58,1.58,0,0,0,.55,1.26,2,2,0,0,0,1.35.47,2.64,2.64,0,0,0,1.3-.32,10.86,10.86,0,0,1,1.66-.52,8.44,8.44,0,0,1,1.58-.14,3.27,3.27,0,0,1,2.25.72,2.6,2.6,0,0,1,.8,2,2.51,2.51,0,0,1-.78,2,3.67,3.67,0,0,1-2.39.65,4.84,4.84,0,0,1-1.6-.26,17,17,0,0,1-1.63-.7l-.58-.29a9.54,9.54,0,0,0-.86-.43,2.2,2.2,0,0,0-.73-.11,1.48,1.48,0,0,0-1.21.62,2.34,2.34,0,0,0-.49,1.51,2.08,2.08,0,0,0,.22,1,2.46,2.46,0,0,0,.68.79,9.22,9.22,0,0,0,3,1.44,12,12,0,0,0,3.51.52,9.5,9.5,0,0,0,4.13-.86,6.57,6.57,0,0,0,2.77-2.46,6.81,6.81,0,0,0,1-3.66,6.93,6.93,0,0,0-.83-3.42,5.8,5.8,0,0,0-2.27-2.31A6.69,6.69,0,0,0,26.23,57.09ZM97,50.42a2.92,2.92,0,0,0,1.83-.6,2.68,2.68,0,0,0,1-1.7,4.66,4.66,0,0,1,1.13-2,22.93,22.93,0,0,1,2.52-2.32c1.17-1,2.12-1.92,2.85-2.65a10,10,0,0,0,1.88-2.65,7.58,7.58,0,0,0,.77-3.4,7.36,7.36,0,0,0-1.45-4.48,9.68,9.68,0,0,0-4-3.1,14.22,14.22,0,0,0-5.8-1.12,18.9,18.9,0,0,0-5.77.92,17.91,17.91,0,0,0-5.13,2.58,4.2,4.2,0,0,0-1.22,1.35A3.68,3.68,0,0,0,85.15,33,4,4,0,0,0,86,35.59a2.64,2.64,0,0,0,2.12,1.08,6.14,6.14,0,0,0,2.75-1l1.2-.6a19.16,19.16,0,0,1,2.53-1.23,6.42,6.42,0,0,1,2.27-.42,3.39,3.39,0,0,1,2.2.65,2.15,2.15,0,0,1,.8,1.75,3.67,3.67,0,0,1-.57,2A16.53,16.53,0,0,1,97.6,40a16.27,16.27,0,0,0-2.5,3.22,7.83,7.83,0,0,0-.9,3.93,3.57,3.57,0,0,0,.73,2.4A2.5,2.5,0,0,0,97,50.42Zm.1,11.95a4.7,4.7,0,0,0,3.48-1.4,5,5,0,0,0,0-6.9,4.7,4.7,0,0,0-3.48-1.4,4.59,4.59,0,0,0-3.42,1.4,5,5,0,0,0,0,6.9A4.59,4.59,0,0,0,97.05,62.37ZM67.41,96.6H61.93V91.12a2.53,2.53,0,0,0-2.57-2.57,2.52,2.52,0,0,0-1.83.74,2.49,2.49,0,0,0-.74,1.83V96.6H51.31a2.53,2.53,0,0,0-2.57,2.57,2.58,2.58,0,0,0,.74,1.85,2.45,2.45,0,0,0,1.83.76h5.48v5.44a2.53,2.53,0,0,0,2.57,2.57,2.47,2.47,0,0,0,1.85-.74,2.53,2.53,0,0,0,.72-1.83v-5.44h5.48a2.43,2.43,0,0,0,1.83-.76A2.58,2.58,0,0,0,70,99.17a2.53,2.53,0,0,0-2.57-2.57ZM41.06,44h0a2.61,2.61,0,0,0-2.61-2.61H11.19A2.62,2.62,0,0,0,8.57,44h0a2.62,2.62,0,0,0,2.62,2.62H38.45A2.61,2.61,0,0,0,41.06,44Z"/></svg>