<svg id="Layer_1" data-name="Layer 1" xmlns="http://www.w3.org/2000/svg" viewBox="0 0 122.3 122.3"><title>l9_1_1</title><path d="M122.79,45.36V55.9a11.74,11.74,0,0,1-11.74,11.74H100l0,22.52a4.53,4.53,0,0,1-1.24,3.35,4.49,4.49,0,0,1-3.43,1.31H75.59q-4.05,8.22-8.12,16.42c-.3.53-2.18,3.69-5.28,3.78-3.26.1-5.27-3.28-5.55-3.78L47.81,94.82h-23a4.41,4.41,0,0,1-2.93-1.23,4.89,4.89,0,0,1-1.3-3c-.34-2.64-.37-11.22,0-23H12.17A11.74,11.74,0,0,1,.43,55.9V45.36A11.74,11.74,0,0,1,12.17,33.62H39.71A11.75,11.75,0,0,1,51.46,45.36V55.9A11.75,11.75,0,0,1,39.71,67.64H29.07q0,9.23.05,18.45h14c-1.19-2.21-2.37-4.42-3.56-6.62A8.51,8.51,0,0,1,39.23,73a3.9,3.9,0,0,1,2.17-2.36l38.86.06a4.19,4.19,0,0,1,2.8,2.81,9.76,9.76,0,0,1,.12,6l-3.27,6.61h11.5q0-9.23,0-18.45H83.5A11.74,11.74,0,0,1,71.76,55.9V45.36A11.74,11.74,0,0,1,83.5,33.62h27.55A11.74,11.74,0,0,1,122.79,45.36ZM69.22,85.92H63.74V80.44a2.57,2.57,0,1,0-5.14,0v5.48H53.12a2.53,2.53,0,0,0-2.57,2.57,2.58,2.58,0,0,0,.74,1.85,2.43,2.43,0,0,0,1.83.76H58.6v5.44a2.53,2.53,0,0,0,2.57,2.57A2.49,2.49,0,0,0,63,98.37a2.54,2.54,0,0,0,.72-1.83V91.1h5.48a2.45,2.45,0,0,0,1.83-.76,2.58,2.58,0,0,0,.74-1.85,2.53,2.53,0,0,0-2.57-2.57Zm-54-39a3.28,3.28,0,0,0,2.8-1.3,6.28,6.28,0,0,0,1-3.77,6.18,6.18,0,0,0-1-3.75,3.27,3.27,0,0,0-2.79-1.3,3.25,3.25,0,0,0-2.8,1.3,6.18,6.18,0,0,0-1,3.75,6.21,6.21,0,0,0,1,3.77A3.25,3.25,0,0,0,15.2,47Zm0-1.94a1,1,0,0,1-1-.73,7.17,7.17,0,0,1-.29-2.4,7,7,0,0,1,.29-2.38,1,1,0,0,1,1-.72,1,1,0,0,1,1,.73,6.7,6.7,0,0,1,.3,2.37,6.86,6.86,0,0,1-.3,2.4A1,1,0,0,1,15.2,45Zm6.1,1.9a1.33,1.33,0,1,0-1-.39A1.3,1.3,0,0,0,21.3,46.92Zm8.23-5.17a2,2,0,0,0,1.1-.82,2.4,2.4,0,0,0,.4-1.4,2.32,2.32,0,0,0-1-2,4.38,4.38,0,0,0-2.66-.72,4.35,4.35,0,0,0-2.64.72,2.33,2.33,0,0,0-1,2,2.36,2.36,0,0,0,.39,1.36,2.27,2.27,0,0,0,1.12.86,2.28,2.28,0,0,0-1.31.84,2.64,2.64,0,0,0,.58,3.61A4.76,4.76,0,0,0,27.4,47a4.78,4.78,0,0,0,2.85-.75,2.41,2.41,0,0,0,1.05-2.08,2.37,2.37,0,0,0-.46-1.5A2.42,2.42,0,0,0,29.53,41.75ZM27.4,45c-1,0-1.52-.36-1.52-1.09s.51-1.09,1.52-1.09,1.53.36,1.53,1.09S28.42,45,27.4,45Zm0-6.21a1.51,1.51,0,0,1,.94.24,1.17,1.17,0,0,1,0,1.59,1.87,1.87,0,0,1-1.87,0,1.17,1.17,0,0,1,0-1.59A1.5,1.5,0,0,1,27.4,38.79ZM38.63,37H33.15a1.36,1.36,0,0,0-.93.26,1,1,0,0,0-.29.77,1,1,0,0,0,.28.76,1.41,1.41,0,0,0,.94.25h3.5l-3.6,6.15a1.3,1.3,0,0,0-.2.67,1,1,0,0,0,.38.8,1.28,1.28,0,0,0,.87.33,1.16,1.16,0,0,0,.59-.16,1.29,1.29,0,0,0,.48-.5L39.42,39a1.87,1.87,0,0,0,.26-.93,1.09,1.09,0,0,0-.27-.76A1,1,0,0,0,38.63,37Zm-25,21.81H11.82V57a.82.82,0,0,0-.23-.58.81.81,0,0,0-.59-.24.82.82,0,0,0-.83.82v1.77H8.41a.82.82,0,0,0-.83.82.81.81,0,0,0,.24.6.79.79,0,0,0,.59.24h1.76v1.75A.82.82,0,0,0,11,63a.8.8,0,0,0,.82-.83V60.44h1.77a.81.81,0,0,0,.59-.24.85.85,0,0,0,.23-.6.82.82,0,0,0-.23-.58A.81.81,0,0,0,13.59,58.78Zm5.81,5a3.28,3.28,0,0,0,2.8-1.3,6.28,6.28,0,0,0,1-3.77,6.18,6.18,0,0,0-1-3.75,3.27,3.27,0,0,0-2.79-1.3,3.25,3.25,0,0,0-2.8,1.3,6.18,6.18,0,0,0-1,3.75,6.21,6.21,0,0,0,1,3.77A3.25,3.25,0,0,0,19.4,63.76Zm0-1.94a1,1,0,0,1-1-.73,7.17,7.17,0,0,1-.29-2.4,7,7,0,0,1,.29-2.38,1,1,0,0,1,1-.72,1,1,0,0,1,1,.72,6.81,6.81,0,0,1,.3,2.38,6.86,6.86,0,0,1-.3,2.4A1,1,0,0,1,19.4,61.82Zm6.1,1.9a1.33,1.33,0,1,0-1-.39A1.3,1.3,0,0,0,25.5,63.72Zm8.93-9.95H29A1.36,1.36,0,0,0,28,54a1.17,1.17,0,0,0,0,1.53,1.43,1.43,0,0,0,.94.25h3.5L28.85,62a1.3,1.3,0,0,0-.2.67,1,1,0,0,0,.38.8,1.28,1.28,0,0,0,.87.33,1.16,1.16,0,0,0,.59-.16,1.38,1.38,0,0,0,.49-.5l4.24-7.35a1.81,1.81,0,0,0,.26-.92,1.09,1.09,0,0,0-.27-.76A1,1,0,0,0,34.43,53.77Zm7.35,4.78a2.22,2.22,0,0,0,1.12-.84,2.38,2.38,0,0,0,.4-1.35,2.49,2.49,0,0,0-.43-1.43,2.73,2.73,0,0,0-1.22-1,4.56,4.56,0,0,0-1.83-.34,5.57,5.57,0,0,0-1.66.25,4.71,4.71,0,0,0-1.42.7,1,1,0,0,0-.33.38,1,1,0,0,0-.1.49,1.15,1.15,0,0,0,.24.74.72.72,0,0,0,.59.3.81.81,0,0,0,.35-.07l.41-.2.3-.14c.28-.14.53-.25.76-.34a2.25,2.25,0,0,1,.74-.12,1.16,1.16,0,0,1,.85.29,1,1,0,0,1,.31.8.77.77,0,0,1-.35.71,2.13,2.13,0,0,1-1.12.23h-.62a.82.82,0,0,0-.66.29,1.13,1.13,0,0,0-.23.7,1.11,1.11,0,0,0,.23.7.8.8,0,0,0,.66.3h.87a2.2,2.2,0,0,1,1.15.23.89.89,0,0,1,.35.79,1,1,0,0,1-.34.84,2,2,0,0,1-1.13.25,2.55,2.55,0,0,1-.81-.12,6.76,6.76,0,0,1-.8-.34l-.18-.08-.13-.06-.42-.2a.78.78,0,0,0-.35-.07.73.73,0,0,0-.59.3,1.15,1.15,0,0,0-.24.74,1.14,1.14,0,0,0,.1.48,1.11,1.11,0,0,0,.34.39,4.6,4.6,0,0,0,1.46.7,6,6,0,0,0,1.75.25,5.47,5.47,0,0,0,2-.34,2.92,2.92,0,0,0,1.3-1A2.42,2.42,0,0,0,43.55,61a2.51,2.51,0,0,0-.47-1.53A2.4,2.4,0,0,0,41.78,58.55Zm55-4a1.4,1.4,0,0,0,.87-.29,1.26,1.26,0,0,0,.47-.82,2.26,2.26,0,0,1,.54-1,12,12,0,0,1,1.21-1.12c.56-.49,1-.92,1.37-1.27a4.83,4.83,0,0,0,.9-1.27,3.73,3.73,0,0,0-.32-3.78,4.74,4.74,0,0,0-1.92-1.49A6.87,6.87,0,0,0,97.12,43a8.87,8.87,0,0,0-2.77.45,8.35,8.35,0,0,0-2.46,1.23,2.19,2.19,0,0,0-.59.65,1.74,1.74,0,0,0-.18.84,1.92,1.92,0,0,0,.42,1.26,1.29,1.29,0,0,0,1,.52,3,3,0,0,0,1.32-.46l.58-.29a10.12,10.12,0,0,1,1.21-.59,3.18,3.18,0,0,1,1.09-.2,1.63,1.63,0,0,1,1.06.31,1,1,0,0,1,.38.84,1.78,1.78,0,0,1-.27,1,8.11,8.11,0,0,1-.83,1,8.23,8.23,0,0,0-1.2,1.55A3.75,3.75,0,0,0,95.47,53a1.73,1.73,0,0,0,.34,1.15A1.24,1.24,0,0,0,96.79,54.52Zm0,5.73a2.22,2.22,0,0,0,1.67-.67,2.41,2.41,0,0,0,0-3.31,2.38,2.38,0,0,0-3.31,0,2.41,2.41,0,0,0,0,3.31A2.2,2.2,0,0,0,96.83,60.25Z"/></svg>