<svg id="Layer_1" data-name="Layer 1" xmlns="http://www.w3.org/2000/svg" viewBox="0 0 122.3 122.3"><title>l9_1_1</title><path d="M122.24,43.07V59.73a8.65,8.65,0,0,1-8.65,8.65H99.51q0,11.25,0,22.49a4.36,4.36,0,0,1-4.66,4.65H76.72v3.75A8.7,8.7,0,0,1,68,108H51.44a8.69,8.69,0,0,1-8.69-8.69V95.52H24.41a4.37,4.37,0,0,1-2.92-1.23,4.88,4.88,0,0,1-1.31-3c-.33-2.63-.36-11.2,0-22.91H8.72A8.66,8.66,0,0,1,.06,59.73V43.07a8.66,8.66,0,0,1,8.66-8.66H42.36A8.66,8.66,0,0,1,51,43.07V59.73a8.65,8.65,0,0,1-8.65,8.65H28.66q0,9.21.05,18.42h14V82.69A8.7,8.7,0,0,1,51.44,74H68a8.71,8.71,0,0,1,8.7,8.7V86.8H90.91q0-9.21,0-18.42h-11a8.65,8.65,0,0,1-8.65-8.65V43.07a8.66,8.66,0,0,1,8.65-8.66h33.65A8.66,8.66,0,0,1,122.24,43.07ZM11.83,51.47a2.64,2.64,0,0,0,1.41-1.06,3.12,3.12,0,0,0,.51-1.8,3,3,0,0,0-1.25-2.53,5.66,5.66,0,0,0-3.41-.92,5.67,5.67,0,0,0-3.4.92,3,3,0,0,0-1.26,2.53,3.13,3.13,0,0,0,.5,1.76,3,3,0,0,0,1.44,1.1,3,3,0,0,0-1.69,1.08,3.18,3.18,0,0,0-.59,2,3.08,3.08,0,0,0,1.34,2.67,6.16,6.16,0,0,0,3.66,1,6.16,6.16,0,0,0,3.66-1,3.09,3.09,0,0,0,1.35-2.67,3,3,0,0,0-2.27-3.05ZM9.09,55.65c-1.31,0-2-.47-2-1.4s.65-1.41,2-1.41,2,.47,2,1.41S10.4,55.65,9.09,55.65Zm0-8A1.94,1.94,0,0,1,10.3,48a1.24,1.24,0,0,1,.39,1,1.27,1.27,0,0,1-.39,1,1.94,1.94,0,0,1-1.21.32A1.89,1.89,0,0,1,7.89,50a1.24,1.24,0,0,1-.4-1,1.21,1.21,0,0,1,.4-1A1.89,1.89,0,0,1,9.09,47.66Zm11.88,2a3.49,3.49,0,0,0-1.52.33,2.84,2.84,0,0,0-1.11.91A4.85,4.85,0,0,1,19,48.55a1.72,1.72,0,0,1,1.48-.84,2.31,2.31,0,0,1,.83.15,8.76,8.76,0,0,1,1,.43l.4.2c.22.12.41.2.54.26a1.25,1.25,0,0,0,.45.08.94.94,0,0,0,.76-.39,1.45,1.45,0,0,0,.32-.94,1.28,1.28,0,0,0-.14-.63,1.51,1.51,0,0,0-.44-.49,5.9,5.9,0,0,0-1.81-.9,6.84,6.84,0,0,0-2.06-.32,4.88,4.88,0,0,0-2.8.81,5.24,5.24,0,0,0-1.85,2.31A8.67,8.67,0,0,0,15,51.8a7.1,7.1,0,0,0,1.39,4.71,4.81,4.81,0,0,0,3.92,1.66,4.68,4.68,0,0,0,2.29-.56,4,4,0,0,0,1.57-1.55,4.8,4.8,0,0,0,.07-4.4,3.69,3.69,0,0,0-1.35-1.47A3.61,3.61,0,0,0,21,49.66Zm-.83,6A1.46,1.46,0,0,1,19,55.16a1.77,1.77,0,0,1-.43-1.24A1.79,1.79,0,0,1,19,52.68a1.59,1.59,0,0,1,2.25,0,1.82,1.82,0,0,1,.4,1.25,1.77,1.77,0,0,1-.41,1.24A1.4,1.4,0,0,1,20.14,55.63ZM34,51.76H31.75V49.49a1,1,0,0,0-1.06-1.06,1.06,1.06,0,0,0-1.06,1.06v2.27H27.36a1,1,0,0,0-1.06,1.06,1.08,1.08,0,0,0,.3.77,1,1,0,0,0,.76.31h2.27v2.25a1,1,0,0,0,.31.76,1,1,0,0,0,.75.31,1.06,1.06,0,0,0,.77-.31,1.07,1.07,0,0,0,.29-.76V53.9H34a1,1,0,0,0,.76-.31,1.08,1.08,0,0,0,.3-.77A1,1,0,0,0,34,51.76Zm7-6.6a4.7,4.7,0,0,0-2.29.55,4.13,4.13,0,0,0-1.57,1.56,4.78,4.78,0,0,0-.07,4.39,3.63,3.63,0,0,0,3.3,2,3.49,3.49,0,0,0,1.52-.33A2.93,2.93,0,0,0,43,52.43a4.75,4.75,0,0,1-.68,2.35,1.7,1.7,0,0,1-1.48.83,2.3,2.3,0,0,1-.83-.14c-.26-.1-.59-.24-1-.43l-.39-.2a6,6,0,0,0-.54-.26,1.34,1.34,0,0,0-.46-.08.94.94,0,0,0-.76.39,1.43,1.43,0,0,0-.32.94,1.33,1.33,0,0,0,.14.63,1.64,1.64,0,0,0,.44.49,5.9,5.9,0,0,0,1.81.9,7.17,7.17,0,0,0,2.06.32,4.88,4.88,0,0,0,2.8-.81,5.17,5.17,0,0,0,1.85-2.31,8.7,8.7,0,0,0,.66-3.52A7.14,7.14,0,0,0,45,46.81,4.83,4.83,0,0,0,41,45.16Zm.2,6a1.45,1.45,0,0,1-1.13-.45,2.13,2.13,0,0,1,0-2.5,1.43,1.43,0,0,1,1.12-.47,1.42,1.42,0,0,1,1.11.48,2,2,0,0,1,0,2.48A1.43,1.43,0,0,1,41.24,51.11Zm47.5-8.53a6.12,6.12,0,0,0-3,.75,5.23,5.23,0,0,0-2.1,2.07,5.93,5.93,0,0,0-.76,3,6,6,0,0,0,.66,2.85,5,5,0,0,0,1.81,2,4.86,4.86,0,0,0,2.59.7,4.54,4.54,0,0,0,2-.44,3.86,3.86,0,0,0,1.48-1.21,6.46,6.46,0,0,1-.9,3.13,2.32,2.32,0,0,1-2,1.12,3.21,3.21,0,0,1-1.11-.2,14.18,14.18,0,0,1-1.32-.57l-.52-.27c-.31-.16-.55-.27-.72-.34a1.46,1.46,0,0,0-.6-.11,1.28,1.28,0,0,0-1,.51,2,2,0,0,0-.42,1.26,1.74,1.74,0,0,0,.18.84,2,2,0,0,0,.58.65A7.83,7.83,0,0,0,86,59.5a9.2,9.2,0,0,0,2.74.43,6.52,6.52,0,0,0,3.74-1.08A7,7,0,0,0,95,55.77a11.72,11.72,0,0,0,.87-4.69A9.55,9.55,0,0,0,94,44.79,6.47,6.47,0,0,0,88.74,42.58Zm.27,8a1.89,1.89,0,0,1-1.5-.62,2.8,2.8,0,0,1,0-3.32A1.87,1.87,0,0,1,89,46a1.93,1.93,0,0,1,1.49.63,2.69,2.69,0,0,1,0,3.3A1.93,1.93,0,0,1,89,50.53Zm15.91-1.88a6,6,0,0,0-2.38.44v-3h5.19c1.39,0,2.09-.56,2.09-1.68s-.7-1.65-2.09-1.65h-7.44a2,2,0,0,0-1.51.53,2,2,0,0,0-.53,1.53v6.51a1.31,1.31,0,0,0,.45,1,1.69,1.69,0,0,0,1.13.4,2.22,2.22,0,0,0,1.08-.27,8.39,8.39,0,0,1,1.38-.43A6.57,6.57,0,0,1,103.6,52a2.71,2.71,0,0,1,1.87.6,2.13,2.13,0,0,1,.67,1.68A2.07,2.07,0,0,1,105.5,56a3.1,3.1,0,0,1-2,.54,4.08,4.08,0,0,1-1.33-.21,14,14,0,0,1-1.35-.58l-.48-.24a5.84,5.84,0,0,0-.72-.36A1.71,1.71,0,0,0,99,55a1.26,1.26,0,0,0-1,.52,2,2,0,0,0-.41,1.26,1.78,1.78,0,0,0,.18.83,2.24,2.24,0,0,0,.56.66,8.06,8.06,0,0,0,2.46,1.2,10,10,0,0,0,2.92.43,7.76,7.76,0,0,0,3.43-.72,5.47,5.47,0,0,0,2.31-2,5.72,5.72,0,0,0,.81-3,5.82,5.82,0,0,0-.68-2.84,4.81,4.81,0,0,0-1.9-1.92A5.5,5.5,0,0,0,104.92,48.65ZM67.74,89H62.29V83.56a2.56,2.56,0,1,0-5.11,0V89H51.72a2.51,2.51,0,0,0-2.55,2.55,2.52,2.52,0,0,0,.73,1.84,2.42,2.42,0,0,0,1.82.76h5.46v5.42a2.45,2.45,0,0,0,.73,1.81,2.48,2.48,0,0,0,1.82.74,2.45,2.45,0,0,0,1.84-.74,2.48,2.48,0,0,0,.72-1.81V94.17h5.45a2.42,2.42,0,0,0,1.82-.76,2.53,2.53,0,0,0,.74-1.84A2.53,2.53,0,0,0,67.74,89Z"/></svg>