<svg id="Layer_1" data-name="Layer 1" xmlns="http://www.w3.org/2000/svg" viewBox="0 0 122.3 122.3"><title>l9_1_1</title><path d="M122.36,42.88V53.42a11.74,11.74,0,0,1-11.74,11.74h-11l0,22.51A4.39,4.39,0,0,1,95,92.34H75.16q-4.05,8.2-8.11,16.42c-.31.52-2.18,3.68-5.28,3.78-3.27.09-5.28-3.29-5.56-3.78L47.39,92.34h-23a4.43,4.43,0,0,1-2.92-1.23,4.93,4.93,0,0,1-1.31-3c-.33-2.63-.36-11.22,0-22.94H11.74A11.74,11.74,0,0,1,0,53.42V42.88A11.74,11.74,0,0,1,11.74,31.14H39.29A11.74,11.74,0,0,1,51,42.88V53.42A11.74,11.74,0,0,1,39.29,65.16H28.64q0,9.23.05,18.44h14L39.14,77a8.51,8.51,0,0,1-.34-6.46A3.9,3.9,0,0,1,41,68.17l38.86,0A4.22,4.22,0,0,1,82.63,71a9.76,9.76,0,0,1,.12,6l-3.27,6.6H91q0-9.22,0-18.44H83.07A11.74,11.74,0,0,1,71.33,53.42V42.88A11.74,11.74,0,0,1,83.07,31.14h27.55A11.74,11.74,0,0,1,122.36,42.88ZM68.79,83.44H63.31V78a2.48,2.48,0,0,0-.74-1.82,2.45,2.45,0,0,0-1.83-.74A2.53,2.53,0,0,0,58.17,78v5.49H52.69A2.53,2.53,0,0,0,50.12,86a2.55,2.55,0,0,0,.74,1.85,2.47,2.47,0,0,0,1.83.77h5.48v5.44a2.53,2.53,0,0,0,2.57,2.56,2.43,2.43,0,0,0,1.85-.74,2.5,2.5,0,0,0,.72-1.82V88.62h5.48a2.44,2.44,0,0,0,1.83-.77A2.55,2.55,0,0,0,71.36,86a2.48,2.48,0,0,0-.74-1.82A2.45,2.45,0,0,0,68.79,83.44ZM13.92,44a3.26,3.26,0,0,0,2.8-1.3,6.28,6.28,0,0,0,1-3.77,6.18,6.18,0,0,0-1-3.75,3.27,3.27,0,0,0-2.79-1.3,3.26,3.26,0,0,0-2.8,1.3,6.25,6.25,0,0,0-1,3.75,6.28,6.28,0,0,0,1,3.77A3.26,3.26,0,0,0,13.92,44Zm0-1.94a1,1,0,0,1-1-.73,7.21,7.21,0,0,1-.29-2.4A7,7,0,0,1,13,36.59a1,1,0,0,1,1.94,0A7.11,7.11,0,0,1,15.18,39a7.21,7.21,0,0,1-.29,2.4A1,1,0,0,1,13.92,42.1ZM20,44a1.27,1.27,0,0,0,1-.39,1.33,1.33,0,0,0,.39-1,1.3,1.3,0,0,0-.39-1,1.25,1.25,0,0,0-1-.4,1.28,1.28,0,0,0-1,.4,1.3,1.3,0,0,0-.38,1A1.32,1.32,0,0,0,20,44Zm9.12-3.71h-.31v-5a1.18,1.18,0,0,0-.38-.94,1.29,1.29,0,0,0-.91-.34,1.38,1.38,0,0,0-.62.15,1.29,1.29,0,0,0-.5.43l-4,5.71a1.52,1.52,0,0,0-.31.92,1.08,1.08,0,0,0,.29.77,1.05,1.05,0,0,0,.8.31h3.12v.48a1.25,1.25,0,0,0,.35,1,1.29,1.29,0,0,0,.9.32,1.31,1.31,0,0,0,.91-.32,1.25,1.25,0,0,0,.35-1v-.48h.31c.81,0,1.22-.33,1.22-1S30,40.29,29.14,40.29Zm-4.5,0,1.68-2.42v2.42Zm10.57-2.83a3.62,3.62,0,0,0-1.38.25V36h3c.81,0,1.22-.32,1.22-1s-.41-1-1.22-1H32.51a1.07,1.07,0,0,0-1.19,1.2V39a.75.75,0,0,0,.27.61.92.92,0,0,0,.66.23,1.39,1.39,0,0,0,.63-.15,4.2,4.2,0,0,1,.8-.25,3.57,3.57,0,0,1,.76-.07,1.58,1.58,0,0,1,1.1.35,1.24,1.24,0,0,1,.39,1,1.2,1.2,0,0,1-.38,1,1.78,1.78,0,0,1-1.16.32,2.2,2.2,0,0,1-.78-.13,6.75,6.75,0,0,1-.79-.33l-.28-.14a4,4,0,0,0-.42-.21.88.88,0,0,0-.35-.06.73.73,0,0,0-.59.3,1.15,1.15,0,0,0-.24.74,1,1,0,0,0,.11.48,1.3,1.3,0,0,0,.33.39,4.89,4.89,0,0,0,1.43.7,6.19,6.19,0,0,0,1.7.25,4.57,4.57,0,0,0,2-.42,3.23,3.23,0,0,0,1.34-1.19,3.32,3.32,0,0,0,.48-1.78,3.43,3.43,0,0,0-.4-1.66,2.91,2.91,0,0,0-1.11-1.12A3.19,3.19,0,0,0,35.21,37.46ZM12.3,55.86H10.54V54.09a.77.77,0,0,0-.24-.58.79.79,0,0,0-.59-.24.82.82,0,0,0-.82.82v1.77H7.12a.82.82,0,0,0-.82.82.81.81,0,0,0,.24.6.77.77,0,0,0,.58.24H8.89v1.75a.79.79,0,0,0,.24.59.77.77,0,0,0,.58.24.8.8,0,0,0,.6-.24.82.82,0,0,0,.23-.59V57.52H12.3a.79.79,0,0,0,.59-.24.81.81,0,0,0,.24-.6.77.77,0,0,0-.24-.58A.79.79,0,0,0,12.3,55.86Zm5.81,5a3.25,3.25,0,0,0,2.8-1.3,6.21,6.21,0,0,0,1-3.77,6.25,6.25,0,0,0-1-3.75,3.28,3.28,0,0,0-2.8-1.3,3.28,3.28,0,0,0-2.8,1.3,6.26,6.26,0,0,0-1,3.75,6.28,6.28,0,0,0,1,3.77A3.28,3.28,0,0,0,18.11,60.84Zm0-1.94a1,1,0,0,1-1-.73,6.9,6.9,0,0,1-.3-2.4,6.73,6.73,0,0,1,.3-2.38,1,1,0,0,1,1-.72,1,1,0,0,1,1,.72,6.86,6.86,0,0,1,.29,2.38,7,7,0,0,1-.29,2.4A1,1,0,0,1,18.11,58.9Zm6.11,1.9a1.3,1.3,0,0,0,1-.39,1.36,1.36,0,0,0,.38-1,1.34,1.34,0,0,0-.38-1,1.28,1.28,0,0,0-1-.4,1.3,1.3,0,0,0-1,.4,1.34,1.34,0,0,0-.38,1,1.36,1.36,0,0,0,.38,1A1.33,1.33,0,0,0,24.22,60.8Zm8.7-2.13H30.11l2-2a6.66,6.66,0,0,0,1.17-1.57,3.53,3.53,0,0,0,.34-1.56A2.54,2.54,0,0,0,33.18,52a2.7,2.7,0,0,0-1.21-1,4.48,4.48,0,0,0-1.82-.34,5.35,5.35,0,0,0-1.61.25,5.46,5.46,0,0,0-1.48.7.85.85,0,0,0-.34.37,1,1,0,0,0-.1.5,1.2,1.2,0,0,0,.24.75.72.72,0,0,0,.59.31.84.84,0,0,0,.27,0,1.68,1.68,0,0,0,.28-.13l.22-.12.28-.14a6.7,6.7,0,0,1,.79-.34,2.27,2.27,0,0,1,.75-.12,1.09,1.09,0,0,1,.78.25,1,1,0,0,1,.27.73,2.76,2.76,0,0,1-.92,1.78l-3,3.09a1.53,1.53,0,0,0-.48,1.09,1,1,0,0,0,1.09,1.07h5.11a1.38,1.38,0,0,0,.92-.26,1,1,0,0,0,.3-.78.91.91,0,0,0-.3-.76A1.39,1.39,0,0,0,32.92,58.67Zm5.46-8a3.57,3.57,0,0,0-1.77.43,3.18,3.18,0,0,0-1.23,1.21,3.56,3.56,0,0,0-.44,1.76,3.48,3.48,0,0,0,.39,1.66,2.8,2.8,0,0,0,2.56,1.56,2.63,2.63,0,0,0,1.19-.26,2.29,2.29,0,0,0,.86-.7,3.67,3.67,0,0,1-.53,1.82,1.31,1.31,0,0,1-1.15.65,1.78,1.78,0,0,1-.65-.11c-.2-.07-.46-.19-.77-.33l-.3-.16-.42-.2a1,1,0,0,0-.35-.06.75.75,0,0,0-.6.3,1.13,1.13,0,0,0-.24.73,1,1,0,0,0,.1.49,1.31,1.31,0,0,0,.34.38,4.65,4.65,0,0,0,1.41.7,5.38,5.38,0,0,0,1.6.25,3.78,3.78,0,0,0,2.18-.63A4.07,4.07,0,0,0,42,58.41a6.78,6.78,0,0,0,.51-2.73A5.56,5.56,0,0,0,41.44,52,3.77,3.77,0,0,0,38.38,50.72Zm.16,4.63a1.14,1.14,0,0,1-.88-.35,1.44,1.44,0,0,1-.31-1,1.41,1.41,0,0,1,.32-1,1.08,1.08,0,0,1,.87-.37,1.16,1.16,0,0,1,.87.37,1.58,1.58,0,0,1,0,1.93A1.12,1.12,0,0,1,38.54,55.35ZM96.36,52a1.37,1.37,0,0,0,.87-.28,1.29,1.29,0,0,0,.47-.82,2.2,2.2,0,0,1,.54-1,10.88,10.88,0,0,1,1.21-1.12c.56-.49,1-.92,1.37-1.27a5,5,0,0,0,.9-1.27,3.73,3.73,0,0,0-.32-3.78A4.74,4.74,0,0,0,99.48,41a6.87,6.87,0,0,0-2.79-.54,9.21,9.21,0,0,0-2.77.44,8.62,8.62,0,0,0-2.46,1.24,2.08,2.08,0,0,0-.59.65,1.74,1.74,0,0,0-.18.84,2,2,0,0,0,.42,1.26,1.28,1.28,0,0,0,1,.51A2.93,2.93,0,0,0,93.45,45l.58-.29a8.79,8.79,0,0,1,1.21-.59,3.22,3.22,0,0,1,1.09-.2,1.63,1.63,0,0,1,1.06.31,1,1,0,0,1,.38.84,1.78,1.78,0,0,1-.27,1,8.11,8.11,0,0,1-.83,1,7.92,7.92,0,0,0-1.2,1.55A3.71,3.71,0,0,0,95,50.47a1.67,1.67,0,0,0,.35,1.15A1.17,1.17,0,0,0,96.36,52Zm0,5.74a2.25,2.25,0,0,0,1.66-.67,2.28,2.28,0,0,0,.66-1.66,2.25,2.25,0,0,0-.66-1.65,2.35,2.35,0,0,0-3.31,0,2.25,2.25,0,0,0-.66,1.65,2.28,2.28,0,0,0,.66,1.66A2.25,2.25,0,0,0,96.41,57.77Z"/></svg>