<svg id="Layer_1" data-name="Layer 1" xmlns="http://www.w3.org/2000/svg" viewBox="0 0 122.3 122.3"><title>l9_1_1</title><path d="M122.57,23.29V64.08a11.74,11.74,0,0,1-11.74,11.74h-11l0,22.5A4.38,4.38,0,0,1,95.18,103H77v.66a11.78,11.78,0,0,1-11.78,11.79H54.79A11.78,11.78,0,0,1,43,103.64V103H24.65a4.43,4.43,0,0,1-2.92-1.23,4.9,4.9,0,0,1-1.31-3c-.33-2.64-.36-11.21,0-22.93H12A11.74,11.74,0,0,1,.28,64.08V23.29A11.74,11.74,0,0,1,12,11.56H39.55A11.73,11.73,0,0,1,51.28,23.29V64.08A11.74,11.74,0,0,1,39.55,75.82H28.91q0,9.21.05,18.43H43v-1A11.78,11.78,0,0,1,54.79,81.43H65.22A11.78,11.78,0,0,1,77,93.22v1H91.2l0-18.43H83.3A11.74,11.74,0,0,1,71.57,64.08V23.29A11.73,11.73,0,0,1,83.3,11.56h27.53A11.74,11.74,0,0,1,122.57,23.29ZM23.05,34.13H20.69V20.45A2.52,2.52,0,0,0,20,18.57a2.54,2.54,0,0,0-1.86-.69,4.91,4.91,0,0,0-2.4.72L11.1,21.29a2,2,0,0,0-1,1.78,2.47,2.47,0,0,0,.58,1.58,1.75,1.75,0,0,0,1.39.7,2,2,0,0,0,1-.28l2.31-1.36V34.13H13a2.89,2.89,0,0,0-1.91.52,1.93,1.93,0,0,0-.6,1.55c0,1.43.83,2.14,2.51,2.14h10c1.67,0,2.51-.71,2.51-2.14a1.93,1.93,0,0,0-.6-1.55A2.89,2.89,0,0,0,23.05,34.13Zm17.31,0H38V20.45a2.52,2.52,0,0,0-.71-1.88,2.54,2.54,0,0,0-1.86-.69A4.85,4.85,0,0,0,33,18.6l-4.62,2.69a1.94,1.94,0,0,0-1,1.78A2.41,2.41,0,0,0,28,24.65a1.71,1.71,0,0,0,1.38.7,2,2,0,0,0,1-.28l2.31-1.36V34.13H30.35a2.86,2.86,0,0,0-1.9.52,1.9,1.9,0,0,0-.61,1.55c0,1.43.84,2.14,2.51,2.14h10c1.68,0,2.52-.71,2.52-2.14a1.93,1.93,0,0,0-.61-1.55A2.87,2.87,0,0,0,40.36,34.13ZM26.74,57a5.49,5.49,0,0,0-2.44.54A4.53,4.53,0,0,0,22.53,59a7.55,7.55,0,0,1,1.08-3.76A2.74,2.74,0,0,1,26,53.89a3.76,3.76,0,0,1,1.33.23,15.65,15.65,0,0,1,1.58.69l.64.32c.36.19.65.33.86.42a2.07,2.07,0,0,0,.73.13,1.53,1.53,0,0,0,1.22-.62,2.33,2.33,0,0,0,.51-1.52,2.19,2.19,0,0,0-.22-1,2.42,2.42,0,0,0-.71-.78A9.05,9.05,0,0,0,29,50.31a11,11,0,0,0-3.3-.52,7.8,7.8,0,0,0-4.49,1.3,8.33,8.33,0,0,0-3,3.71,14,14,0,0,0-1.05,5.64q0,4.91,2.22,7.56a7.74,7.74,0,0,0,6.29,2.65,7.48,7.48,0,0,0,3.66-.89,6.47,6.47,0,0,0,2.53-2.5,7.68,7.68,0,0,0,.11-7A5.8,5.8,0,0,0,26.74,57Zm-1.33,9.58a2.3,2.3,0,0,1-1.79-.76,2.84,2.84,0,0,1-.69-2,2.88,2.88,0,0,1,.68-2,2.56,2.56,0,0,1,3.61,0,2.93,2.93,0,0,1,.64,2,2.9,2.9,0,0,1-.66,2A2.27,2.27,0,0,1,25.41,66.58ZM97.14,50.42a2.92,2.92,0,0,0,1.83-.6,2.68,2.68,0,0,0,1-1.7,4.66,4.66,0,0,1,1.13-2,22.93,22.93,0,0,1,2.52-2.32c1.17-1,2.12-1.92,2.85-2.65a10.26,10.26,0,0,0,1.88-2.65,7.58,7.58,0,0,0,.77-3.4,7.36,7.36,0,0,0-1.45-4.48,9.75,9.75,0,0,0-4-3.1,14.22,14.22,0,0,0-5.8-1.12,18.9,18.9,0,0,0-5.77.92,17.91,17.91,0,0,0-5.13,2.58,4.2,4.2,0,0,0-1.22,1.35A3.68,3.68,0,0,0,85.34,33a4,4,0,0,0,.88,2.62,2.64,2.64,0,0,0,2.12,1.08,6.14,6.14,0,0,0,2.75-1l1.2-.6a19.16,19.16,0,0,1,2.53-1.23,6.42,6.42,0,0,1,2.27-.42,3.41,3.41,0,0,1,2.2.65,2.15,2.15,0,0,1,.8,1.75,3.67,3.67,0,0,1-.57,2A16.53,16.53,0,0,1,97.79,40a16.27,16.27,0,0,0-2.5,3.22,7.83,7.83,0,0,0-.9,3.93,3.57,3.57,0,0,0,.73,2.4A2.49,2.49,0,0,0,97.14,50.42Zm.1,11.95a4.7,4.7,0,0,0,3.48-1.4,5,5,0,0,0,0-6.9,4.7,4.7,0,0,0-3.48-1.4,4.59,4.59,0,0,0-3.42,1.4,5,5,0,0,0,0,6.9A4.59,4.59,0,0,0,97.24,62.37ZM68,96.12H62.5V90.64a2.49,2.49,0,0,0-.74-1.83,2.57,2.57,0,0,0-4.39,1.83v5.48H51.88a2.52,2.52,0,0,0-1.83.74,2.48,2.48,0,0,0-.73,1.83,2.57,2.57,0,0,0,.73,1.85,2.5,2.5,0,0,0,1.83.76h5.49v5.44a2.6,2.6,0,0,0,4.41,1.82,2.5,2.5,0,0,0,.72-1.82V101.3H68a2.47,2.47,0,0,0,1.83-.76,2.58,2.58,0,0,0,.74-1.85A2.53,2.53,0,0,0,68,96.12Zm-25.71-52h0a2.62,2.62,0,0,0-2.62-2.62H12.4a2.62,2.62,0,0,0-2.62,2.62h0a2.61,2.61,0,0,0,2.62,2.61H39.65A2.61,2.61,0,0,0,42.27,44.13Z"/></svg>