<svg id="Layer_1" data-name="Layer 1" xmlns="http://www.w3.org/2000/svg" viewBox="0 0 122.3 122.3"><title>l9_1_1</title><path d="M122.19,23.29V64.08a11.74,11.74,0,0,1-11.74,11.74h-11l0,22.5A4.37,4.37,0,0,1,94.8,103H76.63v.66a11.79,11.79,0,0,1-11.79,11.79H54.41a11.79,11.79,0,0,1-11.78-11.79V103H24.28a4.45,4.45,0,0,1-2.93-1.23,5,5,0,0,1-1.31-3c-.33-2.64-.36-11.21,0-22.93H11.64A11.74,11.74,0,0,1-.09,64.08V23.29A11.73,11.73,0,0,1,11.64,11.56H39.17A11.73,11.73,0,0,1,50.9,23.29V64.08A11.74,11.74,0,0,1,39.17,75.82H28.53q0,9.21,0,18.43H42.63v-1A11.79,11.79,0,0,1,54.41,81.43H64.84A11.79,11.79,0,0,1,76.63,93.22v1h14.2q0-9.21,0-18.43H82.93A11.74,11.74,0,0,1,71.19,64.08V23.29A11.74,11.74,0,0,1,82.93,11.56h27.52A11.73,11.73,0,0,1,122.19,23.29ZM22.67,34.13H20.31V20.45a2.52,2.52,0,0,0-.71-1.88,2.54,2.54,0,0,0-1.86-.69,4.91,4.91,0,0,0-2.4.72l-4.61,2.69a1.94,1.94,0,0,0-1,1.78,2.46,2.46,0,0,0,.57,1.58,1.75,1.75,0,0,0,1.39.7,2,2,0,0,0,1-.28L15,23.71V34.13H12.66a2.86,2.86,0,0,0-1.9.52,1.9,1.9,0,0,0-.61,1.55c0,1.43.84,2.14,2.51,2.14h10c1.68,0,2.51-.71,2.51-2.14a1.93,1.93,0,0,0-.6-1.55A2.89,2.89,0,0,0,22.67,34.13ZM35.6,25a5.66,5.66,0,0,0-2.44.53,4.64,4.64,0,0,0-1.77,1.46,7.52,7.52,0,0,1,1.08-3.76,2.76,2.76,0,0,1,2.38-1.35,4,4,0,0,1,1.33.23c.42.16,1,.39,1.59.7l.63.31a7.11,7.11,0,0,0,.87.42,1.81,1.81,0,0,0,.72.13A1.49,1.49,0,0,0,41.21,23a2.3,2.3,0,0,0,.51-1.51,2,2,0,0,0-.22-1,2.5,2.5,0,0,0-.7-.78,9.05,9.05,0,0,0-2.9-1.44,11.13,11.13,0,0,0-3.31-.52A7.87,7.87,0,0,0,30.1,19a8.44,8.44,0,0,0-3,3.71,14,14,0,0,0-1.05,5.64q0,4.9,2.22,7.56a7.75,7.75,0,0,0,6.29,2.66,7.42,7.42,0,0,0,3.67-.9,6.42,6.42,0,0,0,2.52-2.49,7.18,7.18,0,0,0,.91-3.62,7.37,7.37,0,0,0-.79-3.42,6,6,0,0,0-2.18-2.37A5.82,5.82,0,0,0,35.6,25Zm-1.33,9.58a2.31,2.31,0,0,1-1.79-.76,3.22,3.22,0,0,1,0-4,2.57,2.57,0,0,1,3.61,0,2.94,2.94,0,0,1,.65,2,2.85,2.85,0,0,1-.67,2A2.27,2.27,0,0,1,34.27,34.53ZM30.46,50.05H19.15a2.89,2.89,0,0,0-1.91.53,2,2,0,0,0-.6,1.6,1.93,1.93,0,0,0,.59,1.56,2.85,2.85,0,0,0,1.92.52h7.21L19,66.93a2.71,2.71,0,0,0-.41,1.38A2.11,2.11,0,0,0,19.32,70a2.62,2.62,0,0,0,1.79.68,2.52,2.52,0,0,0,1.23-.33,2.7,2.7,0,0,0,1-1l8.74-15.15a3.66,3.66,0,0,0,.55-1.91,2.22,2.22,0,0,0-.56-1.57A2.06,2.06,0,0,0,30.46,50.05Zm66.3.37a2.92,2.92,0,0,0,1.83-.6,2.63,2.63,0,0,0,1-1.7,4.76,4.76,0,0,1,1.13-2,22.93,22.93,0,0,1,2.52-2.32c1.17-1,2.12-1.92,2.85-2.65a10,10,0,0,0,1.88-2.65,7.45,7.45,0,0,0,.77-3.4,7.36,7.36,0,0,0-1.45-4.48,9.68,9.68,0,0,0-4-3.1,14.22,14.22,0,0,0-5.8-1.12,19,19,0,0,0-5.77.92,17.91,17.91,0,0,0-5.13,2.58,4.32,4.32,0,0,0-1.22,1.35A3.68,3.68,0,0,0,85,33a4,4,0,0,0,.88,2.62A2.64,2.64,0,0,0,88,36.67a6.14,6.14,0,0,0,2.75-1l1.2-.6a19.79,19.79,0,0,1,2.53-1.23,6.46,6.46,0,0,1,2.27-.42,3.39,3.39,0,0,1,2.2.65,2.12,2.12,0,0,1,.8,1.75,3.67,3.67,0,0,1-.57,2A15.72,15.72,0,0,1,97.41,40a16.66,16.66,0,0,0-2.5,3.22,7.83,7.83,0,0,0-.9,3.93,3.62,3.62,0,0,0,.73,2.4A2.5,2.5,0,0,0,96.76,50.42Zm.1,11.95a4.85,4.85,0,1,0,0-9.7,4.62,4.62,0,0,0-3.42,1.4,5,5,0,0,0,0,6.9A4.62,4.62,0,0,0,96.86,62.37ZM67.61,96.12H62.12V90.64a2.57,2.57,0,1,0-5.13,0v5.48H51.51a2.49,2.49,0,0,0-1.83.74,2.45,2.45,0,0,0-.74,1.83,2.54,2.54,0,0,0,.74,1.85,2.47,2.47,0,0,0,1.83.76H57v5.44a2.6,2.6,0,0,0,4.42,1.82,2.54,2.54,0,0,0,.71-1.82V101.3h5.49a2.46,2.46,0,0,0,1.82-.76,2.54,2.54,0,0,0,.74-1.85,2.45,2.45,0,0,0-.74-1.83A2.48,2.48,0,0,0,67.61,96.12ZM40.86,44h0a2.62,2.62,0,0,0-2.62-2.62H11A2.62,2.62,0,0,0,8.37,44h0A2.61,2.61,0,0,0,11,46.6H38.24A2.61,2.61,0,0,0,40.86,44Z"/></svg>