<svg id="Layer_1" data-name="Layer 1" xmlns="http://www.w3.org/2000/svg" viewBox="0 0 122.3 122.3"><title>l9_1_1</title><path d="M122,43.59V60.25a8.66,8.66,0,0,1-8.65,8.66H99.3q0,11.24,0,22.48a4.46,4.46,0,0,1-1.23,3.35,4.53,4.53,0,0,1-3.43,1.31H76.51V99.8a8.69,8.69,0,0,1-8.69,8.69H51.23a8.69,8.69,0,0,1-8.69-8.69V96.05H24.2a4.43,4.43,0,0,1-2.92-1.23,4.9,4.9,0,0,1-1.31-3c-.33-2.63-.36-11.2,0-22.91H8.51A8.66,8.66,0,0,1-.15,60.25V43.59a8.66,8.66,0,0,1,8.66-8.65H42.15a8.66,8.66,0,0,1,8.66,8.65V60.25a8.66,8.66,0,0,1-8.66,8.66H28.45q0,9.21.05,18.42h14V83.21a8.69,8.69,0,0,1,8.69-8.69H67.82a8.69,8.69,0,0,1,8.69,8.69v4.12H90.7q0-9.21,0-18.42h-11a8.66,8.66,0,0,1-8.65-8.66V43.59a8.65,8.65,0,0,1,8.65-8.65h33.65A8.65,8.65,0,0,1,122,43.59ZM9.63,59.72a4.92,4.92,0,0,0,4.2-1.95,9.42,9.42,0,0,0,1.45-5.65,9.31,9.31,0,0,0-1.46-5.63,4.93,4.93,0,0,0-4.19-2,4.9,4.9,0,0,0-4.2,2A9.31,9.31,0,0,0,4,52.12a9.35,9.35,0,0,0,1.45,5.65A4.9,4.9,0,0,0,9.63,59.72Zm0-2.92a1.5,1.5,0,0,1-1.45-1.09,10.3,10.3,0,0,1-.44-3.59,10.19,10.19,0,0,1,.44-3.58,1.51,1.51,0,0,1,2.9,0,10.49,10.49,0,0,1,.44,3.57,10.55,10.55,0,0,1-.44,3.59A1.51,1.51,0,0,1,9.63,56.8Zm9.15,2.86a1.93,1.93,0,0,0,1.44-.59,2,2,0,0,0,.58-1.45,2,2,0,0,0-.58-1.45,1.93,1.93,0,0,0-1.44-.59,2,2,0,0,0-1.46.59,2,2,0,0,0-.57,1.45,2,2,0,0,0,2,2Zm9.16.06a4.92,4.92,0,0,0,4.2-1.95,9.42,9.42,0,0,0,1.45-5.65,9.31,9.31,0,0,0-1.46-5.63,4.93,4.93,0,0,0-4.19-2,4.9,4.9,0,0,0-4.2,2,9.31,9.31,0,0,0-1.45,5.63,9.35,9.35,0,0,0,1.45,5.65A4.9,4.9,0,0,0,27.94,59.72Zm0-2.92a1.5,1.5,0,0,1-1.45-1.09,10.55,10.55,0,0,1-.44-3.59,10.44,10.44,0,0,1,.44-3.58,1.51,1.51,0,0,1,2.9,0,10.49,10.49,0,0,1,.44,3.57,10.55,10.55,0,0,1-.44,3.59A1.51,1.51,0,0,1,27.94,56.8ZM40,44.54a5.43,5.43,0,0,0-2.66.65A4.6,4.6,0,0,0,35.51,47a5.21,5.21,0,0,0-.66,2.63,5.31,5.31,0,0,0,.57,2.49A4.34,4.34,0,0,0,37,53.85a4.19,4.19,0,0,0,2.27.62,4,4,0,0,0,1.77-.39A3.3,3.3,0,0,0,42.34,53a5.54,5.54,0,0,1-.78,2.74,2,2,0,0,1-1.74,1,2.85,2.85,0,0,1-1-.17c-.31-.11-.69-.28-1.16-.5l-.46-.23c-.26-.14-.47-.24-.63-.31a1.42,1.42,0,0,0-.52-.09,1.14,1.14,0,0,0-.9.45,1.71,1.71,0,0,0-.36,1.1,1.62,1.62,0,0,0,.15.74,1.91,1.91,0,0,0,.52.56,6.62,6.62,0,0,0,2.11,1.05,7.9,7.9,0,0,0,2.4.38,5.69,5.69,0,0,0,3.27-.94,6.11,6.11,0,0,0,2.16-2.7A10.22,10.22,0,0,0,46.21,52a8.33,8.33,0,0,0-1.62-5.5A5.63,5.63,0,0,0,40,44.54Zm.23,7A1.65,1.65,0,0,1,38.93,51a2.13,2.13,0,0,1-.47-1.46,2.09,2.09,0,0,1,.48-1.44,1.64,1.64,0,0,1,1.3-.55,1.69,1.69,0,0,1,1.31.56,2.08,2.08,0,0,1,.5,1.43,2.05,2.05,0,0,1-.49,1.45A1.68,1.68,0,0,1,40.24,51.49Zm56,3.16a1.4,1.4,0,0,0,.87-.29,1.24,1.24,0,0,0,.47-.81,2.29,2.29,0,0,1,.54-1,11,11,0,0,1,1.21-1.11c.56-.5,1-.92,1.37-1.27a5.05,5.05,0,0,0,.9-1.28,3.73,3.73,0,0,0-.32-3.78,4.72,4.72,0,0,0-1.92-1.48,6.87,6.87,0,0,0-2.79-.54,8.86,8.86,0,0,0-2.77.44,8.62,8.62,0,0,0-2.46,1.24,2.05,2.05,0,0,0-.59.64,1.8,1.8,0,0,0-.18.84A1.92,1.92,0,0,0,91,47.53a1.26,1.26,0,0,0,1,.52,2.85,2.85,0,0,0,1.32-.46l.58-.28a7.77,7.77,0,0,1,1.21-.59,3,3,0,0,1,1.09-.21,1.63,1.63,0,0,1,1.06.32,1,1,0,0,1,.38.84,1.78,1.78,0,0,1-.27,1,8.88,8.88,0,0,1-.83,1,7.92,7.92,0,0,0-1.2,1.55,3.71,3.71,0,0,0-.43,1.88,1.72,1.72,0,0,0,.34,1.15A1.24,1.24,0,0,0,96.22,54.65Zm0,5.74a2.23,2.23,0,0,0,1.67-.68,2.25,2.25,0,0,0,.66-1.65,2.28,2.28,0,0,0-.66-1.66,2.38,2.38,0,0,0-3.31,0A2.28,2.28,0,0,0,94,58.06a2.25,2.25,0,0,0,.66,1.65A2.21,2.21,0,0,0,96.26,60.39ZM67.53,89.54H62.08V84.09a2.57,2.57,0,0,0-4.37-1.82A2.44,2.44,0,0,0,57,84.09v5.45H51.51A2.51,2.51,0,0,0,49,92.1a2.55,2.55,0,0,0,.73,1.84,2.46,2.46,0,0,0,1.82.76H57v5.41a2.59,2.59,0,0,0,4.39,1.82,2.5,2.5,0,0,0,.72-1.82V94.7h5.45a2.44,2.44,0,0,0,1.82-.76,2.56,2.56,0,0,0,.74-1.84,2.53,2.53,0,0,0-2.56-2.56Z"/></svg>