<svg id="Layer_1" data-name="Layer 1" xmlns="http://www.w3.org/2000/svg" viewBox="0 0 122.3 122.3"><title>l9_1_1</title><path d="M122.09,42.82V59.49a8.65,8.65,0,0,1-8.65,8.65H99.36l0,22.48A4.53,4.53,0,0,1,98.15,94a4.48,4.48,0,0,1-3.42,1.31H76.57V99a8.69,8.69,0,0,1-8.69,8.69H51.29A8.69,8.69,0,0,1,42.6,99V95.28H24.26a4.43,4.43,0,0,1-2.92-1.23,5,5,0,0,1-1.31-3c-.33-2.63-.36-11.2,0-22.91H8.57A8.65,8.65,0,0,1-.08,59.49V42.82a8.65,8.65,0,0,1,8.65-8.65H42.22a8.65,8.65,0,0,1,8.65,8.65V59.49a8.66,8.66,0,0,1-8.65,8.65H28.52q0,9.21,0,18.42h14V82.44a8.69,8.69,0,0,1,8.69-8.69H67.88a8.69,8.69,0,0,1,8.69,8.69v4.12H90.76q0-9.21,0-18.42h-11a8.66,8.66,0,0,1-8.65-8.65V42.82a8.65,8.65,0,0,1,8.65-8.65h33.65A8.65,8.65,0,0,1,122.09,42.82ZM13.81,61A6.09,6.09,0,0,0,19,58.58c1.2-1.61,1.79-3.94,1.79-7s-.6-5.36-1.8-7a6.11,6.11,0,0,0-5.19-2.42,6.09,6.09,0,0,0-5.2,2.42c-1.2,1.61-1.79,3.93-1.79,7s.59,5.38,1.79,7A6.09,6.09,0,0,0,13.81,61Zm0-3.61A1.87,1.87,0,0,1,12,56a12.74,12.74,0,0,1-.55-4.44A12.7,12.7,0,0,1,12,47.15a1.87,1.87,0,0,1,3.58,0,12.65,12.65,0,0,1,.55,4.42A12.74,12.74,0,0,1,15.6,56,1.87,1.87,0,0,1,13.81,57.39Zm11.34,3.53a2.38,2.38,0,0,0,1.78-.73,2.61,2.61,0,0,0,0-3.58,2.57,2.57,0,0,0-3.59,0,2.59,2.59,0,0,0,0,3.58A2.4,2.4,0,0,0,25.15,60.92Zm12.6-12.14a6.55,6.55,0,0,0-2.57.47v-3.2H40.8c1.5,0,2.26-.61,2.26-1.82s-.76-1.79-2.26-1.79H32.74a2,2,0,0,0-2.21,2.23v7A1.42,1.42,0,0,0,31,52.85a1.83,1.83,0,0,0,1.22.43A2.47,2.47,0,0,0,33.41,53a10,10,0,0,1,1.5-.47,7.52,7.52,0,0,1,1.41-.13,3,3,0,0,1,2,.65,2.31,2.31,0,0,1,.73,1.82,2.25,2.25,0,0,1-.7,1.84,3.34,3.34,0,0,1-2.16.58,4.44,4.44,0,0,1-1.44-.23q-.66-.24-1.47-.63l-.52-.26q-.52-.28-.78-.39a1.78,1.78,0,0,0-.65-.1,1.35,1.35,0,0,0-1.09.56,2.1,2.1,0,0,0-.45,1.36,1.93,1.93,0,0,0,.2.9,2.34,2.34,0,0,0,.61.72,8.86,8.86,0,0,0,2.67,1.3,10.87,10.87,0,0,0,3.15.46,8.41,8.41,0,0,0,3.72-.78A5.79,5.79,0,0,0,42.67,58a6.12,6.12,0,0,0,.88-3.3,6.19,6.19,0,0,0-.74-3.08,5.26,5.26,0,0,0-2.05-2.08A6.08,6.08,0,0,0,37.75,48.78Zm58.53,6.1a1.33,1.33,0,0,0,.87-.29,1.24,1.24,0,0,0,.47-.81,2.2,2.2,0,0,1,.54-1,10.88,10.88,0,0,1,1.21-1.12c.56-.5,1-.92,1.37-1.27a5,5,0,0,0,.9-1.27,3.59,3.59,0,0,0,.37-1.64,3.53,3.53,0,0,0-.69-2.14,4.66,4.66,0,0,0-1.92-1.49,6.87,6.87,0,0,0-2.79-.54,9.21,9.21,0,0,0-2.77.44A8.62,8.62,0,0,0,91.38,45a2.08,2.08,0,0,0-.59.65,1.74,1.74,0,0,0-.18.84A2,2,0,0,0,91,47.77a1.28,1.28,0,0,0,1,.51,2.93,2.93,0,0,0,1.32-.45l.58-.29A8.79,8.79,0,0,1,95.16,47a3.22,3.22,0,0,1,1.09-.2,1.63,1.63,0,0,1,1.06.31,1,1,0,0,1,.38.84,1.78,1.78,0,0,1-.27,1,8.11,8.11,0,0,1-.83,1,7.92,7.92,0,0,0-1.2,1.55A3.71,3.71,0,0,0,95,53.32a1.67,1.67,0,0,0,.35,1.15A1.17,1.17,0,0,0,96.28,54.88Zm0,5.74A2.25,2.25,0,0,0,98,60a2.42,2.42,0,0,0,0-3.32,2.38,2.38,0,0,0-3.31,0,2.42,2.42,0,0,0,0,3.32A2.25,2.25,0,0,0,96.33,60.62ZM67.6,88.78H62.14V83.32a2.57,2.57,0,0,0-4.37-1.82A2.48,2.48,0,0,0,57,83.32v5.46H51.58A2.51,2.51,0,0,0,49,91.33a2.54,2.54,0,0,0,.74,1.84,2.41,2.41,0,0,0,1.82.76H57v5.41a2.59,2.59,0,0,0,4.4,1.82,2.54,2.54,0,0,0,.71-1.82V93.93H67.6a2.44,2.44,0,0,0,1.82-.76,2.53,2.53,0,0,0,.73-1.84,2.49,2.49,0,0,0-2.55-2.55Z"/></svg>