<svg id="Layer_1" data-name="Layer 1" xmlns="http://www.w3.org/2000/svg" viewBox="0 0 122.3 122.3"><title>l9_2_1</title><path d="M122.12,17.27v40.8a11.74,11.74,0,0,1-11.74,11.74h-11l0,22.5A4.37,4.37,0,0,1,94.73,97H75.16L66,115.43c-.3.53-2.19,3.71-5.31,3.8-3.28.1-5.3-3.3-5.59-3.8L45.23,97h-21a4.46,4.46,0,0,1-2.93-1.23,4.91,4.91,0,0,1-1.3-3c-.33-2.63-.36-11.21,0-22.93H11.55A11.74,11.74,0,0,1-.18,58.07V17.27A11.73,11.73,0,0,1,11.55,5.54H39.09A11.73,11.73,0,0,1,50.82,17.27v40.8A11.74,11.74,0,0,1,39.09,69.81H28.45q0,9.21.05,18.44h12Q39.25,85.87,38,83.48c-.8-1.5-1.65-4.37-.34-6.5a6,6,0,0,1,4-2.37l35.62.06a5.8,5.8,0,0,1,4.24,1.78,6,6,0,0,1,.37,7c-.78,1.59-1.57,3.17-2.35,4.76H90.75q0-9.23,0-18.44H82.85A11.74,11.74,0,0,1,71.12,58.07V17.27A11.73,11.73,0,0,1,82.85,5.54h27.53A11.73,11.73,0,0,1,122.12,17.27ZM95.83,45a2.87,2.87,0,0,0,1.82-.6,2.69,2.69,0,0,0,1-1.7,4.63,4.63,0,0,1,1.12-2,24.17,24.17,0,0,1,2.53-2.32c1.16-1,2.11-1.92,2.85-2.65A10,10,0,0,0,107,33.05a7.71,7.71,0,0,0-.67-7.88,9.75,9.75,0,0,0-4-3.1A14.26,14.26,0,0,0,96.53,21a19,19,0,0,0-5.78.92,18,18,0,0,0-5.12,2.58A4.25,4.25,0,0,0,84.4,25.8,3.66,3.66,0,0,0,84,27.55a4,4,0,0,0,.87,2.62A2.66,2.66,0,0,0,87,31.25a6.17,6.17,0,0,0,2.75-.95l1.2-.6a17.92,17.92,0,0,1,2.52-1.23,6.47,6.47,0,0,1,2.28-.42,3.37,3.37,0,0,1,2.2.65,2.15,2.15,0,0,1,.8,1.75,3.6,3.6,0,0,1-.58,2,17,17,0,0,1-1.72,2.15A16.27,16.27,0,0,0,94,37.82a7.83,7.83,0,0,0-.9,3.93,3.62,3.62,0,0,0,.72,2.4A2.52,2.52,0,0,0,95.83,45Zm.1,12a4.66,4.66,0,0,0,3.47-1.4,5,5,0,0,0,0-6.9,5,5,0,0,0-6.9,0,5,5,0,0,0,0,6.9A4.63,4.63,0,0,0,95.93,57ZM56.25,96.13h8.18a3.93,3.93,0,0,0,2.72-.8,2.86,2.86,0,0,0,.9-2.24,2.78,2.78,0,0,0-.9-2.22,4,4,0,0,0-2.72-.79H56.25q-3.61,0-3.61,3T56.25,96.13Zm-34.42-68H16l4.1-4.18a13.52,13.52,0,0,0,2.41-3.25,7.28,7.28,0,0,0,.71-3.22,5.25,5.25,0,0,0-.88-3,5.61,5.61,0,0,0-2.5-2,9.16,9.16,0,0,0-3.75-.71,11.11,11.11,0,0,0-3.33.52,11.28,11.28,0,0,0-3,1.44,1.89,1.89,0,0,0-.7.75,2.42,2.42,0,0,0-.19,1A2.45,2.45,0,0,0,9.33,17a1.46,1.46,0,0,0,1.21.65,1.67,1.67,0,0,0,.55-.08,3.38,3.38,0,0,0,.59-.28l.45-.24.57-.29a14.54,14.54,0,0,1,1.64-.71,4.74,4.74,0,0,1,1.54-.24,2.25,2.25,0,0,1,1.6.52,1.9,1.9,0,0,1,.56,1.5,5.61,5.61,0,0,1-1.9,3.66L10,27.88a3.16,3.16,0,0,0-1,2.25,2.12,2.12,0,0,0,.61,1.57,2.16,2.16,0,0,0,1.64.63H21.83a2.91,2.91,0,0,0,1.88-.52,2,2,0,0,0,.63-1.62,1.88,1.88,0,0,0-.63-1.57A2.91,2.91,0,0,0,21.83,28.11Zm13.7-9.18a5.52,5.52,0,0,0-2.44.54,4.47,4.47,0,0,0-1.77,1.46,7.77,7.77,0,0,1,1.08-3.77,2.75,2.75,0,0,1,2.38-1.34,3.72,3.72,0,0,1,1.33.23,16.71,16.71,0,0,1,1.59.69l.63.32q.56.29.87.42a2,2,0,0,0,.72.13A1.55,1.55,0,0,0,41.15,17a2.38,2.38,0,0,0,.5-1.52,2.19,2.19,0,0,0-.21-1,2.54,2.54,0,0,0-.71-.78,9.26,9.26,0,0,0-2.9-1.44,11.13,11.13,0,0,0-3.31-.52A7.77,7.77,0,0,0,30,13a8.42,8.42,0,0,0-3,3.71,14,14,0,0,0-1,5.64q0,4.9,2.22,7.56a7.74,7.74,0,0,0,6.29,2.65,7.41,7.41,0,0,0,3.67-.89,6.38,6.38,0,0,0,2.52-2.5,7.13,7.13,0,0,0,.91-3.62,7.25,7.25,0,0,0-.79-3.42,6,6,0,0,0-2.18-2.37A5.89,5.89,0,0,0,35.53,18.93Zm-1.32,9.59a2.29,2.29,0,0,1-1.79-.77,2.8,2.8,0,0,1-.7-2,2.88,2.88,0,0,1,.68-2A2.32,2.32,0,0,1,34.21,23a2.27,2.27,0,0,1,1.8.74,2.93,2.93,0,0,1,.65,2,2.85,2.85,0,0,1-.67,2A2.22,2.22,0,0,1,34.21,28.52ZM22,61.17H19.64V47.49a2.41,2.41,0,0,0-2.57-2.57,4.85,4.85,0,0,0-2.39.72l-4.62,2.69a1.94,1.94,0,0,0-1,1.79,2.45,2.45,0,0,0,.57,1.57A1.76,1.76,0,0,0,11,52.4a2,2,0,0,0,1-.29l2.31-1.36V61.17H12a2.86,2.86,0,0,0-1.9.52,1.92,1.92,0,0,0-.61,1.56c0,1.42.84,2.13,2.51,2.13H22c1.67,0,2.51-.71,2.51-2.13a1.92,1.92,0,0,0-.61-1.56A2.86,2.86,0,0,0,22,61.17Zm12.61-9.09a7.16,7.16,0,0,0-2.86.52V49.05H38c1.68,0,2.52-.68,2.52-2s-.84-2-2.52-2H29.05a2.47,2.47,0,0,0-1.82.63,2.52,2.52,0,0,0-.64,1.85v7.82a1.61,1.61,0,0,0,.55,1.26,2,2,0,0,0,1.36.47,2.69,2.69,0,0,0,1.3-.32,10.52,10.52,0,0,1,1.66-.52A8.33,8.33,0,0,1,33,56.09a3.27,3.27,0,0,1,2.25.72,2.57,2.57,0,0,1,.81,2,2.51,2.51,0,0,1-.78,2,3.72,3.72,0,0,1-2.4.65,4.88,4.88,0,0,1-1.6-.26c-.49-.18-1-.41-1.63-.7l-.57-.29c-.39-.21-.68-.35-.87-.43a2.1,2.1,0,0,0-.72-.11,1.46,1.46,0,0,0-1.21.62,2.34,2.34,0,0,0-.49,1.51,2.2,2.2,0,0,0,.21,1,2.59,2.59,0,0,0,.68.79,9.28,9.28,0,0,0,3,1.44,11.87,11.87,0,0,0,3.5.52,9.33,9.33,0,0,0,4.13-.86,6.55,6.55,0,0,0,2.77-2.45,6.81,6.81,0,0,0,1-3.67,6.92,6.92,0,0,0-.82-3.42A5.89,5.89,0,0,0,38,52.9,6.63,6.63,0,0,0,34.62,52.08ZM40.79,38.9h0a2.62,2.62,0,0,0-2.62-2.62H10.92A2.62,2.62,0,0,0,8.3,38.9h0a2.61,2.61,0,0,0,2.62,2.61H38.17A2.61,2.61,0,0,0,40.79,38.9Z"/></svg>