<svg id="Layer_1" data-name="Layer 1" xmlns="http://www.w3.org/2000/svg" viewBox="0 0 122.3 122.3"><title>l9_2_1</title><path d="M122.19,42.35V59a8.66,8.66,0,0,1-8.65,8.66H99.45l0,22.48a4.37,4.37,0,0,1-4.66,4.66H76.66v3.75A8.69,8.69,0,0,1,68,107.25H51.39a8.7,8.7,0,0,1-8.7-8.69V94.81H24.36a4.45,4.45,0,0,1-2.93-1.23,4.94,4.94,0,0,1-1.3-3c-.33-2.63-.36-11.2,0-22.91H8.66A8.66,8.66,0,0,1,0,59V42.35A8.65,8.65,0,0,1,8.66,33.7H42.31A8.65,8.65,0,0,1,51,42.35V59a8.66,8.66,0,0,1-8.65,8.66H28.61q0,9.21.05,18.42h14V82a8.7,8.7,0,0,1,8.7-8.69H68A8.69,8.69,0,0,1,76.66,82v4.12H90.85q0-9.21,0-18.42h-11A8.66,8.66,0,0,1,71.24,59V42.35a8.65,8.65,0,0,1,8.65-8.65h33.65A8.65,8.65,0,0,1,122.19,42.35ZM11.78,50.76a2.79,2.79,0,0,0,1.41-1.06,3.17,3.17,0,0,0,.51-1.8,3,3,0,0,0-1.25-2.53A5.59,5.59,0,0,0,9,44.44a5.6,5.6,0,0,0-3.4.93A3,3,0,0,0,4.38,47.9a3,3,0,0,0,.5,1.75,3,3,0,0,0,1.44,1.11,3,3,0,0,0-1.69,1.07,3.14,3.14,0,0,0-.59,2,3.08,3.08,0,0,0,1.34,2.67,6.09,6.09,0,0,0,3.66,1,6.09,6.09,0,0,0,3.66-1A3.08,3.08,0,0,0,14,53.8a3.12,3.12,0,0,0-.58-1.93A3.05,3.05,0,0,0,11.78,50.76ZM9,54.93c-1.31,0-2-.46-2-1.4s.65-1.4,2-1.4,2,.46,2,1.4S10.35,54.93,9,54.93Zm0-8a1.89,1.89,0,0,1,1.2.32,1.2,1.2,0,0,1,.4,1,1.24,1.24,0,0,1-.4,1,1.83,1.83,0,0,1-1.2.32,1.88,1.88,0,0,1-1.21-.32,1.27,1.27,0,0,1-.39-1,1.23,1.23,0,0,1,.39-1A1.94,1.94,0,0,1,9,46.94Zm11.88,2a3.49,3.49,0,0,0-1.52.33,3,3,0,0,0-1.11.91A4.75,4.75,0,0,1,19,47.83,1.72,1.72,0,0,1,20.45,47a2.34,2.34,0,0,1,.83.14c.26.1.59.24,1,.43l.39.2a6,6,0,0,0,.54.26,1.12,1.12,0,0,0,.45.08,1,1,0,0,0,.77-.38,1.47,1.47,0,0,0,.31-.95,1.34,1.34,0,0,0-.13-.63,1.64,1.64,0,0,0-.44-.49,6,6,0,0,0-1.81-.9,7.17,7.17,0,0,0-2.06-.32,4.88,4.88,0,0,0-2.8.81,5.17,5.17,0,0,0-1.85,2.31A8.74,8.74,0,0,0,15,51.08a7.2,7.2,0,0,0,1.38,4.72,4.86,4.86,0,0,0,3.93,1.65,4.7,4.7,0,0,0,2.29-.55,4.06,4.06,0,0,0,1.57-1.56A4.78,4.78,0,0,0,24.22,51a3.74,3.74,0,0,0-1.36-1.48A3.64,3.64,0,0,0,20.92,48.94Zm-.83,6A1.44,1.44,0,0,1,19,54.44a1.81,1.81,0,0,1-.43-1.23A1.78,1.78,0,0,1,19,52a1.61,1.61,0,0,1,2.25,0,1.81,1.81,0,0,1,.4,1.25,1.84,1.84,0,0,1-.41,1.24A1.43,1.43,0,0,1,20.09,54.92ZM34,51.05H31.7V48.78a1,1,0,0,0-1.06-1.06,1,1,0,0,0-1.06,1.06v2.27H27.31a1.08,1.08,0,0,0-.76,1.82,1,1,0,0,0,.76.32h2.27v2.25a1,1,0,0,0,1.06,1.06,1,1,0,0,0,.76-.31,1,1,0,0,0,.3-.75V53.19H34a1,1,0,0,0,.75-.32A1.06,1.06,0,0,0,34,51.05Zm7-6.61A4.68,4.68,0,0,0,38.7,45a4,4,0,0,0-1.57,1.56,4.43,4.43,0,0,0-.57,2.25,4.53,4.53,0,0,0,.5,2.14,3.69,3.69,0,0,0,1.35,1.47,3.61,3.61,0,0,0,2,.53,3.49,3.49,0,0,0,1.52-.33A2.84,2.84,0,0,0,43,51.71a4.85,4.85,0,0,1-.68,2.35,1.72,1.72,0,0,1-1.48.84,2.31,2.31,0,0,1-.83-.15,8.76,8.76,0,0,1-1-.43l-.4-.2-.54-.26a1.25,1.25,0,0,0-.45-.08.94.94,0,0,0-.76.39,1.45,1.45,0,0,0-.32.94,1.28,1.28,0,0,0,.14.63,1.51,1.51,0,0,0,.44.49,5.9,5.9,0,0,0,1.81.9,6.84,6.84,0,0,0,2.06.32,4.88,4.88,0,0,0,2.8-.81,5.24,5.24,0,0,0,1.85-2.31,8.67,8.67,0,0,0,.66-3.52,7.1,7.1,0,0,0-1.39-4.71A4.81,4.81,0,0,0,41,44.44Zm.2,6a1.42,1.42,0,0,1-1.13-.46,1.82,1.82,0,0,1-.4-1.25,1.77,1.77,0,0,1,.41-1.24A1.4,1.4,0,0,1,41.19,47a1.43,1.43,0,0,1,1.11.48,1.72,1.72,0,0,1,.43,1.23,1.79,1.79,0,0,1-.42,1.24A1.45,1.45,0,0,1,41.19,50.4Zm47.5-8.53a6.18,6.18,0,0,0-3,.74,5.45,5.45,0,0,0-2.1,2.08,6.43,6.43,0,0,0-.09,5.85,4.93,4.93,0,0,0,1.81,2,4.87,4.87,0,0,0,2.59.71,4.58,4.58,0,0,0,2-.45,3.77,3.77,0,0,0,1.48-1.21,6.42,6.42,0,0,1-.9,3.13,2.3,2.3,0,0,1-2,1.12,3.16,3.16,0,0,1-1.11-.19c-.35-.13-.79-.32-1.32-.58l-.53-.26a7.36,7.36,0,0,0-.72-.35,1.57,1.57,0,0,0-.6-.11,1.26,1.26,0,0,0-1,.52,1.92,1.92,0,0,0-.42,1.26,1.8,1.8,0,0,0,.18.84,2.19,2.19,0,0,0,.59.65,7.77,7.77,0,0,0,2.41,1.2,9.65,9.65,0,0,0,2.75.43,6.47,6.47,0,0,0,3.73-1.08,7,7,0,0,0,2.48-3.09,11.68,11.68,0,0,0,.87-4.69,9.52,9.52,0,0,0-1.85-6.29A6.43,6.43,0,0,0,88.69,41.87ZM89,49.81a1.89,1.89,0,0,1-1.5-.61,2.45,2.45,0,0,1-.54-1.67,2.41,2.41,0,0,1,.55-1.66,2.07,2.07,0,0,1,3,0A2.32,2.32,0,0,1,91,47.53a2.42,2.42,0,0,1-.56,1.66A2,2,0,0,1,89,49.81Zm15.91-1.87a6,6,0,0,0-2.38.43V45.42h5.19c1.39,0,2.08-.56,2.08-1.68s-.69-1.66-2.08-1.66h-7.44a1.84,1.84,0,0,0-2,2.07v6.5a1.31,1.31,0,0,0,.45,1,1.65,1.65,0,0,0,1.13.4,2.39,2.39,0,0,0,1.08-.26,8.55,8.55,0,0,1,1.38-.44,6.57,6.57,0,0,1,1.31-.12,2.71,2.71,0,0,1,1.87.6,2.13,2.13,0,0,1,.67,1.68,2.07,2.07,0,0,1-.65,1.7,3.05,3.05,0,0,1-2,.54,4.08,4.08,0,0,1-1.33-.22,12.82,12.82,0,0,1-1.36-.58l-.48-.24-.72-.36a1.72,1.72,0,0,0-.6-.09,1.23,1.23,0,0,0-1,.51,2,2,0,0,0-.41,1.26,1.78,1.78,0,0,0,.18.83,2.24,2.24,0,0,0,.56.66,8.06,8.06,0,0,0,2.46,1.2,10,10,0,0,0,2.92.43,7.79,7.79,0,0,0,3.43-.72,5.38,5.38,0,0,0,2.3-2,5.6,5.6,0,0,0,.82-3,5.86,5.86,0,0,0-.68-2.85,4.94,4.94,0,0,0-1.9-1.92A5.6,5.6,0,0,0,104.87,47.94ZM55.61,94.71h8.14a3.94,3.94,0,0,0,2.71-.8,2.85,2.85,0,0,0,.88-2.23,2.79,2.79,0,0,0-.88-2.21,4,4,0,0,0-2.71-.78H55.61c-2.4,0-3.59,1-3.59,3S53.21,94.71,55.61,94.71Z"/></svg>