<svg id="Layer_1" data-name="Layer 1" xmlns="http://www.w3.org/2000/svg" viewBox="0 0 122.3 122.3"><title>l9_2_1</title><path d="M122.31,42.5V59.17a8.65,8.65,0,0,1-8.65,8.65H99.58q0,11.24,0,22.48A4.37,4.37,0,0,1,94.94,95H76.79v3.75a8.69,8.69,0,0,1-8.69,8.69H51.51a8.69,8.69,0,0,1-8.69-8.69V95H24.48a4.37,4.37,0,0,1-2.92-1.23,5,5,0,0,1-1.31-3c-.33-2.63-.36-11.2,0-22.91H8.79A8.66,8.66,0,0,1,.13,59.17V42.5a8.66,8.66,0,0,1,8.66-8.65H42.43a8.66,8.66,0,0,1,8.66,8.65V59.17a8.66,8.66,0,0,1-8.66,8.65H28.73q0,9.21.05,18.42h14V82.12a8.69,8.69,0,0,1,8.69-8.69H68.1a8.69,8.69,0,0,1,8.69,8.69v4.12H91Q91,77,91,67.82H80a8.65,8.65,0,0,1-8.65-8.65V42.5A8.65,8.65,0,0,1,80,33.85h33.65A8.65,8.65,0,0,1,122.31,42.5ZM11.9,50.91a2.69,2.69,0,0,0,1.41-1.06,3.13,3.13,0,0,0,.52-1.8,3,3,0,0,0-1.26-2.53,5.59,5.59,0,0,0-3.41-.93,5.62,5.62,0,0,0-3.4.93A3,3,0,0,0,4.5,48.05,3.06,3.06,0,0,0,5,49.81a2.94,2.94,0,0,0,1.44,1.1A3,3,0,0,0,4.75,52a3.22,3.22,0,0,0-.59,2A3.13,3.13,0,0,0,5.5,56.63a6.18,6.18,0,0,0,3.66,1,6.22,6.22,0,0,0,3.67-1A3.39,3.39,0,0,0,13.58,52,3.16,3.16,0,0,0,11.9,50.91ZM9.16,55.09c-1.3,0-2-.47-2-1.41s.66-1.4,2-1.4,2,.47,2,1.4S10.47,55.09,9.16,55.09Zm0-8a1.93,1.93,0,0,1,1.21.31,1.5,1.5,0,0,1,0,2,1.86,1.86,0,0,1-1.21.33A1.83,1.83,0,0,1,8,49.45a1.5,1.5,0,0,1,0-2A1.89,1.89,0,0,1,9.16,47.1Zm11.88,2a3.49,3.49,0,0,0-1.52.34,2.74,2.74,0,0,0-1.1.91A4.75,4.75,0,0,1,19.09,48a1.72,1.72,0,0,1,1.49-.84,2.52,2.52,0,0,1,.82.14,9.08,9.08,0,0,1,1,.44l.4.19.54.27a1.25,1.25,0,0,0,.45.08.94.94,0,0,0,.76-.39,1.45,1.45,0,0,0,.32-1,1.33,1.33,0,0,0-.14-.63,1.49,1.49,0,0,0-.44-.48,5.39,5.39,0,0,0-1.81-.9,6.82,6.82,0,0,0-2.06-.33,4.9,4.9,0,0,0-2.8.81,5.34,5.34,0,0,0-1.85,2.32,8.67,8.67,0,0,0-.66,3.52A7.15,7.15,0,0,0,16.49,56a4.81,4.81,0,0,0,3.92,1.66,4.65,4.65,0,0,0,2.29-.56,3.93,3.93,0,0,0,1.57-1.56,4.46,4.46,0,0,0,.57-2.26,4.52,4.52,0,0,0-.49-2.13A3.72,3.72,0,0,0,23,49.63,3.62,3.62,0,0,0,21,49.09Zm-.82,6a1.44,1.44,0,0,1-1.12-.48,1.74,1.74,0,0,1-.43-1.23,1.77,1.77,0,0,1,.42-1.24,1.46,1.46,0,0,1,1.13-.47,1.4,1.4,0,0,1,1.12.46,1.83,1.83,0,0,1,.41,1.25,1.77,1.77,0,0,1-.42,1.24A1.41,1.41,0,0,1,20.22,55.07ZM34.09,51.2H31.83V48.93a1.06,1.06,0,0,0-1.07-1.06,1.06,1.06,0,0,0-1.06,1.06V51.2H27.43a1.06,1.06,0,0,0-1.06,1.06,1,1,0,0,0,.31.77,1,1,0,0,0,.75.31H29.7v2.25a1.08,1.08,0,0,0,1.83.76,1.06,1.06,0,0,0,.3-.76V53.34h2.26a1,1,0,0,0,.76-.31,1.09,1.09,0,0,0,.31-.77,1.06,1.06,0,0,0-1.07-1.06Zm7-6.61a4.64,4.64,0,0,0-2.28.56,4,4,0,0,0-1.58,1.56,4.78,4.78,0,0,0-.07,4.39,3.74,3.74,0,0,0,1.36,1.48,3.67,3.67,0,0,0,1.94.53A3.49,3.49,0,0,0,42,52.78a3,3,0,0,0,1.11-.91,4.89,4.89,0,0,1-.67,2.35,1.75,1.75,0,0,1-1.49.83,2.58,2.58,0,0,1-.83-.14c-.26-.1-.59-.24-1-.43l-.39-.2A6,6,0,0,0,38.2,54a1.12,1.12,0,0,0-.45-.08,1,1,0,0,0-.77.38,1.47,1.47,0,0,0-.31,1,1.34,1.34,0,0,0,.13.63,1.5,1.5,0,0,0,.44.48,5.58,5.58,0,0,0,1.81.9,6.86,6.86,0,0,0,2.06.33,4.88,4.88,0,0,0,2.8-.81,5.25,5.25,0,0,0,1.86-2.31A8.91,8.91,0,0,0,46.42,51,7.18,7.18,0,0,0,45,46.25,4.86,4.86,0,0,0,41.11,44.59Zm.2,6a1.4,1.4,0,0,1-1.12-.46,1.81,1.81,0,0,1-.41-1.25,1.79,1.79,0,0,1,.42-1.24,1.4,1.4,0,0,1,1.11-.47,1.44,1.44,0,0,1,1.12.48,1.81,1.81,0,0,1,.43,1.23,1.77,1.77,0,0,1-.42,1.24A1.44,1.44,0,0,1,41.31,50.55ZM88.82,42a6.23,6.23,0,0,0-3,.74,5.32,5.32,0,0,0-2.1,2.08,5.93,5.93,0,0,0-.76,3,6,6,0,0,0,.66,2.85,5,5,0,0,0,1.81,2,4.81,4.81,0,0,0,2.6.71,4.67,4.67,0,0,0,2-.44,3.86,3.86,0,0,0,1.48-1.21,6.49,6.49,0,0,1-.9,3.13,2.29,2.29,0,0,1-2,1.11,3.14,3.14,0,0,1-1.1-.19q-.54-.2-1.32-.57l-.53-.27-.72-.35a1.64,1.64,0,0,0-.6-.1,1.28,1.28,0,0,0-1,.51,2,2,0,0,0-.42,1.26,1.74,1.74,0,0,0,.18.84,2,2,0,0,0,.59.65,7.66,7.66,0,0,0,2.41,1.2,9.21,9.21,0,0,0,2.75.43,6.51,6.51,0,0,0,3.73-1.08A7,7,0,0,0,95,55.21a11.71,11.71,0,0,0,.88-4.69,9.55,9.55,0,0,0-1.85-6.29A6.45,6.45,0,0,0,88.82,42ZM89.08,50a1.89,1.89,0,0,1-1.5-.61A2.43,2.43,0,0,1,87,47.68,2.38,2.38,0,0,1,87.59,46a1.89,1.89,0,0,1,1.49-.63,1.94,1.94,0,0,1,1.49.64,2.69,2.69,0,0,1,0,3.3A1.92,1.92,0,0,1,89.08,50ZM105,48.09a6.11,6.11,0,0,0-2.37.43v-3h5.18c1.39,0,2.09-.56,2.09-1.68s-.7-1.65-2.09-1.65h-7.44a2,2,0,0,0-1.51.52,2.12,2.12,0,0,0-.53,1.54v6.5a1.31,1.31,0,0,0,.46,1.05,1.66,1.66,0,0,0,1.12.39A2.21,2.21,0,0,0,101,52a8.39,8.39,0,0,1,1.38-.43,6.64,6.64,0,0,1,1.31-.12,2.69,2.69,0,0,1,1.87.6,2.13,2.13,0,0,1,.68,1.68,2.08,2.08,0,0,1-.65,1.69,3.07,3.07,0,0,1-2,.54,3.88,3.88,0,0,1-1.34-.22,12.49,12.49,0,0,1-1.35-.57l-.48-.24a5.84,5.84,0,0,0-.72-.36,1.51,1.51,0,0,0-.6-.1,1.23,1.23,0,0,0-1,.52,2,2,0,0,0-.41,1.26,1.81,1.81,0,0,0,.18.83,2.14,2.14,0,0,0,.57.66,7.84,7.84,0,0,0,2.46,1.2,10.25,10.25,0,0,0,2.91.43,7.76,7.76,0,0,0,3.43-.72,5.41,5.41,0,0,0,2.31-2,6.21,6.21,0,0,0,.13-5.89,4.81,4.81,0,0,0-1.9-1.92A5.47,5.47,0,0,0,105,48.09ZM55.73,94.87h8.14a4,4,0,0,0,2.71-.8,2.87,2.87,0,0,0,.89-2.23,2.78,2.78,0,0,0-.89-2.21,4,4,0,0,0-2.71-.78H55.73c-2.39,0-3.59,1-3.59,3S53.34,94.87,55.73,94.87Z"/></svg>