<svg id="Layer_1" data-name="Layer 1" xmlns="http://www.w3.org/2000/svg" viewBox="0 0 122.3 122.3"><title>l9_2_1</title><path d="M122.2,44.8V55.34a11.74,11.74,0,0,1-11.74,11.74h-11l0,22.52a4.39,4.39,0,0,1-4.67,4.66H75l-8.11,16.42c-.3.53-2.18,3.69-5.28,3.78-3.27.09-5.27-3.28-5.56-3.78L47.23,94.26h-23A4.45,4.45,0,0,1,21.3,93,4.91,4.91,0,0,1,20,90c-.33-2.63-.36-11.21,0-22.94H11.58A11.74,11.74,0,0,1-.16,55.34V44.8A11.74,11.74,0,0,1,11.58,33.06H39.13A11.74,11.74,0,0,1,50.87,44.8V55.34A11.74,11.74,0,0,1,39.13,67.08H28.48q0,9.23.05,18.45h14L39,78.9a8.49,8.49,0,0,1-.34-6.45,3.9,3.9,0,0,1,2.17-2.36l38.87.06A4.18,4.18,0,0,1,82.47,73a9.68,9.68,0,0,1,.12,6l-3.27,6.61h11.5q0-9.23,0-18.45H82.91A11.74,11.74,0,0,1,71.17,55.34V44.8A11.74,11.74,0,0,1,82.91,33.06h27.55A11.74,11.74,0,0,1,122.2,44.8Zm-65.71,47h8.18A3.93,3.93,0,0,0,67.39,91a2.84,2.84,0,0,0,.9-2.24,2.81,2.81,0,0,0-.9-2.22,4,4,0,0,0-2.72-.78H56.49c-2.4,0-3.61,1-3.61,3S54.09,91.8,56.49,91.8ZM14.61,46.4a3.26,3.26,0,0,0,2.8-1.3,6.21,6.21,0,0,0,1-3.77,6.18,6.18,0,0,0-1-3.75,3.26,3.26,0,0,0-2.79-1.3,3.28,3.28,0,0,0-2.8,1.3,6.26,6.26,0,0,0-1,3.75,6.28,6.28,0,0,0,1,3.77A3.28,3.28,0,0,0,14.61,46.4Zm0-1.94a1,1,0,0,1-1-.73,6.9,6.9,0,0,1-.3-2.4,6.73,6.73,0,0,1,.3-2.38,1,1,0,0,1,1-.72,1,1,0,0,1,1,.72,7.11,7.11,0,0,1,.29,2.38,7.21,7.21,0,0,1-.29,2.4A1,1,0,0,1,14.61,44.46Zm6.11,1.9a1.27,1.27,0,0,0,1-.39,1.33,1.33,0,0,0,.39-1,1.3,1.3,0,0,0-.39-1,1.24,1.24,0,0,0-1-.4,1.29,1.29,0,0,0-1,.4,1.34,1.34,0,0,0-.38,1,1.36,1.36,0,0,0,.38,1A1.32,1.32,0,0,0,20.72,46.36ZM29,41.19a2.16,2.16,0,0,0,1.1-.82,2.48,2.48,0,0,0,.4-1.4,2.33,2.33,0,0,0-1-2,4.36,4.36,0,0,0-2.65-.72,4.4,4.4,0,0,0-2.65.72,2.33,2.33,0,0,0-1,2,2.36,2.36,0,0,0,.39,1.36,2.31,2.31,0,0,0,1.12.86,2.35,2.35,0,0,0-1.31.84A2.67,2.67,0,0,0,24,45.64a4.82,4.82,0,0,0,2.85.75,4.82,4.82,0,0,0,2.85-.75,2.43,2.43,0,0,0,1-2.08A2.29,2.29,0,0,0,29,41.19Zm-2.13,3.25c-1,0-1.53-.36-1.53-1.09s.51-1.09,1.53-1.09,1.53.36,1.53,1.09S27.84,44.44,26.82,44.44Zm0-6.21a1.53,1.53,0,0,1,.94.24,1,1,0,0,1,.3.79,1,1,0,0,1-.3.8,1.89,1.89,0,0,1-1.88,0,1,1,0,0,1-.31-.8,1,1,0,0,1,.31-.79A1.53,1.53,0,0,1,26.82,38.23Zm11.23-1.82H32.56a1.37,1.37,0,0,0-.92.25,1,1,0,0,0-.3.78,1,1,0,0,0,.29.76,1.38,1.38,0,0,0,.93.25h3.5l-3.6,6.15a1.29,1.29,0,0,0-.19.67,1,1,0,0,0,.37.8,1.28,1.28,0,0,0,.87.33,1.2,1.2,0,0,0,.6-.16,1.29,1.29,0,0,0,.48-.5l4.24-7.35a1.75,1.75,0,0,0,.27-.92,1.05,1.05,0,0,0-.28-.76A1,1,0,0,0,38.05,36.41ZM13,58.22H11.24V56.45a.77.77,0,0,0-.24-.58.85.85,0,0,0-1.18,0,.76.76,0,0,0-.23.58v1.77H7.82A.8.8,0,0,0,7,59a.85.85,0,0,0,.23.6.81.81,0,0,0,.59.24H9.59v1.75a.78.78,0,0,0,.23.59.86.86,0,0,0,1.19,0,.82.82,0,0,0,.23-.59V59.88H13a.82.82,0,0,0,.83-.84.77.77,0,0,0-.24-.58A.81.81,0,0,0,13,58.22Zm5.81,5a3.26,3.26,0,0,0,2.8-1.3,6.21,6.21,0,0,0,1-3.77,6.18,6.18,0,0,0-1-3.75,3.26,3.26,0,0,0-2.79-1.3,3.28,3.28,0,0,0-2.8,1.3,6.26,6.26,0,0,0-1,3.75,6.28,6.28,0,0,0,1,3.77A3.28,3.28,0,0,0,18.81,63.2Zm0-1.94a1,1,0,0,1-1-.73,6.9,6.9,0,0,1-.3-2.4,6.73,6.73,0,0,1,.3-2.38,1,1,0,0,1,1-.72,1,1,0,0,1,1,.72,7.11,7.11,0,0,1,.29,2.38,7.21,7.21,0,0,1-.29,2.4A1,1,0,0,1,18.81,61.26Zm6.11,1.9a1.27,1.27,0,0,0,.95-.39,1.33,1.33,0,0,0,.39-1,1.34,1.34,0,0,0-.39-1,1.27,1.27,0,0,0-.95-.39,1.32,1.32,0,0,0-1,.39,1.38,1.38,0,0,0-.38,1,1.36,1.36,0,0,0,.38,1A1.32,1.32,0,0,0,24.92,63.16Zm8.93-9.95H28.36a1.37,1.37,0,0,0-.92.25,1,1,0,0,0-.3.78,1,1,0,0,0,.29.76,1.38,1.38,0,0,0,.93.25h3.5l-3.6,6.14a1.35,1.35,0,0,0-.19.68,1,1,0,0,0,.37.8,1.3,1.3,0,0,0,.87.33,1.2,1.2,0,0,0,.6-.16,1.29,1.29,0,0,0,.48-.5l4.24-7.35a1.75,1.75,0,0,0,.27-.92,1.05,1.05,0,0,0-.28-.76A1,1,0,0,0,33.85,53.21ZM41.2,58a2.24,2.24,0,0,0,1.51-2.19,2.4,2.4,0,0,0-.43-1.43,2.68,2.68,0,0,0-1.22-.95,4.48,4.48,0,0,0-1.82-.34,5.52,5.52,0,0,0-1.66.25,4.6,4.6,0,0,0-1.42.7,1.18,1.18,0,0,0-.34.38,1.15,1.15,0,0,0-.1.49,1.13,1.13,0,0,0,.24.73.74.74,0,0,0,.59.31,1,1,0,0,0,.35-.07l.42-.2.29-.14c.28-.14.54-.25.77-.34a2.15,2.15,0,0,1,.73-.12,1.24,1.24,0,0,1,.86.28,1.08,1.08,0,0,1,.3.81.76.76,0,0,1-.35.71,2.1,2.1,0,0,1-1.12.23h-.61a.82.82,0,0,0-.66.29,1.08,1.08,0,0,0-.24.7,1.06,1.06,0,0,0,.24.7.79.79,0,0,0,.66.29h.87a2.06,2.06,0,0,1,1.14.24.87.87,0,0,1,.35.79,1,1,0,0,1-.34.84,1.93,1.93,0,0,1-1.13.25,2.49,2.49,0,0,1-.8-.12,6.2,6.2,0,0,1-.81-.34l-.17-.08-.14-.06a4.05,4.05,0,0,0-.42-.21.91.91,0,0,0-.35-.06.72.72,0,0,0-.58.3,1.15,1.15,0,0,0-.24.74,1,1,0,0,0,.43.87,4.6,4.6,0,0,0,1.46.7,6,6,0,0,0,1.75.25,5.19,5.19,0,0,0,2-.35,2.92,2.92,0,0,0,1.31-1A2.41,2.41,0,0,0,43,60.39a2.51,2.51,0,0,0-.47-1.53A2.37,2.37,0,0,0,41.2,58Zm55-4a1.4,1.4,0,0,0,.88-.28,1.32,1.32,0,0,0,.46-.82,2.2,2.2,0,0,1,.54-1,11.19,11.19,0,0,1,1.22-1.12c.56-.49,1-.92,1.36-1.27a4.55,4.55,0,0,0,.9-1.27,3.67,3.67,0,0,0-.32-3.78A4.61,4.61,0,0,0,99.32,43a6.83,6.83,0,0,0-2.78-.54,9.22,9.22,0,0,0-2.78.44,8.62,8.62,0,0,0-2.46,1.24,2,2,0,0,0-.58.65,1.74,1.74,0,0,0-.18.84A2,2,0,0,0,91,46.84a1.28,1.28,0,0,0,1,.51,3,3,0,0,0,1.32-.45l.57-.29A8.79,8.79,0,0,1,95.08,46a3.24,3.24,0,0,1,1.1-.2,1.6,1.6,0,0,1,1,.31,1,1,0,0,1,.39.84,1.79,1.79,0,0,1-.28,1,7.31,7.31,0,0,1-.83,1,8.23,8.23,0,0,0-1.2,1.55,3.71,3.71,0,0,0-.43,1.88,1.76,1.76,0,0,0,.35,1.16A1.2,1.2,0,0,0,96.2,54Zm0,5.74A2.24,2.24,0,0,0,97.92,59a2.28,2.28,0,0,0,.66-1.66A2.29,2.29,0,0,0,96.25,55a2.22,2.22,0,0,0-1.65.68,2.25,2.25,0,0,0-.66,1.65A2.28,2.28,0,0,0,94.6,59,2.21,2.21,0,0,0,96.25,59.69Z"/></svg>