<svg id="Layer_1" data-name="Layer 1" xmlns="http://www.w3.org/2000/svg" viewBox="0 0 122.3 122.3"><title>l9_2_1</title><path d="M122.46,42.08V52.62a11.74,11.74,0,0,1-11.74,11.74h-11l0,22.52a4.39,4.39,0,0,1-4.67,4.66H75.26q-4,8.22-8.11,16.42c-.31.53-2.18,3.69-5.28,3.78-3.27.1-5.28-3.28-5.56-3.78L47.49,91.54h-23a4.37,4.37,0,0,1-2.92-1.23,4.9,4.9,0,0,1-1.31-3c-.33-2.64-.36-11.22,0-23H11.84A11.74,11.74,0,0,1,.1,52.62V42.08A11.74,11.74,0,0,1,11.84,30.34H39.39A11.74,11.74,0,0,1,51.13,42.08V52.62A11.74,11.74,0,0,1,39.39,64.36H28.74q0,9.23.05,18.45h14l-3.55-6.62a8.52,8.52,0,0,1-.34-6.46,3.93,3.93,0,0,1,2.17-2.36l38.86.06a4.19,4.19,0,0,1,2.8,2.81,9.67,9.67,0,0,1,.12,6l-3.27,6.61h11.5q0-9.23,0-18.45H83.17A11.74,11.74,0,0,1,71.43,52.62V42.08A11.74,11.74,0,0,1,83.17,30.34h27.55A11.74,11.74,0,0,1,122.46,42.08Zm-65.71,47h8.18a4,4,0,0,0,2.72-.8,2.86,2.86,0,0,0,.9-2.24,2.78,2.78,0,0,0-.9-2.22A4,4,0,0,0,64.93,83H56.75q-3.61,0-3.61,3T56.75,89.08ZM11.86,46.59a2.71,2.71,0,0,0,1.41-1.07,3.06,3.06,0,0,0,.52-1.8,3,3,0,0,0-1.25-2.53,5.71,5.71,0,0,0-3.42-.92,5.69,5.69,0,0,0-3.4.92,3,3,0,0,0-1.26,2.53A3,3,0,0,0,5,45.48a2.9,2.9,0,0,0,1.44,1.11,2.89,2.89,0,0,0-1.69,1.07,3.14,3.14,0,0,0-.6,2A3.11,3.11,0,0,0,5.46,52.3a6.21,6.21,0,0,0,3.66,1,6.22,6.22,0,0,0,3.67-1,3.11,3.11,0,0,0,1.34-2.67,3.15,3.15,0,0,0-.59-1.94A3.09,3.09,0,0,0,11.86,46.59ZM9.12,50.76c-1.3,0-2-.47-2-1.4S7.82,48,9.12,48s2,.47,2,1.41S10.43,50.76,9.12,50.76Zm0-8a1.93,1.93,0,0,1,1.21.31,1.24,1.24,0,0,1,.4,1,1.28,1.28,0,0,1-.4,1,1.92,1.92,0,0,1-1.21.32,1.89,1.89,0,0,1-1.2-.32,1.24,1.24,0,0,1-.4-1,1.21,1.21,0,0,1,.4-1A1.89,1.89,0,0,1,9.12,42.77Zm11.88,2a3.52,3.52,0,0,0-1.52.33,2.82,2.82,0,0,0-1.1.91,4.75,4.75,0,0,1,.67-2.35,1.72,1.72,0,0,1,1.49-.84,2.29,2.29,0,0,1,.82.15,8.76,8.76,0,0,1,1,.43l.4.2.54.26a1.25,1.25,0,0,0,.45.08,1,1,0,0,0,.77-.39,1.44,1.44,0,0,0,.31-.94,1.34,1.34,0,0,0-.13-.63,1.56,1.56,0,0,0-.45-.49,5.84,5.84,0,0,0-1.8-.9,7.24,7.24,0,0,0-2.07-.32,4.85,4.85,0,0,0-2.79.81,5.25,5.25,0,0,0-1.86,2.31,8.7,8.7,0,0,0-.66,3.52,7.2,7.2,0,0,0,1.39,4.72,4.83,4.83,0,0,0,3.92,1.65,4.55,4.55,0,0,0,2.29-.56,4.06,4.06,0,0,0,1.58-1.55,4.88,4.88,0,0,0,.07-4.4A3.72,3.72,0,0,0,23,45.3,3.61,3.61,0,0,0,21,44.77Zm-.82,6a1.46,1.46,0,0,1-1.12-.47A1.77,1.77,0,0,1,18.63,49a1.79,1.79,0,0,1,.42-1.24,1.46,1.46,0,0,1,1.13-.47,1.43,1.43,0,0,1,1.12.46A1.84,1.84,0,0,1,21.71,49a1.82,1.82,0,0,1-.42,1.25A1.41,1.41,0,0,1,20.18,50.74Zm13.87-3.87H31.79V44.61a1.06,1.06,0,0,0-1.07-1.07,1,1,0,0,0-.75.31,1,1,0,0,0-.31.76v2.26H27.39a1,1,0,0,0-.75.31,1,1,0,0,0-.31.76,1,1,0,0,0,.31.76,1,1,0,0,0,.75.32h2.27v2.25a1.06,1.06,0,0,0,1.06,1.06,1,1,0,0,0,.77-.31,1,1,0,0,0,.3-.75V49h2.26a1,1,0,0,0,.76-.32,1.07,1.07,0,0,0,.31-.76,1.06,1.06,0,0,0-1.07-1.07Zm7-6.6a4.53,4.53,0,0,0-2.28.56,4.06,4.06,0,0,0-1.58,1.55,4.59,4.59,0,0,0-.56,2.26,4.52,4.52,0,0,0,.49,2.13,3.63,3.63,0,0,0,3.3,2A3.53,3.53,0,0,0,42,48.45a2.82,2.82,0,0,0,1.1-.91,4.75,4.75,0,0,1-.67,2.35,1.73,1.73,0,0,1-1.49.84,2.34,2.34,0,0,1-.83-.15,10.66,10.66,0,0,1-1-.43L38.7,50a6,6,0,0,0-.54-.26,1.25,1.25,0,0,0-.45-.08,1,1,0,0,0-.77.39,1.42,1.42,0,0,0-.31.94,1.34,1.34,0,0,0,.13.63,1.64,1.64,0,0,0,.44.49A6,6,0,0,0,39,53a7.23,7.23,0,0,0,2.06.32,4.86,4.86,0,0,0,2.8-.81,5.25,5.25,0,0,0,1.86-2.31,8.71,8.71,0,0,0,.65-3.52A7.2,7.2,0,0,0,45,41.92,4.85,4.85,0,0,0,41.07,40.27Zm.2,6a1.43,1.43,0,0,1-1.12-.46,1.84,1.84,0,0,1-.41-1.25,1.82,1.82,0,0,1,.42-1.25,1.39,1.39,0,0,1,1.11-.46,1.43,1.43,0,0,1,1.12.47,1.77,1.77,0,0,1,.43,1.24,1.79,1.79,0,0,1-.42,1.24A1.46,1.46,0,0,1,41.27,46.23Zm55.19,4a1.38,1.38,0,0,0,.87-.29,1.24,1.24,0,0,0,.47-.82,2.26,2.26,0,0,1,.54-1A13.22,13.22,0,0,1,99.55,47c.56-.49,1-.92,1.37-1.27a4.83,4.83,0,0,0,.9-1.27,3.73,3.73,0,0,0-.32-3.78,4.74,4.74,0,0,0-1.92-1.49,6.87,6.87,0,0,0-2.79-.54,8.92,8.92,0,0,0-2.77.45,8.59,8.59,0,0,0-2.46,1.23A2.19,2.19,0,0,0,91,41a1.74,1.74,0,0,0-.18.84,1.92,1.92,0,0,0,.42,1.26,1.26,1.26,0,0,0,1,.52,2.85,2.85,0,0,0,1.32-.46l.58-.29a8.62,8.62,0,0,1,1.21-.58,3,3,0,0,1,1.09-.21,1.69,1.69,0,0,1,1.06.31,1,1,0,0,1,.38.84,1.74,1.74,0,0,1-.27,1,7.46,7.46,0,0,1-.83,1,8.23,8.23,0,0,0-1.2,1.55,3.77,3.77,0,0,0-.43,1.89,1.68,1.68,0,0,0,.35,1.15A1.2,1.2,0,0,0,96.46,50.24ZM96.51,56a2.22,2.22,0,0,0,1.66-.67,2.41,2.41,0,0,0,0-3.31,2.38,2.38,0,0,0-3.31,0,2.41,2.41,0,0,0,0,3.31A2.21,2.21,0,0,0,96.51,56Z"/></svg>