<svg id="Layer_1" data-name="Layer 1" xmlns="http://www.w3.org/2000/svg" viewBox="0 0 122.3 122.3"><title>l9_2_1</title><path d="M122.24,46.46V63.12a8.66,8.66,0,0,1-8.65,8.66H99.51q0,11.23,0,22.48a4.37,4.37,0,0,1-4.66,4.66H76.72v3.75a8.7,8.7,0,0,1-8.7,8.69H51.44a8.69,8.69,0,0,1-8.69-8.69V98.92H24.41a4.43,4.43,0,0,1-2.92-1.23,4.9,4.9,0,0,1-1.31-3c-.33-2.63-.36-11.2,0-22.91H8.72A8.66,8.66,0,0,1,.06,63.12V46.46a8.66,8.66,0,0,1,8.66-8.65H42.36A8.65,8.65,0,0,1,51,46.46V63.12a8.66,8.66,0,0,1-8.65,8.66H28.66q0,9.21.05,18.42h14V86.08a8.69,8.69,0,0,1,8.69-8.69H68a8.7,8.7,0,0,1,8.7,8.69V90.2H90.91q0-9.21,0-18.42h-11a8.66,8.66,0,0,1-8.65-8.66V46.46a8.65,8.65,0,0,1,8.65-8.65h33.65A8.65,8.65,0,0,1,122.24,46.46ZM9.84,63.59a4.92,4.92,0,0,0,4.2-2A9.43,9.43,0,0,0,15.48,56,9.31,9.31,0,0,0,14,50.36a4.93,4.93,0,0,0-4.19-2,4.9,4.9,0,0,0-4.2,2A9.31,9.31,0,0,0,4.19,56a9.35,9.35,0,0,0,1.45,5.65A4.9,4.9,0,0,0,9.84,63.59Zm0-2.92a1.49,1.49,0,0,1-1.45-1.09A10.3,10.3,0,0,1,8,56a10.19,10.19,0,0,1,.44-3.58,1.5,1.5,0,0,1,2.89,0A10.19,10.19,0,0,1,11.73,56a10.25,10.25,0,0,1-.45,3.59A1.49,1.49,0,0,1,9.84,60.67ZM19,63.53a2,2,0,0,0,1.44-.59A2,2,0,0,0,21,61.49,2,2,0,0,0,20.43,60,1.94,1.94,0,0,0,19,59.46a2,2,0,0,0-1.46.58A2,2,0,0,0,17,61.49a2,2,0,0,0,.58,1.45A2,2,0,0,0,19,63.53Zm10.19-9.81a5.29,5.29,0,0,0-2.08.38V51.52h4.53q1.83,0,1.83-1.47c0-1-.61-1.45-1.83-1.45H25.12a1.78,1.78,0,0,0-1.32.46,1.82,1.82,0,0,0-.46,1.34v5.7a1.14,1.14,0,0,0,.4.91,1.43,1.43,0,0,0,1,.35,1.94,1.94,0,0,0,1-.24,7.27,7.27,0,0,1,1.21-.37A5.65,5.65,0,0,1,28,56.64a2.38,2.38,0,0,1,1.64.53,1.88,1.88,0,0,1,.59,1.47,1.82,1.82,0,0,1-.57,1.48,2.72,2.72,0,0,1-1.74.47,3.42,3.42,0,0,1-1.17-.19,11.78,11.78,0,0,1-1.18-.5l-.42-.21c-.29-.16-.5-.26-.63-.32a1.6,1.6,0,0,0-.53-.08,1.09,1.09,0,0,0-.88.45,1.71,1.71,0,0,0-.36,1.1,1.54,1.54,0,0,0,.16.73,1.82,1.82,0,0,0,.49.57,6.84,6.84,0,0,0,2.15,1,8.58,8.58,0,0,0,2.56.38,6.82,6.82,0,0,0,3-.63,4.74,4.74,0,0,0,2-1.78A5.42,5.42,0,0,0,33.26,56a4.26,4.26,0,0,0-1.66-1.68A4.83,4.83,0,0,0,29.18,53.72Zm16,6.62H43.48v-10A1.79,1.79,0,0,0,43,49a1.82,1.82,0,0,0-1.35-.51,3.58,3.58,0,0,0-1.75.53l-3.35,2a1.42,1.42,0,0,0-.74,1.3,1.77,1.77,0,0,0,.42,1.15,1.27,1.27,0,0,0,1,.51,1.43,1.43,0,0,0,.73-.21l1.68-1v7.58h-1.7a2,2,0,0,0-1.38.38,1.39,1.39,0,0,0-.44,1.13c0,1,.6,1.55,1.82,1.55H45.2c1.22,0,1.83-.51,1.83-1.55a1.42,1.42,0,0,0-.44-1.13A2.08,2.08,0,0,0,45.2,60.34Zm51.22-2.82a1.41,1.41,0,0,0,.88-.29,1.28,1.28,0,0,0,.47-.81,2.29,2.29,0,0,1,.54-1,11,11,0,0,1,1.21-1.11c.56-.5,1-.92,1.37-1.27a4.88,4.88,0,0,0,.9-1.28,3.7,3.7,0,0,0-.33-3.78,4.59,4.59,0,0,0-1.92-1.48A6.79,6.79,0,0,0,96.76,46a8.86,8.86,0,0,0-2.77.44,8.62,8.62,0,0,0-2.46,1.24,2.05,2.05,0,0,0-.59.64,1.81,1.81,0,0,0-.18.85,1.91,1.91,0,0,0,.42,1.25,1.26,1.26,0,0,0,1,.52,2.85,2.85,0,0,0,1.32-.46l.58-.28a8.27,8.27,0,0,1,1.21-.59,3,3,0,0,1,1.09-.21,1.63,1.63,0,0,1,1.06.32,1,1,0,0,1,.38.84,1.71,1.71,0,0,1-.28,1,8.64,8.64,0,0,1-.82,1,7.22,7.22,0,0,0-1.2,1.55A3.71,3.71,0,0,0,95.1,56a1.72,1.72,0,0,0,.35,1.15A1.19,1.19,0,0,0,96.42,57.52Zm0,5.74a2.29,2.29,0,0,0,2.33-2.33,2.27,2.27,0,0,0-2.33-2.33,2.24,2.24,0,0,0-1.64.67,2.28,2.28,0,0,0-.66,1.66,2.25,2.25,0,0,0,.66,1.65A2.21,2.21,0,0,0,96.47,63.26ZM55.66,98.82H63.8a3.92,3.92,0,0,0,2.71-.8,2.84,2.84,0,0,0,.89-2.23,2.8,2.8,0,0,0-.89-2.21,4,4,0,0,0-2.71-.78H55.66q-3.58,0-3.59,3T55.66,98.82Z"/></svg>