<svg id="Layer_1" data-name="Layer 1" xmlns="http://www.w3.org/2000/svg" viewBox="0 0 122.3 122.3"><title>l9_2_1</title><path d="M122.4,41.41V52a11.74,11.74,0,0,1-11.74,11.74h-11l0,22.52a4.51,4.51,0,0,1-1.23,3.35A4.57,4.57,0,0,1,95,90.88H75.21l-8.12,16.41c-.3.53-2.18,3.69-5.28,3.78-3.26.1-5.27-3.28-5.56-3.78L47.43,90.88h-23a4.48,4.48,0,0,1-2.93-1.24,5,5,0,0,1-1.31-3c-.33-2.64-.36-11.22,0-23H11.78A11.74,11.74,0,0,1,0,52V41.41A11.74,11.74,0,0,1,11.78,29.67H39.33A11.74,11.74,0,0,1,51.07,41.41V52A11.74,11.74,0,0,1,39.33,63.69H28.69q0,9.23,0,18.45h14l-3.56-6.62a8.52,8.52,0,0,1-.34-6.46A3.91,3.91,0,0,1,41,66.7l38.86.06a4.18,4.18,0,0,1,2.79,2.81,9.59,9.59,0,0,1,.12,6c-1.09,2.2-2.18,4.41-3.26,6.61H91q0-9.23,0-18.45H83.12A11.75,11.75,0,0,1,71.37,52V41.41A11.75,11.75,0,0,1,83.12,29.67h27.54A11.74,11.74,0,0,1,122.4,41.41Zm-65.7,47h8.18a4,4,0,0,0,2.72-.8,2.89,2.89,0,0,0,.89-2.24,2.81,2.81,0,0,0-.89-2.22,4,4,0,0,0-2.72-.79H56.7q-3.62,0-3.62,3T56.7,88.41ZM10.8,45.92a2.73,2.73,0,0,0,1.42-1.07,3.12,3.12,0,0,0,.51-1.8,3,3,0,0,0-1.25-2.52,5.59,5.59,0,0,0-3.41-.93,5.6,5.6,0,0,0-3.4.93,3,3,0,0,0-1.26,2.52,3,3,0,0,0,.5,1.76,3,3,0,0,0,1.44,1.11A3,3,0,0,0,3.66,47a3.14,3.14,0,0,0-.6,2,3.09,3.09,0,0,0,1.35,2.67,6.16,6.16,0,0,0,3.66,1,6.16,6.16,0,0,0,3.66-1A3.08,3.08,0,0,0,13.07,49,3.17,3.17,0,0,0,12.49,47,3.09,3.09,0,0,0,10.8,45.92ZM8.07,50.09c-1.31,0-2-.47-2-1.4s.65-1.41,2-1.41,2,.47,2,1.41S9.38,50.09,8.07,50.09Zm0-8a2,2,0,0,1,1.2.31,1.22,1.22,0,0,1,.4,1,1.24,1.24,0,0,1-.4,1,1.89,1.89,0,0,1-1.2.32,1.94,1.94,0,0,1-1.21-.32,1.27,1.27,0,0,1-.39-1,1.25,1.25,0,0,1,.39-1A2,2,0,0,1,8.07,42.1ZM20,44.1a3.49,3.49,0,0,0-1.52.33,2.93,2.93,0,0,0-1.11.91A4.86,4.86,0,0,1,18,43a1.73,1.73,0,0,1,1.49-.84,2.34,2.34,0,0,1,.83.15,10.66,10.66,0,0,1,1,.43l.39.2a6,6,0,0,0,.54.26,1.33,1.33,0,0,0,.45.08,1,1,0,0,0,.77-.39,1.42,1.42,0,0,0,.31-.94,1.34,1.34,0,0,0-.13-.63,1.64,1.64,0,0,0-.44-.49,6,6,0,0,0-1.81-.9,7.17,7.17,0,0,0-2.06-.32,4.88,4.88,0,0,0-2.8.81,5.25,5.25,0,0,0-1.86,2.31A8.88,8.88,0,0,0,14,46.24,7.2,7.2,0,0,0,15.39,51a4.86,4.86,0,0,0,3.93,1.65,4.53,4.53,0,0,0,2.28-.56,4,4,0,0,0,1.58-1.55,4.49,4.49,0,0,0,.57-2.26,4.59,4.59,0,0,0-.5-2.14,3.65,3.65,0,0,0-3.3-2Zm-.83,6A1.43,1.43,0,0,1,18,49.6a1.81,1.81,0,0,1-.43-1.24A1.79,1.79,0,0,1,18,47.12a1.47,1.47,0,0,1,1.13-.47,1.43,1.43,0,0,1,1.12.46,2.11,2.11,0,0,1,0,2.5A1.43,1.43,0,0,1,19.12,50.07ZM33,46.2H30.73V43.94a1,1,0,0,0-.31-.76,1,1,0,0,0-.75-.31,1.07,1.07,0,0,0-.76.31,1,1,0,0,0-.3.76V46.2H26.34a1.07,1.07,0,0,0-.76.31,1,1,0,0,0-.3.76,1.06,1.06,0,0,0,.3.76,1,1,0,0,0,.76.32h2.27V50.6a1,1,0,0,0,1.06,1.06,1,1,0,0,0,.76-.31,1,1,0,0,0,.3-.75V48.35H33a1,1,0,0,0,.75-.32,1,1,0,0,0,.31-.76,1,1,0,0,0-.31-.76A1,1,0,0,0,33,46.2Zm7-6.6a4.57,4.57,0,0,0-2.29.56,4,4,0,0,0-1.57,1.55,4.82,4.82,0,0,0-.08,4.39,3.63,3.63,0,0,0,3.31,2,3.49,3.49,0,0,0,1.52-.33A2.93,2.93,0,0,0,42,46.87a4.85,4.85,0,0,1-.68,2.35,1.72,1.72,0,0,1-1.48.84,2.31,2.31,0,0,1-.83-.15,8.76,8.76,0,0,1-1-.43l-.4-.2L37.1,49a1.25,1.25,0,0,0-.45-.08.94.94,0,0,0-.76.39,1.45,1.45,0,0,0-.32.94,1.33,1.33,0,0,0,.14.63,1.51,1.51,0,0,0,.44.49,5.79,5.79,0,0,0,1.81.9,7.17,7.17,0,0,0,2.06.32,4.88,4.88,0,0,0,2.8-.81,5.31,5.31,0,0,0,1.85-2.31A8.7,8.7,0,0,0,45.33,46a7.14,7.14,0,0,0-1.39-4.72A4.83,4.83,0,0,0,40,39.6Zm.2,6a1.45,1.45,0,0,1-1.13-.46,1.84,1.84,0,0,1-.4-1.25,1.81,1.81,0,0,1,.41-1.25,1.43,1.43,0,0,1,1.12-.46,1.46,1.46,0,0,1,1.11.47,1.77,1.77,0,0,1,.43,1.24,1.79,1.79,0,0,1-.42,1.24A1.45,1.45,0,0,1,40.22,45.56Zm56.18,4a1.41,1.41,0,0,0,.88-.29,1.28,1.28,0,0,0,.47-.82,2.26,2.26,0,0,1,.54-1,11,11,0,0,1,1.21-1.11c.56-.5,1-.92,1.37-1.28a4.83,4.83,0,0,0,.9-1.27,3.68,3.68,0,0,0,.37-1.63,3.51,3.51,0,0,0-.7-2.15,4.61,4.61,0,0,0-1.92-1.49A6.79,6.79,0,0,0,96.74,38a8.87,8.87,0,0,0-2.77.45,8.59,8.59,0,0,0-2.46,1.23,2.06,2.06,0,0,0-.59.65,1.8,1.8,0,0,0-.18.84,1.92,1.92,0,0,0,.42,1.26,1.26,1.26,0,0,0,1,.52,2.92,2.92,0,0,0,1.32-.46l.57-.29a8.69,8.69,0,0,1,1.22-.58,3,3,0,0,1,1.09-.21,1.64,1.64,0,0,1,1.05.31,1,1,0,0,1,.39.84,1.67,1.67,0,0,1-.28,1,7.3,7.3,0,0,1-.83,1,7.88,7.88,0,0,0-1.2,1.54A3.88,3.88,0,0,0,95.08,48a1.74,1.74,0,0,0,.35,1.15A1.22,1.22,0,0,0,96.4,49.57Zm0,5.73a2.24,2.24,0,0,0,1.67-.67,2.41,2.41,0,0,0,0-3.31,2.24,2.24,0,0,0-1.67-.67,2.19,2.19,0,0,0-1.64.67,2.41,2.41,0,0,0,0,3.31A2.19,2.19,0,0,0,96.45,55.3Z"/></svg>