<svg id="Layer_1" data-name="Layer 1" xmlns="http://www.w3.org/2000/svg" viewBox="0 0 122.3 122.3"><title>l9_2_1</title><path d="M122.3,17.5V58.3A11.73,11.73,0,0,1,110.57,70h-11l0,22.51a4.53,4.53,0,0,1-1.23,3.36,4.58,4.58,0,0,1-3.43,1.31H75.34l-9.12,18.45c-.3.53-2.19,3.71-5.31,3.8-3.28.09-5.3-3.3-5.59-3.8L45.41,97.21h-21A4.4,4.4,0,0,1,21.45,96a4.9,4.9,0,0,1-1.31-3c-.33-2.63-.36-11.21,0-22.94H11.74A11.73,11.73,0,0,1,0,58.3V17.5A11.74,11.74,0,0,1,11.74,5.76H39.27A11.74,11.74,0,0,1,51,17.5V58.3A11.73,11.73,0,0,1,39.27,70H28.63q0,9.23.05,18.44h12L38.15,83.7c-.8-1.49-1.65-4.37-.34-6.49a5.94,5.94,0,0,1,4-2.37l35.62,0a5.83,5.83,0,0,1,4.24,1.79,6,6,0,0,1,.37,7c-.78,1.58-1.56,3.17-2.35,4.75H90.94q0-9.21,0-18.44H83A11.73,11.73,0,0,1,71.3,58.3V17.5A11.74,11.74,0,0,1,83,5.76h27.54A11.74,11.74,0,0,1,122.3,17.5ZM96,45.22a2.92,2.92,0,0,0,1.83-.6,2.65,2.65,0,0,0,1-1.7,4.63,4.63,0,0,1,1.13-2,22.87,22.87,0,0,1,2.52-2.33c1.17-1,2.12-1.91,2.85-2.65a10.09,10.09,0,0,0,1.88-2.65,7.55,7.55,0,0,0,.77-3.4,7.36,7.36,0,0,0-1.45-4.47,9.67,9.67,0,0,0-4-3.1,14.22,14.22,0,0,0-5.8-1.13,18.62,18.62,0,0,0-5.77.93,17.89,17.89,0,0,0-5.13,2.57A4.42,4.42,0,0,0,84.59,26a3.68,3.68,0,0,0-.38,1.75,4,4,0,0,0,.88,2.63,2.63,2.63,0,0,0,2.12,1.07A6,6,0,0,0,90,30.52l1.2-.6a17.82,17.82,0,0,1,2.53-1.22A6.43,6.43,0,0,1,96,28.27a3.41,3.41,0,0,1,2.2.65,2.16,2.16,0,0,1,.8,1.75,3.65,3.65,0,0,1-.57,2,16.53,16.53,0,0,1-1.73,2.15,16.31,16.31,0,0,0-2.5,3.23,7.81,7.81,0,0,0-.9,3.92,3.53,3.53,0,0,0,.73,2.4A2.49,2.49,0,0,0,96,45.22Zm.1,12a4.66,4.66,0,0,0,3.48-1.4,5,5,0,0,0,0-6.9,4.7,4.7,0,0,0-3.48-1.4,4.59,4.59,0,0,0-3.42,1.4,5,5,0,0,0,0,6.9A4.55,4.55,0,0,0,96.11,57.17ZM56.43,96.36h8.19a4,4,0,0,0,2.72-.81,2.86,2.86,0,0,0,.89-2.24,2.83,2.83,0,0,0-.89-2.22,4.07,4.07,0,0,0-2.72-.78H56.43c-2.4,0-3.61,1-3.61,3S54,96.36,56.43,96.36Zm-33.66-68H20.41V14.66a2.52,2.52,0,0,0-.71-1.88,2.54,2.54,0,0,0-1.86-.69,4.91,4.91,0,0,0-2.4.72l-4.62,2.68a2,2,0,0,0-1,1.79,2.47,2.47,0,0,0,.58,1.58,1.75,1.75,0,0,0,1.39.7,2,2,0,0,0,1-.28l2.31-1.36V28.34H12.76a2.89,2.89,0,0,0-1.91.52,1.93,1.93,0,0,0-.6,1.56c0,1.42.83,2.13,2.51,2.13h10c1.68,0,2.51-.71,2.51-2.13a1.93,1.93,0,0,0-.6-1.56A2.89,2.89,0,0,0,22.77,28.34Zm14.87-6.27a4.63,4.63,0,0,0,2.29-1.74,4.8,4.8,0,0,0,.82-2.79,5,5,0,0,0-.88-2.94,5.6,5.6,0,0,0-2.51-2A9.61,9.61,0,0,0,33.59,12a11.81,11.81,0,0,0-3.42.51,9.67,9.67,0,0,0-2.93,1.45,2.46,2.46,0,0,0-.69.78,2.3,2.3,0,0,0-.2,1,2.34,2.34,0,0,0,.49,1.51,1.48,1.48,0,0,0,1.21.62,1.81,1.81,0,0,0,.72-.13,7.11,7.11,0,0,0,.87-.42l.61-.28a16.44,16.44,0,0,1,1.57-.7A4.44,4.44,0,0,1,33.33,16a2.5,2.5,0,0,1,1.77.6,2.14,2.14,0,0,1,.63,1.65A1.63,1.63,0,0,1,35,19.77a4.5,4.5,0,0,1-2.31.46H31.43a1.66,1.66,0,0,0-1.36.6,2.29,2.29,0,0,0-.49,1.45,2.24,2.24,0,0,0,.49,1.44,1.67,1.67,0,0,0,1.36.61h1.79a4.34,4.34,0,0,1,2.37.49,1.79,1.79,0,0,1,.72,1.61,2,2,0,0,1-.71,1.73,4,4,0,0,1-2.32.52,5.32,5.32,0,0,1-1.66-.24A11.93,11.93,0,0,1,30,27.73l-.36-.16a2.51,2.51,0,0,1-.28-.13c-.36-.19-.65-.33-.86-.42a2.05,2.05,0,0,0-.72-.13,1.49,1.49,0,0,0-1.22.63A2.38,2.38,0,0,0,26,29a2.35,2.35,0,0,0,.2,1,2.31,2.31,0,0,0,.7.79,9.32,9.32,0,0,0,3,1.46,13.06,13.06,0,0,0,3.61.5,10.83,10.83,0,0,0,4.08-.7,6.17,6.17,0,0,0,2.7-2,5.5,5.5,0,0,0,0-6.21A4.93,4.93,0,0,0,37.64,22.07ZM26.14,52.3a7.37,7.37,0,0,0-2.86.52V49.27h6.24c1.67,0,2.51-.67,2.51-2s-.84-2-2.51-2H20.57a2.45,2.45,0,0,0-1.82.64,2.5,2.5,0,0,0-.63,1.84v7.83a1.56,1.56,0,0,0,.55,1.25A2,2,0,0,0,20,57.3a2.78,2.78,0,0,0,1.3-.32A10.86,10.86,0,0,1,23,56.46a7.64,7.64,0,0,1,1.57-.14,3.28,3.28,0,0,1,2.26.72,2.58,2.58,0,0,1,.8,2,2.49,2.49,0,0,1-.78,2,3.63,3.63,0,0,1-2.39.65,4.59,4.59,0,0,1-1.6-.26,14.56,14.56,0,0,1-1.63-.69l-.58-.29a9.41,9.41,0,0,0-.87-.43A1.87,1.87,0,0,0,19,60a1.5,1.5,0,0,0-1.21.62,2.37,2.37,0,0,0-.49,1.52,2,2,0,0,0,.22,1,2.58,2.58,0,0,0,.67.8,9.83,9.83,0,0,0,3,1.44,12,12,0,0,0,3.51.52A9.36,9.36,0,0,0,28.83,65a6.48,6.48,0,0,0,2.77-2.45,6.86,6.86,0,0,0,1-3.66,7,7,0,0,0-.82-3.42,5.85,5.85,0,0,0-2.29-2.31A6.64,6.64,0,0,0,26.14,52.3ZM40.3,38.94h0a2.62,2.62,0,0,0-2.62-2.62H10.42a2.61,2.61,0,0,0-2.61,2.62h0a2.61,2.61,0,0,0,2.61,2.61H37.68A2.61,2.61,0,0,0,40.3,38.94Z"/></svg>