<svg id="Layer_1" data-name="Layer 1" xmlns="http://www.w3.org/2000/svg" viewBox="0 0 122.3 122.3"><title>l9_2_1</title><path d="M122.31,43.75V60.41a8.65,8.65,0,0,1-8.65,8.65H99.58q0,11.25,0,22.49a4.47,4.47,0,0,1-1.23,3.35,4.57,4.57,0,0,1-3.43,1.31H76.79V100a8.69,8.69,0,0,1-8.69,8.69H51.51A8.69,8.69,0,0,1,42.82,100V96.21H24.48A4.46,4.46,0,0,1,21.56,95a4.94,4.94,0,0,1-1.31-3c-.33-2.63-.36-11.2,0-22.91H8.79A8.66,8.66,0,0,1,.13,60.41V43.75a8.66,8.66,0,0,1,8.66-8.66H42.43a8.66,8.66,0,0,1,8.66,8.66V60.41a8.66,8.66,0,0,1-8.66,8.65H28.73q0,9.21.05,18.42h14V83.37a8.7,8.7,0,0,1,8.69-8.7H68.1a8.7,8.7,0,0,1,8.69,8.7v4.11H91q0-9.21,0-18.42H80a8.65,8.65,0,0,1-8.65-8.65V43.75A8.66,8.66,0,0,1,80,35.09h33.65A8.66,8.66,0,0,1,122.31,43.75ZM8.21,47.69a3.57,3.57,0,0,0-1.77.44,3,3,0,0,0-1.23,1.21,3.53,3.53,0,0,0-.44,1.75,3.59,3.59,0,0,0,.38,1.66A2.88,2.88,0,0,0,6.21,53.9a2.78,2.78,0,0,0,1.51.41,2.76,2.76,0,0,0,1.19-.25,2.32,2.32,0,0,0,.86-.71,3.74,3.74,0,0,1-.53,1.83,1.34,1.34,0,0,1-1.15.65,1.78,1.78,0,0,1-.65-.12,7.64,7.64,0,0,1-.77-.33l-.3-.16L6,55A1,1,0,0,0,5.6,55a.74.74,0,0,0-.6.3,1.13,1.13,0,0,0-.24.73,1,1,0,0,0,.1.49,1.09,1.09,0,0,0,.34.38,4.54,4.54,0,0,0,1.41.7,5.38,5.38,0,0,0,1.6.25,3.8,3.8,0,0,0,2.18-.63,4.1,4.1,0,0,0,1.44-1.79,6.83,6.83,0,0,0,.51-2.74A5.61,5.61,0,0,0,11.27,49,3.77,3.77,0,0,0,8.21,47.69Zm.16,4.64A1.1,1.1,0,0,1,7.49,52a1.41,1.41,0,0,1-.31-1,1.44,1.44,0,0,1,.32-1,1.1,1.1,0,0,1,.87-.36,1.13,1.13,0,0,1,.87.37,1.56,1.56,0,0,1,0,1.92A1.13,1.13,0,0,1,8.37,52.33Zm10.72.28a2.14,2.14,0,0,0,1.1-.83,2.4,2.4,0,0,0,.4-1.4,2.32,2.32,0,0,0-1-2A4.4,4.4,0,0,0,17,47.69a4.35,4.35,0,0,0-2.64.72,2.3,2.3,0,0,0-1,2,2.42,2.42,0,0,0,.39,1.37,2.34,2.34,0,0,0,1.12.86,2.32,2.32,0,0,0-1.32.83A2.53,2.53,0,0,0,13.07,55a2.43,2.43,0,0,0,1,2.08A4.82,4.82,0,0,0,17,57.8a4.78,4.78,0,0,0,2.85-.75A2.41,2.41,0,0,0,20.86,55a2.46,2.46,0,0,0-.46-1.5A2.35,2.35,0,0,0,19.09,52.61ZM17,55.85c-1,0-1.52-.36-1.52-1.09S16,53.67,17,53.67s1.53.36,1.53,1.09S18,55.85,17,55.85Zm0-6.21a1.51,1.51,0,0,1,.94.24,1.17,1.17,0,0,1,0,1.59,1.45,1.45,0,0,1-.94.25,1.42,1.42,0,0,1-.93-.25,1.17,1.17,0,0,1,0-1.59A1.48,1.48,0,0,1,17,49.64Zm8.05-2a3.57,3.57,0,0,0-1.77.44A3,3,0,0,0,22,49.34a3.53,3.53,0,0,0-.44,1.75A3.59,3.59,0,0,0,22,52.75,2.88,2.88,0,0,0,23,53.9a3,3,0,0,0,2.7.16,2.32,2.32,0,0,0,.86-.71A3.74,3.74,0,0,1,26,55.18a1.34,1.34,0,0,1-1.15.65,1.78,1.78,0,0,1-.65-.12,7.64,7.64,0,0,1-.77-.33l-.3-.16-.42-.2A1,1,0,0,0,22.4,55a.74.74,0,0,0-.6.3,1.13,1.13,0,0,0-.24.73,1,1,0,0,0,.1.49,1.09,1.09,0,0,0,.34.38,4.54,4.54,0,0,0,1.41.7,5.38,5.38,0,0,0,1.6.25,3.8,3.8,0,0,0,2.18-.63,4.1,4.1,0,0,0,1.44-1.79,6.83,6.83,0,0,0,.51-2.74A5.61,5.61,0,0,0,28.07,49,3.77,3.77,0,0,0,25,47.69Zm.16,4.64a1.1,1.1,0,0,1-.88-.36A1.41,1.41,0,0,1,24,51a1.39,1.39,0,0,1,.32-1,1.1,1.1,0,0,1,.87-.36A1.13,1.13,0,0,1,26,50,1.56,1.56,0,0,1,26,52,1.13,1.13,0,0,1,25.17,52.33Zm11.18.5H34.59V51.07a.82.82,0,0,0-.83-.83.77.77,0,0,0-.58.24.79.79,0,0,0-.24.59v1.76H31.17a.77.77,0,0,0-.58.24.79.79,0,0,0-.24.59.81.81,0,0,0,.24.59.78.78,0,0,0,.58.25h1.77v1.75a.82.82,0,0,0,.82.82.8.8,0,0,0,.83-.82V54.5h1.76a.84.84,0,0,0,.83-.84.82.82,0,0,0-.83-.83Zm7.94-.22a2.14,2.14,0,0,0,1.1-.83,2.4,2.4,0,0,0,.4-1.4,2.34,2.34,0,0,0-1-2,4.4,4.4,0,0,0-2.66-.72,4.35,4.35,0,0,0-2.64.72,2.3,2.3,0,0,0-1,2,2.42,2.42,0,0,0,.39,1.37,2.34,2.34,0,0,0,1.12.86,2.32,2.32,0,0,0-1.32.83A2.53,2.53,0,0,0,38.27,55a2.43,2.43,0,0,0,1,2.08,4.82,4.82,0,0,0,2.85.75A4.78,4.78,0,0,0,45,57.05,2.41,2.41,0,0,0,46.06,55a2.46,2.46,0,0,0-.46-1.5A2.35,2.35,0,0,0,44.29,52.61Zm-2.13,3.24c-1,0-1.52-.36-1.52-1.09s.51-1.09,1.52-1.09,1.53.36,1.53,1.09S43.18,55.85,42.16,55.85Zm0-6.21a1.51,1.51,0,0,1,.94.24,1.17,1.17,0,0,1,0,1.59,1.45,1.45,0,0,1-.94.25,1.42,1.42,0,0,1-.93-.25,1.17,1.17,0,0,1,0-1.59A1.48,1.48,0,0,1,42.16,49.64Zm40.46-6.38a6.13,6.13,0,0,0-3.05.75,5.23,5.23,0,0,0-2.1,2.07,6.41,6.41,0,0,0-.1,5.86,5.07,5.07,0,0,0,1.81,2,4.9,4.9,0,0,0,2.6.7,4.6,4.6,0,0,0,2-.44A3.9,3.9,0,0,0,85.28,53a6.35,6.35,0,0,1-.9,3.13,2.3,2.3,0,0,1-2,1.12,3.15,3.15,0,0,1-1.1-.2A12.2,12.2,0,0,1,80,56.44l-.53-.27c-.31-.16-.55-.27-.72-.34a1.46,1.46,0,0,0-.6-.11,1.28,1.28,0,0,0-1,.51,2,2,0,0,0-.42,1.26,1.74,1.74,0,0,0,.18.84,2,2,0,0,0,.59.65,7.66,7.66,0,0,0,2.41,1.2,9.26,9.26,0,0,0,2.75.43,6.51,6.51,0,0,0,3.73-1.08,7,7,0,0,0,2.47-3.08,11.71,11.71,0,0,0,.88-4.69,9.55,9.55,0,0,0-1.85-6.29A6.45,6.45,0,0,0,82.62,43.26Zm.26,8a1.89,1.89,0,0,1-1.5-.62,2.8,2.8,0,0,1,0-3.32,1.88,1.88,0,0,1,1.49-.62,1.93,1.93,0,0,1,1.49.63A2.39,2.39,0,0,1,85,48.93a2.35,2.35,0,0,1-.57,1.65A1.93,1.93,0,0,1,82.88,51.21Zm14.14-8A6.13,6.13,0,0,0,94,44a5.23,5.23,0,0,0-2.1,2.07,6.41,6.41,0,0,0-.1,5.86,5.07,5.07,0,0,0,1.81,2,4.9,4.9,0,0,0,2.6.7,4.53,4.53,0,0,0,2-.44A3.86,3.86,0,0,0,99.68,53a6.35,6.35,0,0,1-.9,3.13,2.3,2.3,0,0,1-2,1.12,3.15,3.15,0,0,1-1.1-.2,12.2,12.2,0,0,1-1.32-.57l-.53-.27c-.31-.16-.55-.27-.72-.34a1.46,1.46,0,0,0-.6-.11,1.28,1.28,0,0,0-1,.51,2,2,0,0,0-.42,1.26,1.74,1.74,0,0,0,.18.84,2,2,0,0,0,.59.65,7.66,7.66,0,0,0,2.41,1.2,9.21,9.21,0,0,0,2.75.43,6.51,6.51,0,0,0,3.73-1.08,7,7,0,0,0,2.47-3.08,11.71,11.71,0,0,0,.88-4.69,9.55,9.55,0,0,0-1.85-6.29A6.45,6.45,0,0,0,97,43.26Zm.26,8a1.89,1.89,0,0,1-1.5-.62,2.8,2.8,0,0,1,0-3.32,1.88,1.88,0,0,1,1.49-.62,1.93,1.93,0,0,1,1.49.63,2.39,2.39,0,0,1,.58,1.65,2.35,2.35,0,0,1-.57,1.65A1.93,1.93,0,0,1,97.28,51.21Zm19.58-7.73h-9.4a2.41,2.41,0,0,0-1.59.44,1.7,1.7,0,0,0-.5,1.33,1.63,1.63,0,0,0,.49,1.3,2.39,2.39,0,0,0,1.6.43h6l-6.17,10.54a2.21,2.21,0,0,0-.34,1.15,1.78,1.78,0,0,0,.65,1.38,2.18,2.18,0,0,0,1.49.56,2.1,2.1,0,0,0,1-.27,2.34,2.34,0,0,0,.83-.85l7.27-12.6a3.12,3.12,0,0,0,.45-1.59A1.89,1.89,0,0,0,118.2,44,1.74,1.74,0,0,0,116.86,43.48ZM55.73,96.11h8.14a4,4,0,0,0,2.71-.8,2.87,2.87,0,0,0,.89-2.23,2.78,2.78,0,0,0-.89-2.21,4,4,0,0,0-2.71-.78H55.73q-3.58,0-3.59,3T55.73,96.11Z"/></svg>