<svg id="Layer_1" data-name="Layer 1" xmlns="http://www.w3.org/2000/svg" viewBox="0 0 122.3 122.3"><title>l9_2_1</title><path d="M122.29,23.58v40.8a11.73,11.73,0,0,1-11.73,11.73h-11l0,22.5a4.39,4.39,0,0,1-4.67,4.67H76.73v.66a11.78,11.78,0,0,1-11.79,11.78H54.52a11.78,11.78,0,0,1-11.79-11.78v-.66H24.38A4.42,4.42,0,0,1,21.45,102a4.94,4.94,0,0,1-1.31-3c-.33-2.63-.36-11.21,0-22.93H11.74A11.73,11.73,0,0,1,0,64.38V23.58A11.73,11.73,0,0,1,11.74,11.85H39.27A11.74,11.74,0,0,1,51,23.58v40.8A11.74,11.74,0,0,1,39.27,76.11H28.63q0,9.23.05,18.44h14v-1A11.78,11.78,0,0,1,54.52,81.73H64.94A11.78,11.78,0,0,1,76.73,93.51v1h14.2q0-9.22,0-18.44H83A11.73,11.73,0,0,1,71.3,64.38V23.58A11.73,11.73,0,0,1,83,11.85h27.53A11.73,11.73,0,0,1,122.29,23.58ZM22,34.42h-5.8l4.1-4.18A13.52,13.52,0,0,0,22.72,27a7.28,7.28,0,0,0,.71-3.22,5.32,5.32,0,0,0-.88-3,5.61,5.61,0,0,0-2.5-2A9.33,9.33,0,0,0,16.3,18a11.11,11.11,0,0,0-3.33.52A11.58,11.58,0,0,0,9.92,20a1.89,1.89,0,0,0-.7.75,2.42,2.42,0,0,0-.19,1,2.45,2.45,0,0,0,.49,1.54,1.46,1.46,0,0,0,1.21.65,2,2,0,0,0,.55-.08,3.38,3.38,0,0,0,.59-.28l.45-.24.57-.29a14.54,14.54,0,0,1,1.64-.71,4.74,4.74,0,0,1,1.54-.24,2.25,2.25,0,0,1,1.6.52,1.9,1.9,0,0,1,.56,1.5,5.61,5.61,0,0,1-1.9,3.66l-6.12,6.38a3.16,3.16,0,0,0-1,2.25A2.13,2.13,0,0,0,9.84,38a2.16,2.16,0,0,0,1.64.62H22a2.86,2.86,0,0,0,1.89-.52,2,2,0,0,0,.62-1.61,1.91,1.91,0,0,0-.62-1.58A3,3,0,0,0,22,34.42Zm13.71-9.18a5.49,5.49,0,0,0-2.44.54,4.53,4.53,0,0,0-1.77,1.45,7.55,7.55,0,0,1,1.08-3.76A2.74,2.74,0,0,1,35,22.13a3.76,3.76,0,0,1,1.33.23,15.65,15.65,0,0,1,1.58.69l.64.32c.36.19.65.33.86.42a2.11,2.11,0,0,0,.73.13,1.52,1.52,0,0,0,1.22-.62,2.33,2.33,0,0,0,.51-1.52,2.07,2.07,0,0,0-.22-1,2.42,2.42,0,0,0-.71-.78A9.26,9.26,0,0,0,38,18.55a11,11,0,0,0-3.3-.52,7.8,7.8,0,0,0-4.49,1.3,8.33,8.33,0,0,0-3,3.71,14,14,0,0,0-1.05,5.64q0,4.91,2.22,7.56a7.74,7.74,0,0,0,6.29,2.65A7.46,7.46,0,0,0,38.37,38a6.47,6.47,0,0,0,2.53-2.5,7.16,7.16,0,0,0,.91-3.62,7.25,7.25,0,0,0-.8-3.42,5.8,5.8,0,0,0-5.29-3.22Zm-1.33,9.58a2.31,2.31,0,0,1-1.79-.76,2.84,2.84,0,0,1-.69-2,2.88,2.88,0,0,1,.68-2,2.56,2.56,0,0,1,3.61,0,2.93,2.93,0,0,1,.65,2,2.9,2.9,0,0,1-.67,2A2.27,2.27,0,0,1,34.39,34.82ZM22.19,66.47H19.83V52.8a2.52,2.52,0,0,0-.71-1.88,2.54,2.54,0,0,0-1.86-.69,4.85,4.85,0,0,0-2.39.72l-4.62,2.68a2,2,0,0,0-1,1.79A2.39,2.39,0,0,0,9.82,57a1.72,1.72,0,0,0,1.38.71,2,2,0,0,0,1-.29l2.31-1.35V66.47H12.18a2.91,2.91,0,0,0-1.9.52,1.93,1.93,0,0,0-.61,1.56c0,1.42.84,2.14,2.51,2.14h10c1.68,0,2.52-.72,2.52-2.14A2,2,0,0,0,24.1,67,2.93,2.93,0,0,0,22.19,66.47ZM34.8,57.38A7.32,7.32,0,0,0,32,57.9V54.35h6.23c1.67,0,2.51-.67,2.51-2s-.84-2-2.51-2H29.24a2.43,2.43,0,0,0-1.82.64,2.47,2.47,0,0,0-.64,1.84v7.82a1.61,1.61,0,0,0,.55,1.26,2,2,0,0,0,1.36.48,2.81,2.81,0,0,0,1.3-.32,9.31,9.31,0,0,1,1.66-.52,7.54,7.54,0,0,1,1.57-.15,3.22,3.22,0,0,1,2.25.73,2.56,2.56,0,0,1,.81,2,2.49,2.49,0,0,1-.78,2,3.72,3.72,0,0,1-2.4.65,4.88,4.88,0,0,1-1.6-.26,15.39,15.39,0,0,1-1.63-.69l-.58-.29a7.41,7.41,0,0,0-.86-.43,1.94,1.94,0,0,0-.72-.12,1.52,1.52,0,0,0-1.22.62A2.41,2.41,0,0,0,26,67.17a2.19,2.19,0,0,0,.22,1,2.46,2.46,0,0,0,.68.79,9.51,9.51,0,0,0,3,1.45,12.21,12.21,0,0,0,3.5.52,9.33,9.33,0,0,0,4.13-.87,6.55,6.55,0,0,0,2.77-2.45,7.45,7.45,0,0,0,.16-7.09,5.8,5.8,0,0,0-2.28-2.3A6.67,6.67,0,0,0,34.8,57.38Zm62.07-6.67a2.87,2.87,0,0,0,1.82-.6,2.66,2.66,0,0,0,1-1.7,4.6,4.6,0,0,1,1.12-2,24.09,24.09,0,0,1,2.53-2.33c1.16-1,2.11-1.91,2.85-2.65A9.84,9.84,0,0,0,108,38.76a7.46,7.46,0,0,0,.78-3.4,7.38,7.38,0,0,0-1.45-4.47,9.67,9.67,0,0,0-4-3.1,14.26,14.26,0,0,0-5.8-1.13,18.68,18.68,0,0,0-5.78.93,17.7,17.7,0,0,0-5.12,2.57,4.35,4.35,0,0,0-1.23,1.35,3.69,3.69,0,0,0-.37,1.75,4,4,0,0,0,.87,2.63A2.67,2.67,0,0,0,88.07,37a6,6,0,0,0,2.75-1l1.2-.6a17.76,17.76,0,0,1,2.52-1.22,6.27,6.27,0,0,1,2.28-.43,3.43,3.43,0,0,1,2.2.65,2.15,2.15,0,0,1,.8,1.75,3.57,3.57,0,0,1-.58,2,16.33,16.33,0,0,1-1.72,2.15A16.31,16.31,0,0,0,95,43.54a7.81,7.81,0,0,0-.9,3.92,3.58,3.58,0,0,0,.72,2.4A2.52,2.52,0,0,0,96.87,50.71ZM97,62.66a4.66,4.66,0,0,0,3.47-1.4,5,5,0,0,0,0-6.9,5,5,0,0,0-6.9,0,5,5,0,0,0,0,6.9A4.63,4.63,0,0,0,97,62.66ZM55.19,103.34h8.18a4,4,0,0,0,2.72-.81,2.88,2.88,0,0,0,.89-2.24,2.81,2.81,0,0,0-.89-2.22,4.05,4.05,0,0,0-2.72-.78H55.19q-3.61,0-3.62,3T55.19,103.34Zm-14.72-58h0a2.61,2.61,0,0,0-2.62-2.61H10.6A2.61,2.61,0,0,0,8,45.37H8A2.62,2.62,0,0,0,10.6,48H37.85A2.62,2.62,0,0,0,40.47,45.37Z"/></svg>