<svg id="Layer_1" data-name="Layer 1" xmlns="http://www.w3.org/2000/svg" viewBox="0 0 122.3 122.3"><title>l9_2_1</title><path d="M122.25,42.58V59.25a8.65,8.65,0,0,1-8.65,8.65H99.52q0,11.23,0,22.48A4.37,4.37,0,0,1,94.88,95H76.73v3.75a8.7,8.7,0,0,1-8.7,8.69H51.45a8.69,8.69,0,0,1-8.69-8.69V95H24.42a4.43,4.43,0,0,1-2.92-1.23,4.9,4.9,0,0,1-1.31-3c-.33-2.63-.36-11.2,0-22.91H8.72A8.66,8.66,0,0,1,.07,59.25V42.58a8.65,8.65,0,0,1,8.65-8.65H42.37A8.65,8.65,0,0,1,51,42.58V59.25a8.65,8.65,0,0,1-8.65,8.65H28.67q0,9.21,0,18.42h14V82.2a8.69,8.69,0,0,1,8.69-8.69H68a8.7,8.7,0,0,1,8.7,8.69v4.12H90.92q0-9.21,0-18.42H80a8.65,8.65,0,0,1-8.65-8.65V42.58A8.65,8.65,0,0,1,80,33.93H113.6A8.65,8.65,0,0,1,122.25,42.58ZM12.92,54.9H11.44V46.36A1.58,1.58,0,0,0,11,45.19a1.61,1.61,0,0,0-1.16-.43,3,3,0,0,0-1.49.45L5.47,46.89A1.2,1.2,0,0,0,4.83,48a1.46,1.46,0,0,0,.37,1,1.05,1.05,0,0,0,.86.44,1.12,1.12,0,0,0,.63-.18l1.44-.84v6.5H6.67a1.8,1.8,0,0,0-1.19.32,1.22,1.22,0,0,0-.37,1c0,.89.52,1.33,1.56,1.33h6.25c1,0,1.56-.44,1.56-1.33a1.22,1.22,0,0,0-.37-1A1.8,1.8,0,0,0,12.92,54.9ZM22.64,51a2.69,2.69,0,0,0,1.41-1.06,3.15,3.15,0,0,0,.51-1.8,3,3,0,0,0-1.25-2.53,5.59,5.59,0,0,0-3.41-.93,5.6,5.6,0,0,0-3.4.93,3,3,0,0,0-1.26,2.53,3.08,3.08,0,0,0,.5,1.75A3,3,0,0,0,17.18,51a3,3,0,0,0-1.69,1.07,3.2,3.2,0,0,0-.59,2,3.11,3.11,0,0,0,1.34,2.68,6.16,6.16,0,0,0,3.66,1,6.16,6.16,0,0,0,3.66-1,3.38,3.38,0,0,0,.76-4.61A3.16,3.16,0,0,0,22.64,51ZM19.9,55.17c-1.31,0-2-.47-2-1.41s.65-1.4,2-1.4,2,.47,2,1.4S21.21,55.17,19.9,55.17Zm0-8a1.94,1.94,0,0,1,1.21.32,1.24,1.24,0,0,1,.39,1,1.25,1.25,0,0,1-.39,1,1.88,1.88,0,0,1-1.21.33,1.83,1.83,0,0,1-1.2-.33,1.22,1.22,0,0,1-.4-1,1.21,1.21,0,0,1,.4-1A1.89,1.89,0,0,1,19.9,47.17ZM34,51.28H31.76V49A1,1,0,0,0,30.7,48,1,1,0,0,0,29.64,49v2.27H27.37a1,1,0,0,0-1.06,1.06,1,1,0,0,0,.31.77,1,1,0,0,0,.75.31h2.27v2.25a1,1,0,0,0,1.06,1.06,1,1,0,0,0,.77-.3,1.09,1.09,0,0,0,.29-.76V53.42H34a1,1,0,0,0,.76-.31,1.08,1.08,0,0,0,.3-.77A1,1,0,0,0,34,51.28Zm11.11-6.45H38.08a1.78,1.78,0,0,0-1.19.34,1.48,1.48,0,0,0,0,2,1.85,1.85,0,0,0,1.2.32h4.5L38,55.36a1.8,1.8,0,0,0-.25.87,1.32,1.32,0,0,0,.49,1,1.6,1.6,0,0,0,1.11.43,1.54,1.54,0,0,0,.77-.21,1.66,1.66,0,0,0,.62-.64l5.45-9.45a2.28,2.28,0,0,0,.35-1.19,1.43,1.43,0,0,0-.35-1A1.29,1.29,0,0,0,45.14,44.83Zm48.67,11.9H89l3.41-3.48a11.18,11.18,0,0,0,2-2.7A6,6,0,0,0,95,47.87a4.35,4.35,0,0,0-.73-2.5,4.66,4.66,0,0,0-2.08-1.68,7.55,7.55,0,0,0-3.12-.59,9.34,9.34,0,0,0-2.77.43,9.52,9.52,0,0,0-2.53,1.2,1.63,1.63,0,0,0-.59.62,2.19,2.19,0,0,0-.15.87,2.08,2.08,0,0,0,.4,1.28,1.24,1.24,0,0,0,1,.54,1.43,1.43,0,0,0,.46-.07,2.61,2.61,0,0,0,.49-.23l.37-.2.48-.24a11.69,11.69,0,0,1,1.36-.59,3.78,3.78,0,0,1,1.28-.2,1.87,1.87,0,0,1,1.33.43,1.59,1.59,0,0,1,.47,1.25,4.68,4.68,0,0,1-1.58,3L84,56.54a2.64,2.64,0,0,0-.82,1.87,1.79,1.79,0,0,0,.51,1.31,1.83,1.83,0,0,0,1.37.51h8.76a2.41,2.41,0,0,0,1.57-.43,1.66,1.66,0,0,0,.51-1.34,1.6,1.6,0,0,0-.51-1.31A2.47,2.47,0,0,0,93.81,56.73Zm11.4-7.63a4.68,4.68,0,0,0-2,.44,3.86,3.86,0,0,0-1.48,1.21,6.49,6.49,0,0,1,.9-3.13,2.31,2.31,0,0,1,2-1.11,3.2,3.2,0,0,1,1.11.19q.53.19,1.32.57l.52.27.72.35a1.64,1.64,0,0,0,.6.1,1.28,1.28,0,0,0,1-.51,2,2,0,0,0,.42-1.26,1.74,1.74,0,0,0-.18-.84,2,2,0,0,0-.58-.65,7.83,7.83,0,0,0-2.42-1.2,9.2,9.2,0,0,0-2.74-.43,6.52,6.52,0,0,0-3.74,1.08,7.08,7.08,0,0,0-2.47,3.08A11.72,11.72,0,0,0,97.29,52a9.55,9.55,0,0,0,1.84,6.29,6.47,6.47,0,0,0,5.24,2.21,6.22,6.22,0,0,0,3-.74,5.32,5.32,0,0,0,2.1-2.08,5.93,5.93,0,0,0,.76-3,6,6,0,0,0-.66-2.85,4.9,4.9,0,0,0-1.81-2A4.78,4.78,0,0,0,105.21,49.1Zm-1.11,8a1.94,1.94,0,0,1-1.49-.64,2.36,2.36,0,0,1-.57-1.64,2.42,2.42,0,0,1,.56-1.66,1.92,1.92,0,0,1,1.5-.62,1.89,1.89,0,0,1,1.5.61,2.43,2.43,0,0,1,.54,1.67,2.38,2.38,0,0,1-.55,1.65A1.88,1.88,0,0,1,104.1,57.07ZM55.67,94.94h8.14a3.92,3.92,0,0,0,2.71-.8,2.84,2.84,0,0,0,.89-2.23,2.76,2.76,0,0,0-.89-2.2,4,4,0,0,0-2.71-.78H55.67q-3.59,0-3.59,3T55.67,94.94Z"/></svg>