<svg id="Layer_1" data-name="Layer 1" xmlns="http://www.w3.org/2000/svg" viewBox="0 0 122.3 122.3"><title>l9_2_1</title><path d="M122.37,40.74V57.4a8.65,8.65,0,0,1-8.65,8.65H99.64l0,22.49A4.38,4.38,0,0,1,95,93.2H76.85v3.74a8.69,8.69,0,0,1-8.69,8.69H51.57a8.69,8.69,0,0,1-8.69-8.69V93.2H24.54A4.4,4.4,0,0,1,21.62,92a4.94,4.94,0,0,1-1.31-3c-.33-2.63-.36-11.2,0-22.91H8.85A8.65,8.65,0,0,1,.2,57.4V40.74a8.66,8.66,0,0,1,8.65-8.66H42.5a8.66,8.66,0,0,1,8.65,8.66V57.4a8.65,8.65,0,0,1-8.65,8.65H28.8q0,9.21.05,18.42h14V80.36a8.69,8.69,0,0,1,8.69-8.69H68.16a8.69,8.69,0,0,1,8.69,8.69v4.11H91q0-9.21,0-18.42h-11a8.65,8.65,0,0,1-8.65-8.65V40.74a8.66,8.66,0,0,1,8.65-8.66h33.65A8.66,8.66,0,0,1,122.37,40.74ZM13,53.05H11.57V44.52a1.55,1.55,0,0,0-.45-1.17A1.57,1.57,0,0,0,10,42.92a3.06,3.06,0,0,0-1.49.45L5.59,45A1.23,1.23,0,0,0,5,46.16a1.52,1.52,0,0,0,.36,1,1.09,1.09,0,0,0,.86.44,1.21,1.21,0,0,0,.63-.18l1.44-.85v6.5H6.8a1.84,1.84,0,0,0-1.19.32,1.23,1.23,0,0,0-.38,1c0,.89.52,1.33,1.57,1.33H13c1.05,0,1.57-.44,1.57-1.33a1.23,1.23,0,0,0-.38-1A1.84,1.84,0,0,0,13,53.05Zm9.72-3.91a2.64,2.64,0,0,0,1.41-1.06,3.06,3.06,0,0,0,.52-1.8,3,3,0,0,0-1.25-2.53A5.68,5.68,0,0,0,20,42.83a5.7,5.7,0,0,0-3.41.92,3,3,0,0,0-1.26,2.53A3,3,0,0,0,15.87,48a2.83,2.83,0,0,0,1.44,1.1,3,3,0,0,0-1.69,1.08,3.41,3.41,0,0,0,.74,4.64,6.22,6.22,0,0,0,3.67,1,6.21,6.21,0,0,0,3.66-1A3.11,3.11,0,0,0,25,52.19a3,3,0,0,0-2.27-3ZM20,53.32c-1.31,0-2-.47-2-1.4s.66-1.41,2-1.41,2,.47,2,1.41S21.33,53.32,20,53.32Zm0-8a1.89,1.89,0,0,1,1.2.31,1.21,1.21,0,0,1,.4,1,1.24,1.24,0,0,1-.4,1A1.89,1.89,0,0,1,20,48a1.92,1.92,0,0,1-1.21-.32,1.28,1.28,0,0,1-.4-1,1.24,1.24,0,0,1,.4-1A1.93,1.93,0,0,1,20,45.33Zm14.13,4.1H31.89V47.16a1,1,0,0,0-.31-.75,1,1,0,0,0-.75-.31,1,1,0,0,0-.76.31,1,1,0,0,0-.31.75v2.27H27.5a1,1,0,0,0-.76.31,1,1,0,0,0-.31.75,1.07,1.07,0,0,0,.31.77,1,1,0,0,0,.76.32h2.26v2.25a1,1,0,0,0,.31.75,1,1,0,0,0,.76.31,1,1,0,0,0,.76-.31,1,1,0,0,0,.3-.75V51.58h2.27a1,1,0,0,0,.75-.32,1,1,0,0,0,.31-.77,1,1,0,0,0-.31-.75A1,1,0,0,0,34.16,49.43ZM45.5,51h-.4v-6.5a1.52,1.52,0,0,0-.49-1.21,1.72,1.72,0,0,0-1.17-.43,1.77,1.77,0,0,0-.8.19,1.7,1.7,0,0,0-.64.55L36.86,51a2,2,0,0,0-.4,1.19,1.37,1.37,0,0,0,.38,1,1.32,1.32,0,0,0,1,.4h4v.61a1.56,1.56,0,0,0,.44,1.22,1.6,1.6,0,0,0,1.16.42,1.65,1.65,0,0,0,1.17-.42,1.56,1.56,0,0,0,.45-1.22v-.61h.4c1,0,1.56-.43,1.56-1.28S46.54,51,45.5,51Zm-5.78,0,2.16-3.12V51Zm54.21,3.86H89.11l3.4-3.48a11,11,0,0,0,2-2.7A6,6,0,0,0,95.11,46a4.39,4.39,0,0,0-.74-2.51,4.63,4.63,0,0,0-2.07-1.68,7.79,7.79,0,0,0-3.12-.59,9.8,9.8,0,0,0-5.31,1.63,1.62,1.62,0,0,0-.58.63,1.94,1.94,0,0,0-.16.86,2.09,2.09,0,0,0,.41,1.29,1.22,1.22,0,0,0,1,.54,1.33,1.33,0,0,0,.45-.08,2.26,2.26,0,0,0,.49-.22l.38-.21.48-.24a13.64,13.64,0,0,1,1.35-.59,4.06,4.06,0,0,1,1.29-.2,1.88,1.88,0,0,1,1.33.43,1.64,1.64,0,0,1,.47,1.25,4.68,4.68,0,0,1-1.59,3l-5.08,5.3a2.62,2.62,0,0,0-.82,1.87,1.75,1.75,0,0,0,1.87,1.83h8.76A2.45,2.45,0,0,0,95.5,58,1.65,1.65,0,0,0,96,56.61a1.58,1.58,0,0,0-.52-1.31A2.45,2.45,0,0,0,93.93,54.88Zm15,0h-2V43.51a2,2,0,0,0-2.14-2.14,4.08,4.08,0,0,0-2,.6L99,44.2a1.64,1.64,0,0,0-.84,1.49A2,2,0,0,0,98.68,47a1.46,1.46,0,0,0,1.15.59,1.63,1.63,0,0,0,.84-.24l1.92-1.13v8.66h-1.94a2.37,2.37,0,0,0-1.58.44,1.59,1.59,0,0,0-.51,1.29c0,1.19.7,1.78,2.09,1.78H109c1.39,0,2.09-.59,2.09-1.78a1.59,1.59,0,0,0-.51-1.29A2.37,2.37,0,0,0,109,54.88ZM55.8,93.1h8.14a3.94,3.94,0,0,0,2.7-.8,2.87,2.87,0,0,0,.89-2.23,2.8,2.8,0,0,0-.89-2.21,4,4,0,0,0-2.7-.78H55.8q-3.6,0-3.6,3T55.8,93.1Z"/></svg>