<svg id="Layer_1" data-name="Layer 1" xmlns="http://www.w3.org/2000/svg" viewBox="0 0 122.3 122.3"><title>l9_2_1</title><path d="M122.24,46.23V62.89a8.65,8.65,0,0,1-8.65,8.65H99.51q0,11.25,0,22.49a4.51,4.51,0,0,1-1.23,3.35,4.57,4.57,0,0,1-3.43,1.31H76.72v3.74a8.71,8.71,0,0,1-8.7,8.7H51.44a8.7,8.7,0,0,1-8.69-8.7V98.69H24.41a4.4,4.4,0,0,1-2.92-1.24,4.88,4.88,0,0,1-1.31-3c-.33-2.64-.36-11.21,0-22.92H8.72A8.66,8.66,0,0,1,.06,62.89V46.23a8.66,8.66,0,0,1,8.66-8.65H42.36A8.65,8.65,0,0,1,51,46.23V62.89a8.65,8.65,0,0,1-8.65,8.65H28.66q0,9.21.05,18.42h14V85.85a8.69,8.69,0,0,1,8.69-8.69H68a8.7,8.7,0,0,1,8.7,8.69V90H90.91q0-9.21,0-18.42h-11a8.65,8.65,0,0,1-8.65-8.65V46.23a8.65,8.65,0,0,1,8.65-8.65h33.65A8.65,8.65,0,0,1,122.24,46.23ZM14.29,59.1H12.57v-10a1.77,1.77,0,0,0-1.87-1.87A3.58,3.58,0,0,0,9,47.81L5.59,49.76a1.42,1.42,0,0,0-.73,1.3,1.79,1.79,0,0,0,.42,1.15,1.26,1.26,0,0,0,1,.51A1.43,1.43,0,0,0,7,52.51l1.68-1V59.1H7a2.09,2.09,0,0,0-1.38.38,1.4,1.4,0,0,0-.45,1.14c0,1,.61,1.55,1.83,1.55h7.29c1.22,0,1.83-.52,1.83-1.55a1.4,1.4,0,0,0-.45-1.14A2.09,2.09,0,0,0,14.29,59.1ZM19,62.3a2,2,0,0,0,1.44-.59,2.1,2.1,0,0,0,0-2.9A2,2,0,0,0,19,58.22a2,2,0,0,0-1.46.59,2.1,2.1,0,0,0,0,2.9A2,2,0,0,0,19,62.3Zm11.82-7.75a3.41,3.41,0,0,0,1.67-1.27,3.49,3.49,0,0,0,.6-2,3.65,3.65,0,0,0-.64-2.14,4.06,4.06,0,0,0-1.82-1.43,7,7,0,0,0-2.75-.5,8.37,8.37,0,0,0-2.48.37,7.49,7.49,0,0,0-2.14,1.05,2,2,0,0,0-.5.57,1.62,1.62,0,0,0-.15.74A1.71,1.71,0,0,0,23,51a1.09,1.09,0,0,0,.88.45,1.47,1.47,0,0,0,.53-.09l.63-.31.44-.21a10.24,10.24,0,0,1,1.14-.5,3.12,3.12,0,0,1,1.11-.19,1.8,1.8,0,0,1,1.28.43,1.6,1.6,0,0,1,.46,1.21,1.19,1.19,0,0,1-.53,1.07,3.26,3.26,0,0,1-1.68.33H26.3a1.2,1.2,0,0,0-1,.45,1.58,1.58,0,0,0-.35,1,1.63,1.63,0,0,0,.35,1.06,1.22,1.22,0,0,0,1,.44h1.3a3.23,3.23,0,0,1,1.72.35,1.33,1.33,0,0,1,.53,1.18A1.44,1.44,0,0,1,29.33,59a2.91,2.91,0,0,1-1.69.38,3.74,3.74,0,0,1-1.2-.18,8.79,8.79,0,0,1-1.21-.52L25,58.55l-.2-.1q-.4-.21-.63-.3a1.47,1.47,0,0,0-.53-.1,1.1,1.1,0,0,0-.88.46,1.71,1.71,0,0,0-.36,1.1,1.59,1.59,0,0,0,.15.72,1.67,1.67,0,0,0,.5.58A6.76,6.76,0,0,0,25.21,62a9.12,9.12,0,0,0,2.62.37,7.69,7.69,0,0,0,3-.52,4.32,4.32,0,0,0,2-1.46,3.66,3.66,0,0,0,.69-2.22,3.71,3.71,0,0,0-.7-2.29A3.59,3.59,0,0,0,30.81,54.55Zm13.13,0a3.17,3.17,0,0,0,1.65-1.24,3.65,3.65,0,0,0,.6-2.1,3.48,3.48,0,0,0-1.46-3,6.57,6.57,0,0,0-4-1.08,6.56,6.56,0,0,0-4,1.08,3.46,3.46,0,0,0-1.47,3,3.53,3.53,0,0,0,.59,2,3.44,3.44,0,0,0,1.68,1.29,3.46,3.46,0,0,0-2,1.25,3.7,3.7,0,0,0-.69,2.3,3.63,3.63,0,0,0,1.56,3.12,7.29,7.29,0,0,0,4.28,1.12A7.26,7.26,0,0,0,45,61.22a3.7,3.7,0,0,0-1.08-6.67Zm-3.19,4.87c-1.53,0-2.29-.55-2.29-1.64s.76-1.64,2.29-1.64S43,56.69,43,57.78,42.27,59.42,40.75,59.42Zm0-9.32a2.23,2.23,0,0,1,1.4.36,1.43,1.43,0,0,1,.47,1.19,1.47,1.47,0,0,1-.47,1.2,2.17,2.17,0,0,1-1.4.38,2.22,2.22,0,0,1-1.41-.38,1.46,1.46,0,0,1-.46-1.2,1.43,1.43,0,0,1,.46-1.19A2.29,2.29,0,0,1,40.75,50.1Zm55.68,7.19A1.4,1.4,0,0,0,97.3,57a1.28,1.28,0,0,0,.47-.82,2.26,2.26,0,0,1,.54-1,11,11,0,0,1,1.21-1.11c.56-.5,1-.92,1.37-1.28a4.83,4.83,0,0,0,.9-1.27,3.55,3.55,0,0,0,.37-1.63,3.51,3.51,0,0,0-.7-2.15,4.61,4.61,0,0,0-1.92-1.49,6.79,6.79,0,0,0-2.78-.54,8.87,8.87,0,0,0-2.77.45,8.59,8.59,0,0,0-2.46,1.23,2.19,2.19,0,0,0-.59.65,1.8,1.8,0,0,0-.18.84,1.92,1.92,0,0,0,.42,1.26,1.26,1.26,0,0,0,1,.52,2.85,2.85,0,0,0,1.32-.46l.58-.29a8.13,8.13,0,0,1,1.21-.58,3,3,0,0,1,1.09-.21,1.69,1.69,0,0,1,1.06.31,1,1,0,0,1,.38.84,1.67,1.67,0,0,1-.28,1,7.9,7.9,0,0,1-.82,1,7.52,7.52,0,0,0-1.2,1.54,3.77,3.77,0,0,0-.44,1.89,1.74,1.74,0,0,0,.35,1.15A1.22,1.22,0,0,0,96.43,57.29Zm0,5.73a2.24,2.24,0,0,0,1.67-.67,2.41,2.41,0,0,0,0-3.31,2.24,2.24,0,0,0-1.67-.67,2.2,2.2,0,0,0-1.64.67,2.41,2.41,0,0,0,0,3.31A2.2,2.2,0,0,0,96.47,63ZM55.66,98.59H63.8a4,4,0,0,0,2.71-.8,2.86,2.86,0,0,0,.89-2.23,2.8,2.8,0,0,0-.89-2.21,4,4,0,0,0-2.71-.78H55.66q-3.58,0-3.59,3T55.66,98.59Z"/></svg>