<svg id="Layer_1" data-name="Layer 1" xmlns="http://www.w3.org/2000/svg" viewBox="0 0 122.3 122.3"><title>l9_2_1</title><path d="M122.49,44.08V54.62a11.74,11.74,0,0,1-11.74,11.74h-11l0,22.52a4.53,4.53,0,0,1-1.24,3.35,4.49,4.49,0,0,1-3.43,1.31H75.29q-4,8.22-8.11,16.42c-.31.53-2.18,3.69-5.29,3.78s-5.27-3.28-5.55-3.78L47.52,93.54h-23a4.41,4.41,0,0,1-2.93-1.23,4.94,4.94,0,0,1-1.3-3c-.33-2.64-.36-11.22,0-23H11.87A11.74,11.74,0,0,1,.13,54.62V44.08A11.74,11.74,0,0,1,11.87,32.34H39.42A11.74,11.74,0,0,1,51.16,44.08V54.62A11.74,11.74,0,0,1,39.42,66.36H28.77q0,9.23.05,18.45h14q-1.77-3.32-3.56-6.62a8.51,8.51,0,0,1-.33-6.46,3.93,3.93,0,0,1,2.17-2.36L80,69.43a4.19,4.19,0,0,1,2.8,2.81,9.75,9.75,0,0,1,.12,6l-3.27,6.61h11.5q0-9.23,0-18.45H83.2A11.74,11.74,0,0,1,71.46,54.62V44.08A11.74,11.74,0,0,1,83.2,32.34h27.55A11.74,11.74,0,0,1,122.49,44.08Zm-65.71,47H65a4,4,0,0,0,2.72-.8A2.86,2.86,0,0,0,68.57,88a2.77,2.77,0,0,0-.89-2.22A4,4,0,0,0,65,85H56.78q-3.62,0-3.61,3T56.78,91.08ZM8.2,45.12a3.57,3.57,0,0,0-1.77.44A3,3,0,0,0,5.2,46.77a3.54,3.54,0,0,0-.44,1.76,3.58,3.58,0,0,0,.38,1.65A2.88,2.88,0,0,0,6.2,51.33a2.89,2.89,0,0,0,2.7.16,2.32,2.32,0,0,0,.86-.71,3.74,3.74,0,0,1-.53,1.83,1.34,1.34,0,0,1-1.15.65,2,2,0,0,1-.65-.11c-.2-.08-.46-.19-.77-.34l-.3-.15-.42-.21a1,1,0,0,0-.35-.06.74.74,0,0,0-.6.3,1.15,1.15,0,0,0-.24.74,1.07,1.07,0,0,0,.1.49,1.16,1.16,0,0,0,.34.37A4.33,4.33,0,0,0,6.6,55a5.4,5.4,0,0,0,1.6.26,3.8,3.8,0,0,0,2.18-.63,4.07,4.07,0,0,0,1.44-1.8,6.83,6.83,0,0,0,.51-2.74,5.61,5.61,0,0,0-1.07-3.67A3.77,3.77,0,0,0,8.2,45.12Zm.16,4.64a1.1,1.1,0,0,1-.88-.36,1.41,1.41,0,0,1-.31-1,1.39,1.39,0,0,1,.32-1,1.1,1.1,0,0,1,.87-.36,1.13,1.13,0,0,1,.87.37,1.4,1.4,0,0,1,.33,1,1.37,1.37,0,0,1-.33,1A1.1,1.1,0,0,1,8.36,49.76ZM19.08,50a2.14,2.14,0,0,0,1.1-.83,2.4,2.4,0,0,0,.4-1.4,2.35,2.35,0,0,0-1-2A4.4,4.4,0,0,0,17,45.12a4.35,4.35,0,0,0-2.64.72,2.31,2.31,0,0,0-1,2,2.42,2.42,0,0,0,.39,1.37,2.34,2.34,0,0,0,1.12.86,2.32,2.32,0,0,0-1.32.83,2.53,2.53,0,0,0-.46,1.53,2.43,2.43,0,0,0,1,2.08,4.82,4.82,0,0,0,2.85.75,4.78,4.78,0,0,0,2.85-.75,2.41,2.41,0,0,0,1.05-2.08,2.46,2.46,0,0,0-.46-1.5A2.41,2.41,0,0,0,19.08,50ZM17,53.29c-1,0-1.52-.37-1.52-1.1S15.94,51.1,17,51.1s1.53.37,1.53,1.09S18,53.29,17,53.29Zm0-6.22a1.51,1.51,0,0,1,.94.24,1,1,0,0,1,.31.8.94.94,0,0,1-.31.79,1.44,1.44,0,0,1-.94.26A1.41,1.41,0,0,1,16,48.9a.94.94,0,0,1-.31-.79,1,1,0,0,1,.31-.8A1.48,1.48,0,0,1,17,47.07Zm8.05-2a3.64,3.64,0,0,0-1.78.44A3.09,3.09,0,0,0,22,46.77a3.54,3.54,0,0,0-.44,1.76,3.58,3.58,0,0,0,.38,1.65A2.88,2.88,0,0,0,23,51.33a2.89,2.89,0,0,0,2.7.16,2.32,2.32,0,0,0,.86-.71A3.74,3.74,0,0,1,26,52.61a1.34,1.34,0,0,1-1.15.65,2,2,0,0,1-.65-.11c-.2-.08-.46-.19-.77-.34l-.3-.15-.42-.21a1,1,0,0,0-.35-.06.74.74,0,0,0-.6.3,1.15,1.15,0,0,0-.24.74,1.07,1.07,0,0,0,.1.49,1.16,1.16,0,0,0,.34.37,4.33,4.33,0,0,0,1.41.7,5.4,5.4,0,0,0,1.6.26,3.8,3.8,0,0,0,2.18-.63,4.07,4.07,0,0,0,1.44-1.8,6.83,6.83,0,0,0,.51-2.74,5.61,5.61,0,0,0-1.07-3.67A3.77,3.77,0,0,0,25,45.12Zm.16,4.64a1.1,1.1,0,0,1-.88-.36,1.41,1.41,0,0,1-.31-1,1.39,1.39,0,0,1,.32-1,1.1,1.1,0,0,1,.87-.36,1.13,1.13,0,0,1,.87.37,1.4,1.4,0,0,1,.33,1,1.37,1.37,0,0,1-.33,1A1.1,1.1,0,0,1,25.16,49.76Zm11.18.5H34.58V48.5a.82.82,0,0,0-.83-.83.81.81,0,0,0-.59.24.82.82,0,0,0-.23.59v1.76H31.16a.77.77,0,0,0-.58.24.79.79,0,0,0-.24.59.81.81,0,0,0,.24.59.74.74,0,0,0,.58.25h1.77v1.75a.79.79,0,0,0,.82.82.83.83,0,0,0,.6-.23.84.84,0,0,0,.23-.59V51.93h1.76a.76.76,0,0,0,.59-.25.81.81,0,0,0,.24-.59.82.82,0,0,0-.83-.83ZM44.28,50a2.14,2.14,0,0,0,1.1-.83,2.4,2.4,0,0,0,.4-1.4,2.35,2.35,0,0,0-1-2,4.4,4.4,0,0,0-2.66-.72,4.35,4.35,0,0,0-2.64.72,2.31,2.31,0,0,0-1,2,2.42,2.42,0,0,0,.39,1.37A2.34,2.34,0,0,0,40,50a2.32,2.32,0,0,0-1.32.83,2.46,2.46,0,0,0-.46,1.53,2.43,2.43,0,0,0,1,2.08,4.82,4.82,0,0,0,2.85.75A4.78,4.78,0,0,0,45,54.48a2.4,2.4,0,0,0,1-2.08,2.45,2.45,0,0,0-.45-1.5A2.41,2.41,0,0,0,44.28,50Zm-2.13,3.25c-1,0-1.52-.37-1.52-1.1s.51-1.09,1.52-1.09,1.53.37,1.53,1.09S43.17,53.29,42.15,53.29Zm0-6.22a1.51,1.51,0,0,1,.94.24,1,1,0,0,1,.31.8.94.94,0,0,1-.31.79,1.44,1.44,0,0,1-.94.26,1.41,1.41,0,0,1-.93-.26.94.94,0,0,1-.31-.79,1,1,0,0,1,.31-.8A1.48,1.48,0,0,1,42.15,47.07Zm54.34,5.17a1.4,1.4,0,0,0,.87-.29,1.24,1.24,0,0,0,.47-.82,2.26,2.26,0,0,1,.54-1A12,12,0,0,1,99.58,49c.56-.49,1-.92,1.37-1.27a4.83,4.83,0,0,0,.9-1.27,3.73,3.73,0,0,0-.32-3.78,4.74,4.74,0,0,0-1.92-1.49,6.87,6.87,0,0,0-2.79-.54,8.87,8.87,0,0,0-2.77.45,8.59,8.59,0,0,0-2.46,1.23A2.19,2.19,0,0,0,91,43a1.74,1.74,0,0,0-.18.84,1.92,1.92,0,0,0,.42,1.26,1.26,1.26,0,0,0,1,.52,2.85,2.85,0,0,0,1.32-.46l.58-.29a8.62,8.62,0,0,1,1.21-.58,3,3,0,0,1,1.09-.21,1.69,1.69,0,0,1,1.06.31,1,1,0,0,1,.38.84,1.74,1.74,0,0,1-.27,1,7.46,7.46,0,0,1-.83,1,8.23,8.23,0,0,0-1.2,1.55,3.77,3.77,0,0,0-.43,1.89,1.73,1.73,0,0,0,.34,1.15A1.24,1.24,0,0,0,96.49,52.24Zm0,5.73a2.22,2.22,0,0,0,1.67-.67,2.41,2.41,0,0,0,0-3.31,2.38,2.38,0,0,0-3.31,0,2.41,2.41,0,0,0,0,3.31A2.2,2.2,0,0,0,96.53,58Z"/></svg>