<svg id="Layer_1" data-name="Layer 1" xmlns="http://www.w3.org/2000/svg" viewBox="0 0 122.3 122.3"><title>l9_2_1</title><path d="M122.29,22.58v40.8a11.73,11.73,0,0,1-11.73,11.73h-11l0,22.5a4.39,4.39,0,0,1-4.67,4.67H76.73v.66a11.78,11.78,0,0,1-11.79,11.78H54.52a11.78,11.78,0,0,1-11.79-11.78v-.66H24.38A4.42,4.42,0,0,1,21.45,101a4.94,4.94,0,0,1-1.31-3c-.33-2.63-.36-11.21,0-22.93H11.74A11.73,11.73,0,0,1,0,63.38V22.58A11.73,11.73,0,0,1,11.74,10.85H39.27A11.74,11.74,0,0,1,51,22.58v40.8A11.74,11.74,0,0,1,39.27,75.11H28.63q0,9.23.05,18.44h14v-1A11.78,11.78,0,0,1,54.52,80.73H64.94A11.78,11.78,0,0,1,76.73,92.51v1h14.2q0-9.22,0-18.44H83A11.73,11.73,0,0,1,71.3,63.38V22.58A11.73,11.73,0,0,1,83,10.85h27.53A11.73,11.73,0,0,1,122.29,22.58ZM22.78,33.42H20.41V19.74a2.46,2.46,0,0,0-.71-1.87,2.51,2.51,0,0,0-1.86-.7,4.77,4.77,0,0,0-2.39.73l-4.62,2.68a2,2,0,0,0-1,1.79,2.41,2.41,0,0,0,.58,1.57,1.72,1.72,0,0,0,1.38.71,2,2,0,0,0,1-.29L15.1,23V33.42H12.76a2.86,2.86,0,0,0-1.9.52,2,2,0,0,0-.61,1.56c0,1.42.84,2.13,2.51,2.13h10c1.67,0,2.51-.71,2.51-2.13a1.92,1.92,0,0,0-.61-1.56A2.86,2.86,0,0,0,22.78,33.42Zm17.31,0H37.73V19.74a2.42,2.42,0,0,0-2.57-2.57,4.83,4.83,0,0,0-2.4.73l-4.62,2.68a2,2,0,0,0-1,1.79,2.46,2.46,0,0,0,.58,1.57,1.76,1.76,0,0,0,1.39.71,2,2,0,0,0,1-.29L32.42,23V33.42H30.08a2.89,2.89,0,0,0-1.91.52,2,2,0,0,0-.6,1.56c0,1.42.83,2.13,2.51,2.13h10c1.67,0,2.51-.71,2.51-2.13a2,2,0,0,0-.6-1.56A2.89,2.89,0,0,0,40.09,33.42ZM26.47,56.3a5.49,5.49,0,0,0-2.44.53,4.66,4.66,0,0,0-1.78,1.46,7.81,7.81,0,0,1,1.08-3.77,2.78,2.78,0,0,1,2.38-1.34,3.91,3.91,0,0,1,1.33.23c.43.16.95.39,1.59.69l.63.32q.55.28.87.42a1.81,1.81,0,0,0,.72.13,1.55,1.55,0,0,0,1.23-.62,2.36,2.36,0,0,0,.5-1.52,2.19,2.19,0,0,0-.21-1,2.66,2.66,0,0,0-.71-.78,9.48,9.48,0,0,0-2.9-1.44,11.46,11.46,0,0,0-3.31-.52A7.84,7.84,0,0,0,21,50.38a8.39,8.39,0,0,0-3,3.71,13.88,13.88,0,0,0-1.06,5.64q0,4.91,2.22,7.56A7.76,7.76,0,0,0,25.45,70a7.42,7.42,0,0,0,3.67-.9,6.47,6.47,0,0,0,2.53-2.5,7.76,7.76,0,0,0,.11-7,6,6,0,0,0-2.18-2.36A5.79,5.79,0,0,0,26.47,56.3Zm-1.33,9.58a2.31,2.31,0,0,1-1.79-.77,2.83,2.83,0,0,1-.69-2,2.88,2.88,0,0,1,.67-2,2.34,2.34,0,0,1,1.81-.75,2.27,2.27,0,0,1,1.8.74,3.38,3.38,0,0,1,0,4A2.28,2.28,0,0,1,25.14,65.88ZM96.87,49.71a2.87,2.87,0,0,0,1.82-.6,2.66,2.66,0,0,0,1-1.7,4.6,4.6,0,0,1,1.12-2,24.09,24.09,0,0,1,2.53-2.33c1.16-1,2.11-1.91,2.85-2.65A9.84,9.84,0,0,0,108,37.76a7.46,7.46,0,0,0,.78-3.4,7.38,7.38,0,0,0-1.45-4.47,9.67,9.67,0,0,0-4-3.1,14.26,14.26,0,0,0-5.8-1.13,18.68,18.68,0,0,0-5.78.93,17.7,17.7,0,0,0-5.12,2.57,4.35,4.35,0,0,0-1.23,1.35,3.69,3.69,0,0,0-.37,1.75,4,4,0,0,0,.87,2.63A2.67,2.67,0,0,0,88.07,36a6,6,0,0,0,2.75-1l1.2-.6a17.76,17.76,0,0,1,2.52-1.22,6.27,6.27,0,0,1,2.28-.43,3.43,3.43,0,0,1,2.2.65,2.15,2.15,0,0,1,.8,1.75,3.57,3.57,0,0,1-.58,2,16.33,16.33,0,0,1-1.72,2.15A16.31,16.31,0,0,0,95,42.54a7.81,7.81,0,0,0-.9,3.92,3.58,3.58,0,0,0,.72,2.4A2.52,2.52,0,0,0,96.87,49.71ZM97,61.66a4.66,4.66,0,0,0,3.47-1.4,5,5,0,0,0,0-6.9,5,5,0,0,0-6.9,0,5,5,0,0,0,0,6.9A4.63,4.63,0,0,0,97,61.66Zm-41.4,40.19h8.18a4,4,0,0,0,2.72-.8,2.89,2.89,0,0,0,.89-2.24,2.81,2.81,0,0,0-.89-2.22,4.05,4.05,0,0,0-2.72-.79H55.57q-3.62,0-3.61,3T55.57,101.85ZM42,43.42h0a2.62,2.62,0,0,0-2.62-2.62H12.12a2.62,2.62,0,0,0-2.61,2.62h0A2.62,2.62,0,0,0,12.12,46H39.38A2.62,2.62,0,0,0,42,43.42Z"/></svg>