<svg id="Layer_1" data-name="Layer 1" xmlns="http://www.w3.org/2000/svg" viewBox="0 0 122.3 122.3"><title>l9_2_1</title><path d="M122.32,25.58v40.8a11.73,11.73,0,0,1-11.73,11.73h-11q0,11.25,0,22.5a4.37,4.37,0,0,1-4.66,4.67H76.76v.66A11.78,11.78,0,0,1,65,117.72H54.55a11.78,11.78,0,0,1-11.79-11.78v-.66H24.41A4.42,4.42,0,0,1,21.48,104a4.94,4.94,0,0,1-1.31-3c-.33-2.63-.36-11.21,0-22.93H11.77A11.73,11.73,0,0,1,0,66.38V25.58A11.73,11.73,0,0,1,11.77,13.85H39.3A11.73,11.73,0,0,1,51,25.58v40.8A11.73,11.73,0,0,1,39.3,78.11H28.66q0,9.23.05,18.44h14v-1A11.78,11.78,0,0,1,54.55,83.73H65A11.78,11.78,0,0,1,76.76,95.51v1H91q0-9.22,0-18.44H83.06A11.74,11.74,0,0,1,71.32,66.38V25.58A11.74,11.74,0,0,1,83.06,13.85h27.53A11.73,11.73,0,0,1,122.32,25.58ZM22.8,36.42H20.44V22.74a2.42,2.42,0,0,0-2.57-2.57,4.83,4.83,0,0,0-2.4.73l-4.61,2.68a1.94,1.94,0,0,0-1,1.79,2.41,2.41,0,0,0,.58,1.57,1.72,1.72,0,0,0,1.38.71,2,2,0,0,0,1-.29L15.13,26V36.42H12.79a2.86,2.86,0,0,0-1.9.52,1.92,1.92,0,0,0-.61,1.56c0,1.42.84,2.13,2.51,2.13h10c1.68,0,2.51-.71,2.51-2.13a2,2,0,0,0-.6-1.56A2.87,2.87,0,0,0,22.8,36.42Zm12.93-9.18a5.52,5.52,0,0,0-2.44.54,4.53,4.53,0,0,0-1.77,1.45,7.55,7.55,0,0,1,1.08-3.76A2.75,2.75,0,0,1,35,24.13a3.72,3.72,0,0,1,1.33.23,16.71,16.71,0,0,1,1.59.69l.63.32c.37.19.65.33.87.42a2,2,0,0,0,.72.13,1.52,1.52,0,0,0,1.22-.62,2.33,2.33,0,0,0,.51-1.52,2.07,2.07,0,0,0-.22-1,2.5,2.5,0,0,0-.7-.78A9.48,9.48,0,0,0,38,20.55,11.13,11.13,0,0,0,34.72,20a7.8,7.8,0,0,0-4.49,1.3,8.33,8.33,0,0,0-3,3.71,14,14,0,0,0-1.05,5.64q0,4.91,2.22,7.56a7.74,7.74,0,0,0,6.29,2.65A7.52,7.52,0,0,0,38.39,40a6.44,6.44,0,0,0,2.52-2.5,7.16,7.16,0,0,0,.91-3.62A7.25,7.25,0,0,0,41,30.46a6,6,0,0,0-2.18-2.37A5.91,5.91,0,0,0,35.73,27.24ZM34.4,36.82a2.28,2.28,0,0,1-1.78-.76,2.8,2.8,0,0,1-.7-2,2.88,2.88,0,0,1,.68-2,2.56,2.56,0,0,1,3.61,0,2.93,2.93,0,0,1,.65,2,2.85,2.85,0,0,1-.67,2A2.27,2.27,0,0,1,34.4,36.82ZM30.59,52.34H19.28a2.83,2.83,0,0,0-1.91.54,2,2,0,0,0-.6,1.6A2,2,0,0,0,17.36,56a2.9,2.9,0,0,0,1.92.52h7.21L19.08,69.22a2.75,2.75,0,0,0-.41,1.39,2.12,2.12,0,0,0,.78,1.66,2.67,2.67,0,0,0,1.79.68,2.54,2.54,0,0,0,1.23-.34,2.7,2.7,0,0,0,1-1l8.75-15.15a3.73,3.73,0,0,0,.54-1.9A2.25,2.25,0,0,0,32.19,53,2.06,2.06,0,0,0,30.59,52.34Zm66.3.37a2.92,2.92,0,0,0,1.83-.6,2.61,2.61,0,0,0,1-1.7,4.73,4.73,0,0,1,1.13-2,22.87,22.87,0,0,1,2.52-2.33c1.17-1,2.12-1.91,2.85-2.65a9.87,9.87,0,0,0,1.88-2.65,7.45,7.45,0,0,0,.77-3.4,7.31,7.31,0,0,0-1.45-4.47,9.6,9.6,0,0,0-4-3.1,14.22,14.22,0,0,0-5.8-1.13,18.67,18.67,0,0,0-5.77.93,17.63,17.63,0,0,0-5.13,2.57,4.43,4.43,0,0,0-1.22,1.35,3.68,3.68,0,0,0-.38,1.75A4.05,4.05,0,0,0,86,37.89,2.66,2.66,0,0,0,88.09,39a6,6,0,0,0,2.75-1l1.2-.6a18.36,18.36,0,0,1,2.53-1.22,6.26,6.26,0,0,1,2.27-.43,3.39,3.39,0,0,1,2.2.65,2.12,2.12,0,0,1,.8,1.75,3.65,3.65,0,0,1-.57,2,15.72,15.72,0,0,1-1.73,2.15A16.7,16.7,0,0,0,95,45.54a7.81,7.81,0,0,0-.9,3.92,3.58,3.58,0,0,0,.73,2.4A2.5,2.5,0,0,0,96.89,52.71ZM97,64.66A4.85,4.85,0,1,0,97,55a4.62,4.62,0,0,0-3.42,1.4,5,5,0,0,0,0,6.9A4.62,4.62,0,0,0,97,64.66ZM55.6,104.85h8.18a4,4,0,0,0,2.72-.8,2.89,2.89,0,0,0,.89-2.24,2.81,2.81,0,0,0-.89-2.22,4.05,4.05,0,0,0-2.72-.79H55.6q-3.62,0-3.62,3T55.6,104.85ZM41,47h0a2.62,2.62,0,0,0-2.62-2.62H11.12A2.62,2.62,0,0,0,8.5,47h0a2.61,2.61,0,0,0,2.62,2.61H38.37A2.61,2.61,0,0,0,41,47Z"/></svg>