<svg id="Layer_1" data-name="Layer 1" xmlns="http://www.w3.org/2000/svg" viewBox="0 0 122.3 122.3"><title>l9_2_1</title><path d="M122.17,44.62V61.28a8.66,8.66,0,0,1-8.66,8.65H99.43l0,22.48a4.37,4.37,0,0,1-4.66,4.66H76.64v3.75A8.69,8.69,0,0,1,68,109.51H51.36a8.69,8.69,0,0,1-8.69-8.69V97.07H24.34a4.39,4.39,0,0,1-2.93-1.23,4.94,4.94,0,0,1-1.31-3c-.32-2.63-.36-11.2,0-22.91H8.64A8.65,8.65,0,0,1,0,61.28V44.62A8.66,8.66,0,0,1,8.64,36H42.29a8.66,8.66,0,0,1,8.65,8.66V61.28a8.65,8.65,0,0,1-8.65,8.65H28.59q0,9.21.05,18.42h14V84.24a8.7,8.7,0,0,1,8.69-8.7H68a8.7,8.7,0,0,1,8.69,8.7v4.11H90.83q0-9.21,0-18.42h-11a8.66,8.66,0,0,1-8.66-8.65V44.62A8.66,8.66,0,0,1,79.87,36h33.64A8.66,8.66,0,0,1,122.17,44.62ZM13.88,62.79a6.05,6.05,0,0,0,5.2-2.42c1.2-1.61,1.79-3.94,1.79-7s-.6-5.36-1.8-7A6.11,6.11,0,0,0,13.88,44a6.09,6.09,0,0,0-5.2,2.42c-1.2,1.61-1.79,3.94-1.79,7s.59,5.38,1.79,7A6.06,6.06,0,0,0,13.88,62.79Zm0-3.61a1.86,1.86,0,0,1-1.79-1.35,12.84,12.84,0,0,1-.55-4.45A12.64,12.64,0,0,1,12.09,49a1.85,1.85,0,0,1,1.79-1.34A1.88,1.88,0,0,1,15.68,49a13,13,0,0,1,.54,4.42,13.15,13.15,0,0,1-.54,4.45A1.88,1.88,0,0,1,13.88,59.18Zm11.34,3.53A2.41,2.41,0,0,0,27,62a2.51,2.51,0,0,0,.71-1.8A2.47,2.47,0,0,0,27,58.4a2.38,2.38,0,0,0-1.78-.73,2.48,2.48,0,0,0-2.53,2.52,2.47,2.47,0,0,0,.72,1.8A2.45,2.45,0,0,0,25.22,62.71ZM37.83,50.57a6.57,6.57,0,0,0-2.58.47v-3.2h5.62c1.51,0,2.26-.61,2.26-1.82s-.75-1.79-2.26-1.79H32.81a2.23,2.23,0,0,0-1.64.57,2.26,2.26,0,0,0-.57,1.66v7a1.42,1.42,0,0,0,.49,1.13,1.78,1.78,0,0,0,1.22.43,2.47,2.47,0,0,0,1.17-.29,9.08,9.08,0,0,1,1.5-.46,6.87,6.87,0,0,1,1.42-.13,2.89,2.89,0,0,1,2,.65,2.29,2.29,0,0,1,.73,1.82,2.24,2.24,0,0,1-.7,1.83,3.34,3.34,0,0,1-2.16.58,4.18,4.18,0,0,1-1.44-.23,15.87,15.87,0,0,1-1.47-.62L32.86,58q-.53-.28-.78-.39a1.73,1.73,0,0,0-.65-.11,1.35,1.35,0,0,0-1.09.56,2.1,2.1,0,0,0-.44,1.37,1.91,1.91,0,0,0,.19.89,2.34,2.34,0,0,0,.61.72,8.74,8.74,0,0,0,2.67,1.3,10.89,10.89,0,0,0,3.16.47A8.4,8.4,0,0,0,40.24,62a5.86,5.86,0,0,0,2.5-2.21,6.72,6.72,0,0,0,.14-6.39,5.32,5.32,0,0,0-2.05-2.08A6.06,6.06,0,0,0,37.83,50.57Zm58.52,5.11a1.41,1.41,0,0,0,.88-.29,1.29,1.29,0,0,0,.46-.82,2.2,2.2,0,0,1,.54-1,12.3,12.3,0,0,1,1.22-1.12c.56-.49,1-.92,1.36-1.27a4.41,4.41,0,0,0,.9-1.27,3.67,3.67,0,0,0-.32-3.78,4.61,4.61,0,0,0-1.92-1.49,6.83,6.83,0,0,0-2.78-.54,8.93,8.93,0,0,0-2.78.45,8.35,8.35,0,0,0-2.46,1.23,2.14,2.14,0,0,0-.58.65,1.74,1.74,0,0,0-.18.84,1.92,1.92,0,0,0,.42,1.26,1.29,1.29,0,0,0,1,.52,3,3,0,0,0,1.32-.46l.57-.29a10.12,10.12,0,0,1,1.21-.59,3.24,3.24,0,0,1,1.1-.2,1.6,1.6,0,0,1,1,.31,1,1,0,0,1,.39.84,1.79,1.79,0,0,1-.28,1,7.31,7.31,0,0,1-.83,1,8.23,8.23,0,0,0-1.2,1.55A3.72,3.72,0,0,0,95,54.12a1.74,1.74,0,0,0,.35,1.15A1.2,1.2,0,0,0,96.35,55.68Zm.05,5.73a2.24,2.24,0,0,0,1.67-.67,2.28,2.28,0,0,0,.66-1.66,2.29,2.29,0,0,0-2.33-2.33,2.22,2.22,0,0,0-1.65.68,2.25,2.25,0,0,0-.66,1.65,2.28,2.28,0,0,0,.66,1.66A2.21,2.21,0,0,0,96.4,61.41ZM55.59,97h8.14a3.94,3.94,0,0,0,2.7-.8A2.84,2.84,0,0,0,67.32,94a2.75,2.75,0,0,0-.89-2.21,4,4,0,0,0-2.7-.78H55.59c-2.4,0-3.6,1-3.6,3S53.19,97,55.59,97Z"/></svg>