<svg id="Layer_1" data-name="Layer 1" xmlns="http://www.w3.org/2000/svg" viewBox="0 0 122.3 122.3"><title>l9_2_1</title><path d="M122.37,38.32V48.86A11.74,11.74,0,0,1,110.63,60.6h-11l0,22.52A4.37,4.37,0,0,1,95,87.78H75.18Q71.11,96,67.06,104.2c-.3.53-2.18,3.69-5.28,3.78-3.26.1-5.27-3.28-5.56-3.78L47.4,87.78h-23a4.45,4.45,0,0,1-2.93-1.23,5,5,0,0,1-1.31-3c-.33-2.64-.36-11.22,0-22.95H11.76A11.74,11.74,0,0,1,0,48.86V38.32A11.74,11.74,0,0,1,11.76,26.58H39.3A11.74,11.74,0,0,1,51,38.32V48.86A11.74,11.74,0,0,1,39.3,60.6H28.66q0,9.23.05,18.45h14c-1.19-2.21-2.37-4.42-3.56-6.62A8.52,8.52,0,0,1,38.81,66,3.87,3.87,0,0,1,41,63.61l38.86.06a4.18,4.18,0,0,1,2.79,2.81,9.6,9.6,0,0,1,.12,6c-1.09,2.2-2.17,4.4-3.26,6.61H91q0-9.22,0-18.45H83.09A11.74,11.74,0,0,1,71.35,48.86V38.32A11.74,11.74,0,0,1,83.09,26.58h27.54A11.74,11.74,0,0,1,122.37,38.32Zm-65.7,47h8.18a4,4,0,0,0,2.72-.81,2.86,2.86,0,0,0,.89-2.24,2.83,2.83,0,0,0-.89-2.22,4.05,4.05,0,0,0-2.72-.78H56.67q-3.62,0-3.61,3C53.06,84.31,54.26,85.32,56.67,85.32ZM11.86,46.73H10.38V38.2a1.5,1.5,0,0,0-1.6-1.6,3.06,3.06,0,0,0-1.5.45L4.4,38.72a1.22,1.22,0,0,0-.63,1.12,1.52,1.52,0,0,0,.36,1,1.1,1.1,0,0,0,.87.44,1.26,1.26,0,0,0,.63-.18l1.44-.85v6.5H5.61a1.84,1.84,0,0,0-1.19.32A1.23,1.23,0,0,0,4,48c0,.88.53,1.33,1.57,1.33h6.25c1,0,1.56-.45,1.56-1.33a1.2,1.2,0,0,0-.38-1A1.81,1.81,0,0,0,11.86,46.73Zm9.72-3.91A2.64,2.64,0,0,0,23,41.76,3.12,3.12,0,0,0,23.5,40a3,3,0,0,0-1.25-2.53,5.59,5.59,0,0,0-3.41-.92,5.6,5.6,0,0,0-3.4.92A3,3,0,0,0,14.18,40a3.13,3.13,0,0,0,.5,1.76,3,3,0,0,0,1.44,1.1,3.06,3.06,0,0,0-1.69,1.07,3.17,3.17,0,0,0-.59,2,3.08,3.08,0,0,0,1.34,2.67,6.16,6.16,0,0,0,3.66,1,6.16,6.16,0,0,0,3.66-1,3.08,3.08,0,0,0,1.34-2.67,3,3,0,0,0-2.26-3ZM18.84,47c-1.31,0-2-.47-2-1.4s.65-1.41,2-1.41,2,.47,2,1.41S20.15,47,18.84,47Zm0-8a1.94,1.94,0,0,1,1.21.31,1.24,1.24,0,0,1,.39,1,1.27,1.27,0,0,1-.39,1,1.94,1.94,0,0,1-1.21.32,1.94,1.94,0,0,1-1.21-.32,1.27,1.27,0,0,1-.39-1,1.24,1.24,0,0,1,.39-1A1.94,1.94,0,0,1,18.84,39ZM33,43.11H30.7V40.84a1.06,1.06,0,1,0-2.12,0v2.27H26.31a1,1,0,0,0-1.06,1.06,1.08,1.08,0,0,0,.3.77,1,1,0,0,0,.76.31h2.27V47.5a1,1,0,0,0,.3.76,1.07,1.07,0,0,0,.76.31,1,1,0,0,0,.76-.31,1,1,0,0,0,.3-.76V45.25H33a1,1,0,0,0,.76-.31,1.08,1.08,0,0,0,.3-.77A1,1,0,0,0,33,43.11ZM44.31,44.7h-.4V38.2A1.55,1.55,0,0,0,43.43,37a1.8,1.8,0,0,0-2-.24,1.61,1.61,0,0,0-.64.55l-5.15,7.34a2.05,2.05,0,0,0-.4,1.19,1.34,1.34,0,0,0,1.41,1.39h4v.61a1.6,1.6,0,0,0,.44,1.22,1.62,1.62,0,0,0,1.16.42,1.65,1.65,0,0,0,1.17-.42,1.56,1.56,0,0,0,.45-1.22v-.61h.4c1,0,1.57-.43,1.57-1.28S45.35,44.7,44.31,44.7Zm-5.78,0,2.16-3.12V44.7Zm57.84,1.78a1.41,1.41,0,0,0,.88-.29,1.31,1.31,0,0,0,.47-.82,2.2,2.2,0,0,1,.54-1,12,12,0,0,1,1.21-1.12c.56-.49,1-.92,1.37-1.27a4.83,4.83,0,0,0,.9-1.27,3.58,3.58,0,0,0,.37-1.63,3.51,3.51,0,0,0-.7-2.15,4.61,4.61,0,0,0-1.92-1.49,6.79,6.79,0,0,0-2.78-.54,8.87,8.87,0,0,0-2.77.45,8.35,8.35,0,0,0-2.46,1.23,2.06,2.06,0,0,0-.59.65,1.74,1.74,0,0,0-.18.84,1.92,1.92,0,0,0,.42,1.26,1.29,1.29,0,0,0,1,.52,3,3,0,0,0,1.32-.46l.58-.29a9.44,9.44,0,0,1,1.21-.59,3.18,3.18,0,0,1,1.09-.2,1.63,1.63,0,0,1,1.06.31,1,1,0,0,1,.38.84,1.71,1.71,0,0,1-.28,1,7.9,7.9,0,0,1-.82,1A7.47,7.47,0,0,0,95.49,43a3.72,3.72,0,0,0-.44,1.89,1.74,1.74,0,0,0,.35,1.15A1.22,1.22,0,0,0,96.37,46.48Zm0,5.73a2.24,2.24,0,0,0,1.67-.67,2.41,2.41,0,0,0,0-3.31,2.24,2.24,0,0,0-1.67-.67,2.19,2.19,0,0,0-1.64.67,2.41,2.41,0,0,0,0,3.31A2.19,2.19,0,0,0,96.42,52.21Z"/></svg>