<svg id="Layer_1" data-name="Layer 1" xmlns="http://www.w3.org/2000/svg" viewBox="0 0 122.3 122.3"><title>l9_2_1</title><path d="M122.33,42.32V52.85A11.75,11.75,0,0,1,110.59,64.6h-11l0,22.51a4.39,4.39,0,0,1-4.67,4.67H75.13q-4,8.2-8.11,16.42c-.3.52-2.18,3.68-5.28,3.77-3.27.1-5.27-3.28-5.56-3.77L47.36,91.78h-23a4.42,4.42,0,0,1-2.93-1.24,4.88,4.88,0,0,1-1.31-3c-.33-2.63-.36-11.22,0-22.94H11.71A11.75,11.75,0,0,1,0,52.85V42.32A11.74,11.74,0,0,1,11.71,30.58H39.26A11.74,11.74,0,0,1,51,42.32V52.85A11.75,11.75,0,0,1,39.26,64.6H28.61q0,9.21.05,18.44h14l-3.55-6.62A8.51,8.51,0,0,1,38.77,70a4,4,0,0,1,2.17-2.36l38.86.06a4.19,4.19,0,0,1,2.8,2.81,9.71,9.71,0,0,1,.12,6L79.45,83H91q0-9.23,0-18.44H83A11.75,11.75,0,0,1,71.3,52.85V42.32A11.74,11.74,0,0,1,83,30.58h27.55A11.74,11.74,0,0,1,122.33,42.32Zm-65.71,47H64.8a3.93,3.93,0,0,0,2.72-.81,2.84,2.84,0,0,0,.9-2.24,2.78,2.78,0,0,0-.9-2.22,4,4,0,0,0-2.72-.78H56.62q-3.61,0-3.61,3T56.62,89.32ZM7.53,53.46a2.81,2.81,0,0,0,2.4-1.11,5.39,5.39,0,0,0,.83-3.23,5.37,5.37,0,0,0-.83-3.22,2.83,2.83,0,0,0-2.4-1.11,2.81,2.81,0,0,0-2.4,1.11,5.37,5.37,0,0,0-.83,3.22,5.39,5.39,0,0,0,.83,3.23A2.81,2.81,0,0,0,7.53,53.46Zm0-1.67a.86.86,0,0,1-.83-.62,6.2,6.2,0,0,1-.25-2.05,6.16,6.16,0,0,1,.25-2,.87.87,0,0,1,.83-.62.86.86,0,0,1,.83.63,5.84,5.84,0,0,1,.25,2,5.94,5.94,0,0,1-.25,2.05A.85.85,0,0,1,7.53,51.79Zm5.23,1.64a1.14,1.14,0,1,0-.83-.34A1.14,1.14,0,0,0,12.76,53.43Zm4.94-8.64a3.09,3.09,0,0,0-1.53.37,2.63,2.63,0,0,0-1.05,1,3.18,3.18,0,0,0,0,2.92,2.56,2.56,0,0,0,.91,1,2.48,2.48,0,0,0,1.3.35,2.29,2.29,0,0,0,1-.22,1.93,1.93,0,0,0,.74-.61,3.22,3.22,0,0,1-.45,1.57,1.15,1.15,0,0,1-1,.56,1.45,1.45,0,0,1-.55-.1,5.38,5.38,0,0,1-.66-.29l-.27-.13a2.65,2.65,0,0,0-.36-.17.73.73,0,0,0-.3-.06.64.64,0,0,0-.51.26,1,1,0,0,0-.21.63.87.87,0,0,0,.09.42,1.12,1.12,0,0,0,.3.33,4,4,0,0,0,1.2.6,4.82,4.82,0,0,0,1.38.21,3.23,3.23,0,0,0,1.86-.54,3.48,3.48,0,0,0,1.24-1.54A5.86,5.86,0,0,0,21.24,49a4.74,4.74,0,0,0-.93-3.14A3.2,3.2,0,0,0,17.7,44.79Zm.13,4a.93.93,0,0,1-.75-.31,1.2,1.2,0,0,1-.27-.83,1.22,1.22,0,0,1,.27-.83,1,1,0,0,1,.75-.31.93.93,0,0,1,.74.32,1.17,1.17,0,0,1,.29.82,1.19,1.19,0,0,1-.28.83A1,1,0,0,1,17.83,48.76Zm9.58.43H25.9V47.68a.73.73,0,0,0-.2-.51.74.74,0,0,0-1,0,.73.73,0,0,0-.2.51v1.51H23a.73.73,0,0,0-.51.2.75.75,0,0,0,0,1,.69.69,0,0,0,.51.21h1.51v1.5a.69.69,0,0,0,.2.5.68.68,0,0,0,.51.21.66.66,0,0,0,.5-.21.65.65,0,0,0,.2-.5v-1.5h1.51a.68.68,0,0,0,.51-.21.75.75,0,0,0,0-1A.71.71,0,0,0,27.41,49.19Zm5,4.27a2.8,2.8,0,0,0,2.39-1.11,5.32,5.32,0,0,0,.83-3.23,5.37,5.37,0,0,0-.83-3.22,3.15,3.15,0,0,0-4.8,0,5.37,5.37,0,0,0-.82,3.22A5.39,5.39,0,0,0,30,52.35,2.84,2.84,0,0,0,32.4,53.46Zm0-1.67a.85.85,0,0,1-.83-.62,5.94,5.94,0,0,1-.25-2.05,5.91,5.91,0,0,1,.25-2,.86.86,0,0,1,1.65,0,5.79,5.79,0,0,1,.26,2,5.89,5.89,0,0,1-.26,2.05A.85.85,0,0,1,32.4,51.79Zm5.23,1.64a1.14,1.14,0,0,0,1.15-1.17,1.15,1.15,0,0,0-.33-.83,1.12,1.12,0,0,0-.82-.33,1.17,1.17,0,1,0,0,2.33Zm7.81-3.18h-.27V45.91a1,1,0,0,0-.32-.8,1.16,1.16,0,0,0-.78-.29,1.12,1.12,0,0,0-.53.13,1,1,0,0,0-.43.36l-3.43,4.9a1.32,1.32,0,0,0-.27.79.9.9,0,0,0,.26.66.87.87,0,0,0,.68.27H43v.4a1.05,1.05,0,0,0,.29.82,1.1,1.1,0,0,0,.77.28,1.13,1.13,0,0,0,.78-.28,1.06,1.06,0,0,0,.3-.82v-.4h.27c.69,0,1-.29,1-.86S46.13,50.25,45.44,50.25Zm-3.85,0L43,48.17v2.08Zm54.74.22a1.35,1.35,0,0,0,.88-.29,1.27,1.27,0,0,0,.46-.81,2.2,2.2,0,0,1,.54-1,10.26,10.26,0,0,1,1.22-1.12c.56-.5,1-.92,1.36-1.27a4.55,4.55,0,0,0,.9-1.27,3.6,3.6,0,0,0,.38-1.64,3.54,3.54,0,0,0-.7-2.14,4.53,4.53,0,0,0-1.92-1.49,6.86,6.86,0,0,0-2.78-.54,9.22,9.22,0,0,0-2.78.44,8.62,8.62,0,0,0-2.46,1.24,2,2,0,0,0-.58.65,1.74,1.74,0,0,0-.18.84,2,2,0,0,0,.42,1.26,1.26,1.26,0,0,0,1,.51,3,3,0,0,0,1.32-.45l.57-.29a8.79,8.79,0,0,1,1.21-.59,3,3,0,0,1,1.1-.2,1.6,1.6,0,0,1,1,.31,1,1,0,0,1,.39.84,1.79,1.79,0,0,1-.28,1,7.31,7.31,0,0,1-.83,1A7.92,7.92,0,0,0,95.44,47,3.71,3.71,0,0,0,95,48.91a1.72,1.72,0,0,0,.35,1.15A1.17,1.17,0,0,0,96.33,50.47Zm0,5.74a2.33,2.33,0,1,0,0-4.66,2.25,2.25,0,0,0-1.65.67,2.42,2.42,0,0,0,0,3.32A2.25,2.25,0,0,0,96.38,56.21Z"/></svg>