<svg id="Layer_1" data-name="Layer 1" xmlns="http://www.w3.org/2000/svg" viewBox="0 0 122.3 122.3"><title>l9_2_1</title><path d="M122.43,41V51.53a11.74,11.74,0,0,1-11.74,11.74h-11l0,22.52A4.39,4.39,0,0,1,95,90.45H75.23l-8.11,16.42c-.3.53-2.18,3.69-5.28,3.78-3.27.09-5.27-3.28-5.56-3.78L47.46,90.45h-23a4.45,4.45,0,0,1-2.93-1.23,4.9,4.9,0,0,1-1.31-3c-.33-2.64-.36-11.22,0-22.95H11.81A11.74,11.74,0,0,1,.07,51.53V41A11.74,11.74,0,0,1,11.81,29.25H39.36A11.74,11.74,0,0,1,51.1,41V51.53A11.74,11.74,0,0,1,39.36,63.27H28.71q0,9.23.05,18.45h14L39.21,75.1a8.52,8.52,0,0,1-.34-6.46A3.9,3.9,0,0,1,41,66.28l38.86.06a4.17,4.17,0,0,1,2.8,2.81,9.68,9.68,0,0,1,.12,6l-3.27,6.61h11.5q0-9.23,0-18.45H83.14A11.74,11.74,0,0,1,71.4,51.53V41A11.74,11.74,0,0,1,83.14,29.25h27.55A11.74,11.74,0,0,1,122.43,41ZM56.72,88H64.9a3.93,3.93,0,0,0,2.72-.81,2.84,2.84,0,0,0,.9-2.24,2.81,2.81,0,0,0-.9-2.22,4,4,0,0,0-2.72-.78H56.72c-2.4,0-3.61,1-3.61,3S54.32,88,56.72,88ZM12.91,49.4H11.44V40.87A1.58,1.58,0,0,0,11,39.7a1.62,1.62,0,0,0-1.17-.44,3.08,3.08,0,0,0-1.49.46L5.46,41.39a1.22,1.22,0,0,0-.63,1.12,1.52,1.52,0,0,0,.36,1,1.09,1.09,0,0,0,.86.44,1.21,1.21,0,0,0,.63-.18l1.44-.85v6.5H6.67a1.84,1.84,0,0,0-1.19.32,1.23,1.23,0,0,0-.38,1c0,.88.52,1.33,1.57,1.33h6.24c1.05,0,1.57-.45,1.57-1.33a1.23,1.23,0,0,0-.38-1A1.84,1.84,0,0,0,12.91,49.4Zm9.72-3.91a2.7,2.7,0,0,0,1.42-1.06,3.12,3.12,0,0,0,.51-1.8,3,3,0,0,0-1.25-2.53,5.61,5.61,0,0,0-3.41-.92,5.63,5.63,0,0,0-3.41.92,3,3,0,0,0-1.26,2.53,3.06,3.06,0,0,0,.51,1.76,2.94,2.94,0,0,0,1.44,1.1,3,3,0,0,0-1.69,1.07,3.16,3.16,0,0,0-.6,2,3.11,3.11,0,0,0,1.34,2.68,6.22,6.22,0,0,0,3.67,1,6.18,6.18,0,0,0,3.66-1,3.41,3.41,0,0,0,.76-4.61A3.19,3.19,0,0,0,22.63,45.49ZM19.9,49.67c-1.31,0-2-.47-2-1.41s.66-1.4,2-1.4,2,.47,2,1.4S21.2,49.67,19.9,49.67Zm0-8a1.89,1.89,0,0,1,1.2.31,1.5,1.5,0,0,1,0,2,1.83,1.83,0,0,1-1.2.33A1.86,1.86,0,0,1,18.69,44a1.5,1.5,0,0,1,0-2A1.93,1.93,0,0,1,19.9,41.68ZM34,45.78H31.76V43.51a1.06,1.06,0,0,0-1.06-1.06,1,1,0,0,0-.76.31,1,1,0,0,0-.31.75v2.27H27.37a1,1,0,0,0-.76.31,1,1,0,0,0-.31.75,1.09,1.09,0,0,0,.31.77,1,1,0,0,0,.76.31h2.26v2.25a1.06,1.06,0,0,0,1.07,1.07,1,1,0,0,0,1.06-1.07V47.92H34a1,1,0,0,0,.75-.31,1,1,0,0,0,.31-.77A1.06,1.06,0,0,0,34,45.78Zm11.34,1.59H45v-6.5a1.52,1.52,0,0,0-.49-1.21,1.68,1.68,0,0,0-1.17-.43,1.77,1.77,0,0,0-.8.19,1.61,1.61,0,0,0-.64.55l-5.14,7.34a2,2,0,0,0-.4,1.19,1.37,1.37,0,0,0,.38,1,1.35,1.35,0,0,0,1,.4h4v.61a1.56,1.56,0,0,0,.44,1.22,1.6,1.6,0,0,0,1.16.42,1.65,1.65,0,0,0,1.17-.42A1.56,1.56,0,0,0,45,50.5v-.61h.4c1,0,1.56-.43,1.56-1.28S46.41,47.37,45.37,47.37Zm-5.78,0,2.16-3.12v3.12Zm56.84,1.77a1.4,1.4,0,0,0,.88-.28,1.32,1.32,0,0,0,.46-.82,2.2,2.2,0,0,1,.54-1A11.19,11.19,0,0,1,99.53,46c.56-.49,1-.92,1.36-1.27a4.55,4.55,0,0,0,.9-1.27,3.67,3.67,0,0,0-.32-3.78,4.61,4.61,0,0,0-1.92-1.49,6.83,6.83,0,0,0-2.78-.54A9.22,9.22,0,0,0,94,38a8.62,8.62,0,0,0-2.46,1.24,2,2,0,0,0-.58.65,1.74,1.74,0,0,0-.18.84A2,2,0,0,0,91.19,42a1.28,1.28,0,0,0,1,.51,3,3,0,0,0,1.32-.45l.57-.29a8.79,8.79,0,0,1,1.21-.59,3.24,3.24,0,0,1,1.1-.2,1.6,1.6,0,0,1,1,.31,1,1,0,0,1,.39.84,1.79,1.79,0,0,1-.28,1,7.31,7.31,0,0,1-.83,1,8.23,8.23,0,0,0-1.2,1.55,3.71,3.71,0,0,0-.43,1.88,1.76,1.76,0,0,0,.35,1.16A1.2,1.2,0,0,0,96.43,49.14Zm0,5.74a2.24,2.24,0,0,0,1.67-.67,2.28,2.28,0,0,0,.66-1.66,2.29,2.29,0,0,0-2.33-2.33,2.22,2.22,0,0,0-1.65.68,2.25,2.25,0,0,0-.66,1.65,2.28,2.28,0,0,0,.66,1.66A2.21,2.21,0,0,0,96.48,54.88Z"/></svg>