<svg id="Layer_1" data-name="Layer 1" xmlns="http://www.w3.org/2000/svg" viewBox="0 0 122.3 122.3"><title>l9_2_1</title><path d="M122.3,17.22V58a11.73,11.73,0,0,1-11.73,11.74h-11l0,22.51a4.37,4.37,0,0,1-4.66,4.66H75.34l-9.12,18.45c-.3.53-2.19,3.71-5.31,3.8-3.28.1-5.3-3.3-5.59-3.8L45.41,96.92h-21a4.43,4.43,0,0,1-2.92-1.23,4.9,4.9,0,0,1-1.31-3c-.33-2.64-.36-11.22,0-22.94H11.74A11.73,11.73,0,0,1,0,58V17.22A11.73,11.73,0,0,1,11.74,5.48H39.27A11.73,11.73,0,0,1,51,17.22V58A11.73,11.73,0,0,1,39.27,69.75H28.63q0,9.23.05,18.44h12l-2.57-4.77c-.8-1.5-1.65-4.37-.34-6.5a6,6,0,0,1,4-2.37l35.62.06a5.8,5.8,0,0,1,4.24,1.78,6,6,0,0,1,.37,7c-.78,1.59-1.56,3.17-2.35,4.76H90.94q0-9.22,0-18.44H83A11.73,11.73,0,0,1,71.3,58V17.22A11.73,11.73,0,0,1,83,5.48h27.54A11.73,11.73,0,0,1,122.3,17.22ZM96,44.94a2.92,2.92,0,0,0,1.83-.6,2.68,2.68,0,0,0,1-1.7,4.57,4.57,0,0,1,1.13-2,21.93,21.93,0,0,1,2.52-2.33c1.17-1,2.12-1.92,2.85-2.65A10.26,10.26,0,0,0,107.19,33a7.58,7.58,0,0,0,.77-3.4,7.31,7.31,0,0,0-1.45-4.47,9.69,9.69,0,0,0-4-3.11,14.22,14.22,0,0,0-5.8-1.12,18.62,18.62,0,0,0-5.77.93,17.63,17.63,0,0,0-5.13,2.57,4.2,4.2,0,0,0-1.22,1.35,3.68,3.68,0,0,0-.38,1.75,4,4,0,0,0,.88,2.63,2.66,2.66,0,0,0,2.12,1.07,6.14,6.14,0,0,0,2.75-1l1.2-.6a19.16,19.16,0,0,1,2.53-1.23A6.42,6.42,0,0,1,96,28a3.41,3.41,0,0,1,2.2.65,2.15,2.15,0,0,1,.8,1.75,3.67,3.67,0,0,1-.57,2,16.53,16.53,0,0,1-1.73,2.15,16.27,16.27,0,0,0-2.5,3.22,7.85,7.85,0,0,0-.9,3.93,3.57,3.57,0,0,0,.73,2.4A2.49,2.49,0,0,0,96,44.94Zm.1,12a4.7,4.7,0,0,0,3.48-1.4,5,5,0,0,0,0-6.9,4.7,4.7,0,0,0-3.48-1.4,4.59,4.59,0,0,0-3.42,1.4,5,5,0,0,0,0,6.9A4.59,4.59,0,0,0,96.11,56.89ZM56.43,96.07h8.19a4,4,0,0,0,2.72-.8A2.88,2.88,0,0,0,68.23,93a2.81,2.81,0,0,0-.89-2.22A4.07,4.07,0,0,0,64.62,90H56.43c-2.4,0-3.61,1-3.61,3S54,96.07,56.43,96.07Zm-33.66-68H20.41V14.37a2.49,2.49,0,0,0-.71-1.87,2.55,2.55,0,0,0-1.86-.7,4.93,4.93,0,0,0-2.4.73l-4.62,2.68a2,2,0,0,0-1,1.79,2.44,2.44,0,0,0,.58,1.57,1.76,1.76,0,0,0,1.39.71,2,2,0,0,0,1-.29l2.31-1.36V28.05H12.76a2.94,2.94,0,0,0-1.91.52,2,2,0,0,0-.6,1.56c0,1.43.83,2.14,2.51,2.14h10c1.68,0,2.51-.71,2.51-2.14a2,2,0,0,0-.6-1.56A2.94,2.94,0,0,0,22.77,28.05ZM34,32.53a6.75,6.75,0,0,0,5.77-2.69c1.33-1.79,2-4.37,2-7.76s-.67-5.95-2-7.74A6.76,6.76,0,0,0,34,11.66a6.74,6.74,0,0,0-5.77,2.68q-2,2.68-2,7.74c0,3.39.66,6,2,7.76A6.75,6.75,0,0,0,34,32.53Zm0-4A2.07,2.07,0,0,1,32,27a14.16,14.16,0,0,1-.61-4.93A14.06,14.06,0,0,1,32,17.16a2.07,2.07,0,0,1,4,0,14.11,14.11,0,0,1,.61,4.91A14.16,14.16,0,0,1,36,27,2.07,2.07,0,0,1,34,28.51ZM30.56,45H19.24a2.85,2.85,0,0,0-1.9.53,2,2,0,0,0-.61,1.6,1.93,1.93,0,0,0,.6,1.56,2.83,2.83,0,0,0,1.91.52h7.22L19,61.86a2.73,2.73,0,0,0-.4,1.39,2.14,2.14,0,0,0,.78,1.66,2.64,2.64,0,0,0,1.79.67,2.46,2.46,0,0,0,1.22-.33,2.65,2.65,0,0,0,1-1l8.74-15.15a3.66,3.66,0,0,0,.55-1.91,2.27,2.27,0,0,0-.56-1.57A2.07,2.07,0,0,0,30.56,45Zm9.72-6h0a2.61,2.61,0,0,0-2.61-2.61H10.41A2.61,2.61,0,0,0,7.79,39h0a2.62,2.62,0,0,0,2.62,2.62H37.67A2.61,2.61,0,0,0,40.28,39Z"/></svg>