<svg id="Layer_1" data-name="Layer 1" xmlns="http://www.w3.org/2000/svg" viewBox="0 0 122.3 122.3"><title>l9_2_1</title><path d="M122.33,39.84V50.37a11.74,11.74,0,0,1-11.74,11.74h-11l0,22.52A4.51,4.51,0,0,1,98.35,88a4.57,4.57,0,0,1-3.43,1.31H75.13L67,105.71c-.3.53-2.18,3.69-5.28,3.78-3.27.1-5.27-3.28-5.56-3.78L47.36,89.3h-23a4.42,4.42,0,0,1-2.93-1.24,4.9,4.9,0,0,1-1.31-3c-.33-2.64-.36-11.22,0-23H11.71A11.74,11.74,0,0,1,0,50.37V39.84A11.75,11.75,0,0,1,11.71,28.09H39.26A11.75,11.75,0,0,1,51,39.84V50.37A11.74,11.74,0,0,1,39.26,62.11H28.61q0,9.23.05,18.45h14l-3.55-6.62a8.51,8.51,0,0,1-.34-6.46,3.93,3.93,0,0,1,2.17-2.36l38.86.06A4.19,4.19,0,0,1,82.6,68a9.67,9.67,0,0,1,.12,6l-3.27,6.61H91q0-9.23,0-18.45H83A11.74,11.74,0,0,1,71.3,50.37V39.84A11.75,11.75,0,0,1,83,28.09h27.55A11.75,11.75,0,0,1,122.33,39.84Zm-65.71,47H64.8a3.93,3.93,0,0,0,2.72-.8,2.86,2.86,0,0,0,.9-2.24,2.78,2.78,0,0,0-.9-2.22,4,4,0,0,0-2.72-.79H56.62c-2.41,0-3.61,1-3.61,3S54.21,86.83,56.62,86.83ZM7.53,51a2.81,2.81,0,0,0,2.4-1.12,5.35,5.35,0,0,0,.82-3.22,5.28,5.28,0,0,0-.83-3.22A2.82,2.82,0,0,0,7.53,42.3a2.81,2.81,0,0,0-2.4,1.12,5.28,5.28,0,0,0-.83,3.22,5.28,5.28,0,0,0,.83,3.22A2.79,2.79,0,0,0,7.53,51Zm0-1.67a.86.86,0,0,1-.83-.62,5.94,5.94,0,0,1-.25-2,5.87,5.87,0,0,1,.25-2A.86.86,0,0,1,7.53,44a.85.85,0,0,1,.82.63,5.79,5.79,0,0,1,.26,2,5.89,5.89,0,0,1-.26,2A.85.85,0,0,1,7.53,49.31Zm5.23,1.63a1.11,1.11,0,0,0,.82-.33,1.21,1.21,0,0,0,0-1.66,1.11,1.11,0,0,0-.82-.33,1.16,1.16,0,1,0,0,2.32Zm5.82-5.6a2.91,2.91,0,0,0-1.19.22V44.08H20q1.05,0,1.05-.84c0-.55-.35-.83-1.05-.83H16.26a1,1,0,0,0-.75.27,1,1,0,0,0-.27.76V46.7a.68.68,0,0,0,.23.52.83.83,0,0,0,.56.2,1.09,1.09,0,0,0,.54-.14,5,5,0,0,1,.69-.21,3.37,3.37,0,0,1,.66-.06,1.33,1.33,0,0,1,.93.3,1.23,1.23,0,0,1,0,1.68,1.55,1.55,0,0,1-1,.27,2.09,2.09,0,0,1-.67-.1c-.2-.08-.43-.17-.67-.29l-.24-.12a2.92,2.92,0,0,0-.36-.18.85.85,0,0,0-.3,0,.62.62,0,0,0-.51.26,1,1,0,0,0-.2.63.86.86,0,0,0,.09.41,1,1,0,0,0,.28.33,3.71,3.71,0,0,0,1.23.6A5.16,5.16,0,0,0,18,51a3.84,3.84,0,0,0,1.71-.36,2.75,2.75,0,0,0,1.16-1,3.13,3.13,0,0,0,.06-3,2.44,2.44,0,0,0-.95-1A2.72,2.72,0,0,0,18.58,45.34Zm8.83,1.37H25.9V45.2a.69.69,0,0,0-.21-.51.72.72,0,0,0-1,0,.69.69,0,0,0-.21.51v1.51H23a.69.69,0,0,0-.5.2.72.72,0,0,0,.5,1.23h1.51v1.5a.69.69,0,0,0,.21.5.65.65,0,0,0,.5.2.66.66,0,0,0,.51-.2.72.72,0,0,0,.2-.5v-1.5h1.51a.72.72,0,0,0,.5-1.23A.69.69,0,0,0,27.41,46.71Zm5,4.27a2.79,2.79,0,0,0,2.4-1.12,5.35,5.35,0,0,0,.83-3.22,5.28,5.28,0,0,0-.84-3.22,3.12,3.12,0,0,0-4.79,0,5.35,5.35,0,0,0-.83,3.22A5.35,5.35,0,0,0,30,49.86,2.79,2.79,0,0,0,32.39,51Zm0-1.67a.86.86,0,0,1-.83-.62,5.94,5.94,0,0,1-.25-2,5.87,5.87,0,0,1,.25-2,.86.86,0,0,1,1.66,0,5.84,5.84,0,0,1,.25,2,5.94,5.94,0,0,1-.25,2A.87.87,0,0,1,32.39,49.31Zm5.23,1.63a1.11,1.11,0,0,0,.82-.33,1.21,1.21,0,0,0,0-1.66,1.2,1.2,0,0,0-1.65,0,1.21,1.21,0,0,0,0,1.66A1.12,1.12,0,0,0,37.62,50.94Zm7.46-1.82H42.67l1.71-1.74a5.94,5.94,0,0,0,1-1.35,3.13,3.13,0,0,0,.29-1.34,2.21,2.21,0,0,0-.36-1.25,2.29,2.29,0,0,0-1-.84,3.81,3.81,0,0,0-1.56-.3,4.53,4.53,0,0,0-1.39.22,4.32,4.32,0,0,0-1.26.6.79.79,0,0,0-.3.31,1.06,1.06,0,0,0-.08.43,1,1,0,0,0,.21.64.57.57,0,0,0,.5.27.85.85,0,0,0,.23,0,1.1,1.1,0,0,0,.25-.12l.18-.1.24-.12c.26-.12.48-.22.68-.29a1.91,1.91,0,0,1,.64-.1,1,1,0,0,1,.67.21.85.85,0,0,1,.23.63,2.32,2.32,0,0,1-.79,1.52L40.18,49a1.3,1.3,0,0,0-.41.94.87.87,0,0,0,.93.91h4.38a1.22,1.22,0,0,0,.79-.21.85.85,0,0,0,.26-.68.8.8,0,0,0-.26-.65A1.22,1.22,0,0,0,45.08,49.12ZM96.33,48a1.41,1.41,0,0,0,.88-.29,1.27,1.27,0,0,0,.46-.82,2.26,2.26,0,0,1,.54-1,11.26,11.26,0,0,1,1.22-1.11c.56-.5,1-.92,1.36-1.28a4.41,4.41,0,0,0,.9-1.27,3.67,3.67,0,0,0-.32-3.78A4.61,4.61,0,0,0,99.45,37a6.86,6.86,0,0,0-2.78-.54,9.22,9.22,0,0,0-5.24,1.68,2.14,2.14,0,0,0-.58.65,1.8,1.8,0,0,0-.18.84,1.92,1.92,0,0,0,.42,1.26,1.25,1.25,0,0,0,1,.52,2.92,2.92,0,0,0,1.32-.46l.57-.29a8.62,8.62,0,0,1,1.21-.58,3,3,0,0,1,1.1-.21,1.66,1.66,0,0,1,1,.31,1,1,0,0,1,.39.84,1.74,1.74,0,0,1-.28,1,8.1,8.1,0,0,1-.83,1,7.88,7.88,0,0,0-1.2,1.54A3.77,3.77,0,0,0,95,46.43a1.74,1.74,0,0,0,.35,1.15A1.2,1.2,0,0,0,96.33,48Zm0,5.73a2.24,2.24,0,0,0,1.67-.67,2.41,2.41,0,0,0,0-3.31,2.24,2.24,0,0,0-1.67-.67,2.21,2.21,0,0,0-1.65.67,2.41,2.41,0,0,0,0,3.31A2.21,2.21,0,0,0,96.38,53.72Z"/></svg>