<svg id="Layer_1" data-name="Layer 1" xmlns="http://www.w3.org/2000/svg" viewBox="0 0 122.3 122.3"><title>l9_2_1</title><path d="M122.32,17.24V58a11.74,11.74,0,0,1-11.74,11.74h-11l0,22.51a4.39,4.39,0,0,1-4.67,4.66H75.36l-9.12,18.45c-.31.53-2.19,3.71-5.31,3.8-3.28.1-5.3-3.3-5.59-3.8L45.42,96.94h-21a4.45,4.45,0,0,1-2.93-1.23,5,5,0,0,1-1.31-3c-.33-2.64-.36-11.22,0-22.94H11.75A11.73,11.73,0,0,1,0,58V17.24A11.73,11.73,0,0,1,11.75,5.5H39.28A11.73,11.73,0,0,1,51,17.24V58A11.73,11.73,0,0,1,39.28,69.77H28.64q0,9.23.05,18.44h12l-2.56-4.77c-.8-1.5-1.65-4.37-.34-6.5a6,6,0,0,1,4-2.37l35.61.06a5.81,5.81,0,0,1,4.25,1.78,6,6,0,0,1,.37,7c-.78,1.59-1.57,3.17-2.35,4.76H91Q91,79,91,69.77H83.05A11.74,11.74,0,0,1,71.31,58V17.24A11.74,11.74,0,0,1,83.05,5.5h27.53A11.74,11.74,0,0,1,122.32,17.24ZM96,45a2.89,2.89,0,0,0,1.82-.6,2.69,2.69,0,0,0,1-1.7,4.63,4.63,0,0,1,1.12-2,24.17,24.17,0,0,1,2.53-2.32c1.16-1,2.11-1.92,2.85-2.65A10.23,10.23,0,0,0,107.2,33a7.71,7.71,0,0,0-.67-7.88,9.75,9.75,0,0,0-4-3.1,14.26,14.26,0,0,0-5.8-1.12,19,19,0,0,0-5.78.92,18,18,0,0,0-5.12,2.58,4.25,4.25,0,0,0-1.23,1.35,3.69,3.69,0,0,0-.37,1.75,4,4,0,0,0,.87,2.62,2.64,2.64,0,0,0,2.13,1.08A6.17,6.17,0,0,0,90,30.26l1.2-.6a19.1,19.1,0,0,1,2.52-1.23A6.47,6.47,0,0,1,96,28a3.43,3.43,0,0,1,2.2.65,2.15,2.15,0,0,1,.8,1.75,3.6,3.6,0,0,1-.58,2,16.33,16.33,0,0,1-1.72,2.15,16.27,16.27,0,0,0-2.5,3.22,7.83,7.83,0,0,0-.9,3.93,3.62,3.62,0,0,0,.72,2.4A2.51,2.51,0,0,0,96,45Zm.1,11.95a4.85,4.85,0,1,0-3.43-8.3,5,5,0,0,0,0,6.9A4.63,4.63,0,0,0,96.13,56.91ZM56.45,96.09h8.18a3.93,3.93,0,0,0,2.72-.8,2.84,2.84,0,0,0,.89-2.24,2.77,2.77,0,0,0-.89-2.22,4,4,0,0,0-2.72-.78H56.45q-3.62,0-3.61,3T56.45,96.09Zm-33.66-68H20.42V14.39a2.46,2.46,0,0,0-.71-1.87,2.51,2.51,0,0,0-1.86-.7,4.87,4.87,0,0,0-2.39.73l-4.62,2.68a2,2,0,0,0-1,1.79,2.39,2.39,0,0,0,.58,1.57,1.72,1.72,0,0,0,1.38.71,2,2,0,0,0,1-.29l2.31-1.36V28.07H12.77a2.91,2.91,0,0,0-1.9.52,1.93,1.93,0,0,0-.61,1.56c0,1.43.84,2.14,2.51,2.14h10c1.67,0,2.51-.71,2.51-2.14a1.93,1.93,0,0,0-.61-1.56A2.91,2.91,0,0,0,22.79,28.07ZM35.72,18.9a5.49,5.49,0,0,0-2.44.53,4.66,4.66,0,0,0-1.78,1.46,7.66,7.66,0,0,1,1.09-3.77A2.76,2.76,0,0,1,35,15.78a3.9,3.9,0,0,1,1.32.23,14.75,14.75,0,0,1,1.59.69l.64.32c.36.19.65.33.86.42a2,2,0,0,0,.72.13A1.55,1.55,0,0,0,41.33,17a2.33,2.33,0,0,0,.51-1.52,2.19,2.19,0,0,0-.22-1,2.42,2.42,0,0,0-.71-.78A9.37,9.37,0,0,0,38,12.2a11,11,0,0,0-3.3-.52A7.78,7.78,0,0,0,30.22,13a8.33,8.33,0,0,0-3,3.71,13.84,13.84,0,0,0-1.06,5.64q0,4.91,2.23,7.56a7.74,7.74,0,0,0,6.29,2.66,7.41,7.41,0,0,0,3.66-.9,6.44,6.44,0,0,0,2.53-2.49,7.7,7.7,0,0,0,.11-7,5.85,5.85,0,0,0-2.18-2.36A5.79,5.79,0,0,0,35.72,18.9Zm-1.33,9.58a2.31,2.31,0,0,1-1.79-.77,2.83,2.83,0,0,1-.69-2,2.84,2.84,0,0,1,.68-2,2.3,2.3,0,0,1,1.8-.75,2.27,2.27,0,0,1,1.8.74,2.89,2.89,0,0,1,.65,2,2.91,2.91,0,0,1-.66,2A2.27,2.27,0,0,1,34.39,28.48ZM30.57,45H19.26a2.85,2.85,0,0,0-1.9.53,2,2,0,0,0-.61,1.6,2,2,0,0,0,.59,1.56,2.88,2.88,0,0,0,1.92.52h7.22L19.06,61.88a2.72,2.72,0,0,0-.41,1.39,2.14,2.14,0,0,0,.78,1.66,2.66,2.66,0,0,0,1.79.67,2.47,2.47,0,0,0,1.23-.33,2.72,2.72,0,0,0,1-1L32.19,49.1a3.66,3.66,0,0,0,.55-1.91,2.27,2.27,0,0,0-.56-1.57A2,2,0,0,0,30.57,45ZM41,39.11h0a2.61,2.61,0,0,0-2.62-2.61H11.12A2.61,2.61,0,0,0,8.5,39.11h0a2.62,2.62,0,0,0,2.62,2.62H38.37A2.62,2.62,0,0,0,41,39.11Z"/></svg>