<svg id="Layer_1" data-name="Layer 1" xmlns="http://www.w3.org/2000/svg" viewBox="0 0 122.3 122.3"><title>l9_2_1</title><path d="M122.33,42.32V52.85A11.75,11.75,0,0,1,110.59,64.6h-11l0,22.51a4.39,4.39,0,0,1-4.67,4.67H75.13q-4,8.2-8.11,16.42c-.3.52-2.18,3.68-5.28,3.77-3.27.1-5.27-3.28-5.56-3.77L47.36,91.78h-23a4.42,4.42,0,0,1-2.93-1.24,4.88,4.88,0,0,1-1.31-3c-.33-2.63-.36-11.22,0-22.94H11.71A11.75,11.75,0,0,1,0,52.85V42.32A11.74,11.74,0,0,1,11.71,30.58H39.26A11.74,11.74,0,0,1,51,42.32V52.85A11.75,11.75,0,0,1,39.26,64.6H28.61q0,9.21.05,18.44h14l-3.55-6.62A8.51,8.51,0,0,1,38.77,70a4,4,0,0,1,2.17-2.36l38.86.06a4.19,4.19,0,0,1,2.8,2.81,9.71,9.71,0,0,1,.12,6L79.45,83H91q0-9.23,0-18.44H83A11.75,11.75,0,0,1,71.3,52.85V42.32A11.74,11.74,0,0,1,83,30.58h27.55A11.74,11.74,0,0,1,122.33,42.32Zm-65.71,47H64.8a3.93,3.93,0,0,0,2.72-.81,2.84,2.84,0,0,0,.9-2.24,2.78,2.78,0,0,0-.9-2.22,4,4,0,0,0-2.72-.78H56.62q-3.61,0-3.61,3T56.62,89.32ZM13.89,43.48a3.26,3.26,0,0,0,2.8-1.3,6.23,6.23,0,0,0,1-3.77,6.25,6.25,0,0,0-1-3.75,3.28,3.28,0,0,0-2.8-1.3,3.28,3.28,0,0,0-2.8,1.3,6.26,6.26,0,0,0-1,3.75,6.3,6.3,0,0,0,1,3.77A3.28,3.28,0,0,0,13.89,43.48Zm0-1.95a1,1,0,0,1-1-.72,6.9,6.9,0,0,1-.3-2.4,6.83,6.83,0,0,1,.3-2.39,1,1,0,0,1,1-.72,1,1,0,0,1,1,.73,7.11,7.11,0,0,1,.29,2.38,7.21,7.21,0,0,1-.29,2.4A1,1,0,0,1,13.89,41.53ZM20,43.44a1.27,1.27,0,0,0,.95-.39,1.4,1.4,0,0,0,0-1.94,1.27,1.27,0,0,0-.95-.39,1.32,1.32,0,0,0-1,.39,1.43,1.43,0,0,0,0,1.94A1.32,1.32,0,0,0,20,43.44Zm9.11-3.71H28.8V34.67a1.14,1.14,0,0,0-.38-.93,1.29,1.29,0,0,0-.91-.34,1.38,1.38,0,0,0-.62.15,1.27,1.27,0,0,0-.5.42l-4,5.72a1.52,1.52,0,0,0-.31.92,1.06,1.06,0,0,0,.3.77,1,1,0,0,0,.79.31H26.3v.47a1.26,1.26,0,0,0,.34,1,1.29,1.29,0,0,0,.9.32,1.31,1.31,0,0,0,.91-.32,1.27,1.27,0,0,0,.35-1v-.47h.31c.81,0,1.22-.33,1.22-1S29.92,39.73,29.11,39.73Zm-4.49,0,1.68-2.42v2.42ZM35.19,36.9a3.45,3.45,0,0,0-1.39.25V35.43h3c.82,0,1.22-.33,1.22-1s-.4-1-1.22-1H32.48a1.22,1.22,0,0,0-.88.31,1.26,1.26,0,0,0-.31.9v3.79a.76.76,0,0,0,.27.61,1,1,0,0,0,.66.23,1.39,1.39,0,0,0,.63-.15,4.43,4.43,0,0,1,.8-.25,3.67,3.67,0,0,1,.77-.07,1.55,1.55,0,0,1,1.09.35,1.24,1.24,0,0,1,.39,1,1.22,1.22,0,0,1-.38,1,1.78,1.78,0,0,1-1.16.32,2.2,2.2,0,0,1-.78-.13,6.75,6.75,0,0,1-.79-.33l-.28-.14a2.27,2.27,0,0,0-.42-.21.88.88,0,0,0-.35-.06.73.73,0,0,0-.59.3,1.15,1.15,0,0,0-.23.74,1.06,1.06,0,0,0,.1.48,1.27,1.27,0,0,0,.33.38,4.44,4.44,0,0,0,1.43.7,5.86,5.86,0,0,0,1.71.26,4.56,4.56,0,0,0,2-.42,3.17,3.17,0,0,0,1.34-1.19,3.32,3.32,0,0,0,.48-1.78,3.43,3.43,0,0,0-.4-1.66A2.85,2.85,0,0,0,36.8,37.3,3.18,3.18,0,0,0,35.19,36.9ZM12.28,55.3H10.51V53.53a.81.81,0,0,0-.24-.59.86.86,0,0,0-1.17,0,.81.81,0,0,0-.24.59V55.3H7.09a.78.78,0,0,0-.58.23.81.81,0,0,0-.24.59.85.85,0,0,0,.24.6.78.78,0,0,0,.58.24H8.86v1.75a.82.82,0,0,0,.83.83.78.78,0,0,0,.59-.24.82.82,0,0,0,.23-.59V57h1.77a.78.78,0,0,0,.58-.24.85.85,0,0,0,.24-.6.81.81,0,0,0-.24-.59A.78.78,0,0,0,12.28,55.3Zm5.8,5a3.25,3.25,0,0,0,2.8-1.3,6.23,6.23,0,0,0,1-3.77,6.18,6.18,0,0,0-1-3.75,3.28,3.28,0,0,0-2.8-1.3,3.25,3.25,0,0,0-2.79,1.3,6.18,6.18,0,0,0-1,3.75,6.23,6.23,0,0,0,1,3.77A3.25,3.25,0,0,0,18.08,60.28Zm0-2a1,1,0,0,1-1-.72,7,7,0,0,1-.29-2.4,6.89,6.89,0,0,1,.29-2.39,1,1,0,0,1,1.93,0,6.86,6.86,0,0,1,.29,2.38,7,7,0,0,1-.29,2.4A1,1,0,0,1,18.08,58.33Zm6.11,1.91a1.3,1.3,0,0,0,1-.39,1.43,1.43,0,0,0,0-1.94,1.39,1.39,0,0,0-1.93,0,1.4,1.4,0,0,0,0,1.94A1.3,1.3,0,0,0,24.19,60.24Zm8.71-2.13H30.08l2-2a6.49,6.49,0,0,0,1.17-1.58,3.5,3.5,0,0,0,.34-1.56,2.6,2.6,0,0,0-.42-1.46,2.79,2.79,0,0,0-1.22-1,4.45,4.45,0,0,0-1.82-.34,5.35,5.35,0,0,0-1.61.25,5.46,5.46,0,0,0-1.48.7.88.88,0,0,0-.34.36,1.23,1.23,0,0,0-.09.51,1.26,1.26,0,0,0,.23.75.72.72,0,0,0,.59.31.8.8,0,0,0,.27,0,2.21,2.21,0,0,0,.29-.13l.21-.12.28-.14a7.82,7.82,0,0,1,.79-.35,2.56,2.56,0,0,1,.75-.11,1.09,1.09,0,0,1,.78.25,1,1,0,0,1,.27.73,2.72,2.72,0,0,1-.92,1.77l-3,3.1a1.51,1.51,0,0,0-.48,1.09,1,1,0,0,0,.3.76,1.06,1.06,0,0,0,.8.3H32.9a1.37,1.37,0,0,0,.91-.25,1,1,0,0,0,.3-.78,1,1,0,0,0-.3-.77A1.43,1.43,0,0,0,32.9,58.11Zm5.46-8a3.58,3.58,0,0,0-1.78.43,3.18,3.18,0,0,0-1.23,1.21,3.56,3.56,0,0,0-.44,1.76,3.48,3.48,0,0,0,.39,1.66,2.8,2.8,0,0,0,2.57,1.56,2.72,2.72,0,0,0,1.18-.26,2.15,2.15,0,0,0,.86-.71,3.79,3.79,0,0,1-.52,1.83,1.36,1.36,0,0,1-1.16.65,2,2,0,0,1-.64-.11c-.21-.08-.47-.19-.77-.34l-.31-.15-.42-.2a.78.78,0,0,0-.35-.07.75.75,0,0,0-.6.3,1.17,1.17,0,0,0-.24.74A1,1,0,0,0,35,59a1.23,1.23,0,0,0,.35.38,4.48,4.48,0,0,0,1.4.7,5.39,5.39,0,0,0,1.61.25,3.77,3.77,0,0,0,2.17-.63A4.16,4.16,0,0,0,42,57.85a6.8,6.8,0,0,0,.51-2.74,5.53,5.53,0,0,0-1.08-3.66A3.76,3.76,0,0,0,38.36,50.16Zm.15,4.63a1.1,1.1,0,0,1-.87-.36,1.62,1.62,0,0,1,0-1.93,1.1,1.1,0,0,1,.87-.37,1.15,1.15,0,0,1,.87.37,1.4,1.4,0,0,1,.33,1,1.44,1.44,0,0,1-.32,1A1.15,1.15,0,0,1,38.51,54.79Zm57.82-4.32a1.35,1.35,0,0,0,.88-.29,1.27,1.27,0,0,0,.46-.81,2.2,2.2,0,0,1,.54-1,10.26,10.26,0,0,1,1.22-1.12c.56-.5,1-.92,1.36-1.27a4.55,4.55,0,0,0,.9-1.27,3.6,3.6,0,0,0,.38-1.64,3.54,3.54,0,0,0-.7-2.14,4.53,4.53,0,0,0-1.92-1.49,6.86,6.86,0,0,0-2.78-.54,9.22,9.22,0,0,0-2.78.44,8.62,8.62,0,0,0-2.46,1.24,2,2,0,0,0-.58.65,1.74,1.74,0,0,0-.18.84,2,2,0,0,0,.42,1.26,1.26,1.26,0,0,0,1,.51,3,3,0,0,0,1.32-.45l.57-.29a8.79,8.79,0,0,1,1.21-.59,3,3,0,0,1,1.1-.2,1.6,1.6,0,0,1,1,.31,1,1,0,0,1,.39.84,1.79,1.79,0,0,1-.28,1,7.31,7.31,0,0,1-.83,1A7.92,7.92,0,0,0,95.44,47,3.71,3.71,0,0,0,95,48.91a1.72,1.72,0,0,0,.35,1.15A1.17,1.17,0,0,0,96.33,50.47Zm0,5.74a2.33,2.33,0,1,0,0-4.66,2.25,2.25,0,0,0-1.65.67,2.42,2.42,0,0,0,0,3.32A2.25,2.25,0,0,0,96.38,56.21Z"/></svg>