<svg id="Layer_1" data-name="Layer 1" xmlns="http://www.w3.org/2000/svg" viewBox="0 0 122.3 122.3"><title>l9_3_1</title><path d="M122.27,38.58V49.11a11.74,11.74,0,0,1-11.74,11.74h-11l0,22.52A4.39,4.39,0,0,1,94.86,88H75.07L67,104.45c-.31.53-2.18,3.69-5.28,3.78-3.27.1-5.28-3.28-5.56-3.78L47.3,88h-23a4.4,4.4,0,0,1-2.92-1.24,4.88,4.88,0,0,1-1.31-3c-.33-2.64-.36-11.22,0-22.95H11.65A11.74,11.74,0,0,1-.09,49.11V38.58A11.74,11.74,0,0,1,11.65,26.84H39.2A11.74,11.74,0,0,1,50.94,38.58V49.11A11.74,11.74,0,0,1,39.2,60.85H28.55q0,9.23.05,18.45h14l-3.55-6.62a8.51,8.51,0,0,1-.34-6.46,4,4,0,0,1,2.17-2.36l38.86.06a4.19,4.19,0,0,1,2.8,2.81,9.71,9.71,0,0,1,.12,6l-3.27,6.6h11.5q0-9.22,0-18.45H83A11.74,11.74,0,0,1,71.24,49.11V38.58A11.74,11.74,0,0,1,83,26.84h27.55A11.74,11.74,0,0,1,122.27,38.58ZM64.18,82.14l4.54-4.49a2.49,2.49,0,0,0,.75-1.81,2.21,2.21,0,0,0-.75-1.72A2.33,2.33,0,0,0,67,73.36a2.39,2.39,0,0,0-1.76.76l-4.54,4.53-4.53-4.53a2.48,2.48,0,0,0-1.77-.8,2.18,2.18,0,0,0-1.72.76,2.46,2.46,0,0,0-.76,1.8,2.59,2.59,0,0,0,.72,1.77l4.53,4.49-4.53,4.54a2.42,2.42,0,0,0,0,3.52,2.57,2.57,0,0,0,1.76.72,2.41,2.41,0,0,0,1.77-.72l4.53-4.53,4.54,4.53A2.39,2.39,0,0,0,67,91a2.42,2.42,0,0,0,1.77-.76,2.4,2.4,0,0,0,.71-1.76,2.3,2.3,0,0,0-.71-1.76Zm-50-40.82a4.39,4.39,0,0,0-1.78.32V39.43h3.88c1.05,0,1.57-.42,1.57-1.26s-.52-1.25-1.57-1.25H10.73a1.54,1.54,0,0,0-1.13.4,1.57,1.57,0,0,0-.4,1.15v4.88a1,1,0,0,0,.35.78,1.22,1.22,0,0,0,.84.3,1.73,1.73,0,0,0,.81-.2,6.93,6.93,0,0,1,1-.32,4.88,4.88,0,0,1,1-.09,2,2,0,0,1,1.4.45,1.85,1.85,0,0,1,0,2.53,2.29,2.29,0,0,1-1.49.4,2.91,2.91,0,0,1-1-.16,9.89,9.89,0,0,1-1-.43l-.36-.18-.54-.27a1.18,1.18,0,0,0-.45-.07.93.93,0,0,0-.76.38,1.52,1.52,0,0,0-.3,1,1.35,1.35,0,0,0,.13.62,1.49,1.49,0,0,0,.43.49,5.64,5.64,0,0,0,1.84.9,7.36,7.36,0,0,0,2.19.33,5.82,5.82,0,0,0,2.57-.54,4,4,0,0,0,1.73-1.53,4.24,4.24,0,0,0,.61-2.29,4.36,4.36,0,0,0-.51-2.13,3.64,3.64,0,0,0-1.42-1.44A4.19,4.19,0,0,0,14.21,41.32Zm11.43,3.11,1.94-1.93a1,1,0,0,0,.33-.77.94.94,0,0,0-.33-.74,1,1,0,0,0-.75-.32,1.07,1.07,0,0,0-.76.32l-1.94,1.95L22.18,41a1,1,0,0,0-.75-.34,1,1,0,0,0-.74.32,1.07,1.07,0,0,0-.33.78,1.11,1.11,0,0,0,.31.75l1.94,1.93-1.94,1.94a1.06,1.06,0,0,0,0,1.52,1.13,1.13,0,0,0,.76.3,1,1,0,0,0,.75-.3l1.95-2,1.94,2a1.07,1.07,0,0,0,.76.32,1,1,0,0,0,.75-.32,1,1,0,0,0,.31-.76,1,1,0,0,0-.31-.76ZM38.27,47H34.65l2.56-2.61a8.29,8.29,0,0,0,1.5-2,4.46,4.46,0,0,0,.44-2,3.36,3.36,0,0,0-.54-1.88,3.64,3.64,0,0,0-1.56-1.26,5.85,5.85,0,0,0-2.34-.44,6.89,6.89,0,0,0-2.08.33,6.79,6.79,0,0,0-1.9.9,1.26,1.26,0,0,0-.44.46,1.54,1.54,0,0,0-.12.65,1.51,1.51,0,0,0,.31,1,.91.91,0,0,0,.75.41,1.34,1.34,0,0,0,.35,0,3,3,0,0,0,.37-.18l.28-.15.36-.18a8.64,8.64,0,0,1,1-.44,3,3,0,0,1,1-.15,1.43,1.43,0,0,1,1,.32,1.21,1.21,0,0,1,.36.94,3.5,3.5,0,0,1-1.19,2.28l-3.82,4a2,2,0,0,0-.61,1.41,1.37,1.37,0,0,0,.38,1,1.38,1.38,0,0,0,1,.38h6.57a1.79,1.79,0,0,0,1.18-.32,1.24,1.24,0,0,0,.39-1,1.19,1.19,0,0,0-.39-1A1.85,1.85,0,0,0,38.27,47Zm57-.26a1.33,1.33,0,0,0,.87-.29,1.24,1.24,0,0,0,.47-.81,2.2,2.2,0,0,1,.54-1,10.88,10.88,0,0,1,1.21-1.12c.56-.5,1-.92,1.37-1.27a4.88,4.88,0,0,0,.9-1.28,3.71,3.71,0,0,0-.32-3.77,4.66,4.66,0,0,0-1.92-1.49,6.87,6.87,0,0,0-2.79-.54,9.21,9.21,0,0,0-2.77.44,8.62,8.62,0,0,0-2.46,1.24,2.17,2.17,0,0,0-.59.64,1.81,1.81,0,0,0-.18.85A2,2,0,0,0,90,39.62a1.28,1.28,0,0,0,1,.51,2.93,2.93,0,0,0,1.32-.45l.58-.29a8.79,8.79,0,0,1,1.21-.59,3,3,0,0,1,1.09-.2,1.63,1.63,0,0,1,1.06.31,1,1,0,0,1,.38.84,1.78,1.78,0,0,1-.27,1,8.88,8.88,0,0,1-.83,1,7.92,7.92,0,0,0-1.2,1.55A3.71,3.71,0,0,0,94,45.17a1.67,1.67,0,0,0,.35,1.15A1.17,1.17,0,0,0,95.27,46.73Zm0,5.74A2.25,2.25,0,0,0,97,51.8a2.42,2.42,0,0,0,0-3.32,2.38,2.38,0,0,0-3.31,0,2.42,2.42,0,0,0,0,3.32A2.25,2.25,0,0,0,95.32,52.47Z"/></svg>