<svg id="Layer_1" data-name="Layer 1" xmlns="http://www.w3.org/2000/svg" viewBox="0 0 122.3 122.3"><title>l9_3_1</title><path d="M122.11,37.5V54.16a8.66,8.66,0,0,1-8.66,8.66H99.37l0,22.48A4.38,4.38,0,0,1,94.74,90H76.58v3.75a8.69,8.69,0,0,1-8.69,8.69H51.3a8.69,8.69,0,0,1-8.69-8.69V90H24.28a4.45,4.45,0,0,1-2.93-1.23,5,5,0,0,1-1.31-3c-.32-2.63-.36-11.2,0-22.91H8.58A8.66,8.66,0,0,1-.07,54.16V37.5a8.65,8.65,0,0,1,8.65-8.65H42.23a8.65,8.65,0,0,1,8.65,8.65V54.16a8.66,8.66,0,0,1-8.65,8.66H28.53q0,9.21,0,18.42h14V77.12a8.69,8.69,0,0,1,8.69-8.69H67.89a8.69,8.69,0,0,1,8.69,8.69v4.12H90.77q0-9.21,0-18.42h-11a8.66,8.66,0,0,1-8.66-8.66V37.5a8.66,8.66,0,0,1,8.66-8.65h33.64A8.66,8.66,0,0,1,122.11,37.5ZM17.7,49.82H14.08l2.55-2.61a8.64,8.64,0,0,0,1.51-2,4.56,4.56,0,0,0,.44-2A3.37,3.37,0,0,0,18,41.29,3.64,3.64,0,0,0,16.47,40a5.85,5.85,0,0,0-2.34-.44,6.94,6.94,0,0,0-2.08.33,6.79,6.79,0,0,0-1.9.9,1.26,1.26,0,0,0-.44.46,1.55,1.55,0,0,0-.11.65,1.57,1.57,0,0,0,.3,1,.92.92,0,0,0,.76.41,1.27,1.27,0,0,0,.34,0,2.46,2.46,0,0,0,.37-.18l.28-.15.36-.18a8.64,8.64,0,0,1,1-.44,3,3,0,0,1,1-.15,1.46,1.46,0,0,1,1,.32,1.24,1.24,0,0,1,.35.94,3.5,3.5,0,0,1-1.19,2.28l-3.82,4a2,2,0,0,0-.61,1.41,1.37,1.37,0,0,0,.38,1,1.39,1.39,0,0,0,1,.38H17.7a1.76,1.76,0,0,0,1.17-.32,1.24,1.24,0,0,0,.39-1,1.19,1.19,0,0,0-.39-1A1.82,1.82,0,0,0,17.7,49.82Zm9-2.56,1.94-1.93a1,1,0,0,0,.33-.77.94.94,0,0,0-.33-.74,1,1,0,0,0-.75-.32,1.07,1.07,0,0,0-.76.32l-1.94,2-2-2a1,1,0,0,0-.75-.34,1,1,0,0,0-.74.32,1.07,1.07,0,0,0-.33.78,1.11,1.11,0,0,0,.31.75l1.94,1.93L21.71,49.2a1.06,1.06,0,0,0,0,1.52,1.13,1.13,0,0,0,.76.3,1,1,0,0,0,.75-.3l2-1.95,1.94,1.95a1.07,1.07,0,0,0,.76.32,1,1,0,0,0,.75-.32,1,1,0,0,0,.31-.76,1,1,0,0,0-.31-.76Zm13.1,2.56H38.31V41.28a1.55,1.55,0,0,0-.45-1.17,1.61,1.61,0,0,0-1.16-.43,3,3,0,0,0-1.49.45l-2.88,1.68a1.21,1.21,0,0,0-.63,1.11,1.5,1.5,0,0,0,.36,1,1.07,1.07,0,0,0,.86.44,1.21,1.21,0,0,0,.63-.18L35,43.32v6.5H33.54a1.78,1.78,0,0,0-1.19.32,1.22,1.22,0,0,0-.38,1c0,.89.52,1.33,1.57,1.33h6.24c1,0,1.57-.44,1.57-1.33a1.22,1.22,0,0,0-.38-1A1.78,1.78,0,0,0,39.78,49.82Zm61.08,1.83H96l3.41-3.48a11.18,11.18,0,0,0,2-2.7,6.09,6.09,0,0,0,.59-2.68,4.48,4.48,0,0,0-.73-2.51,4.71,4.71,0,0,0-2.08-1.67A7.62,7.62,0,0,0,96.11,38a9.73,9.73,0,0,0-5.3,1.63,1.56,1.56,0,0,0-.59.62,2,2,0,0,0-.16.87,2.08,2.08,0,0,0,.41,1.28,1.22,1.22,0,0,0,1,.54,1.33,1.33,0,0,0,.45-.07,2.66,2.66,0,0,0,.5-.23l.37-.2.48-.24a11.62,11.62,0,0,1,1.35-.59,3.84,3.84,0,0,1,1.29-.2,1.88,1.88,0,0,1,1.33.43,1.62,1.62,0,0,1,.47,1.25,4.66,4.66,0,0,1-1.59,3l-5.08,5.31a2.6,2.6,0,0,0-.82,1.87,1.83,1.83,0,0,0,.5,1.31,1.86,1.86,0,0,0,1.37.51h8.76a2.37,2.37,0,0,0,1.57-.43,1.63,1.63,0,0,0,.52-1.34,1.58,1.58,0,0,0-.52-1.31A2.43,2.43,0,0,0,100.86,51.65ZM63.13,86.38l4.53-4.49a2.45,2.45,0,0,0,.76-1.81,2.2,2.2,0,0,0-.76-1.72,2.34,2.34,0,0,0-1.76-.75,2.45,2.45,0,0,0-1.77.75L59.6,82.9l-4.54-4.54a2.45,2.45,0,0,0-1.76-.8,2.2,2.2,0,0,0-1.72.76,2.46,2.46,0,0,0-.76,1.81,2.6,2.6,0,0,0,.71,1.76l4.54,4.49-4.54,4.54a2.45,2.45,0,0,0,0,3.53,2.56,2.56,0,0,0,1.77.71,2.36,2.36,0,0,0,1.76-.71l4.54-4.54,4.53,4.54a2.45,2.45,0,0,0,1.77.75,2.41,2.41,0,0,0,1.76-.75,2.39,2.39,0,0,0,.72-1.77,2.31,2.31,0,0,0-.72-1.76Z"/></svg>