<svg id="Layer_1" data-name="Layer 1" xmlns="http://www.w3.org/2000/svg" viewBox="0 0 122.3 122.3"><title>l9_3_1</title><path d="M122.39,38.62V55.29a8.65,8.65,0,0,1-8.65,8.65H99.65l0,22.48A4.37,4.37,0,0,1,95,91.08H76.86v3.75a8.69,8.69,0,0,1-8.69,8.69H51.59a8.69,8.69,0,0,1-8.69-8.69V91.08H24.56a4.43,4.43,0,0,1-2.92-1.23,4.9,4.9,0,0,1-1.31-3c-.33-2.63-.36-11.2,0-22.91H8.86A8.66,8.66,0,0,1,.21,55.29V38.62A8.65,8.65,0,0,1,8.86,30H42.51a8.65,8.65,0,0,1,8.65,8.65V55.29a8.65,8.65,0,0,1-8.65,8.65H28.81q0,9.21.05,18.42h14V78.24a8.69,8.69,0,0,1,8.69-8.69H68.17a8.69,8.69,0,0,1,8.69,8.69v4.12H91.05l0-18.42h-11a8.65,8.65,0,0,1-8.65-8.65V38.62A8.65,8.65,0,0,1,80.09,30h33.65A8.65,8.65,0,0,1,122.39,38.62ZM10.12,50.94H6.5l2.56-2.61a8.29,8.29,0,0,0,1.5-2,4.41,4.41,0,0,0,.44-2,3.37,3.37,0,0,0-.54-1.89A3.64,3.64,0,0,0,8.9,41.15a5.85,5.85,0,0,0-2.34-.44A6.89,6.89,0,0,0,4.48,41a6.66,6.66,0,0,0-1.9.9,1.14,1.14,0,0,0-.44.47,1.46,1.46,0,0,0-.12.64,1.52,1.52,0,0,0,.31,1,.9.9,0,0,0,.75.4,1.34,1.34,0,0,0,.35-.05l.37-.17L4.07,44l.36-.18a9.5,9.5,0,0,1,1-.44,3,3,0,0,1,1-.15,1.43,1.43,0,0,1,1,.32,1.2,1.2,0,0,1,.35.94,3.5,3.5,0,0,1-1.18,2.29l-3.82,4a2,2,0,0,0-.61,1.41,1.33,1.33,0,0,0,.38,1,1.35,1.35,0,0,0,1,.39h6.57a1.79,1.79,0,0,0,1.18-.33,1.23,1.23,0,0,0,.39-1,1.19,1.19,0,0,0-.39-1A1.85,1.85,0,0,0,10.12,50.94Zm9-2.56,1.95-1.92a1.1,1.1,0,0,0,.32-.78,1,1,0,0,0-.32-.74,1.05,1.05,0,0,0-1.51,0l-1.95,2-1.94-2a1.08,1.08,0,0,0-.76-.34,1,1,0,0,0-.74.33,1.06,1.06,0,0,0-.32.77,1.09,1.09,0,0,0,.31.76l1.94,1.92-1.94,1.95a1,1,0,0,0-.33.75,1,1,0,0,0,.33.76,1.1,1.1,0,0,0,.75.3,1.06,1.06,0,0,0,.76-.3l1.94-2,1.95,2a1,1,0,0,0,.75.32,1.07,1.07,0,0,0,.76-.32,1.06,1.06,0,0,0,.3-.76,1,1,0,0,0-.3-.75Zm9.29,5.35A4.21,4.21,0,0,0,32,52.05a8,8,0,0,0,1.24-4.84A7.89,7.89,0,0,0,32,42.39a4.2,4.2,0,0,0-3.59-1.68,4.21,4.21,0,0,0-3.6,1.68,8,8,0,0,0-1.24,4.82,8,8,0,0,0,1.24,4.84A4.21,4.21,0,0,0,28.39,53.73Zm0-2.5a1.3,1.3,0,0,1-1.24-.94,9,9,0,0,1-.38-3.08,8.92,8.92,0,0,1,.38-3.07,1.29,1.29,0,0,1,2.48,0A8.73,8.73,0,0,1,30,47.21a8.75,8.75,0,0,1-.38,3.08A1.29,1.29,0,0,1,28.39,51.23Zm7.85,2.44a1.64,1.64,0,0,0,1.23-.5,1.79,1.79,0,0,0,0-2.48,1.64,1.64,0,0,0-1.23-.51,1.67,1.67,0,0,0-1.25.51,1.79,1.79,0,0,0,0,2.48A1.67,1.67,0,0,0,36.24,53.67Zm11.2-2.73H43.82l2.55-2.61a8.64,8.64,0,0,0,1.51-2,4.55,4.55,0,0,0,.44-2,3.38,3.38,0,0,0-.55-1.89,3.64,3.64,0,0,0-1.56-1.26,5.85,5.85,0,0,0-2.34-.44,6.94,6.94,0,0,0-2.08.33,6.79,6.79,0,0,0-1.9.9,1.21,1.21,0,0,0-.44.47,1.47,1.47,0,0,0-.11.64,1.58,1.58,0,0,0,.3,1,.93.93,0,0,0,.76.4,1.27,1.27,0,0,0,.34-.05,3.73,3.73,0,0,0,.37-.17l.28-.16.36-.18a8,8,0,0,1,1-.44,2.93,2.93,0,0,1,1-.15,1.46,1.46,0,0,1,1,.32,1.24,1.24,0,0,1,.35.94,3.52,3.52,0,0,1-1.19,2.29l-3.82,4a2,2,0,0,0-.61,1.41,1.32,1.32,0,0,0,1.41,1.37h6.57a1.76,1.76,0,0,0,1.17-.33,1.23,1.23,0,0,0,.39-1,1.19,1.19,0,0,0-.39-1A1.82,1.82,0,0,0,47.44,50.94Zm38.79,5.55A5.59,5.59,0,0,0,91,54.26a10.75,10.75,0,0,0,1.66-6.46A10.62,10.62,0,0,0,91,41.37a6.27,6.27,0,0,0-9.59,0,10.69,10.69,0,0,0-1.66,6.43,10.75,10.75,0,0,0,1.66,6.46A5.59,5.59,0,0,0,86.23,56.49Zm0-3.34a1.72,1.72,0,0,1-1.66-1.24,12.13,12.13,0,0,1-.5-4.11,12,12,0,0,1,.5-4.09,1.73,1.73,0,0,1,3.32,0,12,12,0,0,1,.5,4.08,12.13,12.13,0,0,1-.5,4.11A1.72,1.72,0,0,1,86.23,53.15Zm10.46,3.27a2.25,2.25,0,0,0,1.65-.67,2.42,2.42,0,0,0,0-3.32,2.38,2.38,0,0,0-3.31,0,2.42,2.42,0,0,0,0,3.32A2.25,2.25,0,0,0,96.69,56.42Zm15.63-6.36h-.53V41.39a2,2,0,0,0-.65-1.6,2.24,2.24,0,0,0-1.56-.58,2.4,2.4,0,0,0-1.07.25,2.29,2.29,0,0,0-.85.73L100.8,50a2.68,2.68,0,0,0-.53,1.58,1.85,1.85,0,0,0,.5,1.32,1.83,1.83,0,0,0,1.37.53h5.35v.81a2,2,0,0,0,2.14,2.19,2.2,2.2,0,0,0,1.56-.55,2.13,2.13,0,0,0,.6-1.64v-.81h.53c1.39,0,2.09-.57,2.09-1.71S113.71,50.06,112.32,50.06Zm-7.71,0,2.88-4.15v4.15ZM63.41,87.51,68,83a2.45,2.45,0,0,0,.75-1.8A2.23,2.23,0,0,0,68,79.48a2.36,2.36,0,0,0-1.77-.75,2.41,2.41,0,0,0-1.76.75L59.88,84l-4.53-4.54a2.48,2.48,0,0,0-1.77-.79,2.21,2.21,0,0,0-1.72.75,2.5,2.5,0,0,0-.76,1.81A2.57,2.57,0,0,0,51.82,83l4.53,4.5L51.82,92a2.43,2.43,0,0,0,0,3.53,2.56,2.56,0,0,0,1.76.71,2.4,2.4,0,0,0,1.77-.71L59.88,91l4.54,4.54a2.43,2.43,0,0,0,1.76.76A2.46,2.46,0,0,0,68,95.57a2.41,2.41,0,0,0,.71-1.76A2.34,2.34,0,0,0,68,92Z"/></svg>