<svg id="Layer_1" data-name="Layer 1" xmlns="http://www.w3.org/2000/svg" viewBox="0 0 122.3 122.3"><title>l9_3_1</title><path d="M122.63,41.9V58.56A8.66,8.66,0,0,1,114,67.22H99.9l0,22.48a4.38,4.38,0,0,1-4.66,4.66H77.11v3.75a8.69,8.69,0,0,1-8.69,8.69H51.83a8.69,8.69,0,0,1-8.69-8.69V94.36H24.8a4.43,4.43,0,0,1-2.92-1.23,5,5,0,0,1-1.31-3c-.33-2.63-.36-11.2,0-22.91H9.11A8.66,8.66,0,0,1,.46,58.56V41.9a8.65,8.65,0,0,1,8.65-8.65H42.75a8.66,8.66,0,0,1,8.66,8.65V58.56a8.66,8.66,0,0,1-8.66,8.66H29.05q0,9.21.05,18.42h14V81.52a8.69,8.69,0,0,1,8.69-8.69H68.42a8.69,8.69,0,0,1,8.69,8.69v4.12H91.3q0-9.21,0-18.42h-11a8.66,8.66,0,0,1-8.65-8.66V41.9a8.65,8.65,0,0,1,8.65-8.65H114A8.65,8.65,0,0,1,122.63,41.9ZM10.91,52.18h-.4v-6.5a1.51,1.51,0,0,0-.49-1.2,1.68,1.68,0,0,0-1.17-.43,1.9,1.9,0,0,0-.8.18,1.78,1.78,0,0,0-.64.55L2.27,52.13a2,2,0,0,0-.4,1.19,1.41,1.41,0,0,0,.38,1,1.35,1.35,0,0,0,1,.39h4v.61a1.63,1.63,0,0,0,.44,1.23A1.64,1.64,0,0,0,8.89,57a1.69,1.69,0,0,0,1.17-.41,1.6,1.6,0,0,0,.45-1.23V54.7h.4c1,0,1.56-.42,1.56-1.28S12,52.18,10.91,52.18Zm-5.78,0,2.16-3.11v3.11Zm14.22-.52,1.94-1.93a1,1,0,0,0,.33-.77.94.94,0,0,0-.33-.74,1,1,0,0,0-.75-.32,1.07,1.07,0,0,0-.76.32l-1.94,2-1.95-2a1,1,0,0,0-.75-.34,1,1,0,0,0-.74.32,1.07,1.07,0,0,0-.33.78,1.11,1.11,0,0,0,.31.75l1.94,1.93L14.38,53.6a1.06,1.06,0,0,0,0,1.52,1.13,1.13,0,0,0,.76.3,1,1,0,0,0,.75-.3l1.95-1.95,1.94,1.95a1.07,1.07,0,0,0,.76.32,1,1,0,0,0,.75-.32,1,1,0,0,0,.31-.76,1,1,0,0,0-.31-.76ZM28.64,57a4.21,4.21,0,0,0,3.6-1.68,8.08,8.08,0,0,0,1.24-4.84,8,8,0,0,0-1.25-4.82A4.21,4.21,0,0,0,28.64,44,4.18,4.18,0,0,0,25,45.67a8,8,0,0,0-1.25,4.82A8,8,0,0,0,25,55.33,4.18,4.18,0,0,0,28.64,57Zm0-2.51a1.3,1.3,0,0,1-1.25-.93A9.08,9.08,0,0,1,27,50.49a9,9,0,0,1,.37-3.07,1.3,1.3,0,0,1,2.49,0,8.9,8.9,0,0,1,.38,3.06,9,9,0,0,1-.38,3.08A1.29,1.29,0,0,1,28.64,54.5ZM36.48,57a1.68,1.68,0,0,0,1.24-.5,1.83,1.83,0,0,0,0-2.49,1.68,1.68,0,0,0-1.24-.5,1.75,1.75,0,1,0,0,3.49ZM48.2,52.18h-.39v-6.5a1.54,1.54,0,0,0-.49-1.2,1.68,1.68,0,0,0-1.17-.43,1.87,1.87,0,0,0-.8.18,1.7,1.7,0,0,0-.64.55l-5.15,7.35a2,2,0,0,0-.39,1.19,1.31,1.31,0,0,0,1.4,1.38h4v.61A1.63,1.63,0,0,0,45,56.54a1.87,1.87,0,0,0,2.34,0,1.6,1.6,0,0,0,.45-1.23V54.7h.39c1,0,1.57-.42,1.57-1.28S49.25,52.18,48.2,52.18Zm-5.78,0,2.16-3.11v3.11Zm49.14,3.87h-2V44.67A2.11,2.11,0,0,0,89,43.11a2.15,2.15,0,0,0-1.55-.57,4,4,0,0,0-2,.6l-3.84,2.23a1.62,1.62,0,0,0-.84,1.49,2,2,0,0,0,.48,1.3,1.42,1.42,0,0,0,1.15.59,1.63,1.63,0,0,0,.84-.24l1.92-1.12v8.66h-2a2.39,2.39,0,0,0-1.58.43,1.6,1.6,0,0,0-.5,1.3c0,1.18.69,1.77,2.08,1.77h8.33c1.39,0,2.09-.59,2.09-1.77a1.64,1.64,0,0,0-.5-1.3A2.42,2.42,0,0,0,91.56,56.05Zm5.38,3.65A2.24,2.24,0,0,0,98.58,59a2.42,2.42,0,0,0,0-3.32A2.24,2.24,0,0,0,96.94,55a2.33,2.33,0,1,0,0,4.66Zm11.9-11.28a4.75,4.75,0,0,0-2,.44,3.9,3.9,0,0,0-1.47,1.21,6.25,6.25,0,0,1,.9-3.13,2.29,2.29,0,0,1,2-1.11,3.14,3.14,0,0,1,1.1.19q.53.19,1.32.57l.53.27a6.88,6.88,0,0,0,.72.34,1.46,1.46,0,0,0,.6.11,1.28,1.28,0,0,0,1-.51,2,2,0,0,0,.42-1.26,1.74,1.74,0,0,0-.18-.84,2.08,2.08,0,0,0-.59-.65,7.66,7.66,0,0,0-2.41-1.2,9.26,9.26,0,0,0-2.75-.43,6.49,6.49,0,0,0-3.73,1.08,7,7,0,0,0-2.47,3.08,11.54,11.54,0,0,0-.88,4.69,9.55,9.55,0,0,0,1.85,6.29A6.45,6.45,0,0,0,108,59.77a6.26,6.26,0,0,0,3-.74,5.32,5.32,0,0,0,2.1-2.08,6.41,6.41,0,0,0,.1-5.86,5,5,0,0,0-1.82-2A4.84,4.84,0,0,0,108.84,48.42Zm-1.1,8a1.93,1.93,0,0,1-1.49-.64,2.65,2.65,0,0,1,0-3.3,2.14,2.14,0,0,1,3,0,2.8,2.8,0,0,1,0,3.32A1.89,1.89,0,0,1,107.74,56.39ZM63.65,90.78l4.54-4.49A2.49,2.49,0,0,0,69,84.48a2.23,2.23,0,0,0-.76-1.72A2.34,2.34,0,0,0,66.43,82a2.44,2.44,0,0,0-1.77.75L60.13,87.3l-4.54-4.54a2.45,2.45,0,0,0-1.76-.8,2.24,2.24,0,0,0-1.73.76,2.48,2.48,0,0,0-.75,1.81,2.6,2.6,0,0,0,.71,1.76l4.54,4.49-4.54,4.54a2.45,2.45,0,0,0,0,3.53,2.56,2.56,0,0,0,1.77.71,2.39,2.39,0,0,0,1.76-.71l4.54-4.54,4.53,4.54a2.45,2.45,0,0,0,3.53,0,2.38,2.38,0,0,0,.71-1.77,2.3,2.3,0,0,0-.71-1.76Z"/></svg>