<svg id="Layer_1" data-name="Layer 1" xmlns="http://www.w3.org/2000/svg" viewBox="0 0 122.3 122.3"><title>l9_3_1</title><path d="M122.06,37.12V47.65A11.74,11.74,0,0,1,110.32,59.4h-11l0,22.51a4.37,4.37,0,0,1-4.66,4.67H74.87Q70.8,94.79,66.75,103c-.3.52-2.18,3.68-5.28,3.78-3.26.09-5.27-3.29-5.56-3.78L47.09,86.58h-23a4.42,4.42,0,0,1-2.93-1.24,4.94,4.94,0,0,1-1.31-3c-.33-2.63-.36-11.22,0-22.94H11.45A11.75,11.75,0,0,1-.3,47.65V37.12A11.74,11.74,0,0,1,11.45,25.38H39A11.74,11.74,0,0,1,50.73,37.12V47.65A11.75,11.75,0,0,1,39,59.4H28.35q0,9.21,0,18.44h14q-1.78-3.3-3.56-6.62a8.51,8.51,0,0,1-.34-6.46,3.94,3.94,0,0,1,2.18-2.36l38.86.06a4.21,4.21,0,0,1,2.79,2.81,9.62,9.62,0,0,1,.12,6q-1.64,3.3-3.26,6.6H90.68q0-9.23,0-18.44H82.78A11.74,11.74,0,0,1,71,47.65V37.12A11.73,11.73,0,0,1,82.78,25.38h27.54A11.73,11.73,0,0,1,122.06,37.12ZM64,80.68l4.54-4.49a2.5,2.5,0,0,0,.76-1.81,2.22,2.22,0,0,0-.76-1.72,2.31,2.31,0,0,0-1.76-.76,2.41,2.41,0,0,0-1.77.76L60.45,77.2l-4.54-4.54a2.45,2.45,0,0,0-1.76-.8,2.2,2.2,0,0,0-1.73.76,2.45,2.45,0,0,0-.75,1.8,2.61,2.61,0,0,0,.71,1.77l4.54,4.49-4.54,4.54a2.44,2.44,0,0,0,0,3.52,2.57,2.57,0,0,0,1.77.72,2.38,2.38,0,0,0,1.76-.72l4.54-4.53L65,88.74a2.43,2.43,0,0,0,3.53,0A2.36,2.36,0,0,0,69.22,87a2.28,2.28,0,0,0-.71-1.76ZM17,43.49h-.4V37a1.54,1.54,0,0,0-.48-1.2,1.8,1.8,0,0,0-2-.24,1.53,1.53,0,0,0-.64.54L8.36,43.44A2,2,0,0,0,8,44.63a1.41,1.41,0,0,0,.38,1,1.36,1.36,0,0,0,1,.39h4v.61a1.63,1.63,0,0,0,.44,1.23,1.66,1.66,0,0,0,1.16.41,1.69,1.69,0,0,0,1.17-.41,1.6,1.6,0,0,0,.45-1.23V46H17c1,0,1.56-.42,1.56-1.28S18,43.49,17,43.49Zm-5.78,0,2.16-3.11v3.11ZM25.44,43,27.38,41a1,1,0,0,0,.33-.77.94.94,0,0,0-.33-.74,1,1,0,0,0-.75-.32,1.07,1.07,0,0,0-.76.32l-1.94,1.95L22,39.53a1,1,0,0,0-.75-.34,1,1,0,0,0-.74.32,1.06,1.06,0,0,0-.32.78,1.1,1.1,0,0,0,.3.75l2,1.93-2,1.94a1.06,1.06,0,0,0,0,1.52,1.13,1.13,0,0,0,.76.3,1,1,0,0,0,.75-.3l1.95-2,1.94,2a1.07,1.07,0,0,0,.76.32,1.08,1.08,0,0,0,1.06-1.08,1,1,0,0,0-.31-.76ZM37,41.62a2.94,2.94,0,0,0,1.44-1.09A3,3,0,0,0,39,38.79,3.19,3.19,0,0,0,38.41,37a3.56,3.56,0,0,0-1.57-1.23,6.12,6.12,0,0,0-2.35-.43,7.07,7.07,0,0,0-2.13.33,5.79,5.79,0,0,0-1.83.9A1.2,1.2,0,0,0,30,37.64a1.52,1.52,0,0,0,.3,1A.93.93,0,0,0,31,39a1.06,1.06,0,0,0,.45-.08,6,6,0,0,0,.54-.26l.38-.18a9.52,9.52,0,0,1,1-.43,2.65,2.65,0,0,1,.94-.16,1.53,1.53,0,0,1,1.1.37,1.35,1.35,0,0,1,.4,1,1,1,0,0,1-.45.92,2.77,2.77,0,0,1-1.44.29h-.8a1,1,0,0,0-.84.38,1.35,1.35,0,0,0-.31.9,1.39,1.39,0,0,0,.31.9,1,1,0,0,0,.84.37h1.12a2.76,2.76,0,0,1,1.48.31,1.13,1.13,0,0,1,.45,1,1.27,1.27,0,0,1-.44,1.08,2.57,2.57,0,0,1-1.45.32,3.35,3.35,0,0,1-1-.15,8.11,8.11,0,0,1-1-.44l-.23-.1L31.83,45a6,6,0,0,0-.54-.26,1.06,1.06,0,0,0-.45-.08,1,1,0,0,0-.76.38,1.52,1.52,0,0,0-.3,1,1.46,1.46,0,0,0,.12.62,1.42,1.42,0,0,0,.44.49,5.62,5.62,0,0,0,1.87.91,8,8,0,0,0,2.25.32A6.78,6.78,0,0,0,37,47.86a3.85,3.85,0,0,0,1.69-1.25,3.44,3.44,0,0,0,0-3.87A3,3,0,0,0,37,41.62Zm58.05,3.65a1.35,1.35,0,0,0,.88-.29,1.28,1.28,0,0,0,.47-.81,2.2,2.2,0,0,1,.54-1,10,10,0,0,1,1.21-1.12c.56-.5,1-.92,1.37-1.27a5,5,0,0,0,.9-1.27,3.73,3.73,0,0,0,.37-1.64,3.48,3.48,0,0,0-.7-2.14,4.53,4.53,0,0,0-1.92-1.49,6.79,6.79,0,0,0-2.78-.54,9.16,9.16,0,0,0-2.77.44,8.62,8.62,0,0,0-2.46,1.24,2,2,0,0,0-.59.65,1.74,1.74,0,0,0-.18.84,2,2,0,0,0,.42,1.26,1.28,1.28,0,0,0,1,.51,3,3,0,0,0,1.32-.45l.57-.29A8.86,8.86,0,0,1,94,37.34a3,3,0,0,1,1.09-.2,1.58,1.58,0,0,1,1,.31,1,1,0,0,1,.39.84,1.71,1.71,0,0,1-.28,1,7.31,7.31,0,0,1-.83,1,7.92,7.92,0,0,0-1.2,1.55,3.82,3.82,0,0,0-.43,1.88,1.72,1.72,0,0,0,.35,1.15A1.19,1.19,0,0,0,95.06,45.27Zm0,5.74a2.33,2.33,0,1,0,0-4.66,2.22,2.22,0,0,0-1.64.67,2.42,2.42,0,0,0,0,3.32A2.22,2.22,0,0,0,95.11,51Z"/></svg>