<svg id="Layer_1" data-name="Layer 1" xmlns="http://www.w3.org/2000/svg" viewBox="0 0 122.3 122.3"><title>l9_3_1</title><path d="M122.61,36.08V46.62a11.74,11.74,0,0,1-11.74,11.74h-11l0,22.51a4.37,4.37,0,0,1-4.66,4.67H75.42Q71.35,93.75,67.3,102c-.3.52-2.18,3.68-5.28,3.78-3.26.09-5.27-3.29-5.56-3.78L47.64,85.54h-23a4.45,4.45,0,0,1-2.93-1.23,5,5,0,0,1-1.31-3c-.33-2.63-.36-11.22,0-22.94H12A11.74,11.74,0,0,1,.26,46.62V36.08A11.73,11.73,0,0,1,12,24.34H39.54A11.73,11.73,0,0,1,51.28,36.08V46.62A11.74,11.74,0,0,1,39.54,58.36H28.9q0,9.23.05,18.44H43c-1.19-2.2-2.37-4.41-3.56-6.62a8.51,8.51,0,0,1-.34-6.46,3.88,3.88,0,0,1,2.18-2.35l38.86.05a4.21,4.21,0,0,1,2.79,2.82,9.6,9.6,0,0,1,.12,6q-1.62,3.3-3.26,6.6H91.23q0-9.22,0-18.44H83.33A11.74,11.74,0,0,1,71.59,46.62V36.08A11.73,11.73,0,0,1,83.33,24.34h27.54A11.73,11.73,0,0,1,122.61,36.08ZM64.53,79.64l4.53-4.49a2.46,2.46,0,0,0,.76-1.81,2.18,2.18,0,0,0-.76-1.72,2.33,2.33,0,0,0-1.76-.76,2.46,2.46,0,0,0-1.77.76L61,76.16l-4.54-4.54a2.45,2.45,0,0,0-1.76-.8,2.17,2.17,0,0,0-1.72.76,2.43,2.43,0,0,0-.76,1.8,2.61,2.61,0,0,0,.71,1.77l4.54,4.49-4.54,4.54a2.41,2.41,0,0,0-.75,1.76,2.45,2.45,0,0,0,.75,1.77,2.63,2.63,0,0,0,1.77.71,2.4,2.4,0,0,0,1.76-.71L61,83.17l4.53,4.54a2.45,2.45,0,0,0,1.77.75,2.51,2.51,0,0,0,2.48-2.52,2.29,2.29,0,0,0-.72-1.76ZM17.32,34.43H10.26a1.78,1.78,0,0,0-1.19.33,1.48,1.48,0,0,0,0,2,1.79,1.79,0,0,0,1.2.32h4.5L10.13,45a1.74,1.74,0,0,0-.25.86,1.29,1.29,0,0,0,.49,1,1.6,1.6,0,0,0,1.11.43,1.54,1.54,0,0,0,.77-.21,1.74,1.74,0,0,0,.62-.64L18.32,37a2.28,2.28,0,0,0,.35-1.19,1.39,1.39,0,0,0-.36-1A1.25,1.25,0,0,0,17.32,34.43ZM26,41.93l2-1.92a1.1,1.1,0,0,0,.32-.78,1,1,0,0,0-.32-.74,1,1,0,0,0-.76-.32,1.07,1.07,0,0,0-.76.32l-1.94,1.95-1.94-1.95a1.08,1.08,0,0,0-.76-.34.94.94,0,0,0-.74.33,1.06,1.06,0,0,0-.32.77A1.13,1.13,0,0,0,21,40L23,41.93l-1.95,2a1,1,0,0,0-.32.75,1.07,1.07,0,0,0,.32.76,1.13,1.13,0,0,0,.76.3,1.06,1.06,0,0,0,.76-.3l1.94-2,1.94,2a1.06,1.06,0,0,0,1.52,0,1.06,1.06,0,0,0,.3-.76,1,1,0,0,0-.3-.75ZM39.1,44.49H37.62V36a1.55,1.55,0,0,0-.44-1.17A1.59,1.59,0,0,0,36,34.35a3.06,3.06,0,0,0-1.5.45l-2.88,1.68A1.21,1.21,0,0,0,31,37.59a1.5,1.5,0,0,0,.36,1,1.08,1.08,0,0,0,.87.45,1.26,1.26,0,0,0,.63-.18L34.31,38v6.5H32.85a1.84,1.84,0,0,0-1.19.32,1.22,1.22,0,0,0-.38,1c0,.89.53,1.34,1.57,1.34H39.1c1,0,1.56-.45,1.56-1.34a1.19,1.19,0,0,0-.38-1A1.81,1.81,0,0,0,39.1,44.49Zm56.51-.26a1.35,1.35,0,0,0,.88-.29,1.28,1.28,0,0,0,.47-.81,2.2,2.2,0,0,1,.54-1A10,10,0,0,1,98.71,41c.56-.49,1-.92,1.37-1.27a5,5,0,0,0,.9-1.27,3.73,3.73,0,0,0,.37-1.64,3.5,3.5,0,0,0-.7-2.14,4.61,4.61,0,0,0-1.92-1.49A6.79,6.79,0,0,0,96,32.69a9.16,9.16,0,0,0-2.77.44,8.62,8.62,0,0,0-2.46,1.24,2,2,0,0,0-.59.65,1.74,1.74,0,0,0-.18.84,2,2,0,0,0,.42,1.26,1.28,1.28,0,0,0,1,.51,3,3,0,0,0,1.32-.45l.58-.29a8.27,8.27,0,0,1,1.21-.59,3.18,3.18,0,0,1,1.09-.2,1.58,1.58,0,0,1,1,.31,1,1,0,0,1,.39.84,1.71,1.71,0,0,1-.28,1,7.9,7.9,0,0,1-.82,1,7.63,7.63,0,0,0-1.21,1.55,3.82,3.82,0,0,0-.43,1.88,1.72,1.72,0,0,0,.35,1.15A1.19,1.19,0,0,0,95.61,44.23Zm0,5.74a2.33,2.33,0,1,0,0-4.66A2.22,2.22,0,0,0,94,46a2.42,2.42,0,0,0,0,3.32A2.22,2.22,0,0,0,95.66,50Z"/></svg>