<svg id="Layer_1" data-name="Layer 1" xmlns="http://www.w3.org/2000/svg" viewBox="0 0 122.3 122.3"><title>l9_3_1</title><path d="M122.55,37.94V48.48a11.74,11.74,0,0,1-11.74,11.74h-11l0,22.51a4.37,4.37,0,0,1-4.66,4.67H75.36q-4.06,8.2-8.12,16.42c-.3.52-2.18,3.68-5.28,3.78-3.26.09-5.27-3.29-5.56-3.78L47.58,87.4h-23a4.45,4.45,0,0,1-2.93-1.23,5,5,0,0,1-1.31-3c-.33-2.63-.36-11.22,0-22.94H11.94A11.75,11.75,0,0,1,.19,48.48V37.94A11.75,11.75,0,0,1,11.94,26.2H39.48A11.74,11.74,0,0,1,51.22,37.94V48.48A11.74,11.74,0,0,1,39.48,60.22H28.84q0,9.23.05,18.44h14c-1.19-2.2-2.37-4.41-3.56-6.62A8.51,8.51,0,0,1,39,65.58a3.88,3.88,0,0,1,2.18-2.35L80,63.29a4.16,4.16,0,0,1,2.79,2.81,9.6,9.6,0,0,1,.12,6l-3.26,6.6H91.17q0-9.21,0-18.44H83.27A11.74,11.74,0,0,1,71.53,48.48V37.94A11.74,11.74,0,0,1,83.27,26.2h27.54A11.74,11.74,0,0,1,122.55,37.94ZM64.46,81.5,69,77a2.5,2.5,0,0,0,.76-1.81A2.22,2.22,0,0,0,69,73.48a2.35,2.35,0,0,0-1.76-.76,2.45,2.45,0,0,0-1.77.76L60.94,78,56.4,73.48a2.45,2.45,0,0,0-1.76-.8,2.2,2.2,0,0,0-1.73.76,2.45,2.45,0,0,0-.75,1.8A2.61,2.61,0,0,0,52.87,77l4.54,4.49L52.87,86a2.41,2.41,0,0,0-.75,1.76,2.45,2.45,0,0,0,.75,1.77,2.61,2.61,0,0,0,1.77.71,2.41,2.41,0,0,0,1.76-.71L60.94,85l4.53,4.54a2.45,2.45,0,0,0,3.53,0,2.4,2.4,0,0,0,.71-1.77A2.28,2.28,0,0,0,69,86ZM16.35,42.44a2.73,2.73,0,0,0,1.41-1.06,3.12,3.12,0,0,0,.51-1.8A3,3,0,0,0,17,37.05a5.59,5.59,0,0,0-3.41-.93,5.6,5.6,0,0,0-3.4.93,3.06,3.06,0,0,0,.68,5.39A3,3,0,0,0,9.2,43.51,3.41,3.41,0,0,0,10,48.16a6.16,6.16,0,0,0,3.66,1,6.16,6.16,0,0,0,3.66-1A3.41,3.41,0,0,0,18,43.55,3.16,3.16,0,0,0,16.35,42.44Zm-2.74,4.18c-1.31,0-2-.47-2-1.41s.65-1.4,2-1.4,2,.47,2,1.4S14.92,46.62,13.61,46.62Zm0-8a1.89,1.89,0,0,1,1.2.31,1.5,1.5,0,0,1,0,2,1.83,1.83,0,0,1-1.2.33A1.88,1.88,0,0,1,12.4,41a1.53,1.53,0,0,1,0-2A1.94,1.94,0,0,1,13.61,38.63Zm12.31,5.16,1.94-1.92a1.07,1.07,0,0,0,.33-.78,1,1,0,0,0-.33-.74,1,1,0,0,0-.75-.32,1.07,1.07,0,0,0-.76.32L24.41,42.3l-1.94-1.95a1.1,1.1,0,0,0-.76-.34.94.94,0,0,0-.74.33,1.06,1.06,0,0,0-.32.77,1.13,1.13,0,0,0,.3.76l1.95,1.92-1.95,2a1,1,0,0,0-.32.75,1.07,1.07,0,0,0,.32.76,1.13,1.13,0,0,0,.76.3,1.06,1.06,0,0,0,.76-.3l1.94-2,1.94,2a1.07,1.07,0,0,0,.76.32,1.08,1.08,0,0,0,1.06-1.08,1,1,0,0,0-.31-.75Zm12.64,2.56H34.94l2.55-2.61a8.64,8.64,0,0,0,1.51-2,4.55,4.55,0,0,0,.44-2,3.3,3.3,0,0,0-.55-1.89,3.64,3.64,0,0,0-1.56-1.26A5.85,5.85,0,0,0,35,36.12a7,7,0,0,0-2.08.33,6.6,6.6,0,0,0-1.89.9,1.17,1.17,0,0,0-.45.47,1.64,1.64,0,0,0-.11.64,1.58,1.58,0,0,0,.3,1,.93.93,0,0,0,.76.4,1.27,1.27,0,0,0,.34,0,3.73,3.73,0,0,0,.37-.17l.28-.16.36-.18a8,8,0,0,1,1-.44,2.93,2.93,0,0,1,1-.15,1.46,1.46,0,0,1,1,.32,1.24,1.24,0,0,1,.35.94A3.52,3.52,0,0,1,35,42.23l-3.82,4a2,2,0,0,0-.61,1.41A1.32,1.32,0,0,0,32,49h6.57a1.81,1.81,0,0,0,1.18-.33,1.25,1.25,0,0,0,.38-1,1.22,1.22,0,0,0-.38-1A1.87,1.87,0,0,0,38.56,46.35Zm57-.26a1.4,1.4,0,0,0,.88-.28A1.33,1.33,0,0,0,96.9,45a2.2,2.2,0,0,1,.54-1,10.94,10.94,0,0,1,1.21-1.12c.56-.49,1-.92,1.37-1.27a5,5,0,0,0,.9-1.27,3.71,3.71,0,0,0,.37-1.63,3.51,3.51,0,0,0-.7-2.15,4.61,4.61,0,0,0-1.92-1.49,6.79,6.79,0,0,0-2.78-.54,9.16,9.16,0,0,0-2.77.44,8.62,8.62,0,0,0-2.46,1.24,2,2,0,0,0-.59.65,1.74,1.74,0,0,0-.18.84A2,2,0,0,0,90.31,39a1.28,1.28,0,0,0,1,.51A3,3,0,0,0,92.65,39l.57-.29a8.86,8.86,0,0,1,1.22-.59,3.18,3.18,0,0,1,1.09-.2,1.58,1.58,0,0,1,1,.31,1,1,0,0,1,.39.84,1.71,1.71,0,0,1-.28,1,7.31,7.31,0,0,1-.83,1,8.23,8.23,0,0,0-1.2,1.55,3.82,3.82,0,0,0-.43,1.88,1.76,1.76,0,0,0,.35,1.16A1.21,1.21,0,0,0,95.55,46.09Zm0,5.74a2.24,2.24,0,0,0,1.67-.67,2.28,2.28,0,0,0,.66-1.66,2.29,2.29,0,0,0-2.33-2.33,2.19,2.19,0,0,0-1.64.68,2.25,2.25,0,0,0-.66,1.65A2.28,2.28,0,0,0,94,51.16,2.19,2.19,0,0,0,95.6,51.83Z"/></svg>