<svg id="Layer_1" data-name="Layer 1" xmlns="http://www.w3.org/2000/svg" viewBox="0 0 122.3 122.3"><title>l9_3_1</title><path d="M122.56,39.86V56.52a8.65,8.65,0,0,1-8.65,8.65H99.83q0,11.25,0,22.49A4.46,4.46,0,0,1,98.62,91a4.57,4.57,0,0,1-3.43,1.31H77v3.74a8.71,8.71,0,0,1-8.7,8.7H51.76a8.7,8.7,0,0,1-8.69-8.7V92.32H24.73a4.4,4.4,0,0,1-2.92-1.24,4.88,4.88,0,0,1-1.31-3c-.33-2.64-.36-11.21,0-22.92H9A8.66,8.66,0,0,1,.38,56.52V39.86A8.66,8.66,0,0,1,9,31.21H42.68a8.65,8.65,0,0,1,8.65,8.65V56.52a8.65,8.65,0,0,1-8.65,8.65H29q0,9.21.05,18.42h14V79.48a8.69,8.69,0,0,1,8.69-8.69H68.34A8.7,8.7,0,0,1,77,79.48v4.11H91.23q0-9.21,0-18.42h-11a8.65,8.65,0,0,1-8.65-8.65V39.86a8.65,8.65,0,0,1,8.65-8.65h33.65A8.65,8.65,0,0,1,122.56,39.86ZM7.84,46.5a4.38,4.38,0,0,0-1.78.33V44.61H9.94c1.05,0,1.57-.42,1.57-1.26S11,42.11,9.94,42.11H4.36a1.5,1.5,0,0,0-1.13.4,1.53,1.53,0,0,0-.4,1.15v4.88a1,1,0,0,0,.35.78,1.2,1.2,0,0,0,.84.3,1.73,1.73,0,0,0,.81-.2,7.1,7.1,0,0,1,1-.33,5.74,5.74,0,0,1,1-.09,2.08,2.08,0,0,1,1.4.45,1.59,1.59,0,0,1,.51,1.26A1.57,1.57,0,0,1,8.27,52a2.32,2.32,0,0,1-1.5.41,3.11,3.11,0,0,1-1-.16,10.13,10.13,0,0,1-1-.44l-.36-.17a4.84,4.84,0,0,0-.54-.28,1.42,1.42,0,0,0-.45-.07.94.94,0,0,0-.76.39,1.5,1.5,0,0,0-.3,1,1.38,1.38,0,0,0,.13.62,1.57,1.57,0,0,0,.42.49,5.8,5.8,0,0,0,1.85.9A7.36,7.36,0,0,0,6.94,55a6,6,0,0,0,2.57-.54,4.11,4.11,0,0,0,1.73-1.54,4.23,4.23,0,0,0,.61-2.28,4.33,4.33,0,0,0-.51-2.13A3.64,3.64,0,0,0,9.92,47,4.09,4.09,0,0,0,7.84,46.5Zm11.43,3.12,1.94-1.93a1,1,0,0,0,.32-.77.93.93,0,0,0-.32-.74,1,1,0,0,0-.76-.32,1,1,0,0,0-.75.32l-1.95,1.94-1.94-1.94a1,1,0,0,0-.75-.34,1,1,0,0,0-.74.32,1,1,0,0,0-.33.77,1.09,1.09,0,0,0,.31.76l1.94,1.93L14.3,51.56a1,1,0,0,0-.32.76,1,1,0,0,0,.32.75,1.09,1.09,0,0,0,.76.31,1,1,0,0,0,.75-.31l1.94-1.94,1.95,1.94a1,1,0,0,0,.75.33,1,1,0,0,0,.76-.33,1,1,0,0,0,.31-.75,1,1,0,0,0-.31-.76ZM28.55,55a4.17,4.17,0,0,0,3.6-1.67,8,8,0,0,0,1.25-4.84,8,8,0,0,0-1.25-4.83A4.25,4.25,0,0,0,28.55,42,4.22,4.22,0,0,0,25,43.62a8.08,8.08,0,0,0-1.24,4.83A8.1,8.1,0,0,0,25,53.29,4.2,4.2,0,0,0,28.55,55Zm0-2.5a1.29,1.29,0,0,1-1.24-.93,9.07,9.07,0,0,1-.38-3.08,8.92,8.92,0,0,1,.38-3.07,1.3,1.3,0,0,1,2.49,0,9,9,0,0,1,.37,3.06,9.12,9.12,0,0,1-.37,3.08A1.3,1.3,0,0,1,28.55,52.46Zm7.85,2.45a1.77,1.77,0,0,0,1.24-3,1.8,1.8,0,0,0-2.49,0,1.75,1.75,0,0,0,1.25,3Zm11.2-2.74H44l2.56-2.61a8.54,8.54,0,0,0,1.5-2,4.62,4.62,0,0,0,.44-2,3.27,3.27,0,0,0-.55-1.88,3.45,3.45,0,0,0-1.56-1.26A5.85,5.85,0,0,0,44,42a7.19,7.19,0,0,0-2.07.32,7.09,7.09,0,0,0-1.9.9,1.13,1.13,0,0,0-.44.47,1.54,1.54,0,0,0-.12.65,1.57,1.57,0,0,0,.3,1,.94.94,0,0,0,.76.41,1,1,0,0,0,.34-.06,1.67,1.67,0,0,0,.37-.17l.28-.15.36-.18a8,8,0,0,1,1-.44,2.93,2.93,0,0,1,1-.16,1.4,1.4,0,0,1,1,.33,1.21,1.21,0,0,1,.35.93,3.52,3.52,0,0,1-1.19,2.29l-3.81,4a2,2,0,0,0-.62,1.4,1.33,1.33,0,0,0,.38,1,1.37,1.37,0,0,0,1,.39H47.6a1.85,1.85,0,0,0,1.18-.32,1.25,1.25,0,0,0,.38-1,1.18,1.18,0,0,0-.38-1A1.85,1.85,0,0,0,47.6,52.17ZM91.49,54h-2V42.63a2,2,0,0,0-.59-1.56,2.13,2.13,0,0,0-1.54-.58,4.08,4.08,0,0,0-2,.6l-3.84,2.24a1.62,1.62,0,0,0-.84,1.48,2,2,0,0,0,.48,1.31,1.46,1.46,0,0,0,1.16.59,1.62,1.62,0,0,0,.83-.24l1.92-1.13V54H83.16a2.37,2.37,0,0,0-1.58.43,1.6,1.6,0,0,0-.51,1.29c0,1.19.7,1.78,2.09,1.78h8.33c1.39,0,2.09-.59,2.09-1.78a1.6,1.6,0,0,0-.51-1.29A2.37,2.37,0,0,0,91.49,54Zm5.38,3.64A2.2,2.2,0,0,0,98.51,57a2.25,2.25,0,0,0,.66-1.65,2.28,2.28,0,0,0-.66-1.66,2.38,2.38,0,0,0-3.31,0,2.28,2.28,0,0,0-.66,1.66A2.25,2.25,0,0,0,95.2,57,2.22,2.22,0,0,0,96.87,57.65Zm10.46.08a5.61,5.61,0,0,0,4.8-2.24c1.1-1.48,1.65-3.64,1.65-6.45s-.55-4.95-1.66-6.43a6.25,6.25,0,0,0-9.59,0A10.67,10.67,0,0,0,100.87,49a10.72,10.72,0,0,0,1.66,6.45A5.6,5.6,0,0,0,107.33,57.73Zm0-3.34a1.73,1.73,0,0,1-1.66-1.25,12.1,12.1,0,0,1-.5-4.1,12,12,0,0,1,.5-4.09A1.72,1.72,0,0,1,109,45a11.71,11.71,0,0,1,.51,4.08,11.8,11.8,0,0,1-.51,4.1A1.71,1.71,0,0,1,107.33,54.39ZM63.58,88.74l4.54-4.49a2.49,2.49,0,0,0,.75-1.81,2.21,2.21,0,0,0-.75-1.72A2.37,2.37,0,0,0,66.35,80a2.43,2.43,0,0,0-1.76.76l-4.54,4.54-4.53-4.54a2.48,2.48,0,0,0-1.77-.8,2.18,2.18,0,0,0-1.72.76,2.46,2.46,0,0,0-.76,1.8A2.57,2.57,0,0,0,52,84.25l4.53,4.49L52,93.28A2.39,2.39,0,0,0,51.23,95,2.42,2.42,0,0,0,52,96.81a2.6,2.6,0,0,0,1.76.71,2.44,2.44,0,0,0,1.77-.71l4.53-4.54,4.54,4.54a2.41,2.41,0,0,0,1.76.75A2.49,2.49,0,0,0,68.83,95a2.32,2.32,0,0,0-.71-1.76Z"/></svg>