<svg id="Layer_1" data-name="Layer 1" xmlns="http://www.w3.org/2000/svg" viewBox="0 0 122.3 122.3"><title>l9_3_1</title><path d="M122.46,36.51V53.17a8.65,8.65,0,0,1-8.65,8.65H99.73q0,11.25,0,22.49a4.47,4.47,0,0,1-1.23,3.35A4.57,4.57,0,0,1,95.09,89H76.94v3.74a8.69,8.69,0,0,1-8.69,8.69H51.66A8.69,8.69,0,0,1,43,92.71V89H24.63a4.4,4.4,0,0,1-2.92-1.24,4.94,4.94,0,0,1-1.31-3c-.33-2.64-.36-11.21,0-22.92H8.94A8.66,8.66,0,0,1,.28,53.17V36.51a8.66,8.66,0,0,1,8.66-8.65H42.58a8.66,8.66,0,0,1,8.66,8.65V53.17a8.66,8.66,0,0,1-8.66,8.65H28.88q0,9.21.05,18.42H43V76.13a8.69,8.69,0,0,1,8.69-8.69H68.25a8.69,8.69,0,0,1,8.69,8.69v4.11H91.13q0-9.21,0-18.42h-11a8.65,8.65,0,0,1-8.65-8.65V36.51a8.65,8.65,0,0,1,8.65-8.65h33.65A8.65,8.65,0,0,1,122.46,36.51ZM9.15,44.92a2.92,2.92,0,0,0,1.43-1.09,3,3,0,0,0,.52-1.74,3.2,3.2,0,0,0-.55-1.84A3.61,3.61,0,0,0,9,39a5.94,5.94,0,0,0-2.35-.43,7.38,7.38,0,0,0-2.13.32,6.25,6.25,0,0,0-1.83.9,1.47,1.47,0,0,0-.43.49,1.58,1.58,0,0,0,.18,1.57.93.93,0,0,0,.76.39,1.33,1.33,0,0,0,.45-.08,6,6,0,0,0,.54-.26l.37-.18a8.43,8.43,0,0,1,1-.43,2.71,2.71,0,0,1,1-.17,1.59,1.59,0,0,1,1.1.37,1.36,1.36,0,0,1,.39,1,1,1,0,0,1-.45.92,2.79,2.79,0,0,1-1.44.28H5.28a1,1,0,0,0-.84.38,1.46,1.46,0,0,0,0,1.8,1,1,0,0,0,.84.38H6.4a2.63,2.63,0,0,1,1.47.31,1.12,1.12,0,0,1,.45,1,1.22,1.22,0,0,1-.44,1.08A2.44,2.44,0,0,1,6.43,49a3.28,3.28,0,0,1-1-.15,8.39,8.39,0,0,1-1-.45l-.22-.09L4,48.26,3.43,48A1.29,1.29,0,0,0,3,47.92a.94.94,0,0,0-.76.39,1.49,1.49,0,0,0-.3.94,1.46,1.46,0,0,0,.12.62,1.52,1.52,0,0,0,.43.5,5.77,5.77,0,0,0,1.88.91,7.94,7.94,0,0,0,2.25.31,6.59,6.59,0,0,0,2.54-.44,3.78,3.78,0,0,0,1.69-1.25A3.16,3.16,0,0,0,11.42,48a3.21,3.21,0,0,0-.6-2A3.07,3.07,0,0,0,9.15,44.92Zm10,1.35,1.94-1.93a1,1,0,0,0,.33-.77.94.94,0,0,0-.33-.74,1,1,0,0,0-.75-.33,1,1,0,0,0-.76.33l-1.94,1.94-2-1.94a1,1,0,0,0-.75-.34.93.93,0,0,0-.74.32,1,1,0,0,0-.33.77,1.14,1.14,0,0,0,.31.76l1.94,1.93-1.94,1.94a1,1,0,0,0-.32.76,1,1,0,0,0,.32.75A1.09,1.09,0,0,0,15,50a1,1,0,0,0,.75-.31l2-1.94,1.94,1.94a1,1,0,0,0,.76.33,1,1,0,0,0,.75-.33,1,1,0,0,0,.31-.75,1,1,0,0,0-.31-.76Zm9.29,5.34a4.19,4.19,0,0,0,3.59-1.67,8,8,0,0,0,1.25-4.84,8,8,0,0,0-1.25-4.83,4.24,4.24,0,0,0-3.59-1.67,4.23,4.23,0,0,0-3.61,1.67,8.08,8.08,0,0,0-1.24,4.83,8.1,8.1,0,0,0,1.24,4.84A4.23,4.23,0,0,0,28.47,51.61Zm0-2.5a1.3,1.3,0,0,1-1.25-.94,9,9,0,0,1-.37-3.07A9,9,0,0,1,27.22,42a1.3,1.3,0,0,1,1.25-.93,1.29,1.29,0,0,1,1.24.94,8.9,8.9,0,0,1,.38,3.06,9,9,0,0,1-.38,3.07A1.29,1.29,0,0,1,28.47,49.11Zm7.84,2.45a1.65,1.65,0,0,0,1.24-.51,1.81,1.81,0,0,0,0-2.48,1.64,1.64,0,0,0-1.24-.5,1.67,1.67,0,0,0-1.25.5,1.81,1.81,0,0,0,0,2.48A1.67,1.67,0,0,0,36.31,51.56Zm10.14-6.64a2.92,2.92,0,0,0,1.43-1.09,3,3,0,0,0,.51-1.74,3.12,3.12,0,0,0-.55-1.84A3.58,3.58,0,0,0,46.28,39a6,6,0,0,0-2.35-.43,7.5,7.5,0,0,0-2.14.32,6.07,6.07,0,0,0-1.82.9,1.51,1.51,0,0,0-.44.49,1.48,1.48,0,0,0-.12.63,1.42,1.42,0,0,0,.31.94.91.91,0,0,0,.75.39,1.25,1.25,0,0,0,.45-.08,6,6,0,0,0,.54-.26l.38-.18a8.43,8.43,0,0,1,1-.43,2.67,2.67,0,0,1,1-.17,1.56,1.56,0,0,1,1.09.37,1.33,1.33,0,0,1,.4,1,1,1,0,0,1-.45.92,2.79,2.79,0,0,1-1.44.28h-.79a1,1,0,0,0-.85.38,1.5,1.5,0,0,0,0,1.8,1,1,0,0,0,.85.38h1.11a2.65,2.65,0,0,1,1.48.31,1.12,1.12,0,0,1,.45,1,1.25,1.25,0,0,1-.44,1.08,2.48,2.48,0,0,1-1.45.33,3.39,3.39,0,0,1-1-.15,8.31,8.31,0,0,1-1-.45l-.23-.09-.17-.09L40.72,48a1.25,1.25,0,0,0-.45-.08.91.91,0,0,0-.75.39,1.44,1.44,0,0,0-.31.94,1.3,1.3,0,0,0,.56,1.12,5.72,5.72,0,0,0,1.87.91,8,8,0,0,0,2.25.31,6.68,6.68,0,0,0,2.55-.44,3.74,3.74,0,0,0,1.68-1.25,3.11,3.11,0,0,0,.6-1.91,3.22,3.22,0,0,0-.61-2A3,3,0,0,0,46.45,44.92Zm50.2,2.65a1.4,1.4,0,0,0,.87-.29,1.24,1.24,0,0,0,.47-.82,2.26,2.26,0,0,1,.54-1,11,11,0,0,1,1.21-1.11c.56-.5,1-.92,1.37-1.28a4.83,4.83,0,0,0,.9-1.27,3.73,3.73,0,0,0-.32-3.78,4.74,4.74,0,0,0-1.92-1.49A6.87,6.87,0,0,0,97,36a8.87,8.87,0,0,0-2.77.45,8.59,8.59,0,0,0-2.46,1.23,2.19,2.19,0,0,0-.59.65,1.8,1.8,0,0,0-.18.84,1.92,1.92,0,0,0,.42,1.26,1.26,1.26,0,0,0,1,.52,2.85,2.85,0,0,0,1.32-.46l.58-.29a8.62,8.62,0,0,1,1.21-.58,3,3,0,0,1,1.09-.21,1.69,1.69,0,0,1,1.06.31,1,1,0,0,1,.38.84,1.74,1.74,0,0,1-.27,1,8.1,8.1,0,0,1-.83,1,7.88,7.88,0,0,0-1.2,1.54A3.77,3.77,0,0,0,95.33,46a1.73,1.73,0,0,0,.34,1.15A1.24,1.24,0,0,0,96.65,47.57Zm0,5.73a2.22,2.22,0,0,0,1.67-.67,2.41,2.41,0,0,0,0-3.31,2.38,2.38,0,0,0-3.31,0,2.41,2.41,0,0,0,0,3.31A2.2,2.2,0,0,0,96.69,53.3ZM63.48,85.39,68,80.9a2.49,2.49,0,0,0,.75-1.81A2.21,2.21,0,0,0,68,77.37a2.37,2.37,0,0,0-1.77-.76,2.43,2.43,0,0,0-1.76.76L60,81.91l-4.53-4.54a2.46,2.46,0,0,0-1.77-.8,2.18,2.18,0,0,0-1.72.76,2.45,2.45,0,0,0-.75,1.8,2.56,2.56,0,0,0,.71,1.77l4.54,4.49-4.54,4.54a2.43,2.43,0,0,0-.76,1.76,2.46,2.46,0,0,0,.76,1.77,2.6,2.6,0,0,0,1.76.71,2.44,2.44,0,0,0,1.77-.71L60,88.92l4.54,4.54a2.48,2.48,0,0,0,4.24-1.77A2.32,2.32,0,0,0,68,89.93Z"/></svg>