<svg id="Layer_1" data-name="Layer 1" xmlns="http://www.w3.org/2000/svg" viewBox="0 0 122.3 122.3"><title>l9_3_1</title><path d="M122.46,38.91V55.57a8.65,8.65,0,0,1-8.65,8.65H99.73q0,11.25,0,22.49a4.47,4.47,0,0,1-1.23,3.35,4.57,4.57,0,0,1-3.43,1.31H76.94v3.74a8.69,8.69,0,0,1-8.69,8.69H51.66A8.69,8.69,0,0,1,43,95.11V91.37H24.63a4.46,4.46,0,0,1-2.92-1.24,4.94,4.94,0,0,1-1.31-3c-.33-2.63-.36-11.2,0-22.91H8.94A8.66,8.66,0,0,1,.28,55.57V38.91a8.66,8.66,0,0,1,8.66-8.66H42.58a8.66,8.66,0,0,1,8.66,8.66V55.57a8.66,8.66,0,0,1-8.66,8.65H28.88q0,9.21.05,18.42H43V78.53a8.7,8.7,0,0,1,8.69-8.7H68.25a8.7,8.7,0,0,1,8.69,8.7v4.11H91.13q0-9.21,0-18.42h-11a8.65,8.65,0,0,1-8.65-8.65V38.91a8.66,8.66,0,0,1,8.65-8.66h33.65A8.66,8.66,0,0,1,122.46,38.91Zm-105,8.4a2.64,2.64,0,0,0,1.41-1.06,3.13,3.13,0,0,0,.52-1.8,3,3,0,0,0-1.26-2.53A5.66,5.66,0,0,0,14.71,41a5.67,5.67,0,0,0-3.4.92,3,3,0,0,0-1.26,2.53,3,3,0,0,0,.51,1.76A2.89,2.89,0,0,0,12,47.31a3,3,0,0,0-1.7,1.08,3.18,3.18,0,0,0-.59,2A3.11,3.11,0,0,0,11.05,53a6.18,6.18,0,0,0,3.66,1,6.22,6.22,0,0,0,3.67-1,3.11,3.11,0,0,0,1.34-2.67,3,3,0,0,0-2.27-3Zm-2.74,4.18c-1.31,0-2-.47-2-1.4s.65-1.41,2-1.41,2,.47,2,1.41S16,51.49,14.71,51.49Zm0-8a1.94,1.94,0,0,1,1.21.31,1.24,1.24,0,0,1,.39,1,1.27,1.27,0,0,1-.39,1,1.94,1.94,0,0,1-1.21.32,1.89,1.89,0,0,1-1.2-.32,1.24,1.24,0,0,1-.4-1,1.21,1.21,0,0,1,.4-1A1.89,1.89,0,0,1,14.71,43.5ZM27,48.66,29,46.74a1.1,1.1,0,0,0,.32-.78,1,1,0,0,0-.32-.73,1,1,0,0,0-.76-.33,1,1,0,0,0-.75.33l-1.95,1.94-1.94-1.94a1.06,1.06,0,0,0-.76-.35,1,1,0,0,0-.74.33,1.06,1.06,0,0,0-.32.77,1.09,1.09,0,0,0,.31.76L24,48.66l-1.94,2a1,1,0,0,0-.33.75,1,1,0,0,0,.33.76,1.11,1.11,0,0,0,.75.31,1.07,1.07,0,0,0,.76-.31l1.94-1.94,1.95,1.94a1,1,0,0,0,.75.32,1,1,0,0,0,.76-.32,1,1,0,0,0,.3-.76,1,1,0,0,0-.3-.75ZM38.6,47.31A2.9,2.9,0,0,0,40,46.23a3,3,0,0,0,.51-1.74A3.12,3.12,0,0,0,40,42.65a3.45,3.45,0,0,0-1.56-1.22A5.94,5.94,0,0,0,36.08,41a7.05,7.05,0,0,0-2.13.32,6,6,0,0,0-1.83.9,1.37,1.37,0,0,0-.43.49,1.31,1.31,0,0,0-.13.63,1.44,1.44,0,0,0,.31.94.91.91,0,0,0,.75.39,1.25,1.25,0,0,0,.45-.08l.54-.26.38-.18c.36-.18.69-.33,1-.44a3,3,0,0,1,1-.16,1.59,1.59,0,0,1,1.1.37,1.36,1.36,0,0,1,.39,1,1,1,0,0,1-.45.91,2.68,2.68,0,0,1-1.44.29h-.79a1.05,1.05,0,0,0-.85.38,1.5,1.5,0,0,0,0,1.8,1.05,1.05,0,0,0,.85.38h1.12a2.74,2.74,0,0,1,1.47.3,1.14,1.14,0,0,1,.45,1,1.25,1.25,0,0,1-.44,1.08,2.46,2.46,0,0,1-1.45.33,3,3,0,0,1-1-.16,7.62,7.62,0,0,1-1-.44l-.22-.1-.18-.08c-.22-.12-.4-.2-.54-.26a1.23,1.23,0,0,0-.44-.08.92.92,0,0,0-.76.39,1.44,1.44,0,0,0-.31.94,1.32,1.32,0,0,0,.13.62,1.41,1.41,0,0,0,.43.5,5.92,5.92,0,0,0,1.87.91A8,8,0,0,0,36,54a6.64,6.64,0,0,0,2.55-.44,3.69,3.69,0,0,0,1.68-1.25,3.4,3.4,0,0,0,0-3.87A3.07,3.07,0,0,0,38.6,47.31ZM94,53.05H89.19l3.41-3.48a11.26,11.26,0,0,0,2-2.7,6,6,0,0,0,.58-2.67,4.38,4.38,0,0,0-.73-2.51A4.68,4.68,0,0,0,92.39,40a7.79,7.79,0,0,0-3.12-.59,9.69,9.69,0,0,0-2.78.43A9.52,9.52,0,0,0,84,41.05a1.65,1.65,0,0,0-.59.63,2.11,2.11,0,0,0-.15.86,2,2,0,0,0,.41,1.29,1.21,1.21,0,0,0,1,.54,1.39,1.39,0,0,0,.46-.08,2.5,2.5,0,0,0,.49-.22l.37-.21.48-.24A14.81,14.81,0,0,1,87.79,43a4,4,0,0,1,1.28-.2,1.91,1.91,0,0,1,1.34.43,1.63,1.63,0,0,1,.46,1.25,4.66,4.66,0,0,1-1.58,3.05l-5.09,5.3a2.65,2.65,0,0,0-.81,1.87,1.77,1.77,0,0,0,.5,1.31,1.81,1.81,0,0,0,1.37.52H94a2.45,2.45,0,0,0,1.57-.43,1.68,1.68,0,0,0,.52-1.35,1.61,1.61,0,0,0-.52-1.31A2.45,2.45,0,0,0,94,53.05Zm15.12-2.71h-.53V41.68a2,2,0,0,0-.65-1.61,2.28,2.28,0,0,0-1.56-.58,2.41,2.41,0,0,0-1.07.26,2.2,2.2,0,0,0-.85.73l-6.86,9.79a2.7,2.7,0,0,0-.53,1.58,1.85,1.85,0,0,0,.5,1.32A1.79,1.79,0,0,0,99,53.7h5.35v.82a2.14,2.14,0,0,0,.59,1.63,2.16,2.16,0,0,0,1.55.55,2.2,2.2,0,0,0,1.56-.55,2.11,2.11,0,0,0,.6-1.63V53.7h.53c1.39,0,2.09-.57,2.09-1.7S110.53,50.34,109.14,50.34Zm-7.71,0,2.88-4.15v4.15Zm-38,37.45L68,83.3a2.49,2.49,0,0,0,.75-1.81A2.21,2.21,0,0,0,68,79.77,2.33,2.33,0,0,0,66.25,79a2.39,2.39,0,0,0-1.76.76L60,84.3l-4.53-4.53a2.46,2.46,0,0,0-1.77-.8,2.18,2.18,0,0,0-1.72.76,2.45,2.45,0,0,0-.75,1.8,2.58,2.58,0,0,0,.71,1.77l4.54,4.49-4.54,4.54a2.42,2.42,0,0,0,0,3.52,2.57,2.57,0,0,0,1.76.72,2.41,2.41,0,0,0,1.77-.72L60,91.32l4.54,4.53a2.48,2.48,0,0,0,4.24-1.76A2.3,2.3,0,0,0,68,92.33Z"/></svg>