<svg id="Layer_1" data-name="Layer 1" xmlns="http://www.w3.org/2000/svg" viewBox="0 0 122.3 122.3"><title>l9_3_1</title><path d="M122.35,42.78V59.44a8.66,8.66,0,0,1-8.65,8.66H99.61l0,22.48A4.37,4.37,0,0,1,95,95.24H76.82V99a8.69,8.69,0,0,1-8.69,8.7H51.55A8.69,8.69,0,0,1,42.86,99V95.24H24.52A4.43,4.43,0,0,1,21.6,94a4.9,4.9,0,0,1-1.31-3c-.33-2.64-.36-11.21,0-22.91H8.82A8.66,8.66,0,0,1,.17,59.44V42.78a8.65,8.65,0,0,1,8.65-8.65H42.47a8.65,8.65,0,0,1,8.65,8.65V59.44a8.66,8.66,0,0,1-8.65,8.66H28.77q0,9.21.05,18.41h14V82.4a8.69,8.69,0,0,1,8.69-8.69H68.13a8.69,8.69,0,0,1,8.69,8.69v4.11H91L91,68.1h-11a8.66,8.66,0,0,1-8.65-8.66V42.78a8.65,8.65,0,0,1,8.65-8.65H113.7A8.65,8.65,0,0,1,122.35,42.78ZM13,55.09H11.53V46.56A1.5,1.5,0,0,0,9.93,45a3,3,0,0,0-1.49.45L5.56,47.08a1.24,1.24,0,0,0-.63,1.12,1.5,1.5,0,0,0,.36,1,1.05,1.05,0,0,0,.86.44,1.21,1.21,0,0,0,.63-.18l1.44-.84v6.49H6.76a1.8,1.8,0,0,0-1.19.33,1.2,1.2,0,0,0-.37,1c0,.89.52,1.33,1.56,1.33H13c1,0,1.56-.44,1.56-1.33a1.2,1.2,0,0,0-.37-1A1.8,1.8,0,0,0,13,55.09Zm7,2.79a4.2,4.2,0,0,0,3.6-1.67,8,8,0,0,0,1.24-4.84,7.94,7.94,0,0,0-1.25-4.83A4.22,4.22,0,0,0,20,44.87a4.22,4.22,0,0,0-3.6,1.67,8,8,0,0,0-1.24,4.83,8,8,0,0,0,1.24,4.84A4.2,4.2,0,0,0,20,57.88Zm0-2.5a1.29,1.29,0,0,1-1.24-.93,9,9,0,0,1-.38-3.08,8.92,8.92,0,0,1,.38-3.07,1.29,1.29,0,0,1,2.48,0,8.65,8.65,0,0,1,.38,3.06,8.78,8.78,0,0,1-.38,3.08A1.28,1.28,0,0,1,20,55.38ZM32.3,52.54l2-1.93a1.06,1.06,0,0,0,.32-.77,1,1,0,0,0-.32-.74,1.05,1.05,0,0,0-1.51,0l-2,1.94L28.85,49.1a1,1,0,0,0-.76-.34,1,1,0,0,0-.74.32,1.1,1.1,0,0,0-.32.78,1.12,1.12,0,0,0,.3.75l2,1.93-2,1.94a1.07,1.07,0,0,0-.32.76,1,1,0,0,0,.32.75,1.09,1.09,0,0,0,.76.31,1,1,0,0,0,.76-.31l1.94-1.94,2,1.94a1,1,0,0,0,.75.33,1,1,0,0,0,.76-.33,1.1,1.1,0,0,0,0-1.51Zm12.64,2.55H41.32l2.56-2.61a8.34,8.34,0,0,0,1.5-2,4.62,4.62,0,0,0,.44-2,3.27,3.27,0,0,0-.55-1.88,3.52,3.52,0,0,0-1.56-1.26,5.85,5.85,0,0,0-2.34-.44,7.19,7.19,0,0,0-2.07.32,7.09,7.09,0,0,0-1.9.9,1.13,1.13,0,0,0-.44.47,1.54,1.54,0,0,0-.12.65,1.57,1.57,0,0,0,.3,1,.94.94,0,0,0,.76.41,1,1,0,0,0,.34-.06,1.67,1.67,0,0,0,.37-.17l.28-.15.36-.18a8,8,0,0,1,1-.44,2.93,2.93,0,0,1,1-.15,1.4,1.4,0,0,1,1,.32,1.24,1.24,0,0,1,.35.94A3.52,3.52,0,0,1,41.39,51l-3.81,4a2,2,0,0,0-.62,1.4,1.33,1.33,0,0,0,.38,1,1.37,1.37,0,0,0,1,.39h6.57a1.85,1.85,0,0,0,1.18-.32,1.24,1.24,0,0,0,.38-1,1.18,1.18,0,0,0-.38-1A1.85,1.85,0,0,0,44.94,55.09Zm49,1.84H89.08l3.41-3.48a11.18,11.18,0,0,0,2-2.7,6,6,0,0,0,.59-2.68,4.4,4.4,0,0,0-.73-2.51,4.79,4.79,0,0,0-2.08-1.68,7.72,7.72,0,0,0-3.12-.58,9.34,9.34,0,0,0-2.77.43,9.52,9.52,0,0,0-2.53,1.2,1.63,1.63,0,0,0-.59.62,2.16,2.16,0,0,0-.15.87,2.08,2.08,0,0,0,.4,1.28,1.24,1.24,0,0,0,1,.54,1.43,1.43,0,0,0,.46-.07,3.44,3.44,0,0,0,.49-.23l.37-.2.48-.24a10.19,10.19,0,0,1,1.36-.59A3.78,3.78,0,0,1,89,46.7a1.87,1.87,0,0,1,1.33.44,1.56,1.56,0,0,1,.47,1.24,4.68,4.68,0,0,1-1.58,3l-5.09,5.31a2.64,2.64,0,0,0-.82,1.87,1.79,1.79,0,0,0,.51,1.31,1.83,1.83,0,0,0,1.37.51h8.76A2.41,2.41,0,0,0,95.48,60,1.67,1.67,0,0,0,96,58.66a1.59,1.59,0,0,0-.51-1.31A2.47,2.47,0,0,0,93.91,56.93Zm10,3.72a5.64,5.64,0,0,0,4.8-2.23A10.75,10.75,0,0,0,110.32,52c0-2.8-.55-4.94-1.67-6.43a6.26,6.26,0,0,0-9.58,0A10.62,10.62,0,0,0,97.41,52q0,4.23,1.66,6.46A5.62,5.62,0,0,0,103.87,60.65Zm0-3.34a1.72,1.72,0,0,1-1.66-1.25,11.85,11.85,0,0,1-.5-4.1,11.75,11.75,0,0,1,.5-4.09,1.72,1.72,0,0,1,3.31,0A11.71,11.71,0,0,1,106,52a11.8,11.8,0,0,1-.51,4.1A1.71,1.71,0,0,1,103.87,57.31ZM63.37,91.66l4.54-4.49a2.49,2.49,0,0,0,.75-1.81,2.21,2.21,0,0,0-.75-1.72,2.36,2.36,0,0,0-1.77-.75,2.41,2.41,0,0,0-1.76.75l-4.54,4.54-4.53-4.54a2.48,2.48,0,0,0-1.77-.8,2.22,2.22,0,0,0-1.72.76,2.49,2.49,0,0,0-.76,1.81,2.57,2.57,0,0,0,.72,1.76l4.53,4.49L51.78,96.2a2.43,2.43,0,0,0,0,3.53,2.6,2.6,0,0,0,1.76.71,2.44,2.44,0,0,0,1.77-.71l4.53-4.54,4.54,4.54a2.41,2.41,0,0,0,1.76.75A2.49,2.49,0,0,0,68.62,98a2.34,2.34,0,0,0-.71-1.76Z"/></svg>