<svg id="Layer_1" data-name="Layer 1" xmlns="http://www.w3.org/2000/svg" viewBox="0 0 122.3 122.3"><title>l9_3_1</title><path d="M122,40.41V57.08a8.65,8.65,0,0,1-8.65,8.65H99.3l0,22.48a4.53,4.53,0,0,1-1.24,3.35,4.48,4.48,0,0,1-3.42,1.31H76.51v3.75a8.69,8.69,0,0,1-8.69,8.69H51.23a8.69,8.69,0,0,1-8.69-8.69V92.87H24.2a4.43,4.43,0,0,1-2.92-1.23,5,5,0,0,1-1.31-3c-.33-2.63-.36-11.2,0-22.91H8.51A8.66,8.66,0,0,1-.15,57.08V40.41a8.66,8.66,0,0,1,8.66-8.65H42.15a8.66,8.66,0,0,1,8.66,8.65V57.08a8.66,8.66,0,0,1-8.66,8.65H28.45q0,9.21.05,18.42h14V80a8.69,8.69,0,0,1,8.69-8.69H67.82A8.69,8.69,0,0,1,76.51,80v4.12H90.7q0-9.21,0-18.42h-11a8.65,8.65,0,0,1-8.65-8.65V40.41a8.65,8.65,0,0,1,8.65-8.65h33.65A8.65,8.65,0,0,1,122,40.41ZM18.15,50.69h-.39v-6.5a1.51,1.51,0,0,0-.49-1.2,1.68,1.68,0,0,0-1.17-.43,1.77,1.77,0,0,0-.8.19,1.59,1.59,0,0,0-.64.54L9.51,50.64a2,2,0,0,0-.39,1.19,1.37,1.37,0,0,0,.38,1,1.35,1.35,0,0,0,1,.39h4v.61A1.6,1.6,0,0,0,15,55.05a1.64,1.64,0,0,0,1.16.41,1.69,1.69,0,0,0,1.17-.41,1.6,1.6,0,0,0,.45-1.23v-.61h.39c1.05,0,1.57-.42,1.57-1.28S19.2,50.69,18.15,50.69Zm-5.77,0,2.16-3.11v3.11Zm14.22-.52,1.94-1.93a1,1,0,0,0,.32-.77.93.93,0,0,0-.32-.74,1,1,0,0,0-.76-.32,1,1,0,0,0-.75.32l-2,2-1.94-2a1,1,0,0,0-.76-.34.94.94,0,0,0-.73.32,1.07,1.07,0,0,0,0,1.53l1.94,1.93-1.94,1.94a1,1,0,0,0,0,1.52,1.12,1.12,0,0,0,.75.3,1,1,0,0,0,.76-.3l1.94-2,2,2a1,1,0,0,0,.75.32,1.08,1.08,0,0,0,1.07-1.08,1,1,0,0,0-.31-.76Zm11.57-1.35a2.92,2.92,0,0,0,1.43-1.09A3,3,0,0,0,40.11,46a3.11,3.11,0,0,0-.55-1.83A3.47,3.47,0,0,0,38,42.93a6.12,6.12,0,0,0-2.35-.43,7.07,7.07,0,0,0-2.13.33,5.69,5.69,0,0,0-1.83.9,1.36,1.36,0,0,0-.43.48,1.34,1.34,0,0,0-.13.63,1.47,1.47,0,0,0,.31.95.9.9,0,0,0,.75.38,1.06,1.06,0,0,0,.45-.08,4.16,4.16,0,0,0,.54-.26l.38-.18a10.57,10.57,0,0,1,1-.43,2.71,2.71,0,0,1,1-.16,1.54,1.54,0,0,1,1.1.37,1.34,1.34,0,0,1,.39,1,1,1,0,0,1-.45.92,2.77,2.77,0,0,1-1.44.29H34.3a1,1,0,0,0-.85.38,1.4,1.4,0,0,0-.3.9,1.42,1.42,0,0,0,.3.9,1,1,0,0,0,.85.37h1.12a2.72,2.72,0,0,1,1.47.31,1.13,1.13,0,0,1,.45,1,1.27,1.27,0,0,1-.44,1.08,2.55,2.55,0,0,1-1.45.32,3.28,3.28,0,0,1-1-.15,8.19,8.19,0,0,1-1-.44l-.22-.1L33,52.17a6,6,0,0,0-.54-.26,1.12,1.12,0,0,0-.45-.08,1,1,0,0,0-.76.38,1.52,1.52,0,0,0-.31.95,1.46,1.46,0,0,0,.13.62,1.38,1.38,0,0,0,.43.49,5.72,5.72,0,0,0,1.87.91,8,8,0,0,0,2.25.32,6.84,6.84,0,0,0,2.55-.44,3.76,3.76,0,0,0,1.68-1.25,3.4,3.4,0,0,0,0-3.87A3.07,3.07,0,0,0,38.17,48.82Zm56,5.74h-2V43.18a2,2,0,0,0-2.14-2.13,4.05,4.05,0,0,0-2,.6l-3.84,2.23a1.63,1.63,0,0,0-.84,1.49,2,2,0,0,0,.48,1.31,1.43,1.43,0,0,0,1.15.58,1.63,1.63,0,0,0,.84-.24l1.92-1.12v8.66H85.89A2.42,2.42,0,0,0,84.3,55a1.64,1.64,0,0,0-.5,1.3c0,1.18.69,1.77,2.09,1.77h8.32c1.4,0,2.09-.59,2.09-1.77a1.64,1.64,0,0,0-.5-1.3A2.42,2.42,0,0,0,94.21,54.56Zm13.78,0h-4.83l3.41-3.48a11.26,11.26,0,0,0,2-2.7,6.08,6.08,0,0,0,.58-2.68,4.35,4.35,0,0,0-.73-2.5,4.68,4.68,0,0,0-2.07-1.68,7.62,7.62,0,0,0-3.12-.59,9.29,9.29,0,0,0-2.77.43,9.44,9.44,0,0,0-2.54,1.2,1.53,1.53,0,0,0-.58.62,2.29,2.29,0,0,0,.25,2.15,1.22,1.22,0,0,0,1,.54,1.35,1.35,0,0,0,.46-.07,2.34,2.34,0,0,0,.49-.23l.38-.2.48-.24a11.62,11.62,0,0,1,1.35-.59,3.8,3.8,0,0,1,1.29-.2,1.88,1.88,0,0,1,1.33.43,1.62,1.62,0,0,1,.47,1.25,4.66,4.66,0,0,1-1.59,3l-5.09,5.31a2.63,2.63,0,0,0-.81,1.87,1.74,1.74,0,0,0,1.87,1.82H108a2.39,2.39,0,0,0,1.57-.43,1.63,1.63,0,0,0,.52-1.34,1.58,1.58,0,0,0-.52-1.31A2.45,2.45,0,0,0,108,54.56ZM63.05,89.3l4.54-4.5a2.46,2.46,0,0,0,.76-1.8,2.24,2.24,0,0,0-.76-1.73,2.35,2.35,0,0,0-1.76-.75,2.44,2.44,0,0,0-1.77.75l-4.53,4.54L55,81.27a2.44,2.44,0,0,0-1.76-.79,2.21,2.21,0,0,0-1.73.75A2.49,2.49,0,0,0,50.75,83a2.56,2.56,0,0,0,.71,1.76L56,89.3l-4.54,4.53a2.45,2.45,0,0,0,0,3.53,2.56,2.56,0,0,0,1.77.71A2.39,2.39,0,0,0,55,97.36l4.54-4.54,4.53,4.54a2.43,2.43,0,0,0,3.53,0,2.41,2.41,0,0,0,.71-1.76,2.34,2.34,0,0,0-.71-1.77Z"/></svg>