<svg id="Layer_1" data-name="Layer 1" xmlns="http://www.w3.org/2000/svg" viewBox="0 0 122.3 122.3"><title>l9_3_1</title><path d="M122.56,35.7V52.36A8.66,8.66,0,0,1,113.91,61H99.83q0,11.24,0,22.48a4.46,4.46,0,0,1-1.23,3.35,4.53,4.53,0,0,1-3.43,1.31H77v3.75a8.7,8.7,0,0,1-8.7,8.69H51.76a8.69,8.69,0,0,1-8.69-8.69V88.16H24.73a4.43,4.43,0,0,1-2.92-1.23,4.9,4.9,0,0,1-1.31-3c-.33-2.63-.36-11.2,0-22.91H9A8.66,8.66,0,0,1,.38,52.36V35.7A8.66,8.66,0,0,1,9,27.05H42.68a8.65,8.65,0,0,1,8.65,8.65V52.36A8.66,8.66,0,0,1,42.68,61H29q0,9.21.05,18.42h14V75.32a8.69,8.69,0,0,1,8.69-8.69H68.34A8.7,8.7,0,0,1,77,75.32v4.12H91.23q0-9.21,0-18.42h-11a8.66,8.66,0,0,1-8.65-8.66V35.7a8.65,8.65,0,0,1,8.65-8.65h33.65A8.65,8.65,0,0,1,122.56,35.7ZM7.84,42.35a4.39,4.39,0,0,0-1.78.32V40.46H9.94c1.05,0,1.57-.42,1.57-1.27S11,38,9.94,38H4.36a1.54,1.54,0,0,0-1.13.4,1.53,1.53,0,0,0-.4,1.15v4.88a1,1,0,0,0,.35.78,1.2,1.2,0,0,0,.84.3,1.73,1.73,0,0,0,.81-.2,6.93,6.93,0,0,1,1-.32,4.88,4.88,0,0,1,1-.09,2,2,0,0,1,1.4.45,1.85,1.85,0,0,1,0,2.53,2.32,2.32,0,0,1-1.5.4,2.86,2.86,0,0,1-1-.16,9.89,9.89,0,0,1-1-.43l-.36-.18-.54-.27a1.18,1.18,0,0,0-.45-.07.93.93,0,0,0-.76.38,1.52,1.52,0,0,0-.3,1,1.35,1.35,0,0,0,.13.62,1.57,1.57,0,0,0,.42.49,5.8,5.8,0,0,0,1.85.9,7.36,7.36,0,0,0,2.19.33,5.82,5.82,0,0,0,2.57-.54,4.09,4.09,0,0,0,1.73-1.53,4.26,4.26,0,0,0,.61-2.29,4.36,4.36,0,0,0-.51-2.13,3.64,3.64,0,0,0-1.42-1.44A4.19,4.19,0,0,0,7.84,42.35Zm11.43,3.11,1.94-1.93a1,1,0,0,0,.32-.77.93.93,0,0,0-.32-.74,1,1,0,0,0-.76-.32,1,1,0,0,0-.75.32L17.75,44,15.81,42a1,1,0,0,0-.75-.34,1,1,0,0,0-.74.32,1.07,1.07,0,0,0,0,1.53l1.94,1.93L14.3,47.4a1.06,1.06,0,0,0,0,1.52,1.13,1.13,0,0,0,.76.3,1,1,0,0,0,.75-.3l1.94-2,1.95,2a1,1,0,0,0,.75.32,1.08,1.08,0,0,0,1.07-1.08,1,1,0,0,0-.31-.76Zm9.28,5.35a4.18,4.18,0,0,0,3.6-1.68,8,8,0,0,0,1.25-4.84,8,8,0,0,0-1.25-4.83,4.25,4.25,0,0,0-3.6-1.67A4.22,4.22,0,0,0,25,39.46a8.08,8.08,0,0,0-1.24,4.83A8.08,8.08,0,0,0,25,49.13,4.21,4.21,0,0,0,28.55,50.81Zm0-2.51a1.29,1.29,0,0,1-1.24-.93,9,9,0,0,1-.38-3.08,8.92,8.92,0,0,1,.38-3.07,1.29,1.29,0,0,1,1.24-.93,1.31,1.31,0,0,1,1.25.94,9,9,0,0,1,.37,3.06,9.08,9.08,0,0,1-.37,3.08A1.3,1.3,0,0,1,28.55,48.3Zm7.85,2.45a1.69,1.69,0,1,0-1.25-.5A1.7,1.7,0,0,0,36.4,50.75ZM47.6,48H44l2.56-2.61a8.56,8.56,0,0,0,1.5-2,4.62,4.62,0,0,0,.44-2,3.29,3.29,0,0,0-.55-1.88,3.58,3.58,0,0,0-1.56-1.26A5.85,5.85,0,0,0,44,37.79a6.88,6.88,0,0,0-2.07.33,6.53,6.53,0,0,0-1.9.9,1.06,1.06,0,0,0-.44.46,1.54,1.54,0,0,0-.12.65,1.57,1.57,0,0,0,.3,1,.94.94,0,0,0,.76.41,1,1,0,0,0,.34-.06,1.67,1.67,0,0,0,.37-.17l.28-.15.36-.18a8,8,0,0,1,1-.44,2.93,2.93,0,0,1,1-.15,1.45,1.45,0,0,1,1,.32,1.24,1.24,0,0,1,.35.94,3.52,3.52,0,0,1-1.19,2.28l-3.81,4a2,2,0,0,0-.62,1.4,1.37,1.37,0,0,0,.38,1,1.41,1.41,0,0,0,1,.38H47.6a1.79,1.79,0,0,0,1.18-.32,1.24,1.24,0,0,0,.38-1,1.18,1.18,0,0,0-.38-1A1.85,1.85,0,0,0,47.6,48Zm49.15-1.26a1.4,1.4,0,0,0,.87-.29,1.28,1.28,0,0,0,.47-.81,2.29,2.29,0,0,1,.54-1,11,11,0,0,1,1.21-1.11c.56-.5,1-.92,1.37-1.27a5.05,5.05,0,0,0,.9-1.28,3.7,3.7,0,0,0-.33-3.78,4.59,4.59,0,0,0-1.92-1.48,6.79,6.79,0,0,0-2.78-.54,8.86,8.86,0,0,0-2.77.44,8.62,8.62,0,0,0-2.46,1.24,2.05,2.05,0,0,0-.59.64,1.8,1.8,0,0,0-.18.84,1.92,1.92,0,0,0,.42,1.26,1.26,1.26,0,0,0,1,.52,2.85,2.85,0,0,0,1.32-.46l.58-.28a7.36,7.36,0,0,1,1.21-.59,3,3,0,0,1,1.09-.21,1.63,1.63,0,0,1,1.06.32,1,1,0,0,1,.38.84,1.78,1.78,0,0,1-.27,1,8.88,8.88,0,0,1-.83,1,7.22,7.22,0,0,0-1.2,1.55,3.71,3.71,0,0,0-.43,1.88,1.72,1.72,0,0,0,.34,1.15A1.24,1.24,0,0,0,96.75,46.76Zm0,5.74a2.23,2.23,0,0,0,1.67-.68,2.25,2.25,0,0,0,.66-1.65,2.28,2.28,0,0,0-.66-1.66,2.38,2.38,0,0,0-3.31,0,2.28,2.28,0,0,0-.66,1.66,2.25,2.25,0,0,0,.66,1.65A2.21,2.21,0,0,0,96.79,52.5ZM63.58,84.58l4.54-4.49a2.48,2.48,0,0,0,.75-1.81,2.21,2.21,0,0,0-.75-1.72,2.36,2.36,0,0,0-1.77-.75,2.41,2.41,0,0,0-1.76.75L60.05,81.1l-4.53-4.54a2.48,2.48,0,0,0-1.77-.8,2.22,2.22,0,0,0-1.72.76,2.49,2.49,0,0,0-.76,1.81A2.57,2.57,0,0,0,52,80.09l4.53,4.49L52,89.12a2.43,2.43,0,0,0,0,3.53,2.6,2.6,0,0,0,1.76.71,2.44,2.44,0,0,0,1.77-.71l4.53-4.54,4.54,4.54a2.41,2.41,0,0,0,1.76.75,2.49,2.49,0,0,0,2.48-2.52,2.34,2.34,0,0,0-.71-1.76Z"/></svg>