<svg id="Layer_1" data-name="Layer 1" xmlns="http://www.w3.org/2000/svg" viewBox="0 0 122.3 122.3"><title>l9_3_1</title><path d="M122,39V49.51a11.74,11.74,0,0,1-11.74,11.75h-11l0,22.51a4.37,4.37,0,0,1-4.67,4.67H74.81q-4.07,8.2-8.12,16.42c-.3.52-2.18,3.68-5.28,3.78-3.26.09-5.27-3.29-5.56-3.78L47,88.44H24a4.45,4.45,0,0,1-2.93-1.23,4.93,4.93,0,0,1-1.31-3c-.33-2.63-.36-11.22,0-22.94H11.38A11.75,11.75,0,0,1-.36,49.51V39A11.74,11.74,0,0,1,11.38,27.24H38.93A11.74,11.74,0,0,1,50.67,39V49.51A11.75,11.75,0,0,1,38.93,61.26H28.28q0,9.23,0,18.44h14q-1.79-3.3-3.56-6.62a8.51,8.51,0,0,1-.34-6.46,4,4,0,0,1,2.17-2.36l38.87.06a4.21,4.21,0,0,1,2.79,2.81,9.71,9.71,0,0,1,.12,6l-3.27,6.6h11.5q0-9.23,0-18.44H82.72A11.75,11.75,0,0,1,71,49.51V39A11.74,11.74,0,0,1,82.72,27.24h27.54A11.73,11.73,0,0,1,122,39ZM63.91,82.54l4.54-4.49a2.5,2.5,0,0,0,.76-1.81,2.22,2.22,0,0,0-.76-1.72,2.37,2.37,0,0,0-1.77-.76,2.44,2.44,0,0,0-1.76.76l-4.53,4.54-4.54-4.54a2.46,2.46,0,0,0-1.77-.8,2.18,2.18,0,0,0-1.72.76,2.45,2.45,0,0,0-.75,1.8,2.56,2.56,0,0,0,.71,1.77l4.54,4.49-4.54,4.54a2.43,2.43,0,0,0-.76,1.76,2.46,2.46,0,0,0,.76,1.77,2.6,2.6,0,0,0,1.76.71,2.44,2.44,0,0,0,1.77-.71l4.54-4.54,4.53,4.54a2.48,2.48,0,0,0,4.24-1.77,2.32,2.32,0,0,0-.71-1.76ZM14.15,41.66a3.33,3.33,0,0,0-1.52.34,2.76,2.76,0,0,0-1.11.9,4.81,4.81,0,0,1,.67-2.34,1.73,1.73,0,0,1,1.49-.84,2.58,2.58,0,0,1,.83.14c.26.1.59.24,1,.43l.39.2a6,6,0,0,0,.54.26,1.06,1.06,0,0,0,.45.08,1,1,0,0,0,.77-.38,1.47,1.47,0,0,0,.31-1,1.34,1.34,0,0,0-.13-.63,1.5,1.5,0,0,0-.44-.48,5.58,5.58,0,0,0-1.81-.9,6.86,6.86,0,0,0-2.06-.33,4.88,4.88,0,0,0-2.8.81,5.23,5.23,0,0,0-1.86,2.32,8.83,8.83,0,0,0-.65,3.51,7.18,7.18,0,0,0,1.38,4.72,4.84,4.84,0,0,0,3.93,1.66,4.64,4.64,0,0,0,2.28-.56,4,4,0,0,0,1.58-1.56,4.46,4.46,0,0,0,.56-2.26,4.52,4.52,0,0,0-.49-2.13,3.74,3.74,0,0,0-1.36-1.48A3.64,3.64,0,0,0,14.15,41.66Zm-.83,6a1.44,1.44,0,0,1-1.12-.48,2,2,0,0,1,0-2.47,1.44,1.44,0,0,1,1.13-.47,1.4,1.4,0,0,1,1.12.46,1.81,1.81,0,0,1,.41,1.25,1.77,1.77,0,0,1-.42,1.24A1.4,1.4,0,0,1,13.32,47.64Zm12.06-2.81,1.94-1.93a1,1,0,0,0,.33-.77,1,1,0,0,0-.33-.74,1,1,0,0,0-.75-.32,1.07,1.07,0,0,0-.76.32l-1.94,2-1.95-2a1.08,1.08,0,0,0-.75-.34,1,1,0,0,0-.74.32,1.07,1.07,0,0,0-.33.78,1.11,1.11,0,0,0,.31.75l1.94,1.93-1.94,1.94a1.06,1.06,0,0,0,0,1.52,1.13,1.13,0,0,0,.76.3,1,1,0,0,0,.75-.3l1.95-1.95,1.94,1.95a1.07,1.07,0,0,0,.76.32,1,1,0,0,0,.75-.32,1,1,0,0,0,.31-.76,1,1,0,0,0-.31-.76Zm13.16.52h-.4v-6.5a1.51,1.51,0,0,0-.49-1.2,1.68,1.68,0,0,0-1.17-.43,1.77,1.77,0,0,0-.8.19A1.75,1.75,0,0,0,35,38L29.9,45.3a2,2,0,0,0-.4,1.19,1.41,1.41,0,0,0,.38,1,1.35,1.35,0,0,0,1,.39h4v.62a1.63,1.63,0,0,0,.44,1.22,1.6,1.6,0,0,0,1.16.41,1.64,1.64,0,0,0,1.17-.41,1.59,1.59,0,0,0,.45-1.22v-.62h.4c1,0,1.56-.42,1.56-1.28S39.58,45.35,38.54,45.35Zm-5.78,0,2.16-3.11v3.11ZM95,47.13a1.35,1.35,0,0,0,.88-.29,1.27,1.27,0,0,0,.46-.81,2.2,2.2,0,0,1,.54-1,10.26,10.26,0,0,1,1.22-1.12c.56-.5,1-.92,1.36-1.27a4.55,4.55,0,0,0,.9-1.27,3.6,3.6,0,0,0,.38-1.64,3.54,3.54,0,0,0-.7-2.14,4.53,4.53,0,0,0-1.92-1.49,6.83,6.83,0,0,0-2.78-.54,9.22,9.22,0,0,0-2.78.44,8.62,8.62,0,0,0-2.46,1.24,2,2,0,0,0-.58.65,1.74,1.74,0,0,0-.18.84A2,2,0,0,0,89.76,40a1.28,1.28,0,0,0,1,.51,3,3,0,0,0,1.32-.45l.57-.29a8.79,8.79,0,0,1,1.21-.59A3,3,0,0,1,95,39a1.6,1.6,0,0,1,1,.31,1,1,0,0,1,.39.84,1.79,1.79,0,0,1-.28,1,7.31,7.31,0,0,1-.83,1,7.92,7.92,0,0,0-1.2,1.55,3.71,3.71,0,0,0-.43,1.88A1.72,1.72,0,0,0,94,46.72,1.17,1.17,0,0,0,95,47.13Zm0,5.74a2.33,2.33,0,1,0,0-4.66,2.25,2.25,0,0,0-1.65.67,2.42,2.42,0,0,0,0,3.32A2.25,2.25,0,0,0,95.05,52.87Z"/></svg>