<svg id="Layer_1" data-name="Layer 1" xmlns="http://www.w3.org/2000/svg" viewBox="0 0 122.3 122.3"><title>l9_3_1</title><path d="M122.18,39.54V56.21a8.65,8.65,0,0,1-8.65,8.65H99.44l0,22.48A4.37,4.37,0,0,1,94.81,92H76.65v3.75A8.69,8.69,0,0,1,68,104.44H51.38a8.69,8.69,0,0,1-8.69-8.69V92H24.35a4.45,4.45,0,0,1-2.93-1.23,4.94,4.94,0,0,1-1.3-3c-.33-2.63-.36-11.2,0-22.91H8.65A8.65,8.65,0,0,1,0,56.21V39.54a8.65,8.65,0,0,1,8.65-8.65H42.3A8.65,8.65,0,0,1,51,39.54V56.21a8.65,8.65,0,0,1-8.65,8.65H28.6q0,9.21,0,18.42h14V79.16a8.69,8.69,0,0,1,8.69-8.69H68a8.69,8.69,0,0,1,8.69,8.69v4.12H90.84q0-9.21,0-18.42h-11a8.65,8.65,0,0,1-8.65-8.65V39.54a8.65,8.65,0,0,1,8.65-8.65h33.65A8.66,8.66,0,0,1,122.18,39.54ZM15.31,46.19a4.6,4.6,0,0,0-1.78.32V44.3h3.89Q19,44.3,19,43c0-.83-.52-1.24-1.56-1.24H11.84a1.58,1.58,0,0,0-1.14.39,1.59,1.59,0,0,0-.39,1.15v4.88a1,1,0,0,0,.34.79,1.29,1.29,0,0,0,.85.29,1.68,1.68,0,0,0,.81-.2,6.85,6.85,0,0,1,1-.32,4.88,4.88,0,0,1,1-.09,2.06,2.06,0,0,1,1.41.45,1.62,1.62,0,0,1,.5,1.26,1.54,1.54,0,0,1-.49,1.27,2.29,2.29,0,0,1-1.49.4,3,3,0,0,1-1-.16,9.89,9.89,0,0,1-1-.43l-.36-.18q-.36-.19-.54-.27a1.18,1.18,0,0,0-.45-.07.91.91,0,0,0-.75.39,1.42,1.42,0,0,0-.31.94,1.32,1.32,0,0,0,.14.62,1.6,1.6,0,0,0,.42.5,6.07,6.07,0,0,0,1.84.9,7.79,7.79,0,0,0,2.19.32A5.89,5.89,0,0,0,17,54.09a4,4,0,0,0,1.72-1.53,4.24,4.24,0,0,0,.62-2.29,4.36,4.36,0,0,0-.52-2.13,3.58,3.58,0,0,0-1.42-1.44A4.19,4.19,0,0,0,15.31,46.19ZM26.74,49.3l1.94-1.92A1.07,1.07,0,0,0,29,46.6a1,1,0,0,0-.33-.74,1,1,0,0,0-.75-.32,1.07,1.07,0,0,0-.76.32l-1.94,2-1.94-2a1.08,1.08,0,0,0-.76-.34.94.94,0,0,0-.74.33,1.06,1.06,0,0,0-.32.77,1.13,1.13,0,0,0,.3.76l1.95,1.92-1.95,2a1,1,0,0,0-.32.75,1.07,1.07,0,0,0,.32.76,1.13,1.13,0,0,0,.76.3,1.06,1.06,0,0,0,.76-.3l1.94-1.95,1.94,1.95a1.07,1.07,0,0,0,.76.32A1.08,1.08,0,0,0,29,52a1,1,0,0,0-.31-.75ZM38.31,48a2.89,2.89,0,0,0,1.95-2.82,3.12,3.12,0,0,0-.55-1.84,3.47,3.47,0,0,0-1.57-1.22,5.9,5.9,0,0,0-2.35-.44,7.07,7.07,0,0,0-2.13.33,5.79,5.79,0,0,0-1.83.9,1.57,1.57,0,0,0-.43.48,1.48,1.48,0,0,0-.12.63,1.5,1.5,0,0,0,.3,1,.94.94,0,0,0,.76.39,1.25,1.25,0,0,0,.45-.08l.54-.27.38-.18a9.52,9.52,0,0,1,1-.43,2.65,2.65,0,0,1,.94-.16,1.53,1.53,0,0,1,1.1.37,1.36,1.36,0,0,1,.4,1,1,1,0,0,1-.45.92,2.77,2.77,0,0,1-1.44.29h-.8a1,1,0,0,0-.84.38,1.46,1.46,0,0,0,0,1.8,1,1,0,0,0,.84.38h1.12a2.75,2.75,0,0,1,1.48.3,1.14,1.14,0,0,1,.45,1,1.27,1.27,0,0,1-.44,1.08,2.49,2.49,0,0,1-1.45.32,3.35,3.35,0,0,1-1-.15,8.11,8.11,0,0,1-1-.44l-.23-.1-.17-.08a6,6,0,0,0-.54-.26,1.25,1.25,0,0,0-.45-.08.94.94,0,0,0-.76.39,1.47,1.47,0,0,0-.3.94,1.3,1.3,0,0,0,.56,1.12,5.82,5.82,0,0,0,1.87.91,8,8,0,0,0,2.25.31,6.88,6.88,0,0,0,2.55-.44A3.8,3.8,0,0,0,40,52.94a3.44,3.44,0,0,0,0-3.87A3.1,3.1,0,0,0,38.31,48Zm56.06,5.74h-2V42.32a2,2,0,0,0-.59-1.56,2.07,2.07,0,0,0-1.54-.58,4.08,4.08,0,0,0-2,.6L84.43,43a1.63,1.63,0,0,0-.84,1.49,2,2,0,0,0,.48,1.31,1.46,1.46,0,0,0,1.16.59,1.68,1.68,0,0,0,.84-.24L88,45v8.66H86a2.43,2.43,0,0,0-1.58.43,1.61,1.61,0,0,0-.51,1.3c0,1.18.7,1.78,2.09,1.78h8.33c1.39,0,2.09-.6,2.09-1.78a1.61,1.61,0,0,0-.51-1.3A2.43,2.43,0,0,0,94.37,53.69Zm10.49-7.56a6.17,6.17,0,0,0-2.38.43v-3h5.19c1.39,0,2.08-.56,2.08-1.68s-.69-1.65-2.08-1.65h-7.44a2.08,2.08,0,0,0-1.52.52,2.11,2.11,0,0,0-.52,1.54v6.5a1.33,1.33,0,0,0,.45,1,1.69,1.69,0,0,0,1.13.39,2.27,2.27,0,0,0,1.08-.26,8.39,8.39,0,0,1,1.38-.43,6.57,6.57,0,0,1,1.31-.12,2.71,2.71,0,0,1,1.87.6,2.13,2.13,0,0,1,.67,1.68,2,2,0,0,1-.65,1.69,3.05,3.05,0,0,1-2,.54,3.83,3.83,0,0,1-1.33-.22,12.58,12.58,0,0,1-1.36-.57l-.48-.24a5.84,5.84,0,0,0-.72-.36,1.51,1.51,0,0,0-.6-.1A1.21,1.21,0,0,0,98,53a1.91,1.91,0,0,0-.41,1.26,1.81,1.81,0,0,0,.18.83,2.24,2.24,0,0,0,.56.66,8.06,8.06,0,0,0,2.46,1.2,10.32,10.32,0,0,0,2.92.43,7.79,7.79,0,0,0,3.43-.72,5.38,5.38,0,0,0,2.3-2,5.64,5.64,0,0,0,.82-3.05,5.82,5.82,0,0,0-.68-2.84,4.81,4.81,0,0,0-1.9-1.92A5.5,5.5,0,0,0,104.86,46.13ZM63.2,88.43l4.53-4.5a2.43,2.43,0,0,0,.76-1.8,2.17,2.17,0,0,0-.76-1.72A2.29,2.29,0,0,0,66,79.65a2.39,2.39,0,0,0-1.76.76l-4.54,4.53-4.54-4.53a2.42,2.42,0,0,0-1.76-.8,2.21,2.21,0,0,0-1.72.75,2.46,2.46,0,0,0-.76,1.81,2.57,2.57,0,0,0,.72,1.76l4.53,4.5L51.61,93a2.42,2.42,0,0,0-.76,1.77,2.39,2.39,0,0,0,.76,1.76,2.57,2.57,0,0,0,1.76.72,2.37,2.37,0,0,0,1.76-.72L59.67,92l4.54,4.53a2.48,2.48,0,0,0,4.24-1.76A2.31,2.31,0,0,0,67.73,93Z"/></svg>