<svg id="Layer_1" data-name="Layer 1" xmlns="http://www.w3.org/2000/svg" viewBox="0 0 122.3 122.3"><title>l9_3_1</title><path d="M122.19,35.93V46.46A11.74,11.74,0,0,1,110.44,58.2h-11l0,22.52a4.48,4.48,0,0,1-1.23,3.36,4.57,4.57,0,0,1-3.43,1.31H75L66.87,101.8c-.3.53-2.18,3.69-5.28,3.78-3.26.1-5.27-3.28-5.56-3.78L47.21,85.39h-23a4.42,4.42,0,0,1-2.93-1.24,5,5,0,0,1-1.31-3c-.33-2.64-.36-11.22,0-23H11.57A11.73,11.73,0,0,1-.17,46.46V35.93A11.74,11.74,0,0,1,11.57,24.18H39.11A11.74,11.74,0,0,1,50.85,35.93V46.46A11.73,11.73,0,0,1,39.11,58.2H28.47q0,9.22.05,18.45h14L39,70a8.51,8.51,0,0,1-.34-6.46,3.94,3.94,0,0,1,2.18-2.36l38.86.06a4.19,4.19,0,0,1,2.8,2.81,9.75,9.75,0,0,1,.12,6l-3.27,6.61H90.8l0-18.45H82.9A11.73,11.73,0,0,1,71.16,46.46V35.93A11.74,11.74,0,0,1,82.9,24.18h27.54A11.75,11.75,0,0,1,122.19,35.93ZM64.1,79.49,68.63,75a2.43,2.43,0,0,0,.76-1.8,2.17,2.17,0,0,0-.76-1.72,2.29,2.29,0,0,0-1.76-.76,2.39,2.39,0,0,0-1.76.76L60.57,76,56,71.47a2.42,2.42,0,0,0-1.76-.8,2.19,2.19,0,0,0-1.72.75,2.46,2.46,0,0,0-.76,1.81A2.57,2.57,0,0,0,52.51,75L57,79.49,52.51,84a2.42,2.42,0,0,0-.76,1.77,2.39,2.39,0,0,0,.76,1.76,2.55,2.55,0,0,0,1.76.72A2.37,2.37,0,0,0,56,87.55L60.57,83l4.54,4.53a2.48,2.48,0,0,0,4.24-1.76A2.31,2.31,0,0,0,68.63,84ZM15.54,40.43A2.92,2.92,0,0,0,17,39.34a3,3,0,0,0,.51-1.74,3.09,3.09,0,0,0-.55-1.83,3.53,3.53,0,0,0-1.56-1.23A6,6,0,0,0,13,34.11a7.5,7.5,0,0,0-2.14.32,6.07,6.07,0,0,0-1.82.9,1.51,1.51,0,0,0-.44.49,1.48,1.48,0,0,0-.12.63,1.42,1.42,0,0,0,.31.94.91.91,0,0,0,.75.39A1.25,1.25,0,0,0,10,37.7a6,6,0,0,0,.54-.26l.38-.18a10.57,10.57,0,0,1,1-.43,2.65,2.65,0,0,1,.94-.16A1.57,1.57,0,0,1,14,37a1.35,1.35,0,0,1,.4,1,1,1,0,0,1-.45.92,2.77,2.77,0,0,1-1.44.29h-.79a1,1,0,0,0-.85.37,1.42,1.42,0,0,0-.3.9,1.4,1.4,0,0,0,.3.9,1,1,0,0,0,.85.38h1.11a2.65,2.65,0,0,1,1.48.31,1.13,1.13,0,0,1,.45,1,1.27,1.27,0,0,1-.44,1.08,2.57,2.57,0,0,1-1.45.32,3.35,3.35,0,0,1-1-.15,9.88,9.88,0,0,1-1-.44l-.23-.1-.17-.08-.54-.27a1.25,1.25,0,0,0-.45-.08.91.91,0,0,0-.75.39,1.45,1.45,0,0,0-.31,1,1.35,1.35,0,0,0,.13.62,1.29,1.29,0,0,0,.43.49,5.72,5.72,0,0,0,1.87.91,8,8,0,0,0,2.25.32,6.67,6.67,0,0,0,2.55-.45,3.8,3.8,0,0,0,1.68-1.25,3.1,3.1,0,0,0,.6-1.9,3.23,3.23,0,0,0-.61-2A3,3,0,0,0,15.54,40.43Zm10,1.35,2-1.93a1.07,1.07,0,0,0,.32-.77,1,1,0,0,0-.32-.74,1.05,1.05,0,0,0-1.51,0l-1.95,1.94-1.94-1.94a1,1,0,0,0-.76-.34,1,1,0,0,0-.74.32,1.09,1.09,0,0,0-.32.77,1.13,1.13,0,0,0,.3.76l1.95,1.93-1.95,1.94a1.07,1.07,0,0,0-.32.76,1,1,0,0,0,.32.75,1.09,1.09,0,0,0,.76.31,1,1,0,0,0,.76-.31l1.94-1.94L26,45.23a1,1,0,0,0,.75.33,1,1,0,0,0,.76-.33,1.1,1.1,0,0,0,0-1.51Zm13.11,2.55H37.19V35.8a1.5,1.5,0,0,0-1.6-1.6,3.06,3.06,0,0,0-1.5.45l-2.88,1.67a1.23,1.23,0,0,0-.63,1.12,1.5,1.5,0,0,0,.36,1,1.1,1.1,0,0,0,.87.44,1.26,1.26,0,0,0,.63-.18l1.44-.84v6.49H32.42a1.78,1.78,0,0,0-1.19.33,1.21,1.21,0,0,0-.38,1c0,.89.53,1.33,1.57,1.33h6.25c1,0,1.56-.44,1.56-1.33a1.18,1.18,0,0,0-.38-1A1.75,1.75,0,0,0,38.67,44.33Zm56.51-.25a1.41,1.41,0,0,0,.88-.29,1.28,1.28,0,0,0,.47-.82,2.26,2.26,0,0,1,.54-1,11,11,0,0,1,1.21-1.11c.56-.5,1-.92,1.37-1.28a4.83,4.83,0,0,0,.9-1.27,3.7,3.7,0,0,0-.33-3.78,4.61,4.61,0,0,0-1.92-1.49,6.79,6.79,0,0,0-2.78-.54,9.22,9.22,0,0,0-5.23,1.68,2.19,2.19,0,0,0-.59.65,1.8,1.8,0,0,0-.18.84A1.92,1.92,0,0,0,89.94,37a1.26,1.26,0,0,0,1,.52A2.85,2.85,0,0,0,92.28,37l.58-.29a8.13,8.13,0,0,1,1.21-.58,3,3,0,0,1,1.09-.21,1.69,1.69,0,0,1,1.06.31,1,1,0,0,1,.38.84,1.67,1.67,0,0,1-.28,1,7.9,7.9,0,0,1-.82,1,7.18,7.18,0,0,0-1.2,1.54,3.77,3.77,0,0,0-.44,1.89,1.74,1.74,0,0,0,.35,1.15A1.22,1.22,0,0,0,95.18,44.08Zm0,5.73a2.27,2.27,0,0,0,2.33-2.32,2.28,2.28,0,0,0-.66-1.66,2.24,2.24,0,0,0-1.67-.67,2.2,2.2,0,0,0-1.64.67,2.28,2.28,0,0,0-.66,1.66,2.25,2.25,0,0,0,.66,1.65A2.2,2.2,0,0,0,95.23,49.81Z"/></svg>