<svg id="Layer_1" data-name="Layer 1" xmlns="http://www.w3.org/2000/svg" viewBox="0 0 122.3 122.3"><title>l9_3_1</title><path d="M122,38.37V55a8.65,8.65,0,0,1-8.65,8.65H99.23q0,11.25,0,22.49a4.37,4.37,0,0,1-4.66,4.66H76.44v3.74a8.71,8.71,0,0,1-8.7,8.7H51.16a8.7,8.7,0,0,1-8.69-8.7V90.83H24.13a4.43,4.43,0,0,1-2.92-1.23,4.93,4.93,0,0,1-1.31-3c-.33-2.64-.36-11.21,0-22.92H8.44A8.66,8.66,0,0,1-.22,55V38.37a8.66,8.66,0,0,1,8.66-8.65H42.08a8.65,8.65,0,0,1,8.65,8.65V55a8.65,8.65,0,0,1-8.65,8.65H28.38q0,9.21.05,18.42h14V78a8.69,8.69,0,0,1,8.69-8.69H67.74A8.7,8.7,0,0,1,76.44,78V82.1H90.63q0-9.21,0-18.42h-11A8.65,8.65,0,0,1,71,55V38.37a8.65,8.65,0,0,1,8.65-8.65h33.65A8.65,8.65,0,0,1,122,38.37ZM16.5,46.78a2.92,2.92,0,0,0,1.43-1.09A3,3,0,0,0,18.44,44a3.09,3.09,0,0,0-.55-1.83,3.53,3.53,0,0,0-1.56-1.23A5.94,5.94,0,0,0,14,40.46a7.5,7.5,0,0,0-2.14.32,6.07,6.07,0,0,0-1.82.9,1.37,1.37,0,0,0-.43.49,1.34,1.34,0,0,0-.13.63,1.42,1.42,0,0,0,.31.94.91.91,0,0,0,.75.39,1.25,1.25,0,0,0,.45-.08,6,6,0,0,0,.54-.26l.38-.18a10.57,10.57,0,0,1,1-.43,2.67,2.67,0,0,1,1-.16,1.56,1.56,0,0,1,1.09.36,1.35,1.35,0,0,1,.4,1,1,1,0,0,1-.45.92,2.77,2.77,0,0,1-1.44.29h-.79a1,1,0,0,0-.85.37,1.44,1.44,0,0,0-.3.9,1.4,1.4,0,0,0,.3.9,1,1,0,0,0,.85.38h1.11a2.65,2.65,0,0,1,1.48.31,1.13,1.13,0,0,1,.45,1,1.27,1.27,0,0,1-.44,1.08,2.57,2.57,0,0,1-1.45.32,3.39,3.39,0,0,1-1-.15,9.88,9.88,0,0,1-1-.44l-.23-.1-.17-.08q-.33-.18-.54-.27a1.25,1.25,0,0,0-.45-.08.91.91,0,0,0-.75.39,1.45,1.45,0,0,0-.31.95,1.35,1.35,0,0,0,.13.62,1.38,1.38,0,0,0,.43.49,5.72,5.72,0,0,0,1.87.91,8,8,0,0,0,2.25.32A6.67,6.67,0,0,0,16.49,53a3.74,3.74,0,0,0,1.68-1.25,3.1,3.1,0,0,0,.6-1.9,3.23,3.23,0,0,0-.61-2A3,3,0,0,0,16.5,46.78Zm10,1.35,1.95-1.93a1.06,1.06,0,0,0,.32-.77,1,1,0,0,0-.32-.74,1.05,1.05,0,0,0-1.51,0L25,46.63l-1.94-1.94a1,1,0,0,0-.76-.34,1,1,0,0,0-.74.32,1.09,1.09,0,0,0,0,1.53l1.94,1.93-1.94,1.94a1,1,0,0,0-.33.76,1,1,0,0,0,.33.75,1.07,1.07,0,0,0,.75.31,1,1,0,0,0,.76-.31L25,49.64,27,51.58a1,1,0,0,0,.75.33,1,1,0,0,0,.76-.33,1.1,1.1,0,0,0,0-1.51Zm13.11,2.55H38.15V42.15a1.5,1.5,0,0,0-1.6-1.6,3,3,0,0,0-1.49.45l-2.88,1.67a1.23,1.23,0,0,0-.64,1.12,1.46,1.46,0,0,0,.37,1,1,1,0,0,0,.86.44A1.23,1.23,0,0,0,33.4,45l1.44-.84v6.49H33.38a1.8,1.8,0,0,0-1.19.33,1.21,1.21,0,0,0-.38,1c0,.89.53,1.33,1.57,1.33h6.25c1,0,1.56-.44,1.56-1.33a1.18,1.18,0,0,0-.38-1A1.75,1.75,0,0,0,39.63,50.68Zm59.68-3.37a3.85,3.85,0,0,0,1.91-1.45,4,4,0,0,0,.68-2.32,4.19,4.19,0,0,0-.73-2.45,4.74,4.74,0,0,0-2.09-1.63A8,8,0,0,0,96,38.88a9.51,9.51,0,0,0-2.84.44,7.83,7.83,0,0,0-2.44,1.2,1.88,1.88,0,0,0-.57.65,1.73,1.73,0,0,0-.17.83,2,2,0,0,0,.41,1.27,1.23,1.23,0,0,0,1,.51,1.4,1.4,0,0,0,.6-.11,6.88,6.88,0,0,0,.72-.34l.51-.24a11.56,11.56,0,0,1,1.31-.58,3.71,3.71,0,0,1,1.26-.22,2.05,2.05,0,0,1,1.46.5,1.78,1.78,0,0,1,.53,1.38,1.34,1.34,0,0,1-.6,1.22,3.64,3.64,0,0,1-1.92.38H94.15a1.38,1.38,0,0,0-1.13.51,1.83,1.83,0,0,0-.4,1.2,1.87,1.87,0,0,0,.4,1.2,1.4,1.4,0,0,0,1.13.5h1.49a3.64,3.64,0,0,1,2,.41,1.5,1.5,0,0,1,.6,1.34,1.66,1.66,0,0,1-.59,1.44,3.31,3.31,0,0,1-1.93.44,4.25,4.25,0,0,1-1.38-.21A9.33,9.33,0,0,1,92.93,52l-.3-.13a1.67,1.67,0,0,1-.23-.11c-.3-.16-.54-.27-.72-.35a1.64,1.64,0,0,0-.6-.1,1.25,1.25,0,0,0-1,.51,2,2,0,0,0-.41,1.26,1.92,1.92,0,0,0,.17.83,1.94,1.94,0,0,0,.58.66,7.6,7.6,0,0,0,2.49,1.21,10.66,10.66,0,0,0,3,.42,9.07,9.07,0,0,0,3.4-.58A5,5,0,0,0,101.54,54a4.54,4.54,0,0,0,0-5.16A4,4,0,0,0,99.31,47.31ZM63,87.25l4.54-4.49A2.49,2.49,0,0,0,68.27,81a2.21,2.21,0,0,0-.75-1.72,2.37,2.37,0,0,0-1.77-.76,2.43,2.43,0,0,0-1.76.76l-4.54,4.54-4.53-4.54a2.48,2.48,0,0,0-1.77-.8,2.18,2.18,0,0,0-1.72.76,2.48,2.48,0,0,0-.76,1.8,2.57,2.57,0,0,0,.72,1.77l4.53,4.49-4.53,4.54a2.39,2.39,0,0,0-.76,1.76,2.42,2.42,0,0,0,.76,1.77,2.6,2.6,0,0,0,1.76.71,2.44,2.44,0,0,0,1.77-.71l4.53-4.54L64,95.32a2.41,2.41,0,0,0,1.76.75,2.49,2.49,0,0,0,2.48-2.52,2.32,2.32,0,0,0-.71-1.76Z"/></svg>