<svg id="Layer_1" data-name="Layer 1" xmlns="http://www.w3.org/2000/svg" viewBox="0 0 122.3 122.3"><title>l9_3_1</title><path d="M122.63,40.14V56.8A8.66,8.66,0,0,1,114,65.46H99.9l0,22.48a4.53,4.53,0,0,1-1.24,3.35,4.48,4.48,0,0,1-3.42,1.31H77.11v3.75A8.69,8.69,0,0,1,68.42,105H51.83a8.69,8.69,0,0,1-8.69-8.69V92.6H24.8a4.43,4.43,0,0,1-2.92-1.23,5,5,0,0,1-1.31-3c-.33-2.63-.36-11.2,0-22.91H9.11A8.66,8.66,0,0,1,.46,56.8V40.14a8.65,8.65,0,0,1,8.65-8.65H42.75a8.66,8.66,0,0,1,8.66,8.65V56.8a8.66,8.66,0,0,1-8.66,8.66H29.05q0,9.21.05,18.42h14V79.76a8.69,8.69,0,0,1,8.69-8.69H68.42a8.69,8.69,0,0,1,8.69,8.69v4.12H91.3q0-9.21,0-18.42h-11a8.66,8.66,0,0,1-8.65-8.66V40.14a8.65,8.65,0,0,1,8.65-8.65H114A8.65,8.65,0,0,1,122.63,40.14ZM14.43,42.23a4.64,4.64,0,0,0-2.28.56,4,4,0,0,0-1.58,1.56,4.86,4.86,0,0,0-.07,4.39,3.65,3.65,0,0,0,1.36,1.47,3.59,3.59,0,0,0,1.94.54,3.4,3.4,0,0,0,1.53-.34,2.74,2.74,0,0,0,1.1-.91,4.72,4.72,0,0,1-.67,2.35,1.73,1.73,0,0,1-1.49.84,2.58,2.58,0,0,1-.83-.14c-.26-.1-.59-.24-1-.44l-.39-.19-.54-.27a1.25,1.25,0,0,0-.45-.08,1,1,0,0,0-.77.39,1.45,1.45,0,0,0-.31.95,1.34,1.34,0,0,0,.13.63,1.62,1.62,0,0,0,.44.48,5.58,5.58,0,0,0,1.81.9,6.91,6.91,0,0,0,2.06.33,4.88,4.88,0,0,0,2.8-.81,5.23,5.23,0,0,0,1.86-2.32,8.67,8.67,0,0,0,.65-3.52,7.15,7.15,0,0,0-1.38-4.71A4.83,4.83,0,0,0,14.43,42.23Zm.2,6a1.4,1.4,0,0,1-1.12-.46,1.83,1.83,0,0,1-.41-1.25,1.77,1.77,0,0,1,.42-1.24,1.4,1.4,0,0,1,1.11-.47,1.44,1.44,0,0,1,1.12.48,2,2,0,0,1,0,2.47A1.46,1.46,0,0,1,14.63,48.19ZM27.2,49.9,29.14,48a1,1,0,0,0,.32-.77.93.93,0,0,0-.32-.74,1,1,0,0,0-.76-.32,1,1,0,0,0-.75.32l-1.95,1.95-1.94-1.95a1,1,0,0,0-.76-.34.94.94,0,0,0-.73.32,1.07,1.07,0,0,0,0,1.53l1.94,1.93-1.94,1.94a1,1,0,0,0,0,1.52,1.12,1.12,0,0,0,.75.3,1,1,0,0,0,.76-.3l1.94-2,1.95,2a1,1,0,0,0,.75.32,1.08,1.08,0,0,0,1.07-1.08,1,1,0,0,0-.31-.76Zm11.57-1.35a2.92,2.92,0,0,0,1.43-1.09,3,3,0,0,0,.51-1.74,3.18,3.18,0,0,0-.54-1.83,3.56,3.56,0,0,0-1.57-1.23,6.12,6.12,0,0,0-2.35-.43,7.07,7.07,0,0,0-2.13.33,5.79,5.79,0,0,0-1.83.9,1.36,1.36,0,0,0-.43.48,1.34,1.34,0,0,0-.13.63,1.47,1.47,0,0,0,.31,1,.9.9,0,0,0,.75.38,1.06,1.06,0,0,0,.45-.08,4.16,4.16,0,0,0,.54-.26l.38-.18a10.57,10.57,0,0,1,1-.43,2.71,2.71,0,0,1,1-.16,1.54,1.54,0,0,1,1.1.37,1.34,1.34,0,0,1,.39,1,1,1,0,0,1-.45.92,2.77,2.77,0,0,1-1.44.29H34.9a1,1,0,0,0-.85.38,1.4,1.4,0,0,0-.3.9,1.44,1.44,0,0,0,.3.9,1,1,0,0,0,.85.37H36a2.72,2.72,0,0,1,1.47.31,1.13,1.13,0,0,1,.45,1,1.24,1.24,0,0,1-.44,1.08,2.55,2.55,0,0,1-1.45.32,3.28,3.28,0,0,1-1-.15,8.19,8.19,0,0,1-1-.44l-.22-.1-.17-.08a6,6,0,0,0-.54-.26,1.12,1.12,0,0,0-.45-.08,1,1,0,0,0-.76.38,1.52,1.52,0,0,0-.31,1,1.46,1.46,0,0,0,.13.62,1.38,1.38,0,0,0,.43.49,5.72,5.72,0,0,0,1.87.91,8,8,0,0,0,2.25.32,6.84,6.84,0,0,0,2.55-.44,3.76,3.76,0,0,0,1.68-1.25,3.4,3.4,0,0,0,0-3.87A3,3,0,0,0,38.77,48.55Zm55.42,5.74H89.37l3.4-3.48a11,11,0,0,0,2-2.7,6.09,6.09,0,0,0,.59-2.68,4.35,4.35,0,0,0-.74-2.5,4.68,4.68,0,0,0-2.07-1.68,7.62,7.62,0,0,0-3.12-.59,9.29,9.29,0,0,0-2.77.43,9.59,9.59,0,0,0-2.54,1.2,1.6,1.6,0,0,0-.58.62,2.29,2.29,0,0,0,.25,2.15,1.22,1.22,0,0,0,1,.54,1.33,1.33,0,0,0,.45-.07,2.34,2.34,0,0,0,.49-.23l.38-.2.48-.24A11.62,11.62,0,0,1,88,44.27a3.8,3.8,0,0,1,1.29-.2,1.88,1.88,0,0,1,1.33.43,1.62,1.62,0,0,1,.47,1.25,4.66,4.66,0,0,1-1.59,3L84.37,54.1A2.63,2.63,0,0,0,83.56,56a1.74,1.74,0,0,0,1.87,1.82h8.76a2.39,2.39,0,0,0,1.57-.43A1.63,1.63,0,0,0,96.28,56a1.58,1.58,0,0,0-.52-1.31A2.45,2.45,0,0,0,94.19,54.29ZM109,40.87H99.59a2.31,2.31,0,0,0-1.58.45A2,2,0,0,0,98,44a2.45,2.45,0,0,0,1.6.43h6L99.42,54.91a2.33,2.33,0,0,0-.33,1.16,1.77,1.77,0,0,0,.64,1.38,2.25,2.25,0,0,0,1.49.56,2,2,0,0,0,1-.28,2.13,2.13,0,0,0,.83-.85l7.27-12.6a3.1,3.1,0,0,0,.46-1.58,1.88,1.88,0,0,0-.47-1.31A1.72,1.72,0,0,0,109,40.87ZM63.65,89l4.54-4.5a2.46,2.46,0,0,0,.76-1.8A2.24,2.24,0,0,0,68.19,81a2.34,2.34,0,0,0-1.76-.75,2.44,2.44,0,0,0-1.77.75l-4.53,4.54L55.59,81a2.44,2.44,0,0,0-1.76-.79A2.23,2.23,0,0,0,52.1,81a2.49,2.49,0,0,0-.75,1.81,2.6,2.6,0,0,0,.71,1.76L56.6,89l-4.54,4.53a2.45,2.45,0,0,0,0,3.53,2.56,2.56,0,0,0,1.77.71,2.39,2.39,0,0,0,1.76-.71l4.54-4.54,4.53,4.54a2.43,2.43,0,0,0,3.53,0,2.37,2.37,0,0,0,.71-1.76,2.31,2.31,0,0,0-.71-1.77Z"/></svg>