<svg id="Layer_1" data-name="Layer 1" xmlns="http://www.w3.org/2000/svg" viewBox="0 0 122.3 122.3"><title>l9_3_1</title><path d="M122.49,37.27V47.81a11.74,11.74,0,0,1-11.74,11.74h-11l0,22.52a4.37,4.37,0,0,1-4.67,4.66H75.3q-4.06,8.22-8.12,16.42c-.3.53-2.18,3.69-5.28,3.78-3.26.1-5.27-3.28-5.56-3.78L47.52,86.73h-23a4.39,4.39,0,0,1-2.93-1.23,4.9,4.9,0,0,1-1.31-3c-.33-2.64-.36-11.22,0-23H11.87A11.74,11.74,0,0,1,.13,47.81V37.27A11.74,11.74,0,0,1,11.87,25.53H39.42A11.74,11.74,0,0,1,51.16,37.27V47.81A11.74,11.74,0,0,1,39.42,59.55H28.77q0,9.23.05,18.45h14l-3.56-6.62a8.52,8.52,0,0,1-.34-6.46,3.9,3.9,0,0,1,2.17-2.36L80,62.62a4.18,4.18,0,0,1,2.79,2.81,9.6,9.6,0,0,1,.12,6L79.61,78h11.5q0-9.23,0-18.45H83.21A11.75,11.75,0,0,1,71.46,47.81V37.27A11.75,11.75,0,0,1,83.21,25.53h27.54A11.74,11.74,0,0,1,122.49,37.27ZM64.4,80.83l4.54-4.49a2.49,2.49,0,0,0,.76-1.81,2.23,2.23,0,0,0-.76-1.72,2.34,2.34,0,0,0-1.76-.75,2.44,2.44,0,0,0-1.77.75l-4.53,4.54-4.54-4.54A2.44,2.44,0,0,0,54.58,72a2.23,2.23,0,0,0-1.73.75,2.49,2.49,0,0,0-.75,1.81,2.6,2.6,0,0,0,.71,1.76l4.54,4.49-4.54,4.54a2.45,2.45,0,0,0,0,3.53,2.56,2.56,0,0,0,1.77.71,2.39,2.39,0,0,0,1.76-.71l4.54-4.54,4.53,4.54a2.45,2.45,0,0,0,3.53,0,2.37,2.37,0,0,0,.71-1.76,2.31,2.31,0,0,0-.71-1.77ZM16.29,41.77a2.7,2.7,0,0,0,1.42-1.06,3.12,3.12,0,0,0,.51-1.8A3,3,0,0,0,17,36.38a5.68,5.68,0,0,0-3.41-.92,5.67,5.67,0,0,0-3.4.92,3,3,0,0,0-1.27,2.53,3,3,0,0,0,.51,1.76,2.93,2.93,0,0,0,1.44,1.1,3,3,0,0,0-1.69,1.08,3.41,3.41,0,0,0,.74,4.64,6.22,6.22,0,0,0,3.67,1,6.16,6.16,0,0,0,3.66-1,3.11,3.11,0,0,0,1.34-2.67A3.15,3.15,0,0,0,18,42.88,3.19,3.19,0,0,0,16.29,41.77ZM13.56,46c-1.31,0-2-.47-2-1.4s.65-1.41,2-1.41,2,.47,2,1.41S14.87,46,13.56,46Zm0-8a1.89,1.89,0,0,1,1.2.31,1.21,1.21,0,0,1,.4,1,1.24,1.24,0,0,1-.4,1,1.89,1.89,0,0,1-1.2.32,1.94,1.94,0,0,1-1.21-.32,1.27,1.27,0,0,1-.39-1,1.24,1.24,0,0,1,.39-1A1.94,1.94,0,0,1,13.56,38Zm12.31,5.16,1.94-1.92a1.07,1.07,0,0,0,.33-.78.93.93,0,0,0-.33-.73,1,1,0,0,0-.75-.33,1,1,0,0,0-.76.33l-1.94,1.94-1.95-1.94a1.05,1.05,0,0,0-.75-.35.94.94,0,0,0-.74.33,1,1,0,0,0-.32.77,1.13,1.13,0,0,0,.3.76l2,1.92-2,2a1,1,0,0,0-.32.75,1,1,0,0,0,.32.76,1.14,1.14,0,0,0,.76.31,1,1,0,0,0,.75-.31l1.95-1.94,1.94,1.94a1,1,0,0,0,.76.32,1,1,0,0,0,.75-.32,1,1,0,0,0,.31-.76,1,1,0,0,0-.31-.75Zm11.57-1.35a2.86,2.86,0,0,0,1.43-1.08A3,3,0,0,0,39.39,39a3.2,3.2,0,0,0-.55-1.84,3.54,3.54,0,0,0-1.57-1.22,5.94,5.94,0,0,0-2.35-.43,7.05,7.05,0,0,0-2.13.32,6.25,6.25,0,0,0-1.83.9,1.47,1.47,0,0,0-.43.49,1.44,1.44,0,0,0-.13.63,1.5,1.5,0,0,0,.31.94.93.93,0,0,0,.76.39,1.29,1.29,0,0,0,.45-.08l.54-.26.38-.18a8.85,8.85,0,0,1,1-.44,2.9,2.9,0,0,1,.94-.16,1.57,1.57,0,0,1,1.1.37,1.37,1.37,0,0,1,.4,1,1,1,0,0,1-.45.91,2.72,2.72,0,0,1-1.45.29h-.79a1,1,0,0,0-.84.38,1.46,1.46,0,0,0,0,1.8,1,1,0,0,0,.84.38h1.12a2.8,2.8,0,0,1,1.48.3,1.13,1.13,0,0,1,.44,1,1.22,1.22,0,0,1-.44,1.08,2.42,2.42,0,0,1-1.44.33,3.07,3.07,0,0,1-1-.16,8.19,8.19,0,0,1-1-.44l-.22-.1-.17-.08-.54-.26a1.25,1.25,0,0,0-.45-.08.94.94,0,0,0-.76.39,1.49,1.49,0,0,0-.3.94,1.46,1.46,0,0,0,.12.62,1.44,1.44,0,0,0,.44.5,5.82,5.82,0,0,0,1.87.91,8,8,0,0,0,2.25.31A6.59,6.59,0,0,0,37.43,48a3.78,3.78,0,0,0,1.69-1.25,3.44,3.44,0,0,0,0-3.87A3.1,3.1,0,0,0,37.44,41.77Zm58.05,3.66a1.41,1.41,0,0,0,.88-.29,1.29,1.29,0,0,0,.46-.82,2.26,2.26,0,0,1,.54-1,12.3,12.3,0,0,1,1.22-1.12c.56-.49,1-.92,1.36-1.27a4.41,4.41,0,0,0,.9-1.27,3.67,3.67,0,0,0-.32-3.78,4.61,4.61,0,0,0-1.92-1.49,6.83,6.83,0,0,0-2.78-.54,8.87,8.87,0,0,0-2.77.45,8.11,8.11,0,0,0-2.46,1.23,2.06,2.06,0,0,0-.59.65,1.74,1.74,0,0,0-.18.84,1.92,1.92,0,0,0,.42,1.26,1.29,1.29,0,0,0,1,.52,3,3,0,0,0,1.32-.46l.57-.29a10.92,10.92,0,0,1,1.21-.59,3.24,3.24,0,0,1,1.1-.2,1.6,1.6,0,0,1,1,.31,1,1,0,0,1,.39.84,1.79,1.79,0,0,1-.28,1,7.31,7.31,0,0,1-.83,1A8.23,8.23,0,0,0,94.6,42a3.75,3.75,0,0,0-.43,1.89A1.74,1.74,0,0,0,94.52,45,1.2,1.2,0,0,0,95.49,45.43Zm.05,5.73a2.24,2.24,0,0,0,1.67-.67,2.41,2.41,0,0,0,0-3.31,2.24,2.24,0,0,0-1.67-.67,2.21,2.21,0,0,0-1.65.67,2.41,2.41,0,0,0,0,3.31A2.21,2.21,0,0,0,95.54,51.16Z"/></svg>