<svg id="Layer_1" data-name="Layer 1" xmlns="http://www.w3.org/2000/svg" viewBox="0 0 122.3 122.3"><title>l9_3_1</title><path d="M122.46,40.67V57.33A8.65,8.65,0,0,1,113.81,66H99.73q0,11.25,0,22.49a4.47,4.47,0,0,1-1.23,3.35,4.57,4.57,0,0,1-3.43,1.31H76.94v3.74a8.69,8.69,0,0,1-8.69,8.69H51.66A8.69,8.69,0,0,1,43,96.87V93.13H24.63a4.46,4.46,0,0,1-2.92-1.24,4.94,4.94,0,0,1-1.31-3c-.33-2.63-.36-11.2,0-22.91H8.94A8.66,8.66,0,0,1,.28,57.33V40.67A8.66,8.66,0,0,1,8.94,32H42.58a8.66,8.66,0,0,1,8.66,8.66V57.33A8.66,8.66,0,0,1,42.58,66H28.88q0,9.21.05,18.42H43V80.29a8.7,8.7,0,0,1,8.69-8.7H68.25a8.7,8.7,0,0,1,8.69,8.7V84.4H91.13q0-9.21,0-18.42h-11a8.65,8.65,0,0,1-8.65-8.65V40.67A8.66,8.66,0,0,1,80.16,32h33.65A8.66,8.66,0,0,1,122.46,40.67ZM9.15,49.07A2.9,2.9,0,0,0,10.58,48a3,3,0,0,0,.52-1.74,3.2,3.2,0,0,0-.55-1.84A3.54,3.54,0,0,0,9,43.19a5.94,5.94,0,0,0-2.35-.43,7.05,7.05,0,0,0-2.13.32,6.25,6.25,0,0,0-1.83.9,1.47,1.47,0,0,0-.43.49,1.41,1.41,0,0,0-.13.63,1.5,1.5,0,0,0,.31.94.93.93,0,0,0,.76.39,1.33,1.33,0,0,0,.45-.08l.54-.26.37-.18c.36-.18.69-.33,1-.44a3,3,0,0,1,1-.16,1.59,1.59,0,0,1,1.1.37,1.36,1.36,0,0,1,.39,1,1,1,0,0,1-.45.91,2.68,2.68,0,0,1-1.44.29H5.28a1,1,0,0,0-.84.38,1.46,1.46,0,0,0,0,1.8,1,1,0,0,0,.84.38H6.4a2.74,2.74,0,0,1,1.47.3,1.14,1.14,0,0,1,.45,1,1.22,1.22,0,0,1-.44,1.08,2.44,2.44,0,0,1-1.45.33,3,3,0,0,1-1-.16,8.19,8.19,0,0,1-1-.44l-.22-.1L4,52.42l-.54-.26A1.29,1.29,0,0,0,3,52.08a.94.94,0,0,0-.76.39,1.49,1.49,0,0,0-.3.94A1.46,1.46,0,0,0,2,54a1.52,1.52,0,0,0,.43.5,6,6,0,0,0,1.88.91,7.94,7.94,0,0,0,2.25.31,6.59,6.59,0,0,0,2.54-.44,3.78,3.78,0,0,0,1.69-1.25,3.44,3.44,0,0,0,0-3.87A3.14,3.14,0,0,0,9.15,49.07Zm10,1.35,1.94-1.92a1.07,1.07,0,0,0,.33-.78.92.92,0,0,0-.33-.73,1,1,0,0,0-.75-.33,1,1,0,0,0-.76.33l-1.94,1.94-2-1.94a1.05,1.05,0,0,0-.75-.35.94.94,0,0,0-.74.33,1,1,0,0,0-.33.77,1.14,1.14,0,0,0,.31.76l1.94,1.92-1.94,1.95a1,1,0,0,0-.32.75,1,1,0,0,0,.32.76,1.14,1.14,0,0,0,.76.31,1,1,0,0,0,.75-.31l2-1.94,1.94,1.94a1,1,0,0,0,.76.32,1.08,1.08,0,0,0,1.06-1.08,1,1,0,0,0-.31-.75Zm9.29,5.35a4.19,4.19,0,0,0,3.59-1.67,8,8,0,0,0,1.25-4.85,8,8,0,0,0-1.25-4.82,4.22,4.22,0,0,0-3.59-1.67,4.21,4.21,0,0,0-3.61,1.67,8.05,8.05,0,0,0-1.24,4.82,8.11,8.11,0,0,0,1.24,4.85A4.23,4.23,0,0,0,28.47,55.77Zm0-2.5a1.3,1.3,0,0,1-1.25-.94,9,9,0,0,1-.37-3.08,8.91,8.91,0,0,1,.37-3.06,1.3,1.3,0,0,1,2.49,0,9,9,0,0,1,.38,3.06,9,9,0,0,1-.38,3.08A1.29,1.29,0,0,1,28.47,53.27Zm7.84,2.45a1.65,1.65,0,0,0,1.24-.51,1.81,1.81,0,0,0,0-2.48,1.65,1.65,0,0,0-1.24-.51,1.75,1.75,0,1,0,0,3.5Zm10.14-6.65A2.9,2.9,0,0,0,47.88,48a3,3,0,0,0,.51-1.74,3.12,3.12,0,0,0-.55-1.84,3.51,3.51,0,0,0-1.56-1.22,6,6,0,0,0-2.35-.43,7.17,7.17,0,0,0-2.14.32A6.07,6.07,0,0,0,40,44a1.51,1.51,0,0,0-.44.49,1.41,1.41,0,0,0-.12.63,1.44,1.44,0,0,0,.31.94.91.91,0,0,0,.75.39,1.25,1.25,0,0,0,.45-.08l.54-.26.38-.18c.36-.18.69-.33,1-.44a2.91,2.91,0,0,1,1-.16,1.56,1.56,0,0,1,1.09.37,1.33,1.33,0,0,1,.4,1,1,1,0,0,1-.45.91,2.68,2.68,0,0,1-1.44.29h-.79a1,1,0,0,0-.85.38,1.5,1.5,0,0,0,0,1.8,1,1,0,0,0,.85.38h1.11a2.75,2.75,0,0,1,1.48.3,1.14,1.14,0,0,1,.45,1,1.25,1.25,0,0,1-.44,1.08,2.48,2.48,0,0,1-1.45.33,3.11,3.11,0,0,1-1-.16,8.11,8.11,0,0,1-1-.44l-.23-.1-.17-.08-.54-.26a1.25,1.25,0,0,0-.45-.08.91.91,0,0,0-.75.39,1.44,1.44,0,0,0-.31.94,1.3,1.3,0,0,0,.56,1.12,5.92,5.92,0,0,0,1.87.91,8,8,0,0,0,2.25.31,6.68,6.68,0,0,0,2.55-.44,3.74,3.74,0,0,0,1.68-1.25,3.13,3.13,0,0,0,.6-1.91,3.2,3.2,0,0,0-.61-2A3.11,3.11,0,0,0,46.45,49.07ZM86.3,58.53a5.59,5.59,0,0,0,4.8-2.23q1.66-2.23,1.66-6.45a10.65,10.65,0,0,0-1.67-6.44,6.27,6.27,0,0,0-9.59,0,10.73,10.73,0,0,0-1.65,6.44A10.74,10.74,0,0,0,81.5,56.3,5.62,5.62,0,0,0,86.3,58.53Zm0-3.33A1.71,1.71,0,0,1,84.65,54a11.8,11.8,0,0,1-.51-4.1,11.76,11.76,0,0,1,.51-4.1,1.72,1.72,0,0,1,3.31,0,12,12,0,0,1,.5,4.08A12.1,12.1,0,0,1,88,54,1.73,1.73,0,0,1,86.3,55.2Zm10.47,3.26a2.2,2.2,0,0,0,1.64-.67,2.41,2.41,0,0,0,0-3.31,2.38,2.38,0,0,0-3.31,0,2.41,2.41,0,0,0,0,3.31A2.22,2.22,0,0,0,96.77,58.46Zm9.86-17.28a6.16,6.16,0,0,0-3,.75,5.36,5.36,0,0,0-2.1,2.07,6.45,6.45,0,0,0-.09,5.86,5,5,0,0,0,1.81,2,4.86,4.86,0,0,0,2.59.7,4.57,4.57,0,0,0,2-.44,3.82,3.82,0,0,0,1.47-1.21,6.25,6.25,0,0,1-.9,3.13,2.3,2.3,0,0,1-2,1.12,3.15,3.15,0,0,1-1.1-.2,14.18,14.18,0,0,1-1.32-.57l-.53-.27a6.88,6.88,0,0,0-.72-.34,1.4,1.4,0,0,0-.6-.11,1.28,1.28,0,0,0-1,.51,2,2,0,0,0-.42,1.26,1.74,1.74,0,0,0,.18.84,2.08,2.08,0,0,0,.59.65,7.77,7.77,0,0,0,2.41,1.2,9.26,9.26,0,0,0,2.75.43,6.49,6.49,0,0,0,3.73-1.08,6.88,6.88,0,0,0,2.47-3.08,11.54,11.54,0,0,0,.88-4.69,9.55,9.55,0,0,0-1.85-6.29A6.44,6.44,0,0,0,106.63,41.18Zm.26,8a1.89,1.89,0,0,1-1.5-.62,2.78,2.78,0,0,1,0-3.32,1.85,1.85,0,0,1,1.48-.62,1.92,1.92,0,0,1,1.49.63,2.65,2.65,0,0,1,0,3.3A1.9,1.9,0,0,1,106.89,49.13ZM63.48,89.55,68,85.06a2.49,2.49,0,0,0,.75-1.81A2.21,2.21,0,0,0,68,81.53a2.33,2.33,0,0,0-1.77-.76,2.39,2.39,0,0,0-1.76.76L60,86.06l-4.53-4.53a2.46,2.46,0,0,0-1.77-.8,2.18,2.18,0,0,0-1.72.76,2.45,2.45,0,0,0-.75,1.8,2.58,2.58,0,0,0,.71,1.77l4.54,4.49-4.54,4.54a2.42,2.42,0,0,0,0,3.52,2.57,2.57,0,0,0,1.76.72,2.41,2.41,0,0,0,1.77-.72L60,93.08l4.54,4.53a2.48,2.48,0,0,0,4.24-1.76A2.3,2.3,0,0,0,68,94.09Z"/></svg>