<svg id="Layer_1" data-name="Layer 1" xmlns="http://www.w3.org/2000/svg" viewBox="0 0 122.3 122.3"><title>l9_3_1</title><path d="M122.39,36.86V53.53a8.65,8.65,0,0,1-8.65,8.65H99.65l0,22.48A4.37,4.37,0,0,1,95,89.32H76.86v3.75a8.69,8.69,0,0,1-8.69,8.69H51.59a8.69,8.69,0,0,1-8.69-8.69V89.32H24.56a4.43,4.43,0,0,1-2.92-1.23,4.9,4.9,0,0,1-1.31-3c-.33-2.63-.36-11.2,0-22.91H8.86A8.65,8.65,0,0,1,.21,53.53V36.86a8.65,8.65,0,0,1,8.65-8.65H42.51a8.65,8.65,0,0,1,8.65,8.65V53.53a8.65,8.65,0,0,1-8.65,8.65H28.81q0,9.21.05,18.42h14V76.48a8.69,8.69,0,0,1,8.69-8.69H68.17a8.69,8.69,0,0,1,8.69,8.69V80.6H91.05l0-18.42h-11a8.65,8.65,0,0,1-8.65-8.65V36.86a8.65,8.65,0,0,1,8.65-8.65h33.65A8.65,8.65,0,0,1,122.39,36.86ZM18.28,39.12H11.22a1.78,1.78,0,0,0-1.19.33,1.48,1.48,0,0,0,0,2,1.79,1.79,0,0,0,1.2.32h4.5l-4.63,7.91a1.74,1.74,0,0,0-.25.86,1.29,1.29,0,0,0,.49,1,1.6,1.6,0,0,0,1.11.43,1.54,1.54,0,0,0,.77-.21,1.66,1.66,0,0,0,.62-.64l5.45-9.45a2.28,2.28,0,0,0,.35-1.19,1.43,1.43,0,0,0-.35-1A1.28,1.28,0,0,0,18.28,39.12ZM27,46.62,28.9,44.7a1.1,1.1,0,0,0,.32-.78,1,1,0,0,0-.32-.74,1,1,0,0,0-.76-.32,1.07,1.07,0,0,0-.76.32l-1.94,2-1.94-2a1.08,1.08,0,0,0-.76-.34.94.94,0,0,0-.74.33,1.06,1.06,0,0,0-.32.77,1.13,1.13,0,0,0,.3.76l1.95,1.92-1.95,2a1,1,0,0,0-.32.75,1.07,1.07,0,0,0,.32.76,1.13,1.13,0,0,0,.76.3,1.06,1.06,0,0,0,.76-.3l1.94-1.95,1.94,1.95a1.06,1.06,0,0,0,1.52,0,1.06,1.06,0,0,0,.3-.76,1,1,0,0,0-.3-.75Zm13.11,2.56H38.58V40.65a1.55,1.55,0,0,0-.44-1.17A1.58,1.58,0,0,0,37,39a3.06,3.06,0,0,0-1.5.45L32.6,41.17A1.21,1.21,0,0,0,32,42.28a1.5,1.5,0,0,0,.36,1,1.08,1.08,0,0,0,.87.45,1.26,1.26,0,0,0,.63-.18l1.44-.85v6.5H33.81a1.84,1.84,0,0,0-1.19.32,1.22,1.22,0,0,0-.38,1c0,.89.53,1.34,1.57,1.34h6.25c1,0,1.56-.45,1.56-1.34a1.19,1.19,0,0,0-.38-1A1.81,1.81,0,0,0,40.06,49.18ZM101.54,37.6H92.13a2.33,2.33,0,0,0-1.58.44,1.67,1.67,0,0,0-.5,1.33,1.63,1.63,0,0,0,.49,1.3,2.38,2.38,0,0,0,1.59.43h6L92,51.64a2.19,2.19,0,0,0-.34,1.15,1.78,1.78,0,0,0,.65,1.38,2.23,2.23,0,0,0,1.49.56,2.1,2.1,0,0,0,1-.27,2.27,2.27,0,0,0,.82-.86L102.89,41a3.09,3.09,0,0,0,.45-1.58,1.85,1.85,0,0,0-.47-1.31A1.7,1.7,0,0,0,101.54,37.6ZM63.41,85.75,68,81.25a2.45,2.45,0,0,0,.75-1.8A2.23,2.23,0,0,0,68,77.72,2.36,2.36,0,0,0,66.18,77a2.41,2.41,0,0,0-1.76.75l-4.54,4.54-4.53-4.54a2.48,2.48,0,0,0-1.77-.79,2.21,2.21,0,0,0-1.72.75,2.5,2.5,0,0,0-.76,1.81,2.57,2.57,0,0,0,.72,1.76l4.53,4.5-4.53,4.53a2.42,2.42,0,0,0-.76,1.77,2.39,2.39,0,0,0,.76,1.76,2.57,2.57,0,0,0,1.76.72,2.41,2.41,0,0,0,1.77-.72l4.53-4.53,4.54,4.53a2.39,2.39,0,0,0,1.76.76A2.42,2.42,0,0,0,68,93.81a2.4,2.4,0,0,0,.71-1.76A2.34,2.34,0,0,0,68,90.28Z"/></svg>