<svg id="Layer_1" data-name="Layer 1" xmlns="http://www.w3.org/2000/svg" viewBox="0 0 122.3 122.3"><title>l9_3_1</title><path d="M122.39,34.47V51.13a8.65,8.65,0,0,1-8.65,8.65H99.65l0,22.48A4.36,4.36,0,0,1,95,86.92H76.86v3.75a8.69,8.69,0,0,1-8.69,8.69H51.59a8.69,8.69,0,0,1-8.69-8.69V86.92H24.56a4.37,4.37,0,0,1-2.92-1.23,4.88,4.88,0,0,1-1.31-3c-.33-2.63-.36-11.2,0-22.91H8.86A8.65,8.65,0,0,1,.21,51.13V34.47a8.66,8.66,0,0,1,8.65-8.66H42.51a8.66,8.66,0,0,1,8.65,8.66V51.13a8.65,8.65,0,0,1-8.65,8.65H28.81q0,9.21.05,18.42h14V74.09a8.7,8.7,0,0,1,8.69-8.7H68.17a8.7,8.7,0,0,1,8.69,8.7V78.2H91.05l0-18.42h-11a8.65,8.65,0,0,1-8.65-8.65V34.47a8.66,8.66,0,0,1,8.65-8.66h33.65A8.66,8.66,0,0,1,122.39,34.47ZM10.12,46.78H6.5l2.56-2.61a8.11,8.11,0,0,0,1.5-2,4.41,4.41,0,0,0,.44-2,3.32,3.32,0,0,0-.54-1.88A3.5,3.5,0,0,0,8.9,37a5.68,5.68,0,0,0-2.34-.44,6.88,6.88,0,0,0-2.08.32,7.24,7.24,0,0,0-1.9.9,1.14,1.14,0,0,0-.44.47,1.71,1.71,0,0,0,.19,1.61.9.9,0,0,0,.75.4,1,1,0,0,0,.35,0A2.79,2.79,0,0,0,3.8,40l.27-.15.36-.18a9.8,9.8,0,0,1,1-.45,3,3,0,0,1,1-.15,1.39,1.39,0,0,1,1,.33,1.16,1.16,0,0,1,.35.93,3.5,3.5,0,0,1-1.18,2.29l-3.82,4A2,2,0,0,0,2.15,48a1.31,1.31,0,0,0,.38,1,1.35,1.35,0,0,0,1,.39h6.57a1.79,1.79,0,0,0,1.18-.33,1.22,1.22,0,0,0,.39-1,1.2,1.2,0,0,0-.39-1A1.85,1.85,0,0,0,10.12,46.78Zm9-2.56,1.95-1.92a1.1,1.1,0,0,0,.32-.78.94.94,0,0,0-.32-.73,1,1,0,0,0-1.51,0l-1.95,1.94-1.94-1.94a1.06,1.06,0,0,0-.76-.35,1,1,0,0,0-.74.33,1.06,1.06,0,0,0-.32.77,1.09,1.09,0,0,0,.31.76l1.94,1.92-1.94,2a1,1,0,0,0-.33.75,1,1,0,0,0,.33.76,1.11,1.11,0,0,0,.75.31,1.07,1.07,0,0,0,.76-.31l1.94-1.94,1.95,1.94a1,1,0,0,0,.75.32,1,1,0,0,0,.76-.32,1,1,0,0,0,.3-.76,1,1,0,0,0-.3-.75Zm9.29,5.35A4.22,4.22,0,0,0,32,47.9a8,8,0,0,0,1.24-4.85A7.91,7.91,0,0,0,32,38.23a4.19,4.19,0,0,0-3.59-1.67,4.2,4.2,0,0,0-3.6,1.67,8,8,0,0,0-1.24,4.82,8,8,0,0,0,1.24,4.85A4.22,4.22,0,0,0,28.39,49.57Zm0-2.5a1.29,1.29,0,0,1-1.24-.94,9,9,0,0,1-.38-3.08A9,9,0,0,1,27.15,40a1.29,1.29,0,0,1,2.48,0A8.73,8.73,0,0,1,30,43.05a8.75,8.75,0,0,1-.38,3.08A1.28,1.28,0,0,1,28.39,47.07Zm7.85,2.45A1.64,1.64,0,0,0,37.47,49a1.79,1.79,0,0,0,0-2.48A1.64,1.64,0,0,0,36.24,46a1.67,1.67,0,0,0-1.25.51A1.79,1.79,0,0,0,35,49,1.67,1.67,0,0,0,36.24,49.52Zm11.2-2.74H43.82l2.55-2.61a8.45,8.45,0,0,0,1.51-2,4.55,4.55,0,0,0,.44-2,3.32,3.32,0,0,0-.55-1.88A3.5,3.5,0,0,0,46.21,37a5.68,5.68,0,0,0-2.34-.44,6.92,6.92,0,0,0-2.08.32,7.39,7.39,0,0,0-1.9.9,1.21,1.21,0,0,0-.44.47,1.52,1.52,0,0,0-.11.65,1.57,1.57,0,0,0,.3,1,.93.93,0,0,0,.76.4,1,1,0,0,0,.34,0,2.31,2.31,0,0,0,.37-.17l.28-.15.36-.18a8.24,8.24,0,0,1,1-.45,2.93,2.93,0,0,1,1-.15,1.42,1.42,0,0,1,1,.33,1.2,1.2,0,0,1,.35.93,3.52,3.52,0,0,1-1.19,2.29l-3.82,4a2,2,0,0,0-.61,1.4,1.32,1.32,0,0,0,1.41,1.37h6.57a1.76,1.76,0,0,0,1.17-.33,1.22,1.22,0,0,0,.39-1,1.2,1.2,0,0,0-.39-1A1.82,1.82,0,0,0,47.44,46.78Zm49.13-1.25a1.41,1.41,0,0,0,.88-.29,1.33,1.33,0,0,0,.47-.82,2.2,2.2,0,0,1,.54-1,10.94,10.94,0,0,1,1.21-1.12c.56-.49,1-.92,1.37-1.27a4.83,4.83,0,0,0,.9-1.27,3.58,3.58,0,0,0,.37-1.63,3.51,3.51,0,0,0-.7-2.15,4.61,4.61,0,0,0-1.92-1.49A6.79,6.79,0,0,0,96.91,34a9.16,9.16,0,0,0-2.77.44,8.62,8.62,0,0,0-2.46,1.24,2.08,2.08,0,0,0-.59.65,1.74,1.74,0,0,0-.18.84,1.92,1.92,0,0,0,.42,1.26,1.28,1.28,0,0,0,1,.51,2.93,2.93,0,0,0,1.32-.45l.58-.29a8.27,8.27,0,0,1,1.21-.59,3.18,3.18,0,0,1,1.09-.2,1.63,1.63,0,0,1,1.06.31,1,1,0,0,1,.38.84,1.71,1.71,0,0,1-.28,1,7.9,7.9,0,0,1-.82,1,7.47,7.47,0,0,0-1.2,1.55A3.71,3.71,0,0,0,95.25,44a1.76,1.76,0,0,0,.35,1.16A1.22,1.22,0,0,0,96.57,45.53Zm.05,5.73a2.24,2.24,0,0,0,1.67-.67A2.28,2.28,0,0,0,99,48.93a2.29,2.29,0,0,0-2.33-2.33,2.21,2.21,0,0,0-1.64.68,2.25,2.25,0,0,0-.66,1.65A2.28,2.28,0,0,0,95,50.59,2.2,2.2,0,0,0,96.62,51.26ZM63.41,83.35,68,78.85a2.45,2.45,0,0,0,.75-1.8A2.19,2.19,0,0,0,68,75.33a2.33,2.33,0,0,0-1.77-.76,2.39,2.39,0,0,0-1.76.76l-4.54,4.53-4.53-4.53a2.45,2.45,0,0,0-1.77-.8,2.21,2.21,0,0,0-1.72.75,2.5,2.5,0,0,0-.76,1.81,2.55,2.55,0,0,0,.72,1.76l4.53,4.5-4.53,4.53a2.42,2.42,0,0,0-.76,1.77,2.39,2.39,0,0,0,.76,1.76,2.57,2.57,0,0,0,1.76.72,2.41,2.41,0,0,0,1.77-.72l4.53-4.53,4.54,4.53a2.39,2.39,0,0,0,1.76.76A2.42,2.42,0,0,0,68,91.41a2.4,2.4,0,0,0,.71-1.76A2.34,2.34,0,0,0,68,87.88Z"/></svg>