<svg id="Layer_1" data-name="Layer 1" xmlns="http://www.w3.org/2000/svg" viewBox="0 0 122.3 122.3"><title>l9_3_1</title><path d="M122.56,38.1V54.76a8.65,8.65,0,0,1-8.65,8.65H99.83q0,11.25,0,22.49a4.46,4.46,0,0,1-1.23,3.35,4.57,4.57,0,0,1-3.43,1.31H77V94.3a8.71,8.71,0,0,1-8.7,8.7H51.76a8.7,8.7,0,0,1-8.69-8.7V90.56H24.73a4.43,4.43,0,0,1-2.92-1.23,4.93,4.93,0,0,1-1.31-3c-.33-2.64-.36-11.21,0-22.92H9A8.66,8.66,0,0,1,.38,54.76V38.1A8.66,8.66,0,0,1,9,29.45H42.68a8.65,8.65,0,0,1,8.65,8.65V54.76a8.65,8.65,0,0,1-8.65,8.65H29q0,9.21.05,18.42h14V77.72A8.69,8.69,0,0,1,51.76,69H68.34A8.7,8.7,0,0,1,77,77.72v4.11H91.23q0-9.21,0-18.42h-11a8.65,8.65,0,0,1-8.65-8.65V38.1a8.65,8.65,0,0,1,8.65-8.65h33.65A8.65,8.65,0,0,1,122.56,38.1Zm-105,8.41A2.71,2.71,0,0,0,19,45.44a3.11,3.11,0,0,0,.51-1.79,3,3,0,0,0-1.25-2.53,5.59,5.59,0,0,0-3.41-.93,5.6,5.6,0,0,0-3.4.93,3,3,0,0,0-1.26,2.53,3.1,3.1,0,0,0,.5,1.75,3,3,0,0,0,1.44,1.11,3,3,0,0,0-1.69,1.07,3.2,3.2,0,0,0-.59,2,3.11,3.11,0,0,0,1.34,2.67,6.16,6.16,0,0,0,3.66,1,6.22,6.22,0,0,0,3.67-1,3.11,3.11,0,0,0,1.34-2.67,3.17,3.17,0,0,0-.59-1.94A3.09,3.09,0,0,0,17.54,46.51ZM14.8,50.68c-1.31,0-2-.47-2-1.4s.65-1.4,2-1.4,2,.46,2,1.4S16.11,50.68,14.8,50.68Zm0-8A1.94,1.94,0,0,1,16,43a1.23,1.23,0,0,1,.39,1,1.27,1.27,0,0,1-.39,1,1.88,1.88,0,0,1-1.21.32,1.83,1.83,0,0,1-1.2-.32,1.24,1.24,0,0,1-.4-1,1.2,1.2,0,0,1,.4-1A1.89,1.89,0,0,1,14.8,42.69Zm12.31,5.17,1.95-1.93a1.07,1.07,0,0,0,.32-.77,1,1,0,0,0-.32-.74,1.05,1.05,0,0,0-1.51,0L25.6,46.36l-1.94-1.94a1,1,0,0,0-.76-.34,1,1,0,0,0-.74.32,1.09,1.09,0,0,0,0,1.53l1.94,1.93L22.15,49.8a1,1,0,0,0-.33.76,1,1,0,0,0,.33.75,1.07,1.07,0,0,0,.75.31,1,1,0,0,0,.76-.31l1.94-1.94,1.95,1.94a1,1,0,0,0,.75.33,1,1,0,0,0,.76-.33,1.1,1.1,0,0,0,0-1.51Zm12.64,2.55H36.13l2.56-2.61a8.27,8.27,0,0,0,1.5-2,4.62,4.62,0,0,0,.44-2,3.27,3.27,0,0,0-.55-1.88,3.42,3.42,0,0,0-1.55-1.26,5.92,5.92,0,0,0-2.34-.44,7.2,7.2,0,0,0-2.08.32,7.09,7.09,0,0,0-1.9.9,1.2,1.2,0,0,0-.44.47,1.54,1.54,0,0,0-.12.65,1.51,1.51,0,0,0,.31,1,.91.91,0,0,0,.75.41.93.93,0,0,0,.34-.06,1.67,1.67,0,0,0,.37-.17l.28-.15.36-.18a8.71,8.71,0,0,1,1-.44,2.93,2.93,0,0,1,1-.15,1.4,1.4,0,0,1,1,.32,1.23,1.23,0,0,1,.35.93,3.47,3.47,0,0,1-1.19,2.29l-3.81,4a2,2,0,0,0-.61,1.4,1.33,1.33,0,0,0,.37,1,1.39,1.39,0,0,0,1,.39h6.57a1.85,1.85,0,0,0,1.18-.32,1.24,1.24,0,0,0,.39-1,1.19,1.19,0,0,0-.39-1A1.85,1.85,0,0,0,39.75,50.41Zm55,1.84h-2V40.87a2.07,2.07,0,0,0-.58-1.56,2.14,2.14,0,0,0-1.55-.58,4,4,0,0,0-2,.6l-3.84,2.24A1.62,1.62,0,0,0,84,43.05a2,2,0,0,0,.48,1.31,1.45,1.45,0,0,0,1.15.59,1.63,1.63,0,0,0,.84-.24l1.92-1.13v8.67H86.43a2.42,2.42,0,0,0-1.59.43,1.63,1.63,0,0,0-.5,1.29c0,1.19.69,1.78,2.09,1.78h8.32c1.39,0,2.09-.59,2.09-1.78a1.63,1.63,0,0,0-.5-1.29A2.42,2.42,0,0,0,94.75,52.25Zm10.76-7.64a4.55,4.55,0,0,0-2,.45A3.86,3.86,0,0,0,102,46.27a6.46,6.46,0,0,1,.9-3.13,2.28,2.28,0,0,1,2-1.12,3.34,3.34,0,0,1,1.1.19,13.56,13.56,0,0,1,1.33.58l.52.26c.31.16.55.28.72.35a1.64,1.64,0,0,0,.6.11,1.26,1.26,0,0,0,1-.52,1.92,1.92,0,0,0,.42-1.26,1.8,1.8,0,0,0-.18-.84,1.94,1.94,0,0,0-.59-.64,7.26,7.26,0,0,0-2.41-1.2,9.23,9.23,0,0,0-2.75-.44,6.51,6.51,0,0,0-3.73,1.08,7,7,0,0,0-2.47,3.09,11.68,11.68,0,0,0-.87,4.69,9.55,9.55,0,0,0,1.84,6.29A6.45,6.45,0,0,0,104.66,56a6.13,6.13,0,0,0,3-.75,5.29,5.29,0,0,0,2.1-2.07,6,6,0,0,0,.76-3,6,6,0,0,0-.66-2.84,5,5,0,0,0-1.81-2A4.87,4.87,0,0,0,105.51,44.61Zm-1.11,8a1.93,1.93,0,0,1-1.49-.63,2.4,2.4,0,0,1-.57-1.65,2.33,2.33,0,0,1,.56-1.65,2.12,2.12,0,0,1,3,0,2.45,2.45,0,0,1,.54,1.67,2.41,2.41,0,0,1-.55,1.66A1.92,1.92,0,0,1,104.4,52.58ZM63.58,87l4.54-4.49a2.49,2.49,0,0,0,.75-1.81A2.21,2.21,0,0,0,68.12,79a2.37,2.37,0,0,0-1.77-.76,2.43,2.43,0,0,0-1.76.76L60.05,83.5,55.52,79a2.48,2.48,0,0,0-1.77-.8,2.18,2.18,0,0,0-1.72.76,2.46,2.46,0,0,0-.76,1.8A2.57,2.57,0,0,0,52,82.49L56.52,87,52,91.52a2.39,2.39,0,0,0-.76,1.76A2.42,2.42,0,0,0,52,95.05a2.6,2.6,0,0,0,1.76.71,2.44,2.44,0,0,0,1.77-.71l4.53-4.54,4.54,4.54a2.41,2.41,0,0,0,1.76.75,2.49,2.49,0,0,0,2.48-2.52,2.32,2.32,0,0,0-.71-1.76Z"/></svg>