<svg id="Layer_1" data-name="Layer 1" xmlns="http://www.w3.org/2000/svg" viewBox="0 0 122.3 122.3"><title>l9_3_1</title><path d="M122.28,40.74V57.4a8.66,8.66,0,0,1-8.66,8.65H99.54l0,22.49a4.52,4.52,0,0,1-1.23,3.35,4.57,4.57,0,0,1-3.43,1.31H76.75v3.74a8.69,8.69,0,0,1-8.69,8.69H51.48a8.7,8.7,0,0,1-8.7-8.69V93.2H24.45A4.42,4.42,0,0,1,21.52,92a4.92,4.92,0,0,1-1.3-3c-.33-2.63-.36-11.2,0-22.91H8.75A8.65,8.65,0,0,1,.1,57.4V40.74a8.66,8.66,0,0,1,8.65-8.66H42.4a8.66,8.66,0,0,1,8.65,8.66V57.4a8.65,8.65,0,0,1-8.65,8.65H28.7q0,9.21.05,18.42h14V80.36a8.7,8.7,0,0,1,8.7-8.69H68.06a8.69,8.69,0,0,1,8.69,8.69v4.11H90.94q0-9.21,0-18.42H80a8.66,8.66,0,0,1-8.66-8.65V40.74A8.66,8.66,0,0,1,80,32.08h33.64A8.66,8.66,0,0,1,122.28,40.74ZM15.4,47.38a4.6,4.6,0,0,0-1.78.32V45.49h3.89q1.56,0,1.56-1.26c0-.83-.52-1.24-1.56-1.24H11.93a1.52,1.52,0,0,0-1.14.4,1.55,1.55,0,0,0-.39,1.15v4.87a1,1,0,0,0,.34.79,1.23,1.23,0,0,0,.84.29,1.73,1.73,0,0,0,.81-.19,6.35,6.35,0,0,1,1-.33,4.88,4.88,0,0,1,1-.09,2,2,0,0,1,1.4.45,1.59,1.59,0,0,1,.51,1.26,1.54,1.54,0,0,1-.49,1.27,2.28,2.28,0,0,1-1.49.41,3,3,0,0,1-1-.17,8.08,8.08,0,0,1-1-.43L12,52.49l-.54-.27a1.42,1.42,0,0,0-.45-.07.91.91,0,0,0-.75.39,1.44,1.44,0,0,0-.31.94,1.32,1.32,0,0,0,.14.62,1.6,1.6,0,0,0,.42.5,6.07,6.07,0,0,0,1.84.9,7.44,7.44,0,0,0,2.19.32,5.82,5.82,0,0,0,2.57-.54,4,4,0,0,0,1.73-1.53,4.23,4.23,0,0,0,.61-2.28,4.37,4.37,0,0,0-.51-2.14,3.71,3.71,0,0,0-1.42-1.44A4.19,4.19,0,0,0,15.4,47.38Zm11.43,3.11,1.94-1.92a1,1,0,0,0,.33-.77.94.94,0,0,0-.33-.74,1,1,0,0,0-.75-.33,1,1,0,0,0-.76.33L25.32,49l-1.95-1.94a1,1,0,0,0-.75-.34.93.93,0,0,0-.74.32,1,1,0,0,0-.32.77,1.13,1.13,0,0,0,.3.76l1.95,1.92-1.95,1.95a1.07,1.07,0,0,0-.32.76,1,1,0,0,0,.32.75,1.09,1.09,0,0,0,.76.31,1,1,0,0,0,.75-.31L25.32,52,27.26,54a1,1,0,0,0,.76.33,1.09,1.09,0,0,0,1.06-1.08,1,1,0,0,0-.31-.76Zm12.64,2.56H35.85l2.55-2.61a8.62,8.62,0,0,0,1.51-2,4.62,4.62,0,0,0,.44-2,3.25,3.25,0,0,0-.55-1.88,3.5,3.5,0,0,0-1.56-1.26,5.68,5.68,0,0,0-2.34-.44,7,7,0,0,0-2.08.32,7.39,7.39,0,0,0-1.9.9,1.28,1.28,0,0,0-.44.47,1.69,1.69,0,0,0-.11.65,1.57,1.57,0,0,0,.3,1,.93.93,0,0,0,.76.4,1,1,0,0,0,.34-.05,1.67,1.67,0,0,0,.37-.17l.28-.15.36-.18a6.81,6.81,0,0,1,1-.44,2.69,2.69,0,0,1,1-.16,1.42,1.42,0,0,1,1,.33,1.21,1.21,0,0,1,.35.93,3.52,3.52,0,0,1-1.19,2.29l-3.82,4a2,2,0,0,0-.61,1.4,1.32,1.32,0,0,0,1.41,1.37h6.57a1.76,1.76,0,0,0,1.17-.33,1.22,1.22,0,0,0,.39-1,1.18,1.18,0,0,0-.39-1A1.82,1.82,0,0,0,39.47,53.05Zm55,.83h-2V42.51A2,2,0,0,0,91.91,41a2.07,2.07,0,0,0-1.54-.58,4.08,4.08,0,0,0-2,.6L84.53,43.2a1.64,1.64,0,0,0-.84,1.49A2,2,0,0,0,84.17,46a1.46,1.46,0,0,0,1.16.59,1.68,1.68,0,0,0,.84-.24l1.92-1.13v8.66h-2a2.37,2.37,0,0,0-1.58.44,1.59,1.59,0,0,0-.51,1.29c0,1.19.7,1.78,2.09,1.78h8.33c1.39,0,2.09-.59,2.09-1.78a1.59,1.59,0,0,0-.51-1.29A2.37,2.37,0,0,0,94.47,53.88Zm9.31,3.72a5.59,5.59,0,0,0,4.8-2.23,10.74,10.74,0,0,0,1.66-6.45,10.65,10.65,0,0,0-1.67-6.44,6.27,6.27,0,0,0-9.59,0,10.73,10.73,0,0,0-1.65,6.44A10.74,10.74,0,0,0,99,55.37,5.61,5.61,0,0,0,103.78,57.6Zm0-3.33A1.71,1.71,0,0,1,102.13,53a11.8,11.8,0,0,1-.51-4.1,11.76,11.76,0,0,1,.51-4.1,1.72,1.72,0,0,1,3.31,0,12,12,0,0,1,.5,4.08,12.1,12.1,0,0,1-.5,4.1A1.73,1.73,0,0,1,103.78,54.27ZM63.3,89.62l4.53-4.49a2.46,2.46,0,0,0,.76-1.81,2.18,2.18,0,0,0-.76-1.72,2.29,2.29,0,0,0-1.76-.76,2.39,2.39,0,0,0-1.76.76l-4.54,4.53L55.23,81.6a2.45,2.45,0,0,0-1.76-.8,2.17,2.17,0,0,0-1.72.76,2.43,2.43,0,0,0-.76,1.8,2.59,2.59,0,0,0,.72,1.77l4.53,4.49-4.53,4.54a2.42,2.42,0,0,0,0,3.52,2.55,2.55,0,0,0,1.76.72,2.37,2.37,0,0,0,1.76-.72l4.54-4.53,4.54,4.53a2.48,2.48,0,0,0,4.24-1.76,2.28,2.28,0,0,0-.72-1.76Z"/></svg>