<svg id="Layer_1" data-name="Layer 1" xmlns="http://www.w3.org/2000/svg" viewBox="0 0 122.3 122.3"><title>l9_3_1</title><path d="M122.43,39.13V49.67a11.74,11.74,0,0,1-11.74,11.74h-11l0,22.52A4.39,4.39,0,0,1,95,88.59H75.23q-4,8.22-8.11,16.42c-.3.53-2.18,3.69-5.28,3.78-3.27.1-5.28-3.28-5.56-3.78L47.46,88.59h-23a4.39,4.39,0,0,1-2.93-1.23,4.9,4.9,0,0,1-1.31-3c-.33-2.64-.36-11.22,0-23H11.81A11.74,11.74,0,0,1,.07,49.67V39.13A11.74,11.74,0,0,1,11.81,27.39H39.36A11.74,11.74,0,0,1,51.1,39.13V49.67A11.74,11.74,0,0,1,39.36,61.41H28.71q0,9.23.05,18.45h14l-3.55-6.62a8.52,8.52,0,0,1-.34-6.46A3.9,3.9,0,0,1,41,64.42l38.86.06a4.19,4.19,0,0,1,2.8,2.81,9.68,9.68,0,0,1,.12,6l-3.27,6.61h11.5q0-9.23,0-18.45H83.14A11.74,11.74,0,0,1,71.4,49.67V39.13A11.74,11.74,0,0,1,83.14,27.39h27.55A11.74,11.74,0,0,1,122.43,39.13ZM64.34,82.7l4.54-4.5a2.45,2.45,0,0,0,.75-1.8,2.23,2.23,0,0,0-.75-1.73,2.36,2.36,0,0,0-1.77-.75,2.41,2.41,0,0,0-1.76.75l-4.54,4.54-4.53-4.54a2.45,2.45,0,0,0-1.77-.79,2.21,2.21,0,0,0-1.72.75A2.49,2.49,0,0,0,52,76.44a2.56,2.56,0,0,0,.71,1.76l4.54,4.5-4.54,4.53a2.43,2.43,0,0,0,0,3.53,2.56,2.56,0,0,0,1.76.71,2.4,2.4,0,0,0,1.77-.71l4.53-4.54,4.54,4.54A2.48,2.48,0,0,0,69.59,89a2.34,2.34,0,0,0-.71-1.77ZM13.05,37.32a4.55,4.55,0,0,0-2.29.56,4.06,4.06,0,0,0-1.58,1.55,4.59,4.59,0,0,0-.56,2.26,4.52,4.52,0,0,0,.49,2.13,3.75,3.75,0,0,0,1.36,1.48,3.7,3.7,0,0,0,1.95.53,3.49,3.49,0,0,0,1.52-.33,2.82,2.82,0,0,0,1.1-.91,4.75,4.75,0,0,1-.67,2.35,1.72,1.72,0,0,1-1.49.84,2.29,2.29,0,0,1-.82-.15,8.76,8.76,0,0,1-1-.43l-.4-.2a6,6,0,0,0-.54-.26,1.25,1.25,0,0,0-.45-.08,1,1,0,0,0-.77.39A1.42,1.42,0,0,0,8.6,48a1.34,1.34,0,0,0,.13.63,1.56,1.56,0,0,0,.45.49A5.84,5.84,0,0,0,11,50a7.24,7.24,0,0,0,2.07.32,4.9,4.9,0,0,0,2.8-.81,5.31,5.31,0,0,0,1.85-2.31,8.7,8.7,0,0,0,.66-3.52A7.2,7.2,0,0,0,17,39,4.83,4.83,0,0,0,13.05,37.32Zm.19,6a1.43,1.43,0,0,1-1.12-.46,1.84,1.84,0,0,1-.41-1.25,1.82,1.82,0,0,1,.42-1.25,1.41,1.41,0,0,1,1.11-.46,1.43,1.43,0,0,1,1.12.47,1.77,1.77,0,0,1,.43,1.24,1.79,1.79,0,0,1-.42,1.24A1.46,1.46,0,0,1,13.24,43.28ZM25.81,45l1.94-1.92a1,1,0,0,0,.33-.77.94.94,0,0,0-.33-.74,1,1,0,0,0-.75-.33,1,1,0,0,0-.76.33L24.3,43.49l-1.95-1.94a1,1,0,0,0-.75-.34.93.93,0,0,0-.74.32,1,1,0,0,0-.33.77,1.14,1.14,0,0,0,.31.76L22.78,45l-1.94,2a1,1,0,0,0-.32.76,1,1,0,0,0,.32.75,1.09,1.09,0,0,0,.76.31,1,1,0,0,0,.75-.31L24.3,46.5l1.94,1.94a1,1,0,0,0,.76.33,1,1,0,0,0,.75-.33,1,1,0,0,0,.31-.75,1,1,0,0,0-.31-.76Zm11.57-1.35a2.9,2.9,0,0,0,1.43-1.08,3,3,0,0,0,.52-1.74A3.2,3.2,0,0,0,38.78,39a3.54,3.54,0,0,0-1.57-1.22,5.94,5.94,0,0,0-2.35-.43,7.05,7.05,0,0,0-2.13.32,6.25,6.25,0,0,0-1.83.9,1.47,1.47,0,0,0-.43.49,1.44,1.44,0,0,0-.13.63,1.5,1.5,0,0,0,.31.94.92.92,0,0,0,.76.39,1.33,1.33,0,0,0,.45-.08l.54-.26.37-.18a8.43,8.43,0,0,1,1-.43,2.71,2.71,0,0,1,1-.17,1.59,1.59,0,0,1,1.1.37,1.36,1.36,0,0,1,.39,1,1,1,0,0,1-.45.91,2.68,2.68,0,0,1-1.44.29h-.79a1,1,0,0,0-.84.38,1.46,1.46,0,0,0,0,1.8,1,1,0,0,0,.84.38h1.12a2.74,2.74,0,0,1,1.47.3,1.14,1.14,0,0,1,.45,1,1.22,1.22,0,0,1-.44,1.08,2.44,2.44,0,0,1-1.45.33,3,3,0,0,1-1-.16,7,7,0,0,1-1-.44l-.22-.1L32.2,47l-.54-.26a1.29,1.29,0,0,0-.45-.08.94.94,0,0,0-.76.39,1.49,1.49,0,0,0-.3.94,1.46,1.46,0,0,0,.12.62,1.41,1.41,0,0,0,.43.5,6,6,0,0,0,1.88.91,8,8,0,0,0,2.25.31,6.59,6.59,0,0,0,2.54-.44,3.78,3.78,0,0,0,1.69-1.25,3.44,3.44,0,0,0,0-3.87A3.14,3.14,0,0,0,37.38,43.63Zm58.05,3.66a1.41,1.41,0,0,0,.88-.29,1.29,1.29,0,0,0,.46-.82,2.26,2.26,0,0,1,.54-1,13.22,13.22,0,0,1,1.21-1.12c.57-.49,1-.92,1.37-1.27a4.61,4.61,0,0,0,.9-1.27,3.67,3.67,0,0,0-.32-3.78,4.68,4.68,0,0,0-1.92-1.49,6.83,6.83,0,0,0-2.78-.54,8.93,8.93,0,0,0-2.78.45,8.35,8.35,0,0,0-2.46,1.23,2.19,2.19,0,0,0-.59.65,1.87,1.87,0,0,0-.17.84,1.91,1.91,0,0,0,.41,1.26,1.32,1.32,0,0,0,1,.52,3,3,0,0,0,1.31-.46l.58-.29a10.12,10.12,0,0,1,1.21-.59,3.22,3.22,0,0,1,1.09-.2,1.61,1.61,0,0,1,1.06.31,1,1,0,0,1,.39.84,1.79,1.79,0,0,1-.28,1,7.31,7.31,0,0,1-.83,1,8.23,8.23,0,0,0-1.2,1.55,3.75,3.75,0,0,0-.43,1.89,1.74,1.74,0,0,0,.35,1.15A1.2,1.2,0,0,0,95.43,47.29Zm0,5.73a2.22,2.22,0,0,0,1.66-.67,2.38,2.38,0,0,0,0-3.31,2.38,2.38,0,0,0-3.31,0,2.41,2.41,0,0,0,0,3.31A2.21,2.21,0,0,0,95.48,53Z"/></svg>