<svg id="Layer_1" data-name="Layer 1" xmlns="http://www.w3.org/2000/svg" viewBox="0 0 122.3 122.3"><title>l9_3_1</title><path d="M122.2,41.65V58.31A8.65,8.65,0,0,1,113.55,67H99.47l0,22.49a4.38,4.38,0,0,1-4.66,4.66H76.68v3.74A8.69,8.69,0,0,1,68,106.54H51.4a8.69,8.69,0,0,1-8.69-8.69V94.11H24.37a4.4,4.4,0,0,1-2.92-1.24,4.94,4.94,0,0,1-1.31-3c-.33-2.64-.36-11.21,0-22.92H8.68A8.65,8.65,0,0,1,0,58.31V41.65A8.65,8.65,0,0,1,8.68,33H42.33A8.65,8.65,0,0,1,51,41.65V58.31A8.65,8.65,0,0,1,42.33,67H28.63q0,9.21,0,18.42h14V81.27a8.69,8.69,0,0,1,8.69-8.69H68a8.69,8.69,0,0,1,8.69,8.69v4.11H90.87q0-9.21,0-18.42h-11a8.65,8.65,0,0,1-8.65-8.65V41.65A8.65,8.65,0,0,1,79.9,33h33.65A8.65,8.65,0,0,1,122.2,41.65ZM15.54,48.24a3.53,3.53,0,0,0-1.53.33,2.82,2.82,0,0,0-1.1.91,4.75,4.75,0,0,1,.67-2.35,1.73,1.73,0,0,1,1.49-.84,2.34,2.34,0,0,1,.83.15,10.66,10.66,0,0,1,1,.43l.39.2a6,6,0,0,0,.54.26,1.25,1.25,0,0,0,.45.08A1,1,0,0,0,19,47a1.42,1.42,0,0,0,.31-.94,1.34,1.34,0,0,0-.13-.63,1.64,1.64,0,0,0-.44-.49,6,6,0,0,0-1.81-.9,7.23,7.23,0,0,0-2.06-.32,4.86,4.86,0,0,0-2.8.81,5.25,5.25,0,0,0-1.86,2.31,8.71,8.71,0,0,0-.65,3.52A7.2,7.2,0,0,0,11,55.1a4.85,4.85,0,0,0,3.93,1.65,4.53,4.53,0,0,0,2.28-.56,4.06,4.06,0,0,0,1.58-1.55,4.88,4.88,0,0,0,.07-4.4,3.65,3.65,0,0,0-3.3-2Zm-.83,6a1.43,1.43,0,0,1-1.12-.47,1.77,1.77,0,0,1-.43-1.24,1.79,1.79,0,0,1,.42-1.24,1.46,1.46,0,0,1,1.13-.47,1.43,1.43,0,0,1,1.12.46,1.84,1.84,0,0,1,.41,1.25,1.82,1.82,0,0,1-.42,1.25A1.39,1.39,0,0,1,14.71,54.21Zm12.06-2.8,1.94-1.93a1,1,0,0,0,.33-.77.94.94,0,0,0-.33-.74,1,1,0,0,0-.75-.33,1,1,0,0,0-.76.33l-1.94,1.94-2-1.94a1,1,0,0,0-.75-.34.93.93,0,0,0-.74.32,1,1,0,0,0-.33.77,1.14,1.14,0,0,0,.31.76l1.94,1.93L21.8,53.35a1,1,0,0,0-.32.76,1,1,0,0,0,.32.75,1.09,1.09,0,0,0,.76.31,1,1,0,0,0,.75-.31l2-1.94,1.94,1.94a1,1,0,0,0,.76.33,1,1,0,0,0,.75-.33,1,1,0,0,0,.31-.75,1,1,0,0,0-.31-.76Zm13.16.52h-.4v-6.5A1.52,1.52,0,0,0,39,44.22a1.72,1.72,0,0,0-1.17-.43,1.91,1.91,0,0,0-.8.19,1.7,1.7,0,0,0-.64.55l-5.14,7.34a2,2,0,0,0-.4,1.19,1.37,1.37,0,0,0,.38,1,1.32,1.32,0,0,0,1,.4h4v.61a1.56,1.56,0,0,0,.44,1.22,1.6,1.6,0,0,0,1.16.42,1.65,1.65,0,0,0,1.17-.42,1.56,1.56,0,0,0,.45-1.22v-.61h.4c1,0,1.56-.43,1.56-1.28S41,51.93,39.93,51.93Zm-5.78,0,2.16-3.12v3.12ZM93.76,55.8H88.94l3.4-3.48a11.38,11.38,0,0,0,2-2.7,6.09,6.09,0,0,0,.59-2.68,4.41,4.41,0,0,0-.74-2.51,4.63,4.63,0,0,0-2.07-1.68A7.79,7.79,0,0,0,89,42.16a9.31,9.31,0,0,0-2.77.44,9,9,0,0,0-2.54,1.2,1.6,1.6,0,0,0-.58.62,1.94,1.94,0,0,0-.16.86,2.09,2.09,0,0,0,.41,1.29,1.22,1.22,0,0,0,1,.54,1.63,1.63,0,0,0,.45-.07,3,3,0,0,0,.49-.23l.38-.21.48-.24a11.38,11.38,0,0,1,1.35-.58,3.79,3.79,0,0,1,1.29-.21,1.93,1.93,0,0,1,1.33.43,1.64,1.64,0,0,1,.47,1.25,4.66,4.66,0,0,1-1.59,3l-5.09,5.3a2.65,2.65,0,0,0-.81,1.88A1.75,1.75,0,0,0,85,59.3h8.76a2.39,2.39,0,0,0,1.57-.43,1.65,1.65,0,0,0,.52-1.35,1.56,1.56,0,0,0-.52-1.3A2.45,2.45,0,0,0,93.76,55.8Zm13.61-5.21a3.59,3.59,0,0,0,1.88-1.42,4.14,4.14,0,0,0,.69-2.4,4,4,0,0,0-1.67-3.37,8.95,8.95,0,0,0-9.09,0,4,4,0,0,0-1.68,3.37,4.06,4.06,0,0,0,.68,2.34,3.85,3.85,0,0,0,1.92,1.48A4,4,0,0,0,97.84,52a4.19,4.19,0,0,0-.79,2.62,4.14,4.14,0,0,0,1.79,3.57,9.94,9.94,0,0,0,9.76,0,4.14,4.14,0,0,0,1.79-3.57,3.94,3.94,0,0,0-3-4Zm-3.65,5.57c-1.74,0-2.62-.63-2.62-1.88s.88-1.87,2.62-1.87,2.62.63,2.62,1.87S105.46,56.16,103.72,56.16Zm0-10.66a2.56,2.56,0,0,1,1.61.42,2,2,0,0,1,0,2.72,3.17,3.17,0,0,1-3.22,0,2,2,0,0,1,0-2.72A2.56,2.56,0,0,1,103.72,45.5Zm-40.5,45L67.76,86a2.5,2.5,0,0,0,.76-1.81,2.22,2.22,0,0,0-.76-1.72A2.31,2.31,0,0,0,66,81.75a2.41,2.41,0,0,0-1.77.76L59.7,87.05l-4.54-4.54a2.45,2.45,0,0,0-1.76-.8,2.2,2.2,0,0,0-1.73.76,2.45,2.45,0,0,0-.75,1.8A2.61,2.61,0,0,0,51.63,86l4.54,4.49-4.54,4.54a2.44,2.44,0,0,0,0,3.52,2.57,2.57,0,0,0,1.77.72,2.38,2.38,0,0,0,1.76-.72l4.54-4.53,4.53,4.53a2.43,2.43,0,0,0,3.53,0,2.36,2.36,0,0,0,.71-1.76,2.28,2.28,0,0,0-.71-1.76Z"/></svg>