<svg id="Layer_1" data-name="Layer 1" xmlns="http://www.w3.org/2000/svg" viewBox="0 0 122.3 122.3"><title>l9_3_1</title><path d="M122.15,39.77V50.31a11.74,11.74,0,0,1-11.74,11.74h-11l0,22.51a4.55,4.55,0,0,1-1.24,3.36,4.49,4.49,0,0,1-3.43,1.31H75q-4.07,8.2-8.12,16.42c-.3.52-2.18,3.69-5.28,3.78-3.26.09-5.27-3.29-5.55-3.78L47.17,89.23h-23A4.46,4.46,0,0,1,21.24,88a5,5,0,0,1-1.31-3c-.33-2.63-.36-11.21,0-22.94H11.53A11.74,11.74,0,0,1-.21,50.31V39.77A11.74,11.74,0,0,1,11.53,28H39.07A11.75,11.75,0,0,1,50.82,39.77V50.31A11.75,11.75,0,0,1,39.07,62.05H28.43q0,9.23.05,18.45h14l-3.56-6.63a8.49,8.49,0,0,1-.33-6.45,3.87,3.87,0,0,1,2.17-2.36l38.86.06a4.19,4.19,0,0,1,2.8,2.81,9.76,9.76,0,0,1,.12,6L79.27,80.5h11.5q0-9.23,0-18.45H82.86A11.74,11.74,0,0,1,71.12,50.31V39.77A11.74,11.74,0,0,1,82.86,28h27.55A11.74,11.74,0,0,1,122.15,39.77ZM64.06,83.33l4.53-4.49A2.45,2.45,0,0,0,69.35,77a2.18,2.18,0,0,0-.76-1.72,2.32,2.32,0,0,0-1.76-.75,2.41,2.41,0,0,0-1.76.75l-4.54,4.54L56,75.31a2.45,2.45,0,0,0-1.76-.8,2.22,2.22,0,0,0-1.72.76,2.45,2.45,0,0,0-.76,1.81,2.57,2.57,0,0,0,.72,1.76L57,83.33l-4.53,4.54a2.43,2.43,0,0,0,0,3.53,2.6,2.6,0,0,0,1.76.71A2.4,2.4,0,0,0,56,91.4l4.54-4.54,4.54,4.54a2.48,2.48,0,0,0,4.24-1.77,2.31,2.31,0,0,0-.72-1.76ZM11.62,48.18H10.14V39.65a1.53,1.53,0,0,0-.44-1.17A1.58,1.58,0,0,0,8.54,38a3.11,3.11,0,0,0-1.49.45L4.17,40.17a1.21,1.21,0,0,0-.63,1.11,1.55,1.55,0,0,0,.36,1,1.08,1.08,0,0,0,.86.44,1.21,1.21,0,0,0,.63-.18l1.44-.85v6.5H5.37a1.86,1.86,0,0,0-1.19.32,1.22,1.22,0,0,0-.37,1c0,.89.52,1.34,1.56,1.34h6.25c1,0,1.56-.45,1.56-1.34a1.22,1.22,0,0,0-.37-1A1.86,1.86,0,0,0,11.62,48.18Zm7,2.79a4.21,4.21,0,0,0,3.6-1.68,8,8,0,0,0,1.24-4.84,7.89,7.89,0,0,0-1.25-4.82A4.2,4.2,0,0,0,18.6,38,4.21,4.21,0,0,0,15,39.63a8,8,0,0,0-1.24,4.82A8,8,0,0,0,15,49.29,4.21,4.21,0,0,0,18.6,51Zm0-2.5a1.29,1.29,0,0,1-1.24-.94A9,9,0,0,1,17,44.45a9,9,0,0,1,.38-3.07,1.29,1.29,0,0,1,2.48,0,8.73,8.73,0,0,1,.38,3.06,8.75,8.75,0,0,1-.38,3.08A1.28,1.28,0,0,1,18.6,48.47Zm12.31-2.85,1.95-1.92a1.1,1.1,0,0,0,.32-.78,1,1,0,0,0-.32-.74,1.05,1.05,0,0,0-1.51,0l-2,2-1.94-2a1.08,1.08,0,0,0-.76-.34,1,1,0,0,0-.74.33,1.06,1.06,0,0,0-.32.77,1.09,1.09,0,0,0,.31.76l1.94,1.92-1.94,2a1,1,0,0,0-.33.75,1,1,0,0,0,.33.76,1.11,1.11,0,0,0,.75.31,1.07,1.07,0,0,0,.76-.31l1.94-1.94,2,1.94a1,1,0,0,0,.75.32,1.07,1.07,0,0,0,.76-.32,1.06,1.06,0,0,0,.3-.76,1,1,0,0,0-.3-.75Zm12.64,2.56H39.93l2.56-2.61a8.11,8.11,0,0,0,1.5-2,4.41,4.41,0,0,0,.44-2,3.25,3.25,0,0,0-.55-1.88,3.42,3.42,0,0,0-1.55-1.26A5.75,5.75,0,0,0,40,38a7.41,7.41,0,0,0-4,1.23,1.08,1.08,0,0,0-.44.47,1.49,1.49,0,0,0-.12.64,1.52,1.52,0,0,0,.31,1,.9.9,0,0,0,.75.4,1.21,1.21,0,0,0,.34,0,2.31,2.31,0,0,0,.37-.17l.28-.16.36-.18a10.82,10.82,0,0,1,1-.44,2.93,2.93,0,0,1,1-.15,1.45,1.45,0,0,1,1,.32,1.2,1.2,0,0,1,.35.94A3.47,3.47,0,0,1,40,44.06l-3.81,4a2,2,0,0,0-.61,1.41,1.36,1.36,0,0,0,.37,1,1.39,1.39,0,0,0,1,.39h6.57a1.79,1.79,0,0,0,1.18-.33,1.23,1.23,0,0,0,.39-1,1.19,1.19,0,0,0-.39-1A1.85,1.85,0,0,0,43.55,48.18Zm51.6-.26a1.39,1.39,0,0,0,.87-.28,1.29,1.29,0,0,0,.47-.82,2.2,2.2,0,0,1,.54-1,10.94,10.94,0,0,1,1.21-1.12c.56-.49,1-.92,1.37-1.27a5,5,0,0,0,.9-1.27,3.58,3.58,0,0,0,.37-1.63,3.51,3.51,0,0,0-.7-2.15,4.64,4.64,0,0,0-1.91-1.49,6.87,6.87,0,0,0-2.79-.54,9.16,9.16,0,0,0-2.77.44,8.62,8.62,0,0,0-2.46,1.24,2.08,2.08,0,0,0-.59.65,1.74,1.74,0,0,0-.18.84,2,2,0,0,0,.42,1.26,1.28,1.28,0,0,0,1,.51,2.93,2.93,0,0,0,1.32-.45l.58-.29A8.79,8.79,0,0,1,94,40a3.18,3.18,0,0,1,1.09-.2,1.63,1.63,0,0,1,1.06.31,1,1,0,0,1,.38.84,1.78,1.78,0,0,1-.27,1,8.11,8.11,0,0,1-.83,1,7.83,7.83,0,0,0-1.2,1.55,3.71,3.71,0,0,0-.43,1.88,1.76,1.76,0,0,0,.34,1.16A1.23,1.23,0,0,0,95.15,47.92Zm0,5.74A2.22,2.22,0,0,0,96.86,53a2.28,2.28,0,0,0,.66-1.66,2.25,2.25,0,0,0-.66-1.65,2.35,2.35,0,0,0-3.31,0,2.25,2.25,0,0,0-.66,1.65A2.28,2.28,0,0,0,93.55,53,2.2,2.2,0,0,0,95.19,53.66Z"/></svg>