<svg id="Layer_1" data-name="Layer 1" xmlns="http://www.w3.org/2000/svg" viewBox="0 0 122.3 122.3"><title>l9_3_1</title><path d="M122.63,39.74V56.41A8.65,8.65,0,0,1,114,65.06H99.9l0,22.48a4.52,4.52,0,0,1-1.24,3.35,4.48,4.48,0,0,1-3.42,1.31H77.11V96a8.69,8.69,0,0,1-8.69,8.69H51.83A8.69,8.69,0,0,1,43.14,96V92.2H24.8A4.43,4.43,0,0,1,21.88,91a5,5,0,0,1-1.31-3c-.33-2.63-.36-11.2,0-22.91H9.11A8.65,8.65,0,0,1,.46,56.41V39.74a8.65,8.65,0,0,1,8.65-8.65H42.75a8.66,8.66,0,0,1,8.66,8.65V56.41a8.66,8.66,0,0,1-8.66,8.65H29.05q0,9.21.05,18.42h14V79.36a8.69,8.69,0,0,1,8.69-8.69H68.42a8.69,8.69,0,0,1,8.69,8.69v4.12H91.3q0-9.21,0-18.42h-11a8.65,8.65,0,0,1-8.65-8.65V39.74a8.65,8.65,0,0,1,8.65-8.65H114A8.65,8.65,0,0,1,122.63,39.74ZM10.91,50h-.4V43.53A1.52,1.52,0,0,0,10,42.32a1.68,1.68,0,0,0-1.17-.43,1.77,1.77,0,0,0-.8.19,1.68,1.68,0,0,0-.64.55L2.27,50a2,2,0,0,0-.4,1.19,1.41,1.41,0,0,0,.38,1,1.35,1.35,0,0,0,1,.39h4v.62a1.61,1.61,0,0,0,.44,1.22,1.6,1.6,0,0,0,1.16.41,1.64,1.64,0,0,0,1.17-.41,1.58,1.58,0,0,0,.45-1.22v-.62h.4c1,0,1.56-.42,1.56-1.27S12,50,10.91,50ZM5.13,50l2.16-3.11V50Zm14.22-.52,1.94-1.92a1.07,1.07,0,0,0,.33-.78,1,1,0,0,0-.33-.74,1,1,0,0,0-.75-.32,1.07,1.07,0,0,0-.76.32L17.84,48l-1.95-1.95a1.08,1.08,0,0,0-.75-.34.94.94,0,0,0-.74.33,1,1,0,0,0-.33.77,1.14,1.14,0,0,0,.31.76l1.94,1.92-1.94,2a1,1,0,0,0-.32.75,1,1,0,0,0,.32.76,1.13,1.13,0,0,0,.76.3,1,1,0,0,0,.75-.3l1.95-2,1.94,2a1.07,1.07,0,0,0,.76.32,1,1,0,0,0,.75-.32,1,1,0,0,0,.31-.76,1,1,0,0,0-.31-.75Zm9.29,5.35a4.21,4.21,0,0,0,3.6-1.68,8.08,8.08,0,0,0,1.24-4.84,8,8,0,0,0-1.25-4.82,4.21,4.21,0,0,0-3.59-1.68A4.18,4.18,0,0,0,25,43.51a8,8,0,0,0-1.25,4.82A8,8,0,0,0,25,53.17,4.18,4.18,0,0,0,28.64,54.85Zm0-2.5a1.31,1.31,0,0,1-1.25-.94A9,9,0,0,1,27,48.33a9,9,0,0,1,.37-3.07,1.3,1.3,0,0,1,2.49,0,9,9,0,0,1,.38,3.06,9,9,0,0,1-.38,3.08A1.3,1.3,0,0,1,28.64,52.35Zm7.84,2.44a1.64,1.64,0,0,0,1.24-.5,1.81,1.81,0,0,0,0-2.48,1.65,1.65,0,0,0-1.24-.51,1.71,1.71,0,0,0-1.74,1.75,1.7,1.7,0,0,0,.49,1.24A1.67,1.67,0,0,0,36.48,54.79ZM48.2,50h-.39V43.53a1.55,1.55,0,0,0-.49-1.21,1.68,1.68,0,0,0-1.17-.43,1.74,1.74,0,0,0-.8.19,1.61,1.61,0,0,0-.64.55L39.56,50a2,2,0,0,0-.39,1.19,1.31,1.31,0,0,0,1.4,1.38h4v.62A1.61,1.61,0,0,0,45,54.38a1.87,1.87,0,0,0,2.34,0,1.58,1.58,0,0,0,.45-1.22v-.62h.39c1,0,1.57-.42,1.57-1.27S49.25,50,48.2,50Zm-5.78,0,2.16-3.11V50Zm54.4.78a1.37,1.37,0,0,0,.87-.28,1.29,1.29,0,0,0,.47-.82,2.2,2.2,0,0,1,.54-1,11.94,11.94,0,0,1,1.21-1.12c.56-.49,1-.92,1.37-1.27a5,5,0,0,0,.9-1.27,3.73,3.73,0,0,0-.32-3.78,4.74,4.74,0,0,0-1.92-1.49,6.87,6.87,0,0,0-2.79-.54,9.21,9.21,0,0,0-2.77.44,8.62,8.62,0,0,0-2.46,1.24,2.08,2.08,0,0,0-.59.65,1.74,1.74,0,0,0-.18.84,2,2,0,0,0,.42,1.26,1.28,1.28,0,0,0,1,.51,2.93,2.93,0,0,0,1.32-.45l.58-.29a8.79,8.79,0,0,1,1.21-.59,3.22,3.22,0,0,1,1.09-.2,1.63,1.63,0,0,1,1.06.31,1,1,0,0,1,.38.84,1.78,1.78,0,0,1-.27,1,8.11,8.11,0,0,1-.83,1,8.23,8.23,0,0,0-1.2,1.55,3.71,3.71,0,0,0-.43,1.88,1.71,1.71,0,0,0,.35,1.16A1.2,1.2,0,0,0,96.82,50.8Zm.05,5.74a2.22,2.22,0,0,0,1.66-.67,2.28,2.28,0,0,0,.66-1.66,2.25,2.25,0,0,0-.66-1.65,2.35,2.35,0,0,0-3.31,0,2.25,2.25,0,0,0-.66,1.65,2.28,2.28,0,0,0,.66,1.66A2.21,2.21,0,0,0,96.87,56.54ZM63.65,88.63l4.54-4.5a2.46,2.46,0,0,0,.76-1.8,2.24,2.24,0,0,0-.76-1.73,2.34,2.34,0,0,0-1.76-.75,2.44,2.44,0,0,0-1.77.75l-4.53,4.54L55.59,80.6a2.44,2.44,0,0,0-1.76-.79,2.23,2.23,0,0,0-1.73.75,2.49,2.49,0,0,0-.75,1.81,2.6,2.6,0,0,0,.71,1.76l4.54,4.5-4.54,4.53a2.45,2.45,0,0,0,0,3.53,2.57,2.57,0,0,0,1.77.72,2.4,2.4,0,0,0,1.76-.72l4.54-4.53,4.53,4.53a2.43,2.43,0,0,0,3.53,0,2.37,2.37,0,0,0,.71-1.76,2.31,2.31,0,0,0-.71-1.77Z"/></svg>