<svg id="Layer_1" data-name="Layer 1" xmlns="http://www.w3.org/2000/svg" viewBox="0 0 122.3 122.3"><title>l9_3_1</title><path d="M122.12,37.79V48.32a11.73,11.73,0,0,1-11.74,11.74h-11l0,22.52a4.48,4.48,0,0,1-1.23,3.36,4.58,4.58,0,0,1-3.43,1.31H74.93l-8.12,16.41c-.3.53-2.18,3.69-5.28,3.78-3.26.1-5.27-3.28-5.56-3.78L47.15,87.25h-23A4.42,4.42,0,0,1,21.22,86a5,5,0,0,1-1.31-3c-.33-2.64-.36-11.22,0-23H11.51A11.73,11.73,0,0,1-.23,48.32V37.79A11.74,11.74,0,0,1,11.51,26H39.05A11.74,11.74,0,0,1,50.79,37.79V48.32A11.73,11.73,0,0,1,39.05,60.06H28.41q0,9.22.05,18.45h14L38.9,71.89a8.51,8.51,0,0,1-.34-6.46,3.91,3.91,0,0,1,2.18-2.36l38.86.06a4.18,4.18,0,0,1,2.79,2.81,9.59,9.59,0,0,1,.12,6c-1.09,2.21-2.17,4.41-3.26,6.61H90.74q0-9.23,0-18.45H82.84A11.73,11.73,0,0,1,71.1,48.32V37.79A11.74,11.74,0,0,1,82.84,26h27.54A11.74,11.74,0,0,1,122.12,37.79ZM64,81.35l4.53-4.5a2.43,2.43,0,0,0,.76-1.8,2.17,2.17,0,0,0-.76-1.72,2.29,2.29,0,0,0-1.76-.76,2.42,2.42,0,0,0-1.77.76l-4.53,4.53L56,73.33a2.42,2.42,0,0,0-1.76-.8,2.19,2.19,0,0,0-1.72.75,2.46,2.46,0,0,0-.76,1.81,2.6,2.6,0,0,0,.71,1.76L57,81.35l-4.54,4.53a2.45,2.45,0,0,0-.75,1.77,2.41,2.41,0,0,0,.75,1.76,2.59,2.59,0,0,0,1.77.72A2.37,2.37,0,0,0,56,89.41l4.54-4.53L65,89.41a2.42,2.42,0,0,0,1.77.76,2.53,2.53,0,0,0,2.48-2.52,2.31,2.31,0,0,0-.72-1.77Zm-47-37.19h-.4v-6.5a1.52,1.52,0,0,0-.48-1.2A1.72,1.72,0,0,0,15,36a1.85,1.85,0,0,0-.8.19,1.7,1.7,0,0,0-.64.55L8.41,44.11A2,2,0,0,0,8,45.29a1.37,1.37,0,0,0,.38,1,1.34,1.34,0,0,0,1,.4h4v.61a1.63,1.63,0,0,0,.44,1.23,1.66,1.66,0,0,0,1.16.41,1.69,1.69,0,0,0,1.17-.41,1.6,1.6,0,0,0,.45-1.23v-.61h.4c1,0,1.57-.43,1.57-1.28S18.09,44.16,17.05,44.16Zm-5.78,0,2.16-3.11v3.11Zm14.22-.52,2-1.93a1.06,1.06,0,0,0,.32-.77,1,1,0,0,0-.32-.74,1,1,0,0,0-.76-.32,1,1,0,0,0-.76.32L24,42.14,22,40.2a1,1,0,0,0-.76-.34,1,1,0,0,0-.74.32,1.1,1.1,0,0,0-.32.78,1.12,1.12,0,0,0,.3.75l1.95,1.93-1.95,1.94a1.07,1.07,0,0,0-.32.76,1,1,0,0,0,.32.75,1.09,1.09,0,0,0,.76.31,1,1,0,0,0,.76-.31L24,45.15l1.94,1.94a1,1,0,0,0,1.52,0,1.1,1.1,0,0,0,0-1.51Zm12.64,2.55H34.51l2.56-2.61a8.62,8.62,0,0,0,1.5-2,4.62,4.62,0,0,0,.44-2,3.27,3.27,0,0,0-.55-1.88,3.58,3.58,0,0,0-1.56-1.26A5.85,5.85,0,0,0,34.56,36a7.31,7.31,0,0,0-2.08.32,7.17,7.17,0,0,0-1.89.9,1.24,1.24,0,0,0-.45.47,1.73,1.73,0,0,0-.11.65,1.57,1.57,0,0,0,.3,1,.94.94,0,0,0,.76.41,1,1,0,0,0,.34-.06,1.67,1.67,0,0,0,.37-.17l.28-.15.36-.18a8,8,0,0,1,1-.44,2.93,2.93,0,0,1,1-.15,1.42,1.42,0,0,1,1,.32,1.24,1.24,0,0,1,.35.94,3.52,3.52,0,0,1-1.19,2.28l-3.81,4a2,2,0,0,0-.62,1.4,1.33,1.33,0,0,0,.38,1,1.37,1.37,0,0,0,1,.39h6.57a1.85,1.85,0,0,0,1.18-.32,1.27,1.27,0,0,0,.38-1,1.22,1.22,0,0,0-.38-1A1.85,1.85,0,0,0,38.13,46.19Zm57-.25a1.41,1.41,0,0,0,.88-.29,1.28,1.28,0,0,0,.47-.81,2.23,2.23,0,0,1,.54-1,11,11,0,0,1,1.21-1.11c.56-.5,1-.92,1.37-1.28a4.83,4.83,0,0,0,.9-1.27,3.68,3.68,0,0,0,.37-1.63,3.53,3.53,0,0,0-.7-2.15,4.69,4.69,0,0,0-1.92-1.49,7,7,0,0,0-2.78-.54,8.87,8.87,0,0,0-2.77.45,8.62,8.62,0,0,0-2.46,1.24,1.94,1.94,0,0,0-.59.64,1.8,1.8,0,0,0-.18.84,1.92,1.92,0,0,0,.42,1.26,1.26,1.26,0,0,0,1,.52,2.92,2.92,0,0,0,1.32-.46l.57-.29A8.69,8.69,0,0,1,94,38a3,3,0,0,1,1.09-.21,1.59,1.59,0,0,1,1.05.32,1,1,0,0,1,.39.84,1.71,1.71,0,0,1-.28,1,7.93,7.93,0,0,1-.83,1,7.64,7.64,0,0,0-1.2,1.55,3.82,3.82,0,0,0-.43,1.88,1.72,1.72,0,0,0,.35,1.15A1.22,1.22,0,0,0,95.12,45.94Zm0,5.73a2.27,2.27,0,0,0,2.33-2.32,2.28,2.28,0,0,0-.66-1.66A2.24,2.24,0,0,0,95.17,47a2.19,2.19,0,0,0-1.64.67,2.28,2.28,0,0,0-.66,1.66A2.25,2.25,0,0,0,93.53,51,2.19,2.19,0,0,0,95.17,51.67Z"/></svg>