<svg id="Layer_1" data-name="Layer 1" xmlns="http://www.w3.org/2000/svg" viewBox="0 0 122.3 122.3"><title>l9_3_1</title><path d="M122.21,38.91V49.45a11.74,11.74,0,0,1-11.74,11.74h-11l0,22.51a4.55,4.55,0,0,1-1.24,3.36,4.49,4.49,0,0,1-3.43,1.31H75L66.9,104.79c-.31.52-2.18,3.69-5.28,3.78-3.27.09-5.28-3.29-5.56-3.78L47.24,88.37h-23a4.43,4.43,0,0,1-2.92-1.23,4.93,4.93,0,0,1-1.31-3c-.33-2.63-.36-11.22,0-22.94H11.59A11.74,11.74,0,0,1-.15,49.45V38.91A11.74,11.74,0,0,1,11.59,27.17H39.14A11.74,11.74,0,0,1,50.88,38.91V49.45A11.74,11.74,0,0,1,39.14,61.19H28.49q0,9.23.05,18.44h14L39,73a8.49,8.49,0,0,1-.33-6.45,3.9,3.9,0,0,1,2.17-2.36l38.86.06a4.16,4.16,0,0,1,2.8,2.81,9.76,9.76,0,0,1,.12,6l-3.27,6.6h11.5q0-9.21,0-18.44H82.92A11.74,11.74,0,0,1,71.18,49.45V38.91A11.74,11.74,0,0,1,82.92,27.17h27.55A11.74,11.74,0,0,1,122.21,38.91ZM64.12,82.47,68.66,78a2.49,2.49,0,0,0,.75-1.81,2.21,2.21,0,0,0-.75-1.72,2.37,2.37,0,0,0-1.77-.76,2.43,2.43,0,0,0-1.76.76L60.59,79l-4.53-4.54a2.48,2.48,0,0,0-1.77-.8,2.18,2.18,0,0,0-1.72.76,2.46,2.46,0,0,0-.76,1.8A2.57,2.57,0,0,0,52.53,78l4.53,4.49L52.53,87a2.39,2.39,0,0,0-.76,1.76,2.42,2.42,0,0,0,.76,1.77,2.6,2.6,0,0,0,1.76.71,2.44,2.44,0,0,0,1.77-.71L60.59,86l4.54,4.54a2.41,2.41,0,0,0,1.76.75,2.49,2.49,0,0,0,2.48-2.52A2.32,2.32,0,0,0,68.66,87Zm-50-40.82a4.65,4.65,0,0,0-1.79.32V39.76h3.89c1,0,1.57-.42,1.57-1.26s-.52-1.24-1.57-1.24H10.68a1.54,1.54,0,0,0-1.13.39,1.55,1.55,0,0,0-.4,1.15v4.88a1,1,0,0,0,.34.79,1.29,1.29,0,0,0,.85.29,1.62,1.62,0,0,0,.81-.2,7.22,7.22,0,0,1,1-.32,5.06,5.06,0,0,1,1-.09,2,2,0,0,1,1.4.45,1.59,1.59,0,0,1,.5,1.26,1.57,1.57,0,0,1-.48,1.27,2.32,2.32,0,0,1-1.5.4,3,3,0,0,1-1-.16,10.82,10.82,0,0,1-1-.43l-.36-.18q-.36-.19-.54-.27a1.18,1.18,0,0,0-.45-.07.94.94,0,0,0-.76.39,1.47,1.47,0,0,0-.3.94,1.32,1.32,0,0,0,.13.62,1.6,1.6,0,0,0,.42.5,6.13,6.13,0,0,0,1.85.9,7.69,7.69,0,0,0,2.19.32,5.82,5.82,0,0,0,2.57-.54A4.09,4.09,0,0,0,17.56,48a4.24,4.24,0,0,0,.61-2.29,4.36,4.36,0,0,0-.51-2.13,3.67,3.67,0,0,0-1.43-1.44A4.13,4.13,0,0,0,14.16,41.65Zm11.43,3.11,1.94-1.92a1.06,1.06,0,0,0,.32-.78.94.94,0,0,0-.32-.74,1,1,0,0,0-.76-.32,1,1,0,0,0-.75.32l-1.95,2-1.94-2a1.08,1.08,0,0,0-.76-.34.92.92,0,0,0-.73.33,1,1,0,0,0-.33.77,1.09,1.09,0,0,0,.31.76l1.94,1.92-1.94,2a1,1,0,0,0-.33.75,1,1,0,0,0,.33.76,1.12,1.12,0,0,0,.75.3,1,1,0,0,0,.76-.3l1.94-1.95L26,48.22a1,1,0,0,0,.75.32,1.08,1.08,0,0,0,1.07-1.08,1,1,0,0,0-.31-.75Zm11.57-1.35a2.92,2.92,0,0,0,1.43-1.09,3,3,0,0,0,.51-1.73,3.12,3.12,0,0,0-.55-1.84A3.39,3.39,0,0,0,37,37.53a5.93,5.93,0,0,0-2.35-.44,7.07,7.07,0,0,0-2.13.33,5.59,5.59,0,0,0-1.83.9,1.45,1.45,0,0,0-.43.48,1.34,1.34,0,0,0-.13.63,1.45,1.45,0,0,0,.31,1,.91.91,0,0,0,.75.39,1.25,1.25,0,0,0,.45-.08c.14-.06.31-.15.54-.27l.38-.18a10.57,10.57,0,0,1,1-.43,2.71,2.71,0,0,1,.95-.16,1.54,1.54,0,0,1,1.1.37,1.36,1.36,0,0,1,.39,1,1,1,0,0,1-.45.92,2.77,2.77,0,0,1-1.44.29h-.79a1.05,1.05,0,0,0-.85.38,1.5,1.5,0,0,0,0,1.8,1.05,1.05,0,0,0,.85.38h1.12a2.74,2.74,0,0,1,1.47.3,1.14,1.14,0,0,1,.45,1,1.27,1.27,0,0,1-.44,1.08,2.47,2.47,0,0,1-1.45.32,3.28,3.28,0,0,1-1-.15,7.62,7.62,0,0,1-1-.44l-.22-.1L32,46.76a4.88,4.88,0,0,0-.55-.26,1.23,1.23,0,0,0-.44-.08.92.92,0,0,0-.76.39,1.42,1.42,0,0,0-.31.94,1.32,1.32,0,0,0,.13.62,1.41,1.41,0,0,0,.43.5,5.92,5.92,0,0,0,1.87.91,8,8,0,0,0,2.25.31,6.84,6.84,0,0,0,2.55-.44,3.69,3.69,0,0,0,1.68-1.25,3.4,3.4,0,0,0,0-3.87A3.07,3.07,0,0,0,37.16,43.41Zm58.05,3.65a1.39,1.39,0,0,0,.87-.28,1.29,1.29,0,0,0,.47-.82,2.2,2.2,0,0,1,.54-1,10.94,10.94,0,0,1,1.21-1.12c.56-.49,1-.92,1.37-1.27a5,5,0,0,0,.9-1.27,3.73,3.73,0,0,0-.32-3.78,4.74,4.74,0,0,0-1.92-1.49,6.87,6.87,0,0,0-2.79-.54,9.16,9.16,0,0,0-2.77.44,8.62,8.62,0,0,0-2.46,1.24,2.08,2.08,0,0,0-.59.65,1.74,1.74,0,0,0-.18.84A2,2,0,0,0,90,40a1.28,1.28,0,0,0,1,.51A2.93,2.93,0,0,0,92.3,40l.58-.29a8.79,8.79,0,0,1,1.21-.59,3.18,3.18,0,0,1,1.09-.2,1.63,1.63,0,0,1,1.06.31,1,1,0,0,1,.38.84,1.78,1.78,0,0,1-.27,1,8.11,8.11,0,0,1-.83,1,8.23,8.23,0,0,0-1.2,1.55,3.71,3.71,0,0,0-.43,1.88,1.76,1.76,0,0,0,.34,1.16A1.23,1.23,0,0,0,95.21,47.06Zm0,5.74a2.22,2.22,0,0,0,1.67-.67,2.28,2.28,0,0,0,.66-1.66,2.25,2.25,0,0,0-.66-1.65,2.35,2.35,0,0,0-3.31,0A2.25,2.25,0,0,0,93,50.47a2.28,2.28,0,0,0,.66,1.66A2.2,2.2,0,0,0,95.25,52.8Z"/></svg>