<svg id="Layer_1" data-name="Layer 1" xmlns="http://www.w3.org/2000/svg" viewBox="0 0 122.3 122.3"><title>l9_3_1</title><path d="M122.33,36.72V47.25A11.74,11.74,0,0,1,110.59,59h-11l0,22.52a4.39,4.39,0,0,1-4.67,4.67H75.13L67,102.59c-.3.53-2.18,3.69-5.28,3.78-3.27.1-5.27-3.28-5.56-3.78L47.36,86.18h-23a4.42,4.42,0,0,1-2.93-1.24,4.9,4.9,0,0,1-1.31-3c-.33-2.64-.36-11.22,0-22.95H11.71A11.74,11.74,0,0,1,0,47.25V36.72A11.74,11.74,0,0,1,11.71,25H39.26A11.74,11.74,0,0,1,51,36.72V47.25A11.74,11.74,0,0,1,39.26,59H28.61q0,9.23.05,18.45h14l-3.55-6.62a8.51,8.51,0,0,1-.34-6.46A4,4,0,0,1,40.94,62l38.86.06a4.19,4.19,0,0,1,2.8,2.81,9.67,9.67,0,0,1,.12,6l-3.27,6.61H91Q91,68.22,91,59H83A11.74,11.74,0,0,1,71.3,47.25V36.72A11.74,11.74,0,0,1,83,25h27.55A11.74,11.74,0,0,1,122.33,36.72ZM64.24,80.28l4.54-4.49A2.49,2.49,0,0,0,69.53,74a2.21,2.21,0,0,0-.75-1.72A2.33,2.33,0,0,0,67,71.5a2.39,2.39,0,0,0-1.76.76l-4.54,4.53-4.53-4.53a2.46,2.46,0,0,0-1.77-.8,2.18,2.18,0,0,0-1.72.76,2.45,2.45,0,0,0-.75,1.8,2.58,2.58,0,0,0,.71,1.77l4.54,4.49-4.54,4.54a2.42,2.42,0,0,0,0,3.52,2.57,2.57,0,0,0,1.76.72,2.41,2.41,0,0,0,1.77-.72l4.53-4.53,4.54,4.53a2.48,2.48,0,0,0,4.24-1.76,2.3,2.3,0,0,0-.71-1.76ZM16.73,45.13H13.12l2.55-2.61a8.64,8.64,0,0,0,1.51-2,4.59,4.59,0,0,0,.44-2,3.37,3.37,0,0,0-.55-1.88,3.64,3.64,0,0,0-1.56-1.26,5.85,5.85,0,0,0-2.34-.44,6.94,6.94,0,0,0-2.08.33,6.79,6.79,0,0,0-1.9.9,1.26,1.26,0,0,0-.44.46,1.54,1.54,0,0,0-.12.65,1.58,1.58,0,0,0,.31,1,.92.92,0,0,0,.76.41,1.27,1.27,0,0,0,.34,0,2.46,2.46,0,0,0,.37-.18l.28-.15.36-.18a8.64,8.64,0,0,1,1-.44,3,3,0,0,1,1-.15,1.46,1.46,0,0,1,1,.32,1.24,1.24,0,0,1,.35.94A3.5,3.5,0,0,1,13.19,41L9.37,45a2,2,0,0,0-.61,1.41,1.37,1.37,0,0,0,.38,1,1.38,1.38,0,0,0,1,.38h6.57a1.77,1.77,0,0,0,1.18-.32,1.24,1.24,0,0,0,.39-1,1.19,1.19,0,0,0-.39-1A1.83,1.83,0,0,0,16.73,45.13Zm9-2.56,1.94-1.93a1,1,0,0,0,.32-.77.93.93,0,0,0-.32-.74,1,1,0,0,0-.76-.32,1,1,0,0,0-.75.32L24.2,41.08l-1.94-1.95a1,1,0,0,0-.76-.34.94.94,0,0,0-.73.32,1.07,1.07,0,0,0,0,1.53l1.94,1.93-1.94,1.94a1,1,0,0,0,0,1.52,1.12,1.12,0,0,0,.75.3,1,1,0,0,0,.76-.3l1.94-2,1.95,2a1,1,0,0,0,.75.32A1.08,1.08,0,0,0,28,45.27a1,1,0,0,0-.31-.76Zm13.1,2.56H37.34V36.59a1.55,1.55,0,0,0-.44-1.17A1.61,1.61,0,0,0,35.74,35a3,3,0,0,0-1.49.45l-2.88,1.68a1.21,1.21,0,0,0-.63,1.11,1.5,1.5,0,0,0,.36,1,1.07,1.07,0,0,0,.86.44,1.21,1.21,0,0,0,.63-.18L34,38.63v6.5H32.57a1.75,1.75,0,0,0-1.18.32,1.19,1.19,0,0,0-.38,1c0,.89.52,1.33,1.56,1.33h6.25c1,0,1.57-.44,1.57-1.33a1.22,1.22,0,0,0-.38-1A1.78,1.78,0,0,0,38.82,45.13Zm56.51-.26a1.41,1.41,0,0,0,.88-.29,1.27,1.27,0,0,0,.46-.81,2.29,2.29,0,0,1,.54-1,11.26,11.26,0,0,1,1.22-1.11c.56-.5,1-.92,1.36-1.27a4.66,4.66,0,0,0,.9-1.28,3.53,3.53,0,0,0,.38-1.63,3.59,3.59,0,0,0-.7-2.15,4.59,4.59,0,0,0-1.92-1.48,6.86,6.86,0,0,0-2.78-.54,8.92,8.92,0,0,0-2.78.44A8.62,8.62,0,0,0,90.43,35a2,2,0,0,0-.58.64,1.8,1.8,0,0,0-.18.84,1.92,1.92,0,0,0,.42,1.26,1.25,1.25,0,0,0,1,.52,2.92,2.92,0,0,0,1.32-.46l.57-.28a8.79,8.79,0,0,1,1.21-.59,3,3,0,0,1,1.1-.21,1.61,1.61,0,0,1,1,.32,1,1,0,0,1,.39.84,1.79,1.79,0,0,1-.28,1,7.93,7.93,0,0,1-.83,1,7.92,7.92,0,0,0-1.2,1.55A3.71,3.71,0,0,0,94,43.31a1.72,1.72,0,0,0,.35,1.15A1.17,1.17,0,0,0,95.33,44.87Zm0,5.74a2.36,2.36,0,0,0,1.67-4A2.29,2.29,0,0,0,95.38,46a2.25,2.25,0,0,0-1.65.67,2.28,2.28,0,0,0-.66,1.66,2.25,2.25,0,0,0,.66,1.65A2.22,2.22,0,0,0,95.38,50.61Z"/></svg>