<svg id="Layer_1" data-name="Layer 1" xmlns="http://www.w3.org/2000/svg" viewBox="0 0 122.3 122.3"><title>l9_4_1</title><path d="M122.21,37.52V54.18a8.66,8.66,0,0,1-8.65,8.66H99.48q0,11.23,0,22.48a4.46,4.46,0,0,1-1.23,3.35A4.53,4.53,0,0,1,94.84,90H76.69v3.75A8.69,8.69,0,0,1,68,102.42H51.41a8.69,8.69,0,0,1-8.69-8.69V90H24.38a4.43,4.43,0,0,1-2.92-1.23,4.9,4.9,0,0,1-1.31-3c-.33-2.63-.36-11.2,0-22.91H8.69A8.66,8.66,0,0,1,0,54.18V37.52a8.66,8.66,0,0,1,8.66-8.65H42.33A8.66,8.66,0,0,1,51,37.52V54.18a8.66,8.66,0,0,1-8.66,8.66H28.63q0,9.21.05,18.42h14V77.14a8.69,8.69,0,0,1,8.69-8.69H68a8.69,8.69,0,0,1,8.69,8.69v4.12H90.88q0-9.21,0-18.42h-11a8.66,8.66,0,0,1-8.65-8.66V37.52a8.65,8.65,0,0,1,8.65-8.65h33.65A8.65,8.65,0,0,1,122.21,37.52ZM15.34,44.17a4.46,4.46,0,0,0-1.78.32V42.28h3.89c1,0,1.57-.42,1.57-1.27s-.53-1.24-1.57-1.24H11.87a1.39,1.39,0,0,0-1.53,1.55V46.2a1,1,0,0,0,.34.78,1.24,1.24,0,0,0,.85.3,1.73,1.73,0,0,0,.81-.2,6.85,6.85,0,0,1,1-.32,5,5,0,0,1,1-.09,2.06,2.06,0,0,1,1.41.45,1.62,1.62,0,0,1,.5,1.26,1.58,1.58,0,0,1-.48,1.27,2.34,2.34,0,0,1-1.5.4,3,3,0,0,1-1-.16,10.82,10.82,0,0,1-1-.43l-.36-.18L11.37,49a1.18,1.18,0,0,0-.45-.07.92.92,0,0,0-.76.38,1.52,1.52,0,0,0-.31,1,1.35,1.35,0,0,0,.14.62,1.57,1.57,0,0,0,.42.49,5.7,5.7,0,0,0,1.85.9,7.34,7.34,0,0,0,2.18.33A5.86,5.86,0,0,0,17,52.07a4.09,4.09,0,0,0,1.73-1.53,4.65,4.65,0,0,0,.1-4.42,3.67,3.67,0,0,0-1.43-1.44A4.16,4.16,0,0,0,15.34,44.17ZM22,48.36H28.7a1,1,0,0,0,.76-.32,1.06,1.06,0,0,0-.76-1.82H22a1,1,0,0,0-.76.31,1.08,1.08,0,0,0-.3.77A1,1,0,0,0,22,48.36ZM25.28,45a1.1,1.1,0,0,0,.82-.35,1.13,1.13,0,0,0,.33-.83,1.16,1.16,0,0,0-1.15-1.15,1.07,1.07,0,0,0-.81.34,1.09,1.09,0,0,0-.32.81,1.12,1.12,0,0,0,.32.83A1.08,1.08,0,0,0,25.28,45Zm0,6.94a1.09,1.09,0,0,0,.82-.34,1.13,1.13,0,0,0,.33-.81,1.16,1.16,0,0,0-.33-.83,1.13,1.13,0,0,0-.82-.34,1.11,1.11,0,0,0-.81.34,1.15,1.15,0,0,0-.32.83,1.12,1.12,0,0,0,.32.82A1.1,1.1,0,0,0,25.28,51.92Zm13.07-6a2.92,2.92,0,0,0,1.43-1.09,3,3,0,0,0,.51-1.74,3.11,3.11,0,0,0-.55-1.83A3.47,3.47,0,0,0,38.18,40a6.12,6.12,0,0,0-2.35-.43,7.07,7.07,0,0,0-2.13.33,5.59,5.59,0,0,0-1.83.9,1.27,1.27,0,0,0-.43.48,1.34,1.34,0,0,0-.13.63,1.47,1.47,0,0,0,.31.95.93.93,0,0,0,.75.38,1.06,1.06,0,0,0,.45-.08,6,6,0,0,0,.54-.26l.38-.18a10.57,10.57,0,0,1,1-.43,2.71,2.71,0,0,1,1-.16,1.52,1.52,0,0,1,1.09.37,1.31,1.31,0,0,1,.4,1,1,1,0,0,1-.45.92,2.77,2.77,0,0,1-1.44.29h-.79a1,1,0,0,0-.85.37,1.52,1.52,0,0,0,0,1.81,1,1,0,0,0,.85.37h1.11a2.74,2.74,0,0,1,1.48.31,1.13,1.13,0,0,1,.45,1,1.27,1.27,0,0,1-.44,1.08,2.57,2.57,0,0,1-1.45.32,3.28,3.28,0,0,1-1-.15,7.62,7.62,0,0,1-1-.44l-.23-.1-.17-.08a4.16,4.16,0,0,0-.54-.26,1.06,1.06,0,0,0-.45-.08.9.9,0,0,0-.75.38,1.47,1.47,0,0,0-.31,1,1.35,1.35,0,0,0,.13.62,1.38,1.38,0,0,0,.43.49,5.72,5.72,0,0,0,1.87.91,8,8,0,0,0,2.25.32,6.88,6.88,0,0,0,2.55-.44A3.76,3.76,0,0,0,40,50.92a3.13,3.13,0,0,0,.6-1.91,3.2,3.2,0,0,0-.61-2A3,3,0,0,0,38.35,45.93Zm52.79,4.74h-2V39.29a2.07,2.07,0,0,0-.59-1.56A2.11,2.11,0,0,0,87,37.16a4.08,4.08,0,0,0-2,.6L81.2,40a1.62,1.62,0,0,0-.84,1.49,2,2,0,0,0,.48,1.3,1.44,1.44,0,0,0,1.16.59,1.68,1.68,0,0,0,.84-.24L84.76,42v8.67h-2a2.37,2.37,0,0,0-1.58.43,1.61,1.61,0,0,0-.51,1.3c0,1.18.7,1.77,2.09,1.77h8.33c1.39,0,2.09-.59,2.09-1.77a1.61,1.61,0,0,0-.51-1.3A2.37,2.37,0,0,0,91.14,50.67Zm5.38,3.65a2.21,2.21,0,0,0,1.64-.68A2.25,2.25,0,0,0,98.82,52a2.28,2.28,0,0,0-.66-1.66,2.38,2.38,0,0,0-3.31,0A2.28,2.28,0,0,0,94.19,52a2.25,2.25,0,0,0,.66,1.65A2.23,2.23,0,0,0,96.52,54.32Zm15.31-17.07h-9.41a2.31,2.31,0,0,0-1.58.45,1.66,1.66,0,0,0-.51,1.33,1.64,1.64,0,0,0,.49,1.29,2.39,2.39,0,0,0,1.6.44h6l-6.17,10.53a2.32,2.32,0,0,0-.33,1.15,1.74,1.74,0,0,0,.64,1.38,2.21,2.21,0,0,0,1.49.57,2,2,0,0,0,1-.28,2.19,2.19,0,0,0,.83-.85l7.27-12.6a3,3,0,0,0,.46-1.58,1.88,1.88,0,0,0-.47-1.31A1.69,1.69,0,0,0,111.83,37.25ZM52.19,87.92H67.73a2.35,2.35,0,0,0,1.76-.73,2.46,2.46,0,0,0,.71-1.79,2.43,2.43,0,0,0-2.47-2.47H52.19a2.38,2.38,0,0,0-1.77.73,2.5,2.5,0,0,0-.71,1.79,2.43,2.43,0,0,0,2.48,2.47ZM59.75,80a2.58,2.58,0,0,0,1.91-.8,2.7,2.7,0,0,0,.77-1.93,2.64,2.64,0,0,0-.77-1.89,2.58,2.58,0,0,0-1.91-.8,2.51,2.51,0,0,0-1.89.78,2.61,2.61,0,0,0-.76,1.91,2.69,2.69,0,0,0,.76,1.93A2.49,2.49,0,0,0,59.75,80Zm0,16.21a2.58,2.58,0,0,0,1.91-.8,2.64,2.64,0,0,0,.77-1.89,2.7,2.7,0,0,0-.77-1.93,2.58,2.58,0,0,0-1.91-.8,2.49,2.49,0,0,0-1.89.8,2.69,2.69,0,0,0-.76,1.93,2.59,2.59,0,0,0,.76,1.91A2.51,2.51,0,0,0,59.75,96.24Z"/></svg>