<svg id="Layer_1" data-name="Layer 1" xmlns="http://www.w3.org/2000/svg" viewBox="0 0 122.3 122.3"><title>l9_4_1</title><path d="M121.84,42.7V59.36A8.65,8.65,0,0,1,113.19,68H99.11l0,22.48a4.55,4.55,0,0,1-1.24,3.36,4.49,4.49,0,0,1-3.42,1.3H76.32V98.9a8.69,8.69,0,0,1-8.69,8.69H51a8.69,8.69,0,0,1-8.69-8.69V95.15H24a4.37,4.37,0,0,1-2.92-1.23,4.94,4.94,0,0,1-1.31-3c-.33-2.63-.36-11.2,0-22.91H8.32A8.65,8.65,0,0,1-.33,59.36V42.7A8.66,8.66,0,0,1,8.32,34H42a8.66,8.66,0,0,1,8.65,8.66V59.36A8.65,8.65,0,0,1,42,68H28.27q0,9.21,0,18.42h14V82.32A8.69,8.69,0,0,1,51,73.62H67.63a8.69,8.69,0,0,1,8.69,8.7v4.11H90.51q0-9.21,0-18.42h-11a8.65,8.65,0,0,1-8.65-8.65V42.7A8.66,8.66,0,0,1,79.54,34h33.65A8.66,8.66,0,0,1,121.84,42.7ZM12,55H8.42L11,52.4a8.11,8.11,0,0,0,1.5-2,4.42,4.42,0,0,0,.45-2,3.32,3.32,0,0,0-.55-1.88,3.5,3.5,0,0,0-1.56-1.26,5.68,5.68,0,0,0-2.34-.44,6.92,6.92,0,0,0-2.08.32,7.39,7.39,0,0,0-1.9.9,1.21,1.21,0,0,0-.44.47,1.51,1.51,0,0,0-.12.65,1.58,1.58,0,0,0,.31,1,.91.91,0,0,0,.76.4,1,1,0,0,0,.34-.05,2.31,2.31,0,0,0,.37-.17A2.11,2.11,0,0,1,6,48.12l.36-.18a8.89,8.89,0,0,1,1-.45,3,3,0,0,1,1-.15,1.42,1.42,0,0,1,1,.33,1.2,1.2,0,0,1,.35.93,3.52,3.52,0,0,1-1.19,2.29l-3.82,4a2,2,0,0,0-.61,1.4,1.32,1.32,0,0,0,1.4,1.37H12a1.77,1.77,0,0,0,1.18-.33,1.22,1.22,0,0,0,.39-1,1.2,1.2,0,0,0-.39-1A1.83,1.83,0,0,0,12,55Zm8.36-5.67a4.65,4.65,0,0,0-1.79.32V47.45h3.89c1.05,0,1.57-.42,1.57-1.26S23.54,45,22.49,45H16.91a1.54,1.54,0,0,0-1.13.39,1.56,1.56,0,0,0-.4,1.16v4.87a1,1,0,0,0,.34.79,1.29,1.29,0,0,0,.85.29,1.73,1.73,0,0,0,.81-.19,6.07,6.07,0,0,1,1-.33,4.88,4.88,0,0,1,1-.09,2,2,0,0,1,1.4.45,1.59,1.59,0,0,1,.5,1.26,1.57,1.57,0,0,1-.48,1.27,2.32,2.32,0,0,1-1.5.41,2.86,2.86,0,0,1-1-.17,8.08,8.08,0,0,1-1-.43L17,54.45q-.36-.2-.54-.27a1.18,1.18,0,0,0-.45-.07.94.94,0,0,0-.76.39,1.47,1.47,0,0,0-.3.94,1.32,1.32,0,0,0,.13.62,1.6,1.6,0,0,0,.42.5,6.25,6.25,0,0,0,1.85.9,7.69,7.69,0,0,0,2.19.32,5.82,5.82,0,0,0,2.57-.54,4.09,4.09,0,0,0,1.73-1.53,4.23,4.23,0,0,0,.61-2.28,4.37,4.37,0,0,0-.51-2.14,3.64,3.64,0,0,0-1.42-1.44A4.19,4.19,0,0,0,20.39,49.34Zm6.69,4.19h6.66a1,1,0,0,0,.76-.31,1.08,1.08,0,0,0,.3-.77,1,1,0,0,0-1.06-1.06H27.08a1,1,0,0,0-.75.32,1.06,1.06,0,0,0,.75,1.82Zm3.24-3.38a1.08,1.08,0,0,0,.82-.34,1.16,1.16,0,0,0,.33-.83,1.13,1.13,0,0,0-.33-.81,1.08,1.08,0,0,0-.82-.34,1.1,1.1,0,0,0-.81.33,1.16,1.16,0,0,0-.32.82,1.2,1.2,0,0,0,.32.83A1.07,1.07,0,0,0,30.32,50.15Zm0,7a1.12,1.12,0,0,0,.82-.34,1.13,1.13,0,0,0,.33-.81,1.15,1.15,0,0,0-.33-.83,1.15,1.15,0,0,0-1.63,0,1.18,1.18,0,0,0-.32.83,1.13,1.13,0,0,0,.32.81A1.07,1.07,0,0,0,30.32,57.1ZM42,49.34a4.65,4.65,0,0,0-1.79.32V47.45h3.89c1,0,1.57-.42,1.57-1.26S45.14,45,44.09,45H38.51a1.54,1.54,0,0,0-1.13.39A1.56,1.56,0,0,0,37,46.5v4.87a1,1,0,0,0,.34.79,1.29,1.29,0,0,0,.85.29,1.73,1.73,0,0,0,.81-.19,6.28,6.28,0,0,1,1-.33,5.06,5.06,0,0,1,1-.09,2,2,0,0,1,1.4.45,1.59,1.59,0,0,1,.5,1.26,1.57,1.57,0,0,1-.48,1.27,2.32,2.32,0,0,1-1.5.41,2.86,2.86,0,0,1-1-.17,8.08,8.08,0,0,1-1-.43l-.36-.18q-.36-.2-.54-.27a1.18,1.18,0,0,0-.45-.07.94.94,0,0,0-.76.39,1.47,1.47,0,0,0-.3.94,1.32,1.32,0,0,0,.13.62,1.6,1.6,0,0,0,.42.5,6.13,6.13,0,0,0,1.85.9,7.69,7.69,0,0,0,2.19.32,5.82,5.82,0,0,0,2.57-.54,4.09,4.09,0,0,0,1.73-1.53A4.23,4.23,0,0,0,46,53.43a4.37,4.37,0,0,0-.51-2.14,3.67,3.67,0,0,0-1.43-1.44A4.13,4.13,0,0,0,42,49.34Zm55.33.94a5.93,5.93,0,0,0-2.37.44v-3h5.18c1.39,0,2.09-.56,2.09-1.68s-.7-1.65-2.09-1.65H92.69a2.05,2.05,0,0,0-1.51.52,2.12,2.12,0,0,0-.53,1.54V53a1.3,1.3,0,0,0,.46,1,1.67,1.67,0,0,0,1.13.39,2.27,2.27,0,0,0,1.08-.26,7.84,7.84,0,0,1,1.38-.43A6.5,6.5,0,0,1,96,53.62a2.73,2.73,0,0,1,1.87.6,2.16,2.16,0,0,1,.67,1.68,2.08,2.08,0,0,1-.65,1.69,3.07,3.07,0,0,1-2,.54,3.79,3.79,0,0,1-1.33-.22,12.58,12.58,0,0,1-1.36-.57l-.48-.24a5.84,5.84,0,0,0-.72-.36,1.71,1.71,0,0,0-.6-.1,1.26,1.26,0,0,0-1,.52,2,2,0,0,0-.4,1.26,1.78,1.78,0,0,0,.17.83,2.14,2.14,0,0,0,.57.66,8.06,8.06,0,0,0,2.46,1.2,10.25,10.25,0,0,0,2.91.43,7.84,7.84,0,0,0,3.44-.72,5.38,5.38,0,0,0,2.3-2,6.13,6.13,0,0,0,.13-5.89A4.79,4.79,0,0,0,100.1,51,5.54,5.54,0,0,0,97.32,50.28ZM51.82,93.1H67.36a2.35,2.35,0,0,0,1.76-.74,2.44,2.44,0,0,0,.72-1.78,2.44,2.44,0,0,0-2.48-2.48H51.82a2.39,2.39,0,0,0-1.77.74,2.48,2.48,0,0,0-.71,1.78,2.44,2.44,0,0,0,2.48,2.48Zm7.56-7.9a2.55,2.55,0,0,0,1.91-.8,2.73,2.73,0,0,0,0-3.82,2.58,2.58,0,0,0-1.91-.8,2.51,2.51,0,0,0-1.89.78,2.62,2.62,0,0,0-.76,1.91,2.67,2.67,0,0,0,.76,1.93A2.46,2.46,0,0,0,59.38,85.2Zm0,16.21a2.57,2.57,0,0,0,1.91-.79,2.62,2.62,0,0,0,.78-1.89,2.69,2.69,0,0,0-.78-1.94A2.57,2.57,0,0,0,59.38,96a2.48,2.48,0,0,0-1.89.79,2.71,2.71,0,0,0-.76,1.94,2.62,2.62,0,0,0,.76,1.91A2.5,2.5,0,0,0,59.38,101.41Z"/></svg>