<svg id="Layer_1" data-name="Layer 1" xmlns="http://www.w3.org/2000/svg" viewBox="0 0 122.3 122.3"><title>l9_4_1</title><path d="M122.31,38.22V54.89a8.65,8.65,0,0,1-8.65,8.65H99.57L99.6,86a4.36,4.36,0,0,1-4.66,4.66H76.78v3.75a8.69,8.69,0,0,1-8.69,8.69H51.51a8.69,8.69,0,0,1-8.69-8.69V90.68H24.48a4.37,4.37,0,0,1-2.92-1.23,4.88,4.88,0,0,1-1.31-3c-.33-2.63-.36-11.2,0-22.91H8.78A8.65,8.65,0,0,1,.13,54.89V38.22a8.66,8.66,0,0,1,8.65-8.65H42.43a8.65,8.65,0,0,1,8.65,8.65V54.89a8.65,8.65,0,0,1-8.65,8.65H28.73q0,9.21.05,18.42h14V77.84a8.69,8.69,0,0,1,8.69-8.69H68.09a8.69,8.69,0,0,1,8.69,8.69V82H91l0-18.42H80a8.65,8.65,0,0,1-8.65-8.65V38.22A8.65,8.65,0,0,1,80,29.57h33.65A8.65,8.65,0,0,1,122.31,38.22ZM13,50.54H11.49V42a1.51,1.51,0,0,0-1.6-1.61,3,3,0,0,0-1.49.46L5.52,42.53a1.22,1.22,0,0,0-.63,1.12,1.52,1.52,0,0,0,.36,1,1.08,1.08,0,0,0,.86.44,1.23,1.23,0,0,0,.63-.18L8.18,44v6.5H6.72a1.86,1.86,0,0,0-1.19.32,1.23,1.23,0,0,0-.38,1c0,.88.53,1.33,1.57,1.33H13c1,0,1.56-.45,1.56-1.33a1.2,1.2,0,0,0-.38-1A1.81,1.81,0,0,0,13,50.54Zm7.86-5.67a4.64,4.64,0,0,0-1.78.32V43h3.89c1,0,1.57-.42,1.57-1.26s-.53-1.24-1.57-1.24H17.36a1.54,1.54,0,0,0-1.13.39,1.56,1.56,0,0,0-.4,1.16V46.9a1,1,0,0,0,.34.79A1.29,1.29,0,0,0,17,48a1.75,1.75,0,0,0,.81-.19,6,6,0,0,1,1-.33,5,5,0,0,1,1-.09,2.06,2.06,0,0,1,1.41.45,1.62,1.62,0,0,1,.5,1.26,1.57,1.57,0,0,1-.48,1.27,2.33,2.33,0,0,1-1.5.41,3,3,0,0,1-1-.17,8.67,8.67,0,0,1-1-.43L17.4,50c-.25-.13-.42-.22-.54-.27a1.2,1.2,0,0,0-.46-.07.93.93,0,0,0-.75.39,1.42,1.42,0,0,0-.31.94,1.32,1.32,0,0,0,.14.62,1.6,1.6,0,0,0,.42.5,6.13,6.13,0,0,0,1.85.9,7.67,7.67,0,0,0,2.18.32,5.89,5.89,0,0,0,2.58-.54,4.09,4.09,0,0,0,1.73-1.53A4.32,4.32,0,0,0,24.85,49a4.27,4.27,0,0,0-.52-2.14,3.58,3.58,0,0,0-1.42-1.44A4.16,4.16,0,0,0,20.83,44.87Zm6.7,4.19h6.66a1,1,0,0,0,.75-.31,1,1,0,0,0,.31-.77,1.06,1.06,0,0,0-1.06-1.06H27.53a1,1,0,0,0-.76.32,1.06,1.06,0,0,0,.76,1.82Zm3.24-3.38a1.09,1.09,0,0,0,.82-.34,1.16,1.16,0,0,0,.33-.83,1.13,1.13,0,0,0-.33-.81,1.16,1.16,0,0,0-1.63,0,1.12,1.12,0,0,0-.32.82,1.15,1.15,0,0,0,.32.83A1.06,1.06,0,0,0,30.77,45.68Zm0,7a1.14,1.14,0,0,0,1.15-1.15,1.15,1.15,0,0,0-.33-.83,1.09,1.09,0,0,0-.82-.34,1.06,1.06,0,0,0-.81.34,1.14,1.14,0,0,0-.32.83,1.09,1.09,0,0,0,.32.81A1.06,1.06,0,0,0,30.77,52.63ZM44.9,50.54H41.28l2.56-2.61a8.37,8.37,0,0,0,1.5-2,4.55,4.55,0,0,0,.44-2A3.25,3.25,0,0,0,45.23,42a3.4,3.4,0,0,0-1.56-1.26,5.68,5.68,0,0,0-2.34-.44,6.86,6.86,0,0,0-2.07.32,7.09,7.09,0,0,0-1.9.9,1.08,1.08,0,0,0-.44.47,1.49,1.49,0,0,0-.12.64,1.52,1.52,0,0,0,.31,1,.9.9,0,0,0,.75.4A1,1,0,0,0,38.2,44a2.31,2.31,0,0,0,.37-.17l.28-.15.36-.18a8.24,8.24,0,0,1,1-.45,2.93,2.93,0,0,1,1-.15,1.45,1.45,0,0,1,1,.32,1.24,1.24,0,0,1,.35.94,3.47,3.47,0,0,1-1.19,2.29l-3.81,4a2,2,0,0,0-.62,1.4,1.32,1.32,0,0,0,1.41,1.37H44.9a1.79,1.79,0,0,0,1.18-.33,1.21,1.21,0,0,0,.38-1,1.19,1.19,0,0,0-.38-1A1.85,1.85,0,0,0,44.9,50.54ZM91,38H81.59A2.31,2.31,0,0,0,80,38.4,2,2,0,0,0,80,41a2.39,2.39,0,0,0,1.6.43h6L81.42,52a2.27,2.27,0,0,0-.33,1.15,1.77,1.77,0,0,0,.64,1.38,2.25,2.25,0,0,0,1.49.56,2.1,2.1,0,0,0,1-.27,2.22,2.22,0,0,0,.83-.86l7.27-12.6a3,3,0,0,0,.46-1.58,1.9,1.9,0,0,0-.47-1.31A1.72,1.72,0,0,0,91,38ZM96.61,55a2.21,2.21,0,0,0,1.65-.67,2.28,2.28,0,0,0,.66-1.66A2.25,2.25,0,0,0,98.26,51,2.35,2.35,0,0,0,95,51a2.25,2.25,0,0,0-.66,1.65A2.28,2.28,0,0,0,95,54.35,2.22,2.22,0,0,0,96.61,55Zm11.64-11.21a6.11,6.11,0,0,0-2.37.43v-3h5.18c1.39,0,2.09-.56,2.09-1.68s-.7-1.65-2.09-1.65h-7.44a2.05,2.05,0,0,0-1.51.52,2.12,2.12,0,0,0-.53,1.54v6.5a1.31,1.31,0,0,0,.46,1,1.67,1.67,0,0,0,1.13.39,2.27,2.27,0,0,0,1.08-.26,7.84,7.84,0,0,1,1.38-.43,6.46,6.46,0,0,1,1.3-.12,2.74,2.74,0,0,1,1.88.6,2.16,2.16,0,0,1,.67,1.68,2.08,2.08,0,0,1-.65,1.69,3.07,3.07,0,0,1-2,.54,3.79,3.79,0,0,1-1.33-.22,12.58,12.58,0,0,1-1.36-.57l-.48-.24a5.84,5.84,0,0,0-.72-.36,1.51,1.51,0,0,0-.6-.1,1.23,1.23,0,0,0-1,.52,2,2,0,0,0-.41,1.26,1.78,1.78,0,0,0,.18.83,2.14,2.14,0,0,0,.57.66,8.06,8.06,0,0,0,2.46,1.2,10.25,10.25,0,0,0,2.91.43,7.84,7.84,0,0,0,3.44-.72,5.38,5.38,0,0,0,2.3-2,6.13,6.13,0,0,0,.13-5.89A4.79,4.79,0,0,0,111,44.5,5.54,5.54,0,0,0,108.25,43.81Zm-56,44.82H67.82a2.39,2.39,0,0,0,1.77-.74,2.48,2.48,0,0,0,.71-1.78,2.43,2.43,0,0,0-2.48-2.48H52.28a2.36,2.36,0,0,0-1.76.74,2.44,2.44,0,0,0-.71,1.78,2.36,2.36,0,0,0,.71,1.76A2.38,2.38,0,0,0,52.28,88.63Zm7.56-7.9a2.52,2.52,0,0,0,1.91-.8A2.65,2.65,0,0,0,62.53,78a2.61,2.61,0,0,0-.78-1.89,2.68,2.68,0,0,0-3.8,0A2.66,2.66,0,0,0,57.2,78,2.7,2.7,0,0,0,58,79.93,2.49,2.49,0,0,0,59.84,80.73Zm0,16.21a2.54,2.54,0,0,0,1.91-.79,2.64,2.64,0,0,0,.78-1.89,2.69,2.69,0,0,0-.78-1.94,2.54,2.54,0,0,0-1.91-.79,2.51,2.51,0,0,0-1.89.79,2.74,2.74,0,0,0-.75,1.94A2.66,2.66,0,0,0,58,96.17,2.53,2.53,0,0,0,59.84,96.94Z"/></svg>