<svg id="Layer_1" data-name="Layer 1" xmlns="http://www.w3.org/2000/svg" viewBox="0 0 122.3 122.3"><title>l9_4_1</title><path d="M122.42,41.16V57.82a8.65,8.65,0,0,1-8.65,8.65H99.69q0,11.25,0,22.48a4.36,4.36,0,0,1-4.66,4.66H76.9v3.75a8.69,8.69,0,0,1-8.69,8.69H51.62a8.69,8.69,0,0,1-8.69-8.69V93.61H24.59a4.37,4.37,0,0,1-2.92-1.23,4.94,4.94,0,0,1-1.31-3c-.33-2.63-.36-11.2,0-22.91H8.9A8.66,8.66,0,0,1,.24,57.82V41.16A8.66,8.66,0,0,1,8.9,32.5H42.54a8.66,8.66,0,0,1,8.66,8.66V57.82a8.66,8.66,0,0,1-8.66,8.65H28.84q0,9.21.05,18.42h14V80.78a8.7,8.7,0,0,1,8.69-8.7H68.21a8.7,8.7,0,0,1,8.69,8.7v4.11H91.09q0-9.21,0-18.42h-11a8.65,8.65,0,0,1-8.65-8.65V41.16a8.66,8.66,0,0,1,8.65-8.66h33.65A8.66,8.66,0,0,1,122.42,41.16ZM13.07,53.47H11.6V44.94a1.55,1.55,0,0,0-.45-1.17A1.57,1.57,0,0,0,10,43.34a3.06,3.06,0,0,0-1.49.45L5.62,45.46A1.22,1.22,0,0,0,5,46.58a1.52,1.52,0,0,0,.36,1,1.09,1.09,0,0,0,.86.44,1.21,1.21,0,0,0,.63-.18L8.28,47v6.5H6.83a1.84,1.84,0,0,0-1.19.32,1.2,1.2,0,0,0-.38,1c0,.88.52,1.33,1.57,1.33h6.24c1,0,1.57-.45,1.57-1.33a1.23,1.23,0,0,0-.38-1A1.84,1.84,0,0,0,13.07,53.47Zm10.33,0H19.78l2.56-2.61a8.11,8.11,0,0,0,1.5-2,4.41,4.41,0,0,0,.44-2A3.32,3.32,0,0,0,23.74,45a3.5,3.5,0,0,0-1.56-1.26,5.68,5.68,0,0,0-2.34-.44,6.88,6.88,0,0,0-2.08.32,7.24,7.24,0,0,0-1.9.9,1.21,1.21,0,0,0-.44.47,1.71,1.71,0,0,0,.19,1.61.9.9,0,0,0,.75.4,1,1,0,0,0,.35-.05,2.31,2.31,0,0,0,.37-.17,2.11,2.11,0,0,1,.28-.15l.36-.18a8.89,8.89,0,0,1,1-.45,3,3,0,0,1,1-.15,1.38,1.38,0,0,1,1,.33,1.17,1.17,0,0,1,.36.93,3.52,3.52,0,0,1-1.19,2.29l-3.82,4a2,2,0,0,0-.61,1.4,1.31,1.31,0,0,0,.38,1,1.35,1.35,0,0,0,1,.39H23.4a1.79,1.79,0,0,0,1.18-.33,1.22,1.22,0,0,0,.39-1,1.2,1.2,0,0,0-.39-1A1.85,1.85,0,0,0,23.4,53.47ZM27.65,52h6.66a1,1,0,0,0,.76-.31,1.08,1.08,0,0,0,.3-.77,1,1,0,0,0-1.06-1.06H27.65a1,1,0,0,0-.76.32A1.06,1.06,0,0,0,27.65,52Zm3.24-3.38a1.08,1.08,0,0,0,.82-.34,1.16,1.16,0,0,0,.33-.83,1.13,1.13,0,0,0-.33-.81,1.08,1.08,0,0,0-.82-.34,1.1,1.1,0,0,0-.81.33,1.12,1.12,0,0,0-.32.82,1.15,1.15,0,0,0,.32.83A1.07,1.07,0,0,0,30.89,48.61Zm0,7a1.12,1.12,0,0,0,.82-.34,1.13,1.13,0,0,0,.33-.81,1.15,1.15,0,0,0-.33-.83,1.15,1.15,0,0,0-1.63,0,1.14,1.14,0,0,0-.32.83,1.09,1.09,0,0,0,.32.81A1.07,1.07,0,0,0,30.89,55.56ZM45,53.47H41.4L44,50.86a8.11,8.11,0,0,0,1.5-2,4.41,4.41,0,0,0,.44-2A3.25,3.25,0,0,0,45.35,45a3.42,3.42,0,0,0-1.55-1.26,5.75,5.75,0,0,0-2.34-.44,6.88,6.88,0,0,0-2.08.32,7.24,7.24,0,0,0-1.9.9,1.14,1.14,0,0,0-.44.47,1.71,1.71,0,0,0,.19,1.61A.9.9,0,0,0,38,47a.93.93,0,0,0,.34-.05,2,2,0,0,0,.37-.17l.28-.15.36-.18a9.8,9.8,0,0,1,1-.45,2.93,2.93,0,0,1,1-.15,1.4,1.4,0,0,1,1,.33,1.16,1.16,0,0,1,.35.93,3.47,3.47,0,0,1-1.19,2.29l-3.81,4a2,2,0,0,0-.61,1.4,1.34,1.34,0,0,0,.37,1,1.39,1.39,0,0,0,1,.39H45a1.79,1.79,0,0,0,1.18-.33,1.22,1.22,0,0,0,.39-1,1.2,1.2,0,0,0-.39-1A1.85,1.85,0,0,0,45,53.47Zm53.15-4.8a4.55,4.55,0,0,0-2,.45,3.77,3.77,0,0,0-1.48,1.21,6.42,6.42,0,0,1,.9-3.13,2.3,2.3,0,0,1,2-1.12,3.2,3.2,0,0,1,1.11.19c.35.13.79.32,1.32.58l.52.26c.31.16.55.28.72.35a1.66,1.66,0,0,0,.61.11,1.26,1.26,0,0,0,1-.52,1.92,1.92,0,0,0,.42-1.26,1.77,1.77,0,0,0-.18-.84,2.14,2.14,0,0,0-.58-.65,7.72,7.72,0,0,0-2.42-1.2,9.2,9.2,0,0,0-2.74-.43,6.52,6.52,0,0,0-3.74,1.08,7.08,7.08,0,0,0-2.47,3.08,11.77,11.77,0,0,0-.87,4.7,9.52,9.52,0,0,0,1.84,6.28A6.44,6.44,0,0,0,97.33,60a6.11,6.11,0,0,0,3-.74,5.41,5.41,0,0,0,2.11-2.08,6.43,6.43,0,0,0,.09-5.85,4.93,4.93,0,0,0-1.81-2A4.87,4.87,0,0,0,98.17,48.67Zm-1.11,8A1.91,1.91,0,0,1,95.57,56,2.36,2.36,0,0,1,95,54.36a2.42,2.42,0,0,1,.56-1.66,2,2,0,0,1,1.5-.62,1.89,1.89,0,0,1,1.5.61,2.45,2.45,0,0,1,.54,1.67A2.37,2.37,0,0,1,98.55,56,1.88,1.88,0,0,1,97.06,56.64ZM52.4,91.56H67.94a2.36,2.36,0,0,0,1.76-.74A2.44,2.44,0,0,0,70.41,89a2.43,2.43,0,0,0-2.47-2.48H52.4a2.39,2.39,0,0,0-1.77.74,2.48,2.48,0,0,0-.71,1.78,2.44,2.44,0,0,0,2.48,2.48ZM60,83.66a2.55,2.55,0,0,0,1.91-.8,2.75,2.75,0,0,0,0-3.82,2.58,2.58,0,0,0-1.91-.8,2.51,2.51,0,0,0-1.89.78,2.62,2.62,0,0,0-.76,1.91,2.67,2.67,0,0,0,.76,1.93A2.46,2.46,0,0,0,60,83.66Zm0,16.21a2.57,2.57,0,0,0,1.91-.79,2.65,2.65,0,0,0,.77-1.89,2.72,2.72,0,0,0-.77-1.94A2.57,2.57,0,0,0,60,94.46a2.48,2.48,0,0,0-1.89.79,2.71,2.71,0,0,0-.76,1.94,2.62,2.62,0,0,0,.76,1.91A2.5,2.5,0,0,0,60,99.87Z"/></svg>