<svg id="Layer_1" data-name="Layer 1" xmlns="http://www.w3.org/2000/svg" viewBox="0 0 122.3 122.3"><title>l9_4_1</title><path d="M122.18,38.77V55.43a8.65,8.65,0,0,1-8.65,8.65H99.44l0,22.49a4.52,4.52,0,0,1-1.23,3.35,4.57,4.57,0,0,1-3.43,1.31H76.65V95A8.69,8.69,0,0,1,68,103.66H51.38A8.69,8.69,0,0,1,42.69,95V91.23H24.35A4.42,4.42,0,0,1,21.42,90a4.92,4.92,0,0,1-1.3-3c-.33-2.64-.36-11.21,0-22.92H8.65A8.65,8.65,0,0,1,0,55.43V38.77a8.66,8.66,0,0,1,8.65-8.66H42.3A8.66,8.66,0,0,1,51,38.77V55.43a8.65,8.65,0,0,1-8.65,8.65H28.6q0,9.21,0,18.42h14V78.39a8.69,8.69,0,0,1,8.69-8.69H68a8.69,8.69,0,0,1,8.69,8.69V82.5H90.84q0-9.21,0-18.42h-11a8.65,8.65,0,0,1-8.65-8.65V38.77a8.66,8.66,0,0,1,8.65-8.66h33.65A8.66,8.66,0,0,1,122.18,38.77ZM18.29,49.05h-.4v-6.5a1.55,1.55,0,0,0-.48-1.21,1.76,1.76,0,0,0-1.17-.43,1.76,1.76,0,0,0-1.44.74L9.65,49a2.07,2.07,0,0,0-.4,1.19,1.37,1.37,0,0,0,.38,1,1.34,1.34,0,0,0,1,.4h4v.61a1.6,1.6,0,0,0,.44,1.22,1.62,1.62,0,0,0,1.16.42,1.65,1.65,0,0,0,1.17-.42,1.56,1.56,0,0,0,.45-1.22v-.61h.4c1,0,1.57-.43,1.57-1.28S19.33,49.05,18.29,49.05Zm-5.78,0,2.16-3.12v3.12Zm9.49.56h6.66a1,1,0,0,0,.75-.32,1,1,0,0,0,.31-.76,1,1,0,0,0-.31-.76,1,1,0,0,0-.75-.31H22a1,1,0,0,0-.76.32,1.06,1.06,0,0,0-.3.76,1,1,0,0,0,.3.76A1.07,1.07,0,0,0,22,49.61Zm3.24-3.39a1.11,1.11,0,0,0,.82-.34,1.15,1.15,0,0,0,.33-.83,1.13,1.13,0,0,0-.33-.81,1.11,1.11,0,0,0-.82-.34,1.07,1.07,0,0,0-.81.33,1.12,1.12,0,0,0-.33.82,1.15,1.15,0,0,0,.33.83A1,1,0,0,0,25.24,46.22Zm0,7a1.11,1.11,0,0,0,.82-.34,1.13,1.13,0,0,0,.33-.81,1.15,1.15,0,0,0-.33-.83,1.11,1.11,0,0,0-.82-.34,1,1,0,0,0-.81.34,1.2,1.2,0,0,0,0,1.65A1.07,1.07,0,0,0,25.24,53.17Zm14.13-2.09H35.75l2.56-2.61a8.83,8.83,0,0,0,1.5-2,4.62,4.62,0,0,0,.44-2,3.25,3.25,0,0,0-.55-1.88,3.45,3.45,0,0,0-1.56-1.26,5.68,5.68,0,0,0-2.34-.44,7.31,7.31,0,0,0-2.08.32,7.17,7.17,0,0,0-1.89.9,1.24,1.24,0,0,0-.45.47,1.69,1.69,0,0,0-.11.65,1.57,1.57,0,0,0,.3,1,.94.94,0,0,0,.76.41,1,1,0,0,0,.34-.06,1.67,1.67,0,0,0,.37-.17l.28-.15.36-.18a8,8,0,0,1,1-.44,2.69,2.69,0,0,1,1-.16,1.42,1.42,0,0,1,1,.33,1.21,1.21,0,0,1,.35.93A3.52,3.52,0,0,1,35.82,47l-3.81,4a2,2,0,0,0-.62,1.4,1.35,1.35,0,0,0,.38,1,1.37,1.37,0,0,0,1,.39h6.57a1.85,1.85,0,0,0,1.18-.32,1.28,1.28,0,0,0,.38-1,1.2,1.2,0,0,0-.38-1A1.85,1.85,0,0,0,39.37,51.08Zm60.52,3H95.07l3.41-3.48a11.58,11.58,0,0,0,2-2.7,6.09,6.09,0,0,0,.59-2.68,4.48,4.48,0,0,0-.73-2.51,4.66,4.66,0,0,0-2.08-1.68,7.79,7.79,0,0,0-3.12-.59,9.31,9.31,0,0,0-2.77.44,8.82,8.82,0,0,0-2.53,1.2,1.56,1.56,0,0,0-.59.62,1.94,1.94,0,0,0-.16.86,2.09,2.09,0,0,0,.41,1.29,1.22,1.22,0,0,0,1,.54,1.63,1.63,0,0,0,.45-.07,3.5,3.5,0,0,0,.5-.23l.37-.21.48-.24a11.38,11.38,0,0,1,1.35-.58A3.84,3.84,0,0,1,95,43.87a1.93,1.93,0,0,1,1.33.43,1.64,1.64,0,0,1,.47,1.25,4.66,4.66,0,0,1-1.59,3.05l-5.08,5.3a2.62,2.62,0,0,0-.82,1.88,1.8,1.8,0,0,0,.5,1.3,1.82,1.82,0,0,0,1.37.52h8.76a2.37,2.37,0,0,0,1.57-.43,1.65,1.65,0,0,0,.52-1.35,1.56,1.56,0,0,0-.52-1.3A2.43,2.43,0,0,0,99.89,54.1ZM52.15,90.17H67.69a2.38,2.38,0,0,0,1.77-.73,2.5,2.5,0,0,0,.71-1.79,2.44,2.44,0,0,0-2.48-2.48H52.15a2.35,2.35,0,0,0-1.76.74,2.44,2.44,0,0,0-.72,1.78,2.44,2.44,0,0,0,2.48,2.48Zm7.56-7.9a2.54,2.54,0,0,0,1.91-.79,2.69,2.69,0,0,0,.78-1.94,2.64,2.64,0,0,0-.78-1.89,2.54,2.54,0,0,0-1.91-.79,2.57,2.57,0,0,0-1.89.77,2.66,2.66,0,0,0-.75,1.91,2.74,2.74,0,0,0,.75,1.94A2.51,2.51,0,0,0,59.71,82.27Zm0,16.22a2.55,2.55,0,0,0,1.91-.8,2.61,2.61,0,0,0,.78-1.89,2.65,2.65,0,0,0-.78-1.93,2.52,2.52,0,0,0-1.91-.8,2.49,2.49,0,0,0-1.89.8,2.7,2.7,0,0,0-.75,1.93,2.66,2.66,0,0,0,.75,1.91A2.54,2.54,0,0,0,59.71,98.49Z"/></svg>