<svg id="Layer_1" data-name="Layer 1" xmlns="http://www.w3.org/2000/svg" viewBox="0 0 122.3 122.3"><title>l9_4_1</title><path d="M122,43V59.63a8.66,8.66,0,0,1-8.66,8.65H99.28l0,22.49a4.38,4.38,0,0,1-4.66,4.66H76.49v3.74a8.69,8.69,0,0,1-8.69,8.69H51.21a8.69,8.69,0,0,1-8.69-8.69V95.43H24.19a4.48,4.48,0,0,1-2.93-1.24,4.94,4.94,0,0,1-1.31-3c-.32-2.63-.36-11.2,0-22.91H8.49A8.65,8.65,0,0,1-.16,59.63V43a8.66,8.66,0,0,1,8.65-8.66H42.14A8.66,8.66,0,0,1,50.79,43V59.63a8.65,8.65,0,0,1-8.65,8.65H28.44q0,9.21,0,18.42h14V82.59a8.7,8.7,0,0,1,8.69-8.7H67.8a8.7,8.7,0,0,1,8.69,8.7V86.7H90.68q0-9.21,0-18.42h-11a8.66,8.66,0,0,1-8.66-8.65V43a8.66,8.66,0,0,1,8.66-8.66h33.64A8.66,8.66,0,0,1,122,43ZM11.15,51.37a2.9,2.9,0,0,0,1.43-1.08,3,3,0,0,0,.52-1.74,3.2,3.2,0,0,0-.55-1.84A3.54,3.54,0,0,0,11,45.49a5.94,5.94,0,0,0-2.35-.43,7.05,7.05,0,0,0-2.13.32,6.25,6.25,0,0,0-1.83.9,1.47,1.47,0,0,0-.43.49,1.41,1.41,0,0,0-.13.63,1.5,1.5,0,0,0,.31.94.93.93,0,0,0,.76.39,1.29,1.29,0,0,0,.45-.08l.54-.26.38-.18a8.85,8.85,0,0,1,1-.44,2.9,2.9,0,0,1,.94-.16,1.59,1.59,0,0,1,1.1.37,1.37,1.37,0,0,1,.4,1,1,1,0,0,1-.46.91,2.65,2.65,0,0,1-1.44.29H7.28a1,1,0,0,0-.84.38,1.46,1.46,0,0,0,0,1.8,1,1,0,0,0,.84.38H8.4a2.8,2.8,0,0,1,1.48.3,1.13,1.13,0,0,1,.44,1,1.22,1.22,0,0,1-.44,1.08,2.44,2.44,0,0,1-1.45.33,3.05,3.05,0,0,1-1-.16,8.19,8.19,0,0,1-1-.44l-.22-.1L6,54.72l-.54-.26A1.25,1.25,0,0,0,5,54.38a.94.94,0,0,0-.76.39,1.49,1.49,0,0,0-.3.94,1.46,1.46,0,0,0,.12.62,1.52,1.52,0,0,0,.43.5,6,6,0,0,0,1.88.91,8,8,0,0,0,2.25.31,6.59,6.59,0,0,0,2.54-.44,3.78,3.78,0,0,0,1.69-1.25,3.44,3.44,0,0,0,0-3.87A3.1,3.1,0,0,0,11.15,51.37Zm8.52,6.7a4.22,4.22,0,0,0,3.6-1.67,8,8,0,0,0,1.24-4.85,8,8,0,0,0-1.25-4.82,4.2,4.2,0,0,0-3.59-1.67,4.17,4.17,0,0,0-3.6,1.67,8,8,0,0,0-1.25,4.82,8,8,0,0,0,1.25,4.85A4.2,4.2,0,0,0,19.67,58.07Zm0-2.5a1.28,1.28,0,0,1-1.24-.94,8.75,8.75,0,0,1-.38-3.08,8.62,8.62,0,0,1,.38-3.06,1.29,1.29,0,0,1,2.48,0,9,9,0,0,1,.38,3.06,9,9,0,0,1-.38,3.08A1.29,1.29,0,0,1,19.67,55.57Zm7.57-1.77H33.9a1,1,0,0,0,.76-.31,1.09,1.09,0,0,0,.31-.77,1,1,0,0,0-.31-.75,1,1,0,0,0-.76-.31H27.24a1,1,0,0,0-.75.32,1.06,1.06,0,0,0,.75,1.82Zm3.24-3.38a1.08,1.08,0,0,0,.82-.34,1.13,1.13,0,0,0,.34-.83,1.1,1.1,0,0,0-.34-.81,1.08,1.08,0,0,0-.82-.34,1.1,1.1,0,0,0-.81.33,1.16,1.16,0,0,0-.32.82,1.2,1.2,0,0,0,.32.83A1.07,1.07,0,0,0,30.48,50.42Zm0,6.95A1.12,1.12,0,0,0,31.3,57a1.1,1.1,0,0,0,.34-.81,1.12,1.12,0,0,0-.34-.83,1.15,1.15,0,0,0-1.63,0,1.22,1.22,0,0,0,0,1.65A1.1,1.1,0,0,0,30.48,57.37Zm13.07-6A2.9,2.9,0,0,0,45,50.29a3,3,0,0,0,.52-1.74A3.2,3.2,0,0,0,45,46.71a3.54,3.54,0,0,0-1.57-1.22A5.94,5.94,0,0,0,41,45.06a7.05,7.05,0,0,0-2.13.32,6.25,6.25,0,0,0-1.83.9,1.47,1.47,0,0,0-.43.49,1.41,1.41,0,0,0-.13.63,1.5,1.5,0,0,0,.31.94.93.93,0,0,0,.76.39,1.33,1.33,0,0,0,.45-.08l.54-.26.37-.18a9.85,9.85,0,0,1,1-.44,2.85,2.85,0,0,1,.94-.16A1.59,1.59,0,0,1,42,48a1.36,1.36,0,0,1,.39,1,1,1,0,0,1-.45.91,2.68,2.68,0,0,1-1.44.29h-.79a1,1,0,0,0-.84.38,1.46,1.46,0,0,0,0,1.8,1,1,0,0,0,.84.38H40.8a2.74,2.74,0,0,1,1.47.3,1.14,1.14,0,0,1,.45,1,1.22,1.22,0,0,1-.44,1.08,2.44,2.44,0,0,1-1.45.33,3,3,0,0,1-1-.16,8.19,8.19,0,0,1-1-.44l-.22-.1-.17-.08-.54-.26a1.25,1.25,0,0,0-.45-.08.94.94,0,0,0-.76.39,1.49,1.49,0,0,0-.3.94,1.46,1.46,0,0,0,.12.62,1.52,1.52,0,0,0,.43.5,6,6,0,0,0,1.88.91,8,8,0,0,0,2.25.31,6.59,6.59,0,0,0,2.54-.44,3.78,3.78,0,0,0,1.69-1.25,3.44,3.44,0,0,0,0-3.87A3.14,3.14,0,0,0,43.55,51.37Zm50.66,6.74h-2V46.74A2,2,0,0,0,90.1,44.6a4.08,4.08,0,0,0-2,.6l-3.84,2.23a1.64,1.64,0,0,0-.84,1.49,2,2,0,0,0,.48,1.31,1.46,1.46,0,0,0,1.15.59,1.63,1.63,0,0,0,.84-.24l1.92-1.13v8.66H85.88a2.37,2.37,0,0,0-1.58.44,1.59,1.59,0,0,0-.51,1.29c0,1.19.7,1.78,2.09,1.78h8.33c1.39,0,2.09-.59,2.09-1.78a1.59,1.59,0,0,0-.51-1.29A2.37,2.37,0,0,0,94.21,58.11Zm9.31,3.72a5.59,5.59,0,0,0,4.8-2.23A10.74,10.74,0,0,0,110,53.15a10.65,10.65,0,0,0-1.67-6.44,6.27,6.27,0,0,0-9.59,0,10.72,10.72,0,0,0-1.66,6.44,10.74,10.74,0,0,0,1.66,6.45A5.59,5.59,0,0,0,103.52,61.83Zm0-3.33a1.73,1.73,0,0,1-1.66-1.25,12.1,12.1,0,0,1-.5-4.1,12.06,12.06,0,0,1,.5-4.1,1.73,1.73,0,0,1,3.32,0,12,12,0,0,1,.5,4.08,12.1,12.1,0,0,1-.5,4.1A1.73,1.73,0,0,1,103.52,58.5ZM52,93.37H67.53a2.35,2.35,0,0,0,1.76-.74A2.44,2.44,0,0,0,70,90.85a2.46,2.46,0,0,0-2.48-2.48H52a2.35,2.35,0,0,0-1.76.74,2.44,2.44,0,0,0-.72,1.78A2.44,2.44,0,0,0,52,93.37Zm7.56-7.9a2.56,2.56,0,0,0,1.91-.79,2.69,2.69,0,0,0,.78-1.94,2.64,2.64,0,0,0-.78-1.89,2.56,2.56,0,0,0-1.91-.79,2.5,2.5,0,0,0-1.89.77,2.67,2.67,0,0,0-.76,1.91,2.75,2.75,0,0,0,.76,1.94A2.48,2.48,0,0,0,59.55,85.47Zm0,16.22a2.57,2.57,0,0,0,1.91-.8A2.61,2.61,0,0,0,62.24,99a2.65,2.65,0,0,0-.78-1.93,2.53,2.53,0,0,0-1.91-.8,2.46,2.46,0,0,0-1.89.8A2.71,2.71,0,0,0,56.9,99a2.67,2.67,0,0,0,.76,1.91A2.51,2.51,0,0,0,59.55,101.69Z"/></svg>