<svg id="Layer_1" data-name="Layer 1" xmlns="http://www.w3.org/2000/svg" viewBox="0 0 122.3 122.3"><title>l9_4_1</title><path d="M122.48,34.47V51.13a8.66,8.66,0,0,1-8.65,8.66H99.75q0,11.24,0,22.48a4.46,4.46,0,0,1-1.23,3.35,4.53,4.53,0,0,1-3.43,1.31H77v3.75a8.7,8.7,0,0,1-8.7,8.69H51.68A8.69,8.69,0,0,1,43,90.68V86.93H24.65a4.43,4.43,0,0,1-2.92-1.23,4.9,4.9,0,0,1-1.31-3c-.33-2.63-.36-11.2,0-22.91H9A8.66,8.66,0,0,1,.3,51.13V34.47A8.66,8.66,0,0,1,9,25.82H42.6a8.66,8.66,0,0,1,8.66,8.65V51.13a8.66,8.66,0,0,1-8.66,8.66H28.9q0,9.21.05,18.42H43V74.09a8.69,8.69,0,0,1,8.69-8.69H68.26A8.7,8.7,0,0,1,77,74.09v4.12H91.15q0-9.21,0-18.42h-11a8.66,8.66,0,0,1-8.65-8.66V34.47a8.65,8.65,0,0,1,8.65-8.65h33.65A8.65,8.65,0,0,1,122.48,34.47ZM13.15,46.79H11.67V38.25a1.55,1.55,0,0,0-.44-1.17,1.61,1.61,0,0,0-1.16-.43,3,3,0,0,0-1.49.45L5.7,38.77a1.24,1.24,0,0,0-.63,1.12,1.5,1.5,0,0,0,.36,1,1.05,1.05,0,0,0,.86.44,1.21,1.21,0,0,0,.63-.18l1.44-.84v6.5H6.9a1.8,1.8,0,0,0-1.19.32,1.22,1.22,0,0,0-.37,1c0,.89.52,1.33,1.56,1.33h6.25c1,0,1.56-.44,1.56-1.33a1.22,1.22,0,0,0-.37-1A1.8,1.8,0,0,0,13.15,46.79Zm9.72-3.91a2.69,2.69,0,0,0,1.41-1.06,3.17,3.17,0,0,0,.51-1.8,3,3,0,0,0-1.25-2.53,5.59,5.59,0,0,0-3.41-.93,5.6,5.6,0,0,0-3.4.93A3,3,0,0,0,15.47,40a3.1,3.1,0,0,0,.5,1.75,3,3,0,0,0,1.44,1.11A3,3,0,0,0,15.72,44a3.2,3.2,0,0,0-.59,2,3.08,3.08,0,0,0,1.34,2.67,6.09,6.09,0,0,0,3.66,1,6.09,6.09,0,0,0,3.66-1,3.17,3.17,0,0,0-.92-5.71Zm-2.74,4.18c-1.31,0-2-.47-2-1.41s.65-1.4,2-1.4,2,.46,2,1.4S21.44,47.06,20.13,47.06Zm0-8a1.94,1.94,0,0,1,1.21.32,1.24,1.24,0,0,1,.39,1,1.25,1.25,0,0,1-.39,1,1.88,1.88,0,0,1-1.21.33,1.83,1.83,0,0,1-1.2-.33,1.22,1.22,0,0,1-.4-1,1.21,1.21,0,0,1,.4-1A1.89,1.89,0,0,1,20.13,39.06Zm7.58,6.25h6.66a1,1,0,0,0,.76-.32,1.06,1.06,0,0,0-.76-1.82H27.71a1,1,0,0,0-.76.31,1.08,1.08,0,0,0-.3.77,1,1,0,0,0,1.06,1.06ZM31,41.93a1.1,1.1,0,0,0,.82-.35,1.13,1.13,0,0,0,.33-.83A1.16,1.16,0,0,0,31,39.6a1.07,1.07,0,0,0-.81.34,1.09,1.09,0,0,0-.32.81,1.12,1.12,0,0,0,.32.83A1.08,1.08,0,0,0,31,41.93Zm0,6.94a1.09,1.09,0,0,0,.82-.34,1.13,1.13,0,0,0,.33-.81,1.16,1.16,0,0,0-.33-.83,1.13,1.13,0,0,0-.82-.34,1.11,1.11,0,0,0-.81.34,1.15,1.15,0,0,0-.32.83A1.11,1.11,0,0,0,31,48.87Zm13.07-6a2.92,2.92,0,0,0,1.43-1.09A3,3,0,0,0,46,40.05a3.11,3.11,0,0,0-.55-1.83A3.53,3.53,0,0,0,43.85,37a6.12,6.12,0,0,0-2.35-.43,7.18,7.18,0,0,0-2.14.33,5.64,5.64,0,0,0-1.82.9,1.27,1.27,0,0,0-.43.48,1.34,1.34,0,0,0-.13.63,1.47,1.47,0,0,0,.31,1,.93.93,0,0,0,.75.38,1.06,1.06,0,0,0,.45-.08,6,6,0,0,0,.54-.26l.38-.18a10.57,10.57,0,0,1,1-.43,2.67,2.67,0,0,1,1-.16,1.52,1.52,0,0,1,1.09.37,1.31,1.31,0,0,1,.4,1,1,1,0,0,1-.45.92,2.77,2.77,0,0,1-1.44.29h-.79a1,1,0,0,0-.85.38A1.39,1.39,0,0,0,39,43a1.44,1.44,0,0,0,.3.91,1,1,0,0,0,.85.37h1.11a2.74,2.74,0,0,1,1.48.31,1.13,1.13,0,0,1,.45,1,1.27,1.27,0,0,1-.44,1.08A2.57,2.57,0,0,1,41.3,47a3.39,3.39,0,0,1-1-.15,8.11,8.11,0,0,1-1-.44l-.23-.1-.17-.08a4.16,4.16,0,0,0-.54-.26,1.06,1.06,0,0,0-.45-.08.9.9,0,0,0-.75.38,1.47,1.47,0,0,0-.31.95,1.35,1.35,0,0,0,.13.62,1.38,1.38,0,0,0,.43.49,5.72,5.72,0,0,0,1.87.91,8,8,0,0,0,2.25.32A6.88,6.88,0,0,0,44,49.12a3.82,3.82,0,0,0,1.68-1.25,3.13,3.13,0,0,0,.6-1.91,3.2,3.2,0,0,0-.61-2A3,3,0,0,0,44,42.88ZM98.23,42a4.54,4.54,0,0,0-2,.44,3.86,3.86,0,0,0-1.48,1.21,6.46,6.46,0,0,1,.9-3.13,2.32,2.32,0,0,1,2-1.12,3.21,3.21,0,0,1,1.11.2,14.18,14.18,0,0,1,1.32.57l.52.27c.31.16.55.27.72.34a1.46,1.46,0,0,0,.6.11,1.28,1.28,0,0,0,1-.51,2,2,0,0,0,.42-1.26,1.74,1.74,0,0,0-.18-.84,2,2,0,0,0-.58-.65,7.83,7.83,0,0,0-2.42-1.2A9.2,9.2,0,0,0,97.39,36a6.52,6.52,0,0,0-3.74,1.08,7.08,7.08,0,0,0-2.47,3.08,11.72,11.72,0,0,0-.87,4.69,9.55,9.55,0,0,0,1.84,6.29,6.47,6.47,0,0,0,5.24,2.21,6.12,6.12,0,0,0,3-.75,5.23,5.23,0,0,0,2.1-2.07,5.93,5.93,0,0,0,.76-3,6,6,0,0,0-.66-2.85,5,5,0,0,0-1.81-2A4.86,4.86,0,0,0,98.23,42Zm-1.11,8a1.93,1.93,0,0,1-1.49-.63,2.69,2.69,0,0,1,0-3.3,1.93,1.93,0,0,1,1.5-.63,1.89,1.89,0,0,1,1.5.62,2.8,2.8,0,0,1,0,3.32A1.87,1.87,0,0,1,97.12,50ZM52.45,84.87H68a2.36,2.36,0,0,0,1.77-.73,2.46,2.46,0,0,0,.71-1.79A2.43,2.43,0,0,0,68,79.88H52.45a2.35,2.35,0,0,0-1.76.73A2.46,2.46,0,0,0,50,82.4a2.43,2.43,0,0,0,2.47,2.47ZM60,77a2.58,2.58,0,0,0,1.91-.8,2.7,2.7,0,0,0,.77-1.93,2.64,2.64,0,0,0-.77-1.89,2.58,2.58,0,0,0-1.91-.8,2.55,2.55,0,0,0-1.9.78,2.64,2.64,0,0,0-.75,1.91,2.72,2.72,0,0,0,.75,1.93A2.53,2.53,0,0,0,60,77Zm0,16.21a2.58,2.58,0,0,0,1.91-.8,2.64,2.64,0,0,0,.77-1.89,2.7,2.7,0,0,0-.77-1.93,2.58,2.58,0,0,0-1.91-.8,2.53,2.53,0,0,0-1.9.8,2.72,2.72,0,0,0-.75,1.93,2.62,2.62,0,0,0,.75,1.91A2.55,2.55,0,0,0,60,93.19Z"/></svg>