<svg id="Layer_1" data-name="Layer 1" xmlns="http://www.w3.org/2000/svg" viewBox="0 0 122.3 122.3"><title>l9_4_1</title><path d="M122.48,38.57V55.23a8.66,8.66,0,0,1-8.65,8.66H99.75q0,11.24,0,22.48a4.46,4.46,0,0,1-1.23,3.35A4.53,4.53,0,0,1,95.11,91H77v3.74a8.7,8.7,0,0,1-8.7,8.7H51.68A8.69,8.69,0,0,1,43,94.77V91H24.65a4.43,4.43,0,0,1-2.92-1.23,4.9,4.9,0,0,1-1.31-3c-.33-2.64-.36-11.2,0-22.91H9A8.66,8.66,0,0,1,.3,55.23V38.57A8.66,8.66,0,0,1,9,29.92H42.6a8.66,8.66,0,0,1,8.66,8.65V55.23a8.66,8.66,0,0,1-8.66,8.66H28.9q0,9.21.05,18.41H43V78.19a8.69,8.69,0,0,1,8.69-8.69H68.26A8.7,8.7,0,0,1,77,78.19V82.3H91.15q0-9.19,0-18.41h-11a8.66,8.66,0,0,1-8.65-8.66V38.57a8.65,8.65,0,0,1,8.65-8.65h33.65A8.65,8.65,0,0,1,122.48,38.57ZM13.14,50.88H11.66V42.35a1.55,1.55,0,0,0-.44-1.17,1.57,1.57,0,0,0-1.16-.43,3,3,0,0,0-1.49.45L5.69,42.87A1.24,1.24,0,0,0,5.06,44a1.5,1.5,0,0,0,.36,1,1.07,1.07,0,0,0,.86.44,1.21,1.21,0,0,0,.63-.18l1.44-.84v6.49H6.89a1.8,1.8,0,0,0-1.19.33,1.2,1.2,0,0,0-.37,1c0,.89.52,1.33,1.56,1.33h6.25c1,0,1.56-.44,1.56-1.33a1.2,1.2,0,0,0-.37-1A1.8,1.8,0,0,0,13.14,50.88Zm10.33,0H19.85l2.56-2.61a8.08,8.08,0,0,0,1.5-2,4.49,4.49,0,0,0,.44-2,3.27,3.27,0,0,0-.55-1.88,3.55,3.55,0,0,0-1.55-1.26,5.92,5.92,0,0,0-2.34-.44,7.29,7.29,0,0,0-4,1.22,1.2,1.2,0,0,0-.44.47,1.54,1.54,0,0,0-.12.65,1.51,1.51,0,0,0,.31,1,.91.91,0,0,0,.75.41.93.93,0,0,0,.34-.06,1.49,1.49,0,0,0,.37-.17l.28-.15.36-.18a9.5,9.5,0,0,1,1-.44,2.93,2.93,0,0,1,1-.15,1.38,1.38,0,0,1,1,.32,1.2,1.2,0,0,1,.35.94,3.48,3.48,0,0,1-1.19,2.28l-3.81,4a2,2,0,0,0-.61,1.4,1.33,1.33,0,0,0,.37,1,1.39,1.39,0,0,0,1,.39h6.57a1.85,1.85,0,0,0,1.18-.32,1.24,1.24,0,0,0,.39-1,1.19,1.19,0,0,0-.39-1A1.85,1.85,0,0,0,23.47,50.88Zm4.25-1.47h6.66a1,1,0,0,0,.75-.32,1.06,1.06,0,0,0-.75-1.82H27.72a1,1,0,0,0-.76.31,1.08,1.08,0,0,0-.3.77,1,1,0,0,0,1.06,1.06ZM31,46a1.09,1.09,0,0,0,.82-.34,1.15,1.15,0,0,0,.33-.83A1.14,1.14,0,0,0,31,43.7a1.07,1.07,0,0,0-.81.33,1.2,1.2,0,0,0,0,1.65A1,1,0,0,0,31,46ZM31,53a1.09,1.09,0,0,0,.82-.34,1.13,1.13,0,0,0,.33-.81,1.16,1.16,0,0,0-.33-.83,1.09,1.09,0,0,0-.82-.34,1,1,0,0,0-.81.34,1.16,1.16,0,0,0-.33.83,1.12,1.12,0,0,0,.33.82A1.07,1.07,0,0,0,31,53Zm13.52-6a2.75,2.75,0,0,0,1.41-1.06,3.17,3.17,0,0,0,.51-1.8,3,3,0,0,0-1.25-2.53,5.59,5.59,0,0,0-3.41-.93,5.6,5.6,0,0,0-3.4.93,3,3,0,0,0-1.26,2.53,3.1,3.1,0,0,0,.5,1.75A3,3,0,0,0,39,47a3,3,0,0,0-1.69,1.07,3.14,3.14,0,0,0-.59,2,3.08,3.08,0,0,0,1.34,2.67,6.09,6.09,0,0,0,3.66,1,6.09,6.09,0,0,0,3.66-1A3.08,3.08,0,0,0,46.74,50a3.12,3.12,0,0,0-.58-1.93A3.05,3.05,0,0,0,44.48,47Zm-2.74,4.17c-1.31,0-2-.46-2-1.4s.65-1.4,2-1.4,2,.46,2,1.4S43.05,51.15,41.74,51.15Zm0-8a1.94,1.94,0,0,1,1.21.32,1.23,1.23,0,0,1,.39,1,1.27,1.27,0,0,1-.39,1,2.45,2.45,0,0,1-2.42,0,1.27,1.27,0,0,1-.39-1,1.23,1.23,0,0,1,.39-1A1.94,1.94,0,0,1,41.74,43.16Zm49.67,8.56h-2V40.34a2.07,2.07,0,0,0-.59-1.56,2.11,2.11,0,0,0-1.54-.57,4.08,4.08,0,0,0-2,.6L81.47,41a1.62,1.62,0,0,0-.84,1.49,2,2,0,0,0,.48,1.3,1.44,1.44,0,0,0,1.16.59,1.68,1.68,0,0,0,.84-.24L85,43.05v8.67h-2a2.37,2.37,0,0,0-1.58.43,1.61,1.61,0,0,0-.51,1.3c0,1.18.7,1.77,2.09,1.77h8.33c1.39,0,2.09-.59,2.09-1.77a1.61,1.61,0,0,0-.51-1.3A2.37,2.37,0,0,0,91.41,51.72Zm5.38,3.65a2.21,2.21,0,0,0,1.64-.68A2.25,2.25,0,0,0,99.09,53a2.28,2.28,0,0,0-.66-1.66,2.38,2.38,0,0,0-3.31,0A2.28,2.28,0,0,0,94.46,53a2.25,2.25,0,0,0,.66,1.65A2.23,2.23,0,0,0,96.79,55.37Zm11.64-11.21a6,6,0,0,0-2.38.43v-3h5.18c1.4,0,2.09-.56,2.09-1.68s-.69-1.66-2.09-1.66h-7.44a2.06,2.06,0,0,0-1.51.53,2.08,2.08,0,0,0-.53,1.54v6.5a1.29,1.29,0,0,0,.46,1,1.63,1.63,0,0,0,1.13.4,2.39,2.39,0,0,0,1.08-.26,8.25,8.25,0,0,1,1.38-.44,6.57,6.57,0,0,1,1.31-.12,2.73,2.73,0,0,1,1.87.6,2.13,2.13,0,0,1,.67,1.68,2.1,2.1,0,0,1-.65,1.7,3.07,3.07,0,0,1-2,.54,4.08,4.08,0,0,1-1.33-.22,12.82,12.82,0,0,1-1.36-.58l-.48-.24-.72-.36a1.72,1.72,0,0,0-.6-.09,1.25,1.25,0,0,0-1,.51,2,2,0,0,0-.4,1.26,1.92,1.92,0,0,0,.17.83,2.14,2.14,0,0,0,.57.66,8.06,8.06,0,0,0,2.46,1.2,9.93,9.93,0,0,0,2.92.43,7.82,7.82,0,0,0,3.43-.72,5.38,5.38,0,0,0,2.3-2,5.69,5.69,0,0,0,.82-3,5.75,5.75,0,0,0-.69-2.85,4.91,4.91,0,0,0-1.89-1.92A5.6,5.6,0,0,0,108.43,44.16ZM52.45,89H68a2.36,2.36,0,0,0,1.77-.73,2.46,2.46,0,0,0,.71-1.79A2.44,2.44,0,0,0,68,84H52.45a2.36,2.36,0,0,0-1.76.74A2.45,2.45,0,0,0,50,86.49,2.43,2.43,0,0,0,52.45,89ZM60,81.08a2.58,2.58,0,0,0,1.91-.8,2.7,2.7,0,0,0,.77-1.93,2.64,2.64,0,0,0-.77-1.89,2.58,2.58,0,0,0-1.91-.8,2.55,2.55,0,0,0-1.9.78,2.62,2.62,0,0,0-.75,1.91,2.72,2.72,0,0,0,.75,1.93A2.53,2.53,0,0,0,60,81.08Zm0,16.21a2.58,2.58,0,0,0,1.91-.8,2.64,2.64,0,0,0,.77-1.89,2.68,2.68,0,0,0-.77-1.93,2.58,2.58,0,0,0-1.91-.8,2.53,2.53,0,0,0-1.9.8,2.7,2.7,0,0,0-.75,1.93,2.64,2.64,0,0,0,.75,1.91A2.55,2.55,0,0,0,60,97.29Z"/></svg>