<svg id="Layer_1" data-name="Layer 1" xmlns="http://www.w3.org/2000/svg" viewBox="0 0 122.3 122.3"><title>l9_4_1</title><path d="M121.77,42.21V58.88a8.65,8.65,0,0,1-8.65,8.65H99q0,11.23,0,22.48a4.37,4.37,0,0,1-4.66,4.66H76.25v3.75a8.69,8.69,0,0,1-8.69,8.69H51a8.69,8.69,0,0,1-8.69-8.69V94.67H23.94A4.43,4.43,0,0,1,21,93.44a4.9,4.9,0,0,1-1.31-3c-.33-2.63-.36-11.2,0-22.91H8.25A8.66,8.66,0,0,1-.41,58.88V42.21a8.66,8.66,0,0,1,8.66-8.65H41.89a8.66,8.66,0,0,1,8.66,8.65V58.88a8.66,8.66,0,0,1-8.66,8.65H28.19q0,9.21,0,18.42h14V81.83A8.69,8.69,0,0,1,51,73.14H67.56a8.69,8.69,0,0,1,8.69,8.69V86H90.44q0-9.21,0-18.42h-11a8.65,8.65,0,0,1-8.65-8.65V42.21a8.65,8.65,0,0,1,8.65-8.65h33.65A8.65,8.65,0,0,1,121.77,42.21ZM12,54.53H8.34l2.55-2.61a8.29,8.29,0,0,0,1.5-2,4.43,4.43,0,0,0,.45-2A3.37,3.37,0,0,0,12.29,46a3.64,3.64,0,0,0-1.56-1.26,5.85,5.85,0,0,0-2.34-.44,6.89,6.89,0,0,0-2.08.33,6.66,6.66,0,0,0-1.9.9A1.19,1.19,0,0,0,4,46a1.73,1.73,0,0,0,.19,1.62.9.9,0,0,0,.76.4,1.33,1.33,0,0,0,.34,0l.37-.17.28-.16.35-.18a9.5,9.5,0,0,1,1-.44,3,3,0,0,1,1-.15,1.42,1.42,0,0,1,1,.32,1.2,1.2,0,0,1,.35.94A3.48,3.48,0,0,1,8.41,50.4l-3.82,4A2,2,0,0,0,4,55.79a1.33,1.33,0,0,0,.38,1,1.34,1.34,0,0,0,1,.38H12a1.79,1.79,0,0,0,1.18-.32,1.24,1.24,0,0,0,.39-1,1.19,1.19,0,0,0-.39-1A1.85,1.85,0,0,0,12,54.53Zm7.47,2.79A4.21,4.21,0,0,0,23,55.64a8,8,0,0,0,1.24-4.84A7.89,7.89,0,0,0,23,46a4.2,4.2,0,0,0-3.59-1.68A4.21,4.21,0,0,0,15.82,46a8,8,0,0,0-1.24,4.82,8.08,8.08,0,0,0,1.24,4.84A4.21,4.21,0,0,0,19.42,57.32Zm0-2.51a1.29,1.29,0,0,1-1.24-.93,9,9,0,0,1-.38-3.08,8.92,8.92,0,0,1,.38-3.07,1.29,1.29,0,0,1,1.24-.93,1.31,1.31,0,0,1,1.25.94A9,9,0,0,1,21,50.8a9.08,9.08,0,0,1-.37,3.08A1.3,1.3,0,0,1,19.42,54.81ZM27,53.05h6.66a1,1,0,0,0,.76-.31,1.08,1.08,0,0,0,.3-.77,1,1,0,0,0-1.06-1.06H27a1,1,0,0,0-.76.31,1.08,1.08,0,0,0-.3.77A1,1,0,0,0,27,53.05Zm3.24-3.38a1.1,1.1,0,0,0,.82-.35,1.12,1.12,0,0,0,.33-.82,1.14,1.14,0,1,0-2.28,0,1.12,1.12,0,0,0,.32.82A1.08,1.08,0,0,0,30.24,49.67Zm0,6.94a1.09,1.09,0,0,0,.82-.34,1.13,1.13,0,0,0,.33-.81,1.16,1.16,0,0,0-.33-.83,1.13,1.13,0,0,0-.82-.34,1.11,1.11,0,0,0-.81.34,1.15,1.15,0,0,0-.32.83,1.11,1.11,0,0,0,1.13,1.15Zm14.13-2.08H40.75l2.56-2.61a8.29,8.29,0,0,0,1.5-2,4.56,4.56,0,0,0,.44-2A3.29,3.29,0,0,0,44.7,46a3.55,3.55,0,0,0-1.55-1.26,5.92,5.92,0,0,0-2.34-.44,6.89,6.89,0,0,0-2.08.33,6.53,6.53,0,0,0-1.9.9,1.19,1.19,0,0,0-.44.46,1.73,1.73,0,0,0,.19,1.62.9.9,0,0,0,.75.4,1.21,1.21,0,0,0,.34,0,2.92,2.92,0,0,0,.37-.17l.28-.16.36-.18a9.5,9.5,0,0,1,1-.44,2.93,2.93,0,0,1,1-.15,1.45,1.45,0,0,1,1,.32,1.2,1.2,0,0,1,.35.94,3.46,3.46,0,0,1-1.19,2.28l-3.81,4a2,2,0,0,0-.61,1.41,1.36,1.36,0,0,0,.37,1,1.38,1.38,0,0,0,1,.38h6.57a1.79,1.79,0,0,0,1.18-.32,1.24,1.24,0,0,0,.39-1,1.19,1.19,0,0,0-.39-1A1.85,1.85,0,0,0,44.37,54.53ZM94,57.36H92V46a2,2,0,0,0-2.14-2.13,4.05,4.05,0,0,0-2,.6L84,46.68a1.63,1.63,0,0,0-.84,1.49,2,2,0,0,0,.48,1.31,1.43,1.43,0,0,0,1.15.58,1.63,1.63,0,0,0,.84-.24l1.92-1.12v8.66H85.64a2.42,2.42,0,0,0-1.59.43,1.64,1.64,0,0,0-.5,1.3c0,1.18.69,1.77,2.09,1.77H94c1.4,0,2.09-.59,2.09-1.77a1.64,1.64,0,0,0-.5-1.3A2.42,2.42,0,0,0,94,57.36Zm9.32,3.72a5.62,5.62,0,0,0,4.8-2.23,10.75,10.75,0,0,0,1.65-6.46c0-2.8-.55-4.94-1.67-6.43a6.26,6.26,0,0,0-9.58,0,10.62,10.62,0,0,0-1.66,6.43q0,4.23,1.66,6.46A5.59,5.59,0,0,0,103.28,61.08Zm0-3.34a1.72,1.72,0,0,1-1.66-1.24,11.92,11.92,0,0,1-.5-4.11,11.75,11.75,0,0,1,.5-4.09,1.72,1.72,0,0,1,3.31,0,11.71,11.71,0,0,1,.51,4.08,11.86,11.86,0,0,1-.51,4.11A1.71,1.71,0,0,1,103.28,57.74ZM51.75,92.62H67.29a2.36,2.36,0,0,0,1.76-.74,2.44,2.44,0,0,0,.71-1.78,2.43,2.43,0,0,0-2.47-2.48H51.75a2.38,2.38,0,0,0-1.77.73,2.5,2.5,0,0,0-.71,1.79,2.44,2.44,0,0,0,2.48,2.48Zm7.56-7.9a2.58,2.58,0,0,0,1.91-.8A2.68,2.68,0,0,0,62,82a2.64,2.64,0,0,0-.77-1.89,2.58,2.58,0,0,0-1.91-.8,2.51,2.51,0,0,0-1.89.78A2.61,2.61,0,0,0,56.66,82a2.67,2.67,0,0,0,.76,1.93A2.49,2.49,0,0,0,59.31,84.72Zm0,16.21a2.55,2.55,0,0,0,1.91-.8A2.64,2.64,0,0,0,62,98.24a2.7,2.7,0,0,0-.77-1.93,2.58,2.58,0,0,0-1.91-.8,2.49,2.49,0,0,0-1.89.8,2.69,2.69,0,0,0-.76,1.93,2.59,2.59,0,0,0,.76,1.91A2.51,2.51,0,0,0,59.31,100.93Z"/></svg>