<svg id="Layer_1" data-name="Layer 1" xmlns="http://www.w3.org/2000/svg" viewBox="0 0 122.3 122.3"><title>l9_4_1</title><path d="M122.31,34.13V50.79a8.65,8.65,0,0,1-8.65,8.65H99.57l0,22.48a4.36,4.36,0,0,1-4.66,4.66H76.78v3.75A8.69,8.69,0,0,1,68.09,99H51.51a8.69,8.69,0,0,1-8.69-8.69V86.58H24.48a4.37,4.37,0,0,1-2.92-1.23,4.88,4.88,0,0,1-1.31-3c-.33-2.63-.36-11.2,0-22.91H8.78A8.65,8.65,0,0,1,.13,50.79V34.13a8.66,8.66,0,0,1,8.65-8.66H42.43a8.66,8.66,0,0,1,8.65,8.66V50.79a8.65,8.65,0,0,1-8.65,8.65H28.73q0,9.21.05,18.42h14V73.75a8.7,8.7,0,0,1,8.69-8.7H68.09a8.7,8.7,0,0,1,8.69,8.7v4.11H91l0-18.42H80a8.65,8.65,0,0,1-8.65-8.65V34.13A8.66,8.66,0,0,1,80,25.47h33.65A8.66,8.66,0,0,1,122.31,34.13ZM13,46.44H11.48V37.91A1.55,1.55,0,0,0,11,36.74a1.57,1.57,0,0,0-1.16-.43,3,3,0,0,0-1.49.45L5.51,38.43a1.22,1.22,0,0,0-.63,1.12,1.52,1.52,0,0,0,.36,1A1.08,1.08,0,0,0,6.1,41a1.21,1.21,0,0,0,.63-.18l1.44-.85v6.5H6.71a1.81,1.81,0,0,0-1.18.32,1.2,1.2,0,0,0-.38,1c0,.88.52,1.33,1.56,1.33H13c1,0,1.57-.45,1.57-1.33a1.23,1.23,0,0,0-.38-1A1.86,1.86,0,0,0,13,46.44Zm10.33,0H19.67l2.56-2.61a8.11,8.11,0,0,0,1.5-2,4.41,4.41,0,0,0,.44-2,3.25,3.25,0,0,0-.55-1.88,3.42,3.42,0,0,0-1.55-1.26,5.75,5.75,0,0,0-2.34-.44,6.88,6.88,0,0,0-2.08.32,7.09,7.09,0,0,0-1.9.9,1.14,1.14,0,0,0-.44.47,1.71,1.71,0,0,0,.19,1.61.9.9,0,0,0,.75.4.93.93,0,0,0,.34-.05A2.31,2.31,0,0,0,17,39.7l.28-.15.36-.18a9,9,0,0,1,1-.45,2.93,2.93,0,0,1,1-.15,1.4,1.4,0,0,1,1,.33,1.16,1.16,0,0,1,.35.93,3.47,3.47,0,0,1-1.19,2.29l-3.81,4a2,2,0,0,0-.61,1.4,1.34,1.34,0,0,0,.37,1,1.39,1.39,0,0,0,1,.39h6.57a1.79,1.79,0,0,0,1.18-.33,1.22,1.22,0,0,0,.39-1,1.2,1.2,0,0,0-.39-1A1.91,1.91,0,0,0,23.29,46.44ZM27.54,45H34.2a1,1,0,0,0,.75-.31,1,1,0,0,0,.31-.77,1.06,1.06,0,0,0-1.06-1.06H27.54a1,1,0,0,0-.76.32A1.06,1.06,0,0,0,27.54,45Zm3.24-3.38a1.11,1.11,0,0,0,.82-.34,1.16,1.16,0,0,0,.33-.83,1.13,1.13,0,0,0-.33-.81,1.11,1.11,0,0,0-.82-.34,1.07,1.07,0,0,0-.81.33,1.12,1.12,0,0,0-.33.82,1.16,1.16,0,0,0,.33.83A1,1,0,0,0,30.78,41.58Zm0,7a1.15,1.15,0,0,0,.82-.34,1.13,1.13,0,0,0,.33-.81,1.15,1.15,0,0,0-.33-.83,1.11,1.11,0,0,0-.82-.34,1,1,0,0,0-.81.34,1.15,1.15,0,0,0-.33.83,1.1,1.1,0,0,0,.33.81A1,1,0,0,0,30.78,48.53Zm14.13-2.09H41.29l2.56-2.61a8.37,8.37,0,0,0,1.5-2,4.55,4.55,0,0,0,.44-2,3.25,3.25,0,0,0-.55-1.88,3.45,3.45,0,0,0-1.56-1.26,5.68,5.68,0,0,0-2.34-.44,6.86,6.86,0,0,0-2.07.32,7.09,7.09,0,0,0-1.9.9,1.08,1.08,0,0,0-.44.47,1.51,1.51,0,0,0-.12.65,1.57,1.57,0,0,0,.3,1,.93.93,0,0,0,.76.4,1,1,0,0,0,.34-.05,2.31,2.31,0,0,0,.37-.17l.28-.15.36-.18a8.24,8.24,0,0,1,1-.45,2.93,2.93,0,0,1,1-.15,1.4,1.4,0,0,1,1,.33,1.2,1.2,0,0,1,.35.93,3.52,3.52,0,0,1-1.19,2.29l-3.81,4a2,2,0,0,0-.62,1.4,1.35,1.35,0,0,0,.38,1,1.37,1.37,0,0,0,1,.39h6.57a1.79,1.79,0,0,0,1.18-.33,1.21,1.21,0,0,0,.38-1,1.19,1.19,0,0,0-.38-1A1.91,1.91,0,0,0,44.91,46.44Zm53.14-4.8a4.53,4.53,0,0,0-2,.45,3.77,3.77,0,0,0-1.48,1.21,6.42,6.42,0,0,1,.9-3.13,2.28,2.28,0,0,1,2-1.12,3.14,3.14,0,0,1,1.1.19,12.55,12.55,0,0,1,1.32.58l.53.26c.31.16.55.28.72.35a1.64,1.64,0,0,0,.6.11,1.26,1.26,0,0,0,1-.52,1.92,1.92,0,0,0,.42-1.26,1.8,1.8,0,0,0-.18-.84,2.06,2.06,0,0,0-.59-.65,7.66,7.66,0,0,0-2.41-1.2,9.54,9.54,0,0,0-2.75-.43,6.51,6.51,0,0,0-3.73,1.08A7,7,0,0,0,91,39.81a11.68,11.68,0,0,0-.88,4.69A9.57,9.57,0,0,0,92,50.79,6.45,6.45,0,0,0,97.21,53a6.12,6.12,0,0,0,3.05-.74,5.32,5.32,0,0,0,2.1-2.08,5.91,5.91,0,0,0,.76-3,6,6,0,0,0-.66-2.84,5,5,0,0,0-1.81-2A4.9,4.9,0,0,0,98.05,41.64Zm-1.1,8A1.91,1.91,0,0,1,95.46,49a2.69,2.69,0,0,1,0-3.3,2,2,0,0,1,1.5-.62,1.89,1.89,0,0,1,1.5.61A2.45,2.45,0,0,1,99,47.33,2.41,2.41,0,0,1,98.44,49,1.92,1.92,0,0,1,97,49.61ZM52.28,84.53H67.82a2.39,2.39,0,0,0,1.77-.74A2.48,2.48,0,0,0,70.3,82a2.44,2.44,0,0,0-2.48-2.48H52.28a2.36,2.36,0,0,0-1.76.74,2.44,2.44,0,0,0-.71,1.78,2.43,2.43,0,0,0,2.47,2.48Zm7.56-7.9a2.54,2.54,0,0,0,1.91-.79,2.69,2.69,0,0,0,.78-1.94A2.64,2.64,0,0,0,61.75,72,2.68,2.68,0,0,0,58,72a2.66,2.66,0,0,0-.75,1.91A2.74,2.74,0,0,0,58,75.84,2.51,2.51,0,0,0,59.84,76.63Zm0,16.22a2.55,2.55,0,0,0,1.91-.8,2.61,2.61,0,0,0,.78-1.89,2.65,2.65,0,0,0-.78-1.93,2.52,2.52,0,0,0-1.91-.8,2.49,2.49,0,0,0-1.89.8,2.7,2.7,0,0,0-.75,1.93A2.66,2.66,0,0,0,58,92.07,2.54,2.54,0,0,0,59.84,92.85Z"/></svg>