<svg id="Layer_1" data-name="Layer 1" xmlns="http://www.w3.org/2000/svg" viewBox="0 0 122.3 122.3"><title>l9_4_1</title><path d="M122.25,40.81V57.47a8.66,8.66,0,0,1-8.65,8.66H99.52q0,11.24,0,22.48A4.46,4.46,0,0,1,98.31,92a4.53,4.53,0,0,1-3.43,1.31H76.73V97a8.7,8.7,0,0,1-8.7,8.69H51.45A8.69,8.69,0,0,1,42.76,97V93.27H24.42A4.43,4.43,0,0,1,21.5,92a4.9,4.9,0,0,1-1.31-3c-.33-2.63-.36-11.2,0-22.91H8.73A8.66,8.66,0,0,1,.07,57.47V40.81a8.66,8.66,0,0,1,8.66-8.65H42.37A8.65,8.65,0,0,1,51,40.81V57.47a8.66,8.66,0,0,1-8.65,8.66H28.67q0,9.21,0,18.42h14V80.43a8.69,8.69,0,0,1,8.69-8.69H68a8.7,8.7,0,0,1,8.7,8.69v4.12H90.92q0-9.21,0-18.42H80a8.66,8.66,0,0,1-8.65-8.66V40.81A8.65,8.65,0,0,1,80,32.16H113.6A8.65,8.65,0,0,1,122.25,40.81ZM12.91,53.12H11.43V44.59A1.55,1.55,0,0,0,11,43.42,1.57,1.57,0,0,0,9.83,43a3,3,0,0,0-1.49.45L5.46,45.11a1.24,1.24,0,0,0-.63,1.12,1.5,1.5,0,0,0,.36,1,1.05,1.05,0,0,0,.86.44,1.21,1.21,0,0,0,.63-.18l1.44-.84v6.49H6.66a1.8,1.8,0,0,0-1.19.33,1.2,1.2,0,0,0-.37,1c0,.89.52,1.33,1.56,1.33h6.25c1,0,1.56-.44,1.56-1.33a1.2,1.2,0,0,0-.37-1A1.8,1.8,0,0,0,12.91,53.12Zm7,2.79a4.2,4.2,0,0,0,3.6-1.67,8,8,0,0,0,1.24-4.84,7.94,7.94,0,0,0-1.25-4.83,4.22,4.22,0,0,0-3.59-1.67,4.22,4.22,0,0,0-3.6,1.67,8,8,0,0,0-1.24,4.83,8,8,0,0,0,1.24,4.84A4.2,4.2,0,0,0,19.89,55.91Zm0-2.5a1.29,1.29,0,0,1-1.24-.93,9,9,0,0,1-.38-3.08,8.92,8.92,0,0,1,.38-3.07,1.29,1.29,0,0,1,2.48,0,8.65,8.65,0,0,1,.38,3.06,8.78,8.78,0,0,1-.38,3.08A1.28,1.28,0,0,1,19.89,53.41Zm7.58-1.76h6.66a1,1,0,0,0,.76-.32,1.06,1.06,0,0,0-.76-1.82H27.47a1,1,0,0,0-.76.31,1.08,1.08,0,0,0-.3.77,1,1,0,0,0,1.06,1.06Zm3.24-3.39a1.09,1.09,0,0,0,.82-.34,1.15,1.15,0,0,0,.33-.83,1.14,1.14,0,0,0-1.15-1.15,1.07,1.07,0,0,0-.81.34,1.09,1.09,0,0,0-.32.81,1.14,1.14,0,0,0,.32.83A1.07,1.07,0,0,0,30.71,48.26Zm0,7a1.09,1.09,0,0,0,.82-.34,1.13,1.13,0,0,0,.33-.81,1.16,1.16,0,0,0-.33-.83,1.09,1.09,0,0,0-.82-.34,1.07,1.07,0,0,0-.81.34,1.15,1.15,0,0,0-.32.83,1.12,1.12,0,0,0,.32.82A1.1,1.1,0,0,0,30.71,55.21Zm14.13-2.09H41.22l2.56-2.61a8.08,8.08,0,0,0,1.5-2,4.62,4.62,0,0,0,.44-2,3.27,3.27,0,0,0-.55-1.88,3.55,3.55,0,0,0-1.55-1.26,5.92,5.92,0,0,0-2.34-.44,7.2,7.2,0,0,0-2.08.32,7.09,7.09,0,0,0-1.9.9,1.13,1.13,0,0,0-.44.47,1.54,1.54,0,0,0-.12.65,1.51,1.51,0,0,0,.31,1,.91.91,0,0,0,.75.41.93.93,0,0,0,.34-.06,1.67,1.67,0,0,0,.37-.17l.28-.15.36-.18a8.71,8.71,0,0,1,1-.44,2.93,2.93,0,0,1,1-.15,1.4,1.4,0,0,1,1,.32,1.24,1.24,0,0,1,.35.94A3.48,3.48,0,0,1,41.29,49l-3.81,4a2,2,0,0,0-.61,1.4,1.37,1.37,0,0,0,.37,1,1.42,1.42,0,0,0,1,.38h6.57A1.85,1.85,0,0,0,46,55.43a1.24,1.24,0,0,0,.39-1,1.19,1.19,0,0,0-.39-1A1.85,1.85,0,0,0,44.84,53.12ZM97.73,48.4a5.94,5.94,0,0,0-2.37.43V45.88h5.18c1.39,0,2.09-.56,2.09-1.68s-.7-1.66-2.09-1.66H93.1a2,2,0,0,0-1.51.53,2.08,2.08,0,0,0-.53,1.54v6.5a1.29,1.29,0,0,0,.46,1,1.6,1.6,0,0,0,1.12.4,2.33,2.33,0,0,0,1.08-.26,8.55,8.55,0,0,1,1.38-.44,6.57,6.57,0,0,1,1.31-.12,2.69,2.69,0,0,1,1.87.6A2.13,2.13,0,0,1,99,54a2.1,2.1,0,0,1-.65,1.7,3.07,3.07,0,0,1-2,.54A4.14,4.14,0,0,1,95,56a12.73,12.73,0,0,1-1.35-.58l-.48-.24-.72-.36a1.72,1.72,0,0,0-.6-.09,1.25,1.25,0,0,0-1,.51,2,2,0,0,0-.41,1.26,1.78,1.78,0,0,0,.18.83,2.24,2.24,0,0,0,.56.66,8.06,8.06,0,0,0,2.46,1.2,10,10,0,0,0,2.92.43,7.76,7.76,0,0,0,3.43-.72,5.41,5.41,0,0,0,2.31-2,5.69,5.69,0,0,0,.81-3A5.75,5.75,0,0,0,102.4,51a4.94,4.94,0,0,0-1.9-1.92A5.6,5.6,0,0,0,97.73,48.4ZM52.22,91.21H67.76a2.38,2.38,0,0,0,1.77-.73,2.5,2.5,0,0,0,.71-1.79,2.43,2.43,0,0,0-2.48-2.47H52.22a2.35,2.35,0,0,0-1.76.73,2.46,2.46,0,0,0-.71,1.79,2.43,2.43,0,0,0,2.47,2.47Zm7.56-7.89a2.59,2.59,0,0,0,1.92-.8,2.7,2.7,0,0,0,.77-1.93,2.64,2.64,0,0,0-.77-1.89,2.59,2.59,0,0,0-1.92-.8,2.54,2.54,0,0,0-1.89.78,2.62,2.62,0,0,0-.75,1.91,2.72,2.72,0,0,0,.75,1.93A2.52,2.52,0,0,0,59.78,83.32Zm0,16.21a2.59,2.59,0,0,0,1.92-.8,2.64,2.64,0,0,0,.77-1.89,2.7,2.7,0,0,0-.77-1.93,2.59,2.59,0,0,0-1.92-.8,2.52,2.52,0,0,0-1.89.8,2.72,2.72,0,0,0-.75,1.93,2.64,2.64,0,0,0,.75,1.91A2.54,2.54,0,0,0,59.78,99.53Z"/></svg>