<svg id="Layer_1" data-name="Layer 1" xmlns="http://www.w3.org/2000/svg" viewBox="0 0 122.3 122.3"><title>l9_4_1</title><path d="M122.3,37.18V53.84a8.65,8.65,0,0,1-8.65,8.65H99.57L99.6,85a4.55,4.55,0,0,1-1.24,3.36,4.49,4.49,0,0,1-3.42,1.3H76.78v3.75a8.69,8.69,0,0,1-8.69,8.69H51.5a8.69,8.69,0,0,1-8.69-8.69V89.63H24.47a4.37,4.37,0,0,1-2.92-1.23,4.94,4.94,0,0,1-1.31-3c-.33-2.63-.36-11.2,0-22.91H8.78A8.66,8.66,0,0,1,.12,53.84V37.18a8.66,8.66,0,0,1,8.66-8.66H42.42a8.66,8.66,0,0,1,8.66,8.66V53.84a8.66,8.66,0,0,1-8.66,8.65H28.72q0,9.21.05,18.42h14V76.8a8.7,8.7,0,0,1,8.69-8.7H68.09a8.7,8.7,0,0,1,8.69,8.7v4.11H91q0-9.21,0-18.42H80a8.65,8.65,0,0,1-8.65-8.65V37.18A8.66,8.66,0,0,1,80,28.52h33.65A8.66,8.66,0,0,1,122.3,37.18ZM13,49.49H11.49V41a1.55,1.55,0,0,0-.44-1.17,1.57,1.57,0,0,0-1.16-.43,3,3,0,0,0-1.49.45L5.52,41.48a1.22,1.22,0,0,0-.63,1.12,1.52,1.52,0,0,0,.36,1,1.09,1.09,0,0,0,.86.44,1.21,1.21,0,0,0,.63-.18L8.18,43v6.5H6.72a1.81,1.81,0,0,0-1.18.32,1.2,1.2,0,0,0-.38,1c0,.88.52,1.33,1.56,1.33H13c1,0,1.57-.45,1.57-1.33a1.23,1.23,0,0,0-.38-1A1.84,1.84,0,0,0,13,49.49Zm10.8,0H22.29V41a1.55,1.55,0,0,0-.44-1.17,1.57,1.57,0,0,0-1.16-.43,3,3,0,0,0-1.49.45l-2.88,1.67a1.22,1.22,0,0,0-.63,1.12,1.52,1.52,0,0,0,.36,1,1.09,1.09,0,0,0,.86.44,1.21,1.21,0,0,0,.63-.18L19,43v6.5H17.52a1.81,1.81,0,0,0-1.18.32,1.2,1.2,0,0,0-.38,1c0,.88.52,1.33,1.56,1.33h6.25c1,0,1.57-.45,1.57-1.33a1.23,1.23,0,0,0-.38-1A1.84,1.84,0,0,0,23.77,49.49ZM27.53,48h6.66A1,1,0,0,0,35,47.7a1.08,1.08,0,0,0,.3-.77,1,1,0,0,0-1.06-1.06H27.53a1,1,0,0,0-.76.32A1.06,1.06,0,0,0,27.53,48Zm3.24-3.38a1.08,1.08,0,0,0,.82-.34,1.16,1.16,0,0,0,.33-.83,1.13,1.13,0,0,0-.33-.81,1.08,1.08,0,0,0-.82-.34,1.1,1.1,0,0,0-.81.33,1.16,1.16,0,0,0-.32.82,1.2,1.2,0,0,0,.32.83A1.07,1.07,0,0,0,30.77,44.63Zm0,6.95a1.12,1.12,0,0,0,.82-.34,1.13,1.13,0,0,0,.33-.81,1.15,1.15,0,0,0-.33-.83,1.15,1.15,0,0,0-1.63,0,1.22,1.22,0,0,0,0,1.65A1.1,1.1,0,0,0,30.77,51.58Zm11.86-7.81a3.49,3.49,0,0,0-1.52.33A2.74,2.74,0,0,0,40,45a4.75,4.75,0,0,1,.67-2.35,1.72,1.72,0,0,1,1.49-.84A2.29,2.29,0,0,1,43,42a8.76,8.76,0,0,1,1,.43l.4.2.54.26a1.25,1.25,0,0,0,.45.08.94.94,0,0,0,.76-.39,1.45,1.45,0,0,0,.32-.94,1.28,1.28,0,0,0-.14-.63,1.51,1.51,0,0,0-.44-.49,5.79,5.79,0,0,0-1.81-.9A6.8,6.8,0,0,0,42,39.27a4.9,4.9,0,0,0-2.8.81,5.31,5.31,0,0,0-1.85,2.31,8.67,8.67,0,0,0-.66,3.52,7.1,7.1,0,0,0,1.39,4.71A4.81,4.81,0,0,0,42,52.28a4.68,4.68,0,0,0,2.29-.56,4,4,0,0,0,1.57-1.55,4.84,4.84,0,0,0,.08-4.4,3.72,3.72,0,0,0-1.36-1.47A3.61,3.61,0,0,0,42.63,43.77Zm-.82,6a1.46,1.46,0,0,1-1.12-.47A1.77,1.77,0,0,1,40.26,48a1.79,1.79,0,0,1,.42-1.24,1.59,1.59,0,0,1,2.25,0A1.83,1.83,0,0,1,43.34,48a1.77,1.77,0,0,1-.42,1.24A1.4,1.4,0,0,1,41.81,49.74Zm47.38-4.62a3.87,3.87,0,0,0,2.59-3.77,4.17,4.17,0,0,0-.73-2.45A4.68,4.68,0,0,0,89,37.27a7.8,7.8,0,0,0-3.13-.58,9.83,9.83,0,0,0-2.84.43,8.06,8.06,0,0,0-2.44,1.2A2,2,0,0,0,80,39a1.8,1.8,0,0,0-.17.84,1.91,1.91,0,0,0,.41,1.26,1.21,1.21,0,0,0,1,.52,1.57,1.57,0,0,0,.6-.11,7.36,7.36,0,0,0,.72-.35l.51-.24a12.07,12.07,0,0,1,1.3-.57,3.56,3.56,0,0,1,1.26-.22,2.06,2.06,0,0,1,1.47.49A1.81,1.81,0,0,1,87.61,42,1.36,1.36,0,0,1,87,43.2a3.74,3.74,0,0,1-1.92.38H84a1.4,1.4,0,0,0-1.13.5,1.88,1.88,0,0,0-.41,1.2,1.84,1.84,0,0,0,.41,1.2A1.38,1.38,0,0,0,84,47h1.49a3.55,3.55,0,0,1,2,.41,1.5,1.5,0,0,1,.6,1.34,1.68,1.68,0,0,1-.59,1.44,3.32,3.32,0,0,1-1.93.43,4.55,4.55,0,0,1-1.38-.2,10.53,10.53,0,0,1-1.38-.59l-.3-.13-.23-.11c-.3-.16-.55-.28-.72-.35a1.64,1.64,0,0,0-.6-.11,1.26,1.26,0,0,0-1,.52,2,2,0,0,0-.41,1.26,1.92,1.92,0,0,0,.17.83,1.94,1.94,0,0,0,.58.66,7.6,7.6,0,0,0,2.49,1.21,10.66,10.66,0,0,0,3,.42,9.06,9.06,0,0,0,3.4-.59,5,5,0,0,0,2.24-1.67,4.16,4.16,0,0,0,.8-2.54,4.26,4.26,0,0,0-.81-2.62A4.05,4.05,0,0,0,89.19,45.12ZM96.61,54a2.2,2.2,0,0,0,1.64-.67,2.41,2.41,0,0,0,0-3.31,2.2,2.2,0,0,0-1.64-.67,2.24,2.24,0,0,0-1.67.67,2.41,2.41,0,0,0,0,3.31A2.24,2.24,0,0,0,96.61,54Zm14.11-8.85a3.64,3.64,0,0,0,1.88-1.42,4.14,4.14,0,0,0,.69-2.4,4,4,0,0,0-1.67-3.37,8.95,8.95,0,0,0-9.09,0,4,4,0,0,0-1.68,3.37,4.06,4.06,0,0,0,.68,2.34,3.91,3.91,0,0,0,1.92,1.48,4,4,0,0,0-2.26,1.42,4.24,4.24,0,0,0-.79,2.63,4.14,4.14,0,0,0,1.79,3.57,9.94,9.94,0,0,0,9.76,0,4.14,4.14,0,0,0,1.79-3.57,4.21,4.21,0,0,0-.78-2.58A4.16,4.16,0,0,0,110.72,45.12Zm-3.65,5.56c-1.74,0-2.62-.62-2.62-1.87s.88-1.87,2.62-1.87,2.62.62,2.62,1.87S108.81,50.68,107.07,50.68Zm0-10.65a2.56,2.56,0,0,1,1.61.42,1.63,1.63,0,0,1,.53,1.35,1.67,1.67,0,0,1-.53,1.37,3.23,3.23,0,0,1-3.22,0,1.67,1.67,0,0,1-.52-1.37,1.62,1.62,0,0,1,.52-1.35A2.56,2.56,0,0,1,107.07,40ZM52.28,87.58H67.82a2.36,2.36,0,0,0,1.76-.74,2.44,2.44,0,0,0,.71-1.78,2.36,2.36,0,0,0-.71-1.76,2.38,2.38,0,0,0-1.76-.72H52.28a2.39,2.39,0,0,0-1.77.74,2.48,2.48,0,0,0-.71,1.78,2.43,2.43,0,0,0,2.48,2.48Zm7.56-7.9a2.57,2.57,0,0,0,1.91-.79A2.68,2.68,0,0,0,62.52,77a2.63,2.63,0,0,0-.77-1.89,2.57,2.57,0,0,0-1.91-.79A2.5,2.5,0,0,0,58,75,2.62,2.62,0,0,0,57.19,77,2.71,2.71,0,0,0,58,78.89,2.48,2.48,0,0,0,59.84,79.68Zm0,16.22a2.68,2.68,0,0,0,2.68-2.69,2.64,2.64,0,0,0-.77-1.93,2.55,2.55,0,0,0-1.91-.8,2.46,2.46,0,0,0-1.89.8,2.67,2.67,0,0,0-.76,1.93A2.62,2.62,0,0,0,58,95.12,2.51,2.51,0,0,0,59.84,95.9Z"/></svg>