<svg id="Layer_1" data-name="Layer 1" xmlns="http://www.w3.org/2000/svg" viewBox="0 0 122.3 122.3"><title>l9_4_1</title><path d="M122.24,37.67V54.33A8.65,8.65,0,0,1,113.59,63H99.51q0,11.25,0,22.49a4.37,4.37,0,0,1-4.66,4.66H76.72v3.74a8.71,8.71,0,0,1-8.7,8.7H51.44a8.7,8.7,0,0,1-8.69-8.7V90.13H24.41a4.43,4.43,0,0,1-2.92-1.23,4.93,4.93,0,0,1-1.31-3c-.33-2.64-.36-11.21,0-22.92H8.72A8.66,8.66,0,0,1,.06,54.33V37.67A8.66,8.66,0,0,1,8.72,29H42.36A8.65,8.65,0,0,1,51,37.67V54.33A8.65,8.65,0,0,1,42.36,63H28.66q0,9.21.05,18.42h14V77.29a8.69,8.69,0,0,1,8.69-8.69H68a8.7,8.7,0,0,1,8.7,8.69V81.4H90.91q0-9.21,0-18.42h-11a8.65,8.65,0,0,1-8.65-8.65V37.67A8.65,8.65,0,0,1,79.94,29h33.65A8.65,8.65,0,0,1,122.24,37.67ZM12.91,50H11.43V41.45a1.5,1.5,0,0,0-1.6-1.6,3,3,0,0,0-1.49.45L5.46,42a1.24,1.24,0,0,0-.63,1.12,1.5,1.5,0,0,0,.36,1,1.08,1.08,0,0,0,.86.44,1.21,1.21,0,0,0,.63-.18l1.44-.84V50H6.66a1.8,1.8,0,0,0-1.19.33,1.2,1.2,0,0,0-.37,1c0,.89.52,1.33,1.56,1.33h6.25c1,0,1.56-.44,1.56-1.33a1.2,1.2,0,0,0-.37-1A1.8,1.8,0,0,0,12.91,50Zm10.8,0H22.23V41.45a1.5,1.5,0,0,0-1.6-1.6,3,3,0,0,0-1.49.45L16.26,42a1.23,1.23,0,0,0-.64,1.12,1.51,1.51,0,0,0,.37,1,1.08,1.08,0,0,0,.86.44,1.23,1.23,0,0,0,.63-.18l1.44-.84V50H17.46a1.8,1.8,0,0,0-1.19.33,1.21,1.21,0,0,0-.38,1c0,.89.53,1.33,1.57,1.33h6.25c1,0,1.56-.44,1.56-1.33a1.18,1.18,0,0,0-.38-1A1.75,1.75,0,0,0,23.71,50Zm3.76-1.47h6.66a1,1,0,0,0,.76-.32,1.06,1.06,0,0,0-.76-1.82H27.47a1,1,0,0,0-.76.31,1.08,1.08,0,0,0-.3.77,1,1,0,0,0,1.06,1.06Zm3.24-3.39a1.09,1.09,0,0,0,.82-.34,1.15,1.15,0,0,0,.33-.83,1.14,1.14,0,0,0-1.15-1.15,1.1,1.1,0,0,0-.81.33,1.22,1.22,0,0,0,0,1.65A1.07,1.07,0,0,0,30.71,45.12Zm0,7a1.09,1.09,0,0,0,.82-.34,1.13,1.13,0,0,0,.33-.81,1.16,1.16,0,0,0-.33-.83,1.09,1.09,0,0,0-.82-.34,1.07,1.07,0,0,0-.81.34,1.15,1.15,0,0,0-.32.83,1.12,1.12,0,0,0,.32.82A1.1,1.1,0,0,0,30.71,52.07Zm11.86-7.81a3.49,3.49,0,0,0-1.52.33,2.93,2.93,0,0,0-1.11.91,4.75,4.75,0,0,1,.68-2.35,1.71,1.71,0,0,1,1.48-.83,2.3,2.3,0,0,1,.83.14c.26.1.59.24,1,.43l.4.2a4.16,4.16,0,0,0,.54.26,1.25,1.25,0,0,0,.45.08.94.94,0,0,0,.76-.39,1.43,1.43,0,0,0,.32-.94,1.33,1.33,0,0,0-.14-.63,1.64,1.64,0,0,0-.44-.49,5.9,5.9,0,0,0-1.81-.9,7.17,7.17,0,0,0-2.06-.32,4.88,4.88,0,0,0-2.8.81,5.24,5.24,0,0,0-1.85,2.31,8.7,8.7,0,0,0-.66,3.52A7.14,7.14,0,0,0,38,51.12a4.83,4.83,0,0,0,3.92,1.65,4.7,4.7,0,0,0,2.29-.55,4.13,4.13,0,0,0,1.57-1.56,4.78,4.78,0,0,0,.07-4.39,3.63,3.63,0,0,0-3.3-2Zm-.83,6a1.42,1.42,0,0,1-1.11-.48,1.76,1.76,0,0,1-.44-1.23,1.82,1.82,0,0,1,.43-1.25,1.43,1.43,0,0,1,1.12-.46,1.45,1.45,0,0,1,1.13.45,2.13,2.13,0,0,1,0,2.5A1.43,1.43,0,0,1,41.74,50.24ZM96.42,48.5a1.44,1.44,0,0,0,.91-.3,1.36,1.36,0,0,0,.49-.85,2.36,2.36,0,0,1,.56-1,12,12,0,0,1,1.26-1.16c.59-.52,1.06-1,1.43-1.32a5,5,0,0,0,.94-1.33,3.91,3.91,0,0,0-.34-3.94,4.93,4.93,0,0,0-2-1.55,7.21,7.21,0,0,0-2.9-.56,9.64,9.64,0,0,0-2.89.46,8.92,8.92,0,0,0-2.56,1.29,2.11,2.11,0,0,0-.61.68,1.75,1.75,0,0,0-.19.87A1.94,1.94,0,0,0,91,41.08a1.31,1.31,0,0,0,1.06.54,3.08,3.08,0,0,0,1.37-.47l.6-.3a9.7,9.7,0,0,1,1.27-.62A3.18,3.18,0,0,1,96.39,40a1.66,1.66,0,0,1,1.1.33,1,1,0,0,1,.4.87,1.82,1.82,0,0,1-.28,1,8.72,8.72,0,0,1-.87,1.08,8.18,8.18,0,0,0-1.25,1.61,3.89,3.89,0,0,0-.45,2,1.74,1.74,0,0,0,.37,1.2A1.27,1.27,0,0,0,96.42,48.5Zm0,6a2.33,2.33,0,0,0,1.74-.7,2.53,2.53,0,0,0,0-3.45,2.33,2.33,0,0,0-1.74-.7,2.28,2.28,0,0,0-1.71.7,2.5,2.5,0,0,0,0,3.45A2.28,2.28,0,0,0,96.47,54.47ZM52.21,88.07H67.75a2.38,2.38,0,0,0,1.77-.73,2.5,2.5,0,0,0,.71-1.79,2.44,2.44,0,0,0-2.48-2.48H52.21a2.36,2.36,0,0,0-1.76.74,2.45,2.45,0,0,0-.71,1.78,2.43,2.43,0,0,0,2.47,2.48Zm7.56-7.89a2.59,2.59,0,0,0,1.92-.8,2.7,2.7,0,0,0,.77-1.93,2.64,2.64,0,0,0-.77-1.89,2.69,2.69,0,0,0-3.81,0,2.62,2.62,0,0,0-.75,1.91,2.72,2.72,0,0,0,.75,1.93A2.52,2.52,0,0,0,59.77,80.18Zm0,16.21a2.59,2.59,0,0,0,1.92-.8,2.64,2.64,0,0,0,.77-1.89,2.68,2.68,0,0,0-.77-1.93,2.59,2.59,0,0,0-1.92-.8,2.52,2.52,0,0,0-1.89.8,2.7,2.7,0,0,0-.75,1.93,2.64,2.64,0,0,0,.75,1.91A2.54,2.54,0,0,0,59.77,96.39Z"/></svg>