<svg id="Layer_1" data-name="Layer 1" xmlns="http://www.w3.org/2000/svg" viewBox="0 0 122.3 122.3"><title>l9_4_1</title><path d="M122.24,35.13V51.8a8.65,8.65,0,0,1-8.65,8.65H99.51q0,11.24,0,22.48a4.37,4.37,0,0,1-4.66,4.66H76.72v3.75A8.7,8.7,0,0,1,68,100H51.44a8.69,8.69,0,0,1-8.69-8.69V87.59H24.41a4.43,4.43,0,0,1-2.92-1.23,4.9,4.9,0,0,1-1.31-3c-.33-2.63-.36-11.2,0-22.91H8.72A8.66,8.66,0,0,1,.06,51.8V35.13a8.66,8.66,0,0,1,8.66-8.65H42.36A8.65,8.65,0,0,1,51,35.13V51.8a8.65,8.65,0,0,1-8.65,8.65H28.66q0,9.21.05,18.42h14V74.75a8.69,8.69,0,0,1,8.69-8.69H68a8.7,8.7,0,0,1,8.7,8.69v4.12H90.91q0-9.21,0-18.42h-11a8.65,8.65,0,0,1-8.65-8.65V35.13a8.65,8.65,0,0,1,8.65-8.65h33.65A8.65,8.65,0,0,1,122.24,35.13ZM18.31,47.45H16.83V38.92a1.55,1.55,0,0,0-.44-1.17,1.58,1.58,0,0,0-1.16-.44,3,3,0,0,0-1.49.45l-2.88,1.68a1.21,1.21,0,0,0-.63,1.11,1.5,1.5,0,0,0,.36,1,1.06,1.06,0,0,0,.86.45,1.21,1.21,0,0,0,.63-.18L13.52,41v6.5H12.06a1.86,1.86,0,0,0-1.19.32,1.22,1.22,0,0,0-.37,1c0,.89.52,1.34,1.56,1.34h6.25c1,0,1.56-.45,1.56-1.34a1.22,1.22,0,0,0-.37-1A1.86,1.86,0,0,0,18.31,47.45ZM22.07,46h6.66a1,1,0,0,0,.76-.31,1.08,1.08,0,0,0,.3-.77,1,1,0,0,0-1.06-1.06H22.07a1,1,0,0,0-.76.31,1.08,1.08,0,0,0-.3.77A1,1,0,0,0,22.07,46Zm3.24-3.38a1.13,1.13,0,0,0,.82-.34,1.16,1.16,0,0,0,.33-.83,1.13,1.13,0,0,0-.33-.81,1.13,1.13,0,0,0-1.95.81,1.15,1.15,0,0,0,.32.83A1.11,1.11,0,0,0,25.31,42.59Zm0,6.95a1.16,1.16,0,0,0,1.15-1.16,1.12,1.12,0,0,0-.33-.82,1.1,1.1,0,0,0-.82-.35,1.08,1.08,0,0,0-.81.35,1.12,1.12,0,0,0-.32.82,1.13,1.13,0,0,0,1.13,1.16Zm11.86-7.82a3.36,3.36,0,0,0-1.52.34,2.84,2.84,0,0,0-1.11.91,4.71,4.71,0,0,1,.68-2.35,1.72,1.72,0,0,1,1.48-.84,2.54,2.54,0,0,1,.83.14,10,10,0,0,1,1,.44l.4.19a4.16,4.16,0,0,0,.54.26,1.06,1.06,0,0,0,.45.09.94.94,0,0,0,.76-.39,1.45,1.45,0,0,0,.32-.95,1.33,1.33,0,0,0-.14-.63,1.62,1.62,0,0,0-.44-.48,5.48,5.48,0,0,0-1.81-.9,6.86,6.86,0,0,0-2.06-.33,4.88,4.88,0,0,0-2.8.81,5.21,5.21,0,0,0-1.85,2.32,8.67,8.67,0,0,0-.66,3.52,7.1,7.1,0,0,0,1.39,4.71,4.81,4.81,0,0,0,3.92,1.66,4.71,4.71,0,0,0,2.29-.56,4,4,0,0,0,1.57-1.56A4.46,4.46,0,0,0,41,45.86a4.52,4.52,0,0,0-.5-2.13,3.74,3.74,0,0,0-1.36-1.48A3.64,3.64,0,0,0,37.17,41.72Zm-.83,6a1.43,1.43,0,0,1-1.11-.48,2,2,0,0,1,0-2.47,1.45,1.45,0,0,1,1.12-.47,1.42,1.42,0,0,1,1.13.46,2.12,2.12,0,0,1,0,2.49A1.43,1.43,0,0,1,36.34,47.7Zm53.85-2h-.53V37.09A2,2,0,0,0,89,35.48a2.24,2.24,0,0,0-1.56-.58,2.54,2.54,0,0,0-1.07.25,2.24,2.24,0,0,0-.85.74l-6.86,9.79a2.61,2.61,0,0,0-.53,1.58,1.85,1.85,0,0,0,.5,1.32,1.81,1.81,0,0,0,1.37.53h5.35v.82A2.14,2.14,0,0,0,86,51.56a2.16,2.16,0,0,0,1.55.55,2.2,2.2,0,0,0,1.56-.55,2.11,2.11,0,0,0,.6-1.63v-.82h.53c1.39,0,2.08-.57,2.08-1.7S91.58,45.75,90.19,45.75Zm-7.71,0,2.88-4.15v4.15Zm13,6.36a2.19,2.19,0,0,0,1.64-.67,2.28,2.28,0,0,0,.66-1.66,2.25,2.25,0,0,0-.66-1.65,2.19,2.19,0,0,0-1.64-.68,2.29,2.29,0,0,0-2.33,2.33,2.28,2.28,0,0,0,.66,1.66A2.24,2.24,0,0,0,95.49,52.11Zm14.93-3.65h-4.83L109,45a11.26,11.26,0,0,0,2-2.7,6.07,6.07,0,0,0,.58-2.67,4.38,4.38,0,0,0-.73-2.51,4.68,4.68,0,0,0-2.07-1.68,7.79,7.79,0,0,0-3.12-.59,9.35,9.35,0,0,0-2.78.43,9.52,9.52,0,0,0-2.53,1.2,1.58,1.58,0,0,0-.59.63,2.11,2.11,0,0,0-.15.86,2,2,0,0,0,.41,1.28,1.21,1.21,0,0,0,1,.54,1.39,1.39,0,0,0,.46-.07,2.61,2.61,0,0,0,.49-.23l.37-.2.48-.24a12.48,12.48,0,0,1,1.36-.59,4,4,0,0,1,1.28-.2,1.91,1.91,0,0,1,1.34.43,1.62,1.62,0,0,1,.46,1.25,4.66,4.66,0,0,1-1.58,3l-5.09,5.3a2.63,2.63,0,0,0-.81,1.87,1.77,1.77,0,0,0,.5,1.31,1.85,1.85,0,0,0,1.37.52h8.76a2.39,2.39,0,0,0,1.57-.44,1.65,1.65,0,0,0,.52-1.34,1.61,1.61,0,0,0-.52-1.31A2.45,2.45,0,0,0,110.42,48.46ZM52.21,86.54H67.75a2.39,2.39,0,0,0,1.77-.74A2.48,2.48,0,0,0,70.23,84a2.43,2.43,0,0,0-2.48-2.48H52.21a2.35,2.35,0,0,0-1.76.73,2.46,2.46,0,0,0-.71,1.79,2.36,2.36,0,0,0,.71,1.76A2.38,2.38,0,0,0,52.21,86.54Zm7.56-7.9a2.59,2.59,0,0,0,1.92-.8,2.68,2.68,0,0,0,.77-1.93A2.64,2.64,0,0,0,61.69,74a2.59,2.59,0,0,0-1.92-.8,2.54,2.54,0,0,0-1.89.78,2.64,2.64,0,0,0-.75,1.91,2.7,2.7,0,0,0,.75,1.93A2.52,2.52,0,0,0,59.77,78.64Zm0,16.21a2.55,2.55,0,0,0,1.92-.8,2.64,2.64,0,0,0,.77-1.89,2.7,2.7,0,0,0-.77-1.93,2.59,2.59,0,0,0-1.92-.8,2.52,2.52,0,0,0-1.89.8,2.72,2.72,0,0,0-.75,1.93,2.66,2.66,0,0,0,.75,1.92A2.57,2.57,0,0,0,59.77,94.85Z"/></svg>