<svg id="Layer_1" data-name="Layer 1" xmlns="http://www.w3.org/2000/svg" viewBox="0 0 122.3 122.3"><title>l9_4_1</title><path d="M122.34,34.93V51.59a8.66,8.66,0,0,1-8.65,8.66H99.61l0,22.48A4.38,4.38,0,0,1,95,87.39H76.82v3.75a8.69,8.69,0,0,1-8.69,8.69H51.54a8.69,8.69,0,0,1-8.69-8.69V87.39H24.51a4.43,4.43,0,0,1-2.92-1.23,5,5,0,0,1-1.31-3c-.33-2.63-.36-11.2,0-22.91H8.82A8.66,8.66,0,0,1,.16,51.59V34.93a8.66,8.66,0,0,1,8.66-8.65H42.46a8.66,8.66,0,0,1,8.66,8.65V51.59a8.66,8.66,0,0,1-8.66,8.66H28.76q0,9.21,0,18.42h14V74.55a8.69,8.69,0,0,1,8.69-8.69H68.13a8.69,8.69,0,0,1,8.69,8.69v4.12H91q0-9.21,0-18.42H80a8.66,8.66,0,0,1-8.65-8.66V34.93A8.65,8.65,0,0,1,80,26.28h33.65A8.65,8.65,0,0,1,122.34,34.93ZM18.23,37.18H11.17a1.7,1.7,0,0,0-1.18.34,1.48,1.48,0,0,0,0,2,1.8,1.8,0,0,0,1.19.32h4.5l-4.62,7.9a1.7,1.7,0,0,0-.25.87,1.33,1.33,0,0,0,.48,1A1.68,1.68,0,0,0,12.4,50a1.56,1.56,0,0,0,1.38-.84l5.46-9.45a2.29,2.29,0,0,0,.34-1.19,1.42,1.42,0,0,0-.35-1A1.29,1.29,0,0,0,18.23,37.18Zm3.94,8.59h6.66a1,1,0,0,0,.76-.32,1.06,1.06,0,0,0-.76-1.82H22.17a1,1,0,0,0-.75.31,1,1,0,0,0-.31.77,1.06,1.06,0,0,0,1.06,1.06Zm3.24-3.39a1.08,1.08,0,0,0,.82-.34,1.15,1.15,0,0,0,.33-.83,1.13,1.13,0,0,0-.33-.81,1.12,1.12,0,0,0-.82-.34,1.07,1.07,0,0,0-.81.34,1.13,1.13,0,0,0-.32.81,1.18,1.18,0,0,0,.32.83A1.07,1.07,0,0,0,25.41,42.38Zm0,6.95a1.08,1.08,0,0,0,.82-.34,1.13,1.13,0,0,0,.33-.81,1.16,1.16,0,0,0-.33-.83,1.15,1.15,0,0,0-1.63,0,1.2,1.2,0,0,0-.32.83,1.16,1.16,0,0,0,.32.82A1.1,1.1,0,0,0,25.41,49.33Zm13.07-6a2.92,2.92,0,0,0,1.43-1.09,3,3,0,0,0,.51-1.74,3.09,3.09,0,0,0-.55-1.83,3.47,3.47,0,0,0-1.56-1.23A5.94,5.94,0,0,0,36,37a7.38,7.38,0,0,0-2.13.32,6.13,6.13,0,0,0-1.83.9,1.47,1.47,0,0,0-.43.49,1.34,1.34,0,0,0-.13.63,1.47,1.47,0,0,0,.31,1,.93.93,0,0,0,.75.38,1.06,1.06,0,0,0,.45-.08,4.16,4.16,0,0,0,.54-.26l.38-.18a10.57,10.57,0,0,1,1-.43,2.71,2.71,0,0,1,.95-.16,1.54,1.54,0,0,1,1.1.37,1.34,1.34,0,0,1,.39,1,1,1,0,0,1-.45.92,2.77,2.77,0,0,1-1.44.29h-.79a1,1,0,0,0-.85.37,1.44,1.44,0,0,0-.3.9,1.4,1.4,0,0,0,.3.9,1,1,0,0,0,.85.38h1.12a2.63,2.63,0,0,1,1.47.31,1.13,1.13,0,0,1,.45,1,1.27,1.27,0,0,1-.44,1.08,2.55,2.55,0,0,1-1.45.32,3.28,3.28,0,0,1-1-.15,7.62,7.62,0,0,1-1-.44l-.22-.1-.17-.08a6,6,0,0,0-.54-.26,1.13,1.13,0,0,0-.45-.09.93.93,0,0,0-.76.39,1.5,1.5,0,0,0-.31,1,1.35,1.35,0,0,0,.13.62,1.38,1.38,0,0,0,.43.49,5.72,5.72,0,0,0,1.87.91,8,8,0,0,0,2.25.32,6.84,6.84,0,0,0,2.55-.44,3.78,3.78,0,0,0,1.68-1.26,3.1,3.1,0,0,0,.6-1.9,3.17,3.17,0,0,0-.61-2A3,3,0,0,0,38.48,43.34Zm58,2.42a1.42,1.42,0,0,0,.91-.3,1.31,1.31,0,0,0,.49-.85,2.36,2.36,0,0,1,.56-1,13.4,13.4,0,0,1,1.27-1.16c.58-.51,1.06-1,1.42-1.32a5,5,0,0,0,.94-1.33,3.84,3.84,0,0,0-.34-3.94,4.93,4.93,0,0,0-2-1.55,7.21,7.21,0,0,0-2.9-.56,9.64,9.64,0,0,0-2.89.46,9.05,9.05,0,0,0-2.56,1.29,2.11,2.11,0,0,0-.61.68,1.75,1.75,0,0,0-.19.87,2,2,0,0,0,.44,1.31,1.31,1.31,0,0,0,1.06.54,3.15,3.15,0,0,0,1.38-.47l.6-.3a9.06,9.06,0,0,1,1.26-.62,3.2,3.2,0,0,1,1.14-.21,1.7,1.7,0,0,1,1.1.33,1.08,1.08,0,0,1,.4.87,1.83,1.83,0,0,1-.29,1,8.5,8.5,0,0,1-.86,1.08,7.82,7.82,0,0,0-1.25,1.61,3.89,3.89,0,0,0-.45,2,1.79,1.79,0,0,0,.36,1.2A1.24,1.24,0,0,0,96.52,45.76Zm0,6A2.37,2.37,0,0,0,99,49.31a2.38,2.38,0,0,0-2.43-2.43,2.33,2.33,0,0,0-1.71.7,2.5,2.5,0,0,0,0,3.45A2.29,2.29,0,0,0,96.57,51.73ZM52.32,85.33H67.86a2.35,2.35,0,0,0,1.76-.73,2.46,2.46,0,0,0,.71-1.79,2.43,2.43,0,0,0-2.47-2.47H52.32a2.38,2.38,0,0,0-1.77.73,2.5,2.5,0,0,0-.71,1.79,2.43,2.43,0,0,0,2.48,2.47Zm7.56-7.89a2.58,2.58,0,0,0,1.91-.8,2.66,2.66,0,0,0,.78-1.93A2.7,2.7,0,0,0,59.88,72,2.51,2.51,0,0,0,58,72.8a2.59,2.59,0,0,0-.76,1.91A2.69,2.69,0,0,0,58,76.64,2.49,2.49,0,0,0,59.88,77.44Zm0,16.21A2.7,2.7,0,0,0,62.57,91,2.66,2.66,0,0,0,61.79,89a2.58,2.58,0,0,0-1.91-.8A2.49,2.49,0,0,0,58,89,2.69,2.69,0,0,0,57.23,91,2.61,2.61,0,0,0,58,92.87,2.51,2.51,0,0,0,59.88,93.65Z"/></svg>