<svg id="Layer_1" data-name="Layer 1" xmlns="http://www.w3.org/2000/svg" viewBox="0 0 122.3 122.3"><title>l9_4_1</title><path d="M121.71,35.63V52.29a8.65,8.65,0,0,1-8.65,8.65H99q0,11.25,0,22.49a4.47,4.47,0,0,1-1.23,3.35,4.57,4.57,0,0,1-3.43,1.31H76.19v3.74a8.69,8.69,0,0,1-8.69,8.69H50.91a8.69,8.69,0,0,1-8.69-8.69V88.09H23.88A4.46,4.46,0,0,1,21,86.85a4.88,4.88,0,0,1-1.31-3c-.33-2.63-.36-11.2,0-22.91H8.19A8.66,8.66,0,0,1-.47,52.29V35.63A8.66,8.66,0,0,1,8.19,27H41.83a8.66,8.66,0,0,1,8.66,8.66V52.29a8.66,8.66,0,0,1-8.66,8.65H28.13q0,9.21.05,18.42h14V75.25a8.7,8.7,0,0,1,8.69-8.7H67.5a8.7,8.7,0,0,1,8.69,8.7v4.11H90.38q0-9.21,0-18.42h-11a8.65,8.65,0,0,1-8.65-8.65V35.63A8.66,8.66,0,0,1,79.41,27h33.65A8.66,8.66,0,0,1,121.71,35.63ZM17.78,47.94H16.3V39.41a1.5,1.5,0,0,0-1.6-1.6,3,3,0,0,0-1.49.45l-2.88,1.67a1.23,1.23,0,0,0-.63,1.12,1.52,1.52,0,0,0,.36,1,1.08,1.08,0,0,0,.86.44,1.21,1.21,0,0,0,.63-.18L13,41.44v6.5H11.53a1.86,1.86,0,0,0-1.19.32,1.22,1.22,0,0,0-.37,1c0,.89.52,1.33,1.56,1.33h6.25c1,0,1.56-.44,1.56-1.33a1.22,1.22,0,0,0-.37-1A1.86,1.86,0,0,0,17.78,47.94Zm3.76-1.48H28.2a1,1,0,0,0,.76-.31,1.06,1.06,0,0,0,.3-.77,1,1,0,0,0-1.06-1.06H21.54a1,1,0,0,0-.76.32,1.06,1.06,0,0,0-.3.76,1,1,0,0,0,.3.76A1.06,1.06,0,0,0,21.54,46.46Zm3.24-3.38a1.09,1.09,0,0,0,.82-.34,1.16,1.16,0,0,0,.33-.83,1.13,1.13,0,0,0-.33-.81,1.16,1.16,0,0,0-1.63,0,1.12,1.12,0,0,0-.32.82,1.15,1.15,0,0,0,.32.83A1.07,1.07,0,0,0,24.78,43.08Zm0,7a1.09,1.09,0,0,0,.82-.34,1.13,1.13,0,0,0,.33-.81,1.15,1.15,0,0,0-.33-.83,1.09,1.09,0,0,0-.82-.34,1.07,1.07,0,0,0-.81.34,1.22,1.22,0,0,0,0,1.65A1.1,1.1,0,0,0,24.78,50Zm11.86-7.81a3.49,3.49,0,0,0-1.52.33,2.84,2.84,0,0,0-1.11.91,4.85,4.85,0,0,1,.68-2.35,1.72,1.72,0,0,1,1.48-.84,2.31,2.31,0,0,1,.83.15,8.76,8.76,0,0,1,1,.43l.4.2.54.26a1.25,1.25,0,0,0,.45.08.94.94,0,0,0,.76-.39,1.45,1.45,0,0,0,.32-.94,1.31,1.31,0,0,0-.14-.63,1.51,1.51,0,0,0-.44-.49,5.79,5.79,0,0,0-1.81-.9A6.84,6.84,0,0,0,36,37.72a4.88,4.88,0,0,0-2.8.81,5.24,5.24,0,0,0-1.85,2.31,8.7,8.7,0,0,0-.66,3.52,7.1,7.1,0,0,0,1.39,4.71A4.81,4.81,0,0,0,36,50.73a4.57,4.57,0,0,0,2.29-.56,4,4,0,0,0,1.57-1.55,4.8,4.8,0,0,0,.07-4.4,3.69,3.69,0,0,0-1.35-1.47A3.61,3.61,0,0,0,36.64,42.22Zm-.83,6a1.46,1.46,0,0,1-1.11-.47,1.77,1.77,0,0,1-.43-1.24,1.79,1.79,0,0,1,.42-1.24,1.59,1.59,0,0,1,2.25,0,1.84,1.84,0,0,1,.4,1.25,1.77,1.77,0,0,1-.41,1.24A1.4,1.4,0,0,1,35.81,48.19Zm59-1.56a1.44,1.44,0,0,0,.91-.3,1.33,1.33,0,0,0,.49-.85,2.33,2.33,0,0,1,.56-1,12,12,0,0,1,1.26-1.16c.59-.52,1.06-1,1.43-1.33a5.05,5.05,0,0,0,.94-1.32,3.85,3.85,0,0,0,.38-1.7,3.72,3.72,0,0,0-.72-2.24,4.91,4.91,0,0,0-2-1.55,7.21,7.21,0,0,0-2.9-.56,9.33,9.33,0,0,0-2.89.46,8.92,8.92,0,0,0-2.56,1.29,2.08,2.08,0,0,0-.61.67,1.82,1.82,0,0,0-.19.88,2,2,0,0,0,.44,1.31,1.31,1.31,0,0,0,1.06.54,3,3,0,0,0,1.37-.48l.6-.3a9.53,9.53,0,0,1,1.27-.61,3.18,3.18,0,0,1,1.13-.21,1.72,1.72,0,0,1,1.1.32,1.07,1.07,0,0,1,.4.88,1.82,1.82,0,0,1-.28,1,8,8,0,0,1-.87,1.07,8.22,8.22,0,0,0-1.25,1.62,3.89,3.89,0,0,0-.45,2,1.74,1.74,0,0,0,.37,1.2A1.25,1.25,0,0,0,94.85,46.63Zm.05,6a2.33,2.33,0,0,0,1.74-.7,2.53,2.53,0,0,0,0-3.45,2.33,2.33,0,0,0-1.74-.7,2.26,2.26,0,0,0-1.71.7,2.5,2.5,0,0,0,0,3.45A2.26,2.26,0,0,0,94.9,52.61ZM51.69,87H67.23A2.35,2.35,0,0,0,69,86.3a2.46,2.46,0,0,0,.71-1.79A2.36,2.36,0,0,0,69,82.75,2.38,2.38,0,0,0,67.23,82H51.69a2.39,2.39,0,0,0-1.77.74,2.44,2.44,0,0,0-.71,1.78,2.4,2.4,0,0,0,.71,1.77A2.44,2.44,0,0,0,51.69,87Zm7.56-7.9a2.57,2.57,0,0,0,1.91-.79,2.72,2.72,0,0,0,.77-1.94,2.67,2.67,0,0,0-.77-1.89,2.57,2.57,0,0,0-1.91-.79,2.54,2.54,0,0,0-1.89.77,2.62,2.62,0,0,0-.76,1.91,2.71,2.71,0,0,0,.76,1.94A2.48,2.48,0,0,0,59.25,79.13Zm0,16.22a2.58,2.58,0,0,0,1.91-.8,2.64,2.64,0,0,0,.77-1.89,2.68,2.68,0,0,0-.77-1.93,2.55,2.55,0,0,0-1.91-.8,2.46,2.46,0,0,0-1.89.8,2.67,2.67,0,0,0-.76,1.93,2.62,2.62,0,0,0,.76,1.91A2.51,2.51,0,0,0,59.25,95.35Z"/></svg>