<svg id="Layer_1" data-name="Layer 1" xmlns="http://www.w3.org/2000/svg" viewBox="0 0 122.3 122.3"><title>l9_4_1</title><path d="M122.14,37.18V53.84a8.65,8.65,0,0,1-8.65,8.65H99.4l0,22.48a4.36,4.36,0,0,1-4.66,4.66H76.61v3.75a8.69,8.69,0,0,1-8.69,8.69H51.34a8.69,8.69,0,0,1-8.69-8.69V89.63H24.31a4.37,4.37,0,0,1-2.92-1.23,4.88,4.88,0,0,1-1.31-3c-.33-2.63-.36-11.2,0-22.91H8.61A8.65,8.65,0,0,1,0,53.84V37.18a8.66,8.66,0,0,1,8.65-8.66H42.26a8.66,8.66,0,0,1,8.65,8.66V53.84a8.65,8.65,0,0,1-8.65,8.65H28.56q0,9.21.05,18.42h14V76.8a8.7,8.7,0,0,1,8.69-8.7H67.92a8.7,8.7,0,0,1,8.69,8.7v4.11H90.8l0-18.42h-11a8.65,8.65,0,0,1-8.65-8.65V37.18a8.66,8.66,0,0,1,8.65-8.66h33.65A8.66,8.66,0,0,1,122.14,37.18ZM18,39.43H11a1.78,1.78,0,0,0-1.19.33,1.27,1.27,0,0,0-.38,1,1.24,1.24,0,0,0,.37,1,1.79,1.79,0,0,0,1.2.33h4.5L10.84,50a1.77,1.77,0,0,0-.25.86,1.31,1.31,0,0,0,.49,1,1.64,1.64,0,0,0,1.11.42,1.54,1.54,0,0,0,.77-.21,1.66,1.66,0,0,0,.62-.64L19,42a2.27,2.27,0,0,0,.35-1.18,1.4,1.4,0,0,0-.35-1A1.29,1.29,0,0,0,18,39.43ZM22,48h6.66a1,1,0,0,0,.75-.31,1,1,0,0,0,.31-.77,1.06,1.06,0,0,0-1.06-1.06H22a1,1,0,0,0-.76.32A1.06,1.06,0,0,0,22,48Zm3.24-3.38a1.11,1.11,0,0,0,.82-.34,1.16,1.16,0,0,0,.33-.83,1.13,1.13,0,0,0-.33-.81,1.11,1.11,0,0,0-.82-.34,1.07,1.07,0,0,0-.81.33,1.12,1.12,0,0,0-.33.82,1.16,1.16,0,0,0,.33.83A1,1,0,0,0,25.21,44.63Zm0,6.95a1.15,1.15,0,0,0,.82-.34,1.13,1.13,0,0,0,.33-.81A1.15,1.15,0,0,0,26,49.6a1.11,1.11,0,0,0-.82-.34,1,1,0,0,0-.81.34,1.2,1.2,0,0,0,0,1.65A1.07,1.07,0,0,0,25.21,51.58Zm13.07-6a3,3,0,0,0,1.43-1.08,3,3,0,0,0,.51-1.74,3.12,3.12,0,0,0-.55-1.84A3.54,3.54,0,0,0,38.1,39.7a5.89,5.89,0,0,0-2.34-.43,7.12,7.12,0,0,0-2.14.32,6.07,6.07,0,0,0-1.82.9,1.51,1.51,0,0,0-.44.49,1.41,1.41,0,0,0-.12.63,1.49,1.49,0,0,0,.3.94.94.94,0,0,0,.76.39,1.25,1.25,0,0,0,.45-.08l.54-.26.38-.18a9.77,9.77,0,0,1,1-.44,2.9,2.9,0,0,1,.94-.16,1.57,1.57,0,0,1,1.1.37,1.33,1.33,0,0,1,.4,1,1,1,0,0,1-.45.91,2.68,2.68,0,0,1-1.44.29h-.79a1,1,0,0,0-.85.38,1.46,1.46,0,0,0,0,1.8,1,1,0,0,0,.85.38h1.11a2.75,2.75,0,0,1,1.48.3,1.14,1.14,0,0,1,.45,1A1.25,1.25,0,0,1,37,49.38a2.48,2.48,0,0,1-1.45.33,3.07,3.07,0,0,1-1-.16,8.11,8.11,0,0,1-1-.44l-.23-.1-.17-.08-.54-.26a1.25,1.25,0,0,0-.45-.08.91.91,0,0,0-.75.39,1.44,1.44,0,0,0-.31.94A1.3,1.3,0,0,0,31.6,51a5.92,5.92,0,0,0,1.87.91,8,8,0,0,0,2.25.31,6.68,6.68,0,0,0,2.55-.44A3.8,3.8,0,0,0,40,50.57a3.12,3.12,0,0,0,.59-1.91,3.19,3.19,0,0,0-.6-2A3.11,3.11,0,0,0,38.28,45.58Zm48.88-2.82a6,6,0,0,0-2.38.44v-3H90c1.4,0,2.09-.56,2.09-1.68s-.69-1.65-2.09-1.65H82.52a2,2,0,0,0-1.51.53A2.07,2.07,0,0,0,80.48,39v6.51a1.32,1.32,0,0,0,.46,1,1.68,1.68,0,0,0,1.13.4,2.28,2.28,0,0,0,1.08-.27,8.39,8.39,0,0,1,1.38-.43,6.57,6.57,0,0,1,1.31-.12,2.71,2.71,0,0,1,1.87.6,2.13,2.13,0,0,1,.67,1.68,2.08,2.08,0,0,1-.65,1.69,3.05,3.05,0,0,1-2,.54,4.08,4.08,0,0,1-1.33-.21c-.41-.15-.86-.34-1.36-.58l-.48-.24a5.84,5.84,0,0,0-.72-.36,1.71,1.71,0,0,0-.6-.1,1.27,1.27,0,0,0-1,.52,2,2,0,0,0-.4,1.26,1.78,1.78,0,0,0,.18.83,2.1,2.1,0,0,0,.56.66A8.06,8.06,0,0,0,83,53.59,9.93,9.93,0,0,0,86,54a7.79,7.79,0,0,0,3.43-.72,5.38,5.38,0,0,0,2.3-2,5.64,5.64,0,0,0,.82-3,5.72,5.72,0,0,0-.69-2.84,4.72,4.72,0,0,0-1.89-1.92A5.5,5.5,0,0,0,87.16,42.76ZM96.44,54a2.21,2.21,0,0,0,1.65-.67,2.41,2.41,0,0,0,0-3.31,2.38,2.38,0,0,0-3.31,0,2.41,2.41,0,0,0,0,3.31A2.22,2.22,0,0,0,96.44,54ZM110,45.12a3.88,3.88,0,0,0,1.9-1.46,3.94,3.94,0,0,0,.69-2.31,4.24,4.24,0,0,0-.73-2.45,4.73,4.73,0,0,0-2.09-1.63,7.87,7.87,0,0,0-3.13-.58,10,10,0,0,0-2.85.43,8,8,0,0,0-2.43,1.2,1.9,1.9,0,0,0-.58.65,1.93,1.93,0,0,0-.17.84,2,2,0,0,0,.41,1.26,1.23,1.23,0,0,0,1,.52,1.64,1.64,0,0,0,.6-.11c.17-.07.41-.19.72-.35l.5-.24a12.16,12.16,0,0,1,1.31-.57,3.48,3.48,0,0,1,1.26-.22,2,2,0,0,1,1.46.49,1.81,1.81,0,0,1,.53,1.38,1.36,1.36,0,0,1-.6,1.23,3.74,3.74,0,0,1-1.92.38h-1a1.39,1.39,0,0,0-1.13.5,1.88,1.88,0,0,0-.41,1.2,1.84,1.84,0,0,0,.41,1.2,1.37,1.37,0,0,0,1.13.51h1.48a3.55,3.55,0,0,1,2,.41,1.5,1.5,0,0,1,.6,1.34,1.68,1.68,0,0,1-.59,1.44,3.3,3.3,0,0,1-1.93.43,4.55,4.55,0,0,1-1.38-.2,10.53,10.53,0,0,1-1.38-.59l-.3-.13-.23-.11a7.36,7.36,0,0,0-.72-.35,1.57,1.57,0,0,0-.6-.11,1.24,1.24,0,0,0-1,.52,1.91,1.91,0,0,0-.41,1.26,1.78,1.78,0,0,0,.17.83,1.9,1.9,0,0,0,.57.66,7.76,7.76,0,0,0,2.5,1.21,10.66,10.66,0,0,0,3,.42,9,9,0,0,0,3.39-.59,5.05,5.05,0,0,0,2.25-1.67,4.15,4.15,0,0,0,.79-2.54,4.26,4.26,0,0,0-.81-2.62A4,4,0,0,0,110,45.12ZM52.11,87.58H67.65a2.39,2.39,0,0,0,1.77-.74,2.48,2.48,0,0,0,.71-1.78,2.44,2.44,0,0,0-2.48-2.48H52.11a2.35,2.35,0,0,0-1.76.74,2.44,2.44,0,0,0-.72,1.78,2.44,2.44,0,0,0,2.48,2.48Zm7.56-7.9a2.54,2.54,0,0,0,1.91-.79A2.69,2.69,0,0,0,62.36,77a2.64,2.64,0,0,0-.78-1.89,2.7,2.7,0,0,0-3.8,0A2.66,2.66,0,0,0,57,77a2.74,2.74,0,0,0,.75,1.94A2.51,2.51,0,0,0,59.67,79.68Zm0,16.22a2.55,2.55,0,0,0,1.91-.8,2.61,2.61,0,0,0,.78-1.89,2.65,2.65,0,0,0-.78-1.93,2.52,2.52,0,0,0-1.91-.8,2.49,2.49,0,0,0-1.89.8A2.7,2.7,0,0,0,57,93.21a2.66,2.66,0,0,0,.75,1.91A2.54,2.54,0,0,0,59.67,95.9Z"/></svg>