<svg id="Layer_1" data-name="Layer 1" xmlns="http://www.w3.org/2000/svg" viewBox="0 0 122.3 122.3"><title>l9_4_1</title><path d="M122.24,36.18V52.84a8.66,8.66,0,0,1-8.66,8.66H99.5l0,22.48a4.37,4.37,0,0,1-4.66,4.66H76.71v3.75A8.69,8.69,0,0,1,68,101.08H51.44a8.7,8.7,0,0,1-8.7-8.69V88.64H24.41a4.45,4.45,0,0,1-2.93-1.23,4.94,4.94,0,0,1-1.3-3c-.33-2.63-.36-11.2,0-22.91H8.71A8.66,8.66,0,0,1,.06,52.84V36.18a8.65,8.65,0,0,1,8.65-8.65H42.36A8.65,8.65,0,0,1,51,36.18V52.84a8.66,8.66,0,0,1-8.65,8.66H28.66q0,9.21.05,18.42h14V75.8a8.7,8.7,0,0,1,8.7-8.69H68a8.69,8.69,0,0,1,8.69,8.69v4.12H90.9q0-9.21,0-18.42h-11a8.66,8.66,0,0,1-8.66-8.66V36.18a8.66,8.66,0,0,1,8.66-8.65h33.64A8.66,8.66,0,0,1,122.24,36.18ZM16.76,44.59A2.94,2.94,0,0,0,18.2,43.5a3,3,0,0,0,.51-1.74,3.11,3.11,0,0,0-.55-1.83,3.56,3.56,0,0,0-1.57-1.23,6.08,6.08,0,0,0-2.35-.43,7.07,7.07,0,0,0-2.13.33,5.79,5.79,0,0,0-1.83.9,1.2,1.2,0,0,0-.55,1.11,1.52,1.52,0,0,0,.3,1,.93.93,0,0,0,.76.38,1.06,1.06,0,0,0,.45-.08,6,6,0,0,0,.54-.26l.38-.18a9.52,9.52,0,0,1,1-.43,2.65,2.65,0,0,1,.94-.16,1.53,1.53,0,0,1,1.1.37,1.35,1.35,0,0,1,.4,1,1,1,0,0,1-.45.92,2.77,2.77,0,0,1-1.44.29h-.8a1,1,0,0,0-.84.38,1.35,1.35,0,0,0-.31.9,1.39,1.39,0,0,0,.31.9,1,1,0,0,0,.84.37H14a2.76,2.76,0,0,1,1.48.31,1.13,1.13,0,0,1,.45,1,1.27,1.27,0,0,1-.44,1.08,2.57,2.57,0,0,1-1.45.32,3.35,3.35,0,0,1-1-.15,8.11,8.11,0,0,1-1-.44l-.23-.1-.17-.08a6,6,0,0,0-.54-.26,1.06,1.06,0,0,0-.45-.08,1,1,0,0,0-.76.38,1.52,1.52,0,0,0-.3,1,1.46,1.46,0,0,0,.12.62,1.42,1.42,0,0,0,.44.49A5.62,5.62,0,0,0,12,51a8,8,0,0,0,2.25.32,6.88,6.88,0,0,0,2.55-.44,3.88,3.88,0,0,0,1.68-1.25,3.44,3.44,0,0,0,0-3.87A3,3,0,0,0,16.76,44.59ZM22.06,47h6.66a1,1,0,0,0,.75-.31,1,1,0,0,0,.31-.77,1,1,0,0,0-1.06-1.06H22.06a1,1,0,0,0-.76.31A1.09,1.09,0,0,0,21,46a1,1,0,0,0,.31.75A1,1,0,0,0,22.06,47Zm3.24-3.38a1.16,1.16,0,0,0,1.15-1.17,1.1,1.1,0,0,0-.33-.81,1.12,1.12,0,0,0-.82-.35,1.08,1.08,0,0,0-.81.34,1.11,1.11,0,0,0-.33.82,1.12,1.12,0,0,0,.33.82A1.05,1.05,0,0,0,25.3,43.64Zm0,6.94a1.11,1.11,0,0,0,.82-.34,1.13,1.13,0,0,0,.33-.81,1.16,1.16,0,0,0-.33-.83,1.15,1.15,0,0,0-.82-.34,1.08,1.08,0,0,0-.81.34,1.16,1.16,0,0,0-.33.83,1.11,1.11,0,0,0,.33.82A1.07,1.07,0,0,0,25.3,50.58ZM39.43,48.5H35.81l2.55-2.61a8.64,8.64,0,0,0,1.51-2,4.56,4.56,0,0,0,.44-2A3.29,3.29,0,0,0,39.76,40a3.64,3.64,0,0,0-1.56-1.26,5.85,5.85,0,0,0-2.34-.44,7,7,0,0,0-2.08.33,6.79,6.79,0,0,0-1.9.9,1.26,1.26,0,0,0-.44.46,1.73,1.73,0,0,0-.11.65,1.6,1.6,0,0,0,.3,1,.93.93,0,0,0,.76.4,1.27,1.27,0,0,0,.34,0,3.73,3.73,0,0,0,.37-.17l.28-.16.36-.18a8,8,0,0,1,1-.44,2.93,2.93,0,0,1,1-.15,1.46,1.46,0,0,1,1,.32,1.24,1.24,0,0,1,.35.94,3.5,3.5,0,0,1-1.19,2.28l-3.82,4a2,2,0,0,0-.61,1.41,1.37,1.37,0,0,0,.38,1,1.35,1.35,0,0,0,1,.38h6.57a1.81,1.81,0,0,0,1.18-.32,1.27,1.27,0,0,0,.38-1,1.22,1.22,0,0,0-.38-1A1.87,1.87,0,0,0,39.43,48.5Zm50.69,1h-2V38.13a2.11,2.11,0,0,0-.58-1.56A2.15,2.15,0,0,0,86,36a4.05,4.05,0,0,0-2,.6l-3.84,2.23a1.63,1.63,0,0,0-.84,1.49,2,2,0,0,0,.48,1.31,1.45,1.45,0,0,0,1.15.59,1.64,1.64,0,0,0,.84-.25l1.92-1.12v8.66H81.79a2.39,2.39,0,0,0-1.58.43,1.6,1.6,0,0,0-.5,1.3c0,1.18.69,1.77,2.08,1.77h8.33c1.4,0,2.09-.59,2.09-1.77a1.64,1.64,0,0,0-.5-1.3A2.42,2.42,0,0,0,90.12,49.51Zm5.38,3.65a2.24,2.24,0,0,0,1.64-.67,2.42,2.42,0,0,0,0-3.32,2.24,2.24,0,0,0-1.64-.67,2.33,2.33,0,1,0,0,4.66ZM107.14,42a6,6,0,0,0-2.38.43v-3H110c1.39,0,2.08-.56,2.08-1.68s-.69-1.66-2.08-1.66h-7.44a1.84,1.84,0,0,0-2,2.07v6.5a1.35,1.35,0,0,0,.45,1.05,1.69,1.69,0,0,0,1.13.39,2.27,2.27,0,0,0,1.08-.26,8.39,8.39,0,0,1,1.38-.43,6.57,6.57,0,0,1,1.31-.12,2.71,2.71,0,0,1,1.87.6,2.13,2.13,0,0,1,.67,1.68,2.06,2.06,0,0,1-.65,1.69,3.05,3.05,0,0,1-2,.54,3.83,3.83,0,0,1-1.33-.22A12.58,12.58,0,0,1,103,49l-.48-.24a5.84,5.84,0,0,0-.72-.36,1.49,1.49,0,0,0-.59-.1,1.22,1.22,0,0,0-1,.52,1.91,1.91,0,0,0-.41,1.26,1.74,1.74,0,0,0,.18.82,2,2,0,0,0,.56.66,7.63,7.63,0,0,0,2.46,1.2,10,10,0,0,0,2.92.44,7.76,7.76,0,0,0,3.43-.72,5.38,5.38,0,0,0,2.3-2,5.64,5.64,0,0,0,.82-3.05,5.89,5.89,0,0,0-.68-2.85,4.94,4.94,0,0,0-1.9-1.92A5.6,5.6,0,0,0,107.14,42ZM52.21,87.59H67.75a2.39,2.39,0,0,0,1.77-.74,2.48,2.48,0,0,0,.71-1.78,2.43,2.43,0,0,0-2.48-2.48H52.21a2.34,2.34,0,0,0-1.76.73,2.47,2.47,0,0,0-.72,1.79,2.46,2.46,0,0,0,2.48,2.48Zm7.56-7.9a2.57,2.57,0,0,0,1.91-.8A2.65,2.65,0,0,0,62.46,77a2.61,2.61,0,0,0-.78-1.89,2.57,2.57,0,0,0-1.91-.8,2.53,2.53,0,0,0-1.89.78A2.64,2.64,0,0,0,57.13,77a2.7,2.7,0,0,0,.75,1.93A2.51,2.51,0,0,0,59.77,79.69Zm0,16.21a2.53,2.53,0,0,0,1.91-.8,2.61,2.61,0,0,0,.78-1.89,2.66,2.66,0,0,0-.78-1.93,2.57,2.57,0,0,0-1.91-.8,2.51,2.51,0,0,0-1.89.8,2.72,2.72,0,0,0-.75,1.93,2.62,2.62,0,0,0,.75,1.91A2.53,2.53,0,0,0,59.77,95.9Z"/></svg>