<svg id="Layer_1" data-name="Layer 1" xmlns="http://www.w3.org/2000/svg" viewBox="0 0 122.3 122.3"><title>l9_4_1</title><path d="M122.41,34.13V50.79a8.65,8.65,0,0,1-8.65,8.65H99.67l0,22.48A4.36,4.36,0,0,1,95,86.58H76.88v3.75A8.69,8.69,0,0,1,68.19,99H51.61a8.69,8.69,0,0,1-8.69-8.69V86.58H24.58a4.39,4.39,0,0,1-2.93-1.23,4.92,4.92,0,0,1-1.3-3c-.33-2.63-.36-11.2,0-22.91H8.88A8.65,8.65,0,0,1,.23,50.79V34.13a8.66,8.66,0,0,1,8.65-8.66H42.53a8.66,8.66,0,0,1,8.65,8.66V50.79a8.65,8.65,0,0,1-8.65,8.65H28.83q0,9.21.05,18.42h14V73.75a8.7,8.7,0,0,1,8.69-8.7H68.19a8.7,8.7,0,0,1,8.69,8.7v4.11H91.07q0-9.21,0-18.42h-11a8.65,8.65,0,0,1-8.65-8.65V34.13a8.66,8.66,0,0,1,8.65-8.66h33.65A8.66,8.66,0,0,1,122.41,34.13Zm-105,8.4a2.64,2.64,0,0,0,1.41-1.06,3.12,3.12,0,0,0,.51-1.8,3,3,0,0,0-1.25-2.53,5.59,5.59,0,0,0-3.41-.92,5.6,5.6,0,0,0-3.4.92A3,3,0,0,0,10,39.67a3.13,3.13,0,0,0,.5,1.76,3,3,0,0,0,1.44,1.1,3,3,0,0,0-1.69,1.08,3.12,3.12,0,0,0-.59,2A3.08,3.08,0,0,0,11,48.25a6.16,6.16,0,0,0,3.66,1,6.16,6.16,0,0,0,3.66-1,3.08,3.08,0,0,0,1.34-2.67,3,3,0,0,0-2.26-3Zm-2.74,4.18c-1.31,0-2-.47-2-1.4s.65-1.41,2-1.41,2,.47,2,1.41S16,46.71,14.65,46.71Zm0-8a1.94,1.94,0,0,1,1.21.31,1.24,1.24,0,0,1,.39,1,1.27,1.27,0,0,1-.39,1,1.94,1.94,0,0,1-1.21.32,1.94,1.94,0,0,1-1.21-.32,1.27,1.27,0,0,1-.39-1,1.24,1.24,0,0,1,.39-1A1.94,1.94,0,0,1,14.65,38.72ZM22.23,45h6.66a1,1,0,0,0,.75-.31,1,1,0,0,0,.31-.77,1.06,1.06,0,0,0-1.06-1.06H22.23a1,1,0,0,0-.76.32A1.06,1.06,0,0,0,22.23,45Zm3.24-3.38a1.11,1.11,0,0,0,.82-.34,1.16,1.16,0,0,0,.33-.83,1.13,1.13,0,0,0-.33-.81,1.11,1.11,0,0,0-.82-.34,1.07,1.07,0,0,0-.81.33,1.12,1.12,0,0,0-.33.82,1.16,1.16,0,0,0,.33.83A1,1,0,0,0,25.47,41.58Zm0,7a1.15,1.15,0,0,0,.82-.34,1.13,1.13,0,0,0,.33-.81,1.15,1.15,0,0,0-.33-.83,1.11,1.11,0,0,0-.82-.34,1,1,0,0,0-.81.34,1.15,1.15,0,0,0-.33.83,1.1,1.1,0,0,0,.33.81A1,1,0,0,0,25.47,48.53ZM39.6,46.44H36l2.56-2.61a8.64,8.64,0,0,0,1.5-2,4.55,4.55,0,0,0,.44-2,3.25,3.25,0,0,0-.55-1.88,3.45,3.45,0,0,0-1.56-1.26A5.68,5.68,0,0,0,36,36.22a7,7,0,0,0-2.08.32,7.17,7.17,0,0,0-1.89.9,1.17,1.17,0,0,0-.45.47,1.69,1.69,0,0,0-.11.65,1.57,1.57,0,0,0,.3,1,.93.93,0,0,0,.76.4,1,1,0,0,0,.34-.05,2.31,2.31,0,0,0,.37-.17l.28-.15.36-.18a8.24,8.24,0,0,1,1-.45,2.93,2.93,0,0,1,1-.15,1.42,1.42,0,0,1,1,.33,1.2,1.2,0,0,1,.35.93,3.52,3.52,0,0,1-1.19,2.29l-3.81,4a2,2,0,0,0-.62,1.4,1.35,1.35,0,0,0,.38,1,1.37,1.37,0,0,0,1,.39H39.6a1.79,1.79,0,0,0,1.18-.33,1.25,1.25,0,0,0,.38-1,1.22,1.22,0,0,0-.38-1A1.91,1.91,0,0,0,39.6,46.44Zm62.27.12h-.53V37.9a2,2,0,0,0-.64-1.61,2.32,2.32,0,0,0-1.56-.58,2.38,2.38,0,0,0-1.07.26,2.07,2.07,0,0,0-.85.73l-6.87,9.79a2.7,2.7,0,0,0-.53,1.58,1.82,1.82,0,0,0,.51,1.32,1.76,1.76,0,0,0,1.37.53h5.35v.82a2.1,2.1,0,0,0,.59,1.63,2.14,2.14,0,0,0,1.54.55,2.2,2.2,0,0,0,1.56-.55,2.11,2.11,0,0,0,.6-1.63v-.82h.53c1.39,0,2.09-.57,2.09-1.7S103.26,46.56,101.87,46.56Zm-7.7,0,2.88-4.15v4.15Zm-41.79,38H67.92a2.39,2.39,0,0,0,1.77-.74A2.48,2.48,0,0,0,70.4,82a2.44,2.44,0,0,0-2.48-2.48H52.38a2.35,2.35,0,0,0-1.76.74,2.44,2.44,0,0,0-.72,1.78,2.44,2.44,0,0,0,2.48,2.48Zm7.56-7.9a2.54,2.54,0,0,0,1.91-.79,2.69,2.69,0,0,0,.78-1.94A2.64,2.64,0,0,0,61.85,72a2.68,2.68,0,0,0-3.8,0,2.66,2.66,0,0,0-.75,1.91,2.74,2.74,0,0,0,.75,1.94A2.51,2.51,0,0,0,59.94,76.63Zm0,16.22a2.55,2.55,0,0,0,1.91-.8,2.61,2.61,0,0,0,.78-1.89,2.65,2.65,0,0,0-.78-1.93,2.52,2.52,0,0,0-1.91-.8,2.49,2.49,0,0,0-1.89.8,2.7,2.7,0,0,0-.75,1.93,2.66,2.66,0,0,0,.75,1.91A2.54,2.54,0,0,0,59.94,92.85Z"/></svg>