<svg id="Layer_1" data-name="Layer 1" xmlns="http://www.w3.org/2000/svg" viewBox="0 0 122.3 122.3"><title>l9_4_1</title><path d="M122.24,38V54.68a8.65,8.65,0,0,1-8.65,8.65H99.51q0,11.24,0,22.48a4.37,4.37,0,0,1-4.66,4.66H76.72v3.75a8.7,8.7,0,0,1-8.7,8.69H51.44a8.69,8.69,0,0,1-8.69-8.69V90.47H24.41a4.37,4.37,0,0,1-2.92-1.23,4.9,4.9,0,0,1-1.31-3c-.33-2.63-.36-11.2,0-22.91H8.72A8.66,8.66,0,0,1,.06,54.68V38a8.66,8.66,0,0,1,8.66-8.65H42.36A8.65,8.65,0,0,1,51,38V54.68a8.65,8.65,0,0,1-8.65,8.65H28.66q0,9.21.05,18.42h14V77.63a8.69,8.69,0,0,1,8.69-8.69H68a8.7,8.7,0,0,1,8.7,8.69v4.12H90.91q0-9.21,0-18.42h-11a8.65,8.65,0,0,1-8.65-8.65V38a8.65,8.65,0,0,1,8.65-8.65h33.65A8.65,8.65,0,0,1,122.24,38ZM15.37,44.66a4.64,4.64,0,0,0-1.78.32V42.77h3.89c1,0,1.57-.42,1.57-1.26s-.53-1.24-1.57-1.24H11.9a1.38,1.38,0,0,0-1.53,1.54v4.88a1,1,0,0,0,.34.79,1.29,1.29,0,0,0,.85.29,1.62,1.62,0,0,0,.81-.2,6.85,6.85,0,0,1,1-.32,5,5,0,0,1,1-.09,2.06,2.06,0,0,1,1.41.45,1.62,1.62,0,0,1,.5,1.26,1.57,1.57,0,0,1-.48,1.27,2.34,2.34,0,0,1-1.5.4,3,3,0,0,1-1-.16,10.82,10.82,0,0,1-1-.43l-.36-.18q-.36-.2-.54-.27a1.18,1.18,0,0,0-.45-.07.93.93,0,0,0-.76.39,1.48,1.48,0,0,0-.31.94,1.32,1.32,0,0,0,.14.62,1.6,1.6,0,0,0,.42.5,6.13,6.13,0,0,0,1.85.9,7.67,7.67,0,0,0,2.18.32,5.86,5.86,0,0,0,2.58-.54A4.09,4.09,0,0,0,18.78,51a4.33,4.33,0,0,0,.61-2.29,4.25,4.25,0,0,0-.52-2.13,3.58,3.58,0,0,0-1.42-1.44A4.16,4.16,0,0,0,15.37,44.66Zm6.7,4.19h6.66a1,1,0,0,0,.76-.31,1.08,1.08,0,0,0,.3-.77,1,1,0,0,0-1.06-1.06H22.07a1,1,0,0,0-.76.32,1.06,1.06,0,0,0,.76,1.82Zm3.24-3.38a1.13,1.13,0,0,0,.82-.34,1.16,1.16,0,0,0,.33-.83,1.13,1.13,0,0,0-.33-.81,1.13,1.13,0,0,0-1.95.81,1.15,1.15,0,0,0,.32.83A1.11,1.11,0,0,0,25.31,45.47Zm0,7a1.16,1.16,0,0,0,1.15-1.16,1.12,1.12,0,0,0-.33-.82,1.1,1.1,0,0,0-.82-.35,1.08,1.08,0,0,0-.81.35,1.12,1.12,0,0,0-.32.82,1.1,1.1,0,0,0,.32.82A1.07,1.07,0,0,0,25.31,52.42Zm13.07-6a2.92,2.92,0,0,0,1.43-1.09,3,3,0,0,0,.51-1.73,3.12,3.12,0,0,0-.55-1.84,3.44,3.44,0,0,0-1.56-1.22,6,6,0,0,0-2.35-.44,7.18,7.18,0,0,0-2.14.33,5.64,5.64,0,0,0-1.82.9,1.49,1.49,0,0,0-.44.48,1.48,1.48,0,0,0-.12.63,1.45,1.45,0,0,0,.31,1,.91.91,0,0,0,.75.39,1.25,1.25,0,0,0,.45-.08l.54-.27.38-.18a10.57,10.57,0,0,1,1-.43,2.65,2.65,0,0,1,.94-.16,1.53,1.53,0,0,1,1.1.37,1.33,1.33,0,0,1,.4,1,1,1,0,0,1-.45.92,2.77,2.77,0,0,1-1.44.29h-.79a1,1,0,0,0-.85.38,1.46,1.46,0,0,0,0,1.8,1,1,0,0,0,.85.38h1.11a2.75,2.75,0,0,1,1.48.3,1.14,1.14,0,0,1,.45,1,1.27,1.27,0,0,1-.44,1.08,2.49,2.49,0,0,1-1.45.32,3.35,3.35,0,0,1-1-.15,8.11,8.11,0,0,1-1-.44l-.23-.1-.17-.08a6,6,0,0,0-.54-.26,1.25,1.25,0,0,0-.45-.08.91.91,0,0,0-.75.39,1.42,1.42,0,0,0-.31.94,1.3,1.3,0,0,0,.56,1.12,5.92,5.92,0,0,0,1.87.91,8,8,0,0,0,2.25.31,6.88,6.88,0,0,0,2.55-.44,3.8,3.8,0,0,0,1.68-1.25,3.13,3.13,0,0,0,.6-1.91,3.2,3.2,0,0,0-.61-2A3.11,3.11,0,0,0,38.38,46.42Zm58,2.42a1.44,1.44,0,0,0,.91-.3,1.33,1.33,0,0,0,.49-.85,2.27,2.27,0,0,1,.56-1,10.41,10.41,0,0,1,1.27-1.16c.58-.52,1-1,1.42-1.33a5.15,5.15,0,0,0,.94-1.32,3.76,3.76,0,0,0,.39-1.7,3.71,3.71,0,0,0-.73-2.24,4.76,4.76,0,0,0-2-1.55,7,7,0,0,0-2.9-.56,9.33,9.33,0,0,0-2.89.46,8.92,8.92,0,0,0-2.56,1.29,2.09,2.09,0,0,0-.61.67,1.79,1.79,0,0,0-.19.88A2,2,0,0,0,91,41.43,1.31,1.31,0,0,0,92,42a3.06,3.06,0,0,0,1.38-.48l.59-.3a8.43,8.43,0,0,1,1.27-.61,3.2,3.2,0,0,1,1.14-.21,1.65,1.65,0,0,1,1.09.32,1.08,1.08,0,0,1,.41.88,1.85,1.85,0,0,1-.29,1,8.73,8.73,0,0,1-.87,1.07,8.48,8.48,0,0,0-1.25,1.61,3.93,3.93,0,0,0-.45,2,1.78,1.78,0,0,0,.37,1.2A1.26,1.26,0,0,0,96.42,48.84Zm0,6a2.37,2.37,0,0,0,1.74-.7,2.43,2.43,0,0,0,.69-1.73,2.38,2.38,0,0,0-.69-1.72,2.33,2.33,0,0,0-1.74-.7,2.29,2.29,0,0,0-1.71.7,2.34,2.34,0,0,0-.69,1.72,2.38,2.38,0,0,0,.69,1.73A2.33,2.33,0,0,0,96.47,54.82ZM52.21,88.42H67.75a2.39,2.39,0,0,0,1.77-.74,2.48,2.48,0,0,0,.71-1.78,2.43,2.43,0,0,0-2.48-2.48H52.21a2.39,2.39,0,0,0-1.76.73,2.47,2.47,0,0,0-.71,1.79,2.36,2.36,0,0,0,.71,1.76A2.38,2.38,0,0,0,52.21,88.42Zm7.56-7.9a2.55,2.55,0,0,0,1.92-.8,2.68,2.68,0,0,0,.77-1.93,2.64,2.64,0,0,0-.77-1.89,2.59,2.59,0,0,0-1.92-.8,2.54,2.54,0,0,0-1.89.78,2.66,2.66,0,0,0-.75,1.91,2.7,2.7,0,0,0,.75,1.93A2.49,2.49,0,0,0,59.77,80.52Zm0,16.21a2.58,2.58,0,0,0,1.92-.79,2.67,2.67,0,0,0,.77-1.89,2.72,2.72,0,0,0-.77-1.94,2.58,2.58,0,0,0-1.92-.79,2.51,2.51,0,0,0-1.89.79,2.74,2.74,0,0,0-.75,1.94A2.66,2.66,0,0,0,57.88,96,2.53,2.53,0,0,0,59.77,96.73Z"/></svg>