<svg id="Layer_1" data-name="Layer 1" xmlns="http://www.w3.org/2000/svg" viewBox="0 0 122.3 122.3"><title>l9_4_1</title><path d="M122.24,32.08V48.75a8.66,8.66,0,0,1-8.66,8.65H99.5l0,22.48a4.37,4.37,0,0,1-4.66,4.66H76.71v3.75A8.69,8.69,0,0,1,68,97H51.44a8.7,8.7,0,0,1-8.7-8.69V84.54H24.41a4.45,4.45,0,0,1-2.93-1.23,4.94,4.94,0,0,1-1.3-3c-.33-2.63-.36-11.2,0-22.91H8.71A8.65,8.65,0,0,1,.06,48.75V32.08a8.65,8.65,0,0,1,8.65-8.65H42.36A8.65,8.65,0,0,1,51,32.08V48.75a8.65,8.65,0,0,1-8.65,8.65H28.66q0,9.21.05,18.42h14V71.7A8.7,8.7,0,0,1,51.44,63H68a8.69,8.69,0,0,1,8.69,8.69v4.12H90.9q0-9.21,0-18.42h-11a8.66,8.66,0,0,1-8.66-8.65V32.08a8.66,8.66,0,0,1,8.66-8.65h33.64A8.66,8.66,0,0,1,122.24,32.08ZM15.56,38.67A3.36,3.36,0,0,0,14,39a2.84,2.84,0,0,0-1.11.91,4.71,4.71,0,0,1,.68-2.35,1.71,1.71,0,0,1,1.48-.84,2.58,2.58,0,0,1,.83.14c.26.1.59.24,1,.43l.39.2a6,6,0,0,0,.54.26,1.12,1.12,0,0,0,.45.08,1,1,0,0,0,.77-.38,1.47,1.47,0,0,0,.31-1,1.34,1.34,0,0,0-.13-.63,1.5,1.5,0,0,0-.44-.48A5.58,5.58,0,0,0,17,34.5a6.86,6.86,0,0,0-2.06-.33,4.88,4.88,0,0,0-2.8.81,5.14,5.14,0,0,0-1.85,2.32,8.67,8.67,0,0,0-.66,3.52A7.15,7.15,0,0,0,11,45.53a4.84,4.84,0,0,0,3.93,1.66,4.64,4.64,0,0,0,2.28-.56,4,4,0,0,0,1.58-1.56,4.46,4.46,0,0,0,.57-2.26,4.52,4.52,0,0,0-.5-2.13A3.74,3.74,0,0,0,17.5,39.2,3.64,3.64,0,0,0,15.56,38.67Zm-.83,6a1.44,1.44,0,0,1-1.12-.48,1.81,1.81,0,0,1-.43-1.23,1.73,1.73,0,0,1,.43-1.24,1.4,1.4,0,0,1,1.12-.47,1.42,1.42,0,0,1,1.13.46,2.12,2.12,0,0,1,0,2.49A1.43,1.43,0,0,1,14.73,44.65Zm7.33-1.73h6.66a1,1,0,0,0,.75-.31,1,1,0,0,0,.31-.77,1.06,1.06,0,0,0-1.06-1.06H22.06a1,1,0,0,0-.76.31,1.09,1.09,0,0,0-.31.77,1,1,0,0,0,.31.75A1,1,0,0,0,22.06,42.92Zm3.24-3.38a1.16,1.16,0,0,0,1.15-1.17,1.13,1.13,0,0,0-.33-.81,1.12,1.12,0,0,0-.82-.35,1.08,1.08,0,0,0-.81.34,1.11,1.11,0,0,0-.33.82,1.12,1.12,0,0,0,.33.82A1.05,1.05,0,0,0,25.3,39.54Zm0,6.94a1.14,1.14,0,0,0,1.15-1.15,1.16,1.16,0,0,0-.33-.83,1.15,1.15,0,0,0-.82-.34,1.08,1.08,0,0,0-.81.34,1.16,1.16,0,0,0-.33.83,1.11,1.11,0,0,0,.33.82A1.07,1.07,0,0,0,25.3,46.48ZM39.43,44.4H35.81l2.55-2.61a8.64,8.64,0,0,0,1.51-2,4.56,4.56,0,0,0,.44-2,3.29,3.29,0,0,0-.55-1.88,3.64,3.64,0,0,0-1.56-1.26,5.85,5.85,0,0,0-2.34-.44,7,7,0,0,0-2.08.33,6.79,6.79,0,0,0-1.9.9,1.26,1.26,0,0,0-.44.46,1.73,1.73,0,0,0-.11.65,1.6,1.6,0,0,0,.3,1,.93.93,0,0,0,.76.4,1.27,1.27,0,0,0,.34-.05,3.73,3.73,0,0,0,.37-.17l.28-.16.36-.18a8,8,0,0,1,1-.44,2.93,2.93,0,0,1,1-.15,1.46,1.46,0,0,1,1,.32,1.24,1.24,0,0,1,.35.94,3.48,3.48,0,0,1-1.19,2.28l-3.82,4a2,2,0,0,0-.61,1.41,1.37,1.37,0,0,0,.38,1,1.35,1.35,0,0,0,1,.38h6.57a1.81,1.81,0,0,0,1.18-.32,1.27,1.27,0,0,0,.38-1,1.22,1.22,0,0,0-.38-1A1.87,1.87,0,0,0,39.43,44.4Zm59.12-2.2a3.81,3.81,0,0,0,1.9-1.45,3.94,3.94,0,0,0,.69-2.31,4.24,4.24,0,0,0-.73-2.45,4.66,4.66,0,0,0-2.09-1.63,7.87,7.87,0,0,0-3.13-.58,9.61,9.61,0,0,0-2.85.43,8,8,0,0,0-2.43,1.2,1.9,1.9,0,0,0-.58.65,1.87,1.87,0,0,0-.17.84,2,2,0,0,0,.41,1.26,1.26,1.26,0,0,0,1,.52,1.64,1.64,0,0,0,.6-.11c.17-.07.41-.19.72-.35l.5-.24c.48-.24.92-.43,1.31-.58A3.7,3.7,0,0,1,95,37.19a2.09,2.09,0,0,1,1.47.49A1.8,1.8,0,0,1,97,39.06a1.33,1.33,0,0,1-.6,1.22,3.63,3.63,0,0,1-1.92.39h-1a1.39,1.39,0,0,0-1.13.5,1.88,1.88,0,0,0-.41,1.2,1.84,1.84,0,0,0,.41,1.2,1.37,1.37,0,0,0,1.13.51h1.48a3.63,3.63,0,0,1,2,.4,1.52,1.52,0,0,1,.6,1.35,1.68,1.68,0,0,1-.58,1.44,3.35,3.35,0,0,1-1.94.43,4.55,4.55,0,0,1-1.38-.2,12.1,12.1,0,0,1-1.38-.59l-.3-.13-.23-.11a7.36,7.36,0,0,0-.72-.35,1.55,1.55,0,0,0-.59-.11,1.22,1.22,0,0,0-1,.52A1.91,1.91,0,0,0,88.9,48a1.81,1.81,0,0,0,.17.83,1.9,1.9,0,0,0,.57.66,8,8,0,0,0,2.5,1.21,10.66,10.66,0,0,0,3,.42,9,9,0,0,0,3.39-.59,5.05,5.05,0,0,0,2.25-1.67,4.17,4.17,0,0,0,.79-2.54,4.29,4.29,0,0,0-.8-2.62A4.16,4.16,0,0,0,98.55,42.2ZM52.21,83.49H67.75a2.39,2.39,0,0,0,1.77-.74A2.48,2.48,0,0,0,70.23,81a2.43,2.43,0,0,0-2.48-2.48H52.21a2.34,2.34,0,0,0-1.76.73A2.47,2.47,0,0,0,49.73,81a2.46,2.46,0,0,0,2.48,2.48Zm7.56-7.9a2.57,2.57,0,0,0,1.91-.8,2.65,2.65,0,0,0,.78-1.93A2.61,2.61,0,0,0,61.68,71a2.57,2.57,0,0,0-1.91-.8,2.53,2.53,0,0,0-1.89.78,2.64,2.64,0,0,0-.75,1.91,2.7,2.7,0,0,0,.75,1.93A2.51,2.51,0,0,0,59.77,75.59Zm0,16.21a2.53,2.53,0,0,0,1.91-.8,2.61,2.61,0,0,0,.78-1.89,2.66,2.66,0,0,0-.78-1.93,2.57,2.57,0,0,0-1.91-.8,2.51,2.51,0,0,0-1.89.8,2.72,2.72,0,0,0-.75,1.93A2.62,2.62,0,0,0,57.88,91,2.53,2.53,0,0,0,59.77,91.8Z"/></svg>