<svg id="Layer_1" data-name="Layer 1" xmlns="http://www.w3.org/2000/svg" viewBox="0 0 122.3 122.3"><title>l9_5_1</title><path d="M122.24,36.14V52.81a8.65,8.65,0,0,1-8.65,8.65H99.51q0,11.24,0,22.48a4.37,4.37,0,0,1-4.66,4.66H76.72v3.75A8.7,8.7,0,0,1,68,101H51.44a8.69,8.69,0,0,1-8.69-8.69V88.6H24.41a4.37,4.37,0,0,1-2.92-1.23,4.9,4.9,0,0,1-1.31-3c-.33-2.63-.36-11.2,0-22.91H8.72A8.66,8.66,0,0,1,.06,52.81V36.14a8.66,8.66,0,0,1,8.66-8.65H42.36A8.65,8.65,0,0,1,51,36.14V52.81a8.65,8.65,0,0,1-8.65,8.65H28.66q0,9.21.05,18.42h14V75.76a8.69,8.69,0,0,1,8.69-8.69H68a8.7,8.7,0,0,1,8.7,8.69v4.12H90.91q0-9.21,0-18.42h-11a8.65,8.65,0,0,1-8.65-8.65V36.14a8.65,8.65,0,0,1,8.65-8.65h33.65A8.65,8.65,0,0,1,122.24,36.14ZM16.78,44.55a2.92,2.92,0,0,0,1.43-1.09,3,3,0,0,0,.51-1.73,3.12,3.12,0,0,0-.55-1.84,3.39,3.39,0,0,0-1.56-1.22,5.93,5.93,0,0,0-2.35-.44,7.18,7.18,0,0,0-2.14.33,5.64,5.64,0,0,0-1.82.9,1.24,1.24,0,0,0-.56,1.11,1.45,1.45,0,0,0,.31,1,.91.91,0,0,0,.75.39,1.25,1.25,0,0,0,.45-.08l.54-.27.38-.18a10.57,10.57,0,0,1,1-.43,2.71,2.71,0,0,1,.95-.16,1.52,1.52,0,0,1,1.09.37,1.33,1.33,0,0,1,.4,1,1,1,0,0,1-.45.92,2.77,2.77,0,0,1-1.44.29h-.79a1.05,1.05,0,0,0-.85.38,1.5,1.5,0,0,0,0,1.8,1.05,1.05,0,0,0,.85.38H14a2.75,2.75,0,0,1,1.48.3,1.14,1.14,0,0,1,.45,1,1.27,1.27,0,0,1-.44,1.08,2.49,2.49,0,0,1-1.45.32,3.28,3.28,0,0,1-1-.15,7.62,7.62,0,0,1-1-.44l-.23-.1-.17-.08a4.16,4.16,0,0,0-.54-.26,1.25,1.25,0,0,0-.45-.08.91.91,0,0,0-.75.39,1.42,1.42,0,0,0-.31.94,1.32,1.32,0,0,0,.13.62,1.41,1.41,0,0,0,.43.5,5.92,5.92,0,0,0,1.87.91,8,8,0,0,0,2.25.31,6.88,6.88,0,0,0,2.55-.44,3.74,3.74,0,0,0,1.68-1.25,3.13,3.13,0,0,0,.6-1.91,3.2,3.2,0,0,0-.61-2A3.07,3.07,0,0,0,16.78,44.55Zm10,1.35L28.75,44a1.1,1.1,0,0,0,.32-.78,1,1,0,0,0-.32-.74,1.05,1.05,0,0,0-1.51,0l-1.95,1.95-1.94-1.95a1.08,1.08,0,0,0-.76-.34.94.94,0,0,0-.74.33,1.06,1.06,0,0,0-.32.77,1.09,1.09,0,0,0,.31.76l1.94,1.92-1.94,2a1,1,0,0,0-.33.75,1,1,0,0,0,.33.76,1.1,1.1,0,0,0,.75.3,1.06,1.06,0,0,0,.76-.3l1.94-2,1.95,2a1,1,0,0,0,.75.32,1.07,1.07,0,0,0,.76-.32,1.06,1.06,0,0,0,.3-.76,1,1,0,0,0-.3-.75Zm11.58-1.35a2.92,2.92,0,0,0,1.43-1.09,3,3,0,0,0,.51-1.73,3.12,3.12,0,0,0-.55-1.84,3.44,3.44,0,0,0-1.56-1.22,5.93,5.93,0,0,0-2.35-.44,7.18,7.18,0,0,0-2.14.33,5.64,5.64,0,0,0-1.82.9,1.49,1.49,0,0,0-.44.48,1.48,1.48,0,0,0-.12.63,1.45,1.45,0,0,0,.31,1,.91.91,0,0,0,.75.39,1.25,1.25,0,0,0,.45-.08l.54-.27.38-.18a10.57,10.57,0,0,1,1-.43,2.67,2.67,0,0,1,1-.16,1.52,1.52,0,0,1,1.09.37,1.33,1.33,0,0,1,.4,1,1,1,0,0,1-.45.92,2.77,2.77,0,0,1-1.44.29h-.79a1.05,1.05,0,0,0-.85.38,1.5,1.5,0,0,0,0,1.8,1.05,1.05,0,0,0,.85.38h1.11a2.75,2.75,0,0,1,1.48.3,1.14,1.14,0,0,1,.45,1,1.27,1.27,0,0,1-.44,1.08,2.49,2.49,0,0,1-1.45.32,3.39,3.39,0,0,1-1-.15,8.11,8.11,0,0,1-1-.44l-.23-.1-.17-.08a4.89,4.89,0,0,0-.54-.26,1.25,1.25,0,0,0-.45-.08.91.91,0,0,0-.75.39,1.42,1.42,0,0,0-.31.94,1.32,1.32,0,0,0,.13.62,1.41,1.41,0,0,0,.43.5,5.92,5.92,0,0,0,1.87.91,8,8,0,0,0,2.25.31,6.88,6.88,0,0,0,2.55-.44,3.74,3.74,0,0,0,1.68-1.25,3.13,3.13,0,0,0,.6-1.91,3.2,3.2,0,0,0-.61-2A3.07,3.07,0,0,0,38.38,44.55ZM95.79,33.38a7.76,7.76,0,0,0-3.81.93,6.72,6.72,0,0,0-2.62,2.59,8,8,0,0,0-.12,7.32,6.18,6.18,0,0,0,2.26,2.46,6.08,6.08,0,0,0,3.25.89A5.79,5.79,0,0,0,97.28,47a4.73,4.73,0,0,0,1.84-1.51A8,8,0,0,1,98,49.41a2.88,2.88,0,0,1-2.47,1.4,4,4,0,0,1-1.39-.24c-.43-.16-1-.4-1.64-.72l-.67-.33c-.37-.2-.68-.35-.89-.44a2,2,0,0,0-.75-.13,1.58,1.58,0,0,0-1.28.64,2.43,2.43,0,0,0-.53,1.58,2.2,2.2,0,0,0,.23,1,2.58,2.58,0,0,0,.73.81,9.7,9.7,0,0,0,3,1.5,11.61,11.61,0,0,0,3.43.54,8.14,8.14,0,0,0,4.67-1.35,8.75,8.75,0,0,0,3.09-3.86A14.52,14.52,0,0,0,104.64,44q0-5.1-2.31-7.86A8,8,0,0,0,95.79,33.38Zm.33,9.93a2.36,2.36,0,0,1-1.87-.77,3,3,0,0,1-.68-2.08,3,3,0,0,1,.7-2.07,2.32,2.32,0,0,1,1.85-.78A2.39,2.39,0,0,1,98,38.4a3.32,3.32,0,0,1,0,4.13A2.42,2.42,0,0,1,96.12,43.31ZM58.48,87.23l-2.6-2.5,2.29-2.27a1.68,1.68,0,0,0,.54-1.2A1.76,1.76,0,0,0,57,79.58a1.63,1.63,0,0,0-1.22.55l-3.88,4V77a1.6,1.6,0,0,0-.54-1.31,2.23,2.23,0,0,0-2.66,0A1.6,1.6,0,0,0,48.17,77V88.49a1.59,1.59,0,0,0,.54,1.3,2.23,2.23,0,0,0,2.66,0,1.59,1.59,0,0,0,.54-1.3V85.65l4.26,4a1.8,1.8,0,0,0,1.18.53,1.54,1.54,0,0,0,1.19-.55A1.82,1.82,0,0,0,59,88.44,1.61,1.61,0,0,0,58.48,87.23Zm11-7.65a2,2,0,0,0-1.3.41,1.5,1.5,0,0,0-.53,1.12A3.13,3.13,0,0,0,66.29,80a4.23,4.23,0,0,0-1.89-.42,4.48,4.48,0,0,0-2.39.64A4.33,4.33,0,0,0,60.37,82a6,6,0,0,0-.58,2.71,5.89,5.89,0,0,0,.58,2.69A4.28,4.28,0,0,0,62,89.2a4.56,4.56,0,0,0,2.39.63,4.3,4.3,0,0,0,1.87-.41,3.17,3.17,0,0,0,1.33-1.1v.8a2.16,2.16,0,0,1-.6,1.69,2.81,2.81,0,0,1-1.88.53,5.07,5.07,0,0,1-1-.11c-.34-.08-.72-.19-1.16-.33a5.31,5.31,0,0,0-1.36-.31,1,1,0,0,0-.79.37,1.56,1.56,0,0,0-.3,1,1.35,1.35,0,0,0,.22.76,1.66,1.66,0,0,0,.6.54,5.81,5.81,0,0,0,1.74.61,10.9,10.9,0,0,0,2.18.21,6.8,6.8,0,0,0,4.53-1.32,4.84,4.84,0,0,0,1.54-3.89V81.3a1.67,1.67,0,0,0-.5-1.25A1.92,1.92,0,0,0,69.45,79.58ZM65.54,87a1.92,1.92,0,0,1-1.5-.62,2.5,2.5,0,0,1-.56-1.71A2.56,2.56,0,0,1,64,83a2.16,2.16,0,0,1,3,0,2.55,2.55,0,0,1,.55,1.75,2.47,2.47,0,0,1-.55,1.72A2,2,0,0,1,65.54,87Z"/></svg>