<svg id="Layer_1" data-name="Layer 1" xmlns="http://www.w3.org/2000/svg" viewBox="0 0 122.3 122.3"><title>l9_5_1</title><path d="M122.24,38.53V55.19a8.66,8.66,0,0,1-8.65,8.66H99.51q0,11.24,0,22.48A4.37,4.37,0,0,1,94.87,91H76.72v3.75a8.7,8.7,0,0,1-8.7,8.69H51.44a8.69,8.69,0,0,1-8.69-8.69V91H24.41a4.43,4.43,0,0,1-2.92-1.23,4.9,4.9,0,0,1-1.31-3c-.33-2.63-.36-11.2,0-22.91H8.72A8.66,8.66,0,0,1,.06,55.19V38.53a8.66,8.66,0,0,1,8.66-8.65H42.36A8.65,8.65,0,0,1,51,38.53V55.19a8.66,8.66,0,0,1-8.65,8.66H28.66q0,9.21.05,18.42h14V78.15a8.69,8.69,0,0,1,8.69-8.69H68a8.7,8.7,0,0,1,8.7,8.69v4.12H90.91q0-9.21,0-18.42h-11a8.66,8.66,0,0,1-8.65-8.66V38.53a8.65,8.65,0,0,1,8.65-8.65h33.65A8.65,8.65,0,0,1,122.24,38.53ZM16.77,46.94a2.92,2.92,0,0,0,1.43-1.09,3,3,0,0,0,.51-1.74,3.11,3.11,0,0,0-.55-1.83,3.47,3.47,0,0,0-1.56-1.23,6.12,6.12,0,0,0-2.35-.43,7.07,7.07,0,0,0-2.13.33,5.59,5.59,0,0,0-1.83.9,1.27,1.27,0,0,0-.43.48,1.34,1.34,0,0,0-.13.63,1.47,1.47,0,0,0,.31.95.9.9,0,0,0,.75.38,1.06,1.06,0,0,0,.45-.08,6,6,0,0,0,.54-.26l.38-.18a10.57,10.57,0,0,1,1-.43,2.71,2.71,0,0,1,.95-.16,1.52,1.52,0,0,1,1.09.37,1.31,1.31,0,0,1,.4,1,1,1,0,0,1-.45.92,2.77,2.77,0,0,1-1.44.29H12.9a1,1,0,0,0-.85.38,1.4,1.4,0,0,0-.3.9,1.44,1.44,0,0,0,.3.9,1,1,0,0,0,.85.37H14a2.74,2.74,0,0,1,1.48.31,1.13,1.13,0,0,1,.45,1,1.27,1.27,0,0,1-.44,1.08,2.55,2.55,0,0,1-1.45.32,3.28,3.28,0,0,1-1-.15,7.62,7.62,0,0,1-1-.44l-.22-.1-.18-.08A4.16,4.16,0,0,0,11,50a1.06,1.06,0,0,0-.45-.08.93.93,0,0,0-.75.38,1.47,1.47,0,0,0-.31,1,1.32,1.32,0,0,0,.13.62,1.38,1.38,0,0,0,.43.49A5.72,5.72,0,0,0,12,53.3a8,8,0,0,0,2.25.32,6.88,6.88,0,0,0,2.55-.44,3.76,3.76,0,0,0,1.68-1.25,3.4,3.4,0,0,0,0-3.87A3,3,0,0,0,16.77,46.94Zm10,1.35,1.95-1.93a1.06,1.06,0,0,0,.32-.77,1,1,0,0,0-.32-.74,1.05,1.05,0,0,0-1.51,0L25.28,46.8l-1.94-1.95a1,1,0,0,0-.76-.34,1,1,0,0,0-.74.32,1.1,1.1,0,0,0-.32.78,1.07,1.07,0,0,0,.31.75l1.94,1.93-1.94,1.94a1,1,0,0,0,0,1.52,1.1,1.1,0,0,0,.75.3,1.06,1.06,0,0,0,.76-.3l1.94-2,1.95,2a1,1,0,0,0,.75.32,1.07,1.07,0,0,0,.76-.32A1.06,1.06,0,0,0,29,51a1,1,0,0,0-.3-.76Zm12.64,2.56H35.81l2.56-2.61a8.29,8.29,0,0,0,1.5-2,4.56,4.56,0,0,0,.44-2,3.29,3.29,0,0,0-.55-1.88,3.55,3.55,0,0,0-1.55-1.26,5.92,5.92,0,0,0-2.34-.44,6.89,6.89,0,0,0-2.08.33,6.53,6.53,0,0,0-1.9.9,1.19,1.19,0,0,0-.44.46,1.73,1.73,0,0,0,.19,1.62.9.9,0,0,0,.75.4,1.21,1.21,0,0,0,.34,0,2.46,2.46,0,0,0,.37-.18l.28-.15.36-.18a8.71,8.71,0,0,1,1-.44,2.93,2.93,0,0,1,1-.15,1.45,1.45,0,0,1,1,.32,1.2,1.2,0,0,1,.35.94,3.46,3.46,0,0,1-1.19,2.28l-3.81,4a2,2,0,0,0-.61,1.41,1.36,1.36,0,0,0,.37,1,1.38,1.38,0,0,0,1,.38h6.57a1.79,1.79,0,0,0,1.18-.32,1.24,1.24,0,0,0,.39-1,1.19,1.19,0,0,0-.39-1A1.85,1.85,0,0,0,39.43,50.85Zm58.91-7.59a5.76,5.76,0,0,0-2.53.56A4.77,4.77,0,0,0,94,45.33a8,8,0,0,1,1.13-3.91A2.87,2.87,0,0,1,97.56,40a4.11,4.11,0,0,1,1.39.24c.43.16,1,.4,1.64.72l.66.33c.38.2.68.35.9.44a2,2,0,0,0,.75.13,1.59,1.59,0,0,0,1.28-.64,2.43,2.43,0,0,0,.53-1.58,2.2,2.2,0,0,0-.23-1,2.71,2.71,0,0,0-.73-.81,9.7,9.7,0,0,0-3-1.5,11.68,11.68,0,0,0-3.44-.54,8.11,8.11,0,0,0-4.66,1.35A8.75,8.75,0,0,0,89.54,41a14.52,14.52,0,0,0-1.09,5.86c0,3.4.76,6,2.3,7.86a8.05,8.05,0,0,0,6.54,2.76,7.8,7.8,0,0,0,3.82-.93,6.72,6.72,0,0,0,2.62-2.59,8.06,8.06,0,0,0,.12-7.32,6.2,6.2,0,0,0-2.27-2.46A6.07,6.07,0,0,0,98.34,43.26ZM97,53.22a2.37,2.37,0,0,1-1.85-.79,2.92,2.92,0,0,1-.73-2.06,3,3,0,0,1,.71-2.07A2.41,2.41,0,0,1,97,47.52a2.38,2.38,0,0,1,1.88.77,3,3,0,0,1,.68,2.08,3,3,0,0,1-.7,2.07A2.33,2.33,0,0,1,97,53.22ZM58.48,89.61l-2.6-2.5,2.29-2.26a1.7,1.7,0,0,0,.54-1.2,1.68,1.68,0,0,0-2.92-1.13l-3.88,3.94V79.34a1.59,1.59,0,0,0-.54-1.3,2.23,2.23,0,0,0-2.66,0,1.59,1.59,0,0,0-.54,1.3V90.87a1.6,1.6,0,0,0,.54,1.31,2.23,2.23,0,0,0,2.66,0,1.6,1.6,0,0,0,.54-1.31V88l4.26,4a1.8,1.8,0,0,0,1.18.53,1.57,1.57,0,0,0,1.19-.55A1.83,1.83,0,0,0,59,90.83,1.63,1.63,0,0,0,58.48,89.61Zm11-7.64a2,2,0,0,0-1.3.41,1.5,1.5,0,0,0-.53,1.12,3.13,3.13,0,0,0-1.33-1.15,4.23,4.23,0,0,0-1.89-.42,4.48,4.48,0,0,0-2.39.64,4.37,4.37,0,0,0-1.64,1.81,6,6,0,0,0-.58,2.71,5.93,5.93,0,0,0,.58,2.7A4.28,4.28,0,0,0,62,91.59a4.56,4.56,0,0,0,2.39.63,4.3,4.3,0,0,0,1.87-.41A3.19,3.19,0,0,0,67.6,90.7v.8a2.15,2.15,0,0,1-.6,1.69,2.76,2.76,0,0,1-1.88.54,4.46,4.46,0,0,1-1-.12,11.75,11.75,0,0,1-1.16-.32A5.47,5.47,0,0,0,61.57,93a1,1,0,0,0-.79.38,1.54,1.54,0,0,0-.3,1,1.3,1.3,0,0,0,.22.75,1.6,1.6,0,0,0,.6.55,5.81,5.81,0,0,0,1.74.61,10.9,10.9,0,0,0,2.18.21,6.8,6.8,0,0,0,4.53-1.32,4.85,4.85,0,0,0,1.54-3.89V83.69a1.66,1.66,0,0,0-.5-1.25A1.92,1.92,0,0,0,69.45,82Zm-3.91,7.45A1.89,1.89,0,0,1,64,88.8a2.46,2.46,0,0,1-.56-1.71A2.53,2.53,0,0,1,64,85.34a2.16,2.16,0,0,1,3,0,2.54,2.54,0,0,1,.55,1.74,2.48,2.48,0,0,1-.55,1.73A2,2,0,0,1,65.54,89.42Z"/></svg>