<svg id="Layer_1" data-name="Layer 1" xmlns="http://www.w3.org/2000/svg" viewBox="0 0 122.3 122.3"><title>l9_5_1</title><path d="M122.24,36.14V52.81a8.65,8.65,0,0,1-8.65,8.65H99.51q0,11.24,0,22.48a4.37,4.37,0,0,1-4.66,4.66H76.72v3.75A8.7,8.7,0,0,1,68,101H51.44a8.69,8.69,0,0,1-8.69-8.69V88.6H24.41a4.37,4.37,0,0,1-2.92-1.23,4.9,4.9,0,0,1-1.31-3c-.33-2.63-.36-11.2,0-22.91H8.72A8.66,8.66,0,0,1,.06,52.81V36.14a8.66,8.66,0,0,1,8.66-8.65H42.36A8.65,8.65,0,0,1,51,36.14V52.81a8.65,8.65,0,0,1-8.65,8.65H28.66q0,9.21.05,18.42h14V75.76a8.69,8.69,0,0,1,8.69-8.69H68a8.7,8.7,0,0,1,8.7,8.69v4.12H90.91q0-9.21,0-18.42h-11a8.65,8.65,0,0,1-8.65-8.65V36.14a8.65,8.65,0,0,1,8.65-8.65h33.65A8.65,8.65,0,0,1,122.24,36.14ZM18.36,46.42H18V39.93a1.55,1.55,0,0,0-.49-1.21,1.68,1.68,0,0,0-1.17-.43,1.74,1.74,0,0,0-.8.19,1.61,1.61,0,0,0-.64.55L9.72,46.37a2,2,0,0,0-.39,1.19,1.31,1.31,0,0,0,1.4,1.38h4v.62a1.61,1.61,0,0,0,.44,1.22,1.64,1.64,0,0,0,1.17.41,1.64,1.64,0,0,0,1.17-.41A1.58,1.58,0,0,0,18,49.56v-.62h.39c1.05,0,1.57-.42,1.57-1.27S19.41,46.42,18.36,46.42Zm-5.78,0,2.16-3.11v3.11ZM26.8,45.9,28.75,44a1.1,1.1,0,0,0,.32-.78,1,1,0,0,0-.32-.74,1.05,1.05,0,0,0-1.51,0l-1.95,1.95-1.94-1.95a1.08,1.08,0,0,0-.76-.34.94.94,0,0,0-.74.33,1.06,1.06,0,0,0-.32.77,1.09,1.09,0,0,0,.31.76l1.94,1.92-1.94,2a1,1,0,0,0-.33.75,1,1,0,0,0,.33.76,1.1,1.1,0,0,0,.75.3,1.06,1.06,0,0,0,.76-.3l1.94-2,1.95,2a1,1,0,0,0,.75.32,1.07,1.07,0,0,0,.76-.32,1.06,1.06,0,0,0,.3-.76,1,1,0,0,0-.3-.75ZM40,46.42h-.39V39.93a1.55,1.55,0,0,0-.49-1.21,1.68,1.68,0,0,0-1.17-.43,1.74,1.74,0,0,0-.8.19,1.61,1.61,0,0,0-.64.55l-5.15,7.34a2,2,0,0,0-.39,1.19,1.4,1.4,0,0,0,.37,1,1.37,1.37,0,0,0,1,.39h4v.62A1.48,1.48,0,0,0,38,51.19a1.64,1.64,0,0,0,1.17-.41,1.58,1.58,0,0,0,.45-1.22v-.62H40c1,0,1.57-.42,1.57-1.27S41,46.42,40,46.42Zm-5.78,0,2.16-3.11v3.11Zm62.21,1.39a1.75,1.75,0,0,0,1.1-.36,1.64,1.64,0,0,0,.59-1,2.7,2.7,0,0,1,.67-1.22,14.17,14.17,0,0,1,1.52-1.39c.69-.62,1.27-1.15,1.7-1.59a6.07,6.07,0,0,0,1.13-1.59,4.49,4.49,0,0,0,.46-2,4.43,4.43,0,0,0-.86-2.69,5.84,5.84,0,0,0-2.41-1.86,8.47,8.47,0,0,0-3.48-.67,11.22,11.22,0,0,0-3.46.55,10.55,10.55,0,0,0-3.07,1.55,2.5,2.5,0,0,0-.74.81,2.2,2.2,0,0,0-.23,1.05,2.4,2.4,0,0,0,.53,1.57,1.61,1.61,0,0,0,1.28.65A3.7,3.7,0,0,0,92.77,39l.71-.36A10.94,10.94,0,0,1,95,37.89a3.82,3.82,0,0,1,1.37-.25,2.05,2.05,0,0,1,1.32.39,1.31,1.31,0,0,1,.48,1,2.19,2.19,0,0,1-.35,1.2,10.62,10.62,0,0,1-1,1.29,9.12,9.12,0,0,0-1.5,1.93,4.61,4.61,0,0,0-.54,2.36,2.15,2.15,0,0,0,.43,1.44A1.5,1.5,0,0,0,96.39,47.81ZM96.46,55a2.8,2.8,0,0,0,2.08-.84,3,3,0,0,0,0-4.14,2.8,2.8,0,0,0-2.08-.84A2.76,2.76,0,0,0,94.4,50a3,3,0,0,0,0,4.14A2.76,2.76,0,0,0,96.46,55Zm-38,32.25-2.6-2.5,2.29-2.27a1.68,1.68,0,0,0,.54-1.2A1.76,1.76,0,0,0,57,79.58a1.63,1.63,0,0,0-1.22.55l-3.88,4V77a1.6,1.6,0,0,0-.54-1.31,2.23,2.23,0,0,0-2.66,0A1.6,1.6,0,0,0,48.17,77V88.49a1.59,1.59,0,0,0,.54,1.3,2.23,2.23,0,0,0,2.66,0,1.59,1.59,0,0,0,.54-1.3V85.65l4.26,4a1.8,1.8,0,0,0,1.18.53,1.54,1.54,0,0,0,1.19-.55A1.82,1.82,0,0,0,59,88.44,1.61,1.61,0,0,0,58.48,87.23Zm11-7.65a2,2,0,0,0-1.3.41,1.5,1.5,0,0,0-.53,1.12A3.13,3.13,0,0,0,66.29,80a4.23,4.23,0,0,0-1.89-.42,4.48,4.48,0,0,0-2.39.64A4.33,4.33,0,0,0,60.37,82a6,6,0,0,0-.58,2.71,5.89,5.89,0,0,0,.58,2.69A4.28,4.28,0,0,0,62,89.2a4.56,4.56,0,0,0,2.39.63,4.3,4.3,0,0,0,1.87-.41,3.17,3.17,0,0,0,1.33-1.1v.8a2.16,2.16,0,0,1-.6,1.69,2.81,2.81,0,0,1-1.88.53,5.07,5.07,0,0,1-1-.11c-.34-.08-.72-.19-1.16-.33a5.31,5.31,0,0,0-1.36-.31,1,1,0,0,0-.79.37,1.56,1.56,0,0,0-.3,1,1.35,1.35,0,0,0,.22.76,1.66,1.66,0,0,0,.6.54,5.81,5.81,0,0,0,1.74.61,10.9,10.9,0,0,0,2.18.21,6.8,6.8,0,0,0,4.53-1.32,4.84,4.84,0,0,0,1.54-3.89V81.3a1.67,1.67,0,0,0-.5-1.25A1.92,1.92,0,0,0,69.45,79.58ZM65.54,87a1.92,1.92,0,0,1-1.5-.62,2.5,2.5,0,0,1-.56-1.71A2.56,2.56,0,0,1,64,83a2.16,2.16,0,0,1,3,0,2.55,2.55,0,0,1,.55,1.75,2.47,2.47,0,0,1-.55,1.72A2,2,0,0,1,65.54,87Z"/></svg>