<svg id="Layer_1" data-name="Layer 1" xmlns="http://www.w3.org/2000/svg" viewBox="0 0 122.3 122.3"><title>l9_5_1</title><path d="M122.24,36.08V52.74a8.66,8.66,0,0,1-8.65,8.66H99.51q0,11.24,0,22.48a4.37,4.37,0,0,1-4.66,4.66H76.72v3.75A8.7,8.7,0,0,1,68,101H51.44a8.69,8.69,0,0,1-8.69-8.69V88.54H24.41a4.43,4.43,0,0,1-2.92-1.23,4.9,4.9,0,0,1-1.31-3c-.33-2.63-.36-11.2,0-22.91H8.72A8.66,8.66,0,0,1,.06,52.74V36.08a8.66,8.66,0,0,1,8.66-8.65H42.36A8.65,8.65,0,0,1,51,36.08V52.74a8.66,8.66,0,0,1-8.65,8.66H28.66q0,9.21.05,18.42h14V75.7A8.69,8.69,0,0,1,51.44,67H68a8.7,8.7,0,0,1,8.7,8.69v4.12H90.91q0-9.21,0-18.42h-11a8.66,8.66,0,0,1-8.65-8.66V36.08a8.65,8.65,0,0,1,8.65-8.65h33.65A8.65,8.65,0,0,1,122.24,36.08ZM15.57,42.67a3.49,3.49,0,0,0-1.52.33,3,3,0,0,0-1.11.91,4.85,4.85,0,0,1,.68-2.35,1.73,1.73,0,0,1,1.48-.83,2.3,2.3,0,0,1,.83.14c.27.1.6.24,1,.43l.4.2a4.89,4.89,0,0,0,.54.26,1.06,1.06,0,0,0,.45.08,1,1,0,0,0,.76-.38,1.47,1.47,0,0,0,.32-1,1.33,1.33,0,0,0-.14-.63,1.51,1.51,0,0,0-.44-.49A5.57,5.57,0,0,0,17,38.5a6.86,6.86,0,0,0-2.06-.33,4.88,4.88,0,0,0-2.8.81,5.24,5.24,0,0,0-1.85,2.31,8.74,8.74,0,0,0-.66,3.52A7.14,7.14,0,0,0,11,49.53a4.83,4.83,0,0,0,3.92,1.65,4.67,4.67,0,0,0,2.29-.55,4,4,0,0,0,1.57-1.56,4.49,4.49,0,0,0,.57-2.26,4.41,4.41,0,0,0-.5-2.13,3.79,3.79,0,0,0-1.35-1.48A3.7,3.7,0,0,0,15.57,42.67Zm-.83,6a1.43,1.43,0,0,1-1.11-.48,1.76,1.76,0,0,1-.43-1.23,1.82,1.82,0,0,1,.42-1.25,1.44,1.44,0,0,1,1.12-.46,1.42,1.42,0,0,1,1.13.46,1.81,1.81,0,0,1,.4,1.25,1.79,1.79,0,0,1-.41,1.24A1.43,1.43,0,0,1,14.74,48.65ZM26.8,45.84l1.95-1.93a1.06,1.06,0,0,0,.32-.77,1,1,0,0,0-.32-.74,1.05,1.05,0,0,0-1.51,0l-1.95,1.94L23.35,42.4a1,1,0,0,0-.76-.34,1,1,0,0,0-.74.32,1.09,1.09,0,0,0,0,1.53l1.94,1.93-1.94,1.94a1,1,0,0,0-.33.76,1,1,0,0,0,.33.75,1.07,1.07,0,0,0,.75.31,1,1,0,0,0,.76-.31l1.94-1.94,1.95,1.94a1,1,0,0,0,.75.33,1,1,0,0,0,.76-.33,1.1,1.1,0,0,0,0-1.51Zm11.58-1.35a2.92,2.92,0,0,0,1.43-1.09,3,3,0,0,0,.51-1.74,3.09,3.09,0,0,0-.55-1.83,3.53,3.53,0,0,0-1.56-1.23,5.94,5.94,0,0,0-2.35-.43,7.18,7.18,0,0,0-2.14.33,5.83,5.83,0,0,0-1.82.89,1.51,1.51,0,0,0-.44.49,1.65,1.65,0,0,0,.19,1.58.93.93,0,0,0,.75.38,1.06,1.06,0,0,0,.45-.08,6,6,0,0,0,.54-.26l.38-.18a10.57,10.57,0,0,1,1-.43,2.67,2.67,0,0,1,1-.16,1.52,1.52,0,0,1,1.09.37,1.31,1.31,0,0,1,.4,1,1,1,0,0,1-.45.92,2.77,2.77,0,0,1-1.44.29h-.79a1,1,0,0,0-.85.37,1.52,1.52,0,0,0,0,1.81,1,1,0,0,0,.85.37h1.11a2.74,2.74,0,0,1,1.48.31,1.13,1.13,0,0,1,.45,1,1.27,1.27,0,0,1-.44,1.08,2.57,2.57,0,0,1-1.45.32,3.39,3.39,0,0,1-1-.15,8.11,8.11,0,0,1-1-.44l-.23-.1-.17-.08a4.89,4.89,0,0,0-.54-.26,1.06,1.06,0,0,0-.45-.08.9.9,0,0,0-.75.38,1.45,1.45,0,0,0-.31.95,1.35,1.35,0,0,0,.13.62,1.38,1.38,0,0,0,.43.49,5.72,5.72,0,0,0,1.87.91,8,8,0,0,0,2.25.32,6.88,6.88,0,0,0,2.55-.44,3.82,3.82,0,0,0,1.68-1.25,3.15,3.15,0,0,0,.6-1.91,3.23,3.23,0,0,0-.61-2A3,3,0,0,0,38.38,44.49Zm58,3.25a1.75,1.75,0,0,0,1.1-.36,1.64,1.64,0,0,0,.59-1,2.67,2.67,0,0,1,.67-1.21,14.09,14.09,0,0,1,1.52-1.4c.69-.62,1.27-1.15,1.7-1.59a6.07,6.07,0,0,0,1.13-1.59,4.49,4.49,0,0,0,.46-2,4.4,4.4,0,0,0-.86-2.68A5.84,5.84,0,0,0,100.29,34a8.47,8.47,0,0,0-3.48-.68,11.23,11.23,0,0,0-3.46.56,10.53,10.53,0,0,0-3.07,1.54,2.5,2.5,0,0,0-.74.81,2.2,2.2,0,0,0-.23,1.05,2.43,2.43,0,0,0,.53,1.58,1.59,1.59,0,0,0,1.28.64,3.7,3.7,0,0,0,1.65-.57l.71-.36A10.78,10.78,0,0,1,95,37.83a3.83,3.83,0,0,1,1.37-.26,2.05,2.05,0,0,1,1.32.39,1.31,1.31,0,0,1,.48,1,2.19,2.19,0,0,1-.35,1.2,10.62,10.62,0,0,1-1,1.29,9.16,9.16,0,0,0-1.5,1.94,4.57,4.57,0,0,0-.54,2.35,2.15,2.15,0,0,0,.43,1.44A1.5,1.5,0,0,0,96.39,47.74Zm.07,7.17a2.8,2.8,0,0,0,2.08-.84,3,3,0,0,0,0-4.14,2.8,2.8,0,0,0-2.08-.84,2.76,2.76,0,0,0-2.06.84,3,3,0,0,0,0,4.14A2.76,2.76,0,0,0,96.46,54.91Zm-38,32.25-2.6-2.5,2.29-2.27a1.66,1.66,0,0,0,.54-1.19A1.74,1.74,0,0,0,57,79.52a1.66,1.66,0,0,0-1.22.54l-3.88,4V76.89a1.59,1.59,0,0,0-.54-1.3,2.23,2.23,0,0,0-2.66,0,1.59,1.59,0,0,0-.54,1.3V88.42a1.57,1.57,0,0,0,.54,1.3,2.23,2.23,0,0,0,2.66,0,1.57,1.57,0,0,0,.54-1.3V85.59l4.26,4a1.78,1.78,0,0,0,1.18.52,1.56,1.56,0,0,0,1.19-.54A1.83,1.83,0,0,0,59,88.38,1.63,1.63,0,0,0,58.48,87.16Zm11-7.64a1.93,1.93,0,0,0-1.3.41,1.5,1.5,0,0,0-.53,1.12,3.13,3.13,0,0,0-1.33-1.15,4.23,4.23,0,0,0-1.89-.42,4.48,4.48,0,0,0-2.39.64,4.31,4.31,0,0,0-1.64,1.81,6,6,0,0,0-.58,2.71,6,6,0,0,0,.58,2.7A4.28,4.28,0,0,0,62,89.14a4.56,4.56,0,0,0,2.39.63,4.3,4.3,0,0,0,1.87-.41,3.19,3.19,0,0,0,1.33-1.11v.8a2.15,2.15,0,0,1-.6,1.69,2.76,2.76,0,0,1-1.88.54,4.46,4.46,0,0,1-1-.12,11.75,11.75,0,0,1-1.16-.32,5.47,5.47,0,0,0-1.36-.32,1,1,0,0,0-.79.38,1.54,1.54,0,0,0-.3,1,1.3,1.3,0,0,0,.22.75,1.6,1.6,0,0,0,.6.55A6.1,6.1,0,0,0,63,93.8a10.9,10.9,0,0,0,2.18.21,6.75,6.75,0,0,0,4.53-1.33,4.81,4.81,0,0,0,1.54-3.88V81.24a1.66,1.66,0,0,0-.5-1.25A1.92,1.92,0,0,0,69.45,79.52ZM65.54,87a1.89,1.89,0,0,1-1.5-.62,2.46,2.46,0,0,1-.56-1.71A2.53,2.53,0,0,1,64,82.89a2.16,2.16,0,0,1,3,0,2.54,2.54,0,0,1,.55,1.74,2.45,2.45,0,0,1-.55,1.72A1.92,1.92,0,0,1,65.54,87Z"/></svg>