<svg id="Layer_1" data-name="Layer 1" xmlns="http://www.w3.org/2000/svg" viewBox="0 0 122.3 122.3"><title>l9_5_1</title><path d="M122.35,38.53V55.19a8.66,8.66,0,0,1-8.65,8.66H99.61l0,22.48A4.37,4.37,0,0,1,95,91H76.82v3.75a8.69,8.69,0,0,1-8.69,8.69H51.55a8.69,8.69,0,0,1-8.69-8.69V91H24.52a4.43,4.43,0,0,1-2.92-1.23,4.9,4.9,0,0,1-1.31-3c-.33-2.63-.36-11.2,0-22.91H8.82A8.66,8.66,0,0,1,.17,55.19V38.53a8.65,8.65,0,0,1,8.65-8.65H42.47a8.65,8.65,0,0,1,8.65,8.65V55.19a8.66,8.66,0,0,1-8.65,8.66H28.77q0,9.21.05,18.42h14V78.15a8.69,8.69,0,0,1,8.69-8.69H68.13a8.69,8.69,0,0,1,8.69,8.69v4.12H91l0-18.42h-11a8.66,8.66,0,0,1-8.65-8.66V38.53a8.65,8.65,0,0,1,8.65-8.65H113.7A8.65,8.65,0,0,1,122.35,38.53ZM17.93,50.85H14.31l2.56-2.61a8.29,8.29,0,0,0,1.5-2,4.43,4.43,0,0,0,.44-2,3.29,3.29,0,0,0-.55-1.88,3.55,3.55,0,0,0-1.55-1.26,5.88,5.88,0,0,0-2.34-.44,6.89,6.89,0,0,0-2.08.33,6.66,6.66,0,0,0-1.9.9,1.19,1.19,0,0,0-.44.46,1.73,1.73,0,0,0,.19,1.62.9.9,0,0,0,.75.4,1.21,1.21,0,0,0,.34,0,2.46,2.46,0,0,0,.37-.18l.28-.15.36-.18a8.71,8.71,0,0,1,1-.44,2.93,2.93,0,0,1,1-.15,1.45,1.45,0,0,1,1,.32,1.2,1.2,0,0,1,.35.94,3.46,3.46,0,0,1-1.19,2.28l-3.81,4A2,2,0,0,0,10,52.11a1.36,1.36,0,0,0,.37,1,1.38,1.38,0,0,0,1,.38h6.57a1.79,1.79,0,0,0,1.18-.32,1.24,1.24,0,0,0,.39-1,1.19,1.19,0,0,0-.39-1A1.85,1.85,0,0,0,17.93,50.85Zm9-2.56,1.95-1.93a1.06,1.06,0,0,0,.32-.77,1,1,0,0,0-.32-.74,1,1,0,0,0-.76-.32,1.07,1.07,0,0,0-.76.32L25.4,46.8l-1.94-1.95a1,1,0,0,0-.76-.34,1,1,0,0,0-.74.32,1.1,1.1,0,0,0,0,1.53l1.95,1.93-1.95,1.94a1.06,1.06,0,0,0,0,1.52,1.13,1.13,0,0,0,.76.3,1.06,1.06,0,0,0,.76-.3l1.94-2,1.94,2a1.06,1.06,0,0,0,1.52,0,1.06,1.06,0,0,0,.3-.76,1,1,0,0,0-.3-.76Zm12.64,2.56H35.93l2.56-2.61a8.56,8.56,0,0,0,1.5-2,4.56,4.56,0,0,0,.44-2,3.29,3.29,0,0,0-.55-1.88,3.52,3.52,0,0,0-1.56-1.26A5.85,5.85,0,0,0,36,40.62a6.88,6.88,0,0,0-2.07.33,6.53,6.53,0,0,0-1.9.9,1.12,1.12,0,0,0-.44.46,1.54,1.54,0,0,0-.12.65,1.6,1.6,0,0,0,.3,1,.93.93,0,0,0,.76.4,1.27,1.27,0,0,0,.34,0,2.46,2.46,0,0,0,.37-.18L33.5,44l.36-.18a8,8,0,0,1,1-.44,2.93,2.93,0,0,1,1-.15,1.45,1.45,0,0,1,1,.32,1.24,1.24,0,0,1,.35.94A3.5,3.5,0,0,1,36,46.72l-3.81,4a2,2,0,0,0-.62,1.41A1.31,1.31,0,0,0,33,53.47h6.57a1.79,1.79,0,0,0,1.18-.32,1.24,1.24,0,0,0,.38-1,1.18,1.18,0,0,0-.38-1A1.85,1.85,0,0,0,39.55,50.85Zm63.55-1.44h-.66V38.58a2.55,2.55,0,0,0-.81-2,2.83,2.83,0,0,0-1.95-.72,3,3,0,0,0-1.33.32,2.76,2.76,0,0,0-1.07.91L88.7,49.32a3.36,3.36,0,0,0-.66,2A2.3,2.3,0,0,0,88.67,53a2.25,2.25,0,0,0,1.71.66h6.69v1a2.67,2.67,0,0,0,.74,2,2.7,2.7,0,0,0,1.93.69,2.77,2.77,0,0,0,2-.69,2.64,2.64,0,0,0,.75-2v-1h.66q2.61,0,2.61-2.13T103.1,49.41Zm-9.63,0,3.6-5.19v5.19ZM58.59,89.61,56,87.11l2.29-2.26a1.7,1.7,0,0,0,.54-1.2,1.68,1.68,0,0,0-2.92-1.13L52,86.46V79.34a1.59,1.59,0,0,0-.54-1.3,2.23,2.23,0,0,0-2.66,0,1.59,1.59,0,0,0-.54,1.3V90.87a1.6,1.6,0,0,0,.54,1.31,2.23,2.23,0,0,0,2.66,0A1.6,1.6,0,0,0,52,90.87V88l4.26,4a1.8,1.8,0,0,0,1.18.53,1.54,1.54,0,0,0,1.18-.55,1.8,1.8,0,0,0,.5-1.24A1.63,1.63,0,0,0,58.59,89.61Zm11-7.64a2,2,0,0,0-1.29.41,1.47,1.47,0,0,0-.53,1.12,3.13,3.13,0,0,0-1.33-1.15,4.23,4.23,0,0,0-1.89-.42,4.48,4.48,0,0,0-2.39.64,4.37,4.37,0,0,0-1.64,1.81,6,6,0,0,0-.59,2.71,5.93,5.93,0,0,0,.59,2.7,4.28,4.28,0,0,0,1.64,1.8,4.56,4.56,0,0,0,2.39.63,4.3,4.3,0,0,0,1.87-.41,3.19,3.19,0,0,0,1.33-1.11v.8a2.15,2.15,0,0,1-.6,1.69,2.76,2.76,0,0,1-1.88.54,4.46,4.46,0,0,1-1-.12A11.75,11.75,0,0,1,63,93.29,5.57,5.57,0,0,0,61.68,93a1,1,0,0,0-.79.38,1.54,1.54,0,0,0-.3,1,1.3,1.3,0,0,0,.22.75,1.52,1.52,0,0,0,.6.55,5.81,5.81,0,0,0,1.74.61,10.82,10.82,0,0,0,2.18.21,6.8,6.8,0,0,0,4.53-1.32,4.85,4.85,0,0,0,1.54-3.89V83.69a1.66,1.66,0,0,0-.5-1.25A1.93,1.93,0,0,0,69.55,82Zm-3.9,7.45a1.89,1.89,0,0,1-1.5-.62,2.46,2.46,0,0,1-.56-1.71,2.53,2.53,0,0,1,.55-1.75,2.16,2.16,0,0,1,3,0,2.59,2.59,0,0,1,.55,1.74,2.53,2.53,0,0,1-.55,1.73A2,2,0,0,1,65.65,89.42Z"/></svg>