<svg id="Layer_1" data-name="Layer 1" xmlns="http://www.w3.org/2000/svg" viewBox="0 0 122.3 122.3"><title>l9_5_1</title><path d="M122.24,38.53V55.19a8.66,8.66,0,0,1-8.65,8.66H99.51q0,11.24,0,22.48A4.37,4.37,0,0,1,94.87,91H76.72v3.75a8.7,8.7,0,0,1-8.7,8.69H51.44a8.69,8.69,0,0,1-8.69-8.69V91H24.41a4.43,4.43,0,0,1-2.92-1.23,4.9,4.9,0,0,1-1.31-3c-.33-2.63-.36-11.2,0-22.91H8.72A8.66,8.66,0,0,1,.06,55.19V38.53a8.66,8.66,0,0,1,8.66-8.65H42.36A8.65,8.65,0,0,1,51,38.53V55.19a8.66,8.66,0,0,1-8.65,8.66H28.66q0,9.21.05,18.42h14V78.15a8.69,8.69,0,0,1,8.69-8.69H68a8.7,8.7,0,0,1,8.7,8.69v4.12H90.91q0-9.21,0-18.42h-11a8.66,8.66,0,0,1-8.65-8.66V38.53a8.65,8.65,0,0,1,8.65-8.65h33.65A8.65,8.65,0,0,1,122.24,38.53ZM18.36,48.81H18v-6.5a1.54,1.54,0,0,0-.49-1.2,1.68,1.68,0,0,0-1.17-.43,1.74,1.74,0,0,0-.8.19,1.59,1.59,0,0,0-.64.54L9.72,48.76A2,2,0,0,0,9.33,50a1.31,1.31,0,0,0,1.4,1.38h4v.61a1.63,1.63,0,0,0,.44,1.23,1.87,1.87,0,0,0,2.34,0A1.6,1.6,0,0,0,18,51.94v-.61h.39c1.05,0,1.57-.42,1.57-1.28S19.41,48.81,18.36,48.81Zm-5.78,0,2.16-3.11v3.11Zm14.22-.52,1.95-1.93a1.06,1.06,0,0,0,.32-.77,1,1,0,0,0-.32-.74,1.05,1.05,0,0,0-1.51,0L25.29,46.8l-1.94-1.95a1,1,0,0,0-.76-.34,1,1,0,0,0-.74.32,1.1,1.1,0,0,0-.32.78,1.07,1.07,0,0,0,.31.75l1.94,1.93-1.94,1.94a1,1,0,0,0,0,1.52,1.1,1.1,0,0,0,.75.3,1.06,1.06,0,0,0,.76-.3l1.94-2,1.95,2a1,1,0,0,0,.75.32,1.07,1.07,0,0,0,.76-.32,1.06,1.06,0,0,0,.3-.76,1,1,0,0,0-.3-.76Zm11.58-1.35a2.92,2.92,0,0,0,1.43-1.09,3,3,0,0,0,.51-1.74,3.11,3.11,0,0,0-.55-1.83,3.53,3.53,0,0,0-1.56-1.23,6.12,6.12,0,0,0-2.35-.43,7.18,7.18,0,0,0-2.14.33,5.64,5.64,0,0,0-1.82.9,1.4,1.4,0,0,0-.44.48,1.65,1.65,0,0,0,.19,1.58.9.9,0,0,0,.75.38,1.06,1.06,0,0,0,.45-.08,6,6,0,0,0,.54-.26l.38-.18a10.57,10.57,0,0,1,1-.43,2.67,2.67,0,0,1,1-.16,1.52,1.52,0,0,1,1.09.37,1.31,1.31,0,0,1,.4,1,1,1,0,0,1-.45.92,2.77,2.77,0,0,1-1.44.29h-.79a1,1,0,0,0-.85.38,1.4,1.4,0,0,0-.3.9,1.44,1.44,0,0,0,.3.9,1,1,0,0,0,.85.37h1.11a2.74,2.74,0,0,1,1.48.31,1.13,1.13,0,0,1,.45,1,1.27,1.27,0,0,1-.44,1.08,2.57,2.57,0,0,1-1.45.32,3.39,3.39,0,0,1-1-.15,8.11,8.11,0,0,1-1-.44l-.23-.1-.17-.08a4.89,4.89,0,0,0-.54-.26A1.06,1.06,0,0,0,32.2,50a.93.93,0,0,0-.75.38,1.47,1.47,0,0,0-.31,1,1.32,1.32,0,0,0,.13.62,1.38,1.38,0,0,0,.43.49,5.72,5.72,0,0,0,1.87.91,8,8,0,0,0,2.25.32,6.88,6.88,0,0,0,2.55-.44,3.82,3.82,0,0,0,1.68-1.25,3.13,3.13,0,0,0,.6-1.91,3.2,3.2,0,0,0-.61-2A3,3,0,0,0,38.38,46.94Zm58,3.25a1.75,1.75,0,0,0,1.1-.36,1.64,1.64,0,0,0,.59-1,2.67,2.67,0,0,1,.67-1.21,14.09,14.09,0,0,1,1.52-1.4c.69-.62,1.27-1.15,1.7-1.59A6.07,6.07,0,0,0,103.1,43a4.49,4.49,0,0,0,.46-2,4.4,4.4,0,0,0-.86-2.68,5.84,5.84,0,0,0-2.41-1.86,8.47,8.47,0,0,0-3.48-.68,11.23,11.23,0,0,0-3.46.56,10.53,10.53,0,0,0-3.07,1.54,2.5,2.5,0,0,0-.74.81,2.2,2.2,0,0,0-.23,1,2.43,2.43,0,0,0,.53,1.58,1.59,1.59,0,0,0,1.28.64,3.7,3.7,0,0,0,1.65-.57l.71-.36A10.78,10.78,0,0,1,95,40.28,3.83,3.83,0,0,1,96.37,40a2.05,2.05,0,0,1,1.32.39,1.31,1.31,0,0,1,.48,1.05,2.19,2.19,0,0,1-.35,1.2,10.62,10.62,0,0,1-1,1.29,9.16,9.16,0,0,0-1.5,1.94,4.57,4.57,0,0,0-.54,2.35,2.15,2.15,0,0,0,.43,1.44A1.5,1.5,0,0,0,96.39,50.19Zm.07,7.17a2.8,2.8,0,0,0,2.08-.84,3,3,0,0,0,0-4.14,2.8,2.8,0,0,0-2.08-.84,2.76,2.76,0,0,0-2.06.84,3,3,0,0,0,0,4.14A2.76,2.76,0,0,0,96.46,57.36Zm-38,32.25-2.6-2.5,2.29-2.26a1.7,1.7,0,0,0,.54-1.2,1.68,1.68,0,0,0-2.92-1.13l-3.88,3.94V79.34a1.59,1.59,0,0,0-.54-1.3,2.23,2.23,0,0,0-2.66,0,1.59,1.59,0,0,0-.54,1.3V90.87a1.6,1.6,0,0,0,.54,1.31,2.23,2.23,0,0,0,2.66,0,1.6,1.6,0,0,0,.54-1.31V88l4.26,4a1.8,1.8,0,0,0,1.18.53,1.57,1.57,0,0,0,1.19-.55A1.83,1.83,0,0,0,59,90.83,1.63,1.63,0,0,0,58.48,89.61Zm11-7.64a2,2,0,0,0-1.3.41,1.5,1.5,0,0,0-.53,1.12,3.13,3.13,0,0,0-1.33-1.15,4.23,4.23,0,0,0-1.89-.42,4.48,4.48,0,0,0-2.39.64,4.37,4.37,0,0,0-1.64,1.81,6,6,0,0,0-.58,2.71,5.93,5.93,0,0,0,.58,2.7A4.28,4.28,0,0,0,62,91.59a4.56,4.56,0,0,0,2.39.63,4.3,4.3,0,0,0,1.87-.41A3.19,3.19,0,0,0,67.6,90.7v.8a2.15,2.15,0,0,1-.6,1.69,2.76,2.76,0,0,1-1.88.54,4.46,4.46,0,0,1-1-.12,11.75,11.75,0,0,1-1.16-.32A5.47,5.47,0,0,0,61.57,93a1,1,0,0,0-.79.38,1.54,1.54,0,0,0-.3,1,1.3,1.3,0,0,0,.22.75,1.6,1.6,0,0,0,.6.55,5.81,5.81,0,0,0,1.74.61,10.9,10.9,0,0,0,2.18.21,6.8,6.8,0,0,0,4.53-1.32,4.85,4.85,0,0,0,1.54-3.89V83.69a1.66,1.66,0,0,0-.5-1.25A1.92,1.92,0,0,0,69.45,82Zm-3.91,7.45A1.89,1.89,0,0,1,64,88.8a2.46,2.46,0,0,1-.56-1.71A2.53,2.53,0,0,1,64,85.34a2.16,2.16,0,0,1,3,0,2.54,2.54,0,0,1,.55,1.74,2.48,2.48,0,0,1-.55,1.73A2,2,0,0,1,65.54,89.42Z"/></svg>