<svg id="Layer_1" data-name="Layer 1" xmlns="http://www.w3.org/2000/svg" viewBox="0 0 122.3 122.3"><title>l9_5_1</title><path d="M122.35,36.14V52.81a8.65,8.65,0,0,1-8.65,8.65H99.61l0,22.48A4.37,4.37,0,0,1,95,88.6H76.82v3.75A8.69,8.69,0,0,1,68.13,101H51.55a8.69,8.69,0,0,1-8.69-8.69V88.6H24.52a4.37,4.37,0,0,1-2.92-1.23,4.9,4.9,0,0,1-1.31-3c-.33-2.63-.36-11.2,0-22.91H8.82A8.65,8.65,0,0,1,.17,52.81V36.14a8.66,8.66,0,0,1,8.65-8.65H42.47a8.65,8.65,0,0,1,8.65,8.65V52.81a8.65,8.65,0,0,1-8.65,8.65H28.77q0,9.21.05,18.42h14V75.76a8.69,8.69,0,0,1,8.69-8.69H68.13a8.69,8.69,0,0,1,8.69,8.69v4.12H91l0-18.42h-11a8.65,8.65,0,0,1-8.65-8.65V36.14a8.65,8.65,0,0,1,8.65-8.65H113.7A8.65,8.65,0,0,1,122.35,36.14ZM18.46,46.42h-.39V39.93a1.55,1.55,0,0,0-.49-1.21,1.68,1.68,0,0,0-1.17-.43,1.74,1.74,0,0,0-.8.19A1.61,1.61,0,0,0,15,39L9.82,46.37a2,2,0,0,0-.39,1.19,1.4,1.4,0,0,0,.37,1,1.37,1.37,0,0,0,1,.39h4v.62a1.48,1.48,0,0,0,1.61,1.63,1.64,1.64,0,0,0,1.17-.41,1.61,1.61,0,0,0,.45-1.22v-.62h.39c1.05,0,1.57-.42,1.57-1.27S19.51,46.42,18.46,46.42Zm-5.78,0,2.16-3.11v3.11ZM26.9,45.9l2-1.92a1.1,1.1,0,0,0,.32-.78,1,1,0,0,0-.32-.74,1.05,1.05,0,0,0-1.51,0l-1.95,1.95-1.94-1.95a1.08,1.08,0,0,0-.76-.34.94.94,0,0,0-.74.33,1.06,1.06,0,0,0-.32.77,1.09,1.09,0,0,0,.31.76l1.94,1.92-1.94,2a1,1,0,0,0-.33.75,1,1,0,0,0,.33.76,1.08,1.08,0,0,0,.75.3,1.06,1.06,0,0,0,.76-.3l1.94-2,1.95,2a1,1,0,0,0,.75.32,1.07,1.07,0,0,0,.76-.32,1.06,1.06,0,0,0,.3-.76,1,1,0,0,0-.3-.75Zm12.64,2.56H35.92l2.56-2.61a8.29,8.29,0,0,0,1.5-2,4.55,4.55,0,0,0,.44-2,3.25,3.25,0,0,0-.55-1.88,3.4,3.4,0,0,0-1.56-1.26A5.68,5.68,0,0,0,36,38.23a6.88,6.88,0,0,0-2.07.33,6.53,6.53,0,0,0-1.9.9,1.08,1.08,0,0,0-.44.47,1.46,1.46,0,0,0-.12.64,1.52,1.52,0,0,0,.31,1,.9.9,0,0,0,.75.4,1.27,1.27,0,0,0,.34,0,2.31,2.31,0,0,0,.37-.17l.28-.16.36-.18a9.81,9.81,0,0,1,1-.44,2.93,2.93,0,0,1,1-.15,1.45,1.45,0,0,1,1,.32,1.24,1.24,0,0,1,.35.94A3.47,3.47,0,0,1,36,44.34l-3.81,4a2,2,0,0,0-.62,1.41,1.37,1.37,0,0,0,.38,1,1.39,1.39,0,0,0,1,.39h6.57a1.79,1.79,0,0,0,1.18-.33,1.23,1.23,0,0,0,.39-1,1.19,1.19,0,0,0-.39-1A1.85,1.85,0,0,0,39.54,48.46Zm61.67-4.55a4.53,4.53,0,0,0,2.36-1.77,5.21,5.21,0,0,0,.85-3,5,5,0,0,0-2.08-4.22,9.37,9.37,0,0,0-5.69-1.54A9.37,9.37,0,0,0,91,34.92a5,5,0,0,0-2.1,4.22,5.09,5.09,0,0,0,.84,2.92,5,5,0,0,0,2.4,1.85,5,5,0,0,0-2.82,1.78,5.3,5.3,0,0,0-1,3.29,5.17,5.17,0,0,0,2.24,4.45A10.27,10.27,0,0,0,96.65,55a10.3,10.3,0,0,0,6.11-1.61A5.17,5.17,0,0,0,105,49a4.91,4.91,0,0,0-3.78-5.07Zm-4.56,7q-3.27,0-3.27-2.34t3.27-2.34q3.27,0,3.27,2.34T96.65,50.87Zm0-13.32a3.2,3.2,0,0,1,2,.52,2,2,0,0,1,.66,1.7,2.08,2.08,0,0,1-.66,1.71,4,4,0,0,1-4,0A2.08,2.08,0,0,1,94,39.77a2,2,0,0,1,.66-1.7A3.2,3.2,0,0,1,96.65,37.55ZM58.59,87.23,56,84.73l2.29-2.27a1.68,1.68,0,0,0,.54-1.2,1.6,1.6,0,0,0-.51-1.16,1.62,1.62,0,0,0-2.41,0l-3.88,4V77a1.6,1.6,0,0,0-.54-1.31,2.23,2.23,0,0,0-2.66,0A1.6,1.6,0,0,0,48.28,77V88.49a1.59,1.59,0,0,0,.54,1.3,2.23,2.23,0,0,0,2.66,0,1.59,1.59,0,0,0,.54-1.3V85.65l4.26,4a1.8,1.8,0,0,0,1.18.53,1.51,1.51,0,0,0,1.18-.55,1.78,1.78,0,0,0,.5-1.24A1.61,1.61,0,0,0,58.59,87.23Zm11-7.65a2,2,0,0,0-1.29.41,1.47,1.47,0,0,0-.53,1.12A3.13,3.13,0,0,0,66.4,80a4.23,4.23,0,0,0-1.89-.42,4.48,4.48,0,0,0-2.39.64A4.33,4.33,0,0,0,60.48,82a6,6,0,0,0-.59,2.71,5.89,5.89,0,0,0,.59,2.69,4.28,4.28,0,0,0,1.64,1.8,4.56,4.56,0,0,0,2.39.63,4.3,4.3,0,0,0,1.87-.41,3.17,3.17,0,0,0,1.33-1.1v.8a2.16,2.16,0,0,1-.6,1.69,2.81,2.81,0,0,1-1.88.53,5.07,5.07,0,0,1-1-.11c-.34-.08-.72-.19-1.16-.33a5.4,5.4,0,0,0-1.36-.31,1,1,0,0,0-.79.37,1.56,1.56,0,0,0-.3,1,1.35,1.35,0,0,0,.22.76,1.58,1.58,0,0,0,.6.54,5.81,5.81,0,0,0,1.74.61,10.82,10.82,0,0,0,2.18.21,6.8,6.8,0,0,0,4.53-1.32,4.84,4.84,0,0,0,1.54-3.89V81.3a1.67,1.67,0,0,0-.5-1.25A1.93,1.93,0,0,0,69.55,79.58ZM65.65,87a1.92,1.92,0,0,1-1.5-.62,2.5,2.5,0,0,1-.56-1.71A2.56,2.56,0,0,1,64.14,83a2.16,2.16,0,0,1,3,0,2.6,2.6,0,0,1,.55,1.75,2.52,2.52,0,0,1-.55,1.72A2,2,0,0,1,65.65,87Z"/></svg>