<svg id="Layer_1" data-name="Layer 1" xmlns="http://www.w3.org/2000/svg" viewBox="0 0 122.3 122.3"><title>l9_5_1</title><path d="M122.24,36.08V52.74a8.66,8.66,0,0,1-8.65,8.66H99.51q0,11.24,0,22.48a4.37,4.37,0,0,1-4.66,4.66H76.72v3.75A8.7,8.7,0,0,1,68,101H51.44a8.69,8.69,0,0,1-8.69-8.69V88.54H24.41a4.43,4.43,0,0,1-2.92-1.23,4.9,4.9,0,0,1-1.31-3c-.33-2.63-.36-11.2,0-22.91H8.72A8.66,8.66,0,0,1,.06,52.74V36.08a8.66,8.66,0,0,1,8.66-8.65H42.36A8.65,8.65,0,0,1,51,36.08V52.74a8.66,8.66,0,0,1-8.65,8.66H28.66q0,9.21.05,18.42h14V75.7A8.69,8.69,0,0,1,51.44,67H68a8.7,8.7,0,0,1,8.7,8.69v4.12H90.91q0-9.21,0-18.42h-11a8.66,8.66,0,0,1-8.65-8.66V36.08a8.65,8.65,0,0,1,8.65-8.65h33.65A8.65,8.65,0,0,1,122.24,36.08ZM15.37,42.73a4.47,4.47,0,0,0-1.79.32V40.83h3.89c1,0,1.57-.42,1.57-1.26s-.53-1.24-1.57-1.24H11.89a1.39,1.39,0,0,0-1.53,1.55v4.88a1,1,0,0,0,.34.78,1.24,1.24,0,0,0,.85.3,1.73,1.73,0,0,0,.81-.2,6.85,6.85,0,0,1,1-.32,5,5,0,0,1,1-.09,2.06,2.06,0,0,1,1.41.45,1.62,1.62,0,0,1,.5,1.26,1.58,1.58,0,0,1-.48,1.27,2.34,2.34,0,0,1-1.5.4,3,3,0,0,1-1-.16,10.82,10.82,0,0,1-1-.43l-.36-.18a4.38,4.38,0,0,0-.54-.27,1.18,1.18,0,0,0-.45-.07.92.92,0,0,0-.76.38,1.5,1.5,0,0,0-.31.95,1.35,1.35,0,0,0,.14.62,1.57,1.57,0,0,0,.42.49,5.7,5.7,0,0,0,1.85.9,7.34,7.34,0,0,0,2.18.33A5.86,5.86,0,0,0,17,50.63a4.09,4.09,0,0,0,1.73-1.53,4.65,4.65,0,0,0,.1-4.42,3.67,3.67,0,0,0-1.43-1.44A4.15,4.15,0,0,0,15.37,42.73Zm11.42,3.11,1.95-1.93a1.06,1.06,0,0,0,.32-.77,1,1,0,0,0-.32-.74,1.05,1.05,0,0,0-1.51,0l-1.95,1.94L23.34,42.4a1,1,0,0,0-.76-.34,1,1,0,0,0-.74.32,1.09,1.09,0,0,0,0,1.53l1.94,1.93-1.94,1.94a1,1,0,0,0-.33.76,1,1,0,0,0,.33.75,1.07,1.07,0,0,0,.75.31,1,1,0,0,0,.76-.31l1.94-1.94,1.95,1.94a1,1,0,0,0,.75.33,1,1,0,0,0,.76-.33,1.1,1.1,0,0,0,0-1.51Zm12.64,2.55H35.81l2.56-2.6a8.29,8.29,0,0,0,1.5-2,4.62,4.62,0,0,0,.44-2,3.27,3.27,0,0,0-.55-1.88,3.55,3.55,0,0,0-1.55-1.26,5.92,5.92,0,0,0-2.34-.44,6.89,6.89,0,0,0-2.08.33,6.78,6.78,0,0,0-1.9.89,1.2,1.2,0,0,0-.44.47,1.54,1.54,0,0,0-.12.65,1.51,1.51,0,0,0,.31,1,.91.91,0,0,0,.75.41.93.93,0,0,0,.34-.06,1.67,1.67,0,0,0,.37-.17l.28-.15.36-.18a8.71,8.71,0,0,1,1-.44,2.93,2.93,0,0,1,1-.15,1.4,1.4,0,0,1,1,.32,1.2,1.2,0,0,1,.35.94,3.48,3.48,0,0,1-1.19,2.28l-3.81,4a2,2,0,0,0-.61,1.4,1.37,1.37,0,0,0,.37,1,1.42,1.42,0,0,0,1,.38h6.57a1.85,1.85,0,0,0,1.18-.32,1.24,1.24,0,0,0,.39-1,1.19,1.19,0,0,0-.39-1A1.85,1.85,0,0,0,39.43,48.39Zm54.48,2H91.45V36.13a2.61,2.61,0,0,0-.74-2,2.63,2.63,0,0,0-1.93-.72,5,5,0,0,0-2.49.75L81.49,37a2,2,0,0,0-1,1.86A2.48,2.48,0,0,0,81,40.5a1.79,1.79,0,0,0,1.44.73,2,2,0,0,0,1-.3l2.4-1.41V50.35H83.5a3,3,0,0,0-2,.54,2,2,0,0,0-.64,1.62c0,1.48.88,2.22,2.62,2.22H93.91q2.61,0,2.61-2.22a2,2,0,0,0-.64-1.62A3,3,0,0,0,93.91,50.35ZM105.54,55a7,7,0,0,0,6-2.79c1.38-1.86,2.08-4.55,2.08-8.07s-.7-6.18-2.09-8a7.84,7.84,0,0,0-12,0q-2.07,2.79-2.07,8t2.07,8.07A7,7,0,0,0,105.54,55Zm0-4.17a2.15,2.15,0,0,1-2.07-1.56,14.94,14.94,0,0,1-.63-5.13,14.76,14.76,0,0,1,.63-5.11,2.16,2.16,0,0,1,4.15,0,14.81,14.81,0,0,1,.63,5.1,14.94,14.94,0,0,1-.63,5.13A2.16,2.16,0,0,1,105.54,50.83ZM58.48,87.16l-2.6-2.5,2.29-2.27a1.66,1.66,0,0,0,.54-1.19A1.74,1.74,0,0,0,57,79.52a1.66,1.66,0,0,0-1.22.54l-3.88,4V76.89a1.59,1.59,0,0,0-.54-1.3,2.23,2.23,0,0,0-2.66,0,1.59,1.59,0,0,0-.54,1.3V88.42a1.57,1.57,0,0,0,.54,1.3,2.23,2.23,0,0,0,2.66,0,1.57,1.57,0,0,0,.54-1.3V85.59l4.26,4a1.78,1.78,0,0,0,1.18.52,1.56,1.56,0,0,0,1.19-.54A1.83,1.83,0,0,0,59,88.38,1.63,1.63,0,0,0,58.48,87.16Zm11-7.64a1.93,1.93,0,0,0-1.3.41,1.5,1.5,0,0,0-.53,1.12,3.13,3.13,0,0,0-1.33-1.15,4.23,4.23,0,0,0-1.89-.42,4.48,4.48,0,0,0-2.39.64,4.31,4.31,0,0,0-1.64,1.81,6,6,0,0,0-.58,2.71,6,6,0,0,0,.58,2.7A4.28,4.28,0,0,0,62,89.14a4.56,4.56,0,0,0,2.39.63,4.3,4.3,0,0,0,1.87-.41,3.19,3.19,0,0,0,1.33-1.11v.8a2.15,2.15,0,0,1-.6,1.69,2.76,2.76,0,0,1-1.88.54,4.46,4.46,0,0,1-1-.12,11.75,11.75,0,0,1-1.16-.32,5.47,5.47,0,0,0-1.36-.32,1,1,0,0,0-.79.38,1.54,1.54,0,0,0-.3,1,1.3,1.3,0,0,0,.22.75,1.6,1.6,0,0,0,.6.55A6.1,6.1,0,0,0,63,93.8a10.9,10.9,0,0,0,2.18.21,6.75,6.75,0,0,0,4.53-1.33,4.81,4.81,0,0,0,1.54-3.88V81.24a1.66,1.66,0,0,0-.5-1.25A1.92,1.92,0,0,0,69.45,79.52ZM65.54,87a1.89,1.89,0,0,1-1.5-.62,2.46,2.46,0,0,1-.56-1.71A2.53,2.53,0,0,1,64,82.89a2.16,2.16,0,0,1,3,0,2.54,2.54,0,0,1,.55,1.74,2.45,2.45,0,0,1-.55,1.72A1.92,1.92,0,0,1,65.54,87Z"/></svg>