<svg id="Layer_1" data-name="Layer 1" xmlns="http://www.w3.org/2000/svg" viewBox="0 0 122.3 122.3"><title>l9_5_1</title><path d="M122.18,35.85V52.51a8.66,8.66,0,0,1-8.65,8.66H99.44l0,22.48a4.37,4.37,0,0,1-4.66,4.66H76.65v3.75A8.69,8.69,0,0,1,68,100.75H51.38a8.69,8.69,0,0,1-8.69-8.69V88.31H24.35a4.45,4.45,0,0,1-2.93-1.23,4.94,4.94,0,0,1-1.3-3c-.33-2.63-.36-11.2,0-22.91H8.65A8.66,8.66,0,0,1,0,52.51V35.85A8.65,8.65,0,0,1,8.65,27.2H42.3A8.65,8.65,0,0,1,51,35.85V52.51a8.66,8.66,0,0,1-8.65,8.66H28.6q0,9.21,0,18.42h14V75.47a8.69,8.69,0,0,1,8.69-8.69H68a8.69,8.69,0,0,1,8.69,8.69v4.12H90.84q0-9.21,0-18.42h-11a8.66,8.66,0,0,1-8.65-8.66V35.85a8.65,8.65,0,0,1,8.65-8.65h33.65A8.65,8.65,0,0,1,122.18,35.85ZM17.77,48.16H14.15l2.56-2.6a8.85,8.85,0,0,0,1.5-2,4.62,4.62,0,0,0,.44-2,3.27,3.27,0,0,0-.55-1.88,3.58,3.58,0,0,0-1.56-1.26,5.85,5.85,0,0,0-2.34-.44,7,7,0,0,0-2.08.33,6.85,6.85,0,0,0-1.89.89,1.13,1.13,0,0,0-.44.47,1.54,1.54,0,0,0-.12.65,1.57,1.57,0,0,0,.3,1,.94.94,0,0,0,.76.41,1,1,0,0,0,.34-.06,1.67,1.67,0,0,0,.37-.17l.28-.15.36-.18a8,8,0,0,1,1-.44,2.93,2.93,0,0,1,1-.15,1.4,1.4,0,0,1,1,.32,1.24,1.24,0,0,1,.35.94A3.52,3.52,0,0,1,14.22,44l-3.81,4a2,2,0,0,0-.62,1.4,1.37,1.37,0,0,0,.38,1,1.41,1.41,0,0,0,1,.38h6.57A1.85,1.85,0,0,0,19,50.47a1.24,1.24,0,0,0,.38-1,1.18,1.18,0,0,0-.38-1A1.85,1.85,0,0,0,17.77,48.16Zm9-2.55,1.94-1.93a1,1,0,0,0,.33-.77.94.94,0,0,0-.33-.74,1,1,0,0,0-.75-.32,1,1,0,0,0-.76.32l-1.94,1.94-1.95-1.94a1,1,0,0,0-.75-.34,1,1,0,0,0-.74.32,1.06,1.06,0,0,0-.32.78,1.12,1.12,0,0,0,.3.75l1.95,1.93-1.95,1.94a1.07,1.07,0,0,0-.32.76,1,1,0,0,0,.32.75,1.09,1.09,0,0,0,.76.31,1,1,0,0,0,.75-.31l1.95-1.94,1.94,1.94a1,1,0,0,0,.76.33,1,1,0,0,0,.75-.33,1.07,1.07,0,0,0,0-1.51Zm13.1,2.55H38.38V39.63a1.5,1.5,0,0,0-1.6-1.6,3.06,3.06,0,0,0-1.5.45L32.4,40.15a1.24,1.24,0,0,0-.63,1.12,1.5,1.5,0,0,0,.36,1,1.07,1.07,0,0,0,.87.44,1.2,1.2,0,0,0,.62-.18l1.45-.84v6.49H33.61a1.78,1.78,0,0,0-1.19.33,1.21,1.21,0,0,0-.38,1c0,.89.52,1.33,1.57,1.33h6.24c1,0,1.57-.44,1.57-1.33a1.21,1.21,0,0,0-.38-1A1.78,1.78,0,0,0,39.85,48.16Zm62.2,2H96l4.26-4.35a14,14,0,0,0,2.5-3.37,7.59,7.59,0,0,0,.74-3.35,5.49,5.49,0,0,0-.92-3.13,5.84,5.84,0,0,0-2.59-2.1,9.66,9.66,0,0,0-3.9-.74,12.18,12.18,0,0,0-6.63,2,2,2,0,0,0-.74.78,2.93,2.93,0,0,0,.32,2.69,1.52,1.52,0,0,0,1.26.67,1.79,1.79,0,0,0,.57-.09,3.5,3.5,0,0,0,.61-.28l.47-.26.6-.3a14.36,14.36,0,0,1,1.69-.73,4.9,4.9,0,0,1,1.61-.26,2.35,2.35,0,0,1,1.66.54,2,2,0,0,1,.59,1.56,5.84,5.84,0,0,1-2,3.81l-6.36,6.63a3.29,3.29,0,0,0-1,2.34A2.18,2.18,0,0,0,91.1,54.5h11a3,3,0,0,0,2-.54,2.07,2.07,0,0,0,.65-1.68,2,2,0,0,0-.65-1.63A3.06,3.06,0,0,0,102.05,50.12ZM58.42,87.93l-2.6-2.5,2.29-2.27A1.66,1.66,0,0,0,58.65,82a1.63,1.63,0,0,0-.51-1.17,1.65,1.65,0,0,0-2.41,0l-3.88,4V77.66a1.59,1.59,0,0,0-.54-1.3A2,2,0,0,0,50,75.92a2.08,2.08,0,0,0-1.34.44,1.62,1.62,0,0,0-.53,1.3V89.19a1.59,1.59,0,0,0,.53,1.3,2,2,0,0,0,1.34.44,2,2,0,0,0,1.33-.44,1.57,1.57,0,0,0,.54-1.3V86.36l4.26,4a1.76,1.76,0,0,0,1.18.52,1.54,1.54,0,0,0,1.18-.54,1.8,1.8,0,0,0,.5-1.24A1.63,1.63,0,0,0,58.42,87.93Zm11-7.64a1.92,1.92,0,0,0-1.29.41,1.51,1.51,0,0,0-.54,1.12,3,3,0,0,0-1.32-1.15,4.23,4.23,0,0,0-1.89-.42,4.48,4.48,0,0,0-2.39.64,4.31,4.31,0,0,0-1.64,1.81,6,6,0,0,0-.59,2.71,6,6,0,0,0,.59,2.7A4.28,4.28,0,0,0,62,89.91a4.56,4.56,0,0,0,2.39.63,4.34,4.34,0,0,0,1.87-.41A3.1,3.1,0,0,0,67.53,89v.8a2.18,2.18,0,0,1-.59,1.69,2.76,2.76,0,0,1-1.88.54,4.4,4.4,0,0,1-1-.12,11.75,11.75,0,0,1-1.16-.32,5.57,5.57,0,0,0-1.36-.32,1,1,0,0,0-.79.38,1.54,1.54,0,0,0-.31,1,1.3,1.3,0,0,0,.23.75,1.57,1.57,0,0,0,.59.55,6,6,0,0,0,1.75.61,10.82,10.82,0,0,0,2.18.21,6.75,6.75,0,0,0,4.53-1.33,4.81,4.81,0,0,0,1.54-3.88V82a1.66,1.66,0,0,0-.5-1.25A1.93,1.93,0,0,0,69.38,80.29Zm-3.9,7.45A1.93,1.93,0,0,1,64,87.12a2.46,2.46,0,0,1-.55-1.71A2.58,2.58,0,0,1,64,83.66a2.17,2.17,0,0,1,3.05,0,2.59,2.59,0,0,1,.54,1.74A2.5,2.5,0,0,1,67,87.13,2,2,0,0,1,65.48,87.74Z"/></svg>