<svg id="Layer_1" data-name="Layer 1" xmlns="http://www.w3.org/2000/svg" viewBox="0 0 122.3 122.3"><title>l9_5_1</title><path d="M122.18,35.91V52.58a8.65,8.65,0,0,1-8.65,8.65H99.44l0,22.48a4.37,4.37,0,0,1-4.66,4.66H76.65v3.75A8.69,8.69,0,0,1,68,100.81H51.38a8.69,8.69,0,0,1-8.69-8.69V88.37H24.35a4.39,4.39,0,0,1-2.93-1.23,4.94,4.94,0,0,1-1.3-3c-.33-2.63-.36-11.2,0-22.91H8.65A8.65,8.65,0,0,1,0,52.58V35.91a8.65,8.65,0,0,1,8.65-8.65H42.3A8.65,8.65,0,0,1,51,35.91V52.58a8.65,8.65,0,0,1-8.65,8.65H28.6q0,9.21,0,18.42h14V75.53a8.69,8.69,0,0,1,8.69-8.69H68a8.69,8.69,0,0,1,8.69,8.69v4.12H90.84q0-9.21,0-18.42h-11a8.65,8.65,0,0,1-8.65-8.65V35.91a8.65,8.65,0,0,1,8.65-8.65h33.65A8.66,8.66,0,0,1,122.18,35.91ZM18.07,38.17H11a1.78,1.78,0,0,0-1.19.33,1.48,1.48,0,0,0,0,2,1.79,1.79,0,0,0,1.2.32h4.5L10.88,48.7a1.64,1.64,0,0,0-.25.86,1.33,1.33,0,0,0,.49,1,1.64,1.64,0,0,0,1.11.42,1.54,1.54,0,0,0,.77-.21,1.74,1.74,0,0,0,.62-.64l5.45-9.45a2.28,2.28,0,0,0,.35-1.19,1.39,1.39,0,0,0-.36-1A1.28,1.28,0,0,0,18.07,38.17Zm8.67,7.5,2-1.92A1.1,1.1,0,0,0,29,43a1,1,0,0,0-.32-.74,1,1,0,0,0-.76-.32,1.07,1.07,0,0,0-.76.32l-1.94,2-1.94-2a1.1,1.1,0,0,0-.76-.34.94.94,0,0,0-.74.33,1.06,1.06,0,0,0-.32.77,1.13,1.13,0,0,0,.3.76l1.95,1.92-1.95,1.95a1,1,0,0,0-.32.75,1.07,1.07,0,0,0,.32.76,1.13,1.13,0,0,0,.76.3,1.06,1.06,0,0,0,.76-.3l1.94-2,1.94,2a1.06,1.06,0,0,0,1.52,0,1.06,1.06,0,0,0,.3-.76,1,1,0,0,0-.3-.75Zm13.1,2.56H38.37V39.7a1.55,1.55,0,0,0-.44-1.17,1.59,1.59,0,0,0-1.16-.44,3.06,3.06,0,0,0-1.5.45l-2.88,1.68a1.21,1.21,0,0,0-.63,1.11,1.55,1.55,0,0,0,.36,1,1.1,1.1,0,0,0,.87.44,1.26,1.26,0,0,0,.63-.18l1.44-.85v6.5H33.6a1.84,1.84,0,0,0-1.19.32,1.22,1.22,0,0,0-.38,1c0,.89.52,1.34,1.57,1.34h6.24c1,0,1.57-.45,1.57-1.34a1.19,1.19,0,0,0-.38-1A1.84,1.84,0,0,0,39.84,48.23Zm62.7-14.81H90.78a3,3,0,0,0-2,.55,2.11,2.11,0,0,0-.63,1.67,2,2,0,0,0,.62,1.62,3,3,0,0,0,2,.54h7.5L90.57,51a2.84,2.84,0,0,0-.42,1.44A2.19,2.19,0,0,0,91,54.13a2.76,2.76,0,0,0,1.86.71,2.6,2.6,0,0,0,1.28-.35,2.77,2.77,0,0,0,1-1.06l9.09-15.75a3.83,3.83,0,0,0,.57-2,2.35,2.35,0,0,0-.58-1.64A2.14,2.14,0,0,0,102.54,33.42ZM58.42,88l-2.6-2.5,2.29-2.27a1.68,1.68,0,0,0,.54-1.2,1.6,1.6,0,0,0-.51-1.16,1.62,1.62,0,0,0-2.41,0l-3.88,3.95V77.73a1.6,1.6,0,0,0-.54-1.31A2,2,0,0,0,50,76a2.08,2.08,0,0,0-1.34.44,1.62,1.62,0,0,0-.53,1.31V89.26a1.62,1.62,0,0,0,.53,1.3A2.08,2.08,0,0,0,50,91a2,2,0,0,0,1.33-.44,1.59,1.59,0,0,0,.54-1.3V86.42l4.26,4a1.78,1.78,0,0,0,1.18.53,1.52,1.52,0,0,0,1.18-.55,1.78,1.78,0,0,0,.5-1.24A1.61,1.61,0,0,0,58.42,88Zm11-7.65a2,2,0,0,0-1.29.41,1.51,1.51,0,0,0-.54,1.12,3,3,0,0,0-1.32-1.15,4.23,4.23,0,0,0-1.89-.42A4.48,4.48,0,0,0,62,81a4.33,4.33,0,0,0-1.64,1.82,6,6,0,0,0-.59,2.71,5.89,5.89,0,0,0,.59,2.69A4.28,4.28,0,0,0,62,90a4.56,4.56,0,0,0,2.39.63,4.34,4.34,0,0,0,1.87-.41,3.08,3.08,0,0,0,1.32-1.1v.8a2.19,2.19,0,0,1-.59,1.69,2.81,2.81,0,0,1-1.88.53A5,5,0,0,1,64,92c-.34-.08-.72-.19-1.16-.33a5.4,5.4,0,0,0-1.36-.31,1,1,0,0,0-.79.37,1.56,1.56,0,0,0-.31,1,1.36,1.36,0,0,0,.23.76,1.62,1.62,0,0,0,.59.54,6,6,0,0,0,1.75.61,10.82,10.82,0,0,0,2.18.21,6.8,6.8,0,0,0,4.53-1.32,4.84,4.84,0,0,0,1.54-3.89V82.07a1.67,1.67,0,0,0-.5-1.25A1.93,1.93,0,0,0,69.38,80.35Zm-3.9,7.46A2,2,0,0,1,64,87.19a2.49,2.49,0,0,1-.55-1.71A2.61,2.61,0,0,1,64,83.72a2.17,2.17,0,0,1,3.05,0,2.6,2.6,0,0,1,.54,1.75A2.52,2.52,0,0,1,67,87.2,2,2,0,0,1,65.48,87.81Z"/></svg>