<svg id="Layer_1" data-name="Layer 1" xmlns="http://www.w3.org/2000/svg" viewBox="0 0 122.3 122.3"><title>l9_5_1</title><path d="M122.18,38.3V55a8.66,8.66,0,0,1-8.65,8.66H99.44l0,22.48a4.37,4.37,0,0,1-4.66,4.66H76.65v3.75A8.69,8.69,0,0,1,68,103.2H51.38a8.69,8.69,0,0,1-8.69-8.69V90.76H24.35a4.45,4.45,0,0,1-2.93-1.23,4.94,4.94,0,0,1-1.3-3c-.33-2.63-.36-11.2,0-22.91H8.65A8.66,8.66,0,0,1,0,55V38.3a8.65,8.65,0,0,1,8.65-8.65H42.3A8.65,8.65,0,0,1,51,38.3V55a8.66,8.66,0,0,1-8.65,8.66H28.6q0,9.21,0,18.42h14V77.92a8.69,8.69,0,0,1,8.69-8.69H68a8.69,8.69,0,0,1,8.69,8.69V82H90.84q0-9.21,0-18.42h-11A8.66,8.66,0,0,1,71.23,55V38.3a8.65,8.65,0,0,1,8.65-8.65h33.65A8.65,8.65,0,0,1,122.18,38.3ZM16.71,46.71a2.94,2.94,0,0,0,1.44-1.09,3,3,0,0,0,.51-1.74,3.11,3.11,0,0,0-.55-1.83,3.56,3.56,0,0,0-1.57-1.23,6.07,6.07,0,0,0-2.34-.43,7.08,7.08,0,0,0-2.14.33,5.64,5.64,0,0,0-1.82.9,1.4,1.4,0,0,0-.44.48,1.48,1.48,0,0,0-.12.63,1.52,1.52,0,0,0,.3,1,.93.93,0,0,0,.76.38,1.06,1.06,0,0,0,.45-.08,6,6,0,0,0,.54-.26l.38-.18a9.52,9.52,0,0,1,1-.43A2.65,2.65,0,0,1,14,43a1.53,1.53,0,0,1,1.1.37,1.35,1.35,0,0,1,.4,1,1,1,0,0,1-.45.92,2.77,2.77,0,0,1-1.44.29h-.79a1,1,0,0,0-.85.38,1.35,1.35,0,0,0-.31.9,1.39,1.39,0,0,0,.31.9,1,1,0,0,0,.85.37H14a2.74,2.74,0,0,1,1.48.31,1.13,1.13,0,0,1,.45,1,1.27,1.27,0,0,1-.44,1.08,2.57,2.57,0,0,1-1.45.32,3.35,3.35,0,0,1-1-.15,8.11,8.11,0,0,1-1-.44l-.23-.1-.17-.08A6,6,0,0,0,11,49.8a1.06,1.06,0,0,0-.45-.08.93.93,0,0,0-.75.38,1.47,1.47,0,0,0-.31.95,1.32,1.32,0,0,0,.13.62,1.29,1.29,0,0,0,.43.49,5.72,5.72,0,0,0,1.87.91,8,8,0,0,0,2.25.32A6.88,6.88,0,0,0,16.71,53a3.88,3.88,0,0,0,1.68-1.25A3.12,3.12,0,0,0,19,49.79a3.19,3.19,0,0,0-.6-2A3,3,0,0,0,16.71,46.71Zm10,1.35,2-1.93a1.06,1.06,0,0,0,.32-.77,1,1,0,0,0-.32-.74,1,1,0,0,0-.76-.32,1.07,1.07,0,0,0-.76.32l-1.94,2-1.94-2a1.06,1.06,0,0,0-.76-.34,1,1,0,0,0-.74.32,1.1,1.1,0,0,0,0,1.53l1.95,1.93L21.77,50a1.06,1.06,0,0,0,0,1.52,1.13,1.13,0,0,0,.76.3,1.06,1.06,0,0,0,.76-.3l1.94-2,1.94,2a1.06,1.06,0,0,0,1.52,0,1.06,1.06,0,0,0,.3-.76,1,1,0,0,0-.3-.76Zm13.1,2.56H38.37V42.08a1.58,1.58,0,0,0-.44-1.17,1.63,1.63,0,0,0-1.16-.43,3.06,3.06,0,0,0-1.5.45l-2.88,1.68a1.21,1.21,0,0,0-.63,1.11,1.5,1.5,0,0,0,.36,1,1.07,1.07,0,0,0,.87.44,1.26,1.26,0,0,0,.63-.18l1.44-.84v6.5H33.6a1.78,1.78,0,0,0-1.19.32,1.22,1.22,0,0,0-.38,1c0,.89.52,1.33,1.57,1.33h6.24c1,0,1.57-.44,1.57-1.33a1.19,1.19,0,0,0-.38-1A1.78,1.78,0,0,0,39.84,50.62Zm60.45-4.56a4.87,4.87,0,0,0,2.39-1.81,5,5,0,0,0,.85-2.9,5.23,5.23,0,0,0-.91-3.06,5.87,5.87,0,0,0-2.61-2,10,10,0,0,0-3.92-.72,12,12,0,0,0-3.55.54,10,10,0,0,0-3.05,1.5,2.42,2.42,0,0,0-.72.81,2.34,2.34,0,0,0-.21,1A2.47,2.47,0,0,0,89.07,41a1.54,1.54,0,0,0,1.26.64,2,2,0,0,0,.75-.13c.22-.09.52-.24.9-.44l.63-.3a16.24,16.24,0,0,1,1.64-.72,4.5,4.5,0,0,1,1.57-.27,2.58,2.58,0,0,1,1.83.62,2.23,2.23,0,0,1,.66,1.72,1.68,1.68,0,0,1-.75,1.53,4.59,4.59,0,0,1-2.4.48H93.84a1.71,1.71,0,0,0-1.41.63,2.46,2.46,0,0,0,0,3,1.71,1.71,0,0,0,1.41.63H95.7a4.51,4.51,0,0,1,2.46.51,1.88,1.88,0,0,1,.75,1.68,2.08,2.08,0,0,1-.73,1.8,4.18,4.18,0,0,1-2.42.54A5.41,5.41,0,0,1,94,52.68a13.55,13.55,0,0,1-1.73-.74l-.37-.16-.29-.14c-.38-.2-.68-.34-.9-.43a2,2,0,0,0-.75-.14,1.56,1.56,0,0,0-1.26.65,2.45,2.45,0,0,0-.51,1.57,2.38,2.38,0,0,0,.21,1,2.35,2.35,0,0,0,.72.82,9.65,9.65,0,0,0,3.12,1.52,13.32,13.32,0,0,0,3.75.52,11.29,11.29,0,0,0,4.25-.73,6.3,6.3,0,0,0,2.8-2.09,5.23,5.23,0,0,0,1-3.18,5.32,5.32,0,0,0-1-3.27A5.12,5.12,0,0,0,100.29,46.06ZM58.42,90.38l-2.6-2.5,2.29-2.26a1.7,1.7,0,0,0,.54-1.2,1.68,1.68,0,0,0-2.92-1.13l-3.88,3.94V80.11a1.59,1.59,0,0,0-.54-1.3A2,2,0,0,0,50,78.37a2.08,2.08,0,0,0-1.34.44,1.62,1.62,0,0,0-.53,1.3V91.64A1.62,1.62,0,0,0,48.64,93a2.08,2.08,0,0,0,1.34.44A2,2,0,0,0,51.31,93a1.6,1.6,0,0,0,.54-1.31V88.81l4.26,4a1.78,1.78,0,0,0,1.18.53,1.55,1.55,0,0,0,1.18-.55A1.8,1.8,0,0,0,59,91.6,1.63,1.63,0,0,0,58.42,90.38Zm11-7.64a2,2,0,0,0-1.29.41,1.51,1.51,0,0,0-.54,1.12,3,3,0,0,0-1.32-1.15,4.23,4.23,0,0,0-1.89-.42,4.48,4.48,0,0,0-2.39.64,4.37,4.37,0,0,0-1.64,1.81,6,6,0,0,0-.59,2.71,5.93,5.93,0,0,0,.59,2.7A4.28,4.28,0,0,0,62,92.36a4.56,4.56,0,0,0,2.39.63,4.34,4.34,0,0,0,1.87-.41,3.15,3.15,0,0,0,1.32-1.1v.79A2.18,2.18,0,0,1,66.94,94a2.76,2.76,0,0,1-1.88.54,4.4,4.4,0,0,1-1-.12,11.75,11.75,0,0,1-1.16-.32,5.57,5.57,0,0,0-1.36-.32,1,1,0,0,0-.79.38,1.54,1.54,0,0,0-.31,1,1.3,1.3,0,0,0,.23.75,1.57,1.57,0,0,0,.59.55A6,6,0,0,0,63,97a10.82,10.82,0,0,0,2.18.21,6.8,6.8,0,0,0,4.53-1.32A4.85,4.85,0,0,0,71.23,92V84.46a1.66,1.66,0,0,0-.5-1.25A1.93,1.93,0,0,0,69.38,82.74Zm-3.9,7.45A1.93,1.93,0,0,1,64,89.57a2.46,2.46,0,0,1-.55-1.71A2.58,2.58,0,0,1,64,86.11a2.17,2.17,0,0,1,3.05,0,2.59,2.59,0,0,1,.54,1.74A2.53,2.53,0,0,1,67,89.59,2,2,0,0,1,65.48,90.19Z"/></svg>