<svg id="Layer_1" data-name="Layer 1" xmlns="http://www.w3.org/2000/svg" viewBox="0 0 122.3 122.3"><title>l9_5_1</title><path d="M122.35,36.08V52.74a8.66,8.66,0,0,1-8.65,8.66H99.61l0,22.48A4.37,4.37,0,0,1,95,88.54H76.82v3.75A8.69,8.69,0,0,1,68.13,101H51.55a8.69,8.69,0,0,1-8.69-8.69V88.54H24.52a4.43,4.43,0,0,1-2.92-1.23,4.9,4.9,0,0,1-1.31-3c-.33-2.63-.36-11.2,0-22.91H8.82A8.66,8.66,0,0,1,.17,52.74V36.08a8.65,8.65,0,0,1,8.65-8.65H42.47a8.65,8.65,0,0,1,8.65,8.65V52.74a8.66,8.66,0,0,1-8.65,8.66H28.77q0,9.21.05,18.42h14V75.7A8.69,8.69,0,0,1,51.55,67H68.13a8.69,8.69,0,0,1,8.69,8.69v4.12H91L91,61.4h-11a8.66,8.66,0,0,1-8.65-8.66V36.08a8.65,8.65,0,0,1,8.65-8.65H113.7A8.65,8.65,0,0,1,122.35,36.08ZM15.48,42.73a4.46,4.46,0,0,0-1.78.32V40.83h3.89q1.56,0,1.56-1.26c0-.82-.52-1.24-1.56-1.24H12a1.58,1.58,0,0,0-1.14.4,1.57,1.57,0,0,0-.39,1.15v4.88a1,1,0,0,0,.34.78,1.24,1.24,0,0,0,.85.3,1.76,1.76,0,0,0,.81-.2,6.85,6.85,0,0,1,1-.32,5,5,0,0,1,1-.09,2.06,2.06,0,0,1,1.41.45,1.62,1.62,0,0,1,.5,1.26,1.55,1.55,0,0,1-.49,1.27,2.29,2.29,0,0,1-1.49.4,3,3,0,0,1-1-.16c-.3-.11-.64-.25-1-.43L12,47.84a4.38,4.38,0,0,0-.54-.27,1.18,1.18,0,0,0-.45-.07.9.9,0,0,0-.75.38,1.45,1.45,0,0,0-.31.95,1.35,1.35,0,0,0,.14.62,1.57,1.57,0,0,0,.42.49,5.7,5.7,0,0,0,1.85.9,7.34,7.34,0,0,0,2.18.33,5.89,5.89,0,0,0,2.58-.54,4,4,0,0,0,1.72-1.53,4.58,4.58,0,0,0,.1-4.42,3.58,3.58,0,0,0-1.42-1.44A4.16,4.16,0,0,0,15.48,42.73Zm11.43,3.11,1.95-1.93a1.06,1.06,0,0,0,.32-.77,1,1,0,0,0-.32-.74,1,1,0,0,0-.76-.32,1,1,0,0,0-.76.32L25.4,44.34,23.46,42.4a1,1,0,0,0-.76-.34,1,1,0,0,0-.74.32,1.1,1.1,0,0,0-.32.78,1.12,1.12,0,0,0,.3.75l1.95,1.93-1.95,1.94a1.07,1.07,0,0,0-.32.76,1,1,0,0,0,.32.75,1.09,1.09,0,0,0,.76.31,1,1,0,0,0,.76-.31l1.94-1.94,1.94,1.94a1,1,0,0,0,1.52,0,1.1,1.1,0,0,0,0-1.51ZM40,48.39H38.54V39.86a1.5,1.5,0,0,0-1.6-1.6,3.06,3.06,0,0,0-1.5.45l-2.88,1.67a1.24,1.24,0,0,0-.63,1.12,1.5,1.5,0,0,0,.36,1,1.07,1.07,0,0,0,.87.44,1.26,1.26,0,0,0,.63-.18l1.44-.84v6.49H33.77a1.78,1.78,0,0,0-1.19.33,1.21,1.21,0,0,0-.38,1c0,.89.53,1.33,1.57,1.33H40c1,0,1.56-.44,1.56-1.33a1.18,1.18,0,0,0-.38-1A1.75,1.75,0,0,0,40,48.39Zm58.1-7.49a7.5,7.5,0,0,0-3,.54V37.75h6.48q2.61,0,2.61-2.1t-2.61-2.07h-9.3a2.56,2.56,0,0,0-1.89.66,2.6,2.6,0,0,0-.66,1.92v8.13a1.65,1.65,0,0,0,.57,1.31,2.07,2.07,0,0,0,1.41.49,2.87,2.87,0,0,0,1.35-.33,10.66,10.66,0,0,1,1.73-.54,8.15,8.15,0,0,1,1.63-.15,3.39,3.39,0,0,1,2.34.75,2.67,2.67,0,0,1,.84,2.1A2.61,2.61,0,0,1,98.84,50a3.84,3.84,0,0,1-2.49.67,4.94,4.94,0,0,1-1.66-.27,16.76,16.76,0,0,1-1.7-.72l-.6-.3a9.13,9.13,0,0,0-.9-.45,2,2,0,0,0-.75-.12,1.56,1.56,0,0,0-1.26.65A2.45,2.45,0,0,0,89,51.07a2.25,2.25,0,0,0,.23,1,2.62,2.62,0,0,0,.7.82A9.93,9.93,0,0,0,93,54.43a12.49,12.49,0,0,0,3.64.54,9.74,9.74,0,0,0,4.29-.9,6.75,6.75,0,0,0,2.88-2.55,7.1,7.1,0,0,0,1-3.81,7.2,7.2,0,0,0-.85-3.55,6.08,6.08,0,0,0-2.37-2.4A7,7,0,0,0,98.12,40.9ZM58.59,87.16,56,84.66l2.29-2.27a1.66,1.66,0,0,0,.54-1.19A1.63,1.63,0,0,0,58.31,80a1.65,1.65,0,0,0-2.41,0L52,84V76.89a1.59,1.59,0,0,0-.54-1.3,2.23,2.23,0,0,0-2.66,0,1.59,1.59,0,0,0-.54,1.3V88.42a1.57,1.57,0,0,0,.54,1.3,2.23,2.23,0,0,0,2.66,0,1.57,1.57,0,0,0,.54-1.3V85.59l4.26,4a1.78,1.78,0,0,0,1.18.52,1.53,1.53,0,0,0,1.18-.54,1.8,1.8,0,0,0,.5-1.24A1.63,1.63,0,0,0,58.59,87.16Zm11-7.64a1.92,1.92,0,0,0-1.29.41,1.47,1.47,0,0,0-.53,1.12A3.13,3.13,0,0,0,66.4,79.9a4.23,4.23,0,0,0-1.89-.42,4.48,4.48,0,0,0-2.39.64,4.31,4.31,0,0,0-1.64,1.81,6,6,0,0,0-.59,2.71,6,6,0,0,0,.59,2.7,4.28,4.28,0,0,0,1.64,1.8,4.56,4.56,0,0,0,2.39.63,4.3,4.3,0,0,0,1.87-.41,3.19,3.19,0,0,0,1.33-1.11v.8a2.15,2.15,0,0,1-.6,1.69,2.76,2.76,0,0,1-1.88.54,4.46,4.46,0,0,1-1-.12A11.75,11.75,0,0,1,63,90.84a5.57,5.57,0,0,0-1.36-.32,1,1,0,0,0-.79.38,1.54,1.54,0,0,0-.3,1,1.3,1.3,0,0,0,.22.75,1.52,1.52,0,0,0,.6.55,6.1,6.1,0,0,0,1.74.61,10.82,10.82,0,0,0,2.18.21,6.75,6.75,0,0,0,4.53-1.33A4.81,4.81,0,0,0,71.4,88.8V81.24A1.66,1.66,0,0,0,70.9,80,1.93,1.93,0,0,0,69.55,79.52ZM65.65,87a1.89,1.89,0,0,1-1.5-.62,2.46,2.46,0,0,1-.56-1.71,2.53,2.53,0,0,1,.55-1.75,2.16,2.16,0,0,1,3,0,2.59,2.59,0,0,1,.55,1.74,2.5,2.5,0,0,1-.55,1.72A1.92,1.92,0,0,1,65.65,87Z"/></svg>