<svg id="Layer_1" data-name="Layer 1" xmlns="http://www.w3.org/2000/svg" viewBox="0 0 122.3 122.3"><title>l9_6_1</title><path d="M122.18,35.3V52a8.65,8.65,0,0,1-8.65,8.65H99.44l0,22.48a4.36,4.36,0,0,1-4.66,4.66H76.65V91.5A8.69,8.69,0,0,1,68,100.19H51.38a8.69,8.69,0,0,1-8.69-8.69V87.75H24.35a4.39,4.39,0,0,1-2.93-1.23,4.92,4.92,0,0,1-1.3-3c-.33-2.63-.36-11.2,0-22.91H8.65A8.65,8.65,0,0,1,0,52V35.3a8.66,8.66,0,0,1,8.65-8.66H42.3A8.66,8.66,0,0,1,51,35.3V52a8.65,8.65,0,0,1-8.65,8.65H28.6q0,9.21,0,18.42h14V74.92a8.7,8.7,0,0,1,8.69-8.7H68a8.7,8.7,0,0,1,8.69,8.7V79H90.84q0-9.21,0-18.42h-11A8.65,8.65,0,0,1,71.23,52V35.3a8.66,8.66,0,0,1,8.65-8.66h33.65A8.66,8.66,0,0,1,122.18,35.3ZM16.72,43.7a2.9,2.9,0,0,0,1.43-1.09,3,3,0,0,0,.51-1.73A3.12,3.12,0,0,0,18.11,39a3.54,3.54,0,0,0-1.57-1.22,5.89,5.89,0,0,0-2.34-.43,7.12,7.12,0,0,0-2.14.32,6.07,6.07,0,0,0-1.82.9,1.51,1.51,0,0,0-.44.49,1.41,1.41,0,0,0-.12.63,1.49,1.49,0,0,0,.3.94.94.94,0,0,0,.76.39,1.25,1.25,0,0,0,.45-.08l.54-.26.38-.18a9.77,9.77,0,0,1,1-.44,2.9,2.9,0,0,1,.94-.16,1.53,1.53,0,0,1,1.1.37,1.33,1.33,0,0,1,.4,1,1,1,0,0,1-.45.91,2.68,2.68,0,0,1-1.44.29h-.8a1,1,0,0,0-.84.38,1.46,1.46,0,0,0,0,1.8,1,1,0,0,0,.84.38H14a2.75,2.75,0,0,1,1.48.3,1.14,1.14,0,0,1,.45,1,1.25,1.25,0,0,1-.44,1.08,2.48,2.48,0,0,1-1.45.33,3.34,3.34,0,0,1-1-.16,8.11,8.11,0,0,1-1-.44l-.23-.1-.17-.08a6,6,0,0,0-.54-.26,1.25,1.25,0,0,0-.45-.08.91.91,0,0,0-.75.39,1.42,1.42,0,0,0-.31.94A1.3,1.3,0,0,0,10,49.16a5.92,5.92,0,0,0,1.87.91,8,8,0,0,0,2.25.31,6.88,6.88,0,0,0,2.55-.44,3.8,3.8,0,0,0,1.68-1.25A3.12,3.12,0,0,0,19,46.78a3.19,3.19,0,0,0-.6-2A3.11,3.11,0,0,0,16.72,43.7Zm10,1.35,1.94-1.92a1.07,1.07,0,0,0,.33-.78.92.92,0,0,0-.33-.73,1,1,0,0,0-.75-.33,1,1,0,0,0-.76.33l-1.94,1.94-1.94-1.94a1.06,1.06,0,0,0-.76-.35.94.94,0,0,0-.74.33,1.06,1.06,0,0,0-.32.77,1.13,1.13,0,0,0,.3.76l1.95,1.92-1.95,2a1,1,0,0,0-.32.75,1.07,1.07,0,0,0,.32.76,1.14,1.14,0,0,0,.76.31,1.07,1.07,0,0,0,.76-.31l1.94-1.94,1.94,1.94a1,1,0,0,0,.76.32,1,1,0,0,0,.75-.32,1,1,0,0,0,.31-.76,1,1,0,0,0-.31-.75Zm13.1,2.56H38.37V39.08a1.5,1.5,0,0,0-1.6-1.6,3.06,3.06,0,0,0-1.5.45L32.39,39.6a1.22,1.22,0,0,0-.63,1.12,1.52,1.52,0,0,0,.36,1,1.1,1.1,0,0,0,.87.44,1.26,1.26,0,0,0,.63-.18l1.44-.85v6.5H33.6a1.84,1.84,0,0,0-1.19.32,1.23,1.23,0,0,0-.38,1c0,.88.52,1.33,1.57,1.33h6.24c1,0,1.57-.45,1.57-1.33a1.23,1.23,0,0,0-.38-1A1.84,1.84,0,0,0,39.84,47.61Zm60.45-4.55a4.89,4.89,0,0,0,2.39-1.82,5,5,0,0,0,.85-2.89,5.23,5.23,0,0,0-.91-3.06,5.87,5.87,0,0,0-2.61-2,10,10,0,0,0-3.92-.72,12,12,0,0,0-3.55.54,10,10,0,0,0-3.05,1.5,2.42,2.42,0,0,0-.72.81,2.34,2.34,0,0,0-.21,1A2.45,2.45,0,0,0,89.07,38a1.56,1.56,0,0,0,1.26.65,2,2,0,0,0,.75-.14c.22-.09.52-.23.9-.43l.63-.3a16.24,16.24,0,0,1,1.64-.72,4.5,4.5,0,0,1,1.57-.27,2.58,2.58,0,0,1,1.83.61,2.25,2.25,0,0,1,.66,1.73,1.68,1.68,0,0,1-.75,1.53,4.59,4.59,0,0,1-2.4.48H93.84a1.71,1.71,0,0,0-1.41.63,2.46,2.46,0,0,0,0,3,1.71,1.71,0,0,0,1.41.63H95.7a4.51,4.51,0,0,1,2.46.51,1.88,1.88,0,0,1,.75,1.68,2.08,2.08,0,0,1-.73,1.8,4.18,4.18,0,0,1-2.42.54A5.4,5.4,0,0,1,94,49.67a13.36,13.36,0,0,1-1.73-.73l-.37-.17-.29-.13c-.38-.2-.68-.35-.9-.44a2,2,0,0,0-.75-.13,1.54,1.54,0,0,0-1.26.64,2.47,2.47,0,0,0-.51,1.58,2.34,2.34,0,0,0,.21,1,2.38,2.38,0,0,0,.72.83,9.64,9.64,0,0,0,3.12,1.51,13.33,13.33,0,0,0,3.75.53,11.29,11.29,0,0,0,4.25-.74,6.28,6.28,0,0,0,2.8-2.08,5.23,5.23,0,0,0,1-3.18,5.32,5.32,0,0,0-1-3.27A5.12,5.12,0,0,0,100.29,43.06ZM59.68,78.14l.55,0a1.61,1.61,0,0,0,1-.38,1.27,1.27,0,0,0,.37-1,1.2,1.2,0,0,0-.4-1,2,2,0,0,0-1.3-.33,2.76,2.76,0,0,0-.44,0l-.54,0a4.86,4.86,0,0,0-3.16,1.29,4.38,4.38,0,0,0-1.21,3.16H54c-1.12,0-1.68.46-1.68,1.37s.56,1.38,1.68,1.38h.61v6a1.62,1.62,0,0,0,.53,1.3,2.25,2.25,0,0,0,2.67,0,1.59,1.59,0,0,0,.54-1.3v-6h1.15q1.68,0,1.68-1.38c0-.91-.56-1.37-1.68-1.37H58.32v-.25a1.77,1.77,0,0,1,.3-1.08A1.4,1.4,0,0,1,59.68,78.14ZM63.82,90.4A2,2,0,0,0,65.15,90a1.56,1.56,0,0,0,.54-1.29V77.11a1.57,1.57,0,0,0-.54-1.3,2,2,0,0,0-1.33-.45,2,2,0,0,0-1.34.45,1.59,1.59,0,0,0-.53,1.3V88.68A1.58,1.58,0,0,0,62.48,90,2.07,2.07,0,0,0,63.82,90.4Z"/></svg>