<svg id="Layer_1" data-name="Layer 1" xmlns="http://www.w3.org/2000/svg" viewBox="0 0 122.3 122.3"><title>l9_6_1</title><path d="M122.24,37.79V54.46a8.65,8.65,0,0,1-8.65,8.65H99.51q0,11.24,0,22.48a4.37,4.37,0,0,1-4.66,4.66H76.72V94a8.7,8.7,0,0,1-8.7,8.69H51.44A8.69,8.69,0,0,1,42.75,94V90.25H24.41A4.43,4.43,0,0,1,21.49,89a4.9,4.9,0,0,1-1.31-3c-.33-2.63-.36-11.2,0-22.91H8.72A8.66,8.66,0,0,1,.06,54.46V37.79a8.66,8.66,0,0,1,8.66-8.65H42.36A8.65,8.65,0,0,1,51,37.79V54.46a8.65,8.65,0,0,1-8.65,8.65H28.66q0,9.21.05,18.42h14V77.41a8.69,8.69,0,0,1,8.69-8.69H68a8.7,8.7,0,0,1,8.7,8.69v4.12H90.91q0-9.21,0-18.42h-11a8.65,8.65,0,0,1-8.65-8.65V37.79a8.65,8.65,0,0,1,8.65-8.65h33.65A8.65,8.65,0,0,1,122.24,37.79ZM16.78,46.2a2.92,2.92,0,0,0,1.43-1.09,3,3,0,0,0,.51-1.74,3.11,3.11,0,0,0-.55-1.83,3.53,3.53,0,0,0-1.56-1.23,6.12,6.12,0,0,0-2.35-.43,7.18,7.18,0,0,0-2.14.33,5.64,5.64,0,0,0-1.82.9,1.27,1.27,0,0,0-.43.48,1.34,1.34,0,0,0-.13.63,1.47,1.47,0,0,0,.31,1,.9.9,0,0,0,.75.38,1.06,1.06,0,0,0,.45-.08,6,6,0,0,0,.54-.26l.38-.18a10.57,10.57,0,0,1,1-.43,2.65,2.65,0,0,1,.94-.16,1.53,1.53,0,0,1,1.1.37,1.31,1.31,0,0,1,.4,1,1,1,0,0,1-.45.92,2.77,2.77,0,0,1-1.44.29h-.79a1,1,0,0,0-.85.38,1.5,1.5,0,0,0,0,1.8,1,1,0,0,0,.85.37H14a2.74,2.74,0,0,1,1.48.31,1.14,1.14,0,0,1,.45,1A1.27,1.27,0,0,1,15.51,50a2.57,2.57,0,0,1-1.45.32,3.35,3.35,0,0,1-1-.15,8.11,8.11,0,0,1-1-.44l-.23-.1-.17-.08a4.89,4.89,0,0,0-.54-.26,1.06,1.06,0,0,0-.45-.08.93.93,0,0,0-.75.38,1.47,1.47,0,0,0-.31.95,1.32,1.32,0,0,0,.13.62,1.38,1.38,0,0,0,.43.49,5.72,5.72,0,0,0,1.87.91,8,8,0,0,0,2.25.32,6.88,6.88,0,0,0,2.55-.44,3.82,3.82,0,0,0,1.68-1.25,3.13,3.13,0,0,0,.6-1.91,3.2,3.2,0,0,0-.61-2A3.07,3.07,0,0,0,16.78,46.2Zm10,1.35,1.95-1.93a1.06,1.06,0,0,0,.32-.77,1,1,0,0,0-.32-.74,1.05,1.05,0,0,0-1.51,0l-1.95,2-1.94-2a1.08,1.08,0,0,0-.76-.34,1,1,0,0,0-.74.32,1.1,1.1,0,0,0-.32.78,1.07,1.07,0,0,0,.31.75l1.94,1.93-1.94,1.94a1,1,0,0,0,0,1.52,1.1,1.1,0,0,0,.75.3,1.06,1.06,0,0,0,.76-.3l1.94-1.95L27.24,51a1,1,0,0,0,.75.32,1.07,1.07,0,0,0,.76-.32,1.06,1.06,0,0,0,.3-.76,1,1,0,0,0-.3-.76ZM38.38,46.2a2.92,2.92,0,0,0,1.43-1.09,3,3,0,0,0,.51-1.74,3.11,3.11,0,0,0-.55-1.83,3.53,3.53,0,0,0-1.56-1.23,6.12,6.12,0,0,0-2.35-.43,7.18,7.18,0,0,0-2.14.33,5.64,5.64,0,0,0-1.82.9,1.27,1.27,0,0,0-.43.48,1.34,1.34,0,0,0-.13.63,1.47,1.47,0,0,0,.31,1,.9.9,0,0,0,.75.38,1.06,1.06,0,0,0,.45-.08,6,6,0,0,0,.54-.26l.38-.18a10.57,10.57,0,0,1,1-.43,2.65,2.65,0,0,1,.94-.16,1.53,1.53,0,0,1,1.1.37,1.31,1.31,0,0,1,.4,1,1,1,0,0,1-.45.92,2.77,2.77,0,0,1-1.44.29h-.79a1,1,0,0,0-.85.38,1.46,1.46,0,0,0,0,1.8,1,1,0,0,0,.85.37h1.11a2.74,2.74,0,0,1,1.48.31,1.14,1.14,0,0,1,.45,1A1.27,1.27,0,0,1,37.11,50a2.57,2.57,0,0,1-1.45.32,3.35,3.35,0,0,1-1-.15,8.11,8.11,0,0,1-1-.44l-.23-.1-.17-.08a4.89,4.89,0,0,0-.54-.26,1.06,1.06,0,0,0-.45-.08.93.93,0,0,0-.75.38,1.47,1.47,0,0,0-.31.95,1.32,1.32,0,0,0,.13.62,1.38,1.38,0,0,0,.43.49,5.72,5.72,0,0,0,1.87.91,8,8,0,0,0,2.25.32,6.88,6.88,0,0,0,2.55-.44,3.82,3.82,0,0,0,1.68-1.25,3.13,3.13,0,0,0,.6-1.91,3.2,3.2,0,0,0-.61-2A3.07,3.07,0,0,0,38.38,46.2ZM95.79,35A7.73,7.73,0,0,0,92,36a6.68,6.68,0,0,0-2.62,2.6,7.47,7.47,0,0,0-.94,3.76,7.56,7.56,0,0,0,.82,3.56,6.13,6.13,0,0,0,2.27,2.46,6,6,0,0,0,3.24.88,5.78,5.78,0,0,0,2.53-.55,4.76,4.76,0,0,0,1.84-1.52A7.89,7.89,0,0,1,98,51.06a2.87,2.87,0,0,1-2.48,1.39,4,4,0,0,1-1.38-.24,17,17,0,0,1-1.64-.72l-.66-.33c-.39-.2-.69-.34-.91-.43a2,2,0,0,0-.75-.14,1.59,1.59,0,0,0-1.27.65,2.4,2.4,0,0,0-.53,1.57,2.2,2.2,0,0,0,.23,1,2.58,2.58,0,0,0,.73.81,9.59,9.59,0,0,0,3,1.5,11.61,11.61,0,0,0,3.43.54,8.14,8.14,0,0,0,4.67-1.35,8.72,8.72,0,0,0,3.09-3.85,14.57,14.57,0,0,0,1.09-5.87q0-5.1-2.3-7.86A8.09,8.09,0,0,0,95.79,35ZM96.12,45a2.36,2.36,0,0,1-1.87-.76,3.06,3.06,0,0,1-.68-2.09A3,3,0,0,1,94.26,40a2.36,2.36,0,0,1,1.86-.78,2.38,2.38,0,0,1,1.86.8,2.93,2.93,0,0,1,.72,2.05,3,3,0,0,1-.7,2.07A2.42,2.42,0,0,1,96.12,45ZM59.74,79.63l.55,0a1.65,1.65,0,0,0,1-.39,1.25,1.25,0,0,0,.38-1,1.21,1.21,0,0,0-.4-1,2,2,0,0,0-1.3-.34,2.72,2.72,0,0,0-.45,0L59,77a4.86,4.86,0,0,0-3.16,1.29,4.36,4.36,0,0,0-1.21,3.16H54c-1.12,0-1.68.45-1.68,1.37s.56,1.38,1.68,1.38h.61v5.94a1.62,1.62,0,0,0,.53,1.31,2.08,2.08,0,0,0,1.34.44,2,2,0,0,0,1.33-.44,1.6,1.6,0,0,0,.54-1.31V84.19h1.15q1.68,0,1.68-1.38c0-.92-.56-1.37-1.68-1.37H58.38v-.25a1.77,1.77,0,0,1,.3-1.08A1.4,1.4,0,0,1,59.74,79.63ZM63.88,91.9a2.08,2.08,0,0,0,1.33-.43,1.56,1.56,0,0,0,.54-1.29V78.6a1.59,1.59,0,0,0-.54-1.3,2.23,2.23,0,0,0-2.66,0A1.59,1.59,0,0,0,62,78.6V90.18a1.56,1.56,0,0,0,.54,1.29A2.08,2.08,0,0,0,63.88,91.9Z"/></svg>