<svg id="Layer_1" data-name="Layer 1" xmlns="http://www.w3.org/2000/svg" viewBox="0 0 122.3 122.3"><title>l9_6_1</title><path d="M122.24,36.68V53.34A8.65,8.65,0,0,1,113.59,62H99.51q0,11.25,0,22.49a4.51,4.51,0,0,1-1.23,3.35,4.57,4.57,0,0,1-3.43,1.31H76.72v3.74a8.71,8.71,0,0,1-8.7,8.7H51.44a8.7,8.7,0,0,1-8.69-8.7V89.14H24.41a4.4,4.4,0,0,1-2.92-1.24,4.88,4.88,0,0,1-1.31-3c-.33-2.64-.36-11.21,0-22.92H8.72A8.66,8.66,0,0,1,.06,53.34V36.68A8.66,8.66,0,0,1,8.72,28H42.36A8.65,8.65,0,0,1,51,36.68V53.34A8.65,8.65,0,0,1,42.36,62H28.66q0,9.21.05,18.42h14V76.3a8.69,8.69,0,0,1,8.69-8.69H68a8.7,8.7,0,0,1,8.7,8.69v4.11H90.91q0-9.21,0-18.42h-11a8.65,8.65,0,0,1-8.65-8.65V36.68A8.65,8.65,0,0,1,79.94,28h33.65A8.65,8.65,0,0,1,122.24,36.68ZM15.57,43.27a3.49,3.49,0,0,0-1.52.33,2.93,2.93,0,0,0-1.11.91,4.85,4.85,0,0,1,.68-2.35,1.72,1.72,0,0,1,1.48-.84,2.31,2.31,0,0,1,.83.15c.27.1.6.24,1,.43l.4.2a6,6,0,0,0,.54.26,1.25,1.25,0,0,0,.45.08.94.94,0,0,0,.76-.39,1.43,1.43,0,0,0,.32-.94,1.33,1.33,0,0,0-.14-.63,1.51,1.51,0,0,0-.44-.49,5.9,5.9,0,0,0-1.81-.9,7.17,7.17,0,0,0-2.06-.32,4.88,4.88,0,0,0-2.8.81,5.24,5.24,0,0,0-1.85,2.31,8.7,8.7,0,0,0-.66,3.52A7.14,7.14,0,0,0,11,50.13a4.83,4.83,0,0,0,3.92,1.65,4.57,4.57,0,0,0,2.29-.56,4,4,0,0,0,1.57-1.55,4.49,4.49,0,0,0,.57-2.26,4.64,4.64,0,0,0-.49-2.13,3.82,3.82,0,0,0-1.36-1.48A3.7,3.7,0,0,0,15.57,43.27Zm-.83,6a1.42,1.42,0,0,1-1.11-.47,1.77,1.77,0,0,1-.43-1.24,1.81,1.81,0,0,1,.42-1.24,1.59,1.59,0,0,1,2.25,0,1.84,1.84,0,0,1,.4,1.25,1.8,1.8,0,0,1-.41,1.25A1.43,1.43,0,0,1,14.74,49.24Zm12.06-2.8,1.95-1.93a1.07,1.07,0,0,0,.32-.77,1,1,0,0,0-.32-.74,1,1,0,0,0-1.51,0l-1.95,1.94L23.35,43a1,1,0,0,0-.76-.34.94.94,0,0,0-.74.32,1.07,1.07,0,0,0-.32.77,1.09,1.09,0,0,0,.31.76l1.94,1.93-1.94,1.94a1,1,0,0,0-.33.76,1,1,0,0,0,.33.75,1.07,1.07,0,0,0,.75.31,1,1,0,0,0,.76-.31L25.29,48l1.95,1.94a1,1,0,0,0,.75.33,1,1,0,0,0,.76-.33,1,1,0,0,0,.3-.75,1,1,0,0,0-.3-.76Zm11.58-1.35A2.92,2.92,0,0,0,39.81,44a3,3,0,0,0,.51-1.74,3.14,3.14,0,0,0-.55-1.84,3.58,3.58,0,0,0-1.56-1.22,5.94,5.94,0,0,0-2.35-.43,7.5,7.5,0,0,0-2.14.32,6.07,6.07,0,0,0-1.82.9,1.37,1.37,0,0,0-.43.49,1.34,1.34,0,0,0-.13.63,1.42,1.42,0,0,0,.31.94.91.91,0,0,0,.75.39,1.25,1.25,0,0,0,.45-.08,6,6,0,0,0,.54-.26l.38-.18a8.43,8.43,0,0,1,1-.43,2.67,2.67,0,0,1,1-.17,1.56,1.56,0,0,1,1.09.37,1.33,1.33,0,0,1,.4,1,1,1,0,0,1-.45.92,2.79,2.79,0,0,1-1.44.28h-.79a1.05,1.05,0,0,0-.85.38,1.5,1.5,0,0,0,0,1.8,1.05,1.05,0,0,0,.85.38h1.11a2.65,2.65,0,0,1,1.48.31,1.12,1.12,0,0,1,.45,1,1.25,1.25,0,0,1-.44,1.08,2.48,2.48,0,0,1-1.45.33,3.39,3.39,0,0,1-1-.15,8.31,8.31,0,0,1-1-.45l-.23-.09-.17-.09-.54-.26a1.25,1.25,0,0,0-.45-.08.91.91,0,0,0-.75.39,1.44,1.44,0,0,0-.31.94,1.39,1.39,0,0,0,.13.63,1.47,1.47,0,0,0,.43.49,5.72,5.72,0,0,0,1.87.91,8,8,0,0,0,2.25.31,6.68,6.68,0,0,0,2.55-.44,3.74,3.74,0,0,0,1.68-1.25,3.11,3.11,0,0,0,.6-1.91,3.22,3.22,0,0,0-.61-2A3,3,0,0,0,38.38,45.09Zm58,3.25A1.72,1.72,0,0,0,97.49,48a1.6,1.6,0,0,0,.59-1,2.77,2.77,0,0,1,.67-1.21,13.84,13.84,0,0,1,1.51-1.4c.71-.62,1.27-1.15,1.72-1.59a6,6,0,0,0,1.12-1.59,4.5,4.5,0,0,0,.47-2,4.42,4.42,0,0,0-.88-2.68,5.77,5.77,0,0,0-2.39-1.86,8.61,8.61,0,0,0-3.48-.68,11.29,11.29,0,0,0-3.47.56A10.84,10.84,0,0,0,90.27,36a2.58,2.58,0,0,0-.73.81,2.21,2.21,0,0,0-.22,1,2.42,2.42,0,0,0,.52,1.58,1.58,1.58,0,0,0,1.28.64,3.6,3.6,0,0,0,1.64-.57l.73-.36A10.72,10.72,0,0,1,95,38.43a3.87,3.87,0,0,1,1.37-.26,2,2,0,0,1,1.31.39,1.26,1.26,0,0,1,.49,1,2.19,2.19,0,0,1-.35,1.2,9.72,9.72,0,0,1-1,1.29A9.5,9.5,0,0,0,95.29,44a4.67,4.67,0,0,0-.54,2.35,2.15,2.15,0,0,0,.43,1.44A1.51,1.51,0,0,0,96.4,48.34Zm.06,7.17a2.79,2.79,0,0,0,2.08-.84,3,3,0,0,0,0-4.14,2.79,2.79,0,0,0-2.08-.84,2.76,2.76,0,0,0-2.06.84,3,3,0,0,0,0,4.14A2.76,2.76,0,0,0,96.46,55.51Zm-36.72,23,.55,0a1.65,1.65,0,0,0,1-.39,1.27,1.27,0,0,0,.38-1,1.19,1.19,0,0,0-.4-1,2,2,0,0,0-1.3-.34l-.45,0-.54,0a4.82,4.82,0,0,0-3.16,1.3,4.34,4.34,0,0,0-1.21,3.16H54c-1.12,0-1.68.45-1.68,1.36s.56,1.39,1.68,1.39h.61V89a1.58,1.58,0,0,0,.54,1.3,2.23,2.23,0,0,0,2.66,0,1.58,1.58,0,0,0,.54-1.3V83.08h1.15c1.12,0,1.68-.47,1.68-1.39s-.56-1.36-1.68-1.36H58.38v-.26a1.81,1.81,0,0,1,.3-1.08A1.41,1.41,0,0,1,59.74,78.52Zm4.14,12.26a2,2,0,0,0,1.33-.43,1.53,1.53,0,0,0,.54-1.29V77.49a1.58,1.58,0,0,0-.54-1.3,2.23,2.23,0,0,0-2.66,0,1.58,1.58,0,0,0-.54,1.3V89.06a1.53,1.53,0,0,0,.54,1.29A2,2,0,0,0,63.88,90.78Z"/></svg>