<svg id="Layer_1" data-name="Layer 1" xmlns="http://www.w3.org/2000/svg" viewBox="0 0 122.3 122.3"><title>l9_6_1</title><path d="M122.35,36.68V53.34A8.65,8.65,0,0,1,113.7,62H99.61l0,22.49a4.51,4.51,0,0,1-1.23,3.35A4.57,4.57,0,0,1,95,89.14H76.82v3.74a8.7,8.7,0,0,1-8.69,8.7H51.55a8.7,8.7,0,0,1-8.69-8.7V89.14H24.52A4.4,4.4,0,0,1,21.6,87.9a4.88,4.88,0,0,1-1.31-3c-.33-2.64-.36-11.21,0-22.92H8.82A8.65,8.65,0,0,1,.17,53.34V36.68A8.65,8.65,0,0,1,8.82,28H42.47a8.65,8.65,0,0,1,8.65,8.65V53.34A8.65,8.65,0,0,1,42.47,62H28.77q0,9.21.05,18.42h14V76.3a8.69,8.69,0,0,1,8.69-8.69H68.13a8.69,8.69,0,0,1,8.69,8.69v4.11H91L91,62h-11a8.65,8.65,0,0,1-8.65-8.65V36.68A8.65,8.65,0,0,1,80.05,28H113.7A8.65,8.65,0,0,1,122.35,36.68ZM15.48,43.32a4.42,4.42,0,0,0-1.78.33V41.43h3.89c1,0,1.57-.42,1.57-1.26s-.53-1.24-1.57-1.24H12a1.54,1.54,0,0,0-1.14.4,1.55,1.55,0,0,0-.39,1.15v4.88a1,1,0,0,0,.34.78,1.24,1.24,0,0,0,.85.3,1.8,1.8,0,0,0,.81-.2,6,6,0,0,1,1-.33,5,5,0,0,1,1-.09,2.06,2.06,0,0,1,1.41.45,1.62,1.62,0,0,1,.5,1.26,1.57,1.57,0,0,1-.48,1.27,2.33,2.33,0,0,1-1.5.41,3.22,3.22,0,0,1-1-.16c-.3-.11-.64-.26-1-.44l-.36-.18-.54-.27a1.48,1.48,0,0,0-.46-.07.93.93,0,0,0-.75.39,1.44,1.44,0,0,0-.31.94,1.39,1.39,0,0,0,.14.63,1.69,1.69,0,0,0,.42.49,6.13,6.13,0,0,0,1.85.9,7.33,7.33,0,0,0,2.18.32,5.89,5.89,0,0,0,2.58-.54,4,4,0,0,0,1.72-1.53,4.56,4.56,0,0,0,.1-4.41,3.58,3.58,0,0,0-1.42-1.44A4.07,4.07,0,0,0,15.48,43.32Zm11.43,3.12,1.95-1.93a1.07,1.07,0,0,0,.32-.77,1,1,0,0,0-.32-.74,1,1,0,0,0-.76-.33,1,1,0,0,0-.76.33L25.4,44.94,23.46,43a1,1,0,0,0-.76-.34A.93.93,0,0,0,22,43a1.07,1.07,0,0,0-.32.77,1.13,1.13,0,0,0,.3.76l1.95,1.93-1.95,1.94a1.07,1.07,0,0,0-.32.76,1,1,0,0,0,.32.75,1.09,1.09,0,0,0,.76.31,1,1,0,0,0,.76-.31L25.4,48l1.94,1.94a1,1,0,0,0,1.52,0,1,1,0,0,0,.3-.75,1,1,0,0,0-.3-.76ZM40,49H38.54V40.46a1.5,1.5,0,0,0-1.6-1.6,3.06,3.06,0,0,0-1.5.45L32.56,41a1.23,1.23,0,0,0-.63,1.12,1.5,1.5,0,0,0,.36,1,1.1,1.1,0,0,0,.87.44,1.26,1.26,0,0,0,.63-.18l1.44-.85V49H33.77a1.8,1.8,0,0,0-1.19.33,1.21,1.21,0,0,0-.38,1c0,.89.53,1.33,1.57,1.33H40c1,0,1.56-.44,1.56-1.33a1.18,1.18,0,0,0-.38-1A1.75,1.75,0,0,0,40,49Zm58.1-7.49a7.5,7.5,0,0,0-3,.54V38.35h6.48q2.61,0,2.61-2.1t-2.61-2.07h-9.3a2.56,2.56,0,0,0-1.89.66,2.6,2.6,0,0,0-.66,1.92v8.13a1.65,1.65,0,0,0,.57,1.31,2.07,2.07,0,0,0,1.41.49,2.87,2.87,0,0,0,1.35-.33,10.66,10.66,0,0,1,1.73-.54,8.15,8.15,0,0,1,1.63-.15,3.39,3.39,0,0,1,2.34.75,2.67,2.67,0,0,1,.84,2.1,2.61,2.61,0,0,1-.81,2.12,3.84,3.84,0,0,1-2.49.67A4.94,4.94,0,0,1,94.69,51a16.76,16.76,0,0,1-1.7-.72l-.6-.3a9.13,9.13,0,0,0-.9-.45,2,2,0,0,0-.75-.12,1.56,1.56,0,0,0-1.26.65A2.45,2.45,0,0,0,89,51.67a2.25,2.25,0,0,0,.23,1,2.62,2.62,0,0,0,.7.82A9.93,9.93,0,0,0,93,55a12.49,12.49,0,0,0,3.64.54,9.74,9.74,0,0,0,4.29-.9,6.75,6.75,0,0,0,2.88-2.55,7.1,7.1,0,0,0,1-3.81,7.2,7.2,0,0,0-.85-3.55,6.08,6.08,0,0,0-2.37-2.4A7,7,0,0,0,98.12,41.5Zm-38.27,37,.55,0a1.68,1.68,0,0,0,1-.39,1.27,1.27,0,0,0,.37-1,1.19,1.19,0,0,0-.39-1,2,2,0,0,0-1.31-.34l-.44,0-.54,0A4.82,4.82,0,0,0,56,77.17a4.34,4.34,0,0,0-1.21,3.16h-.61c-1.12,0-1.68.45-1.68,1.36s.56,1.39,1.68,1.39h.61V89a1.6,1.6,0,0,0,.53,1.3,2,2,0,0,0,1.34.44A2,2,0,0,0,58,90.32a1.58,1.58,0,0,0,.54-1.3V83.08h1.15c1.12,0,1.68-.47,1.68-1.39s-.56-1.36-1.68-1.36H58.49v-.26a1.81,1.81,0,0,1,.3-1.08A1.4,1.4,0,0,1,59.85,78.52ZM64,90.78a2,2,0,0,0,1.33-.43,1.53,1.53,0,0,0,.54-1.29V77.49a1.58,1.58,0,0,0-.54-1.3,2.23,2.23,0,0,0-2.66,0,1.58,1.58,0,0,0-.54,1.3V89.06a1.53,1.53,0,0,0,.54,1.29A2,2,0,0,0,64,90.78Z"/></svg>