<svg id="Layer_1" data-name="Layer 1" xmlns="http://www.w3.org/2000/svg" viewBox="0 0 122.3 122.3"><title>l9_6_1</title><path d="M122.35,37.79V54.46a8.65,8.65,0,0,1-8.65,8.65H99.61l0,22.48A4.37,4.37,0,0,1,95,90.25H76.82V94a8.69,8.69,0,0,1-8.69,8.69H51.55A8.69,8.69,0,0,1,42.86,94V90.25H24.52A4.43,4.43,0,0,1,21.6,89a4.9,4.9,0,0,1-1.31-3c-.33-2.63-.36-11.2,0-22.91H8.82A8.66,8.66,0,0,1,.17,54.46V37.79a8.65,8.65,0,0,1,8.65-8.65H42.47a8.65,8.65,0,0,1,8.65,8.65V54.46a8.65,8.65,0,0,1-8.65,8.65H28.77q0,9.21.05,18.42h14V77.41a8.69,8.69,0,0,1,8.69-8.69H68.13a8.69,8.69,0,0,1,8.69,8.69v4.12H91l0-18.42h-11a8.65,8.65,0,0,1-8.65-8.65V37.79a8.65,8.65,0,0,1,8.65-8.65H113.7A8.65,8.65,0,0,1,122.35,37.79ZM18.46,48.07h-.39v-6.5a1.54,1.54,0,0,0-.49-1.2,1.69,1.69,0,0,0-1.17-.43,1.74,1.74,0,0,0-.8.19,1.67,1.67,0,0,0-.64.54L9.82,48a2.05,2.05,0,0,0-.4,1.19,1.41,1.41,0,0,0,.38,1,1.37,1.37,0,0,0,1,.39h4v.62a1.67,1.67,0,0,0,2.77,1.22,1.56,1.56,0,0,0,.46-1.22v-.62h.39c1.05,0,1.57-.42,1.57-1.28S19.51,48.07,18.46,48.07Zm-5.78,0L14.84,45v3.11Zm14.22-.52,2-1.93a1.06,1.06,0,0,0,.32-.77,1,1,0,0,0-.32-.74,1.05,1.05,0,0,0-1.51,0l-1.95,2-1.94-2a1.08,1.08,0,0,0-.76-.34,1,1,0,0,0-.74.32,1.1,1.1,0,0,0,0,1.53l1.95,1.93-1.95,1.94a1.06,1.06,0,0,0,0,1.52,1.15,1.15,0,0,0,.76.3,1.06,1.06,0,0,0,.76-.3l1.94-1.95L27.34,51a1,1,0,0,0,.75.32,1.07,1.07,0,0,0,.76-.32,1.06,1.06,0,0,0,.3-.76,1,1,0,0,0-.3-.76Zm12.64,2.56H35.92l2.56-2.61a8.56,8.56,0,0,0,1.5-2,4.56,4.56,0,0,0,.44-2,3.29,3.29,0,0,0-.55-1.88,3.52,3.52,0,0,0-1.56-1.26A5.85,5.85,0,0,0,36,39.88a6.88,6.88,0,0,0-2.07.33,6.53,6.53,0,0,0-1.9.9,1.12,1.12,0,0,0-.44.46,1.73,1.73,0,0,0,.19,1.62.9.9,0,0,0,.75.4,1.27,1.27,0,0,0,.34-.05,3.73,3.73,0,0,0,.37-.17l.28-.16.36-.18a8,8,0,0,1,1-.44,2.93,2.93,0,0,1,1-.15,1.45,1.45,0,0,1,1,.32,1.24,1.24,0,0,1,.35.94A3.5,3.5,0,0,1,36,46l-3.81,4a2,2,0,0,0-.62,1.41A1.31,1.31,0,0,0,33,52.73h6.57a1.79,1.79,0,0,0,1.18-.32,1.24,1.24,0,0,0,.38-1,1.18,1.18,0,0,0-.38-1A1.85,1.85,0,0,0,39.54,50.11Zm61.67-4.56a4.53,4.53,0,0,0,2.36-1.77,5.21,5.21,0,0,0,.85-3,5,5,0,0,0-2.08-4.21A9.37,9.37,0,0,0,96.65,35,9.37,9.37,0,0,0,91,36.57a4.94,4.94,0,0,0-2.1,4.21,5.12,5.12,0,0,0,.84,2.93,4.93,4.93,0,0,0,2.4,1.84,5,5,0,0,0-2.82,1.79,5.27,5.27,0,0,0-1,3.28,5.19,5.19,0,0,0,2.24,4.46,10.27,10.27,0,0,0,6.1,1.6,10.3,10.3,0,0,0,6.11-1.6,5.29,5.29,0,0,0-1.55-9.53Zm-4.56,7q-3.27,0-3.27-2.34t3.27-2.34q3.27,0,3.27,2.34T96.65,52.51Zm0-13.32a3.2,3.2,0,0,1,2,.53,2,2,0,0,1,.66,1.69,2.08,2.08,0,0,1-.66,1.71,4,4,0,0,1-4,0A2.08,2.08,0,0,1,94,41.41a2,2,0,0,1,.66-1.69A3.2,3.2,0,0,1,96.65,39.19ZM59.85,79.63l.55,0a1.68,1.68,0,0,0,1-.39,1.24,1.24,0,0,0,.37-1,1.21,1.21,0,0,0-.39-1,2.06,2.06,0,0,0-1.31-.34,2.59,2.59,0,0,0-.44,0l-.54,0A4.86,4.86,0,0,0,56,78.28a4.36,4.36,0,0,0-1.21,3.16h-.61c-1.12,0-1.68.45-1.68,1.37s.56,1.38,1.68,1.38h.61v5.94a1.62,1.62,0,0,0,.53,1.31,2.08,2.08,0,0,0,1.34.44A2,2,0,0,0,58,91.44a1.6,1.6,0,0,0,.54-1.31V84.19h1.15q1.68,0,1.68-1.38c0-.92-.56-1.37-1.68-1.37H58.49v-.25a1.77,1.77,0,0,1,.3-1.08A1.4,1.4,0,0,1,59.85,79.63ZM64,91.9a2.08,2.08,0,0,0,1.33-.43,1.56,1.56,0,0,0,.54-1.29V78.6a1.59,1.59,0,0,0-.54-1.3,2.23,2.23,0,0,0-2.66,0,1.59,1.59,0,0,0-.54,1.3V90.18a1.56,1.56,0,0,0,.54,1.29A2.08,2.08,0,0,0,64,91.9Z"/></svg>