<svg id="Layer_1" data-name="Layer 1" xmlns="http://www.w3.org/2000/svg" viewBox="0 0 122.3 122.3"><title>l9_6_1</title><path d="M122.24,35.53V52.19a8.65,8.65,0,0,1-8.65,8.65H99.51q0,11.25,0,22.48A4.36,4.36,0,0,1,94.87,88H76.72v3.75a8.7,8.7,0,0,1-8.7,8.69H51.44a8.69,8.69,0,0,1-8.69-8.69V88H24.41a4.37,4.37,0,0,1-2.92-1.23,4.88,4.88,0,0,1-1.31-3c-.33-2.63-.36-11.2,0-22.91H8.72A8.66,8.66,0,0,1,.06,52.19V35.53a8.66,8.66,0,0,1,8.66-8.66H42.36A8.66,8.66,0,0,1,51,35.53V52.19a8.65,8.65,0,0,1-8.65,8.65H28.66q0,9.21.05,18.42h14V75.15a8.7,8.7,0,0,1,8.69-8.7H68a8.71,8.71,0,0,1,8.7,8.7v4.11H90.91q0-9.21,0-18.42h-11a8.65,8.65,0,0,1-8.65-8.65V35.53a8.66,8.66,0,0,1,8.65-8.66h33.65A8.66,8.66,0,0,1,122.24,35.53ZM16.77,43.93a2.86,2.86,0,0,0,1.43-1.09,3,3,0,0,0,.51-1.73,3.12,3.12,0,0,0-.55-1.84,3.45,3.45,0,0,0-1.56-1.22,5.94,5.94,0,0,0-2.35-.43,7.05,7.05,0,0,0-2.13.32,6,6,0,0,0-1.83.9,1.47,1.47,0,0,0-.43.49,1.28,1.28,0,0,0-.13.63,1.44,1.44,0,0,0,.31.94.91.91,0,0,0,.75.39,1.25,1.25,0,0,0,.45-.08l.54-.26.38-.18c.36-.18.69-.33,1-.44a3,3,0,0,1,.95-.16,1.52,1.52,0,0,1,1.09.37,1.33,1.33,0,0,1,.4,1,1,1,0,0,1-.45.91,2.68,2.68,0,0,1-1.44.29H12.9a1.05,1.05,0,0,0-.85.38,1.5,1.5,0,0,0,0,1.8,1.05,1.05,0,0,0,.85.38H14a2.75,2.75,0,0,1,1.48.3,1.14,1.14,0,0,1,.45,1,1.25,1.25,0,0,1-.44,1.08,2.46,2.46,0,0,1-1.45.33,3.27,3.27,0,0,1-1-.16,7.62,7.62,0,0,1-1-.44l-.22-.1a.91.91,0,0,1-.17-.08A4.88,4.88,0,0,0,11,47a1.25,1.25,0,0,0-.45-.08.91.91,0,0,0-.75.39,1.42,1.42,0,0,0-.31.94,1.32,1.32,0,0,0,.13.62,1.41,1.41,0,0,0,.43.5A5.92,5.92,0,0,0,12,50.3a8,8,0,0,0,2.25.31,6.88,6.88,0,0,0,2.55-.44,3.69,3.69,0,0,0,1.68-1.25,3.4,3.4,0,0,0,0-3.87A3.07,3.07,0,0,0,16.77,43.93Zm10,1.35,1.95-1.92a1.1,1.1,0,0,0,.32-.78.94.94,0,0,0-.32-.73,1,1,0,0,0-1.51,0l-1.95,1.94-1.94-1.94a1.06,1.06,0,0,0-.76-.35,1,1,0,0,0-.74.33,1.06,1.06,0,0,0-.32.77,1.09,1.09,0,0,0,.31.76l1.94,1.92-1.94,1.95a1,1,0,0,0-.33.75,1,1,0,0,0,.33.76,1.11,1.11,0,0,0,.75.31,1.07,1.07,0,0,0,.76-.31l1.94-1.94,1.95,1.94a1,1,0,0,0,.75.32,1,1,0,0,0,.76-.32A1,1,0,0,0,29,48a1,1,0,0,0-.3-.75Zm12.64,2.56H35.81l2.56-2.61a8.11,8.11,0,0,0,1.5-2,4.41,4.41,0,0,0,.44-2,3.25,3.25,0,0,0-.55-1.88,3.42,3.42,0,0,0-1.55-1.26,5.75,5.75,0,0,0-2.34-.44,6.88,6.88,0,0,0-2.08.32,7.24,7.24,0,0,0-1.9.9,1.08,1.08,0,0,0-.44.47,1.71,1.71,0,0,0,.19,1.61.9.9,0,0,0,.75.4.93.93,0,0,0,.34,0,2,2,0,0,0,.37-.17l.28-.15.36-.18a9.8,9.8,0,0,1,1-.45,2.93,2.93,0,0,1,1-.15,1.4,1.4,0,0,1,1,.33,1.16,1.16,0,0,1,.35.93,3.47,3.47,0,0,1-1.19,2.29l-3.81,4a2,2,0,0,0-.61,1.4,1.34,1.34,0,0,0,.37,1,1.39,1.39,0,0,0,1,.39h6.57a1.79,1.79,0,0,0,1.18-.33,1.22,1.22,0,0,0,.39-1,1.2,1.2,0,0,0-.39-1A1.85,1.85,0,0,0,39.43,47.84Zm58.91-7.58a5.75,5.75,0,0,0-2.53.55A4.68,4.68,0,0,0,94,42.33a8,8,0,0,1,1.12-3.92A2.87,2.87,0,0,1,97.57,37a3.91,3.91,0,0,1,1.37.24q.66.24,1.65.72l.67.33a8.39,8.39,0,0,0,.9.43,1.93,1.93,0,0,0,.75.14,1.59,1.59,0,0,0,1.27-.65,2.4,2.4,0,0,0,.53-1.57,2.2,2.2,0,0,0-.23-1,2.58,2.58,0,0,0-.73-.81,9.59,9.59,0,0,0-3-1.5,11.61,11.61,0,0,0-3.43-.54,8.12,8.12,0,0,0-4.67,1.35A8.72,8.72,0,0,0,89.54,38a14.57,14.57,0,0,0-1.1,5.87c0,3.4.78,6,2.32,7.86a8.05,8.05,0,0,0,6.54,2.76,7.7,7.7,0,0,0,3.8-.93,6.71,6.71,0,0,0,2.63-2.6,7.47,7.47,0,0,0,.94-3.76,7.56,7.56,0,0,0-.82-3.56,6.18,6.18,0,0,0-2.26-2.46A6.07,6.07,0,0,0,98.34,40.26ZM97,50.22a2.42,2.42,0,0,1-1.87-.8,3.32,3.32,0,0,1,0-4.12A2.4,2.4,0,0,1,97,44.52a2.37,2.37,0,0,1,1.87.76,3.54,3.54,0,0,1,0,4.16A2.37,2.37,0,0,1,97,50.22ZM59.74,77.37l.55-.05a1.59,1.59,0,0,0,1-.38,1.27,1.27,0,0,0,.38-1,1.23,1.23,0,0,0-.4-1,2,2,0,0,0-1.3-.33,2.9,2.9,0,0,0-.45,0l-.54,0A4.86,4.86,0,0,0,55.85,76a4.38,4.38,0,0,0-1.21,3.16H54c-1.12,0-1.68.46-1.68,1.37s.56,1.38,1.68,1.38h.61v6a1.62,1.62,0,0,0,.53,1.3,2.08,2.08,0,0,0,1.34.44,2,2,0,0,0,1.33-.44,1.59,1.59,0,0,0,.54-1.3v-6h1.15q1.68,0,1.68-1.38c0-.91-.56-1.37-1.68-1.37H58.38v-.25a1.77,1.77,0,0,1,.3-1.08A1.41,1.41,0,0,1,59.74,77.37Zm4.14,12.26a2,2,0,0,0,1.33-.43,1.56,1.56,0,0,0,.54-1.29V76.34a1.57,1.57,0,0,0-.54-1.3,2.19,2.19,0,0,0-2.66,0,1.57,1.57,0,0,0-.54,1.3V87.91a1.56,1.56,0,0,0,.54,1.29A2,2,0,0,0,63.88,89.63Z"/></svg>