<svg id="Layer_1" data-name="Layer 1" xmlns="http://www.w3.org/2000/svg" viewBox="0 0 122.3 122.3"><title>l9_6_1</title><path d="M122.24,36.68V53.34A8.65,8.65,0,0,1,113.59,62H99.51q0,11.25,0,22.49a4.51,4.51,0,0,1-1.23,3.35,4.57,4.57,0,0,1-3.43,1.31H76.72v3.74a8.71,8.71,0,0,1-8.7,8.7H51.44a8.7,8.7,0,0,1-8.69-8.7V89.14H24.41a4.4,4.4,0,0,1-2.92-1.24,4.88,4.88,0,0,1-1.31-3c-.33-2.64-.36-11.21,0-22.92H8.72A8.66,8.66,0,0,1,.06,53.34V36.68A8.66,8.66,0,0,1,8.72,28H42.36A8.65,8.65,0,0,1,51,36.68V53.34A8.65,8.65,0,0,1,42.36,62H28.66q0,9.21.05,18.42h14V76.3a8.69,8.69,0,0,1,8.69-8.69H68a8.7,8.7,0,0,1,8.7,8.69v4.11H90.91q0-9.21,0-18.42h-11a8.65,8.65,0,0,1-8.65-8.65V36.68A8.65,8.65,0,0,1,79.94,28h33.65A8.65,8.65,0,0,1,122.24,36.68ZM15.36,43.32a4.45,4.45,0,0,0-1.78.33V41.43h3.89c1,0,1.57-.42,1.57-1.26s-.53-1.24-1.57-1.24H11.89a1.5,1.5,0,0,0-1.13.4,1.52,1.52,0,0,0-.4,1.15v4.88a1,1,0,0,0,.34.78,1.24,1.24,0,0,0,.85.3,1.73,1.73,0,0,0,.81-.2,6.28,6.28,0,0,1,1-.33,5,5,0,0,1,1-.09,2.06,2.06,0,0,1,1.41.45,1.62,1.62,0,0,1,.5,1.26,1.57,1.57,0,0,1-.48,1.27,2.33,2.33,0,0,1-1.5.41,3.22,3.22,0,0,1-1-.16c-.3-.11-.64-.26-1-.44l-.36-.18-.54-.27a1.42,1.42,0,0,0-.45-.07.93.93,0,0,0-.76.39,1.5,1.5,0,0,0-.31.94,1.39,1.39,0,0,0,.14.63,1.69,1.69,0,0,0,.42.49,6.13,6.13,0,0,0,1.85.9,7.33,7.33,0,0,0,2.18.32A5.86,5.86,0,0,0,17,51.22a4.09,4.09,0,0,0,1.73-1.53,4.63,4.63,0,0,0,.1-4.41,3.67,3.67,0,0,0-1.43-1.44A4.07,4.07,0,0,0,15.36,43.32Zm11.43,3.12,1.95-1.93a1.07,1.07,0,0,0,.32-.77,1,1,0,0,0-.32-.74,1,1,0,0,0-1.51,0l-1.95,1.94L23.34,43a1,1,0,0,0-.76-.34.94.94,0,0,0-.74.32,1.07,1.07,0,0,0-.32.77,1.09,1.09,0,0,0,.31.76l1.94,1.93-1.94,1.94a1,1,0,0,0-.33.76,1,1,0,0,0,.33.75,1.07,1.07,0,0,0,.75.31,1,1,0,0,0,.76-.31L25.28,48l1.95,1.94a1,1,0,0,0,.75.33,1,1,0,0,0,.76-.33,1,1,0,0,0,.3-.75,1,1,0,0,0-.3-.76ZM39.43,49H35.81l2.56-2.61a8.27,8.27,0,0,0,1.5-2,4.49,4.49,0,0,0,.44-2,3.27,3.27,0,0,0-.55-1.88,3.42,3.42,0,0,0-1.55-1.26,5.92,5.92,0,0,0-2.34-.44,7.29,7.29,0,0,0-4,1.22,1.13,1.13,0,0,0-.44.47,1.71,1.71,0,0,0,.19,1.61.91.91,0,0,0,.75.41.93.93,0,0,0,.34-.06,1.49,1.49,0,0,0,.37-.17l.28-.15.36-.18a9.5,9.5,0,0,1,1-.44,2.93,2.93,0,0,1,1-.16,1.4,1.4,0,0,1,1,.33,1.18,1.18,0,0,1,.35.93,3.47,3.47,0,0,1-1.19,2.29l-3.81,4a2,2,0,0,0-.61,1.4,1.33,1.33,0,0,0,.37,1,1.39,1.39,0,0,0,1,.39h6.57a1.85,1.85,0,0,0,1.18-.32,1.25,1.25,0,0,0,.39-1,1.18,1.18,0,0,0-.39-1A1.85,1.85,0,0,0,39.43,49Zm54.48,2H91.45V36.73a2.61,2.61,0,0,0-.74-1.95,2.63,2.63,0,0,0-1.93-.72,5.07,5.07,0,0,0-2.49.75l-4.8,2.79a2,2,0,0,0-1,1.86A2.54,2.54,0,0,0,81,41.1a1.79,1.79,0,0,0,1.44.73,2.07,2.07,0,0,0,1-.3l2.39-1.41V51H83.5a3,3,0,0,0-2,.54,2,2,0,0,0-.63,1.62q0,2.22,2.61,2.22H93.91q2.61,0,2.61-2.22a2,2,0,0,0-.63-1.62A3,3,0,0,0,93.91,51Zm11.64,4.65a7,7,0,0,0,6-2.79q2.06-2.79,2.06-8.07t-2.08-8a7.83,7.83,0,0,0-12,0q-2.07,2.79-2.07,8t2.07,8.07A7,7,0,0,0,105.55,55.6Zm0-4.17a2.15,2.15,0,0,1-2.07-1.56,14.64,14.64,0,0,1-.64-5.13,14.47,14.47,0,0,1,.64-5.11,2.15,2.15,0,0,1,4.13,0,14.52,14.52,0,0,1,.64,5.1,14.64,14.64,0,0,1-.64,5.13A2.14,2.14,0,0,1,105.55,51.43ZM59.74,78.52l.55,0a1.65,1.65,0,0,0,1-.39,1.27,1.27,0,0,0,.38-1,1.19,1.19,0,0,0-.4-1,2,2,0,0,0-1.3-.34l-.45,0-.54,0a4.82,4.82,0,0,0-3.16,1.3,4.34,4.34,0,0,0-1.21,3.16H54c-1.12,0-1.68.45-1.68,1.36s.56,1.39,1.68,1.39h.61V89a1.6,1.6,0,0,0,.53,1.3,2,2,0,0,0,1.34.44,2,2,0,0,0,1.33-.44,1.58,1.58,0,0,0,.54-1.3V83.08h1.15c1.12,0,1.68-.47,1.68-1.39s-.56-1.36-1.68-1.36H58.38v-.26a1.81,1.81,0,0,1,.3-1.08A1.41,1.41,0,0,1,59.74,78.52Zm4.14,12.26a2,2,0,0,0,1.33-.43,1.53,1.53,0,0,0,.54-1.29V77.49a1.58,1.58,0,0,0-.54-1.3,2.23,2.23,0,0,0-2.66,0,1.58,1.58,0,0,0-.54,1.3V89.06a1.53,1.53,0,0,0,.54,1.29A2,2,0,0,0,63.88,90.78Z"/></svg>