<svg id="Layer_1" data-name="Layer 1" xmlns="http://www.w3.org/2000/svg" viewBox="0 0 122.3 122.3"><title>l9_6_1</title><path d="M122.24,35.53V52.19a8.65,8.65,0,0,1-8.65,8.65H99.51q0,11.25,0,22.48A4.36,4.36,0,0,1,94.87,88H76.72v3.75a8.7,8.7,0,0,1-8.7,8.69H51.44a8.69,8.69,0,0,1-8.69-8.69V88H24.41a4.37,4.37,0,0,1-2.92-1.23,4.88,4.88,0,0,1-1.31-3c-.33-2.63-.36-11.2,0-22.91H8.72A8.66,8.66,0,0,1,.06,52.19V35.53a8.66,8.66,0,0,1,8.66-8.66H42.36A8.66,8.66,0,0,1,51,35.53V52.19a8.65,8.65,0,0,1-8.65,8.65H28.66q0,9.21.05,18.42h14V75.15a8.7,8.7,0,0,1,8.69-8.7H68a8.71,8.71,0,0,1,8.7,8.7v4.11H90.91q0-9.21,0-18.42h-11a8.65,8.65,0,0,1-8.65-8.65V35.53a8.66,8.66,0,0,1,8.65-8.66h33.65A8.66,8.66,0,0,1,122.24,35.53ZM18.36,45.81H18v-6.5a1.55,1.55,0,0,0-.49-1.21,1.68,1.68,0,0,0-1.17-.43,1.74,1.74,0,0,0-.8.19,1.61,1.61,0,0,0-.64.55L9.72,45.75a2,2,0,0,0-.39,1.19,1.37,1.37,0,0,0,.37,1,1.39,1.39,0,0,0,1,.4h4v.61a1.6,1.6,0,0,0,.44,1.22,1.84,1.84,0,0,0,2.34,0A1.56,1.56,0,0,0,18,48.94v-.61h.39c1.05,0,1.57-.43,1.57-1.28S19.41,45.81,18.36,45.81Zm-5.78,0,2.16-3.12v3.12Zm14.22-.53,1.95-1.92a1.1,1.1,0,0,0,.32-.78.94.94,0,0,0-.32-.73,1,1,0,0,0-1.51,0l-1.95,1.94-1.94-1.94a1.06,1.06,0,0,0-.76-.35,1,1,0,0,0-.74.33,1.06,1.06,0,0,0-.32.77,1.09,1.09,0,0,0,.31.76l1.94,1.92-1.94,1.95a1,1,0,0,0-.33.75,1,1,0,0,0,.33.76,1.11,1.11,0,0,0,.75.31,1.07,1.07,0,0,0,.76-.31l1.94-1.94,1.95,1.94a1,1,0,0,0,.75.32,1,1,0,0,0,.76-.32,1,1,0,0,0,.3-.76,1,1,0,0,0-.3-.75Zm11.58-1.35a2.86,2.86,0,0,0,1.43-1.09,3,3,0,0,0,.51-1.73,3.12,3.12,0,0,0-.55-1.84,3.51,3.51,0,0,0-1.56-1.22,5.94,5.94,0,0,0-2.35-.43,7.17,7.17,0,0,0-2.14.32,6.07,6.07,0,0,0-1.82.9,1.37,1.37,0,0,0-.43.49,1.28,1.28,0,0,0-.13.63,1.44,1.44,0,0,0,.31.94.91.91,0,0,0,.75.39,1.25,1.25,0,0,0,.45-.08l.54-.26.38-.18c.36-.18.69-.33,1-.44a2.91,2.91,0,0,1,1-.16,1.52,1.52,0,0,1,1.09.37,1.33,1.33,0,0,1,.4,1,1,1,0,0,1-.45.91,2.68,2.68,0,0,1-1.44.29h-.79a1.05,1.05,0,0,0-.85.38,1.5,1.5,0,0,0,0,1.8,1.05,1.05,0,0,0,.85.38h1.11a2.75,2.75,0,0,1,1.48.3,1.14,1.14,0,0,1,.45,1,1.25,1.25,0,0,1-.44,1.08,2.48,2.48,0,0,1-1.45.33,3.39,3.39,0,0,1-1-.16,8.11,8.11,0,0,1-1-.44l-.23-.1-.17-.08a4.16,4.16,0,0,0-.54-.26,1.25,1.25,0,0,0-.45-.08.91.91,0,0,0-.75.39,1.42,1.42,0,0,0-.31.94,1.32,1.32,0,0,0,.13.62,1.41,1.41,0,0,0,.43.5,5.92,5.92,0,0,0,1.87.91,8,8,0,0,0,2.25.31,6.88,6.88,0,0,0,2.55-.44,3.74,3.74,0,0,0,1.68-1.25,3.13,3.13,0,0,0,.6-1.91,3.2,3.2,0,0,0-.61-2A3.07,3.07,0,0,0,38.38,43.93Zm58,3.26a1.72,1.72,0,0,0,1.09-.36,1.6,1.6,0,0,0,.59-1,2.8,2.8,0,0,1,.67-1.22,13.91,13.91,0,0,1,1.51-1.39c.71-.62,1.27-1.15,1.72-1.59A6,6,0,0,0,103.1,40a4.5,4.5,0,0,0,.47-2,4.45,4.45,0,0,0-.88-2.69,5.77,5.77,0,0,0-2.39-1.86,8.61,8.61,0,0,0-3.48-.67,11.28,11.28,0,0,0-3.47.55,10.87,10.87,0,0,0-3.08,1.55,2.58,2.58,0,0,0-.73.81,2.21,2.21,0,0,0-.22,1,2.4,2.4,0,0,0,.52,1.57,1.59,1.59,0,0,0,1.28.65,3.6,3.6,0,0,0,1.64-.57l.73-.36A10.88,10.88,0,0,1,95,37.27,3.86,3.86,0,0,1,96.37,37a2,2,0,0,1,1.31.39,1.26,1.26,0,0,1,.49,1.05,2.19,2.19,0,0,1-.35,1.2,9.72,9.72,0,0,1-1,1.29,9.46,9.46,0,0,0-1.5,1.93,4.71,4.71,0,0,0-.54,2.36,2.15,2.15,0,0,0,.43,1.44A1.51,1.51,0,0,0,96.4,47.19Zm.06,7.17a2.79,2.79,0,0,0,2.08-.84,3,3,0,0,0,0-4.14,2.79,2.79,0,0,0-2.08-.84,2.76,2.76,0,0,0-2.06.84,3,3,0,0,0,0,4.14A2.76,2.76,0,0,0,96.46,54.36Zm-36.72,23,.55-.05a1.59,1.59,0,0,0,1-.38,1.27,1.27,0,0,0,.38-1,1.23,1.23,0,0,0-.4-1,2,2,0,0,0-1.3-.33,2.9,2.9,0,0,0-.45,0l-.54,0A4.86,4.86,0,0,0,55.85,76a4.38,4.38,0,0,0-1.21,3.16H54c-1.12,0-1.68.46-1.68,1.37s.56,1.38,1.68,1.38h.61v6a1.59,1.59,0,0,0,.54,1.3,2.23,2.23,0,0,0,2.66,0,1.59,1.59,0,0,0,.54-1.3v-6h1.15q1.68,0,1.68-1.38c0-.91-.56-1.37-1.68-1.37H58.38v-.25a1.77,1.77,0,0,1,.3-1.08A1.41,1.41,0,0,1,59.74,77.37Zm4.14,12.26a2,2,0,0,0,1.33-.43,1.56,1.56,0,0,0,.54-1.29V76.34a1.57,1.57,0,0,0-.54-1.3,2.19,2.19,0,0,0-2.66,0,1.57,1.57,0,0,0-.54,1.3V87.91a1.56,1.56,0,0,0,.54,1.29A2,2,0,0,0,63.88,89.63Z"/></svg>