<svg id="Layer_1" data-name="Layer 1" xmlns="http://www.w3.org/2000/svg" viewBox="0 0 122.3 122.3"><title>l9_6_1</title><path d="M122.24,37.79V54.46a8.65,8.65,0,0,1-8.65,8.65H99.51q0,11.24,0,22.48a4.37,4.37,0,0,1-4.66,4.66H76.72V94a8.7,8.7,0,0,1-8.7,8.69H51.44A8.69,8.69,0,0,1,42.75,94V90.25H24.41A4.43,4.43,0,0,1,21.49,89a4.9,4.9,0,0,1-1.31-3c-.33-2.63-.36-11.2,0-22.91H8.72A8.66,8.66,0,0,1,.06,54.46V37.79a8.66,8.66,0,0,1,8.66-8.65H42.36A8.65,8.65,0,0,1,51,37.79V54.46a8.65,8.65,0,0,1-8.65,8.65H28.66q0,9.21.05,18.42h14V77.41a8.69,8.69,0,0,1,8.69-8.69H68a8.7,8.7,0,0,1,8.7,8.69v4.12H90.91q0-9.21,0-18.42h-11a8.65,8.65,0,0,1-8.65-8.65V37.79a8.65,8.65,0,0,1,8.65-8.65h33.65A8.65,8.65,0,0,1,122.24,37.79ZM18.36,48.07H18v-6.5a1.54,1.54,0,0,0-.49-1.2,1.69,1.69,0,0,0-1.17-.43,1.74,1.74,0,0,0-.8.19,1.67,1.67,0,0,0-.64.54L9.72,48a2,2,0,0,0-.39,1.19,1.31,1.31,0,0,0,1.4,1.38h4v.62a1.48,1.48,0,0,0,1.6,1.63,1.61,1.61,0,0,0,1.17-.41A1.56,1.56,0,0,0,18,51.21v-.62h.39c1.05,0,1.57-.42,1.57-1.28S19.41,48.07,18.36,48.07Zm-5.78,0L14.74,45v3.11Zm14.22-.52,1.95-1.93a1.06,1.06,0,0,0,.32-.77,1,1,0,0,0-.32-.74,1.05,1.05,0,0,0-1.51,0l-1.95,2-1.94-2a1.08,1.08,0,0,0-.76-.34,1,1,0,0,0-.74.32,1.1,1.1,0,0,0-.32.78,1.07,1.07,0,0,0,.31.75l1.94,1.93-1.94,1.94a1,1,0,0,0,0,1.52,1.1,1.1,0,0,0,.75.3,1.06,1.06,0,0,0,.76-.3l1.94-1.95L27.24,51a1,1,0,0,0,.75.32,1.07,1.07,0,0,0,.76-.32,1.06,1.06,0,0,0,.3-.76,1,1,0,0,0-.3-.76ZM40,48.07h-.39v-6.5a1.54,1.54,0,0,0-.49-1.2,1.69,1.69,0,0,0-1.17-.43,1.74,1.74,0,0,0-.8.19,1.67,1.67,0,0,0-.64.54L31.32,48a2,2,0,0,0-.39,1.19,1.4,1.4,0,0,0,.37,1,1.37,1.37,0,0,0,1,.39h4v.62a1.48,1.48,0,0,0,1.6,1.63,1.61,1.61,0,0,0,1.17-.41,1.56,1.56,0,0,0,.46-1.22v-.62H40c1,0,1.57-.42,1.57-1.28S41,48.07,40,48.07Zm-5.78,0L36.34,45v3.11Zm62.21,1.38a1.75,1.75,0,0,0,1.1-.36,1.64,1.64,0,0,0,.59-1,2.77,2.77,0,0,1,.67-1.21,13.84,13.84,0,0,1,1.51-1.4q1-.93,1.71-1.59a6.07,6.07,0,0,0,1.13-1.59,4.49,4.49,0,0,0,.46-2,4.41,4.41,0,0,0-.87-2.68,5.8,5.8,0,0,0-2.4-1.86A8.54,8.54,0,0,0,96.81,35a11.23,11.23,0,0,0-3.46.56,10.84,10.84,0,0,0-3.08,1.54,2.58,2.58,0,0,0-.73.81,2.2,2.2,0,0,0-.23,1,2.43,2.43,0,0,0,.53,1.58,1.58,1.58,0,0,0,1.27.64,3.63,3.63,0,0,0,1.65-.57l.72-.36A10.78,10.78,0,0,1,95,39.54a3.82,3.82,0,0,1,1.36-.26,2,2,0,0,1,1.32.39,1.26,1.26,0,0,1,.49,1,2.19,2.19,0,0,1-.35,1.2,9.92,9.92,0,0,1-1,1.29,9.87,9.87,0,0,0-1.5,1.94,4.78,4.78,0,0,0-.53,2.35,2.15,2.15,0,0,0,.43,1.44A1.5,1.5,0,0,0,96.39,49.45Zm.06,7.17a2.91,2.91,0,1,0,0-5.82,2.75,2.75,0,0,0-2,.84,3,3,0,0,0,0,4.14A2.75,2.75,0,0,0,96.45,56.62Zm-36.71,23,.55,0a1.65,1.65,0,0,0,1-.39,1.25,1.25,0,0,0,.38-1,1.21,1.21,0,0,0-.4-1,2,2,0,0,0-1.3-.34,2.72,2.72,0,0,0-.45,0L59,77a4.86,4.86,0,0,0-3.16,1.29,4.36,4.36,0,0,0-1.21,3.16H54c-1.12,0-1.68.45-1.68,1.37s.56,1.38,1.68,1.38h.61v5.94a1.6,1.6,0,0,0,.54,1.31,2.23,2.23,0,0,0,2.66,0,1.6,1.6,0,0,0,.54-1.31V84.19h1.15q1.68,0,1.68-1.38c0-.92-.56-1.37-1.68-1.37H58.38v-.25a1.77,1.77,0,0,1,.3-1.08A1.4,1.4,0,0,1,59.74,79.63ZM63.88,91.9a2.08,2.08,0,0,0,1.33-.43,1.56,1.56,0,0,0,.54-1.29V78.6a1.59,1.59,0,0,0-.54-1.3,2.23,2.23,0,0,0-2.66,0A1.59,1.59,0,0,0,62,78.6V90.18a1.56,1.56,0,0,0,.54,1.29A2.08,2.08,0,0,0,63.88,91.9Z"/></svg>