<svg id="Layer_1" data-name="Layer 1" xmlns="http://www.w3.org/2000/svg" viewBox="0 0 122.3 122.3"><title>l9_6_1</title><path d="M122.18,36.45V53.11a8.65,8.65,0,0,1-8.65,8.65H99.44l0,22.49a4.51,4.51,0,0,1-1.23,3.35,4.57,4.57,0,0,1-3.43,1.31H76.65v3.74a8.7,8.7,0,0,1-8.69,8.7H51.38a8.7,8.7,0,0,1-8.69-8.7V88.91H24.35a4.42,4.42,0,0,1-2.93-1.24,4.92,4.92,0,0,1-1.3-3c-.33-2.64-.36-11.21,0-22.92H8.65A8.65,8.65,0,0,1,0,53.11V36.45A8.65,8.65,0,0,1,8.65,27.8H42.3A8.65,8.65,0,0,1,51,36.45V53.11a8.65,8.65,0,0,1-8.65,8.65H28.6q0,9.21,0,18.42h14V76.07a8.69,8.69,0,0,1,8.69-8.69H68a8.69,8.69,0,0,1,8.69,8.69v4.11H90.84q0-9.21,0-18.42h-11a8.65,8.65,0,0,1-8.65-8.65V36.45a8.65,8.65,0,0,1,8.65-8.65h33.65A8.65,8.65,0,0,1,122.18,36.45ZM17.77,48.76H14.15l2.56-2.61a8.54,8.54,0,0,0,1.5-2,4.62,4.62,0,0,0,.44-2,3.27,3.27,0,0,0-.55-1.88A3.4,3.4,0,0,0,16.54,39a5.85,5.85,0,0,0-2.34-.44,7.19,7.19,0,0,0-2.07.32,7.09,7.09,0,0,0-1.9.9,1.13,1.13,0,0,0-.44.47,1.51,1.51,0,0,0-.12.65,1.57,1.57,0,0,0,.3,1,.94.94,0,0,0,.76.41,1,1,0,0,0,.34-.06,1.67,1.67,0,0,0,.37-.17l.28-.15.36-.18a8,8,0,0,1,1-.44,2.93,2.93,0,0,1,1-.16,1.4,1.4,0,0,1,1,.33,1.21,1.21,0,0,1,.35.93,3.52,3.52,0,0,1-1.19,2.29l-3.81,4A2,2,0,0,0,9.79,50a1.33,1.33,0,0,0,.38,1,1.37,1.37,0,0,0,1,.39h6.57A1.85,1.85,0,0,0,19,51.07a1.25,1.25,0,0,0,.38-1,1.17,1.17,0,0,0-.38-1A1.85,1.85,0,0,0,17.77,48.76Zm9-2.55,1.94-1.93a1,1,0,0,0,.33-.77.94.94,0,0,0-.33-.74,1,1,0,0,0-.75-.33,1,1,0,0,0-.76.33l-1.94,1.94-1.95-1.94a1,1,0,0,0-.75-.34.93.93,0,0,0-.74.32,1,1,0,0,0-.32.77,1.13,1.13,0,0,0,.3.76l1.95,1.93-1.95,1.94a1.07,1.07,0,0,0-.32.76,1,1,0,0,0,.32.75,1.09,1.09,0,0,0,.76.31,1,1,0,0,0,.75-.31l1.95-1.94,1.94,1.94a1,1,0,0,0,.76.33,1,1,0,0,0,.75-.33,1,1,0,0,0,.31-.75,1,1,0,0,0-.31-.76Zm13.1,2.55H38.38V40.23a1.5,1.5,0,0,0-1.6-1.6,3.06,3.06,0,0,0-1.5.45L32.4,40.75a1.23,1.23,0,0,0-.63,1.12,1.5,1.5,0,0,0,.36,1,1.1,1.1,0,0,0,.87.44,1.26,1.26,0,0,0,.63-.18l1.44-.85v6.5H33.61a1.78,1.78,0,0,0-1.19.33,1.21,1.21,0,0,0-.38,1c0,.89.52,1.33,1.57,1.33h6.24c1,0,1.57-.44,1.57-1.33a1.21,1.21,0,0,0-.38-1A1.78,1.78,0,0,0,39.85,48.76Zm62.2,2H96l4.26-4.35a14,14,0,0,0,2.5-3.37,7.59,7.59,0,0,0,.74-3.35,5.49,5.49,0,0,0-.92-3.13,5.84,5.84,0,0,0-2.59-2.1,9.66,9.66,0,0,0-3.9-.74,12.18,12.18,0,0,0-6.63,2,2,2,0,0,0-.74.78,2.93,2.93,0,0,0,.32,2.69,1.52,1.52,0,0,0,1.26.67,1.79,1.79,0,0,0,.57-.09,3.5,3.5,0,0,0,.61-.28l.47-.26.6-.3a14.36,14.36,0,0,1,1.69-.73,4.9,4.9,0,0,1,1.61-.26,2.35,2.35,0,0,1,1.66.54A2,2,0,0,1,98.12,40a5.84,5.84,0,0,1-2,3.81l-6.36,6.63a3.29,3.29,0,0,0-1,2.34A2.18,2.18,0,0,0,91.1,55.1h11a3,3,0,0,0,2-.54,2.07,2.07,0,0,0,.65-1.68,2,2,0,0,0-.65-1.63A3.06,3.06,0,0,0,102.05,50.72ZM59.68,79.29l.55,0a1.68,1.68,0,0,0,1-.39,1.27,1.27,0,0,0,.37-1,1.16,1.16,0,0,0-.4-1,2,2,0,0,0-1.3-.34l-.44,0-.54,0a4.82,4.82,0,0,0-3.16,1.3,4.34,4.34,0,0,0-1.21,3.16H54c-1.12,0-1.68.45-1.68,1.36s.56,1.39,1.68,1.39h.61v5.94a1.6,1.6,0,0,0,.53,1.3,2.25,2.25,0,0,0,2.67,0,1.58,1.58,0,0,0,.54-1.3V83.85h1.15c1.12,0,1.68-.47,1.68-1.39s-.56-1.36-1.68-1.36H58.32v-.26a1.81,1.81,0,0,1,.3-1.08A1.4,1.4,0,0,1,59.68,79.29Zm4.14,12.26a2,2,0,0,0,1.33-.43,1.53,1.53,0,0,0,.54-1.29V78.26a1.58,1.58,0,0,0-.54-1.3,2,2,0,0,0-1.33-.44,2,2,0,0,0-1.34.44,1.6,1.6,0,0,0-.53,1.3V89.83a1.56,1.56,0,0,0,.53,1.29A2.07,2.07,0,0,0,63.82,91.55Z"/></svg>