<svg id="Layer_1" data-name="Layer 1" xmlns="http://www.w3.org/2000/svg" viewBox="0 0 122.3 122.3"><title>l9_6_1</title><path d="M122.18,37.56V54.23a8.66,8.66,0,0,1-8.65,8.65H99.44l0,22.48A4.37,4.37,0,0,1,94.81,90H76.65v3.75A8.69,8.69,0,0,1,68,102.46H51.38a8.69,8.69,0,0,1-8.69-8.69V90H24.35a4.45,4.45,0,0,1-2.93-1.23,4.94,4.94,0,0,1-1.3-3c-.33-2.63-.36-11.2,0-22.91H8.65A8.65,8.65,0,0,1,0,54.23V37.56a8.65,8.65,0,0,1,8.65-8.65H42.3A8.65,8.65,0,0,1,51,37.56V54.23a8.65,8.65,0,0,1-8.65,8.65H28.6q0,9.21,0,18.42h14V77.18a8.69,8.69,0,0,1,8.69-8.69H68a8.69,8.69,0,0,1,8.69,8.69V81.3H90.84q0-9.21,0-18.42h-11a8.65,8.65,0,0,1-8.65-8.65V37.56a8.65,8.65,0,0,1,8.65-8.65h33.65A8.65,8.65,0,0,1,122.18,37.56ZM18.07,39.81H11a1.78,1.78,0,0,0-1.19.34,1.48,1.48,0,0,0,0,2,1.85,1.85,0,0,0,1.2.32h4.5l-4.63,7.9a1.8,1.8,0,0,0-.25.87,1.29,1.29,0,0,0,.49,1,1.6,1.6,0,0,0,1.11.43,1.54,1.54,0,0,0,.77-.21,1.74,1.74,0,0,0,.62-.64l5.45-9.45a2.28,2.28,0,0,0,.35-1.19,1.39,1.39,0,0,0-.36-1A1.25,1.25,0,0,0,18.07,39.81Zm8.67,7.51,1.94-1.93a1,1,0,0,0,.33-.77,1,1,0,0,0-.33-.74,1,1,0,0,0-.75-.32,1.07,1.07,0,0,0-.76.32l-1.94,1.95-1.95-1.95a1.06,1.06,0,0,0-.75-.34,1,1,0,0,0-.74.32,1.1,1.1,0,0,0-.32.78,1.08,1.08,0,0,0,.3.75l1.95,1.93-1.95,1.94a1.06,1.06,0,0,0,0,1.52,1.13,1.13,0,0,0,.76.3,1,1,0,0,0,.75-.3l1.95-2,1.94,2a1.07,1.07,0,0,0,.76.32A1.08,1.08,0,0,0,29,50a1,1,0,0,0-.31-.76Zm13.1,2.56H38.37V41.34a1.58,1.58,0,0,0-.44-1.17,1.63,1.63,0,0,0-1.16-.43,3.06,3.06,0,0,0-1.5.45l-2.88,1.68A1.21,1.21,0,0,0,31.76,43a1.5,1.5,0,0,0,.36,1,1.07,1.07,0,0,0,.87.44,1.25,1.25,0,0,0,.63-.17l1.44-.85v6.5H33.6a1.78,1.78,0,0,0-1.19.32,1.22,1.22,0,0,0-.38,1c0,.89.52,1.33,1.57,1.33h6.24c1,0,1.57-.44,1.57-1.33a1.22,1.22,0,0,0-.38-1A1.78,1.78,0,0,0,39.84,49.88Zm62.7-14.82H90.78a2.94,2.94,0,0,0-2,.56,2.09,2.09,0,0,0-.63,1.66,2,2,0,0,0,.62,1.62,3,3,0,0,0,2,.54h7.5L90.57,52.61a2.84,2.84,0,0,0-.42,1.44A2.21,2.21,0,0,0,91,55.78a2.75,2.75,0,0,0,1.86.7,2.58,2.58,0,0,0,1.28-.34,2.8,2.8,0,0,0,1-1.07l9.09-15.75a3.83,3.83,0,0,0,.57-2,2.32,2.32,0,0,0-.58-1.63A2.15,2.15,0,0,0,102.54,35.06ZM59.68,80.4l.55,0a1.68,1.68,0,0,0,1-.39,1.24,1.24,0,0,0,.37-1,1.18,1.18,0,0,0-.4-1,2,2,0,0,0-1.3-.34,2.59,2.59,0,0,0-.44,0l-.55,0a4.88,4.88,0,0,0-3.16,1.29,4.35,4.35,0,0,0-1.2,3.16H54c-1.12,0-1.68.46-1.68,1.37S52.85,85,54,85h.61V90.9a1.62,1.62,0,0,0,.53,1.31,2.25,2.25,0,0,0,2.67,0,1.6,1.6,0,0,0,.54-1.31V85h1.15q1.68,0,1.68-1.38c0-.91-.56-1.37-1.68-1.37H58.32V82a1.77,1.77,0,0,1,.3-1.08A1.4,1.4,0,0,1,59.68,80.4Zm4.14,12.27a2.1,2.1,0,0,0,1.33-.43A1.56,1.56,0,0,0,65.69,91V79.37a1.59,1.59,0,0,0-.54-1.3,2.25,2.25,0,0,0-2.67,0,1.62,1.62,0,0,0-.53,1.3V91a1.58,1.58,0,0,0,.53,1.29A2.11,2.11,0,0,0,63.82,92.67Z"/></svg>