<svg id="Layer_1" data-name="Layer 1" xmlns="http://www.w3.org/2000/svg" viewBox="0 0 122.3 122.3"><title>l9_6_1</title><path d="M122.35,35.53V52.19a8.65,8.65,0,0,1-8.65,8.65H99.61l0,22.48A4.36,4.36,0,0,1,95,88H76.82v3.75a8.69,8.69,0,0,1-8.69,8.69H51.55a8.69,8.69,0,0,1-8.69-8.69V88H24.52a4.37,4.37,0,0,1-2.92-1.23,4.88,4.88,0,0,1-1.31-3c-.33-2.63-.36-11.2,0-22.91H8.82A8.65,8.65,0,0,1,.17,52.19V35.53a8.66,8.66,0,0,1,8.65-8.66H42.47a8.66,8.66,0,0,1,8.65,8.66V52.19a8.65,8.65,0,0,1-8.65,8.65H28.77q0,9.21.05,18.42h14V75.15a8.7,8.7,0,0,1,8.69-8.7H68.13a8.7,8.7,0,0,1,8.69,8.7v4.11H91l0-18.42h-11a8.65,8.65,0,0,1-8.65-8.65V35.53a8.66,8.66,0,0,1,8.65-8.66H113.7A8.66,8.66,0,0,1,122.35,35.53ZM17.93,47.84H14.31l2.56-2.61a8.11,8.11,0,0,0,1.5-2,4.41,4.41,0,0,0,.44-2,3.25,3.25,0,0,0-.55-1.88,3.42,3.42,0,0,0-1.55-1.26,5.71,5.71,0,0,0-2.34-.44,6.88,6.88,0,0,0-2.08.32,7.24,7.24,0,0,0-1.9.9,1.14,1.14,0,0,0-.44.47,1.71,1.71,0,0,0,.19,1.61.9.9,0,0,0,.75.4.93.93,0,0,0,.34,0,2,2,0,0,0,.37-.17l.28-.15.36-.18a9.8,9.8,0,0,1,1-.45,2.93,2.93,0,0,1,1-.15,1.39,1.39,0,0,1,1,.33,1.16,1.16,0,0,1,.35.93,3.47,3.47,0,0,1-1.19,2.29l-3.81,4A2,2,0,0,0,10,49.1a1.31,1.31,0,0,0,.38,1,1.35,1.35,0,0,0,1,.39h6.57a1.79,1.79,0,0,0,1.18-.33,1.22,1.22,0,0,0,.39-1,1.2,1.2,0,0,0-.39-1A1.85,1.85,0,0,0,17.93,47.84Zm9-2.56,1.95-1.92a1.1,1.1,0,0,0,.32-.78.94.94,0,0,0-.32-.73,1,1,0,0,0-.76-.33,1,1,0,0,0-.76.33L25.4,43.79l-1.94-1.94a1.06,1.06,0,0,0-.76-.35.94.94,0,0,0-.74.33,1.06,1.06,0,0,0-.32.77,1.13,1.13,0,0,0,.3.76l1.95,1.92-1.95,1.95a1,1,0,0,0-.32.75,1.07,1.07,0,0,0,.32.76,1.14,1.14,0,0,0,.76.31,1.07,1.07,0,0,0,.76-.31L25.4,46.8l1.94,1.94a1.06,1.06,0,0,0,1.52,0,1,1,0,0,0,.3-.76,1,1,0,0,0-.3-.75Zm12.64,2.56H35.93l2.56-2.61a8.37,8.37,0,0,0,1.5-2,4.55,4.55,0,0,0,.44-2,3.25,3.25,0,0,0-.55-1.88,3.45,3.45,0,0,0-1.56-1.26A5.68,5.68,0,0,0,36,37.62a6.86,6.86,0,0,0-2.07.32,7.09,7.09,0,0,0-1.9.9,1.08,1.08,0,0,0-.44.47,1.71,1.71,0,0,0,.19,1.61.9.9,0,0,0,.75.4,1,1,0,0,0,.34,0,2.31,2.31,0,0,0,.37-.17L33.5,41l.36-.18a8.24,8.24,0,0,1,1-.45,2.93,2.93,0,0,1,1-.15,1.4,1.4,0,0,1,1,.33,1.2,1.2,0,0,1,.35.93A3.52,3.52,0,0,1,36,43.72l-3.81,4a2,2,0,0,0-.62,1.4,1.35,1.35,0,0,0,.38,1,1.37,1.37,0,0,0,1,.39h6.57a1.79,1.79,0,0,0,1.18-.33,1.21,1.21,0,0,0,.38-1,1.19,1.19,0,0,0-.38-1A1.85,1.85,0,0,0,39.55,47.84Zm63.55-1.43h-.66V35.58a2.55,2.55,0,0,0-.81-2,2.83,2.83,0,0,0-1.95-.72,3,3,0,0,0-1.33.31,2.79,2.79,0,0,0-1.07.92L88.7,46.32a3.36,3.36,0,0,0-.66,2A2.3,2.3,0,0,0,88.67,50a2.25,2.25,0,0,0,1.71.66h6.69v1a2.67,2.67,0,0,0,.74,2,2.7,2.7,0,0,0,1.93.69,2.77,2.77,0,0,0,2-.69,2.64,2.64,0,0,0,.75-2v-1h.66q2.61,0,2.61-2.13T103.1,46.41Zm-9.63,0,3.6-5.19v5.19Zm-33.62,31,.55-.05a1.61,1.61,0,0,0,1-.38,1.27,1.27,0,0,0,.37-1,1.22,1.22,0,0,0-.39-1,2.06,2.06,0,0,0-1.31-.33,2.76,2.76,0,0,0-.44,0l-.54,0A4.86,4.86,0,0,0,56,76a4.38,4.38,0,0,0-1.21,3.16h-.61c-1.12,0-1.68.46-1.68,1.37s.56,1.38,1.68,1.38h.61v6a1.62,1.62,0,0,0,.53,1.3,2.08,2.08,0,0,0,1.34.44A2,2,0,0,0,58,89.17a1.59,1.59,0,0,0,.54-1.3v-6h1.15q1.68,0,1.68-1.38c0-.91-.56-1.37-1.68-1.37H58.49v-.25a1.77,1.77,0,0,1,.3-1.08A1.4,1.4,0,0,1,59.85,77.37ZM64,89.63a2,2,0,0,0,1.33-.43,1.56,1.56,0,0,0,.54-1.29V76.34a1.57,1.57,0,0,0-.54-1.3,2.19,2.19,0,0,0-2.66,0,1.57,1.57,0,0,0-.54,1.3V87.91a1.56,1.56,0,0,0,.54,1.29A2,2,0,0,0,64,89.63Z"/></svg>