<svg id="Layer_1" data-name="Layer 1" xmlns="http://www.w3.org/2000/svg" viewBox="0 0 172.3 122.3"><title>s9_1</title><path d="M128.72,122.3h-84a19.13,19.13,0,0,1-19.13-19.13v-84A19.14,19.14,0,0,1,44.68,0h84a19.14,19.14,0,0,1,19.13,19.14v84A19.13,19.13,0,0,1,128.72,122.3Zm-6-74.15H97.51V23a11.8,11.8,0,1,0-23.6,0v25.2H48.71A11.61,11.61,0,0,0,36.91,60a11.73,11.73,0,0,0,3.4,8.5,11.24,11.24,0,0,0,8.4,3.5h25.2V97a12,12,0,0,0,20.3,8.4,11.6,11.6,0,0,0,3.3-8.4V72h25.2a11.27,11.27,0,0,0,8.4-3.5,11.77,11.77,0,0,0,3.4-8.5,11.61,11.61,0,0,0-11.8-11.8Z"/></svg>