<svg id="Layer_1" data-name="Layer 1" xmlns="http://www.w3.org/2000/svg" viewBox="0 0 172.3 122.3"><title>s9_1</title><path d="M127.91,122.3H38.61a16.49,16.49,0,0,1-16.5-16.5V16.5A16.5,16.5,0,0,1,38.61,0h89.3a16.5,16.5,0,0,1,16.5,16.5v89.3A16.5,16.5,0,0,1,127.91,122.3Zm-30-59,19.15-19a10.4,10.4,0,0,0,3.19-7.63A9.29,9.29,0,0,0,117,29.39a9.83,9.83,0,0,0-7.45-3.19,10.2,10.2,0,0,0-7.45,3.19L83,48.54,63.84,29.39A10.37,10.37,0,0,0,56.39,26a9.3,9.3,0,0,0-7.27,3.19,10.42,10.42,0,0,0-3.19,7.63,10.92,10.92,0,0,0,3,7.45l19.15,19L48.94,82.42a10.28,10.28,0,0,0,0,14.89,10.94,10.94,0,0,0,7.45,3,10.14,10.14,0,0,0,7.45-3L83,78.16l19.15,19.15a10.47,10.47,0,0,0,17.92-7.45,9.74,9.74,0,0,0-3-7.44Z"/></svg>