<svg id="Layer_1" data-name="Layer 1" xmlns="http://www.w3.org/2000/svg" viewBox="0 0 172.3 122.3"><title>s9_1</title><path d="M130.05,121.32H41.73a16.5,16.5,0,0,1-16.5-16.5V16.5A16.5,16.5,0,0,1,41.73,0h88.32a16.5,16.5,0,0,1,16.5,16.5v88.32A16.5,16.5,0,0,1,130.05,121.32Zm-75.91-48h65.08a9.89,9.89,0,0,0,7.39-3.08,10.29,10.29,0,0,0,3-7.47,10.21,10.21,0,0,0-10.38-10.38H54.14a9.88,9.88,0,0,0-7.39,3.07,10.33,10.33,0,0,0-3,7.48A10.21,10.21,0,0,0,54.14,73.31ZM85.8,40.24a10.79,10.79,0,0,0,8-3.34,11.22,11.22,0,0,0,3.25-8.1,11,11,0,0,0-3.25-7.91,10.75,10.75,0,0,0-8-3.34,10.56,10.56,0,0,0-7.91,3.25,11,11,0,0,0-3.17,8,11.32,11.32,0,0,0,3.17,8.1A10.46,10.46,0,0,0,85.8,40.24Zm0,67.9a10.75,10.75,0,0,0,8-3.34,11,11,0,0,0,3.25-7.92,11.22,11.22,0,0,0-3.25-8.09,10.75,10.75,0,0,0-8-3.34,10.42,10.42,0,0,0-7.91,3.34,11.31,11.31,0,0,0-3.17,8.09,11,11,0,0,0,3.17,8A10.56,10.56,0,0,0,85.8,108.14Z"/></svg>