<svg id="Layer_1" data-name="Layer 1" xmlns="http://www.w3.org/2000/svg" viewBox="0 0 172.3 122.3"><title>s9_1</title><path d="M128.17,122.24h-84A19.14,19.14,0,0,1,25,103.11v-84A19.14,19.14,0,0,1,44.13-.06h84A19.14,19.14,0,0,1,147.3,19.08v84A19.14,19.14,0,0,1,128.17,122.24ZM80.74,73.84,69.45,63l9.92-9.82A7.22,7.22,0,0,0,81.74,48a7.63,7.63,0,0,0-7.37-7.28,7.11,7.11,0,0,0-5.28,2.36L52.25,60.19V29.34a6.89,6.89,0,0,0-2.32-5.64,8.79,8.79,0,0,0-5.78-1.91,8.78,8.78,0,0,0-5.77,1.91,6.9,6.9,0,0,0-2.33,5.64v50a6.87,6.87,0,0,0,2.33,5.64,8.74,8.74,0,0,0,5.77,1.92,8.74,8.74,0,0,0,5.78-1.92,6.86,6.86,0,0,0,2.32-5.64V67L70.73,84.58a7.67,7.67,0,0,0,5.09,2.28A6.68,6.68,0,0,0,81,84.49a7.78,7.78,0,0,0,2.14-5.37A7.14,7.14,0,0,0,80.74,73.84Zm47.5-33.12a8.5,8.5,0,0,0-5.6,1.77,6.52,6.52,0,0,0-2.32,4.87,13.63,13.63,0,0,0-5.73-5,18.35,18.35,0,0,0-8.19-1.82A19.54,19.54,0,0,0,96,43.31a18.83,18.83,0,0,0-7.09,7.87,25.93,25.93,0,0,0-2.55,11.74,25.64,25.64,0,0,0,2.55,11.7A18.59,18.59,0,0,0,96,82.4a19.79,19.79,0,0,0,10.38,2.73,18.54,18.54,0,0,0,8.1-1.78,13.81,13.81,0,0,0,5.73-4.78V82q0,5-2.59,7.33t-8.15,2.32a20.13,20.13,0,0,1-4.46-.5q-2.18-.51-5-1.41a23.92,23.92,0,0,0-5.92-1.37A4.19,4.19,0,0,0,90.7,90a6.61,6.61,0,0,0-1.32,4.28,5.81,5.81,0,0,0,1,3.27A7.24,7.24,0,0,0,92.93,100a26.37,26.37,0,0,0,7.55,2.64,47.78,47.78,0,0,0,9.47.91q12.92,0,19.61-5.73t6.69-16.84V48.18a7.05,7.05,0,0,0-2.19-5.41A8.14,8.14,0,0,0,128.24,40.72ZM111.31,73a8.32,8.32,0,0,1-6.51-2.68,10.74,10.74,0,0,1-2.41-7.42c0-3.27.79-5.81,2.37-7.6a9.39,9.39,0,0,1,13.19,0q2.37,2.73,2.37,7.55T118,70.38A8.44,8.44,0,0,1,111.31,73Z"/></svg>