<svg id="Layer_1" data-name="Layer 1" xmlns="http://www.w3.org/2000/svg" viewBox="0 0 200 150"><title>g21</title><path d="M74.94,143H17.86A17.86,17.86,0,0,1,0,125.1V25.86A17.86,17.86,0,0,1,17.86,8H74.94A17.86,17.86,0,0,1,92.8,25.86V125.1A17.86,17.86,0,0,1,74.94,143Zm2.47-68.54V29.55a7.16,7.16,0,0,0-7.17-7.16H22.56a7.16,7.16,0,0,0-7.17,7.16V74.42a7.16,7.16,0,0,0,7.17,7.16H70.24A7.16,7.16,0,0,0,77.41,74.42Zm0,26h0A7.38,7.38,0,0,0,70,93H22.78a7.38,7.38,0,0,0-7.39,7.38h0a7.39,7.39,0,0,0,7.39,7.39H70A7.39,7.39,0,0,0,77.41,100.37Zm0,21.83h0A7.38,7.38,0,0,0,70,114.82H22.78a7.38,7.38,0,0,0-7.39,7.38h0a7.39,7.39,0,0,0,7.39,7.39H70A7.39,7.39,0,0,0,77.41,122.2Z"/><path d="M181.93,142.48H124.85A17.86,17.86,0,0,1,107,124.62V25.38A17.86,17.86,0,0,1,124.85,7.52h57.08a17.86,17.86,0,0,1,17.86,17.86v99.24A17.86,17.86,0,0,1,181.93,142.48Zm2.47-68.54V29.07a7.16,7.16,0,0,0-7.16-7.16H129.55a7.15,7.15,0,0,0-7.16,7.16V73.94a7.15,7.15,0,0,0,7.16,7.16h47.69A7.16,7.16,0,0,0,184.4,73.94Zm0,26h0A7.39,7.39,0,0,0,177,92.5H129.77a7.38,7.38,0,0,0-7.38,7.39h0a7.38,7.38,0,0,0,7.38,7.39H177A7.39,7.39,0,0,0,184.4,99.89Zm0,21.83h0a7.39,7.39,0,0,0-7.39-7.39H129.77a7.38,7.38,0,0,0-7.38,7.39h0a7.38,7.38,0,0,0,7.38,7.39H177A7.39,7.39,0,0,0,184.4,121.72Z"/></svg>