<svg id="Layer_1" data-name="Layer 1" xmlns="http://www.w3.org/2000/svg" viewBox="0 0 100 100"><title>l21_2_1</title><path d="M100,14.45V86.1a14.18,14.18,0,0,1-14.17,14.18H63.92A14.17,14.17,0,0,1,50,88.73a14.17,14.17,0,0,1-13.92,11.55H14.17A14.18,14.18,0,0,1,0,86.1V14.45A14.17,14.17,0,0,1,14.17.28H36.08A14.16,14.16,0,0,1,50,11.82,14.16,14.16,0,0,1,63.92.28H85.83A14.17,14.17,0,0,1,100,14.45ZM37.53,35.23V17a4.89,4.89,0,0,0-4.89-4.89H14.4A4.89,4.89,0,0,0,9.5,17V35.23a4.89,4.89,0,0,0,4.9,4.89H32.64A4.89,4.89,0,0,0,37.53,35.23Zm51.58,0V17a4.89,4.89,0,0,0-4.89-4.89H66A4.89,4.89,0,0,0,61.08,17V35.23A4.89,4.89,0,0,0,66,40.12H84.22A4.89,4.89,0,0,0,89.11,35.23ZM37.42,76h-9l6.39-6.52a21.06,21.06,0,0,0,3.75-5.07,11.23,11.23,0,0,0,1.11-5,8.25,8.25,0,0,0-1.38-4.71,8.81,8.81,0,0,0-3.89-3.15,14.57,14.57,0,0,0-5.85-1.1,18.27,18.27,0,0,0-9.94,3.06,3,3,0,0,0-1.11,1.17,4,4,0,0,0-.29,1.62,3.9,3.9,0,0,0,.77,2.41,2.29,2.29,0,0,0,1.89,1,2.7,2.7,0,0,0,.85-.13,5.62,5.62,0,0,0,.92-.43l.7-.38.9-.45a23.26,23.26,0,0,1,2.54-1.11,7.47,7.47,0,0,1,2.41-.38,3.56,3.56,0,0,1,2.5.81A3,3,0,0,1,31.53,60q0,2.61-3,5.72L19,75.65a4.89,4.89,0,0,0-1.53,3.51,3.35,3.35,0,0,0,.94,2.45,3.41,3.41,0,0,0,2.57,1H37.42a4.54,4.54,0,0,0,2.95-.81,3.12,3.12,0,0,0,1-2.52,3,3,0,0,0-1-2.45A4.6,4.6,0,0,0,37.42,76Zm10.85,8L58.48,51.94a5,5,0,0,0,.18-1,2.62,2.62,0,0,0-1-2.12A3.34,3.34,0,0,0,55.47,48a2.95,2.95,0,0,0-2.88,2.16L42.37,82.27a3,3,0,0,0-.18,1,2.61,2.61,0,0,0,1,2.07,3.27,3.27,0,0,0,2.2.81A3,3,0,0,0,48.27,84Zm33.07-8H77.65V54.68a3.91,3.91,0,0,0-1.1-2.92,4,4,0,0,0-2.9-1.08,7.61,7.61,0,0,0-3.74,1.12L62.71,56a3.05,3.05,0,0,0-1.57,2.79,3.79,3.79,0,0,0,.9,2.45,2.72,2.72,0,0,0,2.16,1.1,3.05,3.05,0,0,0,1.57-.45l3.6-2.11V76H65.73a4.5,4.5,0,0,0-3,.81,3,3,0,0,0-.95,2.43q0,3.33,3.92,3.33H81.34q3.91,0,3.92-3.33a3,3,0,0,0-1-2.43A4.5,4.5,0,0,0,81.34,76Z"/></svg>