<svg id="Layer_1" data-name="Layer 1" xmlns="http://www.w3.org/2000/svg" viewBox="0 0 100 100"><title>l21_5_1</title><path d="M100.46,13.9V85.56A14.18,14.18,0,0,1,86.28,99.73H64.38A14.17,14.17,0,0,1,50.46,88.18,14.17,14.17,0,0,1,36.54,99.73H14.63A14.17,14.17,0,0,1,.46,85.56V13.9A14.17,14.17,0,0,1,14.63-.27H36.54A14.17,14.17,0,0,1,50.46,11.28,14.17,14.17,0,0,1,64.38-.27h21.9A14.18,14.18,0,0,1,100.46,13.9Zm-62,20.78V16.44a4.89,4.89,0,0,0-4.89-4.89H15.31a4.9,4.9,0,0,0-4.9,4.89V34.68a4.9,4.9,0,0,0,4.9,4.9H33.55A4.89,4.89,0,0,0,38.44,34.68Zm51.58,0V16.44a4.89,4.89,0,0,0-4.89-4.89H66.89A4.89,4.89,0,0,0,62,16.44V34.68a4.89,4.89,0,0,0,4.89,4.9H85.13A4.89,4.89,0,0,0,90,34.68ZM22.29,50.31a11.62,11.62,0,0,0-5.72,1.39,10.09,10.09,0,0,0-3.94,3.89,12.09,12.09,0,0,0-.18,11,9.26,9.26,0,0,0,3.4,3.69,9.05,9.05,0,0,0,4.86,1.33,8.71,8.71,0,0,0,3.8-.83,7.09,7.09,0,0,0,2.77-2.28,12,12,0,0,1-1.69,5.88,4.31,4.31,0,0,1-3.71,2.09,6,6,0,0,1-2.07-.36c-.66-.24-1.48-.6-2.47-1.08l-1-.5c-.57-.29-1-.51-1.35-.65a3.08,3.08,0,0,0-1.13-.2,2.36,2.36,0,0,0-1.91,1A3.58,3.58,0,0,0,11.17,77a3.2,3.2,0,0,0,.34,1.57,3.74,3.74,0,0,0,1.1,1.22A14.39,14.39,0,0,0,17.13,82a17.54,17.54,0,0,0,5.16.81,12.15,12.15,0,0,0,7-2A13.08,13.08,0,0,0,33.92,75a21.87,21.87,0,0,0,1.64-8.8q0-7.64-3.46-11.79T22.29,50.31Zm.49,14.89A3.53,3.53,0,0,1,20,64.05a5.27,5.27,0,0,1,0-6.23,3.54,3.54,0,0,1,2.79-1.17,3.61,3.61,0,0,1,2.79,1.19,5,5,0,0,1,0,6.19A3.59,3.59,0,0,1,22.78,65.2Zm19.58,7H59a2.55,2.55,0,0,0,1.89-.79,2.66,2.66,0,0,0,.76-1.92A2.6,2.6,0,0,0,59,66.82H42.36a2.51,2.51,0,0,0-1.89.79,2.63,2.63,0,0,0-.77,1.91,2.63,2.63,0,0,0,2.66,2.66Zm8.1-8.47a2.72,2.72,0,0,0,2-.85,2.92,2.92,0,0,0,0-4.1,2.89,2.89,0,0,0-4.07,0,2.84,2.84,0,0,0-.81,2,2.9,2.9,0,0,0,.81,2.07A2.68,2.68,0,0,0,50.46,63.71Zm0,17.37a2.72,2.72,0,0,0,2-.85,2.91,2.91,0,0,0,0-4.09,2.73,2.73,0,0,0-2-.86,2.69,2.69,0,0,0-2,.86,2.86,2.86,0,0,0-.81,2.06,2.82,2.82,0,0,0,.81,2A2.7,2.7,0,0,0,50.46,81.08Zm32.66-15a7.26,7.26,0,0,0,3.58-2.72A7.48,7.48,0,0,0,88,59a7.88,7.88,0,0,0-1.38-4.6,8.77,8.77,0,0,0-3.91-3,14.79,14.79,0,0,0-5.88-1.08,18.1,18.1,0,0,0-5.33.81,15,15,0,0,0-4.57,2.25,3.62,3.62,0,0,0-1.08,1.21,3.5,3.5,0,0,0-.31,1.58,3.69,3.69,0,0,0,.76,2.36,2.34,2.34,0,0,0,1.9,1,2.87,2.87,0,0,0,1.12-.2,14.94,14.94,0,0,0,1.35-.65l1-.45a22.87,22.87,0,0,1,2.45-1.08,6.77,6.77,0,0,1,2.36-.41,3.84,3.84,0,0,1,2.74.93,3.36,3.36,0,0,1,1,2.58A2.52,2.52,0,0,1,79,62.5a6.89,6.89,0,0,1-3.6.72h-2a2.61,2.61,0,0,0-2.12.94,3.48,3.48,0,0,0-.76,2.25,3.42,3.42,0,0,0,.76,2.25,2.59,2.59,0,0,0,2.12,1h2.79a6.87,6.87,0,0,1,3.69.76,2.83,2.83,0,0,1,1.12,2.52A3.12,3.12,0,0,1,80,75.6a6.22,6.22,0,0,1-3.62.81A8.05,8.05,0,0,1,73.74,76a19.06,19.06,0,0,1-2.58-1.1l-.57-.25-.43-.2c-.57-.3-1-.52-1.34-.65a2.92,2.92,0,0,0-1.13-.2,2.33,2.33,0,0,0-1.89,1A3.72,3.72,0,0,0,65,76.94a3.56,3.56,0,0,0,.32,1.56,3.49,3.49,0,0,0,1.08,1.23A14.58,14.58,0,0,0,71.11,82a20.15,20.15,0,0,0,5.63.78,16.77,16.77,0,0,0,6.36-1.1,9.41,9.41,0,0,0,4.21-3.13,7.82,7.82,0,0,0,1.48-4.77,8,8,0,0,0-1.5-4.9A7.69,7.69,0,0,0,83.12,66.1Z"/></svg>