<svg id="Layer_1" data-name="Layer 1" xmlns="http://www.w3.org/2000/svg" viewBox="0 0 100 100"><title>l21_1_1</title><path d="M100,14.17V85.83A14.18,14.18,0,0,1,85.83,100H63.92A14.17,14.17,0,0,1,50,88.45,14.17,14.17,0,0,1,36.08,100H14.17A14.18,14.18,0,0,1,0,85.83V14.17A14.18,14.18,0,0,1,14.17,0H36.08A14.17,14.17,0,0,1,50,11.55,14.17,14.17,0,0,1,63.92,0H85.83A14.18,14.18,0,0,1,100,14.17ZM26.13,62.82a8.65,8.65,0,0,0-3.81.84,7.1,7.1,0,0,0-2.76,2.27,12,12,0,0,1,1.68-5.87A4.32,4.32,0,0,1,25,58a6,6,0,0,1,2.07.36c.66.24,1.48.6,2.47,1.08l1,.5a14.94,14.94,0,0,0,1.35.65,2.88,2.88,0,0,0,1.13.2,2.4,2.4,0,0,0,1.91-1,3.68,3.68,0,0,0,.79-2.37,3.35,3.35,0,0,0-.34-1.57,4,4,0,0,0-1.1-1.22,14.34,14.34,0,0,0-4.53-2.25,17.43,17.43,0,0,0-5.15-.81,12.21,12.21,0,0,0-7,2,13.11,13.11,0,0,0-4.63,5.78,21.76,21.76,0,0,0-1.64,8.8q0,7.65,3.46,11.79t9.81,4.14a11.62,11.62,0,0,0,5.72-1.4,9.94,9.94,0,0,0,3.93-3.89,12,12,0,0,0,.18-11A9.3,9.3,0,0,0,31,64.15,9.14,9.14,0,0,0,26.13,62.82ZM24.06,77.76a3.57,3.57,0,0,1-2.79-1.19,4.4,4.4,0,0,1-1.08-3.08,4.49,4.49,0,0,1,1-3.11,3.63,3.63,0,0,1,2.82-1.17,3.57,3.57,0,0,1,2.81,1.15,4.6,4.6,0,0,1,1,3.13,4.5,4.5,0,0,1-1,3.1A3.54,3.54,0,0,1,24.06,77.76Zm18.31-4.32H59a2.54,2.54,0,0,0,1.89-.78,2.67,2.67,0,0,0,.77-1.92A2.61,2.61,0,0,0,59,68.09H42.37a2.51,2.51,0,0,0-1.89.79,2.62,2.62,0,0,0-.76,1.91,2.6,2.6,0,0,0,2.65,2.65ZM50.47,65a2.75,2.75,0,0,0,2.05-.85,2.88,2.88,0,0,0,.83-2.07,2.83,2.83,0,0,0-.83-2,2.75,2.75,0,0,0-2.05-.85,2.71,2.71,0,0,0-2,.83,2.84,2.84,0,0,0-.81,2.05,2.9,2.9,0,0,0,.81,2.07A2.66,2.66,0,0,0,50.47,65Zm0,17.37a2.75,2.75,0,0,0,2.05-.85,2.83,2.83,0,0,0,.83-2,2.88,2.88,0,0,0-.83-2.07,2.75,2.75,0,0,0-2.05-.85,2.66,2.66,0,0,0-2,.85,2.9,2.9,0,0,0-.81,2.07,2.82,2.82,0,0,0,.81,2A2.68,2.68,0,0,0,50.47,82.35Zm32.67-15a7.35,7.35,0,0,0,3.58-2.72A7.55,7.55,0,0,0,88,60.3a7.89,7.89,0,0,0-1.37-4.59,8.82,8.82,0,0,0-3.92-3.06,14.88,14.88,0,0,0-5.87-1.08,18,18,0,0,0-5.33.81,14.89,14.89,0,0,0-4.57,2.25,3.64,3.64,0,0,0-1.08,1.22,3.49,3.49,0,0,0-.31,1.57,3.72,3.72,0,0,0,.76,2.37,2.33,2.33,0,0,0,1.89,1,2.92,2.92,0,0,0,1.13-.2,14.94,14.94,0,0,0,1.35-.65l.94-.45a24.77,24.77,0,0,1,2.45-1.08A6.86,6.86,0,0,1,76.44,58a3.84,3.84,0,0,1,2.74.93,3.34,3.34,0,0,1,1,2.58,2.55,2.55,0,0,1-1.12,2.3,6.89,6.89,0,0,1-3.6.72h-2a2.58,2.58,0,0,0-2.12.94,3.71,3.71,0,0,0,0,4.5,2.59,2.59,0,0,0,2.12.95h2.79a6.77,6.77,0,0,1,3.69.76,2.82,2.82,0,0,1,1.12,2.52,3.14,3.14,0,0,1-1.1,2.7,6.25,6.25,0,0,1-3.62.81,8,8,0,0,1-2.59-.38,19.14,19.14,0,0,1-2.59-1.1l-.56-.25-.43-.2a14.94,14.94,0,0,0-1.35-.65,2.83,2.83,0,0,0-1.12-.21,2.33,2.33,0,0,0-1.89,1,3.7,3.7,0,0,0-.77,2.36A3.15,3.15,0,0,0,66.45,81a14.58,14.58,0,0,0,4.68,2.28,20.13,20.13,0,0,0,5.62.78A16.83,16.83,0,0,0,83.12,83a9.47,9.47,0,0,0,4.21-3.13,7.84,7.84,0,0,0,1.48-4.77,7.94,7.94,0,0,0-1.51-4.9A7.63,7.63,0,0,0,83.14,67.37ZM37.44,35V16.77a4.9,4.9,0,0,0-4.9-4.9H14.3a4.89,4.89,0,0,0-4.89,4.9V35A4.89,4.89,0,0,0,14.3,39.9H32.54A4.89,4.89,0,0,0,37.44,35ZM89,35V16.77a4.89,4.89,0,0,0-4.89-4.9H65.88A4.89,4.89,0,0,0,61,16.77V35a4.89,4.89,0,0,0,4.89,4.89H84.13A4.89,4.89,0,0,0,89,35Z"/></svg>