<svg id="Layer_1" data-name="Layer 1" xmlns="http://www.w3.org/2000/svg" viewBox="0 0 100 100"><title>l21_1_1</title><path d="M21.94,62.42a5,5,0,0,1,0,6.19,3.63,3.63,0,0,1-2.82,1.17,3.53,3.53,0,0,1-2.81-1.15,5.27,5.27,0,0,1,0-6.23,3.54,3.54,0,0,1,2.79-1.17A3.61,3.61,0,0,1,21.94,62.42ZM43.13,8V91.71A8.11,8.11,0,0,1,35,99.83H8.14A8.11,8.11,0,0,1,0,91.71V8A8.11,8.11,0,0,1,8.14-.17H35A8.11,8.11,0,0,1,43.13,8ZM31.93,70.82q0-7.65-3.46-11.79t-9.81-4.14a11.62,11.62,0,0,0-5.72,1.39A10,10,0,0,0,9,60.17a12,12,0,0,0-.18,11,9.17,9.17,0,0,0,3.39,3.69,9.05,9.05,0,0,0,4.86,1.33,8.71,8.71,0,0,0,3.8-.83,7.15,7.15,0,0,0,2.77-2.27A12,12,0,0,1,22,78.94,4.33,4.33,0,0,1,18.25,81a6,6,0,0,1-2.07-.36c-.66-.24-1.48-.6-2.47-1.08l-1-.49q-.86-.45-1.35-.66a3.08,3.08,0,0,0-1.13-.2,2.36,2.36,0,0,0-1.91,1,3.58,3.58,0,0,0-.79,2.36,3.27,3.27,0,0,0,.34,1.58A3.82,3.82,0,0,0,9,84.36a14.34,14.34,0,0,0,4.53,2.25,17.43,17.43,0,0,0,5.15.81,12.15,12.15,0,0,0,7-2,13.11,13.11,0,0,0,4.64-5.79A21.85,21.85,0,0,0,31.93,70.82Zm2.14-43.38V11.14a4.89,4.89,0,0,0-4.89-4.89H12.88A4.89,4.89,0,0,0,8,11.14v16.3a4.89,4.89,0,0,0,4.89,4.89h16.3A4.89,4.89,0,0,0,34.07,27.44Z"/><path d="M77.31,79.88a5,5,0,0,1,0-6.18,3.59,3.59,0,0,1,2.81-1.17,3.55,3.55,0,0,1,2.81,1.14,5.24,5.24,0,0,1,0,6.24,3.54,3.54,0,0,1-2.79,1.17A3.58,3.58,0,0,1,77.31,79.88ZM100,8V91.71a8.12,8.12,0,0,1-8.12,8.12H65a8.12,8.12,0,0,1-8.12-8.12V8A8.12,8.12,0,0,1,65-.17H91.91A8.12,8.12,0,0,1,100,8ZM75.6,69.24a11.88,11.88,0,0,1,1.69-5.87A4.28,4.28,0,0,1,81,61.28a6,6,0,0,1,2.07.36c.66.24,1.49.6,2.48,1.08l1,.49a14.94,14.94,0,0,0,1.35.65,2.83,2.83,0,0,0,1.12.21,2.39,2.39,0,0,0,1.91-1,3.6,3.6,0,0,0,.79-2.36,3.27,3.27,0,0,0-.34-1.58A3.82,3.82,0,0,0,90.27,58a14.39,14.39,0,0,0-4.52-2.25,17.48,17.48,0,0,0-5.15-.81,12.16,12.16,0,0,0-7,2A13.13,13.13,0,0,0,69,62.69a21.93,21.93,0,0,0-1.64,8.8q0,7.65,3.47,11.79t9.81,4.14A11.58,11.58,0,0,0,86.31,86a10.05,10.05,0,0,0,3.94-3.9,11.25,11.25,0,0,0,1.42-5.64,11.42,11.42,0,0,0-1.24-5.34A9.4,9.4,0,0,0,87,67.46a9.13,9.13,0,0,0-4.86-1.32,8.57,8.57,0,0,0-3.8.83A7.06,7.06,0,0,0,75.6,69.24Zm15.92-41.8V11.14a4.89,4.89,0,0,0-4.89-4.89H70.33a4.89,4.89,0,0,0-4.89,4.89v16.3a4.89,4.89,0,0,0,4.89,4.89h16.3A4.89,4.89,0,0,0,91.52,27.44Z"/></svg>