<svg id="Layer_1" data-name="Layer 1" xmlns="http://www.w3.org/2000/svg" viewBox="0 0 100 100"><title>l21_3_1</title><path d="M100.08,13.89V85.54A14.17,14.17,0,0,1,85.9,99.71H64A14.16,14.16,0,0,1,50.08,88.17,14.16,14.16,0,0,1,36.16,99.71H14.25A14.16,14.16,0,0,1,.08,85.54V13.89A14.17,14.17,0,0,1,14.25-.29H36.16A14.17,14.17,0,0,1,50.08,11.26,14.17,14.17,0,0,1,64-.29H85.9A14.18,14.18,0,0,1,100.08,13.89ZM37.61,34.67V16.43a4.89,4.89,0,0,0-4.89-4.9H14.47a4.89,4.89,0,0,0-4.89,4.9V34.67a4.89,4.89,0,0,0,4.89,4.89H32.72A4.89,4.89,0,0,0,37.61,34.67Zm51.58,0V16.43a4.89,4.89,0,0,0-4.89-4.9H66.06a4.9,4.9,0,0,0-4.9,4.9V34.67a4.89,4.89,0,0,0,4.9,4.89H84.3A4.89,4.89,0,0,0,89.19,34.67ZM32.32,75.11h-9l6.39-6.53a21.11,21.11,0,0,0,3.76-5.06,11.4,11.4,0,0,0,1.1-5,8.22,8.22,0,0,0-1.38-4.7,8.75,8.75,0,0,0-3.89-3.15,14.57,14.57,0,0,0-5.85-1.1,17.53,17.53,0,0,0-5.19.81,17.49,17.49,0,0,0-4.75,2.25,3,3,0,0,0-1.11,1.17,4,4,0,0,0-.29,1.62,3.9,3.9,0,0,0,.77,2.41,2.3,2.3,0,0,0,1.89,1,2.66,2.66,0,0,0,.85-.14,5.93,5.93,0,0,0,.93-.42l.69-.39.9-.45a22.27,22.27,0,0,1,2.55-1.1,7.37,7.37,0,0,1,2.4-.38,3.55,3.55,0,0,1,2.5.81,3,3,0,0,1,.88,2.34q0,2.61-3,5.71l-9.54,10a4.93,4.93,0,0,0-1.53,3.51,3.36,3.36,0,0,0,.94,2.45,3.45,3.45,0,0,0,2.57,1H32.32a4.54,4.54,0,0,0,3-.81,3.12,3.12,0,0,0,1-2.52,3,3,0,0,0-1-2.46A4.66,4.66,0,0,0,32.32,75.11Zm28.13-1.26L47.08,68.72l13.37-5.13A2.31,2.31,0,0,0,62,61.38a2.77,2.77,0,0,0-.79-2,2.7,2.7,0,0,0-2-.79,4.26,4.26,0,0,0-1.4.27l-15,5.8a4.51,4.51,0,0,0-2.05,1.64,4.56,4.56,0,0,0,0,5,4.26,4.26,0,0,0,2.05,1.57l15,5.81a4.26,4.26,0,0,0,1.4.27,2.7,2.7,0,0,0,2-.79,2.79,2.79,0,0,0,.79-2,2.23,2.23,0,0,0-.41-1.33A2.67,2.67,0,0,0,60.45,73.85Zm23.26-8.51a7.31,7.31,0,0,0,3.58-2.72,7.43,7.43,0,0,0,1.28-4.34,7.89,7.89,0,0,0-1.37-4.59,8.82,8.82,0,0,0-3.92-3.06,14.88,14.88,0,0,0-5.87-1.08,18,18,0,0,0-5.33.81,14.89,14.89,0,0,0-4.57,2.25,3.62,3.62,0,0,0-1.08,1.21,3.53,3.53,0,0,0-.31,1.58,3.69,3.69,0,0,0,.76,2.36,2.31,2.31,0,0,0,1.89,1,2.88,2.88,0,0,0,1.13-.21,14.94,14.94,0,0,0,1.35-.65l.94-.45a23.87,23.87,0,0,1,2.46-1.08,6.76,6.76,0,0,1,2.36-.4,3.88,3.88,0,0,1,2.74.92,3.36,3.36,0,0,1,1,2.59,2.51,2.51,0,0,1-1.12,2.29,6.89,6.89,0,0,1-3.6.72H74a2.59,2.59,0,0,0-2.12.95,3.71,3.71,0,0,0,0,4.5,2.58,2.58,0,0,0,2.12.94h2.79a6.76,6.76,0,0,1,3.69.77,2.82,2.82,0,0,1,1.12,2.52,3.14,3.14,0,0,1-1.1,2.7,6.25,6.25,0,0,1-3.62.81,8.05,8.05,0,0,1-2.59-.39,19.14,19.14,0,0,1-2.59-1.1l-.56-.25-.43-.2a14.94,14.94,0,0,0-1.35-.65,3,3,0,0,0-1.12-.2,2.33,2.33,0,0,0-1.89,1,3.73,3.73,0,0,0-.77,2.37A3.18,3.18,0,0,0,67,79a14.57,14.57,0,0,0,4.68,2.27,20.14,20.14,0,0,0,5.62.79,16.82,16.82,0,0,0,6.37-1.11,9.45,9.45,0,0,0,4.21-3.12A7.84,7.84,0,0,0,89.38,73a8,8,0,0,0-1.5-4.91A7.69,7.69,0,0,0,83.71,65.34Z"/></svg>