<svg id="Layer_1" data-name="Layer 1" xmlns="http://www.w3.org/2000/svg" viewBox="0 0 100 100"><title>l21_1_1</title><path d="M99.88,14.17V85.83A14.18,14.18,0,0,1,85.7,100H63.8A14.17,14.17,0,0,1,49.88,88.45,14.18,14.18,0,0,1,36,100H14.05A14.17,14.17,0,0,1-.12,85.83V14.17A14.17,14.17,0,0,1,14.05,0H36A14.18,14.18,0,0,1,49.88,11.55,14.17,14.17,0,0,1,63.8,0H85.7A14.18,14.18,0,0,1,99.88,14.17ZM33,72.05H32V55.8a3.82,3.82,0,0,0-1.21-3,4.26,4.26,0,0,0-2.92-1.08,4.59,4.59,0,0,0-2,.47,4.19,4.19,0,0,0-1.59,1.37L11.36,71.91a5,5,0,0,0-1,3,3.45,3.45,0,0,0,.94,2.48,3.37,3.37,0,0,0,2.57,1h10v1.53A4,4,0,0,0,25,82.94a4.08,4.08,0,0,0,2.91,1,4.13,4.13,0,0,0,2.92-1A4,4,0,0,0,32,79.88V78.35h1c2.61,0,3.91-1.06,3.91-3.2S35.57,72.05,33,72.05Zm-14.45,0,5.4-7.79v7.79Zm23.72,1.39H58.88a2.56,2.56,0,0,0,1.89-.78,2.66,2.66,0,0,0,.76-1.92,2.6,2.6,0,0,0-2.65-2.65H42.23a2.48,2.48,0,0,0-1.89.79,2.63,2.63,0,0,0-.77,1.91,2.57,2.57,0,0,0,.77,1.89A2.53,2.53,0,0,0,42.23,73.44ZM50.33,65a2.72,2.72,0,0,0,2-.85,2.85,2.85,0,0,0,.84-2.07,2.8,2.8,0,0,0-.84-2,2.89,2.89,0,0,0-4.07,0,2.84,2.84,0,0,0-.81,2.05,2.9,2.9,0,0,0,.81,2.07A2.68,2.68,0,0,0,50.33,65Zm0,17.37a2.72,2.72,0,0,0,2-.85,2.8,2.8,0,0,0,.84-2,2.85,2.85,0,0,0-.84-2.07,2.72,2.72,0,0,0-2-.85,2.68,2.68,0,0,0-2,.85,2.9,2.9,0,0,0-.81,2.07,2.82,2.82,0,0,0,.81,2A2.7,2.7,0,0,0,50.33,82.35Zm35.32-5.22H76.6L83,70.61a21,21,0,0,0,3.76-5.06,11.3,11.3,0,0,0,1.1-5,8.19,8.19,0,0,0-1.37-4.7,8.68,8.68,0,0,0-3.89-3.15,14.4,14.4,0,0,0-5.85-1.11,18.33,18.33,0,0,0-9.95,3.06,3,3,0,0,0-1.1,1.17,4,4,0,0,0-.29,1.62,3.87,3.87,0,0,0,.76,2.41,2.28,2.28,0,0,0,1.89,1,2.71,2.71,0,0,0,.86-.13,4.89,4.89,0,0,0,.92-.43l.7-.38.9-.45A21.22,21.22,0,0,1,74,58.35,7.21,7.21,0,0,1,76.38,58a3.56,3.56,0,0,1,2.5.81,3.06,3.06,0,0,1,.87,2.34q0,2.61-3,5.72l-9.54,9.94a5,5,0,0,0-1.53,3.51,3.28,3.28,0,0,0,3.51,3.42H85.65a4.54,4.54,0,0,0,2.95-.81,3.1,3.1,0,0,0,1-2.52,3,3,0,0,0-1-2.45A4.66,4.66,0,0,0,85.65,77.13ZM37.41,35V16.71a4.89,4.89,0,0,0-4.9-4.89H14.27a4.89,4.89,0,0,0-4.89,4.89V35a4.89,4.89,0,0,0,4.89,4.9H32.51A4.9,4.9,0,0,0,37.41,35ZM89,35V16.71a4.89,4.89,0,0,0-4.89-4.89H65.85A4.89,4.89,0,0,0,61,16.71V35a4.89,4.89,0,0,0,4.89,4.9H84.1A4.89,4.89,0,0,0,89,35Z"/></svg>