<svg id="Layer_1" data-name="Layer 1" xmlns="http://www.w3.org/2000/svg" viewBox="0 0 100 100"><title>l21_4</title><path d="M99.72,14V85.64A14.17,14.17,0,0,1,85.55,99.81H63.64A14.16,14.16,0,0,1,49.72,88.27,14.16,14.16,0,0,1,35.8,99.81H13.89A14.17,14.17,0,0,1-.28,85.64V14A14.18,14.18,0,0,1,13.89-.19H35.8A14.17,14.17,0,0,1,49.72,11.36,14.17,14.17,0,0,1,63.64-.19H85.55A14.18,14.18,0,0,1,99.72,14Zm-62,20.78V16.53a4.89,4.89,0,0,0-4.89-4.9H14.57a4.89,4.89,0,0,0-4.89,4.9V34.77a4.89,4.89,0,0,0,4.89,4.89H32.81A4.89,4.89,0,0,0,37.7,34.77Zm51.58,0V16.53a4.89,4.89,0,0,0-4.89-4.9H66.15a4.89,4.89,0,0,0-4.89,4.9V34.77a4.89,4.89,0,0,0,4.89,4.89H84.39A4.89,4.89,0,0,0,89.28,34.77ZM13.42,73h24a3.62,3.62,0,0,0,2.73-1.13,3.82,3.82,0,0,0,1.11-2.77,3.77,3.77,0,0,0-3.84-3.83h-24a3.66,3.66,0,0,0-2.73,1.14,3.84,3.84,0,0,0-1.1,2.76,3.74,3.74,0,0,0,1.1,2.73A3.7,3.7,0,0,0,13.42,73ZM25.13,60.74a4,4,0,0,0,2.95-1.23,4.13,4.13,0,0,0,1.2-3,4.07,4.07,0,0,0-1.2-2.93,4,4,0,0,0-2.95-1.23,3.91,3.91,0,0,0-2.93,1.2,4.08,4.08,0,0,0-1.17,3,4.18,4.18,0,0,0,1.17,3A3.87,3.87,0,0,0,25.13,60.74Zm0,25.09a4,4,0,0,0,2.95-1.23,4.06,4.06,0,0,0,1.2-2.93,4.14,4.14,0,0,0-1.2-3,4,4,0,0,0-2.95-1.23,3.87,3.87,0,0,0-2.93,1.23,4.2,4.2,0,0,0-1.17,3,4.08,4.08,0,0,0,1.17,3A3.91,3.91,0,0,0,25.13,85.83Zm45.59-9.89H67.44V57a3.34,3.34,0,0,0-3.56-3.56,6.82,6.82,0,0,0-3.32,1l-6.4,3.72a2.73,2.73,0,0,0-1.4,2.48,3.38,3.38,0,0,0,.8,2.18,2.38,2.38,0,0,0,1.92,1,2.69,2.69,0,0,0,1.4-.4l3.2-1.88V75.94H56.84a4,4,0,0,0-2.64.72,2.69,2.69,0,0,0-.84,2.16c0,2,1.16,3,3.48,3H70.72c2.32,0,3.48-1,3.48-3a2.69,2.69,0,0,0-.84-2.16A4,4,0,0,0,70.72,75.94ZM88.2,63.34a10,10,0,0,0-4,.72V59.14h8.64q3.48,0,3.48-2.8t-3.48-2.76H80.48A3.08,3.08,0,0,0,77.08,57V67.86a2.18,2.18,0,0,0,.76,1.74,2.77,2.77,0,0,0,1.88.66,3.75,3.75,0,0,0,1.8-.44,15.75,15.75,0,0,1,2.3-.72A11.16,11.16,0,0,1,86,68.9a4.57,4.57,0,0,1,3.12,1,3.55,3.55,0,0,1,1.12,2.8,3.5,3.5,0,0,1-1.08,2.83,5.18,5.18,0,0,1-3.32.89,6.63,6.63,0,0,1-2.22-.36,22.61,22.61,0,0,1-2.26-1l-.8-.4a13,13,0,0,0-1.2-.6,2.87,2.87,0,0,0-1-.16,2.07,2.07,0,0,0-1.68.86A3.33,3.33,0,0,0,76,76.9a2.93,2.93,0,0,0,.3,1.38,3.39,3.39,0,0,0,.94,1.1,13.06,13.06,0,0,0,4.1,2,16.73,16.73,0,0,0,4.86.72,13,13,0,0,0,5.72-1.2,9,9,0,0,0,3.84-3.4,9.42,9.42,0,0,0,1.36-5.08A9.66,9.66,0,0,0,96,67.68a8.11,8.11,0,0,0-3.16-3.2A9.25,9.25,0,0,0,88.2,63.34Z"/></svg>