<svg id="Layer_1" data-name="Layer 1" xmlns="http://www.w3.org/2000/svg" viewBox="0 0 100 100"><title>l21_3_1</title><path d="M100.21,14.08V85.73A14.18,14.18,0,0,1,86,99.91H64.13A14.17,14.17,0,0,1,50.21,88.36,14.17,14.17,0,0,1,36.29,99.91H14.38A14.18,14.18,0,0,1,.21,85.73V14.08A14.17,14.17,0,0,1,14.38-.09H36.29A14.16,14.16,0,0,1,50.21,11.46,14.16,14.16,0,0,1,64.13-.09H86A14.17,14.17,0,0,1,100.21,14.08ZM37.74,34.86V16.62a4.89,4.89,0,0,0-4.89-4.89H14.61a4.89,4.89,0,0,0-4.9,4.89V34.86a4.9,4.9,0,0,0,4.9,4.9H32.85A4.89,4.89,0,0,0,37.74,34.86Zm51.58,0V16.62a4.89,4.89,0,0,0-4.89-4.89H66.19a4.89,4.89,0,0,0-4.9,4.89V34.86a4.9,4.9,0,0,0,4.9,4.9H84.43A4.89,4.89,0,0,0,89.32,34.86ZM62.44,70.19H59.73V54.54a2.86,2.86,0,0,0-.81-2.14,2.91,2.91,0,0,0-2.13-.79,5.57,5.57,0,0,0-2.74.82L48.77,55.5a2.23,2.23,0,0,0-1.15,2,2.74,2.74,0,0,0,.66,1.79,2,2,0,0,0,1.58.81A2.27,2.27,0,0,0,51,59.82l2.64-1.55V70.19H51a3.28,3.28,0,0,0-2.18.59,2.19,2.19,0,0,0-.7,1.78c0,1.63,1,2.44,2.88,2.44H62.44c1.91,0,2.87-.81,2.87-2.44a2.19,2.19,0,0,0-.7-1.78A3.25,3.25,0,0,0,62.44,70.19Zm7.06,5.87L77,52.53a3.37,3.37,0,0,0,.13-.73,2,2,0,0,0-.71-1.55,2.5,2.5,0,0,0-1.63-.59,2.15,2.15,0,0,0-2.11,1.58l-7.5,23.53a2.43,2.43,0,0,0-.13.76,1.9,1.9,0,0,0,.7,1.52,2.42,2.42,0,0,0,1.61.59,2.16,2.16,0,0,0,2.15-1.58Zm23.39-5.87H86.26L91,65.4a15.31,15.31,0,0,0,2.75-3.71A8.31,8.31,0,0,0,94.51,58a6,6,0,0,0-1-3.45,6.45,6.45,0,0,0-2.85-2.31,10.59,10.59,0,0,0-4.29-.81,12.82,12.82,0,0,0-3.81.6,12.41,12.41,0,0,0-3.48,1.65,2.09,2.09,0,0,0-.81.85,2.92,2.92,0,0,0-.21,1.19,2.83,2.83,0,0,0,.56,1.77,1.68,1.68,0,0,0,1.38.74,1.89,1.89,0,0,0,.63-.1,4.77,4.77,0,0,0,.68-.31,5.45,5.45,0,0,1,.51-.28l.66-.33a13.49,13.49,0,0,1,1.86-.81,5.3,5.3,0,0,1,1.77-.28,2.58,2.58,0,0,1,1.83.59,2.23,2.23,0,0,1,.64,1.72c0,1.27-.72,2.67-2.18,4.19l-7,7.29a3.61,3.61,0,0,0-1.12,2.58A2.4,2.4,0,0,0,80.85,75h12a3.39,3.39,0,0,0,2.17-.59,2.29,2.29,0,0,0,.71-1.85,2.21,2.21,0,0,0-.71-1.8A3.45,3.45,0,0,0,92.89,70.19ZM34.21,59.26l-20-7.74a5.64,5.64,0,0,0-1.86-.36A3.62,3.62,0,0,0,9.7,52.21a3.69,3.69,0,0,0-1,2.73,3,3,0,0,0,2,2.94l17.82,6.84L10.69,71.56a3.55,3.55,0,0,0-1.5,1.17,3,3,0,0,0-.54,1.77,3.69,3.69,0,0,0,1,2.73,3.62,3.62,0,0,0,2.67,1,5.28,5.28,0,0,0,1.86-.36l20-7.74a5.65,5.65,0,0,0,2.73-2.1,5.78,5.78,0,0,0,1-3.36,5.73,5.73,0,0,0-1-3.27A5.94,5.94,0,0,0,34.21,59.26Z"/></svg>