<svg id="Layer_1" data-name="Layer 1" xmlns="http://www.w3.org/2000/svg" viewBox="0 0 100 100"><title>l21_4</title><path d="M100.25,14.17V85.83A14.17,14.17,0,0,1,86.08,100H64.17A14.18,14.18,0,0,1,50.25,88.45,14.17,14.17,0,0,1,36.33,100H14.43A14.18,14.18,0,0,1,.25,85.83V14.17A14.18,14.18,0,0,1,14.43,0h21.9A14.17,14.17,0,0,1,50.25,11.55,14.18,14.18,0,0,1,64.17,0H86.08A14.17,14.17,0,0,1,100.25,14.17ZM38.24,35V16.71a4.89,4.89,0,0,0-4.9-4.89H15.1a4.89,4.89,0,0,0-4.89,4.89V35a4.89,4.89,0,0,0,4.89,4.9H33.34A4.9,4.9,0,0,0,38.24,35Zm51.58,0V16.71a4.89,4.89,0,0,0-4.9-4.89H66.68a4.89,4.89,0,0,0-4.89,4.89V35a4.89,4.89,0,0,0,4.89,4.9H84.92A4.9,4.9,0,0,0,89.82,35ZM13.51,73.41H37.56a3.69,3.69,0,0,0,2.73-1.13,3.82,3.82,0,0,0,1.11-2.77,3.77,3.77,0,0,0-3.84-3.83H13.51a3.69,3.69,0,0,0-2.73,1.13,3.81,3.81,0,0,0-1.1,2.77,3.7,3.7,0,0,0,1.1,2.73A3.74,3.74,0,0,0,13.51,73.41Zm11.7-12.22a4,4,0,0,0,3-1.23,4.14,4.14,0,0,0,1.2-3A4.07,4.07,0,0,0,28.17,54a4,4,0,0,0-3-1.23A3.91,3.91,0,0,0,22.29,54a4.08,4.08,0,0,0-1.17,3,4.2,4.2,0,0,0,1.17,3A3.86,3.86,0,0,0,25.21,61.19Zm0,25.09a4,4,0,0,0,3-1.23,4.07,4.07,0,0,0,1.2-2.93,4.14,4.14,0,0,0-1.2-3,4,4,0,0,0-3-1.23,3.86,3.86,0,0,0-2.92,1.23,4.2,4.2,0,0,0-1.17,3,4.08,4.08,0,0,0,1.17,3A3.91,3.91,0,0,0,25.21,86.28Zm45.6-9.89H67.53v-19a3.49,3.49,0,0,0-1-2.6,3.55,3.55,0,0,0-2.58-1,6.82,6.82,0,0,0-3.32,1l-6.4,3.72a2.71,2.71,0,0,0-1.4,2.48,3.32,3.32,0,0,0,.8,2.18,2.38,2.38,0,0,0,1.92,1,2.71,2.71,0,0,0,1.4-.4L60.17,62V76.39H56.93a4,4,0,0,0-2.64.72,2.69,2.69,0,0,0-.84,2.16c0,2,1.16,3,3.48,3H70.81c2.32,0,3.48-1,3.48-3a2.69,2.69,0,0,0-.84-2.16A4,4,0,0,0,70.81,76.39Zm15.52,6.2a9.35,9.35,0,0,0,8-3.72q2.76-3.72,2.76-10.76T94.31,57.39a9.38,9.38,0,0,0-8-3.72,9.34,9.34,0,0,0-8,3.72q-2.76,3.72-2.76,10.72t2.76,10.76A9.34,9.34,0,0,0,86.33,82.59Zm0-5.56A2.86,2.86,0,0,1,83.57,75a19.86,19.86,0,0,1-.84-6.84,19.77,19.77,0,0,1,.84-6.82,2.88,2.88,0,0,1,5.52,0,19.79,19.79,0,0,1,.84,6.8A19.86,19.86,0,0,1,89.09,75,2.86,2.86,0,0,1,86.33,77Z"/></svg>