<svg id="Layer_1" data-name="Layer 1" xmlns="http://www.w3.org/2000/svg" viewBox="0 0 100 100"><title>l21_5_1</title><path d="M100.23,13.76V85.41A14.17,14.17,0,0,1,86.05,99.58H64.15A14.16,14.16,0,0,1,50.23,88,14.17,14.17,0,0,1,36.31,99.58H14.4A14.16,14.16,0,0,1,.23,85.41V13.76A14.17,14.17,0,0,1,14.4-.42H36.31A14.18,14.18,0,0,1,50.23,11.13,14.17,14.17,0,0,1,64.15-.42h21.9A14.18,14.18,0,0,1,100.23,13.76Zm-62,20.78V16.3a4.89,4.89,0,0,0-4.89-4.9H15.08a4.9,4.9,0,0,0-4.9,4.9V34.54a4.89,4.89,0,0,0,4.9,4.89H33.32A4.89,4.89,0,0,0,38.21,34.54Zm51.58,0V16.3a4.89,4.89,0,0,0-4.89-4.9H66.66a4.9,4.9,0,0,0-4.9,4.9V34.54a4.9,4.9,0,0,0,4.9,4.89H84.9A4.89,4.89,0,0,0,89.79,34.54ZM31.55,50.71H13.91a4.44,4.44,0,0,0-3,.83A3.17,3.17,0,0,0,10,54a3.05,3.05,0,0,0,.93,2.43,4.47,4.47,0,0,0,3,.81H25.16L13.59,77A4.25,4.25,0,0,0,13,79.19a3.29,3.29,0,0,0,1.22,2.59A4.1,4.1,0,0,0,17,82.84a3.79,3.79,0,0,0,1.91-.52,4.12,4.12,0,0,0,1.55-1.6L34.07,57.1a5.74,5.74,0,0,0,.85-3,3.51,3.51,0,0,0-.87-2.45A3.2,3.2,0,0,0,31.55,50.71ZM53.24,69.47l4.86-4.81a2.65,2.65,0,0,0,.81-1.94,2.36,2.36,0,0,0-.81-1.84,2.5,2.5,0,0,0-1.89-.81,2.59,2.59,0,0,0-1.89.81l-4.86,4.86L44.6,60.88A2.63,2.63,0,0,0,42.71,60a2.37,2.37,0,0,0-1.85.81,2.65,2.65,0,0,0-.81,1.94,2.78,2.78,0,0,0,.77,1.89l4.86,4.81-4.86,4.86A2.59,2.59,0,0,0,40,76.22a2.63,2.63,0,0,0,.81,1.9,2.77,2.77,0,0,0,1.89.76,2.56,2.56,0,0,0,1.89-.76l4.86-4.87,4.86,4.87a2.65,2.65,0,0,0,4.54-1.9,2.5,2.5,0,0,0-.76-1.89Zm31.59,6.4h-9l6.39-6.53a21,21,0,0,0,3.76-5.06,11.44,11.44,0,0,0,1.1-5,8.26,8.26,0,0,0-1.37-4.7,8.74,8.74,0,0,0-3.89-3.15,14.4,14.4,0,0,0-5.85-1.11,17.34,17.34,0,0,0-5.2.82A17.63,17.63,0,0,0,66,53.37a3,3,0,0,0-1.1,1.16,4.37,4.37,0,0,0,.47,4,2.28,2.28,0,0,0,1.89,1,2.71,2.71,0,0,0,.86-.13A5.2,5.2,0,0,0,69,59l.7-.38.9-.45a20.55,20.55,0,0,1,2.54-1.1,7.21,7.21,0,0,1,2.41-.39,3.56,3.56,0,0,1,2.5.81,3.06,3.06,0,0,1,.87,2.35q0,2.61-3,5.71L66.42,75.5A5,5,0,0,0,64.89,79a3.28,3.28,0,0,0,3.51,3.42H84.83a4.54,4.54,0,0,0,3-.81,3.1,3.1,0,0,0,1-2.52,3,3,0,0,0-1-2.45A4.66,4.66,0,0,0,84.83,75.87Z"/></svg>