<svg id="Layer_1" data-name="Layer 1" xmlns="http://www.w3.org/2000/svg" viewBox="0 0 100 100"><title>l21_3_1</title><path d="M100.1,14.43V86.08a14.18,14.18,0,0,1-14.18,14.18H64A14.17,14.17,0,0,1,50.1,88.71a14.18,14.18,0,0,1-13.92,11.55H14.27A14.17,14.17,0,0,1,.1,86.08V14.43A14.16,14.16,0,0,1,14.27.26H36.18A14.17,14.17,0,0,1,50.1,11.8,14.16,14.16,0,0,1,64,.26h21.9A14.17,14.17,0,0,1,100.1,14.43Zm-62,20.78V17a4.89,4.89,0,0,0-4.89-4.89H15A4.89,4.89,0,0,0,10.05,17V35.21A4.89,4.89,0,0,0,15,40.1H33.19A4.89,4.89,0,0,0,38.08,35.21Zm51.58,0V17a4.89,4.89,0,0,0-4.89-4.89H66.53A4.9,4.9,0,0,0,61.63,17V35.21a4.9,4.9,0,0,0,4.9,4.89H84.77A4.89,4.89,0,0,0,89.66,35.21ZM59,77.2a7.73,7.73,0,0,0,6.6-3.07q2.27-3.07,2.27-8.88t-2.29-8.84A7.71,7.71,0,0,0,59,53.34a7.68,7.68,0,0,0-6.6,3.07q-2.28,3.06-2.28,8.84t2.28,8.88A7.71,7.71,0,0,0,59,77.2Zm0-4.59a2.36,2.36,0,0,1-2.28-1.72,16.45,16.45,0,0,1-.69-5.64,16.39,16.39,0,0,1,.69-5.63,2.37,2.37,0,0,1,4.55,0,16.36,16.36,0,0,1,.7,5.61,16.4,16.4,0,0,1-.7,5.64A2.36,2.36,0,0,1,59,72.61ZM73.41,77.1a3,3,0,0,0,2.26-.93,3.08,3.08,0,0,0,.91-2.27,3.12,3.12,0,0,0-.91-2.28,3,3,0,0,0-2.26-.92,3.07,3.07,0,0,0-2.29.92,3.12,3.12,0,0,0-.91,2.28,3.14,3.14,0,0,0,3.2,3.2ZM94.9,68.35h-.73V56.44a2.81,2.81,0,0,0-.89-2.21,3.1,3.1,0,0,0-2.15-.79,3.29,3.29,0,0,0-1.46.34,3,3,0,0,0-1.18,1L79.06,68.25a3.68,3.68,0,0,0-.73,2.18A2.55,2.55,0,0,0,79,72.25,2.5,2.5,0,0,0,80.9,73h7.36v1.12a2.93,2.93,0,0,0,.81,2.25,3,3,0,0,0,2.13.76,3,3,0,0,0,2.15-.76,2.9,2.9,0,0,0,.82-2.25V73h.73c1.91,0,2.87-.78,2.87-2.34S96.81,68.35,94.9,68.35Zm-10.6,0,4-5.71v5.71ZM36.51,61.16l-20-7.74a5.64,5.64,0,0,0-1.86-.36,3.62,3.62,0,0,0-2.67,1A3.69,3.69,0,0,0,11,56.84a3,3,0,0,0,2,2.94l17.82,6.84L13,73.46a3.55,3.55,0,0,0-1.5,1.17A3,3,0,0,0,11,76.4,3.69,3.69,0,0,0,12,79.13a3.62,3.62,0,0,0,2.67,1.05,5.28,5.28,0,0,0,1.86-.36l20-7.74A5.65,5.65,0,0,0,39.24,70a5.78,5.78,0,0,0,1-3.36,5.73,5.73,0,0,0-1-3.27A5.94,5.94,0,0,0,36.51,61.16Z"/></svg>