<svg id="Layer_1" data-name="Layer 1" xmlns="http://www.w3.org/2000/svg" viewBox="0 0 100 100"><title>l21_1_1</title><path d="M100,14.17V85.83A14.18,14.18,0,0,1,85.85,100H64A14.17,14.17,0,0,1,50,88.45,14.18,14.18,0,0,1,36.11,100H14.2A14.17,14.17,0,0,1,0,85.83V14.17A14.17,14.17,0,0,1,14.2,0H36.11A14.18,14.18,0,0,1,50,11.55,14.17,14.17,0,0,1,64,0h21.9A14.18,14.18,0,0,1,100,14.17ZM33,77.13H29.28V55.8a3.91,3.91,0,0,0-1.1-2.92,4,4,0,0,0-2.9-1.08,7.61,7.61,0,0,0-3.74,1.12l-7.2,4.19a3.05,3.05,0,0,0-1.57,2.79,3.77,3.77,0,0,0,.9,2.45,2.69,2.69,0,0,0,2.16,1.1A3.05,3.05,0,0,0,17.4,63L21,60.89V77.13H17.36a4.5,4.5,0,0,0-3,.81,3,3,0,0,0-1,2.43q0,3.33,3.92,3.33H33q3.91,0,3.92-3.33a3,3,0,0,0-1-2.43A4.5,4.5,0,0,0,33,77.13Zm21.24-6.39,4.86-4.81A2.65,2.65,0,0,0,59.88,64a2.35,2.35,0,0,0-.81-1.84,2.5,2.5,0,0,0-1.89-.81,2.59,2.59,0,0,0-1.89.81L50.43,67l-4.86-4.86a2.63,2.63,0,0,0-1.89-.86,2.35,2.35,0,0,0-1.84.81A2.65,2.65,0,0,0,41,64a2.77,2.77,0,0,0,.76,1.89l4.86,4.81L41.79,75.6a2.61,2.61,0,0,0,0,3.78,2.78,2.78,0,0,0,1.89.77,2.57,2.57,0,0,0,1.89-.77l4.86-4.86,4.86,4.86a2.66,2.66,0,0,0,4.55-1.89,2.48,2.48,0,0,0-.77-1.89ZM85.8,77.13h-9l6.39-6.52a21,21,0,0,0,3.76-5.06,11.3,11.3,0,0,0,1.1-5,8.19,8.19,0,0,0-1.37-4.7,8.68,8.68,0,0,0-3.89-3.15,14.4,14.4,0,0,0-5.85-1.11,18.33,18.33,0,0,0-10,3.06,3,3,0,0,0-1.1,1.17,4,4,0,0,0-.29,1.62,3.87,3.87,0,0,0,.76,2.41,2.28,2.28,0,0,0,1.9,1,2.7,2.7,0,0,0,.85-.13,4.89,4.89,0,0,0,.92-.43l.7-.38.9-.45a21.22,21.22,0,0,1,2.54-1.1A7.21,7.21,0,0,1,76.53,58a3.56,3.56,0,0,1,2.5.81,3,3,0,0,1,.87,2.34c0,1.74-1,3.65-3,5.72l-9.54,9.94a4.93,4.93,0,0,0-1.53,3.51,3.4,3.4,0,0,0,1,2.46,3.43,3.43,0,0,0,2.57,1H85.8a4.54,4.54,0,0,0,3-.81,3.12,3.12,0,0,0,1-2.52,3,3,0,0,0-1-2.45A4.66,4.66,0,0,0,85.8,77.13Zm-47-41.74V17.15a4.89,4.89,0,0,0-4.89-4.9H15.64a4.89,4.89,0,0,0-4.89,4.9V35.39a4.89,4.89,0,0,0,4.89,4.89H33.88A4.89,4.89,0,0,0,38.77,35.39Zm51.58,0V17.15a4.89,4.89,0,0,0-4.89-4.9H67.22a4.89,4.89,0,0,0-4.89,4.9V35.39a4.89,4.89,0,0,0,4.89,4.89H85.46A4.89,4.89,0,0,0,90.35,35.39Z"/></svg>