<svg id="Layer_1" data-name="Layer 1" xmlns="http://www.w3.org/2000/svg" viewBox="0 0 100 100"><title>l21_3_1</title><path d="M100,14.17V85.83A14.18,14.18,0,0,1,85.83,100H63.92A14.17,14.17,0,0,1,50,88.45,14.17,14.17,0,0,1,36.08,100H14.17A14.18,14.18,0,0,1,0,85.83V14.17A14.18,14.18,0,0,1,14.17,0H36.08A14.17,14.17,0,0,1,50,11.55,14.17,14.17,0,0,1,63.92,0H85.83A14.18,14.18,0,0,1,100,14.17ZM37.44,35V16.77a4.9,4.9,0,0,0-4.9-4.9H14.3a4.89,4.89,0,0,0-4.89,4.9V35A4.89,4.89,0,0,0,14.3,39.9H32.54A4.89,4.89,0,0,0,37.44,35ZM89,35V16.77a4.89,4.89,0,0,0-4.89-4.9H65.88A4.89,4.89,0,0,0,61,16.77V35a4.89,4.89,0,0,0,4.89,4.89H84.13A4.89,4.89,0,0,0,89,35ZM58.69,78a7.71,7.71,0,0,0,6.6-3.07q2.28-3.06,2.28-8.87t-2.3-8.85a7.72,7.72,0,0,0-6.58-3.07,7.73,7.73,0,0,0-6.6,3.07Q49.81,60.26,49.81,66t2.28,8.87A7.71,7.71,0,0,0,58.69,78Zm0-4.58a2.39,2.39,0,0,1-2.28-1.72A16.45,16.45,0,0,1,55.72,66a16.35,16.35,0,0,1,.69-5.63,2.38,2.38,0,0,1,4.56,0A16.33,16.33,0,0,1,61.66,66,16.45,16.45,0,0,1,61,71.67,2.37,2.37,0,0,1,58.69,73.39Zm14.39,4.48A3,3,0,0,0,75.34,77a3.3,3.3,0,0,0,0-4.55,3.25,3.25,0,0,0-4.55,0,3.3,3.3,0,0,0,0,4.55A3.05,3.05,0,0,0,73.08,77.87ZM91.66,65.7a5.32,5.32,0,0,0,3.56-5.18,5.77,5.77,0,0,0-1-3.37,6.42,6.42,0,0,0-2.88-2.24,10.85,10.85,0,0,0-4.3-.8,13.07,13.07,0,0,0-3.91.6,10.59,10.59,0,0,0-3.35,1.65,2.26,2.26,0,0,0-1,2,2.69,2.69,0,0,0,.56,1.74,1.7,1.7,0,0,0,1.38.71,2.19,2.19,0,0,0,.83-.15q.36-.15,1-.48l.69-.33A18.13,18.13,0,0,1,85,59.1a4.91,4.91,0,0,1,1.73-.3,2.83,2.83,0,0,1,2,.68,2.43,2.43,0,0,1,.73,1.89,1.86,1.86,0,0,1-.83,1.69,5.07,5.07,0,0,1-2.64.53H84.56a1.9,1.9,0,0,0-1.55.69,2.71,2.71,0,0,0,0,3.3,1.9,1.9,0,0,0,1.55.69h2a5,5,0,0,1,2.7.56,2.08,2.08,0,0,1,.83,1.85,2.3,2.3,0,0,1-.81,2,4.53,4.53,0,0,1-2.65.59,5.89,5.89,0,0,1-1.9-.28,12.8,12.8,0,0,1-1.9-.81L82.47,72l-.32-.14a10.39,10.39,0,0,0-1-.48,2.1,2.1,0,0,0-.82-.15,1.7,1.7,0,0,0-1.39.71,2.72,2.72,0,0,0-.56,1.73,2.66,2.66,0,0,0,.23,1.14,2.74,2.74,0,0,0,.79.91,10.69,10.69,0,0,0,3.44,1.66,14.44,14.44,0,0,0,4.12.58,12.37,12.37,0,0,0,4.67-.81,7,7,0,0,0,3.09-2.29,6.28,6.28,0,0,0,0-7.1A5.58,5.58,0,0,0,91.66,65.7ZM36.18,61.94l-20-7.74a5.64,5.64,0,0,0-1.86-.36,3.62,3.62,0,0,0-2.67,1,3.69,3.69,0,0,0-1.05,2.73,3,3,0,0,0,2,2.94L30.48,67.4,12.66,74.24a3.55,3.55,0,0,0-1.5,1.17,3,3,0,0,0-.54,1.77,3.69,3.69,0,0,0,1.05,2.73,3.62,3.62,0,0,0,2.67,1,5.28,5.28,0,0,0,1.86-.36l20-7.74a5.65,5.65,0,0,0,2.73-2.1,5.78,5.78,0,0,0,1-3.36,5.73,5.73,0,0,0-1-3.27A5.94,5.94,0,0,0,36.18,61.94Z"/></svg>