<svg id="Layer_1" data-name="Layer 1" xmlns="http://www.w3.org/2000/svg" viewBox="0 0 100 100"><title>l21_1_1</title><path d="M100,14V85.66A14.18,14.18,0,0,1,85.85,99.83H64A14.17,14.17,0,0,1,50,88.28,14.18,14.18,0,0,1,36.11,99.83H14.2A14.17,14.17,0,0,1,0,85.66V14A14.17,14.17,0,0,1,14.2-.17H36.11A14.18,14.18,0,0,1,50,11.38,14.17,14.17,0,0,1,64-.17h21.9A14.18,14.18,0,0,1,100,14ZM31.8,77h-9l6.39-6.52a21,21,0,0,0,3.75-5.06,11.3,11.3,0,0,0,1.11-5,8.2,8.2,0,0,0-1.38-4.7,8.68,8.68,0,0,0-3.89-3.15,14.4,14.4,0,0,0-5.85-1.11A18.27,18.27,0,0,0,13,54.46a3,3,0,0,0-1.11,1.17,4,4,0,0,0-.29,1.62,3.88,3.88,0,0,0,.77,2.41,2.28,2.28,0,0,0,1.89,1,2.7,2.7,0,0,0,.85-.13,4.89,4.89,0,0,0,.92-.43l.7-.38.9-.45a21.22,21.22,0,0,1,2.54-1.1,7.21,7.21,0,0,1,2.41-.39,3.56,3.56,0,0,1,2.5.81,3,3,0,0,1,.88,2.34q0,2.61-3,5.72L13.4,76.6a4.93,4.93,0,0,0-1.53,3.51,3.39,3.39,0,0,0,.94,2.46,3.45,3.45,0,0,0,2.57,1H31.8a4.54,4.54,0,0,0,2.95-.81,3.12,3.12,0,0,0,1-2.52,3,3,0,0,0-1-2.45A4.66,4.66,0,0,0,31.8,77Zm27-9H53.13V62.25a2.66,2.66,0,1,0-5.31,0v5.67H42.15a2.6,2.6,0,0,0-2.65,2.65,2.66,2.66,0,0,0,.76,1.92,2.54,2.54,0,0,0,1.89.78h5.67V78.9a2.69,2.69,0,0,0,4.57,1.89,2.63,2.63,0,0,0,.74-1.89V73.27H58.8a2.54,2.54,0,0,0,1.89-.78,2.67,2.67,0,0,0,.77-1.92,2.61,2.61,0,0,0-2.66-2.65Zm24.39-.72a7.35,7.35,0,0,0,3.58-2.72,7.55,7.55,0,0,0,1.28-4.35,7.89,7.89,0,0,0-1.37-4.59,8.82,8.82,0,0,0-3.92-3.06,14.88,14.88,0,0,0-5.87-1.08,18,18,0,0,0-5.33.81A14.89,14.89,0,0,0,67,54.46a3.64,3.64,0,0,0-1.08,1.22,3.49,3.49,0,0,0-.31,1.57,3.72,3.72,0,0,0,.76,2.37,2.33,2.33,0,0,0,1.89,1,2.92,2.92,0,0,0,1.13-.2,14.94,14.94,0,0,0,1.35-.65l.94-.45a24.77,24.77,0,0,1,2.45-1.08,6.86,6.86,0,0,1,2.37-.41,3.84,3.84,0,0,1,2.74.93,3.34,3.34,0,0,1,1,2.58,2.55,2.55,0,0,1-1.12,2.3,6.89,6.89,0,0,1-3.6.72h-2a2.58,2.58,0,0,0-2.12.94,3.71,3.71,0,0,0,0,4.5,2.59,2.59,0,0,0,2.12.95h2.79a6.77,6.77,0,0,1,3.69.76A2.82,2.82,0,0,1,81.12,74a3.14,3.14,0,0,1-1.1,2.7,6.25,6.25,0,0,1-3.62.81,8,8,0,0,1-2.59-.38A19.14,19.14,0,0,1,71.22,76l-.56-.25-.43-.2a14.94,14.94,0,0,0-1.35-.65,2.83,2.83,0,0,0-1.12-.21,2.33,2.33,0,0,0-1.89,1A3.7,3.7,0,0,0,65.1,78a3.15,3.15,0,0,0,1.4,2.79,14.58,14.58,0,0,0,4.68,2.28,20.13,20.13,0,0,0,5.62.78,16.83,16.83,0,0,0,6.37-1.1,9.47,9.47,0,0,0,4.21-3.13,7.84,7.84,0,0,0,1.48-4.77A7.94,7.94,0,0,0,87.35,70,7.63,7.63,0,0,0,83.19,67.2ZM38.25,32.94V14.69A4.89,4.89,0,0,0,33.36,9.8H15.12a4.89,4.89,0,0,0-4.9,4.89V32.94a4.89,4.89,0,0,0,4.9,4.89H33.36A4.89,4.89,0,0,0,38.25,32.94Zm51.58,0V14.69A4.89,4.89,0,0,0,84.94,9.8H66.7a4.9,4.9,0,0,0-4.9,4.89V32.94a4.9,4.9,0,0,0,4.9,4.89H84.94A4.89,4.89,0,0,0,89.83,32.94Z"/></svg>