<svg id="Layer_1" data-name="Layer 1" xmlns="http://www.w3.org/2000/svg" viewBox="0 0 100 100"><title>l21_3_1</title><path d="M100,14.62V86.27a14.17,14.17,0,0,1-14.17,14.17H63.92A14.16,14.16,0,0,1,50,88.9a14.16,14.16,0,0,1-13.92,11.54H14.17A14.17,14.17,0,0,1,0,86.27V14.62A14.18,14.18,0,0,1,14.17.44H36.08A14.17,14.17,0,0,1,50,12,14.17,14.17,0,0,1,63.92.44H85.83A14.18,14.18,0,0,1,100,14.62ZM38,35.4V17.16a4.89,4.89,0,0,0-4.89-4.9H14.85A4.89,4.89,0,0,0,10,17.16V35.4a4.89,4.89,0,0,0,4.89,4.89H33.09A4.89,4.89,0,0,0,38,35.4Zm51.58,0V17.16a4.89,4.89,0,0,0-4.89-4.9H66.43a4.89,4.89,0,0,0-4.89,4.9V35.4a4.89,4.89,0,0,0,4.89,4.89H84.67A4.89,4.89,0,0,0,89.56,35.4ZM22.78,72.17a2.61,2.61,0,0,0,1.64-.54,2.41,2.41,0,0,0,.87-1.53,4.32,4.32,0,0,1,1-1.83,21,21,0,0,1,2.27-2.09c1.05-.93,1.91-1.72,2.57-2.38a9.21,9.21,0,0,0,1.68-2.39,7,7,0,0,0-.6-7.09,8.85,8.85,0,0,0-3.6-2.79,13,13,0,0,0-5.22-1,17,17,0,0,0-5.2.83,16.29,16.29,0,0,0-4.62,2.32,4.1,4.1,0,0,0-1.1,1.22,3.35,3.35,0,0,0-.33,1.57,3.63,3.63,0,0,0,.78,2.36,2.38,2.38,0,0,0,1.92,1,5.46,5.46,0,0,0,2.47-.85l1.08-.54a17.24,17.24,0,0,1,2.27-1.11,5.9,5.9,0,0,1,2.05-.38,3.05,3.05,0,0,1,2,.59,1.91,1.91,0,0,1,.72,1.57,3.24,3.24,0,0,1-.52,1.8,14.27,14.27,0,0,1-1.55,1.94,14.62,14.62,0,0,0-2.25,2.9,7,7,0,0,0-.81,3.53A3.26,3.26,0,0,0,21,71.4,2.29,2.29,0,0,0,22.78,72.17Zm.09,10.75A4.17,4.17,0,0,0,26,81.66a4.51,4.51,0,0,0,0-6.21,4.17,4.17,0,0,0-3.12-1.26,4.15,4.15,0,0,0-3.09,1.26,4.51,4.51,0,0,0,0,6.21A4.15,4.15,0,0,0,22.87,82.92Zm33.84-8.1L43.34,69.69l13.37-5.13a2.28,2.28,0,0,0,1.53-2.2,2.81,2.81,0,0,0-.79-2,2.75,2.75,0,0,0-2-.79,4.21,4.21,0,0,0-1.4.27l-15,5.81a4.37,4.37,0,0,0-2,1.64,4.24,4.24,0,0,0-.75,2.45A4.31,4.31,0,0,0,37,72.21a4.2,4.2,0,0,0,2,1.58l15,5.8a4.21,4.21,0,0,0,1.4.27,2.71,2.71,0,0,0,2-.79,2.77,2.77,0,0,0,.79-2,2.23,2.23,0,0,0-.41-1.33A2.76,2.76,0,0,0,56.71,74.82ZM83.93,71h-1V54.75a3.78,3.78,0,0,0-1.22-3,4.22,4.22,0,0,0-2.92-1.08,4.42,4.42,0,0,0-2,.47,4.07,4.07,0,0,0-1.6,1.37L62.33,70.86a5,5,0,0,0-1,3,3.46,3.46,0,0,0,.95,2.48,3.37,3.37,0,0,0,2.56,1h10v1.53A4,4,0,0,0,76,81.89a4.05,4.05,0,0,0,2.9,1,4.13,4.13,0,0,0,2.92-1,4,4,0,0,0,1.13-3.06V77.3h1q3.91,0,3.91-3.2T83.93,71ZM69.49,71l5.39-7.79V71Z"/></svg>