<svg id="Layer_1" data-name="Layer 1" xmlns="http://www.w3.org/2000/svg" viewBox="0 0 100 100"><title>l21_4</title><path d="M100,13.86V85.51A14.18,14.18,0,0,1,85.83,99.69H63.92A14.17,14.17,0,0,1,50,88.14,14.17,14.17,0,0,1,36.08,99.69H14.17A14.18,14.18,0,0,1,0,85.51V13.86A14.17,14.17,0,0,1,14.17-.31H36.08A14.16,14.16,0,0,1,50,11.23,14.16,14.16,0,0,1,63.92-.31H85.83A14.17,14.17,0,0,1,100,13.86ZM38,34.64V16.4a4.89,4.89,0,0,0-4.89-4.89H14.85A4.89,4.89,0,0,0,10,16.4V34.64a4.89,4.89,0,0,0,4.89,4.89H33.09A4.89,4.89,0,0,0,38,34.64Zm51.58,0V16.4a4.89,4.89,0,0,0-4.89-4.89H66.43a4.89,4.89,0,0,0-4.89,4.89V34.64a4.89,4.89,0,0,0,4.89,4.89H84.67A4.89,4.89,0,0,0,89.56,34.64ZM12.89,73.41h24a3.69,3.69,0,0,0,2.73-1.13,3.82,3.82,0,0,0,1.11-2.77,3.77,3.77,0,0,0-3.84-3.83h-24a3.69,3.69,0,0,0-2.73,1.13,3.81,3.81,0,0,0-1.1,2.77,3.7,3.7,0,0,0,1.1,2.73A3.74,3.74,0,0,0,12.89,73.41Zm11.7-12.22a4,4,0,0,0,3-1.23,4.14,4.14,0,0,0,1.2-3A4.07,4.07,0,0,0,27.55,54a4,4,0,0,0-3-1.23A3.91,3.91,0,0,0,21.67,54a4.08,4.08,0,0,0-1.17,3,4.2,4.2,0,0,0,1.17,3A3.86,3.86,0,0,0,24.59,61.19Zm0,25.09a4,4,0,0,0,3-1.23,4.07,4.07,0,0,0,1.2-2.93,4.14,4.14,0,0,0-1.2-3,4,4,0,0,0-3-1.23,3.86,3.86,0,0,0-2.92,1.23,4.2,4.2,0,0,0-1.17,3,4.08,4.08,0,0,0,1.17,3A3.91,3.91,0,0,0,24.59,86.28ZM72.71,53.67a10.36,10.36,0,0,0-5.08,1.24,8.89,8.89,0,0,0-3.5,3.46A10.69,10.69,0,0,0,64,68.13a8.19,8.19,0,0,0,3,3.28,8.05,8.05,0,0,0,4.32,1.18,7.64,7.64,0,0,0,3.38-.74,6.36,6.36,0,0,0,2.46-2,10.63,10.63,0,0,1-1.5,5.22,3.83,3.83,0,0,1-3.3,1.86,5.16,5.16,0,0,1-1.84-.32,22.16,22.16,0,0,1-2.2-1l-.88-.44c-.51-.26-.91-.46-1.2-.58a2.66,2.66,0,0,0-1-.18,2.12,2.12,0,0,0-1.7.86,3.23,3.23,0,0,0-.7,2.1,2.93,2.93,0,0,0,.3,1.4,3.25,3.25,0,0,0,1,1.08,12.62,12.62,0,0,0,4,2,15.49,15.49,0,0,0,4.58.72,10.85,10.85,0,0,0,6.22-1.8,11.7,11.7,0,0,0,4.12-5.14,19.42,19.42,0,0,0,1.46-7.82q0-6.8-3.08-10.48T72.71,53.67Zm.44,13.24a3.16,3.16,0,0,1-2.5-1,4.67,4.67,0,0,1,0-5.54,3.15,3.15,0,0,1,2.48-1,3.22,3.22,0,0,1,2.48,1.06,3.93,3.93,0,0,1,1,2.74,4,4,0,0,1-.94,2.76A3.19,3.19,0,0,1,73.15,66.91Z"/></svg>