<svg id="Layer_1" data-name="Layer 1" xmlns="http://www.w3.org/2000/svg" viewBox="0 0 100 100"><title>l21_3_1</title><path d="M100.4,13.94V85.59A14.17,14.17,0,0,1,86.22,99.76H64.32A14.16,14.16,0,0,1,50.4,88.21,14.17,14.17,0,0,1,36.48,99.76H14.57A14.16,14.16,0,0,1,.4,85.59V13.94A14.17,14.17,0,0,1,14.57-.24H36.48A14.18,14.18,0,0,1,50.4,11.31,14.17,14.17,0,0,1,64.32-.24h21.9A14.18,14.18,0,0,1,100.4,13.94ZM37.83,34.77V16.53a4.89,4.89,0,0,0-4.89-4.89H14.7a4.89,4.89,0,0,0-4.89,4.89V34.77a4.89,4.89,0,0,0,4.89,4.89H32.94A4.89,4.89,0,0,0,37.83,34.77Zm51.59,0V16.53a4.9,4.9,0,0,0-4.9-4.89H66.28a4.89,4.89,0,0,0-4.89,4.89V34.77a4.89,4.89,0,0,0,4.89,4.89H84.52A4.9,4.9,0,0,0,89.42,34.77ZM23.75,71.23a2.61,2.61,0,0,0,1.64-.54,2.37,2.37,0,0,0,.88-1.53,4.19,4.19,0,0,1,1-1.83,21,21,0,0,1,2.27-2.09c1.05-.93,1.91-1.72,2.57-2.38a9.23,9.23,0,0,0,1.69-2.39,6.81,6.81,0,0,0,.69-3.06,6.65,6.65,0,0,0-1.3-4,8.79,8.79,0,0,0-3.6-2.79,12.89,12.89,0,0,0-5.22-1,17.07,17.07,0,0,0-5.2.83,16.1,16.1,0,0,0-4.61,2.32A4,4,0,0,0,13.46,54a3.35,3.35,0,0,0-.33,1.57,3.63,3.63,0,0,0,.78,2.36,2.4,2.4,0,0,0,1.92,1A5.46,5.46,0,0,0,18.3,58l1.08-.54a15.47,15.47,0,0,1,2.28-1.1,5.6,5.6,0,0,1,2-.39,3.05,3.05,0,0,1,2,.59,1.91,1.91,0,0,1,.72,1.57,3.31,3.31,0,0,1-.51,1.8,15.32,15.32,0,0,1-1.56,1.94,14.91,14.91,0,0,0-2.25,2.9,7,7,0,0,0-.81,3.53,3.26,3.26,0,0,0,.65,2.16A2.29,2.29,0,0,0,23.75,71.23ZM23.84,82A4.17,4.17,0,0,0,27,80.72a4.51,4.51,0,0,0,0-6.21,4.46,4.46,0,0,0-6.21,0,4.53,4.53,0,0,0,0,6.21A4.17,4.17,0,0,0,23.84,82Zm33.84-8.1L44.31,68.75l13.37-5.13a2.29,2.29,0,0,0,1.12-.85,2.32,2.32,0,0,0,.41-1.35,2.81,2.81,0,0,0-.79-2.05,2.74,2.74,0,0,0-2-.79,4.26,4.26,0,0,0-1.4.27L40,64.66a4.51,4.51,0,0,0-2,1.64,4.24,4.24,0,0,0-.74,2.45A4.22,4.22,0,0,0,40,72.85l15,5.8a4.26,4.26,0,0,0,1.4.27,2.7,2.7,0,0,0,2-.79,2.77,2.77,0,0,0,.79-2,2.23,2.23,0,0,0-.41-1.33A2.69,2.69,0,0,0,57.68,73.88ZM77.43,61a11.22,11.22,0,0,0-4.45.81V56.24H82.7q3.92,0,3.91-3.15T82.7,50h-14a3.85,3.85,0,0,0-2.84,1,3.9,3.9,0,0,0-1,2.88V66.05a2.47,2.47,0,0,0,.86,2,3.12,3.12,0,0,0,2.11.74,4.32,4.32,0,0,0,2-.49,16,16,0,0,1,2.58-.81A12.4,12.4,0,0,1,75,67.22a5.09,5.09,0,0,1,3.51,1.13,4,4,0,0,1,1.26,3.15,3.9,3.9,0,0,1-1.22,3.17,5.77,5.77,0,0,1-3.73,1,7.45,7.45,0,0,1-2.5-.4,24.58,24.58,0,0,1-2.54-1.08l-.9-.45a14,14,0,0,0-1.35-.68,3.08,3.08,0,0,0-1.13-.18,2.34,2.34,0,0,0-1.89,1,3.69,3.69,0,0,0-.76,2.36A3.45,3.45,0,0,0,64,77.78,4.1,4.1,0,0,0,65.1,79a14.9,14.9,0,0,0,4.61,2.25,18.82,18.82,0,0,0,5.47.81,14.63,14.63,0,0,0,6.44-1.35,10.12,10.12,0,0,0,4.32-3.82,10.66,10.66,0,0,0,1.53-5.72,10.78,10.78,0,0,0-1.29-5.33,9.17,9.17,0,0,0-3.55-3.6A10.46,10.46,0,0,0,77.43,61Z"/></svg>