<svg id="Layer_1" data-name="Layer 1" xmlns="http://www.w3.org/2000/svg" viewBox="0 0 100 100"><title>l21_4</title><path d="M80.51,100.2h-61A19.7,19.7,0,0,1-.2,80.51v-61A19.7,19.7,0,0,1,19.49-.2h61A19.7,19.7,0,0,1,100.2,19.49v61A19.7,19.7,0,0,1,80.51,100.2Zm-6.7-51.32h0a3.61,3.61,0,0,0-3.61-3.61H29.49a3.61,3.61,0,0,0-3.61,3.61h0a3.61,3.61,0,0,0,3.61,3.61H70.2A3.61,3.61,0,0,0,73.81,48.88ZM59.07,33.62H55.15V11A4.18,4.18,0,0,0,54,7.84,4.25,4.25,0,0,0,50.89,6.7a8.18,8.18,0,0,0-4,1.19l-7.65,4.45a3.26,3.26,0,0,0-1.67,3,4,4,0,0,0,1,2.61,2.86,2.86,0,0,0,2.29,1.17,3.24,3.24,0,0,0,1.67-.48l3.83-2.25V33.62H42.48a4.75,4.75,0,0,0-3.16.86,3.2,3.2,0,0,0-1,2.58c0,2.36,1.38,3.54,4.16,3.54H59.07q4.16,0,4.16-3.54a3.2,3.2,0,0,0-1-2.58A4.74,4.74,0,0,0,59.07,33.62Zm-1.7,50H47.76l6.79-6.93a22.5,22.5,0,0,0,4-5.38A12,12,0,0,0,59.71,66a8.76,8.76,0,0,0-1.46-5,9.24,9.24,0,0,0-4.14-3.35A15.36,15.36,0,0,0,47.9,56.5a19.5,19.5,0,0,0-10.57,3.25A3.23,3.23,0,0,0,36.16,61a4.07,4.07,0,0,0-.31,1.72,4.14,4.14,0,0,0,.81,2.56,2.44,2.44,0,0,0,2,1.08,2.76,2.76,0,0,0,.91-.15,5.1,5.1,0,0,0,1-.45l.74-.41,1-.48A23,23,0,0,1,45,63.69a7.77,7.77,0,0,1,2.56-.4,3.74,3.74,0,0,1,2.65.86,3.21,3.21,0,0,1,.93,2.48q0,2.78-3.15,6.08L37.81,83.27A5.27,5.27,0,0,0,36.18,87a3.6,3.6,0,0,0,1,2.61,3.66,3.66,0,0,0,2.72,1H57.37a4.77,4.77,0,0,0,3.13-.87,3.29,3.29,0,0,0,1-2.67,3.19,3.19,0,0,0-1-2.61A4.89,4.89,0,0,0,57.37,83.65Z"/></svg>