<svg id="Layer_1" data-name="Layer 1" xmlns="http://www.w3.org/2000/svg" viewBox="0 0 100 100"><title>l21_3_1</title><path d="M99.93,14.17V85.83A14.17,14.17,0,0,1,85.76,100H63.86A14.19,14.19,0,0,1,49.93,88.45,14.17,14.17,0,0,1,36,100H14.11A14.18,14.18,0,0,1-.07,85.83V14.17A14.18,14.18,0,0,1,14.11,0H36A14.17,14.17,0,0,1,49.93,11.55,14.19,14.19,0,0,1,63.86,0h21.9A14.17,14.17,0,0,1,99.93,14.17ZM37.46,35V16.71a4.89,4.89,0,0,0-4.89-4.89H14.33a4.89,4.89,0,0,0-4.89,4.89V35a4.89,4.89,0,0,0,4.89,4.9H32.57A4.89,4.89,0,0,0,37.46,35Zm51.59,0V16.71a4.9,4.9,0,0,0-4.9-4.89H65.91A4.89,4.89,0,0,0,61,16.71V35a4.89,4.89,0,0,0,4.89,4.9H84.15A4.9,4.9,0,0,0,89.05,35Zm-30,42.59a7.71,7.71,0,0,0,6.6-3.07Q67.94,71.4,68,65.59c0-3.85-.76-6.79-2.29-8.84a7.71,7.71,0,0,0-6.58-3.07,7.7,7.7,0,0,0-6.6,3.07c-1.52,2-2.28,5-2.28,8.84s.76,6.83,2.28,8.88A7.7,7.7,0,0,0,59.08,77.54Zm0-4.59a2.36,2.36,0,0,1-2.28-1.71,16.56,16.56,0,0,1-.69-5.65A16.32,16.32,0,0,1,56.8,60a2.37,2.37,0,0,1,4.55,0,16.11,16.11,0,0,1,.7,5.61,16.26,16.26,0,0,1-.7,5.65A2.36,2.36,0,0,1,59.08,73Zm14.38,4.49a3,3,0,0,0,2.26-.92,3.31,3.31,0,0,0,0-4.56A3,3,0,0,0,73.46,71a3.11,3.11,0,0,0-2.29.92,3.31,3.31,0,0,0,0,4.56A3.11,3.11,0,0,0,73.46,77.44Zm20.53-5H87.36L92,67.64a15.39,15.39,0,0,0,2.76-3.71,8.31,8.31,0,0,0,.81-3.68,6.06,6.06,0,0,0-1-3.45,6.45,6.45,0,0,0-2.85-2.31,10.66,10.66,0,0,0-4.29-.81,13.14,13.14,0,0,0-3.82.59,13.29,13.29,0,0,0-3.48,1.65,2.32,2.32,0,0,0-.81.86,3.22,3.22,0,0,0,.35,3,1.71,1.71,0,0,0,1.39.74,2.06,2.06,0,0,0,.62-.1,4.32,4.32,0,0,0,.68-.31l.51-.29.66-.33a15.33,15.33,0,0,1,1.87-.8,5.24,5.24,0,0,1,1.76-.28A2.58,2.58,0,0,1,89,59a2.23,2.23,0,0,1,.65,1.72q0,1.91-2.18,4.19l-7,7.29a3.65,3.65,0,0,0-1.12,2.57,2.47,2.47,0,0,0,.69,1.8,2.5,2.5,0,0,0,1.89.71H94a3.34,3.34,0,0,0,2.16-.59,2.29,2.29,0,0,0,.71-1.85,2.21,2.21,0,0,0-.71-1.8A3.4,3.4,0,0,0,94,72.42ZM36.58,61.5l-20-7.74a5.64,5.64,0,0,0-1.86-.36,3.62,3.62,0,0,0-2.67,1.05A3.69,3.69,0,0,0,11,57.18a3,3,0,0,0,2,2.94L30.88,67,13.06,73.8A3.55,3.55,0,0,0,11.56,75,3,3,0,0,0,11,76.74a3.69,3.69,0,0,0,1.05,2.73,3.62,3.62,0,0,0,2.67,1,5.28,5.28,0,0,0,1.86-.36l20-7.74a5.65,5.65,0,0,0,2.73-2.1,5.78,5.78,0,0,0,1-3.36,5.73,5.73,0,0,0-1-3.27A5.94,5.94,0,0,0,36.58,61.5Z"/></svg>