<svg id="Layer_1" data-name="Layer 1" xmlns="http://www.w3.org/2000/svg" viewBox="0 0 100 100"><title>l21_5_1</title><path d="M100,14.17V85.83A14.18,14.18,0,0,1,85.83,100H63.92A14.17,14.17,0,0,1,50,88.45,14.17,14.17,0,0,1,36.08,100H14.17A14.18,14.18,0,0,1,0,85.83V14.17A14.18,14.18,0,0,1,14.17,0H36.08A14.17,14.17,0,0,1,50,11.55,14.17,14.17,0,0,1,63.92,0H85.83A14.18,14.18,0,0,1,100,14.17ZM38,35V16.71a4.89,4.89,0,0,0-4.89-4.89H14.85A4.89,4.89,0,0,0,10,16.71V35a4.89,4.89,0,0,0,4.89,4.9H33.09A4.89,4.89,0,0,0,38,35Zm51.58,0V16.71a4.89,4.89,0,0,0-4.89-4.89H66.43a4.89,4.89,0,0,0-4.89,4.89V35a4.89,4.89,0,0,0,4.89,4.9H84.67A4.89,4.89,0,0,0,89.56,35ZM81.27,67.17a7.32,7.32,0,0,0,3.57-2.72,7.49,7.49,0,0,0,1.29-4.35,7.83,7.83,0,0,0-1.38-4.59,8.79,8.79,0,0,0-3.91-3.06A14.94,14.94,0,0,0,75,51.37a18.1,18.1,0,0,0-5.33.81,15.12,15.12,0,0,0-4.57,2.25A3.76,3.76,0,0,0,64,55.65a3.63,3.63,0,0,0-.31,1.57,3.73,3.73,0,0,0,.77,2.37,2.32,2.32,0,0,0,1.89,1,2.87,2.87,0,0,0,1.12-.2,14.94,14.94,0,0,0,1.35-.65l1-.45a22.87,22.87,0,0,1,2.45-1.08,6.77,6.77,0,0,1,2.36-.41,3.84,3.84,0,0,1,2.74.93,3.34,3.34,0,0,1,1,2.58,2.53,2.53,0,0,1-1.12,2.3,6.89,6.89,0,0,1-3.6.72h-2a2.58,2.58,0,0,0-2.12.94,3.71,3.71,0,0,0,0,4.5,2.59,2.59,0,0,0,2.12,1h2.79a6.77,6.77,0,0,1,3.69.76A2.83,2.83,0,0,1,79.2,74a3.12,3.12,0,0,1-1.11,2.7,6.22,6.22,0,0,1-3.62.81,8.06,8.06,0,0,1-2.59-.38A20.27,20.27,0,0,1,69.29,76l-.56-.25-.43-.2c-.57-.3-1-.52-1.34-.65a2.88,2.88,0,0,0-1.13-.21,2.34,2.34,0,0,0-1.89,1A3.69,3.69,0,0,0,63.18,78a3.11,3.11,0,0,0,1.39,2.79,14.58,14.58,0,0,0,4.68,2.28,20.2,20.2,0,0,0,5.63.78,16.77,16.77,0,0,0,6.36-1.1,9.41,9.41,0,0,0,4.21-3.13,7.85,7.85,0,0,0,1.49-4.77A8,8,0,0,0,85.43,70,7.67,7.67,0,0,0,81.27,67.17ZM21.92,80.77a4,4,0,0,0,2-1c.35-.31.67-.66,1-1l1.75-1.69L29.85,74l3.49-3.42,3.25-3.18,3.61-3.54,2-2c.54-.52,1.07-1.07,1.63-1.58a4.34,4.34,0,0,0,1.54-3.95,4.12,4.12,0,0,0-1.94-3A4.18,4.18,0,0,0,41,52.69a4.13,4.13,0,0,0-2.73,1.16c-.72.68-1.42,1.39-2.12,2.09L32.61,59.4l-1.8,1.79-3,2.93-2.65,2.61c-.59.58-1.2,1.15-1.78,1.73l-2.12,2.09a.21.21,0,0,1-.34,0l-.7-.68-1.74-1.69-2.36-2.33c-.53-.52-1.07-1-1.59-1.55a4.21,4.21,0,0,0-2.34-1.19,4.27,4.27,0,0,0-1.59.06,4.24,4.24,0,0,0-2.76,2.07,4.21,4.21,0,0,0-.51,2.54,4.27,4.27,0,0,0,1.32,2.61L11,72.67l3.3,3.25L16.42,78c.65.63,1.28,1.28,1.95,1.88a4.08,4.08,0,0,0,2.72,1C21.37,80.84,21.65,80.82,21.92,80.77Z"/></svg>