<svg id="Layer_1" data-name="Layer 1" xmlns="http://www.w3.org/2000/svg" viewBox="0 0 100 100"><title>l21_3_1</title><path d="M100.27,14.17V85.83A14.18,14.18,0,0,1,86.09,100H64.19A14.17,14.17,0,0,1,50.27,88.45,14.19,14.19,0,0,1,36.34,100H14.44A14.17,14.17,0,0,1,.27,85.83V14.17A14.17,14.17,0,0,1,14.44,0h21.9A14.19,14.19,0,0,1,50.27,11.55,14.17,14.17,0,0,1,64.19,0h21.9A14.18,14.18,0,0,1,100.27,14.17ZM37.8,35V16.71a4.89,4.89,0,0,0-4.9-4.89H14.66a4.89,4.89,0,0,0-4.89,4.89V35a4.89,4.89,0,0,0,4.89,4.9H32.9A4.9,4.9,0,0,0,37.8,35Zm51.58,0V16.71a4.89,4.89,0,0,0-4.9-4.89H66.24a4.89,4.89,0,0,0-4.89,4.89V35a4.89,4.89,0,0,0,4.89,4.9H84.48A4.9,4.9,0,0,0,89.38,35Zm-65.8,36.5a2.61,2.61,0,0,0,1.64-.54,2.42,2.42,0,0,0,.88-1.53,4.19,4.19,0,0,1,1-1.83,21,21,0,0,1,2.27-2.09c1.05-.93,1.91-1.72,2.57-2.38a9,9,0,0,0,1.68-2.39A7,7,0,0,0,33,53.6a8.79,8.79,0,0,0-3.6-2.79,12.89,12.89,0,0,0-5.22-1,17,17,0,0,0-5.2.83A16.1,16.1,0,0,0,14.4,53a4,4,0,0,0-1.11,1.22A3.35,3.35,0,0,0,13,55.74a3.63,3.63,0,0,0,.78,2.36,2.4,2.4,0,0,0,1.92,1,5.46,5.46,0,0,0,2.47-.85l1.08-.54a17.24,17.24,0,0,1,2.27-1.11,5.9,5.9,0,0,1,2.05-.38,3.05,3.05,0,0,1,2,.59,1.91,1.91,0,0,1,.72,1.57,3.24,3.24,0,0,1-.52,1.8,14.27,14.27,0,0,1-1.55,1.94A14.62,14.62,0,0,0,21.91,65a7,7,0,0,0-.81,3.53,3.26,3.26,0,0,0,.65,2.16A2.29,2.29,0,0,0,23.58,71.45Zm.09,10.75a4.17,4.17,0,0,0,3.12-1.26,4.51,4.51,0,0,0,0-6.21,4.46,4.46,0,0,0-6.21,0,4.53,4.53,0,0,0,0,6.21A4.17,4.17,0,0,0,23.67,82.2Zm33.84-8.1L44.14,69l13.37-5.13A2.29,2.29,0,0,0,58.63,63,2.32,2.32,0,0,0,59,61.64a2.79,2.79,0,0,0-.79-2,2.7,2.7,0,0,0-2-.79,4.26,4.26,0,0,0-1.4.27l-15,5.81a4.4,4.4,0,0,0-2,1.64A4.24,4.24,0,0,0,37.08,69a4.3,4.3,0,0,0,.74,2.52,4.23,4.23,0,0,0,2,1.58l15,5.8a4.26,4.26,0,0,0,1.4.27,2.7,2.7,0,0,0,2-.79,2.77,2.77,0,0,0,.79-2A2.21,2.21,0,0,0,58.63,75,2.61,2.61,0,0,0,57.51,74.1Zm25.92,1.26H74.38l6.39-6.52a21.14,21.14,0,0,0,3.76-5.07,11.36,11.36,0,0,0,1.1-5,8.32,8.32,0,0,0-1.37-4.71,8.87,8.87,0,0,0-3.89-3.15,14.57,14.57,0,0,0-5.85-1.1,18.33,18.33,0,0,0-10,3.06A2.94,2.94,0,0,0,63.47,54a3.79,3.79,0,0,0-.29,1.62,3.89,3.89,0,0,0,.76,2.41,2.3,2.3,0,0,0,1.89,1,2.71,2.71,0,0,0,.86-.13,6,6,0,0,0,.92-.43c.34-.2.58-.32.7-.38l.9-.45a21.69,21.69,0,0,1,2.54-1.11,7.43,7.43,0,0,1,2.41-.38,3.52,3.52,0,0,1,2.49.81,3,3,0,0,1,.88,2.34q0,2.61-3,5.72L65,75a4.93,4.93,0,0,0-1.53,3.51A3.36,3.36,0,0,0,64.44,81a3.39,3.39,0,0,0,2.56,1H83.43a4.49,4.49,0,0,0,2.94-.81,3.09,3.09,0,0,0,1-2.52,3,3,0,0,0-1-2.45A4.55,4.55,0,0,0,83.43,75.36Z"/></svg>