<svg id="Layer_1" data-name="Layer 1" xmlns="http://www.w3.org/2000/svg" viewBox="0 0 100 100"><title>l21_3_1</title><path d="M100,14V85.65A14.18,14.18,0,0,1,85.83,99.82H63.92A14.16,14.16,0,0,1,50,88.27,14.16,14.16,0,0,1,36.08,99.82H14.17A14.18,14.18,0,0,1,0,85.65V14A14.18,14.18,0,0,1,14.17-.18H36.08A14.17,14.17,0,0,1,50,11.37,14.17,14.17,0,0,1,63.92-.18H85.83A14.18,14.18,0,0,1,100,14ZM37.44,34.83V16.59a4.89,4.89,0,0,0-4.9-4.89H14.3a4.89,4.89,0,0,0-4.89,4.89V34.83a4.89,4.89,0,0,0,4.89,4.89H32.54A4.89,4.89,0,0,0,37.44,34.83Zm51.58,0V16.59a4.89,4.89,0,0,0-4.89-4.89H65.88A4.89,4.89,0,0,0,61,16.59V34.83a4.89,4.89,0,0,0,4.89,4.89H84.13A4.89,4.89,0,0,0,89,34.83ZM54,72.33h8.27A4,4,0,0,0,65,71.52a2.92,2.92,0,0,0,.9-2.27A2.81,2.81,0,0,0,65,67a4.07,4.07,0,0,0-2.75-.8H54c-2.43,0-3.65,1-3.65,3S51.52,72.33,54,72.33Zm32.74-7.22a7.12,7.12,0,0,0,3.5-2.66,7.35,7.35,0,0,0,1.25-4.24,7.7,7.7,0,0,0-1.34-4.49,8.6,8.6,0,0,0-3.83-3,14.48,14.48,0,0,0-5.74-1.06,17.63,17.63,0,0,0-5.22.79,14.64,14.64,0,0,0-4.46,2.2,3.6,3.6,0,0,0-1.06,1.19,3.49,3.49,0,0,0-.31,1.54,3.6,3.6,0,0,0,.75,2.31,2.29,2.29,0,0,0,1.85.95,2.92,2.92,0,0,0,1.1-.2c.32-.13.76-.35,1.32-.64l.92-.44a25.17,25.17,0,0,1,2.4-1.06,6.75,6.75,0,0,1,2.31-.39,3.8,3.8,0,0,1,2.69.9,3.29,3.29,0,0,1,1,2.53,2.44,2.44,0,0,1-1.1,2.24,6.7,6.7,0,0,1-3.52.71H77.23a2.53,2.53,0,0,0-2.07.92,3.6,3.6,0,0,0,0,4.4,2.51,2.51,0,0,0,2.07.93H80a6.6,6.6,0,0,1,3.61.74,2.75,2.75,0,0,1,1.1,2.47,3.06,3.06,0,0,1-1.08,2.64,6.13,6.13,0,0,1-3.54.79,8.26,8.26,0,0,1-2.53-.37A20.29,20.29,0,0,1,75,73.74l-.55-.24L74,73.3a14.55,14.55,0,0,0-1.32-.64,3,3,0,0,0-1.1-.2,2.28,2.28,0,0,0-1.85,1A3.6,3.6,0,0,0,69,75.72a3.44,3.44,0,0,0,.31,1.52,3.39,3.39,0,0,0,1,1.2,14.27,14.27,0,0,0,4.58,2.23,19.65,19.65,0,0,0,5.5.77,16.43,16.43,0,0,0,6.22-1.08,9.27,9.27,0,0,0,4.12-3.06,7.64,7.64,0,0,0,1.45-4.66,7.83,7.83,0,0,0-1.47-4.8A7.52,7.52,0,0,0,86.69,65.11Zm-52.3-3.77-20-7.73a5.39,5.39,0,0,0-1.86-.36,3.62,3.62,0,0,0-2.67,1A3.69,3.69,0,0,0,8.83,57a3.08,3.08,0,0,0,.54,1.8A3,3,0,0,0,10.87,60l17.82,6.85L10.87,73.65a3.55,3.55,0,0,0-1.5,1.17,3,3,0,0,0-.54,1.77,3.69,3.69,0,0,0,1.05,2.73,3.61,3.61,0,0,0,2.67,1A5.26,5.26,0,0,0,14.41,80l20-7.74a5.65,5.65,0,0,0,2.73-2.1,5.78,5.78,0,0,0,1-3.36,5.73,5.73,0,0,0-1-3.27A6,6,0,0,0,34.39,61.34Z"/></svg>