<svg id="Layer_1" data-name="Layer 1" xmlns="http://www.w3.org/2000/svg" viewBox="0 0 100 100"><title>l21_4</title><path d="M100.25,14.17V85.83A14.17,14.17,0,0,1,86.08,100H64.17A14.18,14.18,0,0,1,50.25,88.45,14.17,14.17,0,0,1,36.33,100H14.43A14.18,14.18,0,0,1,.25,85.83V14.17A14.18,14.18,0,0,1,14.43,0h21.9A14.17,14.17,0,0,1,50.25,11.55,14.18,14.18,0,0,1,64.17,0H86.08A14.17,14.17,0,0,1,100.25,14.17ZM38.24,35V16.71a4.89,4.89,0,0,0-4.9-4.89H15.1a4.89,4.89,0,0,0-4.89,4.89V35a4.89,4.89,0,0,0,4.89,4.9H33.34A4.9,4.9,0,0,0,38.24,35Zm51.58,0V16.71a4.89,4.89,0,0,0-4.9-4.89H66.68a4.89,4.89,0,0,0-4.89,4.89V35a4.89,4.89,0,0,0,4.89,4.9H84.92A4.9,4.9,0,0,0,89.82,35ZM30.52,69.3l7-6.95a3.82,3.82,0,0,0,1.17-2.8,3.39,3.39,0,0,0-1.17-2.66,3.62,3.62,0,0,0-2.73-1.17,3.74,3.74,0,0,0-2.73,1.17l-7,7-7-7a3.8,3.8,0,0,0-2.73-1.24,3.43,3.43,0,0,0-2.67,1.17,3.83,3.83,0,0,0-1.17,2.8,4,4,0,0,0,1.11,2.73l7,6.95-7,7a3.77,3.77,0,0,0,0,5.46,4,4,0,0,0,2.73,1.11A3.71,3.71,0,0,0,18,81.78l7-7,7,7a3.77,3.77,0,0,0,5.46,0,3.67,3.67,0,0,0,1.1-2.73,3.58,3.58,0,0,0-1.1-2.73Zm49.8-1.8a6.43,6.43,0,0,0,3.18-2.42,6.63,6.63,0,0,0,1.14-3.86,7,7,0,0,0-1.22-4.08,7.92,7.92,0,0,0-3.48-2.72,13.28,13.28,0,0,0-5.22-1,16,16,0,0,0-4.74.72,13.39,13.39,0,0,0-4.06,2,3.37,3.37,0,0,0-1,1.08,3.09,3.09,0,0,0-.28,1.4,3.29,3.29,0,0,0,.68,2.1,2,2,0,0,0,1.68.86,2.62,2.62,0,0,0,1-.18c.29-.12.69-.31,1.2-.58l.84-.4a21,21,0,0,1,2.18-1,6,6,0,0,1,2.1-.36A3.48,3.48,0,0,1,76.8,60a3,3,0,0,1,.88,2.3,2.22,2.22,0,0,1-1,2,6.12,6.12,0,0,1-3.2.64H71.72a2.28,2.28,0,0,0-1.88.84,3.28,3.28,0,0,0,0,4,2.28,2.28,0,0,0,1.88.84H74.2a6.05,6.05,0,0,1,3.28.68,2.51,2.51,0,0,1,1,2.24,2.79,2.79,0,0,1-1,2.4,5.55,5.55,0,0,1-3.22.72,7.17,7.17,0,0,1-2.3-.34,16.4,16.4,0,0,1-2.3-1l-.5-.22a3.43,3.43,0,0,1-.38-.18c-.51-.26-.91-.46-1.2-.58a2.62,2.62,0,0,0-1-.18,2.07,2.07,0,0,0-1.68.86,3.33,3.33,0,0,0-.68,2.1,3.06,3.06,0,0,0,.28,1.38,2.94,2.94,0,0,0,1,1.1,12.7,12.7,0,0,0,4.16,2,17.66,17.66,0,0,0,5,.7,14.91,14.91,0,0,0,5.66-1A8.41,8.41,0,0,0,84,78.58a7,7,0,0,0,1.32-4.24A7.13,7.13,0,0,0,84,70,6.84,6.84,0,0,0,80.32,67.5Z"/></svg>