<svg id="Layer_1" data-name="Layer 1" xmlns="http://www.w3.org/2000/svg" viewBox="0 0 100 100"><title>l21_5_1</title><path d="M100,14.17V85.83A14.18,14.18,0,0,1,85.83,100H63.92A14.17,14.17,0,0,1,50,88.45,14.17,14.17,0,0,1,36.08,100H14.17A14.18,14.18,0,0,1,0,85.83V14.17A14.18,14.18,0,0,1,14.17,0H36.08A14.17,14.17,0,0,1,50,11.55,14.17,14.17,0,0,1,63.92,0H85.83A14.18,14.18,0,0,1,100,14.17ZM38,35V16.71a4.89,4.89,0,0,0-4.89-4.89H14.85A4.89,4.89,0,0,0,10,16.71V35a4.89,4.89,0,0,0,4.89,4.9H33.09A4.89,4.89,0,0,0,38,35Zm51.58,0V16.71a4.89,4.89,0,0,0-4.89-4.89H66.43a4.89,4.89,0,0,0-4.89,4.89V35a4.89,4.89,0,0,0,4.89,4.9H84.67A4.89,4.89,0,0,0,89.56,35ZM29.06,67a6.74,6.74,0,0,0,3.53-2.65,7.79,7.79,0,0,0,1.29-4.5,7.45,7.45,0,0,0-3.13-6.32q-3.13-2.33-8.53-2.32c-3.57,0-6.41.77-8.5,2.32a7.4,7.4,0,0,0-3.16,6.32,7.61,7.61,0,0,0,1.27,4.39A7.33,7.33,0,0,0,15.43,67a7.58,7.58,0,0,0-4.24,2.68,8,8,0,0,0-1.48,4.93,7.77,7.77,0,0,0,3.35,6.68q3.36,2.42,9.16,2.41t9.16-2.41a7.77,7.77,0,0,0,3.35-6.68A7.4,7.4,0,0,0,29.06,67ZM22.22,77.47q-4.91,0-4.91-3.51t4.91-3.51q4.91,0,4.91,3.51T22.22,77.47Zm0-20a4.81,4.81,0,0,1,3,.79,3.06,3.06,0,0,1,1,2.54,3.14,3.14,0,0,1-1,2.57,4.68,4.68,0,0,1-3,.81,4.66,4.66,0,0,1-3-.81,3.13,3.13,0,0,1-1-2.57,3.06,3.06,0,0,1,1-2.54A4.79,4.79,0,0,1,22.22,57.49ZM53,70.41l4.86-4.82a2.63,2.63,0,0,0,.81-1.93,2.37,2.37,0,0,0-.81-1.85A2.5,2.5,0,0,0,56,61a2.59,2.59,0,0,0-1.89.81l-4.86,4.86-4.86-4.86A2.62,2.62,0,0,0,42.47,61a2.33,2.33,0,0,0-1.84.81,2.64,2.64,0,0,0-.82,1.93,2.78,2.78,0,0,0,.77,1.89l4.86,4.82-4.86,4.86a2.61,2.61,0,0,0,0,3.78,2.77,2.77,0,0,0,1.89.76,2.56,2.56,0,0,0,1.89-.76l4.86-4.86,4.86,4.86a2.66,2.66,0,0,0,4.55-1.89,2.48,2.48,0,0,0-.77-1.89Zm25.92-7.92a8.71,8.71,0,0,0-3.8.83,7.15,7.15,0,0,0-2.77,2.27A11.92,11.92,0,0,1,74,59.72a4.31,4.31,0,0,1,3.71-2.09,6,6,0,0,1,2.07.36c.66.24,1.48.6,2.47,1.08l1,.49q.85.45,1.35.66a3.08,3.08,0,0,0,1.13.2,2.36,2.36,0,0,0,1.91-1,3.58,3.58,0,0,0,.79-2.36,3.27,3.27,0,0,0-.34-1.58A3.82,3.82,0,0,0,87,54.3a14.39,14.39,0,0,0-4.52-2.25,17.54,17.54,0,0,0-5.16-.81,12.15,12.15,0,0,0-7,2,13.11,13.11,0,0,0-4.64,5.79,21.85,21.85,0,0,0-1.64,8.79q0,7.65,3.46,11.79t9.81,4.14a11.62,11.62,0,0,0,5.72-1.39A10.09,10.09,0,0,0,87,78.49a12.09,12.09,0,0,0,.18-11,9.26,9.26,0,0,0-3.4-3.69A9.05,9.05,0,0,0,78.92,62.49ZM76.85,77.43a3.61,3.61,0,0,1-2.79-1.19,5,5,0,0,1,0-6.19,3.59,3.59,0,0,1,2.81-1.17A3.53,3.53,0,0,1,79.66,70a5.27,5.27,0,0,1,0,6.23A3.54,3.54,0,0,1,76.85,77.43Z"/></svg>