<svg id="Layer_1" data-name="Layer 1" xmlns="http://www.w3.org/2000/svg" viewBox="0 0 100 100"><title>l21_4</title><path d="M99.73,14.17V85.83A14.18,14.18,0,0,1,85.55,100H63.65A14.17,14.17,0,0,1,49.73,88.45,14.17,14.17,0,0,1,35.81,100H13.9A14.17,14.17,0,0,1-.27,85.83V14.17A14.17,14.17,0,0,1,13.9,0H35.81A14.17,14.17,0,0,1,49.73,11.55,14.17,14.17,0,0,1,63.65,0h21.9A14.18,14.18,0,0,1,99.73,14.17ZM37.71,35V16.71a4.89,4.89,0,0,0-4.89-4.89H14.58a4.9,4.9,0,0,0-4.9,4.89V35a4.9,4.9,0,0,0,4.9,4.9H32.82A4.89,4.89,0,0,0,37.71,35Zm51.58,0V16.71a4.89,4.89,0,0,0-4.89-4.89H66.16a4.89,4.89,0,0,0-4.89,4.89V35a4.89,4.89,0,0,0,4.89,4.9H84.4A4.89,4.89,0,0,0,89.29,35ZM30,69.3l7-6.95a3.85,3.85,0,0,0,1.17-2.8A3.43,3.43,0,0,0,37,56.89a3.62,3.62,0,0,0-2.74-1.17,3.74,3.74,0,0,0-2.73,1.17l-7,7-7-7a3.84,3.84,0,0,0-2.74-1.24,3.39,3.39,0,0,0-2.66,1.17A3.83,3.83,0,0,0,11,59.62a4,4,0,0,0,1.1,2.73l7,6.95-7,7a3.77,3.77,0,0,0,0,5.46,4,4,0,0,0,2.73,1.11,3.72,3.72,0,0,0,2.74-1.11l7-7,7,7A3.74,3.74,0,0,0,34.28,83,3.78,3.78,0,0,0,37,81.78a3.71,3.71,0,0,0,1.1-2.73A3.62,3.62,0,0,0,37,76.32ZM72.71,53.46a10.41,10.41,0,0,0-5.08,1.24,9,9,0,0,0-3.5,3.46A10.69,10.69,0,0,0,64,67.92a8.26,8.26,0,0,0,3,3.28,8.05,8.05,0,0,0,4.32,1.18,7.58,7.58,0,0,0,3.38-.74,6.21,6.21,0,0,0,2.46-2,10.63,10.63,0,0,1-1.5,5.22,3.83,3.83,0,0,1-3.3,1.86,5.2,5.2,0,0,1-1.84-.32,23.23,23.23,0,0,1-2.2-1L67.43,75c-.5-.26-.9-.46-1.2-.58a2.59,2.59,0,0,0-1-.18,2.14,2.14,0,0,0-1.7.86,3.28,3.28,0,0,0-.7,2.1,2.93,2.93,0,0,0,.3,1.4,3.37,3.37,0,0,0,1,1.08,12.62,12.62,0,0,0,4,2,15.54,15.54,0,0,0,4.58.72,10.81,10.81,0,0,0,6.22-1.8,11.56,11.56,0,0,0,4.12-5.14,19.25,19.25,0,0,0,1.46-7.82q0-6.8-3.08-10.48T72.71,53.46Zm.44,13.24a3.17,3.17,0,0,1-2.5-1,4.67,4.67,0,0,1,0-5.54,3.16,3.16,0,0,1,2.48-1,3.21,3.21,0,0,1,2.48,1.06,4.46,4.46,0,0,1,0,5.5A3.17,3.17,0,0,1,73.15,66.7Z"/></svg>