<svg id="Layer_1" data-name="Layer 1" xmlns="http://www.w3.org/2000/svg" viewBox="0 0 100 100"><title>l21_4</title><path d="M80.51,100.19h-61A19.69,19.69,0,0,1-.2,80.5v-61A19.69,19.69,0,0,1,19.49-.2h61A19.69,19.69,0,0,1,100.2,19.49v61A19.69,19.69,0,0,1,80.51,100.19Zm-6.7-51.32h0a3.61,3.61,0,0,0-3.61-3.61H29.49a3.61,3.61,0,0,0-3.61,3.61h0a3.61,3.61,0,0,0,3.61,3.61H70.2A3.61,3.61,0,0,0,73.81,48.87ZM55,23.24a7.75,7.75,0,0,0,3.8-2.9,7.93,7.93,0,0,0,1.37-4.61,8.37,8.37,0,0,0-1.46-4.88A9.33,9.33,0,0,0,54.55,7.6a15.75,15.75,0,0,0-6.24-1.15,19.35,19.35,0,0,0-5.67.86A16,16,0,0,0,37.79,9.7,4.09,4.09,0,0,0,36.64,11a3.81,3.81,0,0,0-.33,1.68,3.94,3.94,0,0,0,.81,2.51,2.48,2.48,0,0,0,2,1,3.25,3.25,0,0,0,1.2-.22c.35-.14.82-.37,1.43-.69l1-.48a26.68,26.68,0,0,1,2.61-1.15,7.39,7.39,0,0,1,2.51-.43,4.16,4.16,0,0,1,2.92,1A3.59,3.59,0,0,1,51.85,17a2.68,2.68,0,0,1-1.2,2.44,7.3,7.3,0,0,1-3.82.76H44.72a2.73,2.73,0,0,0-2.24,1,3.89,3.89,0,0,0,0,4.78,2.72,2.72,0,0,0,2.24,1h3a7.2,7.2,0,0,1,3.92.82,3,3,0,0,1,1.19,2.67,3.32,3.32,0,0,1-1.17,2.87,6.58,6.58,0,0,1-3.85.86,8.63,8.63,0,0,1-2.74-.4,20.81,20.81,0,0,1-2.75-1.17l-.6-.27-.46-.21c-.6-.32-1.08-.55-1.43-.7a3.21,3.21,0,0,0-1.2-.21,2.45,2.45,0,0,0-2,1,3.87,3.87,0,0,0-.82,2.51,3.35,3.35,0,0,0,1.49,3,15.45,15.45,0,0,0,5,2.42,21.49,21.49,0,0,0,6,.83A18,18,0,0,0,55,39.8a10.05,10.05,0,0,0,4.47-3.32A8.36,8.36,0,0,0,61,31.41a8.52,8.52,0,0,0-1.6-5.21A8.12,8.12,0,0,0,55,23.24Zm3.78,55H57.72V61a4.09,4.09,0,0,0-1.29-3.21,4.52,4.52,0,0,0-3.1-1.15,4.7,4.7,0,0,0-2.13.51,4.35,4.35,0,0,0-1.7,1.46L35.83,78.1a5.31,5.31,0,0,0-1.06,3.16,3.66,3.66,0,0,0,1,2.63,3.59,3.59,0,0,0,2.72,1H49.17v1.63a4.27,4.27,0,0,0,1.17,3.25,4.33,4.33,0,0,0,3.08,1.1,4.43,4.43,0,0,0,3.11-1.1,4.2,4.2,0,0,0,1.19-3.25V84.94h1.06q4.15,0,4.16-3.39T58.78,78.25Zm-15.35,0L49.17,70v8.28Z"/></svg>