<svg id="Layer_1" data-name="Layer 1" xmlns="http://www.w3.org/2000/svg" viewBox="0 0 100 100"><title>l21_4</title><path d="M100.45,13.6V85.25A14.17,14.17,0,0,1,86.27,99.42H64.37A14.16,14.16,0,0,1,50.45,87.87,14.17,14.17,0,0,1,36.53,99.42H14.62A14.16,14.16,0,0,1,.45,85.25V13.6A14.17,14.17,0,0,1,14.62-.58H36.53A14.18,14.18,0,0,1,50.45,11,14.17,14.17,0,0,1,64.37-.58h21.9A14.18,14.18,0,0,1,100.45,13.6Zm-62,20.78V16.13a4.89,4.89,0,0,0-4.89-4.89H15.3a4.89,4.89,0,0,0-4.9,4.89V34.38a4.89,4.89,0,0,0,4.9,4.89H33.54A4.89,4.89,0,0,0,38.43,34.38Zm51.58,0V16.13a4.89,4.89,0,0,0-4.89-4.89H66.88A4.9,4.9,0,0,0,62,16.13V34.38a4.9,4.9,0,0,0,4.9,4.89H85.12A4.89,4.89,0,0,0,90,34.38ZM30.52,69.56l7-7a3.82,3.82,0,0,0,1.17-2.8,3.39,3.39,0,0,0-1.17-2.66A3.62,3.62,0,0,0,34.81,56a3.74,3.74,0,0,0-2.73,1.17l-7,7-7-7a3.8,3.8,0,0,0-2.73-1.24,3.43,3.43,0,0,0-2.67,1.17,3.82,3.82,0,0,0-1.16,2.8,4,4,0,0,0,1.1,2.73l7,7-7,7a3.77,3.77,0,0,0,0,5.46,4,4,0,0,0,2.73,1.11A3.71,3.71,0,0,0,18,82l7-7,7,7a3.77,3.77,0,0,0,5.46,0,3.67,3.67,0,0,0,1.1-2.73,3.58,3.58,0,0,0-1.1-2.73ZM70.7,73.44H67.42V54.49a3.34,3.34,0,0,0-3.56-3.57,6.82,6.82,0,0,0-3.32,1l-6.4,3.72a2.73,2.73,0,0,0-1.4,2.48,3.38,3.38,0,0,0,.8,2.18,2.38,2.38,0,0,0,1.92,1,2.69,2.69,0,0,0,1.4-.4L60.06,59V73.44H56.82a4,4,0,0,0-2.64.72,2.69,2.69,0,0,0-.84,2.16c0,2,1.16,3,3.48,3H70.7c2.32,0,3.48-1,3.48-3a2.69,2.69,0,0,0-.84-2.16A4,4,0,0,0,70.7,73.44Zm23,0h-8l5.68-5.8a18.59,18.59,0,0,0,3.34-4.5,10.1,10.1,0,0,0,1-4.46A7.38,7.38,0,0,0,94.4,54.5a7.87,7.87,0,0,0-3.46-2.8,12.93,12.93,0,0,0-5.2-1,16.28,16.28,0,0,0-8.84,2.72,2.6,2.6,0,0,0-1,1.05,3.84,3.84,0,0,0,.42,3.57A2,2,0,0,0,78,59a2.37,2.37,0,0,0,.76-.12,4.42,4.42,0,0,0,.82-.38l.62-.34.8-.4a21.23,21.23,0,0,1,2.26-1,6.62,6.62,0,0,1,2.14-.34,3.15,3.15,0,0,1,2.22.72,2.7,2.7,0,0,1,.78,2.08q0,2.32-2.64,5.08L77.3,73.12a4.39,4.39,0,0,0-1.36,3.12,2.92,2.92,0,0,0,3.12,3h14.6a4,4,0,0,0,2.62-.72,2.76,2.76,0,0,0,.86-2.24,2.67,2.67,0,0,0-.86-2.18A4.14,4.14,0,0,0,93.66,73.44Z"/></svg>