<svg id="Layer_1" data-name="Layer 1" xmlns="http://www.w3.org/2000/svg" viewBox="0 0 100 100"><title>l21_5_1</title><path d="M100.07,13.9V85.56A14.18,14.18,0,0,1,85.9,99.73H64A14.17,14.17,0,0,1,50.07,88.18,14.17,14.17,0,0,1,36.15,99.73H14.24A14.18,14.18,0,0,1,.07,85.56V13.9A14.18,14.18,0,0,1,14.24-.27H36.15A14.17,14.17,0,0,1,50.07,11.28,14.17,14.17,0,0,1,64-.27H85.9A14.18,14.18,0,0,1,100.07,13.9Zm-62,20.78V16.44a4.89,4.89,0,0,0-4.89-4.89H14.92A4.89,4.89,0,0,0,10,16.44V34.68a4.89,4.89,0,0,0,4.89,4.9H33.16A4.89,4.89,0,0,0,38.05,34.68Zm51.58,0V16.44a4.89,4.89,0,0,0-4.89-4.89H66.5a4.89,4.89,0,0,0-4.89,4.89V34.68a4.89,4.89,0,0,0,4.89,4.9H84.74A4.89,4.89,0,0,0,89.63,34.68ZM32.08,71.46h-1V55.22a3.84,3.84,0,0,0-1.22-3A4.24,4.24,0,0,0,27,51.12a4.63,4.63,0,0,0-2,.47A4.22,4.22,0,0,0,23.35,53L10.48,71.33a5,5,0,0,0-1,3,3.43,3.43,0,0,0,.94,2.47,3.39,3.39,0,0,0,2.57,1H23v1.53a4,4,0,0,0,1.1,3.06,4.1,4.1,0,0,0,2.91,1,4.14,4.14,0,0,0,2.92-1,4,4,0,0,0,1.13-3.06V77.76h1q3.91,0,3.91-3.19T32.08,71.46Zm-14.45,0L23,63.68v7.78Zm23.72,1.4H58a2.55,2.55,0,0,0,1.89-.79,2.64,2.64,0,0,0,.76-1.91A2.61,2.61,0,0,0,58,67.5H41.35a2.51,2.51,0,0,0-1.89.79,2.63,2.63,0,0,0-.77,1.91,2.63,2.63,0,0,0,2.66,2.66Zm8.1-8.46a2.73,2.73,0,0,0,2-.86,2.85,2.85,0,0,0,.84-2.07,2.78,2.78,0,0,0-.84-2,2.87,2.87,0,0,0-4.07,0,2.84,2.84,0,0,0-.81,2,2.9,2.9,0,0,0,.81,2.07A2.69,2.69,0,0,0,49.45,64.4Zm0,17.37a2.73,2.73,0,0,0,2-.86,2.78,2.78,0,0,0,.84-2,2.85,2.85,0,0,0-.84-2.07,2.73,2.73,0,0,0-2-.86,2.69,2.69,0,0,0-2,.86,2.9,2.9,0,0,0-.81,2.07,2.8,2.8,0,0,0,.81,2A2.71,2.71,0,0,0,49.45,81.77Zm35.32-5.22h-9L82.11,70A21,21,0,0,0,85.87,65a11.3,11.3,0,0,0,1.1-5,8.19,8.19,0,0,0-1.37-4.7,8.68,8.68,0,0,0-3.89-3.15A14.4,14.4,0,0,0,75.86,51a18.33,18.33,0,0,0-10,3.06,3,3,0,0,0-1.1,1.17,4,4,0,0,0-.29,1.62,3.84,3.84,0,0,0,.76,2.4,2.29,2.29,0,0,0,1.9,1,2.7,2.7,0,0,0,.85-.14,4.89,4.89,0,0,0,.92-.43l.7-.38.9-.45a21.22,21.22,0,0,1,2.54-1.1,7.21,7.21,0,0,1,2.41-.38,3.56,3.56,0,0,1,2.5.81,3,3,0,0,1,.87,2.34c0,1.74-1,3.64-3,5.71l-9.54,10a4.93,4.93,0,0,0-1.53,3.51,3.37,3.37,0,0,0,1,2.45,3.44,3.44,0,0,0,2.57,1H84.77a4.54,4.54,0,0,0,3-.81,3.12,3.12,0,0,0,1-2.52,3,3,0,0,0-1-2.46A4.66,4.66,0,0,0,84.77,76.55Z"/></svg>