<svg id="Layer_1" data-name="Layer 1" xmlns="http://www.w3.org/2000/svg" viewBox="0 0 100 100"><title>l21_4</title><path d="M99.72,14V85.64A14.17,14.17,0,0,1,85.55,99.81H63.64A14.16,14.16,0,0,1,49.72,88.27,14.16,14.16,0,0,1,35.8,99.81H13.89A14.17,14.17,0,0,1-.28,85.64V14A14.18,14.18,0,0,1,13.89-.19H35.8A14.17,14.17,0,0,1,49.72,11.36,14.17,14.17,0,0,1,63.64-.19H85.55A14.18,14.18,0,0,1,99.72,14Zm-62,20.78V16.53a4.89,4.89,0,0,0-4.89-4.9H14.57a4.89,4.89,0,0,0-4.89,4.9V34.77a4.89,4.89,0,0,0,4.89,4.89H32.81A4.89,4.89,0,0,0,37.7,34.77Zm51.58,0V16.53a4.89,4.89,0,0,0-4.89-4.9H66.15a4.89,4.89,0,0,0-4.89,4.9V34.77a4.89,4.89,0,0,0,4.89,4.89H84.39A4.89,4.89,0,0,0,89.28,34.77ZM13.42,73h24a3.62,3.62,0,0,0,2.73-1.13,3.82,3.82,0,0,0,1.11-2.77,3.77,3.77,0,0,0-3.84-3.83h-24a3.66,3.66,0,0,0-2.73,1.14,3.84,3.84,0,0,0-1.1,2.76,3.74,3.74,0,0,0,1.1,2.73A3.7,3.7,0,0,0,13.42,73Zm11.7-12.22a4,4,0,0,0,3-1.23,4.13,4.13,0,0,0,1.2-3,4.07,4.07,0,0,0-1.2-2.93,4,4,0,0,0-3-1.23,3.91,3.91,0,0,0-2.92,1.2,4.08,4.08,0,0,0-1.17,3,4.18,4.18,0,0,0,1.17,3A3.86,3.86,0,0,0,25.12,60.74Zm0,25.09a4,4,0,0,0,3-1.23,4.06,4.06,0,0,0,1.2-2.93,4.14,4.14,0,0,0-1.2-3,4,4,0,0,0-3-1.23,3.86,3.86,0,0,0-2.92,1.23,4.2,4.2,0,0,0-1.17,3,4.08,4.08,0,0,0,1.17,3A3.91,3.91,0,0,0,25.12,85.83Zm45.6-9.89H67.44V57a3.34,3.34,0,0,0-3.56-3.56,6.82,6.82,0,0,0-3.32,1l-6.4,3.72a2.73,2.73,0,0,0-1.4,2.48,3.38,3.38,0,0,0,.8,2.18,2.38,2.38,0,0,0,1.92,1,2.69,2.69,0,0,0,1.4-.4l3.2-1.88V75.94H56.84a4,4,0,0,0-2.64.72,2.69,2.69,0,0,0-.84,2.16c0,2,1.16,3,3.48,3H70.72c2.32,0,3.48-1,3.48-3a2.69,2.69,0,0,0-.84-2.16A4,4,0,0,0,70.72,75.94ZM88.64,63.22a7.75,7.75,0,0,0-3.38.74,6.39,6.39,0,0,0-2.46,2,10.63,10.63,0,0,1,1.5-5.22,3.85,3.85,0,0,1,3.3-1.86,5.44,5.44,0,0,1,1.84.32c.59.22,1.32.54,2.2,1l.88.44c.51.27.91.46,1.2.58a2.62,2.62,0,0,0,1,.18,2.12,2.12,0,0,0,1.7-.85,3.23,3.23,0,0,0,.7-2.11,2.89,2.89,0,0,0-.3-1.39,3.5,3.5,0,0,0-1-1.09,12.83,12.83,0,0,0-4-2,15.54,15.54,0,0,0-4.58-.72A10.76,10.76,0,0,0,81,55a11.53,11.53,0,0,0-4.12,5.13A19.48,19.48,0,0,0,75.44,68q0,6.81,3.08,10.48t8.72,3.68a10.28,10.28,0,0,0,5.08-1.24,8.89,8.89,0,0,0,3.5-3.46,10,10,0,0,0,1.26-5A10.1,10.1,0,0,0,96,67.68a8.33,8.33,0,0,0-3-3.28A8.14,8.14,0,0,0,88.64,63.22ZM86.8,76.5a3.19,3.19,0,0,1-2.48-1.06,3.91,3.91,0,0,1-1-2.74,4,4,0,0,1,.94-2.76,3.22,3.22,0,0,1,2.5-1,3.16,3.16,0,0,1,2.5,1,4.06,4.06,0,0,1,.9,2.78,4,4,0,0,1-.92,2.76A3.13,3.13,0,0,1,86.8,76.5Z"/></svg>