<svg id="Layer_1" data-name="Layer 1" xmlns="http://www.w3.org/2000/svg" viewBox="0 0 100 100"><title>l21_2_1</title><path d="M100.33,14.17V85.83A14.18,14.18,0,0,1,86.15,100H64.25A14.17,14.17,0,0,1,50.33,88.45,14.19,14.19,0,0,1,36.4,100H14.5A14.17,14.17,0,0,1,.33,85.83V14.17A14.17,14.17,0,0,1,14.5,0H36.4A14.19,14.19,0,0,1,50.33,11.55,14.17,14.17,0,0,1,64.25,0h21.9A14.18,14.18,0,0,1,100.33,14.17ZM38.31,35V16.71a4.89,4.89,0,0,0-4.89-4.89H15.18a4.89,4.89,0,0,0-4.9,4.89V35a4.9,4.9,0,0,0,4.9,4.9H33.42A4.89,4.89,0,0,0,38.31,35Zm51.58,0V16.71A4.89,4.89,0,0,0,85,11.82H66.76a4.89,4.89,0,0,0-4.9,4.89V35a4.9,4.9,0,0,0,4.9,4.9H85A4.89,4.89,0,0,0,89.89,35ZM34.36,66a7.35,7.35,0,0,0,3.58-2.72,7.55,7.55,0,0,0,1.28-4.35,7.89,7.89,0,0,0-1.37-4.59,8.82,8.82,0,0,0-3.92-3.06,14.88,14.88,0,0,0-5.87-1.08,18,18,0,0,0-5.33.81,14.89,14.89,0,0,0-4.57,2.25,3.64,3.64,0,0,0-1.08,1.22A3.49,3.49,0,0,0,16.77,56a3.72,3.72,0,0,0,.76,2.37,2.33,2.33,0,0,0,1.89,1,2.88,2.88,0,0,0,1.13-.2,14.94,14.94,0,0,0,1.35-.65l.94-.45A24.77,24.77,0,0,1,25.29,57a6.86,6.86,0,0,1,2.37-.41,3.84,3.84,0,0,1,2.74.93,3.34,3.34,0,0,1,1,2.58,2.53,2.53,0,0,1-1.12,2.3,6.89,6.89,0,0,1-3.6.72h-2a2.58,2.58,0,0,0-2.12.94,3.71,3.71,0,0,0,0,4.5,2.59,2.59,0,0,0,2.12,1h2.79a6.77,6.77,0,0,1,3.69.76,2.82,2.82,0,0,1,1.12,2.52,3.14,3.14,0,0,1-1.1,2.7,6.25,6.25,0,0,1-3.62.81A8,8,0,0,1,25,75.89a19.14,19.14,0,0,1-2.59-1.1l-.56-.25-.43-.2a14.94,14.94,0,0,0-1.35-.65,2.83,2.83,0,0,0-1.12-.21,2.34,2.34,0,0,0-1.89,1,3.7,3.7,0,0,0-.77,2.36,3.15,3.15,0,0,0,1.4,2.79,14.58,14.58,0,0,0,4.68,2.28,20.13,20.13,0,0,0,5.62.78,16.83,16.83,0,0,0,6.37-1.1,9.47,9.47,0,0,0,4.21-3.13A7.84,7.84,0,0,0,40,73.66a7.94,7.94,0,0,0-1.51-4.9A7.63,7.63,0,0,0,34.36,66ZM47.82,83.74,58,51.66a5,5,0,0,0,.18-1,2.62,2.62,0,0,0-1-2.12A3.34,3.34,0,0,0,55,47.74a3,3,0,0,0-1.74.54,3.07,3.07,0,0,0-1.14,1.62L41.92,82a3,3,0,0,0-.18,1,2.61,2.61,0,0,0,.95,2.07,3.27,3.27,0,0,0,2.2.81,3,3,0,0,0,2.93-2.16ZM70.23,50.17a11.6,11.6,0,0,0-5.72,1.4,10.09,10.09,0,0,0-3.94,3.89,12.09,12.09,0,0,0-.18,11,9.26,9.26,0,0,0,3.4,3.69,9.05,9.05,0,0,0,4.86,1.33,8.71,8.71,0,0,0,3.8-.83,7.17,7.17,0,0,0,2.77-2.28,12,12,0,0,1-1.69,5.88,4.31,4.31,0,0,1-3.71,2.09A6,6,0,0,1,67.75,76c-.66-.24-1.48-.6-2.47-1.08l-1-.5c-.57-.3-1-.51-1.35-.65a3.08,3.08,0,0,0-1.13-.2,2.36,2.36,0,0,0-1.91,1,3.58,3.58,0,0,0-.79,2.36,3.23,3.23,0,0,0,.34,1.57,3.84,3.84,0,0,0,1.1,1.22,14.39,14.39,0,0,0,4.52,2.25,17.54,17.54,0,0,0,5.16.81,12.15,12.15,0,0,0,7-2,13.08,13.08,0,0,0,4.64-5.78,21.9,21.9,0,0,0,1.64-8.8q0-7.65-3.46-11.79T70.23,50.17Zm.49,14.9a3.53,3.53,0,0,1-2.81-1.15,5.27,5.27,0,0,1,0-6.23,3.54,3.54,0,0,1,2.79-1.17,3.61,3.61,0,0,1,2.79,1.19,5,5,0,0,1,0,6.19A3.59,3.59,0,0,1,70.72,65.07Z"/></svg>