<svg id="Layer_1" data-name="Layer 1" xmlns="http://www.w3.org/2000/svg" viewBox="0 0 100 100"><title>l21_4</title><path d="M100.5,14.86V86.51a14.17,14.17,0,0,1-14.17,14.18H64.42A14.17,14.17,0,0,1,50.5,89.14a14.17,14.17,0,0,1-13.92,11.55H14.68A14.18,14.18,0,0,1,.5,86.51V14.86A14.17,14.17,0,0,1,14.68.69h21.9A14.16,14.16,0,0,1,50.5,12.23,14.16,14.16,0,0,1,64.42.69H86.33A14.16,14.16,0,0,1,100.5,14.86Zm-62,20.78V17.4a4.89,4.89,0,0,0-4.89-4.89H15.35a4.89,4.89,0,0,0-4.89,4.89V35.64a4.89,4.89,0,0,0,4.89,4.89H33.59A4.89,4.89,0,0,0,38.48,35.64Zm51.59,0V17.4a4.9,4.9,0,0,0-4.9-4.89H66.93A4.89,4.89,0,0,0,62,17.4V35.64a4.89,4.89,0,0,0,4.89,4.89H85.17A4.9,4.9,0,0,0,90.07,35.64ZM30.52,69.3l7-6.95a3.82,3.82,0,0,0,1.17-2.8,3.39,3.39,0,0,0-1.17-2.66,3.62,3.62,0,0,0-2.73-1.17,3.74,3.74,0,0,0-2.73,1.17l-7,7-7-7a3.8,3.8,0,0,0-2.73-1.24,3.43,3.43,0,0,0-2.67,1.17,3.87,3.87,0,0,0-1.17,2.8,4,4,0,0,0,1.11,2.73l7,6.95-7,7a3.77,3.77,0,0,0,0,5.46,4,4,0,0,0,2.73,1.11A3.71,3.71,0,0,0,18,81.78l7-7,7,7a3.77,3.77,0,0,0,5.46,0,3.67,3.67,0,0,0,1.1-2.73,3.58,3.58,0,0,0-1.1-2.73Zm46.12-5.84a7.72,7.72,0,0,0-3.38.74,6.39,6.39,0,0,0-2.46,2A10.63,10.63,0,0,1,72.3,61a3.83,3.83,0,0,1,3.3-1.86,5.44,5.44,0,0,1,1.84.32c.59.22,1.32.54,2.2,1l.88.44c.51.27.91.46,1.2.58a2.62,2.62,0,0,0,1,.18,2.1,2.1,0,0,0,1.7-.86,3.19,3.19,0,0,0,.7-2.1,3,3,0,0,0-.3-1.4,3.59,3.59,0,0,0-1-1.08,12.83,12.83,0,0,0-4-2,15.54,15.54,0,0,0-4.58-.72A10.83,10.83,0,0,0,69,55.26,11.62,11.62,0,0,0,64.9,60.4a19.48,19.48,0,0,0-1.46,7.82q0,6.81,3.08,10.48t8.72,3.68a10.3,10.3,0,0,0,5.08-1.24,8.89,8.89,0,0,0,3.5-3.46,10,10,0,0,0,1.26-5A10.1,10.1,0,0,0,84,67.92a8.33,8.33,0,0,0-3-3.28A8.14,8.14,0,0,0,76.64,63.46ZM74.8,76.74a3.17,3.17,0,0,1-2.48-1.06,3.91,3.91,0,0,1-1-2.74,4,4,0,0,1,.94-2.76,3.22,3.22,0,0,1,2.5-1,3.16,3.16,0,0,1,2.5,1,4.06,4.06,0,0,1,.9,2.78,4,4,0,0,1-.92,2.76A3.13,3.13,0,0,1,74.8,76.74Z"/></svg>