<svg id="Layer_1" data-name="Layer 1" xmlns="http://www.w3.org/2000/svg" viewBox="0 0 100 100"><title>l21_1_1</title><path d="M100,13.76V85.41A14.18,14.18,0,0,1,85.85,99.59H64A14.17,14.17,0,0,1,50,88,14.18,14.18,0,0,1,36.11,99.59H14.2A14.17,14.17,0,0,1,0,85.41V13.76A14.16,14.16,0,0,1,14.2-.41H36.11A14.17,14.17,0,0,1,50,11.13,14.16,14.16,0,0,1,64-.41h21.9A14.17,14.17,0,0,1,100,13.76ZM29.17,67a7.31,7.31,0,0,0,3.58-2.73A7.5,7.5,0,0,0,34,59.89a7.89,7.89,0,0,0-1.37-4.59,8.82,8.82,0,0,0-3.92-3.06,14.88,14.88,0,0,0-5.87-1.08,18,18,0,0,0-5.33.81A14.89,14.89,0,0,0,13,54.22a3.64,3.64,0,0,0-1.08,1.22A3.48,3.48,0,0,0,11.57,57a3.68,3.68,0,0,0,.77,2.36,2.31,2.31,0,0,0,1.89,1,3.11,3.11,0,0,0,1.13-.2c.32-.14.77-.35,1.34-.65l.95-.45A24.77,24.77,0,0,1,20.1,58a6.81,6.81,0,0,1,2.36-.41,3.91,3.91,0,0,1,2.75.92,3.38,3.38,0,0,1,1,2.59,2.54,2.54,0,0,1-1.13,2.3,6.89,6.89,0,0,1-3.6.72h-2a2.56,2.56,0,0,0-2.11.94,3.67,3.67,0,0,0,0,4.5,2.57,2.57,0,0,0,2.11,1h2.79a6.77,6.77,0,0,1,3.69.76,2.83,2.83,0,0,1,1.13,2.52,3.14,3.14,0,0,1-1.1,2.7,6.28,6.28,0,0,1-3.63.81,8.23,8.23,0,0,1-2.58-.38,20.51,20.51,0,0,1-2.59-1.1l-.56-.25-.43-.2q-.86-.45-1.35-.66a3.06,3.06,0,0,0-1.12-.2,2.32,2.32,0,0,0-1.9,1,3.67,3.67,0,0,0-.76,2.36,3.2,3.2,0,0,0,1.39,2.79,14.46,14.46,0,0,0,4.68,2.27,19.84,19.84,0,0,0,5.63.79,17,17,0,0,0,6.37-1.1,9.6,9.6,0,0,0,4.21-3.13,8.57,8.57,0,0,0,0-9.67A7.63,7.63,0,0,0,29.17,67Zm25.07,3.37,4.85-4.81a2.65,2.65,0,0,0,.81-1.94,2.35,2.35,0,0,0-.81-1.84,2.5,2.5,0,0,0-1.89-.81,2.58,2.58,0,0,0-1.88.81L50.45,66.6l-4.86-4.86a2.63,2.63,0,0,0-1.89-.86,2.35,2.35,0,0,0-1.84.81,2.65,2.65,0,0,0-.81,1.94,2.73,2.73,0,0,0,.77,1.89l4.85,4.81-4.85,4.86a2.59,2.59,0,0,0,0,3.78,2.74,2.74,0,0,0,1.88.77A2.57,2.57,0,0,0,45.59,79l4.86-4.86L55.32,79a2.66,2.66,0,0,0,4.54-1.89,2.48,2.48,0,0,0-.77-1.89Zm32.89,1.31h-1V55.39a3.82,3.82,0,0,0-1.22-3A4.24,4.24,0,0,0,82,51.3a4.42,4.42,0,0,0-2,.47,4.07,4.07,0,0,0-1.6,1.37L65.53,71.5a5,5,0,0,0-1,3A3.45,3.45,0,0,0,65.48,77a3.39,3.39,0,0,0,2.57,1h10v1.53a4,4,0,0,0,1.11,3.06,4.05,4.05,0,0,0,2.9,1,4.13,4.13,0,0,0,2.92-1,4,4,0,0,0,1.13-3.06V77.94h1q3.91,0,3.91-3.2T87.13,71.64Zm-14.45,0,5.4-7.79v7.79ZM39.22,35V16.73a4.89,4.89,0,0,0-4.89-4.89H16.09a4.89,4.89,0,0,0-4.89,4.89V35a4.89,4.89,0,0,0,4.89,4.9H34.33A4.89,4.89,0,0,0,39.22,35Zm51.59,0V16.73a4.89,4.89,0,0,0-4.9-4.89H67.67a4.89,4.89,0,0,0-4.89,4.89V35a4.89,4.89,0,0,0,4.89,4.9H85.91A4.9,4.9,0,0,0,90.81,35Z"/></svg>