<svg id="Layer_1" data-name="Layer 1" xmlns="http://www.w3.org/2000/svg" viewBox="0 0 100 100"><title>l21_2_1</title><path d="M99.74,14.45V86.1a14.18,14.18,0,0,1-14.18,14.18H63.66A14.17,14.17,0,0,1,49.74,88.73a14.18,14.18,0,0,1-13.92,11.55H13.91A14.17,14.17,0,0,1-.26,86.1V14.45A14.16,14.16,0,0,1,13.91.28H35.82A14.17,14.17,0,0,1,49.74,11.82,14.16,14.16,0,0,1,63.66.28h21.9A14.17,14.17,0,0,1,99.74,14.45ZM37.18,35.29V17a4.9,4.9,0,0,0-4.9-4.89H14A4.89,4.89,0,0,0,9.15,17V35.29A4.89,4.89,0,0,0,14,40.18H32.28A4.9,4.9,0,0,0,37.18,35.29Zm51.58,0V17a4.89,4.89,0,0,0-4.9-4.89H65.62A4.89,4.89,0,0,0,60.73,17V35.29a4.89,4.89,0,0,0,4.89,4.89H83.86A4.89,4.89,0,0,0,88.76,35.29ZM38.94,70.93H38V54.68a3.82,3.82,0,0,0-1.22-3,4.24,4.24,0,0,0-2.92-1.08,4.49,4.49,0,0,0-2,.47,4.11,4.11,0,0,0-1.59,1.37L17.34,70.79a5,5,0,0,0-1,3,3.45,3.45,0,0,0,.94,2.48,3.39,3.39,0,0,0,2.57,1h10v1.53A4,4,0,0,0,31,81.82a4.09,4.09,0,0,0,2.91,1,4.13,4.13,0,0,0,2.92-1A4,4,0,0,0,38,78.76V77.23h1q3.91,0,3.91-3.2T38.94,70.93Zm-14.45,0,5.4-7.79v7.79ZM48.43,84,58.65,51.94a5,5,0,0,0,.18-1,2.65,2.65,0,0,0-1-2.12A3.39,3.39,0,0,0,55.63,48a3,3,0,0,0-1.73.54,3,3,0,0,0-1.15,1.62L42.54,82.27a3,3,0,0,0-.18,1,2.6,2.6,0,0,0,.94,2.07,3.28,3.28,0,0,0,2.21.81A3,3,0,0,0,48.43,84ZM81.05,50.86H63.41a4.36,4.36,0,0,0-3,.83,3.12,3.12,0,0,0-1,2.5,3.08,3.08,0,0,0,.92,2.43,4.49,4.49,0,0,0,3,.81H74.66L63.1,77.18a4.25,4.25,0,0,0-.63,2.16,3.31,3.31,0,0,0,1.21,2.59A4.17,4.17,0,0,0,66.47,83a4,4,0,0,0,1.92-.52,4.27,4.27,0,0,0,1.55-1.6L83.58,57.25a5.83,5.83,0,0,0,.85-3,3.52,3.52,0,0,0-.88-2.46A3.21,3.21,0,0,0,81.05,50.86Z"/></svg>