<svg id="Layer_1" data-name="Layer 1" xmlns="http://www.w3.org/2000/svg" viewBox="0 0 100 100"><title>l21_5_1</title><path d="M100,13.9V85.56A14.18,14.18,0,0,1,85.83,99.73H63.92A14.17,14.17,0,0,1,50,88.18,14.17,14.17,0,0,1,36.08,99.73H14.17A14.18,14.18,0,0,1,0,85.56V13.9A14.18,14.18,0,0,1,14.17-.27H36.08A14.17,14.17,0,0,1,50,11.28,14.17,14.17,0,0,1,63.92-.27H85.83A14.18,14.18,0,0,1,100,13.9ZM38,34.68V16.44a4.89,4.89,0,0,0-4.89-4.89H14.85A4.89,4.89,0,0,0,10,16.44V34.68a4.89,4.89,0,0,0,4.89,4.9H33.09A4.89,4.89,0,0,0,38,34.68Zm51.58,0V16.44a4.89,4.89,0,0,0-4.89-4.89H66.43a4.89,4.89,0,0,0-4.89,4.89V34.68a4.89,4.89,0,0,0,4.89,4.9H84.67A4.89,4.89,0,0,0,89.56,34.68ZM29.25,66.26a6.76,6.76,0,0,0,3.53-2.66,7.79,7.79,0,0,0,1.29-4.5,7.45,7.45,0,0,0-3.13-6.32q-3.14-2.33-8.53-2.32t-8.5,2.32a7.42,7.42,0,0,0-3.15,6.32A7.68,7.68,0,0,0,12,63.49a7.44,7.44,0,0,0,3.6,2.77,7.51,7.51,0,0,0-4.23,2.67A7.94,7.94,0,0,0,9.9,73.86a7.77,7.77,0,0,0,3.35,6.68Q16.61,83,22.41,83t9.16-2.41a7.77,7.77,0,0,0,3.35-6.68,7.38,7.38,0,0,0-5.67-7.6ZM22.41,76.69c-3.27,0-4.9-1.16-4.9-3.5s1.63-3.52,4.9-3.52,4.91,1.17,4.91,3.52S25.68,76.69,22.41,76.69Zm0-20a4.84,4.84,0,0,1,3,.79,3.08,3.08,0,0,1,1,2.55,3.13,3.13,0,0,1-1,2.56,4.71,4.71,0,0,1-3,.81,4.68,4.68,0,0,1-3-.81,3.13,3.13,0,0,1-1-2.56,3.08,3.08,0,0,1,1-2.55A4.81,4.81,0,0,1,22.41,56.71ZM57.74,67H52.07V61.3a2.66,2.66,0,1,0-5.31,0V67H41.09a2.63,2.63,0,0,0-2.66,2.66,2.63,2.63,0,0,0,.77,1.91,2.51,2.51,0,0,0,1.89.79h5.67V78a2.68,2.68,0,0,0,4.56,1.88A2.56,2.56,0,0,0,52.07,78V72.33h5.67a2.55,2.55,0,0,0,1.89-.79,2.62,2.62,0,0,0,.76-1.91,2.56,2.56,0,0,0-.76-1.89A2.6,2.6,0,0,0,57.74,67Zm21.37-5.26a8.71,8.71,0,0,0-3.8.83,7.17,7.17,0,0,0-2.77,2.28,12,12,0,0,1,1.69-5.88,4.31,4.31,0,0,1,3.71-2.09,6,6,0,0,1,2.07.36c.66.24,1.48.6,2.47,1.08l1,.49a14.34,14.34,0,0,0,1.34.66,3.08,3.08,0,0,0,1.13.2,2.36,2.36,0,0,0,1.91-1,3.58,3.58,0,0,0,.79-2.36,3.23,3.23,0,0,0-.34-1.57,3.84,3.84,0,0,0-1.1-1.22,14.39,14.39,0,0,0-4.52-2.25,17.54,17.54,0,0,0-5.16-.81,12.08,12.08,0,0,0-7,2,13.08,13.08,0,0,0-4.64,5.78,21.9,21.9,0,0,0-1.64,8.8q0,7.65,3.47,11.79T77.53,83a11.62,11.62,0,0,0,5.72-1.39,10.09,10.09,0,0,0,3.94-3.89,12,12,0,0,0,.18-11A9.26,9.26,0,0,0,84,63,9.05,9.05,0,0,0,79.11,61.71ZM77,76.65a3.61,3.61,0,0,1-2.79-1.19,5,5,0,0,1,0-6.19A3.59,3.59,0,0,1,77,68.1a3.53,3.53,0,0,1,2.81,1.15,5.27,5.27,0,0,1,0,6.23A3.54,3.54,0,0,1,77,76.65Z"/></svg>