<svg id="Layer_1" data-name="Layer 1" xmlns="http://www.w3.org/2000/svg" viewBox="0 0 100 100"><title>l21_3_1</title><path d="M80.45,100.22h-61A19.68,19.68,0,0,1-.25,80.53v-61A19.68,19.68,0,0,1,19.44-.17h61a19.68,19.68,0,0,1,19.69,19.69v61A19.68,19.68,0,0,1,80.45,100.22ZM44,48.91,27.39,42.46a4.65,4.65,0,0,0-1.55-.3,3,3,0,0,0-2.22.88,3.08,3.08,0,0,0-.88,2.27,2.53,2.53,0,0,0,1.7,2.45l14.85,5.7-14.85,5.7a3,3,0,0,0-1.25,1,2.44,2.44,0,0,0-.45,1.47,3.11,3.11,0,0,0,.88,2.28,3,3,0,0,0,2.22.87,4.39,4.39,0,0,0,1.55-.3L44,58a4.67,4.67,0,0,0,2.28-1.75,4.81,4.81,0,0,0,.82-2.8,4.74,4.74,0,0,0-.82-2.72A4.93,4.93,0,0,0,44,48.91Zm31.65,6h-1.1v-18a4.25,4.25,0,0,0-1.35-3.35A4.72,4.72,0,0,0,70,32.31a5,5,0,0,0-2.22.53A4.66,4.66,0,0,0,66,34.36l-14.3,20.4a5.66,5.66,0,0,0-1.1,3.3,3.82,3.82,0,0,0,1,2.75,3.73,3.73,0,0,0,2.85,1.1H65.64v1.7A4.42,4.42,0,0,0,66.87,67a4.5,4.5,0,0,0,3.22,1.15A4.58,4.58,0,0,0,73.34,67a4.36,4.36,0,0,0,1.25-3.4v-1.7h1.1q4.35,0,4.35-3.55T75.69,54.91Zm-16,0,6-8.65v8.65Z"/></svg>