<svg id="Layer_1" data-name="Layer 1" xmlns="http://www.w3.org/2000/svg" viewBox="0 0 100 100"><title>l21_3_1</title><path d="M100.21,14.15V85.8A14.17,14.17,0,0,1,86,100H64.13A14.16,14.16,0,0,1,50.21,88.43,14.16,14.16,0,0,1,36.29,100H14.38A14.17,14.17,0,0,1,.21,85.8V14.15A14.18,14.18,0,0,1,14.38,0H36.29A14.17,14.17,0,0,1,50.21,11.52,14.17,14.17,0,0,1,64.13,0H86A14.18,14.18,0,0,1,100.21,14.15Zm-62,20.78V16.69a4.89,4.89,0,0,0-4.89-4.9H15.06a4.89,4.89,0,0,0-4.89,4.9V34.93a4.89,4.89,0,0,0,4.89,4.89H33.3A4.89,4.89,0,0,0,38.19,34.93Zm51.58,0V16.69a4.89,4.89,0,0,0-4.89-4.9H66.64a4.89,4.89,0,0,0-4.89,4.9V34.93a4.89,4.89,0,0,0,4.89,4.89H84.88A4.89,4.89,0,0,0,89.77,34.93ZM26.68,61.39a8.64,8.64,0,0,0-3.81.83,7.1,7.1,0,0,0-2.76,2.27,12,12,0,0,1,1.68-5.87,4.31,4.31,0,0,1,3.72-2.09,6,6,0,0,1,2.07.36c.66.24,1.48.6,2.47,1.08l1,.49a14.94,14.94,0,0,0,1.35.65,2.88,2.88,0,0,0,1.13.21,2.42,2.42,0,0,0,1.91-1A3.65,3.65,0,0,0,36.22,56a3.39,3.39,0,0,0-.34-1.58,3.94,3.94,0,0,0-1.1-1.21A14.34,14.34,0,0,0,30.25,51a17.43,17.43,0,0,0-5.15-.81,12.2,12.2,0,0,0-7,2,13.11,13.11,0,0,0-4.63,5.78,21.76,21.76,0,0,0-1.64,8.8q0,7.65,3.46,11.79t9.81,4.14a11.62,11.62,0,0,0,5.72-1.39,10,10,0,0,0,3.93-3.9,11.15,11.15,0,0,0,1.42-5.64,11.3,11.3,0,0,0-1.24-5.34,9.3,9.3,0,0,0-3.39-3.69A9.13,9.13,0,0,0,26.68,61.39ZM24.61,76.33a3.58,3.58,0,0,1-2.79-1.2,4.4,4.4,0,0,1-1.08-3.08A4.46,4.46,0,0,1,21.79,69a3.63,3.63,0,0,1,2.82-1.17,3.58,3.58,0,0,1,2.81,1.14,4.6,4.6,0,0,1,1,3.13,4.53,4.53,0,0,1-1,3.11A3.54,3.54,0,0,1,24.61,76.33Zm35.82-1.89L47.06,69.31l13.37-5.13A2.31,2.31,0,0,0,62,62a2.81,2.81,0,0,0-.79-2,2.73,2.73,0,0,0-2-.78,4.26,4.26,0,0,0-1.4.27l-15,5.8a4.46,4.46,0,0,0-2,1.64,4.56,4.56,0,0,0,0,5,4.21,4.21,0,0,0,2,1.57l15,5.81a4.26,4.26,0,0,0,1.4.27,2.74,2.74,0,0,0,2-.79,2.81,2.81,0,0,0,.79-2,2.23,2.23,0,0,0-.41-1.33A2.67,2.67,0,0,0,60.43,74.44Zm26.63-23.9H69.43a4.43,4.43,0,0,0-3,.83,3.14,3.14,0,0,0-.95,2.5,3.08,3.08,0,0,0,.92,2.43,4.5,4.5,0,0,0,3,.81H80.68L69.11,76.87A4.25,4.25,0,0,0,68.48,79a3.31,3.31,0,0,0,1.21,2.58,4.12,4.12,0,0,0,2.79,1.06,3.85,3.85,0,0,0,1.92-.52A4.16,4.16,0,0,0,76,80.56L89.59,56.93a5.83,5.83,0,0,0,.85-3,3.48,3.48,0,0,0-.88-2.45A3.18,3.18,0,0,0,87.06,50.54Z"/></svg>