<svg id="Layer_1" data-name="Layer 1" xmlns="http://www.w3.org/2000/svg" viewBox="0 0 100 100"><title>l21_5_1</title><path d="M100,14.17V85.83A14.18,14.18,0,0,1,85.83,100H63.92A14.17,14.17,0,0,1,50,88.45,14.17,14.17,0,0,1,36.08,100H14.17A14.18,14.18,0,0,1,0,85.83V14.17A14.18,14.18,0,0,1,14.17,0H36.08A14.17,14.17,0,0,1,50,11.55,14.17,14.17,0,0,1,63.92,0H85.83A14.18,14.18,0,0,1,100,14.17ZM38,35V16.71a4.89,4.89,0,0,0-4.89-4.89H14.85A4.89,4.89,0,0,0,10,16.71V35a4.89,4.89,0,0,0,4.89,4.9H33.09A4.89,4.89,0,0,0,38,35Zm51.58,0V16.71a4.89,4.89,0,0,0-4.89-4.89H66.43a4.89,4.89,0,0,0-4.89,4.89V35a4.89,4.89,0,0,0,4.89,4.9H84.67A4.89,4.89,0,0,0,89.56,35ZM23.13,72.78a2.61,2.61,0,0,0,1.64-.54,2.41,2.41,0,0,0,.87-1.53,4.32,4.32,0,0,1,1-1.83,21,21,0,0,1,2.27-2.09c1.05-.93,1.91-1.72,2.57-2.38A9.21,9.21,0,0,0,33.18,62a7,7,0,0,0-.6-7.09A8.82,8.82,0,0,0,29,52.14a12.88,12.88,0,0,0-5.21-1,17,17,0,0,0-5.2.83,16.29,16.29,0,0,0-4.62,2.32,4,4,0,0,0-1.1,1.22,3.35,3.35,0,0,0-.33,1.57,3.63,3.63,0,0,0,.78,2.36,2.38,2.38,0,0,0,1.92,1,5.46,5.46,0,0,0,2.47-.85L18.76,59A17.24,17.24,0,0,1,21,57.9a5.9,5.9,0,0,1,2-.38,3.05,3.05,0,0,1,2,.59,1.91,1.91,0,0,1,.72,1.57,3.24,3.24,0,0,1-.52,1.8,14.27,14.27,0,0,1-1.55,1.94,14.62,14.62,0,0,0-2.25,2.9,7,7,0,0,0-.81,3.53A3.26,3.26,0,0,0,21.3,72,2.29,2.29,0,0,0,23.13,72.78Zm.09,10.75a4.27,4.27,0,0,0,4.36-4.36,4.25,4.25,0,0,0-1.24-3.11,4.46,4.46,0,0,0-6.21,0,4.51,4.51,0,0,0,0,6.21A4.15,4.15,0,0,0,23.22,83.53Zm59.66-6.84H79.19V55.36a3.87,3.87,0,0,0-1.1-2.92,4,4,0,0,0-2.9-1.08,7.61,7.61,0,0,0-3.74,1.12l-7.2,4.19a3.05,3.05,0,0,0-1.57,2.79,3.79,3.79,0,0,0,.9,2.45A2.72,2.72,0,0,0,65.74,63a3.05,3.05,0,0,0,1.57-.45l3.6-2.11V76.69H67.27a4.5,4.5,0,0,0-3,.81,3,3,0,0,0-.95,2.43q0,3.33,3.92,3.33H82.88q3.91,0,3.92-3.33a3,3,0,0,0-1-2.43A4.5,4.5,0,0,0,82.88,76.69Z"/></svg>