<svg id="Layer_1" data-name="Layer 1" xmlns="http://www.w3.org/2000/svg" viewBox="0 0 100 100"><title>l21_5_1</title><path d="M100,14.17V85.83A14.17,14.17,0,0,1,85.79,100H63.89A14.19,14.19,0,0,1,50,88.45,14.17,14.17,0,0,1,36,100H14.14A14.18,14.18,0,0,1,0,85.83V14.17A14.18,14.18,0,0,1,14.14,0H36A14.17,14.17,0,0,1,50,11.55,14.19,14.19,0,0,1,63.89,0h21.9A14.17,14.17,0,0,1,100,14.17ZM38,35V16.71a4.89,4.89,0,0,0-4.89-4.89H14.81a4.89,4.89,0,0,0-4.89,4.89V35a4.89,4.89,0,0,0,4.89,4.9H33.06A4.89,4.89,0,0,0,38,35Zm51.58,0V16.71a4.89,4.89,0,0,0-4.89-4.89H66.39a4.89,4.89,0,0,0-4.89,4.89V35a4.89,4.89,0,0,0,4.89,4.9H84.64A4.89,4.89,0,0,0,89.53,35Zm-66.24,38a2.59,2.59,0,0,0,1.64-.54,2.37,2.37,0,0,0,.88-1.53,4.3,4.3,0,0,1,1-1.83,22.27,22.27,0,0,1,2.28-2.09c1-.93,1.9-1.72,2.56-2.38a9.23,9.23,0,0,0,1.69-2.39,6.81,6.81,0,0,0,.7-3.06,6.66,6.66,0,0,0-1.31-4,8.79,8.79,0,0,0-3.6-2.79,12.89,12.89,0,0,0-5.22-1,17.07,17.07,0,0,0-5.2.83,16.23,16.23,0,0,0-4.61,2.32A3.84,3.84,0,0,0,13,55.64a3.23,3.23,0,0,0-.34,1.57,3.58,3.58,0,0,0,.79,2.36,2.36,2.36,0,0,0,1.91,1,5.49,5.49,0,0,0,2.48-.85l1.08-.54A16.65,16.65,0,0,1,21.2,58a5.85,5.85,0,0,1,2.05-.38,3.07,3.07,0,0,1,2,.59A1.91,1.91,0,0,1,26,59.82a3.32,3.32,0,0,1-.52,1.8,15.1,15.1,0,0,1-1.55,1.94,14.62,14.62,0,0,0-2.25,2.9A7,7,0,0,0,20.82,70a3.2,3.2,0,0,0,.65,2.16A2.26,2.26,0,0,0,23.29,72.92Zm.09,10.75a4.21,4.21,0,0,0,3.13-1.26,4.51,4.51,0,0,0,0-6.21,4.21,4.21,0,0,0-3.13-1.26A4.13,4.13,0,0,0,20.3,76.2a4.51,4.51,0,0,0,0,6.21A4.13,4.13,0,0,0,23.38,83.67Zm59.22-32H65a4.39,4.39,0,0,0-3,.83A3.15,3.15,0,0,0,61,55,3.05,3.05,0,0,0,62,57.44a4.47,4.47,0,0,0,3,.81H76.21L64.64,78A4.25,4.25,0,0,0,64,80.16a3.32,3.32,0,0,0,1.22,2.59A4.15,4.15,0,0,0,68,83.81a3.89,3.89,0,0,0,1.91-.52,4.19,4.19,0,0,0,1.55-1.6L85.12,58.07a5.74,5.74,0,0,0,.85-3,3.56,3.56,0,0,0-.87-2.46A3.23,3.23,0,0,0,82.6,51.68Z"/></svg>