<svg id="Layer_1" data-name="Layer 1" xmlns="http://www.w3.org/2000/svg" viewBox="0 0 100 100"><title>l21_4</title><path d="M100.45,13.6V85.25A14.17,14.17,0,0,1,86.27,99.42H64.37A14.16,14.16,0,0,1,50.45,87.87,14.17,14.17,0,0,1,36.53,99.42H14.62A14.16,14.16,0,0,1,.45,85.25V13.6A14.17,14.17,0,0,1,14.62-.58H36.53A14.18,14.18,0,0,1,50.45,11,14.17,14.17,0,0,1,64.37-.58h21.9A14.18,14.18,0,0,1,100.45,13.6Zm-62,20.78V16.13a4.89,4.89,0,0,0-4.89-4.89H15.3a4.89,4.89,0,0,0-4.9,4.89V34.38a4.89,4.89,0,0,0,4.9,4.89H33.54A4.89,4.89,0,0,0,38.43,34.38Zm51.58,0V16.13a4.89,4.89,0,0,0-4.89-4.89H66.88A4.9,4.9,0,0,0,62,16.13V34.38a4.9,4.9,0,0,0,4.9,4.89H85.12A4.89,4.89,0,0,0,90,34.38ZM30.52,69.56l7-7a3.82,3.82,0,0,0,1.17-2.8,3.39,3.39,0,0,0-1.17-2.66A3.62,3.62,0,0,0,34.81,56a3.74,3.74,0,0,0-2.73,1.17l-7,7-7-7a3.8,3.8,0,0,0-2.73-1.24,3.43,3.43,0,0,0-2.67,1.17,3.83,3.83,0,0,0-1.17,2.8,4,4,0,0,0,1.11,2.73l7,7-7,7a3.77,3.77,0,0,0,0,5.46,4,4,0,0,0,2.73,1.11A3.71,3.71,0,0,0,18,82l7-7,7,7a3.77,3.77,0,0,0,5.46,0,3.67,3.67,0,0,0,1.1-2.73,3.58,3.58,0,0,0-1.1-2.73Zm40.2,3.88H67.44V54.49a3.34,3.34,0,0,0-3.56-3.57,6.82,6.82,0,0,0-3.32,1l-6.4,3.72a2.73,2.73,0,0,0-1.4,2.48,3.38,3.38,0,0,0,.8,2.18,2.38,2.38,0,0,0,1.92,1,2.69,2.69,0,0,0,1.4-.4L60.08,59V73.44H56.84a4,4,0,0,0-2.64.72,2.69,2.69,0,0,0-.84,2.16c0,2,1.16,3,3.48,3H70.72c2.32,0,3.48-1,3.48-3a2.69,2.69,0,0,0-.84-2.16A4,4,0,0,0,70.72,73.44Zm24,0H91.44V54.49a3.34,3.34,0,0,0-3.56-3.57,6.82,6.82,0,0,0-3.32,1l-6.4,3.72a2.73,2.73,0,0,0-1.4,2.48,3.38,3.38,0,0,0,.8,2.18,2.38,2.38,0,0,0,1.92,1,2.69,2.69,0,0,0,1.4-.4L84.08,59V73.44H80.84a4,4,0,0,0-2.64.72,2.69,2.69,0,0,0-.84,2.16c0,2,1.16,3,3.48,3H94.72c2.32,0,3.48-1,3.48-3a2.69,2.69,0,0,0-.84-2.16A4,4,0,0,0,94.72,73.44Z"/></svg>