<svg id="Layer_1" data-name="Layer 1" xmlns="http://www.w3.org/2000/svg" viewBox="0 0 100 100"><title>l21_3_1</title><path d="M100.17,14.17V85.83A14.17,14.17,0,0,1,86,100H64.09A14.18,14.18,0,0,1,50.17,88.45,14.17,14.17,0,0,1,36.25,100H14.35A14.18,14.18,0,0,1,.17,85.83V14.17A14.18,14.18,0,0,1,14.35,0h21.9A14.17,14.17,0,0,1,50.17,11.55,14.18,14.18,0,0,1,64.09,0H86A14.17,14.17,0,0,1,100.17,14.17ZM37.7,35V16.71a4.89,4.89,0,0,0-4.89-4.89H14.57a4.89,4.89,0,0,0-4.89,4.89V35a4.89,4.89,0,0,0,4.89,4.9H32.81A4.89,4.89,0,0,0,37.7,35Zm51.58,0V16.71a4.89,4.89,0,0,0-4.89-4.89H66.15a4.89,4.89,0,0,0-4.89,4.89V35a4.89,4.89,0,0,0,4.89,4.9H84.39A4.89,4.89,0,0,0,89.28,35ZM54.57,72.07h8.27a4,4,0,0,0,2.75-.81,2.9,2.9,0,0,0,.9-2.27,2.84,2.84,0,0,0-.9-2.24A4.07,4.07,0,0,0,62.84,66H54.57c-2.44,0-3.65,1-3.65,3S52.13,72.07,54.57,72.07ZM89.9,74.41H81.06L87.3,68a20.75,20.75,0,0,0,3.68-5,11.08,11.08,0,0,0,1.08-4.91,8,8,0,0,0-1.35-4.6,8.6,8.6,0,0,0-3.8-3.08,14.13,14.13,0,0,0-5.72-1.08,17.13,17.13,0,0,0-5.08.8,16.89,16.89,0,0,0-4.65,2.2,2.92,2.92,0,0,0-1.07,1.14,3.63,3.63,0,0,0-.29,1.58,3.8,3.8,0,0,0,.75,2.36,2.24,2.24,0,0,0,1.85,1,2.83,2.83,0,0,0,.83-.13,5,5,0,0,0,.9-.42l.69-.38.88-.44A20.37,20.37,0,0,1,78.48,56a7.12,7.12,0,0,1,2.36-.38,3.51,3.51,0,0,1,2.44.79,3,3,0,0,1,.86,2.29c0,1.7-1,3.57-2.91,5.59L71.9,74.05a4.85,4.85,0,0,0-1.49,3.44,3.31,3.31,0,0,0,.92,2.39,3.35,3.35,0,0,0,2.51,1H89.9A4.4,4.4,0,0,0,92.78,80a3,3,0,0,0,1-2.47,2.9,2.9,0,0,0-1-2.39A4.46,4.46,0,0,0,89.9,74.41ZM35,61.09l-20-7.74A5.74,5.74,0,0,0,13.18,53a3.58,3.58,0,0,0-2.66,1,3.65,3.65,0,0,0-1,2.73,3,3,0,0,0,2,2.94l17.81,6.84L11.51,73.39A3.43,3.43,0,0,0,10,74.56a2.88,2.88,0,0,0-.54,1.77,3.65,3.65,0,0,0,1,2.73,3.58,3.58,0,0,0,2.66,1,5.38,5.38,0,0,0,1.87-.36L35,72a5.67,5.67,0,0,0,2.74-2.1,5.85,5.85,0,0,0,1-3.36,5.79,5.79,0,0,0-1-3.27A6,6,0,0,0,35,61.09Z"/></svg>