<svg id="Layer_1" data-name="Layer 1" xmlns="http://www.w3.org/2000/svg" viewBox="0 0 100 100"><title>l21_5_1</title><path d="M100.26,13.9V85.56A14.17,14.17,0,0,1,86.09,99.73H64.18A14.19,14.19,0,0,1,50.26,88.18,14.17,14.17,0,0,1,36.34,99.73H14.44A14.18,14.18,0,0,1,.26,85.56V13.9A14.18,14.18,0,0,1,14.44-.27h21.9A14.17,14.17,0,0,1,50.26,11.28,14.19,14.19,0,0,1,64.18-.27H86.09A14.17,14.17,0,0,1,100.26,13.9Zm-62,20.78V16.44a4.89,4.89,0,0,0-4.9-4.89H15.11a4.89,4.89,0,0,0-4.89,4.89V34.68a4.89,4.89,0,0,0,4.89,4.9H33.35A4.9,4.9,0,0,0,38.25,34.68Zm51.58,0V16.44a4.89,4.89,0,0,0-4.9-4.89H66.69a4.89,4.89,0,0,0-4.89,4.89V34.68a4.89,4.89,0,0,0,4.89,4.9H84.93A4.9,4.9,0,0,0,89.83,34.68ZM32.77,66.09a6.76,6.76,0,0,0,3.53-2.66,7.79,7.79,0,0,0,1.29-4.5,7.45,7.45,0,0,0-3.13-6.32q-3.14-2.32-8.53-2.32t-8.51,2.32a7.42,7.42,0,0,0-3.15,6.32,7.61,7.61,0,0,0,1.27,4.39,7.37,7.37,0,0,0,3.59,2.77,7.51,7.51,0,0,0-4.23,2.67,8,8,0,0,0-1.48,4.93,7.77,7.77,0,0,0,3.35,6.68q3.36,2.41,9.16,2.41t9.16-2.41a7.77,7.77,0,0,0,3.35-6.68,7.38,7.38,0,0,0-5.67-7.6ZM25.93,76.53Q21,76.53,21,73t4.91-3.51q4.91,0,4.91,3.51T25.93,76.53Zm0-20a4.82,4.82,0,0,1,3,.78,3.08,3.08,0,0,1,1,2.55,3.11,3.11,0,0,1-1,2.56,4.68,4.68,0,0,1-3,.81,4.66,4.66,0,0,1-3-.81,3.09,3.09,0,0,1-1-2.56,3.05,3.05,0,0,1,1-2.55A4.8,4.8,0,0,1,25.93,56.55Zm19.3,16.92h8.46a4.08,4.08,0,0,0,2.82-.84,3,3,0,0,0,.92-2.31,2.92,2.92,0,0,0-.92-2.3,4.18,4.18,0,0,0-2.82-.81H45.23q-3.73,0-3.73,3.11T45.23,73.47ZM75.7,61.54a8.71,8.71,0,0,0-3.8.83,7.17,7.17,0,0,0-2.77,2.28,12,12,0,0,1,1.69-5.88,4.31,4.31,0,0,1,3.71-2.09A6,6,0,0,1,76.6,57c.66.24,1.48.6,2.47,1.08l1,.5c.57.3,1,.51,1.35.65a3.08,3.08,0,0,0,1.13.2,2.36,2.36,0,0,0,1.91-1,3.58,3.58,0,0,0,.79-2.36,3.23,3.23,0,0,0-.34-1.57,3.84,3.84,0,0,0-1.1-1.22,14.39,14.39,0,0,0-4.52-2.25,17.54,17.54,0,0,0-5.16-.81,12.15,12.15,0,0,0-7,2,13.08,13.08,0,0,0-4.64,5.78,21.9,21.9,0,0,0-1.64,8.8q0,7.65,3.46,11.79t9.81,4.14a11.62,11.62,0,0,0,5.72-1.4,10.09,10.09,0,0,0,3.94-3.89,12.09,12.09,0,0,0,.18-11,9.26,9.26,0,0,0-3.4-3.69A9.05,9.05,0,0,0,75.7,61.54ZM73.63,76.48a3.61,3.61,0,0,1-2.79-1.19,5,5,0,0,1,0-6.19,3.59,3.59,0,0,1,2.81-1.17,3.53,3.53,0,0,1,2.81,1.15,5.27,5.27,0,0,1,0,6.23A3.54,3.54,0,0,1,73.63,76.48Z"/></svg>