<svg id="Layer_1" data-name="Layer 1" xmlns="http://www.w3.org/2000/svg" viewBox="0 0 100 100"><title>l21_5_1</title><path d="M100,14.17V85.83A14.18,14.18,0,0,1,85.83,100H63.92A14.17,14.17,0,0,1,50,88.45,14.17,14.17,0,0,1,36.08,100H14.17A14.18,14.18,0,0,1,0,85.83V14.17A14.18,14.18,0,0,1,14.17,0H36.08A14.17,14.17,0,0,1,50,11.55,14.17,14.17,0,0,1,63.92,0H85.83A14.18,14.18,0,0,1,100,14.17ZM38,35V16.71a4.89,4.89,0,0,0-4.89-4.89H14.85A4.89,4.89,0,0,0,10,16.71V35a4.89,4.89,0,0,0,4.89,4.9H33.09A4.89,4.89,0,0,0,38,35Zm51.58,0V16.71a4.89,4.89,0,0,0-4.89-4.89H66.43a4.89,4.89,0,0,0-4.89,4.89V35a4.89,4.89,0,0,0,4.89,4.9H84.67A4.89,4.89,0,0,0,89.56,35Zm-66.66,38a2.59,2.59,0,0,0,1.64-.54,2.37,2.37,0,0,0,.88-1.53,4.21,4.21,0,0,1,1-1.82A21.11,21.11,0,0,1,28.71,67c1.05-.93,1.9-1.72,2.56-2.38A9.23,9.23,0,0,0,33,62.18a6.81,6.81,0,0,0,.7-3.06,6.66,6.66,0,0,0-1.31-4,8.79,8.79,0,0,0-3.6-2.79,12.89,12.89,0,0,0-5.22-1,16.78,16.78,0,0,0-5.2.84,16,16,0,0,0-4.61,2.31,3.84,3.84,0,0,0-1.1,1.22,3.23,3.23,0,0,0-.34,1.57,3.58,3.58,0,0,0,.79,2.36,2.36,2.36,0,0,0,1.91,1,5.49,5.49,0,0,0,2.48-.85l1.08-.54a16.65,16.65,0,0,1,2.27-1.11,5.85,5.85,0,0,1,2.05-.38,3.05,3.05,0,0,1,2,.59,1.91,1.91,0,0,1,.72,1.57,3.32,3.32,0,0,1-.52,1.8,15.1,15.1,0,0,1-1.55,1.94,14.62,14.62,0,0,0-2.25,2.9A7,7,0,0,0,20.43,70a3.2,3.2,0,0,0,.65,2.16A2.26,2.26,0,0,0,22.9,72.94ZM23,83.69a4.21,4.21,0,0,0,3.13-1.26,4.51,4.51,0,0,0,0-6.21A4.21,4.21,0,0,0,23,75a4.13,4.13,0,0,0-3.08,1.26,4.51,4.51,0,0,0,0,6.21A4.13,4.13,0,0,0,23,83.69Zm57-16.6a6.76,6.76,0,0,0,3.53-2.66,7.79,7.79,0,0,0,1.29-4.5,7.46,7.46,0,0,0-3.13-6.32q-3.14-2.32-8.53-2.32t-8.5,2.32a7.41,7.41,0,0,0-3.15,6.32,7.65,7.65,0,0,0,1.26,4.39,7.41,7.41,0,0,0,3.59,2.77,7.51,7.51,0,0,0-4.23,2.67,8,8,0,0,0-1.48,4.93A7.8,7.8,0,0,0,64,81.38q3.36,2.4,9.16,2.4t9.16-2.4a7.8,7.8,0,0,0,3.35-6.69A7.38,7.38,0,0,0,80,67.09ZM73.12,77.53q-4.91,0-4.9-3.51t4.9-3.51Q78,70.51,78,74T73.12,77.53Zm0-20a4.78,4.78,0,0,1,3,.79,3,3,0,0,1,1,2.54,3.11,3.11,0,0,1-1,2.56,4.71,4.71,0,0,1-3,.81,4.66,4.66,0,0,1-3-.81,3.11,3.11,0,0,1-1-2.56,3,3,0,0,1,1-2.54A4.73,4.73,0,0,1,73.12,57.55Z"/></svg>