<svg id="Layer_1" data-name="Layer 1" xmlns="http://www.w3.org/2000/svg" viewBox="0 0 100 100"><title>l21_3_1</title><path d="M80.51,100.2h-61A19.7,19.7,0,0,1-.2,80.51v-61A19.7,19.7,0,0,1,19.49-.2h61A19.7,19.7,0,0,1,100.2,19.49v61A19.7,19.7,0,0,1,80.51,100.2ZM44.1,48.89,27.45,42.44a4.7,4.7,0,0,0-1.55-.3,3,3,0,0,0-2.23.87,3.1,3.1,0,0,0-.87,2.28,2.53,2.53,0,0,0,1.7,2.45l14.85,5.7L24.5,59.14a2.92,2.92,0,0,0-1.25,1,2.47,2.47,0,0,0-.45,1.48,3,3,0,0,0,3.1,3.15,4.39,4.39,0,0,0,1.55-.3L44.1,58a4.7,4.7,0,0,0,2.27-1.75,5,5,0,0,0,0-5.53A5,5,0,0,0,44.1,48.89Zm23.35-4.1a12.5,12.5,0,0,0-5,.9V39.54H73.3q4.35,0,4.35-3.5T73.3,32.59H57.8a4.23,4.23,0,0,0-3.15,1.1,4.34,4.34,0,0,0-1.1,3.2V50.44a2.74,2.74,0,0,0,1,2.17,3.46,3.46,0,0,0,2.35.83,4.86,4.86,0,0,0,2.25-.55A16.62,16.62,0,0,1,62,52a13.5,13.5,0,0,1,2.73-.25A5.61,5.61,0,0,1,68.6,53a4.46,4.46,0,0,1,1.4,3.5A4.32,4.32,0,0,1,68.65,60a6.39,6.39,0,0,1-4.15,1.13,8.31,8.31,0,0,1-2.78-.45,27.49,27.49,0,0,1-2.82-1.2l-1-.5a14.48,14.48,0,0,0-1.5-.75,3.24,3.24,0,0,0-1.25-.2,2.61,2.61,0,0,0-2.1,1.07,4.09,4.09,0,0,0-.85,2.63,3.7,3.7,0,0,0,.37,1.72,4.63,4.63,0,0,0,1.18,1.38,16.63,16.63,0,0,0,5.12,2.5,20.92,20.92,0,0,0,6.08.9,16.24,16.24,0,0,0,7.15-1.5,11.24,11.24,0,0,0,4.8-4.25,11.87,11.87,0,0,0,1.7-6.35,12,12,0,0,0-1.43-5.93,10.13,10.13,0,0,0-4-4A11.51,11.51,0,0,0,67.45,44.79Z"/></svg>