<svg id="Layer_1" data-name="Layer 1" xmlns="http://www.w3.org/2000/svg" viewBox="0 0 100 100"><title>l21_5_1</title><path d="M99.89,14.3V86a14.18,14.18,0,0,1-14.18,14.18H63.81A14.17,14.17,0,0,1,49.89,88.58,14.19,14.19,0,0,1,36,100.13H14.06A14.17,14.17,0,0,1-.11,86V14.3A14.16,14.16,0,0,1,14.06.13H36A14.18,14.18,0,0,1,49.89,11.67,14.16,14.16,0,0,1,63.81.13h21.9A14.17,14.17,0,0,1,99.89,14.3Zm-62,20.78V16.84A4.89,4.89,0,0,0,33,12H14.74a4.89,4.89,0,0,0-4.9,4.89V35.08A4.89,4.89,0,0,0,14.74,40H33A4.89,4.89,0,0,0,37.87,35.08Zm51.58,0V16.84A4.89,4.89,0,0,0,84.56,12H66.32a4.89,4.89,0,0,0-4.9,4.89V35.08A4.89,4.89,0,0,0,66.32,40H84.56A4.89,4.89,0,0,0,89.45,35.08Zm-52.18,42-8.6-10,8.42-9.76A3.7,3.7,0,0,0,38,54.9a3.62,3.62,0,0,0-1.19-2.68,3.8,3.8,0,0,0-2.72-1.15,3.29,3.29,0,0,0-2.66,1.35l-7.56,9-7.6-9a3.54,3.54,0,0,0-2.75-1.35,3.79,3.79,0,0,0-2.72,1.15A3.58,3.58,0,0,0,9.64,54.9a3.73,3.73,0,0,0,1,2.43L19,67.09l-8.64,10a3.7,3.7,0,0,0-.94,2.43,3.65,3.65,0,0,0,1.19,2.7,3.73,3.73,0,0,0,2.68,1.17A3.49,3.49,0,0,0,16,82l7.87-9.27L31.64,82a3.54,3.54,0,0,0,2.75,1.35,3.73,3.73,0,0,0,2.67-1.15,3.57,3.57,0,0,0,1.2-2.67A3.68,3.68,0,0,0,37.27,77.08ZM78.14,62.19a8.64,8.64,0,0,0-3.81.83,7.1,7.1,0,0,0-2.76,2.27,12,12,0,0,1,1.68-5.87A4.31,4.31,0,0,1,77,57.33a6,6,0,0,1,2.07.36c.66.24,1.48.6,2.47,1.08l1,.49a14.94,14.94,0,0,0,1.35.65,2.88,2.88,0,0,0,1.13.21,2.41,2.41,0,0,0,1.91-1,3.65,3.65,0,0,0,.79-2.36,3.39,3.39,0,0,0-.34-1.58A3.94,3.94,0,0,0,86.24,54a14.34,14.34,0,0,0-4.53-2.25,17.43,17.43,0,0,0-5.15-.81,12.2,12.2,0,0,0-7,2,13.11,13.11,0,0,0-4.63,5.78,21.76,21.76,0,0,0-1.64,8.8q0,7.65,3.46,11.79t9.81,4.14a11.62,11.62,0,0,0,5.72-1.39,10,10,0,0,0,3.93-3.9,11.15,11.15,0,0,0,1.42-5.64,11.3,11.3,0,0,0-1.24-5.34A9.3,9.3,0,0,0,83,63.51,9.13,9.13,0,0,0,78.14,62.19ZM76.07,77.13a3.58,3.58,0,0,1-2.79-1.2,4.4,4.4,0,0,1-1.08-3.08,4.46,4.46,0,0,1,1-3.1,3.63,3.63,0,0,1,2.82-1.17,3.57,3.57,0,0,1,2.81,1.14,4.6,4.6,0,0,1,1,3.13,4.53,4.53,0,0,1-1,3.11A3.54,3.54,0,0,1,76.07,77.13Z"/></svg>