<svg id="Layer_1" data-name="Layer 1" xmlns="http://www.w3.org/2000/svg" viewBox="0 0 100 100"><title>l21_5_1</title><path d="M100,14.17V85.83A14.18,14.18,0,0,1,85.83,100H63.92A14.17,14.17,0,0,1,50,88.45,14.17,14.17,0,0,1,36.08,100H14.17A14.18,14.18,0,0,1,0,85.83V14.17A14.18,14.18,0,0,1,14.17,0H36.08A14.17,14.17,0,0,1,50,11.55,14.17,14.17,0,0,1,63.92,0H85.83A14.18,14.18,0,0,1,100,14.17ZM38,35V16.71a4.89,4.89,0,0,0-4.89-4.89H14.85A4.89,4.89,0,0,0,10,16.71V35a4.89,4.89,0,0,0,4.89,4.9H33.09A4.89,4.89,0,0,0,38,35Zm51.58,0V16.71a4.89,4.89,0,0,0-4.89-4.89H66.43a4.89,4.89,0,0,0-4.89,4.89V35a4.89,4.89,0,0,0,4.89,4.9H84.67A4.89,4.89,0,0,0,89.56,35ZM37.38,77l-8.6-10L37.2,57.2a3.71,3.71,0,0,0,.95-2.43A3.61,3.61,0,0,0,37,52.09a3.83,3.83,0,0,0-2.72-1.15,3.26,3.26,0,0,0-2.65,1.35l-7.57,9-7.6-9a3.54,3.54,0,0,0-2.74-1.35,3.85,3.85,0,0,0-2.73,1.15,3.63,3.63,0,0,0-1.19,2.68,3.73,3.73,0,0,0,1,2.43L19.16,67,10.51,77a3.64,3.64,0,0,0,.25,5.13,3.71,3.71,0,0,0,2.68,1.17,3.49,3.49,0,0,0,2.7-1.35L24,72.63l7.75,9.27a3.51,3.51,0,0,0,2.74,1.35,3.8,3.8,0,0,0,2.68-1.14,3.63,3.63,0,0,0,1.19-2.68A3.68,3.68,0,0,0,37.38,77ZM77.76,62.2a11.28,11.28,0,0,0-4.46.8V57.47H83q3.92,0,3.91-3.15T83,51.21h-14a3.86,3.86,0,0,0-2.83,1,3.93,3.93,0,0,0-1,2.88v12.2a2.47,2.47,0,0,0,.85,2,3.15,3.15,0,0,0,2.12.74,4.3,4.3,0,0,0,2-.49,17,17,0,0,1,2.59-.82,13,13,0,0,1,2.45-.22,5.09,5.09,0,0,1,3.51,1.13,4,4,0,0,1,1.26,3.15,3.91,3.91,0,0,1-1.21,3.17,5.82,5.82,0,0,1-3.74,1,7.25,7.25,0,0,1-2.5-.41,23.37,23.37,0,0,1-2.54-1.08l-.9-.44a14,14,0,0,0-1.35-.68,3,3,0,0,0-1.13-.18,2.3,2.3,0,0,0-1.88,1A3.62,3.62,0,0,0,64,77.45,3.25,3.25,0,0,0,64.37,79a3.76,3.76,0,0,0,1.06,1.24A14.68,14.68,0,0,0,70,82.49a18.77,18.77,0,0,0,5.47.81A14.61,14.61,0,0,0,81.94,82a10.08,10.08,0,0,0,4.32-3.83,10.6,10.6,0,0,0,1.53-5.71,10.86,10.86,0,0,0-1.28-5.33A9.07,9.07,0,0,0,83,63.48,10.32,10.32,0,0,0,77.76,62.2Z"/></svg>