<svg id="Layer_1" data-name="Layer 1" xmlns="http://www.w3.org/2000/svg" viewBox="0 0 100 100"><title>l21_1_1</title><path d="M100,14V85.66A14.18,14.18,0,0,1,85.85,99.83H64A14.17,14.17,0,0,1,50,88.28,14.18,14.18,0,0,1,36.11,99.83H14.2A14.17,14.17,0,0,1,0,85.66V14A14.17,14.17,0,0,1,14.2-.17H36.11A14.18,14.18,0,0,1,50,11.38,14.17,14.17,0,0,1,64-.17h21.9A14.18,14.18,0,0,1,100,14ZM33,77H29.28V55.63a3.91,3.91,0,0,0-1.1-2.92,4,4,0,0,0-2.9-1.08,7.61,7.61,0,0,0-3.74,1.12l-7.2,4.19a3.05,3.05,0,0,0-1.57,2.79,3.77,3.77,0,0,0,.9,2.45,2.69,2.69,0,0,0,2.16,1.1,3.05,3.05,0,0,0,1.57-.45L21,60.72V77H17.36a4.5,4.5,0,0,0-3,.81,3,3,0,0,0-1,2.43q0,3.33,3.92,3.33H33q3.91,0,3.92-3.33a3,3,0,0,0-1-2.43A4.5,4.5,0,0,0,33,77Zm25.79-9H53.09V62.25a2.66,2.66,0,1,0-5.31,0v5.67H42.11a2.61,2.61,0,0,0-2.66,2.65,2.67,2.67,0,0,0,.77,1.92,2.54,2.54,0,0,0,1.89.78h5.67V78.9a2.6,2.6,0,0,0,2.65,2.65,2.53,2.53,0,0,0,1.91-.76,2.59,2.59,0,0,0,.75-1.89V73.27h5.67a2.57,2.57,0,0,0,1.89-.78,2.66,2.66,0,0,0,.76-1.92,2.56,2.56,0,0,0-.76-1.89A2.6,2.6,0,0,0,58.76,67.92Zm27,9h-9l6.39-6.52a21,21,0,0,0,3.76-5.06,11.3,11.3,0,0,0,1.1-5,8.19,8.19,0,0,0-1.37-4.7,8.68,8.68,0,0,0-3.89-3.15,14.4,14.4,0,0,0-5.85-1.11,18.33,18.33,0,0,0-10,3.06,3,3,0,0,0-1.1,1.17,4,4,0,0,0-.29,1.62,3.87,3.87,0,0,0,.76,2.41,2.28,2.28,0,0,0,1.9,1,2.7,2.7,0,0,0,.85-.13,4.89,4.89,0,0,0,.92-.43l.7-.38.9-.45a21.22,21.22,0,0,1,2.54-1.1,7.21,7.21,0,0,1,2.41-.39,3.56,3.56,0,0,1,2.5.81,3,3,0,0,1,.87,2.34c0,1.74-1,3.65-3,5.72L67.39,76.6a4.93,4.93,0,0,0-1.53,3.51,3.4,3.4,0,0,0,1,2.46,3.43,3.43,0,0,0,2.57,1H85.8a4.54,4.54,0,0,0,3-.81,3.12,3.12,0,0,0,1-2.52,3,3,0,0,0-1-2.45A4.66,4.66,0,0,0,85.8,77Zm-47.65-44V14.69a4.89,4.89,0,0,0-4.9-4.89H15a4.89,4.89,0,0,0-4.89,4.89V32.94A4.89,4.89,0,0,0,15,37.83H33.25A4.89,4.89,0,0,0,38.15,32.94Zm51.58,0V14.69A4.89,4.89,0,0,0,84.84,9.8H66.59a4.89,4.89,0,0,0-4.89,4.89V32.94a4.89,4.89,0,0,0,4.89,4.89H84.84A4.89,4.89,0,0,0,89.73,32.94Z"/></svg>