<svg id="Layer_1" data-name="Layer 1" xmlns="http://www.w3.org/2000/svg" viewBox="0 0 100 100"><title>l21_1_1</title><path d="M99.89,14V85.66A14.18,14.18,0,0,1,85.72,99.83H63.81A14.17,14.17,0,0,1,49.89,88.28,14.17,14.17,0,0,1,36,99.83H14.06A14.18,14.18,0,0,1-.11,85.66V14A14.18,14.18,0,0,1,14.06-.17H36A14.17,14.17,0,0,1,49.89,11.38,14.17,14.17,0,0,1,63.81-.17H85.72A14.18,14.18,0,0,1,99.89,14ZM33,71.88H32V55.63a3.81,3.81,0,0,0-1.21-3,4.26,4.26,0,0,0-2.93-1.08,4.55,4.55,0,0,0-2,.47,4.15,4.15,0,0,0-1.6,1.37L11.39,71.74a5,5,0,0,0-1,3,3.46,3.46,0,0,0,.95,2.48,3.37,3.37,0,0,0,2.56,1H24v1.53a4,4,0,0,0,1.1,3.06,4.05,4.05,0,0,0,2.9,1,4.16,4.16,0,0,0,2.93-1A4,4,0,0,0,32,79.71V78.18h1q3.91,0,3.92-3.2T33,71.88Zm-14.44,0L24,64.09v7.79ZM54.1,70.57,59,65.76a2.65,2.65,0,0,0,.81-1.94A2.35,2.35,0,0,0,59,62a2.5,2.5,0,0,0-1.89-.81,2.59,2.59,0,0,0-1.89.81l-4.86,4.86L45.46,62a2.63,2.63,0,0,0-1.89-.86,2.37,2.37,0,0,0-1.85.81,2.65,2.65,0,0,0-.81,1.94,2.78,2.78,0,0,0,.77,1.89l4.86,4.81-4.86,4.86a2.61,2.61,0,0,0,0,3.78,2.78,2.78,0,0,0,1.89.77,2.57,2.57,0,0,0,1.89-.77l4.86-4.86,4.86,4.86a2.61,2.61,0,0,0,3.78,0,2.56,2.56,0,0,0,.76-1.89A2.47,2.47,0,0,0,59,75.43Zm25.42-7.78a11.22,11.22,0,0,0-4.45.81V58.06h9.72q3.92,0,3.91-3.15t-3.91-3.1h-14a3.85,3.85,0,0,0-2.84,1,3.9,3.9,0,0,0-1,2.88V67.87a2.47,2.47,0,0,0,.86,2,3.07,3.07,0,0,0,2.11.74,4.32,4.32,0,0,0,2-.49,16,16,0,0,1,2.58-.81A12.4,12.4,0,0,1,77.05,69a5.09,5.09,0,0,1,3.51,1.13,4,4,0,0,1,1.26,3.15,3.89,3.89,0,0,1-1.22,3.17,5.71,5.71,0,0,1-3.73,1,7.45,7.45,0,0,1-2.5-.4A24.58,24.58,0,0,1,71.83,76l-.9-.45a14,14,0,0,0-1.35-.68,3.08,3.08,0,0,0-1.13-.18,2.34,2.34,0,0,0-1.89,1A3.69,3.69,0,0,0,65.8,78a3.45,3.45,0,0,0,.33,1.56,4.1,4.1,0,0,0,1.06,1.23,14.9,14.9,0,0,0,4.61,2.25,18.82,18.82,0,0,0,5.47.81,14.63,14.63,0,0,0,6.44-1.35A10.12,10.12,0,0,0,88,78.72,10.66,10.66,0,0,0,89.56,73a10.78,10.78,0,0,0-1.29-5.33,9.17,9.17,0,0,0-3.55-3.6A10.46,10.46,0,0,0,79.52,62.79ZM37.19,35V16.73a4.89,4.89,0,0,0-4.89-4.89H14.06a4.89,4.89,0,0,0-4.9,4.89V35a4.9,4.9,0,0,0,4.9,4.9H32.3A4.89,4.89,0,0,0,37.19,35Zm51.58,0V16.73a4.89,4.89,0,0,0-4.89-4.89H65.64a4.9,4.9,0,0,0-4.9,4.89V35a4.9,4.9,0,0,0,4.9,4.9H83.88A4.89,4.89,0,0,0,88.77,35Z"/></svg>