<svg id="Layer_1" data-name="Layer 1" xmlns="http://www.w3.org/2000/svg" viewBox="0 0 100 100"><title>l21_1_1</title><path d="M91.91-.17H65A8.12,8.12,0,0,0,56.92,8V91.71A8.12,8.12,0,0,0,65,99.83H91.91A8.12,8.12,0,0,0,100,91.71V8A8.12,8.12,0,0,0,91.91-.17ZM65.61,27.44V11.14A4.89,4.89,0,0,1,70.5,6.25H86.8a4.89,4.89,0,0,1,4.89,4.89v16.3a4.89,4.89,0,0,1-4.89,4.89H70.5A4.89,4.89,0,0,1,65.61,27.44ZM90.77,86.21a4.54,4.54,0,0,1-3,.81H71.39a3.43,3.43,0,0,1-2.56-1,3.37,3.37,0,0,1-1-2.45,4.93,4.93,0,0,1,1.53-3.51l9.54-10q3-3.11,3-5.71a3,3,0,0,0-.87-2.34,3.56,3.56,0,0,0-2.5-.81,7.21,7.21,0,0,0-2.41.38,21.22,21.22,0,0,0-2.54,1.1l-.9.45-.7.38a4.89,4.89,0,0,1-.92.43,2.72,2.72,0,0,1-.86.14,2.29,2.29,0,0,1-1.89-1,3.84,3.84,0,0,1-.76-2.4,3.79,3.79,0,0,1,.29-1.62A3,3,0,0,1,69,58a18.33,18.33,0,0,1,10-3.06A14.4,14.4,0,0,1,84.76,56a8.68,8.68,0,0,1,3.89,3.15A8.19,8.19,0,0,1,90,63.84a11.3,11.3,0,0,1-1.1,5,21,21,0,0,1-3.76,5.06l-6.39,6.53h9a4.66,4.66,0,0,1,3,.78,3,3,0,0,1,1,2.46A3.12,3.12,0,0,1,90.77,86.21Z"/><path d="M35-.17H8.14A8.11,8.11,0,0,0,0,8V91.71a8.11,8.11,0,0,0,8.11,8.12H35a8.11,8.11,0,0,0,8.12-8.12V8A8.11,8.11,0,0,0,35-.17ZM30.49,82.2A10.14,10.14,0,0,1,26.17,86a14.58,14.58,0,0,1-6.43,1.35,18.82,18.82,0,0,1-5.47-.81,14.9,14.9,0,0,1-4.61-2.25A4.13,4.13,0,0,1,8.6,83.08a3.41,3.41,0,0,1-.34-1.55A3.73,3.73,0,0,1,9,79.16a2.33,2.33,0,0,1,1.89-1,3,3,0,0,1,1.12.18,13.39,13.39,0,0,1,1.35.67l.9.45a24.67,24.67,0,0,0,2.55,1.08,7.39,7.39,0,0,0,2.49.41,5.74,5.74,0,0,0,3.74-1,3.88,3.88,0,0,0,1.21-3.17A4,4,0,0,0,23,73.65a5.09,5.09,0,0,0-3.51-1.12,12.33,12.33,0,0,0-2.45.22,15.81,15.81,0,0,0-2.59.81,4.29,4.29,0,0,1-2,.5,3.11,3.11,0,0,1-2.12-.75,2.44,2.44,0,0,1-.85-2V59.16a3.9,3.9,0,0,1,1-2.88,3.82,3.82,0,0,1,2.83-1h14q3.91,0,3.92,3.11t-3.92,3.15H17.53v5.53A11.28,11.28,0,0,1,22,66.27a10.46,10.46,0,0,1,5.2,1.28,9.17,9.17,0,0,1,3.55,3.6A10.82,10.82,0,0,1,32,76.49,10.63,10.63,0,0,1,30.49,82.2ZM29.35,32.33H13.05a4.89,4.89,0,0,1-4.89-4.89V11.14a4.89,4.89,0,0,1,4.89-4.89h16.3a4.89,4.89,0,0,1,4.89,4.89v16.3A4.89,4.89,0,0,1,29.35,32.33Z"/></svg>