<svg id="Layer_1" data-name="Layer 1" xmlns="http://www.w3.org/2000/svg" viewBox="0 0 100 100"><title>l21_4</title><path d="M100.25,14.17V85.83A14.17,14.17,0,0,1,86.08,100H64.17A14.18,14.18,0,0,1,50.25,88.45,14.17,14.17,0,0,1,36.33,100H14.43A14.18,14.18,0,0,1,.25,85.83V14.17A14.18,14.18,0,0,1,14.43,0h21.9A14.17,14.17,0,0,1,50.25,11.55,14.18,14.18,0,0,1,64.17,0H86.08A14.17,14.17,0,0,1,100.25,14.17ZM38.24,35V16.71a4.89,4.89,0,0,0-4.9-4.89H15.1a4.89,4.89,0,0,0-4.89,4.89V35a4.89,4.89,0,0,0,4.89,4.9H33.34A4.9,4.9,0,0,0,38.24,35Zm51.58,0V16.71a4.89,4.89,0,0,0-4.9-4.89H66.68a4.89,4.89,0,0,0-4.89,4.89V35a4.89,4.89,0,0,0,4.89,4.9H84.92A4.9,4.9,0,0,0,89.82,35ZM30.52,69.3l7-6.95a3.82,3.82,0,0,0,1.17-2.8,3.39,3.39,0,0,0-1.17-2.66,3.62,3.62,0,0,0-2.73-1.17,3.74,3.74,0,0,0-2.73,1.17l-7,7-7-7a3.8,3.8,0,0,0-2.73-1.24,3.43,3.43,0,0,0-2.67,1.17,3.83,3.83,0,0,0-1.17,2.8,4,4,0,0,0,1.11,2.73l7,6.95-7,7a3.77,3.77,0,0,0,0,5.46,4,4,0,0,0,2.73,1.11A3.71,3.71,0,0,0,18,81.78l7-7,7,7a3.77,3.77,0,0,0,5.46,0,3.67,3.67,0,0,0,1.1-2.73,3.58,3.58,0,0,0-1.1-2.73ZM77.2,63.58a10,10,0,0,0-4,.72V59.38h8.64q3.48,0,3.48-2.8t-3.48-2.76H69.48a3.08,3.08,0,0,0-3.4,3.44V68.1a2.18,2.18,0,0,0,.76,1.74,2.77,2.77,0,0,0,1.88.66,3.75,3.75,0,0,0,1.8-.44,15.75,15.75,0,0,1,2.3-.72,11.16,11.16,0,0,1,2.18-.2,4.57,4.57,0,0,1,3.12,1,3.59,3.59,0,0,1,1.12,2.8,3.47,3.47,0,0,1-1.08,2.82,5.12,5.12,0,0,1-3.32.9,6.63,6.63,0,0,1-2.22-.36,22.61,22.61,0,0,1-2.26-1l-.8-.4a13,13,0,0,0-1.2-.6,2.87,2.87,0,0,0-1-.16,2.07,2.07,0,0,0-1.68.86,3.33,3.33,0,0,0-.68,2.1,2.93,2.93,0,0,0,.3,1.38,3.39,3.39,0,0,0,.94,1.1,13.06,13.06,0,0,0,4.1,2,16.73,16.73,0,0,0,4.86.72,13,13,0,0,0,5.72-1.2,9,9,0,0,0,3.84-3.4,9.42,9.42,0,0,0,1.36-5.08A9.66,9.66,0,0,0,85,67.92a8.11,8.11,0,0,0-3.16-3.2A9.25,9.25,0,0,0,77.2,63.58Z"/></svg>