<svg id="Layer_1" data-name="Layer 1" xmlns="http://www.w3.org/2000/svg" viewBox="0 0 100 100"><title>l21_3_1</title><path d="M100,14.13V85.79A14.18,14.18,0,0,1,85.83,100H63.92A14.17,14.17,0,0,1,50,88.41,14.17,14.17,0,0,1,36.08,100H14.17A14.18,14.18,0,0,1,0,85.79V14.13A14.18,14.18,0,0,1,14.17,0H36.08A14.16,14.16,0,0,1,50,11.51,14.16,14.16,0,0,1,63.92,0H85.83A14.18,14.18,0,0,1,100,14.13ZM38,34.91V16.67a4.89,4.89,0,0,0-4.89-4.89H14.85A4.89,4.89,0,0,0,10,16.67V34.91a4.89,4.89,0,0,0,4.89,4.9H33.09A4.89,4.89,0,0,0,38,34.91Zm51.58,0V16.67a4.89,4.89,0,0,0-4.89-4.89H66.43a4.89,4.89,0,0,0-4.89,4.89V34.91a4.89,4.89,0,0,0,4.89,4.9H84.67A4.89,4.89,0,0,0,89.56,34.91ZM33,70.55H32V54.3a3.85,3.85,0,0,0-1.21-3,4.31,4.31,0,0,0-2.93-1.08,4.46,4.46,0,0,0-2,.48,4.11,4.11,0,0,0-1.59,1.37L11.42,70.41a5,5,0,0,0-1,3,3.46,3.46,0,0,0,.95,2.48,3.37,3.37,0,0,0,2.56,1H24v1.52a4,4,0,0,0,1.1,3.07,4.07,4.07,0,0,0,2.9,1,4.16,4.16,0,0,0,2.93-1A4,4,0,0,0,32,78.37V76.85h1c2.62,0,3.92-1.07,3.92-3.2S35.63,70.55,33,70.55Zm-14.44,0L24,62.76v7.79Zm41.22,3.82L46.42,69.24l13.37-5.13a2.37,2.37,0,0,0,1.13-.85,2.39,2.39,0,0,0,.4-1.36,2.74,2.74,0,0,0-.79-2,2.68,2.68,0,0,0-2-.79,4.26,4.26,0,0,0-1.4.27l-15,5.81a4.45,4.45,0,0,0-2,1.64,4.31,4.31,0,0,0-.74,2.45,4.37,4.37,0,0,0,.74,2.52,4.2,4.2,0,0,0,2,1.57l15,5.81a4.26,4.26,0,0,0,1.4.27,2.68,2.68,0,0,0,2-.79,2.73,2.73,0,0,0,.79-2.05,2.27,2.27,0,0,0-.4-1.32A2.71,2.71,0,0,0,59.79,74.37ZM79.54,61.45a11.22,11.22,0,0,0-4.45.82V56.73h9.72q3.91,0,3.91-3.15t-3.91-3.1h-14A3.46,3.46,0,0,0,67,54.35V66.54a2.48,2.48,0,0,0,.86,2,3.12,3.12,0,0,0,2.11.74,4.21,4.21,0,0,0,2-.5,16.69,16.69,0,0,1,2.59-.8,12.22,12.22,0,0,1,2.45-.23,5.13,5.13,0,0,1,3.51,1.12A4,4,0,0,1,81.84,72a3.9,3.9,0,0,1-1.22,3.17,5.77,5.77,0,0,1-3.73,1,7.75,7.75,0,0,1-2.5-.4c-.76-.28-1.61-.63-2.54-1.08l-.9-.45a12,12,0,0,0-1.35-.68,3.08,3.08,0,0,0-1.13-.18,2.31,2.31,0,0,0-1.89,1,3.67,3.67,0,0,0-.76,2.36,3.25,3.25,0,0,0,.34,1.55,3.84,3.84,0,0,0,1,1.24,14.85,14.85,0,0,0,4.62,2.25,18.71,18.71,0,0,0,5.46.81,14.63,14.63,0,0,0,6.44-1.35,10.12,10.12,0,0,0,4.32-3.82,10.66,10.66,0,0,0,1.53-5.72,10.86,10.86,0,0,0-1.28-5.33,9.07,9.07,0,0,0-3.56-3.6A10.34,10.34,0,0,0,79.54,61.45Z"/></svg>