<svg id="Layer_1" data-name="Layer 1" xmlns="http://www.w3.org/2000/svg" viewBox="0 0 100 100"><title>l21_3_1</title><path d="M80.51,100.2h-61A19.7,19.7,0,0,1-.2,80.51v-61A19.7,19.7,0,0,1,19.49-.2h61A19.7,19.7,0,0,1,100.2,19.49v61A19.7,19.7,0,0,1,80.51,100.2ZM44.07,48.89,27.43,42.44a4.75,4.75,0,0,0-1.55-.3,3,3,0,0,0-2.23.87,3.1,3.1,0,0,0-.87,2.28,2.6,2.6,0,0,0,.45,1.5,2.56,2.56,0,0,0,1.25,1l14.84,5.7-14.84,5.7a2.93,2.93,0,0,0-1.25,1,2.47,2.47,0,0,0-.45,1.48,3.08,3.08,0,0,0,.87,2.27,3,3,0,0,0,2.23.88,4.43,4.43,0,0,0,1.55-.3L44.07,58a4.72,4.72,0,0,0,2.28-1.75,5,5,0,0,0,0-5.53A5,5,0,0,0,44.07,48.89ZM74.28,60.54h-10l7.09-7.25a23.39,23.39,0,0,0,4.18-5.63,12.54,12.54,0,0,0,1.23-5.57,9.16,9.16,0,0,0-1.53-5.23,9.87,9.87,0,0,0-4.32-3.5,16.24,16.24,0,0,0-6.5-1.22,20.39,20.39,0,0,0-11.06,3.4,3.37,3.37,0,0,0-1.22,1.3,4.21,4.21,0,0,0-.32,1.8,4.28,4.28,0,0,0,.85,2.67,2.54,2.54,0,0,0,2.1,1.13,3,3,0,0,0,1-.15,5.66,5.66,0,0,0,1-.48c.38-.21.64-.36.78-.42l1-.5a23.57,23.57,0,0,1,2.82-1.23A8.23,8.23,0,0,1,64,39.24a3.93,3.93,0,0,1,2.77.9,3.36,3.36,0,0,1,1,2.6q0,2.9-3.3,6.35l-10.61,11A5.45,5.45,0,0,0,52.13,64a3.72,3.72,0,0,0,1,2.72A3.78,3.78,0,0,0,56,67.84H74.28a5,5,0,0,0,3.27-.9,3.45,3.45,0,0,0,1.08-2.8,3.31,3.31,0,0,0-1.08-2.73A5.15,5.15,0,0,0,74.28,60.54Z"/></svg>