<svg id="Layer_1" data-name="Layer 1" xmlns="http://www.w3.org/2000/svg" viewBox="0 0 100 100"><title>l21_4</title><path d="M100.5,14.86V86.51a14.17,14.17,0,0,1-14.17,14.18H64.42A14.17,14.17,0,0,1,50.5,89.14a14.17,14.17,0,0,1-13.92,11.55H14.68A14.18,14.18,0,0,1,.5,86.51V14.86A14.17,14.17,0,0,1,14.68.69h21.9A14.16,14.16,0,0,1,50.5,12.23,14.16,14.16,0,0,1,64.42.69H86.33A14.16,14.16,0,0,1,100.5,14.86Zm-62,20.78V17.4a4.89,4.89,0,0,0-4.89-4.89H15.35a4.89,4.89,0,0,0-4.89,4.89V35.64a4.89,4.89,0,0,0,4.89,4.89H33.59A4.89,4.89,0,0,0,38.48,35.64Zm51.59,0V17.4a4.9,4.9,0,0,0-4.9-4.89H66.93A4.89,4.89,0,0,0,62,17.4V35.64a4.89,4.89,0,0,0,4.89,4.89H85.17A4.9,4.9,0,0,0,90.07,35.64ZM30.52,69.3l7-6.95a3.82,3.82,0,0,0,1.17-2.8,3.39,3.39,0,0,0-1.17-2.66,3.62,3.62,0,0,0-2.73-1.17,3.74,3.74,0,0,0-2.73,1.17l-7,7-7-7a3.8,3.8,0,0,0-2.73-1.24,3.43,3.43,0,0,0-2.67,1.17,3.83,3.83,0,0,0-1.17,2.8,4,4,0,0,0,1.11,2.73l7,6.95-7,7a3.77,3.77,0,0,0,0,5.46,4,4,0,0,0,2.73,1.11A3.71,3.71,0,0,0,18,81.78l7-7,7,7a3.77,3.77,0,0,0,5.46,0,3.67,3.67,0,0,0,1.1-2.73,3.58,3.58,0,0,0-1.1-2.73Zm51.8-15.48H66.64a3.94,3.94,0,0,0-2.64.74,2.82,2.82,0,0,0-.84,2.22A2.71,2.71,0,0,0,64,58.94a4,4,0,0,0,2.66.72h10L66.36,77.22a3.81,3.81,0,0,0-.56,1.92,2.92,2.92,0,0,0,1.08,2.3,3.66,3.66,0,0,0,2.48.94,3.4,3.4,0,0,0,1.7-.46,3.63,3.63,0,0,0,1.38-1.42l12.12-21a5.06,5.06,0,0,0,.76-2.64,3.13,3.13,0,0,0-.78-2.18A2.86,2.86,0,0,0,82.32,53.82Z"/></svg>