<svg id="Layer_1" data-name="Layer 1" xmlns="http://www.w3.org/2000/svg" viewBox="0 0 100 100"><title>l21_3_1</title><path d="M100.05,14.43V86.08a14.18,14.18,0,0,1-14.18,14.18H64A14.17,14.17,0,0,1,50.05,88.71a14.18,14.18,0,0,1-13.92,11.55H14.22A14.17,14.17,0,0,1,.05,86.08V14.43A14.16,14.16,0,0,1,14.22.26H36.13A14.17,14.17,0,0,1,50.05,11.8,14.16,14.16,0,0,1,64,.26h21.9A14.17,14.17,0,0,1,100.05,14.43ZM37.48,35.26V17a4.89,4.89,0,0,0-4.89-4.89H14.35A4.89,4.89,0,0,0,9.46,17V35.26a4.89,4.89,0,0,0,4.89,4.9H32.59A4.89,4.89,0,0,0,37.48,35.26Zm51.59,0V17a4.9,4.9,0,0,0-4.9-4.89H65.93A4.89,4.89,0,0,0,61,17V35.26a4.89,4.89,0,0,0,4.89,4.9H84.17A4.9,4.9,0,0,0,89.07,35.26ZM61.51,70.59H54.88l4.68-4.78a15.42,15.42,0,0,0,2.76-3.72,8.28,8.28,0,0,0,.81-3.68,6,6,0,0,0-1-3.44,6.45,6.45,0,0,0-2.85-2.31A10.66,10.66,0,0,0,55,51.85a13.14,13.14,0,0,0-3.82.59,13.29,13.29,0,0,0-3.48,1.65,2.32,2.32,0,0,0-.81.86,2.88,2.88,0,0,0-.21,1.19,2.85,2.85,0,0,0,.56,1.76,1.69,1.69,0,0,0,1.39.75,2.06,2.06,0,0,0,.62-.1,3.67,3.67,0,0,0,.68-.32l.51-.28.66-.33A17.37,17.37,0,0,1,53,56.81a5.5,5.5,0,0,1,1.76-.28,2.57,2.57,0,0,1,1.83.6,2.21,2.21,0,0,1,.65,1.71q0,1.92-2.18,4.19l-7,7.3a3.65,3.65,0,0,0-1.12,2.57,2.47,2.47,0,0,0,.69,1.8,2.54,2.54,0,0,0,1.89.71h12a3.34,3.34,0,0,0,2.16-.59A2.3,2.3,0,0,0,64.38,73a2.18,2.18,0,0,0-.71-1.8A3.34,3.34,0,0,0,61.51,70.59Zm7.95,5.88L77,52.94a3.72,3.72,0,0,0,.14-.73,1.94,1.94,0,0,0-.71-1.55,2.47,2.47,0,0,0-1.64-.59,2.24,2.24,0,0,0-1.27.39,2.31,2.31,0,0,0-.84,1.19L65.14,75.18a2.13,2.13,0,0,0-.13.76,1.93,1.93,0,0,0,.69,1.52,2.43,2.43,0,0,0,1.62.59,2.19,2.19,0,0,0,2.14-1.58Zm22.28-13a4.94,4.94,0,0,0,2.59-2,5.69,5.69,0,0,0,.94-3.3A5.48,5.48,0,0,0,93,53.55a10.27,10.27,0,0,0-6.26-1.7,10.23,10.23,0,0,0-6.23,1.7,5.45,5.45,0,0,0-2.32,4.63,5.57,5.57,0,0,0,.93,3.22,5.39,5.39,0,0,0,2.64,2,5.5,5.5,0,0,0-3.1,2A5.81,5.81,0,0,0,77.55,69,5.7,5.7,0,0,0,80,73.91a11.27,11.27,0,0,0,6.71,1.76,11.31,11.31,0,0,0,6.72-1.76,5.82,5.82,0,0,0-1.7-10.48Zm-5,7.66q-3.6,0-3.6-2.58t3.6-2.57q3.6,0,3.6,2.57T86.72,71.09Zm0-14.66a3.54,3.54,0,0,1,2.21.58,2.24,2.24,0,0,1,.73,1.87,2.28,2.28,0,0,1-.73,1.88,4.43,4.43,0,0,1-4.42,0,2.31,2.31,0,0,1-.73-1.88A2.27,2.27,0,0,1,84.51,57,3.54,3.54,0,0,1,86.72,56.43ZM34.15,59.67l-20-7.74a5.64,5.64,0,0,0-1.86-.36,3.62,3.62,0,0,0-2.67,1,3.69,3.69,0,0,0-1.05,2.73,3,3,0,0,0,2,2.94l17.82,6.84L10.63,72a3.55,3.55,0,0,0-1.5,1.17,3,3,0,0,0-.54,1.77,3.69,3.69,0,0,0,1.05,2.73,3.62,3.62,0,0,0,2.67,1,5.28,5.28,0,0,0,1.86-.36l20-7.74a5.65,5.65,0,0,0,2.73-2.1,5.78,5.78,0,0,0,1-3.36,5.73,5.73,0,0,0-1-3.27A5.94,5.94,0,0,0,34.15,59.67Z"/></svg>