<svg id="Layer_1" data-name="Layer 1" xmlns="http://www.w3.org/2000/svg" viewBox="0 0 100 100"><title>l21_4</title><path d="M100,14.17V85.83A14.18,14.18,0,0,1,85.83,100H63.92A14.17,14.17,0,0,1,50,88.45,14.17,14.17,0,0,1,36.08,100H14.17A14.18,14.18,0,0,1,0,85.83V14.17A14.18,14.18,0,0,1,14.17,0H36.08A14.17,14.17,0,0,1,50,11.55,14.17,14.17,0,0,1,63.92,0H85.83A14.18,14.18,0,0,1,100,14.17ZM38,35V16.71a4.89,4.89,0,0,0-4.89-4.89H14.85A4.89,4.89,0,0,0,10,16.71V35a4.89,4.89,0,0,0,4.89,4.9H33.09A4.89,4.89,0,0,0,38,35Zm51.58,0V16.71a4.89,4.89,0,0,0-4.89-4.89H66.43a4.89,4.89,0,0,0-4.89,4.89V35a4.89,4.89,0,0,0,4.89,4.9H84.67A4.89,4.89,0,0,0,89.56,35ZM12.89,72.73h24a3.66,3.66,0,0,0,2.73-1.14,3.81,3.81,0,0,0,1.11-2.76A3.79,3.79,0,0,0,36.94,65h-24a3.66,3.66,0,0,0-2.73,1.14,3.8,3.8,0,0,0-1.1,2.76,3.77,3.77,0,0,0,3.83,3.84Zm11.7-12.22a4,4,0,0,0,3-1.24,4.13,4.13,0,0,0,1.2-3,4.05,4.05,0,0,0-1.2-2.92,4,4,0,0,0-3-1.24,3.91,3.91,0,0,0-2.92,1.2,4.1,4.1,0,0,0-1.17,3,4.18,4.18,0,0,0,1.17,3A3.83,3.83,0,0,0,24.59,60.51Zm0,25.09a4,4,0,0,0,3-1.24,4.05,4.05,0,0,0,1.2-2.92,4.13,4.13,0,0,0-1.2-3,4,4,0,0,0-3-1.24,3.83,3.83,0,0,0-2.92,1.24,4.18,4.18,0,0,0-1.17,3,4.06,4.06,0,0,0,1.17,3A3.88,3.88,0,0,0,24.59,85.6ZM76.11,63a7.58,7.58,0,0,0-3.38.74,6.21,6.21,0,0,0-2.46,2,10.63,10.63,0,0,1,1.5-5.22,3.83,3.83,0,0,1,3.3-1.86,5.2,5.2,0,0,1,1.84.32,23.23,23.23,0,0,1,2.2,1l.88.44c.5.26.9.46,1.2.58a2.59,2.59,0,0,0,1,.18,2.14,2.14,0,0,0,1.7-.86,3.28,3.28,0,0,0,.7-2.1,2.93,2.93,0,0,0-.3-1.4,3.37,3.37,0,0,0-1-1.08,12.62,12.62,0,0,0-4-2A15.54,15.54,0,0,0,74.71,53a10.81,10.81,0,0,0-6.22,1.8,11.56,11.56,0,0,0-4.12,5.14,19.25,19.25,0,0,0-1.46,7.82q0,6.8,3.08,10.48t8.72,3.68a10.41,10.41,0,0,0,5.08-1.24,9,9,0,0,0,3.5-3.46,10.69,10.69,0,0,0,.16-9.76,8.26,8.26,0,0,0-3-3.28A8.05,8.05,0,0,0,76.11,63ZM74.27,76.27a3.21,3.21,0,0,1-2.48-1.06,4.46,4.46,0,0,1,0-5.5,3.55,3.55,0,0,1,5,0,4.67,4.67,0,0,1,0,5.54A3.16,3.16,0,0,1,74.27,76.27Z"/></svg>