<svg id="Layer_1" data-name="Layer 1" xmlns="http://www.w3.org/2000/svg" viewBox="0 0 100 100"><title>l21_4</title><path d="M99.72,14V85.64A14.17,14.17,0,0,1,85.55,99.81H63.64A14.16,14.16,0,0,1,49.72,88.27,14.16,14.16,0,0,1,35.8,99.81H13.89A14.17,14.17,0,0,1-.28,85.64V14A14.18,14.18,0,0,1,13.89-.19H35.8A14.17,14.17,0,0,1,49.72,11.36,14.17,14.17,0,0,1,63.64-.19H85.55A14.18,14.18,0,0,1,99.72,14Zm-62,20.78V16.53a4.89,4.89,0,0,0-4.89-4.9H14.57a4.89,4.89,0,0,0-4.89,4.9V34.77a4.89,4.89,0,0,0,4.89,4.89H32.81A4.89,4.89,0,0,0,37.7,34.77Zm51.58,0V16.53a4.89,4.89,0,0,0-4.89-4.9H66.15a4.89,4.89,0,0,0-4.89,4.9V34.77a4.89,4.89,0,0,0,4.89,4.89H84.39A4.89,4.89,0,0,0,89.28,34.77ZM13.43,73h24a3.62,3.62,0,0,0,2.73-1.13,3.82,3.82,0,0,0,1.11-2.77,3.77,3.77,0,0,0-3.84-3.83h-24a3.67,3.67,0,0,0-2.74,1.14,3.84,3.84,0,0,0-1.1,2.76A3.76,3.76,0,0,0,13.43,73Zm11.7-12.22a4,4,0,0,0,2.95-1.23,4.13,4.13,0,0,0,1.2-3,4.07,4.07,0,0,0-1.2-2.93,4,4,0,0,0-2.95-1.23,3.91,3.91,0,0,0-2.93,1.2,4.08,4.08,0,0,0-1.17,3,4.18,4.18,0,0,0,1.17,3A3.87,3.87,0,0,0,25.13,60.74Zm0,25.09a4,4,0,0,0,2.95-1.23,4.06,4.06,0,0,0,1.2-2.93,4.14,4.14,0,0,0-1.2-3,4,4,0,0,0-2.95-1.23,3.87,3.87,0,0,0-2.93,1.23,4.2,4.2,0,0,0-1.17,3,4.08,4.08,0,0,0,1.17,3A3.91,3.91,0,0,0,25.13,85.83Zm44.53-9.89h-8l5.68-5.8a18.59,18.59,0,0,0,3.34-4.5,10.1,10.1,0,0,0,1-4.46A7.38,7.38,0,0,0,70.4,57a7.87,7.87,0,0,0-3.46-2.8,12.93,12.93,0,0,0-5.2-1,16.28,16.28,0,0,0-8.84,2.72,2.65,2.65,0,0,0-1,1,3.53,3.53,0,0,0-.26,1.44,3.4,3.4,0,0,0,.68,2.14,2,2,0,0,0,1.68.9,2.37,2.37,0,0,0,.76-.12A4.42,4.42,0,0,0,55.6,61l.62-.34.8-.4a21.23,21.23,0,0,1,2.26-1,6.62,6.62,0,0,1,2.14-.34,3.15,3.15,0,0,1,2.22.72,2.7,2.7,0,0,1,.78,2.08q0,2.33-2.64,5.08L53.3,75.62a4.39,4.39,0,0,0-1.36,3.12,2.92,2.92,0,0,0,3.12,3h14.6a4,4,0,0,0,2.62-.72,2.76,2.76,0,0,0,.86-2.24,2.67,2.67,0,0,0-.86-2.18A4.14,4.14,0,0,0,69.66,75.94Zm16.6,6.2a9.35,9.35,0,0,0,8-3.72Q97,74.7,97,67.66T94.24,56.94a9.38,9.38,0,0,0-8-3.72,9.34,9.34,0,0,0-8,3.72Q75.5,60.66,75.5,67.66t2.76,10.76A9.34,9.34,0,0,0,86.26,82.14Zm0-5.56A2.86,2.86,0,0,1,83.5,74.5a19.86,19.86,0,0,1-.84-6.84,19.77,19.77,0,0,1,.84-6.82,2.88,2.88,0,0,1,5.52,0,19.79,19.79,0,0,1,.84,6.8A19.86,19.86,0,0,1,89,74.5,2.86,2.86,0,0,1,86.26,76.58Z"/></svg>