<svg id="Layer_1" data-name="Layer 1" xmlns="http://www.w3.org/2000/svg" viewBox="0 0 100 100"><title>l21_4</title><path d="M80.51,100.2h-61A19.7,19.7,0,0,1-.2,80.51v-61A19.7,19.7,0,0,1,19.49-.2h61A19.7,19.7,0,0,1,100.2,19.49v61A19.7,19.7,0,0,1,80.51,100.2Zm-6.7-51.32h0a3.61,3.61,0,0,0-3.61-3.61H29.49a3.61,3.61,0,0,0-3.61,3.61h0a3.61,3.61,0,0,0,3.61,3.61H70.2A3.61,3.61,0,0,0,73.81,48.88Zm-16-15.26H48.19L55,26.68a22.23,22.23,0,0,0,4-5.38A12,12,0,0,0,60.15,16a8.76,8.76,0,0,0-1.46-5,9.36,9.36,0,0,0-4.14-3.35,15.41,15.41,0,0,0-6.22-1.17A19.43,19.43,0,0,0,37.77,9.71,3.15,3.15,0,0,0,36.6,11a4.07,4.07,0,0,0-.31,1.72,4.14,4.14,0,0,0,.81,2.56,2.43,2.43,0,0,0,2,1.08,2.76,2.76,0,0,0,.91-.15,5.39,5.39,0,0,0,1-.45c.36-.21.61-.34.74-.41l.95-.47a25.11,25.11,0,0,1,2.7-1.18,7.85,7.85,0,0,1,2.56-.4,3.75,3.75,0,0,1,2.66.86,3.21,3.21,0,0,1,.93,2.48q0,2.78-3.16,6.08L38.25,33.23A5.23,5.23,0,0,0,36.62,37a3.49,3.49,0,0,0,3.73,3.64H57.8a4.81,4.81,0,0,0,3.13-.86,3.3,3.3,0,0,0,1-2.68,3.16,3.16,0,0,0-1-2.61A4.88,4.88,0,0,0,57.8,33.62ZM54.57,73.28a7.77,7.77,0,0,0,3.8-2.89,8,8,0,0,0,1.36-4.62,8.26,8.26,0,0,0-1.46-4.87,9.37,9.37,0,0,0-4.15-3.26,16,16,0,0,0-6.24-1.14,18.93,18.93,0,0,0-5.67.86,15.7,15.7,0,0,0-4.85,2.39A3.67,3.67,0,0,0,36.21,61a3.76,3.76,0,0,0-.34,1.67,3.87,3.87,0,0,0,.82,2.51,2.46,2.46,0,0,0,2,1A3.19,3.19,0,0,0,39.89,66c.35-.15.83-.38,1.44-.7l1-.48a26.32,26.32,0,0,1,2.6-1.14,7.21,7.21,0,0,1,2.52-.43,4.07,4.07,0,0,1,2.91,1,3.57,3.57,0,0,1,1,2.75,2.68,2.68,0,0,1-1.19,2.43,7.33,7.33,0,0,1-3.83.77h-2.1a2.73,2.73,0,0,0-2.25,1,3.7,3.7,0,0,0-.81,2.39A3.66,3.66,0,0,0,42,76a2.73,2.73,0,0,0,2.25,1h3a7.18,7.18,0,0,1,3.92.81,3,3,0,0,1,1.2,2.68,3.33,3.33,0,0,1-1.17,2.87,6.68,6.68,0,0,1-3.85.86,8.69,8.69,0,0,1-2.75-.41,21.39,21.39,0,0,1-2.75-1.17l-.6-.26-.45-.22c-.61-.32-1.09-.55-1.43-.69a3.25,3.25,0,0,0-1.2-.22,2.48,2.48,0,0,0-2,1,3.94,3.94,0,0,0-.81,2.51,3.79,3.79,0,0,0,.33,1.65,4,4,0,0,0,1.15,1.32,15.44,15.44,0,0,0,5,2.41,21.23,21.23,0,0,0,6,.84,17.91,17.91,0,0,0,6.76-1.17A10.08,10.08,0,0,0,59,86.52a8.32,8.32,0,0,0,1.57-5.06A8.5,8.5,0,0,0,59,76.24,8.14,8.14,0,0,0,54.57,73.28Z"/></svg>