<svg id="Layer_1" data-name="Layer 1" xmlns="http://www.w3.org/2000/svg" viewBox="0 0 100 100"><title>l21_4</title><path d="M100,14.17V85.83A14.18,14.18,0,0,1,85.83,100H63.92A14.17,14.17,0,0,1,50,88.45,14.17,14.17,0,0,1,36.08,100H14.17A14.18,14.18,0,0,1,0,85.83V14.17A14.18,14.18,0,0,1,14.17,0H36.08A14.17,14.17,0,0,1,50,11.55,14.17,14.17,0,0,1,63.92,0H85.83A14.18,14.18,0,0,1,100,14.17ZM38,35V16.71a4.89,4.89,0,0,0-4.89-4.89H14.85A4.89,4.89,0,0,0,10,16.71V35a4.89,4.89,0,0,0,4.89,4.9H33.09A4.89,4.89,0,0,0,38,35Zm51.58,0V16.71a4.89,4.89,0,0,0-4.89-4.89H66.43a4.89,4.89,0,0,0-4.89,4.89V35a4.89,4.89,0,0,0,4.89,4.9H84.67A4.89,4.89,0,0,0,89.56,35ZM12.89,72.73h24a3.66,3.66,0,0,0,2.73-1.14,3.81,3.81,0,0,0,1.11-2.76A3.79,3.79,0,0,0,36.94,65h-24a3.66,3.66,0,0,0-2.73,1.14,3.8,3.8,0,0,0-1.1,2.76,3.77,3.77,0,0,0,3.83,3.84Zm11.7-12.22a4,4,0,0,0,3-1.24,4.13,4.13,0,0,0,1.2-3,4.05,4.05,0,0,0-1.2-2.92,4,4,0,0,0-3-1.24,3.91,3.91,0,0,0-2.92,1.2,4.1,4.1,0,0,0-1.17,3,4.18,4.18,0,0,0,1.17,3A3.83,3.83,0,0,0,24.59,60.51Zm0,25.09a4,4,0,0,0,3-1.24,4.05,4.05,0,0,0,1.2-2.92,4.13,4.13,0,0,0-1.2-3,4,4,0,0,0-3-1.24,3.83,3.83,0,0,0-2.92,1.24,4.18,4.18,0,0,0-1.17,3,4.06,4.06,0,0,0,1.17,3A3.88,3.88,0,0,0,24.59,85.6ZM79.79,67a6.07,6.07,0,0,0,3.14-2.36,7,7,0,0,0,1.14-4,6.62,6.62,0,0,0-2.78-5.62A12.44,12.44,0,0,0,73.71,53a12.42,12.42,0,0,0-7.56,2.06,6.58,6.58,0,0,0-2.8,5.62,6.8,6.8,0,0,0,1.12,3.9A6.62,6.62,0,0,0,67.67,67a6.61,6.61,0,0,0-3.76,2.38,7,7,0,0,0-1.32,4.38,6.9,6.9,0,0,0,3,5.94c2,1.42,4.7,2.14,8.14,2.14a13.77,13.77,0,0,0,8.14-2.14,6.93,6.93,0,0,0,3-5.94,6.58,6.58,0,0,0-5-6.76Zm-6.08,9.28q-4.36,0-4.36-3.12t4.36-3.12c2.9,0,4.36,1,4.36,3.12S76.61,76.31,73.71,76.31Zm0-17.76a4.25,4.25,0,0,1,2.68.7,2.73,2.73,0,0,1,.88,2.26,2.8,2.8,0,0,1-.88,2.28,5.35,5.35,0,0,1-5.36,0,2.77,2.77,0,0,1-.88-2.28A2.7,2.7,0,0,1,71,59.25,4.23,4.23,0,0,1,73.71,58.55Z"/></svg>