<svg id="Layer_1" data-name="Layer 1" xmlns="http://www.w3.org/2000/svg" viewBox="0 0 100 100"><title>l21_3_1</title><path d="M80.51,100.22h-61A19.69,19.69,0,0,1-.2,80.53v-61A19.69,19.69,0,0,1,19.49-.17h61A19.69,19.69,0,0,1,100.2,19.52v61A19.69,19.69,0,0,1,80.51,100.22ZM44.1,48.91,27.45,42.46a4.7,4.7,0,0,0-1.55-.3,3,3,0,0,0-2.23.88,3.08,3.08,0,0,0-.87,2.27,2.53,2.53,0,0,0,1.7,2.45l14.85,5.7L24.5,59.16a3,3,0,0,0-1.25,1,2.44,2.44,0,0,0-.45,1.47,3.1,3.1,0,0,0,.87,2.28,3,3,0,0,0,2.23.87,4.39,4.39,0,0,0,1.55-.3L44.1,58a4.64,4.64,0,0,0,2.27-1.75,4.82,4.82,0,0,0,.83-2.8,4.74,4.74,0,0,0-.83-2.72A4.91,4.91,0,0,0,44.1,48.91Zm27.25.8a8.08,8.08,0,0,0,4-3,8.33,8.33,0,0,0,1.43-4.83,8.72,8.72,0,0,0-1.53-5.1,9.75,9.75,0,0,0-4.35-3.4,16.52,16.52,0,0,0-6.52-1.2,20.07,20.07,0,0,0-5.93.9,16.68,16.68,0,0,0-5.07,2.5,4.09,4.09,0,0,0-1.2,1.35,4,4,0,0,0-.35,1.75,4.09,4.09,0,0,0,.85,2.63,2.61,2.61,0,0,0,2.1,1.07A3.28,3.28,0,0,0,56,42.14a15.94,15.94,0,0,0,1.5-.73l1-.5a27.62,27.62,0,0,1,2.72-1.2,7.61,7.61,0,0,1,2.63-.45,4.27,4.27,0,0,1,3.05,1,3.74,3.74,0,0,1,1.1,2.87,2.8,2.8,0,0,1-1.25,2.55,7.59,7.59,0,0,1-4,.8H60.6a2.86,2.86,0,0,0-2.35,1.05,4.1,4.1,0,0,0,0,5,2.86,2.86,0,0,0,2.35,1h3.1a7.57,7.57,0,0,1,4.1.85,3.15,3.15,0,0,1,1.25,2.8,3.47,3.47,0,0,1-1.23,3,6.9,6.9,0,0,1-4,.9,9.18,9.18,0,0,1-2.88-.42,22.62,22.62,0,0,1-2.87-1.23l-.63-.27L57,59q-.95-.49-1.5-.72a3.28,3.28,0,0,0-1.25-.23,2.59,2.59,0,0,0-2.1,1.08,4.06,4.06,0,0,0-.85,2.62,4,4,0,0,0,.35,1.73,3.86,3.86,0,0,0,1.2,1.37A16.26,16.26,0,0,0,58,67.39a22.31,22.31,0,0,0,6.25.87A18.85,18.85,0,0,0,71.32,67,10.54,10.54,0,0,0,76,63.56a8.7,8.7,0,0,0,1.65-5.3A8.86,8.86,0,0,0,76,52.81,8.47,8.47,0,0,0,71.35,49.71Z"/></svg>