<svg id="Layer_1" data-name="Layer 1" xmlns="http://www.w3.org/2000/svg" viewBox="0 0 100 100"><title>l21_5_1</title><path d="M100,14.17V85.83A14.17,14.17,0,0,1,85.79,100H63.89A14.19,14.19,0,0,1,50,88.45,14.17,14.17,0,0,1,36,100H14.14A14.18,14.18,0,0,1,0,85.83V14.17A14.18,14.18,0,0,1,14.14,0H36A14.17,14.17,0,0,1,50,11.55,14.19,14.19,0,0,1,63.89,0h21.9A14.17,14.17,0,0,1,100,14.17ZM38,35V16.71a4.89,4.89,0,0,0-4.89-4.89H14.81a4.89,4.89,0,0,0-4.89,4.89V35a4.89,4.89,0,0,0,4.89,4.9H33.06A4.89,4.89,0,0,0,38,35Zm51.58,0V16.71a4.89,4.89,0,0,0-4.89-4.89H66.39a4.89,4.89,0,0,0-4.89,4.89V35a4.89,4.89,0,0,0,4.89,4.9H84.64A4.89,4.89,0,0,0,89.53,35ZM23.29,72.64a2.59,2.59,0,0,0,1.64-.54,2.37,2.37,0,0,0,.88-1.53,4.21,4.21,0,0,1,1-1.82,21.11,21.11,0,0,1,2.28-2.1c1-.93,1.9-1.72,2.56-2.38a9.23,9.23,0,0,0,1.69-2.39,6.81,6.81,0,0,0,.7-3.06,6.61,6.61,0,0,0-1.31-4A8.62,8.62,0,0,0,29.14,52a12.73,12.73,0,0,0-5.22-1,16.78,16.78,0,0,0-5.2.84,16,16,0,0,0-4.61,2.31A3.84,3.84,0,0,0,13,55.36a3.23,3.23,0,0,0-.34,1.57,3.63,3.63,0,0,0,.79,2.37,2.38,2.38,0,0,0,1.91,1,5.49,5.49,0,0,0,2.48-.85l1.08-.54a15.4,15.4,0,0,1,2.27-1.1,5.65,5.65,0,0,1,2.05-.39,3.05,3.05,0,0,1,2,.59A1.91,1.91,0,0,1,26,59.54a3.32,3.32,0,0,1-.52,1.8,15.1,15.1,0,0,1-1.55,1.94,14.62,14.62,0,0,0-2.25,2.9,7,7,0,0,0-.81,3.53,3.2,3.2,0,0,0,.65,2.16A2.26,2.26,0,0,0,23.29,72.64Zm.09,10.75a4.21,4.21,0,0,0,3.13-1.26,4.51,4.51,0,0,0,0-6.21,4.21,4.21,0,0,0-3.13-1.26,4.13,4.13,0,0,0-3.08,1.26,4.51,4.51,0,0,0,0,6.21A4.13,4.13,0,0,0,23.38,83.39ZM76.21,62.24a8.57,8.57,0,0,0-3.8.84,7.06,7.06,0,0,0-2.77,2.27,11.88,11.88,0,0,1,1.69-5.87A4.29,4.29,0,0,1,75,57.38a6,6,0,0,1,2.07.36c.66.24,1.48.6,2.48,1.08l1,.5a12.73,12.73,0,0,0,1.35.65,3,3,0,0,0,1.12.2,2.38,2.38,0,0,0,1.91-1,3.63,3.63,0,0,0,.79-2.37,3.23,3.23,0,0,0-.34-1.57,3.84,3.84,0,0,0-1.1-1.22,14.39,14.39,0,0,0-4.52-2.25A17.54,17.54,0,0,0,74.63,51a12.15,12.15,0,0,0-7,2A13.13,13.13,0,0,0,63,58.8a21.93,21.93,0,0,0-1.64,8.8q0,7.65,3.47,11.79t9.8,4.14a11.62,11.62,0,0,0,5.72-1.4,10,10,0,0,0,3.94-3.89,12,12,0,0,0,.18-11,9.33,9.33,0,0,0-3.4-3.69A9.14,9.14,0,0,0,76.21,62.24ZM74.14,77.18A3.57,3.57,0,0,1,71.35,76a4.4,4.4,0,0,1-1.08-3.08,4.45,4.45,0,0,1,1.06-3.11,4,4,0,0,1,5.62,0,4.55,4.55,0,0,1,1,3.13,4.5,4.5,0,0,1-1,3.1A3.54,3.54,0,0,1,74.14,77.18Z"/></svg>