<svg id="Layer_1" data-name="Layer 1" xmlns="http://www.w3.org/2000/svg" viewBox="0 0 100 100"><title>l21_4</title><path d="M99.73,14.17V85.83A14.18,14.18,0,0,1,85.55,100H63.65A14.17,14.17,0,0,1,49.73,88.45,14.17,14.17,0,0,1,35.81,100H13.9A14.17,14.17,0,0,1-.27,85.83V14.17A14.17,14.17,0,0,1,13.9,0H35.81A14.17,14.17,0,0,1,49.73,11.55,14.17,14.17,0,0,1,63.65,0h21.9A14.18,14.18,0,0,1,99.73,14.17ZM37.71,35V16.71a4.89,4.89,0,0,0-4.89-4.89H14.58a4.9,4.9,0,0,0-4.9,4.89V35a4.9,4.9,0,0,0,4.9,4.9H32.82A4.89,4.89,0,0,0,37.71,35Zm51.58,0V16.71a4.89,4.89,0,0,0-4.89-4.89H66.16a4.89,4.89,0,0,0-4.89,4.89V35a4.89,4.89,0,0,0,4.89,4.9H84.4A4.89,4.89,0,0,0,89.29,35ZM30,69.3l7-6.95a3.85,3.85,0,0,0,1.17-2.8A3.43,3.43,0,0,0,37,56.89a3.62,3.62,0,0,0-2.74-1.17,3.74,3.74,0,0,0-2.73,1.17l-7,7-7-7a3.84,3.84,0,0,0-2.74-1.24,3.39,3.39,0,0,0-2.66,1.17A3.83,3.83,0,0,0,11,59.62a4,4,0,0,0,1.1,2.73l7,6.95-7,7a3.77,3.77,0,0,0,0,5.46,4,4,0,0,0,2.73,1.11,3.72,3.72,0,0,0,2.74-1.11l7-7,7,7a3.84,3.84,0,0,0,6.57-2.73A3.62,3.62,0,0,0,37,76.32Zm49.8-1.8a6,6,0,0,0,3.14-2.36,6.87,6.87,0,0,0,1.14-4,6.62,6.62,0,0,0-2.78-5.62,12.49,12.49,0,0,0-7.58-2.06,12.48,12.48,0,0,0-7.55,2.06,6.62,6.62,0,0,0-2.81,5.62A6.83,6.83,0,0,0,64.47,65a6.59,6.59,0,0,0,3.2,2.46,6.7,6.7,0,0,0-3.76,2.38,7,7,0,0,0-1.32,4.38,6.9,6.9,0,0,0,3,5.94q3,2.14,8.14,2.14t8.14-2.14a6.88,6.88,0,0,0,3-5.94,6.58,6.58,0,0,0-5-6.76Zm-6.08,9.28c-2.9,0-4.36-1-4.36-3.12s1.46-3.12,4.36-3.12,4.36,1,4.36,3.12S76.62,76.78,73.71,76.78Zm0-17.76a4.29,4.29,0,0,1,2.68.7A2.71,2.71,0,0,1,77.27,62a2.77,2.77,0,0,1-.88,2.28,5.35,5.35,0,0,1-5.36,0A2.79,2.79,0,0,1,70.16,62,2.74,2.74,0,0,1,71,59.72,4.31,4.31,0,0,1,73.71,59Z"/></svg>