<svg id="Layer_1" data-name="Layer 1" xmlns="http://www.w3.org/2000/svg" viewBox="0 0 100 100"><title>l21_3_1</title><path d="M100.21,14.15V85.8A14.17,14.17,0,0,1,86,100H64.13A14.16,14.16,0,0,1,50.21,88.43,14.16,14.16,0,0,1,36.29,100H14.38A14.17,14.17,0,0,1,.21,85.8V14.15A14.18,14.18,0,0,1,14.38,0H36.29A14.17,14.17,0,0,1,50.21,11.52,14.17,14.17,0,0,1,64.13,0H86A14.18,14.18,0,0,1,100.21,14.15Zm-62,20.78V16.69a4.89,4.89,0,0,0-4.89-4.9H15.06a4.89,4.89,0,0,0-4.89,4.9V34.93a4.89,4.89,0,0,0,4.89,4.89H33.3A4.89,4.89,0,0,0,38.19,34.93Zm51.58,0V16.69a4.89,4.89,0,0,0-4.89-4.9H66.64a4.89,4.89,0,0,0-4.89,4.9V34.93a4.89,4.89,0,0,0,4.89,4.89H84.88A4.89,4.89,0,0,0,89.77,34.93ZM62.39,70.22H59.68V54.58a2.86,2.86,0,0,0-.81-2.15,2.91,2.91,0,0,0-2.13-.79,5.57,5.57,0,0,0-2.74.82l-5.28,3.07a2.24,2.24,0,0,0-1.15,2,2.78,2.78,0,0,0,.66,1.8,2,2,0,0,0,1.58.8A2.18,2.18,0,0,0,51,59.85l2.64-1.55V70.22H50.93a3.25,3.25,0,0,0-2.17.59,2.2,2.2,0,0,0-.7,1.78c0,1.63,1,2.45,2.87,2.45H62.39c1.91,0,2.87-.82,2.87-2.45a2.2,2.2,0,0,0-.7-1.78A3.25,3.25,0,0,0,62.39,70.22Zm7.06,5.87,7.49-23.53a3.41,3.41,0,0,0,.13-.72,1.92,1.92,0,0,0-.71-1.55,2.45,2.45,0,0,0-1.63-.6,2.13,2.13,0,0,0-1.27.4,2.17,2.17,0,0,0-.84,1.19L65.12,74.8a2.48,2.48,0,0,0-.13.76,1.9,1.9,0,0,0,.7,1.52,2.38,2.38,0,0,0,1.61.6,2.3,2.3,0,0,0,1.31-.4A2.27,2.27,0,0,0,69.45,76.09Zm22.27-13a5,5,0,0,0,2.59-2,5.72,5.72,0,0,0,.94-3.3A5.47,5.47,0,0,0,93,53.17a10.3,10.3,0,0,0-6.25-1.7,10.33,10.33,0,0,0-6.24,1.7,5.46,5.46,0,0,0-2.31,4.64A5.69,5.69,0,0,0,79.08,61a5.49,5.49,0,0,0,2.64,2,5.48,5.48,0,0,0-3.1,2,5.78,5.78,0,0,0-1.09,3.61A5.69,5.69,0,0,0,80,73.53a11.31,11.31,0,0,0,6.72,1.77,11.29,11.29,0,0,0,6.71-1.77,5.69,5.69,0,0,0,2.46-4.9,5.42,5.42,0,0,0-4.16-5.57Zm-5,7.65q-3.6,0-3.6-2.57t3.6-2.58q3.58,0,3.59,2.58T86.71,70.71Zm0-14.65a3.49,3.49,0,0,1,2.21.58,2.23,2.23,0,0,1,.72,1.86,2.29,2.29,0,0,1-.72,1.88,4.37,4.37,0,0,1-4.42,0,2.26,2.26,0,0,1-.73-1.88,2.21,2.21,0,0,1,.73-1.86A3.48,3.48,0,0,1,86.71,56.06ZM34.15,59.29l-20-7.73a5.39,5.39,0,0,0-1.86-.36,3.62,3.62,0,0,0-2.67,1A3.69,3.69,0,0,0,8.59,55a3.09,3.09,0,0,0,.54,1.81,3,3,0,0,0,1.5,1.13l17.82,6.85L10.63,71.6a3.55,3.55,0,0,0-1.5,1.17,3,3,0,0,0-.54,1.77,3.69,3.69,0,0,0,1.05,2.73,3.61,3.61,0,0,0,2.67,1A5.07,5.07,0,0,0,14.17,78l20-7.73a5.65,5.65,0,0,0,2.73-2.1,5.78,5.78,0,0,0,1-3.36,5.73,5.73,0,0,0-1-3.27A6,6,0,0,0,34.15,59.29Z"/></svg>