<svg id="Layer_1" data-name="Layer 1" xmlns="http://www.w3.org/2000/svg" viewBox="0 0 100 100"><title>l21_5_1</title><path d="M100,13.9V85.56A14.17,14.17,0,0,1,85.79,99.73H63.89A14.19,14.19,0,0,1,50,88.18,14.17,14.17,0,0,1,36,99.73H14.14A14.18,14.18,0,0,1,0,85.56V13.9A14.18,14.18,0,0,1,14.14-.27H36A14.17,14.17,0,0,1,50,11.28,14.19,14.19,0,0,1,63.89-.27h21.9A14.17,14.17,0,0,1,100,13.9ZM38,34.68V16.44a4.89,4.89,0,0,0-4.89-4.89H14.81a4.89,4.89,0,0,0-4.89,4.89V34.68a4.89,4.89,0,0,0,4.89,4.9H33.06A4.89,4.89,0,0,0,38,34.68Zm51.58,0V16.44a4.89,4.89,0,0,0-4.89-4.89H66.39a4.89,4.89,0,0,0-4.89,4.89V34.68a4.89,4.89,0,0,0,4.89,4.9H84.64A4.89,4.89,0,0,0,89.53,34.68ZM31.46,51H13.82a4.39,4.39,0,0,0-3,.84,3.13,3.13,0,0,0-.95,2.49,3.05,3.05,0,0,0,.93,2.43,4.47,4.47,0,0,0,3,.81H25.07L13.5,77.33a4.25,4.25,0,0,0-.63,2.16,3.32,3.32,0,0,0,1.22,2.59,4.14,4.14,0,0,0,2.79,1,3.88,3.88,0,0,0,1.91-.51A4.19,4.19,0,0,0,20.34,81L34,57.39a5.74,5.74,0,0,0,.85-3A3.53,3.53,0,0,0,34,52,3.23,3.23,0,0,0,31.46,51ZM57.69,67.11H52V61.44a2.66,2.66,0,1,0-5.31,0v5.67H41a2.61,2.61,0,0,0-2.65,2.66,2.62,2.62,0,0,0,.76,1.91,2.51,2.51,0,0,0,1.89.79h5.67v5.62a2.63,2.63,0,0,0,2.66,2.66A2.54,2.54,0,0,0,51.28,80,2.59,2.59,0,0,0,52,78.09V72.47h5.67a2.51,2.51,0,0,0,1.89-.79,2.63,2.63,0,0,0,.77-1.91,2.63,2.63,0,0,0-2.66-2.66Zm27.05,9h-9l6.39-6.53a21.11,21.11,0,0,0,3.76-5.06,11.4,11.4,0,0,0,1.1-5,8.29,8.29,0,0,0-1.37-4.7,8.87,8.87,0,0,0-3.89-3.15,14.57,14.57,0,0,0-5.85-1.1,18.33,18.33,0,0,0-10,3.06,2.94,2.94,0,0,0-1.1,1.17,3.79,3.79,0,0,0-.29,1.62,3.89,3.89,0,0,0,.76,2.41,2.3,2.3,0,0,0,1.89,1,2.72,2.72,0,0,0,.86-.14,5.87,5.87,0,0,0,.92-.42c.34-.2.58-.33.7-.39l.9-.45a22.2,22.2,0,0,1,2.54-1.1A7.47,7.47,0,0,1,75.47,57a3.56,3.56,0,0,1,2.5.81,3,3,0,0,1,.87,2.34q0,2.61-3,5.71l-9.54,10a4.93,4.93,0,0,0-1.53,3.51,3.36,3.36,0,0,0,1,2.45,3.39,3.39,0,0,0,2.56,1H84.74a4.49,4.49,0,0,0,2.94-.81,3.09,3.09,0,0,0,1-2.52,3,3,0,0,0-1-2.45A4.55,4.55,0,0,0,84.74,76.16Z"/></svg>