<svg id="Layer_1" data-name="Layer 1" xmlns="http://www.w3.org/2000/svg" viewBox="0 0 100 100"><title>l21_3_1</title><path d="M100,14.17V85.83A14.18,14.18,0,0,1,85.85,100H64A14.17,14.17,0,0,1,50,88.45,14.17,14.17,0,0,1,36.11,100H14.2A14.17,14.17,0,0,1,0,85.83V14.17A14.17,14.17,0,0,1,14.2,0H36.11A14.17,14.17,0,0,1,50,11.55,14.17,14.17,0,0,1,64,0h21.9A14.18,14.18,0,0,1,100,14.17ZM38,35V16.71a4.89,4.89,0,0,0-4.89-4.89H14.88A4.89,4.89,0,0,0,10,16.71V35a4.9,4.9,0,0,0,4.9,4.9H33.12A4.89,4.89,0,0,0,38,35Zm51.58,0V16.71a4.89,4.89,0,0,0-4.89-4.89H66.46a4.89,4.89,0,0,0-4.89,4.89V35a4.89,4.89,0,0,0,4.89,4.9H84.7A4.89,4.89,0,0,0,89.59,35ZM54.22,73.51h8.27a4,4,0,0,0,2.75-.82,2.88,2.88,0,0,0,.9-2.26,2.84,2.84,0,0,0-.9-2.25,4.12,4.12,0,0,0-2.75-.79H54.22q-3.66,0-3.66,3T54.22,73.51Zm36.6-2.64h-1V55A3.73,3.73,0,0,0,88.67,52,4.14,4.14,0,0,0,85.81,51a4.37,4.37,0,0,0-2,.46,4.11,4.11,0,0,0-1.56,1.34l-12.59,18a4.94,4.94,0,0,0-1,2.9,3.34,3.34,0,0,0,.92,2.42,3.29,3.29,0,0,0,2.51,1H82v1.49a3.93,3.93,0,0,0,1.08,3,4,4,0,0,0,2.84,1,4.09,4.09,0,0,0,2.86-1,3.9,3.9,0,0,0,1.1-3V77h1c2.56,0,3.83-1,3.83-3.13S93.38,70.87,90.82,70.87Zm-14.12,0L82,63.26v7.61ZM34.65,62.52l-20-7.74a5.64,5.64,0,0,0-1.86-.36,3.66,3.66,0,0,0-2.67,1A3.71,3.71,0,0,0,9.09,58.2,3,3,0,0,0,9.63,60a3.09,3.09,0,0,0,1.5,1.14L29,68,11.13,74.82A3.63,3.63,0,0,0,9.63,76a3,3,0,0,0-.54,1.77,3.68,3.68,0,0,0,1.05,2.73,3.62,3.62,0,0,0,2.67,1.05,5.28,5.28,0,0,0,1.86-.36l20-7.74a5.65,5.65,0,0,0,2.73-2.1,6,6,0,0,0,0-6.63A5.94,5.94,0,0,0,34.65,62.52Z"/></svg>