<svg id="Layer_1" data-name="Layer 1" xmlns="http://www.w3.org/2000/svg" viewBox="0 0 100 100"><title>l21_4</title><path d="M100.25,14.17V85.83A14.17,14.17,0,0,1,86.08,100H64.17A14.18,14.18,0,0,1,50.25,88.45,14.17,14.17,0,0,1,36.33,100H14.43A14.18,14.18,0,0,1,.25,85.83V14.17A14.18,14.18,0,0,1,14.43,0h21.9A14.17,14.17,0,0,1,50.25,11.55,14.18,14.18,0,0,1,64.17,0H86.08A14.17,14.17,0,0,1,100.25,14.17ZM38.24,35V16.71a4.89,4.89,0,0,0-4.9-4.89H15.1a4.89,4.89,0,0,0-4.89,4.89V35a4.89,4.89,0,0,0,4.89,4.9H33.34A4.9,4.9,0,0,0,38.24,35Zm51.58,0V16.71a4.89,4.89,0,0,0-4.9-4.89H66.68a4.89,4.89,0,0,0-4.89,4.89V35a4.89,4.89,0,0,0,4.89,4.9H84.92A4.9,4.9,0,0,0,89.82,35ZM30.52,69.3l7-6.95a3.82,3.82,0,0,0,1.17-2.8,3.39,3.39,0,0,0-1.17-2.66,3.62,3.62,0,0,0-2.73-1.17,3.74,3.74,0,0,0-2.73,1.17l-7,7-7-7a3.8,3.8,0,0,0-2.73-1.24,3.43,3.43,0,0,0-2.67,1.17,3.83,3.83,0,0,0-1.17,2.8,4,4,0,0,0,1.11,2.73l7,6.95-7,7a3.77,3.77,0,0,0,0,5.46,4,4,0,0,0,2.73,1.11A3.71,3.71,0,0,0,18,81.78l7-7,7,7a3.77,3.77,0,0,0,5.46,0,3.67,3.67,0,0,0,1.1-2.73,3.58,3.58,0,0,0-1.1-2.73Zm52.14,6.88h-8l5.68-5.8a18.59,18.59,0,0,0,3.34-4.5,10.1,10.1,0,0,0,1-4.46,7.38,7.38,0,0,0-1.22-4.18,7.87,7.87,0,0,0-3.46-2.8,12.93,12.93,0,0,0-5.2-1,16.28,16.28,0,0,0-8.84,2.72,2.65,2.65,0,0,0-1,1,3.53,3.53,0,0,0-.26,1.44,3.46,3.46,0,0,0,.68,2.14,2,2,0,0,0,1.68.9,2.37,2.37,0,0,0,.76-.12,4.42,4.42,0,0,0,.82-.38l.62-.34.8-.4a21.23,21.23,0,0,1,2.26-1,6.67,6.67,0,0,1,2.14-.34,3.15,3.15,0,0,1,2.22.72,2.7,2.7,0,0,1,.78,2.08q0,2.33-2.64,5.08L66.3,75.86A4.39,4.39,0,0,0,64.94,79a2.92,2.92,0,0,0,3.12,3h14.6a4,4,0,0,0,2.62-.72,2.76,2.76,0,0,0,.86-2.24,2.67,2.67,0,0,0-.86-2.18A4.14,4.14,0,0,0,82.66,76.18Z"/></svg>