<svg id="Layer_1" data-name="Layer 1" xmlns="http://www.w3.org/2000/svg" viewBox="0 0 100 100"><title>l21_3_1</title><path d="M100,14.17V85.83A14.18,14.18,0,0,1,85.83,100H63.92A14.17,14.17,0,0,1,50,88.45,14.17,14.17,0,0,1,36.08,100H14.17A14.18,14.18,0,0,1,0,85.83V14.17A14.18,14.18,0,0,1,14.17,0H36.08A14.17,14.17,0,0,1,50,11.55,14.17,14.17,0,0,1,63.92,0H85.83A14.18,14.18,0,0,1,100,14.17ZM37.44,35V16.77a4.9,4.9,0,0,0-4.9-4.9H14.3a4.89,4.89,0,0,0-4.89,4.9V35A4.89,4.89,0,0,0,14.3,39.9H32.54A4.89,4.89,0,0,0,37.44,35ZM89,35V16.77a4.89,4.89,0,0,0-4.89-4.9H65.88A4.89,4.89,0,0,0,61,16.77V35a4.89,4.89,0,0,0,4.89,4.89H84.13A4.89,4.89,0,0,0,89,35ZM22.78,70.51A2.61,2.61,0,0,0,24.42,70a2.41,2.41,0,0,0,.87-1.53,4.32,4.32,0,0,1,1-1.83,21,21,0,0,1,2.27-2.09c1.05-.93,1.91-1.72,2.57-2.38a9.21,9.21,0,0,0,1.68-2.39,7,7,0,0,0-.6-7.09,8.85,8.85,0,0,0-3.6-2.79,13,13,0,0,0-5.22-1,17,17,0,0,0-5.2.83A16.29,16.29,0,0,0,13.59,52a4.1,4.1,0,0,0-1.1,1.22,3.35,3.35,0,0,0-.33,1.57,3.63,3.63,0,0,0,.78,2.36,2.38,2.38,0,0,0,1.92,1,5.46,5.46,0,0,0,2.47-.85l1.08-.54a17.24,17.24,0,0,1,2.27-1.11,5.9,5.9,0,0,1,2.05-.38,3.05,3.05,0,0,1,2,.59,1.91,1.91,0,0,1,.72,1.57,3.24,3.24,0,0,1-.52,1.8,14.27,14.27,0,0,1-1.55,1.94,14.62,14.62,0,0,0-2.25,2.9,7,7,0,0,0-.81,3.53A3.26,3.26,0,0,0,21,69.74,2.29,2.29,0,0,0,22.78,70.51Zm.09,10.75A4.17,4.17,0,0,0,26,80a4.51,4.51,0,0,0,0-6.21,4.17,4.17,0,0,0-3.12-1.26,4.15,4.15,0,0,0-3.09,1.26,4.51,4.51,0,0,0,0,6.21A4.15,4.15,0,0,0,22.87,81.26Zm33.84-8.1L43.34,68,56.71,62.9a2.28,2.28,0,0,0,1.53-2.2,2.79,2.79,0,0,0-.79-2.05,2.71,2.71,0,0,0-2-.79,4.21,4.21,0,0,0-1.4.27l-15,5.81a4.37,4.37,0,0,0-2,1.64A4.24,4.24,0,0,0,36.27,68,4.31,4.31,0,0,0,37,70.55a4.2,4.2,0,0,0,2,1.58l15,5.8a4.21,4.21,0,0,0,1.4.27,2.71,2.71,0,0,0,2-.79,2.77,2.77,0,0,0,.79-2A2.21,2.21,0,0,0,57.83,74,2.68,2.68,0,0,0,56.71,73.16ZM80,64.66a7.31,7.31,0,0,0,3.58-2.73,7.5,7.5,0,0,0,1.28-4.34A7.89,7.89,0,0,0,83.46,53a8.82,8.82,0,0,0-3.92-3.06,14.88,14.88,0,0,0-5.87-1.08,18,18,0,0,0-5.33.81,14.89,14.89,0,0,0-4.57,2.25,3.64,3.64,0,0,0-1.08,1.22,3.49,3.49,0,0,0-.31,1.57,3.67,3.67,0,0,0,.76,2.36A2.31,2.31,0,0,0,65,58a3.11,3.11,0,0,0,1.13-.2c.32-.14.77-.35,1.34-.65l1-.45a24.77,24.77,0,0,1,2.45-1.08,6.81,6.81,0,0,1,2.36-.41,3.91,3.91,0,0,1,2.75.92,3.38,3.38,0,0,1,1,2.59,2.55,2.55,0,0,1-1.12,2.3,6.93,6.93,0,0,1-3.61.72h-2a2.56,2.56,0,0,0-2.11.94,3.71,3.71,0,0,0,0,4.5,2.57,2.57,0,0,0,2.11,1h2.8a6.76,6.76,0,0,1,3.68.76,2.83,2.83,0,0,1,1.13,2.52,3.14,3.14,0,0,1-1.1,2.7,6.28,6.28,0,0,1-3.63.81,8.23,8.23,0,0,1-2.58-.38A20.51,20.51,0,0,1,68,73.48l-.56-.25L67,73q-.86-.45-1.35-.66a3,3,0,0,0-1.12-.2,2.32,2.32,0,0,0-1.9,1,3.67,3.67,0,0,0-.76,2.36,3.2,3.2,0,0,0,1.39,2.79A14.42,14.42,0,0,0,68,80.56a19.72,19.72,0,0,0,5.62.79A17,17,0,0,0,80,80.25a9.47,9.47,0,0,0,4.21-3.13,8.57,8.57,0,0,0,0-9.67A7.63,7.63,0,0,0,80,64.66Z"/></svg>