<svg id="Layer_1" data-name="Layer 1" xmlns="http://www.w3.org/2000/svg" viewBox="0 0 100 100"><title>l21_4</title><path d="M100.25,14.17V85.83A14.17,14.17,0,0,1,86.08,100H64.17A14.18,14.18,0,0,1,50.25,88.45,14.17,14.17,0,0,1,36.33,100H14.43A14.18,14.18,0,0,1,.25,85.83V14.17A14.18,14.18,0,0,1,14.43,0h21.9A14.17,14.17,0,0,1,50.25,11.55,14.18,14.18,0,0,1,64.17,0H86.08A14.17,14.17,0,0,1,100.25,14.17ZM38.24,35V16.71a4.89,4.89,0,0,0-4.9-4.89H15.1a4.89,4.89,0,0,0-4.89,4.89V35a4.89,4.89,0,0,0,4.89,4.9H33.34A4.9,4.9,0,0,0,38.24,35Zm51.58,0V16.71a4.89,4.89,0,0,0-4.9-4.89H66.68a4.89,4.89,0,0,0-4.89,4.89V35a4.89,4.89,0,0,0,4.89,4.9H84.92A4.9,4.9,0,0,0,89.82,35ZM30.52,69.3l7-6.95a3.82,3.82,0,0,0,1.17-2.8,3.39,3.39,0,0,0-1.17-2.66,3.62,3.62,0,0,0-2.73-1.17,3.74,3.74,0,0,0-2.73,1.17l-7,7-7-7a3.8,3.8,0,0,0-2.73-1.24,3.43,3.43,0,0,0-2.67,1.17,3.83,3.83,0,0,0-1.17,2.8,4,4,0,0,0,1.11,2.73l7,6.95-7,7a3.77,3.77,0,0,0,0,5.46,4,4,0,0,0,2.73,1.11A3.71,3.71,0,0,0,18,81.78l7-7,7,7a3.77,3.77,0,0,0,5.46,0,3.67,3.67,0,0,0,1.1-2.73,3.58,3.58,0,0,0-1.1-2.73Zm53.32,2.36H83V57.22a3.41,3.41,0,0,0-1.08-2.68,3.78,3.78,0,0,0-2.6-1A4,4,0,0,0,77.5,54a3.71,3.71,0,0,0-1.42,1.22L64.64,71.54a4.47,4.47,0,0,0-.88,2.64,3,3,0,0,0,.84,2.2,3,3,0,0,0,2.28.88H75.8v1.36a3.3,3.3,0,0,0,3.56,3.64,3.66,3.66,0,0,0,2.6-.92,3.5,3.5,0,0,0,1-2.72V77.26h.88c2.32,0,3.48-.94,3.48-2.84S86.16,71.66,83.84,71.66ZM71,71.66l4.8-6.92v6.92Z"/></svg>