<svg id="Layer_1" data-name="Layer 1" xmlns="http://www.w3.org/2000/svg" viewBox="0 0 100 100"><title>l21_5_1</title><path d="M100,14.17V85.83A14.18,14.18,0,0,1,85.83,100H63.92A14.17,14.17,0,0,1,50,88.45,14.17,14.17,0,0,1,36.08,100H14.17A14.18,14.18,0,0,1,0,85.83V14.17A14.18,14.18,0,0,1,14.17,0H36.08A14.17,14.17,0,0,1,50,11.55,14.17,14.17,0,0,1,63.92,0H85.83A14.18,14.18,0,0,1,100,14.17ZM38,35V16.71a4.89,4.89,0,0,0-4.89-4.89H14.85A4.89,4.89,0,0,0,10,16.71V35a4.89,4.89,0,0,0,4.89,4.9H33.09A4.89,4.89,0,0,0,38,35Zm51.58,0V16.71a4.89,4.89,0,0,0-4.89-4.89H66.43a4.89,4.89,0,0,0-4.89,4.89V35a4.89,4.89,0,0,0,4.89,4.9H84.67A4.89,4.89,0,0,0,89.56,35ZM23.13,72.78a2.61,2.61,0,0,0,1.64-.54,2.41,2.41,0,0,0,.87-1.53,4.32,4.32,0,0,1,1-1.83,21,21,0,0,1,2.27-2.09c1.05-.93,1.91-1.72,2.57-2.38A9.21,9.21,0,0,0,33.18,62a7,7,0,0,0-.6-7.09A8.82,8.82,0,0,0,29,52.14a12.88,12.88,0,0,0-5.21-1,17,17,0,0,0-5.2.83,16.29,16.29,0,0,0-4.62,2.32,4,4,0,0,0-1.1,1.22,3.35,3.35,0,0,0-.33,1.57,3.63,3.63,0,0,0,.78,2.36,2.38,2.38,0,0,0,1.92,1,5.46,5.46,0,0,0,2.47-.85L18.76,59A17.24,17.24,0,0,1,21,57.9a5.9,5.9,0,0,1,2-.38,3.05,3.05,0,0,1,2,.59,1.91,1.91,0,0,1,.72,1.57,3.24,3.24,0,0,1-.52,1.8,14.27,14.27,0,0,1-1.55,1.94,14.62,14.62,0,0,0-2.25,2.9,7,7,0,0,0-.81,3.53A3.26,3.26,0,0,0,21.3,72,2.28,2.28,0,0,0,23.13,72.78Zm.09,10.75a4.27,4.27,0,0,0,4.36-4.36,4.25,4.25,0,0,0-1.24-3.11,4.46,4.46,0,0,0-6.21,0,4.51,4.51,0,0,0,0,6.21A4.15,4.15,0,0,0,23.22,83.53Zm52.33-21a11.28,11.28,0,0,0-4.46.81V57.79h9.72q3.91,0,3.92-3.15t-3.92-3.1h-14a3.82,3.82,0,0,0-2.83,1,3.9,3.9,0,0,0-1,2.88V67.6a2.47,2.47,0,0,0,.85,2A3.15,3.15,0,0,0,66,70.3a4.28,4.28,0,0,0,2-.49A16.11,16.11,0,0,1,70.62,69a12.29,12.29,0,0,1,2.45-.23,5.09,5.09,0,0,1,3.51,1.13,4,4,0,0,1,1.26,3.15,3.9,3.9,0,0,1-1.21,3.17,5.8,5.8,0,0,1-3.74,1,7.39,7.39,0,0,1-2.49-.4,24.67,24.67,0,0,1-2.55-1.08L67,75.3a14,14,0,0,0-1.35-.68,3,3,0,0,0-1.12-.18,2.31,2.31,0,0,0-1.89,1,3.7,3.7,0,0,0-.77,2.36,3.38,3.38,0,0,0,.34,1.55,4,4,0,0,0,1.06,1.24,14.9,14.9,0,0,0,4.61,2.25,18.82,18.82,0,0,0,5.47.81,14.58,14.58,0,0,0,6.43-1.35,10.12,10.12,0,0,0,4.32-3.82,11.59,11.59,0,0,0,.25-11,9,9,0,0,0-3.55-3.6A10.36,10.36,0,0,0,75.55,62.52Z"/></svg>