<svg id="Layer_1" data-name="Layer 1" xmlns="http://www.w3.org/2000/svg" viewBox="0 0 100 100"><title>l21_5_1</title><path d="M100,14.17V85.83A14.18,14.18,0,0,1,85.83,100H63.92A14.17,14.17,0,0,1,50,88.45,14.17,14.17,0,0,1,36.08,100H14.17A14.18,14.18,0,0,1,0,85.83V14.17A14.18,14.18,0,0,1,14.17,0H36.08A14.17,14.17,0,0,1,50,11.55,14.17,14.17,0,0,1,63.92,0H85.83A14.18,14.18,0,0,1,100,14.17ZM38,35V16.71a4.89,4.89,0,0,0-4.89-4.89H14.85A4.89,4.89,0,0,0,10,16.71V35a4.89,4.89,0,0,0,4.89,4.9H33.09A4.89,4.89,0,0,0,38,35Zm51.58,0V16.71a4.89,4.89,0,0,0-4.89-4.89H66.43a4.89,4.89,0,0,0-4.89,4.89V35a4.89,4.89,0,0,0,4.89,4.9H84.67A4.89,4.89,0,0,0,89.56,35Zm-5.66,42H74.85l6.39-6.52A21.31,21.31,0,0,0,85,65.35a11.44,11.44,0,0,0,1.1-5,8.26,8.26,0,0,0-1.37-4.7,8.74,8.74,0,0,0-3.89-3.15A14.4,14.4,0,0,0,75,51.37,18.33,18.33,0,0,0,65,54.43a3,3,0,0,0-1.1,1.17,3.79,3.79,0,0,0-.29,1.62,3.87,3.87,0,0,0,.76,2.41,2.28,2.28,0,0,0,1.89,1,2.71,2.71,0,0,0,.86-.13,5.2,5.2,0,0,0,.92-.43l.7-.38.9-.45a20.55,20.55,0,0,1,2.54-1.1,7.21,7.21,0,0,1,2.41-.39,3.56,3.56,0,0,1,2.5.81A3,3,0,0,1,78,60.91q0,2.61-3,5.72l-9.54,9.94A4.93,4.93,0,0,0,64,80.08a3.28,3.28,0,0,0,3.51,3.42H83.9a4.49,4.49,0,0,0,2.94-.81,3.09,3.09,0,0,0,1-2.52,3,3,0,0,0-1-2.45A4.61,4.61,0,0,0,83.9,76.93Zm-62,3.84a4,4,0,0,0,2-1c.35-.31.67-.66,1-1l1.75-1.69L29.85,74l3.49-3.42,3.25-3.18,3.61-3.54,2-2c.54-.52,1.07-1.07,1.63-1.58a4.34,4.34,0,0,0,1.54-3.95,4.12,4.12,0,0,0-1.94-3A4.18,4.18,0,0,0,41,52.69a4.13,4.13,0,0,0-2.73,1.16c-.72.68-1.42,1.39-2.12,2.09L32.61,59.4l-1.8,1.79-3,2.93-2.65,2.61c-.59.58-1.2,1.15-1.78,1.73l-2.12,2.09a.21.21,0,0,1-.34,0l-.7-.68-1.74-1.69-2.36-2.33c-.53-.52-1.07-1-1.59-1.55a4.21,4.21,0,0,0-2.34-1.19,4.27,4.27,0,0,0-1.59.06,4.24,4.24,0,0,0-2.76,2.07,4.21,4.21,0,0,0-.51,2.54,4.27,4.27,0,0,0,1.32,2.61L11,72.67l3.3,3.25L16.42,78c.65.63,1.28,1.28,1.95,1.88a4.08,4.08,0,0,0,2.72,1C21.37,80.84,21.65,80.82,21.92,80.77Z"/></svg>