<svg id="Layer_1" data-name="Layer 1" xmlns="http://www.w3.org/2000/svg" viewBox="0 0 100 100"><title>l21_5_1</title><path d="M100,14.17V85.83A14.18,14.18,0,0,1,85.83,100H63.92A14.17,14.17,0,0,1,50,88.45,14.17,14.17,0,0,1,36.08,100H14.17A14.18,14.18,0,0,1,0,85.83V14.17A14.18,14.18,0,0,1,14.17,0H36.08A14.17,14.17,0,0,1,50,11.55,14.17,14.17,0,0,1,63.92,0H85.83A14.18,14.18,0,0,1,100,14.17ZM38,35V16.71a4.89,4.89,0,0,0-4.89-4.89H14.85A4.89,4.89,0,0,0,10,16.71V35a4.89,4.89,0,0,0,4.89,4.9H33.09A4.89,4.89,0,0,0,38,35Zm51.58,0V16.71a4.89,4.89,0,0,0-4.89-4.89H66.43a4.89,4.89,0,0,0-4.89,4.89V35a4.89,4.89,0,0,0,4.89,4.9H84.67A4.89,4.89,0,0,0,89.56,35Zm-4.47,42H81.4V55.6a3.91,3.91,0,0,0-1.1-2.92,4,4,0,0,0-2.91-1.08,7.58,7.58,0,0,0-3.73,1.12l-7.2,4.19a3.05,3.05,0,0,0-1.57,2.79,3.72,3.72,0,0,0,.9,2.45,2.67,2.67,0,0,0,2.15,1.1,3.09,3.09,0,0,0,1.58-.45l3.6-2.11V76.93H69.47a4.49,4.49,0,0,0-3,.81,3,3,0,0,0-1,2.43c0,2.22,1.31,3.33,3.91,3.33H85.09Q89,83.5,89,80.17a3,3,0,0,0-1-2.43A4.5,4.5,0,0,0,85.09,76.93ZM21.92,80.77a4,4,0,0,0,2-1c.35-.31.67-.66,1-1l1.75-1.69L29.85,74l3.49-3.42,3.25-3.18,3.61-3.54,2-2c.54-.52,1.07-1.07,1.63-1.58a4.34,4.34,0,0,0,1.54-3.95,4.12,4.12,0,0,0-1.94-3A4.18,4.18,0,0,0,41,52.69a4.13,4.13,0,0,0-2.73,1.16c-.72.68-1.42,1.39-2.12,2.09L32.61,59.4l-1.8,1.79-3,2.93-2.65,2.61c-.59.58-1.2,1.15-1.78,1.73l-2.12,2.09a.21.21,0,0,1-.34,0l-.7-.68-1.74-1.69-2.36-2.33c-.53-.52-1.07-1-1.59-1.55a4.21,4.21,0,0,0-2.34-1.19,4.27,4.27,0,0,0-1.59.06,4.24,4.24,0,0,0-2.76,2.07,4.21,4.21,0,0,0-.51,2.54,4.27,4.27,0,0,0,1.32,2.61L11,72.67l3.3,3.25L16.42,78c.65.63,1.28,1.28,1.95,1.88a4.08,4.08,0,0,0,2.72,1C21.37,80.84,21.65,80.82,21.92,80.77Z"/></svg>