<svg id="Layer_1" data-name="Layer 1" xmlns="http://www.w3.org/2000/svg" viewBox="0 0 100 100"><title>l21_1_1</title><path d="M100,14V85.66A14.18,14.18,0,0,1,85.85,99.83H64A14.17,14.17,0,0,1,50,88.28,14.18,14.18,0,0,1,36.11,99.83H14.2A14.17,14.17,0,0,1,0,85.66V14A14.17,14.17,0,0,1,14.2-.17H36.11A14.18,14.18,0,0,1,50,11.38,14.17,14.17,0,0,1,64-.17h21.9A14.18,14.18,0,0,1,100,14ZM29.62,62.65a8.57,8.57,0,0,0-3.8.84,7.06,7.06,0,0,0-2.77,2.27,11.88,11.88,0,0,1,1.69-5.87,4.29,4.29,0,0,1,3.71-2.1,6,6,0,0,1,2.07.36c.66.24,1.48.6,2.47,1.08l1,.5a13.79,13.79,0,0,0,1.34.65,2.88,2.88,0,0,0,1.13.2,2.38,2.38,0,0,0,1.91-1,3.63,3.63,0,0,0,.79-2.37,3.23,3.23,0,0,0-.34-1.57,3.84,3.84,0,0,0-1.1-1.22,14.39,14.39,0,0,0-4.52-2.25A17.54,17.54,0,0,0,28,51.4a12.15,12.15,0,0,0-7,2,13.13,13.13,0,0,0-4.64,5.78A21.93,21.93,0,0,0,14.77,68q0,7.65,3.47,11.79T28,83.94a11.62,11.62,0,0,0,5.72-1.4,10,10,0,0,0,3.94-3.89,12.09,12.09,0,0,0,.18-11A9.4,9.4,0,0,0,34.48,64,9.14,9.14,0,0,0,29.62,62.65ZM27.55,77.59a3.57,3.57,0,0,1-2.79-1.19,4.4,4.4,0,0,1-1.08-3.08,4.45,4.45,0,0,1,1.06-3.11A3.59,3.59,0,0,1,27.55,69a3.56,3.56,0,0,1,2.81,1.15,4.55,4.55,0,0,1,1,3.13,4.5,4.5,0,0,1-1,3.1A3.54,3.54,0,0,1,27.55,77.59Zm18.67-3h8.46a4.13,4.13,0,0,0,2.82-.83,3,3,0,0,0,.92-2.32,2.92,2.92,0,0,0-.92-2.3,4.18,4.18,0,0,0-2.82-.81H46.22q-3.73,0-3.73,3.11T46.22,74.58ZM79.7,67.2a7.31,7.31,0,0,0,3.58-2.72,7.48,7.48,0,0,0,1.28-4.35,7.82,7.82,0,0,0-1.37-4.59,8.79,8.79,0,0,0-3.91-3.06A15,15,0,0,0,73.4,51.4a18,18,0,0,0-5.33.81,15,15,0,0,0-4.57,2.25,3.64,3.64,0,0,0-1.08,1.22,3.49,3.49,0,0,0-.31,1.57,3.72,3.72,0,0,0,.76,2.37,2.33,2.33,0,0,0,1.89,1,2.88,2.88,0,0,0,1.13-.2,14.94,14.94,0,0,0,1.35-.65l.94-.45a23.87,23.87,0,0,1,2.46-1.08A6.77,6.77,0,0,1,73,57.79a3.84,3.84,0,0,1,2.74.93,3.34,3.34,0,0,1,1,2.58,2.53,2.53,0,0,1-1.12,2.3,6.89,6.89,0,0,1-3.6.72H70a2.58,2.58,0,0,0-2.12.94,3.71,3.71,0,0,0,0,4.5,2.59,2.59,0,0,0,2.12.95h2.79a6.77,6.77,0,0,1,3.69.76A2.82,2.82,0,0,1,77.63,74a3.11,3.11,0,0,1-1.1,2.7,6.22,6.22,0,0,1-3.62.81,8.06,8.06,0,0,1-2.59-.38A19.69,19.69,0,0,1,67.73,76l-.56-.25-.43-.2a14.94,14.94,0,0,0-1.35-.65,2.83,2.83,0,0,0-1.12-.21,2.34,2.34,0,0,0-1.89,1A3.7,3.7,0,0,0,61.61,78,3.15,3.15,0,0,0,63,80.83a14.58,14.58,0,0,0,4.68,2.28,20.13,20.13,0,0,0,5.62.78,16.79,16.79,0,0,0,6.37-1.1,9.41,9.41,0,0,0,4.21-3.13,7.84,7.84,0,0,0,1.48-4.77,8,8,0,0,0-1.5-4.9A7.69,7.69,0,0,0,79.7,67.2Zm-41-34.26V14.69A4.89,4.89,0,0,0,33.81,9.8H15.57a4.89,4.89,0,0,0-4.89,4.89V32.94a4.89,4.89,0,0,0,4.89,4.89H33.81A4.89,4.89,0,0,0,38.7,32.94Zm51.58,0V14.69A4.89,4.89,0,0,0,85.39,9.8H67.15a4.89,4.89,0,0,0-4.89,4.89V32.94a4.89,4.89,0,0,0,4.89,4.89H85.39A4.89,4.89,0,0,0,90.28,32.94Z"/></svg>