<svg id="Layer_1" data-name="Layer 1" xmlns="http://www.w3.org/2000/svg" viewBox="0 0 100 100"><title>l21_1_1</title><path d="M100,14V85.66A14.18,14.18,0,0,1,85.85,99.83H64A14.17,14.17,0,0,1,50,88.28,14.18,14.18,0,0,1,36.11,99.83H14.2A14.17,14.17,0,0,1,0,85.66V14A14.17,14.17,0,0,1,14.2-.17H36.11A14.18,14.18,0,0,1,50,11.38,14.17,14.17,0,0,1,64-.17h21.9A14.18,14.18,0,0,1,100,14ZM36.57,71.88h-1V55.63a3.81,3.81,0,0,0-1.21-3,4.26,4.26,0,0,0-2.93-1.08,4.55,4.55,0,0,0-2,.47,4.15,4.15,0,0,0-1.6,1.37L15,71.74a5,5,0,0,0-1,3,3.46,3.46,0,0,0,.95,2.48,3.37,3.37,0,0,0,2.56,1h10v1.53a4,4,0,0,0,1.1,3.06,4.05,4.05,0,0,0,2.9,1,4.16,4.16,0,0,0,2.93-1,4,4,0,0,0,1.12-3.06V78.18h1q3.91,0,3.92-3.2T36.57,71.88Zm-14.44,0,5.4-7.79v7.79Zm24.07,2.7h8.46a4.1,4.1,0,0,0,2.81-.83,3,3,0,0,0,.93-2.32,2.89,2.89,0,0,0-.93-2.3,4.15,4.15,0,0,0-2.81-.81H46.2q-3.73,0-3.73,3.11T46.2,74.58ZM82.34,77h-9l6.39-6.52a21.31,21.31,0,0,0,3.76-5.06,11.44,11.44,0,0,0,1.1-5,8.26,8.26,0,0,0-1.37-4.7,8.74,8.74,0,0,0-3.89-3.15,14.4,14.4,0,0,0-5.85-1.11,18.33,18.33,0,0,0-10,3.06,2.94,2.94,0,0,0-1.1,1.17,3.79,3.79,0,0,0-.29,1.62,3.87,3.87,0,0,0,.76,2.41,2.28,2.28,0,0,0,1.89,1,2.71,2.71,0,0,0,.86-.13,5.2,5.2,0,0,0,.92-.43l.7-.38.9-.45a19.92,19.92,0,0,1,2.54-1.1,7.17,7.17,0,0,1,2.41-.39,3.52,3.52,0,0,1,2.49.81,3,3,0,0,1,.88,2.34q0,2.61-3,5.72L63.93,76.6a4.93,4.93,0,0,0-1.53,3.51,3.28,3.28,0,0,0,3.51,3.42H82.34a4.49,4.49,0,0,0,2.94-.81,3.09,3.09,0,0,0,1-2.52,3,3,0,0,0-1-2.45A4.61,4.61,0,0,0,82.34,77Zm-43.74-44V14.69A4.89,4.89,0,0,0,33.71,9.8H15.47a4.89,4.89,0,0,0-4.9,4.89V32.94a4.89,4.89,0,0,0,4.9,4.89H33.71A4.89,4.89,0,0,0,38.6,32.94Zm51.58,0V14.69A4.89,4.89,0,0,0,85.29,9.8H67.05a4.89,4.89,0,0,0-4.9,4.89V32.94a4.89,4.89,0,0,0,4.9,4.89H85.29A4.89,4.89,0,0,0,90.18,32.94Z"/></svg>