<svg id="Layer_1" data-name="Layer 1" xmlns="http://www.w3.org/2000/svg" viewBox="0 0 100 100"><title>l21_5_1</title><path d="M100,14.17V85.83A14.17,14.17,0,0,1,85.79,100H63.89A14.19,14.19,0,0,1,50,88.45,14.17,14.17,0,0,1,36,100H14.14A14.18,14.18,0,0,1,0,85.83V14.17A14.18,14.18,0,0,1,14.14,0H36A14.17,14.17,0,0,1,50,11.55,14.19,14.19,0,0,1,63.89,0h21.9A14.17,14.17,0,0,1,100,14.17ZM38,35V16.71a4.89,4.89,0,0,0-4.89-4.89H14.81a4.89,4.89,0,0,0-4.89,4.89V35a4.89,4.89,0,0,0,4.89,4.9H33.06A4.89,4.89,0,0,0,38,35Zm51.58,0V16.71a4.89,4.89,0,0,0-4.89-4.89H66.39a4.89,4.89,0,0,0-4.89,4.89V35a4.89,4.89,0,0,0,4.89,4.9H84.64A4.89,4.89,0,0,0,89.53,35ZM23.27,72.64a2.59,2.59,0,0,0,1.64-.54,2.37,2.37,0,0,0,.88-1.53,4.21,4.21,0,0,1,1-1.82,20.86,20.86,0,0,1,2.27-2.1c1.05-.93,1.91-1.72,2.57-2.38a9.23,9.23,0,0,0,1.69-2.39A6.81,6.81,0,0,0,34,58.82a6.65,6.65,0,0,0-1.3-4A8.79,8.79,0,0,0,29.12,52a12.89,12.89,0,0,0-5.22-1,16.78,16.78,0,0,0-5.2.84,16,16,0,0,0-4.61,2.31A3.84,3.84,0,0,0,13,55.36a3.23,3.23,0,0,0-.34,1.57,3.58,3.58,0,0,0,.79,2.36,2.36,2.36,0,0,0,1.91,1,5.46,5.46,0,0,0,2.47-.85l1.08-.54a15.47,15.47,0,0,1,2.28-1.1,5.6,5.6,0,0,1,2-.39,3.05,3.05,0,0,1,2,.59,1.91,1.91,0,0,1,.72,1.57,3.31,3.31,0,0,1-.51,1.8,15.32,15.32,0,0,1-1.56,1.94,14.91,14.91,0,0,0-2.25,2.9,7,7,0,0,0-.81,3.53,3.21,3.21,0,0,0,.66,2.16A2.26,2.26,0,0,0,23.27,72.64Zm.09,10.75a4.21,4.21,0,0,0,3.13-1.26,4.53,4.53,0,0,0,0-6.21,4.21,4.21,0,0,0-3.13-1.26,4.13,4.13,0,0,0-3.08,1.26,4.51,4.51,0,0,0,0,6.21A4.13,4.13,0,0,0,23.36,83.39Zm58.5-6.84h-9L79.2,70A21.14,21.14,0,0,0,83,65a11.36,11.36,0,0,0,1.1-5,8.26,8.26,0,0,0-1.37-4.7A8.74,8.74,0,0,0,78.8,52.1,14.4,14.4,0,0,0,73,51a18.33,18.33,0,0,0-10,3.06,2.94,2.94,0,0,0-1.1,1.17,3.79,3.79,0,0,0-.29,1.62,3.87,3.87,0,0,0,.76,2.41,2.28,2.28,0,0,0,1.89,1,2.71,2.71,0,0,0,.86-.13A5.2,5.2,0,0,0,66,59.7l.7-.38.9-.45a20.55,20.55,0,0,1,2.54-1.1,7.21,7.21,0,0,1,2.41-.39,3.56,3.56,0,0,1,2.5.81A3,3,0,0,1,76,60.53q0,2.61-3,5.72l-9.54,9.94a4.93,4.93,0,0,0-1.53,3.51,3.28,3.28,0,0,0,3.51,3.42H81.86a4.49,4.49,0,0,0,2.94-.81,3.09,3.09,0,0,0,1-2.52,3,3,0,0,0-1-2.45A4.61,4.61,0,0,0,81.86,76.55Z"/></svg>