<svg id="Layer_1" data-name="Layer 1" xmlns="http://www.w3.org/2000/svg" viewBox="0 0 100 100"><title>l21_1_1</title><path d="M100,14V85.66A14.18,14.18,0,0,1,85.85,99.83H64A14.17,14.17,0,0,1,50,88.28,14.18,14.18,0,0,1,36.11,99.83H14.2A14.17,14.17,0,0,1,0,85.66V14A14.17,14.17,0,0,1,14.2-.17H36.11A14.18,14.18,0,0,1,50,11.38,14.17,14.17,0,0,1,64-.17h21.9A14.18,14.18,0,0,1,100,14ZM33.76,67.2a6.76,6.76,0,0,0,3.53-2.66A7.78,7.78,0,0,0,38.57,60a7.46,7.46,0,0,0-3.12-6.32c-2.09-1.54-4.93-2.32-8.53-2.32s-6.41.78-8.51,2.32A7.43,7.43,0,0,0,15.26,60a7.65,7.65,0,0,0,1.26,4.39,7.38,7.38,0,0,0,3.6,2.77,7.47,7.47,0,0,0-4.23,2.68,7.89,7.89,0,0,0-1.48,4.92,7.8,7.8,0,0,0,3.35,6.69q3.36,2.4,9.16,2.4t9.16-2.4A7.93,7.93,0,0,0,33.76,67.2ZM26.92,77.64Q22,77.64,22,74.13t4.91-3.51q4.91,0,4.9,3.51T26.92,77.64Zm0-20a4.75,4.75,0,0,1,3,.79,3,3,0,0,1,1,2.54,3.11,3.11,0,0,1-1,2.56,4.68,4.68,0,0,1-3,.81,4.71,4.71,0,0,1-3-.81,3.11,3.11,0,0,1-1-2.56,3,3,0,0,1,1-2.54A4.78,4.78,0,0,1,26.92,57.66Zm19.3,16.92h8.46a4.15,4.15,0,0,0,2.82-.83,3,3,0,0,0,.92-2.32,2.92,2.92,0,0,0-.92-2.3,4.2,4.2,0,0,0-2.82-.81H46.22q-3.73,0-3.73,3.11T46.22,74.58ZM76.69,62.65a8.57,8.57,0,0,0-3.8.84,7.06,7.06,0,0,0-2.77,2.27,11.88,11.88,0,0,1,1.69-5.87,4.29,4.29,0,0,1,3.71-2.1,6,6,0,0,1,2.07.36c.66.24,1.48.6,2.47,1.08l1,.5a14.94,14.94,0,0,0,1.35.65,2.88,2.88,0,0,0,1.13.2,2.38,2.38,0,0,0,1.91-1,3.68,3.68,0,0,0,.79-2.37,3.23,3.23,0,0,0-.34-1.57,3.84,3.84,0,0,0-1.1-1.22,14.39,14.39,0,0,0-4.52-2.25,17.54,17.54,0,0,0-5.16-.81,12.15,12.15,0,0,0-7,2,13.13,13.13,0,0,0-4.64,5.78A21.93,21.93,0,0,0,61.84,68q0,7.65,3.46,11.79t9.81,4.14a11.62,11.62,0,0,0,5.72-1.4,10,10,0,0,0,3.94-3.89,12.09,12.09,0,0,0,.18-11A9.4,9.4,0,0,0,81.55,64,9.14,9.14,0,0,0,76.69,62.65ZM74.62,77.59a3.57,3.57,0,0,1-2.79-1.19,4.4,4.4,0,0,1-1.08-3.08,4.45,4.45,0,0,1,1.06-3.11,4,4,0,0,1,5.62,0,4.55,4.55,0,0,1,1,3.13,4.5,4.5,0,0,1-1,3.1A3.54,3.54,0,0,1,74.62,77.59ZM38.25,33.42V15.17a4.89,4.89,0,0,0-4.89-4.89H15.12a4.89,4.89,0,0,0-4.9,4.89V33.42a4.89,4.89,0,0,0,4.9,4.89H33.36A4.89,4.89,0,0,0,38.25,33.42Zm51.58,0V15.17a4.89,4.89,0,0,0-4.89-4.89H66.7a4.9,4.9,0,0,0-4.9,4.89V33.42a4.9,4.9,0,0,0,4.9,4.89H84.94A4.89,4.89,0,0,0,89.83,33.42Z"/></svg>