<svg id="Layer_1" data-name="Layer 1" xmlns="http://www.w3.org/2000/svg" viewBox="0 0 100 100"><title>l21_5_1</title><path d="M100,14.17V85.83A14.18,14.18,0,0,1,85.83,100H63.92A14.17,14.17,0,0,1,50,88.45,14.17,14.17,0,0,1,36.08,100H14.17A14.18,14.18,0,0,1,0,85.83V14.17A14.18,14.18,0,0,1,14.17,0H36.08A14.17,14.17,0,0,1,50,11.55,14.17,14.17,0,0,1,63.92,0H85.83A14.18,14.18,0,0,1,100,14.17ZM38,35V16.71a4.89,4.89,0,0,0-4.89-4.89H14.85A4.89,4.89,0,0,0,10,16.71V35a4.89,4.89,0,0,0,4.89,4.9H33.09A4.89,4.89,0,0,0,38,35Zm51.58,0V16.71a4.89,4.89,0,0,0-4.89-4.89H66.43a4.89,4.89,0,0,0-4.89,4.89V35a4.89,4.89,0,0,0,4.89,4.9H84.67A4.89,4.89,0,0,0,89.56,35Zm-66.66,38a2.59,2.59,0,0,0,1.64-.54,2.37,2.37,0,0,0,.88-1.53,4.3,4.3,0,0,1,1-1.83A22.27,22.27,0,0,1,28.71,67c1.05-.93,1.9-1.72,2.56-2.38A9.23,9.23,0,0,0,33,62.18a6.81,6.81,0,0,0,.7-3.06,6.66,6.66,0,0,0-1.31-4,8.79,8.79,0,0,0-3.6-2.79,12.89,12.89,0,0,0-5.22-1,17.07,17.07,0,0,0-5.2.83,16.23,16.23,0,0,0-4.61,2.32,3.84,3.84,0,0,0-1.1,1.22,3.23,3.23,0,0,0-.34,1.57,3.58,3.58,0,0,0,.79,2.36,2.36,2.36,0,0,0,1.91,1,5.49,5.49,0,0,0,2.48-.85l1.08-.54a15.4,15.4,0,0,1,2.27-1.1,5.65,5.65,0,0,1,2.05-.39,3.05,3.05,0,0,1,2,.59,1.91,1.91,0,0,1,.72,1.57,3.32,3.32,0,0,1-.52,1.8,15.1,15.1,0,0,1-1.55,1.94,14.62,14.62,0,0,0-2.25,2.9A7,7,0,0,0,20.43,70a3.2,3.2,0,0,0,.65,2.16A2.26,2.26,0,0,0,22.9,72.94ZM23,83.69a4.21,4.21,0,0,0,3.13-1.26,4.51,4.51,0,0,0,0-6.21A4.21,4.21,0,0,0,23,75a4.13,4.13,0,0,0-3.08,1.26,4.51,4.51,0,0,0,0,6.21A4.13,4.13,0,0,0,23,83.69ZM82.8,71.77h-1V55.52a3.82,3.82,0,0,0-1.22-3,4.25,4.25,0,0,0-2.93-1.08,4.48,4.48,0,0,0-2,.47,4.11,4.11,0,0,0-1.59,1.37L61.2,71.63a5,5,0,0,0-1,3,3.45,3.45,0,0,0,.94,2.48,3.39,3.39,0,0,0,2.57,1h10V79.6a4,4,0,0,0,1.1,3.06,4.08,4.08,0,0,0,2.9,1,4.14,4.14,0,0,0,2.93-1,4,4,0,0,0,1.13-3.06V78.07h1q3.92,0,3.91-3.2T82.8,71.77Zm-14.45,0L73.75,64v7.79Z"/></svg>