<svg id="Layer_1" data-name="Layer 1" xmlns="http://www.w3.org/2000/svg" viewBox="0 0 100 100"><title>l21_1_1</title><path d="M100,14.17V85.83A14.18,14.18,0,0,1,85.83,100H63.92A14.17,14.17,0,0,1,50,88.45,14.17,14.17,0,0,1,36.08,100H14.17A14.18,14.18,0,0,1,0,85.83V14.17A14.18,14.18,0,0,1,14.17,0H36.08A14.17,14.17,0,0,1,50,11.55,14.17,14.17,0,0,1,63.92,0H85.83A14.18,14.18,0,0,1,100,14.17ZM30.27,67.37a6.8,6.8,0,0,0,3.53-2.66,7.86,7.86,0,0,0,1.28-4.5A7.44,7.44,0,0,0,32,53.89c-2.08-1.54-4.92-2.32-8.52-2.32s-6.41.78-8.51,2.32a7.43,7.43,0,0,0-3.15,6.32A7.65,7.65,0,0,0,13,64.6a7.38,7.38,0,0,0,3.6,2.77,7.47,7.47,0,0,0-4.23,2.68A7.89,7.89,0,0,0,10.92,75a7.76,7.76,0,0,0,3.35,6.69c2.23,1.6,5.29,2.4,9.16,2.4s6.92-.8,9.15-2.4a7.93,7.93,0,0,0-2.31-14.29ZM23.43,77.81q-4.91,0-4.91-3.51t4.91-3.51q4.91,0,4.9,3.51T23.43,77.81Zm0-20a4.75,4.75,0,0,1,3,.79,3,3,0,0,1,1,2.54,3.11,3.11,0,0,1-1,2.56,4.68,4.68,0,0,1-3,.81,4.71,4.71,0,0,1-3-.81,3.11,3.11,0,0,1-1-2.56,3,3,0,0,1,1-2.54A4.78,4.78,0,0,1,23.43,57.83ZM42.37,73.44H59a2.54,2.54,0,0,0,1.89-.78,2.67,2.67,0,0,0,.77-1.92,2.6,2.6,0,0,0-.77-1.89A2.56,2.56,0,0,0,59,68.09H42.37a2.51,2.51,0,0,0-1.89.79,2.62,2.62,0,0,0-.76,1.91,2.6,2.6,0,0,0,2.65,2.65ZM50.47,65a2.75,2.75,0,0,0,2.05-.85,2.88,2.88,0,0,0,.83-2.07,2.83,2.83,0,0,0-.83-2,2.75,2.75,0,0,0-2.05-.85,2.71,2.71,0,0,0-2,.83,2.84,2.84,0,0,0-.81,2.05,2.9,2.9,0,0,0,.81,2.07A2.66,2.66,0,0,0,50.47,65Zm0,17.37a2.75,2.75,0,0,0,2.05-.85,2.83,2.83,0,0,0,.83-2,2.88,2.88,0,0,0-.83-2.07,2.75,2.75,0,0,0-2.05-.85,2.66,2.66,0,0,0-2,.85,2.9,2.9,0,0,0-.81,2.07,2.82,2.82,0,0,0,.81,2A2.68,2.68,0,0,0,50.47,82.35ZM87.1,72.05h-1V55.8a3.82,3.82,0,0,0-1.21-3A4.26,4.26,0,0,0,82,51.71a4.55,4.55,0,0,0-2,.47,4.15,4.15,0,0,0-1.6,1.37L65.5,71.91a5,5,0,0,0-1,3,3.46,3.46,0,0,0,.95,2.48,3.37,3.37,0,0,0,2.56,1h10v1.53a4,4,0,0,0,1.1,3.06,4.05,4.05,0,0,0,2.9,1,4.16,4.16,0,0,0,2.93-1,4,4,0,0,0,1.12-3.06V78.35h1c2.61,0,3.92-1.06,3.92-3.2S89.71,72.05,87.1,72.05Zm-14.44,0,5.4-7.79v7.79ZM38,35V16.71a4.89,4.89,0,0,0-4.89-4.89H14.85A4.89,4.89,0,0,0,10,16.71V35a4.89,4.89,0,0,0,4.89,4.9H33.09A4.89,4.89,0,0,0,38,35Zm51.58,0V16.71a4.89,4.89,0,0,0-4.89-4.89H66.43a4.89,4.89,0,0,0-4.89,4.89V35a4.89,4.89,0,0,0,4.89,4.9H84.67A4.89,4.89,0,0,0,89.56,35Z"/></svg>