<svg id="Layer_1" data-name="Layer 1" xmlns="http://www.w3.org/2000/svg" viewBox="0 0 100 100"><title>l21_3_1</title><path d="M100.21,14.15V85.8A14.17,14.17,0,0,1,86,100H64.13A14.16,14.16,0,0,1,50.21,88.43,14.16,14.16,0,0,1,36.29,100H14.38A14.17,14.17,0,0,1,.21,85.8V14.15A14.18,14.18,0,0,1,14.38,0H36.29A14.17,14.17,0,0,1,50.21,11.52,14.17,14.17,0,0,1,64.13,0H86A14.18,14.18,0,0,1,100.21,14.15ZM37.65,35V16.74a4.89,4.89,0,0,0-4.9-4.89H14.51a4.89,4.89,0,0,0-4.89,4.89V35a4.89,4.89,0,0,0,4.89,4.89H32.75A4.89,4.89,0,0,0,37.65,35Zm51.58,0V16.74a4.89,4.89,0,0,0-4.89-4.89H66.09a4.89,4.89,0,0,0-4.89,4.89V35a4.89,4.89,0,0,0,4.89,4.89H84.34A4.89,4.89,0,0,0,89.23,35ZM26.33,61.21a11.22,11.22,0,0,0-4.45.81V56.48H31.6q3.91,0,3.91-3.15t-3.91-3.1h-14a3.82,3.82,0,0,0-2.83,1,3.9,3.9,0,0,0-1,2.88V66.29a2.44,2.44,0,0,0,.86,2,3.06,3.06,0,0,0,2.11.74,4.34,4.34,0,0,0,2-.49,16,16,0,0,1,2.58-.81,12.4,12.4,0,0,1,2.46-.23,5.12,5.12,0,0,1,3.51,1.13,4,4,0,0,1,1.26,3.15,3.89,3.89,0,0,1-1.22,3.17,5.73,5.73,0,0,1-3.73,1,7.45,7.45,0,0,1-2.5-.41,23.69,23.69,0,0,1-2.54-1.08l-.9-.45c-.6-.33-1.06-.56-1.35-.68a3.09,3.09,0,0,0-1.13-.17,2.33,2.33,0,0,0-1.89,1,3.71,3.71,0,0,0-.76,2.36A3.45,3.45,0,0,0,12.94,78,4,4,0,0,0,14,79.25a14.68,14.68,0,0,0,4.61,2.25,18.82,18.82,0,0,0,5.47.81A14.58,14.58,0,0,0,30.51,81a10.15,10.15,0,0,0,4.33-3.82,11.55,11.55,0,0,0,.24-11,9.17,9.17,0,0,0-3.55-3.6A10.46,10.46,0,0,0,26.33,61.21ZM60.58,74.12,47.21,69l13.37-5.13A2.29,2.29,0,0,0,61.7,63a2.32,2.32,0,0,0,.41-1.35,2.81,2.81,0,0,0-.79-2,2.74,2.74,0,0,0-2-.79,4,4,0,0,0-1.4.28l-15,5.8a4.44,4.44,0,0,0-2,1.64,4.49,4.49,0,0,0,0,5,4.2,4.2,0,0,0,2,1.58l15,5.8a4.21,4.21,0,0,0,1.4.27,2.73,2.73,0,0,0,2-.78,2.81,2.81,0,0,0,.79-2A2.23,2.23,0,0,0,61.7,75,2.77,2.77,0,0,0,60.58,74.12ZM80.82,61.07a8.6,8.6,0,0,0-3.8.84,7.14,7.14,0,0,0-2.77,2.27,12,12,0,0,1,1.69-5.87,4.31,4.31,0,0,1,3.71-2.1,6.26,6.26,0,0,1,2.07.36c.66.24,1.49.61,2.48,1.08l1,.5a14.94,14.94,0,0,0,1.35.65,2.83,2.83,0,0,0,1.12.2,2.41,2.41,0,0,0,1.92-1,3.67,3.67,0,0,0,.78-2.36A3.36,3.36,0,0,0,90,54.1a3.87,3.87,0,0,0-1.11-1.21,14.28,14.28,0,0,0-4.52-2.25,17.45,17.45,0,0,0-5.15-.82,12.21,12.21,0,0,0-7,2,13.11,13.11,0,0,0-4.63,5.78A21.76,21.76,0,0,0,66,66.43q0,7.65,3.47,11.79t9.81,4.14A11.58,11.58,0,0,0,85,81a9.9,9.9,0,0,0,3.94-3.89,12,12,0,0,0,.18-11,9.32,9.32,0,0,0-3.4-3.69A9.14,9.14,0,0,0,80.82,61.07ZM78.75,76A3.57,3.57,0,0,1,76,74.82a4.4,4.4,0,0,1-1.08-3.08,4.47,4.47,0,0,1,1.06-3.1,4,4,0,0,1,5.63,0,4.6,4.6,0,0,1,1,3.13,4.55,4.55,0,0,1-1,3.11A3.53,3.53,0,0,1,78.75,76Z"/></svg>