<svg id="Layer_1" data-name="Layer 1" xmlns="http://www.w3.org/2000/svg" viewBox="0 0 100 100"><title>l21_3_1</title><path d="M100,14.17V85.83A14.18,14.18,0,0,1,85.83,100H63.92A14.17,14.17,0,0,1,50,88.45,14.17,14.17,0,0,1,36.08,100H14.17A14.18,14.18,0,0,1,0,85.83V14.17A14.18,14.18,0,0,1,14.17,0H36.08A14.17,14.17,0,0,1,50,11.55,14.17,14.17,0,0,1,63.92,0H85.83A14.18,14.18,0,0,1,100,14.17ZM37.44,35V16.77a4.9,4.9,0,0,0-4.9-4.9H14.3a4.89,4.89,0,0,0-4.89,4.9V35A4.89,4.89,0,0,0,14.3,39.9H32.54A4.89,4.89,0,0,0,37.44,35ZM89,35V16.77a4.89,4.89,0,0,0-4.89-4.9H65.88A4.89,4.89,0,0,0,61,16.77V35a4.89,4.89,0,0,0,4.89,4.89H84.13A4.89,4.89,0,0,0,89,35Zm-60,29.68A7.26,7.26,0,0,0,32.63,62a7.49,7.49,0,0,0,1.29-4.35A7.83,7.83,0,0,0,32.54,53,8.79,8.79,0,0,0,28.63,50a15,15,0,0,0-5.88-1.08,18.1,18.1,0,0,0-5.33.81A15,15,0,0,0,12.85,52a3.64,3.64,0,0,0-1.08,1.22,3.49,3.49,0,0,0-.31,1.57,3.72,3.72,0,0,0,.76,2.37,2.34,2.34,0,0,0,1.9,1,2.87,2.87,0,0,0,1.12-.2,14.94,14.94,0,0,0,1.35-.65l.95-.45A22.87,22.87,0,0,1,20,55.69a6.77,6.77,0,0,1,2.36-.41,3.84,3.84,0,0,1,2.74.93,3.34,3.34,0,0,1,1,2.58A2.54,2.54,0,0,1,25,61.09a6.89,6.89,0,0,1-3.6.72h-2a2.58,2.58,0,0,0-2.12.94,3.71,3.71,0,0,0,0,4.5,2.59,2.59,0,0,0,2.12,1h2.79a6.77,6.77,0,0,1,3.69.76A2.82,2.82,0,0,1,27,71.48a3.11,3.11,0,0,1-1.1,2.7,6.22,6.22,0,0,1-3.62.81,8.06,8.06,0,0,1-2.59-.38,19.06,19.06,0,0,1-2.58-1.1l-.57-.25-.43-.2c-.57-.3-1-.52-1.34-.65a2.92,2.92,0,0,0-1.13-.21,2.34,2.34,0,0,0-1.89,1A3.7,3.7,0,0,0,11,75.53a3.15,3.15,0,0,0,1.4,2.79A14.58,14.58,0,0,0,17,80.6a20.15,20.15,0,0,0,5.63.78A16.77,16.77,0,0,0,29,80.28a9.41,9.41,0,0,0,4.21-3.13,7.84,7.84,0,0,0,1.48-4.77,8,8,0,0,0-1.5-4.9A7.69,7.69,0,0,0,29.05,64.69Zm30.74,8.5L46.42,68.06l13.37-5.13a2.25,2.25,0,0,0,1.53-2.2,2.77,2.77,0,0,0-.79-2,2.72,2.72,0,0,0-2-.79,4.26,4.26,0,0,0-1.4.27L42.15,64a4.51,4.51,0,0,0-2,1.64,4.54,4.54,0,0,0,0,5,4.27,4.27,0,0,0,2,1.58l15,5.8a4.26,4.26,0,0,0,1.4.27,2.71,2.71,0,0,0,2-.78,2.77,2.77,0,0,0,.79-2,2.3,2.3,0,0,0-.4-1.33A2.79,2.79,0,0,0,59.79,73.19ZM87,69.37H86V53.12a3.81,3.81,0,0,0-1.21-3A4.26,4.26,0,0,0,81.88,49a4.58,4.58,0,0,0-2,.47,4.22,4.22,0,0,0-1.6,1.37L65.41,69.23a5,5,0,0,0-1,3,3.46,3.46,0,0,0,1,2.48,3.37,3.37,0,0,0,2.56,1H78V77.2a4,4,0,0,0,1.1,3.06,4.07,4.07,0,0,0,2.9,1,4.16,4.16,0,0,0,2.93-1A4,4,0,0,0,86,77.2V75.67h1q3.92,0,3.92-3.2T87,69.37Zm-14.44,0L78,61.58v7.79Z"/></svg>