<svg id="Layer_1" data-name="Layer 1" xmlns="http://www.w3.org/2000/svg" viewBox="0 0 100 100"><title>l21_5_1</title><path d="M100,14.26V85.91a14.18,14.18,0,0,1-14.17,14.18H63.92A14.17,14.17,0,0,1,50,88.54a14.17,14.17,0,0,1-13.92,11.55H14.17A14.18,14.18,0,0,1,0,85.91V14.26A14.17,14.17,0,0,1,14.17.09H36.08A14.16,14.16,0,0,1,50,11.64,14.16,14.16,0,0,1,63.92.09H85.83A14.17,14.17,0,0,1,100,14.26ZM38,35V16.8a4.89,4.89,0,0,0-4.89-4.89H14.85A4.89,4.89,0,0,0,10,16.8V35a4.9,4.9,0,0,0,4.89,4.9H33.09A4.9,4.9,0,0,0,38,35Zm51.58,0V16.8a4.89,4.89,0,0,0-4.89-4.89H66.43a4.89,4.89,0,0,0-4.89,4.89V35a4.9,4.9,0,0,0,4.89,4.9H84.67A4.9,4.9,0,0,0,89.56,35ZM37.38,77l-8.6-10,8.42-9.76a3.71,3.71,0,0,0,.95-2.43A3.61,3.61,0,0,0,37,52.18,3.83,3.83,0,0,0,34.23,51a3.29,3.29,0,0,0-2.66,1.35l-7.55,9-7.61-9A3.54,3.54,0,0,0,13.66,51a3.85,3.85,0,0,0-2.72,1.15,3.63,3.63,0,0,0-1.19,2.68,3.73,3.73,0,0,0,1,2.43l8.41,9.76L10.52,77a3.62,3.62,0,0,0,.24,5.13,3.75,3.75,0,0,0,2.68,1.17A3.49,3.49,0,0,0,16.14,82L24,72.72,31.75,82a3.54,3.54,0,0,0,2.75,1.35,3.8,3.8,0,0,0,2.68-1.14,3.63,3.63,0,0,0,1.19-2.68A3.68,3.68,0,0,0,37.38,77Zm45-10.35A6.74,6.74,0,0,0,85.92,64a7.79,7.79,0,0,0,1.29-4.5,7.45,7.45,0,0,0-3.13-6.32q-3.14-2.32-8.53-2.32t-8.5,2.32a7.42,7.42,0,0,0-3.15,6.32,7.68,7.68,0,0,0,1.26,4.39,7.38,7.38,0,0,0,3.6,2.76,7.52,7.52,0,0,0-4.23,2.68A7.94,7.94,0,0,0,63,74.3,7.77,7.77,0,0,0,66.39,81q3.36,2.42,9.16,2.41T84.71,81a7.77,7.77,0,0,0,3.35-6.68,7.4,7.4,0,0,0-5.67-7.61ZM75.55,77.13q-4.9,0-4.9-3.51t4.9-3.51q4.9,0,4.91,3.51T75.55,77.13Zm0-20a4.84,4.84,0,0,1,3,.79,3.06,3.06,0,0,1,1,2.54,3.13,3.13,0,0,1-1,2.57,6,6,0,0,1-6,0,3.13,3.13,0,0,1-1-2.57,3.06,3.06,0,0,1,1-2.54A4.81,4.81,0,0,1,75.55,57.15Z"/></svg>