<svg id="Layer_1" data-name="Layer 1" xmlns="http://www.w3.org/2000/svg" viewBox="0 0 100 100"><title>l21_5_1</title><path d="M100,14.17V85.83A14.17,14.17,0,0,1,85.83,100H63.93A14.19,14.19,0,0,1,50,88.45,14.17,14.17,0,0,1,36.08,100H14.18A14.18,14.18,0,0,1,0,85.83V14.17A14.18,14.18,0,0,1,14.18,0h21.9A14.17,14.17,0,0,1,50,11.55,14.19,14.19,0,0,1,63.93,0h21.9A14.17,14.17,0,0,1,100,14.17ZM38,35V16.71a4.89,4.89,0,0,0-4.89-4.89H14.85A4.89,4.89,0,0,0,10,16.71V35a4.89,4.89,0,0,0,4.89,4.9H33.1A4.89,4.89,0,0,0,38,35Zm51.58,0V16.71a4.89,4.89,0,0,0-4.89-4.89H66.43a4.89,4.89,0,0,0-4.89,4.89V35a4.89,4.89,0,0,0,4.89,4.9H84.68A4.89,4.89,0,0,0,89.57,35Zm-4.34,36.9h-1V55.6a3.81,3.81,0,0,0-1.21-3,4.26,4.26,0,0,0-2.93-1.08,4.55,4.55,0,0,0-2,.47,4.15,4.15,0,0,0-1.6,1.37L63.63,71.71a5,5,0,0,0-1,3,3.46,3.46,0,0,0,1,2.48,3.37,3.37,0,0,0,2.56,1h10v1.53a4,4,0,0,0,1.1,3.06,4.05,4.05,0,0,0,2.9,1,4.13,4.13,0,0,0,2.92-1,4,4,0,0,0,1.13-3.06V78.15h1q3.92,0,3.92-3.2T85.23,71.85Zm-14.44,0,5.4-7.79v7.79ZM21.93,80.77a3.92,3.92,0,0,0,1.95-1c.35-.31.67-.66,1-1l1.74-1.69L29.85,74l3.49-3.42,3.25-3.18,3.62-3.54,2-2c.54-.52,1.07-1.07,1.62-1.58a4.37,4.37,0,0,0,1.55-3.95,4.24,4.24,0,0,0-7.12-2.49c-.72.68-1.41,1.39-2.12,2.09L32.62,59.4c-.61.6-1.2,1.2-1.81,1.79l-3,2.93c-.88.87-1.76,1.75-2.65,2.61l-1.78,1.73c-.71.69-1.41,1.39-2.11,2.09a.22.22,0,0,1-.35,0c-.22-.23-.46-.45-.69-.68l-1.74-1.69-2.37-2.33c-.53-.52-1.06-1-1.58-1.55a4.21,4.21,0,0,0-2.34-1.19,4.26,4.26,0,0,0-1.59.06,4.13,4.13,0,0,0-1.54.69,4.24,4.24,0,0,0-.42,6.53L11,72.67l3.31,3.25L16.43,78c.64.63,1.27,1.28,1.94,1.88a4.11,4.11,0,0,0,2.73,1C21.37,80.84,21.65,80.82,21.93,80.77Z"/></svg>