<svg id="Layer_1" data-name="Layer 1" xmlns="http://www.w3.org/2000/svg" viewBox="0 0 100 100"><title>l21_5_1</title><path d="M100,13.9V85.56A14.17,14.17,0,0,1,85.79,99.73H63.89A14.19,14.19,0,0,1,50,88.18,14.17,14.17,0,0,1,36,99.73H14.14A14.18,14.18,0,0,1,0,85.56V13.9A14.18,14.18,0,0,1,14.14-.27H36A14.17,14.17,0,0,1,50,11.28,14.19,14.19,0,0,1,63.89-.27h21.9A14.17,14.17,0,0,1,100,13.9ZM38,34.68V16.44a4.89,4.89,0,0,0-4.89-4.89H14.81a4.89,4.89,0,0,0-4.89,4.89V34.68a4.89,4.89,0,0,0,4.89,4.9H33.06A4.89,4.89,0,0,0,38,34.68Zm51.58,0V16.44a4.89,4.89,0,0,0-4.89-4.89H66.39a4.89,4.89,0,0,0-4.89,4.89V34.68a4.89,4.89,0,0,0,4.89,4.9H84.64A4.89,4.89,0,0,0,89.53,34.68ZM32.14,70.8h-1V54.55a3.82,3.82,0,0,0-1.22-3A4.24,4.24,0,0,0,27,50.46a4.42,4.42,0,0,0-2,.47,4.07,4.07,0,0,0-1.6,1.37L10.54,70.66a5,5,0,0,0-1,3,3.45,3.45,0,0,0,.94,2.48,3.39,3.39,0,0,0,2.57,1h10v1.53a4,4,0,0,0,1.11,3.06,4.05,4.05,0,0,0,2.9,1,4.13,4.13,0,0,0,2.92-1,4,4,0,0,0,1.13-3.06V77.1h1q3.91,0,3.91-3.2T32.14,70.8Zm-14.45,0L23.09,63V70.8Zm40.1-4H52.12V61.17a2.66,2.66,0,1,0-5.31,0v5.67H41.14a2.61,2.61,0,0,0-2.66,2.65,2.63,2.63,0,0,0,.77,1.91,2.51,2.51,0,0,0,1.89.79h5.67v5.63a2.69,2.69,0,0,0,4.57,1.89,2.63,2.63,0,0,0,.74-1.89V72.19h5.67a2.51,2.51,0,0,0,1.89-.79,2.62,2.62,0,0,0,.76-1.91,2.6,2.6,0,0,0-2.65-2.65Zm24.39-.72a7.31,7.31,0,0,0,3.58-2.73A7.5,7.5,0,0,0,87,59.05a7.89,7.89,0,0,0-1.37-4.59,8.82,8.82,0,0,0-3.92-3.06,14.88,14.88,0,0,0-5.87-1.08,18,18,0,0,0-5.33.81A14.89,14.89,0,0,0,66,53.38,3.64,3.64,0,0,0,64.9,54.6a3.48,3.48,0,0,0-.32,1.57,3.68,3.68,0,0,0,.77,2.36,2.31,2.31,0,0,0,1.89,1,3,3,0,0,0,1.12-.2c.33-.14.78-.35,1.35-.65l1-.45a24.77,24.77,0,0,1,2.45-1.08,6.81,6.81,0,0,1,2.36-.41,3.91,3.91,0,0,1,2.75.92,3.38,3.38,0,0,1,1,2.59,2.54,2.54,0,0,1-1.13,2.3,6.89,6.89,0,0,1-3.6.72h-2a2.56,2.56,0,0,0-2.11.94,3.67,3.67,0,0,0,0,4.5,2.57,2.57,0,0,0,2.11.95h2.79a6.77,6.77,0,0,1,3.69.76,2.83,2.83,0,0,1,1.13,2.52,3.14,3.14,0,0,1-1.1,2.7,6.28,6.28,0,0,1-3.63.81A8.23,8.23,0,0,1,72.8,76a20.51,20.51,0,0,1-2.59-1.1l-.56-.25-.43-.2q-.85-.45-1.35-.66a3.08,3.08,0,0,0-1.13-.2,2.31,2.31,0,0,0-1.89,1A3.67,3.67,0,0,0,64.09,77a3.14,3.14,0,0,0,1.39,2.79A14.37,14.37,0,0,0,70.16,82a19.84,19.84,0,0,0,5.63.79,17,17,0,0,0,6.37-1.1,9.51,9.51,0,0,0,4.2-3.13,7.85,7.85,0,0,0,1.49-4.77,7.94,7.94,0,0,0-1.51-4.9A7.63,7.63,0,0,0,82.18,66.12Z"/></svg>