<svg id="Layer_1" data-name="Layer 1" xmlns="http://www.w3.org/2000/svg" viewBox="0 0 100 100"><title>l21_5_1</title><path d="M100.23,13.9V85.56A14.18,14.18,0,0,1,86.05,99.73H64.15A14.17,14.17,0,0,1,50.23,88.18,14.18,14.18,0,0,1,36.31,99.73H14.4A14.17,14.17,0,0,1,.23,85.56V13.9A14.17,14.17,0,0,1,14.4-.27H36.31A14.18,14.18,0,0,1,50.23,11.28,14.17,14.17,0,0,1,64.15-.27h21.9A14.18,14.18,0,0,1,100.23,13.9Zm-62,20.78V16.44a4.89,4.89,0,0,0-4.89-4.89H15.08a4.89,4.89,0,0,0-4.9,4.89V34.68a4.9,4.9,0,0,0,4.9,4.9H33.32A4.89,4.89,0,0,0,38.21,34.68Zm51.58,0V16.44a4.89,4.89,0,0,0-4.89-4.89H66.66a4.9,4.9,0,0,0-4.9,4.89V34.68a4.9,4.9,0,0,0,4.9,4.9H84.9A4.89,4.89,0,0,0,89.79,34.68ZM35.07,51H17.43a4.39,4.39,0,0,0-3,.84,3.15,3.15,0,0,0-1,2.49,3.05,3.05,0,0,0,.93,2.43,4.47,4.47,0,0,0,3,.81H28.68L17.11,77.3a4.25,4.25,0,0,0-.63,2.16,3.32,3.32,0,0,0,1.22,2.59,4.14,4.14,0,0,0,2.79,1,3.88,3.88,0,0,0,1.91-.51A4.19,4.19,0,0,0,24,81L37.59,57.36a5.74,5.74,0,0,0,.85-3,3.53,3.53,0,0,0-.87-2.45A3.23,3.23,0,0,0,35.07,51ZM45.28,73.74h8.46a4.1,4.1,0,0,0,2.82-.83,3,3,0,0,0,.92-2.32,2.9,2.9,0,0,0-.92-2.29,4.2,4.2,0,0,0-2.82-.81H45.28q-3.73,0-3.73,3.1T45.28,73.74Zm36.14,2.39h-9l6.39-6.53a21.11,21.11,0,0,0,3.76-5.06,11.4,11.4,0,0,0,1.1-5,8.29,8.29,0,0,0-1.37-4.7,8.87,8.87,0,0,0-3.89-3.15,14.57,14.57,0,0,0-5.85-1.1,18.33,18.33,0,0,0-10,3.06,3,3,0,0,0-1.1,1.17,3.79,3.79,0,0,0-.29,1.62,3.89,3.89,0,0,0,.76,2.41,2.3,2.3,0,0,0,1.89,1,2.72,2.72,0,0,0,.86-.14,5.87,5.87,0,0,0,.92-.42l.7-.39.9-.45a24.13,24.13,0,0,1,2.54-1.1A7.47,7.47,0,0,1,72.15,57a3.56,3.56,0,0,1,2.5.81,3,3,0,0,1,.87,2.34q0,2.61-3,5.71L63,75.77a4.93,4.93,0,0,0-1.53,3.51,3.36,3.36,0,0,0,1,2.45,3.39,3.39,0,0,0,2.56,1H81.42a4.54,4.54,0,0,0,3-.81,3.12,3.12,0,0,0,1-2.52,3,3,0,0,0-1-2.45A4.6,4.6,0,0,0,81.42,76.13Z"/></svg>