<svg id="Layer_1" data-name="Layer 1" xmlns="http://www.w3.org/2000/svg" viewBox="0 0 100 100"><title>l21_5_1</title><path d="M100.23,13.9V85.56A14.18,14.18,0,0,1,86.05,99.73H64.15A14.17,14.17,0,0,1,50.23,88.18,14.18,14.18,0,0,1,36.31,99.73H14.4A14.17,14.17,0,0,1,.23,85.56V13.9A14.17,14.17,0,0,1,14.4-.27H36.31A14.18,14.18,0,0,1,50.23,11.28,14.17,14.17,0,0,1,64.15-.27h21.9A14.18,14.18,0,0,1,100.23,13.9Zm-62,20.78V16.44a4.89,4.89,0,0,0-4.89-4.89H15.08a4.89,4.89,0,0,0-4.9,4.89V34.68a4.9,4.9,0,0,0,4.9,4.9H33.32A4.89,4.89,0,0,0,38.21,34.68Zm51.58,0V16.44a4.89,4.89,0,0,0-4.89-4.89H66.66a4.9,4.9,0,0,0-4.9,4.89V34.68a4.9,4.9,0,0,0,4.9,4.9H84.9A4.89,4.89,0,0,0,89.79,34.68ZM35.55,70.77h-1V54.52a3.78,3.78,0,0,0-1.22-3,4.22,4.22,0,0,0-2.92-1.08,4.42,4.42,0,0,0-2,.47,4.07,4.07,0,0,0-1.6,1.37L14,70.63a5,5,0,0,0-1,3,3.46,3.46,0,0,0,.95,2.48,3.37,3.37,0,0,0,2.56,1h10V78.6a4,4,0,0,0,1.11,3.06,4.05,4.05,0,0,0,2.9,1,4.13,4.13,0,0,0,2.92-1,4,4,0,0,0,1.13-3.06V77.07h1q3.91,0,3.91-3.2T35.55,70.77Zm-14.44,0L26.5,63v7.79Zm24.07,2.7h8.46a4.05,4.05,0,0,0,2.81-.84,2.93,2.93,0,0,0,.93-2.31,2.89,2.89,0,0,0-.93-2.3,4.15,4.15,0,0,0-2.81-.81H45.18q-3.74,0-3.73,3.11T45.18,73.47Zm33.48-7.38a7.31,7.31,0,0,0,3.58-2.73A7.5,7.5,0,0,0,83.52,59a7.89,7.89,0,0,0-1.37-4.59,8.82,8.82,0,0,0-3.92-3.06,14.88,14.88,0,0,0-5.87-1.08A18,18,0,0,0,67,51.1a14.89,14.89,0,0,0-4.57,2.25,3.64,3.64,0,0,0-1.08,1.22,3.48,3.48,0,0,0-.32,1.57,3.68,3.68,0,0,0,.77,2.36,2.31,2.31,0,0,0,1.89,1,3,3,0,0,0,1.12-.2c.33-.14.78-.35,1.35-.65l1-.45a24.77,24.77,0,0,1,2.45-1.08A6.81,6.81,0,0,1,72,56.68a3.91,3.91,0,0,1,2.75.92,3.38,3.38,0,0,1,1,2.59,2.54,2.54,0,0,1-1.13,2.3,6.89,6.89,0,0,1-3.6.72H69a2.56,2.56,0,0,0-2.11.94,3.67,3.67,0,0,0,0,4.5A2.57,2.57,0,0,0,69,69.6h2.79a6.77,6.77,0,0,1,3.69.76,2.83,2.83,0,0,1,1.13,2.52,3.14,3.14,0,0,1-1.1,2.7,6.28,6.28,0,0,1-3.63.81A8.23,8.23,0,0,1,69.28,76a20.51,20.51,0,0,1-2.59-1.1l-.56-.25-.43-.2q-.86-.45-1.35-.66a3.08,3.08,0,0,0-1.13-.2,2.31,2.31,0,0,0-1.89,1,3.67,3.67,0,0,0-.76,2.36A3.14,3.14,0,0,0,62,79.72,14.37,14.37,0,0,0,66.64,82a19.84,19.84,0,0,0,5.63.79,17,17,0,0,0,6.37-1.1,9.51,9.51,0,0,0,4.2-3.13,7.85,7.85,0,0,0,1.49-4.77,7.94,7.94,0,0,0-1.51-4.9A7.63,7.63,0,0,0,78.66,66.09Z"/></svg>