<svg id="Layer_1" data-name="Layer 1" xmlns="http://www.w3.org/2000/svg" viewBox="0 0 100 100"><title>l21_5_1</title><path d="M99.89,14.17V85.83A14.18,14.18,0,0,1,85.71,100H63.81A14.17,14.17,0,0,1,49.89,88.45,14.19,14.19,0,0,1,36,100H14.06A14.17,14.17,0,0,1-.11,85.83V14.17A14.17,14.17,0,0,1,14.06,0H36A14.19,14.19,0,0,1,49.89,11.55,14.17,14.17,0,0,1,63.81,0h21.9A14.18,14.18,0,0,1,99.89,14.17ZM37.87,35V16.71A4.89,4.89,0,0,0,33,11.82H14.73a4.89,4.89,0,0,0-4.89,4.89V35a4.89,4.89,0,0,0,4.89,4.9H33A4.89,4.89,0,0,0,37.87,35Zm51.58,0V16.71a4.89,4.89,0,0,0-4.89-4.89H66.32a4.89,4.89,0,0,0-4.9,4.89V35a4.9,4.9,0,0,0,4.9,4.9H84.56A4.89,4.89,0,0,0,89.45,35ZM37.27,77l-8.6-10,8.42-9.76A3.7,3.7,0,0,0,38,54.77a3.63,3.63,0,0,0-1.19-2.68,3.85,3.85,0,0,0-2.72-1.15,3.29,3.29,0,0,0-2.66,1.35l-7.56,9-7.6-9a3.54,3.54,0,0,0-2.75-1.35,3.83,3.83,0,0,0-2.72,1.15,3.6,3.6,0,0,0-1.19,2.68,3.73,3.73,0,0,0,1,2.43L19,67,10.4,77a3.7,3.7,0,0,0-.94,2.43,3.64,3.64,0,0,0,1.19,2.7,3.69,3.69,0,0,0,2.68,1.17A3.49,3.49,0,0,0,16,81.9l7.87-9.27,7.74,9.27a3.53,3.53,0,0,0,2.75,1.35,3.76,3.76,0,0,0,2.67-1.14,3.61,3.61,0,0,0,1.2-2.68A3.68,3.68,0,0,0,37.27,77ZM84.53,51.21H66.89a4.39,4.39,0,0,0-3,.84,3.15,3.15,0,0,0-1,2.49A3.1,3.1,0,0,0,63.89,57a4.52,4.52,0,0,0,3,.81H78.14L66.57,77.54a4.25,4.25,0,0,0-.63,2.16,3.32,3.32,0,0,0,1.22,2.59,4.14,4.14,0,0,0,2.79,1,3.91,3.91,0,0,0,1.91-.51,4.27,4.27,0,0,0,1.55-1.6L87.05,57.61a5.75,5.75,0,0,0,.85-3A3.51,3.51,0,0,0,87,52.18,3.19,3.19,0,0,0,84.53,51.21Z"/></svg>