<svg id="Layer_1" data-name="Layer 1" xmlns="http://www.w3.org/2000/svg" viewBox="0 0 100 100"><title>l21_1_1</title><path d="M35-.17H8.14A8.11,8.11,0,0,0,0,8V91.71a8.11,8.11,0,0,0,8.11,8.12H35a8.11,8.11,0,0,0,8.11-8.12V8A8.11,8.11,0,0,0,35-.17ZM32.39,61.68,18.76,85.31a4.16,4.16,0,0,1-1.55,1.59,3.85,3.85,0,0,1-1.92.52,4.1,4.1,0,0,1-2.79-1.06,3.28,3.28,0,0,1-1.21-2.58,4.25,4.25,0,0,1,.63-2.16L23.48,61.86H12.23a4.49,4.49,0,0,1-3-.81,3,3,0,0,1-.92-2.43,3.16,3.16,0,0,1,.94-2.5,4.44,4.44,0,0,1,3-.83H29.87a3.18,3.18,0,0,1,2.5,1,3.48,3.48,0,0,1,.88,2.45A5.75,5.75,0,0,1,32.39,61.68ZM29.45,32.33H13.15a4.89,4.89,0,0,1-4.89-4.89V11.14a4.89,4.89,0,0,1,4.89-4.89h16.3a4.89,4.89,0,0,1,4.9,4.89v16.3A4.89,4.89,0,0,1,29.45,32.33Z"/><polygon points="80.1 75.36 80.1 67.58 74.7 75.36 80.1 75.36"/><path d="M91.91-.17H65A8.12,8.12,0,0,0,56.92,8V91.71A8.12,8.12,0,0,0,65,99.83H91.91A8.12,8.12,0,0,0,100,91.71V8A8.12,8.12,0,0,0,91.91-.17ZM65.71,11.14A4.89,4.89,0,0,1,70.6,6.25H86.9a4.89,4.89,0,0,1,4.89,4.89v16.3a4.89,4.89,0,0,1-4.89,4.89H70.6a4.89,4.89,0,0,1-4.89-4.89ZM89.15,81.66h-1v1.53A4,4,0,0,1,87,86.25a4.14,4.14,0,0,1-2.92,1,4.1,4.1,0,0,1-2.91-1,4,4,0,0,1-1.1-3.06V81.66h-10a3.39,3.39,0,0,1-2.57-1,3.43,3.43,0,0,1-.94-2.47,5,5,0,0,1,1-3L80.42,56.87A4.22,4.22,0,0,1,82,55.49,4.59,4.59,0,0,1,84,55a4.24,4.24,0,0,1,2.92,1.08,3.84,3.84,0,0,1,1.22,3V75.36h1q3.91,0,3.91,3.11T89.15,81.66Z"/></svg>