<svg id="Layer_1" data-name="Layer 1" xmlns="http://www.w3.org/2000/svg" viewBox="0 0 100 100"><title>l21_5_1</title><path d="M100,13.9V85.56A14.17,14.17,0,0,1,85.86,99.73H64A14.19,14.19,0,0,1,50,88.18,14.17,14.17,0,0,1,36.11,99.73H14.21A14.18,14.18,0,0,1,0,85.56V13.9A14.18,14.18,0,0,1,14.21-.27h21.9A14.17,14.17,0,0,1,50,11.28,14.19,14.19,0,0,1,64-.27h21.9A14.17,14.17,0,0,1,100,13.9ZM38,34.68V16.44a4.89,4.89,0,0,0-4.9-4.89H14.88A4.89,4.89,0,0,0,10,16.44V34.68a4.89,4.89,0,0,0,4.89,4.9H33.12A4.9,4.9,0,0,0,38,34.68Zm51.58,0V16.44a4.89,4.89,0,0,0-4.89-4.89H66.46a4.89,4.89,0,0,0-4.89,4.89V34.68a4.89,4.89,0,0,0,4.89,4.9H84.71A4.89,4.89,0,0,0,89.6,34.68ZM25.14,61.56a8.57,8.57,0,0,0-3.8.83,7.06,7.06,0,0,0-2.77,2.27,11.88,11.88,0,0,1,1.69-5.87A4.29,4.29,0,0,1,24,56.69a6,6,0,0,1,2.07.37c.66.24,1.49.6,2.48,1.08l1,.49a14.94,14.94,0,0,0,1.35.65,2.83,2.83,0,0,0,1.12.2,2.38,2.38,0,0,0,1.91-1,3.6,3.6,0,0,0,.79-2.36,3.27,3.27,0,0,0-.34-1.58,3.82,3.82,0,0,0-1.1-1.21,14.39,14.39,0,0,0-4.52-2.25,17.48,17.48,0,0,0-5.15-.81,12.18,12.18,0,0,0-7,2,13.13,13.13,0,0,0-4.64,5.78,21.93,21.93,0,0,0-1.64,8.8q0,7.65,3.47,11.79t9.81,4.14a11.48,11.48,0,0,0,5.71-1.4,10,10,0,0,0,3.94-3.89,11.25,11.25,0,0,0,1.42-5.64,11.42,11.42,0,0,0-1.24-5.34A9.4,9.4,0,0,0,30,62.88,9.13,9.13,0,0,0,25.14,61.56ZM23.07,76.5a3.58,3.58,0,0,1-2.79-1.2,5,5,0,0,1,0-6.18,3.6,3.6,0,0,1,2.81-1.18,3.56,3.56,0,0,1,2.81,1.15,5.24,5.24,0,0,1,0,6.24A3.54,3.54,0,0,1,23.07,76.5Zm18.32-4.32H58a2.55,2.55,0,0,0,1.89-.79,2.64,2.64,0,0,0,.76-1.91A2.61,2.61,0,0,0,58,66.82H41.39a2.51,2.51,0,0,0-1.89.79,2.63,2.63,0,0,0-.77,1.91,2.63,2.63,0,0,0,2.66,2.66Zm8.1-8.47a2.72,2.72,0,0,0,2-.85,2.85,2.85,0,0,0,.84-2.07,2.78,2.78,0,0,0-.84-2,2.87,2.87,0,0,0-4.07,0,2.84,2.84,0,0,0-.81,2,2.9,2.9,0,0,0,.81,2.07A2.68,2.68,0,0,0,49.49,63.71Zm0,17.38a2.73,2.73,0,0,0,2-.86,2.78,2.78,0,0,0,.84-2,2.85,2.85,0,0,0-.84-2.07,2.73,2.73,0,0,0-2-.86,2.69,2.69,0,0,0-2,.86,2.9,2.9,0,0,0-.81,2.07,2.8,2.8,0,0,0,.81,2A2.71,2.71,0,0,0,49.49,81.09Zm35.32-5.22h-9l6.39-6.53a21.23,21.23,0,0,0,3.75-5.06,11.3,11.3,0,0,0,1.11-5,8.2,8.2,0,0,0-1.38-4.7,8.68,8.68,0,0,0-3.89-3.15,14.4,14.4,0,0,0-5.85-1.1A18.27,18.27,0,0,0,66,53.37a3,3,0,0,0-1.11,1.17,4,4,0,0,0-.29,1.62,3.85,3.85,0,0,0,.77,2.4,2.26,2.26,0,0,0,1.89,1,2.7,2.7,0,0,0,.85-.14A4.89,4.89,0,0,0,69,59l.7-.38.9-.45a21.22,21.22,0,0,1,2.54-1.1,7.21,7.21,0,0,1,2.41-.39,3.56,3.56,0,0,1,2.5.81,3.08,3.08,0,0,1,.88,2.35q0,2.61-3,5.71L66.41,75.5A4.93,4.93,0,0,0,64.88,79a3.38,3.38,0,0,0,.94,2.45,3.45,3.45,0,0,0,2.57,1H84.81a4.54,4.54,0,0,0,3-.81,3.12,3.12,0,0,0,1-2.52,3,3,0,0,0-1-2.46A4.66,4.66,0,0,0,84.81,75.87Z"/></svg>