<svg id="Layer_1" data-name="Layer 1" xmlns="http://www.w3.org/2000/svg" viewBox="0 0 100 100"><title>l21_2_1</title><path d="M100,14.17V85.83A14.18,14.18,0,0,1,85.83,100H63.92A14.17,14.17,0,0,1,50,88.45,14.17,14.17,0,0,1,36.08,100H14.17A14.18,14.18,0,0,1,0,85.83V14.17A14.18,14.18,0,0,1,14.17,0H36.08A14.17,14.17,0,0,1,50,11.55,14.17,14.17,0,0,1,63.92,0H85.83A14.18,14.18,0,0,1,100,14.17ZM38,35V16.71a4.89,4.89,0,0,0-4.89-4.89H14.85A4.89,4.89,0,0,0,10,16.71V35a4.89,4.89,0,0,0,4.89,4.9H33.09A4.89,4.89,0,0,0,38,35Zm51.58,0V16.71a4.89,4.89,0,0,0-4.89-4.89H66.43a4.89,4.89,0,0,0-4.89,4.89V35a4.89,4.89,0,0,0,4.89,4.9H84.67A4.89,4.89,0,0,0,89.56,35ZM31.28,61.42a8.65,8.65,0,0,0-3.81.84,7.1,7.1,0,0,0-2.76,2.27,12,12,0,0,1,1.68-5.87,4.32,4.32,0,0,1,3.72-2.1,6,6,0,0,1,2.07.36c.66.24,1.48.6,2.47,1.08l1,.5a14.94,14.94,0,0,0,1.35.65,2.85,2.85,0,0,0,1.13.2,2.41,2.41,0,0,0,1.91-1A3.68,3.68,0,0,0,40.82,56a3.35,3.35,0,0,0-.34-1.57,4,4,0,0,0-1.1-1.22A14.34,14.34,0,0,0,34.85,51a17.43,17.43,0,0,0-5.15-.81,12.21,12.21,0,0,0-7,2A13.11,13.11,0,0,0,18.07,58a21.76,21.76,0,0,0-1.64,8.8q0,7.65,3.46,11.79t9.81,4.14a11.62,11.62,0,0,0,5.72-1.4,9.94,9.94,0,0,0,3.93-3.89,12,12,0,0,0,.18-11,9.3,9.3,0,0,0-3.39-3.69A9.14,9.14,0,0,0,31.28,61.42ZM29.21,76.36a3.57,3.57,0,0,1-2.79-1.19,4.4,4.4,0,0,1-1.08-3.08A4.49,4.49,0,0,1,26.39,69a3.63,3.63,0,0,1,2.82-1.17A3.59,3.59,0,0,1,32,69a4.6,4.6,0,0,1,1,3.13,4.5,4.5,0,0,1-1,3.1A3.54,3.54,0,0,1,29.21,76.36Zm18.54,7.38L58,51.66a5,5,0,0,0,.18-1,2.62,2.62,0,0,0-1-2.12A3.34,3.34,0,0,0,55,47.74a3,3,0,0,0-1.74.54,3.07,3.07,0,0,0-1.14,1.62L41.85,82a3,3,0,0,0-.18,1,2.61,2.61,0,0,0,.95,2.07,3.27,3.27,0,0,0,2.2.81,3,3,0,0,0,2.93-2.16ZM73.49,61.56a11.28,11.28,0,0,0-4.46.81V56.83h9.72q3.91,0,3.91-3.15t-3.91-3.1h-14a3.85,3.85,0,0,0-2.84,1,3.9,3.9,0,0,0-1,2.88V66.64a2.46,2.46,0,0,0,.85,2,3.09,3.09,0,0,0,2.11.74,4.32,4.32,0,0,0,2-.49A15.81,15.81,0,0,1,68.56,68,12.22,12.22,0,0,1,71,67.81a5.09,5.09,0,0,1,3.51,1.13,4,4,0,0,1,1.26,3.15,3.92,3.92,0,0,1-1.21,3.17,5.76,5.76,0,0,1-3.74,1,7.49,7.49,0,0,1-2.5-.4,25.54,25.54,0,0,1-2.54-1.08l-.9-.45a14,14,0,0,0-1.35-.68,3.08,3.08,0,0,0-1.13-.18,2.31,2.31,0,0,0-1.88,1,3.64,3.64,0,0,0-.77,2.36,3.32,3.32,0,0,0,.34,1.56,3.92,3.92,0,0,0,1,1.23,14.85,14.85,0,0,0,4.62,2.25,18.72,18.72,0,0,0,5.47.81,14.61,14.61,0,0,0,6.43-1.35A10.12,10.12,0,0,0,82,77.49a10.66,10.66,0,0,0,1.53-5.72,10.89,10.89,0,0,0-1.28-5.33,9.2,9.2,0,0,0-3.56-3.6A10.43,10.43,0,0,0,73.49,61.56Z"/></svg>