<svg id="Layer_1" data-name="Layer 1" xmlns="http://www.w3.org/2000/svg" viewBox="0 0 100 100"><title>l21_1_1</title><path d="M35-.17H8.14A8.11,8.11,0,0,0,0,8V91.71a8.11,8.11,0,0,0,8.11,8.12H35a8.11,8.11,0,0,0,8.12-8.12V8A8.11,8.11,0,0,0,35-.17ZM29.68,83.15a9.39,9.39,0,0,1-4.21,3.12,16.73,16.73,0,0,1-6.36,1.11,20.21,20.21,0,0,1-5.63-.79A14.57,14.57,0,0,1,8.8,84.32a3.6,3.6,0,0,1-1.08-1.24,3.54,3.54,0,0,1-.31-1.55,3.72,3.72,0,0,1,.76-2.37,2.33,2.33,0,0,1,1.89-1,2.88,2.88,0,0,1,1.13.2,14.94,14.94,0,0,1,1.35.65l.42.2.57.25a19.61,19.61,0,0,0,2.58,1.1A8.05,8.05,0,0,0,18.7,81a6.28,6.28,0,0,0,3.63-.81,3.14,3.14,0,0,0,1.1-2.7A2.83,2.83,0,0,0,22.3,75a6.76,6.76,0,0,0-3.69-.77H15.82a2.56,2.56,0,0,1-2.11-.94,3.67,3.67,0,0,1,0-4.5,2.57,2.57,0,0,1,2.11-1h2a6.89,6.89,0,0,0,3.6-.72,2.52,2.52,0,0,0,1.13-2.29,3.36,3.36,0,0,0-1-2.59,3.86,3.86,0,0,0-2.75-.92,6.76,6.76,0,0,0-2.36.4A23.79,23.79,0,0,0,14,62.76l-1,.45a14.94,14.94,0,0,1-1.35.65,2.83,2.83,0,0,1-1.12.21,2.34,2.34,0,0,1-1.89-1,3.7,3.7,0,0,1-.77-2.36,3.53,3.53,0,0,1,.32-1.58A3.62,3.62,0,0,1,9.3,58a15,15,0,0,1,4.56-2.25,18.11,18.11,0,0,1,5.34-.81A14.92,14.92,0,0,1,25.07,56,8.79,8.79,0,0,1,29,59a7.83,7.83,0,0,1,1.38,4.59A7.52,7.52,0,0,1,29.08,68a7.35,7.35,0,0,1-3.58,2.72,7.67,7.67,0,0,1,4.16,2.79,8,8,0,0,1,1.51,4.91A7.85,7.85,0,0,1,29.68,83.15Zm4.39-55.71a4.89,4.89,0,0,1-4.89,4.89H12.88A4.89,4.89,0,0,1,8,27.44V11.14a4.89,4.89,0,0,1,4.89-4.89h16.3a4.89,4.89,0,0,1,4.89,4.89Z"/><path d="M91.91-.17H65A8.12,8.12,0,0,0,56.92,8V91.71A8.12,8.12,0,0,0,65,99.83H91.91A8.12,8.12,0,0,0,100,91.71V8A8.12,8.12,0,0,0,91.91-.17ZM88.63,85c-2.24,1.6-5.29,2.41-9.16,2.41s-6.92-.81-9.16-2.41A7.78,7.78,0,0,1,67,78.29a7.92,7.92,0,0,1,1.49-4.93,7.47,7.47,0,0,1,4.23-2.68,7.38,7.38,0,0,1-3.6-2.77,7.62,7.62,0,0,1-1.26-4.38A7.45,7.45,0,0,1,71,57.2q3.15-2.31,8.5-2.31T88,57.2a7.48,7.48,0,0,1,3.13,6.33A7.79,7.79,0,0,1,89.84,68a6.74,6.74,0,0,1-3.53,2.65A8.1,8.1,0,0,1,88.63,85Zm-4.25-7.36q0,3.51-4.91,3.51t-4.9-3.51q0-3.51,4.9-3.51T84.38,77.61ZM76.46,67a3.13,3.13,0,0,1-1-2.57,3,3,0,0,1,1-2.54,6.15,6.15,0,0,1,6,0,3,3,0,0,1,1,2.54,3.13,3.13,0,0,1-1,2.57,6,6,0,0,1-6,0ZM86.63,32.33H70.33a4.89,4.89,0,0,1-4.9-4.89V11.14a4.89,4.89,0,0,1,4.9-4.89h16.3a4.89,4.89,0,0,1,4.89,4.89v16.3A4.89,4.89,0,0,1,86.63,32.33Z"/></svg>