<svg id="Layer_1" data-name="Layer 1" xmlns="http://www.w3.org/2000/svg" viewBox="0 0 150 100"><title>s21_1</title><path d="M118.2,99.46H29.89A12.37,12.37,0,0,1,17.52,87.08V12.46A12.37,12.37,0,0,1,29.89.09H118.2a12.37,12.37,0,0,1,12.37,12.37V87.08A12.37,12.37,0,0,1,118.2,99.46ZM53.76,50.06a9.52,9.52,0,0,0,4.64-3.53,9.73,9.73,0,0,0,1.66-5.64,10.17,10.17,0,0,0-1.78-6,11.44,11.44,0,0,0-5.08-4,19.43,19.43,0,0,0-7.62-1.4,23.47,23.47,0,0,0-6.92,1.05,19.55,19.55,0,0,0-5.93,2.92,4.79,4.79,0,0,0-1.4,1.58,4.6,4.6,0,0,0-.41,2,4.76,4.76,0,0,0,1,3.07,3,3,0,0,0,2.45,1.26,3.76,3.76,0,0,0,1.46-.27,19.17,19.17,0,0,0,1.75-.84l1.23-.59A31.87,31.87,0,0,1,42,38.38a8.8,8.8,0,0,1,3.07-.52,5.07,5.07,0,0,1,3.56,1.19,4.39,4.39,0,0,1,1.28,3.36,3.26,3.26,0,0,1-1.46,3,9,9,0,0,1-4.67.93H41.2a3.32,3.32,0,0,0-2.74,1.23,4.76,4.76,0,0,0,0,5.84,3.32,3.32,0,0,0,2.74,1.23h3.62a8.8,8.8,0,0,1,4.79,1,3.67,3.67,0,0,1,1.46,3.27,4.07,4.07,0,0,1-1.43,3.5,8.1,8.1,0,0,1-4.7,1,10.6,10.6,0,0,1-3.36-.49,26.82,26.82,0,0,1-3.36-1.43l-.73-.32-.55-.27c-.74-.39-1.33-.67-1.75-.84a3.76,3.76,0,0,0-1.46-.27,3,3,0,0,0-2.46,1.26,4.81,4.81,0,0,0-1,3.07,4.11,4.11,0,0,0,1.81,3.62,19.07,19.07,0,0,0,6.07,2.95,26,26,0,0,0,7.3,1,22,22,0,0,0,8.27-1.43,12.4,12.4,0,0,0,5.46-4.06,10.22,10.22,0,0,0,1.93-6.19,10.4,10.4,0,0,0-2-6.37A10,10,0,0,0,53.76,50.06ZM71.22,73.13,84.47,31.49a6.26,6.26,0,0,0,.24-1.28,3.41,3.41,0,0,0-1.26-2.75,4.38,4.38,0,0,0-2.89-1.05,3.87,3.87,0,0,0-2.25.7,4,4,0,0,0-1.49,2.1L63.57,70.85a3.83,3.83,0,0,0-.24,1.34,3.38,3.38,0,0,0,1.23,2.69,4.27,4.27,0,0,0,2.86,1.05,3.85,3.85,0,0,0,3.8-2.8Zm43.1-17H113V35.05a5,5,0,0,0-1.57-3.91,5.56,5.56,0,0,0-3.8-1.4,5.84,5.84,0,0,0-2.6.61A5.31,5.31,0,0,0,103,32.13L86.29,56A6.53,6.53,0,0,0,85,59.81,4.48,4.48,0,0,0,86.23,63a4.38,4.38,0,0,0,3.33,1.28h13v2a5.17,5.17,0,0,0,1.43,4,5.3,5.3,0,0,0,3.77,1.34,5.4,5.4,0,0,0,3.79-1.34,5.15,5.15,0,0,0,1.46-4v-2h1.29c3.38,0,5.08-1.38,5.08-4.15S117.7,56.13,114.32,56.13Zm-18.75,0,7-10.1v10.1Z"/></svg>