<svg id="Layer_1" data-name="Layer 1" xmlns="http://www.w3.org/2000/svg" viewBox="0 0 150 100"><title>s21_1</title><path d="M119.22,99.46H30.91A12.37,12.37,0,0,1,18.54,87.08V12.46A12.37,12.37,0,0,1,30.91.09h88.31a12.37,12.37,0,0,1,12.37,12.37V87.08A12.37,12.37,0,0,1,119.22,99.46ZM47.44,50.06a9.5,9.5,0,0,0,4.65-3.53,9.73,9.73,0,0,0,1.66-5.64,10.17,10.17,0,0,0-1.78-6,11.44,11.44,0,0,0-5.08-4,19.43,19.43,0,0,0-7.62-1.4,23.42,23.42,0,0,0-6.92,1.05,19.44,19.44,0,0,0-5.93,2.92A4.79,4.79,0,0,0,25,35.11a4.6,4.6,0,0,0-.41,2,4.81,4.81,0,0,0,1,3.07,3,3,0,0,0,2.46,1.26,3.76,3.76,0,0,0,1.46-.27c.42-.17,1-.45,1.75-.84l1.22-.59a32,32,0,0,1,3.19-1.4,8.78,8.78,0,0,1,3.06-.52,5.08,5.08,0,0,1,3.57,1.19,4.39,4.39,0,0,1,1.28,3.36,3.28,3.28,0,0,1-1.46,3,9,9,0,0,1-4.67.93H34.89a3.35,3.35,0,0,0-2.75,1.23,4.8,4.8,0,0,0,0,5.84,3.35,3.35,0,0,0,2.75,1.23h3.62a8.82,8.82,0,0,1,4.79,1,3.67,3.67,0,0,1,1.46,3.27,4.07,4.07,0,0,1-1.43,3.5,8.12,8.12,0,0,1-4.7,1,10.6,10.6,0,0,1-3.36-.49,26.82,26.82,0,0,1-3.36-1.43l-.73-.32-.55-.27a19.11,19.11,0,0,0-1.76-.84,3.73,3.73,0,0,0-1.46-.27A3,3,0,0,0,25,61.07a4.81,4.81,0,0,0-1,3.07,4.48,4.48,0,0,0,.41,2,4.59,4.59,0,0,0,1.4,1.61,19.07,19.07,0,0,0,6.07,2.95,26,26,0,0,0,7.3,1,22,22,0,0,0,8.27-1.43,12.4,12.4,0,0,0,5.46-4.06,10.21,10.21,0,0,0,1.92-6.19,10.4,10.4,0,0,0-1.95-6.37A10,10,0,0,0,47.44,50.06Zm39.89,11L70,54.44l17.34-6.66a3,3,0,0,0,2-2.86,3.59,3.59,0,0,0-1-2.65,3.47,3.47,0,0,0-2.59-1,5.55,5.55,0,0,0-1.81.35L64.44,49.13a5.69,5.69,0,0,0-2.66,2.13,5.57,5.57,0,0,0-1,3.18,5.63,5.63,0,0,0,1,3.27,5.48,5.48,0,0,0,2.66,2l19.45,7.53a5.55,5.55,0,0,0,1.81.35,3.5,3.5,0,0,0,2.59-1,3.61,3.61,0,0,0,1-2.66,2.86,2.86,0,0,0-.53-1.72A3.43,3.43,0,0,0,87.33,61.1Zm35.33-5h-1.28V35.05a5,5,0,0,0-1.58-3.91,5.54,5.54,0,0,0-3.8-1.4,5.79,5.79,0,0,0-2.59.61,5.41,5.41,0,0,0-2.08,1.78L94.63,56a6.53,6.53,0,0,0-1.29,3.85A4.48,4.48,0,0,0,94.57,63a4.41,4.41,0,0,0,3.33,1.28h13v2a5.21,5.21,0,0,0,1.43,4,5.32,5.32,0,0,0,3.77,1.34,5.43,5.43,0,0,0,3.8-1.34,5.15,5.15,0,0,0,1.46-4v-2h1.28q5.09,0,5.08-4.15C127.74,57.48,126.05,56.13,122.66,56.13Zm-18.74,0,7-10.1v10.1Z"/></svg>