<svg id="Layer_1" data-name="Layer 1" xmlns="http://www.w3.org/2000/svg" viewBox="0 0 150 100"><title>s21_1</title><path d="M121.11,99.46H32.8A12.37,12.37,0,0,1,20.43,87.08V12.46A12.37,12.37,0,0,1,32.8.09h88.31a12.37,12.37,0,0,1,12.37,12.37V87.08A12.37,12.37,0,0,1,121.11,99.46ZM49.34,50.06A9.52,9.52,0,0,0,54,46.53a9.73,9.73,0,0,0,1.66-5.64,10.17,10.17,0,0,0-1.78-6,11.44,11.44,0,0,0-5.08-4,19.43,19.43,0,0,0-7.62-1.4,23.42,23.42,0,0,0-6.92,1.05,19.55,19.55,0,0,0-5.93,2.92,4.79,4.79,0,0,0-1.4,1.58,4.6,4.6,0,0,0-.41,2,4.81,4.81,0,0,0,1,3.07A3,3,0,0,0,30,41.48a3.76,3.76,0,0,0,1.46-.27c.42-.17,1-.45,1.75-.84l1.23-.59a30.89,30.89,0,0,1,3.18-1.4,8.78,8.78,0,0,1,3.06-.52,5.08,5.08,0,0,1,3.57,1.19,4.39,4.39,0,0,1,1.28,3.36,3.28,3.28,0,0,1-1.46,3,9,9,0,0,1-4.67.93H36.78A3.35,3.35,0,0,0,34,47.55a4.8,4.8,0,0,0,0,5.84,3.35,3.35,0,0,0,2.75,1.23H40.4a8.8,8.8,0,0,1,4.79,1,3.67,3.67,0,0,1,1.46,3.27,4.07,4.07,0,0,1-1.43,3.5,8.12,8.12,0,0,1-4.7,1,10.6,10.6,0,0,1-3.36-.49,26.82,26.82,0,0,1-3.36-1.43l-.73-.32-.55-.27a19.11,19.11,0,0,0-1.76-.84,3.69,3.69,0,0,0-1.46-.27,3,3,0,0,0-2.45,1.26,4.81,4.81,0,0,0-1,3.07,4.48,4.48,0,0,0,.41,2,4.59,4.59,0,0,0,1.4,1.61,19.07,19.07,0,0,0,6.07,2.95,26,26,0,0,0,7.3,1,22,22,0,0,0,8.27-1.43,12.4,12.4,0,0,0,5.46-4.06,10.21,10.21,0,0,0,1.92-6.19,10.4,10.4,0,0,0-1.95-6.37A10,10,0,0,0,49.34,50.06ZM87.76,51H80.4V43.64A3.38,3.38,0,0,0,77,40.19a3.4,3.4,0,0,0-3.45,3.45V51H66.15a3.38,3.38,0,0,0-3.44,3.44,3.42,3.42,0,0,0,1,2.48,3.29,3.29,0,0,0,2.45,1h7.36v7.3a3.49,3.49,0,0,0,5.93,2.45,3.39,3.39,0,0,0,1-2.45V58h7.36a3.28,3.28,0,0,0,2.45-1,3.39,3.39,0,0,0,1-2.48A3.4,3.4,0,0,0,87.76,51Zm36.79,5.13h-1.28V35.05a5,5,0,0,0-1.58-3.91,5.54,5.54,0,0,0-3.79-1.4,5.8,5.8,0,0,0-2.6.61,5.41,5.41,0,0,0-2.08,1.78L96.52,56a6.51,6.51,0,0,0-1.28,3.85A4.51,4.51,0,0,0,96.46,63a4.41,4.41,0,0,0,3.33,1.28h13v2a5.17,5.17,0,0,0,1.43,4A5.27,5.27,0,0,0,118,71.61a5.43,5.43,0,0,0,3.8-1.34,5.15,5.15,0,0,0,1.46-4v-2h1.28q5.08,0,5.08-4.15C129.63,57.48,127.94,56.13,124.55,56.13Zm-18.74,0,7-10.1v10.1Z"/></svg>