<svg id="Layer_1" data-name="Layer 1" xmlns="http://www.w3.org/2000/svg" viewBox="0 0 150 100"><title>s21_1</title><path d="M120.43,99.46H32.13A12.38,12.38,0,0,1,19.75,87.08V12.46A12.37,12.37,0,0,1,32.13.09h88.3a12.37,12.37,0,0,1,12.38,12.37V87.08A12.38,12.38,0,0,1,120.43,99.46ZM51.15,40.54a12.71,12.71,0,0,0,6.3-1.5,10.24,10.24,0,0,0,4.14-4.26A13.66,13.66,0,0,0,63,28.31a13.75,13.75,0,0,0-1.43-6.47,10,10,0,0,0-4.12-4.24,12.92,12.92,0,0,0-6.34-1.49,12.88,12.88,0,0,0-6.33,1.49,10,10,0,0,0-4.14,4.24,13.64,13.64,0,0,0-1.46,6.47,13.67,13.67,0,0,0,1.46,6.47A10.13,10.13,0,0,0,44.82,39,12.77,12.77,0,0,0,51.15,40.54Zm0-4.76a5.09,5.09,0,0,1-4.22-1.9,8.68,8.68,0,0,1-1.52-5.57,8.63,8.63,0,0,1,1.52-5.56,5.67,5.67,0,0,1,8.43,0,8.65,8.65,0,0,1,1.54,5.54,8.79,8.79,0,0,1-1.52,5.56A5.13,5.13,0,0,1,51.15,35.78ZM69.6,40.24h6.83a15.34,15.34,0,0,0,6.84-1.42,10,10,0,0,0,4.36-4.11,12.91,12.91,0,0,0,1.5-6.4A12.64,12.64,0,0,0,87.61,22a10.13,10.13,0,0,0-4.38-4.11,14.93,14.93,0,0,0-6.8-1.43H69.6a2.88,2.88,0,0,0-2.13.74,2.89,2.89,0,0,0-.74,2.13V37.37a2.6,2.6,0,0,0,2.87,2.87Zm3.35-5V21.42h3a7.21,7.21,0,0,1,5.22,1.69C82.37,24.23,83,26,83,28.31s-.58,4.08-1.74,5.22A7.17,7.17,0,0,1,76,35.24Zm22.77,5h6.82a15.36,15.36,0,0,0,6.85-1.42,10,10,0,0,0,4.36-4.11,12.91,12.91,0,0,0,1.5-6.4A12.64,12.64,0,0,0,113.73,22a10.13,10.13,0,0,0-4.38-4.11,14.94,14.94,0,0,0-6.81-1.43H95.72a2.59,2.59,0,0,0-2.87,2.87V37.37a2.84,2.84,0,0,0,.74,2.12A2.87,2.87,0,0,0,95.72,40.24Zm3.34-5V21.42h3a7.21,7.21,0,0,1,5.22,1.69c1.16,1.12,1.74,2.86,1.74,5.2s-.58,4.08-1.74,5.22a7.17,7.17,0,0,1-5.22,1.71ZM36.62,83.15H48.31a3.39,3.39,0,0,0,2.2-.61,2.16,2.16,0,0,0,.74-1.76q0-2.43-2.94-2.43H39.8V73.42h7.84a3.4,3.4,0,0,0,2.19-.61,2.14,2.14,0,0,0,.75-1.76q0-2.4-2.94-2.4H39.8V64.12h8.51q2.94,0,2.94-2.43a2.17,2.17,0,0,0-.74-1.76,3.45,3.45,0,0,0-2.2-.6H36.62a2.59,2.59,0,0,0-2.87,2.87V80.28a2.6,2.6,0,0,0,2.87,2.87ZM71.29,60.78,64.67,75.17,58,60.78A2.65,2.65,0,0,0,57,59.56a3,3,0,0,0-1.51-.4,3.56,3.56,0,0,0-2.26.79,2.39,2.39,0,0,0-1,1.94,2.63,2.63,0,0,0,.27,1.19l8.93,18.41a3.07,3.07,0,0,0,1.31,1.4,3.91,3.91,0,0,0,3.79,0,3.14,3.14,0,0,0,1.32-1.4L76.7,63.08a2.69,2.69,0,0,0,.3-1.19,2.42,2.42,0,0,0-1-2,3.49,3.49,0,0,0-2.2-.77,2.81,2.81,0,0,0-1.48.4A2.69,2.69,0,0,0,71.29,60.78ZM82.17,83.15H93.86a3.39,3.39,0,0,0,2.2-.61,2.16,2.16,0,0,0,.74-1.76q0-2.43-2.94-2.43H85.35V73.42h7.83a3.43,3.43,0,0,0,2.2-.61,2.14,2.14,0,0,0,.75-1.76c0-1.6-1-2.4-2.95-2.4H85.35V64.12h8.51q2.94,0,2.94-2.43a2.17,2.17,0,0,0-.74-1.76,3.45,3.45,0,0,0-2.2-.6H82.17A2.59,2.59,0,0,0,79.3,62.2V80.28A2.84,2.84,0,0,0,80,82.4,2.88,2.88,0,0,0,82.17,83.15Zm35.61-24a2.73,2.73,0,0,0-2.07.82,3.08,3.08,0,0,0-.8,2.22V72.94L104.64,60.17a2.75,2.75,0,0,0-2.26-1,2.79,2.79,0,0,0-2.1.84,3.06,3.06,0,0,0-.81,2.2V80.28a3.1,3.1,0,0,0,.81,2.23,2.79,2.79,0,0,0,2.1.84,2.72,2.72,0,0,0,2.09-.84,3.17,3.17,0,0,0,.78-2.23V69.53l10.27,12.81a2.73,2.73,0,0,0,2.3,1,2.78,2.78,0,0,0,2.09-.84,3.1,3.1,0,0,0,.81-2.23V62.2a3,3,0,0,0-.82-2.2A2.86,2.86,0,0,0,117.78,59.16Z"/></svg>