<svg id="Layer_1" data-name="Layer 1" xmlns="http://www.w3.org/2000/svg" viewBox="0 0 150 100"><title>s21_1</title><path d="M119.83,99.46H31.52A12.37,12.37,0,0,1,19.15,87.08V12.46A12.37,12.37,0,0,1,31.52.09h88.31A12.37,12.37,0,0,1,132.2,12.46V87.08A12.37,12.37,0,0,1,119.83,99.46ZM88.43,50.89l16.4-16.25a8.89,8.89,0,0,0,2.73-6.52,8,8,0,0,0-2.73-6.23,8.43,8.43,0,0,0-6.38-2.73,8.76,8.76,0,0,0-6.38,2.73l-16.4,16.4L59.28,21.89A8.89,8.89,0,0,0,52.9,19a8,8,0,0,0-6.23,2.74,8.92,8.92,0,0,0-2.73,6.53,9.33,9.33,0,0,0,2.58,6.37l16.4,16.25-16.4,16.4a8.81,8.81,0,0,0,0,12.75,9.32,9.32,0,0,0,6.38,2.59A8.66,8.66,0,0,0,59.28,80L75.67,63.65,92.07,80a9,9,0,0,0,15.34-6.37,8.36,8.36,0,0,0-2.58-6.38Z"/></svg>