<svg id="Layer_1" data-name="Layer 1" xmlns="http://www.w3.org/2000/svg" viewBox="0 0 100 100"><title>l11_2_1</title><path d="M99.62,50v25a25,25,0,0,1-25,25H49.62a50,50,0,1,1,50-50ZM51.33,9.36a5.54,5.54,0,0,0-5.54,5.54V50.65h-23a5.55,5.55,0,0,0,0,11.09H51.33a5.54,5.54,0,0,0,5.54-5.55V14.9A5.54,5.54,0,0,0,51.33,9.36Zm-3.45,71A3.39,3.39,0,0,0,50.17,77a3.75,3.75,0,0,0-.64-2.17,4.22,4.22,0,0,0-1.85-1.44,7,7,0,0,0-2.77-.51,8.58,8.58,0,0,0-2.51.38,7,7,0,0,0-2.16,1.07,1.67,1.67,0,0,0-.51.57,1.63,1.63,0,0,0-.14.74A1.72,1.72,0,0,0,40,76.76a1.07,1.07,0,0,0,.89.46,1.47,1.47,0,0,0,.53-.09c.15-.07.37-.17.63-.31l.45-.21a8.43,8.43,0,0,1,1.16-.51,3.08,3.08,0,0,1,1.11-.19,1.81,1.81,0,0,1,1.29.43,1.6,1.6,0,0,1,.47,1.22A1.18,1.18,0,0,1,46,78.64a3.21,3.21,0,0,1-1.7.34h-.93a1.2,1.2,0,0,0-1,.45A1.62,1.62,0,0,0,42,80.49a1.64,1.64,0,0,0,.36,1.06,1.2,1.2,0,0,0,1,.44h1.31a3.08,3.08,0,0,1,1.74.37,1.31,1.31,0,0,1,.54,1.18,1.48,1.48,0,0,1-.53,1.28,2.94,2.94,0,0,1-1.7.38A3.82,3.82,0,0,1,43.46,85a10.3,10.3,0,0,1-1.22-.52L42,84.38l-.2-.09a5,5,0,0,0-.64-.31,1.25,1.25,0,0,0-.53-.1,1.09,1.09,0,0,0-.89.46,1.72,1.72,0,0,0-.36,1.11,1.61,1.61,0,0,0,.15.73,1.72,1.72,0,0,0,.51.59,6.79,6.79,0,0,0,2.21,1.07,9.27,9.27,0,0,0,2.65.37,7.92,7.92,0,0,0,3-.52,4.45,4.45,0,0,0,2-1.47,3.69,3.69,0,0,0,.7-2.25,3.74,3.74,0,0,0-.71-2.32A3.63,3.63,0,0,0,47.88,80.34Zm15.7-3a11.29,11.29,0,0,0-2.21.23,7.35,7.35,0,0,0-1.86.62,1.58,1.58,0,0,0-.62.53,1.36,1.36,0,0,0-.19.76,1.54,1.54,0,0,0,.32,1,1.05,1.05,0,0,0,.85.38,2.77,2.77,0,0,0,.83-.17,8.2,8.2,0,0,1,2.54-.59,1.63,1.63,0,0,1,1.15.33,1.44,1.44,0,0,1,.34,1.07v.25h-.58a15.57,15.57,0,0,0-3.43.3,3.48,3.48,0,0,0-1.86,1,2.65,2.65,0,0,0-.58,1.8,3.11,3.11,0,0,0,.5,1.75,3.4,3.4,0,0,0,1.36,1.21,4.31,4.31,0,0,0,2,.43,3.16,3.16,0,0,0,1.67-.42,2.38,2.38,0,0,0,1-1.19,1.57,1.57,0,0,0,.52,1.14,1.73,1.73,0,0,0,1.22.43,1.84,1.84,0,0,0,1.33-.46,1.67,1.67,0,0,0,.47-1.26V82a4.81,4.81,0,0,0-1.15-3.52A4.91,4.91,0,0,0,63.58,77.35ZM63,85.69a1.08,1.08,0,0,1-.8-.32,1.13,1.13,0,0,1-.31-.81.85.85,0,0,1,.58-.82,5.46,5.46,0,0,1,1.93-.24h.34v.26a2,2,0,0,1-.49,1.39A1.61,1.61,0,0,1,63,85.69Zm20.77-8.34a4,4,0,0,0-2,.5,3.89,3.89,0,0,0-1.42,1.34,3,3,0,0,0-3-1.84,3.56,3.56,0,0,0-3.19,1.57,1.38,1.38,0,0,0-.52-1.14,1.94,1.94,0,0,0-1.24-.39,2.12,2.12,0,0,0-1.34.44,1.49,1.49,0,0,0-.57,1.26v7.34a1.57,1.57,0,0,0,.54,1.3,2.29,2.29,0,0,0,2.7,0,1.57,1.57,0,0,0,.54-1.3v-4.2a2.28,2.28,0,0,1,.43-1.47,1.46,1.46,0,0,1,1.18-.53,1.12,1.12,0,0,1,.87.34,1.83,1.83,0,0,1,.3,1.19v4.67a1.57,1.57,0,0,0,.54,1.3,2.31,2.31,0,0,0,2.71,0,1.59,1.59,0,0,0,.53-1.3v-4.2a2.22,2.22,0,0,1,.44-1.47,1.48,1.48,0,0,1,1.19-.53,1.12,1.12,0,0,1,.87.34,1.83,1.83,0,0,1,.3,1.19v4.67a1.57,1.57,0,0,0,.54,1.3,2.28,2.28,0,0,0,2.69,0,1.57,1.57,0,0,0,.54-1.3V81.85a5.13,5.13,0,0,0-.93-3.47A3.39,3.39,0,0,0,83.76,77.35Z"/></svg>