<svg id="Layer_1" data-name="Layer 1" xmlns="http://www.w3.org/2000/svg" viewBox="0 0 100 100"><title>l11_2_1</title><path d="M89.77,79.47h-79A10.48,10.48,0,0,1,.26,69V38.67A10.48,10.48,0,0,1,10.74,28.18h79a10.49,10.49,0,0,1,10.49,10.49V69A10.49,10.49,0,0,1,89.77,79.47ZM21.6,60.58H18.82V44.46A3,3,0,0,0,18,42.25a3,3,0,0,0-2.19-.81,5.73,5.73,0,0,0-2.82.85L7.53,45.45a2.3,2.3,0,0,0-1.19,2.11A2.82,2.82,0,0,0,7,49.41a2,2,0,0,0,1.63.83,2.29,2.29,0,0,0,1.19-.34l2.72-1.6V60.58H9.81a3.42,3.42,0,0,0-2.25.61A2.31,2.31,0,0,0,6.85,63c0,1.67,1,2.51,3,2.51H21.6c2,0,3-.84,3-2.51a2.31,2.31,0,0,0-.71-1.84A3.42,3.42,0,0,0,21.6,60.58ZM36.46,49.87a8.44,8.44,0,0,0-3.36.61V46.3h7.34c2,0,3-.79,3-2.38s-1-2.35-3-2.35H29.9a2.89,2.89,0,0,0-2.14.75A3,3,0,0,0,27,44.5v9.21a1.86,1.86,0,0,0,.64,1.48,2.4,2.4,0,0,0,1.6.56,3.2,3.2,0,0,0,1.53-.37,12.25,12.25,0,0,1,2-.62,9.47,9.47,0,0,1,1.85-.17,3.87,3.87,0,0,1,2.65.85,3,3,0,0,1,.95,2.38,3,3,0,0,1-.91,2.4,4.39,4.39,0,0,1-2.83.77,5.7,5.7,0,0,1-1.88-.31,17.75,17.75,0,0,1-1.92-.82L30,59.52,29,59a2.34,2.34,0,0,0-.85-.13,1.74,1.74,0,0,0-1.43.73,2.76,2.76,0,0,0-.58,1.78,2.54,2.54,0,0,0,.26,1.18,2.93,2.93,0,0,0,.79.93,11.24,11.24,0,0,0,3.49,1.7,14.1,14.1,0,0,0,4.13.61,11,11,0,0,0,4.86-1,7.62,7.62,0,0,0,3.27-2.89A8,8,0,0,0,44,57.59a8.15,8.15,0,0,0-1-4,6.81,6.81,0,0,0-2.68-2.72A7.84,7.84,0,0,0,36.46,49.87Zm13.16,5.2a3.16,3.16,0,0,0,2.33-1,3.24,3.24,0,0,0,.93-2.35A3.2,3.2,0,0,0,52,49.43a3.12,3.12,0,0,0-2.33-1,3.21,3.21,0,0,0-3.3,3.29,3.21,3.21,0,0,0,3.3,3.3Zm0,10.68a3.13,3.13,0,0,0,2.33-1,3.2,3.2,0,0,0,.93-2.34A3.24,3.24,0,0,0,52,60.1a3.16,3.16,0,0,0-2.33-1,3.3,3.3,0,1,0,0,6.6ZM68.76,53.2a5.56,5.56,0,0,0,2.7-2.06,5.61,5.61,0,0,0,1-3.28,5.92,5.92,0,0,0-1-3.46,6.64,6.64,0,0,0-3-2.32A11.29,11.29,0,0,0,64,41.27a13.59,13.59,0,0,0-4,.61,11.12,11.12,0,0,0-3.45,1.7,2.66,2.66,0,0,0-.82.92,2.63,2.63,0,0,0-.24,1.19A2.8,2.8,0,0,0,56,47.47a1.75,1.75,0,0,0,1.43.73,2.26,2.26,0,0,0,.85-.15c.25-.1.59-.27,1-.49l.71-.34a19.47,19.47,0,0,1,1.86-.82,5.2,5.2,0,0,1,1.78-.3,3,3,0,0,1,2.08.69,2.59,2.59,0,0,1,.74,2,1.89,1.89,0,0,1-.85,1.73,5.2,5.2,0,0,1-2.72.55H61.45a1.94,1.94,0,0,0-1.6.71,2.78,2.78,0,0,0,0,3.4,2,2,0,0,0,1.6.71h2.11a5.12,5.12,0,0,1,2.78.58,2.13,2.13,0,0,1,.85,1.9,2.33,2.33,0,0,1-.83,2,4.69,4.69,0,0,1-2.74.62,6.24,6.24,0,0,1-1.95-.29,14.19,14.19,0,0,1-2-.84l-.42-.18L59,59.52c-.43-.22-.77-.39-1-.49a2.3,2.3,0,0,0-.85-.15,1.74,1.74,0,0,0-1.43.73,2.76,2.76,0,0,0-.58,1.78,2.39,2.39,0,0,0,1,2.11,11,11,0,0,0,3.54,1.72,15,15,0,0,0,4.25.59A12.65,12.65,0,0,0,68.74,65a7.13,7.13,0,0,0,3.18-2.36A5.92,5.92,0,0,0,73,59a6,6,0,0,0-1.14-3.7A5.79,5.79,0,0,0,68.76,53.2ZM84.84,65.85a8,8,0,0,0,6.8-3.16Q94,59.53,94,53.54c0-4-.78-7-2.36-9.11a7.93,7.93,0,0,0-6.78-3.16A7.93,7.93,0,0,0,78,44.43c-1.56,2.11-2.35,5.14-2.35,9.11s.79,7,2.35,9.15A8,8,0,0,0,84.84,65.85Zm0-4.73a2.44,2.44,0,0,1-2.35-1.77,17,17,0,0,1-.71-5.81,17,17,0,0,1,.71-5.8A2.45,2.45,0,0,1,84.84,46a2.42,2.42,0,0,1,2.34,1.77,16.68,16.68,0,0,1,.72,5.78,16.73,16.73,0,0,1-.72,5.81A2.42,2.42,0,0,1,84.84,61.12Z"/></svg>