<svg id="Layer_1" data-name="Layer 1" xmlns="http://www.w3.org/2000/svg" viewBox="0 0 100 100"><title>l11_2_1</title><path d="M99.62,50v25a25,25,0,0,1-25,25H49.62a50,50,0,1,1,50-50ZM51.33,9.36a5.54,5.54,0,0,0-5.54,5.54V50.65h-23a5.55,5.55,0,0,0,0,11.09H51.33a5.54,5.54,0,0,0,5.54-5.55V14.9A5.54,5.54,0,0,0,51.33,9.36Zm-5.1,68.9a5.36,5.36,0,0,0-2.1.38V76h4.58c1.23,0,1.84-.49,1.84-1.48s-.61-1.47-1.84-1.47H42.13a1.64,1.64,0,0,0-1.8,1.83v5.75a1.15,1.15,0,0,0,.4.92,1.49,1.49,0,0,0,1,.35,2.05,2.05,0,0,0,1-.23,7.12,7.12,0,0,1,1.22-.38,5.2,5.2,0,0,1,1.16-.11,2.39,2.39,0,0,1,1.65.53,2.19,2.19,0,0,1,0,3A2.73,2.73,0,0,1,45,85.2,3.68,3.68,0,0,1,43.8,85q-.54-.2-1.2-.51l-.43-.21a4.64,4.64,0,0,0-.63-.32,1.36,1.36,0,0,0-.53-.09,1.07,1.07,0,0,0-.89.46,1.73,1.73,0,0,0-.37,1.11,1.61,1.61,0,0,0,.16.73,2.07,2.07,0,0,0,.5.59,7.26,7.26,0,0,0,2.18,1.06,9,9,0,0,0,2.58.38,6.82,6.82,0,0,0,3-.64,4.77,4.77,0,0,0,2-1.8,5.44,5.44,0,0,0,.11-5.21,4.33,4.33,0,0,0-1.67-1.7A4.94,4.94,0,0,0,46.23,78.26Zm17.35-.91a11.29,11.29,0,0,0-2.21.23,7.35,7.35,0,0,0-1.86.62,1.58,1.58,0,0,0-.62.53,1.36,1.36,0,0,0-.19.76,1.54,1.54,0,0,0,.32,1,1.05,1.05,0,0,0,.85.38,2.77,2.77,0,0,0,.83-.17,8.2,8.2,0,0,1,2.54-.59,1.63,1.63,0,0,1,1.15.33,1.44,1.44,0,0,1,.34,1.07v.25h-.58a15.57,15.57,0,0,0-3.43.3,3.48,3.48,0,0,0-1.86,1,2.65,2.65,0,0,0-.58,1.8,3.11,3.11,0,0,0,.5,1.75,3.4,3.4,0,0,0,1.36,1.21,4.31,4.31,0,0,0,2,.43,3.16,3.16,0,0,0,1.67-.42,2.38,2.38,0,0,0,1-1.19,1.57,1.57,0,0,0,.52,1.14,1.73,1.73,0,0,0,1.22.43,1.84,1.84,0,0,0,1.33-.46,1.67,1.67,0,0,0,.47-1.26V82a4.81,4.81,0,0,0-1.15-3.52A4.91,4.91,0,0,0,63.58,77.35ZM63,85.69a1.08,1.08,0,0,1-.8-.32,1.13,1.13,0,0,1-.31-.81.85.85,0,0,1,.58-.82,5.46,5.46,0,0,1,1.93-.24h.34v.26a2,2,0,0,1-.49,1.39A1.61,1.61,0,0,1,63,85.69Zm20.77-8.34a4,4,0,0,0-2,.5,3.89,3.89,0,0,0-1.42,1.34,3,3,0,0,0-3-1.84,3.56,3.56,0,0,0-3.19,1.57,1.38,1.38,0,0,0-.52-1.14,1.94,1.94,0,0,0-1.24-.39,2.12,2.12,0,0,0-1.34.44,1.49,1.49,0,0,0-.57,1.26v7.34a1.57,1.57,0,0,0,.54,1.3,2.29,2.29,0,0,0,2.7,0,1.57,1.57,0,0,0,.54-1.3v-4.2a2.28,2.28,0,0,1,.43-1.47,1.46,1.46,0,0,1,1.18-.53,1.12,1.12,0,0,1,.87.34,1.83,1.83,0,0,1,.3,1.19v4.67a1.57,1.57,0,0,0,.54,1.3,2.31,2.31,0,0,0,2.71,0,1.59,1.59,0,0,0,.53-1.3v-4.2a2.22,2.22,0,0,1,.44-1.47,1.48,1.48,0,0,1,1.19-.53,1.12,1.12,0,0,1,.87.34,1.83,1.83,0,0,1,.3,1.19v4.67a1.57,1.57,0,0,0,.54,1.3,2.28,2.28,0,0,0,2.69,0,1.57,1.57,0,0,0,.54-1.3V81.85a5.13,5.13,0,0,0-.93-3.47A3.39,3.39,0,0,0,83.76,77.35Z"/></svg>