<svg id="Layer_1" data-name="Layer 1" xmlns="http://www.w3.org/2000/svg" viewBox="0 0 100 100"><title>l11_5_1</title><path d="M89.51,77.49h-79A10.49,10.49,0,0,1,0,67V36.69A10.49,10.49,0,0,1,10.49,26.2h79A10.49,10.49,0,0,1,100,36.69V67A10.49,10.49,0,0,1,89.51,77.49ZM14.14,63.87a7.93,7.93,0,0,0,6.8-3.16c1.56-2.11,2.35-5.16,2.35-9.15s-.79-7-2.37-9.11a7.93,7.93,0,0,0-6.78-3.16,8,8,0,0,0-6.8,3.16Q5,45.62,5,51.56t2.34,9.15A8,8,0,0,0,14.14,63.87Zm0-4.73a2.43,2.43,0,0,1-2.34-1.76,16.83,16.83,0,0,1-.72-5.82,16.59,16.59,0,0,1,.72-5.79,2.44,2.44,0,0,1,4.69,0,17,17,0,0,1,.71,5.78,17.14,17.14,0,0,1-.71,5.82A2.45,2.45,0,0,1,14.14,59.14ZM36.21,47.89a8.45,8.45,0,0,0-3.37.61V44.32h7.34c2,0,3-.79,3-2.38s-1-2.35-3-2.35H29.64a2.89,2.89,0,0,0-2.14.75,3,3,0,0,0-.75,2.18v9.21a1.87,1.87,0,0,0,.65,1.48,2.36,2.36,0,0,0,1.6.56,3.26,3.26,0,0,0,1.53-.37,11.37,11.37,0,0,1,1.95-.61,8.92,8.92,0,0,1,1.86-.17,3.84,3.84,0,0,1,2.65.85,3,3,0,0,1,.95,2.38A3,3,0,0,1,37,58.24,4.34,4.34,0,0,1,34.2,59a5.51,5.51,0,0,1-1.89-.31,17.53,17.53,0,0,1-1.92-.81l-.68-.34a9.4,9.4,0,0,0-1-.51,2.32,2.32,0,0,0-.85-.14,1.75,1.75,0,0,0-1.43.73,2.82,2.82,0,0,0-.57,1.79,2.52,2.52,0,0,0,.25,1.17,3,3,0,0,0,.8.93,10.92,10.92,0,0,0,3.49,1.7,14,14,0,0,0,4.12.62,11.07,11.07,0,0,0,4.87-1,7.71,7.71,0,0,0,3.26-2.89,8.07,8.07,0,0,0,1.16-4.32,8.26,8.26,0,0,0-1-4,6.9,6.9,0,0,0-2.69-2.72A7.78,7.78,0,0,0,36.21,47.89Zm13.15,5.2a3.14,3.14,0,0,0,2.33-1,3.4,3.4,0,0,0,0-4.69,3.11,3.11,0,0,0-2.33-1,3.14,3.14,0,0,0-2.36,1,3.4,3.4,0,0,0,0,4.69A3.18,3.18,0,0,0,49.36,53.09Zm0,10.68a3.14,3.14,0,0,0,2.33-1,3.41,3.41,0,0,0,0-4.7,3.14,3.14,0,0,0-2.33-.95,3.18,3.18,0,0,0-2.36.95,3.41,3.41,0,0,0,0,4.7A3.18,3.18,0,0,0,49.36,63.77ZM65.85,47.89a8.44,8.44,0,0,0-3.36.61V44.32h7.34c2,0,3-.79,3-2.38s-1-2.35-3-2.35H59.29a2.89,2.89,0,0,0-2.14.75,3,3,0,0,0-.75,2.18v9.21a1.84,1.84,0,0,0,.65,1.48,2.36,2.36,0,0,0,1.59.56,3.2,3.2,0,0,0,1.53-.37,11.18,11.18,0,0,1,2-.61A8.76,8.76,0,0,1,64,52.62a3.82,3.82,0,0,1,2.65.85,3,3,0,0,1,1,2.38,3,3,0,0,1-.92,2.39,4.39,4.39,0,0,1-2.83.77A5.49,5.49,0,0,1,62,58.7,17.53,17.53,0,0,1,60,57.89l-.68-.34q-.69-.37-1-.51a2.32,2.32,0,0,0-.85-.14,1.74,1.74,0,0,0-1.43.73,2.77,2.77,0,0,0-.58,1.79,2.52,2.52,0,0,0,.26,1.17,2.85,2.85,0,0,0,.8.93A10.86,10.86,0,0,0,60,63.22a14.16,14.16,0,0,0,4.13.62,11,11,0,0,0,4.86-1,7.68,7.68,0,0,0,3.27-2.89,8.06,8.06,0,0,0,1.15-4.32,8.15,8.15,0,0,0-1-4,6.87,6.87,0,0,0-2.68-2.72A7.84,7.84,0,0,0,65.85,47.89Zm18.73,16a7.93,7.93,0,0,0,6.8-3.16q2.36-3.16,2.35-9.15t-2.36-9.11a8,8,0,0,0-6.79-3.16,8,8,0,0,0-6.8,3.16q-2.34,3.16-2.34,9.11t2.34,9.15A8,8,0,0,0,84.58,63.87Zm0-4.73a2.43,2.43,0,0,1-2.34-1.76,16.83,16.83,0,0,1-.72-5.82,16.59,16.59,0,0,1,.72-5.79,2.44,2.44,0,0,1,4.69,0,16.73,16.73,0,0,1,.71,5.78,16.88,16.88,0,0,1-.71,5.82A2.45,2.45,0,0,1,84.58,59.14Z"/></svg>