<svg id="Layer_1" data-name="Layer 1" xmlns="http://www.w3.org/2000/svg" viewBox="0 0 100 100"><title>l11_5_1</title><path d="M89.51,77.63h-79A10.49,10.49,0,0,1,0,67.14V36.82A10.49,10.49,0,0,1,10.49,26.33h79A10.49,10.49,0,0,1,100,36.82V67.14A10.49,10.49,0,0,1,89.51,77.63ZM14.14,64a7.93,7.93,0,0,0,6.8-3.16q2.36-3.17,2.35-9.15t-2.37-9.11a7.93,7.93,0,0,0-6.78-3.16,8,8,0,0,0-6.8,3.16Q5,45.75,5,51.69t2.34,9.15A8,8,0,0,0,14.14,64Zm0-4.72a2.42,2.42,0,0,1-2.34-1.77,16.83,16.83,0,0,1-.72-5.82,16.59,16.59,0,0,1,.72-5.79,2.42,2.42,0,0,1,2.34-1.75,2.45,2.45,0,0,1,2.35,1.76,17,17,0,0,1,.71,5.78,17.14,17.14,0,0,1-.71,5.82A2.44,2.44,0,0,1,14.14,59.28Zm24.72-7.93a5.54,5.54,0,0,0,2.7-2.05,5.64,5.64,0,0,0,1-3.28,6,6,0,0,0-1-3.47,6.6,6.6,0,0,0-3-2.31,11.15,11.15,0,0,0-4.43-.82,13.54,13.54,0,0,0-4,.61,11.35,11.35,0,0,0-3.45,1.7,2.75,2.75,0,0,0-.82.92,2.63,2.63,0,0,0-.24,1.19,2.85,2.85,0,0,0,.58,1.79,1.78,1.78,0,0,0,1.43.73,2.08,2.08,0,0,0,.85-.16,10.66,10.66,0,0,0,1-.49l.71-.34A19.47,19.47,0,0,1,32,44.55a5.2,5.2,0,0,1,1.78-.3,2.91,2.91,0,0,1,2.08.7,2.55,2.55,0,0,1,.74,1.95,1.89,1.89,0,0,1-.85,1.73,5.1,5.1,0,0,1-2.72.55H31.55a2,2,0,0,0-1.6.71,2.62,2.62,0,0,0-.58,1.7,2.58,2.58,0,0,0,.58,1.7,2,2,0,0,0,1.6.72h2.11a5.13,5.13,0,0,1,2.78.57,2.14,2.14,0,0,1,.85,1.91,2.35,2.35,0,0,1-.83,2,4.72,4.72,0,0,1-2.74.61,6.24,6.24,0,0,1-1.95-.29,15.34,15.34,0,0,1-2-.83l-.42-.19-.32-.15c-.43-.23-.77-.39-1-.5A2.3,2.3,0,0,0,27.2,57a1.77,1.77,0,0,0-1.43.73,2.79,2.79,0,0,0-.58,1.79,2.66,2.66,0,0,0,.24,1.17,2.78,2.78,0,0,0,.81.94,11,11,0,0,0,3.54,1.71A15,15,0,0,0,34,64a12.64,12.64,0,0,0,4.81-.84A7.13,7.13,0,0,0,42,60.77a5.91,5.91,0,0,0,1.12-3.6A6,6,0,0,0,42,53.46,5.83,5.83,0,0,0,38.86,51.35Zm10.5,1.87a3.11,3.11,0,0,0,2.33-.95,3.4,3.4,0,0,0,0-4.69,3.14,3.14,0,0,0-2.33-.95,3.18,3.18,0,0,0-2.36.95,3.4,3.4,0,0,0,0,4.69A3.14,3.14,0,0,0,49.36,53.22Zm0,10.68A3.14,3.14,0,0,0,51.69,63a3.25,3.25,0,0,0,.94-2.35,3.21,3.21,0,0,0-.94-2.34,3.11,3.11,0,0,0-2.33-1,3.15,3.15,0,0,0-2.36,1,3.21,3.21,0,0,0-.94,2.34A3.25,3.25,0,0,0,47,63,3.18,3.18,0,0,0,49.36,63.9ZM68.5,51.35a5.52,5.52,0,0,0,2.71-2.05,5.71,5.71,0,0,0,1-3.28,6,6,0,0,0-1-3.47,6.6,6.6,0,0,0-3-2.31,11.17,11.17,0,0,0-4.44-.82,13.59,13.59,0,0,0-4,.61,11.58,11.58,0,0,0-3.45,1.7,2.82,2.82,0,0,0-.81.92,2.63,2.63,0,0,0-.24,1.19,2.79,2.79,0,0,0,.58,1.79,1.77,1.77,0,0,0,1.43.73,2.11,2.11,0,0,0,.85-.16c.24-.1.58-.26,1-.49l.71-.34c.68-.34,1.3-.61,1.85-.82a5.25,5.25,0,0,1,1.79-.3,2.9,2.9,0,0,1,2.07.7,2.52,2.52,0,0,1,.75,1.95,1.91,1.91,0,0,1-.85,1.73,5.13,5.13,0,0,1-2.72.55h-1.5a1.93,1.93,0,0,0-1.59.71,2.62,2.62,0,0,0-.58,1.7,2.58,2.58,0,0,0,.58,1.7,1.91,1.91,0,0,0,1.59.72H63.3a5.19,5.19,0,0,1,2.79.57,2.14,2.14,0,0,1,.85,1.91,2.38,2.38,0,0,1-.83,2,4.72,4.72,0,0,1-2.74.61,6.26,6.26,0,0,1-2-.29A15.27,15.27,0,0,1,59.46,58L59,57.83l-.32-.15c-.43-.23-.77-.39-1-.5a2.26,2.26,0,0,0-.85-.15,1.78,1.78,0,0,0-1.43.73,2.84,2.84,0,0,0-.57,1.79,2.66,2.66,0,0,0,.23,1.17,2.71,2.71,0,0,0,.82.94,11,11,0,0,0,3.54,1.71,15,15,0,0,0,4.25.6,12.72,12.72,0,0,0,4.81-.84,7,7,0,0,0,3.17-2.36,5.91,5.91,0,0,0,1.13-3.6,6,6,0,0,0-1.14-3.71A5.82,5.82,0,0,0,68.5,51.35ZM84.58,64a7.93,7.93,0,0,0,6.8-3.16q2.36-3.17,2.35-9.15t-2.36-9.11a8,8,0,0,0-6.79-3.16,8,8,0,0,0-6.8,3.16q-2.34,3.16-2.34,9.11t2.34,9.15A8,8,0,0,0,84.58,64Zm0-4.72a2.43,2.43,0,0,1-2.34-1.77,16.83,16.83,0,0,1-.72-5.82,16.59,16.59,0,0,1,.72-5.79,2.44,2.44,0,0,1,4.69,0,16.73,16.73,0,0,1,.71,5.78,16.88,16.88,0,0,1-.71,5.82A2.44,2.44,0,0,1,84.58,59.28Z"/></svg>