<svg id="Layer_1" data-name="Layer 1" xmlns="http://www.w3.org/2000/svg" viewBox="0 0 100 100"><title>l11_5_1</title><path d="M100,50v25a25,25,0,0,1-25,25H50a50,50,0,1,1,50-50ZM51.71,9.36a5.54,5.54,0,0,0-5.54,5.54V50.65h-23a5.55,5.55,0,0,0,0,11.09H51.71a5.54,5.54,0,0,0,5.54-5.55V14.9A5.54,5.54,0,0,0,51.71,9.36Zm6.46,76.82H55.44V70.41a2.86,2.86,0,0,0-.82-2.16,2.94,2.94,0,0,0-2.14-.8,5.63,5.63,0,0,0-2.76.83l-5.33,3.1a2.26,2.26,0,0,0-1.16,2.06,2.76,2.76,0,0,0,.67,1.81,2,2,0,0,0,1.59.82,2.23,2.23,0,0,0,1.17-.34l2.66-1.56v12h-2.7a3.29,3.29,0,0,0-2.19.6,2.23,2.23,0,0,0-.7,1.8c0,1.64,1,2.46,2.89,2.46H58.17c1.93,0,2.89-.82,2.89-2.46a2.23,2.23,0,0,0-.7-1.8A3.31,3.31,0,0,0,58.17,86.18ZM83.72,74.27a6.35,6.35,0,0,0-3.16.78,6,6,0,0,0-2.23,2.11q-1.2-2.89-4.76-2.89a5.58,5.58,0,0,0-5,2.46A2.2,2.2,0,0,0,67.76,75a3,3,0,0,0-1.94-.61,3.3,3.3,0,0,0-2.11.68,2.34,2.34,0,0,0-.89,2V88.51a2.5,2.5,0,0,0,.85,2,3.63,3.63,0,0,0,4.23,0,2.5,2.5,0,0,0,.85-2V81.92a3.48,3.48,0,0,1,.68-2.29,2.24,2.24,0,0,1,1.84-.84,1.71,1.71,0,0,1,1.37.54,2.84,2.84,0,0,1,.46,1.86v7.32a2.5,2.5,0,0,0,.85,2,3.3,3.3,0,0,0,2.11.68,3.26,3.26,0,0,0,2.13-.68,2.49,2.49,0,0,0,.84-2V81.92a3.48,3.48,0,0,1,.69-2.29,2.32,2.32,0,0,1,1.87-.84,1.69,1.69,0,0,1,1.36.54,2.83,2.83,0,0,1,.47,1.86v7.32a2.47,2.47,0,0,0,.85,2,3.61,3.61,0,0,0,4.22,0,2.47,2.47,0,0,0,.85-2V81.32q0-3.82-1.46-5.44A5.36,5.36,0,0,0,83.72,74.27Z"/></svg>