<svg id="Layer_1" data-name="Layer 1" xmlns="http://www.w3.org/2000/svg" viewBox="0 0 100 100"><title>l11_5_1</title><path d="M89.51,77.36h-79A10.49,10.49,0,0,1,0,66.87V36.55A10.49,10.49,0,0,1,10.49,26.06h79A10.49,10.49,0,0,1,100,36.55V66.87A10.49,10.49,0,0,1,89.51,77.36ZM14.11,63.73a8,8,0,0,0,6.8-3.16c1.56-2.11,2.34-5.15,2.34-9.14s-.79-7-2.36-9.12a8,8,0,0,0-6.78-3.16,8,8,0,0,0-6.8,3.16Q5,45.48,5,51.43c0,4,.78,7,2.35,9.14A7.93,7.93,0,0,0,14.11,63.73Zm0-4.72a2.44,2.44,0,0,1-2.35-1.77,17.11,17.11,0,0,1-.71-5.81,17,17,0,0,1,.71-5.8,2.44,2.44,0,0,1,4.69,0,16.64,16.64,0,0,1,.72,5.78,16.8,16.8,0,0,1-.72,5.81A2.42,2.42,0,0,1,14.11,59Zm26.72-.55H34l4.82-4.93a15.68,15.68,0,0,0,2.84-3.82,8.5,8.5,0,0,0,.84-3.79,6.23,6.23,0,0,0-1-3.55A6.53,6.53,0,0,0,38.52,40a10.86,10.86,0,0,0-4.42-.84,13.84,13.84,0,0,0-7.52,2.31,2.37,2.37,0,0,0-.83.89,2.86,2.86,0,0,0-.22,1.22,2.89,2.89,0,0,0,.58,1.82,1.73,1.73,0,0,0,1.43.77,2,2,0,0,0,.64-.11,3.22,3.22,0,0,0,.7-.32l.53-.29.68-.34A15.68,15.68,0,0,1,32,44.27,5.56,5.56,0,0,1,33.83,44a2.66,2.66,0,0,1,1.88.61,2.3,2.3,0,0,1,.66,1.77c0,1.32-.74,2.75-2.24,4.32l-7.21,7.51a3.73,3.73,0,0,0-1.15,2.65,2.58,2.58,0,0,0,.71,1.86,2.62,2.62,0,0,0,1.94.73H40.83a3.47,3.47,0,0,0,2.23-.61,2.39,2.39,0,0,0,.73-1.91,2.27,2.27,0,0,0-.73-1.85A3.47,3.47,0,0,0,40.83,58.46ZM49.36,53a3.11,3.11,0,0,0,2.33-1,3.21,3.21,0,0,0,.94-2.34,3.25,3.25,0,0,0-.94-2.35,3.14,3.14,0,0,0-2.33-1,3.18,3.18,0,0,0-2.36,1,3.25,3.25,0,0,0-.94,2.35A3.21,3.21,0,0,0,47,52,3.15,3.15,0,0,0,49.36,53Zm0,10.67a3.14,3.14,0,0,0,2.33-1,3.4,3.4,0,0,0,0-4.69,3.11,3.11,0,0,0-2.33-1A3.14,3.14,0,0,0,47,58a3.4,3.4,0,0,0,0,4.69A3.18,3.18,0,0,0,49.36,63.63Zm21.15-5.17H63.68l4.82-4.93a15.68,15.68,0,0,0,2.84-3.82,8.5,8.5,0,0,0,.84-3.79,6.23,6.23,0,0,0-1-3.55A6.53,6.53,0,0,0,68.2,40a10.89,10.89,0,0,0-4.42-.84,13.84,13.84,0,0,0-7.52,2.31,2.37,2.37,0,0,0-.83.89,2.86,2.86,0,0,0-.22,1.22,2.89,2.89,0,0,0,.58,1.82,1.73,1.73,0,0,0,1.42.77,2,2,0,0,0,.65-.11,3.22,3.22,0,0,0,.7-.32l.53-.29.68-.34a15.68,15.68,0,0,1,1.92-.83A5.56,5.56,0,0,1,63.51,44a2.66,2.66,0,0,1,1.88.61,2.3,2.3,0,0,1,.66,1.77c0,1.32-.74,2.75-2.24,4.32L56.6,58.19a3.73,3.73,0,0,0-1.15,2.65,2.58,2.58,0,0,0,.71,1.86,2.62,2.62,0,0,0,1.94.73H70.51a3.47,3.47,0,0,0,2.23-.61,2.39,2.39,0,0,0,.73-1.91,2.27,2.27,0,0,0-.73-1.85A3.47,3.47,0,0,0,70.51,58.46Zm14.11,5.27a7.93,7.93,0,0,0,6.8-3.16c1.56-2.11,2.34-5.15,2.34-9.14s-.78-7-2.36-9.12a8,8,0,0,0-6.78-3.16,8,8,0,0,0-6.8,3.16c-1.56,2.11-2.35,5.15-2.35,9.12s.79,7,2.35,9.14A7.93,7.93,0,0,0,84.62,63.73Zm0-4.72a2.44,2.44,0,0,1-2.35-1.77,17.11,17.11,0,0,1-.71-5.81,17,17,0,0,1,.71-5.8,2.44,2.44,0,0,1,4.69,0,16.64,16.64,0,0,1,.72,5.78A16.8,16.8,0,0,1,87,57.24,2.42,2.42,0,0,1,84.62,59Z"/></svg>