<svg id="Layer_1" data-name="Layer 1" xmlns="http://www.w3.org/2000/svg" viewBox="0 0 100 100"><title>l11_5_1</title><path d="M89.92,77.63h-79A10.49,10.49,0,0,1,.41,67.14V36.82A10.49,10.49,0,0,1,10.9,26.33h79a10.49,10.49,0,0,1,10.49,10.49V67.14A10.49,10.49,0,0,1,89.92,77.63ZM14.55,64a7.93,7.93,0,0,0,6.8-3.16q2.36-3.17,2.35-9.15t-2.37-9.11a7.93,7.93,0,0,0-6.78-3.16,8,8,0,0,0-6.8,3.16q-2.34,3.16-2.34,9.11t2.34,9.15A8,8,0,0,0,14.55,64Zm0-4.72a2.42,2.42,0,0,1-2.34-1.77,16.83,16.83,0,0,1-.72-5.82,16.63,16.63,0,0,1,.72-5.79,2.42,2.42,0,0,1,2.34-1.75,2.45,2.45,0,0,1,2.35,1.76,17,17,0,0,1,.71,5.78,17.14,17.14,0,0,1-.71,5.82A2.44,2.44,0,0,1,14.55,59.28Zm24.72-7.93A5.54,5.54,0,0,0,42,49.3a5.64,5.64,0,0,0,1-3.28,6,6,0,0,0-1-3.47,6.55,6.55,0,0,0-3-2.31,11.12,11.12,0,0,0-4.43-.82,13.59,13.59,0,0,0-4,.61A11.35,11.35,0,0,0,27,41.73a2.75,2.75,0,0,0-.82.92A2.63,2.63,0,0,0,26,43.84a2.85,2.85,0,0,0,.58,1.79,1.78,1.78,0,0,0,1.43.73,2.08,2.08,0,0,0,.85-.16,10.66,10.66,0,0,0,1-.49l.71-.34a19.47,19.47,0,0,1,1.86-.82,5.2,5.2,0,0,1,1.78-.3,2.91,2.91,0,0,1,2.08.7A2.55,2.55,0,0,1,37,46.9a1.89,1.89,0,0,1-.85,1.73,5.1,5.1,0,0,1-2.72.55H32a2,2,0,0,0-1.6.71,2.62,2.62,0,0,0-.58,1.7,2.58,2.58,0,0,0,.58,1.7A2,2,0,0,0,32,54h2.11a5.13,5.13,0,0,1,2.78.57,2.14,2.14,0,0,1,.85,1.91,2.35,2.35,0,0,1-.83,2,4.7,4.7,0,0,1-2.74.61,6.24,6.24,0,0,1-2-.29,15.34,15.34,0,0,1-2-.83l-.42-.19-.32-.15c-.43-.23-.77-.39-1-.5a2.3,2.3,0,0,0-.85-.15,1.77,1.77,0,0,0-1.43.73,2.79,2.79,0,0,0-.58,1.79,2.66,2.66,0,0,0,.24,1.17,2.78,2.78,0,0,0,.81.94,11,11,0,0,0,3.54,1.71,15,15,0,0,0,4.25.6,12.64,12.64,0,0,0,4.81-.84,7.13,7.13,0,0,0,3.18-2.36,5.91,5.91,0,0,0,1.12-3.6,6,6,0,0,0-1.14-3.71A5.79,5.79,0,0,0,39.27,51.35Zm10.5,1.87a3.11,3.11,0,0,0,2.33-.95,3.32,3.32,0,0,0-4.69-4.69,3.42,3.42,0,0,0,0,4.69A3.14,3.14,0,0,0,49.77,53.22Zm0,10.68A3.14,3.14,0,0,0,52.1,63,3.21,3.21,0,0,0,53,60.6a3.17,3.17,0,0,0-.94-2.34,3.11,3.11,0,0,0-2.33-1,3.15,3.15,0,0,0-2.36,1,3.2,3.2,0,0,0-.93,2.34A3.24,3.24,0,0,0,47.41,63,3.18,3.18,0,0,0,49.77,63.9ZM64.6,64a8,8,0,0,0,6.8-3.16q2.34-3.17,2.34-9.15t-2.36-9.11a8,8,0,0,0-6.78-3.16,7.93,7.93,0,0,0-6.8,3.16q-2.36,3.16-2.35,9.11t2.35,9.15A7.93,7.93,0,0,0,64.6,64Zm0-4.72a2.44,2.44,0,0,1-2.35-1.77,16.88,16.88,0,0,1-.71-5.82,16.69,16.69,0,0,1,.71-5.79,2.44,2.44,0,0,1,4.69,0,16.68,16.68,0,0,1,.72,5.78,16.83,16.83,0,0,1-.72,5.82A2.43,2.43,0,0,1,64.6,59.28ZM85,64a7.93,7.93,0,0,0,6.8-3.16q2.35-3.17,2.35-9.15t-2.36-9.11A8,8,0,0,0,85,39.42a8,8,0,0,0-6.8,3.16q-2.34,3.16-2.34,9.11t2.34,9.15A8,8,0,0,0,85,64Zm0-4.72a2.43,2.43,0,0,1-2.34-1.77,16.88,16.88,0,0,1-.71-5.82,16.69,16.69,0,0,1,.71-5.79,2.44,2.44,0,0,1,4.69,0,16.68,16.68,0,0,1,.72,5.78,16.83,16.83,0,0,1-.72,5.82A2.44,2.44,0,0,1,85,59.28Z"/></svg>