<svg id="Layer_1" data-name="Layer 1" xmlns="http://www.w3.org/2000/svg" viewBox="0 0 100 100"><title>l11_2_1</title><path d="M89.77,79h-79A10.48,10.48,0,0,1,.26,68.53V38.21A10.48,10.48,0,0,1,10.74,27.73h79a10.49,10.49,0,0,1,10.49,10.48V68.53A10.49,10.49,0,0,1,89.77,79ZM14.4,65.4a8,8,0,0,0,6.8-3.17q2.34-3.15,2.34-9.14c0-4-.79-7-2.36-9.11a8,8,0,0,0-6.78-3.16A7.93,7.93,0,0,0,7.6,44C6,46.09,5.25,49.12,5.25,53.09s.78,7,2.35,9.14A7.94,7.94,0,0,0,14.4,65.4Zm0-4.73a2.44,2.44,0,0,1-2.35-1.77,16.82,16.82,0,0,1-.71-5.81,16.71,16.71,0,0,1,.71-5.8,2.44,2.44,0,0,1,4.69,0,16.68,16.68,0,0,1,.72,5.78,16.76,16.76,0,0,1-.72,5.81A2.43,2.43,0,0,1,14.4,60.67Zm24.71-7.92a5.47,5.47,0,0,0,2.7-2.06,5.61,5.61,0,0,0,1-3.28,6,6,0,0,0-1-3.47,6.74,6.74,0,0,0-3-2.31,11.35,11.35,0,0,0-4.44-.81,13.59,13.59,0,0,0-4,.61,11.35,11.35,0,0,0-3.45,1.7,2.73,2.73,0,0,0-.81.92,2.6,2.6,0,0,0-.24,1.19A2.76,2.76,0,0,0,26.4,47a1.74,1.74,0,0,0,1.42.73,2.31,2.31,0,0,0,.86-.15c.24-.1.58-.27,1-.49l.72-.34A18.06,18.06,0,0,1,32.26,46a5.26,5.26,0,0,1,1.79-.31,3,3,0,0,1,2.07.7,2.55,2.55,0,0,1,.75,2A1.91,1.91,0,0,1,36,50a5.24,5.24,0,0,1-2.72.54H31.8a2,2,0,0,0-1.6.72,2.62,2.62,0,0,0-.57,1.7,2.66,2.66,0,0,0,.57,1.7,2,2,0,0,0,1.6.71h2.11A5.09,5.09,0,0,1,36.7,56a2.12,2.12,0,0,1,.85,1.9,2.38,2.38,0,0,1-.83,2,4.72,4.72,0,0,1-2.74.61,6.27,6.27,0,0,1-2-.28,15.46,15.46,0,0,1-2-.84l-.43-.18-.32-.16c-.43-.22-.77-.39-1-.49a2.26,2.26,0,0,0-.85-.15,1.75,1.75,0,0,0-1.43.73,2.82,2.82,0,0,0-.58,1.78,2.37,2.37,0,0,0,1.06,2.11A11.06,11.06,0,0,0,30,64.77a15.36,15.36,0,0,0,4.25.59,12.74,12.74,0,0,0,4.82-.83,7.11,7.11,0,0,0,3.17-2.36,5.92,5.92,0,0,0,1.13-3.61,6,6,0,0,0-1.14-3.7A5.82,5.82,0,0,0,39.11,52.75Zm10.51,1.87A3.16,3.16,0,0,0,52,53.67a3.24,3.24,0,0,0,.93-2.35A3.2,3.2,0,0,0,52,49a3.13,3.13,0,0,0-2.33-1,3.23,3.23,0,0,0-3.3,3.3,3.21,3.21,0,0,0,3.3,3.3Zm0,10.67a3.12,3.12,0,0,0,2.33-1A3.2,3.2,0,0,0,52.88,62,3.24,3.24,0,0,0,52,59.65a3.16,3.16,0,0,0-2.33-.95,3.33,3.33,0,0,0-2.37,5.64A3.18,3.18,0,0,0,49.62,65.29Zm14.82.11a7.94,7.94,0,0,0,6.8-3.17c1.56-2.1,2.35-5.15,2.35-9.14s-.79-7-2.37-9.11a7.93,7.93,0,0,0-6.78-3.16A7.93,7.93,0,0,0,57.64,44c-1.56,2.11-2.35,5.14-2.35,9.11s.79,7,2.35,9.14A7.94,7.94,0,0,0,64.44,65.4Zm0-4.73a2.44,2.44,0,0,1-2.35-1.77,17.07,17.07,0,0,1-.71-5.81,17,17,0,0,1,.71-5.8,2.45,2.45,0,0,1,4.7,0,17,17,0,0,1,.71,5.78,17.07,17.07,0,0,1-.71,5.81A2.44,2.44,0,0,1,64.44,60.67Zm20.4,4.73a7.94,7.94,0,0,0,6.8-3.17Q94,59.08,94,53.09c0-4-.78-7-2.36-9.11a7.93,7.93,0,0,0-6.78-3.16A7.93,7.93,0,0,0,78,44c-1.56,2.11-2.35,5.14-2.35,9.11s.79,7,2.35,9.14A7.94,7.94,0,0,0,84.84,65.4Zm0-4.73a2.44,2.44,0,0,1-2.35-1.77,17.07,17.07,0,0,1-.71-5.81,17,17,0,0,1,.71-5.8,2.45,2.45,0,0,1,2.35-1.75,2.42,2.42,0,0,1,2.34,1.77,16.68,16.68,0,0,1,.72,5.78,16.76,16.76,0,0,1-.72,5.81A2.42,2.42,0,0,1,84.84,60.67Z"/></svg>