<svg id="Layer_1" data-name="Layer 1" xmlns="http://www.w3.org/2000/svg" viewBox="0 0 100 100"><title>l11_1_1</title><path d="M89.51,76.92h-79A10.49,10.49,0,0,1,0,66.43V36.11A10.49,10.49,0,0,1,10.49,25.63h79A10.49,10.49,0,0,1,100,36.11V66.43A10.49,10.49,0,0,1,89.51,76.92ZM14.14,63.3a7.94,7.94,0,0,0,6.8-3.17C22.5,58,23.29,55,23.29,51s-.79-7-2.37-9.11a7.93,7.93,0,0,0-6.78-3.16,8,8,0,0,0-6.8,3.16C5.78,44,5,47,5,51s.79,7,2.35,9.14A8,8,0,0,0,14.14,63.3Zm0-4.73a2.44,2.44,0,0,1-2.35-1.77A17.07,17.07,0,0,1,11.08,51a17,17,0,0,1,.71-5.8,2.45,2.45,0,0,1,4.7,0A17,17,0,0,1,17.2,51a17.07,17.07,0,0,1-.71,5.81A2.44,2.44,0,0,1,14.14,58.57ZM36.58,47.22a6.66,6.66,0,0,0-2.87.62,5.39,5.39,0,0,0-2.09,1.72,9.07,9.07,0,0,1,1.27-4.44,3.26,3.26,0,0,1,2.81-1.58,4.35,4.35,0,0,1,1.56.28c.5.18,1.12.45,1.87.81l.75.38c.43.22.77.39,1,.49a2.26,2.26,0,0,0,.85.15,1.8,1.8,0,0,0,1.44-.73,2.72,2.72,0,0,0,.6-1.78A2.47,2.47,0,0,0,43.53,42,2.93,2.93,0,0,0,42.7,41a10.74,10.74,0,0,0-3.42-1.7,13.08,13.08,0,0,0-3.89-.61,9.22,9.22,0,0,0-5.29,1.53,9.88,9.88,0,0,0-3.5,4.36,16.47,16.47,0,0,0-1.24,6.65q0,5.77,2.62,8.91a9.13,9.13,0,0,0,7.41,3.13,8.7,8.7,0,0,0,4.32-1.06,7.5,7.5,0,0,0,3-2.94A8.43,8.43,0,0,0,43.75,55a8.58,8.58,0,0,0-.93-4,7.07,7.07,0,0,0-2.57-2.79A6.86,6.86,0,0,0,36.58,47.22ZM35,58.5a2.7,2.7,0,0,1-2.11-.9,3.32,3.32,0,0,1-.82-2.33,3.37,3.37,0,0,1,.8-2.34A2.73,2.73,0,0,1,35,52a2.68,2.68,0,0,1,2.12.87,3.95,3.95,0,0,1,0,4.71A2.65,2.65,0,0,1,35,58.5Zm14.34-6a3.14,3.14,0,0,0,2.33-1,3.25,3.25,0,0,0,.94-2.35,3.21,3.21,0,0,0-.94-2.34,3.11,3.11,0,0,0-2.33-1,3.15,3.15,0,0,0-2.36,1,3.21,3.21,0,0,0-.94,2.34A3.25,3.25,0,0,0,47,51.57,3.18,3.18,0,0,0,49.36,52.52Zm0,10.67a3.11,3.11,0,0,0,2.33-.95,3.21,3.21,0,0,0,.94-2.34,3.25,3.25,0,0,0-.94-2.35,3.14,3.14,0,0,0-2.33-.95,3.18,3.18,0,0,0-2.36.95,3.25,3.25,0,0,0-.94,2.35A3.21,3.21,0,0,0,47,62.24,3.14,3.14,0,0,0,49.36,63.19ZM68.5,50.65a5.47,5.47,0,0,0,2.7-2.06,5.61,5.61,0,0,0,1-3.28,6,6,0,0,0-1-3.47,6.74,6.74,0,0,0-3-2.31,11.35,11.35,0,0,0-4.44-.81,13.59,13.59,0,0,0-4,.61A11.35,11.35,0,0,0,56.26,41a2.73,2.73,0,0,0-.81.92,2.6,2.6,0,0,0-.24,1.19,2.76,2.76,0,0,0,.58,1.78,1.74,1.74,0,0,0,1.42.73,2.31,2.31,0,0,0,.86-.15c.24-.1.58-.27,1-.49l.72-.34a18.06,18.06,0,0,1,1.85-.82,5.26,5.26,0,0,1,1.79-.31,3,3,0,0,1,2.07.7,2.55,2.55,0,0,1,.75,2,1.91,1.91,0,0,1-.85,1.73,5.24,5.24,0,0,1-2.72.54h-1.5a2,2,0,0,0-1.6.72,2.62,2.62,0,0,0-.57,1.7,2.66,2.66,0,0,0,.57,1.7,2,2,0,0,0,1.6.71H63.3a5.09,5.09,0,0,1,2.79.58,2.12,2.12,0,0,1,.85,1.9,2.38,2.38,0,0,1-.83,2,4.72,4.72,0,0,1-2.74.61,6.27,6.27,0,0,1-2-.28,15.46,15.46,0,0,1-1.95-.84L59,57.13,58.71,57c-.43-.22-.77-.39-1-.49a2.26,2.26,0,0,0-.85-.15,1.75,1.75,0,0,0-1.43.73,2.82,2.82,0,0,0-.58,1.78A2.37,2.37,0,0,0,55.89,61a11.06,11.06,0,0,0,3.53,1.72,15.36,15.36,0,0,0,4.25.59,12.74,12.74,0,0,0,4.82-.83,7.11,7.11,0,0,0,3.17-2.36,5.92,5.92,0,0,0,1.13-3.61,6,6,0,0,0-1.14-3.7A5.82,5.82,0,0,0,68.5,50.65ZM84.58,63.3a7.94,7.94,0,0,0,6.8-3.17Q93.74,57,93.73,51c0-4-.79-7-2.36-9.11a8,8,0,0,0-6.79-3.16,8,8,0,0,0-6.8,3.16C76.22,44,75.44,47,75.44,51s.78,7,2.34,9.14A8,8,0,0,0,84.58,63.3Zm0-4.73a2.43,2.43,0,0,1-2.34-1.77A16.76,16.76,0,0,1,81.52,51a16.66,16.66,0,0,1,.72-5.8,2.44,2.44,0,0,1,4.69,0A16.73,16.73,0,0,1,87.64,51a16.82,16.82,0,0,1-.71,5.81A2.44,2.44,0,0,1,84.58,58.57Z"/></svg>