<svg id="Layer_1" data-name="Layer 1" xmlns="http://www.w3.org/2000/svg" viewBox="0 0 100 100"><title>l11_1_1</title><path d="M89.51,79.55h-79A10.49,10.49,0,0,1,0,69.06V38.74A10.49,10.49,0,0,1,10.49,28.25h79A10.49,10.49,0,0,1,100,38.74V69.06A10.49,10.49,0,0,1,89.51,79.55ZM14.14,65.92a7.93,7.93,0,0,0,6.8-3.16c1.56-2.11,2.35-5.15,2.35-9.14s-.79-7-2.37-9.12a8,8,0,0,0-6.78-3.16,8,8,0,0,0-6.8,3.16C5.78,46.61,5,49.65,5,53.62s.79,7,2.35,9.14A8,8,0,0,0,14.14,65.92Zm0-4.72a2.44,2.44,0,0,1-2.35-1.77,17.11,17.11,0,0,1-.71-5.81,17,17,0,0,1,.71-5.8,2.45,2.45,0,0,1,4.7,0,17,17,0,0,1,.71,5.78,17.11,17.11,0,0,1-.71,5.81A2.44,2.44,0,0,1,14.14,61.2Zm24.72-7.92a5.56,5.56,0,0,0,2.7-2.06,5.61,5.61,0,0,0,1-3.28,6,6,0,0,0-1-3.47,6.6,6.6,0,0,0-3-2.31,11.15,11.15,0,0,0-4.43-.82,13.55,13.55,0,0,0-4,.62,11.11,11.11,0,0,0-3.45,1.69,2.85,2.85,0,0,0-.82.92,2.66,2.66,0,0,0-.24,1.19,2.83,2.83,0,0,0,.58,1.79,1.75,1.75,0,0,0,1.43.73,2.26,2.26,0,0,0,.85-.15c.25-.11.59-.27,1-.5l.71-.34A17,17,0,0,1,32,46.48a5,5,0,0,1,1.78-.31,2.91,2.91,0,0,1,2.08.7,2.55,2.55,0,0,1,.74,2,1.91,1.91,0,0,1-.85,1.74A5.21,5.21,0,0,1,33,51.1H31.55a2,2,0,0,0-1.6.71,2.62,2.62,0,0,0-.58,1.7,2.58,2.58,0,0,0,.58,1.7,1.93,1.93,0,0,0,1.6.72h2.11a5,5,0,0,1,2.78.58,2.12,2.12,0,0,1,.85,1.9,2.35,2.35,0,0,1-.83,2,4.72,4.72,0,0,1-2.74.61,6,6,0,0,1-1.95-.29,15.34,15.34,0,0,1-2-.83l-.42-.19a2.44,2.44,0,0,1-.32-.15c-.44-.23-.78-.39-1-.49A2.11,2.11,0,0,0,27.2,59a1.75,1.75,0,0,0-1.43.74,2.74,2.74,0,0,0-.58,1.78,2.66,2.66,0,0,0,.24,1.17,2.78,2.78,0,0,0,.81.94,10.8,10.8,0,0,0,3.54,1.71,15,15,0,0,0,4.25.6,12.85,12.85,0,0,0,4.81-.83A7.22,7.22,0,0,0,42,62.69a5.91,5.91,0,0,0,1.12-3.6A6,6,0,0,0,42,55.38,5.76,5.76,0,0,0,38.86,53.28Zm10.5,1.87a3.11,3.11,0,0,0,2.33-1,3.21,3.21,0,0,0,.94-2.34,3.25,3.25,0,0,0-.94-2.35,3.14,3.14,0,0,0-2.33-1,3.18,3.18,0,0,0-2.36,1,3.25,3.25,0,0,0-.94,2.35A3.21,3.21,0,0,0,47,54.19,3.15,3.15,0,0,0,49.36,55.15Zm0,10.67a3.14,3.14,0,0,0,2.33-.95,3.4,3.4,0,0,0,0-4.69,3.11,3.11,0,0,0-2.33-1,3.14,3.14,0,0,0-2.36,1,3.4,3.4,0,0,0,0,4.69A3.18,3.18,0,0,0,49.36,65.82Zm14.82.1A7.93,7.93,0,0,0,71,62.76c1.57-2.11,2.35-5.15,2.35-9.14s-.79-7-2.36-9.12a8,8,0,0,0-6.79-3.16,8,8,0,0,0-6.8,3.16Q55,47.67,55,53.62c0,4,.78,7,2.34,9.14A8,8,0,0,0,64.18,65.92Zm0-4.72a2.43,2.43,0,0,1-2.34-1.77,16.8,16.8,0,0,1-.72-5.81,16.66,16.66,0,0,1,.72-5.8,2.44,2.44,0,0,1,4.69,0,16.7,16.7,0,0,1,.71,5.78,16.86,16.86,0,0,1-.71,5.81A2.44,2.44,0,0,1,64.18,61.2Zm20.4,4.72a7.93,7.93,0,0,0,6.8-3.16c1.57-2.11,2.35-5.15,2.35-9.14s-.79-7-2.36-9.12a8,8,0,0,0-6.79-3.16,8,8,0,0,0-6.8,3.16q-2.34,3.16-2.34,9.12c0,4,.78,7,2.34,9.14A8,8,0,0,0,84.58,65.92Zm0-4.72a2.43,2.43,0,0,1-2.34-1.77,16.8,16.8,0,0,1-.72-5.81,16.66,16.66,0,0,1,.72-5.8,2.44,2.44,0,0,1,4.69,0,16.7,16.7,0,0,1,.71,5.78,16.86,16.86,0,0,1-.71,5.81A2.44,2.44,0,0,1,84.58,61.2Z"/></svg>