<svg id="Layer_1" data-name="Layer 1" xmlns="http://www.w3.org/2000/svg" viewBox="0 0 100 100"><title>l11_4_1</title><path d="M100,50v25a25,25,0,0,1-25,25H50a50,50,0,1,1,50-50ZM51.71,9.36a5.54,5.54,0,0,0-5.54,5.54V50.65h-23a5.55,5.55,0,0,0,0,11.09H51.71a5.54,5.54,0,0,0,5.54-5.55V14.9A5.54,5.54,0,0,0,51.71,9.36Zm-5.11,73h7.45a3.57,3.57,0,0,0,2.47-.73,2.62,2.62,0,0,0,.82-2,2.55,2.55,0,0,0-.82-2,3.62,3.62,0,0,0-2.47-.72H46.6c-2.19,0-3.29.92-3.29,2.74S44.41,82.38,46.6,82.38Zm26.82-10.5a7.65,7.65,0,0,0-3.35.74,6.08,6.08,0,0,0-2.43,2,10.43,10.43,0,0,1,1.48-5.17,3.79,3.79,0,0,1,3.27-1.85,5.32,5.32,0,0,1,1.82.32c.58.21,1.31.53,2.18,1l.87.44c.5.26.9.45,1.19.57a2.57,2.57,0,0,0,1,.18,2.12,2.12,0,0,0,1.69-.85,3.2,3.2,0,0,0,.69-2.08,2.89,2.89,0,0,0-.3-1.39,3.52,3.52,0,0,0-1-1.07,12.79,12.79,0,0,0-4-2A15.6,15.6,0,0,0,72,62a10.72,10.72,0,0,0-6.16,1.78,11.66,11.66,0,0,0-4.08,5.09,19.31,19.31,0,0,0-1.44,7.75q0,6.74,3,10.38T72,90.62a10.16,10.16,0,0,0,5-1.23A8.78,8.78,0,0,0,80.53,86a10.59,10.59,0,0,0,.16-9.67,8.17,8.17,0,0,0-3-3.25A8,8,0,0,0,73.42,71.88ZM71.6,85A3.17,3.17,0,0,1,69.14,84a4.42,4.42,0,0,1,0-5.45,3.17,3.17,0,0,1,2.48-1,3.13,3.13,0,0,1,2.47,1,4.6,4.6,0,0,1,0,5.49A3.11,3.11,0,0,1,71.6,85Z"/></svg>