<svg id="Layer_1" data-name="Layer 1" xmlns="http://www.w3.org/2000/svg" viewBox="0 0 100 100"><title>l11_4_1</title><path d="M89.51,77.87h-79A10.49,10.49,0,0,1,0,67.39V37.06A10.49,10.49,0,0,1,10.49,26.58h79A10.49,10.49,0,0,1,100,37.06V67.39A10.49,10.49,0,0,1,89.51,77.87ZM14.14,64.25a8,8,0,0,0,6.8-3.16c1.56-2.11,2.35-5.16,2.35-9.15s-.79-7-2.37-9.11a7.93,7.93,0,0,0-6.78-3.16,8,8,0,0,0-6.8,3.16C5.78,44.94,5,48,5,51.94s.79,7,2.35,9.15A8,8,0,0,0,14.14,64.25Zm0-4.73a2.44,2.44,0,0,1-2.35-1.77,17,17,0,0,1-.71-5.81,17,17,0,0,1,.71-5.8,2.45,2.45,0,0,1,4.7,0,17,17,0,0,1,.71,5.78,17,17,0,0,1-.71,5.81A2.44,2.44,0,0,1,14.14,59.52ZM36.58,48.17a6.52,6.52,0,0,0-2.87.63,5.28,5.28,0,0,0-2.09,1.71,9,9,0,0,1,1.27-4.43,3.25,3.25,0,0,1,2.81-1.59,4.58,4.58,0,0,1,1.56.28c.5.18,1.12.45,1.87.81l.75.38c.43.22.77.39,1,.49a2.26,2.26,0,0,0,.85.15,1.8,1.8,0,0,0,1.44-.73,2.72,2.72,0,0,0,.6-1.78,2.47,2.47,0,0,0-.26-1.19A2.93,2.93,0,0,0,42.7,42a10.74,10.74,0,0,0-3.42-1.7,13.08,13.08,0,0,0-3.89-.61A9.22,9.22,0,0,0,30.1,41.2a9.86,9.86,0,0,0-3.5,4.37,16.39,16.39,0,0,0-1.24,6.64c0,3.86.87,6.82,2.62,8.91a9.1,9.1,0,0,0,7.41,3.13,8.7,8.7,0,0,0,4.32-1.06,7.5,7.5,0,0,0,3-2.94A8.43,8.43,0,0,0,43.75,56a8.58,8.58,0,0,0-.93-4,7.07,7.07,0,0,0-2.57-2.79A6.86,6.86,0,0,0,36.58,48.17ZM35,59.45a2.7,2.7,0,0,1-2.11-.9,3.3,3.3,0,0,1-.82-2.33,3.37,3.37,0,0,1,.8-2.34A2.73,2.73,0,0,1,35,53a2.68,2.68,0,0,1,2.12.87,3.95,3.95,0,0,1,0,4.71A2.65,2.65,0,0,1,35,59.45Zm14.34-6a3.14,3.14,0,0,0,2.33-.95,3.25,3.25,0,0,0,.94-2.35,3.21,3.21,0,0,0-.94-2.34,3.11,3.11,0,0,0-2.33-1,3.15,3.15,0,0,0-2.36,1,3.21,3.21,0,0,0-.94,2.34A3.25,3.25,0,0,0,47,52.52,3.18,3.18,0,0,0,49.36,53.47Zm0,10.68a3.11,3.11,0,0,0,2.33-1,3.21,3.21,0,0,0,.94-2.34,3.25,3.25,0,0,0-.94-2.35,3.14,3.14,0,0,0-2.33-1,3.18,3.18,0,0,0-2.36,1,3.25,3.25,0,0,0-.94,2.35A3.21,3.21,0,0,0,47,63.19,3.15,3.15,0,0,0,49.36,64.15ZM68.5,51.6a5.47,5.47,0,0,0,2.7-2.06,5.61,5.61,0,0,0,1-3.28,6,6,0,0,0-1-3.47,6.74,6.74,0,0,0-3-2.31,11.35,11.35,0,0,0-4.44-.81,13.59,13.59,0,0,0-4,.61A11.35,11.35,0,0,0,56.26,42a2.73,2.73,0,0,0-.81.92,2.6,2.6,0,0,0-.24,1.19,2.76,2.76,0,0,0,.58,1.78,1.74,1.74,0,0,0,1.42.73,2.31,2.31,0,0,0,.86-.15c.24-.1.58-.27,1-.49l.72-.34a18.06,18.06,0,0,1,1.85-.82,5.26,5.26,0,0,1,1.79-.31,3,3,0,0,1,2.07.7,2.55,2.55,0,0,1,.75,2,1.91,1.91,0,0,1-.85,1.73,5.24,5.24,0,0,1-2.72.54h-1.5a2,2,0,0,0-1.6.72,2.82,2.82,0,0,0,0,3.4,2,2,0,0,0,1.6.71H63.3a5.09,5.09,0,0,1,2.79.58,2.13,2.13,0,0,1,.85,1.9,2.36,2.36,0,0,1-.83,2,4.71,4.71,0,0,1-2.74.62,6.26,6.26,0,0,1-2-.29,15.46,15.46,0,0,1-1.95-.84L59,58.08l-.32-.16c-.43-.22-.77-.39-1-.49a2.26,2.26,0,0,0-.85-.15,1.75,1.75,0,0,0-1.43.73,2.82,2.82,0,0,0-.58,1.78A2.67,2.67,0,0,0,55.07,61a2.6,2.6,0,0,0,.82.93,11.06,11.06,0,0,0,3.53,1.72,15.36,15.36,0,0,0,4.25.59,12.74,12.74,0,0,0,4.82-.83A7,7,0,0,0,71.66,61a5.92,5.92,0,0,0,1.13-3.61,6,6,0,0,0-1.14-3.7A5.82,5.82,0,0,0,68.5,51.6ZM84.58,64.25a8,8,0,0,0,6.8-3.16q2.36-3.17,2.35-9.15c0-4-.79-7-2.36-9.11a8,8,0,0,0-6.79-3.16,8,8,0,0,0-6.8,3.16c-1.56,2.11-2.34,5.14-2.34,9.11s.78,7,2.34,9.15A8,8,0,0,0,84.58,64.25Zm0-4.73a2.43,2.43,0,0,1-2.34-1.77,16.73,16.73,0,0,1-.72-5.81,16.66,16.66,0,0,1,.72-5.8,2.44,2.44,0,0,1,4.69,0,16.73,16.73,0,0,1,.71,5.78,16.78,16.78,0,0,1-.71,5.81A2.44,2.44,0,0,1,84.58,59.52Z"/></svg>