<svg id="Layer_1" data-name="Layer 1" xmlns="http://www.w3.org/2000/svg" viewBox="0 0 100 100"><title>l11_4_1</title><path d="M100.38,50v25a25,25,0,0,1-24.95,25H50.38a50,50,0,1,1,50-50ZM52.09,9.36a5.54,5.54,0,0,0-5.54,5.54V50.65h-23a5.55,5.55,0,0,0,0,11.09H52.09a5.55,5.55,0,0,0,5.55-5.55V14.9A5.55,5.55,0,0,0,52.09,9.36ZM37.3,84.94H35.56v-10A1.77,1.77,0,0,0,33.67,73a3.62,3.62,0,0,0-1.76.53l-3.4,2a1.46,1.46,0,0,0-.74,1.32A1.73,1.73,0,0,0,28.2,78a1.26,1.26,0,0,0,1,.52,1.47,1.47,0,0,0,.75-.21l1.69-1v7.66H29.94a2.12,2.12,0,0,0-1.41.39,1.43,1.43,0,0,0-.44,1.14c0,1,.61,1.57,1.85,1.57H37.3c1.23,0,1.84-.52,1.84-1.57a1.43,1.43,0,0,0-.44-1.14A2.11,2.11,0,0,0,37.3,84.94Zm12.18,0H45.21l3-3.07A9.75,9.75,0,0,0,50,79.48a5.28,5.28,0,0,0,.52-2.37,3.87,3.87,0,0,0-.64-2.21A4.15,4.15,0,0,0,48,73.41a6.93,6.93,0,0,0-2.76-.52,8.49,8.49,0,0,0-2.45.38,8.22,8.22,0,0,0-2.23,1.07,1.34,1.34,0,0,0-.52.55,1.69,1.69,0,0,0-.14.76,1.85,1.85,0,0,0,.36,1.14,1.1,1.1,0,0,0,.89.47,1.34,1.34,0,0,0,.4-.06A2.67,2.67,0,0,0,42,77l.33-.18.42-.21a9.28,9.28,0,0,1,1.2-.52,3.43,3.43,0,0,1,1.13-.18,1.64,1.64,0,0,1,1.18.38,1.4,1.4,0,0,1,.42,1.1,4.17,4.17,0,0,1-1.4,2.7l-4.5,4.68a2.34,2.34,0,0,0-.72,1.66,1.58,1.58,0,0,0,.44,1.16,1.63,1.63,0,0,0,1.21.45h7.75a2.12,2.12,0,0,0,1.38-.38,1.45,1.45,0,0,0,.46-1.19,1.4,1.4,0,0,0-.46-1.16A2.19,2.19,0,0,0,49.48,84.94ZM66,77.35a4.3,4.3,0,0,0-1.9.42,3.09,3.09,0,0,0-1.3,1.17,1.62,1.62,0,0,0-.56-1.13,2,2,0,0,0-1.31-.42,1.89,1.89,0,0,0-1.35.48,1.67,1.67,0,0,0-.49,1.26V90.27a1.56,1.56,0,0,0,.53,1.22A2,2,0,0,0,61,92a1.93,1.93,0,0,0,1.33-.45,1.5,1.5,0,0,0,.51-1.19v-3.6a3.28,3.28,0,0,0,1.31,1.08,4.15,4.15,0,0,0,1.83.4,4.28,4.28,0,0,0,4-2.53,6.52,6.52,0,0,0,.59-2.84A6.67,6.67,0,0,0,70,80,4.53,4.53,0,0,0,68.39,78,4.26,4.26,0,0,0,66,77.35Zm-1.14,8a1.82,1.82,0,0,1-1.53-.67,3,3,0,0,1-.53-1.92,3.12,3.12,0,0,1,.53-2,1.81,1.81,0,0,1,1.51-.68,1.77,1.77,0,0,1,1.5.69,3.15,3.15,0,0,1,.53,2,3,3,0,0,1-.52,1.89A1.77,1.77,0,0,1,64.86,85.39Zm20.81-8a4,4,0,0,0-3.44,1.84,3,3,0,0,0-3-1.84A3.54,3.54,0,0,0,76,78.92a1.44,1.44,0,0,0-.52-1.14,2,2,0,0,0-1.24-.39,2.12,2.12,0,0,0-1.35.44,1.48,1.48,0,0,0-.56,1.26v7.34a1.57,1.57,0,0,0,.54,1.3,2.28,2.28,0,0,0,2.69,0,1.57,1.57,0,0,0,.54-1.3v-4.2a2.28,2.28,0,0,1,.44-1.47,1.45,1.45,0,0,1,1.18-.53,1.12,1.12,0,0,1,.87.34,1.9,1.9,0,0,1,.29,1.19v4.67a1.57,1.57,0,0,0,.54,1.3,2.31,2.31,0,0,0,2.71,0,1.59,1.59,0,0,0,.53-1.3v-4.2a2.28,2.28,0,0,1,.44-1.47,1.5,1.5,0,0,1,1.19-.53,1.09,1.09,0,0,1,.87.34,1.83,1.83,0,0,1,.3,1.19v4.67a1.57,1.57,0,0,0,.54,1.3,2.29,2.29,0,0,0,2.7,0,1.57,1.57,0,0,0,.54-1.3V81.85a5.07,5.07,0,0,0-.94-3.47A3.37,3.37,0,0,0,85.67,77.35Z"/></svg>