<svg id="Layer_1" data-name="Layer 1" xmlns="http://www.w3.org/2000/svg" viewBox="0 0 100 100"><title>l11_4_1</title><path d="M100,50v25a25,25,0,0,1-25,25H50a50,50,0,1,1,50-50ZM51.71,9.36a5.54,5.54,0,0,0-5.54,5.54V50.65h-23a5.55,5.55,0,0,0,0,11.09H51.71a5.54,5.54,0,0,0,5.54-5.55V14.9A5.54,5.54,0,0,0,51.71,9.36Zm5.94,67.16h-5v-5a2.29,2.29,0,0,0-2.34-2.34,2.25,2.25,0,0,0-1.66.67A2.27,2.27,0,0,0,48,71.53v5H43a2.25,2.25,0,0,0-1.66.67,2.27,2.27,0,0,0-.67,1.67,2.31,2.31,0,0,0,.67,1.68,2.23,2.23,0,0,0,1.66.69h5v5a2.37,2.37,0,0,0,4,1.66,2.31,2.31,0,0,0,.65-1.66v-5h5a2.25,2.25,0,0,0,1.67-.69A2.31,2.31,0,0,0,60,78.86a2.29,2.29,0,0,0-2.34-2.34Zm24.84,8H79.24V65.7a3.41,3.41,0,0,0-1-2.57,3.46,3.46,0,0,0-2.55-1,6.7,6.7,0,0,0-3.29,1l-6.34,3.68a2.71,2.71,0,0,0-1.39,2.46,3.34,3.34,0,0,0,.8,2.16,2.39,2.39,0,0,0,1.9,1,2.68,2.68,0,0,0,1.39-.4L72,70.18v14.3h-3.2a4,4,0,0,0-2.62.71,2.69,2.69,0,0,0-.83,2.14q0,2.94,3.45,2.94H82.49q3.45,0,3.45-2.94a2.69,2.69,0,0,0-.83-2.14A4,4,0,0,0,82.49,84.48Z"/></svg>