<svg id="Layer_1" data-name="Layer 1" xmlns="http://www.w3.org/2000/svg" viewBox="0 0 100 100"><title>l11_5_1</title><path d="M100,50v25a25,25,0,0,1-25,25H50a50,50,0,1,1,50-50ZM51.71,9.36a5.54,5.54,0,0,0-5.54,5.54V50.65h-23a5.55,5.55,0,0,0,0,11.09H51.71a5.54,5.54,0,0,0,5.54-5.55V14.9A5.54,5.54,0,0,0,51.71,9.36ZM57.6,75.7a8.29,8.29,0,0,0-3.29.6V72.21h7.18c1.93,0,2.9-.78,2.9-2.33s-1-2.3-2.9-2.3H51.18a2.88,2.88,0,0,0-2.1.73,2.92,2.92,0,0,0-.73,2.13v9A1.81,1.81,0,0,0,49,80.91a2.32,2.32,0,0,0,1.56.55,3.26,3.26,0,0,0,1.5-.37,11.28,11.28,0,0,1,1.91-.6,9.13,9.13,0,0,1,1.81-.17,3.75,3.75,0,0,1,2.6.84,3,3,0,0,1,.93,2.33,2.87,2.87,0,0,1-.9,2.34,4.25,4.25,0,0,1-2.76.75,5.52,5.52,0,0,1-1.85-.3,20.18,20.18,0,0,1-1.88-.8l-.66-.33a10,10,0,0,0-1-.5,2.23,2.23,0,0,0-.83-.13,1.73,1.73,0,0,0-1.4.71A2.73,2.73,0,0,0,47.45,87a2.57,2.57,0,0,0,.25,1.15,3,3,0,0,0,.79.91A10.73,10.73,0,0,0,51.9,90.7a13.82,13.82,0,0,0,4,.6,10.89,10.89,0,0,0,4.76-1,7.52,7.52,0,0,0,3.19-2.83A7.92,7.92,0,0,0,65,83.25a8,8,0,0,0-1-3.94,6.73,6.73,0,0,0-2.63-2.66A7.7,7.7,0,0,0,57.6,75.7Zm21.23-1.43a7.24,7.24,0,0,0-3,.6,5.89,5.89,0,0,0-2.23,1.76V70a2.33,2.33,0,0,0-.79-1.86,3.08,3.08,0,0,0-2.1-.7,3.17,3.17,0,0,0-2.2.75,2.45,2.45,0,0,0-.83,1.91V88.51a2.6,2.6,0,0,0,.8,2,3.1,3.1,0,0,0,2.16.73,3.15,3.15,0,0,0,2.17-.73,2.59,2.59,0,0,0,.79-2V81.92a3.21,3.21,0,0,1,.79-2.28,2.74,2.74,0,0,1,2.11-.85c1.37,0,2.06.8,2.06,2.4v7.32a2.6,2.6,0,0,0,.8,2,3.56,3.56,0,0,0,4.32,0,2.56,2.56,0,0,0,.8-2V81.32a8.33,8.33,0,0,0-1.4-5.3A5.1,5.1,0,0,0,78.83,74.27Z"/></svg>