<svg id="Layer_1" data-name="Layer 1" xmlns="http://www.w3.org/2000/svg" viewBox="0 0 100 100"><title>l11_2_1</title><path d="M89.77,79.47h-79A10.48,10.48,0,0,1,.26,69V38.67A10.48,10.48,0,0,1,10.74,28.18h79a10.49,10.49,0,0,1,10.49,10.49V69A10.49,10.49,0,0,1,89.77,79.47ZM14.4,65.85a8,8,0,0,0,6.8-3.16q2.34-3.16,2.34-9.15c0-4-.79-7-2.36-9.11a8,8,0,0,0-6.78-3.16,7.93,7.93,0,0,0-6.8,3.16C6,46.54,5.25,49.57,5.25,53.54s.78,7,2.35,9.15A8,8,0,0,0,14.4,65.85Zm0-4.73a2.44,2.44,0,0,1-2.35-1.77,16.78,16.78,0,0,1-.71-5.81,16.71,16.71,0,0,1,.71-5.8,2.44,2.44,0,0,1,4.69,0,16.68,16.68,0,0,1,.72,5.78,16.73,16.73,0,0,1-.72,5.81A2.43,2.43,0,0,1,14.4,61.12ZM36.83,49.77A6.52,6.52,0,0,0,34,50.4a5.44,5.44,0,0,0-2.09,1.71,9,9,0,0,1,1.28-4.43A3.22,3.22,0,0,1,36,46.1a4.53,4.53,0,0,1,1.56.27,19.62,19.62,0,0,1,1.87.81l.75.38c.43.22.77.39,1,.49a2.26,2.26,0,0,0,.85.15,1.8,1.8,0,0,0,1.45-.73A2.75,2.75,0,0,0,44,45.69a2.5,2.5,0,0,0-.25-1.19,2.85,2.85,0,0,0-.84-.92,10.79,10.79,0,0,0-3.41-1.7,13.19,13.19,0,0,0-3.9-.61,9.18,9.18,0,0,0-5.28,1.53,9.79,9.79,0,0,0-3.5,4.37,16.39,16.39,0,0,0-1.25,6.64c0,3.86.88,6.83,2.62,8.91a9.13,9.13,0,0,0,7.41,3.13A8.7,8.7,0,0,0,40,64.79a7.59,7.59,0,0,0,3-2.94,9.06,9.06,0,0,0,.13-8.29,7,7,0,0,0-2.56-2.79A6.89,6.89,0,0,0,36.83,49.77ZM35.27,61.05a2.73,2.73,0,0,1-2.11-.9,3.79,3.79,0,0,1,0-4.67,2.72,2.72,0,0,1,2.12-.89,2.69,2.69,0,0,1,2.13.87,4,4,0,0,1,0,4.71A2.68,2.68,0,0,1,35.27,61.05Zm14.35-6a3.16,3.16,0,0,0,2.33-1,3.24,3.24,0,0,0,.93-2.35A3.2,3.2,0,0,0,52,49.43a3.12,3.12,0,0,0-2.33-1,3.21,3.21,0,0,0-3.3,3.29,3.21,3.21,0,0,0,3.3,3.3Zm0,10.68a3.13,3.13,0,0,0,2.33-1,3.2,3.2,0,0,0,.93-2.34A3.24,3.24,0,0,0,52,60.1a3.16,3.16,0,0,0-2.33-1,3.3,3.3,0,1,0,0,6.6ZM68.76,53.2a5.56,5.56,0,0,0,2.7-2.06,5.61,5.61,0,0,0,1-3.28,5.92,5.92,0,0,0-1-3.46,6.64,6.64,0,0,0-3-2.32A11.29,11.29,0,0,0,64,41.27a13.59,13.59,0,0,0-4,.61,11.12,11.12,0,0,0-3.45,1.7,2.66,2.66,0,0,0-.82.92,2.63,2.63,0,0,0-.24,1.19A2.8,2.8,0,0,0,56,47.47a1.75,1.75,0,0,0,1.43.73,2.26,2.26,0,0,0,.85-.15c.25-.1.59-.27,1-.49l.71-.34a19.47,19.47,0,0,1,1.86-.82,5.2,5.2,0,0,1,1.78-.3,3,3,0,0,1,2.08.69,2.59,2.59,0,0,1,.74,2,1.89,1.89,0,0,1-.85,1.73,5.2,5.2,0,0,1-2.72.55H61.45a1.94,1.94,0,0,0-1.6.71,2.78,2.78,0,0,0,0,3.4,2,2,0,0,0,1.6.71h2.11a5.12,5.12,0,0,1,2.78.58,2.13,2.13,0,0,1,.85,1.9,2.33,2.33,0,0,1-.83,2,4.69,4.69,0,0,1-2.74.62,6.24,6.24,0,0,1-1.95-.29,14.19,14.19,0,0,1-2-.84l-.42-.18L59,59.52c-.43-.22-.77-.39-1-.49a2.3,2.3,0,0,0-.85-.15,1.74,1.74,0,0,0-1.43.73,2.76,2.76,0,0,0-.58,1.78,2.39,2.39,0,0,0,1,2.11,11,11,0,0,0,3.54,1.72,15,15,0,0,0,4.25.59A12.65,12.65,0,0,0,68.74,65a7.13,7.13,0,0,0,3.18-2.36A5.92,5.92,0,0,0,73,59a6,6,0,0,0-1.14-3.7A5.79,5.79,0,0,0,68.76,53.2ZM84.84,65.85a8,8,0,0,0,6.8-3.16Q94,59.53,94,53.54c0-4-.78-7-2.36-9.11a7.93,7.93,0,0,0-6.78-3.16A7.93,7.93,0,0,0,78,44.43c-1.56,2.11-2.35,5.14-2.35,9.11s.79,7,2.35,9.15A8,8,0,0,0,84.84,65.85Zm0-4.73a2.44,2.44,0,0,1-2.35-1.77,17,17,0,0,1-.71-5.81,17,17,0,0,1,.71-5.8A2.45,2.45,0,0,1,84.84,46a2.42,2.42,0,0,1,2.34,1.77,16.68,16.68,0,0,1,.72,5.78,16.73,16.73,0,0,1-.72,5.81A2.42,2.42,0,0,1,84.84,61.12Z"/></svg>