<svg id="Layer_1" data-name="Layer 1" xmlns="http://www.w3.org/2000/svg" viewBox="0 0 100 100"><title>l11_1_1</title><path d="M100.21,50v25a25,25,0,0,1-24.95,25H50.21a50,50,0,1,1,50-50ZM51.92,9.36a5.54,5.54,0,0,0-5.54,5.54V50.65h-23a5.55,5.55,0,0,0,0,11.09H51.92a5.54,5.54,0,0,0,5.54-5.55V14.9A5.54,5.54,0,0,0,51.92,9.36ZM46,78.26a5.36,5.36,0,0,0-2.1.38V76h4.58c1.23,0,1.85-.49,1.85-1.48s-.62-1.47-1.85-1.47H41.94a1.8,1.8,0,0,0-1.33.47,1.84,1.84,0,0,0-.47,1.36v5.75a1.18,1.18,0,0,0,.4.92,1.5,1.5,0,0,0,1,.35,2.12,2.12,0,0,0,1-.23,6.62,6.62,0,0,1,1.22-.38,5.1,5.1,0,0,1,1.15-.11,2.43,2.43,0,0,1,1.66.53,1.9,1.9,0,0,1,.59,1.48,1.85,1.85,0,0,1-.57,1.5,2.7,2.7,0,0,1-1.76.48A3.69,3.69,0,0,1,43.61,85q-.54-.2-1.2-.51L42,84.29a5.26,5.26,0,0,0-.64-.32,1.36,1.36,0,0,0-.53-.09,1.09,1.09,0,0,0-.89.46,1.72,1.72,0,0,0-.36,1.11,1.49,1.49,0,0,0,.16.73,1.79,1.79,0,0,0,.5.59,7.08,7.08,0,0,0,2.17,1.06,9,9,0,0,0,2.58.38,6.79,6.79,0,0,0,3-.64,4.71,4.71,0,0,0,2-1.8,5,5,0,0,0,.72-2.69,5.16,5.16,0,0,0-.6-2.52,4.43,4.43,0,0,0-1.68-1.7A4.91,4.91,0,0,0,46,78.26Zm19.41-.91a4.3,4.3,0,0,0-1.9.42,3.09,3.09,0,0,0-1.3,1.17,1.62,1.62,0,0,0-.56-1.13,2,2,0,0,0-1.31-.42,1.89,1.89,0,0,0-1.35.48,1.67,1.67,0,0,0-.49,1.26V90.27a1.56,1.56,0,0,0,.53,1.22,2,2,0,0,0,1.4.48,1.93,1.93,0,0,0,1.33-.45,1.5,1.5,0,0,0,.51-1.19v-3.6a3.28,3.28,0,0,0,1.31,1.08,4.15,4.15,0,0,0,1.83.4,4.37,4.37,0,0,0,2.4-.66,4.44,4.44,0,0,0,1.62-1.87,6.52,6.52,0,0,0,.59-2.84A6.67,6.67,0,0,0,69.47,80,4.53,4.53,0,0,0,67.84,78,4.26,4.26,0,0,0,65.45,77.35Zm-1.14,8a1.82,1.82,0,0,1-1.53-.67,3,3,0,0,1-.53-1.92,3.12,3.12,0,0,1,.53-2,2,2,0,0,1,3,0,3.15,3.15,0,0,1,.53,2,3,3,0,0,1-.52,1.89A1.77,1.77,0,0,1,64.31,85.39Zm20.81-8a4,4,0,0,0-2,.5,4,4,0,0,0-1.42,1.34,3,3,0,0,0-3-1.84,3.54,3.54,0,0,0-3.18,1.57A1.44,1.44,0,0,0,75,77.78a2,2,0,0,0-1.25-.39,2.12,2.12,0,0,0-1.34.44,1.48,1.48,0,0,0-.56,1.26v7.34a1.57,1.57,0,0,0,.54,1.3,2.28,2.28,0,0,0,2.69,0,1.57,1.57,0,0,0,.54-1.3v-4.2A2.28,2.28,0,0,1,76,80.76a1.44,1.44,0,0,1,1.17-.53,1.09,1.09,0,0,1,.87.34,1.83,1.83,0,0,1,.3,1.19v4.67a1.57,1.57,0,0,0,.54,1.3,2.31,2.31,0,0,0,2.71,0,1.59,1.59,0,0,0,.53-1.3v-4.2a2.28,2.28,0,0,1,.44-1.47,1.5,1.5,0,0,1,1.19-.53,1.12,1.12,0,0,1,.87.34,1.83,1.83,0,0,1,.3,1.19v4.67a1.57,1.57,0,0,0,.54,1.3,2.28,2.28,0,0,0,2.69,0,1.54,1.54,0,0,0,.54-1.3V81.85a5.13,5.13,0,0,0-.93-3.47A3.37,3.37,0,0,0,85.12,77.35Z"/></svg>