<svg id="Layer_1" data-name="Layer 1" xmlns="http://www.w3.org/2000/svg" viewBox="0 0 100 100"><title>l11_4_1</title><path d="M89.51,77.87h-79A10.49,10.49,0,0,1,0,67.39V37.06A10.49,10.49,0,0,1,10.49,26.58h79A10.49,10.49,0,0,1,100,37.06V67.39A10.49,10.49,0,0,1,89.51,77.87ZM20.45,59H13.61l4.83-4.93a15.71,15.71,0,0,0,2.84-3.83,8.49,8.49,0,0,0,.83-3.79,6.24,6.24,0,0,0-1-3.55,6.72,6.72,0,0,0-2.94-2.38,10.89,10.89,0,0,0-4.42-.83,13.23,13.23,0,0,0-3.93.61A13.2,13.2,0,0,0,6.2,42a2.27,2.27,0,0,0-.83.88,3.29,3.29,0,0,0,.36,3,1.72,1.72,0,0,0,1.42.76,2,2,0,0,0,.65-.1,5.07,5.07,0,0,0,.7-.32c.26-.15.43-.25.52-.29l.68-.34a17.41,17.41,0,0,1,1.92-.84,5.65,5.65,0,0,1,1.82-.29,2.67,2.67,0,0,1,1.89.62A2.26,2.26,0,0,1,16,46.87c0,1.32-.74,2.76-2.24,4.32L6.54,58.71a3.7,3.7,0,0,0-1.15,2.65,2.52,2.52,0,0,0,.71,1.85A2.58,2.58,0,0,0,8,63.94H20.45a3.36,3.36,0,0,0,2.22-.61,2.34,2.34,0,0,0,.74-1.9,2.26,2.26,0,0,0-.74-1.86A3.48,3.48,0,0,0,20.45,59Zm21.31,0H39V42.86a3,3,0,0,0-.84-2.21A3,3,0,0,0,36,39.84a5.73,5.73,0,0,0-2.82.85l-5.44,3.16A2.31,2.31,0,0,0,26.5,46a2.88,2.88,0,0,0,.68,1.85,2.06,2.06,0,0,0,1.63.83A2.27,2.27,0,0,0,30,48.3l2.72-1.6V59H30a3.42,3.42,0,0,0-2.25.61A2.31,2.31,0,0,0,27,61.43c0,1.67,1,2.51,3,2.51H41.76c2,0,3-.84,3-2.51A2.31,2.31,0,0,0,44,59.59,3.42,3.42,0,0,0,41.76,59Zm7.62-5.51a3.16,3.16,0,0,0,2.33-.95,3.24,3.24,0,0,0,.93-2.35,3.2,3.2,0,0,0-.93-2.34,3.34,3.34,0,0,0-4.69,0,3.17,3.17,0,0,0-.94,2.34A3.21,3.21,0,0,0,47,52.52,3.18,3.18,0,0,0,49.38,53.47Zm0,10.68a3.13,3.13,0,0,0,2.33-1,3.2,3.2,0,0,0,.93-2.34,3.24,3.24,0,0,0-.93-2.35,3.37,3.37,0,0,0-4.69,0,3.21,3.21,0,0,0-.94,2.35,3.25,3.25,0,0,0,3.3,3.3Zm14.82.1A8,8,0,0,0,71,61.09q2.35-3.17,2.35-9.15c0-4-.79-7-2.36-9.11a8,8,0,0,0-6.79-3.16,8,8,0,0,0-6.8,3.16c-1.56,2.11-2.34,5.14-2.34,9.11s.78,7,2.34,9.15A8,8,0,0,0,64.2,64.25Zm0-4.73a2.42,2.42,0,0,1-2.34-1.77,16.73,16.73,0,0,1-.72-5.81,16.66,16.66,0,0,1,.72-5.8,2.44,2.44,0,0,1,4.69,0,17,17,0,0,1,.71,5.78,17,17,0,0,1-.71,5.81A2.44,2.44,0,0,1,64.2,59.52Zm20.4,4.73a8,8,0,0,0,6.8-3.16q2.35-3.17,2.35-9.15c0-4-.79-7-2.37-9.11a7.93,7.93,0,0,0-6.78-3.16,8,8,0,0,0-6.8,3.16c-1.56,2.11-2.34,5.14-2.34,9.11s.78,7,2.34,9.15A8,8,0,0,0,84.6,64.25Zm0-4.73a2.42,2.42,0,0,1-2.34-1.77,16.73,16.73,0,0,1-.72-5.81,16.66,16.66,0,0,1,.72-5.8,2.44,2.44,0,0,1,4.69,0,17,17,0,0,1,.71,5.78A17,17,0,0,1,87,57.75,2.44,2.44,0,0,1,84.6,59.52Z"/></svg>