<svg id="Layer_1" data-name="Layer 1" xmlns="http://www.w3.org/2000/svg" viewBox="0 0 100 100"><title>l11_1_1</title><path d="M100,50v25a25,25,0,0,1-25,25H50a50,50,0,1,1,50-50ZM51.71,9.36a5.54,5.54,0,0,0-5.54,5.54V50.65h-23a5.55,5.55,0,0,0,0,11.09H51.71a5.54,5.54,0,0,0,5.54-5.55V14.9A5.54,5.54,0,0,0,51.71,9.36Zm-5.1,68.9a5.36,5.36,0,0,0-2.1.38V76h4.58c1.23,0,1.85-.49,1.85-1.48s-.62-1.47-1.85-1.47H42.51a1.8,1.8,0,0,0-1.33.47,1.84,1.84,0,0,0-.47,1.36v5.75a1.15,1.15,0,0,0,.4.92,1.49,1.49,0,0,0,1,.35,2.05,2.05,0,0,0,1-.23,7.12,7.12,0,0,1,1.22-.38,5.94,5.94,0,0,1,1.16-.11,2.43,2.43,0,0,1,1.66.53,1.9,1.9,0,0,1,.59,1.48,1.85,1.85,0,0,1-.57,1.5,2.7,2.7,0,0,1-1.76.48A3.69,3.69,0,0,1,44.18,85q-.54-.2-1.2-.51l-.42-.21a5.26,5.26,0,0,0-.64-.32,1.36,1.36,0,0,0-.53-.09,1.1,1.1,0,0,0-.89.46,1.72,1.72,0,0,0-.36,1.11,1.49,1.49,0,0,0,.16.73,1.77,1.77,0,0,0,.49.59A7.26,7.26,0,0,0,43,87.83a9,9,0,0,0,2.58.38,6.82,6.82,0,0,0,3-.64,4.71,4.71,0,0,0,2-1.8,5.44,5.44,0,0,0,.11-5.21,4.24,4.24,0,0,0-1.67-1.69A4.84,4.84,0,0,0,46.61,78.26ZM64,77.35a11.19,11.19,0,0,0-2.2.23,7.3,7.3,0,0,0-1.87.62,1.65,1.65,0,0,0-.62.53,1.45,1.45,0,0,0-.19.76,1.54,1.54,0,0,0,.32,1,1.07,1.07,0,0,0,.85.38,2.71,2.71,0,0,0,.83-.17,8.2,8.2,0,0,1,2.54-.59,1.63,1.63,0,0,1,1.15.33,1.44,1.44,0,0,1,.34,1.07v.25h-.57a15.61,15.61,0,0,0-3.44.3,3.48,3.48,0,0,0-1.86,1,2.65,2.65,0,0,0-.58,1.8,3.11,3.11,0,0,0,.5,1.75,3.43,3.43,0,0,0,1.37,1.21,4.3,4.3,0,0,0,1.95.43,3.16,3.16,0,0,0,1.67-.42,2.38,2.38,0,0,0,1-1.19,1.57,1.57,0,0,0,.52,1.14,1.75,1.75,0,0,0,1.22.43,1.82,1.82,0,0,0,1.33-.46,1.67,1.67,0,0,0,.47-1.26V82a4.81,4.81,0,0,0-1.15-3.52A4.89,4.89,0,0,0,64,77.35Zm-.59,8.34a1.08,1.08,0,0,1-.8-.32,1.13,1.13,0,0,1-.3-.81.83.83,0,0,1,.57-.81,5.18,5.18,0,0,1,1.93-.25h.34v.26a2,2,0,0,1-.49,1.39A1.61,1.61,0,0,1,63.37,85.69Zm20.77-8.34a4,4,0,0,0-2,.5,4,4,0,0,0-1.42,1.34,3,3,0,0,0-3-1.84,3.54,3.54,0,0,0-3.18,1.57A1.45,1.45,0,0,0,74,77.78a2,2,0,0,0-1.25-.39,2.12,2.12,0,0,0-1.34.44,1.48,1.48,0,0,0-.56,1.26v7.34a1.54,1.54,0,0,0,.54,1.3,2.28,2.28,0,0,0,2.69,0,1.57,1.57,0,0,0,.54-1.3v-4.2A2.28,2.28,0,0,1,75,80.76a1.44,1.44,0,0,1,1.17-.53,1.09,1.09,0,0,1,.87.34,1.83,1.83,0,0,1,.3,1.19v4.67a1.57,1.57,0,0,0,.54,1.3,2.31,2.31,0,0,0,2.71,0,1.59,1.59,0,0,0,.53-1.3v-4.2a2.28,2.28,0,0,1,.44-1.47,1.5,1.5,0,0,1,1.19-.53,1.12,1.12,0,0,1,.87.34,1.83,1.83,0,0,1,.3,1.19v4.67a1.57,1.57,0,0,0,.54,1.3,2.28,2.28,0,0,0,2.69,0,1.57,1.57,0,0,0,.54-1.3V81.85a5.13,5.13,0,0,0-.93-3.47A3.39,3.39,0,0,0,84.14,77.35Z"/></svg>