<svg id="Layer_1" data-name="Layer 1" xmlns="http://www.w3.org/2000/svg" viewBox="0 0 100 100"><title>l11_1_1</title><path d="M89.72,75.81h-79A10.48,10.48,0,0,1,.21,65.32V35A10.48,10.48,0,0,1,10.69,24.52h79A10.49,10.49,0,0,1,100.21,35V65.32A10.49,10.49,0,0,1,89.72,75.81ZM20.66,56.92H13.82L18.65,52a16,16,0,0,0,2.84-3.83,8.63,8.63,0,0,0,.83-3.79,6.15,6.15,0,0,0-1-3.55,6.6,6.6,0,0,0-2.94-2.38,10.86,10.86,0,0,0-4.42-.84,13.19,13.19,0,0,0-3.92.62,12.92,12.92,0,0,0-3.59,1.7,2.14,2.14,0,0,0-.83.88A2.89,2.89,0,0,0,5.36,42a3,3,0,0,0,.57,1.82,1.76,1.76,0,0,0,1.43.77,2.32,2.32,0,0,0,.65-.1,4.66,4.66,0,0,0,.7-.33l.52-.29.68-.34a17.13,17.13,0,0,1,1.92-.83,5.6,5.6,0,0,1,1.82-.29,2.72,2.72,0,0,1,1.89.61,2.3,2.3,0,0,1,.66,1.77q0,2-2.24,4.32L6.75,56.64A3.75,3.75,0,0,0,5.59,59.3a2.49,2.49,0,0,0,2.66,2.58H20.66a3.38,3.38,0,0,0,2.22-.61,2.34,2.34,0,0,0,.73-1.91,2.25,2.25,0,0,0-.73-1.85A3.44,3.44,0,0,0,20.66,56.92Zm21.31,0H39.18V40.8a2.94,2.94,0,0,0-.83-2.21,3,3,0,0,0-2.19-.81,5.75,5.75,0,0,0-2.82.84L27.9,41.79a2.29,2.29,0,0,0-1.19,2.1,2.85,2.85,0,0,0,.68,1.86,2,2,0,0,0,1.63.83,2.29,2.29,0,0,0,1.19-.34l2.72-1.6V56.92H30.17a3.41,3.41,0,0,0-2.24.61,2.27,2.27,0,0,0-.71,1.83c0,1.68,1,2.52,3,2.52H42c2,0,3-.84,3-2.52a2.3,2.3,0,0,0-.71-1.83A3.42,3.42,0,0,0,42,56.92Zm7.62-5.51a3.16,3.16,0,0,0,2.33-.95,3.43,3.43,0,0,0,0-4.7,3.16,3.16,0,0,0-2.33-.95,3.3,3.3,0,1,0,0,6.6Zm0,10.67a3.12,3.12,0,0,0,2.33-.95,3.2,3.2,0,0,0,.93-2.34,3.24,3.24,0,0,0-.93-2.35,3.16,3.16,0,0,0-2.33-.95,3.33,3.33,0,0,0-2.37,5.64A3.18,3.18,0,0,0,49.59,62.08Zm14.82.11A7.94,7.94,0,0,0,71.21,59c1.56-2.1,2.35-5.15,2.35-9.14s-.79-7-2.37-9.11a7.94,7.94,0,0,0-6.78-3.17,7.94,7.94,0,0,0-6.8,3.17c-1.56,2.1-2.35,5.14-2.35,9.11s.79,7,2.35,9.14A7.94,7.94,0,0,0,64.41,62.19Zm0-4.73a2.44,2.44,0,0,1-2.35-1.77,17.07,17.07,0,0,1-.71-5.81,17,17,0,0,1,.71-5.8,2.45,2.45,0,0,1,4.7,0,17,17,0,0,1,.71,5.78,17.07,17.07,0,0,1-.71,5.81A2.44,2.44,0,0,1,64.41,57.46Zm20.4,4.73A7.94,7.94,0,0,0,91.61,59Q94,55.87,94,49.88c0-4-.78-7-2.36-9.11a7.94,7.94,0,0,0-6.78-3.17A7.94,7.94,0,0,0,78,40.77c-1.56,2.1-2.35,5.14-2.35,9.11s.79,7,2.35,9.14A7.94,7.94,0,0,0,84.81,62.19Zm0-4.73a2.44,2.44,0,0,1-2.35-1.77,17.07,17.07,0,0,1-.71-5.81,17,17,0,0,1,.71-5.8,2.45,2.45,0,0,1,4.7,0,17,17,0,0,1,.71,5.78,17.07,17.07,0,0,1-.71,5.81A2.44,2.44,0,0,1,84.81,57.46Z"/></svg>