<svg id="Layer_1" data-name="Layer 1" xmlns="http://www.w3.org/2000/svg" viewBox="0 0 100 100"><title>l11_5_1</title><path d="M100,50v25a25,25,0,0,1-25,25H50a50,50,0,1,1,50-50ZM51.71,9.36a5.54,5.54,0,0,0-5.54,5.54V50.65h-23a5.55,5.55,0,0,0,0,11.09H51.71a5.54,5.54,0,0,0,5.54-5.55V14.9A5.54,5.54,0,0,0,51.71,9.36Zm5.57,76.82H50.6l4.72-4.82a15.57,15.57,0,0,0,2.78-3.75,8.41,8.41,0,0,0,.82-3.71,6.07,6.07,0,0,0-1-3.47A6.45,6.45,0,0,0,55,68.1a10.74,10.74,0,0,0-4.32-.82,13.49,13.49,0,0,0-7.35,2.27,2.14,2.14,0,0,0-.82.86,2.92,2.92,0,0,0-.22,1.2,2.85,2.85,0,0,0,.57,1.78,1.7,1.7,0,0,0,1.4.75,2.19,2.19,0,0,0,.63-.1,3.67,3.67,0,0,0,.68-.32l.52-.28.66-.33a15.87,15.87,0,0,1,1.88-.82A5.36,5.36,0,0,1,50.43,72a2.62,2.62,0,0,1,1.85.6,2.24,2.24,0,0,1,.65,1.73c0,1.28-.74,2.69-2.2,4.22l-7,7.35a3.64,3.64,0,0,0-1.13,2.6,2.46,2.46,0,0,0,.7,1.81,2.49,2.49,0,0,0,1.89.72H57.28a3.32,3.32,0,0,0,2.18-.6,2.28,2.28,0,0,0,.72-1.86,2.21,2.21,0,0,0-.72-1.82A3.38,3.38,0,0,0,57.28,86.18ZM83.73,74.27a6.38,6.38,0,0,0-3.16.78,6.19,6.19,0,0,0-2.23,2.11c-.79-1.93-2.38-2.89-4.75-2.89a5.56,5.56,0,0,0-5,2.46A2.26,2.26,0,0,0,67.78,75a3,3,0,0,0-2-.61,3.32,3.32,0,0,0-2.11.68,2.33,2.33,0,0,0-.88,2V88.51a2.47,2.47,0,0,0,.85,2,3.61,3.61,0,0,0,4.22,0,2.47,2.47,0,0,0,.85-2V81.92a3.53,3.53,0,0,1,.68-2.29,2.26,2.26,0,0,1,1.85-.84,1.69,1.69,0,0,1,1.36.54,2.78,2.78,0,0,1,.47,1.86v7.32a2.47,2.47,0,0,0,.85,2,3.64,3.64,0,0,0,4.24,0,2.49,2.49,0,0,0,.83-2V81.92a3.43,3.43,0,0,1,.7-2.29,2.31,2.31,0,0,1,1.86-.84,1.71,1.71,0,0,1,1.37.54,2.84,2.84,0,0,1,.46,1.86v7.32a2.5,2.5,0,0,0,.85,2,3.63,3.63,0,0,0,4.23,0,2.5,2.5,0,0,0,.85-2V81.32q0-3.82-1.47-5.44A5.34,5.34,0,0,0,83.73,74.27Z"/></svg>