<svg id="Layer_1" data-name="Layer 1" xmlns="http://www.w3.org/2000/svg" viewBox="0 0 100 100"><title>l11_4_1</title><path d="M100,50v25a25,25,0,0,1-25,25H50a50,50,0,1,1,50-50ZM51.71,9.36a5.54,5.54,0,0,0-5.54,5.54V50.65h-23a5.55,5.55,0,0,0,0,11.09H51.71a5.54,5.54,0,0,0,5.54-5.55V14.9A5.54,5.54,0,0,0,51.71,9.36Zm-5.11,73h7.45a3.57,3.57,0,0,0,2.47-.73,2.62,2.62,0,0,0,.82-2,2.55,2.55,0,0,0-.82-2,3.62,3.62,0,0,0-2.47-.72H46.6c-2.19,0-3.29.92-3.29,2.74S44.41,82.38,46.6,82.38Zm33-2.38h-.87V65.7a3.37,3.37,0,0,0-1.07-2.65A3.71,3.71,0,0,0,75,62.1a4.09,4.09,0,0,0-1.76.41,3.56,3.56,0,0,0-1.4,1.21L60.54,79.89a4.42,4.42,0,0,0-.87,2.61,3.05,3.05,0,0,0,.83,2.18,3,3,0,0,0,2.26.87H71.6V86.9a3.5,3.5,0,0,0,1,2.69,3.57,3.57,0,0,0,2.55.91,3.65,3.65,0,0,0,2.58-.91,3.47,3.47,0,0,0,1-2.69V85.55h.87q3.45,0,3.45-2.81C83,80.92,81.86,80,79.56,80ZM66.84,80l4.76-6.85V80Z"/></svg>