<svg id="Layer_1" data-name="Layer 1" xmlns="http://www.w3.org/2000/svg" viewBox="0 0 100 100"><title>l11_2_1</title><path d="M89.51,80h-79A10.49,10.49,0,0,1,0,69.51V39.19A10.49,10.49,0,0,1,10.49,28.71h79A10.49,10.49,0,0,1,100,39.19V69.51A10.49,10.49,0,0,1,89.51,80ZM20.45,61.11H13.61l4.83-4.93a15.71,15.71,0,0,0,2.84-3.83,8.49,8.49,0,0,0,.83-3.79,6.22,6.22,0,0,0-1-3.55,6.65,6.65,0,0,0-2.94-2.38,10.89,10.89,0,0,0-4.42-.84,13.25,13.25,0,0,0-3.93.62,12.92,12.92,0,0,0-3.59,1.7,2.21,2.21,0,0,0-.83.88,3.27,3.27,0,0,0,.36,3,1.73,1.73,0,0,0,1.42.77,2.27,2.27,0,0,0,.65-.1,4.25,4.25,0,0,0,.7-.33L9,48.08l.68-.34a16.44,16.44,0,0,1,1.93-.83,5.54,5.54,0,0,1,1.81-.29,2.72,2.72,0,0,1,1.89.61A2.3,2.3,0,0,1,16,49c0,1.32-.74,2.76-2.24,4.32L6.54,60.83a3.74,3.74,0,0,0-1.15,2.66A2.47,2.47,0,0,0,8,66.07H20.45a3.36,3.36,0,0,0,2.22-.61,2.34,2.34,0,0,0,.74-1.91,2.26,2.26,0,0,0-.74-1.85A3.42,3.42,0,0,0,20.45,61.11Zm18.43-7.38a5.56,5.56,0,0,0,2.7-2.06,5.69,5.69,0,0,0,1-3.28,6,6,0,0,0-1-3.47,6.67,6.67,0,0,0-3-2.31,11.33,11.33,0,0,0-4.43-.82,13.5,13.5,0,0,0-4,.62,10.91,10.91,0,0,0-3.45,1.7,2.73,2.73,0,0,0-.82.91,2.66,2.66,0,0,0-.24,1.19A2.77,2.77,0,0,0,26.16,48a1.74,1.74,0,0,0,1.43.73,2.3,2.3,0,0,0,.85-.15,11.24,11.24,0,0,0,1-.5l.71-.34A17.8,17.8,0,0,1,32,46.93a5,5,0,0,1,1.79-.31,2.9,2.9,0,0,1,2.07.7,2.53,2.53,0,0,1,.75,2A1.9,1.9,0,0,1,35.78,51a5.24,5.24,0,0,1-2.72.54H31.57a1.92,1.92,0,0,0-1.6.72,2.58,2.58,0,0,0-.58,1.7,2.62,2.62,0,0,0,.58,1.7,1.94,1.94,0,0,0,1.6.71h2.1a5.09,5.09,0,0,1,2.79.58,2.12,2.12,0,0,1,.85,1.9,2.38,2.38,0,0,1-.83,2,4.72,4.72,0,0,1-2.74.61,5.92,5.92,0,0,1-2-.29,15.34,15.34,0,0,1-2-.83l-.42-.19-.33-.15c-.43-.22-.77-.39-1-.49a2.26,2.26,0,0,0-.85-.15,1.74,1.74,0,0,0-1.42.73,2.74,2.74,0,0,0-.58,1.78A2.42,2.42,0,0,0,26.26,64a11,11,0,0,0,3.54,1.72,15.31,15.31,0,0,0,4.25.59,12.88,12.88,0,0,0,4.81-.83A7.2,7.2,0,0,0,42,63.15a6.48,6.48,0,0,0,0-7.31A5.77,5.77,0,0,0,38.88,53.73Zm10.5,1.87a3.16,3.16,0,0,0,2.33-1,3.43,3.43,0,0,0,0-4.7A3.37,3.37,0,0,0,47,50a3.41,3.41,0,0,0,0,4.7A3.18,3.18,0,0,0,49.38,55.6Zm0,10.67a3.12,3.12,0,0,0,2.33-1,3.42,3.42,0,0,0,0-4.69,3.37,3.37,0,0,0-4.69,0,3.4,3.4,0,0,0,0,4.69A3.14,3.14,0,0,0,49.38,66.27ZM68.52,53.73a5.47,5.47,0,0,0,2.7-2.06,5.61,5.61,0,0,0,1-3.28,6,6,0,0,0-1-3.47,6.73,6.73,0,0,0-3-2.31,11.34,11.34,0,0,0-4.44-.82,13.6,13.6,0,0,0-4,.62,11,11,0,0,0-3.45,1.7,2.84,2.84,0,0,0-.82.91,3.13,3.13,0,0,0,.34,3,1.77,1.77,0,0,0,1.43.73,2.26,2.26,0,0,0,.85-.15,11.24,11.24,0,0,0,1-.5l.72-.34a16.92,16.92,0,0,1,1.85-.81,5,5,0,0,1,1.78-.31,2.91,2.91,0,0,1,2.08.7,2.53,2.53,0,0,1,.75,2A1.92,1.92,0,0,1,65.43,51a5.26,5.26,0,0,1-2.72.54h-1.5a2,2,0,0,0-1.6.72A2.63,2.63,0,0,0,59,54a2.67,2.67,0,0,0,.58,1.7,2,2,0,0,0,1.6.71h2.11a5.09,5.09,0,0,1,2.79.58,2.14,2.14,0,0,1,.85,1.9,2.36,2.36,0,0,1-.84,2,4.67,4.67,0,0,1-2.73.61,6,6,0,0,1-2-.29,14.69,14.69,0,0,1-2-.83l-.43-.19-.32-.15c-.43-.22-.77-.39-1-.49a2.26,2.26,0,0,0-.85-.15,1.75,1.75,0,0,0-1.43.73,2.74,2.74,0,0,0-.58,1.78,2.6,2.6,0,0,0,.24,1.17,2.62,2.62,0,0,0,.82.94,10.86,10.86,0,0,0,3.53,1.72,15.36,15.36,0,0,0,4.25.59,12.85,12.85,0,0,0,4.81-.83,7.2,7.2,0,0,0,3.18-2.36,5.94,5.94,0,0,0,1.12-3.61,6.07,6.07,0,0,0-1.13-3.7A5.76,5.76,0,0,0,68.52,53.73ZM84.6,66.38a7.94,7.94,0,0,0,6.8-3.17q2.35-3.15,2.35-9.14T91.38,45a7.94,7.94,0,0,0-6.78-3.17A8,8,0,0,0,77.8,45q-2.34,3.15-2.34,9.11t2.34,9.14A8,8,0,0,0,84.6,66.38Zm0-4.73a2.42,2.42,0,0,1-2.34-1.77,16.76,16.76,0,0,1-.72-5.81,16.66,16.66,0,0,1,.72-5.8,2.42,2.42,0,0,1,2.34-1.75A2.44,2.44,0,0,1,87,48.29a17,17,0,0,1,.71,5.78A17.07,17.07,0,0,1,87,59.88,2.44,2.44,0,0,1,84.6,61.65Z"/></svg>