<svg id="Layer_1" data-name="Layer 1" xmlns="http://www.w3.org/2000/svg" viewBox="0 0 100 100"><title>l11_4_1</title><path d="M100,50v25a25,25,0,0,1-25,25H50a50,50,0,1,1,50-50ZM51.71,9.36a5.54,5.54,0,0,0-5.54,5.54V50.65h-23a5.55,5.55,0,0,0,0,11.09H51.71a5.54,5.54,0,0,0,5.54-5.55V14.9A5.54,5.54,0,0,0,51.71,9.36Zm5.94,67.16h-5v-5a2.29,2.29,0,0,0-2.34-2.34,2.25,2.25,0,0,0-1.66.67A2.27,2.27,0,0,0,48,71.53v5H43a2.25,2.25,0,0,0-1.66.67,2.27,2.27,0,0,0-.67,1.67,2.31,2.31,0,0,0,.67,1.68,2.23,2.23,0,0,0,1.66.69h5v5a2.37,2.37,0,0,0,4,1.66,2.31,2.31,0,0,0,.65-1.66v-5h5a2.25,2.25,0,0,0,1.67-.69A2.31,2.31,0,0,0,60,78.86a2.29,2.29,0,0,0-2.34-2.34Zm25,3.48h-.87V65.7a3.37,3.37,0,0,0-1.07-2.65,3.71,3.71,0,0,0-2.58-.95,4.09,4.09,0,0,0-1.76.41,3.63,3.63,0,0,0-1.4,1.21L63.59,79.89a4.42,4.42,0,0,0-.87,2.61,3.05,3.05,0,0,0,.83,2.18,3,3,0,0,0,2.26.87h8.84V86.9a3.5,3.5,0,0,0,1,2.69,3.58,3.58,0,0,0,2.56.91,3.64,3.64,0,0,0,2.57-.91,3.47,3.47,0,0,0,1-2.69V85.55h.87q3.45,0,3.45-2.81C86.06,80.92,84.91,80,82.61,80ZM69.89,80l4.76-6.85V80Z"/></svg>