<svg id="Layer_1" data-name="Layer 1" xmlns="http://www.w3.org/2000/svg" viewBox="0 0 100 100"><title>l11_1_1</title><path d="M100.21,50v25a25,25,0,0,1-24.95,25H50.21a50,50,0,1,1,50-50ZM51.92,9.36a5.54,5.54,0,0,0-5.54,5.54V50.65h-23a5.55,5.55,0,0,0,0,11.09H51.92a5.54,5.54,0,0,0,5.54-5.55V14.9A5.54,5.54,0,0,0,51.92,9.36ZM49.5,84.94H47.76v-10A1.77,1.77,0,0,0,45.87,73a3.62,3.62,0,0,0-1.76.53l-3.4,2A1.46,1.46,0,0,0,40,76.82,1.73,1.73,0,0,0,40.4,78a1.26,1.26,0,0,0,1,.52,1.47,1.47,0,0,0,.75-.21l1.69-1v7.66H42.14a2.07,2.07,0,0,0-1.4.39,1.4,1.4,0,0,0-.45,1.14c0,1,.62,1.57,1.85,1.57H49.5c1.23,0,1.84-.52,1.84-1.57a1.39,1.39,0,0,0-.44-1.14A2.11,2.11,0,0,0,49.5,84.94Zm16-7.59a4.3,4.3,0,0,0-1.9.42,3.09,3.09,0,0,0-1.3,1.17,1.62,1.62,0,0,0-.56-1.13,2,2,0,0,0-1.31-.42,1.89,1.89,0,0,0-1.35.48,1.67,1.67,0,0,0-.49,1.26V90.27a1.56,1.56,0,0,0,.53,1.22,2,2,0,0,0,1.4.48,1.93,1.93,0,0,0,1.33-.45,1.5,1.5,0,0,0,.51-1.19v-3.6a3.28,3.28,0,0,0,1.31,1.08,4.15,4.15,0,0,0,1.83.4,4.37,4.37,0,0,0,2.4-.66,4.44,4.44,0,0,0,1.62-1.87,6.52,6.52,0,0,0,.59-2.84A6.67,6.67,0,0,0,69.47,80,4.53,4.53,0,0,0,67.84,78,4.26,4.26,0,0,0,65.45,77.35Zm-1.14,8a1.82,1.82,0,0,1-1.53-.67,3,3,0,0,1-.53-1.92,3.12,3.12,0,0,1,.53-2,2,2,0,0,1,3,0,3.15,3.15,0,0,1,.53,2,3,3,0,0,1-.52,1.89A1.77,1.77,0,0,1,64.31,85.39Zm20.81-8a4,4,0,0,0-2,.5,4,4,0,0,0-1.42,1.34,3,3,0,0,0-3-1.84,3.54,3.54,0,0,0-3.18,1.57A1.44,1.44,0,0,0,75,77.78a2,2,0,0,0-1.25-.39,2.12,2.12,0,0,0-1.34.44,1.48,1.48,0,0,0-.56,1.26v7.34a1.57,1.57,0,0,0,.54,1.3,2.28,2.28,0,0,0,2.69,0,1.57,1.57,0,0,0,.54-1.3v-4.2A2.28,2.28,0,0,1,76,80.76a1.44,1.44,0,0,1,1.17-.53,1.09,1.09,0,0,1,.87.34,1.83,1.83,0,0,1,.3,1.19v4.67a1.57,1.57,0,0,0,.54,1.3,2.31,2.31,0,0,0,2.71,0,1.59,1.59,0,0,0,.53-1.3v-4.2a2.28,2.28,0,0,1,.44-1.47,1.5,1.5,0,0,1,1.19-.53,1.12,1.12,0,0,1,.87.34,1.83,1.83,0,0,1,.3,1.19v4.67a1.57,1.57,0,0,0,.54,1.3,2.28,2.28,0,0,0,2.69,0,1.54,1.54,0,0,0,.54-1.3V81.85a5.13,5.13,0,0,0-.93-3.47A3.37,3.37,0,0,0,85.12,77.35Z"/></svg>