<svg id="Layer_1" data-name="Layer 1" xmlns="http://www.w3.org/2000/svg" viewBox="0 0 100 100"><title>l11_4_1</title><path d="M89.51,78.47h-79A10.49,10.49,0,0,1,0,68V37.67A10.49,10.49,0,0,1,10.49,27.18h79A10.49,10.49,0,0,1,100,37.67V68A10.49,10.49,0,0,1,89.51,78.47ZM21.33,59.58H18.54V43.46a2.92,2.92,0,0,0-.83-2.2,3,3,0,0,0-2.19-.82,5.67,5.67,0,0,0-2.82.85L7.26,44.45a2.3,2.3,0,0,0-1.19,2.11,2.81,2.81,0,0,0,.68,1.85,2,2,0,0,0,1.63.83,2.29,2.29,0,0,0,1.19-.34l2.72-1.59V59.58H9.53a3.39,3.39,0,0,0-2.24.61A2.28,2.28,0,0,0,6.58,62c0,1.68,1,2.51,2.95,2.51h11.8c2,0,3-.83,3-2.51a2.31,2.31,0,0,0-.71-1.84A3.42,3.42,0,0,0,21.33,59.58Zm19.52,0H34l4.83-4.93a16,16,0,0,0,2.84-3.82,8.67,8.67,0,0,0,.83-3.8,6.24,6.24,0,0,0-1-3.55,6.75,6.75,0,0,0-2.95-2.38,11,11,0,0,0-4.42-.83,13.17,13.17,0,0,0-3.92.61,13.5,13.5,0,0,0-3.59,1.7,2.27,2.27,0,0,0-.83.88,3.29,3.29,0,0,0,.36,3,1.72,1.72,0,0,0,1.42.76,2,2,0,0,0,.65-.1,4.49,4.49,0,0,0,.7-.32c.26-.15.43-.25.52-.29l.68-.34A17.13,17.13,0,0,1,32,45.39a5.39,5.39,0,0,1,1.82-.29,2.67,2.67,0,0,1,1.89.61,2.3,2.3,0,0,1,.66,1.77q0,2-2.24,4.31l-7.21,7.52A3.72,3.72,0,0,0,25.79,62a2.5,2.5,0,0,0,.71,1.85,2.58,2.58,0,0,0,1.94.73H40.85a3.38,3.38,0,0,0,2.22-.61A2.33,2.33,0,0,0,43.8,62a2.26,2.26,0,0,0-.73-1.86A3.5,3.5,0,0,0,40.85,59.58Zm8.53-5.51a3.11,3.11,0,0,0,2.33-1,3.42,3.42,0,0,0,0-4.69,3.11,3.11,0,0,0-2.33-1,3.14,3.14,0,0,0-2.36,1,3.4,3.4,0,0,0,0,4.69A3.14,3.14,0,0,0,49.38,54.07Zm0,10.68a3.14,3.14,0,0,0,2.33-1,3.43,3.43,0,0,0,0-4.7,3.14,3.14,0,0,0-2.33-1,3.18,3.18,0,0,0-2.36,1,3.41,3.41,0,0,0,0,4.7A3.18,3.18,0,0,0,49.38,64.75Zm14.82.1A7.93,7.93,0,0,0,71,61.69q2.35-3.16,2.35-9.15T71,43.43a8,8,0,0,0-6.79-3.16,8,8,0,0,0-6.8,3.16q-2.34,3.16-2.34,9.11t2.34,9.15A8,8,0,0,0,64.2,64.85Zm0-4.73a2.43,2.43,0,0,1-2.34-1.76,16.83,16.83,0,0,1-.72-5.82,16.59,16.59,0,0,1,.72-5.79,2.44,2.44,0,0,1,4.69,0,17,17,0,0,1,.71,5.78,17.14,17.14,0,0,1-.71,5.82A2.45,2.45,0,0,1,64.2,60.12Zm20.4,4.73a7.93,7.93,0,0,0,6.8-3.16q2.35-3.16,2.35-9.15t-2.37-9.11a7.93,7.93,0,0,0-6.78-3.16,8,8,0,0,0-6.8,3.16q-2.34,3.16-2.34,9.11t2.34,9.15A8,8,0,0,0,84.6,64.85Zm0-4.73a2.43,2.43,0,0,1-2.34-1.76,16.83,16.83,0,0,1-.72-5.82,16.59,16.59,0,0,1,.72-5.79,2.44,2.44,0,0,1,4.69,0,17,17,0,0,1,.71,5.78A17.14,17.14,0,0,1,87,58.36,2.45,2.45,0,0,1,84.6,60.12Z"/></svg>