<svg id="Layer_1" data-name="Layer 1" xmlns="http://www.w3.org/2000/svg" viewBox="0 0 100 100"><title>l11_4_2</title><path d="M100,50v25a25,25,0,0,1-25,25H50a50,50,0,1,1,50-50ZM51.71,9.36a5.54,5.54,0,0,0-5.54,5.54V50.65h-23a5.55,5.55,0,0,0,0,11.09H51.71a5.54,5.54,0,0,0,5.54-5.55V14.9A5.54,5.54,0,0,0,51.71,9.36Zm5.94,67.16h-5v-5a2.29,2.29,0,0,0-2.34-2.34,2.25,2.25,0,0,0-1.66.67A2.27,2.27,0,0,0,48,71.53v5H43a2.25,2.25,0,0,0-1.66.67,2.27,2.27,0,0,0-.67,1.67,2.31,2.31,0,0,0,.67,1.68,2.23,2.23,0,0,0,1.66.69h5v5a2.37,2.37,0,0,0,4,1.66,2.31,2.31,0,0,0,.65-1.66v-5h5a2.25,2.25,0,0,0,1.67-.69A2.31,2.31,0,0,0,60,78.86a2.29,2.29,0,0,0-2.34-2.34Zm21.48-.64a6.43,6.43,0,0,0,3.14-2.39,6.55,6.55,0,0,0,1.13-3.83,7,7,0,0,0-1.2-4,7.78,7.78,0,0,0-3.45-2.69,13,13,0,0,0-5.17-1,16.09,16.09,0,0,0-4.7.71,13.47,13.47,0,0,0-4,2,3.3,3.3,0,0,0-1,1.07,3.15,3.15,0,0,0-.28,1.39,3.25,3.25,0,0,0,.68,2.08,2,2,0,0,0,1.66.85,2.57,2.57,0,0,0,1-.18c.29-.12.69-.31,1.19-.57l.83-.4c.8-.39,1.51-.71,2.16-1a5.94,5.94,0,0,1,2.08-.36,3.42,3.42,0,0,1,2.42.82,3,3,0,0,1,.87,2.27,2.21,2.21,0,0,1-1,2,6,6,0,0,1-3.17.64H70.61a2.25,2.25,0,0,0-1.86.83,3.22,3.22,0,0,0,0,4,2.22,2.22,0,0,0,1.86.83h2.45a5.93,5.93,0,0,1,3.25.68,2.49,2.49,0,0,1,1,2.22,2.72,2.72,0,0,1-1,2.37,5.46,5.46,0,0,1-3.19.72,7.38,7.38,0,0,1-2.28-.34,17.28,17.28,0,0,1-2.27-1l-.5-.22a3.21,3.21,0,0,1-.37-.18c-.51-.26-.9-.45-1.19-.57a2.57,2.57,0,0,0-1-.18,2.05,2.05,0,0,0-1.67.85,3.24,3.24,0,0,0-.67,2.08,2.79,2.79,0,0,0,1.23,2.46,12.65,12.65,0,0,0,4.12,2,17.62,17.62,0,0,0,5,.69,14.84,14.84,0,0,0,5.61-1,8.36,8.36,0,0,0,3.7-2.75,6.93,6.93,0,0,0,1.31-4.2,7,7,0,0,0-1.33-4.32A6.78,6.78,0,0,0,79.13,75.88Z"/></svg>