<svg id="Layer_1" data-name="Layer 1" xmlns="http://www.w3.org/2000/svg" viewBox="0 0 100 100"><title>l11_1_1</title><path d="M89.51,76.92h-79A10.49,10.49,0,0,1,0,66.43V36.11A10.49,10.49,0,0,1,10.49,25.63h79A10.49,10.49,0,0,1,100,36.11V66.43A10.49,10.49,0,0,1,89.51,76.92ZM20.45,58H13.61l4.83-4.93a15.71,15.71,0,0,0,2.84-3.83,8.49,8.49,0,0,0,.83-3.79,6.22,6.22,0,0,0-1-3.55,6.65,6.65,0,0,0-2.94-2.38,10.89,10.89,0,0,0-4.42-.83,13.23,13.23,0,0,0-3.93.61A13.2,13.2,0,0,0,6.2,41a2.21,2.21,0,0,0-.83.88,3.27,3.27,0,0,0,.36,3,1.73,1.73,0,0,0,1.42.77,2,2,0,0,0,.65-.1,4.25,4.25,0,0,0,.7-.33L9,45l.68-.34a17.41,17.41,0,0,1,1.92-.84,5.65,5.65,0,0,1,1.82-.29,2.67,2.67,0,0,1,1.89.62A2.26,2.26,0,0,1,16,45.92c0,1.32-.74,2.76-2.24,4.32L6.54,57.75a3.74,3.74,0,0,0-1.15,2.66,2.53,2.53,0,0,0,.71,1.85A2.58,2.58,0,0,0,8,63H20.45a3.36,3.36,0,0,0,2.22-.61,2.34,2.34,0,0,0,.74-1.91,2.26,2.26,0,0,0-.74-1.85A3.48,3.48,0,0,0,20.45,58Zm21.31,0H39V41.91a3,3,0,0,0-.84-2.21A3,3,0,0,0,36,38.89a5.73,5.73,0,0,0-2.82.85L27.69,42.9A2.31,2.31,0,0,0,26.5,45a2.88,2.88,0,0,0,.68,1.85,2.06,2.06,0,0,0,1.63.83A2.27,2.27,0,0,0,30,47.35l2.72-1.6V58H30a3.42,3.42,0,0,0-2.25.61A2.3,2.3,0,0,0,27,60.47C27,62.15,28,63,30,63H41.76c2,0,3-.84,3-2.52A2.3,2.3,0,0,0,44,58.64,3.42,3.42,0,0,0,41.76,58Zm7.62-5.51a3.16,3.16,0,0,0,2.33-1,3.24,3.24,0,0,0,.93-2.35,3.2,3.2,0,0,0-.93-2.34,3.34,3.34,0,0,0-4.69,0,3.17,3.17,0,0,0-.94,2.34A3.21,3.21,0,0,0,47,51.57,3.18,3.18,0,0,0,49.38,52.52Zm0,10.67a3.12,3.12,0,0,0,2.33-.95,3.2,3.2,0,0,0,.93-2.34,3.24,3.24,0,0,0-.93-2.35,3.37,3.37,0,0,0-4.69,0,3.21,3.21,0,0,0-.94,2.35,3.23,3.23,0,0,0,3.3,3.29Zm14.82.11A7.94,7.94,0,0,0,71,60.13Q73.35,57,73.35,51c0-4-.79-7-2.36-9.11a8,8,0,0,0-6.79-3.16,8,8,0,0,0-6.8,3.16C55.84,44,55.06,47,55.06,51s.78,7,2.34,9.14A8,8,0,0,0,64.2,63.3Zm0-4.73a2.42,2.42,0,0,1-2.34-1.77A16.76,16.76,0,0,1,61.14,51a16.66,16.66,0,0,1,.72-5.8,2.44,2.44,0,0,1,4.69,0A17,17,0,0,1,67.26,51a17.07,17.07,0,0,1-.71,5.81A2.44,2.44,0,0,1,64.2,58.57ZM84.6,63.3a7.94,7.94,0,0,0,6.8-3.17Q93.76,57,93.75,51c0-4-.79-7-2.37-9.11a7.93,7.93,0,0,0-6.78-3.16,8,8,0,0,0-6.8,3.16C76.24,44,75.46,47,75.46,51s.78,7,2.34,9.14A8,8,0,0,0,84.6,63.3Zm0-4.73a2.42,2.42,0,0,1-2.34-1.77A16.76,16.76,0,0,1,81.54,51a16.66,16.66,0,0,1,.72-5.8,2.44,2.44,0,0,1,4.69,0A17,17,0,0,1,87.66,51,17.07,17.07,0,0,1,87,56.8,2.44,2.44,0,0,1,84.6,58.57Z"/></svg>