<svg id="Layer_1" data-name="Layer 1" xmlns="http://www.w3.org/2000/svg" viewBox="0 0 100 100"><title>l11_4_1</title><path d="M89.26,78.4h-79A10.49,10.49,0,0,1-.26,67.91V37.59A10.49,10.49,0,0,1,10.23,27.1h79A10.49,10.49,0,0,1,99.74,37.59V67.91A10.49,10.49,0,0,1,89.26,78.4ZM20.19,59.5H13.36l4.83-4.93A16.23,16.23,0,0,0,21,50.75,8.63,8.63,0,0,0,21.86,47a6.23,6.23,0,0,0-1-3.55A6.6,6.6,0,0,0,17.88,41a10.86,10.86,0,0,0-4.42-.84,13.3,13.3,0,0,0-3.93.62A12.85,12.85,0,0,0,6,42.51a2.24,2.24,0,0,0-.84.88,3.06,3.06,0,0,0-.22,1.22,3,3,0,0,0,.58,1.82,1.74,1.74,0,0,0,1.43.77,2.32,2.32,0,0,0,.65-.1,4.19,4.19,0,0,0,.69-.33l.53-.29.68-.34a15.68,15.68,0,0,1,1.92-.83A5.6,5.6,0,0,1,13.19,45a2.73,2.73,0,0,1,1.89.61,2.3,2.3,0,0,1,.66,1.77q0,2-2.25,4.32l-7.2,7.51a3.75,3.75,0,0,0-1.16,2.65,2.49,2.49,0,0,0,2.65,2.59H20.19a3.47,3.47,0,0,0,2.23-.61A2.35,2.35,0,0,0,23.15,62a2.24,2.24,0,0,0-.73-1.85A3.47,3.47,0,0,0,20.19,59.5Zm18.43-7.37a5.51,5.51,0,0,0,2.7-2.06,5.61,5.61,0,0,0,1-3.28,6,6,0,0,0-1-3.47,6.57,6.57,0,0,0-3-2.31,11.34,11.34,0,0,0-4.44-.82,13.6,13.6,0,0,0-4,.62,10.91,10.91,0,0,0-3.45,1.7,2.73,2.73,0,0,0-.82.91,2.66,2.66,0,0,0-.23,1.19,2.82,2.82,0,0,0,.57,1.79,1.77,1.77,0,0,0,1.43.73,2.26,2.26,0,0,0,.85-.15c.25-.11.59-.27,1-.5l.72-.34a16.92,16.92,0,0,1,1.85-.81A5,5,0,0,1,33.55,45a2.91,2.91,0,0,1,2.08.7,2.53,2.53,0,0,1,.75,2,1.92,1.92,0,0,1-.85,1.74,5.26,5.26,0,0,1-2.72.54h-1.5a2,2,0,0,0-1.6.72,2.63,2.63,0,0,0-.58,1.7,2.67,2.67,0,0,0,.58,1.7,2,2,0,0,0,1.6.71h2.11a5.09,5.09,0,0,1,2.79.58,2.14,2.14,0,0,1,.85,1.9,2.36,2.36,0,0,1-.84,2,4.69,4.69,0,0,1-2.73.61,6,6,0,0,1-2-.29,14.69,14.69,0,0,1-2-.83l-.43-.19-.32-.15a10.66,10.66,0,0,0-1-.49A2.3,2.3,0,0,0,27,57.8a1.76,1.76,0,0,0-1.43.74A2.74,2.74,0,0,0,25,60.32a2.63,2.63,0,0,0,.24,1.17,2.71,2.71,0,0,0,.82.94,10.86,10.86,0,0,0,3.53,1.72,15.36,15.36,0,0,0,4.25.59,12.85,12.85,0,0,0,4.81-.83,7.22,7.22,0,0,0,3.18-2.37,5.91,5.91,0,0,0,1.12-3.6,6,6,0,0,0-1.14-3.7A5.74,5.74,0,0,0,38.62,52.13ZM49.12,54a3.14,3.14,0,0,0,2.33-1,3.41,3.41,0,0,0,0-4.7,3.14,3.14,0,0,0-2.33-1,3.18,3.18,0,0,0-2.36,1,3.43,3.43,0,0,0,0,4.7A3.18,3.18,0,0,0,49.12,54Zm0,10.67a3.11,3.11,0,0,0,2.33-1,3.4,3.4,0,0,0,0-4.69,3.11,3.11,0,0,0-2.33-1,3.14,3.14,0,0,0-2.36,1,3.42,3.42,0,0,0,0,4.69A3.14,3.14,0,0,0,49.12,64.67ZM68.27,52.13A5.56,5.56,0,0,0,71,50.07a5.69,5.69,0,0,0,1-3.28,6,6,0,0,0-1-3.47,6.6,6.6,0,0,0-3-2.31,11.33,11.33,0,0,0-4.43-.82,13.5,13.5,0,0,0-4,.62A10.91,10.91,0,0,0,56,42.51a2.73,2.73,0,0,0-.82.91A2.66,2.66,0,0,0,55,44.61a2.77,2.77,0,0,0,.58,1.79,1.74,1.74,0,0,0,1.43.73,2.3,2.3,0,0,0,.85-.15c.25-.11.59-.27,1-.5l.71-.34a17.8,17.8,0,0,1,1.85-.81A5,5,0,0,1,63.2,45a2.9,2.9,0,0,1,2.07.7,2.53,2.53,0,0,1,.75,2,1.9,1.9,0,0,1-.85,1.74,5.24,5.24,0,0,1-2.72.54H61a1.92,1.92,0,0,0-1.6.72,2.58,2.58,0,0,0-.58,1.7,2.62,2.62,0,0,0,.58,1.7,1.94,1.94,0,0,0,1.6.71h2.1a5.09,5.09,0,0,1,2.79.58,2.12,2.12,0,0,1,.85,1.9,2.38,2.38,0,0,1-.83,2,4.72,4.72,0,0,1-2.74.61,5.92,5.92,0,0,1-2-.29,15.34,15.34,0,0,1-2-.83l-.42-.19-.33-.15a10.66,10.66,0,0,0-1-.49,2.26,2.26,0,0,0-.85-.16,1.75,1.75,0,0,0-1.42.74,2.74,2.74,0,0,0-.58,1.78,2.63,2.63,0,0,0,.24,1.17,2.67,2.67,0,0,0,.81.94,11,11,0,0,0,3.54,1.72,15.31,15.31,0,0,0,4.25.59,12.88,12.88,0,0,0,4.81-.83,7.22,7.22,0,0,0,3.18-2.37,6.46,6.46,0,0,0,0-7.3A5.77,5.77,0,0,0,68.27,52.13ZM84.35,64.77a8,8,0,0,0,6.8-3.16c1.56-2.11,2.34-5.15,2.34-9.14s-.79-7-2.36-9.11a8,8,0,0,0-6.78-3.17,7.94,7.94,0,0,0-6.8,3.17q-2.35,3.15-2.35,9.11c0,4,.78,7,2.35,9.14A7.93,7.93,0,0,0,84.35,64.77Zm0-4.72A2.44,2.44,0,0,1,82,58.28a16.86,16.86,0,0,1-.71-5.81,16.71,16.71,0,0,1,.71-5.8,2.44,2.44,0,0,1,4.69,0,16.64,16.64,0,0,1,.72,5.78,16.8,16.8,0,0,1-.72,5.81A2.43,2.43,0,0,1,84.35,60.05Z"/></svg>