<svg id="Layer_1" data-name="Layer 1" xmlns="http://www.w3.org/2000/svg" viewBox="0 0 100 100"><title>l11_4_1</title><path d="M100,50v25a25,25,0,0,1-25,25H50a50,50,0,1,1,50-50ZM51.71,9.36a5.54,5.54,0,0,0-5.54,5.54V50.65h-23a5.55,5.55,0,0,0,0,11.09H51.71a5.54,5.54,0,0,0,5.54-5.55V14.9A5.54,5.54,0,0,0,51.71,9.36Zm-5.11,73h7.45a3.57,3.57,0,0,0,2.47-.73,2.62,2.62,0,0,0,.82-2,2.55,2.55,0,0,0-.82-2,3.62,3.62,0,0,0-2.47-.72H46.6c-2.19,0-3.29.92-3.29,2.74S44.41,82.38,46.6,82.38Zm32.84,2.1H76.19V65.7a3.41,3.41,0,0,0-1-2.57,3.46,3.46,0,0,0-2.55-1,6.7,6.7,0,0,0-3.29,1L63,66.85a2.71,2.71,0,0,0-1.39,2.46,3.34,3.34,0,0,0,.8,2.16,2.39,2.39,0,0,0,1.9,1,2.65,2.65,0,0,0,1.38-.4l3.17-1.86v14.3H65.69a4,4,0,0,0-2.61.71,2.65,2.65,0,0,0-.83,2.14q0,2.94,3.44,2.94H79.44q3.45,0,3.45-2.94a2.69,2.69,0,0,0-.83-2.14A4,4,0,0,0,79.44,84.48Z"/></svg>