<svg id="Layer_1" data-name="Layer 1" xmlns="http://www.w3.org/2000/svg" viewBox="0 0 100 100"><title>l11_1_1</title><path d="M89.51,80h-79A10.49,10.49,0,0,1,0,69.51V39.19A10.49,10.49,0,0,1,10.49,28.71h79A10.49,10.49,0,0,1,100,39.19V69.51A10.49,10.49,0,0,1,89.51,80ZM20.45,61.11H13.61l4.83-4.93a15.71,15.71,0,0,0,2.84-3.83,8.49,8.49,0,0,0,.83-3.79,6.22,6.22,0,0,0-1-3.55,6.65,6.65,0,0,0-2.94-2.38,10.89,10.89,0,0,0-4.42-.84,13.25,13.25,0,0,0-3.93.62,12.92,12.92,0,0,0-3.59,1.7,2.21,2.21,0,0,0-.83.88,3.27,3.27,0,0,0,.36,3,1.73,1.73,0,0,0,1.42.77,2.27,2.27,0,0,0,.65-.1,4.25,4.25,0,0,0,.7-.33L9,48.08l.68-.34a17.13,17.13,0,0,1,1.92-.83,5.65,5.65,0,0,1,1.82-.29,2.72,2.72,0,0,1,1.89.61A2.3,2.3,0,0,1,16,49c0,1.32-.74,2.76-2.24,4.32L6.54,60.83a3.74,3.74,0,0,0-1.15,2.66,2.53,2.53,0,0,0,.71,1.85A2.58,2.58,0,0,0,8,66.07H20.45a3.36,3.36,0,0,0,2.22-.61,2.34,2.34,0,0,0,.74-1.91,2.26,2.26,0,0,0-.74-1.85A3.42,3.42,0,0,0,20.45,61.11Zm21.31,0H39V45a2.93,2.93,0,0,0-.84-2.21A3,3,0,0,0,36,42a5.83,5.83,0,0,0-2.82.85L27.69,46a2.31,2.31,0,0,0-1.19,2.1,2.9,2.9,0,0,0,.68,1.86,2.06,2.06,0,0,0,1.63.83A2.27,2.27,0,0,0,30,50.43l2.72-1.6V61.11H30a3.42,3.42,0,0,0-2.25.61A2.3,2.3,0,0,0,27,63.55c0,1.68,1,2.52,3,2.52H41.76c2,0,3-.84,3-2.52A2.3,2.3,0,0,0,44,61.72,3.42,3.42,0,0,0,41.76,61.11Zm7.62-5.51a3.16,3.16,0,0,0,2.33-1,3.43,3.43,0,0,0,0-4.7A3.37,3.37,0,0,0,47,50a3.41,3.41,0,0,0,0,4.7A3.18,3.18,0,0,0,49.38,55.6Zm0,10.67a3.12,3.12,0,0,0,2.33-1,3.42,3.42,0,0,0,0-4.69,3.37,3.37,0,0,0-4.69,0,3.4,3.4,0,0,0,0,4.69A3.14,3.14,0,0,0,49.38,66.27Zm14.82.11A7.94,7.94,0,0,0,71,63.21q2.35-3.15,2.35-9.14T71,45a8,8,0,0,0-6.79-3.17A8,8,0,0,0,57.4,45q-2.34,3.15-2.34,9.11t2.34,9.14A8,8,0,0,0,64.2,66.38Zm0-4.73a2.42,2.42,0,0,1-2.34-1.77,16.76,16.76,0,0,1-.72-5.81,16.66,16.66,0,0,1,.72-5.8,2.42,2.42,0,0,1,2.34-1.75,2.44,2.44,0,0,1,2.35,1.77,17,17,0,0,1,.71,5.78,17.07,17.07,0,0,1-.71,5.81A2.44,2.44,0,0,1,64.2,61.65Zm20.4,4.73a7.94,7.94,0,0,0,6.8-3.17q2.35-3.15,2.35-9.14T91.38,45a7.94,7.94,0,0,0-6.78-3.17A8,8,0,0,0,77.8,45q-2.34,3.15-2.34,9.11t2.34,9.14A8,8,0,0,0,84.6,66.38Zm0-4.73a2.42,2.42,0,0,1-2.34-1.77,16.76,16.76,0,0,1-.72-5.81,16.66,16.66,0,0,1,.72-5.8,2.42,2.42,0,0,1,2.34-1.75A2.44,2.44,0,0,1,87,48.29a17,17,0,0,1,.71,5.78A17.07,17.07,0,0,1,87,59.88,2.44,2.44,0,0,1,84.6,61.65Z"/></svg>