<svg id="Layer_1" data-name="Layer 1" xmlns="http://www.w3.org/2000/svg" viewBox="0 0 100 100"><title>l11_5_1</title><path d="M89.51,77.17h-79A10.49,10.49,0,0,1,0,66.69V36.37A10.49,10.49,0,0,1,10.49,25.88h79A10.49,10.49,0,0,1,100,36.37V66.69A10.49,10.49,0,0,1,89.51,77.17ZM14.14,63.55a7.93,7.93,0,0,0,6.8-3.16q2.36-3.16,2.35-9.15t-2.37-9.11A7.93,7.93,0,0,0,14.14,39a8,8,0,0,0-6.8,3.16Q5,45.3,5,51.24t2.34,9.15A8,8,0,0,0,14.14,63.55Zm0-4.73a2.45,2.45,0,0,1-2.35-1.76,17.14,17.14,0,0,1-.71-5.82,16.9,16.9,0,0,1,.71-5.79,2.45,2.45,0,0,1,4.7,0,17,17,0,0,1,.71,5.78,17.14,17.14,0,0,1-.71,5.82A2.45,2.45,0,0,1,14.14,58.82Zm27.61-.54H39V42.16a3,3,0,0,0-.83-2.2,3,3,0,0,0-2.2-.82,5.73,5.73,0,0,0-2.82.85l-5.44,3.16a2.32,2.32,0,0,0-1.19,2.11,2.86,2.86,0,0,0,.68,1.85,2,2,0,0,0,1.63.83A2.27,2.27,0,0,0,30,47.6L32.7,46V58.28H30a3.37,3.37,0,0,0-2.24.61A2.28,2.28,0,0,0,27,60.73c0,1.68,1,2.51,3,2.51h11.8c2,0,3-.83,3-2.51A2.28,2.28,0,0,0,44,58.89,3.37,3.37,0,0,0,41.75,58.28Zm7.61-5.51a3.11,3.11,0,0,0,2.33-1,3.4,3.4,0,0,0,0-4.69,3.11,3.11,0,0,0-2.33-1,3.14,3.14,0,0,0-2.36,1,3.4,3.4,0,0,0,0,4.69A3.14,3.14,0,0,0,49.36,52.77Zm0,10.68a3.14,3.14,0,0,0,2.33-1,3.41,3.41,0,0,0,0-4.7,3.14,3.14,0,0,0-2.33-.95A3.18,3.18,0,0,0,47,57.8a3.41,3.41,0,0,0,0,4.7A3.18,3.18,0,0,0,49.36,63.45Zm14.83.1A7.93,7.93,0,0,0,71,60.39q2.35-3.16,2.35-9.15T71,42.13A8,8,0,0,0,64.19,39a8,8,0,0,0-6.81,3.16Q55,45.3,55,51.24t2.34,9.15A8,8,0,0,0,64.19,63.55Zm0-4.73a2.44,2.44,0,0,1-2.35-1.76,16.83,16.83,0,0,1-.72-5.82,16.59,16.59,0,0,1,.72-5.79,2.44,2.44,0,0,1,4.69,0,16.68,16.68,0,0,1,.72,5.78,16.83,16.83,0,0,1-.72,5.82A2.44,2.44,0,0,1,64.19,58.82Zm20.39,4.73a7.93,7.93,0,0,0,6.8-3.16q2.36-3.16,2.35-9.15t-2.36-9.11A8,8,0,0,0,84.58,39a8,8,0,0,0-6.8,3.16q-2.34,3.16-2.34,9.11t2.34,9.15A8,8,0,0,0,84.58,63.55Zm0-4.73a2.43,2.43,0,0,1-2.34-1.76,16.83,16.83,0,0,1-.72-5.82,16.59,16.59,0,0,1,.72-5.79,2.44,2.44,0,0,1,4.69,0,16.73,16.73,0,0,1,.71,5.78,16.88,16.88,0,0,1-.71,5.82A2.45,2.45,0,0,1,84.58,58.82Z"/></svg>