<svg id="Layer_1" data-name="Layer 1" xmlns="http://www.w3.org/2000/svg" viewBox="0 0 100 100"><title>l11_5_1</title><path d="M89.51,77.63h-79A10.49,10.49,0,0,1,0,67.14V36.82A10.49,10.49,0,0,1,10.49,26.33h79A10.49,10.49,0,0,1,100,36.82V67.14A10.49,10.49,0,0,1,89.51,77.63ZM14.14,64a7.93,7.93,0,0,0,6.8-3.16q2.36-3.17,2.35-9.15t-2.37-9.11a7.93,7.93,0,0,0-6.78-3.16,8,8,0,0,0-6.8,3.16Q5,45.75,5,51.69t2.34,9.15A8,8,0,0,0,14.14,64Zm0-4.72a2.42,2.42,0,0,1-2.34-1.77,16.83,16.83,0,0,1-.72-5.82,16.59,16.59,0,0,1,.72-5.79,2.42,2.42,0,0,1,2.34-1.75,2.45,2.45,0,0,1,2.35,1.76,17,17,0,0,1,.71,5.78,17.14,17.14,0,0,1-.71,5.82A2.44,2.44,0,0,1,14.14,59.28ZM36.58,47.92a6.52,6.52,0,0,0-2.87.63,5.3,5.3,0,0,0-2.09,1.72,9,9,0,0,1,1.27-4.44,3.26,3.26,0,0,1,2.81-1.58,4.57,4.57,0,0,1,1.56.27,18.66,18.66,0,0,1,1.87.82l.75.37a10.66,10.66,0,0,0,1,.49,2.08,2.08,0,0,0,.85.16,1.81,1.81,0,0,0,1.44-.73,2.75,2.75,0,0,0,.6-1.79,2.49,2.49,0,0,0-.26-1.19,3,3,0,0,0-.83-.92A11,11,0,0,0,39.28,40a13.08,13.08,0,0,0-3.89-.61A9.22,9.22,0,0,0,30.1,41a10,10,0,0,0-3.5,4.37A16.44,16.44,0,0,0,25.36,52q0,5.78,2.62,8.9A9.1,9.1,0,0,0,35.39,64a8.8,8.8,0,0,0,4.32-1,7.56,7.56,0,0,0,3-2.94,8.44,8.44,0,0,0,1.07-4.27,8.58,8.58,0,0,0-.93-4,7.07,7.07,0,0,0-2.57-2.79A6.86,6.86,0,0,0,36.58,47.92ZM35,59.21a2.7,2.7,0,0,1-2.11-.9A3.32,3.32,0,0,1,32.09,56a3.38,3.38,0,0,1,.8-2.35,3,3,0,0,1,4.25,0A3.47,3.47,0,0,1,37.91,56a3.37,3.37,0,0,1-.79,2.34A2.66,2.66,0,0,1,35,59.21Zm14.34-6a3.11,3.11,0,0,0,2.33-.95,3.4,3.4,0,0,0,0-4.69,3.14,3.14,0,0,0-2.33-.95,3.18,3.18,0,0,0-2.36.95,3.4,3.4,0,0,0,0,4.69A3.14,3.14,0,0,0,49.36,53.22Zm0,10.68A3.14,3.14,0,0,0,51.69,63a3.25,3.25,0,0,0,.94-2.35,3.21,3.21,0,0,0-.94-2.34,3.11,3.11,0,0,0-2.33-1,3.15,3.15,0,0,0-2.36,1,3.21,3.21,0,0,0-.94,2.34A3.25,3.25,0,0,0,47,63,3.18,3.18,0,0,0,49.36,63.9Zm22-5.17H68.6V42.62a2.93,2.93,0,0,0-.83-2.21,3,3,0,0,0-2.19-.82,5.67,5.67,0,0,0-2.82.85L57.32,43.6a2.3,2.3,0,0,0-1.19,2.11,2.81,2.81,0,0,0,.68,1.85,2,2,0,0,0,1.63.84,2.39,2.39,0,0,0,1.19-.34l2.72-1.6V58.73H59.6a3.48,3.48,0,0,0-2.25.61,2.31,2.31,0,0,0-.71,1.84c0,1.68,1,2.52,3,2.52H71.39c2,0,3-.84,3-2.52a2.31,2.31,0,0,0-.71-1.84A3.48,3.48,0,0,0,71.39,58.73ZM84.58,64a7.93,7.93,0,0,0,6.8-3.16q2.36-3.17,2.35-9.15t-2.36-9.11a8,8,0,0,0-6.79-3.16,8,8,0,0,0-6.8,3.16q-2.34,3.16-2.34,9.11t2.34,9.15A8,8,0,0,0,84.58,64Zm0-4.72a2.43,2.43,0,0,1-2.34-1.77,16.83,16.83,0,0,1-.72-5.82,16.59,16.59,0,0,1,.72-5.79,2.44,2.44,0,0,1,4.69,0,16.68,16.68,0,0,1,.72,5.78,16.83,16.83,0,0,1-.72,5.82A2.44,2.44,0,0,1,84.58,59.28Z"/></svg>