<svg id="Layer_1" data-name="Layer 1" xmlns="http://www.w3.org/2000/svg" viewBox="0 0 100 100"><title>l11_4_1</title><path d="M89.51,77.42h-79A10.49,10.49,0,0,1,0,66.93V36.61A10.49,10.49,0,0,1,10.49,26.13h79A10.49,10.49,0,0,1,100,36.61V66.93A10.49,10.49,0,0,1,89.51,77.42ZM14.14,63.8a7.94,7.94,0,0,0,6.8-3.17c1.56-2.1,2.35-5.15,2.35-9.14s-.79-7-2.37-9.11a7.94,7.94,0,0,0-6.78-3.17,8,8,0,0,0-6.8,3.17C5.78,44.48,5,47.52,5,51.49s.79,7,2.35,9.14A8,8,0,0,0,14.14,63.8Zm0-4.73a2.44,2.44,0,0,1-2.35-1.77,17.07,17.07,0,0,1-.71-5.81,17,17,0,0,1,.71-5.8,2.45,2.45,0,0,1,4.7,0,17,17,0,0,1,.71,5.78,17.07,17.07,0,0,1-.71,5.81A2.44,2.44,0,0,1,14.14,59.07Zm24.72-7.92a5.56,5.56,0,0,0,2.7-2.06,5.61,5.61,0,0,0,1-3.28,6,6,0,0,0-1-3.47,6.74,6.74,0,0,0-3-2.31,11.33,11.33,0,0,0-4.43-.82,13.55,13.55,0,0,0-4,.62,10.91,10.91,0,0,0-3.45,1.7,2.73,2.73,0,0,0-.82.91,2.66,2.66,0,0,0-.24,1.19,2.83,2.83,0,0,0,.58,1.79,1.75,1.75,0,0,0,1.43.73,2.26,2.26,0,0,0,.85-.15,11.24,11.24,0,0,0,1-.5l.71-.34A17,17,0,0,1,32,44.35,5,5,0,0,1,33.79,44a3,3,0,0,1,2.08.7,2.56,2.56,0,0,1,.74,1.95,1.9,1.9,0,0,1-.85,1.74A5.21,5.21,0,0,1,33,49H31.55a1.93,1.93,0,0,0-1.6.72,2.58,2.58,0,0,0-.58,1.7,2.62,2.62,0,0,0,.58,1.7,2,2,0,0,0,1.6.71h2.11a5,5,0,0,1,2.78.58,2.12,2.12,0,0,1,.85,1.9,2.35,2.35,0,0,1-.83,2,4.72,4.72,0,0,1-2.74.61,6.25,6.25,0,0,1-1.95-.28,17.16,17.16,0,0,1-2-.84l-.42-.18-.32-.16c-.44-.22-.78-.39-1-.49a2.3,2.3,0,0,0-.85-.15,1.74,1.74,0,0,0-1.43.73,2.74,2.74,0,0,0-.58,1.78,2.67,2.67,0,0,0,.24,1.18,2.75,2.75,0,0,0,.81.93,11,11,0,0,0,3.54,1.72,15.36,15.36,0,0,0,4.25.59,12.85,12.85,0,0,0,4.81-.83A7.2,7.2,0,0,0,42,60.57,5.94,5.94,0,0,0,43.14,57,6,6,0,0,0,42,53.26,5.77,5.77,0,0,0,38.86,51.15ZM49.36,53a3.14,3.14,0,0,0,2.33-1,3.41,3.41,0,0,0,0-4.7,3.14,3.14,0,0,0-2.33-.95,3.18,3.18,0,0,0-2.36.95,3.41,3.41,0,0,0,0,4.7A3.18,3.18,0,0,0,49.36,53Zm0,10.67a3.11,3.11,0,0,0,2.33-.95,3.21,3.21,0,0,0,.94-2.34,3.25,3.25,0,0,0-.94-2.35,3.14,3.14,0,0,0-2.33-.95,3.18,3.18,0,0,0-2.36.95,3.25,3.25,0,0,0-.94,2.35A3.21,3.21,0,0,0,47,62.74,3.14,3.14,0,0,0,49.36,63.69Zm14.82.11A7.94,7.94,0,0,0,71,60.63q2.35-3.15,2.35-9.14T71,42.38a8,8,0,0,0-6.79-3.17,8,8,0,0,0-6.8,3.17Q55,45.53,55,51.49t2.34,9.14A8,8,0,0,0,64.18,63.8Zm0-4.73a2.43,2.43,0,0,1-2.34-1.77,16.76,16.76,0,0,1-.72-5.81,16.66,16.66,0,0,1,.72-5.8,2.44,2.44,0,0,1,4.69,0,16.7,16.7,0,0,1,.71,5.78,16.82,16.82,0,0,1-.71,5.81A2.44,2.44,0,0,1,64.18,59.07Zm20.4,4.73a7.94,7.94,0,0,0,6.8-3.17q2.36-3.15,2.35-9.14t-2.36-9.11a8,8,0,0,0-6.79-3.17,8,8,0,0,0-6.8,3.17q-2.34,3.15-2.34,9.11t2.34,9.14A8,8,0,0,0,84.58,63.8Zm0-4.73a2.43,2.43,0,0,1-2.34-1.77,16.76,16.76,0,0,1-.72-5.81,16.66,16.66,0,0,1,.72-5.8,2.44,2.44,0,0,1,4.69,0,16.7,16.7,0,0,1,.71,5.78,16.82,16.82,0,0,1-.71,5.81A2.44,2.44,0,0,1,84.58,59.07Z"/></svg>