<svg id="Layer_1" data-name="Layer 1" xmlns="http://www.w3.org/2000/svg" viewBox="0 0 100 100"><title>l11_4_1</title><path d="M89.26,78.4h-79A10.49,10.49,0,0,1-.26,67.91V37.59A10.49,10.49,0,0,1,10.23,27.1h79A10.49,10.49,0,0,1,99.74,37.59V67.91A10.49,10.49,0,0,1,89.26,78.4ZM13.89,64.77a7.93,7.93,0,0,0,6.79-3.16C22.25,59.5,23,56.46,23,52.47s-.79-7-2.36-9.11a8,8,0,0,0-6.78-3.17,7.94,7.94,0,0,0-6.8,3.17q-2.36,3.15-2.35,9.11c0,4,.78,7,2.35,9.14A7.93,7.93,0,0,0,13.89,64.77Zm0-4.72a2.44,2.44,0,0,1-2.35-1.77,16.86,16.86,0,0,1-.71-5.81,16.71,16.71,0,0,1,.71-5.8,2.44,2.44,0,0,1,4.69,0A16.64,16.64,0,0,1,17,52.47a16.8,16.8,0,0,1-.72,5.81A2.43,2.43,0,0,1,13.89,60.05Zm20.39,4.72a7.93,7.93,0,0,0,6.8-3.16c1.57-2.11,2.35-5.15,2.35-9.14s-.79-7-2.36-9.11a8,8,0,0,0-6.79-3.17,8,8,0,0,0-6.8,3.17q-2.34,3.15-2.34,9.11c0,4,.78,7,2.34,9.14A8,8,0,0,0,34.28,64.77Zm0-4.72a2.43,2.43,0,0,1-2.34-1.77,16.8,16.8,0,0,1-.72-5.81,16.66,16.66,0,0,1,.72-5.8,2.44,2.44,0,0,1,4.69,0,16.7,16.7,0,0,1,.71,5.78,16.86,16.86,0,0,1-.71,5.81A2.44,2.44,0,0,1,34.28,60.05Zm14.83-6a3.12,3.12,0,0,0,2.32-1,3.41,3.41,0,0,0,0-4.7,3.12,3.12,0,0,0-2.32-1,3.2,3.2,0,0,0-2.37,1,3.43,3.43,0,0,0,0,4.7A3.2,3.2,0,0,0,49.11,54Zm0,10.67a3.08,3.08,0,0,0,2.32-1,3.4,3.4,0,0,0,0-4.69,3.08,3.08,0,0,0-2.32-1,3.16,3.16,0,0,0-2.37,1,3.42,3.42,0,0,0,0,4.69A3.16,3.16,0,0,0,49.11,64.67Zm14.82.1a7.93,7.93,0,0,0,6.8-3.16c1.56-2.11,2.34-5.15,2.34-9.14s-.78-7-2.36-9.11a7.94,7.94,0,0,0-6.78-3.17,7.94,7.94,0,0,0-6.8,3.17c-1.56,2.1-2.35,5.14-2.35,9.11s.79,7,2.35,9.14A7.93,7.93,0,0,0,63.93,64.77Zm0-4.72a2.44,2.44,0,0,1-2.35-1.77,17.11,17.11,0,0,1-.71-5.81,17,17,0,0,1,.71-5.8,2.44,2.44,0,0,1,4.69,0A16.64,16.64,0,0,1,67,52.47a16.8,16.8,0,0,1-.72,5.81A2.42,2.42,0,0,1,63.93,60.05Zm20.4,4.72a8,8,0,0,0,6.8-3.16c1.56-2.11,2.34-5.15,2.34-9.14s-.78-7-2.36-9.11a8,8,0,0,0-6.78-3.17,7.94,7.94,0,0,0-6.8,3.17c-1.56,2.1-2.35,5.14-2.35,9.11s.79,7,2.35,9.14A7.93,7.93,0,0,0,84.33,64.77Zm0-4.72A2.44,2.44,0,0,1,82,58.28a17.11,17.11,0,0,1-.71-5.81,17,17,0,0,1,.71-5.8,2.44,2.44,0,0,1,4.69,0,16.64,16.64,0,0,1,.72,5.78,16.8,16.8,0,0,1-.72,5.81A2.42,2.42,0,0,1,84.33,60.05Z"/></svg>