<svg id="Layer_1" data-name="Layer 1" xmlns="http://www.w3.org/2000/svg" viewBox="0 0 100 100"><title>l11_4_1</title><path d="M89.51,77.87h-79A10.49,10.49,0,0,1,0,67.39V37.06A10.49,10.49,0,0,1,10.49,26.58h79A10.49,10.49,0,0,1,100,37.06V67.39A10.49,10.49,0,0,1,89.51,77.87ZM21.35,59H18.56V42.86a3,3,0,0,0-.83-2.21,3,3,0,0,0-2.2-.81,5.73,5.73,0,0,0-2.82.85L7.27,43.85A2.31,2.31,0,0,0,6.08,46a2.88,2.88,0,0,0,.68,1.85,2.07,2.07,0,0,0,1.64.83,2.26,2.26,0,0,0,1.18-.34l2.72-1.6V59H9.55a3.37,3.37,0,0,0-2.24.61,2.28,2.28,0,0,0-.72,1.84c0,1.67,1,2.51,3,2.51h11.8c2,0,3-.84,3-2.51a2.28,2.28,0,0,0-.72-1.84A3.37,3.37,0,0,0,21.35,59ZM36.2,48.27a8.44,8.44,0,0,0-3.36.61V44.7h7.34c2,0,3-.79,3-2.38s-1-2.35-3-2.35H29.64a2.89,2.89,0,0,0-2.14.75,2.94,2.94,0,0,0-.75,2.18v9.21a1.88,1.88,0,0,0,.65,1.48,2.36,2.36,0,0,0,1.6.56,3.26,3.26,0,0,0,1.53-.37,12.5,12.5,0,0,1,1.95-.62A9.63,9.63,0,0,1,34.33,53a3.9,3.9,0,0,1,2.66.85,3,3,0,0,1,.95,2.38,3,3,0,0,1-.92,2.4,4.34,4.34,0,0,1-2.82.77,5.76,5.76,0,0,1-1.89-.31,17.75,17.75,0,0,1-1.92-.82l-.68-.34a9.4,9.4,0,0,0-1-.51,2.34,2.34,0,0,0-.85-.13,1.75,1.75,0,0,0-1.43.73,2.81,2.81,0,0,0-.57,1.78A2.54,2.54,0,0,0,26.09,61a3,3,0,0,0,.8.93,11.18,11.18,0,0,0,3.48,1.7,14.15,14.15,0,0,0,4.13.61,11.07,11.07,0,0,0,4.87-1,7.65,7.65,0,0,0,3.26-2.89A8,8,0,0,0,43.79,56a8.23,8.23,0,0,0-1-4,6.84,6.84,0,0,0-2.69-2.72A7.79,7.79,0,0,0,36.2,48.27Zm13.16,5.2a3.14,3.14,0,0,0,2.33-.95,3.25,3.25,0,0,0,.94-2.35,3.21,3.21,0,0,0-.94-2.34,3.11,3.11,0,0,0-2.33-1,3.15,3.15,0,0,0-2.36,1,3.21,3.21,0,0,0-.94,2.34A3.25,3.25,0,0,0,47,52.52,3.18,3.18,0,0,0,49.36,53.47Zm0,10.68a3.11,3.11,0,0,0,2.33-1,3.21,3.21,0,0,0,.94-2.34,3.25,3.25,0,0,0-.94-2.35,3.14,3.14,0,0,0-2.33-1,3.18,3.18,0,0,0-2.36,1,3.25,3.25,0,0,0-.94,2.35A3.21,3.21,0,0,0,47,63.19,3.15,3.15,0,0,0,49.36,64.15ZM68.5,51.6a5.47,5.47,0,0,0,2.7-2.06,5.61,5.61,0,0,0,1-3.28,6,6,0,0,0-1-3.47,6.74,6.74,0,0,0-3-2.31,11.35,11.35,0,0,0-4.44-.81,13.59,13.59,0,0,0-4,.61A11.35,11.35,0,0,0,56.26,42a2.73,2.73,0,0,0-.81.92,2.6,2.6,0,0,0-.24,1.19,2.76,2.76,0,0,0,.58,1.78,1.74,1.74,0,0,0,1.42.73,2.31,2.31,0,0,0,.86-.15c.24-.1.58-.27,1-.49l.72-.34a18.06,18.06,0,0,1,1.85-.82,5.26,5.26,0,0,1,1.79-.31,3,3,0,0,1,2.07.7,2.55,2.55,0,0,1,.75,2,1.91,1.91,0,0,1-.85,1.73,5.24,5.24,0,0,1-2.72.54h-1.5a2,2,0,0,0-1.6.72,2.82,2.82,0,0,0,0,3.4,2,2,0,0,0,1.6.71H63.3a5.09,5.09,0,0,1,2.79.58,2.13,2.13,0,0,1,.85,1.9,2.36,2.36,0,0,1-.83,2,4.71,4.71,0,0,1-2.74.62,6.26,6.26,0,0,1-2-.29,15.46,15.46,0,0,1-1.95-.84L59,58.08l-.32-.16c-.43-.22-.77-.39-1-.49a2.26,2.26,0,0,0-.85-.15,1.75,1.75,0,0,0-1.43.73,2.82,2.82,0,0,0-.58,1.78A2.67,2.67,0,0,0,55.07,61a2.6,2.6,0,0,0,.82.93,11.06,11.06,0,0,0,3.53,1.72,15.36,15.36,0,0,0,4.25.59,12.74,12.74,0,0,0,4.82-.83A7,7,0,0,0,71.66,61a5.92,5.92,0,0,0,1.13-3.61,6,6,0,0,0-1.14-3.7A5.82,5.82,0,0,0,68.5,51.6ZM84.58,64.25a8,8,0,0,0,6.8-3.16q2.36-3.17,2.35-9.15c0-4-.79-7-2.36-9.11a8,8,0,0,0-6.79-3.16,8,8,0,0,0-6.8,3.16c-1.56,2.11-2.34,5.14-2.34,9.11s.78,7,2.34,9.15A8,8,0,0,0,84.58,64.25Zm0-4.73a2.43,2.43,0,0,1-2.34-1.77,16.73,16.73,0,0,1-.72-5.81,16.66,16.66,0,0,1,.72-5.8,2.44,2.44,0,0,1,4.69,0,16.73,16.73,0,0,1,.71,5.78,16.78,16.78,0,0,1-.71,5.81A2.44,2.44,0,0,1,84.58,59.52Z"/></svg>