<svg id="Layer_1" data-name="Layer 1" xmlns="http://www.w3.org/2000/svg" viewBox="0 0 100 100"><title>l11_1_1</title><path d="M89.72,75.81h-79A10.48,10.48,0,0,1,.21,65.32V35A10.48,10.48,0,0,1,10.69,24.52h79A10.49,10.49,0,0,1,100.21,35V65.32A10.49,10.49,0,0,1,89.72,75.81ZM14.35,62.19A8,8,0,0,0,21.15,59q2.34-3.15,2.34-9.14c0-4-.78-7-2.36-9.11a8,8,0,0,0-6.78-3.17,7.94,7.94,0,0,0-6.8,3.17Q5.2,43.92,5.2,49.88T7.55,59A7.94,7.94,0,0,0,14.35,62.19Zm0-4.73A2.44,2.44,0,0,1,12,55.69a17.07,17.07,0,0,1-.71-5.81,17,17,0,0,1,.71-5.8,2.44,2.44,0,0,1,4.69,0,16.64,16.64,0,0,1,.72,5.78,16.76,16.76,0,0,1-.72,5.81A2.42,2.42,0,0,1,14.35,57.46ZM36.79,46.1a6.57,6.57,0,0,0-2.88.63,5.46,5.46,0,0,0-2.09,1.72A9.06,9.06,0,0,1,33.1,44a3.26,3.26,0,0,1,2.8-1.58,4.37,4.37,0,0,1,1.57.28c.49.18,1.12.45,1.87.81l.74.37a11.24,11.24,0,0,0,1,.5,2.3,2.3,0,0,0,.85.15,1.8,1.8,0,0,0,1.45-.73A2.77,2.77,0,0,0,44,42a2.52,2.52,0,0,0-.25-1.19,3,3,0,0,0-.83-.91,10.64,10.64,0,0,0-3.42-1.7,13.15,13.15,0,0,0-3.89-.62,9.22,9.22,0,0,0-5.29,1.54,9.82,9.82,0,0,0-3.5,4.36,16.47,16.47,0,0,0-1.24,6.65q0,5.77,2.61,8.91a9.16,9.16,0,0,0,7.42,3.13,8.79,8.79,0,0,0,4.31-1.06,7.59,7.59,0,0,0,3-2.94A9.06,9.06,0,0,0,43,49.9a7,7,0,0,0-2.56-2.79A6.86,6.86,0,0,0,36.79,46.1ZM35.22,57.39a2.73,2.73,0,0,1-2.11-.9,3.79,3.79,0,0,1,0-4.67,2.72,2.72,0,0,1,2.12-.89,2.69,2.69,0,0,1,2.13.87,4,4,0,0,1,0,4.71A2.66,2.66,0,0,1,35.22,57.39Zm14.35-6a3.16,3.16,0,0,0,2.33-.95,3.43,3.43,0,0,0,0-4.7,3.37,3.37,0,0,0-4.69,0,3.41,3.41,0,0,0,0,4.7A3.18,3.18,0,0,0,49.57,51.41Zm0,10.67a3.12,3.12,0,0,0,2.33-.95,3.2,3.2,0,0,0,.93-2.34,3.24,3.24,0,0,0-.93-2.35,3.37,3.37,0,0,0-4.69,0,3.21,3.21,0,0,0-.94,2.35,3.23,3.23,0,0,0,3.3,3.29ZM68.71,49.54a5.47,5.47,0,0,0,2.7-2.06,5.61,5.61,0,0,0,1-3.28,6,6,0,0,0-1-3.47,6.71,6.71,0,0,0-3-2.31A11.34,11.34,0,0,0,64,37.6a13.6,13.6,0,0,0-4,.62,10.91,10.91,0,0,0-3.45,1.7,2.73,2.73,0,0,0-.82.91A2.66,2.66,0,0,0,55.42,42,2.82,2.82,0,0,0,56,43.81a1.77,1.77,0,0,0,1.43.73,2.26,2.26,0,0,0,.85-.15,11.24,11.24,0,0,0,1-.5l.72-.34a16.92,16.92,0,0,1,1.85-.81,5,5,0,0,1,1.78-.31,3,3,0,0,1,2.08.7,2.53,2.53,0,0,1,.75,1.95,1.92,1.92,0,0,1-.85,1.74,5.26,5.26,0,0,1-2.72.54H61.4a2,2,0,0,0-1.6.72,2.63,2.63,0,0,0-.58,1.7,2.67,2.67,0,0,0,.58,1.7,2,2,0,0,0,1.6.71h2.11a5.09,5.09,0,0,1,2.79.58,2.14,2.14,0,0,1,.85,1.9,2.36,2.36,0,0,1-.84,2,4.69,4.69,0,0,1-2.73.61,6.27,6.27,0,0,1-2-.28,16.35,16.35,0,0,1-1.95-.84L59.24,56l-.32-.16c-.43-.22-.77-.39-1-.49a2.26,2.26,0,0,0-.85-.15,1.75,1.75,0,0,0-1.43.73A2.74,2.74,0,0,0,55,57.73a2.37,2.37,0,0,0,1.06,2.11,10.86,10.86,0,0,0,3.53,1.72,15.36,15.36,0,0,0,4.25.59,12.85,12.85,0,0,0,4.81-.83A7.2,7.2,0,0,0,71.87,59,5.94,5.94,0,0,0,73,55.35a6,6,0,0,0-1.14-3.7A5.74,5.74,0,0,0,68.71,49.54ZM84.79,62.19A7.94,7.94,0,0,0,91.59,59q2.35-3.15,2.35-9.14t-2.37-9.11a7.94,7.94,0,0,0-6.78-3.17A8,8,0,0,0,78,40.77q-2.34,3.15-2.34,9.11T78,59A8,8,0,0,0,84.79,62.19Zm0-4.73a2.42,2.42,0,0,1-2.34-1.77,16.76,16.76,0,0,1-.72-5.81,16.66,16.66,0,0,1,.72-5.8,2.42,2.42,0,0,1,2.34-1.75,2.44,2.44,0,0,1,2.35,1.77,17,17,0,0,1,.71,5.78,17.07,17.07,0,0,1-.71,5.81A2.44,2.44,0,0,1,84.79,57.46Z"/></svg>