<svg id="Layer_1" data-name="Layer 1" xmlns="http://www.w3.org/2000/svg" viewBox="0 0 100 100"><title>l11_5_1</title><path d="M100,50v25a25,25,0,0,1-25,25H50a50,50,0,1,1,50-50ZM51.71,9.36a5.54,5.54,0,0,0-5.54,5.54V50.65h-23a5.55,5.55,0,0,0,0,11.09H51.71a5.54,5.54,0,0,0,5.54-5.55V14.9A5.54,5.54,0,0,0,51.71,9.36ZM58,75.6a6.4,6.4,0,0,0-2.81.62,5.24,5.24,0,0,0-2,1.68,8.76,8.76,0,0,1,1.25-4.34A3.16,3.16,0,0,1,57.1,72a4.59,4.59,0,0,1,1.53.26c.49.18,1.1.45,1.83.8l.73.37c.43.22.76.38,1,.48a2.19,2.19,0,0,0,.83.15,1.77,1.77,0,0,0,1.42-.72A2.63,2.63,0,0,0,65,71.61a2.44,2.44,0,0,0-.25-1.17,2.89,2.89,0,0,0-.81-.89,10.73,10.73,0,0,0-3.35-1.67,12.87,12.87,0,0,0-3.81-.6,9,9,0,0,0-5.17,1.5,9.71,9.71,0,0,0-3.43,4.28A16.11,16.11,0,0,0,47,79.56q0,5.66,2.56,8.72a8.94,8.94,0,0,0,7.25,3.06,8.66,8.66,0,0,0,4.23-1,7.46,7.46,0,0,0,2.91-2.88,8.29,8.29,0,0,0,1-4.18,8.39,8.39,0,0,0-.92-3.94,7,7,0,0,0-2.51-2.73A6.74,6.74,0,0,0,58,75.6ZM56.44,86.65a2.67,2.67,0,0,1-2.07-.89,3.24,3.24,0,0,1-.79-2.27,3.3,3.3,0,0,1,.78-2.3,2.95,2.95,0,0,1,4.16,0,3.39,3.39,0,0,1,.75,2.32,3.34,3.34,0,0,1-.77,2.29A2.61,2.61,0,0,1,56.44,86.65ZM78.83,74.27a7.24,7.24,0,0,0-3,.6,5.89,5.89,0,0,0-2.23,1.76V70a2.33,2.33,0,0,0-.79-1.86,3.08,3.08,0,0,0-2.1-.7,3.17,3.17,0,0,0-2.2.75,2.45,2.45,0,0,0-.83,1.91V88.51a2.6,2.6,0,0,0,.8,2,3.1,3.1,0,0,0,2.16.73,3.15,3.15,0,0,0,2.17-.73,2.59,2.59,0,0,0,.79-2V81.92a3.21,3.21,0,0,1,.79-2.28,2.74,2.74,0,0,1,2.11-.85c1.37,0,2.06.8,2.06,2.4v7.32a2.6,2.6,0,0,0,.8,2,3.56,3.56,0,0,0,4.32,0,2.56,2.56,0,0,0,.8-2V81.32a8.33,8.33,0,0,0-1.4-5.3A5.1,5.1,0,0,0,78.83,74.27Z"/></svg>