<svg id="Layer_1" data-name="Layer 1" xmlns="http://www.w3.org/2000/svg" viewBox="0 0 100 100"><title>l11_1_1</title><path d="M89.51,80h-79A10.49,10.49,0,0,1,0,69.51V39.19A10.49,10.49,0,0,1,10.49,28.71h79A10.49,10.49,0,0,1,100,39.19V69.51A10.49,10.49,0,0,1,89.51,80ZM14.14,66.38a7.94,7.94,0,0,0,6.8-3.17c1.56-2.1,2.35-5.15,2.35-9.14s-.79-7-2.37-9.11a7.94,7.94,0,0,0-6.78-3.17A8,8,0,0,0,7.34,45C5.78,47.06,5,50.1,5,54.07s.79,7,2.35,9.14A8,8,0,0,0,14.14,66.38Zm0-4.73a2.44,2.44,0,0,1-2.35-1.77,17.07,17.07,0,0,1-.71-5.81,17,17,0,0,1,.71-5.8,2.45,2.45,0,0,1,4.7,0,17,17,0,0,1,.71,5.78,17.07,17.07,0,0,1-.71,5.81A2.44,2.44,0,0,1,14.14,61.65ZM36.58,50.29a6.52,6.52,0,0,0-2.87.63,5.39,5.39,0,0,0-2.09,1.72,9.07,9.07,0,0,1,1.27-4.44,3.26,3.26,0,0,1,2.81-1.58,4.57,4.57,0,0,1,1.56.27c.5.19,1.12.46,1.87.82l.75.37a11.24,11.24,0,0,0,1,.5,2.26,2.26,0,0,0,.85.15A1.8,1.8,0,0,0,43.19,48a2.73,2.73,0,0,0,.6-1.79A2.52,2.52,0,0,0,43.53,45a3,3,0,0,0-.83-.91,10.54,10.54,0,0,0-3.42-1.7,13.1,13.1,0,0,0-3.89-.62,9.22,9.22,0,0,0-5.29,1.53,9.91,9.91,0,0,0-3.5,4.37,16.47,16.47,0,0,0-1.24,6.65q0,5.77,2.62,8.91a9.13,9.13,0,0,0,7.41,3.13,8.8,8.8,0,0,0,4.32-1.06,7.5,7.5,0,0,0,3-2.94,8.44,8.44,0,0,0,1.07-4.27,8.61,8.61,0,0,0-.93-4,7.11,7.11,0,0,0-2.57-2.78A6.86,6.86,0,0,0,36.58,50.29ZM35,61.58a2.7,2.7,0,0,1-2.11-.9,3.32,3.32,0,0,1-.82-2.33,3.37,3.37,0,0,1,.8-2.34A2.73,2.73,0,0,1,35,55.12a2.68,2.68,0,0,1,2.12.87,3.95,3.95,0,0,1,0,4.71A2.65,2.65,0,0,1,35,61.58Zm14.34-6a3.14,3.14,0,0,0,2.33-1,3.41,3.41,0,0,0,0-4.7,3.14,3.14,0,0,0-2.33-1A3.18,3.18,0,0,0,47,50a3.41,3.41,0,0,0,0,4.7A3.18,3.18,0,0,0,49.36,55.6Zm0,10.67a3.11,3.11,0,0,0,2.33-1,3.4,3.4,0,0,0,0-4.69,3.14,3.14,0,0,0-2.33-1,3.18,3.18,0,0,0-2.36,1,3.4,3.4,0,0,0,0,4.69A3.14,3.14,0,0,0,49.36,66.27ZM68.5,53.73a5.47,5.47,0,0,0,2.7-2.06,5.61,5.61,0,0,0,1-3.28,6,6,0,0,0-1-3.47,6.67,6.67,0,0,0-3-2.31,11.34,11.34,0,0,0-4.44-.82,13.6,13.6,0,0,0-4,.62,11.12,11.12,0,0,0-3.45,1.7,2.8,2.8,0,0,0-.81.91,2.66,2.66,0,0,0-.24,1.19A2.77,2.77,0,0,0,55.79,48a1.74,1.74,0,0,0,1.42.73,2.31,2.31,0,0,0,.86-.15c.24-.1.58-.27,1-.5l.72-.34a17.8,17.8,0,0,1,1.85-.81,5,5,0,0,1,1.79-.31,2.9,2.9,0,0,1,2.07.7,2.53,2.53,0,0,1,.75,2A1.92,1.92,0,0,1,65.41,51a5.24,5.24,0,0,1-2.72.54h-1.5a2,2,0,0,0-1.6.72A2.62,2.62,0,0,0,59,54a2.66,2.66,0,0,0,.57,1.7,2,2,0,0,0,1.6.71H63.3a5.09,5.09,0,0,1,2.79.58,2.12,2.12,0,0,1,.85,1.9,2.38,2.38,0,0,1-.83,2,4.72,4.72,0,0,1-2.74.61,6,6,0,0,1-2-.29,15.27,15.27,0,0,1-1.95-.83L59,60.2l-.32-.15c-.43-.22-.77-.39-1-.49a2.26,2.26,0,0,0-.85-.15,1.75,1.75,0,0,0-1.43.73,2.8,2.8,0,0,0-.58,1.78,2.6,2.6,0,0,0,.24,1.17,2.62,2.62,0,0,0,.82.94,11.06,11.06,0,0,0,3.53,1.72,15.36,15.36,0,0,0,4.25.59,12.94,12.94,0,0,0,4.82-.83,7.11,7.11,0,0,0,3.17-2.36,5.94,5.94,0,0,0,1.13-3.61,6,6,0,0,0-1.14-3.7A5.76,5.76,0,0,0,68.5,53.73ZM84.58,66.38a7.94,7.94,0,0,0,6.8-3.17q2.36-3.15,2.35-9.14T91.37,45a8,8,0,0,0-6.79-3.17A8,8,0,0,0,77.78,45q-2.34,3.15-2.34,9.11t2.34,9.14A8,8,0,0,0,84.58,66.38Zm0-4.73a2.43,2.43,0,0,1-2.34-1.77,16.76,16.76,0,0,1-.72-5.81,16.66,16.66,0,0,1,.72-5.8,2.44,2.44,0,0,1,4.69,0,16.7,16.7,0,0,1,.71,5.78,16.82,16.82,0,0,1-.71,5.81A2.44,2.44,0,0,1,84.58,61.65Z"/></svg>