<svg id="Layer_1" data-name="Layer 1" xmlns="http://www.w3.org/2000/svg" viewBox="0 0 100 100"><title>l11_5_1</title><path d="M89.51,77.63h-79A10.49,10.49,0,0,1,0,67.14V36.82A10.49,10.49,0,0,1,10.49,26.33h79A10.49,10.49,0,0,1,100,36.82V67.14A10.49,10.49,0,0,1,89.51,77.63ZM14.11,64a8,8,0,0,0,6.8-3.16q2.34-3.17,2.34-9.15c0-4-.78-7-2.36-9.11a8,8,0,0,0-6.78-3.16,7.93,7.93,0,0,0-6.8,3.16Q5,45.75,5,51.69t2.35,9.15A7.93,7.93,0,0,0,14.11,64Zm0-4.72a2.44,2.44,0,0,1-2.35-1.77,17.14,17.14,0,0,1-.71-5.82,16.93,16.93,0,0,1,.71-5.79,2.44,2.44,0,0,1,4.69,0,16.68,16.68,0,0,1,.72,5.78,16.83,16.83,0,0,1-.72,5.82A2.42,2.42,0,0,1,14.11,59.28Zm26.72-.55H34l4.82-4.93A15.68,15.68,0,0,0,41.66,50a8.53,8.53,0,0,0,.84-3.79,6.28,6.28,0,0,0-1-3.56,6.66,6.66,0,0,0-2.94-2.38,11,11,0,0,0-4.42-.83,13.28,13.28,0,0,0-3.93.61,13.65,13.65,0,0,0-3.59,1.7,2.3,2.3,0,0,0-.83.89,2.83,2.83,0,0,0-.22,1.22,2.91,2.91,0,0,0,.58,1.82,1.72,1.72,0,0,0,1.43.76,2,2,0,0,0,.64-.1,3.79,3.79,0,0,0,.7-.32l.53-.29.68-.34A15.68,15.68,0,0,1,32,44.54a5.56,5.56,0,0,1,1.82-.29,2.66,2.66,0,0,1,1.88.61,2.27,2.27,0,0,1,.67,1.77q0,2-2.25,4.32l-7.21,7.51a3.72,3.72,0,0,0-1.15,2.65A2.54,2.54,0,0,0,26.48,63a2.58,2.58,0,0,0,1.94.74H40.83a3.41,3.41,0,0,0,2.23-.62,2.35,2.35,0,0,0,.73-1.9,2.25,2.25,0,0,0-.73-1.85A3.47,3.47,0,0,0,40.83,58.73Zm8.53-5.51a3.11,3.11,0,0,0,2.33-.95,3.17,3.17,0,0,0,.94-2.34,3.21,3.21,0,0,0-.94-2.35,3.14,3.14,0,0,0-2.33-.95,3.18,3.18,0,0,0-2.36.95,3.24,3.24,0,0,0-.93,2.35A3.2,3.2,0,0,0,47,52.27,3.14,3.14,0,0,0,49.36,53.22Zm0,10.68A3.14,3.14,0,0,0,51.69,63a3.21,3.21,0,0,0,.94-2.35,3.17,3.17,0,0,0-.94-2.34,3.11,3.11,0,0,0-2.33-1,3.15,3.15,0,0,0-2.36,1,3.2,3.2,0,0,0-.93,2.34A3.24,3.24,0,0,0,47,63,3.18,3.18,0,0,0,49.36,63.9Zm21.15-5.17H63.68L68.5,53.8A15.68,15.68,0,0,0,71.34,50a8.53,8.53,0,0,0,.84-3.79,6.28,6.28,0,0,0-1-3.56,6.66,6.66,0,0,0-2.94-2.38,11.06,11.06,0,0,0-4.42-.83,13.28,13.28,0,0,0-3.93.61,13.65,13.65,0,0,0-3.59,1.7,2.3,2.3,0,0,0-.83.89,2.83,2.83,0,0,0-.22,1.22,2.91,2.91,0,0,0,.58,1.82,1.72,1.72,0,0,0,1.43.76,2,2,0,0,0,.64-.1,3.79,3.79,0,0,0,.7-.32l.53-.29.68-.34a15.68,15.68,0,0,1,1.92-.83,5.56,5.56,0,0,1,1.82-.29,2.66,2.66,0,0,1,1.88.61,2.31,2.31,0,0,1,.67,1.77q0,2-2.25,4.32L56.6,58.46a3.72,3.72,0,0,0-1.15,2.65A2.54,2.54,0,0,0,56.16,63a2.58,2.58,0,0,0,1.94.74H70.51a3.41,3.41,0,0,0,2.23-.62,2.35,2.35,0,0,0,.73-1.9,2.25,2.25,0,0,0-.73-1.85A3.47,3.47,0,0,0,70.51,58.73ZM84.62,64a7.93,7.93,0,0,0,6.8-3.16q2.34-3.17,2.34-9.15c0-4-.78-7-2.36-9.11a7.93,7.93,0,0,0-6.78-3.16,7.93,7.93,0,0,0-6.8,3.16c-1.56,2.11-2.35,5.15-2.35,9.11s.79,7,2.35,9.15A7.93,7.93,0,0,0,84.62,64Zm0-4.72a2.44,2.44,0,0,1-2.35-1.77,17.14,17.14,0,0,1-.71-5.82,16.93,16.93,0,0,1,.71-5.79,2.44,2.44,0,0,1,4.69,0,16.68,16.68,0,0,1,.72,5.78A16.83,16.83,0,0,1,87,57.51,2.42,2.42,0,0,1,84.62,59.28Z"/></svg>