<svg id="Layer_1" data-name="Layer 1" xmlns="http://www.w3.org/2000/svg" viewBox="0 0 100 100"><title>l11_1_1</title><path d="M89.51,80.6h-79A10.49,10.49,0,0,1,0,70.12V39.79A10.49,10.49,0,0,1,10.49,29.31h79A10.49,10.49,0,0,1,100,39.79V70.12A10.49,10.49,0,0,1,89.51,80.6ZM21.33,61.71H18.54V45.59a2.94,2.94,0,0,0-.83-2.21,3,3,0,0,0-2.19-.81,5.67,5.67,0,0,0-2.82.85L7.26,46.58a2.29,2.29,0,0,0-1.19,2.11,2.82,2.82,0,0,0,.68,1.85,2,2,0,0,0,1.63.83A2.29,2.29,0,0,0,9.57,51l2.72-1.6V61.71H9.53a3.39,3.39,0,0,0-2.24.61,2.28,2.28,0,0,0-.71,1.84c0,1.67,1,2.51,2.95,2.51h11.8c2,0,3-.84,3-2.51a2.31,2.31,0,0,0-.71-1.84A3.42,3.42,0,0,0,21.33,61.71Zm19.52,0H34l4.83-4.93A16,16,0,0,0,41.68,53a8.6,8.6,0,0,0,.83-3.79,6.24,6.24,0,0,0-1-3.55,6.75,6.75,0,0,0-2.95-2.38,10.86,10.86,0,0,0-4.42-.83,13.84,13.84,0,0,0-7.51,2.31,2.27,2.27,0,0,0-.83.88,3.29,3.29,0,0,0,.36,3,1.72,1.72,0,0,0,1.42.76,2,2,0,0,0,.65-.1,5.67,5.67,0,0,0,.7-.32c.26-.15.43-.25.52-.29l.68-.34A17.41,17.41,0,0,1,32,47.51a5.65,5.65,0,0,1,1.82-.29,2.67,2.67,0,0,1,1.89.62,2.26,2.26,0,0,1,.66,1.76q0,2-2.24,4.32l-7.21,7.52a3.7,3.7,0,0,0-1.15,2.65,2.52,2.52,0,0,0,.71,1.85,2.58,2.58,0,0,0,1.94.73H40.85a3.38,3.38,0,0,0,2.22-.61,2.33,2.33,0,0,0,.73-1.9,2.26,2.26,0,0,0-.73-1.86A3.5,3.5,0,0,0,40.85,61.71Zm8.53-5.51a3.14,3.14,0,0,0,2.33-1,3.24,3.24,0,0,0,.93-2.35,3.2,3.2,0,0,0-.93-2.34,3.11,3.11,0,0,0-2.33-1,3.25,3.25,0,0,0-3.3,3.3A3.21,3.21,0,0,0,47,55.25,3.18,3.18,0,0,0,49.38,56.2Zm0,10.68a3.11,3.11,0,0,0,2.33-1,3.2,3.2,0,0,0,.93-2.34,3.24,3.24,0,0,0-.93-2.35,3.14,3.14,0,0,0-2.33-.95,3.18,3.18,0,0,0-2.36.95,3.21,3.21,0,0,0-.94,2.35,3.25,3.25,0,0,0,3.3,3.3ZM64.2,67A8,8,0,0,0,71,63.82q2.35-3.16,2.35-9.15c0-4-.79-7-2.36-9.11A8,8,0,0,0,64.2,42.4a8,8,0,0,0-6.8,3.16c-1.56,2.11-2.34,5.14-2.34,9.11s.78,7,2.34,9.15A8,8,0,0,0,64.2,67Zm0-4.73a2.42,2.42,0,0,1-2.34-1.77,16.73,16.73,0,0,1-.72-5.81,16.66,16.66,0,0,1,.72-5.8,2.44,2.44,0,0,1,4.69,0,17,17,0,0,1,.71,5.78,17,17,0,0,1-.71,5.81A2.44,2.44,0,0,1,64.2,62.25ZM84.6,67a8,8,0,0,0,6.8-3.16q2.35-3.16,2.35-9.15c0-4-.79-7-2.37-9.11A7.93,7.93,0,0,0,84.6,42.4a8,8,0,0,0-6.8,3.16c-1.56,2.11-2.34,5.14-2.34,9.11s.78,7,2.34,9.15A8,8,0,0,0,84.6,67Zm0-4.73a2.42,2.42,0,0,1-2.34-1.77,16.73,16.73,0,0,1-.72-5.81,16.66,16.66,0,0,1,.72-5.8,2.44,2.44,0,0,1,4.69,0,17,17,0,0,1,.71,5.78A17,17,0,0,1,87,60.48,2.44,2.44,0,0,1,84.6,62.25Z"/></svg>