<svg id="Layer_1" data-name="Layer 1" xmlns="http://www.w3.org/2000/svg" viewBox="0 0 100 100"><title>l11_5_1</title><path d="M100,50v25a25,25,0,0,1-25,25H50a50,50,0,1,1,50-50ZM51.71,9.36a5.54,5.54,0,0,0-5.54,5.54V50.65h-23a5.55,5.55,0,0,0,0,11.09H51.71a5.54,5.54,0,0,0,5.54-5.55V14.9A5.54,5.54,0,0,0,51.71,9.36ZM61,79a5,5,0,0,0,2.61-2,5.8,5.8,0,0,0,1-3.33A5.5,5.5,0,0,0,62.28,69,10.36,10.36,0,0,0,56,67.28,10.36,10.36,0,0,0,49.68,69a5.5,5.5,0,0,0-2.33,4.67,5.67,5.67,0,0,0,.94,3.24A5.37,5.37,0,0,0,51,79a5.57,5.57,0,0,0-3.13,2,5.86,5.86,0,0,0-1.1,3.64,5.74,5.74,0,0,0,2.48,4.94A11.38,11.38,0,0,0,56,91.3a11.38,11.38,0,0,0,6.77-1.78A5.86,5.86,0,0,0,61,79ZM56,86.68q-3.63,0-3.63-2.6T56,81.49q3.63,0,3.63,2.59T56,86.68Zm0-14.77a3.54,3.54,0,0,1,2.23.58,2.26,2.26,0,0,1,.73,1.88,2.32,2.32,0,0,1-.73,1.9,4.51,4.51,0,0,1-4.46,0,2.32,2.32,0,0,1-.73-1.9,2.26,2.26,0,0,1,.73-1.88A3.54,3.54,0,0,1,56,71.91Zm22.86,2.36a7.24,7.24,0,0,0-3,.6,5.81,5.81,0,0,0-2.23,1.76V70a2.31,2.31,0,0,0-.8-1.86,3,3,0,0,0-2.09-.7,3.17,3.17,0,0,0-2.2.75,2.45,2.45,0,0,0-.83,1.91V88.51a2.6,2.6,0,0,0,.8,2,3.56,3.56,0,0,0,4.32,0,2.56,2.56,0,0,0,.8-2V81.92a3.25,3.25,0,0,1,.78-2.28,2.78,2.78,0,0,1,2.12-.85c1.37,0,2.06.8,2.06,2.4v7.32a2.6,2.6,0,0,0,.8,2,3.56,3.56,0,0,0,4.32,0,2.56,2.56,0,0,0,.8-2V81.32a8.33,8.33,0,0,0-1.4-5.3A5.1,5.1,0,0,0,78.83,74.27Z"/></svg>