<svg id="Layer_1" data-name="Layer 1" xmlns="http://www.w3.org/2000/svg" viewBox="0 0 100 100"><title>l11_4_1</title><path d="M100,50v25a25,25,0,0,1-25,25H50a50,50,0,1,1,50-50ZM51.71,9.36a5.54,5.54,0,0,0-5.54,5.54V50.65h-23a5.55,5.55,0,0,0,0,11.09H51.71a5.54,5.54,0,0,0,5.54-5.55V14.9A5.54,5.54,0,0,0,51.71,9.36Zm-5.11,73h7.45a3.57,3.57,0,0,0,2.47-.73,2.62,2.62,0,0,0,.82-2,2.55,2.55,0,0,0-.82-2,3.62,3.62,0,0,0-2.47-.72H46.6c-2.19,0-3.29.92-3.29,2.74S44.41,82.38,46.6,82.38Zm32.45-20H63.52a3.9,3.9,0,0,0-2.62.74,2.79,2.79,0,0,0-.83,2.2,2.71,2.71,0,0,0,.81,2.14,4,4,0,0,0,2.64.71h9.9L63.24,85.51a3.77,3.77,0,0,0-.56,1.9,2.92,2.92,0,0,0,1.07,2.28,3.65,3.65,0,0,0,2.46.93,3.41,3.41,0,0,0,1.68-.45,3.79,3.79,0,0,0,1.37-1.41l12-20.8A5.06,5.06,0,0,0,82,65.35a3.09,3.09,0,0,0-.77-2.16A2.83,2.83,0,0,0,79.05,62.33Z"/></svg>