<svg id="Layer_1" data-name="Layer 1" xmlns="http://www.w3.org/2000/svg" viewBox="0 0 100 100"><title>l11_2_1</title><path d="M89.51,80h-79A10.49,10.49,0,0,1,0,69.51V39.19A10.49,10.49,0,0,1,10.49,28.71h79A10.49,10.49,0,0,1,100,39.19V69.51A10.49,10.49,0,0,1,89.51,80ZM14.14,66.38a7.94,7.94,0,0,0,6.8-3.17c1.56-2.1,2.35-5.15,2.35-9.14s-.79-7-2.37-9.11a7.94,7.94,0,0,0-6.78-3.17A8,8,0,0,0,7.34,45Q5,48.11,5,54.07t2.34,9.14A8,8,0,0,0,14.14,66.38Zm0-4.73a2.44,2.44,0,0,1-2.35-1.77,17.07,17.07,0,0,1-.71-5.81,17,17,0,0,1,.71-5.8,2.45,2.45,0,0,1,4.7,0,17,17,0,0,1,.71,5.78,17.07,17.07,0,0,1-.71,5.81A2.44,2.44,0,0,1,14.14,61.65Zm20.4,4.73a7.94,7.94,0,0,0,6.8-3.17q2.34-3.15,2.34-9.14c0-4-.78-7-2.36-9.11a7.94,7.94,0,0,0-6.78-3.17A7.94,7.94,0,0,0,27.74,45c-1.56,2.1-2.35,5.14-2.35,9.11s.79,7,2.35,9.14A7.94,7.94,0,0,0,34.54,66.38Zm0-4.73a2.44,2.44,0,0,1-2.35-1.77,17.07,17.07,0,0,1-.71-5.81,17,17,0,0,1,.71-5.8,2.44,2.44,0,0,1,4.69,0,16.64,16.64,0,0,1,.72,5.78,16.76,16.76,0,0,1-.72,5.81A2.42,2.42,0,0,1,34.54,61.65Zm14.82-6a3.14,3.14,0,0,0,2.33-1,3.41,3.41,0,0,0,0-4.7,3.14,3.14,0,0,0-2.33-1A3.18,3.18,0,0,0,47,50a3.41,3.41,0,0,0,0,4.7A3.18,3.18,0,0,0,49.36,55.6Zm0,10.67a3.11,3.11,0,0,0,2.33-1,3.4,3.4,0,0,0,0-4.69,3.14,3.14,0,0,0-2.33-1,3.18,3.18,0,0,0-2.36,1,3.4,3.4,0,0,0,0,4.69A3.14,3.14,0,0,0,49.36,66.27Zm14.82.11A7.94,7.94,0,0,0,71,63.21q2.35-3.15,2.35-9.14T71,45a8,8,0,0,0-6.79-3.17A8,8,0,0,0,57.38,45Q55,48.11,55,54.07t2.34,9.14A8,8,0,0,0,64.18,66.38Zm0-4.73a2.43,2.43,0,0,1-2.34-1.77,16.82,16.82,0,0,1-.71-5.81,16.71,16.71,0,0,1,.71-5.8,2.44,2.44,0,0,1,4.69,0,16.64,16.64,0,0,1,.72,5.78,16.76,16.76,0,0,1-.72,5.81A2.44,2.44,0,0,1,64.18,61.65Zm20.4,4.73a7.94,7.94,0,0,0,6.8-3.17q2.36-3.15,2.35-9.14T91.37,45a8,8,0,0,0-6.79-3.17A8,8,0,0,0,77.78,45q-2.34,3.15-2.34,9.11t2.34,9.14A8,8,0,0,0,84.58,66.38Zm0-4.73a2.43,2.43,0,0,1-2.34-1.77,16.76,16.76,0,0,1-.72-5.81,16.66,16.66,0,0,1,.72-5.8,2.44,2.44,0,0,1,4.69,0,16.7,16.7,0,0,1,.71,5.78,16.82,16.82,0,0,1-.71,5.81A2.44,2.44,0,0,1,84.58,61.65Z"/></svg>