<svg id="Layer_1" data-name="Layer 1" xmlns="http://www.w3.org/2000/svg" viewBox="0 0 100 100"><title>l11_1_1</title><path d="M89.72,75.81h-79A10.48,10.48,0,0,1,.21,65.32V35A10.48,10.48,0,0,1,10.69,24.52h79A10.49,10.49,0,0,1,100.21,35V65.32A10.49,10.49,0,0,1,89.72,75.81ZM14.35,62.19A8,8,0,0,0,21.15,59q2.34-3.15,2.34-9.14c0-4-.78-7-2.36-9.11a8,8,0,0,0-6.78-3.17,7.94,7.94,0,0,0-6.8,3.17Q5.2,43.92,5.2,49.88T7.55,59A7.94,7.94,0,0,0,14.35,62.19Zm0-4.73A2.44,2.44,0,0,1,12,55.69a17.07,17.07,0,0,1-.71-5.81,17,17,0,0,1,.71-5.8,2.44,2.44,0,0,1,4.69,0,16.64,16.64,0,0,1,.72,5.78,16.76,16.76,0,0,1-.72,5.81A2.42,2.42,0,0,1,14.35,57.46Zm24.71-7.92a5.54,5.54,0,0,0,2.71-2.06,5.69,5.69,0,0,0,1-3.28,6,6,0,0,0-1-3.47,6.74,6.74,0,0,0-3-2.31,11.34,11.34,0,0,0-4.44-.82,13.49,13.49,0,0,0-4,.62,11.07,11.07,0,0,0-3.46,1.7,2.8,2.8,0,0,0-.81.91A2.66,2.66,0,0,0,25.77,42a2.77,2.77,0,0,0,.58,1.79,1.74,1.74,0,0,0,1.43.73,2.3,2.3,0,0,0,.85-.15,11.24,11.24,0,0,0,1-.5l.71-.34a17.8,17.8,0,0,1,1.85-.81A5,5,0,0,1,34,42.43a3,3,0,0,1,2.07.7,2.53,2.53,0,0,1,.75,1.95A1.9,1.9,0,0,1,36,46.82a5.24,5.24,0,0,1-2.72.54h-1.5a1.91,1.91,0,0,0-1.59.72,2.58,2.58,0,0,0-.58,1.7,2.62,2.62,0,0,0,.58,1.7,1.93,1.93,0,0,0,1.59.71h2.11a5.09,5.09,0,0,1,2.79.58,2.12,2.12,0,0,1,.85,1.9,2.38,2.38,0,0,1-.83,2,4.72,4.72,0,0,1-2.74.61A6.16,6.16,0,0,1,32,57a17.16,17.16,0,0,1-2-.84L29.6,56l-.33-.16c-.43-.22-.77-.39-1-.49a2.26,2.26,0,0,0-.85-.15A1.77,1.77,0,0,0,26,56a2.79,2.79,0,0,0-.57,1.78,2.82,2.82,0,0,0,.23,1.18,2.79,2.79,0,0,0,.82.93A11,11,0,0,0,30,61.56a15.31,15.31,0,0,0,4.25.59,12.88,12.88,0,0,0,4.81-.83A7.2,7.2,0,0,0,42.23,59a6.48,6.48,0,0,0,0-7.31A5.76,5.76,0,0,0,39.06,49.54Zm10.51,1.87a3.16,3.16,0,0,0,2.33-.95,3.43,3.43,0,0,0,0-4.7,3.37,3.37,0,0,0-4.69,0,3.41,3.41,0,0,0,0,4.7A3.18,3.18,0,0,0,49.57,51.41Zm0,10.67a3.12,3.12,0,0,0,2.33-.95,3.2,3.2,0,0,0,.93-2.34,3.24,3.24,0,0,0-.93-2.35,3.37,3.37,0,0,0-4.69,0,3.21,3.21,0,0,0-.94,2.35,3.23,3.23,0,0,0,3.3,3.29Zm14.82.11A7.94,7.94,0,0,0,71.19,59q2.36-3.15,2.35-9.14t-2.37-9.11a7.94,7.94,0,0,0-6.78-3.17,8,8,0,0,0-6.8,3.17q-2.34,3.15-2.34,9.11T57.59,59A8,8,0,0,0,64.39,62.19Zm0-4.73a2.42,2.42,0,0,1-2.34-1.77,16.76,16.76,0,0,1-.72-5.81,16.66,16.66,0,0,1,.72-5.8,2.42,2.42,0,0,1,2.34-1.75,2.44,2.44,0,0,1,2.35,1.77,17,17,0,0,1,.71,5.78,17.07,17.07,0,0,1-.71,5.81A2.44,2.44,0,0,1,64.39,57.46Zm20.4,4.73A7.94,7.94,0,0,0,91.59,59q2.35-3.15,2.35-9.14t-2.37-9.11a7.94,7.94,0,0,0-6.78-3.17A8,8,0,0,0,78,40.77q-2.34,3.15-2.34,9.11T78,59A8,8,0,0,0,84.79,62.19Zm0-4.73a2.42,2.42,0,0,1-2.34-1.77,16.76,16.76,0,0,1-.72-5.81,16.66,16.66,0,0,1,.72-5.8,2.42,2.42,0,0,1,2.34-1.75,2.44,2.44,0,0,1,2.35,1.77,17,17,0,0,1,.71,5.78,17.07,17.07,0,0,1-.71,5.81A2.44,2.44,0,0,1,84.79,57.46Z"/></svg>