<svg id="Layer_1" data-name="Layer 1" xmlns="http://www.w3.org/2000/svg" viewBox="0 0 100 100"><title>l11_4_1</title><path d="M100,50v25a25,25,0,0,1-25,25H50a50,50,0,1,1,50-50ZM51.71,9.36a5.54,5.54,0,0,0-5.54,5.54V50.65h-23a5.55,5.55,0,0,0,0,11.09H51.71a5.54,5.54,0,0,0,5.54-5.55V14.9A5.54,5.54,0,0,0,51.71,9.36Zm5.92,67.16h-5v-5a2.29,2.29,0,0,0-2.34-2.34,2.25,2.25,0,0,0-1.66.67A2.27,2.27,0,0,0,48,71.53v5H43a2.25,2.25,0,0,0-1.66.67,2.27,2.27,0,0,0-.67,1.67,2.31,2.31,0,0,0,.67,1.68,2.23,2.23,0,0,0,1.66.69h5v5a2.37,2.37,0,0,0,4,1.66,2.31,2.31,0,0,0,.65-1.66v-5h5a2.25,2.25,0,0,0,1.67-.69A2.31,2.31,0,0,0,60,78.86a2.29,2.29,0,0,0-2.34-2.34Zm23.81,8h-8l5.62-5.74a18.45,18.45,0,0,0,3.31-4.46,10,10,0,0,0,1-4.42,7.29,7.29,0,0,0-1.2-4.14A7.79,7.79,0,0,0,78.75,63a12.72,12.72,0,0,0-5.15-1,16.1,16.1,0,0,0-8.76,2.69,2.67,2.67,0,0,0-1,1,3.8,3.8,0,0,0,.42,3.55,2,2,0,0,0,1.66.89A2.27,2.27,0,0,0,66.7,70a4.42,4.42,0,0,0,.82-.38l.61-.33.79-.4a20.82,20.82,0,0,1,2.24-1,6.54,6.54,0,0,1,2.12-.34,3.1,3.1,0,0,1,2.2.72,2.67,2.67,0,0,1,.77,2.06q0,2.3-2.61,5l-8.4,8.75a4.35,4.35,0,0,0-1.35,3.09,3,3,0,0,0,.83,2.16,3,3,0,0,0,2.26.86H81.44a4,4,0,0,0,2.6-.72,2.74,2.74,0,0,0,.85-2.22A2.67,2.67,0,0,0,84,85.17,4.1,4.1,0,0,0,81.44,84.48Z"/></svg>