<svg id="Layer_1" data-name="Layer 1" xmlns="http://www.w3.org/2000/svg" viewBox="0 0 100 100"><title>l11_1_1</title><path d="M100.21,50v25a25,25,0,0,1-24.95,25H50.21a50,50,0,1,1,50-50ZM51.92,9.36a5.54,5.54,0,0,0-5.54,5.54V50.65h-23a5.55,5.55,0,0,0,0,11.09H51.92a5.54,5.54,0,0,0,5.54-5.55V14.9A5.54,5.54,0,0,0,51.92,9.36Zm-3.7,71a3.2,3.2,0,0,0,1.67-1.25,3.72,3.72,0,0,0,.6-2.12A3.53,3.53,0,0,0,49,74a6.66,6.66,0,0,0-4-1.09A6.69,6.69,0,0,0,41,74a3.78,3.78,0,0,0-.89,5,3.43,3.43,0,0,0,1.7,1.31,3.58,3.58,0,0,0-2,1.26,3.72,3.72,0,0,0-.7,2.32,3.68,3.68,0,0,0,1.58,3.16A7.33,7.33,0,0,0,45,88.21a7.35,7.35,0,0,0,4.32-1.13,3.73,3.73,0,0,0-1.1-6.74ZM45,85.26q-2.31,0-2.31-1.65c0-1.11.77-1.66,2.31-1.66s2.31.55,2.31,1.66S46.54,85.26,45,85.26Zm0-9.42a2.3,2.3,0,0,1,1.42.37,1.45,1.45,0,0,1,.47,1.2,1.48,1.48,0,0,1-.47,1.21,2.84,2.84,0,0,1-2.84,0,1.48,1.48,0,0,1-.47-1.21,1.45,1.45,0,0,1,.47-1.2A2.3,2.3,0,0,1,45,75.84Zm20.45,1.51a4.3,4.3,0,0,0-1.9.42,3.09,3.09,0,0,0-1.3,1.17,1.62,1.62,0,0,0-.56-1.13,2,2,0,0,0-1.31-.42,1.89,1.89,0,0,0-1.35.48,1.67,1.67,0,0,0-.49,1.26V90.27a1.56,1.56,0,0,0,.53,1.22,2,2,0,0,0,1.4.48,1.93,1.93,0,0,0,1.33-.45,1.5,1.5,0,0,0,.51-1.19v-3.6a3.28,3.28,0,0,0,1.31,1.08,4.15,4.15,0,0,0,1.83.4,4.37,4.37,0,0,0,2.4-.66,4.44,4.44,0,0,0,1.62-1.87,6.52,6.52,0,0,0,.59-2.84A6.67,6.67,0,0,0,69.47,80,4.53,4.53,0,0,0,67.84,78,4.26,4.26,0,0,0,65.45,77.35Zm-1.14,8a1.82,1.82,0,0,1-1.53-.67,3,3,0,0,1-.53-1.92,3.12,3.12,0,0,1,.53-2,2,2,0,0,1,3,0,3.15,3.15,0,0,1,.53,2,3,3,0,0,1-.52,1.89A1.77,1.77,0,0,1,64.31,85.39Zm20.81-8a4,4,0,0,0-2,.5,4,4,0,0,0-1.42,1.34,3,3,0,0,0-3-1.84,3.54,3.54,0,0,0-3.18,1.57A1.44,1.44,0,0,0,75,77.78a2,2,0,0,0-1.25-.39,2.12,2.12,0,0,0-1.34.44,1.48,1.48,0,0,0-.56,1.26v7.34a1.57,1.57,0,0,0,.54,1.3,2.28,2.28,0,0,0,2.69,0,1.57,1.57,0,0,0,.54-1.3v-4.2A2.28,2.28,0,0,1,76,80.76a1.44,1.44,0,0,1,1.17-.53,1.09,1.09,0,0,1,.87.34,1.83,1.83,0,0,1,.3,1.19v4.67a1.57,1.57,0,0,0,.54,1.3,2.31,2.31,0,0,0,2.71,0,1.59,1.59,0,0,0,.53-1.3v-4.2a2.28,2.28,0,0,1,.44-1.47,1.5,1.5,0,0,1,1.19-.53,1.12,1.12,0,0,1,.87.34,1.83,1.83,0,0,1,.3,1.19v4.67a1.57,1.57,0,0,0,.54,1.3,2.28,2.28,0,0,0,2.69,0,1.54,1.54,0,0,0,.54-1.3V81.85a5.13,5.13,0,0,0-.93-3.47A3.37,3.37,0,0,0,85.12,77.35Z"/></svg>