<svg id="Layer_1" data-name="Layer 1" xmlns="http://www.w3.org/2000/svg" viewBox="0 0 100 100"><title>l11_1_1</title><path d="M100.21,50v25a25,25,0,0,1-24.95,25H50.21a50,50,0,1,1,50-50ZM51.92,9.36a5.54,5.54,0,0,0-5.54,5.54V50.65h-23a5.55,5.55,0,0,0,0,11.09H51.92a5.54,5.54,0,0,0,5.54-5.55V14.9A5.54,5.54,0,0,0,51.92,9.36ZM40.13,84.94H38.39v-10A1.77,1.77,0,0,0,36.51,73a3.65,3.65,0,0,0-1.77.53l-3.39,2a1.44,1.44,0,0,0-.74,1.32A1.77,1.77,0,0,0,31,78a1.26,1.26,0,0,0,1,.52,1.46,1.46,0,0,0,.74-.21l1.7-1v7.66H32.77a2.09,2.09,0,0,0-1.4.39,1.39,1.39,0,0,0-.44,1.14c0,1,.61,1.57,1.84,1.57h7.36c1.23,0,1.85-.52,1.85-1.57a1.4,1.4,0,0,0-.45-1.14A2.07,2.07,0,0,0,40.13,84.94Zm8.24,3.29a5,5,0,0,0,4.24-2,9.53,9.53,0,0,0,1.46-5.71,9.38,9.38,0,0,0-1.47-5.68,5,5,0,0,0-4.23-2,5,5,0,0,0-4.25,2,9.45,9.45,0,0,0-1.46,5.68,9.53,9.53,0,0,0,1.46,5.71A5,5,0,0,0,48.37,88.23Zm0-3a1.53,1.53,0,0,1-1.47-1.1,10.51,10.51,0,0,1-.45-3.63,10.4,10.4,0,0,1,.45-3.62,1.53,1.53,0,0,1,2.93,0,10.47,10.47,0,0,1,.44,3.61,10.56,10.56,0,0,1-.44,3.63A1.53,1.53,0,0,1,48.37,85.28Zm20.45-7.93a4.24,4.24,0,0,0-1.9.42,3.12,3.12,0,0,0-1.31,1.17,1.62,1.62,0,0,0-.56-1.13,2,2,0,0,0-1.3-.42,1.86,1.86,0,0,0-1.35.48,1.68,1.68,0,0,0-.5,1.26V90.27a1.59,1.59,0,0,0,.53,1.22,2,2,0,0,0,1.4.48,2,2,0,0,0,1.34-.45,1.5,1.5,0,0,0,.51-1.19v-3.6A3.25,3.25,0,0,0,67,87.81a4.17,4.17,0,0,0,1.84.4,4.3,4.3,0,0,0,4-2.53,6.52,6.52,0,0,0,.58-2.84A6.67,6.67,0,0,0,72.84,80,4.55,4.55,0,0,0,71.2,78,4.23,4.23,0,0,0,68.82,77.35Zm-1.15,8a1.84,1.84,0,0,1-1.53-.67,3,3,0,0,1-.53-1.92,3.12,3.12,0,0,1,.53-2,1.82,1.82,0,0,1,1.51-.68,1.8,1.8,0,0,1,1.51.69,3.22,3.22,0,0,1,.53,2,3,3,0,0,1-.52,1.89A1.8,1.8,0,0,1,67.67,85.39Zm20.82-8a4,4,0,0,0-2,.5,3.89,3.89,0,0,0-1.42,1.34,3,3,0,0,0-3-1.84,3.56,3.56,0,0,0-3.18,1.57,1.41,1.41,0,0,0-.52-1.14,1.94,1.94,0,0,0-1.24-.39,2.16,2.16,0,0,0-1.35.44,1.51,1.51,0,0,0-.56,1.26v7.34a1.57,1.57,0,0,0,.54,1.3,2.29,2.29,0,0,0,2.7,0,1.57,1.57,0,0,0,.54-1.3v-4.2a2.28,2.28,0,0,1,.43-1.47,1.46,1.46,0,0,1,1.18-.53,1.12,1.12,0,0,1,.87.34,1.83,1.83,0,0,1,.3,1.19v4.67a1.57,1.57,0,0,0,.54,1.3,2.09,2.09,0,0,0,1.35.44A2,2,0,0,0,85,87.73a1.56,1.56,0,0,0,.53-1.3v-4.2a2.23,2.23,0,0,1,.45-1.47,1.48,1.48,0,0,1,1.19-.53,1.12,1.12,0,0,1,.87.34,1.84,1.84,0,0,1,.29,1.19v4.67a1.57,1.57,0,0,0,.55,1.3,2.28,2.28,0,0,0,2.69,0,1.57,1.57,0,0,0,.54-1.3V81.85a5.13,5.13,0,0,0-.93-3.47A3.39,3.39,0,0,0,88.49,77.35Z"/></svg>