<svg id="Layer_1" data-name="Layer 1" xmlns="http://www.w3.org/2000/svg" viewBox="0 0 100 100"><title>l11_5_1</title><path d="M100,50v25a25,25,0,0,1-25,25H50a50,50,0,1,1,50-50ZM51.71,9.36a5.54,5.54,0,0,0-5.54,5.54V50.65h-23a5.55,5.55,0,0,0,0,11.09H51.71a5.54,5.54,0,0,0,5.54-5.55V14.9A5.54,5.54,0,0,0,51.71,9.36Zm11,58.22h-13a3.24,3.24,0,0,0-2.19.62,2.33,2.33,0,0,0-.7,1.85,2.24,2.24,0,0,0,.68,1.79,3.3,3.3,0,0,0,2.21.6H58L49.42,87.05A3.13,3.13,0,0,0,49,88.64a2.46,2.46,0,0,0,.9,1.92,3.06,3.06,0,0,0,2.06.78A2.84,2.84,0,0,0,53.33,91a3,3,0,0,0,1.14-1.18L64.55,72.31a4.18,4.18,0,0,0,.64-2.2,2.61,2.61,0,0,0-.65-1.81A2.36,2.36,0,0,0,62.69,67.58Zm16.14,6.69a7.24,7.24,0,0,0-3,.6,5.89,5.89,0,0,0-2.23,1.76V70a2.33,2.33,0,0,0-.79-1.86,3.08,3.08,0,0,0-2.1-.7,3.17,3.17,0,0,0-2.2.75,2.45,2.45,0,0,0-.83,1.91V88.51a2.6,2.6,0,0,0,.8,2,3.1,3.1,0,0,0,2.16.73,3.15,3.15,0,0,0,2.17-.73,2.59,2.59,0,0,0,.79-2V81.92a3.21,3.21,0,0,1,.79-2.28,2.74,2.74,0,0,1,2.11-.85c1.37,0,2.06.8,2.06,2.4v7.32a2.6,2.6,0,0,0,.8,2,3.56,3.56,0,0,0,4.32,0,2.56,2.56,0,0,0,.8-2V81.32a8.33,8.33,0,0,0-1.4-5.3A5.1,5.1,0,0,0,78.83,74.27Z"/></svg>