<svg id="Layer_1" data-name="Layer 1" xmlns="http://www.w3.org/2000/svg" viewBox="0 0 100 100"><title>l11_2_1</title><path d="M89.77,80.08h-79A10.49,10.49,0,0,1,.26,69.59V39.27A10.49,10.49,0,0,1,10.74,28.78h79a10.49,10.49,0,0,1,10.49,10.49V69.59A10.49,10.49,0,0,1,89.77,80.08ZM21.59,61.18H18.8V45.07A3,3,0,0,0,18,42.86a3,3,0,0,0-2.2-.82,5.73,5.73,0,0,0-2.82.85L7.51,46.05a2.32,2.32,0,0,0-1.19,2.11A2.86,2.86,0,0,0,7,50a2.05,2.05,0,0,0,1.63.84,2.36,2.36,0,0,0,1.19-.34l2.72-1.6V61.18H9.79a3.37,3.37,0,0,0-2.24.61,2.28,2.28,0,0,0-.72,1.84c0,1.68,1,2.51,3,2.51h11.8c2,0,3-.83,3-2.51a2.28,2.28,0,0,0-.72-1.84A3.37,3.37,0,0,0,21.59,61.18Zm19.51,0H34.27l4.83-4.93a16.23,16.23,0,0,0,2.84-3.82,8.66,8.66,0,0,0,.83-3.79,6.26,6.26,0,0,0-1-3.56,6.66,6.66,0,0,0-2.94-2.38,11,11,0,0,0-4.42-.83,13.28,13.28,0,0,0-3.93.61,13.44,13.44,0,0,0-3.58,1.7,2.26,2.26,0,0,0-.84.89,3,3,0,0,0-.22,1.22,2.91,2.91,0,0,0,.58,1.82,1.73,1.73,0,0,0,1.43.76,2,2,0,0,0,.64-.1,3.79,3.79,0,0,0,.7-.32l.53-.29.68-.34A15.68,15.68,0,0,1,32.28,47a5.31,5.31,0,0,1,1.82-.29,2.7,2.7,0,0,1,1.89.61,2.3,2.3,0,0,1,.66,1.77q0,2-2.25,4.31l-7.2,7.52A3.73,3.73,0,0,0,26,63.56a2.54,2.54,0,0,0,.71,1.85,2.59,2.59,0,0,0,1.94.73H41.1a3.41,3.41,0,0,0,2.23-.61,2.33,2.33,0,0,0,.73-1.9,2.22,2.22,0,0,0-.73-1.85A3.47,3.47,0,0,0,41.1,61.18Zm8.54-5.51a3.1,3.1,0,0,0,2.32-1A3.4,3.4,0,0,0,52,50a3.1,3.1,0,0,0-2.32-1,3.16,3.16,0,0,0-2.37,1,3.42,3.42,0,0,0,0,4.69A3.16,3.16,0,0,0,49.64,55.67Zm0,10.68A3.14,3.14,0,0,0,52,65.4a3.41,3.41,0,0,0,0-4.7,3.14,3.14,0,0,0-2.32-1,3.2,3.2,0,0,0-2.37,1,3.43,3.43,0,0,0,0,4.7A3.2,3.2,0,0,0,49.64,66.35Zm14.82.1a8,8,0,0,0,6.8-3.16q2.34-3.16,2.34-9.15c0-4-.78-7-2.36-9.11a8,8,0,0,0-6.78-3.16A7.93,7.93,0,0,0,57.66,45q-2.35,3.16-2.35,9.11t2.35,9.15A7.93,7.93,0,0,0,64.46,66.45Zm0-4.73A2.43,2.43,0,0,1,62.11,60a17.14,17.14,0,0,1-.71-5.82,16.9,16.9,0,0,1,.71-5.79,2.44,2.44,0,0,1,4.69,0,16.68,16.68,0,0,1,.72,5.78A16.83,16.83,0,0,1,66.8,60,2.41,2.41,0,0,1,64.46,61.72Zm20.4,4.73a8,8,0,0,0,6.8-3.16Q94,60.13,94,54.14c0-4-.78-7-2.36-9.11a8,8,0,0,0-6.78-3.16A7.93,7.93,0,0,0,78.06,45q-2.36,3.16-2.35,9.11t2.35,9.15A7.93,7.93,0,0,0,84.86,66.45Zm0-4.73A2.43,2.43,0,0,1,82.51,60a17.14,17.14,0,0,1-.71-5.82,16.9,16.9,0,0,1,.71-5.79,2.44,2.44,0,0,1,4.69,0,16.68,16.68,0,0,1,.72,5.78A16.83,16.83,0,0,1,87.2,60,2.41,2.41,0,0,1,84.86,61.72Z"/></svg>