<svg id="Layer_1" data-name="Layer 1" xmlns="http://www.w3.org/2000/svg" viewBox="0 0 100 100"><title>l11_5_1</title><path d="M89.72,77.63h-79A10.49,10.49,0,0,1,.21,67.14V36.82A10.49,10.49,0,0,1,10.69,26.33h79a10.49,10.49,0,0,1,10.49,10.49V67.14A10.49,10.49,0,0,1,89.72,77.63ZM14.33,64a7.93,7.93,0,0,0,6.8-3.16q2.34-3.17,2.34-9.15c0-4-.78-7-2.36-9.11a7.93,7.93,0,0,0-6.78-3.16,7.93,7.93,0,0,0-6.8,3.16C6,44.69,5.18,47.73,5.18,51.69s.79,7,2.35,9.15A7.93,7.93,0,0,0,14.33,64Zm0-4.72A2.44,2.44,0,0,1,12,57.51a17.14,17.14,0,0,1-.71-5.82A16.93,16.93,0,0,1,12,45.9a2.44,2.44,0,0,1,4.69,0,16.68,16.68,0,0,1,.72,5.78,16.83,16.83,0,0,1-.72,5.82A2.42,2.42,0,0,1,14.33,59.28Zm26.72-.55H34.22l4.83-4.93A15.87,15.87,0,0,0,41.88,50a8.53,8.53,0,0,0,.84-3.79,6.28,6.28,0,0,0-1-3.56,6.66,6.66,0,0,0-2.94-2.38,11,11,0,0,0-4.42-.83,13.28,13.28,0,0,0-3.93.61,13.44,13.44,0,0,0-3.58,1.7,2.26,2.26,0,0,0-.84.89,3,3,0,0,0-.22,1.22,2.91,2.91,0,0,0,.58,1.82,1.73,1.73,0,0,0,1.43.76,2,2,0,0,0,.64-.1,3.79,3.79,0,0,0,.7-.32l.53-.29.68-.34a15.68,15.68,0,0,1,1.92-.83,5.56,5.56,0,0,1,1.82-.29,2.66,2.66,0,0,1,1.88.61,2.27,2.27,0,0,1,.67,1.77q0,2-2.25,4.32l-7.2,7.51A3.73,3.73,0,0,0,26,61.11,2.54,2.54,0,0,0,26.7,63a2.6,2.6,0,0,0,1.94.74H41.05a3.41,3.41,0,0,0,2.23-.62,2.32,2.32,0,0,0,.73-1.9,2.22,2.22,0,0,0-.73-1.85A3.47,3.47,0,0,0,41.05,58.73Zm8.54-5.51a3.1,3.1,0,0,0,2.32-.95,3.4,3.4,0,0,0,0-4.69,3.14,3.14,0,0,0-2.32-.95,3.19,3.19,0,0,0-2.37.95,3.42,3.42,0,0,0,0,4.69A3.15,3.15,0,0,0,49.59,53.22Zm0,10.68A3.14,3.14,0,0,0,51.91,63a3.21,3.21,0,0,0,.94-2.35,3.17,3.17,0,0,0-.94-2.34,3.11,3.11,0,0,0-2.32-1,3.16,3.16,0,0,0-2.37,1,3.2,3.2,0,0,0-.93,2.34A3.24,3.24,0,0,0,47.22,63,3.19,3.19,0,0,0,49.59,63.9Zm14.82.1a8,8,0,0,0,6.8-3.16q2.34-3.17,2.34-9.15c0-4-.78-7-2.36-9.11a8,8,0,0,0-6.78-3.16,7.93,7.93,0,0,0-6.8,3.16q-2.36,3.16-2.35,9.11t2.35,9.15A7.93,7.93,0,0,0,64.41,64Zm0-4.72a2.44,2.44,0,0,1-2.35-1.77,17.14,17.14,0,0,1-.71-5.82,16.93,16.93,0,0,1,.71-5.79,2.44,2.44,0,0,1,4.69,0,16.68,16.68,0,0,1,.72,5.78,16.83,16.83,0,0,1-.72,5.82A2.42,2.42,0,0,1,64.41,59.28ZM84.81,64a8,8,0,0,0,6.8-3.16Q94,57.68,94,51.69c0-4-.78-7-2.36-9.11a8,8,0,0,0-6.78-3.16A7.93,7.93,0,0,0,78,42.58q-2.36,3.16-2.35,9.11T78,60.84A7.93,7.93,0,0,0,84.81,64Zm0-4.72a2.44,2.44,0,0,1-2.35-1.77,17.14,17.14,0,0,1-.71-5.82,16.93,16.93,0,0,1,.71-5.79,2.44,2.44,0,0,1,4.69,0,16.68,16.68,0,0,1,.72,5.78,16.83,16.83,0,0,1-.72,5.82A2.43,2.43,0,0,1,84.81,59.28Z"/></svg>