<svg id="Layer_1" data-name="Layer 1" xmlns="http://www.w3.org/2000/svg" viewBox="0 0 100 100"><title>l11_1_1</title><path d="M89.51,76.92h-79A10.49,10.49,0,0,1,0,66.43V36.11A10.49,10.49,0,0,1,10.49,25.63h79A10.49,10.49,0,0,1,100,36.11V66.43A10.49,10.49,0,0,1,89.51,76.92ZM14.14,63.3a7.94,7.94,0,0,0,6.8-3.17C22.5,58,23.29,55,23.29,51s-.79-7-2.37-9.11a7.93,7.93,0,0,0-6.78-3.16,8,8,0,0,0-6.8,3.16C5.78,44,5,47,5,51s.79,7,2.35,9.14A8,8,0,0,0,14.14,63.3Zm0-4.73a2.44,2.44,0,0,1-2.35-1.77A17.07,17.07,0,0,1,11.08,51a17,17,0,0,1,.71-5.8,2.45,2.45,0,0,1,4.7,0A17,17,0,0,1,17.2,51a17.07,17.07,0,0,1-.71,5.81A2.44,2.44,0,0,1,14.14,58.57Zm24.72-7.92a5.56,5.56,0,0,0,2.7-2.06,5.61,5.61,0,0,0,1-3.28,6,6,0,0,0-1-3.47,6.74,6.74,0,0,0-3-2.31,11.33,11.33,0,0,0-4.43-.81,13.54,13.54,0,0,0-4,.61A11.12,11.12,0,0,0,26.62,41a2.66,2.66,0,0,0-.82.92,2.6,2.6,0,0,0-.24,1.19,2.82,2.82,0,0,0,.58,1.78,1.75,1.75,0,0,0,1.43.73,2.26,2.26,0,0,0,.85-.15c.25-.1.59-.27,1-.49l.71-.34A17.23,17.23,0,0,1,32,43.85a5.2,5.2,0,0,1,1.78-.31,3,3,0,0,1,2.08.7,2.59,2.59,0,0,1,.74,2,1.89,1.89,0,0,1-.85,1.73,5.21,5.21,0,0,1-2.72.54H31.55a1.93,1.93,0,0,0-1.6.72,2.58,2.58,0,0,0-.58,1.7,2.62,2.62,0,0,0,.58,1.7,2,2,0,0,0,1.6.71h2.11a5,5,0,0,1,2.78.58,2.12,2.12,0,0,1,.85,1.9,2.35,2.35,0,0,1-.83,2,4.72,4.72,0,0,1-2.74.61,6.25,6.25,0,0,1-1.95-.28,15.54,15.54,0,0,1-2-.84l-.42-.18L29.07,57c-.44-.22-.78-.39-1-.49a2.3,2.3,0,0,0-.85-.15,1.74,1.74,0,0,0-1.43.73,2.76,2.76,0,0,0-.58,1.78A2.67,2.67,0,0,0,25.43,60a2.75,2.75,0,0,0,.81.93,11,11,0,0,0,3.54,1.72,15.36,15.36,0,0,0,4.25.59,12.65,12.65,0,0,0,4.81-.83A7.2,7.2,0,0,0,42,60.07a5.92,5.92,0,0,0,1.12-3.61A6,6,0,0,0,42,52.76,5.83,5.83,0,0,0,38.86,50.65Zm10.5,1.87a3.14,3.14,0,0,0,2.33-1,3.25,3.25,0,0,0,.94-2.35,3.21,3.21,0,0,0-.94-2.34,3.11,3.11,0,0,0-2.33-1,3.15,3.15,0,0,0-2.36,1,3.21,3.21,0,0,0-.94,2.34A3.25,3.25,0,0,0,47,51.57,3.18,3.18,0,0,0,49.36,52.52Zm0,10.67a3.11,3.11,0,0,0,2.33-.95,3.21,3.21,0,0,0,.94-2.34,3.25,3.25,0,0,0-.94-2.35,3.14,3.14,0,0,0-2.33-.95,3.18,3.18,0,0,0-2.36.95,3.25,3.25,0,0,0-.94,2.35A3.21,3.21,0,0,0,47,62.24,3.14,3.14,0,0,0,49.36,63.19Zm14.82.11A7.94,7.94,0,0,0,71,60.13Q73.33,57,73.33,51c0-4-.79-7-2.36-9.11a8,8,0,0,0-6.79-3.16,8,8,0,0,0-6.8,3.16C55.82,44,55,47,55,51s.78,7,2.34,9.14A8,8,0,0,0,64.18,63.3Zm0-4.73a2.43,2.43,0,0,1-2.34-1.77A16.76,16.76,0,0,1,61.12,51a16.66,16.66,0,0,1,.72-5.8,2.44,2.44,0,0,1,4.69,0A16.73,16.73,0,0,1,67.24,51a16.82,16.82,0,0,1-.71,5.81A2.44,2.44,0,0,1,64.18,58.57Zm20.4,4.73a7.94,7.94,0,0,0,6.8-3.17Q93.74,57,93.73,51c0-4-.79-7-2.36-9.11a8,8,0,0,0-6.79-3.16,8,8,0,0,0-6.8,3.16C76.22,44,75.44,47,75.44,51s.78,7,2.34,9.14A8,8,0,0,0,84.58,63.3Zm0-4.73a2.43,2.43,0,0,1-2.34-1.77A16.76,16.76,0,0,1,81.52,51a16.66,16.66,0,0,1,.72-5.8,2.44,2.44,0,0,1,4.69,0A16.73,16.73,0,0,1,87.64,51a16.82,16.82,0,0,1-.71,5.81A2.44,2.44,0,0,1,84.58,58.57Z"/></svg>