<svg id="Layer_1" data-name="Layer 1" xmlns="http://www.w3.org/2000/svg" viewBox="0 0 100 100"><title>l11_4_1</title><path d="M100,50v25a25,25,0,0,1-25,25H50a50,50,0,1,1,50-50ZM51.71,9.36a5.54,5.54,0,0,0-5.54,5.54V50.65h-23a5.55,5.55,0,0,0,0,11.09H51.71a5.54,5.54,0,0,0,5.54-5.55V14.9A5.54,5.54,0,0,0,51.71,9.36Zm5.94,67.16h-5v-5a2.29,2.29,0,0,0-2.34-2.34,2.25,2.25,0,0,0-1.66.67A2.27,2.27,0,0,0,48,71.53v5H43a2.25,2.25,0,0,0-1.66.67,2.27,2.27,0,0,0-.67,1.67,2.31,2.31,0,0,0,.67,1.68,2.23,2.23,0,0,0,1.66.69h5v5a2.37,2.37,0,0,0,4,1.66,2.31,2.31,0,0,0,.65-1.66v-5h5a2.25,2.25,0,0,0,1.67-.69A2.31,2.31,0,0,0,60,78.86a2.29,2.29,0,0,0-2.34-2.34ZM82.1,62.33H66.57a3.9,3.9,0,0,0-2.62.74,2.79,2.79,0,0,0-.83,2.2,2.71,2.71,0,0,0,.81,2.14,4,4,0,0,0,2.64.71h9.9L66.29,85.51a3.77,3.77,0,0,0-.56,1.9,2.92,2.92,0,0,0,1.07,2.28,3.67,3.67,0,0,0,2.46.93,3.41,3.41,0,0,0,1.68-.45,3.72,3.72,0,0,0,1.37-1.41l12-20.8a5.06,5.06,0,0,0,.75-2.61,3.09,3.09,0,0,0-.77-2.16A2.83,2.83,0,0,0,82.1,62.33Z"/></svg>