<svg id="Layer_1" data-name="Layer 1" xmlns="http://www.w3.org/2000/svg" viewBox="0 0 100 100"><title>l11_2_1</title><path d="M100,50v25a25,25,0,0,1-25,25H50a50,50,0,1,1,50-50ZM51.71,9.36a5.54,5.54,0,0,0-5.54,5.54V50.65h-23a5.55,5.55,0,0,0,0,11.09H51.71a5.54,5.54,0,0,0,5.54-5.55V14.9A5.54,5.54,0,0,0,51.71,9.36ZM36.92,84.94H35.18v-10A1.77,1.77,0,0,0,33.29,73a3.62,3.62,0,0,0-1.76.53l-3.4,2a1.46,1.46,0,0,0-.74,1.32A1.77,1.77,0,0,0,27.81,78a1.29,1.29,0,0,0,1,.52,1.43,1.43,0,0,0,.74-.21l1.7-1v7.66H29.55a2.11,2.11,0,0,0-1.4.39,1.43,1.43,0,0,0-.44,1.14c0,1,.61,1.57,1.84,1.57h7.37c1.23,0,1.84-.52,1.84-1.57a1.43,1.43,0,0,0-.44-1.14A2.11,2.11,0,0,0,36.92,84.94Zm12.17,0H44.83l3-3.07a9.75,9.75,0,0,0,1.77-2.39,5.28,5.28,0,0,0,.52-2.37,3.87,3.87,0,0,0-.64-2.21,4.2,4.2,0,0,0-1.84-1.49,6.93,6.93,0,0,0-2.76-.52,8.49,8.49,0,0,0-2.45.38,8.28,8.28,0,0,0-2.24,1.07,1.49,1.49,0,0,0-.52.55,2.09,2.09,0,0,0,.23,1.9,1.08,1.08,0,0,0,.89.47,1.34,1.34,0,0,0,.4-.06,2.67,2.67,0,0,0,.44-.2l.32-.18.43-.21a9.28,9.28,0,0,1,1.2-.52,3.39,3.39,0,0,1,1.13-.18,1.64,1.64,0,0,1,1.18.38,1.4,1.4,0,0,1,.41,1.1,4.12,4.12,0,0,1-1.4,2.7l-4.49,4.68a2.31,2.31,0,0,0-.73,1.66,1.59,1.59,0,0,0,.45,1.16,1.63,1.63,0,0,0,1.21.45h7.74a2.14,2.14,0,0,0,1.39-.38,1.45,1.45,0,0,0,.46-1.19,1.4,1.4,0,0,0-.46-1.16A2.2,2.2,0,0,0,49.09,84.94Zm16.53-7.59a4.27,4.27,0,0,0-1.9.42,3,3,0,0,0-1.3,1.17,1.62,1.62,0,0,0-.56-1.13,2,2,0,0,0-1.31-.42,1.87,1.87,0,0,0-1.35.48,1.67,1.67,0,0,0-.49,1.26V90.27a1.56,1.56,0,0,0,.53,1.22,2,2,0,0,0,1.4.48A1.93,1.93,0,0,0,62,91.52a1.5,1.5,0,0,0,.51-1.19v-3.6a3.28,3.28,0,0,0,1.31,1.08,4.12,4.12,0,0,0,1.83.4,4.28,4.28,0,0,0,4-2.53,6.52,6.52,0,0,0,.59-2.84A6.67,6.67,0,0,0,69.64,80,4.53,4.53,0,0,0,68,78,4.26,4.26,0,0,0,65.62,77.35Zm-1.14,8A1.82,1.82,0,0,1,63,84.72a3,3,0,0,1-.53-1.92,3.06,3.06,0,0,1,.53-2,2,2,0,0,1,3,0,3.22,3.22,0,0,1,.53,2A3,3,0,0,1,66,84.73,1.77,1.77,0,0,1,64.48,85.39Zm20.81-8a4,4,0,0,0-2,.5,4,4,0,0,0-1.42,1.34,3,3,0,0,0-3-1.84,3.54,3.54,0,0,0-3.18,1.57,1.44,1.44,0,0,0-.52-1.14,2,2,0,0,0-1.24-.39,2.12,2.12,0,0,0-1.35.44A1.48,1.48,0,0,0,72,79.09v7.34a1.57,1.57,0,0,0,.54,1.3,2.28,2.28,0,0,0,2.69,0,1.57,1.57,0,0,0,.54-1.3v-4.2a2.28,2.28,0,0,1,.44-1.47,1.44,1.44,0,0,1,1.17-.53,1.09,1.09,0,0,1,.87.34,1.83,1.83,0,0,1,.3,1.19v4.67a1.57,1.57,0,0,0,.54,1.3,2.31,2.31,0,0,0,2.71,0,1.59,1.59,0,0,0,.53-1.3v-4.2a2.28,2.28,0,0,1,.44-1.47,1.5,1.5,0,0,1,1.19-.53,1.12,1.12,0,0,1,.87.34,1.83,1.83,0,0,1,.3,1.19v4.67a1.57,1.57,0,0,0,.54,1.3,2.28,2.28,0,0,0,2.69,0,1.54,1.54,0,0,0,.55-1.3V81.85a5.13,5.13,0,0,0-.94-3.47A3.37,3.37,0,0,0,85.29,77.35Z"/></svg>