<svg id="Layer_1" data-name="Layer 1" xmlns="http://www.w3.org/2000/svg" viewBox="0 0 100 100"><title>l11_1_1</title><path d="M89.56,75.81h-79A10.49,10.49,0,0,1,.05,65.32V35A10.49,10.49,0,0,1,10.54,24.52h79A10.48,10.48,0,0,1,100.05,35V65.32A10.48,10.48,0,0,1,89.56,75.81ZM21.38,56.92H18.6V40.8a3,3,0,0,0-.84-2.21,3,3,0,0,0-2.19-.81,5.78,5.78,0,0,0-2.82.84L7.31,41.79a2.29,2.29,0,0,0-1.19,2.1,2.85,2.85,0,0,0,.68,1.86,2.06,2.06,0,0,0,1.63.83,2.29,2.29,0,0,0,1.19-.34l2.72-1.6V56.92H9.59a3.42,3.42,0,0,0-2.25.61,2.3,2.3,0,0,0-.71,1.83c0,1.68,1,2.52,3,2.52H21.38c2,0,3-.84,3-2.52a2.3,2.3,0,0,0-.71-1.83A3.42,3.42,0,0,0,21.38,56.92Zm19.52,0H34.06L38.89,52a15.71,15.71,0,0,0,2.84-3.83,8.49,8.49,0,0,0,.83-3.79,6.22,6.22,0,0,0-1-3.55,6.65,6.65,0,0,0-2.94-2.38,10.89,10.89,0,0,0-4.42-.84,13.25,13.25,0,0,0-3.93.62,12.92,12.92,0,0,0-3.59,1.7,2.21,2.21,0,0,0-.83.88,3.27,3.27,0,0,0,.36,3,1.73,1.73,0,0,0,1.42.77,2.27,2.27,0,0,0,.65-.1,4.25,4.25,0,0,0,.7-.33l.52-.29.68-.34a17.13,17.13,0,0,1,1.92-.83,5.65,5.65,0,0,1,1.82-.29,2.72,2.72,0,0,1,1.89.61,2.3,2.3,0,0,1,.66,1.77c0,1.32-.74,2.76-2.24,4.32L27,56.64a3.74,3.74,0,0,0-1.15,2.66,2.53,2.53,0,0,0,.71,1.85,2.58,2.58,0,0,0,1.94.73H40.9a3.36,3.36,0,0,0,2.22-.61,2.34,2.34,0,0,0,.74-1.91,2.26,2.26,0,0,0-.74-1.85A3.42,3.42,0,0,0,40.9,56.92Zm8.53-5.51a3.14,3.14,0,0,0,2.33-.95,3.41,3.41,0,0,0,0-4.7,3.14,3.14,0,0,0-2.33-.95,3.18,3.18,0,0,0-2.36.95,3.41,3.41,0,0,0,0,4.7A3.18,3.18,0,0,0,49.43,51.41Zm0,10.67a3.11,3.11,0,0,0,2.33-.95,3.21,3.21,0,0,0,.94-2.34,3.25,3.25,0,0,0-.94-2.35,3.14,3.14,0,0,0-2.33-.95,3.18,3.18,0,0,0-2.36.95,3.25,3.25,0,0,0-.94,2.35,3.21,3.21,0,0,0,.94,2.34A3.14,3.14,0,0,0,49.43,62.08Zm14.82.11A7.94,7.94,0,0,0,71.05,59q2.36-3.15,2.35-9.14T71,40.77a8,8,0,0,0-6.79-3.17,8,8,0,0,0-6.8,3.17q-2.34,3.15-2.34,9.11T57.45,59A8,8,0,0,0,64.25,62.19Zm0-4.73a2.43,2.43,0,0,1-2.34-1.77,16.76,16.76,0,0,1-.72-5.81,16.66,16.66,0,0,1,.72-5.8,2.44,2.44,0,0,1,4.69,0,16.7,16.7,0,0,1,.71,5.78,16.82,16.82,0,0,1-.71,5.81A2.44,2.44,0,0,1,64.25,57.46Zm20.4,4.73A7.94,7.94,0,0,0,91.45,59q2.35-3.15,2.35-9.14t-2.36-9.11a8,8,0,0,0-6.79-3.17,8,8,0,0,0-6.8,3.17q-2.34,3.15-2.34,9.11T77.85,59A8,8,0,0,0,84.65,62.19Zm0-4.73a2.43,2.43,0,0,1-2.34-1.77,16.76,16.76,0,0,1-.72-5.81,16.66,16.66,0,0,1,.72-5.8,2.44,2.44,0,0,1,4.69,0,16.7,16.7,0,0,1,.71,5.78A16.82,16.82,0,0,1,87,55.69,2.44,2.44,0,0,1,84.65,57.46Z"/></svg>