<svg id="Layer_1" data-name="Layer 1" xmlns="http://www.w3.org/2000/svg" viewBox="0 0 100 100"><title>l11_1_1</title><path d="M89.51,76.59h-79A10.49,10.49,0,0,1,0,66.1V35.78A10.49,10.49,0,0,1,10.49,25.29h79A10.49,10.49,0,0,1,100,35.78V66.1A10.49,10.49,0,0,1,89.51,76.59ZM21.35,57.69H18.56V41.58a2.84,2.84,0,0,0-3-3,5.73,5.73,0,0,0-2.83.85L7.27,42.56a2.32,2.32,0,0,0-1.19,2.11,2.86,2.86,0,0,0,.68,1.85,2.06,2.06,0,0,0,1.64.84A2.42,2.42,0,0,0,9.59,47l2.72-1.6V57.69H9.55a3.43,3.43,0,0,0-2.24.61,2.28,2.28,0,0,0-.72,1.84c0,1.68,1,2.52,3,2.52h11.8c2,0,3-.84,3-2.52a2.28,2.28,0,0,0-.72-1.84A3.43,3.43,0,0,0,21.35,57.69ZM36.21,47a8.63,8.63,0,0,0-3.37.61V43.41h7.34c2,0,3-.79,3-2.38s-1-2.34-3-2.34H29.64a2.93,2.93,0,0,0-2.14.74,3,3,0,0,0-.75,2.18v9.21a1.85,1.85,0,0,0,.65,1.48,2.32,2.32,0,0,0,1.6.56,3.26,3.26,0,0,0,1.53-.37,12.34,12.34,0,0,1,1.95-.61,8.92,8.92,0,0,1,1.86-.17,3.84,3.84,0,0,1,2.65.85,3,3,0,0,1,.95,2.38A2.93,2.93,0,0,1,37,57.33a4.34,4.34,0,0,1-2.82.77,5.51,5.51,0,0,1-1.89-.31A18.39,18.39,0,0,1,30.39,57l-.68-.34a9.4,9.4,0,0,0-1-.51,2.29,2.29,0,0,0-.85-.14,1.8,1.8,0,0,0-1.43.73,2.84,2.84,0,0,0-.57,1.79,2.52,2.52,0,0,0,.25,1.17,3.11,3.11,0,0,0,.8.94,11.35,11.35,0,0,0,3.49,1.7,14.39,14.39,0,0,0,4.13.61,11.06,11.06,0,0,0,4.86-1A7.71,7.71,0,0,0,42.63,59a8.07,8.07,0,0,0,1.16-4.32,8.26,8.26,0,0,0-1-4A6.9,6.9,0,0,0,40.13,48,7.88,7.88,0,0,0,36.21,47Zm13.15,5.2a3.11,3.11,0,0,0,2.33-1A3.32,3.32,0,0,0,47,46.54a3.42,3.42,0,0,0,0,4.69A3.14,3.14,0,0,0,49.36,52.18Zm0,10.68a3.14,3.14,0,0,0,2.33-1,3.21,3.21,0,0,0,.94-2.35,3.17,3.17,0,0,0-.94-2.34,3.11,3.11,0,0,0-2.33-1,3.15,3.15,0,0,0-2.36,1,3.2,3.2,0,0,0-.93,2.34A3.24,3.24,0,0,0,47,61.91,3.18,3.18,0,0,0,49.36,62.86ZM68.5,50.31a5.52,5.52,0,0,0,2.71-2.05,5.71,5.71,0,0,0,1-3.28,6,6,0,0,0-1-3.47,6.6,6.6,0,0,0-3-2.31,11.17,11.17,0,0,0-4.44-.82,13.59,13.59,0,0,0-4,.61,11.58,11.58,0,0,0-3.45,1.7,2.82,2.82,0,0,0-.81.92,2.63,2.63,0,0,0-.24,1.19,2.79,2.79,0,0,0,.58,1.79,1.77,1.77,0,0,0,1.43.73,2.11,2.11,0,0,0,.85-.16c.25-.1.58-.26,1-.49l.71-.34c.68-.34,1.3-.61,1.85-.82a5.25,5.25,0,0,1,1.79-.3,2.9,2.9,0,0,1,2.07.7,2.52,2.52,0,0,1,.75,2,1.89,1.89,0,0,1-.85,1.73,5.13,5.13,0,0,1-2.72.55h-1.5a1.93,1.93,0,0,0-1.59.71,2.78,2.78,0,0,0,0,3.4,1.91,1.91,0,0,0,1.59.72H63.3a5.19,5.19,0,0,1,2.79.57,2.14,2.14,0,0,1,.85,1.91,2.38,2.38,0,0,1-.83,2,4.72,4.72,0,0,1-2.74.61,6.26,6.26,0,0,1-2-.29A15.89,15.89,0,0,1,59.46,57L59,56.79l-.32-.15c-.43-.23-.77-.39-1-.5a2.26,2.26,0,0,0-.85-.15,1.8,1.8,0,0,0-1.43.73,2.84,2.84,0,0,0-.57,1.79,2.66,2.66,0,0,0,.23,1.17,2.71,2.71,0,0,0,.82.94,11,11,0,0,0,3.54,1.71,15,15,0,0,0,4.25.6,12.72,12.72,0,0,0,4.81-.84,7,7,0,0,0,3.17-2.36,5.91,5.91,0,0,0,1.13-3.6,6,6,0,0,0-1.14-3.71A5.82,5.82,0,0,0,68.5,50.31ZM84.58,63a7.93,7.93,0,0,0,6.8-3.16q2.36-3.16,2.35-9.15t-2.36-9.11a8,8,0,0,0-6.79-3.16,8,8,0,0,0-6.8,3.16q-2.34,3.16-2.34,9.11t2.34,9.15A8,8,0,0,0,84.58,63Zm0-4.72a2.43,2.43,0,0,1-2.34-1.77,16.88,16.88,0,0,1-.71-5.82,16.65,16.65,0,0,1,.71-5.79,2.44,2.44,0,0,1,4.69,0,16.68,16.68,0,0,1,.72,5.78,16.83,16.83,0,0,1-.72,5.82A2.44,2.44,0,0,1,84.58,58.24Z"/></svg>