<svg id="Layer_1" data-name="Layer 1" xmlns="http://www.w3.org/2000/svg" viewBox="0 0 100 100"><title>l11_4_1</title><path d="M100,50v25a25,25,0,0,1-25,25H50a50,50,0,1,1,50-50ZM51.71,9.36a5.54,5.54,0,0,0-5.54,5.54V50.65h-23a5.55,5.55,0,0,0,0,11.09H51.71a5.54,5.54,0,0,0,5.54-5.55V14.9A5.54,5.54,0,0,0,51.71,9.36Zm5.94,67.16h-5v-5a2.29,2.29,0,0,0-2.34-2.34,2.25,2.25,0,0,0-1.66.67A2.27,2.27,0,0,0,48,71.53v5H43a2.25,2.25,0,0,0-1.66.67,2.27,2.27,0,0,0-.67,1.67,2.31,2.31,0,0,0,.67,1.68,2.23,2.23,0,0,0,1.66.69h5v5a2.37,2.37,0,0,0,4,1.66,2.31,2.31,0,0,0,.65-1.66v-5h5a2.25,2.25,0,0,0,1.67-.69A2.31,2.31,0,0,0,60,78.86a2.29,2.29,0,0,0-2.34-2.34Zm22.47-.64a5.94,5.94,0,0,0,3.11-2.33,6.91,6.91,0,0,0,1.12-4A6.53,6.53,0,0,0,81.6,64a12.35,12.35,0,0,0-7.51-2,12.34,12.34,0,0,0-7.48,2,6.53,6.53,0,0,0-2.78,5.56,6.77,6.77,0,0,0,1.11,3.87,6.52,6.52,0,0,0,3.17,2.43,6.62,6.62,0,0,0-3.72,2.36,7,7,0,0,0-1.31,4.34,6.82,6.82,0,0,0,3,5.88c2,1.42,4.66,2.12,8.06,2.12s6.1-.7,8.07-2.12a7,7,0,0,0-2-12.58Zm-6,9.2q-4.31,0-4.31-3.09t4.31-3.09q4.32,0,4.32,3.09T74.09,85.08Zm0-17.6a4.25,4.25,0,0,1,2.66.7,2.69,2.69,0,0,1,.87,2.24,2.73,2.73,0,0,1-.87,2.25,5.26,5.26,0,0,1-5.31,0,2.73,2.73,0,0,1-.87-2.25,2.69,2.69,0,0,1,.87-2.24A4.24,4.24,0,0,1,74.09,67.48Z"/></svg>