<svg id="Layer_1" data-name="Layer 1" xmlns="http://www.w3.org/2000/svg" viewBox="0 0 100 100"><title>l11_1_1</title><path d="M89.51,80h-79A10.49,10.49,0,0,1,0,69.51V39.19A10.49,10.49,0,0,1,10.49,28.71h79A10.49,10.49,0,0,1,100,39.19V69.51A10.49,10.49,0,0,1,89.51,80ZM21.35,61.11H18.56V45a3,3,0,0,0-.83-2.21,3,3,0,0,0-2.2-.82,5.83,5.83,0,0,0-2.82.85L7.27,46a2.31,2.31,0,0,0-1.19,2.1,2.9,2.9,0,0,0,.68,1.86,2.07,2.07,0,0,0,1.64.83,2.26,2.26,0,0,0,1.18-.34l2.72-1.6V61.11H9.55a3.37,3.37,0,0,0-2.24.61,2.27,2.27,0,0,0-.72,1.83c0,1.68,1,2.52,3,2.52h11.8c2,0,3-.84,3-2.52a2.27,2.27,0,0,0-.72-1.83A3.37,3.37,0,0,0,21.35,61.11ZM36.2,50.4a8.44,8.44,0,0,0-3.36.61V46.83h7.34c2,0,3-.8,3-2.38s-1-2.35-3-2.35H29.64a2.89,2.89,0,0,0-2.14.75A2.93,2.93,0,0,0,26.75,45v9.22a1.88,1.88,0,0,0,.65,1.48,2.36,2.36,0,0,0,1.6.56,3.27,3.27,0,0,0,1.53-.38,13.48,13.48,0,0,1,1.95-.61,9.63,9.63,0,0,1,1.85-.17A3.9,3.9,0,0,1,37,56a3,3,0,0,1,.95,2.38,3,3,0,0,1-.92,2.4,4.34,4.34,0,0,1-2.82.76,5.76,5.76,0,0,1-1.89-.3,20,20,0,0,1-1.92-.82l-.68-.34a9.4,9.4,0,0,0-1-.51,2.34,2.34,0,0,0-.85-.13,1.75,1.75,0,0,0-1.43.73,2.79,2.79,0,0,0-.57,1.78,2.47,2.47,0,0,0,.25,1.17,3,3,0,0,0,.8.94,11.41,11.41,0,0,0,3.48,1.7,14.15,14.15,0,0,0,4.13.61,11.07,11.07,0,0,0,4.87-1,7.65,7.65,0,0,0,3.26-2.89,8,8,0,0,0,1.16-4.32,8.28,8.28,0,0,0-1-4,6.87,6.87,0,0,0-2.69-2.71A7.79,7.79,0,0,0,36.2,50.4Zm13.16,5.2a3.14,3.14,0,0,0,2.33-1,3.41,3.41,0,0,0,0-4.7,3.14,3.14,0,0,0-2.33-1A3.18,3.18,0,0,0,47,50a3.41,3.41,0,0,0,0,4.7A3.18,3.18,0,0,0,49.36,55.6Zm0,10.67a3.11,3.11,0,0,0,2.33-1,3.4,3.4,0,0,0,0-4.69,3.14,3.14,0,0,0-2.33-1,3.18,3.18,0,0,0-2.36,1,3.4,3.4,0,0,0,0,4.69A3.14,3.14,0,0,0,49.36,66.27ZM68.5,53.73a5.47,5.47,0,0,0,2.7-2.06,5.61,5.61,0,0,0,1-3.28,6,6,0,0,0-1-3.47,6.67,6.67,0,0,0-3-2.31,11.34,11.34,0,0,0-4.44-.82,13.6,13.6,0,0,0-4,.62,11.12,11.12,0,0,0-3.45,1.7,2.8,2.8,0,0,0-.81.91,2.66,2.66,0,0,0-.24,1.19A2.77,2.77,0,0,0,55.79,48a1.74,1.74,0,0,0,1.42.73,2.31,2.31,0,0,0,.86-.15c.24-.1.58-.27,1-.5l.72-.34a17.8,17.8,0,0,1,1.85-.81,5,5,0,0,1,1.79-.31,2.9,2.9,0,0,1,2.07.7,2.53,2.53,0,0,1,.75,2A1.92,1.92,0,0,1,65.41,51a5.24,5.24,0,0,1-2.72.54h-1.5a2,2,0,0,0-1.6.72A2.62,2.62,0,0,0,59,54a2.66,2.66,0,0,0,.57,1.7,2,2,0,0,0,1.6.71H63.3a5.09,5.09,0,0,1,2.79.58,2.12,2.12,0,0,1,.85,1.9,2.38,2.38,0,0,1-.83,2,4.72,4.72,0,0,1-2.74.61,6,6,0,0,1-2-.29,15.27,15.27,0,0,1-1.95-.83L59,60.2l-.32-.15c-.43-.22-.77-.39-1-.49a2.26,2.26,0,0,0-.85-.15,1.75,1.75,0,0,0-1.43.73,2.8,2.8,0,0,0-.58,1.78,2.6,2.6,0,0,0,.24,1.17,2.62,2.62,0,0,0,.82.94,11.06,11.06,0,0,0,3.53,1.72,15.36,15.36,0,0,0,4.25.59,12.94,12.94,0,0,0,4.82-.83,7.11,7.11,0,0,0,3.17-2.36,5.94,5.94,0,0,0,1.13-3.61,6,6,0,0,0-1.14-3.7A5.76,5.76,0,0,0,68.5,53.73ZM84.58,66.38a7.94,7.94,0,0,0,6.8-3.17q2.36-3.15,2.35-9.14T91.37,45a8,8,0,0,0-6.79-3.17A8,8,0,0,0,77.78,45q-2.34,3.15-2.34,9.11t2.34,9.14A8,8,0,0,0,84.58,66.38Zm0-4.73a2.43,2.43,0,0,1-2.34-1.77,16.76,16.76,0,0,1-.72-5.81,16.66,16.66,0,0,1,.72-5.8,2.44,2.44,0,0,1,4.69,0,16.7,16.7,0,0,1,.71,5.78,16.82,16.82,0,0,1-.71,5.81A2.44,2.44,0,0,1,84.58,61.65Z"/></svg>