<svg id="Layer_1" data-name="Layer 1" xmlns="http://www.w3.org/2000/svg" viewBox="0 0 100 100"><title>l11_4_1</title><path d="M100.38,50v25a25,25,0,0,1-24.95,25H50.38a50,50,0,1,1,50-50ZM52.09,9.36a5.54,5.54,0,0,0-5.54,5.54V50.65h-23a5.55,5.55,0,0,0,0,11.09H52.09a5.55,5.55,0,0,0,5.55-5.55V14.9A5.55,5.55,0,0,0,52.09,9.36ZM40.31,84.94H38.57v-10a1.83,1.83,0,0,0-.52-1.38A1.87,1.87,0,0,0,36.68,73a3.62,3.62,0,0,0-1.76.53l-3.4,2a1.46,1.46,0,0,0-.74,1.32A1.73,1.73,0,0,0,31.21,78a1.26,1.26,0,0,0,1,.52,1.47,1.47,0,0,0,.75-.21l1.69-1v7.66H33a2.07,2.07,0,0,0-1.4.39,1.4,1.4,0,0,0-.45,1.14c0,1,.62,1.57,1.85,1.57h7.36c1.23,0,1.84-.52,1.84-1.57a1.39,1.39,0,0,0-.44-1.14A2.11,2.11,0,0,0,40.31,84.94ZM53.1,82.55h-.47V74.89a1.79,1.79,0,0,0-.57-1.42A2,2,0,0,0,50.68,73a2.09,2.09,0,0,0-.94.22,1.82,1.82,0,0,0-.75.65l-6.07,8.65a2.4,2.4,0,0,0-.47,1.4,1.61,1.61,0,0,0,.45,1.17,1.59,1.59,0,0,0,1.21.47h4.73v.72a1.75,1.75,0,0,0,1.89,1.93,1.92,1.92,0,0,0,1.37-.49,1.84,1.84,0,0,0,.53-1.44v-.72h.47C54.33,85.52,55,85,55,84S54.33,82.55,53.1,82.55Zm-6.81,0,2.55-3.67v3.67ZM69,77.35a4.3,4.3,0,0,0-1.9.42,3.09,3.09,0,0,0-1.3,1.17,1.62,1.62,0,0,0-.56-1.13,2,2,0,0,0-1.31-.42,1.89,1.89,0,0,0-1.35.48,1.67,1.67,0,0,0-.49,1.26V90.27a1.56,1.56,0,0,0,.53,1.22A2,2,0,0,0,64,92a1.93,1.93,0,0,0,1.33-.45,1.5,1.5,0,0,0,.51-1.19v-3.6a3.28,3.28,0,0,0,1.31,1.08,4.15,4.15,0,0,0,1.83.4,4.28,4.28,0,0,0,4-2.53,6.52,6.52,0,0,0,.59-2.84A6.67,6.67,0,0,0,73,80,4.53,4.53,0,0,0,71.38,78,4.26,4.26,0,0,0,69,77.35Zm-1.14,8a1.82,1.82,0,0,1-1.53-.67,3,3,0,0,1-.53-1.92,3.12,3.12,0,0,1,.53-2,2,2,0,0,1,3,0,3.15,3.15,0,0,1,.53,2,3,3,0,0,1-.52,1.89A1.77,1.77,0,0,1,67.85,85.39Zm20.81-8a4,4,0,0,0-3.44,1.84,3,3,0,0,0-3-1.84A3.54,3.54,0,0,0,79,78.92a1.44,1.44,0,0,0-.52-1.14,2,2,0,0,0-1.24-.39,2.12,2.12,0,0,0-1.35.44,1.48,1.48,0,0,0-.56,1.26v7.34a1.57,1.57,0,0,0,.54,1.3,2.28,2.28,0,0,0,2.69,0,1.57,1.57,0,0,0,.54-1.3v-4.2a2.28,2.28,0,0,1,.44-1.47,1.45,1.45,0,0,1,1.18-.53,1.12,1.12,0,0,1,.87.34,1.9,1.9,0,0,1,.29,1.19v4.67a1.57,1.57,0,0,0,.54,1.3,2.31,2.31,0,0,0,2.71,0,1.59,1.59,0,0,0,.53-1.3v-4.2a2.28,2.28,0,0,1,.44-1.47,1.5,1.5,0,0,1,1.19-.53,1.12,1.12,0,0,1,.87.34,1.83,1.83,0,0,1,.3,1.19v4.67a1.57,1.57,0,0,0,.54,1.3,2.09,2.09,0,0,0,1.35.44,2.06,2.06,0,0,0,1.34-.44,1.54,1.54,0,0,0,.55-1.3V81.85a5.13,5.13,0,0,0-.94-3.47A3.37,3.37,0,0,0,88.66,77.35Z"/></svg>