<svg id="Layer_1" data-name="Layer 1" xmlns="http://www.w3.org/2000/svg" viewBox="0 0 100 100"><title>l11_4_1</title><path d="M100,50v25a25,25,0,0,1-25,25H50a50,50,0,1,1,50-50ZM51.71,9.36a5.54,5.54,0,0,0-5.54,5.54V50.65h-23a5.55,5.55,0,0,0,0,11.09H51.71a5.54,5.54,0,0,0,5.54-5.55V14.9A5.54,5.54,0,0,0,51.71,9.36Zm-5.11,73h7.45a3.57,3.57,0,0,0,2.47-.73,2.62,2.62,0,0,0,.82-2,2.55,2.55,0,0,0-.82-2,3.62,3.62,0,0,0-2.47-.72H46.6c-2.19,0-3.29.92-3.29,2.74S44.41,82.38,46.6,82.38Zm30.46-6.5a5.92,5.92,0,0,0,3.12-2.33,6.91,6.91,0,0,0,1.12-4A6.53,6.53,0,0,0,78.55,64,12.35,12.35,0,0,0,71,62a12.34,12.34,0,0,0-7.48,2,6.53,6.53,0,0,0-2.78,5.56,6.77,6.77,0,0,0,1.11,3.87,6.52,6.52,0,0,0,3.17,2.43,6.62,6.62,0,0,0-3.72,2.36A7,7,0,0,0,60,82.58,6.82,6.82,0,0,0,63,88.46c2,1.42,4.66,2.12,8.06,2.12s6.1-.7,8.07-2.12a7,7,0,0,0-2-12.58Zm-6,9.2q-4.32,0-4.32-3.09c0-2.06,1.44-3.1,4.32-3.1s4.32,1,4.32,3.1S73.92,85.08,71,85.08Zm0-17.6a4.25,4.25,0,0,1,2.66.7,2.69,2.69,0,0,1,.87,2.24,2.73,2.73,0,0,1-.87,2.25,5.26,5.26,0,0,1-5.31,0,2.73,2.73,0,0,1-.87-2.25,2.69,2.69,0,0,1,.87-2.24A4.22,4.22,0,0,1,71,67.48Z"/></svg>