<svg id="Layer_1" data-name="Layer 1" xmlns="http://www.w3.org/2000/svg" viewBox="0 0 100 100"><title>l11_4_1</title><path d="M100,50v25a25,25,0,0,1-25,25H50a50,50,0,1,1,50-50ZM51.71,9.36a5.54,5.54,0,0,0-5.54,5.54V50.65h-23a5.55,5.55,0,0,0,0,11.09H51.71a5.54,5.54,0,0,0,5.54-5.55V14.9A5.54,5.54,0,0,0,51.71,9.36Zm5.94,67.16h-5v-5a2.29,2.29,0,0,0-2.34-2.34,2.25,2.25,0,0,0-1.66.67A2.27,2.27,0,0,0,48,71.53v5H43a2.25,2.25,0,0,0-1.66.67,2.27,2.27,0,0,0-.67,1.67,2.31,2.31,0,0,0,.67,1.68,2.23,2.23,0,0,0,1.66.69h5v5a2.37,2.37,0,0,0,4,1.66,2.31,2.31,0,0,0,.65-1.66v-5h5a2.25,2.25,0,0,0,1.67-.69A2.31,2.31,0,0,0,60,78.86a2.29,2.29,0,0,0-2.34-2.34ZM76,72a10,10,0,0,0-3.93.71V67.84h8.56q3.45,0,3.45-2.77c0-1.82-1.15-2.74-3.45-2.74H68.39A3.06,3.06,0,0,0,65,65.74V76.48a2.16,2.16,0,0,0,.75,1.72,2.76,2.76,0,0,0,1.87.66,3.81,3.81,0,0,0,1.78-.44,14,14,0,0,1,2.28-.71,10.18,10.18,0,0,1,2.16-.2,4.48,4.48,0,0,1,3.09,1,3.51,3.51,0,0,1,1.11,2.77A3.46,3.46,0,0,1,77,84.07,5.11,5.11,0,0,1,73.7,85a6.51,6.51,0,0,1-2.2-.36,22.17,22.17,0,0,1-2.24-.95l-.79-.4a11.31,11.31,0,0,0-1.19-.59,2.63,2.63,0,0,0-1-.16,2,2,0,0,0-1.66.85A3.25,3.25,0,0,0,64,85.43a2.92,2.92,0,0,0,.3,1.37,3.56,3.56,0,0,0,.93,1.09,13.25,13.25,0,0,0,4.06,2,16.72,16.72,0,0,0,4.81.71,12.78,12.78,0,0,0,5.67-1.19A8.84,8.84,0,0,0,83.52,86a9.38,9.38,0,0,0,1.35-5,9.57,9.57,0,0,0-1.13-4.69,8,8,0,0,0-3.13-3.17A9.16,9.16,0,0,0,76,72Z"/></svg>