<svg id="Layer_1" data-name="Layer 1" xmlns="http://www.w3.org/2000/svg" viewBox="0 0 100 100"><title>l11_2_1</title><path d="M89.77,79.47h-79A10.48,10.48,0,0,1,.26,69V38.67A10.48,10.48,0,0,1,10.74,28.18h79a10.49,10.49,0,0,1,10.49,10.49V69A10.49,10.49,0,0,1,89.77,79.47ZM20.7,60.58H13.87l4.83-4.93a16.25,16.25,0,0,0,2.84-3.83A8.6,8.6,0,0,0,22.37,48a6.25,6.25,0,0,0-1-3.55,6.66,6.66,0,0,0-2.94-2.38A11,11,0,0,0,14,41.27a13.28,13.28,0,0,0-3.93.61,13.14,13.14,0,0,0-3.58,1.7,2.2,2.2,0,0,0-.83.88,2.9,2.9,0,0,0-.23,1.23A3,3,0,0,0,6,47.51a1.73,1.73,0,0,0,1.43.76,2,2,0,0,0,.65-.1,5,5,0,0,0,.69-.32l.53-.29.68-.34a15.9,15.9,0,0,1,1.92-.84,5.6,5.6,0,0,1,1.82-.28,2.69,2.69,0,0,1,1.89.61,2.27,2.27,0,0,1,.66,1.77q0,2-2.24,4.31L6.8,60.31A3.71,3.71,0,0,0,5.64,63a2.53,2.53,0,0,0,.72,1.85,2.56,2.56,0,0,0,1.93.73H20.7a3.41,3.41,0,0,0,2.23-.61,2.33,2.33,0,0,0,.73-1.9,2.26,2.26,0,0,0-.73-1.86A3.54,3.54,0,0,0,20.7,60.58Zm21.32,0H39.23V44.46a3,3,0,0,0-.83-2.21,3,3,0,0,0-2.19-.81,5.73,5.73,0,0,0-2.83.85l-5.44,3.16a2.32,2.32,0,0,0-1.19,2.11,2.88,2.88,0,0,0,.68,1.85,2,2,0,0,0,1.64.83,2.32,2.32,0,0,0,1.19-.34L33,48.3V60.58H30.22a3.37,3.37,0,0,0-2.24.61A2.28,2.28,0,0,0,27.27,63c0,1.67,1,2.51,2.95,2.51H42c2,0,3-.84,3-2.51a2.28,2.28,0,0,0-.72-1.84A3.37,3.37,0,0,0,42,60.58Zm7.62-5.51a3.14,3.14,0,0,0,2.32-1,3.21,3.21,0,0,0,.94-2.35A3.17,3.17,0,0,0,52,49.43a3.1,3.1,0,0,0-2.32-1,3.15,3.15,0,0,0-2.37,1,3.2,3.2,0,0,0-.93,2.34,3.24,3.24,0,0,0,.93,2.35A3.19,3.19,0,0,0,49.64,55.07Zm0,10.68a3.11,3.11,0,0,0,2.32-1,3.17,3.17,0,0,0,.94-2.34A3.21,3.21,0,0,0,52,60.1a3.14,3.14,0,0,0-2.32-1,3.19,3.19,0,0,0-2.37,1,3.24,3.24,0,0,0-.93,2.35,3.2,3.2,0,0,0,.93,2.34A3.16,3.16,0,0,0,49.64,65.75Zm14.82.1a8,8,0,0,0,6.8-3.16q2.34-3.16,2.34-9.15c0-4-.78-7-2.36-9.11a8,8,0,0,0-6.78-3.16,7.93,7.93,0,0,0-6.8,3.16c-1.57,2.11-2.35,5.14-2.35,9.11s.78,7,2.35,9.15A8,8,0,0,0,64.46,65.85Zm0-4.73a2.44,2.44,0,0,1-2.35-1.77,17,17,0,0,1-.71-5.81,17,17,0,0,1,.71-5.8A2.45,2.45,0,0,1,64.46,46a2.42,2.42,0,0,1,2.34,1.77,16.68,16.68,0,0,1,.72,5.78,16.73,16.73,0,0,1-.72,5.81A2.42,2.42,0,0,1,64.46,61.12Zm20.4,4.73a8,8,0,0,0,6.8-3.16Q94,59.53,94,53.54c0-4-.78-7-2.36-9.11a8,8,0,0,0-6.78-3.16,7.93,7.93,0,0,0-6.8,3.16c-1.57,2.11-2.35,5.14-2.35,9.11s.78,7,2.35,9.15A8,8,0,0,0,84.86,65.85Zm0-4.73a2.44,2.44,0,0,1-2.35-1.77,17,17,0,0,1-.71-5.81,17,17,0,0,1,.71-5.8,2.44,2.44,0,0,1,4.69,0,16.68,16.68,0,0,1,.72,5.78,16.73,16.73,0,0,1-.72,5.81A2.43,2.43,0,0,1,84.86,61.12Z"/></svg>