<svg id="Layer_1" data-name="Layer 1" xmlns="http://www.w3.org/2000/svg" viewBox="0 0 100 100"><title>l11_5_1</title><path d="M100,50v25a25,25,0,0,1-25,25H50a50,50,0,1,1,50-50ZM51.71,9.36a5.54,5.54,0,0,0-5.54,5.54V50.65h-23a5.55,5.55,0,0,0,0,11.09H51.71a5.54,5.54,0,0,0,5.54-5.55V14.9A5.54,5.54,0,0,0,51.71,9.36ZM63,86.18H60.3V70.41a2.89,2.89,0,0,0-.82-2.16,2.94,2.94,0,0,0-2.14-.8,5.7,5.7,0,0,0-2.77.83l-5.32,3.1a2.24,2.24,0,0,0-1.16,2.06,2.81,2.81,0,0,0,.66,1.81,2,2,0,0,0,1.6.82,2.17,2.17,0,0,0,1.16-.34l2.66-1.56v12H51.48a3.34,3.34,0,0,0-2.2.6,2.26,2.26,0,0,0-.69,1.8c0,1.64,1,2.46,2.89,2.46H63c1.93,0,2.9-.82,2.9-2.46a2.23,2.23,0,0,0-.7-1.8A3.34,3.34,0,0,0,63,86.18ZM78.83,74.27a7.24,7.24,0,0,0-3,.6,5.81,5.81,0,0,0-2.23,1.76V70a2.33,2.33,0,0,0-.79-1.86,3.08,3.08,0,0,0-2.1-.7,3.17,3.17,0,0,0-2.2.75,2.45,2.45,0,0,0-.83,1.91V88.51a2.6,2.6,0,0,0,.8,2,3.1,3.1,0,0,0,2.16.73,3.15,3.15,0,0,0,2.17-.73,2.59,2.59,0,0,0,.79-2V81.92a3.21,3.21,0,0,1,.79-2.28,2.74,2.74,0,0,1,2.11-.85c1.37,0,2.06.8,2.06,2.4v7.32a2.6,2.6,0,0,0,.8,2,3.56,3.56,0,0,0,4.32,0,2.56,2.56,0,0,0,.8-2V81.32a8.33,8.33,0,0,0-1.4-5.3A5.1,5.1,0,0,0,78.83,74.27Z"/></svg>