<svg id="Layer_1" data-name="Layer 1" xmlns="http://www.w3.org/2000/svg" viewBox="0 0 100 100"><title>l11_5_1</title><path d="M100,50v25a25,25,0,0,1-25,25H50a50,50,0,1,1,50-50ZM51.71,9.36a5.54,5.54,0,0,0-5.54,5.54V50.65h-23a5.55,5.55,0,0,0,0,11.09H51.71a5.54,5.54,0,0,0,5.54-5.55V14.9A5.54,5.54,0,0,0,51.71,9.36ZM62.14,86.18H55.46l4.72-4.82A15.85,15.85,0,0,0,63,77.61a8.41,8.41,0,0,0,.81-3.71,6.14,6.14,0,0,0-1-3.47,6.5,6.5,0,0,0-2.88-2.33,10.74,10.74,0,0,0-4.32-.82,13,13,0,0,0-3.85.6,13.22,13.22,0,0,0-3.51,1.67,2.11,2.11,0,0,0-.81.86,2.77,2.77,0,0,0-.22,1.2,2.85,2.85,0,0,0,.57,1.78,1.68,1.68,0,0,0,1.39.75,2.2,2.2,0,0,0,.64-.1,4,4,0,0,0,.68-.32l.51-.28.67-.33a15.87,15.87,0,0,1,1.88-.82A5.36,5.36,0,0,1,55.29,72a2.64,2.64,0,0,1,1.85.6,2.23,2.23,0,0,1,.64,1.73q0,1.92-2.19,4.22l-7.05,7.35a3.65,3.65,0,0,0-1.14,2.6,2.5,2.5,0,0,0,.7,1.81A2.53,2.53,0,0,0,50,91H62.14a3.34,3.34,0,0,0,2.18-.6A2.28,2.28,0,0,0,65,88.58a2.21,2.21,0,0,0-.72-1.82A3.4,3.4,0,0,0,62.14,86.18Zm16.7-11.91a7.19,7.19,0,0,0-3,.6,5.81,5.81,0,0,0-2.23,1.76V70a2.34,2.34,0,0,0-.8-1.86,3,3,0,0,0-2.09-.7,3.16,3.16,0,0,0-2.2.75,2.45,2.45,0,0,0-.83,1.91V88.51a2.56,2.56,0,0,0,.8,2,3.56,3.56,0,0,0,4.32,0,2.6,2.6,0,0,0,.8-2V81.92a3.25,3.25,0,0,1,.78-2.28,2.76,2.76,0,0,1,2.11-.85q2.07,0,2.07,2.4v7.32a2.56,2.56,0,0,0,.8,2,3.56,3.56,0,0,0,4.32,0,2.6,2.6,0,0,0,.8-2V81.32A8.39,8.39,0,0,0,83.1,76,5.11,5.11,0,0,0,78.84,74.27Z"/></svg>