<svg id="Layer_1" data-name="Layer 1" xmlns="http://www.w3.org/2000/svg" viewBox="0 0 100 100"><title>l11_5_1</title><path d="M89.51,77.17h-79A10.49,10.49,0,0,1,0,66.69V36.37A10.49,10.49,0,0,1,10.49,25.88h79A10.49,10.49,0,0,1,100,36.37V66.69A10.49,10.49,0,0,1,89.51,77.17ZM14.14,63.55a7.93,7.93,0,0,0,6.8-3.16q2.36-3.16,2.35-9.15t-2.37-9.11A7.93,7.93,0,0,0,14.14,39a8,8,0,0,0-6.8,3.16Q5,45.3,5,51.24t2.34,9.15A8,8,0,0,0,14.14,63.55Zm0-4.73a2.45,2.45,0,0,1-2.35-1.76,17.14,17.14,0,0,1-.71-5.82,16.9,16.9,0,0,1,.71-5.79,2.45,2.45,0,0,1,4.7,0,17,17,0,0,1,.71,5.78,17.14,17.14,0,0,1-.71,5.82A2.45,2.45,0,0,1,14.14,58.82Zm27.71-4.38H41.1V42.16a2.88,2.88,0,0,0-.92-2.27A3.19,3.19,0,0,0,38,39.07a3.39,3.39,0,0,0-1.51.36,3.17,3.17,0,0,0-1.21,1L25.53,54.34a3.79,3.79,0,0,0-.75,2.24,2.59,2.59,0,0,0,.72,1.87,2.53,2.53,0,0,0,1.93.75H35v1.15a2.8,2.8,0,0,0,3,3.1,3.12,3.12,0,0,0,2.21-.78,3,3,0,0,0,.85-2.32V59.2h.75c2,0,3-.81,3-2.42S43.82,54.44,41.85,54.44Zm-10.91,0L35,48.56v5.88Zm18.42-1.67a3.11,3.11,0,0,0,2.33-1,3.4,3.4,0,0,0,0-4.69,3.11,3.11,0,0,0-2.33-1,3.14,3.14,0,0,0-2.36,1,3.4,3.4,0,0,0,0,4.69A3.14,3.14,0,0,0,49.36,52.77Zm0,10.68a3.14,3.14,0,0,0,2.33-1,3.41,3.41,0,0,0,0-4.7,3.14,3.14,0,0,0-2.33-.95A3.18,3.18,0,0,0,47,57.8a3.41,3.41,0,0,0,0,4.7A3.18,3.18,0,0,0,49.36,63.45Zm22.13-9h-.74V42.16a2.88,2.88,0,0,0-.92-2.27,3.19,3.19,0,0,0-2.21-.82,3.35,3.35,0,0,0-1.51.36,3.17,3.17,0,0,0-1.21,1L55.18,54.34a3.79,3.79,0,0,0-.75,2.24,2.62,2.62,0,0,0,.71,1.87,2.55,2.55,0,0,0,1.94.75h7.58v1.15a2.8,2.8,0,0,0,3,3.1,3.16,3.16,0,0,0,2.21-.78,3,3,0,0,0,.85-2.32V59.2h.74c2,0,3-.81,3-2.42S73.47,54.44,71.49,54.44Zm-10.91,0,4.08-5.88v5.88Zm24,9.11a7.93,7.93,0,0,0,6.8-3.16q2.36-3.16,2.35-9.15t-2.36-9.11A8,8,0,0,0,84.58,39a8,8,0,0,0-6.8,3.16q-2.34,3.16-2.34,9.11t2.34,9.15A8,8,0,0,0,84.58,63.55Zm0-4.73a2.43,2.43,0,0,1-2.34-1.76,16.88,16.88,0,0,1-.71-5.82,16.65,16.65,0,0,1,.71-5.79,2.44,2.44,0,0,1,4.69,0,16.73,16.73,0,0,1,.71,5.78,16.88,16.88,0,0,1-.71,5.82A2.45,2.45,0,0,1,84.58,58.82Z"/></svg>