<svg id="Layer_1" data-name="Layer 1" xmlns="http://www.w3.org/2000/svg" viewBox="0 0 100 100"><title>l11_4_1</title><path d="M100,50v25a25,25,0,0,1-25,25H50a50,50,0,1,1,50-50ZM51.71,9.36a5.54,5.54,0,0,0-5.54,5.54V50.65h-23a5.55,5.55,0,0,0,0,11.09H51.71a5.54,5.54,0,0,0,5.54-5.55V14.9A5.54,5.54,0,0,0,51.71,9.36Zm-5.11,73h7.45a3.57,3.57,0,0,0,2.47-.73,2.62,2.62,0,0,0,.82-2,2.55,2.55,0,0,0-.82-2,3.62,3.62,0,0,0-2.47-.72H46.6c-2.19,0-3.29.92-3.29,2.74S44.41,82.38,46.6,82.38Zm29.47-6.5a6.41,6.41,0,0,0,3.15-2.39,6.55,6.55,0,0,0,1.13-3.83,6.91,6.91,0,0,0-1.21-4,7.69,7.69,0,0,0-3.44-2.69,13.21,13.21,0,0,0-5.17-1,16.09,16.09,0,0,0-4.7.71,13.47,13.47,0,0,0-4,2,3.3,3.3,0,0,0-1,1.07,3.15,3.15,0,0,0-.28,1.39,3.25,3.25,0,0,0,.68,2.08,2,2,0,0,0,1.66.85,2.57,2.57,0,0,0,1-.18c.29-.12.69-.31,1.19-.57l.83-.4a22.86,22.86,0,0,1,2.16-1,5.94,5.94,0,0,1,2.08-.36,3.42,3.42,0,0,1,2.42.82,3,3,0,0,1,.87,2.27,2.21,2.21,0,0,1-1,2,6,6,0,0,1-3.17.64H67.56a2.28,2.28,0,0,0-1.87.83,3.12,3.12,0,0,0-.67,2,3.08,3.08,0,0,0,.67,2,2.25,2.25,0,0,0,1.87.83H70a5.93,5.93,0,0,1,3.25.68,2.49,2.49,0,0,1,1,2.22,2.72,2.72,0,0,1-1,2.37,5.46,5.46,0,0,1-3.19.72,7.38,7.38,0,0,1-2.28-.34,17.28,17.28,0,0,1-2.27-1l-.5-.22-.38-.18c-.5-.26-.89-.45-1.18-.57a2.64,2.64,0,0,0-1-.18,2,2,0,0,0-1.67.85,3.24,3.24,0,0,0-.67,2.08,2.79,2.79,0,0,0,1.23,2.46,12.65,12.65,0,0,0,4.12,2,17.62,17.62,0,0,0,5,.69,14.75,14.75,0,0,0,5.6-1,8.26,8.26,0,0,0,3.71-2.75,6.93,6.93,0,0,0,1.31-4.2,7.07,7.07,0,0,0-1.33-4.32A6.77,6.77,0,0,0,76.07,75.88Z"/></svg>