<svg id="Layer_1" data-name="Layer 1" xmlns="http://www.w3.org/2000/svg" viewBox="0 0 100 100"><title>l11_5_1</title><path d="M100,50v25a25,25,0,0,1-25,25H50a50,50,0,1,1,50-50ZM51.71,9.36a5.54,5.54,0,0,0-5.54,5.54V50.65h-23a5.55,5.55,0,0,0,0,11.09H51.71a5.54,5.54,0,0,0,5.54-5.55V14.9A5.54,5.54,0,0,0,51.71,9.36ZM60.2,79a5.37,5.37,0,0,0,2.64-2,5.55,5.55,0,0,0,.95-3.21,5.87,5.87,0,0,0-1-3.4,6.58,6.58,0,0,0-2.9-2.26,11.05,11.05,0,0,0-4.34-.8,13.26,13.26,0,0,0-3.94.6,11,11,0,0,0-3.38,1.67,2.62,2.62,0,0,0-.8.89,2.71,2.71,0,0,0-.23,1.17,2.78,2.78,0,0,0,.56,1.75,1.75,1.75,0,0,0,1.4.71,2.16,2.16,0,0,0,.83-.15c.25-.1.58-.26,1-.48l.7-.33a17.23,17.23,0,0,1,1.81-.8,5.07,5.07,0,0,1,1.75-.3,2.9,2.9,0,0,1,2,.68A2.47,2.47,0,0,1,58,74.6a1.87,1.87,0,0,1-.83,1.7,5.15,5.15,0,0,1-2.66.53H53a1.89,1.89,0,0,0-1.56.7,2.72,2.72,0,0,0,0,3.33,1.92,1.92,0,0,0,1.56.7h2.07a5,5,0,0,1,2.72.56A2.08,2.08,0,0,1,58.67,84a2.32,2.32,0,0,1-.82,2,4.61,4.61,0,0,1-2.68.6,6,6,0,0,1-1.91-.28,14.21,14.21,0,0,1-1.91-.82l-.42-.18-.32-.15q-.63-.33-1-.48a2.19,2.19,0,0,0-.83-.15,1.73,1.73,0,0,0-1.4.71A2.73,2.73,0,0,0,46.82,87a2.57,2.57,0,0,0,.24,1.15,2.63,2.63,0,0,0,.79.91,10.82,10.82,0,0,0,3.46,1.68,14.72,14.72,0,0,0,4.16.58,12.55,12.55,0,0,0,4.71-.81,7,7,0,0,0,3.11-2.31,6.33,6.33,0,0,0,0-7.16A5.72,5.72,0,0,0,60.2,79Zm18.63-4.69a7.24,7.24,0,0,0-3,.6,5.81,5.81,0,0,0-2.23,1.76V70a2.33,2.33,0,0,0-.79-1.86,3.08,3.08,0,0,0-2.1-.7,3.17,3.17,0,0,0-2.2.75,2.45,2.45,0,0,0-.83,1.91V88.51a2.6,2.6,0,0,0,.8,2,3.1,3.1,0,0,0,2.16.73,3.15,3.15,0,0,0,2.17-.73,2.59,2.59,0,0,0,.79-2V81.92a3.21,3.21,0,0,1,.79-2.28,2.74,2.74,0,0,1,2.11-.85c1.37,0,2.06.8,2.06,2.4v7.32a2.6,2.6,0,0,0,.8,2,3.56,3.56,0,0,0,4.32,0,2.56,2.56,0,0,0,.8-2V81.32a8.33,8.33,0,0,0-1.4-5.3A5.1,5.1,0,0,0,78.83,74.27Z"/></svg>