<svg id="Layer_1" data-name="Layer 1" xmlns="http://www.w3.org/2000/svg" viewBox="0 0 100 100"><title>l11_1_1</title><path d="M100,50v25a25,25,0,0,1-25,25H50a50,50,0,1,1,50-50ZM51.71,9.36a5.54,5.54,0,0,0-5.54,5.54V50.65h-23a5.55,5.55,0,0,0,0,11.09H51.71a5.54,5.54,0,0,0,5.54-5.55V14.9A5.54,5.54,0,0,0,51.71,9.36Zm-11,75.58H39v-10a1.83,1.83,0,0,0-.52-1.38A1.87,1.87,0,0,0,37.07,73a3.62,3.62,0,0,0-1.76.53l-3.39,2a1.45,1.45,0,0,0-.75,1.32A1.79,1.79,0,0,0,31.6,78a1.26,1.26,0,0,0,1,.52,1.46,1.46,0,0,0,.74-.21l1.7-1v7.66H33.34a2.09,2.09,0,0,0-1.4.39,1.4,1.4,0,0,0-.45,1.14c0,1,.62,1.57,1.85,1.57H40.7c1.23,0,1.85-.52,1.85-1.57a1.4,1.4,0,0,0-.45-1.14A2.09,2.09,0,0,0,40.7,84.94Zm8.23,3.29a5,5,0,0,0,4.25-2,9.53,9.53,0,0,0,1.46-5.71,9.31,9.31,0,0,0-1.48-5.68,5,5,0,0,0-4.23-2,4.94,4.94,0,0,0-4.24,2,9.38,9.38,0,0,0-1.46,5.68,9.46,9.46,0,0,0,1.46,5.71A5,5,0,0,0,48.93,88.23Zm0-3a1.51,1.51,0,0,1-1.46-1.1A10.47,10.47,0,0,1,47,80.55a10.4,10.4,0,0,1,.45-3.62,1.53,1.53,0,0,1,2.93,0,10.61,10.61,0,0,1,.44,3.6,10.78,10.78,0,0,1-.44,3.63A1.52,1.52,0,0,1,48.93,85.28Zm18.4-7.93a11.29,11.29,0,0,0-2.21.23,7.44,7.44,0,0,0-1.87.62,1.62,1.62,0,0,0-.61.53,1.36,1.36,0,0,0-.19.76,1.48,1.48,0,0,0,.32,1,1,1,0,0,0,.84.38,2.66,2.66,0,0,0,.83-.17A8.31,8.31,0,0,1,67,80.11a1.58,1.58,0,0,1,1.14.33,1.4,1.4,0,0,1,.34,1.07v.25H67.9a15.67,15.67,0,0,0-3.44.3,3.41,3.41,0,0,0-1.85,1,2.65,2.65,0,0,0-.59,1.8,3.19,3.19,0,0,0,.5,1.75,3.43,3.43,0,0,0,1.37,1.21,4.3,4.3,0,0,0,2,.43,3.22,3.22,0,0,0,1.68-.42,2.43,2.43,0,0,0,1-1.19A1.56,1.56,0,0,0,69,87.74a1.75,1.75,0,0,0,1.22.43,1.82,1.82,0,0,0,1.33-.46,1.64,1.64,0,0,0,.48-1.26V82a4.11,4.11,0,0,0-4.73-4.67Zm-.6,8.34a1.05,1.05,0,0,1-.79-.32,1.09,1.09,0,0,1-.31-.81.83.83,0,0,1,.57-.81,5.22,5.22,0,0,1,1.93-.25h.34v.26A2,2,0,0,1,68,85.15,1.6,1.6,0,0,1,66.73,85.69ZM87.5,77.35a4,4,0,0,0-2,.5,3.81,3.81,0,0,0-1.42,1.34,3,3,0,0,0-3-1.84,3.54,3.54,0,0,0-3.18,1.57,1.42,1.42,0,0,0-.52-1.14,2,2,0,0,0-1.24-.39,2.16,2.16,0,0,0-1.35.44,1.51,1.51,0,0,0-.56,1.26v7.34a1.57,1.57,0,0,0,.54,1.3,2.09,2.09,0,0,0,1.35.44,2.06,2.06,0,0,0,1.34-.44,1.54,1.54,0,0,0,.55-1.3v-4.2a2.28,2.28,0,0,1,.43-1.47,1.45,1.45,0,0,1,1.18-.53,1.12,1.12,0,0,1,.87.34,1.83,1.83,0,0,1,.3,1.19v4.67a1.57,1.57,0,0,0,.54,1.3,2.29,2.29,0,0,0,2.7,0,1.59,1.59,0,0,0,.53-1.3v-4.2A2.23,2.23,0,0,1,85,80.76a1.47,1.47,0,0,1,1.19-.53,1.12,1.12,0,0,1,.87.34,1.9,1.9,0,0,1,.29,1.19v4.67a1.57,1.57,0,0,0,.54,1.3,2.29,2.29,0,0,0,2.7,0,1.57,1.57,0,0,0,.54-1.3V81.85a5.13,5.13,0,0,0-.93-3.47A3.41,3.41,0,0,0,87.5,77.35Z"/></svg>