<svg id="Layer_1" data-name="Layer 1" xmlns="http://www.w3.org/2000/svg" viewBox="0 0 100 100"><title>l11_4_1</title><path d="M100,50v25a25,25,0,0,1-25,25H50a50,50,0,1,1,50-50ZM51.71,9.36a5.54,5.54,0,0,0-5.54,5.54V50.65h-23a5.55,5.55,0,0,0,0,11.09H51.71a5.54,5.54,0,0,0,5.54-5.55V14.9A5.54,5.54,0,0,0,51.71,9.36Zm-5.11,73h7.45a3.57,3.57,0,0,0,2.47-.73,2.62,2.62,0,0,0,.82-2,2.55,2.55,0,0,0-.82-2,3.62,3.62,0,0,0-2.47-.72H46.6c-2.19,0-3.29.92-3.29,2.74S44.41,82.38,46.6,82.38ZM73,72a10,10,0,0,0-3.92.71V67.84h8.56q3.45,0,3.45-2.77c0-1.82-1.15-2.74-3.45-2.74H65.34A3.06,3.06,0,0,0,62,65.74V76.48a2.16,2.16,0,0,0,.75,1.72,2.74,2.74,0,0,0,1.87.66,3.81,3.81,0,0,0,1.78-.44,14,14,0,0,1,2.28-.71,10.14,10.14,0,0,1,2.15-.2,4.49,4.49,0,0,1,3.1,1A3.55,3.55,0,0,1,75,81.27a3.44,3.44,0,0,1-1.08,2.8,5.06,5.06,0,0,1-3.28.89,6.47,6.47,0,0,1-2.2-.36,21.25,21.25,0,0,1-2.24-.95l-.79-.4a11.31,11.31,0,0,0-1.19-.59,2.63,2.63,0,0,0-1-.16,2.05,2.05,0,0,0-1.67.85,3.3,3.3,0,0,0-.67,2.08,2.92,2.92,0,0,0,.3,1.37,3.56,3.56,0,0,0,.93,1.09,13.25,13.25,0,0,0,4.06,2,16.72,16.72,0,0,0,4.81.71,12.78,12.78,0,0,0,5.67-1.19A8.89,8.89,0,0,0,80.47,86a9.38,9.38,0,0,0,1.35-5,9.57,9.57,0,0,0-1.13-4.69,8,8,0,0,0-3.13-3.17A9.17,9.17,0,0,0,73,72Z"/></svg>