<svg id="Layer_1" data-name="Layer 1" xmlns="http://www.w3.org/2000/svg" viewBox="0 0 100 100"><title>l11_4_1</title><path d="M100,50v25a25,25,0,0,1-25,25H50a50,50,0,1,1,50-50ZM51.71,9.36a5.54,5.54,0,0,0-5.54,5.54V50.65h-23a5.55,5.55,0,0,0,0,11.09H51.71a5.54,5.54,0,0,0,5.54-5.55V14.9A5.54,5.54,0,0,0,51.71,9.36Zm5.94,67.16h-5v-5a2.29,2.29,0,0,0-2.34-2.34,2.25,2.25,0,0,0-1.66.67A2.27,2.27,0,0,0,48,71.53v5H43a2.25,2.25,0,0,0-1.66.67,2.27,2.27,0,0,0-.67,1.67,2.31,2.31,0,0,0,.67,1.68,2.23,2.23,0,0,0,1.66.69h5v5a2.37,2.37,0,0,0,4,1.66,2.31,2.31,0,0,0,.65-1.66v-5h5a2.25,2.25,0,0,0,1.67-.69A2.31,2.31,0,0,0,60,78.86a2.29,2.29,0,0,0-2.34-2.34Zm18.82-4.64a7.65,7.65,0,0,0-3.35.74,6.14,6.14,0,0,0-2.43,2,10.43,10.43,0,0,1,1.48-5.17,3.79,3.79,0,0,1,3.27-1.85,5.32,5.32,0,0,1,1.82.32c.58.21,1.31.53,2.18,1l.87.44c.51.26.9.45,1.19.57a2.57,2.57,0,0,0,1,.18,2.12,2.12,0,0,0,1.69-.85,3.2,3.2,0,0,0,.69-2.08,2.89,2.89,0,0,0-.3-1.39,3.39,3.39,0,0,0-1-1.07,12.79,12.79,0,0,0-4-2A15.54,15.54,0,0,0,75.08,62a10.72,10.72,0,0,0-6.16,1.78,11.66,11.66,0,0,0-4.08,5.09A19.31,19.31,0,0,0,63.4,76.6q0,6.74,3.05,10.38t8.63,3.64a10.22,10.22,0,0,0,5-1.23A8.82,8.82,0,0,0,83.58,86a10.59,10.59,0,0,0,.16-9.67,8.17,8.17,0,0,0-3-3.25A8,8,0,0,0,76.47,71.88ZM74.65,85A3.17,3.17,0,0,1,72.19,84a4.42,4.42,0,0,1,0-5.45,3.17,3.17,0,0,1,2.48-1,3.13,3.13,0,0,1,2.47,1,4.6,4.6,0,0,1,0,5.49A3.11,3.11,0,0,1,74.65,85Z"/></svg>