<svg id="Layer_1" data-name="Layer 1" xmlns="http://www.w3.org/2000/svg" viewBox="0 0 100 100"><title>l11_5_1</title><path d="M89.51,77.63h-79A10.49,10.49,0,0,1,0,67.14V36.82A10.49,10.49,0,0,1,10.49,26.33h79A10.49,10.49,0,0,1,100,36.82V67.14A10.49,10.49,0,0,1,89.51,77.63ZM14.12,64a7.93,7.93,0,0,0,6.8-3.16q2.35-3.17,2.35-9.15t-2.36-9.11a8,8,0,0,0-6.79-3.16,8,8,0,0,0-6.8,3.16Q5,45.75,5,51.69t2.34,9.15A8,8,0,0,0,14.12,64Zm0-4.72a2.43,2.43,0,0,1-2.34-1.77,16.83,16.83,0,0,1-.72-5.82,16.59,16.59,0,0,1,.72-5.79,2.44,2.44,0,0,1,4.69,0,16.73,16.73,0,0,1,.71,5.78,16.88,16.88,0,0,1-.71,5.82A2.44,2.44,0,0,1,14.12,59.28ZM41.39,39.73H28.06a3.33,3.33,0,0,0-2.24.63,2.82,2.82,0,0,0,0,3.72,3.39,3.39,0,0,0,2.26.61h8.5L27.83,59.62a3.16,3.16,0,0,0-.48,1.63,2.49,2.49,0,0,0,.92,2,3.12,3.12,0,0,0,2.11.8,2.91,2.91,0,0,0,1.44-.39A3.17,3.17,0,0,0,33,62.4l10.3-17.85a4.33,4.33,0,0,0,.65-2.24,2.65,2.65,0,0,0-.66-1.85A2.41,2.41,0,0,0,41.39,39.73Zm8,13.49a3.1,3.1,0,0,0,2.32-.95,3.4,3.4,0,0,0,0-4.69,3.14,3.14,0,0,0-2.32-.95A3.33,3.33,0,0,0,47,52.27,3.16,3.16,0,0,0,49.35,53.22Zm0,10.68A3.14,3.14,0,0,0,51.67,63a3.21,3.21,0,0,0,.94-2.35,3.17,3.17,0,0,0-.94-2.34,3.11,3.11,0,0,0-2.32-1,3.17,3.17,0,0,0-2.37,1,3.2,3.2,0,0,0-.93,2.34A3.24,3.24,0,0,0,47,63,3.2,3.2,0,0,0,49.35,63.9Zm21.14-5.17H63.66l4.83-4.93A16.23,16.23,0,0,0,71.33,50a8.66,8.66,0,0,0,.83-3.79,6.28,6.28,0,0,0-1-3.56,6.66,6.66,0,0,0-2.94-2.38,11,11,0,0,0-4.42-.83,13.28,13.28,0,0,0-3.93.61,13.44,13.44,0,0,0-3.58,1.7,2.26,2.26,0,0,0-.84.89,3,3,0,0,0-.22,1.22,2.91,2.91,0,0,0,.58,1.82,1.73,1.73,0,0,0,1.43.76,2,2,0,0,0,.64-.1,3.79,3.79,0,0,0,.7-.32l.53-.29.68-.34a15.68,15.68,0,0,1,1.92-.83,5.56,5.56,0,0,1,1.82-.29,2.7,2.7,0,0,1,1.89.61A2.3,2.3,0,0,1,66,46.63q0,2-2.25,4.32l-7.2,7.51a3.73,3.73,0,0,0-1.16,2.65A2.54,2.54,0,0,0,56.14,63a2.6,2.6,0,0,0,1.94.74H70.49a3.41,3.41,0,0,0,2.23-.62,2.32,2.32,0,0,0,.73-1.9,2.22,2.22,0,0,0-.73-1.85A3.47,3.47,0,0,0,70.49,58.73ZM84.6,64a7.93,7.93,0,0,0,6.8-3.16q2.35-3.17,2.35-9.15t-2.37-9.11a7.93,7.93,0,0,0-6.78-3.16,8,8,0,0,0-6.8,3.16q-2.34,3.16-2.34,9.11t2.34,9.15A8,8,0,0,0,84.6,64Zm0-4.72a2.42,2.42,0,0,1-2.34-1.77,16.83,16.83,0,0,1-.72-5.82,16.59,16.59,0,0,1,.72-5.79,2.42,2.42,0,0,1,2.34-1.75A2.45,2.45,0,0,1,87,45.91a17,17,0,0,1,.71,5.78A17.14,17.14,0,0,1,87,57.51,2.44,2.44,0,0,1,84.6,59.28Z"/></svg>