<svg id="Layer_1" data-name="Layer 1" xmlns="http://www.w3.org/2000/svg" viewBox="0 0 100 100"><title>l11_5_1</title><path d="M100,50v25a25,25,0,0,1-25,25H50a50,50,0,1,1,50-50ZM51.71,9.36a5.54,5.54,0,0,0-5.54,5.54V50.65h-23a5.55,5.55,0,0,0,0,11.09H51.71a5.54,5.54,0,0,0,5.54-5.55V14.9A5.54,5.54,0,0,0,51.71,9.36Zm6.56,73.06h-.74v-12a2.82,2.82,0,0,0-.89-2.23,3.16,3.16,0,0,0-2.17-.8,3.38,3.38,0,0,0-1.48.35,3.13,3.13,0,0,0-1.18,1L42.3,82.32a3.72,3.72,0,0,0-.73,2.2,2.57,2.57,0,0,0,.69,1.83,2.54,2.54,0,0,0,1.9.73h7.42v1.13a2.93,2.93,0,0,0,.82,2.26,3,3,0,0,0,2.14.77,3.05,3.05,0,0,0,2.16-.77,2.89,2.89,0,0,0,.83-2.26V87.08h.74c1.93,0,2.89-.79,2.89-2.36S60.2,82.42,58.27,82.42Zm-10.68,0,4-5.75v5.75Zm36.13-8.15a6.35,6.35,0,0,0-3.16.78,6,6,0,0,0-2.23,2.11q-1.2-2.89-4.76-2.89a5.58,5.58,0,0,0-5,2.46A2.2,2.2,0,0,0,67.76,75a3,3,0,0,0-1.94-.61,3.3,3.3,0,0,0-2.11.68,2.34,2.34,0,0,0-.89,2V88.51a2.5,2.5,0,0,0,.85,2,3.63,3.63,0,0,0,4.23,0,2.5,2.5,0,0,0,.85-2V81.92a3.48,3.48,0,0,1,.68-2.29,2.24,2.24,0,0,1,1.84-.84,1.71,1.71,0,0,1,1.37.54,2.84,2.84,0,0,1,.46,1.86v7.32a2.5,2.5,0,0,0,.85,2,3.31,3.31,0,0,0,2.12.68,3.25,3.25,0,0,0,2.12-.68,2.49,2.49,0,0,0,.84-2V81.92a3.48,3.48,0,0,1,.69-2.29,2.32,2.32,0,0,1,1.87-.84,1.69,1.69,0,0,1,1.36.54,2.83,2.83,0,0,1,.47,1.86v7.32a2.47,2.47,0,0,0,.85,2,3.61,3.61,0,0,0,4.22,0,2.47,2.47,0,0,0,.85-2V81.32q0-3.82-1.46-5.44A5.36,5.36,0,0,0,83.72,74.27Z"/></svg>