<svg id="Layer_1" data-name="Layer 1" xmlns="http://www.w3.org/2000/svg" viewBox="0 0 100 100"><title>l11_2_1</title><path d="M100,50v25a25,25,0,0,1-25,25H50a50,50,0,1,1,50-50ZM51.71,9.36a5.54,5.54,0,0,0-5.54,5.54V50.65h-23a5.55,5.55,0,0,0,0,11.09H51.71a5.54,5.54,0,0,0,5.54-5.55V14.9A5.54,5.54,0,0,0,51.71,9.36ZM39.93,84.94H38.19v-10A1.77,1.77,0,0,0,36.3,73a3.62,3.62,0,0,0-1.76.53l-3.4,2a1.46,1.46,0,0,0-.74,1.32A1.77,1.77,0,0,0,30.82,78a1.29,1.29,0,0,0,1,.52,1.43,1.43,0,0,0,.74-.21l1.7-1v7.66H32.56a2.11,2.11,0,0,0-1.4.39,1.43,1.43,0,0,0-.44,1.14c0,1,.61,1.57,1.84,1.57h7.37c1.23,0,1.84-.52,1.84-1.57a1.43,1.43,0,0,0-.44-1.14A2.11,2.11,0,0,0,39.93,84.94Zm12.79-2.39h-.47V74.89a1.79,1.79,0,0,0-.57-1.42A2,2,0,0,0,50.3,73a2.09,2.09,0,0,0-.94.22,1.91,1.91,0,0,0-.76.65l-6.06,8.65a2.34,2.34,0,0,0-.47,1.4,1.65,1.65,0,0,0,.44,1.17,1.6,1.6,0,0,0,1.21.47h4.74v.72a1.74,1.74,0,0,0,1.88,1.93,1.93,1.93,0,0,0,1.38-.49,1.84,1.84,0,0,0,.53-1.44v-.72h.47c1.23,0,1.85-.51,1.85-1.51S54,82.55,52.72,82.55Zm-6.81,0,2.55-3.67v3.67Zm22.7-5.2a4.27,4.27,0,0,0-1.9.42,3,3,0,0,0-1.3,1.17,1.63,1.63,0,0,0-.57-1.13,1.93,1.93,0,0,0-1.3-.42,1.86,1.86,0,0,0-1.35.48,1.68,1.68,0,0,0-.5,1.26V90.27a1.59,1.59,0,0,0,.53,1.22,2,2,0,0,0,1.41.48A1.93,1.93,0,0,0,65,91.52a1.5,1.5,0,0,0,.51-1.19v-3.6a3.28,3.28,0,0,0,1.31,1.08,4.12,4.12,0,0,0,1.83.4,4.28,4.28,0,0,0,4-2.53,6.52,6.52,0,0,0,.58-2.84A6.67,6.67,0,0,0,72.63,80,4.53,4.53,0,0,0,71,78,4.26,4.26,0,0,0,68.61,77.35Zm-1.15,8a1.81,1.81,0,0,1-1.52-.67,3,3,0,0,1-.53-1.92,3.06,3.06,0,0,1,.53-2,2,2,0,0,1,3,0,3.22,3.22,0,0,1,.53,2A3,3,0,0,1,69,84.73,1.79,1.79,0,0,1,67.46,85.39Zm20.82-8a4,4,0,0,0-2,.5,4,4,0,0,0-1.42,1.34,3,3,0,0,0-3-1.84,3.54,3.54,0,0,0-3.18,1.57,1.44,1.44,0,0,0-.52-1.14,2,2,0,0,0-1.25-.39,2.12,2.12,0,0,0-1.34.44A1.48,1.48,0,0,0,75,79.09v7.34a1.54,1.54,0,0,0,.54,1.3,2.28,2.28,0,0,0,2.69,0,1.57,1.57,0,0,0,.54-1.3v-4.2a2.28,2.28,0,0,1,.44-1.47,1.44,1.44,0,0,1,1.17-.53,1.09,1.09,0,0,1,.87.34,1.83,1.83,0,0,1,.3,1.19v4.67a1.57,1.57,0,0,0,.54,1.3,2.31,2.31,0,0,0,2.71,0,1.59,1.59,0,0,0,.53-1.3v-4.2a2.28,2.28,0,0,1,.44-1.47,1.5,1.5,0,0,1,1.19-.53,1.12,1.12,0,0,1,.87.34,1.83,1.83,0,0,1,.3,1.19v4.67a1.57,1.57,0,0,0,.54,1.3,2.28,2.28,0,0,0,2.69,0,1.57,1.57,0,0,0,.54-1.3V81.85a5.13,5.13,0,0,0-.93-3.47A3.39,3.39,0,0,0,88.28,77.35Z"/></svg>