<svg id="Layer_1" data-name="Layer 1" xmlns="http://www.w3.org/2000/svg" viewBox="0 0 150 100"><title>s11_1</title><path d="M123.28,50v25a25,25,0,0,1-25,25h-25a50,50,0,1,1,50-50ZM75,9.36a5.54,5.54,0,0,0-5.54,5.54V50.65h-23a5.55,5.55,0,0,0,0,11.09H75a5.54,5.54,0,0,0,5.54-5.55V14.9A5.54,5.54,0,0,0,75,9.36Zm33.38,60.13h-8.19V61.3a3.84,3.84,0,1,0-7.67,0v8.19H84.32a3.79,3.79,0,0,0-3.84,3.84,3.81,3.81,0,0,0,1.11,2.76,3.63,3.63,0,0,0,2.73,1.14h8.19v8.12a3.88,3.88,0,0,0,6.59,2.73,3.75,3.75,0,0,0,1.08-2.73V77.23h8.19a3.66,3.66,0,0,0,2.73-1.14,3.84,3.84,0,0,0,1.1-2.76,3.77,3.77,0,0,0-3.83-3.84Z"/></svg>