<svg id="Layer_1" data-name="Layer 1" xmlns="http://www.w3.org/2000/svg" viewBox="0 0 150 100"><title>s11_1</title><path d="M79.71,13.84c0,3.07,0,6.15,0,9.22,0,1.33,0,1.36-1.29,1.32a91,91,0,0,1-14.9-1.64c-.54-.1-.77-.28-.55-.86,2.09-5.42,4.63-10.57,8.91-14.65a14.79,14.79,0,0,1,6.6-3.78c1.15-.29,1.23-.23,1.23.94Q79.71,9.12,79.71,13.84Z"/><path d="M79.71,86.1V95c0,.25,0,.51,0,.76,0,.89-.16,1-1,.79a14.49,14.49,0,0,1-6.77-3.79,33.19,33.19,0,0,1-7-10c-.73-1.48-1.33-3-1.94-4.56-.24-.61-.11-.85.54-1a88.52,88.52,0,0,1,12.25-1.5c.81,0,1.62-.1,2.43-.12,1.48,0,1.49,0,1.49,1.42Z"/><path d="M59.57,21.82a44.88,44.88,0,0,1-5.32-1.56,48.33,48.33,0,0,1-5.79-2.34c-1-.53-1.07-.54-.2-1.37a49.4,49.4,0,0,1,9.12-7,46.64,46.64,0,0,1,12.23-5,1.37,1.37,0,0,1,.29-.07c.17,0,.39-.17.5,0s-.11.35-.26.47a20.76,20.76,0,0,0-2.76,2.94A45.44,45.44,0,0,0,60.21,21.1C59.94,21.82,59.92,21.86,59.57,21.82Z"/><path d="M59.52,78.16c.42-.07.52.24.62.53a51.15,51.15,0,0,0,4.18,9A30.21,30.21,0,0,0,70.12,95c.15.13.41.26.29.48s-.42.07-.62,0A46.37,46.37,0,0,1,58.07,90.8a48.56,48.56,0,0,1-10-7.5c-.71-.68-.69-.73.21-1.17a60.36,60.36,0,0,1,10.52-3.81Z"/><path d="M82.37,13.84c0,3.08,0,6.15,0,9.23,0,1.33,0,1.35,1.29,1.32a92.06,92.06,0,0,0,14.9-1.64c.54-.11.77-.28.55-.86C97,16.46,94.49,11.32,90.21,7.24a14.72,14.72,0,0,0-6.6-3.79c-1.15-.29-1.23-.22-1.23.94Q82.37,9.12,82.37,13.84Z"/><path d="M82.37,86.11V95c0,.26,0,.51,0,.76,0,.89.16,1,1,.79a14.41,14.41,0,0,0,6.77-3.79,33,33,0,0,0,7-10c.73-1.49,1.33-3,1.94-4.56.24-.62.11-.86-.54-1a87,87,0,0,0-12.25-1.5c-.81,0-1.62-.11-2.43-.13-1.48,0-1.49,0-1.49,1.42Z"/><path d="M102.51,21.83a49,49,0,0,0,5.32-1.56,48.39,48.39,0,0,0,5.79-2.35c1-.53,1.07-.54.2-1.37a49.4,49.4,0,0,0-9.12-7,46.64,46.64,0,0,0-12.23-5,2.46,2.46,0,0,0-.29-.07c-.17,0-.39-.17-.5,0s.11.35.26.47A21.31,21.31,0,0,1,94.7,7.91a45.62,45.62,0,0,1,7.17,13.2C102.14,21.83,102.16,21.86,102.51,21.83Z"/><path d="M102.56,78.17c-.42-.08-.52.23-.62.52a50.9,50.9,0,0,1-4.18,9A30.6,30.6,0,0,1,92,95c-.15.12-.41.26-.29.47s.42.07.62,0A46,46,0,0,0,104,90.81,49,49,0,0,0,114,83.3c.71-.68.69-.72-.21-1.16a60.36,60.36,0,0,0-10.52-3.81Z"/><path d="M45.46,19.75a86.27,86.27,0,0,0,36.15,7.72,86.06,86.06,0,0,0,35-7.71,46.75,46.75,0,0,1,11.29,29.92,46.81,46.81,0,0,1-11.31,30.5,85.8,85.8,0,0,0-71.14,0A46.56,46.56,0,0,1,34.08,49.79,46.57,46.57,0,0,1,45.46,19.75Zm2.28,40.87A7.28,7.28,0,0,0,54,57.73q2.14-2.9,2.15-8.38T54,41a7.31,7.31,0,0,0-6.22-2.9A7.26,7.26,0,0,0,41.52,41c-1.44,1.93-2.15,4.71-2.15,8.34s.71,6.45,2.15,8.38A7.26,7.26,0,0,0,47.74,60.62Zm0-4.33a2.21,2.21,0,0,1-2.14-1.61,15.41,15.41,0,0,1-.66-5.33A15.24,15.24,0,0,1,45.6,44a2.23,2.23,0,0,1,4.29,0,15.22,15.22,0,0,1,.66,5.29,15.41,15.41,0,0,1-.66,5.33A2.22,2.22,0,0,1,47.74,56.29ZM65.65,38.11a8,8,0,0,0-4,1A6.9,6.9,0,0,0,59,41.77a7.7,7.7,0,0,0-1,3.91,7.84,7.84,0,0,0,.85,3.69,6.44,6.44,0,0,0,2.35,2.55,6.34,6.34,0,0,0,3.37.92,5.93,5.93,0,0,0,2.63-.58,4.86,4.86,0,0,0,1.91-1.57,8.25,8.25,0,0,1-1.16,4.06,3,3,0,0,1-2.57,1.45A4.12,4.12,0,0,1,63.93,56a16.76,16.76,0,0,1-1.71-.75l-.68-.34c-.4-.2-.71-.36-.94-.45a2.13,2.13,0,0,0-.78-.14,1.64,1.64,0,0,0-1.32.67A2.53,2.53,0,0,0,58,56.58a2.21,2.21,0,0,0,.23,1.08,2.7,2.7,0,0,0,.76.85,10,10,0,0,0,3.13,1.55,11.9,11.9,0,0,0,3.57.56,8.4,8.4,0,0,0,4.84-1.4,9.08,9.08,0,0,0,3.21-4,15.21,15.21,0,0,0,1.13-6.09c0-3.53-.8-6.24-2.4-8.15A8.34,8.34,0,0,0,65.65,38.11ZM66,48.42a2.47,2.47,0,0,1-1.95-.8,3.19,3.19,0,0,1-.7-2.16,3.12,3.12,0,0,1,.72-2.15A2.45,2.45,0,0,1,66,42.5a2.49,2.49,0,0,1,1.93.83,3,3,0,0,1,.75,2.13,3.13,3.13,0,0,1-.73,2.15A2.51,2.51,0,0,1,66,48.42Zm14,2.33a2.87,2.87,0,0,0,2.13-.87,3.12,3.12,0,0,0,0-4.3A2.87,2.87,0,0,0,80,44.71a2.9,2.9,0,0,0-2.16.87,3.12,3.12,0,0,0,0,4.3A2.9,2.9,0,0,0,80,50.75Zm0,9.78a2.87,2.87,0,0,0,2.13-.87,3.12,3.12,0,0,0,0-4.3A2.87,2.87,0,0,0,80,54.49a3,3,0,1,0,0,6Zm13.58.09a7.26,7.26,0,0,0,6.22-2.89C101.24,55.8,102,53,102,49.35s-.72-6.41-2.16-8.34a8.12,8.12,0,0,0-12.44,0q-2.14,2.9-2.15,8.34t2.15,8.38A7.28,7.28,0,0,0,93.58,60.62Zm0-4.33a2.22,2.22,0,0,1-2.15-1.61,15.41,15.41,0,0,1-.66-5.33A15.24,15.24,0,0,1,91.43,44a2.23,2.23,0,0,1,4.29,0,15.22,15.22,0,0,1,.66,5.29,15.41,15.41,0,0,1-.66,5.33A2.21,2.21,0,0,1,93.58,56.29Zm18.68,4.33a7.26,7.26,0,0,0,6.22-2.89c1.44-1.93,2.15-4.72,2.15-8.38s-.72-6.41-2.16-8.34A8.12,8.12,0,0,0,106,41q-2.15,2.9-2.15,8.34T106,57.73A7.28,7.28,0,0,0,112.26,60.62Zm0-4.33a2.22,2.22,0,0,1-2.15-1.61,15.46,15.46,0,0,1-.65-5.33,15.29,15.29,0,0,1,.65-5.31,2.24,2.24,0,0,1,4.3,0,15.52,15.52,0,0,1,.65,5.29,15.71,15.71,0,0,1-.65,5.33A2.23,2.23,0,0,1,112.26,56.29Z"/></svg>