<svg id="Layer_1" data-name="Layer 1" xmlns="http://www.w3.org/2000/svg" viewBox="0 0 200 150"><title>g21</title><path d="M51.59,120.67H12.67A10.67,10.67,0,0,1,2,110V43.71A10.68,10.68,0,0,1,12.67,33H51.59A10.68,10.68,0,0,1,62.26,43.71V110A10.67,10.67,0,0,1,51.59,120.67Zm.67-47V49.54a7.15,7.15,0,0,0-7.16-7.16H19.16A7.15,7.15,0,0,0,12,49.54V73.65a7.16,7.16,0,0,0,7.16,7.17H45.1A7.16,7.16,0,0,0,52.26,73.65Zm0,19.37h0a4.79,4.79,0,0,0-4.79-4.8H16.79A4.79,4.79,0,0,0,12,93h0a4.78,4.78,0,0,0,4.79,4.79H47.47A4.78,4.78,0,0,0,52.26,93Zm0,14.17h0a4.78,4.78,0,0,0-4.79-4.79H16.79A4.78,4.78,0,0,0,12,107.19h0a4.79,4.79,0,0,0,4.79,4.8H47.47A4.79,4.79,0,0,0,52.26,107.19Z"/><path d="M118.85,120.36H79.94a10.67,10.67,0,0,1-10.67-10.67V43.4A10.67,10.67,0,0,1,79.94,32.72h38.91A10.68,10.68,0,0,1,129.53,43.4v66.29A10.68,10.68,0,0,1,118.85,120.36Zm.68-47V49.23a7.17,7.17,0,0,0-7.16-7.17H86.42a7.17,7.17,0,0,0-7.16,7.17V73.34a7.16,7.16,0,0,0,7.16,7.16h26A7.16,7.16,0,0,0,119.53,73.34Zm0,19.36h0a4.79,4.79,0,0,0-4.8-4.79H84.06a4.79,4.79,0,0,0-4.8,4.79h0a4.8,4.8,0,0,0,4.8,4.8h30.67A4.8,4.8,0,0,0,119.53,92.7Zm0,14.18h0a4.8,4.8,0,0,0-4.8-4.8H84.06a4.8,4.8,0,0,0-4.8,4.8h0a4.8,4.8,0,0,0,4.8,4.8h30.67A4.8,4.8,0,0,0,119.53,106.88Z"/><path d="M186.12,120.36H147.21a10.68,10.68,0,0,1-10.68-10.67V43.4a10.68,10.68,0,0,1,10.68-10.68h38.91A10.68,10.68,0,0,1,196.79,43.4v66.29A10.67,10.67,0,0,1,186.12,120.36Zm.68-47V49.23a7.17,7.17,0,0,0-7.17-7.17H153.69a7.16,7.16,0,0,0-7.16,7.17V73.34a7.15,7.15,0,0,0,7.16,7.16h25.94A7.16,7.16,0,0,0,186.8,73.34Zm0,19.36h0a4.79,4.79,0,0,0-4.8-4.79H151.32a4.78,4.78,0,0,0-4.79,4.79h0a4.79,4.79,0,0,0,4.79,4.8H182A4.8,4.8,0,0,0,186.8,92.7Zm0,14.18h0a4.8,4.8,0,0,0-4.8-4.8H151.32a4.79,4.79,0,0,0-4.79,4.8h0a4.79,4.79,0,0,0,4.79,4.8H182A4.8,4.8,0,0,0,186.8,106.88Z"/></svg>