<svg id="Layer_1" data-name="Layer 1" xmlns="http://www.w3.org/2000/svg" viewBox="0 0 100 100"><title>l22_2_1</title><path d="M99.65,61.35V89.53a7.93,7.93,0,0,1-7.94,7.94H63.52a7.94,7.94,0,0,1-7.94-7.94V61.35a7.94,7.94,0,0,1,7.94-7.94H91.71A7.93,7.93,0,0,1,99.65,61.35ZM62,85.92a2.39,2.39,0,0,0,1.77-.64,2.31,2.31,0,0,0,.65-1.73V69.64a2.28,2.28,0,0,0-.65-1.7A2.39,2.39,0,0,0,62,67.3a2.19,2.19,0,0,0-2.36,2.34V83.55A2.19,2.19,0,0,0,62,85.92Zm14.07-7.65,2.81-2.78a1.52,1.52,0,0,0,.46-1.12,1.34,1.34,0,0,0-.46-1.06,1.47,1.47,0,0,0-1.1-.47,1.51,1.51,0,0,0-1.09.47l-2.81,2.8-2.8-2.8a1.53,1.53,0,0,0-1.09-.5,1.37,1.37,0,0,0-1.07.47,1.54,1.54,0,0,0-.47,1.12,1.61,1.61,0,0,0,.44,1.09l2.81,2.78-2.81,2.81a1.51,1.51,0,0,0-.47,1.09,1.49,1.49,0,0,0,.47,1.09,1.6,1.6,0,0,0,1.1.45,1.48,1.48,0,0,0,1.09-.45l2.8-2.8,2.81,2.8a1.54,1.54,0,0,0,2.63-1.09,1.45,1.45,0,0,0-.44-1.09Zm14.69-4.5a6.57,6.57,0,0,0-2.58.47V71.05h5.62c1.51,0,2.26-.61,2.26-1.83s-.75-1.79-2.26-1.79H85.73a2.23,2.23,0,0,0-1.64.57,2.27,2.27,0,0,0-.57,1.67v7A1.41,1.41,0,0,0,84,77.84a1.78,1.78,0,0,0,1.22.43A2.53,2.53,0,0,0,86.41,78a9.15,9.15,0,0,1,1.49-.47,6.87,6.87,0,0,1,1.42-.13,3,3,0,0,1,2,.65,2.32,2.32,0,0,1,.72,1.82,2.24,2.24,0,0,1-.7,1.83,3.34,3.34,0,0,1-2.16.59A4.18,4.18,0,0,1,87.77,82a13.53,13.53,0,0,1-1.47-.62l-.52-.26q-.52-.28-.78-.39a1.74,1.74,0,0,0-.65-.1,1.34,1.34,0,0,0-1.09.55,2.12,2.12,0,0,0-.44,1.37,2,2,0,0,0,.19.9,2.34,2.34,0,0,0,.61.71,8.52,8.52,0,0,0,2.67,1.3,10.89,10.89,0,0,0,3.16.47,8.47,8.47,0,0,0,3.72-.78A5.89,5.89,0,0,0,95.66,83a6.63,6.63,0,0,0,.14-6.38,5.13,5.13,0,0,0-2-2.08A6,6,0,0,0,90.75,73.77Z"/><path d="M44.64,61.1V89.29a7.93,7.93,0,0,1-7.94,7.94H8.52A7.94,7.94,0,0,1,.57,89.29V61.1a8,8,0,0,1,8-7.94H36.7A7.94,7.94,0,0,1,44.64,61.1ZM6,85.67A2.42,2.42,0,0,0,7.75,85a2.29,2.29,0,0,0,.65-1.73V69.4a2.28,2.28,0,0,0-.65-1.71A2.42,2.42,0,0,0,6,67.06a2.37,2.37,0,0,0-1.73.63,2.34,2.34,0,0,0-.63,1.71V83.31A2.36,2.36,0,0,0,4.25,85,2.37,2.37,0,0,0,6,85.67ZM20.05,78l2.81-2.78a1.54,1.54,0,0,0,.47-1.12,1.39,1.39,0,0,0-.47-1.07,1.45,1.45,0,0,0-1.09-.46,1.52,1.52,0,0,0-1.1.46l-2.8,2.81-2.81-2.81A1.52,1.52,0,0,0,14,72.57,1.37,1.37,0,0,0,12.9,73a1.53,1.53,0,0,0-.47,1.12,1.63,1.63,0,0,0,.44,1.09L15.68,78l-2.81,2.81a1.52,1.52,0,0,0,0,2.18,1.59,1.59,0,0,0,1.1.44A1.47,1.47,0,0,0,15.06,83l2.81-2.81L20.67,83a1.53,1.53,0,0,0,1.1.47A1.51,1.51,0,0,0,22.86,83a1.49,1.49,0,0,0,.44-1.09,1.45,1.45,0,0,0-.44-1.09Zm14.69-4.5a6.57,6.57,0,0,0-2.58.47V70.8h5.62C39.29,70.8,40,70.2,40,69s-.75-1.79-2.26-1.79H29.72a2.23,2.23,0,0,0-1.64.57,2.26,2.26,0,0,0-.57,1.66v7A1.45,1.45,0,0,0,28,77.6a1.79,1.79,0,0,0,1.23.43,2.53,2.53,0,0,0,1.17-.29,9,9,0,0,1,1.49-.46,6.93,6.93,0,0,1,1.42-.13,2.91,2.91,0,0,1,2,.65,2.32,2.32,0,0,1,.72,1.82,2.24,2.24,0,0,1-.7,1.83A3.32,3.32,0,0,1,33.2,82a4.18,4.18,0,0,1-1.44-.23,15.87,15.87,0,0,1-1.47-.62l-.52-.26a4.59,4.59,0,0,0-.78-.39,1.73,1.73,0,0,0-.65-.11,1.36,1.36,0,0,0-1.09.56,2.16,2.16,0,0,0-.44,1.37,1.91,1.91,0,0,0,.19.89,2.49,2.49,0,0,0,.61.72,8.74,8.74,0,0,0,2.67,1.3,10.89,10.89,0,0,0,3.16.47A8.47,8.47,0,0,0,37.16,85a5.89,5.89,0,0,0,2.49-2.21,6.19,6.19,0,0,0,.89-3.31,6.32,6.32,0,0,0-.74-3.08,5.35,5.35,0,0,0-2.06-2.08A6,6,0,0,0,34.74,73.53Z"/><path d="M71.61,10.33V38.51a7.93,7.93,0,0,1-7.94,7.94H35.48a7.94,7.94,0,0,1-7.94-7.94V10.33a7.94,7.94,0,0,1,7.94-7.94H63.67A7.93,7.93,0,0,1,71.61,10.33ZM34,34.9a2.43,2.43,0,0,0,1.77-.64,2.31,2.31,0,0,0,.65-1.73V18.62a2.28,2.28,0,0,0-.65-1.7A2.39,2.39,0,0,0,34,16.28a2.19,2.19,0,0,0-2.36,2.34V32.53A2.19,2.19,0,0,0,34,34.9ZM48,27.25l2.81-2.78a1.52,1.52,0,0,0,.46-1.12,1.34,1.34,0,0,0-.46-1.06,1.43,1.43,0,0,0-1.1-.47,1.47,1.47,0,0,0-1.09.47l-2.81,2.8L43,22.29a1.53,1.53,0,0,0-1.09-.5,1.37,1.37,0,0,0-1.07.47,1.54,1.54,0,0,0-.47,1.12,1.61,1.61,0,0,0,.44,1.09l2.81,2.78-2.81,2.81a1.51,1.51,0,0,0-.47,1.09,1.49,1.49,0,0,0,.47,1.09,1.6,1.6,0,0,0,1.1.45A1.48,1.48,0,0,0,43,32.24l2.8-2.8,2.81,2.8a1.54,1.54,0,0,0,2.63-1.09,1.45,1.45,0,0,0-.44-1.09Zm14.69-4.5a6.57,6.57,0,0,0-2.58.47V20h5.62c1.51,0,2.26-.6,2.26-1.82s-.75-1.79-2.26-1.79H57.69a2.23,2.23,0,0,0-1.64.57,2.27,2.27,0,0,0-.57,1.67v7A1.41,1.41,0,0,0,56,26.82a1.78,1.78,0,0,0,1.22.43A2.53,2.53,0,0,0,58.37,27a9.15,9.15,0,0,1,1.49-.47,6.87,6.87,0,0,1,1.42-.13,3,3,0,0,1,2,.65A2.32,2.32,0,0,1,64,28.84a2.24,2.24,0,0,1-.7,1.83,3.34,3.34,0,0,1-2.16.59A4.18,4.18,0,0,1,59.73,31a13.53,13.53,0,0,1-1.47-.62l-.52-.26q-.52-.29-.78-.39a1.73,1.73,0,0,0-.65-.11,1.35,1.35,0,0,0-1.09.56,2.12,2.12,0,0,0-.44,1.37,1.89,1.89,0,0,0,.19.89,2.26,2.26,0,0,0,.61.72,8.52,8.52,0,0,0,2.67,1.3,10.89,10.89,0,0,0,3.16.47,8.47,8.47,0,0,0,3.72-.78A5.89,5.89,0,0,0,67.62,32a6.63,6.63,0,0,0,.14-6.38,5.13,5.13,0,0,0-2.05-2.08A6,6,0,0,0,62.71,22.75Z"/></svg>