<svg id="Layer_1" data-name="Layer 1" xmlns="http://www.w3.org/2000/svg" viewBox="0 0 100 100"><title>l22_1_1</title><path d="M99.65,61.35V89.53a7.93,7.93,0,0,1-7.94,7.94H63.52a7.94,7.94,0,0,1-7.94-7.94V61.35a7.94,7.94,0,0,1,7.94-7.94H91.71A7.93,7.93,0,0,1,99.65,61.35ZM74,74.88h-4V70.93a1.85,1.85,0,1,0-3.7,0v3.95h-4a1.81,1.81,0,0,0-1.85,1.85,1.85,1.85,0,0,0,.53,1.33,1.77,1.77,0,0,0,1.32.55h4v3.92a1.81,1.81,0,0,0,1.85,1.85,1.79,1.79,0,0,0,1.33-.53,1.82,1.82,0,0,0,.52-1.32V78.61h4a1.77,1.77,0,0,0,1.32-.55,1.85,1.85,0,0,0,.53-1.33A1.81,1.81,0,0,0,74,74.88ZM86.24,63.37a8.06,8.06,0,0,0-4,1,7,7,0,0,0-2.74,2.72,8.38,8.38,0,0,0-.13,7.65,6.46,6.46,0,0,0,2.37,2.57,6.28,6.28,0,0,0,3.38.92,6,6,0,0,0,2.65-.58A4.86,4.86,0,0,0,89.72,76a8.24,8.24,0,0,1-1.17,4.09A3,3,0,0,1,86,81.59a4.12,4.12,0,0,1-1.44-.25c-.46-.17-1-.42-1.73-.75l-.69-.35a9.07,9.07,0,0,0-.94-.45,1.94,1.94,0,0,0-.78-.14,1.67,1.67,0,0,0-1.34.67A2.56,2.56,0,0,0,78.5,82a2.25,2.25,0,0,0,.23,1.09,2.62,2.62,0,0,0,.77.85,10.1,10.1,0,0,0,3.15,1.57,12.36,12.36,0,0,0,3.59.56,8.51,8.51,0,0,0,4.88-1.41,9.15,9.15,0,0,0,3.23-4,15.24,15.24,0,0,0,1.14-6.13q0-5.32-2.41-8.21A8.41,8.41,0,0,0,86.24,63.37Zm.35,10.38a2.48,2.48,0,0,1-2-.8,3.18,3.18,0,0,1-.71-2.18,3.13,3.13,0,0,1,.72-2.16,2.45,2.45,0,0,1,2-.82,2.51,2.51,0,0,1,1.94.83,3.1,3.1,0,0,1,.75,2.15,3.13,3.13,0,0,1-.73,2.17A2.54,2.54,0,0,1,86.59,73.75Z"/><path d="M44.64,61.1V89.29a7.93,7.93,0,0,1-7.94,7.94H8.52A7.94,7.94,0,0,1,.57,89.29V61.1a8,8,0,0,1,8-7.94H36.7A7.94,7.94,0,0,1,44.64,61.1ZM18,74.64H14.05v-4a1.85,1.85,0,1,0-3.7,0v4H6.4a1.79,1.79,0,0,0-1.32.53,1.81,1.81,0,0,0-.53,1.32,1.87,1.87,0,0,0,.53,1.33,1.77,1.77,0,0,0,1.32.55h3.95v3.92a1.83,1.83,0,0,0,1.85,1.85,1.78,1.78,0,0,0,1.34-.54,1.81,1.81,0,0,0,.51-1.31V78.37H18a1.75,1.75,0,0,0,1.32-.55,1.83,1.83,0,0,0,.53-1.33A1.81,1.81,0,0,0,18,74.64ZM30.23,63.13a8.06,8.06,0,0,0-4,1,6.93,6.93,0,0,0-2.74,2.71,7.82,7.82,0,0,0-1,3.94,7.9,7.9,0,0,0,.86,3.71A6.47,6.47,0,0,0,25.75,77a6.29,6.29,0,0,0,3.38.93,6,6,0,0,0,2.66-.58,5,5,0,0,0,1.92-1.58,8.27,8.27,0,0,1-1.17,4.09A3,3,0,0,1,30,81.35a4.36,4.36,0,0,1-1.44-.25,18.63,18.63,0,0,1-1.73-.76L26.09,80c-.39-.21-.71-.36-.94-.46a2.13,2.13,0,0,0-.78-.14,1.66,1.66,0,0,0-1.33.68,2.48,2.48,0,0,0-.55,1.64,2.39,2.39,0,0,0,.23,1.1,2.73,2.73,0,0,0,.77.85,9.88,9.88,0,0,0,3.15,1.56,12.1,12.1,0,0,0,3.59.57,8.51,8.51,0,0,0,4.88-1.41,9.08,9.08,0,0,0,3.23-4,15.27,15.27,0,0,0,1.14-6.13c0-3.56-.8-6.29-2.41-8.22A8.43,8.43,0,0,0,30.23,63.13Zm.35,10.38a2.48,2.48,0,0,1-2-.8,3.67,3.67,0,0,1,0-4.35,2.48,2.48,0,0,1,1.95-.81,2.51,2.51,0,0,1,1.94.83,3.51,3.51,0,0,1,0,4.31A2.5,2.5,0,0,1,30.58,73.51Z"/><path d="M71.61,10.33V38.51a7.93,7.93,0,0,1-7.94,7.94H35.48a7.94,7.94,0,0,1-7.94-7.94V10.33a7.94,7.94,0,0,1,7.94-7.94H63.67A7.93,7.93,0,0,1,71.61,10.33ZM46,23.86H42V19.91a1.85,1.85,0,1,0-3.7,0v3.95h-4a1.81,1.81,0,0,0-1.85,1.85A1.85,1.85,0,0,0,33.05,27a1.77,1.77,0,0,0,1.32.55h4v3.92a1.81,1.81,0,0,0,1.85,1.85,1.79,1.79,0,0,0,1.33-.53A1.82,1.82,0,0,0,42,31.51V27.59H46A1.77,1.77,0,0,0,47.29,27a1.85,1.85,0,0,0,.53-1.33A1.81,1.81,0,0,0,46,23.86ZM58.2,12.35a8.06,8.06,0,0,0-4,1A6.93,6.93,0,0,0,51.48,16a7.84,7.84,0,0,0-1,3.94,7.85,7.85,0,0,0,.86,3.72,6.46,6.46,0,0,0,2.37,2.57,6.37,6.37,0,0,0,3.38.92,6,6,0,0,0,2.65-.58A4.86,4.86,0,0,0,61.68,25a8.34,8.34,0,0,1-1.17,4.09,3,3,0,0,1-2.59,1.46,4.12,4.12,0,0,1-1.44-.25c-.46-.17-1-.42-1.73-.75l-.69-.35a10.17,10.17,0,0,0-.94-.45,1.94,1.94,0,0,0-.78-.14A1.67,1.67,0,0,0,51,29.3,2.56,2.56,0,0,0,50.46,31,2.25,2.25,0,0,0,50.69,32a2.62,2.62,0,0,0,.77.85,10.1,10.1,0,0,0,3.15,1.57A12.36,12.36,0,0,0,58.2,35a8.51,8.51,0,0,0,4.88-1.41,9.15,9.15,0,0,0,3.23-4,15.24,15.24,0,0,0,1.14-6.13q0-5.32-2.41-8.22A8.43,8.43,0,0,0,58.2,12.35Zm.35,10.38a2.48,2.48,0,0,1-2-.8,3.18,3.18,0,0,1-.71-2.18,3.13,3.13,0,0,1,.72-2.16,2.45,2.45,0,0,1,1.95-.82,2.51,2.51,0,0,1,1.94.83,3.1,3.1,0,0,1,.75,2.15,3.09,3.09,0,0,1-.73,2.16A2.52,2.52,0,0,1,58.55,22.73Z"/></svg>