<svg id="Layer_1" data-name="Layer 1" xmlns="http://www.w3.org/2000/svg" viewBox="0 0 100 100"><title>l22_5_1</title><path d="M99.61,61.93V90.11a7.94,7.94,0,0,1-7.94,7.94H63.48a7.94,7.94,0,0,1-7.94-7.94V61.93A7.94,7.94,0,0,1,63.48,54H91.67A7.94,7.94,0,0,1,99.61,61.93ZM74.51,81.22,64.42,77.35l10.09-3.88a1.77,1.77,0,0,0,.86-.65,1.75,1.75,0,0,0,.3-1,2.1,2.1,0,0,0-.59-1.54,2,2,0,0,0-1.52-.6,3.33,3.33,0,0,0-1,.2L61.19,74.25a3.36,3.36,0,0,0-1.55,1.24,3.44,3.44,0,0,0,0,3.76,3.21,3.21,0,0,0,1.55,1.19l11.32,4.39a3.33,3.33,0,0,0,1,.2,2,2,0,0,0,1.52-.6,2.1,2.1,0,0,0,.59-1.54,1.72,1.72,0,0,0-.3-1A2.07,2.07,0,0,0,74.51,81.22ZM92.09,74.8a5.6,5.6,0,0,0,2.71-2.06,5.7,5.7,0,0,0,1-3.28,5.94,5.94,0,0,0-1-3.47,6.6,6.6,0,0,0-3-2.31,11.17,11.17,0,0,0-4.44-.82,13.59,13.59,0,0,0-4,.61,11.58,11.58,0,0,0-3.45,1.7,2.71,2.71,0,0,0-.81.92,2.66,2.66,0,0,0-.24,1.19,2.79,2.79,0,0,0,.58,1.79,1.76,1.76,0,0,0,1.42.73,2.08,2.08,0,0,0,.85-.16,10.66,10.66,0,0,0,1-.49l.72-.34A17.8,17.8,0,0,1,85.24,68,5,5,0,0,1,87,67.69a2.9,2.9,0,0,1,2.07.7,2.52,2.52,0,0,1,.75,2A1.93,1.93,0,0,1,89,72.08a5.26,5.26,0,0,1-2.72.54h-1.5a2,2,0,0,0-1.6.71,2.66,2.66,0,0,0-.57,1.7,2.62,2.62,0,0,0,.57,1.7,2,2,0,0,0,1.6.72h2.11a5.19,5.19,0,0,1,2.79.57,2.17,2.17,0,0,1,.85,1.91,2.38,2.38,0,0,1-.83,2,4.72,4.72,0,0,1-2.74.61,6.26,6.26,0,0,1-2-.29,15.27,15.27,0,0,1-2-.83l-.43-.19-.32-.15a10.66,10.66,0,0,0-1-.49,2.08,2.08,0,0,0-.85-.16A1.78,1.78,0,0,0,79,81.2,2.85,2.85,0,0,0,78.42,83a2.66,2.66,0,0,0,.24,1.17,2.71,2.71,0,0,0,.82.94A10.74,10.74,0,0,0,83,86.81a15,15,0,0,0,4.25.6,12.94,12.94,0,0,0,4.82-.83,7.13,7.13,0,0,0,3.17-2.37,5.91,5.91,0,0,0,1.13-3.6,6,6,0,0,0-1.14-3.71A5.75,5.75,0,0,0,92.09,74.8Z"/><path d="M44.6,61.68V89.87a8,8,0,0,1-7.94,7.94H8.47A8,8,0,0,1,.53,89.87V61.68a8,8,0,0,1,7.94-7.94H36.66A8,8,0,0,1,44.6,61.68ZM18.51,81.18,8.41,77.31l10.1-3.88a1.79,1.79,0,0,0,.85-.65,1.75,1.75,0,0,0,.3-1,2.1,2.1,0,0,0-.59-1.54,2,2,0,0,0-1.52-.6,3.33,3.33,0,0,0-1.05.2L5.18,74.21a3.41,3.41,0,0,0-1.55,1.24,3.44,3.44,0,0,0,0,3.76A3.25,3.25,0,0,0,5.18,80.4L16.5,84.79a3.33,3.33,0,0,0,1.05.2,2,2,0,0,0,1.52-.6,2.1,2.1,0,0,0,.59-1.54,1.72,1.72,0,0,0-.3-1A2.1,2.1,0,0,0,18.51,81.18Zm17.57-6.42a5.6,5.6,0,0,0,2.71-2.06,5.71,5.71,0,0,0,1-3.28,6,6,0,0,0-1-3.47,6.6,6.6,0,0,0-3-2.31,11.17,11.17,0,0,0-4.44-.82,13.59,13.59,0,0,0-4,.61,11.58,11.58,0,0,0-3.45,1.7,2.82,2.82,0,0,0-.81.92,2.66,2.66,0,0,0-.24,1.19A2.79,2.79,0,0,0,23.37,69a1.77,1.77,0,0,0,1.43.73,2.11,2.11,0,0,0,.85-.16c.24-.1.58-.26,1-.49l.71-.34A17.8,17.8,0,0,1,29.23,68,5,5,0,0,1,31,67.65a2.9,2.9,0,0,1,2.07.7,2.52,2.52,0,0,1,.75,2A1.91,1.91,0,0,1,33,72a5.24,5.24,0,0,1-2.72.54h-1.5a1.93,1.93,0,0,0-1.59.71A2.62,2.62,0,0,0,26.6,75a2.58,2.58,0,0,0,.58,1.7,1.91,1.91,0,0,0,1.59.72h2.11a5.19,5.19,0,0,1,2.79.57,2.15,2.15,0,0,1,.85,1.91,2.38,2.38,0,0,1-.83,2,4.72,4.72,0,0,1-2.74.61,6.26,6.26,0,0,1-2-.29A15.27,15.27,0,0,1,27,81.42l-.43-.19-.32-.15a10.66,10.66,0,0,0-1-.49,2.08,2.08,0,0,0-.85-.16,1.78,1.78,0,0,0-1.43.73A2.84,2.84,0,0,0,22.42,83a2.66,2.66,0,0,0,.23,1.17,2.71,2.71,0,0,0,.82.94A10.8,10.8,0,0,0,27,86.77a15,15,0,0,0,4.25.6,12.92,12.92,0,0,0,4.81-.83,7.22,7.22,0,0,0,3.18-2.37,6,6,0,0,0,1.12-3.6,6,6,0,0,0-1.14-3.71A5.75,5.75,0,0,0,36.08,74.76Z"/><path d="M71.57,10.91V39.09A7.94,7.94,0,0,1,63.63,47H35.44a7.94,7.94,0,0,1-7.94-7.94V10.91A7.94,7.94,0,0,1,35.44,3H63.63A7.94,7.94,0,0,1,71.57,10.91ZM44.88,37.32H56.06a3.41,3.41,0,0,0,2.23-.61A2.34,2.34,0,0,0,59,34.8c0-1.7-1-2.55-3-2.55H48.24v-16A3,3,0,0,0,47.39,14a3.17,3.17,0,0,0-2.31-.83,3.08,3.08,0,0,0-2.26.83A3,3,0,0,0,42,16.24V34.4a3,3,0,0,0,.74,2.17A2.91,2.91,0,0,0,44.88,37.32Z"/></svg>