<svg id="Layer_1" data-name="Layer 1" xmlns="http://www.w3.org/2000/svg" viewBox="0 0 100 100"><title>l22_1_1</title><path d="M99.61,61.93V90.11a7.94,7.94,0,0,1-7.94,7.94H63.48a7.94,7.94,0,0,1-7.94-7.94V61.93A7.94,7.94,0,0,1,63.48,54H91.67A7.94,7.94,0,0,1,99.61,61.93ZM74,75.46H70V71.51a1.85,1.85,0,1,0-3.7,0v3.95H62.37a1.81,1.81,0,0,0-1.32.53,1.79,1.79,0,0,0-.53,1.32,1.81,1.81,0,0,0,.53,1.33,1.75,1.75,0,0,0,1.32.55h3.95v3.92A1.81,1.81,0,0,0,68.17,85a1.79,1.79,0,0,0,1.33-.53A1.82,1.82,0,0,0,70,83.11V79.19h4a1.77,1.77,0,0,0,1.32-.55,1.85,1.85,0,0,0,.53-1.33A1.81,1.81,0,0,0,74,75.46Zm19.66,6.3H91.06V66.9a2.73,2.73,0,0,0-.77-2,2.77,2.77,0,0,0-2-.75,5.3,5.3,0,0,0-2.6.78l-5,2.92a2.13,2.13,0,0,0-1.1,1.94,2.62,2.62,0,0,0,.63,1.71,1.9,1.9,0,0,0,1.5.77,2.11,2.11,0,0,0,1.1-.31l2.51-1.48V81.76H82.75a3.12,3.12,0,0,0-2.07.57A2.09,2.09,0,0,0,80,84c0,1.55.91,2.32,2.73,2.32H93.63c1.82,0,2.73-.77,2.73-2.32a2.09,2.09,0,0,0-.66-1.69A3.12,3.12,0,0,0,93.63,81.76Z"/><path d="M44.6,61.68V89.87a8,8,0,0,1-7.94,7.94H8.47A8,8,0,0,1,.53,89.87V61.68a8,8,0,0,1,7.94-7.94H36.66A8,8,0,0,1,44.6,61.68ZM18,75.22H14v-4A1.86,1.86,0,0,0,10.84,70a1.79,1.79,0,0,0-.53,1.31v4H6.36a1.81,1.81,0,0,0-1.85,1.85A1.87,1.87,0,0,0,5,78.4,1.8,1.8,0,0,0,6.36,79h4v3.92a1.83,1.83,0,0,0,1.85,1.85,1.76,1.76,0,0,0,1.33-.54A1.78,1.78,0,0,0,14,82.87V79h4a1.8,1.8,0,0,0,1.32-.55,1.87,1.87,0,0,0,.53-1.33A1.81,1.81,0,0,0,18,75.22Zm19.66,6.3H35.05V66.66a2.73,2.73,0,0,0-.77-2,2.76,2.76,0,0,0-2-.76,5.32,5.32,0,0,0-2.6.79l-5,2.91a2.14,2.14,0,0,0-1.1,2,2.62,2.62,0,0,0,.63,1.71,1.9,1.9,0,0,0,1.5.77,2.12,2.12,0,0,0,1.1-.32l2.51-1.47V81.52H26.74a3.18,3.18,0,0,0-2.07.56,2.11,2.11,0,0,0-.66,1.7c0,1.54.91,2.32,2.73,2.32H37.62c1.82,0,2.73-.78,2.73-2.32a2.11,2.11,0,0,0-.66-1.7A3.18,3.18,0,0,0,37.62,81.52Z"/><path d="M71.57,10.91V39.09A7.94,7.94,0,0,1,63.63,47H35.44a7.94,7.94,0,0,1-7.94-7.94V10.91A7.94,7.94,0,0,1,35.44,3H63.63A7.94,7.94,0,0,1,71.57,10.91ZM45.93,24.44H42v-4a1.85,1.85,0,1,0-3.7,0v4h-4A1.81,1.81,0,0,0,33,25a1.79,1.79,0,0,0-.53,1.32A1.81,1.81,0,0,0,33,27.62a1.75,1.75,0,0,0,1.32.55h4v3.92a1.81,1.81,0,0,0,1.85,1.85,1.79,1.79,0,0,0,1.33-.53A1.82,1.82,0,0,0,42,32.09V28.17h4a1.77,1.77,0,0,0,1.32-.55,1.85,1.85,0,0,0,.53-1.33,1.81,1.81,0,0,0-1.85-1.85Zm19.66,6.3H63V15.88a2.73,2.73,0,0,0-.77-2,2.77,2.77,0,0,0-2-.75,5.3,5.3,0,0,0-2.6.78l-5,2.92a2.13,2.13,0,0,0-1.1,1.94,2.62,2.62,0,0,0,.63,1.71,1.9,1.9,0,0,0,1.5.77,2.12,2.12,0,0,0,1.1-.32l2.51-1.47V30.74H54.71a3.12,3.12,0,0,0-2.07.57A2.09,2.09,0,0,0,52,33c0,1.55.91,2.32,2.73,2.32H65.59c1.82,0,2.73-.77,2.73-2.32a2.09,2.09,0,0,0-.66-1.69A3.12,3.12,0,0,0,65.59,30.74Z"/></svg>