<svg id="Layer_1" data-name="Layer 1" xmlns="http://www.w3.org/2000/svg" viewBox="0 0 100 100"><title>l22_3_1</title><path d="M99.61,61.93V90.11a7.94,7.94,0,0,1-7.94,7.94H63.48a7.94,7.94,0,0,1-7.94-7.94V61.93A7.94,7.94,0,0,1,63.48,54H91.67A7.94,7.94,0,0,1,99.61,61.93ZM86.26,59.82H69.4a4.19,4.19,0,0,0-2.83.8,3.55,3.55,0,0,0,0,4.71,4.35,4.35,0,0,0,2.86.77H80.15L69.1,85A4.06,4.06,0,0,0,68.5,87a3.15,3.15,0,0,0,1.16,2.47,3.92,3.92,0,0,0,2.67,1A3.7,3.7,0,0,0,74.16,90a4,4,0,0,0,1.48-1.53l13-22.57a5.52,5.52,0,0,0,.81-2.84,3.32,3.32,0,0,0-.83-2.34A3.06,3.06,0,0,0,86.26,59.82Z"/><path d="M44.6,61.68V89.87a8,8,0,0,1-7.94,7.94H8.47A8,8,0,0,1,.53,89.87V61.68a8,8,0,0,1,7.94-7.94H36.66A8,8,0,0,1,44.6,61.68Zm-14.35-1.9H13.4a4.22,4.22,0,0,0-2.84.8A3,3,0,0,0,9.65,63a2.94,2.94,0,0,0,.89,2.33,4.31,4.31,0,0,0,2.86.77H24.15L13.09,84.94a4.06,4.06,0,0,0-.6,2.06,3.15,3.15,0,0,0,1.16,2.47,3.94,3.94,0,0,0,2.67,1A3.7,3.7,0,0,0,18.15,90a4,4,0,0,0,1.48-1.53l13-22.57a5.56,5.56,0,0,0,.82-2.84,3.33,3.33,0,0,0-.84-2.34A3.06,3.06,0,0,0,30.25,59.78Z"/><path d="M71.57,10.91V39.09A7.94,7.94,0,0,1,63.63,47H35.44a7.94,7.94,0,0,1-7.94-7.94V10.91A7.94,7.94,0,0,1,35.44,3H63.63A7.94,7.94,0,0,1,71.57,10.91Zm-16,14.67,7.78-7.7a4.24,4.24,0,0,0,1.29-3.1,3.78,3.78,0,0,0-1.29-2.95,4,4,0,0,0-3-1.29,4.14,4.14,0,0,0-3,1.29l-7.78,7.78-7.77-7.78a4.21,4.21,0,0,0-3-1.37,3.79,3.79,0,0,0-2.95,1.3,4.24,4.24,0,0,0-1.29,3.1,4.41,4.41,0,0,0,1.22,3l7.78,7.7-7.78,7.78a4.17,4.17,0,0,0,0,6,4.45,4.45,0,0,0,3,1.22,4.15,4.15,0,0,0,3-1.22l7.77-7.78,7.78,7.78a4.25,4.25,0,0,0,7.27-3,4,4,0,0,0-1.22-3Z"/></svg>