<svg id="Layer_1" data-name="Layer 1" xmlns="http://www.w3.org/2000/svg" viewBox="0 0 100 100"><title>l22_2_1</title><path d="M71.57,10.91V39.09A7.94,7.94,0,0,1,63.63,47H35.44a7.94,7.94,0,0,1-7.94-7.94V10.91A7.94,7.94,0,0,1,35.44,3H63.63A7.94,7.94,0,0,1,71.57,10.91ZM34.19,28H46a1.8,1.8,0,0,0,1.35-.56,1.87,1.87,0,0,0,.54-1.36,1.82,1.82,0,0,0-.54-1.34A1.86,1.86,0,0,0,46,24.22H34.19a1.77,1.77,0,0,0-1.34.56,1.84,1.84,0,0,0-.55,1.36,1.8,1.8,0,0,0,.55,1.34A1.82,1.82,0,0,0,34.19,28ZM40,22a2,2,0,0,0,1.46-.61A2.06,2.06,0,0,0,42,19.93a2,2,0,0,0-.59-1.44,2.05,2.05,0,0,0-2.9,0,2,2,0,0,0-.57,1.46,2.09,2.09,0,0,0,.57,1.47A1.94,1.94,0,0,0,40,22Zm0,12.35a2,2,0,0,0,1.46-.61A2,2,0,0,0,42,32.31a2.06,2.06,0,0,0-.59-1.47A2,2,0,0,0,40,30.23a1.9,1.9,0,0,0-1.44.61,2.09,2.09,0,0,0-.57,1.47,2,2,0,0,0,.57,1.46A2,2,0,0,0,40,34.36Zm25.12-3.71H58.64L63.18,26a15.5,15.5,0,0,0,2.68-3.6,8.12,8.12,0,0,0,.78-3.57,5.86,5.86,0,0,0-1-3.34,6.17,6.17,0,0,0-2.76-2.24,10.22,10.22,0,0,0-4.16-.79,12.35,12.35,0,0,0-3.7.58,12.54,12.54,0,0,0-3.38,1.6,2.09,2.09,0,0,0-.78.83,2.72,2.72,0,0,0-.21,1.15,2.72,2.72,0,0,0,.55,1.71,1.62,1.62,0,0,0,1.34.72,2,2,0,0,0,.61-.09,4.13,4.13,0,0,0,.65-.31l.5-.27.64-.32a14.72,14.72,0,0,1,1.81-.78A5.2,5.2,0,0,1,58.48,17a2.55,2.55,0,0,1,1.78.57,2.19,2.19,0,0,1,.62,1.67c0,1.23-.7,2.59-2.11,4.06L52,30.39a3.53,3.53,0,0,0-1.08,2.5,2.38,2.38,0,0,0,.67,1.74,2.42,2.42,0,0,0,1.82.69H65.07a3.19,3.19,0,0,0,2.1-.58A2.19,2.19,0,0,0,67.86,33a2.1,2.1,0,0,0-.69-1.74A3.25,3.25,0,0,0,65.07,30.65Z"/><path d="M99.61,61.93V90.11a7.94,7.94,0,0,1-7.94,7.94H63.48a7.94,7.94,0,0,1-7.94-7.94V61.93A7.94,7.94,0,0,1,63.48,54H91.67A7.94,7.94,0,0,1,99.61,61.93ZM62.23,79H74.07a1.8,1.8,0,0,0,1.35-.56A1.87,1.87,0,0,0,76,77.12a1.82,1.82,0,0,0-.54-1.34,1.86,1.86,0,0,0-1.35-.54H62.23a1.77,1.77,0,0,0-1.34.56,1.84,1.84,0,0,0-.55,1.36,1.8,1.8,0,0,0,.55,1.34A1.82,1.82,0,0,0,62.23,79ZM68,73a2,2,0,0,0,1.46-.61A2.06,2.06,0,0,0,70,71a2,2,0,0,0-.59-1.44,2.05,2.05,0,0,0-2.9,0A2,2,0,0,0,66,71a2.09,2.09,0,0,0,.57,1.47A1.9,1.9,0,0,0,68,73Zm0,12.35a2,2,0,0,0,1.46-.61A2,2,0,0,0,70,83.33a2.06,2.06,0,0,0-.59-1.47A2,2,0,0,0,68,81.25a1.94,1.94,0,0,0-1.44.61A2.09,2.09,0,0,0,66,83.33a2,2,0,0,0,.57,1.46A2,2,0,0,0,68,85.38Zm25.12-3.71H86.68L91.22,77a15.1,15.1,0,0,0,2.68-3.6,8.12,8.12,0,0,0,.78-3.57,5.86,5.86,0,0,0-1-3.34,6.23,6.23,0,0,0-2.76-2.24,10.22,10.22,0,0,0-4.16-.79,12.35,12.35,0,0,0-3.7.58,12.54,12.54,0,0,0-3.38,1.6,2.09,2.09,0,0,0-.78.83,3,3,0,0,0,.34,2.86,1.62,1.62,0,0,0,1.34.72,2,2,0,0,0,.61-.09,4.13,4.13,0,0,0,.65-.31l.5-.27.64-.32a14.72,14.72,0,0,1,1.81-.78A5.2,5.2,0,0,1,86.52,68a2.55,2.55,0,0,1,1.78.57,2.19,2.19,0,0,1,.62,1.67c0,1.23-.7,2.59-2.11,4.06L80,81.41a3.53,3.53,0,0,0-1.08,2.5,2.38,2.38,0,0,0,.67,1.74,2.42,2.42,0,0,0,1.82.69H93.11a3.19,3.19,0,0,0,2.1-.58A2.19,2.19,0,0,0,95.9,84a2.1,2.1,0,0,0-.69-1.74A3.25,3.25,0,0,0,93.11,81.67Z"/><path d="M44.6,61.68V89.87a8,8,0,0,1-7.94,7.94H8.47A8,8,0,0,1,.53,89.87V61.68a8,8,0,0,1,7.94-7.94H36.66A8,8,0,0,1,44.6,61.68ZM6.22,78.8H18.06a1.83,1.83,0,0,0,1.35-.56A1.89,1.89,0,0,0,20,76.88,1.86,1.86,0,0,0,18.06,75H6.22a1.8,1.8,0,0,0-1.34.56,1.9,1.9,0,0,0-.54,1.36,1.85,1.85,0,0,0,.54,1.35A1.82,1.82,0,0,0,6.22,78.8Zm5.76-6a2,2,0,0,0,1.46-.61A2.06,2.06,0,0,0,14,70.71a2,2,0,0,0-.59-1.45,2,2,0,0,0-1.46-.6,1.92,1.92,0,0,0-1.44.59A2,2,0,0,0,10,70.71a2.09,2.09,0,0,0,.57,1.47A1.94,1.94,0,0,0,12,72.79Zm0,12.35a2,2,0,0,0,1.46-.61,2.09,2.09,0,0,0,0-2.91A2,2,0,0,0,12,81a1.9,1.9,0,0,0-1.44.61A2.05,2.05,0,0,0,10,83.09a2,2,0,0,0,.57,1.46A2,2,0,0,0,12,85.14ZM37.1,81.43H30.67l4.55-4.64a15.53,15.53,0,0,0,2.67-3.61,8,8,0,0,0,.78-3.56,5.81,5.81,0,0,0-1-3.35A6.3,6.3,0,0,0,34.93,64a10.36,10.36,0,0,0-4.16-.78,12.88,12.88,0,0,0-7.08,2.18,2.09,2.09,0,0,0-.78.83,3,3,0,0,0,.34,2.86,1.62,1.62,0,0,0,1.34.72,2,2,0,0,0,.61-.09,4.13,4.13,0,0,0,.65-.31l.5-.27.64-.32a17.6,17.6,0,0,1,1.81-.79,5.2,5.2,0,0,1,1.71-.27,2.51,2.51,0,0,1,1.78.58A2.16,2.16,0,0,1,32.91,70q0,1.86-2.11,4.07L24,81.17a3.5,3.5,0,0,0-1.09,2.5,2.38,2.38,0,0,0,.67,1.74,2.42,2.42,0,0,0,1.82.69H37.1a3.25,3.25,0,0,0,2.1-.58,2.19,2.19,0,0,0,.69-1.79A2.13,2.13,0,0,0,39.2,82,3.31,3.31,0,0,0,37.1,81.43Z"/></svg>