<svg id="Layer_1" data-name="Layer 1" xmlns="http://www.w3.org/2000/svg" viewBox="0 0 100 100"><title>l22_5_1</title><path d="M84.75,61.68V89.87a8,8,0,0,1-7.94,7.94H24.39a8,8,0,0,1-7.94-7.94V61.68a8,8,0,0,1,7.94-7.94H76.81A8,8,0,0,1,84.75,61.68ZM33.13,90.46a9.35,9.35,0,0,0,8-3.72Q43.89,83,43.89,76T41.11,65.26a9.38,9.38,0,0,0-8-3.72,9.34,9.34,0,0,0-8,3.72Q22.37,69,22.37,76t2.76,10.76A9.34,9.34,0,0,0,33.13,90.46Zm0-5.56a2.87,2.87,0,0,1-2.76-2.08A19.94,19.94,0,0,1,29.53,76a19.69,19.69,0,0,1,.84-6.82,2.88,2.88,0,0,1,5.52,0,19.71,19.71,0,0,1,.84,6.8,19.94,19.94,0,0,1-.84,6.84A2.87,2.87,0,0,1,33.13,84.9Zm17.44,5.44a3.73,3.73,0,0,0,2.74-1.12,4,4,0,0,0,0-5.52,4,4,0,0,0-5.52,0,3.88,3.88,0,0,0,2.78,6.64ZM70,71.66a10,10,0,0,0-4,.72V67.46h8.64c2.32,0,3.48-.94,3.48-2.8S77,61.9,74.65,61.9H62.25a3.38,3.38,0,0,0-2.52.88,3.44,3.44,0,0,0-.88,2.56V76.18a2.18,2.18,0,0,0,.76,1.74,2.75,2.75,0,0,0,1.88.66,3.86,3.86,0,0,0,1.8-.44,13.35,13.35,0,0,1,2.3-.72,10.44,10.44,0,0,1,2.18-.2,4.52,4.52,0,0,1,3.12,1A3.57,3.57,0,0,1,72,81a3.47,3.47,0,0,1-1.08,2.82,5.12,5.12,0,0,1-3.32.9,6.63,6.63,0,0,1-2.22-.36,21.66,21.66,0,0,1-2.26-1l-.8-.4a10.79,10.79,0,0,0-1.2-.6,2.65,2.65,0,0,0-1-.16,2,2,0,0,0-1.68.86,3.23,3.23,0,0,0-.68,2.1,3,3,0,0,0,.3,1.38A3.61,3.61,0,0,0,59,87.7a13.17,13.17,0,0,0,4.1,2,16.63,16.63,0,0,0,4.86.72,13,13,0,0,0,5.72-1.2,9.09,9.09,0,0,0,3.84-3.4A10.29,10.29,0,0,0,77.75,76a8.11,8.11,0,0,0-3.16-3.2A9.25,9.25,0,0,0,70,71.66Z"/><path d="M71.57,10.91V39.09A7.94,7.94,0,0,1,63.63,47H35.44a7.94,7.94,0,0,1-7.94-7.94V10.91A7.94,7.94,0,0,1,35.44,3H63.63A7.94,7.94,0,0,1,71.57,10.91ZM58.68,14.18a3.18,3.18,0,0,0-2.85,2L49.6,28,43.35,16.22a4.06,4.06,0,0,0-1.26-1.51A3,3,0,0,0,38.3,15a3,3,0,0,0-.83,2.21v18.5a2.74,2.74,0,1,0,5.47,0v-9.8l3.84,6.94A4.46,4.46,0,0,0,48,34.43a2.77,2.77,0,0,0,3.06,0,4.45,4.45,0,0,0,1.22-1.55l3.88-7.14v10a2.79,2.79,0,0,0,4.69,2,2.76,2.76,0,0,0,.75-2V17.24A3.08,3.08,0,0,0,60.79,15,2.78,2.78,0,0,0,58.68,14.18Z"/></svg>