<svg id="Layer_1" data-name="Layer 1" xmlns="http://www.w3.org/2000/svg" viewBox="0 0 100 100"><title>l22_4_1</title><path d="M88.34,61.68V89.87a8,8,0,0,1-7.94,7.94H21.47a8,8,0,0,1-7.94-7.94V61.68a8,8,0,0,1,7.94-7.94H80.4A8,8,0,0,1,88.34,61.68ZM31.82,90.48a10,10,0,0,0,8.6-4q3-4,3-11.56t-3-11.53a10.1,10.1,0,0,0-8.58-4,10.06,10.06,0,0,0-8.6,4q-3,4-3,11.53t3,11.56Q26.19,90.49,31.82,90.48Zm0-6a3.08,3.08,0,0,1-3-2.24,21.46,21.46,0,0,1-.9-7.35,21.25,21.25,0,0,1,.9-7.33,3.09,3.09,0,0,1,5.94,0,21.27,21.27,0,0,1,.9,7.31,21.46,21.46,0,0,1-.9,7.35A3.1,3.1,0,0,1,31.82,84.51Zm18.75,5.84a4,4,0,0,0,2.94-1.2,4.32,4.32,0,0,0,0-5.93A3.94,3.94,0,0,0,50.57,82a4,4,0,0,0-3,1.21,4.29,4.29,0,0,0,0,5.93A4,4,0,0,0,50.57,90.35Zm27.86-6.53H74.9V63.44a3.58,3.58,0,0,0-3.82-3.83,7.32,7.32,0,0,0-3.57,1.07l-6.88,4a2.92,2.92,0,0,0-1.51,2.67A3.62,3.62,0,0,0,60,69.69a2.58,2.58,0,0,0,2.07,1.06,3,3,0,0,0,1.5-.43l3.44-2V83.82H63.51a4.34,4.34,0,0,0-2.84.77,2.9,2.9,0,0,0-.9,2.32c0,2.13,1.24,3.19,3.74,3.19H78.43q3.73,0,3.74-3.19a2.9,2.9,0,0,0-.9-2.32A4.36,4.36,0,0,0,78.43,83.82Z"/><path d="M71.57,10.91V39.09A7.94,7.94,0,0,1,63.63,47H35.44a7.94,7.94,0,0,1-7.94-7.94V10.91A7.94,7.94,0,0,1,35.44,3H63.63A7.94,7.94,0,0,1,71.57,10.91ZM62.85,21.33H53.78V12.26a4.25,4.25,0,1,0-8.49,0v9.07H36.21A4.18,4.18,0,0,0,32,25.58a4.21,4.21,0,0,0,1.22,3.06,4,4,0,0,0,3,1.26h9.08v9a4.3,4.3,0,0,0,7.3,3,4.16,4.16,0,0,0,1.19-3v-9h9.07a4.07,4.07,0,0,0,3-1.26,4.25,4.25,0,0,0,1.22-3.06,4.18,4.18,0,0,0-4.25-4.25Z"/></svg>