<svg id="Layer_1" data-name="Layer 1" xmlns="http://www.w3.org/2000/svg" viewBox="0 0 100 100"><title>l22_3_1</title><path d="M99.61,61.93V90.11a7.94,7.94,0,0,1-7.94,7.94H63.48a7.94,7.94,0,0,1-7.94-7.94V61.93A7.94,7.94,0,0,1,63.48,54H91.67A7.94,7.94,0,0,1,99.61,61.93ZM86.82,79h-.95V63.48a3.61,3.61,0,0,0-1.16-2.88,4,4,0,0,0-2.79-1A4.24,4.24,0,0,0,80,60a3.91,3.91,0,0,0-1.52,1.31L66.18,78.87a4.84,4.84,0,0,0-1,2.84,3.26,3.26,0,0,0,.91,2.36,3.18,3.18,0,0,0,2.45,1h9.59v1.46a3.84,3.84,0,0,0,1,2.93,3.88,3.88,0,0,0,2.77,1,4,4,0,0,0,2.8-1,3.81,3.81,0,0,0,1.07-2.93V85h.95q3.74,0,3.74-3T86.82,79ZM73,79l5.16-7.44V79Z"/><path d="M44.6,61.68V89.87a8,8,0,0,1-7.94,7.94H8.47A8,8,0,0,1,.53,89.87V61.68a8,8,0,0,1,7.94-7.94H36.66A8,8,0,0,1,44.6,61.68ZM30.81,79h-.95V63.44a3.61,3.61,0,0,0-1.16-2.88,4,4,0,0,0-2.79-1A4.24,4.24,0,0,0,24,60a3.91,3.91,0,0,0-1.52,1.31L10.17,78.83a4.84,4.84,0,0,0-.95,2.84A3.3,3.3,0,0,0,10.13,84a3.23,3.23,0,0,0,2.45,1h9.59v1.46a3.81,3.81,0,0,0,1,2.92,3.88,3.88,0,0,0,2.77,1,4,4,0,0,0,2.8-1,3.78,3.78,0,0,0,1.07-2.92V85h.95q3.73,0,3.74-3T30.81,79ZM17,79l5.16-7.44V79Z"/><path d="M71.57,10.91V39.09A7.94,7.94,0,0,1,63.63,47H35.44a7.94,7.94,0,0,1-7.94-7.94V10.91A7.94,7.94,0,0,1,35.44,3H63.63A7.94,7.94,0,0,1,71.57,10.91Zm-16,14.67,7.78-7.7a4.24,4.24,0,0,0,1.29-3.1,3.78,3.78,0,0,0-1.29-2.95,4,4,0,0,0-3-1.3,4.15,4.15,0,0,0-3,1.3l-7.78,7.78-7.77-7.78a4.21,4.21,0,0,0-3-1.37,3.79,3.79,0,0,0-2.95,1.3,4.24,4.24,0,0,0-1.29,3.1,4.41,4.41,0,0,0,1.22,3l7.78,7.7-7.78,7.78a4.17,4.17,0,0,0,0,6,4.45,4.45,0,0,0,3,1.22,4.15,4.15,0,0,0,3-1.22l7.77-7.78,7.78,7.78a4.25,4.25,0,0,0,7.27-3,4,4,0,0,0-1.22-3Z"/></svg>