<svg id="Layer_1" data-name="Layer 1" xmlns="http://www.w3.org/2000/svg" viewBox="0 0 100 100"><title>l22_2_1</title><path d="M99.61,61.93V90.11a7.94,7.94,0,0,1-7.94,7.94H63.48a7.94,7.94,0,0,1-7.94-7.94V61.93A7.94,7.94,0,0,1,63.48,54H91.67A7.94,7.94,0,0,1,99.61,61.93ZM62.25,79H74.09a1.77,1.77,0,0,0,1.34-.56A1.88,1.88,0,0,0,76,77.12a1.86,1.86,0,0,0-1.89-1.88H62.25a1.79,1.79,0,0,0-1.35.56,1.87,1.87,0,0,0-.54,1.36,1.82,1.82,0,0,0,.54,1.34A1.85,1.85,0,0,0,62.25,79ZM68,73a1.93,1.93,0,0,0,1.45-.61,2,2,0,0,0,.6-1.47,2,2,0,0,0-.6-1.44,2,2,0,0,0-2.89,0A2,2,0,0,0,66,71a2.05,2.05,0,0,0,.58,1.47A1.87,1.87,0,0,0,68,73Zm0,12.35a1.93,1.93,0,0,0,1.45-.61,2,2,0,0,0,.6-1.44,2,2,0,0,0-.6-1.47A2,2,0,0,0,68,81.25a1.91,1.91,0,0,0-1.44.61A2.05,2.05,0,0,0,66,83.33a2,2,0,0,0,.58,1.46A1.93,1.93,0,0,0,68,85.38Zm26.05-7.33h-.71V66.5a2.72,2.72,0,0,0-.86-2.14,3,3,0,0,0-2.08-.77,3.29,3.29,0,0,0-1.43.33,3,3,0,0,0-1.13,1L78.7,78A3.57,3.57,0,0,0,78,80.07a2.49,2.49,0,0,0,.67,1.76,2.41,2.41,0,0,0,1.83.7h7.13v1.09a2.83,2.83,0,0,0,.79,2.18,2.88,2.88,0,0,0,2.06.73,3,3,0,0,0,2.08-.73,2.83,2.83,0,0,0,.8-2.18V82.53h.71c1.85,0,2.78-.76,2.78-2.27S95.91,78.05,94.06,78.05Zm-10.28,0,3.84-5.53v5.53Z"/><path d="M44.6,61.68V89.87a8,8,0,0,1-7.94,7.94H8.47A8,8,0,0,1,.53,89.87V61.68a8,8,0,0,1,7.94-7.94H36.66A8,8,0,0,1,44.6,61.68ZM6.24,78.8H18.08a1.8,1.8,0,0,0,1.34-.56A1.86,1.86,0,0,0,20,76.88,1.88,1.88,0,0,0,18.08,75H6.24a1.84,1.84,0,0,0-1.35.56,1.9,1.9,0,0,0-.54,1.36A1.85,1.85,0,0,0,6.24,78.8Zm5.76-6a2,2,0,0,0,1.45-.61,2,2,0,0,0,.6-1.47,2,2,0,0,0-.6-1.45,2,2,0,0,0-1.45-.6,1.89,1.89,0,0,0-1.44.59A2,2,0,0,0,10,70.71a2.05,2.05,0,0,0,.58,1.47A1.91,1.91,0,0,0,12,72.79Zm0,12.35a2,2,0,0,0,1.45-.61,2.06,2.06,0,0,0,0-2.91A1.93,1.93,0,0,0,12,81a1.87,1.87,0,0,0-1.44.61A2,2,0,0,0,10,83.09a2,2,0,0,0,.58,1.46A1.93,1.93,0,0,0,12,85.14Zm26.05-7.33h-.71V66.26a2.72,2.72,0,0,0-.86-2.15,3,3,0,0,0-2.08-.76,3.21,3.21,0,0,0-1.42.33,2.91,2.91,0,0,0-1.14,1l-9.15,13A3.59,3.59,0,0,0,22,79.82a2.5,2.5,0,0,0,.67,1.77,2.45,2.45,0,0,0,1.83.7h7.13v1.09a2.84,2.84,0,0,0,.79,2.17,2.89,2.89,0,0,0,2.06.74,2.94,2.94,0,0,0,2.08-.74,2.77,2.77,0,0,0,.8-2.17V82.29h.71c1.85,0,2.78-.76,2.78-2.27S39.9,77.81,38.05,77.81Zm-10.28,0,3.84-5.54v5.54Z"/><path d="M71.57,10.91V39.09A7.94,7.94,0,0,1,63.63,47H35.44a7.94,7.94,0,0,1-7.94-7.94V10.91A7.94,7.94,0,0,1,35.44,3H63.63A7.94,7.94,0,0,1,71.57,10.91ZM34.21,28H46.05a1.77,1.77,0,0,0,1.34-.56,1.87,1.87,0,0,0,.54-1.36,1.84,1.84,0,0,0-1.88-1.88H34.21a1.79,1.79,0,0,0-1.35.56,1.87,1.87,0,0,0-.54,1.36,1.82,1.82,0,0,0,.54,1.34A1.85,1.85,0,0,0,34.21,28ZM40,22a2,2,0,0,0,1.45-.61,2,2,0,0,0,.6-1.47,2,2,0,0,0-.6-1.44,2,2,0,0,0-2.89,0A2,2,0,0,0,38,19.93a2.05,2.05,0,0,0,.58,1.47A1.91,1.91,0,0,0,40,22Zm0,12.35a1.93,1.93,0,0,0,1.45-.61,2,2,0,0,0,.6-1.44,2,2,0,0,0-.6-1.47A1.93,1.93,0,0,0,40,30.23a1.87,1.87,0,0,0-1.44.61A2.05,2.05,0,0,0,38,32.31a2,2,0,0,0,.58,1.46A1.93,1.93,0,0,0,40,34.36ZM66,27h-.71V15.48a2.72,2.72,0,0,0-.86-2.14,3,3,0,0,0-2.08-.77,3.29,3.29,0,0,0-1.43.33,3,3,0,0,0-1.13,1L50.66,26.94A3.57,3.57,0,0,0,50,29.05a2.49,2.49,0,0,0,.67,1.76,2.41,2.41,0,0,0,1.83.7h7.13V32.6a2.83,2.83,0,0,0,.79,2.18,2.88,2.88,0,0,0,2.06.73,3,3,0,0,0,2.08-.73,2.83,2.83,0,0,0,.8-2.18V31.51H66c1.85,0,2.78-.76,2.78-2.27S67.87,27,66,27ZM55.74,27l3.84-5.53V27Z"/></svg>