<svg id="Layer_1" data-name="Layer 1" xmlns="http://www.w3.org/2000/svg" viewBox="0 0 100 100"><title>l22_1_1</title><path d="M99.61,61.93V90.11a7.94,7.94,0,0,1-7.94,7.94H63.48a7.94,7.94,0,0,1-7.94-7.94V61.93A7.94,7.94,0,0,1,63.48,54H91.67A7.94,7.94,0,0,1,99.61,61.93ZM61.22,85.77a2.7,2.7,0,0,0,.93.94A2,2,0,0,0,63.2,87a1.25,1.25,0,0,0,.91-.34,1.17,1.17,0,0,0,.36-.91,2.17,2.17,0,0,0-.17-.8,21.56,21.56,0,0,1-1.12-3.94,23.71,23.71,0,0,1-.35-4.18,24.43,24.43,0,0,1,.35-4.22,20.1,20.1,0,0,1,1.12-3.94,2.22,2.22,0,0,0,.17-.81,1.2,1.2,0,0,0-.36-.93,1.29,1.29,0,0,0-.91-.33,2,2,0,0,0-1.05.33,2.92,2.92,0,0,0-.93,1,16.78,16.78,0,0,0,0,17.85Zm7.29-7.43h4.33a2.13,2.13,0,0,0,1.44-.42,1.54,1.54,0,0,0,.47-1.19,1.5,1.5,0,0,0-.47-1.17,2.13,2.13,0,0,0-1.44-.42H68.51c-1.27,0-1.91.53-1.91,1.59S67.24,78.34,68.51,78.34Zm15.32-6a5.73,5.73,0,0,0-2.28.41V69.9h5c1.34,0,2-.54,2-1.61s-.66-1.59-2-1.59H79.39a2,2,0,0,0-1.45.51,2,2,0,0,0-.5,1.47v6.24a1.25,1.25,0,0,0,.44,1A1.6,1.6,0,0,0,79,76.3,2.19,2.19,0,0,0,80,76a8.66,8.66,0,0,1,1.32-.41,6.13,6.13,0,0,1,1.26-.12,2.62,2.62,0,0,1,1.79.58A2,2,0,0,1,85,77.7a2,2,0,0,1-.62,1.62,3,3,0,0,1-1.91.52,3.72,3.72,0,0,1-1.27-.21,12.81,12.81,0,0,1-1.3-.55l-.46-.23a7.49,7.49,0,0,0-.69-.35,1.61,1.61,0,0,0-.58-.09,1.19,1.19,0,0,0-1,.5,1.88,1.88,0,0,0-.39,1.2,1.66,1.66,0,0,0,.17.8,1.94,1.94,0,0,0,.54.63,7.63,7.63,0,0,0,2.36,1.15,9.42,9.42,0,0,0,2.79.41A7.47,7.47,0,0,0,86,82.41a5.19,5.19,0,0,0,2.21-2A5.45,5.45,0,0,0,89,77.54a5.62,5.62,0,0,0-.65-2.73A4.73,4.73,0,0,0,86.49,73,5.3,5.3,0,0,0,83.83,72.32Zm10.1,13.45a16.78,16.78,0,0,0,0-17.85A2.88,2.88,0,0,0,93,67a2.09,2.09,0,0,0-1-.32A1.29,1.29,0,0,0,91,67a1.18,1.18,0,0,0-.35.91,2.2,2.2,0,0,0,.16.81A20.1,20.1,0,0,1,92,72.65a24.43,24.43,0,0,1,.35,4.22A23.71,23.71,0,0,1,92,81.05,21.56,21.56,0,0,1,90.85,85a2.15,2.15,0,0,0-.16.8,1.16,1.16,0,0,0,.35.91,1.22,1.22,0,0,0,.89.34A2.05,2.05,0,0,0,93,86.71,2.7,2.7,0,0,0,93.93,85.77Z"/><path d="M44.6,61.68V89.87a8,8,0,0,1-7.94,7.94H8.47A8,8,0,0,1,.53,89.87V61.68a8,8,0,0,1,7.94-7.94H36.66A8,8,0,0,1,44.6,61.68ZM5.21,85.53a2.81,2.81,0,0,0,.94.94,2,2,0,0,0,1,.32,1.29,1.29,0,0,0,.91-.33,1.18,1.18,0,0,0,.36-.91,2.33,2.33,0,0,0-.16-.8,20.94,20.94,0,0,1-1.13-4,23.59,23.59,0,0,1-.35-4.17,24.34,24.34,0,0,1,.35-4.22,19.74,19.74,0,0,1,1.13-4,2.33,2.33,0,0,0,.16-.8,1.2,1.2,0,0,0-.36-.93,1.25,1.25,0,0,0-.91-.34,1.91,1.91,0,0,0-1,.34,2.94,2.94,0,0,0-.94,1,16.78,16.78,0,0,0,0,17.85ZM12.5,78.1h4.33a2.08,2.08,0,0,0,1.44-.43,1.51,1.51,0,0,0,.47-1.18,1.47,1.47,0,0,0-.47-1.17,2.13,2.13,0,0,0-1.44-.42H12.5c-1.27,0-1.9.53-1.9,1.59S11.23,78.1,12.5,78.1Zm15.32-6a5.64,5.64,0,0,0-2.27.42V69.66h5c1.34,0,2-.54,2-1.61s-.66-1.59-2-1.59H23.38a2,2,0,0,0-1.45.51,2,2,0,0,0-.5,1.47v6.23a1.22,1.22,0,0,0,.44,1,1.55,1.55,0,0,0,1.08.38,2.18,2.18,0,0,0,1-.25,7.66,7.66,0,0,1,1.32-.41,6.13,6.13,0,0,1,1.26-.12,2.57,2.57,0,0,1,1.79.58A2,2,0,0,1,29,77.46a2,2,0,0,1-.62,1.62,3,3,0,0,1-1.91.51,4,4,0,0,1-1.28-.2c-.39-.14-.82-.33-1.3-.55l-.46-.24c-.31-.16-.54-.28-.69-.34a1.59,1.59,0,0,0-.57-.09,1.18,1.18,0,0,0-1,.49,1.89,1.89,0,0,0-.39,1.21,1.74,1.74,0,0,0,.17.79,2.12,2.12,0,0,0,.54.64,7.75,7.75,0,0,0,2.36,1.15,9.76,9.76,0,0,0,2.79.41A7.44,7.44,0,0,0,30,82.17a5.19,5.19,0,0,0,2.21-2A5.48,5.48,0,0,0,33,77.29a5.61,5.61,0,0,0-.65-2.72,4.73,4.73,0,0,0-1.82-1.84A5.28,5.28,0,0,0,27.82,72.07Zm10.1,13.46a16.73,16.73,0,0,0,0-17.85,2.79,2.79,0,0,0-.93-.94,2,2,0,0,0-1.05-.32,1.29,1.29,0,0,0-.91.33,1.16,1.16,0,0,0-.35.91,2.11,2.11,0,0,0,.16.8,20.38,20.38,0,0,1,1.12,4,24.34,24.34,0,0,1,.35,4.22A23.59,23.59,0,0,1,36,80.8a21.65,21.65,0,0,1-1.12,4,2.11,2.11,0,0,0-.16.8,1.18,1.18,0,0,0,.35.91,1.27,1.27,0,0,0,.89.33A2,2,0,0,0,37,86.47,2.79,2.79,0,0,0,37.92,85.53Z"/><path d="M71.57,10.91V39.09A7.94,7.94,0,0,1,63.63,47H35.44a7.94,7.94,0,0,1-7.94-7.94V10.91A7.94,7.94,0,0,1,35.44,3H63.63A7.94,7.94,0,0,1,71.57,10.91ZM33.18,34.75a2.79,2.79,0,0,0,.93.94,2,2,0,0,0,1,.33,1.3,1.3,0,0,0,.91-.34,1.17,1.17,0,0,0,.36-.91,2.13,2.13,0,0,0-.17-.8A21.43,21.43,0,0,1,35.14,30a23.59,23.59,0,0,1-.35-4.17,24.43,24.43,0,0,1,.35-4.22,20.1,20.1,0,0,1,1.12-3.94,2.22,2.22,0,0,0,.17-.81,1.2,1.2,0,0,0-.36-.93,1.3,1.3,0,0,0-.91-.34,2,2,0,0,0-1,.34,2.92,2.92,0,0,0-.93.95,15.61,15.61,0,0,0-2.57,9A15.63,15.63,0,0,0,33.18,34.75Zm7.29-7.43H44.8a2.13,2.13,0,0,0,1.44-.42,1.54,1.54,0,0,0,.47-1.19,1.48,1.48,0,0,0-.47-1.17,2.13,2.13,0,0,0-1.44-.42H40.47c-1.27,0-1.91.53-1.91,1.59S39.2,27.32,40.47,27.32Zm15.32-6a5.73,5.73,0,0,0-2.28.41V18.88h5c1.34,0,2-.54,2-1.61s-.66-1.59-2-1.59H51.35a2,2,0,0,0-1.45.51,2,2,0,0,0-.5,1.47v6.23a1.25,1.25,0,0,0,.43,1,1.59,1.59,0,0,0,1.09.38A2.18,2.18,0,0,0,52,25a8.66,8.66,0,0,1,1.32-.41,6.13,6.13,0,0,1,1.26-.12,2.62,2.62,0,0,1,1.79.58A2,2,0,0,1,57,26.68a2,2,0,0,1-.62,1.62,3,3,0,0,1-1.91.52,3.72,3.72,0,0,1-1.27-.21,12.81,12.81,0,0,1-1.3-.55l-.46-.23a7.49,7.49,0,0,0-.69-.35,1.61,1.61,0,0,0-.58-.09,1.19,1.19,0,0,0-1,.5,1.88,1.88,0,0,0-.39,1.2,1.69,1.69,0,0,0,.17.8,1.94,1.94,0,0,0,.54.63,7.63,7.63,0,0,0,2.36,1.15,9.76,9.76,0,0,0,2.79.41,7.47,7.47,0,0,0,3.29-.69,5.19,5.19,0,0,0,2.21-1.95,5.45,5.45,0,0,0,.78-2.92,5.62,5.62,0,0,0-.65-2.73A4.73,4.73,0,0,0,58.45,22,5.3,5.3,0,0,0,55.79,21.3Zm10.1,13.45a15.63,15.63,0,0,0,2.57-8.9,15.61,15.61,0,0,0-2.57-9A2.88,2.88,0,0,0,65,16a2.09,2.09,0,0,0-1-.32A1.29,1.29,0,0,0,63,16a1.18,1.18,0,0,0-.35.91,2.2,2.2,0,0,0,.16.81,20.1,20.1,0,0,1,1.12,3.94,24.43,24.43,0,0,1,.35,4.22A23.59,23.59,0,0,1,63.93,30,21.43,21.43,0,0,1,62.81,34a2.11,2.11,0,0,0-.16.8,1.16,1.16,0,0,0,.35.91,1.26,1.26,0,0,0,.89.34A2.05,2.05,0,0,0,65,35.69,2.79,2.79,0,0,0,65.89,34.75Z"/></svg>