<svg id="Layer_1" data-name="Layer 1" xmlns="http://www.w3.org/2000/svg" viewBox="0 0 100 100"><title>l22_2_1</title><path d="M71.61,10.33V38.51a7.93,7.93,0,0,1-7.94,7.94H35.48a7.94,7.94,0,0,1-7.94-7.94V10.33a7.94,7.94,0,0,1,7.94-7.94H63.67A7.93,7.93,0,0,1,71.61,10.33ZM34,34.9a2.43,2.43,0,0,0,1.77-.64,2.31,2.31,0,0,0,.65-1.73V18.62a2.28,2.28,0,0,0-.65-1.7A2.39,2.39,0,0,0,34,16.28a2.19,2.19,0,0,0-2.36,2.34V32.53A2.19,2.19,0,0,0,34,34.9ZM48,27.25l2.81-2.78a1.52,1.52,0,0,0,.46-1.12,1.34,1.34,0,0,0-.46-1.06,1.43,1.43,0,0,0-1.1-.47,1.47,1.47,0,0,0-1.09.47l-2.81,2.8L43,22.29a1.53,1.53,0,0,0-1.09-.5,1.37,1.37,0,0,0-1.07.47,1.54,1.54,0,0,0-.47,1.12,1.61,1.61,0,0,0,.44,1.09l2.81,2.78-2.81,2.81a1.51,1.51,0,0,0-.47,1.09,1.49,1.49,0,0,0,.47,1.09,1.6,1.6,0,0,0,1.1.45A1.48,1.48,0,0,0,43,32.24l2.8-2.8,2.81,2.8a1.54,1.54,0,0,0,2.63-1.09,1.45,1.45,0,0,0-.44-1.09ZM64.73,25.3a4.17,4.17,0,0,0,2.07-1.57,4.29,4.29,0,0,0,.74-2.51,4.51,4.51,0,0,0-.79-2.65,5.13,5.13,0,0,0-2.26-1.77,8.54,8.54,0,0,0-3.39-.62,10.57,10.57,0,0,0-3.09.46,8.86,8.86,0,0,0-2.63,1.3,2,2,0,0,0-.63.71,2,2,0,0,0-.18.91A2.15,2.15,0,0,0,55,20.92a1.36,1.36,0,0,0,1.09.56,1.64,1.64,0,0,0,.65-.12,8,8,0,0,0,.78-.37l.55-.26a14.61,14.61,0,0,1,1.42-.63,4,4,0,0,1,1.36-.23,2.26,2.26,0,0,1,1.59.53A2,2,0,0,1,63,21.9a1.45,1.45,0,0,1-.65,1.32,4,4,0,0,1-2.08.42H59.14a1.51,1.51,0,0,0-1.22.54,2,2,0,0,0-.44,1.3,2,2,0,0,0,.44,1.3,1.49,1.49,0,0,0,1.22.55h1.62a3.93,3.93,0,0,1,2.13.44,1.65,1.65,0,0,1,.65,1.46,1.79,1.79,0,0,1-.64,1.56,3.6,3.6,0,0,1-2.09.47,5,5,0,0,1-1.5-.22,11.49,11.49,0,0,1-1.49-.64l-.33-.15-.24-.11a8.6,8.6,0,0,0-.78-.38,1.67,1.67,0,0,0-.65-.12,1.33,1.33,0,0,0-1.09.56,2.13,2.13,0,0,0-.45,1.37,1.88,1.88,0,0,0,.81,1.61,8.28,8.28,0,0,0,2.7,1.31A11.35,11.35,0,0,0,61,35a9.64,9.64,0,0,0,3.68-.64,5.42,5.42,0,0,0,2.43-1.81A4.46,4.46,0,0,0,68,29.75a4.63,4.63,0,0,0-.87-2.84A4.43,4.43,0,0,0,64.73,25.3Z"/><path d="M99.65,61.35V89.53a7.93,7.93,0,0,1-7.94,7.94H63.52a7.94,7.94,0,0,1-7.94-7.94V61.35a7.94,7.94,0,0,1,7.94-7.94H91.71A7.93,7.93,0,0,1,99.65,61.35ZM62,85.92a2.39,2.39,0,0,0,1.77-.64,2.31,2.31,0,0,0,.65-1.73V69.64a2.28,2.28,0,0,0-.65-1.7A2.39,2.39,0,0,0,62,67.3a2.19,2.19,0,0,0-2.36,2.34V83.55A2.19,2.19,0,0,0,62,85.92Zm14.07-7.65,2.81-2.78a1.52,1.52,0,0,0,.46-1.12,1.34,1.34,0,0,0-.46-1.06,1.47,1.47,0,0,0-1.1-.47,1.51,1.51,0,0,0-1.09.47l-2.81,2.8-2.8-2.8a1.53,1.53,0,0,0-1.09-.5,1.37,1.37,0,0,0-1.07.47,1.54,1.54,0,0,0-.47,1.12,1.61,1.61,0,0,0,.44,1.09l2.81,2.78-2.81,2.81a1.51,1.51,0,0,0-.47,1.09,1.49,1.49,0,0,0,.47,1.09,1.6,1.6,0,0,0,1.1.45,1.48,1.48,0,0,0,1.09-.45l2.8-2.8,2.81,2.8a1.54,1.54,0,0,0,2.63-1.09,1.45,1.45,0,0,0-.44-1.09Zm16.71-2a4.17,4.17,0,0,0,2.07-1.57,4.29,4.29,0,0,0,.74-2.51,4.53,4.53,0,0,0-.79-2.65,5.13,5.13,0,0,0-2.26-1.77,8.54,8.54,0,0,0-3.39-.62,10.26,10.26,0,0,0-3.09.47A8.61,8.61,0,0,0,83.42,69a2,2,0,0,0-.63.71,2,2,0,0,0-.18.91,2.15,2.15,0,0,0,.44,1.36,1.36,1.36,0,0,0,1.09.56,1.64,1.64,0,0,0,.65-.12,8,8,0,0,0,.78-.37l.55-.26a14.61,14.61,0,0,1,1.42-.63,4,4,0,0,1,1.36-.23,2.26,2.26,0,0,1,1.59.53,2,2,0,0,1,.57,1.5,1.45,1.45,0,0,1-.65,1.32,4,4,0,0,1-2.08.42H87.19a1.49,1.49,0,0,0-1.23.55,2.13,2.13,0,0,0,0,2.59,1.49,1.49,0,0,0,1.23.55H88.8a3.93,3.93,0,0,1,2.13.44,1.65,1.65,0,0,1,.65,1.46,1.79,1.79,0,0,1-.64,1.56,3.6,3.6,0,0,1-2.09.47,5,5,0,0,1-1.5-.22,11.49,11.49,0,0,1-1.49-.64l-.33-.14-.24-.12c-.33-.17-.59-.3-.78-.38a1.67,1.67,0,0,0-.65-.11,1.32,1.32,0,0,0-1.09.55,2.13,2.13,0,0,0-.45,1.37,2,2,0,0,0,.19.9,1.93,1.93,0,0,0,.62.71,8.28,8.28,0,0,0,2.7,1.31,11.35,11.35,0,0,0,3.25.46,9.64,9.64,0,0,0,3.68-.64,5.42,5.42,0,0,0,2.43-1.81,4.44,4.44,0,0,0,.86-2.75,4.63,4.63,0,0,0-.87-2.84A4.43,4.43,0,0,0,92.77,76.32Z"/><path d="M44.64,61.1V89.29a7.93,7.93,0,0,1-7.94,7.94H8.52A7.94,7.94,0,0,1,.57,89.29V61.1a8,8,0,0,1,8-7.94H36.7A7.94,7.94,0,0,1,44.64,61.1ZM6,85.67A2.42,2.42,0,0,0,7.75,85a2.29,2.29,0,0,0,.65-1.73V69.4a2.28,2.28,0,0,0-.65-1.71A2.42,2.42,0,0,0,6,67.06a2.37,2.37,0,0,0-1.73.63,2.34,2.34,0,0,0-.63,1.71V83.31A2.36,2.36,0,0,0,4.25,85,2.37,2.37,0,0,0,6,85.67ZM20.05,78l2.81-2.78a1.54,1.54,0,0,0,.47-1.12,1.39,1.39,0,0,0-.47-1.07,1.45,1.45,0,0,0-1.09-.46,1.52,1.52,0,0,0-1.1.46l-2.8,2.81-2.81-2.81A1.52,1.52,0,0,0,14,72.57,1.37,1.37,0,0,0,12.9,73a1.53,1.53,0,0,0-.47,1.12,1.63,1.63,0,0,0,.44,1.09L15.68,78l-2.81,2.81a1.52,1.52,0,0,0,0,2.18,1.59,1.59,0,0,0,1.1.44A1.47,1.47,0,0,0,15.06,83l2.81-2.81L20.67,83a1.53,1.53,0,0,0,1.1.47A1.51,1.51,0,0,0,22.86,83a1.49,1.49,0,0,0,.44-1.09,1.45,1.45,0,0,0-.44-1.09Zm16.72-2a4.19,4.19,0,0,0,2.06-1.57A4.29,4.29,0,0,0,39.57,72a4.51,4.51,0,0,0-.79-2.65,5,5,0,0,0-2.26-1.77A8.54,8.54,0,0,0,33.13,67a10.46,10.46,0,0,0-3.08.47,8.57,8.57,0,0,0-2.64,1.3,2.11,2.11,0,0,0-.63.7,2.08,2.08,0,0,0-.18.91A2.16,2.16,0,0,0,27,71.7a1.36,1.36,0,0,0,1.09.56,1.64,1.64,0,0,0,.65-.12,7.47,7.47,0,0,0,.78-.38l.55-.26a14.34,14.34,0,0,1,1.42-.62,3.81,3.81,0,0,1,1.36-.23,2.22,2.22,0,0,1,1.59.53,1.93,1.93,0,0,1,.57,1.49A1.47,1.47,0,0,1,34.4,74a4,4,0,0,1-2.08.42H31.18A1.52,1.52,0,0,0,30,75a2.14,2.14,0,0,0,0,2.6,1.49,1.49,0,0,0,1.23.55h1.61a3.84,3.84,0,0,1,2.13.44A1.64,1.64,0,0,1,35.57,80a1.81,1.81,0,0,1-.64,1.56,3.61,3.61,0,0,1-2.09.46,4.62,4.62,0,0,1-1.49-.22,10.84,10.84,0,0,1-1.5-.63L29.53,81l-.25-.11a8.6,8.6,0,0,0-.78-.38,1.67,1.67,0,0,0-.65-.12,1.35,1.35,0,0,0-1.09.56,2.11,2.11,0,0,0-.45,1.37,2,2,0,0,0,.19.89,2.14,2.14,0,0,0,.62.72,8.28,8.28,0,0,0,2.7,1.31,11.71,11.71,0,0,0,3.25.46,9.84,9.84,0,0,0,3.68-.64,5.49,5.49,0,0,0,2.43-1.81A4.48,4.48,0,0,0,40,80.53a4.63,4.63,0,0,0-.87-2.84A4.44,4.44,0,0,0,36.77,76.08Z"/></svg>