<svg id="Layer_1" data-name="Layer 1" xmlns="http://www.w3.org/2000/svg" viewBox="0 0 100 100"><title>l22_2_1</title><path d="M99.61,61.93V90.11a7.94,7.94,0,0,1-7.94,7.94H63.48a7.94,7.94,0,0,1-7.94-7.94V61.93A7.94,7.94,0,0,1,63.48,54H91.67A7.94,7.94,0,0,1,99.61,61.93ZM70.66,77.12l3.46-3.42a1.89,1.89,0,0,0,.58-1.38A1.69,1.69,0,0,0,74.12,71a1.78,1.78,0,0,0-1.34-.57,1.86,1.86,0,0,0-1.35.57L68,74.47,64.52,71a1.89,1.89,0,0,0-1.34-.61,1.7,1.7,0,0,0-1.32.58,1.88,1.88,0,0,0-.57,1.38,2,2,0,0,0,.54,1.34l3.46,3.42-3.46,3.46a1.84,1.84,0,0,0-.57,1.34,1.86,1.86,0,0,0,.57,1.35,2,2,0,0,0,1.35.54,1.82,1.82,0,0,0,1.34-.54L68,79.81l3.45,3.46a1.86,1.86,0,0,0,1.35.57,1.89,1.89,0,0,0,1.88-1.92,1.76,1.76,0,0,0-.54-1.34Zm23-13.34H81.1a3.19,3.19,0,0,0-2.12.59,2.28,2.28,0,0,0-.67,1.78A2.18,2.18,0,0,0,79,67.88a3.21,3.21,0,0,0,2.13.57h8l-8.23,14A3,3,0,0,0,80.42,84a2.36,2.36,0,0,0,.87,1.84,2.93,2.93,0,0,0,2,.75,2.81,2.81,0,0,0,1.36-.37,3,3,0,0,0,1.11-1.14l9.69-16.8A4,4,0,0,0,96,66.21a2.52,2.52,0,0,0-.62-1.74A2.28,2.28,0,0,0,93.64,63.78Z"/><path d="M44.6,61.68V89.87a8,8,0,0,1-7.94,7.94H8.47A8,8,0,0,1,.53,89.87V61.68a8,8,0,0,1,7.94-7.94H36.66A8,8,0,0,1,44.6,61.68ZM14.66,76.88l3.45-3.42a1.88,1.88,0,0,0,.58-1.38,1.66,1.66,0,0,0-.58-1.31,1.75,1.75,0,0,0-1.34-.58,1.83,1.83,0,0,0-1.35.58L12,74.22,8.51,70.77a1.83,1.83,0,0,0-1.34-.61,1.65,1.65,0,0,0-1.31.58,1.84,1.84,0,0,0-.58,1.37,2,2,0,0,0,.54,1.35l3.46,3.42L5.82,80.34a1.86,1.86,0,0,0,0,2.68,2,2,0,0,0,1.35.55A1.8,1.8,0,0,0,8.51,83L12,79.57,15.42,83a1.83,1.83,0,0,0,1.35.58A1.81,1.81,0,0,0,18.11,83a1.83,1.83,0,0,0,.55-1.34,1.77,1.77,0,0,0-.55-1.34Zm23-13.34H25.09a3.09,3.09,0,0,0-2.11.59,2.22,2.22,0,0,0-.68,1.77A2.17,2.17,0,0,0,23,67.63a3.17,3.17,0,0,0,2.13.58h8L24.86,82.26a3,3,0,0,0-.45,1.53,2.33,2.33,0,0,0,.87,1.84,3,3,0,0,0,2,.75A2.77,2.77,0,0,0,28.62,86a3,3,0,0,0,1.11-1.14l9.69-16.8A4,4,0,0,0,40,66a2.53,2.53,0,0,0-.62-1.75A2.31,2.31,0,0,0,37.63,63.54Z"/><path d="M71.57,10.91V39.09A7.94,7.94,0,0,1,63.63,47H35.44a7.94,7.94,0,0,1-7.94-7.94V10.91A7.94,7.94,0,0,1,35.44,3H63.63A7.94,7.94,0,0,1,71.57,10.91ZM42.62,26.1l3.46-3.42a1.91,1.91,0,0,0,.58-1.38A1.69,1.69,0,0,0,46.08,20a1.79,1.79,0,0,0-1.34-.58,1.87,1.87,0,0,0-1.35.58l-3.45,3.46L36.48,20a1.89,1.89,0,0,0-1.34-.61,1.67,1.67,0,0,0-1.32.58,1.87,1.87,0,0,0-.57,1.37,2,2,0,0,0,.54,1.35l3.46,3.42-3.46,3.46a1.84,1.84,0,0,0-.57,1.34,1.88,1.88,0,0,0,.57,1.35,2,2,0,0,0,1.35.54,1.82,1.82,0,0,0,1.34-.54l3.46-3.46,3.45,3.46a1.86,1.86,0,0,0,1.35.57,1.89,1.89,0,0,0,1.88-1.92,1.76,1.76,0,0,0-.54-1.34Zm23-13.34H53.06a3.19,3.19,0,0,0-2.12.59,2.28,2.28,0,0,0-.67,1.78,2.18,2.18,0,0,0,.66,1.73,3.21,3.21,0,0,0,2.13.57h8L52.83,31.48A3,3,0,0,0,52.38,33a2.36,2.36,0,0,0,.87,1.84,2.93,2.93,0,0,0,2,.75,2.81,2.81,0,0,0,1.36-.37A3,3,0,0,0,57.7,34.1l9.69-16.8A4,4,0,0,0,68,15.19a2.52,2.52,0,0,0-.62-1.74A2.28,2.28,0,0,0,65.6,12.76Z"/></svg>