<svg id="Layer_1" data-name="Layer 1" xmlns="http://www.w3.org/2000/svg" viewBox="0 0 100 100"><title>l22_1_1</title><path d="M99.65,61.35V89.53a7.93,7.93,0,0,1-7.94,7.94H63.52a7.94,7.94,0,0,1-7.94-7.94V61.35a7.94,7.94,0,0,1,7.94-7.94H91.71A7.93,7.93,0,0,1,99.65,61.35ZM65.26,79.52h5.9a2.83,2.83,0,0,0,2-.58,2.05,2.05,0,0,0,.64-1.61,2,2,0,0,0-.64-1.6,2.89,2.89,0,0,0-2-.57h-5.9c-1.73,0-2.6.72-2.6,2.17S63.53,79.52,65.26,79.52Zm24.12-5.14a4.77,4.77,0,0,0,2.46-1.85,5.44,5.44,0,0,0,.89-3.14A5.16,5.16,0,0,0,90.55,65a9.74,9.74,0,0,0-5.94-1.62A9.79,9.79,0,0,0,78.68,65a5.16,5.16,0,0,0-2.19,4.4,5.32,5.32,0,0,0,.88,3.06,5.13,5.13,0,0,0,2.51,1.93,5.18,5.18,0,0,0-2.95,1.86,5.54,5.54,0,0,0-1,3.44,5.4,5.4,0,0,0,2.34,4.65A10.74,10.74,0,0,0,84.61,86,10.71,10.71,0,0,0,91,84.33a5.4,5.4,0,0,0,2.34-4.65,5.16,5.16,0,0,0-4-5.3Zm-4.77,7.27c-2.28,0-3.42-.81-3.42-2.44s1.14-2.45,3.42-2.45S88,77.58,88,79.21,86.89,81.65,84.61,81.65Zm0-13.92a3.31,3.31,0,0,1,2.1.55,2.12,2.12,0,0,1,.69,1.77,2.18,2.18,0,0,1-.69,1.79,4.22,4.22,0,0,1-4.2,0,2.18,2.18,0,0,1-.69-1.79,2.12,2.12,0,0,1,.69-1.77A3.31,3.31,0,0,1,84.61,67.73Z"/><path d="M44.64,61.1V89.29a7.93,7.93,0,0,1-7.94,7.94H8.52A7.94,7.94,0,0,1,.57,89.29V61.1a8,8,0,0,1,8-7.94H36.7A7.94,7.94,0,0,1,44.64,61.1ZM9.25,79.28h5.9a2.89,2.89,0,0,0,2-.58,2.07,2.07,0,0,0,.64-1.62,2,2,0,0,0-.64-1.6,2.94,2.94,0,0,0-2-.56H9.25c-1.73,0-2.6.72-2.6,2.16S7.52,79.28,9.25,79.28Zm24.12-5.14a4.82,4.82,0,0,0,2.46-1.85,5.44,5.44,0,0,0,.89-3.14,5.19,5.19,0,0,0-2.18-4.41,9.81,9.81,0,0,0-5.94-1.61,9.8,9.8,0,0,0-5.92,1.61,5.18,5.18,0,0,0-2.2,4.41,5.32,5.32,0,0,0,.88,3.06,5.18,5.18,0,0,0,2.51,1.93A5.18,5.18,0,0,0,20.92,76a5.54,5.54,0,0,0-1,3.44,5.41,5.41,0,0,0,2.34,4.65,10.76,10.76,0,0,0,6.38,1.68A10.71,10.71,0,0,0,35,84.09a5.41,5.41,0,0,0,2.34-4.65,5.49,5.49,0,0,0-1-3.38A5.41,5.41,0,0,0,33.37,74.14ZM28.6,81.41c-2.28,0-3.42-.81-3.42-2.45s1.14-2.44,3.42-2.44S32,77.33,32,79,30.88,81.41,28.6,81.41Zm0-13.92a3.31,3.31,0,0,1,2.1.55,2.11,2.11,0,0,1,.69,1.77,2.19,2.19,0,0,1-.69,1.79,3.31,3.31,0,0,1-2.1.56,3.31,3.31,0,0,1-2.1-.56,2.19,2.19,0,0,1-.69-1.79A2.11,2.11,0,0,1,26.5,68,3.31,3.31,0,0,1,28.6,67.49Z"/><path d="M71.61,10.33V38.51a7.93,7.93,0,0,1-7.94,7.94H35.48a7.94,7.94,0,0,1-7.94-7.94V10.33a7.94,7.94,0,0,1,7.94-7.94H63.67A7.93,7.93,0,0,1,71.61,10.33ZM37.22,28.5h5.9a2.83,2.83,0,0,0,2-.58,2.05,2.05,0,0,0,.64-1.61,2,2,0,0,0-.64-1.6,2.89,2.89,0,0,0-2-.57h-5.9c-1.73,0-2.6.72-2.6,2.17S35.49,28.5,37.22,28.5Zm24.12-5.14a4.77,4.77,0,0,0,2.46-1.85,5.44,5.44,0,0,0,.89-3.14A5.16,5.16,0,0,0,62.51,14a9.74,9.74,0,0,0-5.94-1.62A9.79,9.79,0,0,0,50.64,14a5.16,5.16,0,0,0-2.19,4.4,5.32,5.32,0,0,0,.88,3.06,5.13,5.13,0,0,0,2.51,1.93,5.18,5.18,0,0,0-3,1.86,5.54,5.54,0,0,0-1,3.44,5.4,5.4,0,0,0,2.34,4.65A10.74,10.74,0,0,0,56.57,35,10.71,10.71,0,0,0,63,33.31a5.4,5.4,0,0,0,2.34-4.65,5.16,5.16,0,0,0-4-5.3Zm-4.77,7.27c-2.28,0-3.42-.81-3.42-2.44s1.14-2.45,3.42-2.45S60,26.56,60,28.19,58.85,30.63,56.57,30.63Zm0-13.92a3.31,3.31,0,0,1,2.1.55A2.12,2.12,0,0,1,59.36,19a2.18,2.18,0,0,1-.69,1.79,4.22,4.22,0,0,1-4.2,0A2.18,2.18,0,0,1,53.78,19a2.12,2.12,0,0,1,.69-1.77A3.31,3.31,0,0,1,56.57,16.71Z"/></svg>