<svg id="Layer_1" data-name="Layer 1" xmlns="http://www.w3.org/2000/svg" viewBox="0 0 100 100"><title>l22_2_1</title><path d="M99.61,61.93V90.11a7.94,7.94,0,0,1-7.94,7.94H63.48a7.94,7.94,0,0,1-7.94-7.94V61.93A7.94,7.94,0,0,1,63.48,54H91.67A7.94,7.94,0,0,1,99.61,61.93ZM70.66,77.12l3.46-3.42a1.89,1.89,0,0,0,.58-1.38A1.69,1.69,0,0,0,74.12,71a1.78,1.78,0,0,0-1.34-.57,1.86,1.86,0,0,0-1.35.57L68,74.47,64.52,71a1.89,1.89,0,0,0-1.35-.61,1.69,1.69,0,0,0-1.31.58,1.88,1.88,0,0,0-.57,1.38,2,2,0,0,0,.54,1.34l3.46,3.42-3.46,3.46a1.84,1.84,0,0,0-.57,1.34,1.86,1.86,0,0,0,.57,1.35,2,2,0,0,0,1.34.54,1.83,1.83,0,0,0,1.35-.54L68,79.81l3.46,3.46a1.86,1.86,0,0,0,1.35.57,1.89,1.89,0,0,0,1.88-1.92,1.76,1.76,0,0,0-.54-1.34Zm23.4.93h-.71V66.5a2.72,2.72,0,0,0-.86-2.14,3,3,0,0,0-2.08-.77,3.29,3.29,0,0,0-1.43.33,3,3,0,0,0-1.13,1L78.7,78A3.57,3.57,0,0,0,78,80.07a2.49,2.49,0,0,0,.67,1.76,2.41,2.41,0,0,0,1.83.7h7.13v1.09a2.83,2.83,0,0,0,.79,2.18,2.88,2.88,0,0,0,2.06.73,3,3,0,0,0,2.08-.73,2.83,2.83,0,0,0,.8-2.18V82.53h.71c1.85,0,2.78-.76,2.78-2.27S95.91,78.05,94.06,78.05Zm-10.28,0,3.84-5.53v5.53Z"/><path d="M44.6,61.68V89.87a8,8,0,0,1-7.94,7.94H8.47A8,8,0,0,1,.53,89.87V61.68a8,8,0,0,1,7.94-7.94H36.66A8,8,0,0,1,44.6,61.68ZM14.65,76.88l3.46-3.42a1.92,1.92,0,0,0,.58-1.38,1.69,1.69,0,0,0-.58-1.31,1.75,1.75,0,0,0-1.34-.58,1.83,1.83,0,0,0-1.35.58L12,74.22,8.51,70.77a1.85,1.85,0,0,0-1.34-.61,1.68,1.68,0,0,0-1.32.58,1.87,1.87,0,0,0-.57,1.37,2,2,0,0,0,.54,1.35l3.46,3.42L5.82,80.34a1.86,1.86,0,0,0,0,2.68,2,2,0,0,0,1.35.55A1.8,1.8,0,0,0,8.51,83L12,79.57,15.42,83a1.83,1.83,0,0,0,1.35.58,1.91,1.91,0,0,0,1.88-1.92,1.76,1.76,0,0,0-.54-1.34Zm23.4.93h-.71V66.26a2.76,2.76,0,0,0-.86-2.15,3,3,0,0,0-2.08-.77,3.3,3.3,0,0,0-1.43.34,3,3,0,0,0-1.13,1l-9.15,13A3.59,3.59,0,0,0,22,79.82a2.5,2.5,0,0,0,.67,1.77,2.45,2.45,0,0,0,1.83.7h7.13v1.09a2.84,2.84,0,0,0,.79,2.17,2.89,2.89,0,0,0,2.06.74,2.94,2.94,0,0,0,2.08-.74,2.77,2.77,0,0,0,.8-2.17V82.29h.71c1.85,0,2.78-.76,2.78-2.27S39.9,77.81,38.05,77.81Zm-10.28,0,3.84-5.54v5.54Z"/><path d="M71.57,10.91V39.09A7.94,7.94,0,0,1,63.63,47H35.44a7.94,7.94,0,0,1-7.94-7.94V10.91A7.94,7.94,0,0,1,35.44,3H63.63A7.94,7.94,0,0,1,71.57,10.91ZM42.62,26.1l3.46-3.42a1.89,1.89,0,0,0,.58-1.38A1.69,1.69,0,0,0,46.08,20a1.78,1.78,0,0,0-1.34-.57,1.86,1.86,0,0,0-1.35.57l-3.46,3.46L36.48,20a1.89,1.89,0,0,0-1.35-.61,1.69,1.69,0,0,0-1.31.58,1.88,1.88,0,0,0-.57,1.38,2,2,0,0,0,.54,1.34l3.46,3.42-3.46,3.46a1.84,1.84,0,0,0-.57,1.34,1.86,1.86,0,0,0,.57,1.35,2,2,0,0,0,1.34.54,1.83,1.83,0,0,0,1.35-.54l3.45-3.46,3.46,3.46a1.86,1.86,0,0,0,1.35.57,1.89,1.89,0,0,0,1.88-1.92,1.76,1.76,0,0,0-.54-1.34ZM66,27h-.71V15.48a2.72,2.72,0,0,0-.86-2.14,3,3,0,0,0-2.08-.77,3.29,3.29,0,0,0-1.43.33,3,3,0,0,0-1.13,1L50.66,26.94A3.57,3.57,0,0,0,50,29.05a2.45,2.45,0,0,0,.67,1.76,2.41,2.41,0,0,0,1.83.7h7.13V32.6a2.83,2.83,0,0,0,.79,2.18,2.88,2.88,0,0,0,2.06.73,3,3,0,0,0,2.08-.73,2.83,2.83,0,0,0,.8-2.18V31.51H66c1.85,0,2.78-.76,2.78-2.27S67.87,27,66,27ZM55.74,27l3.84-5.53V27Z"/></svg>