<svg id="Layer_1" data-name="Layer 1" xmlns="http://www.w3.org/2000/svg" viewBox="0 0 100 100"><title>l22_1_1</title><path d="M99.61,61.93V90.11a7.94,7.94,0,0,1-7.94,7.94H63.48a7.94,7.94,0,0,1-7.94-7.94V61.93A7.94,7.94,0,0,1,63.48,54H91.67A7.94,7.94,0,0,1,99.61,61.93ZM65.22,80.1h5.9a2.85,2.85,0,0,0,2-.58,2.09,2.09,0,0,0,.64-1.62,2,2,0,0,0-.64-1.59,2.9,2.9,0,0,0-2-.57h-5.9c-1.73,0-2.6.72-2.6,2.16S63.49,80.1,65.22,80.1Zm20.89-8.22a7.78,7.78,0,0,0-3.11.57V68.59h6.77q2.73,0,2.73-2.19c0-1.45-.91-2.17-2.73-2.17H80.05a2.67,2.67,0,0,0-2,.69,2.72,2.72,0,0,0-.69,2v8.5A1.73,1.73,0,0,0,78,76.79a2.16,2.16,0,0,0,1.48.52A3,3,0,0,0,80.87,77a10.82,10.82,0,0,1,1.8-.56,8.88,8.88,0,0,1,1.71-.16,3.52,3.52,0,0,1,2.45.79,2.79,2.79,0,0,1,.87,2.19,2.72,2.72,0,0,1-.84,2.21,4,4,0,0,1-2.6.71,5.38,5.38,0,0,1-1.74-.28,16.31,16.31,0,0,1-1.78-.76l-.62-.31a9.93,9.93,0,0,0-.94-.47,2.25,2.25,0,0,0-.79-.13,1.64,1.64,0,0,0-1.32.68,2.61,2.61,0,0,0-.53,1.65,2.32,2.32,0,0,0,.24,1.08,2.73,2.73,0,0,0,.73.86A10.39,10.39,0,0,0,80.73,86a13.26,13.26,0,0,0,3.81.56A10.11,10.11,0,0,0,89,85.65,7,7,0,0,0,92,83a7.38,7.38,0,0,0,1.07-4,7.47,7.47,0,0,0-.9-3.71,6.28,6.28,0,0,0-2.47-2.51A7.23,7.23,0,0,0,86.11,71.88Z"/><path d="M44.6,61.68V89.87a8,8,0,0,1-7.94,7.94H8.47A8,8,0,0,1,.53,89.87V61.68a8,8,0,0,1,7.94-7.94H36.66A8,8,0,0,1,44.6,61.68ZM9.21,79.86h5.9a2.89,2.89,0,0,0,2-.58,2.07,2.07,0,0,0,.64-1.62,2,2,0,0,0-.64-1.6,2.94,2.94,0,0,0-2-.56H9.21c-1.73,0-2.6.72-2.6,2.16S7.48,79.86,9.21,79.86ZM30.1,71.64a7.81,7.81,0,0,0-3.11.57V68.35h6.78c1.81,0,2.72-.73,2.72-2.2S35.58,64,33.77,64H24a2.67,2.67,0,0,0-2,.69,2.72,2.72,0,0,0-.69,2v8.5a1.72,1.72,0,0,0,.6,1.36,2.16,2.16,0,0,0,1.47.52,3,3,0,0,0,1.41-.35,10.82,10.82,0,0,1,1.8-.56A8.22,8.22,0,0,1,28.37,76a3.57,3.57,0,0,1,2.45.78A2.83,2.83,0,0,1,31.7,79a2.73,2.73,0,0,1-.85,2.21,4,4,0,0,1-2.6.7,5.12,5.12,0,0,1-1.74-.28,15.24,15.24,0,0,1-1.77-.75l-.63-.31a8.85,8.85,0,0,0-.94-.47,2,2,0,0,0-.79-.13,1.61,1.61,0,0,0-1.31.68,2.51,2.51,0,0,0-.54,1.64,2.27,2.27,0,0,0,.24,1.08,2.75,2.75,0,0,0,.73.87,10.27,10.27,0,0,0,3.22,1.56,12.93,12.93,0,0,0,3.81.57A10.25,10.25,0,0,0,33,85.41a7.06,7.06,0,0,0,3-2.67,7.41,7.41,0,0,0,1.07-4A7.64,7.64,0,0,0,36.2,75a6.5,6.5,0,0,0-2.48-2.51A7.3,7.3,0,0,0,30.1,71.64Z"/><path d="M71.57,10.91V39.09A7.94,7.94,0,0,1,63.63,47H35.44a7.94,7.94,0,0,1-7.94-7.94V10.91A7.94,7.94,0,0,1,35.44,3H63.63A7.94,7.94,0,0,1,71.57,10.91ZM37.18,29.08h5.9a2.85,2.85,0,0,0,2-.58,2.11,2.11,0,0,0,.64-1.62A2,2,0,0,0,45,25.29a2.9,2.9,0,0,0-2-.57h-5.9c-1.73,0-2.6.72-2.6,2.16S35.45,29.08,37.18,29.08Zm20.89-8.22a7.78,7.78,0,0,0-3.11.57V17.57h6.77q2.73,0,2.73-2.19c0-1.45-.91-2.17-2.73-2.17H52a2.67,2.67,0,0,0-2,.69,2.72,2.72,0,0,0-.69,2v8.5a1.73,1.73,0,0,0,.59,1.36,2.16,2.16,0,0,0,1.48.52,3,3,0,0,0,1.41-.35,10.82,10.82,0,0,1,1.8-.56,8.15,8.15,0,0,1,1.71-.16,3.52,3.52,0,0,1,2.45.79,2.79,2.79,0,0,1,.87,2.19,2.72,2.72,0,0,1-.84,2.21,4,4,0,0,1-2.6.71,5.38,5.38,0,0,1-1.74-.28,16.31,16.31,0,0,1-1.78-.76l-.62-.31a9.93,9.93,0,0,0-.94-.47,2.25,2.25,0,0,0-.79-.13,1.64,1.64,0,0,0-1.32.68,2.6,2.6,0,0,0-.53,1.64,2.34,2.34,0,0,0,.24,1.09,2.73,2.73,0,0,0,.73.86A10.39,10.39,0,0,0,52.69,35a13.26,13.26,0,0,0,3.81.56A10.11,10.11,0,0,0,61,34.63,7.06,7.06,0,0,0,64,32a7.41,7.41,0,0,0,1.07-4,7.47,7.47,0,0,0-.9-3.71,6.28,6.28,0,0,0-2.47-2.51A7.23,7.23,0,0,0,58.07,20.86Z"/></svg>