<svg id="Layer_1" data-name="Layer 1" xmlns="http://www.w3.org/2000/svg" viewBox="0 0 100 100"><title>l22_5_1</title><path d="M84.75,61.68V89.87a8,8,0,0,1-7.94,7.94H24.39a8,8,0,0,1-7.94-7.94V61.68a8,8,0,0,1,7.94-7.94H76.81A8,8,0,0,1,84.75,61.68ZM33.12,90.46a9.34,9.34,0,0,0,8-3.72Q43.88,83,43.88,76T41.1,65.26a9.35,9.35,0,0,0-8-3.72,9.35,9.35,0,0,0-8,3.72Q22.36,69,22.36,76t2.76,10.76A9.35,9.35,0,0,0,33.12,90.46Zm0-5.56a2.87,2.87,0,0,1-2.76-2.08A19.94,19.94,0,0,1,29.52,76a19.69,19.69,0,0,1,.84-6.82,2.88,2.88,0,0,1,5.52,0,19.71,19.71,0,0,1,.84,6.8,19.94,19.94,0,0,1-.84,6.84A2.86,2.86,0,0,1,33.12,84.9Zm17.45,5.44a3.69,3.69,0,0,0,2.73-1.12,4,4,0,0,0,0-5.52,3.65,3.65,0,0,0-2.73-1.12,3.74,3.74,0,0,0-2.79,1.12,3.88,3.88,0,0,0,2.79,6.64Zm26-10.6h-.88V65.3a3.39,3.39,0,0,0-1.08-2.68,3.77,3.77,0,0,0-2.6-1,4,4,0,0,0-1.78.42,3.7,3.7,0,0,0-1.42,1.22L57.41,79.62a4.44,4.44,0,0,0-.89,2.64,3.07,3.07,0,0,0,.84,2.2,3,3,0,0,0,2.28.88h8.92V86.7a3.58,3.58,0,0,0,1,2.72,4.11,4.11,0,0,0,5.18,0,3.51,3.51,0,0,0,1-2.72V85.34h.88q3.48,0,3.48-2.84T76.6,79.74Zm-12.84,0,4.8-6.92v6.92Z"/><path d="M71.57,10.91V39.09A7.94,7.94,0,0,1,63.63,47H35.44a7.94,7.94,0,0,1-7.94-7.94V10.91A7.94,7.94,0,0,1,35.44,3H63.63A7.94,7.94,0,0,1,71.57,10.91Zm-9.44,21L44.31,25,62.13,18.2a3,3,0,0,0,2-2.94,3.69,3.69,0,0,0-1.05-2.73,3.62,3.62,0,0,0-2.67-1,5.64,5.64,0,0,0-1.86.36l-20,7.74a5.94,5.94,0,0,0-2.73,2.19,5.73,5.73,0,0,0-1,3.27,5.78,5.78,0,0,0,1,3.36,5.65,5.65,0,0,0,2.73,2.1l20,7.74a5.64,5.64,0,0,0,1.86.36,3.62,3.62,0,0,0,2.67-1.05,3.69,3.69,0,0,0,1.05-2.73,3,3,0,0,0-.54-1.77A3.55,3.55,0,0,0,62.13,31.88Z"/></svg>