<svg id="Layer_1" data-name="Layer 1" xmlns="http://www.w3.org/2000/svg" viewBox="0 0 100 100"><title>l22_5_1</title><path d="M84.75,61.68V89.87a8,8,0,0,1-7.94,7.94H24.39a8,8,0,0,1-7.94-7.94V61.68a8,8,0,0,1,7.94-7.94H76.81A8,8,0,0,1,84.75,61.68ZM40.07,84.26H36.79v-19a3.48,3.48,0,0,0-1-2.6,3.55,3.55,0,0,0-2.58-1,6.72,6.72,0,0,0-3.32,1l-6.4,3.72a2.7,2.7,0,0,0-1.4,2.48,3.34,3.34,0,0,0,.8,2.18,2.41,2.41,0,0,0,1.92,1,2.81,2.81,0,0,0,1.4-.4l3.2-1.88V84.26H26.19a4,4,0,0,0-2.64.72,2.69,2.69,0,0,0-.84,2.16q0,3,3.48,3H40.07q3.48,0,3.48-3A2.69,2.69,0,0,0,42.71,85,4,4,0,0,0,40.07,84.26Zm8.56,7.12,9.08-28.52a5,5,0,0,0,.16-.88A2.34,2.34,0,0,0,57,60.1a3,3,0,0,0-2-.72,2.65,2.65,0,0,0-1.54.48,2.68,2.68,0,0,0-1,1.44L43.39,89.82a2.58,2.58,0,0,0-.16.92,2.32,2.32,0,0,0,.84,1.84,2.91,2.91,0,0,0,2,.72,2.75,2.75,0,0,0,1.58-.48A2.79,2.79,0,0,0,48.63,91.38Zm29-29.48H62a3.89,3.89,0,0,0-2.64.74,2.79,2.79,0,0,0-.84,2.22A2.71,2.71,0,0,0,59.29,67a4,4,0,0,0,2.66.72H72L61.67,85.3a3.72,3.72,0,0,0-.56,1.92,3,3,0,0,0,1.08,2.3,3.69,3.69,0,0,0,2.48.94,3.53,3.53,0,0,0,1.7-.46,3.85,3.85,0,0,0,1.38-1.42l12.12-21a5.21,5.21,0,0,0,.76-2.64,3.12,3.12,0,0,0-.78-2.18A2.82,2.82,0,0,0,77.63,61.9Z"/><path d="M71.57,10.91V39.09A7.94,7.94,0,0,1,63.63,47H35.44a7.94,7.94,0,0,1-7.94-7.94V10.91A7.94,7.94,0,0,1,35.44,3H63.63A7.94,7.94,0,0,1,71.57,10.91ZM44.88,39.32H56.06a3.41,3.41,0,0,0,2.23-.61A2.34,2.34,0,0,0,59,36.8c0-1.7-1-2.55-3-2.55H48.24v-16A3,3,0,0,0,47.39,16a3.16,3.16,0,0,0-2.31-.83,3.08,3.08,0,0,0-2.26.83A3,3,0,0,0,42,18.24V36.4a2.61,2.61,0,0,0,2.89,2.92Z"/></svg>