<svg id="Layer_1" data-name="Layer 1" xmlns="http://www.w3.org/2000/svg" viewBox="0 0 100 100"><title>l22_5_1</title><path d="M84.75,61.68V89.87a8,8,0,0,1-7.94,7.94H24.39a8,8,0,0,1-7.94-7.94V61.68a8,8,0,0,1,7.94-7.94H76.81A8,8,0,0,1,84.75,61.68ZM33.13,90.46a9.35,9.35,0,0,0,8-3.72Q43.89,83,43.89,76T41.11,65.26a9.38,9.38,0,0,0-8-3.72,9.34,9.34,0,0,0-8,3.72Q22.37,69,22.37,76t2.76,10.76A9.34,9.34,0,0,0,33.13,90.46Zm0-5.56a2.87,2.87,0,0,1-2.76-2.08A19.94,19.94,0,0,1,29.53,76a19.69,19.69,0,0,1,.84-6.82,2.88,2.88,0,0,1,5.52,0,19.77,19.77,0,0,1,.83,6.8,20,20,0,0,1-.83,6.84A2.87,2.87,0,0,1,33.13,84.9Zm17.44,5.44a3.73,3.73,0,0,0,2.74-1.12,4,4,0,0,0,0-5.52,4,4,0,0,0-5.52,0,3.88,3.88,0,0,0,2.78,6.64ZM73.09,75.58a6.54,6.54,0,0,0,3.18-2.42,6.75,6.75,0,0,0,1.14-3.86,6.93,6.93,0,0,0-1.23-4.08,7.77,7.77,0,0,0-3.47-2.72,13.28,13.28,0,0,0-5.22-1,16,16,0,0,0-4.74.72,13.11,13.11,0,0,0-4.07,2,2.71,2.71,0,0,0-1.23,2.48,3.27,3.27,0,0,0,.68,2.1,2.07,2.07,0,0,0,1.68.86,2.66,2.66,0,0,0,1-.18c.29-.12.69-.32,1.2-.58l.84-.4a20.87,20.87,0,0,1,2.17-1,6.11,6.11,0,0,1,2.11-.36,3.39,3.39,0,0,1,2.43.82,3,3,0,0,1,.89,2.3,2.26,2.26,0,0,1-1,2,6.22,6.22,0,0,1-3.2.64H64.49a2.3,2.3,0,0,0-1.89.84,3.32,3.32,0,0,0,0,4,2.3,2.3,0,0,0,1.89.84H67a6,6,0,0,1,3.28.68,2.52,2.52,0,0,1,1,2.24,2.79,2.79,0,0,1-1,2.4,5.57,5.57,0,0,1-3.22.72,7.42,7.42,0,0,1-2.3-.34,18.53,18.53,0,0,1-2.3-1L62,83.2,61.56,83c-.5-.27-.9-.46-1.19-.58a2.66,2.66,0,0,0-1-.18,2.07,2.07,0,0,0-1.69.86,3.28,3.28,0,0,0-.67,2.1,2.8,2.8,0,0,0,1.24,2.48,12.9,12.9,0,0,0,4.16,2,18,18,0,0,0,5,.7,15.05,15.05,0,0,0,5.65-1,8.45,8.45,0,0,0,3.75-2.78,7.62,7.62,0,0,0,0-8.6A6.82,6.82,0,0,0,73.09,75.58Z"/><path d="M71.57,10.91V39.09A7.94,7.94,0,0,1,63.63,47H35.44a7.94,7.94,0,0,1-7.94-7.94V10.91A7.94,7.94,0,0,1,35.44,3H63.63A7.94,7.94,0,0,1,71.57,10.91ZM44.88,37.32H56.06a3.41,3.41,0,0,0,2.23-.61A2.35,2.35,0,0,0,59,34.8c0-1.7-1-2.55-3-2.55H48.24v-16A3,3,0,0,0,47.39,14a3.17,3.17,0,0,0-2.31-.83,3.07,3.07,0,0,0-2.26.83A3,3,0,0,0,42,16.24V34.4a2.61,2.61,0,0,0,2.89,2.92Z"/></svg>