<svg id="Layer_1" data-name="Layer 1" xmlns="http://www.w3.org/2000/svg" viewBox="0 0 100 100"><title>l22_2_1</title><path d="M99.61,61.93V90.11a7.94,7.94,0,0,1-7.94,7.94H63.48a7.94,7.94,0,0,1-7.94-7.94V61.93A7.94,7.94,0,0,1,63.48,54H91.67A7.94,7.94,0,0,1,99.61,61.93ZM62.25,79H74.09a1.77,1.77,0,0,0,1.34-.56A1.88,1.88,0,0,0,76,77.12a1.86,1.86,0,0,0-1.89-1.88H62.25a1.79,1.79,0,0,0-1.35.56,1.87,1.87,0,0,0-.54,1.36,1.82,1.82,0,0,0,.54,1.34A1.85,1.85,0,0,0,62.25,79ZM68,73a1.93,1.93,0,0,0,1.45-.61,2,2,0,0,0,.6-1.47,2,2,0,0,0-.6-1.44,2,2,0,0,0-2.89,0A2,2,0,0,0,66,71a2.05,2.05,0,0,0,.58,1.47A1.87,1.87,0,0,0,68,73Zm0,12.35a1.93,1.93,0,0,0,1.45-.61,2,2,0,0,0,.6-1.44,2,2,0,0,0-.6-1.47A1.93,1.93,0,0,0,68,81.25a1.87,1.87,0,0,0-1.44.61A2.05,2.05,0,0,0,66,83.33a2,2,0,0,0,.58,1.46A1.93,1.93,0,0,0,68,85.38ZM89.1,71.49a6.22,6.22,0,0,0-2.71.59,5.17,5.17,0,0,0-2,1.62,8.6,8.6,0,0,1,1.2-4.18A3.08,3.08,0,0,1,88.26,68a4.3,4.3,0,0,1,1.48.25c.46.17,1.05.43,1.76.77l.7.35c.41.21.72.37,1,.47A2.2,2.2,0,0,0,94,70a1.7,1.7,0,0,0,1.36-.69,2.6,2.6,0,0,0,.56-1.68,2.35,2.35,0,0,0-.24-1.12,2.79,2.79,0,0,0-.78-.86,10.22,10.22,0,0,0-3.22-1.6A12.24,12.24,0,0,0,88,63.49a8.68,8.68,0,0,0-5,1.44A9.33,9.33,0,0,0,79.7,69a15.54,15.54,0,0,0-1.16,6.26q0,5.45,2.46,8.38a8.57,8.57,0,0,0,7,2.95,8.27,8.27,0,0,0,4.06-1,7.24,7.24,0,0,0,2.8-2.77,8,8,0,0,0,1-4A8.11,8.11,0,0,0,95,75.06a6.59,6.59,0,0,0-2.42-2.62A6.44,6.44,0,0,0,89.1,71.49ZM87.62,82.12a2.56,2.56,0,0,1-2-.85,3.56,3.56,0,0,1,0-4.4,2.85,2.85,0,0,1,4,0,3.27,3.27,0,0,1,.72,2.23,3.19,3.19,0,0,1-.73,2.2A2.5,2.5,0,0,1,87.62,82.12Z"/><path d="M44.6,61.68V89.87a8,8,0,0,1-7.94,7.94H8.47A8,8,0,0,1,.53,89.87V61.68a8,8,0,0,1,7.94-7.94H36.66A8,8,0,0,1,44.6,61.68ZM6.24,78.8H18.08a1.8,1.8,0,0,0,1.34-.56A1.86,1.86,0,0,0,20,76.88,1.88,1.88,0,0,0,18.08,75H6.24a1.8,1.8,0,0,0-1.34.56,1.87,1.87,0,0,0-.55,1.36A1.86,1.86,0,0,0,6.24,78.8Zm5.76-6a1.94,1.94,0,0,0,1.45-.6,2,2,0,0,0,.6-1.48,2,2,0,0,0-.6-1.44,1.94,1.94,0,0,0-1.45-.6,1.89,1.89,0,0,0-1.44.59A2,2,0,0,0,10,70.7a2.06,2.06,0,0,0,.58,1.48A1.9,1.9,0,0,0,12,72.78Zm0,12.36a2,2,0,0,0,1.45-.61,2.06,2.06,0,0,0,0-2.91A1.91,1.91,0,0,0,12,81a1.87,1.87,0,0,0-1.44.61A2,2,0,0,0,10,83.09a2,2,0,0,0,.58,1.45A1.9,1.9,0,0,0,12,85.14ZM33.09,71.25a6.25,6.25,0,0,0-2.71.59,5.15,5.15,0,0,0-2,1.62,8.42,8.42,0,0,1,1.21-4.18,3.06,3.06,0,0,1,2.64-1.49,4.29,4.29,0,0,1,1.47.26c.47.17,1.05.43,1.76.77l.7.35c.41.21.73.37,1,.46a2,2,0,0,0,.8.15,1.7,1.7,0,0,0,1.36-.69,2.6,2.6,0,0,0,.56-1.68,2.35,2.35,0,0,0-.24-1.12,2.82,2.82,0,0,0-.78-.87,10.44,10.44,0,0,0-3.22-1.6A12.55,12.55,0,0,0,32,63.25a8.68,8.68,0,0,0-5,1.44A9.24,9.24,0,0,0,23.7,68.8a15.5,15.5,0,0,0-1.17,6.26c0,3.62.82,6.42,2.46,8.38a8.6,8.6,0,0,0,7,2.94,8.25,8.25,0,0,0,4.06-1,7,7,0,0,0,2.8-2.77,8.53,8.53,0,0,0,.13-7.8,6.62,6.62,0,0,0-2.42-2.63A6.43,6.43,0,0,0,33.09,71.25ZM31.62,81.87a2.54,2.54,0,0,1-2-.85,3.55,3.55,0,0,1,0-4.4,2.57,2.57,0,0,1,2-.83,2.52,2.52,0,0,1,2,.82,3.77,3.77,0,0,1,0,4.43A2.49,2.49,0,0,1,31.62,81.87Z"/><path d="M71.57,10.91V39.09A7.94,7.94,0,0,1,63.63,47H35.44a7.94,7.94,0,0,1-7.94-7.94V10.91A7.94,7.94,0,0,1,35.44,3H63.63A7.94,7.94,0,0,1,71.57,10.91ZM34.21,28H46.05a1.77,1.77,0,0,0,1.34-.56,1.88,1.88,0,0,0,.55-1.36,1.86,1.86,0,0,0-1.89-1.88H34.21a1.79,1.79,0,0,0-1.35.56,1.87,1.87,0,0,0-.54,1.36,1.82,1.82,0,0,0,.54,1.34A1.85,1.85,0,0,0,34.21,28ZM40,22a2,2,0,0,0,1.45-.61,2,2,0,0,0,.6-1.47,2,2,0,0,0-.6-1.44,2,2,0,0,0-2.89,0A2,2,0,0,0,38,19.93a2.05,2.05,0,0,0,.58,1.47A1.91,1.91,0,0,0,40,22Zm0,12.35a1.93,1.93,0,0,0,1.45-.61,2,2,0,0,0,.6-1.44,2,2,0,0,0-.6-1.47A1.93,1.93,0,0,0,40,30.23a1.87,1.87,0,0,0-1.44.61A2,2,0,0,0,38,32.31a2,2,0,0,0,.58,1.46A1.93,1.93,0,0,0,40,34.36ZM61.06,20.47a6.22,6.22,0,0,0-2.71.59,5.17,5.17,0,0,0-2,1.62,8.57,8.57,0,0,1,1.2-4.18A3.08,3.08,0,0,1,60.22,17a4.3,4.3,0,0,1,1.48.25c.46.17,1,.43,1.76.77l.7.35c.41.21.72.37,1,.47a2.2,2.2,0,0,0,.8.14,1.7,1.7,0,0,0,1.36-.69,2.6,2.6,0,0,0,.56-1.68,2.35,2.35,0,0,0-.24-1.12,2.69,2.69,0,0,0-.78-.86,10,10,0,0,0-3.22-1.6,12.24,12.24,0,0,0-3.66-.58,8.68,8.68,0,0,0-5,1.44A9.33,9.33,0,0,0,51.66,18a15.51,15.51,0,0,0-1.16,6.26q0,5.45,2.46,8.38a8.57,8.57,0,0,0,7,3,8.27,8.27,0,0,0,4.06-1,7.24,7.24,0,0,0,2.8-2.77,8,8,0,0,0,1-4A8.11,8.11,0,0,0,66.93,24a6.62,6.62,0,0,0-2.42-2.63A6.52,6.52,0,0,0,61.06,20.47ZM59.58,31.1a2.56,2.56,0,0,1-2-.85,3.56,3.56,0,0,1,0-4.4,2.85,2.85,0,0,1,4,0,3.25,3.25,0,0,1,.72,2.23,3.19,3.19,0,0,1-.73,2.2A2.5,2.5,0,0,1,59.58,31.1Z"/></svg>