<svg id="Layer_1" data-name="Layer 1" xmlns="http://www.w3.org/2000/svg" viewBox="0 0 100 100"><title>l22_5_1</title><path d="M84.75,61.68V89.87a8,8,0,0,1-7.94,7.94H24.39a8,8,0,0,1-7.94-7.94V61.68a8,8,0,0,1,7.94-7.94H76.81A8,8,0,0,1,84.75,61.68ZM33.13,90.46a9.35,9.35,0,0,0,8-3.72Q43.89,83,43.89,76T41.11,65.26a9.38,9.38,0,0,0-8-3.72,9.34,9.34,0,0,0-8,3.72Q22.37,69,22.37,76t2.76,10.76A9.34,9.34,0,0,0,33.13,90.46Zm0-5.56a2.87,2.87,0,0,1-2.76-2.08A19.94,19.94,0,0,1,29.53,76a19.69,19.69,0,0,1,.84-6.82,2.88,2.88,0,0,1,5.52,0,19.71,19.71,0,0,1,.84,6.8,19.94,19.94,0,0,1-.84,6.84A2.87,2.87,0,0,1,33.13,84.9Zm17.44,5.44a3.73,3.73,0,0,0,2.74-1.12,4,4,0,0,0,0-5.52,4,4,0,0,0-5.52,0,3.88,3.88,0,0,0,2.78,6.64ZM73.09,75.58a6.54,6.54,0,0,0,3.18-2.42,6.67,6.67,0,0,0,1.14-3.86,7,7,0,0,0-1.22-4.08,7.85,7.85,0,0,0-3.48-2.72,13.28,13.28,0,0,0-5.22-1,16,16,0,0,0-4.74.72,13.05,13.05,0,0,0-4.06,2,3,3,0,0,0-1,1.08,3.06,3.06,0,0,0-.28,1.4,3.27,3.27,0,0,0,.68,2.1,2.07,2.07,0,0,0,1.68.86,2.66,2.66,0,0,0,1-.18c.29-.12.69-.32,1.2-.58l.84-.4a21,21,0,0,1,2.18-1,6,6,0,0,1,2.1-.36,3.43,3.43,0,0,1,2.44.82,3,3,0,0,1,.88,2.3,2.26,2.26,0,0,1-1,2,6.22,6.22,0,0,1-3.2.64H64.49a2.28,2.28,0,0,0-1.88.84,3.28,3.28,0,0,0,0,4,2.28,2.28,0,0,0,1.88.84H67a6,6,0,0,1,3.28.68,2.52,2.52,0,0,1,1,2.24,2.79,2.79,0,0,1-1,2.4,5.57,5.57,0,0,1-3.22.72,7.42,7.42,0,0,1-2.3-.34,19.19,19.19,0,0,1-2.3-1L62,83.2,61.57,83c-.51-.27-.91-.46-1.2-.58a2.66,2.66,0,0,0-1-.18,2,2,0,0,0-1.68.86,3.23,3.23,0,0,0-.68,2.1,2.8,2.8,0,0,0,1.24,2.48,12.9,12.9,0,0,0,4.16,2,18,18,0,0,0,5,.7,15.11,15.11,0,0,0,5.66-1,8.48,8.48,0,0,0,3.74-2.78,7,7,0,0,0,1.32-4.24,7.11,7.11,0,0,0-1.34-4.36A6.82,6.82,0,0,0,73.09,75.58Z"/><path d="M71.57,10.91V39.09A7.94,7.94,0,0,1,63.63,47H35.44a7.94,7.94,0,0,1-7.94-7.94V10.91A7.94,7.94,0,0,1,35.44,3H63.63A7.94,7.94,0,0,1,71.57,10.91Zm-9.44,21L44.31,25,62.13,18.2a3,3,0,0,0,2-2.94,3.69,3.69,0,0,0-1.05-2.73,3.62,3.62,0,0,0-2.67-1,5.64,5.64,0,0,0-1.86.36l-20,7.74a5.94,5.94,0,0,0-2.73,2.19,5.73,5.73,0,0,0-1,3.27,5.78,5.78,0,0,0,1,3.36,5.65,5.65,0,0,0,2.73,2.1l20,7.74a5.64,5.64,0,0,0,1.86.36,3.62,3.62,0,0,0,2.67-1.05,3.69,3.69,0,0,0,1.05-2.73,3,3,0,0,0-.54-1.77A3.55,3.55,0,0,0,62.13,31.88Z"/></svg>