<svg id="Layer_1" data-name="Layer 1" xmlns="http://www.w3.org/2000/svg" viewBox="0 0 100 100"><title>l22_1_1</title><path d="M99.65,61.35V89.53a7.93,7.93,0,0,1-7.94,7.94H63.52a7.94,7.94,0,0,1-7.94-7.94V61.35a7.94,7.94,0,0,1,7.94-7.94H91.71A7.93,7.93,0,0,1,99.65,61.35ZM74,74.88h-4V70.93a1.85,1.85,0,1,0-3.7,0v3.95h-4a1.81,1.81,0,0,0-1.85,1.85,1.85,1.85,0,0,0,.53,1.33,1.77,1.77,0,0,0,1.32.55h4v3.92a1.81,1.81,0,0,0,1.85,1.85,1.79,1.79,0,0,0,1.33-.53,1.82,1.82,0,0,0,.52-1.32V78.61h4a1.77,1.77,0,0,0,1.32-.55,1.85,1.85,0,0,0,.53-1.33A1.81,1.81,0,0,0,74,74.88Zm19.76,2.76h-.69V66.32a2.68,2.68,0,0,0-.85-2.1,3,3,0,0,0-2-.75,3.21,3.21,0,0,0-1.39.32,2.88,2.88,0,0,0-1.12,1l-9,12.79A3.52,3.52,0,0,0,78,79.61a2.41,2.41,0,0,0,.66,1.73,2.37,2.37,0,0,0,1.79.69h7V83.1a2.79,2.79,0,0,0,.77,2.13,2.84,2.84,0,0,0,2,.72,2.89,2.89,0,0,0,2-.72,2.76,2.76,0,0,0,.79-2.13V82h.69c1.81,0,2.72-.74,2.72-2.23S95.58,77.64,93.77,77.64Zm-10.07,0,3.76-5.43v5.43Z"/><path d="M44.64,61.1V89.29a7.93,7.93,0,0,1-7.94,7.94H8.52A7.94,7.94,0,0,1,.57,89.29V61.1a8,8,0,0,1,8-7.94H36.7A7.94,7.94,0,0,1,44.64,61.1ZM18,74.64H14.05v-4a1.85,1.85,0,1,0-3.7,0v4H6.4a1.79,1.79,0,0,0-1.32.53,1.81,1.81,0,0,0-.53,1.32,1.87,1.87,0,0,0,.53,1.33,1.77,1.77,0,0,0,1.32.55h3.95v3.92a1.83,1.83,0,0,0,1.85,1.85,1.76,1.76,0,0,0,1.33-.54,1.78,1.78,0,0,0,.52-1.31V78.37H18a1.77,1.77,0,0,0,1.32-.55,1.87,1.87,0,0,0,.53-1.33,1.81,1.81,0,0,0-.53-1.32A1.79,1.79,0,0,0,18,74.64ZM37.76,77.4h-.69V66.08A2.71,2.71,0,0,0,36.22,64a3,3,0,0,0-2-.75,3.12,3.12,0,0,0-1.39.33,3,3,0,0,0-1.12,1l-9,12.79a3.53,3.53,0,0,0-.7,2.07,2.41,2.41,0,0,0,.66,1.73,2.37,2.37,0,0,0,1.79.69h7v1.06a2.6,2.6,0,0,0,2.79,2.86,2.85,2.85,0,0,0,2-.73,2.76,2.76,0,0,0,.79-2.13V81.79h.69c1.82,0,2.72-.75,2.72-2.23S39.58,77.4,37.76,77.4Zm-10.07,0L31.45,72V77.4Z"/><path d="M71.61,10.33V38.51a7.93,7.93,0,0,1-7.94,7.94H35.48a7.94,7.94,0,0,1-7.94-7.94V10.33a7.94,7.94,0,0,1,7.94-7.94H63.67A7.93,7.93,0,0,1,71.61,10.33ZM46,23.86H42V19.91a1.85,1.85,0,1,0-3.7,0v3.95h-4a1.81,1.81,0,0,0-1.85,1.85A1.85,1.85,0,0,0,33.05,27a1.75,1.75,0,0,0,1.32.55h4v3.92a1.81,1.81,0,0,0,1.85,1.85,1.79,1.79,0,0,0,1.33-.53A1.82,1.82,0,0,0,42,31.51V27.59H46A1.77,1.77,0,0,0,47.29,27a1.85,1.85,0,0,0,.53-1.33A1.81,1.81,0,0,0,46,23.86Zm19.76,2.76H65V15.3a2.68,2.68,0,0,0-.85-2.1,3,3,0,0,0-2-.75,3.08,3.08,0,0,0-1.39.32,2.88,2.88,0,0,0-1.12,1l-9,12.79A3.52,3.52,0,0,0,50,28.59a2.41,2.41,0,0,0,.66,1.73,2.37,2.37,0,0,0,1.79.69h7v1.07a2.79,2.79,0,0,0,.77,2.13,2.84,2.84,0,0,0,2,.72,2.89,2.89,0,0,0,2-.72A2.76,2.76,0,0,0,65,32.08V31h.69c1.81,0,2.72-.74,2.72-2.23S67.54,26.62,65.73,26.62Zm-10.07,0,3.76-5.43v5.43Z"/></svg>