<svg id="Layer_1" data-name="Layer 1" xmlns="http://www.w3.org/2000/svg" viewBox="0 0 100 100"><title>l22_2_1</title><path d="M71.61,10.33V38.51a7.93,7.93,0,0,1-7.94,7.94H35.48a7.94,7.94,0,0,1-7.94-7.94V10.33a7.94,7.94,0,0,1,7.94-7.94H63.67A7.93,7.93,0,0,1,71.61,10.33ZM42.67,25.52l3.45-3.42a1.89,1.89,0,0,0,.58-1.38,1.69,1.69,0,0,0-.58-1.31,1.78,1.78,0,0,0-1.34-.57,1.86,1.86,0,0,0-1.35.57L40,22.87l-3.46-3.46a1.87,1.87,0,0,0-1.34-.61,1.68,1.68,0,0,0-1.31.58,1.85,1.85,0,0,0-.58,1.38,2,2,0,0,0,.54,1.34l3.46,3.42L33.83,29a1.84,1.84,0,0,0-.57,1.34,1.86,1.86,0,0,0,.57,1.35,2,2,0,0,0,1.35.54,1.82,1.82,0,0,0,1.34-.54L40,28.21l3.45,3.46a1.86,1.86,0,0,0,1.35.57,1.91,1.91,0,0,0,1.89-1.92A1.77,1.77,0,0,0,46.12,29Zm20.57-2.4a5.19,5.19,0,0,0,2.55-1.93,5.4,5.4,0,0,0,.91-3.09,5.58,5.58,0,0,0-1-3.26,6.26,6.26,0,0,0-2.78-2.18,10.67,10.67,0,0,0-4.18-.77,12.64,12.64,0,0,0-3.79.58,10.61,10.61,0,0,0-3.25,1.6,2.63,2.63,0,0,0-.77.86,2.48,2.48,0,0,0-.22,1.12,2.64,2.64,0,0,0,.54,1.68,1.66,1.66,0,0,0,1.35.69,2.24,2.24,0,0,0,.8-.14c.23-.1.55-.25,1-.47l.67-.32c.64-.32,1.22-.57,1.74-.77a4.94,4.94,0,0,1,1.68-.28,2.77,2.77,0,0,1,2,.65,2.4,2.4,0,0,1,.71,1.84,1.79,1.79,0,0,1-.8,1.63,4.8,4.8,0,0,1-2.56.52H56.36a1.81,1.81,0,0,0-1.5.67,2.6,2.6,0,0,0,0,3.2,1.81,1.81,0,0,0,1.5.67h2a4.85,4.85,0,0,1,2.63.54,2,2,0,0,1,.8,1.8A2.24,2.24,0,0,1,61,29.88a4.52,4.52,0,0,1-2.58.57,5.84,5.84,0,0,1-1.84-.27,14.31,14.31,0,0,1-1.84-.78l-.4-.18-.3-.14c-.41-.22-.73-.37-1-.47a2.28,2.28,0,0,0-.8-.14,1.65,1.65,0,0,0-1.35.69,2.62,2.62,0,0,0-.54,1.68,2.51,2.51,0,0,0,.22,1.1,2.58,2.58,0,0,0,.77.88,10.54,10.54,0,0,0,3.33,1.62,14.32,14.32,0,0,0,4,.56,11.94,11.94,0,0,0,4.53-.79,6.73,6.73,0,0,0,3-2.22,5.6,5.6,0,0,0,1-3.39,5.64,5.64,0,0,0-1.07-3.49A5.47,5.47,0,0,0,63.24,23.12Z"/><path d="M99.65,61.35V89.53a7.93,7.93,0,0,1-7.94,7.94H63.52a7.94,7.94,0,0,1-7.94-7.94V61.35a7.94,7.94,0,0,1,7.94-7.94H91.71A7.93,7.93,0,0,1,99.65,61.35ZM70.71,76.55l3.45-3.43a1.88,1.88,0,0,0,.58-1.37,1.7,1.7,0,0,0-.58-1.32,1.78,1.78,0,0,0-1.34-.57,1.86,1.86,0,0,0-1.35.57L68,73.89l-3.46-3.46a1.86,1.86,0,0,0-1.34-.6,1.67,1.67,0,0,0-1.31.57,1.87,1.87,0,0,0-.58,1.38,2,2,0,0,0,.54,1.34l3.46,3.43L61.87,80a1.84,1.84,0,0,0-.57,1.34,1.86,1.86,0,0,0,.57,1.35,2,2,0,0,0,1.35.54,1.82,1.82,0,0,0,1.34-.54L68,79.23l3.45,3.46a1.86,1.86,0,0,0,1.35.57,1.91,1.91,0,0,0,1.89-1.92A1.77,1.77,0,0,0,74.16,80Zm20.57-2.41a5.19,5.19,0,0,0,2.55-1.93,5.4,5.4,0,0,0,.91-3.09,5.58,5.58,0,0,0-1-3.26A6.26,6.26,0,0,0,91,63.68a10.67,10.67,0,0,0-4.18-.77,12.64,12.64,0,0,0-3.79.58,10.61,10.61,0,0,0-3.25,1.6A2.63,2.63,0,0,0,79,66a2.51,2.51,0,0,0-.22,1.12,2.64,2.64,0,0,0,.54,1.68,1.66,1.66,0,0,0,1.35.69,2.24,2.24,0,0,0,.8-.14c.23-.1.55-.25,1-.47l.67-.32a16.85,16.85,0,0,1,1.74-.76,4.71,4.71,0,0,1,1.68-.29,2.77,2.77,0,0,1,1.95.65A2.4,2.4,0,0,1,89.17,70a1.82,1.82,0,0,1-.8,1.64,4.92,4.92,0,0,1-2.56.51H84.4a1.81,1.81,0,0,0-1.5.67,2.6,2.6,0,0,0,0,3.2,1.81,1.81,0,0,0,1.5.67h2a4.85,4.85,0,0,1,2.63.54,2,2,0,0,1,.8,1.8A2.24,2.24,0,0,1,89,80.9a4.52,4.52,0,0,1-2.58.57,5.84,5.84,0,0,1-1.84-.27,14.31,14.31,0,0,1-1.84-.78l-.4-.18-.3-.14c-.41-.22-.73-.37-1-.47a2.28,2.28,0,0,0-.8-.14,1.65,1.65,0,0,0-1.35.69,2.64,2.64,0,0,0-.54,1.68,2.51,2.51,0,0,0,.22,1.1,2.58,2.58,0,0,0,.77.88,10.33,10.33,0,0,0,3.33,1.62,14.32,14.32,0,0,0,4,.56,11.94,11.94,0,0,0,4.53-.79,6.73,6.73,0,0,0,3-2.22,6.11,6.11,0,0,0,0-6.88A5.47,5.47,0,0,0,91.28,74.14Z"/><path d="M44.64,61.1V89.29a7.93,7.93,0,0,1-7.94,7.94H8.52A7.94,7.94,0,0,1,.57,89.29V61.1a8,8,0,0,1,8-7.94H36.7A7.94,7.94,0,0,1,44.64,61.1ZM14.7,76.3l3.45-3.42a1.87,1.87,0,0,0,.58-1.38,1.66,1.66,0,0,0-.58-1.31,1.79,1.79,0,0,0-1.34-.58,1.89,1.89,0,0,0-1.35.58L12,73.65,8.55,70.19a1.83,1.83,0,0,0-1.34-.61,1.65,1.65,0,0,0-1.31.58,1.84,1.84,0,0,0-.58,1.37,2,2,0,0,0,.54,1.35L9.32,76.3,5.86,79.76a1.84,1.84,0,0,0-.57,1.34,1.88,1.88,0,0,0,.57,1.35A2,2,0,0,0,7.21,83a1.82,1.82,0,0,0,1.34-.54L12,79l3.45,3.46a1.88,1.88,0,0,0,1.35.57,1.84,1.84,0,0,0,1.34-.57,1.87,1.87,0,0,0,.55-1.35,1.77,1.77,0,0,0-.55-1.34Zm20.57-2.4A5.19,5.19,0,0,0,37.82,72a5.4,5.4,0,0,0,.91-3.09,5.61,5.61,0,0,0-1-3.27A6.24,6.24,0,0,0,35,63.44a10.67,10.67,0,0,0-4.18-.77,12.64,12.64,0,0,0-3.79.58,10.39,10.39,0,0,0-3.25,1.6,2.54,2.54,0,0,0-.77.86,2.91,2.91,0,0,0,.32,2.8,1.68,1.68,0,0,0,1.35.69,2,2,0,0,0,.8-.15c.23-.09.55-.25,1-.46l.67-.32a17.11,17.11,0,0,1,1.74-.77,4.94,4.94,0,0,1,1.68-.29,2.75,2.75,0,0,1,2,.66,2.39,2.39,0,0,1,.7,1.84,1.79,1.79,0,0,1-.8,1.63,4.92,4.92,0,0,1-2.56.51H28.39a1.82,1.82,0,0,0-1.5.68,2.47,2.47,0,0,0-.55,1.6,2.5,2.5,0,0,0,.55,1.6,1.84,1.84,0,0,0,1.5.67h2a4.83,4.83,0,0,1,2.62.54,2,2,0,0,1,.8,1.79A2.22,2.22,0,0,1,33,80.65a4.43,4.43,0,0,1-2.58.58A5.84,5.84,0,0,1,28.6,81a14.5,14.5,0,0,1-1.84-.79l-.4-.17c-.12-.06-.22-.1-.3-.15-.41-.21-.73-.36-1-.46a2.07,2.07,0,0,0-.8-.14,1.64,1.64,0,0,0-1.35.68,2.64,2.64,0,0,0-.54,1.68,2.53,2.53,0,0,0,.22,1.11,2.58,2.58,0,0,0,.77.88,10.32,10.32,0,0,0,3.33,1.61,14,14,0,0,0,4,.56A12.07,12.07,0,0,0,35.26,85a6.73,6.73,0,0,0,3-2.22,6.11,6.11,0,0,0,0-6.88A5.42,5.42,0,0,0,35.27,73.9Z"/></svg>