<svg id="Layer_1" data-name="Layer 1" xmlns="http://www.w3.org/2000/svg" viewBox="0 0 100 100"><title>l22_3_1</title><path d="M99.61,61.93V90.11a7.94,7.94,0,0,1-7.94,7.94H63.48a7.94,7.94,0,0,1-7.94-7.94V61.93A7.94,7.94,0,0,1,63.48,54H91.67A7.94,7.94,0,0,1,99.61,61.93ZM83,74.53a7,7,0,0,0,3.41-2.6,7.15,7.15,0,0,0,1.23-4.15,7.53,7.53,0,0,0-1.31-4.39,8.45,8.45,0,0,0-3.74-2.92,14.21,14.21,0,0,0-5.61-1,17.15,17.15,0,0,0-5.1.77,14.38,14.38,0,0,0-4.37,2.15,3.52,3.52,0,0,0-1,1.16,3.36,3.36,0,0,0-.3,1.51A3.55,3.55,0,0,0,67,67.28a2.22,2.22,0,0,0,1.81.93,2.76,2.76,0,0,0,1.07-.2c.32-.13.75-.33,1.3-.62L72,67a23.83,23.83,0,0,1,2.34-1,6.47,6.47,0,0,1,2.26-.39,3.72,3.72,0,0,1,2.62.88,3.24,3.24,0,0,1,1,2.48,2.41,2.41,0,0,1-1.08,2.19,6.54,6.54,0,0,1-3.44.69H73.79a2.46,2.46,0,0,0-2,.9,3.53,3.53,0,0,0,0,4.3,2.46,2.46,0,0,0,2,.9h2.67a6.5,6.5,0,0,1,3.52.73A2.7,2.7,0,0,1,81.06,81,3,3,0,0,1,80,83.6a5.91,5.91,0,0,1-3.46.78A7.91,7.91,0,0,1,74.07,84,18.12,18.12,0,0,1,71.6,83l-.54-.24-.41-.19a14.27,14.27,0,0,0-1.29-.63,2.76,2.76,0,0,0-1.07-.19,2.24,2.24,0,0,0-1.81.92,3.52,3.52,0,0,0-.73,2.26,3,3,0,0,0,1.33,2.67,13.89,13.89,0,0,0,4.47,2.17,19.21,19.21,0,0,0,5.38.75,16.16,16.16,0,0,0,6.08-1,9,9,0,0,0,4-3,7.53,7.53,0,0,0,1.41-4.56A7.65,7.65,0,0,0,87,77.19,7.3,7.3,0,0,0,83,74.53Z"/><path d="M44.6,61.68V89.87a8,8,0,0,1-7.94,7.94H8.47A8,8,0,0,1,.53,89.87V61.68a8,8,0,0,1,7.94-7.94H36.66A8,8,0,0,1,44.6,61.68ZM27,74.49a7,7,0,0,0,3.42-2.6,7.22,7.22,0,0,0,1.22-4.15,7.53,7.53,0,0,0-1.31-4.39,8.38,8.38,0,0,0-3.74-2.92,14.21,14.21,0,0,0-5.61-1,17.16,17.16,0,0,0-5.1.78,14,14,0,0,0-4.36,2.15,3.56,3.56,0,0,0-1,1.16,3.34,3.34,0,0,0-.3,1.5A3.51,3.51,0,0,0,11,67.24a2.19,2.19,0,0,0,1.8.93,2.85,2.85,0,0,0,1.08-.2c.31-.13.74-.33,1.29-.62l.9-.43a23.83,23.83,0,0,1,2.34-1,6.47,6.47,0,0,1,2.26-.39,3.68,3.68,0,0,1,2.62.88,3.22,3.22,0,0,1,1,2.47,2.41,2.41,0,0,1-1.08,2.2,6.54,6.54,0,0,1-3.44.69H17.78a2.46,2.46,0,0,0-2,.9,3.53,3.53,0,0,0,0,4.3,2.46,2.46,0,0,0,2,.9h2.67a6.5,6.5,0,0,1,3.52.73A2.7,2.7,0,0,1,25.05,81,3,3,0,0,1,24,83.56a5.92,5.92,0,0,1-3.46.77A7.92,7.92,0,0,1,18.06,84a20.11,20.11,0,0,1-2.47-1l-.54-.24-.41-.19a14.27,14.27,0,0,0-1.29-.63,2.76,2.76,0,0,0-1.07-.19,2.24,2.24,0,0,0-1.81.92,3.52,3.52,0,0,0-.73,2.26,3.37,3.37,0,0,0,.3,1.48,3.5,3.5,0,0,0,1,1.19,13.94,13.94,0,0,0,4.48,2.17,19.14,19.14,0,0,0,5.37.75,16.25,16.25,0,0,0,6.09-1,9.07,9.07,0,0,0,4-3,8.17,8.17,0,0,0,0-9.25A7.3,7.3,0,0,0,27,74.49Z"/><path d="M71.57,10.91V39.09A7.94,7.94,0,0,1,63.63,47H35.44a7.94,7.94,0,0,1-7.94-7.94V10.91A7.94,7.94,0,0,1,35.44,3H63.63A7.94,7.94,0,0,1,71.57,10.91Zm-16,14.67,7.78-7.7a4.24,4.24,0,0,0,1.29-3.1,3.78,3.78,0,0,0-1.29-2.95,4,4,0,0,0-3-1.3,4.15,4.15,0,0,0-3,1.3l-7.78,7.78-7.77-7.78a4.21,4.21,0,0,0-3-1.37,3.79,3.79,0,0,0-2.95,1.3,4.24,4.24,0,0,0-1.29,3.1,4.41,4.41,0,0,0,1.22,3l7.78,7.7-7.78,7.78a4.17,4.17,0,0,0,0,6,4.45,4.45,0,0,0,3,1.22,4.15,4.15,0,0,0,3-1.22l7.77-7.78,7.78,7.78a4.25,4.25,0,0,0,7.27-3,4,4,0,0,0-1.22-3Z"/></svg>