<svg id="Layer_1" data-name="Layer 1" xmlns="http://www.w3.org/2000/svg" viewBox="0 0 100 100"><title>l22_5_1</title><path d="M84.75,61.68V89.87a8,8,0,0,1-7.94,7.94H24.39a8,8,0,0,1-7.94-7.94V61.68a8,8,0,0,1,7.94-7.94H76.81A8,8,0,0,1,84.75,61.68ZM33.11,90.46a9.35,9.35,0,0,0,8-3.72Q43.87,83,43.87,76T41.09,65.26a9.38,9.38,0,0,0-8-3.72,9.34,9.34,0,0,0-8,3.72Q22.35,69,22.35,76t2.76,10.76A9.34,9.34,0,0,0,33.11,90.46Zm0-5.56a2.86,2.86,0,0,1-2.76-2.08A19.94,19.94,0,0,1,29.51,76a19.69,19.69,0,0,1,.84-6.82,2.88,2.88,0,0,1,5.52,0,19.71,19.71,0,0,1,.84,6.8,19.94,19.94,0,0,1-.84,6.84A2.87,2.87,0,0,1,33.11,84.9Zm17.44,5.44a3.73,3.73,0,0,0,2.74-1.12,4,4,0,0,0,0-5.52,4,4,0,0,0-5.52,0,3.88,3.88,0,0,0,2.78,6.64Zm24.88-6.08h-8l5.67-5.8A18.71,18.71,0,0,0,76.4,74a10,10,0,0,0,1-4.46,7.27,7.27,0,0,0-1.23-4.18,7.71,7.71,0,0,0-3.45-2.8,12.81,12.81,0,0,0-5.21-1,15.59,15.59,0,0,0-4.61.72,15.41,15.41,0,0,0-4.23,2,2.62,2.62,0,0,0-1,1,3.31,3.31,0,0,0-.26,1.44,3.42,3.42,0,0,0,.68,2.14,2,2,0,0,0,1.68.9,2.42,2.42,0,0,0,.76-.12,5.19,5.19,0,0,0,.82-.38c.3-.18.51-.29.61-.34l.81-.4a17.19,17.19,0,0,1,2.26-1,6.36,6.36,0,0,1,2.14-.34,3.11,3.11,0,0,1,2.21.72A2.66,2.66,0,0,1,70.19,70c0,1.54-.88,3.24-2.64,5.08l-8.49,8.84a4.38,4.38,0,0,0-1.35,3.12,3,3,0,0,0,.84,2.18,3,3,0,0,0,2.27.86H75.43a4,4,0,0,0,2.62-.72,2.77,2.77,0,0,0,.85-2.24A2.64,2.64,0,0,0,78.05,85,4.1,4.1,0,0,0,75.43,84.26Z"/><path d="M71.57,10.91V39.09A7.94,7.94,0,0,1,63.63,47H35.44a7.94,7.94,0,0,1-7.94-7.94V10.91A7.94,7.94,0,0,1,35.44,3H63.63A7.94,7.94,0,0,1,71.57,10.91ZM44.88,39.32H56.06a3.41,3.41,0,0,0,2.23-.61A2.34,2.34,0,0,0,59,36.8c0-1.7-1-2.55-3-2.55H48.24v-16A3,3,0,0,0,47.39,16a3.16,3.16,0,0,0-2.31-.83,3.08,3.08,0,0,0-2.26.83A3,3,0,0,0,42,18.24V36.4a2.61,2.61,0,0,0,2.89,2.92Z"/></svg>