<svg id="Layer_1" data-name="Layer 1" xmlns="http://www.w3.org/2000/svg" viewBox="0 0 100 100"><title>l22_4_1</title><path d="M88.34,60V88.15a7.94,7.94,0,0,1-7.94,7.94H21.47a7.94,7.94,0,0,1-7.94-7.94V60A7.94,7.94,0,0,1,21.47,52H80.4A7.94,7.94,0,0,1,88.34,60ZM31.82,88.77a10.07,10.07,0,0,0,8.6-4q3-4,3-11.57t-3-11.52a10.07,10.07,0,0,0-8.58-4q-5.64,0-8.6,4t-3,11.52q0,7.58,3,11.57A10.06,10.06,0,0,0,31.82,88.77Zm0-6a3.08,3.08,0,0,1-3-2.24A21.46,21.46,0,0,1,28,73.2a21.28,21.28,0,0,1,.9-7.33,3.09,3.09,0,0,1,5.93,0,21,21,0,0,1,.91,7.31,21.15,21.15,0,0,1-.91,7.35A3.08,3.08,0,0,1,31.82,82.79Zm18.74,5.85a3.94,3.94,0,0,0,2.95-1.21,4.32,4.32,0,0,0,0-5.93,4.26,4.26,0,0,0-5.93,0,4.29,4.29,0,0,0,0,5.93A4,4,0,0,0,50.56,88.64ZM74.77,72.77a6.88,6.88,0,0,0,3.42-2.6A7.13,7.13,0,0,0,79.42,66a7.55,7.55,0,0,0-1.31-4.39,8.48,8.48,0,0,0-3.75-2.92,14.18,14.18,0,0,0-5.61-1,17.08,17.08,0,0,0-5.09.77,14.38,14.38,0,0,0-4.37,2.15,3.52,3.52,0,0,0-1,1.16,3.38,3.38,0,0,0-.3,1.51,3.48,3.48,0,0,0,.73,2.25,2.22,2.22,0,0,0,1.81.93,2.76,2.76,0,0,0,1.07-.19,14.27,14.27,0,0,0,1.29-.63l.9-.43a25,25,0,0,1,2.35-1,6.43,6.43,0,0,1,2.26-.39,3.74,3.74,0,0,1,2.62.88,3.24,3.24,0,0,1,1,2.48,2.41,2.41,0,0,1-1.08,2.19,6.57,6.57,0,0,1-3.44.69H65.53a2.45,2.45,0,0,0-2,.9,3.53,3.53,0,0,0,0,4.3,2.45,2.45,0,0,0,2,.9h2.66a6.54,6.54,0,0,1,3.53.73,2.7,2.7,0,0,1,1.08,2.41,3,3,0,0,1-1.06,2.58,5.93,5.93,0,0,1-3.46.78,7.59,7.59,0,0,1-2.47-.37,18.12,18.12,0,0,1-2.47-1L62.8,81l-.41-.19q-.82-.43-1.29-.63A3.06,3.06,0,0,0,60,80a2.22,2.22,0,0,0-1.8.93,3.49,3.49,0,0,0-.73,2.25,3.41,3.41,0,0,0,.3,1.49,3.37,3.37,0,0,0,1,1.18A13.69,13.69,0,0,0,63.29,88a19.16,19.16,0,0,0,5.38.75,16.16,16.16,0,0,0,6.08-1,9,9,0,0,0,4-3,7.48,7.48,0,0,0,1.42-4.56,7.62,7.62,0,0,0-1.44-4.68A7.35,7.35,0,0,0,74.77,72.77Z"/><path d="M71.57,9.19V37.38a8,8,0,0,1-7.94,7.94H35.44a8,8,0,0,1-7.94-7.94V9.19a7.94,7.94,0,0,1,7.94-7.94H63.63A7.94,7.94,0,0,1,71.57,9.19ZM62.85,19.62H53.78V10.55a4.25,4.25,0,1,0-8.49,0v9.07H36.21A4.17,4.17,0,0,0,32,23.87a4.21,4.21,0,0,0,1.22,3.06,4,4,0,0,0,3,1.26h9.08v9a4.3,4.3,0,0,0,7.3,3,4.14,4.14,0,0,0,1.19-3v-9h9.07a4.07,4.07,0,0,0,3-1.26,4.25,4.25,0,0,0,1.22-3.06,4.17,4.17,0,0,0-4.25-4.25Z"/></svg>