<svg id="Layer_1" data-name="Layer 1" xmlns="http://www.w3.org/2000/svg" viewBox="0 0 100 100"><title>l22_5_1</title><path d="M99.61,61.93V90.11a7.94,7.94,0,0,1-7.94,7.94H63.48a7.94,7.94,0,0,1-7.94-7.94V61.93A7.94,7.94,0,0,1,63.48,54H91.67A7.94,7.94,0,0,1,99.61,61.93ZM74.5,81.22,64.4,77.35l10.1-3.88a1.79,1.79,0,0,0,.85-.65,1.75,1.75,0,0,0,.3-1,2.1,2.1,0,0,0-.59-1.54,2,2,0,0,0-1.52-.6,3.15,3.15,0,0,0-1.05.21L61.17,74.25a3.41,3.41,0,0,0-1.55,1.24,3.44,3.44,0,0,0,0,3.76,3.25,3.25,0,0,0,1.55,1.19l11.32,4.39a3.38,3.38,0,0,0,1.05.2,2,2,0,0,0,1.52-.6,2.1,2.1,0,0,0,.59-1.54,1.72,1.72,0,0,0-.3-1A2.1,2.1,0,0,0,74.5,81.22Zm19.58,1H87.25l4.82-4.93a15.68,15.68,0,0,0,2.84-3.82,8.53,8.53,0,0,0,.84-3.79,6.28,6.28,0,0,0-1-3.56,6.66,6.66,0,0,0-2.94-2.38,11,11,0,0,0-4.42-.83,13.84,13.84,0,0,0-7.52,2.31,2.37,2.37,0,0,0-.83.89,2.86,2.86,0,0,0-.22,1.22,2.91,2.91,0,0,0,.58,1.82,1.73,1.73,0,0,0,1.43.77,2,2,0,0,0,.64-.11,3.22,3.22,0,0,0,.7-.32l.53-.29.68-.34A15.68,15.68,0,0,1,85.26,68a5.56,5.56,0,0,1,1.82-.29A2.66,2.66,0,0,1,89,68.3a2.27,2.27,0,0,1,.67,1.77q0,2-2.25,4.32L80.17,81.9A3.73,3.73,0,0,0,79,84.55a2.58,2.58,0,0,0,.71,1.86,2.62,2.62,0,0,0,1.94.73H94.08a3.47,3.47,0,0,0,2.23-.61A2.39,2.39,0,0,0,97,84.62a2.27,2.27,0,0,0-.73-1.85A3.47,3.47,0,0,0,94.08,82.17Z"/><path d="M44.6,61.68V89.87a8,8,0,0,1-7.94,7.94H8.47A8,8,0,0,1,.53,89.87V61.68a8,8,0,0,1,7.94-7.94H36.66A8,8,0,0,1,44.6,61.68ZM18.49,81.18,8.39,77.3l10.1-3.87a1.79,1.79,0,0,0,.85-.65,1.75,1.75,0,0,0,.3-1,2,2,0,0,0-2.1-2.14,3.39,3.39,0,0,0-1.06.2L5.16,74.21a3.41,3.41,0,0,0-1.55,1.24,3.44,3.44,0,0,0,0,3.76A3.25,3.25,0,0,0,5.16,80.4l11.32,4.39a3.39,3.39,0,0,0,1.06.2,2,2,0,0,0,2.1-2.14,1.72,1.72,0,0,0-.3-1A2.1,2.1,0,0,0,18.49,81.18Zm19.58.95H31.24l4.83-4.93a16.23,16.23,0,0,0,2.84-3.82,8.66,8.66,0,0,0,.83-3.79,6.28,6.28,0,0,0-1-3.56,6.66,6.66,0,0,0-2.94-2.38,11,11,0,0,0-4.42-.83,13.28,13.28,0,0,0-3.93.61,13.44,13.44,0,0,0-3.58,1.7A2.26,2.26,0,0,0,23,66a2.83,2.83,0,0,0-.22,1.22,2.91,2.91,0,0,0,.58,1.82,1.73,1.73,0,0,0,1.43.76,2,2,0,0,0,.64-.1,3.79,3.79,0,0,0,.7-.32l.53-.29.68-.34a15.68,15.68,0,0,1,1.92-.83,5.56,5.56,0,0,1,1.82-.29,2.66,2.66,0,0,1,1.88.61A2.27,2.27,0,0,1,33.62,70q0,2-2.25,4.32l-7.2,7.51A3.69,3.69,0,0,0,23,84.51a2.58,2.58,0,0,0,.71,1.86,2.63,2.63,0,0,0,1.94.73H38.07a3.41,3.41,0,0,0,2.23-.62,2.32,2.32,0,0,0,.73-1.9,2.24,2.24,0,0,0-.73-1.85A3.47,3.47,0,0,0,38.07,82.13Z"/><path d="M71.57,10.91V39.09A7.94,7.94,0,0,1,63.63,47H35.44a7.94,7.94,0,0,1-7.94-7.94V10.91A7.94,7.94,0,0,1,35.44,3H63.63A7.94,7.94,0,0,1,71.57,10.91ZM46.46,31.4l-10.1-3.87,10.1-3.88a1.77,1.77,0,0,0,.85-.64,1.8,1.8,0,0,0,.3-1A2.12,2.12,0,0,0,47,20.44a2,2,0,0,0-1.52-.6,3.15,3.15,0,0,0-1,.21L33.13,24.43a3.48,3.48,0,0,0-1.55,1.24,3.44,3.44,0,0,0,0,3.76,3.19,3.19,0,0,0,1.55,1.19L44.45,35a3.38,3.38,0,0,0,1,.2A2.08,2.08,0,0,0,47,34.62a2.14,2.14,0,0,0,.59-1.55,1.67,1.67,0,0,0-.3-1A2,2,0,0,0,46.46,31.4Zm19.58,1H59.21L64,27.43a15.71,15.71,0,0,0,2.84-3.83,8.5,8.5,0,0,0,.84-3.79,6.23,6.23,0,0,0-1-3.55,6.6,6.6,0,0,0-2.94-2.38A10.86,10.86,0,0,0,59.31,13a13.3,13.3,0,0,0-3.93.62,13.05,13.05,0,0,0-3.59,1.7,2.28,2.28,0,0,0-.83.88,2.86,2.86,0,0,0-.22,1.22,2.89,2.89,0,0,0,.58,1.82,1.73,1.73,0,0,0,1.43.77,2.25,2.25,0,0,0,.64-.1,3.9,3.9,0,0,0,.7-.33l.53-.29L55.3,19a15.68,15.68,0,0,1,1.92-.83A5.56,5.56,0,0,1,59,17.87a2.71,2.71,0,0,1,1.88.61,2.27,2.27,0,0,1,.67,1.77q0,2-2.25,4.32l-7.21,7.51A3.74,3.74,0,0,0,51,34.74a2.47,2.47,0,0,0,2.65,2.58H66a3.41,3.41,0,0,0,2.23-.61A2.37,2.37,0,0,0,69,34.8,2.27,2.27,0,0,0,68.27,33,3.47,3.47,0,0,0,66,32.36Z"/></svg>