<svg id="Layer_1" data-name="Layer 1" xmlns="http://www.w3.org/2000/svg" viewBox="0 0 100 100"><title>l22_1_1</title><path d="M99.65,61.35V89.53a7.93,7.93,0,0,1-7.94,7.94H63.52a7.94,7.94,0,0,1-7.94-7.94V61.35a7.94,7.94,0,0,1,7.94-7.94H91.71A7.93,7.93,0,0,1,99.65,61.35ZM74,74.88h-4V70.93a1.85,1.85,0,1,0-3.7,0v3.95h-4a1.81,1.81,0,0,0-1.85,1.85,1.85,1.85,0,0,0,.53,1.33,1.77,1.77,0,0,0,1.32.55h4v3.92a1.81,1.81,0,0,0,1.85,1.85,1.79,1.79,0,0,0,1.33-.53,1.82,1.82,0,0,0,.52-1.32V78.61h4a1.77,1.77,0,0,0,1.32-.55,1.85,1.85,0,0,0,.53-1.33A1.81,1.81,0,0,0,74,74.88Zm17.78-.5a4.69,4.69,0,0,0,2.46-1.85,5.45,5.45,0,0,0,.9-3.14A5.18,5.18,0,0,0,93,65,9.78,9.78,0,0,0,87,63.37,9.77,9.77,0,0,0,81.1,65a5.17,5.17,0,0,0-2.2,4.4,5.39,5.39,0,0,0,.88,3.06,5.17,5.17,0,0,0,2.51,1.93,5.18,5.18,0,0,0-3,1.86,5.54,5.54,0,0,0-1,3.44,5.41,5.41,0,0,0,2.33,4.65A10.77,10.77,0,0,0,87,86a10.76,10.76,0,0,0,6.38-1.68,5.52,5.52,0,0,0-1.62-10ZM87,81.65c-2.28,0-3.42-.81-3.42-2.44s1.14-2.45,3.42-2.45,3.41.82,3.41,2.45S89.3,81.65,87,81.65Zm0-13.92a3.31,3.31,0,0,1,2.1.55,2.11,2.11,0,0,1,.69,1.77,2.18,2.18,0,0,1-.69,1.79,4.24,4.24,0,0,1-4.21,0,2.18,2.18,0,0,1-.69-1.79,2.11,2.11,0,0,1,.69-1.77A3.33,3.33,0,0,1,87,67.73Z"/><path d="M44.64,61.1V89.29a7.93,7.93,0,0,1-7.94,7.94H8.52A7.94,7.94,0,0,1,.57,89.29V61.1a8,8,0,0,1,8-7.94H36.7A7.94,7.94,0,0,1,44.64,61.1ZM18,74.64H14.05v-4a1.85,1.85,0,1,0-3.7,0v4H6.4a1.79,1.79,0,0,0-1.32.53,1.81,1.81,0,0,0-.53,1.32,1.87,1.87,0,0,0,.53,1.33,1.77,1.77,0,0,0,1.32.55h3.95v3.92a1.83,1.83,0,0,0,1.85,1.85,1.76,1.76,0,0,0,1.33-.54,1.78,1.78,0,0,0,.52-1.31V78.37H18a1.75,1.75,0,0,0,1.32-.55,1.83,1.83,0,0,0,.53-1.33A1.81,1.81,0,0,0,18,74.64Zm17.78-.51a4.64,4.64,0,0,0,2.46-1.85,5.39,5.39,0,0,0,.9-3.13A5.21,5.21,0,0,0,37,64.74,9.81,9.81,0,0,0,31,63.13a9.84,9.84,0,0,0-5.93,1.61,5.19,5.19,0,0,0-2.19,4.41,5.39,5.39,0,0,0,.87,3.06,5.15,5.15,0,0,0,2.51,1.92,5.28,5.28,0,0,0-3,1.87,5.51,5.51,0,0,0-1,3.43,5.41,5.41,0,0,0,2.34,4.66A10.71,10.71,0,0,0,31,85.77a10.76,10.76,0,0,0,6.38-1.68,5.43,5.43,0,0,0,2.33-4.66,5.16,5.16,0,0,0-3.95-5.3ZM31,81.41c-2.28,0-3.42-.82-3.42-2.45s1.14-2.44,3.42-2.44,3.41.81,3.41,2.44S33.29,81.41,31,81.41Zm0-13.92a3.31,3.31,0,0,1,2.1.55,2.11,2.11,0,0,1,.69,1.77,2.16,2.16,0,0,1-.69,1.78,3.25,3.25,0,0,1-2.1.57,3.23,3.23,0,0,1-2.1-.57,2.16,2.16,0,0,1-.69-1.78A2.11,2.11,0,0,1,28.92,68,3.3,3.3,0,0,1,31,67.49Z"/><path d="M71.61,10.33V38.51a7.93,7.93,0,0,1-7.94,7.94H35.48a7.94,7.94,0,0,1-7.94-7.94V10.33a7.94,7.94,0,0,1,7.94-7.94H63.67A7.93,7.93,0,0,1,71.61,10.33ZM46,23.86H42V19.91a1.85,1.85,0,1,0-3.7,0v3.95h-4a1.81,1.81,0,0,0-1.85,1.85A1.85,1.85,0,0,0,33.05,27a1.77,1.77,0,0,0,1.32.55h4v3.92a1.81,1.81,0,0,0,1.85,1.85,1.79,1.79,0,0,0,1.33-.53A1.82,1.82,0,0,0,42,31.51V27.59H46A1.77,1.77,0,0,0,47.29,27a1.85,1.85,0,0,0,.53-1.33A1.81,1.81,0,0,0,46,23.86Zm17.78-.5a4.69,4.69,0,0,0,2.46-1.85,5.45,5.45,0,0,0,.9-3.14A5.18,5.18,0,0,0,64.93,14a9.79,9.79,0,0,0-6-1.62A9.76,9.76,0,0,0,53.06,14a5.17,5.17,0,0,0-2.2,4.4,5.39,5.39,0,0,0,.88,3.06,5.17,5.17,0,0,0,2.51,1.93,5.18,5.18,0,0,0-3,1.86,5.54,5.54,0,0,0-1,3.44,5.42,5.42,0,0,0,2.33,4.65A10.76,10.76,0,0,0,59,35a10.77,10.77,0,0,0,6.39-1.68,5.42,5.42,0,0,0,2.33-4.65,5.16,5.16,0,0,0-4-5.3ZM59,30.63c-2.27,0-3.41-.81-3.41-2.44s1.14-2.45,3.41-2.45,3.42.82,3.42,2.45S61.26,30.63,59,30.63Zm0-13.92a3.33,3.33,0,0,1,2.11.55A2.11,2.11,0,0,1,61.78,19a2.18,2.18,0,0,1-.69,1.79,4.24,4.24,0,0,1-4.21,0A2.18,2.18,0,0,1,56.19,19a2.11,2.11,0,0,1,.69-1.77A3.31,3.31,0,0,1,59,16.71Z"/></svg>