<svg id="Layer_1" data-name="Layer 1" xmlns="http://www.w3.org/2000/svg" viewBox="0 0 100 100"><title>l22_1_1</title><path d="M99.65,61.35V89.53a7.93,7.93,0,0,1-7.94,7.94H63.52a7.94,7.94,0,0,1-7.94-7.94V61.35a7.94,7.94,0,0,1,7.94-7.94H91.71A7.93,7.93,0,0,1,99.65,61.35ZM74,74.88H70V70.93a1.85,1.85,0,1,0-3.7,0v3.95h-4a1.83,1.83,0,0,0-1.85,1.85,1.82,1.82,0,0,0,.54,1.33,1.73,1.73,0,0,0,1.31.55h4v3.92a1.88,1.88,0,0,0,3.19,1.32A1.85,1.85,0,0,0,70,82.53V78.61h4a1.73,1.73,0,0,0,1.31-.55,1.81,1.81,0,0,0,.53-1.33A1.81,1.81,0,0,0,74,74.88Zm18.84,6.3h-6.3L91,76.64a14.92,14.92,0,0,0,2.62-3.53,8,8,0,0,0,.77-3.5,5.71,5.71,0,0,0-1-3.27,6.07,6.07,0,0,0-2.71-2.2,10.14,10.14,0,0,0-4.08-.77,12.14,12.14,0,0,0-3.62.57A12.3,12.3,0,0,0,79.7,65.5a2.18,2.18,0,0,0-.77.82,2.79,2.79,0,0,0-.2,1.13,2.74,2.74,0,0,0,.53,1.68,1.61,1.61,0,0,0,1.32.7,2,2,0,0,0,.6-.09,4.36,4.36,0,0,0,.64-.3l.49-.27.62-.31a14.9,14.9,0,0,1,1.77-.77,5.06,5.06,0,0,1,1.68-.27,2.47,2.47,0,0,1,1.74.57A2.09,2.09,0,0,1,88.73,70a6.1,6.1,0,0,1-2.07,4L80,80.93A3.43,3.43,0,0,0,79,83.38a2.35,2.35,0,0,0,.66,1.71,2.38,2.38,0,0,0,1.79.67H92.84a3.22,3.22,0,0,0,2.06-.56,2.2,2.2,0,0,0,.67-1.76,2.11,2.11,0,0,0-.67-1.71A3.29,3.29,0,0,0,92.84,81.18Z"/><path d="M44.64,61.1V89.29a7.93,7.93,0,0,1-7.94,7.94H8.52A7.94,7.94,0,0,1,.57,89.29V61.1a8,8,0,0,1,8-7.94H36.7A7.94,7.94,0,0,1,44.64,61.1ZM18,74.64H14v-4a1.83,1.83,0,0,0-1.86-1.85,1.81,1.81,0,0,0-1.84,1.85v4h-4a1.75,1.75,0,0,0-1.31.53,1.78,1.78,0,0,0-.54,1.32,1.83,1.83,0,0,0,.54,1.33,1.73,1.73,0,0,0,1.31.55h4v3.92a1.83,1.83,0,0,0,1.84,1.85,1.78,1.78,0,0,0,1.34-.54A1.82,1.82,0,0,0,14,82.29V78.37H18a1.73,1.73,0,0,0,1.31-.55,1.83,1.83,0,0,0,.54-1.33,1.78,1.78,0,0,0-.54-1.32A1.75,1.75,0,0,0,18,74.64Zm18.84,6.3h-6.3L35,76.39a14.43,14.43,0,0,0,2.62-3.52,8,8,0,0,0,.77-3.5,5.72,5.72,0,0,0-1-3.28A6.11,6.11,0,0,0,34.7,63.9a10,10,0,0,0-4.08-.77,12.7,12.7,0,0,0-6.93,2.13,2,2,0,0,0-.76.82,2.62,2.62,0,0,0-.21,1.13,2.67,2.67,0,0,0,.54,1.67,1.59,1.59,0,0,0,1.31.71,1.72,1.72,0,0,0,.6-.1,4.19,4.19,0,0,0,.64-.29l.49-.27.62-.31a14.9,14.9,0,0,1,1.77-.77,5.1,5.1,0,0,1,1.68-.27,2.45,2.45,0,0,1,1.74.57,2.09,2.09,0,0,1,.61,1.63,6.12,6.12,0,0,1-2.06,4L24,80.69a3.44,3.44,0,0,0-1.07,2.44,2.35,2.35,0,0,0,.66,1.71,2.38,2.38,0,0,0,1.79.68H36.83A3.15,3.15,0,0,0,38.89,85a2.14,2.14,0,0,0,.67-1.75,2.06,2.06,0,0,0-.67-1.71A3.21,3.21,0,0,0,36.83,80.94Z"/><path d="M71.61,10.33V38.51a7.93,7.93,0,0,1-7.94,7.94H35.48a7.94,7.94,0,0,1-7.94-7.94V10.33a7.94,7.94,0,0,1,7.94-7.94H63.67A7.93,7.93,0,0,1,71.61,10.33ZM46,23.86H42V19.91a1.86,1.86,0,1,0-3.71,0v3.95H34.35a1.83,1.83,0,0,0-1.85,1.85A1.82,1.82,0,0,0,33,27a1.73,1.73,0,0,0,1.31.55H38.3v3.92a1.88,1.88,0,0,0,3.19,1.32A1.86,1.86,0,0,0,42,31.51V27.59H46A1.74,1.74,0,0,0,47.27,27a1.82,1.82,0,0,0,.54-1.33A1.83,1.83,0,0,0,46,23.86Zm18.85,6.3H58.5L63,25.62a14.92,14.92,0,0,0,2.62-3.53,8,8,0,0,0,.77-3.5,5.77,5.77,0,0,0-1-3.28,6.11,6.11,0,0,0-2.71-2.19,10.14,10.14,0,0,0-4.08-.77,12.14,12.14,0,0,0-3.62.57,12,12,0,0,0-3.31,1.56,2.18,2.18,0,0,0-.77.82,2.79,2.79,0,0,0-.2,1.13,2.76,2.76,0,0,0,.53,1.68,1.61,1.61,0,0,0,1.32.7,2,2,0,0,0,.6-.09,5.73,5.73,0,0,0,.64-.3l.48-.27.63-.31a14.9,14.9,0,0,1,1.77-.77,5.1,5.1,0,0,1,1.68-.27,2.45,2.45,0,0,1,1.74.57A2.09,2.09,0,0,1,60.69,19a6.1,6.1,0,0,1-2.07,4L52,29.91a3.41,3.41,0,0,0-1.07,2.45,2.28,2.28,0,0,0,2.44,2.38H64.8a3.16,3.16,0,0,0,2-.56,2.18,2.18,0,0,0,.68-1.76,2.09,2.09,0,0,0-.68-1.71A3.22,3.22,0,0,0,64.8,30.16Z"/></svg>