<svg id="Layer_1" data-name="Layer 1" xmlns="http://www.w3.org/2000/svg" viewBox="0 0 100 100"><title>l22_4_1</title><path d="M88.34,61.68V89.87a8,8,0,0,1-7.94,7.94H21.47a8,8,0,0,1-7.94-7.94V61.68a8,8,0,0,1,7.94-7.94H80.4A8,8,0,0,1,88.34,61.68ZM39.28,83.82H35.75V63.44a3.75,3.75,0,0,0-1-2.8,3.81,3.81,0,0,0-2.78-1,7.38,7.38,0,0,0-3.57,1.07l-6.87,4A2.92,2.92,0,0,0,20,67.35a3.62,3.62,0,0,0,.86,2.34,2.56,2.56,0,0,0,2.06,1.06,3,3,0,0,0,1.51-.43l3.44-2V83.82H24.36a4.34,4.34,0,0,0-2.84.77,2.91,2.91,0,0,0-.91,2.33q0,3.18,3.75,3.18H39.28Q43,90.1,43,86.92a2.88,2.88,0,0,0-.91-2.33A4.31,4.31,0,0,0,39.28,83.82Zm9.2,7.65,9.76-30.66a4.94,4.94,0,0,0,.17-.94,2.52,2.52,0,0,0-.92-2,3.22,3.22,0,0,0-2.13-.78,2.83,2.83,0,0,0-2.75,2.07L42.85,89.8a2.72,2.72,0,0,0-.18,1,2.48,2.48,0,0,0,.91,2,3.11,3.11,0,0,0,2.1.78,3,3,0,0,0,1.7-.52A2.92,2.92,0,0,0,48.48,91.47ZM73.55,70.14a8.33,8.33,0,0,0-3.64.8,6.81,6.81,0,0,0-2.64,2.17,11.42,11.42,0,0,1,1.61-5.61,4.14,4.14,0,0,1,3.55-2,6,6,0,0,1,2,.34,25.65,25.65,0,0,1,2.36,1l1,.47A13.7,13.7,0,0,0,79,68a2.76,2.76,0,0,0,1.07.2,2.27,2.27,0,0,0,1.83-.93A3.46,3.46,0,0,0,82.66,65a3.08,3.08,0,0,0-.32-1.5,3.72,3.72,0,0,0-1-1.16A13.66,13.66,0,0,0,77,60.17,16.61,16.61,0,0,0,72,59.39a11.61,11.61,0,0,0-6.68,1.94,12.43,12.43,0,0,0-4.43,5.53,20.74,20.74,0,0,0-1.57,8.4q0,7.32,3.31,11.27t9.37,4a11,11,0,0,0,5.46-1.33,9.63,9.63,0,0,0,3.77-3.72,11.52,11.52,0,0,0,.17-10.49,8.87,8.87,0,0,0-3.25-3.53A8.71,8.71,0,0,0,73.55,70.14Zm-2,14.28a3.44,3.44,0,0,1-2.67-1.14,4.79,4.79,0,0,1,0-5.91,3.81,3.81,0,0,1,5.38,0,4.37,4.37,0,0,1,1,3,4.29,4.29,0,0,1-1,3A3.37,3.37,0,0,1,71.57,84.42Z"/><path d="M71.57,10.91V39.09A7.94,7.94,0,0,1,63.63,47H35.44a7.94,7.94,0,0,1-7.94-7.94V10.91A7.94,7.94,0,0,1,35.44,3H63.63A7.94,7.94,0,0,1,71.57,10.91ZM62.85,21.34H53.78V12.26A4.17,4.17,0,0,0,49.53,8a4.18,4.18,0,0,0-4.25,4.24v9.08H36.21A4.17,4.17,0,0,0,32,25.58a4.21,4.21,0,0,0,1.22,3.06,4,4,0,0,0,3,1.26h9.07v9a4.31,4.31,0,0,0,7.31,3,4.16,4.16,0,0,0,1.19-3v-9h9.07a4.07,4.07,0,0,0,3-1.26,4.25,4.25,0,0,0,1.22-3.06,4.17,4.17,0,0,0-4.25-4.24Z"/></svg>