<svg id="Layer_1" data-name="Layer 1" xmlns="http://www.w3.org/2000/svg" viewBox="0 0 100 100"><title>l22_5_1</title><path d="M84.75,61.68V89.87a8,8,0,0,1-7.94,7.94H24.39a8,8,0,0,1-7.94-7.94V61.68a8,8,0,0,1,7.94-7.94H76.81A8,8,0,0,1,84.75,61.68ZM33.1,90.46a9.34,9.34,0,0,0,8-3.72Q43.86,83,43.86,76T41.09,65.26a9.38,9.38,0,0,0-8-3.72,9.35,9.35,0,0,0-8,3.72Q22.34,69,22.35,76T25.1,86.74A9.35,9.35,0,0,0,33.1,90.46Zm0-5.56a2.87,2.87,0,0,1-2.75-2.08A19.69,19.69,0,0,1,29.51,76a19.45,19.45,0,0,1,.84-6.82,2.87,2.87,0,0,1,5.51,0A19.47,19.47,0,0,1,36.7,76a19.69,19.69,0,0,1-.84,6.84A2.86,2.86,0,0,1,33.1,84.9Zm17.45,5.44a3.69,3.69,0,0,0,2.73-1.12,4,4,0,0,0,0-5.52,3.65,3.65,0,0,0-2.73-1.12,3.78,3.78,0,0,0-3.88,3.88,3.78,3.78,0,0,0,3.88,3.88Zm24.88-6.08h-8l5.68-5.8A19.27,19.27,0,0,0,76.41,74a10.16,10.16,0,0,0,1-4.46,7.33,7.33,0,0,0-1.22-4.18,7.77,7.77,0,0,0-3.47-2.8,12.71,12.71,0,0,0-5.19-1,15.6,15.6,0,0,0-4.62.72,15.35,15.35,0,0,0-4.22,2,2.61,2.61,0,0,0-1,1,3.94,3.94,0,0,0,.42,3.58,2.06,2.06,0,0,0,1.68.9,2.33,2.33,0,0,0,.76-.12,4.81,4.81,0,0,0,.82-.38c.31-.18.52-.29.63-.34l.79-.4a18.43,18.43,0,0,1,2.26-1,6.45,6.45,0,0,1,2.14-.34,3.16,3.16,0,0,1,2.23.72A2.68,2.68,0,0,1,70.18,70c0,1.54-.87,3.24-2.64,5.08l-8.47,8.84a4.37,4.37,0,0,0-1.37,3.12,2.92,2.92,0,0,0,3.13,3h14.6A4,4,0,0,0,78,89.38a2.75,2.75,0,0,0,.87-2.24A2.62,2.62,0,0,0,78,85,4,4,0,0,0,75.43,84.26Z"/><path d="M71.57,10.91V39.09A7.94,7.94,0,0,1,63.63,47H35.44a7.94,7.94,0,0,1-7.94-7.94V10.91A7.94,7.94,0,0,1,35.44,3H63.63A7.94,7.94,0,0,1,71.57,10.91ZM58.68,15.18a3.2,3.2,0,0,0-2.86,2L49.6,29,43.35,17.22a4.06,4.06,0,0,0-1.26-1.51,2.86,2.86,0,0,0-1.67-.53A2.82,2.82,0,0,0,38.3,16a3,3,0,0,0-.84,2.21v18.5a2.59,2.59,0,0,0,2.72,2.78,2.68,2.68,0,0,0,2-.76,2.74,2.74,0,0,0,.77-2v-9.8l3.84,6.94A4.35,4.35,0,0,0,48,35.43a2.56,2.56,0,0,0,1.52.46,2.61,2.61,0,0,0,1.53-.46,4.35,4.35,0,0,0,1.23-1.55l3.88-7.14v10a2.79,2.79,0,0,0,4.69,2,2.79,2.79,0,0,0,.74-2V18.24A3.07,3.07,0,0,0,60.79,16,2.78,2.78,0,0,0,58.68,15.18Z"/></svg>