<svg id="Layer_1" data-name="Layer 1" xmlns="http://www.w3.org/2000/svg" viewBox="0 0 100 100"><title>l22_4_1</title><path d="M88.34,61.68V89.87a8,8,0,0,1-7.94,7.94H21.47a8,8,0,0,1-7.94-7.94V61.68a8,8,0,0,1,7.94-7.94H80.4A8,8,0,0,1,88.34,61.68ZM39.28,83.82H35.75V63.44a3.75,3.75,0,0,0-1-2.8,3.81,3.81,0,0,0-2.78-1,7.38,7.38,0,0,0-3.57,1.07l-6.87,4A2.93,2.93,0,0,0,20,67.35a3.62,3.62,0,0,0,.86,2.34,2.56,2.56,0,0,0,2.06,1.06,3,3,0,0,0,1.51-.43l3.44-2V83.82H24.36a4.34,4.34,0,0,0-2.84.77,2.91,2.91,0,0,0-.91,2.33q0,3.18,3.75,3.18H39.28Q43,90.1,43,86.92a2.88,2.88,0,0,0-.91-2.33A4.31,4.31,0,0,0,39.28,83.82Zm9.2,7.65,9.76-30.66a4.94,4.94,0,0,0,.17-.94,2.52,2.52,0,0,0-.92-2,3.22,3.22,0,0,0-2.13-.78,2.83,2.83,0,0,0-2.75,2.07L42.85,89.8a2.72,2.72,0,0,0-.18,1,2.48,2.48,0,0,0,.91,2,3.11,3.11,0,0,0,2.1.78,3,3,0,0,0,1.7-.52A2.92,2.92,0,0,0,48.48,91.47ZM79.65,59.78H62.8a4.22,4.22,0,0,0-2.84.8,3,3,0,0,0-.9,2.38,2.93,2.93,0,0,0,.88,2.33,4.33,4.33,0,0,0,2.86.77H73.55l-11,18.88A4,4,0,0,0,61.9,87a3.12,3.12,0,0,0,1.16,2.47,3.9,3.9,0,0,0,2.66,1A3.7,3.7,0,0,0,67.55,90,4,4,0,0,0,69,88.46l13-22.57a5.47,5.47,0,0,0,.82-2.84A3.33,3.33,0,0,0,82,60.71,3,3,0,0,0,79.65,59.78Z"/><path d="M71.57,10.91V39.09A7.94,7.94,0,0,1,63.63,47H35.44a7.94,7.94,0,0,1-7.94-7.94V10.91A7.94,7.94,0,0,1,35.44,3H63.63A7.94,7.94,0,0,1,71.57,10.91ZM42.76,32H56.3a6.52,6.52,0,0,0,4.5-1.33A4.75,4.75,0,0,0,62.28,27a4.64,4.64,0,0,0-1.48-3.67A6.68,6.68,0,0,0,56.3,22H42.76q-6,0-6,5T42.76,32Z"/></svg>