<svg id="Layer_1" data-name="Layer 1" xmlns="http://www.w3.org/2000/svg" viewBox="0 0 100 100"><title>l22_1_1</title><path d="M99.65,61.35V89.53a7.93,7.93,0,0,1-7.94,7.94H63.52a7.94,7.94,0,0,1-7.94-7.94V61.35a7.94,7.94,0,0,1,7.94-7.94H91.71A7.93,7.93,0,0,1,99.65,61.35ZM61.25,85.19a2.7,2.7,0,0,0,.93.94,2,2,0,0,0,1,.33,1.25,1.25,0,0,0,.91-.34,1.17,1.17,0,0,0,.36-.91,2.17,2.17,0,0,0-.17-.8,21.56,21.56,0,0,1-1.12-3.94,23.71,23.71,0,0,1-.35-4.18,24.43,24.43,0,0,1,.35-4.22,20.1,20.1,0,0,1,1.12-3.94,2.22,2.22,0,0,0,.17-.81,1.2,1.2,0,0,0-.36-.93,1.29,1.29,0,0,0-.91-.33,2,2,0,0,0-1,.33,2.92,2.92,0,0,0-.93,1,16.78,16.78,0,0,0,0,17.85Zm7.29-7.43h4.33a2.13,2.13,0,0,0,1.44-.42,1.54,1.54,0,0,0,.47-1.19A1.5,1.5,0,0,0,74.31,75a2.13,2.13,0,0,0-1.44-.41H68.54c-1.27,0-1.91.52-1.91,1.58S67.27,77.76,68.54,77.76ZM87,79H82.39l3.27-3.33a11.09,11.09,0,0,0,1.92-2.59,5.86,5.86,0,0,0,.56-2.56,4.21,4.21,0,0,0-.7-2.41,4.51,4.51,0,0,0-2-1.61,7.52,7.52,0,0,0-3-.56,9.2,9.2,0,0,0-2.66.41,9,9,0,0,0-2.42,1.15,1.59,1.59,0,0,0-.57.6,2,2,0,0,0-.15.83,2,2,0,0,0,.39,1.23,1.2,1.2,0,0,0,1,.52,1.62,1.62,0,0,0,.44-.07,3.7,3.7,0,0,0,.47-.22l.35-.2.46-.23a12.4,12.4,0,0,1,1.3-.56,3.78,3.78,0,0,1,1.23-.2,1.8,1.8,0,0,1,1.28.42A1.52,1.52,0,0,1,84,70.79a4.47,4.47,0,0,1-1.52,2.92L77.61,78.8a2.47,2.47,0,0,0-.79,1.79,1.7,1.7,0,0,0,.49,1.26,1.78,1.78,0,0,0,1.31.49H87a2.35,2.35,0,0,0,1.51-.41A1.6,1.6,0,0,0,89,80.64a1.53,1.53,0,0,0-.49-1.26A2.41,2.41,0,0,0,87,79Zm7,6.21a16.73,16.73,0,0,0,0-17.85,2.88,2.88,0,0,0-.93-.94,2.09,2.09,0,0,0-1-.32,1.29,1.29,0,0,0-.91.33,1.21,1.21,0,0,0-.35.91,2.2,2.2,0,0,0,.16.81A20.14,20.14,0,0,1,92,72.07a24.46,24.46,0,0,1,.34,4.22A23.74,23.74,0,0,1,92,80.47a21.62,21.62,0,0,1-1.13,3.94,2.15,2.15,0,0,0-.16.8,1.2,1.2,0,0,0,.35.91,1.24,1.24,0,0,0,.89.34,2.05,2.05,0,0,0,1.07-.33A2.7,2.7,0,0,0,94,85.19Z"/><path d="M44.64,61.1V89.29a7.93,7.93,0,0,1-7.94,7.94H8.52A7.94,7.94,0,0,1,.57,89.29V61.1a8,8,0,0,1,8-7.94H36.7A7.94,7.94,0,0,1,44.64,61.1ZM5.24,85a2.73,2.73,0,0,0,.94.94,2,2,0,0,0,1,.32,1.29,1.29,0,0,0,.91-.33A1.18,1.18,0,0,0,8.49,85a2.33,2.33,0,0,0-.16-.8,20.94,20.94,0,0,1-1.13-4,23.59,23.59,0,0,1-.35-4.17,24.34,24.34,0,0,1,.35-4.22,19.74,19.74,0,0,1,1.13-4,2.33,2.33,0,0,0,.16-.8,1.2,1.2,0,0,0-.36-.93,1.25,1.25,0,0,0-.91-.34,1.91,1.91,0,0,0-1,.34,2.85,2.85,0,0,0-.94.95A16.78,16.78,0,0,0,5.24,85Zm7.29-7.43h4.33a2.08,2.08,0,0,0,1.44-.43,1.51,1.51,0,0,0,.47-1.18,1.47,1.47,0,0,0-.47-1.17,2.13,2.13,0,0,0-1.44-.42H12.53c-1.27,0-1.9.53-1.9,1.59S11.26,77.52,12.53,77.52ZM31,78.74H26.38l3.27-3.34a11.07,11.07,0,0,0,1.92-2.58,5.9,5.9,0,0,0,.56-2.57,4.2,4.2,0,0,0-.7-2.4,4.44,4.44,0,0,0-2-1.61,7.35,7.35,0,0,0-3-.57,9.39,9.39,0,0,0-5.08,1.57,1.46,1.46,0,0,0-.57.6,1.94,1.94,0,0,0-.15.82A2,2,0,0,0,21,69.9a1.2,1.2,0,0,0,1,.51,1.31,1.31,0,0,0,.44-.07,2.39,2.39,0,0,0,.47-.22l.36-.19.46-.23a10,10,0,0,1,1.3-.56,3.69,3.69,0,0,1,1.23-.2,1.83,1.83,0,0,1,1.27.41,1.56,1.56,0,0,1,.45,1.2,4.49,4.49,0,0,1-1.52,2.92L21.6,78.55a2.55,2.55,0,0,0-.79,1.8,1.7,1.7,0,0,0,1.8,1.75H31a2.29,2.29,0,0,0,1.51-.42A1.57,1.57,0,0,0,33,80.39a1.52,1.52,0,0,0-.49-1.25A2.35,2.35,0,0,0,31,78.74ZM38,85A16.73,16.73,0,0,0,38,67.1a2.79,2.79,0,0,0-.93-.94,2,2,0,0,0-1-.32,1.26,1.26,0,0,0-.9.33,1.17,1.17,0,0,0-.36.91,2.11,2.11,0,0,0,.16.8,20.43,20.43,0,0,1,1.13,4,24.38,24.38,0,0,1,.34,4.22A23.63,23.63,0,0,1,36,80.22a21.71,21.71,0,0,1-1.13,4,2.11,2.11,0,0,0-.16.8,1.18,1.18,0,0,0,.36.91,1.23,1.23,0,0,0,.88.33A2,2,0,0,0,37,85.89,2.79,2.79,0,0,0,38,85Z"/><path d="M71.61,10.33V38.51a7.93,7.93,0,0,1-7.94,7.94H35.48a7.94,7.94,0,0,1-7.94-7.94V10.33a7.94,7.94,0,0,1,7.94-7.94H63.67A7.93,7.93,0,0,1,71.61,10.33ZM33.21,34.17a2.79,2.79,0,0,0,.93.94,2,2,0,0,0,1,.33,1.25,1.25,0,0,0,.91-.34,1.17,1.17,0,0,0,.36-.91,2.13,2.13,0,0,0-.17-.8,21.56,21.56,0,0,1-1.12-3.94,23.79,23.79,0,0,1-.35-4.18,24.43,24.43,0,0,1,.35-4.22,20.1,20.1,0,0,1,1.12-3.94,2.22,2.22,0,0,0,.17-.81,1.2,1.2,0,0,0-.36-.93,1.29,1.29,0,0,0-.91-.33,2,2,0,0,0-1,.33,2.92,2.92,0,0,0-.93,1,15.61,15.61,0,0,0-2.57,9A15.63,15.63,0,0,0,33.21,34.17Zm7.29-7.43h4.33a2.13,2.13,0,0,0,1.44-.42,1.54,1.54,0,0,0,.47-1.19A1.5,1.5,0,0,0,46.27,24a2.13,2.13,0,0,0-1.44-.42H40.5c-1.27,0-1.91.53-1.91,1.59S39.23,26.74,40.5,26.74ZM59,28H54.35l3.27-3.33A11.09,11.09,0,0,0,59.54,22a5.9,5.9,0,0,0,.56-2.57,4.2,4.2,0,0,0-.7-2.4,4.51,4.51,0,0,0-2-1.61,7.35,7.35,0,0,0-3-.56,9.2,9.2,0,0,0-2.66.41,9,9,0,0,0-2.42,1.15,1.53,1.53,0,0,0-.57.6,2,2,0,0,0-.15.83A2,2,0,0,0,49,19.12a1.2,1.2,0,0,0,1,.52,1.62,1.62,0,0,0,.44-.07,3.7,3.7,0,0,0,.47-.22l.35-.2.46-.23a12.4,12.4,0,0,1,1.3-.56,3.78,3.78,0,0,1,1.23-.2,1.8,1.8,0,0,1,1.28.42A1.52,1.52,0,0,1,56,19.77a4.47,4.47,0,0,1-1.52,2.92l-4.87,5.09a2.47,2.47,0,0,0-.79,1.79,1.7,1.7,0,0,0,.49,1.26,1.78,1.78,0,0,0,1.31.49H59a2.35,2.35,0,0,0,1.51-.41A1.6,1.6,0,0,0,61,29.62a1.53,1.53,0,0,0-.49-1.26A2.41,2.41,0,0,0,59,28Zm7,6.21a15.63,15.63,0,0,0,2.58-8.9,15.61,15.61,0,0,0-2.58-8.95,2.88,2.88,0,0,0-.93-.94A2.09,2.09,0,0,0,64,15.06a1.29,1.29,0,0,0-.91.33,1.21,1.21,0,0,0-.35.91,2.2,2.2,0,0,0,.16.81A20.14,20.14,0,0,1,64,21.05a24.46,24.46,0,0,1,.34,4.22A23.82,23.82,0,0,1,64,29.45a21.62,21.62,0,0,1-1.13,3.94,2.11,2.11,0,0,0-.16.8,1.2,1.2,0,0,0,.35.91,1.24,1.24,0,0,0,.89.34A2.05,2.05,0,0,0,65,35.11,2.79,2.79,0,0,0,65.94,34.17Z"/></svg>