<svg id="Layer_1" data-name="Layer 1" xmlns="http://www.w3.org/2000/svg" viewBox="0 0 100 100"><title>l22_1_1</title><path d="M99.65,61.35V89.53a7.93,7.93,0,0,1-7.94,7.94H63.52a7.94,7.94,0,0,1-7.94-7.94V61.35a7.94,7.94,0,0,1,7.94-7.94H91.71A7.93,7.93,0,0,1,99.65,61.35ZM61.26,85.19a2.94,2.94,0,0,0,.94,1,2.08,2.08,0,0,0,1,.32,1.25,1.25,0,0,0,.91-.34,1.16,1.16,0,0,0,.36-.9,2.38,2.38,0,0,0-.16-.81,21.62,21.62,0,0,1-1.13-3.94,23.74,23.74,0,0,1-.34-4.18,24.46,24.46,0,0,1,.34-4.22,20.14,20.14,0,0,1,1.13-3.94,2.43,2.43,0,0,0,.16-.81,1.2,1.2,0,0,0-.36-.93,1.29,1.29,0,0,0-.91-.33,2,2,0,0,0-1,.33,3,3,0,0,0-.94,1,16.78,16.78,0,0,0,0,17.85Zm7.3-7.43h4.32a2.13,2.13,0,0,0,1.44-.42,1.54,1.54,0,0,0,.47-1.19A1.5,1.5,0,0,0,74.32,75a2.13,2.13,0,0,0-1.44-.41H68.56c-1.28,0-1.91.53-1.91,1.58S67.28,77.76,68.56,77.76ZM82.17,65.92a6,6,0,0,0-2.92.71,5.13,5.13,0,0,0-2,2,5.77,5.77,0,0,0-.73,2.89,5.66,5.66,0,0,0,.64,2.72,4.63,4.63,0,0,0,4.22,2.57,4.34,4.34,0,0,0,1.94-.43,3.59,3.59,0,0,0,1.41-1.16,6.1,6.1,0,0,1-.86,3A2.17,2.17,0,0,1,82,79.28a3.11,3.11,0,0,1-1.06-.18c-.34-.12-.76-.31-1.27-.55l-.5-.26L78.45,78a1.5,1.5,0,0,0-.58-.11,1.24,1.24,0,0,0-1,.5,1.89,1.89,0,0,0-.4,1.21,1.72,1.72,0,0,0,.17.8,2,2,0,0,0,.57.62,7.14,7.14,0,0,0,2.31,1.15,8.8,8.8,0,0,0,2.63.42,6.23,6.23,0,0,0,3.58-1,6.68,6.68,0,0,0,2.37-3,11.15,11.15,0,0,0,.84-4.5,9.15,9.15,0,0,0-1.77-6A6.19,6.19,0,0,0,82.17,65.92Zm.25,7.61A1.77,1.77,0,0,1,81,72.94a2.29,2.29,0,0,1-.52-1.59A2.33,2.33,0,0,1,81,69.76a1.8,1.8,0,0,1,1.42-.6,1.82,1.82,0,0,1,1.43.61,2.56,2.56,0,0,1,0,3.16A1.84,1.84,0,0,1,82.42,73.53ZM94,85.19a16.73,16.73,0,0,0,0-17.85A2.88,2.88,0,0,0,93,66.4,2.09,2.09,0,0,0,92,66.08a1.29,1.29,0,0,0-.91.33,1.23,1.23,0,0,0-.35.91,2.2,2.2,0,0,0,.16.81A20.14,20.14,0,0,1,92,72.07a24.46,24.46,0,0,1,.34,4.22A23.74,23.74,0,0,1,92,80.47a21.62,21.62,0,0,1-1.13,3.94,2.16,2.16,0,0,0-.16.81,1.19,1.19,0,0,0,.35.9,1.24,1.24,0,0,0,.89.34A2.13,2.13,0,0,0,93,86.14,2.82,2.82,0,0,0,94,85.19Z"/><path d="M44.64,61.1V89.29a7.93,7.93,0,0,1-7.94,7.94H8.52A7.94,7.94,0,0,1,.57,89.29V61.1a8,8,0,0,1,8-7.94H36.7A7.94,7.94,0,0,1,44.64,61.1ZM5.26,85a2.79,2.79,0,0,0,.93.94,2,2,0,0,0,1,.32,1.29,1.29,0,0,0,.91-.33A1.18,1.18,0,0,0,8.5,85a2.11,2.11,0,0,0-.16-.8,21.71,21.71,0,0,1-1.13-4,23.63,23.63,0,0,1-.34-4.17,24.46,24.46,0,0,1,.34-4.22,20.43,20.43,0,0,1,1.13-4,2.11,2.11,0,0,0,.16-.8,1.2,1.2,0,0,0-.36-.93,1.25,1.25,0,0,0-.91-.34,1.94,1.94,0,0,0-1,.34,2.92,2.92,0,0,0-.93.95A16.73,16.73,0,0,0,5.26,85Zm7.29-7.43h4.32a2.08,2.08,0,0,0,1.44-.43,1.51,1.51,0,0,0,.47-1.18,1.47,1.47,0,0,0-.47-1.17,2.13,2.13,0,0,0-1.44-.42H12.55c-1.28,0-1.91.53-1.91,1.59S11.27,77.52,12.55,77.52ZM26.16,65.68a5.87,5.87,0,0,0-2.92.71,5.06,5.06,0,0,0-2,2A6.17,6.17,0,0,0,21.14,74a4.86,4.86,0,0,0,1.73,1.89,4.69,4.69,0,0,0,2.49.67,4.48,4.48,0,0,0,1.94-.42A3.69,3.69,0,0,0,28.72,75a6.1,6.1,0,0,1-.87,3A2.2,2.2,0,0,1,26,79a2.93,2.93,0,0,1-1.06-.19,12.19,12.19,0,0,1-1.27-.55l-.5-.25a6.5,6.5,0,0,0-.69-.33,1.5,1.5,0,0,0-.58-.11,1.24,1.24,0,0,0-1,.5,1.89,1.89,0,0,0-.4,1.2,1.77,1.77,0,0,0,.17.81,2.16,2.16,0,0,0,.57.62,7.35,7.35,0,0,0,2.31,1.15,8.78,8.78,0,0,0,2.63.41,6.23,6.23,0,0,0,3.58-1,6.71,6.71,0,0,0,2.37-3A11.14,11.14,0,0,0,33,73.82a9.15,9.15,0,0,0-1.77-6A6.17,6.17,0,0,0,26.16,65.68Zm.26,7.61A1.81,1.81,0,0,1,25,72.7a2.67,2.67,0,0,1,0-3.18,2,2,0,0,1,2.85,0,2.23,2.23,0,0,1,.55,1.57,2.29,2.29,0,0,1-.54,1.59A1.84,1.84,0,0,1,26.42,73.29ZM38,85A16.73,16.73,0,0,0,38,67.1a2.79,2.79,0,0,0-.93-.94A2,2,0,0,0,36,65.84a1.26,1.26,0,0,0-.9.33,1.17,1.17,0,0,0-.36.91,2.11,2.11,0,0,0,.16.8,20.43,20.43,0,0,1,1.13,4,24.46,24.46,0,0,1,.34,4.22A23.63,23.63,0,0,1,36,80.22a21.71,21.71,0,0,1-1.13,4,2.11,2.11,0,0,0-.16.8,1.18,1.18,0,0,0,.36.91,1.23,1.23,0,0,0,.88.33A2,2,0,0,0,37,85.89,2.79,2.79,0,0,0,38,85Z"/><path d="M71.61,10.33V38.51a7.93,7.93,0,0,1-7.94,7.94H35.48a7.94,7.94,0,0,1-7.94-7.94V10.33a7.94,7.94,0,0,1,7.94-7.94H63.67A7.93,7.93,0,0,1,71.61,10.33ZM33.22,34.17a2.81,2.81,0,0,0,.94.94,2,2,0,0,0,1,.33,1.25,1.25,0,0,0,.91-.34,1.17,1.17,0,0,0,.36-.91,2.37,2.37,0,0,0-.16-.8,21.62,21.62,0,0,1-1.13-3.94,23.74,23.74,0,0,1-.34-4.18,24.46,24.46,0,0,1,.34-4.22,20.14,20.14,0,0,1,1.13-3.94,2.43,2.43,0,0,0,.16-.81,1.2,1.2,0,0,0-.36-.93A1.29,1.29,0,0,0,35.2,15a2,2,0,0,0-1,.33,3,3,0,0,0-.94,1,15.68,15.68,0,0,0-2.57,9A15.7,15.7,0,0,0,33.22,34.17Zm7.3-7.43h4.32a2.13,2.13,0,0,0,1.44-.42,1.54,1.54,0,0,0,.47-1.19A1.5,1.5,0,0,0,46.28,24a2.13,2.13,0,0,0-1.44-.41H40.52c-1.28,0-1.91.52-1.91,1.58S39.24,26.74,40.52,26.74ZM54.13,14.9a6,6,0,0,0-2.92.71,5.13,5.13,0,0,0-2,2,5.77,5.77,0,0,0-.73,2.89,5.66,5.66,0,0,0,.64,2.72,4.63,4.63,0,0,0,4.22,2.57,4.34,4.34,0,0,0,1.94-.43,3.59,3.59,0,0,0,1.41-1.16,6.1,6.1,0,0,1-.86,3,2.2,2.2,0,0,1-1.9,1.07,3.09,3.09,0,0,1-1.05-.18c-.34-.13-.76-.31-1.27-.56l-.5-.25-.69-.33a1.5,1.5,0,0,0-.58-.11,1.24,1.24,0,0,0-1,.5,1.89,1.89,0,0,0-.4,1.21,1.72,1.72,0,0,0,.17.8,2,2,0,0,0,.57.62,7.14,7.14,0,0,0,2.31,1.15,8.8,8.8,0,0,0,2.63.42,6.23,6.23,0,0,0,3.58-1,6.68,6.68,0,0,0,2.37-2.95,11.15,11.15,0,0,0,.84-4.5,9.15,9.15,0,0,0-1.77-6A6.19,6.19,0,0,0,54.13,14.9Zm.25,7.61A1.8,1.8,0,0,1,53,21.92a2.29,2.29,0,0,1-.52-1.59A2.33,2.33,0,0,1,53,18.74a1.8,1.8,0,0,1,1.42-.6,1.82,1.82,0,0,1,1.43.61,2.25,2.25,0,0,1,.55,1.58,2.28,2.28,0,0,1-.54,1.58A1.84,1.84,0,0,1,54.38,22.51ZM65.93,34.17a15.63,15.63,0,0,0,2.58-8.9,15.61,15.61,0,0,0-2.58-8.95,2.88,2.88,0,0,0-.93-.94,2.09,2.09,0,0,0-1-.32,1.29,1.29,0,0,0-.91.33,1.21,1.21,0,0,0-.35.91,2.2,2.2,0,0,0,.16.81A20.14,20.14,0,0,1,64,21.05a24.46,24.46,0,0,1,.34,4.22A23.74,23.74,0,0,1,64,29.45a21.62,21.62,0,0,1-1.13,3.94,2.15,2.15,0,0,0-.16.8,1.2,1.2,0,0,0,.35.91,1.24,1.24,0,0,0,.89.34A2.05,2.05,0,0,0,65,35.11,2.7,2.7,0,0,0,65.93,34.17Z"/></svg>