<svg id="Layer_1" data-name="Layer 1" xmlns="http://www.w3.org/2000/svg" viewBox="0 0 100 100"><title>l22_1_1</title><path d="M99.65,61.35V89.53a7.93,7.93,0,0,1-7.94,7.94H63.52a7.94,7.94,0,0,1-7.94-7.94V61.35a7.94,7.94,0,0,1,7.94-7.94H91.71A7.93,7.93,0,0,1,99.65,61.35ZM74,74.88h-4V70.93a1.85,1.85,0,1,0-3.7,0v3.95h-4a1.81,1.81,0,0,0-1.85,1.85,1.85,1.85,0,0,0,.53,1.33,1.77,1.77,0,0,0,1.32.55h4v3.92a1.81,1.81,0,0,0,1.85,1.85,1.79,1.79,0,0,0,1.33-.53,1.82,1.82,0,0,0,.52-1.32V78.61h4a1.77,1.77,0,0,0,1.32-.55,1.85,1.85,0,0,0,.53-1.33A1.81,1.81,0,0,0,74,74.88Zm14.9-3.67a6,6,0,0,0-2.65.58,5,5,0,0,0-1.93,1.58,8.3,8.3,0,0,1,1.17-4.09,3,3,0,0,1,2.59-1.46,4.13,4.13,0,0,1,1.44.26,15.9,15.9,0,0,1,1.73.75l.69.34c.39.21.71.36.94.46a2.13,2.13,0,0,0,.78.14A1.66,1.66,0,0,0,95,69.09a2.46,2.46,0,0,0,.55-1.64,2.27,2.27,0,0,0-.23-1.1,3,3,0,0,0-.77-.85,10.09,10.09,0,0,0-3.15-1.56,12,12,0,0,0-3.59-.57,8.51,8.51,0,0,0-4.88,1.41,9.21,9.21,0,0,0-3.23,4,15.27,15.27,0,0,0-1.14,6.13q0,5.34,2.41,8.22A8.43,8.43,0,0,0,87.81,86a8.06,8.06,0,0,0,4-1,6.93,6.93,0,0,0,2.74-2.71,7.82,7.82,0,0,0,1-3.94,7.93,7.93,0,0,0-.86-3.71,6.4,6.4,0,0,0-2.37-2.57A6.29,6.29,0,0,0,88.91,71.21ZM87.46,81.62a2.48,2.48,0,0,1-1.94-.83,3.51,3.51,0,0,1,0-4.31,2.53,2.53,0,0,1,2-.82,2.48,2.48,0,0,1,2,.8,3.67,3.67,0,0,1,0,4.35A2.48,2.48,0,0,1,87.46,81.62Z"/><path d="M44.64,61.1V89.29a7.93,7.93,0,0,1-7.94,7.94H8.52A7.94,7.94,0,0,1,.57,89.29V61.1a8,8,0,0,1,8-7.94H36.7A7.94,7.94,0,0,1,44.64,61.1ZM18,74.64H14.05v-4a1.81,1.81,0,0,0-.53-1.32,1.91,1.91,0,0,0-2.64,0,1.81,1.81,0,0,0-.53,1.32v4H6.4a1.81,1.81,0,0,0-1.85,1.85,1.87,1.87,0,0,0,.53,1.33,1.77,1.77,0,0,0,1.32.55h3.95v3.92a1.81,1.81,0,0,0,1.85,1.85,1.79,1.79,0,0,0,1.33-.53,1.82,1.82,0,0,0,.52-1.32V78.37H18a1.77,1.77,0,0,0,1.32-.55,1.87,1.87,0,0,0,.53-1.33A1.81,1.81,0,0,0,18,74.64ZM32.9,71a6,6,0,0,0-2.65.58,5,5,0,0,0-1.93,1.58A8.38,8.38,0,0,1,29.49,69a3,3,0,0,1,2.59-1.46,4.36,4.36,0,0,1,1.44.25,18.63,18.63,0,0,1,1.73.76l.69.34a10.17,10.17,0,0,0,.94.45,1.94,1.94,0,0,0,.78.15A1.68,1.68,0,0,0,39,68.85a2.55,2.55,0,0,0,.54-1.64,2.27,2.27,0,0,0-.23-1.1,2.73,2.73,0,0,0-.77-.85,10.1,10.1,0,0,0-3.15-1.57,12.36,12.36,0,0,0-3.59-.56,8.51,8.51,0,0,0-4.88,1.41,9.15,9.15,0,0,0-3.23,4,15.27,15.27,0,0,0-1.14,6.13q0,5.33,2.41,8.22A8.43,8.43,0,0,0,31.8,85.8a8.06,8.06,0,0,0,4-1,7,7,0,0,0,2.75-2.71,7.94,7.94,0,0,0,1-3.94,7.85,7.85,0,0,0-.86-3.72,6.46,6.46,0,0,0-2.37-2.57A6.37,6.37,0,0,0,32.9,71ZM31.45,81.38a2.51,2.51,0,0,1-1.94-.83,3.51,3.51,0,0,1,0-4.31,2.52,2.52,0,0,1,2-.82,2.48,2.48,0,0,1,2,.8,3.18,3.18,0,0,1,.71,2.18,3.13,3.13,0,0,1-.72,2.16A2.45,2.45,0,0,1,31.45,81.38Z"/><path d="M71.61,10.33V38.51a7.93,7.93,0,0,1-7.94,7.94H35.48a7.94,7.94,0,0,1-7.94-7.94V10.33a7.94,7.94,0,0,1,7.94-7.94H63.67A7.93,7.93,0,0,1,71.61,10.33ZM46,23.86H42V19.91a1.85,1.85,0,1,0-3.7,0v3.95h-4a1.81,1.81,0,0,0-1.85,1.85A1.85,1.85,0,0,0,33.05,27a1.77,1.77,0,0,0,1.32.55h4v3.92a1.81,1.81,0,0,0,1.85,1.85,1.79,1.79,0,0,0,1.33-.53A1.82,1.82,0,0,0,42,31.51V27.59H46A1.77,1.77,0,0,0,47.29,27a1.85,1.85,0,0,0,.53-1.33A1.81,1.81,0,0,0,46,23.86Zm14.9-3.67a6,6,0,0,0-2.65.58,5,5,0,0,0-1.93,1.58,8.27,8.27,0,0,1,1.17-4.09,3,3,0,0,1,2.59-1.46,4.13,4.13,0,0,1,1.44.26,15.9,15.9,0,0,1,1.73.75l.69.34c.39.21.71.36.94.46a2.13,2.13,0,0,0,.78.14A1.66,1.66,0,0,0,67,18.07a2.48,2.48,0,0,0,.55-1.64,2.27,2.27,0,0,0-.23-1.1,3,3,0,0,0-.77-.85,10.09,10.09,0,0,0-3.15-1.56,12,12,0,0,0-3.59-.57,8.51,8.51,0,0,0-4.88,1.41,9.21,9.21,0,0,0-3.23,4,15.27,15.27,0,0,0-1.14,6.13q0,5.34,2.41,8.22A8.43,8.43,0,0,0,59.77,35a8.06,8.06,0,0,0,4-1,6.93,6.93,0,0,0,2.74-2.71,7.82,7.82,0,0,0,1-3.94,7.9,7.9,0,0,0-.86-3.71,6.4,6.4,0,0,0-2.37-2.57A6.29,6.29,0,0,0,60.87,20.19ZM59.42,30.6a2.51,2.51,0,0,1-1.94-.83,3.08,3.08,0,0,1-.75-2.15,3.09,3.09,0,0,1,.73-2.16,2.53,2.53,0,0,1,2-.82,2.48,2.48,0,0,1,2,.8,3.19,3.19,0,0,1,.71,2.18,3.18,3.18,0,0,1-.72,2.17A2.48,2.48,0,0,1,59.42,30.6Z"/></svg>