<svg id="Layer_1" data-name="Layer 1" xmlns="http://www.w3.org/2000/svg" viewBox="0 0 100 100"><title>l22_2_1</title><path d="M99.61,61.93V90.11a7.94,7.94,0,0,1-7.94,7.94H63.48a7.94,7.94,0,0,1-7.94-7.94V61.93A7.94,7.94,0,0,1,63.48,54H91.67A7.94,7.94,0,0,1,99.61,61.93ZM70.66,77.12l3.46-3.42a1.89,1.89,0,0,0,.58-1.38A1.69,1.69,0,0,0,74.12,71a1.78,1.78,0,0,0-1.34-.57,1.86,1.86,0,0,0-1.35.57L68,74.47,64.52,71a1.89,1.89,0,0,0-1.34-.61,1.7,1.7,0,0,0-1.32.58,1.88,1.88,0,0,0-.57,1.38,2,2,0,0,0,.54,1.34l3.46,3.42-3.46,3.46a1.84,1.84,0,0,0-.57,1.34,1.86,1.86,0,0,0,.57,1.35,2,2,0,0,0,1.35.54,1.82,1.82,0,0,0,1.34-.54L68,79.81l3.45,3.46a1.86,1.86,0,0,0,1.35.57,1.89,1.89,0,0,0,1.88-1.92,1.76,1.76,0,0,0-.54-1.34ZM89.1,71.49a6.22,6.22,0,0,0-2.71.59,5.17,5.17,0,0,0-2,1.62,8.6,8.6,0,0,1,1.2-4.18A3.08,3.08,0,0,1,88.26,68a4.3,4.3,0,0,1,1.48.25c.46.17,1.05.43,1.76.77l.7.35c.41.21.72.37,1,.47A2.2,2.2,0,0,0,94,70a1.7,1.7,0,0,0,1.36-.69,2.6,2.6,0,0,0,.56-1.68,2.35,2.35,0,0,0-.24-1.12,2.69,2.69,0,0,0-.78-.86,10.22,10.22,0,0,0-3.22-1.6A12.24,12.24,0,0,0,88,63.49a8.68,8.68,0,0,0-5,1.44A9.33,9.33,0,0,0,79.7,69a15.51,15.51,0,0,0-1.16,6.26q0,5.45,2.46,8.38a8.57,8.57,0,0,0,7,2.95,8.27,8.27,0,0,0,4.06-1,7.24,7.24,0,0,0,2.8-2.77,8,8,0,0,0,1-4A8.11,8.11,0,0,0,95,75.06a6.59,6.59,0,0,0-2.42-2.62A6.44,6.44,0,0,0,89.1,71.49ZM87.62,82.12a2.56,2.56,0,0,1-2-.85,3.56,3.56,0,0,1,0-4.4,2.85,2.85,0,0,1,4,0,3.27,3.27,0,0,1,.72,2.23,3.19,3.19,0,0,1-.73,2.2A2.5,2.5,0,0,1,87.62,82.12Z"/><path d="M44.6,61.68V89.87a8,8,0,0,1-7.94,7.94H8.47A8,8,0,0,1,.53,89.87V61.68a8,8,0,0,1,7.94-7.94H36.66A8,8,0,0,1,44.6,61.68ZM14.65,76.88l3.46-3.42a1.92,1.92,0,0,0,.58-1.38,1.69,1.69,0,0,0-.58-1.31,1.75,1.75,0,0,0-1.34-.58,1.83,1.83,0,0,0-1.35.58L12,74.22,8.51,70.77a1.83,1.83,0,0,0-1.34-.61,1.65,1.65,0,0,0-1.31.58,1.84,1.84,0,0,0-.58,1.37,2,2,0,0,0,.54,1.35l3.46,3.42L5.82,80.34a1.86,1.86,0,0,0,0,2.68,2,2,0,0,0,1.35.55A1.8,1.8,0,0,0,8.51,83L12,79.57,15.42,83a1.83,1.83,0,0,0,1.35.58,1.91,1.91,0,0,0,1.88-1.92,1.76,1.76,0,0,0-.54-1.34Zm18.44-5.63a6.25,6.25,0,0,0-2.71.59,5.15,5.15,0,0,0-2,1.62,8.53,8.53,0,0,1,1.2-4.18,3.09,3.09,0,0,1,2.65-1.49,4.29,4.29,0,0,1,1.47.26c.47.17,1.05.43,1.76.77l.7.35c.41.21.73.37,1,.46a2,2,0,0,0,.8.15,1.7,1.7,0,0,0,1.36-.69,2.6,2.6,0,0,0,.56-1.68,2.35,2.35,0,0,0-.24-1.12,2.82,2.82,0,0,0-.78-.87,10.44,10.44,0,0,0-3.22-1.6A12.55,12.55,0,0,0,32,63.25a8.68,8.68,0,0,0-5,1.44,9.33,9.33,0,0,0-3.3,4.11,15.68,15.68,0,0,0-1.16,6.26c0,3.62.82,6.42,2.46,8.38a8.6,8.6,0,0,0,7,2.94,8.25,8.25,0,0,0,4.06-1,7,7,0,0,0,2.8-2.77,8.53,8.53,0,0,0,.13-7.8,6.62,6.62,0,0,0-2.42-2.63A6.43,6.43,0,0,0,33.09,71.25ZM31.61,81.87a2.53,2.53,0,0,1-2-.85,3.13,3.13,0,0,1-.77-2.19,3.2,3.2,0,0,1,.75-2.21,2.59,2.59,0,0,1,2-.83,2.49,2.49,0,0,1,2,.82,3.75,3.75,0,0,1,0,4.43A2.5,2.5,0,0,1,31.61,81.87Z"/><path d="M71.57,10.91V39.09A7.94,7.94,0,0,1,63.63,47H35.44a7.94,7.94,0,0,1-7.94-7.94V10.91A7.94,7.94,0,0,1,35.44,3H63.63A7.94,7.94,0,0,1,71.57,10.91ZM42.62,26.1l3.46-3.42a1.91,1.91,0,0,0,.58-1.38A1.69,1.69,0,0,0,46.08,20a1.79,1.79,0,0,0-1.34-.58,1.87,1.87,0,0,0-1.35.58l-3.45,3.46L36.48,20a1.89,1.89,0,0,0-1.34-.61,1.67,1.67,0,0,0-1.32.58,1.87,1.87,0,0,0-.57,1.37,2,2,0,0,0,.54,1.35l3.46,3.42-3.46,3.46a1.84,1.84,0,0,0-.57,1.34,1.88,1.88,0,0,0,.57,1.35,2,2,0,0,0,1.35.54,1.82,1.82,0,0,0,1.34-.54l3.46-3.46,3.45,3.46a1.86,1.86,0,0,0,1.35.57,1.89,1.89,0,0,0,1.88-1.92,1.76,1.76,0,0,0-.54-1.34Zm18.44-5.63a6.22,6.22,0,0,0-2.71.59,5.17,5.17,0,0,0-2,1.62,8.57,8.57,0,0,1,1.2-4.18A3.08,3.08,0,0,1,60.22,17a4.3,4.3,0,0,1,1.48.25c.46.17,1,.43,1.76.77l.7.35c.41.21.72.37,1,.47a2.2,2.2,0,0,0,.8.14,1.7,1.7,0,0,0,1.36-.69,2.6,2.6,0,0,0,.56-1.68,2.35,2.35,0,0,0-.24-1.12,2.69,2.69,0,0,0-.78-.86,10,10,0,0,0-3.22-1.6,12.24,12.24,0,0,0-3.66-.58,8.68,8.68,0,0,0-5,1.44A9.33,9.33,0,0,0,51.66,18a15.51,15.51,0,0,0-1.16,6.26q0,5.45,2.46,8.38a8.57,8.57,0,0,0,7,3,8.17,8.17,0,0,0,4.06-1,7.14,7.14,0,0,0,2.8-2.76A8.55,8.55,0,0,0,66.93,24a6.62,6.62,0,0,0-2.42-2.63A6.52,6.52,0,0,0,61.06,20.47ZM59.58,31.1a2.56,2.56,0,0,1-2-.85,3.56,3.56,0,0,1,0-4.4,2.85,2.85,0,0,1,4,0,3.25,3.25,0,0,1,.72,2.23,3.19,3.19,0,0,1-.73,2.2A2.5,2.5,0,0,1,59.58,31.1Z"/></svg>