<svg id="Layer_1" data-name="Layer 1" xmlns="http://www.w3.org/2000/svg" viewBox="0 0 100 100"><title>l22_4_1</title><path d="M88.34,61.68V89.87a8,8,0,0,1-7.94,7.94H21.47a8,8,0,0,1-7.94-7.94V61.68a8,8,0,0,1,7.94-7.94H80.4A8,8,0,0,1,88.34,61.68ZM39.28,83.82H35.75V63.44a3.75,3.75,0,0,0-1-2.8,3.81,3.81,0,0,0-2.78-1,7.38,7.38,0,0,0-3.57,1.07l-6.88,4A2.93,2.93,0,0,0,20,67.35a3.62,3.62,0,0,0,.86,2.34,2.56,2.56,0,0,0,2.06,1.06,3,3,0,0,0,1.51-.43l3.44-2V83.82H24.36a4.34,4.34,0,0,0-2.84.77,2.9,2.9,0,0,0-.91,2.32q0,3.2,3.75,3.19H39.28Q43,90.1,43,86.91a2.87,2.87,0,0,0-.91-2.32A4.31,4.31,0,0,0,39.28,83.82Zm9.2,7.65,9.76-30.66a4.94,4.94,0,0,0,.17-.94,2.52,2.52,0,0,0-.92-2,3.22,3.22,0,0,0-2.13-.78,2.84,2.84,0,0,0-1.66.52,2.91,2.91,0,0,0-1.09,1.55L42.85,89.8a2.7,2.7,0,0,0-.18,1,2.46,2.46,0,0,0,.91,2,3.11,3.11,0,0,0,2.1.78,3,3,0,0,0,1.7-.52A2.92,2.92,0,0,0,48.48,91.47Zm29-17A6.51,6.51,0,0,0,80.88,72a7.44,7.44,0,0,0,1.22-4.3,7.12,7.12,0,0,0-3-6c-2-1.48-4.71-2.22-8.15-2.22a13.42,13.42,0,0,0-8.13,2.22,7.1,7.1,0,0,0-3,6A7.32,7.32,0,0,0,61,71.84a7.16,7.16,0,0,0,3.44,2.65,7.19,7.19,0,0,0-4,2.56A7.57,7.57,0,0,0,59,81.75a7.41,7.41,0,0,0,3.21,6.39q3.19,2.3,8.75,2.3c3.7,0,6.61-.77,8.75-2.3A7.57,7.57,0,0,0,77.5,74.49ZM71,84.46c-3.13,0-4.69-1.11-4.69-3.35s1.56-3.35,4.69-3.35,4.68,1.11,4.68,3.35S74.09,84.46,71,84.46Zm0-19.09a4.59,4.59,0,0,1,2.88.75,2.94,2.94,0,0,1,.94,2.43A3,3,0,0,1,73.85,71a5.71,5.71,0,0,1-5.76,0,3,3,0,0,1-1-2.45,3,3,0,0,1,1-2.43A4.59,4.59,0,0,1,71,65.37Z"/><path d="M71.57,10.91V39.09A7.94,7.94,0,0,1,63.63,47H35.44a7.94,7.94,0,0,1-7.94-7.94V10.91A7.94,7.94,0,0,1,35.44,3H63.63A7.94,7.94,0,0,1,71.57,10.91ZM62.85,21.33H53.78V12.26A4.17,4.17,0,0,0,49.53,8a4.18,4.18,0,0,0-4.25,4.24v9.07H36.21A4.18,4.18,0,0,0,32,25.58a4.21,4.21,0,0,0,1.22,3.06,4,4,0,0,0,3,1.26h9.07v9a4.31,4.31,0,0,0,7.31,3,4.16,4.16,0,0,0,1.19-3v-9h9.07a4.07,4.07,0,0,0,3-1.26,4.25,4.25,0,0,0,1.22-3.06,4.18,4.18,0,0,0-4.25-4.25Z"/></svg>