<svg id="Layer_1" data-name="Layer 1" xmlns="http://www.w3.org/2000/svg" viewBox="0 0 100 100"><title>l22_1_1</title><path d="M99.65,61.35V89.53a7.93,7.93,0,0,1-7.94,7.94H63.52a7.94,7.94,0,0,1-7.94-7.94V61.35a7.94,7.94,0,0,1,7.94-7.94H91.71A7.93,7.93,0,0,1,99.65,61.35ZM61.26,85.19a2.94,2.94,0,0,0,.94,1,2.08,2.08,0,0,0,1,.32,1.25,1.25,0,0,0,.91-.34,1.16,1.16,0,0,0,.36-.9,2.38,2.38,0,0,0-.16-.81,21.62,21.62,0,0,1-1.13-3.94,23.71,23.71,0,0,1-.35-4.18,24.43,24.43,0,0,1,.35-4.22,20.14,20.14,0,0,1,1.13-3.94,2.43,2.43,0,0,0,.16-.81,1.2,1.2,0,0,0-.36-.93,1.29,1.29,0,0,0-.91-.33,2,2,0,0,0-1,.33,3,3,0,0,0-.94,1,16.78,16.78,0,0,0,0,17.85Zm7.3-7.43h4.32a2.13,2.13,0,0,0,1.44-.42,1.54,1.54,0,0,0,.47-1.19A1.5,1.5,0,0,0,74.32,75a2.13,2.13,0,0,0-1.44-.41H68.56c-1.28,0-1.91.53-1.91,1.58S67.28,77.76,68.56,77.76ZM86.24,74a3.45,3.45,0,0,0,1.81-1.36,4,4,0,0,0,.65-2.3,3.82,3.82,0,0,0-1.59-3.23,8.63,8.63,0,0,0-8.71,0,3.81,3.81,0,0,0-1.61,3.23,3.94,3.94,0,0,0,.64,2.25A3.81,3.81,0,0,0,79.27,74a3.87,3.87,0,0,0-2.16,1.37,4.1,4.1,0,0,0-.76,2.52,3.94,3.94,0,0,0,1.72,3.41,7.88,7.88,0,0,0,4.68,1.23,7.9,7.9,0,0,0,4.68-1.23A4.05,4.05,0,0,0,86.24,74Zm-3.49,5.34c-1.67,0-2.51-.6-2.51-1.8s.84-1.79,2.51-1.79,2.5.6,2.5,1.79S84.42,79.33,82.75,79.33Zm0-10.21a2.44,2.44,0,0,1,1.54.4,1.58,1.58,0,0,1,.5,1.3,1.62,1.62,0,0,1-.5,1.31,3.1,3.1,0,0,1-3.08,0,1.59,1.59,0,0,1-.51-1.31,1.56,1.56,0,0,1,.51-1.3A2.42,2.42,0,0,1,82.75,69.12ZM94,85.19a16.73,16.73,0,0,0,0-17.85A2.88,2.88,0,0,0,93,66.4,2.09,2.09,0,0,0,92,66.08a1.29,1.29,0,0,0-.91.33,1.23,1.23,0,0,0-.35.91,2.2,2.2,0,0,0,.16.81A20.14,20.14,0,0,1,92,72.07a25.49,25.49,0,0,1,.34,4.22A24.74,24.74,0,0,1,92,80.47a21.62,21.62,0,0,1-1.13,3.94,2.16,2.16,0,0,0-.16.81,1.19,1.19,0,0,0,.35.9,1.24,1.24,0,0,0,.89.34A2.13,2.13,0,0,0,93,86.14,2.82,2.82,0,0,0,94,85.19Z"/><path d="M44.64,61.1V89.29a7.93,7.93,0,0,1-7.94,7.94H8.52A7.94,7.94,0,0,1,.57,89.29V61.1a8,8,0,0,1,8-7.94H36.7A7.94,7.94,0,0,1,44.64,61.1ZM5.26,85a2.79,2.79,0,0,0,.93.94,2,2,0,0,0,1,.32,1.29,1.29,0,0,0,.91-.33A1.18,1.18,0,0,0,8.5,85a2.11,2.11,0,0,0-.16-.8,21.71,21.71,0,0,1-1.13-4,23.63,23.63,0,0,1-.34-4.17,24.46,24.46,0,0,1,.34-4.22,20.43,20.43,0,0,1,1.13-4,2.11,2.11,0,0,0,.16-.8,1.2,1.2,0,0,0-.36-.93,1.25,1.25,0,0,0-.91-.34,1.94,1.94,0,0,0-1,.34,2.92,2.92,0,0,0-.93.95A16.73,16.73,0,0,0,5.26,85Zm7.29-7.43h4.32a2.08,2.08,0,0,0,1.44-.43,1.51,1.51,0,0,0,.47-1.18,1.47,1.47,0,0,0-.47-1.17,2.13,2.13,0,0,0-1.44-.42H12.55c-1.28,0-1.91.53-1.91,1.59S11.27,77.52,12.55,77.52Zm17.68-3.77A3.45,3.45,0,0,0,32,72.39a4,4,0,0,0,.66-2.3,3.83,3.83,0,0,0-1.6-3.23,7.18,7.18,0,0,0-4.36-1.18,7.17,7.17,0,0,0-4.35,1.18,3.81,3.81,0,0,0-1.61,3.23,3.88,3.88,0,0,0,.64,2.24,3.83,3.83,0,0,0,1.84,1.42,3.81,3.81,0,0,0-2.16,1.37,4.06,4.06,0,0,0-.76,2.52,4,4,0,0,0,1.72,3.41,7.88,7.88,0,0,0,4.68,1.23,7.88,7.88,0,0,0,4.68-1.23,4,4,0,0,0,1.71-3.41,4,4,0,0,0-.75-2.48A4,4,0,0,0,30.23,73.75Zm-3.49,5.33c-1.67,0-2.51-.59-2.51-1.79s.84-1.79,2.51-1.79,2.5.59,2.5,1.79S28.41,79.08,26.74,79.08Zm0-10.21a2.51,2.51,0,0,1,1.54.4,1.57,1.57,0,0,1,.51,1.3,1.61,1.61,0,0,1-.51,1.32,2.44,2.44,0,0,1-1.54.41,2.42,2.42,0,0,1-1.54-.41,1.61,1.61,0,0,1-.51-1.32,1.57,1.57,0,0,1,.51-1.3A2.49,2.49,0,0,1,26.74,68.87ZM38,85A16.73,16.73,0,0,0,38,67.1a2.79,2.79,0,0,0-.93-.94A2,2,0,0,0,36,65.84a1.26,1.26,0,0,0-.9.33,1.17,1.17,0,0,0-.36.91,2.11,2.11,0,0,0,.16.8,20.43,20.43,0,0,1,1.13,4,24.46,24.46,0,0,1,.34,4.22A23.63,23.63,0,0,1,36,80.22a21.71,21.71,0,0,1-1.13,4,2.11,2.11,0,0,0-.16.8,1.18,1.18,0,0,0,.36.91,1.23,1.23,0,0,0,.88.33A2,2,0,0,0,37,85.89,2.79,2.79,0,0,0,38,85Z"/><path d="M71.61,10.33V38.51a7.93,7.93,0,0,1-7.94,7.94H35.48a7.94,7.94,0,0,1-7.94-7.94V10.33a7.94,7.94,0,0,1,7.94-7.94H63.67A7.93,7.93,0,0,1,71.61,10.33ZM33.22,34.17a2.81,2.81,0,0,0,.94.94,2,2,0,0,0,1,.33,1.25,1.25,0,0,0,.91-.34,1.17,1.17,0,0,0,.36-.91,2.37,2.37,0,0,0-.16-.8,21.62,21.62,0,0,1-1.13-3.94,23.71,23.71,0,0,1-.35-4.18,24.43,24.43,0,0,1,.35-4.22,20.14,20.14,0,0,1,1.13-3.94,2.43,2.43,0,0,0,.16-.81,1.2,1.2,0,0,0-.36-.93A1.29,1.29,0,0,0,35.2,15a2,2,0,0,0-1,.33,3,3,0,0,0-.94,1,15.68,15.68,0,0,0-2.57,9A15.7,15.7,0,0,0,33.22,34.17Zm7.3-7.43h4.32a2.13,2.13,0,0,0,1.44-.42,1.54,1.54,0,0,0,.47-1.19A1.5,1.5,0,0,0,46.28,24a2.13,2.13,0,0,0-1.44-.41H40.52c-1.28,0-1.91.52-1.91,1.58S39.24,26.74,40.52,26.74ZM58.2,23A3.45,3.45,0,0,0,60,21.61a4,4,0,0,0,.65-2.3,3.82,3.82,0,0,0-1.59-3.23,7.18,7.18,0,0,0-4.36-1.18,7.17,7.17,0,0,0-4.35,1.18,3.81,3.81,0,0,0-1.61,3.23,3.94,3.94,0,0,0,.64,2.25A3.87,3.87,0,0,0,51.23,23a3.87,3.87,0,0,0-2.16,1.37,4.1,4.1,0,0,0-.76,2.52A4,4,0,0,0,50,30.27a7.88,7.88,0,0,0,4.68,1.23,7.92,7.92,0,0,0,4.68-1.23,4,4,0,0,0,1.71-3.41A3.8,3.8,0,0,0,58.2,23Zm-3.49,5.34c-1.67,0-2.51-.6-2.51-1.8s.84-1.79,2.51-1.79,2.5.6,2.5,1.79S56.38,28.31,54.71,28.31Zm0-10.21a2.44,2.44,0,0,1,1.54.4,1.58,1.58,0,0,1,.5,1.3,1.63,1.63,0,0,1-.5,1.31,3.1,3.1,0,0,1-3.08,0,1.6,1.6,0,0,1-.51-1.31,1.56,1.56,0,0,1,.51-1.3A2.42,2.42,0,0,1,54.71,18.1ZM65.93,34.17a15.63,15.63,0,0,0,2.58-8.9,15.61,15.61,0,0,0-2.58-8.95,2.88,2.88,0,0,0-.93-.94,2.09,2.09,0,0,0-1-.32,1.29,1.29,0,0,0-.91.33,1.21,1.21,0,0,0-.35.91,2.2,2.2,0,0,0,.16.81A20.85,20.85,0,0,1,64,21.05a25.49,25.49,0,0,1,.34,4.22A24.74,24.74,0,0,1,64,29.45a22.45,22.45,0,0,1-1.13,3.94,2.15,2.15,0,0,0-.16.8,1.2,1.2,0,0,0,.35.91,1.24,1.24,0,0,0,.89.34A2.05,2.05,0,0,0,65,35.11,2.7,2.7,0,0,0,65.93,34.17Z"/></svg>