<svg id="Layer_1" data-name="Layer 1" xmlns="http://www.w3.org/2000/svg" viewBox="0 0 100 100"><title>l22_4_11</title><path d="M87.4,61.3V89.48a7.93,7.93,0,0,1-7.94,7.94H20.54a7.93,7.93,0,0,1-7.94-7.94V61.3a7.94,7.94,0,0,1,7.94-7.95H79.46A7.94,7.94,0,0,1,87.4,61.3ZM38.34,83.43H34.82V63.05a3.75,3.75,0,0,0-1.06-2.8,3.81,3.81,0,0,0-2.77-1,7.24,7.24,0,0,0-3.57,1.08l-6.88,4A2.93,2.93,0,0,0,19,67a3.62,3.62,0,0,0,.87,2.35,2.58,2.58,0,0,0,2.06,1,2.85,2.85,0,0,0,1.5-.43l3.44-2V83.43H23.42a4.28,4.28,0,0,0-2.84.78,2.89,2.89,0,0,0-.9,2.32q0,3.18,3.74,3.18H38.34c2.5,0,3.74-1.06,3.74-3.18a2.89,2.89,0,0,0-.9-2.32A4.28,4.28,0,0,0,38.34,83.43Zm9.2,7.66L57.3,60.43a4.61,4.61,0,0,0,.18-1,2.51,2.51,0,0,0-.93-2,3.19,3.19,0,0,0-2.13-.77,2.87,2.87,0,0,0-1.65.51,3,3,0,0,0-1.1,1.55L41.91,89.41a2.94,2.94,0,0,0-.17,1,2.51,2.51,0,0,0,.9,2,3.17,3.17,0,0,0,2.11.77,2.84,2.84,0,0,0,2.79-2.06Zm29-17a6.44,6.44,0,0,0,3.37-2.54,7.43,7.43,0,0,0,1.23-4.3,7.13,7.13,0,0,0-3-6Q75.19,59,70,59a13.44,13.44,0,0,0-8.12,2.21,7.1,7.1,0,0,0-3,6,7.35,7.35,0,0,0,1.2,4.2,7,7,0,0,0,3.44,2.64,7.12,7.12,0,0,0-4,2.56,7.56,7.56,0,0,0-1.42,4.71,7.42,7.42,0,0,0,3.2,6.38c2.14,1.54,5.06,2.3,8.75,2.3s6.62-.76,8.75-2.3A7.41,7.41,0,0,0,82,81.37a7.07,7.07,0,0,0-5.42-7.27ZM70,84.08q-4.68,0-4.68-3.36T70,77.37q4.69,0,4.69,3.35T70,84.08ZM70,65a4.59,4.59,0,0,1,2.88.75,2.92,2.92,0,0,1,1,2.43,3,3,0,0,1-1,2.45,5.77,5.77,0,0,1-5.76,0,3,3,0,0,1-.94-2.45,2.92,2.92,0,0,1,.94-2.43A4.59,4.59,0,0,1,70,65Z"/><path d="M70.63,10.52V38.7a7.94,7.94,0,0,1-7.94,7.95H34.51a7.94,7.94,0,0,1-7.94-7.95V10.52a7.93,7.93,0,0,1,7.94-7.94H62.69A7.93,7.93,0,0,1,70.63,10.52ZM35.71,22.32H62.35a4,4,0,0,0,3-1.26A4.22,4.22,0,0,0,66.6,18a4.18,4.18,0,0,0-4.25-4.25H35.71a4,4,0,0,0-3,1.26,4.22,4.22,0,0,0-1.23,3.06,4.2,4.2,0,0,0,4.25,4.25Zm0,14.4H62.35a4,4,0,0,0,3-1.26A4.22,4.22,0,0,0,66.6,32.4a4.18,4.18,0,0,0-4.25-4.25H35.71a4,4,0,0,0-3,1.26,4.22,4.22,0,0,0-1.23,3.06,4.2,4.2,0,0,0,4.25,4.25Z"/></svg>