<svg id="Layer_1" data-name="Layer 1" xmlns="http://www.w3.org/2000/svg" viewBox="0 0 100 100"><title>l22_5_1</title><path d="M99.61,61.93V90.11a7.94,7.94,0,0,1-7.94,7.94H63.48a7.94,7.94,0,0,1-7.94-7.94V61.93A7.94,7.94,0,0,1,63.48,54H91.67A7.94,7.94,0,0,1,99.61,61.93ZM74.51,81.22,64.42,77.35l10.09-3.88a1.74,1.74,0,0,0,1.16-1.67,2.1,2.1,0,0,0-.59-1.54,2.07,2.07,0,0,0-1.52-.6,3.06,3.06,0,0,0-1,.21L61.19,74.25a3.36,3.36,0,0,0-1.55,1.24,3.44,3.44,0,0,0,0,3.76,3.21,3.21,0,0,0,1.55,1.19l11.32,4.39a3.28,3.28,0,0,0,1,.2,2.07,2.07,0,0,0,1.52-.6,2.1,2.1,0,0,0,.59-1.54,1.66,1.66,0,0,0-.31-1A2,2,0,0,0,74.51,81.22Zm20.57-2.89h-.74V66.06a2.89,2.89,0,0,0-.92-2.28A3.23,3.23,0,0,0,91.21,63a3.43,3.43,0,0,0-1.52.36,3.08,3.08,0,0,0-1.2,1L78.76,78.23A3.85,3.85,0,0,0,78,80.47a2.56,2.56,0,0,0,.71,1.87,2.54,2.54,0,0,0,1.94.75h7.58v1.16a3,3,0,0,0,.83,2.31,3.09,3.09,0,0,0,2.19.78,3.17,3.17,0,0,0,2.22-.78,3,3,0,0,0,.85-2.31V83.09h.74c2,0,3-.8,3-2.41S97.06,78.33,95.08,78.33Zm-10.91,0,4.08-5.88v5.88Z"/><path d="M44.6,61.68V89.87a8,8,0,0,1-7.94,7.94H8.47A8,8,0,0,1,.53,89.87V61.68a8,8,0,0,1,7.94-7.94H36.66A8,8,0,0,1,44.6,61.68ZM18.51,81.18,8.41,77.3l10.1-3.87a1.79,1.79,0,0,0,.85-.65,1.75,1.75,0,0,0,.3-1,2.1,2.1,0,0,0-.59-1.54,2,2,0,0,0-1.52-.6,3.33,3.33,0,0,0-1.05.2L5.18,74.21a3.36,3.36,0,0,0-1.55,1.24,3.44,3.44,0,0,0,0,3.76A3.21,3.21,0,0,0,5.18,80.4L16.5,84.79a3.33,3.33,0,0,0,1.05.2,2,2,0,0,0,1.52-.6,2.1,2.1,0,0,0,.59-1.54,1.72,1.72,0,0,0-.3-1A2.1,2.1,0,0,0,18.51,81.18Zm20.56-2.89h-.74V66a2.89,2.89,0,0,0-.92-2.28,3.19,3.19,0,0,0-2.21-.82,3.35,3.35,0,0,0-1.51.36,3.11,3.11,0,0,0-1.21,1L22.76,78.19A3.79,3.79,0,0,0,22,80.43a2.58,2.58,0,0,0,.71,1.87,2.55,2.55,0,0,0,1.94.75h7.58v1.16a3,3,0,0,0,.83,2.31,3.1,3.1,0,0,0,2.2.78,3.16,3.16,0,0,0,2.21-.78,3,3,0,0,0,.85-2.31V83.05h.74c2,0,3-.8,3-2.41S41.05,78.29,39.07,78.29Zm-10.91,0,4.08-5.88v5.88Z"/><path d="M71.57,10.91V39.09A7.94,7.94,0,0,1,63.63,47H35.44a7.94,7.94,0,0,1-7.94-7.94V10.91A7.94,7.94,0,0,1,35.44,3H63.63A7.94,7.94,0,0,1,71.57,10.91ZM46.47,31.4,36.38,27.53l10.09-3.88a1.68,1.68,0,0,0,.85-.64,1.73,1.73,0,0,0,.31-1,2.09,2.09,0,0,0-.6-1.55,2,2,0,0,0-1.51-.6,3.06,3.06,0,0,0-1.05.21L33.15,24.43a3.42,3.42,0,0,0-1.55,1.24,3.44,3.44,0,0,0,0,3.76,3.15,3.15,0,0,0,1.55,1.19L44.47,35a3.28,3.28,0,0,0,1.05.2A2.06,2.06,0,0,0,47,34.62a2.1,2.1,0,0,0,.6-1.55,1.61,1.61,0,0,0-.31-1A1.92,1.92,0,0,0,46.47,31.4ZM67,28.51h-.75V16.24A2.9,2.9,0,0,0,65.38,14a3.22,3.22,0,0,0-2.21-.81,3.42,3.42,0,0,0-1.52.35,3.24,3.24,0,0,0-1.2,1L50.72,28.41A3.79,3.79,0,0,0,50,30.66a2.49,2.49,0,0,0,2.65,2.61h7.58v1.16A3,3,0,0,0,61,36.74a3.49,3.49,0,0,0,4.4,0,3,3,0,0,0,.85-2.31V33.27H67c2,0,3-.8,3-2.41S69,28.51,67,28.51Zm-10.91,0,4.08-5.88v5.88Z"/></svg>