<svg id="Layer_1" data-name="Layer 1" xmlns="http://www.w3.org/2000/svg" viewBox="0 0 100 100"><title>l22_2_1</title><path d="M99.61,61.93V90.11a7.94,7.94,0,0,1-7.94,7.94H63.48a7.94,7.94,0,0,1-7.94-7.94V61.93A7.94,7.94,0,0,1,63.48,54H91.67A7.94,7.94,0,0,1,99.61,61.93ZM62.25,79H74.09a1.77,1.77,0,0,0,1.34-.56A1.88,1.88,0,0,0,76,77.12a1.86,1.86,0,0,0-1.89-1.88H62.25a1.79,1.79,0,0,0-1.35.56,1.87,1.87,0,0,0-.54,1.36,1.82,1.82,0,0,0,.54,1.34A1.85,1.85,0,0,0,62.25,79ZM68,73a1.93,1.93,0,0,0,1.45-.61,2,2,0,0,0,.6-1.47,2,2,0,0,0-.6-1.44,2,2,0,0,0-2.89,0A2,2,0,0,0,66,71a2.05,2.05,0,0,0,.58,1.47A1.87,1.87,0,0,0,68,73Zm0,12.35a1.93,1.93,0,0,0,1.45-.61,2,2,0,0,0,.6-1.44,2,2,0,0,0-.6-1.47A1.93,1.93,0,0,0,68,81.25a1.87,1.87,0,0,0-1.44.61A2.05,2.05,0,0,0,66,83.33a2,2,0,0,0,.58,1.46A1.93,1.93,0,0,0,68,85.38ZM86.38,63.49a8.29,8.29,0,0,0-4.07,1,7.24,7.24,0,0,0-2.8,2.77,8,8,0,0,0-1,4,8.11,8.11,0,0,0,.88,3.79,6.66,6.66,0,0,0,2.42,2.62,6.47,6.47,0,0,0,3.46.95A6.21,6.21,0,0,0,88,78a5.17,5.17,0,0,0,2-1.62,8.6,8.6,0,0,1-1.2,4.18,3.05,3.05,0,0,1-2.64,1.48,4.24,4.24,0,0,1-1.47-.25,19.14,19.14,0,0,1-1.76-.77l-.71-.35a10,10,0,0,0-1-.47,2.2,2.2,0,0,0-.8-.14,1.71,1.71,0,0,0-1.36.69,2.6,2.6,0,0,0-.56,1.68,2.35,2.35,0,0,0,.24,1.12,2.72,2.72,0,0,0,.79.86,10.06,10.06,0,0,0,3.21,1.6,12.26,12.26,0,0,0,3.67.58,8.67,8.67,0,0,0,5-1.44,9.33,9.33,0,0,0,3.3-4.11,15.54,15.54,0,0,0,1.17-6.26c0-3.63-.83-6.42-2.47-8.38A8.57,8.57,0,0,0,86.38,63.49Zm.35,10.59a2.53,2.53,0,0,1-2-.81A3.27,3.27,0,0,1,84,71a3.19,3.19,0,0,1,.73-2.2,2.52,2.52,0,0,1,2-.84,2.56,2.56,0,0,1,2,.85,3.56,3.56,0,0,1,0,4.4A2.55,2.55,0,0,1,86.73,74.08Z"/><path d="M44.6,61.68V89.87a8,8,0,0,1-7.94,7.94H8.47A8,8,0,0,1,.53,89.87V61.68a8,8,0,0,1,7.94-7.94H36.66A8,8,0,0,1,44.6,61.68ZM6.24,78.8H18.08a1.8,1.8,0,0,0,1.34-.56A1.86,1.86,0,0,0,20,76.88,1.88,1.88,0,0,0,18.08,75H6.24a1.8,1.8,0,0,0-1.34.56,1.87,1.87,0,0,0-.55,1.36A1.86,1.86,0,0,0,6.24,78.8Zm5.76-6a2,2,0,0,0,1.45-.6,2,2,0,0,0,.6-1.48,2,2,0,0,0-.6-1.44,2,2,0,0,0-1.45-.6,1.89,1.89,0,0,0-1.44.59A2,2,0,0,0,10,70.7a2.06,2.06,0,0,0,.58,1.48A1.9,1.9,0,0,0,12,72.78Zm0,12.36a2,2,0,0,0,1.45-.61,2.06,2.06,0,0,0,0-2.91A1.93,1.93,0,0,0,12,81a1.87,1.87,0,0,0-1.44.61A2,2,0,0,0,10,83.09a2,2,0,0,0,.58,1.45A1.9,1.9,0,0,0,12,85.14ZM30.37,63.25a8.29,8.29,0,0,0-4.07,1A7.17,7.17,0,0,0,23.5,67a8,8,0,0,0-1,4,8.16,8.16,0,0,0,.88,3.8,6.66,6.66,0,0,0,2.42,2.62,6.49,6.49,0,0,0,3.46.94,6.07,6.07,0,0,0,2.7-.59,5.06,5.06,0,0,0,2-1.61,8.52,8.52,0,0,1-1.2,4.17,3.06,3.06,0,0,1-2.64,1.49,4.07,4.07,0,0,1-1.47-.26,18.67,18.67,0,0,1-1.76-.76l-.71-.36c-.4-.21-.72-.36-1-.46a2,2,0,0,0-.8-.14,1.73,1.73,0,0,0-1.36.68,2.6,2.6,0,0,0-.56,1.68,2.32,2.32,0,0,0,.24,1.12,2.74,2.74,0,0,0,.79.87,10.27,10.27,0,0,0,3.21,1.6,12.56,12.56,0,0,0,3.67.57,8.65,8.65,0,0,0,5-1.44,9.33,9.33,0,0,0,3.3-4.11,15.46,15.46,0,0,0,1.17-6.25c0-3.63-.82-6.42-2.47-8.39A8.59,8.59,0,0,0,30.37,63.25Zm.35,10.59a2.52,2.52,0,0,1-2-.82A3.22,3.22,0,0,1,28,70.8a3.18,3.18,0,0,1,.74-2.21,2.75,2.75,0,0,1,4,0,3.08,3.08,0,0,1,.77,2.19A3.18,3.18,0,0,1,32.72,73,2.58,2.58,0,0,1,30.72,73.84Z"/><path d="M71.57,10.91V39.09A7.94,7.94,0,0,1,63.63,47H35.44a7.94,7.94,0,0,1-7.94-7.94V10.91A7.94,7.94,0,0,1,35.44,3H63.63A7.94,7.94,0,0,1,71.57,10.91ZM34.21,28H46.05a1.77,1.77,0,0,0,1.34-.56,1.88,1.88,0,0,0,.55-1.36,1.86,1.86,0,0,0-1.89-1.88H34.21a1.79,1.79,0,0,0-1.35.56,1.87,1.87,0,0,0-.54,1.36,1.82,1.82,0,0,0,.54,1.34A1.85,1.85,0,0,0,34.21,28ZM40,22a2,2,0,0,0,1.45-.61,2,2,0,0,0,.6-1.47,2,2,0,0,0-.6-1.44,2,2,0,0,0-2.89,0A2,2,0,0,0,38,19.93a2.05,2.05,0,0,0,.58,1.47A1.91,1.91,0,0,0,40,22Zm0,12.35a1.93,1.93,0,0,0,1.45-.61,2,2,0,0,0,.6-1.44,2,2,0,0,0-.6-1.47A1.93,1.93,0,0,0,40,30.23a1.87,1.87,0,0,0-1.44.61A2,2,0,0,0,38,32.31a2,2,0,0,0,.58,1.46A1.93,1.93,0,0,0,40,34.36ZM58.34,12.47a8.29,8.29,0,0,0-4.07,1,7.17,7.17,0,0,0-2.8,2.77,8,8,0,0,0-1,4A8.11,8.11,0,0,0,51.34,24a6.66,6.66,0,0,0,2.42,2.62,6.47,6.47,0,0,0,3.46.95,6.21,6.21,0,0,0,2.7-.59,5.17,5.17,0,0,0,2-1.62,8.6,8.6,0,0,1-1.2,4.18,3.05,3.05,0,0,1-2.64,1.48,4.24,4.24,0,0,1-1.47-.25A19.14,19.14,0,0,1,54.82,30l-.71-.35a10,10,0,0,0-1-.47,2.2,2.2,0,0,0-.8-.14,1.71,1.71,0,0,0-1.36.69,2.6,2.6,0,0,0-.56,1.68,2.35,2.35,0,0,0,.24,1.12,2.72,2.72,0,0,0,.79.86A10.06,10.06,0,0,0,54.67,35a12.58,12.58,0,0,0,3.67.58,8.67,8.67,0,0,0,5-1.44,9.33,9.33,0,0,0,3.3-4.11,15.54,15.54,0,0,0,1.17-6.26c0-3.63-.83-6.42-2.47-8.39A8.59,8.59,0,0,0,58.34,12.47Zm.35,10.59a2.53,2.53,0,0,1-2-.81A3.27,3.27,0,0,1,56,20a3.19,3.19,0,0,1,.73-2.2,2.52,2.52,0,0,1,2-.84,2.56,2.56,0,0,1,2,.85A3.16,3.16,0,0,1,61.44,20a3.17,3.17,0,0,1-.75,2.21A2.55,2.55,0,0,1,58.69,23.06Z"/></svg>