<svg id="Layer_1" data-name="Layer 1" xmlns="http://www.w3.org/2000/svg" viewBox="0 0 100 100"><title>l22_1_1</title><path d="M99.61,61.93V90.11a7.94,7.94,0,0,1-7.94,7.94H63.48a7.94,7.94,0,0,1-7.94-7.94V61.93A7.94,7.94,0,0,1,63.48,54H91.67A7.94,7.94,0,0,1,99.61,61.93ZM65.22,80.1h5.9a2.85,2.85,0,0,0,2-.58,2.09,2.09,0,0,0,.64-1.62,2,2,0,0,0-.64-1.59,2.9,2.9,0,0,0-2-.57h-5.9c-1.73,0-2.6.72-2.6,2.16S63.49,80.1,65.22,80.1ZM90.9,64.23H78.61a3.12,3.12,0,0,0-2.07.58,2.2,2.2,0,0,0-.66,1.74,2.14,2.14,0,0,0,.65,1.7,3.14,3.14,0,0,0,2.08.56h7.84L78.39,82.58a3,3,0,0,0-.44,1.5,2.35,2.35,0,0,0,.85,1.81,2.86,2.86,0,0,0,1.94.73,2.72,2.72,0,0,0,1.34-.36,3,3,0,0,0,1.08-1.11l9.5-16.46a4,4,0,0,0,.6-2.07,2.45,2.45,0,0,0-.62-1.71A2.21,2.21,0,0,0,90.9,64.23Z"/><path d="M44.6,61.68V89.87a8,8,0,0,1-7.94,7.94H8.47A8,8,0,0,1,.53,89.87V61.68a8,8,0,0,1,7.94-7.94H36.66A8,8,0,0,1,44.6,61.68ZM9.21,79.86h5.9a2.89,2.89,0,0,0,2-.58,2.07,2.07,0,0,0,.64-1.62,2,2,0,0,0-.64-1.6,2.94,2.94,0,0,0-2-.56H9.21c-1.73,0-2.6.72-2.6,2.16S7.48,79.86,9.21,79.86ZM34.89,64H22.6a3.06,3.06,0,0,0-2.07.58,2.2,2.2,0,0,0-.66,1.74A2.12,2.12,0,0,0,20.52,68a3.1,3.1,0,0,0,2.08.57h7.84L22.38,82.33a3,3,0,0,0-.44,1.51,2.31,2.31,0,0,0,.85,1.8,2.89,2.89,0,0,0,1.95.74A2.71,2.71,0,0,0,26.07,86a2.89,2.89,0,0,0,1.08-1.11l9.5-16.47a4,4,0,0,0,.6-2.07,2.45,2.45,0,0,0-.62-1.71A2.24,2.24,0,0,0,34.89,64Z"/><path d="M71.57,10.91V39.09A7.94,7.94,0,0,1,63.63,47H35.44a7.94,7.94,0,0,1-7.94-7.94V10.91A7.94,7.94,0,0,1,35.44,3H63.63A7.94,7.94,0,0,1,71.57,10.91ZM37.18,29.08h5.9a2.85,2.85,0,0,0,2-.58,2.11,2.11,0,0,0,.64-1.62A2,2,0,0,0,45,25.29a2.9,2.9,0,0,0-2-.57h-5.9c-1.73,0-2.6.72-2.6,2.16S35.45,29.08,37.18,29.08ZM62.86,13.21H50.57a3.12,3.12,0,0,0-2.07.58,2.2,2.2,0,0,0-.66,1.74,2.14,2.14,0,0,0,.65,1.7,3.14,3.14,0,0,0,2.08.56h7.84L50.35,31.56a3,3,0,0,0-.44,1.5,2.31,2.31,0,0,0,.85,1.8,2.82,2.82,0,0,0,1.94.74A2.72,2.72,0,0,0,54,35.24a3,3,0,0,0,1.08-1.11l9.5-16.46a4,4,0,0,0,.6-2.07,2.45,2.45,0,0,0-.62-1.71A2.21,2.21,0,0,0,62.86,13.21Z"/></svg>