<svg id="Layer_1" data-name="Layer 1" xmlns="http://www.w3.org/2000/svg" viewBox="0 0 100 100"><title>l22_1_1</title><path d="M99.61,61.93V90.11a7.94,7.94,0,0,1-7.94,7.94H63.48a7.94,7.94,0,0,1-7.94-7.94V61.93A7.94,7.94,0,0,1,63.48,54H91.67A7.94,7.94,0,0,1,99.61,61.93ZM61.22,85.77a2.79,2.79,0,0,0,.93.94A2,2,0,0,0,63.2,87a1.3,1.3,0,0,0,.91-.34,1.17,1.17,0,0,0,.36-.91,2.13,2.13,0,0,0-.17-.8A21.43,21.43,0,0,1,63.18,81a23.59,23.59,0,0,1-.35-4.17,24.43,24.43,0,0,1,.35-4.22,20.38,20.38,0,0,1,1.12-4,2.13,2.13,0,0,0,.17-.8,1.2,1.2,0,0,0-.36-.93,1.3,1.3,0,0,0-.91-.34,2,2,0,0,0-1.05.34,2.92,2.92,0,0,0-.93,1,16.78,16.78,0,0,0,0,17.85Zm7.29-7.43h4.33a2.13,2.13,0,0,0,1.44-.42,1.54,1.54,0,0,0,.47-1.19,1.48,1.48,0,0,0-.47-1.17,2.13,2.13,0,0,0-1.44-.42H68.51c-1.27,0-1.91.53-1.91,1.59S67.24,78.34,68.51,78.34Zm17.12-3.77a3.71,3.71,0,0,0,1.82-1.39A3.82,3.82,0,0,0,88.11,71a4,4,0,0,0-.7-2.35,4.59,4.59,0,0,0-2-1.56,7.63,7.63,0,0,0-3-.55,9.06,9.06,0,0,0-2.72.41,7.57,7.57,0,0,0-2.33,1.15,1.86,1.86,0,0,0-.56.62,1.91,1.91,0,0,0-.16.81,1.86,1.86,0,0,0,.39,1.2,1.2,1.2,0,0,0,1,.5,1.45,1.45,0,0,0,.57-.11,5,5,0,0,0,.69-.33l.49-.23A12.36,12.36,0,0,1,81,70a3.46,3.46,0,0,1,1.21-.21,2,2,0,0,1,1.4.47,1.73,1.73,0,0,1,.51,1.33,1.29,1.29,0,0,1-.58,1.17,3.45,3.45,0,0,1-1.84.37h-1a1.31,1.31,0,0,0-1.08.48,1.78,1.78,0,0,0-.39,1.15,1.76,1.76,0,0,0,.39,1.15,1.31,1.31,0,0,0,1.08.48h1.43a3.44,3.44,0,0,1,1.88.39A1.45,1.45,0,0,1,84.57,78,1.58,1.58,0,0,1,84,79.42a3.13,3.13,0,0,1-1.85.42,4.16,4.16,0,0,1-1.32-.2,11,11,0,0,1-1.32-.56L79.22,79l-.22-.1c-.29-.15-.52-.27-.69-.34a1.7,1.7,0,0,0-.57-.1,1.19,1.19,0,0,0-1,.5,1.88,1.88,0,0,0-.39,1.2,1.81,1.81,0,0,0,.16.8,1.86,1.86,0,0,0,.55.63,7.6,7.6,0,0,0,2.39,1.16,10.17,10.17,0,0,0,2.88.4,8.7,8.7,0,0,0,3.25-.56,4.82,4.82,0,0,0,2.15-1.6,4.37,4.37,0,0,0,0-4.94A3.9,3.9,0,0,0,85.63,74.57Zm8.3,11.2a16.78,16.78,0,0,0,0-17.85A2.88,2.88,0,0,0,93,67a2.09,2.09,0,0,0-1-.32A1.29,1.29,0,0,0,91,67a1.18,1.18,0,0,0-.35.91,2.11,2.11,0,0,0,.16.8,20.38,20.38,0,0,1,1.12,4,24.43,24.43,0,0,1,.35,4.22A23.59,23.59,0,0,1,92,81,21.43,21.43,0,0,1,90.85,85a2.11,2.11,0,0,0-.16.8,1.16,1.16,0,0,0,.35.91,1.26,1.26,0,0,0,.89.34A2.05,2.05,0,0,0,93,86.71,2.79,2.79,0,0,0,93.93,85.77Z"/><path d="M44.6,61.68V89.87a8,8,0,0,1-7.94,7.94H8.47A8,8,0,0,1,.53,89.87V61.68a8,8,0,0,1,7.94-7.94H36.66A8,8,0,0,1,44.6,61.68ZM5.21,85.53a2.73,2.73,0,0,0,.94.94,2,2,0,0,0,1,.32,1.29,1.29,0,0,0,.91-.33,1.18,1.18,0,0,0,.36-.91,2.33,2.33,0,0,0-.16-.8,20.94,20.94,0,0,1-1.13-4,23.59,23.59,0,0,1-.35-4.17,24.34,24.34,0,0,1,.35-4.22,19.74,19.74,0,0,1,1.13-4,2.33,2.33,0,0,0,.16-.8,1.2,1.2,0,0,0-.36-.93,1.25,1.25,0,0,0-.91-.34,1.91,1.91,0,0,0-1,.34,2.85,2.85,0,0,0-.94,1,16.78,16.78,0,0,0,0,17.85ZM12.5,78.1h4.33a2.08,2.08,0,0,0,1.44-.43,1.51,1.51,0,0,0,.47-1.18,1.47,1.47,0,0,0-.47-1.17,2.13,2.13,0,0,0-1.44-.42H12.5c-1.27,0-1.9.53-1.9,1.59S11.23,78.1,12.5,78.1Zm17.12-3.77a3.71,3.71,0,0,0,1.82-1.39,3.82,3.82,0,0,0,.66-2.22,4,4,0,0,0-.7-2.35,4.51,4.51,0,0,0-2-1.56,7.61,7.61,0,0,0-3-.56,9.14,9.14,0,0,0-2.73.42,7.46,7.46,0,0,0-2.33,1.15A1.88,1.88,0,0,0,21,70.45a1.22,1.22,0,0,0,1,.5,1.54,1.54,0,0,0,.58-.11l.69-.33.48-.23A13.43,13.43,0,0,1,25,69.73a3.46,3.46,0,0,1,1.21-.21,2,2,0,0,1,1.4.47,1.73,1.73,0,0,1,.51,1.32,1.29,1.29,0,0,1-.58,1.18,3.56,3.56,0,0,1-1.84.36h-1a1.32,1.32,0,0,0-1.08.49,1.76,1.76,0,0,0-.39,1.15,1.78,1.78,0,0,0,.39,1.15,1.31,1.31,0,0,0,1.08.48H26.1a3.44,3.44,0,0,1,1.88.39,1.43,1.43,0,0,1,.58,1.29A1.6,1.6,0,0,1,28,79.18a3.14,3.14,0,0,1-1.85.41,4.17,4.17,0,0,1-1.32-.19,9.73,9.73,0,0,1-1.32-.57l-.29-.12A2.25,2.25,0,0,1,23,78.6q-.43-.22-.69-.33a1.48,1.48,0,0,0-.57-.1,1.18,1.18,0,0,0-1,.49,1.89,1.89,0,0,0-.39,1.21,1.74,1.74,0,0,0,.16.79,1.8,1.8,0,0,0,.55.64,7.65,7.65,0,0,0,2.4,1.16,10.1,10.1,0,0,0,2.87.4,8.8,8.8,0,0,0,3.26-.56,4.94,4.94,0,0,0,2.15-1.6,4.41,4.41,0,0,0,0-5A3.88,3.88,0,0,0,29.62,74.33Zm8.3,11.2a16.73,16.73,0,0,0,0-17.85,2.79,2.79,0,0,0-.93-.94,2,2,0,0,0-1.05-.33,1.3,1.3,0,0,0-.91.34,1.16,1.16,0,0,0-.35.91,2.11,2.11,0,0,0,.16.8,20.38,20.38,0,0,1,1.12,4,24.34,24.34,0,0,1,.35,4.22A23.59,23.59,0,0,1,36,80.8a21.65,21.65,0,0,1-1.12,4,2.11,2.11,0,0,0-.16.8,1.18,1.18,0,0,0,.35.91,1.27,1.27,0,0,0,.89.33A2,2,0,0,0,37,86.47,2.79,2.79,0,0,0,37.92,85.53Z"/><path d="M71.57,10.91V39.09A7.94,7.94,0,0,1,63.63,47H35.44a7.94,7.94,0,0,1-7.94-7.94V10.91A7.94,7.94,0,0,1,35.44,3H63.63A7.94,7.94,0,0,1,71.57,10.91ZM33.18,34.75a2.79,2.79,0,0,0,.93.94,2,2,0,0,0,1,.33,1.3,1.3,0,0,0,.91-.34,1.17,1.17,0,0,0,.36-.91,2.13,2.13,0,0,0-.17-.8A21.65,21.65,0,0,1,35.14,30a23.59,23.59,0,0,1-.35-4.17,24.43,24.43,0,0,1,.35-4.22,20.38,20.38,0,0,1,1.12-3.95,2.13,2.13,0,0,0,.17-.8,1.2,1.2,0,0,0-.36-.93,1.3,1.3,0,0,0-.91-.34,2,2,0,0,0-1,.34,2.92,2.92,0,0,0-.93.95,15.61,15.61,0,0,0-2.57,9A15.65,15.65,0,0,0,33.18,34.75Zm7.29-7.43H44.8a2.09,2.09,0,0,0,1.43-.42,1.52,1.52,0,0,0,.48-1.19,1.45,1.45,0,0,0-.48-1.17,2.09,2.09,0,0,0-1.43-.42H40.47c-1.27,0-1.91.53-1.91,1.59S39.2,27.32,40.47,27.32Zm17.12-3.77a3.71,3.71,0,0,0,1.82-1.39,3.82,3.82,0,0,0,.66-2.22,4,4,0,0,0-.7-2.35,4.59,4.59,0,0,0-2-1.56,7.63,7.63,0,0,0-3-.55,9.06,9.06,0,0,0-2.72.41A7.57,7.57,0,0,0,49.31,17a1.86,1.86,0,0,0-.56.62,1.91,1.91,0,0,0-.16.81,1.88,1.88,0,0,0,.39,1.2,1.2,1.2,0,0,0,1,.5,1.45,1.45,0,0,0,.57-.11,6.5,6.5,0,0,0,.69-.33l.49-.23A12.36,12.36,0,0,1,53,19a3.46,3.46,0,0,1,1.21-.21,2,2,0,0,1,1.4.47,1.73,1.73,0,0,1,.51,1.33,1.29,1.29,0,0,1-.58,1.17,3.55,3.55,0,0,1-1.84.37h-1a1.31,1.31,0,0,0-1.08.48,1.78,1.78,0,0,0-.39,1.15,1.76,1.76,0,0,0,.39,1.15,1.31,1.31,0,0,0,1.08.48h1.43a3.44,3.44,0,0,1,1.88.39A1.44,1.44,0,0,1,56.53,27,1.58,1.58,0,0,1,56,28.4a3.13,3.13,0,0,1-1.85.42,4.16,4.16,0,0,1-1.32-.2,11,11,0,0,1-1.32-.56l-.29-.13-.22-.1a7,7,0,0,0-.69-.34,1.48,1.48,0,0,0-.57-.1,1.21,1.21,0,0,0-1,.49,1.91,1.91,0,0,0-.39,1.21,1.81,1.81,0,0,0,.16.8,1.86,1.86,0,0,0,.55.63,7.6,7.6,0,0,0,2.39,1.16,10.17,10.17,0,0,0,2.88.4,8.7,8.7,0,0,0,3.25-.56,4.82,4.82,0,0,0,2.15-1.6,4.37,4.37,0,0,0,0-4.94A3.9,3.9,0,0,0,57.59,23.55Zm8.3,11.2a15.65,15.65,0,0,0,2.57-8.9,15.61,15.61,0,0,0-2.57-9A2.79,2.79,0,0,0,65,16a2.09,2.09,0,0,0-1-.32A1.29,1.29,0,0,0,63,16a1.18,1.18,0,0,0-.35.91,2.11,2.11,0,0,0,.16.8,20.38,20.38,0,0,1,1.12,3.95,24.43,24.43,0,0,1,.35,4.22A23.59,23.59,0,0,1,63.93,30,21.65,21.65,0,0,1,62.81,34a2.11,2.11,0,0,0-.16.8,1.16,1.16,0,0,0,.35.91,1.26,1.26,0,0,0,.89.34A2.05,2.05,0,0,0,65,35.69,2.79,2.79,0,0,0,65.89,34.75Z"/></svg>