<svg id="Layer_1" data-name="Layer 1" xmlns="http://www.w3.org/2000/svg" viewBox="0 0 100 100"><title>l22_2_1</title><path d="M99.65,61.35V89.53a7.93,7.93,0,0,1-7.94,7.94H63.52a7.94,7.94,0,0,1-7.94-7.94V61.35a7.94,7.94,0,0,1,7.94-7.94H91.71A7.93,7.93,0,0,1,99.65,61.35ZM70.71,76.55l3.45-3.43a1.88,1.88,0,0,0,.58-1.37,1.7,1.7,0,0,0-.58-1.32,1.78,1.78,0,0,0-1.34-.57,1.86,1.86,0,0,0-1.35.57L68,73.89l-3.46-3.46a1.86,1.86,0,0,0-1.34-.6,1.67,1.67,0,0,0-1.31.57,1.87,1.87,0,0,0-.58,1.38,2,2,0,0,0,.54,1.34l3.46,3.43L61.87,80a1.84,1.84,0,0,0-.57,1.34,1.86,1.86,0,0,0,.57,1.35,2,2,0,0,0,1.35.54,1.82,1.82,0,0,0,1.34-.54L68,79.23l3.45,3.46a1.86,1.86,0,0,0,1.35.57,1.91,1.91,0,0,0,1.89-1.92A1.77,1.77,0,0,0,74.16,80ZM88.79,71a7.87,7.87,0,0,0-3.17.58V67.65h6.91c1.85,0,2.78-.75,2.78-2.24s-.93-2.21-2.78-2.21H82.61A2.45,2.45,0,0,0,79.89,66v8.68A1.74,1.74,0,0,0,80.5,76a2.2,2.2,0,0,0,1.5.53,3,3,0,0,0,1.44-.36,11.58,11.58,0,0,1,1.84-.57A8.48,8.48,0,0,1,87,75.46a3.58,3.58,0,0,1,2.49.8,2.84,2.84,0,0,1,.9,2.24,2.75,2.75,0,0,1-.87,2.25,4.07,4.07,0,0,1-2.65.72,5.15,5.15,0,0,1-1.78-.29,17.45,17.45,0,0,1-1.81-.76l-.64-.32a7,7,0,0,0-1-.48,2.06,2.06,0,0,0-.8-.13,1.65,1.65,0,0,0-1.34.69A2.64,2.64,0,0,0,79,81.86a2.38,2.38,0,0,0,.24,1.1,2.74,2.74,0,0,0,.75.88,10.45,10.45,0,0,0,3.28,1.6,13.14,13.14,0,0,0,3.89.58,10.37,10.37,0,0,0,4.57-1,7.2,7.2,0,0,0,3.07-2.72,7.56,7.56,0,0,0,1.09-4.07A7.67,7.67,0,0,0,95,74.48a6.49,6.49,0,0,0-2.53-2.56A7.37,7.37,0,0,0,88.79,71Z"/><path d="M44.64,61.1V89.29a7.93,7.93,0,0,1-7.94,7.94H8.52A7.94,7.94,0,0,1,.57,89.29V61.1a8,8,0,0,1,8-7.94H36.7A7.94,7.94,0,0,1,44.64,61.1ZM14.7,76.3l3.45-3.42a1.87,1.87,0,0,0,.58-1.38,1.66,1.66,0,0,0-.58-1.31,1.79,1.79,0,0,0-1.34-.58,1.89,1.89,0,0,0-1.35.58L12,73.65,8.55,70.19a1.83,1.83,0,0,0-1.34-.61,1.65,1.65,0,0,0-1.31.58,1.84,1.84,0,0,0-.58,1.37,2,2,0,0,0,.54,1.35L9.32,76.3,5.86,79.76a1.84,1.84,0,0,0-.57,1.34,1.88,1.88,0,0,0,.57,1.35A2,2,0,0,0,7.21,83a1.82,1.82,0,0,0,1.34-.54L12,79l3.45,3.46a1.88,1.88,0,0,0,1.35.57,1.84,1.84,0,0,0,1.34-.57,1.87,1.87,0,0,0,.55-1.35,1.77,1.77,0,0,0-.55-1.34Zm18.08-5.53a8,8,0,0,0-3.17.57V67.41h6.91c1.86,0,2.78-.75,2.78-2.24S38.38,63,36.52,63H26.6a2.74,2.74,0,0,0-2,.7,2.81,2.81,0,0,0-.7,2v8.67a1.73,1.73,0,0,0,.61,1.39,2.15,2.15,0,0,0,1.5.53A3.12,3.12,0,0,0,27.43,76a11.74,11.74,0,0,1,1.84-.58A9.31,9.31,0,0,1,31,75.21a3.62,3.62,0,0,1,2.49.8,2.85,2.85,0,0,1,.9,2.24,2.76,2.76,0,0,1-.87,2.26,4.07,4.07,0,0,1-2.65.72,5.4,5.4,0,0,1-1.78-.29,18.7,18.7,0,0,1-1.81-.77l-.64-.32a10.43,10.43,0,0,0-1-.48,2.29,2.29,0,0,0-.8-.12,1.64,1.64,0,0,0-1.34.68A2.64,2.64,0,0,0,23,81.61a2.39,2.39,0,0,0,.24,1.11,2.87,2.87,0,0,0,.75.88,10.78,10.78,0,0,0,3.28,1.6,13.47,13.47,0,0,0,3.89.57,10.37,10.37,0,0,0,4.57-1,7.08,7.08,0,0,0,3.07-2.72A7.5,7.5,0,0,0,39.91,78,7.67,7.67,0,0,0,39,74.24a6.49,6.49,0,0,0-2.53-2.56A7.37,7.37,0,0,0,32.78,70.77Z"/><path d="M71.61,10.33V38.51a7.93,7.93,0,0,1-7.94,7.94H35.48a7.94,7.94,0,0,1-7.94-7.94V10.33a7.94,7.94,0,0,1,7.94-7.94H63.67A7.93,7.93,0,0,1,71.61,10.33ZM42.67,25.52l3.45-3.42a1.89,1.89,0,0,0,.58-1.38,1.69,1.69,0,0,0-.58-1.31,1.78,1.78,0,0,0-1.34-.57,1.86,1.86,0,0,0-1.35.57L40,22.87l-3.46-3.46a1.87,1.87,0,0,0-1.34-.61,1.68,1.68,0,0,0-1.31.58,1.85,1.85,0,0,0-.58,1.38,2,2,0,0,0,.54,1.34l3.46,3.42L33.83,29a1.84,1.84,0,0,0-.57,1.34,1.86,1.86,0,0,0,.57,1.35,2,2,0,0,0,1.35.54,1.82,1.82,0,0,0,1.34-.54L40,28.21l3.45,3.46a1.86,1.86,0,0,0,1.35.57,1.91,1.91,0,0,0,1.89-1.92A1.77,1.77,0,0,0,46.12,29ZM60.75,20a8,8,0,0,0-3.17.57V16.63h6.91c1.85,0,2.78-.75,2.78-2.24s-.93-2.21-2.78-2.21H54.57a2.77,2.77,0,0,0-2,.7,2.79,2.79,0,0,0-.7,2V23.6a1.76,1.76,0,0,0,.61,1.4,2.19,2.19,0,0,0,1.5.52,3,3,0,0,0,1.44-.35,11.58,11.58,0,0,1,1.84-.57A8.48,8.48,0,0,1,59,24.44a3.58,3.58,0,0,1,2.49.8,2.84,2.84,0,0,1,.9,2.24,2.75,2.75,0,0,1-.87,2.25,4.07,4.07,0,0,1-2.65.72,5.15,5.15,0,0,1-1.78-.29,17.45,17.45,0,0,1-1.81-.76l-.64-.32a7,7,0,0,0-1-.48,2.06,2.06,0,0,0-.8-.13,1.65,1.65,0,0,0-1.34.69A2.62,2.62,0,0,0,51,30.84a2.38,2.38,0,0,0,.24,1.1,2.74,2.74,0,0,0,.75.88,10.45,10.45,0,0,0,3.28,1.6,13.48,13.48,0,0,0,3.89.58,10.37,10.37,0,0,0,4.57-1,7.2,7.2,0,0,0,3.07-2.72,7.56,7.56,0,0,0,1.09-4.07A7.67,7.67,0,0,0,67,23.46a6.49,6.49,0,0,0-2.53-2.56A7.37,7.37,0,0,0,60.75,20Z"/></svg>