<svg id="Layer_1" data-name="Layer 1" xmlns="http://www.w3.org/2000/svg" viewBox="0 0 100 100"><title>l22_3_1</title><path d="M99.61,61.93V90.11a7.94,7.94,0,0,1-7.94,7.94H63.48a7.94,7.94,0,0,1-7.94-7.94V61.93A7.94,7.94,0,0,1,63.48,54H91.67A7.94,7.94,0,0,1,99.61,61.93Zm-15.5,12.6A6.5,6.5,0,0,0,87.49,72a7.52,7.52,0,0,0,1.22-4.3,7.13,7.13,0,0,0-3-6c-2-1.48-4.71-2.21-8.15-2.21s-6.12.73-8.12,2.21a7.1,7.1,0,0,0-3,6,7.29,7.29,0,0,0,1.2,4.19,7.06,7.06,0,0,0,3.44,2.65,7.12,7.12,0,0,0-4,2.56,7.52,7.52,0,0,0-1.42,4.71,7.42,7.42,0,0,0,3.2,6.38q3.21,2.29,8.75,2.3t8.75-2.3a7.41,7.41,0,0,0,3.21-6.38,7.54,7.54,0,0,0-1.4-4.63A7.46,7.46,0,0,0,84.11,74.53Zm-6.54,10c-3.12,0-4.68-1.11-4.68-3.35s1.56-3.35,4.68-3.35,4.69,1.11,4.69,3.35S80.7,84.5,77.57,84.5Zm0-19.09a4.64,4.64,0,0,1,2.89.75,3,3,0,0,1,.94,2.43,3,3,0,0,1-.94,2.46,4.57,4.57,0,0,1-2.89.77,4.52,4.52,0,0,1-2.88-.77,3,3,0,0,1-.94-2.46,2.94,2.94,0,0,1,.94-2.43A4.59,4.59,0,0,1,77.57,65.41Z"/><path d="M44.6,61.68V89.87a8,8,0,0,1-7.94,7.94H8.47A8,8,0,0,1,.53,89.87V61.68a8,8,0,0,1,7.94-7.94H36.66A8,8,0,0,1,44.6,61.68ZM28.1,74.49A6.55,6.55,0,0,0,31.48,72a7.52,7.52,0,0,0,1.22-4.3,7.1,7.1,0,0,0-3-6c-2-1.48-4.71-2.22-8.14-2.22a13.38,13.38,0,0,0-8.13,2.22,7.1,7.1,0,0,0-3,6,7.32,7.32,0,0,0,1.2,4.19,7.11,7.11,0,0,0,3.44,2.65,7.16,7.16,0,0,0-4,2.56,7.51,7.51,0,0,0-1.42,4.7,7.43,7.43,0,0,0,3.2,6.39q3.21,2.3,8.76,2.3t8.75-2.3a7.43,7.43,0,0,0,3.2-6.39,7.53,7.53,0,0,0-1.4-4.62A7.4,7.4,0,0,0,28.1,74.49Zm-6.53,10c-3.13,0-4.69-1.11-4.69-3.35s1.56-3.35,4.69-3.35,4.68,1.11,4.68,3.35S24.69,84.46,21.57,84.46Zm0-19.09a4.59,4.59,0,0,1,2.88.75,2.94,2.94,0,0,1,.94,2.43A3,3,0,0,1,24.45,71a4.46,4.46,0,0,1-2.88.78A4.49,4.49,0,0,1,18.68,71a3,3,0,0,1-.94-2.45,2.94,2.94,0,0,1,.94-2.43A4.62,4.62,0,0,1,21.57,65.37Z"/><path d="M71.57,10.91V39.09A7.94,7.94,0,0,1,63.63,47H35.44a7.94,7.94,0,0,1-7.94-7.94V10.91A7.94,7.94,0,0,1,35.44,3H63.63A7.94,7.94,0,0,1,71.57,10.91Zm-16,14.67,7.78-7.7a4.24,4.24,0,0,0,1.29-3.1,3.78,3.78,0,0,0-1.29-2.95,4,4,0,0,0-3-1.29,4.14,4.14,0,0,0-3,1.29l-7.78,7.78-7.77-7.78a4.21,4.21,0,0,0-3-1.37,3.79,3.79,0,0,0-2.95,1.3,4.24,4.24,0,0,0-1.29,3.1,4.41,4.41,0,0,0,1.22,3l7.78,7.7-7.78,7.78a4.17,4.17,0,0,0,0,6,4.45,4.45,0,0,0,3,1.22,4.15,4.15,0,0,0,3-1.22l7.77-7.78,7.78,7.78a4.25,4.25,0,0,0,7.27-3,4,4,0,0,0-1.22-3Z"/></svg>