<svg id="Layer_1" data-name="Layer 1" xmlns="http://www.w3.org/2000/svg" viewBox="0 0 100 100"><title>l22_1_1</title><path d="M99.61,61.93V90.11a7.94,7.94,0,0,1-7.94,7.94H63.48a7.94,7.94,0,0,1-7.94-7.94V61.93A7.94,7.94,0,0,1,63.48,54H91.67A7.94,7.94,0,0,1,99.61,61.93ZM74,75.46H70V71.51a1.85,1.85,0,1,0-3.7,0v3.95H62.37a1.87,1.87,0,0,0-1.32,3.18,1.74,1.74,0,0,0,1.32.55h3.95v3.92a1.79,1.79,0,0,0,.53,1.32,1.81,1.81,0,0,0,1.32.53,1.79,1.79,0,0,0,1.33-.53A1.82,1.82,0,0,0,70,83.11V79.19h4a1.77,1.77,0,0,0,1.32-.55,1.85,1.85,0,0,0,.53-1.33A1.81,1.81,0,0,0,74,75.46ZM91,75a5.11,5.11,0,0,0,2.5-1.9,5.27,5.27,0,0,0,.89-3,5.44,5.44,0,0,0-1-3.19,6.14,6.14,0,0,0-2.72-2.14,10.48,10.48,0,0,0-4.1-.75,12.74,12.74,0,0,0-3.71.56,10.39,10.39,0,0,0-3.18,1.57,2.57,2.57,0,0,0-.76.85,2.8,2.8,0,0,0,.32,2.74,1.61,1.61,0,0,0,1.31.68,2.14,2.14,0,0,0,.79-.14c.23-.1.54-.25.94-.46l.66-.31a14.7,14.7,0,0,1,1.71-.75,4.68,4.68,0,0,1,1.64-.29,2.68,2.68,0,0,1,1.91.65,2.33,2.33,0,0,1,.69,1.8,1.77,1.77,0,0,1-.78,1.6,4.85,4.85,0,0,1-2.51.5H84.22a1.79,1.79,0,0,0-1.47.66,2.39,2.39,0,0,0-.53,1.57,2.36,2.36,0,0,0,.53,1.56,1.79,1.79,0,0,0,1.47.66h2a4.66,4.66,0,0,1,2.57.54,2,2,0,0,1,.78,1.75,2.15,2.15,0,0,1-.77,1.88,4.3,4.3,0,0,1-2.52.57,5.58,5.58,0,0,1-1.8-.27,13.34,13.34,0,0,1-1.81-.77l-.39-.17-.3-.14a9.07,9.07,0,0,0-.94-.45,1.94,1.94,0,0,0-.78-.15,1.64,1.64,0,0,0-1.32.68,2.6,2.6,0,0,0-.53,1.64,2.47,2.47,0,0,0,.22,1.09,2.36,2.36,0,0,0,.75.86A10,10,0,0,0,82.59,86a13.8,13.8,0,0,0,3.92.55A11.66,11.66,0,0,0,91,85.82a6.61,6.61,0,0,0,2.93-2.18,5.47,5.47,0,0,0,1-3.32,5.57,5.57,0,0,0-1.06-3.42A5.28,5.28,0,0,0,91,75Z"/><path d="M44.6,61.68V89.87a8,8,0,0,1-7.94,7.94H8.47A8,8,0,0,1,.53,89.87V61.68a8,8,0,0,1,7.94-7.94H36.66A8,8,0,0,1,44.6,61.68ZM18,75.22H14v-4A1.86,1.86,0,0,0,10.84,70a1.79,1.79,0,0,0-.53,1.31v4H6.36a1.81,1.81,0,0,0-1.85,1.85A1.83,1.83,0,0,0,5,78.4,1.79,1.79,0,0,0,6.36,79h4v3.92a1.83,1.83,0,0,0,1.85,1.85,1.76,1.76,0,0,0,1.33-.54A1.78,1.78,0,0,0,14,82.87V79h4a1.8,1.8,0,0,0,1.32-.55,1.87,1.87,0,0,0,.53-1.33A1.81,1.81,0,0,0,18,75.22Zm17-.51a5.11,5.11,0,0,0,2.49-1.89,5.27,5.27,0,0,0,.89-3,5.54,5.54,0,0,0-1-3.2,6.14,6.14,0,0,0-2.73-2.13,10.43,10.43,0,0,0-4.09-.75,12.76,12.76,0,0,0-3.72.56,10.5,10.5,0,0,0-3.18,1.57,2.15,2.15,0,0,0-1,1.94,2.56,2.56,0,0,0,.54,1.65,1.6,1.6,0,0,0,1.31.67,2,2,0,0,0,.79-.14,10.17,10.17,0,0,0,.94-.45l.66-.31a15.7,15.7,0,0,1,1.71-.76,4.67,4.67,0,0,1,1.64-.28,2.75,2.75,0,0,1,1.92.64,2.35,2.35,0,0,1,.69,1.81,1.78,1.78,0,0,1-.79,1.6,4.85,4.85,0,0,1-2.51.5H28.21a1.8,1.8,0,0,0-1.47.66,2.36,2.36,0,0,0-.53,1.56,2.39,2.39,0,0,0,.53,1.57,1.8,1.8,0,0,0,1.47.66h1.95a4.76,4.76,0,0,1,2.57.53,2,2,0,0,1,.78,1.76,2.16,2.16,0,0,1-.77,1.88,4.31,4.31,0,0,1-2.52.56,5.59,5.59,0,0,1-1.8-.26,14.75,14.75,0,0,1-1.81-.77l-.39-.17-.3-.14c-.39-.21-.71-.36-.94-.46A2.13,2.13,0,0,0,24.2,80a1.64,1.64,0,0,0-1.32.68,2.56,2.56,0,0,0-.53,1.64,2.39,2.39,0,0,0,.22,1.08,2.47,2.47,0,0,0,.75.86,10,10,0,0,0,3.26,1.59,14.17,14.17,0,0,0,3.92.55,11.79,11.79,0,0,0,4.44-.77,6.61,6.61,0,0,0,2.93-2.18,5.47,5.47,0,0,0,1-3.32,5.56,5.56,0,0,0-1-3.42A5.38,5.38,0,0,0,35,74.71Z"/><path d="M71.57,10.91V39.09A7.94,7.94,0,0,1,63.63,47H35.44a7.94,7.94,0,0,1-7.94-7.94V10.91A7.94,7.94,0,0,1,35.44,3H63.63A7.94,7.94,0,0,1,71.57,10.91ZM45.93,24.44H42v-4a1.83,1.83,0,0,0-1.85-1.85,1.81,1.81,0,0,0-1.32.53,1.77,1.77,0,0,0-.53,1.32v4h-4A1.87,1.87,0,0,0,33,27.62a1.74,1.74,0,0,0,1.32.55h4v3.92a1.79,1.79,0,0,0,.53,1.32,1.81,1.81,0,0,0,1.32.53,1.79,1.79,0,0,0,1.33-.53A1.82,1.82,0,0,0,42,32.09V28.17h4a1.77,1.77,0,0,0,1.32-.55,1.85,1.85,0,0,0,.53-1.33,1.81,1.81,0,0,0-1.85-1.85Zm17-.5a5.11,5.11,0,0,0,2.5-1.9,5.27,5.27,0,0,0,.89-3,5.49,5.49,0,0,0-1-3.2,6.13,6.13,0,0,0-2.72-2.13,10.48,10.48,0,0,0-4.1-.75,12.74,12.74,0,0,0-3.71.56,10.39,10.39,0,0,0-3.18,1.57,2.57,2.57,0,0,0-.76.85,2.8,2.8,0,0,0,.32,2.74,1.61,1.61,0,0,0,1.31.68,2.14,2.14,0,0,0,.79-.14c.23-.1.54-.25.94-.46l.66-.31a13.17,13.17,0,0,1,1.71-.75,4.68,4.68,0,0,1,1.64-.29,2.68,2.68,0,0,1,1.91.65,2.33,2.33,0,0,1,.69,1.8,1.77,1.77,0,0,1-.78,1.6,4.85,4.85,0,0,1-2.51.5H56.18a1.79,1.79,0,0,0-1.47.66,2.39,2.39,0,0,0-.53,1.57,2.36,2.36,0,0,0,.53,1.56,1.79,1.79,0,0,0,1.47.66h2a4.66,4.66,0,0,1,2.57.54,2,2,0,0,1,.78,1.75,2.15,2.15,0,0,1-.77,1.88,4.3,4.3,0,0,1-2.52.57,5.58,5.58,0,0,1-1.8-.27,13.34,13.34,0,0,1-1.81-.77l-.39-.17-.3-.14c-.39-.21-.71-.36-.94-.46a2.13,2.13,0,0,0-.78-.14,1.64,1.64,0,0,0-1.32.68,2.6,2.6,0,0,0-.53,1.64,2.47,2.47,0,0,0,.22,1.09,2.36,2.36,0,0,0,.75.86A10,10,0,0,0,54.55,35a13.8,13.8,0,0,0,3.92.55,11.86,11.86,0,0,0,4.44-.77,6.61,6.61,0,0,0,2.93-2.18,5.47,5.47,0,0,0,1-3.32,5.57,5.57,0,0,0-1.06-3.42A5.28,5.28,0,0,0,62.92,23.94Z"/></svg>