<svg id="Layer_1" data-name="Layer 1" xmlns="http://www.w3.org/2000/svg" viewBox="0 0 100 100"><title>l22_2_1</title><path d="M99.61,61.93V90.11a7.94,7.94,0,0,1-7.94,7.94H63.48a7.94,7.94,0,0,1-7.94-7.94V61.93A7.94,7.94,0,0,1,63.48,54H91.67A7.94,7.94,0,0,1,99.61,61.93ZM62.25,79H74.09a1.77,1.77,0,0,0,1.34-.56A1.88,1.88,0,0,0,76,77.12a1.86,1.86,0,0,0-1.89-1.88H62.25a1.79,1.79,0,0,0-1.35.56,1.87,1.87,0,0,0-.54,1.36,1.82,1.82,0,0,0,.54,1.34A1.85,1.85,0,0,0,62.25,79ZM68,73a1.93,1.93,0,0,0,1.45-.61,2,2,0,0,0,.6-1.47,2,2,0,0,0-.6-1.44,2,2,0,0,0-2.89,0A2,2,0,0,0,66,71a2.05,2.05,0,0,0,.58,1.47A1.87,1.87,0,0,0,68,73Zm0,12.35a1.93,1.93,0,0,0,1.45-.61,2,2,0,0,0,.6-1.44,2,2,0,0,0-.6-1.47A1.93,1.93,0,0,0,68,81.25a1.87,1.87,0,0,0-1.44.61A2.05,2.05,0,0,0,66,83.33a2,2,0,0,0,.58,1.46A1.93,1.93,0,0,0,68,85.38ZM92,74.72a4.81,4.81,0,0,0,2.51-1.88,5.57,5.57,0,0,0,.91-3.2,5.31,5.31,0,0,0-2.22-4.5,10,10,0,0,0-6.06-1.65,10,10,0,0,0-6.05,1.65,5.27,5.27,0,0,0-2.24,4.5,5.52,5.52,0,0,0,.89,3.12,5.25,5.25,0,0,0,2.56,2,5.34,5.34,0,0,0-3,1.91,5.58,5.58,0,0,0-1.06,3.5,5.51,5.51,0,0,0,2.38,4.75,10.92,10.92,0,0,0,6.52,1.72,10.91,10.91,0,0,0,6.51-1.72A6,6,0,0,0,95,76.69,5.57,5.57,0,0,0,92,74.72Zm-4.86,7.43c-2.33,0-3.49-.83-3.49-2.5s1.16-2.49,3.49-2.49,3.48.83,3.48,2.49S89.5,82.15,87.18,82.15Zm0-14.21a3.42,3.42,0,0,1,2.14.56,2.17,2.17,0,0,1,.7,1.81,2.21,2.21,0,0,1-.7,1.82,4.26,4.26,0,0,1-4.29,0,2.21,2.21,0,0,1-.7-1.82A2.17,2.17,0,0,1,85,68.5,3.45,3.45,0,0,1,87.18,67.94Z"/><path d="M44.6,61.68V89.87a8,8,0,0,1-7.94,7.94H8.47A8,8,0,0,1,.53,89.87V61.68a8,8,0,0,1,7.94-7.94H36.66A8,8,0,0,1,44.6,61.68ZM6.24,78.8H18.08a1.8,1.8,0,0,0,1.34-.56A1.86,1.86,0,0,0,20,76.88,1.88,1.88,0,0,0,18.08,75H6.24a1.84,1.84,0,0,0-1.35.56,1.9,1.9,0,0,0-.54,1.36A1.85,1.85,0,0,0,6.24,78.8Zm5.76-6a2,2,0,0,0,1.45-.6,2,2,0,0,0,.6-1.48,2,2,0,0,0-.6-1.44,2,2,0,0,0-1.45-.6,1.89,1.89,0,0,0-1.44.59A2,2,0,0,0,10,70.7a2.06,2.06,0,0,0,.58,1.48A1.9,1.9,0,0,0,12,72.78Zm0,12.36a2,2,0,0,0,1.45-.61,2.06,2.06,0,0,0,0-2.91A1.93,1.93,0,0,0,12,81a1.87,1.87,0,0,0-1.44.61A2,2,0,0,0,10,83.09a2,2,0,0,0,.58,1.45A1.9,1.9,0,0,0,12,85.14ZM36,74.48a4.74,4.74,0,0,0,2.51-1.89,5.53,5.53,0,0,0,.91-3.2,5.29,5.29,0,0,0-2.22-4.49,10,10,0,0,0-6.06-1.65,10,10,0,0,0-6.05,1.65,5.28,5.28,0,0,0-2.24,4.49,5.47,5.47,0,0,0,.89,3.12,5.32,5.32,0,0,0,2.56,2,5.33,5.33,0,0,0-3,1.9,5.61,5.61,0,0,0-1.06,3.51,5.51,5.51,0,0,0,2.38,4.75,11,11,0,0,0,6.52,1.71,11,11,0,0,0,6.51-1.71A5.64,5.64,0,0,0,36,74.48ZM31.17,81.9c-2.33,0-3.49-.83-3.49-2.49s1.16-2.5,3.49-2.5,3.48.83,3.48,2.5S33.49,81.9,31.17,81.9Zm0-14.2a3.36,3.36,0,0,1,2.14.56,2.16,2.16,0,0,1,.71,1.8,2.23,2.23,0,0,1-.71,1.83,3.36,3.36,0,0,1-2.14.57A3.39,3.39,0,0,1,29,71.89a2.23,2.23,0,0,1-.7-1.83,2.15,2.15,0,0,1,.7-1.8A3.39,3.39,0,0,1,31.17,67.7Z"/><path d="M71.57,10.91V39.09A7.94,7.94,0,0,1,63.63,47H35.44a7.94,7.94,0,0,1-7.94-7.94V10.91A7.94,7.94,0,0,1,35.44,3H63.63A7.94,7.94,0,0,1,71.57,10.91ZM34.21,28H46.05a1.77,1.77,0,0,0,1.34-.56,1.88,1.88,0,0,0,.55-1.36,1.86,1.86,0,0,0-1.89-1.88H34.21a1.79,1.79,0,0,0-1.35.56,1.87,1.87,0,0,0-.54,1.36,1.82,1.82,0,0,0,.54,1.34A1.85,1.85,0,0,0,34.21,28ZM40,22a2,2,0,0,0,1.45-.61,2,2,0,0,0,.6-1.47,2,2,0,0,0-.6-1.44,2,2,0,0,0-2.89,0A2,2,0,0,0,38,19.93a2.05,2.05,0,0,0,.58,1.47A1.91,1.91,0,0,0,40,22Zm0,12.35a1.93,1.93,0,0,0,1.45-.61,2,2,0,0,0,.6-1.44,2,2,0,0,0-.6-1.47A1.93,1.93,0,0,0,40,30.23a1.87,1.87,0,0,0-1.44.61A2,2,0,0,0,38,32.31a2,2,0,0,0,.58,1.46A1.93,1.93,0,0,0,40,34.36ZM64,23.7a4.81,4.81,0,0,0,2.51-1.88,5.57,5.57,0,0,0,.91-3.2,5.31,5.31,0,0,0-2.22-4.5,10,10,0,0,0-6.06-1.65,10,10,0,0,0-6,1.65,5.27,5.27,0,0,0-2.24,4.5,5.52,5.52,0,0,0,.89,3.12,5.25,5.25,0,0,0,2.56,2,5.29,5.29,0,0,0-3,1.91,5.57,5.57,0,0,0-1.06,3.5,5.51,5.51,0,0,0,2.38,4.75,11,11,0,0,0,6.52,1.72,11,11,0,0,0,6.51-1.72A5.51,5.51,0,0,0,68,29.11a5.27,5.27,0,0,0-4-5.41Zm-4.86,7.43c-2.33,0-3.49-.84-3.49-2.5s1.16-2.49,3.49-2.49,3.48.83,3.48,2.49S61.46,31.13,59.14,31.13Zm0-14.21a3.42,3.42,0,0,1,2.14.56,2.16,2.16,0,0,1,.7,1.81,2.21,2.21,0,0,1-.7,1.82,4.26,4.26,0,0,1-4.29,0,2.21,2.21,0,0,1-.7-1.82,2.16,2.16,0,0,1,.7-1.81A3.45,3.45,0,0,1,59.14,16.92Z"/></svg>