<svg id="Layer_1" data-name="Layer 1" xmlns="http://www.w3.org/2000/svg" viewBox="0 0 100 100"><title>l22_3_1</title><path d="M99.61,61.93V90.11a7.94,7.94,0,0,1-7.94,7.94H63.48a7.94,7.94,0,0,1-7.94-7.94V61.93A7.94,7.94,0,0,1,63.48,54H91.67A7.94,7.94,0,0,1,99.61,61.93ZM80.16,70.19a8.32,8.32,0,0,0-3.64.79,6.81,6.81,0,0,0-2.64,2.17,11.42,11.42,0,0,1,1.61-5.61,4.13,4.13,0,0,1,3.55-2,5.77,5.77,0,0,1,2,.35,22.77,22.77,0,0,1,2.36,1l1,.47a13.7,13.7,0,0,0,1.29.62,2.76,2.76,0,0,0,1.07.2,2.27,2.27,0,0,0,1.83-.93A3.45,3.45,0,0,0,89.27,65,3.22,3.22,0,0,0,89,63.52a3.85,3.85,0,0,0-1-1.16,13.82,13.82,0,0,0-4.33-2.15,16.47,16.47,0,0,0-4.92-.77A11.66,11.66,0,0,0,72,61.37a12.57,12.57,0,0,0-4.43,5.53A20.92,20.92,0,0,0,66,75.3q0,7.32,3.31,11.27t9.37,4a11,11,0,0,0,5.46-1.33,9.54,9.54,0,0,0,3.76-3.72,10.66,10.66,0,0,0,1.36-5.39A10.89,10.89,0,0,0,88.05,75a8.94,8.94,0,0,0-3.25-3.53A8.73,8.73,0,0,0,80.16,70.19Zm-2,14.27a3.44,3.44,0,0,1-2.67-1.14,4.2,4.2,0,0,1-1-2.94,4.26,4.26,0,0,1,1-3,3.43,3.43,0,0,1,2.69-1.12,3.39,3.39,0,0,1,2.68,1.1,5,5,0,0,1,0,6A3.35,3.35,0,0,1,78.18,84.46Z"/><path d="M44.6,61.68V89.87a8,8,0,0,1-7.94,7.94H8.47A8,8,0,0,1,.53,89.87V61.68a8,8,0,0,1,7.94-7.94H36.66A8,8,0,0,1,44.6,61.68ZM24.15,70.14a8.33,8.33,0,0,0-3.64.8,6.81,6.81,0,0,0-2.64,2.17,11.42,11.42,0,0,1,1.61-5.61,4.13,4.13,0,0,1,3.55-2,5.72,5.72,0,0,1,2,.34,25.65,25.65,0,0,1,2.36,1l.95.47a13.7,13.7,0,0,0,1.29.62,2.76,2.76,0,0,0,1.07.2,2.27,2.27,0,0,0,1.83-.93A3.46,3.46,0,0,0,33.26,65a3.08,3.08,0,0,0-.32-1.5,3.72,3.72,0,0,0-1-1.16,13.66,13.66,0,0,0-4.32-2.15,16.61,16.61,0,0,0-4.93-.78A11.67,11.67,0,0,0,16,61.33a12.48,12.48,0,0,0-4.42,5.53A20.74,20.74,0,0,0,10,75.26q0,7.32,3.31,11.27t9.37,4a11,11,0,0,0,5.46-1.33,9.54,9.54,0,0,0,3.76-3.72A11.48,11.48,0,0,0,32,74.94a8.87,8.87,0,0,0-3.25-3.53A8.71,8.71,0,0,0,24.15,70.14Zm-2,14.28a3.44,3.44,0,0,1-2.67-1.14,4.79,4.79,0,0,1,0-5.91,3.43,3.43,0,0,1,2.69-1.12,3.41,3.41,0,0,1,2.69,1.1,5,5,0,0,1,0,6A3.37,3.37,0,0,1,22.17,84.42Z"/><path d="M71.57,10.91V39.09A7.94,7.94,0,0,1,63.63,47H35.44a7.94,7.94,0,0,1-7.94-7.94V10.91A7.94,7.94,0,0,1,35.44,3H63.63A7.94,7.94,0,0,1,71.57,10.91ZM42.77,32H56.3a6.52,6.52,0,0,0,4.5-1.33A4.73,4.73,0,0,0,62.28,27a4.61,4.61,0,0,0-1.48-3.67A6.63,6.63,0,0,0,56.3,22H42.77q-6,0-6,5T42.77,32Z"/></svg>