<svg id="Layer_1" data-name="Layer 1" xmlns="http://www.w3.org/2000/svg" viewBox="0 0 100 100"><title>l22_2_1</title><path d="M71.57,10.91V39.09A7.94,7.94,0,0,1,63.63,47H35.44a7.94,7.94,0,0,1-7.94-7.94V10.91A7.94,7.94,0,0,1,35.44,3H63.63A7.94,7.94,0,0,1,71.57,10.91Zm-29,15.19,3.45-3.42a1.85,1.85,0,0,0,.58-1.38A1.66,1.66,0,0,0,46.06,20a1.78,1.78,0,0,0-1.34-.57,1.84,1.84,0,0,0-1.34.57l-3.46,3.46L36.46,20a1.87,1.87,0,0,0-1.34-.61,1.69,1.69,0,0,0-1.31.58,1.85,1.85,0,0,0-.58,1.38,1.94,1.94,0,0,0,.55,1.34l3.45,3.42-3.45,3.46a1.81,1.81,0,0,0-.58,1.34,1.83,1.83,0,0,0,.58,1.35,2,2,0,0,0,1.34.54,1.82,1.82,0,0,0,1.34-.54l3.46-3.46,3.46,3.46a1.86,1.86,0,0,0,2.68,0,1.82,1.82,0,0,0,.55-1.35,1.74,1.74,0,0,0-.55-1.34Zm22.46,4.55H58.64L63.18,26a15.5,15.5,0,0,0,2.68-3.6,8.12,8.12,0,0,0,.78-3.57,5.78,5.78,0,0,0-1-3.34,6.25,6.25,0,0,0-2.76-2.25,10.36,10.36,0,0,0-4.16-.78,13.1,13.1,0,0,0-7.08,2.18,2.09,2.09,0,0,0-.78.83,2.72,2.72,0,0,0-.21,1.15,2.72,2.72,0,0,0,.55,1.71,1.62,1.62,0,0,0,1.34.72,2,2,0,0,0,.61-.09,4.13,4.13,0,0,0,.65-.31l.5-.27.64-.32a15.4,15.4,0,0,1,1.81-.78A5.2,5.2,0,0,1,58.48,17a2.55,2.55,0,0,1,1.78.57,2.18,2.18,0,0,1,.62,1.66q0,1.86-2.11,4.07L52,30.39a3.53,3.53,0,0,0-1.08,2.5,2.38,2.38,0,0,0,.67,1.74,2.42,2.42,0,0,0,1.82.69H65.07a3.19,3.19,0,0,0,2.1-.58A2.19,2.19,0,0,0,67.86,33a2.1,2.1,0,0,0-.69-1.74A3.25,3.25,0,0,0,65.07,30.65Z"/><path d="M99.61,61.93V90.11a7.94,7.94,0,0,1-7.94,7.94H63.48a7.94,7.94,0,0,1-7.94-7.94V61.93A7.94,7.94,0,0,1,63.48,54H91.67A7.94,7.94,0,0,1,99.61,61.93Zm-29,15.19L74.1,73.7a1.85,1.85,0,0,0,.58-1.38A1.66,1.66,0,0,0,74.1,71a1.78,1.78,0,0,0-1.34-.57,1.84,1.84,0,0,0-1.34.57L68,74.47,64.5,71a1.87,1.87,0,0,0-1.34-.61,1.69,1.69,0,0,0-1.31.58,1.85,1.85,0,0,0-.58,1.38,1.93,1.93,0,0,0,.55,1.34l3.45,3.42-3.45,3.46a1.81,1.81,0,0,0-.58,1.34,1.83,1.83,0,0,0,.58,1.35,2,2,0,0,0,1.34.54,1.82,1.82,0,0,0,1.34-.54L68,79.81l3.46,3.46a1.86,1.86,0,0,0,2.68,0,1.8,1.8,0,0,0,.55-1.35,1.74,1.74,0,0,0-.55-1.34Zm22.46,4.55H86.68L91.22,77a15.3,15.3,0,0,0,2.68-3.6,8.12,8.12,0,0,0,.78-3.57,5.78,5.78,0,0,0-1-3.34,6.23,6.23,0,0,0-2.76-2.24,10.19,10.19,0,0,0-4.16-.79,12.35,12.35,0,0,0-3.7.58,12.54,12.54,0,0,0-3.38,1.6,2.09,2.09,0,0,0-.78.83,3,3,0,0,0,.34,2.86,1.62,1.62,0,0,0,1.34.72,2,2,0,0,0,.61-.09,4.13,4.13,0,0,0,.65-.31l.5-.27.64-.32a15.4,15.4,0,0,1,1.81-.78A5.2,5.2,0,0,1,86.52,68a2.55,2.55,0,0,1,1.78.57,2.19,2.19,0,0,1,.62,1.67c0,1.23-.7,2.59-2.11,4.06L80,81.41a3.53,3.53,0,0,0-1.08,2.5,2.38,2.38,0,0,0,.67,1.74,2.42,2.42,0,0,0,1.82.69H93.11a3.19,3.19,0,0,0,2.1-.58A2.19,2.19,0,0,0,95.9,84a2.1,2.1,0,0,0-.69-1.74A3.25,3.25,0,0,0,93.11,81.67Z"/><path d="M44.6,61.68V89.87a8,8,0,0,1-7.94,7.94H8.47A8,8,0,0,1,.53,89.87V61.68a8,8,0,0,1,7.94-7.94H36.66A8,8,0,0,1,44.6,61.68Zm-30,15.2,3.46-3.42a1.91,1.91,0,0,0,.57-1.38,1.68,1.68,0,0,0-.57-1.31,1.79,1.79,0,0,0-1.35-.58,1.81,1.81,0,0,0-1.34.58L12,74.22,8.5,70.77a1.87,1.87,0,0,0-1.35-.61,1.66,1.66,0,0,0-1.31.58,1.88,1.88,0,0,0-.58,1.37,2,2,0,0,0,.55,1.35l3.45,3.42L5.81,80.34a1.84,1.84,0,0,0,0,2.68,1.93,1.93,0,0,0,1.34.55A1.83,1.83,0,0,0,8.5,83L12,79.57,15.41,83a1.81,1.81,0,0,0,1.34.58A1.85,1.85,0,0,0,18.1,83a1.82,1.82,0,0,0,.54-1.34,1.76,1.76,0,0,0-.54-1.34ZM37.1,81.42H30.67l4.55-4.63a15.25,15.25,0,0,0,2.67-3.61,8,8,0,0,0,.78-3.56,5.88,5.88,0,0,0-1-3.35A6.33,6.33,0,0,0,34.93,64a10.36,10.36,0,0,0-4.16-.78,12.91,12.91,0,0,0-7.07,2.17,2.14,2.14,0,0,0-.79.84,3,3,0,0,0,.34,2.86,1.62,1.62,0,0,0,1.34.72,2,2,0,0,0,.61-.09,4.65,4.65,0,0,0,.66-.31l.49-.27.64-.32a17.6,17.6,0,0,1,1.81-.79,5.2,5.2,0,0,1,1.71-.27,2.51,2.51,0,0,1,1.78.58A2.16,2.16,0,0,1,32.91,70q0,1.86-2.11,4.07L24,81.17a3.5,3.5,0,0,0-1.09,2.5,2.38,2.38,0,0,0,.67,1.74,2.43,2.43,0,0,0,1.82.69H37.1a3.25,3.25,0,0,0,2.1-.58,2.19,2.19,0,0,0,.69-1.79A2.13,2.13,0,0,0,39.2,82,3.31,3.31,0,0,0,37.1,81.42Z"/></svg>