<svg id="Layer_1" data-name="Layer 1" xmlns="http://www.w3.org/2000/svg" viewBox="0 0 100 100"><title>l22_5_1</title><path d="M84.75,61.68V89.87a8,8,0,0,1-7.94,7.94H24.39a8,8,0,0,1-7.94-7.94V61.68a8,8,0,0,1,7.94-7.94H76.81A8,8,0,0,1,84.75,61.68ZM33.13,90.46a9.35,9.35,0,0,0,8-3.72Q43.89,83,43.89,76T41.11,65.26a9.38,9.38,0,0,0-8-3.72,9.34,9.34,0,0,0-8,3.72Q22.37,69,22.37,76t2.76,10.76A9.34,9.34,0,0,0,33.13,90.46Zm0-5.56a2.87,2.87,0,0,1-2.76-2.08A19.94,19.94,0,0,1,29.53,76a19.69,19.69,0,0,1,.84-6.82,2.88,2.88,0,0,1,5.52,0,19.71,19.71,0,0,1,.84,6.8,19.94,19.94,0,0,1-.84,6.84A2.87,2.87,0,0,1,33.13,84.9Zm17.44,5.44a3.73,3.73,0,0,0,2.74-1.12,4,4,0,0,0,0-5.52,4,4,0,0,0-5.52,0,3.88,3.88,0,0,0,2.78,6.64Zm25.92-6.08H73.21v-19a3.48,3.48,0,0,0-1-2.6,3.55,3.55,0,0,0-2.58-1,6.72,6.72,0,0,0-3.32,1l-6.4,3.72a2.7,2.7,0,0,0-1.4,2.48,3.34,3.34,0,0,0,.8,2.18,2.41,2.41,0,0,0,1.92,1,2.81,2.81,0,0,0,1.4-.4l3.2-1.88V84.26H62.61A4,4,0,0,0,60,85a2.69,2.69,0,0,0-.84,2.16q0,3,3.48,3H76.49q3.48,0,3.48-3A2.69,2.69,0,0,0,79.13,85,4,4,0,0,0,76.49,84.26Z"/><path d="M71.57,10.91V39.09A7.94,7.94,0,0,1,63.63,47H35.44a7.94,7.94,0,0,1-7.94-7.94V10.91A7.94,7.94,0,0,1,35.44,3H63.63A7.94,7.94,0,0,1,71.57,10.91ZM49.43,38.62a13.76,13.76,0,0,0,5.26-.93A8.11,8.11,0,0,0,58.21,35a6.6,6.6,0,0,0,1.25-4A6.06,6.06,0,0,0,58.68,28,6.56,6.56,0,0,0,56,25.62,20.48,20.48,0,0,0,50.9,23.9a19,19,0,0,1-3-.8,3.84,3.84,0,0,1-1.4-.79,1.57,1.57,0,0,1-.37-1.06,2,2,0,0,1,1.06-1.75,5.18,5.18,0,0,1,2.78-.66,10,10,0,0,1,2.33.25,7.85,7.85,0,0,1,1.87.68l1,.53a5.67,5.67,0,0,0,1.06.53A2.6,2.6,0,0,0,57,21a1.74,1.74,0,0,0,1.41-.75,2.75,2.75,0,0,0,.6-1.77,2.61,2.61,0,0,0-.26-1.21,2.75,2.75,0,0,0-.86-.93,11.15,11.15,0,0,0-3.54-1.7A16.1,16.1,0,0,0,49.91,14a12.35,12.35,0,0,0-5.08,1,8.52,8.52,0,0,0-3.56,2.77A6.53,6.53,0,0,0,40,21.76,6.48,6.48,0,0,0,40.75,25a6.3,6.3,0,0,0,2.67,2.33A21.72,21.72,0,0,0,48.69,29a13.66,13.66,0,0,1,3.68,1.1,1.59,1.59,0,0,1,1,1.35,1.9,1.9,0,0,1-1,1.75,6.36,6.36,0,0,1-3.05.59,12.88,12.88,0,0,1-3.11-.34,11.26,11.26,0,0,1-2.77-1.12,5.31,5.31,0,0,0-1-.51,2.66,2.66,0,0,0-.85-.14,1.82,1.82,0,0,0-1.43.75,2.76,2.76,0,0,0-.61,1.77,2.54,2.54,0,0,0,.26,1.22,2.81,2.81,0,0,0,.83.92A11.73,11.73,0,0,0,44.38,38,20.27,20.27,0,0,0,49.43,38.62Z"/></svg>