<svg id="Layer_1" data-name="Layer 1" xmlns="http://www.w3.org/2000/svg" viewBox="0 0 100 100"><title>l22_5_1</title><path d="M84.75,61.68V89.87a8,8,0,0,1-7.94,7.94H24.39a8,8,0,0,1-7.94-7.94V61.68a8,8,0,0,1,7.94-7.94H76.81A8,8,0,0,1,84.75,61.68ZM40.05,84.26H36.77v-19a3.48,3.48,0,0,0-1-2.6,3.55,3.55,0,0,0-2.58-1,6.72,6.72,0,0,0-3.32,1l-6.4,3.72a2.7,2.7,0,0,0-1.4,2.48,3.34,3.34,0,0,0,.8,2.18,2.41,2.41,0,0,0,1.92,1,2.81,2.81,0,0,0,1.4-.4l3.2-1.88V84.26H26.17a4,4,0,0,0-2.64.72,2.69,2.69,0,0,0-.84,2.16q0,3,3.48,3H40.05q3.48,0,3.48-3A2.69,2.69,0,0,0,42.69,85,4,4,0,0,0,40.05,84.26Zm8.56,7.12,9.08-28.52a5,5,0,0,0,.16-.88A2.34,2.34,0,0,0,57,60.1a3,3,0,0,0-2-.72,2.65,2.65,0,0,0-1.54.48,2.68,2.68,0,0,0-1,1.44L43.37,89.82a2.58,2.58,0,0,0-.16.92,2.32,2.32,0,0,0,.84,1.84,2.91,2.91,0,0,0,2,.72,2.75,2.75,0,0,0,1.58-.48A2.79,2.79,0,0,0,48.61,91.38ZM77,84.26h-8l5.68-5.8A19.27,19.27,0,0,0,78,74a10.16,10.16,0,0,0,1-4.46,7.33,7.33,0,0,0-1.22-4.18,7.79,7.79,0,0,0-3.46-2.8,12.8,12.8,0,0,0-5.2-1,15.65,15.65,0,0,0-4.62.72,15.35,15.35,0,0,0-4.22,2,2.58,2.58,0,0,0-1,1A3.31,3.31,0,0,0,59,66.74a3.42,3.42,0,0,0,.68,2.14,2,2,0,0,0,1.68.9,2.42,2.42,0,0,0,.76-.12,5.19,5.19,0,0,0,.82-.38,6.94,6.94,0,0,1,.62-.34l.8-.4a17.19,17.19,0,0,1,2.26-1,6.36,6.36,0,0,1,2.14-.34,3.15,3.15,0,0,1,2.22.72A2.69,2.69,0,0,1,71.73,70c0,1.54-.88,3.24-2.64,5.08l-8.48,8.84a4.36,4.36,0,0,0-1.36,3.12,3,3,0,0,0,.84,2.18,3.05,3.05,0,0,0,2.28.86H77a4,4,0,0,0,2.62-.72,2.77,2.77,0,0,0,.86-2.24A2.64,2.64,0,0,0,79.59,85,4.1,4.1,0,0,0,77,84.26Z"/><path d="M71.57,10.91V39.09A7.94,7.94,0,0,1,63.63,47H35.44a7.94,7.94,0,0,1-7.94-7.94V10.91A7.94,7.94,0,0,1,35.44,3H63.63A7.94,7.94,0,0,1,71.57,10.91ZM49.43,38.62a13.76,13.76,0,0,0,5.26-.93A8.11,8.11,0,0,0,58.21,35a6.6,6.6,0,0,0,1.25-4A6.06,6.06,0,0,0,58.68,28,6.56,6.56,0,0,0,56,25.62,20.48,20.48,0,0,0,50.9,23.9a19,19,0,0,1-3-.8,3.84,3.84,0,0,1-1.4-.79,1.57,1.57,0,0,1-.37-1.06,2,2,0,0,1,1.06-1.75,5.18,5.18,0,0,1,2.78-.66,10,10,0,0,1,2.33.25,7.85,7.85,0,0,1,1.87.68l1,.53a5.67,5.67,0,0,0,1.06.53A2.6,2.6,0,0,0,57,21a1.74,1.74,0,0,0,1.41-.75,2.75,2.75,0,0,0,.6-1.77,2.61,2.61,0,0,0-.26-1.21,2.75,2.75,0,0,0-.86-.93,11.15,11.15,0,0,0-3.54-1.7A16.1,16.1,0,0,0,49.91,14a12.35,12.35,0,0,0-5.08,1,8.52,8.52,0,0,0-3.56,2.77A6.53,6.53,0,0,0,40,21.76,6.48,6.48,0,0,0,40.75,25a6.3,6.3,0,0,0,2.67,2.33A21.72,21.72,0,0,0,48.69,29a13.66,13.66,0,0,1,3.68,1.1,1.59,1.59,0,0,1,1,1.35,1.9,1.9,0,0,1-1,1.75,6.36,6.36,0,0,1-3.05.59,12.88,12.88,0,0,1-3.11-.34,11.26,11.26,0,0,1-2.77-1.12,5.31,5.31,0,0,0-1-.51,2.66,2.66,0,0,0-.85-.14,1.82,1.82,0,0,0-1.43.75,2.76,2.76,0,0,0-.61,1.77,2.54,2.54,0,0,0,.26,1.22,2.81,2.81,0,0,0,.83.92A11.73,11.73,0,0,0,44.38,38,20.27,20.27,0,0,0,49.43,38.62Z"/></svg>