<svg id="Layer_1" data-name="Layer 1" xmlns="http://www.w3.org/2000/svg" viewBox="0 0 100 100"><title>l22_3_1</title><path d="M99.61,61.93V90.11a7.94,7.94,0,0,1-7.94,7.94H63.48a7.94,7.94,0,0,1-7.94-7.94V61.93A7.94,7.94,0,0,1,63.48,54H91.67A7.94,7.94,0,0,1,99.61,61.93ZM86.82,79h-.95V63.48a3.67,3.67,0,0,0-1.16-2.88,4,4,0,0,0-2.79-1A4.37,4.37,0,0,0,80,60a4,4,0,0,0-1.52,1.31L66.18,78.87a4.84,4.84,0,0,0-1,2.84,3.24,3.24,0,0,0,.91,2.36,3.18,3.18,0,0,0,2.45,1h9.59v1.46A3.54,3.54,0,0,0,82,90.4a4,4,0,0,0,2.8-1,3.81,3.81,0,0,0,1.07-2.93V85h.95q3.74,0,3.74-3T86.82,79ZM73,79l5.17-7.44V79Z"/><path d="M44.6,61.68V89.87a8,8,0,0,1-7.94,7.94H8.47A8,8,0,0,1,.53,89.87V61.68a8,8,0,0,1,7.94-7.94H36.66A8,8,0,0,1,44.6,61.68ZM30.81,79h-.95V63.44a3.61,3.61,0,0,0-1.16-2.88,4,4,0,0,0-2.79-1A4.24,4.24,0,0,0,24,60a3.91,3.91,0,0,0-1.52,1.31L10.17,78.83a4.84,4.84,0,0,0-.95,2.84A3.26,3.26,0,0,0,10.13,84a3.19,3.19,0,0,0,2.45,1h9.59v1.46A3.53,3.53,0,0,0,26,90.35a4,4,0,0,0,2.8-1,3.81,3.81,0,0,0,1.07-2.93V85h.95q3.73,0,3.74-3T30.81,79ZM17,79l5.16-7.44V79Z"/><path d="M71.57,10.91V39.09A7.94,7.94,0,0,1,63.63,47H35.44a7.94,7.94,0,0,1-7.94-7.94V10.91A7.94,7.94,0,0,1,35.44,3H63.63A7.94,7.94,0,0,1,71.57,10.91ZM62.85,21.34H53.78V12.26A4.17,4.17,0,0,0,49.53,8a4.18,4.18,0,0,0-4.25,4.24v9.08H36.21A4.17,4.17,0,0,0,32,25.58a4.21,4.21,0,0,0,1.22,3.06,4,4,0,0,0,3,1.26h9.07v9a4.31,4.31,0,0,0,7.31,3,4.16,4.16,0,0,0,1.19-3v-9h9.07a4.07,4.07,0,0,0,3-1.26,4.25,4.25,0,0,0,1.22-3.06,4.17,4.17,0,0,0-4.25-4.24Z"/></svg>