<svg id="Layer_1" data-name="Layer 1" xmlns="http://www.w3.org/2000/svg" viewBox="0 0 100 100"><title>l22_1_1</title><path d="M99.65,61.35V89.53a7.93,7.93,0,0,1-7.94,7.94H63.52a7.94,7.94,0,0,1-7.94-7.94V61.35a7.94,7.94,0,0,1,7.94-7.94H91.71A7.93,7.93,0,0,1,99.65,61.35ZM61.26,85.19a2.94,2.94,0,0,0,.94,1,2.08,2.08,0,0,0,1,.32,1.25,1.25,0,0,0,.91-.34,1.16,1.16,0,0,0,.36-.9,2.38,2.38,0,0,0-.16-.81,21.62,21.62,0,0,1-1.13-3.94,23.71,23.71,0,0,1-.35-4.18,24.43,24.43,0,0,1,.35-4.22,20.14,20.14,0,0,1,1.13-3.94,2.43,2.43,0,0,0,.16-.81,1.2,1.2,0,0,0-.36-.93,1.29,1.29,0,0,0-.91-.33,2,2,0,0,0-1,.33,3,3,0,0,0-.94,1,16.78,16.78,0,0,0,0,17.85Zm7.3-7.43h4.32a2.13,2.13,0,0,0,1.44-.42,1.54,1.54,0,0,0,.47-1.19A1.5,1.5,0,0,0,74.32,75a2.13,2.13,0,0,0-1.44-.41H68.56c-1.28,0-1.91.53-1.91,1.58S67.28,77.76,68.56,77.76Zm15.57-6.09a4.49,4.49,0,0,0-1.95.42,3.7,3.7,0,0,0-1.41,1.17,6.18,6.18,0,0,1,.86-3,2.21,2.21,0,0,1,1.9-1.07,3.16,3.16,0,0,1,1.06.19c.33.12.76.31,1.26.55l.51.25a7,7,0,0,0,.69.34,1.48,1.48,0,0,0,.57.1,1.21,1.21,0,0,0,1-.49,1.86,1.86,0,0,0,.4-1.21,1.67,1.67,0,0,0-.17-.81,2.11,2.11,0,0,0-.56-.62A7.52,7.52,0,0,0,86,66.33a9.05,9.05,0,0,0-2.63-.41,6.19,6.19,0,0,0-3.57,1,6.71,6.71,0,0,0-2.37,3,11.15,11.15,0,0,0-.84,4.5,9.14,9.14,0,0,0,1.77,6,6.17,6.17,0,0,0,5,2.12,5.88,5.88,0,0,0,2.92-.72,5,5,0,0,0,2-2A5.72,5.72,0,0,0,89,77a5.84,5.84,0,0,0-.63-2.73,4.79,4.79,0,0,0-1.74-1.88A4.58,4.58,0,0,0,84.13,71.67ZM83.07,79.3a1.84,1.84,0,0,1-1.43-.61,2.23,2.23,0,0,1-.55-1.57,2.29,2.29,0,0,1,.54-1.59,2,2,0,0,1,2.88,0,2.73,2.73,0,0,1,0,3.19A1.85,1.85,0,0,1,83.07,79.3ZM94,85.19a16.73,16.73,0,0,0,0-17.85A2.88,2.88,0,0,0,93,66.4,2.09,2.09,0,0,0,92,66.08a1.29,1.29,0,0,0-.91.33,1.23,1.23,0,0,0-.35.91,2.2,2.2,0,0,0,.16.81A20.14,20.14,0,0,1,92,72.07a24.46,24.46,0,0,1,.34,4.22A23.74,23.74,0,0,1,92,80.47a21.62,21.62,0,0,1-1.13,3.94,2.16,2.16,0,0,0-.16.81,1.19,1.19,0,0,0,.35.9,1.24,1.24,0,0,0,.89.34A2.13,2.13,0,0,0,93,86.14,2.82,2.82,0,0,0,94,85.19Z"/><path d="M44.64,61.1V89.29a7.93,7.93,0,0,1-7.94,7.94H8.52A7.94,7.94,0,0,1,.57,89.29V61.1a8,8,0,0,1,8-7.94H36.7A7.94,7.94,0,0,1,44.64,61.1ZM5.26,85a2.79,2.79,0,0,0,.93.94,2,2,0,0,0,1,.32,1.29,1.29,0,0,0,.91-.33A1.18,1.18,0,0,0,8.5,85a2.11,2.11,0,0,0-.16-.8,21.71,21.71,0,0,1-1.13-4,23.63,23.63,0,0,1-.34-4.17,24.46,24.46,0,0,1,.34-4.22,20.43,20.43,0,0,1,1.13-4,2.11,2.11,0,0,0,.16-.8,1.2,1.2,0,0,0-.36-.93,1.25,1.25,0,0,0-.91-.34,1.94,1.94,0,0,0-1,.34,2.92,2.92,0,0,0-.93.95A16.73,16.73,0,0,0,5.26,85Zm7.29-7.43h4.32a2.08,2.08,0,0,0,1.44-.43,1.51,1.51,0,0,0,.47-1.18,1.47,1.47,0,0,0-.47-1.17,2.13,2.13,0,0,0-1.44-.42H12.55c-1.28,0-1.91.53-1.91,1.59S11.27,77.52,12.55,77.52Zm15.57-6.09a4.49,4.49,0,0,0-1.95.42A3.59,3.59,0,0,0,24.76,73a6.1,6.1,0,0,1,.86-3,2.22,2.22,0,0,1,1.9-1.07,2.93,2.93,0,0,1,1.06.19,12.17,12.17,0,0,1,1.26.55l.51.25q.43.22.69.33a1.48,1.48,0,0,0,.57.11,1.22,1.22,0,0,0,1-.5,1.83,1.83,0,0,0,.4-1.2,1.62,1.62,0,0,0-.17-.81,2,2,0,0,0-.56-.62A7.35,7.35,0,0,0,30,66.09a8.84,8.84,0,0,0-2.64-.41,6.22,6.22,0,0,0-3.57,1,6.71,6.71,0,0,0-2.37,3,11.1,11.1,0,0,0-.84,4.49,9.15,9.15,0,0,0,1.77,6,6.17,6.17,0,0,0,5,2.11,5.87,5.87,0,0,0,2.92-.71,5.15,5.15,0,0,0,2-2A6.17,6.17,0,0,0,32.34,74,4.81,4.81,0,0,0,30.6,72.1,4.63,4.63,0,0,0,28.12,71.43Zm-1.06,7.63a1.84,1.84,0,0,1-1.43-.61,2.56,2.56,0,0,1,0-3.16,2,2,0,0,1,2.88,0,2.35,2.35,0,0,1,.51,1.6,2.3,2.3,0,0,1-.52,1.58A1.82,1.82,0,0,1,27.06,79.06ZM38,85A16.73,16.73,0,0,0,38,67.1a2.79,2.79,0,0,0-.93-.94A2,2,0,0,0,36,65.84a1.26,1.26,0,0,0-.9.33,1.17,1.17,0,0,0-.36.91,2.11,2.11,0,0,0,.16.8,20.43,20.43,0,0,1,1.13,4,24.46,24.46,0,0,1,.34,4.22A23.63,23.63,0,0,1,36,80.22a21.71,21.71,0,0,1-1.13,4,2.11,2.11,0,0,0-.16.8,1.18,1.18,0,0,0,.36.91,1.23,1.23,0,0,0,.88.33A2,2,0,0,0,37,85.89,2.79,2.79,0,0,0,38,85Z"/><path d="M71.61,10.33V38.51a7.93,7.93,0,0,1-7.94,7.94H35.48a7.94,7.94,0,0,1-7.94-7.94V10.33a7.94,7.94,0,0,1,7.94-7.94H63.67A7.93,7.93,0,0,1,71.61,10.33ZM33.22,34.17a2.81,2.81,0,0,0,.94.94,2,2,0,0,0,1,.33,1.25,1.25,0,0,0,.91-.34,1.17,1.17,0,0,0,.36-.91,2.37,2.37,0,0,0-.16-.8,21.62,21.62,0,0,1-1.13-3.94,23.71,23.71,0,0,1-.35-4.18,24.43,24.43,0,0,1,.35-4.22,20.14,20.14,0,0,1,1.13-3.94,2.43,2.43,0,0,0,.16-.81,1.2,1.2,0,0,0-.36-.93A1.29,1.29,0,0,0,35.2,15a2,2,0,0,0-1,.33,3,3,0,0,0-.94,1,15.68,15.68,0,0,0-2.57,9A15.7,15.7,0,0,0,33.22,34.17Zm7.3-7.43h4.32a2.13,2.13,0,0,0,1.44-.42,1.54,1.54,0,0,0,.47-1.19A1.5,1.5,0,0,0,46.28,24a2.13,2.13,0,0,0-1.44-.41H40.52c-1.28,0-1.91.52-1.91,1.58S39.24,26.74,40.52,26.74Zm15.57-6.09a4.49,4.49,0,0,0-2,.42,3.68,3.68,0,0,0-1.41,1.16,6.17,6.17,0,0,1,.86-3,2.21,2.21,0,0,1,1.9-1.07,3.16,3.16,0,0,1,1.06.19,12.17,12.17,0,0,1,1.26.55l.51.25a7,7,0,0,0,.69.34,1.48,1.48,0,0,0,.57.1,1.21,1.21,0,0,0,1-.49,1.86,1.86,0,0,0,.4-1.21,1.67,1.67,0,0,0-.17-.81,2.11,2.11,0,0,0-.56-.62,7.52,7.52,0,0,0-2.32-1.15,9.05,9.05,0,0,0-2.63-.41,6.25,6.25,0,0,0-3.58,1,6.76,6.76,0,0,0-2.36,3,11.15,11.15,0,0,0-.84,4.5,9.14,9.14,0,0,0,1.77,6,6.17,6.17,0,0,0,5,2.12,5.88,5.88,0,0,0,2.92-.72,5,5,0,0,0,2-2,5.66,5.66,0,0,0,.73-2.88,5.84,5.84,0,0,0-.63-2.73,4.79,4.79,0,0,0-1.74-1.88A4.58,4.58,0,0,0,56.09,20.65ZM55,28.28a1.84,1.84,0,0,1-1.43-.61,2.23,2.23,0,0,1-.55-1.57,2.29,2.29,0,0,1,.54-1.59,2,2,0,0,1,2.88,0A2.35,2.35,0,0,1,57,26.1a2.28,2.28,0,0,1-.53,1.59A1.81,1.81,0,0,1,55,28.28Zm10.9,5.89a15.63,15.63,0,0,0,2.58-8.9,15.61,15.61,0,0,0-2.58-8.95,2.88,2.88,0,0,0-.93-.94,2.09,2.09,0,0,0-1-.32,1.29,1.29,0,0,0-.91.33,1.21,1.21,0,0,0-.35.91,2.2,2.2,0,0,0,.16.81A20.14,20.14,0,0,1,64,21.05a25.49,25.49,0,0,1,.34,4.22A24.74,24.74,0,0,1,64,29.45a21.62,21.62,0,0,1-1.13,3.94,2.15,2.15,0,0,0-.16.8,1.2,1.2,0,0,0,.35.91,1.24,1.24,0,0,0,.89.34A2.05,2.05,0,0,0,65,35.11,2.7,2.7,0,0,0,65.93,34.17Z"/></svg>