<svg id="Layer_1" data-name="Layer 1" xmlns="http://www.w3.org/2000/svg" viewBox="0 0 100 100"><title>l22_1_1</title><path d="M99.65,61.35V89.53a7.93,7.93,0,0,1-7.94,7.94H63.52a7.94,7.94,0,0,1-7.94-7.94V61.35a7.94,7.94,0,0,1,7.94-7.94H91.71A7.93,7.93,0,0,1,99.65,61.35ZM65.26,79.52h5.9a2.83,2.83,0,0,0,2-.58,2.05,2.05,0,0,0,.64-1.61,2,2,0,0,0-.64-1.6,2.89,2.89,0,0,0-2-.57h-5.9c-1.73,0-2.6.72-2.6,2.17S63.53,79.52,65.26,79.52ZM83.83,63.37a8.18,8.18,0,0,0-4,1,7,7,0,0,0-2.74,2.72A8.34,8.34,0,0,0,77,74.71a6.45,6.45,0,0,0,2.36,2.57,6.34,6.34,0,0,0,3.39.92,6,6,0,0,0,2.65-.58A4.93,4.93,0,0,0,87.31,76a8.34,8.34,0,0,1-1.18,4.09,3,3,0,0,1-2.59,1.46,4.12,4.12,0,0,1-1.44-.25c-.46-.17-1-.42-1.72-.75l-.69-.35a10.17,10.17,0,0,0-.94-.45,2,2,0,0,0-.79-.14,1.66,1.66,0,0,0-1.33.67A2.51,2.51,0,0,0,76.08,82a2.23,2.23,0,0,0,.24,1.09,2.58,2.58,0,0,0,.76.85,10.05,10.05,0,0,0,3.16,1.57,12.36,12.36,0,0,0,3.59.56,8.48,8.48,0,0,0,4.87-1.41,9.08,9.08,0,0,0,3.23-4,15.07,15.07,0,0,0,1.15-6.13q0-5.32-2.42-8.21A8.4,8.4,0,0,0,83.83,63.37Zm.34,10.38a2.48,2.48,0,0,1-2-.8,3.17,3.17,0,0,1-.7-2.18,3.13,3.13,0,0,1,.72-2.16,2.45,2.45,0,0,1,1.94-.82,2.53,2.53,0,0,1,2,.83,3.1,3.1,0,0,1,.75,2.15,3.14,3.14,0,0,1-.74,2.17A2.51,2.51,0,0,1,84.17,73.75Z"/><path d="M44.64,61.1V89.29a7.93,7.93,0,0,1-7.94,7.94H8.52A7.94,7.94,0,0,1,.57,89.29V61.1a8,8,0,0,1,8-7.94H36.7A7.94,7.94,0,0,1,44.64,61.1ZM9.25,79.28h5.9a2.89,2.89,0,0,0,2-.58,2.07,2.07,0,0,0,.64-1.62,2,2,0,0,0-.64-1.6,2.94,2.94,0,0,0-2-.56H9.25c-1.73,0-2.6.72-2.6,2.16S7.52,79.28,9.25,79.28ZM27.82,63.13a8.1,8.1,0,0,0-4,1,7,7,0,0,0-2.74,2.71A8.34,8.34,0,0,0,21,74.46,6.29,6.29,0,0,0,26.72,78a6,6,0,0,0,2.65-.58A5,5,0,0,0,31.3,75.8a8.37,8.37,0,0,1-1.18,4.09,3,3,0,0,1-2.58,1.46,4.37,4.37,0,0,1-1.45-.25,18.63,18.63,0,0,1-1.72-.76L23.68,80c-.4-.21-.71-.36-.94-.46A2.14,2.14,0,0,0,22,79.4a1.67,1.67,0,0,0-1.33.68,2.5,2.5,0,0,0-.55,1.64,2.27,2.27,0,0,0,.24,1.1,2.61,2.61,0,0,0,.77.85,9.89,9.89,0,0,0,3.15,1.57,12.36,12.36,0,0,0,3.59.56,8.48,8.48,0,0,0,4.87-1.41,9.08,9.08,0,0,0,3.23-4,15.1,15.1,0,0,0,1.15-6.13q0-5.33-2.42-8.22A8.41,8.41,0,0,0,27.82,63.13Zm.34,10.38a2.5,2.5,0,0,1-2-.8,3.17,3.17,0,0,1-.7-2.18,3.13,3.13,0,0,1,.72-2.16,2.45,2.45,0,0,1,1.94-.82,2.52,2.52,0,0,1,1.95.83,3.49,3.49,0,0,1,0,4.31A2.49,2.49,0,0,1,28.16,73.51Z"/><path d="M71.61,10.33V38.51a7.93,7.93,0,0,1-7.94,7.94H35.48a7.94,7.94,0,0,1-7.94-7.94V10.33a7.94,7.94,0,0,1,7.94-7.94H63.67A7.93,7.93,0,0,1,71.61,10.33ZM37.22,28.5h5.9a2.83,2.83,0,0,0,2-.58,2.05,2.05,0,0,0,.64-1.61,2,2,0,0,0-.64-1.6,2.89,2.89,0,0,0-2-.57h-5.9c-1.73,0-2.6.72-2.6,2.17S35.49,28.5,37.22,28.5ZM55.79,12.35a8.21,8.21,0,0,0-4,1A7,7,0,0,0,49.06,16a7.81,7.81,0,0,0-1,3.93,8,8,0,0,0,.86,3.72,6.61,6.61,0,0,0,2.37,2.57,6.32,6.32,0,0,0,3.39.92,6,6,0,0,0,2.65-.58A4.93,4.93,0,0,0,59.27,25a8.34,8.34,0,0,1-1.18,4.09,3,3,0,0,1-2.59,1.46,4.12,4.12,0,0,1-1.44-.25c-.46-.17-1-.42-1.72-.75l-.69-.35a10.17,10.17,0,0,0-.94-.45,2,2,0,0,0-.79-.14,1.66,1.66,0,0,0-1.33.67A2.51,2.51,0,0,0,48,31,2.23,2.23,0,0,0,48.28,32a2.51,2.51,0,0,0,.77.85,9.89,9.89,0,0,0,3.15,1.57,12.36,12.36,0,0,0,3.59.56,8.48,8.48,0,0,0,4.87-1.41,9.08,9.08,0,0,0,3.23-4A15.07,15.07,0,0,0,65,23.45q0-5.32-2.42-8.21A8.39,8.39,0,0,0,55.79,12.35Zm.34,10.38a2.5,2.5,0,0,1-2-.8,3.17,3.17,0,0,1-.7-2.18,3.13,3.13,0,0,1,.72-2.16,2.45,2.45,0,0,1,1.94-.82,2.52,2.52,0,0,1,1.95.83,3.1,3.1,0,0,1,.75,2.15,3.14,3.14,0,0,1-.74,2.17A2.51,2.51,0,0,1,56.13,22.73Z"/></svg>