<svg id="Layer_1" data-name="Layer 1" xmlns="http://www.w3.org/2000/svg" viewBox="0 0 100 100"><title>l22_2_1</title><path d="M99.61,61.93V90.11a7.94,7.94,0,0,1-7.94,7.94H63.48a7.94,7.94,0,0,1-7.94-7.94V61.93A7.94,7.94,0,0,1,63.48,54H91.67A7.94,7.94,0,0,1,99.61,61.93ZM62,86.5a2.45,2.45,0,0,0,1.77-.64,2.33,2.33,0,0,0,.65-1.73V70.22a2.28,2.28,0,0,0-.65-1.7A2.4,2.4,0,0,0,62,67.88a2.2,2.2,0,0,0-2.37,2.34V84.13A2.21,2.21,0,0,0,62,86.5ZM76,78.85l2.8-2.78A1.49,1.49,0,0,0,79.29,75a1.32,1.32,0,0,0-.47-1.06,1.4,1.4,0,0,0-1.09-.47,1.47,1.47,0,0,0-1.09.47l-2.81,2.8L71,73.89a1.52,1.52,0,0,0-1.09-.5,1.35,1.35,0,0,0-1.06.47A1.49,1.49,0,0,0,68.4,75a1.57,1.57,0,0,0,.44,1.09l2.81,2.78-2.81,2.81a1.51,1.51,0,0,0-.47,1.09,1.49,1.49,0,0,0,.47,1.09,1.58,1.58,0,0,0,1.09.45A1.45,1.45,0,0,0,71,83.84L73.83,81l2.81,2.8a1.47,1.47,0,0,0,1.09.47,1.57,1.57,0,0,0,1.54-1.56,1.42,1.42,0,0,0-.45-1.09Zm15-4.57a5,5,0,0,0-2.2.48,4.11,4.11,0,0,0-1.59,1.31,6.79,6.79,0,0,1,1-3.39,2.48,2.48,0,0,1,2.14-1.21,3.44,3.44,0,0,1,1.2.21,12.9,12.9,0,0,1,1.43.62l.57.29c.33.17.59.29.78.37a1.67,1.67,0,0,0,.65.12,1.4,1.4,0,0,0,1.11-.56,2.1,2.1,0,0,0,.45-1.36,1.89,1.89,0,0,0-.19-.91,2.19,2.19,0,0,0-.64-.71,8.62,8.62,0,0,0-2.61-1.3,10.19,10.19,0,0,0-3-.46A7,7,0,0,0,86,69a7.49,7.49,0,0,0-2.68,3.34,12.62,12.62,0,0,0-1,5.08q0,4.42,2,6.81a7,7,0,0,0,5.67,2.39,6.66,6.66,0,0,0,3.3-.8,5.87,5.87,0,0,0,2.28-2.25,6.94,6.94,0,0,0,.1-6.35A5.23,5.23,0,0,0,91,74.28Zm-1.2,8.63a2.09,2.09,0,0,1-1.61-.69,2.91,2.91,0,0,1,0-3.58A2.08,2.08,0,0,1,89.79,78a2.06,2.06,0,0,1,1.63.66A2.64,2.64,0,0,1,92,80.44a2.6,2.6,0,0,1-.59,1.79A2.06,2.06,0,0,1,89.79,82.91Z"/><path d="M44.6,61.68V89.87a8,8,0,0,1-7.94,7.94H8.47A8,8,0,0,1,.53,89.87V61.68a8,8,0,0,1,7.94-7.94H36.66A8,8,0,0,1,44.6,61.68ZM5.94,86.25a2.39,2.39,0,0,0,1.77-.64,2.31,2.31,0,0,0,.65-1.72V70a2.31,2.31,0,0,0-.65-1.71,2.42,2.42,0,0,0-1.77-.63,2.36,2.36,0,0,0-1.73.63A2.34,2.34,0,0,0,3.58,70V83.89a2.33,2.33,0,0,0,.63,1.72A2.32,2.32,0,0,0,5.94,86.25ZM20,78.61l2.81-2.78a1.55,1.55,0,0,0,.46-1.12,1.38,1.38,0,0,0-.46-1.07,1.47,1.47,0,0,0-1.1-.47,1.51,1.51,0,0,0-1.09.47l-2.81,2.81L15,73.64a1.52,1.52,0,0,0-1.1-.49,1.32,1.32,0,0,0-1.06.47,1.52,1.52,0,0,0-.47,1.11,1.64,1.64,0,0,0,.44,1.1l2.81,2.78-2.81,2.81a1.49,1.49,0,0,0-.47,1.09,1.51,1.51,0,0,0,.47,1.09,1.57,1.57,0,0,0,1.09.44A1.48,1.48,0,0,0,15,83.6l2.8-2.81,2.81,2.81a1.51,1.51,0,0,0,1.09.47,1.53,1.53,0,0,0,1.1-.47,1.49,1.49,0,0,0,.44-1.09,1.43,1.43,0,0,0-.44-1.09ZM35,74a5,5,0,0,0-2.19.48,4,4,0,0,0-1.6,1.32,7,7,0,0,1,1-3.4,2.51,2.51,0,0,1,2.15-1.21,3.43,3.43,0,0,1,1.19.21,15.62,15.62,0,0,1,1.43.63l.57.28a8.6,8.6,0,0,0,.78.38,1.67,1.67,0,0,0,.65.12A1.38,1.38,0,0,0,40,72.28a2.13,2.13,0,0,0,.45-1.37A1.94,1.94,0,0,0,40.3,70a2.28,2.28,0,0,0-.64-.7A8.4,8.4,0,0,0,37.05,68a10.16,10.16,0,0,0-3-.47,7,7,0,0,0-4,1.17A7.61,7.61,0,0,0,27.35,72a12.7,12.7,0,0,0-1,5.09q0,4.41,2,6.81a7,7,0,0,0,5.67,2.39,6.67,6.67,0,0,0,3.3-.81,5.78,5.78,0,0,0,2.28-2.24,6.94,6.94,0,0,0,.1-6.35A5.26,5.26,0,0,0,35,74Zm-1.19,8.63A2.09,2.09,0,0,1,32.17,82a2.6,2.6,0,0,1-.62-1.79,2.56,2.56,0,0,1,.61-1.79,2.1,2.1,0,0,1,1.63-.68,2,2,0,0,1,1.62.67,3,3,0,0,1,0,3.6A2,2,0,0,1,33.79,82.66Z"/><path d="M71.57,10.91V39.09A7.94,7.94,0,0,1,63.63,47H35.44a7.94,7.94,0,0,1-7.94-7.94V10.91A7.94,7.94,0,0,1,35.44,3H63.63A7.94,7.94,0,0,1,71.57,10.91ZM33.91,35.48a2.45,2.45,0,0,0,1.77-.64,2.33,2.33,0,0,0,.65-1.73V19.2a2.28,2.28,0,0,0-.65-1.7,2.4,2.4,0,0,0-1.77-.64,2.2,2.2,0,0,0-2.37,2.34V33.11a2.21,2.21,0,0,0,2.37,2.37ZM48,27.83l2.8-2.78a1.5,1.5,0,0,0,.47-1.12,1.35,1.35,0,0,0-.47-1.07,1.44,1.44,0,0,0-1.09-.46,1.5,1.5,0,0,0-1.09.46l-2.81,2.81L43,22.86a1.54,1.54,0,0,0-1.09-.49,1.35,1.35,0,0,0-1.06.47A1.49,1.49,0,0,0,40.36,24a1.57,1.57,0,0,0,.44,1.09l2.81,2.78L40.8,30.64a1.51,1.51,0,0,0-.47,1.09,1.49,1.49,0,0,0,.47,1.09,1.58,1.58,0,0,0,1.09.45A1.45,1.45,0,0,0,43,32.82L45.79,30l2.81,2.8a1.47,1.47,0,0,0,1.09.47,1.57,1.57,0,0,0,1.54-1.56,1.42,1.42,0,0,0-.45-1.09Zm15-4.58a5,5,0,0,0-2.2.49,4,4,0,0,0-1.59,1.31,6.79,6.79,0,0,1,1-3.39,2.48,2.48,0,0,1,2.14-1.21,3.68,3.68,0,0,1,1.2.2,15.62,15.62,0,0,1,1.43.63l.57.29c.33.17.59.29.78.37a1.67,1.67,0,0,0,.65.12A1.4,1.4,0,0,0,68,21.5a2.1,2.1,0,0,0,.45-1.36,1.89,1.89,0,0,0-.19-.91,2.19,2.19,0,0,0-.64-.71A8.4,8.4,0,0,0,65,17.22a10.22,10.22,0,0,0-3-.47,7,7,0,0,0-4,1.18,7.43,7.43,0,0,0-2.68,3.34,12.62,12.62,0,0,0-1,5.08q0,4.42,2,6.81A7,7,0,0,0,62,35.55a6.77,6.77,0,0,0,3.3-.8,5.87,5.87,0,0,0,2.28-2.25,6.94,6.94,0,0,0,.1-6.35A5.26,5.26,0,0,0,63,23.25Zm-1.2,8.64a2.09,2.09,0,0,1-1.61-.69,2.91,2.91,0,0,1,0-3.58A2.08,2.08,0,0,1,61.75,27a2.06,2.06,0,0,1,1.63.66A2.63,2.63,0,0,1,64,29.42a2.6,2.6,0,0,1-.59,1.79A2.06,2.06,0,0,1,61.75,31.89Z"/></svg>