<svg id="Layer_1" data-name="Layer 1" xmlns="http://www.w3.org/2000/svg" viewBox="0 0 100 100"><title>l22_4_1</title><path d="M88.34,61.68V89.87a8,8,0,0,1-7.94,7.94H21.47a8,8,0,0,1-7.94-7.94V61.68a8,8,0,0,1,7.94-7.94H80.4A8,8,0,0,1,88.34,61.68ZM39.28,83.82H35.75V63.44a3.75,3.75,0,0,0-1-2.8,3.79,3.79,0,0,0-2.78-1,7.32,7.32,0,0,0-3.56,1.07l-6.88,4A2.92,2.92,0,0,0,20,67.35a3.62,3.62,0,0,0,.86,2.34,2.56,2.56,0,0,0,2.06,1.06,3,3,0,0,0,1.51-.43l3.44-2V83.82H24.36a4.34,4.34,0,0,0-2.84.77,2.9,2.9,0,0,0-.9,2.32c0,2.13,1.24,3.19,3.74,3.19H39.28Q43,90.1,43,86.91a2.9,2.9,0,0,0-.9-2.32A4.36,4.36,0,0,0,39.28,83.82Zm9.2,7.65,9.76-30.66a4.94,4.94,0,0,0,.17-.94,2.52,2.52,0,0,0-.92-2,3.22,3.22,0,0,0-2.13-.78,2.86,2.86,0,0,0-1.66.52,2.91,2.91,0,0,0-1.09,1.55L42.85,89.8a2.7,2.7,0,0,0-.18,1,2.49,2.49,0,0,0,.91,2,3.11,3.11,0,0,0,2.1.78,3,3,0,0,0,1.7-.52A2.92,2.92,0,0,0,48.48,91.47ZM80.21,79h-.94V63.44a3.64,3.64,0,0,0-1.16-2.88,4.08,4.08,0,0,0-2.8-1A4.17,4.17,0,0,0,73.4,60a3.87,3.87,0,0,0-1.53,1.31L59.57,78.83a4.83,4.83,0,0,0-.94,2.84,3.29,3.29,0,0,0,.9,2.36A3.23,3.23,0,0,0,62,85h9.59v1.46a3.84,3.84,0,0,0,1.05,2.93,3.9,3.9,0,0,0,2.78,1,3.94,3.94,0,0,0,2.79-1,3.78,3.78,0,0,0,1.08-2.93V85h.94c2.5,0,3.74-1,3.74-3S82.71,79,80.21,79Zm-13.8,0,5.16-7.44V79Z"/><path d="M71.57,10.91V39.09A7.94,7.94,0,0,1,63.63,47H35.44a7.94,7.94,0,0,1-7.94-7.94V10.91A7.94,7.94,0,0,1,35.44,3H63.63A7.94,7.94,0,0,1,71.57,10.91ZM36.65,22.7H63.29a4.06,4.06,0,0,0,3-1.26,4.21,4.21,0,0,0,1.22-3.06,4.17,4.17,0,0,0-4.24-4.24H36.65a4.07,4.07,0,0,0-3,1.26,4.2,4.2,0,0,0-1.22,3,4.17,4.17,0,0,0,4.25,4.25Zm0,14.4H63.29a4.06,4.06,0,0,0,3-1.26,4.21,4.21,0,0,0,1.22-3.06,4.18,4.18,0,0,0-4.24-4.25H36.65a4.11,4.11,0,0,0-3,1.26,4.25,4.25,0,0,0-1.22,3.07,4.17,4.17,0,0,0,4.25,4.24Z"/></svg>