<svg id="Layer_1" data-name="Layer 1" xmlns="http://www.w3.org/2000/svg" viewBox="0 0 100 100"><title>l22_1_1</title><path d="M99.65,61.35V89.53a7.93,7.93,0,0,1-7.94,7.94H63.52a7.94,7.94,0,0,1-7.94-7.94V61.35a7.94,7.94,0,0,1,7.94-7.94H91.71A7.93,7.93,0,0,1,99.65,61.35ZM61.26,85.19a2.72,2.72,0,0,0,.94.94,2,2,0,0,0,1,.33,1.25,1.25,0,0,0,.91-.34,1.17,1.17,0,0,0,.36-.91,2.37,2.37,0,0,0-.16-.8,20.85,20.85,0,0,1-1.13-3.94,23.71,23.71,0,0,1-.35-4.18,24.43,24.43,0,0,1,.35-4.22,19.47,19.47,0,0,1,1.13-3.94,2.43,2.43,0,0,0,.16-.81,1.2,1.2,0,0,0-.36-.93,1.29,1.29,0,0,0-.91-.33,2,2,0,0,0-1,.33,2.94,2.94,0,0,0-.94,1,16.78,16.78,0,0,0,0,17.85Zm7.3-7.43h4.32a2.13,2.13,0,0,0,1.44-.42,1.54,1.54,0,0,0,.47-1.19A1.5,1.5,0,0,0,74.32,75a2.13,2.13,0,0,0-1.44-.41H68.56c-1.28,0-1.91.52-1.91,1.58S67.28,77.76,68.56,77.76Zm19.13-1.38h-.5v-8.3a1.94,1.94,0,0,0-.63-1.54A2.15,2.15,0,0,0,85.07,66a2.31,2.31,0,0,0-1,.24,2.05,2.05,0,0,0-.82.7l-6.58,9.38a2.56,2.56,0,0,0-.5,1.52,1.78,1.78,0,0,0,.48,1.27,1.75,1.75,0,0,0,1.31.5h5.13v.78A2.06,2.06,0,0,0,83.63,82a2.1,2.1,0,0,0,1.48.53,2.13,2.13,0,0,0,1.5-.53,2,2,0,0,0,.58-1.57V79.6h.5c1.33,0,2-.54,2-1.63S89,76.38,87.69,76.38Zm-7.38,0,2.76-4v4ZM94,85.19a16.73,16.73,0,0,0,0-17.85A2.88,2.88,0,0,0,93,66.4,2.09,2.09,0,0,0,92,66.08a1.29,1.29,0,0,0-.91.33,1.21,1.21,0,0,0-.35.91,2.2,2.2,0,0,0,.16.81A20.85,20.85,0,0,1,92,72.07a25.49,25.49,0,0,1,.34,4.22A24.74,24.74,0,0,1,92,80.47a22.45,22.45,0,0,1-1.13,3.94,2.15,2.15,0,0,0-.16.8,1.2,1.2,0,0,0,.35.91,1.24,1.24,0,0,0,.89.34A2.05,2.05,0,0,0,93,86.13,2.7,2.7,0,0,0,94,85.19Z"/><path d="M44.64,61.1V89.29a7.93,7.93,0,0,1-7.94,7.94H8.52A7.94,7.94,0,0,1,.57,89.29V61.1a8,8,0,0,1,8-7.94H36.7A7.94,7.94,0,0,1,44.64,61.1ZM5.26,85a2.79,2.79,0,0,0,.93.94,2,2,0,0,0,1,.32,1.29,1.29,0,0,0,.91-.33A1.18,1.18,0,0,0,8.5,85a2.33,2.33,0,0,0-.16-.8,21.71,21.71,0,0,1-1.13-4,23.63,23.63,0,0,1-.34-4.17,24.38,24.38,0,0,1,.34-4.22,20.43,20.43,0,0,1,1.13-4,2.33,2.33,0,0,0,.16-.8,1.2,1.2,0,0,0-.36-.93,1.25,1.25,0,0,0-.91-.34,1.94,1.94,0,0,0-1,.34,2.92,2.92,0,0,0-.93.95A16.73,16.73,0,0,0,5.26,85Zm7.29-7.43h4.32a2.08,2.08,0,0,0,1.44-.43,1.51,1.51,0,0,0,.47-1.18,1.47,1.47,0,0,0-.47-1.17,2.13,2.13,0,0,0-1.44-.42H12.55c-1.28,0-1.91.53-1.91,1.59S11.27,77.52,12.55,77.52Zm19.13-1.38h-.5v-8.3a2,2,0,0,0-.62-1.54A2.26,2.26,0,0,0,28,66a2.12,2.12,0,0,0-.82.7l-6.58,9.38a2.63,2.63,0,0,0-.5,1.52,1.75,1.75,0,0,0,.48,1.26,1.72,1.72,0,0,0,1.31.51h5.13v.78a1.88,1.88,0,0,0,2.05,2.09,2.12,2.12,0,0,0,1.49-.52,2.06,2.06,0,0,0,.58-1.57v-.78h.5c1.34,0,2-.54,2-1.63S33,76.14,31.68,76.14Zm-7.38,0,2.76-4v4ZM38,85A16.73,16.73,0,0,0,38,67.1a2.79,2.79,0,0,0-.93-.94A2,2,0,0,0,36,65.84a1.29,1.29,0,0,0-.91.33,1.2,1.2,0,0,0-.35.91,2.11,2.11,0,0,0,.16.8,20.43,20.43,0,0,1,1.13,4,24.38,24.38,0,0,1,.34,4.22A23.63,23.63,0,0,1,36,80.22a21.71,21.71,0,0,1-1.13,4,2.11,2.11,0,0,0-.16.8,1.21,1.21,0,0,0,.35.91,1.27,1.27,0,0,0,.89.33A2,2,0,0,0,37,85.89,2.79,2.79,0,0,0,38,85Z"/><path d="M71.61,10.33V38.51a7.93,7.93,0,0,1-7.94,7.94H35.48a7.94,7.94,0,0,1-7.94-7.94V10.33a7.94,7.94,0,0,1,7.94-7.94H63.67A7.93,7.93,0,0,1,71.61,10.33ZM33.22,34.17a2.81,2.81,0,0,0,.94.94,2,2,0,0,0,1,.33,1.25,1.25,0,0,0,.91-.34,1.17,1.17,0,0,0,.36-.91,2.33,2.33,0,0,0-.16-.8,20.85,20.85,0,0,1-1.13-3.94,23.79,23.79,0,0,1-.35-4.18,24.43,24.43,0,0,1,.35-4.22,19.47,19.47,0,0,1,1.13-3.94,2.43,2.43,0,0,0,.16-.81,1.2,1.2,0,0,0-.36-.93A1.29,1.29,0,0,0,35.2,15a2,2,0,0,0-1,.33,2.94,2.94,0,0,0-.94,1,15.68,15.68,0,0,0-2.57,9A15.7,15.7,0,0,0,33.22,34.17Zm7.3-7.43h4.32a2.13,2.13,0,0,0,1.44-.42,1.54,1.54,0,0,0,.47-1.19A1.5,1.5,0,0,0,46.28,24a2.13,2.13,0,0,0-1.44-.42H40.52c-1.28,0-1.91.53-1.91,1.59S39.24,26.74,40.52,26.74Zm19.13-1.38h-.5v-8.3a1.94,1.94,0,0,0-.63-1.54A2.15,2.15,0,0,0,57,15a2.31,2.31,0,0,0-1,.24,2.05,2.05,0,0,0-.82.7l-6.58,9.38a2.57,2.57,0,0,0-.51,1.52,1.78,1.78,0,0,0,.49,1.27,1.75,1.75,0,0,0,1.31.5H55v.78a2.07,2.07,0,0,0,.56,1.57,2.1,2.1,0,0,0,1.48.53,2.13,2.13,0,0,0,1.5-.53,2,2,0,0,0,.58-1.57v-.78h.5c1.33,0,2-.54,2-1.63S61,25.36,59.65,25.36Zm-7.38,0,2.76-4v4Zm13.66,8.81a15.63,15.63,0,0,0,2.58-8.9,15.61,15.61,0,0,0-2.58-8.95,2.88,2.88,0,0,0-.93-.94,2.09,2.09,0,0,0-1-.32,1.29,1.29,0,0,0-.91.33,1.21,1.21,0,0,0-.35.91,2.2,2.2,0,0,0,.16.81A20.85,20.85,0,0,1,64,21.05a25.49,25.49,0,0,1,.34,4.22A24.83,24.83,0,0,1,64,29.45a22.45,22.45,0,0,1-1.13,3.94,2.11,2.11,0,0,0-.16.8,1.2,1.2,0,0,0,.35.91,1.24,1.24,0,0,0,.89.34A2.05,2.05,0,0,0,65,35.11,2.79,2.79,0,0,0,65.93,34.17Z"/></svg>