<svg id="Layer_1" data-name="Layer 1" xmlns="http://www.w3.org/2000/svg" viewBox="0 0 100 100"><title>l22_1_1</title><path d="M99.61,61.93V90.11a7.94,7.94,0,0,1-7.94,7.94H63.48a7.94,7.94,0,0,1-7.94-7.94V61.93A7.94,7.94,0,0,1,63.48,54H91.67A7.94,7.94,0,0,1,99.61,61.93ZM65.22,80.1h5.9a2.85,2.85,0,0,0,2-.58,2.11,2.11,0,0,0,.64-1.62,2,2,0,0,0-.64-1.59,2.9,2.9,0,0,0-2-.57h-5.9c-1.73,0-2.6.72-2.6,2.16S63.49,80.1,65.22,80.1ZM88.55,75A5,5,0,0,0,91,73.06a5.21,5.21,0,0,0,.9-3,5.49,5.49,0,0,0-1-3.2,6.28,6.28,0,0,0-2.73-2.13A10.4,10.4,0,0,0,84.16,64a12.74,12.74,0,0,0-3.71.56,10.44,10.44,0,0,0-3.19,1.57,2.64,2.64,0,0,0-.75.85,2.4,2.4,0,0,0-.22,1.1,2.6,2.6,0,0,0,.53,1.64,1.64,1.64,0,0,0,1.32.68,2.13,2.13,0,0,0,.78-.14c.23-.1.55-.25,1-.46l.65-.31a14.48,14.48,0,0,1,1.71-.75,4.69,4.69,0,0,1,1.65-.29,2.7,2.7,0,0,1,1.91.65,2.33,2.33,0,0,1,.69,1.8,1.77,1.77,0,0,1-.78,1.6,4.85,4.85,0,0,1-2.51.5H81.81a1.77,1.77,0,0,0-1.47.66,2.4,2.4,0,0,0-.54,1.57,2.37,2.37,0,0,0,.54,1.56,1.77,1.77,0,0,0,1.47.66h1.94a4.66,4.66,0,0,1,2.57.54,1.94,1.94,0,0,1,.79,1.75,2.17,2.17,0,0,1-.77,1.88,4.3,4.3,0,0,1-2.52.57A5.69,5.69,0,0,1,82,81.87a13.82,13.82,0,0,1-1.8-.77l-.39-.17-.3-.14c-.4-.21-.71-.36-.94-.46a2.13,2.13,0,0,0-.78-.14,1.61,1.61,0,0,0-1.32.68A2.54,2.54,0,0,0,76,82.51a2.47,2.47,0,0,0,.22,1.09,2.36,2.36,0,0,0,.75.86A9.9,9.9,0,0,0,80.18,86a13.75,13.75,0,0,0,3.92.55,11.86,11.86,0,0,0,4.44-.77,6.61,6.61,0,0,0,2.93-2.18,5.46,5.46,0,0,0,1-3.32,5.56,5.56,0,0,0-1-3.42A5.31,5.31,0,0,0,88.55,75Z"/><path d="M44.6,61.68V89.87a8,8,0,0,1-7.94,7.94H8.47A8,8,0,0,1,.53,89.87V61.68a8,8,0,0,1,7.94-7.94H36.66A8,8,0,0,1,44.6,61.68ZM9.21,79.86h5.9a2.89,2.89,0,0,0,2-.58,2.07,2.07,0,0,0,.64-1.62,2,2,0,0,0-.64-1.6,2.94,2.94,0,0,0-2-.56H9.21c-1.73,0-2.6.72-2.6,2.16S7.48,79.86,9.21,79.86Zm23.33-5.15A5.09,5.09,0,0,0,35,72.82a5.27,5.27,0,0,0,.89-3,5.47,5.47,0,0,0-1-3.2,6.09,6.09,0,0,0-2.73-2.13,10.4,10.4,0,0,0-4.09-.75,12.74,12.74,0,0,0-3.71.56,10.44,10.44,0,0,0-3.19,1.57,2.54,2.54,0,0,0-.75.85,2.35,2.35,0,0,0-.22,1.09,2.61,2.61,0,0,0,.53,1.65,1.63,1.63,0,0,0,1.32.67,2,2,0,0,0,.79-.14,10.17,10.17,0,0,0,.94-.45l.65-.31a16.6,16.6,0,0,1,1.71-.76,4.73,4.73,0,0,1,1.65-.28,2.69,2.69,0,0,1,1.91.64,2.35,2.35,0,0,1,.69,1.81,1.77,1.77,0,0,1-.78,1.6,4.85,4.85,0,0,1-2.51.5H25.8a1.77,1.77,0,0,0-1.47.66,2.37,2.37,0,0,0-.54,1.56,2.4,2.4,0,0,0,.54,1.57,1.77,1.77,0,0,0,1.47.66h1.94a4.8,4.8,0,0,1,2.58.53,2,2,0,0,1,.78,1.76,2.19,2.19,0,0,1-.77,1.88,4.31,4.31,0,0,1-2.52.56A5.69,5.69,0,0,1,26,81.63a15.36,15.36,0,0,1-1.8-.77l-.39-.17-.3-.14c-.4-.21-.71-.36-.94-.46a2.13,2.13,0,0,0-.78-.14,1.63,1.63,0,0,0-1.32.67,2.55,2.55,0,0,0-.53,1.65,2.39,2.39,0,0,0,.22,1.08,2.28,2.28,0,0,0,.75.86,10,10,0,0,0,3.26,1.59,14.12,14.12,0,0,0,3.92.55,11.86,11.86,0,0,0,4.44-.77,6.61,6.61,0,0,0,2.93-2.18,5.46,5.46,0,0,0,1-3.32,5.56,5.56,0,0,0-1.05-3.42A5.34,5.34,0,0,0,32.54,74.71Z"/><path d="M71.57,10.91V39.09A7.94,7.94,0,0,1,63.63,47H35.44a7.94,7.94,0,0,1-7.94-7.94V10.91A7.94,7.94,0,0,1,35.44,3H63.63A7.94,7.94,0,0,1,71.57,10.91ZM37.18,29.08h5.9a2.85,2.85,0,0,0,2-.58,2.11,2.11,0,0,0,.64-1.62A2,2,0,0,0,45,25.29a2.9,2.9,0,0,0-2-.57h-5.9c-1.73,0-2.6.72-2.6,2.16S35.45,29.08,37.18,29.08Zm23.33-5.14A5,5,0,0,0,63,22a5.21,5.21,0,0,0,.9-3,5.49,5.49,0,0,0-1-3.2,6.21,6.21,0,0,0-2.73-2.13,10.4,10.4,0,0,0-4.09-.75,12.74,12.74,0,0,0-3.71.56,10.44,10.44,0,0,0-3.19,1.57,2.64,2.64,0,0,0-.75.85,2.4,2.4,0,0,0-.22,1.1,2.6,2.6,0,0,0,.53,1.64,1.64,1.64,0,0,0,1.32.68,2.13,2.13,0,0,0,.78-.14c.23-.1.55-.25.95-.46l.65-.31a16.6,16.6,0,0,1,1.71-.76,4.93,4.93,0,0,1,1.65-.28,2.7,2.7,0,0,1,1.91.65,2.33,2.33,0,0,1,.69,1.8,1.77,1.77,0,0,1-.78,1.6,4.85,4.85,0,0,1-2.51.5H53.77a1.77,1.77,0,0,0-1.47.66,2.4,2.4,0,0,0-.54,1.57,2.37,2.37,0,0,0,.54,1.56,1.77,1.77,0,0,0,1.47.66h1.94a4.76,4.76,0,0,1,2.57.53,2,2,0,0,1,.79,1.76,2.17,2.17,0,0,1-.77,1.88,4.3,4.3,0,0,1-2.52.57A5.69,5.69,0,0,1,54,30.85a13.82,13.82,0,0,1-1.8-.77l-.39-.17-.3-.14c-.4-.21-.71-.36-.94-.46a2.13,2.13,0,0,0-.78-.14,1.61,1.61,0,0,0-1.32.68,2.54,2.54,0,0,0-.53,1.64,2.47,2.47,0,0,0,.22,1.09,2.36,2.36,0,0,0,.75.86A9.9,9.9,0,0,0,52.14,35a13.75,13.75,0,0,0,3.92.55,11.86,11.86,0,0,0,4.44-.77,6.61,6.61,0,0,0,2.93-2.18,5.46,5.46,0,0,0,1-3.32,5.56,5.56,0,0,0-1-3.42A5.31,5.31,0,0,0,60.51,23.94Z"/></svg>