<svg id="Layer_1" data-name="Layer 1" xmlns="http://www.w3.org/2000/svg" viewBox="0 0 100 100"><title>l22_3_1</title><path d="M99.61,61.93V90.11a7.94,7.94,0,0,1-7.94,7.94H63.48a7.94,7.94,0,0,1-7.94-7.94V61.93A7.94,7.94,0,0,1,63.48,54H91.67A7.94,7.94,0,0,1,99.61,61.93ZM79.68,70.31a10.64,10.64,0,0,0-4.25.78V65.8h9.28c2.5,0,3.74-1,3.74-3s-1.24-3-3.74-3H71.38a3.68,3.68,0,0,0-2.71,1,3.73,3.73,0,0,0-.94,2.75V75.17A2.33,2.33,0,0,0,68.55,77a2.92,2.92,0,0,0,2,.71,4,4,0,0,0,1.93-.47A15.28,15.28,0,0,1,75,76.51a11.38,11.38,0,0,1,2.35-.22,4.84,4.84,0,0,1,3.35,1.08,3.83,3.83,0,0,1,1.21,3,3.72,3.72,0,0,1-1.17,3,5.51,5.51,0,0,1-3.57,1A7.07,7.07,0,0,1,74.76,84a24.61,24.61,0,0,1-2.43-1l-.86-.43a12.82,12.82,0,0,0-1.29-.65,3.06,3.06,0,0,0-1.08-.17,2.24,2.24,0,0,0-1.8.92,3.52,3.52,0,0,0-.73,2.26,3.08,3.08,0,0,0,.32,1.48,3.67,3.67,0,0,0,1,1.19,14.16,14.16,0,0,0,4.41,2.15,18.07,18.07,0,0,0,5.22.77,14,14,0,0,0,6.15-1.29,9.73,9.73,0,0,0,4.13-3.65,10.23,10.23,0,0,0,1.46-5.46A10.45,10.45,0,0,0,88.05,75a8.72,8.72,0,0,0-3.4-3.44A9.9,9.9,0,0,0,79.68,70.31Z"/><path d="M44.6,61.68V89.87a8,8,0,0,1-7.94,7.94H8.47A8,8,0,0,1,.53,89.87V61.68a8,8,0,0,1,7.94-7.94H36.66A8,8,0,0,1,44.6,61.68ZM23.67,70.27a10.64,10.64,0,0,0-4.25.78V65.76H28.7q3.75,0,3.75-3t-3.75-3H15.37a3.66,3.66,0,0,0-2.7.95,3.69,3.69,0,0,0-.95,2.75V75.13A2.33,2.33,0,0,0,12.54,77a2.92,2.92,0,0,0,2,.71,4,4,0,0,0,1.93-.47A15.05,15.05,0,0,1,19,76.47a11.21,11.21,0,0,1,2.34-.22,4.84,4.84,0,0,1,3.35,1.08,3.83,3.83,0,0,1,1.21,3,3.75,3.75,0,0,1-1.16,3,5.55,5.55,0,0,1-3.57,1A7.09,7.09,0,0,1,18.75,84a24.61,24.61,0,0,1-2.43-1l-.86-.43a12.82,12.82,0,0,0-1.29-.65,3,3,0,0,0-1.07-.17,2.24,2.24,0,0,0-1.81.92,3.52,3.52,0,0,0-.73,2.26,3.23,3.23,0,0,0,.32,1.48,3.91,3.91,0,0,0,1,1.19,14.39,14.39,0,0,0,4.41,2.15,18.13,18.13,0,0,0,5.22.77,13.94,13.94,0,0,0,6.15-1.29A9.68,9.68,0,0,0,31.8,85.5,10.24,10.24,0,0,0,33.26,80,10.41,10.41,0,0,0,32,74.94a8.72,8.72,0,0,0-3.4-3.44A9.9,9.9,0,0,0,23.67,70.27Z"/><path d="M71.57,10.91V39.09A7.94,7.94,0,0,1,63.63,47H35.44a7.94,7.94,0,0,1-7.94-7.94V10.91A7.94,7.94,0,0,1,35.44,3H63.63A7.94,7.94,0,0,1,71.57,10.91ZM42.77,32H56.3a6.52,6.52,0,0,0,4.5-1.33A4.73,4.73,0,0,0,62.28,27a4.61,4.61,0,0,0-1.48-3.67A6.63,6.63,0,0,0,56.3,22H42.77q-6,0-6,5T42.77,32Z"/></svg>