<svg id="Layer_1" data-name="Layer 1" xmlns="http://www.w3.org/2000/svg" viewBox="0 0 100 100"><title>l22_2_1</title><path d="M71.57,10.91V39.09A7.94,7.94,0,0,1,63.63,47H35.44a7.94,7.94,0,0,1-7.94-7.94V10.91A7.94,7.94,0,0,1,35.44,3H63.63A7.94,7.94,0,0,1,71.57,10.91ZM33.9,35.48a2.42,2.42,0,0,0,1.76-.64,2.3,2.3,0,0,0,.66-1.73V19.2a2.24,2.24,0,0,0-.66-1.7,2.38,2.38,0,0,0-1.76-.64,2.31,2.31,0,0,0-1.73.64,2.27,2.27,0,0,0-.64,1.7V33.11a2.32,2.32,0,0,0,.64,1.73A2.35,2.35,0,0,0,33.9,35.48ZM48,27.83l2.81-2.78a1.53,1.53,0,0,0,.47-1.12,1.35,1.35,0,0,0-.47-1.06,1.41,1.41,0,0,0-1.09-.47,1.45,1.45,0,0,0-1.09.47l-2.81,2.8L43,22.87a1.52,1.52,0,0,0-1.09-.5,1.39,1.39,0,0,0-1.07.47A1.52,1.52,0,0,0,40.35,24a1.57,1.57,0,0,0,.44,1.09l2.81,2.78-2.81,2.81a1.51,1.51,0,0,0-.47,1.09,1.49,1.49,0,0,0,.47,1.09,1.58,1.58,0,0,0,1.09.45A1.46,1.46,0,0,0,43,32.82L45.78,30l2.81,2.8a1.5,1.5,0,0,0,2.18,0,1.44,1.44,0,0,0,.44-1.09,1.41,1.41,0,0,0-.44-1.09Zm18.25,3.69H61l3.69-3.77a12.11,12.11,0,0,0,2.17-2.92,6.49,6.49,0,0,0,.64-2.9,4.85,4.85,0,0,0-.79-2.72,5.12,5.12,0,0,0-2.25-1.82,8.45,8.45,0,0,0-3.38-.64,10.31,10.31,0,0,0-3,.47,10.65,10.65,0,0,0-2.74,1.3,1.85,1.85,0,0,0-.64.68,2.26,2.26,0,0,0-.17.94A2.23,2.23,0,0,0,55,21.53a1.3,1.3,0,0,0,1.09.58,1.33,1.33,0,0,0,.49-.08,3,3,0,0,0,.54-.24l.4-.22.52-.26a12,12,0,0,1,1.47-.64,4.14,4.14,0,0,1,1.39-.22,2,2,0,0,1,1.44.47,1.73,1.73,0,0,1,.51,1.35,5.06,5.06,0,0,1-1.72,3.3l-5.51,5.75a2.82,2.82,0,0,0-.88,2,2,2,0,0,0,.54,1.42,2,2,0,0,0,1.49.56h9.48a2.64,2.64,0,0,0,1.71-.47,1.8,1.8,0,0,0,.56-1.45A1.72,1.72,0,0,0,67.92,32,2.65,2.65,0,0,0,66.21,31.52Z"/><path d="M99.61,61.93V90.11a7.94,7.94,0,0,1-7.94,7.94H63.48a7.94,7.94,0,0,1-7.94-7.94V61.93A7.94,7.94,0,0,1,63.48,54H91.67A7.94,7.94,0,0,1,99.61,61.93ZM61.94,86.5a2.42,2.42,0,0,0,1.76-.64,2.3,2.3,0,0,0,.66-1.73V70.22a2.24,2.24,0,0,0-.66-1.7,2.38,2.38,0,0,0-1.76-.64,2.31,2.31,0,0,0-1.73.64,2.27,2.27,0,0,0-.64,1.7V84.13a2.32,2.32,0,0,0,.64,1.73A2.35,2.35,0,0,0,61.94,86.5ZM76,78.85l2.81-2.78A1.53,1.53,0,0,0,79.28,75a1.35,1.35,0,0,0-.47-1.06,1.41,1.41,0,0,0-1.09-.47,1.45,1.45,0,0,0-1.09.47l-2.81,2.8L71,73.89a1.52,1.52,0,0,0-1.09-.5,1.39,1.39,0,0,0-1.07.47A1.53,1.53,0,0,0,68.39,75a1.57,1.57,0,0,0,.44,1.09l2.81,2.78-2.81,2.81a1.51,1.51,0,0,0-.47,1.09,1.49,1.49,0,0,0,.47,1.09,1.58,1.58,0,0,0,1.09.45A1.46,1.46,0,0,0,71,83.84L73.82,81l2.81,2.8a1.5,1.5,0,0,0,2.18,0,1.44,1.44,0,0,0,.44-1.09,1.41,1.41,0,0,0-.44-1.09Zm18.25,3.69H89l3.69-3.77a12.11,12.11,0,0,0,2.17-2.92,6.49,6.49,0,0,0,.64-2.9,4.85,4.85,0,0,0-.79-2.72,5.12,5.12,0,0,0-2.25-1.82,8.46,8.46,0,0,0-3.38-.63,10.29,10.29,0,0,0-3,.46,10.65,10.65,0,0,0-2.74,1.3,1.85,1.85,0,0,0-.64.68,2.26,2.26,0,0,0-.17.94A2.23,2.23,0,0,0,83,72.55a1.3,1.3,0,0,0,1.09.58,1.33,1.33,0,0,0,.49-.08,3,3,0,0,0,.54-.24,4,4,0,0,1,.4-.22l.52-.26a12,12,0,0,1,1.47-.64,4.14,4.14,0,0,1,1.39-.22,2,2,0,0,1,1.44.47,1.73,1.73,0,0,1,.51,1.35,5.06,5.06,0,0,1-1.72,3.3l-5.51,5.75a2.82,2.82,0,0,0-.88,2,2,2,0,0,0,.54,1.42,2,2,0,0,0,1.49.56h9.48A2.64,2.64,0,0,0,96,85.87a1.78,1.78,0,0,0,.56-1.45A1.72,1.72,0,0,0,96,83,2.71,2.71,0,0,0,94.25,82.54Z"/><path d="M44.6,61.68V89.87a8,8,0,0,1-7.94,7.94H8.47A8,8,0,0,1,.53,89.87V61.68a8,8,0,0,1,7.94-7.94H36.66A8,8,0,0,1,44.6,61.68ZM5.93,86.25a2.46,2.46,0,0,0,1.77-.63,2.35,2.35,0,0,0,.65-1.73V70a2.31,2.31,0,0,0-.65-1.71,2.46,2.46,0,0,0-1.77-.63,2.34,2.34,0,0,0-1.73.63A2.31,2.31,0,0,0,3.56,70V83.89a2.34,2.34,0,0,0,.64,1.73A2.34,2.34,0,0,0,5.93,86.25ZM20,78.61l2.81-2.78a1.56,1.56,0,0,0,.47-1.12,1.39,1.39,0,0,0-.47-1.07,1.44,1.44,0,0,0-1.09-.47,1.49,1.49,0,0,0-1.09.47l-2.81,2.81L15,73.64a1.5,1.5,0,0,0-1.09-.49,1.35,1.35,0,0,0-1.07.47,1.51,1.51,0,0,0-.46,1.11,1.59,1.59,0,0,0,.44,1.1l2.81,2.78-2.81,2.81a1.49,1.49,0,0,0-.47,1.09,1.51,1.51,0,0,0,.47,1.09,1.57,1.57,0,0,0,1.09.44A1.45,1.45,0,0,0,15,83.6l2.81-2.81,2.81,2.81a1.5,1.5,0,0,0,2.18,0,1.45,1.45,0,0,0,.44-1.09,1.4,1.4,0,0,0-.44-1.09ZM38.25,82.3H33l3.69-3.77a12.11,12.11,0,0,0,2.17-2.92,6.52,6.52,0,0,0,.64-2.9A4.75,4.75,0,0,0,38.73,70a5,5,0,0,0-2.25-1.82,8.45,8.45,0,0,0-3.38-.64,10.66,10.66,0,0,0-5.75,1.77,1.67,1.67,0,0,0-.63.68,2.09,2.09,0,0,0-.17.93A2.2,2.2,0,0,0,27,72.3a1.33,1.33,0,0,0,1.09.59,1.57,1.57,0,0,0,.49-.08,2.52,2.52,0,0,0,.54-.25l.4-.22.52-.26a11.75,11.75,0,0,1,1.47-.63,4.14,4.14,0,0,1,1.39-.23,2.06,2.06,0,0,1,1.44.47,1.76,1.76,0,0,1,.51,1.36,5.06,5.06,0,0,1-1.72,3.3l-5.51,5.74a2.86,2.86,0,0,0-.88,2,2,2,0,0,0,.54,1.42,2,2,0,0,0,1.49.56h9.49a2.61,2.61,0,0,0,1.7-.47,1.81,1.81,0,0,0,.56-1.46A1.71,1.71,0,0,0,40,82.76,2.61,2.61,0,0,0,38.25,82.3Z"/></svg>