<svg id="Layer_1" data-name="Layer 1" xmlns="http://www.w3.org/2000/svg" viewBox="0 0 100 100"><title>l22_5_1</title><path d="M84.75,61.68V89.87a8,8,0,0,1-7.94,7.94H24.39a8,8,0,0,1-7.94-7.94V61.68a8,8,0,0,1,7.94-7.94H76.81A8,8,0,0,1,84.75,61.68ZM40.07,84.26H36.79v-19a3.48,3.48,0,0,0-1-2.6,3.55,3.55,0,0,0-2.58-1,6.69,6.69,0,0,0-3.32,1l-6.4,3.72a2.71,2.71,0,0,0-1.41,2.48,3.35,3.35,0,0,0,.81,2.18,2.41,2.41,0,0,0,1.92,1,2.81,2.81,0,0,0,1.4-.4l3.2-1.88V84.26H26.18a4,4,0,0,0-2.63.72,2.69,2.69,0,0,0-.84,2.16q0,3,3.47,3H40.07q3.48,0,3.48-3A2.72,2.72,0,0,0,42.71,85,4,4,0,0,0,40.07,84.26Zm8.56,7.12,9.08-28.52a5,5,0,0,0,.16-.88A2.34,2.34,0,0,0,57,60.1a3,3,0,0,0-2-.72,2.65,2.65,0,0,0-1.54.48,2.68,2.68,0,0,0-1,1.44L43.39,89.82a2.58,2.58,0,0,0-.16.92,2.32,2.32,0,0,0,.84,1.84,2.91,2.91,0,0,0,2,.72,2.7,2.7,0,0,0,1.57-.48A2.75,2.75,0,0,0,48.63,91.38Zm26-15.8a6.54,6.54,0,0,0,3.18-2.42A6.67,6.67,0,0,0,79,69.3a7,7,0,0,0-1.22-4.08,7.85,7.85,0,0,0-3.48-2.72,13.28,13.28,0,0,0-5.22-1,16,16,0,0,0-4.74.72,13.05,13.05,0,0,0-4.06,2,3.11,3.11,0,0,0-1,1.08,3.21,3.21,0,0,0-.27,1.4,3.27,3.27,0,0,0,.68,2.1,2.07,2.07,0,0,0,1.68.86,2.66,2.66,0,0,0,1-.18c.29-.12.69-.32,1.2-.58l.84-.4a20.06,20.06,0,0,1,2.18-1,6,6,0,0,1,2.1-.36A3.39,3.39,0,0,1,71.1,68a3,3,0,0,1,.89,2.3,2.26,2.26,0,0,1-1,2,6.22,6.22,0,0,1-3.2.64H66a2.28,2.28,0,0,0-1.88.84,3.28,3.28,0,0,0,0,4A2.28,2.28,0,0,0,66,78.7h2.48a6,6,0,0,1,3.28.68,2.52,2.52,0,0,1,1,2.24,2.79,2.79,0,0,1-1,2.4,5.57,5.57,0,0,1-3.22.72,7.42,7.42,0,0,1-2.3-.34,18.53,18.53,0,0,1-2.3-1l-.5-.22L63.1,83c-.5-.27-.9-.46-1.19-.58a2.66,2.66,0,0,0-1-.18,2,2,0,0,0-1.68.86,3.23,3.23,0,0,0-.68,2.1,2.8,2.8,0,0,0,1.24,2.48,12.9,12.9,0,0,0,4.16,2,18,18,0,0,0,5,.7,15.05,15.05,0,0,0,5.65-1,8.45,8.45,0,0,0,3.75-2.78,7,7,0,0,0,1.32-4.24,7.11,7.11,0,0,0-1.34-4.36A6.82,6.82,0,0,0,74.63,75.58Z"/><path d="M71.57,10.91V39.09A7.94,7.94,0,0,1,63.63,47H35.44a7.94,7.94,0,0,1-7.94-7.94V10.91A7.94,7.94,0,0,1,35.44,3H63.63A7.94,7.94,0,0,1,71.57,10.91ZM58.68,15.18a3.2,3.2,0,0,0-2.86,2L49.6,29,43.35,17.22a4.06,4.06,0,0,0-1.26-1.51,2.86,2.86,0,0,0-1.67-.53A2.82,2.82,0,0,0,38.3,16a3,3,0,0,0-.84,2.21v18.5a2.59,2.59,0,0,0,2.72,2.78,2.68,2.68,0,0,0,2-.76,2.74,2.74,0,0,0,.77-2v-9.8l3.84,6.94A4.35,4.35,0,0,0,48,35.43a2.56,2.56,0,0,0,1.52.46,2.61,2.61,0,0,0,1.53-.46,4.35,4.35,0,0,0,1.23-1.55l3.88-7.14v10a2.79,2.79,0,0,0,4.69,2,2.79,2.79,0,0,0,.74-2V18.24A3.07,3.07,0,0,0,60.79,16,2.78,2.78,0,0,0,58.68,15.18Z"/></svg>