<svg id="Layer_1" data-name="Layer 1" xmlns="http://www.w3.org/2000/svg" viewBox="0 0 100 100"><title>l22_5_1</title><path d="M99.61,61.93V90.11a7.94,7.94,0,0,1-7.94,7.94H63.48a7.94,7.94,0,0,1-7.94-7.94V61.93A7.94,7.94,0,0,1,63.48,54H91.67A7.94,7.94,0,0,1,99.61,61.93ZM74.51,81.22,64.42,77.35l10.09-3.88a1.77,1.77,0,0,0,.86-.65,1.75,1.75,0,0,0,.3-1,2.1,2.1,0,0,0-.59-1.54,2.07,2.07,0,0,0-1.52-.6,3.06,3.06,0,0,0-1,.21L61.19,74.25a3.36,3.36,0,0,0-1.55,1.24,3.44,3.44,0,0,0,0,3.76,3.21,3.21,0,0,0,1.55,1.19l11.32,4.39a3.28,3.28,0,0,0,1,.2,2.07,2.07,0,0,0,1.52-.6,2.1,2.1,0,0,0,.59-1.54,1.67,1.67,0,0,0-.3-1A2,2,0,0,0,74.51,81.22Zm20.47,1H92.19V66.06a2.93,2.93,0,0,0-.83-2.21A3,3,0,0,0,89.17,63a5.77,5.77,0,0,0-2.82.85L80.91,67a2.3,2.3,0,0,0-1.19,2.11A2.85,2.85,0,0,0,80.4,71a2,2,0,0,0,1.63.83,2.39,2.39,0,0,0,1.19-.34l2.72-1.6V82.17H83.18a3.39,3.39,0,0,0-2.24.62,2.26,2.26,0,0,0-.71,1.83c0,1.68,1,2.52,3,2.52H95c2,0,3-.84,3-2.52a2.29,2.29,0,0,0-.71-1.83A3.42,3.42,0,0,0,95,82.17Z"/><path d="M44.6,61.68V89.87a8,8,0,0,1-7.94,7.94H8.47A8,8,0,0,1,.53,89.87V61.68a8,8,0,0,1,7.94-7.94H36.66A8,8,0,0,1,44.6,61.68ZM18.51,81.18,8.41,77.3l10.1-3.87a1.79,1.79,0,0,0,.85-.65,1.75,1.75,0,0,0,.3-1,2.1,2.1,0,0,0-.59-1.54,2,2,0,0,0-1.52-.6,3.38,3.38,0,0,0-1.05.2L5.18,74.21a3.36,3.36,0,0,0-1.55,1.24,3.44,3.44,0,0,0,0,3.76A3.21,3.21,0,0,0,5.18,80.4L16.5,84.79a3.38,3.38,0,0,0,1.05.2,2,2,0,0,0,1.52-.6,2.1,2.1,0,0,0,.59-1.54,1.72,1.72,0,0,0-.3-1A2.1,2.1,0,0,0,18.51,81.18ZM39,82.13H36.19V66a2.93,2.93,0,0,0-.84-2.21A3,3,0,0,0,33.16,63a5.7,5.7,0,0,0-2.82.85L24.9,67a2.3,2.3,0,0,0-1.19,2.11A2.81,2.81,0,0,0,24.39,71,2,2,0,0,0,26,71.8a2.39,2.39,0,0,0,1.19-.34l2.72-1.6V82.13H27.18a3.4,3.4,0,0,0-2.25.62,2.27,2.27,0,0,0-.71,1.83c0,1.68,1,2.52,3,2.52H39c2,0,3-.84,3-2.52a2.27,2.27,0,0,0-.71-1.83A3.42,3.42,0,0,0,39,82.13Z"/><path d="M71.57,10.91V39.09A7.94,7.94,0,0,1,63.63,47H35.44a7.94,7.94,0,0,1-7.94-7.94V10.91A7.94,7.94,0,0,1,35.44,3H63.63A7.94,7.94,0,0,1,71.57,10.91ZM46.48,31.4l-10.1-3.87,10.1-3.88a1.7,1.7,0,0,0,.84-.64,1.73,1.73,0,0,0,.31-1A2.12,2.12,0,0,0,47,20.44a2,2,0,0,0-1.52-.6,3.1,3.1,0,0,0-1.05.21L33.15,24.43a3.38,3.38,0,0,0-1.55,1.25A3.25,3.25,0,0,0,31,27.53a3.3,3.3,0,0,0,.56,1.9,3.15,3.15,0,0,0,1.55,1.19L44.47,35a3.33,3.33,0,0,0,1.05.2A2.08,2.08,0,0,0,47,34.62a2.14,2.14,0,0,0,.59-1.55,1.61,1.61,0,0,0-.31-1A2,2,0,0,0,46.48,31.4Zm20.46,1H64.15V16.24A2.93,2.93,0,0,0,63.32,14a3,3,0,0,0-2.19-.82,5.77,5.77,0,0,0-2.82.85l-5.44,3.17a2.28,2.28,0,0,0-1.19,2.1,2.85,2.85,0,0,0,.68,1.86A2,2,0,0,0,54,22a2.29,2.29,0,0,0,1.19-.34l2.72-1.6V32.36H55.15A3.4,3.4,0,0,0,52.9,33a2.27,2.27,0,0,0-.71,1.83c0,1.68,1,2.52,3,2.52H66.94c2,0,3-.84,3-2.52A2.3,2.3,0,0,0,69.19,33,3.42,3.42,0,0,0,66.94,32.36Z"/></svg>