<svg id="Layer_1" data-name="Layer 1" xmlns="http://www.w3.org/2000/svg" viewBox="0 0 100 100"><title>l22_3_1</title><path d="M99.61,61.93V90.11a7.94,7.94,0,0,1-7.94,7.94H63.48a7.94,7.94,0,0,1-7.94-7.94V61.93A7.94,7.94,0,0,1,63.48,54H91.67A7.94,7.94,0,0,1,99.61,61.93ZM79.68,70.31a10.73,10.73,0,0,0-4.26.78V65.8h9.29c2.5,0,3.74-1,3.74-3s-1.24-3-3.74-3H71.38a3.68,3.68,0,0,0-2.71,1,3.73,3.73,0,0,0-.94,2.75V75.17A2.35,2.35,0,0,0,68.54,77a3,3,0,0,0,2,.71,4.06,4.06,0,0,0,1.94-.47A15.28,15.28,0,0,1,75,76.51a11.38,11.38,0,0,1,2.35-.22,4.84,4.84,0,0,1,3.35,1.08,3.82,3.82,0,0,1,1.2,3,3.72,3.72,0,0,1-1.16,3,5.51,5.51,0,0,1-3.57,1A7,7,0,0,1,74.76,84a24.61,24.61,0,0,1-2.43-1l-.86-.43c-.58-.32-1-.53-1.29-.65a3.06,3.06,0,0,0-1.08-.17,2.22,2.22,0,0,0-1.8.92,3.52,3.52,0,0,0-.73,2.26,3.08,3.08,0,0,0,.32,1.48,3.67,3.67,0,0,0,1,1.19,14.16,14.16,0,0,0,4.41,2.15,18.07,18.07,0,0,0,5.22.77,14,14,0,0,0,6.15-1.29,9.73,9.73,0,0,0,4.13-3.65A11.06,11.06,0,0,0,88,75a8.63,8.63,0,0,0-3.39-3.44A9.93,9.93,0,0,0,79.68,70.31Z"/><path d="M44.6,61.68V89.87a8,8,0,0,1-7.94,7.94H8.47A8,8,0,0,1,.53,89.87V61.68a8,8,0,0,1,7.94-7.94H36.66A8,8,0,0,1,44.6,61.68ZM23.67,70.27a10.64,10.64,0,0,0-4.25.78V65.76H28.7c2.5,0,3.74-1,3.74-3s-1.24-3-3.74-3H15.37a3.68,3.68,0,0,0-2.71.95,3.71,3.71,0,0,0-.94,2.75V75.13A2.33,2.33,0,0,0,12.54,77a2.92,2.92,0,0,0,2,.71,4,4,0,0,0,1.93-.47A15.28,15.28,0,0,1,19,76.47a11.38,11.38,0,0,1,2.35-.22,4.88,4.88,0,0,1,3.35,1.07,3.87,3.87,0,0,1,1.21,3,3.72,3.72,0,0,1-1.17,3,5.5,5.5,0,0,1-3.56,1A7.09,7.09,0,0,1,18.75,84a24.61,24.61,0,0,1-2.43-1l-.86-.44c-.57-.31-1-.52-1.29-.64a3.06,3.06,0,0,0-1.08-.17,2.24,2.24,0,0,0-1.8.92,3.52,3.52,0,0,0-.73,2.26,3.11,3.11,0,0,0,.32,1.48,3.91,3.91,0,0,0,1,1.19,14.39,14.39,0,0,0,4.41,2.15,18.07,18.07,0,0,0,5.22.77,14,14,0,0,0,6.15-1.29A9.73,9.73,0,0,0,31.8,85.5,10.24,10.24,0,0,0,33.26,80,10.41,10.41,0,0,0,32,74.94a8.72,8.72,0,0,0-3.4-3.44A9.9,9.9,0,0,0,23.67,70.27Z"/><path d="M71.57,10.91V39.09A7.94,7.94,0,0,1,63.63,47H35.44a7.94,7.94,0,0,1-7.94-7.94V10.91A7.94,7.94,0,0,1,35.44,3H63.63A7.94,7.94,0,0,1,71.57,10.91Zm-16,14.67,7.78-7.7a4.24,4.24,0,0,0,1.29-3.1,3.78,3.78,0,0,0-1.29-2.95,4,4,0,0,0-3-1.3,4.15,4.15,0,0,0-3,1.3l-7.78,7.78-7.77-7.78a4.21,4.21,0,0,0-3-1.37,3.79,3.79,0,0,0-2.95,1.3,4.23,4.23,0,0,0-1.29,3.09,4.41,4.41,0,0,0,1.22,3l7.78,7.7-7.78,7.78a4.17,4.17,0,0,0,0,6,4.45,4.45,0,0,0,3,1.22,4.15,4.15,0,0,0,3-1.22l7.77-7.78,7.78,7.78a4.25,4.25,0,0,0,7.27-3,4,4,0,0,0-1.22-3Z"/></svg>