<svg id="Layer_1" data-name="Layer 1" xmlns="http://www.w3.org/2000/svg" viewBox="0 0 100 100"><title>l22_4_1</title><path d="M88.34,61.68V89.87a8,8,0,0,1-7.94,7.94H21.47a8,8,0,0,1-7.94-7.94V61.68a8,8,0,0,1,7.94-7.94H80.4A8,8,0,0,1,88.34,61.68ZM39.26,83.82H35.73V63.44a3.75,3.75,0,0,0-1-2.8,3.81,3.81,0,0,0-2.78-1,7.35,7.35,0,0,0-3.57,1.07l-6.88,4A2.93,2.93,0,0,0,20,67.35a3.57,3.57,0,0,0,.86,2.34,2.56,2.56,0,0,0,2.06,1.06,3,3,0,0,0,1.51-.43l3.44-2V83.82H24.33a4.31,4.31,0,0,0-2.83.77,2.87,2.87,0,0,0-.91,2.32q0,3.2,3.74,3.19H39.26Q43,90.1,43,86.91a2.87,2.87,0,0,0-.91-2.32A4.33,4.33,0,0,0,39.26,83.82Zm9.2,7.65,9.76-30.66a4.94,4.94,0,0,0,.17-.94,2.52,2.52,0,0,0-.92-2,3.22,3.22,0,0,0-2.13-.78,2.83,2.83,0,0,0-2.75,2.07L42.82,89.8a2.93,2.93,0,0,0-.17,1,2.48,2.48,0,0,0,.9,2,3.15,3.15,0,0,0,2.11.78,3,3,0,0,0,1.7-.52A2.92,2.92,0,0,0,48.46,91.47ZM79,83.82H70.3l6.11-6.24A20.36,20.36,0,0,0,80,72.75a10.89,10.89,0,0,0,1-4.8,7.9,7.9,0,0,0-1.31-4.49,8.35,8.35,0,0,0-3.72-3,13.9,13.9,0,0,0-5.59-1.06,17.53,17.53,0,0,0-9.5,2.93,2.79,2.79,0,0,0-1.06,1.12A3.75,3.75,0,0,0,59.59,65a3.68,3.68,0,0,0,.74,2.3,2.16,2.16,0,0,0,1.8,1,2.47,2.47,0,0,0,.82-.13,4.46,4.46,0,0,0,.88-.41l.67-.36.86-.43a19.52,19.52,0,0,1,2.42-1,6.87,6.87,0,0,1,2.31-.37,3.41,3.41,0,0,1,2.38.77,2.91,2.91,0,0,1,.84,2.24c0,1.66-.94,3.48-2.84,5.46l-9.11,9.5a4.73,4.73,0,0,0-1.47,3.36,3.22,3.22,0,0,0,.91,2.34,3.26,3.26,0,0,0,2.45.93H79a4.3,4.3,0,0,0,2.81-.78,3,3,0,0,0,.93-2.41,2.83,2.83,0,0,0-.93-2.34A4.43,4.43,0,0,0,79,83.82Z"/><path d="M71.57,10.91V39.09A7.94,7.94,0,0,1,63.63,47H35.44a7.94,7.94,0,0,1-7.94-7.94V10.91A7.94,7.94,0,0,1,35.44,3H63.63A7.94,7.94,0,0,1,71.57,10.91ZM36.65,22.7H63.28a4.07,4.07,0,0,0,3-1.26,4.25,4.25,0,0,0,1.22-3.06,4.17,4.17,0,0,0-4.25-4.24H36.65a4.07,4.07,0,0,0-3,1.26,4.2,4.2,0,0,0-1.22,3,4.17,4.17,0,0,0,4.25,4.25Zm0,14.4H63.28a4.07,4.07,0,0,0,3-1.26,4.25,4.25,0,0,0,1.22-3.06,4.18,4.18,0,0,0-4.25-4.25H36.65a4.11,4.11,0,0,0-3,1.26,4.25,4.25,0,0,0-1.22,3.07,4.17,4.17,0,0,0,4.25,4.24Z"/></svg>