<svg id="Layer_1" data-name="Layer 1" xmlns="http://www.w3.org/2000/svg" viewBox="0 0 100 100"><title>l22_4_1</title><path d="M88.34,61.68V89.87a8,8,0,0,1-7.94,7.94H21.47a8,8,0,0,1-7.94-7.94V61.68a8,8,0,0,1,7.94-7.94H80.4A8,8,0,0,1,88.34,61.68ZM39.28,83.82H35.75V63.44a3.75,3.75,0,0,0-1-2.8,3.81,3.81,0,0,0-2.78-1,7.38,7.38,0,0,0-3.57,1.07l-6.88,4A2.93,2.93,0,0,0,20,67.35a3.62,3.62,0,0,0,.86,2.34,2.56,2.56,0,0,0,2.06,1.06,3,3,0,0,0,1.51-.43l3.44-2V83.82H24.36a4.34,4.34,0,0,0-2.84.77,2.91,2.91,0,0,0-.91,2.33q0,3.18,3.75,3.18H39.28Q43,90.1,43,86.92a2.88,2.88,0,0,0-.91-2.33A4.31,4.31,0,0,0,39.28,83.82Zm9.2,7.65,9.76-30.66a4.94,4.94,0,0,0,.17-.94,2.52,2.52,0,0,0-.92-2,3.22,3.22,0,0,0-2.13-.78,2.83,2.83,0,0,0-2.75,2.07L42.85,89.8a2.72,2.72,0,0,0-.18,1,2.45,2.45,0,0,0,.91,2,3.11,3.11,0,0,0,2.1.78,3,3,0,0,0,1.7-.52A2.92,2.92,0,0,0,48.48,91.47Zm24.59-21.2a10.64,10.64,0,0,0-4.25.78V65.76h9.29q3.73,0,3.74-3t-3.74-3H64.78a3.66,3.66,0,0,0-2.71.95,3.73,3.73,0,0,0-1,2.75V75.13A2.33,2.33,0,0,0,61.94,77a2.93,2.93,0,0,0,2,.71,4,4,0,0,0,1.93-.47,15.05,15.05,0,0,1,2.48-.77,11.21,11.21,0,0,1,2.34-.22,4.84,4.84,0,0,1,3.35,1.08,3.8,3.8,0,0,1,1.21,3,3.75,3.75,0,0,1-1.16,3,5.55,5.55,0,0,1-3.57,1A7.09,7.09,0,0,1,68.15,84a24.61,24.61,0,0,1-2.43-1l-.86-.43a12.82,12.82,0,0,0-1.29-.65,3,3,0,0,0-1.07-.17,2.24,2.24,0,0,0-1.81.92A3.52,3.52,0,0,0,60,84.85a3.23,3.23,0,0,0,.32,1.48,3.91,3.91,0,0,0,1,1.19,14.39,14.39,0,0,0,4.41,2.15,18.19,18.19,0,0,0,5.23.77,13.9,13.9,0,0,0,6.14-1.29A9.68,9.68,0,0,0,81.2,85.5,10.14,10.14,0,0,0,82.66,80a10.32,10.32,0,0,0-1.22-5.1A8.72,8.72,0,0,0,78,71.5,9.9,9.9,0,0,0,73.07,70.27Z"/><path d="M71.57,10.91V39.09A7.94,7.94,0,0,1,63.63,47H35.44a7.94,7.94,0,0,1-7.94-7.94V10.91A7.94,7.94,0,0,1,35.44,3H63.63A7.94,7.94,0,0,1,71.57,10.91ZM42.76,32H56.3a6.52,6.52,0,0,0,4.5-1.33A4.75,4.75,0,0,0,62.28,27a4.64,4.64,0,0,0-1.48-3.67A6.68,6.68,0,0,0,56.3,22H42.76q-6,0-6,5T42.76,32Z"/></svg>