<svg id="Layer_1" data-name="Layer 1" xmlns="http://www.w3.org/2000/svg" viewBox="0 0 100 100"><title>l22_1_1</title><path d="M99.61,61.93V90.11a7.94,7.94,0,0,1-7.94,7.94H63.48a7.94,7.94,0,0,1-7.94-7.94V61.93A7.94,7.94,0,0,1,63.48,54H91.67A7.94,7.94,0,0,1,99.61,61.93ZM74,75.46H70V71.51a1.87,1.87,0,0,0-3.17-1.32,1.77,1.77,0,0,0-.53,1.32v3.95H62.37a1.81,1.81,0,0,0-1.32.53,1.79,1.79,0,0,0-.53,1.32,1.81,1.81,0,0,0,.53,1.33,1.75,1.75,0,0,0,1.32.55h3.95v3.92a1.79,1.79,0,0,0,.53,1.32,1.83,1.83,0,0,0,1.32.53,1.79,1.79,0,0,0,1.33-.53A1.82,1.82,0,0,0,70,83.11V79.19h4a1.77,1.77,0,0,0,1.32-.55,1.85,1.85,0,0,0,.53-1.33A1.81,1.81,0,0,0,74,75.46Zm14.55-3.58a7.81,7.81,0,0,0-3.11.57V68.59h6.78q2.73,0,2.73-2.19c0-1.45-.91-2.17-2.73-2.17H82.47a2.68,2.68,0,0,0-2,.69,2.72,2.72,0,0,0-.69,2v8.5a1.7,1.7,0,0,0,.6,1.36,2.13,2.13,0,0,0,1.47.52A3,3,0,0,0,83.28,77a10.82,10.82,0,0,1,1.8-.56,8.28,8.28,0,0,1,1.71-.16,3.52,3.52,0,0,1,2.45.79,2.8,2.8,0,0,1,.88,2.19,2.69,2.69,0,0,1-.85,2.21,4,4,0,0,1-2.6.71,5.38,5.38,0,0,1-1.74-.28,16.22,16.22,0,0,1-1.77-.76l-.63-.31a8.85,8.85,0,0,0-.94-.47,2.21,2.21,0,0,0-.79-.13,1.61,1.61,0,0,0-1.31.68A2.55,2.55,0,0,0,79,82.51a2.34,2.34,0,0,0,.24,1.09,2.77,2.77,0,0,0,.74.86A10.34,10.34,0,0,0,83.14,86a13.26,13.26,0,0,0,3.81.56,10.18,10.18,0,0,0,4.49-.94,7.18,7.18,0,0,0,3-2.67,7.4,7.4,0,0,0,1.06-4,7.57,7.57,0,0,0-.89-3.71,6.31,6.31,0,0,0-2.48-2.51A7.2,7.2,0,0,0,88.52,71.88Z"/><path d="M44.6,61.68V89.87a8,8,0,0,1-7.94,7.94H8.47A8,8,0,0,1,.53,89.87V61.68a8,8,0,0,1,7.94-7.94H36.66A8,8,0,0,1,44.6,61.68ZM18,75.22H14v-4A1.86,1.86,0,0,0,10.84,70a1.79,1.79,0,0,0-.53,1.31v4H6.36A1.77,1.77,0,0,0,5,75.75a1.79,1.79,0,0,0-.53,1.32A1.87,1.87,0,0,0,5,78.4,1.79,1.79,0,0,0,6.36,79h4v3.92a1.83,1.83,0,0,0,1.85,1.85,1.76,1.76,0,0,0,1.33-.54A1.78,1.78,0,0,0,14,82.87V79h4a1.8,1.8,0,0,0,1.32-.55,1.87,1.87,0,0,0,.53-1.33A1.81,1.81,0,0,0,18,75.22Zm14.55-3.58a7.91,7.91,0,0,0-3.1.56V68.35h6.77c1.82,0,2.73-.73,2.73-2.2S38,64,36.18,64H26.46a2.68,2.68,0,0,0-2,.69,2.72,2.72,0,0,0-.69,2v8.49a1.72,1.72,0,0,0,.6,1.37,2.18,2.18,0,0,0,1.47.52,3,3,0,0,0,1.41-.35,10.61,10.61,0,0,1,1.81-.56,8.12,8.12,0,0,1,1.7-.16,3.55,3.55,0,0,1,2.45.78,2.8,2.8,0,0,1,.88,2.2,2.7,2.7,0,0,1-.85,2.21,4,4,0,0,1-2.6.7,5.12,5.12,0,0,1-1.74-.28q-.8-.28-1.77-.75l-.63-.31a8.85,8.85,0,0,0-.94-.47A2,2,0,0,0,24.8,80a1.63,1.63,0,0,0-1.32.67A2.55,2.55,0,0,0,23,82.27a2.27,2.27,0,0,0,.23,1.08,2.66,2.66,0,0,0,.74.86,10.23,10.23,0,0,0,3.21,1.57,13,13,0,0,0,3.81.57,10.29,10.29,0,0,0,4.49-.94,7.12,7.12,0,0,0,3-2.67,7.43,7.43,0,0,0,1.06-4A7.64,7.64,0,0,0,38.61,75a6.43,6.43,0,0,0-2.48-2.51A7.27,7.27,0,0,0,32.51,71.64Z"/><path d="M71.57,10.91V39.09A7.94,7.94,0,0,1,63.63,47H35.44a7.94,7.94,0,0,1-7.94-7.94V10.91A7.94,7.94,0,0,1,35.44,3H63.63A7.94,7.94,0,0,1,71.57,10.91ZM45.93,24.44H42v-4a1.87,1.87,0,0,0-3.17-1.32,1.77,1.77,0,0,0-.53,1.32v4h-4A1.81,1.81,0,0,0,33,25a1.79,1.79,0,0,0-.53,1.32A1.81,1.81,0,0,0,33,27.62a1.75,1.75,0,0,0,1.32.55h4v3.92a1.79,1.79,0,0,0,.53,1.32,1.83,1.83,0,0,0,1.32.53,1.79,1.79,0,0,0,1.33-.53A1.82,1.82,0,0,0,42,32.09V28.17h4a1.77,1.77,0,0,0,1.32-.55,1.85,1.85,0,0,0,.53-1.33,1.81,1.81,0,0,0-1.85-1.85Zm14.55-3.58a7.81,7.81,0,0,0-3.11.57V17.57h6.78q2.73,0,2.73-2.19c0-1.45-.91-2.17-2.73-2.17H54.43a2.68,2.68,0,0,0-2,.69,2.72,2.72,0,0,0-.69,2v8.5a1.7,1.7,0,0,0,.6,1.36,2.13,2.13,0,0,0,1.47.52,3,3,0,0,0,1.41-.35,10.82,10.82,0,0,1,1.8-.56,8.28,8.28,0,0,1,1.71-.16A3.52,3.52,0,0,1,61.2,26a2.8,2.8,0,0,1,.88,2.19,2.7,2.7,0,0,1-.85,2.21,4,4,0,0,1-2.6.71,5.12,5.12,0,0,1-1.74-.29,14.29,14.29,0,0,1-1.77-.75l-.63-.31a8.85,8.85,0,0,0-.94-.47,2.21,2.21,0,0,0-.79-.13,1.61,1.61,0,0,0-1.31.68,2.55,2.55,0,0,0-.54,1.64,2.27,2.27,0,0,0,.24,1.08,2.69,2.69,0,0,0,.74.87A10.34,10.34,0,0,0,55.1,35a13.26,13.26,0,0,0,3.81.56,10.18,10.18,0,0,0,4.49-.94,7.18,7.18,0,0,0,3-2.67,7.4,7.4,0,0,0,1.06-4,7.57,7.57,0,0,0-.89-3.71,6.31,6.31,0,0,0-2.48-2.51A7.2,7.2,0,0,0,60.48,20.86Z"/></svg>