<svg id="Layer_1" data-name="Layer 1" xmlns="http://www.w3.org/2000/svg" viewBox="0 0 100 100"><title>l22_4_1</title><path d="M88.34,61.68V89.87a8,8,0,0,1-7.94,7.94H21.47a8,8,0,0,1-7.94-7.94V61.68a8,8,0,0,1,7.94-7.94H80.4A8,8,0,0,1,88.34,61.68ZM35.62,74.49A7,7,0,0,0,39,71.89a7.15,7.15,0,0,0,1.23-4.15A7.47,7.47,0,0,0,39,63.35a8.33,8.33,0,0,0-3.74-2.92,14.21,14.21,0,0,0-5.61-1,17,17,0,0,0-5.09.77,14.27,14.27,0,0,0-4.37,2.15,3.52,3.52,0,0,0-1,1.16,3.34,3.34,0,0,0-.3,1.5,3.5,3.5,0,0,0,.73,2.26,2.22,2.22,0,0,0,1.81.93,2.79,2.79,0,0,0,1.07-.2,13.7,13.7,0,0,0,1.29-.62l.9-.43a22.92,22.92,0,0,1,2.35-1,6.43,6.43,0,0,1,2.26-.39,3.74,3.74,0,0,1,2.62.88,3.23,3.23,0,0,1,.94,2.48,2.42,2.42,0,0,1-1.07,2.19,6.59,6.59,0,0,1-3.44.69H26.38a2.45,2.45,0,0,0-2,.9,3.53,3.53,0,0,0,0,4.3,2.45,2.45,0,0,0,2,.9H29a6.54,6.54,0,0,1,3.53.73A2.69,2.69,0,0,1,33.64,81a3,3,0,0,1-1,2.58,5.93,5.93,0,0,1-3.46.78A7.87,7.87,0,0,1,26.66,84a18.19,18.19,0,0,1-2.48-1l-.53-.24-.41-.19q-.82-.43-1.29-.63a2.85,2.85,0,0,0-1.08-.19,2.22,2.22,0,0,0-1.8.92,3.52,3.52,0,0,0-.73,2.26,3,3,0,0,0,1.33,2.67,13.89,13.89,0,0,0,4.47,2.17,19.16,19.16,0,0,0,5.38.75,16.16,16.16,0,0,0,6.08-1,9.07,9.07,0,0,0,4-3A7.48,7.48,0,0,0,41,81.84a7.65,7.65,0,0,0-1.44-4.69A7.33,7.33,0,0,0,35.62,74.49Zm12.86,17,9.76-30.66a4.94,4.94,0,0,0,.17-.94,2.52,2.52,0,0,0-.92-2,3.22,3.22,0,0,0-2.13-.78,2.83,2.83,0,0,0-2.75,2.07L42.85,89.8a2.72,2.72,0,0,0-.18,1,2.48,2.48,0,0,0,.91,2,3.11,3.11,0,0,0,2.1.78,3,3,0,0,0,1.7-.52A2.92,2.92,0,0,0,48.48,91.47ZM80.21,79h-.94V63.44a3.64,3.64,0,0,0-1.16-2.88,4.08,4.08,0,0,0-2.8-1A4.17,4.17,0,0,0,73.4,60a3.87,3.87,0,0,0-1.53,1.31L59.57,78.83a4.83,4.83,0,0,0-.94,2.84,3.29,3.29,0,0,0,.9,2.36A3.19,3.19,0,0,0,62,85h9.59v1.46a3.84,3.84,0,0,0,1.05,2.93,3.91,3.91,0,0,0,2.78,1,4,4,0,0,0,2.79-1,3.78,3.78,0,0,0,1.08-2.93V85h.94c2.5,0,3.74-1,3.74-3S82.71,79,80.21,79Zm-13.8,0,5.16-7.44V79Z"/><path d="M71.57,10.91V39.09A7.94,7.94,0,0,1,63.63,47H35.44a7.94,7.94,0,0,1-7.94-7.94V10.91A7.94,7.94,0,0,1,35.44,3H63.63A7.94,7.94,0,0,1,71.57,10.91ZM36.65,22.7H63.28a4.07,4.07,0,0,0,3-1.26,4.23,4.23,0,0,0,1.22-3.06,4.17,4.17,0,0,0-4.25-4.24H36.65a4.05,4.05,0,0,0-3,1.26,4.21,4.21,0,0,0-1.22,3.06,4.17,4.17,0,0,0,4.25,4.24Zm0,14.4H63.28a4.07,4.07,0,0,0,3-1.26,4.25,4.25,0,0,0,1.22-3.06,4.17,4.17,0,0,0-4.25-4.24H36.65a4.05,4.05,0,0,0-3,1.26,4.21,4.21,0,0,0-1.22,3.06,4.17,4.17,0,0,0,4.25,4.24Z"/></svg>