<svg id="Layer_1" data-name="Layer 1" xmlns="http://www.w3.org/2000/svg" viewBox="0 0 100 100"><title>l22_1_1</title><path d="M71.57,10.91V39.09A7.94,7.94,0,0,1,63.63,47H35.44a7.94,7.94,0,0,1-7.94-7.94V10.91A7.94,7.94,0,0,1,35.44,3H63.63A7.94,7.94,0,0,1,71.57,10.91ZM33.18,34.17a2.79,2.79,0,0,0,.93.94,2,2,0,0,0,1,.33,1.25,1.25,0,0,0,.91-.34,1.17,1.17,0,0,0,.36-.91,2.33,2.33,0,0,0-.16-.8,20.85,20.85,0,0,1-1.13-3.94,23.79,23.79,0,0,1-.35-4.18,24.43,24.43,0,0,1,.35-4.22,19.47,19.47,0,0,1,1.13-3.94,2.43,2.43,0,0,0,.16-.81,1.2,1.2,0,0,0-.36-.93,1.29,1.29,0,0,0-.91-.33,2,2,0,0,0-1,.33,2.92,2.92,0,0,0-.93,1,15.68,15.68,0,0,0-2.57,9A15.7,15.7,0,0,0,33.18,34.17Zm7.29-7.43H44.8a2.13,2.13,0,0,0,1.44-.42,1.54,1.54,0,0,0,.47-1.19A1.5,1.5,0,0,0,46.24,24a2.13,2.13,0,0,0-1.44-.42H40.47c-1.27,0-1.9.53-1.9,1.59S39.2,26.74,40.47,26.74ZM59.54,28H57.65V17.06a2,2,0,0,0-.56-1.5A2,2,0,0,0,55.61,15a3.81,3.81,0,0,0-1.91.58L50,17.73a1.55,1.55,0,0,0-.81,1.42,2,2,0,0,0,.46,1.26,1.41,1.41,0,0,0,1.11.56,1.6,1.6,0,0,0,.8-.23l1.84-1.08V28H51.56a2.34,2.34,0,0,0-1.52.41,1.58,1.58,0,0,0-.48,1.25c0,1.13.67,1.7,2,1.7h8c1.34,0,2-.57,2-1.7a1.58,1.58,0,0,0-.48-1.25A2.34,2.34,0,0,0,59.54,28Zm6.35,6.21a15.63,15.63,0,0,0,2.58-8.9,15.61,15.61,0,0,0-2.58-8.95,2.88,2.88,0,0,0-.93-.94,2.09,2.09,0,0,0-1-.32,1.29,1.29,0,0,0-.91.33,1.18,1.18,0,0,0-.35.91,2.2,2.2,0,0,0,.16.81,20.1,20.1,0,0,1,1.12,3.94,24.43,24.43,0,0,1,.35,4.22,23.79,23.79,0,0,1-.35,4.18,21.56,21.56,0,0,1-1.12,3.94,2.11,2.11,0,0,0-.16.8,1.16,1.16,0,0,0,.35.91,1.22,1.22,0,0,0,.89.34A2.05,2.05,0,0,0,65,35.11,2.79,2.79,0,0,0,65.89,34.17Z"/><path d="M99.61,61.93V90.11a7.94,7.94,0,0,1-7.94,7.94H63.48a7.94,7.94,0,0,1-7.94-7.94V61.93A7.94,7.94,0,0,1,63.48,54H91.67A7.94,7.94,0,0,1,99.61,61.93ZM61.22,85.19a2.7,2.7,0,0,0,.93.94,2,2,0,0,0,1.05.33,1.25,1.25,0,0,0,.91-.34,1.17,1.17,0,0,0,.36-.91,2.37,2.37,0,0,0-.16-.8,20.85,20.85,0,0,1-1.13-3.94,23.71,23.71,0,0,1-.35-4.18,24.43,24.43,0,0,1,.35-4.22,19.47,19.47,0,0,1,1.13-3.94,2.43,2.43,0,0,0,.16-.81,1.2,1.2,0,0,0-.36-.93,1.29,1.29,0,0,0-.91-.33,2,2,0,0,0-1.05.33,2.92,2.92,0,0,0-.93,1,16.78,16.78,0,0,0,0,17.85Zm7.29-7.43h4.33a2.13,2.13,0,0,0,1.44-.42,1.54,1.54,0,0,0,.47-1.19A1.5,1.5,0,0,0,74.28,75a2.13,2.13,0,0,0-1.44-.41H68.51c-1.27,0-1.9.52-1.9,1.58S67.24,77.76,68.51,77.76ZM87.58,79H85.69V68.08a2,2,0,0,0-.56-1.5A2,2,0,0,0,83.65,66a3.81,3.81,0,0,0-1.91.58l-3.68,2.14a1.55,1.55,0,0,0-.81,1.42,2,2,0,0,0,.46,1.26,1.41,1.41,0,0,0,1.11.56,1.6,1.6,0,0,0,.8-.23l1.84-1.08V79H79.6a2.28,2.28,0,0,0-1.52.42,1.54,1.54,0,0,0-.48,1.24c0,1.13.67,1.7,2,1.7h8c1.34,0,2-.57,2-1.7a1.54,1.54,0,0,0-.48-1.24A2.28,2.28,0,0,0,87.58,79Zm6.35,6.21a16.73,16.73,0,0,0,0-17.85A2.88,2.88,0,0,0,93,66.4a2.09,2.09,0,0,0-1-.32,1.29,1.29,0,0,0-.91.33,1.18,1.18,0,0,0-.35.91,2.2,2.2,0,0,0,.16.81A20.1,20.1,0,0,1,92,72.07a24.43,24.43,0,0,1,.35,4.22A23.71,23.71,0,0,1,92,80.47a21.56,21.56,0,0,1-1.12,3.94,2.15,2.15,0,0,0-.16.8,1.16,1.16,0,0,0,.35.91,1.22,1.22,0,0,0,.89.34A2.05,2.05,0,0,0,93,86.13,2.7,2.7,0,0,0,93.93,85.19Z"/><path d="M44.6,61.68V89.87a8,8,0,0,1-7.94,7.94H8.47A8,8,0,0,1,.53,89.87V61.68a8,8,0,0,1,7.94-7.94H36.66A8,8,0,0,1,44.6,61.68ZM5.21,85a2.91,2.91,0,0,0,.94.94,2,2,0,0,0,1,.32,1.29,1.29,0,0,0,.91-.33A1.18,1.18,0,0,0,8.46,85a2.33,2.33,0,0,0-.16-.8,21.71,21.71,0,0,1-1.13-4,23.59,23.59,0,0,1-.35-4.17,24.34,24.34,0,0,1,.35-4.22,20.43,20.43,0,0,1,1.13-4,2.33,2.33,0,0,0,.16-.8,1.2,1.2,0,0,0-.36-.93,1.25,1.25,0,0,0-.91-.34,1.94,1.94,0,0,0-1,.34,3,3,0,0,0-.94.95A16.78,16.78,0,0,0,5.21,85Zm7.3-7.43h4.32a2.08,2.08,0,0,0,1.44-.43,1.51,1.51,0,0,0,.47-1.18,1.47,1.47,0,0,0-.47-1.17,2.13,2.13,0,0,0-1.44-.42H12.51c-1.28,0-1.91.53-1.91,1.59S11.23,77.52,12.51,77.52Zm19.06,1.22H29.69V67.84a1.93,1.93,0,0,0-2.05-2,3.9,3.9,0,0,0-1.91.57L22.05,68.5a1.56,1.56,0,0,0-.8,1.43,1.9,1.9,0,0,0,.46,1.25,1.36,1.36,0,0,0,1.1.57,1.57,1.57,0,0,0,.8-.23l1.84-1.08v8.3H23.59a2.36,2.36,0,0,0-1.52.41,1.55,1.55,0,0,0-.48,1.24c0,1.14.67,1.71,2,1.71h8c1.34,0,2-.57,2-1.71a1.55,1.55,0,0,0-.48-1.24A2.34,2.34,0,0,0,31.57,78.74ZM37.92,85a16.73,16.73,0,0,0,0-17.85,2.79,2.79,0,0,0-.93-.94,2,2,0,0,0-1.05-.32,1.29,1.29,0,0,0-.91.33,1.2,1.2,0,0,0-.35.91,2.11,2.11,0,0,0,.16.8,20.43,20.43,0,0,1,1.13,4,25.4,25.4,0,0,1,.34,4.22A24.62,24.62,0,0,1,36,80.22a21.71,21.71,0,0,1-1.13,4,2.11,2.11,0,0,0-.16.8,1.21,1.21,0,0,0,.35.91,1.27,1.27,0,0,0,.89.33A2,2,0,0,0,37,85.89,2.79,2.79,0,0,0,37.92,85Z"/></svg>