<svg id="Layer_1" data-name="Layer 1" xmlns="http://www.w3.org/2000/svg" viewBox="0 0 100 100"><title>l22_4_1</title><path d="M88.34,61.68V89.87a8,8,0,0,1-7.94,7.94H21.47a8,8,0,0,1-7.94-7.94V61.68a8,8,0,0,1,7.94-7.94H80.4A8,8,0,0,1,88.34,61.68ZM39.28,83.82H35.75V63.44a3.75,3.75,0,0,0-1-2.8,3.79,3.79,0,0,0-2.78-1,7.32,7.32,0,0,0-3.56,1.07l-6.88,4A2.92,2.92,0,0,0,20,67.35a3.62,3.62,0,0,0,.86,2.34,2.56,2.56,0,0,0,2.06,1.06,3,3,0,0,0,1.51-.43l3.44-2V83.82H24.36a4.34,4.34,0,0,0-2.84.77,2.9,2.9,0,0,0-.9,2.32c0,2.13,1.24,3.19,3.74,3.19H39.28Q43,90.1,43,86.91a2.9,2.9,0,0,0-.9-2.32A4.36,4.36,0,0,0,39.28,83.82Zm9.2,7.65,9.76-30.66a4.94,4.94,0,0,0,.17-.94,2.52,2.52,0,0,0-.92-2,3.22,3.22,0,0,0-2.13-.78,2.86,2.86,0,0,0-1.66.52,2.91,2.91,0,0,0-1.09,1.55L42.85,89.8a2.7,2.7,0,0,0-.18,1,2.49,2.49,0,0,0,.91,2,3.11,3.11,0,0,0,2.1.78,3,3,0,0,0,1.7-.52A2.92,2.92,0,0,0,48.48,91.47Zm28-17a7,7,0,0,0,3.42-2.6,7.22,7.22,0,0,0,1.22-4.15,7.46,7.46,0,0,0-1.31-4.39A8.33,8.33,0,0,0,76,60.43a14.21,14.21,0,0,0-5.61-1,17.16,17.16,0,0,0-5.1.78A14.1,14.1,0,0,0,61,62.32a3.41,3.41,0,0,0-1,1.16,3.34,3.34,0,0,0-.3,1.5,3.5,3.5,0,0,0,.73,2.26,2.21,2.21,0,0,0,1.8.93,2.85,2.85,0,0,0,1.08-.2c.31-.13.74-.33,1.29-.62l.9-.43a23.83,23.83,0,0,1,2.34-1A6.51,6.51,0,0,1,70,65.5a3.72,3.72,0,0,1,2.63.88,3.21,3.21,0,0,1,.94,2.47,2.43,2.43,0,0,1-1.07,2.2,6.61,6.61,0,0,1-3.44.68h-1.9a2.47,2.47,0,0,0-2,.91,3.53,3.53,0,0,0,0,4.3,2.46,2.46,0,0,0,2,.9h2.67a6.57,6.57,0,0,1,3.53.73A2.72,2.72,0,0,1,74.45,81a3,3,0,0,1-1,2.58,5.94,5.94,0,0,1-3.46.77A8,8,0,0,1,67.46,84a20.11,20.11,0,0,1-2.47-1l-.54-.24-.41-.2c-.54-.28-1-.49-1.29-.62a2.76,2.76,0,0,0-1.07-.19,2.24,2.24,0,0,0-1.81.92,3.58,3.58,0,0,0-.73,2.26,3.37,3.37,0,0,0,.3,1.48,3.43,3.43,0,0,0,1,1.19A13.89,13.89,0,0,0,65,89.69a19.14,19.14,0,0,0,5.37.75,16.21,16.21,0,0,0,6.09-1,9.07,9.07,0,0,0,4-3,7.54,7.54,0,0,0,1.42-4.56,7.65,7.65,0,0,0-1.44-4.69A7.33,7.33,0,0,0,76.43,74.49Z"/><path d="M71.57,10.91V39.09A7.94,7.94,0,0,1,63.63,47H35.44a7.94,7.94,0,0,1-7.94-7.94V10.91A7.94,7.94,0,0,1,35.44,3H63.63A7.94,7.94,0,0,1,71.57,10.91ZM42.77,32H56.3a6.52,6.52,0,0,0,4.5-1.33A4.73,4.73,0,0,0,62.28,27a4.61,4.61,0,0,0-1.48-3.67A6.63,6.63,0,0,0,56.3,22H42.77q-6,0-6,5T42.77,32Z"/></svg>