<svg id="Layer_1" data-name="Layer 1" xmlns="http://www.w3.org/2000/svg" viewBox="0 0 100 100"><title>l22_1_1</title><path d="M99.61,61.93V90.11a7.94,7.94,0,0,1-7.94,7.94H63.48a7.94,7.94,0,0,1-7.94-7.94V61.93A7.94,7.94,0,0,1,63.48,54H91.67A7.94,7.94,0,0,1,99.61,61.93ZM65.22,80.1h5.9a2.85,2.85,0,0,0,2-.58,2.11,2.11,0,0,0,.64-1.62,2,2,0,0,0-.64-1.59,2.9,2.9,0,0,0-2-.57h-5.9c-1.73,0-2.6.72-2.6,2.16S63.49,80.1,65.22,80.1Zm26,1.66H88.64V66.9a2.72,2.72,0,0,0-.76-2,2.8,2.8,0,0,0-2-.75,5.33,5.33,0,0,0-2.6.78l-5,2.92a2.12,2.12,0,0,0-1.09,1.94,2.67,2.67,0,0,0,.62,1.71,1.9,1.9,0,0,0,1.51.77,2.15,2.15,0,0,0,1.1-.32l2.51-1.47V81.76H80.34a3.08,3.08,0,0,0-2.07.57A2.09,2.09,0,0,0,77.61,84c0,1.55.91,2.32,2.73,2.32H91.22c1.82,0,2.72-.77,2.72-2.32a2.12,2.12,0,0,0-.65-1.69A3.12,3.12,0,0,0,91.22,81.76Z"/><path d="M44.6,61.68V89.87a8,8,0,0,1-7.94,7.94H8.47A8,8,0,0,1,.53,89.87V61.68a8,8,0,0,1,7.94-7.94H36.66A8,8,0,0,1,44.6,61.68ZM9.21,79.86h5.9a2.89,2.89,0,0,0,2-.58,2.07,2.07,0,0,0,.64-1.62,2,2,0,0,0-.64-1.6,2.94,2.94,0,0,0-2-.56H9.21c-1.73,0-2.6.72-2.6,2.16S7.48,79.86,9.21,79.86Zm26,1.66H32.64V66.66a2.73,2.73,0,0,0-.77-2,2.78,2.78,0,0,0-2-.76,5.35,5.35,0,0,0-2.61.79l-5,2.91a2.12,2.12,0,0,0-1.1,2,2.64,2.64,0,0,0,.63,1.71,1.88,1.88,0,0,0,1.5.77,2.15,2.15,0,0,0,1.1-.32l2.51-1.47V81.52H24.33a3.18,3.18,0,0,0-2.07.56,2.11,2.11,0,0,0-.66,1.7c0,1.54.91,2.32,2.73,2.32H35.21c1.82,0,2.73-.78,2.73-2.32a2.11,2.11,0,0,0-.66-1.7A3.18,3.18,0,0,0,35.21,81.52Z"/><path d="M71.57,10.91V39.09A7.94,7.94,0,0,1,63.63,47H35.44a7.94,7.94,0,0,1-7.94-7.94V10.91A7.94,7.94,0,0,1,35.44,3H63.63A7.94,7.94,0,0,1,71.57,10.91ZM37.18,29.08h5.9a2.85,2.85,0,0,0,2-.58,2.11,2.11,0,0,0,.64-1.62A2,2,0,0,0,45,25.29a2.9,2.9,0,0,0-2-.57h-5.9c-1.73,0-2.6.72-2.6,2.16S35.45,29.08,37.18,29.08Zm26,1.66H60.6V15.88a2.72,2.72,0,0,0-.76-2,2.8,2.8,0,0,0-2-.75,5.33,5.33,0,0,0-2.6.78l-5,2.92a2.12,2.12,0,0,0-1.09,1.94,2.67,2.67,0,0,0,.62,1.71,1.9,1.9,0,0,0,1.51.77,2.15,2.15,0,0,0,1.1-.32l2.51-1.47V30.74H52.3a3.08,3.08,0,0,0-2.07.57A2.09,2.09,0,0,0,49.57,33c0,1.55.91,2.32,2.73,2.32H63.18c1.82,0,2.72-.77,2.72-2.32a2.12,2.12,0,0,0-.65-1.69A3.12,3.12,0,0,0,63.18,30.74Z"/></svg>