<svg id="Layer_1" data-name="Layer 1" xmlns="http://www.w3.org/2000/svg" viewBox="0 0 100 100"><title>l22_4_1</title><path d="M99.61,61.93V90.11a7.94,7.94,0,0,1-7.94,7.94H63.48a7.94,7.94,0,0,1-7.94-7.94V61.93A7.94,7.94,0,0,1,63.48,54H91.67A7.94,7.94,0,0,1,99.61,61.93ZM86.69,83.86H83.17V63.48a3.6,3.6,0,0,0-3.83-3.83,7.24,7.24,0,0,0-3.57,1.08l-6.88,4a2.93,2.93,0,0,0-1.51,2.67,3.62,3.62,0,0,0,.86,2.34,2.58,2.58,0,0,0,2.07,1.06,3,3,0,0,0,1.5-.43l3.44-2V83.86H71.77a4.34,4.34,0,0,0-2.84.77A2.91,2.91,0,0,0,68,87q0,3.18,3.74,3.18H86.69q3.74,0,3.74-3.18a2.91,2.91,0,0,0-.9-2.33A4.34,4.34,0,0,0,86.69,83.86Z"/><path d="M44.6,61.68V89.87a8,8,0,0,1-7.94,7.94H8.47A8,8,0,0,1,.53,89.87V61.68a8,8,0,0,1,7.94-7.94H36.66A8,8,0,0,1,44.6,61.68ZM30.68,83.82H27.16V63.44a3.6,3.6,0,0,0-3.83-3.83,7.32,7.32,0,0,0-3.57,1.07l-6.88,4a2.94,2.94,0,0,0-1.51,2.67,3.58,3.58,0,0,0,.87,2.34,2.56,2.56,0,0,0,2.06,1.06,3,3,0,0,0,1.5-.43l3.44-2V83.82H15.76a4.36,4.36,0,0,0-2.84.77,2.9,2.9,0,0,0-.9,2.32q0,3.2,3.74,3.19H30.68c2.5,0,3.74-1.06,3.74-3.19a2.9,2.9,0,0,0-.9-2.32A4.34,4.34,0,0,0,30.68,83.82Z"/><path d="M71.57,10.91V39.09A7.94,7.94,0,0,1,63.63,47H35.44a7.94,7.94,0,0,1-7.94-7.94V10.91A7.94,7.94,0,0,1,35.44,3H63.63A7.94,7.94,0,0,1,71.57,10.91ZM36.65,22.7H63.29a4,4,0,0,0,3-1.26,4.21,4.21,0,0,0,1.22-3.06,4.17,4.17,0,0,0-4.24-4.24H36.65a4.07,4.07,0,0,0-3,1.26,4.24,4.24,0,0,0-1.22,3,4.17,4.17,0,0,0,4.25,4.25Zm0,14.4H63.29a4,4,0,0,0,3-1.26,4.21,4.21,0,0,0,1.22-3.06,4.18,4.18,0,0,0-4.24-4.25H36.65a4.11,4.11,0,0,0-3,1.26,4.29,4.29,0,0,0-1.22,3.07,4.17,4.17,0,0,0,4.25,4.24Z"/></svg>