<svg id="Layer_1" data-name="Layer 1" xmlns="http://www.w3.org/2000/svg" viewBox="0 0 100 100"><title>l22_5_1</title><path d="M84.75,61.68V89.87a8,8,0,0,1-7.94,7.94H24.39a8,8,0,0,1-7.94-7.94V61.68a8,8,0,0,1,7.94-7.94H76.81A8,8,0,0,1,84.75,61.68ZM40.06,84.26H36.78v-19a3.44,3.44,0,0,0-1-2.6,3.52,3.52,0,0,0-2.58-1,6.75,6.75,0,0,0-3.32,1l-6.4,3.72a2.72,2.72,0,0,0-1.4,2.48,3.39,3.39,0,0,0,.8,2.18,2.43,2.43,0,0,0,1.92,1,2.78,2.78,0,0,0,1.4-.4l3.2-1.88V84.26H26.18a4,4,0,0,0-2.64.72,2.69,2.69,0,0,0-.84,2.16q0,3,3.48,3H40.06q3.48,0,3.48-3A2.69,2.69,0,0,0,42.7,85,4,4,0,0,0,40.06,84.26Zm8.56,7.12L57.7,62.86a4.21,4.21,0,0,0,.16-.88A2.31,2.31,0,0,0,57,60.1a3,3,0,0,0-2-.72,2.67,2.67,0,0,0-1.54.48,2.79,2.79,0,0,0-1,1.44L43.38,89.82a2.82,2.82,0,0,0-.16.92,2.32,2.32,0,0,0,.84,1.84,2.93,2.93,0,0,0,2,.72,2.64,2.64,0,0,0,2.6-1.92ZM71.5,71.66a10,10,0,0,0-4,.72V67.46h8.64c2.32,0,3.48-.94,3.48-2.8S78.5,61.9,76.18,61.9H63.78a3.41,3.41,0,0,0-2.52.88,3.48,3.48,0,0,0-.88,2.56V76.18a2.21,2.21,0,0,0,.76,1.74,2.78,2.78,0,0,0,1.88.66,3.86,3.86,0,0,0,1.8-.44,13.63,13.63,0,0,1,2.3-.72,10.5,10.5,0,0,1,2.18-.2,4.48,4.48,0,0,1,3.12,1A3.54,3.54,0,0,1,73.54,81a3.47,3.47,0,0,1-1.08,2.82,5.1,5.1,0,0,1-3.32.9,6.63,6.63,0,0,1-2.22-.36,22.61,22.61,0,0,1-2.26-1l-.8-.4a9.29,9.29,0,0,0-1.2-.6,2.62,2.62,0,0,0-1-.16,2.07,2.07,0,0,0-1.68.86,3.29,3.29,0,0,0-.68,2.1,3,3,0,0,0,.3,1.38,3.76,3.76,0,0,0,.94,1.1,13.39,13.39,0,0,0,4.1,2,16.73,16.73,0,0,0,4.86.72,13,13,0,0,0,5.72-1.2,9,9,0,0,0,3.84-3.4,9.44,9.44,0,0,0,1.36-5.08A9.61,9.61,0,0,0,79.28,76a8,8,0,0,0-3.16-3.2A9.2,9.2,0,0,0,71.5,71.66Z"/><path d="M71.57,10.91V39.09A7.94,7.94,0,0,1,63.63,47H35.44a7.94,7.94,0,0,1-7.94-7.94V10.91A7.94,7.94,0,0,1,35.44,3H63.63A7.94,7.94,0,0,1,71.57,10.91ZM49.43,37.62a13.67,13.67,0,0,0,5.25-.93A8,8,0,0,0,58.2,34a6.54,6.54,0,0,0,1.26-4A6.06,6.06,0,0,0,58.68,27,6.63,6.63,0,0,0,56,24.62a20.43,20.43,0,0,0-5.14-1.72,20.31,20.31,0,0,1-3-.8,3.84,3.84,0,0,1-1.4-.79,1.52,1.52,0,0,1-.37-1.06,2,2,0,0,1,1-1.75,5.19,5.19,0,0,1,2.79-.66,10,10,0,0,1,2.33.25,8,8,0,0,1,1.87.68l1,.53a5.65,5.65,0,0,0,1,.53,2.67,2.67,0,0,0,.82.11,1.76,1.76,0,0,0,1.41-.74A2.74,2.74,0,0,0,59,17.43a2.61,2.61,0,0,0-.25-1.21,2.69,2.69,0,0,0-.87-.93,11,11,0,0,0-3.53-1.7A16.15,16.15,0,0,0,49.91,13a12.4,12.4,0,0,0-5.09,1,8.55,8.55,0,0,0-3.55,2.77A6.53,6.53,0,0,0,40,20.76,6.48,6.48,0,0,0,40.74,24a6.3,6.3,0,0,0,2.67,2.33A22,22,0,0,0,48.68,28a13.64,13.64,0,0,1,3.69,1.1,1.59,1.59,0,0,1,1,1.35,1.91,1.91,0,0,1-1,1.75,6.29,6.29,0,0,1-3,.59,12.82,12.82,0,0,1-3.11-.34,11.26,11.26,0,0,1-2.77-1.12,5.31,5.31,0,0,0-1-.51,2.7,2.7,0,0,0-.85-.14,1.8,1.8,0,0,0-1.43.75,2.7,2.7,0,0,0-.61,1.77,2.54,2.54,0,0,0,.25,1.22,2.85,2.85,0,0,0,.84.92A11.64,11.64,0,0,0,44.38,37,20.22,20.22,0,0,0,49.43,37.62Z"/></svg>