<svg id="Layer_1" data-name="Layer 1" xmlns="http://www.w3.org/2000/svg" viewBox="0 0 100 100"><title>l22_5_1</title><path d="M84.75,61.68V89.87a8,8,0,0,1-7.94,7.94H24.39a8,8,0,0,1-7.94-7.94V61.68a8,8,0,0,1,7.94-7.94H76.81A8,8,0,0,1,84.75,61.68ZM33.1,90.46a9.34,9.34,0,0,0,8-3.72Q43.86,83,43.86,76T41.08,65.26a9.35,9.35,0,0,0-8-3.72,9.35,9.35,0,0,0-8,3.72Q22.34,69,22.34,76T25.1,86.74A9.35,9.35,0,0,0,33.1,90.46Zm0-5.56a2.87,2.87,0,0,1-2.76-2.08A19.94,19.94,0,0,1,29.5,76a19.69,19.69,0,0,1,.84-6.82,2.88,2.88,0,0,1,5.52,0A19.71,19.71,0,0,1,36.7,76a19.94,19.94,0,0,1-.84,6.84A2.87,2.87,0,0,1,33.1,84.9Zm17.44,5.44a3.69,3.69,0,0,0,2.74-1.12,4,4,0,0,0,0-5.52,3.66,3.66,0,0,0-2.74-1.12,3.73,3.73,0,0,0-2.78,1.12,3.88,3.88,0,0,0,2.78,6.64Zm24.88-6.08h-8l5.68-5.8A18.71,18.71,0,0,0,76.4,74a10,10,0,0,0,1-4.46,7.26,7.26,0,0,0-1.22-4.18,7.69,7.69,0,0,0-3.46-2.8,12.73,12.73,0,0,0-5.2-1,15.65,15.65,0,0,0-4.62.72,15.49,15.49,0,0,0-4.22,2,2.65,2.65,0,0,0-1,1,3.86,3.86,0,0,0,.42,3.58,2.06,2.06,0,0,0,1.68.9,2.37,2.37,0,0,0,.76-.12,4.81,4.81,0,0,0,.82-.38c.31-.18.52-.29.62-.34l.8-.4a18.43,18.43,0,0,1,2.26-1,6.45,6.45,0,0,1,2.14-.34,3.15,3.15,0,0,1,2.22.72A2.69,2.69,0,0,1,70.18,70c0,1.54-.88,3.24-2.64,5.08l-8.48,8.84a4.4,4.4,0,0,0-1.36,3.12,3,3,0,0,0,.84,2.18,3.05,3.05,0,0,0,2.28.86h14.6A4,4,0,0,0,78,89.38a2.74,2.74,0,0,0,.86-2.24A2.61,2.61,0,0,0,78,85,4.06,4.06,0,0,0,75.42,84.26Z"/><path d="M71.57,10.91V39.09A7.94,7.94,0,0,1,63.63,47H35.44a7.94,7.94,0,0,1-7.94-7.94V10.91A7.94,7.94,0,0,1,35.44,3H63.63A7.94,7.94,0,0,1,71.57,10.91Zm-9.44,21L44.31,25,62.13,18.2a3,3,0,0,0,2-2.94,3.69,3.69,0,0,0-1.05-2.73,3.62,3.62,0,0,0-2.67-1,5.64,5.64,0,0,0-1.86.36l-20,7.74a5.94,5.94,0,0,0-2.73,2.19,5.73,5.73,0,0,0-1,3.27,5.78,5.78,0,0,0,1,3.36,5.65,5.65,0,0,0,2.73,2.1l20,7.74a5.64,5.64,0,0,0,1.86.36,3.62,3.62,0,0,0,2.67-1.05,3.69,3.69,0,0,0,1.05-2.73,3,3,0,0,0-.54-1.77A3.55,3.55,0,0,0,62.13,31.88Z"/></svg>