<svg id="Layer_1" data-name="Layer 1" xmlns="http://www.w3.org/2000/svg" viewBox="0 0 100 100"><title>l22_3_1</title><path d="M99.61,61.93V90.11a7.94,7.94,0,0,1-7.94,7.94H63.48a7.94,7.94,0,0,1-7.94-7.94V61.93A7.94,7.94,0,0,1,63.48,54H91.67A7.94,7.94,0,0,1,99.61,61.93ZM85.55,83.86H76.91L83,77.62a19.89,19.89,0,0,0,3.59-4.83A10.76,10.76,0,0,0,87.66,68a7.9,7.9,0,0,0-1.31-4.49,8.47,8.47,0,0,0-3.72-3A13.9,13.9,0,0,0,77,59.44a17.48,17.48,0,0,0-9.51,2.92,2.89,2.89,0,0,0-1,1.12A3.64,3.64,0,0,0,66.2,65a3.72,3.72,0,0,0,.73,2.3,2.2,2.2,0,0,0,1.81,1,2.41,2.41,0,0,0,.81-.13,5.06,5.06,0,0,0,.89-.4c.32-.19.55-.31.66-.37L72,67a20.25,20.25,0,0,1,2.43-1,6.81,6.81,0,0,1,2.3-.37,3.39,3.39,0,0,1,2.39.78,2.87,2.87,0,0,1,.84,2.23q0,2.49-2.84,5.46L68,83.52a4.72,4.72,0,0,0-1.46,3.35,3.2,3.2,0,0,0,.9,2.34,3.28,3.28,0,0,0,2.46.93H85.55a4.31,4.31,0,0,0,2.82-.78,3,3,0,0,0,.92-2.4,2.87,2.87,0,0,0-.92-2.35A4.44,4.44,0,0,0,85.55,83.86Z"/><path d="M44.6,61.68V89.87a8,8,0,0,1-7.94,7.94H8.47A8,8,0,0,1,.53,89.87V61.68a8,8,0,0,1,7.94-7.94H36.66A8,8,0,0,1,44.6,61.68ZM29.54,83.82H20.9L27,77.58a20,20,0,0,0,3.58-4.83A10.76,10.76,0,0,0,31.65,68a7.9,7.9,0,0,0-1.31-4.49,8.4,8.4,0,0,0-3.72-3A13.9,13.9,0,0,0,21,59.39a16.71,16.71,0,0,0-5,.78,16.53,16.53,0,0,0-4.54,2.15,2.83,2.83,0,0,0-1,1.12A3.59,3.59,0,0,0,10.19,65a3.68,3.68,0,0,0,.73,2.3,2.19,2.19,0,0,0,1.81,1,2.51,2.51,0,0,0,.82-.13,4.74,4.74,0,0,0,.88-.41l.66-.36.86-.43a20.25,20.25,0,0,1,2.43-1,6.85,6.85,0,0,1,2.3-.37,3.42,3.42,0,0,1,2.39.77,2.91,2.91,0,0,1,.84,2.24q0,2.49-2.84,5.46L12,83.47a4.75,4.75,0,0,0-1.46,3.36,3.18,3.18,0,0,0,.91,2.34,3.24,3.24,0,0,0,2.45.93H29.54a4.31,4.31,0,0,0,2.82-.78,3,3,0,0,0,.92-2.41,2.85,2.85,0,0,0-.92-2.34A4.44,4.44,0,0,0,29.54,83.82Z"/><path d="M71.57,10.91V39.09A7.94,7.94,0,0,1,63.63,47H35.44a7.94,7.94,0,0,1-7.94-7.94V10.91A7.94,7.94,0,0,1,35.44,3H63.63A7.94,7.94,0,0,1,71.57,10.91ZM62.85,21.33H53.78V12.26a4.25,4.25,0,1,0-8.49,0v9.07H36.22A4.18,4.18,0,0,0,32,25.58a4.21,4.21,0,0,0,1.22,3.06,4.05,4.05,0,0,0,3,1.26h9.07v9a4.3,4.3,0,0,0,7.3,3,4.16,4.16,0,0,0,1.19-3v-9h9.07a4.07,4.07,0,0,0,3-1.26,4.25,4.25,0,0,0,1.22-3.06,4.18,4.18,0,0,0-4.25-4.25Z"/></svg>