<svg id="Layer_1" data-name="Layer 1" xmlns="http://www.w3.org/2000/svg" viewBox="0 0 100 100"><title>l22_3_1</title><path d="M99.61,61.93V90.11a7.94,7.94,0,0,1-7.94,7.94H63.48a7.94,7.94,0,0,1-7.94-7.94V61.93A7.94,7.94,0,0,1,63.48,54H91.67A7.94,7.94,0,0,1,99.61,61.93ZM86.26,59.82H69.41a4.22,4.22,0,0,0-2.84.8,3,3,0,0,0-.9,2.38,2.93,2.93,0,0,0,.88,2.33,4.31,4.31,0,0,0,2.86.77H80.16L69.1,85A4.06,4.06,0,0,0,68.5,87a3.15,3.15,0,0,0,1.16,2.47,3.94,3.94,0,0,0,2.67,1A3.7,3.7,0,0,0,74.16,90a4,4,0,0,0,1.48-1.53l13-22.57a5.54,5.54,0,0,0,.82-2.84,3.33,3.33,0,0,0-.84-2.34A3.06,3.06,0,0,0,86.26,59.82Z"/><path d="M44.6,61.68V89.87a8,8,0,0,1-7.94,7.94H8.47A8,8,0,0,1,.53,89.87V61.68a8,8,0,0,1,7.94-7.94H36.66A8,8,0,0,1,44.6,61.68Zm-14.35-1.9H13.4a4.22,4.22,0,0,0-2.84.8A3,3,0,0,0,9.66,63a2.93,2.93,0,0,0,.88,2.33,4.33,4.33,0,0,0,2.86.77H24.15l-11,18.88A4,4,0,0,0,12.49,87a3.13,3.13,0,0,0,1.17,2.47,3.9,3.9,0,0,0,2.66,1A3.7,3.7,0,0,0,18.15,90a4,4,0,0,0,1.48-1.53l13-22.57a5.47,5.47,0,0,0,.82-2.84,3.33,3.33,0,0,0-.84-2.34A3,3,0,0,0,30.25,59.78Z"/><path d="M71.57,10.91V39.09A7.94,7.94,0,0,1,63.63,47H35.44a7.94,7.94,0,0,1-7.94-7.94V10.91A7.94,7.94,0,0,1,35.44,3H63.63A7.94,7.94,0,0,1,71.57,10.91ZM42.77,32H56.3a6.52,6.52,0,0,0,4.5-1.33A4.72,4.72,0,0,0,62.28,27a4.61,4.61,0,0,0-1.48-3.67A6.68,6.68,0,0,0,56.3,22H42.77q-6,0-6,5T42.77,32Z"/></svg>