<svg id="Layer_1" data-name="Layer 1" xmlns="http://www.w3.org/2000/svg" viewBox="0 0 100 100"><title>l22_1_1</title><path d="M99.65,61.35V89.53a7.93,7.93,0,0,1-7.94,7.94H63.52a7.94,7.94,0,0,1-7.94-7.94V61.35a7.94,7.94,0,0,1,7.94-7.94H91.71A7.93,7.93,0,0,1,99.65,61.35ZM65.25,79.52h5.89a2.83,2.83,0,0,0,2-.58,2.05,2.05,0,0,0,.64-1.61,2,2,0,0,0-.64-1.6,2.89,2.89,0,0,0-2-.57H65.25c-1.74,0-2.61.72-2.61,2.17S63.51,79.52,65.25,79.52Zm25.18,1.66H84.12l4.46-4.54a14.84,14.84,0,0,0,2.61-3.53,7.81,7.81,0,0,0,.77-3.5A5.84,5.84,0,0,0,91,66.33a6.09,6.09,0,0,0-2.72-2.19,10.12,10.12,0,0,0-4.07-.77,12.14,12.14,0,0,0-3.62.57,11.88,11.88,0,0,0-3.31,1.56,2.11,2.11,0,0,0-.77.82,2.63,2.63,0,0,0-.2,1.13,2.68,2.68,0,0,0,.53,1.68,1.58,1.58,0,0,0,1.32.7,2,2,0,0,0,.59-.09,3.93,3.93,0,0,0,.64-.3l.49-.27.63-.31a14.9,14.9,0,0,1,1.77-.77A5,5,0,0,1,84,67.82a2.47,2.47,0,0,1,1.74.57A2.13,2.13,0,0,1,86.32,70a6.1,6.1,0,0,1-2.07,4L77.6,80.93a3.43,3.43,0,0,0-1.06,2.45A2.27,2.27,0,0,0,79,85.76H90.43a3.17,3.17,0,0,0,2-.56,2.16,2.16,0,0,0,.67-1.76,2.08,2.08,0,0,0-.67-1.71A3.24,3.24,0,0,0,90.43,81.18Z"/><path d="M44.64,61.1V89.29a7.93,7.93,0,0,1-7.94,7.94H8.52A7.94,7.94,0,0,1,.57,89.29V61.1a8,8,0,0,1,8-7.94H36.7A7.94,7.94,0,0,1,44.64,61.1ZM9.24,79.28h5.89a2.89,2.89,0,0,0,2-.58,2.08,2.08,0,0,0,.65-1.62,2,2,0,0,0-.65-1.6,2.94,2.94,0,0,0-2-.56H9.24c-1.74,0-2.6.72-2.6,2.16S7.5,79.28,9.24,79.28Zm25.18,1.66H28.11l4.46-4.55a15,15,0,0,0,2.62-3.52,8,8,0,0,0,.76-3.5,5.72,5.72,0,0,0-1-3.28,6.11,6.11,0,0,0-2.71-2.19,10,10,0,0,0-4.08-.77,12.45,12.45,0,0,0-3.62.56,12.18,12.18,0,0,0-3.31,1.57,2,2,0,0,0-.77.82,2.61,2.61,0,0,0-.2,1.12,2.68,2.68,0,0,0,.53,1.68,1.61,1.61,0,0,0,1.32.71,1.66,1.66,0,0,0,.59-.1,4.25,4.25,0,0,0,.65-.29l.48-.27.63-.31a14.9,14.9,0,0,1,1.77-.77A5,5,0,0,1,28,67.58a2.47,2.47,0,0,1,1.74.57,2.09,2.09,0,0,1,.61,1.63,6.1,6.1,0,0,1-2.07,4l-6.65,6.93a3.43,3.43,0,0,0-1.06,2.44A2.28,2.28,0,0,0,23,85.52H34.42a3.12,3.12,0,0,0,2-.57,2.15,2.15,0,0,0,.68-1.75,2.06,2.06,0,0,0-.68-1.71A3.18,3.18,0,0,0,34.42,80.94Z"/><path d="M71.61,10.33V38.51a7.93,7.93,0,0,1-7.94,7.94H35.48a7.94,7.94,0,0,1-7.94-7.94V10.33a7.94,7.94,0,0,1,7.94-7.94H63.67A7.93,7.93,0,0,1,71.61,10.33ZM37.21,28.5H43.1a2.83,2.83,0,0,0,2-.58,2.06,2.06,0,0,0,.64-1.62,2,2,0,0,0-.64-1.59,2.89,2.89,0,0,0-2-.57H37.21q-2.61,0-2.61,2.16C34.6,27.77,35.47,28.5,37.21,28.5Zm25.18,1.66H56.08l4.46-4.54a14.84,14.84,0,0,0,2.61-3.53,7.81,7.81,0,0,0,.77-3.5,5.84,5.84,0,0,0-1-3.28,6.09,6.09,0,0,0-2.72-2.19,10.12,10.12,0,0,0-4.07-.77,12.45,12.45,0,0,0-3.62.56,12.18,12.18,0,0,0-3.31,1.57,2.11,2.11,0,0,0-.77.82,2.63,2.63,0,0,0-.2,1.13,2.7,2.7,0,0,0,.53,1.68,1.58,1.58,0,0,0,1.32.7,2,2,0,0,0,.59-.09,5,5,0,0,0,.64-.3l.49-.27.63-.31a14.9,14.9,0,0,1,1.77-.77,5,5,0,0,1,1.68-.27,2.47,2.47,0,0,1,1.74.57A2.13,2.13,0,0,1,58.28,19a6.1,6.1,0,0,1-2.07,4l-6.65,6.93a3.43,3.43,0,0,0-1.06,2.45,2.27,2.27,0,0,0,2.44,2.38H62.39a3.17,3.17,0,0,0,2-.56,2.18,2.18,0,0,0,.67-1.76,2.08,2.08,0,0,0-.67-1.71A3.24,3.24,0,0,0,62.39,30.16Z"/></svg>