<svg id="Layer_1" data-name="Layer 1" xmlns="http://www.w3.org/2000/svg" viewBox="0 0 100 100"><title>l22_1_1</title><path d="M99.61,61.68V89.87a8,8,0,0,1-7.94,7.94H63.48a8,8,0,0,1-7.94-7.94V61.68a8,8,0,0,1,7.94-7.94H91.67A8,8,0,0,1,99.61,61.68ZM74,75.21H70V71.26A1.86,1.86,0,0,0,66.85,70a1.75,1.75,0,0,0-.53,1.31v3.95H62.37a1.78,1.78,0,0,0-1.32.54,1.75,1.75,0,0,0-.53,1.31,1.83,1.83,0,0,0,.53,1.34,1.79,1.79,0,0,0,1.32.55h3.95v3.92a1.75,1.75,0,0,0,.53,1.31,1.8,1.8,0,0,0,1.32.54,1.76,1.76,0,0,0,1.33-.54A1.78,1.78,0,0,0,70,82.87V79h4a1.8,1.8,0,0,0,1.32-.55,1.87,1.87,0,0,0,.53-1.34A1.83,1.83,0,0,0,74,75.21ZM93.32,64H81a3.06,3.06,0,0,0-2.07.58,2.23,2.23,0,0,0-.65,1.74A2.12,2.12,0,0,0,78.94,68a3.1,3.1,0,0,0,2.08.57h7.84L80.8,82.33a3,3,0,0,0-.43,1.51,2.3,2.3,0,0,0,.84,1.8,2.89,2.89,0,0,0,2,.74A2.69,2.69,0,0,0,84.49,86a2.85,2.85,0,0,0,1.08-1.12l9.5-16.46a4,4,0,0,0,.6-2.07,2.48,2.48,0,0,0-.61-1.71A2.23,2.23,0,0,0,93.32,64Z"/><path d="M44.6,61.68V89.87a8,8,0,0,1-7.94,7.94H8.47A8,8,0,0,1,.53,89.87V61.68a8,8,0,0,1,7.94-7.94H36.66A8,8,0,0,1,44.6,61.68ZM18,75.22H14v-4A1.86,1.86,0,0,0,10.84,70a1.79,1.79,0,0,0-.53,1.31v4H6.36A1.77,1.77,0,0,0,5,75.75a1.79,1.79,0,0,0-.53,1.32A1.87,1.87,0,0,0,5,78.4,1.79,1.79,0,0,0,6.36,79h4v3.92a1.83,1.83,0,0,0,1.85,1.85,1.76,1.76,0,0,0,1.33-.54A1.78,1.78,0,0,0,14,82.87V79h4a1.8,1.8,0,0,0,1.32-.55,1.87,1.87,0,0,0,.53-1.33A1.81,1.81,0,0,0,18,75.22ZM37.31,64H25a3,3,0,0,0-2.07.58,2.2,2.2,0,0,0-.66,1.74A2.12,2.12,0,0,0,22.93,68a3.11,3.11,0,0,0,2.09.57h7.84L24.8,82.33a2.94,2.94,0,0,0-.44,1.51,2.3,2.3,0,0,0,.84,1.8,2.91,2.91,0,0,0,1.95.74A2.69,2.69,0,0,0,28.48,86a2.85,2.85,0,0,0,1.08-1.12l9.5-16.46a4,4,0,0,0,.6-2.07,2.44,2.44,0,0,0-.61-1.71A2.23,2.23,0,0,0,37.31,64Z"/><path d="M71.57,10.91V39.09A7.94,7.94,0,0,1,63.63,47H35.44a7.94,7.94,0,0,1-7.94-7.94V10.91A7.94,7.94,0,0,1,35.44,3H63.63A7.94,7.94,0,0,1,71.57,10.91ZM45.93,24.44H42v-4a1.87,1.87,0,0,0-3.17-1.32,1.77,1.77,0,0,0-.53,1.32v4h-4A1.87,1.87,0,0,0,33,27.62a1.74,1.74,0,0,0,1.32.55h4v3.92a1.79,1.79,0,0,0,.53,1.32,1.83,1.83,0,0,0,1.32.53,1.79,1.79,0,0,0,1.33-.53A1.82,1.82,0,0,0,42,32.09V28.17h4a1.77,1.77,0,0,0,1.32-.55,1.85,1.85,0,0,0,.53-1.33,1.81,1.81,0,0,0-1.85-1.85ZM65.28,13.21H53a3.12,3.12,0,0,0-2.07.58,2.23,2.23,0,0,0-.65,1.74,2.15,2.15,0,0,0,.64,1.7,3.16,3.16,0,0,0,2.08.56h7.84L52.76,31.56a3,3,0,0,0-.43,1.5,2.3,2.3,0,0,0,.84,1.8,2.85,2.85,0,0,0,1.95.74,2.69,2.69,0,0,0,1.33-.36,2.89,2.89,0,0,0,1.08-1.11L67,17.66a3.93,3.93,0,0,0,.6-2.06A2.47,2.47,0,0,0,67,13.89,2.24,2.24,0,0,0,65.28,13.21Z"/></svg>