<svg id="Layer_1" data-name="Layer 1" xmlns="http://www.w3.org/2000/svg" viewBox="0 0 100 100"><title>l22_2_1</title><path d="M99.61,61.93V90.11a7.94,7.94,0,0,1-7.94,7.94H63.48a7.94,7.94,0,0,1-7.94-7.94V61.93A7.94,7.94,0,0,1,63.48,54H91.67A7.94,7.94,0,0,1,99.61,61.93ZM62.25,79H74.09a1.77,1.77,0,0,0,1.34-.56A1.88,1.88,0,0,0,76,77.12a1.86,1.86,0,0,0-1.89-1.88H62.25a1.79,1.79,0,0,0-1.35.56,1.87,1.87,0,0,0-.54,1.36,1.82,1.82,0,0,0,.54,1.34A1.85,1.85,0,0,0,62.25,79ZM68,73a1.93,1.93,0,0,0,1.45-.61,2,2,0,0,0,.6-1.47,2,2,0,0,0-.6-1.44,2,2,0,0,0-2.89,0A2,2,0,0,0,66,71a2.05,2.05,0,0,0,.58,1.47A1.87,1.87,0,0,0,68,73Zm0,12.35a1.93,1.93,0,0,0,1.45-.61,2,2,0,0,0,.6-1.44,2,2,0,0,0-.6-1.47A1.93,1.93,0,0,0,68,81.25a1.87,1.87,0,0,0-1.44.61A2.05,2.05,0,0,0,66,83.33a2,2,0,0,0,.58,1.46A1.93,1.93,0,0,0,68,85.38Zm25.63-21.6H81.09a3.18,3.18,0,0,0-2.11.59,2.28,2.28,0,0,0-.67,1.78A2.18,2.18,0,0,0,79,67.88a3.2,3.2,0,0,0,2.12.57h8l-8.22,14A3,3,0,0,0,80.42,84a2.36,2.36,0,0,0,.87,1.84,2.91,2.91,0,0,0,2,.75,2.81,2.81,0,0,0,1.36-.37,3,3,0,0,0,1.11-1.14l9.69-16.8A4,4,0,0,0,96,66.21a2.52,2.52,0,0,0-.62-1.74A2.28,2.28,0,0,0,93.64,63.78Z"/><path d="M44.6,61.68V89.87a8,8,0,0,1-7.94,7.94H8.47A8,8,0,0,1,.53,89.87V61.68a8,8,0,0,1,7.94-7.94H36.66A8,8,0,0,1,44.6,61.68ZM6.24,78.8H18.08a1.8,1.8,0,0,0,1.34-.56A1.86,1.86,0,0,0,20,76.88,1.88,1.88,0,0,0,18.08,75H6.24a1.8,1.8,0,0,0-1.34.56,1.87,1.87,0,0,0-.55,1.36A1.86,1.86,0,0,0,6.24,78.8Zm5.76-6a1.94,1.94,0,0,0,1.45-.6,2,2,0,0,0,.6-1.48,2,2,0,0,0-.6-1.44,1.94,1.94,0,0,0-1.45-.6,1.89,1.89,0,0,0-1.44.59A2,2,0,0,0,10,70.7a2.06,2.06,0,0,0,.58,1.48A1.9,1.9,0,0,0,12,72.78Zm0,12.36a2,2,0,0,0,1.45-.61,2.06,2.06,0,0,0,0-2.91A1.91,1.91,0,0,0,12,81a1.87,1.87,0,0,0-1.44.61A2,2,0,0,0,10,83.09a2,2,0,0,0,.58,1.45A1.9,1.9,0,0,0,12,85.14Zm25.63-21.6H25.09a3.09,3.09,0,0,0-2.11.59,2.23,2.23,0,0,0-.68,1.77A2.17,2.17,0,0,0,23,67.63a3.15,3.15,0,0,0,2.13.58h8L24.86,82.26a3,3,0,0,0-.44,1.53,2.32,2.32,0,0,0,.86,1.84,2.93,2.93,0,0,0,2,.75A2.8,2.8,0,0,0,28.62,86a3,3,0,0,0,1.11-1.14l9.69-16.8A4,4,0,0,0,40,66a2.53,2.53,0,0,0-.62-1.75A2.31,2.31,0,0,0,37.63,63.54Z"/><path d="M71.57,10.91V39.09A7.94,7.94,0,0,1,63.63,47H35.44a7.94,7.94,0,0,1-7.94-7.94V10.91A7.94,7.94,0,0,1,35.44,3H63.63A7.94,7.94,0,0,1,71.57,10.91ZM34.21,28H46.05a1.77,1.77,0,0,0,1.34-.56,1.83,1.83,0,0,0,.54-1.36,1.79,1.79,0,0,0-.54-1.34,1.82,1.82,0,0,0-1.34-.54H34.21a1.79,1.79,0,0,0-1.35.56,1.87,1.87,0,0,0-.54,1.36,1.82,1.82,0,0,0,.54,1.34A1.85,1.85,0,0,0,34.21,28ZM40,22a2,2,0,0,0,1.45-.61A2,2,0,0,0,42,19.93a2,2,0,0,0-.59-1.44,2,2,0,0,0-2.89,0A2,2,0,0,0,38,19.93a2.05,2.05,0,0,0,.58,1.47A1.91,1.91,0,0,0,40,22Zm0,12.35a1.93,1.93,0,0,0,1.45-.61A2,2,0,0,0,42,32.31a2,2,0,0,0-.59-1.47A1.93,1.93,0,0,0,40,30.23a1.87,1.87,0,0,0-1.44.61A2,2,0,0,0,38,32.31a2,2,0,0,0,.58,1.46A1.93,1.93,0,0,0,40,34.36ZM65.6,12.76H53.06a3.18,3.18,0,0,0-2.12.59,2.28,2.28,0,0,0-.67,1.78,2.18,2.18,0,0,0,.66,1.73,3.19,3.19,0,0,0,2.13.57h8L52.83,31.48A3,3,0,0,0,52.38,33a2.36,2.36,0,0,0,.87,1.84,2.93,2.93,0,0,0,2,.75,2.81,2.81,0,0,0,1.36-.37A3,3,0,0,0,57.7,34.1l9.69-16.8A4,4,0,0,0,68,15.19a2.52,2.52,0,0,0-.62-1.74A2.28,2.28,0,0,0,65.6,12.76Z"/></svg>