<svg id="Layer_1" data-name="Layer 1" xmlns="http://www.w3.org/2000/svg" viewBox="0 0 100 100"><title>l22_3_1</title><path d="M99.61,61.93V90.11a7.94,7.94,0,0,1-7.94,7.94H63.48a7.94,7.94,0,0,1-7.94-7.94V61.93A7.94,7.94,0,0,1,63.48,54H91.67A7.94,7.94,0,0,1,99.61,61.93ZM86.69,83.86H83.16V63.48a3.75,3.75,0,0,0-1-2.8,3.82,3.82,0,0,0-2.77-1,7.24,7.24,0,0,0-3.57,1.08l-6.88,4a3,3,0,0,0-1.51,2.67,3.62,3.62,0,0,0,.86,2.34,2.58,2.58,0,0,0,2.07,1.06,3,3,0,0,0,1.5-.43l3.44-2V83.86H71.77a4.34,4.34,0,0,0-2.84.77A2.91,2.91,0,0,0,68,87q0,3.18,3.74,3.18H86.69q3.74,0,3.74-3.18a2.91,2.91,0,0,0-.9-2.33A4.34,4.34,0,0,0,86.69,83.86Z"/><path d="M44.6,61.68V89.87a8,8,0,0,1-7.94,7.94H8.47A8,8,0,0,1,.53,89.87V61.68a8,8,0,0,1,7.94-7.94H36.66A8,8,0,0,1,44.6,61.68ZM30.68,83.82H27.16V63.44a3.6,3.6,0,0,0-3.83-3.83,7.32,7.32,0,0,0-3.57,1.07l-6.88,4a2.93,2.93,0,0,0-1.5,2.67,3.61,3.61,0,0,0,.85,2.34,2.6,2.6,0,0,0,2.07,1.06,3,3,0,0,0,1.5-.43l3.44-2V83.82H15.76a4.36,4.36,0,0,0-2.84.77,2.91,2.91,0,0,0-.9,2.33q0,3.18,3.74,3.18H30.68c2.5,0,3.74-1.06,3.74-3.18a2.91,2.91,0,0,0-.9-2.33A4.34,4.34,0,0,0,30.68,83.82Z"/><path d="M71.57,10.91V39.09A7.94,7.94,0,0,1,63.63,47H35.44a7.94,7.94,0,0,1-7.94-7.94V10.91A7.94,7.94,0,0,1,35.44,3H63.63A7.94,7.94,0,0,1,71.57,10.91Zm-16,14.67,7.78-7.7a4.24,4.24,0,0,0,1.29-3.1,3.78,3.78,0,0,0-1.29-2.95,4,4,0,0,0-3-1.29,4.14,4.14,0,0,0-3,1.29l-7.78,7.78-7.77-7.78a4.21,4.21,0,0,0-3-1.37,3.79,3.79,0,0,0-2.95,1.3,4.24,4.24,0,0,0-1.29,3.1,4.41,4.41,0,0,0,1.22,3l7.78,7.7-7.78,7.78a4.17,4.17,0,0,0,0,6,4.45,4.45,0,0,0,3,1.22,4.15,4.15,0,0,0,3-1.22l7.77-7.78,7.78,7.78a4.25,4.25,0,0,0,7.27-3,4,4,0,0,0-1.22-3Z"/></svg>