<svg id="Layer_1" data-name="Layer 1" xmlns="http://www.w3.org/2000/svg" viewBox="0 0 100 100"><title>l22_5_1</title><path d="M84.75,61.68V89.87a8,8,0,0,1-7.94,7.94H24.39a8,8,0,0,1-7.94-7.94V61.68a8,8,0,0,1,7.94-7.94H76.81A8,8,0,0,1,84.75,61.68ZM33.13,90.46a9.35,9.35,0,0,0,8-3.72Q43.89,83,43.89,76T41.11,65.26a9.38,9.38,0,0,0-8-3.72,9.34,9.34,0,0,0-8,3.72Q22.37,69,22.37,76t2.76,10.76A9.34,9.34,0,0,0,33.13,90.46Zm0-5.56a2.87,2.87,0,0,1-2.76-2.08A19.94,19.94,0,0,1,29.53,76a19.69,19.69,0,0,1,.84-6.82,2.88,2.88,0,0,1,5.52,0,19.71,19.71,0,0,1,.84,6.8,19.94,19.94,0,0,1-.84,6.84A2.87,2.87,0,0,1,33.13,84.9Zm17.44,5.44a3.73,3.73,0,0,0,2.74-1.12,4,4,0,0,0,0-5.52,4,4,0,0,0-5.52,0,3.88,3.88,0,0,0,2.78,6.64Zm25.92-6.08H73.21v-19a3.48,3.48,0,0,0-1-2.6,3.55,3.55,0,0,0-2.58-1,6.72,6.72,0,0,0-3.32,1l-6.4,3.72a2.7,2.7,0,0,0-1.4,2.48,3.34,3.34,0,0,0,.8,2.18,2.41,2.41,0,0,0,1.92,1,2.81,2.81,0,0,0,1.4-.4l3.2-1.88V84.26H62.61A4,4,0,0,0,60,85a2.69,2.69,0,0,0-.84,2.16q0,3,3.48,3H76.49q3.48,0,3.48-3A2.69,2.69,0,0,0,79.13,85,4,4,0,0,0,76.49,84.26Z"/><path d="M71.57,10.91V39.09A7.94,7.94,0,0,1,63.63,47H35.44a7.94,7.94,0,0,1-7.94-7.94V10.91A7.94,7.94,0,0,1,35.44,3H63.63A7.94,7.94,0,0,1,71.57,10.91Zm-9.44,21L44.31,25,62.13,18.2a3,3,0,0,0,2-2.94,3.69,3.69,0,0,0-1.05-2.73,3.62,3.62,0,0,0-2.67-1,5.64,5.64,0,0,0-1.86.36l-20,7.74a5.94,5.94,0,0,0-2.73,2.19,5.73,5.73,0,0,0-1,3.27,5.78,5.78,0,0,0,1,3.36,5.65,5.65,0,0,0,2.73,2.1l20,7.74a5.64,5.64,0,0,0,1.86.36,3.62,3.62,0,0,0,2.67-1.05,3.69,3.69,0,0,0,1.05-2.73,3,3,0,0,0-.54-1.77A3.55,3.55,0,0,0,62.13,31.88Z"/></svg>