<svg id="Layer_1" data-name="Layer 1" xmlns="http://www.w3.org/2000/svg" viewBox="0 0 100 100"><title>l22_1_1</title><path d="M99.65,61.35V89.53a7.93,7.93,0,0,1-7.94,7.94H63.52a7.94,7.94,0,0,1-7.94-7.94V61.35a7.94,7.94,0,0,1,7.94-7.94H91.71A7.93,7.93,0,0,1,99.65,61.35ZM65.26,79.52h5.9a2.83,2.83,0,0,0,2-.58,2.05,2.05,0,0,0,.64-1.61,2,2,0,0,0-.64-1.6,2.89,2.89,0,0,0-2-.57h-5.9c-1.73,0-2.6.72-2.6,2.17S63.53,79.52,65.26,79.52Zm26.09-1.88h-.69V66.32a2.67,2.67,0,0,0-.84-2.1,3,3,0,0,0-2-.75,3.29,3.29,0,0,0-1.4.32,2.85,2.85,0,0,0-1.11,1l-9,12.79a3.52,3.52,0,0,0-.69,2.07,2.41,2.41,0,0,0,.66,1.73,2.35,2.35,0,0,0,1.79.69h7V83.1a2.75,2.75,0,0,0,.77,2.13,2.82,2.82,0,0,0,2,.72,2.89,2.89,0,0,0,2-.72,2.76,2.76,0,0,0,.78-2.13V82h.69c1.82,0,2.73-.74,2.73-2.23S93.17,77.64,91.35,77.64Zm-10.06,0,3.76-5.43v5.43Z"/><path d="M44.64,61.1V89.29a7.93,7.93,0,0,1-7.94,7.94H8.52A7.94,7.94,0,0,1,.57,89.29V61.1a8,8,0,0,1,8-7.94H36.7A7.94,7.94,0,0,1,44.64,61.1ZM9.25,79.28h5.9a2.89,2.89,0,0,0,2-.58,2.07,2.07,0,0,0,.64-1.62,2,2,0,0,0-.64-1.6,2.94,2.94,0,0,0-2-.56H9.25c-1.73,0-2.6.72-2.6,2.16S7.52,79.28,9.25,79.28ZM35.34,77.4h-.69V66.08A2.71,2.71,0,0,0,33.81,64a3,3,0,0,0-2-.75,3.16,3.16,0,0,0-1.4.33,2.85,2.85,0,0,0-1.11,1l-9,12.79a3.52,3.52,0,0,0-.69,2.07,2.41,2.41,0,0,0,.66,1.73,2.37,2.37,0,0,0,1.79.69h7v1.06a2.6,2.6,0,0,0,2.79,2.86,2.85,2.85,0,0,0,2-.73,2.76,2.76,0,0,0,.78-2.13V81.79h.69c1.82,0,2.73-.75,2.73-2.23S37.16,77.4,35.34,77.4Zm-10.06,0L29,72V77.4Z"/><path d="M71.61,10.33V38.51a7.93,7.93,0,0,1-7.94,7.94H35.48a7.94,7.94,0,0,1-7.94-7.94V10.33a7.94,7.94,0,0,1,7.94-7.94H63.67A7.93,7.93,0,0,1,71.61,10.33ZM37.22,28.5h5.9a2.83,2.83,0,0,0,2-.58,2.06,2.06,0,0,0,.64-1.62,2,2,0,0,0-.64-1.59,2.89,2.89,0,0,0-2-.57h-5.9c-1.73,0-2.6.72-2.6,2.16S35.49,28.5,37.22,28.5Zm26.09-1.88h-.69V15.3a2.67,2.67,0,0,0-.84-2.1,3,3,0,0,0-2-.75,3.15,3.15,0,0,0-1.4.32,2.85,2.85,0,0,0-1.11,1l-9,12.79a3.52,3.52,0,0,0-.69,2.07,2.41,2.41,0,0,0,.66,1.73A2.35,2.35,0,0,0,50,31h7v1.07a2.75,2.75,0,0,0,.77,2.13,2.82,2.82,0,0,0,2,.72,2.89,2.89,0,0,0,2-.72,2.76,2.76,0,0,0,.78-2.13V31h.69c1.82,0,2.73-.74,2.73-2.23S65.13,26.62,63.31,26.62Zm-10.06,0L57,21.19v5.43Z"/></svg>