<svg id="Layer_1" data-name="Layer 1" xmlns="http://www.w3.org/2000/svg" viewBox="0 0 100 100"><title>l22_3_1</title><path d="M99.61,61.93V90.11a7.94,7.94,0,0,1-7.94,7.94H63.48a7.94,7.94,0,0,1-7.94-7.94V61.93A7.94,7.94,0,0,1,63.48,54H91.67A7.94,7.94,0,0,1,99.61,61.93ZM80.16,70.19a8.32,8.32,0,0,0-3.64.79,6.9,6.9,0,0,0-2.64,2.17,11.45,11.45,0,0,1,1.61-5.61,4.13,4.13,0,0,1,3.55-2,5.73,5.73,0,0,1,2,.35c.63.23,1.41.57,2.36,1l1,.47a13.7,13.7,0,0,0,1.29.62,2.76,2.76,0,0,0,1.07.2,2.27,2.27,0,0,0,1.83-.93A3.45,3.45,0,0,0,89.27,65,3.22,3.22,0,0,0,89,63.52a3.85,3.85,0,0,0-1-1.16,13.82,13.82,0,0,0-4.33-2.15,16.47,16.47,0,0,0-4.92-.77A11.66,11.66,0,0,0,72,61.37a12.48,12.48,0,0,0-4.42,5.53A20.74,20.74,0,0,0,66,75.3q0,7.32,3.31,11.27t9.37,4a11,11,0,0,0,5.46-1.33,9.54,9.54,0,0,0,3.76-3.72,10.66,10.66,0,0,0,1.36-5.39A10.92,10.92,0,0,0,88.05,75a8.94,8.94,0,0,0-3.25-3.53A8.73,8.73,0,0,0,80.16,70.19Zm-2,14.27a3.44,3.44,0,0,1-2.67-1.14,4.2,4.2,0,0,1-1-2.94,4.28,4.28,0,0,1,1-3,3.81,3.81,0,0,1,5.38,0,4.38,4.38,0,0,1,1,3,4.29,4.29,0,0,1-1,3A3.35,3.35,0,0,1,78.18,84.46Z"/><path d="M44.6,61.68V89.87a8,8,0,0,1-7.94,7.94H8.47A8,8,0,0,1,.53,89.87V61.68a8,8,0,0,1,7.94-7.94H36.66A8,8,0,0,1,44.6,61.68ZM24.15,70.14a8.33,8.33,0,0,0-3.64.8,6.81,6.81,0,0,0-2.64,2.17,11.42,11.42,0,0,1,1.61-5.61,4.14,4.14,0,0,1,3.55-2,6,6,0,0,1,2,.34,25.65,25.65,0,0,1,2.36,1l.95.47a13.7,13.7,0,0,0,1.29.62,2.76,2.76,0,0,0,1.07.2,2.27,2.27,0,0,0,1.83-.93A3.46,3.46,0,0,0,33.26,65a3.08,3.08,0,0,0-.32-1.5,3.72,3.72,0,0,0-1-1.16,13.66,13.66,0,0,0-4.32-2.15,16.61,16.61,0,0,0-4.93-.78A11.61,11.61,0,0,0,16,61.33a12.43,12.43,0,0,0-4.43,5.53A20.74,20.74,0,0,0,10,75.26q0,7.32,3.31,11.27t9.37,4a11,11,0,0,0,5.46-1.33,9.63,9.63,0,0,0,3.77-3.72A11.52,11.52,0,0,0,32,74.94a8.87,8.87,0,0,0-3.25-3.53A8.71,8.71,0,0,0,24.15,70.14Zm-2,14.28a3.44,3.44,0,0,1-2.67-1.14,4.79,4.79,0,0,1,0-5.91,3.43,3.43,0,0,1,2.69-1.12,3.41,3.41,0,0,1,2.69,1.1,5,5,0,0,1,0,6A3.37,3.37,0,0,1,22.17,84.42Z"/><path d="M71.57,10.91V39.09A7.94,7.94,0,0,1,63.63,47H35.44a7.94,7.94,0,0,1-7.94-7.94V10.91A7.94,7.94,0,0,1,35.44,3H63.63A7.94,7.94,0,0,1,71.57,10.91ZM62.86,21.33H53.78V12.26a4.25,4.25,0,1,0-8.49,0v9.07H36.22A4.18,4.18,0,0,0,32,25.58a4.25,4.25,0,0,0,1.22,3.06,4.07,4.07,0,0,0,3,1.26h9.07v9a4.31,4.31,0,0,0,7.31,3,4.2,4.2,0,0,0,1.18-3v-9h9.08a4.06,4.06,0,0,0,3-1.26,4.21,4.21,0,0,0,1.22-3.06,4.18,4.18,0,0,0-4.24-4.25Z"/></svg>