<svg id="Layer_1" data-name="Layer 1" xmlns="http://www.w3.org/2000/svg" viewBox="0 0 100 100"><title>l22_1_1</title><path d="M99.65,61.35V89.53a7.93,7.93,0,0,1-7.94,7.94H63.52a7.94,7.94,0,0,1-7.94-7.94V61.35a7.94,7.94,0,0,1,7.94-7.94H91.71A7.93,7.93,0,0,1,99.65,61.35ZM65.26,79.52h5.9a2.83,2.83,0,0,0,2-.58,2.05,2.05,0,0,0,.64-1.61,2,2,0,0,0-.64-1.6,2.89,2.89,0,0,0-2-.57h-5.9c-1.73,0-2.6.72-2.6,2.17S63.53,79.52,65.26,79.52Zm21.23-8.31a6,6,0,0,0-2.65.58,5.19,5.19,0,0,0-1.93,1.58,8.41,8.41,0,0,1,1.18-4.09,3,3,0,0,1,2.59-1.46,4.13,4.13,0,0,1,1.44.26,15.87,15.87,0,0,1,1.72.75l.69.34c.4.21.71.36,1,.46a2.09,2.09,0,0,0,.78.14,1.66,1.66,0,0,0,1.33-.68,2.48,2.48,0,0,0,.55-1.64,2.27,2.27,0,0,0-.24-1.1,2.79,2.79,0,0,0-.76-.85A10,10,0,0,0,89,63.94a12,12,0,0,0-3.58-.57,8.49,8.49,0,0,0-4.88,1.41,9.14,9.14,0,0,0-3.23,4,15.27,15.27,0,0,0-1.15,6.13q0,5.34,2.42,8.22A8.43,8.43,0,0,0,85.4,86a8.06,8.06,0,0,0,4-1,7,7,0,0,0,2.74-2.71,7.82,7.82,0,0,0,1-3.94,7.93,7.93,0,0,0-.86-3.71,6.47,6.47,0,0,0-2.37-2.57A6.3,6.3,0,0,0,86.49,71.21ZM85.05,81.62a2.48,2.48,0,0,1-1.94-.83,3,3,0,0,1-.76-2.15,3.09,3.09,0,0,1,.74-2.16,2.52,2.52,0,0,1,2-.82,2.48,2.48,0,0,1,2,.8,3.19,3.19,0,0,1,.71,2.18A3.13,3.13,0,0,1,87,80.81,2.47,2.47,0,0,1,85.05,81.62Z"/><path d="M44.64,61.1V89.29a7.93,7.93,0,0,1-7.94,7.94H8.52A7.94,7.94,0,0,1,.57,89.29V61.1a8,8,0,0,1,8-7.94H36.7A7.94,7.94,0,0,1,44.64,61.1ZM9.25,79.28h5.9a2.89,2.89,0,0,0,2-.58,2.07,2.07,0,0,0,.64-1.62,2,2,0,0,0-.64-1.6,2.94,2.94,0,0,0-2-.56H9.25c-1.73,0-2.6.72-2.6,2.16S7.52,79.28,9.25,79.28ZM30.48,71a6,6,0,0,0-2.65.58,5,5,0,0,0-1.92,1.58A8.27,8.27,0,0,1,27.08,69a3,3,0,0,1,2.59-1.46,4.36,4.36,0,0,1,1.44.25,18.63,18.63,0,0,1,1.73.76l.69.34a9.07,9.07,0,0,0,.94.45,1.94,1.94,0,0,0,.78.15,1.66,1.66,0,0,0,1.33-.68,2.5,2.5,0,0,0,.55-1.64,2.39,2.39,0,0,0-.23-1.1,2.74,2.74,0,0,0-.77-.85A10.1,10.1,0,0,0,33,63.69a12.41,12.41,0,0,0-3.59-.56,8.51,8.51,0,0,0-4.88,1.41,9.08,9.08,0,0,0-3.23,4,15.24,15.24,0,0,0-1.14,6.13q0,5.33,2.41,8.22a8.43,8.43,0,0,0,6.84,2.88,8.06,8.06,0,0,0,4-1,7,7,0,0,0,2.74-2.71,7.84,7.84,0,0,0,1-3.94,8,8,0,0,0-.86-3.72,6.61,6.61,0,0,0-2.37-2.57A6.38,6.38,0,0,0,30.48,71ZM29,81.38a2.51,2.51,0,0,1-1.94-.83,3.47,3.47,0,0,1,0-4.31,2.78,2.78,0,0,1,3.92,0,3.18,3.18,0,0,1,.71,2.18A3.09,3.09,0,0,1,31,80.56,2.43,2.43,0,0,1,29,81.38Z"/><path d="M71.61,10.33V38.51a7.93,7.93,0,0,1-7.94,7.94H35.48a7.94,7.94,0,0,1-7.94-7.94V10.33a7.94,7.94,0,0,1,7.94-7.94H63.67A7.93,7.93,0,0,1,71.61,10.33ZM37.22,28.5h5.9a2.83,2.83,0,0,0,2-.58,2.05,2.05,0,0,0,.64-1.61,2,2,0,0,0-.64-1.6,2.89,2.89,0,0,0-2-.57h-5.9c-1.73,0-2.6.72-2.6,2.17S35.49,28.5,37.22,28.5Zm21.23-8.31a6,6,0,0,0-2.65.58,5.19,5.19,0,0,0-1.93,1.58,8.37,8.37,0,0,1,1.18-4.09,3,3,0,0,1,2.59-1.46,4.13,4.13,0,0,1,1.44.26,15.87,15.87,0,0,1,1.72.75l.69.34c.4.21.71.36.95.46a2.09,2.09,0,0,0,.78.14,1.66,1.66,0,0,0,1.33-.68,2.48,2.48,0,0,0,.55-1.64,2.27,2.27,0,0,0-.24-1.1,2.79,2.79,0,0,0-.76-.85,9.83,9.83,0,0,0-3.16-1.56,12,12,0,0,0-3.58-.57,8.49,8.49,0,0,0-4.88,1.41,9.14,9.14,0,0,0-3.23,4,15.27,15.27,0,0,0-1.15,6.13q0,5.34,2.42,8.22A8.43,8.43,0,0,0,57.36,35a8.06,8.06,0,0,0,4-1,7,7,0,0,0,2.74-2.71,7.82,7.82,0,0,0,1-3.94,7.9,7.9,0,0,0-.86-3.71,6.47,6.47,0,0,0-2.37-2.57A6.3,6.3,0,0,0,58.45,20.19ZM57,30.6a2.51,2.51,0,0,1-1.94-.83,3,3,0,0,1-.76-2.15,3.09,3.09,0,0,1,.74-2.16,2.52,2.52,0,0,1,2-.82,2.48,2.48,0,0,1,2,.8,3.19,3.19,0,0,1,.71,2.18A3.13,3.13,0,0,1,59,29.79,2.47,2.47,0,0,1,57,30.6Z"/></svg>