<svg id="Layer_1" data-name="Layer 1" xmlns="http://www.w3.org/2000/svg" viewBox="0 0 100 100"><title>l22_5_1</title><path d="M84.75,61.68V89.87a8,8,0,0,1-7.94,7.94H24.39a8,8,0,0,1-7.94-7.94V61.68a8,8,0,0,1,7.94-7.94H76.81A8,8,0,0,1,84.75,61.68ZM40.07,84.26H36.79v-19a3.48,3.48,0,0,0-1-2.6,3.55,3.55,0,0,0-2.58-1,6.72,6.72,0,0,0-3.32,1l-6.4,3.72a2.7,2.7,0,0,0-1.4,2.48,3.34,3.34,0,0,0,.8,2.18,2.41,2.41,0,0,0,1.92,1,2.81,2.81,0,0,0,1.4-.4l3.2-1.88V84.26H26.19a4,4,0,0,0-2.64.72,2.69,2.69,0,0,0-.84,2.16q0,3,3.48,3H40.07q3.48,0,3.48-3A2.69,2.69,0,0,0,42.71,85,4,4,0,0,0,40.07,84.26Zm8.56,7.12,9.08-28.52a5,5,0,0,0,.16-.88A2.34,2.34,0,0,0,57,60.1a3,3,0,0,0-2-.72,2.65,2.65,0,0,0-1.54.48,2.68,2.68,0,0,0-1,1.44L43.39,89.82a2.58,2.58,0,0,0-.16.92,2.32,2.32,0,0,0,.84,1.84,2.91,2.91,0,0,0,2,.72,2.75,2.75,0,0,0,1.58-.48A2.79,2.79,0,0,0,48.63,91.38ZM72,71.54a7.58,7.58,0,0,0-3.38.74,6.21,6.21,0,0,0-2.46,2,10.63,10.63,0,0,1,1.5-5.22,3.83,3.83,0,0,1,3.3-1.86,5.2,5.2,0,0,1,1.84.32,23.23,23.23,0,0,1,2.2,1l.88.44c.5.26.9.46,1.2.58a2.59,2.59,0,0,0,1,.18,2.14,2.14,0,0,0,1.7-.86,3.28,3.28,0,0,0,.7-2.1,2.93,2.93,0,0,0-.3-1.4,3.37,3.37,0,0,0-1-1.08,12.62,12.62,0,0,0-4-2,15.54,15.54,0,0,0-4.58-.72,10.81,10.81,0,0,0-6.22,1.8,11.56,11.56,0,0,0-4.12,5.14,19.25,19.25,0,0,0-1.46,7.82q0,6.8,3.08,10.48t8.72,3.68a10.41,10.41,0,0,0,5.08-1.24,9,9,0,0,0,3.5-3.46A10.69,10.69,0,0,0,79.29,76a8.26,8.26,0,0,0-3-3.28A8.05,8.05,0,0,0,72,71.54ZM70.11,84.82a3.21,3.21,0,0,1-2.48-1.06,4.46,4.46,0,0,1,0-5.5,3.55,3.55,0,0,1,5,0,4.67,4.67,0,0,1,0,5.54A3.16,3.16,0,0,1,70.11,84.82Z"/><path d="M71.57,10.91V39.09A7.94,7.94,0,0,1,63.63,47H35.44a7.94,7.94,0,0,1-7.94-7.94V10.91A7.94,7.94,0,0,1,35.44,3H63.63A7.94,7.94,0,0,1,71.57,10.91ZM58.68,14.18a3.18,3.18,0,0,0-2.85,2L49.6,28,43.35,16.22a4.06,4.06,0,0,0-1.26-1.51A3,3,0,0,0,38.3,15a3,3,0,0,0-.83,2.21v18.5a2.74,2.74,0,1,0,5.47,0v-9.8l3.84,6.94A4.46,4.46,0,0,0,48,34.43a2.77,2.77,0,0,0,3.06,0,4.45,4.45,0,0,0,1.22-1.55l3.88-7.14v10a2.79,2.79,0,0,0,4.69,2,2.76,2.76,0,0,0,.75-2V17.24A3.08,3.08,0,0,0,60.79,15,2.78,2.78,0,0,0,58.68,14.18Z"/></svg>