<svg id="Layer_1" data-name="Layer 1" xmlns="http://www.w3.org/2000/svg" viewBox="0 0 100 100"><title>l22_1_1</title><path d="M99.61,61.93V90.11a7.94,7.94,0,0,1-7.94,7.94H63.48a7.94,7.94,0,0,1-7.94-7.94V61.93A7.94,7.94,0,0,1,63.48,54H91.67A7.94,7.94,0,0,1,99.61,61.93ZM61.22,85.77a2.7,2.7,0,0,0,.93.94A2,2,0,0,0,63.2,87a1.25,1.25,0,0,0,.91-.34,1.17,1.17,0,0,0,.36-.91,2.17,2.17,0,0,0-.17-.8,21.56,21.56,0,0,1-1.12-3.94,23.71,23.71,0,0,1-.35-4.18,24.43,24.43,0,0,1,.35-4.22,20.1,20.1,0,0,1,1.12-3.94,2.22,2.22,0,0,0,.17-.81,1.2,1.2,0,0,0-.36-.93,1.29,1.29,0,0,0-.91-.33,2,2,0,0,0-1.05.33,2.92,2.92,0,0,0-.93,1,16.78,16.78,0,0,0,0,17.85Zm7.29-7.43h4.33a2.13,2.13,0,0,0,1.44-.42,1.54,1.54,0,0,0,.47-1.19,1.5,1.5,0,0,0-.47-1.17,2.13,2.13,0,0,0-1.44-.42H68.51c-1.27,0-1.91.53-1.91,1.59S67.24,78.34,68.51,78.34ZM87.35,66.7h-9a2.25,2.25,0,0,0-1.51.43,1.62,1.62,0,0,0-.49,1.28,1.55,1.55,0,0,0,.48,1.24,2.3,2.3,0,0,0,1.52.41h5.75l-5.91,10.1a2.2,2.2,0,0,0-.32,1.1,1.72,1.72,0,0,0,.62,1.33,2.12,2.12,0,0,0,1.43.54,2,2,0,0,0,1-.27,2.12,2.12,0,0,0,.79-.81l7-12.08a3,3,0,0,0,.44-1.52,1.79,1.79,0,0,0-.45-1.25A1.65,1.65,0,0,0,87.35,66.7Zm6.58,19.07a16.78,16.78,0,0,0,0-17.85A2.88,2.88,0,0,0,93,67a2.09,2.09,0,0,0-1-.32A1.29,1.29,0,0,0,91,67a1.18,1.18,0,0,0-.35.91,2.2,2.2,0,0,0,.16.81A20.1,20.1,0,0,1,92,72.65a24.43,24.43,0,0,1,.35,4.22A23.71,23.71,0,0,1,92,81.05,21.56,21.56,0,0,1,90.85,85a2.15,2.15,0,0,0-.16.8,1.16,1.16,0,0,0,.35.91,1.22,1.22,0,0,0,.89.34A2.05,2.05,0,0,0,93,86.71,2.7,2.7,0,0,0,93.93,85.77Z"/><path d="M44.6,61.68V89.87a8,8,0,0,1-7.94,7.94H8.47A8,8,0,0,1,.53,89.87V61.68a8,8,0,0,1,7.94-7.94H36.66A8,8,0,0,1,44.6,61.68ZM5.21,85.53a2.81,2.81,0,0,0,.94.94,2,2,0,0,0,1,.32,1.29,1.29,0,0,0,.91-.33,1.18,1.18,0,0,0,.36-.91,2.33,2.33,0,0,0-.16-.8,20.94,20.94,0,0,1-1.13-4,23.59,23.59,0,0,1-.35-4.17,24.34,24.34,0,0,1,.35-4.22,19.74,19.74,0,0,1,1.13-4,2.33,2.33,0,0,0,.16-.8,1.2,1.2,0,0,0-.36-.93,1.25,1.25,0,0,0-.91-.34,1.91,1.91,0,0,0-1,.34,2.94,2.94,0,0,0-.94,1,16.78,16.78,0,0,0,0,17.85ZM12.5,78.1h4.33a2.08,2.08,0,0,0,1.44-.43,1.51,1.51,0,0,0,.47-1.18,1.47,1.47,0,0,0-.47-1.17,2.13,2.13,0,0,0-1.44-.42H12.5c-1.27,0-1.9.53-1.9,1.59S11.23,78.1,12.5,78.1ZM31.34,66.46h-9a2.23,2.23,0,0,0-1.52.43,1.61,1.61,0,0,0-.48,1.27,1.52,1.52,0,0,0,.47,1.24,2.26,2.26,0,0,0,1.53.42h5.75l-5.91,10.1a2.1,2.1,0,0,0-.33,1.1,1.7,1.7,0,0,0,.62,1.32,2.12,2.12,0,0,0,1.43.54,2.05,2.05,0,0,0,1-.26,2.15,2.15,0,0,0,.79-.82l7-12.07a3,3,0,0,0,.44-1.52A1.78,1.78,0,0,0,32.62,67,1.65,1.65,0,0,0,31.34,66.46Zm6.58,19.07a16.73,16.73,0,0,0,0-17.85,2.79,2.79,0,0,0-.93-.94,2,2,0,0,0-1.05-.32,1.29,1.29,0,0,0-.91.33,1.16,1.16,0,0,0-.35.91,2.11,2.11,0,0,0,.16.8,20.38,20.38,0,0,1,1.12,4,24.34,24.34,0,0,1,.35,4.22A23.59,23.59,0,0,1,36,80.8a21.65,21.65,0,0,1-1.12,4,2.11,2.11,0,0,0-.16.8,1.18,1.18,0,0,0,.35.91,1.27,1.27,0,0,0,.89.33A2,2,0,0,0,37,86.47,2.79,2.79,0,0,0,37.92,85.53Z"/><path d="M71.57,10.91V39.09A7.94,7.94,0,0,1,63.63,47H35.44a7.94,7.94,0,0,1-7.94-7.94V10.91A7.94,7.94,0,0,1,35.44,3H63.63A7.94,7.94,0,0,1,71.57,10.91ZM33.18,34.75a2.79,2.79,0,0,0,.93.94,2,2,0,0,0,1,.33,1.3,1.3,0,0,0,.91-.34,1.17,1.17,0,0,0,.36-.91,2.13,2.13,0,0,0-.17-.8A21.43,21.43,0,0,1,35.14,30a23.59,23.59,0,0,1-.35-4.17,24.43,24.43,0,0,1,.35-4.22,20.1,20.1,0,0,1,1.12-3.94,2.22,2.22,0,0,0,.17-.81,1.2,1.2,0,0,0-.36-.93,1.3,1.3,0,0,0-.91-.34,2,2,0,0,0-1,.34,2.92,2.92,0,0,0-.93.95,15.61,15.61,0,0,0-2.57,9A15.63,15.63,0,0,0,33.18,34.75Zm7.29-7.43H44.8a2.13,2.13,0,0,0,1.44-.42,1.54,1.54,0,0,0,.47-1.19,1.48,1.48,0,0,0-.47-1.17,2.13,2.13,0,0,0-1.44-.42H40.47c-1.27,0-1.91.53-1.91,1.59S39.2,27.32,40.47,27.32ZM59.31,15.68h-9a2.25,2.25,0,0,0-1.51.43,1.62,1.62,0,0,0-.49,1.28,1.55,1.55,0,0,0,.48,1.24,2.3,2.3,0,0,0,1.52.41H56l-5.91,10.1a2.2,2.2,0,0,0-.32,1.1,1.68,1.68,0,0,0,.62,1.32,2.09,2.09,0,0,0,1.43.55,2,2,0,0,0,1-.27,2.09,2.09,0,0,0,.79-.82L60.6,19A3,3,0,0,0,61,17.43a1.79,1.79,0,0,0-.45-1.25A1.65,1.65,0,0,0,59.31,15.68Zm6.58,19.07a15.63,15.63,0,0,0,2.57-8.9,15.61,15.61,0,0,0-2.57-9A2.88,2.88,0,0,0,65,16a2.09,2.09,0,0,0-1-.32A1.29,1.29,0,0,0,63,16a1.18,1.18,0,0,0-.35.91,2.2,2.2,0,0,0,.16.81,20.1,20.1,0,0,1,1.12,3.94,24.43,24.43,0,0,1,.35,4.22A23.59,23.59,0,0,1,63.93,30,21.43,21.43,0,0,1,62.81,34a2.11,2.11,0,0,0-.16.8,1.16,1.16,0,0,0,.35.91,1.26,1.26,0,0,0,.89.34A2.05,2.05,0,0,0,65,35.69,2.79,2.79,0,0,0,65.89,34.75Z"/></svg>