<svg id="Layer_1" data-name="Layer 1" xmlns="http://www.w3.org/2000/svg" viewBox="0 0 100 100"><title>l22_5_1</title><path d="M99.61,61.93V90.11a7.94,7.94,0,0,1-7.94,7.94H63.48a7.94,7.94,0,0,1-7.94-7.94V61.93A7.94,7.94,0,0,1,63.48,54H91.67A7.94,7.94,0,0,1,99.61,61.93ZM74.52,81.22l-10.1-3.87,10.1-3.88a1.79,1.79,0,0,0,.85-.65,1.75,1.75,0,0,0,.3-1,2.1,2.1,0,0,0-.59-1.54,2,2,0,0,0-1.52-.6,3.33,3.33,0,0,0-1,.2L61.19,74.25a3.36,3.36,0,0,0-1.55,1.24,3.44,3.44,0,0,0,0,3.76,3.21,3.21,0,0,0,1.55,1.19l11.32,4.39a3.33,3.33,0,0,0,1,.2,2,2,0,0,0,1.52-.6,2.1,2.1,0,0,0,.59-1.54,1.72,1.72,0,0,0-.3-1A2.1,2.1,0,0,0,74.52,81.22Zm20.46,1H92.19V66.06a2.93,2.93,0,0,0-.83-2.21A3,3,0,0,0,89.17,63a5.67,5.67,0,0,0-2.82.85L80.91,67a2.3,2.3,0,0,0-1.19,2.11A2.81,2.81,0,0,0,80.4,71a2,2,0,0,0,1.63.84,2.39,2.39,0,0,0,1.19-.34l2.72-1.6V82.17H83.19a3.4,3.4,0,0,0-2.25.62,2.26,2.26,0,0,0-.71,1.83c0,1.68,1,2.52,3,2.52H95c2,0,3-.84,3-2.52a2.29,2.29,0,0,0-.71-1.83A3.42,3.42,0,0,0,95,82.17Z"/><path d="M44.6,61.68V89.87a8,8,0,0,1-7.94,7.94H8.47A8,8,0,0,1,.53,89.87V61.68a8,8,0,0,1,7.94-7.94H36.66A8,8,0,0,1,44.6,61.68ZM18.51,81.18,8.41,77.31l10.1-3.88a1.79,1.79,0,0,0,.85-.65,1.75,1.75,0,0,0,.3-1,2.1,2.1,0,0,0-.59-1.54,2,2,0,0,0-1.52-.6,3.38,3.38,0,0,0-1.05.2L5.18,74.21a3.41,3.41,0,0,0-1.55,1.24,3.44,3.44,0,0,0,0,3.76A3.25,3.25,0,0,0,5.18,80.4L16.5,84.79a3.38,3.38,0,0,0,1.05.2,2,2,0,0,0,1.52-.6,2.1,2.1,0,0,0,.59-1.54,1.72,1.72,0,0,0-.3-1A2.1,2.1,0,0,0,18.51,81.18ZM39,82.13H36.19V66a2.85,2.85,0,0,0-3-3,5.73,5.73,0,0,0-2.82.85L24.9,67a2.3,2.3,0,0,0-1.19,2.11A2.81,2.81,0,0,0,24.39,71,2,2,0,0,0,26,71.8a2.39,2.39,0,0,0,1.19-.34l2.72-1.6V82.13H27.18a3.42,3.42,0,0,0-2.25.62,2.29,2.29,0,0,0-.71,1.83c0,1.68,1,2.52,3,2.52H39c2,0,3-.84,3-2.52a2.29,2.29,0,0,0-.71-1.83A3.42,3.42,0,0,0,39,82.13Z"/><path d="M71.57,10.91V39.09A7.94,7.94,0,0,1,63.63,47H35.44a7.94,7.94,0,0,1-7.94-7.94V10.91A7.94,7.94,0,0,1,35.44,3H63.63A7.94,7.94,0,0,1,71.57,10.91ZM49.43,37.63a13.76,13.76,0,0,0,5.26-.94A8,8,0,0,0,58.2,34a6.54,6.54,0,0,0,1.26-4A6.06,6.06,0,0,0,58.68,27,6.63,6.63,0,0,0,56,24.62,20.48,20.48,0,0,0,50.9,22.9a20.38,20.38,0,0,1-3-.79,4,4,0,0,1-1.4-.8,1.57,1.57,0,0,1-.37-1.06,2,2,0,0,1,1-1.75,5.24,5.24,0,0,1,2.79-.66,10,10,0,0,1,2.33.25,7.85,7.85,0,0,1,1.87.68l1,.53a5.65,5.65,0,0,0,1,.53A2.71,2.71,0,0,0,57,20a1.77,1.77,0,0,0,1.41-.75,2.75,2.75,0,0,0,.6-1.77,2.61,2.61,0,0,0-.26-1.21,2.69,2.69,0,0,0-.87-.93,11,11,0,0,0-3.53-1.7A16.49,16.49,0,0,0,49.91,13a12.35,12.35,0,0,0-5.08,1,8.6,8.6,0,0,0-3.56,2.77A6.53,6.53,0,0,0,40,20.76,6.48,6.48,0,0,0,40.75,24a6.33,6.33,0,0,0,2.66,2.33A21.53,21.53,0,0,0,48.69,28a13.66,13.66,0,0,1,3.68,1.1,1.59,1.59,0,0,1,1,1.35,1.9,1.9,0,0,1-1,1.75,6.36,6.36,0,0,1-3.05.59,12.88,12.88,0,0,1-3.11-.34,10.89,10.89,0,0,1-2.77-1.12,5.31,5.31,0,0,0-1-.51,2.66,2.66,0,0,0-.85-.14,1.82,1.82,0,0,0-1.43.75,2.7,2.7,0,0,0-.61,1.77,2.54,2.54,0,0,0,.26,1.22,2.81,2.81,0,0,0,.83.92A11.73,11.73,0,0,0,44.38,37,20.27,20.27,0,0,0,49.43,37.63Z"/></svg>