<svg id="Layer_1" data-name="Layer 1" xmlns="http://www.w3.org/2000/svg" viewBox="0 0 100 100"><title>l22_5_1</title><path d="M84.75,61.68V89.87a8,8,0,0,1-7.94,7.94H24.39a8,8,0,0,1-7.94-7.94V61.68a8,8,0,0,1,7.94-7.94H76.81A8,8,0,0,1,84.75,61.68ZM40.07,84.26H36.79v-19a3.48,3.48,0,0,0-1-2.6,3.55,3.55,0,0,0-2.58-1,6.72,6.72,0,0,0-3.32,1l-6.4,3.72a2.71,2.71,0,0,0-1.41,2.48,3.35,3.35,0,0,0,.81,2.18,2.41,2.41,0,0,0,1.92,1,2.81,2.81,0,0,0,1.4-.4l3.2-1.88V84.26H26.19a4,4,0,0,0-2.64.72,2.69,2.69,0,0,0-.84,2.16q0,3,3.48,3H40.07q3.48,0,3.48-3A2.69,2.69,0,0,0,42.71,85,4,4,0,0,0,40.07,84.26Zm8.56,7.12,9.08-28.52a5,5,0,0,0,.16-.88A2.34,2.34,0,0,0,57,60.1a3,3,0,0,0-2-.72,2.65,2.65,0,0,0-1.54.48,2.68,2.68,0,0,0-1,1.44L43.39,89.82a2.58,2.58,0,0,0-.16.92,2.32,2.32,0,0,0,.84,1.84,2.91,2.91,0,0,0,2,.72,2.7,2.7,0,0,0,1.57-.48A2.75,2.75,0,0,0,48.63,91.38ZM78.14,79.74h-.87V65.3a3.39,3.39,0,0,0-1.08-2.68,3.78,3.78,0,0,0-2.6-1,4,4,0,0,0-1.78.42,3.56,3.56,0,0,0-1.42,1.22L59,79.62a4.44,4.44,0,0,0-.89,2.64,3.07,3.07,0,0,0,.85,2.2,3,3,0,0,0,2.28.88H70.1V86.7a3.54,3.54,0,0,0,1,2.72,3.62,3.62,0,0,0,2.58.92,3.72,3.72,0,0,0,2.6-.92,3.55,3.55,0,0,0,1-2.72V85.34h.87q3.49,0,3.49-2.84T78.14,79.74Zm-12.83,0,4.79-6.92v6.92Z"/><path d="M71.57,10.91V39.09A7.94,7.94,0,0,1,63.63,47H35.44a7.94,7.94,0,0,1-7.94-7.94V10.91A7.94,7.94,0,0,1,35.44,3H63.63A7.94,7.94,0,0,1,71.57,10.91ZM44.88,37.32H56.06a3.41,3.41,0,0,0,2.23-.61A2.35,2.35,0,0,0,59,34.8c0-1.7-1-2.55-3-2.55H48.24v-16A3,3,0,0,0,47.39,14a3.17,3.17,0,0,0-2.31-.83,3.07,3.07,0,0,0-2.26.83A3,3,0,0,0,42,16.24V34.4a2.61,2.61,0,0,0,2.89,2.92Z"/></svg>