<svg id="Layer_1" data-name="Layer 1" xmlns="http://www.w3.org/2000/svg" viewBox="0 0 100 100"><title>l22_4_1</title><path d="M88.34,61.68V89.87a8,8,0,0,1-7.94,7.94H21.47a8,8,0,0,1-7.94-7.94V61.68a8,8,0,0,1,7.94-7.94H80.4A8,8,0,0,1,88.34,61.68ZM39.28,83.82H35.75V63.44a3.75,3.75,0,0,0-1-2.8,3.81,3.81,0,0,0-2.78-1,7.32,7.32,0,0,0-3.56,1.07l-6.88,4A2.92,2.92,0,0,0,20,67.35a3.62,3.62,0,0,0,.86,2.34,2.56,2.56,0,0,0,2.06,1.06,3,3,0,0,0,1.51-.43l3.44-2V83.82H24.36a4.34,4.34,0,0,0-2.84.77,2.9,2.9,0,0,0-.91,2.32q0,3.2,3.75,3.19H39.28Q43,90.1,43,86.91a2.87,2.87,0,0,0-.91-2.32A4.31,4.31,0,0,0,39.28,83.82Zm9.2,7.65,9.76-30.66a4.94,4.94,0,0,0,.17-.94,2.52,2.52,0,0,0-.92-2,3.22,3.22,0,0,0-2.13-.78,2.84,2.84,0,0,0-1.66.52,2.91,2.91,0,0,0-1.09,1.55L42.85,89.8a2.72,2.72,0,0,0-.18,1,2.48,2.48,0,0,0,.91,2,3.11,3.11,0,0,0,2.1.78,3,3,0,0,0,1.7-.52A2.92,2.92,0,0,0,48.48,91.47ZM69.89,59.39a11.1,11.1,0,0,0-5.46,1.34,9.61,9.61,0,0,0-3.76,3.72,11.52,11.52,0,0,0-.17,10.49,8.89,8.89,0,0,0,3.24,3.52,8.68,8.68,0,0,0,4.65,1.27A8.25,8.25,0,0,0,72,78.94a6.93,6.93,0,0,0,2.65-2.17,11.48,11.48,0,0,1-1.62,5.61,4.11,4.11,0,0,1-3.54,2,5.73,5.73,0,0,1-2-.35c-.63-.23-1.42-.57-2.37-1l-.94-.47a13.55,13.55,0,0,0-1.29-.62,2.85,2.85,0,0,0-1.08-.2,2.3,2.3,0,0,0-1.83.93,3.45,3.45,0,0,0-.75,2.25,3.22,3.22,0,0,0,.32,1.51,3.77,3.77,0,0,0,1.06,1.16A13.66,13.66,0,0,0,65,89.71a16.57,16.57,0,0,0,4.92.77,11.66,11.66,0,0,0,6.69-1.93A12.5,12.5,0,0,0,81,83a20.91,20.91,0,0,0,1.57-8.4q0-7.32-3.31-11.27T69.89,59.39Zm.48,14.24a3.4,3.4,0,0,1-2.69-1.1,4.34,4.34,0,0,1-1-3,4.29,4.29,0,0,1,1-3,3.37,3.37,0,0,1,2.67-1.12A3.44,3.44,0,0,1,73,66.6a4.79,4.79,0,0,1,0,5.91A3.42,3.42,0,0,1,70.37,73.63Z"/><path d="M71.57,10.91V39.09A7.94,7.94,0,0,1,63.63,47H35.44a7.94,7.94,0,0,1-7.94-7.94V10.91A7.94,7.94,0,0,1,35.44,3H63.63A7.94,7.94,0,0,1,71.57,10.91ZM42.77,32H56.3a6.52,6.52,0,0,0,4.5-1.33A4.75,4.75,0,0,0,62.28,27a4.64,4.64,0,0,0-1.48-3.67A6.63,6.63,0,0,0,56.3,22H42.77q-6,0-6,5T42.77,32Z"/></svg>