<svg id="Layer_1" data-name="Layer 1" xmlns="http://www.w3.org/2000/svg" viewBox="0 0 150 100"><title>s22_1</title><path d="M120.46,100H32.15A12.37,12.37,0,0,1,19.78,87.63V13A12.37,12.37,0,0,1,32.15.64h88.31A12.37,12.37,0,0,1,132.83,13V87.63A12.37,12.37,0,0,1,120.46,100ZM52.1,63.28H40.36l8.3-8.47a27.22,27.22,0,0,0,4.87-6.57A14.65,14.65,0,0,0,55,41.73a10.66,10.66,0,0,0-1.78-6.1,11.28,11.28,0,0,0-5-4.09,18.69,18.69,0,0,0-7.59-1.43,23.75,23.75,0,0,0-12.91,4A3.91,3.91,0,0,0,26.2,35.6a5,5,0,0,0-.38,2.1,5,5,0,0,0,1,3.12,3,3,0,0,0,2.45,1.32A3.4,3.4,0,0,0,30.38,42a6.75,6.75,0,0,0,1.2-.55c.44-.26.74-.42.9-.5l1.17-.58A27.72,27.72,0,0,1,37,38.9a9.45,9.45,0,0,1,3.12-.5,4.61,4.61,0,0,1,3.24,1.05,3.94,3.94,0,0,1,1.14,3q0,3.39-3.85,7.41L28.22,62.81a6.37,6.37,0,0,0-2,4.56,4.37,4.37,0,0,0,1.23,3.18,4.43,4.43,0,0,0,3.33,1.25H52.1a5.88,5.88,0,0,0,3.83-1,4,4,0,0,0,1.25-3.27,3.88,3.88,0,0,0-1.25-3.18A6,6,0,0,0,52.1,63.28Zm36.5-1.64L71.26,55,88.6,48.33a3.1,3.1,0,0,0,1.46-1.11,3,3,0,0,0,.53-1.75,3.6,3.6,0,0,0-1-2.66,3.54,3.54,0,0,0-2.6-1,5.3,5.3,0,0,0-1.81.35L65.71,49.67a5.81,5.81,0,0,0-2.66,2.13,5.91,5.91,0,0,0,0,6.46,5.52,5.52,0,0,0,2.66,2l19.45,7.53a5.3,5.3,0,0,0,1.81.35,3.54,3.54,0,0,0,2.6-1,3.6,3.6,0,0,0,1-2.66,2.88,2.88,0,0,0-.53-1.72A3.51,3.51,0,0,0,88.6,61.64Zm30.19-11a9.46,9.46,0,0,0,4.65-3.54,9.68,9.68,0,0,0,1.66-5.63,10.18,10.18,0,0,0-1.78-6,11.42,11.42,0,0,0-5.08-4,19.26,19.26,0,0,0-7.62-1.4,23.42,23.42,0,0,0-6.92,1.05,19.21,19.21,0,0,0-5.93,2.92,4.6,4.6,0,0,0-1.4,1.58,4.54,4.54,0,0,0-.41,2,4.81,4.81,0,0,0,1,3.07A3,3,0,0,0,99.41,42a4,4,0,0,0,1.46-.26c.42-.18,1-.46,1.75-.85l1.22-.58a29.79,29.79,0,0,1,3.19-1.4,8.78,8.78,0,0,1,3.06-.53,5,5,0,0,1,3.57,1.2A4.39,4.39,0,0,1,114.94,43a3.27,3.27,0,0,1-1.46,3,8.85,8.85,0,0,1-4.67.94h-2.57a3.37,3.37,0,0,0-2.75,1.22,4.8,4.8,0,0,0,0,5.84,3.35,3.35,0,0,0,2.75,1.23h3.62a8.82,8.82,0,0,1,4.79,1,3.69,3.69,0,0,1,1.46,3.27,4.08,4.08,0,0,1-1.43,3.51,8.12,8.12,0,0,1-4.7,1,10.59,10.59,0,0,1-3.36-.5,25.63,25.63,0,0,1-3.36-1.43l-.73-.32-.56-.26c-.73-.39-1.32-.67-1.75-.85a3.92,3.92,0,0,0-1.46-.26,3,3,0,0,0-2.45,1.25,4.81,4.81,0,0,0-1,3.07,4.11,4.11,0,0,0,1.81,3.62,18.86,18.86,0,0,0,6.07,3,26,26,0,0,0,7.3,1,21.94,21.94,0,0,0,8.26-1.43,12.3,12.3,0,0,0,5.47-4.06,10.19,10.19,0,0,0,1.92-6.19,10.37,10.37,0,0,0-2-6.36A9.91,9.91,0,0,0,118.79,50.61Z"/></svg>