<svg id="Layer_1" data-name="Layer 1" xmlns="http://www.w3.org/2000/svg" viewBox="0 0 150 100"><title>s22_1</title><path d="M120.89,99.36H32.58A12.37,12.37,0,0,1,20.21,87V12.37A12.37,12.37,0,0,1,32.58,0h88.31a12.37,12.37,0,0,1,12.37,12.37V87A12.37,12.37,0,0,1,120.89,99.36Zm-64-49.69,9.94-9.84a5.42,5.42,0,0,0,1.65-4,4.83,4.83,0,0,0-1.65-3.77,5.15,5.15,0,0,0-3.87-1.66,5.3,5.3,0,0,0-3.86,1.66L49.14,42,39.21,32.1a5.37,5.37,0,0,0-3.87-1.75A4.8,4.8,0,0,0,31.57,32a5.4,5.4,0,0,0-1.66,4,5.66,5.66,0,0,0,1.57,3.87l9.93,9.84-9.93,9.94a5.32,5.32,0,0,0,0,7.72,5.62,5.62,0,0,0,3.86,1.57,5.26,5.26,0,0,0,3.87-1.57l9.93-9.93,9.94,9.93a5.43,5.43,0,0,0,9.29-3.86,5.06,5.06,0,0,0-1.56-3.86Zm31,5.52h34a5.16,5.16,0,0,0,3.87-1.61,5.39,5.39,0,0,0,1.56-3.91,5.35,5.35,0,0,0-5.43-5.43h-34A5.18,5.18,0,0,0,84,45.85a5.43,5.43,0,0,0-1.56,3.91,5.33,5.33,0,0,0,5.42,5.43ZM104.43,37.9a5.65,5.65,0,0,0,4.19-1.75,5.87,5.87,0,0,0,1.7-4.23,5.73,5.73,0,0,0-1.7-4.14A5.61,5.61,0,0,0,104.43,26a5.54,5.54,0,0,0-4.14,1.7,5.79,5.79,0,0,0-1.65,4.19,6,6,0,0,0,1.65,4.23A5.51,5.51,0,0,0,104.43,37.9Zm0,35.51a5.61,5.61,0,0,0,4.19-1.75,5.73,5.73,0,0,0,1.7-4.14,5.84,5.84,0,0,0-1.7-4.23,5.61,5.61,0,0,0-4.19-1.75,5.47,5.47,0,0,0-4.14,1.75,5.92,5.92,0,0,0-1.65,4.23,5.81,5.81,0,0,0,1.65,4.19A5.57,5.57,0,0,0,104.43,73.41Z"/></svg>