<svg id="Layer_1" data-name="Layer 1" xmlns="http://www.w3.org/2000/svg" viewBox="0 0 150 100"><title>s22_1</title><path d="M118.88,99.36H30.57A12.37,12.37,0,0,1,18.2,87V12.37A12.37,12.37,0,0,1,30.57,0h88.31a12.37,12.37,0,0,1,12.37,12.37V87A12.37,12.37,0,0,1,118.88,99.36ZM50.52,62.64H38.78l8.3-8.47A27.22,27.22,0,0,0,52,47.6a14.59,14.59,0,0,0,1.43-6.51A10.66,10.66,0,0,0,51.6,35a11.41,11.41,0,0,0-5.05-4.09A18.86,18.86,0,0,0,39,29.47a23.82,23.82,0,0,0-12.91,4A4,4,0,0,0,24.62,35a5.61,5.61,0,0,0,.62,5.23,3,3,0,0,0,2.45,1.31,3.68,3.68,0,0,0,1.11-.17,7.7,7.7,0,0,0,1.2-.56l.9-.5,1.17-.58a27.72,27.72,0,0,1,3.3-1.43,9.45,9.45,0,0,1,3.12-.5,4.61,4.61,0,0,1,3.24,1.05,3.94,3.94,0,0,1,1.14,3q0,3.39-3.85,7.42L26.64,62.17a6.4,6.4,0,0,0-2,4.56,4.35,4.35,0,0,0,1.23,3.18,4.44,4.44,0,0,0,3.33,1.26H50.52a5.88,5.88,0,0,0,3.83-1,4,4,0,0,0,1.25-3.27,3.9,3.9,0,0,0-1.25-3.19A6,6,0,0,0,50.52,62.64Zm35-11.74H78.2V43.54a3.45,3.45,0,1,0-6.89,0V50.9H64a3.4,3.4,0,0,0-3.44,3.45,3.43,3.43,0,0,0,1,2.48,3.28,3.28,0,0,0,2.45,1h7.36v7.3a3.49,3.49,0,0,0,5.93,2.45,3.37,3.37,0,0,0,1-2.45v-7.3h7.36a3.27,3.27,0,0,0,2.45-1,3.4,3.4,0,0,0,1-2.48,3.41,3.41,0,0,0-3.45-3.45ZM117.21,50a9.5,9.5,0,0,0,4.65-3.53,9.73,9.73,0,0,0,1.66-5.64,10.2,10.2,0,0,0-1.78-6,11.49,11.49,0,0,0-5.08-4,19.43,19.43,0,0,0-7.62-1.4,23.42,23.42,0,0,0-6.92,1.05,19.44,19.44,0,0,0-5.93,2.92A4.69,4.69,0,0,0,94.79,35a4.54,4.54,0,0,0-.41,2,4.81,4.81,0,0,0,1,3.07,3,3,0,0,0,2.46,1.25,3.76,3.76,0,0,0,1.46-.26c.42-.17,1-.46,1.75-.85l1.22-.58a32,32,0,0,1,3.19-1.4,8.78,8.78,0,0,1,3.06-.53,5,5,0,0,1,3.57,1.2,4.39,4.39,0,0,1,1.28,3.36,3.3,3.3,0,0,1-1.46,3,9,9,0,0,1-4.67.93h-2.57a3.35,3.35,0,0,0-2.75,1.23,4.8,4.8,0,0,0,0,5.84,3.37,3.37,0,0,0,2.75,1.22h3.62a8.72,8.72,0,0,1,4.79,1,3.67,3.67,0,0,1,1.46,3.27,4.07,4.07,0,0,1-1.43,3.5,8.12,8.12,0,0,1-4.7,1.05,10.6,10.6,0,0,1-3.36-.49,27,27,0,0,1-3.36-1.44l-.73-.32-.56-.26c-.73-.39-1.32-.67-1.75-.85a3.92,3.92,0,0,0-1.46-.26A3,3,0,0,0,94.73,61a4.78,4.78,0,0,0-1,3.06,4.53,4.53,0,0,0,.41,2,4.46,4.46,0,0,0,1.4,1.6,18.66,18.66,0,0,0,6.07,3,26,26,0,0,0,7.3,1,21.74,21.74,0,0,0,8.26-1.43,12.23,12.23,0,0,0,5.47-4.06A10.19,10.19,0,0,0,124.57,60a10.37,10.37,0,0,0-1.95-6.36A10,10,0,0,0,117.21,50Z"/></svg>