<svg id="Layer_1" data-name="Layer 1" xmlns="http://www.w3.org/2000/svg" viewBox="0 0 150 100"><title>s22_1</title><path d="M121.71,99.68H33.4A12.37,12.37,0,0,1,21,87.31V12.69A12.37,12.37,0,0,1,33.4.32h88.31a12.37,12.37,0,0,1,12.37,12.37V87.31A12.37,12.37,0,0,1,121.71,99.68Zm-53.4-51H58.23V38.65a4.72,4.72,0,1,0-9.44,0V48.73H38.71A4.63,4.63,0,0,0,34,53.45a4.73,4.73,0,0,0,1.35,3.4,4.52,4.52,0,0,0,3.36,1.4H48.79v10a4.79,4.79,0,0,0,8.13,3.36,4.68,4.68,0,0,0,1.31-3.36v-10H68.31a4.53,4.53,0,0,0,3.37-1.4A4.73,4.73,0,0,0,73,53.45a4.63,4.63,0,0,0-4.72-4.72Zm48.08,16.08H100.31l11.36-11.6a37.31,37.31,0,0,0,6.68-9,20.15,20.15,0,0,0,2-8.92,14.61,14.61,0,0,0-2.44-8.36,15.49,15.49,0,0,0-6.92-5.6,25.66,25.66,0,0,0-10.4-2,32.57,32.57,0,0,0-17.68,5.44,5.3,5.3,0,0,0-2,2.08,6.93,6.93,0,0,0-.52,2.88,7,7,0,0,0,1.36,4.28,4.09,4.09,0,0,0,3.36,1.8,4.75,4.75,0,0,0,1.52-.24,10,10,0,0,0,1.64-.76c.62-.35,1-.58,1.24-.68l1.6-.8a37.76,37.76,0,0,1,4.52-2,12.85,12.85,0,0,1,4.28-.68,6.31,6.31,0,0,1,4.44,1.44,5.37,5.37,0,0,1,1.56,4.16q0,4.64-5.28,10.16l-17,17.68A8.75,8.75,0,0,0,81,70.41a6,6,0,0,0,1.68,4.36,6.11,6.11,0,0,0,4.56,1.72h29.2a8,8,0,0,0,5.24-1.44,5.51,5.51,0,0,0,1.72-4.48,5.27,5.27,0,0,0-1.72-4.36C120.49,65.27,118.74,64.81,116.39,64.81Z"/></svg>