<svg id="Layer_1" data-name="Layer 1" xmlns="http://www.w3.org/2000/svg" viewBox="0 0 150 100"><title>s22_1</title><path d="M136.18,99.68H15.37A12.37,12.37,0,0,1,3,87.31V12.69A12.37,12.37,0,0,1,15.37.32H136.18a12.37,12.37,0,0,1,12.37,12.37V87.31A12.37,12.37,0,0,1,136.18,99.68ZM60.41,50.31h0A3.61,3.61,0,0,0,56.8,46.7H16.09a3.61,3.61,0,0,0-3.61,3.61h0a3.61,3.61,0,0,0,3.61,3.61H56.8A3.61,3.61,0,0,0,60.41,50.31ZM45.67,35.05H41.75V12.39a4.15,4.15,0,0,0-1.17-3.11,4.2,4.2,0,0,0-3.09-1.15,8.1,8.1,0,0,0-4,1.2l-7.65,4.44a3.26,3.26,0,0,0-1.67,3,4,4,0,0,0,1,2.6,2.84,2.84,0,0,0,2.29,1.18A3.28,3.28,0,0,0,29.13,20L33,17.79V35.05H29.08a4.81,4.81,0,0,0-3.16.86,3.22,3.22,0,0,0-1,2.58c0,2.36,1.38,3.54,4.16,3.54H45.67q4.15,0,4.16-3.54a3.23,3.23,0,0,0-1-2.58A4.8,4.8,0,0,0,45.67,35.05Zm-1.7,50H34.36l6.79-6.93a22.42,22.42,0,0,0,4-5.38,12.07,12.07,0,0,0,1.17-5.33,8.79,8.79,0,0,0-1.46-5,9.33,9.33,0,0,0-4.13-3.35,15.44,15.44,0,0,0-6.22-1.17,19.5,19.5,0,0,0-10.57,3.25,3.25,3.25,0,0,0-1.17,1.25,4,4,0,0,0-.31,1.72,4.14,4.14,0,0,0,.81,2.56,2.46,2.46,0,0,0,2,1.07,3,3,0,0,0,.91-.14,5.93,5.93,0,0,0,1-.46c.37-.2.61-.34.74-.4l1-.48a23,23,0,0,1,2.7-1.17,7.76,7.76,0,0,1,2.56-.41,3.79,3.79,0,0,1,2.65.86,3.24,3.24,0,0,1,.93,2.49q0,2.78-3.15,6.07L24.41,84.71a5.24,5.24,0,0,0-1.62,3.73,3.55,3.55,0,0,0,1,2.6,3.62,3.62,0,0,0,2.72,1H44a4.83,4.83,0,0,0,3.13-.86,3.32,3.32,0,0,0,1-2.68,3.16,3.16,0,0,0-1-2.6A4.89,4.89,0,0,0,44,85.09ZM87.2,64.23q6.27,0,9.57-4.44c2.2-3,3.29-7.25,3.29-12.87S99,37.08,96.74,34.11s-5.39-4.44-9.54-4.44-7.36,1.48-9.56,4.44-3.3,7.24-3.3,12.81,1.1,9.9,3.3,12.87S83,64.23,87.2,64.23Zm0-6.64a3.43,3.43,0,0,1-3.3-2.49c-.67-1.66-1-4.38-1-8.18s.33-6.5,1-8.15a3.44,3.44,0,0,1,6.6,0q1,2.48,1,8.12c0,3.8-.34,6.52-1,8.18A3.43,3.43,0,0,1,87.2,57.59Zm20.85,6.5a4.39,4.39,0,0,0,3.27-1.34,4.79,4.79,0,0,0,0-6.6,4.39,4.39,0,0,0-3.27-1.34,4.45,4.45,0,0,0-3.32,1.34,4.78,4.78,0,0,0,0,6.6A4.45,4.45,0,0,0,108.05,64.09Zm23.19-22.33a12,12,0,0,0-4.74.86V36.74h10.33q4.15,0,4.16-3.35t-4.16-3.3H122a4.07,4.07,0,0,0-3,1.06,4.15,4.15,0,0,0-1,3.06V47.16a2.62,2.62,0,0,0,.9,2.08,3.31,3.31,0,0,0,2.25.79,4.55,4.55,0,0,0,2.15-.52,16.42,16.42,0,0,1,2.75-.86,13,13,0,0,1,2.61-.24,5.46,5.46,0,0,1,3.73,1.19A4.27,4.27,0,0,1,133.68,53a4.15,4.15,0,0,1-1.29,3.37,6.13,6.13,0,0,1-4,1.08,8.15,8.15,0,0,1-2.66-.43,27.45,27.45,0,0,1-2.7-1.15l-1-.48a15.59,15.59,0,0,0-1.44-.72,3.41,3.41,0,0,0-1.19-.19,2.46,2.46,0,0,0-2,1,3.94,3.94,0,0,0-.82,2.51,3.53,3.53,0,0,0,.36,1.65,4.24,4.24,0,0,0,1.13,1.31,15.65,15.65,0,0,0,4.9,2.39,19.71,19.71,0,0,0,5.81.87,15.42,15.42,0,0,0,6.83-1.44,10.76,10.76,0,0,0,4.59-4.06,11.29,11.29,0,0,0,1.63-6.08A11.48,11.48,0,0,0,140.54,47a9.74,9.74,0,0,0-3.78-3.83A11.12,11.12,0,0,0,131.24,41.76Z"/></svg>