<svg id="Layer_1" data-name="Layer 1" xmlns="http://www.w3.org/2000/svg" viewBox="0 0 200 150"><title>g32</title><path d="M179.85,66.73a13.46,13.46,0,0,0-13.46,13.46V86H155.52c-6.54,0-10-1-13.05-3.92a16.26,16.26,0,0,1-4.71-10.36,12.19,12.19,0,0,1,0-1.28c.18-5.33,4.18-10.39,8.47-12.84,1.68-1,3.45-1.54,13.28-1.82,7.91-.23,11.86,0,16.64,0,6.59,0,13.18-.09,19.77,0,2.95.06,4.14-1,4.1-4-.11-8,0-16,0-24.07,0-4.31-.32-4.62-4.65-4.62q-22.75,0-45.51,0a36.27,36.27,0,0,0-5.32.3,51.53,51.53,0,0,0-25.25,11.69,48.94,48.94,0,0,0-16.09,39.44,44,44,0,0,0,1.66,9.08,1.9,1.9,0,0,1-.07,1.67,1.92,1.92,0,0,1-1.52.46H77.61A29.72,29.72,0,0,0,93.8,75.17C102.4,63.8,98.61,50.25,98,47.91a34.46,34.46,0,0,0-11.37-17.2,33.18,33.18,0,0,0-22.12-7.86L16.83,23l-.08.06A17.91,17.91,0,0,0,.05,40l0,.07v29H0v46.11a2.64,2.64,0,0,0,2.65,2.64H31a2.64,2.64,0,0,0,2.64-2.64V59.52a3,3,0,0,1,3.15-3.79l25.57,0L41.2,73.18a23.68,23.68,0,0,0-3.69,7.61c-3.11,11.36,3.75,21.31,4.7,22.7,5.57,8.06,14.57,14.39,29.27,14.37l114.37-.15c.06,0,.7,0,1.36-.07l.37,0,.85-.13.56-.12c.25,0,.5-.12.77-.2l.45-.13c.34-.11.69-.24,1-.38l.15-.06a13.78,13.78,0,0,0,3.08-1.77,14,14,0,0,0,3.79-4.47l0-.06c.23-.44.41-.82.55-1.16a.3.3,0,0,0,0-.1l.07-.14c.07-.17.11-.33.17-.5s.18-.48.26-.73.13-.5.18-.74.11-.42.15-.64c.08-.41.14-.78.18-1.13l0-.33c0-.14,0-.29,0-.42V104c0-.15,0-.31,0-.47V66.73Z"/></svg>