<svg id="Layer_1" data-name="Layer 1" xmlns="http://www.w3.org/2000/svg" viewBox="0 0 100 100"><title>l32_3_1</title><path d="M83.5,0h-67A16.5,16.5,0,0,0,0,16.5v67A16.5,16.5,0,0,0,16.5,100h67A16.5,16.5,0,0,0,100,83.5v-67A16.5,16.5,0,0,0,83.5,0ZM45.7,87.08H24.88q-5.22,0-5.22-4.44a4,4,0,0,1,1.26-3.24,6,6,0,0,1,4-1.08h4.86V56.66l-4.8,2.82a4.09,4.09,0,0,1-2.1.6A3.61,3.61,0,0,1,20,58.61a5,5,0,0,1-1.2-3.27,4.07,4.07,0,0,1,2.1-3.72L30.46,46a10.14,10.14,0,0,1,5-1.5A5.29,5.29,0,0,1,39.31,46a5.21,5.21,0,0,1,1.47,3.9V78.32H45.7a6,6,0,0,1,4,1.08,4,4,0,0,1,1.26,3.24Q50.92,87.08,45.7,87.08ZM86,40.6A4.38,4.38,0,0,1,87.39,44a4.7,4.7,0,0,1-8.08,3.36l-8.64-8.64L62,47.32a4.53,4.53,0,0,1-3.36,1.36,4.94,4.94,0,0,1-3.36-1.36,4.64,4.64,0,0,1,0-6.72L64,32,55.31,23.4A5,5,0,0,1,54,20a4.7,4.7,0,0,1,1.44-3.44,4.21,4.21,0,0,1,3.28-1.44A4.67,4.67,0,0,1,62,16.68l8.64,8.64,8.64-8.64a4.61,4.61,0,0,1,3.36-1.44A4.42,4.42,0,0,1,86,16.68,4.19,4.19,0,0,1,87.47,20,4.7,4.7,0,0,1,86,23.4L77.39,32Z"/></svg>