<svg id="Layer_1" data-name="Layer 1" xmlns="http://www.w3.org/2000/svg" viewBox="0 0 100 100"><title>l32_1_1</title><path d="M83.5,0h-67A16.5,16.5,0,0,0,0,16.5v67A16.5,16.5,0,0,0,16.5,100h67A16.5,16.5,0,0,0,100,83.5v-67A16.5,16.5,0,0,0,83.5,0Zm-35,53.3L30.28,84.8a5.59,5.59,0,0,1-2.07,2.13,5.14,5.14,0,0,1-2.55.69,5.5,5.5,0,0,1-3.72-1.41,4.4,4.4,0,0,1-1.62-3.45,5.67,5.67,0,0,1,.84-2.88L36.58,53.54h-15a6,6,0,0,1-4-1.08,4.08,4.08,0,0,1-1.23-3.24,4.2,4.2,0,0,1,1.26-3.33,5.89,5.89,0,0,1,4-1.11H45.1a4.27,4.27,0,0,1,3.33,1.29,4.68,4.68,0,0,1,1.17,3.27A7.66,7.66,0,0,1,48.46,53.3ZM88.83,35.36a4.49,4.49,0,0,1-3.36,1.4H75.39v10a4.65,4.65,0,0,1-1.32,3.36,4.51,4.51,0,0,1-3.4,1.36A4.65,4.65,0,0,1,66,46.76v-10H55.87a4.52,4.52,0,0,1-3.36-1.4A4.73,4.73,0,0,1,51.15,32a4.65,4.65,0,0,1,4.72-4.72H66V17.16a4.65,4.65,0,0,1,4.72-4.72,4.65,4.65,0,0,1,4.72,4.72V27.24H85.47A4.65,4.65,0,0,1,90.19,32,4.69,4.69,0,0,1,88.83,35.36Z"/></svg>