<svg id="Layer_1" data-name="Layer 1" xmlns="http://www.w3.org/2000/svg" viewBox="0 0 100 100"><title>l32_3_1</title><path d="M83.5,0h-67A16.5,16.5,0,0,0,0,16.5v67A16.5,16.5,0,0,0,16.5,100h67A16.5,16.5,0,0,0,100,83.5v-67A16.5,16.5,0,0,0,83.5,0ZM47,77.21a17.47,17.47,0,0,1-6.18,7.71,16.25,16.25,0,0,1-9.33,2.7,23.29,23.29,0,0,1-6.87-1.08,19.13,19.13,0,0,1-6-3,5.2,5.2,0,0,1-1.47-1.62,4.41,4.41,0,0,1-.45-2.1,4.83,4.83,0,0,1,1.05-3.15,3.18,3.18,0,0,1,2.55-1.29,3.93,3.93,0,0,1,1.5.27q.66.27,1.8.87l1.32.66q2,1,3.3,1.44a8,8,0,0,0,2.76.48,5.74,5.74,0,0,0,4.95-2.79,16,16,0,0,0,2.25-7.83,9.52,9.52,0,0,1-3.69,3,11.55,11.55,0,0,1-5.07,1.11,12.13,12.13,0,0,1-6.48-1.77,12.38,12.38,0,0,1-4.53-4.92,16,16,0,0,1,.24-14.64,13.37,13.37,0,0,1,5.25-5.19,15.47,15.47,0,0,1,7.62-1.86q8.46,0,13.08,5.52t4.62,15.72A29.09,29.09,0,0,1,47,77.21ZM86,40.6A4.38,4.38,0,0,1,87.39,44a4.7,4.7,0,0,1-8.08,3.36l-8.64-8.64L62,47.32a4.53,4.53,0,0,1-3.36,1.36,4.94,4.94,0,0,1-3.36-1.36,4.64,4.64,0,0,1,0-6.72L64,32,55.31,23.4A5,5,0,0,1,54,20a4.7,4.7,0,0,1,1.44-3.44,4.21,4.21,0,0,1,3.28-1.44A4.67,4.67,0,0,1,62,16.68l8.64,8.64,8.64-8.64a4.61,4.61,0,0,1,3.36-1.44A4.42,4.42,0,0,1,86,16.68,4.19,4.19,0,0,1,87.47,20,4.7,4.7,0,0,1,86,23.4L77.39,32Z"/><path d="M32.14,52.7a4.72,4.72,0,0,0-3.72,1.56A6,6,0,0,0,27,58.4a6.08,6.08,0,0,0,1.35,4.17,4.74,4.74,0,0,0,3.75,1.53,4.81,4.81,0,0,0,3.75-1.56,6.68,6.68,0,0,0,0-8.25A4.79,4.79,0,0,0,32.14,52.7Z"/></svg>