<svg id="Layer_1" data-name="Layer 1" xmlns="http://www.w3.org/2000/svg" viewBox="0 0 100 100"><title>l32_1_1</title><path d="M48,58.33a3.58,3.58,0,0,0-3.45,2.58q-1.05,2.58-1.05,8.52T44.53,78a3.59,3.59,0,0,0,6.9,0q1.05-2.6,1-8.55t-1-8.5A3.59,3.59,0,0,0,48,58.33Z"/><path d="M83.5,0h-67A16.5,16.5,0,0,0,0,16.5v67A16.5,16.5,0,0,0,16.5,100h67A16.5,16.5,0,0,0,100,83.5v-67A16.5,16.5,0,0,0,83.5,0ZM28.58,87.08H11.23q-4.35,0-4.35-3.7a3.36,3.36,0,0,1,1-2.7,5,5,0,0,1,3.3-.9h4V61.73l-4,2.35a3.36,3.36,0,0,1-1.75.5,3,3,0,0,1-2.4-1.22,4.21,4.21,0,0,1-1-2.73,3.4,3.4,0,0,1,1.75-3.1l8-4.65A8.5,8.5,0,0,1,20,51.63a4.43,4.43,0,0,1,3.23,1.2,4.37,4.37,0,0,1,1.22,3.25v23.7h4.1a5,5,0,0,1,3.3.9,3.36,3.36,0,0,1,1.05,2.7Q32.93,87.09,28.58,87.08ZM58,82.88q-3.45,4.65-10,4.65T38,82.88q-3.45-4.65-3.45-13.45T38,56q3.45-4.65,10-4.65T58,56q3.48,4.65,3.48,13.4T58,82.88ZM88.83,35.36a4.49,4.49,0,0,1-3.36,1.4H75.39v10a4.65,4.65,0,0,1-1.32,3.36,4.51,4.51,0,0,1-3.4,1.36A4.65,4.65,0,0,1,66,46.76v-10H55.87a4.52,4.52,0,0,1-3.36-1.4A4.73,4.73,0,0,1,51.15,32a4.65,4.65,0,0,1,4.72-4.72H66V17.16a4.65,4.65,0,0,1,4.72-4.72,4.65,4.65,0,0,1,4.72,4.72V27.24H85.47A4.65,4.65,0,0,1,90.19,32,4.69,4.69,0,0,1,88.83,35.36Z"/></svg>