<svg id="Layer_1" data-name="Layer 1" xmlns="http://www.w3.org/2000/svg" viewBox="0 0 100 100"><title>l32_2_1</title><path d="M83.5,0h-67A16.5,16.5,0,0,0,0,16.5v67A16.5,16.5,0,0,0,16.5,100h67A16.5,16.5,0,0,0,100,83.5v-67A16.5,16.5,0,0,0,83.5,0ZM45.88,79.94H44.56v2a5.27,5.27,0,0,1-1.5,4.08,5.53,5.53,0,0,1-3.9,1.38,5.42,5.42,0,0,1-3.87-1.38A5.33,5.33,0,0,1,33.82,82v-2H20.44A4.5,4.5,0,0,1,17,78.62a4.59,4.59,0,0,1-1.26-3.3,6.72,6.72,0,0,1,1.32-4L34.24,46.88a5.52,5.52,0,0,1,2.13-1.83A6,6,0,0,1,39,44.42a5.67,5.67,0,0,1,3.9,1.44,5.11,5.11,0,0,1,1.62,4V71.54h1.32q5.22,0,5.22,4.14T45.88,79.94ZM83.19,37.6a7.25,7.25,0,0,1-5,1.48h-15q-6.63,0-6.64-5.6T63.15,28h15a7.41,7.41,0,0,1,5,1.44,5.12,5.12,0,0,1,1.64,4.08A5.25,5.25,0,0,1,83.19,37.6Z"/><polygon points="33.82 71.54 33.82 61.16 26.62 71.54 33.82 71.54"/></svg>