<svg id="Layer_1" data-name="Layer 1" xmlns="http://www.w3.org/2000/svg" viewBox="0 0 100 100"><title>l32_1_1</title><path d="M83.5,0h-67A16.5,16.5,0,0,0,0,16.5v67A16.5,16.5,0,0,0,16.5,100h67A16.5,16.5,0,0,0,100,83.5v-67A16.5,16.5,0,0,0,83.5,0ZM46.18,81.92a12.62,12.62,0,0,1-5.61,4.17,22.52,22.52,0,0,1-8.49,1.47,26.65,26.65,0,0,1-7.5-1,19.29,19.29,0,0,1-6.24-3,4.2,4.2,0,0,1-1.86-3.72,4.92,4.92,0,0,1,1-3.15A3.1,3.1,0,0,1,20,75.32a3.93,3.93,0,0,1,1.5.27q.66.27,1.8.87l.57.27.75.33a26.83,26.83,0,0,0,3.45,1.47,10.88,10.88,0,0,0,3.45.51Q34.9,79,36.37,78a4.17,4.17,0,0,0,1.47-3.6A3.77,3.77,0,0,0,36.34,71a9,9,0,0,0-4.92-1H27.7a3.43,3.43,0,0,1-2.82-1.26,4.92,4.92,0,0,1,0-6,3.43,3.43,0,0,1,2.82-1.26h2.64a9.19,9.19,0,0,0,4.8-1,3.36,3.36,0,0,0,1.5-3.06A4.48,4.48,0,0,0,35.32,54a5.16,5.16,0,0,0-3.66-1.23,9.06,9.06,0,0,0-3.15.54,32.39,32.39,0,0,0-3.27,1.44l-1.26.6q-1.14.6-1.8.87a3.93,3.93,0,0,1-1.5.27,3.1,3.1,0,0,1-2.52-1.29,4.92,4.92,0,0,1-1-3.15,4.68,4.68,0,0,1,.42-2.1A4.84,4.84,0,0,1,19,48.32a19.91,19.91,0,0,1,6.09-3,24.05,24.05,0,0,1,7.11-1.08A19.89,19.89,0,0,1,40,45.68a11.74,11.74,0,0,1,5.22,4.08,10.48,10.48,0,0,1,1.83,6.12,10,10,0,0,1-1.71,5.79A9.73,9.73,0,0,1,40.6,65.3,10.21,10.21,0,0,1,46.15,69a10.64,10.64,0,0,1,2,6.54A10.46,10.46,0,0,1,46.18,81.92ZM88.83,35.36a4.49,4.49,0,0,1-3.36,1.4H75.39v10a4.65,4.65,0,0,1-1.32,3.36,4.51,4.51,0,0,1-3.4,1.36A4.65,4.65,0,0,1,66,46.76v-10H55.87a4.52,4.52,0,0,1-3.36-1.4A4.73,4.73,0,0,1,51.15,32a4.65,4.65,0,0,1,4.72-4.72H66V17.16a4.65,4.65,0,0,1,4.72-4.72,4.65,4.65,0,0,1,4.72,4.72V27.24H85.47A4.65,4.65,0,0,1,90.19,32,4.69,4.69,0,0,1,88.83,35.36Z"/></svg>