<svg id="Layer_1" data-name="Layer 1" xmlns="http://www.w3.org/2000/svg" viewBox="0 0 100 100"><title>l32_2_1</title><path d="M83.12,0h-67A16.5,16.5,0,0,0-.38,16.5v67A16.5,16.5,0,0,0,16.12,100h67a16.5,16.5,0,0,0,16.5-16.5v-67A16.5,16.5,0,0,0,83.12,0ZM28.17,87.08H10.82q-4.35,0-4.35-3.7a3.36,3.36,0,0,1,1-2.7,5,5,0,0,1,3.3-.9h4V61.73l-4,2.35a3.36,3.36,0,0,1-1.75.5,3,3,0,0,1-2.4-1.22,4.21,4.21,0,0,1-1-2.73,3.4,3.4,0,0,1,1.75-3.1l8-4.65a8.5,8.5,0,0,1,4.15-1.25,4.43,4.43,0,0,1,3.23,1.2,4.37,4.37,0,0,1,1.22,3.25v23.7h4.1a5,5,0,0,1,3.3.9,3.36,3.36,0,0,1,1.05,2.7Q32.52,87.09,28.17,87.08Zm32-.9a5,5,0,0,1-3.28.9H38.62a3.64,3.64,0,0,1-3.9-3.8,5.5,5.5,0,0,1,1.7-3.9l10.6-11c2.2-2.3,3.3-4.41,3.3-6.35a3.37,3.37,0,0,0-1-2.6,3.91,3.91,0,0,0-2.77-.9,8.12,8.12,0,0,0-2.67.43,24.11,24.11,0,0,0-2.83,1.22l-1,.5-.78.43a5.55,5.55,0,0,1-1,.47,3,3,0,0,1-1,.15,2.55,2.55,0,0,1-2.1-1.12,4.81,4.81,0,0,1-.52-4.48,3.29,3.29,0,0,1,1.22-1.3,20.39,20.39,0,0,1,11-3.4,16,16,0,0,1,6.5,1.23,9.69,9.69,0,0,1,4.32,3.5,9.15,9.15,0,0,1,1.53,5.22,12.55,12.55,0,0,1-1.23,5.58,23,23,0,0,1-4.17,5.62l-7.1,7.25h10a5.16,5.16,0,0,1,3.28.88,3.32,3.32,0,0,1,1.07,2.72A3.46,3.46,0,0,1,60.15,86.18ZM82.81,37.6a7.27,7.27,0,0,1-5,1.48h-15q-6.65,0-6.64-5.6T62.77,28h15a7.42,7.42,0,0,1,5,1.44,5.15,5.15,0,0,1,1.64,4.08A5.28,5.28,0,0,1,82.81,37.6Z"/></svg>