<svg id="Layer_1" data-name="Layer 1" xmlns="http://www.w3.org/2000/svg" viewBox="0 0 100 100"><title>l32_4_1</title><ellipse cx="32.98" cy="74.54" rx="6.54" ry="4.68"/><path d="M33,61.52a6.27,6.27,0,0,0,4-1.08A4.17,4.17,0,0,0,38.32,57,4.07,4.07,0,0,0,37,53.63a6.4,6.4,0,0,0-4-1.05,6.4,6.4,0,0,0-4,1.05A4.07,4.07,0,0,0,27.64,57,4.17,4.17,0,0,0,29,60.44,6.27,6.27,0,0,0,33,61.52Z"/><path d="M83.5,0h-67A16.5,16.5,0,0,0,0,16.5v67A16.5,16.5,0,0,0,16.5,100h67A16.5,16.5,0,0,0,100,83.5v-67A16.5,16.5,0,0,0,83.5,0ZM67.15,12.88a4.8,4.8,0,0,1,3.6-1.48,4.88,4.88,0,0,1,3.64,1.52,5,5,0,0,1,1.48,3.6,5.06,5.06,0,0,1-1.48,3.68,4.88,4.88,0,0,1-3.64,1.52,4.77,4.77,0,0,1-3.6-1.52,5.15,5.15,0,0,1-1.44-3.68A5,5,0,0,1,67.15,12.88Zm-22,71.47Q40.72,87.56,33,87.56T20.77,84.35a10.36,10.36,0,0,1-4.47-8.91,10.56,10.56,0,0,1,2-6.57,10,10,0,0,1,5.64-3.57,9.87,9.87,0,0,1-4.8-3.69,10.21,10.21,0,0,1-1.68-5.85,9.91,9.91,0,0,1,4.2-8.43q4.2-3.09,11.34-3.09t11.37,3.09a9.93,9.93,0,0,1,4.17,8.43,10.43,10.43,0,0,1-1.71,6A9,9,0,0,1,42.1,65.3a10.8,10.8,0,0,1,3.09,19Zm29.2-33.27a4.88,4.88,0,0,1-3.64,1.52,4.8,4.8,0,0,1-3.6-1.48,5,5,0,0,1-1.44-3.64,5.15,5.15,0,0,1,1.44-3.68,4.77,4.77,0,0,1,3.6-1.52,4.88,4.88,0,0,1,3.64,1.52,5.06,5.06,0,0,1,1.48,3.68A5,5,0,0,1,74.39,51.08ZM89.31,35.36A4.49,4.49,0,0,1,86,36.76H56.35A4.65,4.65,0,0,1,51.63,32,4.73,4.73,0,0,1,53,28.64a4.52,4.52,0,0,1,3.36-1.4H86A4.65,4.65,0,0,1,90.67,32,4.69,4.69,0,0,1,89.31,35.36Z"/></svg>