<svg id="Layer_1" data-name="Layer 1" xmlns="http://www.w3.org/2000/svg" viewBox="0 0 100 100"><title>l32_2_1</title><path d="M33.82,79.16a4.72,4.72,0,0,0,3.72-1.56,6,6,0,0,0,1.38-4.14,6.08,6.08,0,0,0-1.35-4.17,4.74,4.74,0,0,0-3.75-1.53,4.81,4.81,0,0,0-3.75,1.56,6.68,6.68,0,0,0,0,8.25A4.79,4.79,0,0,0,33.82,79.16Z"/><path d="M83.5,0h-67A16.5,16.5,0,0,0,0,16.5v67A16.5,16.5,0,0,0,16.5,100h67A16.5,16.5,0,0,0,100,83.5v-67A16.5,16.5,0,0,0,83.5,0Zm-52,60.35a11.55,11.55,0,0,1,5.07-1.11A12.13,12.13,0,0,1,43.06,61a12.38,12.38,0,0,1,4.53,4.92,16,16,0,0,1-.24,14.64,13.37,13.37,0,0,1-5.25,5.19,15.47,15.47,0,0,1-7.62,1.86Q26,87.62,21.4,82.1T16.78,66.38A29.09,29.09,0,0,1,19,54.65a17.47,17.47,0,0,1,6.18-7.71,16.25,16.25,0,0,1,9.33-2.7,23.29,23.29,0,0,1,6.87,1.08,19.13,19.13,0,0,1,6,3,5.2,5.2,0,0,1,1.47,1.62A4.41,4.41,0,0,1,49.3,52a4.83,4.83,0,0,1-1,3.15,3.18,3.18,0,0,1-2.55,1.29,3.93,3.93,0,0,1-1.5-.27q-.66-.27-1.8-.87l-1.32-.66q-2-1-3.3-1.44A8,8,0,0,0,35,52.76a5.74,5.74,0,0,0-5,2.79,16,16,0,0,0-2.25,7.83A9.52,9.52,0,0,1,31.51,60.35ZM83.19,37.6a7.25,7.25,0,0,1-5,1.48h-15q-6.63,0-6.64-5.6T63.15,28h15a7.41,7.41,0,0,1,5,1.44,5.12,5.12,0,0,1,1.64,4.08A5.25,5.25,0,0,1,83.19,37.6Z"/></svg>