<svg id="Layer_1" data-name="Layer 1" xmlns="http://www.w3.org/2000/svg" viewBox="0 0 100 100"><title>l32_4_1</title><path d="M83.12,0h-67A16.5,16.5,0,0,0-.38,16.5v67A16.5,16.5,0,0,0,16.12,100h67a16.5,16.5,0,0,0,16.5-16.5v-67A16.5,16.5,0,0,0,83.12,0ZM66.77,12.88a4.8,4.8,0,0,1,3.6-1.48A4.9,4.9,0,0,1,74,12.92a5,5,0,0,1,1.48,3.6A5.06,5.06,0,0,1,74,20.2a4.9,4.9,0,0,1-3.64,1.52,4.77,4.77,0,0,1-3.6-1.52,5.15,5.15,0,0,1-1.44-3.68A5,5,0,0,1,66.77,12.88ZM28.2,87.08H10.85q-4.35,0-4.35-3.7a3.36,3.36,0,0,1,1-2.7,5,5,0,0,1,3.3-.9H14.9V61.73l-4,2.35a3.36,3.36,0,0,1-1.75.5,3,3,0,0,1-2.4-1.22,4.21,4.21,0,0,1-1-2.73,3.4,3.4,0,0,1,1.75-3.1l8-4.65a8.47,8.47,0,0,1,4.15-1.25,4.41,4.41,0,0,1,3.22,1.2,4.34,4.34,0,0,1,1.23,3.25v23.7h4.1a5,5,0,0,1,3.3.9,3.36,3.36,0,0,1,1,2.7Q32.55,87.09,28.2,87.08Zm30,0H40.85q-4.35,0-4.35-3.7a3.36,3.36,0,0,1,1-2.7,5,5,0,0,1,3.3-.9h4V61.73l-4,2.35a3.3,3.3,0,0,1-1.75.5,3,3,0,0,1-2.39-1.22,4.21,4.21,0,0,1-1-2.73,3.4,3.4,0,0,1,1.75-3.1l8-4.65a8.46,8.46,0,0,1,4.14-1.25,4.42,4.42,0,0,1,3.23,1.2,4.34,4.34,0,0,1,1.23,3.25v23.7h4.1a5,5,0,0,1,3.3.9,3.36,3.36,0,0,1,1,2.7Q62.55,87.09,58.2,87.08ZM74,51.08a4.9,4.9,0,0,1-3.64,1.52,4.8,4.8,0,0,1-3.6-1.48,5,5,0,0,1-1.44-3.64,5.15,5.15,0,0,1,1.44-3.68,4.77,4.77,0,0,1,3.6-1.52A4.9,4.9,0,0,1,74,43.8a5.06,5.06,0,0,1,1.48,3.68A5,5,0,0,1,74,51.08ZM88.93,35.36a4.52,4.52,0,0,1-3.36,1.4H56A4.65,4.65,0,0,1,51.25,32a4.69,4.69,0,0,1,1.36-3.4A4.52,4.52,0,0,1,56,27.24h29.6A4.65,4.65,0,0,1,90.29,32,4.69,4.69,0,0,1,88.93,35.36Z"/></svg>