<svg id="Layer_1" data-name="Layer 1" xmlns="http://www.w3.org/2000/svg" viewBox="0 0 100 100"><title>l32_3_1</title><path d="M83.12,0h-67A16.5,16.5,0,0,0-.38,16.5v67A16.5,16.5,0,0,0,16.12,100h67a16.5,16.5,0,0,0,16.5-16.5v-67A16.5,16.5,0,0,0,83.12,0ZM28.17,87.08H10.82q-4.35,0-4.35-3.7a3.36,3.36,0,0,1,1-2.7,5,5,0,0,1,3.3-.9h4V61.73l-4,2.35a3.36,3.36,0,0,1-1.75.5,3,3,0,0,1-2.4-1.22,4.21,4.21,0,0,1-1-2.73,3.4,3.4,0,0,1,1.75-3.1l8-4.65a8.5,8.5,0,0,1,4.15-1.25,4.39,4.39,0,0,1,3.22,1.2,4.34,4.34,0,0,1,1.23,3.25v23.7h4.1a5,5,0,0,1,3.3.9,3.36,3.36,0,0,1,1.05,2.7Q32.52,87.09,28.17,87.08Zm32-.9a5,5,0,0,1-3.27.9H38.62a3.64,3.64,0,0,1-3.9-3.8,5.5,5.5,0,0,1,1.7-3.9l10.6-11c2.2-2.3,3.3-4.41,3.3-6.35a3.37,3.37,0,0,0-1-2.6,3.93,3.93,0,0,0-2.77-.9,8.23,8.23,0,0,0-2.68.43,24.79,24.79,0,0,0-2.82,1.22l-1,.5-.77.43a5.92,5.92,0,0,1-1,.47,3,3,0,0,1-1,.15,2.55,2.55,0,0,1-2.1-1.12,4.29,4.29,0,0,1-.85-2.68,4.43,4.43,0,0,1,.32-1.8,3.4,3.4,0,0,1,1.23-1.3,20.32,20.32,0,0,1,11-3.4,16,16,0,0,1,6.5,1.23,9.77,9.77,0,0,1,4.33,3.5,9.22,9.22,0,0,1,1.52,5.22,12.55,12.55,0,0,1-1.23,5.58,23,23,0,0,1-4.17,5.62l-7.1,7.25h10a5.11,5.11,0,0,1,3.27.88,3.29,3.29,0,0,1,1.08,2.72A3.44,3.44,0,0,1,60.14,86.18ZM85.65,40.6A4.41,4.41,0,0,1,87,44a4.7,4.7,0,0,1-8.08,3.36l-8.64-8.64-8.64,8.64a4.56,4.56,0,0,1-3.36,1.36,4.9,4.9,0,0,1-3.36-1.36,4.64,4.64,0,0,1,0-6.72L63.57,32,54.93,23.4A4.9,4.9,0,0,1,53.57,20,4.7,4.7,0,0,1,55,16.6a4.19,4.19,0,0,1,3.28-1.44,4.68,4.68,0,0,1,3.36,1.52l8.64,8.64,8.64-8.64a4.61,4.61,0,0,1,3.36-1.44,4.45,4.45,0,0,1,3.36,1.44A4.19,4.19,0,0,1,87.09,20a4.7,4.7,0,0,1-1.44,3.44L77,32Z"/></svg>