<svg id="Layer_1" data-name="Layer 1" xmlns="http://www.w3.org/2000/svg" viewBox="0 0 100 100"><title>l32_2_1</title><path d="M83.12,0h-67A16.5,16.5,0,0,0-.38,16.5v67A16.5,16.5,0,0,0,16.12,100h67a16.5,16.5,0,0,0,16.5-16.5v-67A16.5,16.5,0,0,0,83.12,0ZM28.2,87.08H10.85q-4.35,0-4.35-3.7a3.36,3.36,0,0,1,1-2.7,5,5,0,0,1,3.3-.9H14.9V61.73l-4,2.35a3.36,3.36,0,0,1-1.75.5,3,3,0,0,1-2.4-1.22,4.21,4.21,0,0,1-1-2.73,3.4,3.4,0,0,1,1.75-3.1l8-4.65a8.47,8.47,0,0,1,4.15-1.25,4.41,4.41,0,0,1,3.22,1.2,4.34,4.34,0,0,1,1.23,3.25v23.7h4.1a5,5,0,0,1,3.3.9,3.36,3.36,0,0,1,1,2.7Q32.55,87.09,28.2,87.08Zm30,0H40.85c-2.9,0-4.36-1.23-4.36-3.7a3.37,3.37,0,0,1,1.06-2.7,5,5,0,0,1,3.3-.9h4V61.73l-4,2.35a3.38,3.38,0,0,1-1.75.5,3,3,0,0,1-2.41-1.22,4.26,4.26,0,0,1-1-2.73,3.42,3.42,0,0,1,1.75-3.1l8-4.65a8.53,8.53,0,0,1,4.16-1.25,4.41,4.41,0,0,1,3.22,1.2,4.34,4.34,0,0,1,1.23,3.25v23.7h4.1a5,5,0,0,1,3.29.9,3.33,3.33,0,0,1,1.06,2.7Q62.55,87.09,58.2,87.08ZM82.81,37.6a7.27,7.27,0,0,1-5,1.48h-15q-6.65,0-6.64-5.6T62.77,28h15a7.42,7.42,0,0,1,5,1.44,5.15,5.15,0,0,1,1.64,4.08A5.28,5.28,0,0,1,82.81,37.6Z"/></svg>