<svg id="Layer_1" data-name="Layer 1" xmlns="http://www.w3.org/2000/svg" viewBox="0 0 100 100"><title>l32_4_1</title><path d="M83.5,0h-67A16.5,16.5,0,0,0,0,16.5v67A16.5,16.5,0,0,0,16.5,100h67A16.5,16.5,0,0,0,100,83.5v-67A16.5,16.5,0,0,0,83.5,0ZM67.15,12.88a4.8,4.8,0,0,1,3.6-1.48,4.88,4.88,0,0,1,3.64,1.52,5,5,0,0,1,1.48,3.6,5.06,5.06,0,0,1-1.48,3.68,4.88,4.88,0,0,1-3.64,1.52,4.77,4.77,0,0,1-3.6-1.52,5.15,5.15,0,0,1-1.44-3.68A5,5,0,0,1,67.15,12.88ZM45.7,87.08H24.88q-5.22,0-5.22-4.44a4,4,0,0,1,1.26-3.24,6,6,0,0,1,4-1.08h4.86V56.66l-4.8,2.82a4.09,4.09,0,0,1-2.1.6A3.61,3.61,0,0,1,20,58.61a5,5,0,0,1-1.2-3.27,4.07,4.07,0,0,1,2.1-3.72L30.46,46a10.14,10.14,0,0,1,5-1.5A5.29,5.29,0,0,1,39.31,46a5.21,5.21,0,0,1,1.47,3.9V78.32H45.7a6,6,0,0,1,4,1.08,4,4,0,0,1,1.26,3.24Q50.92,87.08,45.7,87.08Zm28.69-36a4.88,4.88,0,0,1-3.64,1.52,4.8,4.8,0,0,1-3.6-1.48,5,5,0,0,1-1.44-3.64,5.15,5.15,0,0,1,1.44-3.68,4.77,4.77,0,0,1,3.6-1.52,4.88,4.88,0,0,1,3.64,1.52,5.06,5.06,0,0,1,1.48,3.68A5,5,0,0,1,74.39,51.08ZM89.31,35.36A4.49,4.49,0,0,1,86,36.76H56.35A4.65,4.65,0,0,1,51.63,32,4.73,4.73,0,0,1,53,28.64a4.52,4.52,0,0,1,3.36-1.4H86A4.65,4.65,0,0,1,90.67,32,4.69,4.69,0,0,1,89.31,35.36Z"/></svg>