<svg id="Layer_1" data-name="Layer 1" xmlns="http://www.w3.org/2000/svg" viewBox="0 0 100 100"><title>l32_4_1</title><path d="M83.12,0h-67A16.5,16.5,0,0,0-.38,16.5v67A16.5,16.5,0,0,0,16.12,100h67a16.5,16.5,0,0,0,16.5-16.5v-67A16.5,16.5,0,0,0,83.12,0ZM66.77,12.88a4.8,4.8,0,0,1,3.6-1.48A4.9,4.9,0,0,1,74,12.92a5,5,0,0,1,1.48,3.6A5.06,5.06,0,0,1,74,20.2a4.9,4.9,0,0,1-3.64,1.52,4.77,4.77,0,0,1-3.6-1.52,5.15,5.15,0,0,1-1.44-3.68A5,5,0,0,1,66.77,12.88ZM28.2,87.08H10.84q-4.33,0-4.34-3.7a3.33,3.33,0,0,1,1-2.7,5,5,0,0,1,3.29-.9H14.9V61.73l-4,2.35a3.36,3.36,0,0,1-1.75.5,3,3,0,0,1-2.4-1.22,4.21,4.21,0,0,1-1-2.73,3.4,3.4,0,0,1,1.75-3.1l8-4.65a8.44,8.44,0,0,1,4.15-1.25,4.41,4.41,0,0,1,3.22,1.2,4.34,4.34,0,0,1,1.22,3.25v23.7H28.2a5,5,0,0,1,3.3.9,3.36,3.36,0,0,1,1,2.7C32.55,85.85,31.09,87.08,28.2,87.08Zm31.3-5.35A11.26,11.26,0,0,1,54.69,86a16.16,16.16,0,0,1-7.14,1.5,20.87,20.87,0,0,1-6.08-.9,16.57,16.57,0,0,1-5.13-2.5,4.44,4.44,0,0,1-1.17-1.37A3.71,3.71,0,0,1,34.8,81a4.13,4.13,0,0,1,.84-2.62,2.59,2.59,0,0,1,2.11-1.08,3.48,3.48,0,0,1,1.25.2q.49.21,1.5.75l1,.5a27.49,27.49,0,0,0,2.82,1.2,8.25,8.25,0,0,0,2.77.45,6.44,6.44,0,0,0,4.16-1.12,4.37,4.37,0,0,0,1.34-3.53,4.44,4.44,0,0,0-1.4-3.5A5.65,5.65,0,0,0,47.3,71a14.26,14.26,0,0,0-2.73.25,18.66,18.66,0,0,0-2.88.9,4.68,4.68,0,0,1-2.25.55,3.47,3.47,0,0,1-2.35-.82,2.76,2.76,0,0,1-1-2.18V56.13a4.32,4.32,0,0,1,1.11-3.2,4.26,4.26,0,0,1,3.14-1.1h15.5q4.36,0,4.36,3.45c0,2.34-1.45,3.5-4.36,3.5H45.09v6.15a12.55,12.55,0,0,1,5-.9,11.54,11.54,0,0,1,5.77,1.43,10.13,10.13,0,0,1,4,4,12,12,0,0,1,1.42,5.92A11.84,11.84,0,0,1,59.5,81.73ZM74,51.08a4.9,4.9,0,0,1-3.64,1.52,4.8,4.8,0,0,1-3.6-1.48,5,5,0,0,1-1.44-3.64,5.15,5.15,0,0,1,1.44-3.68,4.77,4.77,0,0,1,3.6-1.52A4.9,4.9,0,0,1,74,43.8a5.06,5.06,0,0,1,1.48,3.68A5,5,0,0,1,74,51.08ZM88.93,35.36a4.52,4.52,0,0,1-3.36,1.4H56A4.65,4.65,0,0,1,51.25,32a4.69,4.69,0,0,1,1.36-3.4A4.49,4.49,0,0,1,56,27.24h29.6A4.65,4.65,0,0,1,90.29,32,4.69,4.69,0,0,1,88.93,35.36Z"/></svg>