<svg id="Layer_1" data-name="Layer 1" xmlns="http://www.w3.org/2000/svg" viewBox="0 0 100 100"><title>l32_3_1</title><path d="M83.12,0h-67A16.5,16.5,0,0,0-.38,16.5v67A16.5,16.5,0,0,0,16.12,100h67a16.5,16.5,0,0,0,16.5-16.5v-67A16.5,16.5,0,0,0,83.12,0ZM28.2,87.08H10.85q-4.35,0-4.35-3.7a3.36,3.36,0,0,1,1-2.7,5,5,0,0,1,3.3-.9H14.9V61.73l-4,2.35a3.36,3.36,0,0,1-1.75.5,3,3,0,0,1-2.4-1.22,4.21,4.21,0,0,1-1-2.73,3.4,3.4,0,0,1,1.75-3.1l8-4.65a8.47,8.47,0,0,1,4.15-1.25,4.41,4.41,0,0,1,3.22,1.2,4.34,4.34,0,0,1,1.23,3.25v23.7h4.1a5,5,0,0,1,3.3.9,3.36,3.36,0,0,1,1,2.7Q32.55,87.09,28.2,87.08Zm30,0H40.84q-4.34,0-4.34-3.7a3.33,3.33,0,0,1,1-2.7,5,5,0,0,1,3.29-.9h4V61.73l-4,2.35a3.3,3.3,0,0,1-1.75.5,3,3,0,0,1-2.39-1.22,4.21,4.21,0,0,1-1-2.73,3.4,3.4,0,0,1,1.75-3.1l8-4.65a8.43,8.43,0,0,1,4.14-1.25,4.42,4.42,0,0,1,3.23,1.2,4.34,4.34,0,0,1,1.22,3.25v23.7H58.2a5,5,0,0,1,3.3.9,3.36,3.36,0,0,1,1,2.7C62.55,85.85,61.09,87.08,58.2,87.08ZM85.65,40.6A4.41,4.41,0,0,1,87,44a4.7,4.7,0,0,1-8.08,3.36l-8.64-8.64-8.64,8.64a4.56,4.56,0,0,1-3.36,1.36,4.9,4.9,0,0,1-3.36-1.36,4.64,4.64,0,0,1,0-6.72L63.57,32,54.93,23.4A4.9,4.9,0,0,1,53.57,20,4.7,4.7,0,0,1,55,16.6a4.19,4.19,0,0,1,3.28-1.44,4.7,4.7,0,0,1,3.36,1.52l8.64,8.64,8.64-8.64a4.61,4.61,0,0,1,3.36-1.44,4.45,4.45,0,0,1,3.36,1.44A4.19,4.19,0,0,1,87.09,20a4.7,4.7,0,0,1-1.44,3.44L77,32Z"/></svg>