<svg id="Layer_1" data-name="Layer 1" xmlns="http://www.w3.org/2000/svg" viewBox="0 0 100 100"><title>l32_1_1</title><path d="M83.5,0h-67A16.5,16.5,0,0,0,0,16.5v67A16.5,16.5,0,0,0,16.5,100h67A16.5,16.5,0,0,0,100,83.5v-67A16.5,16.5,0,0,0,83.5,0ZM48,86a6,6,0,0,1-3.93,1.08H22.21a4.56,4.56,0,0,1-3.42-1.29,4.49,4.49,0,0,1-1.26-3.27,6.57,6.57,0,0,1,2-4.68L32.29,64.58q4-4.14,4-7.62a4,4,0,0,0-1.17-3.12,4.73,4.73,0,0,0-3.33-1.08,9.73,9.73,0,0,0-3.21.51,29,29,0,0,0-3.39,1.47l-1.2.6-.93.51a7.18,7.18,0,0,1-1.23.57,3.58,3.58,0,0,1-1.14.18,3.06,3.06,0,0,1-2.52-1.35,5.78,5.78,0,0,1-.63-5.37A4,4,0,0,1,19,48.32a24.42,24.42,0,0,1,13.26-4.08A19.31,19.31,0,0,1,40,45.71a11.71,11.71,0,0,1,5.19,4.2,11,11,0,0,1,1.83,6.27,15.12,15.12,0,0,1-1.47,6.69,28.08,28.08,0,0,1-5,6.75l-8.52,8.7H44.11A6.15,6.15,0,0,1,48,79.37a4,4,0,0,1,1.29,3.27A4.12,4.12,0,0,1,48,86ZM88.83,35.36a4.49,4.49,0,0,1-3.36,1.4H75.39v10a4.65,4.65,0,0,1-1.32,3.36,4.51,4.51,0,0,1-3.4,1.36A4.65,4.65,0,0,1,66,46.76v-10H55.87a4.52,4.52,0,0,1-3.36-1.4A4.73,4.73,0,0,1,51.15,32a4.65,4.65,0,0,1,4.72-4.72H66V17.16a4.65,4.65,0,0,1,4.72-4.72,4.65,4.65,0,0,1,4.72,4.72V27.24H85.47A4.65,4.65,0,0,1,90.19,32,4.69,4.69,0,0,1,88.83,35.36Z"/></svg>