<svg id="Layer_1" data-name="Layer 1" xmlns="http://www.w3.org/2000/svg" viewBox="0 0 100 100"><title>l32_1_1</title><polygon points="48.3 74.13 48.3 65.48 42.3 74.13 48.3 74.13"/><path d="M83.12,0h-67A16.5,16.5,0,0,0-.38,16.5v67A16.5,16.5,0,0,0,16.12,100h67a16.5,16.5,0,0,0,16.5-16.5v-67A16.5,16.5,0,0,0,83.12,0ZM28.2,87.08H10.85q-4.35,0-4.35-3.7a3.36,3.36,0,0,1,1-2.7,5,5,0,0,1,3.3-.9H14.9V61.73l-4,2.35a3.36,3.36,0,0,1-1.75.5,3,3,0,0,1-2.4-1.22,4.21,4.21,0,0,1-1-2.73,3.4,3.4,0,0,1,1.75-3.1l8-4.65a8.47,8.47,0,0,1,4.15-1.25,4.41,4.41,0,0,1,3.22,1.2,4.34,4.34,0,0,1,1.23,3.25v23.7h4.1a5,5,0,0,1,3.3.9,3.36,3.36,0,0,1,1,2.7Q32.55,87.09,28.2,87.08Zm30.15-6H57.24v1.7A4.36,4.36,0,0,1,56,86.23a4.58,4.58,0,0,1-3.25,1.15,4.5,4.5,0,0,1-3.22-1.15,4.42,4.42,0,0,1-1.22-3.4v-1.7H37.15A3.71,3.71,0,0,1,34.3,80a3.83,3.83,0,0,1-1.06-2.75A5.6,5.6,0,0,1,34.35,74l14.3-20.4a4.56,4.56,0,0,1,1.77-1.52,5,5,0,0,1,2.23-.53,4.75,4.75,0,0,1,3.25,1.2,4.25,4.25,0,0,1,1.34,3.35v18h1.11c2.89,0,4.35,1.15,4.35,3.45S61.24,81.13,58.35,81.13Zm30.1-45.77a4.52,4.52,0,0,1-3.36,1.4H75v10a4.65,4.65,0,0,1-1.32,3.36,4.88,4.88,0,0,1-6.76,0,4.56,4.56,0,0,1-1.36-3.36v-10H55.49a4.51,4.51,0,0,1-3.36-1.4A4.69,4.69,0,0,1,50.77,32a4.65,4.65,0,0,1,4.72-4.72H65.57V17.16a4.72,4.72,0,1,1,9.44,0V27.24H85.09A4.65,4.65,0,0,1,89.81,32,4.69,4.69,0,0,1,88.45,35.36Z"/></svg>