<svg id="Layer_1" data-name="Layer 1" xmlns="http://www.w3.org/2000/svg" viewBox="0 0 100 100"><title>l32_4_1</title><path d="M83.5,0h-67A16.5,16.5,0,0,0,0,16.5v67A16.5,16.5,0,0,0,16.5,100h67A16.5,16.5,0,0,0,100,83.5v-67A16.5,16.5,0,0,0,83.5,0ZM67.15,12.88a4.8,4.8,0,0,1,3.6-1.48,4.88,4.88,0,0,1,3.64,1.52,5,5,0,0,1,1.48,3.6,5.06,5.06,0,0,1-1.48,3.68,4.88,4.88,0,0,1-3.64,1.52,4.77,4.77,0,0,1-3.6-1.52,5.15,5.15,0,0,1-1.44-3.68A5,5,0,0,1,67.15,12.88ZM48.46,53.3,30.28,84.8a5.59,5.59,0,0,1-2.07,2.13,5.14,5.14,0,0,1-2.55.69,5.5,5.5,0,0,1-3.72-1.41,4.4,4.4,0,0,1-1.62-3.45,5.67,5.67,0,0,1,.84-2.88L36.58,53.54h-15a6,6,0,0,1-4-1.08,4.08,4.08,0,0,1-1.23-3.24,4.2,4.2,0,0,1,1.26-3.33,5.89,5.89,0,0,1,4-1.11H45.1a4.27,4.27,0,0,1,3.33,1.29,4.68,4.68,0,0,1,1.17,3.27A7.66,7.66,0,0,1,48.46,53.3Zm25.93-2.22a4.88,4.88,0,0,1-3.64,1.52,4.8,4.8,0,0,1-3.6-1.48,5,5,0,0,1-1.44-3.64,5.15,5.15,0,0,1,1.44-3.68,4.77,4.77,0,0,1,3.6-1.52,4.88,4.88,0,0,1,3.64,1.52,5.06,5.06,0,0,1,1.48,3.68A5,5,0,0,1,74.39,51.08ZM89.31,35.36A4.49,4.49,0,0,1,86,36.76H56.35A4.65,4.65,0,0,1,51.63,32,4.73,4.73,0,0,1,53,28.64a4.52,4.52,0,0,1,3.36-1.4H86A4.65,4.65,0,0,1,90.67,32,4.69,4.69,0,0,1,89.31,35.36Z"/></svg>