<svg id="Layer_1" data-name="Layer 1" xmlns="http://www.w3.org/2000/svg" viewBox="0 0 100 100"><title>l32_1_1</title><path d="M83.12,0h-67A16.5,16.5,0,0,0-.38,16.5v67A16.5,16.5,0,0,0,16.12,100h67a16.5,16.5,0,0,0,16.5-16.5v-67A16.5,16.5,0,0,0,83.12,0ZM28.2,87.08H10.85q-4.35,0-4.35-3.7a3.36,3.36,0,0,1,1-2.7,5,5,0,0,1,3.3-.9H14.9V61.73l-4,2.35a3.36,3.36,0,0,1-1.75.5,3,3,0,0,1-2.4-1.22,4.21,4.21,0,0,1-1-2.73,3.4,3.4,0,0,1,1.75-3.1l8-4.65a8.47,8.47,0,0,1,4.15-1.25,4.41,4.41,0,0,1,3.22,1.2,4.34,4.34,0,0,1,1.23,3.25v23.7h4.1a5,5,0,0,1,3.3.9,3.36,3.36,0,0,1,1,2.7Q32.55,87.09,28.2,87.08Zm31.3-5.35A11.29,11.29,0,0,1,54.7,86a16.25,16.25,0,0,1-7.16,1.5,20.85,20.85,0,0,1-6.07-.9,16.57,16.57,0,0,1-5.13-2.5,4.44,4.44,0,0,1-1.17-1.37A3.71,3.71,0,0,1,34.79,81a4.14,4.14,0,0,1,.85-2.62,2.59,2.59,0,0,1,2.11-1.08,3.48,3.48,0,0,1,1.25.2q.49.21,1.5.75l1,.5a27.49,27.49,0,0,0,2.82,1.2,8.25,8.25,0,0,0,2.77.45,6.44,6.44,0,0,0,4.16-1.12,4.37,4.37,0,0,0,1.34-3.53,4.46,4.46,0,0,0-1.39-3.5A5.7,5.7,0,0,0,47.29,71a14.15,14.15,0,0,0-2.72.25,17.93,17.93,0,0,0-2.87.9,4.74,4.74,0,0,1-2.25.55,3.48,3.48,0,0,1-2.36-.82,2.76,2.76,0,0,1-1-2.18V56.13a4.32,4.32,0,0,1,1.11-3.2,4.26,4.26,0,0,1,3.14-1.1h15.5c2.9,0,4.36,1.15,4.36,3.45s-1.46,3.5-4.36,3.5H45.09v6.15A12.53,12.53,0,0,1,50,64a11.55,11.55,0,0,1,5.78,1.43,10.13,10.13,0,0,1,4,4,12,12,0,0,1,1.43,5.92A11.85,11.85,0,0,1,59.5,81.73Zm29-46.37a4.52,4.52,0,0,1-3.36,1.4H75v10a4.65,4.65,0,0,1-1.32,3.36,4.51,4.51,0,0,1-3.4,1.36,4.65,4.65,0,0,1-4.72-4.72v-10H55.49a4.52,4.52,0,0,1-3.36-1.4A4.69,4.69,0,0,1,50.77,32a4.65,4.65,0,0,1,4.72-4.72H65.57V17.16a4.72,4.72,0,1,1,9.44,0V27.24H85.09A4.65,4.65,0,0,1,89.81,32,4.69,4.69,0,0,1,88.45,35.36Z"/></svg>