<svg id="Layer_1" data-name="Layer 1" xmlns="http://www.w3.org/2000/svg" viewBox="0 0 100 100"><title>l32_1_1</title><path d="M83.5,0h-67A16.5,16.5,0,0,0,0,16.5v67A16.5,16.5,0,0,0,16.5,100h67A16.5,16.5,0,0,0,100,83.5v-67A16.5,16.5,0,0,0,83.5,0ZM45.7,87.08H24.88q-5.22,0-5.22-4.44a4,4,0,0,1,1.26-3.24,6,6,0,0,1,4-1.08h4.86V56.66l-4.8,2.82a4.09,4.09,0,0,1-2.1.6A3.61,3.61,0,0,1,20,58.61a5,5,0,0,1-1.2-3.27,4.07,4.07,0,0,1,2.1-3.72L30.46,46a10.14,10.14,0,0,1,5-1.5A5.29,5.29,0,0,1,39.31,46a5.21,5.21,0,0,1,1.47,3.9V78.32H45.7a6,6,0,0,1,4,1.08,4,4,0,0,1,1.26,3.24Q50.92,87.08,45.7,87.08ZM88.83,35.36a4.49,4.49,0,0,1-3.36,1.4H75.39v10a4.65,4.65,0,0,1-1.32,3.36,4.51,4.51,0,0,1-3.4,1.36A4.65,4.65,0,0,1,66,46.76v-10H55.87a4.52,4.52,0,0,1-3.36-1.4A4.73,4.73,0,0,1,51.15,32a4.65,4.65,0,0,1,4.72-4.72H66V17.16a4.65,4.65,0,0,1,4.72-4.72,4.65,4.65,0,0,1,4.72,4.72V27.24H85.47A4.65,4.65,0,0,1,90.19,32,4.69,4.69,0,0,1,88.83,35.36Z"/></svg>