<svg id="Layer_1" data-name="Layer 1" xmlns="http://www.w3.org/2000/svg" viewBox="0 0 100 100"><title>l32_3_1</title><path d="M83.5,0h-67A16.5,16.5,0,0,0,0,16.5v67A16.5,16.5,0,0,0,16.5,100h67A16.5,16.5,0,0,0,100,83.5v-67A16.5,16.5,0,0,0,83.5,0Zm-35,53.3L30.28,84.8a5.59,5.59,0,0,1-2.07,2.13,5.14,5.14,0,0,1-2.55.69,5.5,5.5,0,0,1-3.72-1.41,4.4,4.4,0,0,1-1.62-3.45,5.67,5.67,0,0,1,.84-2.88L36.58,53.54h-15a6,6,0,0,1-4-1.08,4.08,4.08,0,0,1-1.23-3.24,4.2,4.2,0,0,1,1.26-3.33,5.89,5.89,0,0,1,4-1.11H45.1a4.27,4.27,0,0,1,3.33,1.29,4.68,4.68,0,0,1,1.17,3.27A7.66,7.66,0,0,1,48.46,53.3ZM86,40.6A4.38,4.38,0,0,1,87.39,44a4.7,4.7,0,0,1-8.08,3.36l-8.64-8.64L62,47.32a4.53,4.53,0,0,1-3.36,1.36,4.94,4.94,0,0,1-3.36-1.36,4.64,4.64,0,0,1,0-6.72L64,32,55.31,23.4A5,5,0,0,1,54,20a4.7,4.7,0,0,1,1.44-3.44,4.21,4.21,0,0,1,3.28-1.44A4.67,4.67,0,0,1,62,16.68l8.64,8.64,8.64-8.64a4.61,4.61,0,0,1,3.36-1.44A4.42,4.42,0,0,1,86,16.68,4.19,4.19,0,0,1,87.47,20,4.7,4.7,0,0,1,86,23.4L77.39,32Z"/></svg>