<svg id="Layer_1" data-name="Layer 1" xmlns="http://www.w3.org/2000/svg" viewBox="0 0 100 100"><title>l32_2_1</title><path d="M83.5,0h-67A16.5,16.5,0,0,0,0,16.5v67A16.5,16.5,0,0,0,16.5,100h67A16.5,16.5,0,0,0,100,83.5v-67A16.5,16.5,0,0,0,83.5,0Zm-35,53.3L30.28,84.8a5.59,5.59,0,0,1-2.07,2.13,5.14,5.14,0,0,1-2.55.69,5.5,5.5,0,0,1-3.72-1.41,4.4,4.4,0,0,1-1.62-3.45,5.67,5.67,0,0,1,.84-2.88L36.58,53.54h-15a6,6,0,0,1-4-1.08,4.08,4.08,0,0,1-1.23-3.24,4.2,4.2,0,0,1,1.26-3.33,5.89,5.89,0,0,1,4-1.11H45.1a4.27,4.27,0,0,1,3.33,1.29,4.68,4.68,0,0,1,1.17,3.27A7.66,7.66,0,0,1,48.46,53.3ZM83.19,37.6a7.25,7.25,0,0,1-5,1.48h-15q-6.63,0-6.64-5.6T63.15,28h15a7.41,7.41,0,0,1,5,1.44,5.12,5.12,0,0,1,1.64,4.08A5.25,5.25,0,0,1,83.19,37.6Z"/></svg>