<svg id="Layer_1" data-name="Layer 1" xmlns="http://www.w3.org/2000/svg" viewBox="0 0 100 100"><title>l32_1_1</title><path d="M83.12,0h-67A16.5,16.5,0,0,0-.38,16.5v67A16.5,16.5,0,0,0,16.12,100h67a16.5,16.5,0,0,0,16.5-16.5v-67A16.5,16.5,0,0,0,83.12,0ZM28.2,87.08H10.85q-4.35,0-4.35-3.7a3.36,3.36,0,0,1,1-2.7,5,5,0,0,1,3.3-.9H14.9V61.73l-4,2.35a3.36,3.36,0,0,1-1.75.5,3,3,0,0,1-2.4-1.22,4.21,4.21,0,0,1-1-2.73,3.4,3.4,0,0,1,1.75-3.1l8-4.65a8.47,8.47,0,0,1,4.15-1.25,4.41,4.41,0,0,1,3.22,1.2,4.34,4.34,0,0,1,1.23,3.25v23.7h4.1a5,5,0,0,1,3.3.9,3.36,3.36,0,0,1,1,2.7Q32.55,87.09,28.2,87.08Zm30.4-4.3a10.6,10.6,0,0,1-4.68,3.48,18.69,18.69,0,0,1-7.07,1.22,22.31,22.31,0,0,1-6.25-.87,16,16,0,0,1-5.2-2.53A3.43,3.43,0,0,1,33.85,81a4.13,4.13,0,0,1,.84-2.62,2.59,2.59,0,0,1,2.11-1.08,3.31,3.31,0,0,1,1.25.23q.54.22,1.5.72l.47.23.63.27A20.72,20.72,0,0,0,43.52,80a9.18,9.18,0,0,0,2.88.42,6.94,6.94,0,0,0,4-.9,3.47,3.47,0,0,0,1.23-3,3.15,3.15,0,0,0-1.25-2.8,7.62,7.62,0,0,0-4.1-.85H43.19a2.83,2.83,0,0,1-2.34-1,4.06,4.06,0,0,1,0-5,2.83,2.83,0,0,1,2.34-1H45.4a7.61,7.61,0,0,0,4-.8,2.8,2.8,0,0,0,1.25-2.55,3.74,3.74,0,0,0-1.1-2.87,4.34,4.34,0,0,0-3.06-1,7.55,7.55,0,0,0-2.62.45,26.62,26.62,0,0,0-2.72,1.2l-1,.5c-.64.34-1.14.58-1.5.73a3.31,3.31,0,0,1-1.25.22,2.58,2.58,0,0,1-2.11-1.07,4.14,4.14,0,0,1-.84-2.63,4,4,0,0,1,.34-1.75,4.33,4.33,0,0,1,1.2-1.35A16.85,16.85,0,0,1,41,52.28a20,20,0,0,1,5.92-.9,16.57,16.57,0,0,1,6.53,1.2A9.86,9.86,0,0,1,57.82,56a8.72,8.72,0,0,1,1.53,5.1,8.31,8.31,0,0,1-1.43,4.83,8.07,8.07,0,0,1-4,3A8.54,8.54,0,0,1,58.57,72a8.85,8.85,0,0,1,1.67,5.45A8.76,8.76,0,0,1,58.6,82.78ZM88.45,35.36a4.52,4.52,0,0,1-3.36,1.4H75v10a4.65,4.65,0,0,1-1.32,3.36,4.88,4.88,0,0,1-6.76,0,4.56,4.56,0,0,1-1.36-3.36v-10H55.49a4.49,4.49,0,0,1-3.36-1.4A4.69,4.69,0,0,1,50.77,32a4.65,4.65,0,0,1,4.72-4.72H65.57V17.16a4.72,4.72,0,1,1,9.44,0V27.24H85.09A4.65,4.65,0,0,1,89.81,32,4.69,4.69,0,0,1,88.45,35.36Z"/></svg>