<svg id="Layer_1" data-name="Layer 1" xmlns="http://www.w3.org/2000/svg" viewBox="0 0 100 100"><title>l32_1_1</title><path d="M83.5,0h-67A16.5,16.5,0,0,0,0,16.5v67A16.5,16.5,0,0,0,16.5,100h67A16.5,16.5,0,0,0,100,83.5v-67A16.5,16.5,0,0,0,83.5,0ZM47.26,80.66a13.51,13.51,0,0,1-5.76,5.1,19.47,19.47,0,0,1-8.58,1.8,25,25,0,0,1-7.29-1.08,19.81,19.81,0,0,1-6.15-3,5.32,5.32,0,0,1-1.41-1.65,4.45,4.45,0,0,1-.45-2.07,4.92,4.92,0,0,1,1-3.15,3.1,3.1,0,0,1,2.52-1.29,4.06,4.06,0,0,1,1.5.24,18.27,18.27,0,0,1,1.8.9l1.2.6a33.43,33.43,0,0,0,3.39,1.44,9.94,9.94,0,0,0,3.33.54,7.67,7.67,0,0,0,5-1.35A5.2,5.2,0,0,0,39,73.46a5.34,5.34,0,0,0-1.68-4.2,6.78,6.78,0,0,0-4.68-1.5,16.4,16.4,0,0,0-3.27.3,21.25,21.25,0,0,0-3.45,1.08,5.73,5.73,0,0,1-2.7.66,4.15,4.15,0,0,1-2.82-1,3.29,3.29,0,0,1-1.14-2.61V49.94a5.2,5.2,0,0,1,1.32-3.84,5.12,5.12,0,0,1,3.78-1.32h18.6q5.22,0,5.22,4.14t-5.22,4.2H30V60.5a15,15,0,0,1,5.94-1.08,13.85,13.85,0,0,1,6.93,1.71,12.16,12.16,0,0,1,4.74,4.8A14.44,14.44,0,0,1,49.3,73,14.19,14.19,0,0,1,47.26,80.66Zm41.57-45.3a4.49,4.49,0,0,1-3.36,1.4H75.39v10a4.65,4.65,0,0,1-1.32,3.36,4.51,4.51,0,0,1-3.4,1.36A4.65,4.65,0,0,1,66,46.76v-10H55.87a4.52,4.52,0,0,1-3.36-1.4A4.73,4.73,0,0,1,51.15,32a4.65,4.65,0,0,1,4.72-4.72H66V17.16a4.65,4.65,0,0,1,4.72-4.72,4.65,4.65,0,0,1,4.72,4.72V27.24H85.47A4.65,4.65,0,0,1,90.19,32,4.69,4.69,0,0,1,88.83,35.36Z"/></svg>