<svg id="Layer_1" data-name="Layer 1" xmlns="http://www.w3.org/2000/svg" viewBox="0 0 100 100"><title>l32_3_1</title><path d="M33,61.52a6.27,6.27,0,0,0,4-1.08A4.17,4.17,0,0,0,38.32,57,4.07,4.07,0,0,0,37,53.63a6.4,6.4,0,0,0-4-1.05,6.4,6.4,0,0,0-4,1.05A4.07,4.07,0,0,0,27.64,57,4.17,4.17,0,0,0,29,60.44,6.27,6.27,0,0,0,33,61.52Z"/><path d="M33,69.86q-6.54,0-6.54,4.68T33,79.22q6.54,0,6.54-4.68T33,69.86Z"/><path d="M83.5,0h-67A16.5,16.5,0,0,0,0,16.5v67A16.5,16.5,0,0,0,16.5,100h67A16.5,16.5,0,0,0,100,83.5v-67A16.5,16.5,0,0,0,83.5,0ZM45.19,84.35Q40.72,87.56,33,87.56T20.77,84.35a10.36,10.36,0,0,1-4.47-8.91,10.56,10.56,0,0,1,2-6.57,10,10,0,0,1,5.64-3.57,9.87,9.87,0,0,1-4.8-3.69,10.21,10.21,0,0,1-1.68-5.85,9.91,9.91,0,0,1,4.2-8.43q4.2-3.09,11.34-3.09t11.37,3.09a9.93,9.93,0,0,1,4.17,8.43,10.43,10.43,0,0,1-1.71,6A9,9,0,0,1,42.1,65.3a10.8,10.8,0,0,1,3.09,19ZM86,40.6A4.38,4.38,0,0,1,87.39,44a4.7,4.7,0,0,1-8.08,3.36l-8.64-8.64L62,47.32a4.53,4.53,0,0,1-3.36,1.36,4.94,4.94,0,0,1-3.36-1.36,4.64,4.64,0,0,1,0-6.72L64,32,55.31,23.4A5,5,0,0,1,54,20a4.7,4.7,0,0,1,1.44-3.44,4.21,4.21,0,0,1,3.28-1.44A4.67,4.67,0,0,1,62,16.68l8.64,8.64,8.64-8.64a4.61,4.61,0,0,1,3.36-1.44A4.42,4.42,0,0,1,86,16.68,4.19,4.19,0,0,1,87.47,20,4.7,4.7,0,0,1,86,23.4L77.39,32Z"/></svg>