<svg id="Layer_1" data-name="Layer 1" xmlns="http://www.w3.org/2000/svg" viewBox="0 0 100 100"><title>l32_4_1</title><polygon points="33.82 71.54 33.82 61.16 26.62 71.54 33.82 71.54"/><path d="M83.5,0h-67A16.5,16.5,0,0,0,0,16.5v67A16.5,16.5,0,0,0,16.5,100h67A16.5,16.5,0,0,0,100,83.5v-67A16.5,16.5,0,0,0,83.5,0ZM67.15,12.88a4.8,4.8,0,0,1,3.6-1.48,4.88,4.88,0,0,1,3.64,1.52,5,5,0,0,1,1.48,3.6,5.06,5.06,0,0,1-1.48,3.68,4.88,4.88,0,0,1-3.64,1.52,4.77,4.77,0,0,1-3.6-1.52,5.15,5.15,0,0,1-1.44-3.68A5,5,0,0,1,67.15,12.88ZM45.88,79.94H44.56v2a5.27,5.27,0,0,1-1.5,4.08,5.53,5.53,0,0,1-3.9,1.38,5.42,5.42,0,0,1-3.87-1.38A5.33,5.33,0,0,1,33.82,82v-2H20.44A4.5,4.5,0,0,1,17,78.62a4.59,4.59,0,0,1-1.26-3.3,6.72,6.72,0,0,1,1.32-4L34.24,46.88a5.52,5.52,0,0,1,2.13-1.83A6,6,0,0,1,39,44.42a5.67,5.67,0,0,1,3.9,1.44,5.11,5.11,0,0,1,1.62,4V71.54h1.32q5.22,0,5.22,4.14T45.88,79.94ZM74.39,51.08a4.88,4.88,0,0,1-3.64,1.52,4.8,4.8,0,0,1-3.6-1.48,5,5,0,0,1-1.44-3.64,5.15,5.15,0,0,1,1.44-3.68,4.77,4.77,0,0,1,3.6-1.52,4.88,4.88,0,0,1,3.64,1.52,5.06,5.06,0,0,1,1.48,3.68A5,5,0,0,1,74.39,51.08ZM89.31,35.36A4.49,4.49,0,0,1,86,36.76H56.35A4.65,4.65,0,0,1,51.63,32,4.73,4.73,0,0,1,53,28.64a4.52,4.52,0,0,1,3.36-1.4H86A4.65,4.65,0,0,1,90.67,32,4.69,4.69,0,0,1,89.31,35.36Z"/></svg>