<svg id="Layer_1" data-name="Layer 1" xmlns="http://www.w3.org/2000/svg" viewBox="0 0 100 100"><title>l32_4_1</title><path d="M83.12,0h-67A16.5,16.5,0,0,0-.38,16.5v67A16.5,16.5,0,0,0,16.12,100h67a16.5,16.5,0,0,0,16.5-16.5v-67A16.5,16.5,0,0,0,83.12,0ZM66.77,12.88a4.8,4.8,0,0,1,3.6-1.48A4.9,4.9,0,0,1,74,12.92a5,5,0,0,1,1.48,3.6A5.06,5.06,0,0,1,74,20.2a4.9,4.9,0,0,1-3.64,1.52,4.77,4.77,0,0,1-3.6-1.52,5.15,5.15,0,0,1-1.44-3.68A5,5,0,0,1,66.77,12.88Zm-38.6,74.2H10.82q-4.35,0-4.35-3.7a3.36,3.36,0,0,1,1-2.7,5,5,0,0,1,3.3-.9h4V61.73l-4,2.35a3.36,3.36,0,0,1-1.75.5,3,3,0,0,1-2.4-1.22,4.21,4.21,0,0,1-1-2.73,3.4,3.4,0,0,1,1.75-3.1l8-4.65a8.5,8.5,0,0,1,4.15-1.25,4.43,4.43,0,0,1,3.23,1.2,4.37,4.37,0,0,1,1.22,3.25v23.7h4.1a5,5,0,0,1,3.3.9,3.36,3.36,0,0,1,1.05,2.7Q32.52,87.09,28.17,87.08Zm32-.9a5,5,0,0,1-3.27.9H38.62a3.64,3.64,0,0,1-3.9-3.8,5.5,5.5,0,0,1,1.7-3.9l10.6-11c2.2-2.3,3.3-4.41,3.3-6.35a3.4,3.4,0,0,0-1-2.6,4,4,0,0,0-2.78-.9,8.23,8.23,0,0,0-2.68.43,24.79,24.79,0,0,0-2.82,1.22l-1,.5-.77.43a5.92,5.92,0,0,1-1,.47,3,3,0,0,1-1,.15,2.55,2.55,0,0,1-2.1-1.12,4.29,4.29,0,0,1-.85-2.68,4.43,4.43,0,0,1,.32-1.8,3.4,3.4,0,0,1,1.23-1.3,20.32,20.32,0,0,1,11-3.4,16,16,0,0,1,6.5,1.23,9.77,9.77,0,0,1,4.33,3.5,9.22,9.22,0,0,1,1.52,5.22,12.68,12.68,0,0,1-1.22,5.58,23.36,23.36,0,0,1-4.18,5.62l-7.1,7.25h10a5.11,5.11,0,0,1,3.27.88,3.29,3.29,0,0,1,1.08,2.72A3.44,3.44,0,0,1,60.14,86.18ZM74,51.08a4.9,4.9,0,0,1-3.64,1.52,4.8,4.8,0,0,1-3.6-1.48,5,5,0,0,1-1.44-3.64,5.15,5.15,0,0,1,1.44-3.68,4.77,4.77,0,0,1,3.6-1.52A4.9,4.9,0,0,1,74,43.8a5.06,5.06,0,0,1,1.48,3.68A5,5,0,0,1,74,51.08ZM88.93,35.36a4.52,4.52,0,0,1-3.36,1.4H56A4.65,4.65,0,0,1,51.25,32a4.69,4.69,0,0,1,1.36-3.4A4.52,4.52,0,0,1,56,27.24h29.6A4.65,4.65,0,0,1,90.29,32,4.69,4.69,0,0,1,88.93,35.36Z"/></svg>