<svg id="Layer_1" data-name="Layer 1" xmlns="http://www.w3.org/2000/svg" viewBox="0 0 100 100"><title>l32_3_1</title><path d="M83.5,0h-67A16.5,16.5,0,0,0,0,16.5v67A16.5,16.5,0,0,0,16.5,100h67A16.5,16.5,0,0,0,100,83.5v-67A16.5,16.5,0,0,0,83.5,0ZM45.88,79.94H44.56v2a5.27,5.27,0,0,1-1.5,4.08,5.53,5.53,0,0,1-3.9,1.38,5.42,5.42,0,0,1-3.87-1.38A5.33,5.33,0,0,1,33.82,82v-2H20.44A4.5,4.5,0,0,1,17,78.62a4.59,4.59,0,0,1-1.26-3.3,6.72,6.72,0,0,1,1.32-4L34.24,46.88a5.52,5.52,0,0,1,2.13-1.83A6,6,0,0,1,39,44.42a5.67,5.67,0,0,1,3.9,1.44,5.11,5.11,0,0,1,1.62,4V71.54h1.32q5.22,0,5.22,4.14T45.88,79.94ZM86,40.6A4.38,4.38,0,0,1,87.39,44a4.7,4.7,0,0,1-8.08,3.36l-8.64-8.64L62,47.32a4.53,4.53,0,0,1-3.36,1.36,4.94,4.94,0,0,1-3.36-1.36,4.64,4.64,0,0,1,0-6.72L64,32,55.31,23.4A5,5,0,0,1,54,20a4.7,4.7,0,0,1,1.44-3.44,4.21,4.21,0,0,1,3.28-1.44A4.67,4.67,0,0,1,62,16.68l8.64,8.64,8.64-8.64a4.61,4.61,0,0,1,3.36-1.44A4.42,4.42,0,0,1,86,16.68,4.19,4.19,0,0,1,87.47,20,4.7,4.7,0,0,1,86,23.4L77.39,32Z"/><polygon points="33.82 71.54 33.82 61.16 26.62 71.54 33.82 71.54"/></svg>