<svg id="Layer_1" data-name="Layer 1" xmlns="http://www.w3.org/2000/svg" viewBox="0 0 100 100"><title>l32_3_1</title><path d="M48,58.33a3.58,3.58,0,0,0-3.45,2.58q-1.05,2.58-1.05,8.52T44.53,78a3.59,3.59,0,0,0,6.9,0q1.05-2.6,1-8.55t-1-8.5A3.59,3.59,0,0,0,48,58.33Z"/><path d="M83.5,0h-67A16.5,16.5,0,0,0,0,16.5v67A16.5,16.5,0,0,0,16.5,100h67A16.5,16.5,0,0,0,100,83.5v-67A16.5,16.5,0,0,0,83.5,0ZM28.58,87.08H11.23q-4.35,0-4.35-3.7a3.36,3.36,0,0,1,1-2.7,5,5,0,0,1,3.3-.9h4V61.73l-4,2.35a3.36,3.36,0,0,1-1.75.5,3,3,0,0,1-2.4-1.22,4.21,4.21,0,0,1-1-2.73,3.4,3.4,0,0,1,1.75-3.1l8-4.65A8.5,8.5,0,0,1,20,51.63a4.39,4.39,0,0,1,3.22,1.2,4.34,4.34,0,0,1,1.23,3.25v23.7h4.1a5,5,0,0,1,3.3.9,3.36,3.36,0,0,1,1.05,2.7Q32.93,87.09,28.58,87.08ZM58,82.88q-3.45,4.65-10,4.65T38,82.88q-3.45-4.65-3.45-13.45T38,56q3.45-4.65,10-4.65T58,56q3.48,4.65,3.48,13.4T58,82.88ZM86,40.6A4.38,4.38,0,0,1,87.39,44a4.7,4.7,0,0,1-8.08,3.36l-8.64-8.64L62,47.32a4.53,4.53,0,0,1-3.36,1.36,4.94,4.94,0,0,1-3.36-1.36,4.64,4.64,0,0,1,0-6.72L64,32,55.31,23.4A5,5,0,0,1,54,20a4.7,4.7,0,0,1,1.44-3.44,4.21,4.21,0,0,1,3.28-1.44A4.67,4.67,0,0,1,62,16.68l8.64,8.64,8.64-8.64a4.61,4.61,0,0,1,3.36-1.44A4.42,4.42,0,0,1,86,16.68,4.19,4.19,0,0,1,87.47,20,4.7,4.7,0,0,1,86,23.4L77.39,32Z"/></svg>