<svg id="Layer_1" data-name="Layer 1" xmlns="http://www.w3.org/2000/svg" viewBox="0 0 100 100"><title>l32_2_1</title><path d="M83.12,0h-67A16.5,16.5,0,0,0-.38,16.5v67A16.5,16.5,0,0,0,16.12,100h67a16.5,16.5,0,0,0,16.5-16.5v-67A16.5,16.5,0,0,0,83.12,0ZM28.2,87.08H10.85q-4.35,0-4.35-3.7a3.36,3.36,0,0,1,1-2.7,5,5,0,0,1,3.3-.9H14.9V61.73l-4,2.35a3.36,3.36,0,0,1-1.75.5,3,3,0,0,1-2.4-1.22,4.21,4.21,0,0,1-1-2.73,3.4,3.4,0,0,1,1.75-3.1l8-4.65a8.47,8.47,0,0,1,4.15-1.25,4.41,4.41,0,0,1,3.22,1.2,4.34,4.34,0,0,1,1.23,3.25v23.7h4.1a5,5,0,0,1,3.3.9,3.36,3.36,0,0,1,1,2.7Q32.55,87.09,28.2,87.08Zm30.39-4.3a10.46,10.46,0,0,1-4.67,3.48,18.71,18.71,0,0,1-7.08,1.22,22.36,22.36,0,0,1-6.25-.87,16.05,16.05,0,0,1-5.2-2.53,3.93,3.93,0,0,1-1.19-1.37A3.84,3.84,0,0,1,33.84,81a4.09,4.09,0,0,1,.86-2.62,2.56,2.56,0,0,1,2.1-1.08,3.31,3.31,0,0,1,1.25.23q.54.22,1.5.72l.47.23.62.27A21.32,21.32,0,0,0,43.52,80a9.16,9.16,0,0,0,2.87.42,7,7,0,0,0,4-.9,3.46,3.46,0,0,0,1.22-3,3.13,3.13,0,0,0-1.25-2.8,7.53,7.53,0,0,0-4.09-.85H43.2a2.88,2.88,0,0,1-2.36-1,4.14,4.14,0,0,1,0-5,2.88,2.88,0,0,1,2.36-1h2.19a7.57,7.57,0,0,0,4-.8,2.78,2.78,0,0,0,1.25-2.55,3.73,3.73,0,0,0-1.09-2.87,4.33,4.33,0,0,0-3-1,7.57,7.57,0,0,0-2.63.45,26.71,26.71,0,0,0-2.73,1.2l-1,.5a15.94,15.94,0,0,1-1.5.73,3.24,3.24,0,0,1-1.25.22,2.55,2.55,0,0,1-2.09-1.07,4.1,4.1,0,0,1-.86-2.63,3.81,3.81,0,0,1,.36-1.75A4.09,4.09,0,0,1,36,54.78,16.68,16.68,0,0,1,41,52.28a20.07,20.07,0,0,1,5.93-.9,16.56,16.56,0,0,1,6.52,1.2A9.86,9.86,0,0,1,57.82,56a8.72,8.72,0,0,1,1.52,5.1,8.3,8.3,0,0,1-1.42,4.83,8.13,8.13,0,0,1-4,3A8.55,8.55,0,0,1,58.57,72a8.86,8.86,0,0,1,1.68,5.45A8.65,8.65,0,0,1,58.59,82.78ZM92.81,37.6a7.25,7.25,0,0,1-5,1.48h-15q-6.64,0-6.64-5.6T72.77,28h15a7.41,7.41,0,0,1,5,1.44,5.15,5.15,0,0,1,1.64,4.08A5.28,5.28,0,0,1,92.81,37.6Z"/></svg>