<svg id="Layer_1" data-name="Layer 1" xmlns="http://www.w3.org/2000/svg" viewBox="0 0 100 100"><title>l32_2_1</title><ellipse cx="32.98" cy="74.54" rx="6.54" ry="4.68"/><path d="M33,61.52a6.27,6.27,0,0,0,4-1.08A4.17,4.17,0,0,0,38.32,57,4.07,4.07,0,0,0,37,53.63a6.4,6.4,0,0,0-4-1.05,6.4,6.4,0,0,0-4,1.05A4.07,4.07,0,0,0,27.64,57,4.17,4.17,0,0,0,29,60.44,6.27,6.27,0,0,0,33,61.52Z"/><path d="M83.5,0h-67A16.5,16.5,0,0,0,0,16.5v67A16.5,16.5,0,0,0,16.5,100h67A16.5,16.5,0,0,0,100,83.5v-67A16.5,16.5,0,0,0,83.5,0ZM45.19,84.35Q40.72,87.56,33,87.56T20.77,84.35a10.36,10.36,0,0,1-4.47-8.91,10.56,10.56,0,0,1,2-6.57,10,10,0,0,1,5.64-3.57,9.87,9.87,0,0,1-4.8-3.69,10.21,10.21,0,0,1-1.68-5.85,9.91,9.91,0,0,1,4.2-8.43q4.2-3.09,11.34-3.09t11.37,3.09a9.93,9.93,0,0,1,4.17,8.43,10.43,10.43,0,0,1-1.71,6A9,9,0,0,1,42.1,65.3a10.8,10.8,0,0,1,3.09,19Zm38-46.75a7.25,7.25,0,0,1-5,1.48h-15q-6.63,0-6.64-5.6T63.15,28h15a7.41,7.41,0,0,1,5,1.44,5.12,5.12,0,0,1,1.64,4.08A5.25,5.25,0,0,1,83.19,37.6Z"/></svg>