<svg id="Layer_1" data-name="Layer 1" xmlns="http://www.w3.org/2000/svg" viewBox="0 0 150 100"><title>s32_1</title><path d="M111.21,100h-67a16.5,16.5,0,0,1-16.5-16.5v-67A16.5,16.5,0,0,1,44.21,0h67a16.5,16.5,0,0,1,16.5,16.5v67A16.5,16.5,0,0,1,111.21,100Zm-6.89-56.83H86.05V24.9a8.56,8.56,0,1,0-17.11,0V43.17H50.67a8.42,8.42,0,0,0-8.55,8.56,8.49,8.49,0,0,0,2.46,6.16,8.15,8.15,0,0,0,6.09,2.54H68.94V78.55a8.66,8.66,0,0,0,14.72,6.09,8.41,8.41,0,0,0,2.39-6.09V60.43h18.27a8.17,8.17,0,0,0,6.09-2.54,8.53,8.53,0,0,0,2.46-6.16,8.42,8.42,0,0,0-8.55-8.56Z"/></svg>