<svg id="Layer_1" data-name="Layer 1" xmlns="http://www.w3.org/2000/svg" viewBox="0 0 150 100"><title>s32_1</title><path d="M108.5,100h-67A16.5,16.5,0,0,1,25,83.5v-67A16.5,16.5,0,0,1,41.5,0h67A16.5,16.5,0,0,1,125,16.5v67A16.5,16.5,0,0,1,108.5,100ZM87,51.73l15.66-15.52A8.51,8.51,0,0,0,105.23,30,7.61,7.61,0,0,0,102.62,24a8,8,0,0,0-6.09-2.61A8.35,8.35,0,0,0,90.44,24L74.78,39.69,59.12,24A8.45,8.45,0,0,0,53,21.28a7.59,7.59,0,0,0-5.94,2.61,8.51,8.51,0,0,0-2.61,6.23,8.92,8.92,0,0,0,2.46,6.09L62.6,51.73,46.94,67.39a8.41,8.41,0,0,0,0,12.18A9,9,0,0,0,53,82a8.27,8.27,0,0,0,6.09-2.46L74.78,63.91,90.44,79.57a8.56,8.56,0,0,0,14.65-6.09,7.94,7.94,0,0,0-2.47-6.09Z"/></svg>