<svg id="Layer_1" data-name="Layer 1" xmlns="http://www.w3.org/2000/svg" viewBox="0 0 150 100"><title>s32_1</title><path d="M109.73,100h-67a16.5,16.5,0,0,1-16.5-16.5v-67A16.5,16.5,0,0,1,42.73,0h67a16.5,16.5,0,0,1,16.5,16.5v67A16.5,16.5,0,0,1,109.73,100ZM50.05,60.43H103.7a8.15,8.15,0,0,0,6.09-2.54,8.5,8.5,0,0,0,2.47-6.16,8.44,8.44,0,0,0-8.56-8.56H50.05A8.18,8.18,0,0,0,44,45.71a8.53,8.53,0,0,0-2.46,6.16,8.42,8.42,0,0,0,8.55,8.56Zm26.1-27.26a8.85,8.85,0,0,0,6.6-2.76,9.19,9.19,0,0,0,2.68-6.67,9,9,0,0,0-2.68-6.52,8.85,8.85,0,0,0-6.6-2.76,8.75,8.75,0,0,0-6.52,2.68A9.11,9.11,0,0,0,67,23.74a9.33,9.33,0,0,0,2.61,6.67A8.6,8.6,0,0,0,76.15,33.17Zm0,56a8.85,8.85,0,0,0,6.6-2.76,9,9,0,0,0,2.68-6.52,9.19,9.19,0,0,0-2.68-6.67,8.85,8.85,0,0,0-6.6-2.76,8.6,8.6,0,0,0-6.52,2.76A9.33,9.33,0,0,0,67,79.86a9.07,9.07,0,0,0,2.61,6.59A8.72,8.72,0,0,0,76.15,89.14Z"/></svg>