<svg id="Layer_1" data-name="Layer 1" xmlns="http://www.w3.org/2000/svg" viewBox="0 0 200 150"><title>g29</title><path d="M62.58,131.57A12,12,0,0,1,53.86,143a16.36,16.36,0,0,1-15.6-3.18c-4.15-3.37-7.33-7.45-8.17-12.85-.8-5.09.18-9.8,4.17-13.5a10.73,10.73,0,0,1,6.64-2.83,9.94,9.94,0,0,0,8-4.61,4.69,4.69,0,0,0-.73-6.28c-4.35-4.37-8.73-8.71-13.07-13.08-3.5-3.51-6.95-7.06-10.47-10.55-.7-.7-.65-1.11,0-1.78C31.5,67.59,38.3,60.75,45.14,54a38,38,0,0,1,3.44-3.51c2-1.55,4.16-3.16,6.8-1.8a7.67,7.67,0,0,1,4.39,7.09,12.14,12.14,0,0,0,4.67,9.56c4.68,4,10,4.1,15.23,1.57A22.6,22.6,0,0,0,91.65,54c2-5.4.67-10.4-3-14.74-1.56-1.87-3.86-2.39-6.19-2.69A14.84,14.84,0,0,1,76,34.29a6.92,6.92,0,0,1-2.94-7.66A3.4,3.4,0,0,1,74,25.05Q86.2,12.89,98.35.7c.72-.72,1.11-.51,1.7.08,4.93,4.94,9.89,9.86,14.83,14.79q3.89,3.88,7.74,7.81a6.09,6.09,0,0,0,7.47,1.14,8.77,8.77,0,0,0,4.73-7.22,14.76,14.76,0,0,1,2.78-7.23c2.92-4,7-5.23,11.69-4.38,8.07,1.47,13.41,6.48,16.88,13.64a12.5,12.5,0,0,1,.35,10.89c-1.66,3.72-4.05,6.8-8.38,7.62-1.07.21-2.17.21-3.26.32a8,8,0,0,0-6.43,10.64,4.22,4.22,0,0,0,1,1.41l23.34,23.35c1.11,1.11,1.12,1.11,0,2.26Q161.59,87,150.38,98.28a6.49,6.49,0,0,1-9.18.56A10.1,10.1,0,0,1,137.45,92c-1-7-6-10.79-12.81-11.12-5.78-.28-10.19,2.39-14,6.43a19.26,19.26,0,0,0-5.07,9.08c-1.67,7.7,3.82,16.31,11.49,17.13a8,8,0,0,1,6.15,3.59,7.55,7.55,0,0,1,1.2,6,4.85,4.85,0,0,1-1.34,2.42q-11.88,11.88-23.75,23.76c-.59.59-1,.71-1.63.06-3-3.1-6.09-6.16-9.15-9.22L78.21,129.79c-1.29-1.3-2.54-2.65-3.84-3.94-3-3-6.46-2.94-9.5,0C63.14,127.54,62.17,129.47,62.58,131.57Z"/></svg>