<svg id="Layer_1" data-name="Layer 1" xmlns="http://www.w3.org/2000/svg" viewBox="0 0 100 100"><title>l29_2_1</title><path d="M49.81.1v10c1.2,0,2.52,1.13,3.52,3C65.34,35.71,77.24,58.54,88.7,81c1.29,2.53,1.39,5.15.27,7a4.5,4.5,0,0,1-4.11,2.11q-6.9,0-13.8,0H28.18q-6.75,0-13.51,0A4.43,4.43,0,0,1,10.62,88c-1.17-1.93-1-4.68.32-7.35C21.32,60.53,32.78,38.52,46,13.36c1-2,2.51-3.26,3.81-3.26V.1m0,0C45,.1,40.15,3,37.14,8.71Q19.5,42.33,2.06,76.06c-6,11.55.61,24,12.57,24q6.78,0,13.55,0H71.06q6.91,0,13.84,0c11.84,0,18.54-12.23,12.7-23.66q-17.46-34.17-35.44-68C59.2,2.85,54.51.1,49.8.1Z"/></svg>