<svg id="Layer_1" data-name="Layer 1" xmlns="http://www.w3.org/2000/svg" viewBox="0 0 150 100"><title>s29_1</title><path d="M13.12,54a11.67,11.67,0,0,1,15.1-.8c1.4,1.1,2.7,2.32,4.19,3.3a5.65,5.65,0,0,0,3,1.26c2.11-.06,3.45-3.08,3.55-3.31q0-9,.08-18a7.45,7.45,0,0,1,2-6.36,7,7,0,0,1,4.56-1.92l20.32.05c1.46-1.06,3.06-2.59,3-4.36,0-1.35-.86-2-2.9-4.35-1.62-1.9-3.07-3.89-3.45-6.45A11.31,11.31,0,0,1,65,3.71,9.78,9.78,0,0,1,69.46.84,17.08,17.08,0,0,1,81.27,1C86.06,2.88,88,7.41,87.83,11.66c-.11,3.16-1.63,5.63-3.63,7.91A17.89,17.89,0,0,0,81.71,23a4,4,0,0,0-.53,2.84,3.15,3.15,0,0,0,1.46,2,2.92,2.92,0,0,0,1.46.35h20.76A6.1,6.1,0,0,1,111.73,35L112,55.15c-.51.66-2,2.4-3.85,2.29-.74,0-1.34-.34-3-1.64-1.26-1-2.45-2-3.76-3-4.3-3.06-13-2.29-15.35,5.49a15.89,15.89,0,0,0,.31,10.39c2.53,6.69,10.87,7.84,15.49,4.28,1.37-1,2.63-2.23,4.07-3.19a7.67,7.67,0,0,1,2.36-1.13,3.26,3.26,0,0,1,3.55,1.44,1.64,1.64,0,0,1,.13.27,1.46,1.46,0,0,1,.1.6q0,12.09,0,24.18a4.56,4.56,0,0,1-1.14,3.13,4.6,4.6,0,0,1-3.59,1.44L82.55,100a3,3,0,0,1-2.34-1,3,3,0,0,1-.37-2.63,10.35,10.35,0,0,1,2-3.45c.81-1,1.65-2,2.39-3,3.37-4.76,1.93-13.37-5.92-15.22a14.93,14.93,0,0,0-10.89,1.16c-4.88,2.65-6.06,9.68-3,14,1.12,1.61,2.55,3,3.58,4.65a7.22,7.22,0,0,1,.89,2A3.18,3.18,0,0,1,68,99.51a1.8,1.8,0,0,1-.4.31,1.66,1.66,0,0,1-.77.18H44.44a5,5,0,0,1-4.12-1.38A4.83,4.83,0,0,1,39,95.1q0-10.86,0-21.72a3.1,3.1,0,0,0-.18-1.07,3.13,3.13,0,0,0-.7-1.06,3.3,3.3,0,0,0-3.82-.83,13.68,13.68,0,0,0-3.86,2.52,31.14,31.14,0,0,1-3.31,2.53c-5,3.16-13.92,2-16.53-5.79a17,17,0,0,1,.63-13A8.66,8.66,0,0,1,13.12,54Z"/></svg>