<svg id="Layer_1" data-name="Layer 1" xmlns="http://www.w3.org/2000/svg" viewBox="0 0 150 100"><title>s29_1</title><path d="M112.29,64.21V34.75a29.54,29.54,0,0,0,0-3.88,6,6,0,0,0-6.13-5.53c-5.17,0-10.33,0-15.49,0a27.09,27.09,0,0,1-5.4-.35c-.27,0-.55-.1-.82-.17-2.27-.62-3.17-1.92-3-4.27a6.52,6.52,0,0,1,1.82-4.18,8.63,8.63,0,0,0,2.63-5.75,9.42,9.42,0,0,0-2.85-7.45A11.85,11.85,0,0,0,67.16,3c-3.44,3.16-4.11,8.6-1.48,12.14a17.47,17.47,0,0,0,1.18,1.4,6.45,6.45,0,0,1,1.57,5.66,2.75,2.75,0,0,1-1.44,2,9.75,9.75,0,0,1-4.79,1.07c-5.82.05-11.65.16-17.47,0-4.47-.13-6.95,3.08-7.1,6.72-.14,3.33-.05,6.66,0,10a51.91,51.91,0,0,1-.36,10.5A8.52,8.52,0,0,1,37,53.74a3.15,3.15,0,0,1-3.35,2.43,6.33,6.33,0,0,1-5.11-2c-3.86-4-10.92-3-14.17,1.74a12.36,12.36,0,0,0,.41,13.95c3,3.86,9.59,5.4,13.88,1.11a6.66,6.66,0,0,1,5.74-1.82,2.76,2.76,0,0,1,2.33,1.74,10.82,10.82,0,0,1,.89,3.84c.22,2.67.13,5.34.14,8,0,3.66,0,7.32,0,11A6,6,0,0,0,44,100q8.2,0,16.41,0a20.57,20.57,0,0,0,4.69-.47c3.56-.82,3.78-2.65,3.5-5.29a5.62,5.62,0,0,0-1.87-3.67C62.62,87,63.4,79,69.38,75.9c4.07-2.13,10.44-1.75,14,2.26,2.8,3.19,3.33,8.8.09,12a7.2,7.2,0,0,0-2.22,5.56,3.44,3.44,0,0,0,2.26,3.3,13.75,13.75,0,0,0,5.38.89q8.7.08,17.4,0a6,6,0,0,0,6-6.16Q112.31,79,112.29,64.21Z"/></svg>