<svg id="Layer_1" data-name="Layer 1" xmlns="http://www.w3.org/2000/svg" viewBox="0 0 150 100"><title>s29_1</title><path d="M12.93,46.76a27.39,27.39,0,0,1,2.28-7A11.84,11.84,0,0,1,30.8,35a7.42,7.42,0,0,1,3.36,3.69c1.21,2.6,3.52,3.51,5.91,2.54a4.07,4.07,0,0,0,2.61-3.83,128.32,128.32,0,0,0-.11-16.64q-.41-5.57-1-11.11c-.14-1.38.29-1.95,1.72-2,7.5-.17,15-.63,22.51-.38.62,0,1.25.12,1.88.19a4.09,4.09,0,0,1,3.84,2.87,4.58,4.58,0,0,1-1.31,4.68c-4.82,5.22-3.71,12.13,2.55,15.84,5.18,3.08,11.93,2,15-2.45a9.88,9.88,0,0,0,1.45-7.6,4.77,4.77,0,0,0-2.06-3.07,8,8,0,0,1-3.45-5.45c-.46-3.11,1.15-5,4.27-5.09,6.33-.24,12.59.57,18.85,1.33,2.13.26,4.24.71,6.37.87,1.53.12,1.83.82,1.77,2.2-.44,9.39-.82,18.78-1.21,28.16a19.54,19.54,0,0,0,0,2.65c.36,3.56,3.39,4.94,6.28,2.81a16.85,16.85,0,0,0,2.85-2.75c3.57-4.25,12.48-3.14,15.53,1.48,4.58,6.93,3,18.67-3.5,23.83a11.89,11.89,0,0,1-7.4,2.47A6.65,6.65,0,0,1,122,67.48c-.43-.54-.79-1.14-1.2-1.7-.76-1-1.58-2.18-3-1.76A3.69,3.69,0,0,0,115,67.28a37,37,0,0,0-.35,6c.29,5.86.33,11.72,1,17.56.31,2.82.15,2.86-2.7,3.35a75.3,75.3,0,0,1-14.28,1.4c-1.85-.05-3.83,0-5.25-1.62a6.36,6.36,0,0,1-.23-7.89C95.74,82.9,95.58,79.43,94,76s-4.58-4.71-8.15-4.91a16,16,0,0,0-7.42,1,7.56,7.56,0,0,0-2.32,12.53c2.51,2.47,2.07,6.22-1,8.26a11.5,11.5,0,0,1-6.32,1.66c-8.06.17-15.94-1.29-23.8-2.82-4.92-1-4.86-1-4.26-6,.81-6.76,1.8-13.51,1.6-20.34-.06-2.16,0-4.5-2.28-5.63s-4.54,0-6.56,1.26a4.52,4.52,0,0,0-1.22,1.17c-4.65,6.13-13,5.21-17.12-1.72a25.71,25.71,0,0,1-2.28-6.19Z"/></svg>