<svg id="Layer_1" data-name="Layer 1" xmlns="http://www.w3.org/2000/svg" viewBox="0 0 200 150"><title>g6</title><rect x="79.78" y="107.71" width="39.33" height="39.33"/><rect x="79.78" y="64.88" width="39.33" height="39.33"/><path d="M144.24,107.71h17.69a0,0,0,0,1,0,0V147a0,0,0,0,1,0,0H122.6a0,0,0,0,1,0,0V129.35A21.64,21.64,0,0,1,144.24,107.71Z" transform="translate(284.54 254.75) rotate(180)"/><path d="M36.63,107.71H76a0,0,0,0,1,0,0V147a0,0,0,0,1,0,0H58.27A21.64,21.64,0,0,1,36.63,125.4V107.71A0,0,0,0,1,36.63,107.71Z"/><path d="M58.27,64.88H76a0,0,0,0,1,0,0v39.33a0,0,0,0,1,0,0H36.63a0,0,0,0,1,0,0V86.52A21.64,21.64,0,0,1,58.27,64.88Z"/><path d="M122.6,64.88h39.33a0,0,0,0,1,0,0v39.33a0,0,0,0,1,0,0H144.24A21.64,21.64,0,0,1,122.6,82.58V64.88A0,0,0,0,1,122.6,64.88Z" transform="translate(284.54 169.1) rotate(-180)"/><path d="M74.76,45.7a4.61,4.61,0,0,1,1.5,3.8,4.82,4.82,0,0,1-1.5,3.91,7,7,0,0,1-4.57,1.26H44.72a5.32,5.32,0,0,1-4-1.5,5.25,5.25,0,0,1-1.46-3.81,7.64,7.64,0,0,1,2.37-5.44L56.44,28.5q4.61-4.82,4.61-8.86A4.73,4.73,0,0,0,59.69,16a5.5,5.5,0,0,0-3.88-1.25,11.18,11.18,0,0,0-3.73.59,32,32,0,0,0-3.94,1.71l-1.4.7-1.08.59a8.3,8.3,0,0,1-1.43.66,4.15,4.15,0,0,1-1.32.21A3.54,3.54,0,0,1,40,17.65a6,6,0,0,1-1.19-3.73,6,6,0,0,1,.45-2.51A4.62,4.62,0,0,1,41,9.59,28.31,28.31,0,0,1,56.37,4.85a22.44,22.44,0,0,1,9.07,1.71,13.58,13.58,0,0,1,6,4.88,12.79,12.79,0,0,1,2.13,7.29,17.58,17.58,0,0,1-1.71,7.78,32.72,32.72,0,0,1-5.83,7.85L56.16,44.48h14A7.19,7.19,0,0,1,74.76,45.7Z"/><path d="M112.54,42.11A3.84,3.84,0,0,1,113.73,45,4,4,0,0,1,112.54,48a4.06,4.06,0,0,1-5.86,0l-7.54-7.54L91.61,48a4,4,0,0,1-2.93,1.18A4.29,4.29,0,0,1,85.75,48a4,4,0,0,1,0-5.86l7.53-7.54-7.53-7.46a4.34,4.34,0,0,1-1.19-2.94,4.1,4.1,0,0,1,1.26-3,3.66,3.66,0,0,1,2.86-1.25,4.09,4.09,0,0,1,2.93,1.32l7.53,7.54,7.54-7.54A4,4,0,0,1,109.61,20a3.89,3.89,0,0,1,2.93,1.25,3.67,3.67,0,0,1,1.26,2.87,4.1,4.1,0,0,1-1.26,3L105,34.57Z"/><path d="M156.32,33.66a12.39,12.39,0,0,1,2.34,7.61,12.17,12.17,0,0,1-2.3,7.39,14.64,14.64,0,0,1-6.53,4.85A26.15,26.15,0,0,1,140,55.22,30.78,30.78,0,0,1,131.24,54,22.51,22.51,0,0,1,124,50.48a4.91,4.91,0,0,1-2.16-4.33A5.72,5.72,0,0,1,123,42.49a3.61,3.61,0,0,1,2.93-1.5,4.55,4.55,0,0,1,1.75.31c.51.21,1.21.55,2.09,1l.67.31c.25.12.54.24.87.38a29.56,29.56,0,0,0,4,1.71,12.51,12.51,0,0,0,4,.6q3.91,0,5.62-1.26a4.85,4.85,0,0,0,1.71-4.19,4.36,4.36,0,0,0-1.75-3.9q-1.74-1.19-5.72-1.19h-4.32a4,4,0,0,1-3.28-1.46,5.71,5.71,0,0,1,0-7,4,4,0,0,1,3.28-1.47h3.07a10.76,10.76,0,0,0,5.58-1.11,3.92,3.92,0,0,0,1.74-3.56,5.21,5.21,0,0,0-1.53-4,6,6,0,0,0-4.26-1.43,10.5,10.5,0,0,0-3.66.62,37,37,0,0,0-3.8,1.68l-1.47.7c-.88.46-1.58.8-2.09,1a4.62,4.62,0,0,1-1.75.31,3.61,3.61,0,0,1-2.93-1.5,5.72,5.72,0,0,1-1.18-3.66,5.5,5.5,0,0,1,.48-2.44,5.69,5.69,0,0,1,1.68-1.89,23.18,23.18,0,0,1,7.08-3.49,28.21,28.21,0,0,1,8.27-1.25,23.28,23.28,0,0,1,9.11,1.67,13.71,13.71,0,0,1,6.07,4.75,12.22,12.22,0,0,1,2.12,7.11,11.59,11.59,0,0,1-2,6.74,11.32,11.32,0,0,1-5.54,4.22A11.89,11.89,0,0,1,156.32,33.66Z"/></svg>