<svg id="Layer_1" data-name="Layer 1" xmlns="http://www.w3.org/2000/svg" viewBox="0 0 122.3 122.3"><title>l7_1_1</title><path d="M30.24,21.13H53.63a0,0,0,0,1,0,0v45a0,0,0,0,1,0,0H8.6a0,0,0,0,1,0,0V42.77A21.64,21.64,0,0,1,30.24,21.13Z"/><path d="M80.27,71.16h23.39a0,0,0,0,1,0,0v45a0,0,0,0,1,0,0h-45a0,0,0,0,1,0,0V92.8A21.64,21.64,0,0,1,80.27,71.16Z" transform="translate(162.3 187.36) rotate(-180)"/><path d="M8.6,71.16h45a0,0,0,0,1,0,0v45a0,0,0,0,1,0,0H30.24A21.64,21.64,0,0,1,8.6,94.56V71.16A0,0,0,0,1,8.6,71.16Z"/><path d="M86.45,6.65l20.26,11.69a21.64,21.64,0,0,1,7.92,29.56l-11.7,20.26-39-22.51ZM97.89,38.18a4.66,4.66,0,0,0,2.43-1.83,5.39,5.39,0,0,0,.89-3.1,5.11,5.11,0,0,0-2.16-4.35,9.6,9.6,0,0,0-5.87-1.6,9.63,9.63,0,0,0-5.86,1.6,5.09,5.09,0,0,0-2.17,4.35,5.23,5.23,0,0,0,.87,3,5,5,0,0,0,2.48,1.91A5.16,5.16,0,0,0,85.58,40a5.47,5.47,0,0,0-1,3.4A5.34,5.34,0,0,0,86.87,48a10.6,10.6,0,0,0,6.31,1.66A10.62,10.62,0,0,0,99.49,48a5.36,5.36,0,0,0,2.3-4.6,5.09,5.09,0,0,0-3.9-5.24Zm-4.71,7.19c-2.26,0-3.38-.8-3.38-2.42s1.12-2.41,3.38-2.41,3.38.8,3.38,2.41S95.43,45.37,93.18,45.37Zm0-13.76a3.28,3.28,0,0,1,2.07.54,2.1,2.1,0,0,1,.69,1.75,2.14,2.14,0,0,1-.69,1.77,4.12,4.12,0,0,1-4.15,0,2.16,2.16,0,0,1-.68-1.77,2.12,2.12,0,0,1,.68-1.75A3.32,3.32,0,0,1,93.18,31.61Z"/></svg>