<svg id="Layer_1" data-name="Layer 1" xmlns="http://www.w3.org/2000/svg" viewBox="0 0 122.3 122.3"><title>l7_1_1</title><path d="M30.39,21.62H53.79a0,0,0,0,1,0,0v45a0,0,0,0,1,0,0h-45a0,0,0,0,1,0,0V43.25A21.64,21.64,0,0,1,30.39,21.62Z"/><path d="M72.33,15.37h45a0,0,0,0,1,0,0v45a0,0,0,0,1,0,0H94A21.64,21.64,0,0,1,72.33,38.77V15.37a0,0,0,0,1,0,0Z" transform="translate(158.04 118.13) rotate(-150)"/><path d="M103.82,71.65V95a21.64,21.64,0,0,1-21.64,21.64H30.39A21.64,21.64,0,0,1,8.75,95V71.65h95.07Zm-64.09,22a5.6,5.6,0,0,0,2.78-2.11,5.8,5.8,0,0,0,1-3.38,6.07,6.07,0,0,0-1.07-3.57,6.79,6.79,0,0,0-3-2.38,11.61,11.61,0,0,0-4.57-.84,14.07,14.07,0,0,0-4.15.63,11.54,11.54,0,0,0-3.55,1.75,3,3,0,0,0-.84.94,2.81,2.81,0,0,0-.24,1.23,2.92,2.92,0,0,0,.59,1.84,1.82,1.82,0,0,0,1.47.75,2.23,2.23,0,0,0,.88-.16A11.51,11.51,0,0,0,30,87.82l.73-.35a19.08,19.08,0,0,1,1.91-.84,5.27,5.27,0,0,1,1.84-.31,3,3,0,0,1,2.13.72,2.59,2.59,0,0,1,.77,2,2,2,0,0,1-.87,1.78,5.32,5.32,0,0,1-2.8.56H32.21a2,2,0,0,0-1.65.74,2.89,2.89,0,0,0,0,3.5,2,2,0,0,0,1.65.73h2.17a5.24,5.24,0,0,1,2.87.6,2.21,2.21,0,0,1,.87,2,2.41,2.41,0,0,1-.86,2.1,4.84,4.84,0,0,1-2.81.63,6.35,6.35,0,0,1-2-.3,15.47,15.47,0,0,1-2-.86L30,100.3l-.33-.16a11.06,11.06,0,0,0-1-.5,2.21,2.21,0,0,0-.87-.16,1.79,1.79,0,0,0-1.47.75,2.87,2.87,0,0,0-.6,1.84,2.46,2.46,0,0,0,1.09,2.17A11.23,11.23,0,0,0,30.39,106a15.85,15.85,0,0,0,4.37.61,13.24,13.24,0,0,0,5-.86A7.34,7.34,0,0,0,43,103.33a6.11,6.11,0,0,0,1.15-3.71A6.24,6.24,0,0,0,43,95.8,6,6,0,0,0,39.73,93.63Zm19.5,2.63L63,92.51a2,2,0,0,0,.63-1.5A1.86,1.86,0,0,0,63,89.57a2,2,0,0,0-1.47-.63,2,2,0,0,0-1.47.63l-3.78,3.78-3.78-3.78A2.07,2.07,0,0,0,51,88.91a1.83,1.83,0,0,0-1.44.63A2,2,0,0,0,49,91a2.13,2.13,0,0,0,.6,1.47l3.78,3.75L49.57,100a2,2,0,0,0,0,2.94,2.12,2.12,0,0,0,1.47.59,2,2,0,0,0,1.47-.59l3.78-3.78L60.07,103a2.06,2.06,0,0,0,3.53-1.47A1.94,1.94,0,0,0,63,100Zm25.58,1H84V84.64a3,3,0,0,0-.94-2.35,3.31,3.31,0,0,0-2.28-.84,3.57,3.57,0,0,0-1.56.37A3.27,3.27,0,0,0,78,82.89L68,97.17a3.93,3.93,0,0,0-.77,2.31A2.66,2.66,0,0,0,68,101.4a2.59,2.59,0,0,0,2,.77h7.81v1.19a3.1,3.1,0,0,0,.85,2.38,3.18,3.18,0,0,0,2.26.81,3.25,3.25,0,0,0,2.28-.81,3.08,3.08,0,0,0,.87-2.38v-1.19h.77c2,0,3-.82,3-2.48S86.84,97.27,84.81,97.27Zm-11.23,0,4.2-6v6Z"/></svg>