<svg id="Layer_1" data-name="Layer 1" xmlns="http://www.w3.org/2000/svg" viewBox="0 0 122.3 122.3"><title>l7_1_1</title><path d="M31.46,20.88H54.86a0,0,0,0,1,0,0v45a0,0,0,0,1,0,0h-45a0,0,0,0,1,0,0V42.52A21.64,21.64,0,0,1,31.46,20.88Z"/><path d="M81.5,70.92h23.39a0,0,0,0,1,0,0v45a0,0,0,0,1,0,0h-45a0,0,0,0,1,0,0V92.56A21.64,21.64,0,0,1,81.5,70.92Z" transform="translate(164.75 186.87) rotate(-180)"/><path d="M9.82,70.92h45a0,0,0,0,1,0,0v45a0,0,0,0,1,0,0H31.46A21.64,21.64,0,0,1,9.82,94.31V70.92A0,0,0,0,1,9.82,70.92Z"/><path d="M87.68,6.4l20.26,11.7a21.64,21.64,0,0,1,7.92,29.56l-11.7,20.26-39-22.52ZM101,44.66H98.43V30a2.58,2.58,0,0,0-2.75-2.75A5.21,5.21,0,0,0,93.1,28l-5,2.88a2.12,2.12,0,0,0-1.08,1.92,2.54,2.54,0,0,0,.62,1.69,1.85,1.85,0,0,0,1.48.76,2.08,2.08,0,0,0,1.09-.31l2.48-1.45V44.66H90.22a3.08,3.08,0,0,0-2,.56,2.09,2.09,0,0,0-.65,1.67c0,1.53.9,2.29,2.7,2.29H101c1.79,0,2.69-.76,2.69-2.29a2.06,2.06,0,0,0-.65-1.67A3,3,0,0,0,101,44.66Z"/></svg>