<svg id="Layer_1" data-name="Layer 1" xmlns="http://www.w3.org/2000/svg" viewBox="0 0 122.3 122.3"><title>l7_1_1</title><path d="M30.39,20.13H53.79a0,0,0,0,1,0,0v45a0,0,0,0,1,0,0h-45a0,0,0,0,1,0,0V41.77A21.64,21.64,0,0,1,30.39,20.13Z"/><path d="M80.43,70.16h23.39a0,0,0,0,1,0,0v45a0,0,0,0,1,0,0h-45a0,0,0,0,1,0,0V91.8A21.64,21.64,0,0,1,80.43,70.16Z" transform="translate(162.61 185.36) rotate(-180)"/><path d="M8.75,70.16h45a0,0,0,0,1,0,0v45a0,0,0,0,1,0,0H30.39A21.64,21.64,0,0,1,8.75,93.56V70.16A0,0,0,0,1,8.75,70.16Z"/><path d="M86.61,5.65l20.26,11.69a21.65,21.65,0,0,1,7.92,29.56l-11.7,20.26-39-22.51Zm6,20.65a8,8,0,0,0-3.94,1,6.85,6.85,0,0,0-2.71,2.68,8.23,8.23,0,0,0-.12,7.56A6.24,6.24,0,0,0,91.47,41a6,6,0,0,0,2.62-.57A4.93,4.93,0,0,0,96,38.82a8.21,8.21,0,0,1-1.16,4,3,3,0,0,1-2.56,1.44,4.06,4.06,0,0,1-1.43-.25,17.67,17.67,0,0,1-1.7-.74L88.47,43q-.6-.31-.93-.45a1.94,1.94,0,0,0-.78-.14,1.65,1.65,0,0,0-1.32.66,2.52,2.52,0,0,0-.54,1.63,2.35,2.35,0,0,0,.23,1.09,2.76,2.76,0,0,0,.76.83A9.7,9.7,0,0,0,89,48.15a11.78,11.78,0,0,0,3.55.56,8.4,8.4,0,0,0,4.82-1.39,9,9,0,0,0,3.19-4,14.9,14.9,0,0,0,1.13-6.06q0-5.27-2.38-8.12A8.35,8.35,0,0,0,92.56,26.3Zm.34,10.26A2.45,2.45,0,0,1,91,35.77a3.19,3.19,0,0,1-.7-2.16A3.07,3.07,0,0,1,91,31.48a2.41,2.41,0,0,1,1.92-.81,2.46,2.46,0,0,1,1.92.82,3,3,0,0,1,.75,2.12,3.08,3.08,0,0,1-.73,2.14A2.48,2.48,0,0,1,92.9,36.56Z"/></svg>