<svg id="Layer_1" data-name="Layer 1" xmlns="http://www.w3.org/2000/svg" viewBox="0 0 122.3 122.3"><title>l7_1_1</title><path d="M27.46,21.08H50.85a0,0,0,0,1,0,0v45a0,0,0,0,1,0,0h-45a0,0,0,0,1,0,0V42.72A21.64,21.64,0,0,1,27.46,21.08Z"/><path d="M77.49,71.12h23.39a0,0,0,0,1,0,0v45a0,0,0,0,1,0,0h-45a0,0,0,0,1,0,0V92.76A21.64,21.64,0,0,1,77.49,71.12Z" transform="translate(156.74 187.27) rotate(-180)"/><path d="M5.82,71.12h45a0,0,0,0,1,0,0v45a0,0,0,0,1,0,0H27.46A21.64,21.64,0,0,1,5.82,94.51V71.12A0,0,0,0,1,5.82,71.12Z"/><path d="M83.67,6.6l20.26,11.7a21.63,21.63,0,0,1,7.92,29.56l-11.7,20.26-39-22.52ZM92.26,35a6,6,0,0,0-2.62.57,5,5,0,0,0-1.91,1.57,8.21,8.21,0,0,1,1.17-4,3,3,0,0,1,2.55-1.44,4.06,4.06,0,0,1,1.43.25c.45.17,1,.41,1.7.74l.69.34a9.1,9.1,0,0,0,.93.45,1.86,1.86,0,0,0,.77.14,1.65,1.65,0,0,0,1.32-.66,2.52,2.52,0,0,0,.54-1.63,2.38,2.38,0,0,0-.23-1.09,2.88,2.88,0,0,0-.76-.83,9.91,9.91,0,0,0-3.12-1.55,12.1,12.1,0,0,0-3.55-.56,8.4,8.4,0,0,0-4.82,1.39,9,9,0,0,0-3.19,4A15.06,15.06,0,0,0,82,38.69c0,3.51.79,6.22,2.39,8.12a8.31,8.31,0,0,0,6.75,2.85,8,8,0,0,0,3.94-1A6.85,6.85,0,0,0,97.82,46,8.28,8.28,0,0,0,98,38.46a6.42,6.42,0,0,0-2.34-2.55A6.29,6.29,0,0,0,92.26,35ZM90.83,45.29a2.47,2.47,0,0,1-1.92-.82,3.08,3.08,0,0,1-.74-2.12,3,3,0,0,1,.73-2.14,2.74,2.74,0,0,1,3.87,0,3.14,3.14,0,0,1,.7,2.16,3.1,3.1,0,0,1-.72,2.14A2.44,2.44,0,0,1,90.83,45.29Z"/></svg>