<svg id="Layer_1" data-name="Layer 1" xmlns="http://www.w3.org/2000/svg" viewBox="0 0 122.3 122.3"><title>l7_1_1</title><path d="M29.39,20.19H52.79a0,0,0,0,1,0,0v45a0,0,0,0,1,0,0h-45a0,0,0,0,1,0,0V41.83A21.64,21.64,0,0,1,29.39,20.19Z"/><path d="M79.43,70.22h23.39a0,0,0,0,1,0,0v45a0,0,0,0,1,0,0h-45a0,0,0,0,1,0,0V91.86A21.64,21.64,0,0,1,79.43,70.22Z" transform="translate(160.61 185.48) rotate(-180)"/><path d="M7.75,70.22h45a0,0,0,0,1,0,0v45a0,0,0,0,1,0,0H29.39A21.64,21.64,0,0,1,7.75,93.62V70.22A0,0,0,0,1,7.75,70.22Z"/><path d="M85.61,5.71,105.87,17.4A21.65,21.65,0,0,1,113.79,47l-11.7,20.26-39-22.51Zm4,37.26H87.05V28.27a2.65,2.65,0,0,0-.76-2,2.72,2.72,0,0,0-2-.75,5.2,5.2,0,0,0-2.57.78l-5,2.88a2.11,2.11,0,0,0-1.09,1.92,2.61,2.61,0,0,0,.62,1.69,1.85,1.85,0,0,0,1.49.76,2.07,2.07,0,0,0,1.08-.31l2.48-1.45V43H78.83a3.09,3.09,0,0,0-2,.55,2.08,2.08,0,0,0-.65,1.68c0,1.53.9,2.29,2.69,2.29H89.59c1.8,0,2.7-.76,2.7-2.29a2.11,2.11,0,0,0-.65-1.68A3.14,3.14,0,0,0,89.59,43Zm17.79,0h-6.23l4.4-4.5A14.2,14.2,0,0,0,108.14,35a7.73,7.73,0,0,0,.76-3.45,5.68,5.68,0,0,0-.94-3.24,6,6,0,0,0-2.68-2.17,10,10,0,0,0-4-.76,12.71,12.71,0,0,0-6.86,2.11,2,2,0,0,0-.76.8,2.74,2.74,0,0,0-.2,1.12A2.7,2.7,0,0,0,94,31.05a1.59,1.59,0,0,0,1.3.69,1.87,1.87,0,0,0,.59-.09,3.8,3.8,0,0,0,.64-.29,5.17,5.17,0,0,1,.48-.27l.62-.31A15.51,15.51,0,0,1,99.34,30a5.16,5.16,0,0,1,1.66-.26,2.47,2.47,0,0,1,1.72.56,2.09,2.09,0,0,1,.6,1.61,6.05,6.05,0,0,1-2,3.94L94.7,42.72a3.4,3.4,0,0,0-1,2.42,2.35,2.35,0,0,0,.65,1.69,2.38,2.38,0,0,0,1.77.66h11.31a3.06,3.06,0,0,0,2-.56,2.11,2.11,0,0,0,.67-1.73,2,2,0,0,0-.67-1.69A3.18,3.18,0,0,0,107.38,43Z"/></svg>