<svg id="Layer_1" data-name="Layer 1" xmlns="http://www.w3.org/2000/svg" viewBox="0 0 122.3 122.3"><title>l7_1_1</title><path d="M27,20.53H50.38a0,0,0,0,1,0,0v45a0,0,0,0,1,0,0h-45a0,0,0,0,1,0,0V42.17A21.64,21.64,0,0,1,27,20.53Z"/><path d="M77,70.57h23.39a0,0,0,0,1,0,0v45a0,0,0,0,1,0,0h-45a0,0,0,0,1,0,0V92.21A21.64,21.64,0,0,1,77,70.57Z" transform="translate(155.8 186.17) rotate(-180)"/><path d="M5.35,70.57h45a0,0,0,0,1,0,0v45a0,0,0,0,1,0,0H27A21.64,21.64,0,0,1,5.35,94V70.57A0,0,0,0,1,5.35,70.57Z"/><path d="M83.2,6.05l20.26,11.7a21.64,21.64,0,0,1,7.92,29.56L99.68,67.57l-39-22.52ZM94.86,37.23a5,5,0,0,0,2.47-1.87,5.17,5.17,0,0,0,.88-3,5.43,5.43,0,0,0-.94-3.16,6.09,6.09,0,0,0-2.7-2.11,10.41,10.41,0,0,0-4-.74,12.48,12.48,0,0,0-3.67.56,10.3,10.3,0,0,0-3.15,1.55,2.53,2.53,0,0,0-.74.83,2.38,2.38,0,0,0-.22,1.09A2.57,2.57,0,0,0,83.27,32a1.6,1.6,0,0,0,1.3.66,1.94,1.94,0,0,0,.78-.14q.33-.14.93-.45l.65-.3A17.46,17.46,0,0,1,88.62,31a4.79,4.79,0,0,1,1.62-.28,2.67,2.67,0,0,1,1.9.64,2.33,2.33,0,0,1,.68,1.78A1.74,1.74,0,0,1,92,34.75a4.72,4.72,0,0,1-2.48.5H88.2a1.76,1.76,0,0,0-1.46.65,2.53,2.53,0,0,0,0,3.1,1.79,1.79,0,0,0,1.46.65h1.92a4.55,4.55,0,0,1,2.54.53,1.94,1.94,0,0,1,.78,1.73,2.17,2.17,0,0,1-.76,1.86,4.33,4.33,0,0,1-2.5.56,5.79,5.79,0,0,1-1.78-.26,14.32,14.32,0,0,1-1.78-.76l-.39-.17L85.94,43q-.6-.31-.93-.45a1.94,1.94,0,0,0-.78-.14,1.6,1.6,0,0,0-1.3.66,2.57,2.57,0,0,0-.53,1.63,2.35,2.35,0,0,0,.22,1.07,2.32,2.32,0,0,0,.74.85,9.82,9.82,0,0,0,3.23,1.57,13.81,13.81,0,0,0,3.87.54A11.56,11.56,0,0,0,94.85,48a6.52,6.52,0,0,0,2.9-2.15,5.43,5.43,0,0,0,1-3.29,5.52,5.52,0,0,0-1-3.38A5.26,5.26,0,0,0,94.86,37.23Z"/></svg>