<svg id="Layer_1" data-name="Layer 1" xmlns="http://www.w3.org/2000/svg" viewBox="0 0 122.3 122.3"><title>l7_1_1</title><path d="M27.93,19.37H51.32a0,0,0,0,1,0,0v45a0,0,0,0,1,0,0h-45a0,0,0,0,1,0,0V41A21.64,21.64,0,0,1,27.93,19.37Z"/><path d="M69.86,13.13h45a0,0,0,0,1,0,0v45a0,0,0,0,1,0,0H91.5A21.64,21.64,0,0,1,69.86,36.52V13.13a0,0,0,0,1,0,0Z" transform="translate(154.56 112.71) rotate(-150)"/><path d="M101.35,69.41V92.8a21.63,21.63,0,0,1-21.63,21.64H27.93A21.64,21.64,0,0,1,6.29,92.8V69.41h95.06ZM40.35,95h-.77V82.4a3,3,0,0,0-.95-2.35,3.31,3.31,0,0,0-2.27-.84,3.44,3.44,0,0,0-1.56.37,3.12,3.12,0,0,0-1.24,1.07l-10,14.28a3.86,3.86,0,0,0-.77,2.31,2.57,2.57,0,0,0,2.73,2.69h7.8v1.19a2.89,2.89,0,0,0,3.12,3.19,3.2,3.2,0,0,0,2.27-.81,3.09,3.09,0,0,0,.88-2.38V99.93h.77c2,0,3-.83,3-2.48S42.38,95,40.35,95ZM29.11,95l4.2-6v6Zm27.65-1,3.78-3.75a2,2,0,0,0,.63-1.5,1.83,1.83,0,0,0-.63-1.44,2,2,0,0,0-1.47-.63,2,2,0,0,0-1.47.63l-3.78,3.78L50,87.33a2,2,0,0,0-1.47-.66,1.82,1.82,0,0,0-1.43.63,2,2,0,0,0-.63,1.5,2.12,2.12,0,0,0,.59,1.47L50.88,94,47.1,97.8a2,2,0,0,0,0,2.94,2.17,2.17,0,0,0,1.47.59,2,2,0,0,0,1.47-.59L53.82,97l3.78,3.78a2.07,2.07,0,0,0,3.54-1.47,1.91,1.91,0,0,0-.6-1.47ZM76.53,88a8.72,8.72,0,0,0-3.46.63v-4.3h7.56c2,0,3-.82,3-2.45s-1-2.42-3-2.42H69.78a2.69,2.69,0,0,0-3,3v9.49a1.93,1.93,0,0,0,.67,1.52,2.43,2.43,0,0,0,1.64.58,3.33,3.33,0,0,0,1.58-.39,13.13,13.13,0,0,1,2-.63,9.36,9.36,0,0,1,1.91-.17,4,4,0,0,1,2.73.87,3.12,3.12,0,0,1,1,2.45,3,3,0,0,1-.95,2.47,4.48,4.48,0,0,1-2.9.79,5.76,5.76,0,0,1-1.94-.32,18.75,18.75,0,0,1-2-.84l-.7-.35a9.65,9.65,0,0,0-1-.52,2.26,2.26,0,0,0-.88-.14,1.82,1.82,0,0,0-1.47.75,2.9,2.9,0,0,0-.59,1.84,2.62,2.62,0,0,0,.26,1.2,3.29,3.29,0,0,0,.82,1,11.78,11.78,0,0,0,3.59,1.75,14.63,14.63,0,0,0,4.25.63,11.39,11.39,0,0,0,5-1,7.87,7.87,0,0,0,3.36-3,9,9,0,0,0,.19-8.59A7,7,0,0,0,80.58,89,8.06,8.06,0,0,0,76.53,88Z"/></svg>