<svg id="Layer_1" data-name="Layer 1" xmlns="http://www.w3.org/2000/svg" viewBox="0 0 122.3 122.3"><title>l7_1_1</title><path d="M29.63,20.92H53a0,0,0,0,1,0,0V66a0,0,0,0,1,0,0H8a0,0,0,0,1,0,0V42.56A21.64,21.64,0,0,1,29.63,20.92Z"/><path d="M79.67,71h23.39a0,0,0,0,1,0,0v45a0,0,0,0,1,0,0H58a0,0,0,0,1,0,0V92.59A21.64,21.64,0,0,1,79.67,71Z" transform="translate(161.09 186.94) rotate(-180)"/><path d="M8,71H53a0,0,0,0,1,0,0v45a0,0,0,0,1,0,0H29.63A21.64,21.64,0,0,1,8,94.35V71A0,0,0,0,1,8,71Z"/><path d="M85.85,6.43l20.26,11.7A21.65,21.65,0,0,1,114,47.69L102.33,68l-39-22.52Zm13,20.93H86.68a3,3,0,0,0-2,.58A2.14,2.14,0,0,0,84,29.66a2.11,2.11,0,0,0,.63,1.67,3.11,3.11,0,0,0,2.06.56h7.75l-8,13.61A2.94,2.94,0,0,0,86,47a2.28,2.28,0,0,0,.84,1.78,2.83,2.83,0,0,0,1.92.73,2.62,2.62,0,0,0,1.32-.36A2.91,2.91,0,0,0,91.18,48l9.39-16.27a4,4,0,0,0,.59-2.05,2.43,2.43,0,0,0-.6-1.69A2.24,2.24,0,0,0,98.84,27.36Z"/></svg>