<svg id="Layer_1" data-name="Layer 1" xmlns="http://www.w3.org/2000/svg" viewBox="0 0 122.3 122.3"><title>l7_1_1</title><path d="M28.53,20.59H51.92a0,0,0,0,1,0,0v45a0,0,0,0,1,0,0h-45a0,0,0,0,1,0,0V42.22A21.64,21.64,0,0,1,28.53,20.59Z"/><path d="M70.47,14.34h45a0,0,0,0,1,0,0v45a0,0,0,0,1,0,0H92.11A21.64,21.64,0,0,1,70.47,37.74V14.34A0,0,0,0,1,70.47,14.34Z" transform="translate(155.08 115.27) rotate(-150)"/><path d="M102,70.62V94a21.64,21.64,0,0,1-21.64,21.64H28.53A21.64,21.64,0,0,1,6.89,94V70.62H102ZM35.14,89.17a8.78,8.78,0,0,0-3.47.63V85.5h7.56c2,0,3.05-.82,3.05-2.45s-1-2.42-3.05-2.42H28.38a2.69,2.69,0,0,0-3,3v9.49a1.91,1.91,0,0,0,.66,1.52,2.41,2.41,0,0,0,1.65.58,3.29,3.29,0,0,0,1.57-.39,12.88,12.88,0,0,1,2-.63,10,10,0,0,1,1.9-.17,4,4,0,0,1,2.73.87,3.1,3.1,0,0,1,1,2.45A3,3,0,0,1,36,99.83a4.46,4.46,0,0,1-2.91.79,5.8,5.8,0,0,1-1.94-.32,20.71,20.71,0,0,1-2-.84l-.7-.35a9.72,9.72,0,0,0-1.05-.52,2.4,2.4,0,0,0-.87-.14,1.79,1.79,0,0,0-1.47.75,2.87,2.87,0,0,0-.6,1.84,2.54,2.54,0,0,0,.27,1.21,3,3,0,0,0,.82,1A11.44,11.44,0,0,0,29.14,105a14.53,14.53,0,0,0,4.25.63,11.32,11.32,0,0,0,5-1,7.81,7.81,0,0,0,3.36-3,8.2,8.2,0,0,0,1.19-4.44A8.49,8.49,0,0,0,42,93a7.17,7.17,0,0,0-2.77-2.8A8.15,8.15,0,0,0,35.14,89.17Zm22.22,6.06,3.78-3.75a2,2,0,0,0,.63-1.5,1.86,1.86,0,0,0-.63-1.44,1.92,1.92,0,0,0-1.47-.63,2,2,0,0,0-1.47.63l-3.78,3.78-3.78-3.78a2,2,0,0,0-1.47-.66,1.82,1.82,0,0,0-1.43.63,2,2,0,0,0-.63,1.5,2.17,2.17,0,0,0,.59,1.47l3.78,3.75L47.7,99a2,2,0,0,0,0,2.94,2.16,2.16,0,0,0,1.47.59,2,2,0,0,0,1.47-.59l3.78-3.78L58.2,102a2.07,2.07,0,0,0,3.54-1.47,1.91,1.91,0,0,0-.6-1.47Zm20.16-6.16a6.65,6.65,0,0,0-3,.65,5.66,5.66,0,0,0-2.15,1.76,9.2,9.2,0,0,1,1.32-4.56,3.32,3.32,0,0,1,2.88-1.63,4.58,4.58,0,0,1,1.61.28c.51.19,1.16.47,1.93.84l.77.38a9.42,9.42,0,0,0,1,.51,2.18,2.18,0,0,0,.87.16,1.86,1.86,0,0,0,1.49-.75,2.82,2.82,0,0,0,.61-1.84,2.55,2.55,0,0,0-.26-1.23,3.09,3.09,0,0,0-.86-.94A11.1,11.1,0,0,0,80.31,81a13.66,13.66,0,0,0-4-.63,9.46,9.46,0,0,0-5.44,1.57,10.13,10.13,0,0,0-3.61,4.5A17,17,0,0,0,66,93.23q0,6,2.7,9.17a9.38,9.38,0,0,0,7.63,3.22,9,9,0,0,0,4.44-1.08,7.78,7.78,0,0,0,3.07-3A9.34,9.34,0,0,0,83.94,93,7.25,7.25,0,0,0,81.3,90.1,7.06,7.06,0,0,0,77.52,89.07Zm-1.61,11.62a2.79,2.79,0,0,1-2.17-.93,3.88,3.88,0,0,1,0-4.81,3.1,3.1,0,0,1,4.37,0,3.59,3.59,0,0,1,.79,2.43,3.51,3.51,0,0,1-.81,2.42A2.73,2.73,0,0,1,75.91,100.69Z"/></svg>