<svg id="Layer_1" data-name="Layer 1" xmlns="http://www.w3.org/2000/svg" viewBox="0 0 122.3 122.3"><title>l7_1_1</title><path d="M27.61,20.46H51a0,0,0,0,1,0,0v45a0,0,0,0,1,0,0H6a0,0,0,0,1,0,0V42.1A21.64,21.64,0,0,1,27.61,20.46Z"/><path d="M77.65,70.49H101a0,0,0,0,1,0,0v45a0,0,0,0,1,0,0H56a0,0,0,0,1,0,0V92.13A21.64,21.64,0,0,1,77.65,70.49Z" transform="translate(157.05 186.02) rotate(-180)"/><path d="M6,70.49H51a0,0,0,0,1,0,0v45a0,0,0,0,1,0,0H27.61A21.64,21.64,0,0,1,6,93.89V70.49A0,0,0,0,1,6,70.49Z"/><path d="M83.83,6l20.26,11.7A21.65,21.65,0,0,1,112,47.23l-11.7,20.26L61.31,45ZM97.22,40.73h-.68V29.54a2.64,2.64,0,0,0-.84-2.08,3,3,0,0,0-2-.74,3.17,3.17,0,0,0-1.38.32,2.88,2.88,0,0,0-1.1.95L82.34,40.64a3.42,3.42,0,0,0-.68,2,2.4,2.4,0,0,0,.65,1.71,2.34,2.34,0,0,0,1.77.68H91v1a2.74,2.74,0,0,0,.76,2.11,2.77,2.77,0,0,0,2,.72,2.83,2.83,0,0,0,2-.72,2.71,2.71,0,0,0,.78-2.11v-1h.68c1.8,0,2.7-.73,2.7-2.2S99,40.73,97.22,40.73Zm-10,0L91,35.37v5.36Z"/></svg>