<svg id="Layer_1" data-name="Layer 1" xmlns="http://www.w3.org/2000/svg" viewBox="0 0 122.3 122.3"><title>l7_1_1</title><path d="M27.19,20.33H50.58a0,0,0,0,1,0,0v45a0,0,0,0,1,0,0h-45a0,0,0,0,1,0,0V42A21.64,21.64,0,0,1,27.19,20.33Z"/><path d="M77.22,70.37h23.39a0,0,0,0,1,0,0v45a0,0,0,0,1,0,0h-45a0,0,0,0,1,0,0V92A21.64,21.64,0,0,1,77.22,70.37Z" transform="translate(156.2 185.77) rotate(-180)"/><path d="M5.55,70.37h45a0,0,0,0,1,0,0v45a0,0,0,0,1,0,0H27.19A21.64,21.64,0,0,1,5.55,93.76V70.37A0,0,0,0,1,5.55,70.37Z"/><path d="M83.4,6l20.26,11.69a21.64,21.64,0,0,1,7.92,29.56L99.88,67.54,60.88,45Zm8.25,28.31a7.79,7.79,0,0,0-3.07.56V31.09h6.69c1.8,0,2.7-.72,2.7-2.17s-.9-2.14-2.7-2.14H85.66a2.66,2.66,0,0,0-2,.68,2.73,2.73,0,0,0-.68,2v8.4a1.7,1.7,0,0,0,.59,1.35,2.14,2.14,0,0,0,1.45.51,3,3,0,0,0,1.4-.34,10.67,10.67,0,0,1,1.78-.56,8.74,8.74,0,0,1,1.69-.16,3.5,3.5,0,0,1,2.42.78,2.75,2.75,0,0,1,.87,2.17,2.66,2.66,0,0,1-.84,2.18,3.94,3.94,0,0,1-2.57.7,5,5,0,0,1-1.72-.28,16.52,16.52,0,0,1-1.76-.74l-.61-.31c-.42-.23-.73-.38-.93-.47a2.21,2.21,0,0,0-.78-.12,1.58,1.58,0,0,0-1.3.67,2.52,2.52,0,0,0-.53,1.62,2.35,2.35,0,0,0,.23,1.07,2.72,2.72,0,0,0,.73.85,10.26,10.26,0,0,0,3.18,1.56,13,13,0,0,0,3.77.55A10.05,10.05,0,0,0,94.53,48a7,7,0,0,0,3-2.63,7.37,7.37,0,0,0,1-3.94,7.55,7.55,0,0,0-.88-3.67,6.28,6.28,0,0,0-2.45-2.48A7.17,7.17,0,0,0,91.65,34.34Z"/></svg>