<svg id="Layer_1" data-name="Layer 1" xmlns="http://www.w3.org/2000/svg" viewBox="0 0 122.3 122.3"><title>l7_1_1</title><path d="M28.63,21H52a0,0,0,0,1,0,0V66a0,0,0,0,1,0,0H7a0,0,0,0,1,0,0V42.62A21.64,21.64,0,0,1,28.63,21Z"/><path d="M78.67,71h23.39a0,0,0,0,1,0,0v45a0,0,0,0,1,0,0H57a0,0,0,0,1,0,0V92.65A21.64,21.64,0,0,1,78.67,71Z" transform="translate(159.09 187.06) rotate(-180)"/><path d="M7,71H52a0,0,0,0,1,0,0v45a0,0,0,0,1,0,0H28.63A21.64,21.64,0,0,1,7,94.41V71A0,0,0,0,1,7,71Z"/><path d="M84.85,6.49l20.26,11.7A21.65,21.65,0,0,1,113,47.75L101.33,68l-39-22.52Zm4,37.26H86.3V29.06a2.69,2.69,0,0,0-.76-2,2.73,2.73,0,0,0-2-.74,5.32,5.32,0,0,0-2.58.77L76,30a2.1,2.1,0,0,0-1.08,1.92,2.58,2.58,0,0,0,.62,1.69,1.85,1.85,0,0,0,1.48.76A2.08,2.08,0,0,0,78.12,34l2.48-1.46V43.75H78.09a3.14,3.14,0,0,0-2,.56A2.09,2.09,0,0,0,75.39,46c0,1.53.9,2.3,2.7,2.3H88.85c1.79,0,2.69-.77,2.69-2.3a2.06,2.06,0,0,0-.65-1.67A3.09,3.09,0,0,0,88.85,43.75Zm12,4.81a7.24,7.24,0,0,0,6.2-2.88q2.15-2.9,2.14-8.34T107.06,29a8.1,8.1,0,0,0-12.39,0c-1.42,1.92-2.14,4.69-2.14,8.31s.72,6.41,2.14,8.34A7.26,7.26,0,0,0,100.87,48.56Zm0-4.31a2.23,2.23,0,0,1-2.14-1.61,15.55,15.55,0,0,1-.65-5.3,15.41,15.41,0,0,1,.65-5.29,2.23,2.23,0,0,1,4.28,0,15.14,15.14,0,0,1,.65,5.27,15.3,15.3,0,0,1-.65,5.3A2.22,2.22,0,0,1,100.87,44.25Z"/></svg>