<svg id="Layer_1" data-name="Layer 1" xmlns="http://www.w3.org/2000/svg" viewBox="0 0 122.3 122.3"><title>l7_1_1</title><path d="M29.24,21.19H52.63a0,0,0,0,1,0,0v45a0,0,0,0,1,0,0H7.6a0,0,0,0,1,0,0V42.83A21.64,21.64,0,0,1,29.24,21.19Z"/><path d="M79.27,71.22h23.39a0,0,0,0,1,0,0v45a0,0,0,0,1,0,0h-45a0,0,0,0,1,0,0V92.86A21.64,21.64,0,0,1,79.27,71.22Z" transform="translate(160.3 187.48) rotate(-180)"/><path d="M7.6,71.22h45a0,0,0,0,1,0,0v45a0,0,0,0,1,0,0H29.24A21.64,21.64,0,0,1,7.6,94.62V71.22A0,0,0,0,1,7.6,71.22Z"/><path d="M85.45,6.71,105.71,18.4A21.64,21.64,0,0,1,113.63,48l-11.7,20.26-39-22.51Zm4,37.26H86.91V29.27a2.69,2.69,0,0,0-.76-2,2.74,2.74,0,0,0-2-.75,5.17,5.17,0,0,0-2.57.78l-5,2.88a2.11,2.11,0,0,0-1.09,1.92,2.61,2.61,0,0,0,.62,1.69,1.85,1.85,0,0,0,1.49.76,2.07,2.07,0,0,0,1.08-.31l2.48-1.45V44H78.69a3.09,3.09,0,0,0-2,.55A2.08,2.08,0,0,0,76,46.2c0,1.53.89,2.29,2.69,2.29H89.45c1.8,0,2.7-.76,2.7-2.29a2.11,2.11,0,0,0-.65-1.68A3.14,3.14,0,0,0,89.45,44Zm18.6,0h-2.54V29.27a2.69,2.69,0,0,0-.76-2,2.74,2.74,0,0,0-2-.75,5.23,5.23,0,0,0-2.58.78l-5,2.88a2.12,2.12,0,0,0-1.08,1.92,2.61,2.61,0,0,0,.62,1.69,1.85,1.85,0,0,0,1.49.76,2.07,2.07,0,0,0,1.08-.31l2.48-1.45V44H97.29a3.09,3.09,0,0,0-2,.55,2.09,2.09,0,0,0-.66,1.68c0,1.53.9,2.29,2.7,2.29h10.76c1.8,0,2.7-.76,2.7-2.29a2.09,2.09,0,0,0-.66-1.68A3.09,3.09,0,0,0,108.05,44Z"/></svg>