<svg id="Layer_1" data-name="Layer 1" xmlns="http://www.w3.org/2000/svg" viewBox="0 0 122.3 122.3"><title>l7_1_1</title><path d="M27.93,22.4H51.32a0,0,0,0,1,0,0v45a0,0,0,0,1,0,0h-45a0,0,0,0,1,0,0V44A21.64,21.64,0,0,1,27.93,22.4Z"/><path d="M69.86,16.16h45a0,0,0,0,1,0,0v45a0,0,0,0,1,0,0H91.5A21.64,21.64,0,0,1,69.86,39.55V16.16A0,0,0,0,1,69.86,16.16Z" transform="translate(153.04 118.36) rotate(-150)"/><path d="M101.35,72.44V95.83a21.63,21.63,0,0,1-21.63,21.64H27.93A21.64,21.64,0,0,1,6.29,95.83V72.44h95.06ZM40.22,102H37.35V85.43a3,3,0,0,0-.85-2.28,3.11,3.11,0,0,0-2.26-.84,5.88,5.88,0,0,0-2.91.88l-5.6,3.25a2.38,2.38,0,0,0-1.22,2.17,2.93,2.93,0,0,0,.7,1.91,2.09,2.09,0,0,0,1.68.86A2.38,2.38,0,0,0,28.11,91l2.8-1.65V102H28.08a3.5,3.5,0,0,0-2.31.63,2.36,2.36,0,0,0-.74,1.89c0,1.72,1,2.59,3,2.59H40.22c2,0,3.05-.87,3.05-2.59a2.36,2.36,0,0,0-.74-1.89A3.5,3.5,0,0,0,40.22,102Zm16.52-5,3.78-3.75a2,2,0,0,0,.63-1.5,1.83,1.83,0,0,0-.63-1.44,1.92,1.92,0,0,0-1.47-.63,2,2,0,0,0-1.47.63L53.8,94.14,50,90.36a2,2,0,0,0-1.47-.66,1.82,1.82,0,0,0-1.43.63,2,2,0,0,0-.63,1.5,2.17,2.17,0,0,0,.59,1.47l3.78,3.75-3.78,3.78a2,2,0,0,0,0,2.94,2.21,2.21,0,0,0,1.47.59,2,2,0,0,0,1.47-.59L53.8,100l3.78,3.78a2.07,2.07,0,0,0,3.54-1.47,1.91,1.91,0,0,0-.6-1.47Zm24.57,5h-7l5-5.08A16.54,16.54,0,0,0,82.17,93,8.85,8.85,0,0,0,83,89.1,6.45,6.45,0,0,0,82,85.44a6.88,6.88,0,0,0-3-2.45,11.26,11.26,0,0,0-4.55-.85,13.65,13.65,0,0,0-4,.63,13.37,13.37,0,0,0-3.69,1.75,2.29,2.29,0,0,0-.86.91,3.34,3.34,0,0,0,.37,3.13,1.78,1.78,0,0,0,1.47.79,2.08,2.08,0,0,0,.66-.11,4.36,4.36,0,0,0,.72-.33l.54-.3.7-.35a18.34,18.34,0,0,1,2-.86,5.6,5.6,0,0,1,1.87-.29,2.75,2.75,0,0,1,1.94.63,2.33,2.33,0,0,1,.69,1.82q0,2-2.31,4.44L67,101.74a3.78,3.78,0,0,0-1.19,2.73,2.59,2.59,0,0,0,.73,1.9,2.65,2.65,0,0,0,2,.76H81.31a3.5,3.5,0,0,0,2.29-.63,2.4,2.4,0,0,0,.76-2,2.29,2.29,0,0,0-.76-1.91A3.56,3.56,0,0,0,81.31,102Z"/></svg>