<svg id="Layer_1" data-name="Layer 1" xmlns="http://www.w3.org/2000/svg" viewBox="0 0 122.3 122.3"><title>l7_1_1</title><path d="M28.39,22.59H51.79a0,0,0,0,1,0,0v45a0,0,0,0,1,0,0h-45a0,0,0,0,1,0,0V44.22A21.64,21.64,0,0,1,28.39,22.59Z"/><path d="M70.33,16.34h45a0,0,0,0,1,0,0v45a0,0,0,0,1,0,0H92A21.64,21.64,0,0,1,70.33,39.74V16.34a0,0,0,0,1,0,0Z" transform="translate(153.82 118.94) rotate(-150)"/><path d="M101.82,72.62V96a21.64,21.64,0,0,1-21.64,21.64H28.39A21.64,21.64,0,0,1,6.75,96V72.62h95.07ZM35.39,91.07a6.62,6.62,0,0,0-3,.65,5.51,5.51,0,0,0-2.15,1.76,9.21,9.21,0,0,1,1.31-4.56,3.34,3.34,0,0,1,2.89-1.63,4.62,4.62,0,0,1,1.61.28q.77.29,1.92.84l.77.38a10.36,10.36,0,0,0,1,.51,2.23,2.23,0,0,0,.88.16,1.84,1.84,0,0,0,1.48-.75,2.82,2.82,0,0,0,.62-1.84,2.67,2.67,0,0,0-.26-1.23,3.23,3.23,0,0,0-.86-.94A11.16,11.16,0,0,0,38.17,83a13.61,13.61,0,0,0-4-.63,9.48,9.48,0,0,0-5.44,1.57,10.27,10.27,0,0,0-3.61,4.5,17,17,0,0,0-1.27,6.84q0,6,2.69,9.17a9.39,9.39,0,0,0,7.63,3.22,9.08,9.08,0,0,0,4.45-1.08,7.82,7.82,0,0,0,3.06-3A9.38,9.38,0,0,0,41.81,95a7.25,7.25,0,0,0-2.64-2.87A7.06,7.06,0,0,0,35.39,91.07Zm-1.61,11.62a2.79,2.79,0,0,1-2.17-.93,3.9,3.9,0,0,1,0-4.81,3.11,3.11,0,0,1,4.38,0,4.12,4.12,0,0,1,0,4.85A2.75,2.75,0,0,1,33.78,102.69Zm23.45-5.46L61,93.48a2,2,0,0,0,.63-1.5A1.86,1.86,0,0,0,61,90.54a2,2,0,0,0-1.47-.63,2,2,0,0,0-1.47.63l-3.78,3.78-3.78-3.78A2.07,2.07,0,0,0,49,89.88a1.83,1.83,0,0,0-1.44.63A2,2,0,0,0,47,92a2.13,2.13,0,0,0,.6,1.47l3.78,3.75L47.57,101a2,2,0,0,0,0,2.94,2.12,2.12,0,0,0,1.47.59,2,2,0,0,0,1.47-.59l3.78-3.78L58.07,104a2.06,2.06,0,0,0,3.53-1.47A1.94,1.94,0,0,0,61,101Zm25.13-14.6H68.64a3.44,3.44,0,0,0-2.31.65,2.45,2.45,0,0,0-.74,1.94,2.38,2.38,0,0,0,.72,1.89,3.49,3.49,0,0,0,2.33.63h8.75l-9,15.37a3.28,3.28,0,0,0-.49,1.68,2.58,2.58,0,0,0,.95,2,3.19,3.19,0,0,0,2.17.82,2.94,2.94,0,0,0,1.48-.4A3.28,3.28,0,0,0,73.71,106L84.32,87.6A4.46,4.46,0,0,0,85,85.29a2.73,2.73,0,0,0-.68-1.9A2.5,2.5,0,0,0,82.36,82.63Z"/></svg>