<svg id="Layer_1" data-name="Layer 1" xmlns="http://www.w3.org/2000/svg" viewBox="0 0 122.3 122.3"><title>l7_2_1</title><path d="M30.39,18.91H53.78a0,0,0,0,1,0,0v45a0,0,0,0,1,0,0h-45a0,0,0,0,1,0,0V40.55A21.64,21.64,0,0,1,30.39,18.91Z"/><path d="M80.42,68.95h23.39a0,0,0,0,1,0,0v45a0,0,0,0,1,0,0h-45a0,0,0,0,1,0,0V90.59A21.64,21.64,0,0,1,80.42,68.95Z" transform="translate(162.6 182.93) rotate(-180)"/><path d="M53.78,114H30.39A21.64,21.64,0,0,1,8.75,92.34V69h45ZM36.06,91.73a5,5,0,0,0,2.46-1.88,5.12,5.12,0,0,0,.89-3,5.41,5.41,0,0,0-.95-3.16,6.11,6.11,0,0,0-2.69-2.11,10.41,10.41,0,0,0-4.05-.74,12.16,12.16,0,0,0-3.67.56A10.3,10.3,0,0,0,24.9,83a2.44,2.44,0,0,0-.74.83,2.35,2.35,0,0,0-.22,1.09,2.51,2.51,0,0,0,.53,1.63,1.6,1.6,0,0,0,1.3.66,1.86,1.86,0,0,0,.77-.14,9.1,9.1,0,0,0,.93-.45l.65-.31a18.3,18.3,0,0,1,1.69-.74,4.62,4.62,0,0,1,1.63-.28,2.62,2.62,0,0,1,1.89.64A2.28,2.28,0,0,1,34,87.67a1.74,1.74,0,0,1-.78,1.58,4.75,4.75,0,0,1-2.48.5H29.4a1.76,1.76,0,0,0-1.46.65,2.53,2.53,0,0,0,0,3.1,1.79,1.79,0,0,0,1.46.65h1.92a4.58,4.58,0,0,1,2.54.53,1.92,1.92,0,0,1,.77,1.73,2.16,2.16,0,0,1-.75,1.86,4.33,4.33,0,0,1-2.5.56,5.46,5.46,0,0,1-1.78-.27,13.38,13.38,0,0,1-1.79-.75l-.38-.18-.3-.13a9.1,9.1,0,0,0-.93-.45,1.86,1.86,0,0,0-.77-.14,1.6,1.6,0,0,0-1.3.66,2.51,2.51,0,0,0-.53,1.63,2.18,2.18,0,0,0,1,1.92,10,10,0,0,0,3.22,1.57,13.83,13.83,0,0,0,3.88.54,11.63,11.63,0,0,0,4.39-.76,6.43,6.43,0,0,0,2.89-2.15A5.37,5.37,0,0,0,40,97a5.52,5.52,0,0,0-1-3.38A5.26,5.26,0,0,0,36.06,91.73Z"/><path d="M86.6,4.43l20.26,11.7a21.63,21.63,0,0,1,7.92,29.56L103.08,66l-39-22.52ZM93.69,40.7a1.78,1.78,0,0,0,1.13-.37,1.64,1.64,0,0,0,.6-1,2.9,2.9,0,0,1,.7-1.26,14.9,14.9,0,0,1,1.56-1.44c.73-.64,1.32-1.19,1.77-1.64a6.2,6.2,0,0,0,1.16-1.64,4.7,4.7,0,0,0,.48-2.11,4.63,4.63,0,0,0-.89-2.78,6.12,6.12,0,0,0-2.48-1.92,9,9,0,0,0-3.6-.7,11.41,11.41,0,0,0-3.58.58A11,11,0,0,0,87.36,28a2.79,2.79,0,0,0-.76.84,2.33,2.33,0,0,0-.23,1.08,2.48,2.48,0,0,0,.54,1.63,1.63,1.63,0,0,0,1.32.67,3.81,3.81,0,0,0,1.7-.59l.75-.37a11,11,0,0,1,1.56-.76,3.92,3.92,0,0,1,1.41-.27A2.11,2.11,0,0,1,95,30.6a1.32,1.32,0,0,1,.49,1.08,2.21,2.21,0,0,1-.35,1.24,10.5,10.5,0,0,1-1.07,1.34,9.84,9.84,0,0,0-1.55,2A4.85,4.85,0,0,0,92,38.69a2.23,2.23,0,0,0,.45,1.49A1.57,1.57,0,0,0,93.69,40.7Zm.06,7.41a2.91,2.91,0,0,0,2.15-.86,3.12,3.12,0,0,0,0-4.28,3.07,3.07,0,0,0-4.28,0,3.12,3.12,0,0,0,0,4.28A2.9,2.9,0,0,0,93.75,48.11Z"/></svg>