<svg id="Layer_1" data-name="Layer 1" xmlns="http://www.w3.org/2000/svg" viewBox="0 0 122.3 122.3"><title>l7_2_1</title><path d="M32.7,18.08H56.09a0,0,0,0,1,0,0v45a0,0,0,0,1,0,0h-45a0,0,0,0,1,0,0V39.72A21.64,21.64,0,0,1,32.7,18.08Z"/><path d="M82.73,68.11h23.39a0,0,0,0,1,0,0v45a0,0,0,0,1,0,0h-45a0,0,0,0,1,0,0V89.75A21.64,21.64,0,0,1,82.73,68.11Z" transform="translate(167.22 181.26) rotate(-180)"/><path d="M56.09,113.15H32.7A21.64,21.64,0,0,1,11.06,91.51V68.11h45ZM33.66,80a8,8,0,0,0-3.94,1A6.91,6.91,0,0,0,27,83.66a8.23,8.23,0,0,0-.12,7.56,6.29,6.29,0,0,0,5.69,3.46,5.81,5.81,0,0,0,2.61-.58,4.84,4.84,0,0,0,1.91-1.56,8.17,8.17,0,0,1-1.16,4A3,3,0,0,1,33.38,98,4.2,4.2,0,0,1,32,97.78,17.07,17.07,0,0,1,30.25,97l-.68-.34c-.4-.2-.7-.35-.93-.45a2.13,2.13,0,0,0-.78-.14,1.65,1.65,0,0,0-1.31.67A2.47,2.47,0,0,0,26,98.4a2.21,2.21,0,0,0,.24,1.08,2.54,2.54,0,0,0,.76.84,9.75,9.75,0,0,0,3.11,1.55,12.1,12.1,0,0,0,3.55.56,8.38,8.38,0,0,0,4.82-1.4,9,9,0,0,0,3.19-4A15,15,0,0,0,42.8,91q0-5.26-2.38-8.12A8.33,8.33,0,0,0,33.66,80ZM34,90.28a2.48,2.48,0,0,1-1.94-.79,3.18,3.18,0,0,1-.69-2.16,3.09,3.09,0,0,1,.71-2.14,2.68,2.68,0,0,1,3.84,0,3,3,0,0,1,.75,2.12,3.1,3.1,0,0,1-.73,2.14A2.48,2.48,0,0,1,34,90.28Z"/><path d="M88.91,3.6l20.26,11.69a21.64,21.64,0,0,1,7.92,29.56l-11.7,20.26-39-22.51ZM96,39.87a1.78,1.78,0,0,0,1.13-.37,1.64,1.64,0,0,0,.6-1.06,3,3,0,0,1,.7-1.25A14.19,14.19,0,0,1,100,35.75c.72-.64,1.31-1.19,1.76-1.65a6.07,6.07,0,0,0,1.17-1.64,4.64,4.64,0,0,0,.48-2.11,4.57,4.57,0,0,0-.9-2.77A6,6,0,0,0,100,25.66a8.79,8.79,0,0,0-3.6-.7,11.69,11.69,0,0,0-3.58.57,11.3,11.3,0,0,0-3.18,1.6,2.79,2.79,0,0,0-.76.84,2.33,2.33,0,0,0-.23,1.08,2.5,2.5,0,0,0,.54,1.63,1.66,1.66,0,0,0,1.32.67,3.84,3.84,0,0,0,1.71-.59l.74-.38a11.6,11.6,0,0,1,1.57-.76A4,4,0,0,1,96,29.36a2.16,2.16,0,0,1,1.36.4,1.35,1.35,0,0,1,.5,1.09,2.25,2.25,0,0,1-.36,1.24,10.51,10.51,0,0,1-1.07,1.33,10.13,10.13,0,0,0-1.55,2,4.87,4.87,0,0,0-.56,2.44,2.2,2.2,0,0,0,.45,1.48A1.54,1.54,0,0,0,96,39.87Zm.06,7.41a2.88,2.88,0,0,0,2.15-.87,3,3,0,0,0-2.15-5.14,2.86,2.86,0,0,0-2.12.86,3.09,3.09,0,0,0,0,4.28A2.83,2.83,0,0,0,96.06,47.28Z"/></svg>