<svg id="Layer_1" data-name="Layer 1" xmlns="http://www.w3.org/2000/svg" viewBox="0 0 122.3 122.3"><title>l7_2_1</title><path d="M27.6,22.49H51a0,0,0,0,1,0,0v45a0,0,0,0,1,0,0H6a0,0,0,0,1,0,0V44.13A21.64,21.64,0,0,1,27.6,22.49Z"/><path d="M83.82,8l20.26,11.7A21.65,21.65,0,0,1,112,49.26L100.3,69.52,61.3,47Zm6.55,34.63a2,2,0,0,0,1.28-.42A1.83,1.83,0,0,0,92.33,41a3.24,3.24,0,0,1,.79-1.41A14.94,14.94,0,0,1,94.88,38c.82-.72,1.49-1.34,2-1.86a7.07,7.07,0,0,0,1.31-1.85,5.27,5.27,0,0,0,.54-2.38,5.12,5.12,0,0,0-1-3.13,6.68,6.68,0,0,0-2.8-2.17,9.9,9.9,0,0,0-4.06-.79,12.84,12.84,0,0,0-4,.65,12.34,12.34,0,0,0-3.59,1.8,3.09,3.09,0,0,0-.86.94,2.67,2.67,0,0,0-.26,1.23,2.83,2.83,0,0,0,.61,1.84,1.86,1.86,0,0,0,1.49.75,4.19,4.19,0,0,0,1.92-.67l.84-.42a12.58,12.58,0,0,1,1.77-.85,4.48,4.48,0,0,1,1.59-.3,2.37,2.37,0,0,1,1.54.45,1.5,1.5,0,0,1,.56,1.23,2.54,2.54,0,0,1-.4,1.4,11.16,11.16,0,0,1-1.21,1.5,11.92,11.92,0,0,0-1.75,2.26,5.48,5.48,0,0,0-.63,2.75A2.52,2.52,0,0,0,89,42,1.75,1.75,0,0,0,90.37,42.63ZM90.44,51a3.27,3.27,0,0,0,2.43-1,3.52,3.52,0,0,0,0-4.83,3.27,3.27,0,0,0-2.43-1,3.23,3.23,0,0,0-2.4,1A3.52,3.52,0,0,0,88,50,3.23,3.23,0,0,0,90.44,51Z"/><path d="M101,72.52v23.4a21.63,21.63,0,0,1-21.64,21.63H27.6A21.62,21.62,0,0,1,6,95.92V72.52H101Zm-64.09,22a5.75,5.75,0,0,0,2.79-2.12,5.87,5.87,0,0,0,1-3.38,6.13,6.13,0,0,0-1.06-3.57,6.88,6.88,0,0,0-3-2.38A11.61,11.61,0,0,0,32,82.22a14,14,0,0,0-4.14.63,11.6,11.6,0,0,0-3.56,1.75,2.92,2.92,0,0,0-.84,1,2.73,2.73,0,0,0-.24,1.22,2.92,2.92,0,0,0,.59,1.84,1.82,1.82,0,0,0,1.47.75,2.23,2.23,0,0,0,.88-.16,11.06,11.06,0,0,0,1.05-.5l.73-.35a19.08,19.08,0,0,1,1.91-.84,5.31,5.31,0,0,1,1.84-.32,3,3,0,0,1,2.13.72,2.59,2.59,0,0,1,.77,2,2,2,0,0,1-.87,1.79,5.39,5.39,0,0,1-2.8.56H29.42a2,2,0,0,0-1.65.73,2.89,2.89,0,0,0,0,3.5,2,2,0,0,0,1.65.74h2.17a5.23,5.23,0,0,1,2.87.59,2.21,2.21,0,0,1,.87,2,2.43,2.43,0,0,1-.85,2.1,4.88,4.88,0,0,1-2.82.63,6.25,6.25,0,0,1-2-.3,14.81,14.81,0,0,1-2-.85l-.43-.2-.34-.15a9.42,9.42,0,0,0-1.05-.51,2.14,2.14,0,0,0-.87-.16,1.82,1.82,0,0,0-1.47.75,2.88,2.88,0,0,0-.6,1.84,2.81,2.81,0,0,0,.25,1.21,2.65,2.65,0,0,0,.84,1,11.33,11.33,0,0,0,3.64,1.77,15.48,15.48,0,0,0,4.37.61,13.24,13.24,0,0,0,5-.86,7.34,7.34,0,0,0,3.27-2.43,6.11,6.11,0,0,0,1.15-3.71,6.21,6.21,0,0,0-1.17-3.81A5.91,5.91,0,0,0,36.94,94.51Zm19.5,2.62,3.78-3.74a2.07,2.07,0,0,0,.63-1.51,1.82,1.82,0,0,0-.63-1.43,2,2,0,0,0-1.47-.63,2,2,0,0,0-1.47.63L53.5,94.23l-3.78-3.78a2,2,0,0,0-1.47-.67,1.86,1.86,0,0,0-1.44.63,2.05,2.05,0,0,0-.63,1.51,2.17,2.17,0,0,0,.6,1.47l3.78,3.74-3.78,3.78a2,2,0,0,0,0,2.94,2.13,2.13,0,0,0,1.47.6,2,2,0,0,0,1.47-.6l3.78-3.78,3.78,3.78a2,2,0,0,0,2.94,0,2,2,0,0,0,.59-1.47,1.9,1.9,0,0,0-.59-1.47Zm25.58,1h-.77V85.51a3,3,0,0,0-.94-2.34A3.31,3.31,0,0,0,78,82.33a3.55,3.55,0,0,0-1.55.36,3.23,3.23,0,0,0-1.25,1.07L65.22,98a3.93,3.93,0,0,0-.77,2.31,2.7,2.7,0,0,0,.74,1.93,2.63,2.63,0,0,0,2,.77H75v1.19a3.09,3.09,0,0,0,.86,2.38,3.17,3.17,0,0,0,2.25.8,3.27,3.27,0,0,0,2.28-.8,3.09,3.09,0,0,0,.87-2.38v-1.19H82c2,0,3-.83,3-2.49S84.05,98.15,82,98.15Zm-11.23,0L75,92.09v6.06Z"/></svg>