<svg id="Layer_1" data-name="Layer 1" xmlns="http://www.w3.org/2000/svg" viewBox="0 0 122.3 122.3"><title>l7_2_1</title><path d="M29.45,21H52.84a0,0,0,0,1,0,0V66a0,0,0,0,1,0,0h-45a0,0,0,0,1,0,0V42.61A21.64,21.64,0,0,1,29.45,21Z"/><path d="M85.66,6.49l20.26,11.7a21.63,21.63,0,0,1,7.92,29.56L102.14,68l-39-22.52Zm6.55,34.63a2,2,0,0,0,1.28-.42,1.86,1.86,0,0,0,.68-1.19A3.33,3.33,0,0,1,95,38.09a17.17,17.17,0,0,1,1.77-1.62c.81-.73,1.48-1.35,2-1.86A7.09,7.09,0,0,0,100,32.76a5.3,5.3,0,0,0,.54-2.38,5.18,5.18,0,0,0-1-3.14,6.78,6.78,0,0,0-2.8-2.17,10,10,0,0,0-4.06-.78,13.16,13.16,0,0,0-4,.64,12.75,12.75,0,0,0-3.59,1.81,2.94,2.94,0,0,0-.85.94A2.54,2.54,0,0,0,84,28.91a2.8,2.8,0,0,0,.62,1.83,1.82,1.82,0,0,0,1.48.76A4.38,4.38,0,0,0,88,30.83l.84-.42a12.81,12.81,0,0,1,1.77-.86,4.61,4.61,0,0,1,1.59-.29,2.41,2.41,0,0,1,1.54.45,1.5,1.5,0,0,1,.56,1.23,2.62,2.62,0,0,1-.4,1.4,12,12,0,0,1-1.21,1.5,11.23,11.23,0,0,0-1.75,2.26,5.46,5.46,0,0,0-.63,2.75,2.52,2.52,0,0,0,.51,1.68A1.76,1.76,0,0,0,92.21,41.12Zm.07,8.37a3.43,3.43,0,0,0,2.44-5.81,3.27,3.27,0,0,0-2.44-1,3.19,3.19,0,0,0-2.39,1,3.26,3.26,0,0,0-1,2.41,3.3,3.3,0,0,0,1,2.42A3.23,3.23,0,0,0,92.28,49.49Z"/><path d="M102.88,71V94.4A21.64,21.64,0,0,1,81.24,116H29.45A21.64,21.64,0,0,1,7.81,94.4V71h95.07Zm-61,25.62H41.1V84a3,3,0,0,0-1-2.35,3.29,3.29,0,0,0-2.27-.84,3.57,3.57,0,0,0-1.56.37,3.2,3.2,0,0,0-1.24,1.07l-10,14.28a3.93,3.93,0,0,0-.77,2.31,2.66,2.66,0,0,0,.73,1.92,2.61,2.61,0,0,0,2,.77h7.8v1.19a3.11,3.11,0,0,0,.86,2.38,3.16,3.16,0,0,0,2.26.81,3.2,3.2,0,0,0,2.27-.81,3,3,0,0,0,.88-2.38v-1.19h.77c2,0,3-.83,3-2.48S43.9,96.63,41.87,96.63Zm-11.24,0,4.2-6v6Zm27.65-1,3.78-3.75a2,2,0,0,0,.63-1.5,1.86,1.86,0,0,0-.63-1.44,1.92,1.92,0,0,0-1.47-.63,2,2,0,0,0-1.47.63l-3.78,3.78-3.78-3.78a2,2,0,0,0-1.47-.66,1.82,1.82,0,0,0-1.43.63A2,2,0,0,0,48,90.4a2.17,2.17,0,0,0,.59,1.47l3.78,3.75L48.62,99.4a2,2,0,0,0,0,2.94,2.16,2.16,0,0,0,1.47.59,2,2,0,0,0,1.47-.59l3.78-3.78,3.78,3.78a2.07,2.07,0,0,0,3.54-1.47,1.91,1.91,0,0,0-.6-1.47Zm19.78-6.06a8.78,8.78,0,0,0-3.47.63v-4.3h7.56c2,0,3-.82,3-2.45s-1-2.42-3-2.42H71.3a2.69,2.69,0,0,0-3,3v9.49A1.91,1.91,0,0,0,69,95a2.41,2.41,0,0,0,1.65.58,3.29,3.29,0,0,0,1.57-.39,12.88,12.88,0,0,1,2-.63,10,10,0,0,1,1.9-.17,4,4,0,0,1,2.73.87,3.1,3.1,0,0,1,1,2.45,3,3,0,0,1-.94,2.47A4.46,4.46,0,0,1,76,101a5.8,5.8,0,0,1-1.94-.32,19.68,19.68,0,0,1-2-.84l-.7-.35A10.74,10.74,0,0,0,70.32,99a2.4,2.4,0,0,0-.87-.14,1.79,1.79,0,0,0-1.47.75,2.85,2.85,0,0,0-.6,1.84,2.54,2.54,0,0,0,.27,1.21,3.09,3.09,0,0,0,.82,1,11.44,11.44,0,0,0,3.59,1.75,14.53,14.53,0,0,0,4.25.63,11.32,11.32,0,0,0,5-1,7.81,7.81,0,0,0,3.36-3,8.2,8.2,0,0,0,1.19-4.44,8.39,8.39,0,0,0-1-4.15,7.08,7.08,0,0,0-2.76-2.8A8.15,8.15,0,0,0,78.06,89.56Z"/></svg>