<svg id="Layer_1" data-name="Layer 1" xmlns="http://www.w3.org/2000/svg" viewBox="0 0 122.3 122.3"><title>l7_2_1</title><path d="M28.14,22.27H51.53a0,0,0,0,1,0,0v45a0,0,0,0,1,0,0H6.5a0,0,0,0,1,0,0V43.91A21.64,21.64,0,0,1,28.14,22.27Z"/><path d="M84.35,7.79l20.26,11.7a21.63,21.63,0,0,1,7.92,29.56l-11.7,20.26-39-22.52ZM90.9,42.42A2,2,0,0,0,92.18,42a1.86,1.86,0,0,0,.68-1.19,3.33,3.33,0,0,1,.79-1.42,17.17,17.17,0,0,1,1.77-1.62c.81-.73,1.48-1.35,2-1.86a7.07,7.07,0,0,0,1.31-1.85,5.38,5.38,0,0,0-.47-5.52,6.78,6.78,0,0,0-2.8-2.17,10,10,0,0,0-4.06-.79,13.18,13.18,0,0,0-4,.65A12.49,12.49,0,0,0,83.76,28a3.11,3.11,0,0,0-.86.94,2.62,2.62,0,0,0-.26,1.22A2.85,2.85,0,0,0,83.25,32a1.87,1.87,0,0,0,1.49.75,4.34,4.34,0,0,0,1.93-.66l.84-.42a13.32,13.32,0,0,1,1.76-.86,4.48,4.48,0,0,1,1.6-.29,2.41,2.41,0,0,1,1.54.45A1.5,1.5,0,0,1,93,32.24a2.51,2.51,0,0,1-.41,1.39,10.4,10.4,0,0,1-1.2,1.51,11.23,11.23,0,0,0-1.75,2.26A5.46,5.46,0,0,0,89,40.15a2.57,2.57,0,0,0,.5,1.68A1.78,1.78,0,0,0,90.9,42.42ZM91,50.79A3.4,3.4,0,1,0,91,44a3.22,3.22,0,0,0-2.4,1,3.3,3.3,0,0,0-1,2.41,3.33,3.33,0,0,0,1,2.42A3.25,3.25,0,0,0,91,50.79Z"/><path d="M101.57,72.31V95.7a21.64,21.64,0,0,1-21.64,21.64H28.14A21.64,21.64,0,0,1,6.5,95.7V72.31h95.07ZM40.43,101.89H37.56V85.3A3,3,0,0,0,36.71,83a3.11,3.11,0,0,0-2.26-.84,5.88,5.88,0,0,0-2.91.88l-5.6,3.25a2.39,2.39,0,0,0-1.22,2.17,2.93,2.93,0,0,0,.7,1.91,2.12,2.12,0,0,0,1.68.86,2.38,2.38,0,0,0,1.22-.35l2.8-1.65v12.64H28.29a3.5,3.5,0,0,0-2.31.63,2.35,2.35,0,0,0-.73,1.89c0,1.72,1,2.59,3,2.59H40.43c2,0,3-.87,3-2.59a2.38,2.38,0,0,0-.73-1.89A3.55,3.55,0,0,0,40.43,101.89Zm16.53-5,3.77-3.75a2,2,0,0,0,.63-1.5,1.84,1.84,0,0,0-.63-1.44,1.92,1.92,0,0,0-1.47-.63,2,2,0,0,0-1.47.63L54,94l-3.78-3.78a2,2,0,0,0-1.47-.66,1.82,1.82,0,0,0-1.43.63,2,2,0,0,0-.63,1.5,2.17,2.17,0,0,0,.59,1.47l3.78,3.75-3.78,3.78a2.05,2.05,0,0,0,0,2.94,2.21,2.21,0,0,0,1.47.59,2,2,0,0,0,1.47-.59L54,99.86l3.78,3.78a2,2,0,0,0,2.94,0,2,2,0,0,0,.6-1.47,1.91,1.91,0,0,0-.6-1.47Zm24.56,5h-7l5-5.08a16.34,16.34,0,0,0,2.92-3.94,8.79,8.79,0,0,0,.86-3.9,6.47,6.47,0,0,0-1.07-3.66,6.88,6.88,0,0,0-3-2.45A11.26,11.26,0,0,0,74.59,82a14.23,14.23,0,0,0-7.73,2.38,2.29,2.29,0,0,0-.86.91,3.34,3.34,0,0,0,.37,3.13,1.79,1.79,0,0,0,1.47.79,2.08,2.08,0,0,0,.66-.11,4.36,4.36,0,0,0,.72-.33l.54-.3.7-.35a18.34,18.34,0,0,1,2-.86A5.91,5.91,0,0,1,74.31,87a2.79,2.79,0,0,1,2,.63,2.36,2.36,0,0,1,.68,1.82q0,2-2.31,4.44l-7.42,7.74A3.82,3.82,0,0,0,66,104.34a2.59,2.59,0,0,0,.73,1.9,2.65,2.65,0,0,0,2,.76H81.52a3.55,3.55,0,0,0,2.3-.63,2.43,2.43,0,0,0,.75-2,2.32,2.32,0,0,0-.75-1.91A3.61,3.61,0,0,0,81.52,101.89Z"/></svg>