<svg id="Layer_1" data-name="Layer 1" xmlns="http://www.w3.org/2000/svg" viewBox="0 0 122.3 122.3"><title>l7_2_1</title><path d="M28.36,22.49H51.76a0,0,0,0,1,0,0v45a0,0,0,0,1,0,0h-45a0,0,0,0,1,0,0V44.13A21.64,21.64,0,0,1,28.36,22.49Z"/><path d="M84.57,8l20.27,11.7a21.65,21.65,0,0,1,7.92,29.56l-11.7,20.26L62.06,47Zm6.56,34.63a2,2,0,0,0,1.27-.42A1.85,1.85,0,0,0,93.09,41a3.21,3.21,0,0,1,.78-1.41A16,16,0,0,1,95.64,38c.82-.72,1.48-1.34,2-1.86A7.07,7.07,0,0,0,99,34.27a5.27,5.27,0,0,0,.54-2.38,5.18,5.18,0,0,0-1-3.13,6.68,6.68,0,0,0-2.8-2.17,9.9,9.9,0,0,0-4.06-.79,12.94,12.94,0,0,0-4.05.65A12.41,12.41,0,0,0,84,28.25a3,3,0,0,0-.86.94,2.55,2.55,0,0,0-.26,1.23,2.83,2.83,0,0,0,.61,1.84A1.86,1.86,0,0,0,85,33a4.19,4.19,0,0,0,1.92-.67l.84-.42a12.08,12.08,0,0,1,1.77-.85,4.44,4.44,0,0,1,1.59-.3,2.39,2.39,0,0,1,1.54.45,1.5,1.5,0,0,1,.56,1.23,2.54,2.54,0,0,1-.4,1.4,11.16,11.16,0,0,1-1.21,1.5,11.92,11.92,0,0,0-1.75,2.26,5.48,5.48,0,0,0-.63,2.75A2.52,2.52,0,0,0,89.71,42,1.75,1.75,0,0,0,91.13,42.63ZM91.2,51a3.27,3.27,0,0,0,2.43-1,3.52,3.52,0,0,0,0-4.83,3.27,3.27,0,0,0-2.43-1,3.23,3.23,0,0,0-2.4,1,3.52,3.52,0,0,0,0,4.83A3.23,3.23,0,0,0,91.2,51Z"/><path d="M101.79,72.52v23.4a21.63,21.63,0,0,1-21.64,21.63H28.36A21.63,21.63,0,0,1,6.72,95.92V72.52h95.07Zm-62,29.58h-7l5-5.07a16.54,16.54,0,0,0,2.92-3.94,8.84,8.84,0,0,0,.85-3.9,6.42,6.42,0,0,0-1.06-3.66,6.81,6.81,0,0,0-3-2.45,11.29,11.29,0,0,0-4.55-.86,14.3,14.3,0,0,0-7.74,2.38,2.26,2.26,0,0,0-.85.91A3.05,3.05,0,0,0,24,86.77a3,3,0,0,0,.6,1.87,1.76,1.76,0,0,0,1.47.79,2.07,2.07,0,0,0,.66-.1,3.77,3.77,0,0,0,.72-.34L28,88.7l.7-.35a16.54,16.54,0,0,1,2-.86,5.6,5.6,0,0,1,1.87-.3,2.75,2.75,0,0,1,1.94.63,2.34,2.34,0,0,1,.68,1.82c0,1.35-.76,2.84-2.3,4.45l-7.42,7.73a3.83,3.83,0,0,0-1.2,2.73,2.62,2.62,0,0,0,.74,1.91,2.66,2.66,0,0,0,2,.75H39.75a3.5,3.5,0,0,0,2.29-.63,2.41,2.41,0,0,0,.75-2,2.33,2.33,0,0,0-.75-1.91A3.62,3.62,0,0,0,39.75,102.1Zm17.47-5L61,93.39a2.07,2.07,0,0,0,.63-1.51A1.82,1.82,0,0,0,61,90.45a1.92,1.92,0,0,0-1.47-.63,2,2,0,0,0-1.46.63l-3.79,3.78-3.78-3.78A2,2,0,0,0,49,89.78a1.82,1.82,0,0,0-1.43.63A2.05,2.05,0,0,0,47,91.92a2.17,2.17,0,0,0,.6,1.47l3.77,3.74-3.77,3.78a2,2,0,0,0,0,2.94,2.13,2.13,0,0,0,1.46.6,2,2,0,0,0,1.47-.6l3.78-3.78,3.79,3.78a2.07,2.07,0,0,0,3.53-1.47,1.91,1.91,0,0,0-.6-1.47Zm22.5-2.62a5.68,5.68,0,0,0,2.78-2.12,5.8,5.8,0,0,0,1-3.38,6.14,6.14,0,0,0-1.07-3.57,6.85,6.85,0,0,0-3-2.38,11.61,11.61,0,0,0-4.57-.84,14.07,14.07,0,0,0-4.15.63,11.54,11.54,0,0,0-3.55,1.75A2.44,2.44,0,0,0,66,86.77a2.87,2.87,0,0,0,.6,1.84,1.82,1.82,0,0,0,1.47.75A2.14,2.14,0,0,0,69,89.2a11.06,11.06,0,0,0,1-.5l.74-.35a18.13,18.13,0,0,1,1.91-.84,5.25,5.25,0,0,1,1.83-.32,3,3,0,0,1,2.14.72,2.63,2.63,0,0,1,.77,2,2,2,0,0,1-.88,1.79,5.37,5.37,0,0,1-2.8.56H72.19a2,2,0,0,0-1.64.73,2.85,2.85,0,0,0,0,3.5,2,2,0,0,0,1.64.74h2.17a5.23,5.23,0,0,1,2.87.59,2.19,2.19,0,0,1,.88,2,2.44,2.44,0,0,1-.86,2.1,4.85,4.85,0,0,1-2.82.63,6.33,6.33,0,0,1-2-.3,15.28,15.28,0,0,1-2-.85l-.44-.2-.33-.15a9.42,9.42,0,0,0-1-.51,2.23,2.23,0,0,0-.88-.16,1.82,1.82,0,0,0-1.47.75,2.94,2.94,0,0,0-.59,1.84,2.81,2.81,0,0,0,.24,1.21,2.85,2.85,0,0,0,.84,1,11.33,11.33,0,0,0,3.64,1.77,15.5,15.5,0,0,0,4.38.61,13.15,13.15,0,0,0,5-.86A7.34,7.34,0,0,0,83,104.2a6.11,6.11,0,0,0,1.16-3.71A6.21,6.21,0,0,0,83,96.68,5.94,5.94,0,0,0,79.72,94.51Z"/></svg>