<svg id="Layer_1" data-name="Layer 1" xmlns="http://www.w3.org/2000/svg" viewBox="0 0 122.3 122.3"><title>l7_2_1</title><path d="M31.18,19.89H54.57a0,0,0,0,1,0,0v45a0,0,0,0,1,0,0h-45a0,0,0,0,1,0,0V41.53A21.64,21.64,0,0,1,31.18,19.89Z"/><path d="M81.21,69.92H104.6a0,0,0,0,1,0,0v45a0,0,0,0,1,0,0h-45a0,0,0,0,1,0,0V91.56A21.64,21.64,0,0,1,81.21,69.92Z" transform="translate(164.17 184.88) rotate(-180)"/><path d="M54.57,115H31.18A21.64,21.64,0,0,1,9.54,93.32V69.92h45ZM38.17,81.37H26a3,3,0,0,0-2,.57,2.17,2.17,0,0,0-.65,1.72A2.12,2.12,0,0,0,24,85.34,3.09,3.09,0,0,0,26,85.9h7.75l-8,13.6a3,3,0,0,0-.44,1.49,2.28,2.28,0,0,0,.84,1.79,2.87,2.87,0,0,0,1.92.72,2.75,2.75,0,0,0,1.32-.35,3,3,0,0,0,1.07-1.1l9.39-16.28a4,4,0,0,0,.59-2A2.37,2.37,0,0,0,39.89,82,2.17,2.17,0,0,0,38.17,81.37Z"/><path d="M87.39,5.41,107.65,17.1a21.65,21.65,0,0,1,7.92,29.56l-11.7,20.26-39-22.51Zm8.08,35.27a1.81,1.81,0,0,0,1.14-.37,1.64,1.64,0,0,0,.6-1.06,2.87,2.87,0,0,1,.7-1.25,13.89,13.89,0,0,1,1.56-1.44q1.09-1,1.77-1.65a6.27,6.27,0,0,0,1.16-1.64,4.64,4.64,0,0,0,.48-2.11,4.55,4.55,0,0,0-.9-2.77,5.89,5.89,0,0,0-2.48-1.92,8.71,8.71,0,0,0-3.59-.7,11.69,11.69,0,0,0-3.58.57,11,11,0,0,0-3.18,1.6,2.79,2.79,0,0,0-.76.84,2.33,2.33,0,0,0-.23,1.08,2.52,2.52,0,0,0,.54,1.63,1.65,1.65,0,0,0,1.32.66,3.77,3.77,0,0,0,1.7-.58l.75-.38A12.14,12.14,0,0,1,94,30.43a4.13,4.13,0,0,1,1.41-.26,2.17,2.17,0,0,1,1.37.4,1.33,1.33,0,0,1,.49,1.09A2.32,2.32,0,0,1,97,32.9a10.51,10.51,0,0,1-1.07,1.33,10.13,10.13,0,0,0-1.55,2,4.85,4.85,0,0,0-.56,2.43,2.21,2.21,0,0,0,.45,1.49A1.57,1.57,0,0,0,95.47,40.68Zm.07,7.41a2.89,2.89,0,0,0,2.15-.87,3.12,3.12,0,0,0,0-4.28,2.89,2.89,0,0,0-2.15-.87,2.87,2.87,0,0,0-2.13.87,3.12,3.12,0,0,0,0,4.28A2.87,2.87,0,0,0,95.54,48.09Z"/></svg>