<svg id="Layer_1" data-name="Layer 1" xmlns="http://www.w3.org/2000/svg" viewBox="0 0 122.3 122.3"><title>l7_2_1</title><path d="M32.92,20.19H56.31a0,0,0,0,1,0,0v45a0,0,0,0,1,0,0h-45a0,0,0,0,1,0,0V41.83A21.64,21.64,0,0,1,32.92,20.19Z"/><path d="M89.13,5.7l20.26,11.7A21.65,21.65,0,0,1,117.31,47l-11.7,20.26-39-22.51Zm6.55,34.63A2,2,0,0,0,97,39.91a1.84,1.84,0,0,0,.68-1.18,3.27,3.27,0,0,1,.79-1.42,15.8,15.8,0,0,1,1.76-1.63c.82-.72,1.49-1.34,2-1.85A7.29,7.29,0,0,0,103.5,32a5.27,5.27,0,0,0,.54-2.38,5.12,5.12,0,0,0-1-3.13,6.77,6.77,0,0,0-2.8-2.17,9.87,9.87,0,0,0-4.06-.79,13.18,13.18,0,0,0-4,.65A12.47,12.47,0,0,0,88.54,26a3,3,0,0,0-.86.95,2.59,2.59,0,0,0-.26,1.22A2.82,2.82,0,0,0,88,30a1.87,1.87,0,0,0,1.49.75A4.19,4.19,0,0,0,91.44,30l.84-.42a13.81,13.81,0,0,1,1.77-.85,4.49,4.49,0,0,1,1.6-.3,2.41,2.41,0,0,1,1.54.45,1.52,1.52,0,0,1,.55,1.23,2.54,2.54,0,0,1-.4,1.4,11.81,11.81,0,0,1-1.21,1.51,12.3,12.3,0,0,0-1.75,2.25,5.48,5.48,0,0,0-.63,2.75,2.52,2.52,0,0,0,.51,1.68A1.75,1.75,0,0,0,95.68,40.33Zm.07,8.37a3.27,3.27,0,0,0,2.43-1,3.49,3.49,0,0,0,0-4.83,3.27,3.27,0,0,0-2.43-1,3.23,3.23,0,0,0-2.4,1,3.52,3.52,0,0,0,0,4.83A3.23,3.23,0,0,0,95.75,48.7Z"/><path d="M106.34,70.22v23.4A21.64,21.64,0,0,1,84.7,115.26H32.92A21.64,21.64,0,0,1,11.28,93.62V70.22h95.06ZM39.91,88.67a6.79,6.79,0,0,0-3,.65,5.52,5.52,0,0,0-2.15,1.77,9.35,9.35,0,0,1,1.31-4.57A3.35,3.35,0,0,1,39,84.89a4.82,4.82,0,0,1,1.61.28c.51.19,1.16.47,1.92.84l.78.39a11.06,11.06,0,0,0,1,.5,2.14,2.14,0,0,0,.87.16,1.87,1.87,0,0,0,1.49-.75,2.8,2.8,0,0,0,.61-1.84,2.59,2.59,0,0,0-.26-1.22,3.12,3.12,0,0,0-.86-1,11.26,11.26,0,0,0-3.52-1.75,13.55,13.55,0,0,0-4-.63,9.49,9.49,0,0,0-5.45,1.58A10.21,10.21,0,0,0,29.64,86a17,17,0,0,0-1.28,6.85q0,5.94,2.7,9.17a9.41,9.41,0,0,0,7.63,3.22,9,9,0,0,0,4.44-1.09,7.69,7.69,0,0,0,3.06-3,8.65,8.65,0,0,0,1.11-4.39,8.85,8.85,0,0,0-1-4.15,7.25,7.25,0,0,0-2.64-2.87A7.15,7.15,0,0,0,39.91,88.67ZM38.3,100.29a2.79,2.79,0,0,1-2.17-.93A3.4,3.4,0,0,1,35.29,97a3.46,3.46,0,0,1,.82-2.42,2.84,2.84,0,0,1,2.19-.91,2.8,2.8,0,0,1,2.19.89A3.6,3.6,0,0,1,41.28,97a3.48,3.48,0,0,1-.81,2.41A2.75,2.75,0,0,1,38.3,100.29Zm23.45-5.46,3.78-3.74a2.05,2.05,0,0,0,.63-1.51,1.82,1.82,0,0,0-.63-1.43,2,2,0,0,0-1.47-.63,2,2,0,0,0-1.47.63l-3.78,3.78L55,88.15a2,2,0,0,0-1.47-.67,1.82,1.82,0,0,0-1.43.63,2,2,0,0,0-.64,1.51,2.17,2.17,0,0,0,.6,1.47l3.78,3.74-3.78,3.78a2,2,0,0,0,0,2.94,2.13,2.13,0,0,0,1.47.6,2,2,0,0,0,1.47-.6l3.78-3.78,3.78,3.78a2,2,0,0,0,2.94,0,2,2,0,0,0,.6-1.47,1.94,1.94,0,0,0-.6-1.47ZM86.88,80.24H73.16a3.45,3.45,0,0,0-2.31.64,2.47,2.47,0,0,0-.74,2,2.38,2.38,0,0,0,.72,1.89,3.51,3.51,0,0,0,2.33.63h8.75l-9,15.36a3.38,3.38,0,0,0-.49,1.68,2.55,2.55,0,0,0,1,2,3.2,3.2,0,0,0,2.17.83,3,3,0,0,0,1.49-.41,3.19,3.19,0,0,0,1.2-1.24L88.84,85.21a4.51,4.51,0,0,0,.66-2.31A2.71,2.71,0,0,0,88.82,81,2.48,2.48,0,0,0,86.88,80.24Z"/></svg>