<svg id="Layer_1" data-name="Layer 1" xmlns="http://www.w3.org/2000/svg" viewBox="0 0 122.3 122.3"><title>l7_2_1</title><path d="M30.43,19.65H53.83a0,0,0,0,1,0,0v45a0,0,0,0,1,0,0h-45a0,0,0,0,1,0,0V41.29A21.64,21.64,0,0,1,30.43,19.65Z"/><path d="M80.47,69.68h23.39a0,0,0,0,1,0,0v45a0,0,0,0,1,0,0h-45a0,0,0,0,1,0,0V91.32A21.64,21.64,0,0,1,80.47,69.68Z" transform="translate(162.69 184.4) rotate(-180)"/><path d="M53.83,114.71H30.43A21.63,21.63,0,0,1,8.79,93.08V69.68h45ZM36.92,98.46H30.69l4.4-4.5a14.46,14.46,0,0,0,2.59-3.49A7.86,7.86,0,0,0,38.44,87a5.69,5.69,0,0,0-.95-3.24,6,6,0,0,0-2.68-2.17,9.92,9.92,0,0,0-4-.76,11.87,11.87,0,0,0-3.58.56A12,12,0,0,0,23.93,83a2,2,0,0,0-.76.8,2.74,2.74,0,0,0-.2,1.12,2.64,2.64,0,0,0,.53,1.66,1.58,1.58,0,0,0,1.3.69,2,2,0,0,0,.59-.09,4.14,4.14,0,0,0,.63-.29l.48-.27.62-.31a16.34,16.34,0,0,1,1.75-.76,5.2,5.2,0,0,1,1.66-.26,2.44,2.44,0,0,1,1.72.56,2.06,2.06,0,0,1,.61,1.61,6,6,0,0,1-2.05,3.94l-6.57,6.85a3.4,3.4,0,0,0-1,2.42,2.31,2.31,0,0,0,.65,1.69,2.35,2.35,0,0,0,1.76.66H36.92a3.13,3.13,0,0,0,2-.55,2.18,2.18,0,0,0,.67-1.74A2.06,2.06,0,0,0,39,99,3.2,3.2,0,0,0,36.92,98.46Z"/><path d="M86.64,5.16l20.26,11.7a21.64,21.64,0,0,1,7.92,29.56L103.13,66.68l-39-22.52Zm8.09,35.28a1.85,1.85,0,0,0,1.13-.37A1.69,1.69,0,0,0,96.47,39a2.84,2.84,0,0,1,.69-1.25,13.21,13.21,0,0,1,1.57-1.44c.72-.65,1.31-1.19,1.77-1.65A6.27,6.27,0,0,0,101.66,33a4.64,4.64,0,0,0,.48-2.11,4.55,4.55,0,0,0-.9-2.77,6.05,6.05,0,0,0-2.48-1.93,8.89,8.89,0,0,0-3.6-.69,11.74,11.74,0,0,0-3.58.57,10.86,10.86,0,0,0-3.17,1.6,2.52,2.52,0,0,0-.76.83,2.25,2.25,0,0,0-.24,1.09A2.53,2.53,0,0,0,88,31.25a1.64,1.64,0,0,0,1.31.66A3.69,3.69,0,0,0,91,31.32l.74-.37a11.6,11.6,0,0,1,1.57-.76,4,4,0,0,1,1.41-.26,2.08,2.08,0,0,1,1.36.4,1.33,1.33,0,0,1,.5,1.09,2.27,2.27,0,0,1-.36,1.24A10.32,10.32,0,0,1,95.13,34a10.13,10.13,0,0,0-1.55,2A4.85,4.85,0,0,0,93,38.42a2.23,2.23,0,0,0,.45,1.49A1.57,1.57,0,0,0,94.73,40.44Zm.06,7.41a3,3,0,1,0,0-6,2.84,2.84,0,0,0-2.12.87,3.12,3.12,0,0,0,0,4.28A2.84,2.84,0,0,0,94.79,47.85Z"/></svg>