<svg id="Layer_1" data-name="Layer 1" xmlns="http://www.w3.org/2000/svg" viewBox="0 0 122.3 122.3"><title>l7_2_1</title><path d="M29.12,21.81H52.51a0,0,0,0,1,0,0v45a0,0,0,0,1,0,0h-45a0,0,0,0,1,0,0V43.45A21.64,21.64,0,0,1,29.12,21.81Z"/><path d="M79.15,71.85h23.39a0,0,0,0,1,0,0v45a0,0,0,0,1,0,0h-45a0,0,0,0,1,0,0V93.49A21.64,21.64,0,0,1,79.15,71.85Z" transform="translate(160.06 188.73) rotate(-180)"/><path d="M52.51,116.88H29.12A21.64,21.64,0,0,1,7.48,95.24V71.85h45Zm-17.94-23A4.72,4.72,0,0,0,37,92.07a5.39,5.39,0,0,0,.89-3.1,5.14,5.14,0,0,0-2.16-4.36A9.67,9.67,0,0,0,29.86,83,9.7,9.7,0,0,0,24,84.61,5.12,5.12,0,0,0,21.83,89a5.28,5.28,0,0,0,.87,3,5.07,5.07,0,0,0,2.48,1.91,5.16,5.16,0,0,0-2.92,1.84,5.47,5.47,0,0,0-1,3.4,5.35,5.35,0,0,0,2.31,4.6,10.67,10.67,0,0,0,6.31,1.66,10.69,10.69,0,0,0,6.31-1.66,5.38,5.38,0,0,0,2.31-4.6,5.43,5.43,0,0,0-1-3.34A5.36,5.36,0,0,0,34.57,93.9Zm-4.71,7.19c-2.26,0-3.38-.81-3.38-2.42s1.12-2.42,3.38-2.42,3.38.81,3.38,2.42S32.11,101.09,29.86,101.09Zm0-13.77a3.28,3.28,0,0,1,2.07.55,2.08,2.08,0,0,1,.69,1.75,2.16,2.16,0,0,1-.69,1.77,3.22,3.22,0,0,1-2.07.55,3.25,3.25,0,0,1-2.08-.55,2.19,2.19,0,0,1-.68-1.77,2.11,2.11,0,0,1,.68-1.75A3.31,3.31,0,0,1,29.86,87.32Z"/><path d="M85.33,7.33,105.59,19a21.63,21.63,0,0,1,7.92,29.56L101.82,68.85l-39-22.52ZM93.42,42.6a1.78,1.78,0,0,0,1.13-.37,1.7,1.7,0,0,0,.61-1,2.88,2.88,0,0,1,.69-1.26,15.17,15.17,0,0,1,1.57-1.44c.72-.64,1.31-1.19,1.76-1.64a6.23,6.23,0,0,0,1.17-1.64,4.67,4.67,0,0,0,.48-2.11,4.58,4.58,0,0,0-.9-2.78,6.12,6.12,0,0,0-2.48-1.92,8.89,8.89,0,0,0-3.6-.7,11.71,11.71,0,0,0-3.58.58,11.15,11.15,0,0,0-3.18,1.59,2.62,2.62,0,0,0-.75.84,2.23,2.23,0,0,0-.24,1.09,2.43,2.43,0,0,0,.55,1.62,1.63,1.63,0,0,0,1.31.67,3.84,3.84,0,0,0,1.71-.59l.74-.37A10.52,10.52,0,0,1,92,32.36a3.83,3.83,0,0,1,1.41-.26,2.08,2.08,0,0,1,1.36.4,1.33,1.33,0,0,1,.5,1.08,2.22,2.22,0,0,1-.36,1.24,9.68,9.68,0,0,1-1.07,1.34,10.13,10.13,0,0,0-1.55,2,4.85,4.85,0,0,0-.56,2.43,2.23,2.23,0,0,0,.45,1.49A1.57,1.57,0,0,0,93.42,42.6ZM93.48,50a2.93,2.93,0,0,0,2.16-.86,3.12,3.12,0,0,0,0-4.28A2.9,2.9,0,0,0,93.48,44a2.84,2.84,0,0,0-2.12.87,3.09,3.09,0,0,0,0,4.28A2.87,2.87,0,0,0,93.48,50Z"/></svg>