<svg id="Layer_1" data-name="Layer 1" xmlns="http://www.w3.org/2000/svg" viewBox="0 0 122.3 122.3"><title>l7_2_1</title><path d="M29.43,20.63H52.83a0,0,0,0,1,0,0v45a0,0,0,0,1,0,0h-45a0,0,0,0,1,0,0V42.27A21.64,21.64,0,0,1,29.43,20.63Z"/><path d="M79.47,70.67h23.39a0,0,0,0,1,0,0v45a0,0,0,0,1,0,0h-45a0,0,0,0,1,0,0V92.31A21.64,21.64,0,0,1,79.47,70.67Z" transform="translate(160.69 186.37) rotate(-180)"/><path d="M52.83,115.7H29.43A21.64,21.64,0,0,1,7.79,94.06V70.67h45Zm-21.14-26a7.79,7.79,0,0,0-3.07.55V86.42h6.69c1.8,0,2.7-.72,2.7-2.17s-.9-2.14-2.7-2.14H25.7a2.67,2.67,0,0,0-1.95.68,2.73,2.73,0,0,0-.68,2v8.4a1.71,1.71,0,0,0,.59,1.35,2.15,2.15,0,0,0,1.46.51,2.92,2.92,0,0,0,1.39-.34,10.67,10.67,0,0,1,1.78-.56A8.78,8.78,0,0,1,30,94a3.48,3.48,0,0,1,2.42.77,2.76,2.76,0,0,1,.87,2.17,2.7,2.7,0,0,1-.84,2.19,4,4,0,0,1-2.57.69,5.3,5.3,0,0,1-1.72-.27,18,18,0,0,1-1.75-.75l-.62-.31a9.38,9.38,0,0,0-.93-.46,2,2,0,0,0-.78-.13,1.58,1.58,0,0,0-1.3.67,2.55,2.55,0,0,0-.53,1.63,2.3,2.3,0,0,0,.23,1.06,2.86,2.86,0,0,0,.73.86,10.25,10.25,0,0,0,3.18,1.55,13,13,0,0,0,3.77.56,10.05,10.05,0,0,0,4.43-.93,7,7,0,0,0,3-2.64A8,8,0,0,0,37.72,93a6.35,6.35,0,0,0-2.45-2.48A7.17,7.17,0,0,0,31.69,89.68Z"/><path d="M85.64,6.15l20.26,11.7a21.63,21.63,0,0,1,7.92,29.56L102.13,67.67l-39-22.52Zm8.09,35.27a1.78,1.78,0,0,0,1.13-.37,1.7,1.7,0,0,0,.61-1,2.82,2.82,0,0,1,.69-1.26,15.17,15.17,0,0,1,1.57-1.44c.72-.64,1.31-1.19,1.77-1.64A6.5,6.5,0,0,0,100.66,34a4.63,4.63,0,0,0,.48-2.1,4.58,4.58,0,0,0-.9-2.78,6,6,0,0,0-2.48-1.92,8.73,8.73,0,0,0-3.6-.7,11.46,11.46,0,0,0-3.58.58,11.09,11.09,0,0,0-3.17,1.59,2.54,2.54,0,0,0-.76.84,2.21,2.21,0,0,0-.24,1.08A2.51,2.51,0,0,0,87,32.23a1.63,1.63,0,0,0,1.31.67A3.81,3.81,0,0,0,90,32.31l.74-.37a10.52,10.52,0,0,1,1.57-.76,3.84,3.84,0,0,1,1.41-.27,2.08,2.08,0,0,1,1.36.41,1.33,1.33,0,0,1,.5,1.08,2.22,2.22,0,0,1-.36,1.24A9.68,9.68,0,0,1,94.13,35a10.42,10.42,0,0,0-1.55,2A4.92,4.92,0,0,0,92,39.41a2.25,2.25,0,0,0,.45,1.49A1.57,1.57,0,0,0,93.73,41.42Zm.06,7.41a3,3,0,1,0,0-6,2.84,2.84,0,0,0-2.12.87,3.11,3.11,0,0,0,0,4.27A2.84,2.84,0,0,0,93.79,48.83Z"/></svg>