<svg id="Layer_1" data-name="Layer 1" xmlns="http://www.w3.org/2000/svg" viewBox="0 0 122.3 122.3"><title>l7_2_1</title><path d="M29.39,19.9H52.78a0,0,0,0,1,0,0v45a0,0,0,0,1,0,0h-45a0,0,0,0,1,0,0V41.54A21.64,21.64,0,0,1,29.39,19.9Z"/><path d="M79.42,69.93h23.39a0,0,0,0,1,0,0v45a0,0,0,0,1,0,0h-45a0,0,0,0,1,0,0V91.57A21.64,21.64,0,0,1,79.42,69.93Z" transform="translate(160.6 184.9) rotate(-180)"/><path d="M52.78,115H29.39A21.64,21.64,0,0,1,7.75,93.33V69.93h45ZM33,89.58a6,6,0,0,0-2.62.58,4.88,4.88,0,0,0-1.9,1.56,8.2,8.2,0,0,1,1.16-4,3,3,0,0,1,2.56-1.44,4.24,4.24,0,0,1,1.42.24q.69.26,1.71.75l.68.34c.39.21.7.35.93.45a2.13,2.13,0,0,0,.78.14A1.63,1.63,0,0,0,39,87.49a2.51,2.51,0,0,0,.55-1.63,2.21,2.21,0,0,0-.24-1.08,2.66,2.66,0,0,0-.76-.84,9.75,9.75,0,0,0-3.11-1.55,12.1,12.1,0,0,0-3.55-.56,8.38,8.38,0,0,0-4.82,1.4,9,9,0,0,0-3.19,4,15,15,0,0,0-1.14,6.06c0,3.52.8,6.22,2.39,8.12a8.3,8.3,0,0,0,6.76,2.86,8,8,0,0,0,3.94-1,6.94,6.94,0,0,0,2.71-2.69A8.32,8.32,0,0,0,38.67,93a6.39,6.39,0,0,0-2.34-2.54A6.27,6.27,0,0,0,33,89.58Zm-1.42,10.3a2.45,2.45,0,0,1-1.92-.83,3,3,0,0,1-.75-2.12,3.05,3.05,0,0,1,.73-2.14,2.76,2.76,0,0,1,3.88,0,3.64,3.64,0,0,1,0,4.29A2.44,2.44,0,0,1,31.56,99.88Z"/><path d="M85.6,5.41l20.26,11.7a21.64,21.64,0,0,1,7.92,29.56l-11.7,20.26-39-22.51Zm7.09,36.28a1.78,1.78,0,0,0,1.13-.37,1.64,1.64,0,0,0,.6-1.06,2.87,2.87,0,0,1,.7-1.25,13,13,0,0,1,1.56-1.44q1.09-1,1.77-1.65a6,6,0,0,0,1.16-1.64,4.81,4.81,0,0,0-.41-4.88,6,6,0,0,0-2.48-1.92,8.79,8.79,0,0,0-3.6-.7,11.69,11.69,0,0,0-3.58.57A11,11,0,0,0,86.36,29a2.79,2.79,0,0,0-.76.84,2.33,2.33,0,0,0-.23,1.08,2.52,2.52,0,0,0,.54,1.63,1.65,1.65,0,0,0,1.32.66,3.77,3.77,0,0,0,1.7-.58l.75-.38a12.14,12.14,0,0,1,1.56-.76,4.13,4.13,0,0,1,1.41-.26,2.11,2.11,0,0,1,1.37.4,1.33,1.33,0,0,1,.49,1.09,2.24,2.24,0,0,1-.35,1.24,11.27,11.27,0,0,1-1.07,1.33,10.13,10.13,0,0,0-1.55,2A4.85,4.85,0,0,0,91,39.67a2.23,2.23,0,0,0,.45,1.49A1.57,1.57,0,0,0,92.69,41.69Zm.06,7.41a2.88,2.88,0,0,0,2.15-.87,3.12,3.12,0,0,0,0-4.28,3.07,3.07,0,0,0-4.28,0,3.12,3.12,0,0,0,0,4.28A2.87,2.87,0,0,0,92.75,49.1Z"/></svg>