<svg id="Layer_1" data-name="Layer 1" xmlns="http://www.w3.org/2000/svg" viewBox="0 0 122.3 122.3"><title>l7_2_1</title><path d="M30.86,21.71H54.26a0,0,0,0,1,0,0v45a0,0,0,0,1,0,0h-45a0,0,0,0,1,0,0V43.35A21.64,21.64,0,0,1,30.86,21.71Z"/><path d="M80.9,71.74h23.39a0,0,0,0,1,0,0v45a0,0,0,0,1,0,0h-45a0,0,0,0,1,0,0V93.38A21.64,21.64,0,0,1,80.9,71.74Z" transform="translate(163.55 188.52) rotate(-180)"/><path d="M54.26,116.78H30.86A21.63,21.63,0,0,1,9.23,95.14V71.74h45ZM38.27,97h-.69V85.82a2.6,2.6,0,0,0-.83-2.07,2.92,2.92,0,0,0-2-.75,3.11,3.11,0,0,0-1.38.33,2.84,2.84,0,0,0-1.1.94L23.39,96.92a3.44,3.44,0,0,0-.69,2,2.37,2.37,0,0,0,.65,1.7,2.33,2.33,0,0,0,1.77.68H32v1.06a2.79,2.79,0,0,0,.75,2.11,2.84,2.84,0,0,0,2,.71,2.89,2.89,0,0,0,2-.71,2.72,2.72,0,0,0,.77-2.11v-1.06h.69c1.79,0,2.69-.73,2.69-2.2S40.06,97,38.27,97Zm-10,0L32,91.65V97Z"/><path d="M87.08,7.22l20.26,11.7a21.65,21.65,0,0,1,7.92,29.56l-11.7,20.26-39-22.52ZM95.16,42.5a1.82,1.82,0,0,0,1.13-.37,1.61,1.61,0,0,0,.61-1.06,2.77,2.77,0,0,1,.7-1.25,13,13,0,0,1,1.56-1.44c.73-.65,1.31-1.19,1.77-1.65a6.27,6.27,0,0,0,1.16-1.64,4.64,4.64,0,0,0,.48-2.11,4.55,4.55,0,0,0-.9-2.77,6,6,0,0,0-2.48-1.93,8.88,8.88,0,0,0-3.59-.69,11.69,11.69,0,0,0-3.58.57,10.8,10.8,0,0,0-3.18,1.6,2.75,2.75,0,0,0-.76.83,2.25,2.25,0,0,0-.23,1.09,2.52,2.52,0,0,0,.54,1.63,1.65,1.65,0,0,0,1.32.66,3.69,3.69,0,0,0,1.7-.59l.75-.37a11.54,11.54,0,0,1,1.56-.76A4.13,4.13,0,0,1,95.13,32a2.11,2.11,0,0,1,1.37.4A1.33,1.33,0,0,1,97,33.48a2.32,2.32,0,0,1-.35,1.24,11.27,11.27,0,0,1-1.07,1.33,9.76,9.76,0,0,0-1.55,2,4.75,4.75,0,0,0-.56,2.43A2.23,2.23,0,0,0,93.91,42,1.57,1.57,0,0,0,95.16,42.5Zm.07,7.41A2.89,2.89,0,0,0,97.38,49a3.12,3.12,0,0,0,0-4.28,2.89,2.89,0,0,0-2.15-.87,2.87,2.87,0,0,0-2.13.87,3.12,3.12,0,0,0,0,4.28A2.87,2.87,0,0,0,95.23,49.91Z"/></svg>