<svg id="Layer_1" data-name="Layer 1" xmlns="http://www.w3.org/2000/svg" viewBox="0 0 122.3 122.3"><title>l7_2_1</title><path d="M31.86,20.72H55.26a0,0,0,0,1,0,0v45a0,0,0,0,1,0,0h-45a0,0,0,0,1,0,0V42.36A21.64,21.64,0,0,1,31.86,20.72Z"/><path d="M81.9,70.76h23.39a0,0,0,0,1,0,0v45a0,0,0,0,1,0,0h-45a0,0,0,0,1,0,0V92.4A21.64,21.64,0,0,1,81.9,70.76Z" transform="translate(165.55 186.55) rotate(-180)"/><path d="M55.26,115.79H31.86A21.63,21.63,0,0,1,10.23,94.15V70.76h45ZM39.17,99.53H36.63V84.84a2.69,2.69,0,0,0-.76-2,2.76,2.76,0,0,0-2-.74,5.31,5.31,0,0,0-2.57.77l-5,2.89a2.11,2.11,0,0,0-1.09,1.92,2.63,2.63,0,0,0,.62,1.69,1.89,1.89,0,0,0,1.49.76,2.1,2.1,0,0,0,1.09-.31l2.48-1.46V99.53H28.42a3.12,3.12,0,0,0-2.05.56,2.09,2.09,0,0,0-.65,1.67c0,1.53.9,2.3,2.7,2.3H39.17c1.8,0,2.7-.77,2.7-2.3a2.09,2.09,0,0,0-.65-1.67A3.12,3.12,0,0,0,39.17,99.53Z"/><path d="M88.08,6.24l20.26,11.7a21.64,21.64,0,0,1,7.92,29.56l-11.7,20.26-39-22.52Zm8.08,35.27a1.76,1.76,0,0,0,1.13-.37,1.61,1.61,0,0,0,.61-1,2.75,2.75,0,0,1,.7-1.26,14.9,14.9,0,0,1,1.56-1.44c.73-.64,1.31-1.19,1.77-1.64a6.5,6.5,0,0,0,1.16-1.65,4.63,4.63,0,0,0,.48-2.1,4.58,4.58,0,0,0-.9-2.78,6,6,0,0,0-2.48-1.92,8.71,8.71,0,0,0-3.59-.7,11.41,11.41,0,0,0-3.58.58,11,11,0,0,0-3.18,1.59,2.66,2.66,0,0,0-.76.84,2.21,2.21,0,0,0-.23,1.08,2.5,2.5,0,0,0,.54,1.63,1.63,1.63,0,0,0,1.32.67,3.81,3.81,0,0,0,1.7-.59l.75-.37a10.45,10.45,0,0,1,1.56-.76A3.92,3.92,0,0,1,96.13,31a2.11,2.11,0,0,1,1.37.41A1.32,1.32,0,0,1,98,32.49a2.3,2.3,0,0,1-.35,1.24,11.25,11.25,0,0,1-1.07,1.34,9.72,9.72,0,0,0-1.55,2,4.81,4.81,0,0,0-.56,2.44A2.25,2.25,0,0,0,94.91,41,1.56,1.56,0,0,0,96.16,41.51Zm.07,7.41a3,3,0,1,0,0-6,2.87,2.87,0,0,0-2.13.87,3.11,3.11,0,0,0,0,4.27A2.87,2.87,0,0,0,96.23,48.92Z"/></svg>