<svg id="Layer_1" data-name="Layer 1" xmlns="http://www.w3.org/2000/svg" viewBox="0 0 122.3 122.3"><title>l7_2_1</title><path d="M28.05,21.19H51.45a0,0,0,0,1,0,0v45a0,0,0,0,1,0,0h-45a0,0,0,0,1,0,0V42.83A21.64,21.64,0,0,1,28.05,21.19Z"/><path d="M84.26,6.7l20.26,11.7A21.64,21.64,0,0,1,112.44,48L100.75,68.22l-39-22.51Zm6.56,34.63a2,2,0,0,0,1.27-.42,1.85,1.85,0,0,0,.69-1.18,3.24,3.24,0,0,1,.78-1.42,16,16,0,0,1,1.77-1.63c.82-.72,1.48-1.34,2-1.85A7.29,7.29,0,0,0,98.64,33a5.27,5.27,0,0,0,.54-2.38,5.18,5.18,0,0,0-1-3.13,6.77,6.77,0,0,0-2.8-2.17,9.9,9.9,0,0,0-4.06-.79,13.19,13.19,0,0,0-4,.65A12.41,12.41,0,0,0,83.68,27a2.89,2.89,0,0,0-.86.95,2.48,2.48,0,0,0-.26,1.22A2.82,2.82,0,0,0,83.17,31a1.86,1.86,0,0,0,1.49.75A4.19,4.19,0,0,0,86.58,31l.84-.42a12.64,12.64,0,0,1,1.77-.85,4.4,4.4,0,0,1,1.59-.3,2.39,2.39,0,0,1,1.54.45,1.53,1.53,0,0,1,.56,1.23,2.54,2.54,0,0,1-.4,1.4,11.81,11.81,0,0,1-1.21,1.51,11.48,11.48,0,0,0-1.75,2.25,5.48,5.48,0,0,0-.63,2.75,2.52,2.52,0,0,0,.51,1.68A1.75,1.75,0,0,0,90.82,41.33Zm.07,8.37a3.27,3.27,0,0,0,2.43-1,3.52,3.52,0,0,0,0-4.83,3.27,3.27,0,0,0-2.43-1,3.23,3.23,0,0,0-2.4,1,3.52,3.52,0,0,0,0,4.83A3.23,3.23,0,0,0,90.89,49.7Z"/><path d="M101.48,71.22v23.4a21.64,21.64,0,0,1-21.64,21.64H28.05A21.64,21.64,0,0,1,6.41,94.62V71.22h95.07ZM34.66,89.78a8.72,8.72,0,0,0-3.46.63V86.1h7.56c2,0,3-.81,3-2.45s-1-2.41-3-2.41H27.91A3,3,0,0,0,25.7,82a3,3,0,0,0-.77,2.24v9.48a1.89,1.89,0,0,0,.67,1.52,2.38,2.38,0,0,0,1.64.58,3.44,3.44,0,0,0,1.58-.38,11.22,11.22,0,0,1,2-.63,9.32,9.32,0,0,1,1.91-.18,4,4,0,0,1,2.73.88,3.12,3.12,0,0,1,1,2.45,3,3,0,0,1-1,2.46,4.44,4.44,0,0,1-2.9.79,5.86,5.86,0,0,1-2-.31,19.59,19.59,0,0,1-2-.84l-.7-.35c-.47-.26-.82-.43-1.05-.53a2.5,2.5,0,0,0-.88-.14,1.82,1.82,0,0,0-1.47.75,2.88,2.88,0,0,0-.59,1.84,2.54,2.54,0,0,0,.26,1.21,3,3,0,0,0,.82,1,11.44,11.44,0,0,0,3.59,1.75,14.58,14.58,0,0,0,4.25.63,11.39,11.39,0,0,0,5-1,8,8,0,0,0,3.36-3,8.34,8.34,0,0,0,1.19-4.45,8.52,8.52,0,0,0-1-4.15,7.17,7.17,0,0,0-2.77-2.8A8.09,8.09,0,0,0,34.66,89.78Zm22.23,6,3.78-3.74a2.05,2.05,0,0,0,.63-1.51,1.82,1.82,0,0,0-.63-1.43,2,2,0,0,0-1.47-.63,2,2,0,0,0-1.47.63L54,92.93l-3.78-3.78a2,2,0,0,0-1.47-.67,1.83,1.83,0,0,0-1.44.63,2.05,2.05,0,0,0-.63,1.51,2.17,2.17,0,0,0,.6,1.47L51,95.83l-3.78,3.78a2,2,0,0,0,0,2.94,2.13,2.13,0,0,0,1.47.6,2,2,0,0,0,1.47-.6L54,98.77l3.78,3.78a2.06,2.06,0,0,0,3.53-1.47,2,2,0,0,0-.59-1.47ZM77,89.67a6.75,6.75,0,0,0-3,.65,5.45,5.45,0,0,0-2.15,1.77,9.25,9.25,0,0,1,1.31-4.57,3.34,3.34,0,0,1,2.89-1.63,4.87,4.87,0,0,1,1.61.28q.77.28,1.92.84l.77.39a11.06,11.06,0,0,0,1,.5,2.23,2.23,0,0,0,.88.16,1.85,1.85,0,0,0,1.48-.75,2.8,2.8,0,0,0,.61-1.84,2.48,2.48,0,0,0-.26-1.22,3.07,3.07,0,0,0-.85-1,11.37,11.37,0,0,0-3.52-1.75,13.61,13.61,0,0,0-4-.63,9.46,9.46,0,0,0-5.44,1.58A10.23,10.23,0,0,0,66.77,87a17,17,0,0,0-1.27,6.85c0,4,.89,7,2.69,9.17a9.42,9.42,0,0,0,7.63,3.22,9,9,0,0,0,4.45-1.09,7.82,7.82,0,0,0,3.06-3,8.75,8.75,0,0,0,1.1-4.39,8.85,8.85,0,0,0-1-4.15,7.25,7.25,0,0,0-2.64-2.87A7.16,7.16,0,0,0,77,89.67Zm-1.6,11.62a2.79,2.79,0,0,1-2.17-.93A3.4,3.4,0,0,1,72.43,98a3.46,3.46,0,0,1,.82-2.42,2.84,2.84,0,0,1,2.19-.91,2.76,2.76,0,0,1,2.18.89,4.1,4.1,0,0,1,0,4.85A2.75,2.75,0,0,1,75.44,101.29Z"/></svg>