<svg id="Layer_1" data-name="Layer 1" xmlns="http://www.w3.org/2000/svg" viewBox="0 0 122.3 122.3"><title>l7_3_1</title><path d="M77.32.55h35.11a0,0,0,0,1,0,0V35.66a0,0,0,0,1,0,0H99A21.64,21.64,0,0,1,77.32,14V.55A0,0,0,0,1,77.32.55Z" transform="translate(189.76 36.2) rotate(-180)"/><path d="M99,77h13.47a0,0,0,0,1,0,0v35.11a0,0,0,0,1,0,0H77.32a0,0,0,0,1,0,0V98.65A21.64,21.64,0,0,1,99,77Z" transform="translate(189.76 189.13) rotate(-180)"/><path d="M.86,77H36a0,0,0,0,1,0,0v35.11a0,0,0,0,1,0,0H22.5A21.64,21.64,0,0,1,.86,90.48V77A0,0,0,0,1,.86,77Z"/><path d="M51.72,86.64a6.44,6.44,0,0,1,9.14,0L74.2,103.22V118a4.29,4.29,0,0,1-3.72,3.77H42.23a3.82,3.82,0,0,1-2.18-1.12,4,4,0,0,1-1-3.19V103.83ZM62.66,110h-.75V97.75A2.92,2.92,0,0,0,61,95.47a3.22,3.22,0,0,0-2.21-.81,3.48,3.48,0,0,0-1.51.35,3.19,3.19,0,0,0-1.21,1l-9.72,13.87a3.82,3.82,0,0,0-.75,2.25A2.64,2.64,0,0,0,46.3,114a2.55,2.55,0,0,0,1.94.74h7.58v1.16a3,3,0,0,0,.83,2.31,3.1,3.1,0,0,0,2.2.78,3.16,3.16,0,0,0,2.21-.78,3,3,0,0,0,.85-2.31v-1.16h.75c2,0,3-.8,3-2.41S64.63,110,62.66,110Zm-10.92,0,4.08-5.88V110Z"/><path d="M86.32,61.26a6.44,6.44,0,0,1,0-9.14L102.9,38.78h15a3.32,3.32,0,0,1,2.36.71,3.43,3.43,0,0,1,1.14,2.88V70.55a3.61,3.61,0,0,1-3.59,3.34H103.51Zm29.4-2.6H115V46.39a2.89,2.89,0,0,0-.92-2.28,3.19,3.19,0,0,0-2.21-.82,3.35,3.35,0,0,0-1.51.36,3.11,3.11,0,0,0-1.21,1L99.4,58.56a3.85,3.85,0,0,0-.74,2.24,2.58,2.58,0,0,0,.71,1.87,2.55,2.55,0,0,0,1.94.75h7.58v1.16a3,3,0,0,0,.83,2.31,3.1,3.1,0,0,0,2.2.78,3.16,3.16,0,0,0,2.21-.78,3,3,0,0,0,.85-2.31V63.42h.74c2,0,3-.8,3-2.41S117.7,58.66,115.72,58.66Zm-10.91,0,4.08-5.88v5.88Z"/><path d="M74.2.55V73.89H.86V22.18A21.63,21.63,0,0,1,22.5.55H74.2ZM37,45.84a3.84,3.84,0,0,0,2.42-.79,3.49,3.49,0,0,0,1.29-2.26,6.18,6.18,0,0,1,1.5-2.69A30.4,30.4,0,0,1,45.57,37c1.54-1.37,2.81-2.54,3.78-3.52A13.5,13.5,0,0,0,51.84,30a10.07,10.07,0,0,0,1-4.52,9.77,9.77,0,0,0-1.93-5.93,12.83,12.83,0,0,0-5.31-4.12,18.94,18.94,0,0,0-7.69-1.49,24.9,24.9,0,0,0-7.67,1.23,23.71,23.71,0,0,0-6.8,3.41,5.8,5.8,0,0,0-1.62,1.8,4.89,4.89,0,0,0-.5,2.32,5.35,5.35,0,0,0,1.16,3.48,3.54,3.54,0,0,0,2.82,1.43A8.09,8.09,0,0,0,29,26.34l1.59-.8a24.59,24.59,0,0,1,3.35-1.63,8.63,8.63,0,0,1,3-.56,4.53,4.53,0,0,1,2.92.86,2.84,2.84,0,0,1,1.06,2.33,4.82,4.82,0,0,1-.76,2.65A21,21,0,0,1,37.87,32a22.28,22.28,0,0,0-3.32,4.28,10.43,10.43,0,0,0-1.19,5.21,4.76,4.76,0,0,0,1,3.18A3.32,3.32,0,0,0,37,45.84Zm.13,15.86a6.17,6.17,0,0,0,4.61-1.86,6.63,6.63,0,0,0,0-9.15,6.17,6.17,0,0,0-4.61-1.86,6.09,6.09,0,0,0-4.54,1.86,6.63,6.63,0,0,0,0,9.15A6.09,6.09,0,0,0,37.14,61.7Z"/></svg>