<svg id="Layer_1" data-name="Layer 1" xmlns="http://www.w3.org/2000/svg" viewBox="0 0 122.3 122.3"><title>l7_3_1</title><path d="M77.84.49h35.11a0,0,0,0,1,0,0V35.61a0,0,0,0,1,0,0H99.47A21.64,21.64,0,0,1,77.84,14V.49A0,0,0,0,1,77.84.49Z" transform="translate(190.78 36.1) rotate(-180)"/><path d="M99.47,77h13.47a0,0,0,0,1,0,0v35.11a0,0,0,0,1,0,0H77.84a0,0,0,0,1,0,0V98.6A21.64,21.64,0,0,1,99.47,77Z" transform="translate(190.78 189.03) rotate(-180)"/><path d="M1.37,77H36.48a0,0,0,0,1,0,0v35.11a0,0,0,0,1,0,0H23A21.64,21.64,0,0,1,1.37,90.43V77A0,0,0,0,1,1.37,77Z"/><path d="M52.23,86.59a6.44,6.44,0,0,1,9.14,0l13.35,16.58v14.77a4.47,4.47,0,0,1-1.47,2.77,4.31,4.31,0,0,1-2.26,1H42.75a3.74,3.74,0,0,1-2.18-1.11,4,4,0,0,1-1-3.19V103.78Zm11.84,27.22H61.28V97.7a3,3,0,0,0-.83-2.21,3,3,0,0,0-2.2-.82,5.83,5.83,0,0,0-2.82.85L50,98.68a2.32,2.32,0,0,0-1.19,2.11,2.9,2.9,0,0,0,.68,1.86,2.06,2.06,0,0,0,1.63.83,2.27,2.27,0,0,0,1.19-.34l2.72-1.6v12.27H52.27a3.42,3.42,0,0,0-2.25.62,2.29,2.29,0,0,0-.71,1.83c0,1.68,1,2.52,3,2.52h11.8c2,0,3-.84,3-2.52a2.26,2.26,0,0,0-.71-1.83A3.39,3.39,0,0,0,64.07,113.81Z"/><path d="M86.83,61.21a6.44,6.44,0,0,1,0-9.14l16.58-13.34h15a3.29,3.29,0,0,1,2.36.7,3.45,3.45,0,0,1,1.14,2.89V70.5a3.61,3.61,0,0,1-3.59,3.34H104Zm29.31,1.24h-2.79V46.33a2.84,2.84,0,0,0-3-3,5.73,5.73,0,0,0-2.82.85l-5.44,3.16a2.3,2.3,0,0,0-1.19,2.11,2.86,2.86,0,0,0,.68,1.85,2,2,0,0,0,1.63.84,2.36,2.36,0,0,0,1.19-.34l2.72-1.6V62.45h-2.75a3.48,3.48,0,0,0-2.25.61,2.31,2.31,0,0,0-.71,1.84c0,1.68,1,2.51,3,2.51h11.8c2,0,3-.83,3-2.51a2.31,2.31,0,0,0-.71-1.84A3.46,3.46,0,0,0,116.14,62.45Z"/><path d="M74.72.49V73.84H1.37V22.13A21.64,21.64,0,0,1,23,.49H74.72Zm-37.2,45.3a3.83,3.83,0,0,0,2.42-.8,3.52,3.52,0,0,0,1.3-2.25,6.1,6.1,0,0,1,1.49-2.69A30.4,30.4,0,0,1,46.08,37c1.55-1.37,2.81-2.55,3.78-3.52a13.56,13.56,0,0,0,2.49-3.52,10,10,0,0,0,1-4.51,9.75,9.75,0,0,0-1.93-5.94,12.92,12.92,0,0,0-5.3-4.11,19,19,0,0,0-7.7-1.49,24.79,24.79,0,0,0-7.66,1.23A23.33,23.33,0,0,0,24,18.52a5.69,5.69,0,0,0-1.63,1.79,4.93,4.93,0,0,0-.5,2.33A5.35,5.35,0,0,0,23,26.12a3.54,3.54,0,0,0,2.82,1.43,8,8,0,0,0,3.65-1.27l1.6-.79a23.51,23.51,0,0,1,3.35-1.63,8.57,8.57,0,0,1,3-.56,4.52,4.52,0,0,1,2.92.86,2.84,2.84,0,0,1,1.07,2.32,4.84,4.84,0,0,1-.77,2.66A21.66,21.66,0,0,1,38.38,32a21.81,21.81,0,0,0-3.31,4.28,10.32,10.32,0,0,0-1.2,5.21,4.76,4.76,0,0,0,1,3.18A3.35,3.35,0,0,0,37.52,45.79Zm.13,15.86a6.17,6.17,0,0,0,4.61-1.86,6.65,6.65,0,0,0,0-9.16,6.2,6.2,0,0,0-4.61-1.85,6.14,6.14,0,0,0-4.54,1.85,6.65,6.65,0,0,0,0,9.16A6.11,6.11,0,0,0,37.65,61.65Z"/></svg>