<svg id="Layer_1" data-name="Layer 1" xmlns="http://www.w3.org/2000/svg" viewBox="0 0 122.3 122.3"><title>l7_3_1</title><rect x="39.48" y="1.37" width="35.11" height="35.11"/><rect x="1.25" y="39.6" width="35.11" height="35.11"/><rect x="39.48" y="39.6" width="35.11" height="35.11"/><path d="M22.89,1.37H36.37a0,0,0,0,1,0,0V36.49a0,0,0,0,1,0,0H1.25a0,0,0,0,1,0,0V23A21.64,21.64,0,0,1,22.89,1.37Z"/><path d="M77.72,1.37h35.11a0,0,0,0,1,0,0V36.49a0,0,0,0,1,0,0H99.36A21.64,21.64,0,0,1,77.72,14.85V1.37A0,0,0,0,1,77.72,1.37Z" transform="translate(190.55 37.86) rotate(-180)"/><path d="M99.36,77.84h13.47a0,0,0,0,1,0,0v35.11a0,0,0,0,1,0,0H77.72a0,0,0,0,1,0,0V99.48A21.64,21.64,0,0,1,99.36,77.84Z" transform="translate(190.55 190.78) rotate(-180)"/><path d="M1.25,77.84H36.37a0,0,0,0,1,0,0v35.11a0,0,0,0,1,0,0H22.89A21.64,21.64,0,0,1,1.25,91.31V77.84A0,0,0,0,1,1.25,77.84Z"/><path d="M52.11,87.47a6.44,6.44,0,0,1,9.14,0L74.6,104.05v14.77a4.47,4.47,0,0,1-1.47,2.77,4.31,4.31,0,0,1-2.26,1H42.63a3.74,3.74,0,0,1-2.18-1.11,4,4,0,0,1-1-3.19V104.66Zm10.94,23.38H62.3V98.58a2.86,2.86,0,0,0-.92-2.28,3.23,3.23,0,0,0-2.21-.82,3.39,3.39,0,0,0-1.51.36,3.11,3.11,0,0,0-1.21,1l-9.72,13.87A3.79,3.79,0,0,0,46,113a2.57,2.57,0,0,0,.72,1.87,2.53,2.53,0,0,0,1.93.75h7.59v1.16a3,3,0,0,0,.83,2.31,3.06,3.06,0,0,0,2.19.78,3.14,3.14,0,0,0,2.21-.78,3,3,0,0,0,.85-2.31v-1.16h.75c2,0,3-.8,3-2.41S65,110.85,63.05,110.85Zm-10.91,0L56.22,105v5.88Z"/><path d="M86.71,62.09a6.44,6.44,0,0,1,0-9.14L103.29,39.6h15a3.31,3.31,0,0,1,2.36.71,3.48,3.48,0,0,1,1.15,2.89V71.37a3.63,3.63,0,0,1-3.6,3.35H103.9Zm28.41-2.6h-.75V47.21a2.88,2.88,0,0,0-.92-2.27,3.19,3.19,0,0,0-2.21-.82,3.39,3.39,0,0,0-1.51.36,3.08,3.08,0,0,0-1.21,1L98.8,59.39a3.79,3.79,0,0,0-.75,2.24,2.62,2.62,0,0,0,.71,1.87,2.57,2.57,0,0,0,1.94.75h7.58V65.4a2.81,2.81,0,0,0,3,3.1,3.14,3.14,0,0,0,2.21-.78,3,3,0,0,0,.85-2.32V64.25h.75c2,0,3-.81,3-2.42S117.09,59.49,115.12,59.49Zm-10.92,0,4.08-5.88v5.88Z"/></svg>