<svg id="Layer_1" data-name="Layer 1" xmlns="http://www.w3.org/2000/svg" viewBox="0 0 122.3 122.3"><title>l7_3_1</title><path d="M76.91.64H112a0,0,0,0,1,0,0V35.76a0,0,0,0,1,0,0H98.55A21.64,21.64,0,0,1,76.91,14.12V.64A0,0,0,0,1,76.91.64Z" transform="translate(188.93 36.4) rotate(-180)"/><path d="M98.55,77.11H112a0,0,0,0,1,0,0v35.11a0,0,0,0,1,0,0H76.91a0,0,0,0,1,0,0V98.75A21.64,21.64,0,0,1,98.55,77.11Z" transform="translate(188.93 189.33) rotate(-180)"/><path d="M.45,77.11H35.56a0,0,0,0,1,0,0v35.11a0,0,0,0,1,0,0H22.09A21.64,21.64,0,0,1,.45,90.58V77.11A0,0,0,0,1,.45,77.11Z"/><path d="M51.31,86.74a6.57,6.57,0,0,1,4.49-1.9,6.67,6.67,0,0,1,4.65,1.9q6.66,8.3,13.34,16.58v14.77a4.42,4.42,0,0,1-1.47,2.77,4.32,4.32,0,0,1-2.25,1H41.82a3.76,3.76,0,0,1-2.18-1.11,4,4,0,0,1-1-3.19V103.93ZM62.24,114H55.41L60.23,109a15.68,15.68,0,0,0,2.84-3.82,8.53,8.53,0,0,0,.84-3.79,6.28,6.28,0,0,0-1-3.56,6.66,6.66,0,0,0-2.94-2.38,11,11,0,0,0-4.42-.83,13.62,13.62,0,0,0-3.93.61A13.44,13.44,0,0,0,48,97a2.33,2.33,0,0,0-.84.89,2.86,2.86,0,0,0-.22,1.22,2.91,2.91,0,0,0,.58,1.82,1.73,1.73,0,0,0,1.43.77,2,2,0,0,0,.64-.11,3.22,3.22,0,0,0,.7-.32l.53-.29.68-.34a15.68,15.68,0,0,1,1.92-.83,5.56,5.56,0,0,1,1.82-.29,2.66,2.66,0,0,1,1.88.61,2.27,2.27,0,0,1,.67,1.77c0,1.32-.75,2.75-2.25,4.32l-7.2,7.51a3.71,3.71,0,0,0-1.16,2.65,2.58,2.58,0,0,0,.71,1.86,2.63,2.63,0,0,0,1.94.73H62.24a3.47,3.47,0,0,0,2.23-.61,2.35,2.35,0,0,0,.73-1.91,2.24,2.24,0,0,0-.73-1.85A3.47,3.47,0,0,0,62.24,114Z"/><path d="M85.91,61.36a6.42,6.42,0,0,1,0-9.14l16.57-13.34h15a3.35,3.35,0,0,1,2.35.71A3.48,3.48,0,0,1,121,42.47V70.64A3.63,3.63,0,0,1,117.43,74H103.09Zm28.4,1.24h-6.83l4.82-4.93a15.68,15.68,0,0,0,2.84-3.82,8.54,8.54,0,0,0,.84-3.8,6.25,6.25,0,0,0-1-3.55A6.66,6.66,0,0,0,112,44.12a11.06,11.06,0,0,0-4.42-.83,13.84,13.84,0,0,0-7.52,2.31,2.35,2.35,0,0,0-.83.88,3.29,3.29,0,0,0,.36,3.05,1.72,1.72,0,0,0,1.43.76,2,2,0,0,0,.64-.1,3.79,3.79,0,0,0,.7-.32,5.83,5.83,0,0,1,.53-.29l.68-.34a15.68,15.68,0,0,1,1.92-.83,5.31,5.31,0,0,1,1.82-.29,2.66,2.66,0,0,1,1.88.61,2.31,2.31,0,0,1,.67,1.77q0,2-2.25,4.31l-7.21,7.52A3.72,3.72,0,0,0,99.25,65a2.54,2.54,0,0,0,.71,1.85,2.58,2.58,0,0,0,1.94.73h12.41a3.41,3.41,0,0,0,2.23-.61,2.36,2.36,0,0,0,.73-1.9,2.25,2.25,0,0,0-.73-1.85A3.47,3.47,0,0,0,114.31,62.6Z"/><path d="M73.79.64V74H.45V22.28A21.64,21.64,0,0,1,22.09.64h51.7ZM36.6,45.94a3.87,3.87,0,0,0,2.42-.8,3.55,3.55,0,0,0,1.29-2.25A6.2,6.2,0,0,1,41.8,40.2a31.36,31.36,0,0,1,3.35-3.08q2.33-2.07,3.79-3.52a13.3,13.3,0,0,0,2.48-3.52,10.25,10.25,0,0,0-.89-10.45,12.81,12.81,0,0,0-5.31-4.11A18.79,18.79,0,0,0,37.52,14a25.12,25.12,0,0,0-7.66,1.22,23.73,23.73,0,0,0-6.8,3.42,5.77,5.77,0,0,0-1.62,1.79,4.8,4.8,0,0,0-.5,2.32,5.31,5.31,0,0,0,1.16,3.49,3.5,3.5,0,0,0,2.82,1.42,8.13,8.13,0,0,0,3.65-1.26l1.59-.79A24.59,24.59,0,0,1,33.51,24a8.63,8.63,0,0,1,3-.56,4.53,4.53,0,0,1,2.92.86,2.84,2.84,0,0,1,1.06,2.32,4.83,4.83,0,0,1-.76,2.66,22.33,22.33,0,0,1-2.29,2.85,21.89,21.89,0,0,0-3.32,4.28A10.33,10.33,0,0,0,33,41.63a4.76,4.76,0,0,0,1,3.18A3.35,3.35,0,0,0,36.6,45.94Zm.13,15.86a6.19,6.19,0,0,0,4.61-1.86,6.43,6.43,0,0,0-4.61-11,6.14,6.14,0,0,0-4.55,1.85,6.67,6.67,0,0,0,0,9.16A6.12,6.12,0,0,0,36.73,61.8Z"/></svg>