<svg id="Layer_1" data-name="Layer 1" xmlns="http://www.w3.org/2000/svg" viewBox="0 0 122.3 122.3"><title>l7_3_1</title><rect x="39.33" width="35.11" height="35.11"/><rect x="1.1" y="38.23" width="35.11" height="35.11"/><rect x="39.33" y="38.23" width="35.11" height="35.11"/><path d="M22.74,0H36.21a0,0,0,0,1,0,0V35.11a0,0,0,0,1,0,0H1.1a0,0,0,0,1,0,0V21.64A21.64,21.64,0,0,1,22.74,0Z"/><path d="M77.56,0h35.11a0,0,0,0,1,0,0V35.11a0,0,0,0,1,0,0H99.2A21.64,21.64,0,0,1,77.56,13.47V0A0,0,0,0,1,77.56,0Z" transform="translate(190.23 35.11) rotate(-180)"/><path d="M99.2,76.46h13.47a0,0,0,0,1,0,0v35.11a0,0,0,0,1,0,0H77.56a0,0,0,0,1,0,0V98.1A21.64,21.64,0,0,1,99.2,76.46Z" transform="translate(190.23 188.04) rotate(-180)"/><path d="M1.1,76.46H36.21a0,0,0,0,1,0,0v35.11a0,0,0,0,1,0,0H22.74A21.64,21.64,0,0,1,1.1,89.94V76.46A0,0,0,0,1,1.1,76.46Z"/><path d="M52,86.1a6.44,6.44,0,0,1,9.14,0l13.34,16.58v14.76A4.43,4.43,0,0,1,73,120.22a4.32,4.32,0,0,1-2.25,1H42.47a3.8,3.8,0,0,1-2.18-1.12,4,4,0,0,1-1-3.19V103.29ZM55.73,94a8.73,8.73,0,0,0-4.31,1,7.72,7.72,0,0,0-3,2.94,9.12,9.12,0,0,0-.14,8.3,7.07,7.07,0,0,0,2.57,2.79,6.86,6.86,0,0,0,3.67,1,6.57,6.57,0,0,0,2.88-.63,5.37,5.37,0,0,0,2.09-1.72,9,9,0,0,1-1.28,4.44,3.23,3.23,0,0,1-2.8,1.58,4.59,4.59,0,0,1-1.57-.27,19.72,19.72,0,0,1-1.87-.82l-.74-.37c-.43-.22-.78-.39-1-.49a2.3,2.3,0,0,0-.85-.15,1.8,1.8,0,0,0-1.45.73,2.69,2.69,0,0,0-.59,1.78,2.5,2.5,0,0,0,.25,1.19,3,3,0,0,0,.83.92,11.06,11.06,0,0,0,3.42,1.7,13.13,13.13,0,0,0,3.89.61A9.22,9.22,0,0,0,61,117.06a9.85,9.85,0,0,0,3.5-4.37A16.44,16.44,0,0,0,65.76,106q0-5.78-2.61-8.9A9.13,9.13,0,0,0,55.73,94Zm.38,11.25A2.71,2.71,0,0,1,54,104.4a3.46,3.46,0,0,1-.76-2.37A3.41,3.41,0,0,1,54,99.69a2.67,2.67,0,0,1,2.11-.89,2.73,2.73,0,0,1,2.11.9,3.8,3.8,0,0,1,0,4.68A2.71,2.71,0,0,1,56.11,105.26Z"/><path d="M86.56,60.72a6.42,6.42,0,0,1,0-9.14l16.57-13.35h15a3.32,3.32,0,0,1,2.36.71,3.48,3.48,0,0,1,1.14,2.89V70a3.59,3.59,0,0,1-3.59,3.34H103.74ZM108.8,43.64a8.8,8.8,0,0,0-4.32,1.06,7.5,7.5,0,0,0-3,2.94,8.44,8.44,0,0,0-1.07,4.27,8.61,8.61,0,0,0,.93,4,7,7,0,0,0,2.57,2.78,6.86,6.86,0,0,0,3.67,1,6.6,6.6,0,0,0,2.88-.63,5.45,5.45,0,0,0,2.09-1.72,9,9,0,0,1-1.28,4.44,3.26,3.26,0,0,1-2.8,1.58,4.59,4.59,0,0,1-1.57-.27c-.5-.18-1.12-.46-1.87-.82l-.75-.37c-.43-.23-.77-.39-1-.5a2.26,2.26,0,0,0-.85-.15A1.83,1.83,0,0,0,101,62a2.73,2.73,0,0,0-.6,1.79,2.52,2.52,0,0,0,.26,1.19,3.16,3.16,0,0,0,.83.92,11,11,0,0,0,3.42,1.7,13.46,13.46,0,0,0,3.89.61,9.22,9.22,0,0,0,5.29-1.53,9.91,9.91,0,0,0,3.5-4.37,16.44,16.44,0,0,0,1.24-6.65q0-5.77-2.62-8.91A9.13,9.13,0,0,0,108.8,43.64Zm.38,11.26a2.69,2.69,0,0,1-2.13-.87,4,4,0,0,1,0-4.71,2.66,2.66,0,0,1,2.11-.88,2.69,2.69,0,0,1,2.1.9,3.32,3.32,0,0,1,.82,2.33,3.35,3.35,0,0,1-.8,2.34A2.72,2.72,0,0,1,109.18,54.9Z"/></svg>