<svg id="Layer_1" data-name="Layer 1" xmlns="http://www.w3.org/2000/svg" viewBox="0 0 122.3 122.3"><title>l7_3_1</title><path d="M77.76.79h35.11a0,0,0,0,1,0,0V35.91a0,0,0,0,1,0,0H99.4A21.64,21.64,0,0,1,77.76,14.27V.79A0,0,0,0,1,77.76.79Z" transform="translate(190.63 36.7) rotate(-180)"/><path d="M99.4,77.26h13.47a0,0,0,0,1,0,0v35.11a0,0,0,0,1,0,0H77.76a0,0,0,0,1,0,0V98.9A21.64,21.64,0,0,1,99.4,77.26Z" transform="translate(190.63 189.63) rotate(-180)"/><path d="M1.3,77.26H36.41a0,0,0,0,1,0,0v35.11a0,0,0,0,1,0,0H22.93A21.64,21.64,0,0,1,1.3,90.73V77.26A0,0,0,0,1,1.3,77.26Z"/><path d="M52.15,86.89a6.45,6.45,0,0,1,9.14,0l13.35,16.58v14.77A4.42,4.42,0,0,1,73.17,121a4.32,4.32,0,0,1-2.25,1H42.67a3.76,3.76,0,0,1-2.18-1.11,3.92,3.92,0,0,1-1-3.19V104.08Zm9,19.85a5.47,5.47,0,0,0,2.7-2.06,5.64,5.64,0,0,0,1-3.28,5.94,5.94,0,0,0-1-3.47,6.66,6.66,0,0,0-3-2.31,11.17,11.17,0,0,0-4.44-.82,13.92,13.92,0,0,0-4,.61,11.46,11.46,0,0,0-3.45,1.7A2.87,2.87,0,0,0,48,98a2.8,2.8,0,0,0-.23,1.19,2.84,2.84,0,0,0,.57,1.79,1.8,1.8,0,0,0,1.43.73,2.08,2.08,0,0,0,.85-.16,10.66,10.66,0,0,0,1-.49l.72-.34a16.92,16.92,0,0,1,1.85-.81A5,5,0,0,1,56,99.63a2.91,2.91,0,0,1,2.08.7,2.52,2.52,0,0,1,.75,2A1.93,1.93,0,0,1,58,104a5.26,5.26,0,0,1-2.72.54h-1.5a2,2,0,0,0-1.6.71,2.67,2.67,0,0,0-.58,1.7,2.63,2.63,0,0,0,.58,1.7,2,2,0,0,0,1.6.72H55.9a5.09,5.09,0,0,1,2.79.58,2.14,2.14,0,0,1,.85,1.9,2.36,2.36,0,0,1-.84,2,4.67,4.67,0,0,1-2.73.61,6,6,0,0,1-2-.29,14.69,14.69,0,0,1-1.95-.83l-.43-.19-.32-.15a10.66,10.66,0,0,0-1-.49,2.08,2.08,0,0,0-.85-.16,1.78,1.78,0,0,0-1.43.73,2.79,2.79,0,0,0-.58,1.79,2.66,2.66,0,0,0,.24,1.17,2.71,2.71,0,0,0,.82.94A10.65,10.65,0,0,0,52,118.75a15,15,0,0,0,4.25.6,12.85,12.85,0,0,0,4.81-.83,7.22,7.22,0,0,0,3.18-2.37,5.91,5.91,0,0,0,1.12-3.6,6.1,6.1,0,0,0-1.13-3.71A5.75,5.75,0,0,0,61.1,106.74Z"/><path d="M86.75,61.51a6.44,6.44,0,0,1,0-9.14L103.33,39h15a3.36,3.36,0,0,1,2.36.71,3.48,3.48,0,0,1,1.15,2.89V70.79a3.63,3.63,0,0,1-3.59,3.35H103.94Zm26.42-6.14a5.45,5.45,0,0,0,2.7-2.06,5.61,5.61,0,0,0,1-3.28,5.92,5.92,0,0,0-1-3.46,6.66,6.66,0,0,0-3-2.32,11.38,11.38,0,0,0-4.44-.81,13.59,13.59,0,0,0-4,.61,11.12,11.12,0,0,0-3.45,1.7,2.66,2.66,0,0,0-.82.92,2.63,2.63,0,0,0-.24,1.19,2.8,2.8,0,0,0,.58,1.78,1.75,1.75,0,0,0,1.43.73,2.26,2.26,0,0,0,.85-.15c.25-.1.59-.27,1-.49l.72-.34a19.38,19.38,0,0,1,1.85-.82,5.2,5.2,0,0,1,1.78-.3,3,3,0,0,1,2.08.69,2.55,2.55,0,0,1,.75,2,1.9,1.9,0,0,1-.86,1.73,5.2,5.2,0,0,1-2.72.55h-1.49a1.94,1.94,0,0,0-1.6.71,2.78,2.78,0,0,0,0,3.4,1.94,1.94,0,0,0,1.6.71H108a5.12,5.12,0,0,1,2.78.58,2.14,2.14,0,0,1,.85,1.91,2.35,2.35,0,0,1-.83,2,4.78,4.78,0,0,1-2.74.61,6.24,6.24,0,0,1-2-.29,15.34,15.34,0,0,1-2-.83l-.42-.19-.32-.15a11.24,11.24,0,0,0-1-.5,2.3,2.3,0,0,0-.85-.15,1.74,1.74,0,0,0-1.43.73,2.77,2.77,0,0,0-.58,1.79,2.66,2.66,0,0,0,.24,1.17,2.6,2.6,0,0,0,.82.93,10.86,10.86,0,0,0,3.53,1.72,15,15,0,0,0,4.25.6,12.64,12.64,0,0,0,4.81-.84,7.13,7.13,0,0,0,3.18-2.36,5.91,5.91,0,0,0,1.12-3.6,6,6,0,0,0-1.14-3.71A5.79,5.79,0,0,0,113.17,55.37Z"/><path d="M74.64.79V74.14H1.3V22.43A21.63,21.63,0,0,1,22.93.79H74.64Zm-37.2,45.3a3.88,3.88,0,0,0,2.43-.8A3.55,3.55,0,0,0,41.16,43a6.2,6.2,0,0,1,1.49-2.69A31.36,31.36,0,0,1,46,37.27q2.32-2.07,3.78-3.52a13.1,13.1,0,0,0,2.49-3.52,10.25,10.25,0,0,0-.89-10.45,12.87,12.87,0,0,0-5.31-4.11,18.82,18.82,0,0,0-7.7-1.49,25.12,25.12,0,0,0-7.66,1.22,23.73,23.73,0,0,0-6.8,3.42,6,6,0,0,0-1.63,1.79,4.92,4.92,0,0,0-.49,2.32A5.31,5.31,0,0,0,23,26.42a3.5,3.5,0,0,0,2.82,1.42,8.13,8.13,0,0,0,3.65-1.26L31,25.79a24,24,0,0,1,3.35-1.63,8.58,8.58,0,0,1,3-.56,4.53,4.53,0,0,1,2.92.86,2.86,2.86,0,0,1,1.06,2.32,4.91,4.91,0,0,1-.76,2.66,23.26,23.26,0,0,1-2.29,2.85A21.89,21.89,0,0,0,35,36.57a10.32,10.32,0,0,0-1.2,5.21,4.76,4.76,0,0,0,1,3.18A3.33,3.33,0,0,0,37.44,46.09ZM37.58,62a6.2,6.2,0,0,0,4.61-1.86,6.67,6.67,0,0,0,0-9.16,6.2,6.2,0,0,0-4.61-1.86A6.12,6.12,0,0,0,33,50.93a6.67,6.67,0,0,0,0,9.16A6.12,6.12,0,0,0,37.58,62Z"/></svg>