<svg id="Layer_1" data-name="Layer 1" xmlns="http://www.w3.org/2000/svg" viewBox="0 0 122.3 122.3"><title>l7_3_1</title><rect x="39.7" y="1.37" width="35.11" height="35.11"/><rect x="1.47" y="39.6" width="35.11" height="35.11"/><rect x="39.7" y="39.6" width="35.11" height="35.11"/><path d="M23.11,1.37H36.58a0,0,0,0,1,0,0V36.49a0,0,0,0,1,0,0H1.47a0,0,0,0,1,0,0V23A21.64,21.64,0,0,1,23.11,1.37Z"/><path d="M77.93,1.37H113a0,0,0,0,1,0,0V36.49a0,0,0,0,1,0,0H99.57A21.64,21.64,0,0,1,77.93,14.85V1.37A0,0,0,0,1,77.93,1.37Z" transform="translate(190.98 37.86) rotate(-180)"/><path d="M99.57,77.84H113a0,0,0,0,1,0,0v35.11a0,0,0,0,1,0,0H77.93a0,0,0,0,1,0,0V99.48A21.64,21.64,0,0,1,99.57,77.84Z" transform="translate(190.98 190.78) rotate(-180)"/><path d="M1.47,77.84H36.58a0,0,0,0,1,0,0v35.11a0,0,0,0,1,0,0H23.11A21.64,21.64,0,0,1,1.47,91.31V77.84A0,0,0,0,1,1.47,77.84Z"/><path d="M52.33,87.47a6.44,6.44,0,0,1,9.14,0l13.34,16.58v14.77a4.36,4.36,0,0,1-1.47,2.77,4.26,4.26,0,0,1-2.25,1H42.84a3.79,3.79,0,0,1-2.18-1.11,4,4,0,0,1-1-3.19V104.66ZM59,103.88a6.57,6.57,0,0,0-2.88.63A5.37,5.37,0,0,0,54,106.23a9,9,0,0,1,1.28-4.44,3.26,3.26,0,0,1,2.8-1.58,4.59,4.59,0,0,1,1.57.27,19.72,19.72,0,0,1,1.87.82l.74.37a10.66,10.66,0,0,0,1,.49,2.11,2.11,0,0,0,.85.16,1.83,1.83,0,0,0,1.45-.73,2.79,2.79,0,0,0,.59-1.79A2.52,2.52,0,0,0,66,98.61a3,3,0,0,0-.83-.92A11.17,11.17,0,0,0,61.7,96a13.46,13.46,0,0,0-3.89-.61,9.22,9.22,0,0,0-5.29,1.53,9.85,9.85,0,0,0-3.5,4.37,16.44,16.44,0,0,0-1.24,6.65q0,5.77,2.61,8.91A9.16,9.16,0,0,0,57.81,120a8.76,8.76,0,0,0,4.31-1,7.59,7.59,0,0,0,3-2.94,9.08,9.08,0,0,0,.13-8.3A6.84,6.84,0,0,0,59,103.88Zm-1.57,11.29a2.73,2.73,0,0,1-2.11-.9,3.8,3.8,0,0,1,0-4.68,3,3,0,0,1,4.25,0,4,4,0,0,1,0,4.71A2.66,2.66,0,0,1,57.43,115.17Z"/><path d="M86.93,62.09a6.44,6.44,0,0,1,0-9.14L103.51,39.6h15a3.32,3.32,0,0,1,2.36.71A3.45,3.45,0,0,1,122,43.2V71.37a3.61,3.61,0,0,1-3.59,3.35H104.12Zm24.13-8.57a6.52,6.52,0,0,0-2.87.63,5.44,5.44,0,0,0-2.09,1.71,9,9,0,0,1,1.28-4.43,3.22,3.22,0,0,1,2.8-1.58,4.53,4.53,0,0,1,1.56.27,19.62,19.62,0,0,1,1.87.81l.75.38a10.66,10.66,0,0,0,1,.49,2.26,2.26,0,0,0,.85.15,1.8,1.8,0,0,0,1.45-.73,2.75,2.75,0,0,0,.59-1.78,2.5,2.5,0,0,0-.25-1.19,2.85,2.85,0,0,0-.84-.92,10.79,10.79,0,0,0-3.41-1.7,13.19,13.19,0,0,0-3.9-.61,9.18,9.18,0,0,0-5.28,1.53,9.79,9.79,0,0,0-3.5,4.37,16.42,16.42,0,0,0-1.25,6.64c0,3.86.88,6.83,2.62,8.91a9.13,9.13,0,0,0,7.41,3.13,8.8,8.8,0,0,0,4.32-1,7.68,7.68,0,0,0,3-3,9.06,9.06,0,0,0,.13-8.29,7,7,0,0,0-2.56-2.79A6.89,6.89,0,0,0,111.06,53.52ZM109.5,64.81a2.73,2.73,0,0,1-2.11-.9,3.37,3.37,0,0,1-.81-2.33,3.33,3.33,0,0,1,.8-2.35,2.71,2.71,0,0,1,2.12-.88,2.68,2.68,0,0,1,2.13.86,3.51,3.51,0,0,1,.76,2.37,3.41,3.41,0,0,1-.78,2.34A2.68,2.68,0,0,1,109.5,64.81Z"/></svg>