<svg id="Layer_1" data-name="Layer 1" xmlns="http://www.w3.org/2000/svg" viewBox="0 0 122.3 122.3"><title>l7_3_1</title><path d="M77.75.7h35.11a0,0,0,0,1,0,0V35.81a0,0,0,0,1,0,0H99.39A21.64,21.64,0,0,1,77.75,14.17V.7A0,0,0,0,1,77.75.7Z" transform="translate(190.62 36.5) rotate(-180)"/><path d="M99.39,77.16h13.47a0,0,0,0,1,0,0v35.11a0,0,0,0,1,0,0H77.75a0,0,0,0,1,0,0V98.8A21.64,21.64,0,0,1,99.39,77.16Z" transform="translate(190.62 189.43) rotate(-180)"/><path d="M1.29,77.16H36.4a0,0,0,0,1,0,0v35.11a0,0,0,0,1,0,0H22.93A21.64,21.64,0,0,1,1.29,90.63V77.16A0,0,0,0,1,1.29,77.16Z"/><path d="M52.15,86.79a6.44,6.44,0,0,1,9.14,0l13.35,16.58v14.77a4.29,4.29,0,0,1-3.73,3.77H42.67a3.77,3.77,0,0,1-2.18-1.12,4,4,0,0,1-1-3.19V104Zm6.29,16.52a8.44,8.44,0,0,0-3.36.61V99.74h7.34c2,0,3-.8,3-2.38s-1-2.35-3-2.35H51.88a2.89,2.89,0,0,0-2.14.75A2.93,2.93,0,0,0,49,97.93v9.22a1.88,1.88,0,0,0,.65,1.48,2.36,2.36,0,0,0,1.6.56,3.27,3.27,0,0,0,1.53-.38,13.11,13.11,0,0,1,1.95-.61,9.55,9.55,0,0,1,1.85-.17,3.9,3.9,0,0,1,2.66.85,3,3,0,0,1,1,2.38,3,3,0,0,1-.92,2.4,4.34,4.34,0,0,1-2.82.76,5.76,5.76,0,0,1-1.89-.3,20,20,0,0,1-1.92-.82L52,113a9.4,9.4,0,0,0-1-.51,2.34,2.34,0,0,0-.85-.13,1.75,1.75,0,0,0-1.43.73,2.8,2.8,0,0,0-.58,1.78,2.54,2.54,0,0,0,.26,1.18,3.09,3.09,0,0,0,.8.93,11.07,11.07,0,0,0,3.48,1.7,14.15,14.15,0,0,0,4.13.61,11.07,11.07,0,0,0,4.87-1,7.65,7.65,0,0,0,3.26-2.89A8,8,0,0,0,66,111a8.28,8.28,0,0,0-1-4,7,7,0,0,0-2.69-2.72A7.89,7.89,0,0,0,58.44,103.31Z"/><path d="M86.75,61.41a6.44,6.44,0,0,1,0-9.14l16.58-13.34h15a3.27,3.27,0,0,1,2.36.71,3.43,3.43,0,0,1,1.14,2.88V70.7A3.61,3.61,0,0,1,118.27,74H103.94Zm23.76-9.47a8.61,8.61,0,0,0-3.36.61V48.37h7.34c2,0,3-.79,3-2.38s-1-2.34-3-2.34H104a2.93,2.93,0,0,0-2.14.74,3,3,0,0,0-.75,2.18v9.21a1.85,1.85,0,0,0,.65,1.48,2.31,2.31,0,0,0,1.59.56,3.2,3.2,0,0,0,1.53-.37,12.1,12.1,0,0,1,2-.61,8.76,8.76,0,0,1,1.85-.17,3.8,3.8,0,0,1,2.65.85,3,3,0,0,1,1,2.38,2.92,2.92,0,0,1-.92,2.39,4.28,4.28,0,0,1-2.82.77,5.51,5.51,0,0,1-1.89-.31,17.53,17.53,0,0,1-1.92-.81L104,61.6q-.69-.37-1-.51a2.32,2.32,0,0,0-.85-.14,1.78,1.78,0,0,0-1.43.73,2.79,2.79,0,0,0-.58,1.79,2.52,2.52,0,0,0,.26,1.17,3,3,0,0,0,.8.94,11.29,11.29,0,0,0,3.48,1.7,14.49,14.49,0,0,0,4.13.61,11,11,0,0,0,4.86-1A7.68,7.68,0,0,0,116.94,64a8.06,8.06,0,0,0,1.15-4.32,8.15,8.15,0,0,0-1-4,6.87,6.87,0,0,0-2.68-2.72A7.92,7.92,0,0,0,110.51,51.94Z"/><path d="M74.64.7V74H1.29V22.33A21.63,21.63,0,0,1,22.93.7H74.64ZM37.44,46a3.82,3.82,0,0,0,2.42-.79,3.57,3.57,0,0,0,1.3-2.26,6.15,6.15,0,0,1,1.49-2.69A30.4,30.4,0,0,1,46,37.17c1.55-1.37,2.81-2.55,3.78-3.52a13.5,13.5,0,0,0,2.49-3.51,10.07,10.07,0,0,0,1-4.52,9.7,9.7,0,0,0-1.93-5.93,12.86,12.86,0,0,0-5.3-4.12,19,19,0,0,0-7.7-1.49,24.79,24.79,0,0,0-7.66,1.23,23.58,23.58,0,0,0-6.8,3.41,5.8,5.8,0,0,0-1.63,1.79,4.93,4.93,0,0,0-.5,2.33,5.35,5.35,0,0,0,1.16,3.48,3.54,3.54,0,0,0,2.82,1.43,8.09,8.09,0,0,0,3.65-1.26l1.6-.8a23.51,23.51,0,0,1,3.35-1.63,8.57,8.57,0,0,1,3-.56,4.52,4.52,0,0,1,2.92.86,2.85,2.85,0,0,1,1.07,2.33,4.83,4.83,0,0,1-.77,2.65,21,21,0,0,1-2.29,2.85A21.81,21.81,0,0,0,35,36.47a10.32,10.32,0,0,0-1.2,5.21,4.76,4.76,0,0,0,1,3.18A3.32,3.32,0,0,0,37.44,46Zm.13,15.86A6.21,6.21,0,0,0,42.19,60a6.66,6.66,0,0,0,0-9.15A6.21,6.21,0,0,0,37.57,49,6.11,6.11,0,0,0,33,50.84,6.63,6.63,0,0,0,33,60,6.11,6.11,0,0,0,37.57,61.85Z"/></svg>