<svg id="Layer_1" data-name="Layer 1" xmlns="http://www.w3.org/2000/svg" viewBox="0 0 122.3 122.3"><title>l7_3_1</title><rect x="39.75" width="35.35" height="35.11"/><rect x="1.25" y="38.23" width="35.35" height="35.11"/><rect x="39.75" y="38.23" width="35.35" height="35.11"/><path d="M22.89,0H36.61a0,0,0,0,1,0,0V35.11a0,0,0,0,1,0,0H1.25a0,0,0,0,1,0,0V21.64A21.64,21.64,0,0,1,22.89,0Z"/><path d="M78.24,0h35.35a0,0,0,0,1,0,0V35.11a0,0,0,0,1,0,0H99.88A21.64,21.64,0,0,1,78.24,13.47V0A0,0,0,0,1,78.24,0Z" transform="translate(191.83 35.11) rotate(-180)"/><path d="M99.88,76.46h13.71a0,0,0,0,1,0,0v35.11a0,0,0,0,1,0,0H78.24a0,0,0,0,1,0,0V98.1A21.64,21.64,0,0,1,99.88,76.46Z" transform="translate(191.83 188.04) rotate(-180)"/><path d="M1.25,76.46H36.61a0,0,0,0,1,0,0v35.11a0,0,0,0,1,0,0H22.89A21.64,21.64,0,0,1,1.25,89.94V76.46A0,0,0,0,1,1.25,76.46Z"/><path d="M52.46,86.1a6.52,6.52,0,0,1,9.2,0L75.1,102.68v14.76a4.41,4.41,0,0,1-1.48,2.78,4.34,4.34,0,0,1-2.27,1H42.91a3.79,3.79,0,0,1-2.19-1.12,3.89,3.89,0,0,1-1-3.19V103.29Zm11.92,27.22H61.57V97.21A2.93,2.93,0,0,0,60.73,95a3,3,0,0,0-2.21-.82,5.79,5.79,0,0,0-2.84.85L50.2,98.19A2.32,2.32,0,0,0,49,100.3a2.81,2.81,0,0,0,.68,1.85,2.07,2.07,0,0,0,1.64.84,2.4,2.4,0,0,0,1.2-.34l2.74-1.6v12.27H52.5a3.49,3.49,0,0,0-2.26.61,2.28,2.28,0,0,0-.72,1.84c0,1.68,1,2.52,3,2.52H64.38c2,0,3-.84,3-2.52a2.28,2.28,0,0,0-.72-1.84A3.51,3.51,0,0,0,64.38,113.32Z"/><path d="M87.3,60.72a6.4,6.4,0,0,1,0-9.14L104,38.23h15.13a3.36,3.36,0,0,1,2.38.71,3.43,3.43,0,0,1,1.15,2.89V70A3.61,3.61,0,0,1,119,73.34H104.6ZM117.81,62H115V45.84a3,3,0,0,0-.84-2.21,3,3,0,0,0-2.21-.81,5.79,5.79,0,0,0-2.84.85l-5.47,3.16a2.3,2.3,0,0,0-1.2,2.11,2.88,2.88,0,0,0,.68,1.85,2.09,2.09,0,0,0,1.65.83,2.27,2.27,0,0,0,1.19-.34l2.74-1.6V62h-2.77a3.43,3.43,0,0,0-2.26.61,2.28,2.28,0,0,0-.72,1.84c0,1.67,1,2.51,3,2.51h11.88c2,0,3-.84,3-2.51a2.28,2.28,0,0,0-.72-1.84A3.43,3.43,0,0,0,117.81,62Z"/></svg>