<svg id="Layer_1" data-name="Layer 1" xmlns="http://www.w3.org/2000/svg" viewBox="0 0 122.3 122.3"><title>l7_3_1</title><rect x="40.06" width="35.11" height="35.11"/><rect x="1.83" y="38.23" width="35.11" height="35.11"/><rect x="40.06" y="38.23" width="35.11" height="35.11"/><path d="M23.47,0H36.94a0,0,0,0,1,0,0V35.11a0,0,0,0,1,0,0H1.83a0,0,0,0,1,0,0V21.64A21.64,21.64,0,0,1,23.47,0Z"/><path d="M78.29,0H113.4a0,0,0,0,1,0,0V35.11a0,0,0,0,1,0,0H99.93A21.64,21.64,0,0,1,78.29,13.47V0A0,0,0,0,1,78.29,0Z" transform="translate(191.7 35.11) rotate(-180)"/><path d="M99.93,76.46H113.4a0,0,0,0,1,0,0v35.11a0,0,0,0,1,0,0H78.29a0,0,0,0,1,0,0V98.1A21.64,21.64,0,0,1,99.93,76.46Z" transform="translate(191.7 188.04) rotate(-180)"/><path d="M1.83,76.46H36.94a0,0,0,0,1,0,0v35.11a0,0,0,0,1,0,0H23.47A21.64,21.64,0,0,1,1.83,89.94V76.46A0,0,0,0,1,1.83,76.46Z"/><path d="M52.69,86.1a6.44,6.44,0,0,1,9.14,0q6.67,8.28,13.34,16.58v14.76a4.38,4.38,0,0,1-1.47,2.78,4.29,4.29,0,0,1-2.25,1H43.2A3.82,3.82,0,0,1,41,120.09a4,4,0,0,1-1-3.19V103.29Zm11.49,8.22H50.86a3.4,3.4,0,0,0-2.25.62,2.37,2.37,0,0,0-.71,1.89,2.33,2.33,0,0,0,.69,1.84,3.41,3.41,0,0,0,2.27.61h8.5L50.62,114.2a3.22,3.22,0,0,0-.48,1.64,2.49,2.49,0,0,0,.92,2,3.12,3.12,0,0,0,2.11.8,2.89,2.89,0,0,0,1.44-.39A3.12,3.12,0,0,0,55.79,117l10.3-17.85a4.31,4.31,0,0,0,.64-2.24,2.64,2.64,0,0,0-.66-1.85A2.41,2.41,0,0,0,64.18,94.32Z"/><path d="M87.29,60.72a6.42,6.42,0,0,1,0-9.14l16.58-13.35h15a3.32,3.32,0,0,1,2.36.71,3.45,3.45,0,0,1,1.14,2.89V70a3.59,3.59,0,0,1-3.59,3.34H104.48Zm30-16.77H103.92a3.33,3.33,0,0,0-2.24.63,2.37,2.37,0,0,0-.71,1.89,2.32,2.32,0,0,0,.69,1.83,3.39,3.39,0,0,0,2.26.62h8.5l-8.73,14.92a3.22,3.22,0,0,0-.48,1.63,2.51,2.51,0,0,0,.92,2,3.12,3.12,0,0,0,2.11.8,2.91,2.91,0,0,0,1.44-.39,3.17,3.17,0,0,0,1.17-1.21l10.31-17.85a4.34,4.34,0,0,0,.64-2.24,2.68,2.68,0,0,0-.66-1.86A2.41,2.41,0,0,0,117.25,44Z"/></svg>