<svg id="Layer_1" data-name="Layer 1" xmlns="http://www.w3.org/2000/svg" viewBox="0 0 122.3 122.3"><title>l7_3_1</title><rect x="39.7" y="1.37" width="35.11" height="35.11"/><rect x="1.47" y="39.6" width="35.11" height="35.11"/><rect x="39.7" y="39.6" width="35.11" height="35.11"/><path d="M23.11,1.37H36.58a0,0,0,0,1,0,0V36.49a0,0,0,0,1,0,0H1.47a0,0,0,0,1,0,0V23A21.64,21.64,0,0,1,23.11,1.37Z"/><path d="M77.93,1.37H113a0,0,0,0,1,0,0V36.49a0,0,0,0,1,0,0H99.57A21.64,21.64,0,0,1,77.93,14.85V1.37A0,0,0,0,1,77.93,1.37Z" transform="translate(190.98 37.86) rotate(-180)"/><path d="M99.57,77.84H113a0,0,0,0,1,0,0v35.11a0,0,0,0,1,0,0H77.93a0,0,0,0,1,0,0V99.48A21.64,21.64,0,0,1,99.57,77.84Z" transform="translate(190.98 190.78) rotate(-180)"/><path d="M1.47,77.84H36.58a0,0,0,0,1,0,0v35.11a0,0,0,0,1,0,0H23.11A21.64,21.64,0,0,1,1.47,91.31V77.84A0,0,0,0,1,1.47,77.84Z"/><path d="M52.33,87.47a6.44,6.44,0,0,1,9.14,0l13.34,16.58v14.77a4.36,4.36,0,0,1-1.47,2.77,4.26,4.26,0,0,1-2.25,1H42.84a3.79,3.79,0,0,1-2.18-1.11,4,4,0,0,1-1-3.19V104.66ZM58.62,104a8.43,8.43,0,0,0-3.36.62v-4.19H62.6c2,0,3-.79,3-2.38s-1-2.34-3-2.34H52.06a2.62,2.62,0,0,0-2.89,2.92v9.22a1.85,1.85,0,0,0,.65,1.48,2.36,2.36,0,0,0,1.59.56,3.21,3.21,0,0,0,1.53-.38,12.1,12.1,0,0,1,2-.61,9.47,9.47,0,0,1,1.85-.17,3.82,3.82,0,0,1,2.65.85,3,3,0,0,1,1,2.38,3,3,0,0,1-.92,2.4,4.36,4.36,0,0,1-2.82.76,5.76,5.76,0,0,1-1.89-.3,20,20,0,0,1-1.92-.82l-.68-.34q-.69-.37-1-.51a2.32,2.32,0,0,0-.85-.14,1.77,1.77,0,0,0-1.43.73,2.79,2.79,0,0,0-.58,1.79,2.52,2.52,0,0,0,.26,1.17,3,3,0,0,0,.8.94,11.29,11.29,0,0,0,3.48,1.7,14.15,14.15,0,0,0,4.13.61,11,11,0,0,0,4.86-1A7.62,7.62,0,0,0,65.05,116a8.06,8.06,0,0,0,1.15-4.32,8.15,8.15,0,0,0-1-4A6.94,6.94,0,0,0,62.55,105,8,8,0,0,0,58.62,104Z"/><path d="M86.93,62.09a6.44,6.44,0,0,1,0-9.14L103.51,39.6h15a3.32,3.32,0,0,1,2.36.71A3.45,3.45,0,0,1,122,43.2V71.37a3.61,3.61,0,0,1-3.59,3.35H104.12Zm24.76-9.47a8.52,8.52,0,0,0-3.37.61V49.05h7.35c2,0,3-.79,3-2.38s-1-2.35-3-2.35H105.13a2.87,2.87,0,0,0-2.14.75,3,3,0,0,0-.75,2.18v9.21a1.86,1.86,0,0,0,.64,1.48,2.33,2.33,0,0,0,1.6.56,3.2,3.2,0,0,0,1.53-.37,11.18,11.18,0,0,1,2-.61,8.76,8.76,0,0,1,1.85-.17,3.82,3.82,0,0,1,2.65.85,3,3,0,0,1,1,2.38,2.94,2.94,0,0,1-.91,2.39,4.39,4.39,0,0,1-2.83.77,5.41,5.41,0,0,1-1.88-.31,17.53,17.53,0,0,1-1.92-.81l-.68-.34q-.69-.37-1-.51a2.32,2.32,0,0,0-.85-.14,1.74,1.74,0,0,0-1.43.73,2.77,2.77,0,0,0-.58,1.79,2.52,2.52,0,0,0,.26,1.17,2.93,2.93,0,0,0,.79.93,11,11,0,0,0,3.49,1.7,14.11,14.11,0,0,0,4.13.62,11,11,0,0,0,4.86-1,7.68,7.68,0,0,0,3.27-2.89,8.06,8.06,0,0,0,1.15-4.32,8.15,8.15,0,0,0-1-4,6.87,6.87,0,0,0-2.68-2.72A7.84,7.84,0,0,0,111.69,52.62Z"/></svg>