<svg id="Layer_1" data-name="Layer 1" xmlns="http://www.w3.org/2000/svg" viewBox="0 0 122.3 122.3"><title>l7_3_1</title><rect x="39.53" width="35.11" height="35.11"/><rect x="1.29" y="38.23" width="35.11" height="35.11"/><rect x="39.53" y="38.23" width="35.11" height="35.11"/><path d="M22.93,0H36.41a0,0,0,0,1,0,0V35.11a0,0,0,0,1,0,0H1.29a0,0,0,0,1,0,0V21.64A21.64,21.64,0,0,1,22.93,0Z"/><path d="M77.76,0h35.11a0,0,0,0,1,0,0V35.11a0,0,0,0,1,0,0H99.4A21.64,21.64,0,0,1,77.76,13.47V0A0,0,0,0,1,77.76,0Z" transform="translate(190.63 35.11) rotate(-180)"/><path d="M99.4,76.46h13.47a0,0,0,0,1,0,0v35.11a0,0,0,0,1,0,0H77.76a0,0,0,0,1,0,0V98.1A21.64,21.64,0,0,1,99.4,76.46Z" transform="translate(190.63 188.04) rotate(-180)"/><path d="M1.29,76.46H36.41a0,0,0,0,1,0,0v35.11a0,0,0,0,1,0,0H22.93A21.64,21.64,0,0,1,1.29,89.94V76.46A0,0,0,0,1,1.29,76.46Z"/><path d="M52.15,86.1a6.45,6.45,0,0,1,9.14,0l13.35,16.58v14.76a4.43,4.43,0,0,1-1.47,2.78,4.32,4.32,0,0,1-2.25,1H42.67a3.77,3.77,0,0,1-2.18-1.12,3.91,3.91,0,0,1-1-3.19V103.29Zm10.94,27.22H56.26l4.82-4.93a15.68,15.68,0,0,0,2.84-3.82,8.53,8.53,0,0,0,.84-3.79,6.26,6.26,0,0,0-1-3.56,6.66,6.66,0,0,0-2.94-2.38A11.06,11.06,0,0,0,56.36,94a13.28,13.28,0,0,0-3.93.61,13.5,13.5,0,0,0-3.59,1.7,2.3,2.3,0,0,0-.83.89,2.83,2.83,0,0,0-.22,1.22,2.91,2.91,0,0,0,.58,1.82,1.72,1.72,0,0,0,1.43.76,2,2,0,0,0,.64-.1,3.79,3.79,0,0,0,.7-.32,5.83,5.83,0,0,1,.53-.29l.68-.34a15.68,15.68,0,0,1,1.92-.83,5.29,5.29,0,0,1,1.81-.29,2.67,2.67,0,0,1,1.89.61,2.31,2.31,0,0,1,.67,1.77q0,2-2.25,4.32l-7.21,7.51A3.72,3.72,0,0,0,48,115.7a2.54,2.54,0,0,0,.71,1.85,2.58,2.58,0,0,0,1.94.74H63.09a3.41,3.41,0,0,0,2.23-.62,2.35,2.35,0,0,0,.73-1.9,2.25,2.25,0,0,0-.73-1.85A3.47,3.47,0,0,0,63.09,113.32Z"/><path d="M86.75,60.72a6.45,6.45,0,0,1,0-9.14l16.58-13.35h15a3.31,3.31,0,0,1,2.36.71,3.47,3.47,0,0,1,1.15,2.89V70a3.61,3.61,0,0,1-3.59,3.34H103.94ZM116.16,62h-6.84L114.15,57A15.71,15.71,0,0,0,117,53.2a8.49,8.49,0,0,0,.83-3.79,6.22,6.22,0,0,0-1-3.55,6.65,6.65,0,0,0-2.94-2.38,10.89,10.89,0,0,0-4.42-.83A13.84,13.84,0,0,0,101.91,45a2.21,2.21,0,0,0-.83.88,3.27,3.27,0,0,0,.36,3,1.73,1.73,0,0,0,1.42.77,2,2,0,0,0,.65-.1,4.25,4.25,0,0,0,.7-.33l.52-.28.68-.34a17.41,17.41,0,0,1,1.92-.84,5.65,5.65,0,0,1,1.82-.29,2.67,2.67,0,0,1,1.89.62,2.26,2.26,0,0,1,.66,1.76c0,1.32-.74,2.76-2.24,4.32l-7.21,7.52a3.7,3.7,0,0,0-1.15,2.65,2.52,2.52,0,0,0,.71,1.85,2.58,2.58,0,0,0,1.94.73h12.41a3.36,3.36,0,0,0,2.22-.61,2.34,2.34,0,0,0,.74-1.9,2.26,2.26,0,0,0-.74-1.86A3.48,3.48,0,0,0,116.16,62Z"/></svg>