<svg id="Layer_1" data-name="Layer 1" xmlns="http://www.w3.org/2000/svg" viewBox="0 0 122.3 122.3"><title>l7_3_1</title><path d="M77.32.81h35.11a0,0,0,0,1,0,0V35.92a0,0,0,0,1,0,0H99A21.64,21.64,0,0,1,77.32,14.28V.81A0,0,0,0,1,77.32.81Z" transform="translate(189.76 36.73) rotate(-180)"/><path d="M99,77.27h13.47a0,0,0,0,1,0,0v35.11a0,0,0,0,1,0,0H77.32a0,0,0,0,1,0,0V98.91A21.64,21.64,0,0,1,99,77.27Z" transform="translate(189.76 189.66) rotate(-180)"/><path d="M.86,77.27H36a0,0,0,0,1,0,0v35.11a0,0,0,0,1,0,0H22.5A21.64,21.64,0,0,1,.86,90.75V77.27A0,0,0,0,1,.86,77.27Z"/><path d="M51.72,86.91a6.42,6.42,0,0,1,9.14,0L74.2,103.48v14.77A4.36,4.36,0,0,1,72.73,121a4.21,4.21,0,0,1-2.25,1H42.23a3.82,3.82,0,0,1-2.18-1.12,4,4,0,0,1-1-3.19V104.09Zm6.67,16.41a6.57,6.57,0,0,0-2.88.63,5.44,5.44,0,0,0-2.09,1.71,9,9,0,0,1,1.28-4.43,3.23,3.23,0,0,1,2.8-1.58,4.59,4.59,0,0,1,1.57.27c.49.18,1.12.45,1.87.81l.74.38c.44.22.78.39,1,.49a2.3,2.3,0,0,0,.85.15A1.8,1.8,0,0,0,65,101a2.71,2.71,0,0,0,.59-1.78,2.47,2.47,0,0,0-.25-1.19,2.93,2.93,0,0,0-.83-.92,10.84,10.84,0,0,0-3.42-1.7,13.13,13.13,0,0,0-3.89-.61,9.22,9.22,0,0,0-5.29,1.53,9.79,9.79,0,0,0-3.5,4.37,16.39,16.39,0,0,0-1.24,6.64q0,5.79,2.61,8.91a9.13,9.13,0,0,0,7.42,3.13,8.73,8.73,0,0,0,4.31-1.05,7.61,7.61,0,0,0,3-2.95,9.1,9.1,0,0,0,.14-8.29,7.07,7.07,0,0,0-2.57-2.79A6.86,6.86,0,0,0,58.39,103.32ZM56.82,114.6a2.7,2.7,0,0,1-2.11-.9,3.33,3.33,0,0,1-.81-2.32,3.38,3.38,0,0,1,.8-2.35,2.71,2.71,0,0,1,2.12-.88A2.68,2.68,0,0,1,59,109a3.46,3.46,0,0,1,.76,2.37,3.41,3.41,0,0,1-.78,2.34A2.66,2.66,0,0,1,56.82,114.6Z"/><path d="M86.32,61.53a6.45,6.45,0,0,1,0-9.14L102.9,39h15a3.32,3.32,0,0,1,2.36.71,3.44,3.44,0,0,1,1.14,2.88V70.81a3.69,3.69,0,0,1-1.14,2.37,3.65,3.65,0,0,1-2.45,1H103.51ZM110.46,52a6.54,6.54,0,0,0-2.88.63,5.37,5.37,0,0,0-2.09,1.72,9.06,9.06,0,0,1,1.28-4.44,3.26,3.26,0,0,1,2.8-1.58,4.49,4.49,0,0,1,1.56.27c.5.19,1.13.46,1.87.82l.75.37c.43.23.77.39,1,.5a2.26,2.26,0,0,0,.85.15,1.8,1.8,0,0,0,1.45-.73,2.77,2.77,0,0,0,.59-1.79,2.52,2.52,0,0,0-.25-1.19,3,3,0,0,0-.83-.91,10.74,10.74,0,0,0-3.42-1.7,13.21,13.21,0,0,0-3.9-.62A9.21,9.21,0,0,0,104,45a9.85,9.85,0,0,0-3.5,4.37A16.47,16.47,0,0,0,99.23,56c0,3.85.88,6.82,2.62,8.91A9.16,9.16,0,0,0,109.26,68,8.8,8.8,0,0,0,113.58,67a7.59,7.59,0,0,0,3-2.94,9.08,9.08,0,0,0,.13-8.3A6.89,6.89,0,0,0,110.46,52Zm-1.57,11.29a2.73,2.73,0,0,1-2.11-.9A3.36,3.36,0,0,1,106,60a3.31,3.31,0,0,1,.8-2.34,2.72,2.72,0,0,1,2.12-.89,2.69,2.69,0,0,1,2.13.87,4,4,0,0,1,0,4.71A2.68,2.68,0,0,1,108.89,63.24Z"/><path d="M74.2.81V74.15H.86V22.45A21.64,21.64,0,0,1,22.5.81H74.2ZM37,46.11a3.85,3.85,0,0,0,2.42-.8,3.47,3.47,0,0,0,1.29-2.26,6.1,6.1,0,0,1,1.5-2.68,30.34,30.34,0,0,1,3.35-3.09c1.54-1.37,2.81-2.54,3.78-3.52a13.5,13.5,0,0,0,2.49-3.51,10,10,0,0,0,1-4.51,9.82,9.82,0,0,0-1.93-5.94,12.73,12.73,0,0,0-5.31-4.11,18.78,18.78,0,0,0-7.69-1.5,24.9,24.9,0,0,0-7.67,1.23,23.73,23.73,0,0,0-6.8,3.42,5.66,5.66,0,0,0-1.62,1.79,4.89,4.89,0,0,0-.5,2.32,5.35,5.35,0,0,0,1.16,3.48,3.51,3.51,0,0,0,2.82,1.43A8.09,8.09,0,0,0,29,26.6l1.59-.8a24.42,24.42,0,0,1,3.35-1.62,8.42,8.42,0,0,1,3-.57,4.48,4.48,0,0,1,2.92.87,2.82,2.82,0,0,1,1.06,2.32,4.79,4.79,0,0,1-.76,2.65,21.65,21.65,0,0,1-2.29,2.86,21.94,21.94,0,0,0-3.32,4.27,10.46,10.46,0,0,0-1.19,5.21,4.78,4.78,0,0,0,1,3.19A3.35,3.35,0,0,0,37,46.11ZM37.14,62a6.17,6.17,0,0,0,4.61-1.86,6.63,6.63,0,0,0,0-9.15,6.17,6.17,0,0,0-4.61-1.86A6.09,6.09,0,0,0,32.6,51a6.63,6.63,0,0,0,0,9.15A6.09,6.09,0,0,0,37.14,62Z"/></svg>