<svg id="Layer_1" data-name="Layer 1" xmlns="http://www.w3.org/2000/svg" viewBox="0 0 122.3 122.3"><title>l7_3_1</title><rect x="39.53" width="35.11" height="35.11"/><rect x="1.29" y="38.23" width="35.11" height="35.11"/><rect x="39.53" y="38.23" width="35.11" height="35.11"/><path d="M22.93,0H36.41a0,0,0,0,1,0,0V35.11a0,0,0,0,1,0,0H1.29a0,0,0,0,1,0,0V21.64A21.64,21.64,0,0,1,22.93,0Z"/><path d="M77.76,0h35.11a0,0,0,0,1,0,0V35.11a0,0,0,0,1,0,0H99.4A21.64,21.64,0,0,1,77.76,13.47V0A0,0,0,0,1,77.76,0Z" transform="translate(190.63 35.11) rotate(-180)"/><path d="M99.4,76.46h13.47a0,0,0,0,1,0,0v35.11a0,0,0,0,1,0,0H77.76a0,0,0,0,1,0,0V98.1A21.64,21.64,0,0,1,99.4,76.46Z" transform="translate(190.63 188.04) rotate(-180)"/><path d="M1.29,76.46H36.41a0,0,0,0,1,0,0v35.11a0,0,0,0,1,0,0H22.93A21.64,21.64,0,0,1,1.29,89.94V76.46A0,0,0,0,1,1.29,76.46Z"/><path d="M52.15,86.1a6.45,6.45,0,0,1,9.14,0l13.35,16.58v14.76a4.43,4.43,0,0,1-1.47,2.78,4.32,4.32,0,0,1-2.25,1H42.67a3.77,3.77,0,0,1-2.18-1.12,3.91,3.91,0,0,1-1-3.19V103.29Zm9,18.84a5.45,5.45,0,0,0,2.7-2,5.64,5.64,0,0,0,1-3.28,5.92,5.92,0,0,0-1-3.47,6.66,6.66,0,0,0-3-2.31A11.17,11.17,0,0,0,56.34,93a13.59,13.59,0,0,0-4,.61,11.46,11.46,0,0,0-3.45,1.7,2.75,2.75,0,0,0-.82.92,2.63,2.63,0,0,0-.23,1.19,2.79,2.79,0,0,0,.57,1.78,1.78,1.78,0,0,0,1.43.74,2.26,2.26,0,0,0,.85-.16,10.66,10.66,0,0,0,1-.49L52.4,99a19.38,19.38,0,0,1,1.85-.82,5.2,5.2,0,0,1,1.78-.3,3,3,0,0,1,2.08.69,2.55,2.55,0,0,1,.75,2,1.91,1.91,0,0,1-.85,1.73,5.15,5.15,0,0,1-2.72.55h-1.5a2,2,0,0,0-1.6.71,2.78,2.78,0,0,0,0,3.4,1.94,1.94,0,0,0,1.6.71H55.9a5.18,5.18,0,0,1,2.79.58,2.16,2.16,0,0,1,.85,1.91,2.36,2.36,0,0,1-.84,2,4.67,4.67,0,0,1-2.73.61,6.26,6.26,0,0,1-2-.29,14.69,14.69,0,0,1-1.95-.83l-.43-.19-.32-.15c-.43-.23-.77-.39-1-.5a2.3,2.3,0,0,0-.85-.15,1.78,1.78,0,0,0-1.43.73,2.77,2.77,0,0,0-.58,1.79,2.66,2.66,0,0,0,.24,1.17,2.71,2.71,0,0,0,.82.94A10.84,10.84,0,0,0,52,117a15,15,0,0,0,4.25.6,12.64,12.64,0,0,0,4.81-.84,7.13,7.13,0,0,0,3.18-2.36,5.91,5.91,0,0,0,1.12-3.6,6.1,6.1,0,0,0-1.13-3.71A5.82,5.82,0,0,0,61.1,104.94Z"/><path d="M86.75,60.72a6.45,6.45,0,0,1,0-9.14l16.58-13.35h15a3.31,3.31,0,0,1,2.36.71,3.47,3.47,0,0,1,1.15,2.89V70a3.61,3.61,0,0,1-3.59,3.34H103.94Zm26.42-5.14a5.51,5.51,0,0,0,2.7-2.06,5.61,5.61,0,0,0,1-3.28,6,6,0,0,0-1-3.47,6.71,6.71,0,0,0-3-2.31,11.38,11.38,0,0,0-4.44-.81,13.59,13.59,0,0,0-4,.61,11.12,11.12,0,0,0-3.45,1.7,2.66,2.66,0,0,0-.82.92,2.6,2.6,0,0,0-.24,1.19,2.82,2.82,0,0,0,.58,1.78,1.75,1.75,0,0,0,1.43.73,2.26,2.26,0,0,0,.85-.15c.25-.1.59-.27,1-.49l.71-.34a17.23,17.23,0,0,1,1.86-.82,5.2,5.2,0,0,1,1.78-.31,3,3,0,0,1,2.08.7,2.59,2.59,0,0,1,.74,2,1.89,1.89,0,0,1-.85,1.73,5.21,5.21,0,0,1-2.72.54h-1.49a2,2,0,0,0-1.6.72,2.78,2.78,0,0,0,0,3.4,2,2,0,0,0,1.6.71H108a5,5,0,0,1,2.78.58,2.13,2.13,0,0,1,.85,1.9,2.33,2.33,0,0,1-.83,2,4.69,4.69,0,0,1-2.74.62,6.24,6.24,0,0,1-2-.29,15.54,15.54,0,0,1-2-.84l-.42-.18-.32-.16c-.43-.22-.77-.39-1-.49a2.3,2.3,0,0,0-.85-.15,1.74,1.74,0,0,0-1.43.73,2.76,2.76,0,0,0-.58,1.78,2.39,2.39,0,0,0,1,2.11,11,11,0,0,0,3.54,1.72,15.36,15.36,0,0,0,4.25.59,12.65,12.65,0,0,0,4.81-.83A7.13,7.13,0,0,0,116.33,65a5.92,5.92,0,0,0,1.12-3.61,6,6,0,0,0-1.14-3.7A5.79,5.79,0,0,0,113.17,55.58Z"/></svg>