<svg id="Layer_1" data-name="Layer 1" xmlns="http://www.w3.org/2000/svg" viewBox="0 0 122.3 122.3"><title>l7_3_1</title><rect x="39.47" width="35.11" height="35.11"/><rect x="1.23" y="38.23" width="35.11" height="35.11"/><rect x="39.47" y="38.23" width="35.11" height="35.11"/><path d="M22.87,0H36.35a0,0,0,0,1,0,0V35.11a0,0,0,0,1,0,0H1.23a0,0,0,0,1,0,0V21.64A21.64,21.64,0,0,1,22.87,0Z"/><path d="M77.7,0h35.11a0,0,0,0,1,0,0V35.11a0,0,0,0,1,0,0H99.34A21.64,21.64,0,0,1,77.7,13.47V0A0,0,0,0,1,77.7,0Z" transform="translate(190.51 35.11) rotate(-180)"/><path d="M99.34,76.46h13.47a0,0,0,0,1,0,0v35.11a0,0,0,0,1,0,0H77.7a0,0,0,0,1,0,0V98.1A21.64,21.64,0,0,1,99.34,76.46Z" transform="translate(190.51 188.04) rotate(-180)"/><path d="M1.23,76.46H36.35a0,0,0,0,1,0,0v35.11a0,0,0,0,1,0,0H22.87A21.64,21.64,0,0,1,1.23,89.94V76.46A0,0,0,0,1,1.23,76.46Z"/><path d="M52.09,86.1a6.45,6.45,0,0,1,9.14,0l13.35,16.58v14.76a4.49,4.49,0,0,1-1.47,2.78,4.31,4.31,0,0,1-2.26,1H42.61a3.77,3.77,0,0,1-2.18-1.12,4,4,0,0,1-1-3.19q0-6.81,0-13.61Zm9.8,19.84a5.13,5.13,0,0,0,2.67-2,6,6,0,0,0,1-3.4,5.63,5.63,0,0,0-2.37-4.78A10.56,10.56,0,0,0,56.72,94a10.61,10.61,0,0,0-6.43,1.75,5.64,5.64,0,0,0-2.38,4.78,5.73,5.73,0,0,0,1,3.31,5.55,5.55,0,0,0,2.72,2.09,5.68,5.68,0,0,0-3.2,2,5.94,5.94,0,0,0-1.12,3.72,5.87,5.87,0,0,0,2.53,5,11.69,11.69,0,0,0,6.92,1.82,11.69,11.69,0,0,0,6.92-1.82,5.87,5.87,0,0,0,2.53-5,5.58,5.58,0,0,0-4.28-5.75Zm-5.17,7.89q-3.7,0-3.71-2.65t3.71-2.65q3.7,0,3.71,2.65T56.72,113.83Zm0-15.09a3.61,3.61,0,0,1,2.28.59,2.31,2.31,0,0,1,.75,1.92,2.37,2.37,0,0,1-.75,1.94,4.57,4.57,0,0,1-4.56,0,2.37,2.37,0,0,1-.75-1.94,2.31,2.31,0,0,1,.75-1.92A3.61,3.61,0,0,1,56.72,98.74Z"/><path d="M86.69,60.72a6.45,6.45,0,0,1,0-9.14l16.58-13.35h15a3.31,3.31,0,0,1,2.36.71,3.47,3.47,0,0,1,1.15,2.89V70a3.61,3.61,0,0,1-3.6,3.34H103.88ZM115,54.58a5.2,5.2,0,0,0,2.67-2,5.93,5.93,0,0,0,1-3.4,5.6,5.6,0,0,0-2.36-4.77,10.57,10.57,0,0,0-6.44-1.76,10.62,10.62,0,0,0-6.43,1.76A5.62,5.62,0,0,0,101,49.17a5.83,5.83,0,0,0,1,3.32,5.64,5.64,0,0,0,2.72,2.09,5.67,5.67,0,0,0-3.19,2,6,6,0,0,0-1.12,3.73,5.85,5.85,0,0,0,2.53,5,11.6,11.6,0,0,0,6.92,1.82,11.62,11.62,0,0,0,6.92-1.82,5.85,5.85,0,0,0,2.53-5,6,6,0,0,0-1.1-3.66A5.92,5.92,0,0,0,115,54.58Zm-5.17,7.89q-3.71,0-3.71-2.66c0-1.76,1.24-2.65,3.71-2.65s3.7.89,3.7,2.65S112.26,62.47,109.79,62.47Zm0-15.1a3.61,3.61,0,0,1,2.28.6,2.31,2.31,0,0,1,.74,1.92,2.4,2.4,0,0,1-.74,1.94,4.57,4.57,0,0,1-4.56,0,2.37,2.37,0,0,1-.75-1.94,2.29,2.29,0,0,1,.75-1.92A3.61,3.61,0,0,1,109.79,47.37Z"/></svg>