<svg id="Layer_1" data-name="Layer 1" xmlns="http://www.w3.org/2000/svg" viewBox="0 0 172.3 122.3"><title>s7_1</title><path d="M47.64,16.94H75.41a0,0,0,0,1,0,0V66.35a0,0,0,0,1,0,0H26a0,0,0,0,1,0,0V38.58A21.64,21.64,0,0,1,47.64,16.94Z"/><path d="M102.54,71.84h27.77a0,0,0,0,1,0,0v49.41a0,0,0,0,1,0,0H80.9a0,0,0,0,1,0,0V93.48A21.64,21.64,0,0,1,102.54,71.84Z" transform="translate(211.21 193.09) rotate(-180)"/><path d="M26,71.84H75.41a0,0,0,0,1,0,0v49.41a0,0,0,0,1,0,0H47.64A21.64,21.64,0,0,1,26,99.61V71.84A0,0,0,0,1,26,71.84Z"/><path d="M111.42,1.05l24.06,13.89A21.64,21.64,0,0,1,143.4,44.5l-13.89,24L86.72,43.84Zm8.78,40.67a3.06,3.06,0,0,0,1.94-.64,2.82,2.82,0,0,0,1-1.8,4.9,4.9,0,0,1,1.19-2.14A24.07,24.07,0,0,1,127,34.67c1.23-1.09,2.24-2,3-2.81a10.51,10.51,0,0,0,2-2.81,8,8,0,0,0,.82-3.6,7.75,7.75,0,0,0-1.54-4.74,10.17,10.17,0,0,0-4.24-3.29,15,15,0,0,0-6.15-1.19,19.67,19.67,0,0,0-6.12,1,18.71,18.71,0,0,0-5.43,2.73,4.62,4.62,0,0,0-1.3,1.43,3.93,3.93,0,0,0-.4,1.85,4.27,4.27,0,0,0,.93,2.79,2.8,2.8,0,0,0,2.25,1.13,6.44,6.44,0,0,0,2.92-1l1.27-.64a19.51,19.51,0,0,1,2.68-1.3,6.77,6.77,0,0,1,2.41-.45,3.59,3.59,0,0,1,2.33.69,2.29,2.29,0,0,1,.85,1.86,3.94,3.94,0,0,1-.61,2.12,18.87,18.87,0,0,1-1.83,2.28,17.46,17.46,0,0,0-2.65,3.41,8.26,8.26,0,0,0-.95,4.16,3.82,3.82,0,0,0,.76,2.55A2.69,2.69,0,0,0,120.2,41.72Zm.11,12.67A4.94,4.94,0,0,0,124,52.9a5.31,5.31,0,0,0,0-7.31,4.94,4.94,0,0,0-3.68-1.49,4.88,4.88,0,0,0-3.63,1.49,5.31,5.31,0,0,0,0,7.31A4.88,4.88,0,0,0,120.31,54.39Z"/></svg>