<svg id="Layer_1" data-name="Layer 1" xmlns="http://www.w3.org/2000/svg" viewBox="0 0 172.3 122.3"><title>s7_1</title><path d="M47.69,9.47H79.49a0,0,0,0,1,0,0V62.92a0,0,0,0,1,0,0H26a0,0,0,0,1,0,0V31.11A21.64,21.64,0,0,1,47.69,9.47Z"/><path d="M107.07,68.86h31.81a0,0,0,0,1,0,0V122.3a0,0,0,0,1,0,0H85.43a0,0,0,0,1,0,0V90.49A21.64,21.64,0,0,1,107.07,68.86Z" transform="translate(224.3 191.16) rotate(-180)"/><path d="M26,68.86H79.49a0,0,0,0,1,0,0V122.3a0,0,0,0,1,0,0H47.69A21.64,21.64,0,0,1,26,100.66V68.86A0,0,0,0,1,26,68.86Z"/><path d="M88.3,39.63a11.2,11.2,0,0,1,0-15.88L117.11.57h26.11a5.75,5.75,0,0,1,4.1,1.23,6,6,0,0,1,2,5V55.76a6.29,6.29,0,0,1-6.24,5.81h-24.9ZM127,38.72a3.71,3.71,0,0,0,2.33-.77,3.39,3.39,0,0,0,1.25-2.17,6,6,0,0,1,1.44-2.6,30,30,0,0,1,3.23-3c1.5-1.32,2.71-2.45,3.65-3.39a12.8,12.8,0,0,0,2.4-3.4,9.59,9.59,0,0,0,1-4.35,9.5,9.5,0,0,0-1.85-5.73,12.47,12.47,0,0,0-5.12-4,18.24,18.24,0,0,0-7.43-1.44,24,24,0,0,0-7.39,1.18,22.83,22.83,0,0,0-6.56,3.3,5.51,5.51,0,0,0-1.57,1.72,4.73,4.73,0,0,0-.48,2.24A5.16,5.16,0,0,0,113,19.74a3.4,3.4,0,0,0,2.72,1.38,7.7,7.7,0,0,0,3.52-1.22l1.54-.76A21.83,21.83,0,0,1,124,17.57a8.24,8.24,0,0,1,2.91-.55,4.31,4.31,0,0,1,2.82.84,2.73,2.73,0,0,1,1,2.24,4.66,4.66,0,0,1-.73,2.56,21.83,21.83,0,0,1-2.21,2.75,20.8,20.8,0,0,0-3.2,4.13,10,10,0,0,0-1.15,5,4.63,4.63,0,0,0,.92,3.07A3.23,3.23,0,0,0,127,38.72Zm.12,15.3a6,6,0,0,0,4.45-1.8,6.21,6.21,0,0,0-4.45-10.62,5.9,5.9,0,0,0-4.38,1.79,6.42,6.42,0,0,0,0,8.83A5.87,5.87,0,0,0,127.11,54Z"/></svg>