<svg id="Layer_1" data-name="Layer 1" xmlns="http://www.w3.org/2000/svg" viewBox="0 0 172.3 122.3"><title>s7_1</title><path d="M107.82,6.55h35.11a0,0,0,0,1,0,0V41.66a0,0,0,0,1,0,0H129.46A21.64,21.64,0,0,1,107.82,20V6.55A0,0,0,0,1,107.82,6.55Z" transform="translate(250.76 48.2) rotate(-180)"/><path d="M129.46,83h13.47a0,0,0,0,1,0,0v35.11a0,0,0,0,1,0,0H107.82a0,0,0,0,1,0,0V104.65A21.64,21.64,0,0,1,129.46,83Z" transform="translate(250.76 201.13) rotate(-180)"/><path d="M31.36,83H66.47a0,0,0,0,1,0,0v35.11a0,0,0,0,1,0,0H53A21.64,21.64,0,0,1,31.36,96.48V83A0,0,0,0,1,31.36,83Z"/><path d="M104.7,6.55V79.89H31.36V28.19A21.64,21.64,0,0,1,53,6.55h51.7ZM67.12,53.09a4.47,4.47,0,0,0,2.8-.92,4.07,4.07,0,0,0,1.5-2.62,7.21,7.21,0,0,1,1.74-3.12A34.9,34.9,0,0,1,77,42.86q2.7-2.38,4.39-4.08a15.4,15.4,0,0,0,2.88-4.08,11.86,11.86,0,0,0-1-12.12,14.82,14.82,0,0,0-6.16-4.77,21.82,21.82,0,0,0-8.93-1.73A28.88,28.88,0,0,0,59.3,17.5a27.5,27.5,0,0,0-7.88,4,6.68,6.68,0,0,0-1.89,2.08A5.72,5.72,0,0,0,49,26.23a6.16,6.16,0,0,0,1.35,4,4.07,4.07,0,0,0,3.27,1.66,9.42,9.42,0,0,0,4.23-1.46l1.85-.93a27,27,0,0,1,3.89-1.88A9.74,9.74,0,0,1,67,27a5.26,5.26,0,0,1,3.38,1,3.31,3.31,0,0,1,1.24,2.7,5.62,5.62,0,0,1-.89,3.08,26,26,0,0,1-2.65,3.3,25,25,0,0,0-3.85,5,11.94,11.94,0,0,0-1.39,6A5.48,5.48,0,0,0,64,51.78,3.85,3.85,0,0,0,67.12,53.09Zm.15,18.39a7.47,7.47,0,1,0,0-14.93A7.07,7.07,0,0,0,62,58.71a7.71,7.71,0,0,0,0,10.62A7.09,7.09,0,0,0,67.27,71.48Z"/><rect x="69.59" y="83.01" width="35.11" height="35.11"/><rect x="107.82" y="44.77" width="35.11" height="35.11"/></svg>