<svg id="Layer_1" data-name="Layer 1" xmlns="http://www.w3.org/2000/svg" viewBox="0 0 100 100"><title>l24_5_1</title><path d="M83.58,100.27H16.51A16.46,16.46,0,0,1,.05,83.81V16.74A16.47,16.47,0,0,1,16.51.27H83.58a16.48,16.48,0,0,1,16.47,16.47V83.81A16.47,16.47,0,0,1,83.58,100.27ZM59.24,59H55.07V34.92a4.43,4.43,0,0,0-1.24-3.3,4.49,4.49,0,0,0-3.28-1.21,8.62,8.62,0,0,0-4.21,1.26L38.22,36.4a3.44,3.44,0,0,0-1.78,3.15,4.28,4.28,0,0,0,1,2.76,3.06,3.06,0,0,0,2.44,1.25,3.47,3.47,0,0,0,1.78-.51l4.06-2.39V59H41.62a5.08,5.08,0,0,0-3.35.92,3.41,3.41,0,0,0-1.07,2.74q0,3.76,4.42,3.76H59.24c2.94,0,4.42-1.25,4.42-3.76a3.41,3.41,0,0,0-1.07-2.74A5.08,5.08,0,0,0,59.24,59Z"/></svg>