<svg id="Layer_1" data-name="Layer 1" xmlns="http://www.w3.org/2000/svg" viewBox="0 0 100 100"><title>l24_5_1</title><path d="M83.58,100H16.51A16.46,16.46,0,0,1,.05,83.53V16.47A16.46,16.46,0,0,1,16.51,0H83.58a16.47,16.47,0,0,1,16.47,16.47V83.53A16.47,16.47,0,0,1,83.58,100ZM59.1,86.21H49.43l6.83-7a22.39,22.39,0,0,0,4-5.41,12.07,12.07,0,0,0,1.18-5.36,8.8,8.8,0,0,0-1.47-5,9.35,9.35,0,0,0-4.16-3.37,15.55,15.55,0,0,0-6.25-1.18,19.62,19.62,0,0,0-10.63,3.28,3.14,3.14,0,0,0-1.18,1.25,4.63,4.63,0,0,0,.51,4.3,2.44,2.44,0,0,0,2,1.08,2.75,2.75,0,0,0,.91-.14,6,6,0,0,0,1-.46l.74-.41,1-.48a25.17,25.17,0,0,1,2.71-1.18,7.93,7.93,0,0,1,2.58-.4,3.8,3.8,0,0,1,2.67.86,3.25,3.25,0,0,1,.93,2.5c0,1.86-1,3.9-3.17,6.11L39.42,85.82a5.27,5.27,0,0,0-1.63,3.75,3.59,3.59,0,0,0,1,2.63,3.63,3.63,0,0,0,2.74,1H59.1a4.81,4.81,0,0,0,3.15-.87,3.29,3.29,0,0,0,1-2.69,3.17,3.17,0,0,0-1-2.62A4.94,4.94,0,0,0,59.1,86.21Zm-.56-52H54.6V11.38a4.15,4.15,0,0,0-1.18-3.12,4.25,4.25,0,0,0-3.1-1.16,8.2,8.2,0,0,0-4,1.2l-7.69,4.48a3.27,3.27,0,0,0-1.69,3,4,4,0,0,0,1,2.62,2.88,2.88,0,0,0,2.31,1.18,3.31,3.31,0,0,0,1.68-.48l3.85-2.26V34.18h-3.9a4.78,4.78,0,0,0-3.17.87,3.21,3.21,0,0,0-1,2.6q0,3.56,4.18,3.56H58.54q4.18,0,4.19-3.56a3.25,3.25,0,0,0-1-2.6A4.81,4.81,0,0,0,58.54,34.18ZM70.81,49.65h0a3.12,3.12,0,0,0-3.12-3.12h-37a3.13,3.13,0,0,0-3.13,3.12h0a3.13,3.13,0,0,0,3.13,3.13h37A3.13,3.13,0,0,0,70.81,49.65Z"/></svg>