<svg id="Layer_1" data-name="Layer 1" xmlns="http://www.w3.org/2000/svg" viewBox="0 0 100 100"><title>l24_5_1</title><path d="M83.58,100H16.51A16.46,16.46,0,0,1,.05,83.53V16.47A16.46,16.46,0,0,1,16.51,0H83.58a16.47,16.47,0,0,1,16.47,16.47V83.53A16.47,16.47,0,0,1,83.58,100ZM60,86.21H50.28l6.83-7a22.74,22.74,0,0,0,4-5.41,12.2,12.2,0,0,0,1.17-5.36,8.87,8.87,0,0,0-1.46-5,9.46,9.46,0,0,0-4.16-3.37,15.6,15.6,0,0,0-6.26-1.18,18.66,18.66,0,0,0-5.55.87,19,19,0,0,0-5.08,2.4,3.23,3.23,0,0,0-1.18,1.26,4.06,4.06,0,0,0-.31,1.73,4.11,4.11,0,0,0,.82,2.57,2.45,2.45,0,0,0,2,1.08,3,3,0,0,0,.91-.14,6,6,0,0,0,1-.46l.74-.41,1-.48a25.17,25.17,0,0,1,2.71-1.18A7.93,7.93,0,0,1,50,65.71a3.8,3.8,0,0,1,2.67.87,3.25,3.25,0,0,1,.93,2.5c0,1.86-1,3.9-3.17,6.11L40.27,85.82a5.25,5.25,0,0,0-1.63,3.75,3.55,3.55,0,0,0,1,2.62,3.6,3.6,0,0,0,2.74,1H60a4.81,4.81,0,0,0,3.15-.87,3.29,3.29,0,0,0,1-2.69,3.17,3.17,0,0,0-1-2.62A4.94,4.94,0,0,0,60,86.21Zm-.56-52H55.45V11.38a4.14,4.14,0,0,0-1.18-3.12,4.23,4.23,0,0,0-3.1-1.16,8.13,8.13,0,0,0-4,1.2l-7.7,4.48a3.26,3.26,0,0,0-1.68,3,4,4,0,0,0,1,2.62,2.88,2.88,0,0,0,2.31,1.18,3.28,3.28,0,0,0,1.68-.48l3.85-2.26V34.18H42.7a4.78,4.78,0,0,0-3.17.87,3.21,3.21,0,0,0-1,2.6q0,3.56,4.18,3.56H59.39q4.19,0,4.19-3.56a3.25,3.25,0,0,0-1-2.6A4.8,4.8,0,0,0,59.39,34.18ZM71.67,49.65h0a3.13,3.13,0,0,0-3.13-3.12h-37a3.13,3.13,0,0,0-3.13,3.12h0a3.13,3.13,0,0,0,3.13,3.13h37A3.13,3.13,0,0,0,71.67,49.65Z"/></svg>