<svg id="Layer_1" data-name="Layer 1" xmlns="http://www.w3.org/2000/svg" viewBox="0 0 100 100"><title>l24_3_1</title><path d="M83.63,99.85H16.56A16.47,16.47,0,0,1,.09,83.38V16.32A16.47,16.47,0,0,1,16.56-.15H83.63a16.46,16.46,0,0,1,16.46,16.47V83.38A16.46,16.46,0,0,1,83.63,99.85ZM57.41,75.62a7.29,7.29,0,0,0,3.77-2.84A8.32,8.32,0,0,0,62.55,68a8,8,0,0,0-3.34-6.76q-3.35-2.48-9.12-2.48T41,61.21A7.94,7.94,0,0,0,37.64,68,8.18,8.18,0,0,0,39,72.66a8,8,0,0,0,3.85,3,8,8,0,0,0-4.52,2.86,8.45,8.45,0,0,0-1.59,5.27,8.33,8.33,0,0,0,3.58,7.14q3.59,2.56,9.79,2.57t9.79-2.57a8.31,8.31,0,0,0,3.59-7.14,8.44,8.44,0,0,0-1.57-5.18A8.33,8.33,0,0,0,57.41,75.62ZM50.09,86.78q-5.23,0-5.24-3.76t5.24-3.75q5.25,0,5.25,3.75T50.09,86.78Zm0-21.36a5.15,5.15,0,0,1,3.23.84A3.29,3.29,0,0,1,54.38,69a3.36,3.36,0,0,1-1.06,2.74,5,5,0,0,1-3.23.87,5,5,0,0,1-3.22-.87A3.36,3.36,0,0,1,45.81,69a3.29,3.29,0,0,1,1.06-2.72A5.14,5.14,0,0,1,50.09,65.42ZM58.8,34H54.86V11.23A4.22,4.22,0,0,0,53.68,8.1,4.24,4.24,0,0,0,50.58,7a8.14,8.14,0,0,0-4,1.2l-7.69,4.47a3.27,3.27,0,0,0-1.69,3,4.06,4.06,0,0,0,1,2.62,2.91,2.91,0,0,0,2.31,1.18,3.31,3.31,0,0,0,1.69-.48L46,16.67V34h-3.9a4.83,4.83,0,0,0-3.18.87,3.22,3.22,0,0,0-1,2.59c0,2.38,1.4,3.56,4.19,3.56H58.8c2.79,0,4.19-1.18,4.19-3.56a3.22,3.22,0,0,0-1-2.59A4.83,4.83,0,0,0,58.8,34ZM71.71,49.5h0a3.13,3.13,0,0,0-3.13-3.13h-37a3.13,3.13,0,0,0-3.12,3.13h0a3.13,3.13,0,0,0,3.12,3.13h37A3.13,3.13,0,0,0,71.71,49.5Z"/></svg>