<svg id="Layer_1" data-name="Layer 1" xmlns="http://www.w3.org/2000/svg" viewBox="0 0 100 100"><title>l24_1_1</title><path d="M83.66,100H16.59A16.46,16.46,0,0,1,.13,83.53V16.47A16.46,16.46,0,0,1,16.59,0H83.66a16.47,16.47,0,0,1,16.47,16.47V83.53A16.47,16.47,0,0,1,83.66,100ZM48.91,31a13.06,13.06,0,0,0-6.45,1.58A11.23,11.23,0,0,0,38,36.93a12.64,12.64,0,0,0-1.6,6.37,12.78,12.78,0,0,0,1.39,6,10.43,10.43,0,0,0,3.84,4.16A10.23,10.23,0,0,0,47.13,55,9.7,9.7,0,0,0,51.42,54a8,8,0,0,0,3.12-2.56,13.4,13.4,0,0,1-1.9,6.62,4.85,4.85,0,0,1-4.19,2.36,6.85,6.85,0,0,1-2.34-.4c-.74-.27-1.67-.68-2.79-1.22l-1.12-.56c-.64-.34-1.15-.58-1.52-.73a3.16,3.16,0,0,0-1.27-.23,2.69,2.69,0,0,0-2.16,1.09,4.09,4.09,0,0,0-.89,2.66,3.66,3.66,0,0,0,.39,1.78A4.22,4.22,0,0,0,38,64.22a16,16,0,0,0,5.1,2.54,19.72,19.72,0,0,0,5.82.92,13.76,13.76,0,0,0,7.89-2.29A14.76,14.76,0,0,0,62,58.87a24.57,24.57,0,0,0,1.86-9.93q0-8.64-3.91-13.31T48.91,31Zm.56,16.81a4,4,0,0,1-3.18-1.3A5.12,5.12,0,0,1,45.15,43a5.1,5.1,0,0,1,1.17-3.51,4,4,0,0,1,3.15-1.32,4,4,0,0,1,3.14,1.35A4.94,4.94,0,0,1,53.83,43a5.05,5.05,0,0,1-1.19,3.5A4.07,4.07,0,0,1,49.47,47.77Z"/></svg>