<svg id="Layer_1" data-name="Layer 1" xmlns="http://www.w3.org/2000/svg" viewBox="0 0 100 100"><title>l24_5_1</title><path d="M83.58,100H16.51A16.46,16.46,0,0,1,.05,83.53V16.47A16.46,16.46,0,0,1,16.51,0H83.58a16.47,16.47,0,0,1,16.47,16.47V83.53A16.47,16.47,0,0,1,83.58,100ZM52,71.06a11.94,11.94,0,0,0-4.76.86V66H57.65q4.18,0,4.18-3.36c0-2.22-1.39-3.32-4.18-3.32H42.74a4.07,4.07,0,0,0-3,1.06,4.13,4.13,0,0,0-1.06,3.07v13a2.62,2.62,0,0,0,.91,2.09,3.32,3.32,0,0,0,2.26.8A4.67,4.67,0,0,0,44,78.85,16.64,16.64,0,0,1,46.75,78a13.2,13.2,0,0,1,2.62-.24,5.46,5.46,0,0,1,3.76,1.2,4.32,4.32,0,0,1,1.34,3.37,4.15,4.15,0,0,1-1.3,3.39,6.13,6.13,0,0,1-4,1.08,8,8,0,0,1-2.67-.43,27.63,27.63,0,0,1-2.72-1.15l-1-.48A13.91,13.91,0,0,0,41.39,84a3.43,3.43,0,0,0-1.2-.19,2.47,2.47,0,0,0-2,1,3.91,3.91,0,0,0-.82,2.52A3.57,3.57,0,0,0,37.71,89a4.16,4.16,0,0,0,1.13,1.32,15.85,15.85,0,0,0,4.93,2.41,20,20,0,0,0,5.84.86,15.64,15.64,0,0,0,6.88-1.44,10.77,10.77,0,0,0,4.62-4.09A11.38,11.38,0,0,0,62.75,82a11.67,11.67,0,0,0-1.37-5.7,9.81,9.81,0,0,0-3.8-3.84A11.07,11.07,0,0,0,52,71.06Zm6.73-36.88H54.81V11.38a4.15,4.15,0,0,0-1.18-3.12,4.23,4.23,0,0,0-3.1-1.16,8.13,8.13,0,0,0-4,1.2l-7.7,4.48a3.27,3.27,0,0,0-1.68,3,4,4,0,0,0,1,2.62,2.88,2.88,0,0,0,2.31,1.18,3.31,3.31,0,0,0,1.68-.48L46,16.82V34.18h-3.9a4.78,4.78,0,0,0-3.17.87,3.21,3.21,0,0,0-1,2.6q0,3.56,4.18,3.56H58.75q4.19,0,4.19-3.56a3.25,3.25,0,0,0-1-2.6A4.8,4.8,0,0,0,58.75,34.18ZM71.67,49.65h0a3.13,3.13,0,0,0-3.13-3.12h-37a3.13,3.13,0,0,0-3.13,3.12h0a3.13,3.13,0,0,0,3.13,3.13h37A3.13,3.13,0,0,0,71.67,49.65Z"/></svg>