<svg id="Layer_1" data-name="Layer 1" xmlns="http://www.w3.org/2000/svg" viewBox="0 0 100 100"><title>l24_3_1</title><path d="M83.57,99.85H16.51A16.47,16.47,0,0,1,0,83.38V16.32A16.47,16.47,0,0,1,16.51-.15H83.57A16.47,16.47,0,0,1,100,16.32V83.38A16.47,16.47,0,0,1,83.57,99.85ZM52.88,70.76a9.33,9.33,0,0,0-4.07.89,7.53,7.53,0,0,0-3,2.43,12.75,12.75,0,0,1,1.8-6.28,4.61,4.61,0,0,1,4-2.24,6.31,6.31,0,0,1,2.21.39,27.73,27.73,0,0,1,2.65,1.15l1.06.53c.6.32,1.09.55,1.44.7a3.21,3.21,0,0,0,1.2.22,2.58,2.58,0,0,0,2.05-1A3.87,3.87,0,0,0,63.08,65a3.55,3.55,0,0,0-.36-1.69A4.26,4.26,0,0,0,61.54,62a15.55,15.55,0,0,0-4.84-2.4,18.54,18.54,0,0,0-5.5-.87,13,13,0,0,0-7.48,2.17,13.93,13.93,0,0,0-5,6.18A23.33,23.33,0,0,0,37,76.48q0,8.17,3.7,12.61T51.2,93.51A12.48,12.48,0,0,0,57.31,92a10.7,10.7,0,0,0,4.2-4.16,12,12,0,0,0,1.52-6,12.16,12.16,0,0,0-1.32-5.7,10,10,0,0,0-3.64-3.94A9.66,9.66,0,0,0,52.88,70.76Zm-2.21,16a3.86,3.86,0,0,1-3-1.28,5.36,5.36,0,0,1,0-6.61,3.87,3.87,0,0,1,3-1.25,3.78,3.78,0,0,1,3,1.23,5.59,5.59,0,0,1,0,6.66A3.79,3.79,0,0,1,50.67,86.73ZM58.75,34h-4V11.23A4.21,4.21,0,0,0,53.63,8.1,4.25,4.25,0,0,0,50.52,7a8.13,8.13,0,0,0-4,1.2l-7.7,4.48a3.26,3.26,0,0,0-1.68,3,4.06,4.06,0,0,0,1,2.62,2.88,2.88,0,0,0,2.31,1.18,3.31,3.31,0,0,0,1.69-.48L46,16.67V34H42.06a4.81,4.81,0,0,0-3.18.87,3.22,3.22,0,0,0-1,2.59c0,2.38,1.4,3.56,4.19,3.56H58.75c2.79,0,4.18-1.18,4.18-3.56a3.19,3.19,0,0,0-1-2.59A4.78,4.78,0,0,0,58.75,34ZM71.66,49.5h0a3.13,3.13,0,0,0-3.13-3.13h-37a3.13,3.13,0,0,0-3.13,3.13h0a3.13,3.13,0,0,0,3.13,3.13h37A3.13,3.13,0,0,0,71.66,49.5Z"/></svg>