<svg id="Layer_1" data-name="Layer 1" xmlns="http://www.w3.org/2000/svg" viewBox="0 0 100 100"><title>l24_1_1</title><path d="M83.53,100H16.47A16.47,16.47,0,0,1,0,83.53V16.47A16.47,16.47,0,0,1,16.47,0H83.53A16.47,16.47,0,0,1,100,16.47V83.53A16.47,16.47,0,0,1,83.53,100ZM44.72,58.62H40.56V34.55A4.25,4.25,0,0,0,36,30a8.57,8.57,0,0,0-4.22,1.27L23.7,36a3.44,3.44,0,0,0-1.78,3.15,4.28,4.28,0,0,0,1,2.77,3,3,0,0,0,2.43,1.24,3.47,3.47,0,0,0,1.78-.51l4.06-2.38V58.62H27.1a5.08,5.08,0,0,0-3.35.91,3.41,3.41,0,0,0-1.07,2.74Q22.68,66,27.1,66H44.72c2.94,0,4.42-1.25,4.42-3.76a3.41,3.41,0,0,0-1.07-2.74A5.08,5.08,0,0,0,44.72,58.62Zm19.7,7.87q6.66,0,10.16-4.73t3.5-13.65q0-8.89-3.53-13.61T64.42,29.77q-6.64,0-10.15,4.73T50.76,48.11q0,8.94,3.51,13.65T64.42,66.49Zm0-7.06a3.64,3.64,0,0,1-3.5-2.64q-1.06-2.64-1.07-8.68t1.07-8.66a3.64,3.64,0,0,1,7,0c.72,1.76,1.07,4.64,1.07,8.64s-.35,6.92-1.07,8.68A3.63,3.63,0,0,1,64.42,59.43Z"/></svg>