<svg id="Layer_1" data-name="Layer 1" xmlns="http://www.w3.org/2000/svg" viewBox="0 0 100 100"><title>l24_4_1</title><path d="M83.22,100H16.16A16.47,16.47,0,0,1-.31,83.53V16.47A16.47,16.47,0,0,1,16.16,0H83.22A16.47,16.47,0,0,1,99.69,16.47V83.53A16.47,16.47,0,0,1,83.22,100ZM43.75,59.8H33.54l7.21-7.36A23.72,23.72,0,0,0,45,46.73a12.8,12.8,0,0,0,1.25-5.66,9.33,9.33,0,0,0-1.55-5.31,10,10,0,0,0-4.39-3.55A16.37,16.37,0,0,0,33.69,31a20.85,20.85,0,0,0-11.22,3.45,3.35,3.35,0,0,0-1.24,1.33,4.9,4.9,0,0,0,.53,4.54,2.6,2.6,0,0,0,2.13,1.14,3.12,3.12,0,0,0,1-.15,6.11,6.11,0,0,0,1-.48c.39-.22.65-.37.79-.43l1-.51a25.12,25.12,0,0,1,2.87-1.25,8.43,8.43,0,0,1,2.72-.43,4,4,0,0,1,2.82.92,3.42,3.42,0,0,1,1,2.64q0,2.94-3.36,6.45L23,59.4a5.55,5.55,0,0,0-1.73,4,3.81,3.81,0,0,0,1.07,2.77,3.89,3.89,0,0,0,2.89,1.09H43.75a5.06,5.06,0,0,0,3.32-.92,3.49,3.49,0,0,0,1.1-2.84,3.38,3.38,0,0,0-1.1-2.77A5.18,5.18,0,0,0,43.75,59.8Zm21.07,7.87Q71.48,67.67,75,63t3.5-13.66q0-8.88-3.53-13.61T64.82,31q-6.64,0-10.15,4.72T51.16,49.29q0,8.94,3.51,13.66T64.82,67.67Zm0-7.05A3.64,3.64,0,0,1,61.32,58q-1.07-2.64-1.07-8.69t1.07-8.65a3.64,3.64,0,0,1,7,0c.72,1.76,1.07,4.64,1.07,8.63S69,56.22,68.32,58A3.63,3.63,0,0,1,64.82,60.62Z"/></svg>