<svg id="Layer_1" data-name="Layer 1" xmlns="http://www.w3.org/2000/svg" viewBox="0 0 100 100"><title>l24_4_1</title><path d="M83.22,100H16.16A16.47,16.47,0,0,1-.31,83.53V16.47A16.47,16.47,0,0,1,16.16,0H83.22A16.47,16.47,0,0,1,99.69,16.47V83.53A16.47,16.47,0,0,1,83.22,100ZM30.6,54.06H29.48V35.73a4.33,4.33,0,0,0-1.37-3.4,4.83,4.83,0,0,0-3.3-1.22,5,5,0,0,0-2.26.54,4.72,4.72,0,0,0-1.81,1.54L6.22,53.91a5.72,5.72,0,0,0-1.11,3.35,3.91,3.91,0,0,0,1.06,2.8,3.83,3.83,0,0,0,2.9,1.11H20.39V62.9a4.51,4.51,0,0,0,1.24,3.45,4.59,4.59,0,0,0,3.28,1.17,4.69,4.69,0,0,0,3.3-1.17,4.48,4.48,0,0,0,1.27-3.45V61.17H30.6q4.41,0,4.41-3.6T30.6,54.06Zm-16.3,0,6.09-8.78v8.78ZM50.14,67.67q6.66,0,10.16-4.72t3.5-13.66q0-8.88-3.52-13.61C57.92,32.53,54.55,31,50.14,31S42.33,32.53,40,35.68s-3.5,7.69-3.5,13.61S37.65,59.8,40,63,45.71,67.67,50.14,67.67Zm0-7.06A3.64,3.64,0,0,1,46.64,58c-.71-1.75-1.07-4.65-1.07-8.68s.36-6.91,1.07-8.66a3.65,3.65,0,0,1,7,0q1.07,2.64,1.07,8.63c0,4-.36,6.93-1.07,8.68A3.64,3.64,0,0,1,50.14,60.61Zm30.47,7.06q6.66,0,10.16-4.72t3.5-13.66q0-8.88-3.53-13.61T80.61,31Q74,31,70.46,35.68T67,49.29Q67,58.23,70.46,63T80.61,67.67Zm0-7.06A3.64,3.64,0,0,1,77.11,58C76.4,56.22,76,53.32,76,49.29s.36-6.91,1.07-8.66a3.65,3.65,0,0,1,7,0q1.06,2.64,1.06,8.63c0,4-.35,6.93-1.06,8.68A3.65,3.65,0,0,1,80.61,60.61Z"/></svg>