<svg id="Layer_1" data-name="Layer 1" xmlns="http://www.w3.org/2000/svg" viewBox="0 0 100 100"><title>l24_5_1</title><path d="M83.73,100H16.67A16.47,16.47,0,0,1,.2,83.53V16.47A16.47,16.47,0,0,1,16.67,0H83.73A16.47,16.47,0,0,1,100.2,16.47V83.53A16.47,16.47,0,0,1,83.73,100ZM26.57,67.67q6.56,0,10-4.65T40,49.57q0-8.74-3.47-13.4t-10-4.65q-6.54,0-10,4.65t-3.45,13.4q0,8.79,3.45,13.45T26.57,67.67Zm0-7a3.59,3.59,0,0,1-3.45-2.6c-.7-1.74-1.05-4.58-1.05-8.55s.35-6.81,1.05-8.53a3.59,3.59,0,0,1,6.9,0q1.05,2.59,1.05,8.5c0,4-.35,6.81-1.05,8.55A3.59,3.59,0,0,1,26.57,60.72Zm21.8,6.8a4.63,4.63,0,0,0,3.43-1.4,5,5,0,0,0,0-6.9,5,5,0,0,0-6.9,0,4.85,4.85,0,0,0,3.47,8.3ZM72.62,44.17a12.5,12.5,0,0,0-5,.9V38.92h10.8q4.35,0,4.35-3.5T78.47,32H63a4.3,4.3,0,0,0-3.15,1.1,4.34,4.34,0,0,0-1.1,3.2V49.82a2.74,2.74,0,0,0,1,2.17,3.48,3.48,0,0,0,2.35.83,4.86,4.86,0,0,0,2.25-.55,18.33,18.33,0,0,1,2.88-.9,13.33,13.33,0,0,1,2.72-.25,5.66,5.66,0,0,1,3.9,1.25,4.42,4.42,0,0,1,1.4,3.5,4.32,4.32,0,0,1-1.35,3.52,6.39,6.39,0,0,1-4.15,1.13,8.25,8.25,0,0,1-2.77-.45,28.56,28.56,0,0,1-2.83-1.2l-1-.5a12.71,12.71,0,0,0-1.5-.75,3.44,3.44,0,0,0-1.25-.2,2.61,2.61,0,0,0-2.1,1.07,4.17,4.17,0,0,0-.85,2.63,3.67,3.67,0,0,0,.38,1.72,4.36,4.36,0,0,0,1.17,1.38,16.57,16.57,0,0,0,5.13,2.5,20.85,20.85,0,0,0,6.07.9,16.21,16.21,0,0,0,7.15-1.5,11.24,11.24,0,0,0,4.8-4.25,11.76,11.76,0,0,0,1.7-6.35,12.07,12.07,0,0,0-1.42-5.93,10.2,10.2,0,0,0-3.95-4A11.57,11.57,0,0,0,72.62,44.17Z"/></svg>