<svg id="Layer_1" data-name="Layer 1" xmlns="http://www.w3.org/2000/svg" viewBox="0 0 100 100"><title>l24_4_1</title><path d="M83.22,100H16.16A16.47,16.47,0,0,1-.31,83.53V16.47A16.47,16.47,0,0,1,16.16,0H83.22A16.47,16.47,0,0,1,99.69,16.47V83.53A16.47,16.47,0,0,1,83.22,100ZM51.77,43.81a12.73,12.73,0,0,0-5,.91V38.48h11q4.42,0,4.42-3.56t-4.42-3.5H42a4.32,4.32,0,0,0-3.2,1.12,4.4,4.4,0,0,0-1.12,3.25V49.55a2.81,2.81,0,0,0,1,2.21,3.55,3.55,0,0,0,2.39.83A4.86,4.86,0,0,0,43.29,52a18.23,18.23,0,0,1,2.92-.92A13.84,13.84,0,0,1,49,50.87a5.73,5.73,0,0,1,4,1.27,4.5,4.5,0,0,1,1.42,3.55A4.4,4.4,0,0,1,53,59.27a6.51,6.51,0,0,1-4.22,1.14A8.49,8.49,0,0,1,46,60a28.45,28.45,0,0,1-2.87-1.22l-1-.51a14.88,14.88,0,0,0-1.52-.76,3.35,3.35,0,0,0-1.27-.2,2.6,2.6,0,0,0-2.13,1.09A4.11,4.11,0,0,0,36.28,61a3.8,3.8,0,0,0,.38,1.75,4.54,4.54,0,0,0,1.2,1.4,16.81,16.81,0,0,0,5.2,2.54,21.19,21.19,0,0,0,6.17.91,16.42,16.42,0,0,0,7.26-1.52,11.42,11.42,0,0,0,4.88-4.32,12,12,0,0,0,1.72-6.44,12.27,12.27,0,0,0-1.44-6,10.3,10.3,0,0,0-4-4.06A11.69,11.69,0,0,0,51.77,43.81Z"/></svg>