<svg id="Layer_1" data-name="Layer 1" xmlns="http://www.w3.org/2000/svg" viewBox="0 0 100 100"><title>l24_1_1</title><path d="M83.39,100.34H16.33A16.47,16.47,0,0,1-.14,83.87V16.8A16.46,16.46,0,0,1,16.33.34H83.39A16.46,16.46,0,0,1,99.86,16.8V83.87A16.47,16.47,0,0,1,83.39,100.34Zm-56-51.22a7.66,7.66,0,0,0,4-3,8.89,8.89,0,0,0,1.44-5.08,8.41,8.41,0,0,0-3.53-7.14q-3.52-2.61-9.62-2.61T10,33.91a8.39,8.39,0,0,0-3.56,7.14,8.64,8.64,0,0,0,1.42,5A8.33,8.33,0,0,0,12,49.12a8.47,8.47,0,0,0-4.78,3A8.94,8.94,0,0,0,5.51,57.7a8.76,8.76,0,0,0,3.78,7.54Q13.07,68,19.62,68T30,65.24a8.76,8.76,0,0,0,3.78-7.54,8.9,8.9,0,0,0-1.65-5.46A8.86,8.86,0,0,0,27.34,49.12ZM19.62,60.9q-5.54,0-5.53-4t5.53-4q5.53,0,5.54,4T19.62,60.9Zm0-22.54a5.36,5.36,0,0,1,3.4.89,3.42,3.42,0,0,1,1.12,2.87A3.5,3.5,0,0,1,23,45a5.29,5.29,0,0,1-3.4.91,5.29,5.29,0,0,1-3.4-.91,3.5,3.5,0,0,1-1.12-2.89,3.42,3.42,0,0,1,1.12-2.87A5.36,5.36,0,0,1,19.62,38.36ZM50.09,68q6.64,0,10.15-4.72t3.51-13.66q0-8.88-3.53-13.61T50.09,31.3q-6.66,0-10.16,4.72t-3.5,13.61q0,8.94,3.5,13.66T50.09,68Zm0-7.06a3.64,3.64,0,0,1-3.51-2.64q-1.06-2.64-1.06-8.68c0-4,.35-6.91,1.06-8.66a3.65,3.65,0,0,1,7,0q1.06,2.64,1.07,8.63t-1.07,8.68A3.64,3.64,0,0,1,50.09,61ZM80.55,68q6.66,0,10.16-4.72t3.5-13.66q0-8.88-3.52-13.61C88.33,32.87,85,31.3,80.55,31.3S72.74,32.87,70.4,36s-3.5,7.69-3.5,13.61,1.16,10.51,3.5,13.66S76.12,68,80.55,68Zm0-7.06a3.64,3.64,0,0,1-3.5-2.64Q76,55.67,76,49.63c0-4,.36-6.91,1.07-8.66a3.65,3.65,0,0,1,7,0q1.06,2.64,1.06,8.63t-1.06,8.68A3.64,3.64,0,0,1,80.55,61Z"/></svg>