<svg id="Layer_1" data-name="Layer 1" xmlns="http://www.w3.org/2000/svg" viewBox="0 0 100 100"><title>l24_2_1</title><path d="M83.69,100H16.63A16.47,16.47,0,0,1,.16,83.53V16.47A16.47,16.47,0,0,1,16.63,0H83.69a16.47,16.47,0,0,1,16.47,16.47V83.53A16.47,16.47,0,0,1,83.69,100ZM18.5,31a13.09,13.09,0,0,0-6.45,1.58,11.23,11.23,0,0,0-4.44,4.39A12.64,12.64,0,0,0,6,43.3a12.78,12.78,0,0,0,1.39,6,10.43,10.43,0,0,0,3.84,4.16A10.23,10.23,0,0,0,16.72,55,9.7,9.7,0,0,0,21,54a8,8,0,0,0,3.13-2.56,13.5,13.5,0,0,1-1.91,6.62A4.84,4.84,0,0,1,18,60.46a6.75,6.75,0,0,1-2.33-.4c-.75-.27-1.68-.68-2.8-1.22l-1.11-.56c-.65-.34-1.15-.58-1.53-.73A3.16,3.16,0,0,0,9,57.32a2.68,2.68,0,0,0-2.15,1.09A4,4,0,0,0,6,61.07a3.67,3.67,0,0,0,.38,1.78,4.34,4.34,0,0,0,1.24,1.37,16.14,16.14,0,0,0,5.1,2.54,19.77,19.77,0,0,0,5.82.92,13.82,13.82,0,0,0,7.9-2.29,14.83,14.83,0,0,0,5.23-6.52,24.75,24.75,0,0,0,1.85-9.93q0-8.64-3.91-13.31T18.5,31Zm.56,16.81a4,4,0,0,1-3.18-1.3A5.12,5.12,0,0,1,14.74,43a5.1,5.1,0,0,1,1.17-3.51,4,4,0,0,1,3.15-1.32,4.07,4.07,0,0,1,3.15,1.35A5,5,0,0,1,23.42,43a5,5,0,0,1-1.19,3.5A4.05,4.05,0,0,1,19.06,47.77ZM50.24,67.68q6.65,0,10.15-4.73t3.5-13.66q0-8.88-3.52-13.61T50.24,31q-6.66,0-10.16,4.72t-3.5,13.61q0,8.94,3.5,13.66T50.24,67.68Zm0-7.06A3.64,3.64,0,0,1,46.73,58q-1.06-2.64-1.06-8.69t1.06-8.65a3.65,3.65,0,0,1,7,0q1.07,2.64,1.07,8.63T53.74,58A3.64,3.64,0,0,1,50.24,60.62ZM80.7,67.68q6.66,0,10.16-4.73t3.5-13.66q0-8.88-3.53-13.61T80.7,31q-6.65,0-10.15,4.72T67,49.29Q67,58.23,70.55,63T80.7,67.68Zm0-7.06A3.64,3.64,0,0,1,77.2,58q-1.07-2.64-1.07-8.69t1.07-8.65a3.65,3.65,0,0,1,7,0q1.07,2.64,1.06,8.63T84.21,58A3.65,3.65,0,0,1,80.7,60.62Z"/></svg>