<svg id="Layer_1" data-name="Layer 1" xmlns="http://www.w3.org/2000/svg" viewBox="0 0 100 100"><title>l24_1_1</title><path d="M83.64,100H16.58A16.47,16.47,0,0,1,.11,83.53V16.47A16.47,16.47,0,0,1,16.58,0H83.64a16.47,16.47,0,0,1,16.47,16.47V83.53A16.47,16.47,0,0,1,83.64,100ZM33.69,31a13.06,13.06,0,0,0-6.45,1.58,11.32,11.32,0,0,0-4.45,4.39,13.56,13.56,0,0,0-.2,12.39,10.48,10.48,0,0,0,3.83,4.16A10.29,10.29,0,0,0,31.91,55,9.73,9.73,0,0,0,36.2,54a8,8,0,0,0,3.12-2.56,13.51,13.51,0,0,1-1.9,6.62,4.85,4.85,0,0,1-4.19,2.36,6.85,6.85,0,0,1-2.34-.4c-.74-.27-1.67-.68-2.79-1.22L27,58.28c-.64-.34-1.15-.58-1.52-.73a3.2,3.2,0,0,0-1.27-.23A2.68,2.68,0,0,0,22,58.41a4.09,4.09,0,0,0-.89,2.66,3.78,3.78,0,0,0,.38,1.78,4.38,4.38,0,0,0,1.25,1.37,16,16,0,0,0,5.1,2.54,19.72,19.72,0,0,0,5.82.92,13.76,13.76,0,0,0,7.89-2.29,14.76,14.76,0,0,0,5.23-6.52,24.57,24.57,0,0,0,1.86-9.93q0-8.64-3.91-13.31T33.69,31Zm.55,16.81a4,4,0,0,1-3.17-1.3A5.12,5.12,0,0,1,29.93,43a5.1,5.1,0,0,1,1.17-3.51,4,4,0,0,1,3.14-1.32,4,4,0,0,1,3.15,1.35A4.94,4.94,0,0,1,38.61,43a5.05,5.05,0,0,1-1.19,3.5A4.09,4.09,0,0,1,34.24,47.77ZM65.42,67.68q6.66,0,10.16-4.73t3.5-13.66q0-8.88-3.53-13.61T65.42,31q-6.64,0-10.15,4.72T51.76,49.29q0,8.94,3.51,13.66T65.42,67.68Zm0-7.06A3.64,3.64,0,0,1,61.92,58q-1.06-2.64-1.07-8.69t1.07-8.65a3.65,3.65,0,0,1,7,0Q70,43.3,70,49.29T68.93,58A3.65,3.65,0,0,1,65.42,60.62Z"/></svg>