<svg id="Layer_1" data-name="Layer 1" xmlns="http://www.w3.org/2000/svg" viewBox="0 0 100 100"><title>l24_1_1</title><path d="M83.53,100H16.47A16.47,16.47,0,0,1,0,83.53V16.47A16.47,16.47,0,0,1,16.47,0H83.53A16.47,16.47,0,0,1,100,16.47V83.53A16.47,16.47,0,0,1,83.53,100ZM57.72,48.79a7.67,7.67,0,0,0,4-3,8.78,8.78,0,0,0,1.45-5.08,8.4,8.4,0,0,0-3.53-7.13Q56.1,31,50,31t-9.6,2.62a8.37,8.37,0,0,0-3.55,7.13,8.6,8.6,0,0,0,1.42,4.95,8.36,8.36,0,0,0,4.06,3.13,8.42,8.42,0,0,0-4.77,3,8.9,8.9,0,0,0-1.68,5.56,8.76,8.76,0,0,0,3.79,7.54Q43.45,67.63,50,67.62t10.33-2.71a8.78,8.78,0,0,0,3.79-7.54,8.35,8.35,0,0,0-6.4-8.58ZM50,60.57q-5.53,0-5.54-4t5.54-4q5.53,0,5.54,4T50,60.57ZM50,38a5.42,5.42,0,0,1,3.4.89,3.43,3.43,0,0,1,1.12,2.87,3.5,3.5,0,0,1-1.12,2.89,5.29,5.29,0,0,1-3.4.92,5.29,5.29,0,0,1-3.4-.92,3.5,3.5,0,0,1-1.12-2.89,3.43,3.43,0,0,1,1.12-2.87A5.42,5.42,0,0,1,50,38Z"/></svg>