<svg id="Layer_1" data-name="Layer 1" xmlns="http://www.w3.org/2000/svg" viewBox="0 0 100 100"><title>l24_4_1</title><path d="M83.22,100H16.16A16.47,16.47,0,0,1-.31,83.53V16.47A16.47,16.47,0,0,1,16.16,0H83.22A16.47,16.47,0,0,1,99.69,16.47V83.53A16.47,16.47,0,0,1,83.22,100ZM25.82,48.79a8.23,8.23,0,0,0,4-3.08,8.38,8.38,0,0,0,1.45-4.9,8.9,8.9,0,0,0-1.55-5.18,9.92,9.92,0,0,0-4.42-3.45A16.86,16.86,0,0,0,18.71,31a20.3,20.3,0,0,0-6,.92,16.8,16.8,0,0,0-5.16,2.54,4,4,0,0,0-1.21,1.37A3.87,3.87,0,0,0,6,37.56a4.21,4.21,0,0,0,.86,2.67A2.63,2.63,0,0,0,9,41.32a3.23,3.23,0,0,0,1.27-.23c.37-.15.87-.39,1.52-.73l1.06-.51a26.33,26.33,0,0,1,2.77-1.22,7.8,7.8,0,0,1,2.67-.46,4.36,4.36,0,0,1,3.09,1,3.79,3.79,0,0,1,1.12,2.92,2.83,2.83,0,0,1-1.27,2.59,7.76,7.76,0,0,1-4.06.82H14.91a2.91,2.91,0,0,0-2.39,1.06,4.18,4.18,0,0,0,0,5.08,2.91,2.91,0,0,0,2.39,1.07h3.14a7.63,7.63,0,0,1,4.17.86,3.2,3.2,0,0,1,1.27,2.84,3.53,3.53,0,0,1-1.25,3,7,7,0,0,1-4.08.91A9.1,9.1,0,0,1,15.24,60a22.58,22.58,0,0,1-2.92-1.24l-.64-.28-.48-.23c-.64-.34-1.15-.58-1.52-.74a3.42,3.42,0,0,0-1.27-.22,2.63,2.63,0,0,0-2.14,1.09A4.18,4.18,0,0,0,5.41,61a3.93,3.93,0,0,0,.36,1.75A3.83,3.83,0,0,0,7,64.17a16.39,16.39,0,0,0,5.27,2.57,22.7,22.7,0,0,0,6.35.88,19.09,19.09,0,0,0,7.19-1.24,10.72,10.72,0,0,0,4.75-3.53,8.89,8.89,0,0,0,1.67-5.38,9.05,9.05,0,0,0-1.7-5.54A8.6,8.6,0,0,0,25.82,48.79Zm24,18.89Q56.5,67.68,60,63t3.5-13.66q0-8.88-3.53-13.61T49.84,31q-6.65,0-10.15,4.72T36.18,49.29q0,8.94,3.51,13.66T49.84,67.68Zm0-7.06A3.64,3.64,0,0,1,46.34,58q-1.06-2.64-1.07-8.69t1.07-8.65a3.65,3.65,0,0,1,7,0q1.07,2.64,1.06,8.63T53.35,58A3.65,3.65,0,0,1,49.84,60.62Zm30.47,7.06Q87,67.68,90.46,63T94,49.29q0-8.88-3.53-13.61T80.31,31q-6.66,0-10.16,4.72t-3.5,13.61q0,8.94,3.5,13.66T80.31,67.68Zm0-7.06A3.64,3.64,0,0,1,76.8,58q-1.06-2.64-1.06-8.69t1.06-8.65a3.65,3.65,0,0,1,7,0q1.06,2.64,1.07,8.63T83.81,58A3.64,3.64,0,0,1,80.31,60.62Z"/></svg>