<svg id="Layer_1" data-name="Layer 1" xmlns="http://www.w3.org/2000/svg" viewBox="0 0 100 100"><title>l24_5_1</title><path d="M83.45,100.12H16.38A16.46,16.46,0,0,1-.08,83.66V16.59A16.47,16.47,0,0,1,16.38.12H83.45A16.48,16.48,0,0,1,99.92,16.59V83.66A16.47,16.47,0,0,1,83.45,100.12ZM60.38,80.89H59.32V63.53A4.09,4.09,0,0,0,58,60.31a4.56,4.56,0,0,0-3.13-1.16,4.78,4.78,0,0,0-2.14.51,4.38,4.38,0,0,0-1.71,1.46L37.29,80.75a5.4,5.4,0,0,0-1,3.17,3.65,3.65,0,0,0,1,2.65A3.58,3.58,0,0,0,40,87.63H50.71v1.63a4.31,4.31,0,0,0,1.18,3.28A4.39,4.39,0,0,0,55,93.64a4.45,4.45,0,0,0,3.12-1.1,4.25,4.25,0,0,0,1.2-3.28V87.63h1.06q4.18,0,4.19-3.42T60.38,80.89Zm-15.44,0,5.77-8.32v8.32ZM59.73,34.31H55.78V11.51A4.16,4.16,0,0,0,54.6,8.38a4.23,4.23,0,0,0-3.1-1.16,8.16,8.16,0,0,0-4,1.21l-7.7,4.47a3.27,3.27,0,0,0-1.68,3,4,4,0,0,0,1,2.62,2.88,2.88,0,0,0,2.31,1.18,3.25,3.25,0,0,0,1.68-.48l3.85-2.26V34.31H43a4.79,4.79,0,0,0-3.17.86,3.26,3.26,0,0,0-1,2.6q0,3.56,4.18,3.56h16.7q4.19,0,4.18-3.56a3.26,3.26,0,0,0-1-2.6A4.79,4.79,0,0,0,59.73,34.31Zm11,15.47h0a3.13,3.13,0,0,0-3.12-3.13h-37a3.13,3.13,0,0,0-3.12,3.13h0a3.12,3.12,0,0,0,3.12,3.12h37A3.12,3.12,0,0,0,70.68,49.78Z"/></svg>