<svg id="Layer_1" data-name="Layer 1" xmlns="http://www.w3.org/2000/svg" viewBox="0 0 100 100"><title>l24_5_1</title><path d="M83.73,100H16.67A16.47,16.47,0,0,1,.2,83.53V16.47A16.47,16.47,0,0,1,16.67,0H83.73A16.47,16.47,0,0,1,100.2,16.47V83.53A16.47,16.47,0,0,1,83.73,100ZM19,67.6a9.82,9.82,0,0,0,8.4-3.91q2.89-3.9,2.9-11.3T27.36,41.14A9.82,9.82,0,0,0,19,37.23a9.8,9.8,0,0,0-8.4,3.91Q7.69,45,7.68,52.39t2.9,11.3A9.82,9.82,0,0,0,19,67.6Zm0-5.84a3,3,0,0,1-2.9-2.19,20.84,20.84,0,0,1-.88-7.18,20.67,20.67,0,0,1,.88-7.16,3,3,0,0,1,5.8,0,21,21,0,0,1,.88,7.14,21.09,21.09,0,0,1-.88,7.18A3,3,0,0,1,19,61.76Zm18.31,5.71a3.85,3.85,0,0,0,2.88-1.18,4.22,4.22,0,0,0,0-5.79,3.85,3.85,0,0,0-2.88-1.18,3.9,3.9,0,0,0-2.92,1.18,4.19,4.19,0,0,0,0,5.79A3.9,3.9,0,0,0,37.29,67.47Zm26.12-6.38H55l6-6.09a19.47,19.47,0,0,0,3.51-4.73,10.5,10.5,0,0,0,1-4.68,7.73,7.73,0,0,0-1.28-4.39,8.26,8.26,0,0,0-3.63-2.94,13.47,13.47,0,0,0-5.46-1,17.14,17.14,0,0,0-9.28,2.86,2.7,2.7,0,0,0-1,1.09,3.45,3.45,0,0,0-.28,1.51,3.61,3.61,0,0,0,.72,2.25,2.12,2.12,0,0,0,1.76.94,2.63,2.63,0,0,0,.8-.12,5.73,5.73,0,0,0,.86-.4L49.3,45l.84-.42a21.09,21.09,0,0,1,2.37-1,6.81,6.81,0,0,1,2.25-.36,3.32,3.32,0,0,1,2.33.76,2.8,2.8,0,0,1,.82,2.18q0,2.44-2.77,5.34l-8.9,9.28A4.57,4.57,0,0,0,44.81,64a3.11,3.11,0,0,0,.88,2.28,3.16,3.16,0,0,0,2.39.91H63.41a4.18,4.18,0,0,0,2.75-.76,2.87,2.87,0,0,0,.91-2.35,2.76,2.76,0,0,0-.91-2.29A4.3,4.3,0,0,0,63.41,61.09ZM82.9,47.86a10.58,10.58,0,0,0-4.16.75V43.45h9.08q3.65,0,3.65-2.94c0-1.94-1.22-2.9-3.65-2.9h-13a3.59,3.59,0,0,0-2.64.92,3.63,3.63,0,0,0-.92,2.69V52.6A2.3,2.3,0,0,0,72,54.43a2.91,2.91,0,0,0,2,.69,4,4,0,0,0,1.89-.46,15.37,15.37,0,0,1,2.41-.76,11.52,11.52,0,0,1,2.29-.21,4.77,4.77,0,0,1,3.28,1.05A3.75,3.75,0,0,1,85,57.68a3.63,3.63,0,0,1-1.13,3,5.39,5.39,0,0,1-3.49,1,7,7,0,0,1-2.33-.38,23.55,23.55,0,0,1-2.37-1l-.84-.42q-.84-.45-1.26-.63A2.9,2.9,0,0,0,72.57,59a2.19,2.19,0,0,0-1.77.9,3.47,3.47,0,0,0-.71,2.2,3.1,3.1,0,0,0,.32,1.45,3.84,3.84,0,0,0,1,1.16,14.19,14.19,0,0,0,4.31,2.1,17.59,17.59,0,0,0,5.1.75,13.65,13.65,0,0,0,6-1.26,9.47,9.47,0,0,0,4-3.57,9.93,9.93,0,0,0,1.43-5.33,10.14,10.14,0,0,0-1.2-5,8.52,8.52,0,0,0-3.32-3.36A9.76,9.76,0,0,0,82.9,47.86Z"/></svg>