<svg id="Layer_1" data-name="Layer 1" xmlns="http://www.w3.org/2000/svg" viewBox="0 0 100 100"><title>l24_3_1</title><path d="M83.53,100.15H16.47A16.47,16.47,0,0,1,0,83.68V16.62A16.47,16.47,0,0,1,16.47.15H83.53A16.47,16.47,0,0,1,100,16.62V83.68A16.47,16.47,0,0,1,83.53,100.15ZM57.31,75.92a7.25,7.25,0,0,0,3.78-2.84,8.4,8.4,0,0,0,1.37-4.81,8,8,0,0,0-3.35-6.76Q55.78,59,50,59t-9.09,2.47a8,8,0,0,0-3.37,6.76A8.16,8.16,0,0,0,38.89,73a7.92,7.92,0,0,0,3.85,3,8,8,0,0,0-4.53,2.86,8.53,8.53,0,0,0-1.58,5.27,8.28,8.28,0,0,0,3.58,7.14Q43.8,93.77,50,93.77t9.79-2.58a8.28,8.28,0,0,0,3.58-7.14,7.91,7.91,0,0,0-6.06-8.13ZM50,87.08c-3.5,0-5.24-1.25-5.24-3.75S46.5,79.58,50,79.58s5.24,1.25,5.24,3.75S53.49,87.08,50,87.08Zm0-21.36a5.12,5.12,0,0,1,3.22.84,3.27,3.27,0,0,1,1.06,2.72A3.31,3.31,0,0,1,53.22,72a5,5,0,0,1-3.22.87A5,5,0,0,1,46.78,72a3.31,3.31,0,0,1-1.06-2.74,3.27,3.27,0,0,1,1.06-2.72A5.12,5.12,0,0,1,50,65.72Zm8.71-31.39h-4V11.53a4.15,4.15,0,0,0-1.18-3.12,4.23,4.23,0,0,0-3.1-1.16,8.05,8.05,0,0,0-4,1.21l-7.7,4.47a3.27,3.27,0,0,0-1.68,3,4,4,0,0,0,1,2.62,2.88,2.88,0,0,0,2.31,1.18,3.25,3.25,0,0,0,1.68-.48L45.91,17V34.33H42a4.78,4.78,0,0,0-3.17.87,3.25,3.25,0,0,0-1,2.6q0,3.56,4.18,3.56h16.7q4.18,0,4.18-3.56a3.25,3.25,0,0,0-1-2.6A4.78,4.78,0,0,0,58.71,34.33ZM71.62,49.81h0a3.13,3.13,0,0,0-3.13-3.13h-37a3.13,3.13,0,0,0-3.13,3.13h0a3.13,3.13,0,0,0,3.13,3.12h37A3.13,3.13,0,0,0,71.62,49.81Z"/></svg>