<svg id="Layer_1" data-name="Layer 1" xmlns="http://www.w3.org/2000/svg" viewBox="0 0 100 100"><title>l24_4_1</title><path d="M83.09,100.34H16A16.47,16.47,0,0,1-.44,83.87V16.8A16.46,16.46,0,0,1,16,.34H83.09A16.46,16.46,0,0,1,99.56,16.8V83.87A16.47,16.47,0,0,1,83.09,100.34ZM29.55,31.76H9.65a5,5,0,0,0-3.35.93,3.58,3.58,0,0,0-1.07,2.82,3.49,3.49,0,0,0,1,2.75,5.14,5.14,0,0,0,3.38.91H22.34L9.3,61.46a4.77,4.77,0,0,0-.72,2.44A3.73,3.73,0,0,0,10,66.82,4.66,4.66,0,0,0,13.1,68a4.32,4.32,0,0,0,2.16-.58A4.7,4.7,0,0,0,17,65.62L32.4,39a6.53,6.53,0,0,0,1-3.36,4,4,0,0,0-1-2.76A3.6,3.6,0,0,0,29.55,31.76ZM49.76,68q6.66,0,10.16-4.72t3.5-13.66q0-8.88-3.53-13.61T49.76,31.3q-6.65,0-10.15,4.72t-3.5,13.61q0,8.94,3.5,13.66T49.76,68Zm0-7.06a3.64,3.64,0,0,1-3.5-2.64q-1.07-2.64-1.07-8.68c0-4,.36-6.91,1.07-8.66a3.65,3.65,0,0,1,7,0q1.06,2.64,1.06,8.63t-1.06,8.68A3.64,3.64,0,0,1,49.76,61ZM80.23,68q6.66,0,10.16-4.72t3.5-13.66q0-8.88-3.53-13.61T80.23,31.3q-6.65,0-10.15,4.72T66.57,49.63q0,8.94,3.51,13.66T80.23,68Zm0-7.06a3.64,3.64,0,0,1-3.5-2.64q-1.07-2.64-1.07-8.68c0-4,.36-6.91,1.07-8.66a3.65,3.65,0,0,1,7,0c.72,1.76,1.07,4.64,1.07,8.63s-.35,6.92-1.07,8.68A3.63,3.63,0,0,1,80.23,61Z"/></svg>