<svg id="Layer_1" data-name="Layer 1" xmlns="http://www.w3.org/2000/svg" viewBox="0 0 100 100"><title>l24_4_1</title><path d="M83.22,100H16.16A16.47,16.47,0,0,1-.31,83.53V16.47A16.47,16.47,0,0,1,16.16,0H83.22A16.47,16.47,0,0,1,99.69,16.47V83.53A16.47,16.47,0,0,1,83.22,100ZM44.41,58.51H40.24V34.45A4.4,4.4,0,0,0,39,31.15a4.45,4.45,0,0,0-3.28-1.22,8.53,8.53,0,0,0-4.21,1.27l-8.12,4.72a3.44,3.44,0,0,0-1.78,3.15,4.32,4.32,0,0,0,1,2.77,3.05,3.05,0,0,0,2.44,1.24,3.47,3.47,0,0,0,1.78-.51l4.06-2.39V58.51H26.79a5.06,5.06,0,0,0-3.35.92,3.41,3.41,0,0,0-1.07,2.74q0,3.77,4.42,3.76H44.41c2.94,0,4.42-1.25,4.42-3.76a3.41,3.41,0,0,0-1.07-2.74A5.08,5.08,0,0,0,44.41,58.51Zm19.7,7.88q6.65,0,10.15-4.73T77.77,48q0-8.9-3.53-13.61T64.11,29.67q-6.66,0-10.16,4.73T50.45,48q0,8.93,3.5,13.65T64.11,66.39Zm0-7.06a3.63,3.63,0,0,1-3.5-2.64C59.89,54.93,59.54,52,59.54,48s.35-6.92,1.07-8.66a3.64,3.64,0,0,1,7,0Q68.67,42,68.68,48c0,4-.36,6.92-1.07,8.68A3.64,3.64,0,0,1,64.11,59.33Z"/></svg>