<svg id="Layer_1" data-name="Layer 1" xmlns="http://www.w3.org/2000/svg" viewBox="0 0 100 100"><title>l24_1_1</title><path d="M83.53,100H16.47A16.47,16.47,0,0,1,0,83.53V16.47A16.47,16.47,0,0,1,16.47,0H83.53A16.47,16.47,0,0,1,100,16.47V83.53A16.47,16.47,0,0,1,83.53,100ZM30.91,54.06H29.79V35.73a4.33,4.33,0,0,0-1.37-3.4,4.81,4.81,0,0,0-3.3-1.22,5,5,0,0,0-2.26.54,4.62,4.62,0,0,0-1.8,1.54L6.53,53.91a5.72,5.72,0,0,0-1.11,3.35,3.91,3.91,0,0,0,1.06,2.8,3.83,3.83,0,0,0,2.9,1.11H20.7V62.9a4.51,4.51,0,0,0,1.24,3.45,4.61,4.61,0,0,0,3.28,1.17,4.69,4.69,0,0,0,3.3-1.17,4.45,4.45,0,0,0,1.27-3.45V61.17h1.12c2.94,0,4.42-1.2,4.42-3.6S33.85,54.06,30.91,54.06Zm-16.3,0,6.09-8.78v8.78ZM50.46,67.67q6.65,0,10.15-4.72t3.51-13.66q0-8.88-3.53-13.61T50.46,31Q43.8,31,40.3,35.68T36.8,49.29q0,8.94,3.5,13.66T50.46,67.67Zm0-7.06A3.64,3.64,0,0,1,47,58c-.71-1.75-1.06-4.65-1.06-8.68s.35-6.91,1.06-8.66a3.65,3.65,0,0,1,7,0Q55,43.3,55,49.29c0,4-.36,6.93-1.07,8.68A3.64,3.64,0,0,1,50.46,60.61Zm30.46,7.06q6.66,0,10.16-4.72t3.5-13.66q0-8.88-3.53-13.61T80.92,31q-6.65,0-10.15,4.72T67.26,49.29q0,8.94,3.51,13.66T80.92,67.67Zm0-7.06A3.64,3.64,0,0,1,77.42,58c-.71-1.75-1.07-4.65-1.07-8.68s.36-6.91,1.07-8.66a3.65,3.65,0,0,1,7,0q1.06,2.64,1.06,8.63c0,4-.35,6.93-1.06,8.68A3.64,3.64,0,0,1,80.92,60.61Z"/></svg>