<svg id="Layer_1" data-name="Layer 1" xmlns="http://www.w3.org/2000/svg" viewBox="0 0 100 100"><title>l24_3_1</title><path d="M83.53,99.85H16.47A16.47,16.47,0,0,1,0,83.38V16.32A16.47,16.47,0,0,1,16.47-.15H83.53A16.47,16.47,0,0,1,100,16.32V83.38A16.47,16.47,0,0,1,83.53,99.85ZM56.23,75.62a7.79,7.79,0,0,0,3.83-2.91,8,8,0,0,0,1.37-4.65A8.36,8.36,0,0,0,60,63.16a9.42,9.42,0,0,0-4.18-3.27,16,16,0,0,0-6.28-1.16,19.24,19.24,0,0,0-5.7.87A16.11,16.11,0,0,0,38.92,62a3.93,3.93,0,0,0-1.16,1.3A3.83,3.83,0,0,0,37.43,65a4,4,0,0,0,.81,2.52,2.5,2.5,0,0,0,2,1,3.3,3.3,0,0,0,1.21-.22c.35-.15.83-.38,1.44-.7l1-.48A24.55,24.55,0,0,1,46.54,66a7.27,7.27,0,0,1,2.53-.44,4.11,4.11,0,0,1,2.93,1,3.58,3.58,0,0,1,1.06,2.76,2.7,2.7,0,0,1-1.2,2.46,7.41,7.41,0,0,1-3.85.77H45.89a2.74,2.74,0,0,0-2.26,1,3.94,3.94,0,0,0,0,4.81,2.77,2.77,0,0,0,2.26,1h3a7.2,7.2,0,0,1,4,.82A3,3,0,0,1,54,82.88a3.34,3.34,0,0,1-1.18,2.89,6.71,6.71,0,0,1-3.87.86,8.43,8.43,0,0,1-2.76-.41A20.38,20.38,0,0,1,43.44,85l-.6-.26-.46-.22q-.91-.48-1.44-.69a3.09,3.09,0,0,0-1.2-.22,2.46,2.46,0,0,0-2,1,3.94,3.94,0,0,0-.82,2.53,3.33,3.33,0,0,0,1.49,3,15.43,15.43,0,0,0,5,2.43,21.44,21.44,0,0,0,6,.84,18,18,0,0,0,6.81-1.18,10.11,10.11,0,0,0,4.5-3.34,8.37,8.37,0,0,0,1.59-5.1,8.49,8.49,0,0,0-1.62-5.24A8.13,8.13,0,0,0,56.23,75.62ZM59.81,34H55.87V11.23A4.22,4.22,0,0,0,54.69,8.1,4.24,4.24,0,0,0,51.59,7a8.14,8.14,0,0,0-4,1.2L39.9,12.63a3.25,3.25,0,0,0-1.69,3,4.06,4.06,0,0,0,1,2.62,2.91,2.91,0,0,0,2.31,1.18,3.31,3.31,0,0,0,1.69-.48L47,16.67V34h-3.9a4.83,4.83,0,0,0-3.18.87,3.22,3.22,0,0,0-1,2.59c0,2.38,1.4,3.56,4.19,3.56H59.81c2.79,0,4.19-1.18,4.19-3.56a3.22,3.22,0,0,0-1-2.59A4.83,4.83,0,0,0,59.81,34Zm11,15.47h0a3.13,3.13,0,0,0-3.13-3.13h-37a3.13,3.13,0,0,0-3.13,3.13h0a3.13,3.13,0,0,0,3.13,3.13h37A3.13,3.13,0,0,0,70.77,49.5Z"/></svg>