<svg id="Layer_1" data-name="Layer 1" xmlns="http://www.w3.org/2000/svg" viewBox="0 0 100 100"><title>l24_3_1</title><path d="M83.53,100H16.47A16.47,16.47,0,0,1,0,83.53V16.47A16.47,16.47,0,0,1,16.47,0H83.53A16.47,16.47,0,0,1,100,16.47V83.53A16.47,16.47,0,0,1,83.53,100ZM28.1,67.67q6.56,0,10-4.65t3.45-13.45q0-8.74-3.48-13.4t-10-4.65q-6.55,0-10,4.65t-3.45,13.4q0,8.79,3.45,13.45T28.1,67.67Zm0-7a3.59,3.59,0,0,1-3.45-2.6q-1-2.59-1-8.55t1-8.53a3.59,3.59,0,0,1,6.9,0c.7,1.73,1.05,4.57,1.05,8.5s-.35,6.82-1.05,8.55A3.59,3.59,0,0,1,28.1,60.72Zm21.8,6.8a4.59,4.59,0,0,0,3.42-1.4,5,5,0,0,0,0-6.9,4.59,4.59,0,0,0-3.42-1.4,4.66,4.66,0,0,0-3.47,1.4,5,5,0,0,0,0,6.9A4.66,4.66,0,0,0,49.9,67.52ZM81,59.92H71l7.1-7.25A23.39,23.39,0,0,0,82.23,47a12.67,12.67,0,0,0,1.22-5.57,9.16,9.16,0,0,0-1.53-5.23,9.76,9.76,0,0,0-4.32-3.5,16.21,16.21,0,0,0-6.5-1.22,20.32,20.32,0,0,0-11,3.4,3.33,3.33,0,0,0-1.23,1.3A4.4,4.4,0,0,0,58.5,38a4.28,4.28,0,0,0,.85,2.67,2.56,2.56,0,0,0,2.1,1.13,3,3,0,0,0,.95-.15,5.66,5.66,0,0,0,1-.48l.78-.42,1-.5A27,27,0,0,1,68,39a8.23,8.23,0,0,1,2.68-.42,4,4,0,0,1,2.78.9,3.4,3.4,0,0,1,1,2.6q0,2.9-3.3,6.35L60.55,59.52a5.48,5.48,0,0,0-1.7,3.9,3.72,3.72,0,0,0,1,2.72,3.79,3.79,0,0,0,2.85,1.08H81a5,5,0,0,0,3.27-.9,3.44,3.44,0,0,0,1.08-2.8,3.32,3.32,0,0,0-1.08-2.73A5.11,5.11,0,0,0,81,59.92Z"/></svg>