<svg id="Layer_1" data-name="Layer 1" xmlns="http://www.w3.org/2000/svg" viewBox="0 0 100 100"><title>l24_4_1</title><path d="M83.67,100H16.61A16.47,16.47,0,0,1,.14,83.53V16.47A16.47,16.47,0,0,1,16.61,0H83.67a16.47,16.47,0,0,1,16.47,16.47V83.53A16.47,16.47,0,0,1,83.67,100ZM18.48,31A13.06,13.06,0,0,0,12,32.54a11.23,11.23,0,0,0-4.44,4.39A12.64,12.64,0,0,0,6,43.3a12.78,12.78,0,0,0,1.39,6,10.43,10.43,0,0,0,3.84,4.16A10.23,10.23,0,0,0,16.7,55,9.7,9.7,0,0,0,21,54a8,8,0,0,0,3.12-2.56,13.4,13.4,0,0,1-1.9,6.62A4.85,4.85,0,0,1,18,60.46a6.75,6.75,0,0,1-2.33-.4c-.75-.27-1.68-.68-2.8-1.22l-1.11-.56c-.65-.34-1.16-.58-1.53-.73A3.16,3.16,0,0,0,9,57.32a2.71,2.71,0,0,0-2.16,1.09,4.08,4.08,0,0,0-.88,2.66,3.67,3.67,0,0,0,.38,1.78,4.22,4.22,0,0,0,1.24,1.37,16,16,0,0,0,5.1,2.54,19.72,19.72,0,0,0,5.82.92,13.76,13.76,0,0,0,7.89-2.29,14.69,14.69,0,0,0,5.23-6.52,24.57,24.57,0,0,0,1.86-9.93q0-8.64-3.91-13.31T18.48,31ZM19,47.77a4,4,0,0,1-3.18-1.3A5.12,5.12,0,0,1,14.72,43a5.1,5.1,0,0,1,1.17-3.51A4,4,0,0,1,19,38.12a4.07,4.07,0,0,1,3.15,1.35A5,5,0,0,1,23.4,43a5,5,0,0,1-1.19,3.5A4.07,4.07,0,0,1,19,47.77ZM50.21,67.68q6.66,0,10.16-4.73t3.5-13.66q0-8.88-3.53-13.61T50.21,31q-6.65,0-10.15,4.72t-3.5,13.61q0,8.94,3.5,13.66T50.21,67.68Zm0-7.06A3.64,3.64,0,0,1,46.71,58q-1.07-2.64-1.07-8.69t1.07-8.65a3.65,3.65,0,0,1,7,0q1.06,2.64,1.06,8.63T53.72,58A3.64,3.64,0,0,1,50.21,60.62Zm30.47,7.06q6.64,0,10.16-4.73t3.5-13.66q0-8.88-3.53-13.61T80.68,31Q74,31,70.52,35.68T67,49.29q0,8.94,3.5,13.66T80.68,67.68Zm0-7.06A3.64,3.64,0,0,1,77.18,58q-1.07-2.64-1.07-8.69t1.07-8.65a3.64,3.64,0,0,1,7,0c.72,1.76,1.07,4.64,1.07,8.63S84.9,56.22,84.18,58A3.63,3.63,0,0,1,80.68,60.62Z"/></svg>