<svg id="Layer_1" data-name="Layer 1" xmlns="http://www.w3.org/2000/svg" viewBox="0 0 100 100"><title>l24_5_1</title><path d="M83.53,100H16.47A16.47,16.47,0,0,1,0,83.53V16.47A16.47,16.47,0,0,1,16.47,0H83.53A16.47,16.47,0,0,1,100,16.47V83.53A16.47,16.47,0,0,1,83.53,100ZM52,71.06a12,12,0,0,0-4.76.86V66H57.6q4.18,0,4.19-3.36c0-2.22-1.4-3.32-4.19-3.32H42.69a4.07,4.07,0,0,0-3,1.06,4.13,4.13,0,0,0-1.06,3.07v13a2.62,2.62,0,0,0,.91,2.09,3.34,3.34,0,0,0,2.26.8,4.64,4.64,0,0,0,2.17-.53A16.72,16.72,0,0,1,46.71,78a13.06,13.06,0,0,1,2.62-.24,5.45,5.45,0,0,1,3.75,1.2,4.3,4.3,0,0,1,1.35,3.37,4.18,4.18,0,0,1-1.3,3.39,6.18,6.18,0,0,1-4,1.08,8,8,0,0,1-2.67-.43,27.54,27.54,0,0,1-2.71-1.15l-1-.48A14.89,14.89,0,0,0,41.34,84a3.43,3.43,0,0,0-1.2-.19,2.48,2.48,0,0,0-2,1,3.91,3.91,0,0,0-.82,2.52A3.57,3.57,0,0,0,37.66,89a4.16,4.16,0,0,0,1.13,1.32,15.85,15.85,0,0,0,4.93,2.41,20,20,0,0,0,5.85.86,15.64,15.64,0,0,0,6.88-1.44,10.8,10.8,0,0,0,4.61-4.09A11.38,11.38,0,0,0,62.7,82a11.67,11.67,0,0,0-1.37-5.7,9.75,9.75,0,0,0-3.8-3.84A11,11,0,0,0,52,71.06Zm6.74-36.88h-4V11.38a4.15,4.15,0,0,0-1.18-3.12,4.23,4.23,0,0,0-3.1-1.16,8.13,8.13,0,0,0-4,1.2l-7.7,4.48a3.27,3.27,0,0,0-1.68,3,4,4,0,0,0,1,2.62,2.88,2.88,0,0,0,2.31,1.18,3.25,3.25,0,0,0,1.68-.48l3.85-2.26V34.18H42a4.78,4.78,0,0,0-3.17.87,3.25,3.25,0,0,0-1,2.6q0,3.56,4.18,3.56h16.7q4.18,0,4.18-3.56a3.25,3.25,0,0,0-1-2.6A4.78,4.78,0,0,0,58.71,34.18ZM71.62,49.65h0a3.13,3.13,0,0,0-3.13-3.12h-37a3.13,3.13,0,0,0-3.13,3.12h0a3.13,3.13,0,0,0,3.13,3.13h37A3.13,3.13,0,0,0,71.62,49.65Z"/></svg>