<svg id="Layer_1" data-name="Layer 1" xmlns="http://www.w3.org/2000/svg" viewBox="0 0 100 100"><title>l24_1_1</title><path d="M83.67,100.34H16.61A16.47,16.47,0,0,1,.14,83.87V16.8A16.46,16.46,0,0,1,16.61.34H83.67A16.46,16.46,0,0,1,100.14,16.8V83.87A16.47,16.47,0,0,1,83.67,100.34ZM21.83,44.14a12.69,12.69,0,0,0-5,.92V38.81h11q4.43,0,4.42-3.55c0-2.34-1.47-3.5-4.42-3.5H12a4.35,4.35,0,0,0-3.2,1.11,4.43,4.43,0,0,0-1.12,3.25V49.88a2.79,2.79,0,0,0,1,2.21,3.5,3.5,0,0,0,2.39.84,4.87,4.87,0,0,0,2.28-.56,18.08,18.08,0,0,1,2.92-.91A13.8,13.8,0,0,1,19,51.2a5.78,5.78,0,0,1,4,1.27A4.52,4.52,0,0,1,24.42,56a4.42,4.42,0,0,1-1.37,3.58,6.52,6.52,0,0,1-4.22,1.14A8.24,8.24,0,0,1,16,60.29a26.32,26.32,0,0,1-2.87-1.22l-1-.5a14.44,14.44,0,0,0-1.52-.77,3.56,3.56,0,0,0-1.27-.2,2.63,2.63,0,0,0-2.13,1.09,4.16,4.16,0,0,0-.87,2.67,3.8,3.8,0,0,0,.38,1.75,4.65,4.65,0,0,0,1.2,1.4,16.81,16.81,0,0,0,5.2,2.54,21.14,21.14,0,0,0,6.17.91,16.56,16.56,0,0,0,7.26-1.52,11.48,11.48,0,0,0,4.88-4.32,12,12,0,0,0,1.72-6.45,12.29,12.29,0,0,0-1.44-6,10.43,10.43,0,0,0-4-4.06A11.8,11.8,0,0,0,21.83,44.14ZM49.81,68Q56.46,68,60,63.29t3.51-13.66q0-8.88-3.53-13.61T49.81,31.3q-6.66,0-10.16,4.72t-3.5,13.61q0,8.94,3.5,13.66T49.81,68Zm0-7.06a3.65,3.65,0,0,1-3.51-2.64q-1.06-2.64-1.06-8.68c0-4,.35-6.91,1.06-8.66a3.65,3.65,0,0,1,7,0c.71,1.76,1.07,4.63,1.07,8.63s-.36,6.92-1.07,8.68A3.64,3.64,0,0,1,49.81,61ZM80.28,68q6.64,0,10.15-4.72t3.51-13.66q0-8.88-3.53-13.61T80.28,31.3q-6.66,0-10.16,4.72t-3.5,13.61q0,8.94,3.5,13.66T80.28,68Zm0-7.06a3.64,3.64,0,0,1-3.51-2.64q-1.06-2.64-1.06-8.68c0-4,.35-6.91,1.06-8.66a3.65,3.65,0,0,1,7,0c.71,1.76,1.07,4.63,1.07,8.63s-.36,6.92-1.07,8.68A3.64,3.64,0,0,1,80.28,61Z"/></svg>