<svg id="Layer_1" data-name="Layer 1" xmlns="http://www.w3.org/2000/svg" viewBox="0 0 100 100"><title>l24_3_1</title><path d="M83.66,100.15H16.6A16.47,16.47,0,0,1,.13,83.68V16.62A16.47,16.47,0,0,1,16.6.15H83.66a16.47,16.47,0,0,1,16.47,16.47V83.68A16.47,16.47,0,0,1,83.66,100.15ZM56.24,75.92A7.83,7.83,0,0,0,60.07,73a8,8,0,0,0,1.37-4.64A8.4,8.4,0,0,0,60,63.46a9.4,9.4,0,0,0-4.19-3.27A15.9,15.9,0,0,0,49.51,59a19.13,19.13,0,0,0-5.7.86,16,16,0,0,0-4.89,2.41,3.33,3.33,0,0,0-1.49,3,4,4,0,0,0,.82,2.52,2.5,2.5,0,0,0,2,1,3,3,0,0,0,1.2-.22,15.29,15.29,0,0,0,1.45-.69l1-.49a25.75,25.75,0,0,1,2.62-1.15,7.21,7.21,0,0,1,2.52-.43,4.19,4.19,0,0,1,2.94,1,3.62,3.62,0,0,1,1.06,2.77,2.68,2.68,0,0,1-1.21,2.45,7.27,7.27,0,0,1-3.84.77H45.9a2.75,2.75,0,0,0-2.26,1,3.94,3.94,0,0,0,0,4.81,2.72,2.72,0,0,0,2.26,1h3a7.22,7.22,0,0,1,3.95.82A3,3,0,0,1,54,83.18a3.34,3.34,0,0,1-1.18,2.89,6.66,6.66,0,0,1-3.87.87,8.81,8.81,0,0,1-2.77-.41,22.52,22.52,0,0,1-2.76-1.18l-.6-.27-.46-.21a15.87,15.87,0,0,0-1.45-.7,3.21,3.21,0,0,0-1.2-.22,2.5,2.5,0,0,0-2,1,4,4,0,0,0-.82,2.52,3.84,3.84,0,0,0,.34,1.66,3.89,3.89,0,0,0,1.15,1.33,15.67,15.67,0,0,0,5,2.42,21.39,21.39,0,0,0,6,.85,18.18,18.18,0,0,0,6.81-1.18,10.13,10.13,0,0,0,4.5-3.35,8.42,8.42,0,0,0,1.58-5.09,8.51,8.51,0,0,0-1.61-5.25A8.21,8.21,0,0,0,56.24,75.92Zm4.09-41.59H56.39V11.53a4.19,4.19,0,0,0-1.18-3.12A4.26,4.26,0,0,0,52.1,7.25a8.05,8.05,0,0,0-4,1.21l-7.7,4.47a3.27,3.27,0,0,0-1.68,3,4,4,0,0,0,1,2.62A2.88,2.88,0,0,0,42,19.71a3.31,3.31,0,0,0,1.69-.48L47.53,17V34.33H43.64a4.81,4.81,0,0,0-3.18.87,3.25,3.25,0,0,0-1,2.6q0,3.56,4.19,3.56H60.33q4.19,0,4.18-3.56a3.21,3.21,0,0,0-1-2.6A4.78,4.78,0,0,0,60.33,34.33ZM71.75,49.81h0a3.13,3.13,0,0,0-3.13-3.13h-37a3.13,3.13,0,0,0-3.13,3.13h0a3.13,3.13,0,0,0,3.13,3.12h37A3.13,3.13,0,0,0,71.75,49.81Z"/></svg>