<svg id="Layer_1" data-name="Layer 1" xmlns="http://www.w3.org/2000/svg" viewBox="0 0 100 100"><title>l24_1_1</title><path d="M83.53,100H16.47A16.47,16.47,0,0,1,0,83.53V16.47A16.47,16.47,0,0,1,16.47,0H83.53A16.47,16.47,0,0,1,100,16.47V83.53A16.47,16.47,0,0,1,83.53,100Zm-54-39.51H25.32V36.42a4.4,4.4,0,0,0-1.24-3.3A4.45,4.45,0,0,0,20.8,31.9a8.53,8.53,0,0,0-4.21,1.27L8.46,37.89A3.45,3.45,0,0,0,6.69,41a4.27,4.27,0,0,0,1,2.77,3.08,3.08,0,0,0,2.44,1.24,3.47,3.47,0,0,0,1.78-.51L16,42.16V60.49H11.87a5.06,5.06,0,0,0-3.35.91,3.38,3.38,0,0,0-1.07,2.74q0,3.77,4.42,3.76H29.49q4.41,0,4.41-3.76a3.41,3.41,0,0,0-1.06-2.74A5.08,5.08,0,0,0,29.49,60.49Zm19.7,7.87q6.64,0,10.15-4.73T62.85,50q0-8.88-3.53-13.6T49.19,31.64q-6.66,0-10.16,4.73T35.53,50q0,8.94,3.5,13.66T49.19,68.36Zm0-7.06a3.65,3.65,0,0,1-3.51-2.64Q44.61,56,44.62,50c0-4,.35-6.91,1.06-8.65a3.65,3.65,0,0,1,7,0Q53.76,44,53.76,50t-1.07,8.69A3.64,3.64,0,0,1,49.19,61.3Zm30.46,7.06q6.66,0,10.16-4.73T93.31,50q0-8.88-3.53-13.6T79.65,31.64q-6.65,0-10.15,4.73T66,50q0,8.94,3.51,13.66T79.65,68.36Zm0-7.06a3.64,3.64,0,0,1-3.5-2.64Q75.08,56,75.08,50c0-4,.36-6.91,1.07-8.65a3.65,3.65,0,0,1,7,0Q84.23,44,84.22,50t-1.06,8.69A3.64,3.64,0,0,1,79.65,61.3Z"/></svg>