<svg id="Layer_1" data-name="Layer 1" xmlns="http://www.w3.org/2000/svg" viewBox="0 0 100 100"><title>l24_3_1</title><path d="M83.4,100.12H16.34A16.46,16.46,0,0,1-.13,83.66V16.59A16.47,16.47,0,0,1,16.34.12H83.4A16.47,16.47,0,0,1,99.87,16.59V83.66A16.46,16.46,0,0,1,83.4,100.12ZM60.34,80.89H59.28V63.53A4.1,4.1,0,0,0,58,60.31a4.56,4.56,0,0,0-3.13-1.16,4.78,4.78,0,0,0-2.14.51A4.38,4.38,0,0,0,51,61.12L37.25,80.75a5.34,5.34,0,0,0-1.06,3.17,3.65,3.65,0,0,0,1,2.65,3.59,3.59,0,0,0,2.74,1.06H50.67v1.63a4.27,4.27,0,0,0,1.18,3.28,4.37,4.37,0,0,0,3.1,1.1,4.45,4.45,0,0,0,3.12-1.1,4.21,4.21,0,0,0,1.21-3.28V87.63h1.06q4.19,0,4.18-3.42T60.34,80.89Zm-15.45,0,5.78-8.32v8.32ZM59.68,34.31h-4V11.51a4.19,4.19,0,0,0-1.17-3.13,4.26,4.26,0,0,0-3.11-1.16,8.16,8.16,0,0,0-4,1.21l-7.7,4.47a3.27,3.27,0,0,0-1.68,3,4,4,0,0,0,1,2.62,2.88,2.88,0,0,0,2.31,1.18A3.31,3.31,0,0,0,43,19.2l3.84-2.26V34.31H43a4.82,4.82,0,0,0-3.18.86,3.26,3.26,0,0,0-1,2.6q0,3.56,4.19,3.56H59.68q4.18,0,4.18-3.56a3.23,3.23,0,0,0-1-2.6A4.79,4.79,0,0,0,59.68,34.31Zm11,15.47h0a3.13,3.13,0,0,0-3.13-3.13h-37a3.13,3.13,0,0,0-3.13,3.13h0a3.13,3.13,0,0,0,3.13,3.12h37A3.13,3.13,0,0,0,70.64,49.78Z"/></svg>