<svg id="Layer_1" data-name="Layer 1" xmlns="http://www.w3.org/2000/svg" viewBox="0 0 100 100"><title>l24_5_1</title><path d="M83.58,100H16.51A16.46,16.46,0,0,1,.05,83.53V16.47A16.46,16.46,0,0,1,16.51,0H83.58a16.47,16.47,0,0,1,16.47,16.47V83.53A16.47,16.47,0,0,1,83.58,100ZM28.15,67.67q6.54,0,10-4.65T41.6,49.57q0-8.74-3.48-13.4t-10-4.65q-6.55,0-10,4.65T14.7,49.57q0,8.79,3.45,13.45T28.15,67.67Zm0-7a3.59,3.59,0,0,1-3.45-2.6q-1.05-2.59-1.05-8.55T24.7,41a3.59,3.59,0,0,1,6.9,0c.7,1.73,1,4.57,1,8.5s-.35,6.82-1,8.55A3.59,3.59,0,0,1,28.15,60.72ZM50,67.52a4.62,4.62,0,0,0,3.42-1.4,5,5,0,0,0,0-6.9A4.62,4.62,0,0,0,50,57.82a4.7,4.7,0,0,0-3.48,1.4,5,5,0,0,0,0,6.9A4.7,4.7,0,0,0,50,67.52Zm31.1-7.6H71l7.1-7.25A23.59,23.59,0,0,0,82.27,47a12.54,12.54,0,0,0,1.23-5.57A9.16,9.16,0,0,0,82,36.24a9.87,9.87,0,0,0-4.32-3.5,16.24,16.24,0,0,0-6.5-1.22,19.6,19.6,0,0,0-5.78.9,19.27,19.27,0,0,0-5.27,2.5,3.33,3.33,0,0,0-1.23,1.3,4.4,4.4,0,0,0-.32,1.8,4.28,4.28,0,0,0,.85,2.67,2.54,2.54,0,0,0,2.1,1.13,3,3,0,0,0,1-.15,5.66,5.66,0,0,0,1-.48l.78-.42,1-.5A25.31,25.31,0,0,1,68.07,39a8.23,8.23,0,0,1,2.68-.42,3.93,3.93,0,0,1,2.77.9,3.37,3.37,0,0,1,1,2.6q0,2.9-3.3,6.35L60.6,59.52a5.44,5.44,0,0,0-1.7,3.9A3.72,3.72,0,0,0,60,66.14a3.79,3.79,0,0,0,2.85,1.08H81.05a5,5,0,0,0,3.27-.9,3.44,3.44,0,0,0,1.08-2.8,3.32,3.32,0,0,0-1.08-2.73A5.15,5.15,0,0,0,81.05,59.92Z"/></svg>