<svg id="Layer_1" data-name="Layer 1" xmlns="http://www.w3.org/2000/svg" viewBox="0 0 100 100"><title>l24_1_1</title><path d="M83.49,100H16.43A16.47,16.47,0,0,1,0,83.53V16.47A16.47,16.47,0,0,1,16.43,0H83.49A16.47,16.47,0,0,1,100,16.47V83.53A16.47,16.47,0,0,1,83.49,100ZM22.57,43.66a9.7,9.7,0,0,0-4.29.94,8,8,0,0,0-3.13,2.56,13.58,13.58,0,0,1,1.91-6.63,4.86,4.86,0,0,1,4.19-2.36,6.76,6.76,0,0,1,2.33.41c.75.27,1.68.68,2.8,1.22l1.11.56a15.79,15.79,0,0,0,1.53.73,3.34,3.34,0,0,0,1.27.23,2.68,2.68,0,0,0,2.15-1.09,4.06,4.06,0,0,0,.89-2.67A3.62,3.62,0,0,0,33,35.79a4.47,4.47,0,0,0-1.24-1.38,16.29,16.29,0,0,0-5.11-2.53A19.65,19.65,0,0,0,20.79,31a13.72,13.72,0,0,0-7.9,2.29,14.83,14.83,0,0,0-5.23,6.52A24.75,24.75,0,0,0,5.81,49.7q0,8.63,3.91,13.3t11.07,4.67a13.11,13.11,0,0,0,6.45-1.57,11.29,11.29,0,0,0,4.44-4.39,12.64,12.64,0,0,0,1.6-6.37,12.79,12.79,0,0,0-1.4-6,10.44,10.44,0,0,0-3.83-4.17A10.31,10.31,0,0,0,22.57,43.66ZM20.23,60.51a4,4,0,0,1-3.15-1.34,5.64,5.64,0,0,1,0-7,4.05,4.05,0,0,1,3.17-1.32,4,4,0,0,1,3.17,1.29,5.92,5.92,0,0,1,0,7A4,4,0,0,1,20.23,60.51ZM50,67.67q6.65,0,10.15-4.72t3.51-13.66q0-8.88-3.53-13.61T50,31q-6.66,0-10.16,4.72t-3.5,13.61q0,8.94,3.5,13.66T50,67.67Zm0-7.05A3.64,3.64,0,0,1,46.48,58q-1.06-2.64-1.06-8.69t1.06-8.65a3.65,3.65,0,0,1,7,0q1.07,2.64,1.07,8.63T53.49,58A3.64,3.64,0,0,1,50,60.62Zm30.46,7.05q6.66,0,10.16-4.72t3.5-13.66q0-8.88-3.53-13.61T80.45,31Q73.8,31,70.3,35.68T66.79,49.29q0,8.94,3.51,13.66T80.45,67.67Zm0-7.05A3.64,3.64,0,0,1,77,58q-1.07-2.64-1.07-8.69T77,40.64a3.65,3.65,0,0,1,7,0Q85,43.3,85,49.29T84,58A3.64,3.64,0,0,1,80.45,60.62Z"/></svg>