<svg id="Layer_1" data-name="Layer 1" xmlns="http://www.w3.org/2000/svg" viewBox="0 0 100 100"><title>l24_5_1</title><path d="M83.58,100H16.51A16.46,16.46,0,0,1,.05,83.53V16.47A16.46,16.46,0,0,1,16.51,0H83.58a16.47,16.47,0,0,1,16.47,16.47V83.53A16.47,16.47,0,0,1,83.58,100Zm-56-32.33q6.56,0,10-4.65T41,49.57q0-8.74-3.48-13.4t-10-4.65q-6.55,0-10,4.65t-3.45,13.4q0,8.81,3.45,13.45T27.58,67.67Zm0-7a3.59,3.59,0,0,1-3.45-2.6q-1.05-2.59-1.05-8.55T24.13,41a3.59,3.59,0,0,1,6.9,0c.7,1.73,1,4.57,1,8.5s-.35,6.82-1,8.55A3.59,3.59,0,0,1,27.58,60.72Zm21.8,6.8a4.59,4.59,0,0,0,3.42-1.4,5,5,0,0,0,0-6.9,4.59,4.59,0,0,0-3.42-1.4,4.7,4.7,0,0,0-3.48,1.4,5,5,0,0,0,0,6.9A4.7,4.7,0,0,0,49.38,67.52Zm32.4-7.6h-4.1V36.22A4.33,4.33,0,0,0,76.45,33a4.39,4.39,0,0,0-3.22-1.2A8.47,8.47,0,0,0,69.08,33l-8,4.65a3.39,3.39,0,0,0-1.75,3.1,4.16,4.16,0,0,0,1,2.72,3,3,0,0,0,2.4,1.23,3.45,3.45,0,0,0,1.75-.5l4-2.35V59.92h-4a5,5,0,0,0-3.3.9,3.36,3.36,0,0,0-1.05,2.7q0,3.7,4.35,3.7H81.78q4.35,0,4.35-3.7a3.36,3.36,0,0,0-1-2.7A5,5,0,0,0,81.78,59.92Z"/></svg>