<svg id="Layer_1" data-name="Layer 1" xmlns="http://www.w3.org/2000/svg" viewBox="0 0 100 100"><title>l24_4_1</title><path d="M83.36,100.34H16.3A16.47,16.47,0,0,1-.17,83.87V16.8A16.46,16.46,0,0,1,16.3.34H83.36A16.46,16.46,0,0,1,99.83,16.8V83.87A16.47,16.47,0,0,1,83.36,100.34ZM21.52,44.14a12.69,12.69,0,0,0-5,.92V38.81h11q4.42,0,4.42-3.55c0-2.34-1.47-3.5-4.42-3.5H11.72a4.34,4.34,0,0,0-3.2,1.11A4.39,4.39,0,0,0,7.4,36.12V49.88a2.76,2.76,0,0,0,1,2.21,3.5,3.5,0,0,0,2.39.84A4.87,4.87,0,0,0,13,52.37,18.08,18.08,0,0,1,16,51.46a13.8,13.8,0,0,1,2.77-.26,5.78,5.78,0,0,1,4,1.27A4.55,4.55,0,0,1,24.11,56a4.42,4.42,0,0,1-1.37,3.58,6.52,6.52,0,0,1-4.22,1.14,8.34,8.34,0,0,1-2.82-.46,26.23,26.23,0,0,1-2.86-1.22l-1-.5a15.5,15.5,0,0,0-1.52-.77A3.56,3.56,0,0,0,9,57.6,2.63,2.63,0,0,0,6.9,58.69,4.16,4.16,0,0,0,6,61.36a3.8,3.8,0,0,0,.38,1.75,4.52,4.52,0,0,0,1.2,1.4,16.81,16.81,0,0,0,5.2,2.54A21.14,21.14,0,0,0,19,68a16.56,16.56,0,0,0,7.26-1.52,11.54,11.54,0,0,0,4.88-4.32,12,12,0,0,0,1.72-6.45,12.29,12.29,0,0,0-1.44-6,10.39,10.39,0,0,0-4-4.06A11.73,11.73,0,0,0,21.52,44.14ZM49.5,68q6.64,0,10.15-4.72t3.51-13.66q0-8.88-3.53-13.61T49.5,31.3q-6.66,0-10.16,4.72t-3.5,13.61q0,8.94,3.5,13.66T49.5,68Zm0-7.06A3.64,3.64,0,0,1,46,58.31q-1.07-2.64-1.06-8.68c0-4,.35-6.91,1.06-8.66a3.65,3.65,0,0,1,7,0c.71,1.76,1.07,4.63,1.07,8.63s-.36,6.92-1.07,8.68A3.64,3.64,0,0,1,49.5,61ZM80,68q6.66,0,10.16-4.72t3.5-13.66q0-8.88-3.52-13.61T80,31.3q-6.64,0-10.15,4.72t-3.5,13.61q0,8.94,3.5,13.66T80,68ZM80,61a3.64,3.64,0,0,1-3.5-2.64q-1.06-2.64-1.07-8.68c0-4,.36-6.91,1.07-8.66a3.65,3.65,0,0,1,7,0c.71,1.76,1.06,4.63,1.06,8.63s-.35,6.92-1.06,8.68A3.64,3.64,0,0,1,80,61Z"/></svg>