<svg id="Layer_1" data-name="Layer 1" xmlns="http://www.w3.org/2000/svg" viewBox="0 0 100 100"><title>l24_4_1</title><path d="M83.08,100.34H16A16.47,16.47,0,0,1-.45,83.87V16.8A16.46,16.46,0,0,1,16,.34H83.08A16.46,16.46,0,0,1,99.55,16.8V83.87A16.47,16.47,0,0,1,83.08,100.34ZM27,49.12a7.6,7.6,0,0,0,4-3,8.82,8.82,0,0,0,1.45-5.08,8.43,8.43,0,0,0-3.53-7.14Q25.4,31.3,19.31,31.3t-9.6,2.61a8.4,8.4,0,0,0-3.55,7.14,8.64,8.64,0,0,0,1.42,5,8.34,8.34,0,0,0,4.06,3.12,8.47,8.47,0,0,0-4.77,3A8.94,8.94,0,0,0,5.19,57.7,8.75,8.75,0,0,0,9,65.24Q12.76,68,19.31,68t10.33-2.72a8.75,8.75,0,0,0,3.79-7.54,8.9,8.9,0,0,0-1.65-5.46A8.86,8.86,0,0,0,27,49.12ZM19.31,60.9q-5.53,0-5.54-4t5.54-4q5.54,0,5.54,4T19.31,60.9Zm0-22.54a5.36,5.36,0,0,1,3.4.89,3.42,3.42,0,0,1,1.12,2.87A3.5,3.5,0,0,1,22.71,45a5.29,5.29,0,0,1-3.4.91,5.29,5.29,0,0,1-3.4-.91,3.5,3.5,0,0,1-1.12-2.89,3.42,3.42,0,0,1,1.12-2.87A5.36,5.36,0,0,1,19.31,38.36ZM49.78,68q6.64,0,10.15-4.72t3.51-13.66q0-8.88-3.53-13.61T49.78,31.3q-6.66,0-10.16,4.72t-3.5,13.61q0,8.94,3.5,13.66T49.78,68Zm0-7.06a3.64,3.64,0,0,1-3.51-2.64q-1.07-2.64-1.06-8.68c0-4,.35-6.91,1.06-8.66a3.65,3.65,0,0,1,7,0q1.06,2.64,1.07,8.63t-1.07,8.68A3.64,3.64,0,0,1,49.78,61ZM80.24,68q6.66,0,10.16-4.72t3.5-13.66q0-8.88-3.53-13.61T80.24,31.3Q73.6,31.3,70.09,36t-3.5,13.61q0,8.94,3.5,13.66T80.24,68Zm0-7.06a3.64,3.64,0,0,1-3.5-2.64q-1.06-2.64-1.07-8.68c0-4,.36-6.91,1.07-8.66a3.65,3.65,0,0,1,7,0q1.06,2.64,1.06,8.63t-1.06,8.68A3.64,3.64,0,0,1,80.24,61Z"/></svg>