<svg id="Layer_1" data-name="Layer 1" xmlns="http://www.w3.org/2000/svg" viewBox="0 0 100 100"><title>l24_3_1</title><path d="M83.53,100H16.47A16.47,16.47,0,0,1,0,83.53V16.47A16.47,16.47,0,0,1,16.47,0H83.53A16.47,16.47,0,0,1,100,16.47V83.53A16.47,16.47,0,0,1,83.53,100ZM59.9,86.21H50.23l6.83-7a22.74,22.74,0,0,0,4-5.41,12.21,12.21,0,0,0,1.18-5.36,8.8,8.8,0,0,0-1.47-5,9.46,9.46,0,0,0-4.16-3.37,15.6,15.6,0,0,0-6.26-1.18,18.76,18.76,0,0,0-5.55.87,19,19,0,0,0-5.08,2.4,3.19,3.19,0,0,0-1.17,1.26,4,4,0,0,0-.32,1.73,4.18,4.18,0,0,0,.82,2.57,2.46,2.46,0,0,0,2,1.08,3,3,0,0,0,.91-.14,6,6,0,0,0,1-.46l.75-.41,1-.48a24.41,24.41,0,0,1,2.72-1.18A7.83,7.83,0,0,1,50,65.71a3.8,3.8,0,0,1,2.67.87,3.22,3.22,0,0,1,.94,2.5q0,2.79-3.18,6.11L40.23,85.82a5.22,5.22,0,0,0-1.64,3.75,3.52,3.52,0,0,0,3.75,3.66H59.9a4.81,4.81,0,0,0,3.15-.87,3.29,3.29,0,0,0,1-2.69,3.17,3.17,0,0,0-1-2.62A4.94,4.94,0,0,0,59.9,86.21Zm-.55-52h-4V11.38a4.14,4.14,0,0,0-1.18-3.12,4.23,4.23,0,0,0-3.1-1.16,8.13,8.13,0,0,0-4,1.2l-7.7,4.48a3.26,3.26,0,0,0-1.68,3,4,4,0,0,0,1,2.62A2.88,2.88,0,0,0,41,19.56a3.25,3.25,0,0,0,1.68-.48l3.85-2.26V34.18H42.66a4.8,4.8,0,0,0-3.18.87,3.25,3.25,0,0,0-1,2.6q0,3.56,4.19,3.56H59.35q4.18,0,4.18-3.56a3.21,3.21,0,0,0-1-2.6A4.78,4.78,0,0,0,59.35,34.18ZM71.62,49.65h0a3.13,3.13,0,0,0-3.13-3.12h-37a3.13,3.13,0,0,0-3.13,3.12h0a3.13,3.13,0,0,0,3.13,3.13h37A3.13,3.13,0,0,0,71.62,49.65Z"/></svg>