<svg id="Layer_1" data-name="Layer 1" xmlns="http://www.w3.org/2000/svg" viewBox="0 0 100 100"><title>l24_1_1</title><path d="M83.53,100H16.47A16.47,16.47,0,0,1,0,83.53V16.47A16.47,16.47,0,0,1,16.47,0H83.53A16.47,16.47,0,0,1,100,16.47V83.53A16.47,16.47,0,0,1,83.53,100ZM45.23,31.42H25.32a5,5,0,0,0-3.35.94,3.56,3.56,0,0,0-1.07,2.82A3.44,3.44,0,0,0,22,37.92a5,5,0,0,0,3.37.91H38L25,61.12a4.78,4.78,0,0,0-.71,2.44,3.7,3.7,0,0,0,1.37,2.92,4.61,4.61,0,0,0,3.14,1.19,4.32,4.32,0,0,0,2.16-.58,4.67,4.67,0,0,0,1.75-1.8L48.07,38.63a6.51,6.51,0,0,0,1-3.35,3.93,3.93,0,0,0-1-2.77A3.58,3.58,0,0,0,45.23,31.42ZM65.44,67.67q6.65,0,10.15-4.72T79.1,49.29q0-8.88-3.53-13.61T65.44,31q-6.66,0-10.16,4.72t-3.5,13.61q0,8.94,3.5,13.66T65.44,67.67Zm0-7.05A3.64,3.64,0,0,1,61.93,58q-1.07-2.64-1.06-8.69t1.06-8.65a3.65,3.65,0,0,1,7,0Q70,43.3,70,49.29T68.94,58A3.64,3.64,0,0,1,65.44,60.62Z"/></svg>