<svg id="Layer_1" data-name="Layer 1" xmlns="http://www.w3.org/2000/svg" viewBox="0 0 100 100"><title>l24_2_1</title><path d="M83.66,100H16.59A16.46,16.46,0,0,1,.13,83.53V16.47A16.46,16.46,0,0,1,16.59,0H83.66a16.47,16.47,0,0,1,16.47,16.47V83.53A16.47,16.47,0,0,1,83.66,100ZM57.84,48.79a7.69,7.69,0,0,0,4-3,8.85,8.85,0,0,0,1.45-5.08,8.4,8.4,0,0,0-3.53-7.13Q56.21,31,50.13,31t-9.6,2.62A8.38,8.38,0,0,0,37,40.71a8.61,8.61,0,0,0,1.43,4.95,8.32,8.32,0,0,0,4.06,3.13,8.42,8.42,0,0,0-4.78,3A9,9,0,0,0,36,57.37a8.77,8.77,0,0,0,3.78,7.54q3.78,2.72,10.34,2.71t10.33-2.71a8.77,8.77,0,0,0,3.78-7.54,8.35,8.35,0,0,0-6.4-8.58ZM50.13,60.57c-3.7,0-5.54-1.32-5.54-4s1.84-4,5.54-4,5.53,1.32,5.53,4S53.81,60.57,50.13,60.57Zm0-22.55a5.44,5.44,0,0,1,3.4.89,3.46,3.46,0,0,1,1.11,2.87,3.53,3.53,0,0,1-1.11,2.89,5.31,5.31,0,0,1-3.4.92,5.32,5.32,0,0,1-3.41-.92,3.53,3.53,0,0,1-1.11-2.89,3.46,3.46,0,0,1,1.11-2.87A5.45,5.45,0,0,1,50.13,38Z"/></svg>