<svg id="Layer_1" data-name="Layer 1" xmlns="http://www.w3.org/2000/svg" viewBox="0 0 100 100"><title>l24_5_1</title><path d="M83.58,100.27H16.51A16.46,16.46,0,0,1,.05,83.81V16.74A16.47,16.47,0,0,1,16.51.27H83.58a16.48,16.48,0,0,1,16.47,16.47V83.81A16.47,16.47,0,0,1,83.58,100.27ZM45.05,86.48H41.1V63.68a4.14,4.14,0,0,0-1.18-3.12,4.23,4.23,0,0,0-3.1-1.16,8.13,8.13,0,0,0-4,1.2l-7.7,4.48a3.26,3.26,0,0,0-1.68,3,4,4,0,0,0,1,2.62,2.88,2.88,0,0,0,2.31,1.18,3.25,3.25,0,0,0,1.68-.48l3.85-2.26V86.48h-3.9a4.78,4.78,0,0,0-3.17.87,3.25,3.25,0,0,0-1,2.6q0,3.55,4.18,3.56h16.7c2.78,0,4.18-1.19,4.18-3.56a3.25,3.25,0,0,0-1-2.6A4.78,4.78,0,0,0,45.05,86.48Zm18.66,7.46q6.3,0,9.62-4.48t3.32-12.93c0-5.62-1.12-9.91-3.35-12.9s-5.42-4.47-9.59-4.47-7.41,1.49-9.62,4.47-3.32,7.28-3.32,12.9,1.11,10,3.32,12.93S59.51,93.94,63.71,93.94Zm0-6.69a3.44,3.44,0,0,1-3.32-2.5q-1-2.5-1-8.22c0-3.82.34-6.55,1-8.21a3.46,3.46,0,0,1,6.64,0c.67,1.67,1,4.39,1,8.18s-.34,6.55-1,8.22A3.45,3.45,0,0,1,63.71,87.25Zm-5-52.79H54.81V11.66a4.16,4.16,0,0,0-1.18-3.13,4.23,4.23,0,0,0-3.1-1.15,8.13,8.13,0,0,0-4,1.2l-7.7,4.47a3.28,3.28,0,0,0-1.68,3,4.06,4.06,0,0,0,1,2.62,2.91,2.91,0,0,0,2.31,1.18,3.31,3.31,0,0,0,1.68-.48L46,17.09V34.46h-3.9a4.84,4.84,0,0,0-3.17.86,3.23,3.23,0,0,0-1,2.6c0,2.38,1.39,3.56,4.18,3.56H58.75c2.79,0,4.19-1.18,4.19-3.56a3.26,3.26,0,0,0-1-2.6A4.85,4.85,0,0,0,58.75,34.46ZM71.67,49.93h0a3.13,3.13,0,0,0-3.13-3.13h-37a3.13,3.13,0,0,0-3.13,3.13h0a3.13,3.13,0,0,0,3.13,3.13h37A3.13,3.13,0,0,0,71.67,49.93Z"/></svg>