<svg id="Layer_1" data-name="Layer 1" xmlns="http://www.w3.org/2000/svg" viewBox="0 0 100 100"><title>l24_4_1</title><path d="M83.52,100H16.45A16.46,16.46,0,0,1,0,83.53V16.47A16.46,16.46,0,0,1,16.45,0H83.52A16.47,16.47,0,0,1,100,16.47V83.53A16.47,16.47,0,0,1,83.52,100Zm-50-69a13.11,13.11,0,0,0-6.45,1.58,11.36,11.36,0,0,0-4.44,4.39,12.64,12.64,0,0,0-1.6,6.37,12.67,12.67,0,0,0,1.4,6,10.41,10.41,0,0,0,3.83,4.16A10.23,10.23,0,0,0,31.78,55,9.7,9.7,0,0,0,36.07,54a8,8,0,0,0,3.13-2.56,13.5,13.5,0,0,1-1.91,6.62,4.84,4.84,0,0,1-4.19,2.36,6.75,6.75,0,0,1-2.33-.4c-.75-.27-1.68-.68-2.8-1.22l-1.11-.56c-.65-.34-1.15-.58-1.53-.73a3.15,3.15,0,0,0-1.26-.23,2.68,2.68,0,0,0-2.16,1.09A4,4,0,0,0,21,61.07a3.78,3.78,0,0,0,.38,1.78,4.34,4.34,0,0,0,1.24,1.37,16.19,16.19,0,0,0,5.11,2.54,19.65,19.65,0,0,0,5.81.92,13.82,13.82,0,0,0,7.9-2.29,14.83,14.83,0,0,0,5.23-6.52,24.75,24.75,0,0,0,1.85-9.93q0-8.64-3.91-13.31T33.56,31Zm.56,16.81A4,4,0,0,1,31,46.47,5.08,5.08,0,0,1,29.8,43,5.1,5.1,0,0,1,31,39.44a4,4,0,0,1,3.15-1.32,4.07,4.07,0,0,1,3.15,1.35A5,5,0,0,1,38.49,43a5,5,0,0,1-1.2,3.5A4.05,4.05,0,0,1,34.12,47.77ZM65.3,67.68q6.65,0,10.15-4.73T79,49.29q0-8.88-3.53-13.61T65.3,31q-6.66,0-10.16,4.72t-3.5,13.61q0,8.94,3.5,13.66T65.3,67.68Zm0-7.06A3.64,3.64,0,0,1,61.79,58q-1.07-2.64-1.06-8.69t1.06-8.65a3.65,3.65,0,0,1,7,0q1.07,2.64,1.07,8.63T68.8,58A3.64,3.64,0,0,1,65.3,60.62Z"/></svg>