<svg id="Layer_1" data-name="Layer 1" xmlns="http://www.w3.org/2000/svg" viewBox="0 0 100 100"><title>l24_4_1</title><path d="M83.22,100H16.16A16.47,16.47,0,0,1-.31,83.53V16.47A16.47,16.47,0,0,1,16.16,0H83.22A16.47,16.47,0,0,1,99.69,16.47V83.53A16.47,16.47,0,0,1,83.22,100ZM57.41,48.79a7.67,7.67,0,0,0,4-3,8.78,8.78,0,0,0,1.45-5.08,8.4,8.4,0,0,0-3.53-7.13Q55.79,31,49.69,31t-9.6,2.62a8.37,8.37,0,0,0-3.55,7.13A8.6,8.6,0,0,0,38,45.66,8.36,8.36,0,0,0,42,48.79a8.42,8.42,0,0,0-4.77,3,8.9,8.9,0,0,0-1.68,5.56,8.76,8.76,0,0,0,3.79,7.54q3.78,2.72,10.33,2.71T60,64.91a8.77,8.77,0,0,0,3.78-7.54,8.35,8.35,0,0,0-6.39-8.58ZM49.69,60.57q-5.53,0-5.54-4t5.54-4q5.54,0,5.53,4T49.69,60.57Zm0-22.55a5.42,5.42,0,0,1,3.4.89,3.43,3.43,0,0,1,1.12,2.87,3.5,3.5,0,0,1-1.12,2.89,5.29,5.29,0,0,1-3.4.92,5.29,5.29,0,0,1-3.4-.92,3.5,3.5,0,0,1-1.12-2.89,3.43,3.43,0,0,1,1.12-2.87A5.42,5.42,0,0,1,49.69,38Z"/></svg>