<svg id="Layer_1" data-name="Layer 1" xmlns="http://www.w3.org/2000/svg" viewBox="0 0 100 100"><title>l24_3_1</title><path d="M83.68,100H16.62A16.47,16.47,0,0,1,.15,83.53V16.47A16.47,16.47,0,0,1,16.62,0H83.68a16.47,16.47,0,0,1,16.47,16.47V83.53A16.47,16.47,0,0,1,83.68,100ZM18.93,67.6a9.82,9.82,0,0,0,8.4-3.91q2.9-3.9,2.9-11.3T27.31,41.14a9.82,9.82,0,0,0-8.38-3.91,9.8,9.8,0,0,0-8.4,3.91Q7.64,45,7.63,52.39t2.9,11.3A9.82,9.82,0,0,0,18.93,67.6Zm0-5.84A3,3,0,0,1,16,59.57a20.84,20.84,0,0,1-.88-7.18A20.67,20.67,0,0,1,16,45.23a3,3,0,0,1,5.8,0,20.73,20.73,0,0,1,.88,7.14,20.84,20.84,0,0,1-.88,7.18A3,3,0,0,1,18.93,61.76Zm18.31,5.71a3.85,3.85,0,0,0,2.88-1.18,4.22,4.22,0,0,0,0-5.79,3.85,3.85,0,0,0-2.88-1.18,3.91,3.91,0,0,0-2.92,1.18,4.22,4.22,0,0,0,0,5.79A3.91,3.91,0,0,0,37.24,67.47Zm26.13-6.38H54.92l6-6.09a19.66,19.66,0,0,0,3.5-4.73,10.5,10.5,0,0,0,1-4.68,7.65,7.65,0,0,0-1.28-4.39,8.21,8.21,0,0,0-3.63-2.94,13.47,13.47,0,0,0-5.46-1A16.23,16.23,0,0,0,50.2,38a16,16,0,0,0-4.43,2.1,2.7,2.7,0,0,0-1,1.09,4.08,4.08,0,0,0,.44,3.76,2.13,2.13,0,0,0,1.76.94,2.63,2.63,0,0,0,.8-.12,5.73,5.73,0,0,0,.86-.4l.65-.36.84-.42a20.4,20.4,0,0,1,2.38-1,6.7,6.7,0,0,1,2.24-.36A3.32,3.32,0,0,1,57,44a2.8,2.8,0,0,1,.82,2.18q0,2.44-2.77,5.34l-8.9,9.28A4.61,4.61,0,0,0,44.76,64a3.11,3.11,0,0,0,.88,2.28,3.18,3.18,0,0,0,2.4.91H63.37a4.2,4.2,0,0,0,2.75-.76,2.9,2.9,0,0,0,.9-2.35,2.78,2.78,0,0,0-.9-2.29A4.32,4.32,0,0,0,63.37,61.09ZM82.85,47.86a10.53,10.53,0,0,0-4.15.75V43.45h9.07q3.65,0,3.65-2.94c0-1.94-1.22-2.9-3.65-2.9h-13a3.62,3.62,0,0,0-2.65.92,3.67,3.67,0,0,0-.92,2.69V52.6a2.28,2.28,0,0,0,.8,1.83,2.9,2.9,0,0,0,2,.69,4,4,0,0,0,1.89-.46,15.37,15.37,0,0,1,2.41-.76,11.52,11.52,0,0,1,2.29-.21,4.75,4.75,0,0,1,3.28,1.05A3.75,3.75,0,0,1,85,57.68a3.61,3.61,0,0,1-1.14,3,5.36,5.36,0,0,1-3.48,1A7.09,7.09,0,0,1,78,61.21a23.55,23.55,0,0,1-2.37-1l-.84-.42q-.84-.45-1.26-.63a2.9,2.9,0,0,0-1-.16,2.16,2.16,0,0,0-1.76.9,3.42,3.42,0,0,0-.72,2.2,3.1,3.1,0,0,0,.32,1.45,3.74,3.74,0,0,0,1,1.16,14,14,0,0,0,4.3,2.1,17.69,17.69,0,0,0,5.1.75,13.65,13.65,0,0,0,6-1.26,9.41,9.41,0,0,0,4-3.57,9.93,9.93,0,0,0,1.43-5.33,10.14,10.14,0,0,0-1.2-5,8.52,8.52,0,0,0-3.32-3.36A9.76,9.76,0,0,0,82.85,47.86Z"/></svg>