<svg id="Layer_1" data-name="Layer 1" xmlns="http://www.w3.org/2000/svg" viewBox="0 0 100 100"><title>l24_1_1</title><path d="M83.74,100H16.67A16.47,16.47,0,0,1,.2,83.53V16.47A16.47,16.47,0,0,1,16.67,0H83.74A16.46,16.46,0,0,1,100.2,16.47V83.53A16.46,16.46,0,0,1,83.74,100ZM41.57,48.79a8.27,8.27,0,0,0,4-3.08,8.44,8.44,0,0,0,1.44-4.9,8.89,8.89,0,0,0-1.54-5.18,10,10,0,0,0-4.42-3.45A16.86,16.86,0,0,0,34.46,31a20.36,20.36,0,0,0-6,.92,16.75,16.75,0,0,0-5.15,2.54,4,4,0,0,0-1.22,1.37,3.88,3.88,0,0,0-.35,1.77,4.15,4.15,0,0,0,.86,2.67,2.61,2.61,0,0,0,2.13,1.09A3.16,3.16,0,0,0,26,41.09c.37-.15.88-.39,1.53-.73l1.06-.51a26.33,26.33,0,0,1,2.77-1.22A7.78,7.78,0,0,1,34,38.17a4.38,4.38,0,0,1,3.1,1,3.79,3.79,0,0,1,1.12,2.92A2.83,2.83,0,0,1,37,44.72a7.78,7.78,0,0,1-4.06.82H30.65a2.89,2.89,0,0,0-2.38,1.06,4.14,4.14,0,0,0,0,5.08,2.89,2.89,0,0,0,2.38,1.07H33.8a7.63,7.63,0,0,1,4.17.86,3.2,3.2,0,0,1,1.27,2.84,3.53,3.53,0,0,1-1.25,3,7,7,0,0,1-4.09.91A9.19,9.19,0,0,1,31,60a23.82,23.82,0,0,1-2.92-1.24l-.63-.28L27,58.23c-.65-.34-1.15-.58-1.53-.74a3.35,3.35,0,0,0-1.27-.22A2.63,2.63,0,0,0,22,58.36,4.18,4.18,0,0,0,21.16,61a4.08,4.08,0,0,0,.35,1.75,4,4,0,0,0,1.22,1.4A16.44,16.44,0,0,0,28,66.74a22.65,22.65,0,0,0,6.35.88,19.09,19.09,0,0,0,7.19-1.24,10.69,10.69,0,0,0,4.74-3.53A8.83,8.83,0,0,0,48,57.47a9.05,9.05,0,0,0-1.7-5.54A8.63,8.63,0,0,0,41.57,48.79Zm24,18.89q6.64,0,10.15-4.73t3.51-13.66q0-8.88-3.53-13.61T65.59,31q-6.66,0-10.16,4.72t-3.5,13.61q0,8.94,3.5,13.66T65.59,67.68Zm0-7.06A3.65,3.65,0,0,1,62.08,58Q61,55.34,61,49.29t1.06-8.65a3.65,3.65,0,0,1,7,0q1.06,2.64,1.07,8.63T69.09,58A3.64,3.64,0,0,1,65.59,60.62Z"/></svg>