<svg id="Layer_1" data-name="Layer 1" xmlns="http://www.w3.org/2000/svg" viewBox="0 0 100 100"><title>l24_4_1</title><path d="M83.22,100H16.16A16.47,16.47,0,0,1-.31,83.53V16.47A16.47,16.47,0,0,1,16.16,0H83.22A16.47,16.47,0,0,1,99.69,16.47V83.53A16.47,16.47,0,0,1,83.22,100ZM42.4,48.79a7.69,7.69,0,0,0,4-3,8.85,8.85,0,0,0,1.45-5.08,8.4,8.4,0,0,0-3.53-7.13C42,31.83,38.75,31,34.68,31s-7.22.87-9.59,2.62a8.38,8.38,0,0,0-3.56,7.13A8.67,8.67,0,0,0,23,45.66,8.39,8.39,0,0,0,27,48.79a8.42,8.42,0,0,0-4.78,3,9,9,0,0,0-1.67,5.56,8.77,8.77,0,0,0,3.78,7.54q3.78,2.72,10.33,2.71T45,64.91a8.77,8.77,0,0,0,3.78-7.54,8.35,8.35,0,0,0-6.4-8.58ZM34.68,60.57q-5.54,0-5.53-4t5.53-4q5.53,0,5.54,4T34.68,60.57Zm0-22.55a5.45,5.45,0,0,1,3.41.89,3.46,3.46,0,0,1,1.11,2.87,3.53,3.53,0,0,1-1.11,2.89,5.32,5.32,0,0,1-3.41.92,5.31,5.31,0,0,1-3.4-.92,3.53,3.53,0,0,1-1.12-2.89,3.46,3.46,0,0,1,1.12-2.87A5.44,5.44,0,0,1,34.68,38ZM65.15,67.68q6.66,0,10.16-4.73t3.5-13.66q0-8.88-3.53-13.6T65.15,31Q58.51,31,55,35.69t-3.51,13.6Q51.49,58.23,55,63T65.15,67.68Zm0-7.06A3.64,3.64,0,0,1,61.65,58q-1.07-2.64-1.07-8.69c0-4,.36-6.91,1.07-8.65a3.64,3.64,0,0,1,7,0c.72,1.76,1.07,4.64,1.07,8.63s-.35,6.93-1.07,8.69A3.63,3.63,0,0,1,65.15,60.62Z"/></svg>