<svg id="Layer_1" data-name="Layer 1" xmlns="http://www.w3.org/2000/svg" viewBox="0 0 100 100"><title>l24_2_1</title><path d="M83.53,100H16.47A16.47,16.47,0,0,1,0,83.53V16.47A16.47,16.47,0,0,1,16.47,0H83.53A16.47,16.47,0,0,1,100,16.47V83.53A16.47,16.47,0,0,1,83.53,100ZM26.13,48.79a8.23,8.23,0,0,0,4-3.08,8.38,8.38,0,0,0,1.45-4.9,8.9,8.9,0,0,0-1.55-5.18,9.92,9.92,0,0,0-4.42-3.45A16.85,16.85,0,0,0,19,31a20.31,20.31,0,0,0-6,.92,16.64,16.64,0,0,0-5.15,2.54,3.92,3.92,0,0,0-1.22,1.37,3.87,3.87,0,0,0-.36,1.77,4.21,4.21,0,0,0,.86,2.67,2.63,2.63,0,0,0,2.14,1.09,3.23,3.23,0,0,0,1.27-.23c.37-.15.88-.39,1.52-.73l1.06-.51a26.33,26.33,0,0,1,2.77-1.22,7.8,7.8,0,0,1,2.67-.46,4.4,4.4,0,0,1,3.1,1,3.82,3.82,0,0,1,1.11,2.92,2.83,2.83,0,0,1-1.27,2.59,7.76,7.76,0,0,1-4.06.82H15.22a2.91,2.91,0,0,0-2.39,1.06,4.18,4.18,0,0,0,0,5.08,2.91,2.91,0,0,0,2.39,1.07h3.15a7.61,7.61,0,0,1,4.16.86,3.18,3.18,0,0,1,1.27,2.84,3.53,3.53,0,0,1-1.25,3,7,7,0,0,1-4.08.91A9.1,9.1,0,0,1,15.55,60a22.58,22.58,0,0,1-2.92-1.24L12,58.46l-.48-.23c-.64-.34-1.15-.58-1.52-.74a3.38,3.38,0,0,0-1.27-.22,2.6,2.6,0,0,0-2.13,1.09A4.13,4.13,0,0,0,5.72,61a3.93,3.93,0,0,0,.36,1.75,3.83,3.83,0,0,0,1.22,1.4,16.44,16.44,0,0,0,5.28,2.57,22.58,22.58,0,0,0,6.34.88,19.06,19.06,0,0,0,7.19-1.24,10.72,10.72,0,0,0,4.75-3.53,8.89,8.89,0,0,0,1.67-5.38,9.05,9.05,0,0,0-1.7-5.54A8.6,8.6,0,0,0,26.13,48.79Zm24,18.89q6.66,0,10.16-4.73t3.5-13.66q0-8.88-3.53-13.61T50.15,31Q43.51,31,40,35.68T36.49,49.29Q36.49,58.23,40,63T50.15,67.68Zm0-7.06A3.64,3.64,0,0,1,46.65,58q-1.07-2.64-1.07-8.69t1.07-8.65a3.65,3.65,0,0,1,7,0q1.06,2.64,1.06,8.63T53.66,58A3.64,3.64,0,0,1,50.15,60.62Zm30.47,7.06q6.64,0,10.15-4.73t3.51-13.66q0-8.88-3.53-13.61T80.62,31Q74,31,70.46,35.68T67,49.29q0,8.94,3.5,13.66T80.62,67.68Zm0-7.06A3.63,3.63,0,0,1,77.12,58c-.72-1.76-1.07-4.66-1.07-8.69s.35-6.91,1.07-8.65a3.64,3.64,0,0,1,7,0q1.06,2.64,1.07,8.63T84.12,58A3.64,3.64,0,0,1,80.62,60.62Z"/></svg>