<svg id="Layer_1" data-name="Layer 1" xmlns="http://www.w3.org/2000/svg" viewBox="0 0 100 100"><title>l24_2_1</title><path d="M83.41,100.34H16.34A16.48,16.48,0,0,1-.13,83.87V16.8A16.47,16.47,0,0,1,16.34.34H83.41A16.46,16.46,0,0,1,99.87,16.8V83.87A16.47,16.47,0,0,1,83.41,100.34ZM29.87,31.76H10a5,5,0,0,0-3.35.93,3.58,3.58,0,0,0-1.07,2.82,3.49,3.49,0,0,0,1,2.75,5.14,5.14,0,0,0,3.38.91h12.7l-13,22.29A4.75,4.75,0,0,0,8.9,63.9a3.72,3.72,0,0,0,1.37,2.92A4.66,4.66,0,0,0,13.41,68a4.32,4.32,0,0,0,2.16-.58,4.7,4.7,0,0,0,1.75-1.81L32.71,39a6.53,6.53,0,0,0,1-3.36,4,4,0,0,0-1-2.76A3.6,3.6,0,0,0,29.87,31.76ZM50.08,68q6.64,0,10.15-4.72t3.51-13.66q0-8.88-3.53-13.61T50.08,31.3q-6.66,0-10.16,4.72t-3.5,13.61q0,8.94,3.5,13.66T50.08,68Zm0-7.06a3.64,3.64,0,0,1-3.51-2.64q-1.07-2.64-1.07-8.68c0-4,.36-6.91,1.07-8.66a3.65,3.65,0,0,1,7,0q1.06,2.64,1.07,8.63t-1.07,8.68A3.64,3.64,0,0,1,50.08,61ZM80.54,68q6.66,0,10.16-4.72t3.5-13.66q0-8.88-3.53-13.61T80.54,31.3Q73.9,31.3,70.39,36T66.88,49.63q0,8.94,3.51,13.66T80.54,68Zm0-7.06A3.64,3.64,0,0,1,77,58.31Q76,55.67,76,49.63c0-4,.36-6.91,1.07-8.66a3.65,3.65,0,0,1,7,0q1.07,2.64,1.06,8.63t-1.06,8.68A3.65,3.65,0,0,1,80.54,61Z"/></svg>