<svg id="Layer_1" data-name="Layer 1" xmlns="http://www.w3.org/2000/svg" viewBox="0 0 100 100"><title>l24_3_1</title><path d="M83.4,100.43H16.33A16.48,16.48,0,0,1-.14,84V16.89A16.47,16.47,0,0,1,16.33.43H83.4A16.46,16.46,0,0,1,99.86,16.89V84A16.47,16.47,0,0,1,83.4,100.43ZM60.21,81.2H59.15V63.83a4.1,4.1,0,0,0-1.3-3.22,4.55,4.55,0,0,0-3.13-1.15,4.76,4.76,0,0,0-2.14.5,4.49,4.49,0,0,0-1.71,1.47L37.12,81.05a5.39,5.39,0,0,0-1.06,3.18,3.55,3.55,0,0,0,3.75,3.7H50.54v1.64a4.26,4.26,0,0,0,1.18,3.27A4.33,4.33,0,0,0,54.82,94a4.41,4.41,0,0,0,3.12-1.11,4.21,4.21,0,0,0,1.21-3.27V87.93h1.06q4.18,0,4.18-3.41C64.39,82.3,63,81.2,60.21,81.2Zm-15.44,0,5.77-8.32V81.2ZM60.06,34.61H56.12V11.81a4.22,4.22,0,0,0-1.18-3.13,4.24,4.24,0,0,0-3.1-1.15,8.14,8.14,0,0,0-4,1.2L40.15,13.2a3.27,3.27,0,0,0-1.69,3,4.06,4.06,0,0,0,1,2.62A2.94,2.94,0,0,0,41.73,20a3.31,3.31,0,0,0,1.69-.48l3.85-2.26V34.61h-3.9a4.83,4.83,0,0,0-3.18.87,3.22,3.22,0,0,0-1,2.59c0,2.38,1.4,3.56,4.19,3.56H60.06c2.79,0,4.19-1.18,4.19-3.56a3.22,3.22,0,0,0-1-2.59A4.83,4.83,0,0,0,60.06,34.61ZM71.48,50.08h0A3.13,3.13,0,0,0,68.35,47h-37a3.13,3.13,0,0,0-3.13,3.13h0a3.13,3.13,0,0,0,3.13,3.13h37A3.13,3.13,0,0,0,71.48,50.08Z"/></svg>