<svg id="Layer_1" data-name="Layer 1" xmlns="http://www.w3.org/2000/svg" viewBox="0 0 100 100"><title>l24_2_1</title><path d="M83.53,100H16.47A16.47,16.47,0,0,1,0,83.53V16.47A16.47,16.47,0,0,1,16.47,0H83.53A16.47,16.47,0,0,1,100,16.47V83.53A16.47,16.47,0,0,1,83.53,100ZM52.08,43.81a12.73,12.73,0,0,0-5,.91V38.48H58q4.42,0,4.42-3.56T58,31.42H42.28a4.32,4.32,0,0,0-3.2,1.12A4.4,4.4,0,0,0,38,35.79V49.55a2.8,2.8,0,0,0,1,2.21,3.55,3.55,0,0,0,2.39.83A4.86,4.86,0,0,0,43.6,52a18.23,18.23,0,0,1,2.92-.92,13.84,13.84,0,0,1,2.77-.25,5.73,5.73,0,0,1,4,1.27,4.5,4.5,0,0,1,1.42,3.55,4.4,4.4,0,0,1-1.37,3.58,6.49,6.49,0,0,1-4.21,1.14A8.51,8.51,0,0,1,46.27,60a28.45,28.45,0,0,1-2.87-1.22l-1-.51a13.91,13.91,0,0,0-1.52-.76,3.35,3.35,0,0,0-1.27-.2,2.6,2.6,0,0,0-2.13,1.09A4.11,4.11,0,0,0,36.59,61,3.68,3.68,0,0,0,37,62.77a4.37,4.37,0,0,0,1.19,1.4,16.81,16.81,0,0,0,5.2,2.54,21.19,21.19,0,0,0,6.17.91A16.36,16.36,0,0,0,56.8,66.1a11.42,11.42,0,0,0,4.88-4.32,12,12,0,0,0,1.73-6.44,12.27,12.27,0,0,0-1.45-6,10.3,10.3,0,0,0-4-4.06A11.69,11.69,0,0,0,52.08,43.81Z"/></svg>