<svg id="Layer_1" data-name="Layer 1" xmlns="http://www.w3.org/2000/svg" viewBox="0 0 100 100"><title>l24_4_1</title><path d="M83.2,100H16.13A16.47,16.47,0,0,1-.34,83.53V16.47A16.47,16.47,0,0,1,16.13,0H83.2A16.46,16.46,0,0,1,99.66,16.47V83.53A16.46,16.46,0,0,1,83.2,100ZM45.81,54.06H44.69V35.73a4.33,4.33,0,0,0-1.37-3.4A4.83,4.83,0,0,0,40,31.11a5,5,0,0,0-2.26.54A4.72,4.72,0,0,0,36,33.19L21.43,53.91a5.72,5.72,0,0,0-1.11,3.35,3.91,3.91,0,0,0,1.06,2.8,3.83,3.83,0,0,0,2.9,1.11H35.6V62.9a4.51,4.51,0,0,0,1.24,3.45,4.59,4.59,0,0,0,3.28,1.17,4.69,4.69,0,0,0,3.3-1.17,4.45,4.45,0,0,0,1.27-3.45V61.17h1.12q4.41,0,4.41-3.6T45.81,54.06Zm-16.3,0,6.09-8.78v8.78ZM65.36,67.67Q72,67.67,75.51,63T79,49.29q0-8.88-3.52-13.61T65.36,31Q58.7,31,55.2,35.68T51.7,49.29q0,8.94,3.5,13.66T65.36,67.67Zm0-7.06A3.64,3.64,0,0,1,61.85,58c-.71-1.75-1.07-4.65-1.07-8.68s.36-6.91,1.07-8.66a3.65,3.65,0,0,1,7,0q1.06,2.64,1.07,8.63c0,4-.36,6.93-1.07,8.68A3.64,3.64,0,0,1,65.36,60.61Z"/></svg>