<svg id="Layer_1" data-name="Layer 1" xmlns="http://www.w3.org/2000/svg" viewBox="0 0 100 100"><title>l24_3_1</title><path d="M83.53,100.15H16.47A16.47,16.47,0,0,1,0,83.68V16.62A16.47,16.47,0,0,1,16.47.15H83.53A16.47,16.47,0,0,1,100,16.62V83.68A16.47,16.47,0,0,1,83.53,100.15ZM59.19,58.87H55V34.8a4.42,4.42,0,0,0-1.25-3.3,4.49,4.49,0,0,0-3.27-1.22,8.67,8.67,0,0,0-4.22,1.27l-8.12,4.72a3.46,3.46,0,0,0-1.78,3.15,4.26,4.26,0,0,0,1,2.77,3,3,0,0,0,2.43,1.24,3.53,3.53,0,0,0,1.78-.5l4.06-2.39V58.87H41.57a5.08,5.08,0,0,0-3.35.91,3.43,3.43,0,0,0-1.07,2.75c0,2.5,1.48,3.75,4.42,3.75H59.19q4.43,0,4.42-3.75a3.43,3.43,0,0,0-1.07-2.75A5.08,5.08,0,0,0,59.19,58.87Z"/></svg>