<svg id="Layer_1" data-name="Layer 1" xmlns="http://www.w3.org/2000/svg" viewBox="0 0 100 100"><title>l24_5_1</title><path d="M83.58,100.15H16.51A16.46,16.46,0,0,1,.05,83.68V16.62A16.46,16.46,0,0,1,16.51.15H83.58a16.47,16.47,0,0,1,16.47,16.47V83.68A16.47,16.47,0,0,1,83.58,100.15ZM52.89,71.06a9.3,9.3,0,0,0-4.07.89,7.81,7.81,0,0,0-3,2.43,12.81,12.81,0,0,1,1.81-6.28,4.59,4.59,0,0,1,4-2.23,6.64,6.64,0,0,1,2.22.38c.7.26,1.58.64,2.64,1.16l1.06.53q.91.48,1.44.69a3.11,3.11,0,0,0,1.21.22,2.54,2.54,0,0,0,2-1,3.9,3.9,0,0,0,.84-2.53,3.54,3.54,0,0,0-.36-1.68,4,4,0,0,0-1.18-1.3,15.29,15.29,0,0,0-4.83-2.41A18.91,18.91,0,0,0,51.2,59a13,13,0,0,0-7.48,2.16,14,14,0,0,0-4.95,6.18A23.37,23.37,0,0,0,37,76.79q0,8.17,3.7,12.6T51.2,93.81a12.34,12.34,0,0,0,6.11-1.49,10.66,10.66,0,0,0,4.21-4.16,12.88,12.88,0,0,0,.19-11.73,9.91,9.91,0,0,0-3.63-4A9.77,9.77,0,0,0,52.89,71.06ZM50.67,87a3.83,3.83,0,0,1-3-1.27,5.38,5.38,0,0,1,0-6.62,3.85,3.85,0,0,1,3-1.25,3.8,3.8,0,0,1,3,1.23,5.63,5.63,0,0,1,0,6.66A3.78,3.78,0,0,1,50.67,87Zm8.08-52.69H54.81V11.54a4.16,4.16,0,0,0-1.18-3.13,4.23,4.23,0,0,0-3.1-1.16,8.16,8.16,0,0,0-4,1.21l-7.7,4.47a3.27,3.27,0,0,0-1.68,3,4,4,0,0,0,1,2.62,2.88,2.88,0,0,0,2.31,1.18,3.31,3.31,0,0,0,1.68-.48L46,17V34.34h-3.9a4.79,4.79,0,0,0-3.17.86,3.21,3.21,0,0,0-1,2.6q0,3.56,4.18,3.56H58.75q4.19,0,4.19-3.56a3.25,3.25,0,0,0-1-2.6A4.8,4.8,0,0,0,58.75,34.34ZM71.67,49.81h0a3.13,3.13,0,0,0-3.13-3.13h-37a3.13,3.13,0,0,0-3.13,3.13h0a3.13,3.13,0,0,0,3.13,3.12h37A3.13,3.13,0,0,0,71.67,49.81Z"/></svg>