<svg id="Layer_1" data-name="Layer 1" xmlns="http://www.w3.org/2000/svg" viewBox="0 0 100 100"><title>l24_4_1</title><path d="M83.22,100H16.16A16.47,16.47,0,0,1-.31,83.53V16.47A16.47,16.47,0,0,1,16.16,0H83.22A16.47,16.47,0,0,1,99.69,16.47V83.53A16.47,16.47,0,0,1,83.22,100ZM37.53,43.66a9.7,9.7,0,0,0-4.29.94,8,8,0,0,0-3.13,2.56A13.58,13.58,0,0,1,32,40.53a4.86,4.86,0,0,1,4.19-2.36,6.76,6.76,0,0,1,2.33.41c.75.27,1.68.68,2.8,1.22l1.11.56c.65.34,1.15.58,1.53.73a3.34,3.34,0,0,0,1.27.23,2.68,2.68,0,0,0,2.15-1.09,4.06,4.06,0,0,0,.89-2.67,3.62,3.62,0,0,0-.38-1.77,4.47,4.47,0,0,0-1.24-1.38,16.29,16.29,0,0,0-5.11-2.53A19.65,19.65,0,0,0,35.75,31a13.72,13.72,0,0,0-7.9,2.29,14.83,14.83,0,0,0-5.23,6.52,24.75,24.75,0,0,0-1.85,9.93q0,8.63,3.91,13.3t11.07,4.67A13.11,13.11,0,0,0,42.2,66.1a11.29,11.29,0,0,0,4.44-4.39,12.64,12.64,0,0,0,1.6-6.37,12.78,12.78,0,0,0-1.39-6A10.53,10.53,0,0,0,43,45.15,10.31,10.31,0,0,0,37.53,43.66ZM35.19,60.51A4,4,0,0,1,32,59.17a5.64,5.64,0,0,1,0-7,4.05,4.05,0,0,1,3.17-1.32,4,4,0,0,1,3.18,1.29,5.17,5.17,0,0,1,1.14,3.53,5.11,5.11,0,0,1-1.17,3.51A4,4,0,0,1,35.19,60.51ZM65,67.67q6.64,0,10.15-4.72t3.51-13.66q0-8.88-3.53-13.61T65,31q-6.66,0-10.16,4.72t-3.5,13.61q0,8.94,3.5,13.66T65,67.67Zm0-7.05A3.64,3.64,0,0,1,61.44,58q-1.06-2.64-1.06-8.69t1.06-8.65a3.65,3.65,0,0,1,7,0q1.06,2.64,1.07,8.63T68.45,58A3.64,3.64,0,0,1,65,60.62Z"/></svg>