<svg id="Layer_1" data-name="Layer 1" xmlns="http://www.w3.org/2000/svg" viewBox="0 0 100 100"><title>l24_4_1</title><path d="M83.35,100H16.28A16.47,16.47,0,0,1-.19,83.53V16.47A16.47,16.47,0,0,1,16.28,0H83.35A16.46,16.46,0,0,1,99.81,16.47V83.53A16.46,16.46,0,0,1,83.35,100ZM57.53,48.79a7.69,7.69,0,0,0,4-3A8.85,8.85,0,0,0,63,40.71a8.4,8.4,0,0,0-3.53-7.13C57.08,31.83,53.88,31,49.81,31s-7.22.87-9.59,2.62a8.38,8.38,0,0,0-3.56,7.13,8.67,8.67,0,0,0,1.42,4.95,8.39,8.39,0,0,0,4.07,3.13,8.42,8.42,0,0,0-4.78,3,9,9,0,0,0-1.67,5.56,8.77,8.77,0,0,0,3.78,7.54q3.78,2.72,10.33,2.71t10.34-2.71a8.77,8.77,0,0,0,3.78-7.54,8.35,8.35,0,0,0-6.4-8.58ZM49.81,60.57q-5.54,0-5.53-4t5.53-4q5.53,0,5.54,4T49.81,60.57Zm0-22.55a5.45,5.45,0,0,1,3.41.89,3.46,3.46,0,0,1,1.11,2.87,3.53,3.53,0,0,1-1.11,2.89,5.32,5.32,0,0,1-3.41.92,5.31,5.31,0,0,1-3.4-.92,3.53,3.53,0,0,1-1.12-2.89,3.46,3.46,0,0,1,1.12-2.87A5.44,5.44,0,0,1,49.81,38Z"/></svg>