<svg id="Layer_1" data-name="Layer 1" xmlns="http://www.w3.org/2000/svg" viewBox="0 0 100 100"><title>l24_4_1</title><path d="M83.22,100H16.16A16.47,16.47,0,0,1-.31,83.53V16.47A16.47,16.47,0,0,1,16.16,0H83.22A16.47,16.47,0,0,1,99.69,16.47V83.53A16.47,16.47,0,0,1,83.22,100ZM58.88,58.72H54.72V34.65a4.4,4.4,0,0,0-1.25-3.3,4.49,4.49,0,0,0-3.27-1.22A8.57,8.57,0,0,0,46,31.4l-8.12,4.72a3.44,3.44,0,0,0-1.78,3.15,4.26,4.26,0,0,0,1,2.77,3,3,0,0,0,2.43,1.24,3.47,3.47,0,0,0,1.78-.51l4.06-2.38V58.72H41.26a5.08,5.08,0,0,0-3.35.91,3.43,3.43,0,0,0-1.07,2.74q0,3.76,4.42,3.76H58.88c2.94,0,4.42-1.25,4.42-3.76a3.43,3.43,0,0,0-1.07-2.74A5.08,5.08,0,0,0,58.88,58.72Z"/></svg>