<svg id="Layer_1" data-name="Layer 1" xmlns="http://www.w3.org/2000/svg" viewBox="0 0 100 100"><title>l24_3_1</title><path d="M83.53,99.93H16.47A16.47,16.47,0,0,1,0,83.46V16.4A16.47,16.47,0,0,1,16.47-.07H83.53A16.47,16.47,0,0,1,100,16.4V83.46A16.47,16.47,0,0,1,83.53,99.93ZM45,86.14h-4V63.34a4.19,4.19,0,0,0-1.17-3.13,4.27,4.27,0,0,0-3.11-1.15,8.13,8.13,0,0,0-4,1.2l-7.7,4.47a3.27,3.27,0,0,0-1.68,3,4.07,4.07,0,0,0,1,2.63,2.9,2.9,0,0,0,2.31,1.17A3.25,3.25,0,0,0,28.35,71l3.85-2.26V86.14H28.31a4.85,4.85,0,0,0-3.18.86,3.26,3.26,0,0,0-1,2.6q0,3.56,4.19,3.56H45q4.19,0,4.18-3.56a3.23,3.23,0,0,0-1-2.6A4.84,4.84,0,0,0,45,86.14Zm18.66,7.45q6.3,0,9.62-4.47T76.6,76.18q0-8.42-3.34-12.89t-9.6-4.48q-6.3,0-9.62,4.48T50.72,76.18q0,8.46,3.32,12.94T63.66,93.59Zm0-6.68a3.46,3.46,0,0,1-3.32-2.51q-1-2.49-1-8.22t1-8.2A3.46,3.46,0,0,1,67,68q1,2.5,1,8.18T67,84.4A3.45,3.45,0,0,1,63.66,86.91Zm-4.95-52.8h-4V11.31a4.15,4.15,0,0,0-1.18-3.12A4.23,4.23,0,0,0,50.48,7a8.13,8.13,0,0,0-4,1.2l-7.7,4.48a3.27,3.27,0,0,0-1.68,3,4,4,0,0,0,1,2.62,2.88,2.88,0,0,0,2.31,1.18A3.25,3.25,0,0,0,42.06,19l3.85-2.26V34.11H42a4.78,4.78,0,0,0-3.17.87,3.25,3.25,0,0,0-1,2.6q0,3.56,4.18,3.56h16.7q4.18,0,4.18-3.56a3.25,3.25,0,0,0-1-2.6A4.78,4.78,0,0,0,58.71,34.11ZM71.62,49.58h0a3.13,3.13,0,0,0-3.13-3.12h-37a3.13,3.13,0,0,0-3.13,3.12h0a3.13,3.13,0,0,0,3.13,3.13h37A3.13,3.13,0,0,0,71.62,49.58Z"/></svg>