<svg id="Layer_1" data-name="Layer 1" xmlns="http://www.w3.org/2000/svg" viewBox="0 0 100 100"><title>l24_3_1</title><path d="M83.68,100H16.62A16.47,16.47,0,0,1,.15,83.53V16.47A16.47,16.47,0,0,1,16.62,0H83.68a16.47,16.47,0,0,1,16.47,16.47V83.53A16.47,16.47,0,0,1,83.68,100ZM26.53,67.67q6.54,0,10-4.65T40,49.57q0-8.74-3.48-13.4t-10-4.65q-6.55,0-10,4.65t-3.45,13.4q0,8.79,3.45,13.45T26.53,67.67Zm0-7a3.59,3.59,0,0,1-3.45-2.6c-.7-1.74-1-4.58-1-8.55s.35-6.81,1-8.53a3.59,3.59,0,0,1,6.9,0Q31,43.66,31,49.57c0,4-.35,6.81-1.05,8.55A3.59,3.59,0,0,1,26.53,60.72Zm21.8,6.8a4.62,4.62,0,0,0,3.42-1.4,5,5,0,0,0,0-6.9,4.62,4.62,0,0,0-3.42-1.4,4.7,4.7,0,0,0-3.48,1.4,5,5,0,0,0,0,6.9A4.7,4.7,0,0,0,48.33,67.52ZM72.58,44.17a12.5,12.5,0,0,0-5,.9V38.92h10.8q4.35,0,4.35-3.5T78.43,32H62.93a3.85,3.85,0,0,0-4.25,4.3V49.82a2.71,2.71,0,0,0,1,2.17,3.44,3.44,0,0,0,2.35.83,4.86,4.86,0,0,0,2.25-.55,18.25,18.25,0,0,1,2.87-.9,13.5,13.5,0,0,1,2.73-.25,5.69,5.69,0,0,1,3.9,1.25,4.46,4.46,0,0,1,1.4,3.5,4.32,4.32,0,0,1-1.35,3.52,6.41,6.41,0,0,1-4.15,1.13,8.31,8.31,0,0,1-2.78-.45A27.49,27.49,0,0,1,64,58.87l-1-.5a14.48,14.48,0,0,0-1.5-.75,3.48,3.48,0,0,0-1.25-.2,2.58,2.58,0,0,0-2.1,1.07,4.11,4.11,0,0,0-.85,2.63,3.67,3.67,0,0,0,.37,1.72,4.27,4.27,0,0,0,1.18,1.38A16.41,16.41,0,0,0,64,66.72a20.87,20.87,0,0,0,6.08.9,16.24,16.24,0,0,0,7.15-1.5A11.36,11.36,0,0,0,82,61.87a11.85,11.85,0,0,0,1.7-6.35,12.07,12.07,0,0,0-1.43-5.93,10.2,10.2,0,0,0-4-4A11.53,11.53,0,0,0,72.58,44.17Z"/></svg>