<svg id="Layer_1" data-name="Layer 1" xmlns="http://www.w3.org/2000/svg" viewBox="0 0 100 100"><title>l24_4_1</title><path d="M83.22,100H16.16A16.47,16.47,0,0,1-.31,83.53V16.47A16.47,16.47,0,0,1,16.16,0H83.22A16.47,16.47,0,0,1,99.69,16.47V83.53A16.47,16.47,0,0,1,83.22,100ZM56.7,48.79a8.25,8.25,0,0,0,4-3.08,8.38,8.38,0,0,0,1.45-4.9,8.9,8.9,0,0,0-1.55-5.18,9.86,9.86,0,0,0-4.42-3.45A16.85,16.85,0,0,0,49.59,31a20.36,20.36,0,0,0-6,.92,16.64,16.64,0,0,0-5.15,2.54,3.92,3.92,0,0,0-1.22,1.37,3.87,3.87,0,0,0-.36,1.77,4.16,4.16,0,0,0,.87,2.67,2.6,2.6,0,0,0,2.13,1.09,3.23,3.23,0,0,0,1.27-.23c.37-.15.88-.39,1.52-.73l1.07-.51a25.37,25.37,0,0,1,2.76-1.22,7.8,7.8,0,0,1,2.67-.46,4.4,4.4,0,0,1,3.1,1,3.82,3.82,0,0,1,1.11,2.92,2.85,2.85,0,0,1-1.26,2.59,7.83,7.83,0,0,1-4.07.82H45.78a2.91,2.91,0,0,0-2.39,1.06,4.18,4.18,0,0,0,0,5.08,2.91,2.91,0,0,0,2.39,1.07h3.15a7.59,7.59,0,0,1,4.16.86,3.18,3.18,0,0,1,1.27,2.84,3.52,3.52,0,0,1-1.24,3,7.07,7.07,0,0,1-4.09.91A9.1,9.1,0,0,1,46.11,60a23.19,23.19,0,0,1-2.92-1.24l-.64-.28-.48-.23c-.64-.34-1.15-.58-1.52-.74a3.38,3.38,0,0,0-1.27-.22,2.6,2.6,0,0,0-2.13,1.09A4.13,4.13,0,0,0,36.28,61a3.58,3.58,0,0,0,1.58,3.15,16.44,16.44,0,0,0,5.28,2.57,22.6,22.6,0,0,0,6.35.88,19,19,0,0,0,7.18-1.24,10.72,10.72,0,0,0,4.75-3.53,8.83,8.83,0,0,0,1.67-5.38,9,9,0,0,0-1.7-5.54A8.61,8.61,0,0,0,56.7,48.79Z"/></svg>