<svg id="Layer_1" data-name="Layer 1" xmlns="http://www.w3.org/2000/svg" viewBox="0 0 100 100"><title>l24_5_1</title><path d="M83.44,100.43H16.38A16.47,16.47,0,0,1-.09,84V16.89A16.46,16.46,0,0,1,16.38.43H83.44A16.46,16.46,0,0,1,99.91,16.89V84A16.47,16.47,0,0,1,83.44,100.43ZM60.25,81.2h-1V63.83a4.1,4.1,0,0,0-1.3-3.22,4.55,4.55,0,0,0-3.13-1.15,4.76,4.76,0,0,0-2.14.5,4.49,4.49,0,0,0-1.71,1.47L37.16,81.05a5.45,5.45,0,0,0-1,3.18,3.63,3.63,0,0,0,1,2.64,3.58,3.58,0,0,0,2.74,1.06H50.58v1.64a4.3,4.3,0,0,0,1.18,3.27A4.35,4.35,0,0,0,54.87,94,4.41,4.41,0,0,0,58,92.84a4.24,4.24,0,0,0,1.21-3.27V87.93h1q4.19,0,4.19-3.41C64.44,82.3,63,81.2,60.25,81.2Zm-15.44,0,5.77-8.32V81.2Zm15.3-46.59h-4V11.81A4.21,4.21,0,0,0,55,8.68a4.27,4.27,0,0,0-3.11-1.15,8.13,8.13,0,0,0-4,1.2l-7.7,4.47a3.28,3.28,0,0,0-1.68,3,4.06,4.06,0,0,0,1,2.62A2.91,2.91,0,0,0,41.78,20a3.25,3.25,0,0,0,1.68-.48l3.85-2.26V34.61H43.42a4.8,4.8,0,0,0-3.18.87,3.22,3.22,0,0,0-1,2.59c0,2.38,1.4,3.56,4.19,3.56H60.11c2.79,0,4.18-1.18,4.18-3.56a3.19,3.19,0,0,0-1-2.59A4.78,4.78,0,0,0,60.11,34.61ZM71.53,50.08h0A3.13,3.13,0,0,0,68.4,47h-37a3.13,3.13,0,0,0-3.13,3.13h0a3.13,3.13,0,0,0,3.13,3.13h37A3.13,3.13,0,0,0,71.53,50.08Z"/></svg>