<svg id="Layer_1" data-name="Layer 1" xmlns="http://www.w3.org/2000/svg" viewBox="0 0 100 100"><title>l24_2_1</title><path d="M83.53,100H16.47A16.47,16.47,0,0,1,0,83.53V16.47A16.47,16.47,0,0,1,16.47,0H83.53A16.47,16.47,0,0,1,100,16.47V83.53A16.47,16.47,0,0,1,83.53,100ZM44.72,58.51H40.56V34.45A4.25,4.25,0,0,0,36,29.93a8.57,8.57,0,0,0-4.22,1.27L23.7,35.92a3.44,3.44,0,0,0-1.78,3.15,4.28,4.28,0,0,0,1,2.77,3,3,0,0,0,2.43,1.24,3.47,3.47,0,0,0,1.78-.51l4.06-2.39V58.51H27.1a5.08,5.08,0,0,0-3.35.92,3.41,3.41,0,0,0-1.07,2.74q0,3.77,4.42,3.76H44.72c2.94,0,4.42-1.25,4.42-3.76a3.41,3.41,0,0,0-1.07-2.74A5.08,5.08,0,0,0,44.72,58.51Zm19.7,7.88q6.66,0,10.16-4.73T78.08,48q0-8.9-3.53-13.61T64.42,29.67q-6.64,0-10.15,4.73T50.76,48q0,8.93,3.51,13.65T64.42,66.39Zm0-7.06a3.64,3.64,0,0,1-3.5-2.64C60.21,54.93,59.85,52,59.85,48s.36-6.92,1.07-8.66a3.64,3.64,0,0,1,7,0C68.64,41.13,69,44,69,48s-.35,6.92-1.07,8.68A3.63,3.63,0,0,1,64.42,59.33Z"/></svg>