<svg id="Layer_1" data-name="Layer 1" xmlns="http://www.w3.org/2000/svg" viewBox="0 0 100 100"><title>l24_2_1</title><path d="M83.53,100H16.47A16.47,16.47,0,0,1,0,83.53V16.47A16.47,16.47,0,0,1,16.47,0H83.53A16.47,16.47,0,0,1,100,16.47V83.53A16.47,16.47,0,0,1,83.53,100ZM44.06,59.8H33.85l7.21-7.36a23.72,23.72,0,0,0,4.24-5.71,12.8,12.8,0,0,0,1.25-5.66A9.33,9.33,0,0,0,45,35.76a9.92,9.92,0,0,0-4.39-3.55A16.37,16.37,0,0,0,34,31a20.85,20.85,0,0,0-11.22,3.45,3.35,3.35,0,0,0-1.24,1.33,4.32,4.32,0,0,0-.33,1.82,4.41,4.41,0,0,0,.86,2.72,2.6,2.6,0,0,0,2.14,1.14,3.06,3.06,0,0,0,1-.15,6.11,6.11,0,0,0,1-.48c.39-.22.65-.37.79-.43l1-.51a25.9,25.9,0,0,1,2.87-1.25,8.48,8.48,0,0,1,2.72-.43,4,4,0,0,1,2.82.92,3.42,3.42,0,0,1,1,2.64q0,2.94-3.35,6.45L23.29,59.4a5.55,5.55,0,0,0-1.73,4,3.81,3.81,0,0,0,1.07,2.77,3.9,3.9,0,0,0,2.9,1.09H44.06a5.06,5.06,0,0,0,3.32-.92,3.49,3.49,0,0,0,1.1-2.84,3.38,3.38,0,0,0-1.1-2.77A5.18,5.18,0,0,0,44.06,59.8Zm21.07,7.87q6.66,0,10.16-4.72t3.5-13.66q0-8.88-3.53-13.61T65.13,31Q58.49,31,55,35.68T51.47,49.29Q51.47,58.23,55,63T65.13,67.67Zm0-7.05A3.64,3.64,0,0,1,61.63,58q-1.07-2.64-1.07-8.69t1.07-8.65a3.65,3.65,0,0,1,7,0q1.06,2.64,1.06,8.63T68.64,58A3.65,3.65,0,0,1,65.13,60.62Z"/></svg>