<svg id="Layer_1" data-name="Layer 1" xmlns="http://www.w3.org/2000/svg" viewBox="0 0 100 100"><title>l24_5_1</title><path d="M83.58,100H16.51A16.46,16.46,0,0,1,.05,83.53V16.47A16.46,16.46,0,0,1,16.51,0H83.58a16.47,16.47,0,0,1,16.47,16.47V83.53A16.47,16.47,0,0,1,83.58,100ZM59.24,58.72H55.07V34.65a4.4,4.4,0,0,0-1.24-3.3,4.49,4.49,0,0,0-3.28-1.22,8.53,8.53,0,0,0-4.21,1.27l-8.12,4.72a3.44,3.44,0,0,0-1.78,3.15,4.3,4.3,0,0,0,1,2.77,3.05,3.05,0,0,0,2.44,1.24,3.47,3.47,0,0,0,1.78-.51l4.06-2.38V58.72H41.62a5.08,5.08,0,0,0-3.35.91,3.43,3.43,0,0,0-1.07,2.74q0,3.76,4.42,3.76H59.24c2.94,0,4.42-1.25,4.42-3.76a3.43,3.43,0,0,0-1.07-2.74A5.08,5.08,0,0,0,59.24,58.72Z"/></svg>