<svg id="Layer_1" data-name="Layer 1" xmlns="http://www.w3.org/2000/svg" viewBox="0 0 100 100"><title>l24_1_1</title><path d="M83.68,100H16.62A16.47,16.47,0,0,1,.15,83.53V16.47A16.47,16.47,0,0,1,16.62,0H83.68a16.47,16.47,0,0,1,16.47,16.47V83.53A16.47,16.47,0,0,1,83.68,100ZM29,59.8H18.77L26,52.44a23.72,23.72,0,0,0,4.24-5.71,12.8,12.8,0,0,0,1.24-5.66,9.32,9.32,0,0,0-1.54-5.31,10,10,0,0,0-4.4-3.55A16.29,16.29,0,0,0,18.92,31a19.82,19.82,0,0,0-5.86.92A19.9,19.9,0,0,0,7.7,34.41a3.35,3.35,0,0,0-1.24,1.33A4.9,4.9,0,0,0,7,40.28a2.59,2.59,0,0,0,2.13,1.14,3.12,3.12,0,0,0,1-.15,6.11,6.11,0,0,0,1-.48c.39-.22.65-.37.79-.43l1-.51A25.12,25.12,0,0,1,15.8,38.6a8.43,8.43,0,0,1,2.72-.43,4,4,0,0,1,2.81.92,3.42,3.42,0,0,1,1,2.64c0,2-1.11,4.11-3.35,6.45L8.21,59.4a5.55,5.55,0,0,0-1.73,4,3.81,3.81,0,0,0,1.07,2.77,3.88,3.88,0,0,0,2.89,1.09H29a5.08,5.08,0,0,0,3.32-.92,3.48,3.48,0,0,0,1.09-2.84,3.37,3.37,0,0,0-1.09-2.77A5.2,5.2,0,0,0,29,59.8Zm21.07,7.87q6.64,0,10.15-4.72t3.51-13.66q0-8.88-3.53-13.61T50.05,31q-6.66,0-10.16,4.72t-3.5,13.61q0,8.94,3.5,13.66T50.05,67.67Zm0-7.05A3.63,3.63,0,0,1,46.55,58c-.72-1.76-1.07-4.66-1.07-8.69s.35-6.91,1.07-8.65a3.64,3.64,0,0,1,7,0q1.06,2.64,1.07,8.63T53.55,58A3.64,3.64,0,0,1,50.05,60.62Zm30.47,7.05q6.65,0,10.15-4.72t3.51-13.66q0-8.88-3.53-13.61T80.52,31q-6.66,0-10.16,4.72t-3.5,13.61q0,8.94,3.5,13.66T80.52,67.67Zm0-7.05A3.64,3.64,0,0,1,77,58Q75.94,55.34,76,49.29T77,40.64a3.65,3.65,0,0,1,7,0q1.07,2.64,1.07,8.63T84,58A3.64,3.64,0,0,1,80.52,60.62Z"/></svg>