<svg id="Layer_1" data-name="Layer 1" xmlns="http://www.w3.org/2000/svg" viewBox="0 0 100 100"><title>l24_4_1</title><path d="M83.22,100H16.16A16.47,16.47,0,0,1-.31,83.53V16.47A16.47,16.47,0,0,1,16.16,0H83.22A16.47,16.47,0,0,1,99.69,16.47V83.53A16.47,16.47,0,0,1,83.22,100Zm-54-39.51H25V36.42a4.4,4.4,0,0,0-1.24-3.3,4.45,4.45,0,0,0-3.28-1.22,8.53,8.53,0,0,0-4.21,1.27L8.15,37.89A3.45,3.45,0,0,0,6.38,41a4.27,4.27,0,0,0,1,2.77,3.08,3.08,0,0,0,2.44,1.24,3.47,3.47,0,0,0,1.78-.51l4.06-2.38V60.49H11.55a5.08,5.08,0,0,0-3.35.91,3.41,3.41,0,0,0-1.06,2.74q0,3.77,4.41,3.76H29.17q4.42,0,4.42-3.76a3.41,3.41,0,0,0-1.06-2.74A5.09,5.09,0,0,0,29.17,60.49Zm19.71,7.87q6.65,0,10.15-4.73T62.54,50q0-8.88-3.53-13.6T48.88,31.64q-6.66,0-10.16,4.73T35.22,50q0,8.94,3.5,13.66T48.88,68.36Zm0-7.06a3.64,3.64,0,0,1-3.51-2.64Q44.3,56,44.31,50c0-4,.35-6.91,1.06-8.65a3.65,3.65,0,0,1,7,0Q53.45,44,53.45,50t-1.07,8.69A3.64,3.64,0,0,1,48.88,61.3Zm30.46,7.06q6.66,0,10.16-4.73T93,50q0-8.88-3.53-13.6T79.34,31.64q-6.65,0-10.15,4.73T65.68,50q0,8.94,3.51,13.66T79.34,68.36Zm0-7.06a3.64,3.64,0,0,1-3.5-2.64Q74.77,56,74.77,50c0-4,.36-6.91,1.07-8.65a3.65,3.65,0,0,1,7,0Q83.92,44,83.91,50t-1.06,8.69A3.64,3.64,0,0,1,79.34,61.3Z"/></svg>