<svg id="Layer_1" data-name="Layer 1" xmlns="http://www.w3.org/2000/svg" viewBox="0 0 100 100"><title>l24_4_1</title><path d="M83.37,100H16.31A16.47,16.47,0,0,1-.16,83.53V16.47A16.47,16.47,0,0,1,16.31,0H83.37A16.47,16.47,0,0,1,99.84,16.47V83.53A16.47,16.47,0,0,1,83.37,100ZM28.66,59.8H18.46l7.21-7.36a23.72,23.72,0,0,0,4.24-5.71,12.8,12.8,0,0,0,1.24-5.66,9.26,9.26,0,0,0-1.55-5.31,9.86,9.86,0,0,0-4.39-3.55A16.29,16.29,0,0,0,18.61,31a19.82,19.82,0,0,0-5.86.92,19.9,19.9,0,0,0-5.36,2.53,3.28,3.28,0,0,0-1.24,1.33,4.17,4.17,0,0,0-.33,1.82,4.35,4.35,0,0,0,.86,2.72,2.57,2.57,0,0,0,2.13,1.14,3.12,3.12,0,0,0,1-.15,6.11,6.11,0,0,0,1-.48c.39-.22.65-.37.78-.43l1-.51a25.12,25.12,0,0,1,2.87-1.25,8.41,8.41,0,0,1,2.71-.43,4,4,0,0,1,2.82.92,3.42,3.42,0,0,1,1,2.64c0,2-1.11,4.11-3.35,6.45L7.9,59.4a5.55,5.55,0,0,0-1.73,4,3.81,3.81,0,0,0,1.07,2.77,3.88,3.88,0,0,0,2.89,1.09H28.66A5.11,5.11,0,0,0,32,66.3a3.48,3.48,0,0,0,1.09-2.84A3.37,3.37,0,0,0,32,60.69,5.23,5.23,0,0,0,28.66,59.8Zm21.08,7.87q6.65,0,10.15-4.72T63.4,49.29q0-8.88-3.53-13.61T49.74,31q-6.66,0-10.16,4.72t-3.5,13.61q0,8.94,3.5,13.66T49.74,67.67Zm0-7.05A3.64,3.64,0,0,1,46.23,58q-1.06-2.64-1.06-8.69t1.06-8.65a3.65,3.65,0,0,1,7,0q1.07,2.64,1.07,8.63T53.24,58A3.64,3.64,0,0,1,49.74,60.62ZM80.2,67.67q6.66,0,10.16-4.72t3.5-13.66q0-8.88-3.53-13.61T80.2,31q-6.65,0-10.15,4.72t-3.5,13.61q0,8.94,3.5,13.66T80.2,67.67Zm0-7.05A3.64,3.64,0,0,1,76.7,58q-1.07-2.64-1.07-8.69t1.07-8.65a3.65,3.65,0,0,1,7,0q1.07,2.64,1.06,8.63T83.71,58A3.64,3.64,0,0,1,80.2,60.62Z"/></svg>