<svg id="Layer_1" data-name="Layer 1" xmlns="http://www.w3.org/2000/svg" viewBox="0 0 100 100"><title>l24_4_1</title><path d="M83.22,100H16.16A16.47,16.47,0,0,1-.31,83.53V16.47A16.47,16.47,0,0,1,16.16,0H83.22A16.47,16.47,0,0,1,99.69,16.47V83.53A16.47,16.47,0,0,1,83.22,100ZM60,31.42H40a5,5,0,0,0-3.35.94,3.56,3.56,0,0,0-1.07,2.82,3.46,3.46,0,0,0,1,2.74,5.08,5.08,0,0,0,3.38.91h12.7L39.69,61.12A4.79,4.79,0,0,0,39,63.56a3.71,3.71,0,0,0,1.38,2.92,4.61,4.61,0,0,0,3.14,1.19,4.32,4.32,0,0,0,2.16-.58,4.67,4.67,0,0,0,1.75-1.8L62.79,38.63a6.5,6.5,0,0,0,1-3.35,4,4,0,0,0-1-2.77A3.6,3.6,0,0,0,60,31.42Z"/></svg>