<svg id="Layer_1" data-name="Layer 1" xmlns="http://www.w3.org/2000/svg" viewBox="0 0 100 100"><title>l24_5_1</title><path d="M83.53,100H16.47A16.47,16.47,0,0,1,0,83.53V16.47A16.47,16.47,0,0,1,16.47,0H83.53A16.47,16.47,0,0,1,100,16.47V83.53A16.47,16.47,0,0,1,83.53,100ZM18.78,67.6a9.82,9.82,0,0,0,8.4-3.91q2.89-3.9,2.9-11.3T27.16,41.14a9.82,9.82,0,0,0-8.38-3.91,9.8,9.8,0,0,0-8.4,3.91Q7.48,45,7.48,52.39t2.9,11.3A9.82,9.82,0,0,0,18.78,67.6Zm0-5.84a3,3,0,0,1-2.9-2.19A20.84,20.84,0,0,1,15,52.39a20.67,20.67,0,0,1,.88-7.16,3,3,0,0,1,5.8,0,20.73,20.73,0,0,1,.88,7.14,20.84,20.84,0,0,1-.88,7.18A3,3,0,0,1,18.78,61.76Zm18.31,5.71A3.85,3.85,0,0,0,40,66.29a4.22,4.22,0,0,0,0-5.79,3.85,3.85,0,0,0-2.88-1.18,3.91,3.91,0,0,0-2.92,1.18,4.22,4.22,0,0,0,0,5.79A3.91,3.91,0,0,0,37.09,67.47Zm26.12-6.38H54.77l6-6.09a19.66,19.66,0,0,0,3.5-4.73,10.5,10.5,0,0,0,1-4.68A7.63,7.63,0,0,0,64,41.2a8.14,8.14,0,0,0-3.63-2.94,13.47,13.47,0,0,0-5.46-1,16.23,16.23,0,0,0-4.85.76,16,16,0,0,0-4.43,2.1,2.7,2.7,0,0,0-1,1.09A4,4,0,0,0,45,44.94a2.12,2.12,0,0,0,1.76.94,2.63,2.63,0,0,0,.8-.12,5.73,5.73,0,0,0,.86-.4L49.1,45l.84-.42a20.4,20.4,0,0,1,2.38-1,6.7,6.7,0,0,1,2.24-.36,3.27,3.27,0,0,1,2.33.76,2.8,2.8,0,0,1,.82,2.18q0,2.44-2.77,5.34L46,60.75A4.6,4.6,0,0,0,44.61,64a3.12,3.12,0,0,0,.88,2.29,3.17,3.17,0,0,0,2.39.91H63.21A4.21,4.21,0,0,0,66,66.46a2.9,2.9,0,0,0,.9-2.35,2.78,2.78,0,0,0-.9-2.29A4.33,4.33,0,0,0,63.21,61.09ZM82.7,47.85a10.53,10.53,0,0,0-4.15.76V43.44h9.07c2.43,0,3.65-1,3.65-2.93s-1.22-2.9-3.65-2.9h-13a3.62,3.62,0,0,0-2.65.92A3.67,3.67,0,0,0,71,41.22V52.6a2.28,2.28,0,0,0,.8,1.83,2.89,2.89,0,0,0,2,.69,4,4,0,0,0,1.89-.46,15.37,15.37,0,0,1,2.41-.76,11.52,11.52,0,0,1,2.29-.21,4.77,4.77,0,0,1,3.28,1.05,3.75,3.75,0,0,1,1.17,2.94,3.6,3.6,0,0,1-1.13,3,5.37,5.37,0,0,1-3.49,1,7,7,0,0,1-2.33-.38,23.55,23.55,0,0,1-2.37-1l-.84-.42q-.84-.45-1.26-.63a2.9,2.9,0,0,0-1-.16,2.16,2.16,0,0,0-1.76.9,3.42,3.42,0,0,0-.72,2.2,3.1,3.1,0,0,0,.32,1.45,3.74,3.74,0,0,0,1,1.16,14,14,0,0,0,4.3,2.1,17.69,17.69,0,0,0,5.1.75,13.65,13.65,0,0,0,6-1.26,9.47,9.47,0,0,0,4-3.57,9.93,9.93,0,0,0,1.43-5.33,10.11,10.11,0,0,0-1.2-5,8.52,8.52,0,0,0-3.32-3.36A9.77,9.77,0,0,0,82.7,47.85Z"/></svg>