<svg id="Layer_1" data-name="Layer 1" xmlns="http://www.w3.org/2000/svg" viewBox="0 0 100 100"><title>l24_2_1</title><path d="M83.55,100H16.49A16.47,16.47,0,0,1,0,83.53V16.47A16.47,16.47,0,0,1,16.49,0H83.55A16.47,16.47,0,0,1,100,16.47V83.53A16.47,16.47,0,0,1,83.55,100ZM48.8,31a13.11,13.11,0,0,0-6.45,1.58,11.36,11.36,0,0,0-4.44,4.39,12.64,12.64,0,0,0-1.6,6.37,12.79,12.79,0,0,0,1.4,6,10.48,10.48,0,0,0,3.83,4.16A10.25,10.25,0,0,0,47,55a9.78,9.78,0,0,0,4.3-.94,8,8,0,0,0,3.12-2.56,13.4,13.4,0,0,1-1.91,6.62,4.83,4.83,0,0,1-4.18,2.36,6.77,6.77,0,0,1-2.34-.4,29.64,29.64,0,0,1-2.79-1.22l-1.12-.56c-.64-.34-1.15-.58-1.52-.73a3.23,3.23,0,0,0-1.27-.23,2.68,2.68,0,0,0-2.16,1.09,4.09,4.09,0,0,0-.89,2.66,3.78,3.78,0,0,0,.38,1.78,4.38,4.38,0,0,0,1.25,1.37A16,16,0,0,0,43,66.76a19.7,19.7,0,0,0,5.81.92,13.8,13.8,0,0,0,7.9-2.29,14.83,14.83,0,0,0,5.23-6.52,24.75,24.75,0,0,0,1.85-9.93q0-8.64-3.91-13.31T48.8,31Zm.56,16.81a4,4,0,0,1-3.17-1.3A5.13,5.13,0,0,1,45,43a5.1,5.1,0,0,1,1.17-3.51,4,4,0,0,1,3.15-1.32,4,4,0,0,1,3.15,1.35A5,5,0,0,1,53.73,43a5,5,0,0,1-1.2,3.5A4.05,4.05,0,0,1,49.36,47.77Z"/></svg>