<svg id="Layer_1" data-name="Layer 1" xmlns="http://www.w3.org/2000/svg" viewBox="0 0 100 100"><title>l24_3_1</title><path d="M83.53,100.27H16.47A16.46,16.46,0,0,1,0,83.81V16.74A16.47,16.47,0,0,1,16.47.27H83.53A16.47,16.47,0,0,1,100,16.74V83.81A16.46,16.46,0,0,1,83.53,100.27ZM59.19,59H55V34.92a4.43,4.43,0,0,0-1.25-3.3,4.48,4.48,0,0,0-3.27-1.21,8.65,8.65,0,0,0-4.22,1.26L38.17,36.4a3.44,3.44,0,0,0-1.78,3.15,4.23,4.23,0,0,0,1,2.76,3,3,0,0,0,2.43,1.25,3.44,3.44,0,0,0,1.78-.51l4.06-2.39V59H41.57a5.08,5.08,0,0,0-3.35.92,3.41,3.41,0,0,0-1.07,2.74c0,2.51,1.48,3.76,4.42,3.76H59.19q4.43,0,4.42-3.76a3.41,3.41,0,0,0-1.07-2.74A5.08,5.08,0,0,0,59.19,59Z"/></svg>