<svg id="Layer_1" data-name="Layer 1" xmlns="http://www.w3.org/2000/svg" viewBox="0 0 100 100"><title>l24_4_1</title><path d="M83.22,100H16.16A16.47,16.47,0,0,1-.31,83.53V16.47A16.47,16.47,0,0,1,16.16,0H83.22A16.47,16.47,0,0,1,99.69,16.47V83.53A16.47,16.47,0,0,1,83.22,100ZM58.9,59.8H48.7l7.21-7.36a23.72,23.72,0,0,0,4.24-5.71,12.8,12.8,0,0,0,1.24-5.66,9.26,9.26,0,0,0-1.55-5.31,9.86,9.86,0,0,0-4.39-3.55A16.29,16.29,0,0,0,48.85,31a20.85,20.85,0,0,0-11.22,3.45,3.28,3.28,0,0,0-1.24,1.33,4.16,4.16,0,0,0-.34,1.82,4.36,4.36,0,0,0,.87,2.72,2.57,2.57,0,0,0,2.13,1.14,3.12,3.12,0,0,0,1-.15,6.11,6.11,0,0,0,1-.48c.39-.22.65-.37.78-.43l1-.51a25.12,25.12,0,0,1,2.87-1.25,8.41,8.41,0,0,1,2.71-.43,4,4,0,0,1,2.82.92,3.42,3.42,0,0,1,1,2.64c0,2-1.11,4.11-3.35,6.45L38.14,59.4a5.55,5.55,0,0,0-1.73,4,3.81,3.81,0,0,0,1.07,2.77,3.88,3.88,0,0,0,2.89,1.09H58.9a5.11,5.11,0,0,0,3.33-.92,3.48,3.48,0,0,0,1.09-2.84,3.37,3.37,0,0,0-1.09-2.77A5.23,5.23,0,0,0,58.9,59.8Z"/></svg>