<svg id="Layer_1" data-name="Layer 1" xmlns="http://www.w3.org/2000/svg" viewBox="0 0 100 100"><title>l24_5_1</title><path d="M83.58,99.85H16.51A16.46,16.46,0,0,1,.05,83.38V16.32A16.46,16.46,0,0,1,16.51-.15H83.58a16.47,16.47,0,0,1,16.47,16.47V83.38A16.47,16.47,0,0,1,83.58,99.85ZM56.28,75.62a7.83,7.83,0,0,0,3.83-2.91,8,8,0,0,0,1.37-4.65A8.36,8.36,0,0,0,60,63.16a9.42,9.42,0,0,0-4.18-3.27,16,16,0,0,0-6.28-1.16,19.14,19.14,0,0,0-5.7.87A16.17,16.17,0,0,0,39,62a3.89,3.89,0,0,0-1.15,1.3A3.82,3.82,0,0,0,37.47,65a4,4,0,0,0,.82,2.52,2.5,2.5,0,0,0,2,1,3.21,3.21,0,0,0,1.2-.22c.36-.15.84-.38,1.45-.7l1-.48A23.7,23.7,0,0,1,46.59,66a7.22,7.22,0,0,1,2.52-.44,4.13,4.13,0,0,1,2.94,1,3.62,3.62,0,0,1,1.06,2.76,2.69,2.69,0,0,1-1.21,2.46,7.37,7.37,0,0,1-3.84.77H45.94a2.72,2.72,0,0,0-2.26,1,3.94,3.94,0,0,0,0,4.81,2.75,2.75,0,0,0,2.26,1h3a7.22,7.22,0,0,1,3.95.82,3,3,0,0,1,1.2,2.69,3.34,3.34,0,0,1-1.18,2.89,6.75,6.75,0,0,1-3.87.86,8.53,8.53,0,0,1-2.77-.41A19.79,19.79,0,0,1,43.49,85l-.6-.26-.46-.22q-.91-.48-1.44-.69a3.11,3.11,0,0,0-1.21-.22,2.49,2.49,0,0,0-2,1,4,4,0,0,0-.82,2.53,3.36,3.36,0,0,0,1.5,3,15.33,15.33,0,0,0,5,2.43,21.39,21.39,0,0,0,6,.84,18,18,0,0,0,6.81-1.18,10.11,10.11,0,0,0,4.5-3.34,9.18,9.18,0,0,0,0-10.34A8.16,8.16,0,0,0,56.28,75.62ZM59.86,34h-4V11.23A4.21,4.21,0,0,0,54.74,8.1,4.27,4.27,0,0,0,51.63,7a8.13,8.13,0,0,0-4,1.2l-7.7,4.48a3.26,3.26,0,0,0-1.68,3,4.06,4.06,0,0,0,1,2.62,2.88,2.88,0,0,0,2.31,1.18,3.25,3.25,0,0,0,1.68-.48l3.85-2.26V34H43.17A4.8,4.8,0,0,0,40,34.9a3.22,3.22,0,0,0-1,2.59c0,2.38,1.4,3.56,4.19,3.56H59.86c2.79,0,4.18-1.18,4.18-3.56a3.19,3.19,0,0,0-1-2.59A4.78,4.78,0,0,0,59.86,34Zm11,15.47h0a3.13,3.13,0,0,0-3.12-3.13h-37a3.13,3.13,0,0,0-3.13,3.13h0a3.13,3.13,0,0,0,3.13,3.13h37A3.13,3.13,0,0,0,70.81,49.5Z"/></svg>