<svg id="Layer_1" data-name="Layer 1" xmlns="http://www.w3.org/2000/svg" viewBox="0 0 100 100"><title>l24_5_1</title><path d="M83.43,100H16.37A16.47,16.47,0,0,1-.1,83.53V16.47A16.47,16.47,0,0,1,16.37,0H83.43A16.47,16.47,0,0,1,99.9,16.47V83.53A16.47,16.47,0,0,1,83.43,100ZM28,67.67q6.55,0,10-4.65t3.45-13.45q0-8.74-3.47-13.4T28,31.52q-6.55,0-10,4.65t-3.45,13.4Q14.55,58.36,18,63T28,67.67Zm0-7a3.59,3.59,0,0,1-3.45-2.6q-1.05-2.59-1.05-8.55T24.55,41a3.59,3.59,0,0,1,6.9,0c.7,1.73,1.05,4.57,1.05,8.5s-.35,6.82-1.05,8.55A3.59,3.59,0,0,1,28,60.72Zm21.8,6.8a4.63,4.63,0,0,0,3.43-1.4,5,5,0,0,0,0-6.9,5,5,0,0,0-6.9,0,5,5,0,0,0,0,6.9A4.66,4.66,0,0,0,49.8,67.52Zm31.1-7.6H70.85L78,52.67A23.39,23.39,0,0,0,82.13,47a12.67,12.67,0,0,0,1.22-5.57,9.23,9.23,0,0,0-1.52-5.23,9.84,9.84,0,0,0-4.33-3.5A16.21,16.21,0,0,0,71,31.52a20.39,20.39,0,0,0-11,3.4,3.23,3.23,0,0,0-1.22,1.3A4.23,4.23,0,0,0,58.4,38a4.28,4.28,0,0,0,.85,2.67,2.56,2.56,0,0,0,2.1,1.13,3,3,0,0,0,.95-.15,6.05,6.05,0,0,0,1-.48l.77-.42,1-.5A26.21,26.21,0,0,1,67.93,39a8.13,8.13,0,0,1,2.67-.42,4,4,0,0,1,2.78.9,3.37,3.37,0,0,1,1,2.6q0,2.9-3.3,6.35L60.45,59.52a5.48,5.48,0,0,0-1.7,3.9,3.72,3.72,0,0,0,1,2.72,3.79,3.79,0,0,0,2.85,1.08H80.9a5,5,0,0,0,3.28-.9,3.46,3.46,0,0,0,1.07-2.8,3.35,3.35,0,0,0-1.07-2.73A5.16,5.16,0,0,0,80.9,59.92Z"/></svg>