<svg id="Layer_1" data-name="Layer 1" xmlns="http://www.w3.org/2000/svg" viewBox="0 0 100 100"><title>l24_4_1</title><path d="M83.22,100H16.16A16.47,16.47,0,0,1-.31,83.53V16.47A16.47,16.47,0,0,1,16.16,0H83.22A16.47,16.47,0,0,1,99.69,16.47V83.53A16.47,16.47,0,0,1,83.22,100Zm-54-40.2H25V35.74a4.4,4.4,0,0,0-1.24-3.3,4.45,4.45,0,0,0-3.28-1.22,8.53,8.53,0,0,0-4.21,1.27L8.15,37.21a3.45,3.45,0,0,0-1.77,3.15,4.22,4.22,0,0,0,1,2.76,3.06,3.06,0,0,0,2.44,1.25,3.47,3.47,0,0,0,1.78-.51l4.06-2.39V59.8H11.55a5.1,5.1,0,0,0-3.35.92,3.41,3.41,0,0,0-1.06,2.74q0,3.76,4.41,3.76H29.17q4.42,0,4.42-3.76a3.41,3.41,0,0,0-1.06-2.74A5.09,5.09,0,0,0,29.17,59.8Zm19.71,7.88Q55.53,67.68,59,63t3.51-13.66q0-8.88-3.53-13.6T48.88,31q-6.66,0-10.16,4.73t-3.5,13.6q0,8.94,3.5,13.66T48.88,67.68Zm0-7.06A3.64,3.64,0,0,1,45.37,58q-1.07-2.64-1.06-8.69c0-4,.35-6.91,1.06-8.65a3.65,3.65,0,0,1,7,0q1.07,2.64,1.07,8.63T52.38,58A3.64,3.64,0,0,1,48.88,60.62Zm30.46,7.06Q86,67.68,89.5,63T93,49.29q0-8.88-3.53-13.6T79.34,31q-6.65,0-10.15,4.73t-3.51,13.6q0,8.94,3.51,13.66T79.34,67.68Zm0-7.06A3.64,3.64,0,0,1,75.84,58q-1.07-2.64-1.07-8.69c0-4,.36-6.91,1.07-8.65a3.65,3.65,0,0,1,7,0q1.07,2.64,1.06,8.63T82.85,58A3.64,3.64,0,0,1,79.34,60.62Z"/></svg>