<svg id="Layer_1" data-name="Layer 1" xmlns="http://www.w3.org/2000/svg" viewBox="0 0 100 100"><title>l24_3_1</title><path d="M83.53,100.15H16.47A16.47,16.47,0,0,1,0,83.68V16.62A16.47,16.47,0,0,1,16.47.15H83.53A16.47,16.47,0,0,1,100,16.62V83.68A16.47,16.47,0,0,1,83.53,100.15ZM52.84,71.06a9.33,9.33,0,0,0-4.07.89,7.81,7.81,0,0,0-3,2.43,12.92,12.92,0,0,1,1.81-6.28,4.6,4.6,0,0,1,4-2.23,6.58,6.58,0,0,1,2.21.38,28.19,28.19,0,0,1,2.65,1.16l1,.53a15.29,15.29,0,0,0,1.45.69,3,3,0,0,0,1.2.22,2.54,2.54,0,0,0,2-1A3.91,3.91,0,0,0,63,65.29a3.54,3.54,0,0,0-.36-1.68,4.28,4.28,0,0,0-1.18-1.3,15.35,15.35,0,0,0-4.84-2.41A18.86,18.86,0,0,0,51.15,59a13.07,13.07,0,0,0-7.48,2.16,14,14,0,0,0-5,6.18A23.37,23.37,0,0,0,37,76.79q0,8.17,3.71,12.6t10.48,4.42a12.32,12.32,0,0,0,6.11-1.49,10.66,10.66,0,0,0,4.21-4.16,12.8,12.8,0,0,0,.19-11.73,9.91,9.91,0,0,0-3.63-4A9.77,9.77,0,0,0,52.84,71.06ZM50.63,87a3.85,3.85,0,0,1-3-1.27,5.38,5.38,0,0,1,0-6.62,3.86,3.86,0,0,1,3-1.25,3.78,3.78,0,0,1,3,1.23,4.88,4.88,0,0,1,1.08,3.34,4.81,4.81,0,0,1-1.1,3.32A3.76,3.76,0,0,1,50.63,87Zm8.08-52.69h-4V11.54a4.16,4.16,0,0,0-1.18-3.13,4.23,4.23,0,0,0-3.1-1.16,8.16,8.16,0,0,0-4,1.21l-7.7,4.47a3.27,3.27,0,0,0-1.68,3,4,4,0,0,0,1,2.62,2.88,2.88,0,0,0,2.31,1.18,3.25,3.25,0,0,0,1.68-.48L45.91,17V34.34H42a4.79,4.79,0,0,0-3.17.86,3.25,3.25,0,0,0-1,2.6q0,3.56,4.18,3.56h16.7q4.18,0,4.18-3.56a3.25,3.25,0,0,0-1-2.6A4.79,4.79,0,0,0,58.71,34.34ZM71.62,49.81h0a3.13,3.13,0,0,0-3.13-3.13h-37a3.13,3.13,0,0,0-3.13,3.13h0a3.13,3.13,0,0,0,3.13,3.12h37A3.13,3.13,0,0,0,71.62,49.81Z"/></svg>