<svg id="Layer_1" data-name="Layer 1" xmlns="http://www.w3.org/2000/svg" viewBox="0 0 100 100"><title>l24_5_1</title><path d="M83.67,99.85H16.61A16.47,16.47,0,0,1,.14,83.38V16.32A16.47,16.47,0,0,1,16.61-.15H83.67a16.47,16.47,0,0,1,16.47,16.47V83.38A16.47,16.47,0,0,1,83.67,99.85ZM57.45,75.62a7.28,7.28,0,0,0,3.78-2.84A8.4,8.4,0,0,0,62.6,68a8,8,0,0,0-3.34-6.76q-3.34-2.48-9.12-2.48t-9.09,2.48A8,8,0,0,0,37.68,68,8.18,8.18,0,0,0,39,72.66a8,8,0,0,0,3.85,3,7.92,7.92,0,0,0-4.52,2.86,8.45,8.45,0,0,0-1.59,5.27,8.31,8.31,0,0,0,3.58,7.14q3.59,2.56,9.79,2.57t9.79-2.57a8.31,8.31,0,0,0,3.58-7.14A8.43,8.43,0,0,0,62,78.57,8.32,8.32,0,0,0,57.45,75.62ZM50.14,86.78q-5.23,0-5.24-3.76t5.24-3.75c3.5,0,5.24,1.25,5.24,3.75S53.64,86.78,50.14,86.78Zm0-21.36a5.12,5.12,0,0,1,3.22.84A3.26,3.26,0,0,1,54.42,69a3.33,3.33,0,0,1-1.06,2.74,5,5,0,0,1-3.22.87,5,5,0,0,1-3.22-.87A3.33,3.33,0,0,1,45.86,69a3.26,3.26,0,0,1,1.06-2.72A5.12,5.12,0,0,1,50.14,65.42ZM58.85,34h-4V11.23A4.21,4.21,0,0,0,53.73,8.1,4.25,4.25,0,0,0,50.62,7a8.13,8.13,0,0,0-4,1.2l-7.7,4.47a3.28,3.28,0,0,0-1.68,3,4.06,4.06,0,0,0,1,2.62,2.88,2.88,0,0,0,2.31,1.18,3.31,3.31,0,0,0,1.69-.48l3.84-2.26V34H42.16A4.81,4.81,0,0,0,39,34.9a3.22,3.22,0,0,0-1,2.59c0,2.38,1.4,3.56,4.19,3.56H58.85c2.79,0,4.18-1.18,4.18-3.56a3.19,3.19,0,0,0-1-2.59A4.78,4.78,0,0,0,58.85,34ZM71.76,49.5h0a3.13,3.13,0,0,0-3.13-3.13h-37a3.13,3.13,0,0,0-3.13,3.13h0a3.13,3.13,0,0,0,3.13,3.13h37A3.13,3.13,0,0,0,71.76,49.5Z"/></svg>