<svg id="Layer_1" data-name="Layer 1" xmlns="http://www.w3.org/2000/svg" viewBox="0 0 100 100"><title>l24_5_1</title><path d="M83.58,100.15H16.51A16.46,16.46,0,0,1,.05,83.68V16.62A16.46,16.46,0,0,1,16.51.15H83.58a16.47,16.47,0,0,1,16.47,16.47V83.68A16.47,16.47,0,0,1,83.58,100.15ZM57.36,75.92a7.19,7.19,0,0,0,3.77-2.84,8.33,8.33,0,0,0,1.38-4.81,8,8,0,0,0-3.35-6.76C56.93,59.86,53.9,59,50.05,59s-6.85.82-9.09,2.47a8,8,0,0,0-3.37,6.76A8.16,8.16,0,0,0,38.94,73a7.89,7.89,0,0,0,3.84,3,8,8,0,0,0-4.52,2.86,8.47,8.47,0,0,0-1.59,5.27,8.29,8.29,0,0,0,3.59,7.14q3.59,2.58,9.79,2.58t9.79-2.58a8.31,8.31,0,0,0,3.58-7.14,7.91,7.91,0,0,0-6.06-8.13ZM50.05,87.08q-5.25,0-5.25-3.75t5.25-3.75q5.24,0,5.24,3.75T50.05,87.08Zm0-21.36a5.14,5.14,0,0,1,3.22.84,3.3,3.3,0,0,1,1.06,2.72A3.34,3.34,0,0,1,53.27,72a5,5,0,0,1-3.22.87A5,5,0,0,1,46.82,72a3.34,3.34,0,0,1-1-2.74,3.3,3.3,0,0,1,1-2.72A5.15,5.15,0,0,1,50.05,65.72Zm8.7-31.39H54.81V11.53a4.15,4.15,0,0,0-1.18-3.12,4.23,4.23,0,0,0-3.1-1.16,8.05,8.05,0,0,0-4,1.21l-7.7,4.47a3.27,3.27,0,0,0-1.68,3,4,4,0,0,0,1,2.62,2.88,2.88,0,0,0,2.31,1.18,3.31,3.31,0,0,0,1.68-.48L46,17V34.33h-3.9a4.78,4.78,0,0,0-3.17.87,3.21,3.21,0,0,0-1,2.6q0,3.56,4.18,3.56H58.75q4.19,0,4.19-3.56a3.25,3.25,0,0,0-1-2.6A4.8,4.8,0,0,0,58.75,34.33ZM71.67,49.81h0a3.13,3.13,0,0,0-3.13-3.13h-37a3.13,3.13,0,0,0-3.13,3.13h0a3.13,3.13,0,0,0,3.13,3.12h37A3.13,3.13,0,0,0,71.67,49.81Z"/></svg>