<svg id="Layer_1" data-name="Layer 1" xmlns="http://www.w3.org/2000/svg" viewBox="0 0 100 100"><title>l24_4_1</title><path d="M83.22,100H16.16A16.47,16.47,0,0,1-.31,83.53V16.47A16.47,16.47,0,0,1,16.16,0H83.22A16.47,16.47,0,0,1,99.69,16.47V83.53A16.47,16.47,0,0,1,83.22,100ZM44.41,58.62H40.24V34.55A4.4,4.4,0,0,0,39,31.25,4.45,4.45,0,0,0,35.72,30a8.53,8.53,0,0,0-4.21,1.27L23.39,36a3.44,3.44,0,0,0-1.78,3.15,4.32,4.32,0,0,0,1,2.77,3.05,3.05,0,0,0,2.44,1.24,3.47,3.47,0,0,0,1.78-.51l4.06-2.38V58.62H26.79a5.06,5.06,0,0,0-3.35.91,3.41,3.41,0,0,0-1.07,2.74q0,3.76,4.42,3.76H44.41c2.94,0,4.42-1.25,4.42-3.76a3.41,3.41,0,0,0-1.07-2.74A5.08,5.08,0,0,0,44.41,58.62Zm19.7,7.87q6.65,0,10.15-4.73t3.51-13.65q0-8.89-3.53-13.61T64.11,29.77q-6.66,0-10.16,4.73t-3.5,13.61q0,8.94,3.5,13.65T64.11,66.49Zm0-7.06a3.63,3.63,0,0,1-3.5-2.64c-.72-1.76-1.07-4.65-1.07-8.68s.35-6.92,1.07-8.66a3.64,3.64,0,0,1,7,0q1.06,2.64,1.07,8.64t-1.07,8.68A3.64,3.64,0,0,1,64.11,59.43Z"/></svg>