<svg id="Layer_1" data-name="Layer 1" xmlns="http://www.w3.org/2000/svg" viewBox="0 0 100 100"><title>l24_2_1</title><path d="M83.53,100H16.47A16.47,16.47,0,0,1,0,83.53V16.47A16.47,16.47,0,0,1,16.47,0H83.53A16.47,16.47,0,0,1,100,16.47V83.53A16.47,16.47,0,0,1,83.53,100ZM36.92,43.81a12.68,12.68,0,0,0-5,.91V38.48h11q4.41,0,4.41-3.56t-4.41-3.5H27.12a4.29,4.29,0,0,0-3.19,1.12,4.36,4.36,0,0,0-1.12,3.25V49.55a2.8,2.8,0,0,0,1,2.21,3.57,3.57,0,0,0,2.39.83A4.86,4.86,0,0,0,28.44,52a18.23,18.23,0,0,1,2.92-.92,13.91,13.91,0,0,1,2.77-.25,5.73,5.73,0,0,1,4,1.27,4.5,4.5,0,0,1,1.42,3.55,4.37,4.37,0,0,1-1.37,3.58,6.49,6.49,0,0,1-4.21,1.14A8.51,8.51,0,0,1,31.11,60a29.45,29.45,0,0,1-2.87-1.22l-1-.51a14.79,14.79,0,0,0-1.53-.76,3.35,3.35,0,0,0-1.27-.2,2.63,2.63,0,0,0-2.13,1.09A4.1,4.1,0,0,0,21.44,61a3.68,3.68,0,0,0,.38,1.75A4.37,4.37,0,0,0,23,64.17a16.87,16.87,0,0,0,5.21,2.54,21.14,21.14,0,0,0,6.17.91,16.42,16.42,0,0,0,7.26-1.52,11.39,11.39,0,0,0,4.87-4.32,12,12,0,0,0,1.73-6.44,12.16,12.16,0,0,0-1.45-6,10.24,10.24,0,0,0-4-4.06A11.69,11.69,0,0,0,36.92,43.81Zm28,23.86q6.66,0,10.16-4.72t3.5-13.66q0-8.88-3.53-13.61T64.9,31q-6.65,0-10.15,4.72T51.24,49.29q0,8.94,3.51,13.66T64.9,67.67Zm0-7.05A3.64,3.64,0,0,1,61.4,58q-1.07-2.64-1.07-8.69t1.07-8.65a3.65,3.65,0,0,1,7,0q1.07,2.64,1.06,8.63T68.41,58A3.64,3.64,0,0,1,64.9,60.62Z"/></svg>