<svg id="Layer_1" data-name="Layer 1" xmlns="http://www.w3.org/2000/svg" viewBox="0 0 100 100"><title>l24_1_1</title><path d="M83.53,100H16.47A16.47,16.47,0,0,1,0,83.53V16.47A16.47,16.47,0,0,1,16.47,0H83.53A16.47,16.47,0,0,1,100,16.47V83.53A16.47,16.47,0,0,1,83.53,100ZM42.71,48.79a7.69,7.69,0,0,0,4-3,8.85,8.85,0,0,0,1.45-5.08,8.4,8.4,0,0,0-3.53-7.13Q41.08,31,35,31t-9.6,2.62a8.38,8.38,0,0,0-3.56,7.13,8.61,8.61,0,0,0,1.43,4.95,8.32,8.32,0,0,0,4.06,3.13,8.42,8.42,0,0,0-4.78,3,9,9,0,0,0-1.67,5.56,8.77,8.77,0,0,0,3.78,7.54Q28.44,67.63,35,67.62t10.33-2.71a8.77,8.77,0,0,0,3.78-7.54,8.35,8.35,0,0,0-6.4-8.58ZM35,60.57c-3.7,0-5.54-1.32-5.54-4s1.84-4,5.54-4,5.53,1.32,5.53,4S38.68,60.57,35,60.57ZM35,38a5.44,5.44,0,0,1,3.4.89,3.46,3.46,0,0,1,1.11,2.87,3.53,3.53,0,0,1-1.11,2.89,5.31,5.31,0,0,1-3.4.92,5.32,5.32,0,0,1-3.41-.92,3.53,3.53,0,0,1-1.11-2.89,3.46,3.46,0,0,1,1.11-2.87A5.45,5.45,0,0,1,35,38ZM65.46,67.68q6.66,0,10.16-4.73t3.5-13.66q0-8.88-3.53-13.6T65.46,31q-6.64,0-10.15,4.73T51.8,49.29q0,8.94,3.51,13.66T65.46,67.68Zm0-7.06A3.64,3.64,0,0,1,62,58q-1.07-2.64-1.07-8.69c0-4,.36-6.91,1.07-8.65a3.65,3.65,0,0,1,7,0Q70,43.3,70,49.29T69,58A3.65,3.65,0,0,1,65.46,60.62Z"/></svg>