<svg id="Layer_1" data-name="Layer 1" xmlns="http://www.w3.org/2000/svg" viewBox="0 0 100 100"><title>l24_1_1</title><path d="M83.8,100H16.73A16.47,16.47,0,0,1,.26,83.53V16.47A16.47,16.47,0,0,1,16.73,0H83.8a16.46,16.46,0,0,1,16.46,16.47V83.53A16.46,16.46,0,0,1,83.8,100ZM18.6,31a13,13,0,0,0-6.44,1.58,11.32,11.32,0,0,0-4.45,4.39,13.56,13.56,0,0,0-.2,12.39,10.48,10.48,0,0,0,3.83,4.16A10.26,10.26,0,0,0,16.83,55,9.76,9.76,0,0,0,21.12,54a8,8,0,0,0,3.12-2.56,13.51,13.51,0,0,1-1.9,6.62,4.86,4.86,0,0,1-4.19,2.36,6.77,6.77,0,0,1-2.34-.4c-.74-.27-1.68-.68-2.79-1.22l-1.12-.56c-.64-.34-1.15-.58-1.52-.73a3.23,3.23,0,0,0-1.27-.23A2.68,2.68,0,0,0,7,58.41a4.09,4.09,0,0,0-.89,2.66,3.78,3.78,0,0,0,.38,1.78,4.38,4.38,0,0,0,1.25,1.37,16,16,0,0,0,5.1,2.54,19.7,19.7,0,0,0,5.81.92,13.77,13.77,0,0,0,7.9-2.29,14.83,14.83,0,0,0,5.23-6.52,24.75,24.75,0,0,0,1.85-9.93q0-8.64-3.91-13.31T18.6,31Zm.56,16.81A4,4,0,0,1,16,46.47,5.12,5.12,0,0,1,14.85,43,5.09,5.09,0,0,1,16,39.44a4,4,0,0,1,3.15-1.32,4,4,0,0,1,3.15,1.35A5,5,0,0,1,23.53,43a5.05,5.05,0,0,1-1.19,3.5A4.09,4.09,0,0,1,19.16,47.77ZM50.34,67.68Q57,67.68,60.5,63T64,49.29q0-8.88-3.53-13.61T50.34,31q-6.66,0-10.16,4.72t-3.5,13.61q0,8.94,3.5,13.66T50.34,67.68Zm0-7.06A3.63,3.63,0,0,1,46.84,58c-.72-1.76-1.07-4.66-1.07-8.69s.35-6.91,1.07-8.65a3.64,3.64,0,0,1,7,0q1.06,2.64,1.07,8.63T53.84,58A3.64,3.64,0,0,1,50.34,60.62Zm30.47,7.06Q87.45,67.68,91,63t3.5-13.66q0-8.88-3.52-13.61T80.81,31q-6.66,0-10.16,4.72t-3.5,13.61q0,8.94,3.5,13.66T80.81,67.68Zm0-7.06A3.64,3.64,0,0,1,77.3,58q-1.06-2.64-1.06-8.69t1.06-8.65a3.65,3.65,0,0,1,7,0q1.06,2.64,1.07,8.63T84.31,58A3.64,3.64,0,0,1,80.81,60.62Z"/></svg>