<svg id="Layer_1" data-name="Layer 1" xmlns="http://www.w3.org/2000/svg" viewBox="0 0 100 100"><title>l24_4_1</title><path d="M83.22,100H16.16A16.47,16.47,0,0,1-.31,83.53V16.47A16.47,16.47,0,0,1,16.16,0H83.22A16.47,16.47,0,0,1,99.69,16.47V83.53A16.47,16.47,0,0,1,83.22,100ZM44.92,31.42H25a5,5,0,0,0-3.35.94,3.56,3.56,0,0,0-1.07,2.82,3.46,3.46,0,0,0,1,2.74,5.08,5.08,0,0,0,3.38.91h12.7l-13,22.29a4.79,4.79,0,0,0-.72,2.44,3.71,3.71,0,0,0,1.38,2.92,4.61,4.61,0,0,0,3.14,1.19,4.32,4.32,0,0,0,2.16-.58,4.74,4.74,0,0,0,1.75-1.8L47.76,38.63a6.5,6.5,0,0,0,1-3.35,4,4,0,0,0-1-2.77A3.6,3.6,0,0,0,44.92,31.42ZM65.13,67.67q6.65,0,10.15-4.72t3.5-13.66q0-8.88-3.52-13.61T65.13,31Q58.47,31,55,35.68t-3.5,13.61q0,8.94,3.5,13.66T65.13,67.67Zm0-7.05A3.64,3.64,0,0,1,61.62,58q-1.07-2.64-1.07-8.69t1.07-8.65a3.65,3.65,0,0,1,7,0q1.07,2.64,1.07,8.63T68.63,58A3.64,3.64,0,0,1,65.13,60.62Z"/></svg>