<svg id="Layer_1" data-name="Layer 1" xmlns="http://www.w3.org/2000/svg" viewBox="0 0 100 100"><title>l24_4_1</title><path d="M83.22,100H16.16A16.47,16.47,0,0,1-.31,83.53V16.47A16.47,16.47,0,0,1,16.16,0H83.22A16.47,16.47,0,0,1,99.69,16.47V83.53A16.47,16.47,0,0,1,83.22,100ZM36.61,43.81a12.64,12.64,0,0,0-5,.91V38.48h11q4.43,0,4.42-3.56t-4.42-3.5H26.81a4.33,4.33,0,0,0-3.2,1.12,4.4,4.4,0,0,0-1.11,3.25V49.55a2.8,2.8,0,0,0,1,2.21,3.55,3.55,0,0,0,2.39.83A4.86,4.86,0,0,0,28.13,52a18.23,18.23,0,0,1,2.92-.92,13.84,13.84,0,0,1,2.77-.25,5.73,5.73,0,0,1,4,1.27,4.5,4.5,0,0,1,1.42,3.55,4.37,4.37,0,0,1-1.37,3.58,6.49,6.49,0,0,1-4.21,1.14A8.51,8.51,0,0,1,30.8,60a29.45,29.45,0,0,1-2.87-1.22l-1-.51a13.91,13.91,0,0,0-1.52-.76,3.35,3.35,0,0,0-1.27-.2A2.61,2.61,0,0,0,22,58.36,4.1,4.1,0,0,0,21.13,61a3.68,3.68,0,0,0,.38,1.75,4.37,4.37,0,0,0,1.19,1.4,16.92,16.92,0,0,0,5.2,2.54,21.19,21.19,0,0,0,6.17.91,16.43,16.43,0,0,0,7.27-1.52,11.45,11.45,0,0,0,4.87-4.32,12,12,0,0,0,1.73-6.44,12.27,12.27,0,0,0-1.45-6,10.3,10.3,0,0,0-4-4.06A11.69,11.69,0,0,0,36.61,43.81Zm28,23.86q6.66,0,10.16-4.72t3.5-13.66q0-8.88-3.53-13.61T64.59,31q-6.65,0-10.15,4.72T50.93,49.29q0,8.94,3.51,13.66T64.59,67.67Zm0-7.05A3.64,3.64,0,0,1,61.09,58Q60,55.34,60,49.29t1.07-8.65a3.65,3.65,0,0,1,7,0q1.07,2.64,1.06,8.63T68.1,58A3.64,3.64,0,0,1,64.59,60.62Z"/></svg>