<svg id="Layer_1" data-name="Layer 1" xmlns="http://www.w3.org/2000/svg" viewBox="0 0 100 100"><title>l24_5_1</title><path d="M83.58,100.15H16.51A16.46,16.46,0,0,1,.05,83.68V16.62A16.46,16.46,0,0,1,16.51.15H83.58a16.47,16.47,0,0,1,16.47,16.47V83.68A16.47,16.47,0,0,1,83.58,100.15ZM59.24,58.87H55.07V34.8a4.41,4.41,0,0,0-1.24-3.3,4.49,4.49,0,0,0-3.28-1.22,8.64,8.64,0,0,0-4.21,1.27l-8.12,4.72a3.46,3.46,0,0,0-1.78,3.15,4.3,4.3,0,0,0,1,2.77,3.05,3.05,0,0,0,2.44,1.24,3.56,3.56,0,0,0,1.78-.5l4.06-2.39V58.87H41.62a5.08,5.08,0,0,0-3.35.91,3.43,3.43,0,0,0-1.07,2.75q0,3.75,4.42,3.75H59.24c2.94,0,4.42-1.25,4.42-3.75a3.43,3.43,0,0,0-1.07-2.75A5.08,5.08,0,0,0,59.24,58.87Z"/></svg>