<svg id="Layer_1" data-name="Layer 1" xmlns="http://www.w3.org/2000/svg" viewBox="0 0 100 100"><title>l24_4_1</title><path d="M83.42,100H16.36A16.47,16.47,0,0,1-.11,83.53V16.47A16.47,16.47,0,0,1,16.36,0H83.42A16.47,16.47,0,0,1,99.89,16.47V83.53A16.47,16.47,0,0,1,83.42,100ZM41.26,48.79a8.27,8.27,0,0,0,4-3.08,8.44,8.44,0,0,0,1.44-4.9,8.82,8.82,0,0,0-1.55-5.18,9.89,9.89,0,0,0-4.41-3.45A16.9,16.9,0,0,0,34.15,31a20.36,20.36,0,0,0-6,.92A16.64,16.64,0,0,0,23,34.42a4,4,0,0,0-1.22,1.37,3.88,3.88,0,0,0-.35,1.77,4.15,4.15,0,0,0,.86,2.67,2.6,2.6,0,0,0,2.13,1.09,3.2,3.2,0,0,0,1.27-.23c.37-.15.88-.39,1.52-.73l1.07-.51A26.33,26.33,0,0,1,31,38.63a7.78,7.78,0,0,1,2.66-.46,4.38,4.38,0,0,1,3.1,1,3.79,3.79,0,0,1,1.12,2.92,2.85,2.85,0,0,1-1.27,2.59,7.78,7.78,0,0,1-4.06.82H30.34A2.89,2.89,0,0,0,28,46.6a4.14,4.14,0,0,0,0,5.08,2.89,2.89,0,0,0,2.38,1.07h3.15a7.57,7.57,0,0,1,4.16.86,3.18,3.18,0,0,1,1.27,2.84,3.52,3.52,0,0,1-1.24,3,7,7,0,0,1-4.09.91A9.19,9.19,0,0,1,30.67,60a23.19,23.19,0,0,1-2.92-1.24l-.63-.28-.48-.23c-.65-.34-1.16-.58-1.53-.74a3.35,3.35,0,0,0-1.27-.22,2.63,2.63,0,0,0-2.13,1.09A4.12,4.12,0,0,0,20.85,61a3.55,3.55,0,0,0,1.57,3.15,16.44,16.44,0,0,0,5.28,2.57,22.65,22.65,0,0,0,6.35.88,19,19,0,0,0,7.18-1.24A10.72,10.72,0,0,0,46,62.85a8.83,8.83,0,0,0,1.68-5.38A9.05,9.05,0,0,0,46,51.93,8.63,8.63,0,0,0,41.26,48.79Zm24,18.89q6.64,0,10.15-4.73t3.51-13.66q0-8.88-3.53-13.61T65.28,31q-6.66,0-10.16,4.72t-3.5,13.61q0,8.94,3.5,13.66T65.28,67.68Zm0-7.06A3.64,3.64,0,0,1,61.77,58q-1.07-2.64-1.06-8.69t1.06-8.65a3.65,3.65,0,0,1,7,0q1.06,2.64,1.07,8.63T68.78,58A3.64,3.64,0,0,1,65.28,60.62Z"/></svg>