<svg id="Layer_1" data-name="Layer 1" xmlns="http://www.w3.org/2000/svg" viewBox="0 0 100 100"><title>l24_3_1</title><path d="M83.53,100H16.47A16.47,16.47,0,0,1,0,83.53V16.47A16.47,16.47,0,0,1,16.47,0H83.53A16.47,16.47,0,0,1,100,16.47V83.53A16.47,16.47,0,0,1,83.53,100Zm-56-32.33q6.55,0,10-4.65T41,49.57q0-8.74-3.47-13.4t-10-4.65q-6.55,0-10,4.65t-3.45,13.4q0,8.81,3.45,13.45T27.53,67.67Zm0-7a3.59,3.59,0,0,1-3.45-2.6q-1-2.59-1-8.55t1-8.53a3.59,3.59,0,0,1,6.9,0c.7,1.73,1.05,4.57,1.05,8.5s-.35,6.82-1.05,8.55A3.59,3.59,0,0,1,27.53,60.72Zm21.8,6.8a4.63,4.63,0,0,0,3.43-1.4,5,5,0,0,0,0-6.9,5,5,0,0,0-6.9,0,5,5,0,0,0,0,6.9A4.66,4.66,0,0,0,49.33,67.52Zm32.4-7.6h-4.1V36.22A4.36,4.36,0,0,0,76.41,33a4.43,4.43,0,0,0-3.23-1.2A8.5,8.5,0,0,0,69,33l-8,4.65a3.39,3.39,0,0,0-1.75,3.1,4.16,4.16,0,0,0,1,2.72,3,3,0,0,0,2.4,1.23,3.45,3.45,0,0,0,1.75-.5l4-2.35V59.92H64.38a5,5,0,0,0-3.3.9,3.36,3.36,0,0,0-1,2.7q0,3.7,4.35,3.7H81.73q4.35,0,4.35-3.7a3.36,3.36,0,0,0-1-2.7A5,5,0,0,0,81.73,59.92Z"/></svg>