<svg id="Layer_1" data-name="Layer 1" xmlns="http://www.w3.org/2000/svg" viewBox="0 0 100 100"><title>l24_4_1</title><path d="M83.18,100H16.12A16.47,16.47,0,0,1-.35,83.53V16.47A16.47,16.47,0,0,1,16.12,0H83.18A16.47,16.47,0,0,1,99.65,16.47V83.53A16.47,16.47,0,0,1,83.18,100ZM22.26,43.66a9.78,9.78,0,0,0-4.3.94,8,8,0,0,0-3.12,2.56,13.47,13.47,0,0,1,1.91-6.63,4.85,4.85,0,0,1,4.18-2.36,6.78,6.78,0,0,1,2.34.41c.74.27,1.68.68,2.79,1.22l1.12.56c.64.34,1.15.58,1.52.73a3.42,3.42,0,0,0,1.27.23,2.68,2.68,0,0,0,2.16-1.09A4.12,4.12,0,0,0,33,37.56a3.74,3.74,0,0,0-.38-1.77,4.47,4.47,0,0,0-1.24-1.38,16.39,16.39,0,0,0-5.11-2.53A19.7,19.7,0,0,0,20.48,31a13.7,13.7,0,0,0-7.9,2.29,14.83,14.83,0,0,0-5.23,6.52A24.75,24.75,0,0,0,5.5,49.7q0,8.63,3.91,13.3t11.07,4.67a13.11,13.11,0,0,0,6.45-1.57,11.36,11.36,0,0,0,4.44-4.39A12.64,12.64,0,0,0,33,55.34a12.79,12.79,0,0,0-1.4-6,10.51,10.51,0,0,0-3.83-4.17A10.34,10.34,0,0,0,22.26,43.66ZM19.92,60.51a4,4,0,0,1-3.15-1.34,5.64,5.64,0,0,1,0-7,4.05,4.05,0,0,1,3.17-1.32,4,4,0,0,1,3.17,1.29,5.17,5.17,0,0,1,1.15,3.53,5.11,5.11,0,0,1-1.17,3.51A4,4,0,0,1,19.92,60.51Zm29.76,7.16q6.65,0,10.15-4.72t3.51-13.66q0-8.88-3.53-13.61T49.68,31Q43,31,39.52,35.68T36,49.29q0,8.94,3.5,13.66T49.68,67.67Zm0-7.05A3.64,3.64,0,0,1,46.17,58q-1.06-2.64-1.07-8.69t1.07-8.65a3.65,3.65,0,0,1,7,0q1.07,2.64,1.07,8.63T53.18,58A3.64,3.64,0,0,1,49.68,60.62Zm30.46,7.05q6.66,0,10.16-4.72t3.5-13.66q0-8.88-3.53-13.61T80.14,31Q73.49,31,70,35.68T66.48,49.29Q66.48,58.23,70,63T80.14,67.67Zm0-7.05A3.64,3.64,0,0,1,76.64,58q-1.06-2.64-1.07-8.69t1.07-8.65a3.65,3.65,0,0,1,7,0q1.06,2.64,1.06,8.63T83.65,58A3.65,3.65,0,0,1,80.14,60.62Z"/></svg>