<svg id="Layer_1" data-name="Layer 1" xmlns="http://www.w3.org/2000/svg" viewBox="0 0 100 100"><title>l24_4_1</title><path d="M83.22,100H16.16A16.47,16.47,0,0,1-.31,83.53V16.47A16.47,16.47,0,0,1,16.16,0H83.22A16.47,16.47,0,0,1,99.69,16.47V83.53A16.47,16.47,0,0,1,83.22,100ZM52.68,43.66a9.76,9.76,0,0,0-4.29.94,8,8,0,0,0-3.12,2.56,13.47,13.47,0,0,1,1.91-6.63,4.85,4.85,0,0,1,4.18-2.36,6.78,6.78,0,0,1,2.34.41c.74.27,1.68.68,2.79,1.22l1.12.56c.64.34,1.15.58,1.52.73a3.42,3.42,0,0,0,1.27.23,2.68,2.68,0,0,0,2.16-1.09,4.12,4.12,0,0,0,.89-2.67,3.74,3.74,0,0,0-.38-1.77,4.51,4.51,0,0,0-1.25-1.38,16.23,16.23,0,0,0-5.1-2.53A19.7,19.7,0,0,0,50.91,31,13.7,13.7,0,0,0,43,33.25a14.83,14.83,0,0,0-5.23,6.52,24.75,24.75,0,0,0-1.85,9.93q0,8.63,3.91,13.3t11.07,4.67a13.11,13.11,0,0,0,6.45-1.57,11.36,11.36,0,0,0,4.44-4.39,12.64,12.64,0,0,0,1.6-6.37,12.79,12.79,0,0,0-1.4-6,10.51,10.51,0,0,0-3.83-4.17A10.35,10.35,0,0,0,52.68,43.66ZM50.35,60.51a4,4,0,0,1-3.15-1.34,5.64,5.64,0,0,1,0-7,4.5,4.5,0,0,1,6.34,0,5.17,5.17,0,0,1,1.15,3.53A5.11,5.11,0,0,1,53.5,59.2,4,4,0,0,1,50.35,60.51Z"/></svg>