<svg id="Layer_1" data-name="Layer 1" xmlns="http://www.w3.org/2000/svg" viewBox="0 0 100 100"><title>l24_2_1</title><path d="M83.53,100H16.47A16.47,16.47,0,0,1,0,83.53V16.47A16.47,16.47,0,0,1,16.47,0H83.53A16.47,16.47,0,0,1,100,16.47V83.53A16.47,16.47,0,0,1,83.53,100Zm-54-40.2H25.32V35.74a4.4,4.4,0,0,0-1.24-3.3,4.45,4.45,0,0,0-3.28-1.22,8.53,8.53,0,0,0-4.21,1.27L8.46,37.21a3.45,3.45,0,0,0-1.77,3.15,4.28,4.28,0,0,0,1,2.76,3.06,3.06,0,0,0,2.44,1.25,3.47,3.47,0,0,0,1.78-.51L16,41.47V59.8H11.87a5.06,5.06,0,0,0-3.35.92,3.38,3.38,0,0,0-1.07,2.74q0,3.76,4.42,3.76H29.49q4.41,0,4.41-3.76a3.41,3.41,0,0,0-1.06-2.74A5.08,5.08,0,0,0,29.49,59.8Zm19.7,7.88q6.64,0,10.15-4.73t3.51-13.66q0-8.88-3.53-13.6T49.19,31Q42.53,31,39,35.69t-3.5,13.6q0,8.94,3.5,13.66T49.19,67.68Zm0-7.06A3.65,3.65,0,0,1,45.68,58q-1.07-2.64-1.06-8.69c0-4,.35-6.91,1.06-8.65a3.65,3.65,0,0,1,7,0q1.06,2.64,1.07,8.63T52.69,58A3.64,3.64,0,0,1,49.19,60.62Zm30.46,7.06q6.66,0,10.16-4.73t3.5-13.66q0-8.88-3.53-13.6T79.65,31Q73,31,69.5,35.69T66,49.29Q66,58.23,69.5,63T79.65,67.68Zm0-7.06A3.64,3.64,0,0,1,76.15,58q-1.07-2.64-1.07-8.69c0-4,.36-6.91,1.07-8.65a3.65,3.65,0,0,1,7,0q1.07,2.64,1.06,8.63T83.16,58A3.64,3.64,0,0,1,79.65,60.62Z"/></svg>