<svg id="Layer_1" data-name="Layer 1" xmlns="http://www.w3.org/2000/svg" viewBox="0 0 100 100"><title>l24_5_1</title><path d="M83.71,100.15H16.65A16.47,16.47,0,0,1,.18,83.68V16.62A16.47,16.47,0,0,1,16.65.15H83.71a16.47,16.47,0,0,1,16.47,16.47V83.68A16.47,16.47,0,0,1,83.71,100.15ZM56.29,75.92A7.8,7.8,0,0,0,60.11,73a8,8,0,0,0,1.37-4.64A8.46,8.46,0,0,0,60,63.46a9.45,9.45,0,0,0-4.19-3.27A15.92,15.92,0,0,0,49.55,59a19.22,19.22,0,0,0-5.7.86A16,16,0,0,0,39,62.31a3.8,3.8,0,0,0-1.15,1.3,3.67,3.67,0,0,0-.34,1.68,3.89,3.89,0,0,0,.82,2.52,2.48,2.48,0,0,0,2,1,3,3,0,0,0,1.2-.22q.52-.21,1.44-.69l1-.49A26.85,26.85,0,0,1,46.6,66.3a7.17,7.17,0,0,1,2.52-.43,4.19,4.19,0,0,1,2.94,1,3.62,3.62,0,0,1,1,2.77,2.69,2.69,0,0,1-1.2,2.45,7.28,7.28,0,0,1-3.85.77H46a2.74,2.74,0,0,0-2.26,1,3.94,3.94,0,0,0,0,4.81,2.71,2.71,0,0,0,2.26,1h3a7.16,7.16,0,0,1,3.94.82,3,3,0,0,1,1.21,2.69,3.37,3.37,0,0,1-1.18,2.89,6.66,6.66,0,0,1-3.87.87,8.81,8.81,0,0,1-2.77-.41,23.28,23.28,0,0,1-2.77-1.18l-.6-.27-.45-.21c-.61-.32-1.1-.56-1.45-.7a3.21,3.21,0,0,0-1.2-.22,2.48,2.48,0,0,0-2,1A3.91,3.91,0,0,0,37,87.51a3.7,3.7,0,0,0,.34,1.66,3.78,3.78,0,0,0,1.15,1.33,15.57,15.57,0,0,0,5,2.42,21.34,21.34,0,0,0,6,.85,18.12,18.12,0,0,0,6.8-1.18,10.13,10.13,0,0,0,4.5-3.35,8.36,8.36,0,0,0,1.59-5.09,8.58,8.58,0,0,0-1.61-5.25A8.25,8.25,0,0,0,56.29,75.92Zm4.09-41.59h-4V11.53a4.15,4.15,0,0,0-1.18-3.12,4.23,4.23,0,0,0-3.1-1.16,8.05,8.05,0,0,0-4,1.21l-7.7,4.47a3.27,3.27,0,0,0-1.68,3,4,4,0,0,0,1,2.62,2.88,2.88,0,0,0,2.31,1.18,3.25,3.25,0,0,0,1.68-.48L47.58,17V34.33h-3.9a4.78,4.78,0,0,0-3.17.87,3.25,3.25,0,0,0-1,2.6q0,3.56,4.18,3.56h16.7q4.18,0,4.18-3.56a3.25,3.25,0,0,0-1-2.6A4.78,4.78,0,0,0,60.38,34.33ZM71.8,49.81h0a3.13,3.13,0,0,0-3.13-3.13h-37a3.13,3.13,0,0,0-3.13,3.13h0a3.13,3.13,0,0,0,3.13,3.12h37A3.13,3.13,0,0,0,71.8,49.81Z"/></svg>