<svg id="Layer_1" data-name="Layer 1" xmlns="http://www.w3.org/2000/svg" viewBox="0 0 150 100"><title>s24_1</title><path d="M128.7,61.9a12.21,12.21,0,0,1-5.2,6.19,16.28,16.28,0,0,1-9.93,2.61h-3.29V88.05A11.79,11.79,0,0,1,98.49,99.84H49.59A11.79,11.79,0,0,1,37.8,88.05V70.56l-2,0a12.41,12.41,0,0,1-7.6-1.18,14.38,14.38,0,0,1-6.56-7.23,14.5,14.5,0,0,1,3.2-14.83C38.19,33,51.83,19.07,65.05,4.63c5.21-5.7,14.07-6.21,19.43,0,4.7,5.44,9.79,10.46,14.7,15.67,8.63,9.18,17.29,18.33,25.88,27.56a15.58,15.58,0,0,1,3.1,5.46C128.76,55.08,129.91,58.31,128.7,61.9ZM87.06,70H74l9.23-9.43a30.33,30.33,0,0,0,5.43-7.31A16.43,16.43,0,0,0,90.24,46a11.91,11.91,0,0,0-2-6.79,12.65,12.65,0,0,0-5.62-4.55,21,21,0,0,0-8.45-1.59,26.48,26.48,0,0,0-14.37,4.42,4.26,4.26,0,0,0-1.59,1.69A6.28,6.28,0,0,0,58.91,45a3.32,3.32,0,0,0,2.73,1.47,3.88,3.88,0,0,0,1.24-.2,7.25,7.25,0,0,0,1.33-.62l1-.55,1.3-.65a32.64,32.64,0,0,1,3.67-1.59,10.5,10.5,0,0,1,3.48-.55,5.14,5.14,0,0,1,3.61,1.17,4.36,4.36,0,0,1,1.26,3.38q0,3.77-4.29,8.25L60.47,69.49a7.1,7.1,0,0,0-2.21,5.06,4.86,4.86,0,0,0,1.37,3.55,4.94,4.94,0,0,0,3.7,1.4H87.06a6.56,6.56,0,0,0,4.26-1.17,4.49,4.49,0,0,0,1.39-3.64,4.31,4.31,0,0,0-1.39-3.55A6.69,6.69,0,0,0,87.06,70Z"/></svg>