<svg id="Layer_1" data-name="Layer 1" xmlns="http://www.w3.org/2000/svg" viewBox="0 0 150 100"><title>s24_1</title><path d="M128.7,61.9a12.21,12.21,0,0,1-5.2,6.19,16.28,16.28,0,0,1-9.93,2.61h-3.29V88.05A11.79,11.79,0,0,1,98.49,99.84H49.59A11.79,11.79,0,0,1,37.8,88.05V70.56l-2,0a12.41,12.41,0,0,1-7.6-1.18,14.38,14.38,0,0,1-6.56-7.23,14.5,14.5,0,0,1,3.2-14.83C38.19,33,51.83,19.07,65.05,4.63c5.21-5.7,14.07-6.21,19.43,0,4.7,5.44,9.79,10.46,14.7,15.67,8.63,9.18,17.29,18.33,25.88,27.56a15.58,15.58,0,0,1,3.1,5.46C128.76,55.08,129.91,58.31,128.7,61.9ZM82.42,82.81h-8L80.06,77a18.59,18.59,0,0,0,3.34-4.5,10.1,10.1,0,0,0,1-4.46,7.38,7.38,0,0,0-1.22-4.18,7.87,7.87,0,0,0-3.46-2.8,12.93,12.93,0,0,0-5.2-1,16.28,16.28,0,0,0-8.84,2.72,2.65,2.65,0,0,0-1,1,3.53,3.53,0,0,0-.26,1.44,3.46,3.46,0,0,0,.68,2.14,2,2,0,0,0,1.68.9,2.37,2.37,0,0,0,.76-.12,4.42,4.42,0,0,0,.82-.38l.62-.34.8-.4a21.23,21.23,0,0,1,2.26-1,6.67,6.67,0,0,1,2.14-.34,3.15,3.15,0,0,1,2.22.72,2.7,2.7,0,0,1,.78,2.08q0,2.33-2.64,5.08l-8.48,8.84a4.39,4.39,0,0,0-1.36,3.12,2.92,2.92,0,0,0,3.12,3h14.6A4,4,0,0,0,85,87.93a2.76,2.76,0,0,0,.86-2.24A2.67,2.67,0,0,0,85,83.51,4.14,4.14,0,0,0,82.42,82.81ZM82,39.55H78.68v-19A3.34,3.34,0,0,0,75.12,17a6.85,6.85,0,0,0-3.32,1l-6.4,3.72A2.73,2.73,0,0,0,64,24.23a3.38,3.38,0,0,0,.8,2.18,2.39,2.39,0,0,0,1.92,1,2.69,2.69,0,0,0,1.4-.4l3.2-1.88V39.55H68.08a4,4,0,0,0-2.64.72,2.69,2.69,0,0,0-.84,2.16c0,2,1.16,3,3.48,3H82c2.32,0,3.48-1,3.48-3a2.69,2.69,0,0,0-.84-2.16A4,4,0,0,0,82,39.55ZM92.17,52.42h0a2.6,2.6,0,0,0-2.6-2.6H58.81a2.6,2.6,0,0,0-2.6,2.6h0a2.6,2.6,0,0,0,2.6,2.6H89.57A2.6,2.6,0,0,0,92.17,52.42Z"/></svg>