<svg id="Layer_1" data-name="Layer 1" xmlns="http://www.w3.org/2000/svg" viewBox="0 0 150 100"><title>s24_1</title><path d="M128.7,61.9a12.21,12.21,0,0,1-5.2,6.19,16.28,16.28,0,0,1-9.93,2.61h-3.29V88.05A11.79,11.79,0,0,1,98.49,99.84H49.59A11.79,11.79,0,0,1,37.8,88.05V70.56l-2,0a12.41,12.41,0,0,1-7.6-1.18,14.38,14.38,0,0,1-6.56-7.23,14.5,14.5,0,0,1,3.2-14.83C38.19,33,51.83,19.07,65.05,4.63c5.21-5.7,14.07-6.21,19.43,0,4.7,5.44,9.79,10.46,14.7,15.67,8.63,9.18,17.29,18.33,25.88,27.56a15.58,15.58,0,0,1,3.1,5.46C128.76,55.08,129.91,58.31,128.7,61.9ZM82.82,78.29h-.88V63.85a3.41,3.41,0,0,0-1.08-2.68,3.78,3.78,0,0,0-2.6-1,4,4,0,0,0-1.78.42,3.71,3.71,0,0,0-1.42,1.22L63.62,78.17a4.54,4.54,0,0,0-.88,2.64,3,3,0,0,0,.84,2.2,3,3,0,0,0,2.28.88h8.92v1.36a3.3,3.3,0,0,0,3.56,3.64,3.66,3.66,0,0,0,2.6-.92,3.5,3.5,0,0,0,1-2.72V83.89h.88c2.32,0,3.48-.94,3.48-2.84S85.14,78.29,82.82,78.29ZM70,78.29l4.8-6.92v6.92ZM82.74,39.55H79.46v-19A3.34,3.34,0,0,0,75.9,17a6.82,6.82,0,0,0-3.32,1l-6.4,3.72a2.73,2.73,0,0,0-1.4,2.48,3.38,3.38,0,0,0,.8,2.18,2.38,2.38,0,0,0,1.92,1,2.69,2.69,0,0,0,1.4-.4l3.2-1.88V39.55H68.86a4,4,0,0,0-2.64.72,2.69,2.69,0,0,0-.84,2.16c0,2,1.16,3,3.48,3H82.74c2.32,0,3.48-1,3.48-3a2.69,2.69,0,0,0-.84-2.16A4,4,0,0,0,82.74,39.55Zm9.43,12.87h0a2.6,2.6,0,0,0-2.6-2.6H58.81a2.6,2.6,0,0,0-2.6,2.6h0a2.6,2.6,0,0,0,2.6,2.6H89.57A2.6,2.6,0,0,0,92.17,52.42Z"/></svg>