<svg id="Layer_1" data-name="Layer 1" xmlns="http://www.w3.org/2000/svg" viewBox="0 0 150 100"><title>s24_1</title><path d="M128.7,61.9a12.21,12.21,0,0,1-5.2,6.19,16.28,16.28,0,0,1-9.93,2.61h-3.29V88.05A11.79,11.79,0,0,1,98.49,99.84H49.59A11.79,11.79,0,0,1,37.8,88.05V70.56l-2,0a12.41,12.41,0,0,1-7.6-1.18,14.38,14.38,0,0,1-6.56-7.23,14.5,14.5,0,0,1,3.2-14.83C38.19,33,51.83,19.07,65.05,4.63c5.21-5.7,14.07-6.21,19.43,0,4.7,5.44,9.79,10.46,14.7,15.67,8.63,9.18,17.29,18.33,25.88,27.56a15.58,15.58,0,0,1,3.1,5.46C128.76,55.08,129.91,58.31,128.7,61.9Zm-45.44-6A10.46,10.46,0,0,0,88.42,52a10.78,10.78,0,0,0,1.86-6.27,11.27,11.27,0,0,0-2-6.63,12.66,12.66,0,0,0-5.65-4.42,21.56,21.56,0,0,0-8.48-1.56,26.08,26.08,0,0,0-7.71,1.17,21.47,21.47,0,0,0-6.59,3.25,5.1,5.1,0,0,0-1.56,1.75,5,5,0,0,0-.46,2.28A5.31,5.31,0,0,0,59,45a3.34,3.34,0,0,0,2.73,1.39,4.18,4.18,0,0,0,1.62-.29c.48-.19,1.13-.51,2-.94l1.37-.65a35.23,35.23,0,0,1,3.54-1.56,9.81,9.81,0,0,1,3.41-.58,5.61,5.61,0,0,1,4,1.33A4.86,4.86,0,0,1,79,47.38a3.66,3.66,0,0,1-1.63,3.32,10,10,0,0,1-5.2,1H69.28a3.73,3.73,0,0,0-3.06,1.37,5.35,5.35,0,0,0,0,6.5A3.75,3.75,0,0,0,69.28,61h4q3.7,0,5.33,1.11a4.08,4.08,0,0,1,1.63,3.63,4.53,4.53,0,0,1-1.6,3.91q-1.59,1.17-5.23,1.17a11.76,11.76,0,0,1-3.74-.56A28.17,28.17,0,0,1,66,68.64l-.82-.36L64.54,68c-.83-.43-1.48-.75-2-.94A4.19,4.19,0,0,0,61,66.76a3.36,3.36,0,0,0-2.73,1.39,5.33,5.33,0,0,0-1.1,3.42,5.18,5.18,0,0,0,.45,2.24,5,5,0,0,0,1.56,1.78,20.78,20.78,0,0,0,6.76,3.29A28.82,28.82,0,0,0,74,80a24.19,24.19,0,0,0,9.19-1.59,13.66,13.66,0,0,0,6.08-4.51A11.35,11.35,0,0,0,91.45,67a11.53,11.53,0,0,0-2.18-7.08A11.09,11.09,0,0,0,83.26,55.9Z"/></svg>