<svg id="Layer_1" data-name="Layer 1" xmlns="http://www.w3.org/2000/svg" viewBox="0 0 150 100"><title>s24_1</title><path d="M126,62.06a12.23,12.23,0,0,1-5.21,6.18,16.3,16.3,0,0,1-9.92,2.62h-3.29V88.21A11.79,11.79,0,0,1,95.8,100H46.89A11.79,11.79,0,0,1,35.1,88.21V70.71l-2,0a12.56,12.56,0,0,1-7.6-1.18,14.38,14.38,0,0,1-6.56-7.23,14.46,14.46,0,0,1,3.2-14.83c13.38-14.26,27-28.22,40.25-42.67,5.21-5.69,14.06-6.21,19.43,0,4.7,5.43,9.78,10.46,14.69,15.67,8.64,9.17,17.3,18.33,25.88,27.55a15.69,15.69,0,0,1,3.1,5.46C126.06,55.23,127.22,58.47,126,62.06Zm-39.92,8.1H80.76V39.35a5.65,5.65,0,0,0-1.6-4.22A5.73,5.73,0,0,0,75,33.57a11,11,0,0,0-5.39,1.62l-10.4,6.05a4.41,4.41,0,0,0-2.28,4,5.44,5.44,0,0,0,1.3,3.54,3.92,3.92,0,0,0,3.12,1.59,4.39,4.39,0,0,0,2.28-.65l5.2-3V70.16H63.53a6.51,6.51,0,0,0-4.29,1.17,4.37,4.37,0,0,0-1.36,3.51q0,4.81,5.65,4.81H86.09q5.66,0,5.65-4.81a4.37,4.37,0,0,0-1.36-3.51A6.51,6.51,0,0,0,86.09,70.16Z"/></svg>