<svg id="Layer_1" data-name="Layer 1" xmlns="http://www.w3.org/2000/svg" viewBox="0 0 100 100"><title>l27_6_1</title><path d="M100,11.58V70A11.57,11.57,0,0,1,88.42,81.55H81.55v6.87A11.57,11.57,0,0,1,70,100H11.58A11.57,11.57,0,0,1,0,88.42V30A11.57,11.57,0,0,1,11.58,18.45h6.87V11.58A11.57,11.57,0,0,1,30,0H88.42A11.57,11.57,0,0,1,100,11.58ZM89,34.7l-7.44-7.44,6.84-6.72a4.91,4.91,0,0,0,1.5-3.48,4.49,4.49,0,0,0-1.41-3.27,4.55,4.55,0,0,0-3.33-1.41A4.8,4.8,0,0,0,81.58,14L75.1,20.54,68.68,14a4.6,4.6,0,0,0-3.54-1.68,4.51,4.51,0,0,0-3.33,1.44,4.65,4.65,0,0,0-1.41,3.36,4.71,4.71,0,0,0,1.5,3.42l6.84,6.72L61.3,34.7a4.71,4.71,0,0,0-1.5,3.42,4.54,4.54,0,0,0,1.44,3.3,4.61,4.61,0,0,0,3.36,1.44,4.8,4.8,0,0,0,3.54-1.62l7-7.32,7,7.32a4.8,4.8,0,0,0,3.54,1.62A4.61,4.61,0,0,0,89,41.42a4.54,4.54,0,0,0,1.44-3.3A4.71,4.71,0,0,0,89,34.7ZM49.69,77.86H34.61L45.26,67a34.86,34.86,0,0,0,6.26-8.44,18.81,18.81,0,0,0,1.84-8.36,13.8,13.8,0,0,0-2.28-7.84,14.74,14.74,0,0,0-6.49-5.25,24.23,24.23,0,0,0-9.75-1.84,29.42,29.42,0,0,0-8.67,1.35,29.29,29.29,0,0,0-7.91,3.75,5,5,0,0,0-1.84,2,6.53,6.53,0,0,0-.48,2.7,6.44,6.44,0,0,0,1.27,4,3.81,3.81,0,0,0,3.15,1.69,4.51,4.51,0,0,0,1.43-.22,8.87,8.87,0,0,0,1.54-.72c.57-.32,1-.53,1.16-.63l1.5-.75a37.58,37.58,0,0,1,4.23-1.84,12.37,12.37,0,0,1,4-.64,5.92,5.92,0,0,1,4.16,1.35,5.06,5.06,0,0,1,1.46,3.9q0,4.35-5,9.53L19,77.26a8.21,8.21,0,0,0-2.55,5.85A5.61,5.61,0,0,0,18,87.2a5.67,5.67,0,0,0,4.27,1.61H49.69a7.53,7.53,0,0,0,4.91-1.35,5.19,5.19,0,0,0,1.61-4.2,5,5,0,0,0-1.61-4.09A7.72,7.72,0,0,0,49.69,77.86Z"/></svg>