<svg id="Layer_1" data-name="Layer 1" xmlns="http://www.w3.org/2000/svg" viewBox="0 0 100 100"><title>l27_1_1</title><path d="M100,11.58V70A11.57,11.57,0,0,1,88.42,81.55H81.55v6.87A11.57,11.57,0,0,1,70,100H11.58A11.57,11.57,0,0,1,0,88.42V30A11.57,11.57,0,0,1,11.58,18.45h6.87V11.58A11.57,11.57,0,0,1,30,0H88.42A11.57,11.57,0,0,1,100,11.58ZM54.69,77.86H39.61L50.26,67a35.21,35.21,0,0,0,6.27-8.44,18.94,18.94,0,0,0,1.83-8.36,13.8,13.8,0,0,0-2.28-7.84,14.74,14.74,0,0,0-6.49-5.25,24.23,24.23,0,0,0-9.75-1.84,30.58,30.58,0,0,0-16.58,5.1,4.91,4.91,0,0,0-1.83,2,6.36,6.36,0,0,0-.49,2.7,6.44,6.44,0,0,0,1.27,4,3.81,3.81,0,0,0,3.15,1.69,4.51,4.51,0,0,0,1.43-.22,8.87,8.87,0,0,0,1.54-.72c.57-.32,1-.53,1.16-.63l1.5-.75a35.82,35.82,0,0,1,4.23-1.84,12.37,12.37,0,0,1,4-.64,5.9,5.9,0,0,1,4.16,1.35,5.06,5.06,0,0,1,1.46,3.9q0,4.35-5,9.53L24,77.26a8.21,8.21,0,0,0-2.55,5.85A5.61,5.61,0,0,0,23,87.2a5.67,5.67,0,0,0,4.27,1.61H54.69a7.51,7.51,0,0,0,4.91-1.35,5.15,5.15,0,0,0,1.61-4.2,5,5,0,0,0-1.61-4.09A7.7,7.7,0,0,0,54.69,77.86Z"/></svg>