<svg id="Layer_1" data-name="Layer 1" xmlns="http://www.w3.org/2000/svg" viewBox="0 0 100 100"><title>l27_5_1</title><path d="M100.39,11.58V70A11.57,11.57,0,0,1,88.81,81.55H81.94v6.87A11.57,11.57,0,0,1,70.37,100H12A11.58,11.58,0,0,1,.39,88.42V30A11.58,11.58,0,0,1,12,18.45h6.87V11.58A11.58,11.58,0,0,1,30.42,0H88.81A11.57,11.57,0,0,1,100.39,11.58Zm-31.91,20H82.57a6.86,6.86,0,0,0,4.69-1.39,5,5,0,0,0,1.53-3.86,4.82,4.82,0,0,0-1.53-3.82,7,7,0,0,0-4.69-1.35H68.48q-6.23,0-6.22,5.17T68.48,31.53ZM33.33,73.78H28.82V47.71a4.76,4.76,0,0,0-1.35-3.57,4.85,4.85,0,0,0-3.54-1.32,9.37,9.37,0,0,0-4.57,1.37l-8.8,5.12a3.74,3.74,0,0,0-1.93,3.41,4.56,4.56,0,0,0,1.11,3,3.3,3.3,0,0,0,2.64,1.35,3.69,3.69,0,0,0,1.92-.55l4.4-2.58V73.78H14.25a5.49,5.49,0,0,0-3.63,1,3.7,3.7,0,0,0-1.16,3c0,2.72,1.59,4.07,4.79,4.07H33.33c3.19,0,4.79-1.35,4.79-4.07a3.7,3.7,0,0,0-1.16-3A5.5,5.5,0,0,0,33.33,73.78ZM66.5,67.57H65.29V47.71A4.68,4.68,0,0,0,63.8,44a5.2,5.2,0,0,0-3.58-1.32,5.56,5.56,0,0,0-2.44.57,5.1,5.1,0,0,0-2,1.68L40.09,67.4A6.22,6.22,0,0,0,38.88,71a4.23,4.23,0,0,0,1.16,3,4.14,4.14,0,0,0,3.13,1.21H55.44v1.87a4.89,4.89,0,0,0,1.35,3.74,5,5,0,0,0,3.54,1.26,5.1,5.1,0,0,0,3.58-1.26,4.83,4.83,0,0,0,1.38-3.74V75.27H66.5c3.18,0,4.78-1.3,4.78-3.91S69.68,67.57,66.5,67.57Zm-17.66,0,6.6-9.52v9.52Z"/></svg>