<svg id="Layer_1" data-name="Layer 1" xmlns="http://www.w3.org/2000/svg" viewBox="0 0 100 100"><title>l27_5_1</title><path d="M100,11.58V70A11.57,11.57,0,0,1,88.42,81.55H81.55v6.87A11.57,11.57,0,0,1,70,100H11.58A11.57,11.57,0,0,1,0,88.42V30A11.57,11.57,0,0,1,11.58,18.45h6.87V11.58A11.57,11.57,0,0,1,30,0H88.42A11.57,11.57,0,0,1,100,11.58Zm-31.91,20H82.18a6.81,6.81,0,0,0,4.68-1.39,4.92,4.92,0,0,0,1.54-3.86,4.79,4.79,0,0,0-1.54-3.82,6.92,6.92,0,0,0-4.68-1.35H68.09q-6.23,0-6.23,5.17T68.09,31.53ZM52.18,61.59a11.27,11.27,0,0,0,5.88-4.43,13,13,0,0,0,2.14-7.5A12.43,12.43,0,0,0,55,39.12q-5.22-3.85-14.22-3.86T26.6,39.12a12.39,12.39,0,0,0-5.25,10.54A12.74,12.74,0,0,0,23.45,57a12.33,12.33,0,0,0,6,4.62,12.46,12.46,0,0,0-7,4.46,13.18,13.18,0,0,0-2.47,8.21A13,13,0,0,0,25.51,85.4q5.59,4,15.26,4T56,85.4a13,13,0,0,0,5.58-11.14,12.32,12.32,0,0,0-9.44-12.67ZM40.77,79q-8.16,0-8.17-5.85t8.17-5.85q8.17,0,8.18,5.85T40.77,79Zm0-33.3a8,8,0,0,1,5,1.31,5.11,5.11,0,0,1,1.65,4.24,5.2,5.2,0,0,1-1.65,4.27,7.85,7.85,0,0,1-5,1.35,7.82,7.82,0,0,1-5-1.35,5.2,5.2,0,0,1-1.65-4.27A5.11,5.11,0,0,1,35.75,47,8,8,0,0,1,40.77,45.69Z"/></svg>