<svg id="Layer_1" data-name="Layer 1" xmlns="http://www.w3.org/2000/svg" viewBox="0 0 100 100"><title>l27_2_1</title><path d="M100,11.58V70A11.57,11.57,0,0,1,88.42,81.55H81.55v6.87A11.57,11.57,0,0,1,70,100H11.58A11.57,11.57,0,0,1,0,88.42V30A11.57,11.57,0,0,1,11.58,18.45h6.87V11.58A11.57,11.57,0,0,1,30,0H88.42A11.57,11.57,0,0,1,100,11.58ZM18.7,79.23q6,0,9.2-4.28t3.17-12.38q0-8-3.2-12.32T18.7,46q-6,0-9.2,4.28T6.32,62.57q0,8.1,3.18,12.38T18.7,79.23Zm0-6.4a3.3,3.3,0,0,1-3.18-2.39c-.64-1.59-1-4.22-1-7.87s.32-6.26,1-7.84a3.31,3.31,0,0,1,6.35,0q1,2.4,1,7.82c0,3.65-.32,6.28-1,7.87A3.28,3.28,0,0,1,18.7,72.83Zm20.05,6.26A4.22,4.22,0,0,0,41.9,77.8a4.6,4.6,0,0,0,0-6.35,4.22,4.22,0,0,0-3.15-1.29,4.3,4.3,0,0,0-3.2,1.29,4.63,4.63,0,0,0,0,6.35A4.3,4.3,0,0,0,38.75,79.09Zm28.61-7H58.12l6.53-6.67a21.43,21.43,0,0,0,3.84-5.18,11.62,11.62,0,0,0,1.13-5.13,8.36,8.36,0,0,0-1.41-4.8,8.92,8.92,0,0,0-4-3.22,14.67,14.67,0,0,0-6-1.13A18.73,18.73,0,0,0,48.09,49.1,3,3,0,0,0,47,50.29a4.41,4.41,0,0,0,.49,4.12,2.33,2.33,0,0,0,1.93,1,2.78,2.78,0,0,0,.87-.13,5.87,5.87,0,0,0,.94-.44l.72-.39.92-.46a21.63,21.63,0,0,1,2.6-1.13,7.47,7.47,0,0,1,2.46-.39,3.64,3.64,0,0,1,2.55.83,3.08,3.08,0,0,1,.9,2.39q0,2.67-3,5.84L48.55,71.73A5,5,0,0,0,47,75.32a3.44,3.44,0,0,0,1,2.5,3.51,3.51,0,0,0,2.62,1H67.36a4.59,4.59,0,0,0,3-.83,3.16,3.16,0,0,0,1-2.57,3,3,0,0,0-1-2.51A4.72,4.72,0,0,0,67.36,72.1Z"/></svg>