<svg id="Layer_1" data-name="Layer 1" xmlns="http://www.w3.org/2000/svg" viewBox="0 0 100 100"><title>l27_2_1</title><path d="M100,11.58V70A11.57,11.57,0,0,1,88.42,81.55H81.55v6.87A11.57,11.57,0,0,1,70,100H11.58A11.57,11.57,0,0,1,0,88.42V30A11.57,11.57,0,0,1,11.58,18.45h6.87V11.58A11.57,11.57,0,0,1,30,0H88.42A11.57,11.57,0,0,1,100,11.58ZM18.72,79.23q6,0,9.2-4.28t3.17-12.38q0-8-3.19-12.32A10.77,10.77,0,0,0,18.72,46q-6,0-9.2,4.28T6.34,62.57q0,8.1,3.18,12.38T18.72,79.23Zm0-6.4a3.31,3.31,0,0,1-3.18-2.39c-.64-1.59-1-4.22-1-7.87s.32-6.26,1-7.84a3.31,3.31,0,0,1,6.35,0q1,2.4,1,7.82c0,3.65-.32,6.28-1,7.87A3.29,3.29,0,0,1,18.72,72.83Zm20.05,6.26a4.26,4.26,0,0,0,3.16-1.29,4.63,4.63,0,0,0,0-6.35,4.55,4.55,0,0,0-6.35,0,4.6,4.6,0,0,0,0,6.35A4.28,4.28,0,0,0,38.77,79.09ZM68.12,46.38h-18a4.58,4.58,0,0,0-3,.85,3.25,3.25,0,0,0-1,2.56A3.12,3.12,0,0,0,47,52.27a4.61,4.61,0,0,0,3.06.83h11.5L49.77,73.29a4.36,4.36,0,0,0-.65,2.21,3.37,3.37,0,0,0,1.25,2.64,4.15,4.15,0,0,0,2.85,1.09,4,4,0,0,0,2-.53,4.33,4.33,0,0,0,1.59-1.64L70.7,52.91a5.88,5.88,0,0,0,.87-3,3.59,3.59,0,0,0-.9-2.51A3.24,3.24,0,0,0,68.12,46.38Z"/></svg>