<svg id="Layer_1" data-name="Layer 1" xmlns="http://www.w3.org/2000/svg" viewBox="0 0 100 100"><title>l27_6_1</title><path d="M100,11.58V70A11.57,11.57,0,0,1,88.42,81.55H81.55v6.87A11.57,11.57,0,0,1,70,100H11.58A11.57,11.57,0,0,1,0,88.42V30A11.57,11.57,0,0,1,11.58,18.45h6.87V11.58A11.57,11.57,0,0,1,30,0H88.42A11.57,11.57,0,0,1,100,11.58ZM89,34.7l-7.44-7.44,6.84-6.72a4.91,4.91,0,0,0,1.5-3.48,4.49,4.49,0,0,0-1.41-3.27,4.55,4.55,0,0,0-3.33-1.41A4.8,4.8,0,0,0,81.58,14L75.1,20.54,68.68,14a4.6,4.6,0,0,0-3.54-1.68,4.51,4.51,0,0,0-3.33,1.44,4.65,4.65,0,0,0-1.41,3.36,4.71,4.71,0,0,0,1.5,3.42l6.84,6.72L61.3,34.7a4.71,4.71,0,0,0-1.5,3.42,4.54,4.54,0,0,0,1.44,3.3,4.61,4.61,0,0,0,3.36,1.44,4.8,4.8,0,0,0,3.54-1.62l7-7.32,7,7.32a4.8,4.8,0,0,0,3.54,1.62A4.61,4.61,0,0,0,89,41.42a4.54,4.54,0,0,0,1.44-3.3A4.71,4.71,0,0,0,89,34.7ZM45.3,61.59a12.11,12.11,0,0,0,6-4.54,12.43,12.43,0,0,0,2.14-7.24,13.06,13.06,0,0,0-2.29-7.65,14.66,14.66,0,0,0-6.52-5.1,24.89,24.89,0,0,0-9.79-1.8,30.1,30.1,0,0,0-8.89,1.35,24.93,24.93,0,0,0-7.61,3.75,6.06,6.06,0,0,0-1.8,2A5.82,5.82,0,0,0,16,45,6.15,6.15,0,0,0,17.25,49a3.86,3.86,0,0,0,3.15,1.61,4.8,4.8,0,0,0,1.87-.34,23.16,23.16,0,0,0,2.25-1.08l1.58-.75a40,40,0,0,1,4.09-1.8,11.27,11.27,0,0,1,3.93-.68,6.47,6.47,0,0,1,4.58,1.54,5.61,5.61,0,0,1,1.65,4.31,4.23,4.23,0,0,1-1.87,3.83q-1.89,1.2-6,1.2h-3.3a4.29,4.29,0,0,0-3.53,1.57,6.13,6.13,0,0,0,0,7.5,4.3,4.3,0,0,0,3.53,1.58h4.65c2.85,0,4.89.42,6.15,1.27a4.73,4.73,0,0,1,1.87,4.2q0,3.15-1.84,4.5c-1.22.9-3.24,1.35-6,1.35a13.48,13.48,0,0,1-4.32-.64,33,33,0,0,1-4.31-1.83l-.94-.42-.71-.33c-.95-.5-1.7-.87-2.25-1.09a4.83,4.83,0,0,0-1.87-.34,3.87,3.87,0,0,0-3.15,1.61,6.11,6.11,0,0,0-1.28,3.94,5.76,5.76,0,0,0,.53,2.59,5.67,5.67,0,0,0,1.8,2.06,24,24,0,0,0,7.79,3.79,33.53,33.53,0,0,0,9.38,1.31,28,28,0,0,0,10.61-1.84,15.69,15.69,0,0,0,7-5.21,13,13,0,0,0,2.48-8,13.32,13.32,0,0,0-2.51-8.17A12.78,12.78,0,0,0,45.3,61.59Z"/></svg>