<svg id="Layer_1" data-name="Layer 1" xmlns="http://www.w3.org/2000/svg" viewBox="0 0 100 100"><title>l27_6_1</title><path d="M100.13,11.58V70A11.58,11.58,0,0,1,88.55,81.55H81.68v6.87A11.57,11.57,0,0,1,70.1,100H11.71A11.57,11.57,0,0,1,.13,88.42V30A11.57,11.57,0,0,1,11.71,18.45h6.87V11.58A11.57,11.57,0,0,1,30.16,0H88.55A11.58,11.58,0,0,1,100.13,11.58Zm-11,23.12-7.44-7.44,6.84-6.72A4.91,4.91,0,0,0,90,17.06a4.49,4.49,0,0,0-1.41-3.27,4.55,4.55,0,0,0-3.33-1.41A4.8,4.8,0,0,0,81.71,14l-6.48,6.54L68.81,14a4.6,4.6,0,0,0-3.54-1.68,4.51,4.51,0,0,0-3.33,1.44,4.65,4.65,0,0,0-1.41,3.36A4.71,4.71,0,0,0,62,20.54l6.84,6.72L61.43,34.7a4.71,4.71,0,0,0-1.5,3.42,4.54,4.54,0,0,0,1.44,3.3,4.61,4.61,0,0,0,3.36,1.44,4.8,4.8,0,0,0,3.54-1.62l7-7.32,7,7.32a4.8,4.8,0,0,0,3.54,1.62,4.61,4.61,0,0,0,3.36-1.44,4.54,4.54,0,0,0,1.44-3.3A4.71,4.71,0,0,0,89.09,34.7ZM49.82,77.86H34.74L45.39,67a34.86,34.86,0,0,0,6.26-8.44,18.81,18.81,0,0,0,1.84-8.36,13.73,13.73,0,0,0-2.29-7.84,14.71,14.71,0,0,0-6.48-5.25A24.29,24.29,0,0,0,35,35.26a29.42,29.42,0,0,0-8.67,1.35,29.29,29.29,0,0,0-7.91,3.75,5,5,0,0,0-1.84,2,6.53,6.53,0,0,0-.48,2.7,6.44,6.44,0,0,0,1.27,4,3.81,3.81,0,0,0,3.15,1.69,4.4,4.4,0,0,0,1.42-.22,8.24,8.24,0,0,0,1.54-.72c.58-.32,1-.53,1.17-.63l1.5-.75a37.58,37.58,0,0,1,4.23-1.84,12.32,12.32,0,0,1,4-.64,5.93,5.93,0,0,1,4.16,1.35A5.06,5.06,0,0,1,40,51.16q0,4.35-5,9.53L19.14,77.26a8.21,8.21,0,0,0-2.55,5.85,5.64,5.64,0,0,0,1.57,4.09,5.71,5.71,0,0,0,4.28,1.61H49.82a7.55,7.55,0,0,0,4.91-1.35,5.19,5.19,0,0,0,1.61-4.2,5,5,0,0,0-1.61-4.09A7.74,7.74,0,0,0,49.82,77.86Z"/></svg>