<svg id="Layer_1" data-name="Layer 1" xmlns="http://www.w3.org/2000/svg" viewBox="0 0 100 100"><title>l27_1_1</title><path d="M100,11.58V70A11.57,11.57,0,0,1,88.42,81.55H81.55v6.87A11.57,11.57,0,0,1,70,100H11.58A11.57,11.57,0,0,1,0,88.42V30A11.57,11.57,0,0,1,11.58,18.45h6.87V11.58A11.57,11.57,0,0,1,30,0H88.42A11.57,11.57,0,0,1,100,11.58ZM56.9,68.39H55.25V41.31a6.36,6.36,0,0,0-2-5,7.1,7.1,0,0,0-4.88-1.8,7.6,7.6,0,0,0-3.34.78,7,7,0,0,0-2.66,2.29L20.9,68.16a8.4,8.4,0,0,0-1.65,5,5.75,5.75,0,0,0,1.58,4.13,5.62,5.62,0,0,0,4.27,1.65H41.83v2.55a6.68,6.68,0,0,0,1.83,5.1,6.79,6.79,0,0,0,4.84,1.72,6.93,6.93,0,0,0,4.88-1.72,6.59,6.59,0,0,0,1.87-5.1V78.89H56.9q6.52,0,6.53-5.33Q63.43,68.38,56.9,68.39Zm-24.07,0,9-13v13Z"/></svg>