<svg id="Layer_1" data-name="Layer 1" xmlns="http://www.w3.org/2000/svg" viewBox="0 0 100 100"><title>l27_2_1</title><path d="M100,11.58V70A11.57,11.57,0,0,1,88.42,81.55H81.55v6.87A11.57,11.57,0,0,1,70,100H11.58A11.57,11.57,0,0,1,0,88.42V30A11.57,11.57,0,0,1,11.58,18.45h6.87V11.58A11.57,11.57,0,0,1,30,0H88.42A11.57,11.57,0,0,1,100,11.58ZM18.72,79.23q6,0,9.2-4.28t3.17-12.38q0-8-3.19-12.32T18.72,46q-6,0-9.2,4.28T6.35,62.57q0,8.1,3.17,12.38T18.72,79.23Zm0-6.4a3.28,3.28,0,0,1-3.17-2.39c-.65-1.59-1-4.22-1-7.87s.32-6.26,1-7.84a3.3,3.3,0,0,1,6.34,0q1,2.4,1,7.82c0,3.65-.32,6.28-1,7.87A3.28,3.28,0,0,1,18.72,72.83Zm20.06,6.26a4.25,4.25,0,0,0,3.15-1.29,4.63,4.63,0,0,0,0-6.35,4.55,4.55,0,0,0-6.35,0,4.6,4.6,0,0,0,0,6.35A4.29,4.29,0,0,0,38.78,79.09Zm25.89-17a7.42,7.42,0,0,0,3.66-2.78,7.67,7.67,0,0,0,1.31-4.44,8.06,8.06,0,0,0-1.4-4.69,9.06,9.06,0,0,0-4-3.13,15.41,15.41,0,0,0-6-1.1,18.21,18.21,0,0,0-5.45.83,15.32,15.32,0,0,0-4.67,2.3A3.66,3.66,0,0,0,47,50.34,3.5,3.5,0,0,0,46.69,52a3.77,3.77,0,0,0,.78,2.41,2.38,2.38,0,0,0,1.93,1,3.19,3.19,0,0,0,1.15-.2c.34-.14.8-.36,1.38-.67l1-.46a26,26,0,0,1,2.5-1.11,7.15,7.15,0,0,1,2.42-.41,4,4,0,0,1,2.81.94,3.46,3.46,0,0,1,1,2.65,2.59,2.59,0,0,1-1.15,2.34,7,7,0,0,1-3.68.74h-2a2.61,2.61,0,0,0-2.16,1,3.78,3.78,0,0,0,0,4.6,2.63,2.63,0,0,0,2.16,1h2.86a7,7,0,0,1,3.77.78,2.92,2.92,0,0,1,1.15,2.58,3.2,3.2,0,0,1-1.13,2.76,6.4,6.4,0,0,1-3.7.83,8.39,8.39,0,0,1-2.65-.39,20.63,20.63,0,0,1-2.64-1.13l-.58-.25-.43-.21c-.59-.31-1-.53-1.38-.67a3.23,3.23,0,0,0-1.15-.2,2.38,2.38,0,0,0-1.94,1,3.77,3.77,0,0,0-.78,2.41,3.19,3.19,0,0,0,1.43,2.85,14.9,14.9,0,0,0,4.78,2.33,20.69,20.69,0,0,0,5.75.8,17.06,17.06,0,0,0,6.51-1.13A9.61,9.61,0,0,0,69,74.86,8,8,0,0,0,70.47,70a8.14,8.14,0,0,0-1.54-5A7.9,7.9,0,0,0,64.67,62.11Z"/></svg>