<svg id="Layer_1" data-name="Layer 1" xmlns="http://www.w3.org/2000/svg" viewBox="0 0 100 100"><title>l27_3_1</title><path d="M100,11.58V70A11.57,11.57,0,0,1,88.42,81.55H81.55v6.87A11.57,11.57,0,0,1,70,100H11.58A11.57,11.57,0,0,1,0,88.42V30A11.57,11.57,0,0,1,11.58,18.45h6.87V11.58A11.57,11.57,0,0,1,30,0H88.42A11.57,11.57,0,0,1,100,11.58ZM28.7,69.1H24.93V47.29a4,4,0,0,0-1.13-3,4.07,4.07,0,0,0-3-1.1A7.74,7.74,0,0,0,17,44.35L9.66,48.63a3.1,3.1,0,0,0-1.61,2.85A3.86,3.86,0,0,0,9,54a2.76,2.76,0,0,0,2.2,1.12,3.14,3.14,0,0,0,1.62-.46l3.67-2.16V69.1H12.74a4.64,4.64,0,0,0-3,.82,3.12,3.12,0,0,0-1,2.49q0,3.41,4,3.4h16q4,0,4-3.4a3.12,3.12,0,0,0-1-2.49A4.64,4.64,0,0,0,28.7,69.1Zm9.84,8.18L49,44.49a5.14,5.14,0,0,0,.18-1,2.69,2.69,0,0,0-1-2.16,3.46,3.46,0,0,0-2.28-.83,3.07,3.07,0,0,0-1.77.56A3.16,3.16,0,0,0,43,42.69L32.52,75.49a3.16,3.16,0,0,0-.19,1.06,2.66,2.66,0,0,0,1,2.11,3.32,3.32,0,0,0,2.25.83,3.13,3.13,0,0,0,1.82-.55A3.08,3.08,0,0,0,38.54,77.28ZM72.49,63.9h-1V47.29a3.9,3.9,0,0,0-1.24-3.08,4.34,4.34,0,0,0-3-1.1,4.64,4.64,0,0,0-2,.48A4.23,4.23,0,0,0,63.57,45L50.41,63.76a5.18,5.18,0,0,0-1,3,3.51,3.51,0,0,0,1,2.53,3.45,3.45,0,0,0,2.62,1H63.25V71.9A4.09,4.09,0,0,0,64.37,75a4.14,4.14,0,0,0,3,1.06,4.22,4.22,0,0,0,3-1.06,4,4,0,0,0,1.15-3.13V70.34h1q4,0,4-3.27T72.49,63.9Zm-14.76,0,5.52-8v8Z"/></svg>