<svg id="Layer_1" data-name="Layer 1" xmlns="http://www.w3.org/2000/svg" viewBox="0 0 100 100"><title>l27_3_1</title><path d="M100,11.58V70A11.57,11.57,0,0,1,88.42,81.55H81.55v6.87A11.57,11.57,0,0,1,70,100H11.58A11.57,11.57,0,0,1,0,88.42V30A11.57,11.57,0,0,1,11.58,18.45h6.87V11.58A11.57,11.57,0,0,1,30,0H88.42A11.57,11.57,0,0,1,100,11.58ZM28.7,69.1H24.93V47.29a4,4,0,0,0-1.13-3,4.07,4.07,0,0,0-3-1.1A7.74,7.74,0,0,0,17,44.35L9.66,48.63a3.1,3.1,0,0,0-1.61,2.85A3.86,3.86,0,0,0,9,54a2.76,2.76,0,0,0,2.21,1.12,3.13,3.13,0,0,0,1.61-.46l3.68-2.16V69.1H12.74a4.64,4.64,0,0,0-3,.82,3.12,3.12,0,0,0-1,2.49q0,3.41,4,3.4h16q4,0,4-3.4a3.12,3.12,0,0,0-1-2.49A4.64,4.64,0,0,0,28.7,69.1Zm9.84,8.18L49,44.49a5.14,5.14,0,0,0,.18-1,2.69,2.69,0,0,0-1-2.16,3.46,3.46,0,0,0-2.28-.83,3.07,3.07,0,0,0-1.77.56A3.16,3.16,0,0,0,43,42.69L32.52,75.49a3.16,3.16,0,0,0-.19,1.06,2.66,2.66,0,0,0,1,2.11,3.32,3.32,0,0,0,2.25.83,3.13,3.13,0,0,0,1.82-.55A3.08,3.08,0,0,0,38.54,77.28ZM64.86,54.61a11.57,11.57,0,0,0-4.56.82V49.78h9.94c2.67,0,4-1.08,4-3.22s-1.33-3.18-4-3.18H56a3.93,3.93,0,0,0-2.9,1,4,4,0,0,0-1,3V59.8a2.55,2.55,0,0,0,.87,2,3.21,3.21,0,0,0,2.16.75,4.34,4.34,0,0,0,2.07-.5,16.18,16.18,0,0,1,2.65-.83A12.85,12.85,0,0,1,62.33,61a5.15,5.15,0,0,1,3.58,1.15,4.09,4.09,0,0,1,1.29,3.22A4,4,0,0,1,66,68.61a5.89,5.89,0,0,1-3.82,1,7.5,7.5,0,0,1-2.55-.42,24.36,24.36,0,0,1-2.6-1.1l-.92-.46A12.28,12.28,0,0,0,54.69,67a3.19,3.19,0,0,0-1.15-.18,2.38,2.38,0,0,0-1.93,1,3.8,3.8,0,0,0-.78,2.42,3.45,3.45,0,0,0,.34,1.59,4.13,4.13,0,0,0,1.08,1.26A15.16,15.16,0,0,0,57,75.35a19.21,19.21,0,0,0,5.59.83,14.9,14.9,0,0,0,6.57-1.38,10.28,10.28,0,0,0,4.42-3.91A11.84,11.84,0,0,0,73.8,59.6a9.25,9.25,0,0,0-3.63-3.68A10.56,10.56,0,0,0,64.86,54.61Z"/></svg>