<svg id="Layer_1" data-name="Layer 1" xmlns="http://www.w3.org/2000/svg" viewBox="0 0 100 100"><title>l27_6_1</title><path d="M100.13,11.61V70A11.59,11.59,0,0,1,88.55,81.58H81.68v6.87A11.58,11.58,0,0,1,70.1,100H11.71A11.58,11.58,0,0,1,.13,88.45V30.06A11.57,11.57,0,0,1,11.71,18.48h6.87V11.61A11.57,11.57,0,0,1,30.16,0H88.55A11.58,11.58,0,0,1,100.13,11.61Zm-11,23.12-7.44-7.44,6.84-6.72A4.91,4.91,0,0,0,90,17.09a4.49,4.49,0,0,0-1.41-3.27,4.55,4.55,0,0,0-3.33-1.41A4.8,4.8,0,0,0,81.71,14l-6.48,6.54L68.81,14a4.6,4.6,0,0,0-3.54-1.68,4.51,4.51,0,0,0-3.33,1.44,4.65,4.65,0,0,0-1.41,3.36A4.71,4.71,0,0,0,62,20.57l6.84,6.72-7.44,7.44a4.71,4.71,0,0,0-1.5,3.42,4.54,4.54,0,0,0,1.44,3.3,4.61,4.61,0,0,0,3.36,1.44,4.8,4.8,0,0,0,3.54-1.62l7-7.32,7,7.32a4.8,4.8,0,0,0,3.54,1.62,4.61,4.61,0,0,0,3.36-1.44,4.54,4.54,0,0,0,1.44-3.3A4.71,4.71,0,0,0,89.09,34.73ZM39.58,54.26a18.78,18.78,0,0,0-7.43,1.35V46.39h16.2q6.52,0,6.53-5.25T48.35,36H25.1a6.38,6.38,0,0,0-4.72,1.65,6.5,6.5,0,0,0-1.65,4.8V62.74A4.09,4.09,0,0,0,20.15,66a5.18,5.18,0,0,0,3.53,1.24,7.15,7.15,0,0,0,3.37-.83,26.7,26.7,0,0,1,4.31-1.35,20.58,20.58,0,0,1,4.09-.37,8.48,8.48,0,0,1,5.85,1.87,6.67,6.67,0,0,1,2.1,5.25c0,2.4-.67,4.17-2,5.29S38,78.79,35.15,78.79A12.39,12.39,0,0,1,31,78.11a41.33,41.33,0,0,1-4.24-1.8l-1.5-.75A22.53,22.53,0,0,0,23,74.44a5.05,5.05,0,0,0-1.87-.3A3.89,3.89,0,0,0,18,75.75a6.17,6.17,0,0,0-1.28,3.94,5.65,5.65,0,0,0,.56,2.59A6.8,6.8,0,0,0,19,84.34a24.77,24.77,0,0,0,7.68,3.75,31.38,31.38,0,0,0,9.12,1.35,24.32,24.32,0,0,0,10.72-2.25,16.89,16.89,0,0,0,7.2-6.38,17.72,17.72,0,0,0,2.55-9.52,18.13,18.13,0,0,0-2.13-8.89,15.34,15.34,0,0,0-5.93-6A17.37,17.37,0,0,0,39.58,54.26Z"/></svg>