<svg id="Layer_1" data-name="Layer 1" xmlns="http://www.w3.org/2000/svg" viewBox="0 0 100 100"><title>l27_4_1</title><path d="M100,11.51V69.9A11.58,11.58,0,0,1,88.42,81.48H81.55v6.87A11.58,11.58,0,0,1,70,99.93H11.58A11.58,11.58,0,0,1,0,88.35V30A11.57,11.57,0,0,1,11.58,18.38h6.87V11.51A11.57,11.57,0,0,1,30-.07H88.42A11.57,11.57,0,0,1,100,11.51ZM89,20.36H79.55V10.92a4.42,4.42,0,1,0-8.84,0v9.44H61.27a4.36,4.36,0,0,0-4.43,4.42A4.42,4.42,0,0,0,58.12,28a4.23,4.23,0,0,0,3.15,1.31h9.44v9.37a4.48,4.48,0,0,0,7.61,3.15,4.36,4.36,0,0,0,1.23-3.15V29.28H89A4.23,4.23,0,0,0,92.15,28a4.46,4.46,0,0,0,1.27-3.19A4.34,4.34,0,0,0,89,20.36ZM52.18,61.52a11.27,11.27,0,0,0,5.88-4.43,13,13,0,0,0,2.14-7.5A12.43,12.43,0,0,0,55,39.05q-5.22-3.86-14.21-3.86T26.6,39.05a12.39,12.39,0,0,0-5.25,10.54,12.74,12.74,0,0,0,2.1,7.31,12.33,12.33,0,0,0,6,4.62,12.46,12.46,0,0,0-7,4.46,13.18,13.18,0,0,0-2.47,8.21,13,13,0,0,0,5.58,11.14q5.59,4,15.27,4t15.26-4a13,13,0,0,0,5.58-11.14,12.32,12.32,0,0,0-9.44-12.67Zm-11.4,17.4q-8.18,0-8.18-5.85t8.18-5.85q8.16,0,8.17,5.85T40.78,78.92Zm0-33.3a8,8,0,0,1,5,1.31,5.09,5.09,0,0,1,1.65,4.24,5.2,5.2,0,0,1-1.65,4.27,7.82,7.82,0,0,1-5,1.35,7.85,7.85,0,0,1-5-1.35,5.2,5.2,0,0,1-1.65-4.27,5.09,5.09,0,0,1,1.65-4.24A8,8,0,0,1,40.78,45.62Z"/></svg>