<svg id="Layer_1" data-name="Layer 1" xmlns="http://www.w3.org/2000/svg" viewBox="0 0 100 100"><title>l27_6_1</title><path d="M100.13,11.61V70A11.59,11.59,0,0,1,88.55,81.58H81.68v6.87A11.58,11.58,0,0,1,70.1,100H11.71A11.58,11.58,0,0,1,.13,88.45V30.06A11.57,11.57,0,0,1,11.71,18.48h6.87V11.61A11.57,11.57,0,0,1,30.16,0H88.55A11.58,11.58,0,0,1,100.13,11.61Zm-11,23.12-7.44-7.44,6.84-6.72A4.91,4.91,0,0,0,90,17.09a4.49,4.49,0,0,0-1.41-3.27,4.55,4.55,0,0,0-3.33-1.41A4.8,4.8,0,0,0,81.71,14l-6.48,6.54L68.81,14a4.6,4.6,0,0,0-3.54-1.68,4.51,4.51,0,0,0-3.33,1.44,4.65,4.65,0,0,0-1.41,3.36A4.71,4.71,0,0,0,62,20.57l6.84,6.72-7.44,7.44a4.71,4.71,0,0,0-1.5,3.42,4.54,4.54,0,0,0,1.44,3.3,4.61,4.61,0,0,0,3.36,1.44,4.8,4.8,0,0,0,3.54-1.62l7-7.32,7,7.32a4.8,4.8,0,0,0,3.54,1.62,4.61,4.61,0,0,0,3.36-1.44,4.54,4.54,0,0,0,1.44-3.3A4.71,4.71,0,0,0,89.09,34.73ZM45.43,61.61a12.15,12.15,0,0,0,6-4.53,12.46,12.46,0,0,0,2.14-7.24,13.06,13.06,0,0,0-2.29-7.65,14.66,14.66,0,0,0-6.52-5.1,24.89,24.89,0,0,0-9.79-1.8A30.1,30.1,0,0,0,26,36.64a24.93,24.93,0,0,0-7.61,3.75,6,6,0,0,0-1.8,2A5.86,5.86,0,0,0,16.1,45,6.17,6.17,0,0,0,17.38,49a3.89,3.89,0,0,0,3.15,1.61,4.8,4.8,0,0,0,1.87-.34c.55-.22,1.3-.59,2.25-1.09l1.58-.75a40,40,0,0,1,4.09-1.8,11.27,11.27,0,0,1,3.93-.67,6.44,6.44,0,0,1,4.58,1.54,5.59,5.59,0,0,1,1.65,4.31,4.2,4.2,0,0,1-1.88,3.82q-1.87,1.2-6,1.2H29.3a4.28,4.28,0,0,0-3.52,1.58,6.13,6.13,0,0,0,0,7.5,4.27,4.27,0,0,0,3.52,1.57H34q4.27,0,6.15,1.28A4.71,4.71,0,0,1,42,72.94q0,3.15-1.84,4.5c-1.22.9-3.24,1.35-6,1.35a13.46,13.46,0,0,1-4.31-.64,33.15,33.15,0,0,1-4.31-1.84l-.94-.41-.71-.34q-1.42-.75-2.25-1.08a4.85,4.85,0,0,0-1.88-.34,3.89,3.89,0,0,0-3.15,1.61,6.16,6.16,0,0,0-1.27,3.94,5.23,5.23,0,0,0,2.32,4.65,24.22,24.22,0,0,0,7.8,3.79,33.53,33.53,0,0,0,9.38,1.31A28,28,0,0,0,45.39,87.6a15.69,15.69,0,0,0,7-5.21,13.08,13.08,0,0,0,2.48-8,13.35,13.35,0,0,0-2.51-8.18A12.78,12.78,0,0,0,45.43,61.61Z"/></svg>