<svg id="Layer_1" data-name="Layer 1" xmlns="http://www.w3.org/2000/svg" viewBox="0 0 100 100"><title>l27_2_1</title><path d="M100,11.58V70A11.57,11.57,0,0,1,88.42,81.55H81.55v6.87A11.57,11.57,0,0,1,70,100H11.58A11.57,11.57,0,0,1,0,88.42V30A11.57,11.57,0,0,1,11.58,18.45h6.87V11.58A11.57,11.57,0,0,1,30,0H88.42A11.57,11.57,0,0,1,100,11.58ZM28.47,72.1H24.7V50.29a4,4,0,0,0-1.13-3,4.08,4.08,0,0,0-3-1.1,7.73,7.73,0,0,0-3.81,1.15L9.43,51.63a3.1,3.1,0,0,0-1.61,2.85A3.81,3.81,0,0,0,8.74,57a2.74,2.74,0,0,0,2.2,1.13,3.08,3.08,0,0,0,1.61-.46l3.68-2.16V72.1H12.51a4.64,4.64,0,0,0-3,.82,3.12,3.12,0,0,0-1,2.49q0,3.41,4,3.4h16q4,0,4-3.4a3.12,3.12,0,0,0-1-2.49A4.64,4.64,0,0,0,28.47,72.1Zm10.3,7a4.26,4.26,0,0,0,3.16-1.29,4.63,4.63,0,0,0,0-6.35,4.55,4.55,0,0,0-6.35,0,4.6,4.6,0,0,0,0,6.35A4.28,4.28,0,0,0,38.77,79.09Zm29.81-7H64.81V50.29a4,4,0,0,0-1.13-3,4.07,4.07,0,0,0-3-1.1,7.74,7.74,0,0,0-3.82,1.15l-7.36,4.28a3.1,3.1,0,0,0-1.61,2.85,3.81,3.81,0,0,0,.92,2.5,2.74,2.74,0,0,0,2.21,1.13,3.13,3.13,0,0,0,1.61-.46l3.68-2.16V72.1H52.62a4.64,4.64,0,0,0-3,.82,3.12,3.12,0,0,0-1,2.49q0,3.41,4,3.4h16q4,0,4-3.4a3.12,3.12,0,0,0-1-2.49A4.64,4.64,0,0,0,68.58,72.1Z"/></svg>