<svg id="Layer_1" data-name="Layer 1" xmlns="http://www.w3.org/2000/svg" viewBox="0 0 100 100"><title>l27_4_1</title><path d="M100,11.58V70A11.57,11.57,0,0,1,88.42,81.55H81.55v6.87A11.57,11.57,0,0,1,70,100H11.58A11.57,11.57,0,0,1,0,88.42V30A11.57,11.57,0,0,1,11.58,18.45h6.87V11.58A11.57,11.57,0,0,1,30,0H88.42A11.57,11.57,0,0,1,100,11.58ZM89,20.43H79.55V11a4.42,4.42,0,1,0-8.84,0v9.44H61.27a4.37,4.37,0,0,0-4.43,4.42A4.41,4.41,0,0,0,58.12,28a4.2,4.2,0,0,0,3.15,1.31h9.44v9.37a4.48,4.48,0,0,0,7.61,3.15,4.36,4.36,0,0,0,1.23-3.15V29.35H89A4.2,4.2,0,0,0,92.15,28a4.44,4.44,0,0,0,1.27-3.19A4.35,4.35,0,0,0,89,20.43ZM32.94,73.78H28.43V47.71a4.76,4.76,0,0,0-1.35-3.57,4.86,4.86,0,0,0-3.55-1.32A9.33,9.33,0,0,0,19,44.19l-8.8,5.12a3.72,3.72,0,0,0-1.93,3.41,4.61,4.61,0,0,0,1.1,3A3.3,3.3,0,0,0,12,57.06a3.75,3.75,0,0,0,1.93-.55l4.4-2.58V73.78H13.85a5.5,5.5,0,0,0-3.63,1,3.69,3.69,0,0,0-1.15,3c0,2.72,1.59,4.07,4.78,4.07H32.94c3.18,0,4.78-1.35,4.78-4.07a3.69,3.69,0,0,0-1.15-3A5.52,5.52,0,0,0,32.94,73.78ZM61.26,61.85a8.92,8.92,0,0,0,4.37-3.33,9.11,9.11,0,0,0,1.57-5.31,9.62,9.62,0,0,0-1.68-5.61,10.79,10.79,0,0,0-4.78-3.74,18.25,18.25,0,0,0-7.18-1.32,22.09,22.09,0,0,0-6.52,1,18.41,18.41,0,0,0-5.58,2.75,4.49,4.49,0,0,0-1.32,1.49,4.21,4.21,0,0,0-.38,1.92,4.53,4.53,0,0,0,.93,2.89A2.83,2.83,0,0,0,43,53.76a3.49,3.49,0,0,0,1.37-.25c.41-.16,1-.43,1.66-.79l1.15-.55a29.55,29.55,0,0,1,3-1.32,8.32,8.32,0,0,1,2.89-.5,4.75,4.75,0,0,1,3.35,1.13,4.1,4.1,0,0,1,1.21,3.16,3.1,3.1,0,0,1-1.37,2.81,8.51,8.51,0,0,1-4.4.88H49.44a3.13,3.13,0,0,0-2.59,1.15,4.49,4.49,0,0,0,0,5.5,3.14,3.14,0,0,0,2.59,1.16h3.41a8.32,8.32,0,0,1,4.51.93,3.47,3.47,0,0,1,1.37,3.08,3.82,3.82,0,0,1-1.35,3.3,7.63,7.63,0,0,1-4.43,1A9.76,9.76,0,0,1,49.79,74a25.26,25.26,0,0,1-3.16-1.34c-.26-.11-.49-.21-.69-.31l-.52-.24c-.7-.37-1.25-.64-1.65-.8A3.49,3.49,0,0,0,42.4,71a2.88,2.88,0,0,0-2.32,1.18,4.55,4.55,0,0,0-.93,2.89,4.41,4.41,0,0,0,.38,1.9,4.29,4.29,0,0,0,1.33,1.51,17.57,17.57,0,0,0,5.71,2.78,24.59,24.59,0,0,0,6.88,1,20.61,20.61,0,0,0,7.78-1.35,11.48,11.48,0,0,0,5.14-3.82,9.59,9.59,0,0,0,1.82-5.83,9.74,9.74,0,0,0-1.84-6A9.36,9.36,0,0,0,61.26,61.85Z"/></svg>