<svg id="Layer_1" data-name="Layer 1" xmlns="http://www.w3.org/2000/svg" viewBox="0 0 100 100"><title>l27_6_1</title><path d="M100.13,11.61V70A11.59,11.59,0,0,1,88.55,81.58H81.68v6.87A11.58,11.58,0,0,1,70.1,100H11.71A11.58,11.58,0,0,1,.13,88.45V30.06A11.57,11.57,0,0,1,11.71,18.48h6.87V11.61A11.57,11.57,0,0,1,30.16,0H88.55A11.58,11.58,0,0,1,100.13,11.61Zm-11,23.12-7.44-7.44,6.84-6.72A4.91,4.91,0,0,0,90,17.09a4.49,4.49,0,0,0-1.41-3.27,4.55,4.55,0,0,0-3.33-1.41A4.8,4.8,0,0,0,81.71,14l-6.48,6.54L68.81,14a4.6,4.6,0,0,0-3.54-1.68,4.51,4.51,0,0,0-3.33,1.44,4.65,4.65,0,0,0-1.41,3.36A4.71,4.71,0,0,0,62,20.57l6.84,6.72-7.44,7.44a4.71,4.71,0,0,0-1.5,3.42,4.54,4.54,0,0,0,1.44,3.3,4.61,4.61,0,0,0,3.36,1.44,4.8,4.8,0,0,0,3.54-1.62l7-7.32,7,7.32a4.8,4.8,0,0,0,3.54,1.62,4.61,4.61,0,0,0,3.36-1.44,4.54,4.54,0,0,0,1.44-3.3A4.71,4.71,0,0,0,89.09,34.73ZM52,69.41H50.38V42.34a6.39,6.39,0,0,0-2-5,7.07,7.07,0,0,0-4.87-1.8,7.58,7.58,0,0,0-3.34.79,6.91,6.91,0,0,0-2.66,2.29L16,69.19a8.4,8.4,0,0,0-1.65,5A5.72,5.72,0,0,0,16,78.26a5.64,5.64,0,0,0,4.28,1.65H37v2.55a6.65,6.65,0,0,0,1.84,5.1,6.8,6.8,0,0,0,4.84,1.73,6.91,6.91,0,0,0,4.87-1.73,6.59,6.59,0,0,0,1.88-5.1V79.91H52q6.53,0,6.52-5.32T52,69.41ZM28,69.41l9-13v13Z"/></svg>