<svg id="Layer_1" data-name="Layer 1" xmlns="http://www.w3.org/2000/svg" viewBox="0 0 100 100"><title>l27_4_1</title><path d="M100,11.58V70A11.57,11.57,0,0,1,88.42,81.55H81.55v6.87A11.57,11.57,0,0,1,70,100H11.58A11.57,11.57,0,0,1,0,88.42V30A11.57,11.57,0,0,1,11.58,18.45h6.87V11.58A11.57,11.57,0,0,1,30,0H88.42A11.57,11.57,0,0,1,100,11.58ZM89,20.43H79.55V11a4.42,4.42,0,1,0-8.84,0v9.44H61.27a4.37,4.37,0,0,0-4.43,4.42A4.41,4.41,0,0,0,58.12,28a4.2,4.2,0,0,0,3.15,1.31h9.44v9.37a4.48,4.48,0,0,0,7.61,3.15,4.36,4.36,0,0,0,1.23-3.15V29.35H89A4.17,4.17,0,0,0,92.14,28a4.41,4.41,0,0,0,1.28-3.19A4.37,4.37,0,0,0,89,20.43ZM54.69,77.86H39.61L50.26,67a34.86,34.86,0,0,0,6.26-8.44,18.81,18.81,0,0,0,1.84-8.36,13.73,13.73,0,0,0-2.29-7.84,14.66,14.66,0,0,0-6.48-5.25,24.23,24.23,0,0,0-9.75-1.84,30.51,30.51,0,0,0-16.58,5.1,5,5,0,0,0-1.84,2,6.53,6.53,0,0,0-.48,2.7,6.44,6.44,0,0,0,1.27,4,3.81,3.81,0,0,0,3.15,1.69,4.51,4.51,0,0,0,1.43-.22,8.49,8.49,0,0,0,1.53-.72l1.17-.63,1.5-.75a37.58,37.58,0,0,1,4.23-1.84,12.37,12.37,0,0,1,4-.64,5.92,5.92,0,0,1,4.16,1.35,5.06,5.06,0,0,1,1.46,3.9q0,4.35-5,9.53L24,77.26a8.21,8.21,0,0,0-2.55,5.85A5.61,5.61,0,0,0,23,87.2a5.67,5.67,0,0,0,4.27,1.61H54.69a7.53,7.53,0,0,0,4.91-1.35,5.19,5.19,0,0,0,1.61-4.2,5,5,0,0,0-1.61-4.09A7.72,7.72,0,0,0,54.69,77.86Z"/></svg>