<svg id="Layer_1" data-name="Layer 1" xmlns="http://www.w3.org/2000/svg" viewBox="0 0 100 100"><title>l27_4_1</title><path d="M100,11.58V70A11.57,11.57,0,0,1,88.42,81.55H81.55v6.87A11.57,11.57,0,0,1,70,100H11.58A11.57,11.57,0,0,1,0,88.42V30A11.57,11.57,0,0,1,11.58,18.45h6.87V11.58A11.57,11.57,0,0,1,30,0H88.42A11.57,11.57,0,0,1,100,11.58ZM89,20.43H79.55V11a4.42,4.42,0,1,0-8.84,0v9.44H61.27a4.35,4.35,0,0,0-4.42,4.42A4.4,4.4,0,0,0,58.12,28a4.2,4.2,0,0,0,3.15,1.31h9.44v9.37a4.48,4.48,0,0,0,7.61,3.15,4.36,4.36,0,0,0,1.23-3.15V29.35H89A4.2,4.2,0,0,0,92.15,28a4.4,4.4,0,0,0,1.27-3.19A4.35,4.35,0,0,0,89,20.43ZM32.94,73.78H28.43V47.71a4.76,4.76,0,0,0-1.35-3.57,4.86,4.86,0,0,0-3.55-1.32A9.33,9.33,0,0,0,19,44.19l-8.8,5.12a3.72,3.72,0,0,0-1.93,3.41,4.61,4.61,0,0,0,1.1,3A3.3,3.3,0,0,0,12,57.06a3.75,3.75,0,0,0,1.93-.55l4.4-2.58V73.78H13.85a5.5,5.5,0,0,0-3.63,1,3.69,3.69,0,0,0-1.15,3c0,2.72,1.59,4.07,4.78,4.07H32.94c3.19,0,4.78-1.35,4.78-4.07a3.69,3.69,0,0,0-1.15-3A5.5,5.5,0,0,0,32.94,73.78Zm21.34,8.53q7.2,0,11-5.12T69.07,62.4q0-9.63-3.82-14.74t-11-5.12q-7.22,0-11,5.12T39.48,62.4q0,9.67,3.8,14.79T54.28,82.31Zm0-7.65a3.94,3.94,0,0,1-3.8-2.86c-.77-1.9-1.15-5-1.15-9.4s.38-7.49,1.15-9.38a3.94,3.94,0,0,1,3.8-2.83q2.64,0,3.79,2.86t1.16,9.35c0,4.36-.39,7.5-1.16,9.4S56,74.66,54.28,74.66Z"/></svg>