<svg id="Layer_1" data-name="Layer 1" xmlns="http://www.w3.org/2000/svg" viewBox="0 0 100 100"><title>l27_2_1</title><path d="M100,11.58V70A11.57,11.57,0,0,1,88.42,81.55H81.55v6.87A11.57,11.57,0,0,1,70,100H11.58A11.57,11.57,0,0,1,0,88.42V30A11.57,11.57,0,0,1,11.58,18.45h6.87V11.58A11.57,11.57,0,0,1,30,0H88.42A11.57,11.57,0,0,1,100,11.58ZM18.72,79.23q6,0,9.2-4.28t3.17-12.38q0-8-3.19-12.32C25.76,47.39,22.71,46,18.72,46s-7.08,1.42-9.2,4.28-3.17,7-3.17,12.32S7.4,72.1,9.52,75,14.7,79.23,18.72,79.23Zm0-6.4a3.29,3.29,0,0,1-3.17-2.39c-.65-1.59-1-4.22-1-7.87s.32-6.26,1-7.84a3.3,3.3,0,0,1,6.34,0q1,2.4,1,7.82c0,3.65-.32,6.28-1,7.87A3.29,3.29,0,0,1,18.72,72.83Zm20.05,6.26a4.26,4.26,0,0,0,3.16-1.29,4.63,4.63,0,0,0,0-6.35,4.55,4.55,0,0,0-6.35,0,4.6,4.6,0,0,0,0,6.35A4.28,4.28,0,0,0,38.77,79.09ZM61.08,57.61a11.55,11.55,0,0,0-4.55.82V52.78h9.94c2.66,0,4-1.08,4-3.22s-1.34-3.18-4-3.18H52.21a3.93,3.93,0,0,0-2.9,1,4,4,0,0,0-1,3V62.8a2.51,2.51,0,0,0,.87,2,3.15,3.15,0,0,0,2.16.76,4.34,4.34,0,0,0,2.07-.5,15.89,15.89,0,0,1,2.65-.83A12.77,12.77,0,0,1,58.56,64a5.17,5.17,0,0,1,3.58,1.15,4.09,4.09,0,0,1,1.29,3.22,4,4,0,0,1-1.24,3.24,5.89,5.89,0,0,1-3.82,1,7.5,7.5,0,0,1-2.55-.42,24.36,24.36,0,0,1-2.6-1.1l-.92-.46A12.28,12.28,0,0,0,50.92,70a3.19,3.19,0,0,0-1.15-.18,2.38,2.38,0,0,0-1.93,1,3.74,3.74,0,0,0-.78,2.42,3.45,3.45,0,0,0,.34,1.59,4.13,4.13,0,0,0,1.08,1.26,15.16,15.16,0,0,0,4.72,2.3,19.19,19.19,0,0,0,5.58.83,14.91,14.91,0,0,0,6.58-1.38,10.34,10.34,0,0,0,4.42-3.91A11.84,11.84,0,0,0,70,62.6a9.25,9.25,0,0,0-3.63-3.68A10.57,10.57,0,0,0,61.08,57.61Z"/></svg>