<svg id="Layer_1" data-name="Layer 1" xmlns="http://www.w3.org/2000/svg" viewBox="0 0 100 100"><title>l27_5_1</title><path d="M100,11.58V70A11.57,11.57,0,0,1,88.42,81.55H81.55v6.87A11.57,11.57,0,0,1,70,100H11.58A11.57,11.57,0,0,1,0,88.42V30A11.57,11.57,0,0,1,11.58,18.45h6.87V11.58A11.57,11.57,0,0,1,30,0H88.42A11.57,11.57,0,0,1,100,11.58Zm-31.91,20H82.18a6.81,6.81,0,0,0,4.68-1.39,5,5,0,0,0,1.54-3.86,4.83,4.83,0,0,0-1.54-3.82,6.92,6.92,0,0,0-4.68-1.35H68.09q-6.23,0-6.23,5.17T68.09,31.53ZM55.92,35.94H26.52q-3.37,0-4.95,1.38A5.28,5.28,0,0,0,20,41.49a5.09,5.09,0,0,0,1.54,4q1.53,1.35,5,1.35H45.27L26,79.81A7.09,7.09,0,0,0,25,83.41a5.47,5.47,0,0,0,2,4.31,6.84,6.84,0,0,0,4.64,1.77,6.38,6.38,0,0,0,3.19-.87A6.91,6.91,0,0,0,37.4,86L60.12,46.59a9.58,9.58,0,0,0,1.43-5,5.89,5.89,0,0,0-1.46-4.09A5.36,5.36,0,0,0,55.92,35.94Z"/></svg>