<svg id="Layer_1" data-name="Layer 1" xmlns="http://www.w3.org/2000/svg" viewBox="0 0 100 100"><title>l27_3_1</title><path d="M100,11.58V70A11.57,11.57,0,0,1,88.42,81.55H81.55v6.87A11.57,11.57,0,0,1,70,100H11.58A11.57,11.57,0,0,1,0,88.42V30A11.57,11.57,0,0,1,11.58,18.45h6.87V11.58A11.57,11.57,0,0,1,30,0H88.42A11.57,11.57,0,0,1,100,11.58ZM28.68,69.1H24.91V47.29a4,4,0,0,0-1.13-3,4.08,4.08,0,0,0-3-1.1A7.77,7.77,0,0,0,17,44.35L9.63,48.63A3.12,3.12,0,0,0,8,51.48,3.91,3.91,0,0,0,8.94,54a2.77,2.77,0,0,0,2.21,1.12,3.11,3.11,0,0,0,1.61-.46l3.68-2.16V69.1H12.72a4.62,4.62,0,0,0-3,.82,3.12,3.12,0,0,0-1,2.49q0,3.41,4,3.4h16q4,0,4-3.4a3.09,3.09,0,0,0-1-2.49A4.59,4.59,0,0,0,28.68,69.1Zm9.84,8.18L49,44.49a4.68,4.68,0,0,0,.19-1,2.69,2.69,0,0,0-1-2.16,3.46,3.46,0,0,0-2.28-.83,3,3,0,0,0-2.94,2.21L32.49,75.49a3.15,3.15,0,0,0-.18,1.06,2.63,2.63,0,0,0,1,2.11,3.3,3.3,0,0,0,2.25.83,3.13,3.13,0,0,0,1.82-.55A3.19,3.19,0,0,0,38.52,77.28ZM71.14,69.1H61.89l6.53-6.67a21.43,21.43,0,0,0,3.84-5.18,11.62,11.62,0,0,0,1.13-5.13,8.43,8.43,0,0,0-1.4-4.8,9,9,0,0,0-4-3.22A14.67,14.67,0,0,0,62,43,18.73,18.73,0,0,0,51.86,46.1a3,3,0,0,0-1.13,1.19,4.41,4.41,0,0,0,.49,4.12,2.33,2.33,0,0,0,1.93,1,2.78,2.78,0,0,0,.87-.13,6.36,6.36,0,0,0,.95-.44l.71-.39L56.6,51a22.34,22.34,0,0,1,2.6-1.13,7.47,7.47,0,0,1,2.46-.39,3.64,3.64,0,0,1,2.55.83,3.08,3.08,0,0,1,.9,2.39q0,2.67-3,5.84L52.32,68.73a5,5,0,0,0-1.56,3.59,3.44,3.44,0,0,0,1,2.5,3.51,3.51,0,0,0,2.63,1H71.14a4.58,4.58,0,0,0,3-.83,3.16,3.16,0,0,0,1-2.57,3,3,0,0,0-1-2.51A4.77,4.77,0,0,0,71.14,69.1Z"/></svg>