<svg id="Layer_1" data-name="Layer 1" xmlns="http://www.w3.org/2000/svg" viewBox="0 0 100 100"><title>l27_4_1</title><path d="M100,11.51V69.9A11.58,11.58,0,0,1,88.42,81.48H81.55v6.87A11.58,11.58,0,0,1,70,99.93H11.58A11.58,11.58,0,0,1,0,88.35V30A11.57,11.57,0,0,1,11.58,18.38h6.87V11.51A11.57,11.57,0,0,1,30-.07H88.42A11.57,11.57,0,0,1,100,11.51ZM89,20.36H79.55V10.92a4.42,4.42,0,1,0-8.84,0v9.44H61.27a4.36,4.36,0,0,0-4.43,4.42A4.42,4.42,0,0,0,58.12,28a4.23,4.23,0,0,0,3.15,1.31h9.44v9.37a4.48,4.48,0,0,0,7.61,3.15,4.36,4.36,0,0,0,1.23-3.15V29.28H89A4.23,4.23,0,0,0,92.15,28a4.46,4.46,0,0,0,1.27-3.19A4.34,4.34,0,0,0,89,20.36ZM44.45,54.17A18.78,18.78,0,0,0,37,55.52V46.29H53.23c4.34,0,6.52-1.75,6.52-5.25s-2.18-5.17-6.52-5.17H30a6.39,6.39,0,0,0-4.73,1.65,6.5,6.5,0,0,0-1.65,4.8V62.64A4.09,4.09,0,0,0,25,65.9a5.18,5.18,0,0,0,3.53,1.24,7.14,7.14,0,0,0,3.37-.82A26.47,26.47,0,0,1,36.24,65a20.37,20.37,0,0,1,4.08-.38,8.48,8.48,0,0,1,5.85,1.88,6.67,6.67,0,0,1,2.1,5.25q0,3.6-2,5.28T40,78.69A12.43,12.43,0,0,1,35.86,78a42.29,42.29,0,0,1-4.24-1.8l-1.5-.75a23.16,23.16,0,0,0-2.25-1.13A5.05,5.05,0,0,0,26,74a3.89,3.89,0,0,0-3.15,1.61,6.17,6.17,0,0,0-1.28,3.94,5.53,5.53,0,0,0,.57,2.59,6.62,6.62,0,0,0,1.76,2.06A24.72,24.72,0,0,0,31.59,88a31.26,31.26,0,0,0,9.11,1.35,24.32,24.32,0,0,0,10.72-2.25,16.87,16.87,0,0,0,7.2-6.37,17.76,17.76,0,0,0,2.55-9.53A18.13,18.13,0,0,0,59,62.3a15.28,15.28,0,0,0-5.93-6A17.34,17.34,0,0,0,44.45,54.17Z"/></svg>