<svg id="Layer_1" data-name="Layer 1" xmlns="http://www.w3.org/2000/svg" viewBox="0 0 100 100"><title>l27_4_1</title><path d="M100,11.58V70A11.57,11.57,0,0,1,88.42,81.55H81.55v6.87A11.57,11.57,0,0,1,70,100H11.58A11.57,11.57,0,0,1,0,88.42V30A11.57,11.57,0,0,1,11.58,18.45h6.87V11.58A11.57,11.57,0,0,1,30,0H88.42A11.57,11.57,0,0,1,100,11.58ZM89,20.43H79.55V11a4.42,4.42,0,1,0-8.84,0v9.44H61.27a4.37,4.37,0,0,0-4.43,4.42A4.41,4.41,0,0,0,58.12,28a4.2,4.2,0,0,0,3.15,1.31h9.44v9.37a4.48,4.48,0,0,0,7.61,3.15,4.36,4.36,0,0,0,1.23-3.15V29.35H89A4.2,4.2,0,0,0,92.15,28a4.44,4.44,0,0,0,1.27-3.19A4.35,4.35,0,0,0,89,20.43ZM52.18,61.59a11.27,11.27,0,0,0,5.88-4.43,13,13,0,0,0,2.14-7.5A12.43,12.43,0,0,0,55,39.12q-5.22-3.85-14.21-3.86T26.6,39.12a12.39,12.39,0,0,0-5.25,10.54A12.74,12.74,0,0,0,23.45,57a12.33,12.33,0,0,0,6,4.62,12.46,12.46,0,0,0-7,4.46,13.18,13.18,0,0,0-2.47,8.21A13,13,0,0,0,25.51,85.4q5.59,4,15.27,4T56,85.4a13,13,0,0,0,5.58-11.14,12.32,12.32,0,0,0-9.44-12.67ZM40.78,79q-8.18,0-8.18-5.85t8.18-5.85q8.16,0,8.17,5.85T40.78,79Zm0-33.3a8,8,0,0,1,5,1.31,5.11,5.11,0,0,1,1.65,4.24,5.2,5.2,0,0,1-1.65,4.27,7.82,7.82,0,0,1-5,1.35,7.85,7.85,0,0,1-5-1.35,5.2,5.2,0,0,1-1.65-4.27A5.11,5.11,0,0,1,35.75,47,8,8,0,0,1,40.78,45.69Z"/></svg>