<svg id="Layer_1" data-name="Layer 1" xmlns="http://www.w3.org/2000/svg" viewBox="0 0 100 100"><title>l27_6_1</title><path d="M100.12,11.58V70A11.58,11.58,0,0,1,88.54,81.55H81.67v6.87A11.58,11.58,0,0,1,70.09,100H11.69A11.57,11.57,0,0,1,.12,88.42V30A11.57,11.57,0,0,1,11.69,18.45h6.88V11.58A11.57,11.57,0,0,1,30.14,0h58.4A11.58,11.58,0,0,1,100.12,11.58ZM89.07,34.7l-7.43-7.44,6.84-6.72A4.91,4.91,0,0,0,90,17.06a4.84,4.84,0,0,0-4.75-4.68A4.76,4.76,0,0,0,81.7,14l-6.48,6.54L68.8,14a4.6,4.6,0,0,0-3.54-1.68,4.51,4.51,0,0,0-3.33,1.44,4.61,4.61,0,0,0-1.41,3.36A4.67,4.67,0,0,0,62,20.54l6.84,6.72L61.41,34.7a4.71,4.71,0,0,0-1.5,3.42,4.51,4.51,0,0,0,1.45,3.3,4.57,4.57,0,0,0,3.36,1.44,4.8,4.8,0,0,0,3.54-1.62l7-7.32,7,7.32a4.84,4.84,0,0,0,3.55,1.62,4.61,4.61,0,0,0,3.36-1.44,4.53,4.53,0,0,0,1.43-3.3A4.71,4.71,0,0,0,89.07,34.7ZM52,69.39H50.36V42.31a6.36,6.36,0,0,0-2-5,7.09,7.09,0,0,0-4.87-1.8,7.54,7.54,0,0,0-3.34.78,6.84,6.84,0,0,0-2.66,2.29L16,69.16a8.4,8.4,0,0,0-1.65,5,5.75,5.75,0,0,0,1.58,4.13,5.63,5.63,0,0,0,4.28,1.65H36.94v2.55a6.65,6.65,0,0,0,1.84,5.1,6.75,6.75,0,0,0,4.83,1.72,6.93,6.93,0,0,0,4.88-1.72,6.59,6.59,0,0,0,1.87-5.1V79.89H52q6.52,0,6.53-5.33Q58.54,69.38,52,69.39Zm-24.07,0,9-13v13Z"/></svg>