<svg id="Layer_1" data-name="Layer 1" xmlns="http://www.w3.org/2000/svg" viewBox="0 0 100 100"><title>l27_5_1</title><path d="M100.39,11.58V70A11.57,11.57,0,0,1,88.81,81.55H81.94v6.87A11.57,11.57,0,0,1,70.37,100H12A11.58,11.58,0,0,1,.39,88.42V30A11.58,11.58,0,0,1,12,18.45h6.87V11.58A11.58,11.58,0,0,1,30.42,0H88.81A11.57,11.57,0,0,1,100.39,11.58Zm-31.91,20H82.57a6.81,6.81,0,0,0,4.68-1.39,4.92,4.92,0,0,0,1.54-3.86,4.79,4.79,0,0,0-1.54-3.82,6.92,6.92,0,0,0-4.68-1.35H68.48q-6.23,0-6.22,5.17T68.48,31.53ZM33.33,73.78H28.82V47.71a4.76,4.76,0,0,0-1.35-3.57,4.86,4.86,0,0,0-3.55-1.32,9.36,9.36,0,0,0-4.56,1.37l-8.8,5.12a3.74,3.74,0,0,0-1.93,3.41,4.56,4.56,0,0,0,1.11,3,3.29,3.29,0,0,0,2.63,1.35,3.7,3.7,0,0,0,1.93-.55l4.4-2.58V73.78H14.25a5.52,5.52,0,0,0-3.64,1,3.69,3.69,0,0,0-1.15,3c0,2.72,1.59,4.07,4.79,4.07H33.33c3.19,0,4.78-1.35,4.78-4.07a3.69,3.69,0,0,0-1.15-3A5.5,5.5,0,0,0,33.33,73.78Zm33,0H61.82V47.71a4.76,4.76,0,0,0-1.35-3.57,4.86,4.86,0,0,0-3.55-1.32,9.36,9.36,0,0,0-4.56,1.37l-8.8,5.12a3.74,3.74,0,0,0-1.93,3.41,4.56,4.56,0,0,0,1.11,3,3.29,3.29,0,0,0,2.63,1.35,3.75,3.75,0,0,0,1.93-.55l4.4-2.58V73.78H47.25a5.52,5.52,0,0,0-3.64,1,3.69,3.69,0,0,0-1.15,3c0,2.72,1.59,4.07,4.79,4.07H66.33c3.19,0,4.78-1.35,4.78-4.07a3.69,3.69,0,0,0-1.15-3A5.5,5.5,0,0,0,66.33,73.78Z"/></svg>