<svg id="Layer_1" data-name="Layer 1" xmlns="http://www.w3.org/2000/svg" viewBox="0 0 100 100"><title>l27_6_1</title><path d="M100.12,11.58V70A11.58,11.58,0,0,1,88.54,81.55H81.67v6.87A11.58,11.58,0,0,1,70.09,100H11.69A11.57,11.57,0,0,1,.12,88.42V30A11.57,11.57,0,0,1,11.69,18.45h6.88V11.58A11.57,11.57,0,0,1,30.14,0h58.4A11.58,11.58,0,0,1,100.12,11.58Zm-11,23.12-7.44-7.44,6.84-6.72A4.91,4.91,0,0,0,90,17.06a4.49,4.49,0,0,0-1.41-3.27,4.55,4.55,0,0,0-3.33-1.41A4.8,4.8,0,0,0,81.7,14l-6.48,6.54L68.8,14a4.6,4.6,0,0,0-3.54-1.68,4.51,4.51,0,0,0-3.33,1.44,4.65,4.65,0,0,0-1.41,3.36A4.71,4.71,0,0,0,62,20.54l6.84,6.72L61.42,34.7a4.71,4.71,0,0,0-1.5,3.42,4.54,4.54,0,0,0,1.44,3.3,4.61,4.61,0,0,0,3.36,1.44,4.8,4.8,0,0,0,3.54-1.62l7-7.32,7,7.32a4.8,4.8,0,0,0,3.54,1.62,4.61,4.61,0,0,0,3.36-1.44,4.54,4.54,0,0,0,1.44-3.3A4.71,4.71,0,0,0,89.08,34.7ZM49.8,77.86H34.73L45.38,67a35.13,35.13,0,0,0,6.26-8.44,19,19,0,0,0,1.84-8.36,13.81,13.81,0,0,0-2.29-7.84A14.74,14.74,0,0,0,44.7,37.1,24.23,24.23,0,0,0,35,35.26a29.3,29.3,0,0,0-8.66,1.35,29.15,29.15,0,0,0-7.91,3.75,4.94,4.94,0,0,0-1.84,2,6.36,6.36,0,0,0-.49,2.7,6.45,6.45,0,0,0,1.28,4,3.81,3.81,0,0,0,3.15,1.69,4.44,4.44,0,0,0,1.42-.22,8.87,8.87,0,0,0,1.54-.72l1.16-.63,1.5-.75a36.87,36.87,0,0,1,4.24-1.84,12.26,12.26,0,0,1,4-.64,5.94,5.94,0,0,1,4.17,1.35A5.06,5.06,0,0,1,40,51.16q0,4.35-4.95,9.53L19.13,77.26a8.21,8.21,0,0,0-2.55,5.85,5.6,5.6,0,0,0,1.57,4.09,5.69,5.69,0,0,0,4.28,1.61H49.8a7.51,7.51,0,0,0,4.91-1.35,5.16,5.16,0,0,0,1.62-4.2,5,5,0,0,0-1.62-4.09A7.7,7.7,0,0,0,49.8,77.86Z"/></svg>