<svg id="Layer_1" data-name="Layer 1" xmlns="http://www.w3.org/2000/svg" viewBox="0 0 100 100"><title>l27_2_1</title><path d="M100,11.58V70A11.57,11.57,0,0,1,88.42,81.55H81.55v6.87A11.57,11.57,0,0,1,70,100H11.58A11.57,11.57,0,0,1,0,88.42V30A11.57,11.57,0,0,1,11.58,18.45h6.87V11.58A11.57,11.57,0,0,1,30,0H88.42A11.57,11.57,0,0,1,100,11.58ZM18.72,79.23q6,0,9.2-4.28t3.17-12.38q0-8-3.19-12.32C25.76,47.39,22.71,46,18.72,46s-7.08,1.42-9.2,4.28-3.17,7-3.17,12.32S7.4,72.1,9.52,75,14.7,79.23,18.72,79.23Zm0-6.4a3.29,3.29,0,0,1-3.17-2.39c-.65-1.59-1-4.22-1-7.87s.32-6.26,1-7.84a3.3,3.3,0,0,1,6.34,0q1,2.4,1,7.82c0,3.65-.32,6.28-1,7.87A3.29,3.29,0,0,1,18.72,72.83Zm20.06,6.26a4.25,4.25,0,0,0,3.15-1.29,4.63,4.63,0,0,0,0-6.35,4.55,4.55,0,0,0-6.35,0,4.6,4.6,0,0,0,0,6.35A4.29,4.29,0,0,0,38.78,79.09ZM57.68,46a11.85,11.85,0,0,0-5.84,1.42,10.28,10.28,0,0,0-4,4,12.29,12.29,0,0,0-.18,11.23,9.51,9.51,0,0,0,3.47,3.77,9.34,9.34,0,0,0,5,1.36A8.84,8.84,0,0,0,60,66.87a7.28,7.28,0,0,0,2.83-2.32,12.2,12.2,0,0,1-1.73,6,4.39,4.39,0,0,1-3.79,2.14,6.25,6.25,0,0,1-2.12-.36c-.67-.25-1.52-.62-2.53-1.11l-1-.5c-.58-.31-1-.53-1.38-.67a3,3,0,0,0-1.15-.21,2.45,2.45,0,0,0-2,1,3.75,3.75,0,0,0-.8,2.42,3.4,3.4,0,0,0,.34,1.61,4,4,0,0,0,1.13,1.24,14.7,14.7,0,0,0,4.62,2.3,18,18,0,0,0,5.27.83,12.45,12.45,0,0,0,7.15-2.07,13.4,13.4,0,0,0,4.74-5.91,22.34,22.34,0,0,0,1.68-9q0-7.81-3.54-12T57.68,46Zm.51,15.22A3.64,3.64,0,0,1,55.31,60a5.4,5.4,0,0,1,0-6.37,3.63,3.63,0,0,1,2.86-1.2A3.69,3.69,0,0,1,61,53.67a4.52,4.52,0,0,1,1.1,3.15A4.57,4.57,0,0,1,61.06,60,3.67,3.67,0,0,1,58.19,61.19Z"/></svg>