<svg id="Layer_1" data-name="Layer 1" xmlns="http://www.w3.org/2000/svg" viewBox="0 0 100 100"><title>l27_4_1</title><path d="M100,11.51V69.9A11.58,11.58,0,0,1,88.42,81.48H81.55v6.87A11.58,11.58,0,0,1,70,99.93H11.58A11.58,11.58,0,0,1,0,88.35V30A11.57,11.57,0,0,1,11.58,18.38h6.87V11.51A11.57,11.57,0,0,1,30-.07H88.42A11.57,11.57,0,0,1,100,11.51ZM89,20.36H79.55V10.92a4.42,4.42,0,1,0-8.84,0v9.44H61.27a4.36,4.36,0,0,0-4.43,4.42A4.42,4.42,0,0,0,58.12,28a4.23,4.23,0,0,0,3.15,1.31h9.44v9.37a4.48,4.48,0,0,0,7.61,3.15,4.36,4.36,0,0,0,1.23-3.15V29.28H89A4.21,4.21,0,0,0,92.14,28a4.42,4.42,0,0,0,1.28-3.19A4.35,4.35,0,0,0,89,20.36ZM54.69,77.79H39.61L50.26,66.92a35.05,35.05,0,0,0,6.26-8.44,18.84,18.84,0,0,0,1.84-8.36,13.71,13.71,0,0,0-2.29-7.84A14.52,14.52,0,0,0,49.59,37a24.06,24.06,0,0,0-9.75-1.84,30.51,30.51,0,0,0-16.58,5.1,5,5,0,0,0-1.84,2,6.53,6.53,0,0,0-.48,2.7,6.44,6.44,0,0,0,1.27,4,3.81,3.81,0,0,0,3.15,1.69,4.51,4.51,0,0,0,1.43-.22,8.49,8.49,0,0,0,1.53-.72l1.17-.63,1.5-.75a35.82,35.82,0,0,1,4.23-1.84,12.1,12.1,0,0,1,4-.64,5.92,5.92,0,0,1,4.16,1.35,5.06,5.06,0,0,1,1.46,3.9q0,4.35-5,9.53L24,77.19A8.21,8.21,0,0,0,21.46,83,5.63,5.63,0,0,0,23,87.13a5.71,5.71,0,0,0,4.27,1.61H54.69a7.53,7.53,0,0,0,4.91-1.35,5.19,5.19,0,0,0,1.61-4.2A5,5,0,0,0,59.6,79.1,7.72,7.72,0,0,0,54.69,77.79Z"/></svg>