<svg id="Layer_1" data-name="Layer 1" xmlns="http://www.w3.org/2000/svg" viewBox="0 0 100 100"><title>l27_4_1</title><path d="M100,11.51V69.9A11.58,11.58,0,0,1,88.42,81.48H81.55v6.87A11.58,11.58,0,0,1,70,99.93H11.58A11.58,11.58,0,0,1,0,88.35V30A11.57,11.57,0,0,1,11.58,18.38h6.87V11.51A11.57,11.57,0,0,1,30-.07H88.42A11.57,11.57,0,0,1,100,11.51ZM89,20.36H79.55V10.92a4.42,4.42,0,1,0-8.84,0v9.44H61.27a4.36,4.36,0,0,0-4.43,4.42A4.42,4.42,0,0,0,58.12,28a4.23,4.23,0,0,0,3.15,1.31h9.44v9.37a4.48,4.48,0,0,0,7.61,3.15,4.36,4.36,0,0,0,1.23-3.15V29.28H89A4.21,4.21,0,0,0,92.14,28a4.42,4.42,0,0,0,1.28-3.19A4.35,4.35,0,0,0,89,20.36ZM45.27,53.94a14.32,14.32,0,0,0-6.33,1.39,11.75,11.75,0,0,0-4.61,3.79q.44-6.3,2.81-9.79a7.16,7.16,0,0,1,6.19-3.49,10,10,0,0,1,3.44.6c1.1.4,2.48,1,4.13,1.8l1.65.83q1.43.75,2.25,1.08a4.8,4.8,0,0,0,1.87.34,4,4,0,0,0,3.19-1.61,6,6,0,0,0,1.31-3.94,5.43,5.43,0,0,0-.56-2.62,6.46,6.46,0,0,0-1.84-2,23.93,23.93,0,0,0-7.53-3.75,29.15,29.15,0,0,0-8.59-1.35A20.29,20.29,0,0,0,31,38.57a21.85,21.85,0,0,0-7.73,9.63,36.5,36.5,0,0,0-2.73,14.67q0,12.75,5.77,19.65t16.35,6.9a19.32,19.32,0,0,0,9.52-2.33,16.73,16.73,0,0,0,6.57-6.49A20.07,20.07,0,0,0,59,62.3a15.6,15.6,0,0,0-5.67-6.15A15.18,15.18,0,0,0,45.27,53.94Zm-3.44,24.9a6,6,0,0,1-4.66-2,8.34,8.34,0,0,1,0-10.31,6,6,0,0,1,4.69-2,5.93,5.93,0,0,1,4.68,1.91,7.61,7.61,0,0,1,1.69,5.22,7.56,7.56,0,0,1-1.72,5.17A5.92,5.92,0,0,1,41.83,78.84Z"/></svg>