<svg id="Layer_1" data-name="Layer 1" xmlns="http://www.w3.org/2000/svg" viewBox="0 0 100 100"><title>l27_6_1</title><path d="M100.13,11.58V70A11.58,11.58,0,0,1,88.55,81.55H81.68v6.87A11.57,11.57,0,0,1,70.1,100H11.71A11.57,11.57,0,0,1,.13,88.42V30A11.57,11.57,0,0,1,11.71,18.45h6.87V11.58A11.57,11.57,0,0,1,30.16,0H88.55A11.58,11.58,0,0,1,100.13,11.58Zm-11,23.12-7.44-7.44,6.84-6.72A4.91,4.91,0,0,0,90,17.06a4.49,4.49,0,0,0-1.41-3.27,4.55,4.55,0,0,0-3.33-1.41A4.8,4.8,0,0,0,81.71,14l-6.48,6.54L68.81,14a4.6,4.6,0,0,0-3.54-1.68,4.51,4.51,0,0,0-3.33,1.44,4.65,4.65,0,0,0-1.41,3.36A4.71,4.71,0,0,0,62,20.54l6.84,6.72L61.43,34.7a4.71,4.71,0,0,0-1.5,3.42,4.54,4.54,0,0,0,1.44,3.3,4.61,4.61,0,0,0,3.36,1.44,4.8,4.8,0,0,0,3.54-1.62l7-7.32,7,7.32a4.8,4.8,0,0,0,3.54,1.62,4.61,4.61,0,0,0,3.36-1.44,4.54,4.54,0,0,0,1.44-3.3A4.71,4.71,0,0,0,89.09,34.7ZM52,69.39H50.38V42.31a6.37,6.37,0,0,0-2-5,7.07,7.07,0,0,0-4.87-1.8,7.57,7.57,0,0,0-3.34.78,6.91,6.91,0,0,0-2.66,2.29L16,69.16a8.4,8.4,0,0,0-1.65,5A5.75,5.75,0,0,0,16,78.24a5.64,5.64,0,0,0,4.28,1.65H37v2.55a6.65,6.65,0,0,0,1.84,5.1,6.79,6.79,0,0,0,4.84,1.72,6.9,6.9,0,0,0,4.87-1.72,6.59,6.59,0,0,0,1.88-5.1V79.89H52q6.53,0,6.52-5.33Q58.55,69.38,52,69.39ZM28,69.39l9-13v13Z"/></svg>