<svg id="Layer_1" data-name="Layer 1" xmlns="http://www.w3.org/2000/svg" viewBox="0 0 100 100"><title>l27_2_1</title><path d="M100,11.79V70.18A11.58,11.58,0,0,1,88.42,81.76H81.55v6.87A11.58,11.58,0,0,1,70,100.21H11.58A11.58,11.58,0,0,1,0,88.63V30.24A11.57,11.57,0,0,1,11.58,18.66h6.87V11.79A11.57,11.57,0,0,1,30,.21H88.42A11.57,11.57,0,0,1,100,11.79ZM18.72,79.43q6,0,9.2-4.28t3.17-12.37q0-8.06-3.19-12.33a10.78,10.78,0,0,0-9.18-4.28q-6,0-9.2,4.28T6.35,62.78q0,8.1,3.17,12.37T18.72,79.43Zm0-6.39a3.29,3.29,0,0,1-3.17-2.39q-1-2.4-1-7.87t1-7.84a3.3,3.3,0,0,1,6.34,0c.65,1.6,1,4.2,1,7.82s-.32,6.27-1,7.87A3.29,3.29,0,0,1,18.72,73Zm20.06,6.25A4.25,4.25,0,0,0,41.93,78a4.63,4.63,0,0,0,0-6.35,4.55,4.55,0,0,0-6.35,0,4.6,4.6,0,0,0,0,6.35A4.28,4.28,0,0,0,38.78,79.29Zm29.8-7H64.81V50.5a4,4,0,0,0-1.13-3,4,4,0,0,0-3-1.11,7.84,7.84,0,0,0-3.82,1.15l-7.36,4.28a3.14,3.14,0,0,0-1.61,2.85,3.89,3.89,0,0,0,.92,2.51,2.77,2.77,0,0,0,2.21,1.13,3.11,3.11,0,0,0,1.61-.46l3.68-2.16V72.3H52.62a4.64,4.64,0,0,0-3,.83,3.1,3.1,0,0,0-1,2.48q0,3.4,4,3.41h16q4,0,4-3.41a3.1,3.1,0,0,0-1-2.48A4.62,4.62,0,0,0,68.58,72.3Z"/></svg>