<svg id="Layer_1" data-name="Layer 1" xmlns="http://www.w3.org/2000/svg" viewBox="0 0 100 100"><title>l27_2_1</title><path d="M100,11.58V70A11.57,11.57,0,0,1,88.42,81.55H81.55v6.87A11.57,11.57,0,0,1,70,100H11.58A11.57,11.57,0,0,1,0,88.42V30A11.57,11.57,0,0,1,11.58,18.45h6.87V11.58A11.57,11.57,0,0,1,30,0H88.42A11.57,11.57,0,0,1,100,11.58ZM28.45,72.1H24.68V50.29a4,4,0,0,0-1.13-3,4.08,4.08,0,0,0-3-1.1,7.77,7.77,0,0,0-3.82,1.15L9.4,51.63a3.12,3.12,0,0,0-1.61,2.85A3.87,3.87,0,0,0,8.71,57a2.76,2.76,0,0,0,2.21,1.13,3.11,3.11,0,0,0,1.61-.46l3.68-2.16V72.1H12.49a4.62,4.62,0,0,0-3,.82,3.12,3.12,0,0,0-1,2.49q0,3.41,4,3.4h16q4,0,4-3.4a3.09,3.09,0,0,0-1-2.49A4.59,4.59,0,0,0,28.45,72.1Zm10.3,7A4.22,4.22,0,0,0,41.9,77.8a4.6,4.6,0,0,0,0-6.35,4.22,4.22,0,0,0-3.15-1.29,4.3,4.3,0,0,0-3.2,1.29,4.63,4.63,0,0,0,0,6.35A4.3,4.3,0,0,0,38.75,79.09Zm28.61-7H58.12l6.53-6.67a21.63,21.63,0,0,0,3.84-5.18,11.62,11.62,0,0,0,1.13-5.13,8.42,8.42,0,0,0-1.41-4.81,9,9,0,0,0-4-3.22,14.8,14.8,0,0,0-6-1.12A18.73,18.73,0,0,0,48.09,49.1,3,3,0,0,0,47,50.29a4.44,4.44,0,0,0,.48,4.12,2.36,2.36,0,0,0,1.94,1,2.82,2.82,0,0,0,.87-.13,5.87,5.87,0,0,0,.94-.44c.36-.2.59-.33.72-.39l.92-.46a21.63,21.63,0,0,1,2.6-1.13,7.47,7.47,0,0,1,2.46-.39,3.64,3.64,0,0,1,2.55.83,3.08,3.08,0,0,1,.9,2.39c0,1.78-1,3.73-3,5.84L48.55,71.73A5.05,5.05,0,0,0,47,75.32a3.45,3.45,0,0,0,1,2.5,3.49,3.49,0,0,0,2.62,1H67.36a4.59,4.59,0,0,0,3-.83,3.19,3.19,0,0,0,1-2.57,3.07,3.07,0,0,0-1-2.51A4.72,4.72,0,0,0,67.36,72.1Z"/></svg>