<svg id="Layer_1" data-name="Layer 1" xmlns="http://www.w3.org/2000/svg" viewBox="0 0 100 100"><title>l27_4_1</title><path d="M100,11.51V69.9A11.58,11.58,0,0,1,88.42,81.48H81.55v6.87A11.58,11.58,0,0,1,70,99.93H11.58A11.58,11.58,0,0,1,0,88.35V30A11.57,11.57,0,0,1,11.58,18.38h6.87V11.51A11.57,11.57,0,0,1,30-.07H88.42A11.57,11.57,0,0,1,100,11.51ZM89,20.36H79.55V10.92a4.42,4.42,0,1,0-8.84,0v9.44H61.26a4.35,4.35,0,0,0-4.42,4.42A4.42,4.42,0,0,0,58.12,28a4.21,4.21,0,0,0,3.14,1.31h9.45v9.37a4.48,4.48,0,0,0,7.61,3.15,4.36,4.36,0,0,0,1.23-3.15V29.28H89A4.21,4.21,0,0,0,92.14,28a4.42,4.42,0,0,0,1.28-3.19A4.35,4.35,0,0,0,89,20.36ZM56.67,77.79H50.52V42.24a6.51,6.51,0,0,0-1.83-4.87,6.63,6.63,0,0,0-4.84-1.8,12.69,12.69,0,0,0-6.23,1.87l-12,7A5.09,5.09,0,0,0,23,49.07a6.28,6.28,0,0,0,1.5,4.08A4.5,4.5,0,0,0,28.1,55a5.1,5.1,0,0,0,2.62-.75l6-3.52V77.79H30.65q-3.37,0-4.95,1.35a5,5,0,0,0-1.58,4q0,5.55,6.53,5.55h26q6.53,0,6.53-5.55a5,5,0,0,0-1.58-4Q60,77.79,56.67,77.79Z"/></svg>