<svg id="Layer_1" data-name="Layer 1" xmlns="http://www.w3.org/2000/svg" viewBox="0 0 100 100"><title>l27_5_1</title><path d="M100.39,11.58V70A11.57,11.57,0,0,1,88.81,81.55H81.94v6.87A11.57,11.57,0,0,1,70.37,100H12A11.58,11.58,0,0,1,.39,88.42V30A11.58,11.58,0,0,1,12,18.45h6.87V11.58A11.58,11.58,0,0,1,30.42,0H88.81A11.57,11.57,0,0,1,100.39,11.58Zm-31.91,20H82.57a6.86,6.86,0,0,0,4.69-1.39,5,5,0,0,0,1.53-3.86,4.82,4.82,0,0,0-1.53-3.82,7,7,0,0,0-4.69-1.35H68.48q-6.23,0-6.22,5.17T68.48,31.53ZM33.33,73.78H28.82V47.71a4.76,4.76,0,0,0-1.35-3.57,4.85,4.85,0,0,0-3.54-1.32,9.37,9.37,0,0,0-4.57,1.37l-8.8,5.12a3.73,3.73,0,0,0-1.92,3.41,4.55,4.55,0,0,0,1.1,3,3.3,3.3,0,0,0,2.64,1.35,3.69,3.69,0,0,0,1.92-.55l4.4-2.58V73.78H14.24a5.47,5.47,0,0,0-3.62,1,3.67,3.67,0,0,0-1.16,3c0,2.72,1.6,4.07,4.78,4.07H33.33c3.19,0,4.79-1.35,4.79-4.07a3.7,3.7,0,0,0-1.16-3A5.5,5.5,0,0,0,33.33,73.78Zm21.34,8.53q7.2,0,11-5.12T69.46,62.4q0-9.63-3.82-14.74t-11-5.12q-7.2,0-11,5.12T39.87,62.4q0,9.67,3.8,14.79T54.67,82.31Zm0-7.65a3.94,3.94,0,0,1-3.8-2.86c-.77-1.9-1.15-5-1.15-9.4s.38-7.49,1.15-9.38a4,4,0,0,1,7.59,0c.78,1.9,1.16,5,1.16,9.35s-.38,7.5-1.16,9.4A3.92,3.92,0,0,1,54.67,74.66Z"/></svg>