<svg id="Layer_1" data-name="Layer 1" xmlns="http://www.w3.org/2000/svg" viewBox="0 0 100 100"><title>l27_2_1</title><path d="M100,11.58V70A11.57,11.57,0,0,1,88.42,81.55H81.55v6.87A11.57,11.57,0,0,1,70,100H11.58A11.57,11.57,0,0,1,0,88.42V30A11.57,11.57,0,0,1,11.58,18.45h6.87V11.58A11.57,11.57,0,0,1,30,0H88.42A11.57,11.57,0,0,1,100,11.58ZM18.72,79.23q6,0,9.2-4.28t3.17-12.38q0-8-3.19-12.32C25.76,47.39,22.71,46,18.72,46s-7.08,1.42-9.2,4.28-3.17,7-3.17,12.32S7.4,72.1,9.52,75,14.7,79.23,18.72,79.23Zm0-6.4a3.28,3.28,0,0,1-3.17-2.39c-.65-1.59-1-4.22-1-7.87s.32-6.26,1-7.84a3.3,3.3,0,0,1,6.34,0q1,2.4,1,7.82c0,3.65-.32,6.28-1,7.87A3.28,3.28,0,0,1,18.72,72.83Zm20.06,6.26a4.25,4.25,0,0,0,3.15-1.29,4.63,4.63,0,0,0,0-6.35,4.55,4.55,0,0,0-6.35,0,4.6,4.6,0,0,0,0,6.35A4.29,4.29,0,0,0,38.78,79.09Zm29.8-7H64.81V50.29a4,4,0,0,0-1.13-3,4.07,4.07,0,0,0-3-1.1,7.74,7.74,0,0,0-3.82,1.15l-7.36,4.28a3.12,3.12,0,0,0-1.61,2.85A3.91,3.91,0,0,0,48.85,57a2.76,2.76,0,0,0,2.21,1.12,3.11,3.11,0,0,0,1.61-.46l3.68-2.16V72.1H52.62a4.64,4.64,0,0,0-3,.82,3.12,3.12,0,0,0-1,2.49q0,3.41,4,3.4h16q4,0,4-3.4a3.12,3.12,0,0,0-1-2.49A4.62,4.62,0,0,0,68.58,72.1Z"/></svg>