<svg id="Layer_1" data-name="Layer 1" xmlns="http://www.w3.org/2000/svg" viewBox="0 0 100 100"><title>l27_2_1</title><path d="M100,11.79V70.18A11.58,11.58,0,0,1,88.42,81.76H81.55v6.87A11.58,11.58,0,0,1,70,100.21H11.58A11.58,11.58,0,0,1,0,88.63V30.24A11.57,11.57,0,0,1,11.58,18.66h6.87V11.79A11.57,11.57,0,0,1,30,.21H88.42A11.57,11.57,0,0,1,100,11.79ZM18.7,79.43q6,0,9.2-4.28t3.17-12.37q0-8.06-3.2-12.33a10.76,10.76,0,0,0-9.17-4.28q-6,0-9.2,4.28T6.32,62.78q0,8.1,3.18,12.37T18.7,79.43Zm0-6.39a3.31,3.31,0,0,1-3.18-2.39q-1-2.4-1-7.87t1-7.84a3.31,3.31,0,0,1,6.35,0c.65,1.6,1,4.2,1,7.82s-.32,6.27-1,7.87A3.29,3.29,0,0,1,18.7,73Zm20.05,6.25A4.21,4.21,0,0,0,41.9,78a4.6,4.6,0,0,0,0-6.35,4.22,4.22,0,0,0-3.15-1.29,4.3,4.3,0,0,0-3.2,1.29,4.63,4.63,0,0,0,0,6.35A4.3,4.3,0,0,0,38.75,79.29Zm28.61-7H58.12l6.53-6.67a21.41,21.41,0,0,0,3.84-5.17,11.62,11.62,0,0,0,1.13-5.13,8.42,8.42,0,0,0-1.41-4.81,9,9,0,0,0-4-3.22,14.84,14.84,0,0,0-6-1.13,18.13,18.13,0,0,0-5.32.83,17.93,17.93,0,0,0-4.85,2.3A3.09,3.09,0,0,0,47,50.5a4.41,4.41,0,0,0,.49,4.12,2.33,2.33,0,0,0,1.93,1,2.78,2.78,0,0,0,.87-.14,5,5,0,0,0,.94-.43l.72-.4.92-.46a21.4,21.4,0,0,1,2.6-1.12,7.47,7.47,0,0,1,2.46-.39,3.64,3.64,0,0,1,2.55.82,3.11,3.11,0,0,1,.9,2.4c0,1.78-1,3.72-3,5.84L48.55,71.93A5.06,5.06,0,0,0,47,75.52,3.46,3.46,0,0,0,48,78a3.51,3.51,0,0,0,2.62,1H67.36a4.65,4.65,0,0,0,3-.83,3.17,3.17,0,0,0,1-2.58,3,3,0,0,0-1-2.5A4.71,4.71,0,0,0,67.36,72.3Z"/></svg>