<svg id="Layer_1" data-name="Layer 1" xmlns="http://www.w3.org/2000/svg" viewBox="0 0 100 100"><title>l27_5_1</title><path d="M100.39,11.58V70A11.57,11.57,0,0,1,88.81,81.55H81.94v6.87A11.57,11.57,0,0,1,70.37,100H12A11.58,11.58,0,0,1,.39,88.42V30A11.58,11.58,0,0,1,12,18.45h6.87V11.58A11.58,11.58,0,0,1,30.42,0H88.81A11.57,11.57,0,0,1,100.39,11.58Zm-31.91,20H82.57a6.86,6.86,0,0,0,4.69-1.39,5,5,0,0,0,1.53-3.86,4.82,4.82,0,0,0-1.53-3.82,7,7,0,0,0-4.69-1.35H68.48q-6.23,0-6.22,5.17T68.48,31.53ZM33.33,73.78H28.82V47.71a4.76,4.76,0,0,0-1.35-3.57,4.85,4.85,0,0,0-3.54-1.32,9.37,9.37,0,0,0-4.57,1.37l-8.8,5.12a3.73,3.73,0,0,0-1.92,3.41,4.55,4.55,0,0,0,1.1,3,3.3,3.3,0,0,0,2.64,1.35,3.69,3.69,0,0,0,1.92-.55l4.4-2.58V73.78H14.24a5.52,5.52,0,0,0-3.63,1,3.69,3.69,0,0,0-1.15,3c0,2.72,1.6,4.07,4.78,4.07H33.33c3.19,0,4.78-1.35,4.78-4.07a3.69,3.69,0,0,0-1.15-3A5.5,5.5,0,0,0,33.33,73.78ZM61.65,61.85A9,9,0,0,0,66,58.52a9.17,9.17,0,0,0,1.56-5.31,9.69,9.69,0,0,0-1.67-5.61,10.82,10.82,0,0,0-4.79-3.74A18.21,18.21,0,0,0,54,42.54a22,22,0,0,0-6.51,1,18.35,18.35,0,0,0-5.59,2.75,4.49,4.49,0,0,0-1.32,1.49,4.35,4.35,0,0,0-.38,1.92,4.53,4.53,0,0,0,.93,2.89,2.85,2.85,0,0,0,2.31,1.18,3.5,3.5,0,0,0,1.38-.25c.4-.16.95-.43,1.65-.79l1.15-.55a29.55,29.55,0,0,1,3-1.32,8.32,8.32,0,0,1,2.89-.5,4.72,4.72,0,0,1,3.35,1.13A4.11,4.11,0,0,1,58,54.64a3.09,3.09,0,0,1-1.38,2.81,8.49,8.49,0,0,1-4.4.88H49.83a3.16,3.16,0,0,0-2.59,1.15,4.53,4.53,0,0,0,0,5.5,3.17,3.17,0,0,0,2.59,1.16h3.41a8.32,8.32,0,0,1,4.51.93,3.45,3.45,0,0,1,1.37,3.08,3.82,3.82,0,0,1-1.34,3.3,7.65,7.65,0,0,1-4.43,1A9.72,9.72,0,0,1,50.19,74,24.64,24.64,0,0,1,47,72.63c-.26-.11-.49-.21-.69-.31l-.53-.24a16.46,16.46,0,0,0-1.65-.8A3.49,3.49,0,0,0,42.79,71a2.85,2.85,0,0,0-2.31,1.18,4.56,4.56,0,0,0-.94,2.89,4.26,4.26,0,0,0,.39,1.9,4.35,4.35,0,0,0,1.32,1.51A17.62,17.62,0,0,0,47,81.29a24.47,24.47,0,0,0,6.87,1,20.66,20.66,0,0,0,7.79-1.35,11.48,11.48,0,0,0,5.14-3.82,9.58,9.58,0,0,0,1.81-5.83,9.74,9.74,0,0,0-1.84-6A9.33,9.33,0,0,0,61.65,61.85Z"/></svg>