<svg id="Layer_1" data-name="Layer 1" xmlns="http://www.w3.org/2000/svg" viewBox="0 0 100 100"><title>l27_4_1</title><path d="M100,11.58V70A11.57,11.57,0,0,1,88.42,81.55H81.55v6.87A11.57,11.57,0,0,1,70,100H11.58A11.57,11.57,0,0,1,0,88.42V30A11.57,11.57,0,0,1,11.58,18.45h6.87V11.58A11.57,11.57,0,0,1,30,0H88.42A11.57,11.57,0,0,1,100,11.58ZM89,20.43H79.55V11a4.42,4.42,0,1,0-8.84,0v9.44H61.27a4.37,4.37,0,0,0-4.43,4.42A4.41,4.41,0,0,0,58.12,28a4.2,4.2,0,0,0,3.15,1.31h9.44v9.37a4.48,4.48,0,0,0,7.61,3.15,4.36,4.36,0,0,0,1.23-3.15V29.35H89A4.17,4.17,0,0,0,92.14,28a4.41,4.41,0,0,0,1.28-3.19A4.37,4.37,0,0,0,89,20.43ZM50.3,61.59a12.11,12.11,0,0,0,6-4.54,12.43,12.43,0,0,0,2.14-7.24,13.06,13.06,0,0,0-2.29-7.65,14.66,14.66,0,0,0-6.52-5.1,24.89,24.89,0,0,0-9.79-1.8,30.1,30.1,0,0,0-8.89,1.35,24.93,24.93,0,0,0-7.61,3.75,6.06,6.06,0,0,0-1.8,2A5.82,5.82,0,0,0,21,45,6.15,6.15,0,0,0,22.25,49a3.86,3.86,0,0,0,3.15,1.61,4.8,4.8,0,0,0,1.87-.34,23.16,23.16,0,0,0,2.25-1.08l1.58-.75a40,40,0,0,1,4.09-1.8,11.27,11.27,0,0,1,3.93-.68,6.47,6.47,0,0,1,4.58,1.54,5.61,5.61,0,0,1,1.65,4.31,4.23,4.23,0,0,1-1.87,3.83q-1.89,1.2-6,1.2H34.17a4.27,4.27,0,0,0-3.52,1.57,6.13,6.13,0,0,0,0,7.5,4.28,4.28,0,0,0,3.52,1.58h4.66q4.26,0,6.15,1.27a4.73,4.73,0,0,1,1.87,4.2q0,3.15-1.84,4.5c-1.22.9-3.24,1.35-6,1.35a13.48,13.48,0,0,1-4.32-.64,33,33,0,0,1-4.31-1.83l-.94-.42-.71-.33c-.95-.5-1.7-.87-2.25-1.09a4.83,4.83,0,0,0-1.87-.34,3.9,3.9,0,0,0-3.16,1.61,6.16,6.16,0,0,0-1.27,3.94,5.9,5.9,0,0,0,.52,2.59,5.8,5.8,0,0,0,1.81,2.06,23.87,23.87,0,0,0,7.79,3.79,33.53,33.53,0,0,0,9.38,1.31,28,28,0,0,0,10.61-1.84,15.69,15.69,0,0,0,7-5.21,13.08,13.08,0,0,0,2.48-8,13.32,13.32,0,0,0-2.51-8.17A12.78,12.78,0,0,0,50.3,61.59Z"/></svg>