<svg id="Layer_1" data-name="Layer 1" xmlns="http://www.w3.org/2000/svg" viewBox="0 0 100 100"><title>l27_6_1</title><path d="M100.12,11.58V70A11.58,11.58,0,0,1,88.54,81.55H81.67v6.87A11.58,11.58,0,0,1,70.09,100H11.69A11.57,11.57,0,0,1,.12,88.42V30A11.57,11.57,0,0,1,11.69,18.45h6.88V11.58A11.57,11.57,0,0,1,30.14,0h58.4A11.58,11.58,0,0,1,100.12,11.58Zm-11,23.12-7.44-7.44,6.84-6.72A5,5,0,0,0,90,17.06a4.49,4.49,0,0,0-1.41-3.27,4.57,4.57,0,0,0-3.33-1.41A4.8,4.8,0,0,0,81.7,14l-6.48,6.54L68.8,14a4.6,4.6,0,0,0-3.54-1.68,4.49,4.49,0,0,0-3.33,1.44A4.68,4.68,0,0,0,62,20.54l6.84,6.72L61.42,34.7a4.71,4.71,0,0,0-1.5,3.42,4.54,4.54,0,0,0,1.44,3.3,4.59,4.59,0,0,0,3.36,1.44,4.81,4.81,0,0,0,3.54-1.62l7-7.32,7,7.32a4.8,4.8,0,0,0,3.54,1.62,4.62,4.62,0,0,0,3.36-1.44,4.54,4.54,0,0,0,1.44-3.3A4.71,4.71,0,0,0,89.08,34.7ZM39.56,54.24a18.72,18.72,0,0,0-7.42,1.35V46.36h16.2q6.52,0,6.52-5.25t-6.52-5.17H25.09a6.41,6.41,0,0,0-4.73,1.65,6.5,6.5,0,0,0-1.65,4.8V62.71A4.1,4.1,0,0,0,20.14,66a5.15,5.15,0,0,0,3.52,1.24A7.18,7.18,0,0,0,27,66.39,26.7,26.7,0,0,1,31.35,65a20.54,20.54,0,0,1,4.09-.38,8.48,8.48,0,0,1,5.85,1.88,6.67,6.67,0,0,1,2.1,5.25q0,3.6-2,5.28t-6.22,1.69A12.39,12.39,0,0,1,31,78.09a41.33,41.33,0,0,1-4.24-1.8l-1.5-.75A23.16,23.16,0,0,0,23,74.41a5.11,5.11,0,0,0-1.88-.3A3.89,3.89,0,0,0,18,75.72a6.16,6.16,0,0,0-1.27,3.94,5.62,5.62,0,0,0,.56,2.59A6.64,6.64,0,0,0,19,84.31a24.83,24.83,0,0,0,7.69,3.75,31.31,31.31,0,0,0,9.11,1.35,24.36,24.36,0,0,0,10.73-2.25,16.87,16.87,0,0,0,7.2-6.37,17.76,17.76,0,0,0,2.55-9.53,18,18,0,0,0-2.14-8.89,15.25,15.25,0,0,0-5.92-6A17.41,17.41,0,0,0,39.56,54.24Z"/></svg>