<svg id="Layer_1" data-name="Layer 1" xmlns="http://www.w3.org/2000/svg" viewBox="0 0 100 100"><title>l27_5_1</title><path d="M100.39,11.58V70A11.57,11.57,0,0,1,88.81,81.55H81.94v6.87A11.57,11.57,0,0,1,70.37,100H12A11.58,11.58,0,0,1,.39,88.42V30A11.58,11.58,0,0,1,12,18.45h6.87V11.58A11.58,11.58,0,0,1,30.42,0H88.81A11.57,11.57,0,0,1,100.39,11.58Zm-31.91,20H82.57a6.86,6.86,0,0,0,4.69-1.39,5,5,0,0,0,1.53-3.86,4.82,4.82,0,0,0-1.53-3.82,7,7,0,0,0-4.69-1.35H68.48q-6.23,0-6.22,5.17T68.48,31.53ZM33.3,73.78H28.79V47.71a4.8,4.8,0,0,0-1.34-3.57,4.87,4.87,0,0,0-3.55-1.32,9.4,9.4,0,0,0-4.57,1.37l-8.8,5.12a3.73,3.73,0,0,0-1.92,3.41,4.55,4.55,0,0,0,1.1,3,3.3,3.3,0,0,0,2.64,1.35,3.69,3.69,0,0,0,1.92-.55l4.4-2.58V73.78H14.22a5.5,5.5,0,0,0-3.63,1,3.7,3.7,0,0,0-1.16,3c0,2.72,1.6,4.07,4.79,4.07H33.3c3.19,0,4.79-1.35,4.79-4.07a3.7,3.7,0,0,0-1.16-3A5.5,5.5,0,0,0,33.3,73.78Zm31.57,0H53.82l7.81-8a26,26,0,0,0,4.59-6.19,13.84,13.84,0,0,0,1.35-6.13,10.07,10.07,0,0,0-1.68-5.75,10.77,10.77,0,0,0-4.76-3.85A17.68,17.68,0,0,0,54,42.54a22.37,22.37,0,0,0-12.15,3.74,3.68,3.68,0,0,0-1.35,1.43,4.74,4.74,0,0,0-.36,2,4.68,4.68,0,0,0,.94,2.94,2.78,2.78,0,0,0,2.31,1.24,3.28,3.28,0,0,0,1-.16,6.5,6.5,0,0,0,1.13-.53c.42-.23.7-.39.85-.46l1.1-.55a25.52,25.52,0,0,1,3.11-1.35,9,9,0,0,1,2.94-.47,4.32,4.32,0,0,1,3.05,1,3.69,3.69,0,0,1,1.08,2.86q0,3.19-3.63,7L42.38,73.34a6,6,0,0,0-1.87,4.29,4.12,4.12,0,0,0,1.15,3,4.18,4.18,0,0,0,3.14,1.18H64.87a5.51,5.51,0,0,0,3.6-1,3.78,3.78,0,0,0,1.19-3.08,3.66,3.66,0,0,0-1.19-3A5.63,5.63,0,0,0,64.87,73.78Z"/></svg>