<svg id="Layer_1" data-name="Layer 1" xmlns="http://www.w3.org/2000/svg" viewBox="0 0 100 100"><title>l27_6_1</title><path d="M100,11.58V70A11.57,11.57,0,0,1,88.42,81.55H81.55v6.87A11.57,11.57,0,0,1,70,100H11.58A11.57,11.57,0,0,1,0,88.42V30A11.57,11.57,0,0,1,11.58,18.45h6.87V11.58A11.57,11.57,0,0,1,30,0H88.42A11.57,11.57,0,0,1,100,11.58ZM89,34.7l-7.44-7.44,6.84-6.72a4.91,4.91,0,0,0,1.5-3.48,4.49,4.49,0,0,0-1.41-3.27,4.55,4.55,0,0,0-3.33-1.41A4.8,4.8,0,0,0,81.58,14L75.1,20.54,68.68,14a4.6,4.6,0,0,0-3.54-1.68,4.51,4.51,0,0,0-3.33,1.44,4.65,4.65,0,0,0-1.41,3.36,4.71,4.71,0,0,0,1.5,3.42l6.84,6.72L61.3,34.7a4.71,4.71,0,0,0-1.5,3.42,4.54,4.54,0,0,0,1.44,3.3,4.61,4.61,0,0,0,3.36,1.44,4.8,4.8,0,0,0,3.54-1.62l7-7.32,7,7.32a4.8,4.8,0,0,0,3.54,1.62A4.61,4.61,0,0,0,89,41.42a4.54,4.54,0,0,0,1.44-3.3A4.71,4.71,0,0,0,89,34.7ZM51.67,77.86H45.52V42.31a6.51,6.51,0,0,0-1.83-4.87,6.63,6.63,0,0,0-4.84-1.8,12.69,12.69,0,0,0-6.23,1.87l-12,7A5.09,5.09,0,0,0,18,49.14a6.28,6.28,0,0,0,1.5,4.08,4.5,4.5,0,0,0,3.6,1.84,5.16,5.16,0,0,0,2.63-.75l6-3.52V77.86H25.65q-3.37,0-4.95,1.35a5,5,0,0,0-1.58,4.05q0,5.55,6.53,5.55h26q6.53,0,6.53-5.55a5,5,0,0,0-1.58-4.05Q55,77.86,51.67,77.86Z"/></svg>