<svg id="Layer_1" data-name="Layer 1" xmlns="http://www.w3.org/2000/svg" viewBox="0 0 100 100"><title>l27_3_1</title><path d="M100,11.58V70A11.57,11.57,0,0,1,88.42,81.55H81.55v6.87A11.57,11.57,0,0,1,70,100H11.58A11.57,11.57,0,0,1,0,88.42V30A11.57,11.57,0,0,1,11.58,18.45h6.87V11.58A11.57,11.57,0,0,1,30,0H88.42A11.57,11.57,0,0,1,100,11.58ZM28.7,69.1H24.93V47.29a4,4,0,0,0-1.13-3,4.07,4.07,0,0,0-3-1.1A7.74,7.74,0,0,0,17,44.35L9.66,48.63a3.1,3.1,0,0,0-1.61,2.85A3.86,3.86,0,0,0,9,54a2.76,2.76,0,0,0,2.21,1.12,3.13,3.13,0,0,0,1.61-.46l3.68-2.16V69.1H12.74a4.64,4.64,0,0,0-3,.82,3.12,3.12,0,0,0-1,2.49q0,3.41,4,3.4h16q4,0,4-3.4a3.12,3.12,0,0,0-1-2.49A4.64,4.64,0,0,0,28.7,69.1Zm9.84,8.18L49,44.49a5.14,5.14,0,0,0,.18-1,2.69,2.69,0,0,0-1-2.16,3.46,3.46,0,0,0-2.27-.83,3.08,3.08,0,0,0-1.78.56A3.16,3.16,0,0,0,43,42.69L32.52,75.49a3.16,3.16,0,0,0-.19,1.06,2.66,2.66,0,0,0,1,2.11,3.34,3.34,0,0,0,2.25.83,3.13,3.13,0,0,0,1.82-.55A3.08,3.08,0,0,0,38.54,77.28Zm29.9-18.17a7.42,7.42,0,0,0,3.66-2.78,7.59,7.59,0,0,0,1.31-4.44A8,8,0,0,0,72,47.2a9.06,9.06,0,0,0-4-3.13A15.41,15.41,0,0,0,62,43a18.21,18.21,0,0,0-5.45.83,15.32,15.32,0,0,0-4.67,2.3A3.15,3.15,0,0,0,50.46,49a3.77,3.77,0,0,0,.78,2.41,2.38,2.38,0,0,0,1.93,1,3.15,3.15,0,0,0,1.15-.2c.34-.14.8-.36,1.38-.67l1-.46a25.06,25.06,0,0,1,2.51-1.11,7,7,0,0,1,2.41-.41,4,4,0,0,1,2.81.94,3.46,3.46,0,0,1,1,2.65,2.57,2.57,0,0,1-1.15,2.34,7,7,0,0,1-3.68.74h-2a2.61,2.61,0,0,0-2.16,1,3.78,3.78,0,0,0,0,4.6,2.63,2.63,0,0,0,2.16,1h2.86a7,7,0,0,1,3.77.78,2.89,2.89,0,0,1,1.15,2.58,3.2,3.2,0,0,1-1.13,2.76,6.38,6.38,0,0,1-3.7.83,8.43,8.43,0,0,1-2.65-.39,20.63,20.63,0,0,1-2.64-1.13l-.58-.25-.43-.21c-.59-.31-1.05-.53-1.38-.67a3.19,3.19,0,0,0-1.15-.2,2.4,2.4,0,0,0-1.94,1A3.77,3.77,0,0,0,50,70.2a3.19,3.19,0,0,0,1.43,2.85,14.9,14.9,0,0,0,4.78,2.33,20.69,20.69,0,0,0,5.75.8,17.06,17.06,0,0,0,6.51-1.13,9.61,9.61,0,0,0,4.3-3.19A8,8,0,0,0,74.24,67a8.14,8.14,0,0,0-1.54-5A7.9,7.9,0,0,0,68.44,59.11Z"/></svg>