<svg id="Layer_1" data-name="Layer 1" xmlns="http://www.w3.org/2000/svg" viewBox="0 0 100 100"><title>l27_2_1</title><path d="M100,11.58V70A11.57,11.57,0,0,1,88.42,81.55H81.55v6.87A11.57,11.57,0,0,1,70,100H11.58A11.57,11.57,0,0,1,0,88.42V30A11.57,11.57,0,0,1,11.58,18.45h6.87V11.58A11.57,11.57,0,0,1,30,0H88.42A11.57,11.57,0,0,1,100,11.58ZM18.72,79.23q6,0,9.2-4.28t3.17-12.38q0-8-3.19-12.32C25.76,47.39,22.71,46,18.72,46s-7.09,1.42-9.2,4.28-3.18,7-3.18,12.32S7.4,72.1,9.52,75,14.7,79.23,18.72,79.23Zm0-6.4a3.29,3.29,0,0,1-3.17-2.39c-.65-1.59-1-4.22-1-7.87s.32-6.26,1-7.84a3.3,3.3,0,0,1,6.34,0q1,2.4,1,7.82c0,3.65-.32,6.28-1,7.87A3.29,3.29,0,0,1,18.72,72.83Zm20.05,6.26a4.26,4.26,0,0,0,3.16-1.29,4.63,4.63,0,0,0,0-6.35,4.55,4.55,0,0,0-6.35,0,4.6,4.6,0,0,0,0,6.35A4.28,4.28,0,0,0,38.77,79.09Zm27-17a6.86,6.86,0,0,0,3.61-2.71,8,8,0,0,0,1.31-4.6,7.61,7.61,0,0,0-3.19-6.46Q64.36,46,58.83,46t-8.69,2.37a7.58,7.58,0,0,0-3.22,6.46,7.86,7.86,0,0,0,1.28,4.48,7.54,7.54,0,0,0,3.68,2.83,7.66,7.66,0,0,0-4.32,2.74,8.12,8.12,0,0,0-1.52,5,7.93,7.93,0,0,0,3.43,6.83q3.42,2.46,9.36,2.46t9.36-2.46a7.93,7.93,0,0,0,3.43-6.83,7.58,7.58,0,0,0-5.8-7.78Zm-7,10.68q-5,0-5-3.59t5-3.59q5,0,5,3.59T58.83,72.79Zm0-20.43a4.87,4.87,0,0,1,3.08.81,3.1,3.1,0,0,1,1,2.6,3.18,3.18,0,0,1-1,2.62,4.8,4.8,0,0,1-3.08.83,4.8,4.8,0,0,1-3.08-.83,3.18,3.18,0,0,1-1-2.62,3.1,3.1,0,0,1,1-2.6A4.87,4.87,0,0,1,58.83,52.36Z"/></svg>