<svg id="Layer_1" data-name="Layer 1" xmlns="http://www.w3.org/2000/svg" viewBox="0 0 100 100"><title>l27_2_1</title><path d="M100,11.58V70A11.57,11.57,0,0,1,88.42,81.55H81.55v6.87A11.57,11.57,0,0,1,70,100H11.58A11.57,11.57,0,0,1,0,88.42V30A11.57,11.57,0,0,1,11.58,18.45h6.87V11.58A11.57,11.57,0,0,1,30,0H88.42A11.57,11.57,0,0,1,100,11.58ZM18.72,79.23q6,0,9.2-4.28t3.17-12.38q0-8-3.19-12.32C25.76,47.39,22.71,46,18.72,46s-7.08,1.42-9.2,4.28-3.17,7-3.17,12.32S7.4,72.1,9.52,75,14.7,79.23,18.72,79.23Zm0-6.4a3.28,3.28,0,0,1-3.17-2.39c-.65-1.59-1-4.22-1-7.87s.32-6.26,1-7.84a3.3,3.3,0,0,1,6.34,0q1,2.4,1,7.82c0,3.65-.32,6.28-1,7.87A3.28,3.28,0,0,1,18.72,72.83Zm20.06,6.26a4.25,4.25,0,0,0,3.15-1.29,4.63,4.63,0,0,0,0-6.35,4.55,4.55,0,0,0-6.35,0,4.6,4.6,0,0,0,0,6.35A4.29,4.29,0,0,0,38.78,79.09ZM68.72,66.9h-1V50.29a3.93,3.93,0,0,0-1.24-3.08,4.34,4.34,0,0,0-3-1.1,4.64,4.64,0,0,0-2,.48A4.23,4.23,0,0,0,59.8,48L46.64,66.76a5.18,5.18,0,0,0-1,3,3.51,3.51,0,0,0,1,2.53,3.45,3.45,0,0,0,2.62,1H59.48V74.9A4.09,4.09,0,0,0,60.6,78a4.14,4.14,0,0,0,3,1.06,4.22,4.22,0,0,0,3-1.06,4,4,0,0,0,1.15-3.13V73.34h1q4,0,4-3.27T68.72,66.9ZM54,66.9l5.53-8v8Z"/></svg>