<svg id="Layer_1" data-name="Layer 1" xmlns="http://www.w3.org/2000/svg" viewBox="0 0 100 100"><title>l27_2_1</title><path d="M100,11.58V70A11.57,11.57,0,0,1,88.42,81.55H81.55v6.87A11.57,11.57,0,0,1,70,100H11.58A11.57,11.57,0,0,1,0,88.42V30A11.57,11.57,0,0,1,11.58,18.45h6.87V11.58A11.57,11.57,0,0,1,30,0H88.42A11.57,11.57,0,0,1,100,11.58ZM18.72,79.23q6,0,9.2-4.28t3.17-12.38q0-8-3.19-12.32A10.77,10.77,0,0,0,18.72,46q-6,0-9.2,4.28T6.34,62.57q0,8.1,3.18,12.38T18.72,79.23Zm0-6.4a3.31,3.31,0,0,1-3.18-2.39c-.64-1.59-1-4.22-1-7.87s.32-6.26,1-7.84a3.31,3.31,0,0,1,6.35,0q1,2.4,1,7.82c0,3.65-.32,6.28-1,7.87A3.29,3.29,0,0,1,18.72,72.83Zm20.05,6.26a4.26,4.26,0,0,0,3.16-1.29,4.63,4.63,0,0,0,0-6.35,4.55,4.55,0,0,0-6.35,0,4.6,4.6,0,0,0,0,6.35A4.28,4.28,0,0,0,38.77,79.09ZM61.59,57.47a8.83,8.83,0,0,0-3.89.85,7.37,7.37,0,0,0-2.83,2.32,12.24,12.24,0,0,1,1.73-6,4.4,4.4,0,0,1,3.79-2.14,6.06,6.06,0,0,1,2.12.37A26.75,26.75,0,0,1,65,54l1,.51c.58.3,1,.53,1.38.66a3,3,0,0,0,1.15.21,2.45,2.45,0,0,0,2-1,3.72,3.72,0,0,0,.8-2.41A3.37,3.37,0,0,0,71,50.34a3.91,3.91,0,0,0-1.13-1.24,14.49,14.49,0,0,0-4.62-2.3A17.64,17.64,0,0,0,60,46,12.45,12.45,0,0,0,52.83,48,13.4,13.4,0,0,0,48.09,54a22.29,22.29,0,0,0-1.68,9q0,7.83,3.54,12t10,4.24a11.86,11.86,0,0,0,5.84-1.43,10.28,10.28,0,0,0,4-4A12.26,12.26,0,0,0,70,62.6a9.54,9.54,0,0,0-3.47-3.78A9.34,9.34,0,0,0,61.59,57.47ZM59.47,72.74a3.69,3.69,0,0,1-2.85-1.22,5.13,5.13,0,0,1,0-6.32,4.08,4.08,0,0,1,5.75,0,4.66,4.66,0,0,1,1,3.2,4.61,4.61,0,0,1-1.05,3.17A3.63,3.63,0,0,1,59.47,72.74Z"/></svg>