<svg id="Layer_1" data-name="Layer 1" xmlns="http://www.w3.org/2000/svg" viewBox="0 0 100 100"><title>l27_2_1</title><path d="M100,11.79V70.18A11.58,11.58,0,0,1,88.42,81.76H81.55v6.87A11.58,11.58,0,0,1,70,100.21H11.58A11.58,11.58,0,0,1,0,88.63V30.24A11.57,11.57,0,0,1,11.58,18.66h6.87V11.79A11.57,11.57,0,0,1,30,.21H88.42A11.57,11.57,0,0,1,100,11.79ZM18.72,79.43q6,0,9.2-4.28t3.17-12.37q0-8.06-3.19-12.33a10.77,10.77,0,0,0-9.18-4.28q-6,0-9.2,4.28T6.35,62.78q0,8.1,3.17,12.37T18.72,79.43Zm0-6.39a3.29,3.29,0,0,1-3.17-2.39q-1-2.4-1-7.87t1-7.84a3.3,3.3,0,0,1,6.34,0c.65,1.6,1,4.2,1,7.82s-.32,6.27-1,7.87A3.29,3.29,0,0,1,18.72,73Zm20.06,6.25A4.25,4.25,0,0,0,41.93,78a4.63,4.63,0,0,0,0-6.35,4.55,4.55,0,0,0-6.35,0,4.6,4.6,0,0,0,0,6.35A4.28,4.28,0,0,0,38.78,79.29Zm25.89-17a7.42,7.42,0,0,0,3.66-2.78,7.67,7.67,0,0,0,1.31-4.44,8.06,8.06,0,0,0-1.4-4.69,9,9,0,0,0-4-3.13,15.23,15.23,0,0,0-6-1.11,18.53,18.53,0,0,0-5.45.83,15.32,15.32,0,0,0-4.67,2.3A3.75,3.75,0,0,0,47,50.54a3.53,3.53,0,0,0-.32,1.61,3.78,3.78,0,0,0,.78,2.42,2.38,2.38,0,0,0,1.93,1,3,3,0,0,0,1.15-.21c.34-.14.8-.36,1.38-.67l1-.46a25.74,25.74,0,0,1,2.5-1.1,6.91,6.91,0,0,1,2.42-.41,4,4,0,0,1,2.81.94,3.45,3.45,0,0,1,1,2.64,2.59,2.59,0,0,1-1.15,2.35,7.07,7.07,0,0,1-3.68.74h-2a2.63,2.63,0,0,0-2.16,1,3.78,3.78,0,0,0,0,4.6,2.61,2.61,0,0,0,2.16,1h2.86a7,7,0,0,1,3.77.78,2.9,2.9,0,0,1,1.15,2.58A3.22,3.22,0,0,1,61.43,72a6.41,6.41,0,0,1-3.7.82,8.39,8.39,0,0,1-2.65-.39,20.44,20.44,0,0,1-2.64-1.12l-.58-.26-.43-.2c-.59-.31-1-.53-1.38-.67A3,3,0,0,0,48.9,70,2.38,2.38,0,0,0,47,71a3.8,3.8,0,0,0-.78,2.42A3.65,3.65,0,0,0,46.5,75a3.7,3.7,0,0,0,1.11,1.27,14.68,14.68,0,0,0,4.78,2.32,20.33,20.33,0,0,0,5.75.81,17.26,17.26,0,0,0,6.51-1.13,9.63,9.63,0,0,0,4.3-3.2,8,8,0,0,0,1.52-4.87,8.14,8.14,0,0,0-1.54-5A7.84,7.84,0,0,0,64.67,62.32Z"/></svg>