<svg id="Layer_1" data-name="Layer 1" xmlns="http://www.w3.org/2000/svg" viewBox="0 0 100 100"><title>l27_5_1</title><path d="M100,11.58V70A11.57,11.57,0,0,1,88.42,81.55H81.55v6.87A11.57,11.57,0,0,1,70,100H11.58A11.57,11.57,0,0,1,0,88.42V30A11.57,11.57,0,0,1,11.58,18.45h6.87V11.58A11.57,11.57,0,0,1,30,0H88.42A11.57,11.57,0,0,1,100,11.58Zm-31.91,20H82.18a6.83,6.83,0,0,0,4.68-1.39,5,5,0,0,0,1.54-3.86,4.83,4.83,0,0,0-1.54-3.82,6.94,6.94,0,0,0-4.68-1.35H68.09q-6.23,0-6.23,5.17T68.09,31.53ZM38.9,35.26a19.36,19.36,0,0,0-9.53,2.33,16.75,16.75,0,0,0-6.56,6.48,18.82,18.82,0,0,0-2.36,9.42,18.88,18.88,0,0,0,2.06,8.88,15.44,15.44,0,0,0,5.66,6.15,15.12,15.12,0,0,0,8.1,2.22,14.37,14.37,0,0,0,6.34-1.39,11.92,11.92,0,0,0,4.62-3.79c-.31,4.2-1.24,7.46-2.82,9.79a7.19,7.19,0,0,1-6.18,3.49,10,10,0,0,1-3.46-.6c-1.1-.4-2.47-1-4.12-1.8L29,75.61c-.95-.5-1.7-.86-2.25-1.09a5,5,0,0,0-1.88-.33,4,4,0,0,0-3.18,1.61,6,6,0,0,0-1.32,3.94,5.43,5.43,0,0,0,.57,2.62,6.42,6.42,0,0,0,1.83,2,24,24,0,0,0,7.54,3.75,29.15,29.15,0,0,0,8.59,1.35,20.29,20.29,0,0,0,11.66-3.38,21.83,21.83,0,0,0,7.73-9.64A36.42,36.42,0,0,0,61,61.81q0-12.75-5.77-19.65T38.9,35.26Zm.83,24.83A5.9,5.9,0,0,1,35,58.17,7.56,7.56,0,0,1,33.35,53a7.51,7.51,0,0,1,1.72-5.17,5.9,5.9,0,0,1,4.66-1.95,6,6,0,0,1,4.64,2A7.37,7.37,0,0,1,46.17,53a7.41,7.41,0,0,1-1.76,5.18A6,6,0,0,1,39.73,60.09Z"/></svg>