<svg id="Layer_1" data-name="Layer 1" xmlns="http://www.w3.org/2000/svg" viewBox="0 0 100 100"><title>l27_6_1</title><path d="M100,11.58V70A11.57,11.57,0,0,1,88.42,81.55H81.55v6.87A11.57,11.57,0,0,1,70,100H11.58A11.57,11.57,0,0,1,0,88.42V30A11.57,11.57,0,0,1,11.58,18.45h6.87V11.58A11.57,11.57,0,0,1,30,0H88.42A11.57,11.57,0,0,1,100,11.58ZM89,34.7l-7.44-7.44,6.84-6.72a4.91,4.91,0,0,0,1.5-3.48,4.49,4.49,0,0,0-1.41-3.27,4.55,4.55,0,0,0-3.33-1.41A4.8,4.8,0,0,0,81.58,14L75.1,20.54,68.68,14a4.6,4.6,0,0,0-3.54-1.68,4.51,4.51,0,0,0-3.33,1.44,4.65,4.65,0,0,0-1.41,3.36,4.71,4.71,0,0,0,1.5,3.42l6.84,6.72L61.3,34.7a4.71,4.71,0,0,0-1.5,3.42,4.54,4.54,0,0,0,1.44,3.3,4.61,4.61,0,0,0,3.36,1.44,4.8,4.8,0,0,0,3.54-1.62l7-7.32,7,7.32a4.8,4.8,0,0,0,3.54,1.62A4.61,4.61,0,0,0,89,41.42a4.54,4.54,0,0,0,1.44-3.3A4.71,4.71,0,0,0,89,34.7ZM39.45,54.24A18.78,18.78,0,0,0,32,55.59V46.36h16.2q6.53,0,6.53-5.25t-6.53-5.17H25a6.38,6.38,0,0,0-4.72,1.65,6.5,6.5,0,0,0-1.65,4.8V62.71A4.09,4.09,0,0,0,20,66a5.18,5.18,0,0,0,3.53,1.24,7.14,7.14,0,0,0,3.37-.82A26.47,26.47,0,0,1,31.24,65a20.37,20.37,0,0,1,4.08-.38,8.48,8.48,0,0,1,5.85,1.88,6.67,6.67,0,0,1,2.1,5.25q0,3.6-2,5.28T35,78.76a12.43,12.43,0,0,1-4.16-.67,42.29,42.29,0,0,1-4.24-1.8l-1.5-.75a23.16,23.16,0,0,0-2.25-1.13,5.05,5.05,0,0,0-1.87-.3,3.89,3.89,0,0,0-3.15,1.61,6.17,6.17,0,0,0-1.28,3.94,5.5,5.5,0,0,0,.57,2.59,6.51,6.51,0,0,0,1.76,2.06,24.72,24.72,0,0,0,7.69,3.75,31.26,31.26,0,0,0,9.11,1.35,24.32,24.32,0,0,0,10.72-2.25,16.87,16.87,0,0,0,7.2-6.37,17.76,17.76,0,0,0,2.55-9.53A18.13,18.13,0,0,0,54,62.37a15.34,15.34,0,0,0-5.93-6A17.34,17.34,0,0,0,39.45,54.24Z"/></svg>