<svg id="Layer_1" data-name="Layer 1" xmlns="http://www.w3.org/2000/svg" viewBox="0 0 100 100"><title>l27_4_1</title><path d="M100,11.58V70A11.57,11.57,0,0,1,88.42,81.55H81.55v6.87A11.57,11.57,0,0,1,70,100H11.58A11.57,11.57,0,0,1,0,88.42V30A11.57,11.57,0,0,1,11.58,18.45h6.87V11.58A11.57,11.57,0,0,1,30,0H88.42A11.57,11.57,0,0,1,100,11.58ZM89,20.43H79.55V11a4.42,4.42,0,1,0-8.84,0v9.44H61.27a4.35,4.35,0,0,0-4.42,4.42A4.4,4.4,0,0,0,58.12,28a4.2,4.2,0,0,0,3.15,1.31h9.44v9.37a4.48,4.48,0,0,0,7.61,3.15,4.36,4.36,0,0,0,1.23-3.15V29.35H89A4.2,4.2,0,0,0,92.15,28a4.4,4.4,0,0,0,1.27-3.19A4.35,4.35,0,0,0,89,20.43ZM32.91,73.78H28.4V47.71a4.76,4.76,0,0,0-1.35-3.57,4.86,4.86,0,0,0-3.55-1.32,9.33,9.33,0,0,0-4.56,1.37l-8.8,5.12a3.72,3.72,0,0,0-1.93,3.41,4.61,4.61,0,0,0,1.1,3A3.32,3.32,0,0,0,12,57.06a3.75,3.75,0,0,0,1.93-.55l4.4-2.58V73.78H13.82a5.5,5.5,0,0,0-3.63,1,3.69,3.69,0,0,0-1.15,3c0,2.72,1.59,4.07,4.78,4.07H32.91c3.19,0,4.78-1.35,4.78-4.07a3.69,3.69,0,0,0-1.15-3A5.5,5.5,0,0,0,32.91,73.78Zm31.57,0H53.42l7.81-8a25.49,25.49,0,0,0,4.59-6.19,13.84,13.84,0,0,0,1.35-6.13,10.07,10.07,0,0,0-1.68-5.75,10.69,10.69,0,0,0-4.75-3.85,17.71,17.71,0,0,0-7.15-1.35,22.37,22.37,0,0,0-12.16,3.74,3.58,3.58,0,0,0-1.34,1.43,5.3,5.3,0,0,0,.57,4.92A2.81,2.81,0,0,0,43,53.87,3.3,3.3,0,0,0,44,53.71a6.45,6.45,0,0,0,1.12-.53c.43-.23.71-.39.86-.46l1.1-.55a26.15,26.15,0,0,1,3.1-1.35,9,9,0,0,1,2.95-.47,4.34,4.34,0,0,1,3.05,1,3.69,3.69,0,0,1,1.07,2.86q0,3.19-3.63,7L42,73.34a6.07,6.07,0,0,0-1.87,4.29,4,4,0,0,0,4.29,4.18H64.48a5.52,5.52,0,0,0,3.6-1,3.78,3.78,0,0,0,1.18-3.08,3.66,3.66,0,0,0-1.18-3A5.65,5.65,0,0,0,64.48,73.78Z"/></svg>