<svg id="Layer_1" data-name="Layer 1" xmlns="http://www.w3.org/2000/svg" viewBox="0 0 150 100"><title>s27_6</title><path d="M131.41,100H18.59A18.59,18.59,0,0,1,0,81.41V18.59A18.59,18.59,0,0,1,18.59,0H131.41A18.59,18.59,0,0,1,150,18.59V81.41A18.59,18.59,0,0,1,131.41,100ZM112.07,68.75l-19-19,17.49-17.19a12.57,12.57,0,0,0,3.83-8.9,11.49,11.49,0,0,0-3.6-8.36,11.66,11.66,0,0,0-8.52-3.6,12.28,12.28,0,0,0-9,4.14L76.63,32.54,60.22,15.82a11.81,11.81,0,0,0-9.06-4.3,11.5,11.5,0,0,0-8.51,3.69A11.85,11.85,0,0,0,39,23.8a12,12,0,0,0,3.84,8.74L60.37,49.73l-19,19a12,12,0,0,0-3.84,8.74,11.61,11.61,0,0,0,3.68,8.44,11.77,11.77,0,0,0,8.59,3.69,12.31,12.31,0,0,0,9.06-4.15L76.63,66.75l18,18.72a12.29,12.29,0,0,0,9,4.15,11.78,11.78,0,0,0,8.6-3.69,11.61,11.61,0,0,0,3.68-8.44A12,12,0,0,0,112.07,68.75Z"/></svg>