<svg id="Layer_1" data-name="Layer 1" xmlns="http://www.w3.org/2000/svg" viewBox="0 0 150 100"><title>s27_1</title><path d="M132.16,100H19.34A18.59,18.59,0,0,1,.75,81.41V18.59A18.59,18.59,0,0,1,19.34,0H132.16a18.59,18.59,0,0,1,18.59,18.59V81.41A18.59,18.59,0,0,1,132.16,100ZM44.36,77.75q9.44,0,14.4-6.7t5-19.37q0-12.6-5-19.29t-14.36-6.7q-9.44,0-14.4,6.7T25,51.68q0,12.68,5,19.37T44.36,77.75Zm0-10q-3.45,0-5-3.75T37.88,51.68q0-8.57,1.51-12.27c1-2.48,2.67-3.71,5-3.71s4,1.25,5,3.74S50.84,46,50.84,51.68,50.34,61.5,49.33,64,46.66,67.74,44.36,67.74Zm31.39,9.79a6.61,6.61,0,0,0,4.93-2,7.22,7.22,0,0,0,0-9.93,6.61,6.61,0,0,0-4.93-2,6.7,6.7,0,0,0-5,2,7.22,7.22,0,0,0,0,9.93A6.7,6.7,0,0,0,75.75,77.53Zm34.92-33.62a18.08,18.08,0,0,0-7.13,1.29V36.35h15.55q6.27,0,6.27-5c0-3.32-2.09-5-6.27-5H96.78a6.16,6.16,0,0,0-4.54,1.58,6.23,6.23,0,0,0-1.58,4.61V52A3.93,3.93,0,0,0,92,55.17a4.94,4.94,0,0,0,3.39,1.19,6.87,6.87,0,0,0,3.24-.79,25.72,25.72,0,0,1,4.14-1.3,19.6,19.6,0,0,1,3.92-.36,8.16,8.16,0,0,1,5.62,1.8,6.42,6.42,0,0,1,2,5c0,2.31-.64,4-1.94,5.08s-3.29,1.62-6,1.62a11.93,11.93,0,0,1-4-.65,39.36,39.36,0,0,1-4.07-1.73l-1.44-.72q-1.44-.78-2.16-1.08A4.93,4.93,0,0,0,93,63a3.73,3.73,0,0,0-3,1.54,6,6,0,0,0-1.22,3.78,5.38,5.38,0,0,0,.54,2.49,6.48,6.48,0,0,0,1.69,2,24.18,24.18,0,0,0,7.38,3.6,30.19,30.19,0,0,0,8.75,1.29,23.39,23.39,0,0,0,10.3-2.16,16.23,16.23,0,0,0,6.91-6.12,17,17,0,0,0,2.45-9.14,17.29,17.29,0,0,0-2.06-8.53A14.57,14.57,0,0,0,119,46,16.63,16.63,0,0,0,110.67,43.91Z"/></svg>