<svg id="Layer_1" data-name="Layer 1" xmlns="http://www.w3.org/2000/svg" viewBox="0 0 150 100"><title>s27_1</title><path d="M131.41,100H18.59A18.59,18.59,0,0,1,0,81.41V18.59A18.59,18.59,0,0,1,18.59,0H131.41A18.59,18.59,0,0,1,150,18.59V81.41A18.59,18.59,0,0,1,131.41,100ZM56.1,66.59H50.2V32.46a6.23,6.23,0,0,0-1.77-4.68,6.34,6.34,0,0,0-4.64-1.73,12.21,12.21,0,0,0-6,1.8l-11.52,6.7A4.87,4.87,0,0,0,23.77,39a6,6,0,0,0,1.44,3.92,4.32,4.32,0,0,0,3.46,1.77A4.93,4.93,0,0,0,31.19,44L37,40.59v26H31.12a7.26,7.26,0,0,0-4.76,1.29,4.87,4.87,0,0,0-1.51,3.89q0,5.33,6.27,5.33h25c4.18,0,6.26-1.78,6.26-5.33a4.84,4.84,0,0,0-1.51-3.89A7.21,7.21,0,0,0,56.1,66.59ZM71.51,79.4,87.85,28.07a8.18,8.18,0,0,0,.29-1.59,4.2,4.2,0,0,0-1.55-3.38A5.36,5.36,0,0,0,83,21.8a4.76,4.76,0,0,0-2.77.87,4.86,4.86,0,0,0-1.84,2.59L62.08,76.59a4.87,4.87,0,0,0-.29,1.66,4.16,4.16,0,0,0,1.51,3.31,5.23,5.23,0,0,0,3.53,1.3,4.77,4.77,0,0,0,4.68-3.46Zm41.18-35.49a18.12,18.12,0,0,0-7.13,1.29V36.35h15.56q6.25,0,6.26-5c0-3.32-2.09-5-6.26-5H98.8a6.17,6.17,0,0,0-4.54,1.58,6.23,6.23,0,0,0-1.58,4.61V52a3.91,3.91,0,0,0,1.37,3.13,4.92,4.92,0,0,0,3.38,1.19,6.87,6.87,0,0,0,3.24-.79,25.72,25.72,0,0,1,4.14-1.3,19.6,19.6,0,0,1,3.92-.36,8.16,8.16,0,0,1,5.62,1.8,6.42,6.42,0,0,1,2,5c0,2.31-.64,4-1.94,5.08s-3.29,1.62-6,1.62a12,12,0,0,1-4-.65,39.36,39.36,0,0,1-4.07-1.73l-1.44-.72q-1.44-.78-2.16-1.08A4.93,4.93,0,0,0,95,63a3.7,3.7,0,0,0-3,1.54,5.92,5.92,0,0,0-1.23,3.78,5.38,5.38,0,0,0,.54,2.49,6.52,6.52,0,0,0,1.7,2,24,24,0,0,0,7.38,3.6,30.13,30.13,0,0,0,8.74,1.29,23.39,23.39,0,0,0,10.3-2.16,16.23,16.23,0,0,0,6.91-6.12,17,17,0,0,0,2.45-9.14,17.39,17.39,0,0,0-2-8.53A14.66,14.66,0,0,0,121,46,16.63,16.63,0,0,0,112.69,43.91Z"/></svg>