<svg id="Layer_1" data-name="Layer 1" xmlns="http://www.w3.org/2000/svg" viewBox="0 0 150 100"><title>s27_1</title><path d="M131.41,100H18.59A18.59,18.59,0,0,1,0,81.41V18.59A18.59,18.59,0,0,1,18.59,0H131.41A18.59,18.59,0,0,1,150,18.59V81.41A18.59,18.59,0,0,1,131.41,100ZM47,66.59H41.12V32.46a6.23,6.23,0,0,0-1.76-4.68,6.36,6.36,0,0,0-4.64-1.73,12.16,12.16,0,0,0-6,1.8l-11.52,6.7A4.87,4.87,0,0,0,14.7,39a6,6,0,0,0,1.44,3.92A4.32,4.32,0,0,0,19.6,44.7,4.93,4.93,0,0,0,22.12,44l5.76-3.39v26H22a7.23,7.23,0,0,0-4.75,1.29,4.84,4.84,0,0,0-1.51,3.89q0,5.33,6.26,5.33H47q6.26,0,6.26-5.33a4.84,4.84,0,0,0-1.51-3.89A7.23,7.23,0,0,0,47,66.59Zm41.33,0H73.88L84.11,56.15a34,34,0,0,0,6-8.1,18.11,18.11,0,0,0,1.76-8,13.26,13.26,0,0,0-2.19-7.53,14.13,14.13,0,0,0-6.23-5,23.29,23.29,0,0,0-9.36-1.76,29.32,29.32,0,0,0-15.91,4.9,4.77,4.77,0,0,0-1.77,1.87A6.19,6.19,0,0,0,56,35.05a6.17,6.17,0,0,0,1.22,3.85,3.67,3.67,0,0,0,3,1.62,4.41,4.41,0,0,0,1.37-.21,9.38,9.38,0,0,0,1.48-.69L64.16,39l1.44-.72a33.81,33.81,0,0,1,4.07-1.76,11.64,11.64,0,0,1,3.85-.62,5.71,5.71,0,0,1,4,1.3A4.81,4.81,0,0,1,78.92,41q0,4.19-4.75,9.15L58.91,66a7.89,7.89,0,0,0-2.45,5.62A5.37,5.37,0,0,0,58,75.55a5.5,5.5,0,0,0,4.11,1.55H88.36a7.18,7.18,0,0,0,4.71-1.3,5,5,0,0,0,1.55-4,4.76,4.76,0,0,0-1.55-3.92A7.36,7.36,0,0,0,88.36,66.59Zm39-15.63a11.61,11.61,0,0,0,5.72-4.35,12,12,0,0,0,2.06-7,12.63,12.63,0,0,0-2.2-7.35,14.05,14.05,0,0,0-6.26-4.89,24,24,0,0,0-9.4-1.73,28.67,28.67,0,0,0-8.53,1.3,23.66,23.66,0,0,0-7.31,3.6,5.79,5.79,0,0,0-1.73,1.94,5.68,5.68,0,0,0-.5,2.52,5.93,5.93,0,0,0,1.22,3.78,3.74,3.74,0,0,0,3,1.55,4.66,4.66,0,0,0,1.8-.33c.52-.21,1.24-.56,2.16-1l1.51-.72a39,39,0,0,1,3.92-1.73,11,11,0,0,1,3.78-.65A6.2,6.2,0,0,1,121,37.39a5.36,5.36,0,0,1,1.59,4.14,4,4,0,0,1-1.8,3.67q-1.8,1.15-5.76,1.15H111.9a4.1,4.1,0,0,0-3.38,1.52,5.88,5.88,0,0,0,0,7.2,4.12,4.12,0,0,0,3.38,1.51h4.46q4.11,0,5.91,1.22a4.52,4.52,0,0,1,1.8,4q0,3-1.77,4.32t-5.79,1.3a13,13,0,0,1-4.14-.61,31.6,31.6,0,0,1-4.14-1.77l-.9-.39-.69-.33c-.91-.48-1.63-.82-2.16-1a4.59,4.59,0,0,0-1.8-.32,3.72,3.72,0,0,0-3,1.54,5.91,5.91,0,0,0-1.22,3.78,5.65,5.65,0,0,0,.5,2.49,5.79,5.79,0,0,0,1.73,2,23.21,23.21,0,0,0,7.49,3.63,32,32,0,0,0,9,1.26,26.92,26.92,0,0,0,10.18-1.76,15.19,15.19,0,0,0,6.74-5,12.6,12.6,0,0,0,2.37-7.64A12.74,12.74,0,0,0,134,55.43,12.29,12.29,0,0,0,127.38,51Z"/></svg>