<svg id="Layer_1" data-name="Layer 1" xmlns="http://www.w3.org/2000/svg" viewBox="0 0 200 150"><title>g3</title><path d="M192,77H142.78V61.57A5.57,5.57,0,0,0,137.21,56h-2.33a5.57,5.57,0,0,0-5.57,5.57V77H106.73V61.57A5.56,5.56,0,0,0,101.17,56H98.83a5.56,5.56,0,0,0-5.56,5.57V77H73.18V61.57A5.57,5.57,0,0,0,67.61,56H65.27a5.56,5.56,0,0,0-5.56,5.57V77H8a8,8,0,0,0-8,8v3.37a8,8,0,0,0,8,8h15.4v24.58A5.56,5.56,0,0,0,29,126.61h2.33a5.56,5.56,0,0,0,5.57-5.56V96.47h22.8v15.44a5.56,5.56,0,0,0,5.56,5.56h2.34a5.57,5.57,0,0,0,5.57-5.56V96.47H93.27v15.44a5.56,5.56,0,0,0,5.56,5.56h2.34a5.56,5.56,0,0,0,5.56-5.56V96.47h22.58v15.44a5.56,5.56,0,0,0,5.57,5.56h2.33a5.56,5.56,0,0,0,5.57-5.56V96.47h24.58v24.58a5.56,5.56,0,0,0,5.56,5.56h2.34a5.56,5.56,0,0,0,5.56-5.56V96.47H192a8,8,0,0,0,8-8V85.05A8,8,0,0,0,192,77Z"/><path d="M45.92,60.34a4.38,4.38,0,0,1,1.37,3.52q0,4.85-5.69,4.84H18.94q-5.69,0-5.68-4.84a4.35,4.35,0,0,1,1.37-3.52,6.49,6.49,0,0,1,4.31-1.18h5.29V35.58L19,38.65a4.39,4.39,0,0,1-2.28.65,3.93,3.93,0,0,1-3.14-1.6,5.47,5.47,0,0,1-1.3-3.56,4.45,4.45,0,0,1,2.28-4.05L25,24a11.06,11.06,0,0,1,5.43-1.63A5.78,5.78,0,0,1,34.65,24a5.71,5.71,0,0,1,1.6,4.25v31H41.6A6.54,6.54,0,0,1,45.92,60.34Z"/><path d="M182.42,38.71a13.28,13.28,0,0,1,5.16,5.22,15.72,15.72,0,0,1,1.86,7.74,15.47,15.47,0,0,1-2.22,8.3A14.75,14.75,0,0,1,181,65.52a21.31,21.31,0,0,1-9.34,2,27.08,27.08,0,0,1-7.94-1.18A21.5,21.5,0,0,1,157,63a5.88,5.88,0,0,1-1.54-1.8A4.79,4.79,0,0,1,155,59a5.35,5.35,0,0,1,1.11-3.43,3.38,3.38,0,0,1,2.74-1.41,4.55,4.55,0,0,1,1.64.26c.43.18,1.08.51,2,1l1.3.66a39.28,39.28,0,0,0,3.69,1.57,10.88,10.88,0,0,0,3.63.58c2.44,0,4.24-.49,5.42-1.47a5.63,5.63,0,0,0,1.76-4.6,5.81,5.81,0,0,0-1.83-4.57,7.36,7.36,0,0,0-5.09-1.64,17.67,17.67,0,0,0-3.56.33A23.06,23.06,0,0,0,164,47.43a6.2,6.2,0,0,1-2.94.71A4.48,4.48,0,0,1,158,47.07a3.59,3.59,0,0,1-1.25-2.84V26.52a5.67,5.67,0,0,1,1.44-4.18,5.61,5.61,0,0,1,4.12-1.43h20.24q5.69,0,5.69,4.5T182.51,30h-14.1v8a16.34,16.34,0,0,1,6.46-1.18A15.12,15.12,0,0,1,182.42,38.71Z"/></svg>