<svg id="Layer_1" data-name="Layer 1" xmlns="http://www.w3.org/2000/svg" viewBox="0 0 100 100"><title>l3_1_1</title><path d="M34.13,55.77a3.56,3.56,0,0,1,1.11,2.86q0,3.91-4.6,3.91H12.28q-4.6,0-4.61-3.91a3.56,3.56,0,0,1,1.11-2.86,5.3,5.3,0,0,1,3.5-1h4.28V35.71L12.33,38.2a3.64,3.64,0,0,1-1.85.53,3.16,3.16,0,0,1-2.54-1.3,4.41,4.41,0,0,1-1.06-2.88,3.59,3.59,0,0,1,1.85-3.28l8.47-4.92A8.88,8.88,0,0,1,21.59,25,4.68,4.68,0,0,1,25,26.29a4.59,4.59,0,0,1,1.3,3.44V54.82h4.34A5.26,5.26,0,0,1,34.13,55.77Z"/><path d="M67.59,57.92Q63.94,53,63.94,43.68T67.59,29.5q3.66-4.92,10.59-4.92T88.74,29.5q3.67,4.92,3.67,14.18T88.76,57.92q-3.65,4.92-10.58,4.92T67.59,57.92Zm14.24-5.19q1.11-2.74,1.11-9t-1.11-9a3.8,3.8,0,0,0-7.3,0q-1.11,2.72-1.11,9t1.11,9a3.8,3.8,0,0,0,7.3,0Z"/><path d="M92.19,68.47h-36V54.63a6.67,6.67,0,0,0-13.33,0V68.47H7.81A7.81,7.81,0,0,0,0,76.28H0a7.81,7.81,0,0,0,7.81,7.81H92.19A7.81,7.81,0,0,0,100,76.28h0A7.81,7.81,0,0,0,92.19,68.47Z"/></svg>