<svg id="Layer_1" data-name="Layer 1" xmlns="http://www.w3.org/2000/svg" viewBox="0 0 100 100"><title>l3_1_1</title><path d="M34.05,26.37a4.13,4.13,0,0,1,1,2.89,6.76,6.76,0,0,1-1,3.49L18,60.53a4.8,4.8,0,0,1-1.83,1.88A4.48,4.48,0,0,1,14,63a4.91,4.91,0,0,1-3.28-1.24,3.91,3.91,0,0,1-1.43-3.05A5,5,0,0,1,10,56.19L23.6,33H10.37a5.29,5.29,0,0,1-3.52-1,3.59,3.59,0,0,1-1.09-2.86,3.74,3.74,0,0,1,1.11-2.94,5.22,5.22,0,0,1,3.5-1H31.11A3.77,3.77,0,0,1,34.05,26.37Z"/><path d="M91.81,26.19a4.16,4.16,0,0,1,1,2.88,6.79,6.79,0,0,1-1,3.5l-16,27.78A5,5,0,0,1,74,62.23a4.58,4.58,0,0,1-2.25.61,4.86,4.86,0,0,1-3.28-1.25,3.87,3.87,0,0,1-1.43-3A5,5,0,0,1,67.75,56l13.6-23.23H68.12a5.33,5.33,0,0,1-3.52-1A3.62,3.62,0,0,1,63.52,29,3.71,3.71,0,0,1,64.63,26a5.21,5.21,0,0,1,3.49-1H88.87A3.77,3.77,0,0,1,91.81,26.19Z"/><path d="M92.19,68.47h-36V54.63a6.67,6.67,0,0,0-13.33,0V68.47H7.81A7.81,7.81,0,0,0,0,76.28H0a7.81,7.81,0,0,0,7.81,7.81H92.19A7.81,7.81,0,0,0,100,76.28h0A7.81,7.81,0,0,0,92.19,68.47Z"/></svg>