<svg id="Layer_1" data-name="Layer 1" xmlns="http://www.w3.org/2000/svg" viewBox="0 0 100 100"><title>l3_1_1</title><path d="M33.05,26.37a4.13,4.13,0,0,1,1,2.89,6.76,6.76,0,0,1-1,3.49L17,60.53a4.8,4.8,0,0,1-1.83,1.88A4.47,4.47,0,0,1,13,63a4.92,4.92,0,0,1-3.29-1.24,3.9,3.9,0,0,1-1.42-3.05A5,5,0,0,1,9,56.19L22.6,33H9.37a5.29,5.29,0,0,1-3.52-1,3.59,3.59,0,0,1-1.09-2.86,3.74,3.74,0,0,1,1.11-2.94,5.22,5.22,0,0,1,3.5-1H30.11A3.77,3.77,0,0,1,33.05,26.37Z"/><path d="M91.17,46.41a9.2,9.2,0,0,1,1.72,5.68A9.11,9.11,0,0,1,89,60Q85,62.79,78.18,62.78T67.41,60a9.11,9.11,0,0,1-3.94-7.86,9.33,9.33,0,0,1,1.74-5.79,8.85,8.85,0,0,1,5-3.15A8.69,8.69,0,0,1,66,39.9a9.09,9.09,0,0,1-1.48-5.16,8.75,8.75,0,0,1,3.71-7.44q3.7-2.73,10-2.72t10,2.72a8.78,8.78,0,0,1,3.68,7.44A9.24,9.24,0,0,1,90.38,40a8,8,0,0,1-4.16,3.12A9.22,9.22,0,0,1,91.17,46.41ZM84,51.3c0-2.75-1.93-4.13-5.77-4.13s-5.77,1.38-5.77,4.13,1.92,4.13,5.77,4.13S84,54.05,84,51.3ZM74.63,32.86a3.61,3.61,0,0,0-1.16,3,3.68,3.68,0,0,0,1.16,3,5.51,5.51,0,0,0,3.55,1,5.46,5.46,0,0,0,3.54-1,3.65,3.65,0,0,0,1.17-3,3.58,3.58,0,0,0-1.17-3,5.59,5.59,0,0,0-3.54-.93A5.64,5.64,0,0,0,74.63,32.86Z"/><path d="M92.19,68.47h-36V54.63a6.67,6.67,0,0,0-13.33,0V68.47H7.81A7.81,7.81,0,0,0,0,76.28H0a7.81,7.81,0,0,0,7.81,7.81H92.19A7.81,7.81,0,0,0,100,76.28h0A7.81,7.81,0,0,0,92.19,68.47Z"/></svg>