<svg id="Layer_1" data-name="Layer 1" xmlns="http://www.w3.org/2000/svg" viewBox="0 0 100 100"><title>l3_1_1</title><path d="M32.41,46.59a9.2,9.2,0,0,1,1.72,5.69,9.14,9.14,0,0,1-3.94,7.86Q26.24,63,19.42,63T8.65,60.14a9.14,9.14,0,0,1-3.94-7.86,9.3,9.3,0,0,1,1.75-5.8,8.85,8.85,0,0,1,5-3.15A8.67,8.67,0,0,1,7.2,40.08a9,9,0,0,1-1.48-5.16,8.75,8.75,0,0,1,3.7-7.44q3.71-2.71,10-2.72t10,2.72a8.78,8.78,0,0,1,3.68,7.44,9.15,9.15,0,0,1-1.51,5.29,8,8,0,0,1-4.15,3.12A9.16,9.16,0,0,1,32.41,46.59Zm-7.22,4.89q0-4.12-5.77-4.13c-3.84,0-5.77,1.38-5.77,4.13s1.93,4.13,5.77,4.13S25.19,54.23,25.19,51.48ZM15.88,33a3.58,3.58,0,0,0-1.17,3,3.67,3.67,0,0,0,1.17,3,5.52,5.52,0,0,0,3.54,1,5.57,5.57,0,0,0,3.55-1,3.7,3.7,0,0,0,1.16-3A3.61,3.61,0,0,0,23,33a5.64,5.64,0,0,0-3.55-.93A5.59,5.59,0,0,0,15.88,33Z"/><path d="M67.59,57.92Q63.94,53,63.94,43.68T67.59,29.5q3.66-4.92,10.59-4.92T88.74,29.5q3.67,4.92,3.67,14.18T88.76,57.92q-3.65,4.92-10.58,4.92T67.59,57.92Zm14.24-5.19q1.11-2.74,1.11-9t-1.11-9a3.8,3.8,0,0,0-7.3,0q-1.11,2.72-1.11,9t1.11,9a3.8,3.8,0,0,0,7.3,0Z"/><path d="M92.19,68.47h-36V54.63a6.67,6.67,0,0,0-13.33,0V68.47H7.81A7.81,7.81,0,0,0,0,76.28H0a7.81,7.81,0,0,0,7.81,7.81H92.19A7.81,7.81,0,0,0,100,76.28h0A7.81,7.81,0,0,0,92.19,68.47Z"/></svg>