<svg id="Layer_1" data-name="Layer 1" xmlns="http://www.w3.org/2000/svg" viewBox="0 0 100 100"><title>l3_1_1</title><path d="M35.4,52.49c0,2.5-1.53,3.76-4.6,3.76H29.64v1.8a4.65,4.65,0,0,1-1.33,3.59,4.84,4.84,0,0,1-3.44,1.22,4.74,4.74,0,0,1-3.41-1.22,4.67,4.67,0,0,1-1.3-3.59v-1.8H8.36a4,4,0,0,1-3-1.17,4,4,0,0,1-1.11-2.91A5.9,5.9,0,0,1,5.4,48.68L20.53,27.09a4.88,4.88,0,0,1,1.88-1.62,5.3,5.3,0,0,1,2.36-.55,5,5,0,0,1,3.44,1.27,4.49,4.49,0,0,1,1.43,3.54V48.84H30.8C33.87,48.84,35.4,50.05,35.4,52.49ZM20.16,48.84V39.68l-6.35,9.16Z"/><path d="M67.59,57.92Q63.94,53,63.94,43.68T67.59,29.5q3.66-4.92,10.59-4.92T88.74,29.5q3.67,4.92,3.67,14.18T88.76,57.92q-3.65,4.92-10.58,4.92T67.59,57.92Zm14.24-5.19q1.11-2.74,1.11-9t-1.11-9a3.8,3.8,0,0,0-7.3,0q-1.11,2.72-1.11,9t1.11,9a3.8,3.8,0,0,0,7.3,0Z"/><path d="M92.19,68.47h-36V54.63a6.67,6.67,0,0,0-13.33,0V68.47H7.81A7.81,7.81,0,0,0,0,76.28H0a7.81,7.81,0,0,0,7.81,7.81H92.19A7.81,7.81,0,0,0,100,76.28h0A7.81,7.81,0,0,0,92.19,68.47Z"/></svg>