<svg id="Layer_1" data-name="Layer 1" xmlns="http://www.w3.org/2000/svg" viewBox="0 0 100 100"><title>l3_1_1</title><path d="M28.13,39.66a10.7,10.7,0,0,1,4.18,4.23,12.81,12.81,0,0,1,1.51,6.27A12.51,12.51,0,0,1,32,56.88a12,12,0,0,1-5.08,4.5A17.16,17.16,0,0,1,19.37,63a21.92,21.92,0,0,1-6.43-1,17.39,17.39,0,0,1-5.43-2.64,4.72,4.72,0,0,1-1.24-1.46,4,4,0,0,1-.4-1.82,4.33,4.33,0,0,1,.9-2.78A2.74,2.74,0,0,1,9,52.17a3.62,3.62,0,0,1,1.32.21,16.6,16.6,0,0,1,1.59.8l1.05.53c1.1.52,2.09.95,3,1.27a9,9,0,0,0,2.94.47,6.77,6.77,0,0,0,4.39-1.19,4.56,4.56,0,0,0,1.43-3.73,4.68,4.68,0,0,0-1.48-3.7A6,6,0,0,0,19.1,45.5a14.17,14.17,0,0,0-2.88.27,17.67,17.67,0,0,0-3,.95,5.05,5.05,0,0,1-2.39.58,3.66,3.66,0,0,1-2.48-.87,2.9,2.9,0,0,1-1-2.3V29.79A4.56,4.56,0,0,1,8.47,26.4a4.47,4.47,0,0,1,3.33-1.17H28.21q4.6,0,4.6,3.66t-4.6,3.7H16.77V39.1a13.18,13.18,0,0,1,5.24-1A12.21,12.21,0,0,1,28.13,39.66Z"/><path d="M87.07,39.37a10.88,10.88,0,0,1,4,4.34,14.11,14.11,0,0,1-.21,12.91,11.79,11.79,0,0,1-4.63,4.58,13.65,13.65,0,0,1-6.72,1.64Q72,62.84,68,58T63.89,44.1a25.58,25.58,0,0,1,1.93-10.34A15.4,15.4,0,0,1,71.27,27a14.32,14.32,0,0,1,8.23-2.38,20.34,20.34,0,0,1,6.06,1,17,17,0,0,1,5.32,2.64,4.73,4.73,0,0,1,1.3,1.43,4,4,0,0,1,.39,1.86,4.26,4.26,0,0,1-.92,2.77,2.81,2.81,0,0,1-2.25,1.14,3.47,3.47,0,0,1-1.33-.24c-.38-.16-.91-.41-1.58-.76l-1.17-.59c-1.16-.56-2.13-1-2.91-1.27A7.1,7.1,0,0,0,80,32.09a5.07,5.07,0,0,0-4.37,2.46,14.06,14.06,0,0,0-2,6.91,8.43,8.43,0,0,1,3.25-2.68,10.23,10.23,0,0,1,4.47-1A10.7,10.7,0,0,1,87.07,39.37ZM82.2,54a5.31,5.31,0,0,0,1.22-3.65,5.39,5.39,0,0,0-1.19-3.68,4.7,4.7,0,0,0-6.62,0,5.89,5.89,0,0,0,0,7.27,4.2,4.2,0,0,0,3.28,1.41A4.14,4.14,0,0,0,82.2,54Z"/><path d="M92.19,68.47h-36V54.63a6.67,6.67,0,0,0-13.33,0V68.47H7.81A7.81,7.81,0,0,0,0,76.28H0a7.81,7.81,0,0,0,7.81,7.81H92.19A7.81,7.81,0,0,0,100,76.28h0A7.81,7.81,0,0,0,92.19,68.47Z"/></svg>