<svg id="Layer_1" data-name="Layer 1" xmlns="http://www.w3.org/2000/svg" viewBox="0 0 100 100"><title>l3_1_1</title><path d="M8.84,58.1Q5.18,53.18,5.19,43.86T8.84,29.68q3.64-4.92,10.58-4.92T30,29.68q3.68,4.92,3.68,14.18T30,58.1Q26.35,63,19.42,63T8.84,58.1Zm14.23-5.19q1.11-2.74,1.11-9t-1.11-9a3.8,3.8,0,0,0-7.3,0c-.74,1.82-1.11,4.82-1.11,9s.37,7.22,1.11,9a3.8,3.8,0,0,0,7.3,0Z"/><path d="M92.89,55.59A3.56,3.56,0,0,1,94,58.45q0,3.91-4.6,3.91H71c-3.06,0-4.6-1.3-4.6-3.91a3.56,3.56,0,0,1,1.11-2.86,5.27,5.27,0,0,1,3.49-1h4.29V35.53L71.09,38a3.64,3.64,0,0,1-1.85.53,3.16,3.16,0,0,1-2.54-1.3,4.43,4.43,0,0,1-1.06-2.88,3.6,3.6,0,0,1,1.85-3.29L76,26.16a8.93,8.93,0,0,1,4.39-1.32,4.64,4.64,0,0,1,3.41,1.27,4.58,4.58,0,0,1,1.3,3.44V54.63H89.4A5.25,5.25,0,0,1,92.89,55.59Z"/><path d="M92.19,68.47h-36V54.63a6.67,6.67,0,0,0-13.33,0V68.47H7.81A7.81,7.81,0,0,0,0,76.28H0a7.81,7.81,0,0,0,7.81,7.81H92.19A7.81,7.81,0,0,0,100,76.28h0A7.81,7.81,0,0,0,92.19,68.47Z"/></svg>