<svg id="Layer_1" data-name="Layer 1" xmlns="http://www.w3.org/2000/svg" viewBox="0 0 100 100"><title>l3_1_1</title><path d="M28.31,39.55a10.9,10.9,0,0,1,4,4.34A14.19,14.19,0,0,1,32.1,56.8a11.85,11.85,0,0,1-4.63,4.58A13.71,13.71,0,0,1,20.74,63q-7.45,0-11.53-4.87c-2.72-3.24-4.08-7.87-4.08-13.86A25.8,25.8,0,0,1,7.06,33.94a15.45,15.45,0,0,1,5.45-6.8,14.32,14.32,0,0,1,8.23-2.38,20.67,20.67,0,0,1,6.06.95,16.89,16.89,0,0,1,5.32,2.65,4.62,4.62,0,0,1,1.3,1.43,3.93,3.93,0,0,1,.4,1.85,4.26,4.26,0,0,1-.93,2.78,2.8,2.8,0,0,1-2.25,1.13,3.61,3.61,0,0,1-1.32-.23c-.39-.16-.92-.42-1.59-.77L26.57,34a30.26,30.26,0,0,0-2.92-1.27,6.83,6.83,0,0,0-2.43-.43,5.08,5.08,0,0,0-4.37,2.46,14.09,14.09,0,0,0-2,6.91A8.39,8.39,0,0,1,18.12,39a10.11,10.11,0,0,1,4.48-1A10.69,10.69,0,0,1,28.31,39.55ZM23.44,54.18a5.31,5.31,0,0,0,1.22-3.65,5.39,5.39,0,0,0-1.19-3.68,4.18,4.18,0,0,0-3.31-1.35,4.25,4.25,0,0,0-3.31,1.38,5.91,5.91,0,0,0,0,7.28,4.24,4.24,0,0,0,3.28,1.4A4.14,4.14,0,0,0,23.44,54.18Z"/><path d="M87.07,39.37a10.88,10.88,0,0,1,4,4.34,14.11,14.11,0,0,1-.21,12.91,11.79,11.79,0,0,1-4.63,4.58,13.65,13.65,0,0,1-6.72,1.64Q72,62.84,68,58T63.89,44.1a25.58,25.58,0,0,1,1.93-10.34A15.4,15.4,0,0,1,71.27,27a14.32,14.32,0,0,1,8.23-2.38,20.34,20.34,0,0,1,6.06,1,17,17,0,0,1,5.32,2.64,4.73,4.73,0,0,1,1.3,1.43,4,4,0,0,1,.39,1.86,4.26,4.26,0,0,1-.92,2.77,2.81,2.81,0,0,1-2.25,1.14,3.47,3.47,0,0,1-1.33-.24c-.38-.16-.91-.41-1.58-.76l-1.17-.59c-1.16-.56-2.13-1-2.91-1.27A7.1,7.1,0,0,0,80,32.09a5.07,5.07,0,0,0-4.37,2.46,14.06,14.06,0,0,0-2,6.91,8.43,8.43,0,0,1,3.25-2.68,10.23,10.23,0,0,1,4.47-1A10.7,10.7,0,0,1,87.07,39.37ZM82.2,54a5.31,5.31,0,0,0,1.22-3.65,5.39,5.39,0,0,0-1.19-3.68,4.7,4.7,0,0,0-6.62,0,5.89,5.89,0,0,0,0,7.27,4.2,4.2,0,0,0,3.28,1.41A4.14,4.14,0,0,0,82.2,54Z"/><path d="M92.19,68.47h-36V54.63a6.67,6.67,0,0,0-13.33,0V68.47H7.81A7.81,7.81,0,0,0,0,76.28H0a7.81,7.81,0,0,0,7.81,7.81H92.19A7.81,7.81,0,0,0,100,76.28h0A7.81,7.81,0,0,0,92.19,68.47Z"/></svg>