<svg id="Layer_1" data-name="Layer 1" xmlns="http://www.w3.org/2000/svg" viewBox="0 0 100 100"><title>l3_1_1</title><path d="M28.31,39.55a10.9,10.9,0,0,1,4,4.34A14.19,14.19,0,0,1,32.1,56.8a11.85,11.85,0,0,1-4.63,4.58A13.71,13.71,0,0,1,20.74,63q-7.45,0-11.53-4.87c-2.72-3.24-4.08-7.87-4.08-13.86A25.8,25.8,0,0,1,7.06,33.94a15.41,15.41,0,0,1,5.46-6.8,14.27,14.27,0,0,1,8.22-2.38,20.67,20.67,0,0,1,6.06.95,16.89,16.89,0,0,1,5.32,2.65,4.62,4.62,0,0,1,1.3,1.43,3.93,3.93,0,0,1,.4,1.85,4.26,4.26,0,0,1-.93,2.78,2.8,2.8,0,0,1-2.25,1.13,3.61,3.61,0,0,1-1.32-.23c-.39-.16-.92-.42-1.59-.77L26.57,34a30.26,30.26,0,0,0-2.92-1.27,6.83,6.83,0,0,0-2.43-.43,5.08,5.08,0,0,0-4.37,2.46,14.09,14.09,0,0,0-2,6.91A8.39,8.39,0,0,1,18.12,39a10.11,10.11,0,0,1,4.48-1A10.69,10.69,0,0,1,28.31,39.55ZM23.44,54.18a5.31,5.31,0,0,0,1.22-3.65,5.39,5.39,0,0,0-1.19-3.68,4.18,4.18,0,0,0-3.31-1.35,4.25,4.25,0,0,0-3.31,1.38,5.91,5.91,0,0,0,0,7.28,4.24,4.24,0,0,0,3.28,1.4A4.14,4.14,0,0,0,23.44,54.18Z"/><path d="M91.81,26.19a4.16,4.16,0,0,1,1,2.88,6.79,6.79,0,0,1-1,3.5l-16,27.78A5,5,0,0,1,74,62.23a4.58,4.58,0,0,1-2.25.61,4.86,4.86,0,0,1-3.28-1.25,3.87,3.87,0,0,1-1.43-3A5,5,0,0,1,67.75,56l13.6-23.23H68.12a5.33,5.33,0,0,1-3.52-1A3.62,3.62,0,0,1,63.52,29,3.71,3.71,0,0,1,64.63,26a5.21,5.21,0,0,1,3.49-1H88.87A3.77,3.77,0,0,1,91.81,26.19Z"/><path d="M92.19,68.47h-36V54.63a6.67,6.67,0,0,0-13.33,0V68.47H7.81A7.81,7.81,0,0,0,0,76.28H0a7.81,7.81,0,0,0,7.81,7.81H92.19A7.81,7.81,0,0,0,100,76.28h0A7.81,7.81,0,0,0,92.19,68.47Z"/></svg>