<svg id="Layer_1" data-name="Layer 1" xmlns="http://www.w3.org/2000/svg" viewBox="0 0 100 100"><title>l3_1_1</title><path d="M35.4,52.49c0,2.5-1.53,3.76-4.6,3.76H29.63v1.8a4.64,4.64,0,0,1-1.32,3.59,4.84,4.84,0,0,1-3.44,1.22,4.74,4.74,0,0,1-3.41-1.22,4.67,4.67,0,0,1-1.3-3.59v-1.8H8.36a4,4,0,0,1-3-1.17,4,4,0,0,1-1.11-2.91A5.9,5.9,0,0,1,5.4,48.68L20.53,27.09a4.88,4.88,0,0,1,1.88-1.62,5.3,5.3,0,0,1,2.36-.55,5,5,0,0,1,3.44,1.27,4.49,4.49,0,0,1,1.42,3.54V48.84H30.8C33.87,48.84,35.4,50.05,35.4,52.49ZM20.16,48.84V39.68l-6.35,9.16Z"/><path d="M86.88,39.47a10.72,10.72,0,0,1,4.18,4.24A12.65,12.65,0,0,1,92.57,50a12.51,12.51,0,0,1-1.8,6.72,11.92,11.92,0,0,1-5.08,4.5,17.12,17.12,0,0,1-7.56,1.58,21.86,21.86,0,0,1-6.43-1,17.39,17.39,0,0,1-5.43-2.64A4.72,4.72,0,0,1,65,57.73a3.86,3.86,0,0,1-.4-1.83,4.33,4.33,0,0,1,.9-2.77A2.73,2.73,0,0,1,67.75,52a3.67,3.67,0,0,1,1.33.21,17.33,17.33,0,0,1,1.58.79l1.06.53a28.21,28.21,0,0,0,3,1.27,8.72,8.72,0,0,0,2.94.48A6.79,6.79,0,0,0,82,54.08a4.59,4.59,0,0,0,1.43-3.73A4.72,4.72,0,0,0,82,46.64a6,6,0,0,0-4.13-1.32,14.1,14.1,0,0,0-2.88.27,18,18,0,0,0-3,.95,5,5,0,0,1-2.38.58,3.67,3.67,0,0,1-2.49-.87,2.91,2.91,0,0,1-1-2.31V29.6a4.59,4.59,0,0,1,1.16-3.38,4.51,4.51,0,0,1,3.34-1.17H87q4.61,0,4.61,3.65T87,32.41H75.53v6.51a13.14,13.14,0,0,1,5.24-1A12.27,12.27,0,0,1,86.88,39.47Z"/><path d="M92.19,68.47h-36V54.63a6.67,6.67,0,0,0-13.33,0V68.47H7.81A7.81,7.81,0,0,0,0,76.28H0a7.81,7.81,0,0,0,7.81,7.81H92.19A7.81,7.81,0,0,0,100,76.28h0A7.81,7.81,0,0,0,92.19,68.47Z"/></svg>