<svg id="Layer_1" data-name="Layer 1" xmlns="http://www.w3.org/2000/svg" viewBox="0 0 100 100"><title>l3_1_1</title><path d="M34.13,55.77a3.56,3.56,0,0,1,1.12,2.86q0,3.91-4.61,3.91H12.28q-4.6,0-4.61-3.91a3.56,3.56,0,0,1,1.11-2.86,5.3,5.3,0,0,1,3.5-1h4.28V35.71L12.33,38.2a3.64,3.64,0,0,1-1.85.53,3.16,3.16,0,0,1-2.54-1.3,4.41,4.41,0,0,1-1.06-2.88,3.59,3.59,0,0,1,1.85-3.28l8.47-4.92A8.88,8.88,0,0,1,21.59,25,4.68,4.68,0,0,1,25,26.29a4.59,4.59,0,0,1,1.3,3.44V54.82h4.34A5.26,5.26,0,0,1,34.13,55.77Z"/><path d="M91.46,55.56a3.51,3.51,0,0,1,1.14,2.89,3.65,3.65,0,0,1-1.14,3,5.33,5.33,0,0,1-3.46,1H68.68a4,4,0,0,1-3-1.14,3.94,3.94,0,0,1-1.11-2.88,5.8,5.8,0,0,1,1.8-4.13L77.57,42.52q3.5-3.66,3.49-6.73A3.57,3.57,0,0,0,80,33a4.21,4.21,0,0,0-2.94-.95,8.61,8.61,0,0,0-2.83.45,25.18,25.18,0,0,0-3,1.3l-1.06.53-.82.45a6.25,6.25,0,0,1-1.08.5,3.34,3.34,0,0,1-1,.16,2.7,2.7,0,0,1-2.22-1.19,5.13,5.13,0,0,1-.56-4.74,3.64,3.64,0,0,1,1.3-1.38,21.55,21.55,0,0,1,11.7-3.59,17.13,17.13,0,0,1,6.88,1.29A10.32,10.32,0,0,1,89,29.58a9.66,9.66,0,0,1,1.62,5.53,13.26,13.26,0,0,1-1.3,5.9,24.78,24.78,0,0,1-4.42,6l-7.51,7.67H88A5.39,5.39,0,0,1,91.46,55.56Z"/><path d="M92.19,68.47h-36V54.63a6.67,6.67,0,0,0-13.33,0V68.47H7.81A7.81,7.81,0,0,0,0,76.28H0a7.81,7.81,0,0,0,7.81,7.81H92.19A7.81,7.81,0,0,0,100,76.28h0A7.81,7.81,0,0,0,92.19,68.47Z"/></svg>