<svg id="Layer_1" data-name="Layer 1" xmlns="http://www.w3.org/2000/svg" viewBox="0 0 100 100"><title>l3_1_1</title><path d="M31,46.61a9.42,9.42,0,0,1,1.77,5.77A9.2,9.2,0,0,1,31.06,58a11.06,11.06,0,0,1-4.94,3.68A20,20,0,0,1,18.63,63,23.43,23.43,0,0,1,12,62a17.18,17.18,0,0,1-5.5-2.67,4.24,4.24,0,0,1-1.27-1.46,4.11,4.11,0,0,1-.37-1.82,4.33,4.33,0,0,1,.9-2.78A2.73,2.73,0,0,1,8,52.17a3.41,3.41,0,0,1,1.32.24,17.59,17.59,0,0,1,1.59.77l.5.23.67.3a23.61,23.61,0,0,0,3,1.29,9.57,9.57,0,0,0,3,.45,7.37,7.37,0,0,0,4.26-1,3.67,3.67,0,0,0,1.3-3.18,3.33,3.33,0,0,0-1.32-3,8,8,0,0,0-4.34-.9H14.76a3,3,0,0,1-2.48-1.11,4.34,4.34,0,0,1,0-5.29A3,3,0,0,1,14.76,40h2.33a8.19,8.19,0,0,0,4.24-.85,3,3,0,0,0,1.32-2.7,4,4,0,0,0-1.16-3,4.54,4.54,0,0,0-3.23-1.09,7.92,7.92,0,0,0-2.78.48A28.59,28.59,0,0,0,12.59,34l-1.11.53c-.67.35-1.2.61-1.58.77a3.67,3.67,0,0,1-1.33.23,2.72,2.72,0,0,1-2.22-1.13,4.35,4.35,0,0,1-.9-2.78,4.06,4.06,0,0,1,.37-1.85,4.26,4.26,0,0,1,1.27-1.43,17.73,17.73,0,0,1,5.37-2.65,21.43,21.43,0,0,1,6.27-.95A17.49,17.49,0,0,1,25.64,26a10.23,10.23,0,0,1,4.6,3.6A9.2,9.2,0,0,1,31.86,35a8.75,8.75,0,0,1-1.51,5.11,8.57,8.57,0,0,1-4.21,3.2A9.05,9.05,0,0,1,31,46.61Z"/><path d="M94.16,52.31q0,3.75-4.6,3.75H88.39v1.8a4.65,4.65,0,0,1-1.32,3.6,4.89,4.89,0,0,1-3.44,1.22,4.78,4.78,0,0,1-3.41-1.22,4.68,4.68,0,0,1-1.3-3.6v-1.8H67.12a4,4,0,0,1-3-1.16A4.06,4.06,0,0,1,63,52a5.94,5.94,0,0,1,1.16-3.49L79.29,26.9a4.87,4.87,0,0,1,1.88-1.61,5.31,5.31,0,0,1,2.35-.56A5,5,0,0,1,87,26a4.48,4.48,0,0,1,1.43,3.55v19.1h1.17Q94.17,48.65,94.16,52.31ZM78.92,48.65V39.5l-6.35,9.15Z"/><path d="M92.19,68.47h-36V54.63a6.67,6.67,0,0,0-13.33,0V68.47H7.81A7.81,7.81,0,0,0,0,76.28H0a7.81,7.81,0,0,0,7.81,7.81H92.19A7.81,7.81,0,0,0,100,76.28h0A7.81,7.81,0,0,0,92.19,68.47Z"/></svg>