<svg id="Layer_1" data-name="Layer 1" xmlns="http://www.w3.org/2000/svg" viewBox="0 0 100 100"><title>l3_1_1</title><path d="M33.05,26.37a4.13,4.13,0,0,1,1,2.89,6.76,6.76,0,0,1-1,3.49L17,60.53a4.8,4.8,0,0,1-1.83,1.88A4.48,4.48,0,0,1,13,63a4.91,4.91,0,0,1-3.28-1.24,3.91,3.91,0,0,1-1.43-3.05A5,5,0,0,1,9,56.19L22.6,33H9.37a5.29,5.29,0,0,1-3.52-1,3.59,3.59,0,0,1-1.09-2.86,3.74,3.74,0,0,1,1.11-2.94,5.22,5.22,0,0,1,3.5-1H30.11A3.77,3.77,0,0,1,33.05,26.37Z"/><path d="M67.59,57.92Q63.94,53,63.94,43.68T67.59,29.5q3.66-4.92,10.59-4.92T88.74,29.5q3.67,4.92,3.67,14.18T88.76,57.92q-3.65,4.92-10.58,4.92T67.59,57.92Zm14.24-5.19q1.11-2.74,1.11-9t-1.11-9a3.8,3.8,0,0,0-7.3,0q-1.11,2.72-1.11,9t1.11,9a3.8,3.8,0,0,0,7.3,0Z"/><path d="M92.19,68.47h-36V54.63a6.67,6.67,0,0,0-13.33,0V68.47H7.81A7.81,7.81,0,0,0,0,76.28H0a7.81,7.81,0,0,0,7.81,7.81H92.19A7.81,7.81,0,0,0,100,76.28h0A7.81,7.81,0,0,0,92.19,68.47Z"/></svg>