<svg id="Layer_1" data-name="Layer 1" xmlns="http://www.w3.org/2000/svg" viewBox="0 0 100 100"><title>l3_1_1</title><path d="M32.7,55.74a3.51,3.51,0,0,1,1.14,2.89,3.63,3.63,0,0,1-1.14,3,5.26,5.26,0,0,1-3.46.95H9.92a4,4,0,0,1-3-1.13,3.93,3.93,0,0,1-1.12-2.89,5.8,5.8,0,0,1,1.8-4.13L18.81,42.7Q22.31,39,22.31,36a3.54,3.54,0,0,0-1-2.75,4.12,4.12,0,0,0-2.93-1,8.63,8.63,0,0,0-2.84.45,24.42,24.42,0,0,0-3,1.3l-1.06.53c-.14.07-.42.22-.82.45a6.67,6.67,0,0,1-1.09.5,3,3,0,0,1-1,.16,2.71,2.71,0,0,1-2.23-1.19,5.08,5.08,0,0,1-.55-4.74,3.52,3.52,0,0,1,1.29-1.37,20.74,20.74,0,0,1,5.59-2.65,20.84,20.84,0,0,1,6.11-.95,17.13,17.13,0,0,1,6.88,1.29,10.41,10.41,0,0,1,4.58,3.71,9.73,9.73,0,0,1,1.61,5.53,13.26,13.26,0,0,1-1.3,5.9,24.51,24.51,0,0,1-4.41,6L18.6,54.82H29.24A5.44,5.44,0,0,1,32.7,55.74Z"/><path d="M89.79,46.43a9.35,9.35,0,0,1,1.78,5.77,9.2,9.2,0,0,1-1.75,5.61,11.11,11.11,0,0,1-4.95,3.68,19.92,19.92,0,0,1-7.48,1.29,23.42,23.42,0,0,1-6.62-.92,17.08,17.08,0,0,1-5.5-2.67,3.72,3.72,0,0,1-1.64-3.29,4.33,4.33,0,0,1,.9-2.77A2.72,2.72,0,0,1,66.75,52a3.45,3.45,0,0,1,1.32.24c.39.16.92.41,1.59.76.14.08.31.15.5.24l.66.29a23.07,23.07,0,0,0,3.05,1.3,9.57,9.57,0,0,0,3,.45,7.41,7.41,0,0,0,4.26-1,3.71,3.71,0,0,0,1.3-3.18,3.33,3.33,0,0,0-1.33-3,8,8,0,0,0-4.34-.9H73.52A3,3,0,0,1,71,46.17a4.34,4.34,0,0,1,0-5.29,3,3,0,0,1,2.49-1.12h2.33a8.14,8.14,0,0,0,4.23-.84,3,3,0,0,0,1.33-2.7,3.93,3.93,0,0,0-1.17-3A4.51,4.51,0,0,0,77,32.09a7.91,7.91,0,0,0-2.77.48,26.5,26.5,0,0,0-2.89,1.27l-1.11.53c-.67.35-1.2.6-1.59.76a3.45,3.45,0,0,1-1.32.24,2.73,2.73,0,0,1-2.22-1.14,4.31,4.31,0,0,1-.9-2.77,4.11,4.11,0,0,1,.37-1.86,4.24,4.24,0,0,1,1.27-1.43,17.6,17.6,0,0,1,5.37-2.64,21,21,0,0,1,6.27-1,17.53,17.53,0,0,1,6.91,1.27A10.33,10.33,0,0,1,89,29.44a9.25,9.25,0,0,1,1.62,5.4A8.84,8.84,0,0,1,89.11,40a8.62,8.62,0,0,1-4.21,3.2A9,9,0,0,1,89.79,46.43Z"/><path d="M92.19,68.47h-36V54.63a6.67,6.67,0,0,0-13.33,0V68.47H7.81A7.81,7.81,0,0,0,0,76.28H0a7.81,7.81,0,0,0,7.81,7.81H92.19A7.81,7.81,0,0,0,100,76.28h0A7.81,7.81,0,0,0,92.19,68.47Z"/></svg>