<svg id="Layer_1" data-name="Layer 1" xmlns="http://www.w3.org/2000/svg" viewBox="0 0 100 100"><title>l3_1_1</title><path d="M29.63,29.63q4.08,4.86,4.08,13.86a25.66,25.66,0,0,1-1.93,10.35,15.51,15.51,0,0,1-5.45,6.8A14.32,14.32,0,0,1,18.1,63a20.67,20.67,0,0,1-6.06-1,16.89,16.89,0,0,1-5.32-2.65A4.62,4.62,0,0,1,5.42,58,3.93,3.93,0,0,1,5,56.14,4.25,4.25,0,0,1,6,53.36,2.81,2.81,0,0,1,8.2,52.22a3.38,3.38,0,0,1,1.32.24c.39.16.92.42,1.59.77l1.17.58a29.2,29.2,0,0,0,2.91,1.27,7.05,7.05,0,0,0,2.43.42A5.07,5.07,0,0,0,22,53a14.05,14.05,0,0,0,2-6.9,8.32,8.32,0,0,1-3.25,2.67,10.23,10.23,0,0,1-4.47,1,10.7,10.7,0,0,1-5.72-1.56,10.87,10.87,0,0,1-4-4.34,13.18,13.18,0,0,1-1.46-6.27A13.2,13.2,0,0,1,6.75,31a11.72,11.72,0,0,1,4.63-4.58,13.65,13.65,0,0,1,6.72-1.64Q25.56,24.76,29.63,29.63ZM22,40.9a5.24,5.24,0,0,0,1.24-3.65A5.2,5.2,0,0,0,22,33.62a4.24,4.24,0,0,0-3.28-1.4A4.14,4.14,0,0,0,15.4,33.6a5.3,5.3,0,0,0-1.22,3.65,5.39,5.39,0,0,0,1.19,3.68,4.19,4.19,0,0,0,3.31,1.34A4.23,4.23,0,0,0,22,40.9Z"/><path d="M67.59,57.92Q63.94,53,63.94,43.68T67.59,29.5q3.66-4.92,10.59-4.92T88.74,29.5q3.67,4.92,3.67,14.18T88.76,57.92q-3.65,4.92-10.58,4.92T67.59,57.92Zm14.24-5.19q1.11-2.74,1.11-9t-1.11-9a3.8,3.8,0,0,0-7.3,0q-1.11,2.72-1.11,9t1.11,9a3.8,3.8,0,0,0,7.3,0Z"/><path d="M92.19,68.47h-36V54.63a6.67,6.67,0,0,0-13.33,0V68.47H7.81A7.81,7.81,0,0,0,0,76.28H0a7.81,7.81,0,0,0,7.81,7.81H92.19A7.81,7.81,0,0,0,100,76.28h0A7.81,7.81,0,0,0,92.19,68.47Z"/></svg>