<svg id="Layer_1" data-name="Layer 1" xmlns="http://www.w3.org/2000/svg" viewBox="0 0 100 100"><title>l3_1_1</title><path d="M35.4,52.49c0,2.5-1.53,3.76-4.6,3.76H29.64v1.8a4.65,4.65,0,0,1-1.33,3.59,4.84,4.84,0,0,1-3.44,1.22,4.74,4.74,0,0,1-3.41-1.22,4.67,4.67,0,0,1-1.3-3.59v-1.8H8.36a4,4,0,0,1-3-1.17,4,4,0,0,1-1.11-2.91A5.9,5.9,0,0,1,5.4,48.68L20.53,27.09a4.88,4.88,0,0,1,1.88-1.62,5.3,5.3,0,0,1,2.36-.55,5,5,0,0,1,3.44,1.27,4.49,4.49,0,0,1,1.43,3.54V48.84H30.8C33.87,48.84,35.4,50.05,35.4,52.49ZM20.16,48.84V39.68l-6.35,9.16Z"/><path d="M94.16,52.31q0,3.75-4.6,3.75H88.39v1.8a4.65,4.65,0,0,1-1.32,3.6,4.89,4.89,0,0,1-3.44,1.22,4.78,4.78,0,0,1-3.41-1.22,4.68,4.68,0,0,1-1.3-3.6v-1.8H67.12a4,4,0,0,1-3-1.16A4.06,4.06,0,0,1,63,52a5.94,5.94,0,0,1,1.16-3.49L79.29,26.9a4.87,4.87,0,0,1,1.88-1.61,5.31,5.31,0,0,1,2.35-.56A5,5,0,0,1,87,26a4.48,4.48,0,0,1,1.43,3.55v19.1h1.17Q94.17,48.65,94.16,52.31ZM78.92,48.65V39.5l-6.35,9.15Z"/><path d="M92.19,68.47h-36V54.63a6.67,6.67,0,0,0-13.33,0V68.47H7.81A7.81,7.81,0,0,0,0,76.28H0a7.81,7.81,0,0,0,7.81,7.81H92.19A7.81,7.81,0,0,0,100,76.28h0A7.81,7.81,0,0,0,92.19,68.47Z"/></svg>