<svg id="Layer_1" data-name="Layer 1" xmlns="http://www.w3.org/2000/svg" viewBox="0 0 100 100"><title>l3_1_1</title><path d="M31,46.61a9.42,9.42,0,0,1,1.77,5.77A9.2,9.2,0,0,1,31.06,58a11.06,11.06,0,0,1-4.94,3.68A20,20,0,0,1,18.63,63,23.43,23.43,0,0,1,12,62a17.18,17.18,0,0,1-5.5-2.67,4.24,4.24,0,0,1-1.27-1.46,4.11,4.11,0,0,1-.37-1.82,4.33,4.33,0,0,1,.9-2.78A2.73,2.73,0,0,1,8,52.17a3.41,3.41,0,0,1,1.32.24,17.59,17.59,0,0,1,1.59.77l.5.23.67.3a23.61,23.61,0,0,0,3,1.29,9.57,9.57,0,0,0,3,.45,7.37,7.37,0,0,0,4.26-1,3.67,3.67,0,0,0,1.3-3.18,3.31,3.31,0,0,0-1.33-3,7.92,7.92,0,0,0-4.33-.9H14.76a3,3,0,0,1-2.48-1.11,4.34,4.34,0,0,1,0-5.29A3,3,0,0,1,14.76,40h2.33a8.19,8.19,0,0,0,4.24-.85,3,3,0,0,0,1.32-2.7,4,4,0,0,0-1.16-3,4.54,4.54,0,0,0-3.23-1.09,7.92,7.92,0,0,0-2.78.48A28.59,28.59,0,0,0,12.59,34l-1.11.53c-.67.35-1.2.61-1.58.77a3.67,3.67,0,0,1-1.33.23,2.72,2.72,0,0,1-2.22-1.13,4.35,4.35,0,0,1-.9-2.78,4.06,4.06,0,0,1,.37-1.85,4.26,4.26,0,0,1,1.27-1.43,17.73,17.73,0,0,1,5.37-2.65,21.43,21.43,0,0,1,6.27-.95A17.49,17.49,0,0,1,25.64,26a10.23,10.23,0,0,1,4.6,3.6A9.2,9.2,0,0,1,31.86,35a8.75,8.75,0,0,1-1.51,5.11,8.57,8.57,0,0,1-4.21,3.2A9.05,9.05,0,0,1,31,46.61Z"/><path d="M89.79,46.43a9.35,9.35,0,0,1,1.78,5.77,9.2,9.2,0,0,1-1.75,5.61,11.11,11.11,0,0,1-4.95,3.68,19.94,19.94,0,0,1-7.49,1.29,23.41,23.41,0,0,1-6.61-.92,17.08,17.08,0,0,1-5.5-2.67,3.72,3.72,0,0,1-1.64-3.29,4.33,4.33,0,0,1,.9-2.77A2.72,2.72,0,0,1,66.75,52a3.45,3.45,0,0,1,1.32.24c.39.16.92.41,1.59.76.14.08.31.15.5.24l.66.29a23.07,23.07,0,0,0,3.05,1.3,9.57,9.57,0,0,0,3,.45,7.41,7.41,0,0,0,4.26-1,3.71,3.71,0,0,0,1.3-3.18,3.33,3.33,0,0,0-1.33-3,8,8,0,0,0-4.34-.9H73.52A3,3,0,0,1,71,46.17a4.34,4.34,0,0,1,0-5.29,3,3,0,0,1,2.49-1.12h2.33a8.14,8.14,0,0,0,4.23-.84,3,3,0,0,0,1.33-2.7,3.93,3.93,0,0,0-1.17-3A4.51,4.51,0,0,0,77,32.09a7.91,7.91,0,0,0-2.77.48,26.5,26.5,0,0,0-2.89,1.27l-1.11.53c-.67.35-1.2.6-1.59.76a3.45,3.45,0,0,1-1.32.24,2.73,2.73,0,0,1-2.22-1.14,4.31,4.31,0,0,1-.9-2.77,4.11,4.11,0,0,1,.37-1.86,4.24,4.24,0,0,1,1.27-1.43,17.6,17.6,0,0,1,5.37-2.64,21,21,0,0,1,6.27-1,17.53,17.53,0,0,1,6.91,1.27A10.33,10.33,0,0,1,89,29.44a9.25,9.25,0,0,1,1.61,5.4A8.84,8.84,0,0,1,89.11,40a8.62,8.62,0,0,1-4.21,3.2A9,9,0,0,1,89.79,46.43Z"/><path d="M92.19,68.47h-36V54.63a6.67,6.67,0,0,0-13.33,0V68.47H7.81A7.81,7.81,0,0,0,0,76.28H0a7.81,7.81,0,0,0,7.81,7.81H92.19A7.81,7.81,0,0,0,100,76.28h0A7.81,7.81,0,0,0,92.19,68.47Z"/></svg>