<svg id="Layer_1" data-name="Layer 1" xmlns="http://www.w3.org/2000/svg" viewBox="0 0 100 100"><title>l3_1_1</title><path d="M32.7,55.74a3.51,3.51,0,0,1,1.14,2.89,3.63,3.63,0,0,1-1.14,3,5.27,5.27,0,0,1-3.46.95H9.92a4.07,4.07,0,0,1-3-1.13,4,4,0,0,1-1.11-2.89,5.8,5.8,0,0,1,1.8-4.13L18.81,42.7Q22.31,39,22.3,36a3.54,3.54,0,0,0-1-2.75,4.12,4.12,0,0,0-2.93-1,8.63,8.63,0,0,0-2.84.45,25.18,25.18,0,0,0-3,1.3l-1,.53c-.14.07-.42.22-.82.45a6.67,6.67,0,0,1-1.09.5,3,3,0,0,1-1,.16,2.71,2.71,0,0,1-2.23-1.19,5.08,5.08,0,0,1-.55-4.74,3.52,3.52,0,0,1,1.29-1.37,20.74,20.74,0,0,1,5.59-2.65,20.84,20.84,0,0,1,6.11-.95,17.13,17.13,0,0,1,6.88,1.29,10.41,10.41,0,0,1,4.58,3.71,9.73,9.73,0,0,1,1.61,5.53,13.26,13.26,0,0,1-1.3,5.9,24.51,24.51,0,0,1-4.41,6L18.6,54.82H29.24A5.46,5.46,0,0,1,32.7,55.74Z"/><path d="M91.46,55.56a3.51,3.51,0,0,1,1.14,2.89,3.65,3.65,0,0,1-1.14,3,5.34,5.34,0,0,1-3.47,1H68.68a4,4,0,0,1-3-1.14,3.94,3.94,0,0,1-1.11-2.88,5.8,5.8,0,0,1,1.8-4.13L77.57,42.52q3.5-3.66,3.49-6.73A3.57,3.57,0,0,0,80,33a4.21,4.21,0,0,0-2.94-.95,8.61,8.61,0,0,0-2.83.45,25.18,25.18,0,0,0-3,1.3l-1.06.53-.82.45a6.25,6.25,0,0,1-1.08.5,3.34,3.34,0,0,1-1,.16,2.7,2.7,0,0,1-2.22-1.19,5.13,5.13,0,0,1-.56-4.74,3.64,3.64,0,0,1,1.3-1.38,21.55,21.55,0,0,1,11.7-3.59,17.13,17.13,0,0,1,6.88,1.29A10.32,10.32,0,0,1,89,29.58a9.66,9.66,0,0,1,1.62,5.53,13.26,13.26,0,0,1-1.3,5.9,24.78,24.78,0,0,1-4.42,6l-7.51,7.67H88A5.41,5.41,0,0,1,91.46,55.56Z"/><path d="M92.19,68.47h-36V54.63a6.67,6.67,0,0,0-13.33,0V68.47H7.81A7.81,7.81,0,0,0,0,76.28H0a7.81,7.81,0,0,0,7.81,7.81H92.19A7.81,7.81,0,0,0,100,76.28h0A7.81,7.81,0,0,0,92.19,68.47Z"/></svg>