<svg id="Layer_1" data-name="Layer 1" xmlns="http://www.w3.org/2000/svg" viewBox="0 0 100 100"><title>l3_1_1</title><path d="M28.13,39.66a10.7,10.7,0,0,1,4.18,4.23,12.81,12.81,0,0,1,1.51,6.27A12.51,12.51,0,0,1,32,56.88a12,12,0,0,1-5.08,4.5A17.16,17.16,0,0,1,19.37,63a21.92,21.92,0,0,1-6.43-1,17.39,17.39,0,0,1-5.43-2.64,4.86,4.86,0,0,1-1.24-1.46,4,4,0,0,1-.4-1.82,4.33,4.33,0,0,1,.9-2.78A2.74,2.74,0,0,1,9,52.17a3.62,3.62,0,0,1,1.32.21,16.6,16.6,0,0,1,1.59.8l1.05.53c1.1.52,2.1.95,3,1.27a9,9,0,0,0,2.94.47,6.71,6.71,0,0,0,4.39-1.19,4.56,4.56,0,0,0,1.43-3.73,4.68,4.68,0,0,0-1.48-3.7A6,6,0,0,0,19.1,45.5a14.17,14.17,0,0,0-2.88.27,17.67,17.67,0,0,0-3,.95,5.05,5.05,0,0,1-2.39.58,3.66,3.66,0,0,1-2.48-.87,2.9,2.9,0,0,1-1-2.3V29.79A4.56,4.56,0,0,1,8.47,26.4a4.47,4.47,0,0,1,3.33-1.17H28.21q4.6,0,4.6,3.66t-4.6,3.7H16.77V39.1a13.18,13.18,0,0,1,5.24-1A12.21,12.21,0,0,1,28.13,39.66Z"/><path d="M67.59,57.92Q63.94,53,63.94,43.68T67.59,29.5q3.66-4.92,10.59-4.92T88.74,29.5q3.67,4.92,3.67,14.18T88.76,57.92q-3.65,4.92-10.58,4.92T67.59,57.92Zm14.24-5.19q1.11-2.74,1.11-9t-1.11-9a3.8,3.8,0,0,0-7.3,0q-1.11,2.72-1.11,9t1.11,9a3.8,3.8,0,0,0,7.3,0Z"/><path d="M92.19,68.47h-36V54.63a6.67,6.67,0,0,0-13.33,0V68.47H7.81A7.81,7.81,0,0,0,0,76.28H0a7.81,7.81,0,0,0,7.81,7.81H92.19A7.81,7.81,0,0,0,100,76.28h0A7.81,7.81,0,0,0,92.19,68.47Z"/></svg>