<svg id="Layer_1" data-name="Layer 1" xmlns="http://www.w3.org/2000/svg" viewBox="0 0 100 100"><title>l3_2_1</title><path d="M21.38,58.76q-3.11-4.18-3.1-12.1t3.1-12.06q3.11-4.19,9-4.19a10.54,10.54,0,0,1,9,4.19q3.12,4.18,3.13,12.06t-3.11,12.1q-3.1,4.18-9,4.19T21.38,58.76Zm12.11-4.41q.94-2.34.94-7.69T33.49,39a3.23,3.23,0,0,0-6.21,0q-.95,2.31-1,7.67t1,7.69a3.23,3.23,0,0,0,6.21,0Z"/><path d="M46.87,61.55a4.53,4.53,0,0,1,0-6.21A4.21,4.21,0,0,1,50,54.08a4.13,4.13,0,0,1,3.08,1.26,4.51,4.51,0,0,1,0,6.21A4.13,4.13,0,0,1,50,62.81,4.21,4.21,0,0,1,46.87,61.55Z"/><path d="M77,43.08a9.2,9.2,0,0,1,3.56,3.6A10.89,10.89,0,0,1,81.86,52a10.66,10.66,0,0,1-1.53,5.72A10.12,10.12,0,0,1,76,61.55a14.58,14.58,0,0,1-6.43,1.35,18.72,18.72,0,0,1-5.47-.81,14.68,14.68,0,0,1-4.61-2.25,4,4,0,0,1-1.06-1.23,3.32,3.32,0,0,1-.34-1.56,3.69,3.69,0,0,1,.76-2.36,2.36,2.36,0,0,1,1.9-1,3.06,3.06,0,0,1,1.12.18,14,14,0,0,1,1.35.68l.9.45a25.54,25.54,0,0,0,2.54,1.08,7.49,7.49,0,0,0,2.5.4,5.74,5.74,0,0,0,3.74-1,3.88,3.88,0,0,0,1.21-3.17,4,4,0,0,0-1.26-3.15,5.09,5.09,0,0,0-3.51-1.13,12.22,12.22,0,0,0-2.45.23,15.81,15.81,0,0,0-2.59.81,4.29,4.29,0,0,1-2,.49,3.07,3.07,0,0,1-2.11-.74,2.47,2.47,0,0,1-.86-2V34.69a3.86,3.86,0,0,1,1-2.88,3.81,3.81,0,0,1,2.83-1h14q3.91,0,3.92,3.1t-3.92,3.15H67.37v5.54a11.24,11.24,0,0,1,4.46-.81A10.43,10.43,0,0,1,77,43.08Z"/><path d="M92.19,68.47H7.81a7.81,7.81,0,0,0,0,15.62H92.19a7.81,7.81,0,0,0,0-15.62Z"/></svg>