<svg id="Layer_1" data-name="Layer 1" xmlns="http://www.w3.org/2000/svg" viewBox="0 0 100 100"><title>l3_2_1</title><path d="M7.86,58.76q-3.11-4.18-3.11-12.1T7.86,34.6q3.1-4.19,9-4.19a10.54,10.54,0,0,1,9,4.19Q29,38.78,29,46.66t-3.1,12.1q-3.11,4.18-9,4.19T7.86,58.76ZM20,54.35q.95-2.34.95-7.69A22.19,22.19,0,0,0,20,39a3.23,3.23,0,0,0-6.21,0q-.95,2.31-.94,7.67t.94,7.69a3.23,3.23,0,0,0,6.21,0Z"/><path d="M33.35,61.55a4.37,4.37,0,0,1,3.13-7.47,4.15,4.15,0,0,1,3.08,1.26,4.51,4.51,0,0,1,0,6.21,4.15,4.15,0,0,1-3.08,1.26A4.21,4.21,0,0,1,33.35,61.55Z"/><path d="M67.42,56.76a3,3,0,0,1,1,2.45,3.12,3.12,0,0,1-1,2.52,4.54,4.54,0,0,1-3,.81H48a3.28,3.28,0,0,1-3.51-3.42,4.93,4.93,0,0,1,1.53-3.51l9.54-9.94q3-3.11,3-5.72a3,3,0,0,0-.87-2.34,3.56,3.56,0,0,0-2.5-.81,7.17,7.17,0,0,0-2.41.39,21.22,21.22,0,0,0-2.54,1.1l-.9.45-.7.38a4.89,4.89,0,0,1-.92.43,2.71,2.71,0,0,1-.86.13,2.28,2.28,0,0,1-1.89-1,3.87,3.87,0,0,1-.76-2.41,3.79,3.79,0,0,1,.29-1.62,3,3,0,0,1,1.1-1.17,18.33,18.33,0,0,1,10-3.06,14.4,14.4,0,0,1,5.85,1.11,8.68,8.68,0,0,1,3.89,3.15,8.19,8.19,0,0,1,1.37,4.7,11.3,11.3,0,0,1-1.1,5,21.31,21.31,0,0,1-3.76,5.06L55.42,56h9A4.66,4.66,0,0,1,67.42,56.76Z"/><path d="M90.55,43.08a9.17,9.17,0,0,1,3.55,3.6A10.78,10.78,0,0,1,95.38,52a10.66,10.66,0,0,1-1.53,5.72,10.12,10.12,0,0,1-4.32,3.82A14.58,14.58,0,0,1,83.1,62.9a18.77,18.77,0,0,1-5.47-.81A14.9,14.9,0,0,1,73,59.84,4,4,0,0,1,72,58.61a3.32,3.32,0,0,1-.34-1.56,3.7,3.7,0,0,1,.77-2.36,2.34,2.34,0,0,1,1.89-1,3,3,0,0,1,1.12.18,14,14,0,0,1,1.35.68l.9.45a24.67,24.67,0,0,0,2.55,1.08,7.39,7.39,0,0,0,2.49.4,5.74,5.74,0,0,0,3.74-1,3.88,3.88,0,0,0,1.21-3.17,4,4,0,0,0-1.26-3.15,5.09,5.09,0,0,0-3.51-1.13,12.22,12.22,0,0,0-2.45.23,15.81,15.81,0,0,0-2.59.81,4.28,4.28,0,0,1-2,.49,3.1,3.1,0,0,1-2.12-.74,2.46,2.46,0,0,1-.85-2V34.69a3.9,3.9,0,0,1,1-2.88,3.82,3.82,0,0,1,2.83-1h14q3.92,0,3.92,3.1t-3.92,3.15H80.89v5.54a11.28,11.28,0,0,1,4.46-.81A10.46,10.46,0,0,1,90.55,43.08Z"/><path d="M92.19,68.47H7.81a7.81,7.81,0,0,0,0,15.62H92.19a7.81,7.81,0,0,0,0-15.62Z"/></svg>