<svg id="Layer_1" data-name="Layer 1" xmlns="http://www.w3.org/2000/svg" viewBox="0 0 100 100"><title>l3_2_1</title><path d="M7.86,58.49Q4.76,54.31,4.75,46.38T7.86,34.32q3.1-4.18,9-4.18a10.54,10.54,0,0,1,9,4.18Q29,38.5,29,46.38t-3.1,12.11q-3.11,4.18-9,4.18T7.86,58.49ZM20,54.08q.95-2.34.95-7.7A22.19,22.19,0,0,0,20,38.73a3.23,3.23,0,0,0-6.21,0q-.95,2.31-.94,7.67t.94,7.7a3.23,3.23,0,0,0,6.21,0Z"/><path d="M33.35,61.28a4.37,4.37,0,0,1,3.13-7.47,4.15,4.15,0,0,1,3.08,1.26,4.51,4.51,0,0,1,0,6.21,4.15,4.15,0,0,1-3.08,1.26A4.21,4.21,0,0,1,33.35,61.28Z"/><path d="M67.42,56.48a3,3,0,0,1,1,2.46,3.12,3.12,0,0,1-1,2.52,4.54,4.54,0,0,1-3,.81H48a3.43,3.43,0,0,1-2.56-1,3.37,3.37,0,0,1-.95-2.45,4.93,4.93,0,0,1,1.53-3.51l9.54-10q3-3.11,3-5.71a3,3,0,0,0-.87-2.34,3.56,3.56,0,0,0-2.5-.81,7.17,7.17,0,0,0-2.41.38A21.22,21.22,0,0,0,50.25,38l-.9.45-.7.38a4.89,4.89,0,0,1-.92.43,2.72,2.72,0,0,1-.86.14,2.29,2.29,0,0,1-1.89-1,3.84,3.84,0,0,1-.76-2.4,3.79,3.79,0,0,1,.29-1.62,3,3,0,0,1,1.1-1.17,18.33,18.33,0,0,1,10-3.06,14.4,14.4,0,0,1,5.85,1.1,8.68,8.68,0,0,1,3.89,3.15,8.19,8.19,0,0,1,1.37,4.7,11.3,11.3,0,0,1-1.1,5,21.31,21.31,0,0,1-3.76,5.06L55.42,55.7h9A4.66,4.66,0,0,1,67.42,56.48Z"/><path d="M74.14,58.49Q71,54.31,71,46.38t3.1-12.06q3.1-4.18,9-4.18a10.54,10.54,0,0,1,9,4.18q3.13,4.18,3.13,12.06T92.14,58.49q-3.11,4.18-9,4.18T74.14,58.49Zm12.11-4.41q.94-2.34.94-7.7t-.94-7.65a3.23,3.23,0,0,0-6.21,0q-.95,2.31-1,7.67t1,7.7a3.23,3.23,0,0,0,6.21,0Z"/><path d="M92.19,68.19H7.81a7.81,7.81,0,0,0,0,15.62H92.19a7.81,7.81,0,0,0,0-15.62Z"/></svg>