<svg id="Layer_1" data-name="Layer 1" xmlns="http://www.w3.org/2000/svg" viewBox="0 0 100 100"><title>l3_2_1</title><path d="M42.89,57.87a3,3,0,0,1,1,2.43q0,3.33-3.92,3.33H24.31q-3.91,0-3.92-3.33a3,3,0,0,1,.95-2.43,4.5,4.5,0,0,1,3-.81H28V40.82l-3.6,2.11a3.05,3.05,0,0,1-1.57.45,2.72,2.72,0,0,1-2.16-1.1,3.79,3.79,0,0,1-.9-2.46A3.07,3.07,0,0,1,21.29,37l7.2-4.18a7.61,7.61,0,0,1,3.74-1.12,4,4,0,0,1,2.9,1.07,4,4,0,0,1,1.1,2.93V57.06h3.69A4.5,4.5,0,0,1,42.89,57.87Z"/><path d="M46.87,62.64a4.53,4.53,0,0,1,0-6.21A4.21,4.21,0,0,1,50,55.17a4.13,4.13,0,0,1,3.08,1.26,4.51,4.51,0,0,1,0,6.21A4.13,4.13,0,0,1,50,63.9,4.21,4.21,0,0,1,46.87,62.64Z"/><path d="M77,44.17a9.07,9.07,0,0,1,3.56,3.6,10.86,10.86,0,0,1,1.28,5.33,10.66,10.66,0,0,1-1.53,5.72A10.12,10.12,0,0,1,76,62.64,14.58,14.58,0,0,1,69.58,64a18.77,18.77,0,0,1-5.47-.81,14.68,14.68,0,0,1-4.61-2.25,3.88,3.88,0,0,1-1.06-1.24,3.25,3.25,0,0,1-.34-1.55,3.62,3.62,0,0,1,.77-2.36,2.31,2.31,0,0,1,1.89-1,3,3,0,0,1,1.12.18,14,14,0,0,1,1.35.68l.9.44a23.37,23.37,0,0,0,2.54,1.08,7.25,7.25,0,0,0,2.5.41,5.8,5.8,0,0,0,3.74-1,3.9,3.9,0,0,0,1.21-3.17,4,4,0,0,0-1.26-3.16,5.13,5.13,0,0,0-3.51-1.12,13,13,0,0,0-2.45.22,18,18,0,0,0-2.59.81,4.17,4.17,0,0,1-2,.5,3.13,3.13,0,0,1-2.12-.74,2.48,2.48,0,0,1-.86-2V35.78a3.49,3.49,0,0,1,3.83-3.88h14Q81,31.9,81,35t-3.92,3.15H67.37v5.53a11.28,11.28,0,0,1,4.46-.81A10.33,10.33,0,0,1,77,44.17Z"/><path d="M92.19,69.55H7.81a7.82,7.82,0,0,0,0,15.63H92.19a7.82,7.82,0,0,0,0-15.63Z"/></svg>