<svg id="Layer_1" data-name="Layer 1" xmlns="http://www.w3.org/2000/svg" viewBox="0 0 100 100"><title>l3_2_1</title><path d="M7.88,58.76q-3.11-4.18-3.1-12.1T7.88,34.6q3.1-4.19,9-4.19a10.54,10.54,0,0,1,9,4.19Q29,38.78,29,46.66t-3.11,12.1q-3.11,4.18-9,4.19T7.88,58.76ZM20,54.35q.95-2.34.94-7.69T20,39a3.23,3.23,0,0,0-6.21,0q-.94,2.31-.95,7.67t.95,7.69a3.23,3.23,0,0,0,6.21,0Z"/><path d="M33.37,61.55a4.53,4.53,0,0,1,0-6.21,4.21,4.21,0,0,1,3.13-1.26,4.13,4.13,0,0,1,3.08,1.26,4.51,4.51,0,0,1,0,6.21,4.13,4.13,0,0,1-3.08,1.26A4.21,4.21,0,0,1,33.37,61.55Z"/><path d="M47.12,58.76Q44,54.58,44,46.66t3.1-12.06q3.1-4.19,9-4.19a10.54,10.54,0,0,1,9,4.19q3.12,4.18,3.13,12.06t-3.11,12.1Q62,62.94,56.12,63T47.12,58.76Zm12.11-4.41q.95-2.34.94-7.69T59.23,39A3.23,3.23,0,0,0,53,39q-.95,2.31-1,7.67t1,7.69a3.23,3.23,0,0,0,6.21,0Z"/><path d="M95.63,56.78a3,3,0,0,1,.94,2.43q0,3.33-3.91,3.33H77c-2.6,0-3.91-1.11-3.91-3.33a3,3,0,0,1,.94-2.43A4.5,4.5,0,0,1,77,56h3.65V39.73l-3.6,2.11a3.05,3.05,0,0,1-1.57.45,2.66,2.66,0,0,1-2.16-1.1,3.73,3.73,0,0,1-.91-2.45A3.06,3.06,0,0,1,74,36l7.2-4.19A7.58,7.58,0,0,1,85,30.64a4,4,0,0,1,2.9,1.08A3.91,3.91,0,0,1,89,34.64V56h3.69A4.5,4.5,0,0,1,95.63,56.78Z"/><path d="M92.19,68.47H7.81a7.81,7.81,0,0,0,0,15.62H92.19a7.81,7.81,0,0,0,0-15.62Z"/></svg>