<svg id="Layer_1" data-name="Layer 1" xmlns="http://www.w3.org/2000/svg" viewBox="0 0 100 100"><title>l3_2_1</title><path d="M42.89,56.51a3,3,0,0,1,1,2.43q0,3.33-3.92,3.33H24.31q-3.91,0-3.92-3.33a3,3,0,0,1,.95-2.43,4.5,4.5,0,0,1,3-.81H28V39.45l-3.6,2.12a3.05,3.05,0,0,1-1.57.45,2.7,2.7,0,0,1-2.16-1.11,3.77,3.77,0,0,1-.9-2.45,3.05,3.05,0,0,1,1.57-2.79l7.2-4.18a7.63,7.63,0,0,1,3.74-1.13,3.75,3.75,0,0,1,4,4V55.7h3.69A4.5,4.5,0,0,1,42.89,56.51Z"/><path d="M46.87,61.28a4.53,4.53,0,0,1,0-6.21A4.21,4.21,0,0,1,50,53.81a4.13,4.13,0,0,1,3.08,1.26,4.51,4.51,0,0,1,0,6.21A4.13,4.13,0,0,1,50,62.54,4.21,4.21,0,0,1,46.87,61.28Z"/><path d="M60.62,58.49q-3.1-4.18-3.11-12.11t3.11-12.06q3.1-4.18,9-4.18a10.54,10.54,0,0,1,9,4.18q3.12,4.18,3.12,12.06t-3.1,12.11q-3.11,4.18-9,4.18T60.62,58.49Zm12.1-4.41q.94-2.34,1-7.7a22.19,22.19,0,0,0-1-7.65,3.23,3.23,0,0,0-6.21,0c-.62,1.54-.94,4.1-.94,7.67a22.72,22.72,0,0,0,.94,7.7,3.23,3.23,0,0,0,6.21,0Z"/><path d="M92.19,68.19H7.81a7.81,7.81,0,0,0,0,15.62H92.19a7.81,7.81,0,0,0,0-15.62Z"/></svg>