<svg id="Layer_1" data-name="Layer 1" xmlns="http://www.w3.org/2000/svg" viewBox="0 0 100 100"><title>l3_2_1</title><path d="M7.88,59.85q-3.11-4.18-3.1-12.11t3.1-12.06q3.1-4.18,9-4.18a10.54,10.54,0,0,1,9,4.18Q29,39.86,29,47.74T25.88,59.85Q22.78,64,16.88,64T7.88,59.85ZM20,55.44c.63-1.56.94-4.12.94-7.7s-.31-6.08-.94-7.65a3.23,3.23,0,0,0-6.21,0q-.94,2.32-.95,7.67c0,3.58.32,6.14.95,7.7a3.23,3.23,0,0,0,6.21,0Z"/><path d="M33.37,62.64a4.53,4.53,0,0,1,0-6.21,4.21,4.21,0,0,1,3.13-1.26,4.13,4.13,0,0,1,3.08,1.26,4.51,4.51,0,0,1,0,6.21A4.13,4.13,0,0,1,36.5,63.9,4.21,4.21,0,0,1,33.37,62.64Z"/><path d="M47.12,59.85Q44,55.67,44,47.74t3.1-12.06q3.1-4.18,9-4.18a10.54,10.54,0,0,1,9,4.18q3.12,4.18,3.13,12.06T65.12,59.85Q62,64,56.12,64T47.12,59.85Zm12.11-4.41c.63-1.56.94-4.12.94-7.7s-.31-6.08-.94-7.65a3.23,3.23,0,0,0-6.21,0q-.95,2.32-1,7.67c0,3.58.32,6.14,1,7.7a3.23,3.23,0,0,0,6.21,0Z"/><path d="M93,50.08A8,8,0,0,1,94.5,55,7.84,7.84,0,0,1,93,59.76a9.48,9.48,0,0,1-4.21,3.13A17,17,0,0,1,82.44,64a19.77,19.77,0,0,1-5.62-.79,14.37,14.37,0,0,1-4.68-2.27,3.18,3.18,0,0,1-1.4-2.79,3.68,3.68,0,0,1,.77-2.36,2.31,2.31,0,0,1,1.89-1,3,3,0,0,1,1.12.2c.34.14.78.36,1.35.65.12.07.27.13.43.21l.56.24a19.88,19.88,0,0,0,2.59,1.11A8.34,8.34,0,0,0,82,57.6a6.22,6.22,0,0,0,3.62-.81,3.12,3.12,0,0,0,1.11-2.7,2.83,2.83,0,0,0-1.13-2.52A6.76,6.76,0,0,0,82,50.8H79.16A2.58,2.58,0,0,1,77,49.86a3.71,3.71,0,0,1,0-4.5,2.59,2.59,0,0,1,2.12-1h2a6.79,6.79,0,0,0,3.6-.72,2.5,2.5,0,0,0,1.12-2.29,3.38,3.38,0,0,0-1-2.59,3.88,3.88,0,0,0-2.74-.92,6.76,6.76,0,0,0-2.36.4,24.86,24.86,0,0,0-2.46,1.08l-.94.45q-.86.45-1.35.66a3.06,3.06,0,0,1-1.12.2,2.33,2.33,0,0,1-1.9-1,3.67,3.67,0,0,1-.76-2.36,3.09,3.09,0,0,1,1.4-2.79,14.83,14.83,0,0,1,4.56-2.25,18,18,0,0,1,5.33-.81,15,15,0,0,1,5.88,1.08,8.79,8.79,0,0,1,3.91,3.06,7.82,7.82,0,0,1,1.37,4.59,7.43,7.43,0,0,1-1.28,4.34,7.19,7.19,0,0,1-3.58,2.72A7.71,7.71,0,0,1,93,50.08Z"/><path d="M92.19,69.55H7.81a7.82,7.82,0,0,0,0,15.63H92.19a7.82,7.82,0,0,0,0-15.63Z"/></svg>