<svg id="Layer_1" data-name="Layer 1" xmlns="http://www.w3.org/2000/svg" viewBox="0 0 100 100"><title>l3_2_1</title><path d="M21.38,59.85q-3.11-4.18-3.1-12.1t3.1-12.06q3.11-4.18,9-4.19a10.54,10.54,0,0,1,9,4.19q3.12,4.19,3.13,12.06t-3.11,12.1q-3.1,4.18-9,4.18T21.38,59.85Zm12.11-4.41q.94-2.34.94-7.69t-.94-7.66a3.24,3.24,0,0,0-6.21,0q-.95,2.32-1,7.68t1,7.69a3.23,3.23,0,0,0,6.21,0Z"/><path d="M46.87,62.64a4.53,4.53,0,0,1,0-6.21A4.21,4.21,0,0,1,50,55.17a4.13,4.13,0,0,1,3.08,1.26,4.51,4.51,0,0,1,0,6.21A4.13,4.13,0,0,1,50,63.9,4.21,4.21,0,0,1,46.87,62.64Z"/><path d="M79.5,50.09A8,8,0,0,1,81,55a7.85,7.85,0,0,1-1.49,4.77,9.48,9.48,0,0,1-4.21,3.13A16.93,16.93,0,0,1,69,64a19.79,19.79,0,0,1-5.63-.79,14.37,14.37,0,0,1-4.68-2.27,3.14,3.14,0,0,1-1.39-2.79A3.67,3.67,0,0,1,58,55.78a2.31,2.31,0,0,1,1.89-1A3.11,3.11,0,0,1,61,55q.49.21,1.35.66l.42.2.57.25A20.43,20.43,0,0,0,66,57.22a8.34,8.34,0,0,0,2.59.38,6.22,6.22,0,0,0,3.62-.81,3.12,3.12,0,0,0,1.11-2.7,2.83,2.83,0,0,0-1.13-2.52,6.76,6.76,0,0,0-3.69-.77H65.66a2.56,2.56,0,0,1-2.11-.94,3.67,3.67,0,0,1,0-4.5,2.56,2.56,0,0,1,2.11-.94h2a6.89,6.89,0,0,0,3.6-.72,2.54,2.54,0,0,0,1.13-2.3,3.41,3.41,0,0,0-1-2.59,3.91,3.91,0,0,0-2.75-.92,6.77,6.77,0,0,0-2.36.41,23.79,23.79,0,0,0-2.45,1.08l-1,.44c-.57.31-1,.52-1.35.66a3,3,0,0,1-1.12.2,2.31,2.31,0,0,1-1.89-1,3.62,3.62,0,0,1-.77-2.36,3.48,3.48,0,0,1,.32-1.57,3.53,3.53,0,0,1,1.08-1.22,15,15,0,0,1,4.56-2.25A18.11,18.11,0,0,1,69,31.5a14.92,14.92,0,0,1,5.87,1.08,8.79,8.79,0,0,1,3.91,3.06,7.83,7.83,0,0,1,1.38,4.59,7.43,7.43,0,0,1-1.29,4.34,7.24,7.24,0,0,1-3.57,2.73A7.67,7.67,0,0,1,79.5,50.09Z"/><path d="M92.19,69.55H7.81a7.82,7.82,0,0,0,0,15.63H92.19a7.82,7.82,0,0,0,0-15.63Z"/></svg>