<svg id="Layer_1" data-name="Layer 1" xmlns="http://www.w3.org/2000/svg" viewBox="0 0 100 100"><title>l3_2_1</title><path d="M29.37,57.87a3,3,0,0,1,.94,2.43q0,3.33-3.91,3.33H10.78q-3.91,0-3.91-3.33a3,3,0,0,1,.94-2.43,4.5,4.5,0,0,1,3-.81h3.65V40.82l-3.6,2.11a3.09,3.09,0,0,1-1.58.45,2.72,2.72,0,0,1-2.16-1.1,3.79,3.79,0,0,1-.9-2.46A3.08,3.08,0,0,1,7.77,37L15,32.85a7.58,7.58,0,0,1,3.73-1.12,4,4,0,0,1,2.91,1.07,4,4,0,0,1,1.1,2.93V57.06H26.4A4.5,4.5,0,0,1,29.37,57.87Z"/><path d="M33.35,62.64a4.37,4.37,0,0,1,3.13-7.47,4.15,4.15,0,0,1,3.08,1.26,4.51,4.51,0,0,1,0,6.21,4.15,4.15,0,0,1-3.08,1.26A4.21,4.21,0,0,1,33.35,62.64Z"/><path d="M67.42,57.85a3,3,0,0,1,1,2.45,3.12,3.12,0,0,1-1,2.52,4.54,4.54,0,0,1-3,.81H48a3.39,3.39,0,0,1-2.56-1,3.36,3.36,0,0,1-.95-2.45,4.93,4.93,0,0,1,1.53-3.51l9.54-9.94q3-3.1,3-5.72a3,3,0,0,0-.87-2.34,3.56,3.56,0,0,0-2.5-.81,7.43,7.43,0,0,0-2.41.38,23.26,23.26,0,0,0-2.54,1.11l-.9.44c-.12.07-.36.19-.7.39a4.78,4.78,0,0,1-.92.42,2.46,2.46,0,0,1-.86.14,2.3,2.3,0,0,1-1.89-1,3.89,3.89,0,0,1-.76-2.41,3.79,3.79,0,0,1,.29-1.62,3,3,0,0,1,1.1-1.17,18.33,18.33,0,0,1,10-3.06,14.57,14.57,0,0,1,5.85,1.1,8.81,8.81,0,0,1,3.89,3.15,8.24,8.24,0,0,1,1.37,4.71,11.22,11.22,0,0,1-1.1,5,20.92,20.92,0,0,1-3.76,5.06l-6.39,6.53h9A4.6,4.6,0,0,1,67.42,57.85Z"/><path d="M90.55,44.17a9,9,0,0,1,3.55,3.6,11.59,11.59,0,0,1-.25,11,10.12,10.12,0,0,1-4.32,3.82A14.58,14.58,0,0,1,83.1,64a18.77,18.77,0,0,1-5.47-.81A14.9,14.9,0,0,1,73,60.93,3.88,3.88,0,0,1,72,59.69a3.25,3.25,0,0,1-.34-1.55,3.68,3.68,0,0,1,.77-2.36,2.31,2.31,0,0,1,1.89-1A3,3,0,0,1,75.4,55a14,14,0,0,1,1.35.68l.9.44a22.65,22.65,0,0,0,2.55,1.08,7.39,7.39,0,0,0,2.49.41,5.8,5.8,0,0,0,3.74-1,3.9,3.9,0,0,0,1.21-3.17,4,4,0,0,0-1.26-3.16,5.13,5.13,0,0,0-3.51-1.12,13,13,0,0,0-2.45.22,18,18,0,0,0-2.59.81,4.17,4.17,0,0,1-2,.5,3.15,3.15,0,0,1-2.12-.74,2.47,2.47,0,0,1-.85-2V35.78a3.89,3.89,0,0,1,1-2.88,3.83,3.83,0,0,1,2.83-1h14q3.92,0,3.92,3.11t-3.92,3.15H80.89v5.53a11.28,11.28,0,0,1,4.46-.81A10.37,10.37,0,0,1,90.55,44.17Z"/><path d="M92.19,69.55H7.81a7.82,7.82,0,0,0,0,15.63H92.19a7.82,7.82,0,0,0,0-15.63Z"/></svg>