<svg id="Layer_1" data-name="Layer 1" xmlns="http://www.w3.org/2000/svg" viewBox="0 0 100 100"><title>l3_2_1</title><path d="M21.38,58.76q-3.11-4.18-3.1-12.1t3.1-12.06q3.11-4.19,9-4.19a10.54,10.54,0,0,1,9,4.19q3.12,4.18,3.13,12.06t-3.11,12.1q-3.1,4.18-9,4.19T21.38,58.76Zm12.11-4.41q.94-2.34.94-7.69T33.49,39a3.23,3.23,0,0,0-6.21,0q-.95,2.31-1,7.67t1,7.69a3.23,3.23,0,0,0,6.21,0Z"/><path d="M46.87,61.55a4.53,4.53,0,0,1,0-6.21A4.21,4.21,0,0,1,50,54.08a4.13,4.13,0,0,1,3.08,1.26,4.51,4.51,0,0,1,0,6.21A4.13,4.13,0,0,1,50,62.81,4.21,4.21,0,0,1,46.87,61.55Z"/><path d="M82.13,56.78a3,3,0,0,1,1,2.43q0,3.33-3.92,3.33H63.55q-3.91,0-3.92-3.33a3,3,0,0,1,.95-2.43,4.5,4.5,0,0,1,3-.81h3.64V39.73l-3.6,2.11a3.05,3.05,0,0,1-1.57.45,2.69,2.69,0,0,1-2.16-1.1,3.77,3.77,0,0,1-.9-2.45A3.05,3.05,0,0,1,60.53,36l7.2-4.19a7.61,7.61,0,0,1,3.74-1.12,4,4,0,0,1,2.9,1.08,3.91,3.91,0,0,1,1.1,2.92V56h3.69A4.5,4.5,0,0,1,82.13,56.78Z"/><path d="M92.19,68.47H7.81a7.81,7.81,0,0,0,0,15.62H92.19a7.81,7.81,0,0,0,0-15.62Z"/></svg>