<svg id="Layer_1" data-name="Layer 1" xmlns="http://www.w3.org/2000/svg" viewBox="0 0 100 100"><title>l3_2_1</title><path d="M42.87,57.87a3,3,0,0,1,.94,2.43q0,3.33-3.91,3.33H24.28q-3.91,0-3.91-3.33a3,3,0,0,1,.94-2.43,4.5,4.5,0,0,1,3-.81h3.65V40.82l-3.6,2.11a3.09,3.09,0,0,1-1.58.45,2.72,2.72,0,0,1-2.16-1.1,3.79,3.79,0,0,1-.9-2.46A3.08,3.08,0,0,1,21.27,37l7.2-4.18a7.58,7.58,0,0,1,3.73-1.12,4,4,0,0,1,2.91,1.07,4,4,0,0,1,1.1,2.93V57.06H39.9A4.5,4.5,0,0,1,42.87,57.87Z"/><path d="M46.85,62.64A4.37,4.37,0,0,1,50,55.17a4.15,4.15,0,0,1,3.08,1.26,4.51,4.51,0,0,1,0,6.21A4.15,4.15,0,0,1,50,63.9,4.21,4.21,0,0,1,46.85,62.64Z"/><path d="M80.91,57.85a3,3,0,0,1,1,2.45,3.09,3.09,0,0,1-1,2.52,4.49,4.49,0,0,1-2.94.81H61.54a3.39,3.39,0,0,1-2.56-1A3.36,3.36,0,0,1,58,60.21a4.93,4.93,0,0,1,1.53-3.51l9.54-9.94q3-3.1,3-5.72a3,3,0,0,0-.88-2.34,3.52,3.52,0,0,0-2.49-.81,7.43,7.43,0,0,0-2.41.38,22.45,22.45,0,0,0-2.54,1.11l-.9.44c-.12.07-.36.19-.7.39a5.07,5.07,0,0,1-.92.42,2.46,2.46,0,0,1-.86.14,2.3,2.3,0,0,1-1.89-1,3.89,3.89,0,0,1-.76-2.41A3.79,3.79,0,0,1,58,35.73a2.94,2.94,0,0,1,1.1-1.17,18.33,18.33,0,0,1,10-3.06,14.57,14.57,0,0,1,5.85,1.1,8.87,8.87,0,0,1,3.89,3.15,8.32,8.32,0,0,1,1.37,4.71,11.36,11.36,0,0,1-1.1,5,20.92,20.92,0,0,1-3.76,5.06l-6.39,6.53h9A4.55,4.55,0,0,1,80.91,57.85Z"/><path d="M92.19,69.55H7.81a7.82,7.82,0,0,0,0,15.63H92.19a7.82,7.82,0,0,0,0-15.63Z"/></svg>