<svg id="Layer_1" data-name="Layer 1" xmlns="http://www.w3.org/2000/svg" viewBox="0 0 100 100"><title>l3_2_1</title><path d="M21.36,58.76q-3.11-4.18-3.11-12.1T21.36,34.6q3.11-4.19,9-4.19a10.54,10.54,0,0,1,9,4.19q3.12,4.18,3.12,12.06t-3.1,12.1q-3.11,4.18-9,4.19T21.36,58.76Zm12.1-4.41q.95-2.34.95-7.69A22.19,22.19,0,0,0,33.46,39a3.23,3.23,0,0,0-6.21,0q-.95,2.31-.94,7.67t.94,7.69a3.23,3.23,0,0,0,6.21,0Z"/><path d="M46.85,61.55A4.37,4.37,0,0,1,50,54.08a4.15,4.15,0,0,1,3.08,1.26,4.51,4.51,0,0,1,0,6.21A4.15,4.15,0,0,1,50,62.81,4.21,4.21,0,0,1,46.85,61.55Z"/><path d="M80.91,56.76a3,3,0,0,1,1,2.45,3.09,3.09,0,0,1-1,2.52,4.49,4.49,0,0,1-2.94.81H61.54A3.28,3.28,0,0,1,58,59.12a4.93,4.93,0,0,1,1.53-3.51l9.54-9.94q3-3.11,3-5.72a3,3,0,0,0-.88-2.34,3.52,3.52,0,0,0-2.49-.81,7.17,7.17,0,0,0-2.41.39,20.55,20.55,0,0,0-2.54,1.1l-.9.45-.7.38a5.2,5.2,0,0,1-.92.43,2.71,2.71,0,0,1-.86.13,2.28,2.28,0,0,1-1.89-1,3.87,3.87,0,0,1-.76-2.41A3.79,3.79,0,0,1,58,34.64a2.94,2.94,0,0,1,1.1-1.17,18.33,18.33,0,0,1,10-3.06,14.4,14.4,0,0,1,5.85,1.11,8.74,8.74,0,0,1,3.89,3.15,8.26,8.26,0,0,1,1.37,4.7,11.44,11.44,0,0,1-1.1,5,21.31,21.31,0,0,1-3.76,5.06L68.92,56h9A4.61,4.61,0,0,1,80.91,56.76Z"/><path d="M92.19,68.47H7.81a7.81,7.81,0,0,0,0,15.62H92.19a7.81,7.81,0,0,0,0-15.62Z"/></svg>