<svg id="Layer_1" data-name="Layer 1" xmlns="http://www.w3.org/2000/svg" viewBox="0 0 100 100"><title>l3_2_1</title><path d="M7.88,58.49q-3.11-4.18-3.1-12.11t3.1-12.06q3.1-4.18,9-4.18a10.54,10.54,0,0,1,9,4.18Q29,38.5,29,46.38T25.88,58.49q-3.11,4.18-9,4.18T7.88,58.49ZM20,54.08q.95-2.34.94-7.7T20,38.73a3.23,3.23,0,0,0-6.21,0q-.94,2.31-.95,7.67t.95,7.7a3.23,3.23,0,0,0,6.21,0Z"/><path d="M33.37,61.28a4.53,4.53,0,0,1,0-6.21,4.21,4.21,0,0,1,3.13-1.26,4.13,4.13,0,0,1,3.08,1.26,4.51,4.51,0,0,1,0,6.21,4.13,4.13,0,0,1-3.08,1.26A4.21,4.21,0,0,1,33.37,61.28Z"/><path d="M67.71,31.51A3.52,3.52,0,0,1,68.59,34a5.75,5.75,0,0,1-.86,3L54.09,60.56a4,4,0,0,1-1.55,1.59,3.79,3.79,0,0,1-1.91.52,4.1,4.1,0,0,1-2.79-1.06A3.28,3.28,0,0,1,46.63,59a4.25,4.25,0,0,1,.63-2.16L58.82,37.11H47.57a4.47,4.47,0,0,1-3-.81,3,3,0,0,1-.92-2.43,3.16,3.16,0,0,1,.94-2.5,4.44,4.44,0,0,1,3-.83H65.21A3.2,3.2,0,0,1,67.71,31.51Z"/><path d="M90.52,42.8a9.2,9.2,0,0,1,3.56,3.6,10.93,10.93,0,0,1,1.28,5.34,10.63,10.63,0,0,1-1.53,5.71,10.14,10.14,0,0,1-4.32,3.83,14.58,14.58,0,0,1-6.43,1.35,18.72,18.72,0,0,1-5.47-.81A14.68,14.68,0,0,1,73,59.57a3.86,3.86,0,0,1-1.06-1.24,3.28,3.28,0,0,1-.34-1.55,3.72,3.72,0,0,1,.76-2.37,2.35,2.35,0,0,1,1.9-1,3.06,3.06,0,0,1,1.12.18,13.39,13.39,0,0,1,1.35.67l.9.45a25.54,25.54,0,0,0,2.54,1.08,7.49,7.49,0,0,0,2.5.41,5.76,5.76,0,0,0,3.74-1,3.88,3.88,0,0,0,1.21-3.17,4,4,0,0,0-1.26-3.15,5.09,5.09,0,0,0-3.51-1.12A12.26,12.26,0,0,0,80.4,48a15.81,15.81,0,0,0-2.59.81,4.3,4.3,0,0,1-2,.5,3.08,3.08,0,0,1-2.11-.75,2.45,2.45,0,0,1-.86-2V34.41a3.9,3.9,0,0,1,1-2.88,3.85,3.85,0,0,1,2.84-1h14q3.91,0,3.92,3.11T90.59,36.8H80.87v5.53a11.24,11.24,0,0,1,4.46-.81A10.43,10.43,0,0,1,90.52,42.8Z"/><path d="M92.19,68.19H7.81a7.81,7.81,0,0,0,0,15.62H92.19a7.81,7.81,0,0,0,0-15.62Z"/></svg>