<svg id="Layer_1" data-name="Layer 1" xmlns="http://www.w3.org/2000/svg" viewBox="0 0 100 100"><title>l3_3_1</title><path d="M23.77,48.84c0-2.54,1.52-3.8,4.56-3.8H38.67a5.1,5.1,0,0,1,3.44,1,3.55,3.55,0,0,1,1.13,2.81,3.62,3.62,0,0,1-1.13,2.83,5,5,0,0,1-3.44,1H28.33C25.29,52.69,23.77,51.4,23.77,48.84Z"/><path d="M76.43,26a4.3,4.3,0,0,1,1.07,3,7.12,7.12,0,0,1-1,3.64L59.79,61.54a5.1,5.1,0,0,1-1.9,2,4.73,4.73,0,0,1-2.33.64,5,5,0,0,1-3.41-1.3,4,4,0,0,1-1.49-3.16A5.23,5.23,0,0,1,51.43,57L65.57,32.89H51.82a5.54,5.54,0,0,1-3.66-1,3.75,3.75,0,0,1-1.13-3,3.87,3.87,0,0,1,1.16-3.06,5.39,5.39,0,0,1,3.63-1H73.38A3.9,3.9,0,0,1,76.43,26Z"/><path d="M92.19,69.55H7.81a7.82,7.82,0,0,0,0,15.63H92.19a7.82,7.82,0,0,0,0-15.63Z"/></svg>