<svg id="Layer_1" data-name="Layer 1" xmlns="http://www.w3.org/2000/svg" viewBox="0 0 100 100"><title>l3_3_1</title><path d="M23.77,47.75q0-3.8,4.56-3.8H38.67a5.1,5.1,0,0,1,3.44,1,3.55,3.55,0,0,1,1.13,2.81,3.62,3.62,0,0,1-1.13,2.83,5,5,0,0,1-3.44,1H28.33Q23.77,51.6,23.77,47.75Z"/><path d="M72.88,28.33q4.23,5.07,4.23,14.41a26.66,26.66,0,0,1-2,10.76,16,16,0,0,1-5.67,7.06A14.9,14.9,0,0,1,60.89,63a21.41,21.41,0,0,1-6.3-1,17.62,17.62,0,0,1-5.52-2.75,4.62,4.62,0,0,1-1.35-1.49,4,4,0,0,1-.41-1.92,4.44,4.44,0,0,1,1-2.89,2.91,2.91,0,0,1,2.34-1.18,3.49,3.49,0,0,1,1.37.25c.4.16,1,.43,1.65.79l1.21.61a32.32,32.32,0,0,0,3,1.32,7.5,7.5,0,0,0,2.54.44,5.24,5.24,0,0,0,4.53-2.56A14.46,14.46,0,0,0,67,45.49a8.67,8.67,0,0,1-3.38,2.78,10.55,10.55,0,0,1-4.64,1A11.1,11.1,0,0,1,53,47.67a11.4,11.4,0,0,1-4.16-4.51,13.84,13.84,0,0,1-1.51-6.52,13.75,13.75,0,0,1,1.73-6.9A12.26,12.26,0,0,1,53.91,25a14.13,14.13,0,0,1,7-1.71Q68.65,23.27,72.88,28.33ZM64.93,40.05a5.46,5.46,0,0,0,1.3-3.8,5.42,5.42,0,0,0-1.32-3.76,4.76,4.76,0,0,0-6.83,0,5.52,5.52,0,0,0-1.26,3.79,5.57,5.57,0,0,0,1.24,3.83,4.35,4.35,0,0,0,3.43,1.4A4.41,4.41,0,0,0,64.93,40.05Z"/><path d="M92.19,68.47H7.81a7.81,7.81,0,0,0,0,15.62H92.19a7.81,7.81,0,0,0,0-15.62Z"/></svg>