<svg id="Layer_1" data-name="Layer 1" xmlns="http://www.w3.org/2000/svg" viewBox="0 0 100 100"><title>l3_3_1</title><path d="M23.74,47.47q0-3.8,4.56-3.79H38.64a5.1,5.1,0,0,1,3.44,1,3.53,3.53,0,0,1,1.13,2.8,3.61,3.61,0,0,1-1.13,2.83,5,5,0,0,1-3.44,1H28.3Q23.74,51.32,23.74,47.47Z"/><path d="M76.07,55.2a3.63,3.63,0,0,1,1.18,3,3.79,3.79,0,0,1-1.18,3.08,5.52,5.52,0,0,1-3.6,1H52.39a4.17,4.17,0,0,1-3.13-1.19,4.09,4.09,0,0,1-1.16-3A6,6,0,0,1,50,53.8L61.63,41.64q3.63-3.8,3.63-7a3.71,3.71,0,0,0-1.07-2.86,4.34,4.34,0,0,0-3-1,9,9,0,0,0-3,.46,29.94,29.94,0,0,0-3.1,1.35l-1.1.55c-.15.07-.43.23-.86.47a6.32,6.32,0,0,1-1.12.52,3.3,3.3,0,0,1-1,.17,2.84,2.84,0,0,1-2.31-1.24,4.78,4.78,0,0,1-.93-2.94,4.84,4.84,0,0,1,.35-2,3.62,3.62,0,0,1,1.35-1.43A22.37,22.37,0,0,1,61.58,23a17.88,17.88,0,0,1,7.15,1.34,10.75,10.75,0,0,1,4.75,3.85,10.09,10.09,0,0,1,1.68,5.75,14,14,0,0,1-1.34,6.13,25.45,25.45,0,0,1-4.6,6.19l-7.81,8H72.47A5.65,5.65,0,0,1,76.07,55.2Z"/><path d="M92.19,68.19H7.81a7.81,7.81,0,0,0,0,15.62H92.19a7.81,7.81,0,0,0,0-15.62Z"/></svg>