<svg id="Layer_1" data-name="Layer 1" xmlns="http://www.w3.org/2000/svg" viewBox="0 0 100 100"><title>l3_3_1</title><path d="M23.77,47.47q0-3.8,4.56-3.79H38.67a5.1,5.1,0,0,1,3.44,1,3.52,3.52,0,0,1,1.12,2.8,3.6,3.6,0,0,1-1.12,2.83,5,5,0,0,1-3.44,1H28.33Q23.77,51.32,23.77,47.47Z"/><path d="M71.51,38.37a11.31,11.31,0,0,1,4.15,4.51,14.72,14.72,0,0,1-.22,13.42,12.36,12.36,0,0,1-4.81,4.76,14.29,14.29,0,0,1-7,1.7q-7.76,0-12-5.06T47.41,43.29a26.61,26.61,0,0,1,2-10.75,16,16,0,0,1,5.67-7.07A14.89,14.89,0,0,1,63.64,23a21.41,21.41,0,0,1,6.3,1,17.47,17.47,0,0,1,5.53,2.75,4.67,4.67,0,0,1,1.34,1.48,4,4,0,0,1,.42,1.93,4.42,4.42,0,0,1-1,2.88,2.91,2.91,0,0,1-2.33,1.19A3.69,3.69,0,0,1,72.55,34c-.4-.17-1-.43-1.65-.8l-1.21-.6a31.22,31.22,0,0,0-3-1.32,7.11,7.11,0,0,0-2.52-.44,5.27,5.27,0,0,0-4.54,2.55,14.6,14.6,0,0,0-2.06,7.18,8.76,8.76,0,0,1,3.38-2.78,10.7,10.7,0,0,1,4.65-1A11.15,11.15,0,0,1,71.51,38.37ZM66.45,53.58a5.55,5.55,0,0,0,1.26-3.8A5.54,5.54,0,0,0,66.47,46,4.31,4.31,0,0,0,63,44.56,4.39,4.39,0,0,0,59.6,46a5.43,5.43,0,0,0-1.29,3.79,5.35,5.35,0,0,0,1.32,3.77,4.75,4.75,0,0,0,6.82,0Z"/><path d="M92.19,68.19H7.81a7.81,7.81,0,0,0,0,15.62H92.19a7.81,7.81,0,0,0,0-15.62Z"/></svg>