<svg id="Layer_1" data-name="Layer 1" xmlns="http://www.w3.org/2000/svg" viewBox="0 0 100 100"><title>l3_3_1</title><path d="M7.24,48.84c0-2.54,1.52-3.8,4.56-3.8H22.14a5.1,5.1,0,0,1,3.44,1,3.55,3.55,0,0,1,1.13,2.81,3.62,3.62,0,0,1-1.13,2.83,5,5,0,0,1-3.44,1H11.8C8.76,52.69,7.24,51.4,7.24,48.84Z"/><path d="M61,56.59a3.69,3.69,0,0,1,1.15,3q0,4.06-4.78,4.07H38.31q-4.79,0-4.78-4.07a3.69,3.69,0,0,1,1.15-3,5.5,5.5,0,0,1,3.63-1h4.46V35.75l-4.4,2.58a3.75,3.75,0,0,1-1.93.55,3.32,3.32,0,0,1-2.64-1.35,4.65,4.65,0,0,1-1.1-3,3.72,3.72,0,0,1,1.93-3.4L43.43,26A9.25,9.25,0,0,1,48,24.63,4.82,4.82,0,0,1,51.54,26a4.76,4.76,0,0,1,1.35,3.57V55.6H57.4A5.5,5.5,0,0,1,61,56.59Z"/><path d="M92.57,56.56a3.63,3.63,0,0,1,1.18,3,3.79,3.79,0,0,1-1.18,3.08,5.52,5.52,0,0,1-3.6,1H68.89a4,4,0,0,1-4.29-4.18,6,6,0,0,1,1.87-4.29L78.13,43q3.63-3.8,3.63-7a3.68,3.68,0,0,0-1.07-2.86,4.32,4.32,0,0,0-3-1,8.89,8.89,0,0,0-2.94.47A25.52,25.52,0,0,0,71.59,34l-1.1.54-.85.47a6.86,6.86,0,0,1-1.13.53,3.6,3.6,0,0,1-1.05.16,2.81,2.81,0,0,1-2.31-1.24,4.73,4.73,0,0,1-.93-2.94,4.67,4.67,0,0,1,.36-2,3.58,3.58,0,0,1,1.34-1.43,22.44,22.44,0,0,1,12.16-3.74,17.71,17.71,0,0,1,7.15,1.35A10.77,10.77,0,0,1,90,29.56a10.13,10.13,0,0,1,1.67,5.74,14,14,0,0,1-1.34,6.14,25.84,25.84,0,0,1-4.6,6.19l-7.81,8H89A5.65,5.65,0,0,1,92.57,56.56Z"/><path d="M92.19,69.55H7.81a7.82,7.82,0,0,0,0,15.63H92.19a7.82,7.82,0,0,0,0-15.63Z"/></svg>