<svg id="Layer_1" data-name="Layer 1" xmlns="http://www.w3.org/2000/svg" viewBox="0 0 100 100"><title>l3_3_1</title><path d="M23.77,47.75q0-3.8,4.56-3.8H38.67a5.1,5.1,0,0,1,3.44,1,3.55,3.55,0,0,1,1.13,2.81,3.62,3.62,0,0,1-1.13,2.83,5,5,0,0,1-3.44,1H28.33Q23.77,51.6,23.77,47.75Z"/><path d="M77.56,55.5a3.73,3.73,0,0,1,1.15,3c0,2.72-1.6,4.07-4.78,4.07H54.84c-3.19,0-4.78-1.35-4.78-4.07a3.69,3.69,0,0,1,1.15-3,5.5,5.5,0,0,1,3.63-1h4.45V34.66L54.9,37.24a3.75,3.75,0,0,1-1.93.55,3.31,3.31,0,0,1-2.64-1.34,4.65,4.65,0,0,1-1.1-3A3.73,3.73,0,0,1,51.16,30L60,24.92a9.4,9.4,0,0,1,4.57-1.37,4.86,4.86,0,0,1,3.55,1.32,4.76,4.76,0,0,1,1.34,3.57V54.51h4.52A5.54,5.54,0,0,1,77.56,55.5Z"/><path d="M92.19,68.47H7.81a7.81,7.81,0,0,0,0,15.62H92.19a7.81,7.81,0,0,0,0-15.62Z"/></svg>