<svg id="Layer_1" data-name="Layer 1" xmlns="http://www.w3.org/2000/svg" viewBox="0 0 100 100"><title>l3_3_1</title><path d="M7.27,47.47q0-3.8,4.56-3.79H22.17a5.1,5.1,0,0,1,3.44,1,3.52,3.52,0,0,1,1.12,2.8,3.6,3.6,0,0,1-1.12,2.83,5,5,0,0,1-3.44,1H11.83Q7.27,51.32,7.27,47.47Z"/><path d="M61.06,55.23a3.73,3.73,0,0,1,1.15,3q0,4.06-4.78,4.07H38.34q-4.79,0-4.78-4.07a3.69,3.69,0,0,1,1.15-3,5.5,5.5,0,0,1,3.63-1H42.8V34.38L38.4,37a3.85,3.85,0,0,1-1.93.55,3.3,3.3,0,0,1-2.64-1.35,4.65,4.65,0,0,1-1.1-3,3.74,3.74,0,0,1,1.92-3.41l8.81-5.11A9.25,9.25,0,0,1,48,23.27a4.86,4.86,0,0,1,3.55,1.32,4.77,4.77,0,0,1,1.34,3.58V54.24h4.52A5.52,5.52,0,0,1,61.06,55.23Z"/><path d="M67.76,57.65Q64,52.54,64,42.85t3.79-14.74q3.8-5.12,11-5.11t11,5.11q3.83,5.12,3.82,14.74t-3.8,14.8q-3.8,5.12-11,5.11T67.76,57.65Zm14.8-5.39c.77-1.91,1.16-5,1.16-9.41s-.39-7.44-1.16-9.35a4,4,0,0,0-7.59,0q-1.16,2.84-1.15,9.38c0,4.37.38,7.5,1.15,9.41s2,2.86,3.79,2.86A4,4,0,0,0,82.56,52.26Z"/><path d="M92.19,68.19H7.81a7.81,7.81,0,0,0,0,15.62H92.19a7.81,7.81,0,0,0,0-15.62Z"/></svg>