<svg id="Layer_1" data-name="Layer 1" xmlns="http://www.w3.org/2000/svg" viewBox="0 0 100 100"><title>l3_3_1</title><path d="M23.77,48.83q0-3.8,4.56-3.79H38.67a5.1,5.1,0,0,1,3.44,1,3.53,3.53,0,0,1,1.13,2.8,3.65,3.65,0,0,1-1.13,2.84,5,5,0,0,1-3.44,1H28.33Q23.77,52.68,23.77,48.83Z"/><path d="M76.43,26a4.3,4.3,0,0,1,1.07,3,7.06,7.06,0,0,1-1,3.63L59.79,61.54a5.1,5.1,0,0,1-1.9,2,4.72,4.72,0,0,1-2.33.63,5,5,0,0,1-3.41-1.29,4,4,0,0,1-1.49-3.16A5.23,5.23,0,0,1,51.43,57L65.57,32.88H51.82a5.49,5.49,0,0,1-3.66-1,3.75,3.75,0,0,1-1.13-3,3.86,3.86,0,0,1,1.16-3.05,5.39,5.39,0,0,1,3.63-1H73.38A3.91,3.91,0,0,1,76.43,26Z"/><path d="M92.19,69.55H7.81a7.82,7.82,0,0,0,0,15.63H92.19a7.82,7.82,0,0,0,0-15.63Z"/></svg>