<svg id="Layer_1" data-name="Layer 1" xmlns="http://www.w3.org/2000/svg" viewBox="0 0 100 100"><title>l3_3_1</title><path d="M23.77,48.83q0-3.8,4.56-3.79H38.67a5.1,5.1,0,0,1,3.44,1,3.53,3.53,0,0,1,1.13,2.8,3.65,3.65,0,0,1-1.13,2.84,5,5,0,0,1-3.44,1H28.33Q23.77,52.68,23.77,48.83Z"/><path d="M74.34,47.07a9.75,9.75,0,0,1,1.84,6,9.58,9.58,0,0,1-1.81,5.83,11.59,11.59,0,0,1-5.15,3.82,20.61,20.61,0,0,1-7.78,1.35,24.47,24.47,0,0,1-6.87-1,17.62,17.62,0,0,1-5.72-2.78,4.24,4.24,0,0,1-1.32-1.51,4.29,4.29,0,0,1-.39-1.9A4.48,4.48,0,0,1,48.08,54a2.83,2.83,0,0,1,2.31-1.18,3.49,3.49,0,0,1,1.37.25c.4.16,1,.43,1.65.79l.52.25.69.3a24,24,0,0,0,3.16,1.35,10.06,10.06,0,0,0,3.17.47,7.61,7.61,0,0,0,4.42-1A3.82,3.82,0,0,0,66.72,52a3.46,3.46,0,0,0-1.37-3.08A8.3,8.3,0,0,0,60.84,48H57.43a3.14,3.14,0,0,1-2.59-1.15,4.53,4.53,0,0,1,0-5.5,3.15,3.15,0,0,1,2.59-1.16h2.42a8.41,8.41,0,0,0,4.4-.88,3.08,3.08,0,0,0,1.37-2.8,4.09,4.09,0,0,0-1.21-3.16,4.73,4.73,0,0,0-3.35-1.13,8.31,8.31,0,0,0-2.89.49,29.55,29.55,0,0,0-3,1.32L54,34.53c-.7.37-1.25.64-1.65.8a3.57,3.57,0,0,1-1.38.25,2.83,2.83,0,0,1-2.31-1.18,4.53,4.53,0,0,1-.93-2.89,4.29,4.29,0,0,1,.38-1.93,4.57,4.57,0,0,1,1.32-1.48A18.41,18.41,0,0,1,55,25.35a22.09,22.09,0,0,1,6.52-1,18.25,18.25,0,0,1,7.18,1.32,10.79,10.79,0,0,1,4.78,3.74A9.58,9.58,0,0,1,75.19,35a9.11,9.11,0,0,1-1.57,5.31,8.85,8.85,0,0,1-4.37,3.32A9.42,9.42,0,0,1,74.34,47.07Z"/><path d="M92.19,69.55H7.81a7.82,7.82,0,0,0,0,15.63H92.19a7.82,7.82,0,0,0,0-15.63Z"/></svg>