<svg id="Layer_1" data-name="Layer 1" xmlns="http://www.w3.org/2000/svg" viewBox="0 0 100 100"><title>l3_4_1</title><path d="M92.19,84.38H7.81a7.81,7.81,0,0,0,0,15.62H92.19a7.81,7.81,0,0,0,0-15.62Z"/><path d="M61.05,28.74A2.9,2.9,0,0,1,62,31.13a3,3,0,0,1-.94,2.46,4.4,4.4,0,0,1-2.88.79h-16A3.2,3.2,0,0,1,38.73,31a4.84,4.84,0,0,1,1.49-3.42l9.31-9.7q2.89-3,2.89-5.57a3,3,0,0,0-.85-2.29,3.51,3.51,0,0,0-2.44-.79,7.11,7.11,0,0,0-2.35.38,23.77,23.77,0,0,0-2.48,1.07l-.87.44-.69.38a5.18,5.18,0,0,1-.89.41,2.63,2.63,0,0,1-.84.13,2.24,2.24,0,0,1-1.84-1,3.77,3.77,0,0,1-.75-2.35,3.75,3.75,0,0,1,.29-1.58A2.92,2.92,0,0,1,39.78,6a17.2,17.2,0,0,1,4.63-2.2A17.38,17.38,0,0,1,49.48,3a14.08,14.08,0,0,1,5.71,1.08A8.57,8.57,0,0,1,59,7.19a8.06,8.06,0,0,1,1.33,4.59,11,11,0,0,1-1.07,4.89,20.64,20.64,0,0,1-3.67,4.94L49.35,28h8.82A4.52,4.52,0,0,1,61.05,28.74Z"/><path d="M57.5,62.6a9.1,9.1,0,0,1,3.32,3.6,11.77,11.77,0,0,1-.18,10.71A9.72,9.72,0,0,1,56.8,80.7a11.26,11.26,0,0,1-5.57,1.36c-4.13,0-7.31-1.34-9.57-4s-3.38-6.53-3.38-11.5A21.22,21.22,0,0,1,39.89,58a12.73,12.73,0,0,1,4.52-5.64,11.89,11.89,0,0,1,6.82-2,16.88,16.88,0,0,1,5,.79,14,14,0,0,1,4.41,2.19,3.8,3.8,0,0,1,1.08,1.19A3.21,3.21,0,0,1,62.07,56a3.56,3.56,0,0,1-.77,2.31,2.33,2.33,0,0,1-1.87.94,2.86,2.86,0,0,1-1.09-.2q-.48-.2-1.32-.63l-1-.49c-1-.46-1.77-.82-2.42-1a5.92,5.92,0,0,0-2-.35,4.21,4.21,0,0,0-3.62,2,11.63,11.63,0,0,0-1.64,5.73,6.88,6.88,0,0,1,2.7-2.22,8.43,8.43,0,0,1,3.7-.81A8.87,8.87,0,0,1,57.5,62.6Zm-4,12.13a5.11,5.11,0,0,0,0-6.07,3.45,3.45,0,0,0-2.74-1.12A3.54,3.54,0,0,0,48,68.68a4.38,4.38,0,0,0-1,3,4.25,4.25,0,0,0,1.06,3,3.48,3.48,0,0,0,2.72,1.17A3.44,3.44,0,0,0,53.47,74.73Z"/><rect x="26.08" y="38.59" width="49.69" height="6.57" rx="3.28"/></svg>