<svg id="Layer_1" data-name="Layer 1" xmlns="http://www.w3.org/2000/svg" viewBox="0 0 100 100"><title>l3_4_1</title><path d="M92.19,84.38H7.81a7.81,7.81,0,0,0,0,15.62H92.19a7.81,7.81,0,0,0,0-15.62Z"/><path d="M63.29,26c0,2.08-1.28,3.12-3.82,3.12h-1v1.49a3.84,3.84,0,0,1-1.09,3,4,4,0,0,1-2.86,1,3.94,3.94,0,0,1-2.83-1,3.87,3.87,0,0,1-1.07-3V29.16H40.86a3.25,3.25,0,0,1-2.5-1,3.34,3.34,0,0,1-.93-2.41,5,5,0,0,1,1-2.9L51,5a4.11,4.11,0,0,1,1.56-1.34,4.5,4.5,0,0,1,2-.46,4.12,4.12,0,0,1,2.86,1.06A3.72,3.72,0,0,1,58.5,7.17V23h1C62,23,63.29,24,63.29,26ZM50.65,23V15.42L45.38,23Z"/><path d="M57.35,62.69a8.88,8.88,0,0,1,3.47,3.51,10.61,10.61,0,0,1,1.25,5.2A10.32,10.32,0,0,1,60.57,77a9.82,9.82,0,0,1-4.21,3.73A14.17,14.17,0,0,1,50.09,82a18.16,18.16,0,0,1-5.33-.79,14.53,14.53,0,0,1-4.5-2.2,3.89,3.89,0,0,1-1-1.2,3.28,3.28,0,0,1-.33-1.52,3.64,3.64,0,0,1,.74-2.3,2.28,2.28,0,0,1,1.85-.94,3.08,3.08,0,0,1,1.09.17,13.14,13.14,0,0,1,1.32.66l.88.44a22.48,22.48,0,0,0,2.48,1,7.08,7.08,0,0,0,2.43.4,5.62,5.62,0,0,0,3.65-1,3.83,3.83,0,0,0,1.18-3.09,3.89,3.89,0,0,0-1.23-3.07,4.92,4.92,0,0,0-3.42-1.1,11.64,11.64,0,0,0-2.39.22,15.06,15.06,0,0,0-2.53.79A4.19,4.19,0,0,1,43,69a3,3,0,0,1-2.06-.72,2.41,2.41,0,0,1-.84-1.91V54.51a3.39,3.39,0,0,1,3.73-3.78H57.42q3.81,0,3.81,3t-3.81,3.07H47.94v5.4a10.88,10.88,0,0,1,4.34-.79A10.19,10.19,0,0,1,57.35,62.69Z"/><rect x="26.08" y="38.59" width="49.69" height="6.57" rx="3.28"/></svg>