<svg id="Layer_1" data-name="Layer 1" xmlns="http://www.w3.org/2000/svg" viewBox="0 0 100 100"><title>l3_4_1</title><path d="M92.19,84.38H7.81a7.81,7.81,0,0,0,0,15.62H92.19a7.81,7.81,0,0,0,0-15.62Z"/><path d="M63.29,26c0,2.08-1.28,3.12-3.82,3.12h-1v1.49a3.84,3.84,0,0,1-1.09,3,4,4,0,0,1-2.86,1,3.94,3.94,0,0,1-2.83-1,3.87,3.87,0,0,1-1.07-3V29.16H40.86a3.25,3.25,0,0,1-2.5-1,3.34,3.34,0,0,1-.93-2.41,5,5,0,0,1,1-2.9L51,5a4.11,4.11,0,0,1,1.56-1.34,4.5,4.5,0,0,1,2-.46,4.12,4.12,0,0,1,2.86,1.06A3.72,3.72,0,0,1,58.5,7.17V23h1C62,23,63.29,24,63.29,26ZM50.65,23V15.42L45.38,23Z"/><path d="M59.76,68.46a7.79,7.79,0,0,1,1.47,4.78,7.59,7.59,0,0,1-1.45,4.65,9.11,9.11,0,0,1-4.1,3A16.41,16.41,0,0,1,49.47,82,19.51,19.51,0,0,1,44,81.25,13.85,13.85,0,0,1,39.43,79a3.05,3.05,0,0,1-1.37-2.72,3.59,3.59,0,0,1,.75-2.3,2.26,2.26,0,0,1,1.84-.94,2.92,2.92,0,0,1,1.1.19c.32.14.76.35,1.32.64l.41.2.55.24a18.18,18.18,0,0,0,2.53,1.07,7.85,7.85,0,0,0,2.52.38A6.13,6.13,0,0,0,52.61,75a3.06,3.06,0,0,0,1.08-2.64,2.75,2.75,0,0,0-1.1-2.45,6.57,6.57,0,0,0-3.6-.75H46.27a2.51,2.51,0,0,1-2.06-.92,3.34,3.34,0,0,1-.75-2.19,3.39,3.39,0,0,1,.75-2.2,2.51,2.51,0,0,1,2.06-.92H48.2a6.69,6.69,0,0,0,3.51-.7A2.46,2.46,0,0,0,52.81,60a3.26,3.26,0,0,0-1-2.52,3.75,3.75,0,0,0-2.67-.9,6.75,6.75,0,0,0-2.31.39c-.71.27-1.51.62-2.39,1.06l-.92.44q-.84.43-1.32.63a2.86,2.86,0,0,1-1.09.2,2.27,2.27,0,0,1-1.85-.94A3.65,3.65,0,0,1,38.55,56a3.48,3.48,0,0,1,.3-1.53,3.6,3.6,0,0,1,1.06-1.19,14.56,14.56,0,0,1,4.45-2.19,17.5,17.5,0,0,1,5.2-.79,14.61,14.61,0,0,1,5.73,1,8.59,8.59,0,0,1,3.81,3,7.62,7.62,0,0,1,1.34,4.48,7.23,7.23,0,0,1-1.25,4.23,7.07,7.07,0,0,1-3.49,2.66A7.45,7.45,0,0,1,59.76,68.46Z"/><rect x="26.08" y="38.59" width="49.69" height="6.57" rx="3.28"/></svg>