<svg id="Layer_1" data-name="Layer 1" xmlns="http://www.w3.org/2000/svg" viewBox="0 0 100 100"><title>l3_4_1</title><path d="M92.19,84.69H7.81a7.82,7.82,0,0,0,0,15.63H92.19a7.82,7.82,0,0,0,0-15.63Z"/><path d="M62.23,29.08a2.94,2.94,0,0,1,.92,2.37q0,3.25-3.81,3.25H44.11q-3.82,0-3.82-3.25a2.94,2.94,0,0,1,.92-2.37,4.37,4.37,0,0,1,2.9-.79h3.55V12.44l-3.51,2.07a3,3,0,0,1-1.54.44,2.62,2.62,0,0,1-2.1-1.08,3.66,3.66,0,0,1-.88-2.39,3,3,0,0,1,1.54-2.72l7-4.08a7.34,7.34,0,0,1,3.64-1.1,3.88,3.88,0,0,1,2.83,1,3.81,3.81,0,0,1,1.08,2.85V28.29h3.6A4.36,4.36,0,0,1,62.23,29.08Z"/><path d="M60.9,68.76A8.26,8.26,0,0,1,59.06,80c-2.18,1.56-5.15,2.35-8.93,2.35S43.38,81.55,41.2,80a7.59,7.59,0,0,1-3.27-6.52,7.74,7.74,0,0,1,1.45-4.8,7.29,7.29,0,0,1,4.13-2.61A7.19,7.19,0,0,1,40,63.36a7.45,7.45,0,0,1-1.23-4.28,7.23,7.23,0,0,1,3.07-6.16q3.07-2.27,8.29-2.26t8.32,2.26a7.26,7.26,0,0,1,3,6.16,7.66,7.66,0,0,1-1.25,4.39,6.67,6.67,0,0,1-3.45,2.59A7.52,7.52,0,0,1,60.9,68.76Zm-6,4q0-3.42-4.78-3.42t-4.78,3.42q0,3.43,4.78,3.43T54.91,72.81ZM47.19,57.52a3,3,0,0,0-1,2.48,3,3,0,0,0,1,2.5,4.59,4.59,0,0,0,2.94.79,4.55,4.55,0,0,0,2.94-.79A3,3,0,0,0,54,60a3,3,0,0,0-1-2.48,4.68,4.68,0,0,0-2.94-.77A4.71,4.71,0,0,0,47.19,57.52Z"/><rect x="26.08" y="38.91" width="49.69" height="6.57" rx="3.28"/></svg>