<svg id="Layer_1" data-name="Layer 1" xmlns="http://www.w3.org/2000/svg" viewBox="0 0 100 100"><title>l3_4_1</title><path d="M92.19,84.38H7.81a7.81,7.81,0,0,0,0,15.62H92.19a7.81,7.81,0,0,0,0-15.62Z"/><path d="M61.05,28.74A2.9,2.9,0,0,1,62,31.13a3,3,0,0,1-.94,2.46,4.4,4.4,0,0,1-2.88.79h-16a3.34,3.34,0,0,1-2.5-.94,3.31,3.31,0,0,1-.92-2.39,4.84,4.84,0,0,1,1.49-3.43l9.31-9.7q2.89-3,2.89-5.57a3,3,0,0,0-.85-2.29,3.51,3.51,0,0,0-2.44-.79,7.11,7.11,0,0,0-2.35.38,23.77,23.77,0,0,0-2.48,1.07l-.87.44-.69.38a5.18,5.18,0,0,1-.89.41,2.63,2.63,0,0,1-.84.13,2.24,2.24,0,0,1-1.84-1,3.77,3.77,0,0,1-.75-2.35,3.75,3.75,0,0,1,.29-1.58A2.92,2.92,0,0,1,39.78,6a17.2,17.2,0,0,1,4.63-2.2A17.38,17.38,0,0,1,49.48,3a14.08,14.08,0,0,1,5.71,1.08A8.57,8.57,0,0,1,59,7.19a8.06,8.06,0,0,1,1.33,4.59,11,11,0,0,1-1.07,4.89,20.64,20.64,0,0,1-3.67,4.94L49.35,28h8.82A4.52,4.52,0,0,1,61.05,28.74Z"/><path d="M59.76,68.46a7.79,7.79,0,0,1,1.47,4.78,7.59,7.59,0,0,1-1.45,4.65,9.11,9.11,0,0,1-4.1,3A16.41,16.41,0,0,1,49.47,82,19.51,19.51,0,0,1,44,81.25,13.85,13.85,0,0,1,39.43,79a3,3,0,0,1-1.36-2.72,3.58,3.58,0,0,1,.74-2.3,2.26,2.26,0,0,1,1.84-.94,2.92,2.92,0,0,1,1.1.19c.32.14.76.35,1.32.64l.41.2.55.24a18.18,18.18,0,0,0,2.53,1.07,7.85,7.85,0,0,0,2.52.38A6.13,6.13,0,0,0,52.61,75a3.05,3.05,0,0,0,1.08-2.63,2.76,2.76,0,0,0-1.1-2.46,6.57,6.57,0,0,0-3.6-.75H46.27a2.49,2.49,0,0,1-2.06-.92,3.34,3.34,0,0,1-.75-2.19,3.39,3.39,0,0,1,.75-2.2,2.51,2.51,0,0,1,2.06-.92H48.2a6.69,6.69,0,0,0,3.51-.7A2.46,2.46,0,0,0,52.81,60a3.26,3.26,0,0,0-1-2.52,3.75,3.75,0,0,0-2.67-.9,6.75,6.75,0,0,0-2.31.39c-.71.27-1.51.62-2.39,1.06l-.92.44c-.56.29-1,.5-1.32.63a2.86,2.86,0,0,1-1.09.2,2.28,2.28,0,0,1-1.85-.94A3.65,3.65,0,0,1,38.55,56a3.34,3.34,0,0,1,.31-1.53,3.45,3.45,0,0,1,1-1.19,14.56,14.56,0,0,1,4.45-2.19,17.5,17.5,0,0,1,5.2-.79,14.61,14.61,0,0,1,5.73,1,8.63,8.63,0,0,1,3.82,3,7.63,7.63,0,0,1,1.33,4.47,7.28,7.28,0,0,1-1.25,4.24,7.11,7.11,0,0,1-3.49,2.65A7.45,7.45,0,0,1,59.76,68.46Z"/><rect x="26.08" y="38.59" width="49.69" height="6.57" rx="3.28"/></svg>