<svg id="Layer_1" data-name="Layer 1" xmlns="http://www.w3.org/2000/svg" viewBox="0 0 100 100"><title>l3_4_1</title><path d="M92.19,84.69H7.81a7.82,7.82,0,0,0,0,15.63H92.19a7.82,7.82,0,0,0,0-15.63Z"/><path d="M62.23,29.08a3,3,0,0,1,.93,2.37c0,2.17-1.28,3.25-3.82,3.25H44.11q-3.82,0-3.82-3.25a2.94,2.94,0,0,1,.92-2.37,4.37,4.37,0,0,1,2.9-.79h3.55V12.44l-3.51,2.07a3,3,0,0,1-1.54.44,2.62,2.62,0,0,1-2.1-1.08,3.66,3.66,0,0,1-.88-2.39,3,3,0,0,1,1.54-2.72l7-4.08a7.34,7.34,0,0,1,3.64-1.1,3.87,3.87,0,0,1,2.83,1,3.81,3.81,0,0,1,1.08,2.85V28.29h3.6A4.36,4.36,0,0,1,62.23,29.08Z"/><path d="M63.38,73.65q0,3.1-3.81,3.11h-1v1.5a3.86,3.86,0,0,1-1.1,3,4.05,4.05,0,0,1-2.85,1,4,4,0,0,1-2.83-1,3.88,3.88,0,0,1-1.07-3v-1.5H41a3.31,3.31,0,0,1-2.5-1,3.39,3.39,0,0,1-.92-2.42,4.93,4.93,0,0,1,1-2.89l12.55-17.9a4,4,0,0,1,1.56-1.34,4.36,4.36,0,0,1,2-.46,4.16,4.16,0,0,1,2.86,1.05,3.72,3.72,0,0,1,1.18,2.94V70.62h1Q63.38,70.62,63.38,73.65Zm-12.63-3V63l-5.27,7.59Z"/><rect x="26.08" y="38.91" width="49.69" height="6.57" rx="3.28"/></svg>