<svg id="Layer_1" data-name="Layer 1" xmlns="http://www.w3.org/2000/svg" viewBox="0 0 100 100"><title>l3_4_1</title><path d="M92.19,84.69H7.81a7.82,7.82,0,0,0,0,15.63H92.19a7.82,7.82,0,0,0,0-15.63Z"/><path d="M62.23,29.08a2.94,2.94,0,0,1,.92,2.37q0,3.25-3.81,3.25H44.11q-3.82,0-3.82-3.25a2.94,2.94,0,0,1,.92-2.37,4.37,4.37,0,0,1,2.9-.79h3.55V12.44l-3.51,2.07a3,3,0,0,1-1.54.44,2.62,2.62,0,0,1-2.1-1.08,3.66,3.66,0,0,1-.88-2.39,3,3,0,0,1,1.54-2.72l7-4.08a7.34,7.34,0,0,1,3.64-1.1,3.88,3.88,0,0,1,2.83,1,3.81,3.81,0,0,1,1.08,2.85V28.29h3.6A4.36,4.36,0,0,1,62.23,29.08Z"/><path d="M61.15,76.35a2.93,2.93,0,0,1,.94,2.39,3,3,0,0,1-.94,2.45,4.4,4.4,0,0,1-2.88.79h-16A3.35,3.35,0,0,1,39.75,81a3.29,3.29,0,0,1-.92-2.39,4.81,4.81,0,0,1,1.49-3.42l9.31-9.7q2.9-3,2.89-5.57a2.93,2.93,0,0,0-.85-2.28,3.46,3.46,0,0,0-2.44-.79,7.11,7.11,0,0,0-2.35.37,23.77,23.77,0,0,0-2.48,1.07l-.87.44-.68.38a5.61,5.61,0,0,1-.9.41,2.55,2.55,0,0,1-.84.13,2.22,2.22,0,0,1-1.84-1,4.28,4.28,0,0,1-.46-3.93,2.88,2.88,0,0,1,1.08-1.14,16.61,16.61,0,0,1,4.63-2.19,17,17,0,0,1,5.06-.79,14.09,14.09,0,0,1,5.71,1.07,8.55,8.55,0,0,1,3.79,3.07,8.06,8.06,0,0,1,1.34,4.59,11.16,11.16,0,0,1-1.07,4.89,20.64,20.64,0,0,1-3.67,4.94l-6.23,6.36h8.82A4.46,4.46,0,0,1,61.15,76.35Z"/><rect x="26.08" y="38.91" width="49.69" height="6.57" rx="3.28"/></svg>