<svg id="Layer_1" data-name="Layer 1" xmlns="http://www.w3.org/2000/svg" viewBox="0 0 100 100"><title>l3_4_1</title><path d="M92.19,84.38H7.81a7.81,7.81,0,0,0,0,15.62H92.19a7.81,7.81,0,0,0,0-15.62Z"/><path d="M61.05,28.74A2.9,2.9,0,0,1,62,31.13a3,3,0,0,1-.94,2.46,4.4,4.4,0,0,1-2.88.79h-16A3.2,3.2,0,0,1,38.73,31a4.84,4.84,0,0,1,1.49-3.42l9.31-9.7q2.89-3,2.89-5.57a3,3,0,0,0-.85-2.29,3.51,3.51,0,0,0-2.44-.79,7.11,7.11,0,0,0-2.35.38,21.8,21.8,0,0,0-2.48,1.07l-.87.44-.69.37a5.31,5.31,0,0,1-.89.42,2.63,2.63,0,0,1-.84.13,2.24,2.24,0,0,1-1.84-1,3.79,3.79,0,0,1-.75-2.35,3.75,3.75,0,0,1,.29-1.58A2.92,2.92,0,0,1,39.78,6a17.81,17.81,0,0,1,9.7-3,14.08,14.08,0,0,1,5.71,1.08A8.49,8.49,0,0,1,59,7.19a8,8,0,0,1,1.34,4.59,11,11,0,0,1-1.07,4.89,20.64,20.64,0,0,1-3.67,4.94L49.35,28h8.82A4.52,4.52,0,0,1,61.05,28.74Z"/><path d="M58.6,54.37Q62,58.42,62,65.87a21.39,21.39,0,0,1-1.6,8.58,12.87,12.87,0,0,1-4.52,5.64,11.94,11.94,0,0,1-6.83,2,16.93,16.93,0,0,1-5-.79,14,14,0,0,1-4.41-2.19,3.76,3.76,0,0,1-1.07-1.19,3.21,3.21,0,0,1-.33-1.53A3.55,3.55,0,0,1,39,74.05a2.37,2.37,0,0,1,1.87-.94,3,3,0,0,1,1.1.2c.32.13.76.34,1.31.63l1,.49a24.69,24.69,0,0,0,2.41,1,6,6,0,0,0,2,.35,4.2,4.2,0,0,0,3.62-2,11.73,11.73,0,0,0,1.65-5.73,7,7,0,0,1-2.7,2.22,8.5,8.5,0,0,1-3.71.81,8.87,8.87,0,0,1-4.74-1.29,9,9,0,0,1-3.31-3.6,11.73,11.73,0,0,1,.17-10.71,9.72,9.72,0,0,1,3.84-3.79A11.29,11.29,0,0,1,49,50.34Q55.22,50.34,58.6,54.37Zm-6.34,9.35a4.33,4.33,0,0,0,1-3,4.29,4.29,0,0,0-1-3,3.49,3.49,0,0,0-2.72-1.17,3.45,3.45,0,0,0-2.72,1.15,4.36,4.36,0,0,0-1,3,4.47,4.47,0,0,0,1,3.05,3.47,3.47,0,0,0,2.75,1.12A3.52,3.52,0,0,0,52.26,63.72Z"/><rect x="26.08" y="38.59" width="49.69" height="6.57" rx="3.28"/></svg>