<svg id="Layer_1" data-name="Layer 1" xmlns="http://www.w3.org/2000/svg" viewBox="0 0 100 100"><title>l3_4_1</title><path d="M92.19,84.38H7.81a7.81,7.81,0,0,0,0,15.62H92.19a7.81,7.81,0,0,0,0-15.62Z"/><path d="M63.29,26c0,2.08-1.28,3.12-3.82,3.12h-1v1.49a3.84,3.84,0,0,1-1.09,3,4,4,0,0,1-2.86,1,3.94,3.94,0,0,1-2.83-1,3.87,3.87,0,0,1-1.07-3V29.16H40.86a3.25,3.25,0,0,1-2.5-1,3.34,3.34,0,0,1-.93-2.41,5,5,0,0,1,1-2.9L51,5a4.11,4.11,0,0,1,1.56-1.34,4.5,4.5,0,0,1,2-.46,4.12,4.12,0,0,1,2.86,1.06A3.72,3.72,0,0,1,58.5,7.17V23h1C62,23,63.29,24,63.29,26ZM50.65,23V15.42L45.38,23Z"/><path d="M61.15,76a2.93,2.93,0,0,1,.94,2.39,3.07,3.07,0,0,1-.94,2.46,4.46,4.46,0,0,1-2.88.79h-16a3.35,3.35,0,0,1-2.51-1,3.27,3.27,0,0,1-.92-2.39,4.82,4.82,0,0,1,1.49-3.42l9.31-9.7c1.93-2,2.89-3.87,2.89-5.57a3,3,0,0,0-.85-2.28,3.46,3.46,0,0,0-2.44-.79,7.11,7.11,0,0,0-2.35.37A21.24,21.24,0,0,0,44.41,58l-.88.44c-.12,0-.35.18-.68.37a5.76,5.76,0,0,1-.9.42,2.84,2.84,0,0,1-.84.13,2.23,2.23,0,0,1-1.84-1,4.28,4.28,0,0,1-.46-3.93,2.88,2.88,0,0,1,1.08-1.14,17.91,17.91,0,0,1,9.69-3,14.26,14.26,0,0,1,5.71,1.07,8.55,8.55,0,0,1,3.79,3.07,8.09,8.09,0,0,1,1.34,4.59A11.13,11.13,0,0,1,59.35,64a20.45,20.45,0,0,1-3.67,4.94l-6.23,6.36h8.82A4.52,4.52,0,0,1,61.15,76Z"/><rect x="26.08" y="38.59" width="49.69" height="6.57" rx="3.28"/></svg>