<svg id="Layer_1" data-name="Layer 1" xmlns="http://www.w3.org/2000/svg" viewBox="0 0 100 100"><title>l3_4_1</title><path d="M92.19,84.38H7.81a7.81,7.81,0,0,0,0,15.62H92.19a7.81,7.81,0,0,0,0-15.62Z"/><path d="M59.67,21.17A7.79,7.79,0,0,1,61.14,26a7.71,7.71,0,0,1-1.45,4.66,9.35,9.35,0,0,1-4.11,3,16.61,16.61,0,0,1-6.21,1.07A19.15,19.15,0,0,1,43.89,34a14.19,14.19,0,0,1-4.57-2.21,3.41,3.41,0,0,1-1-1.21A3.36,3.36,0,0,1,38,29a3.6,3.6,0,0,1,.75-2.31,2.25,2.25,0,0,1,1.84-.94,2.73,2.73,0,0,1,1.1.2c.32.13.76.34,1.31.63l.42.2.55.24a20.21,20.21,0,0,0,2.52,1.08A8.26,8.26,0,0,0,49,28.5a6.06,6.06,0,0,0,3.53-.79,3.05,3.05,0,0,0,1.08-2.63,2.76,2.76,0,0,0-1.1-2.46,6.57,6.57,0,0,0-3.6-.75H46.17A2.5,2.5,0,0,1,44.11,21a3.59,3.59,0,0,1,0-4.39,2.5,2.5,0,0,1,2.06-.92H48.1a6.79,6.79,0,0,0,3.51-.7,2.48,2.48,0,0,0,1.1-2.24,3.28,3.28,0,0,0-1-2.53,3.75,3.75,0,0,0-2.67-.9,6.75,6.75,0,0,0-2.31.4,22.55,22.55,0,0,0-2.39,1.05l-.92.44c-.56.29-1,.51-1.32.64A2.92,2.92,0,0,1,41,12a2.27,2.27,0,0,1-1.84-.95,3.57,3.57,0,0,1-.75-2.3,3.49,3.49,0,0,1,.31-1.54A3.65,3.65,0,0,1,39.8,6a14.64,14.64,0,0,1,4.46-2.2A17.5,17.5,0,0,1,49.46,3,14.39,14.39,0,0,1,55.19,4.1a8.55,8.55,0,0,1,3.82,3,7.69,7.69,0,0,1,1.34,4.48,7.3,7.3,0,0,1-1.25,4.23,7.15,7.15,0,0,1-3.49,2.66A7.48,7.48,0,0,1,59.67,21.17Z"/><path d="M60.9,68.44a7.65,7.65,0,0,1,1.43,4.72,7.57,7.57,0,0,1-3.27,6.51C56.88,81.24,53.91,82,50.13,82s-6.75-.78-8.93-2.35a7.57,7.57,0,0,1-3.27-6.51,7.75,7.75,0,0,1,1.45-4.81,7.34,7.34,0,0,1,4.13-2.61A7.23,7.23,0,0,1,40,63a7.45,7.45,0,0,1-1.23-4.28,7.23,7.23,0,0,1,3.07-6.16q3.07-2.26,8.29-2.26t8.32,2.26a7.26,7.26,0,0,1,3,6.16,7.66,7.66,0,0,1-1.25,4.39,6.67,6.67,0,0,1-3.45,2.59A7.63,7.63,0,0,1,60.9,68.44Zm-6,4.06c0-2.28-1.59-3.43-4.78-3.43s-4.78,1.15-4.78,3.43,1.59,3.42,4.78,3.42S54.91,74.78,54.91,72.5ZM47.19,57.2a3,3,0,0,0-1,2.48,3.08,3.08,0,0,0,1,2.51,4.65,4.65,0,0,0,2.94.78,4.61,4.61,0,0,0,2.94-.78,3.08,3.08,0,0,0,1-2.51,3,3,0,0,0-1-2.48,4.68,4.68,0,0,0-2.94-.76A4.72,4.72,0,0,0,47.19,57.2Z"/><rect x="26.08" y="38.59" width="49.69" height="6.57" rx="3.28"/></svg>