<svg id="Layer_1" data-name="Layer 1" xmlns="http://www.w3.org/2000/svg" viewBox="0 0 100 100"><title>l3_4_1</title><path d="M92.19,84.38H7.81a7.81,7.81,0,0,0,0,15.62H92.19a7.81,7.81,0,0,0,0-15.62Z"/><path d="M62.23,28.76a2.94,2.94,0,0,1,.92,2.37q0,3.25-3.81,3.25H44.11q-3.82,0-3.82-3.25a2.94,2.94,0,0,1,.92-2.37,4.43,4.43,0,0,1,2.9-.79h3.55V12.13l-3.51,2.06a3,3,0,0,1-1.54.44,2.62,2.62,0,0,1-2.1-1.08,3.64,3.64,0,0,1-.88-2.39,3,3,0,0,1,1.54-2.72l7-4.08a7.44,7.44,0,0,1,3.64-1.1,3.88,3.88,0,0,1,2.83,1,3.83,3.83,0,0,1,1.08,2.86V28h3.6A4.41,4.41,0,0,1,62.23,28.76Z"/><path d="M57.5,62.6a9.1,9.1,0,0,1,3.32,3.6,11.77,11.77,0,0,1-.18,10.71A9.72,9.72,0,0,1,56.8,80.7a11.26,11.26,0,0,1-5.57,1.36c-4.13,0-7.31-1.34-9.57-4s-3.38-6.53-3.38-11.5A21.22,21.22,0,0,1,39.89,58a12.73,12.73,0,0,1,4.52-5.64,11.89,11.89,0,0,1,6.82-2,16.88,16.88,0,0,1,5,.79,14,14,0,0,1,4.41,2.19,3.8,3.8,0,0,1,1.08,1.19A3.21,3.21,0,0,1,62.07,56a3.56,3.56,0,0,1-.77,2.31,2.33,2.33,0,0,1-1.87.94,2.86,2.86,0,0,1-1.09-.2q-.48-.2-1.32-.63l-1-.49c-1-.46-1.77-.82-2.42-1a5.92,5.92,0,0,0-2-.35,4.21,4.21,0,0,0-3.62,2,11.63,11.63,0,0,0-1.64,5.73,6.88,6.88,0,0,1,2.7-2.22,8.43,8.43,0,0,1,3.7-.81A8.87,8.87,0,0,1,57.5,62.6Zm-4,12.14a5.12,5.12,0,0,0,0-6.08,3.45,3.45,0,0,0-2.74-1.12A3.52,3.52,0,0,0,48,68.68a4.38,4.38,0,0,0-1,3,4.25,4.25,0,0,0,1.06,3,3.78,3.78,0,0,0,5.44,0Z"/><rect x="26.08" y="38.59" width="49.69" height="6.57" rx="3.28"/></svg>