<svg id="Layer_1" data-name="Layer 1" xmlns="http://www.w3.org/2000/svg" viewBox="0 0 100 100"><title>l3_4_1</title><path d="M92.19,84.69H7.81a7.82,7.82,0,0,0,0,15.63H92.19a7.82,7.82,0,0,0,0-15.63Z"/><path d="M62.23,29.08a3,3,0,0,1,.93,2.37c0,2.17-1.28,3.25-3.82,3.25H44.11q-3.82,0-3.82-3.25a2.94,2.94,0,0,1,.92-2.37,4.37,4.37,0,0,1,2.9-.79h3.55V12.44l-3.51,2.07a3,3,0,0,1-1.54.44,2.62,2.62,0,0,1-2.1-1.08,3.66,3.66,0,0,1-.88-2.39,3,3,0,0,1,1.54-2.72l7-4.08a7.34,7.34,0,0,1,3.64-1.1,3.87,3.87,0,0,1,2.83,1,3.81,3.81,0,0,1,1.08,2.85V28.29h3.6A4.36,4.36,0,0,1,62.23,29.08Z"/><path d="M57.5,62.92a9,9,0,0,1,3.32,3.6,11.07,11.07,0,0,1,1.2,5.2,11,11,0,0,1-1.38,5.5A9.75,9.75,0,0,1,56.8,81a11.26,11.26,0,0,1-5.57,1.36c-4.13,0-7.31-1.35-9.57-4s-3.37-6.52-3.37-11.49a21.22,21.22,0,0,1,1.6-8.58,12.73,12.73,0,0,1,4.52-5.64,11.82,11.82,0,0,1,6.82-2,17.19,17.19,0,0,1,5,.78,14,14,0,0,1,4.41,2.2,3.78,3.78,0,0,1,1.08,1.18,3.22,3.22,0,0,1,.33,1.54,3.53,3.53,0,0,1-.77,2.3,2.34,2.34,0,0,1-1.87,1,2.86,2.86,0,0,1-1.09-.2A14.55,14.55,0,0,1,57,58.77l-1-.48a24.71,24.71,0,0,0-2.42-1,5.69,5.69,0,0,0-2-.35,4.21,4.21,0,0,0-3.62,2,11.62,11.62,0,0,0-1.64,5.72,7,7,0,0,1,2.7-2.21,8.43,8.43,0,0,1,3.7-.82A8.88,8.88,0,0,1,57.5,62.92Zm-4,12.13a5.12,5.12,0,0,0,0-6.08,3.48,3.48,0,0,0-2.74-1.11A3.54,3.54,0,0,0,48,69a4.37,4.37,0,0,0-1,3A4.29,4.29,0,0,0,48,75a3.79,3.79,0,0,0,5.44,0Z"/><rect x="26.08" y="38.91" width="49.69" height="6.57" rx="3.28"/></svg>