<svg id="Layer_1" data-name="Layer 1" xmlns="http://www.w3.org/2000/svg" viewBox="0 0 100 100"><title>l3_4_1</title><path d="M92.19,84.38H7.81a7.81,7.81,0,0,0,0,15.62H92.19a7.81,7.81,0,0,0,0-15.62Z"/><path d="M61.05,28.74A2.9,2.9,0,0,1,62,31.13a3,3,0,0,1-.94,2.46,4.4,4.4,0,0,1-2.88.79h-16a3.34,3.34,0,0,1-2.5-.94,3.31,3.31,0,0,1-.92-2.39,4.84,4.84,0,0,1,1.49-3.43l9.31-9.7q2.89-3,2.89-5.57a3,3,0,0,0-.85-2.29,3.51,3.51,0,0,0-2.44-.79,7.11,7.11,0,0,0-2.35.38,23.77,23.77,0,0,0-2.48,1.07l-.87.44-.69.38a5.18,5.18,0,0,1-.89.41,2.63,2.63,0,0,1-.84.13,2.24,2.24,0,0,1-1.84-1,3.77,3.77,0,0,1-.75-2.35,3.75,3.75,0,0,1,.29-1.58A2.92,2.92,0,0,1,39.78,6a17.2,17.2,0,0,1,4.63-2.2A17.38,17.38,0,0,1,49.48,3a14.08,14.08,0,0,1,5.71,1.08A8.57,8.57,0,0,1,59,7.19a8.06,8.06,0,0,1,1.33,4.59,11,11,0,0,1-1.07,4.89,20.64,20.64,0,0,1-3.67,4.94L49.35,28h8.82A4.52,4.52,0,0,1,61.05,28.74Z"/><path d="M63.38,73.33q0,3.12-3.81,3.12h-1v1.49a3.86,3.86,0,0,1-1.1,3,4,4,0,0,1-2.85,1,3.94,3.94,0,0,1-2.83-1,3.88,3.88,0,0,1-1.07-3V76.45H41a3.32,3.32,0,0,1-2.5-1,3.37,3.37,0,0,1-.92-2.41,4.94,4.94,0,0,1,1-2.9l12.55-17.9a4,4,0,0,1,1.56-1.34,4.36,4.36,0,0,1,2-.46,4.16,4.16,0,0,1,2.86,1.05,3.75,3.75,0,0,1,1.18,2.94V70.3h1Q63.38,70.3,63.38,73.33Zm-12.63-3V62.71L45.48,70.3Z"/><rect x="26.08" y="38.59" width="49.69" height="6.57" rx="3.28"/></svg>