<svg id="Layer_1" data-name="Layer 1" xmlns="http://www.w3.org/2000/svg" viewBox="0 0 100 100"><title>l3_4_1</title><path d="M92.19,84.38H7.81a7.81,7.81,0,0,0,0,15.62H92.19a7.81,7.81,0,0,0,0-15.62Z"/><path d="M61.05,28.74A2.9,2.9,0,0,1,62,31.13a3,3,0,0,1-.94,2.46,4.4,4.4,0,0,1-2.88.79h-16a3.19,3.19,0,0,1-3.42-3.33,4.84,4.84,0,0,1,1.49-3.43l9.31-9.7q2.89-3,2.89-5.57a3,3,0,0,0-.85-2.29,3.51,3.51,0,0,0-2.44-.79,7.11,7.11,0,0,0-2.35.38,23.77,23.77,0,0,0-2.48,1.07l-.88.44-.68.38a4.92,4.92,0,0,1-.9.41,2.53,2.53,0,0,1-.83.13,2.24,2.24,0,0,1-1.84-1,3.77,3.77,0,0,1-.75-2.35,3.75,3.75,0,0,1,.29-1.58A2.92,2.92,0,0,1,39.78,6a17.2,17.2,0,0,1,4.63-2.2A17.38,17.38,0,0,1,49.48,3a14.08,14.08,0,0,1,5.71,1.08A8.49,8.49,0,0,1,59,7.19a8,8,0,0,1,1.34,4.59,11,11,0,0,1-1.07,4.89,20.64,20.64,0,0,1-3.67,4.94L49.35,28h8.82A4.52,4.52,0,0,1,61.05,28.74Z"/><path d="M61.14,76a2.9,2.9,0,0,1,1,2.39,3,3,0,0,1-1,2.46,4.43,4.43,0,0,1-2.87.79h-16a3.35,3.35,0,0,1-2.51-1,3.27,3.27,0,0,1-.92-2.39,4.82,4.82,0,0,1,1.49-3.42l9.31-9.7q2.9-3,2.89-5.57a3,3,0,0,0-.85-2.28,3.46,3.46,0,0,0-2.44-.79,7.11,7.11,0,0,0-2.35.37A22.07,22.07,0,0,0,44.4,58l-.87.44c-.12.06-.35.18-.68.37a5.76,5.76,0,0,1-.9.42,2.89,2.89,0,0,1-.84.13,2.23,2.23,0,0,1-1.84-1,4.28,4.28,0,0,1-.46-3.93,2.92,2.92,0,0,1,1.07-1.14,17.91,17.91,0,0,1,9.7-3,14.26,14.26,0,0,1,5.71,1.07,8.56,8.56,0,0,1,3.79,3.08,8,8,0,0,1,1.34,4.58A11.13,11.13,0,0,1,59.35,64a20.45,20.45,0,0,1-3.67,4.94l-6.23,6.36h8.82A4.49,4.49,0,0,1,61.14,76Z"/><rect x="26.08" y="38.59" width="49.69" height="6.57" rx="3.28"/></svg>