<svg id="Layer_1" data-name="Layer 1" xmlns="http://www.w3.org/2000/svg" viewBox="0 0 100 100"><title>l3_4_1</title><path d="M92.19,84.38H7.81a7.81,7.81,0,0,0,0,15.62H92.19a7.81,7.81,0,0,0,0-15.62Z"/><path d="M63.29,26c0,2.08-1.28,3.12-3.82,3.12h-1v1.49a3.84,3.84,0,0,1-1.09,3,4,4,0,0,1-2.86,1,3.94,3.94,0,0,1-2.83-1,3.87,3.87,0,0,1-1.07-3V29.16H40.86a3.25,3.25,0,0,1-2.5-1,3.34,3.34,0,0,1-.93-2.41,5,5,0,0,1,1-2.9L51,5a4.11,4.11,0,0,1,1.56-1.34,4.5,4.5,0,0,1,2-.46,4.12,4.12,0,0,1,2.86,1.06A3.72,3.72,0,0,1,58.5,7.17V23h1C62,23,63.29,24,63.29,26ZM50.65,23V15.42L45.38,23Z"/><path d="M63.38,73.33q0,3.12-3.81,3.12h-1v1.49a3.86,3.86,0,0,1-1.1,3,4.05,4.05,0,0,1-2.85,1,4,4,0,0,1-2.83-1,3.88,3.88,0,0,1-1.07-3V76.45H41a3.31,3.31,0,0,1-2.5-1,3.37,3.37,0,0,1-.92-2.41,4.94,4.94,0,0,1,1-2.9l12.55-17.9a4,4,0,0,1,1.56-1.34,4.36,4.36,0,0,1,2-.46,4.16,4.16,0,0,1,2.86,1.05,3.73,3.73,0,0,1,1.18,2.94V70.3h1Q63.38,70.3,63.38,73.33Zm-12.63-3V62.71L45.48,70.3Z"/><rect x="26.08" y="38.59" width="49.69" height="6.57" rx="3.28"/></svg>