<svg id="Layer_1" data-name="Layer 1" xmlns="http://www.w3.org/2000/svg" viewBox="0 0 100 100"><title>l3_4_1</title><path d="M92.19,84.38H7.81a7.81,7.81,0,0,0,0,15.62H92.19a7.81,7.81,0,0,0,0-15.62Z"/><path d="M62.23,28.76a2.94,2.94,0,0,1,.92,2.37q0,3.25-3.81,3.25H44.11q-3.82,0-3.82-3.25a2.94,2.94,0,0,1,.92-2.37,4.43,4.43,0,0,1,2.9-.79h3.55V12.13l-3.51,2.06a3,3,0,0,1-1.54.44,2.62,2.62,0,0,1-2.1-1.08,3.64,3.64,0,0,1-.88-2.39,3,3,0,0,1,1.54-2.72l7-4.08a7.44,7.44,0,0,1,3.64-1.1,3.88,3.88,0,0,1,2.83,1,3.83,3.83,0,0,1,1.08,2.86V28h3.6A4.41,4.41,0,0,1,62.23,28.76Z"/><path d="M61.43,51.68a3.42,3.42,0,0,1,.86,2.39A5.55,5.55,0,0,1,61.45,57L48.16,80a4.15,4.15,0,0,1-1.52,1.56,3.82,3.82,0,0,1-1.86.5,4,4,0,0,1-2.72-1,3.23,3.23,0,0,1-1.19-2.52,4.17,4.17,0,0,1,.62-2.11L52.76,57.14h-11a4.35,4.35,0,0,1-2.91-.79A3,3,0,0,1,38,54a3,3,0,0,1,.92-2.43,4.25,4.25,0,0,1,2.89-.82H59A3.11,3.11,0,0,1,61.43,51.68Z"/><rect x="26.08" y="38.59" width="49.69" height="6.57" rx="3.28"/></svg>