<svg id="Layer_1" data-name="Layer 1" xmlns="http://www.w3.org/2000/svg" viewBox="0 0 100 100"><title>l3_4_1</title><path d="M92.19,84.38H7.81a7.81,7.81,0,0,0,0,15.62H92.19a7.81,7.81,0,0,0,0-15.62Z"/><path d="M59.67,21.17A7.79,7.79,0,0,1,61.14,26a7.71,7.71,0,0,1-1.45,4.66,9.35,9.35,0,0,1-4.11,3,16.61,16.61,0,0,1-6.21,1.07A19.15,19.15,0,0,1,43.89,34a14.19,14.19,0,0,1-4.57-2.21,3.41,3.41,0,0,1-1-1.21A3.36,3.36,0,0,1,38,29a3.6,3.6,0,0,1,.75-2.31,2.25,2.25,0,0,1,1.84-.94,2.73,2.73,0,0,1,1.1.2c.32.13.76.34,1.31.63l.42.2.55.24a20.21,20.21,0,0,0,2.52,1.08A8.26,8.26,0,0,0,49,28.5a6.06,6.06,0,0,0,3.53-.79,3.05,3.05,0,0,0,1.08-2.63,2.76,2.76,0,0,0-1.1-2.46,6.57,6.57,0,0,0-3.6-.75H46.17A2.5,2.5,0,0,1,44.11,21a3.59,3.59,0,0,1,0-4.39,2.5,2.5,0,0,1,2.06-.92H48.1a6.79,6.79,0,0,0,3.51-.7,2.48,2.48,0,0,0,1.1-2.24,3.28,3.28,0,0,0-1-2.53,3.75,3.75,0,0,0-2.67-.9,6.75,6.75,0,0,0-2.31.4,22.55,22.55,0,0,0-2.39,1.05l-.92.44c-.56.29-1,.51-1.32.64A2.92,2.92,0,0,1,41,12a2.27,2.27,0,0,1-1.84-.95,3.59,3.59,0,0,1-.75-2.3,3.49,3.49,0,0,1,.31-1.54A3.65,3.65,0,0,1,39.8,6a14.64,14.64,0,0,1,4.46-2.2A17.5,17.5,0,0,1,49.46,3a14.57,14.57,0,0,1,5.73,1,8.64,8.64,0,0,1,3.82,3,7.69,7.69,0,0,1,1.34,4.48,7.3,7.3,0,0,1-1.25,4.23,7.15,7.15,0,0,1-3.49,2.66A7.48,7.48,0,0,1,59.67,21.17Z"/><path d="M59.76,68.46a7.79,7.79,0,0,1,1.47,4.78,7.65,7.65,0,0,1-1.44,4.65,9.2,9.2,0,0,1-4.11,3A16.41,16.41,0,0,1,49.47,82,19.51,19.51,0,0,1,44,81.25,13.85,13.85,0,0,1,39.43,79a3,3,0,0,1-1.36-2.72,3.58,3.58,0,0,1,.74-2.3,2.26,2.26,0,0,1,1.84-.94,2.92,2.92,0,0,1,1.1.19c.32.14.76.35,1.32.64l.41.2.55.24a18.18,18.18,0,0,0,2.53,1.07,7.85,7.85,0,0,0,2.52.38A6.13,6.13,0,0,0,52.61,75a3.06,3.06,0,0,0,1.08-2.64,2.75,2.75,0,0,0-1.1-2.45,6.57,6.57,0,0,0-3.6-.75H46.27a2.51,2.51,0,0,1-2.06-.92,3.34,3.34,0,0,1-.75-2.19,3.39,3.39,0,0,1,.75-2.2,2.51,2.51,0,0,1,2.06-.92H48.2a6.69,6.69,0,0,0,3.51-.7A2.46,2.46,0,0,0,52.81,60a3.26,3.26,0,0,0-1-2.52,3.75,3.75,0,0,0-2.67-.9,6.75,6.75,0,0,0-2.31.39c-.71.27-1.51.62-2.39,1.06l-.92.44c-.56.29-1,.5-1.32.63a2.86,2.86,0,0,1-1.09.2,2.28,2.28,0,0,1-1.85-.94A3.65,3.65,0,0,1,38.55,56a3.34,3.34,0,0,1,.31-1.53,3.45,3.45,0,0,1,1-1.19,14.56,14.56,0,0,1,4.45-2.19,17.5,17.5,0,0,1,5.2-.79,14.61,14.61,0,0,1,5.73,1,8.68,8.68,0,0,1,3.82,3,7.68,7.68,0,0,1,1.33,4.48,7.23,7.23,0,0,1-1.25,4.23,7.07,7.07,0,0,1-3.49,2.66A7.45,7.45,0,0,1,59.76,68.46Z"/><rect x="26.08" y="38.59" width="49.69" height="6.57" rx="3.28"/></svg>