<svg id="Layer_1" data-name="Layer 1" xmlns="http://www.w3.org/2000/svg" viewBox="0 0 100 100"><title>l3_4_1</title><path d="M92.19,84.69H7.81a7.82,7.82,0,0,0,0,15.63H92.19a7.82,7.82,0,0,0,0-15.63Z"/><path d="M62.23,29.08a3,3,0,0,1,.93,2.37c0,2.17-1.28,3.25-3.82,3.25H44.11q-3.82,0-3.82-3.25a2.94,2.94,0,0,1,.92-2.37,4.37,4.37,0,0,1,2.9-.79h3.55V12.44l-3.51,2.07a3,3,0,0,1-1.54.44,2.62,2.62,0,0,1-2.1-1.08,3.66,3.66,0,0,1-.88-2.39,3,3,0,0,1,1.54-2.72l7-4.08a7.34,7.34,0,0,1,3.64-1.1,3.87,3.87,0,0,1,2.83,1,3.81,3.81,0,0,1,1.08,2.85V28.29h3.6A4.36,4.36,0,0,1,62.23,29.08Z"/><path d="M59.76,68.78a8.37,8.37,0,0,1,0,9.43,9.27,9.27,0,0,1-4.11,3.05,16.41,16.41,0,0,1-6.21,1.08A19.51,19.51,0,0,1,44,81.57a13.85,13.85,0,0,1-4.56-2.22,3.61,3.61,0,0,1-.62-5,2.27,2.27,0,0,1,1.84-1,2.92,2.92,0,0,1,1.1.2c.32.13.76.35,1.32.64l.41.2.55.24a19.48,19.48,0,0,0,2.53,1.07,7.86,7.86,0,0,0,2.52.37,6.14,6.14,0,0,0,3.53-.78,3.06,3.06,0,0,0,1.08-2.64,2.74,2.74,0,0,0-1.1-2.45,6.57,6.57,0,0,0-3.6-.75H46.27a2.51,2.51,0,0,1-2.06-.92,3.59,3.59,0,0,1,0-4.39,2.51,2.51,0,0,1,2.06-.92H48.2a6.79,6.79,0,0,0,3.51-.7,2.48,2.48,0,0,0,1.1-2.24,3.26,3.26,0,0,0-1-2.52,3.75,3.75,0,0,0-2.67-.9,6.75,6.75,0,0,0-2.31.39,25.94,25.94,0,0,0-2.39,1l-.92.44a13.36,13.36,0,0,1-1.32.64,2.86,2.86,0,0,1-1.09.2,2.29,2.29,0,0,1-1.85-1,3.62,3.62,0,0,1-.74-2.3,3.38,3.38,0,0,1,.31-1.54,3.43,3.43,0,0,1,1-1.18,14.58,14.58,0,0,1,4.45-2.2,17.81,17.81,0,0,1,5.2-.78,14.61,14.61,0,0,1,5.73,1.05,8.61,8.61,0,0,1,3.82,3,7.68,7.68,0,0,1,1.33,4.48,7.23,7.23,0,0,1-1.25,4.23,7.07,7.07,0,0,1-3.49,2.66A7.39,7.39,0,0,1,59.76,68.78Z"/><rect x="26.08" y="38.91" width="49.69" height="6.57" rx="3.28"/></svg>