<svg id="Layer_1" data-name="Layer 1" xmlns="http://www.w3.org/2000/svg" viewBox="0 0 100 100"><title>l3_4_1</title><path d="M92.19,84.38H7.81a7.81,7.81,0,0,0,0,15.62H92.19a7.81,7.81,0,0,0,0-15.62Z"/><path d="M63.29,26c0,2.08-1.28,3.12-3.82,3.12h-1v1.49a3.84,3.84,0,0,1-1.09,3,4,4,0,0,1-2.86,1,3.94,3.94,0,0,1-2.83-1,3.87,3.87,0,0,1-1.07-3V29.16H40.86a3.25,3.25,0,0,1-2.5-1,3.34,3.34,0,0,1-.93-2.41,5,5,0,0,1,1-2.9L51,5a4.11,4.11,0,0,1,1.56-1.34,4.5,4.5,0,0,1,2-.46,4.12,4.12,0,0,1,2.86,1.06A3.72,3.72,0,0,1,58.5,7.17V23h1C62,23,63.29,24,63.29,26ZM50.65,23V15.42L45.38,23Z"/><path d="M60.9,68.44a7.65,7.65,0,0,1,1.43,4.72,7.57,7.57,0,0,1-3.27,6.51C56.88,81.24,53.91,82,50.13,82s-6.75-.78-8.93-2.35a7.57,7.57,0,0,1-3.27-6.51,7.75,7.75,0,0,1,1.45-4.81,7.34,7.34,0,0,1,4.13-2.61A7.14,7.14,0,0,1,40,63a7.45,7.45,0,0,1-1.23-4.28,7.23,7.23,0,0,1,3.07-6.16q3.07-2.26,8.29-2.26t8.32,2.26a7.26,7.26,0,0,1,3,6.16,7.66,7.66,0,0,1-1.25,4.39,6.67,6.67,0,0,1-3.45,2.59A7.63,7.63,0,0,1,60.9,68.44Zm-6,4.06c0-2.28-1.59-3.43-4.78-3.43s-4.78,1.15-4.78,3.43,1.59,3.42,4.78,3.42S54.91,74.78,54.91,72.5ZM47.19,57.2a3,3,0,0,0-1,2.48,3.08,3.08,0,0,0,1,2.51,4.65,4.65,0,0,0,2.94.78,4.61,4.61,0,0,0,2.94-.78,3.08,3.08,0,0,0,1-2.51,3,3,0,0,0-1-2.48,4.68,4.68,0,0,0-2.94-.76A4.72,4.72,0,0,0,47.19,57.2Z"/><rect x="26.08" y="38.59" width="49.69" height="6.57" rx="3.28"/></svg>