<svg id="Layer_1" data-name="Layer 1" xmlns="http://www.w3.org/2000/svg" viewBox="0 0 100 100"><title>l3_4_1</title><path d="M92.19,84.38H7.81a7.81,7.81,0,0,0,0,15.62H92.19a7.81,7.81,0,0,0,0-15.62Z"/><path d="M61.05,28.74A2.9,2.9,0,0,1,62,31.13a3,3,0,0,1-.94,2.46,4.4,4.4,0,0,1-2.88.79h-16A3.2,3.2,0,0,1,38.73,31a4.84,4.84,0,0,1,1.49-3.42l9.31-9.7q2.89-3,2.89-5.57a3,3,0,0,0-.85-2.29,3.51,3.51,0,0,0-2.44-.79,7.11,7.11,0,0,0-2.35.38,23.77,23.77,0,0,0-2.48,1.07l-.87.44-.69.37a4.62,4.62,0,0,1-.89.42,2.63,2.63,0,0,1-.84.13,2.24,2.24,0,0,1-1.84-1,3.77,3.77,0,0,1-.75-2.35,3.75,3.75,0,0,1,.29-1.58A2.92,2.92,0,0,1,39.78,6a17.81,17.81,0,0,1,9.7-3,14.08,14.08,0,0,1,5.71,1.08A8.57,8.57,0,0,1,59,7.19a8.06,8.06,0,0,1,1.33,4.59,11,11,0,0,1-1.07,4.89,20.64,20.64,0,0,1-3.67,4.94L49.35,28h8.82A4.52,4.52,0,0,1,61.05,28.74Z"/><path d="M60.9,68.44a7.65,7.65,0,0,1,1.43,4.72,7.57,7.57,0,0,1-3.27,6.51C56.88,81.24,53.91,82,50.13,82s-6.75-.78-8.93-2.35a7.57,7.57,0,0,1-3.27-6.51,7.75,7.75,0,0,1,1.45-4.81,7.34,7.34,0,0,1,4.13-2.61A7.23,7.23,0,0,1,40,63a7.45,7.45,0,0,1-1.23-4.28,7.23,7.23,0,0,1,3.07-6.16q3.07-2.26,8.29-2.26t8.32,2.26a7.26,7.26,0,0,1,3,6.16,7.66,7.66,0,0,1-1.25,4.39,6.67,6.67,0,0,1-3.45,2.59A7.63,7.63,0,0,1,60.9,68.44Zm-6,4.06c0-2.28-1.59-3.43-4.78-3.43s-4.78,1.15-4.78,3.43,1.59,3.42,4.78,3.42S54.91,74.78,54.91,72.5ZM47.19,57.2a3,3,0,0,0-1,2.48,3.08,3.08,0,0,0,1,2.51,4.65,4.65,0,0,0,2.94.78,4.61,4.61,0,0,0,2.94-.78,3.08,3.08,0,0,0,1-2.51,3,3,0,0,0-1-2.48,4.68,4.68,0,0,0-2.94-.76A4.72,4.72,0,0,0,47.19,57.2Z"/><rect x="26.08" y="38.59" width="49.69" height="6.57" rx="3.28"/></svg>