<svg id="Layer_1" data-name="Layer 1" xmlns="http://www.w3.org/2000/svg" viewBox="0 0 100 100"><title>l3_4_1</title><path d="M92.19,84.38H7.81a7.81,7.81,0,0,0,0,15.62H92.19a7.81,7.81,0,0,0,0-15.62Z"/><path d="M62.23,28.76a2.94,2.94,0,0,1,.92,2.37q0,3.25-3.81,3.25H44.11q-3.82,0-3.82-3.25a2.94,2.94,0,0,1,.92-2.37,4.43,4.43,0,0,1,2.9-.79h3.55V12.13l-3.51,2.06a3,3,0,0,1-1.54.44,2.62,2.62,0,0,1-2.1-1.08,3.64,3.64,0,0,1-.88-2.39,3,3,0,0,1,1.54-2.72l7-4.08a7.44,7.44,0,0,1,3.64-1.1,3.88,3.88,0,0,1,2.83,1,3.83,3.83,0,0,1,1.08,2.86V28h3.6A4.41,4.41,0,0,1,62.23,28.76Z"/><path d="M63.38,73.33q0,3.12-3.81,3.12h-1v1.49a3.86,3.86,0,0,1-1.1,3,4.05,4.05,0,0,1-2.85,1,4,4,0,0,1-2.83-1,3.88,3.88,0,0,1-1.07-3V76.45H41a3.31,3.31,0,0,1-2.5-1,3.37,3.37,0,0,1-.92-2.41,4.94,4.94,0,0,1,1-2.9l12.55-17.9a4,4,0,0,1,1.56-1.34,4.36,4.36,0,0,1,2-.46,4.16,4.16,0,0,1,2.86,1.05,3.75,3.75,0,0,1,1.18,2.94V70.3h1Q63.38,70.3,63.38,73.33Zm-12.63-3V62.71L45.48,70.3Z"/><rect x="26.08" y="38.59" width="49.69" height="6.57" rx="3.28"/></svg>