<svg id="Layer_1" data-name="Layer 1" xmlns="http://www.w3.org/2000/svg" viewBox="0 0 100 100"><title>l3_4_1</title><path d="M92.19,84.69H7.81a7.82,7.82,0,0,0,0,15.63H92.19a7.82,7.82,0,0,0,0-15.63Z"/><path d="M62.23,29.08a2.94,2.94,0,0,1,.92,2.37q0,3.25-3.81,3.25H44.11q-3.82,0-3.82-3.25a2.94,2.94,0,0,1,.92-2.37,4.37,4.37,0,0,1,2.9-.79h3.55V12.44l-3.51,2.07a3,3,0,0,1-1.54.44,2.62,2.62,0,0,1-2.1-1.08,3.66,3.66,0,0,1-.88-2.39,3,3,0,0,1,1.54-2.72l7-4.08a7.34,7.34,0,0,1,3.64-1.1,3.88,3.88,0,0,1,2.83,1,3.81,3.81,0,0,1,1.08,2.85V28.29h3.6A4.36,4.36,0,0,1,62.23,29.08Z"/><path d="M57.35,63a8.88,8.88,0,0,1,3.47,3.51,10.58,10.58,0,0,1,1.25,5.2,10.35,10.35,0,0,1-1.5,5.57A9.82,9.82,0,0,1,56.36,81a14.17,14.17,0,0,1-6.27,1.32,18.49,18.49,0,0,1-5.33-.79,14.53,14.53,0,0,1-4.5-2.2,3.89,3.89,0,0,1-1-1.2,3.28,3.28,0,0,1-.33-1.52,3.57,3.57,0,0,1,.75-2.3,2.26,2.26,0,0,1,1.84-1,2.85,2.85,0,0,1,1.09.18,13.14,13.14,0,0,1,1.32.66l.88.44a23.32,23.32,0,0,0,2.48,1,7.33,7.33,0,0,0,2.43.39,5.62,5.62,0,0,0,3.65-1A3.84,3.84,0,0,0,54.52,72,3.91,3.91,0,0,0,53.29,69a5,5,0,0,0-3.42-1.09,12.43,12.43,0,0,0-2.39.21,17.18,17.18,0,0,0-2.53.79,4.08,4.08,0,0,1-2,.49,3,3,0,0,1-2.06-.73,2.39,2.39,0,0,1-.84-1.9V54.82a3.75,3.75,0,0,1,1-2.8,3.7,3.7,0,0,1,2.76-1H57.42q3.81,0,3.81,3t-3.81,3.07H47.94v5.4a10.88,10.88,0,0,1,4.34-.79A10.08,10.08,0,0,1,57.35,63Z"/><rect x="26.08" y="38.91" width="49.69" height="6.57" rx="3.28"/></svg>