<svg id="Layer_1" data-name="Layer 1" xmlns="http://www.w3.org/2000/svg" viewBox="0 0 100 100"><title>l3_5_1</title><path d="M92.19,84.38H7.81a7.81,7.81,0,0,0,0,15.62H92.19a7.81,7.81,0,0,0,0-15.62Z"/><path d="M83.23,28.76a3,3,0,0,1,.93,2.37c0,2.17-1.28,3.25-3.82,3.25H65.11q-3.82,0-3.82-3.25a2.94,2.94,0,0,1,.92-2.37,4.43,4.43,0,0,1,2.9-.79h3.55V12.13l-3.51,2.06a3,3,0,0,1-1.54.44,2.63,2.63,0,0,1-2.1-1.08,3.64,3.64,0,0,1-.88-2.39,3,3,0,0,1,1.54-2.72l7-4.08a7.44,7.44,0,0,1,3.64-1.1,3.87,3.87,0,0,1,2.83,1,3.83,3.83,0,0,1,1.08,2.86V28h3.6A4.41,4.41,0,0,1,83.23,28.76Z"/><path d="M41.52,39.18a4.52,4.52,0,0,1,1.36,3.35,4.67,4.67,0,0,1-1.36,3.4,4.48,4.48,0,0,1-3.36,1.4H28.08v10a4.65,4.65,0,0,1-1.32,3.37,4.54,4.54,0,0,1-3.4,1.35,4.63,4.63,0,0,1-4.72-4.72v-10H8.56a4.48,4.48,0,0,1-3.36-1.4,4.67,4.67,0,0,1-1.36-3.4A4.52,4.52,0,0,1,5.2,39.18a4.56,4.56,0,0,1,3.36-1.36H18.64V27.74A4.65,4.65,0,0,1,23.36,23a4.65,4.65,0,0,1,4.72,4.73V37.82H38.16A4.56,4.56,0,0,1,41.52,39.18Z"/><path d="M70.17,76.05a3,3,0,0,1,.92,2.37q0,3.26-3.82,3.25H52.05q-3.82,0-3.82-3.25a2.94,2.94,0,0,1,.92-2.37,4.37,4.37,0,0,1,2.9-.79H55.6V59.42l-3.51,2.06a2.94,2.94,0,0,1-1.54.44,2.63,2.63,0,0,1-2.1-1.07,3.68,3.68,0,0,1-.88-2.39,3,3,0,0,1,1.53-2.72l7-4.09a7.39,7.39,0,0,1,3.64-1.09,3.88,3.88,0,0,1,2.83,1,3.82,3.82,0,0,1,1.07,2.85v20.8h3.6A4.39,4.39,0,0,1,70.17,76.05Z"/><path d="M75.52,78q-3-4.08-3-11.8t3-11.76q3-4.08,8.78-4.08a10.26,10.26,0,0,1,8.75,4.08q3,4.08,3,11.76t-3,11.8q-3,4.08-8.77,4.08T75.52,78Zm11.8-4.3c.62-1.52.92-4,.92-7.5s-.3-5.94-.92-7.46a3.15,3.15,0,0,0-6,0c-.62,1.5-.92,4-.92,7.48s.3,6,.92,7.5a3.15,3.15,0,0,0,6,0Z"/><rect x="47.08" y="38.59" width="49.69" height="6.57" rx="3.28"/></svg>