<svg id="Layer_1" data-name="Layer 1" xmlns="http://www.w3.org/2000/svg" viewBox="0 0 100 100"><title>l3_5_1</title><path d="M15,57.65q-3.79-5.11-3.79-14.8T15,28.11Q18.79,23,26,23t11,5.11q3.81,5.12,3.82,14.74T37,57.65q-3.8,5.12-11,5.11T15,57.65Zm14.8-5.39q1.16-2.86,1.15-9.41c0-4.33-.38-7.44-1.15-9.35a4,4,0,0,0-7.59,0Q21,36.31,21,42.85t1.16,9.41c.77,1.9,2,2.86,3.79,2.86A4,4,0,0,0,29.79,52.26Z"/><path d="M46.15,61.06a5.52,5.52,0,0,1,0-7.59A5.12,5.12,0,0,1,50,51.93a5.05,5.05,0,0,1,3.77,1.54,5.52,5.52,0,0,1,0,7.59A5.09,5.09,0,0,1,50,62.6,5.15,5.15,0,0,1,46.15,61.06Z"/><path d="M87.79,55.2a3.66,3.66,0,0,1,1.18,3,3.82,3.82,0,0,1-1.18,3.08,5.54,5.54,0,0,1-3.61,1H64.11A4.19,4.19,0,0,1,61,61.08a4.08,4.08,0,0,1-1.15-3,6,6,0,0,1,1.87-4.29L73.35,41.64q3.63-3.8,3.63-7a3.71,3.71,0,0,0-1.07-2.86,4.37,4.37,0,0,0-3.06-1,9,9,0,0,0-2.94.46,28,28,0,0,0-3.11,1.35l-1.1.55-.85.47a6.38,6.38,0,0,1-1.13.52,3.29,3.29,0,0,1-1,.17,2.81,2.81,0,0,1-2.31-1.24,4.72,4.72,0,0,1-.94-2.94,4.67,4.67,0,0,1,.36-2,3.62,3.62,0,0,1,1.35-1.43A21.11,21.11,0,0,1,66.94,24a21.48,21.48,0,0,1,6.35-1,17.81,17.81,0,0,1,7.15,1.34,10.78,10.78,0,0,1,4.76,3.85,10.09,10.09,0,0,1,1.68,5.75,13.81,13.81,0,0,1-1.35,6.13,25.64,25.64,0,0,1-4.59,6.19l-7.81,8H84.18A5.66,5.66,0,0,1,87.79,55.2Z"/><path d="M92.19,68.19H7.81a7.81,7.81,0,0,0,0,15.62H92.19a7.81,7.81,0,0,0,0-15.62Z"/></svg>