<svg id="Layer_1" data-name="Layer 1" xmlns="http://www.w3.org/2000/svg" viewBox="0 0 100 100"><title>l3_5_1</title><path d="M15,59q-3.79-5.11-3.79-14.79T15,29.48q3.8-5.11,11-5.12t11,5.12q3.81,5.11,3.82,14.74T37,59q-3.8,5.12-11,5.12T15,59Zm14.8-5.39Q31,50.76,31,44.22t-1.15-9.35a4,4,0,0,0-7.59,0c-.77,1.89-1.16,5-1.16,9.38s.39,7.49,1.16,9.4,2,2.86,3.79,2.86A3.94,3.94,0,0,0,29.82,53.62Z"/><path d="M46.18,62.42a5.52,5.52,0,0,1,0-7.59A5.12,5.12,0,0,1,50,53.29a5.05,5.05,0,0,1,3.77,1.54,5.52,5.52,0,0,1,0,7.59A5.05,5.05,0,0,1,50,64,5.12,5.12,0,0,1,46.18,62.42Z"/><path d="M84.6,29.42q4.23,5.05,4.23,14.41a26.61,26.61,0,0,1-2,10.75,16,16,0,0,1-5.66,7.07,14.9,14.9,0,0,1-8.55,2.48,21.31,21.31,0,0,1-6.3-1,17.57,17.57,0,0,1-5.53-2.75,5,5,0,0,1-1.35-1.49A4.07,4.07,0,0,1,59,57a4.44,4.44,0,0,1,1-2.89,2.92,2.92,0,0,1,2.34-1.18,3.77,3.77,0,0,1,1.38.24c.4.17,1,.43,1.65.8l1.21.6c1.21.59,2.21,1,3,1.33a7.44,7.44,0,0,0,2.53.44,5.29,5.29,0,0,0,4.54-2.56,14.7,14.7,0,0,0,2.06-7.18,8.76,8.76,0,0,1-3.38,2.78,10.56,10.56,0,0,1-4.65,1,11.14,11.14,0,0,1-5.94-1.63,11.31,11.31,0,0,1-4.15-4.51,13.77,13.77,0,0,1-1.51-6.51,13.72,13.72,0,0,1,1.73-6.91,12.21,12.21,0,0,1,4.81-4.75,14.14,14.14,0,0,1,7-1.71Q80.37,24.36,84.6,29.42ZM76.65,41.14a5.47,5.47,0,0,0,1.29-3.8,5.4,5.4,0,0,0-1.32-3.77,4.39,4.39,0,0,0-3.41-1.45,4.3,4.3,0,0,0-3.41,1.43,5.51,5.51,0,0,0-1.26,3.79,5.59,5.59,0,0,0,1.23,3.82,4.34,4.34,0,0,0,3.44,1.41A4.42,4.42,0,0,0,76.65,41.14Z"/><path d="M92.19,69.55H7.81a7.82,7.82,0,0,0,0,15.63H92.19a7.82,7.82,0,0,0,0-15.63Z"/></svg>