<svg id="Layer_1" data-name="Layer 1" xmlns="http://www.w3.org/2000/svg" viewBox="0 0 100 100"><title>l3_5_1</title><path d="M30.5,47.05A9.52,9.52,0,0,1,32.29,53a9.5,9.5,0,0,1-4.09,8.17Q24.09,64.07,17,64.07T5.81,61.13A9.51,9.51,0,0,1,1.71,53a9.67,9.67,0,0,1,1.82-6A9.08,9.08,0,0,1,8.7,43.67a9.07,9.07,0,0,1-4.4-3.39,9.33,9.33,0,0,1-1.54-5.36,9.08,9.08,0,0,1,3.85-7.73Q10.45,24.36,17,24.36t10.42,2.83a9.12,9.12,0,0,1,3.83,7.73,9.52,9.52,0,0,1-1.57,5.5,8.33,8.33,0,0,1-4.32,3.25A9.44,9.44,0,0,1,30.5,47.05ZM23,52.13c0-2.85-2-4.29-6-4.29s-6,1.44-6,4.29,2,4.29,6,4.29S23,55,23,52.13ZM13.32,33a3.72,3.72,0,0,0-1.21,3.1,3.81,3.81,0,0,0,1.21,3.14,5.71,5.71,0,0,0,3.68,1,5.77,5.77,0,0,0,3.69-1,3.84,3.84,0,0,0,1.21-3.14A3.75,3.75,0,0,0,20.69,33,5.9,5.9,0,0,0,17,32,5.85,5.85,0,0,0,13.32,33Z"/><path d="M62.49,45.48a3.14,3.14,0,0,1,.93,2.31,3.24,3.24,0,0,1-.93,2.34,3.12,3.12,0,0,1-2.31,1H53.25V58a3.23,3.23,0,0,1-.91,2.31,3.37,3.37,0,0,1-4.65,0A3.17,3.17,0,0,1,46.76,58V51.09H39.83a3.09,3.09,0,0,1-2.31-1,3.21,3.21,0,0,1-.94-2.34,3.19,3.19,0,0,1,3.25-3.24h6.93V37.61A3.18,3.18,0,0,1,50,34.37a3.19,3.19,0,0,1,3.25,3.24v6.94h6.93A3.17,3.17,0,0,1,62.49,45.48Z"/><path d="M93.62,29.42q4.23,5.05,4.23,14.41a26.61,26.61,0,0,1-2,10.75,16,16,0,0,1-5.66,7.07,14.9,14.9,0,0,1-8.55,2.48,21,21,0,0,1-6.3-1,17.16,17.16,0,0,1-5.53-2.75,4.83,4.83,0,0,1-1.35-1.48A4.07,4.07,0,0,1,68,57a4.44,4.44,0,0,1,1-2.89,2.93,2.93,0,0,1,2.34-1.19,3.77,3.77,0,0,1,1.38.25c.4.17,1,.43,1.65.8l1.21.6c1.21.59,2.21,1,3,1.33a7.44,7.44,0,0,0,2.53.44,5.29,5.29,0,0,0,4.54-2.56,14.7,14.7,0,0,0,2.06-7.18,8.76,8.76,0,0,1-3.38,2.78,10.56,10.56,0,0,1-4.65,1,11.14,11.14,0,0,1-5.94-1.63,11.31,11.31,0,0,1-4.15-4.51,13.77,13.77,0,0,1-1.51-6.51,13.72,13.72,0,0,1,1.73-6.91,12.21,12.21,0,0,1,4.81-4.75,14.14,14.14,0,0,1,7-1.71Q89.39,24.36,93.62,29.42Zm-8,11.71A5.43,5.43,0,0,0,87,37.34a5.4,5.4,0,0,0-1.32-3.77,4.4,4.4,0,0,0-3.41-1.46,4.32,4.32,0,0,0-3.41,1.44,5.51,5.51,0,0,0-1.26,3.79,5.59,5.59,0,0,0,1.23,3.82,4.34,4.34,0,0,0,3.44,1.41A4.4,4.4,0,0,0,85.67,41.13Z"/><path d="M92.19,69.55H7.81a7.82,7.82,0,0,0,0,15.63H92.19a7.82,7.82,0,0,0,0-15.63Z"/></svg>