<svg id="Layer_1" data-name="Layer 1" xmlns="http://www.w3.org/2000/svg" viewBox="0 0 100 100"><title>l3_5_1</title><path d="M31.17,26a4.3,4.3,0,0,1,1.07,3,7,7,0,0,1-1.05,3.64L14.53,61.54a5.17,5.17,0,0,1-1.9,2,4.74,4.74,0,0,1-2.34.64,5.06,5.06,0,0,1-3.41-1.3A4,4,0,0,1,5.4,59.67,5.14,5.14,0,0,1,6.17,57L20.3,32.88H6.55a5.58,5.58,0,0,1-3.66-1,3.75,3.75,0,0,1-1.12-3,3.86,3.86,0,0,1,1.15-3.05,5.39,5.39,0,0,1,3.63-1H28.11A3.93,3.93,0,0,1,31.17,26Z"/><path d="M62.49,45.48a3.14,3.14,0,0,1,.93,2.31,3.24,3.24,0,0,1-.93,2.34,3.12,3.12,0,0,1-2.31,1H53.25V58a3.23,3.23,0,0,1-.91,2.31,3.37,3.37,0,0,1-4.65,0A3.17,3.17,0,0,1,46.76,58V51.09H39.83a3.09,3.09,0,0,1-2.31-1,3.21,3.21,0,0,1-.94-2.34,3.19,3.19,0,0,1,3.25-3.24h6.93V37.61A3.18,3.18,0,0,1,50,34.37a3.19,3.19,0,0,1,3.25,3.24v6.94h6.93A3.17,3.17,0,0,1,62.49,45.48Z"/><path d="M96.5,47.05A9.52,9.52,0,0,1,98.29,53a9.48,9.48,0,0,1-4.1,8.17Q90.1,64.07,83,64.07T71.81,61.13A9.51,9.51,0,0,1,67.71,53a9.67,9.67,0,0,1,1.82-6,9.08,9.08,0,0,1,5.17-3.27,9.07,9.07,0,0,1-4.4-3.39,9.33,9.33,0,0,1-1.54-5.36,9.08,9.08,0,0,1,3.85-7.73Q76.45,24.36,83,24.36t10.42,2.83a9.12,9.12,0,0,1,3.83,7.73,9.59,9.59,0,0,1-1.57,5.5,8.37,8.37,0,0,1-4.32,3.25A9.44,9.44,0,0,1,96.5,47.05ZM89,52.13c0-2.85-2-4.29-6-4.29s-6,1.44-6,4.29,2,4.29,6,4.29S89,55,89,52.13ZM79.32,33a3.72,3.72,0,0,0-1.21,3.1,3.81,3.81,0,0,0,1.21,3.14,5.71,5.71,0,0,0,3.68,1,5.77,5.77,0,0,0,3.69-1,3.84,3.84,0,0,0,1.21-3.14A3.75,3.75,0,0,0,86.69,33,5.9,5.9,0,0,0,83,32,5.85,5.85,0,0,0,79.32,33Z"/><path d="M92.19,69.55H7.81a7.82,7.82,0,0,0,0,15.63H92.19a7.82,7.82,0,0,0,0-15.63Z"/></svg>