<svg id="Layer_1" data-name="Layer 1" xmlns="http://www.w3.org/2000/svg" viewBox="0 0 100 100"><title>l3_5_1</title><path d="M15,59q-3.79-5.11-3.79-14.79T15,29.48q3.8-5.11,11-5.12t11,5.12q3.81,5.11,3.82,14.74T37,59q-3.8,5.12-11,5.12T15,59Zm14.8-5.39Q31,50.76,31,44.22t-1.15-9.35a4,4,0,0,0-7.59,0c-.77,1.89-1.16,5-1.16,9.38s.39,7.49,1.16,9.4,2,2.86,3.79,2.86A3.94,3.94,0,0,0,29.82,53.62Z"/><path d="M46.18,62.42a5.52,5.52,0,0,1,0-7.59,5.45,5.45,0,0,1,7.59,0,5.52,5.52,0,0,1,0,7.59,5.45,5.45,0,0,1-7.59,0Z"/><path d="M88.14,26a4.26,4.26,0,0,1,1.08,3,7,7,0,0,1-1,3.64L71.51,61.54a5.17,5.17,0,0,1-1.9,2,4.74,4.74,0,0,1-2.34.64,5.06,5.06,0,0,1-3.41-1.3,4,4,0,0,1-1.48-3.16A5.14,5.14,0,0,1,63.15,57L77.28,32.89H63.53a5.56,5.56,0,0,1-3.66-1,3.75,3.75,0,0,1-1.12-3,3.87,3.87,0,0,1,1.15-3.06,5.39,5.39,0,0,1,3.63-1H85.09A3.89,3.89,0,0,1,88.14,26Z"/><path d="M92.19,69.55H7.81a7.82,7.82,0,0,0,0,15.63H92.19a7.82,7.82,0,0,0,0-15.63Z"/></svg>