<svg id="Layer_1" data-name="Layer 1" xmlns="http://www.w3.org/2000/svg" viewBox="0 0 100 100"><title>l3_5_1</title><path d="M33.61,53.18c0,2.6-1.59,3.91-4.78,3.91H27.62V59a4.83,4.83,0,0,1-1.38,3.74A5.09,5.09,0,0,1,22.67,64a5,5,0,0,1-3.55-1.26A4.89,4.89,0,0,1,17.77,59V57.09H5.51a4.17,4.17,0,0,1-3.14-1.21,4.22,4.22,0,0,1-1.15-3,6.15,6.15,0,0,1,1.21-3.63L18.16,26.78a5.1,5.1,0,0,1,1.95-1.68,5.57,5.57,0,0,1,2.45-.57,5.23,5.23,0,0,1,3.57,1.31,4.7,4.7,0,0,1,1.49,3.69V49.39h1.21Q33.62,49.39,33.61,53.18ZM17.77,49.39V39.87l-6.6,9.52Z"/><path d="M62.49,45.48a3.14,3.14,0,0,1,.93,2.31,3.24,3.24,0,0,1-.93,2.34,3.12,3.12,0,0,1-2.31,1H53.25V58a3.23,3.23,0,0,1-.91,2.31A3.26,3.26,0,0,1,46.76,58V51.09H39.83a3.09,3.09,0,0,1-2.31-1,3.21,3.21,0,0,1-.94-2.34,3.19,3.19,0,0,1,3.25-3.24h6.93V37.62a3.17,3.17,0,0,1,.93-2.32,3.33,3.33,0,0,1,4.62,0,3.18,3.18,0,0,1,.94,2.32v6.93h6.93A3.17,3.17,0,0,1,62.49,45.48Z"/><path d="M92.05,39.84a11.13,11.13,0,0,1,4.34,4.4A13.19,13.19,0,0,1,98,50.76a13,13,0,0,1-1.87,7,12.45,12.45,0,0,1-5.28,4.67A17.82,17.82,0,0,1,83,64.07a23,23,0,0,1-6.69-1,18.14,18.14,0,0,1-5.63-2.75,5,5,0,0,1-1.3-1.51,4.16,4.16,0,0,1-.41-1.9A4.48,4.48,0,0,1,69.86,54a2.83,2.83,0,0,1,2.31-1.18,3.64,3.64,0,0,1,1.37.22,15.63,15.63,0,0,1,1.65.83l1.1.55a28.18,28.18,0,0,0,3.11,1.31,9.08,9.08,0,0,0,3,.5A7,7,0,0,0,87,55a4.74,4.74,0,0,0,1.48-3.87A4.87,4.87,0,0,0,87,47.3a6.21,6.21,0,0,0-4.29-1.38,14.57,14.57,0,0,0-3,.28,18.77,18.77,0,0,0-3.16,1,5.27,5.27,0,0,1-2.47.6,3.79,3.79,0,0,1-2.59-.91,3,3,0,0,1-1-2.39V29.59a4.74,4.74,0,0,1,1.21-3.52,4.66,4.66,0,0,1,3.46-1.21h17q4.78,0,4.79,3.79T92.13,32.5H80.25v6.76a14,14,0,0,1,5.45-1A12.74,12.74,0,0,1,92.05,39.84Z"/><path d="M92.19,69.55H7.81a7.82,7.82,0,0,0,0,15.63H92.19a7.82,7.82,0,0,0,0-15.63Z"/></svg>