<svg id="Layer_1" data-name="Layer 1" xmlns="http://www.w3.org/2000/svg" viewBox="0 0 100 100"><title>l3_5_1</title><path d="M26.24,39.73a11.31,11.31,0,0,1,4.15,4.51,13.84,13.84,0,0,1,1.52,6.52,13.66,13.66,0,0,1-1.74,6.9,12.23,12.23,0,0,1-4.81,4.76,14.13,14.13,0,0,1-7,1.71q-7.75,0-12-5.06T2.15,44.65a26.64,26.64,0,0,1,2-10.75,16.06,16.06,0,0,1,5.66-7.06,14.91,14.91,0,0,1,8.56-2.48,21.29,21.29,0,0,1,6.29,1A17.57,17.57,0,0,1,30.2,28.1a4.73,4.73,0,0,1,1.35,1.49A4.07,4.07,0,0,1,32,31.51a4.44,4.44,0,0,1-1,2.89,2.91,2.91,0,0,1-2.34,1.18,3.49,3.49,0,0,1-1.37-.25,16.46,16.46,0,0,1-1.65-.8l-1.21-.6a31.22,31.22,0,0,0-3-1.32,7.4,7.4,0,0,0-2.53-.44,5.27,5.27,0,0,0-4.54,2.56,14.63,14.63,0,0,0-2.06,7.17,8.81,8.81,0,0,1,3.38-2.77,10.63,10.63,0,0,1,4.65-1A11.13,11.13,0,0,1,26.24,39.73ZM21.18,54.94a5.48,5.48,0,0,0,1.27-3.79,5.62,5.62,0,0,0-1.24-3.83,4.37,4.37,0,0,0-3.44-1.4,4.44,4.44,0,0,0-3.44,1.43A5.45,5.45,0,0,0,13,51.15a5.37,5.37,0,0,0,1.32,3.76,4.4,4.4,0,0,0,3.41,1.46A4.33,4.33,0,0,0,21.18,54.94Z"/><path d="M62.49,45.48a3.14,3.14,0,0,1,.93,2.31,3.24,3.24,0,0,1-.93,2.34,3.12,3.12,0,0,1-2.31,1H53.25V58a3.23,3.23,0,0,1-.91,2.31A3.26,3.26,0,0,1,46.76,58V51.09H39.83a3.09,3.09,0,0,1-2.31-1,3.21,3.21,0,0,1-.94-2.34,3.19,3.19,0,0,1,3.25-3.24h6.93V37.61a3.17,3.17,0,0,1,.93-2.31,3.33,3.33,0,0,1,4.62,0,3.18,3.18,0,0,1,.94,2.31v6.94h6.93A3.17,3.17,0,0,1,62.49,45.48Z"/><path d="M97.16,26a4.26,4.26,0,0,1,1.08,3,7,7,0,0,1-1,3.64L80.53,61.54a5.17,5.17,0,0,1-1.9,2,4.74,4.74,0,0,1-2.34.64,5.06,5.06,0,0,1-3.41-1.3,4,4,0,0,1-1.48-3.16A5.14,5.14,0,0,1,72.17,57L86.3,32.88H72.55a5.55,5.55,0,0,1-3.66-1,3.75,3.75,0,0,1-1.12-3,3.86,3.86,0,0,1,1.15-3.05,5.39,5.39,0,0,1,3.63-1H94.11A3.89,3.89,0,0,1,97.16,26Z"/><path d="M92.19,69.55H7.81a7.82,7.82,0,0,0,0,15.63H92.19a7.82,7.82,0,0,0,0-15.63Z"/></svg>