<svg id="Layer_1" data-name="Layer 1" xmlns="http://www.w3.org/2000/svg" viewBox="0 0 100 100"><title>l3_5_1</title><path d="M26.05,38.48a11.07,11.07,0,0,1,4.34,4.4A13.19,13.19,0,0,1,32,49.4a13,13,0,0,1-1.87,7,12.41,12.41,0,0,1-5.28,4.68A17.82,17.82,0,0,1,17,62.71a23,23,0,0,1-6.69-1A18.14,18.14,0,0,1,4.63,59a4.89,4.89,0,0,1-1.3-1.52,4.12,4.12,0,0,1-.41-1.89,4.48,4.48,0,0,1,.94-2.89,2.83,2.83,0,0,1,2.31-1.18,3.64,3.64,0,0,1,1.37.22,15.1,15.1,0,0,1,1.65.82l1.1.55A30.51,30.51,0,0,0,13.4,54.4a9.08,9.08,0,0,0,3,.5A7.08,7.08,0,0,0,21,53.66a4.77,4.77,0,0,0,1.48-3.88A4.89,4.89,0,0,0,21,45.93a6.26,6.26,0,0,0-4.29-1.37,15.34,15.34,0,0,0-3,.27,20.82,20.82,0,0,0-3.16,1A5.16,5.16,0,0,1,8,46.43a3.84,3.84,0,0,1-2.59-.91,3,3,0,0,1-1-2.39V28.22A4.76,4.76,0,0,1,5.62,24.7a4.7,4.7,0,0,1,3.46-1.21h17q4.79,0,4.79,3.8c0,2.56-1.6,3.85-4.79,3.85H14.25V37.9a13.78,13.78,0,0,1,5.45-1A12.64,12.64,0,0,1,26.05,38.48Z"/><path d="M62.49,44.12a3.14,3.14,0,0,1,.93,2.31,3.23,3.23,0,0,1-.93,2.33,3.09,3.09,0,0,1-2.31,1H53.25V56.6a3.2,3.2,0,0,1-.91,2.31,3.26,3.26,0,0,1-5.58-2.31V49.73H39.83a3.06,3.06,0,0,1-2.31-1,3.2,3.2,0,0,1-.94-2.33,3.21,3.21,0,0,1,3.25-3.25h6.93V36.25a3.17,3.17,0,0,1,.93-2.31,3.33,3.33,0,0,1,4.62,0,3.18,3.18,0,0,1,.94,2.31v6.93h6.93A3.14,3.14,0,0,1,62.49,44.12Z"/><path d="M92.24,38.37a11.31,11.31,0,0,1,4.15,4.51,14.72,14.72,0,0,1-.22,13.42,12.3,12.3,0,0,1-4.81,4.76,14.24,14.24,0,0,1-7,1.7q-7.75,0-12-5.06T68.15,43.29a26.64,26.64,0,0,1,2-10.75,16,16,0,0,1,5.66-7.07A14.89,14.89,0,0,1,84.37,23a21.31,21.31,0,0,1,6.3,1,17.36,17.36,0,0,1,5.53,2.75,4.83,4.83,0,0,1,1.35,1.48A4.14,4.14,0,0,1,98,30.15,4.41,4.41,0,0,1,97,33a2.92,2.92,0,0,1-2.34,1.19A3.77,3.77,0,0,1,93.28,34c-.4-.17-1-.43-1.65-.8l-1.21-.6a31.21,31.21,0,0,0-3-1.32,7.2,7.2,0,0,0-2.53-.44,5.28,5.28,0,0,0-4.54,2.55,14.7,14.7,0,0,0-2.06,7.18,8.76,8.76,0,0,1,3.38-2.78,10.7,10.7,0,0,1,4.65-1A11.13,11.13,0,0,1,92.24,38.37ZM87.18,53.58a5.56,5.56,0,0,0,1.27-3.8A5.59,5.59,0,0,0,87.21,46a4.33,4.33,0,0,0-3.44-1.4A4.39,4.39,0,0,0,80.33,46a6.13,6.13,0,0,0,0,7.56A4.4,4.4,0,0,0,83.77,55,4.33,4.33,0,0,0,87.18,53.58Z"/><path d="M92.19,68.19H7.81a7.81,7.81,0,0,0,0,15.62H92.19a7.81,7.81,0,0,0,0-15.62Z"/></svg>