<svg id="Layer_1" data-name="Layer 1" xmlns="http://www.w3.org/2000/svg" viewBox="0 0 100 100"><title>l3_5_1</title><path d="M41.31,56.59a3.7,3.7,0,0,1,1.16,3q0,4.06-4.79,4.07H18.6q-4.79,0-4.79-4.07a3.7,3.7,0,0,1,1.16-3,5.5,5.5,0,0,1,3.63-1h4.45V35.75l-4.4,2.58a3.69,3.69,0,0,1-1.92.55,3.3,3.3,0,0,1-2.64-1.35,4.58,4.58,0,0,1-1.1-3,3.73,3.73,0,0,1,1.92-3.4L23.71,26a9.29,9.29,0,0,1,4.57-1.37,4.58,4.58,0,0,1,4.89,4.89V55.6h4.51A5.5,5.5,0,0,1,41.31,56.59Z"/><path d="M46.18,62.42a5.52,5.52,0,0,1,0-7.59,5.45,5.45,0,0,1,7.59,0,5.52,5.52,0,0,1,0,7.59,5.45,5.45,0,0,1-7.59,0Z"/><path d="M63,59q-3.79-5.11-3.79-14.79T63,29.48q3.8-5.11,11-5.12t11,5.12q3.83,5.11,3.83,14.74T85,59q-3.8,5.12-11,5.12T63,59Zm14.8-5.39q1.16-2.86,1.15-9.4t-1.15-9.35a4,4,0,0,0-7.59,0c-.77,1.89-1.16,5-1.16,9.38s.39,7.49,1.16,9.4,2,2.86,3.79,2.86A3.94,3.94,0,0,0,77.78,53.62Z"/><path d="M92.19,69.55H7.81a7.82,7.82,0,0,0,0,15.63H92.19a7.82,7.82,0,0,0,0-15.63Z"/></svg>