<svg id="Layer_1" data-name="Layer 1" xmlns="http://www.w3.org/2000/svg" viewBox="0 0 100 100"><title>l3_5_1</title><path d="M92.19,84.38H7.81a7.81,7.81,0,0,0,0,15.62H92.19a7.81,7.81,0,0,0,0-15.62Z"/><path d="M83.23,28.76a2.94,2.94,0,0,1,.92,2.37q0,3.25-3.81,3.25H65.11q-3.82,0-3.82-3.25a2.94,2.94,0,0,1,.92-2.37,4.43,4.43,0,0,1,2.9-.79h3.55V12.13l-3.51,2.06a3,3,0,0,1-1.54.44,2.62,2.62,0,0,1-2.1-1.08,3.64,3.64,0,0,1-.88-2.39,3,3,0,0,1,1.54-2.72l7-4.08a7.41,7.41,0,0,1,3.64-1.1,3.88,3.88,0,0,1,2.83,1,3.83,3.83,0,0,1,1.08,2.86V28h3.6A4.41,4.41,0,0,1,83.23,28.76Z"/><path d="M41.52,39.17a4.56,4.56,0,0,1,1.36,3.36,4.67,4.67,0,0,1-1.36,3.4,4.48,4.48,0,0,1-3.36,1.4H28.08v10a4.62,4.62,0,0,1-1.32,3.36,4.51,4.51,0,0,1-3.4,1.36,4.65,4.65,0,0,1-4.72-4.72v-10H8.56a4.48,4.48,0,0,1-3.36-1.4,4.67,4.67,0,0,1-1.36-3.4,4.65,4.65,0,0,1,4.72-4.72H18.64V27.73A4.65,4.65,0,0,1,23.36,23a4.65,4.65,0,0,1,4.72,4.72V37.81H38.16A4.6,4.6,0,0,1,41.52,39.17Z"/><path d="M79.6,54.38Q83,58.42,83,65.87a21.39,21.39,0,0,1-1.6,8.58,12.87,12.87,0,0,1-4.52,5.64,11.94,11.94,0,0,1-6.83,2,16.93,16.93,0,0,1-5-.79,13.8,13.8,0,0,1-4.41-2.19,3.76,3.76,0,0,1-1.07-1.19,3.21,3.21,0,0,1-.33-1.53A3.55,3.55,0,0,1,60,74.05a2.37,2.37,0,0,1,1.87-.94,3,3,0,0,1,1.1.2,13.41,13.41,0,0,1,1.31.64l1,.48a24.69,24.69,0,0,0,2.41,1,5.72,5.72,0,0,0,2,.35,4.2,4.2,0,0,0,3.62-2,11.72,11.72,0,0,0,1.65-5.72,7.1,7.1,0,0,1-2.7,2.21,8.5,8.5,0,0,1-3.71.81,8.87,8.87,0,0,1-4.74-1.29,9,9,0,0,1-3.31-3.6,11.73,11.73,0,0,1,.17-10.71,9.79,9.79,0,0,1,3.84-3.79A11.29,11.29,0,0,1,70,50.34Q76.22,50.34,79.6,54.38Zm-6.34,9.34a4.89,4.89,0,0,0,0-6,3.48,3.48,0,0,0-2.72-1.16,3.45,3.45,0,0,0-2.72,1.14,4.36,4.36,0,0,0-1,3,4.47,4.47,0,0,0,1,3.05,3.47,3.47,0,0,0,2.75,1.12A3.52,3.52,0,0,0,73.26,63.72Z"/><rect x="47.08" y="38.59" width="49.69" height="6.57" rx="3.28"/></svg>