<svg id="Layer_1" data-name="Layer 1" xmlns="http://www.w3.org/2000/svg" viewBox="0 0 100 100"><title>l3_5_1</title><path d="M23.76,47.75c0-2.53,1.53-3.8,4.57-3.8H38.67a5.1,5.1,0,0,1,3.44,1,3.55,3.55,0,0,1,1.12,2.81,3.62,3.62,0,0,1-1.12,2.83,5,5,0,0,1-3.44,1H28.33C25.29,51.6,23.76,50.32,23.76,47.75Z"/><path d="M77.55,55.5a3.7,3.7,0,0,1,1.16,3c0,2.72-1.6,4.07-4.79,4.07H54.84c-3.19,0-4.79-1.35-4.79-4.07a3.7,3.7,0,0,1,1.16-3,5.5,5.5,0,0,1,3.63-1h4.45V34.66l-4.4,2.58a3.69,3.69,0,0,1-1.92.55,3.31,3.31,0,0,1-2.64-1.34,4.65,4.65,0,0,1-1.1-3A3.74,3.74,0,0,1,51.15,30L60,24.92a9.4,9.4,0,0,1,4.57-1.37,4.86,4.86,0,0,1,3.55,1.32,4.8,4.8,0,0,1,1.34,3.57V54.51h4.51A5.5,5.5,0,0,1,77.55,55.5Z"/><path d="M92.19,68.47H7.81a7.81,7.81,0,0,0,0,15.62H92.19a7.81,7.81,0,0,0,0-15.62Z"/></svg>