<svg id="Layer_1" data-name="Layer 1" xmlns="http://www.w3.org/2000/svg" viewBox="0 0 100 100"><title>l3_5_1</title><path d="M29.07,47.07a9.78,9.78,0,0,1,1.85,6A9.59,9.59,0,0,1,29.1,58.9,11.56,11.56,0,0,1,24,62.72a20.61,20.61,0,0,1-7.78,1.35,24.49,24.49,0,0,1-6.88-1,17.62,17.62,0,0,1-5.72-2.78,4.44,4.44,0,0,1-1.32-1.51,4.3,4.3,0,0,1-.38-1.9A4.53,4.53,0,0,1,2.81,54a2.84,2.84,0,0,1,2.31-1.18,3.57,3.57,0,0,1,1.38.25c.4.16,1,.43,1.65.8l.52.24.69.31a24.64,24.64,0,0,0,3.16,1.34,10,10,0,0,0,3.16.47,7.65,7.65,0,0,0,4.43-1A3.82,3.82,0,0,0,21.46,52a3.44,3.44,0,0,0-1.38-3.08A8.29,8.29,0,0,0,15.57,48H12.16A3.13,3.13,0,0,1,9.58,46.8a4.49,4.49,0,0,1,0-5.5,3.12,3.12,0,0,1,2.58-1.15h2.42a8.37,8.37,0,0,0,4.4-.89,3.07,3.07,0,0,0,1.38-2.8,4.12,4.12,0,0,0-1.21-3.16,4.76,4.76,0,0,0-3.36-1.13,8.32,8.32,0,0,0-2.89.5,29.46,29.46,0,0,0-3,1.32l-1.16.54c-.7.37-1.25.64-1.65.8a3.49,3.49,0,0,1-1.37.25A2.83,2.83,0,0,1,3.42,34.4a4.48,4.48,0,0,1-.94-2.89,4.21,4.21,0,0,1,.39-1.92A4.28,4.28,0,0,1,4.19,28.1a18.18,18.18,0,0,1,5.58-2.75,22,22,0,0,1,6.52-1,18.2,18.2,0,0,1,7.17,1.32,10.76,10.76,0,0,1,4.79,3.74A9.58,9.58,0,0,1,29.93,35a9.18,9.18,0,0,1-1.57,5.31A9,9,0,0,1,24,43.67,9.34,9.34,0,0,1,29.07,47.07Z"/><path d="M62.49,45.48a3.14,3.14,0,0,1,.93,2.31,3.24,3.24,0,0,1-.93,2.34,3.12,3.12,0,0,1-2.31,1H53.25V58a3.23,3.23,0,0,1-.91,2.31A3.26,3.26,0,0,1,46.76,58V51.09H39.83a3.09,3.09,0,0,1-2.31-1,3.21,3.21,0,0,1-.94-2.34,3.19,3.19,0,0,1,3.25-3.24h6.93V37.62a3.17,3.17,0,0,1,.93-2.32,3.33,3.33,0,0,1,4.62,0,3.18,3.18,0,0,1,.94,2.32v6.93h6.93A3.17,3.17,0,0,1,62.49,45.48Z"/><path d="M99.61,53.18c0,2.6-1.59,3.91-4.78,3.91H93.62V59a4.83,4.83,0,0,1-1.38,3.74A5.09,5.09,0,0,1,88.67,64a5,5,0,0,1-3.55-1.26A4.89,4.89,0,0,1,83.77,59V57.09H71.51a4.17,4.17,0,0,1-3.14-1.21,4.22,4.22,0,0,1-1.15-3,6.15,6.15,0,0,1,1.21-3.63L84.16,26.78a5.1,5.1,0,0,1,2-1.68,5.57,5.57,0,0,1,2.45-.57,5.23,5.23,0,0,1,3.57,1.31,4.7,4.7,0,0,1,1.49,3.69V49.39h1.21Q99.62,49.39,99.61,53.18ZM83.77,49.39V39.87l-6.6,9.52Z"/><path d="M92.19,69.55H7.81a7.82,7.82,0,0,0,0,15.63H92.19a7.82,7.82,0,0,0,0-15.63Z"/></svg>