<svg id="Layer_1" data-name="Layer 1" xmlns="http://www.w3.org/2000/svg" viewBox="0 0 100 100"><title>l3_5_1</title><path d="M92.19,84.38H7.81a7.81,7.81,0,0,0,0,15.62H92.19a7.81,7.81,0,0,0,0-15.62Z"/><path d="M83.23,28.76a3,3,0,0,1,.93,2.37c0,2.17-1.28,3.25-3.82,3.25H65.11q-3.82,0-3.82-3.25a2.94,2.94,0,0,1,.92-2.37,4.43,4.43,0,0,1,2.9-.79h3.55V12.13l-3.51,2.06a3,3,0,0,1-1.54.44,2.62,2.62,0,0,1-2.1-1.08,3.64,3.64,0,0,1-.88-2.39,3,3,0,0,1,1.54-2.72l7-4.08a7.44,7.44,0,0,1,3.64-1.1,3.87,3.87,0,0,1,2.83,1,3.83,3.83,0,0,1,1.08,2.86V28h3.6A4.41,4.41,0,0,1,83.23,28.76Z"/><path d="M41.52,39.18a4.52,4.52,0,0,1,1.36,3.35,4.67,4.67,0,0,1-1.36,3.4,4.48,4.48,0,0,1-3.36,1.4H28.08v10a4.65,4.65,0,0,1-1.32,3.37,4.54,4.54,0,0,1-3.4,1.35,4.63,4.63,0,0,1-4.72-4.72v-10H8.56a4.48,4.48,0,0,1-3.36-1.4,4.67,4.67,0,0,1-1.36-3.4A4.52,4.52,0,0,1,5.2,39.18a4.56,4.56,0,0,1,3.36-1.36H18.64V27.74A4.65,4.65,0,0,1,23.36,23a4.65,4.65,0,0,1,4.72,4.73V37.82H38.16A4.56,4.56,0,0,1,41.52,39.18Z"/><path d="M80.76,68.46a7.79,7.79,0,0,1,1.47,4.78,7.65,7.65,0,0,1-1.44,4.65,9.2,9.2,0,0,1-4.11,3A16.41,16.41,0,0,1,70.47,82,19.51,19.51,0,0,1,65,81.25,13.85,13.85,0,0,1,60.43,79a3.44,3.44,0,0,1-1.06-1.2A4,4,0,0,1,59.81,74a2.26,2.26,0,0,1,1.84-.94,2.92,2.92,0,0,1,1.1.19c.32.14.76.35,1.32.64l.41.2.55.24a18.18,18.18,0,0,0,2.53,1.07,7.85,7.85,0,0,0,2.52.38A6.13,6.13,0,0,0,73.61,75a3.05,3.05,0,0,0,1.08-2.63,2.76,2.76,0,0,0-1.1-2.46,6.57,6.57,0,0,0-3.6-.75H67.27a2.49,2.49,0,0,1-2.06-.92,3.34,3.34,0,0,1-.75-2.19,3.39,3.39,0,0,1,.75-2.2,2.51,2.51,0,0,1,2.06-.92H69.2a6.69,6.69,0,0,0,3.51-.7A2.46,2.46,0,0,0,73.81,60a3.26,3.26,0,0,0-1-2.52,3.75,3.75,0,0,0-2.67-.9,6.75,6.75,0,0,0-2.31.39c-.71.27-1.51.62-2.39,1.06l-.92.44c-.56.29-1,.5-1.32.63a2.86,2.86,0,0,1-1.09.2,2.28,2.28,0,0,1-1.85-.94A3.65,3.65,0,0,1,59.55,56a3.34,3.34,0,0,1,.31-1.53,3.45,3.45,0,0,1,1-1.19,14.56,14.56,0,0,1,4.45-2.19,17.5,17.5,0,0,1,5.2-.79,14.61,14.61,0,0,1,5.73,1,8.63,8.63,0,0,1,3.82,3,7.63,7.63,0,0,1,1.33,4.47,7.28,7.28,0,0,1-1.25,4.24,7.11,7.11,0,0,1-3.49,2.65A7.45,7.45,0,0,1,80.76,68.46Z"/><rect x="47.08" y="38.59" width="49.69" height="6.57" rx="3.28"/></svg>