<svg id="Layer_1" data-name="Layer 1" xmlns="http://www.w3.org/2000/svg" viewBox="0 0 100 100"><title>l3_5_1</title><path d="M30.81,55.2a3.66,3.66,0,0,1,1.18,3,3.82,3.82,0,0,1-1.18,3.08,5.54,5.54,0,0,1-3.61,1H7.13A4.19,4.19,0,0,1,4,61.08a4.08,4.08,0,0,1-1.15-3A6,6,0,0,1,4.71,53.8L16.37,41.64q3.63-3.8,3.63-7a3.71,3.71,0,0,0-1.07-2.86,4.37,4.37,0,0,0-3.06-1,9,9,0,0,0-2.94.46,30,30,0,0,0-3.11,1.35l-1.1.55-.85.47a6.38,6.38,0,0,1-1.13.52,3.29,3.29,0,0,1-1,.17,2.81,2.81,0,0,1-2.31-1.24,4.72,4.72,0,0,1-.94-2.94,4.67,4.67,0,0,1,.36-2,3.62,3.62,0,0,1,1.35-1.43A21.25,21.25,0,0,1,10,24a21.53,21.53,0,0,1,6.35-1,17.81,17.81,0,0,1,7.15,1.34,10.78,10.78,0,0,1,4.76,3.85,10.09,10.09,0,0,1,1.68,5.75,13.81,13.81,0,0,1-1.35,6.13A25.64,25.64,0,0,1,24,46.26l-7.81,8H27.2A5.66,5.66,0,0,1,30.81,55.2Z"/><path d="M62.51,44.12a3.11,3.11,0,0,1,.94,2.31,3.2,3.2,0,0,1-.94,2.33,3.06,3.06,0,0,1-2.31,1H53.27V56.6a3.19,3.19,0,0,1-.9,2.31,3.27,3.27,0,0,1-5.59-2.31V49.73H39.85a3.09,3.09,0,0,1-2.31-1,3.23,3.23,0,0,1-.93-2.33,3.19,3.19,0,0,1,3.24-3.25h6.93V36.25a3.25,3.25,0,1,1,6.49,0v6.93H60.2A3.11,3.11,0,0,1,62.51,44.12Z"/><path d="M95.1,45.71a9.75,9.75,0,0,1,1.84,6,9.6,9.6,0,0,1-1.81,5.83A11.61,11.61,0,0,1,90,61.36a20.66,20.66,0,0,1-7.79,1.35,24.47,24.47,0,0,1-6.87-1A17.61,17.61,0,0,1,69.61,59a4.18,4.18,0,0,1-1.32-1.52,4.25,4.25,0,0,1-.39-1.89,4.48,4.48,0,0,1,.94-2.89,2.83,2.83,0,0,1,2.31-1.18,3.68,3.68,0,0,1,1.37.24c.4.17,1,.44,1.65.8l.52.25.69.3a24.61,24.61,0,0,0,3.16,1.35,10.06,10.06,0,0,0,3.17.47,7.59,7.59,0,0,0,4.42-1,3.82,3.82,0,0,0,1.35-3.3,3.46,3.46,0,0,0-1.37-3.08,8.21,8.21,0,0,0-4.51-.94H78.19a3.16,3.16,0,0,1-2.59-1.15,4.53,4.53,0,0,1,0-5.5,3.17,3.17,0,0,1,2.59-1.16h2.42A8.41,8.41,0,0,0,85,37.9a3.08,3.08,0,0,0,1.37-2.8,4.12,4.12,0,0,0-1.21-3.17,4.71,4.71,0,0,0-3.35-1.12,8.31,8.31,0,0,0-2.89.49,29.55,29.55,0,0,0-3,1.32l-1.15.55c-.7.37-1.25.63-1.65.8a3.73,3.73,0,0,1-1.38.25A2.85,2.85,0,0,1,69.44,33a4.5,4.5,0,0,1-.93-2.88,4.42,4.42,0,0,1,.38-1.93,4.47,4.47,0,0,1,1.32-1.48A18.18,18.18,0,0,1,75.79,24a22.09,22.09,0,0,1,6.52-1,18.21,18.21,0,0,1,7.18,1.32,10.66,10.66,0,0,1,4.78,3.74A9.58,9.58,0,0,1,96,33.67,9.1,9.1,0,0,1,94.38,39,8.81,8.81,0,0,1,90,42.3,9.36,9.36,0,0,1,95.1,45.71Z"/><path d="M92.19,68.19H7.81a7.81,7.81,0,0,0,0,15.62H92.19a7.81,7.81,0,0,0,0-15.62Z"/></svg>