<svg id="Layer_1" data-name="Layer 1" xmlns="http://www.w3.org/2000/svg" viewBox="0 0 100 100"><title>l3_5_1</title><path d="M15,59q-3.79-5.11-3.79-14.79T15,29.48q3.8-5.11,11-5.12t11,5.12q3.82,5.11,3.83,14.74T37,59q-3.8,5.12-11,5.12T15,59Zm14.8-5.39Q31,50.76,31,44.22t-1.15-9.35a4,4,0,0,0-7.59,0c-.77,1.89-1.16,5-1.16,9.38s.39,7.49,1.16,9.4,2,2.86,3.79,2.86A3.94,3.94,0,0,0,29.82,53.62Z"/><path d="M46.18,62.42a5.52,5.52,0,0,1,0-7.59,5.45,5.45,0,0,1,7.59,0,5.52,5.52,0,0,1,0,7.59,5.45,5.45,0,0,1-7.59,0Z"/><path d="M83.22,39.73a11.31,11.31,0,0,1,4.15,4.51,13.84,13.84,0,0,1,1.52,6.52,13.66,13.66,0,0,1-1.74,6.9,12.23,12.23,0,0,1-4.81,4.76,14.13,14.13,0,0,1-7,1.71q-7.76,0-12-5.06T59.13,44.66a26.66,26.66,0,0,1,2-10.76,16.06,16.06,0,0,1,5.66-7.06,14.91,14.91,0,0,1,8.56-2.48,21.29,21.29,0,0,1,6.29,1,17.57,17.57,0,0,1,5.53,2.75,4.86,4.86,0,0,1,1.35,1.49,4.07,4.07,0,0,1,.41,1.92,4.44,4.44,0,0,1-1,2.89,2.91,2.91,0,0,1-2.34,1.18,3.49,3.49,0,0,1-1.37-.25,16.46,16.46,0,0,1-1.65-.8l-1.21-.6a31.22,31.22,0,0,0-3-1.32,7.44,7.44,0,0,0-2.53-.44,5.27,5.27,0,0,0-4.54,2.56,14.64,14.64,0,0,0-2.06,7.18,8.67,8.67,0,0,1,3.38-2.78,10.56,10.56,0,0,1,4.65-1A11.13,11.13,0,0,1,83.22,39.73ZM78.16,54.94a5.53,5.53,0,0,0,1.27-3.79,5.62,5.62,0,0,0-1.24-3.83,4.37,4.37,0,0,0-3.44-1.4,4.42,4.42,0,0,0-3.44,1.43A5.45,5.45,0,0,0,70,51.15a5.37,5.37,0,0,0,1.32,3.76,4.4,4.4,0,0,0,3.41,1.46A4.33,4.33,0,0,0,78.16,54.94Z"/><path d="M92.19,69.55H7.81a7.82,7.82,0,0,0,0,15.63H92.19a7.82,7.82,0,0,0,0-15.63Z"/></svg>