<svg id="Layer_1" data-name="Layer 1" xmlns="http://www.w3.org/2000/svg" viewBox="0 0 100 100"><title>l3_5_1</title><path d="M32.26,55.5a3.7,3.7,0,0,1,1.16,3c0,2.72-1.6,4.07-4.79,4.07H9.55c-3.19,0-4.79-1.35-4.79-4.07a3.7,3.7,0,0,1,1.16-3,5.5,5.5,0,0,1,3.63-1H14V34.66L9.6,37.24a3.69,3.69,0,0,1-1.92.55A3.31,3.31,0,0,1,5,36.45a4.6,4.6,0,0,1-1.1-3A3.74,3.74,0,0,1,5.86,30l8.8-5.12a9.4,9.4,0,0,1,4.57-1.37,4.87,4.87,0,0,1,3.55,1.32,4.8,4.8,0,0,1,1.34,3.57V54.51h4.51A5.5,5.5,0,0,1,32.26,55.5Z"/><path d="M62.46,44.39a3.17,3.17,0,0,1,.93,2.31A3.24,3.24,0,0,1,62.46,49a3.12,3.12,0,0,1-2.31,1H53.22v6.88a3.16,3.16,0,0,1-.91,2.31,3.11,3.11,0,0,1-2.34.93,3.17,3.17,0,0,1-2.31-.93,3.14,3.14,0,0,1-.93-2.31V50H39.8a3.09,3.09,0,0,1-2.31-1,3.21,3.21,0,0,1-.94-2.34,3.19,3.19,0,0,1,3.25-3.24h6.93V36.53a3.14,3.14,0,0,1,.93-2.31A3.18,3.18,0,0,1,50,33.28a3.14,3.14,0,0,1,2.31.94,3.11,3.11,0,0,1,.94,2.31v6.93h6.93A3.17,3.17,0,0,1,62.46,44.39Z"/><path d="M96.8,55.48a3.63,3.63,0,0,1,1.19,3,3.78,3.78,0,0,1-1.19,3.08,5.49,5.49,0,0,1-3.6,1H73.13A4.18,4.18,0,0,1,70,61.36a4.12,4.12,0,0,1-1.15-3,6,6,0,0,1,1.87-4.29L82.37,41.92q3.63-3.8,3.63-7a3.69,3.69,0,0,0-1.08-2.86,4.32,4.32,0,0,0-3-1,9,9,0,0,0-2.94.47,26.21,26.21,0,0,0-3.11,1.35l-1.1.55-.85.47a7.19,7.19,0,0,1-1.13.52,3.28,3.28,0,0,1-1,.16,2.8,2.8,0,0,1-2.31-1.23,5.29,5.29,0,0,1-.58-4.93A3.68,3.68,0,0,1,70.16,27a22.37,22.37,0,0,1,12.15-3.74,17.64,17.64,0,0,1,7.15,1.35,10.71,10.71,0,0,1,4.76,3.85,10.09,10.09,0,0,1,1.68,5.75,13.81,13.81,0,0,1-1.35,6.13A25.83,25.83,0,0,1,90,46.54l-7.81,8h11A5.61,5.61,0,0,1,96.8,55.48Z"/><path d="M92.19,68.47H7.81a7.81,7.81,0,0,0,0,15.62H92.19a7.81,7.81,0,0,0,0-15.62Z"/></svg>