<svg id="Layer_1" data-name="Layer 1" xmlns="http://www.w3.org/2000/svg" viewBox="0 0 100 100"><title>l3_6_1</title><path d="M92.19,84.38H7.81a7.81,7.81,0,0,0,0,15.62H92.19a7.81,7.81,0,0,0,0-15.62Z"/><path d="M83.23,28.76a2.94,2.94,0,0,1,.92,2.37q0,3.25-3.81,3.25H65.11q-3.82,0-3.82-3.25a2.94,2.94,0,0,1,.92-2.37,4.43,4.43,0,0,1,2.9-.79h3.55V12.13l-3.51,2.06a3,3,0,0,1-1.54.44,2.62,2.62,0,0,1-2.1-1.08,3.64,3.64,0,0,1-.88-2.39,3,3,0,0,1,1.54-2.72l7-4.08a7.44,7.44,0,0,1,3.64-1.1,3.88,3.88,0,0,1,2.83,1,3.83,3.83,0,0,1,1.08,2.86V28h3.6A4.41,4.41,0,0,1,83.23,28.76Z"/><path d="M9.2,44.05q0-5.52,6.64-5.52h15a7.41,7.41,0,0,1,5,1.44,5.17,5.17,0,0,1,1.64,4.08,5.29,5.29,0,0,1-1.64,4.13,7.3,7.3,0,0,1-5,1.48h-15Q9.2,49.66,9.2,44.05Z"/><path d="M81.9,68.44a7.65,7.65,0,0,1,1.43,4.72,7.57,7.57,0,0,1-3.27,6.51C77.88,81.24,74.91,82,71.13,82s-6.75-.78-8.93-2.35a7.57,7.57,0,0,1-3.27-6.51,7.75,7.75,0,0,1,1.45-4.81,7.34,7.34,0,0,1,4.13-2.61A7.08,7.08,0,0,1,61,63a7.45,7.45,0,0,1-1.23-4.28,7.24,7.24,0,0,1,3.07-6.16q3.07-2.26,8.29-2.26t8.32,2.26a7.27,7.27,0,0,1,3,6.16,7.66,7.66,0,0,1-1.25,4.39,6.67,6.67,0,0,1-3.45,2.59A7.63,7.63,0,0,1,81.9,68.44Zm-6,4.06c0-2.28-1.59-3.43-4.78-3.43s-4.78,1.15-4.78,3.43,1.59,3.42,4.78,3.42S75.91,74.78,75.91,72.5ZM68.19,57.21a3,3,0,0,0-1,2.47,3.07,3.07,0,0,0,1,2.51,5.87,5.87,0,0,0,5.88,0,3.07,3.07,0,0,0,1-2.51,3,3,0,0,0-1-2.47,4.61,4.61,0,0,0-2.94-.77A4.65,4.65,0,0,0,68.19,57.21Z"/><rect x="47.08" y="38.59" width="49.69" height="6.57" rx="3.28"/></svg>