<svg id="Layer_1" data-name="Layer 1" xmlns="http://www.w3.org/2000/svg" viewBox="0 0 100 100"><title>l3_6_1</title><path d="M15,57.92q-3.79-5.12-3.79-14.79T15,28.39q3.8-5.12,11-5.12t11,5.12q3.82,5.12,3.83,14.74T37,57.92Q33.23,63,26,63T15,57.92Zm14.8-5.39c.77-1.9,1.15-5,1.15-9.4s-.38-7.44-1.15-9.35a4,4,0,0,0-7.59,0q-1.15,2.84-1.16,9.38c0,4.36.39,7.5,1.16,9.4s2,2.86,3.79,2.86A3.94,3.94,0,0,0,29.82,52.53Z"/><path d="M46.18,61.33A5.34,5.34,0,0,1,50,52.2a5.11,5.11,0,0,1,3.77,1.54,5.52,5.52,0,0,1,0,7.59,5.45,5.45,0,0,1-7.59,0Z"/><path d="M89.27,55.5a3.69,3.69,0,0,1,1.15,3c0,2.72-1.59,4.07-4.78,4.07H66.56c-3.19,0-4.79-1.35-4.79-4.07a3.73,3.73,0,0,1,1.15-3,5.55,5.55,0,0,1,3.64-1H71V34.66l-4.4,2.58a3.69,3.69,0,0,1-1.92.55A3.35,3.35,0,0,1,62,36.45a4.64,4.64,0,0,1-1.09-3A3.74,3.74,0,0,1,62.87,30l8.8-5.12a9.37,9.37,0,0,1,4.57-1.37,4.85,4.85,0,0,1,3.54,1.32,4.76,4.76,0,0,1,1.35,3.57V54.51h4.51A5.5,5.5,0,0,1,89.27,55.5Z"/><path d="M92.19,68.47H7.81a7.81,7.81,0,0,0,0,15.62H92.19a7.81,7.81,0,0,0,0-15.62Z"/></svg>