<svg id="Layer_1" data-name="Layer 1" xmlns="http://www.w3.org/2000/svg" viewBox="0 0 100 100"><title>l3_6_1</title><path d="M92.05,84.38H7.67a7.81,7.81,0,0,0,0,15.62H92.05a7.81,7.81,0,1,0,0-15.62Z"/><path d="M83.1,28.76A3,3,0,0,1,84,31.13c0,2.17-1.28,3.25-3.82,3.25H65q-3.82,0-3.82-3.25a3,3,0,0,1,.92-2.37A4.45,4.45,0,0,1,65,28h3.55V12.13L65,14.19a3,3,0,0,1-1.53.44,2.63,2.63,0,0,1-2.11-1.08,3.64,3.64,0,0,1-.88-2.39A3,3,0,0,1,62,8.44l7-4.08a7.44,7.44,0,0,1,3.64-1.1,3.87,3.87,0,0,1,2.83,1A3.83,3.83,0,0,1,76.6,7.17V28h3.6A4.45,4.45,0,0,1,83.1,28.76Z"/><path d="M9.06,44.05q0-5.52,6.64-5.52h15a7.41,7.41,0,0,1,5,1.44,5.17,5.17,0,0,1,1.64,4.08,5.29,5.29,0,0,1-1.64,4.13,7.3,7.3,0,0,1-5,1.48h-15Q9.06,49.66,9.06,44.05Z"/><path d="M82,76A2.9,2.9,0,0,1,83,78.42,3,3,0,0,1,82,80.88a4.46,4.46,0,0,1-2.88.79h-16a3.32,3.32,0,0,1-2.5-1,3.24,3.24,0,0,1-.93-2.39,4.79,4.79,0,0,1,1.5-3.42l9.3-9.7q2.9-3,2.9-5.57a3,3,0,0,0-.86-2.28,3.45,3.45,0,0,0-2.44-.79,7,7,0,0,0-2.34.37A20.59,20.59,0,0,0,65.27,58l-.88.44c-.12,0-.34.18-.68.37a5.76,5.76,0,0,1-.9.42,2.83,2.83,0,0,1-.83.13,2.24,2.24,0,0,1-1.85-1A3.83,3.83,0,0,1,59.39,56a3.79,3.79,0,0,1,.28-1.58,2.88,2.88,0,0,1,1.08-1.14,17.91,17.91,0,0,1,9.69-3,14.26,14.26,0,0,1,5.71,1.07,8.5,8.5,0,0,1,3.79,3.08,8,8,0,0,1,1.34,4.58A11.13,11.13,0,0,1,80.21,64a20.45,20.45,0,0,1-3.67,4.94l-6.23,6.36h8.82A4.52,4.52,0,0,1,82,76Z"/><rect x="46.95" y="38.59" width="49.69" height="6.57" rx="3.28"/></svg>