<svg id="Layer_1" data-name="Layer 1" xmlns="http://www.w3.org/2000/svg" viewBox="0 0 100 100"><title>l3_6_1</title><path d="M92.19,84.38H7.81a7.81,7.81,0,0,0,0,15.62H92.19a7.81,7.81,0,0,0,0-15.62Z"/><path d="M83.23,28.76a3,3,0,0,1,.93,2.37c0,2.17-1.28,3.25-3.82,3.25H65.11q-3.82,0-3.82-3.25a2.94,2.94,0,0,1,.92-2.37,4.43,4.43,0,0,1,2.9-.79h3.55V12.13l-3.51,2.06a3,3,0,0,1-1.54.44,2.62,2.62,0,0,1-2.1-1.08,3.64,3.64,0,0,1-.88-2.39,3,3,0,0,1,1.54-2.72l7-4.08a7.44,7.44,0,0,1,3.64-1.1,3.88,3.88,0,0,1,2.83,1,3.83,3.83,0,0,1,1.08,2.86V28h3.6A4.41,4.41,0,0,1,83.23,28.76Z"/><path d="M9.2,44.05q0-5.52,6.64-5.52h15a7.41,7.41,0,0,1,5,1.44,5.17,5.17,0,0,1,1.64,4.08,5.29,5.29,0,0,1-1.64,4.13,7.3,7.3,0,0,1-5,1.48h-15Q9.2,49.66,9.2,44.05Z"/><path d="M80.76,68.46a7.79,7.79,0,0,1,1.47,4.78,7.59,7.59,0,0,1-1.45,4.65,9.11,9.11,0,0,1-4.1,3A16.41,16.41,0,0,1,70.47,82,19.51,19.51,0,0,1,65,81.25,13.85,13.85,0,0,1,60.43,79a3.44,3.44,0,0,1-1.06-1.2A4,4,0,0,1,59.81,74a2.26,2.26,0,0,1,1.84-.94,2.92,2.92,0,0,1,1.1.19c.32.14.76.35,1.32.64l.41.2.55.24a18.18,18.18,0,0,0,2.53,1.07,7.85,7.85,0,0,0,2.52.38A6.13,6.13,0,0,0,73.61,75a3.05,3.05,0,0,0,1.08-2.63,2.76,2.76,0,0,0-1.1-2.46,6.57,6.57,0,0,0-3.6-.75H67.27a2.49,2.49,0,0,1-2.06-.92,3.34,3.34,0,0,1-.75-2.19,3.39,3.39,0,0,1,.75-2.2,2.51,2.51,0,0,1,2.06-.92H69.2a6.69,6.69,0,0,0,3.51-.7A2.46,2.46,0,0,0,73.81,60a3.26,3.26,0,0,0-1-2.52,3.75,3.75,0,0,0-2.67-.9,6.75,6.75,0,0,0-2.31.39c-.71.27-1.51.62-2.39,1.06l-.92.44c-.56.29-1,.5-1.32.63a2.86,2.86,0,0,1-1.09.2,2.28,2.28,0,0,1-1.85-.94A3.65,3.65,0,0,1,59.55,56a3.48,3.48,0,0,1,.3-1.53,3.6,3.6,0,0,1,1.06-1.19,14.56,14.56,0,0,1,4.45-2.19,17.5,17.5,0,0,1,5.2-.79,14.61,14.61,0,0,1,5.73,1,8.54,8.54,0,0,1,3.81,3,7.57,7.57,0,0,1,1.34,4.47,7.28,7.28,0,0,1-1.25,4.24,7.11,7.11,0,0,1-3.49,2.65A7.45,7.45,0,0,1,80.76,68.46Z"/><rect x="47.08" y="38.59" width="49.69" height="6.57" rx="3.28"/></svg>