<svg id="Layer_1" data-name="Layer 1" xmlns="http://www.w3.org/2000/svg" viewBox="0 0 100 100"><title>l3_6_1</title><path d="M33.31,47.07a9.77,9.77,0,0,1,1.84,6,9.58,9.58,0,0,1-1.81,5.83,11.59,11.59,0,0,1-5.15,3.82,20.57,20.57,0,0,1-7.78,1.35,24.47,24.47,0,0,1-6.87-1,17.62,17.62,0,0,1-5.72-2.78A4.24,4.24,0,0,1,6.5,58.82a4.29,4.29,0,0,1-.39-1.9A4.48,4.48,0,0,1,7.05,54a2.83,2.83,0,0,1,2.31-1.18,3.49,3.49,0,0,1,1.37.25,17.59,17.59,0,0,1,1.65.8l.52.24.69.31a25.26,25.26,0,0,0,3.16,1.34,10.06,10.06,0,0,0,3.17.47,7.59,7.59,0,0,0,4.42-1A3.82,3.82,0,0,0,25.69,52a3.46,3.46,0,0,0-1.37-3.08A8.32,8.32,0,0,0,19.81,48H16.4a3.17,3.17,0,0,1-2.59-1.16,4.53,4.53,0,0,1,0-5.5,3.16,3.16,0,0,1,2.59-1.15h2.42a8.4,8.4,0,0,0,4.4-.89,3.08,3.08,0,0,0,1.37-2.8,4.09,4.09,0,0,0-1.21-3.16A4.73,4.73,0,0,0,20,32.17a8.32,8.32,0,0,0-2.89.5,29.55,29.55,0,0,0-3,1.32L13,34.53c-.7.37-1.25.64-1.65.8a3.57,3.57,0,0,1-1.38.25A2.84,2.84,0,0,1,7.65,34.4a4.53,4.53,0,0,1-.93-2.89,4.21,4.21,0,0,1,.38-1.92A4.49,4.49,0,0,1,8.42,28.1,18.41,18.41,0,0,1,14,25.35a22.09,22.09,0,0,1,6.52-1,18.25,18.25,0,0,1,7.18,1.32,10.73,10.73,0,0,1,4.78,3.74A9.58,9.58,0,0,1,34.16,35a9.11,9.11,0,0,1-1.57,5.31,8.92,8.92,0,0,1-4.37,3.33A9.4,9.4,0,0,1,33.31,47.07Z"/><path d="M40.27,48.84c0-2.54,1.52-3.8,4.56-3.8H55.17a5.1,5.1,0,0,1,3.44,1,3.55,3.55,0,0,1,1.13,2.81,3.62,3.62,0,0,1-1.13,2.83,5,5,0,0,1-3.44,1H44.83C41.79,52.69,40.27,51.4,40.27,48.84Z"/><path d="M95.38,53.18c0,2.6-1.6,3.91-4.79,3.91H89.38V59A4.86,4.86,0,0,1,88,62.7,5.1,5.1,0,0,1,84.43,64a5,5,0,0,1-3.55-1.26A4.89,4.89,0,0,1,79.54,59V57.09H67.27a4.14,4.14,0,0,1-3.13-1.21,4.23,4.23,0,0,1-1.16-3,6.15,6.15,0,0,1,1.21-3.63L79.92,26.78a5.1,5.1,0,0,1,2-1.68,5.6,5.6,0,0,1,2.45-.57,5.25,5.25,0,0,1,3.58,1.31,4.69,4.69,0,0,1,1.48,3.69V49.39h1.21Q95.38,49.39,95.38,53.18ZM79.54,49.39V39.87l-6.6,9.52Z"/><path d="M92.19,69.55H7.81a7.82,7.82,0,0,0,0,15.63H92.19a7.82,7.82,0,0,0,0-15.63Z"/></svg>