<svg id="Layer_1" data-name="Layer 1" xmlns="http://www.w3.org/2000/svg" viewBox="0 0 100 100"><title>l3_6_1</title><path d="M37.85,53.18c0,2.6-1.6,3.91-4.79,3.91H31.85V59a4.86,4.86,0,0,1-1.37,3.74A5.1,5.1,0,0,1,26.9,64a5,5,0,0,1-3.55-1.26A4.93,4.93,0,0,1,22,59V57.09H9.74a4.14,4.14,0,0,1-3.13-1.21,4.23,4.23,0,0,1-1.16-3,6.15,6.15,0,0,1,1.21-3.63L22.39,26.78a5.1,5.1,0,0,1,1.95-1.68,5.6,5.6,0,0,1,2.45-.57,5.25,5.25,0,0,1,3.58,1.31,4.69,4.69,0,0,1,1.48,3.69V49.39h1.21Q37.85,49.39,37.85,53.18ZM22,49.39V39.87l-6.6,9.52Z"/><path d="M40.27,48.84c0-2.54,1.52-3.8,4.56-3.8H55.17a5.1,5.1,0,0,1,3.44,1,3.55,3.55,0,0,1,1.13,2.81,3.62,3.62,0,0,1-1.13,2.83,5,5,0,0,1-3.44,1H44.83C41.79,52.69,40.27,51.4,40.27,48.84Z"/><path d="M87.81,39.84a11.22,11.22,0,0,1,4.35,4.4,13.3,13.3,0,0,1,1.57,6.52,13.09,13.09,0,0,1-1.87,7,12.45,12.45,0,0,1-5.28,4.67,17.89,17.89,0,0,1-7.87,1.65,23,23,0,0,1-6.68-1,18.3,18.3,0,0,1-5.64-2.75,4.8,4.8,0,0,1-1.29-1.51,4,4,0,0,1-.41-1.9A4.53,4.53,0,0,1,65.62,54a2.83,2.83,0,0,1,2.31-1.18,3.7,3.7,0,0,1,1.38.22A17.87,17.87,0,0,1,71,53.9l1.1.55a28.09,28.09,0,0,0,3.1,1.31,9.18,9.18,0,0,0,3.06.5A7,7,0,0,0,82.78,55a4.74,4.74,0,0,0,1.49-3.87,4.91,4.91,0,0,0-1.54-3.85,6.21,6.21,0,0,0-4.29-1.38,14.57,14.57,0,0,0-3,.28,18.77,18.77,0,0,0-3.16,1,5.31,5.31,0,0,1-2.48.6,3.75,3.75,0,0,1-2.58-.91,3,3,0,0,1-1-2.39V29.59a4.74,4.74,0,0,1,1.21-3.52,4.68,4.68,0,0,1,3.47-1.21H87.9q4.78,0,4.78,3.79T87.9,32.5H76v6.76a13.91,13.91,0,0,1,5.44-1A12.74,12.74,0,0,1,87.81,39.84Z"/><path d="M92.19,69.55H7.81a7.82,7.82,0,0,0,0,15.63H92.19a7.82,7.82,0,0,0,0-15.63Z"/></svg>