<svg id="Layer_1" data-name="Layer 1" xmlns="http://www.w3.org/2000/svg" viewBox="0 0 100 100"><title>l3_6_1</title><path d="M34.74,47.05A9.59,9.59,0,0,1,36.53,53a9.51,9.51,0,0,1-4.1,8.17q-4.09,2.94-11.19,2.94T10,61.13A9.5,9.5,0,0,1,6,53a9.66,9.66,0,0,1,1.81-6,9.12,9.12,0,0,1,5.17-3.27,9.16,9.16,0,0,1-4.4-3.39A9.4,9.4,0,0,1,7,34.92a9.11,9.11,0,0,1,3.85-7.73q3.86-2.84,10.4-2.83t10.42,2.83a9.11,9.11,0,0,1,3.82,7.73,9.58,9.58,0,0,1-1.56,5.5,8.37,8.37,0,0,1-4.32,3.25A9.48,9.48,0,0,1,34.74,47.05Zm-7.51,5.09c0-2.86-2-4.3-6-4.3s-6,1.44-6,4.3,2,4.29,6,4.29S27.23,55,27.23,52.14ZM17.55,33a3.75,3.75,0,0,0-1.21,3.1,3.84,3.84,0,0,0,1.21,3.14,5.77,5.77,0,0,0,3.69,1,5.73,5.73,0,0,0,3.68-1,3.81,3.81,0,0,0,1.21-3.14A3.72,3.72,0,0,0,24.92,33a5.86,5.86,0,0,0-3.68-1A5.9,5.9,0,0,0,17.55,33Z"/><path d="M40.27,48.84c0-2.54,1.52-3.8,4.56-3.8H55.17a5.1,5.1,0,0,1,3.44,1,3.55,3.55,0,0,1,1.13,2.81,3.62,3.62,0,0,1-1.13,2.83,5,5,0,0,1-3.44,1H44.83C41.79,52.69,40.27,51.4,40.27,48.84Z"/><path d="M89.38,29.42q4.23,5.05,4.24,14.41a26.61,26.61,0,0,1-2,10.75A16.09,16.09,0,0,1,86,61.65a14.91,14.91,0,0,1-8.56,2.48,21.41,21.41,0,0,1-6.3-1,17.62,17.62,0,0,1-5.52-2.75,4.72,4.72,0,0,1-1.35-1.49A4.07,4.07,0,0,1,63.81,57a4.44,4.44,0,0,1,1-2.89,2.91,2.91,0,0,1,2.34-1.18,3.68,3.68,0,0,1,1.37.24c.4.17,1,.43,1.65.8l1.21.6c1.21.59,2.22,1,3,1.33a7.4,7.4,0,0,0,2.53.44,5.26,5.26,0,0,0,4.53-2.56,14.59,14.59,0,0,0,2.07-7.18,8.79,8.79,0,0,1-3.39,2.78,10.55,10.55,0,0,1-4.64,1,11.14,11.14,0,0,1-5.94-1.63,11.34,11.34,0,0,1-4.16-4.51,13.77,13.77,0,0,1-1.51-6.51,13.82,13.82,0,0,1,1.73-6.91,12.23,12.23,0,0,1,4.82-4.75,14.13,14.13,0,0,1,7-1.71Q85.15,24.36,89.38,29.42ZM81.43,41.14a5.43,5.43,0,0,0,1.3-3.8,5.4,5.4,0,0,0-1.32-3.77A4.39,4.39,0,0,0,78,32.12a4.3,4.3,0,0,0-3.41,1.43,5.46,5.46,0,0,0-1.27,3.79,5.54,5.54,0,0,0,1.24,3.82A4.33,4.33,0,0,0,78,42.57,4.4,4.4,0,0,0,81.43,41.14Z"/><path d="M92.19,69.55H7.81a7.82,7.82,0,0,0,0,15.63H92.19a7.82,7.82,0,0,0,0-15.63Z"/></svg>