<svg id="Layer_1" data-name="Layer 1" xmlns="http://www.w3.org/2000/svg" viewBox="0 0 100 100"><title>l3_6_1</title><path d="M41.31,56.59a3.7,3.7,0,0,1,1.16,3q0,4.06-4.79,4.07H18.6q-4.79,0-4.79-4.07a3.7,3.7,0,0,1,1.16-3,5.5,5.5,0,0,1,3.63-1h4.45V35.74l-4.4,2.59a3.69,3.69,0,0,1-1.92.55,3.3,3.3,0,0,1-2.64-1.35,4.59,4.59,0,0,1-1.1-3,3.76,3.76,0,0,1,1.92-3.42L23.71,26a9.31,9.31,0,0,1,4.57-1.38A4.87,4.87,0,0,1,31.82,26a4.79,4.79,0,0,1,1.35,3.58V55.6h4.51A5.5,5.5,0,0,1,41.31,56.59Z"/><path d="M46.18,62.42a5.52,5.52,0,0,1,0-7.59,5.45,5.45,0,0,1,7.59,0,5.52,5.52,0,0,1,0,7.59,5.45,5.45,0,0,1-7.59,0Z"/><path d="M63,59q-3.79-5.11-3.79-14.8T63,29.48q3.8-5.11,11-5.12t11,5.12q3.83,5.1,3.83,14.73T85,59q-3.8,5.12-11,5.11T63,59Zm14.8-5.39c.77-1.91,1.15-5,1.15-9.41s-.38-7.44-1.15-9.34S75.74,32,74,32a3.94,3.94,0,0,0-3.79,2.84Q69,37.67,69,44.21c0,4.37.39,7.5,1.16,9.41s2,2.86,3.79,2.86A3.94,3.94,0,0,0,77.78,53.62Z"/><path d="M92.19,69.55H7.81a7.82,7.82,0,0,0,0,15.63H92.19a7.82,7.82,0,0,0,0-15.63Z"/></svg>