<svg id="Layer_1" data-name="Layer 1" xmlns="http://www.w3.org/2000/svg" viewBox="0 0 100 100"><title>l3_6_1</title><path d="M23.77,48.84c0-2.54,1.52-3.8,4.56-3.8H38.67a5.1,5.1,0,0,1,3.44,1,3.55,3.55,0,0,1,1.13,2.81,3.62,3.62,0,0,1-1.13,2.83,5,5,0,0,1-3.44,1H28.33C25.29,52.69,23.77,51.4,23.77,48.84Z"/><path d="M71.51,39.73a11.38,11.38,0,0,1,4.15,4.51,14.72,14.72,0,0,1-.22,13.42,12.3,12.3,0,0,1-4.81,4.76,14.19,14.19,0,0,1-7,1.71q-7.76,0-12-5.06T47.42,44.65a26.64,26.64,0,0,1,2-10.75,16,16,0,0,1,5.67-7.06,14.9,14.9,0,0,1,8.55-2.48,21.41,21.41,0,0,1,6.3,1,17.68,17.68,0,0,1,5.53,2.75,4.69,4.69,0,0,1,1.34,1.49,4,4,0,0,1,.42,1.92,4.44,4.44,0,0,1-1,2.89,2.9,2.9,0,0,1-2.33,1.18,3.5,3.5,0,0,1-1.38-.25c-.4-.16-1-.43-1.65-.8l-1.21-.6a32.32,32.32,0,0,0-3-1.32,7.44,7.44,0,0,0-2.53-.44,5.25,5.25,0,0,0-4.54,2.56,14.52,14.52,0,0,0-2.06,7.17,8.73,8.73,0,0,1,3.38-2.77,10.56,10.56,0,0,1,4.65-1A11.13,11.13,0,0,1,71.51,39.73ZM66.45,54.94a5.52,5.52,0,0,0,1.26-3.79,5.57,5.57,0,0,0-1.24-3.83A4.35,4.35,0,0,0,63,45.92a4.42,4.42,0,0,0-3.44,1.43,5.45,5.45,0,0,0-1.29,3.8,5.37,5.37,0,0,0,1.32,3.76,4.75,4.75,0,0,0,6.82,0Z"/><path d="M92.19,69.55H7.81a7.82,7.82,0,0,0,0,15.63H92.19a7.82,7.82,0,0,0,0-15.63Z"/></svg>