<svg id="Layer_1" data-name="Layer 1" xmlns="http://www.w3.org/2000/svg" viewBox="0 0 100 100"><title>l3_6_1</title><path d="M23.77,47.47q0-3.8,4.56-3.79H38.67a5.1,5.1,0,0,1,3.44,1,3.53,3.53,0,0,1,1.13,2.8,3.61,3.61,0,0,1-1.13,2.83,5,5,0,0,1-3.44,1H28.33Q23.77,51.32,23.77,47.47Z"/><path d="M71.31,38.48a11.16,11.16,0,0,1,4.35,4.4,13.3,13.3,0,0,1,1.57,6.52,13,13,0,0,1-1.87,7,12.41,12.41,0,0,1-5.28,4.68,17.89,17.89,0,0,1-7.87,1.65,23,23,0,0,1-6.68-1A18.3,18.3,0,0,1,49.89,59a4.72,4.72,0,0,1-1.29-1.52,4,4,0,0,1-.41-1.89,4.53,4.53,0,0,1,.93-2.89,2.83,2.83,0,0,1,2.31-1.18,3.7,3.7,0,0,1,1.38.22,17.16,17.16,0,0,1,1.65.82l1.1.55a30.42,30.42,0,0,0,3.1,1.32,9.18,9.18,0,0,0,3.06.5,7.05,7.05,0,0,0,4.56-1.24,4.78,4.78,0,0,0,1.49-3.88,4.92,4.92,0,0,0-1.54-3.85,6.26,6.26,0,0,0-4.29-1.37,15.34,15.34,0,0,0-3,.27,20.82,20.82,0,0,0-3.16,1,5.2,5.2,0,0,1-2.48.61,3.8,3.8,0,0,1-2.58-.91,3,3,0,0,1-1-2.39V28.22a4.76,4.76,0,0,1,1.21-3.52,4.72,4.72,0,0,1,3.47-1.21h17c3.2,0,4.79,1.27,4.79,3.8s-1.59,3.85-4.79,3.85H59.52V37.9a13.72,13.72,0,0,1,5.44-1A12.64,12.64,0,0,1,71.31,38.48Z"/><path d="M92.19,68.19H7.81a7.81,7.81,0,0,0,0,15.62H92.19a7.81,7.81,0,0,0,0-15.62Z"/></svg>