<svg id="Layer_1" data-name="Layer 1" xmlns="http://www.w3.org/2000/svg" viewBox="0 0 100 100"><title>l3_6_1</title><path d="M23.77,48.84c0-2.54,1.52-3.8,4.56-3.8H38.67a5.1,5.1,0,0,1,3.44,1,3.55,3.55,0,0,1,1.13,2.81,3.62,3.62,0,0,1-1.13,2.83,5,5,0,0,1-3.44,1H28.33C25.29,52.69,23.77,51.4,23.77,48.84Z"/><path d="M78.88,53.18c0,2.6-1.6,3.91-4.79,3.91H72.88V59a4.83,4.83,0,0,1-1.37,3.73A5.06,5.06,0,0,1,67.93,64a5,5,0,0,1-3.55-1.27A4.85,4.85,0,0,1,63,59V57.09H50.77a4.14,4.14,0,0,1-3.13-1.21,4.23,4.23,0,0,1-1.16-3,6.15,6.15,0,0,1,1.21-3.63L63.42,26.78a5.1,5.1,0,0,1,2-1.68,5.6,5.6,0,0,1,2.45-.57,5.21,5.21,0,0,1,3.58,1.31,4.69,4.69,0,0,1,1.48,3.69V49.38h1.21Q78.88,49.38,78.88,53.18ZM63,49.38V39.87l-6.6,9.51Z"/><path d="M92.19,69.55H7.81a7.82,7.82,0,0,0,0,15.63H92.19a7.82,7.82,0,0,0,0-15.63Z"/></svg>