<svg id="Layer_1" data-name="Layer 1" xmlns="http://www.w3.org/2000/svg" viewBox="0 0 100 100"><title>l3_6_1</title><path d="M15,59q-3.79-5.11-3.79-14.8T15,29.48q3.8-5.11,11-5.12t11,5.12q3.82,5.1,3.83,14.73T37,59q-3.8,5.12-11,5.11T15,59Zm14.8-5.39c.77-1.91,1.15-5,1.15-9.41s-.38-7.44-1.15-9.34S27.78,32,26,32a3.94,3.94,0,0,0-3.79,2.84q-1.15,2.83-1.16,9.37c0,4.37.39,7.5,1.16,9.41s2,2.86,3.79,2.86A3.94,3.94,0,0,0,29.82,53.62Z"/><path d="M46.18,62.42a5.52,5.52,0,0,1,0-7.59,5.45,5.45,0,0,1,7.59,0,5.52,5.52,0,0,1,0,7.59,5.45,5.45,0,0,1-7.59,0Z"/><path d="M88.14,26a4.28,4.28,0,0,1,1.08,3,7,7,0,0,1-1,3.62L71.51,61.54a5.17,5.17,0,0,1-1.9,2,4.73,4.73,0,0,1-2.34.63,5.06,5.06,0,0,1-3.41-1.29,4,4,0,0,1-1.48-3.16A5.14,5.14,0,0,1,63.15,57L77.28,32.88H63.53a5.55,5.55,0,0,1-3.66-1,3.77,3.77,0,0,1-1.12-3,3.86,3.86,0,0,1,1.15-3.05,5.39,5.39,0,0,1,3.63-1H85.09A3.89,3.89,0,0,1,88.14,26Z"/><path d="M92.19,69.55H7.81a7.82,7.82,0,0,0,0,15.63H92.19a7.82,7.82,0,0,0,0-15.63Z"/></svg>