<svg id="Layer_1" data-name="Layer 1" xmlns="http://www.w3.org/2000/svg" viewBox="0 0 100 100"><title>l3_6_1</title><path d="M35.4,26a4.25,4.25,0,0,1,1.07,3,7.12,7.12,0,0,1-1,3.64L18.76,61.54a5.07,5.07,0,0,1-1.89,2,4.8,4.8,0,0,1-2.34.64,5,5,0,0,1-3.41-1.3,4,4,0,0,1-1.49-3.16A5.23,5.23,0,0,1,10.4,57L24.54,32.89H10.79a5.54,5.54,0,0,1-3.66-1,3.75,3.75,0,0,1-1.13-3,3.87,3.87,0,0,1,1.16-3.06,5.39,5.39,0,0,1,3.63-1H32.35A3.9,3.9,0,0,1,35.4,26Z"/><path d="M40.27,48.84c0-2.54,1.52-3.8,4.56-3.8H55.17a5.1,5.1,0,0,1,3.44,1,3.55,3.55,0,0,1,1.13,2.81,3.62,3.62,0,0,1-1.13,2.83,5,5,0,0,1-3.44,1H44.83C41.79,52.69,40.27,51.4,40.27,48.84Z"/><path d="M92.27,47.05A9.59,9.59,0,0,1,94.06,53,9.51,9.51,0,0,1,90,61.13q-4.09,2.94-11.19,2.94t-11.2-2.94A9.5,9.5,0,0,1,63.48,53a9.66,9.66,0,0,1,1.81-6,9.08,9.08,0,0,1,5.17-3.27,9.11,9.11,0,0,1-4.4-3.39,9.4,9.4,0,0,1-1.54-5.36,9.08,9.08,0,0,1,3.85-7.73q3.85-2.84,10.4-2.83t10.42,2.83A9.11,9.11,0,0,1,93,34.92a9.52,9.52,0,0,1-1.57,5.5,8.3,8.3,0,0,1-4.31,3.25A9.48,9.48,0,0,1,92.27,47.05Zm-7.51,5.09c0-2.86-2-4.3-6-4.3s-6,1.44-6,4.3,2,4.29,6,4.29S84.76,55,84.76,52.14ZM75.08,33a3.72,3.72,0,0,0-1.21,3.1,3.81,3.81,0,0,0,1.21,3.14,5.77,5.77,0,0,0,3.69,1,5.73,5.73,0,0,0,3.68-1,3.81,3.81,0,0,0,1.21-3.14A3.72,3.72,0,0,0,82.45,33a5.86,5.86,0,0,0-3.68-1A5.9,5.9,0,0,0,75.08,33Z"/><path d="M92.19,69.55H7.81a7.82,7.82,0,0,0,0,15.63H92.19a7.82,7.82,0,0,0,0-15.63Z"/></svg>