<svg id="Layer_1" data-name="Layer 1" xmlns="http://www.w3.org/2000/svg" viewBox="0 0 100 100"><title>l3_6_1</title><path d="M35,55.2a3.63,3.63,0,0,1,1.18,3A3.79,3.79,0,0,1,35,61.28a5.52,5.52,0,0,1-3.6,1H11.36a4.17,4.17,0,0,1-3.13-1.19,4.09,4.09,0,0,1-1.16-3A6,6,0,0,1,8.94,53.8L20.6,41.64q3.63-3.8,3.63-7a3.71,3.71,0,0,0-1.07-2.86,4.34,4.34,0,0,0-3.05-1,9,9,0,0,0-2.95.46,27.91,27.91,0,0,0-3.1,1.35l-1.1.55c-.15.07-.43.23-.85.47a6.72,6.72,0,0,1-1.13.52,3.3,3.3,0,0,1-1.05.17,2.84,2.84,0,0,1-2.31-1.24,4.78,4.78,0,0,1-.93-2.94,4.84,4.84,0,0,1,.35-2,3.62,3.62,0,0,1,1.35-1.43A21.39,21.39,0,0,1,14.19,24a21.59,21.59,0,0,1,6.36-1,17.88,17.88,0,0,1,7.15,1.34,10.75,10.75,0,0,1,4.75,3.85,10.09,10.09,0,0,1,1.68,5.75,13.81,13.81,0,0,1-1.35,6.13,25.11,25.11,0,0,1-4.59,6.19l-7.81,8H31.44A5.65,5.65,0,0,1,35,55.2Z"/><path d="M40.29,47.47q0-3.8,4.57-3.79H55.2a5.07,5.07,0,0,1,3.43,1,3.5,3.5,0,0,1,1.13,2.8,3.58,3.58,0,0,1-1.13,2.83,5,5,0,0,1-3.43,1H44.86Q40.29,51.32,40.29,47.47Z"/><path d="M90.86,45.71a9.76,9.76,0,0,1,1.85,6,9.61,9.61,0,0,1-1.82,5.83,11.56,11.56,0,0,1-5.14,3.82A20.61,20.61,0,0,1,78,62.71a24.49,24.49,0,0,1-6.88-1A17.71,17.71,0,0,1,65.37,59a3.86,3.86,0,0,1-1.7-3.41,4.53,4.53,0,0,1,.93-2.89,2.85,2.85,0,0,1,2.31-1.18,3.73,3.73,0,0,1,1.38.24c.4.17.95.43,1.65.8l.52.25.69.3a23.47,23.47,0,0,0,3.16,1.35,10,10,0,0,0,3.16.47,7.63,7.63,0,0,0,4.43-1,3.82,3.82,0,0,0,1.35-3.3,3.44,3.44,0,0,0-1.38-3.08,8.19,8.19,0,0,0-4.51-.94H74a3.12,3.12,0,0,1-2.58-1.15,4.49,4.49,0,0,1,0-5.5A3.13,3.13,0,0,1,74,38.78h2.42a8.36,8.36,0,0,0,4.4-.88,3.08,3.08,0,0,0,1.38-2.8,4.16,4.16,0,0,0-1.21-3.17,4.75,4.75,0,0,0-3.36-1.12,8.35,8.35,0,0,0-2.89.49,30.47,30.47,0,0,0-3,1.32l-1.16.55c-.69.37-1.24.63-1.65.8a3.68,3.68,0,0,1-1.37.25A2.84,2.84,0,0,1,65.21,33a4.45,4.45,0,0,1-.94-2.88A3.78,3.78,0,0,1,66,26.74,18,18,0,0,1,71.56,24a22,22,0,0,1,6.52-1,18.2,18.2,0,0,1,7.17,1.32A10.69,10.69,0,0,1,90,28.06a9.58,9.58,0,0,1,1.68,5.61A9.17,9.17,0,0,1,90.15,39a8.86,8.86,0,0,1-4.37,3.33A9.3,9.3,0,0,1,90.86,45.71Z"/><path d="M92.19,68.19H7.81a7.81,7.81,0,0,0,0,15.62H92.19a7.81,7.81,0,0,0,0-15.62Z"/></svg>