<svg id="Layer_1" data-name="Layer 1" xmlns="http://www.w3.org/2000/svg" viewBox="0 0 100 100"><title>l3_6_1</title><path d="M30.28,38.48a11.16,11.16,0,0,1,4.35,4.4A13.3,13.3,0,0,1,36.2,49.4a13,13,0,0,1-1.87,7,12.41,12.41,0,0,1-5.28,4.68,17.89,17.89,0,0,1-7.87,1.65,23,23,0,0,1-6.68-1A18.3,18.3,0,0,1,8.86,59a4.72,4.72,0,0,1-1.29-1.52,4,4,0,0,1-.41-1.89,4.53,4.53,0,0,1,.93-2.89,2.83,2.83,0,0,1,2.31-1.18,3.7,3.7,0,0,1,1.38.22,17.16,17.16,0,0,1,1.65.82l1.1.55a30.42,30.42,0,0,0,3.1,1.32,9.18,9.18,0,0,0,3.06.5,7.05,7.05,0,0,0,4.56-1.24,4.78,4.78,0,0,0,1.49-3.88,4.92,4.92,0,0,0-1.54-3.85,6.21,6.21,0,0,0-4.29-1.37,15.34,15.34,0,0,0-3,.27,18.77,18.77,0,0,0-3.16,1,5.32,5.32,0,0,1-2.48.61,3.8,3.8,0,0,1-2.58-.91,3,3,0,0,1-1-2.39V28.22A4.76,4.76,0,0,1,9.85,24.7a4.68,4.68,0,0,1,3.47-1.21H30.37q4.79,0,4.78,3.8c0,2.56-1.59,3.85-4.78,3.85H18.49V37.9a13.72,13.72,0,0,1,5.44-1A12.64,12.64,0,0,1,30.28,38.48Z"/><path d="M40.27,47.47q0-3.8,4.56-3.79H55.17a5.1,5.1,0,0,1,3.44,1,3.52,3.52,0,0,1,1.12,2.8,3.6,3.6,0,0,1-1.12,2.83,5,5,0,0,1-3.44,1H44.83Q40.27,51.32,40.27,47.47Z"/><path d="M88,38.37a11.31,11.31,0,0,1,4.15,4.51,14.72,14.72,0,0,1-.22,13.42,12.36,12.36,0,0,1-4.81,4.76,14.29,14.29,0,0,1-7,1.7q-7.76,0-12-5.06T63.91,43.29a26.61,26.61,0,0,1,2-10.75,16,16,0,0,1,5.67-7.07A14.89,14.89,0,0,1,80.14,23a21.41,21.41,0,0,1,6.3,1A17.47,17.47,0,0,1,92,26.74a4.67,4.67,0,0,1,1.34,1.48,4,4,0,0,1,.42,1.93,4.42,4.42,0,0,1-1,2.88,2.91,2.91,0,0,1-2.33,1.19A3.69,3.69,0,0,1,89.05,34c-.4-.17-1-.43-1.65-.8l-1.21-.6a31.22,31.22,0,0,0-3-1.32,7.11,7.11,0,0,0-2.52-.44,5.27,5.27,0,0,0-4.54,2.55A14.6,14.6,0,0,0,74,40.54a8.76,8.76,0,0,1,3.38-2.78,10.69,10.69,0,0,1,4.64-1A11.16,11.16,0,0,1,88,38.37ZM83,53.58a5.55,5.55,0,0,0,1.26-3.8A5.54,5.54,0,0,0,83,46a4.31,4.31,0,0,0-3.43-1.4A4.37,4.37,0,0,0,76.1,46a5.43,5.43,0,0,0-1.29,3.79,5.35,5.35,0,0,0,1.32,3.77,4.75,4.75,0,0,0,6.82,0Z"/><path d="M92.19,68.19H7.81a7.81,7.81,0,0,0,0,15.62H92.19a7.81,7.81,0,0,0,0-15.62Z"/></svg>