<svg id="Layer_1" data-name="Layer 1" xmlns="http://www.w3.org/2000/svg" viewBox="0 0 100 100"><title>l3_6_1</title><path d="M92.19,84.38H7.81a7.81,7.81,0,0,0,0,15.62H92.19a7.81,7.81,0,0,0,0-15.62Z"/><path d="M83.23,28.76a2.94,2.94,0,0,1,.92,2.37q0,3.25-3.81,3.25H65.11q-3.82,0-3.82-3.25a2.94,2.94,0,0,1,.92-2.37,4.43,4.43,0,0,1,2.9-.79h3.55V12.13l-3.51,2.06a3,3,0,0,1-1.54.44,2.62,2.62,0,0,1-2.1-1.08,3.64,3.64,0,0,1-.88-2.39,3,3,0,0,1,1.54-2.72l7-4.08a7.44,7.44,0,0,1,3.64-1.1,3.88,3.88,0,0,1,2.83,1,3.83,3.83,0,0,1,1.08,2.86V28h3.6A4.41,4.41,0,0,1,83.23,28.76Z"/><path d="M9.2,44.05q0-5.52,6.64-5.52h15a7.41,7.41,0,0,1,5,1.44,5.15,5.15,0,0,1,1.64,4.08,5.27,5.27,0,0,1-1.64,4.12,7.25,7.25,0,0,1-5,1.48h-15Q9.2,49.65,9.2,44.05Z"/><path d="M78.35,62.69a8.88,8.88,0,0,1,3.47,3.51,10.61,10.61,0,0,1,1.25,5.2A10.32,10.32,0,0,1,81.57,77a9.82,9.82,0,0,1-4.21,3.73A14.17,14.17,0,0,1,71.09,82a18.16,18.16,0,0,1-5.33-.79,14.53,14.53,0,0,1-4.5-2.2,3.78,3.78,0,0,1-1-1.2,3.28,3.28,0,0,1-.33-1.52,3.59,3.59,0,0,1,.75-2.3,2.25,2.25,0,0,1,1.84-.94,3.08,3.08,0,0,1,1.09.17,13.14,13.14,0,0,1,1.32.66l.88.44a23.32,23.32,0,0,0,2.48,1,7.08,7.08,0,0,0,2.43.4,5.62,5.62,0,0,0,3.65-1,3.83,3.83,0,0,0,1.18-3.09,3.89,3.89,0,0,0-1.23-3.07,5,5,0,0,0-3.42-1.1,11.64,11.64,0,0,0-2.39.22,16.05,16.05,0,0,0-2.53.79A4.19,4.19,0,0,1,64,69a3,3,0,0,1-2.06-.72,2.41,2.41,0,0,1-.84-1.91V54.51a3.39,3.39,0,0,1,3.73-3.78H78.42q3.81,0,3.81,3t-3.81,3.07H68.94v5.4a10.88,10.88,0,0,1,4.34-.79A10.19,10.19,0,0,1,78.35,62.69Z"/><rect x="47.08" y="38.59" width="49.69" height="6.57" rx="3.28"/></svg>