<svg id="Layer_1" data-name="Layer 1" xmlns="http://www.w3.org/2000/svg" viewBox="0 0 100 100"><title>l3_6_1</title><path d="M15,59q-3.79-5.11-3.79-14.8T15,29.48q3.8-5.11,11-5.12t11,5.12q3.81,5.1,3.82,14.73T37,59q-3.8,5.12-11,5.11T15,59Zm14.8-5.39c.77-1.91,1.15-5,1.15-9.41s-.38-7.44-1.15-9.34S27.78,32,26,32a3.94,3.94,0,0,0-3.79,2.84q-1.15,2.83-1.16,9.37c0,4.37.39,7.5,1.16,9.41s2,2.86,3.79,2.86A3.94,3.94,0,0,0,29.82,53.62Z"/><path d="M46.18,62.42a5.52,5.52,0,0,1,0-7.59,5.45,5.45,0,0,1,7.59,0,5.52,5.52,0,0,1,0,7.59,5.45,5.45,0,0,1-7.59,0Z"/><path d="M84.6,29.42q4.23,5.05,4.23,14.41a26.61,26.61,0,0,1-2,10.75,16,16,0,0,1-5.66,7.07,14.89,14.89,0,0,1-8.55,2.47,21.31,21.31,0,0,1-6.3-1,17.16,17.16,0,0,1-5.53-2.75,4.83,4.83,0,0,1-1.35-1.48A4.1,4.1,0,0,1,59,57a4.44,4.44,0,0,1,1-2.89,2.91,2.91,0,0,1,2.34-1.18,3.77,3.77,0,0,1,1.38.24c.4.17,1,.43,1.65.8l1.21.6a31.21,31.21,0,0,0,3,1.32,7.21,7.21,0,0,0,2.53.45,5.29,5.29,0,0,0,4.54-2.56,14.7,14.7,0,0,0,2.06-7.18,8.76,8.76,0,0,1-3.38,2.78,10.56,10.56,0,0,1-4.65,1,11.13,11.13,0,0,1-5.94-1.62,11.31,11.31,0,0,1-4.15-4.51,13.77,13.77,0,0,1-1.51-6.51,13.72,13.72,0,0,1,1.73-6.91,12.21,12.21,0,0,1,4.81-4.75,14.14,14.14,0,0,1,7-1.71Q80.37,24.36,84.6,29.42ZM76.65,41.13a5.43,5.43,0,0,0,1.29-3.79,5.4,5.4,0,0,0-1.32-3.77,4.39,4.39,0,0,0-3.41-1.45,4.32,4.32,0,0,0-3.41,1.42,5.55,5.55,0,0,0-1.26,3.8,5.59,5.59,0,0,0,1.23,3.82,4.86,4.86,0,0,0,6.88,0Z"/><path d="M92.19,69.55H7.81a7.82,7.82,0,0,0,0,15.63H92.19a7.82,7.82,0,0,0,0-15.63Z"/></svg>