<svg id="Layer_1" data-name="Layer 1" xmlns="http://www.w3.org/2000/svg" viewBox="0 0 100 100"><title>l3_6_1</title><path d="M92.19,84.38H7.81a7.81,7.81,0,0,0,0,15.62H92.19a7.81,7.81,0,0,0,0-15.62Z"/><path d="M83.23,28.76a3,3,0,0,1,.93,2.37c0,2.17-1.28,3.25-3.82,3.25H65.11q-3.82,0-3.82-3.25a3,3,0,0,1,.92-2.37,4.43,4.43,0,0,1,2.9-.79h3.55V12.13l-3.51,2.06a3,3,0,0,1-1.54.44,2.63,2.63,0,0,1-2.1-1.08,3.64,3.64,0,0,1-.88-2.39,3,3,0,0,1,1.54-2.72l7-4.08a7.44,7.44,0,0,1,3.64-1.1,3.87,3.87,0,0,1,2.83,1,3.83,3.83,0,0,1,1.08,2.86V28h3.6A4.41,4.41,0,0,1,83.23,28.76Z"/><path d="M9.2,44.05q0-5.52,6.64-5.52h15a7.41,7.41,0,0,1,5,1.44,5.17,5.17,0,0,1,1.64,4.08,5.29,5.29,0,0,1-1.64,4.13,7.3,7.3,0,0,1-5,1.48h-15Q9.2,49.66,9.2,44.05Z"/><path d="M70.17,76.05a3,3,0,0,1,.92,2.37q0,3.26-3.82,3.25H52.05q-3.82,0-3.82-3.25a2.94,2.94,0,0,1,.92-2.37,4.37,4.37,0,0,1,2.9-.79H55.6V59.42l-3.51,2.06a2.94,2.94,0,0,1-1.54.44,2.63,2.63,0,0,1-2.1-1.07,3.68,3.68,0,0,1-.88-2.39,3,3,0,0,1,1.53-2.72l7-4.09a7.39,7.39,0,0,1,3.64-1.09,3.88,3.88,0,0,1,2.83,1,3.82,3.82,0,0,1,1.07,2.85v20.8h3.6A4.39,4.39,0,0,1,70.17,76.05Z"/><path d="M96.49,76.05a3,3,0,0,1,.93,2.37c0,2.17-1.28,3.25-3.82,3.25H78.37q-3.81,0-3.81-3.25a2.94,2.94,0,0,1,.92-2.37,4.36,4.36,0,0,1,2.89-.79h3.56V59.42l-3.51,2.06a2.94,2.94,0,0,1-1.54.44,2.67,2.67,0,0,1-2.11-1.07,3.73,3.73,0,0,1-.87-2.39,3,3,0,0,1,1.53-2.72l7-4.09a7.43,7.43,0,0,1,3.65-1.09,3.9,3.9,0,0,1,2.83,1A3.82,3.82,0,0,1,90,54.46v20.8h3.6A4.36,4.36,0,0,1,96.49,76.05Z"/><rect x="47.08" y="38.59" width="49.69" height="6.57" rx="3.28"/></svg>