<svg id="Layer_1" data-name="Layer 1" xmlns="http://www.w3.org/2000/svg" viewBox="0 0 100 100"><title>l3_6_1</title><path d="M15,59q-3.79-5.11-3.79-14.79T15,29.48q3.8-5.11,11-5.12t11,5.12q3.82,5.11,3.83,14.74T37,59q-3.8,5.12-11,5.12T15,59Zm14.8-5.39Q31,50.76,31,44.22t-1.15-9.35a4,4,0,0,0-7.59,0c-.77,1.89-1.16,5-1.16,9.38s.39,7.49,1.16,9.4,2,2.86,3.79,2.86A3.94,3.94,0,0,0,29.82,53.62Z"/><path d="M46.18,62.42a5.52,5.52,0,0,1,0-7.59,5.45,5.45,0,0,1,7.59,0,5.52,5.52,0,0,1,0,7.59,5.45,5.45,0,0,1-7.59,0Z"/><path d="M86.05,47.08a9.73,9.73,0,0,1,1.85,6,9.59,9.59,0,0,1-1.82,5.83,11.56,11.56,0,0,1-5.14,3.82,20.61,20.61,0,0,1-7.78,1.35,24.49,24.49,0,0,1-6.88-1,17.62,17.62,0,0,1-5.72-2.78,4.44,4.44,0,0,1-1.32-1.51,4.3,4.3,0,0,1-.38-1.9A4.53,4.53,0,0,1,59.79,54a2.83,2.83,0,0,1,2.31-1.18,3.57,3.57,0,0,1,1.38.25c.4.16,1,.43,1.65.8l.52.24.69.31a24.64,24.64,0,0,0,3.16,1.34,10,10,0,0,0,3.16.47,7.65,7.65,0,0,0,4.43-1A3.82,3.82,0,0,0,78.44,52a3.44,3.44,0,0,0-1.38-3.08A8.32,8.32,0,0,0,72.55,48H69.14a3.13,3.13,0,0,1-2.58-1.16,4.49,4.49,0,0,1,0-5.5,3.12,3.12,0,0,1,2.58-1.15h2.42a8.37,8.37,0,0,0,4.4-.89,3.07,3.07,0,0,0,1.38-2.8,4.12,4.12,0,0,0-1.21-3.16,4.76,4.76,0,0,0-3.36-1.13,8.32,8.32,0,0,0-2.89.5,29.46,29.46,0,0,0-3,1.32l-1.16.55c-.7.36-1.25.63-1.65.79a3.49,3.49,0,0,1-1.37.25A2.83,2.83,0,0,1,60.4,34.4a4.48,4.48,0,0,1-.94-2.89,4.21,4.21,0,0,1,.39-1.92,4.28,4.28,0,0,1,1.32-1.49,18.18,18.18,0,0,1,5.58-2.75,22,22,0,0,1,6.52-1,18.2,18.2,0,0,1,7.17,1.32,10.82,10.82,0,0,1,4.79,3.74A9.58,9.58,0,0,1,86.91,35a9.18,9.18,0,0,1-1.57,5.31A9,9,0,0,1,81,43.67,9.34,9.34,0,0,1,86.05,47.08Z"/><path d="M92.19,69.55H7.81a7.82,7.82,0,0,0,0,15.63H92.19a7.82,7.82,0,0,0,0-15.63Z"/></svg>