<svg id="Layer_1" data-name="Layer 1" xmlns="http://www.w3.org/2000/svg" viewBox="0 0 100 100"><title>l3_6_1</title><path d="M36.5,55.5a3.69,3.69,0,0,1,1.15,3c0,2.72-1.59,4.07-4.78,4.07H13.78C10.59,62.54,9,61.19,9,58.47a3.69,3.69,0,0,1,1.15-3,5.5,5.5,0,0,1,3.63-1h4.46V34.66l-4.4,2.58a3.75,3.75,0,0,1-1.93.55,3.34,3.34,0,0,1-2.64-1.34,4.65,4.65,0,0,1-1.1-3A3.73,3.73,0,0,1,10.1,30l8.8-5.12a9.33,9.33,0,0,1,4.56-1.37A4.86,4.86,0,0,1,27,24.87a4.76,4.76,0,0,1,1.35,3.57V54.51h4.51A5.5,5.5,0,0,1,36.5,55.5Z"/><path d="M40.24,47.75q0-3.8,4.56-3.8H55.14a5.1,5.1,0,0,1,3.44,1,3.55,3.55,0,0,1,1.13,2.81,3.62,3.62,0,0,1-1.13,2.83,5,5,0,0,1-3.44,1H44.8Q40.24,51.6,40.24,47.75Z"/><path d="M92.57,55.48a3.62,3.62,0,0,1,1.18,3,3.78,3.78,0,0,1-1.18,3.08,5.52,5.52,0,0,1-3.6,1H68.89a4,4,0,0,1-4.29-4.18,6.07,6.07,0,0,1,1.87-4.29L78.13,41.92q3.63-3.8,3.63-7a3.73,3.73,0,0,0-1.07-2.86,4.34,4.34,0,0,0-3-1,8.89,8.89,0,0,0-2.94.47,25.52,25.52,0,0,0-3.11,1.35l-1.1.55c-.15.07-.43.23-.86.47a6.32,6.32,0,0,1-1.12.52,3.3,3.3,0,0,1-1.05.16,2.81,2.81,0,0,1-2.31-1.23,4.78,4.78,0,0,1-.93-2.95,4.91,4.91,0,0,1,.35-2A3.68,3.68,0,0,1,65.92,27a22.37,22.37,0,0,1,12.16-3.74,17.71,17.71,0,0,1,7.15,1.35A10.69,10.69,0,0,1,90,28.47a10.09,10.09,0,0,1,1.68,5.75,13.81,13.81,0,0,1-1.35,6.13,25.56,25.56,0,0,1-4.59,6.19l-7.81,8H89A5.65,5.65,0,0,1,92.57,55.48Z"/><path d="M92.19,68.47H7.81a7.81,7.81,0,0,0,0,15.62H92.19a7.81,7.81,0,0,0,0-15.62Z"/></svg>