<svg id="Layer_1" data-name="Layer 1" xmlns="http://www.w3.org/2000/svg" viewBox="0 0 100 100"><title>l3_6_1</title><path d="M23.77,48.84c0-2.54,1.52-3.8,4.56-3.8H38.67a5.1,5.1,0,0,1,3.44,1,3.55,3.55,0,0,1,1.13,2.81,3.62,3.62,0,0,1-1.13,2.83,5,5,0,0,1-3.44,1H28.33C25.29,52.69,23.77,51.4,23.77,48.84Z"/><path d="M75.77,47.05A9.59,9.59,0,0,1,77.56,53a9.51,9.51,0,0,1-4.1,8.17q-4.09,2.94-11.19,2.94t-11.2-2.94A9.5,9.5,0,0,1,47,53a9.66,9.66,0,0,1,1.81-6A9.12,9.12,0,0,1,54,43.67a9.16,9.16,0,0,1-4.4-3.39A9.33,9.33,0,0,1,48,34.92a9.11,9.11,0,0,1,3.85-7.73q3.85-2.84,10.4-2.83t10.42,2.83a9.11,9.11,0,0,1,3.82,7.73A9.58,9.58,0,0,1,75,40.42a8.37,8.37,0,0,1-4.32,3.25A9.48,9.48,0,0,1,75.77,47.05Zm-7.51,5.08c0-2.85-2-4.29-6-4.29s-6,1.44-6,4.29,2,4.29,6,4.29S68.26,55,68.26,52.13ZM58.58,33a3.75,3.75,0,0,0-1.21,3.1,3.84,3.84,0,0,0,1.21,3.14,5.77,5.77,0,0,0,3.69,1,5.71,5.71,0,0,0,3.68-1,3.81,3.81,0,0,0,1.21-3.14A3.72,3.72,0,0,0,66,33a5.85,5.85,0,0,0-3.68-1A5.9,5.9,0,0,0,58.58,33Z"/><path d="M92.19,69.55H7.81a7.82,7.82,0,0,0,0,15.63H92.19a7.82,7.82,0,0,0,0-15.63Z"/></svg>