<svg id="Layer_1" data-name="Layer 1" xmlns="http://www.w3.org/2000/svg" viewBox="0 0 100 100"><title>l3_6_1</title><path d="M92.19,84.38H7.81a7.81,7.81,0,0,0,0,15.62H92.19a7.81,7.81,0,0,0,0-15.62Z"/><path d="M83.23,28.76a2.94,2.94,0,0,1,.92,2.37q0,3.25-3.81,3.25H65.11q-3.82,0-3.82-3.25a2.94,2.94,0,0,1,.92-2.37,4.43,4.43,0,0,1,2.9-.79h3.55V12.13l-3.51,2.06a3,3,0,0,1-1.54.44,2.62,2.62,0,0,1-2.1-1.08,3.64,3.64,0,0,1-.88-2.39,3,3,0,0,1,1.54-2.72l7-4.08a7.44,7.44,0,0,1,3.64-1.1,3.88,3.88,0,0,1,2.83,1,3.83,3.83,0,0,1,1.08,2.86V28h3.6A4.41,4.41,0,0,1,83.23,28.76Z"/><path d="M9.2,44.05q0-5.52,6.64-5.52h15a7.41,7.41,0,0,1,5,1.44,5.17,5.17,0,0,1,1.64,4.08,5.29,5.29,0,0,1-1.64,4.13,7.3,7.3,0,0,1-5,1.48h-15Q9.2,49.66,9.2,44.05Z"/><path d="M70.14,76.05a3,3,0,0,1,.93,2.37c0,2.17-1.28,3.25-3.82,3.25H52q-3.81,0-3.81-3.25a2.94,2.94,0,0,1,.92-2.37A4.36,4.36,0,0,1,52,75.26h3.56V59.42l-3.51,2.06a2.94,2.94,0,0,1-1.54.44,2.67,2.67,0,0,1-2.11-1.07,3.73,3.73,0,0,1-.87-2.39,3,3,0,0,1,1.53-2.72l7-4.09a7.43,7.43,0,0,1,3.65-1.09,3.9,3.9,0,0,1,2.83,1,3.82,3.82,0,0,1,1.07,2.85v20.8h3.6A4.36,4.36,0,0,1,70.14,76.05Z"/><path d="M95.31,76a2.9,2.9,0,0,1,.94,2.39,3,3,0,0,1-.94,2.46,4.45,4.45,0,0,1-2.87.79h-16a3.33,3.33,0,0,1-2.5-1A3.23,3.23,0,0,1,73,78.33a4.78,4.78,0,0,1,1.49-3.42l9.3-9.7q2.89-3,2.9-5.57a3,3,0,0,0-.86-2.28,3.44,3.44,0,0,0-2.43-.79,7.11,7.11,0,0,0-2.35.37A21.3,21.3,0,0,0,78.57,58l-.88.44c-.12,0-.34.18-.68.37a5,5,0,0,1-.9.42,2.83,2.83,0,0,1-.83.13,2.22,2.22,0,0,1-1.84-1A3.77,3.77,0,0,1,72.69,56,3.63,3.63,0,0,1,73,54.46a2.78,2.78,0,0,1,1.07-1.14,17.91,17.91,0,0,1,9.7-3,14.24,14.24,0,0,1,5.7,1.07,8.59,8.59,0,0,1,3.8,3.08,8,8,0,0,1,1.33,4.58A11,11,0,0,1,93.51,64a20.64,20.64,0,0,1-3.66,4.94l-6.23,6.36h8.82A4.51,4.51,0,0,1,95.31,76Z"/><rect x="47.08" y="38.59" width="49.69" height="6.57" rx="3.28"/></svg>