<svg id="Layer_1" data-name="Layer 1" xmlns="http://www.w3.org/2000/svg" viewBox="0 0 100 100"><title>l3_6_1</title><path d="M92.19,84.38H7.81a7.81,7.81,0,0,0,0,15.62H92.19a7.81,7.81,0,0,0,0-15.62Z"/><path d="M83.23,28.76a2.94,2.94,0,0,1,.92,2.37q0,3.25-3.81,3.25H65.11q-3.82,0-3.82-3.25a2.94,2.94,0,0,1,.92-2.37,4.43,4.43,0,0,1,2.9-.79h3.55V12.13l-3.51,2.06a3,3,0,0,1-1.54.44,2.62,2.62,0,0,1-2.1-1.08,3.64,3.64,0,0,1-.88-2.39,3,3,0,0,1,1.54-2.72l7-4.08a7.41,7.41,0,0,1,3.64-1.1,3.88,3.88,0,0,1,2.83,1,3.83,3.83,0,0,1,1.08,2.86V28h3.6A4.41,4.41,0,0,1,83.23,28.76Z"/><path d="M9.2,44.05q0-5.52,6.64-5.52h15a7.41,7.41,0,0,1,5,1.44,5.15,5.15,0,0,1,1.64,4.08,5.27,5.27,0,0,1-1.64,4.12,7.25,7.25,0,0,1-5,1.48h-15Q9.2,49.65,9.2,44.05Z"/><path d="M70.17,76.05a3,3,0,0,1,.92,2.37c0,2.17-1.28,3.25-3.82,3.25H52q-3.81,0-3.81-3.25a2.94,2.94,0,0,1,.92-2.37A4.36,4.36,0,0,1,52,75.26H55.6V59.42l-3.51,2.06a2.94,2.94,0,0,1-1.54.44,2.63,2.63,0,0,1-2.1-1.07,3.68,3.68,0,0,1-.88-2.39,3,3,0,0,1,1.53-2.72l7-4.09a7.46,7.46,0,0,1,3.65-1.09,3.88,3.88,0,0,1,2.83,1,3.82,3.82,0,0,1,1.07,2.85v20.8h3.6A4.39,4.39,0,0,1,70.17,76.05Z"/><path d="M93.93,68.46a7.79,7.79,0,0,1,1.47,4.78A7.66,7.66,0,0,1,94,77.89a9.22,9.22,0,0,1-4.1,3A16.41,16.41,0,0,1,83.64,82a19.58,19.58,0,0,1-5.49-.77A14,14,0,0,1,73.59,79a3.31,3.31,0,0,1-1-1.2,3.41,3.41,0,0,1-.31-1.52A3.64,3.64,0,0,1,73,74a2.28,2.28,0,0,1,1.85-.94,2.86,2.86,0,0,1,1.09.19c.33.14.76.35,1.32.64l.42.2.55.24a17.61,17.61,0,0,0,2.52,1.07,7.89,7.89,0,0,0,2.52.38A6.11,6.11,0,0,0,86.77,75a3.05,3.05,0,0,0,1.08-2.63,2.76,2.76,0,0,0-1.1-2.46,6.57,6.57,0,0,0-3.6-.75H80.43a2.5,2.5,0,0,1-2.06-.92,3.34,3.34,0,0,1-.74-2.19,3.38,3.38,0,0,1,.74-2.2,2.53,2.53,0,0,1,2.06-.92h1.93a6.69,6.69,0,0,0,3.51-.7A2.46,2.46,0,0,0,87,60a3.29,3.29,0,0,0-1-2.52,3.79,3.79,0,0,0-2.68-.9A6.65,6.65,0,0,0,81,57,25.17,25.17,0,0,0,78.63,58l-.92.44c-.55.29-1,.5-1.31.63a3,3,0,0,1-1.1.2,2.25,2.25,0,0,1-1.84-.94A3.6,3.6,0,0,1,72.71,56,3.34,3.34,0,0,1,73,54.51a3.45,3.45,0,0,1,1-1.19,14.56,14.56,0,0,1,4.45-2.19,17.55,17.55,0,0,1,5.2-.79,14.57,14.57,0,0,1,5.73,1,8.57,8.57,0,0,1,3.82,3,7.64,7.64,0,0,1,1.34,4.47,7.35,7.35,0,0,1-1.25,4.24,7.2,7.2,0,0,1-3.49,2.65A7.48,7.48,0,0,1,93.93,68.46Z"/><rect x="47.08" y="38.59" width="49.69" height="6.57" rx="3.28"/></svg>