<svg id="Layer_1" data-name="Layer 1" xmlns="http://www.w3.org/2000/svg" viewBox="0 0 100 100"><title>l3_6_1</title><path d="M15,57.65q-3.79-5.11-3.79-14.8T15,28.11Q18.82,23,26,23t11,5.11q3.82,5.12,3.83,14.74T37,57.65q-3.8,5.12-11,5.11T15,57.65Zm14.8-5.39Q31,49.4,31,42.85c0-4.33-.38-7.44-1.15-9.35a4,4,0,0,0-7.59,0q-1.15,2.84-1.16,9.38t1.16,9.41c.77,1.9,2,2.86,3.79,2.86A4,4,0,0,0,29.82,52.26Z"/><path d="M46.18,61.06a5.52,5.52,0,0,1,0-7.59,5.45,5.45,0,0,1,7.59,0,5.52,5.52,0,0,1,0,7.59,5.45,5.45,0,0,1-7.59,0Z"/><path d="M83,38.48a11.07,11.07,0,0,1,4.34,4.4,13.19,13.19,0,0,1,1.57,6.52,13,13,0,0,1-1.87,7,12.41,12.41,0,0,1-5.28,4.68,17.86,17.86,0,0,1-7.87,1.65,23,23,0,0,1-6.68-1A18.3,18.3,0,0,1,61.6,59a5,5,0,0,1-1.29-1.52,4.12,4.12,0,0,1-.41-1.89,4.53,4.53,0,0,1,.93-2.89,2.85,2.85,0,0,1,2.31-1.18,3.7,3.7,0,0,1,1.38.22,15.1,15.1,0,0,1,1.65.82l1.1.55a30.51,30.51,0,0,0,3.11,1.32,9.08,9.08,0,0,0,3.05.5A7.05,7.05,0,0,0,78,53.66a4.78,4.78,0,0,0,1.49-3.88,4.89,4.89,0,0,0-1.54-3.85,6.21,6.21,0,0,0-4.29-1.37,15.34,15.34,0,0,0-3,.27,19.75,19.75,0,0,0-3.16,1,5.31,5.31,0,0,1-2.47.61,3.84,3.84,0,0,1-2.59-.91,3,3,0,0,1-1-2.39V28.22A4.76,4.76,0,0,1,62.6,24.7a4.66,4.66,0,0,1,3.46-1.21h17q4.78,0,4.78,3.8c0,2.56-1.59,3.85-4.78,3.85H71.23V37.9a13.72,13.72,0,0,1,5.44-1A12.66,12.66,0,0,1,83,38.48Z"/><path d="M92.19,68.19H7.81a7.81,7.81,0,0,0,0,15.62H92.19a7.81,7.81,0,0,0,0-15.62Z"/></svg>