<svg id="Layer_1" data-name="Layer 1" xmlns="http://www.w3.org/2000/svg" viewBox="0 0 100 100"><title>l3_6_1</title><path d="M15,59q-3.79-5.11-3.79-14.8T15,29.48q3.8-5.11,11-5.12t11,5.12q3.82,5.1,3.83,14.73T37,59q-3.8,5.12-11,5.11T15,59Zm14.8-5.39c.77-1.91,1.15-5,1.15-9.41s-.38-7.44-1.15-9.34S27.78,32,26,32a3.94,3.94,0,0,0-3.79,2.84q-1.15,2.83-1.16,9.37c0,4.37.39,7.5,1.16,9.41s2,2.86,3.79,2.86A3.94,3.94,0,0,0,29.82,53.62Z"/><path d="M46.18,62.42a5.52,5.52,0,0,1,0-7.59,5.45,5.45,0,0,1,7.59,0,5.52,5.52,0,0,1,0,7.59,5.45,5.45,0,0,1-7.59,0Z"/><path d="M87.48,47.05A9.59,9.59,0,0,1,89.27,53a9.48,9.48,0,0,1-4.1,8.17Q81.07,64.07,74,64.07T62.79,61.13A9.51,9.51,0,0,1,58.69,53a9.67,9.67,0,0,1,1.82-6,9.15,9.15,0,0,1,5.17-3.28,9,9,0,0,1-4.4-3.38,9.33,9.33,0,0,1-1.54-5.36,9.08,9.08,0,0,1,3.85-7.73Q67.43,24.36,74,24.36T84.4,27.19a9.12,9.12,0,0,1,3.83,7.73,9.59,9.59,0,0,1-1.57,5.5,8.3,8.3,0,0,1-4.32,3.24A9.57,9.57,0,0,1,87.48,47.05ZM80,52.13c0-2.85-2-4.29-6-4.29s-6,1.44-6,4.29,2,4.29,6,4.29S80,55,80,52.13ZM70.3,33a3.73,3.73,0,0,0-1.21,3.11,3.81,3.81,0,0,0,1.21,3.13,5.71,5.71,0,0,0,3.68,1,5.77,5.77,0,0,0,3.69-1,3.84,3.84,0,0,0,1.21-3.13A3.76,3.76,0,0,0,77.67,33,5.89,5.89,0,0,0,74,32,5.84,5.84,0,0,0,70.3,33Z"/><path d="M92.19,69.55H7.81a7.82,7.82,0,0,0,0,15.63H92.19a7.82,7.82,0,0,0,0-15.63Z"/></svg>