<svg id="Layer_1" data-name="Layer 1" xmlns="http://www.w3.org/2000/svg" viewBox="0 0 150 100"><title>s3_1</title><path d="M137.88,100h-126A11.78,11.78,0,0,1,.1,88.21V11.79A11.78,11.78,0,0,1,11.88,0h126a11.79,11.79,0,0,1,11.79,11.79V88.21A11.79,11.79,0,0,1,137.88,100Zm-91-35.81H41V30.06a6.23,6.23,0,0,0-1.77-4.68,6.34,6.34,0,0,0-4.64-1.73,12.19,12.19,0,0,0-6,1.8L17.1,32.15a4.88,4.88,0,0,0-2.52,4.46A6.08,6.08,0,0,0,16,40.54a4.34,4.34,0,0,0,3.46,1.76A4.93,4.93,0,0,0,22,41.58l5.76-3.38v26H21.93a7.26,7.26,0,0,0-4.76,1.29,4.87,4.87,0,0,0-1.51,3.89q0,5.32,6.27,5.33h25c4.18,0,6.26-1.78,6.26-5.33a4.84,4.84,0,0,0-1.51-3.89A7.23,7.23,0,0,0,46.91,64.19Zm41.33,0H73.77L84,53.75a34,34,0,0,0,6-8.1,18.12,18.12,0,0,0,1.77-8,13.21,13.21,0,0,0-2.2-7.52,14,14,0,0,0-6.23-5A23.12,23.12,0,0,0,74,23.29a29.39,29.39,0,0,0-15.91,4.9,4.74,4.74,0,0,0-1.76,1.87,6.06,6.06,0,0,0-.47,2.59,6.17,6.17,0,0,0,1.22,3.85,3.69,3.69,0,0,0,3,1.62,4.35,4.35,0,0,0,1.36-.21,8.23,8.23,0,0,0,1.48-.69c.55-.31.92-.51,1.12-.61l1.44-.72a34.69,34.69,0,0,1,4.06-1.76,11.66,11.66,0,0,1,3.86-.61,5.68,5.68,0,0,1,4,1.29,4.84,4.84,0,0,1,1.41,3.75q0,4.17-4.76,9.14L58.79,63.61a7.89,7.89,0,0,0-2.45,5.62,5.41,5.41,0,0,0,1.51,3.92A5.5,5.5,0,0,0,62,74.7H88.24A7.18,7.18,0,0,0,93,73.4a4.92,4.92,0,0,0,1.55-4A4.74,4.74,0,0,0,93,65.45,7.36,7.36,0,0,0,88.24,64.19Zm39-15.63A11.68,11.68,0,0,0,133,44.21a12,12,0,0,0,2-7,12.52,12.52,0,0,0-2.2-7.34,14,14,0,0,0-6.26-4.9,23.92,23.92,0,0,0-9.4-1.73,28.67,28.67,0,0,0-8.53,1.3,23.66,23.66,0,0,0-7.31,3.6,5.9,5.9,0,0,0-1.73,1.94,5.68,5.68,0,0,0-.5,2.52,5.93,5.93,0,0,0,1.22,3.78,3.74,3.74,0,0,0,3,1.55,4.85,4.85,0,0,0,1.8-.32q.8-.33,2.16-1l1.51-.72a41.45,41.45,0,0,1,3.92-1.73,11,11,0,0,1,3.78-.64,6.22,6.22,0,0,1,4.4,1.47,5.42,5.42,0,0,1,1.58,4.14,4,4,0,0,1-1.8,3.67Q118.91,44,115,44h-3.17a4.09,4.09,0,0,0-3.38,1.51,5.88,5.88,0,0,0,0,7.2,4.09,4.09,0,0,0,3.38,1.51h4.47q4.09,0,5.9,1.22a4.53,4.53,0,0,1,1.8,4,5,5,0,0,1-1.76,4.32q-1.77,1.29-5.8,1.29a13,13,0,0,1-4.14-.61,34.12,34.12,0,0,1-4.14-1.76l-.9-.4-.68-.32q-1.38-.72-2.16-1.05a4.85,4.85,0,0,0-1.8-.32,3.72,3.72,0,0,0-3,1.55,5.87,5.87,0,0,0-1.22,3.78,5.74,5.74,0,0,0,.5,2.48,5.61,5.61,0,0,0,1.73,2A23.23,23.23,0,0,0,108,74a32.35,32.35,0,0,0,9,1.26,27,27,0,0,0,10.19-1.77,15.14,15.14,0,0,0,6.73-5,12.59,12.59,0,0,0,2.37-7.63A12.75,12.75,0,0,0,133.92,53,12.29,12.29,0,0,0,127.26,48.56Z"/></svg>