<svg id="Layer_1" data-name="Layer 1" xmlns="http://www.w3.org/2000/svg" viewBox="0 0 150 100"><title>s3_1</title><path d="M138,100H12A11.78,11.78,0,0,1,.22,88.21V11.79A11.78,11.78,0,0,1,12,0H138a11.78,11.78,0,0,1,11.78,11.79V88.21A11.78,11.78,0,0,1,138,100ZM43.57,75.35q9.43,0,14.4-6.7t5-19.37q0-12.6-5-19.29t-14.37-6.7q-9.43,0-14.4,6.7t-5,19.29q0,12.67,5,19.37T43.57,75.35Zm0-10c-2.3,0-4-1.25-5-3.74S37.09,55,37.09,49.28s.51-9.8,1.52-12.27,2.66-3.71,5-3.71,4,1.25,5,3.74,1.51,6.58,1.51,12.24-.5,9.82-1.51,12.32S45.88,65.34,43.57,65.34ZM75,75.13a6.66,6.66,0,0,0,4.94-2,7.23,7.23,0,0,0,0-9.94,6.67,6.67,0,0,0-4.94-2,6.74,6.74,0,0,0-5,2,7.23,7.23,0,0,0,0,9.94A6.73,6.73,0,0,0,75,75.13Zm44.79-10.94H105.28L115.5,53.75a34,34,0,0,0,6-8.1,18.12,18.12,0,0,0,1.77-8,13.21,13.21,0,0,0-2.2-7.52,14,14,0,0,0-6.23-5,23.12,23.12,0,0,0-9.36-1.77,29.39,29.39,0,0,0-15.91,4.9,4.74,4.74,0,0,0-1.76,1.87,6.06,6.06,0,0,0-.47,2.59,6.17,6.17,0,0,0,1.22,3.85,3.69,3.69,0,0,0,3,1.62A4.4,4.4,0,0,0,93,37.91a8.23,8.23,0,0,0,1.48-.69c.55-.31.92-.51,1.12-.61L97,35.89a34.69,34.69,0,0,1,4.06-1.76,11.66,11.66,0,0,1,3.86-.61,5.68,5.68,0,0,1,4,1.29,4.84,4.84,0,0,1,1.41,3.75q0,4.17-4.76,9.14L90.3,63.61a7.89,7.89,0,0,0-2.45,5.62,5.41,5.41,0,0,0,1.51,3.92,5.5,5.5,0,0,0,4.11,1.55h26.28a7.18,7.18,0,0,0,4.71-1.3,4.92,4.92,0,0,0,1.55-4,4.74,4.74,0,0,0-1.55-3.92A7.36,7.36,0,0,0,119.75,64.19Z"/></svg>