<svg id="Layer_1" data-name="Layer 1" xmlns="http://www.w3.org/2000/svg" viewBox="0 0 150 100"><title>s3_1</title><path d="M137.65,100h-126A11.78,11.78,0,0,1-.13,88.21V11.79A11.78,11.78,0,0,1,11.65,0h126a11.78,11.78,0,0,1,11.78,11.79V88.21A11.78,11.78,0,0,1,137.65,100ZM46.25,60.37H59.78A6.52,6.52,0,0,0,64.28,59a4.72,4.72,0,0,0,1.48-3.71,4.61,4.61,0,0,0-1.48-3.67,6.68,6.68,0,0,0-4.5-1.3H46.25q-6,0-6,5T46.25,60.37Zm57.81,3.82H89.59L99.81,53.75a33.81,33.81,0,0,0,6-8.1,18.25,18.25,0,0,0,1.76-8,13.14,13.14,0,0,0-2.2-7.52,14,14,0,0,0-6.22-5,23.12,23.12,0,0,0-9.36-1.77,29.38,29.38,0,0,0-15.92,4.9,4.74,4.74,0,0,0-1.76,1.87,6.21,6.21,0,0,0-.47,2.59,6.18,6.18,0,0,0,1.23,3.85,3.65,3.65,0,0,0,3,1.62,4.41,4.41,0,0,0,1.37-.21,8.5,8.5,0,0,0,1.47-.69l1.12-.61,1.44-.72a34.76,34.76,0,0,1,4.07-1.76,11.6,11.6,0,0,1,3.85-.61,5.71,5.71,0,0,1,4,1.29,4.87,4.87,0,0,1,1.4,3.75q0,4.17-4.75,9.14L74.61,63.61a7.88,7.88,0,0,0-2.44,5.62,5.37,5.37,0,0,0,1.51,3.92,5.47,5.47,0,0,0,4.1,1.55h26.28a7.21,7.21,0,0,0,4.72-1.3,5,5,0,0,0,1.55-4,4.77,4.77,0,0,0-1.55-3.92A7.39,7.39,0,0,0,104.06,64.19Z"/></svg>