<svg id="Layer_1" data-name="Layer 1" xmlns="http://www.w3.org/2000/svg" viewBox="0 0 150 100"><title>s3_1</title><path d="M138,100H12A11.78,11.78,0,0,1,.22,88.21V11.79A11.78,11.78,0,0,1,12,0H138a11.78,11.78,0,0,1,11.78,11.79V88.21A11.78,11.78,0,0,1,138,100ZM84.06,34.32H80V10.72a4.31,4.31,0,0,0-1.22-3.23,4.37,4.37,0,0,0-3.21-1.2,8.4,8.4,0,0,0-4.13,1.25l-8,4.63a3.37,3.37,0,0,0-1.74,3.08,4.22,4.22,0,0,0,1,2.72,3,3,0,0,0,2.39,1.22,3.45,3.45,0,0,0,1.75-.5l4-2.34v18h-4a5,5,0,0,0-3.29.9,3.34,3.34,0,0,0-1,2.69q0,3.68,4.34,3.68H84.06q4.34,0,4.33-3.68a3.37,3.37,0,0,0-1-2.69A5,5,0,0,0,84.06,34.32ZM67.92,88h-10L65,80.74a23.32,23.32,0,0,0,4.15-5.59,12.61,12.61,0,0,0,1.22-5.55,9.09,9.09,0,0,0-1.52-5.21,9.72,9.72,0,0,0-4.3-3.48,16.09,16.09,0,0,0-6.47-1.22,19.4,19.4,0,0,0-5.75.9,19,19,0,0,0-5.25,2.49,3.28,3.28,0,0,0-1.22,1.29,4.22,4.22,0,0,0-.32,1.79,4.29,4.29,0,0,0,.84,2.66,2.53,2.53,0,0,0,2.09,1.12,3,3,0,0,0,.95-.15,5,5,0,0,0,1-.47l.77-.42,1-.5A24,24,0,0,1,55,67.18a8.11,8.11,0,0,1,2.66-.42,4,4,0,0,1,2.76.89,3.36,3.36,0,0,1,1,2.59c0,1.93-1.09,4-3.28,6.32l-10.55,11a5.46,5.46,0,0,0-1.7,3.88,3.73,3.73,0,0,0,1.05,2.72,3.8,3.8,0,0,0,2.84,1.07H67.92a5,5,0,0,0,3.26-.9,3.41,3.41,0,0,0,1.07-2.79,3.28,3.28,0,0,0-1.07-2.71A5.1,5.1,0,0,0,67.92,88Zm31.36-5.62h-1.1v-18A4.22,4.22,0,0,0,96.84,61a4.71,4.71,0,0,0-3.24-1.2,5.08,5.08,0,0,0-2.21.52,4.63,4.63,0,0,0-1.77,1.52L75.39,82.19a5.57,5.57,0,0,0-1.1,3.28,3.8,3.8,0,0,0,1,2.74,3.71,3.71,0,0,0,2.83,1.09h11.1V91a4.42,4.42,0,0,0,1.22,3.38,4.52,4.52,0,0,0,3.21,1.15,4.62,4.62,0,0,0,3.24-1.15A4.36,4.36,0,0,0,98.18,91V89.3h1.1c2.88,0,4.33-1.17,4.33-3.53S102.16,82.34,99.28,82.34Zm-16,0,6-8.61v8.61Zm19.4-32.25h0A3.71,3.71,0,0,0,99,46.37H50.07a3.72,3.72,0,0,0-3.73,3.72h0a3.72,3.72,0,0,0,3.73,3.72H99A3.71,3.71,0,0,0,102.7,50.09Z"/></svg>