<svg id="Layer_1" data-name="Layer 1" xmlns="http://www.w3.org/2000/svg" viewBox="0 0 150 100"><title>s3_1</title><path d="M138,100H12A11.78,11.78,0,0,1,.22,88.21V11.79A11.78,11.78,0,0,1,12,0H138a11.78,11.78,0,0,1,11.78,11.79V88.21A11.78,11.78,0,0,1,138,100ZM45.16,64.19H30.69L40.91,53.75a34,34,0,0,0,6-8.1,18.12,18.12,0,0,0,1.77-8,13.21,13.21,0,0,0-2.2-7.52,14,14,0,0,0-6.23-5,23.12,23.12,0,0,0-9.36-1.77,28,28,0,0,0-8.32,1.3A27.82,27.82,0,0,0,15,28.19a4.77,4.77,0,0,0-1.77,1.87,6.23,6.23,0,0,0-.46,2.59A6.17,6.17,0,0,0,14,36.5a3.67,3.67,0,0,0,3,1.62,4.41,4.41,0,0,0,1.37-.21,8.56,8.56,0,0,0,1.48-.69L21,36.61l1.45-.72a34.69,34.69,0,0,1,4.06-1.76,11.66,11.66,0,0,1,3.86-.61,5.7,5.7,0,0,1,4,1.29,4.84,4.84,0,0,1,1.4,3.75q0,4.17-4.75,9.14L15.71,63.61a7.89,7.89,0,0,0-2.45,5.62,5.41,5.41,0,0,0,1.51,3.92,5.5,5.5,0,0,0,4.11,1.55H45.16a7.18,7.18,0,0,0,4.71-1.3,5,5,0,0,0,1.55-4,4.77,4.77,0,0,0-1.55-3.92A7.36,7.36,0,0,0,45.16,64.19Zm43.2-14.47H79.29V40.64a4.25,4.25,0,1,0-8.5,0v9.08H61.72A4.17,4.17,0,0,0,57.47,54,4.25,4.25,0,0,0,58.69,57a4.07,4.07,0,0,0,3,1.26h9.07v9A4.17,4.17,0,0,0,75,71.53a4.11,4.11,0,0,0,3.06-1.22,4.2,4.2,0,0,0,1.19-3v-9h9.07a4,4,0,0,0,3-1.26A4.22,4.22,0,0,0,92.61,54a4.18,4.18,0,0,0-4.25-4.24ZM133.5,64.19h-5.9V30.06a6.23,6.23,0,0,0-1.77-4.68,6.34,6.34,0,0,0-4.64-1.73,12.19,12.19,0,0,0-6,1.8l-11.52,6.7a4.88,4.88,0,0,0-2.52,4.46,6.08,6.08,0,0,0,1.44,3.93,4.34,4.34,0,0,0,3.46,1.76,4.93,4.93,0,0,0,2.52-.72l5.76-3.38v26h-5.83a7.26,7.26,0,0,0-4.76,1.29,4.87,4.87,0,0,0-1.51,3.89q0,5.32,6.27,5.33h25c4.18,0,6.26-1.78,6.26-5.33a4.84,4.84,0,0,0-1.51-3.89A7.23,7.23,0,0,0,133.5,64.19Z"/></svg>