<svg id="Layer_1" data-name="Layer 1" xmlns="http://www.w3.org/2000/svg" viewBox="0 0 150 100"><title>s3_1</title><path d="M138,100H12A11.78,11.78,0,0,1,.22,88.21V11.79A11.78,11.78,0,0,1,12,0H138a11.78,11.78,0,0,1,11.78,11.79V88.21A11.78,11.78,0,0,1,138,100ZM50.7,64.19H36.23L46.45,53.75a33.46,33.46,0,0,0,6-8.1,18.12,18.12,0,0,0,1.77-8A13.14,13.14,0,0,0,52,30.1a14,14,0,0,0-6.23-5,23,23,0,0,0-9.35-1.77,28,28,0,0,0-8.32,1.3,27.88,27.88,0,0,0-7.6,3.6,4.74,4.74,0,0,0-1.76,1.87,6.21,6.21,0,0,0-.47,2.59,6.18,6.18,0,0,0,1.23,3.85,3.65,3.65,0,0,0,3,1.62,4.46,4.46,0,0,0,1.37-.21,8.5,8.5,0,0,0,1.47-.69c.55-.31.93-.51,1.12-.61L28,35.89A34,34,0,0,1,32,34.13a11.6,11.6,0,0,1,3.85-.61,5.71,5.71,0,0,1,4,1.29,4.87,4.87,0,0,1,1.4,3.75q0,4.17-4.75,9.14L21.25,63.61a7.89,7.89,0,0,0-2.45,5.62,5.38,5.38,0,0,0,1.52,3.92,5.47,5.47,0,0,0,4.1,1.55H50.7a7.22,7.22,0,0,0,4.72-1.3,5,5,0,0,0,1.54-4,4.77,4.77,0,0,0-1.54-3.92A7.41,7.41,0,0,0,50.7,64.19Zm17.57-3.82H81.8A6.52,6.52,0,0,0,86.3,59a4.72,4.72,0,0,0,1.48-3.71,4.61,4.61,0,0,0-1.48-3.67,6.68,6.68,0,0,0-4.5-1.3H68.27q-6,0-6,5T68.27,60.37ZM128,64.19h-5.91V30.06a6.27,6.27,0,0,0-1.76-4.68,6.38,6.38,0,0,0-4.65-1.73,12.15,12.15,0,0,0-6,1.8l-11.52,6.7a4.88,4.88,0,0,0-2.52,4.46,6.08,6.08,0,0,0,1.44,3.93,4.34,4.34,0,0,0,3.46,1.76,4.87,4.87,0,0,0,2.51-.72l5.76-3.38v26H103a7.23,7.23,0,0,0-4.75,1.29,4.84,4.84,0,0,0-1.51,3.89q0,5.32,6.26,5.33h25q6.26,0,6.26-5.33a4.84,4.84,0,0,0-1.51-3.89A7.23,7.23,0,0,0,128,64.19Z"/></svg>