<svg id="Layer_1" data-name="Layer 1" xmlns="http://www.w3.org/2000/svg" viewBox="0 0 200 150"><title>g6</title><rect x="127.37" y="51.51" width="46.93" height="46.93"/><rect x="76.28" y="102.6" width="46.93" height="46.93"/><rect x="76.28" y="51.51" width="46.93" height="46.93"/><path d="M25.19,102.6H72.11a0,0,0,0,1,0,0v46.93a0,0,0,0,1,0,0H46.83a21.64,21.64,0,0,1-21.64-21.64V102.6a0,0,0,0,1,0,0Z"/><path d="M149,102.6H174.3a0,0,0,0,1,0,0v46.93a0,0,0,0,1,0,0H127.37a0,0,0,0,1,0,0V124.24A21.64,21.64,0,0,1,149,102.6Z" transform="translate(301.67 252.13) rotate(-180)"/><path d="M46.83.42H72.11a0,0,0,0,1,0,0V47.34a0,0,0,0,1,0,0H25.19a0,0,0,0,1,0,0V22.05A21.64,21.64,0,0,1,46.83.42Z"/><path d="M127.37.42H174.3a0,0,0,0,1,0,0V47.34a0,0,0,0,1,0,0H149A21.64,21.64,0,0,1,127.37,25.7V.42A0,0,0,0,1,127.37.42Z" transform="translate(301.67 47.76) rotate(-180)"/><path d="M123.21,0H76.28V46.93h46.93V0ZM81.74,41.46v-36h36v36Z"/><path d="M72.11,51.51H25.19V98.44H72.11V51.51ZM30.64,93V57h36V93Z"/></svg>