<svg id="Layer_1" data-name="Layer 1" xmlns="http://www.w3.org/2000/svg" viewBox="0 0 122.3 122.3"><title>l6_1_1</title><rect x="43.11" y="5.06" width="34.54" height="34.54"/><rect x="82.33" y="44.28" width="34.54" height="34.54"/><path d="M25.52,5.06h12.9a0,0,0,0,1,0,0V39.6a0,0,0,0,1,0,0H3.88a0,0,0,0,1,0,0V26.7A21.64,21.64,0,0,1,25.52,5.06Z"/><path d="M82.33,5.06h34.54a0,0,0,0,1,0,0V39.6a0,0,0,0,1,0,0H104A21.64,21.64,0,0,1,82.33,18V5.06A0,0,0,0,1,82.33,5.06Z" transform="translate(199.21 44.65) rotate(-180)"/><path d="M104,82.57h12.9a0,0,0,0,1,0,0v34.54a0,0,0,0,1,0,0H82.33a0,0,0,0,1,0,0v-12.9A21.64,21.64,0,0,1,104,82.57Z" transform="translate(199.21 199.69) rotate(-180)"/><path d="M77.65,44.28v73h-56A17.63,17.63,0,0,1,3.88,99.72V44.28H77.65ZM18,90.65a7,7,0,0,0,6-2.79q2.07-2.79,2.07-8.07t-2.08-8A7,7,0,0,0,18,69a7,7,0,0,0-6,2.79q-2.07,2.79-2.07,8T12,87.86A7,7,0,0,0,18,90.65Zm0-4.17a2.15,2.15,0,0,1-2.07-1.56,14.94,14.94,0,0,1-.63-5.13,14.83,14.83,0,0,1,.63-5.12,2.16,2.16,0,0,1,4.14,0,14.81,14.81,0,0,1,.63,5.1,14.94,14.94,0,0,1-.63,5.13A2.15,2.15,0,0,1,18,86.48Zm13.08,4.08a2.77,2.77,0,0,0,2.06-.84,3,3,0,0,0,0-4.14,3,3,0,0,0-4.14,0,3,3,0,0,0,0,4.14A2.79,2.79,0,0,0,31.09,90.56ZM50.53,86H48.07V71.78a2.6,2.6,0,0,0-.73-2,2.66,2.66,0,0,0-1.94-.72,5.07,5.07,0,0,0-2.49.75l-4.8,2.79a2,2,0,0,0-1,1.86,2.49,2.49,0,0,0,.6,1.63,1.78,1.78,0,0,0,1.44.74,2,2,0,0,0,1-.3l2.4-1.41V86H40.12a3,3,0,0,0-2,.54,2,2,0,0,0-.63,1.62q0,2.22,2.61,2.22H50.53q2.61,0,2.61-2.22a2,2,0,0,0-.63-1.62A3,3,0,0,0,50.53,86Zm17.22,0h-6L66,81.65a13.9,13.9,0,0,0,2.51-3.38,7.51,7.51,0,0,0,.73-3.34,5.51,5.51,0,0,0-.91-3.14,5.94,5.94,0,0,0-2.6-2.1,9.66,9.66,0,0,0-3.9-.73,12.25,12.25,0,0,0-6.63,2,2,2,0,0,0-.73.78,2.86,2.86,0,0,0,.31,2.68,1.53,1.53,0,0,0,1.26.68,1.79,1.79,0,0,0,.57-.09,3.68,3.68,0,0,0,.62-.29l.46-.25.6-.3a14.67,14.67,0,0,1,1.7-.74,5.11,5.11,0,0,1,1.6-.25,2.38,2.38,0,0,1,1.67.54,2,2,0,0,1,.58,1.56,5.84,5.84,0,0,1-2,3.81l-6.36,6.63a3.29,3.29,0,0,0-1,2.34,2.22,2.22,0,0,0,.63,1.63,2.28,2.28,0,0,0,1.71.65h11a3,3,0,0,0,2-.54,2.07,2.07,0,0,0,.64-1.68,2,2,0,0,0-.64-1.64A3.15,3.15,0,0,0,67.75,86Z"/></svg>