<svg id="Layer_1" data-name="Layer 1" xmlns="http://www.w3.org/2000/svg" viewBox="0 0 122.3 122.3"><title>l6_1_1</title><rect x="44.08" y="5.06" width="34.54" height="34.54"/><rect x="83.31" y="44.28" width="34.54" height="34.54"/><path d="M26.49,5.06H39.4a0,0,0,0,1,0,0V39.6a0,0,0,0,1,0,0H4.85a0,0,0,0,1,0,0V26.7A21.64,21.64,0,0,1,26.49,5.06Z"/><path d="M83.31,5.06h34.54a0,0,0,0,1,0,0V39.6a0,0,0,0,1,0,0h-12.9A21.64,21.64,0,0,1,83.31,18V5.06A0,0,0,0,1,83.31,5.06Z" transform="translate(201.16 44.65) rotate(-180)"/><path d="M104.95,82.57h12.9a0,0,0,0,1,0,0v34.54a0,0,0,0,1,0,0H83.31a0,0,0,0,1,0,0v-12.9A21.64,21.64,0,0,1,104.95,82.57Z" transform="translate(201.16 199.69) rotate(-180)"/><path d="M78.62,44.28v73h-56A17.63,17.63,0,0,1,4.85,99.72V44.28H78.62ZM20,90.65a7,7,0,0,0,6-2.79q2.07-2.79,2.07-8.07t-2.08-8A7,7,0,0,0,20,69a7,7,0,0,0-6,2.79q-2.07,2.79-2.07,8T14,87.86A7,7,0,0,0,20,90.65Zm0-4.17a2.15,2.15,0,0,1-2.07-1.56,14.94,14.94,0,0,1-.63-5.13,14.83,14.83,0,0,1,.63-5.12,2.16,2.16,0,0,1,4.14,0,14.81,14.81,0,0,1,.63,5.1,14.94,14.94,0,0,1-.63,5.13A2.15,2.15,0,0,1,20,86.48Zm13.08,4.08a2.77,2.77,0,0,0,2.06-.84,3,3,0,0,0,0-4.14,3,3,0,0,0-4.14,0,3,3,0,0,0,0,4.14A2.79,2.79,0,0,0,33.08,90.56ZM48,76.46a5.75,5.75,0,0,0-2.53.55,4.88,4.88,0,0,0-1.85,1.52,8,8,0,0,1,1.13-3.92,2.86,2.86,0,0,1,2.47-1.39,4,4,0,0,1,1.38.24q.66.24,1.65.72l.66.33c.38.2.68.34.9.43a2,2,0,0,0,.75.14,1.58,1.58,0,0,0,1.28-.65,2.45,2.45,0,0,0,.52-1.57,2.21,2.21,0,0,0-.22-1,2.62,2.62,0,0,0-.74-.81,9.54,9.54,0,0,0-3-1.5A11.68,11.68,0,0,0,46.91,69a8.11,8.11,0,0,0-4.66,1.35,8.78,8.78,0,0,0-3.09,3.85A14.57,14.57,0,0,0,38.06,80q0,5.1,2.31,7.86a8.05,8.05,0,0,0,6.54,2.76,7.73,7.73,0,0,0,3.81-.93,6.71,6.71,0,0,0,2.63-2.6,7.47,7.47,0,0,0,.94-3.76,7.56,7.56,0,0,0-.82-3.56A6.06,6.06,0,0,0,48,76.46Zm-1.38,10a2.37,2.37,0,0,1-1.86-.8A2.91,2.91,0,0,1,44,83.57a3,3,0,0,1,.71-2.07,2.67,2.67,0,0,1,3.75,0,3.07,3.07,0,0,1,.67,2.09,3,3,0,0,1-.69,2.07A2.36,2.36,0,0,1,46.58,86.42ZM70.22,69.23H58.46a3,3,0,0,0-2,.55,2.13,2.13,0,0,0-.63,1.67,2,2,0,0,0,.62,1.62,3,3,0,0,0,2,.54H66L58.25,86.78a2.84,2.84,0,0,0-.42,1.44,2.19,2.19,0,0,0,.81,1.72,2.76,2.76,0,0,0,1.86.71,2.6,2.6,0,0,0,1.28-.35,2.7,2.7,0,0,0,1-1.06L71.9,73.49a3.83,3.83,0,0,0,.57-2,2.37,2.37,0,0,0-.58-1.64A2.14,2.14,0,0,0,70.22,69.23Z"/></svg>