<svg id="Layer_1" data-name="Layer 1" xmlns="http://www.w3.org/2000/svg" viewBox="0 0 122.3 122.3"><title>l6_1_1</title><rect x="43.31" y="5.06" width="34.54" height="34.54"/><rect x="82.53" y="44.28" width="34.54" height="34.54"/><path d="M25.72,5.06h12.9a0,0,0,0,1,0,0V39.6a0,0,0,0,1,0,0H4.08a0,0,0,0,1,0,0V26.7A21.64,21.64,0,0,1,25.72,5.06Z"/><path d="M82.53,5.06h34.54a0,0,0,0,1,0,0V39.6a0,0,0,0,1,0,0h-12.9A21.64,21.64,0,0,1,82.53,18V5.06A0,0,0,0,1,82.53,5.06Z" transform="translate(199.61 44.65) rotate(-180)"/><path d="M104.17,82.57h12.9a0,0,0,0,1,0,0v34.54a0,0,0,0,1,0,0H82.53a0,0,0,0,1,0,0v-12.9A21.64,21.64,0,0,1,104.17,82.57Z" transform="translate(199.61 199.69) rotate(-180)"/><path d="M77.85,44.28v73h-56A17.63,17.63,0,0,1,4.08,99.72V44.28H77.85ZM28.23,89.65a7,7,0,0,0,6-2.79q2.07-2.79,2.07-8.07t-2.09-8a7,7,0,0,0-6-2.79,7,7,0,0,0-6,2.79q-2.07,2.79-2.07,8t2.07,8.07A7,7,0,0,0,28.23,89.65Zm0-4.17a2.15,2.15,0,0,1-2.07-1.56,14.94,14.94,0,0,1-.63-5.13,14.87,14.87,0,0,1,.63-5.12,2.16,2.16,0,0,1,4.14,0,14.81,14.81,0,0,1,.63,5.1,14.94,14.94,0,0,1-.63,5.13A2.15,2.15,0,0,1,28.23,85.48Zm13.08,4.08a2.75,2.75,0,0,0,2-.84,3,3,0,0,0,0-4.14,2.75,2.75,0,0,0-2-.84,2.91,2.91,0,1,0,0,5.82Zm14.55-14a7.5,7.5,0,0,0-3,.54V72.4h6.48Q62,72.4,62,70.3t-2.61-2.07h-9.3a2.56,2.56,0,0,0-1.89.66,2.6,2.6,0,0,0-.66,1.92v8.13a1.65,1.65,0,0,0,.57,1.31,2.12,2.12,0,0,0,1.41.49,2.87,2.87,0,0,0,1.35-.33,10.59,10.59,0,0,1,1.72-.54,8.25,8.25,0,0,1,1.64-.15,3.39,3.39,0,0,1,2.34.75,2.67,2.67,0,0,1,.84,2.1,2.62,2.62,0,0,1-.81,2.12,3.9,3.9,0,0,1-2.49.67,5,5,0,0,1-1.67-.27,16.67,16.67,0,0,1-1.69-.72l-.6-.3a9.13,9.13,0,0,0-.9-.45,2,2,0,0,0-.75-.12,1.53,1.53,0,0,0-1.26.65,2.45,2.45,0,0,0-.51,1.57,2.18,2.18,0,0,0,.22,1,2.58,2.58,0,0,0,.71.83,9.88,9.88,0,0,0,3.07,1.5,12.55,12.55,0,0,0,3.65.54,9.74,9.74,0,0,0,4.29-.9,6.75,6.75,0,0,0,2.88-2.55,7.1,7.1,0,0,0,1-3.81,7.27,7.27,0,0,0-.86-3.56,6.14,6.14,0,0,0-2.37-2.4A7,7,0,0,0,55.86,75.55Z"/></svg>