<svg id="Layer_1" data-name="Layer 1" xmlns="http://www.w3.org/2000/svg" viewBox="0 0 122.3 122.3"><title>l6_1_1</title><rect x="44" y="6.06" width="34.54" height="34.54"/><rect x="83.22" y="45.28" width="34.54" height="34.54"/><path d="M26.41,6.06h12.9a0,0,0,0,1,0,0V40.6a0,0,0,0,1,0,0H4.77a0,0,0,0,1,0,0V27.7A21.64,21.64,0,0,1,26.41,6.06Z"/><path d="M83.22,6.06h34.54a0,0,0,0,1,0,0V40.6a0,0,0,0,1,0,0h-12.9A21.64,21.64,0,0,1,83.22,19V6.06A0,0,0,0,1,83.22,6.06Z" transform="translate(200.99 46.65) rotate(-180)"/><path d="M104.86,83.57h12.9a0,0,0,0,1,0,0v34.54a0,0,0,0,1,0,0H83.22a0,0,0,0,1,0,0v-12.9A21.64,21.64,0,0,1,104.86,83.57Z" transform="translate(200.99 201.69) rotate(-180)"/><path d="M78.54,45.28v73H22.49A17.63,17.63,0,0,1,4.77,100.72V45.28H78.54ZM47.48,71.22H40.82l4.71-4.81a15.44,15.44,0,0,0,2.76-3.73A8.19,8.19,0,0,0,49.11,59a6.12,6.12,0,0,0-1-3.47,6.65,6.65,0,0,0-2.87-2.32,10.72,10.72,0,0,0-4.31-.81,13.53,13.53,0,0,0-7.33,2.26,2.11,2.11,0,0,0-.81.86,2.75,2.75,0,0,0-.22,1.19,2.8,2.8,0,0,0,.57,1.77,1.68,1.68,0,0,0,1.39.75,1.89,1.89,0,0,0,.63-.1,4.32,4.32,0,0,0,.68-.31l.51-.29.67-.33a16.55,16.55,0,0,1,1.87-.81,5.3,5.3,0,0,1,1.77-.28,2.6,2.6,0,0,1,1.84.6,2.22,2.22,0,0,1,.65,1.72q0,1.92-2.19,4.21l-7,7.33a3.61,3.61,0,0,0-1.12,2.58,2.51,2.51,0,0,0,.69,1.81,2.56,2.56,0,0,0,1.89.71h12.1a3.37,3.37,0,0,0,2.17-.59,2.28,2.28,0,0,0,.72-1.86,2.19,2.19,0,0,0-.72-1.81A3.43,3.43,0,0,0,47.48,71.22ZM24,79.2c-.84,0-1.51,1.22-1.48,2.59s.68,2.38,1.48,2.4l34.25,0c.82,0,1.5-1.11,1.5-2.48s-.67-2.52-1.49-2.51Zm21.6,20.56a5.27,5.27,0,0,0,2.63-2,5.51,5.51,0,0,0,1-3.2,5.81,5.81,0,0,0-1-3.38,6.55,6.55,0,0,0-2.89-2.26A11,11,0,0,0,41,88.13a13.2,13.2,0,0,0-3.93.6,11,11,0,0,0-3.37,1.65,2.69,2.69,0,0,0-.79.9,2.5,2.5,0,0,0-.23,1.16,2.71,2.71,0,0,0,.56,1.74,1.73,1.73,0,0,0,1.39.71,2.16,2.16,0,0,0,.83-.15c.24-.1.58-.26,1-.48l.69-.33a18.49,18.49,0,0,1,1.81-.8,5,5,0,0,1,1.74-.29,2.82,2.82,0,0,1,2,.68,2.44,2.44,0,0,1,.73,1.9,1.85,1.85,0,0,1-.83,1.69,5,5,0,0,1-2.65.53H38.49a1.89,1.89,0,0,0-1.56.7,2.58,2.58,0,0,0-.56,1.66,2.55,2.55,0,0,0,.56,1.65,1.89,1.89,0,0,0,1.56.7h2.06a5,5,0,0,1,2.71.56,2.08,2.08,0,0,1,.83,1.86,2.31,2.31,0,0,1-.81,2,4.58,4.58,0,0,1-2.67.6,5.88,5.88,0,0,1-1.9-.29,12.87,12.87,0,0,1-1.91-.81l-.41-.18a2.44,2.44,0,0,1-.32-.15q-.63-.33-1-.48a2.19,2.19,0,0,0-.83-.15,1.7,1.7,0,0,0-1.39.71,2.72,2.72,0,0,0-.57,1.74,2.3,2.3,0,0,0,1,2.06,10.45,10.45,0,0,0,3.45,1.67,14.53,14.53,0,0,0,4.14.58,12.48,12.48,0,0,0,4.69-.81,7,7,0,0,0,3.1-2.3,5.81,5.81,0,0,0,1.1-3.52,5.87,5.87,0,0,0-1.11-3.61A5.75,5.75,0,0,0,45.62,99.76Z"/></svg>