<svg id="Layer_1" data-name="Layer 1" xmlns="http://www.w3.org/2000/svg" viewBox="0 0 122.3 122.3"><title>l6_1_1</title><rect x="44.06" y="5.06" width="34.54" height="34.54"/><rect x="83.29" y="44.28" width="34.54" height="34.54"/><path d="M26.47,5.06h12.9a0,0,0,0,1,0,0V39.6a0,0,0,0,1,0,0H4.83a0,0,0,0,1,0,0V26.7A21.64,21.64,0,0,1,26.47,5.06Z"/><path d="M83.29,5.06h34.54a0,0,0,0,1,0,0V39.6a0,0,0,0,1,0,0h-12.9A21.64,21.64,0,0,1,83.29,18V5.06A0,0,0,0,1,83.29,5.06Z" transform="translate(201.11 44.65) rotate(-180)"/><path d="M104.92,82.57h12.9a0,0,0,0,1,0,0v34.54a0,0,0,0,1,0,0H83.29a0,0,0,0,1,0,0v-12.9A21.64,21.64,0,0,1,104.92,82.57Z" transform="translate(201.11 199.69) rotate(-180)"/><path d="M78.6,44.28v73h-56A17.63,17.63,0,0,1,4.83,99.72V44.28H78.6ZM29,89.65a7,7,0,0,0,6-2.79q2.07-2.79,2.07-8.07t-2.09-8A7,7,0,0,0,29,68a7,7,0,0,0-6,2.79q-2.07,2.79-2.07,8T23,86.86A7,7,0,0,0,29,89.65Zm0-4.17a2.15,2.15,0,0,1-2.07-1.56,14.94,14.94,0,0,1-.63-5.13,14.87,14.87,0,0,1,.63-5.12,2.16,2.16,0,0,1,4.14,0,14.81,14.81,0,0,1,.63,5.1,14.94,14.94,0,0,1-.63,5.13A2.15,2.15,0,0,1,29,85.48Zm13.08,4.08a2.75,2.75,0,0,0,2-.84,3,3,0,0,0,0-4.14,2.75,2.75,0,0,0-2-.84,2.91,2.91,0,1,0,0,5.82ZM59,78.49a4.86,4.86,0,0,0,2.38-1.82,5,5,0,0,0,.86-2.89,5.24,5.24,0,0,0-.92-3.06,5.87,5.87,0,0,0-2.61-2A9.92,9.92,0,0,0,54.75,68a12.06,12.06,0,0,0-3.56.54,9.93,9.93,0,0,0-3,1.5,2.42,2.42,0,0,0-.72.81,2.34,2.34,0,0,0-.21,1,2.49,2.49,0,0,0,.51,1.58,1.54,1.54,0,0,0,1.26.64,2,2,0,0,0,.75-.14,8.26,8.26,0,0,0,.9-.43l.63-.3a16.15,16.15,0,0,1,1.63-.72,4.56,4.56,0,0,1,1.58-.27,2.58,2.58,0,0,1,1.83.62A2.23,2.23,0,0,1,57,74.56a1.68,1.68,0,0,1-.75,1.53,4.59,4.59,0,0,1-2.4.48H52.5a1.71,1.71,0,0,0-1.41.63,2.46,2.46,0,0,0,0,3,1.71,1.71,0,0,0,1.41.63h1.86a4.51,4.51,0,0,1,2.46.51A1.88,1.88,0,0,1,57.57,83a2.09,2.09,0,0,1-.74,1.8,4.14,4.14,0,0,1-2.41.54,5.78,5.78,0,0,1-1.73-.25A13.47,13.47,0,0,1,51,84.37l-.38-.16-.28-.14c-.38-.2-.68-.34-.9-.44a2.18,2.18,0,0,0-.75-.13,1.53,1.53,0,0,0-1.26.65,2.45,2.45,0,0,0-.51,1.57,2.12,2.12,0,0,0,.93,1.86,9.44,9.44,0,0,0,3.12,1.51,13.33,13.33,0,0,0,3.75.53,11,11,0,0,0,4.24-.74,6.24,6.24,0,0,0,2.81-2.08,5.23,5.23,0,0,0,1-3.18,5.32,5.32,0,0,0-1-3.27A5.09,5.09,0,0,0,59,78.49Z"/></svg>