<svg id="Layer_1" data-name="Layer 1" xmlns="http://www.w3.org/2000/svg" viewBox="0 0 122.3 122.3"><title>l6_1_1</title><rect x="42.08" y="5.06" width="34.54" height="34.54"/><rect x="81.31" y="44.28" width="34.54" height="34.54"/><path d="M24.49,5.06H37.4a0,0,0,0,1,0,0V39.6a0,0,0,0,1,0,0H2.85a0,0,0,0,1,0,0V26.7A21.64,21.64,0,0,1,24.49,5.06Z"/><path d="M81.31,5.06h34.54a0,0,0,0,1,0,0V39.6a0,0,0,0,1,0,0h-12.9A21.64,21.64,0,0,1,81.31,18V5.06A0,0,0,0,1,81.31,5.06Z" transform="translate(197.16 44.65) rotate(-180)"/><path d="M102.95,82.57h12.9a0,0,0,0,1,0,0v34.54a0,0,0,0,1,0,0H81.31a0,0,0,0,1,0,0v-12.9A21.64,21.64,0,0,1,102.95,82.57Z" transform="translate(197.16 199.69) rotate(-180)"/><path d="M76.62,44.28v73h-56A17.63,17.63,0,0,1,2.85,99.72V44.28H76.62ZM27,89.65a7,7,0,0,0,6-2.79q2.07-2.79,2.07-8.07t-2.08-8A7,7,0,0,0,27,68a7,7,0,0,0-6,2.79q-2.07,2.79-2.07,8T21,86.86A7,7,0,0,0,27,89.65Zm0-4.17a2.15,2.15,0,0,1-2.07-1.56,14.94,14.94,0,0,1-.63-5.13,14.87,14.87,0,0,1,.63-5.12,2.16,2.16,0,0,1,4.14,0,14.81,14.81,0,0,1,.63,5.1,14.94,14.94,0,0,1-.63,5.13A2.15,2.15,0,0,1,27,85.48Zm13.08,4.08a2.77,2.77,0,0,0,2.06-.84,3,3,0,0,0,0-4.14,3,3,0,0,0-4.14,0,3,3,0,0,0,0,4.14A2.79,2.79,0,0,0,40.08,89.56ZM55,75.46a5.89,5.89,0,0,0-2.53.55,4.88,4.88,0,0,0-1.85,1.52,8,8,0,0,1,1.13-3.92,2.88,2.88,0,0,1,2.47-1.39,4,4,0,0,1,1.38.24q.66.24,1.65.72l.66.33a8.26,8.26,0,0,0,.9.43,2,2,0,0,0,.75.14,1.59,1.59,0,0,0,1.28-.64,2.5,2.5,0,0,0,.52-1.58,2.21,2.21,0,0,0-.22-1,2.62,2.62,0,0,0-.74-.81,9.54,9.54,0,0,0-3-1.5A11.68,11.68,0,0,0,53.91,68a8.11,8.11,0,0,0-4.66,1.35,8.75,8.75,0,0,0-3.09,3.86A14.52,14.52,0,0,0,45.06,79q0,5.1,2.31,7.86a8.05,8.05,0,0,0,6.54,2.76,7.73,7.73,0,0,0,3.81-.93,6.75,6.75,0,0,0,2.63-2.59,8.08,8.08,0,0,0,.12-7.33,6.27,6.27,0,0,0-2.27-2.46A6.15,6.15,0,0,0,55,75.46Zm-1.38,10a2.39,2.39,0,0,1-1.86-.79,3.34,3.34,0,0,1,0-4.13,2.67,2.67,0,0,1,3.75,0,3.07,3.07,0,0,1,.67,2.09,3,3,0,0,1-.69,2.07A2.36,2.36,0,0,1,53.58,85.42Z"/></svg>