<svg id="Layer_1" data-name="Layer 1" xmlns="http://www.w3.org/2000/svg" viewBox="0 0 122.3 122.3"><title>l6_1_1</title><rect x="43" y="6.06" width="34.54" height="34.54"/><rect x="82.22" y="45.28" width="34.54" height="34.54"/><path d="M25.41,6.06h12.9a0,0,0,0,1,0,0V40.6a0,0,0,0,1,0,0H3.77a0,0,0,0,1,0,0V27.7A21.64,21.64,0,0,1,25.41,6.06Z"/><path d="M82.22,6.06h34.54a0,0,0,0,1,0,0V40.6a0,0,0,0,1,0,0h-12.9A21.64,21.64,0,0,1,82.22,19V6.06A0,0,0,0,1,82.22,6.06Z" transform="translate(198.99 46.65) rotate(-180)"/><path d="M103.86,83.57h12.9a0,0,0,0,1,0,0v34.54a0,0,0,0,1,0,0H82.22a0,0,0,0,1,0,0v-12.9A21.64,21.64,0,0,1,103.86,83.57Z" transform="translate(198.99 201.69) rotate(-180)"/><path d="M77.54,45.28v73H21.49A17.63,17.63,0,0,1,3.77,100.72V45.28H77.54ZM47.36,71.22H44.64V55.51a2.76,2.76,0,0,0-3-2.95,5.52,5.52,0,0,0-2.75.83l-5.3,3.08a2.23,2.23,0,0,0-1.16,2.05,2.79,2.79,0,0,0,.66,1.81,2,2,0,0,0,1.59.81,2.27,2.27,0,0,0,1.16-.33l2.65-1.56v12H35.86a3.29,3.29,0,0,0-2.19.6,2.24,2.24,0,0,0-.7,1.79c0,1.63,1,2.45,2.89,2.45h11.5c1.92,0,2.89-.82,2.89-2.45a2.24,2.24,0,0,0-.7-1.79A3.31,3.31,0,0,0,47.36,71.22ZM46.56,107H39.89l4.71-4.81a15.25,15.25,0,0,0,2.77-3.73,8.35,8.35,0,0,0,.81-3.69,6,6,0,0,0-1-3.47,6.47,6.47,0,0,0-2.87-2.32A10.69,10.69,0,0,0,40,88.13a13.56,13.56,0,0,0-7.32,2.25,2.17,2.17,0,0,0-.81.86,2.77,2.77,0,0,0-.22,1.2,2.9,2.9,0,0,0,.56,1.77,1.7,1.7,0,0,0,1.4.75,2.19,2.19,0,0,0,.63-.1,3.94,3.94,0,0,0,.67-.32l.52-.28.66-.33A17.37,17.37,0,0,1,38,93.12a5.4,5.4,0,0,1,1.78-.28,2.61,2.61,0,0,1,1.84.59,2.25,2.25,0,0,1,.65,1.73q0,1.92-2.19,4.21l-7,7.32a3.66,3.66,0,0,0-1.13,2.59,2.47,2.47,0,0,0,.7,1.81,2.53,2.53,0,0,0,1.89.71h12.1a3.32,3.32,0,0,0,2.17-.6,2.29,2.29,0,0,0,.71-1.85,2.22,2.22,0,0,0-.71-1.81A3.39,3.39,0,0,0,46.56,107ZM23.2,79.82c-.84,0-1.51,1.22-1.48,2.59s.67,2.38,1.47,2.4l34.26,0c.82,0,1.49-1.11,1.5-2.48s-.67-2.53-1.5-2.51Z"/></svg>