<svg id="Layer_1" data-name="Layer 1" xmlns="http://www.w3.org/2000/svg" viewBox="0 0 122.3 122.3"><title>l6_1_1</title><rect x="43.84" y="5.06" width="34.54" height="34.54"/><rect x="83.07" y="44.28" width="34.54" height="34.54"/><path d="M26.26,5.06h12.9a0,0,0,0,1,0,0V39.6a0,0,0,0,1,0,0H4.62a0,0,0,0,1,0,0V26.7A21.64,21.64,0,0,1,26.26,5.06Z"/><path d="M83.07,5.06h34.54a0,0,0,0,1,0,0V39.6a0,0,0,0,1,0,0h-12.9A21.64,21.64,0,0,1,83.07,18V5.06A0,0,0,0,1,83.07,5.06Z" transform="translate(200.68 44.65) rotate(-180)"/><path d="M104.71,82.57h12.9a0,0,0,0,1,0,0v34.54a0,0,0,0,1,0,0H83.07a0,0,0,0,1,0,0v-12.9A21.64,21.64,0,0,1,104.71,82.57Z" transform="translate(200.68 199.69) rotate(-180)"/><path d="M78.38,44.28v73h-56A17.62,17.62,0,0,1,4.62,99.72V44.28H78.38ZM28.76,89.65a7,7,0,0,0,6-2.79q2.07-2.79,2.07-8.07t-2.08-8a7,7,0,0,0-6-2.79,7,7,0,0,0-6,2.79q-2.07,2.79-2.07,8t2.07,8.07A7,7,0,0,0,28.76,89.65Zm0-4.17a2.15,2.15,0,0,1-2.07-1.56,14.94,14.94,0,0,1-.63-5.13,14.87,14.87,0,0,1,.63-5.12,2.16,2.16,0,0,1,4.14,0,14.81,14.81,0,0,1,.63,5.1,14.94,14.94,0,0,1-.63,5.13A2.15,2.15,0,0,1,28.76,85.48Zm13.08,4.08a2.77,2.77,0,0,0,2.06-.84,3,3,0,0,0,0-4.14,3,3,0,0,0-4.14,0,3,3,0,0,0,0,4.14A2.79,2.79,0,0,0,41.84,89.56Zm19.53-8h-.66V70.78a2.55,2.55,0,0,0-.81-2A2.83,2.83,0,0,0,58,68.05a3,3,0,0,0-1.33.31,2.79,2.79,0,0,0-1.07.92L47,81.52a3.36,3.36,0,0,0-.66,2,2.3,2.3,0,0,0,.63,1.65,2.25,2.25,0,0,0,1.71.66h6.69v1a2.67,2.67,0,0,0,.74,2,2.7,2.7,0,0,0,1.93.69,2.77,2.77,0,0,0,2-.69,2.64,2.64,0,0,0,.75-2v-1h.66q2.61,0,2.61-2.13T61.37,81.61Zm-9.63,0,3.6-5.19v5.19Z"/></svg>