<svg id="Layer_1" data-name="Layer 1" xmlns="http://www.w3.org/2000/svg" viewBox="0 0 122.3 122.3"><title>l6_1_1</title><rect x="43.88" y="5.06" width="34.54" height="34.54"/><rect x="83.11" y="44.28" width="34.54" height="34.54"/><path d="M26.29,5.06H39.2a0,0,0,0,1,0,0V39.6a0,0,0,0,1,0,0H4.65a0,0,0,0,1,0,0V26.7A21.64,21.64,0,0,1,26.29,5.06Z"/><path d="M83.11,5.06h34.54a0,0,0,0,1,0,0V39.6a0,0,0,0,1,0,0h-12.9A21.64,21.64,0,0,1,83.11,18V5.06A0,0,0,0,1,83.11,5.06Z" transform="translate(200.75 44.65) rotate(-180)"/><path d="M104.75,82.57h12.9a0,0,0,0,1,0,0v34.54a0,0,0,0,1,0,0H83.11a0,0,0,0,1,0,0v-12.9A21.64,21.64,0,0,1,104.75,82.57Z" transform="translate(200.75 199.69) rotate(-180)"/><path d="M78.42,44.28v73h-56A17.63,17.63,0,0,1,4.65,99.72V44.28H78.42ZM19.79,90.65a7,7,0,0,0,6-2.79q2.07-2.79,2.07-8.07t-2.09-8a7,7,0,0,0-6-2.79,7,7,0,0,0-6,2.79c-1.38,1.86-2.08,4.54-2.08,8s.7,6.21,2.08,8.07A7,7,0,0,0,19.79,90.65Zm0-4.17a2.16,2.16,0,0,1-2.08-1.56,15.25,15.25,0,0,1-.62-5.13,15.14,15.14,0,0,1,.62-5.12,2.16,2.16,0,0,1,4.15,0,14.81,14.81,0,0,1,.63,5.1,14.94,14.94,0,0,1-.63,5.13A2.15,2.15,0,0,1,19.79,86.48Zm13.08,4.08a2.77,2.77,0,0,0,2.05-.84,3,3,0,0,0,0-4.14,2.77,2.77,0,0,0-2.05-.84,2.91,2.91,0,1,0,0,5.82ZM51.52,86h-6l4.26-4.35a13.9,13.9,0,0,0,2.51-3.38A7.51,7.51,0,0,0,53,74.93a5.51,5.51,0,0,0-.91-3.14,5.94,5.94,0,0,0-2.6-2.1,9.66,9.66,0,0,0-3.9-.73A12.25,12.25,0,0,0,39,71a2,2,0,0,0-.73.78,2.86,2.86,0,0,0,.31,2.68,1.53,1.53,0,0,0,1.26.68,1.79,1.79,0,0,0,.57-.09,3.68,3.68,0,0,0,.62-.29l.46-.25.6-.3a14.67,14.67,0,0,1,1.7-.74,5.11,5.11,0,0,1,1.6-.25,2.38,2.38,0,0,1,1.67.54,2,2,0,0,1,.58,1.56,5.84,5.84,0,0,1-2,3.81l-6.36,6.63a3.29,3.29,0,0,0-1,2.34,2.22,2.22,0,0,0,.63,1.63,2.28,2.28,0,0,0,1.71.65h11a3,3,0,0,0,2-.54,2.07,2.07,0,0,0,.64-1.68,2,2,0,0,0-.64-1.64A3.15,3.15,0,0,0,51.52,86Zm16.26-6.51a4.89,4.89,0,0,0,2.39-1.82A5,5,0,0,0,71,74.78a5.23,5.23,0,0,0-.91-3.06,5.87,5.87,0,0,0-2.61-2A10,10,0,0,0,63.59,69,12,12,0,0,0,60,69.5,10,10,0,0,0,57,71a2.42,2.42,0,0,0-.72.81,2.34,2.34,0,0,0-.21,1,2.45,2.45,0,0,0,.51,1.57,1.53,1.53,0,0,0,1.26.65,2,2,0,0,0,.75-.14,9.41,9.41,0,0,0,.9-.43l.63-.3a17.28,17.28,0,0,1,1.64-.72,4.54,4.54,0,0,1,1.57-.27,2.62,2.62,0,0,1,1.83.61,2.27,2.27,0,0,1,.66,1.73,1.68,1.68,0,0,1-.75,1.53,4.59,4.59,0,0,1-2.4.48H61.34a1.72,1.72,0,0,0-1.42.63,2.5,2.5,0,0,0,0,3,1.72,1.72,0,0,0,1.42.63h1.85a4.49,4.49,0,0,1,2.46.51A1.88,1.88,0,0,1,66.4,84a2.08,2.08,0,0,1-.73,1.8,4.17,4.17,0,0,1-2.41.54,5.42,5.42,0,0,1-1.73-.26,13.36,13.36,0,0,1-1.73-.73l-.37-.17-.29-.13c-.38-.2-.68-.35-.9-.44a2,2,0,0,0-.75-.13,1.54,1.54,0,0,0-1.26.64,2.49,2.49,0,0,0-.51,1.58,2.45,2.45,0,0,0,.21,1,2.38,2.38,0,0,0,.72.83,9.44,9.44,0,0,0,3.12,1.51,13.33,13.33,0,0,0,3.75.53,11.29,11.29,0,0,0,4.25-.74,6.23,6.23,0,0,0,2.8-2.08,5.23,5.23,0,0,0,1-3.18,5.32,5.32,0,0,0-1-3.27A5.12,5.12,0,0,0,67.78,79.49Z"/></svg>