<svg id="Layer_1" data-name="Layer 1" xmlns="http://www.w3.org/2000/svg" viewBox="0 0 122.3 122.3"><title>l6_1_1</title><rect x="43.88" y="5.06" width="34.54" height="34.54"/><rect x="83.11" y="44.28" width="34.54" height="34.54"/><path d="M26.29,5.06H39.2a0,0,0,0,1,0,0V39.6a0,0,0,0,1,0,0H4.65a0,0,0,0,1,0,0V26.7A21.64,21.64,0,0,1,26.29,5.06Z"/><path d="M83.11,5.06h34.54a0,0,0,0,1,0,0V39.6a0,0,0,0,1,0,0h-12.9A21.64,21.64,0,0,1,83.11,18V5.06A0,0,0,0,1,83.11,5.06Z" transform="translate(200.75 44.65) rotate(-180)"/><path d="M104.75,82.57h12.9a0,0,0,0,1,0,0v34.54a0,0,0,0,1,0,0H83.11a0,0,0,0,1,0,0v-12.9A21.64,21.64,0,0,1,104.75,82.57Z" transform="translate(200.75 199.69) rotate(-180)"/><path d="M78.42,44.28v73h-56A17.63,17.63,0,0,1,4.65,99.72V44.28H78.42ZM28.79,89.65a7,7,0,0,0,6-2.79q2.07-2.79,2.07-8.07t-2.09-8a7,7,0,0,0-6-2.79,7,7,0,0,0-6,2.79c-1.38,1.86-2.08,4.54-2.08,8s.7,6.21,2.08,8.07A7,7,0,0,0,28.79,89.65Zm0-4.17a2.16,2.16,0,0,1-2.08-1.56,15.25,15.25,0,0,1-.62-5.13,15.07,15.07,0,0,1,.62-5.11,2.16,2.16,0,0,1,4.15,0,14.81,14.81,0,0,1,.63,5.1,14.94,14.94,0,0,1-.63,5.13A2.15,2.15,0,0,1,28.79,85.48Zm13.08,4.08a2.77,2.77,0,0,0,2.05-.84,3,3,0,0,0,0-4.14,2.77,2.77,0,0,0-2.05-.84,2.91,2.91,0,1,0,0,5.82ZM60.52,85h-6l4.26-4.35a14.07,14.07,0,0,0,2.51-3.37A7.58,7.58,0,0,0,62,73.93a5.48,5.48,0,0,0-.91-3.13,5.87,5.87,0,0,0-2.6-2.1,9.66,9.66,0,0,0-3.9-.74A12.25,12.25,0,0,0,48,70a2,2,0,0,0-.73.78,2.57,2.57,0,0,0-.2,1.08,2.6,2.6,0,0,0,.51,1.61,1.52,1.52,0,0,0,1.26.67,1.79,1.79,0,0,0,.57-.09,3.55,3.55,0,0,0,.62-.28l.46-.26.6-.3a14.43,14.43,0,0,1,1.7-.73,4.84,4.84,0,0,1,1.6-.26,2.38,2.38,0,0,1,1.67.54,2,2,0,0,1,.58,1.56,5.84,5.84,0,0,1-2,3.81l-6.36,6.63a3.29,3.29,0,0,0-1,2.34,2.18,2.18,0,0,0,2.34,2.28h11a3,3,0,0,0,2-.54,2.07,2.07,0,0,0,.64-1.68,2,2,0,0,0-.64-1.63A3.09,3.09,0,0,0,60.52,85Z"/></svg>