<svg id="Layer_1" data-name="Layer 1" xmlns="http://www.w3.org/2000/svg" viewBox="0 0 122.3 122.3"><title>l6_1_1</title><rect x="43.11" y="5.06" width="34.54" height="34.54"/><rect x="82.33" y="44.28" width="34.54" height="34.54"/><path d="M25.52,5.06h12.9a0,0,0,0,1,0,0V39.6a0,0,0,0,1,0,0H3.88a0,0,0,0,1,0,0V26.7A21.64,21.64,0,0,1,25.52,5.06Z"/><path d="M82.33,5.06h34.54a0,0,0,0,1,0,0V39.6a0,0,0,0,1,0,0H104A21.64,21.64,0,0,1,82.33,18V5.06A0,0,0,0,1,82.33,5.06Z" transform="translate(199.21 44.65) rotate(-180)"/><path d="M104,82.57h12.9a0,0,0,0,1,0,0v34.54a0,0,0,0,1,0,0H82.33a0,0,0,0,1,0,0v-12.9A21.64,21.64,0,0,1,104,82.57Z" transform="translate(199.21 199.69) rotate(-180)"/><path d="M77.65,44.28v73h-56A17.63,17.63,0,0,1,3.88,99.72V44.28H77.65ZM27,89.65a7,7,0,0,0,6-2.79q2.07-2.79,2.07-8.07t-2.09-8A7,7,0,0,0,27,68a7,7,0,0,0-6,2.79Q19,73.54,19,78.79T21,86.86A7,7,0,0,0,27,89.65Zm0-4.17A2.15,2.15,0,0,1,25,83.92a14.94,14.94,0,0,1-.63-5.13A14.76,14.76,0,0,1,25,73.68a2.16,2.16,0,0,1,4.14,0,14.81,14.81,0,0,1,.63,5.1,14.94,14.94,0,0,1-.63,5.13A2.15,2.15,0,0,1,27,85.48Zm13.08,4.08a2.75,2.75,0,0,0,2-.84,3,3,0,0,0,0-4.14,2.75,2.75,0,0,0-2-.84,2.91,2.91,0,1,0,0,5.82ZM59.55,85H57.09V70.78a2.61,2.61,0,0,0-.74-2,2.63,2.63,0,0,0-1.93-.72,5.07,5.07,0,0,0-2.49.75l-4.8,2.79a2,2,0,0,0-1.05,1.86,2.54,2.54,0,0,0,.6,1.64,1.8,1.8,0,0,0,1.44.73,2,2,0,0,0,1.05-.3l2.4-1.41V85H49.14a3,3,0,0,0-2,.54,2,2,0,0,0-.63,1.62q0,2.22,2.61,2.22H59.55q2.61,0,2.61-2.22a2,2,0,0,0-.63-1.62A3,3,0,0,0,59.55,85Z"/></svg>