<svg id="Layer_1" data-name="Layer 1" xmlns="http://www.w3.org/2000/svg" viewBox="0 0 122.3 122.3"><title>l6_1_1</title><rect x="43.31" y="5.06" width="34.54" height="34.54"/><rect x="82.53" y="44.28" width="34.54" height="34.54"/><path d="M25.72,5.06h12.9a0,0,0,0,1,0,0V39.6a0,0,0,0,1,0,0H4.08a0,0,0,0,1,0,0V26.7A21.64,21.64,0,0,1,25.72,5.06Z"/><path d="M82.53,5.06h34.54a0,0,0,0,1,0,0V39.6a0,0,0,0,1,0,0h-12.9A21.64,21.64,0,0,1,82.53,18V5.06A0,0,0,0,1,82.53,5.06Z" transform="translate(199.61 44.65) rotate(-180)"/><path d="M104.17,82.57h12.9a0,0,0,0,1,0,0v34.54a0,0,0,0,1,0,0H82.53a0,0,0,0,1,0,0v-12.9A21.64,21.64,0,0,1,104.17,82.57Z" transform="translate(199.61 199.69) rotate(-180)"/><path d="M77.85,44.28v73h-56A17.63,17.63,0,0,1,4.08,99.72V44.28H77.85ZM19.23,90.65a7,7,0,0,0,6-2.79q2.07-2.79,2.07-8.07t-2.09-8a7,7,0,0,0-6-2.79,7,7,0,0,0-6,2.79q-2.07,2.79-2.07,8t2.07,8.07A7,7,0,0,0,19.23,90.65Zm0-4.17a2.15,2.15,0,0,1-2.07-1.56,14.94,14.94,0,0,1-.63-5.13,14.83,14.83,0,0,1,.63-5.12,2.16,2.16,0,0,1,4.14,0,14.81,14.81,0,0,1,.63,5.1,14.94,14.94,0,0,1-.63,5.13A2.15,2.15,0,0,1,19.23,86.48Zm13.08,4.08a2.75,2.75,0,0,0,2-.84,3,3,0,0,0,0-4.14,2.75,2.75,0,0,0-2-.84,2.91,2.91,0,1,0,0,5.82Zm14.55-14a7.5,7.5,0,0,0-3,.54V73.4h6.48Q53,73.4,53,71.3t-2.61-2.07h-9.3a2.56,2.56,0,0,0-1.89.66,2.6,2.6,0,0,0-.66,1.92v8.13a1.67,1.67,0,0,0,.57,1.31,2.12,2.12,0,0,0,1.41.49,2.87,2.87,0,0,0,1.35-.33,10.59,10.59,0,0,1,1.72-.54,8.25,8.25,0,0,1,1.64-.15,3.39,3.39,0,0,1,2.34.75,2.67,2.67,0,0,1,.84,2.1,2.59,2.59,0,0,1-.81,2.11,3.84,3.84,0,0,1-2.49.68,5,5,0,0,1-1.67-.27,16.67,16.67,0,0,1-1.69-.72l-.6-.3a9.13,9.13,0,0,0-.9-.45,2,2,0,0,0-.75-.12,1.54,1.54,0,0,0-1.26.64,2.49,2.49,0,0,0-.51,1.58,2.18,2.18,0,0,0,.22,1,2.69,2.69,0,0,0,.71.83,9.88,9.88,0,0,0,3.07,1.5,12.55,12.55,0,0,0,3.65.54,9.74,9.74,0,0,0,4.29-.9,6.75,6.75,0,0,0,2.88-2.55,7.1,7.1,0,0,0,1-3.81,7.24,7.24,0,0,0-.86-3.56,6.08,6.08,0,0,0-2.37-2.4A6.91,6.91,0,0,0,46.86,76.55Zm18.33-.09a5.79,5.79,0,0,0-2.54.55,4.84,4.84,0,0,0-1.84,1.52,8,8,0,0,1,1.12-3.92,2.87,2.87,0,0,1,2.48-1.39,4,4,0,0,1,1.38.24q.66.24,1.65.72l.66.33c.38.2.68.34.9.43a2,2,0,0,0,.75.14A1.56,1.56,0,0,0,71,74.43a2.4,2.4,0,0,0,.53-1.57,2.2,2.2,0,0,0-.23-1,2.58,2.58,0,0,0-.73-.81,9.59,9.59,0,0,0-3-1.5A11.61,11.61,0,0,0,64.14,69a8.14,8.14,0,0,0-4.67,1.35,8.78,8.78,0,0,0-3.09,3.85A14.57,14.57,0,0,0,55.29,80q0,5.1,2.31,7.86a8.05,8.05,0,0,0,6.54,2.76A7.73,7.73,0,0,0,68,89.72a6.68,6.68,0,0,0,2.62-2.6,7.48,7.48,0,0,0,1-3.76,7.57,7.57,0,0,0-.83-3.56,6,6,0,0,0-5.5-3.34Zm-1.38,10a2.37,2.37,0,0,1-1.86-.8,2.91,2.91,0,0,1-.72-2.05,3,3,0,0,1,.7-2.07,2.42,2.42,0,0,1,1.88-.78,2.36,2.36,0,0,1,1.87.76,3.07,3.07,0,0,1,.68,2.09,3,3,0,0,1-.69,2.07A2.36,2.36,0,0,1,63.81,86.42Z"/></svg>