<svg id="Layer_1" data-name="Layer 1" xmlns="http://www.w3.org/2000/svg" viewBox="0 0 122.3 122.3"><title>l6_1_1</title><rect x="43.88" y="6.46" width="34.54" height="34.54"/><rect x="83.11" y="45.68" width="34.54" height="34.54"/><path d="M26.29,6.46H39.2a0,0,0,0,1,0,0V41a0,0,0,0,1,0,0H4.65a0,0,0,0,1,0,0V28.1A21.64,21.64,0,0,1,26.29,6.46Z"/><path d="M83.11,6.46h34.54a0,0,0,0,1,0,0V41a0,0,0,0,1,0,0h-12.9A21.64,21.64,0,0,1,83.11,19.36V6.46A0,0,0,0,1,83.11,6.46Z" transform="translate(200.75 47.46) rotate(-180)"/><path d="M104.75,84h12.9a0,0,0,0,1,0,0v34.54a0,0,0,0,1,0,0H83.11a0,0,0,0,1,0,0v-12.9A21.64,21.64,0,0,1,104.75,84Z" transform="translate(200.75 202.49) rotate(-180)"/><path d="M78.42,45.68v73h-56A17.63,17.63,0,0,1,4.65,101.12V45.68H78.42Zm-33,18.75a5.39,5.39,0,0,0,2.63-2,5.49,5.49,0,0,0,.95-3.2,5.83,5.83,0,0,0-1-3.38,6.53,6.53,0,0,0-2.89-2.25,11,11,0,0,0-4.33-.8,13.18,13.18,0,0,0-3.92.6,10.94,10.94,0,0,0-3.37,1.66,2.48,2.48,0,0,0-.79.89,2.52,2.52,0,0,0-.24,1.16A2.68,2.68,0,0,0,33,58.84a1.7,1.7,0,0,0,1.39.72,2.19,2.19,0,0,0,.83-.15q.36-.15,1-.48l.7-.34a17.26,17.26,0,0,1,1.81-.79,5,5,0,0,1,1.74-.3,2.87,2.87,0,0,1,2,.68,2.5,2.5,0,0,1,.73,1.91,1.87,1.87,0,0,1-.83,1.69,5.11,5.11,0,0,1-2.65.53H38.3a1.92,1.92,0,0,0-1.56.69,2.74,2.74,0,0,0,0,3.32,1.92,1.92,0,0,0,1.56.7h2.05a5,5,0,0,1,2.72.56,2.08,2.08,0,0,1,.83,1.86,2.29,2.29,0,0,1-.81,2,4.58,4.58,0,0,1-2.67.6,6,6,0,0,1-1.91-.28,15.35,15.35,0,0,1-1.9-.81l-.42-.18-.31-.15a9.22,9.22,0,0,0-1-.48,2.14,2.14,0,0,0-.82-.15,1.71,1.71,0,0,0-1.4.71,2.73,2.73,0,0,0-.56,1.74,2.66,2.66,0,0,0,.23,1.14,2.48,2.48,0,0,0,.8.91,10.72,10.72,0,0,0,3.44,1.68,14.65,14.65,0,0,0,4.15.58,12.48,12.48,0,0,0,4.69-.81,6.92,6.92,0,0,0,3.1-2.31A5.75,5.75,0,0,0,49.6,70.1a5.9,5.9,0,0,0-1.11-3.62A5.68,5.68,0,0,0,45.43,64.43ZM23.91,79.6c-.85,0-1.51,1.22-1.49,2.59s.68,2.39,1.48,2.4l34.26,0c.81,0,1.49-1.11,1.49-2.48s-.67-2.53-1.49-2.51Zm24.51,24h-.73v-12a2.83,2.83,0,0,0-.9-2.23,3.1,3.1,0,0,0-2.15-.79,3.38,3.38,0,0,0-1.48.35A3.07,3.07,0,0,0,42,90l-9.48,13.52a3.71,3.71,0,0,0-.73,2.19,2.57,2.57,0,0,0,.69,1.83,2.52,2.52,0,0,0,1.89.72h7.4v1.13a2.73,2.73,0,0,0,3,3,3,3,0,0,0,2.15-.76,2.93,2.93,0,0,0,.83-2.26v-1.13h.73c1.92,0,2.88-.78,2.88-2.35S50.34,103.61,48.42,103.61Zm-10.64,0,4-5.73v5.73Z"/></svg>