<svg id="Layer_1" data-name="Layer 1" xmlns="http://www.w3.org/2000/svg" viewBox="0 0 122.3 122.3"><title>l6_2_1</title><path d="M122.37,36.19V86.1a11.31,11.31,0,0,1-11.31,11.32H11.39A11.32,11.32,0,0,1,.07,86.1V36.19A11.32,11.32,0,0,1,11.39,24.87h99.67A11.31,11.31,0,0,1,122.37,36.19ZM22.61,79.94q6.81,0,10.4-4.84t3.59-14Q36.6,52,33,47.18T22.61,42.34q-6.81,0-10.4,4.84T8.62,61.11q0,9.17,3.59,14T22.61,79.94Zm0-7.23A3.73,3.73,0,0,1,19,70c-.72-1.81-1.09-4.77-1.09-8.9S18.3,54,19,52.25a3.74,3.74,0,0,1,7.18,0c.73,1.81,1.09,4.75,1.09,8.84S26.93,68.2,26.2,70A3.72,3.72,0,0,1,22.61,72.71Zm22.67,7.07a4.82,4.82,0,0,0,3.57-1.45,5.22,5.22,0,0,0,0-7.18,5.14,5.14,0,0,0-7.18,0,5.22,5.22,0,0,0,0,7.18A4.85,4.85,0,0,0,45.28,79.78ZM70.5,55.5a13.12,13.12,0,0,0-5.15.93V50H76.59c3,0,4.52-1.22,4.52-3.64s-1.51-3.59-4.52-3.59H60.47A4.43,4.43,0,0,0,57.19,44a4.54,4.54,0,0,0-1.14,3.33V61.37a2.87,2.87,0,0,0,1,2.27,3.58,3.58,0,0,0,2.44.85,5,5,0,0,0,2.34-.57,17.93,17.93,0,0,1,3-.93,13.7,13.7,0,0,1,2.83-.26A5.86,5.86,0,0,1,71.7,64a4.62,4.62,0,0,1,1.45,3.64,4.48,4.48,0,0,1-1.4,3.66,6.64,6.64,0,0,1-4.31,1.17A8.39,8.39,0,0,1,64.55,72a28.28,28.28,0,0,1-2.94-1.24l-1-.52A12.2,12.2,0,0,0,59,69.49a3.5,3.5,0,0,0-1.3-.21,2.67,2.67,0,0,0-2.18,1.12,4.24,4.24,0,0,0-.89,2.73A3.84,3.84,0,0,0,55,74.92a4.68,4.68,0,0,0,1.22,1.43A17.2,17.2,0,0,0,61.58,79a21.89,21.89,0,0,0,6.32.94,16.89,16.89,0,0,0,7.44-1.56,11.75,11.75,0,0,0,5-4.42A12.31,12.31,0,0,0,82.1,67.3a12.61,12.61,0,0,0-1.48-6.16A10.54,10.54,0,0,0,76.51,57,12,12,0,0,0,70.5,55.5Zm31.77-.16a10,10,0,0,0-4.39,1,8.39,8.39,0,0,0-3.2,2.63,13.92,13.92,0,0,1,1.95-6.79,5,5,0,0,1,4.29-2.41,6.86,6.86,0,0,1,2.39.41c.77.28,1.72.7,2.86,1.25l1.15.57c.66.35,1.18.6,1.56.76a3.51,3.51,0,0,0,1.3.23,2.76,2.76,0,0,0,2.21-1.12,4.2,4.2,0,0,0,.91-2.73,3.83,3.83,0,0,0-.39-1.82,4.57,4.57,0,0,0-1.28-1.4,16.37,16.37,0,0,0-5.22-2.6,20,20,0,0,0-6-.94,14.06,14.06,0,0,0-8.08,2.34A15.17,15.17,0,0,0,87,51.36a25.35,25.35,0,0,0-1.9,10.17q0,8.84,4,13.62t11.33,4.79a13.45,13.45,0,0,0,6.61-1.61,11.65,11.65,0,0,0,4.55-4.5,13.9,13.9,0,0,0,.21-12.69,10.79,10.79,0,0,0-3.93-4.26A10.45,10.45,0,0,0,102.27,55.34ZM99.88,72.61a4.13,4.13,0,0,1-3.22-1.38,5.12,5.12,0,0,1-1.25-3.56,5.17,5.17,0,0,1,1.22-3.59,4.18,4.18,0,0,1,3.25-1.35,4.11,4.11,0,0,1,3.25,1.32,5.29,5.29,0,0,1,1.17,3.62,5.23,5.23,0,0,1-1.19,3.58A4.08,4.08,0,0,1,99.88,72.61Z"/></svg>