<svg id="Layer_1" data-name="Layer 1" xmlns="http://www.w3.org/2000/svg" viewBox="0 0 122.3 122.3"><title>l6_2_1</title><path d="M122.3,36.6V86.51A11.31,11.31,0,0,1,111,97.83H11.32A11.32,11.32,0,0,1,0,86.51V36.6A11.32,11.32,0,0,1,11.32,25.28H111A11.31,11.31,0,0,1,122.3,36.6ZM22.54,80.35q6.81,0,10.4-4.84t3.59-14q0-9.1-3.62-13.93T22.54,42.75q-6.81,0-10.4,4.84T8.55,61.52q0,9.15,3.59,14T22.54,80.35Zm0-7.23A3.73,3.73,0,0,1,19,70.41q-1.1-2.7-1.09-8.89c0-4.12.36-7.08,1.09-8.86a3.74,3.74,0,0,1,7.18,0q1.1,2.7,1.09,8.84t-1.09,8.89A3.73,3.73,0,0,1,22.54,73.12Zm22.67,7.07a4.79,4.79,0,0,0,3.56-1.46,5.21,5.21,0,0,0,0-7.17,4.79,4.79,0,0,0-3.56-1.46,5,5,0,1,0,0,10.09ZM74.49,61a8.47,8.47,0,0,0,4.13-3.14,8.65,8.65,0,0,0,1.48-5,9.16,9.16,0,0,0-1.58-5.31A10.21,10.21,0,0,0,74,44a17.26,17.26,0,0,0-6.78-1.25,20.6,20.6,0,0,0-6.16.94,17.13,17.13,0,0,0-5.28,2.6,3.54,3.54,0,0,0-1.61,3.22A4.28,4.28,0,0,0,55,52.24a2.71,2.71,0,0,0,2.18,1.12,3.31,3.31,0,0,0,1.3-.24,16.59,16.59,0,0,0,1.56-.75l1.1-.52A27.58,27.58,0,0,1,64,50.6a7.91,7.91,0,0,1,2.73-.47,4.47,4.47,0,0,1,3.17,1.07,3.9,3.9,0,0,1,1.15,3,2.92,2.92,0,0,1-1.3,2.65,7.94,7.94,0,0,1-4.16.83H63.31a3,3,0,0,0-2.45,1.09A4,4,0,0,0,60,61.37,4,4,0,0,0,60.86,64a3,3,0,0,0,2.45,1.1h3.22a7.84,7.84,0,0,1,4.27.88,3.28,3.28,0,0,1,1.3,2.91A3.61,3.61,0,0,1,70.82,72a7.15,7.15,0,0,1-4.18.94,9.54,9.54,0,0,1-3-.44,22.47,22.47,0,0,1-3-1.28L60,70.91l-.5-.24q-1-.51-1.56-.75a3.31,3.31,0,0,0-1.3-.23,2.68,2.68,0,0,0-2.18,1.11,4.28,4.28,0,0,0-.89,2.73,4,4,0,0,0,.37,1.8,4.09,4.09,0,0,0,1.25,1.43,16.56,16.56,0,0,0,5.4,2.62,23,23,0,0,0,6.5.91A19.52,19.52,0,0,0,74.46,79a11,11,0,0,0,4.86-3.61A9,9,0,0,0,81,69.89a9.25,9.25,0,0,0-1.74-5.67A8.91,8.91,0,0,0,74.49,61Zm35.77,5.41h-1.14V47.64a4.45,4.45,0,0,0-1.4-3.49,4.93,4.93,0,0,0-3.38-1.24,5.29,5.29,0,0,0-2.32.54A4.78,4.78,0,0,0,100.18,45L85.3,66.25a5.86,5.86,0,0,0-1.14,3.44,4,4,0,0,0,1.09,2.86,3.92,3.92,0,0,0,3,1.14H99.81v1.77A4.6,4.6,0,0,0,101.09,79a4.66,4.66,0,0,0,3.35,1.2,4.79,4.79,0,0,0,3.38-1.2,4.53,4.53,0,0,0,1.3-3.53V73.69h1.14q4.53,0,4.53-3.69T110.26,66.41Zm-16.69,0,6.24-9v9Z"/></svg>