<svg id="Layer_1" data-name="Layer 1" xmlns="http://www.w3.org/2000/svg" viewBox="0 0 122.3 122.3"><title>l6_2_1</title><path d="M122.37,36.19V86.1a11.31,11.31,0,0,1-11.31,11.32H11.39A11.32,11.32,0,0,1,.07,86.1V36.19A11.32,11.32,0,0,1,11.39,24.87h99.67A11.31,11.31,0,0,1,122.37,36.19ZM22.59,79.94q6.81,0,10.4-4.84t3.58-14Q36.57,52,33,47.18T22.59,42.34q-6.83,0-10.4,4.84T8.6,61.11q0,9.17,3.59,14T22.59,79.94Zm0-7.23A3.72,3.72,0,0,1,19,70c-.73-1.81-1.09-4.77-1.09-8.9S18.27,54,19,52.25a3.73,3.73,0,0,1,7.17,0c.73,1.81,1.1,4.75,1.1,8.84s-.37,7.09-1.1,8.9A3.71,3.71,0,0,1,22.59,72.71Zm22.67,7.07a4.78,4.78,0,0,0,3.56-1.45,5.22,5.22,0,0,0,0-7.18,4.79,4.79,0,0,0-3.56-1.46,4.88,4.88,0,0,0-3.62,1.46,5.22,5.22,0,0,0,0,7.18A4.87,4.87,0,0,0,45.26,79.78Zm32.34-7.9H67.15l7.38-7.54a24,24,0,0,0,4.34-5.85,13.12,13.12,0,0,0,1.28-5.8,9.47,9.47,0,0,0-1.59-5.43,10.08,10.08,0,0,0-4.49-3.64,16.77,16.77,0,0,0-6.76-1.28,21.24,21.24,0,0,0-11.5,3.54,3.35,3.35,0,0,0-1.27,1.35,4.4,4.4,0,0,0-.34,1.87,4.46,4.46,0,0,0,.88,2.78,2.66,2.66,0,0,0,2.19,1.17,3.3,3.3,0,0,0,1-.15,6.49,6.49,0,0,0,1.06-.5l.81-.44,1-.52a25.08,25.08,0,0,1,2.94-1.27,8.27,8.27,0,0,1,2.78-.44,4.13,4.13,0,0,1,2.89.93,3.54,3.54,0,0,1,1,2.71q0,3-3.43,6.6l-11,11.49a5.7,5.7,0,0,0-1.76,4.06,3.87,3.87,0,0,0,1.09,2.83,3.93,3.93,0,0,0,3,1.12h19A5.2,5.2,0,0,0,81,78.53a3.59,3.59,0,0,0,1.11-2.91A3.44,3.44,0,0,0,81,72.79,5.32,5.32,0,0,0,77.6,71.88Zm28.18-11.29a8.38,8.38,0,0,0,4.14-3.14,8.63,8.63,0,0,0,1.48-5,9.11,9.11,0,0,0-1.58-5.3,10.16,10.16,0,0,0-4.53-3.54,17.28,17.28,0,0,0-6.79-1.25,20.7,20.7,0,0,0-6.16.94,17.19,17.19,0,0,0-5.27,2.6,4.2,4.2,0,0,0-1.25,1.4,4,4,0,0,0-.37,1.82,4.24,4.24,0,0,0,.89,2.73A2.67,2.67,0,0,0,88.52,53a3.51,3.51,0,0,0,1.3-.23c.38-.16.9-.41,1.56-.76l1.09-.52a30,30,0,0,1,2.84-1.25A7.9,7.9,0,0,1,98,49.73a4.47,4.47,0,0,1,3.17,1.06,3.9,3.9,0,0,1,1.14,3,2.89,2.89,0,0,1-1.3,2.65,7.87,7.87,0,0,1-4.16.84H94.61a3,3,0,0,0-2.45,1.09,4.28,4.28,0,0,0,0,5.2,3,3,0,0,0,2.45,1.09h3.22a7.78,7.78,0,0,1,4.26.88,3.26,3.26,0,0,1,1.3,2.92,3.63,3.63,0,0,1-1.27,3.12,7.27,7.27,0,0,1-4.19.93,9.59,9.59,0,0,1-3-.44,23.45,23.45,0,0,1-3-1.27l-.65-.29-.49-.23c-.66-.35-1.18-.6-1.56-.76a3.54,3.54,0,0,0-1.3-.23,2.65,2.65,0,0,0-2.18,1.12,4.24,4.24,0,0,0-.89,2.73,4.11,4.11,0,0,0,.36,1.79,4.19,4.19,0,0,0,1.25,1.43A16.94,16.94,0,0,0,91.9,79a23.36,23.36,0,0,0,6.5.91,19.52,19.52,0,0,0,7.36-1.28A10.89,10.89,0,0,0,110.62,75a9,9,0,0,0,1.72-5.51,9.23,9.23,0,0,0-1.74-5.67A8.9,8.9,0,0,0,105.78,60.59Z"/></svg>