<svg id="Layer_1" data-name="Layer 1" xmlns="http://www.w3.org/2000/svg" viewBox="0 0 122.3 122.3"><title>l6_2_1</title><rect x="16.87" y="56.11" width="89.48" height="10.02" rx="5.01"/><path d="M58.81,11.57V39.48A11.32,11.32,0,0,1,47.49,50.8h-19A11.32,11.32,0,0,1,17.21,39.48V11.57A11.32,11.32,0,0,1,28.53.25h19A11.32,11.32,0,0,1,58.81,11.57ZM38,41.36a9.81,9.81,0,0,0,8.38-3.89q2.89-3.9,2.89-11.27T46.37,15A9.8,9.8,0,0,0,38,11.09,9.78,9.78,0,0,0,29.64,15q-2.89,3.9-2.89,11.22t2.89,11.27A9.8,9.8,0,0,0,38,41.36Zm0-5.82a3,3,0,0,1-2.89-2.18,21.05,21.05,0,0,1-.87-7.16,20.88,20.88,0,0,1,.87-7.14,3,3,0,0,1,5.78,0,20.64,20.64,0,0,1,.88,7.12,20.75,20.75,0,0,1-.88,7.16A3,3,0,0,1,38,35.54Z"/><path d="M106,11.57V39.48A11.31,11.31,0,0,1,94.7,50.8h-19A11.31,11.31,0,0,1,64.42,39.48V11.57A11.31,11.31,0,0,1,75.73.25h19A11.31,11.31,0,0,1,106,11.57ZM87.55,21.68a10.48,10.48,0,0,0-4.14.75V17.28h9c2.43,0,3.64-1,3.64-2.93s-1.21-2.89-3.64-2.89h-13a3.58,3.58,0,0,0-2.64.92,3.66,3.66,0,0,0-.92,2.68V26.41a2.28,2.28,0,0,0,.79,1.82,2.92,2.92,0,0,0,2,.69,4,4,0,0,0,1.89-.46A14.9,14.9,0,0,1,83,27.71a11.34,11.34,0,0,1,2.28-.21,4.71,4.71,0,0,1,3.26,1.05,3.73,3.73,0,0,1,1.18,2.93,3.64,3.64,0,0,1-1.13,2.95,5.38,5.38,0,0,1-3.48.94A6.93,6.93,0,0,1,82.76,35a25,25,0,0,1-2.37-1l-.84-.42c-.56-.3-1-.51-1.25-.63a2.9,2.9,0,0,0-1-.16,2.17,2.17,0,0,0-1.76.9,3.45,3.45,0,0,0-.71,2.2,3.09,3.09,0,0,0,.31,1.44,3.61,3.61,0,0,0,1,1.15,13.85,13.85,0,0,0,4.29,2.1,17.57,17.57,0,0,0,5.09.75,13.6,13.6,0,0,0,6-1.26,9.28,9.28,0,0,0,4-3.56,9.86,9.86,0,0,0,1.43-5.31,10.18,10.18,0,0,0-1.19-5,8.6,8.6,0,0,0-3.31-3.35A9.75,9.75,0,0,0,87.55,21.68Z"/><path d="M58.81,82.75v27.92A11.32,11.32,0,0,1,47.49,122h-19a11.32,11.32,0,0,1-11.32-11.32V82.75A11.31,11.31,0,0,1,28.53,71.44h19A11.31,11.31,0,0,1,58.81,82.75ZM46.75,104.32H43.32V84.47a3.51,3.51,0,0,0-3.73-3.73,7.08,7.08,0,0,0-3.48,1.05l-6.7,3.89A2.87,2.87,0,0,0,28,88.28a3.5,3.5,0,0,0,.84,2.28,2.48,2.48,0,0,0,2,1,2.82,2.82,0,0,0,1.46-.42l3.35-2v15.12H32.22a4.18,4.18,0,0,0-2.76.75,2.8,2.8,0,0,0-.88,2.26q0,3.11,3.64,3.1H46.75q3.64,0,3.64-3.1a2.8,2.8,0,0,0-.88-2.26A4.18,4.18,0,0,0,46.75,104.32Z"/><path d="M106,82.75v27.92A11.31,11.31,0,0,1,94.7,122h-19a11.31,11.31,0,0,1-11.31-11.32V82.75A11.31,11.31,0,0,1,75.73,71.44h19A11.31,11.31,0,0,1,106,82.75Zm-18.6,8.38a10.57,10.57,0,0,0-4.15.75V86.73h9Q96,86.73,96,83.8t-3.64-2.89h-13a3.58,3.58,0,0,0-2.64.92,3.62,3.62,0,0,0-.92,2.68V95.86a2.29,2.29,0,0,0,.79,1.82,2.9,2.9,0,0,0,2,.69,4,4,0,0,0,1.89-.46,15.14,15.14,0,0,1,2.4-.75A11.52,11.52,0,0,1,85.11,97a4.71,4.71,0,0,1,3.26,1,3.72,3.72,0,0,1,1.18,2.93,3.61,3.61,0,0,1-1.14,2.95,5.33,5.33,0,0,1-3.47.94,6.78,6.78,0,0,1-2.33-.38,22.28,22.28,0,0,1-2.36-1l-.84-.42a13.12,13.12,0,0,0-1.25-.63,2.88,2.88,0,0,0-1-.17,2.18,2.18,0,0,0-1.76.9,3.44,3.44,0,0,0-.71,2.2,3.13,3.13,0,0,0,.31,1.45,3.72,3.72,0,0,0,1,1.15A13.83,13.83,0,0,0,80.23,110a17.2,17.2,0,0,0,5.09.76,13.52,13.52,0,0,0,6-1.26,9.42,9.42,0,0,0,4-3.56,9.89,9.89,0,0,0,1.43-5.32,10,10,0,0,0-1.2-5,8.44,8.44,0,0,0-3.3-3.35A9.75,9.75,0,0,0,87.41,91.13Z"/></svg>