<svg id="Layer_1" data-name="Layer 1" xmlns="http://www.w3.org/2000/svg" viewBox="0 0 122.3 122.3"><title>l6_2_1</title><rect x="16.41" y="56.11" width="89.48" height="10.02" rx="5.01"/><path d="M58.35,11.57V39.48A11.32,11.32,0,0,1,47,50.8h-19A11.32,11.32,0,0,1,16.75,39.48V11.57A11.32,11.32,0,0,1,28.07.25H47A11.32,11.32,0,0,1,58.35,11.57ZM46.43,34.87H43V15a3.65,3.65,0,0,0-1-2.72,3.71,3.71,0,0,0-2.7-1,7.06,7.06,0,0,0-3.48,1l-6.7,3.9a2.82,2.82,0,0,0-1.46,2.59,3.54,3.54,0,0,0,.83,2.28,2.51,2.51,0,0,0,2,1,2.86,2.86,0,0,0,1.47-.42l3.35-2V34.87H31.9a4.23,4.23,0,0,0-2.77.75,2.85,2.85,0,0,0-.87,2.27Q28.26,41,31.9,41H46.43q3.65,0,3.64-3.09a2.83,2.83,0,0,0-.88-2.27A4.19,4.19,0,0,0,46.43,34.87Z"/><path d="M105.55,11.57V39.48A11.32,11.32,0,0,1,94.23,50.8h-19A11.32,11.32,0,0,1,64,39.48V11.57A11.32,11.32,0,0,1,75.27.25h19A11.32,11.32,0,0,1,105.55,11.57ZM87.09,21.68a10.53,10.53,0,0,0-4.15.75V17.28h9c2.43,0,3.64-1,3.64-2.93S94.42,11.46,92,11.46H79a3.58,3.58,0,0,0-2.64.92,3.62,3.62,0,0,0-.92,2.68V26.41a2.28,2.28,0,0,0,.79,1.82,2.9,2.9,0,0,0,2,.69,3.93,3.93,0,0,0,1.88-.46,15.54,15.54,0,0,1,2.41-.75,11.49,11.49,0,0,1,2.28-.21,4.72,4.72,0,0,1,3.27,1.05,3.72,3.72,0,0,1,1.17,2.93,3.61,3.61,0,0,1-1.13,2.95,5.33,5.33,0,0,1-3.47.94A7,7,0,0,1,82.29,35a24.87,24.87,0,0,1-2.36-1l-.84-.42q-.84-.45-1.26-.63a2.84,2.84,0,0,0-1-.16,2.16,2.16,0,0,0-1.76.9,3.4,3.4,0,0,0-.71,2.2,3.09,3.09,0,0,0,.31,1.44,3.7,3.7,0,0,0,1,1.15,13.8,13.8,0,0,0,4.3,2.1,17.5,17.5,0,0,0,5.08.75,13.53,13.53,0,0,0,6-1.26,9.36,9.36,0,0,0,4-3.56,9.86,9.86,0,0,0,1.43-5.31,10.07,10.07,0,0,0-1.2-5,8.53,8.53,0,0,0-3.31-3.35A9.71,9.71,0,0,0,87.09,21.68Z"/><path d="M58.35,82.75v27.92A11.32,11.32,0,0,1,47,122h-19a11.32,11.32,0,0,1-11.32-11.32V82.75A11.31,11.31,0,0,1,28.07,71.44H47A11.31,11.31,0,0,1,58.35,82.75ZM45.18,104.32H36.76l6-6.07a19.61,19.61,0,0,0,3.49-4.71,10.49,10.49,0,0,0,1-4.67A7.69,7.69,0,0,0,46,84.49a8.15,8.15,0,0,0-3.62-2.93,13.54,13.54,0,0,0-5.44-1,16.17,16.17,0,0,0-4.84.76,16.37,16.37,0,0,0-4.42,2.09,2.8,2.8,0,0,0-1,1.09A3.45,3.45,0,0,0,26.33,86a3.6,3.6,0,0,0,.72,2.24,2.12,2.12,0,0,0,1.75.94,2.36,2.36,0,0,0,.8-.13,4.76,4.76,0,0,0,.86-.39l.65-.36.84-.42a20,20,0,0,1,2.36-1,6.75,6.75,0,0,1,2.24-.36,3.33,3.33,0,0,1,2.33.75,2.84,2.84,0,0,1,.81,2.18q0,2.43-2.76,5.32L28.05,104a4.59,4.59,0,0,0-1.42,3.27,3.11,3.11,0,0,0,.88,2.28,3.17,3.17,0,0,0,2.38.9H45.18a4.21,4.21,0,0,0,2.74-.75,2.9,2.9,0,0,0,.9-2.35,2.77,2.77,0,0,0-.9-2.28A4.27,4.27,0,0,0,45.18,104.32Z"/><path d="M105.55,82.75v27.92A11.32,11.32,0,0,1,94.23,122h-19A11.32,11.32,0,0,1,64,110.67V82.75A11.31,11.31,0,0,1,75.27,71.44h19A11.31,11.31,0,0,1,105.55,82.75ZM87,91.13a10.53,10.53,0,0,0-4.15.75V86.73h9c2.42,0,3.64-1,3.64-2.93s-1.22-2.89-3.64-2.89h-13a3.57,3.57,0,0,0-2.63.92,3.62,3.62,0,0,0-.92,2.68V95.86a2.29,2.29,0,0,0,.79,1.82,2.9,2.9,0,0,0,2,.69A3.93,3.93,0,0,0,80,97.91a15.21,15.21,0,0,1,2.41-.75A11.49,11.49,0,0,1,84.64,97a4.72,4.72,0,0,1,3.27,1,3.71,3.71,0,0,1,1.17,2.93A3.61,3.61,0,0,1,88,103.88a5.33,5.33,0,0,1-3.47.94,6.74,6.74,0,0,1-2.33-.38,22.28,22.28,0,0,1-2.36-1L79,103a11.93,11.93,0,0,0-1.26-.63,2.86,2.86,0,0,0-1-.17,2.18,2.18,0,0,0-1.76.9,3.44,3.44,0,0,0-.72,2.2,3.13,3.13,0,0,0,.32,1.45,3.81,3.81,0,0,0,1,1.15A13.83,13.83,0,0,0,79.76,110a17.3,17.3,0,0,0,5.09.76,13.56,13.56,0,0,0,6-1.26,9.42,9.42,0,0,0,4-3.56,9.89,9.89,0,0,0,1.42-5.32,10,10,0,0,0-1.19-5,8.47,8.47,0,0,0-3.31-3.35A9.71,9.71,0,0,0,87,91.13Z"/></svg>