<svg id="Layer_1" data-name="Layer 1" xmlns="http://www.w3.org/2000/svg" viewBox="0 0 122.3 122.3"><title>l6_2_1</title><path d="M122.3,36.19V86.1A11.31,11.31,0,0,1,111,97.42H11.32A11.32,11.32,0,0,1,0,86.1V36.19A11.32,11.32,0,0,1,11.32,24.87H111A11.31,11.31,0,0,1,122.3,36.19ZM22.51,79.94q6.82,0,10.4-4.84t3.59-14q0-9.09-3.61-13.93T22.51,42.34q-6.81,0-10.4,4.84T8.53,61.11q0,9.17,3.58,14T22.51,79.94Zm0-7.23A3.72,3.72,0,0,1,18.93,70c-.73-1.81-1.1-4.77-1.1-8.9s.37-7.08,1.1-8.86a3.73,3.73,0,0,1,7.17,0c.73,1.81,1.09,4.75,1.09,8.84S26.83,68.2,26.1,70A3.72,3.72,0,0,1,22.51,72.71Zm22.68,7.07a4.8,4.8,0,0,0,3.56-1.45,5.22,5.22,0,0,0,0-7.18,4.8,4.8,0,0,0-3.56-1.46,4.88,4.88,0,0,0-3.62,1.46,5.22,5.22,0,0,0,0,7.18A4.87,4.87,0,0,0,45.19,79.78Zm33.69-7.9H74.62V47.23a4.51,4.51,0,0,0-1.28-3.38A4.58,4.58,0,0,0,70,42.6a8.89,8.89,0,0,0-4.32,1.3l-8.32,4.84A3.54,3.54,0,0,0,55.53,52a4.41,4.41,0,0,0,1,2.84,3.14,3.14,0,0,0,2.5,1.27,3.53,3.53,0,0,0,1.82-.52l4.16-2.44V71.88H60.84a5.21,5.21,0,0,0-3.43.93,3.5,3.5,0,0,0-1.1,2.81q0,3.85,4.53,3.85h18q4.53,0,4.53-3.85a3.5,3.5,0,0,0-1.1-2.81A5.21,5.21,0,0,0,78.88,71.88Zm29.85,0H98.28l7.38-7.54A24.24,24.24,0,0,0,110,58.49a13.12,13.12,0,0,0,1.28-5.8,9.47,9.47,0,0,0-1.59-5.43,10.16,10.16,0,0,0-4.5-3.64,16.71,16.71,0,0,0-6.76-1.28,21.24,21.24,0,0,0-11.49,3.54,3.35,3.35,0,0,0-1.27,1.35,4.4,4.4,0,0,0-.34,1.87,4.46,4.46,0,0,0,.88,2.78,2.66,2.66,0,0,0,2.19,1.17,3.3,3.3,0,0,0,1-.15,6.49,6.49,0,0,0,1.06-.5l.81-.44,1-.52a25.08,25.08,0,0,1,2.94-1.27A8.23,8.23,0,0,1,98,49.73a4.09,4.09,0,0,1,2.88.93,3.51,3.51,0,0,1,1,2.71c0,2-1.15,4.21-3.43,6.6l-11,11.49a5.71,5.71,0,0,0-1.77,4.06,3.81,3.81,0,0,0,4.06,4h19a5.22,5.22,0,0,0,3.41-.94,3.59,3.59,0,0,0,1.11-2.91,3.44,3.44,0,0,0-1.11-2.83A5.34,5.34,0,0,0,108.73,71.88Z"/></svg>