<svg id="Layer_1" data-name="Layer 1" xmlns="http://www.w3.org/2000/svg" viewBox="0 0 122.3 122.3"><title>l6_2_1</title><rect x="15.82" y="56.11" width="89.48" height="10.02" rx="5.01"/><path d="M57.76,11.57V39.48A11.32,11.32,0,0,1,46.44,50.8h-19A11.32,11.32,0,0,1,16.16,39.48V11.57A11.32,11.32,0,0,1,27.48.25h19A11.32,11.32,0,0,1,57.76,11.57Zm-13,23.3H36.31l5.95-6.07a19.61,19.61,0,0,0,3.49-4.71,10.49,10.49,0,0,0,1-4.67A7.69,7.69,0,0,0,45.5,15a8.22,8.22,0,0,0-3.62-2.93,13.54,13.54,0,0,0-5.44-1,17.05,17.05,0,0,0-9.26,2.84,2.8,2.8,0,0,0-1,1.09,3.48,3.48,0,0,0-.28,1.51,3.58,3.58,0,0,0,.72,2.24,2.12,2.12,0,0,0,1.75.94,2.63,2.63,0,0,0,.8-.12,5.73,5.73,0,0,0,.86-.4l.65-.36.83-.42a22.8,22.8,0,0,1,2.37-1A6.7,6.7,0,0,1,36.1,17a3.24,3.24,0,0,1,2.32.76A2.78,2.78,0,0,1,39.24,20q0,2.43-2.76,5.32L27.6,34.54a4.55,4.55,0,0,0-1.42,3.26,3.11,3.11,0,0,0,.88,2.28,3.17,3.17,0,0,0,2.38.9H44.73a4.23,4.23,0,0,0,2.74-.75,2.87,2.87,0,0,0,.9-2.34,2.78,2.78,0,0,0-.9-2.29A4.35,4.35,0,0,0,44.73,34.87Z"/><path d="M105,11.57V39.48A11.32,11.32,0,0,1,93.64,50.8h-19A11.32,11.32,0,0,1,63.36,39.48V11.57A11.32,11.32,0,0,1,74.68.25h19A11.32,11.32,0,0,1,105,11.57ZM86.5,21.68a10.5,10.5,0,0,0-4.15.75V17.28H91.4c2.42,0,3.64-1,3.64-2.93s-1.22-2.89-3.64-2.89h-13a3.57,3.57,0,0,0-2.63.92,3.62,3.62,0,0,0-.93,2.68V26.41a2.29,2.29,0,0,0,.8,1.82,2.9,2.9,0,0,0,2,.69,3.93,3.93,0,0,0,1.88-.46,15.21,15.21,0,0,1,2.41-.75,11.42,11.42,0,0,1,2.28-.21,4.72,4.72,0,0,1,3.27,1.05,3.72,3.72,0,0,1,1.17,2.93,3.64,3.64,0,0,1-1.13,2.95,5.33,5.33,0,0,1-3.47.94A7,7,0,0,1,81.7,35a24.87,24.87,0,0,1-2.36-1l-.84-.42q-.84-.45-1.26-.63a2.9,2.9,0,0,0-1-.16,2.15,2.15,0,0,0-1.75.9,3.4,3.4,0,0,0-.72,2.2A3.09,3.09,0,0,0,74,37.32a3.7,3.7,0,0,0,1,1.15,13.85,13.85,0,0,0,4.29,2.1,17.57,17.57,0,0,0,5.09.75,13.56,13.56,0,0,0,6-1.26,9.36,9.36,0,0,0,4-3.56,9.85,9.85,0,0,0,1.42-5.31,10.07,10.07,0,0,0-1.19-5,8.53,8.53,0,0,0-3.31-3.35A9.71,9.71,0,0,0,86.5,21.68Z"/><path d="M57.76,82.75v27.92A11.32,11.32,0,0,1,46.44,122h-19a11.32,11.32,0,0,1-11.32-11.32V82.75A11.31,11.31,0,0,1,27.48,71.44h19A11.31,11.31,0,0,1,57.76,82.75ZM42.14,95.23a6.81,6.81,0,0,0,3.33-2.53,7,7,0,0,0,1.19-4,7.3,7.3,0,0,0-1.28-4.27,8.15,8.15,0,0,0-3.64-2.85,13.9,13.9,0,0,0-5.47-1,16.59,16.59,0,0,0-5,.76,13.94,13.94,0,0,0-4.25,2.09,3.33,3.33,0,0,0-1,1.13,3.21,3.21,0,0,0-.3,1.47,3.42,3.42,0,0,0,.72,2.2,2.15,2.15,0,0,0,1.75.9,2.89,2.89,0,0,0,1.05-.19c.31-.13.73-.33,1.26-.61l.88-.42a20.72,20.72,0,0,1,2.28-1,6.36,6.36,0,0,1,2.2-.38,3.59,3.59,0,0,1,2.55.86,3.1,3.1,0,0,1,.92,2.41,2.35,2.35,0,0,1-1,2.13,6.4,6.4,0,0,1-3.35.67H33.13a2.37,2.37,0,0,0-2,.88,3.41,3.41,0,0,0,0,4.19,2.4,2.4,0,0,0,2,.88h2.6a6.31,6.31,0,0,1,3.43.71,2.62,2.62,0,0,1,1.05,2.34,2.91,2.91,0,0,1-1,2.52,5.81,5.81,0,0,1-3.37.75,7.77,7.77,0,0,1-2.4-.35,18.07,18.07,0,0,1-2.41-1l-.53-.23-.39-.19c-.53-.28-.95-.48-1.26-.61a2.89,2.89,0,0,0-1.05-.19,2.21,2.21,0,0,0-1.76.9,3.49,3.49,0,0,0-.71,2.2,3,3,0,0,0,1.3,2.6A13.31,13.31,0,0,0,31,110a18.52,18.52,0,0,0,5.23.74,15.63,15.63,0,0,0,5.93-1A8.78,8.78,0,0,0,46,106.83a7.31,7.31,0,0,0,1.38-4.44A7.38,7.38,0,0,0,46,97.83,7.17,7.17,0,0,0,42.14,95.23Z"/><path d="M105,82.75v27.92A11.32,11.32,0,0,1,93.64,122h-19a11.32,11.32,0,0,1-11.32-11.32V82.75A11.31,11.31,0,0,1,74.68,71.44h19A11.31,11.31,0,0,1,105,82.75ZM86.35,91.13a10.48,10.48,0,0,0-4.14.75V86.73h9q3.65,0,3.65-2.93t-3.65-2.89h-13a3.57,3.57,0,0,0-2.63.92,3.62,3.62,0,0,0-.93,2.68V95.86a2.3,2.3,0,0,0,.8,1.82,2.9,2.9,0,0,0,2,.69,3.93,3.93,0,0,0,1.88-.46,15.21,15.21,0,0,1,2.41-.75A11.34,11.34,0,0,1,84.05,97a4.72,4.72,0,0,1,3.27,1,3.71,3.71,0,0,1,1.17,2.93,3.64,3.64,0,0,1-1.13,2.95,5.34,5.34,0,0,1-3.48.94,6.72,6.72,0,0,1-2.32-.38,23.29,23.29,0,0,1-2.37-1l-.83-.42a11.93,11.93,0,0,0-1.26-.63,2.88,2.88,0,0,0-1-.17,2.21,2.21,0,0,0-1.76.9,3.49,3.49,0,0,0-.71,2.2,3.13,3.13,0,0,0,.32,1.45,3.67,3.67,0,0,0,1,1.15A13.83,13.83,0,0,0,79.17,110a17.25,17.25,0,0,0,5.09.76,13.56,13.56,0,0,0,6-1.26,9.42,9.42,0,0,0,4-3.56,9.89,9.89,0,0,0,1.42-5.32,10.14,10.14,0,0,0-1.19-5,8.53,8.53,0,0,0-3.31-3.35A9.73,9.73,0,0,0,86.35,91.13Z"/></svg>