<svg id="Layer_1" data-name="Layer 1" xmlns="http://www.w3.org/2000/svg" viewBox="0 0 122.3 122.3"><title>l6_2_1</title><path d="M122.3,36.6V86.51A11.31,11.31,0,0,1,111,97.83H11.32A11.32,11.32,0,0,1,0,86.51V36.6A11.32,11.32,0,0,1,11.32,25.28H111A11.31,11.31,0,0,1,122.3,36.6ZM22.54,80.35q6.81,0,10.4-4.84t3.59-14q0-9.1-3.62-13.93T22.54,42.75q-6.81,0-10.4,4.84T8.55,61.52q0,9.15,3.59,14T22.54,80.35Zm0-7.23A3.73,3.73,0,0,1,19,70.41q-1.1-2.7-1.09-8.89c0-4.12.36-7.08,1.09-8.86a3.74,3.74,0,0,1,7.18,0q1.1,2.7,1.09,8.84t-1.09,8.89A3.73,3.73,0,0,1,22.54,73.12Zm22.67,7.07a4.79,4.79,0,0,0,3.56-1.46,5.21,5.21,0,0,0,0-7.17,4.79,4.79,0,0,0-3.56-1.46,5,5,0,1,0,0,10.09ZM71,55.75a10,10,0,0,0-4.39,1,8.23,8.23,0,0,0-3.2,2.63,13.88,13.88,0,0,1,2-6.79,5,5,0,0,1,4.29-2.42,6.87,6.87,0,0,1,2.39.42A29.63,29.63,0,0,1,74.9,51.8l1.15.57a16.59,16.59,0,0,0,1.56.75,3.31,3.31,0,0,0,1.3.24,2.79,2.79,0,0,0,2.21-1.12A4.24,4.24,0,0,0,82,49.51a3.8,3.8,0,0,0-.39-1.82,4.46,4.46,0,0,0-1.28-1.4,16.37,16.37,0,0,0-5.22-2.6,20.05,20.05,0,0,0-6-.94,14.06,14.06,0,0,0-8.08,2.34,15.17,15.17,0,0,0-5.36,6.68,25.35,25.35,0,0,0-1.9,10.17q0,8.84,4,13.62t11.33,4.79a13.38,13.38,0,0,0,6.61-1.62,11.52,11.52,0,0,0,4.55-4.5A13,13,0,0,0,82,67.71a13.1,13.1,0,0,0-1.43-6.16,10.89,10.89,0,0,0-3.93-4.27A10.53,10.53,0,0,0,71,55.75ZM68.61,73a4.16,4.16,0,0,1-3.22-1.37,5.13,5.13,0,0,1-1.25-3.57,5.19,5.19,0,0,1,1.22-3.59,4.18,4.18,0,0,1,3.25-1.35,4.12,4.12,0,0,1,3.25,1.33,6.08,6.08,0,0,1,0,7.2A4.11,4.11,0,0,1,68.61,73Zm41-29.79H89.2a5.11,5.11,0,0,0-3.43,1,3.63,3.63,0,0,0-1.09,2.89,3.5,3.5,0,0,0,1.07,2.8,5.14,5.14,0,0,0,3.45.94h13L88.84,73.64a4.85,4.85,0,0,0-.73,2.49,3.8,3.8,0,0,0,1.41,3,4.74,4.74,0,0,0,3.22,1.23,4.45,4.45,0,0,0,2.21-.6,4.84,4.84,0,0,0,1.79-1.85L112.5,50.6a6.62,6.62,0,0,0,1-3.43,4,4,0,0,0-1-2.83A3.66,3.66,0,0,0,109.59,43.22Z"/></svg>