<svg id="Layer_1" data-name="Layer 1" xmlns="http://www.w3.org/2000/svg" viewBox="0 0 122.3 122.3"><title>l6_3_1</title><path d="M71.65,32c-.23.4-1.65,2.78-4,2.85s-4-2.48-4.2-2.85Q57,20,50.57,8a6.44,6.44,0,0,1-.25-4.88A2.93,2.93,0,0,1,52,1.36l29.34,0a3.16,3.16,0,0,1,2.11,2.12A7.2,7.2,0,0,1,83.5,8Z"/><path d="M31.74,61.25c.4.23,2.78,1.65,2.85,4s-2.48,4-2.85,4.2l-24,12.89a6.41,6.41,0,0,1-4.87.25,2.93,2.93,0,0,1-1.78-1.64q0-14.67,0-29.34a3.18,3.18,0,0,1,2.12-2.12,7.32,7.32,0,0,1,4.5-.09Z"/><path d="M12.68,86.79H46.8a0,0,0,0,1,0,0V120.9a0,0,0,0,1,0,0H34.32A21.64,21.64,0,0,1,12.68,99.26V86.79A0,0,0,0,1,12.68,86.79Z"/><path d="M34.32,12.5H46.8a0,0,0,0,1,0,0V46.61a0,0,0,0,1,0,0H12.68a0,0,0,0,1,0,0V34.14A21.64,21.64,0,0,1,34.32,12.5Z"/><path d="M87,12.5h34.12a0,0,0,0,1,0,0V46.61a0,0,0,0,1,0,0H108.61A21.64,21.64,0,0,1,87,25V12.5a0,0,0,0,1,0,0Z" transform="translate(208.06 59.11) rotate(-180)"/><path d="M85.52,49.64h35.57v54.14A17.1,17.1,0,0,1,104,120.9H50V49.64ZM70.15,89.77H64.33l4.11-4.2a13.67,13.67,0,0,0,2.42-3.25,7.32,7.32,0,0,0,.71-3.23,5.31,5.31,0,0,0-.89-3,5.55,5.55,0,0,0-2.5-2,9.17,9.17,0,0,0-3.76-.71,11.82,11.82,0,0,0-6.39,2,1.93,1.93,0,0,0-.71.76,2.39,2.39,0,0,0-.19,1,2.49,2.49,0,0,0,.49,1.55,1.48,1.48,0,0,0,1.22.65,1.71,1.71,0,0,0,.55-.09,3.38,3.38,0,0,0,.59-.28l.45-.24L61,78.4a12.84,12.84,0,0,1,1.63-.71,4.8,4.8,0,0,1,1.55-.25,2.25,2.25,0,0,1,1.6.53,1.91,1.91,0,0,1,.57,1.5,5.63,5.63,0,0,1-1.91,3.67l-6.13,6.4a3.15,3.15,0,0,0-1,2.25,2.14,2.14,0,0,0,.61,1.58,2.16,2.16,0,0,0,1.65.62H70.15A2.86,2.86,0,0,0,72,93.47a2,2,0,0,0,.63-1.62A1.88,1.88,0,0,0,72,90.28,2.92,2.92,0,0,0,70.15,89.77Zm7.26,4.4a2.66,2.66,0,0,0,2-.81,2.9,2.9,0,0,0,0-4,2.66,2.66,0,0,0-2-.81,2.7,2.7,0,0,0-2,.81,2.9,2.9,0,0,0,0,4A2.7,2.7,0,0,0,77.41,94.17ZM95.87,73.6H84.53a2.87,2.87,0,0,0-1.91.53A2,2,0,0,0,82,75.74a2,2,0,0,0,.59,1.56,2.89,2.89,0,0,0,1.93.52h7.23l-7.44,12.7a2.73,2.73,0,0,0-.4,1.39,2.11,2.11,0,0,0,.78,1.66,2.62,2.62,0,0,0,1.79.68,2.47,2.47,0,0,0,1.23-.33,2.61,2.61,0,0,0,1-1l8.77-15.18A3.78,3.78,0,0,0,98,75.8a2.24,2.24,0,0,0-.57-1.58A2,2,0,0,0,95.87,73.6Zm12.93,7.06a7.16,7.16,0,0,0-2.86.52V77.62h6.24c1.68,0,2.52-.68,2.52-2s-.84-2-2.52-2h-9a2.51,2.51,0,0,0-1.83.63,2.55,2.55,0,0,0-.63,1.86v7.84a1.55,1.55,0,0,0,.55,1.25,2,2,0,0,0,1.36.48,2.69,2.69,0,0,0,1.3-.32,10.52,10.52,0,0,1,1.66-.52,8.44,8.44,0,0,1,1.58-.14,3.3,3.3,0,0,1,2.26.72,2.58,2.58,0,0,1,.81,2,2.53,2.53,0,0,1-.79,2,3.72,3.72,0,0,1-2.4.65,4.84,4.84,0,0,1-1.6-.26c-.49-.18-1-.41-1.64-.7l-.58-.29a9.54,9.54,0,0,0-.86-.43,2,2,0,0,0-.73-.12,1.5,1.5,0,0,0-1.21.62,2.39,2.39,0,0,0-.49,1.52,2.2,2.2,0,0,0,.21,1,2.62,2.62,0,0,0,.68.8,9.34,9.34,0,0,0,3,1.44,12,12,0,0,0,3.51.53,9.37,9.37,0,0,0,4.14-.87,6.54,6.54,0,0,0,2.78-2.46,7.47,7.47,0,0,0,.16-7.1,5.81,5.81,0,0,0-2.29-2.32A6.67,6.67,0,0,0,108.8,80.66Z"/></svg>