<svg id="Layer_1" data-name="Layer 1" xmlns="http://www.w3.org/2000/svg" viewBox="0 0 122.3 122.3"><title>l6_3_1</title><path d="M71.71,32c-.23.4-1.64,2.79-4,2.86s-4-2.48-4.19-2.86L50.63,8a6.44,6.44,0,0,1-.25-4.88A3,3,0,0,1,52,1.38l29.35,0a3.18,3.18,0,0,1,2.11,2.13,7.34,7.34,0,0,1,.09,4.5Z"/><path d="M31.8,61.27c.4.23,2.79,1.65,2.86,4s-2.48,4-2.86,4.2l-24,12.89a6.39,6.39,0,0,1-4.88.25A3,3,0,0,1,1.15,81q0-14.67,0-29.34a3.16,3.16,0,0,1,2.13-2.11,7.25,7.25,0,0,1,4.5-.09Z"/><path d="M12.75,86.81H46.86a0,0,0,0,1,0,0v34.12a0,0,0,0,1,0,0H34.39A21.64,21.64,0,0,1,12.75,99.28V86.81A0,0,0,0,1,12.75,86.81Z"/><path d="M34.39,12.52H46.86a0,0,0,0,1,0,0V46.63a0,0,0,0,1,0,0H12.75a0,0,0,0,1,0,0V34.16A21.64,21.64,0,0,1,34.39,12.52Z"/><path d="M87,12.52h34.12a0,0,0,0,1,0,0V46.63a0,0,0,0,1,0,0H108.68A21.64,21.64,0,0,1,87,25V12.52A0,0,0,0,1,87,12.52Z" transform="translate(208.19 59.15) rotate(-180)"/><path d="M85.58,49.66h35.57V103.8a17.1,17.1,0,0,1-17.09,17.12H50V49.66ZM73.52,94.28a6.77,6.77,0,0,0,5.79-2.69c1.33-1.8,2-4.39,2-7.79s-.67-6-2-7.75a7.55,7.55,0,0,0-11.56,0c-1.33,1.79-2,4.38-2,7.75s.67,6,2,7.79A6.77,6.77,0,0,0,73.52,94.28Zm0-4a2.07,2.07,0,0,1-2-1.5,14.26,14.26,0,0,1-.61-5,14.12,14.12,0,0,1,.61-4.93,2.08,2.08,0,0,1,4,0,14.21,14.21,0,0,1,.61,4.92,14.26,14.26,0,0,1-.61,5A2.07,2.07,0,0,1,73.52,90.25Zm12.62,3.94a2.66,2.66,0,0,0,2-.81,2.89,2.89,0,0,0,0-4,2.66,2.66,0,0,0-2-.81,2.7,2.7,0,0,0-2,.81,2.89,2.89,0,0,0,0,4A2.7,2.7,0,0,0,86.14,94.19Zm14-13.51a7.16,7.16,0,0,0-2.86.52V77.64h6.24c1.68,0,2.52-.67,2.52-2s-.84-2-2.52-2h-9a2.47,2.47,0,0,0-1.83.64,2.51,2.51,0,0,0-.63,1.85V84a1.58,1.58,0,0,0,.55,1.26,2,2,0,0,0,1.36.47,2.8,2.8,0,0,0,1.3-.31A9.7,9.7,0,0,1,97,84.84a8.44,8.44,0,0,1,1.58-.14,3.3,3.3,0,0,1,2.26.72,2.59,2.59,0,0,1,.81,2,2.53,2.53,0,0,1-.79,2,3.72,3.72,0,0,1-2.4.65,4.84,4.84,0,0,1-1.6-.26c-.49-.18-1-.41-1.64-.7l-.58-.29a9.54,9.54,0,0,0-.86-.43,2,2,0,0,0-.73-.11,1.48,1.48,0,0,0-1.21.62,2.35,2.35,0,0,0-.49,1.52,2.19,2.19,0,0,0,.21,1,2.62,2.62,0,0,0,.68.8,9.56,9.56,0,0,0,3,1.45,12.33,12.33,0,0,0,3.51.52,9.37,9.37,0,0,0,4.14-.87,6.54,6.54,0,0,0,2.78-2.46,7.47,7.47,0,0,0,.16-7.1,5.81,5.81,0,0,0-2.29-2.32A6.67,6.67,0,0,0,100.17,80.68Z"/></svg>