<svg id="Layer_1" data-name="Layer 1" xmlns="http://www.w3.org/2000/svg" viewBox="0 0 122.3 122.3"><title>l6_3_1</title><path d="M71.73,31.81c-.23.4-1.66,2.8-4,2.87s-4-2.5-4.23-2.87Q57,19.72,50.49,7.63a6.49,6.49,0,0,1-.25-4.92A2.93,2.93,0,0,1,51.89.92L81.46,1A3.19,3.19,0,0,1,83.59,3.1a7.3,7.3,0,0,1,.09,4.54Q77.71,19.72,71.73,31.81Z"/><path d="M31.51,61.27c.41.23,2.81,1.66,2.88,4s-2.5,4-2.88,4.23l-24.17,13a6.49,6.49,0,0,1-4.92.26A3,3,0,0,1,.63,81.12q0-14.79,0-29.58a3.18,3.18,0,0,1,2.14-2.12,7.3,7.3,0,0,1,4.54-.09Z"/><path d="M12.31,87H46.69a0,0,0,0,1,0,0v34.38a0,0,0,0,1,0,0H34A21.64,21.64,0,0,1,12.31,99.75V87a0,0,0,0,1,0,0Z"/><path d="M34,12.14H46.69a0,0,0,0,1,0,0V46.52a0,0,0,0,1,0,0H12.31a0,0,0,0,1,0,0V33.78A21.64,21.64,0,0,1,34,12.14Z"/><path d="M87.18,12.14h34.38a0,0,0,0,1,0,0V46.52a0,0,0,0,1,0,0H108.82A21.64,21.64,0,0,1,87.18,24.88V12.14A0,0,0,0,1,87.18,12.14Z" transform="translate(208.74 58.66) rotate(-180)"/><path d="M121.56,87v13.27a21.11,21.11,0,0,1-21.11,21.11H49.75V83.14h0V49.57h71.81V87ZM81,74.84H78.2V58.66a3,3,0,0,0-.83-2.22,3,3,0,0,0-2.2-.81,5.73,5.73,0,0,0-2.83.85l-5.46,3.17a2.32,2.32,0,0,0-1.2,2.12,2.86,2.86,0,0,0,.69,1.86,2.06,2.06,0,0,0,1.63.83,2.33,2.33,0,0,0,1.2-.34l2.73-1.6V74.84H69.16a3.42,3.42,0,0,0-2.25.61,2.28,2.28,0,0,0-.72,1.84c0,1.69,1,2.53,3,2.53H81c2,0,3-.84,3-2.53a2.28,2.28,0,0,0-.72-1.84A3.38,3.38,0,0,0,81,74.84Zm13.24,5.28A8,8,0,0,0,101.07,77c1.56-2.11,2.35-5.17,2.35-9.18s-.79-7-2.37-9.14a8.89,8.89,0,0,0-13.63,0q-2.36,3.16-2.36,9.14T87.42,77A8,8,0,0,0,94.24,80.12Zm0-4.74a2.43,2.43,0,0,1-2.35-1.77,17,17,0,0,1-.72-5.84A16.83,16.83,0,0,1,91.89,62a2.43,2.43,0,0,1,2.35-1.75A2.45,2.45,0,0,1,96.6,62a17.08,17.08,0,0,1,.71,5.8,17.27,17.27,0,0,1-.71,5.84A2.45,2.45,0,0,1,94.24,75.38ZM80.18,111.61H73.32l4.84-4.94A15.55,15.55,0,0,0,81,102.83,8.59,8.59,0,0,0,81.85,99a6.26,6.26,0,0,0-1-3.56,6.7,6.7,0,0,0-3-2.39,11,11,0,0,0-4.44-.84,13.32,13.32,0,0,0-3.94.62,13.57,13.57,0,0,0-3.6,1.7,2.22,2.22,0,0,0-.83.89,2.9,2.9,0,0,0-.23,1.23,3,3,0,0,0,.58,1.82,1.74,1.74,0,0,0,1.44.77,2,2,0,0,0,.64-.1,4.59,4.59,0,0,0,.7-.32l.53-.29.69-.35a16.37,16.37,0,0,1,1.92-.83,5.4,5.4,0,0,1,1.83-.29,2.67,2.67,0,0,1,1.89.61,2.28,2.28,0,0,1,.67,1.78q0,2-2.25,4.33l-7.24,7.54A3.75,3.75,0,0,0,65.06,114a2.55,2.55,0,0,0,.72,1.86,2.58,2.58,0,0,0,1.94.73H80.18a3.41,3.41,0,0,0,2.23-.61,2.36,2.36,0,0,0,.74-1.91,2.26,2.26,0,0,0-.74-1.86A3.47,3.47,0,0,0,80.18,111.61Zm14.16,5.29a8,8,0,0,0,6.82-3.17q2.36-3.18,2.35-9.18t-2.37-9.14a8.89,8.89,0,0,0-13.63,0q-2.36,3.16-2.35,9.14t2.35,9.18A8,8,0,0,0,94.34,116.9Zm0-4.74A2.44,2.44,0,0,1,92,110.38a16.91,16.91,0,0,1-.71-5.83A16.81,16.81,0,0,1,92,98.73a2.46,2.46,0,0,1,4.71,0,16.78,16.78,0,0,1,.72,5.8,16.86,16.86,0,0,1-.72,5.83A2.44,2.44,0,0,1,94.34,112.16Zm11-26.68h0a2.72,2.72,0,0,0-2.72-2.72H68.73A2.72,2.72,0,0,0,66,85.48h0a2.72,2.72,0,0,0,2.72,2.72h33.85A2.72,2.72,0,0,0,105.3,85.48Z"/></svg>