<svg id="Layer_1" data-name="Layer 1" xmlns="http://www.w3.org/2000/svg" viewBox="0 0 122.3 122.3"><title>l6_3_1</title><path d="M71.79,32c-.23.4-1.66,2.81-4,2.88s-4-2.5-4.23-2.88L50.55,7.8a6.47,6.47,0,0,1-.25-4.91A3,3,0,0,1,52,1.09l29.57,0a3.19,3.19,0,0,1,2.13,2.14,7.38,7.38,0,0,1,.09,4.54Q77.77,19.9,71.79,32Z"/><path d="M31.57,61.45c.41.23,2.81,1.66,2.88,4s-2.5,4-2.88,4.23L7.4,82.69A6.5,6.5,0,0,1,2.48,83a3,3,0,0,1-1.8-1.66q0-14.78,0-29.57a3.21,3.21,0,0,1,2.14-2.13,7.46,7.46,0,0,1,4.54-.09Z"/><path d="M12.37,87.19H46.75a0,0,0,0,1,0,0v34.38a0,0,0,0,1,0,0H34A21.64,21.64,0,0,1,12.37,99.93V87.19a0,0,0,0,1,0,0Z"/><path d="M34,12.32H46.75a0,0,0,0,1,0,0V46.7a0,0,0,0,1,0,0H12.37a0,0,0,0,1,0,0V34A21.64,21.64,0,0,1,34,12.32Z"/><path d="M87.24,12.32h34.38a0,0,0,0,1,0,0V46.7a0,0,0,0,1,0,0H108.88A21.64,21.64,0,0,1,87.24,25.06V12.32a0,0,0,0,1,0,0Z" transform="translate(208.86 59.02) rotate(-180)"/><path d="M121.62,87.19v13.27a21.11,21.11,0,0,1-21.11,21.1H49.81V83.32h0V49.75h71.81V87.19ZM91.3,75H88.5V58.84a3,3,0,0,0-.84-2.22,3,3,0,0,0-2.2-.82,5.78,5.78,0,0,0-2.83.86l-5.46,3.17A2.33,2.33,0,0,0,76,62a2.9,2.9,0,0,0,.68,1.86,2.07,2.07,0,0,0,1.64.83,2.27,2.27,0,0,0,1.19-.34l2.73-1.6V75H79.46a3.38,3.38,0,0,0-2.25.62,2.28,2.28,0,0,0-.72,1.84q0,2.52,3,2.52H91.3q3,0,3-2.52a2.28,2.28,0,0,0-.72-1.84A3.42,3.42,0,0,0,91.3,75Zm-2.82,29.38a5.5,5.5,0,0,0,2.71-2.07,5.64,5.64,0,0,0,1-3.29,6,6,0,0,0-1-3.48,6.67,6.67,0,0,0-3-2.32,11.22,11.22,0,0,0-4.45-.82,13.66,13.66,0,0,0-4,.62,11.12,11.12,0,0,0-3.47,1.7,2.87,2.87,0,0,0-.82.92,2.82,2.82,0,0,0-.23,1.2,2.79,2.79,0,0,0,.58,1.79,1.74,1.74,0,0,0,1.43.73,2.26,2.26,0,0,0,.85-.15c.25-.1.59-.27,1-.5l.71-.34a19.47,19.47,0,0,1,1.86-.82,5.3,5.3,0,0,1,1.79-.3,2.91,2.91,0,0,1,2.08.7,2.54,2.54,0,0,1,.75,2,1.92,1.92,0,0,1-.85,1.74,5.28,5.28,0,0,1-2.73.54h-1.5a1.93,1.93,0,0,0-1.6.72,2.62,2.62,0,0,0-.58,1.71,2.6,2.6,0,0,0,.58,1.7,1.93,1.93,0,0,0,1.6.72h2.12a5.07,5.07,0,0,1,2.79.58,2.14,2.14,0,0,1,.86,1.91,2.38,2.38,0,0,1-.84,2,4.74,4.74,0,0,1-2.75.61,6.31,6.31,0,0,1-2-.29,14.19,14.19,0,0,1-2-.84l-.43-.18-.32-.16c-.43-.22-.77-.39-1-.49a2.31,2.31,0,0,0-.86-.15,1.75,1.75,0,0,0-1.43.73,2.79,2.79,0,0,0-.58,1.79,2.67,2.67,0,0,0,.24,1.18,2.71,2.71,0,0,0,.82.94,11,11,0,0,0,3.55,1.72,15,15,0,0,0,4.26.6,12.79,12.79,0,0,0,4.83-.84,7.19,7.19,0,0,0,3.19-2.37,6,6,0,0,0,1.13-3.62,6.1,6.1,0,0,0-1.15-3.72A5.76,5.76,0,0,0,88.48,104.39Zm16.88-18.73h0a2.72,2.72,0,0,0-2.72-2.72H68.79a2.72,2.72,0,0,0-2.72,2.72h0a2.72,2.72,0,0,0,2.72,2.72h33.85A2.72,2.72,0,0,0,105.36,85.66Z"/></svg>