<svg id="Layer_1" data-name="Layer 1" xmlns="http://www.w3.org/2000/svg" viewBox="0 0 122.3 122.3"><title>l6_3_1</title><path d="M71.79,31.81c-.23.4-1.66,2.8-4,2.87s-4-2.5-4.23-2.87l-13-24.18a6.49,6.49,0,0,1-.25-4.92A2.93,2.93,0,0,1,52,.92L81.52,1A3.19,3.19,0,0,1,83.65,3.1a7.38,7.38,0,0,1,.09,4.54Q77.77,19.72,71.79,31.81Z"/><path d="M31.57,61.27c.41.23,2.81,1.66,2.88,4s-2.5,4-2.88,4.23L7.4,82.51a6.5,6.5,0,0,1-4.92.26,3,3,0,0,1-1.8-1.65q0-14.79,0-29.58a3.18,3.18,0,0,1,2.14-2.12,7.3,7.3,0,0,1,4.54-.09Z"/><path d="M12.37,87H46.75a0,0,0,0,1,0,0v34.38a0,0,0,0,1,0,0H34A21.64,21.64,0,0,1,12.37,99.75V87a0,0,0,0,1,0,0Z"/><path d="M34,12.14H46.75a0,0,0,0,1,0,0V46.52a0,0,0,0,1,0,0H12.37a0,0,0,0,1,0,0V33.78A21.64,21.64,0,0,1,34,12.14Z"/><path d="M87.24,12.14h34.38a0,0,0,0,1,0,0V46.52a0,0,0,0,1,0,0H108.88A21.64,21.64,0,0,1,87.24,24.88V12.14A0,0,0,0,1,87.24,12.14Z" transform="translate(208.86 58.66) rotate(-180)"/><path d="M121.62,87v13.27a21.11,21.11,0,0,1-21.11,21.11H49.81V83.14h0V49.57h71.81V87ZM86.11,64a6.57,6.57,0,0,0-2.88.63,5.33,5.33,0,0,0-2.1,1.72,9,9,0,0,1,1.28-4.45,3.27,3.27,0,0,1,2.82-1.59,4.57,4.57,0,0,1,1.56.27c.5.19,1.13.46,1.88.82l.75.38c.43.22.77.39,1,.49a2.26,2.26,0,0,0,.85.16,1.81,1.81,0,0,0,1.45-.74,2.73,2.73,0,0,0,.6-1.79,2.49,2.49,0,0,0-.26-1.19,2.85,2.85,0,0,0-.84-.92,10.7,10.7,0,0,0-3.43-1.71,13.21,13.21,0,0,0-3.9-.62A9.29,9.29,0,0,0,79.61,57a10,10,0,0,0-3.51,4.38,16.59,16.59,0,0,0-1.25,6.68q0,5.79,2.63,8.93a9.14,9.14,0,0,0,7.44,3.14,8.84,8.84,0,0,0,4.33-1.05,7.66,7.66,0,0,0,3-3,9.12,9.12,0,0,0,.13-8.32A7,7,0,0,0,89.8,65,6.9,6.9,0,0,0,86.11,64ZM84.54,75.31a2.72,2.72,0,0,1-2.11-.9,3.32,3.32,0,0,1-.82-2.34,3.38,3.38,0,0,1,.8-2.35,3,3,0,0,1,4.27,0,4,4,0,0,1,0,4.73A2.7,2.7,0,0,1,84.54,75.31Zm-4.3,36.3H73.38l4.84-4.94a15.55,15.55,0,0,0,2.85-3.84A8.59,8.59,0,0,0,81.91,99a6.26,6.26,0,0,0-1-3.56,6.7,6.7,0,0,0-3-2.39,11,11,0,0,0-4.44-.84,13.32,13.32,0,0,0-3.94.62,13.57,13.57,0,0,0-3.6,1.7,2.33,2.33,0,0,0-.84.89,3.08,3.08,0,0,0-.22,1.23,3,3,0,0,0,.58,1.82,1.74,1.74,0,0,0,1.44.77,2,2,0,0,0,.64-.1,4.59,4.59,0,0,0,.7-.32l.53-.29.69-.35a16.37,16.37,0,0,1,1.92-.83,5.4,5.4,0,0,1,1.83-.29,2.67,2.67,0,0,1,1.89.61,2.28,2.28,0,0,1,.67,1.78q0,2-2.25,4.33l-7.24,7.54A3.75,3.75,0,0,0,65.12,114a2.55,2.55,0,0,0,.72,1.86,2.58,2.58,0,0,0,1.94.73H80.24a3.41,3.41,0,0,0,2.23-.61,2.36,2.36,0,0,0,.74-1.91,2.26,2.26,0,0,0-.74-1.86A3.47,3.47,0,0,0,80.24,111.61Zm21.49-3.85H101V95.44a2.92,2.92,0,0,0-.92-2.29,3.23,3.23,0,0,0-2.22-.81,3.42,3.42,0,0,0-1.52.35,3.19,3.19,0,0,0-1.21,1l-9.76,13.92a3.85,3.85,0,0,0-.75,2.26,2.52,2.52,0,0,0,2.67,2.62h7.6v1.16a3,3,0,0,0,.84,2.32,3.06,3.06,0,0,0,2.2.79,3.13,3.13,0,0,0,2.22-.79,3,3,0,0,0,.85-2.32v-1.16h.75c2,0,3-.8,3-2.42S103.71,107.76,101.73,107.76Zm-11,0,4.09-5.91v5.91Zm14.58-22.28h0a2.72,2.72,0,0,0-2.72-2.72H68.79a2.72,2.72,0,0,0-2.72,2.72h0a2.72,2.72,0,0,0,2.72,2.72h33.85A2.72,2.72,0,0,0,105.36,85.48Z"/></svg>