<svg id="Layer_1" data-name="Layer 1" xmlns="http://www.w3.org/2000/svg" viewBox="0 0 122.3 122.3"><title>l6_4_1</title><rect x="5.1" y="44.6" width="34.54" height="34.54"/><path d="M5.1,82.89H39.64a0,0,0,0,1,0,0v34.54a0,0,0,0,1,0,0H26.74A21.64,21.64,0,0,1,5.1,95.79V82.89A0,0,0,0,1,5.1,82.89Z"/><rect x="44.22" y="4.74" width="34.54" height="34.54"/><path d="M83.44,4.74H118a0,0,0,0,1,0,0V39.28a0,0,0,0,1,0,0h-12.9A21.64,21.64,0,0,1,83.44,17.64V4.74A0,0,0,0,1,83.44,4.74Z" transform="translate(201.43 44.02) rotate(-180)"/><path d="M35.39,22.14a3.42,3.42,0,0,1,1,2.52,3.52,3.52,0,0,1-1,2.55,3.37,3.37,0,0,1-2.52,1.05H25.31v7.5a3.48,3.48,0,0,1-1,2.52,3.66,3.66,0,0,1-5.07,0,3.42,3.42,0,0,1-1-2.52v-7.5H10.67a3.37,3.37,0,0,1-2.52-1.05,3.52,3.52,0,0,1-1-2.55,3.48,3.48,0,0,1,3.54-3.54h7.56V13.56A3.56,3.56,0,0,1,24.29,11a3.42,3.42,0,0,1,1,2.52v7.56h7.56A3.42,3.42,0,0,1,35.39,22.14Z"/><path d="M81.1,44.6H118V100a17.62,17.62,0,0,1-17.72,17.53h-56v-73ZM68.58,90.38a7,7,0,0,0,6-2.79q2.07-2.79,2.07-8.07t-2.08-8a7,7,0,0,0-6-2.79,7,7,0,0,0-6,2.79q-2.07,2.79-2.07,8t2.07,8.07A7,7,0,0,0,68.58,90.38Zm0-4.17a2.15,2.15,0,0,1-2.07-1.56,14.94,14.94,0,0,1-.63-5.13,14.76,14.76,0,0,1,.63-5.11,2.16,2.16,0,0,1,4.14,0,14.81,14.81,0,0,1,.63,5.1,14.94,14.94,0,0,1-.63,5.13A2.15,2.15,0,0,1,68.58,86.21Zm13.08,4.08a2.77,2.77,0,0,0,2.06-.84,3,3,0,0,0,0-4.14,3,3,0,0,0-4.14,0,3,3,0,0,0,0,4.14A2.79,2.79,0,0,0,81.66,90.29Zm18.66-4.56h-6l4.26-4.35A14.34,14.34,0,0,0,101.06,78a7.72,7.72,0,0,0,.73-3.35,5.41,5.41,0,0,0-.92-3.13,5.84,5.84,0,0,0-2.59-2.1,9.66,9.66,0,0,0-3.9-.74,12.18,12.18,0,0,0-6.63,2,2,2,0,0,0-.73.78,2.42,2.42,0,0,0-.2,1.08,2.6,2.6,0,0,0,.51,1.61,1.52,1.52,0,0,0,1.26.67,1.79,1.79,0,0,0,.57-.09,3.92,3.92,0,0,0,.62-.28l.46-.26.6-.3a14.36,14.36,0,0,1,1.69-.73A4.94,4.94,0,0,1,94.14,73a2.4,2.4,0,0,1,1.67.54,2,2,0,0,1,.58,1.56,5.84,5.84,0,0,1-2,3.81l-6.36,6.63a3.29,3.29,0,0,0-1,2.34,2.18,2.18,0,0,0,2.34,2.28h10.95a3,3,0,0,0,2-.54,2.07,2.07,0,0,0,.65-1.68,2,2,0,0,0-.65-1.63A3.06,3.06,0,0,0,100.32,85.73Z"/></svg>