<svg id="Layer_1" data-name="Layer 1" xmlns="http://www.w3.org/2000/svg" viewBox="0 0 122.3 122.3"><title>l6_4_1</title><rect x="4.43" y="46.27" width="34.54" height="34.54"/><path d="M4.43,84.56H39a0,0,0,0,1,0,0V119.1a0,0,0,0,1,0,0H26.07A21.64,21.64,0,0,1,4.43,97.47V84.56a0,0,0,0,1,0,0Z"/><rect x="43.55" y="6.41" width="34.54" height="34.54"/><path d="M82.78,6.41h34.54a0,0,0,0,1,0,0V41a0,0,0,0,1,0,0h-12.9A21.64,21.64,0,0,1,82.78,19.31V6.41A0,0,0,0,1,82.78,6.41Z" transform="translate(200.1 47.36) rotate(-180)"/><path d="M34.73,23.81a3.42,3.42,0,0,1,1,2.52,3.52,3.52,0,0,1-1,2.55,3.37,3.37,0,0,1-2.52,1.05H24.65v7.5a3.48,3.48,0,0,1-1,2.52,3.66,3.66,0,0,1-5.07,0,3.42,3.42,0,0,1-1-2.52v-7.5H10a3.37,3.37,0,0,1-2.52-1.05,3.52,3.52,0,0,1-1-2.55A3.48,3.48,0,0,1,10,22.79h7.56V15.23a3.56,3.56,0,0,1,6.06-2.52,3.42,3.42,0,0,1,1,2.52v7.56h7.56A3.42,3.42,0,0,1,34.73,23.81Z"/><path d="M80.44,46.27h36.88v55.44A17.62,17.62,0,0,1,99.6,119.24h-56v-73Zm7.48,25.31H85.2V55.86a2.88,2.88,0,0,0-.81-2.15,3,3,0,0,0-2.14-.8,5.63,5.63,0,0,0-2.75.83l-5.31,3.08A2.27,2.27,0,0,0,73,58.88a2.74,2.74,0,0,0,.67,1.8,2,2,0,0,0,1.59.82,2.3,2.3,0,0,0,1.16-.33l2.65-1.56v12H76.41a3.28,3.28,0,0,0-2.18.59,2.22,2.22,0,0,0-.7,1.79q0,2.46,2.88,2.46H87.92q2.88,0,2.88-2.46a2.25,2.25,0,0,0-.69-1.79A3.33,3.33,0,0,0,87.92,71.58Zm-.81,35.73H80.45l4.71-4.81a15.52,15.52,0,0,0,2.77-3.73,8.32,8.32,0,0,0,.81-3.69,6.12,6.12,0,0,0-1-3.47,6.52,6.52,0,0,0-2.87-2.32,10.69,10.69,0,0,0-4.31-.81,13.63,13.63,0,0,0-7.33,2.25,2.34,2.34,0,0,0-.81.87,2.88,2.88,0,0,0-.21,1.19,2.8,2.8,0,0,0,.56,1.77,1.69,1.69,0,0,0,1.39.75,1.89,1.89,0,0,0,.63-.1,4.32,4.32,0,0,0,.68-.31l.52-.29.66-.33a17.37,17.37,0,0,1,1.87-.81,5.3,5.3,0,0,1,1.77-.28,2.69,2.69,0,0,1,1.85.59,2.25,2.25,0,0,1,.64,1.73q0,1.92-2.19,4.21l-7,7.33a3.58,3.58,0,0,0-1.13,2.58,2.51,2.51,0,0,0,.69,1.81,2.56,2.56,0,0,0,1.89.71h12.1a3.34,3.34,0,0,0,2.18-.6A2.28,2.28,0,0,0,90,109.7a2.22,2.22,0,0,0-.71-1.81A3.4,3.4,0,0,0,87.11,107.31ZM99.5,82.76h0A2.51,2.51,0,0,0,97,80.24H64.78a2.52,2.52,0,0,0-2.51,2.52h0a2.52,2.52,0,0,0,2.51,2.51H97A2.51,2.51,0,0,0,99.5,82.76Z"/></svg>