<svg id="Layer_1" data-name="Layer 1" xmlns="http://www.w3.org/2000/svg" viewBox="0 0 122.3 122.3"><title>l6_4_1</title><rect x="5.22" y="44.6" width="34.54" height="34.54"/><path d="M5.22,82.89H39.76a0,0,0,0,1,0,0v34.54a0,0,0,0,1,0,0H26.86A21.64,21.64,0,0,1,5.22,95.79V82.89A0,0,0,0,1,5.22,82.89Z"/><rect x="44.34" y="4.74" width="34.54" height="34.54"/><path d="M83.57,4.74h34.54a0,0,0,0,1,0,0V39.28a0,0,0,0,1,0,0h-12.9A21.64,21.64,0,0,1,83.57,17.64V4.74A0,0,0,0,1,83.57,4.74Z" transform="translate(201.68 44.02) rotate(-180)"/><path d="M35.52,22.14a3.42,3.42,0,0,1,1,2.52,3.52,3.52,0,0,1-1,2.55A3.39,3.39,0,0,1,33,28.26H25.44v7.5a3.48,3.48,0,0,1-1,2.52,3.66,3.66,0,0,1-5.07,0,3.42,3.42,0,0,1-1-2.52v-7.5H10.8a3.34,3.34,0,0,1-2.52-1.05,3.48,3.48,0,0,1-1-2.55,3.48,3.48,0,0,1,3.54-3.54h7.56V13.56A3.56,3.56,0,0,1,24.41,11a3.43,3.43,0,0,1,1,2.52v7.56H33A3.44,3.44,0,0,1,35.52,22.14Z"/><path d="M81.22,44.6h36.89V100a17.62,17.62,0,0,1-17.72,17.53h-56v-73ZM65.16,85.73H62.7V71.51a2.61,2.61,0,0,0-.74-2A2.63,2.63,0,0,0,60,68.84a5.07,5.07,0,0,0-2.49.75l-4.8,2.79a2,2,0,0,0-1.05,1.86,2.54,2.54,0,0,0,.6,1.64,1.8,1.8,0,0,0,1.44.73,2,2,0,0,0,1.05-.3l2.4-1.41V85.73H54.75a3,3,0,0,0-2,.54,2,2,0,0,0-.63,1.62q0,2.22,2.61,2.22H65.16q2.61,0,2.61-2.22a2,2,0,0,0-.63-1.62A3,3,0,0,0,65.16,85.73Zm6.72,4.56a2.75,2.75,0,0,0,2.05-.84,3,3,0,0,0,0-4.14,2.75,2.75,0,0,0-2.05-.84,2.91,2.91,0,1,0,0,5.82ZM91,69H79.26a2.94,2.94,0,0,0-2,.56,2.09,2.09,0,0,0-.63,1.66,2,2,0,0,0,.61,1.62,3,3,0,0,0,2,.54h7.5L79.05,86.51A2.84,2.84,0,0,0,78.63,88a2.21,2.21,0,0,0,.81,1.73,2.75,2.75,0,0,0,1.86.7A2.55,2.55,0,0,0,82.57,90a2.82,2.82,0,0,0,1-1.07L92.7,73.22a3.83,3.83,0,0,0,.57-2,2.33,2.33,0,0,0-.59-1.63A2.12,2.12,0,0,0,91,69Zm13.41,7.32a7.5,7.5,0,0,0-3,.54V73.13h6.48q2.61,0,2.61-2.1T107.94,69h-9.3a2.56,2.56,0,0,0-1.89.66,2.6,2.6,0,0,0-.66,1.92v8.13A1.65,1.65,0,0,0,96.66,81a2.07,2.07,0,0,0,1.41.49,2.87,2.87,0,0,0,1.35-.33,10.59,10.59,0,0,1,1.72-.54,8.25,8.25,0,0,1,1.64-.15,3.39,3.39,0,0,1,2.34.75,2.67,2.67,0,0,1,.84,2.1,2.61,2.61,0,0,1-.81,2.12,3.84,3.84,0,0,1-2.49.67,5,5,0,0,1-1.67-.27,16.67,16.67,0,0,1-1.69-.72l-.6-.3a9.13,9.13,0,0,0-.9-.45,2,2,0,0,0-.75-.12,1.56,1.56,0,0,0-1.26.65,2.45,2.45,0,0,0-.51,1.57,2.25,2.25,0,0,0,.22,1,2.67,2.67,0,0,0,.71.82,9.88,9.88,0,0,0,3.07,1.5,12.55,12.55,0,0,0,3.65.54,9.74,9.74,0,0,0,4.29-.9,6.75,6.75,0,0,0,2.88-2.55,7.1,7.1,0,0,0,1-3.81,7.2,7.2,0,0,0-.86-3.55,6.08,6.08,0,0,0-2.37-2.4A6.91,6.91,0,0,0,104.43,76.28Z"/></svg>