<svg id="Layer_1" data-name="Layer 1" xmlns="http://www.w3.org/2000/svg" viewBox="0 0 122.3 122.3"><title>l6_4_1</title><rect x="4.3" y="45.62" width="34.54" height="34.54"/><path d="M4.3,83.9H38.84a0,0,0,0,1,0,0v34.54a0,0,0,0,1,0,0H25.94A21.64,21.64,0,0,1,4.3,96.81V83.9A0,0,0,0,1,4.3,83.9Z"/><rect x="43.42" y="5.75" width="34.54" height="34.54"/><path d="M82.64,5.75h34.54a0,0,0,0,1,0,0V40.29a0,0,0,0,1,0,0h-12.9A21.64,21.64,0,0,1,82.64,18.65V5.75A0,0,0,0,1,82.64,5.75Z" transform="translate(199.83 46.05) rotate(-180)"/><path d="M34.59,23.15a3.46,3.46,0,0,1,1,2.52,3.51,3.51,0,0,1-1,2.55,3.37,3.37,0,0,1-2.52,1.05H24.51v7.5a3.48,3.48,0,0,1-1,2.52,3.36,3.36,0,0,1-2.55,1,3.39,3.39,0,0,1-2.52-1,3.42,3.42,0,0,1-1-2.52v-7.5H9.87a3.37,3.37,0,0,1-2.52-1.05,3.51,3.51,0,0,1-1-2.55,3.48,3.48,0,0,1,3.54-3.54h7.56V14.57a3.54,3.54,0,1,1,7.08,0v7.56h7.56A3.46,3.46,0,0,1,34.59,23.15Z"/><path d="M80.3,45.62h36.88v55.43a17.62,17.62,0,0,1-17.72,17.53h-56v-73Zm2.08,14.85a8.29,8.29,0,0,0-3.29.6V57h7.17c1.92,0,2.88-.77,2.88-2.32s-1-2.29-2.88-2.29H76a2.55,2.55,0,0,0-2.82,2.86v9a1.8,1.8,0,0,0,.63,1.44,2.27,2.27,0,0,0,1.56.55,3.08,3.08,0,0,0,1.49-.37,12.12,12.12,0,0,1,1.91-.59,9,9,0,0,1,1.8-.17,3.77,3.77,0,0,1,2.59.83,3,3,0,0,1,.93,2.32,2.87,2.87,0,0,1-.9,2.34,4.2,4.2,0,0,1-2.75.74A5.46,5.46,0,0,1,78.58,71a19,19,0,0,1-1.87-.8L76,69.89c-.44-.24-.77-.41-1-.5a2.23,2.23,0,0,0-.83-.13,1.72,1.72,0,0,0-1.39.71,2.71,2.71,0,0,0-.56,1.74,2.54,2.54,0,0,0,.24,1.15,3.08,3.08,0,0,0,.78.91,11,11,0,0,0,3.4,1.66,14.14,14.14,0,0,0,4,.59,10.8,10.8,0,0,0,4.74-1,7.47,7.47,0,0,0,3.18-2.82A7.87,7.87,0,0,0,89.77,68a8,8,0,0,0-1-3.93,6.66,6.66,0,0,0-2.61-2.65A7.69,7.69,0,0,0,82.38,60.47Zm.44,35.64a6.35,6.35,0,0,0-2.8.61,5.21,5.21,0,0,0-2,1.68,8.76,8.76,0,0,1,1.24-4.33A3.18,3.18,0,0,1,82,92.53a4.58,4.58,0,0,1,1.52.26c.49.18,1.09.45,1.82.8L86,94a9.67,9.67,0,0,0,1,.49,2.16,2.16,0,0,0,.83.14,1.75,1.75,0,0,0,1.41-.71,2.68,2.68,0,0,0,.58-1.74A2.52,2.52,0,0,0,89.6,91a2.81,2.81,0,0,0-.82-.89,10.39,10.39,0,0,0-3.33-1.66,12.79,12.79,0,0,0-3.79-.6,9,9,0,0,0-5.16,1.49,9.66,9.66,0,0,0-3.41,4.26,16.06,16.06,0,0,0-1.21,6.49c0,3.75.85,6.65,2.55,8.68a8.91,8.91,0,0,0,7.23,3.05,8.5,8.5,0,0,0,4.21-1,7.38,7.38,0,0,0,2.9-2.86,8.89,8.89,0,0,0,.13-8.09,6.85,6.85,0,0,0-2.5-2.72A6.73,6.73,0,0,0,82.82,96.11Zm-1.53,11a2.65,2.65,0,0,1-2.05-.88,3.69,3.69,0,0,1,0-4.56,2.64,2.64,0,0,1,2.07-.86,2.6,2.6,0,0,1,2.07.84,3.36,3.36,0,0,1,.75,2.31,3.29,3.29,0,0,1-.76,2.28A2.61,2.61,0,0,1,81.29,107.12ZM99.37,82h0a2.51,2.51,0,0,0-2.51-2.51H64.65A2.51,2.51,0,0,0,62.14,82h0a2.51,2.51,0,0,0,2.51,2.51H96.86A2.51,2.51,0,0,0,99.37,82Z"/></svg>