<svg id="Layer_1" data-name="Layer 1" xmlns="http://www.w3.org/2000/svg" viewBox="0 0 122.3 122.3"><title>l6_4_1</title><rect x="4.46" y="45.27" width="34.54" height="34.54"/><path d="M4.46,83.56H39a0,0,0,0,1,0,0V118.1a0,0,0,0,1,0,0H26.1A21.64,21.64,0,0,1,4.46,96.47V83.56A0,0,0,0,1,4.46,83.56Z"/><rect x="43.58" y="5.41" width="34.54" height="34.54"/><path d="M82.8,5.41h34.54a0,0,0,0,1,0,0V40a0,0,0,0,1,0,0h-12.9A21.64,21.64,0,0,1,82.8,18.31V5.41A0,0,0,0,1,82.8,5.41Z" transform="translate(200.15 45.36) rotate(-180)"/><path d="M34.75,22.81a3.42,3.42,0,0,1,1,2.52,3.52,3.52,0,0,1-1,2.55,3.37,3.37,0,0,1-2.52,1.05H24.67v7.5a3.48,3.48,0,0,1-1,2.52,3.66,3.66,0,0,1-5.07,0,3.42,3.42,0,0,1-1-2.52v-7.5H10a3.37,3.37,0,0,1-2.52-1.05,3.52,3.52,0,0,1-1-2.55A3.48,3.48,0,0,1,10,21.79h7.56V14.23a3.56,3.56,0,0,1,6.06-2.52,3.42,3.42,0,0,1,1,2.52v7.56h7.56A3.42,3.42,0,0,1,34.75,22.81Z"/><path d="M80.46,45.27h36.88v55.44a17.62,17.62,0,0,1-17.72,17.53h-56v-73Zm6.6,25.31H80.4l4.7-4.81A15.44,15.44,0,0,0,87.87,62a8.4,8.4,0,0,0,.81-3.7,6,6,0,0,0-1-3.46,6.43,6.43,0,0,0-2.86-2.32,10.72,10.72,0,0,0-4.31-.82A13.53,13.53,0,0,0,73.17,54a2.11,2.11,0,0,0-.81.86,2.75,2.75,0,0,0-.22,1.19,2.85,2.85,0,0,0,.57,1.78,1.67,1.67,0,0,0,1.39.74,1.89,1.89,0,0,0,.63-.1,3.87,3.87,0,0,0,.68-.31l.51-.28.66-.33a15.87,15.87,0,0,1,1.88-.82,5.57,5.57,0,0,1,1.77-.28,2.6,2.6,0,0,1,1.84.6,2.23,2.23,0,0,1,.65,1.72q0,1.93-2.19,4.21l-7,7.33a3.64,3.64,0,0,0-1.13,2.59A2.44,2.44,0,0,0,75,75.42h12.1a3.31,3.31,0,0,0,2.17-.6A2.28,2.28,0,0,0,89.94,73a2.16,2.16,0,0,0-.71-1.8A3.37,3.37,0,0,0,87.06,70.58ZM85.2,99.12a5.39,5.39,0,0,0,2.63-2,5.51,5.51,0,0,0,1-3.2,5.81,5.81,0,0,0-1-3.38,6.53,6.53,0,0,0-2.89-2.25,11,11,0,0,0-4.32-.8,13.2,13.2,0,0,0-3.93.6,10.92,10.92,0,0,0-3.37,1.65,2.69,2.69,0,0,0-.79.9,2.52,2.52,0,0,0-.24,1.16,2.68,2.68,0,0,0,.57,1.74,1.69,1.69,0,0,0,1.39.71,2.16,2.16,0,0,0,.83-.15q.36-.15,1-.48l.7-.33a17.26,17.26,0,0,1,1.81-.79,5,5,0,0,1,1.74-.3,2.82,2.82,0,0,1,2,.68,2.46,2.46,0,0,1,.73,1.9,1.85,1.85,0,0,1-.83,1.69,5,5,0,0,1-2.65.53H78.07a1.92,1.92,0,0,0-1.56.7,2.74,2.74,0,0,0,0,3.32,1.92,1.92,0,0,0,1.56.69h2.06a4.9,4.9,0,0,1,2.71.57,2,2,0,0,1,.83,1.85,2.31,2.31,0,0,1-.81,2,4.58,4.58,0,0,1-2.67.6,6.17,6.17,0,0,1-1.9-.28,14.21,14.21,0,0,1-1.91-.82l-.42-.18-.31-.15c-.42-.22-.75-.38-1-.48a2.1,2.1,0,0,0-.82-.15,1.72,1.72,0,0,0-1.4.72,2.73,2.73,0,0,0-.56,1.74,2.66,2.66,0,0,0,.23,1.14,2.58,2.58,0,0,0,.8.91,10.67,10.67,0,0,0,3.45,1.68,14.9,14.9,0,0,0,4.14.58,12.28,12.28,0,0,0,4.69-.82,7,7,0,0,0,3.1-2.3,5.77,5.77,0,0,0,1.09-3.51,5.9,5.9,0,0,0-1.11-3.62A5.62,5.62,0,0,0,85.2,99.12ZM99.53,81.69h0A2.51,2.51,0,0,0,97,79.18H64.81a2.51,2.51,0,0,0-2.51,2.51h0a2.51,2.51,0,0,0,2.51,2.51H97A2.51,2.51,0,0,0,99.53,81.69Z"/></svg>