<svg id="Layer_1" data-name="Layer 1" xmlns="http://www.w3.org/2000/svg" viewBox="0 0 122.3 122.3"><title>l6_4_1</title><rect x="5.22" y="44.6" width="34.54" height="34.54"/><path d="M5.22,82.89H39.76a0,0,0,0,1,0,0v34.54a0,0,0,0,1,0,0H26.86A21.64,21.64,0,0,1,5.22,95.79V82.89A0,0,0,0,1,5.22,82.89Z"/><rect x="44.34" y="4.74" width="34.54" height="34.54"/><path d="M83.57,4.74h34.54a0,0,0,0,1,0,0V39.28a0,0,0,0,1,0,0h-12.9A21.64,21.64,0,0,1,83.57,17.64V4.74A0,0,0,0,1,83.57,4.74Z" transform="translate(201.68 44.02) rotate(-180)"/><path d="M35.52,22.14a3.42,3.42,0,0,1,1,2.52,3.52,3.52,0,0,1-1,2.55A3.39,3.39,0,0,1,33,28.26H25.44v7.5a3.48,3.48,0,0,1-1,2.52,3.66,3.66,0,0,1-5.07,0,3.42,3.42,0,0,1-1-2.52v-7.5H10.8a3.34,3.34,0,0,1-2.52-1.05,3.48,3.48,0,0,1-1-2.55,3.48,3.48,0,0,1,3.54-3.54h7.56V13.56A3.56,3.56,0,0,1,24.41,11a3.43,3.43,0,0,1,1,2.52v7.56H33A3.44,3.44,0,0,1,35.52,22.14Z"/><path d="M81.22,44.6h36.89V100a17.62,17.62,0,0,1-17.72,17.53h-56v-73ZM69,90.38a7,7,0,0,0,6-2.79c1.38-1.86,2.08-4.55,2.08-8.07s-.7-6.18-2.09-8a7,7,0,0,0-6-2.79,7,7,0,0,0-6,2.79q-2.07,2.79-2.07,8T63,87.59A7,7,0,0,0,69,90.38Zm0-4.17a2.15,2.15,0,0,1-2.07-1.56,14.94,14.94,0,0,1-.63-5.13,14.76,14.76,0,0,1,.63-5.11,2.16,2.16,0,0,1,4.15,0,14.87,14.87,0,0,1,.62,5.1,15,15,0,0,1-.62,5.13A2.16,2.16,0,0,1,69,86.21Zm13.08,4.08a2.77,2.77,0,0,0,2.06-.84,3,3,0,0,0,0-4.14,2.77,2.77,0,0,0-2.06-.84,2.8,2.8,0,0,0-2.08.84,3,3,0,0,0,0,4.14A2.8,2.8,0,0,0,82.08,90.29ZM99,79.22a4.87,4.87,0,0,0,2.39-1.81,5,5,0,0,0,.85-2.9,5.23,5.23,0,0,0-.91-3.06,5.87,5.87,0,0,0-2.61-2,10,10,0,0,0-3.92-.72,12,12,0,0,0-3.55.54,10,10,0,0,0-3,1.5,2.42,2.42,0,0,0-.72.81,2.34,2.34,0,0,0-.21,1,2.47,2.47,0,0,0,.51,1.58,1.54,1.54,0,0,0,1.26.64,2,2,0,0,0,.75-.13c.22-.09.52-.24.9-.44l.63-.3a16.24,16.24,0,0,1,1.64-.72A4.5,4.5,0,0,1,94.5,73a2.58,2.58,0,0,1,1.83.62A2.23,2.23,0,0,1,97,75.29a1.68,1.68,0,0,1-.75,1.53,4.59,4.59,0,0,1-2.4.48H92.52a1.71,1.71,0,0,0-1.41.63,2.46,2.46,0,0,0,0,3,1.71,1.71,0,0,0,1.41.63h1.86a4.51,4.51,0,0,1,2.46.51,1.88,1.88,0,0,1,.75,1.68,2.08,2.08,0,0,1-.73,1.8,4.18,4.18,0,0,1-2.42.54,5.41,5.41,0,0,1-1.72-.25A13.55,13.55,0,0,1,91,85.1l-.37-.16-.29-.14c-.38-.2-.68-.34-.9-.43a2,2,0,0,0-.75-.14,1.56,1.56,0,0,0-1.26.65,2.45,2.45,0,0,0-.51,1.57,2.38,2.38,0,0,0,.21,1,2.35,2.35,0,0,0,.72.82A9.65,9.65,0,0,0,91,89.83a13.32,13.32,0,0,0,3.75.52A11.29,11.29,0,0,0,99,89.62a6.3,6.3,0,0,0,2.8-2.09,5.23,5.23,0,0,0,1-3.18,5.32,5.32,0,0,0-1-3.27A5.12,5.12,0,0,0,99,79.22Z"/></svg>