<svg id="Layer_1" data-name="Layer 1" xmlns="http://www.w3.org/2000/svg" viewBox="0 0 122.3 122.3"><title>l6_4_1</title><rect x="5.67" y="46.27" width="34.54" height="34.54"/><path d="M5.67,84.56H40.21a0,0,0,0,1,0,0V119.1a0,0,0,0,1,0,0H27.31A21.64,21.64,0,0,1,5.67,97.47V84.56A0,0,0,0,1,5.67,84.56Z"/><rect x="44.79" y="6.41" width="34.54" height="34.54"/><path d="M84,6.41h34.54a0,0,0,0,1,0,0V41a0,0,0,0,1,0,0h-12.9A21.64,21.64,0,0,1,84,19.31V6.41A0,0,0,0,1,84,6.41Z" transform="translate(202.58 47.36) rotate(-180)"/><path d="M36,23.81a3.42,3.42,0,0,1,1,2.52,3.52,3.52,0,0,1-1,2.55,3.37,3.37,0,0,1-2.52,1.05H25.89v7.5a3.48,3.48,0,0,1-1,2.52,3.66,3.66,0,0,1-5.07,0,3.42,3.42,0,0,1-1-2.52v-7.5H11.25a3.37,3.37,0,0,1-2.52-1.05,3.52,3.52,0,0,1-1-2.55,3.48,3.48,0,0,1,3.54-3.54h7.56V15.23a3.56,3.56,0,0,1,6.06-2.52,3.42,3.42,0,0,1,1,2.52v7.56h7.56A3.42,3.42,0,0,1,36,23.81Z"/><path d="M81.68,46.27h36.88v55.44a17.62,17.62,0,0,1-17.72,17.53h-56v-73Zm4.66,18.11a5.38,5.38,0,0,0,2.63-2,5.54,5.54,0,0,0,1-3.2,5.87,5.87,0,0,0-1-3.39A6.53,6.53,0,0,0,86,53.54a11,11,0,0,0-4.32-.8,13.2,13.2,0,0,0-3.93.6A10.94,10.94,0,0,0,74.4,55a2.77,2.77,0,0,0-.79.89,2.53,2.53,0,0,0-.23,1.16,2.67,2.67,0,0,0,.56,1.74,1.7,1.7,0,0,0,1.39.72,2.16,2.16,0,0,0,.83-.15q.36-.15,1-.48l.7-.33a16.36,16.36,0,0,1,1.81-.8,5,5,0,0,1,1.74-.3,2.87,2.87,0,0,1,2,.68A2.48,2.48,0,0,1,84.15,60a1.86,1.86,0,0,1-.83,1.69,5.11,5.11,0,0,1-2.65.53H79.21a1.89,1.89,0,0,0-1.56.7,2.55,2.55,0,0,0-.56,1.65,2.58,2.58,0,0,0,.56,1.66,1.92,1.92,0,0,0,1.56.7h2.06a5,5,0,0,1,2.71.56,2.08,2.08,0,0,1,.83,1.86,2.31,2.31,0,0,1-.81,2,4.66,4.66,0,0,1-2.67.59,5.89,5.89,0,0,1-1.9-.28,15.43,15.43,0,0,1-1.91-.81l-.42-.18-.31-.15q-.63-.33-1-.48a2.19,2.19,0,0,0-.83-.15,1.73,1.73,0,0,0-1.4.71A2.77,2.77,0,0,0,73,72.37a2.66,2.66,0,0,0,.23,1.14,2.6,2.6,0,0,0,.8.92,10.65,10.65,0,0,0,3.45,1.67,14.53,14.53,0,0,0,4.14.58,12.48,12.48,0,0,0,4.69-.81,6.92,6.92,0,0,0,3.1-2.31,5.75,5.75,0,0,0,1.09-3.51,5.87,5.87,0,0,0-1.11-3.61A5.64,5.64,0,0,0,86.34,64.38Zm3,39.18H88.6v-12a2.83,2.83,0,0,0-.89-2.22,3.11,3.11,0,0,0-2.16-.8,3.31,3.31,0,0,0-1.47.35,3,3,0,0,0-1.18,1l-9.48,13.52a3.71,3.71,0,0,0-.73,2.19,2.54,2.54,0,0,0,.7,1.83,2.49,2.49,0,0,0,1.88.73h7.4v1.12a2.73,2.73,0,0,0,3,3,3,3,0,0,0,2.15-.76,2.89,2.89,0,0,0,.83-2.26v-1.12h.73c1.92,0,2.89-.79,2.89-2.36S91.25,103.56,89.33,103.56Zm-10.64,0,4-5.73v5.73Zm21.6-20.87h0a2.51,2.51,0,0,0-2.51-2.51H65.57a2.51,2.51,0,0,0-2.51,2.51h0a2.51,2.51,0,0,0,2.51,2.51H97.78A2.51,2.51,0,0,0,100.29,82.69Z"/></svg>