<svg id="Layer_1" data-name="Layer 1" xmlns="http://www.w3.org/2000/svg" viewBox="0 0 122.3 122.3"><title>l6_4_1</title><rect x="3.99" y="45.62" width="34.54" height="34.54"/><path d="M4,83.9H38.53a0,0,0,0,1,0,0v34.54a0,0,0,0,1,0,0H25.63A21.64,21.64,0,0,1,4,96.81V83.9A0,0,0,0,1,4,83.9Z"/><rect x="43.11" y="5.75" width="34.54" height="34.54"/><path d="M82.33,5.75h34.54a0,0,0,0,1,0,0V40.29a0,0,0,0,1,0,0H104A21.64,21.64,0,0,1,82.33,18.65V5.75A0,0,0,0,1,82.33,5.75Z" transform="translate(199.21 46.05) rotate(-180)"/><path d="M34.28,23.15a3.46,3.46,0,0,1,1,2.52,3.51,3.51,0,0,1-1,2.55,3.37,3.37,0,0,1-2.52,1.05H24.2v7.5a3.48,3.48,0,0,1-1,2.52,3.36,3.36,0,0,1-2.55,1,3.39,3.39,0,0,1-2.52-1,3.42,3.42,0,0,1-1-2.52v-7.5H9.56A3.37,3.37,0,0,1,7,28.22a3.51,3.51,0,0,1-1-2.55,3.48,3.48,0,0,1,3.54-3.54h7.56V14.57a3.54,3.54,0,1,1,7.08,0v7.56h7.56A3.46,3.46,0,0,1,34.28,23.15Z"/><path d="M80,45.62h36.89v55.43a17.63,17.63,0,0,1-17.73,17.53h-56v-73Zm7.58,21.55h-.73v-12A2.83,2.83,0,0,0,86,53a3.15,3.15,0,0,0-2.16-.79,3.3,3.3,0,0,0-1.47.34,3.05,3.05,0,0,0-1.18,1L71.66,67.07a3.71,3.71,0,0,0-.73,2.19,2.53,2.53,0,0,0,.69,1.82,2.49,2.49,0,0,0,1.89.73h7.4v1.13a2.93,2.93,0,0,0,.81,2.25,3,3,0,0,0,2.14.77A3,3,0,0,0,86,75.19a2.91,2.91,0,0,0,.83-2.25V71.81h.73c1.92,0,2.89-.78,2.89-2.35S89.49,67.17,87.57,67.17Zm-10.64,0,4-5.73v5.73Zm5.21,29a8.24,8.24,0,0,0-3.28.6V92.73H86c1.93,0,2.89-.78,2.89-2.32S88,88.12,86,88.12H75.75a2.8,2.8,0,0,0-2.09.73A2.86,2.86,0,0,0,72.93,91v9a1.83,1.83,0,0,0,.63,1.44,2.31,2.31,0,0,0,1.56.54,3.21,3.21,0,0,0,1.49-.36,11.5,11.5,0,0,1,1.9-.6,9.24,9.24,0,0,1,1.81-.16,3.72,3.72,0,0,1,2.59.83,3,3,0,0,1,.92,2.32,2.84,2.84,0,0,1-.89,2.33,4.22,4.22,0,0,1-2.75.75,5.42,5.42,0,0,1-1.84-.3,18.84,18.84,0,0,1-1.88-.79l-.66-.34a10.69,10.69,0,0,0-1-.49A2.21,2.21,0,0,0,74,105a1.7,1.7,0,0,0-1.39.72,2.68,2.68,0,0,0-.57,1.74,2.52,2.52,0,0,0,.25,1.14,3,3,0,0,0,.78.91,10.89,10.89,0,0,0,3.4,1.66,13.76,13.76,0,0,0,4,.6,10.66,10.66,0,0,0,4.74-1A7.45,7.45,0,0,0,88.41,108a8.5,8.5,0,0,0,.18-8.14A6.71,6.71,0,0,0,86,97.15,7.63,7.63,0,0,0,82.14,96.21ZM99.06,82.1h0a2.51,2.51,0,0,0-2.51-2.51H64.34a2.51,2.51,0,0,0-2.51,2.51h0a2.51,2.51,0,0,0,2.51,2.51H96.55A2.52,2.52,0,0,0,99.06,82.1Z"/></svg>