<svg id="Layer_1" data-name="Layer 1" xmlns="http://www.w3.org/2000/svg" viewBox="0 0 122.3 122.3"><title>l6_4_1</title><rect x="4.42" y="45.62" width="34.54" height="34.54"/><path d="M4.42,83.9H39a0,0,0,0,1,0,0v34.54a0,0,0,0,1,0,0H26.06A21.64,21.64,0,0,1,4.42,96.81V83.9A0,0,0,0,1,4.42,83.9Z"/><rect x="43.54" y="5.75" width="34.54" height="34.54"/><path d="M82.77,5.75h34.54a0,0,0,0,1,0,0V40.29a0,0,0,0,1,0,0h-12.9A21.64,21.64,0,0,1,82.77,18.65V5.75a0,0,0,0,1,0,0Z" transform="translate(200.08 46.05) rotate(-180)"/><path d="M34.72,23.15a3.46,3.46,0,0,1,1,2.52,3.51,3.51,0,0,1-1,2.55,3.37,3.37,0,0,1-2.52,1.05H24.64v7.5a3.48,3.48,0,0,1-1,2.52,3.36,3.36,0,0,1-2.55,1,3.39,3.39,0,0,1-2.52-1,3.42,3.42,0,0,1-1-2.52v-7.5H10a3.37,3.37,0,0,1-2.52-1.05,3.51,3.51,0,0,1-1-2.55A3.48,3.48,0,0,1,10,22.13h7.56V14.57a3.54,3.54,0,1,1,7.08,0v7.56H32.2A3.46,3.46,0,0,1,34.72,23.15Z"/><path d="M80.43,45.62h36.88v55.43a17.62,17.62,0,0,1-17.72,17.53h-56v-73Zm7.14,6.76h-13a3.24,3.24,0,0,0-2.19.62,2.34,2.34,0,0,0-.7,1.84,2.28,2.28,0,0,0,.68,1.79,3.32,3.32,0,0,0,2.21.6h8.29L74.35,71.78a3.13,3.13,0,0,0-.47,1.59,2.44,2.44,0,0,0,.9,1.91,3,3,0,0,0,2,.78,2.78,2.78,0,0,0,1.41-.39,3.08,3.08,0,0,0,1.15-1.17l10-17.41a4.2,4.2,0,0,0,.63-2.19,2.54,2.54,0,0,0-.65-1.8A2.34,2.34,0,0,0,87.57,52.38ZM86,99.46a5,5,0,0,0,2.61-2,5.83,5.83,0,0,0,.94-3.31,5.5,5.5,0,0,0-2.3-4.66A10.34,10.34,0,0,0,81,87.82a10.31,10.31,0,0,0-6.26,1.71,5.47,5.47,0,0,0-2.32,4.66,5.63,5.63,0,0,0,.93,3.23,5.38,5.38,0,0,0,2.65,2,5.51,5.51,0,0,0-3.12,2,5.82,5.82,0,0,0-1.09,3.63A5.71,5.71,0,0,0,74.21,110,11.28,11.28,0,0,0,81,111.76,11.31,11.31,0,0,0,87.7,110a5.71,5.71,0,0,0,2.47-4.92A5.46,5.46,0,0,0,86,99.46Zm-5,7.69q-3.61,0-3.61-2.59T81,102q3.61,0,3.62,2.58T81,107.15Zm0-14.72a3.54,3.54,0,0,1,2.23.58,2.27,2.27,0,0,1,.72,1.87,2.3,2.3,0,0,1-.72,1.89,4.43,4.43,0,0,1-4.45,0A2.3,2.3,0,0,1,78,94.88,2.27,2.27,0,0,1,78.73,93,3.53,3.53,0,0,1,81,92.43ZM99,82h0a2.51,2.51,0,0,0-2.51-2.51H64.32A2.51,2.51,0,0,0,61.81,82h0a2.51,2.51,0,0,0,2.51,2.51H96.53A2.51,2.51,0,0,0,99,82Z"/></svg>