<svg id="Layer_1" data-name="Layer 1" xmlns="http://www.w3.org/2000/svg" viewBox="0 0 122.3 122.3"><title>l6_4_1</title><rect x="4.79" y="44.6" width="34.54" height="34.54"/><path d="M4.79,82.89H39.33a0,0,0,0,1,0,0v34.54a0,0,0,0,1,0,0H26.43A21.64,21.64,0,0,1,4.79,95.79V82.89a0,0,0,0,1,0,0Z"/><rect x="43.91" y="4.74" width="34.54" height="34.54"/><path d="M83.13,4.74h34.54a0,0,0,0,1,0,0V39.28a0,0,0,0,1,0,0h-12.9A21.64,21.64,0,0,1,83.13,17.64V4.74A0,0,0,0,1,83.13,4.74Z" transform="translate(200.81 44.02) rotate(-180)"/><path d="M35.08,22.14a3.42,3.42,0,0,1,1,2.52,3.52,3.52,0,0,1-1,2.55,3.37,3.37,0,0,1-2.52,1.05H25v7.5a3.48,3.48,0,0,1-1,2.52,3.66,3.66,0,0,1-5.07,0,3.42,3.42,0,0,1-1-2.52v-7.5H10.36a3.37,3.37,0,0,1-2.52-1.05,3.52,3.52,0,0,1-1-2.55,3.48,3.48,0,0,1,3.54-3.54h7.56V13.56A3.56,3.56,0,0,1,24,11a3.42,3.42,0,0,1,1,2.52v7.56h7.56A3.42,3.42,0,0,1,35.08,22.14Z"/><path d="M80.79,44.6h36.88V100A17.62,17.62,0,0,1,100,117.56h-56v-73ZM58.7,90.38a7,7,0,0,0,6-2.79q2.07-2.79,2.07-8.07t-2.09-8a7,7,0,0,0-6-2.79,7,7,0,0,0-6,2.79q-2.07,2.79-2.07,8t2.07,8.07A7,7,0,0,0,58.7,90.38Zm0-4.17a2.15,2.15,0,0,1-2.07-1.56A14.94,14.94,0,0,1,56,79.52a14.76,14.76,0,0,1,.63-5.11,2.16,2.16,0,0,1,4.14,0,14.81,14.81,0,0,1,.63,5.1,14.94,14.94,0,0,1-.63,5.13A2.15,2.15,0,0,1,58.7,86.21Zm13.08,4.08a2.75,2.75,0,0,0,2-.84,3,3,0,0,0,0-4.14,2.75,2.75,0,0,0-2-.84,2.91,2.91,0,1,0,0,5.82Zm18.66-4.56h-6l4.25-4.35A13.8,13.8,0,0,0,91.17,78a7.59,7.59,0,0,0,.74-3.35A5.49,5.49,0,0,0,91,71.53a5.84,5.84,0,0,0-2.59-2.1,9.67,9.67,0,0,0-3.91-.74,12.18,12.18,0,0,0-6.62,2,2,2,0,0,0-.74.78,2.93,2.93,0,0,0,.32,2.69,1.51,1.51,0,0,0,1.25.67,1.81,1.81,0,0,0,.58-.09,3.86,3.86,0,0,0,.61-.28l.47-.26.59-.3a15.18,15.18,0,0,1,1.7-.73A4.85,4.85,0,0,1,84.26,73a2.35,2.35,0,0,1,1.66.54,2,2,0,0,1,.59,1.56,5.84,5.84,0,0,1-2,3.81l-6.37,6.63a3.31,3.31,0,0,0-1,2.34,2.18,2.18,0,0,0,2.34,2.28h11a3,3,0,0,0,2-.54,2.07,2.07,0,0,0,.65-1.68,2,2,0,0,0-.65-1.63A3.06,3.06,0,0,0,90.44,85.73Zm13.92-9.45a7.5,7.5,0,0,0-3,.54V73.13h6.48q2.61,0,2.61-2.1T107.87,69h-9.3a2.54,2.54,0,0,0-1.89.66A2.6,2.6,0,0,0,96,71.54v8.13A1.65,1.65,0,0,0,96.59,81a2.07,2.07,0,0,0,1.41.49,2.87,2.87,0,0,0,1.35-.33,10.59,10.59,0,0,1,1.72-.54,8.25,8.25,0,0,1,1.64-.15,3.39,3.39,0,0,1,2.34.75,2.67,2.67,0,0,1,.84,2.1,2.61,2.61,0,0,1-.81,2.12,3.84,3.84,0,0,1-2.49.67,5,5,0,0,1-1.67-.27,16.67,16.67,0,0,1-1.69-.72l-.6-.3a9.13,9.13,0,0,0-.9-.45,2,2,0,0,0-.75-.12,1.56,1.56,0,0,0-1.26.65,2.39,2.39,0,0,0-.51,1.57,2.25,2.25,0,0,0,.22,1,2.67,2.67,0,0,0,.71.82,9.77,9.77,0,0,0,3.07,1.5,12.55,12.55,0,0,0,3.65.54,9.74,9.74,0,0,0,4.29-.9A6.75,6.75,0,0,0,110,86.9a7.69,7.69,0,0,0,.16-7.36,6.08,6.08,0,0,0-2.37-2.4A6.91,6.91,0,0,0,104.36,76.28Z"/></svg>