<svg id="Layer_1" data-name="Layer 1" xmlns="http://www.w3.org/2000/svg" viewBox="0 0 122.3 122.3"><title>l6_5_1</title><rect x="4.7" y="45.32" width="34.54" height="34.54"/><path d="M4.7,83.61H39.24a0,0,0,0,1,0,0v34.54a0,0,0,0,1,0,0H26.34A21.64,21.64,0,0,1,4.7,96.51V83.61A0,0,0,0,1,4.7,83.61Z"/><rect x="43.82" y="5.46" width="34.54" height="34.54"/><path d="M83,5.46h34.54a0,0,0,0,1,0,0V40a0,0,0,0,1,0,0h-12.9A21.64,21.64,0,0,1,83,18.36V5.46A0,0,0,0,1,83,5.46Z" transform="translate(200.64 45.46) rotate(-180)"/><path d="M10.76,26.52q0-4.14,5-4.14H27a5.56,5.56,0,0,1,3.75,1.08A3.86,3.86,0,0,1,32,26.52a4,4,0,0,1-1.23,3.09A5.46,5.46,0,0,1,27,30.72H15.74Q10.76,30.72,10.76,26.52Z"/><path d="M80.71,45.32h36.88v55.44a17.62,17.62,0,0,1-17.72,17.53h-56v-73ZM68.19,91.1a7,7,0,0,0,6-2.79q2.07-2.79,2.07-8.07t-2.09-8a7,7,0,0,0-6-2.79,7,7,0,0,0-6,2.79q-2.07,2.79-2.07,8t2.07,8.07A7,7,0,0,0,68.19,91.1Zm0-4.17a2.15,2.15,0,0,1-2.07-1.56,14.94,14.94,0,0,1-.63-5.13,14.76,14.76,0,0,1,.63-5.11,2.16,2.16,0,0,1,4.14,0,14.81,14.81,0,0,1,.63,5.1,14.94,14.94,0,0,1-.63,5.13A2.15,2.15,0,0,1,68.19,86.93ZM81.27,91a2.75,2.75,0,0,0,2-.84,3,3,0,0,0,0-4.14,2.75,2.75,0,0,0-2-.84,2.91,2.91,0,1,0,0,5.82Zm18.66-4.56h-6l4.26-4.35a14,14,0,0,0,2.5-3.37,7.59,7.59,0,0,0,.74-3.35,5.49,5.49,0,0,0-.92-3.13,5.84,5.84,0,0,0-2.59-2.1,9.66,9.66,0,0,0-3.9-.74,12.18,12.18,0,0,0-6.63,2,2,2,0,0,0-.74.78,2.93,2.93,0,0,0,.32,2.69,1.52,1.52,0,0,0,1.26.67,1.79,1.79,0,0,0,.57-.09,3.5,3.5,0,0,0,.61-.28l.47-.26.6-.3a14.36,14.36,0,0,1,1.69-.73,4.9,4.9,0,0,1,1.61-.26,2.35,2.35,0,0,1,1.66.54A2,2,0,0,1,96,75.77a5.84,5.84,0,0,1-2,3.81l-6.36,6.63a3.29,3.29,0,0,0-1,2.34A2.18,2.18,0,0,0,89,90.83h11a3,3,0,0,0,2-.54,2.07,2.07,0,0,0,.65-1.68,2,2,0,0,0-.65-1.63A3.06,3.06,0,0,0,99.93,86.45Z"/></svg>