<svg id="Layer_1" data-name="Layer 1" xmlns="http://www.w3.org/2000/svg" viewBox="0 0 122.3 122.3"><title>l6_5_1</title><rect x="4.71" y="44.6" width="34.54" height="34.54"/><path d="M4.71,82.89H39.25a0,0,0,0,1,0,0v34.54a0,0,0,0,1,0,0H26.35A21.64,21.64,0,0,1,4.71,95.79V82.89A0,0,0,0,1,4.71,82.89Z"/><rect x="43.83" y="4.74" width="34.54" height="34.54"/><path d="M83.05,4.74h34.54a0,0,0,0,1,0,0V39.28a0,0,0,0,1,0,0h-12.9A21.64,21.64,0,0,1,83.05,17.64V4.74A0,0,0,0,1,83.05,4.74Z" transform="translate(200.65 44.02) rotate(-180)"/><path d="M10.76,25.8q0-4.14,5-4.14H27a5.56,5.56,0,0,1,3.75,1.08A3.86,3.86,0,0,1,32,25.8a4,4,0,0,1-1.23,3.09A5.46,5.46,0,0,1,27,30H15.74Q10.76,30,10.76,25.8Z"/><path d="M80.71,44.6h36.88V100a17.62,17.62,0,0,1-17.72,17.53h-56v-73ZM64,85.73H58l4.26-4.35A14.34,14.34,0,0,0,64.78,78a7.58,7.58,0,0,0,.73-3.35,5.48,5.48,0,0,0-.91-3.13,5.87,5.87,0,0,0-2.6-2.1,9.66,9.66,0,0,0-3.9-.74,12.25,12.25,0,0,0-6.63,2,2,2,0,0,0-.73.78,2.57,2.57,0,0,0-.2,1.08,2.6,2.6,0,0,0,.51,1.61,1.52,1.52,0,0,0,1.26.67,1.79,1.79,0,0,0,.57-.09,3.55,3.55,0,0,0,.62-.28l.46-.26.6-.3a14.43,14.43,0,0,1,1.7-.73,4.84,4.84,0,0,1,1.6-.26,2.38,2.38,0,0,1,1.67.54,2,2,0,0,1,.58,1.56,5.84,5.84,0,0,1-2,3.81l-6.36,6.63a3.29,3.29,0,0,0-1,2.34,2.18,2.18,0,0,0,2.34,2.28H64a3,3,0,0,0,2-.54,2.07,2.07,0,0,0,.64-1.68A2,2,0,0,0,66,86.26,3.11,3.11,0,0,0,64,85.73Zm7.53,4.56a2.77,2.77,0,0,0,2.06-.84,3,3,0,0,0,0-4.14,3,3,0,0,0-4.14,0,3,3,0,0,0,0,4.14A2.79,2.79,0,0,0,71.57,90.29Zm18.66-4.56h-6l4.26-4.35A14.34,14.34,0,0,0,91,78a7.72,7.72,0,0,0,.73-3.35,5.41,5.41,0,0,0-.92-3.13,5.84,5.84,0,0,0-2.59-2.1,9.66,9.66,0,0,0-3.9-.74,12.18,12.18,0,0,0-6.63,2,2,2,0,0,0-.73.78,2.42,2.42,0,0,0-.2,1.08,2.6,2.6,0,0,0,.51,1.61,1.52,1.52,0,0,0,1.26.67,1.79,1.79,0,0,0,.57-.09,3.92,3.92,0,0,0,.62-.28l.46-.26.6-.3a13.75,13.75,0,0,1,1.7-.73,4.84,4.84,0,0,1,1.6-.26,2.4,2.4,0,0,1,1.67.54,2,2,0,0,1,.58,1.56,5.84,5.84,0,0,1-2,3.81L78,85.49a3.29,3.29,0,0,0-1,2.34,2.18,2.18,0,0,0,2.34,2.28h11a3,3,0,0,0,2-.54,2.1,2.1,0,0,0,.64-1.68,2,2,0,0,0-.64-1.63A3.11,3.11,0,0,0,90.23,85.73Zm13.92-9.45a7.5,7.5,0,0,0-3,.54V73.13h6.48q2.61,0,2.61-2.1T107.66,69h-9.3a2.56,2.56,0,0,0-1.89.66,2.6,2.6,0,0,0-.66,1.92v8.13A1.65,1.65,0,0,0,96.38,81a2.07,2.07,0,0,0,1.41.49,2.87,2.87,0,0,0,1.35-.33,10.37,10.37,0,0,1,1.73-.54,8.15,8.15,0,0,1,1.63-.15,3.39,3.39,0,0,1,2.34.75,2.67,2.67,0,0,1,.84,2.1,2.61,2.61,0,0,1-.81,2.12,3.84,3.84,0,0,1-2.49.67,4.94,4.94,0,0,1-1.66-.27A16.76,16.76,0,0,1,99,85.1l-.6-.3a9.13,9.13,0,0,0-.9-.45,2,2,0,0,0-.75-.12,1.56,1.56,0,0,0-1.26.65A2.45,2.45,0,0,0,95,86.45a2.13,2.13,0,0,0,.23,1,2.62,2.62,0,0,0,.7.82A9.93,9.93,0,0,0,99,89.81a12.49,12.49,0,0,0,3.64.54,9.74,9.74,0,0,0,4.29-.9,6.75,6.75,0,0,0,2.88-2.55,7.1,7.1,0,0,0,1-3.81,7.2,7.2,0,0,0-.85-3.55,6.15,6.15,0,0,0-2.37-2.4A7,7,0,0,0,104.15,76.28Z"/></svg>