<svg id="Layer_1" data-name="Layer 1" xmlns="http://www.w3.org/2000/svg" viewBox="0 0 122.3 122.3"><title>l6_5_1</title><rect x="4.38" y="44.6" width="34.54" height="34.54"/><path d="M4.38,82.89H38.92a0,0,0,0,1,0,0v34.54a0,0,0,0,1,0,0H26A21.64,21.64,0,0,1,4.38,95.79V82.89A0,0,0,0,1,4.38,82.89Z"/><rect x="43.5" y="4.74" width="34.54" height="34.54"/><path d="M82.72,4.74h34.54a0,0,0,0,1,0,0V39.28a0,0,0,0,1,0,0h-12.9A21.64,21.64,0,0,1,82.72,17.64V4.74A0,0,0,0,1,82.72,4.74Z" transform="translate(199.99 44.02) rotate(-180)"/><path d="M10.43,25.8q0-4.14,5-4.14H26.69a5.56,5.56,0,0,1,3.75,1.08,3.86,3.86,0,0,1,1.23,3.06,4,4,0,0,1-1.23,3.09A5.46,5.46,0,0,1,26.69,30H15.41Q10.43,30,10.43,25.8Z"/><path d="M80.38,44.6h36.88V100a17.62,17.62,0,0,1-17.72,17.53h-56v-73ZM63.52,85.73H61.06V71.51a2.6,2.6,0,0,0-.73-2,2.66,2.66,0,0,0-1.94-.72,5.07,5.07,0,0,0-2.49.75l-4.8,2.79a2,2,0,0,0-1.05,1.86,2.54,2.54,0,0,0,.6,1.64,1.8,1.8,0,0,0,1.44.73,2,2,0,0,0,1-.3l2.4-1.41V85.73H53.11a3,3,0,0,0-2,.54,2,2,0,0,0-.63,1.62q0,2.22,2.61,2.22H63.52q2.61,0,2.61-2.22a2,2,0,0,0-.63-1.62A3,3,0,0,0,63.52,85.73Zm6.72,4.56a2.77,2.77,0,0,0,2.06-.84,3,3,0,0,0,0-4.14,3,3,0,0,0-4.14,0,2.91,2.91,0,0,0,2.08,5ZM89.38,69H77.62a2.94,2.94,0,0,0-2,.56A2.09,2.09,0,0,0,75,71.18a2,2,0,0,0,.61,1.62,3,3,0,0,0,2,.54h7.5L77.41,86.51A2.84,2.84,0,0,0,77,88a2.21,2.21,0,0,0,.81,1.73,2.75,2.75,0,0,0,1.86.7A2.61,2.61,0,0,0,80.94,90,2.87,2.87,0,0,0,82,89l9.09-15.75a3.83,3.83,0,0,0,.57-2A2.29,2.29,0,0,0,91,69.61,2.12,2.12,0,0,0,89.38,69Zm13.41,7.32a7.5,7.5,0,0,0-3,.54V73.13h6.48q2.61,0,2.61-2.1T106.3,69H97a2.56,2.56,0,0,0-1.89.66,2.6,2.6,0,0,0-.66,1.92v8.13A1.65,1.65,0,0,0,95,81a2.07,2.07,0,0,0,1.41.49,2.87,2.87,0,0,0,1.35-.33,10.59,10.59,0,0,1,1.72-.54,8.25,8.25,0,0,1,1.64-.15,3.39,3.39,0,0,1,2.34.75,2.67,2.67,0,0,1,.84,2.1,2.61,2.61,0,0,1-.81,2.12,3.84,3.84,0,0,1-2.49.67,4.9,4.9,0,0,1-1.66-.27,16.76,16.76,0,0,1-1.7-.72l-.6-.3a9.13,9.13,0,0,0-.9-.45,2,2,0,0,0-.75-.12,1.56,1.56,0,0,0-1.26.65,2.45,2.45,0,0,0-.51,1.57,2.25,2.25,0,0,0,.22,1,2.81,2.81,0,0,0,.71.82,9.83,9.83,0,0,0,3.08,1.5,12.44,12.44,0,0,0,3.64.54,9.74,9.74,0,0,0,4.29-.9,6.75,6.75,0,0,0,2.88-2.55,7.1,7.1,0,0,0,1-3.81,7.2,7.2,0,0,0-.86-3.55,6,6,0,0,0-2.37-2.4A6.91,6.91,0,0,0,102.79,76.28Z"/></svg>