<svg id="Layer_1" data-name="Layer 1" xmlns="http://www.w3.org/2000/svg" viewBox="0 0 122.3 122.3"><title>l6_5_1</title><rect x="3.74" y="45.32" width="34.54" height="34.54"/><path d="M3.74,83.61H38.28a0,0,0,0,1,0,0v34.54a0,0,0,0,1,0,0H25.37A21.64,21.64,0,0,1,3.74,96.51V83.61A0,0,0,0,1,3.74,83.61Z"/><rect x="42.85" y="5.46" width="34.54" height="34.54"/><path d="M82.08,5.46h34.54a0,0,0,0,1,0,0V40a0,0,0,0,1,0,0h-12.9A21.64,21.64,0,0,1,82.08,18.36V5.46A0,0,0,0,1,82.08,5.46Z" transform="translate(198.7 45.46) rotate(-180)"/><path d="M9.79,26.52q0-4.14,5-4.14H26.05a5.56,5.56,0,0,1,3.75,1.08A3.86,3.86,0,0,1,31,26.52a4,4,0,0,1-1.23,3.09,5.46,5.46,0,0,1-3.75,1.11H14.77Q9.79,30.72,9.79,26.52Z"/><path d="M79.74,45.32h36.88v55.44A17.62,17.62,0,0,1,98.9,118.29h-56v-73ZM66.66,91.1a7,7,0,0,0,6-2.79q2.07-2.79,2.07-8.07t-2.09-8a7,7,0,0,0-6-2.79,7,7,0,0,0-6,2.79q-2.07,2.79-2.07,8t2.07,8.07A7,7,0,0,0,66.66,91.1Zm0-4.17a2.15,2.15,0,0,1-2.07-1.56A14.94,14.94,0,0,1,64,80.24a14.76,14.76,0,0,1,.63-5.11,2.16,2.16,0,0,1,4.14,0,14.81,14.81,0,0,1,.63,5.1,14.94,14.94,0,0,1-.63,5.13A2.15,2.15,0,0,1,66.66,86.93ZM79.74,91a2.75,2.75,0,0,0,2.05-.84,3,3,0,0,0,0-4.14,2.75,2.75,0,0,0-2.05-.84,2.91,2.91,0,1,0,0,5.82Zm19.44-4.56H96.72V72.23a2.61,2.61,0,0,0-.74-2,2.63,2.63,0,0,0-1.93-.72,5.07,5.07,0,0,0-2.49.75l-4.8,2.79A2,2,0,0,0,85.71,75a2.54,2.54,0,0,0,.6,1.64,1.8,1.8,0,0,0,1.44.73,2,2,0,0,0,1-.3l2.4-1.41V86.45H88.77a3,3,0,0,0-2,.54,2,2,0,0,0-.63,1.62q0,2.22,2.61,2.22H99.18q2.61,0,2.61-2.22a2,2,0,0,0-.63-1.62A3,3,0,0,0,99.18,86.45Z"/></svg>