<svg id="Layer_1" data-name="Layer 1" xmlns="http://www.w3.org/2000/svg" viewBox="0 0 122.3 122.3"><title>l6_5_1</title><rect x="4.17" y="45.1" width="34.54" height="34.54"/><path d="M4.17,83.39H38.71a0,0,0,0,1,0,0v34.54a0,0,0,0,1,0,0H25.81A21.64,21.64,0,0,1,4.17,96.29V83.39A0,0,0,0,1,4.17,83.39Z"/><rect x="43.29" y="5.24" width="34.54" height="34.54"/><path d="M82.52,5.24h34.54a0,0,0,0,1,0,0V39.78a0,0,0,0,1,0,0h-12.9A21.64,21.64,0,0,1,82.52,18.14V5.24A0,0,0,0,1,82.52,5.24Z" transform="translate(199.58 45.02) rotate(-180)"/><path d="M10.22,26.3q0-4.14,5-4.14H26.48a5.54,5.54,0,0,1,3.75,1.08,3.86,3.86,0,0,1,1.23,3.06,4,4,0,0,1-1.23,3.09,5.44,5.44,0,0,1-3.75,1.11H15.21Q10.22,30.5,10.22,26.3Z"/><path d="M80.17,45.1h36.89v55.43a17.62,17.62,0,0,1-17.72,17.53h-56v-73Zm2.44,14.76a6.38,6.38,0,0,0-2.8.61,5.28,5.28,0,0,0-2,1.68A8.86,8.86,0,0,1,79,57.82a3.16,3.16,0,0,1,2.73-1.54,4.64,4.64,0,0,1,1.53.26c.48.18,1.09.45,1.82.8l.73.36a9.67,9.67,0,0,0,1,.49,2.11,2.11,0,0,0,.82.14,1.72,1.72,0,0,0,1.41-.71,2.63,2.63,0,0,0,.58-1.74,2.52,2.52,0,0,0-.24-1.16,2.81,2.81,0,0,0-.82-.89,10.6,10.6,0,0,0-3.33-1.66,12.8,12.8,0,0,0-3.8-.6,9,9,0,0,0-5.15,1.49,9.66,9.66,0,0,0-3.41,4.26,16.06,16.06,0,0,0-1.22,6.49c0,3.75.85,6.65,2.56,8.68a8.9,8.9,0,0,0,7.22,3.05,8.47,8.47,0,0,0,4.21-1,7.41,7.41,0,0,0,2.91-2.86,8.89,8.89,0,0,0,.13-8.09,6.85,6.85,0,0,0-2.5-2.72A6.77,6.77,0,0,0,82.61,59.86Zm-1.52,11A2.69,2.69,0,0,1,79,70a3.7,3.7,0,0,1,0-4.56,2.95,2.95,0,0,1,4.14,0,3.87,3.87,0,0,1,0,4.59A2.61,2.61,0,0,1,81.09,70.87ZM87.4,87.61h-13a3.23,3.23,0,0,0-2.18.61,2.3,2.3,0,0,0-.7,1.84,2.28,2.28,0,0,0,.68,1.79,3.29,3.29,0,0,0,2.2.6h8.29L74.17,107a3.12,3.12,0,0,0-.46,1.59,2.46,2.46,0,0,0,.89,1.91,3,3,0,0,0,2.06.78,2.83,2.83,0,0,0,1.41-.39,3.06,3.06,0,0,0,1.14-1.17L89.26,92.31a4.19,4.19,0,0,0,.63-2.18,2.59,2.59,0,0,0-.65-1.81A2.35,2.35,0,0,0,87.4,87.61Zm11.39-6.09h0A2.51,2.51,0,0,0,96.28,79H64.07a2.51,2.51,0,0,0-2.51,2.51h0A2.51,2.51,0,0,0,64.07,84H96.28A2.51,2.51,0,0,0,98.79,81.52Z"/></svg>