<svg id="Layer_1" data-name="Layer 1" xmlns="http://www.w3.org/2000/svg" viewBox="0 0 122.3 122.3"><title>l6_5_1</title><rect x="4.37" y="45.82" width="34.54" height="34.54"/><path d="M4.37,84.11H38.91a0,0,0,0,1,0,0v34.54a0,0,0,0,1,0,0H26A21.64,21.64,0,0,1,4.37,97V84.11A0,0,0,0,1,4.37,84.11Z"/><rect x="43.49" y="5.96" width="34.54" height="34.54"/><path d="M82.72,6h34.54a0,0,0,0,1,0,0V40.5a0,0,0,0,1,0,0h-12.9A21.64,21.64,0,0,1,82.72,18.86V6A0,0,0,0,1,82.72,6Z" transform="translate(199.97 46.46) rotate(-180)"/><path d="M10.42,27q0-4.14,5-4.14H26.68A5.56,5.56,0,0,1,30.43,24,3.86,3.86,0,0,1,31.66,27a4,4,0,0,1-1.23,3.09,5.46,5.46,0,0,1-3.75,1.11H15.4Q10.42,31.22,10.42,27Z"/><path d="M80.37,45.82h36.89v55.44a17.63,17.63,0,0,1-17.73,17.53h-56v-73Zm2.08,14.86a8.21,8.21,0,0,0-3.28.6V57.2h7.16c1.92,0,2.88-.77,2.88-2.32s-1-2.29-2.88-2.29H76.05a2.81,2.81,0,0,0-2.09.73,2.86,2.86,0,0,0-.73,2.12v9a1.83,1.83,0,0,0,.63,1.44,2.32,2.32,0,0,0,1.56.55,3.19,3.19,0,0,0,1.49-.37,11.57,11.57,0,0,1,1.91-.6,9.09,9.09,0,0,1,1.81-.16,3.71,3.71,0,0,1,2.58.83,2.93,2.93,0,0,1,.93,2.32,2.84,2.84,0,0,1-.9,2.33,4.2,4.2,0,0,1-2.75.75,5.5,5.5,0,0,1-1.84-.3,18.75,18.75,0,0,1-1.87-.79l-.66-.33a10,10,0,0,0-1-.5,2.23,2.23,0,0,0-.83-.13,1.7,1.7,0,0,0-1.39.71,2.67,2.67,0,0,0-.56,1.74,2.4,2.4,0,0,0,.25,1.14,2.79,2.79,0,0,0,.77.91,11,11,0,0,0,3.4,1.66,13.81,13.81,0,0,0,4,.6,10.66,10.66,0,0,0,4.74-1,7.45,7.45,0,0,0,3.18-2.81,7.87,7.87,0,0,0,1.13-4.21,8,8,0,0,0-.94-3.93,6.77,6.77,0,0,0-2.62-2.66A7.79,7.79,0,0,0,82.45,60.68Zm.44,35.64a6.35,6.35,0,0,0-2.8.61,5.35,5.35,0,0,0-2,1.67,8.86,8.86,0,0,1,1.24-4.32A3.18,3.18,0,0,1,82,92.74a4.3,4.3,0,0,1,1.52.26,19.11,19.11,0,0,1,1.83.8l.72.36c.42.22.76.38,1,.48a2.16,2.16,0,0,0,.83.15,1.78,1.78,0,0,0,1.41-.71,2.72,2.72,0,0,0,.58-1.74,2.49,2.49,0,0,0-.25-1.16,3,3,0,0,0-.81-.9,10.77,10.77,0,0,0-3.34-1.66A13.05,13.05,0,0,0,81.73,88a9,9,0,0,0-5.16,1.49,9.55,9.55,0,0,0-3.41,4.26A16,16,0,0,0,72,100.26c0,3.76.85,6.65,2.55,8.69a8.91,8.91,0,0,0,7.23,3,8.61,8.61,0,0,0,4.21-1,7.41,7.41,0,0,0,2.9-2.87A8.89,8.89,0,0,0,89,100a6.92,6.92,0,0,0-2.5-2.72A6.72,6.72,0,0,0,82.89,96.32Zm-1.53,11a2.62,2.62,0,0,1-2-.88,3.67,3.67,0,0,1,0-4.55,2.93,2.93,0,0,1,4.15,0,3.38,3.38,0,0,1,.74,2.3,3.32,3.32,0,0,1-.76,2.29A2.59,2.59,0,0,1,81.36,107.32ZM99.44,82.24h0a2.51,2.51,0,0,0-2.51-2.51H64.72a2.51,2.51,0,0,0-2.51,2.51h0a2.51,2.51,0,0,0,2.51,2.51H96.93A2.52,2.52,0,0,0,99.44,82.24Z"/></svg>