<svg id="Layer_1" data-name="Layer 1" xmlns="http://www.w3.org/2000/svg" viewBox="0 0 122.3 122.3"><title>l6_5_1</title><rect x="4.39" y="46.15" width="34.54" height="34.54"/><path d="M4.39,84.44H38.93a0,0,0,0,1,0,0V119a0,0,0,0,1,0,0H26A21.64,21.64,0,0,1,4.39,97.34V84.44A0,0,0,0,1,4.39,84.44Z"/><rect x="43.51" y="6.28" width="34.54" height="34.54"/><path d="M82.73,6.28h34.54a0,0,0,0,1,0,0V40.83a0,0,0,0,1,0,0h-12.9A21.64,21.64,0,0,1,82.73,19.19V6.28A0,0,0,0,1,82.73,6.28Z" transform="translate(200 47.11) rotate(-180)"/><path d="M10.44,27.35q0-4.14,5-4.14H26.7a5.56,5.56,0,0,1,3.75,1.08,3.86,3.86,0,0,1,1.23,3.06,4,4,0,0,1-1.23,3.09,5.46,5.46,0,0,1-3.75,1.11H15.42Q10.44,31.55,10.44,27.35Z"/><path d="M80.39,46.15h36.88v55.43a17.62,17.62,0,0,1-17.72,17.53h-56v-73Zm4.66,18.1a5.29,5.29,0,0,0,2.64-2,5.51,5.51,0,0,0,.94-3.2,5.81,5.81,0,0,0-1-3.38,6.58,6.58,0,0,0-2.88-2.26,11,11,0,0,0-4.33-.79,13.2,13.2,0,0,0-3.93.6,11,11,0,0,0-3.36,1.65,2.27,2.27,0,0,0-1,2.06,2.71,2.71,0,0,0,.56,1.74,1.73,1.73,0,0,0,1.39.71,2.16,2.16,0,0,0,.83-.15c.25-.1.58-.26,1-.48l.69-.33a19.6,19.6,0,0,1,1.81-.8,5.21,5.21,0,0,1,1.74-.29,2.81,2.81,0,0,1,2,.68,2.44,2.44,0,0,1,.73,1.9A1.83,1.83,0,0,1,82,61.6a5,5,0,0,1-2.65.53H77.92a1.92,1.92,0,0,0-1.56.7,2.58,2.58,0,0,0-.56,1.66,2.55,2.55,0,0,0,.56,1.65,1.89,1.89,0,0,0,1.56.7H80a5.07,5.07,0,0,1,2.72.56,2.1,2.1,0,0,1,.82,1.86,2.28,2.28,0,0,1-.81,2,4.58,4.58,0,0,1-2.67.6,6.22,6.22,0,0,1-1.9-.28,14.78,14.78,0,0,1-1.91-.82l-.41-.18-.32-.15q-.63-.33-1-.48a2.16,2.16,0,0,0-.83-.15,1.72,1.72,0,0,0-1.39.71,2.72,2.72,0,0,0-.57,1.74,2.3,2.3,0,0,0,1,2.06A10.45,10.45,0,0,0,76.2,76a14.58,14.58,0,0,0,4.14.58A12.45,12.45,0,0,0,85,75.74a7,7,0,0,0,3.1-2.3,5.81,5.81,0,0,0,1.1-3.52,5.87,5.87,0,0,0-1.11-3.61A5.68,5.68,0,0,0,85.05,64.25Zm3,39.19h-.73v-12a2.8,2.8,0,0,0-.89-2.22,3.13,3.13,0,0,0-2.15-.8,3.38,3.38,0,0,0-1.48.35,3,3,0,0,0-1.18,1l-9.48,13.53a3.67,3.67,0,0,0-.73,2.19,2.51,2.51,0,0,0,.7,1.82,2.46,2.46,0,0,0,1.89.73h7.39v1.13a3,3,0,0,0,.81,2.25,3,3,0,0,0,2.14.76,3.08,3.08,0,0,0,2.16-.76,2.92,2.92,0,0,0,.82-2.25v-1.13H88c1.93,0,2.89-.79,2.89-2.35S90,103.44,88,103.44Zm-10.64,0,4-5.74v5.74ZM99,82.56h0a2.51,2.51,0,0,0-2.51-2.51H64.29a2.52,2.52,0,0,0-2.52,2.51h0a2.51,2.51,0,0,0,2.52,2.51h32.2A2.51,2.51,0,0,0,99,82.56Z"/></svg>