<svg id="Layer_1" data-name="Layer 1" xmlns="http://www.w3.org/2000/svg" viewBox="0 0 122.3 122.3"><title>l6_5_1</title><rect x="4.04" y="44.6" width="34.54" height="34.54"/><path d="M4,82.89H38.58a0,0,0,0,1,0,0v34.54a0,0,0,0,1,0,0H25.68A21.64,21.64,0,0,1,4,95.79V82.89A0,0,0,0,1,4,82.89Z"/><rect x="43.16" y="4.74" width="34.54" height="34.54"/><path d="M82.38,4.74h34.54a0,0,0,0,1,0,0V39.28a0,0,0,0,1,0,0H104A21.64,21.64,0,0,1,82.38,17.64V4.74A0,0,0,0,1,82.38,4.74Z" transform="translate(199.31 44.02) rotate(-180)"/><path d="M10.09,25.8q0-4.14,5-4.14H26.35a5.56,5.56,0,0,1,3.75,1.08,3.86,3.86,0,0,1,1.23,3.06,4,4,0,0,1-1.23,3.09A5.46,5.46,0,0,1,26.35,30H15.07Q10.09,30,10.09,25.8Z"/><path d="M80,44.6h36.88V100A17.62,17.62,0,0,1,99.2,117.56h-56v-73ZM58,90.38a7,7,0,0,0,6-2.79Q66,84.8,66,79.52t-2.09-8a7,7,0,0,0-6-2.79,7,7,0,0,0-6,2.79q-2.07,2.79-2.07,8T52,87.59A7,7,0,0,0,58,90.38Zm0-4.17a2.15,2.15,0,0,1-2.07-1.56,14.94,14.94,0,0,1-.63-5.13,14.76,14.76,0,0,1,.63-5.11,2.16,2.16,0,0,1,4.14,0,14.81,14.81,0,0,1,.63,5.1A14.94,14.94,0,0,1,60,84.65,2.15,2.15,0,0,1,58,86.21ZM71,90.29a2.75,2.75,0,0,0,2-.84,3,3,0,0,0,0-4.14,2.75,2.75,0,0,0-2-.84,2.91,2.91,0,1,0,0,5.82Zm18.66-4.56h-6l4.26-4.35A13.8,13.8,0,0,0,90.42,78a7.58,7.58,0,0,0,.73-3.35,5.48,5.48,0,0,0-.91-3.13,5.84,5.84,0,0,0-2.59-2.1,9.71,9.71,0,0,0-3.91-.74,11.71,11.71,0,0,0-3.46.54,11.87,11.87,0,0,0-3.17,1.5,2,2,0,0,0-.73.78,3,3,0,0,0,.31,2.69,1.52,1.52,0,0,0,1.26.67,1.75,1.75,0,0,0,.57-.09,3.55,3.55,0,0,0,.62-.28l.46-.26.6-.3a15.18,15.18,0,0,1,1.7-.73A4.85,4.85,0,0,1,83.51,73a2.35,2.35,0,0,1,1.66.54,2,2,0,0,1,.59,1.56,5.81,5.81,0,0,1-2,3.81l-6.36,6.63a3.27,3.27,0,0,0-1,2.34A2.25,2.25,0,0,0,77,89.47a2.29,2.29,0,0,0,1.71.64h11a3,3,0,0,0,2-.54,2.07,2.07,0,0,0,.65-1.68,2,2,0,0,0-.65-1.63A3.08,3.08,0,0,0,89.69,85.73Zm13.91-9.45a7.48,7.48,0,0,0-3,.54V73.13h6.48c1.73,0,2.61-.7,2.61-2.1S108.85,69,107.12,69H97.81a2.52,2.52,0,0,0-1.88.66,2.56,2.56,0,0,0-.66,1.92v8.13A1.65,1.65,0,0,0,95.84,81a2.07,2.07,0,0,0,1.41.49,2.87,2.87,0,0,0,1.35-.33,10.59,10.59,0,0,1,1.72-.54,8.18,8.18,0,0,1,1.64-.15,3.41,3.41,0,0,1,2.34.75,2.7,2.7,0,0,1,.84,2.1,2.61,2.61,0,0,1-.81,2.12,3.84,3.84,0,0,1-2.49.67,5,5,0,0,1-1.67-.27,16.67,16.67,0,0,1-1.69-.72l-.6-.3a9.13,9.13,0,0,0-.9-.45,2.11,2.11,0,0,0-.75-.12,1.56,1.56,0,0,0-1.26.65,2.39,2.39,0,0,0-.51,1.57,2.25,2.25,0,0,0,.22,1,2.54,2.54,0,0,0,.71.82,9.77,9.77,0,0,0,3.07,1.5,12.49,12.49,0,0,0,3.64.54,9.78,9.78,0,0,0,4.3-.9,6.67,6.67,0,0,0,2.87-2.55,7.1,7.1,0,0,0,1-3.81,7.2,7.2,0,0,0-.86-3.55,6.08,6.08,0,0,0-2.37-2.4A7,7,0,0,0,103.6,76.28Z"/></svg>