<svg id="Layer_1" data-name="Layer 1" xmlns="http://www.w3.org/2000/svg" viewBox="0 0 122.3 122.3"><title>l6_5_1</title><rect x="3.49" y="46.1" width="34.54" height="34.54"/><path d="M3.49,84.39H38a0,0,0,0,1,0,0v34.54a0,0,0,0,1,0,0H25.13A21.64,21.64,0,0,1,3.49,97.29V84.39A0,0,0,0,1,3.49,84.39Z"/><rect x="42.61" y="6.24" width="34.54" height="34.54"/><path d="M81.84,6.24h34.54a0,0,0,0,1,0,0V40.78a0,0,0,0,1,0,0h-12.9A21.64,21.64,0,0,1,81.84,19.14V6.24A0,0,0,0,1,81.84,6.24Z" transform="translate(198.22 47.02) rotate(-180)"/><path d="M9.54,27.3q0-4.14,5-4.14H25.8a5.54,5.54,0,0,1,3.75,1.08,3.86,3.86,0,0,1,1.24,3.06,4,4,0,0,1-1.24,3.09A5.44,5.44,0,0,1,25.8,31.5H14.53Q9.54,31.5,9.54,27.3Z"/><path d="M79.49,46.1h36.89v55.43a17.62,17.62,0,0,1-17.72,17.53h-56v-73Zm7.58,21.56h-.73v-12a2.8,2.8,0,0,0-.89-2.22,3.16,3.16,0,0,0-2.16-.8,3.34,3.34,0,0,0-1.47.35,3,3,0,0,0-1.18,1L71.16,67.56a3.66,3.66,0,0,0-.73,2.18,2.54,2.54,0,0,0,.7,1.83A2.5,2.5,0,0,0,73,72.3h7.39v1.12a3,3,0,0,0,.81,2.26,3,3,0,0,0,2.14.76,3.08,3.08,0,0,0,2.16-.76,2.93,2.93,0,0,0,.82-2.26V72.3h.73C89,72.3,90,71.51,90,69.94S89,67.66,87.07,67.66Zm-10.64,0,4-5.74v5.74Zm5.22,29a8.29,8.29,0,0,0-3.29.6V93.21h7.17c1.92,0,2.88-.77,2.88-2.32s-1-2.28-2.88-2.28H75.25a2.85,2.85,0,0,0-2.09.72,2.88,2.88,0,0,0-.73,2.13v9a1.8,1.8,0,0,0,.63,1.44,2.27,2.27,0,0,0,1.56.55,3.18,3.18,0,0,0,1.49-.36,11.28,11.28,0,0,1,1.91-.6,9,9,0,0,1,1.8-.17,3.77,3.77,0,0,1,2.59.83,3,3,0,0,1,.93,2.32,2.87,2.87,0,0,1-.9,2.34,4.2,4.2,0,0,1-2.75.75,5.46,5.46,0,0,1-1.84-.3,19,19,0,0,1-1.87-.8l-.67-.33c-.44-.24-.77-.41-1-.5a2.23,2.23,0,0,0-.83-.13,1.72,1.72,0,0,0-1.39.71,2.71,2.71,0,0,0-.56,1.74,2.54,2.54,0,0,0,.24,1.15,3.08,3.08,0,0,0,.78.91,11,11,0,0,0,3.4,1.66,14.14,14.14,0,0,0,4,.59,10.8,10.8,0,0,0,4.74-1,7.41,7.41,0,0,0,3.18-2.82A7.84,7.84,0,0,0,89,104.22a8,8,0,0,0-1-3.93,6.72,6.72,0,0,0-2.61-2.65A7.69,7.69,0,0,0,81.65,96.69ZM98.56,82.58h0a2.51,2.51,0,0,0-2.51-2.51H63.84a2.51,2.51,0,0,0-2.51,2.51h0a2.51,2.51,0,0,0,2.51,2.51H96.05A2.51,2.51,0,0,0,98.56,82.58Z"/></svg>