<svg id="Layer_1" data-name="Layer 1" xmlns="http://www.w3.org/2000/svg" viewBox="0 0 122.3 122.3"><title>l6_5_1</title><rect x="4.08" y="45.32" width="34.54" height="34.54"/><path d="M4.08,83.61H38.62a0,0,0,0,1,0,0v34.54a0,0,0,0,1,0,0H25.71A21.64,21.64,0,0,1,4.08,96.51V83.61A0,0,0,0,1,4.08,83.61Z"/><rect x="43.2" y="5.46" width="34.54" height="34.54"/><path d="M82.42,5.46H117a0,0,0,0,1,0,0V40a0,0,0,0,1,0,0h-12.9A21.64,21.64,0,0,1,82.42,18.36V5.46A0,0,0,0,1,82.42,5.46Z" transform="translate(199.38 45.46) rotate(-180)"/><path d="M10.13,26.52q0-4.14,5-4.14H26.39a5.56,5.56,0,0,1,3.75,1.08,3.86,3.86,0,0,1,1.23,3.06,4,4,0,0,1-1.23,3.09,5.46,5.46,0,0,1-3.75,1.11H15.11Q10.13,30.72,10.13,26.52Z"/><path d="M80.08,45.32H117v55.44a17.62,17.62,0,0,1-17.72,17.53h-56v-73ZM63.86,91.1a7,7,0,0,0,6-2.79q2.07-2.79,2.07-8.07t-2.09-8a7,7,0,0,0-6-2.79,7,7,0,0,0-6,2.79q-2.07,2.79-2.07,8t2.07,8.07A7,7,0,0,0,63.86,91.1Zm0-4.17a2.15,2.15,0,0,1-2.07-1.56,14.94,14.94,0,0,1-.63-5.13,14.76,14.76,0,0,1,.63-5.11,2.16,2.16,0,0,1,4.14,0,14.81,14.81,0,0,1,.63,5.1,14.94,14.94,0,0,1-.63,5.13A2.15,2.15,0,0,1,63.86,86.93ZM76.94,91a2.75,2.75,0,0,0,2-.84A3,3,0,0,0,79,86a2.75,2.75,0,0,0-2-.84,2.91,2.91,0,1,0,0,5.82ZM93.83,79.94a4.84,4.84,0,0,0,2.38-1.81,5,5,0,0,0,.86-2.9,5.24,5.24,0,0,0-.92-3.06,5.87,5.87,0,0,0-2.61-2,9.92,9.92,0,0,0-3.91-.72,12.06,12.06,0,0,0-3.56.54,9.93,9.93,0,0,0-3,1.5,2.42,2.42,0,0,0-.72.81,2.34,2.34,0,0,0-.21,1,2.47,2.47,0,0,0,.51,1.58,1.54,1.54,0,0,0,1.26.64,2,2,0,0,0,.75-.13c.22-.09.52-.24.9-.44l.63-.3a16.15,16.15,0,0,1,1.63-.72,4.56,4.56,0,0,1,1.58-.27,2.58,2.58,0,0,1,1.83.62A2.23,2.23,0,0,1,91.85,76a1.68,1.68,0,0,1-.75,1.53,4.59,4.59,0,0,1-2.4.48H87.38a1.71,1.71,0,0,0-1.41.63,2.46,2.46,0,0,0,0,3,1.71,1.71,0,0,0,1.41.63h1.86a4.51,4.51,0,0,1,2.46.51,1.88,1.88,0,0,1,.75,1.68,2.09,2.09,0,0,1-.74,1.8,4.14,4.14,0,0,1-2.41.54,5.48,5.48,0,0,1-1.73-.25,13.47,13.47,0,0,1-1.72-.74l-.38-.16-.28-.14c-.38-.2-.68-.34-.9-.43a2,2,0,0,0-.75-.14,1.56,1.56,0,0,0-1.26.65,2.45,2.45,0,0,0-.51,1.57,2.38,2.38,0,0,0,.21,1,2.35,2.35,0,0,0,.72.82,9.65,9.65,0,0,0,3.12,1.52,13.32,13.32,0,0,0,3.75.52,11.24,11.24,0,0,0,4.24-.73,6.33,6.33,0,0,0,2.81-2.09,5.23,5.23,0,0,0,1-3.18,5.32,5.32,0,0,0-1-3.27A5.09,5.09,0,0,0,93.83,79.94Z"/></svg>