<svg id="Layer_1" data-name="Layer 1" xmlns="http://www.w3.org/2000/svg" viewBox="0 0 122.3 122.3"><title>l6_5_1</title><rect x="5.01" y="44.6" width="34.54" height="34.54"/><path d="M5,82.89H39.55a0,0,0,0,1,0,0v34.54a0,0,0,0,1,0,0H26.64A21.64,21.64,0,0,1,5,95.79V82.89A0,0,0,0,1,5,82.89Z"/><rect x="44.13" y="4.74" width="34.54" height="34.54"/><path d="M83.35,4.74h34.54a0,0,0,0,1,0,0V39.28a0,0,0,0,1,0,0H105A21.64,21.64,0,0,1,83.35,17.64V4.74A0,0,0,0,1,83.35,4.74Z" transform="translate(201.24 44.02) rotate(-180)"/><path d="M11.06,25.8q0-4.14,5-4.14H27.32a5.56,5.56,0,0,1,3.75,1.08A3.86,3.86,0,0,1,32.3,25.8a4,4,0,0,1-1.23,3.09A5.46,5.46,0,0,1,27.32,30H16Q11.06,30,11.06,25.8Z"/><path d="M81,44.6h36.88V100a17.62,17.62,0,0,1-17.72,17.53h-56v-73ZM59.5,90.38a7,7,0,0,0,6-2.79c1.38-1.86,2.08-4.55,2.08-8.07s-.7-6.18-2.09-8a7,7,0,0,0-6-2.79,7,7,0,0,0-6,2.79c-1.37,1.86-2.07,4.54-2.07,8s.7,6.21,2.07,8.07A7,7,0,0,0,59.5,90.38Zm0-4.17a2.16,2.16,0,0,1-2.07-1.56,14.94,14.94,0,0,1-.63-5.13,14.76,14.76,0,0,1,.63-5.11,2.16,2.16,0,0,1,4.15,0,14.81,14.81,0,0,1,.63,5.1,14.94,14.94,0,0,1-.63,5.13A2.16,2.16,0,0,1,59.5,86.21Zm13.09,4.08a2.77,2.77,0,0,0,2-.84,3,3,0,0,0,0-4.14,2.77,2.77,0,0,0-2-.84,2.81,2.81,0,0,0-2.09.84,3,3,0,0,0,0,4.14A2.81,2.81,0,0,0,72.59,90.29Zm14.54-14a7.5,7.5,0,0,0-3,.54V73.13h6.48q2.61,0,2.61-2.1T90.64,69h-9.3a2.56,2.56,0,0,0-1.89.66,2.6,2.6,0,0,0-.66,1.92v8.13A1.65,1.65,0,0,0,79.36,81a2.07,2.07,0,0,0,1.41.49,2.87,2.87,0,0,0,1.35-.33,10.66,10.66,0,0,1,1.73-.54,8.15,8.15,0,0,1,1.63-.15,3.39,3.39,0,0,1,2.34.75,2.67,2.67,0,0,1,.84,2.1,2.61,2.61,0,0,1-.81,2.12,3.84,3.84,0,0,1-2.49.67,4.94,4.94,0,0,1-1.66-.27A16.76,16.76,0,0,1,82,85.1l-.6-.3a9.13,9.13,0,0,0-.9-.45,2,2,0,0,0-.75-.12,1.56,1.56,0,0,0-1.26.65A2.45,2.45,0,0,0,78,86.45a2.25,2.25,0,0,0,.23,1,2.62,2.62,0,0,0,.7.82A9.93,9.93,0,0,0,82,89.81a12.49,12.49,0,0,0,3.64.54,9.74,9.74,0,0,0,4.29-.9A6.75,6.75,0,0,0,92.8,86.9a7.1,7.1,0,0,0,1-3.81A7.2,7.2,0,0,0,93,79.54a6.08,6.08,0,0,0-2.37-2.4A7,7,0,0,0,87.13,76.28Zm16.53,14.1a7,7,0,0,0,6-2.79q2.07-2.79,2.07-8.07t-2.08-8a7.84,7.84,0,0,0-12,0q-2.07,2.79-2.07,8t2.07,8.07A7,7,0,0,0,103.66,90.38Zm0-4.17a2.15,2.15,0,0,1-2.07-1.56,14.94,14.94,0,0,1-.63-5.13,14.76,14.76,0,0,1,.63-5.11,2.16,2.16,0,0,1,4.14,0,14.81,14.81,0,0,1,.63,5.1,14.94,14.94,0,0,1-.63,5.13A2.15,2.15,0,0,1,103.66,86.21Z"/></svg>