<svg id="Layer_1" data-name="Layer 1" xmlns="http://www.w3.org/2000/svg" viewBox="0 0 122.3 122.3"><title>l6_5_1</title><rect x="4.26" y="45.15" width="34.54" height="34.54"/><path d="M4.26,83.44H38.8a0,0,0,0,1,0,0V118a0,0,0,0,1,0,0H25.9A21.64,21.64,0,0,1,4.26,96.34V83.44A0,0,0,0,1,4.26,83.44Z"/><rect x="43.38" y="5.28" width="34.54" height="34.54"/><path d="M82.61,5.28h34.54a0,0,0,0,1,0,0V39.83a0,0,0,0,1,0,0h-12.9A21.64,21.64,0,0,1,82.61,18.19V5.28A0,0,0,0,1,82.61,5.28Z" transform="translate(199.75 45.11) rotate(-180)"/><path d="M10.31,26.35q0-4.14,5-4.14H26.57a5.56,5.56,0,0,1,3.75,1.08,3.86,3.86,0,0,1,1.23,3.06,4,4,0,0,1-1.23,3.09,5.46,5.46,0,0,1-3.75,1.11H15.29Q10.31,30.55,10.31,26.35Z"/><path d="M80.26,45.15h36.89v55.43a17.63,17.63,0,0,1-17.73,17.53h-56v-73Zm6.6,25.3H80.2l4.71-4.81a15.52,15.52,0,0,0,2.77-3.73,8.35,8.35,0,0,0,.81-3.69,6.12,6.12,0,0,0-1-3.47,6.52,6.52,0,0,0-2.87-2.32,10.69,10.69,0,0,0-4.31-.81A13.63,13.63,0,0,0,73,53.87a2.4,2.4,0,0,0-.81.86,2.93,2.93,0,0,0-.21,1.2,2.83,2.83,0,0,0,.56,1.77,1.69,1.69,0,0,0,1.39.75,2.19,2.19,0,0,0,.63-.1,3.67,3.67,0,0,0,.68-.32l.52-.28.66-.33a17.37,17.37,0,0,1,1.87-.81A5.3,5.3,0,0,1,80,56.33a2.64,2.64,0,0,1,1.85.59,2.25,2.25,0,0,1,.64,1.73q0,1.92-2.19,4.21l-7,7.32a3.62,3.62,0,0,0-1.13,2.59,2.51,2.51,0,0,0,.69,1.81,2.56,2.56,0,0,0,1.89.71h12.1a3.34,3.34,0,0,0,2.18-.6,2.29,2.29,0,0,0,.71-1.85A2.22,2.22,0,0,0,89,71,3.4,3.4,0,0,0,86.86,70.45ZM85,99a5.37,5.37,0,0,0,2.64-2,5.48,5.48,0,0,0,.94-3.19,5.84,5.84,0,0,0-1-3.39,6.45,6.45,0,0,0-2.88-2.25,11,11,0,0,0-4.33-.8,13.2,13.2,0,0,0-3.93.6,11,11,0,0,0-3.36,1.66,2.71,2.71,0,0,0-.8.89A2.66,2.66,0,0,0,72,91.66a2.73,2.73,0,0,0,.56,1.74,1.71,1.71,0,0,0,1.39.72,2.16,2.16,0,0,0,.83-.15c.25-.1.58-.26,1-.48l.69-.33a17.23,17.23,0,0,1,1.81-.8,5,5,0,0,1,1.74-.3,2.85,2.85,0,0,1,2,.68,2.47,2.47,0,0,1,.73,1.91A1.85,1.85,0,0,1,82,96.34a5.09,5.09,0,0,1-2.65.53H77.87a1.92,1.92,0,0,0-1.56.69,2.74,2.74,0,0,0,0,3.32,1.92,1.92,0,0,0,1.56.7h2.06a5,5,0,0,1,2.72.56,2.09,2.09,0,0,1,.83,1.86,2.3,2.3,0,0,1-.82,2,4.65,4.65,0,0,1-2.66.59,6,6,0,0,1-1.91-.28,16.1,16.1,0,0,1-1.91-.81l-.41-.18-.32-.15q-.63-.33-1-.48a2.16,2.16,0,0,0-.83-.15,1.69,1.69,0,0,0-1.39.71,2.68,2.68,0,0,0-.57,1.74,2.52,2.52,0,0,0,.24,1.14,2.65,2.65,0,0,0,.79.92,10.86,10.86,0,0,0,3.45,1.67,14.63,14.63,0,0,0,4.14.58,12.45,12.45,0,0,0,4.69-.81,6.87,6.87,0,0,0,3.1-2.31,5.76,5.76,0,0,0,1.1-3.51,5.87,5.87,0,0,0-1.11-3.61A5.63,5.63,0,0,0,85,99ZM99.33,81.56h0a2.51,2.51,0,0,0-2.51-2.51H64.61a2.51,2.51,0,0,0-2.51,2.51h0a2.51,2.51,0,0,0,2.51,2.51H96.82A2.51,2.51,0,0,0,99.33,81.56Z"/></svg>