<svg id="Layer_1" data-name="Layer 1" xmlns="http://www.w3.org/2000/svg" viewBox="0 0 122.3 122.3"><title>l6_6_1</title><rect x="4.66" y="45.1" width="34.54" height="34.54"/><path d="M4.66,83.39H39.2a0,0,0,0,1,0,0v34.54a0,0,0,0,1,0,0H26.29A21.64,21.64,0,0,1,4.66,96.29V83.39A0,0,0,0,1,4.66,83.39Z"/><rect x="43.78" y="5.24" width="34.54" height="34.54"/><path d="M83,5.24h34.54a0,0,0,0,1,0,0V39.78a0,0,0,0,1,0,0h-12.9A21.64,21.64,0,0,1,83,18.14V5.24A0,0,0,0,1,83,5.24Z" transform="translate(200.54 45.02) rotate(-180)"/><path d="M32.85,31.64a3.3,3.3,0,0,1,1,2.52,3.52,3.52,0,0,1-6.06,2.52L21.33,30.2l-6.48,6.48a3.42,3.42,0,0,1-2.52,1,3.7,3.7,0,0,1-2.52-1,3.48,3.48,0,0,1,0-5l6.48-6.48L9.81,18.74a3.7,3.7,0,0,1-1-2.52,3.52,3.52,0,0,1,1.08-2.58,3.14,3.14,0,0,1,2.46-1.08,3.5,3.5,0,0,1,2.52,1.14l6.48,6.48,6.48-6.48a3.45,3.45,0,0,1,2.52-1.08,3.33,3.33,0,0,1,2.52,1.08,3.14,3.14,0,0,1,1.08,2.46,3.52,3.52,0,0,1-1.08,2.58l-6.48,6.42Z"/><path d="M80.66,45.1h36.88v55.43a17.62,17.62,0,0,1-17.72,17.53h-56v-73Zm4.66,18.11a5.37,5.37,0,0,0,2.64-2A5.49,5.49,0,0,0,88.9,58a5.81,5.81,0,0,0-1-3.38A6.53,6.53,0,0,0,85,52.37a11,11,0,0,0-4.32-.8,13.2,13.2,0,0,0-3.93.6,10.88,10.88,0,0,0-3.36,1.66,2.24,2.24,0,0,0-1,2.05,2.67,2.67,0,0,0,.56,1.74,1.71,1.71,0,0,0,1.39.72,2.16,2.16,0,0,0,.83-.15c.25-.1.58-.26,1-.48l.69-.34a19.29,19.29,0,0,1,1.81-.79,5,5,0,0,1,1.74-.3,2.85,2.85,0,0,1,2,.68,2.47,2.47,0,0,1,.73,1.91,1.85,1.85,0,0,1-.83,1.69,5.09,5.09,0,0,1-2.65.53H78.19a1.92,1.92,0,0,0-1.56.69,2.74,2.74,0,0,0,0,3.32,1.92,1.92,0,0,0,1.56.69h2.06a5,5,0,0,1,2.72.57,2.07,2.07,0,0,1,.82,1.85,2.3,2.3,0,0,1-.81,2,4.58,4.58,0,0,1-2.67.6,5.93,5.93,0,0,1-1.9-.28,15.43,15.43,0,0,1-1.91-.81l-.41-.19-.32-.15q-.63-.33-1-.48a2.19,2.19,0,0,0-.83-.15,1.7,1.7,0,0,0-1.39.72,2.94,2.94,0,0,0-.34,2.88,2.58,2.58,0,0,0,.8.91,10.67,10.67,0,0,0,3.45,1.68,15,15,0,0,0,4.14.58,12.45,12.45,0,0,0,4.69-.81,7,7,0,0,0,3.1-2.31,5.76,5.76,0,0,0,1.1-3.51,5.9,5.9,0,0,0-1.11-3.62A5.65,5.65,0,0,0,85.32,63.21Zm3,39.18h-.73v-12a2.8,2.8,0,0,0-.89-2.22,3.15,3.15,0,0,0-2.16-.79,3.33,3.33,0,0,0-1.47.34,3.05,3.05,0,0,0-1.18,1L72.4,102.29a3.71,3.71,0,0,0-.73,2.19,2.5,2.5,0,0,0,.7,1.82,2.46,2.46,0,0,0,1.89.73h7.39v1.13a2.93,2.93,0,0,0,.81,2.25,3,3,0,0,0,2.14.77,3.09,3.09,0,0,0,2.16-.77,2.9,2.9,0,0,0,.82-2.25V107h.73c1.93,0,2.89-.78,2.89-2.35S90.24,102.39,88.31,102.39Zm-10.64,0,4-5.73v5.73Zm21.6-20.87h0A2.51,2.51,0,0,0,96.76,79H64.55A2.51,2.51,0,0,0,62,81.52h0A2.52,2.52,0,0,0,64.55,84H96.76A2.51,2.51,0,0,0,99.27,81.52Z"/></svg>