<svg id="Layer_1" data-name="Layer 1" xmlns="http://www.w3.org/2000/svg" viewBox="0 0 122.3 122.3"><title>l6_6_1</title><rect x="5.22" y="44.6" width="34.54" height="34.54"/><path d="M5.22,82.89H39.76a0,0,0,0,1,0,0v34.54a0,0,0,0,1,0,0H26.86A21.64,21.64,0,0,1,5.22,95.79V82.89A0,0,0,0,1,5.22,82.89Z"/><rect x="44.34" y="4.74" width="34.54" height="34.54"/><path d="M83.57,4.74h34.54a0,0,0,0,1,0,0V39.28a0,0,0,0,1,0,0h-12.9A21.64,21.64,0,0,1,83.57,17.64V4.74A0,0,0,0,1,83.57,4.74Z" transform="translate(201.68 44.02) rotate(-180)"/><path d="M34,29.14a3.3,3.3,0,0,1,1,2.52A3.52,3.52,0,0,1,29,34.18L22.49,27.7,16,34.18a3.42,3.42,0,0,1-2.52,1,3.7,3.7,0,0,1-2.52-1,3.48,3.48,0,0,1,0-5l6.48-6.48L11,16.24a3.7,3.7,0,0,1-1-2.52A3.52,3.52,0,0,1,11,11.14a3.14,3.14,0,0,1,2.46-1.08A3.5,3.5,0,0,1,16,11.2l6.48,6.48L29,11.2a3.45,3.45,0,0,1,2.52-1.08A3.33,3.33,0,0,1,34,11.2a3.14,3.14,0,0,1,1.08,2.46A3.52,3.52,0,0,1,34,16.24l-6.48,6.42Z"/><path d="M81.22,44.6h36.89V100a17.62,17.62,0,0,1-17.72,17.53h-56v-73ZM83.3,59.46a8.24,8.24,0,0,0-3.28.6V56h7.16c1.92,0,2.88-.77,2.88-2.32s-1-2.29-2.88-2.29H76.9a2.83,2.83,0,0,0-2.09.73,2.9,2.9,0,0,0-.73,2.12v9a1.83,1.83,0,0,0,.63,1.44,2.31,2.31,0,0,0,1.56.54,3.18,3.18,0,0,0,1.49-.36,11.57,11.57,0,0,1,1.91-.6,9.09,9.09,0,0,1,1.81-.16,3.71,3.71,0,0,1,2.58.83A2.93,2.93,0,0,1,85,67.22a2.87,2.87,0,0,1-.89,2.33,4.25,4.25,0,0,1-2.76.75A5.5,5.5,0,0,1,79.5,70a19.8,19.8,0,0,1-1.87-.79L77,68.87a10.57,10.57,0,0,0-1-.49,2.17,2.17,0,0,0-.83-.14,1.71,1.71,0,0,0-1.39.72,2.73,2.73,0,0,0-.56,1.74,2.4,2.4,0,0,0,.25,1.14,2.71,2.71,0,0,0,.78.91,10.94,10.94,0,0,0,3.39,1.66,13.81,13.81,0,0,0,4,.6,10.66,10.66,0,0,0,4.74-1,7.53,7.53,0,0,0,3.19-2.81,8.57,8.57,0,0,0,.18-8.14,6.77,6.77,0,0,0-2.62-2.66A7.66,7.66,0,0,0,83.3,59.46Zm.44,35.64a6.35,6.35,0,0,0-2.8.61,5.35,5.35,0,0,0-2,1.67,8.82,8.82,0,0,1,1.24-4.32,3.18,3.18,0,0,1,2.74-1.54,4.3,4.3,0,0,1,1.52.26,19.11,19.11,0,0,1,1.83.8l.73.36q.63.33,1,.48a2.16,2.16,0,0,0,.83.15,1.78,1.78,0,0,0,1.41-.71,2.67,2.67,0,0,0,.58-1.74A2.37,2.37,0,0,0,90.52,90a3,3,0,0,0-.81-.9,10.6,10.6,0,0,0-3.33-1.66,13.17,13.17,0,0,0-3.8-.59,8.94,8.94,0,0,0-5.16,1.49A9.68,9.68,0,0,0,74,92.56,16,16,0,0,0,72.8,99c0,3.76.85,6.65,2.55,8.69a8.91,8.91,0,0,0,7.23,3,8.61,8.61,0,0,0,4.21-1,7.34,7.34,0,0,0,2.9-2.87,8.81,8.81,0,0,0,.13-8.09,6.85,6.85,0,0,0-2.5-2.72A6.7,6.7,0,0,0,83.74,95.1Zm-1.52,11a2.63,2.63,0,0,1-2.06-.88,3.67,3.67,0,0,1,0-4.55,2.65,2.65,0,0,1,2.08-.87,2.61,2.61,0,0,1,2.07.85,3.89,3.89,0,0,1,0,4.59A2.61,2.61,0,0,1,82.22,106.1Zm18.07-25h0a2.51,2.51,0,0,0-2.51-2.51H65.57a2.51,2.51,0,0,0-2.51,2.51h0a2.51,2.51,0,0,0,2.51,2.51H97.78A2.51,2.51,0,0,0,100.29,81.08Z"/></svg>