<svg id="Layer_1" data-name="Layer 1" xmlns="http://www.w3.org/2000/svg" viewBox="0 0 122.3 122.3"><title>l6_6_1</title><rect x="5.22" y="46.6" width="34.54" height="34.54"/><path d="M5.22,84.89H39.76a0,0,0,0,1,0,0v34.54a0,0,0,0,1,0,0H26.86A21.64,21.64,0,0,1,5.22,97.79V84.89A0,0,0,0,1,5.22,84.89Z"/><rect x="44.34" y="6.74" width="34.54" height="34.54"/><path d="M83.57,6.74h34.54a0,0,0,0,1,0,0V41.28a0,0,0,0,1,0,0h-12.9A21.64,21.64,0,0,1,83.57,19.64V6.74A0,0,0,0,1,83.57,6.74Z" transform="translate(201.68 48.02) rotate(-180)"/><path d="M33.41,33.14a3.3,3.3,0,0,1,1,2.52,3.52,3.52,0,0,1-6.06,2.52L21.89,31.7l-6.48,6.48a3.42,3.42,0,0,1-2.52,1,3.7,3.7,0,0,1-2.52-1,3.48,3.48,0,0,1,0-5l6.48-6.48-6.48-6.42a3.7,3.7,0,0,1-1-2.52,3.52,3.52,0,0,1,1.08-2.58,3.14,3.14,0,0,1,2.46-1.08,3.5,3.5,0,0,1,2.52,1.14l6.48,6.48,6.48-6.48a3.45,3.45,0,0,1,2.52-1.08,3.33,3.33,0,0,1,2.52,1.08,3.14,3.14,0,0,1,1.08,2.46,3.52,3.52,0,0,1-1.08,2.58l-6.48,6.42Z"/><path d="M81.22,46.6h36.89V102a17.62,17.62,0,0,1-17.72,17.53h-56v-73ZM68.15,92.38a7,7,0,0,0,6-2.79q2.07-2.79,2.07-8.07t-2.09-8a7,7,0,0,0-6-2.79,7,7,0,0,0-6,2.79q-2.07,2.79-2.07,8t2.07,8.07A7,7,0,0,0,68.15,92.38Zm0-4.17a2.15,2.15,0,0,1-2.07-1.56,14.94,14.94,0,0,1-.63-5.13,14.76,14.76,0,0,1,.63-5.11,2.16,2.16,0,0,1,4.14,0,14.81,14.81,0,0,1,.63,5.1,14.94,14.94,0,0,1-.63,5.13A2.15,2.15,0,0,1,68.15,88.21Zm13.08,4.08a2.77,2.77,0,0,0,2-.84,3,3,0,0,0,0-4.14,2.77,2.77,0,0,0-2-.84,2.91,2.91,0,1,0,0,5.82Zm19.44-4.56H98.21V73.51a2.61,2.61,0,0,0-.74-2,2.65,2.65,0,0,0-1.93-.72,5.08,5.08,0,0,0-2.5.75l-4.79,2.79a2,2,0,0,0-1.06,1.86,2.54,2.54,0,0,0,.6,1.64,1.8,1.8,0,0,0,1.44.73,2.11,2.11,0,0,0,1.06-.3l2.39-1.41V87.73H90.25a3,3,0,0,0-2,.54,2,2,0,0,0-.63,1.62q0,2.22,2.61,2.22h10.42c1.73,0,2.6-.74,2.6-2.22a2,2,0,0,0-.63-1.62A3,3,0,0,0,100.67,87.73Z"/></svg>