<svg id="Layer_1" data-name="Layer 1" xmlns="http://www.w3.org/2000/svg" viewBox="0 0 122.3 122.3"><title>l6_6_1</title><rect x="5.15" y="45.1" width="34.54" height="34.54"/><path d="M5.15,83.39H39.69a0,0,0,0,1,0,0v34.54a0,0,0,0,1,0,0H26.79A21.64,21.64,0,0,1,5.15,96.29V83.39A0,0,0,0,1,5.15,83.39Z"/><rect x="44.27" y="5.24" width="34.54" height="34.54"/><path d="M83.5,5.24H118a0,0,0,0,1,0,0V39.78a0,0,0,0,1,0,0h-12.9A21.64,21.64,0,0,1,83.5,18.14V5.24A0,0,0,0,1,83.5,5.24Z" transform="translate(201.54 45.02) rotate(-180)"/><path d="M33.35,31.64a3.3,3.3,0,0,1,1,2.52,3.52,3.52,0,0,1-6.06,2.52L21.83,30.2l-6.48,6.48a3.42,3.42,0,0,1-2.52,1,3.7,3.7,0,0,1-2.52-1,3.48,3.48,0,0,1,0-5l6.48-6.48-6.48-6.42a3.7,3.7,0,0,1-1-2.52,3.52,3.52,0,0,1,1.08-2.58,3.14,3.14,0,0,1,2.46-1.08,3.5,3.5,0,0,1,2.52,1.14l6.48,6.48,6.48-6.48a3.45,3.45,0,0,1,2.52-1.08,3.33,3.33,0,0,1,2.52,1.08,3.14,3.14,0,0,1,1.08,2.46,3.52,3.52,0,0,1-1.08,2.58l-6.48,6.42Z"/><path d="M81.16,45.1H118v55.43a17.62,17.62,0,0,1-17.72,17.53h-56v-73Zm6.6,25.3H81.09l4.71-4.8a15.72,15.72,0,0,0,2.77-3.73,8.4,8.4,0,0,0,.81-3.7,6.09,6.09,0,0,0-1-3.46,6.49,6.49,0,0,0-2.87-2.33,10.69,10.69,0,0,0-4.31-.81,13,13,0,0,0-3.83.6,12.78,12.78,0,0,0-3.49,1.66,2.21,2.21,0,0,0-.82.86,3.24,3.24,0,0,0,.35,3,1.71,1.71,0,0,0,1.39.74,1.89,1.89,0,0,0,.63-.1A3.56,3.56,0,0,0,76.1,58l.52-.28.66-.34a17.37,17.37,0,0,1,1.87-.81,5.4,5.4,0,0,1,1.78-.28,2.61,2.61,0,0,1,1.84.6,2.21,2.21,0,0,1,.64,1.72c0,1.28-.73,2.69-2.18,4.21l-7,7.33a3.62,3.62,0,0,0-1.13,2.58,2.42,2.42,0,0,0,2.59,2.52h12.1a3.39,3.39,0,0,0,2.17-.59,2.31,2.31,0,0,0,.71-1.86A2.22,2.22,0,0,0,89.93,71,3.45,3.45,0,0,0,87.76,70.4ZM85.89,98.94a5.35,5.35,0,0,0,2.64-2,5.53,5.53,0,0,0,.94-3.2,5.74,5.74,0,0,0-1-3.38,6.47,6.47,0,0,0-2.88-2.26,11,11,0,0,0-4.33-.79,13.62,13.62,0,0,0-3.93.59A11,11,0,0,0,74,89.56a2.74,2.74,0,0,0-.8.9,2.63,2.63,0,0,0-.23,1.16,2.77,2.77,0,0,0,.56,1.74,1.73,1.73,0,0,0,1.4.71,2.19,2.19,0,0,0,.83-.15q.36-.15,1-.48l.7-.33a18.4,18.4,0,0,1,1.8-.8A5,5,0,0,1,81,92a2.87,2.87,0,0,1,2,.67,2.52,2.52,0,0,1,.73,1.91,1.86,1.86,0,0,1-.83,1.69,5.05,5.05,0,0,1-2.66.53H78.77a1.87,1.87,0,0,0-1.56.7,2.53,2.53,0,0,0-.57,1.66,2.51,2.51,0,0,0,.57,1.65,1.87,1.87,0,0,0,1.56.7h2a5,5,0,0,1,2.72.56,2.1,2.1,0,0,1,.83,1.86,2.31,2.31,0,0,1-.81,2,4.6,4.6,0,0,1-2.67.6,6,6,0,0,1-1.91-.29,12.8,12.8,0,0,1-1.9-.81l-.42-.18-.31-.15c-.42-.22-.76-.38-1-.48a2.16,2.16,0,0,0-.83-.15,1.72,1.72,0,0,0-1.39.71,2.71,2.71,0,0,0-.56,1.74,2.54,2.54,0,0,0,.23,1.15,2.63,2.63,0,0,0,.79.91A10.65,10.65,0,0,0,77,110.66a14.65,14.65,0,0,0,4.15.58,12.48,12.48,0,0,0,4.69-.81,7,7,0,0,0,3.1-2.3,5.8,5.8,0,0,0,1.09-3.52A5.87,5.87,0,0,0,89,101,5.63,5.63,0,0,0,85.89,98.94Zm14.33-17.42h0A2.51,2.51,0,0,0,97.71,79H65.5A2.51,2.51,0,0,0,63,81.52h0A2.52,2.52,0,0,0,65.5,84H97.71A2.51,2.51,0,0,0,100.22,81.52Z"/></svg>