<svg id="Layer_1" data-name="Layer 1" xmlns="http://www.w3.org/2000/svg" viewBox="0 0 122.3 122.3"><title>l6_6_1</title><rect x="5.13" y="45.21" width="34.54" height="34.54"/><path d="M5.13,83.5H39.67a0,0,0,0,1,0,0V118a0,0,0,0,1,0,0H26.77A21.64,21.64,0,0,1,5.13,96.4V83.5A0,0,0,0,1,5.13,83.5Z"/><rect x="44.25" y="5.35" width="34.54" height="34.54"/><path d="M83.47,5.35H118a0,0,0,0,1,0,0V39.89a0,0,0,0,1,0,0h-12.9A21.64,21.64,0,0,1,83.47,18.25V5.35A0,0,0,0,1,83.47,5.35Z" transform="translate(201.49 45.24) rotate(-180)"/><path d="M33.32,31.75a3.3,3.3,0,0,1,1,2.52,3.52,3.52,0,0,1-6.06,2.52L21.8,30.31l-6.48,6.48a3.42,3.42,0,0,1-2.52,1,3.7,3.7,0,0,1-2.52-1,3.48,3.48,0,0,1,0-5l6.48-6.48-6.48-6.42a3.7,3.7,0,0,1-1-2.52,3.52,3.52,0,0,1,1.08-2.58,3.14,3.14,0,0,1,2.46-1.08,3.5,3.5,0,0,1,2.52,1.14l6.48,6.48,6.48-6.48a3.45,3.45,0,0,1,2.52-1.08,3.33,3.33,0,0,1,2.52,1.08,3.14,3.14,0,0,1,1.08,2.46,3.52,3.52,0,0,1-1.08,2.58l-6.48,6.42Z"/><path d="M81.13,45.21H118v55.43a17.63,17.63,0,0,1-17.73,17.53h-56v-73ZM64.91,91a7,7,0,0,0,6-2.79Q73,85.41,73,80.13t-2.08-8a7,7,0,0,0-6-2.79,7,7,0,0,0-6,2.79q-2.07,2.79-2.07,8t2.07,8.07A7,7,0,0,0,64.91,91Zm0-4.17a2.15,2.15,0,0,1-2.07-1.56,14.94,14.94,0,0,1-.63-5.13A14.76,14.76,0,0,1,62.84,75,2.16,2.16,0,0,1,67,75a14.81,14.81,0,0,1,.63,5.1A14.94,14.94,0,0,1,67,85.26,2.15,2.15,0,0,1,64.91,86.82ZM78,90.9a2.77,2.77,0,0,0,2.06-.84,3,3,0,0,0,0-4.14,3,3,0,0,0-4.14,0,3,3,0,0,0,0,4.14A2.79,2.79,0,0,0,78,90.9Zm19.53-8h-.66V72.12a2.55,2.55,0,0,0-.81-2,2.83,2.83,0,0,0-2-.72,3,3,0,0,0-1.33.32,2.76,2.76,0,0,0-1.07.91L83.12,82.86a3.36,3.36,0,0,0-.66,2,2.3,2.3,0,0,0,.63,1.65,2.25,2.25,0,0,0,1.71.66h6.69v1a2.48,2.48,0,0,0,2.67,2.73,2.77,2.77,0,0,0,2-.69,2.64,2.64,0,0,0,.75-2v-1h.66q2.61,0,2.61-2.13T97.52,83Zm-9.63,0,3.6-5.19V83Z"/></svg>