<svg id="Layer_1" data-name="Layer 1" xmlns="http://www.w3.org/2000/svg" viewBox="0 0 122.3 122.3"><title>l6_6_1</title><rect x="5.22" y="45.1" width="34.54" height="34.54"/><path d="M5.22,83.39H39.76a0,0,0,0,1,0,0v34.54a0,0,0,0,1,0,0H26.86A21.64,21.64,0,0,1,5.22,96.29V83.39A0,0,0,0,1,5.22,83.39Z"/><rect x="44.34" y="5.24" width="34.54" height="34.54"/><path d="M83.57,5.24h34.54a0,0,0,0,1,0,0V39.78a0,0,0,0,1,0,0h-12.9A21.64,21.64,0,0,1,83.57,18.14V5.24A0,0,0,0,1,83.57,5.24Z" transform="translate(201.68 45.02) rotate(-180)"/><path d="M34,29.64a3.3,3.3,0,0,1,1,2.52A3.52,3.52,0,0,1,29,34.68L22.49,28.2,16,34.68a3.42,3.42,0,0,1-2.52,1,3.7,3.7,0,0,1-2.52-1,3.48,3.48,0,0,1,0-5l6.48-6.48L11,16.74a3.7,3.7,0,0,1-1-2.52A3.52,3.52,0,0,1,11,11.64a3.14,3.14,0,0,1,2.46-1.08A3.5,3.5,0,0,1,16,11.7l6.48,6.48L29,11.7a3.45,3.45,0,0,1,2.52-1.08A3.33,3.33,0,0,1,34,11.7a3.14,3.14,0,0,1,1.08,2.46A3.52,3.52,0,0,1,34,16.74l-6.48,6.42Z"/><path d="M81.22,45.1h36.89v55.43a17.62,17.62,0,0,1-17.72,17.53h-56v-73ZM88.7,70.4H86V54.69a2.77,2.77,0,0,0-3-2.95,5.52,5.52,0,0,0-2.75.83L75,55.65a2.24,2.24,0,0,0-1.16,2.06,2.78,2.78,0,0,0,.66,1.8,2,2,0,0,0,1.59.81A2.25,2.25,0,0,0,77.23,60l2.65-1.56v12H77.2A3.33,3.33,0,0,0,75,71a2.24,2.24,0,0,0-.69,1.79c0,1.64,1,2.45,2.88,2.45H88.7c1.93,0,2.89-.81,2.89-2.45a2.21,2.21,0,0,0-.7-1.79A3.29,3.29,0,0,0,88.7,70.4Zm-.8,35.74H81.24L86,101.33a15.44,15.44,0,0,0,2.76-3.73,8.37,8.37,0,0,0,.82-3.7,6,6,0,0,0-1-3.46,6.43,6.43,0,0,0-2.86-2.32,10.72,10.72,0,0,0-4.31-.81,13.21,13.21,0,0,0-3.83.59A12.84,12.84,0,0,0,74,89.56a2.17,2.17,0,0,0-.81.86,2.77,2.77,0,0,0-.22,1.2,2.84,2.84,0,0,0,.57,1.77,1.68,1.68,0,0,0,1.39.75,2.19,2.19,0,0,0,.63-.1,4,4,0,0,0,.68-.32l.51-.28.66-.33a15.63,15.63,0,0,1,1.88-.81A5.3,5.3,0,0,1,81.07,92a2.59,2.59,0,0,1,1.84.59,2.24,2.24,0,0,1,.65,1.73q0,1.92-2.19,4.21l-7,7.32a3.66,3.66,0,0,0-1.13,2.59A2.42,2.42,0,0,0,75.8,111H87.9a3.31,3.31,0,0,0,2.17-.6,2.28,2.28,0,0,0,.72-1.86,2.18,2.18,0,0,0-.72-1.8A3.37,3.37,0,0,0,87.9,106.14Zm12.39-24.56h0a2.51,2.51,0,0,0-2.51-2.51H65.57a2.51,2.51,0,0,0-2.51,2.51h0a2.51,2.51,0,0,0,2.51,2.51H97.78A2.51,2.51,0,0,0,100.29,81.58Z"/></svg>