<svg id="Layer_1" data-name="Layer 1" xmlns="http://www.w3.org/2000/svg" viewBox="0 0 122.3 122.3"><title>l6_6_1</title><rect x="5.15" y="46.6" width="34.54" height="34.54"/><path d="M5.15,84.89H39.69a0,0,0,0,1,0,0v34.54a0,0,0,0,1,0,0H26.79A21.64,21.64,0,0,1,5.15,97.79V84.89A0,0,0,0,1,5.15,84.89Z"/><rect x="44.27" y="6.74" width="34.54" height="34.54"/><path d="M83.5,6.74H118a0,0,0,0,1,0,0V41.28a0,0,0,0,1,0,0h-12.9A21.64,21.64,0,0,1,83.5,19.64V6.74A0,0,0,0,1,83.5,6.74Z" transform="translate(201.54 48.02) rotate(-180)"/><path d="M33.35,33.14a3.3,3.3,0,0,1,1,2.52,3.52,3.52,0,0,1-6.06,2.52L21.83,31.7l-6.48,6.48a3.42,3.42,0,0,1-2.52,1,3.7,3.7,0,0,1-2.52-1,3.48,3.48,0,0,1,0-5l6.48-6.48-6.48-6.42a3.7,3.7,0,0,1-1-2.52,3.52,3.52,0,0,1,1.08-2.58,3.14,3.14,0,0,1,2.46-1.08,3.5,3.5,0,0,1,2.52,1.14l6.48,6.48,6.48-6.48a3.45,3.45,0,0,1,2.52-1.08,3.33,3.33,0,0,1,2.52,1.08,3.14,3.14,0,0,1,1.08,2.46,3.52,3.52,0,0,1-1.08,2.58l-6.48,6.42Z"/><path d="M81.16,46.6H118V102a17.62,17.62,0,0,1-17.72,17.53h-56v-73ZM68.64,92.38a7,7,0,0,0,6-2.79q2.07-2.79,2.07-8.07t-2.09-8a7,7,0,0,0-6-2.79,7,7,0,0,0-6,2.79q-2.07,2.79-2.07,8t2.07,8.07A7,7,0,0,0,68.64,92.38Zm0-4.17a2.15,2.15,0,0,1-2.07-1.56,14.94,14.94,0,0,1-.63-5.13,14.76,14.76,0,0,1,.63-5.11,2.16,2.16,0,0,1,4.14,0,14.81,14.81,0,0,1,.63,5.1,14.94,14.94,0,0,1-.63,5.13A2.15,2.15,0,0,1,68.64,88.21Zm13.08,4.08a2.75,2.75,0,0,0,2-.84,3,3,0,0,0,0-4.14,2.75,2.75,0,0,0-2-.84,2.91,2.91,0,1,0,0,5.82Zm18.66-4.56h-6l4.26-4.35a14,14,0,0,0,2.5-3.37,7.59,7.59,0,0,0,.74-3.35,5.49,5.49,0,0,0-.92-3.13,5.84,5.84,0,0,0-2.59-2.1,9.66,9.66,0,0,0-3.9-.74,12.18,12.18,0,0,0-6.63,2,2,2,0,0,0-.74.78,2.93,2.93,0,0,0,.32,2.69,1.52,1.52,0,0,0,1.26.67,1.79,1.79,0,0,0,.57-.09,3.5,3.5,0,0,0,.61-.28l.47-.26.6-.3a14.36,14.36,0,0,1,1.69-.73A4.9,4.9,0,0,1,94.2,75a2.35,2.35,0,0,1,1.66.54,2,2,0,0,1,.59,1.56,5.84,5.84,0,0,1-2,3.81l-6.36,6.63a3.29,3.29,0,0,0-1,2.34,2.18,2.18,0,0,0,2.34,2.28h10.95a3,3,0,0,0,2-.54,2.07,2.07,0,0,0,.65-1.68,2,2,0,0,0-.65-1.63A3.06,3.06,0,0,0,100.38,87.73Z"/></svg>