<svg id="Layer_1" data-name="Layer 1" xmlns="http://www.w3.org/2000/svg" viewBox="0 0 122.3 122.3"><title>l6_6_1</title><rect x="5.15" y="44.6" width="34.54" height="34.54"/><path d="M5.15,82.89H39.69a0,0,0,0,1,0,0v34.54a0,0,0,0,1,0,0H26.79A21.64,21.64,0,0,1,5.15,95.79V82.89A0,0,0,0,1,5.15,82.89Z"/><rect x="44.27" y="4.74" width="34.54" height="34.54"/><path d="M83.5,4.74H118a0,0,0,0,1,0,0V39.28a0,0,0,0,1,0,0h-12.9A21.64,21.64,0,0,1,83.5,17.64V4.74A0,0,0,0,1,83.5,4.74Z" transform="translate(201.54 44.02) rotate(-180)"/><path d="M33.35,31.14a3.3,3.3,0,0,1,1,2.52,3.52,3.52,0,0,1-6.06,2.52L21.83,29.7l-6.48,6.48a3.42,3.42,0,0,1-2.52,1,3.7,3.7,0,0,1-2.52-1,3.48,3.48,0,0,1,0-5l6.48-6.48-6.48-6.42a3.7,3.7,0,0,1-1-2.52,3.52,3.52,0,0,1,1.08-2.58,3.14,3.14,0,0,1,2.46-1.08,3.5,3.5,0,0,1,2.52,1.14l6.48,6.48,6.48-6.48a3.45,3.45,0,0,1,2.52-1.08,3.33,3.33,0,0,1,2.52,1.08,3.14,3.14,0,0,1,1.08,2.46,3.52,3.52,0,0,1-1.08,2.58l-6.48,6.42Z"/><path d="M81.16,44.6H118V100a17.62,17.62,0,0,1-17.72,17.53h-56v-73ZM83.6,59.36a6.35,6.35,0,0,0-2.8.61,5.14,5.14,0,0,0-2,1.68A8.76,8.76,0,0,1,80,57.32a3.17,3.17,0,0,1,2.73-1.54,4.64,4.64,0,0,1,1.53.26c.49.18,1.09.45,1.82.8l.73.37c.42.22.75.38,1,.48a2.14,2.14,0,0,0,.82.14A1.72,1.72,0,0,0,90,57.12a2.63,2.63,0,0,0,.58-1.74,2.52,2.52,0,0,0-.24-1.16,2.81,2.81,0,0,0-.82-.89,10.6,10.6,0,0,0-3.33-1.66,12.79,12.79,0,0,0-3.79-.6,9,9,0,0,0-5.16,1.49,9.66,9.66,0,0,0-3.41,4.26,16.06,16.06,0,0,0-1.21,6.49c0,3.75.85,6.65,2.55,8.68A8.91,8.91,0,0,0,82.44,75a8.53,8.53,0,0,0,4.21-1,7.45,7.45,0,0,0,2.9-2.86,8.89,8.89,0,0,0,.13-8.09,6.85,6.85,0,0,0-2.5-2.72A6.73,6.73,0,0,0,83.6,59.36Zm-1.53,11a2.65,2.65,0,0,1-2-.88,3.69,3.69,0,0,1,0-4.56,2.64,2.64,0,0,1,2.07-.86,2.6,2.6,0,0,1,2.07.84,3.87,3.87,0,0,1,0,4.59A2.61,2.61,0,0,1,82.07,70.37Zm6.31,16.74h-13a3.23,3.23,0,0,0-2.18.61,2.3,2.3,0,0,0-.7,1.84,2.28,2.28,0,0,0,.68,1.79,3.29,3.29,0,0,0,2.2.6h8.29L75.15,106.5a3.12,3.12,0,0,0-.46,1.59,2.46,2.46,0,0,0,.89,1.91,3,3,0,0,0,2.06.78,2.83,2.83,0,0,0,1.41-.39,3.06,3.06,0,0,0,1.14-1.17l10-17.41a4.19,4.19,0,0,0,.63-2.18,2.59,2.59,0,0,0-.65-1.81A2.33,2.33,0,0,0,88.38,87.11ZM100.22,81h0a2.51,2.51,0,0,0-2.51-2.51H65.5A2.51,2.51,0,0,0,63,81h0a2.52,2.52,0,0,0,2.51,2.51H97.71A2.51,2.51,0,0,0,100.22,81Z"/></svg>