<svg id="Layer_1" data-name="Layer 1" xmlns="http://www.w3.org/2000/svg" viewBox="0 0 122.3 122.3"><title>l6_6_1</title><rect x="4.71" y="44.6" width="34.54" height="34.54"/><path d="M4.71,82.89H39.25a0,0,0,0,1,0,0v34.54a0,0,0,0,1,0,0H26.35A21.64,21.64,0,0,1,4.71,95.79V82.89A0,0,0,0,1,4.71,82.89Z"/><rect x="43.83" y="4.74" width="34.54" height="34.54"/><path d="M83.05,4.74h34.54a0,0,0,0,1,0,0V39.28a0,0,0,0,1,0,0h-12.9A21.64,21.64,0,0,1,83.05,17.64V4.74A0,0,0,0,1,83.05,4.74Z" transform="translate(200.65 44.02) rotate(-180)"/><path d="M32.9,31.14a3.3,3.3,0,0,1,1,2.52,3.52,3.52,0,0,1-6.06,2.52L21.38,29.7,14.9,36.18a3.42,3.42,0,0,1-2.52,1,3.7,3.7,0,0,1-2.52-1,3.48,3.48,0,0,1,0-5l6.48-6.48L9.86,18.24a3.7,3.7,0,0,1-1-2.52,3.52,3.52,0,0,1,1.08-2.58,3.14,3.14,0,0,1,2.46-1.08A3.5,3.5,0,0,1,14.9,13.2l6.48,6.48,6.48-6.48a3.45,3.45,0,0,1,2.52-1.08A3.33,3.33,0,0,1,32.9,13.2,3.14,3.14,0,0,1,34,15.66a3.52,3.52,0,0,1-1.08,2.58l-6.48,6.42Z"/><path d="M80.71,44.6h36.88V100a17.62,17.62,0,0,1-17.72,17.53h-56v-73Zm7.58,21.56h-.73v-12A2.83,2.83,0,0,0,86.67,52a3.16,3.16,0,0,0-2.16-.8,3.31,3.31,0,0,0-1.47.35,3,3,0,0,0-1.18,1L72.38,66.06a3.66,3.66,0,0,0-.73,2.18,2.57,2.57,0,0,0,.69,1.83,2.53,2.53,0,0,0,1.89.73h7.4v1.12a2.73,2.73,0,0,0,3,3,3,3,0,0,0,2.15-.76,2.93,2.93,0,0,0,.83-2.26V70.8h.73c1.92,0,2.88-.79,2.88-2.36S90.21,66.16,88.29,66.16Zm-10.64,0,4-5.74v5.74Zm5.21,29a8.24,8.24,0,0,0-3.28.6V91.71h7.16c1.93,0,2.89-.77,2.89-2.32s-1-2.28-2.89-2.28H76.46a2.79,2.79,0,0,0-2.08.73A2.84,2.84,0,0,0,73.65,90v9a1.8,1.8,0,0,0,.63,1.44,2.27,2.27,0,0,0,1.56.55,3.21,3.21,0,0,0,1.49-.36,11.5,11.5,0,0,1,1.9-.6A9.13,9.13,0,0,1,81,99.8a3.78,3.78,0,0,1,2.59.83,3,3,0,0,1,.92,2.32,2.87,2.87,0,0,1-.89,2.34,4.24,4.24,0,0,1-2.75.75,5.42,5.42,0,0,1-1.84-.3,19.1,19.1,0,0,1-1.88-.8l-.66-.33c-.44-.24-.77-.41-1-.5a2.23,2.23,0,0,0-.83-.13,1.72,1.72,0,0,0-1.39.71,2.72,2.72,0,0,0-.57,1.74,2.54,2.54,0,0,0,.25,1.15,3.08,3.08,0,0,0,.78.91,10.89,10.89,0,0,0,3.4,1.66,14.09,14.09,0,0,0,4,.59,10.8,10.8,0,0,0,4.74-1,7.41,7.41,0,0,0,3.18-2.82,7.84,7.84,0,0,0,1.13-4.21,8,8,0,0,0-1-3.93,6.68,6.68,0,0,0-2.62-2.65A7.63,7.63,0,0,0,82.86,95.19ZM99.33,81h0a2.51,2.51,0,0,0-2.51-2.51H64.61A2.51,2.51,0,0,0,62.1,81h0a2.51,2.51,0,0,0,2.51,2.51H96.82A2.52,2.52,0,0,0,99.33,81Z"/></svg>