<svg id="Layer_1" data-name="Layer 1" xmlns="http://www.w3.org/2000/svg" viewBox="0 0 172.3 122.3"><title>s6_1</title><rect x="71.67" y="5.55" width="34.54" height="34.54"/><rect x="110.89" y="44.78" width="34.54" height="34.54"/><path d="M54.08,5.55H67a0,0,0,0,1,0,0V40.09a0,0,0,0,1,0,0H32.44a0,0,0,0,1,0,0V27.19A21.64,21.64,0,0,1,54.08,5.55Z"/><path d="M110.89,5.55h34.54a0,0,0,0,1,0,0V40.09a0,0,0,0,1,0,0h-12.9a21.64,21.64,0,0,1-21.64-21.64V5.55a0,0,0,0,1,0,0Z" transform="translate(256.33 45.64) rotate(-180)"/><path d="M132.53,83.06h12.9a0,0,0,0,1,0,0v34.54a0,0,0,0,1,0,0H110.89a0,0,0,0,1,0,0V104.7A21.64,21.64,0,0,1,132.53,83.06Z" transform="translate(256.33 200.67) rotate(-180)"/><path d="M106.21,44.78v73h-56a17.63,17.63,0,0,1-17.72-17.53V44.78h73.77ZM75.15,70.71H68.49l4.71-4.8A15.64,15.64,0,0,0,76,62.18a8.27,8.27,0,0,0,.82-3.7,6.09,6.09,0,0,0-1-3.46A6.51,6.51,0,0,0,72.9,52.7a10.55,10.55,0,0,0-4.31-.82,13.53,13.53,0,0,0-7.33,2.26,2.11,2.11,0,0,0-.81.86,2.75,2.75,0,0,0-.22,1.19A2.85,2.85,0,0,0,60.8,58a1.69,1.69,0,0,0,1.39.74,1.89,1.89,0,0,0,.63-.1,3.87,3.87,0,0,0,.68-.31L64,58l.67-.33a15.12,15.12,0,0,1,1.87-.82,5.57,5.57,0,0,1,1.77-.28,2.6,2.6,0,0,1,1.84.6,2.23,2.23,0,0,1,.65,1.72c0,1.28-.73,2.69-2.19,4.21l-7,7.33A3.61,3.61,0,0,0,60.47,73a2.48,2.48,0,0,0,.69,1.8,2.52,2.52,0,0,0,1.89.71h12.1A3.31,3.31,0,0,0,77.32,75,2.28,2.28,0,0,0,78,73.1a2.19,2.19,0,0,0-.72-1.81A3.43,3.43,0,0,0,75.15,70.71Zm-1,28.55a5,5,0,0,0,2.6-2A5.76,5.76,0,0,0,77.66,94a5.47,5.47,0,0,0-2.3-4.65,10.33,10.33,0,0,0-6.28-1.71,10.36,10.36,0,0,0-6.27,1.71A5.49,5.49,0,0,0,60.49,94a5.66,5.66,0,0,0,.93,3.24,5.54,5.54,0,0,0,2.65,2,5.48,5.48,0,0,0-3.11,2,5.83,5.83,0,0,0-1.1,3.63,5.73,5.73,0,0,0,2.47,4.92,11.41,11.41,0,0,0,6.75,1.78,11.35,11.35,0,0,0,6.74-1.78,5.71,5.71,0,0,0,2.47-4.92,5.8,5.8,0,0,0-1.07-3.57A5.71,5.71,0,0,0,74.12,99.26Zm-5,7.69c-2.41,0-3.62-.87-3.62-2.59s1.21-2.58,3.62-2.58,3.61.86,3.61,2.58S71.49,107,69.08,107Zm0-14.72a3.53,3.53,0,0,1,2.22.58A2.26,2.26,0,0,1,72,94.68a2.33,2.33,0,0,1-.73,1.89,3.46,3.46,0,0,1-2.22.6,3.42,3.42,0,0,1-2.22-.6,2.3,2.3,0,0,1-.73-1.89,2.23,2.23,0,0,1,.73-1.87A3.49,3.49,0,0,1,69.08,92.23Zm21-11h0a2.72,2.72,0,0,0-2.72-2.72H53.55a2.72,2.72,0,0,0-2.72,2.72h0A2.72,2.72,0,0,0,53.55,84H87.4A2.72,2.72,0,0,0,90.12,81.26Z"/></svg>