<svg id="Layer_1" data-name="Layer 1" xmlns="http://www.w3.org/2000/svg" viewBox="0 0 172.3 122.3"><title>s6_2</title><rect x="39.47" y="56.14" width="89.48" height="10.02" rx="5.01"/><path d="M81.41,11.6V39.52A11.31,11.31,0,0,1,70.1,50.83h-19A11.31,11.31,0,0,1,39.82,39.52V11.6A11.31,11.31,0,0,1,51.13.28h19A11.31,11.31,0,0,1,81.41,11.6ZM69.49,34.9H66.06V15.05a3.62,3.62,0,0,0-1-2.72,3.68,3.68,0,0,0-2.7-1,7.1,7.1,0,0,0-3.47,1l-6.7,3.9a2.85,2.85,0,0,0-1.47,2.6,3.54,3.54,0,0,0,.84,2.28,2.53,2.53,0,0,0,2,1A2.82,2.82,0,0,0,55,21.75l3.35-2V34.9H55a4.14,4.14,0,0,0-2.76.76,2.79,2.79,0,0,0-.88,2.26C51.32,40,52.53,41,55,41H69.49c2.43,0,3.65-1,3.65-3.1a2.82,2.82,0,0,0-.88-2.26A4.17,4.17,0,0,0,69.49,34.9Z"/><path d="M128.62,11.6V39.52A11.31,11.31,0,0,1,117.3,50.83h-19A11.31,11.31,0,0,1,87,39.52V11.6A11.32,11.32,0,0,1,98.34.28h19A11.32,11.32,0,0,1,128.62,11.6ZM115.87,34.9h-8.42l6-6.07a19.61,19.61,0,0,0,3.49-4.71,10.49,10.49,0,0,0,1-4.67,7.66,7.66,0,0,0-1.28-4.37A8.24,8.24,0,0,0,113,12.14a13.54,13.54,0,0,0-5.44-1,16.47,16.47,0,0,0-4.84.75A16.1,16.1,0,0,0,98.32,14a2.72,2.72,0,0,0-1,1.08A3.51,3.51,0,0,0,97,16.56a3.58,3.58,0,0,0,.72,2.24,2.12,2.12,0,0,0,1.75.94,2.63,2.63,0,0,0,.8-.12,5.73,5.73,0,0,0,.86-.4l.65-.35.84-.42a20.26,20.26,0,0,1,2.36-1,6.7,6.7,0,0,1,2.24-.36,3.33,3.33,0,0,1,2.33.76,2.83,2.83,0,0,1,.81,2.18q0,2.43-2.76,5.31l-8.88,9.26a4.57,4.57,0,0,0-1.42,3.26,3.12,3.12,0,0,0,.88,2.29,3.17,3.17,0,0,0,2.38.9h15.29a4.15,4.15,0,0,0,2.74-.76,2.87,2.87,0,0,0,.9-2.34,2.76,2.76,0,0,0-.9-2.28A4.27,4.27,0,0,0,115.87,34.9Z"/><path d="M81.41,82.79V110.7A11.31,11.31,0,0,1,70.1,122h-19A11.31,11.31,0,0,1,39.82,110.7V82.79A11.31,11.31,0,0,1,51.13,71.47h19A11.31,11.31,0,0,1,81.41,82.79ZM65.79,95.26a6.72,6.72,0,0,0,3.33-2.53,6.92,6.92,0,0,0,1.19-4A7.31,7.31,0,0,0,69,84.42a8.18,8.18,0,0,0-3.65-2.85,13.82,13.82,0,0,0-5.46-1,16.81,16.81,0,0,0-5,.75,13.83,13.83,0,0,0-4.25,2.09,3.46,3.46,0,0,0-1,1.13A3.38,3.38,0,0,0,49.42,86a3.45,3.45,0,0,0,.71,2.2,2.17,2.17,0,0,0,1.76.9,2.69,2.69,0,0,0,1-.19c.3-.13.72-.33,1.25-.61l.88-.42c.84-.41,1.6-.75,2.28-1a6.4,6.4,0,0,1,2.2-.38,3.64,3.64,0,0,1,2.56.86A3.15,3.15,0,0,1,63,89.78,2.33,2.33,0,0,1,62,91.91a6.37,6.37,0,0,1-3.35.67H56.79a2.42,2.42,0,0,0-2,.88,3.45,3.45,0,0,0,0,4.19,2.39,2.39,0,0,0,2,.88h2.6a6.33,6.33,0,0,1,3.43.71,2.64,2.64,0,0,1,1,2.35,2.92,2.92,0,0,1-1,2.51,5.83,5.83,0,0,1-3.37.75,7.83,7.83,0,0,1-2.41-.35,19.25,19.25,0,0,1-2.41-1l-.52-.23-.4-.19c-.53-.28-.95-.48-1.25-.6a2.69,2.69,0,0,0-1-.19,2.16,2.16,0,0,0-1.76.9,3.45,3.45,0,0,0-.71,2.2,3.36,3.36,0,0,0,.29,1.44,3.24,3.24,0,0,0,1,1.15,13.57,13.57,0,0,0,4.35,2.12,18.58,18.58,0,0,0,5.24.73,15.58,15.58,0,0,0,5.92-1,8.75,8.75,0,0,0,3.92-2.91,7.28,7.28,0,0,0,1.38-4.44,7.47,7.47,0,0,0-1.4-4.56A7.16,7.16,0,0,0,65.79,95.26Z"/><path d="M128.62,82.79V110.7A11.32,11.32,0,0,1,117.3,122h-19A11.32,11.32,0,0,1,87,110.7V82.79A11.32,11.32,0,0,1,98.34,71.47h19A11.32,11.32,0,0,1,128.62,82.79ZM117,99.62H116V84.5a3.56,3.56,0,0,0-1.13-2.8,4,4,0,0,0-2.72-1,4.27,4.27,0,0,0-1.87.44,3.8,3.8,0,0,0-1.48,1.28l-12,17.08a4.74,4.74,0,0,0-.92,2.77,3.09,3.09,0,0,0,3.27,3.22h9.33v1.43a3.46,3.46,0,0,0,3.73,3.81,3.81,3.81,0,0,0,2.72-1,3.66,3.66,0,0,0,1.05-2.84v-1.43H117q3.65,0,3.64-3T117,99.62Zm-13.44,0,5-7.25v7.25Z"/></svg>