<svg id="Layer_1" data-name="Layer 1" xmlns="http://www.w3.org/2000/svg" viewBox="0 0 172.3 122.3"><title>s6_1</title><path d="M94,31.81c-.23.4-1.66,2.8-4,2.87s-4-2.49-4.23-2.87l-13-24.18a6.49,6.49,0,0,1-.26-4.92A3,3,0,0,1,74.18.92l29.57,0a3.21,3.21,0,0,1,2.13,2.14A7.45,7.45,0,0,1,106,7.64Q100,19.73,94,31.81Z"/><path d="M53.8,61.28c.4.23,2.81,1.66,2.88,4s-2.5,4-2.88,4.23l-24.18,13a6.47,6.47,0,0,1-4.91.25,3,3,0,0,1-1.8-1.65q0-14.79.05-29.57a3.16,3.16,0,0,1,2.13-2.13,7.29,7.29,0,0,1,4.54-.09Z"/><path d="M34.6,87H69a0,0,0,0,1,0,0v34.38a0,0,0,0,1,0,0H56.24A21.64,21.64,0,0,1,34.6,99.75V87A0,0,0,0,1,34.6,87Z"/><path d="M56.24,12.14H69a0,0,0,0,1,0,0V46.52a0,0,0,0,1,0,0H34.6a0,0,0,0,1,0,0V33.78A21.64,21.64,0,0,1,56.24,12.14Z"/><path d="M109.46,12.14h34.38a0,0,0,0,1,0,0V46.52a0,0,0,0,1,0,0H131.1a21.64,21.64,0,0,1-21.64-21.64V12.14A0,0,0,0,1,109.46,12.14Z" transform="translate(253.31 58.67) rotate(-180)"/><path d="M143.84,87v13.27a21.11,21.11,0,0,1-21.11,21.11H72V83.14h0V49.58h71.81V87ZM113.52,74.84h-2.79V58.66a2.93,2.93,0,0,0-.84-2.21,3,3,0,0,0-2.2-.82,5.73,5.73,0,0,0-2.83.85L99.4,59.65a2.33,2.33,0,0,0-1.2,2.12,2.86,2.86,0,0,0,.69,1.86,2,2,0,0,0,1.63.84,2.34,2.34,0,0,0,1.2-.35l2.73-1.6V74.84h-2.77a3.42,3.42,0,0,0-2.25.61,2.32,2.32,0,0,0-.71,1.84c0,1.69,1,2.53,3,2.53h11.84c2,0,3-.84,3-2.53a2.32,2.32,0,0,0-.71-1.84A3.43,3.43,0,0,0,113.52,74.84Zm-2.82,29.37a5.56,5.56,0,0,0,2.72-2.06,5.75,5.75,0,0,0,1-3.3,6,6,0,0,0-1-3.48,6.78,6.78,0,0,0-3-2.32,11.43,11.43,0,0,0-4.45-.81,13.67,13.67,0,0,0-4.05.61,11.31,11.31,0,0,0-3.46,1.71,2.66,2.66,0,0,0-.82.92,2.63,2.63,0,0,0-.24,1.19,2.83,2.83,0,0,0,.58,1.79,1.78,1.78,0,0,0,1.43.74,2.31,2.31,0,0,0,.86-.16c.25-.1.59-.27,1-.49l.72-.34a17.23,17.23,0,0,1,1.86-.82,5,5,0,0,1,1.79-.31,2.91,2.91,0,0,1,2.08.7,2.55,2.55,0,0,1,.75,2,1.9,1.9,0,0,1-.85,1.74,5.17,5.17,0,0,1-2.73.55h-1.5a2,2,0,0,0-1.61.71,2.81,2.81,0,0,0,0,3.42,2,2,0,0,0,1.61.71h2.11a5.2,5.2,0,0,1,2.8.58,2.15,2.15,0,0,1,.85,1.91,2.39,2.39,0,0,1-.83,2,4.76,4.76,0,0,1-2.75.61,6,6,0,0,1-2-.29,14.76,14.76,0,0,1-2-.83l-.43-.19-.32-.15c-.44-.23-.78-.39-1-.5a2.26,2.26,0,0,0-.85-.15,1.74,1.74,0,0,0-1.43.73,2.79,2.79,0,0,0-.58,1.79A2.42,2.42,0,0,0,98,114.55a11.07,11.07,0,0,0,3.55,1.72,15.14,15.14,0,0,0,4.27.6,12.79,12.79,0,0,0,4.83-.84,7.1,7.1,0,0,0,3.19-2.37,5.94,5.94,0,0,0,1.12-3.61,6.05,6.05,0,0,0-1.14-3.72A5.8,5.8,0,0,0,110.7,104.21Zm16.88-18.73h0a2.72,2.72,0,0,0-2.72-2.72H91a2.72,2.72,0,0,0-2.72,2.72h0A2.72,2.72,0,0,0,91,88.2h33.85A2.72,2.72,0,0,0,127.58,85.48Z"/></svg>