<svg id="Layer_1" data-name="Layer 1" xmlns="http://www.w3.org/2000/svg" viewBox="0 0 172.3 122.3"><title>s6_1</title><path d="M127,122.4H42.48a19,19,0,0,1-19-19V19a19,19,0,0,1,19-19H127a19,19,0,0,1,19,19v84.47A19,19,0,0,1,127,122.4ZM120.86,52H96.63V27.8a11.35,11.35,0,1,0-22.69,0V52H49.71A11.17,11.17,0,0,0,38.37,63.37a11.27,11.27,0,0,0,3.27,8.17,10.79,10.79,0,0,0,8.07,3.37H73.94V99A11.49,11.49,0,0,0,93.46,107,11.16,11.16,0,0,0,96.63,99v-24h24.23a10.82,10.82,0,0,0,8.08-3.37,11.3,11.3,0,0,0,3.26-8.17A11.15,11.15,0,0,0,120.86,52Z"/></svg>