<svg id="Layer_1" data-name="Layer 1" xmlns="http://www.w3.org/2000/svg" viewBox="0 0 172.3 122.3"><title>s6_1</title><path d="M130,122.4H45.48a19,19,0,0,1-19-19V19a19,19,0,0,1,19-19H130a19,19,0,0,1,19,19v84.47A19,19,0,0,1,130,122.4ZM103.87,63.22l20.77-20.58a11.25,11.25,0,0,0,3.46-8.26,10.07,10.07,0,0,0-3.46-7.89A10.66,10.66,0,0,0,116.56,23a11,11,0,0,0-8.07,3.46L87.72,47.26,67,26.49a11.22,11.22,0,0,0-8.07-3.65A10.07,10.07,0,0,0,51,26.3a11.33,11.33,0,0,0-3.46,8.27,11.81,11.81,0,0,0,3.27,8.07L71.57,63.22,50.8,84a11.15,11.15,0,0,0,0,16.15,11.85,11.85,0,0,0,8.08,3.27A11,11,0,0,0,67,100.14L87.72,79.37l20.77,20.77a11.15,11.15,0,0,0,16.15,0,11,11,0,0,0,3.27-8.08A10.56,10.56,0,0,0,124.64,84Z"/></svg>