<svg id="Layer_1" data-name="Layer 1" xmlns="http://www.w3.org/2000/svg" viewBox="0 0 200 130"><title>Game Icon_Mini Game_Studyo</title><path d="M171,100.88a27.34,27.34,0,1,1-46.18-19.77L107.73,55.68a26.74,26.74,0,0,1-14.87-.11l-17.51,26h0a27.48,27.48,0,1,1-9.12-6L83.11,50.4a27.35,27.35,0,1,1,34.48.28L134.12,75.3A27.27,27.27,0,0,1,171,100.88ZM102.2,22.82a13,13,0,0,0-5.15.93V17.36h11.23c3,0,4.52-1.21,4.52-3.64s-1.5-3.59-4.52-3.59H92.16a4.47,4.47,0,0,0-3.28,1.14,4.54,4.54,0,0,0-1.14,3.33V28.69a2.87,2.87,0,0,0,1,2.27,3.59,3.59,0,0,0,2.44.85,5,5,0,0,0,2.34-.57,18.22,18.22,0,0,1,3-.93,13.8,13.8,0,0,1,2.84-.26,5.85,5.85,0,0,1,4,1.3A4.62,4.62,0,0,1,104.85,35a4.49,4.49,0,0,1-1.41,3.66,6.62,6.62,0,0,1-4.31,1.17,8.47,8.47,0,0,1-2.89-.47,29.22,29.22,0,0,1-2.94-1.24l-1-.52a15.7,15.7,0,0,0-1.56-.78,3.47,3.47,0,0,0-1.3-.21,2.68,2.68,0,0,0-2.18,1.12,4.24,4.24,0,0,0-.88,2.73,3.84,3.84,0,0,0,.39,1.79A4.55,4.55,0,0,0,88,43.67a17,17,0,0,0,5.33,2.6,21.84,21.84,0,0,0,6.32.94A16.87,16.87,0,0,0,107,45.65a11.75,11.75,0,0,0,5-4.42,12.31,12.31,0,0,0,1.77-6.61,12.5,12.5,0,0,0-1.48-6.16,10.61,10.61,0,0,0-4.11-4.16A12,12,0,0,0,102.2,22.82ZM65.45,111.61H55l7.38-7.54a24.24,24.24,0,0,0,4.34-5.85A13.09,13.09,0,0,0,68,92.42,9.52,9.52,0,0,0,66.41,87a10.16,10.16,0,0,0-4.5-3.64,16.71,16.71,0,0,0-6.76-1.27,21.12,21.12,0,0,0-11.49,3.53A3.48,3.48,0,0,0,42.39,87a4.42,4.42,0,0,0-.34,1.88,4.48,4.48,0,0,0,.88,2.78,2.66,2.66,0,0,0,2.19,1.17,3,3,0,0,0,1-.16,6.36,6.36,0,0,0,1.06-.49c.4-.23.67-.37.81-.44l1-.52A25.33,25.33,0,0,1,52,89.9a8.49,8.49,0,0,1,2.78-.44,4,4,0,0,1,2.88.94,3.47,3.47,0,0,1,1,2.7c0,2-1.15,4.21-3.43,6.6l-11,11.5a5.67,5.67,0,0,0-1.77,4,3.9,3.9,0,0,0,1.1,2.84,3.94,3.94,0,0,0,3,1.11h19a5.28,5.28,0,0,0,3.41-.93A3.61,3.61,0,0,0,70,115.36a3.46,3.46,0,0,0-1.11-2.84A5.4,5.4,0,0,0,65.45,111.61Zm77.78-4.52a3,3,0,0,0,1.9-.63,2.69,2.69,0,0,0,1-1.77,5,5,0,0,1,1.17-2.1,25.09,25.09,0,0,1,2.63-2.42c1.21-1.07,2.2-2,3-2.76a10.16,10.16,0,0,0,1.95-2.75,7.77,7.77,0,0,0,.81-3.54,7.63,7.63,0,0,0-1.51-4.65A10,10,0,0,0,150,83.24a14.78,14.78,0,0,0-6-1.17,19.62,19.62,0,0,0-6,1,18.63,18.63,0,0,0-5.33,2.67,4.55,4.55,0,0,0-1.27,1.41,3.8,3.8,0,0,0-.39,1.82,4.18,4.18,0,0,0,.91,2.73,2.77,2.77,0,0,0,2.21,1.12,6.34,6.34,0,0,0,2.86-1l1.25-.63a19.81,19.81,0,0,1,2.62-1.27,6.76,6.76,0,0,1,2.37-.44,3.55,3.55,0,0,1,2.29.67A2.25,2.25,0,0,1,146.3,92a3.75,3.75,0,0,1-.6,2.08,16.66,16.66,0,0,1-1.79,2.24,16.82,16.82,0,0,0-2.6,3.35,8.11,8.11,0,0,0-.94,4.09,3.69,3.69,0,0,0,.76,2.49A2.61,2.61,0,0,0,143.23,107.09Zm.11,12.42a4.85,4.85,0,0,0,3.61-1.45,5.22,5.22,0,0,0,0-7.18,5.17,5.17,0,0,0-7.18,0,5.22,5.22,0,0,0,0,7.18A4.8,4.8,0,0,0,143.34,119.51ZM113.4,75.65h-9.13V66.52a4.27,4.27,0,1,0-8.54,0v9.13H86.6a4.2,4.2,0,0,0-4.28,4.28A4.26,4.26,0,0,0,83.55,83a4.1,4.1,0,0,0,3,1.26h9.13v9.06A4.22,4.22,0,0,0,100,97.61a4.08,4.08,0,0,0,3.08-1.24,4.17,4.17,0,0,0,1.19-3V84.27h9.13a4.11,4.11,0,0,0,3-1.26,4.26,4.26,0,0,0,1.23-3.08,4.2,4.2,0,0,0-4.28-4.28Z"/></svg>