<svg id="Layer_1" data-name="Layer 1" xmlns="http://www.w3.org/2000/svg" viewBox="0 0 200 150"><title>l1_1_1</title><path d="M193.38,112.76a17.5,17.5,0,1,1-29.57-12.66L152.86,83.83a17.26,17.26,0,0,1-9.52-.08l-11.21,16.64h0a17.64,17.64,0,1,1-5.84-3.85l10.8-16.1A17.48,17.48,0,0,1,135,55.56l-20.64-13.7a17.5,17.5,0,0,1-28.87,0v0L64,56.14a17.46,17.46,0,0,1-2.74,24.58L71.85,96.49A17.33,17.33,0,0,1,78,95.36a17.54,17.54,0,1,1-12.06,4.84L55,83.93a17.51,17.51,0,0,1-4.61.63,17.3,17.3,0,0,1-4.91-.71L34.23,100.5h0a17.6,17.6,0,1,1-5.84-3.86L39.2,80.55a17.49,17.49,0,0,1,19.29-29L82.73,35.2A17.17,17.17,0,0,1,82.42,32a17.5,17.5,0,1,1,35,0,17.82,17.82,0,0,1-.31,3.21l23.65,16a17.48,17.48,0,0,1,18.41,29.46l10.58,15.76a17.47,17.47,0,0,1,23.63,16.38ZM109.64,65.08h-6.3v-6.3a2.82,2.82,0,0,0-.85-2.1,3,3,0,0,0-4.2,0,2.82,2.82,0,0,0-.85,2.1v6.3h-6.3a2.85,2.85,0,0,0-2.1.85,2.82,2.82,0,0,0-.85,2.1A2.91,2.91,0,0,0,89,70.15a2.84,2.84,0,0,0,2.1.88h6.3v6.25a2.85,2.85,0,0,0,.85,2.1,2.94,2.94,0,0,0,5-2.1V71h6.3a2.84,2.84,0,0,0,2.1-.88,2.91,2.91,0,0,0,.85-2.12,2.82,2.82,0,0,0-.85-2.1A2.85,2.85,0,0,0,109.64,65.08ZM89.44,30.13a4.65,4.65,0,0,0-1.79.32V28.24h3.89c1,0,1.57-.42,1.57-1.26s-.53-1.24-1.57-1.24H86a1.38,1.38,0,0,0-1.53,1.54v4.88a1,1,0,0,0,.34.79,1.29,1.29,0,0,0,.85.29,1.73,1.73,0,0,0,.81-.19,6,6,0,0,1,1-.33,5,5,0,0,1,1-.09,2.06,2.06,0,0,1,1.41.45,1.59,1.59,0,0,1,.5,1.26,1.57,1.57,0,0,1-.48,1.27,2.34,2.34,0,0,1-1.5.4,3,3,0,0,1-1-.16,10.82,10.82,0,0,1-1-.43L86,35.24q-.36-.2-.54-.27A1.18,1.18,0,0,0,85,34.9a.93.93,0,0,0-.76.39,1.48,1.48,0,0,0-.31.94,1.32,1.32,0,0,0,.14.62,1.6,1.6,0,0,0,.42.5,6.13,6.13,0,0,0,1.85.9,7.67,7.67,0,0,0,2.18.32A5.86,5.86,0,0,0,91.11,38a4.09,4.09,0,0,0,1.73-1.53,4.32,4.32,0,0,0,.61-2.28,4.37,4.37,0,0,0-.51-2.14,3.67,3.67,0,0,0-1.43-1.44A4.15,4.15,0,0,0,89.44,30.13Zm10.79,0a4.64,4.64,0,0,0-1.78.32V28.24h3.89c1,0,1.57-.42,1.57-1.26s-.53-1.24-1.57-1.24H96.76a1.38,1.38,0,0,0-1.53,1.54v4.88a1,1,0,0,0,.34.79,1.29,1.29,0,0,0,.85.29,1.73,1.73,0,0,0,.81-.19,6,6,0,0,1,1-.33,5,5,0,0,1,1-.09,2.06,2.06,0,0,1,1.41.45,1.62,1.62,0,0,1,.5,1.26,1.57,1.57,0,0,1-.48,1.27,2.34,2.34,0,0,1-1.5.4,3,3,0,0,1-1-.16,10.82,10.82,0,0,1-1-.43l-.36-.18q-.36-.2-.54-.27a1.18,1.18,0,0,0-.45-.07.93.93,0,0,0-.76.39,1.48,1.48,0,0,0-.31.94,1.32,1.32,0,0,0,.14.62,1.6,1.6,0,0,0,.42.5,6.13,6.13,0,0,0,1.85.9,7.67,7.67,0,0,0,2.18.32,5.86,5.86,0,0,0,2.58-.54,4.09,4.09,0,0,0,1.73-1.53,4.32,4.32,0,0,0,.61-2.28,4.37,4.37,0,0,0-.51-2.14,3.67,3.67,0,0,0-1.43-1.44A4.16,4.16,0,0,0,100.23,30.13Zm9.92,8.46a4.21,4.21,0,0,0,3.6-1.68A8,8,0,0,0,115,32.07a7.89,7.89,0,0,0-1.25-4.82,4.69,4.69,0,0,0-7.19,0,8,8,0,0,0-1.24,4.82,8,8,0,0,0,1.24,4.84A4.21,4.21,0,0,0,110.15,38.59Zm0-2.5a1.29,1.29,0,0,1-1.24-.94,9,9,0,0,1-.38-3.08,9,9,0,0,1,.38-3.07,1.29,1.29,0,0,1,2.48,0,8.73,8.73,0,0,1,.38,3.06,8.75,8.75,0,0,1-.38,3.08A1.28,1.28,0,0,1,110.15,36.09ZM56.54,96.81h-5v-5a2.32,2.32,0,0,0-2.36-2.36,2.32,2.32,0,0,0-2.36,2.36v5h-5a2.32,2.32,0,0,0-2.36,2.36,2.35,2.35,0,0,0,.68,1.7,2.26,2.26,0,0,0,1.68.7h5v5a2.32,2.32,0,0,0,2.36,2.36,2.23,2.23,0,0,0,1.7-.68,2.31,2.31,0,0,0,.66-1.68v-5h5a2.23,2.23,0,0,0,1.68-.7,2.31,2.31,0,0,0,.68-1.7,2.32,2.32,0,0,0-2.36-2.36ZM42.27,67a2.92,2.92,0,0,0,1.43-1.09,3,3,0,0,0,.51-1.73,3.19,3.19,0,0,0-.54-1.84A3.47,3.47,0,0,0,42.1,61.1a5.93,5.93,0,0,0-2.35-.44,7.07,7.07,0,0,0-2.13.33,5.79,5.79,0,0,0-1.83.9,1.45,1.45,0,0,0-.43.48,1.34,1.34,0,0,0-.13.63,1.5,1.5,0,0,0,.31,1,.93.93,0,0,0,.76.39,1.13,1.13,0,0,0,.45-.09,6,6,0,0,0,.54-.26l.37-.18a10.57,10.57,0,0,1,1-.43,2.71,2.71,0,0,1,1-.16,1.54,1.54,0,0,1,1.1.37,1.34,1.34,0,0,1,.39,1,1,1,0,0,1-.45.92,2.77,2.77,0,0,1-1.44.29H38.4a1.05,1.05,0,0,0-.85.38,1.5,1.5,0,0,0,0,1.8,1.05,1.05,0,0,0,.85.38h1.12a2.74,2.74,0,0,1,1.47.3,1.14,1.14,0,0,1,.45,1A1.24,1.24,0,0,1,41,70.78a2.47,2.47,0,0,1-1.45.32,3.28,3.28,0,0,1-1-.15,8.19,8.19,0,0,1-1-.44l-.22-.1-.17-.08a6,6,0,0,0-.54-.26A1.09,1.09,0,0,0,36.1,70a1,1,0,0,0-.76.38,1.52,1.52,0,0,0-.3.95,1.46,1.46,0,0,0,.12.62,1.62,1.62,0,0,0,.43.5,6,6,0,0,0,1.87.9,8,8,0,0,0,2.25.32,6.8,6.8,0,0,0,2.55-.44A3.85,3.85,0,0,0,44,72a3.44,3.44,0,0,0,0-3.87A3.14,3.14,0,0,0,42.27,67Zm8.52,6.7A4.18,4.18,0,0,0,54.38,72a8,8,0,0,0,1.25-4.84,8,8,0,0,0-1.25-4.82,4.7,4.7,0,0,0-7.2,0,8,8,0,0,0-1.24,4.82A8.08,8.08,0,0,0,47.18,72,4.21,4.21,0,0,0,50.79,73.68Zm0-2.5a1.31,1.31,0,0,1-1.25-.94,9,9,0,0,1-.37-3.08,9,9,0,0,1,.37-3.07,1.3,1.3,0,0,1,2.49,0,9,9,0,0,1,.37,3.06A9,9,0,0,1,52,70.24,1.31,1.31,0,0,1,50.79,71.18Zm10.8,2.5A4.18,4.18,0,0,0,65.18,72a8,8,0,0,0,1.25-4.84,8,8,0,0,0-1.25-4.82,4.7,4.7,0,0,0-7.2,0,8,8,0,0,0-1.24,4.82A8.08,8.08,0,0,0,58,72,4.21,4.21,0,0,0,61.59,73.68Zm0-2.5a1.3,1.3,0,0,1-1.25-.94A9,9,0,0,1,60,67.16a8.92,8.92,0,0,1,.38-3.07,1.28,1.28,0,0,1,1.25-.92,1.3,1.3,0,0,1,1.24.93,9,9,0,0,1,.37,3.06,9,9,0,0,1-.37,3.08A1.31,1.31,0,0,1,61.59,71.18ZM14.73,116.32H13.26v-8.53a1.5,1.5,0,0,0-1.6-1.6,3.06,3.06,0,0,0-1.5.45l-2.88,1.67a1.23,1.23,0,0,0-.63,1.12,1.52,1.52,0,0,0,.36,1,1.1,1.1,0,0,0,.87.44,1.26,1.26,0,0,0,.63-.18l1.44-.85v6.5H8.49a1.78,1.78,0,0,0-1.19.33,1.21,1.21,0,0,0-.38,1c0,.89.52,1.33,1.57,1.33h6.24c1,0,1.57-.44,1.57-1.33a1.18,1.18,0,0,0-.38-1A1.78,1.78,0,0,0,14.73,116.32Zm7.87-5.67a4.42,4.42,0,0,0-1.78.33v-2.22h3.89q1.56,0,1.56-1.26c0-.83-.52-1.24-1.56-1.24H19.13a1.52,1.52,0,0,0-1.14.4,1.55,1.55,0,0,0-.39,1.15v4.88a1,1,0,0,0,.34.78,1.24,1.24,0,0,0,.84.3,1.81,1.81,0,0,0,.82-.2,6,6,0,0,1,1-.33,4.88,4.88,0,0,1,1-.09,2.06,2.06,0,0,1,1.41.45,1.62,1.62,0,0,1,.5,1.26,1.54,1.54,0,0,1-.49,1.27,2.28,2.28,0,0,1-1.49.41,3.22,3.22,0,0,1-1-.16c-.31-.11-.64-.26-1-.44l-.36-.18q-.36-.2-.54-.27a1.42,1.42,0,0,0-.45-.07.91.91,0,0,0-.75.39,1.44,1.44,0,0,0-.31.94,1.32,1.32,0,0,0,.14.62,1.6,1.6,0,0,0,.42.5,6.19,6.19,0,0,0,1.84.9,7.44,7.44,0,0,0,2.19.32,5.82,5.82,0,0,0,2.57-.54A4,4,0,0,0,26,117a4.23,4.23,0,0,0,.61-2.28,4.37,4.37,0,0,0-.51-2.14,3.71,3.71,0,0,0-1.42-1.44A4.19,4.19,0,0,0,22.6,110.65Zm9.92,8.46a4.22,4.22,0,0,0,3.6-1.67,10,10,0,0,0,0-9.67,4.22,4.22,0,0,0-3.59-1.67,4.22,4.22,0,0,0-3.6,1.67,10,10,0,0,0,0,9.67A4.22,4.22,0,0,0,32.52,119.11Zm0-2.5a1.28,1.28,0,0,1-1.24-.94,12.59,12.59,0,0,1,0-6.14,1.29,1.29,0,0,1,2.48,0,12.55,12.55,0,0,1,0,6.13A1.29,1.29,0,0,1,32.52,116.61Zm38.35-.29H69.39v-8.53a1.55,1.55,0,0,0-.44-1.17,1.57,1.57,0,0,0-1.16-.43,3,3,0,0,0-1.49.45l-2.88,1.67a1.23,1.23,0,0,0-.63,1.12,1.52,1.52,0,0,0,.36,1,1.08,1.08,0,0,0,.86.44,1.21,1.21,0,0,0,.63-.18l1.44-.85v6.5H64.62a1.8,1.8,0,0,0-1.19.33,1.2,1.2,0,0,0-.37,1c0,.89.52,1.33,1.56,1.33h6.25c1,0,1.56-.44,1.56-1.33a1.2,1.2,0,0,0-.37-1A1.8,1.8,0,0,0,70.87,116.32Zm7.86-5.67A4.45,4.45,0,0,0,77,111v-2.22h3.89c1,0,1.57-.42,1.57-1.26s-.53-1.24-1.57-1.24H75.26a1.5,1.5,0,0,0-1.13.4,1.52,1.52,0,0,0-.4,1.15v4.88a1,1,0,0,0,.34.78,1.24,1.24,0,0,0,.85.3,1.73,1.73,0,0,0,.81-.2,6,6,0,0,1,1-.33,5,5,0,0,1,1-.09,2.06,2.06,0,0,1,1.41.45,1.62,1.62,0,0,1,.5,1.26,1.57,1.57,0,0,1-.48,1.27,2.33,2.33,0,0,1-1.5.41,3.22,3.22,0,0,1-1-.16c-.3-.11-.64-.26-1-.44l-.36-.18q-.36-.2-.54-.27a1.42,1.42,0,0,0-.45-.07.93.93,0,0,0-.76.39,1.5,1.5,0,0,0-.31.94,1.32,1.32,0,0,0,.14.62,1.6,1.6,0,0,0,.42.5,6.13,6.13,0,0,0,1.85.9,7.33,7.33,0,0,0,2.18.32,5.86,5.86,0,0,0,2.58-.54A4.09,4.09,0,0,0,82.14,117a4.32,4.32,0,0,0,.61-2.28,4.37,4.37,0,0,0-.51-2.14,3.8,3.8,0,0,0-1.43-1.44A4.16,4.16,0,0,0,78.73,110.65Zm9.92,8.46a4.22,4.22,0,0,0,3.6-1.67,8,8,0,0,0,1.24-4.84,7.94,7.94,0,0,0-1.25-4.83,4.7,4.7,0,0,0-7.19,0,10,10,0,0,0,0,9.67A4.22,4.22,0,0,0,88.65,119.11Zm0-2.5a1.29,1.29,0,0,1-1.24-.94,12.59,12.59,0,0,1,0-6.14,1.29,1.29,0,0,1,2.48,0,12.55,12.55,0,0,1,0,6.13A1.28,1.28,0,0,1,88.65,116.61Zm65.79-19.9h-5v-5a2.36,2.36,0,1,0-4.72,0v5h-5a2.32,2.32,0,0,0-2.36,2.36,2.36,2.36,0,0,0,.68,1.7,2.23,2.23,0,0,0,1.68.7h5v5a2.39,2.39,0,0,0,4.06,1.68,2.31,2.31,0,0,0,.66-1.68v-5h5a2.23,2.23,0,0,0,1.68-.7,2.36,2.36,0,0,0,.68-1.7,2.32,2.32,0,0,0-2.36-2.36ZM141.22,70.78H137.6l2.56-2.61a8.08,8.08,0,0,0,1.5-2,4.62,4.62,0,0,0,.44-2,3.27,3.27,0,0,0-.55-1.88A3.55,3.55,0,0,0,140,61a5.92,5.92,0,0,0-2.34-.44,7.29,7.29,0,0,0-4,1.22,1.2,1.2,0,0,0-.44.47,1.54,1.54,0,0,0-.12.65,1.51,1.51,0,0,0,.31,1,.91.91,0,0,0,.75.41.93.93,0,0,0,.34-.06,1.49,1.49,0,0,0,.37-.17l.28-.15.36-.18a9.5,9.5,0,0,1,1-.44,2.93,2.93,0,0,1,1-.15,1.4,1.4,0,0,1,1,.32,1.2,1.2,0,0,1,.35.94,3.48,3.48,0,0,1-1.19,2.28l-3.81,4a2,2,0,0,0-.61,1.4,1.37,1.37,0,0,0,.37,1,1.42,1.42,0,0,0,1,.38h6.57a1.85,1.85,0,0,0,1.18-.32,1.24,1.24,0,0,0,.39-1,1.19,1.19,0,0,0-.39-1A1.85,1.85,0,0,0,141.22,70.78Zm8.35-5.67a4.42,4.42,0,0,0-1.78.33V63.22h3.89q1.56,0,1.56-1.26c0-.82-.52-1.24-1.56-1.24H146.1a1.38,1.38,0,0,0-1.53,1.55v4.88a1,1,0,0,0,.34.78,1.24,1.24,0,0,0,.85.3,1.76,1.76,0,0,0,.81-.2,6.85,6.85,0,0,1,1-.32,5,5,0,0,1,1-.09,2.06,2.06,0,0,1,1.41.45,1.62,1.62,0,0,1,.5,1.26A1.55,1.55,0,0,1,150,70.6a2.29,2.29,0,0,1-1.49.4,3,3,0,0,1-1-.16c-.3-.11-.64-.25-1-.43l-.36-.18a4.38,4.38,0,0,0-.54-.27,1.17,1.17,0,0,0-.45-.08.91.91,0,0,0-.75.39,1.45,1.45,0,0,0-.31,1,1.35,1.35,0,0,0,.14.62,1.57,1.57,0,0,0,.42.49,5.7,5.7,0,0,0,1.85.9,7.34,7.34,0,0,0,2.18.33,5.89,5.89,0,0,0,2.58-.54A4,4,0,0,0,153,71.49a4.58,4.58,0,0,0,.1-4.42,3.58,3.58,0,0,0-1.42-1.44A4.17,4.17,0,0,0,149.57,65.11Zm9.92,8.46a4.2,4.2,0,0,0,3.6-1.67,8,8,0,0,0,1.24-4.84,7.94,7.94,0,0,0-1.25-4.83,4.7,4.7,0,0,0-7.19,0,8,8,0,0,0-1.24,4.83,8,8,0,0,0,1.24,4.84A4.2,4.2,0,0,0,159.49,73.57Zm0-2.5a1.28,1.28,0,0,1-1.24-.93,9,9,0,0,1-.38-3.08,8.92,8.92,0,0,1,.38-3.07,1.29,1.29,0,0,1,2.48,0,8.9,8.9,0,0,1,.38,3.06,9,9,0,0,1-.38,3.08A1.28,1.28,0,0,1,159.49,71.07Zm-46.86,45.15h-1.47v-8.53a1.55,1.55,0,0,0-.45-1.17,1.57,1.57,0,0,0-1.16-.43,3.06,3.06,0,0,0-1.49.45l-2.88,1.67a1.22,1.22,0,0,0-.63,1.12,1.52,1.52,0,0,0,.36,1,1.09,1.09,0,0,0,.86.44,1.21,1.21,0,0,0,.63-.18l1.44-.85v6.5h-1.46a1.81,1.81,0,0,0-1.18.32,1.23,1.23,0,0,0-.38,1c0,.88.52,1.33,1.56,1.33h6.25c1,0,1.57-.45,1.57-1.33a1.23,1.23,0,0,0-.38-1A1.84,1.84,0,0,0,112.63,116.22Zm7.87-5.67a4.65,4.65,0,0,0-1.79.32v-2.21h3.89c1.05,0,1.57-.42,1.57-1.26s-.52-1.24-1.57-1.24H117a1.54,1.54,0,0,0-1.13.39,1.6,1.6,0,0,0-.4,1.16v4.87a1,1,0,0,0,.35.79,1.24,1.24,0,0,0,.84.29,1.73,1.73,0,0,0,.81-.19,6.07,6.07,0,0,1,1-.33,4.88,4.88,0,0,1,1-.09,2,2,0,0,1,1.4.45,1.59,1.59,0,0,1,.51,1.26,1.57,1.57,0,0,1-.49,1.27,2.32,2.32,0,0,1-1.5.41,2.9,2.9,0,0,1-1-.17,8.08,8.08,0,0,1-1-.43l-.36-.18q-.36-.19-.54-.27a1.18,1.18,0,0,0-.45-.07.94.94,0,0,0-.76.39,1.47,1.47,0,0,0-.3.94,1.32,1.32,0,0,0,.13.62,1.6,1.6,0,0,0,.42.5,6.25,6.25,0,0,0,1.85.9,7.69,7.69,0,0,0,2.19.32,5.82,5.82,0,0,0,2.57-.54,4,4,0,0,0,1.73-1.53,4.23,4.23,0,0,0,.61-2.28,4.37,4.37,0,0,0-.51-2.14,3.64,3.64,0,0,0-1.42-1.44A4.19,4.19,0,0,0,120.5,110.55Zm9.92,8.46a4.19,4.19,0,0,0,3.59-1.67,10,10,0,0,0,0-9.67,4.72,4.72,0,0,0-7.2,0,10,10,0,0,0,0,9.67A4.23,4.23,0,0,0,130.42,119Zm0-2.5a1.29,1.29,0,0,1-1.25-.94,13,13,0,0,1,0-6.15,1.3,1.3,0,0,1,2.49,0,12.92,12.92,0,0,1,0,6.14A1.3,1.3,0,0,1,130.42,116.51Zm38.34-.29h-1.47v-8.53a1.55,1.55,0,0,0-.44-1.17,1.59,1.59,0,0,0-1.16-.44,3.17,3.17,0,0,0-1.5.45l-2.88,1.68a1.21,1.21,0,0,0-.63,1.11,1.55,1.55,0,0,0,.36,1,1.1,1.1,0,0,0,.87.44,1.26,1.26,0,0,0,.63-.18l1.44-.85v6.5h-1.46a1.84,1.84,0,0,0-1.19.32,1.22,1.22,0,0,0-.38,1c0,.89.52,1.34,1.57,1.34h6.24c1.05,0,1.57-.45,1.57-1.34a1.22,1.22,0,0,0-.38-1A1.84,1.84,0,0,0,168.76,116.22Zm7,2.79a4.21,4.21,0,0,0,3.6-1.68,10,10,0,0,0,0-9.66,4.69,4.69,0,0,0-7.19,0,10,10,0,0,0,0,9.66A4.21,4.21,0,0,0,175.75,119Zm0-2.5a1.29,1.29,0,0,1-1.24-.94,12.63,12.63,0,0,1,0-6.15,1.29,1.29,0,0,1,2.48,0,12.59,12.59,0,0,1,0,6.14A1.3,1.3,0,0,1,175.75,116.51Zm10.8,2.5a4.21,4.21,0,0,0,3.6-1.68,10,10,0,0,0,0-9.66,4.69,4.69,0,0,0-7.19,0,10,10,0,0,0,0,9.66A4.21,4.21,0,0,0,186.55,119Zm0-2.5a1.29,1.29,0,0,1-1.24-.94,12.63,12.63,0,0,1,0-6.15,1.29,1.29,0,0,1,2.48,0,12.59,12.59,0,0,1,0,6.14A1.3,1.3,0,0,1,186.55,116.51Z"/></svg>