<svg id="Layer_1" data-name="Layer 1" xmlns="http://www.w3.org/2000/svg" viewBox="0 0 100 100"><title>l1_1_1</title><path d="M93.72,72.41A17.5,17.5,0,1,1,64.16,59.75l-11-16.27a17.26,17.26,0,0,1-9.52-.08L32.47,60h0a17.64,17.64,0,1,1-5.84-3.85l10.8-16.1a17.51,17.51,0,1,1,22.08.18L70.09,56A17.47,17.47,0,0,1,93.72,72.41Zm-37.94-16h-5v-5a2.36,2.36,0,1,0-4.72,0v5H41a2.32,2.32,0,0,0-2.36,2.36,2.36,2.36,0,0,0,.68,1.7,2.23,2.23,0,0,0,1.68.7h5v5a2.39,2.39,0,0,0,4.06,1.68,2.31,2.31,0,0,0,.66-1.68v-5h5a2.23,2.23,0,0,0,1.68-.7,2.36,2.36,0,0,0,.68-1.7,2.32,2.32,0,0,0-2.36-2.36ZM50.25,23.54a6.28,6.28,0,0,0-2.48.45V20.91h5.4c1.45,0,2.18-.58,2.18-1.75s-.73-1.72-2.18-1.72H45.42a2.1,2.1,0,0,0-1.57.55,2.14,2.14,0,0,0-.55,1.6v6.77a1.4,1.4,0,0,0,.47,1.09,1.76,1.76,0,0,0,1.18.41,2.4,2.4,0,0,0,1.12-.27,8.21,8.21,0,0,1,1.44-.45A6.34,6.34,0,0,1,48.87,27a2.79,2.79,0,0,1,2,.63,2.2,2.2,0,0,1,.7,1.75,2.16,2.16,0,0,1-.67,1.76,3.23,3.23,0,0,1-2.08.56,4.18,4.18,0,0,1-1.39-.22,14.76,14.76,0,0,1-1.41-.6l-.5-.25a6.58,6.58,0,0,0-.75-.38,1.79,1.79,0,0,0-.62-.1,1.28,1.28,0,0,0-1.05.54A2,2,0,0,0,42.62,32a1.76,1.76,0,0,0,.19.86,2,2,0,0,0,.59.69A8,8,0,0,0,46,34.81a10.41,10.41,0,0,0,3,.45,8.08,8.08,0,0,0,3.57-.75A5.58,5.58,0,0,0,55,32.39a5.91,5.91,0,0,0,.85-3.18,6.08,6.08,0,0,0-.71-3,5,5,0,0,0-2-2A5.7,5.7,0,0,0,50.25,23.54ZM24.59,76.85h-5l3.55-3.63a11.82,11.82,0,0,0,2.09-2.81,6.41,6.41,0,0,0,.61-2.79A4.65,4.65,0,0,0,25.06,65a4.87,4.87,0,0,0-2.17-1.75,8,8,0,0,0-3.25-.61,9.71,9.71,0,0,0-2.88.45,9.45,9.45,0,0,0-2.64,1.25,1.55,1.55,0,0,0-.61.65,2.34,2.34,0,0,0,.26,2.23,1.26,1.26,0,0,0,1.05.57,1.5,1.5,0,0,0,.47-.08,3.24,3.24,0,0,0,.52-.24l.38-.21.5-.25a13.43,13.43,0,0,1,1.42-.61,4,4,0,0,1,1.33-.21,2,2,0,0,1,1.39.45,1.66,1.66,0,0,1,.49,1.3,4.87,4.87,0,0,1-1.65,3.17l-5.3,5.53a2.71,2.71,0,0,0-.85,1.95A1.86,1.86,0,0,0,14,80a1.91,1.91,0,0,0,1.43.54h9.12a2.51,2.51,0,0,0,1.64-.45,1.72,1.72,0,0,0,.54-1.4,1.67,1.67,0,0,0-.54-1.37A2.57,2.57,0,0,0,24.59,76.85Zm54.67-5.43a4,4,0,0,0,2-1.51A4.12,4.12,0,0,0,82,67.5,4.34,4.34,0,0,0,81.2,65,4.85,4.85,0,0,0,79,63.25a8.3,8.3,0,0,0-3.27-.6,10,10,0,0,0-3,.45,8.25,8.25,0,0,0-2.54,1.25,2,2,0,0,0-.6.67,2.29,2.29,0,0,0,.25,2.19,1.31,1.31,0,0,0,1,.54,1.54,1.54,0,0,0,.63-.12,7.63,7.63,0,0,0,.75-.36l.53-.25a13.31,13.31,0,0,1,1.36-.6,3.75,3.75,0,0,1,1.31-.22,2.13,2.13,0,0,1,1.52.51,1.86,1.86,0,0,1,.56,1.44A1.39,1.39,0,0,1,77,69.42a3.79,3.79,0,0,1-2,.4h-1.1a1.45,1.45,0,0,0-1.18.53,2.07,2.07,0,0,0,0,2.5,1.44,1.44,0,0,0,1.18.52h1.55a3.7,3.7,0,0,1,2,.43,1.56,1.56,0,0,1,.63,1.4,1.74,1.74,0,0,1-.62,1.5,3.47,3.47,0,0,1-2,.45,4.35,4.35,0,0,1-1.44-.22,10.5,10.5,0,0,1-1.43-.61,3.37,3.37,0,0,1-.32-.14l-.24-.11a7.76,7.76,0,0,0-.75-.36,1.52,1.52,0,0,0-.62-.11,1.3,1.3,0,0,0-1,.53,2.09,2.09,0,0,0-.43,1.32,1.91,1.91,0,0,0,.18.86A2.1,2.1,0,0,0,70,79a8,8,0,0,0,2.6,1.26,11.15,11.15,0,0,0,3.12.44,9.37,9.37,0,0,0,3.54-.62,5.18,5.18,0,0,0,2.34-1.73,4.37,4.37,0,0,0,.82-2.65A4.43,4.43,0,0,0,81.58,73,4.24,4.24,0,0,0,79.26,71.42Z"/></svg>