<svg id="Layer_1" data-name="Layer 1" xmlns="http://www.w3.org/2000/svg" viewBox="0 0 200 150"><title>l1_1_1</title><path d="M191.6,113.58A17.5,17.5,0,1,1,162,100.92l-11-16.27a17.26,17.26,0,0,1-9.52-.08l-11.21,16.65h0a17.64,17.64,0,1,1-5.84-3.85l10.81-16.1a17.47,17.47,0,0,1-2.11-24.88l-20.64-13.7a17.5,17.5,0,0,1-28.87,0v0L62.23,57a17.46,17.46,0,0,1-2.74,24.58L70.08,97.31a17.27,17.27,0,0,1,6.12-1.13A17.54,17.54,0,1,1,64.14,101l-11-16.27a17.51,17.51,0,0,1-4.61.63,17.23,17.23,0,0,1-4.9-.71L32.46,101.32h0a17.55,17.55,0,1,1-5.83-3.86l10.8-16.09a17.5,17.5,0,0,1,19.3-29L81,36a17.17,17.17,0,0,1-.31-3.23,17.5,17.5,0,0,1,35,0,17,17,0,0,1-.31,3.21L139,52a17.48,17.48,0,0,1,18.41,29.46L168,97.2a17.47,17.47,0,0,1,23.63,16.38Zm-84-47.86h-6.3v-6.3a2.9,2.9,0,0,0-3-3,2.9,2.9,0,0,0-3,3v6.3h-6.3a2.9,2.9,0,0,0-3,3A2.92,2.92,0,0,0,87,70.8a2.8,2.8,0,0,0,2.1.87h6.3v6.25a3,3,0,0,0,5.07,2.1,2.88,2.88,0,0,0,.83-2.1V71.67h6.3a2.83,2.83,0,0,0,2.1-.87,3,3,0,0,0,.85-2.13,2.9,2.9,0,0,0-3-3ZM95.45,34.77H94.9v-9a2.13,2.13,0,0,0-.67-1.68,2.38,2.38,0,0,0-1.63-.6,2.58,2.58,0,0,0-1.11.26,2.28,2.28,0,0,0-.89.77L83.45,34.7a2.75,2.75,0,0,0-.55,1.65,1.89,1.89,0,0,0,.53,1.37,1.85,1.85,0,0,0,1.42.55h5.58v.85a2.06,2.06,0,0,0,2.22,2.28,2.29,2.29,0,0,0,1.63-.58,2.21,2.21,0,0,0,.62-1.7v-.85h.55c1.45,0,2.18-.59,2.18-1.77S96.9,34.77,95.45,34.77Zm-8,0,3-4.32v4.32Zm18.87-5.05a6.22,6.22,0,0,0-2.47.45V27.1h5.4c1.45,0,2.17-.59,2.17-1.75s-.72-1.73-2.17-1.73h-7.75a1.92,1.92,0,0,0-2.13,2.15v6.78a1.34,1.34,0,0,0,.48,1.08,1.68,1.68,0,0,0,1.17.42,2.34,2.34,0,0,0,1.13-.28,10.71,10.71,0,0,1,1.43-.45,7.2,7.2,0,0,1,1.37-.12,2.87,2.87,0,0,1,1.95.62,2.25,2.25,0,0,1,.7,1.75,2.16,2.16,0,0,1-.68,1.76,3.16,3.16,0,0,1-2.07.57,4.14,4.14,0,0,1-1.39-.23,12.87,12.87,0,0,1-1.41-.6l-.5-.25a8,8,0,0,0-.75-.37,1.67,1.67,0,0,0-.63-.1,1.31,1.31,0,0,0-1.05.53,2.08,2.08,0,0,0-.42,1.32,1.91,1.91,0,0,0,.18.86,2.47,2.47,0,0,0,.59.69A8.37,8.37,0,0,0,102,41a10.51,10.51,0,0,0,3,.45,8.16,8.16,0,0,0,3.58-.75,5.66,5.66,0,0,0,2.4-2.13,6.41,6.41,0,0,0,.13-6.14,5.12,5.12,0,0,0-2-2A5.81,5.81,0,0,0,106.3,29.72ZM55.77,96.63h-5v-5a2.32,2.32,0,0,0-2.36-2.36A2.32,2.32,0,0,0,46,91.59v5H41a2.39,2.39,0,0,0-1.68,4.06,2.23,2.23,0,0,0,1.68.7h5v5a2.39,2.39,0,0,0,4.06,1.68,2.31,2.31,0,0,0,.66-1.68v-5h5a2.26,2.26,0,0,0,1.68-.7,2.35,2.35,0,0,0,.68-1.7,2.32,2.32,0,0,0-2.36-2.36ZM43.68,67.26a4.06,4.06,0,0,0,2-1.51,4.12,4.12,0,0,0,.71-2.41,4.34,4.34,0,0,0-.76-2.55,4.85,4.85,0,0,0-2.17-1.7,8.33,8.33,0,0,0-3.27-.6,10,10,0,0,0-3,.45,8.25,8.25,0,0,0-2.54,1.25,1.68,1.68,0,0,0-.77,1.55,2.08,2.08,0,0,0,.42,1.31,1.31,1.31,0,0,0,1.05.54,1.54,1.54,0,0,0,.63-.12,7.63,7.63,0,0,0,.75-.36l.52-.25a13.4,13.4,0,0,1,1.37-.6A3.71,3.71,0,0,1,40,62a2.13,2.13,0,0,1,1.52.51A1.85,1.85,0,0,1,42,64a1.39,1.39,0,0,1-.62,1.27,3.79,3.79,0,0,1-2,.4h-1.1a1.45,1.45,0,0,0-1.18.53,2.07,2.07,0,0,0,0,2.5,1.44,1.44,0,0,0,1.18.52h1.55a3.7,3.7,0,0,1,2,.43,1.56,1.56,0,0,1,.62,1.4,1.73,1.73,0,0,1-.61,1.5,3.47,3.47,0,0,1-2,.45,4.63,4.63,0,0,1-1.44-.22A11.13,11.13,0,0,1,37,72.16L36.72,72l-.24-.11a5.93,5.93,0,0,0-.75-.36,1.52,1.52,0,0,0-.62-.11,1.27,1.27,0,0,0-1,.53,2.09,2.09,0,0,0-.43,1.32,1.91,1.91,0,0,0,.18.86,2,2,0,0,0,.6.69A8,8,0,0,0,37,76.1a11.15,11.15,0,0,0,3.12.44,9.37,9.37,0,0,0,3.54-.62A5.26,5.26,0,0,0,46,74.19a4.37,4.37,0,0,0,.82-2.65A4.49,4.49,0,0,0,46,68.81,4.24,4.24,0,0,0,43.68,67.26Zm11.83,9.3a5.84,5.84,0,0,0,5-2.32c1.15-1.55,1.72-3.8,1.72-6.73s-.58-5.15-1.73-6.7a5.86,5.86,0,0,0-5-2.32,5.84,5.84,0,0,0-5,2.32q-1.73,2.32-1.73,6.7c0,2.93.58,5.18,1.73,6.73A5.84,5.84,0,0,0,55.51,76.56Zm0-3.47a1.81,1.81,0,0,1-1.73-1.3,12.53,12.53,0,0,1-.52-4.28,12.36,12.36,0,0,1,.52-4.26,1.8,1.8,0,0,1,3.45,0,12.32,12.32,0,0,1,.53,4.25,12.48,12.48,0,0,1-.53,4.28A1.79,1.79,0,0,1,55.51,73.09Zm-38.43,45h-5l3.55-3.63a11.55,11.55,0,0,0,2.09-2.81,6.27,6.27,0,0,0,.61-2.79,4.57,4.57,0,0,0-.76-2.61,4.9,4.9,0,0,0-2.16-1.75,8,8,0,0,0-3.25-.61,9.82,9.82,0,0,0-2.89.45,10,10,0,0,0-2.64,1.25,1.68,1.68,0,0,0-.61.65,2.1,2.1,0,0,0-.16.9,2.18,2.18,0,0,0,.42,1.34,1.3,1.3,0,0,0,1,.56,1.51,1.51,0,0,0,.48-.08,2.72,2.72,0,0,0,.51-.23l.39-.22.5-.25a12.53,12.53,0,0,1,1.41-.61,4.14,4.14,0,0,1,1.34-.21,2,2,0,0,1,1.39.45,1.69,1.69,0,0,1,.48,1.3,4.85,4.85,0,0,1-1.65,3.17l-5.3,5.53a2.75,2.75,0,0,0-.85,2,1.87,1.87,0,0,0,.53,1.36,1.89,1.89,0,0,0,1.43.54h9.12a2.53,2.53,0,0,0,1.64-.45,1.72,1.72,0,0,0,.53-1.4,1.63,1.63,0,0,0-.53-1.36A2.59,2.59,0,0,0,17.08,118.12ZM27.46,122a5.86,5.86,0,0,0,5-2.32q1.73-2.33,1.72-6.73c0-2.91-.58-5.15-1.74-6.7a5.84,5.84,0,0,0-5-2.32,5.83,5.83,0,0,0-5,2.32c-1.16,1.55-1.73,3.79-1.73,6.7s.57,5.18,1.73,6.73A5.83,5.83,0,0,0,27.46,122Zm0-3.47a1.79,1.79,0,0,1-1.73-1.3,12.49,12.49,0,0,1-.52-4.28,12.36,12.36,0,0,1,.52-4.26,1.8,1.8,0,0,1,3.45,0,12.36,12.36,0,0,1,.53,4.25,12.44,12.44,0,0,1-.53,4.28A1.79,1.79,0,0,1,27.46,118.52Zm46.42-.4h-2V106.27A2.1,2.1,0,0,0,69.6,104a4.18,4.18,0,0,0-2.07.63l-4,2.32a1.69,1.69,0,0,0-.88,1.55,2.14,2.14,0,0,0,.5,1.37,1.49,1.49,0,0,0,1.2.61,1.71,1.71,0,0,0,.88-.25l2-1.18v9h-2a2.5,2.5,0,0,0-1.65.45,1.68,1.68,0,0,0-.52,1.35c0,1.23.72,1.85,2.17,1.85h8.68c1.45,0,2.17-.62,2.17-1.85a1.68,1.68,0,0,0-.52-1.35A2.5,2.5,0,0,0,73.88,118.12Zm9.7,3.87a5.84,5.84,0,0,0,5-2.32q1.73-2.33,1.72-6.73c0-2.91-.58-5.15-1.74-6.7a6.53,6.53,0,0,0-10,0c-1.15,1.55-1.73,3.79-1.73,6.7s.58,5.18,1.73,6.73A5.83,5.83,0,0,0,83.58,122Zm0-3.47a1.79,1.79,0,0,1-1.73-1.3,12.49,12.49,0,0,1-.52-4.28,12.36,12.36,0,0,1,.52-4.26,1.8,1.8,0,0,1,3.45,0,12.36,12.36,0,0,1,.53,4.25,12.44,12.44,0,0,1-.53,4.28A1.78,1.78,0,0,1,83.58,118.52Zm70.08-22h-5v-5a2.25,2.25,0,0,0-.68-1.68,2.28,2.28,0,0,0-1.68-.68,2.32,2.32,0,0,0-1.68.68,2.28,2.28,0,0,0-.68,1.68v5h-5a2.32,2.32,0,0,0-1.68.68,2.28,2.28,0,0,0-.68,1.68,2.36,2.36,0,0,0,.68,1.7,2.26,2.26,0,0,0,1.68.7h5v5a2.28,2.28,0,0,0,.68,1.68,2.32,2.32,0,0,0,1.68.68A2.27,2.27,0,0,0,148,108a2.31,2.31,0,0,0,.66-1.68v-5h5a2.23,2.23,0,0,0,1.68-.7,2.32,2.32,0,0,0,.68-1.7,2.25,2.25,0,0,0-.68-1.68A2.28,2.28,0,0,0,153.66,96.53Zm-10-23h-2V61.73a2.16,2.16,0,0,0-.61-1.62,2.2,2.2,0,0,0-1.61-.6,4.26,4.26,0,0,0-2.07.62l-4,2.33a1.68,1.68,0,0,0-.88,1.55,2.12,2.12,0,0,0,.5,1.36,1.49,1.49,0,0,0,1.2.61,1.71,1.71,0,0,0,.88-.25l2-1.17v9h-2a2.5,2.5,0,0,0-1.65.45,1.68,1.68,0,0,0-.52,1.35c0,1.24.72,1.85,2.17,1.85h8.67c1.45,0,2.18-.61,2.18-1.85a1.71,1.71,0,0,0-.52-1.35A2.55,2.55,0,0,0,143.7,73.58Zm10.93-7.87a6.31,6.31,0,0,0-2.48.45V63.08h5.41c1.44,0,2.17-.58,2.17-1.75s-.73-1.72-2.17-1.72h-7.75a1.92,1.92,0,0,0-2.13,2.15v6.77a1.39,1.39,0,0,0,.47,1.09,1.72,1.72,0,0,0,1.18.41,2.38,2.38,0,0,0,1.12-.27,8.21,8.21,0,0,1,1.44-.45,6.34,6.34,0,0,1,1.36-.13,2.79,2.79,0,0,1,1.95.63,2.2,2.2,0,0,1,.7,1.75,2.15,2.15,0,0,1-.67,1.76,3.17,3.17,0,0,1-2.08.56,4.08,4.08,0,0,1-1.38-.22,12.87,12.87,0,0,1-1.41-.6l-.5-.25c-.34-.19-.59-.31-.75-.38a1.89,1.89,0,0,0-.63-.1,1.28,1.28,0,0,0-1,.54,2.08,2.08,0,0,0-.43,1.31,2,2,0,0,0,.19.87,2.17,2.17,0,0,0,.59.68A8.15,8.15,0,0,0,150.34,77a10.46,10.46,0,0,0,3,.45,8.08,8.08,0,0,0,3.57-.75,5.67,5.67,0,0,0,2.41-2.12,6.48,6.48,0,0,0,.13-6.14,5.05,5.05,0,0,0-2-2A5.84,5.84,0,0,0,154.63,65.71Zm-39,52.31h-2V106.17a2.08,2.08,0,0,0-2.23-2.23,4.18,4.18,0,0,0-2.07.63l-4,2.32a1.69,1.69,0,0,0-.88,1.55,2.1,2.1,0,0,0,.5,1.36,1.53,1.53,0,0,0,1.2.62,1.81,1.81,0,0,0,.88-.25l2-1.18v9h-2a2.5,2.5,0,0,0-1.65.45,1.68,1.68,0,0,0-.52,1.35c0,1.23.72,1.85,2.17,1.85h8.68c1.45,0,2.17-.62,2.17-1.85a1.68,1.68,0,0,0-.52-1.35A2.5,2.5,0,0,0,115.64,118Zm9.7,3.87a5.84,5.84,0,0,0,5-2.32q1.72-2.32,1.72-6.73c0-2.91-.58-5.15-1.73-6.7a6.54,6.54,0,0,0-10,0c-1.15,1.55-1.73,3.79-1.73,6.7s.58,5.18,1.73,6.73A5.83,5.83,0,0,0,125.34,121.89Zm0-3.47a1.81,1.81,0,0,1-1.73-1.3,12.49,12.49,0,0,1-.52-4.28,12.36,12.36,0,0,1,.52-4.26,1.8,1.8,0,0,1,3.45,0,12.36,12.36,0,0,1,.53,4.25,12.44,12.44,0,0,1-.53,4.28A1.79,1.79,0,0,1,125.34,118.42Zm49.86-6.28a6.28,6.28,0,0,0-2.48.45v-3.07h5.4c1.45,0,2.18-.59,2.18-1.75s-.73-1.73-2.18-1.73h-7.75a1.92,1.92,0,0,0-2.12,2.15V115a1.36,1.36,0,0,0,.47,1.08,1.72,1.72,0,0,0,1.18.42,2.3,2.3,0,0,0,1.12-.28,10.36,10.36,0,0,1,1.44-.45,7.09,7.09,0,0,1,1.36-.12,2.85,2.85,0,0,1,2,.62,2.22,2.22,0,0,1,.7,1.75,2.15,2.15,0,0,1-.67,1.76,3.17,3.17,0,0,1-2.08.57,4.18,4.18,0,0,1-1.39-.23,14.76,14.76,0,0,1-1.41-.6l-.5-.25a6.14,6.14,0,0,0-.75-.37,1.61,1.61,0,0,0-.62-.1,1.3,1.3,0,0,0-1.05.53,2,2,0,0,0-.43,1.32,1.79,1.79,0,0,0,.19.86,2.18,2.18,0,0,0,.59.69,8.26,8.26,0,0,0,2.56,1.25,10.41,10.41,0,0,0,3,.45,8.08,8.08,0,0,0,3.57-.75,5.66,5.66,0,0,0,2.4-2.13,5.85,5.85,0,0,0,.85-3.17,6.1,6.1,0,0,0-.71-3,5.14,5.14,0,0,0-2-2A5.8,5.8,0,0,0,175.2,112.14Z"/></svg>