<svg id="Layer_1" data-name="Layer 1" xmlns="http://www.w3.org/2000/svg" viewBox="0 0 100 100"><title>l1_1_1</title><path d="M95.27,71.52A17.5,17.5,0,1,1,65.71,58.86l-11-16.27a17.51,17.51,0,0,1-4.61.63,17.23,17.23,0,0,1-4.9-.71L34,59.16h0a17.55,17.55,0,1,1-5.83-3.86L39,39.21a17.51,17.51,0,1,1,22.08.17L71.65,55.15A17.27,17.27,0,0,1,77.77,54,17.5,17.5,0,0,1,95.27,71.52Zm-37.93-16h-5v-5a2.32,2.32,0,0,0-2.36-2.36,2.32,2.32,0,0,0-2.36,2.36v5h-5a2.39,2.39,0,0,0-1.68,4.06,2.23,2.23,0,0,0,1.68.7h5v5a2.39,2.39,0,0,0,4.06,1.68,2.31,2.31,0,0,0,.66-1.68v-5h5a2.26,2.26,0,0,0,1.68-.7,2.35,2.35,0,0,0,.68-1.7,2.32,2.32,0,0,0-2.36-2.36Zm-10-24.95H45.33V18.67a2.16,2.16,0,0,0-.61-1.62,2.22,2.22,0,0,0-1.62-.6,4.26,4.26,0,0,0-2.07.62L37,19.4A1.71,1.71,0,0,0,36.15,21a2.12,2.12,0,0,0,.5,1.36,1.51,1.51,0,0,0,1.2.61,1.68,1.68,0,0,0,.88-.25l2-1.17v9h-2a2.5,2.5,0,0,0-1.65.45,1.68,1.68,0,0,0-.52,1.35c0,1.24.72,1.85,2.17,1.85h8.68c1.45,0,2.17-.61,2.17-1.85A1.68,1.68,0,0,0,49,31,2.5,2.5,0,0,0,47.38,30.52ZM60.25,25.1a4.06,4.06,0,0,0,2-1.51A4.13,4.13,0,0,0,63,21.17a4.38,4.38,0,0,0-.76-2.55A4.92,4.92,0,0,0,60,16.92a8.3,8.3,0,0,0-3.27-.6,10,10,0,0,0-3,.45A8.48,8.48,0,0,0,51.25,18a2.18,2.18,0,0,0-.6.68,2,2,0,0,0-.17.87,2.08,2.08,0,0,0,.42,1.32,1.3,1.3,0,0,0,1.05.53,1.54,1.54,0,0,0,.63-.11,7.63,7.63,0,0,0,.75-.36l.52-.25a13.4,13.4,0,0,1,1.37-.6,3.76,3.76,0,0,1,1.31-.23,2.14,2.14,0,0,1,1.52.52,1.85,1.85,0,0,1,.55,1.43A1.4,1.4,0,0,1,58,23.1a3.79,3.79,0,0,1-2,.4h-1.1A1.44,1.44,0,0,0,53.7,24a2.07,2.07,0,0,0,0,2.5,1.45,1.45,0,0,0,1.18.53h1.55a3.8,3.8,0,0,1,2,.42,1.57,1.57,0,0,1,.62,1.4,1.73,1.73,0,0,1-.61,1.5,3.47,3.47,0,0,1-2,.45A4.64,4.64,0,0,1,55,30.61,11.13,11.13,0,0,1,53.6,30l-.31-.14-.24-.11a5.93,5.93,0,0,0-.75-.36,1.52,1.52,0,0,0-.62-.12,1.28,1.28,0,0,0-1,.54,2.08,2.08,0,0,0-.43,1.31,1.93,1.93,0,0,0,.18.87,2,2,0,0,0,.6.68,8,8,0,0,0,2.6,1.27,11.14,11.14,0,0,0,3.12.43,9.37,9.37,0,0,0,3.54-.61A5.27,5.27,0,0,0,62.58,32a4.35,4.35,0,0,0,.82-2.65,4.42,4.42,0,0,0-.83-2.72A4.24,4.24,0,0,0,60.25,25.1ZM20.89,62.76a6.53,6.53,0,0,0-3.18.77,5.55,5.55,0,0,0-2.18,2.17,6.17,6.17,0,0,0-.79,3.13,6.31,6.31,0,0,0,.69,3A5,5,0,0,0,20,74.58a4.84,4.84,0,0,0,2.12-.46,4,4,0,0,0,1.53-1.26,6.67,6.67,0,0,1-.93,3.26,2.4,2.4,0,0,1-2.07,1.16,3.2,3.2,0,0,1-1.15-.2,14.15,14.15,0,0,1-1.37-.6l-.55-.27a7.63,7.63,0,0,0-.75-.36,1.57,1.57,0,0,0-.63-.12,1.33,1.33,0,0,0-1.06.54,2,2,0,0,0-.44,1.31,1.91,1.91,0,0,0,.19.88,2.21,2.21,0,0,0,.61.67A7.82,7.82,0,0,0,18,80.38a9.63,9.63,0,0,0,2.86.45,6.79,6.79,0,0,0,3.89-1.12,7.34,7.34,0,0,0,2.57-3.21,12.09,12.09,0,0,0,.91-4.89,10,10,0,0,0-1.92-6.55A6.73,6.73,0,0,0,20.89,62.76ZM21.16,71a2,2,0,0,1-1.56-.63A2.58,2.58,0,0,1,19,68.66a2.54,2.54,0,0,1,.57-1.73,2.15,2.15,0,0,1,3.1,0,2.79,2.79,0,0,1,0,3.43A2,2,0,0,1,21.16,71ZM83,74.13h-.55v-9a2.13,2.13,0,0,0-.67-1.68,2.38,2.38,0,0,0-1.63-.6,2.45,2.45,0,0,0-1.11.27,2.25,2.25,0,0,0-.89.76L71,74.06a2.79,2.79,0,0,0-.55,1.65A1.89,1.89,0,0,0,71,77.08a1.85,1.85,0,0,0,1.42.55H78v.85a2.06,2.06,0,0,0,2.22,2.28,2.29,2.29,0,0,0,1.63-.58,2.21,2.21,0,0,0,.62-1.7v-.85H83c1.45,0,2.18-.59,2.18-1.77S84.47,74.13,83,74.13Zm-8,0,3-4.32v4.32Z"/></svg>