<svg id="Layer_1" data-name="Layer 1" xmlns="http://www.w3.org/2000/svg" viewBox="0 0 200 150"><title>l1_1_1</title><path d="M192.57,113.73A17.5,17.5,0,1,1,163,101.08l-11-16.28a17.13,17.13,0,0,1-9.52-.07l-11.21,16.64h0a17.6,17.6,0,1,1-5.84-3.86l10.81-16.09a17.48,17.48,0,0,1-2.11-24.89L113.54,42.84a17.49,17.49,0,0,1-28.87,0v0L63.2,57.11A17.47,17.47,0,0,1,60.46,81.7L71.05,97.46a17.52,17.52,0,1,1-5.94,3.72l-11-16.28a17.11,17.11,0,0,1-4.61.64,17.59,17.59,0,0,1-4.9-.71L33.43,101.47h0a17.6,17.6,0,1,1-5.83-3.85l10.8-16.1a17.5,17.5,0,0,1,19.29-29L81.92,36.18A17.25,17.25,0,0,1,81.61,33a17.5,17.5,0,1,1,35,0,17,17,0,0,1-.31,3.21q11.83,8,23.65,16A17.48,17.48,0,0,1,158.36,81.6l10.58,15.76a17.33,17.33,0,0,1,6.13-1.13A17.51,17.51,0,0,1,192.57,113.73ZM108.83,66.05h-6.3v-6.3a2.9,2.9,0,0,0-3-3,2.9,2.9,0,0,0-3,3v6.3h-6.3a2.9,2.9,0,0,0-3,3,3,3,0,0,0,.85,2.13,2.83,2.83,0,0,0,2.1.87h6.3v6.25a2.9,2.9,0,0,0,3,3,2.82,2.82,0,0,0,2.13-.85,2.87,2.87,0,0,0,.82-2.1V72h6.3a2.8,2.8,0,0,0,2.1-.87,2.93,2.93,0,0,0,.85-2.13,2.9,2.9,0,0,0-3-3ZM96.42,33.93h-.55v-9a2.12,2.12,0,0,0-.67-1.67,2.38,2.38,0,0,0-1.63-.6,2.58,2.58,0,0,0-1.11.26,2.34,2.34,0,0,0-.89.76l-7.15,10.2a2.79,2.79,0,0,0-.55,1.65,1.93,1.93,0,0,0,.53,1.38,1.85,1.85,0,0,0,1.42.55H91.4v.85A2.21,2.21,0,0,0,92,40a2.26,2.26,0,0,0,1.61.57A2.33,2.33,0,0,0,95.25,40a2.21,2.21,0,0,0,.62-1.7v-.85h.55c1.45,0,2.18-.59,2.18-1.78S97.87,33.93,96.42,33.93Zm-8,0,3-4.33v4.33Zm23,0h-.55v-9a2.12,2.12,0,0,0-.67-1.67,2.38,2.38,0,0,0-1.63-.6,2.58,2.58,0,0,0-1.11.26,2.34,2.34,0,0,0-.89.76l-7.15,10.2a2.79,2.79,0,0,0-.55,1.65,1.93,1.93,0,0,0,.53,1.38,1.85,1.85,0,0,0,1.42.55h5.58v.85A2.21,2.21,0,0,0,107,40a2.26,2.26,0,0,0,1.61.57,2.33,2.33,0,0,0,1.63-.57,2.21,2.21,0,0,0,.62-1.7v-.85h.55c1.45,0,2.18-.59,2.18-1.78S112.87,33.93,111.42,33.93Zm-8,0,3-4.33v4.33ZM56.74,96.79h-5v-5A2.28,2.28,0,0,0,51,90.07a2.32,2.32,0,0,0-1.68-.68,2.28,2.28,0,0,0-1.68.68A2.25,2.25,0,0,0,47,91.75v5h-5a2.28,2.28,0,0,0-1.68.68,2.25,2.25,0,0,0-.68,1.68,2.32,2.32,0,0,0,.68,1.7,2.23,2.23,0,0,0,1.68.7h5v5a2.25,2.25,0,0,0,.68,1.68,2.44,2.44,0,0,0,3.38,0,2.31,2.31,0,0,0,.66-1.68v-5h5a2.26,2.26,0,0,0,1.68-.7,2.36,2.36,0,0,0,.68-1.7,2.28,2.28,0,0,0-.68-1.68A2.32,2.32,0,0,0,56.74,96.79Zm-9.62-24h-5l3.55-3.62a11.84,11.84,0,0,0,2.09-2.82,6.26,6.26,0,0,0,.61-2.78A4.58,4.58,0,0,0,47.58,61a5,5,0,0,0-2.16-1.75,8.23,8.23,0,0,0-3.25-.61,10.19,10.19,0,0,0-5.53,1.7A1.68,1.68,0,0,0,36,61a2.44,2.44,0,0,0,.26,2.24,1.28,1.28,0,0,0,1.05.56,1.41,1.41,0,0,0,.47-.07,2.89,2.89,0,0,0,.52-.24l.38-.21.5-.25a13.73,13.73,0,0,1,1.42-.62A4.08,4.08,0,0,1,42,62.19a2,2,0,0,1,1.39.45,1.67,1.67,0,0,1,.49,1.3,4.87,4.87,0,0,1-1.65,3.18l-5.3,5.52a2.75,2.75,0,0,0-.85,2A1.85,1.85,0,0,0,36.56,76a1.92,1.92,0,0,0,1.43.54h9.13A2.5,2.5,0,0,0,48.75,76a1.71,1.71,0,0,0,.54-1.4,1.65,1.65,0,0,0-.54-1.36A2.56,2.56,0,0,0,47.12,72.84Zm9.75-14.2a6.4,6.4,0,0,0-3.18.78,5.55,5.55,0,0,0-2.19,2.16,6.66,6.66,0,0,0-.1,6.1,5.2,5.2,0,0,0,1.89,2,5.07,5.07,0,0,0,2.7.74A4.77,4.77,0,0,0,58.1,70a3.83,3.83,0,0,0,1.54-1.26A6.57,6.57,0,0,1,58.7,72a2.38,2.38,0,0,1-2.06,1.17,3.43,3.43,0,0,1-1.15-.2c-.37-.14-.82-.34-1.37-.6l-.55-.28c-.32-.16-.57-.29-.75-.36a1.61,1.61,0,0,0-.63-.11,1.33,1.33,0,0,0-1.06.53,2,2,0,0,0-.44,1.32,1.75,1.75,0,0,0,.19.87,2.11,2.11,0,0,0,.61.68A8.08,8.08,0,0,0,54,76.27a9.74,9.74,0,0,0,2.87.45,6.76,6.76,0,0,0,3.88-1.13,7.29,7.29,0,0,0,2.58-3.21,12.09,12.09,0,0,0,.91-4.89,10,10,0,0,0-1.92-6.55A6.74,6.74,0,0,0,56.87,58.64Zm.27,8.28a2,2,0,0,1-1.56-.64,2.93,2.93,0,0,1,0-3.46,1.94,1.94,0,0,1,1.55-.65,2,2,0,0,1,1.55.66,2.44,2.44,0,0,1,.6,1.71,2.5,2.5,0,0,1-.59,1.73A2,2,0,0,1,57.14,66.92ZM18.05,118.28H13l3.55-3.63a11.55,11.55,0,0,0,2.09-2.81,6.27,6.27,0,0,0,.61-2.79,4.57,4.57,0,0,0-.76-2.61,4.9,4.9,0,0,0-2.16-1.75,8,8,0,0,0-3.25-.61,9.82,9.82,0,0,0-2.89.45,9.73,9.73,0,0,0-2.64,1.25,1.62,1.62,0,0,0-.61.65,2.1,2.1,0,0,0-.16.9,2.15,2.15,0,0,0,.42,1.33,1.29,1.29,0,0,0,1,.57,1.51,1.51,0,0,0,.48-.08,2.83,2.83,0,0,0,.51-.24l.39-.21.5-.25a12.53,12.53,0,0,1,1.41-.61,4.14,4.14,0,0,1,1.34-.21,2,2,0,0,1,1.39.45,1.69,1.69,0,0,1,.48,1.3,4.87,4.87,0,0,1-1.65,3.17l-5.3,5.53A2.75,2.75,0,0,0,7,120a1.84,1.84,0,0,0,2,1.9h9.13a2.53,2.53,0,0,0,1.64-.45,1.75,1.75,0,0,0,.53-1.4,1.7,1.7,0,0,0-.53-1.37A2.59,2.59,0,0,0,18.05,118.28Zm10.37,3.87a5.83,5.83,0,0,0,5-2.32c1.15-1.55,1.73-3.8,1.73-6.73s-.58-5.15-1.74-6.7a5.85,5.85,0,0,0-5-2.32,5.84,5.84,0,0,0-5,2.32c-1.15,1.55-1.72,3.79-1.72,6.7s.57,5.18,1.72,6.73A5.84,5.84,0,0,0,28.42,122.15Zm0-3.47a1.79,1.79,0,0,1-1.72-1.3,12.44,12.44,0,0,1-.53-4.28,12.31,12.31,0,0,1,.53-4.26,1.78,1.78,0,0,1,1.72-1.29,1.81,1.81,0,0,1,1.73,1.3,12.41,12.41,0,0,1,.52,4.25,12.49,12.49,0,0,1-.52,4.28A1.81,1.81,0,0,1,28.42,118.68Zm48-12.6a6.39,6.39,0,0,0-3.17.77A5.55,5.55,0,0,0,71.06,109a6.66,6.66,0,0,0-.1,6.1,5.18,5.18,0,0,0,1.88,2,5,5,0,0,0,2.71.74,4.79,4.79,0,0,0,2.11-.46,4.08,4.08,0,0,0,1.54-1.26,6.81,6.81,0,0,1-.94,3.26,2.4,2.4,0,0,1-2.06,1.16,3.39,3.39,0,0,1-1.15-.2,13.18,13.18,0,0,1-1.38-.6l-.55-.27c-.32-.17-.57-.29-.75-.37a1.71,1.71,0,0,0-.62-.11,1.33,1.33,0,0,0-1.07.54,2,2,0,0,0-.43,1.31,1.94,1.94,0,0,0,.18.88,2.24,2.24,0,0,0,.62.67,8,8,0,0,0,2.51,1.25,9.68,9.68,0,0,0,2.86.45A6.79,6.79,0,0,0,80.31,123a7.25,7.25,0,0,0,2.57-3.22,12.07,12.07,0,0,0,.92-4.88,9.94,9.94,0,0,0-1.93-6.55A6.69,6.69,0,0,0,76.42,106.08Zm.28,8.27a2,2,0,0,1-1.57-.64,2.93,2.93,0,0,1,0-3.46,2.17,2.17,0,0,1,3.11,0,2.53,2.53,0,0,1,.59,1.72,2.47,2.47,0,0,1-.58,1.72A2,2,0,0,1,76.7,114.35Zm77.93-17.66h-5v-5a2.32,2.32,0,0,0-2.36-2.36,2.32,2.32,0,0,0-2.36,2.36v5h-5a2.32,2.32,0,0,0-2.36,2.36,2.38,2.38,0,0,0,.68,1.7,2.3,2.3,0,0,0,1.68.7h5v5a2.32,2.32,0,0,0,2.36,2.36,2.27,2.27,0,0,0,1.7-.68,2.34,2.34,0,0,0,.66-1.68v-5h5a2.26,2.26,0,0,0,1.68-.7,2.34,2.34,0,0,0,.68-1.7,2.32,2.32,0,0,0-2.36-2.36Zm-10-22h-2V62.89a2.08,2.08,0,0,0-2.22-2.23,4.24,4.24,0,0,0-2.08.63l-4,2.32a1.7,1.7,0,0,0-.87,1.55,2.09,2.09,0,0,0,.5,1.37,1.49,1.49,0,0,0,1.2.61,1.65,1.65,0,0,0,.87-.25l2-1.18v9h-2a2.5,2.5,0,0,0-1.65.45,1.68,1.68,0,0,0-.53,1.35c0,1.23.73,1.85,2.18,1.85h8.67c1.45,0,2.18-.62,2.18-1.85a1.68,1.68,0,0,0-.53-1.35A2.5,2.5,0,0,0,144.67,74.74Zm10.93-7.88a6.28,6.28,0,0,0-2.48.45V64.24h5.4c1.45,0,2.18-.58,2.18-1.75s-.73-1.73-2.18-1.73h-7.75a1.92,1.92,0,0,0-2.12,2.15v6.78a1.4,1.4,0,0,0,.47,1.09,1.76,1.76,0,0,0,1.18.41,2.3,2.3,0,0,0,1.12-.28,10.36,10.36,0,0,1,1.44-.45,7.09,7.09,0,0,1,1.36-.12,2.83,2.83,0,0,1,1.95.62,2.22,2.22,0,0,1,.7,1.75,2.19,2.19,0,0,1-.67,1.77,3.23,3.23,0,0,1-2.08.56,4.08,4.08,0,0,1-1.38-.23,13.84,13.84,0,0,1-1.42-.6l-.5-.25a8.12,8.12,0,0,0-.75-.37,1.58,1.58,0,0,0-.62-.1,1.28,1.28,0,0,0-1,.54,2,2,0,0,0-.43,1.31,1.91,1.91,0,0,0,.19.86,2.31,2.31,0,0,0,.59.69,8.37,8.37,0,0,0,2.56,1.25,10.46,10.46,0,0,0,3,.45,8.08,8.08,0,0,0,3.57-.75,5.54,5.54,0,0,0,2.4-2.13,5.85,5.85,0,0,0,.85-3.17,6,6,0,0,0-.71-3,5,5,0,0,0-2-2A5.77,5.77,0,0,0,155.6,66.86Zm-39,52.31h-2V107.32a2.19,2.19,0,0,0-.61-1.62,2.22,2.22,0,0,0-1.62-.6,4.26,4.26,0,0,0-2.07.62l-4,2.33a1.69,1.69,0,0,0-.88,1.55,2.12,2.12,0,0,0,.5,1.36,1.51,1.51,0,0,0,1.2.61,1.71,1.71,0,0,0,.88-.25l2-1.17v9h-2a2.5,2.5,0,0,0-1.65.45,1.68,1.68,0,0,0-.52,1.35c0,1.24.72,1.85,2.17,1.85h8.68c1.45,0,2.17-.61,2.17-1.85a1.68,1.68,0,0,0-.52-1.35A2.5,2.5,0,0,0,116.61,119.17Zm9.7,3.88a5.85,5.85,0,0,0,5-2.33Q133,118.4,133,114t-1.73-6.7a6.52,6.52,0,0,0-10,0q-1.73,2.33-1.73,6.7t1.73,6.72A5.84,5.84,0,0,0,126.31,123.05Zm0-3.48a1.79,1.79,0,0,1-1.73-1.3,12.43,12.43,0,0,1-.52-4.27,12.36,12.36,0,0,1,.52-4.26,1.8,1.8,0,0,1,3.45,0,12.32,12.32,0,0,1,.53,4.25,12.37,12.37,0,0,1-.53,4.27A1.78,1.78,0,0,1,126.31,119.57Zm49.86-7.27a6.28,6.28,0,0,0-2.48.45v-3.08h5.4c1.45,0,2.18-.58,2.18-1.75s-.73-1.72-2.18-1.72h-7.75a2.1,2.1,0,0,0-1.57.55,2.16,2.16,0,0,0-.55,1.6v6.77a1.35,1.35,0,0,0,.47,1.09,1.72,1.72,0,0,0,1.18.41,2.4,2.4,0,0,0,1.12-.27,8.21,8.21,0,0,1,1.44-.45,7.06,7.06,0,0,1,1.36-.13,2.82,2.82,0,0,1,2,.63,2.22,2.22,0,0,1,.7,1.75,2.15,2.15,0,0,1-.67,1.76,3.19,3.19,0,0,1-2.08.56,4.18,4.18,0,0,1-1.39-.22,14.76,14.76,0,0,1-1.41-.6l-.5-.25c-.33-.18-.58-.31-.75-.38a1.83,1.83,0,0,0-.62-.1,1.28,1.28,0,0,0-1.05.54,2,2,0,0,0-.43,1.31,1.83,1.83,0,0,0,.19.87,2,2,0,0,0,.59.68,8,8,0,0,0,2.56,1.25,10.41,10.41,0,0,0,3,.45,8.08,8.08,0,0,0,3.57-.75,5.63,5.63,0,0,0,2.4-2.12,5.91,5.91,0,0,0,.85-3.18,6.08,6.08,0,0,0-.71-3,5.08,5.08,0,0,0-2-2A5.8,5.8,0,0,0,176.17,112.3Z"/></svg>