<svg id="Layer_1" data-name="Layer 1" xmlns="http://www.w3.org/2000/svg" viewBox="0 0 100 100"><title>l1_1_1</title><path d="M95.23,73A17.5,17.5,0,1,1,65.67,60.38l-11-16.27A17.26,17.26,0,0,1,45.19,44L34,60.68h0a17.64,17.64,0,1,1-5.84-3.85L39,40.73A17.51,17.51,0,1,1,61,40.9L71.6,56.66A17.47,17.47,0,0,1,95.23,73ZM57.29,57h-5V52a2.25,2.25,0,0,0-.68-1.68,2.28,2.28,0,0,0-1.68-.68,2.32,2.32,0,0,0-1.68.68A2.28,2.28,0,0,0,47.53,52v5h-5a2.32,2.32,0,0,0-1.68.68,2.28,2.28,0,0,0-.68,1.68,2.36,2.36,0,0,0,.68,1.7,2.26,2.26,0,0,0,1.68.7h5v5a2.28,2.28,0,0,0,.68,1.68,2.32,2.32,0,0,0,1.68.68,2.27,2.27,0,0,0,1.7-.68,2.31,2.31,0,0,0,.66-1.68v-5h5a2.23,2.23,0,0,0,1.68-.7,2.32,2.32,0,0,0,.68-1.7A2.25,2.25,0,0,0,59,57.67,2.28,2.28,0,0,0,57.29,57Zm-10-25h-2V20.19a2.16,2.16,0,0,0-.61-1.62,2.21,2.21,0,0,0-1.61-.6,4.32,4.32,0,0,0-2.08.62l-4,2.33a1.69,1.69,0,0,0-.87,1.55,2.06,2.06,0,0,0,.5,1.36,1.49,1.49,0,0,0,1.2.61,1.65,1.65,0,0,0,.87-.25l2-1.17v9h-2a2.5,2.5,0,0,0-1.65.45,1.68,1.68,0,0,0-.53,1.35c0,1.24.73,1.85,2.18,1.85h8.67c1.45,0,2.18-.61,2.18-1.85A1.68,1.68,0,0,0,49,32.49,2.5,2.5,0,0,0,47.32,32Zm14.35,0h-5l3.55-3.62a11.84,11.84,0,0,0,2.09-2.82,6.4,6.4,0,0,0,.61-2.78,4.66,4.66,0,0,0-.76-2.62A4.94,4.94,0,0,0,60,18.45a8.16,8.16,0,0,0-3.25-.61,10.19,10.19,0,0,0-5.52,1.7,1.61,1.61,0,0,0-.61.65,2.16,2.16,0,0,0-.17.9,2.13,2.13,0,0,0,.43,1.34,1.28,1.28,0,0,0,1,.56,1.49,1.49,0,0,0,.47-.07,3.24,3.24,0,0,0,.52-.24l.38-.21.5-.25a14.68,14.68,0,0,1,1.41-.62,4.14,4.14,0,0,1,1.34-.21,2,2,0,0,1,1.39.45,1.67,1.67,0,0,1,.49,1.3,4.87,4.87,0,0,1-1.65,3.18l-5.3,5.52a2.75,2.75,0,0,0-.85,1.95,1.85,1.85,0,0,0,.52,1.36,1.91,1.91,0,0,0,1.43.54h9.12a2.51,2.51,0,0,0,1.64-.45,1.71,1.71,0,0,0,.54-1.4,1.65,1.65,0,0,0-.54-1.36A2.57,2.57,0,0,0,61.67,32ZM26.84,74.65h-.55v-9A2.13,2.13,0,0,0,25.62,64a2.36,2.36,0,0,0-1.63-.6,2.58,2.58,0,0,0-1.11.26,2.35,2.35,0,0,0-.89.77l-7.15,10.2a2.82,2.82,0,0,0-.55,1.65,1.89,1.89,0,0,0,.53,1.37,1.85,1.85,0,0,0,1.42.55h5.58V79a2.21,2.21,0,0,0,.61,1.7,2.24,2.24,0,0,0,1.61.58,2.29,2.29,0,0,0,1.63-.58,2.18,2.18,0,0,0,.62-1.7v-.85h.55c1.45,0,2.18-.59,2.18-1.77S28.29,74.65,26.84,74.65Zm-8,0,3-4.32v4.32Zm62.58-1.6a3.75,3.75,0,0,0,2-1.47,4.4,4.4,0,0,0,.71-2.5,4.14,4.14,0,0,0-1.74-3.52,7.86,7.86,0,0,0-4.74-1.28,7.84,7.84,0,0,0-4.72,1.28,4.13,4.13,0,0,0-1.75,3.52,4.21,4.21,0,0,0,.7,2.43,4,4,0,0,0,2,1.54,4.15,4.15,0,0,0-2.35,1.49,4.4,4.4,0,0,0-.83,2.74A4.31,4.31,0,0,0,72.51,81a8.61,8.61,0,0,0,5.09,1.34A8.59,8.59,0,0,0,82.69,81a4.31,4.31,0,0,0,1.86-3.71,4.36,4.36,0,0,0-.81-2.69A4.31,4.31,0,0,0,81.4,73.05Zm-3.8,5.8c-1.81,0-2.72-.65-2.72-1.95s.91-2,2.72-2,2.73.65,2.73,2S79.42,78.85,77.6,78.85Zm0-11.1a2.7,2.7,0,0,1,1.68.44,1.71,1.71,0,0,1,.55,1.41A1.77,1.77,0,0,1,79.28,71a2.63,2.63,0,0,1-1.68.45A2.58,2.58,0,0,1,75.93,71a1.74,1.74,0,0,1-.55-1.43,1.68,1.68,0,0,1,.55-1.41A2.65,2.65,0,0,1,77.6,67.75Z"/></svg>