<svg id="Layer_1" data-name="Layer 1" xmlns="http://www.w3.org/2000/svg" viewBox="0 0 100 100"><title>l1_1_1</title><path d="M92.73,72.36A17.5,17.5,0,1,1,63.17,59.7l-11-16.28a17.1,17.1,0,0,1-9.51-.07L31.49,60h0a17.48,17.48,0,1,1-5.83-3.86L36.45,40a17.5,17.5,0,1,1,22.08.18L69.11,56a17.27,17.27,0,0,1,6.12-1.12A17.49,17.49,0,0,1,92.73,72.36Zm-37.93-16h-5v-5a2.32,2.32,0,0,0-2.36-2.36A2.32,2.32,0,0,0,45,51.27v5H40a2.32,2.32,0,0,0-2.36,2.36,2.34,2.34,0,0,0,.68,1.7,2.26,2.26,0,0,0,1.68.7h5v5a2.39,2.39,0,0,0,4.06,1.68,2.34,2.34,0,0,0,.66-1.68v-5h5a2.3,2.3,0,0,0,1.68-.7,2.38,2.38,0,0,0,.68-1.7,2.32,2.32,0,0,0-2.36-2.36Zm-10.62-25h-5l3.55-3.63a11.82,11.82,0,0,0,2.09-2.81,6.27,6.27,0,0,0,.61-2.79,4.57,4.57,0,0,0-.76-2.61,4.9,4.9,0,0,0-2.16-1.75,8.05,8.05,0,0,0-3.25-.61,10.19,10.19,0,0,0-5.53,1.7,1.68,1.68,0,0,0-.61.65,2.1,2.1,0,0,0-.16.9,2.18,2.18,0,0,0,.42,1.34,1.29,1.29,0,0,0,1,.56,1.51,1.51,0,0,0,.48-.08,2.72,2.72,0,0,0,.51-.23l.39-.22.5-.25a12.53,12.53,0,0,1,1.41-.61A4.09,4.09,0,0,1,39,20.71a1.94,1.94,0,0,1,1.38.45,1.66,1.66,0,0,1,.49,1.3,4.85,4.85,0,0,1-1.65,3.17L34,31.16a2.75,2.75,0,0,0-.85,1.95A1.84,1.84,0,0,0,35.05,35h9.13a2.48,2.48,0,0,0,1.63-.45,1.72,1.72,0,0,0,.54-1.4,1.64,1.64,0,0,0-.54-1.36A2.54,2.54,0,0,0,44.18,31.36Zm14.17-5.43a3.73,3.73,0,0,0,2-1.47A4.3,4.3,0,0,0,61,22a4.13,4.13,0,0,0-1.74-3.51,7.8,7.8,0,0,0-4.74-1.29,7.77,7.77,0,0,0-4.72,1.29A4.11,4.11,0,0,0,48.08,22a4.24,4.24,0,0,0,.7,2.44,4,4,0,0,0,2,1.53,4.2,4.2,0,0,0-2.35,1.49,4.42,4.42,0,0,0-.83,2.74,4.31,4.31,0,0,0,1.86,3.71,8.61,8.61,0,0,0,5.09,1.34,8.59,8.59,0,0,0,5.09-1.34,4.31,4.31,0,0,0,1.86-3.71,4.11,4.11,0,0,0-3.15-4.23Zm-3.8,5.8c-1.81,0-2.72-.65-2.72-1.95s.91-2,2.72-2,2.73.65,2.73,2S56.37,31.73,54.55,31.73Zm0-11.1a2.7,2.7,0,0,1,1.68.44,1.71,1.71,0,0,1,.55,1.41,1.77,1.77,0,0,1-.55,1.43,2.63,2.63,0,0,1-1.68.45,2.58,2.58,0,0,1-1.67-.45,1.74,1.74,0,0,1-.55-1.43,1.68,1.68,0,0,1,.55-1.41A2.65,2.65,0,0,1,54.55,20.63ZM22.77,71.37a3.77,3.77,0,0,0,2-1.48,4.37,4.37,0,0,0,.71-2.5,4.14,4.14,0,0,0-1.74-3.51A7.8,7.8,0,0,0,19,62.59a7.77,7.77,0,0,0-4.72,1.29,4.12,4.12,0,0,0-1.75,3.51,4.22,4.22,0,0,0,.7,2.44,4.06,4.06,0,0,0,2,1.54,4.15,4.15,0,0,0-2.35,1.49A4.37,4.37,0,0,0,12,75.59a4.32,4.32,0,0,0,1.87,3.72A8.56,8.56,0,0,0,19,80.64a8.59,8.59,0,0,0,5.09-1.33,4.4,4.4,0,0,0-1.29-7.94ZM19,77.17c-1.81,0-2.72-.65-2.72-2s.91-2,2.72-2,2.73.65,2.73,2S20.79,77.17,19,77.17Zm0-11.1a2.63,2.63,0,0,1,1.68.44,1.71,1.71,0,0,1,.55,1.41,1.75,1.75,0,0,1-.55,1.42,2.63,2.63,0,0,1-1.68.45,2.58,2.58,0,0,1-1.67-.45,1.71,1.71,0,0,1-.55-1.42,1.68,1.68,0,0,1,.55-1.41A2.58,2.58,0,0,1,19,66.07Zm53.5,10H67.85l3.27-3.34A10.89,10.89,0,0,0,73,70.16a5.86,5.86,0,0,0,.56-2.56,4.21,4.21,0,0,0-.7-2.41,4.58,4.58,0,0,0-2-1.61,7.52,7.52,0,0,0-3-.56,8.94,8.94,0,0,0-2.66.42,8.58,8.58,0,0,0-2.42,1.15,1.51,1.51,0,0,0-.57.59,2,2,0,0,0-.15.83,2,2,0,0,0,.39,1.23,1.17,1.17,0,0,0,1,.52,1.31,1.31,0,0,0,.44-.07,3.15,3.15,0,0,0,.47-.22,3.45,3.45,0,0,1,.36-.19l.46-.23a10.17,10.17,0,0,1,1.3-.57,3.69,3.69,0,0,1,1.23-.19A1.83,1.83,0,0,1,69,66.7a1.56,1.56,0,0,1,.45,1.2,4.49,4.49,0,0,1-1.52,2.92L63.07,75.9a2.55,2.55,0,0,0-.79,1.8,1.68,1.68,0,0,0,1.8,1.74h8.39A2.35,2.35,0,0,0,74,79a1.6,1.6,0,0,0,.49-1.29A1.51,1.51,0,0,0,74,76.49,2.35,2.35,0,0,0,72.47,76.09ZM82,79.65a5.37,5.37,0,0,0,4.6-2.14,10.25,10.25,0,0,0,1.59-6.19,10.21,10.21,0,0,0-1.6-6.16,6,6,0,0,0-9.19,0,10.21,10.21,0,0,0-1.59,6.16,10.25,10.25,0,0,0,1.59,6.19A5.37,5.37,0,0,0,82,79.65Zm0-3.2a1.65,1.65,0,0,1-1.59-1.19A11.55,11.55,0,0,1,80,71.32a11.42,11.42,0,0,1,.48-3.92A1.64,1.64,0,0,1,82,66.22a1.67,1.67,0,0,1,1.59,1.19,11.43,11.43,0,0,1,.48,3.91,11.55,11.55,0,0,1-.48,3.94A1.67,1.67,0,0,1,82,76.45Z"/></svg>