<svg id="Layer_1" data-name="Layer 1" xmlns="http://www.w3.org/2000/svg" viewBox="0 0 200 150"><title>l1_1_1</title><path d="M193.26,113.63A17.5,17.5,0,1,1,163.7,101l-11-16.27a17.26,17.26,0,0,1-9.52-.08L132,101.27h0a17.6,17.6,0,1,1-5.83-3.85L137,81.32a17.48,17.48,0,0,1-2.11-24.89l-20.63-13.7a17.5,17.5,0,0,1-28.87,0v0L63.89,57a17.47,17.47,0,0,1-2.73,24.58L71.74,97.36a17.32,17.32,0,0,1,6.12-1.13,17.54,17.54,0,1,1-12.06,4.84l-11-16.27a17.51,17.51,0,0,1-4.61.63,17.28,17.28,0,0,1-4.9-.71L34.12,101.37h0a17.55,17.55,0,1,1-5.83-3.86l10.8-16.09a17.5,17.5,0,0,1,19.3-29L82.61,36.07a18,18,0,0,1-.31-3.23,17.5,17.5,0,0,1,35,0,17.82,17.82,0,0,1-.3,3.21l23.64,16a17.48,17.48,0,0,1,18.41,29.46l10.58,15.76a17.47,17.47,0,0,1,23.63,16.38ZM109.53,66h-6.3v-6.3a2.9,2.9,0,0,0-3-2.95,2.9,2.9,0,0,0-3,2.95V66H91a2.9,2.9,0,0,0-3,3A2.91,2.91,0,0,0,88.93,71a2.77,2.77,0,0,0,2.1.88h6.3v6.25a3,3,0,0,0,5.07,2.1,2.91,2.91,0,0,0,.83-2.1V71.9h6.3a2.8,2.8,0,0,0,2.1-.88,3,3,0,0,0,.85-2.12,2.9,2.9,0,0,0-3-3Zm-13-32.73a3.73,3.73,0,0,0,2-1.47,4.3,4.3,0,0,0,.71-2.5,4.15,4.15,0,0,0-1.73-3.51,9.34,9.34,0,0,0-9.47,0,4.15,4.15,0,0,0-1.75,3.51,4.32,4.32,0,0,0,.7,2.44,4.14,4.14,0,0,0,2,1.53,4.23,4.23,0,0,0-2.35,1.49,4.42,4.42,0,0,0-.82,2.74,4.31,4.31,0,0,0,1.86,3.71,10.34,10.34,0,0,0,10.18,0,4.31,4.31,0,0,0,1.86-3.71,4.38,4.38,0,0,0-.81-2.69A4.44,4.44,0,0,0,96.54,33.22ZM92.74,39Q90,39,90,37.07t2.73-2c1.81,0,2.72.65,2.72,2S94.55,39,92.74,39Zm0-11.1a2.65,2.65,0,0,1,1.67.44A1.68,1.68,0,0,1,95,29.77a1.74,1.74,0,0,1-.55,1.43,2.58,2.58,0,0,1-1.67.45,2.63,2.63,0,0,1-1.68-.45,1.77,1.77,0,0,1-.55-1.43,1.71,1.71,0,0,1,.55-1.41A2.7,2.7,0,0,1,92.74,27.92ZM109,30.77a6.22,6.22,0,0,0-2.47.45V28.15h5.4c1.45,0,2.17-.58,2.17-1.75s-.72-1.73-2.17-1.73h-7.75a2.17,2.17,0,0,0-1.58.55,2.2,2.2,0,0,0-.55,1.6V33.6a1.38,1.38,0,0,0,.48,1.09,1.74,1.74,0,0,0,1.17.41,2.34,2.34,0,0,0,1.13-.28,10.36,10.36,0,0,1,1.44-.45,7,7,0,0,1,1.36-.12,2.87,2.87,0,0,1,2,.62,2.25,2.25,0,0,1,.7,1.75,2.19,2.19,0,0,1-.68,1.77,3.22,3.22,0,0,1-2.07.56,4.18,4.18,0,0,1-1.39-.23,13.75,13.75,0,0,1-1.41-.6l-.5-.25c-.34-.18-.59-.3-.75-.37a1.67,1.67,0,0,0-.63-.1,1.31,1.31,0,0,0-1,.54,2.06,2.06,0,0,0-.42,1.31,1.79,1.79,0,0,0,.19.86,2.27,2.27,0,0,0,.58.69,8.32,8.32,0,0,0,2.57,1.25,10.39,10.39,0,0,0,3,.45,8.16,8.16,0,0,0,3.58-.75,5.66,5.66,0,0,0,2.4-2.13,5.94,5.94,0,0,0,.85-3.17,6.06,6.06,0,0,0-.71-3,5.08,5.08,0,0,0-2-2A5.71,5.71,0,0,0,109,30.77ZM57.43,96.69h-5v-5A2.32,2.32,0,0,0,50,89.29a2.25,2.25,0,0,0-1.68.68,2.28,2.28,0,0,0-.68,1.68v5h-5a2.32,2.32,0,0,0-2.36,2.36,2.34,2.34,0,0,0,.68,1.7,2.26,2.26,0,0,0,1.68.7h5v5a2.32,2.32,0,0,0,.68,1.68,2.44,2.44,0,0,0,3.38,0,2.34,2.34,0,0,0,.66-1.68v-5h5a2.28,2.28,0,0,0,1.68-.7,2.38,2.38,0,0,0,.68-1.7,2.32,2.32,0,0,0-2.36-2.36Zm-9.62-23h-5l3.55-3.63a11.55,11.55,0,0,0,2.09-2.81A6.27,6.27,0,0,0,49,64.51a4.57,4.57,0,0,0-.76-2.61,4.9,4.9,0,0,0-2.16-1.75,8.05,8.05,0,0,0-3.25-.61,10.19,10.19,0,0,0-5.53,1.7,1.62,1.62,0,0,0-.61.65,2.1,2.1,0,0,0-.16.9A2.15,2.15,0,0,0,37,64.12a1.29,1.29,0,0,0,1.05.57,1.51,1.51,0,0,0,.48-.08,2.83,2.83,0,0,0,.51-.24l.39-.21.5-.25a12.53,12.53,0,0,1,1.41-.61,4.09,4.09,0,0,1,1.34-.21,2,2,0,0,1,1.39.45,1.69,1.69,0,0,1,.48,1.3A4.87,4.87,0,0,1,42.88,68l-5.3,5.53a2.75,2.75,0,0,0-.85,1.95,1.84,1.84,0,0,0,2,1.9h9.13a2.48,2.48,0,0,0,1.63-.45,1.72,1.72,0,0,0,.54-1.4,1.64,1.64,0,0,0-.54-1.36A2.48,2.48,0,0,0,47.81,73.74Zm11.6-7.88a6.28,6.28,0,0,0-2.48.45V63.24h5.4c1.45,0,2.18-.59,2.18-1.75s-.73-1.73-2.18-1.73H54.58a1.92,1.92,0,0,0-2.12,2.15v6.78a1.4,1.4,0,0,0,.47,1.09,1.76,1.76,0,0,0,1.18.41,2.3,2.3,0,0,0,1.12-.28,10.36,10.36,0,0,1,1.44-.45A7.09,7.09,0,0,1,58,69.34,2.83,2.83,0,0,1,60,70a2.22,2.22,0,0,1,.7,1.75A2.15,2.15,0,0,1,60,73.47a3.17,3.17,0,0,1-2.08.57,4.08,4.08,0,0,1-1.38-.23,13.84,13.84,0,0,1-1.42-.6l-.5-.25a6.14,6.14,0,0,0-.75-.37,1.58,1.58,0,0,0-.62-.1,1.28,1.28,0,0,0-1,.54,2,2,0,0,0-.43,1.31,1.79,1.79,0,0,0,.19.86,2.18,2.18,0,0,0,.59.69,8.26,8.26,0,0,0,2.56,1.25,10.41,10.41,0,0,0,3,.45,8.08,8.08,0,0,0,3.57-.75,5.54,5.54,0,0,0,2.4-2.13A5.85,5.85,0,0,0,65,71.54a5.92,5.92,0,0,0-.71-3,5,5,0,0,0-2-2A5.77,5.77,0,0,0,59.41,65.86ZM19.74,119.17h-5l3.55-3.62a11.77,11.77,0,0,0,2.08-2.82A6.27,6.27,0,0,0,21,110a4.59,4.59,0,0,0-.77-2.62A5,5,0,0,0,18,105.58a8.16,8.16,0,0,0-3.25-.61,10.13,10.13,0,0,0-5.52,1.7,1.72,1.72,0,0,0-.62.65,2.34,2.34,0,0,0-.16.9,2.13,2.13,0,0,0,.43,1.34,1.28,1.28,0,0,0,1.05.56,1.49,1.49,0,0,0,.47-.07,2.83,2.83,0,0,0,.51-.24l.39-.21.5-.25a13.67,13.67,0,0,1,1.41-.62,4.14,4.14,0,0,1,1.34-.21A2,2,0,0,1,16,109a1.71,1.71,0,0,1,.49,1.3,4.87,4.87,0,0,1-1.65,3.18L9.52,119a2.75,2.75,0,0,0-.85,2,1.85,1.85,0,0,0,.52,1.36,1.91,1.91,0,0,0,1.43.54h9.12a2.53,2.53,0,0,0,1.64-.45,1.71,1.71,0,0,0,.54-1.4,1.65,1.65,0,0,0-.54-1.36A2.59,2.59,0,0,0,19.74,119.17Zm10.38,3.88a5.85,5.85,0,0,0,5-2.33q1.73-2.32,1.72-6.72t-1.74-6.7a5.84,5.84,0,0,0-5-2.33,5.84,5.84,0,0,0-5,2.33q-1.73,2.33-1.73,6.7t1.73,6.72A5.84,5.84,0,0,0,30.12,123.05Zm0-3.48a1.79,1.79,0,0,1-1.73-1.3,12.43,12.43,0,0,1-.52-4.27,12.39,12.39,0,0,1,.52-4.27,1.8,1.8,0,0,1,3.45,0,12.28,12.28,0,0,1,.53,4.25,12.37,12.37,0,0,1-.53,4.27A1.78,1.78,0,0,1,30.12,119.57ZM79,112.3a6.22,6.22,0,0,0-2.47.45v-3.08h5.4c1.45,0,2.17-.58,2.17-1.75s-.72-1.72-2.17-1.72H74.14a2.12,2.12,0,0,0-1.58.55,2.18,2.18,0,0,0-.55,1.6v6.77a1.38,1.38,0,0,0,.48,1.09,1.74,1.74,0,0,0,1.17.41,2.44,2.44,0,0,0,1.13-.27,8.41,8.41,0,0,1,1.43-.45,6.44,6.44,0,0,1,1.37-.13,2.82,2.82,0,0,1,2,.63,2.24,2.24,0,0,1,.7,1.75,2.17,2.17,0,0,1-.68,1.76,3.22,3.22,0,0,1-2.07.56,4.14,4.14,0,0,1-1.39-.22,12.87,12.87,0,0,1-1.41-.6l-.5-.25c-.34-.19-.59-.31-.75-.38a1.89,1.89,0,0,0-.63-.1,1.31,1.31,0,0,0-1,.54,2.08,2.08,0,0,0-.42,1.31,1.88,1.88,0,0,0,.18.86,2.22,2.22,0,0,0,.59.69,8.15,8.15,0,0,0,2.56,1.25,10.51,10.51,0,0,0,3,.45,8.16,8.16,0,0,0,3.58-.75,5.7,5.7,0,0,0,2.4-2.12,6,6,0,0,0,.85-3.18,6.08,6.08,0,0,0-.71-3,5.08,5.08,0,0,0-2-2A5.71,5.71,0,0,0,79,112.3Zm76.37-15.72h-5v-5a2.37,2.37,0,1,0-4.73,0v5h-5a2.4,2.4,0,0,0-1.68,4.06,2.26,2.26,0,0,0,1.68.7h5v5a2.4,2.4,0,0,0,4.07,1.68,2.35,2.35,0,0,0,.66-1.68v-5h5a2.26,2.26,0,0,0,1.68-.7,2.34,2.34,0,0,0,.67-1.7,2.31,2.31,0,0,0-2.35-2.36Zm-12.76-30.9a4.84,4.84,0,0,0-2.12.47,4,4,0,0,0-1.53,1.26,6.67,6.67,0,0,1,.93-3.26A2.4,2.4,0,0,1,141.92,63a3.43,3.43,0,0,1,1.15.19c.36.14.82.34,1.37.6l.55.28a7.63,7.63,0,0,0,.75.36,1.54,1.54,0,0,0,.63.11,1.32,1.32,0,0,0,1.06-.53,2,2,0,0,0,.44-1.32,1.87,1.87,0,0,0-.19-.87,2.21,2.21,0,0,0-.61-.67,7.63,7.63,0,0,0-2.52-1.25,9.38,9.38,0,0,0-2.86-.46,6.79,6.79,0,0,0-3.89,1.13,7.27,7.27,0,0,0-2.57,3.21,12.09,12.09,0,0,0-.91,4.89,10,10,0,0,0,1.92,6.55,6.72,6.72,0,0,0,5.45,2.3,6.56,6.56,0,0,0,3.18-.77,5.55,5.55,0,0,0,2.18-2.17,6.18,6.18,0,0,0,.79-3.14,6.27,6.27,0,0,0-.69-3,5.18,5.18,0,0,0-1.88-2A5.07,5.07,0,0,0,142.57,65.68ZM141.42,74a2,2,0,0,1-1.55-.67,2.79,2.79,0,0,1,0-3.43,2.23,2.23,0,0,1,3.13,0,2.58,2.58,0,0,1,.56,1.74,2.5,2.5,0,0,1-.57,1.72A2,2,0,0,1,141.42,74Zm14.65,3.52a5.83,5.83,0,0,0,5-2.33c1.15-1.54,1.72-3.79,1.72-6.72s-.58-5.15-1.74-6.7a6.51,6.51,0,0,0-10,0q-1.73,2.33-1.73,6.7c0,2.93.58,5.18,1.73,6.72A5.81,5.81,0,0,0,156.07,77.51Zm0-3.48a1.8,1.8,0,0,1-1.73-1.29,12.53,12.53,0,0,1-.52-4.28,12.36,12.36,0,0,1,.52-4.26,1.8,1.8,0,0,1,3.45,0,12.32,12.32,0,0,1,.53,4.25,12.48,12.48,0,0,1-.53,4.28A1.78,1.78,0,0,1,156.07,74Zm-40.9,39.61a4,4,0,0,0,2-1.51,4.11,4.11,0,0,0,.72-2.41,4.34,4.34,0,0,0-.77-2.55,4.92,4.92,0,0,0-2.17-1.7,8.3,8.3,0,0,0-3.27-.6,10,10,0,0,0-3,.45,8.48,8.48,0,0,0-2.54,1.25,2,2,0,0,0-.59.67,1.94,1.94,0,0,0-.18.88,2,2,0,0,0,.43,1.31,1.28,1.28,0,0,0,1,.54,1.71,1.71,0,0,0,.62-.11c.18-.08.43-.2.75-.37l.53-.25a13.31,13.31,0,0,1,1.36-.6,3.75,3.75,0,0,1,1.31-.22,2.13,2.13,0,0,1,1.52.51,1.86,1.86,0,0,1,.56,1.44,1.39,1.39,0,0,1-.63,1.27,3.79,3.79,0,0,1-2,.4h-1.1a1.42,1.42,0,0,0-1.17.53,2,2,0,0,0,0,2.5,1.41,1.41,0,0,0,1.17.52h1.55a3.79,3.79,0,0,1,2.05.43,1.56,1.56,0,0,1,.63,1.4,1.74,1.74,0,0,1-.62,1.5,3.47,3.47,0,0,1-2,.45,4.64,4.64,0,0,1-1.44-.21,10.68,10.68,0,0,1-1.43-.62l-.32-.13-.24-.12q-.47-.24-.75-.36a1.71,1.71,0,0,0-.62-.11,1.28,1.28,0,0,0-1,.54,2.06,2.06,0,0,0-.42,1.31,1.91,1.91,0,0,0,.17.86,2.1,2.1,0,0,0,.6.69,8,8,0,0,0,2.6,1.26,11.17,11.17,0,0,0,3.13.44,9.36,9.36,0,0,0,3.53-.61,5.27,5.27,0,0,0,2.34-1.74,4.36,4.36,0,0,0,.83-2.65,4.43,4.43,0,0,0-.84-2.73A4.29,4.29,0,0,0,115.17,113.64Zm11.83,9.3a5.84,5.84,0,0,0,5-2.32q1.73-2.33,1.72-6.73c0-2.91-.57-5.15-1.73-6.7a6.54,6.54,0,0,0-10,0c-1.15,1.55-1.72,3.79-1.72,6.7s.57,5.18,1.72,6.73A5.84,5.84,0,0,0,127,122.94Zm0-3.47a1.78,1.78,0,0,1-1.72-1.3,12.19,12.19,0,0,1-.53-4.28,12.07,12.07,0,0,1,.53-4.26,1.79,1.79,0,0,1,3.44,0,12.11,12.11,0,0,1,.53,4.25,12.19,12.19,0,0,1-.53,4.28A1.77,1.77,0,0,1,127,119.47Zm44.31-5.88a4,4,0,0,0,2-1.51,4.2,4.2,0,0,0,.71-2.41,4.41,4.41,0,0,0-.76-2.55,4.88,4.88,0,0,0-2.18-1.7,8.28,8.28,0,0,0-3.26-.6,10,10,0,0,0-3,.45,8.14,8.14,0,0,0-2.54,1.25,1.72,1.72,0,0,0-.78,1.55,2,2,0,0,0,.43,1.31,1.28,1.28,0,0,0,1,.54,1.52,1.52,0,0,0,.62-.12,5.93,5.93,0,0,0,.75-.36l.53-.25a13.31,13.31,0,0,1,1.36-.6,3.79,3.79,0,0,1,1.31-.22,2.18,2.18,0,0,1,1.53.51,1.85,1.85,0,0,1,.55,1.44,1.39,1.39,0,0,1-.63,1.27,3.77,3.77,0,0,1-2,.4h-1.1a1.42,1.42,0,0,0-1.17.53,1.93,1.93,0,0,0-.43,1.25,2,2,0,0,0,.43,1.25,1.41,1.41,0,0,0,1.17.52h1.55a3.68,3.68,0,0,1,2.05.43,1.56,1.56,0,0,1,.63,1.4,1.76,1.76,0,0,1-.61,1.5,3.49,3.49,0,0,1-2,.45,4.25,4.25,0,0,1-1.43-.22,10.07,10.07,0,0,1-1.44-.61l-.31-.14a1.38,1.38,0,0,1-.24-.11c-.32-.16-.57-.29-.75-.36a1.57,1.57,0,0,0-.63-.11,1.33,1.33,0,0,0-1,.53,2.08,2.08,0,0,0-.42,1.32,2.06,2.06,0,0,0,.17.86,2.1,2.1,0,0,0,.6.69,8.07,8.07,0,0,0,2.6,1.26,11.17,11.17,0,0,0,3.13.44,9.37,9.37,0,0,0,3.54-.62,5.21,5.21,0,0,0,2.33-1.73,4.38,4.38,0,0,0,.83-2.65,4.43,4.43,0,0,0-.84-2.73A4.3,4.3,0,0,0,171.31,113.59Zm11.82,9.3a5.83,5.83,0,0,0,5-2.32q1.73-2.32,1.73-6.73c0-2.91-.58-5.15-1.74-6.7a6.54,6.54,0,0,0-10,0c-1.15,1.55-1.72,3.79-1.72,6.7s.57,5.18,1.72,6.73A5.84,5.84,0,0,0,183.13,122.89Zm0-3.47a1.79,1.79,0,0,1-1.72-1.3,12.44,12.44,0,0,1-.53-4.28,12.31,12.31,0,0,1,.53-4.26,1.78,1.78,0,0,1,1.72-1.29,1.81,1.81,0,0,1,1.73,1.3,12.41,12.41,0,0,1,.52,4.25,12.49,12.49,0,0,1-.52,4.28A1.81,1.81,0,0,1,183.13,119.42Z"/></svg>