<svg id="Layer_1" data-name="Layer 1" xmlns="http://www.w3.org/2000/svg" viewBox="0 0 100 100"><title>l1_1_1</title><path d="M95,72.18A17.5,17.5,0,1,1,65.42,59.52l-11-16.28a17.51,17.51,0,0,1-4.61.64,17.71,17.71,0,0,1-4.91-.71L33.74,59.81h0A17.48,17.48,0,1,1,27.9,56L38.7,39.86A17.5,17.5,0,1,1,60.77,40L71.35,55.8A17.47,17.47,0,0,1,95,72.18ZM57.05,56.13H52v-5a2.32,2.32,0,0,0-2.36-2.36,2.32,2.32,0,0,0-2.36,2.36v5h-5a2.32,2.32,0,0,0-2.36,2.36,2.32,2.32,0,0,0,.68,1.7,2.23,2.23,0,0,0,1.68.7h5v5a2.39,2.39,0,0,0,4.06,1.68A2.34,2.34,0,0,0,52,65.89v-5h5a2.26,2.26,0,0,0,1.68-.7,2.36,2.36,0,0,0,.68-1.7,2.32,2.32,0,0,0-2.36-2.36ZM54.34,18.2h-9.8a2.44,2.44,0,0,0-1.65.47,1.75,1.75,0,0,0-.53,1.38,1.73,1.73,0,0,0,.51,1.36,2.59,2.59,0,0,0,1.67.44h6.25l-6.43,11A2.4,2.4,0,0,0,44,34a1.84,1.84,0,0,0,.68,1.44,2.28,2.28,0,0,0,1.55.58,2.16,2.16,0,0,0,1.06-.28,2.31,2.31,0,0,0,.86-.89l7.58-13.13a3.23,3.23,0,0,0,.47-1.65,1.93,1.93,0,0,0-.49-1.36A1.75,1.75,0,0,0,54.34,18.2ZM26.6,74.79h-.55v-9a2.13,2.13,0,0,0-.68-1.67,2.35,2.35,0,0,0-1.62-.6,2.59,2.59,0,0,0-1.12.26,2.31,2.31,0,0,0-.88.76L14.6,74.71a2.79,2.79,0,0,0-.55,1.65,1.93,1.93,0,0,0,.52,1.38,1.88,1.88,0,0,0,1.43.55h5.57v.85a2.21,2.21,0,0,0,.61,1.7,2.29,2.29,0,0,0,1.62.57,2.32,2.32,0,0,0,1.62-.57,2.18,2.18,0,0,0,.63-1.7v-.85h.55c1.45,0,2.17-.59,2.17-1.78S28.05,74.79,26.6,74.79Zm-8,0,3-4.33v4.33Zm62-2.6a4.11,4.11,0,0,0,2-1.51,4.2,4.2,0,0,0,.71-2.42,4.38,4.38,0,0,0-.76-2.55A5,5,0,0,0,80.29,64a8.28,8.28,0,0,0-3.26-.6,10,10,0,0,0-3,.45,8.37,8.37,0,0,0-2.54,1.25,2.18,2.18,0,0,0-.6.68,1.87,1.87,0,0,0-.18.87A2.09,2.09,0,0,0,71.18,68a1.27,1.27,0,0,0,1,.53,1.52,1.52,0,0,0,.62-.11A5.93,5.93,0,0,0,73.6,68l.53-.25a13.31,13.31,0,0,1,1.36-.6A3.8,3.8,0,0,1,76.8,67a2.18,2.18,0,0,1,1.53.52,1.85,1.85,0,0,1,.55,1.43,1.4,1.4,0,0,1-.63,1.28,3.77,3.77,0,0,1-2,.4h-1.1a1.41,1.41,0,0,0-1.17.52,2,2,0,0,0-.43,1.25A1.93,1.93,0,0,0,74,73.61a1.42,1.42,0,0,0,1.17.53H76.7a3.78,3.78,0,0,1,2,.42,1.57,1.57,0,0,1,.63,1.4,1.76,1.76,0,0,1-.61,1.5,3.49,3.49,0,0,1-2,.45,4.53,4.53,0,0,1-1.43-.21,10.07,10.07,0,0,1-1.44-.61L73.57,77l-.24-.11a7.63,7.63,0,0,0-.75-.36,1.54,1.54,0,0,0-.63-.12,1.31,1.31,0,0,0-1,.54,2.28,2.28,0,0,0-.25,2.18,2,2,0,0,0,.6.68A8.08,8.08,0,0,0,73.85,81a11.21,11.21,0,0,0,3.13.43,9.37,9.37,0,0,0,3.54-.61,5.24,5.24,0,0,0,2.33-1.74,4.36,4.36,0,0,0,.83-2.65,4.42,4.42,0,0,0-.84-2.72A4.25,4.25,0,0,0,80.53,72.19Z"/></svg>