<svg id="Layer_1" data-name="Layer 1" xmlns="http://www.w3.org/2000/svg" viewBox="0 0 200 150"><title>l1_1_1</title><path d="M193.69,112.65A17.5,17.5,0,1,1,164.13,100l-11-16.27a17.51,17.51,0,0,1-4.61.64,17.3,17.3,0,0,1-4.91-.72l-11.21,16.65h0a17.6,17.6,0,1,1-5.84-3.86l10.81-16.09a17.48,17.48,0,0,1-2.11-24.89L114.66,41.76a17.49,17.49,0,0,1-28.87,0v0L64.32,56a17.47,17.47,0,0,1-2.74,24.59L72.17,96.38a17.52,17.52,0,1,1-5.94,3.72l-11-16.28a17.1,17.1,0,0,1-9.51-.07L34.55,100.39h0a17.48,17.48,0,1,1-5.83-3.86l10.8-16.09a17.5,17.5,0,0,1,19.29-29L83,35.1a17.25,17.25,0,0,1-.31-3.23,17.5,17.5,0,0,1,35,0,17,17,0,0,1-.31,3.21q11.83,8,23.65,16a17.48,17.48,0,0,1,18.41,29.46l10.58,15.76a17.33,17.33,0,0,1,6.13-1.13A17.51,17.51,0,0,1,193.69,112.65ZM110,65h-6.3v-6.3a2.85,2.85,0,0,0-.85-2.1,2.82,2.82,0,0,0-2.1-.85,2.85,2.85,0,0,0-2.1.85,2.89,2.89,0,0,0-.85,2.1V65h-6.3a2.85,2.85,0,0,0-2.1.85,2.89,2.89,0,0,0-.85,2.1,3,3,0,0,0,.85,2.13,2.83,2.83,0,0,0,2.1.87h6.3v6.25a2.89,2.89,0,0,0,.85,2.1,3.06,3.06,0,0,0,4.23,0,2.9,2.9,0,0,0,.82-2.1V70.92H110a2.8,2.8,0,0,0,2.1-.87,3,3,0,0,0,.85-2.13,2.85,2.85,0,0,0-.85-2.1A2.82,2.82,0,0,0,110,65ZM91.59,31.79A2.81,2.81,0,0,0,93,30.73a3.17,3.17,0,0,0,.51-1.8,3,3,0,0,0-1.25-2.53,6.72,6.72,0,0,0-6.82,0,3,3,0,0,0-1.26,2.53,3,3,0,0,0,.51,1.75,2.9,2.9,0,0,0,1.44,1.11,3,3,0,0,0-1.69,1.07,3.14,3.14,0,0,0-.6,2,3.11,3.11,0,0,0,1.34,2.67,7.41,7.41,0,0,0,7.33,0,3.16,3.16,0,0,0-.93-5.71ZM88.86,36c-1.31,0-2-.46-2-1.4s.65-1.4,2-1.4,2,.46,2,1.4S90.16,36,88.86,36Zm0-8a1.89,1.89,0,0,1,1.2.32,1.2,1.2,0,0,1,.4,1,1.24,1.24,0,0,1-.4,1,1.83,1.83,0,0,1-1.2.32,1.86,1.86,0,0,1-1.21-.32,1.28,1.28,0,0,1-.4-1,1.23,1.23,0,0,1,.4-1A1.92,1.92,0,0,1,88.86,28ZM103,35.69H99.39l2.55-2.61a8.42,8.42,0,0,0,1.51-2,4.62,4.62,0,0,0,.44-2,3.35,3.35,0,0,0-.55-1.88,3.64,3.64,0,0,0-1.56-1.26,5.85,5.85,0,0,0-2.34-.44,7.25,7.25,0,0,0-2.08.32,7.39,7.39,0,0,0-1.9.9,1.28,1.28,0,0,0-.44.47,1.54,1.54,0,0,0-.12.65,1.58,1.58,0,0,0,.31,1,.92.92,0,0,0,.76.41,1,1,0,0,0,.34-.06,1.67,1.67,0,0,0,.37-.17L97,28.8l.36-.18a8.64,8.64,0,0,1,1-.44,3,3,0,0,1,1-.15,1.42,1.42,0,0,1,1,.32,1.24,1.24,0,0,1,.35.94,3.52,3.52,0,0,1-1.19,2.28l-3.82,4A2,2,0,0,0,95,37a1.31,1.31,0,0,0,1.4,1.37H103a1.83,1.83,0,0,0,1.18-.32,1.24,1.24,0,0,0,.39-1,1.19,1.19,0,0,0-.39-1A1.83,1.83,0,0,0,103,35.69ZM111.36,30a4.47,4.47,0,0,0-1.79.33V28.13h3.89c1.05,0,1.57-.42,1.57-1.26s-.52-1.24-1.57-1.24h-5.58a1.5,1.5,0,0,0-1.13.4,1.57,1.57,0,0,0-.4,1.15v4.88a1,1,0,0,0,.34.78,1.24,1.24,0,0,0,.85.3,1.73,1.73,0,0,0,.81-.2,5.93,5.93,0,0,1,1-.32,4.88,4.88,0,0,1,1-.09,2,2,0,0,1,1.4.45,1.85,1.85,0,0,1,0,2.53,2.32,2.32,0,0,1-1.5.4,2.9,2.9,0,0,1-1-.16,9.89,9.89,0,0,1-1-.43l-.36-.18a3.28,3.28,0,0,0-.54-.27,1.17,1.17,0,0,0-.45-.08.94.94,0,0,0-.76.39,1.5,1.5,0,0,0-.3,1,1.35,1.35,0,0,0,.13.62,1.57,1.57,0,0,0,.42.49,5.8,5.8,0,0,0,1.85.9,7.36,7.36,0,0,0,2.19.33,5.82,5.82,0,0,0,2.57-.54,4,4,0,0,0,1.73-1.53,4.26,4.26,0,0,0,.61-2.29,4.36,4.36,0,0,0-.51-2.13,3.64,3.64,0,0,0-1.42-1.44A4.2,4.2,0,0,0,111.36,30ZM56.86,96.71h-5v-5A2.28,2.28,0,0,0,51.14,90a2.32,2.32,0,0,0-1.68-.68,2.28,2.28,0,0,0-1.68.68,2.25,2.25,0,0,0-.68,1.68v5h-5a2.28,2.28,0,0,0-1.68.68,2.25,2.25,0,0,0-.68,1.68,2.32,2.32,0,0,0,.68,1.7,2.23,2.23,0,0,0,1.68.7h5v5a2.25,2.25,0,0,0,.68,1.68,2.44,2.44,0,0,0,3.38,0,2.31,2.31,0,0,0,.66-1.68v-5h5a2.26,2.26,0,0,0,1.68-.7,2.36,2.36,0,0,0,.68-1.7,2.28,2.28,0,0,0-.68-1.68A2.32,2.32,0,0,0,56.86,96.71Zm-12.69-29h-.4v-6.5A1.53,1.53,0,0,0,43.28,60a1.72,1.72,0,0,0-1.17-.43,1.91,1.91,0,0,0-.8.19,1.67,1.67,0,0,0-.63.55l-5.15,7.34a2,2,0,0,0-.4,1.19,1.37,1.37,0,0,0,.38,1,1.32,1.32,0,0,0,1,.4h4v.61a1.49,1.49,0,0,0,1.6,1.64,1.65,1.65,0,0,0,1.17-.42,1.56,1.56,0,0,0,.45-1.22v-.61h.4c1,0,1.56-.43,1.56-1.28S45.21,67.75,44.17,67.75Zm-5.78,0,2.16-3.12v3.12ZM52,64.11a4.38,4.38,0,0,0-1.78.33V62.22h3.88c1.05,0,1.57-.42,1.57-1.26s-.52-1.24-1.57-1.24H48.5a1.5,1.5,0,0,0-1.13.4A1.55,1.55,0,0,0,47,61.27v4.88a1,1,0,0,0,.34.78,1.22,1.22,0,0,0,.84.3A1.73,1.73,0,0,0,49,67a6.07,6.07,0,0,1,1-.33,4.88,4.88,0,0,1,1-.09,2,2,0,0,1,1.4.45,1.59,1.59,0,0,1,.51,1.26,1.54,1.54,0,0,1-.49,1.27,2.28,2.28,0,0,1-1.49.41,3.18,3.18,0,0,1-1-.16,10.13,10.13,0,0,1-1-.44l-.36-.18Q48.18,69,48,69a1.42,1.42,0,0,0-.45-.07.94.94,0,0,0-.76.39,1.5,1.5,0,0,0-.3,1,1.38,1.38,0,0,0,.13.62,1.74,1.74,0,0,0,.43.49,5.85,5.85,0,0,0,1.84.9,7.4,7.4,0,0,0,2.19.32A5.82,5.82,0,0,0,53.65,72a4.08,4.08,0,0,0,1.73-1.52,4.65,4.65,0,0,0,.1-4.42,3.64,3.64,0,0,0-1.42-1.44A4.09,4.09,0,0,0,52,64.11Zm9.92,8.46a4.22,4.22,0,0,0,3.6-1.67,8.1,8.1,0,0,0,1.24-4.84,8,8,0,0,0-1.25-4.83,4.7,4.7,0,0,0-7.19,0,8,8,0,0,0-1.25,4.83A8,8,0,0,0,58.3,70.9,4.2,4.2,0,0,0,61.9,72.57Zm0-2.5a1.3,1.3,0,0,1-1.25-.94,9,9,0,0,1-.37-3.07A9,9,0,0,1,60.65,63a1.3,1.3,0,0,1,1.25-.93,1.29,1.29,0,0,1,1.24.94,8.9,8.9,0,0,1,.38,3.06,8.92,8.92,0,0,1-.38,3.07A1.29,1.29,0,0,1,61.9,70.07ZM15.05,116.22H13.57v-8.53a1.55,1.55,0,0,0-.44-1.17,1.58,1.58,0,0,0-1.16-.44,3.06,3.06,0,0,0-1.5.45l-2.88,1.68A1.21,1.21,0,0,0,7,109.32a1.51,1.51,0,0,0,.37,1,1.06,1.06,0,0,0,.86.45,1.21,1.21,0,0,0,.63-.18l1.44-.85v6.5H8.8a1.86,1.86,0,0,0-1.19.32,1.22,1.22,0,0,0-.37,1c0,.89.52,1.34,1.56,1.34h6.25c1,0,1.56-.45,1.56-1.34a1.22,1.22,0,0,0-.37-1A1.86,1.86,0,0,0,15.05,116.22Zm7.86-5.67a4.6,4.6,0,0,0-1.78.32v-2.21H25c1,0,1.57-.42,1.57-1.26s-.53-1.24-1.57-1.24H19.44a1.37,1.37,0,0,0-1.53,1.54v4.88a1,1,0,0,0,.34.78,1.24,1.24,0,0,0,.85.3,1.65,1.65,0,0,0,.81-.2,6.85,6.85,0,0,1,1-.32,5,5,0,0,1,1-.09,2.06,2.06,0,0,1,1.41.45,1.62,1.62,0,0,1,.5,1.26,1.54,1.54,0,0,1-.49,1.27,2.29,2.29,0,0,1-1.49.4,3,3,0,0,1-1-.16,10.82,10.82,0,0,1-1-.43l-.37-.18q-.36-.19-.54-.27a1.15,1.15,0,0,0-.45-.07.93.93,0,0,0-.75.38,1.47,1.47,0,0,0-.31,1,1.32,1.32,0,0,0,.14.62,1.72,1.72,0,0,0,.42.5,6.13,6.13,0,0,0,1.85.9A7.67,7.67,0,0,0,22,119a5.89,5.89,0,0,0,2.58-.54,4,4,0,0,0,1.72-1.53,4.58,4.58,0,0,0,.1-4.42A3.58,3.58,0,0,0,25,111.06,4.16,4.16,0,0,0,22.91,110.55ZM32.83,119a4.21,4.21,0,0,0,3.6-1.68,8,8,0,0,0,1.24-4.84,7.89,7.89,0,0,0-1.25-4.82A4.2,4.2,0,0,0,32.83,106a4.21,4.21,0,0,0-3.6,1.68,10,10,0,0,0,0,9.66A4.21,4.21,0,0,0,32.83,119Zm0-2.5a1.3,1.3,0,0,1-1.24-.94,12.63,12.63,0,0,1,0-6.15,1.29,1.29,0,0,1,2.48,0,12.59,12.59,0,0,1,0,6.14A1.29,1.29,0,0,1,32.83,116.51Zm36.82-4.2a2.92,2.92,0,0,0,1.43-1.09,3,3,0,0,0,.51-1.73,3.19,3.19,0,0,0-.54-1.84,3.56,3.56,0,0,0-1.57-1.23,6.12,6.12,0,0,0-2.35-.43,7.07,7.07,0,0,0-2.13.33,5.79,5.79,0,0,0-1.83.9,1.36,1.36,0,0,0-.43.48,1.34,1.34,0,0,0-.13.63,1.47,1.47,0,0,0,.31,1,.9.9,0,0,0,.75.38,1.06,1.06,0,0,0,.45-.08,4.16,4.16,0,0,0,.54-.26l.38-.18a10.57,10.57,0,0,1,1-.43,2.71,2.71,0,0,1,1-.16,1.54,1.54,0,0,1,1.1.37,1.34,1.34,0,0,1,.39,1,1,1,0,0,1-.45.92,2.77,2.77,0,0,1-1.44.29h-.79a1,1,0,0,0-.85.38,1.5,1.5,0,0,0,0,1.8,1.05,1.05,0,0,0,.85.38H66.9a2.74,2.74,0,0,1,1.47.3,1.14,1.14,0,0,1,.45,1,1.24,1.24,0,0,1-.44,1.08,2.55,2.55,0,0,1-1.45.32,3.28,3.28,0,0,1-1-.15,8.19,8.19,0,0,1-1-.44l-.22-.1-.17-.08a6,6,0,0,0-.54-.26,1.12,1.12,0,0,0-.45-.08,1,1,0,0,0-.76.38,1.52,1.52,0,0,0-.31,1,1.46,1.46,0,0,0,.13.62,1.38,1.38,0,0,0,.43.49,5.72,5.72,0,0,0,1.87.91,8,8,0,0,0,2.25.32,6.8,6.8,0,0,0,2.55-.44,3.76,3.76,0,0,0,1.68-1.25,3.13,3.13,0,0,0,.6-1.91,3.19,3.19,0,0,0-.6-2A3.14,3.14,0,0,0,69.65,112.31Zm8.51,6.7a4.18,4.18,0,0,0,3.6-1.68,10,10,0,0,0,0-9.66,4.7,4.7,0,0,0-7.2,0,10,10,0,0,0,0,9.66A4.21,4.21,0,0,0,78.16,119Zm0-2.5a1.3,1.3,0,0,1-1.24-.94,9,9,0,0,1-.38-3.08,8.92,8.92,0,0,1,.38-3.07,1.29,1.29,0,0,1,1.24-.93,1.31,1.31,0,0,1,1.25.94,9,9,0,0,1,.37,3.06,9.08,9.08,0,0,1-.37,3.08A1.31,1.31,0,0,1,78.16,116.51ZM89,119a4.18,4.18,0,0,0,3.6-1.68,10,10,0,0,0,0-9.66,4.7,4.7,0,0,0-7.2,0,10,10,0,0,0,0,9.66A4.21,4.21,0,0,0,89,119Zm0-2.5a1.3,1.3,0,0,1-1.24-.94,9,9,0,0,1-.38-3.08,8.92,8.92,0,0,1,.38-3.07,1.29,1.29,0,0,1,1.24-.93,1.31,1.31,0,0,1,1.25.94,9,9,0,0,1,.37,3.06,9.08,9.08,0,0,1-.37,3.08A1.31,1.31,0,0,1,89,116.51Zm65.79-19.9h-5v-5a2.32,2.32,0,0,0-2.36-2.36A2.32,2.32,0,0,0,145,91.57v5h-5A2.32,2.32,0,0,0,137.59,99a2.38,2.38,0,0,0,.68,1.7,2.3,2.3,0,0,0,1.68.7h5v5a2.32,2.32,0,0,0,2.36,2.36,2.27,2.27,0,0,0,1.7-.68,2.34,2.34,0,0,0,.66-1.68v-5h5a2.26,2.26,0,0,0,1.68-.7,2.34,2.34,0,0,0,.68-1.7,2.32,2.32,0,0,0-2.36-2.36ZM140.9,67.86a2.42,2.42,0,0,0,1.19-.9,2.48,2.48,0,0,0,.43-1.45,2.59,2.59,0,0,0-.46-1.53,2.92,2.92,0,0,0-1.3-1,5,5,0,0,0-2-.36,6.05,6.05,0,0,0-1.78.27,5,5,0,0,0-1.52.75,1,1,0,0,0-.47.93,1.25,1.25,0,0,0,.26.79.79.79,0,0,0,.63.32.87.87,0,0,0,.37-.07,4.36,4.36,0,0,0,.45-.22l.32-.15a7.65,7.65,0,0,1,.82-.36,2.2,2.2,0,0,1,.78-.13,1.28,1.28,0,0,1,.92.31,1.11,1.11,0,0,1,.33.86.84.84,0,0,1-.38.76,2.3,2.3,0,0,1-1.2.24h-.66a.85.85,0,0,0-.7.32,1.21,1.21,0,0,0,0,1.5.84.84,0,0,0,.7.31h.93a2.25,2.25,0,0,1,1.23.26.94.94,0,0,1,.38.84,1,1,0,0,1-.37.9,2.08,2.08,0,0,1-1.21.27,2.59,2.59,0,0,1-.86-.13,6.35,6.35,0,0,1-.86-.37l-.19-.08-.14-.07a3.92,3.92,0,0,0-.45-.21.92.92,0,0,0-.38-.07.79.79,0,0,0-.63.32,1.24,1.24,0,0,0-.25.79,1.21,1.21,0,0,0,.1.52,1.22,1.22,0,0,0,.36.41,4.93,4.93,0,0,0,1.56.76,6.88,6.88,0,0,0,1.88.26,5.5,5.5,0,0,0,2.12-.37,3.08,3.08,0,0,0,1.4-1,2.62,2.62,0,0,0,.5-1.59,2.71,2.71,0,0,0-.5-1.64A2.58,2.58,0,0,0,140.9,67.86ZM151,62.73h-5.88a1.5,1.5,0,0,0-1,.28,1.05,1.05,0,0,0-.31.83,1,1,0,0,0,.31.81,1.47,1.47,0,0,0,1,.27h3.75L145,71.51a1.42,1.42,0,0,0-.21.72,1.08,1.08,0,0,0,.4.86,1.35,1.35,0,0,0,.93.35,1.23,1.23,0,0,0,.64-.17,1.33,1.33,0,0,0,.52-.53l4.54-7.88a1.92,1.92,0,0,0,.29-1,1.16,1.16,0,0,0-.29-.81A1.08,1.08,0,0,0,151,62.73Zm6.71,3.66a3.78,3.78,0,0,0-1.49.27V64.82h3.24c.87,0,1.31-.35,1.31-1s-.44-1-1.31-1h-4.65a1.27,1.27,0,0,0-.94.33,1.3,1.3,0,0,0-.33,1v4.07a.81.81,0,0,0,.28.65,1,1,0,0,0,.71.25,1.42,1.42,0,0,0,.67-.17,5.22,5.22,0,0,1,.87-.27,4,4,0,0,1,.81-.07,1.69,1.69,0,0,1,1.17.37,1.33,1.33,0,0,1,.42,1.05,1.3,1.3,0,0,1-.4,1.06,1.9,1.9,0,0,1-1.25.34,2.49,2.49,0,0,1-.83-.14,8.89,8.89,0,0,1-.85-.36l-.3-.15a4.27,4.27,0,0,0-.45-.22,1,1,0,0,0-.37-.06.79.79,0,0,0-.63.32,1.25,1.25,0,0,0-.26.79,1.08,1.08,0,0,0,.12.52,1.3,1.3,0,0,0,.35.41,4.91,4.91,0,0,0,1.54.75,6.22,6.22,0,0,0,1.82.27,4.85,4.85,0,0,0,2.14-.45,3.39,3.39,0,0,0,1.44-1.28,3.53,3.53,0,0,0,.51-1.9,3.69,3.69,0,0,0-.42-1.78,3.12,3.12,0,0,0-1.19-1.2A3.49,3.49,0,0,0,157.73,66.39Zm-46.32,45.82a2.87,2.87,0,0,0,1.43-1.09,3,3,0,0,0,.52-1.74,3.16,3.16,0,0,0-.55-1.83,3.56,3.56,0,0,0-1.57-1.23,5.94,5.94,0,0,0-2.35-.43,7.07,7.07,0,0,0-2.13.33,6,6,0,0,0-1.83.89,1.23,1.23,0,0,0-.55,1.12,1.52,1.52,0,0,0,.3,1,1,1,0,0,0,.76.38,1.09,1.09,0,0,0,.45-.08,6,6,0,0,0,.54-.26l.38-.18a9.52,9.52,0,0,1,1-.43,2.65,2.65,0,0,1,.94-.16,1.53,1.53,0,0,1,1.1.37,1.35,1.35,0,0,1,.4,1,1,1,0,0,1-.45.92,2.8,2.8,0,0,1-1.44.29h-.8a1,1,0,0,0-.84.37,1.48,1.48,0,0,0,0,1.81,1,1,0,0,0,.84.37h1.12a2.79,2.79,0,0,1,1.48.31,1.13,1.13,0,0,1,.45,1,1.25,1.25,0,0,1-.45,1.08,2.53,2.53,0,0,1-1.45.32,3.33,3.33,0,0,1-1-.15,7.54,7.54,0,0,1-1-.44l-.23-.1-.17-.08a6,6,0,0,0-.54-.26,1.06,1.06,0,0,0-.45-.08.93.93,0,0,0-.76.38,1.66,1.66,0,0,0-.18,1.57,1.42,1.42,0,0,0,.44.49,5.62,5.62,0,0,0,1.87.91,8,8,0,0,0,2.25.32,6.78,6.78,0,0,0,2.54-.44,3.79,3.79,0,0,0,1.69-1.26,3.16,3.16,0,0,0,.59-1.9,3.22,3.22,0,0,0-.6-2A3,3,0,0,0,111.41,112.21Zm8.52,6.69a4.2,4.2,0,0,0,3.6-1.67,10,10,0,0,0,0-9.67,4.7,4.7,0,0,0-7.19,0,10,10,0,0,0,0,9.67A4.19,4.19,0,0,0,119.93,118.9Zm0-2.5a1.28,1.28,0,0,1-1.24-.93,8.78,8.78,0,0,1-.38-3.08,8.68,8.68,0,0,1,.38-3.07,1.28,1.28,0,0,1,1.24-.93,1.3,1.3,0,0,1,1.24.94,8.9,8.9,0,0,1,.38,3.06,9,9,0,0,1-.38,3.08A1.29,1.29,0,0,1,119.93,116.4Zm10.8,2.5a4.2,4.2,0,0,0,3.6-1.67,8.1,8.1,0,0,0,1.24-4.84,8,8,0,0,0-1.25-4.83,4.7,4.7,0,0,0-7.19,0,10,10,0,0,0,0,9.67A4.17,4.17,0,0,0,130.73,118.9Zm0-2.5a1.28,1.28,0,0,1-1.24-.93,8.78,8.78,0,0,1-.38-3.08,8.68,8.68,0,0,1,.38-3.07,1.28,1.28,0,0,1,1.24-.93,1.3,1.3,0,0,1,1.24.94,8.9,8.9,0,0,1,.38,3.06,9,9,0,0,1-.38,3.08A1.29,1.29,0,0,1,130.73,116.4Zm42.88-12.28h-9.8a2.45,2.45,0,0,0-1.65.46,1.75,1.75,0,0,0-.52,1.39,1.71,1.71,0,0,0,.51,1.35,2.48,2.48,0,0,0,1.66.45h6.25l-6.42,11a2.3,2.3,0,0,0-.35,1.2,1.83,1.83,0,0,0,.67,1.44,2.31,2.31,0,0,0,1.55.59,2.14,2.14,0,0,0,1.06-.29,2.4,2.4,0,0,0,.87-.89L175,107.67a3.2,3.2,0,0,0,.48-1.65,2,2,0,0,0-.49-1.37A1.82,1.82,0,0,0,173.61,104.12Zm11.18,6.1a6.28,6.28,0,0,0-2.48.45v-3.08h5.4c1.45,0,2.18-.58,2.18-1.75s-.73-1.72-2.18-1.72H180a2.1,2.1,0,0,0-1.57.55,2.14,2.14,0,0,0-.55,1.6V113a1.37,1.37,0,0,0,.47,1.09,1.76,1.76,0,0,0,1.18.41,2.4,2.4,0,0,0,1.12-.27,8.21,8.21,0,0,1,1.44-.45,6.34,6.34,0,0,1,1.36-.13,2.82,2.82,0,0,1,2,.63,2.2,2.2,0,0,1,.7,1.75,2.16,2.16,0,0,1-.67,1.76,3.25,3.25,0,0,1-2.08.56,4.18,4.18,0,0,1-1.39-.22,14.76,14.76,0,0,1-1.41-.6l-.5-.25a6.58,6.58,0,0,0-.75-.38,1.83,1.83,0,0,0-.62-.1,1.28,1.28,0,0,0-1,.54,2,2,0,0,0-.43,1.31,1.76,1.76,0,0,0,.19.86,2,2,0,0,0,.59.69,8,8,0,0,0,2.56,1.25,10.41,10.41,0,0,0,3,.45,8.08,8.08,0,0,0,3.57-.75,5.7,5.7,0,0,0,2.4-2.12,5.91,5.91,0,0,0,.85-3.18,6.08,6.08,0,0,0-.71-3,5.08,5.08,0,0,0-2-2A5.7,5.7,0,0,0,184.79,110.22Z"/></svg>