<svg id="Layer_1" data-name="Layer 1" xmlns="http://www.w3.org/2000/svg" viewBox="0 0 100 100"><title>l1_1_1</title><path d="M59.31,56.49A2.32,2.32,0,0,1,60,58.17a2.35,2.35,0,0,1-.68,1.7,2.23,2.23,0,0,1-1.68.7h-5v5a2.31,2.31,0,0,1-.66,1.68,2.44,2.44,0,0,1-3.38,0,2.28,2.28,0,0,1-.68-1.68v-5h-5a2.23,2.23,0,0,1-1.68-.7,2.35,2.35,0,0,1-.68-1.7,2.32,2.32,0,0,1,.68-1.68,2.28,2.28,0,0,1,1.68-.68h5v-5a2.32,2.32,0,0,1,.68-1.68,2.42,2.42,0,0,1,3.36,0,2.32,2.32,0,0,1,.68,1.68v5h5A2.28,2.28,0,0,1,59.31,56.49Z"/><path d="M95.57,71.86A17.5,17.5,0,1,1,66,59.2l-11-16.27a17.57,17.57,0,0,1-4.61.63,17.3,17.3,0,0,1-4.91-.71L34.32,59.5h0a17.64,17.64,0,1,1-5.84-3.85l10.8-16.09a17.52,17.52,0,1,1,22.08.17L71.94,55.48A17.47,17.47,0,0,1,95.57,71.86Zm-47.9-41H45.62V19A2.16,2.16,0,0,0,45,17.39a2.21,2.21,0,0,0-1.61-.6,4.32,4.32,0,0,0-2.08.62l-4,2.33a1.7,1.7,0,0,0-.87,1.55,2.06,2.06,0,0,0,.5,1.36,1.49,1.49,0,0,0,1.2.61A1.65,1.65,0,0,0,39,23l2-1.17v9H39a2.5,2.5,0,0,0-1.65.45,1.68,1.68,0,0,0-.53,1.35c0,1.24.73,1.85,2.18,1.85h8.67c1.45,0,2.18-.61,2.18-1.85a1.68,1.68,0,0,0-.53-1.35A2.5,2.5,0,0,0,47.67,30.86Zm9.7,3.88a5.84,5.84,0,0,0,5-2.33q1.73-2.32,1.73-6.72T62.36,19a5.86,5.86,0,0,0-5-2.33,5.85,5.85,0,0,0-5,2.33q-1.73,2.32-1.72,6.7t1.72,6.72A5.85,5.85,0,0,0,57.37,34.74Zm0-3.48A1.78,1.78,0,0,1,55.65,30a12.37,12.37,0,0,1-.53-4.27,12.27,12.27,0,0,1,.53-4.26,1.8,1.8,0,0,1,3.45,0,12.37,12.37,0,0,1,.52,4.25A12.43,12.43,0,0,1,59.1,30,1.79,1.79,0,0,1,57.37,31.26Zm-30.93,46h-5L25,73.67a11.82,11.82,0,0,0,2.09-2.81,6.41,6.41,0,0,0,.61-2.79,4.65,4.65,0,0,0-.76-2.61,4.87,4.87,0,0,0-2.17-1.75,8,8,0,0,0-3.25-.61A10.19,10.19,0,0,0,16,64.8a1.61,1.61,0,0,0-.61.65,2.09,2.09,0,0,0-.17.9,2.13,2.13,0,0,0,.43,1.34,1.28,1.28,0,0,0,1.05.56,1.5,1.5,0,0,0,.47-.08,4.2,4.2,0,0,0,.52-.23l.38-.22.5-.25A13.43,13.43,0,0,1,20,66.86a4,4,0,0,1,1.33-.21,2,2,0,0,1,1.39.45,1.66,1.66,0,0,1,.49,1.3,4.85,4.85,0,0,1-1.65,3.17l-5.3,5.53a2.71,2.71,0,0,0-.85,2,1.86,1.86,0,0,0,.52,1.36,1.91,1.91,0,0,0,1.43.54h9.12a2.51,2.51,0,0,0,1.64-.45,1.72,1.72,0,0,0,.54-1.4,1.64,1.64,0,0,0-.54-1.36A2.51,2.51,0,0,0,26.44,77.3Zm55.3-6.43a3.73,3.73,0,0,0,2-1.47,4.32,4.32,0,0,0,.71-2.5,4.13,4.13,0,0,0-1.73-3.51,7.8,7.8,0,0,0-4.74-1.29,7.83,7.83,0,0,0-4.73,1.29,4.12,4.12,0,0,0-1.75,3.51,4.34,4.34,0,0,0,.7,2.44,4.14,4.14,0,0,0,2,1.53,4.23,4.23,0,0,0-2.35,1.49A4.42,4.42,0,0,0,71,75.1a4.31,4.31,0,0,0,1.86,3.71,8.59,8.59,0,0,0,5.09,1.34A8.59,8.59,0,0,0,83,78.81a4.31,4.31,0,0,0,1.86-3.71,4.11,4.11,0,0,0-3.15-4.23Zm-3.8,5.8q-2.73,0-2.73-2t2.73-2c1.82,0,2.72.65,2.72,2S79.76,76.67,77.94,76.67Zm0-11.1a2.65,2.65,0,0,1,1.67.44,1.68,1.68,0,0,1,.55,1.41,1.74,1.74,0,0,1-.55,1.43,2.58,2.58,0,0,1-1.67.45,2.63,2.63,0,0,1-1.68-.45,1.77,1.77,0,0,1-.55-1.43A1.71,1.71,0,0,1,76.26,66,2.7,2.7,0,0,1,77.94,65.57Z"/></svg>