<svg id="Layer_1" data-name="Layer 1" xmlns="http://www.w3.org/2000/svg" viewBox="0 0 100 100"><title>l1_1_1</title><path d="M95.25,73A17.5,17.5,0,1,1,65.69,60.33l-11-16.28A17.13,17.13,0,0,1,45.21,44L34,60.62h0a17.53,17.53,0,1,1-5.84-3.86L39,40.67A17.51,17.51,0,1,1,61,40.85L71.62,56.61a17.32,17.32,0,0,1,6.13-1.12A17.5,17.5,0,0,1,95.25,73Zm-37.94-16h-5v-5a2.28,2.28,0,0,0-.68-1.68,2.42,2.42,0,0,0-3.36,0,2.28,2.28,0,0,0-.68,1.68v5h-5a2.32,2.32,0,0,0-2.36,2.36,2.38,2.38,0,0,0,.68,1.7,2.28,2.28,0,0,0,1.68.7h5v5a2.32,2.32,0,0,0,.68,1.68,2.44,2.44,0,0,0,3.38,0,2.34,2.34,0,0,0,.66-1.68v-5h5A2.26,2.26,0,0,0,59,61a2.38,2.38,0,0,0,.68-1.7A2.28,2.28,0,0,0,59,57.62,2.25,2.25,0,0,0,57.31,56.94ZM47.43,29.16h-.55v-9a2.13,2.13,0,0,0-.68-1.68,2.35,2.35,0,0,0-1.62-.6,2.46,2.46,0,0,0-1.12.27,2.3,2.3,0,0,0-.88.76l-7.15,10.2a2.79,2.79,0,0,0-.55,1.65,1.84,1.84,0,0,0,1.95,1.92H42.4v.85a2.08,2.08,0,0,0,2.23,2.28,2.27,2.27,0,0,0,1.62-.58,2.18,2.18,0,0,0,.63-1.7v-.85h.55c1.45,0,2.17-.59,2.17-1.77S48.88,29.16,47.43,29.16Zm-8,0,3-4.32v4.32Zm18.88-5.05a6.28,6.28,0,0,0-2.48.45V21.49h5.4c1.45,0,2.18-.58,2.18-1.75S62.65,18,61.2,18H53.45a1.92,1.92,0,0,0-2.12,2.15v6.78A1.4,1.4,0,0,0,51.8,28a1.76,1.76,0,0,0,1.18.41,2.3,2.3,0,0,0,1.12-.28,10.36,10.36,0,0,1,1.44-.45,7.09,7.09,0,0,1,1.36-.12,2.83,2.83,0,0,1,2,.62,2.22,2.22,0,0,1,.7,1.75,2.19,2.19,0,0,1-.67,1.77,3.23,3.23,0,0,1-2.08.56,4.18,4.18,0,0,1-1.39-.23,14.76,14.76,0,0,1-1.41-.6l-.5-.25a8.12,8.12,0,0,0-.75-.37,1.58,1.58,0,0,0-.62-.1,1.28,1.28,0,0,0-1.05.54,2,2,0,0,0-.43,1.31,1.79,1.79,0,0,0,.19.86,2.18,2.18,0,0,0,.59.69A8.26,8.26,0,0,0,54,35.39a10.41,10.41,0,0,0,3,.45,8.08,8.08,0,0,0,3.57-.75A5.54,5.54,0,0,0,63,33a5.85,5.85,0,0,0,.85-3.17,5.92,5.92,0,0,0-.71-3,5,5,0,0,0-2-2A5.7,5.7,0,0,0,58.28,24.11ZM22.71,70.55a6.22,6.22,0,0,0-2.47.45V67.92h5.4c1.45,0,2.17-.58,2.17-1.75s-.72-1.72-2.17-1.72H17.89a2.12,2.12,0,0,0-1.58.55,2.16,2.16,0,0,0-.55,1.6v6.77a1.36,1.36,0,0,0,.48,1.09,1.67,1.67,0,0,0,1.17.41,2.44,2.44,0,0,0,1.13-.27A8.41,8.41,0,0,1,20,74.15,7.16,7.16,0,0,1,21.34,74a2.82,2.82,0,0,1,1.95.63A2.25,2.25,0,0,1,24,76.4a2.16,2.16,0,0,1-.68,1.76,3.16,3.16,0,0,1-2.07.56,4.14,4.14,0,0,1-1.39-.22,12.87,12.87,0,0,1-1.41-.6l-.5-.25c-.34-.18-.59-.31-.75-.38a1.89,1.89,0,0,0-.63-.1,1.29,1.29,0,0,0-1,.54A2.08,2.08,0,0,0,15.09,79a2,2,0,0,0,.18.87,2.31,2.31,0,0,0,.59.68,8.15,8.15,0,0,0,2.56,1.25,10.51,10.51,0,0,0,3,.45A8.16,8.16,0,0,0,25,81.52a5.63,5.63,0,0,0,2.4-2.12,6.41,6.41,0,0,0,.13-6.14,5.05,5.05,0,0,0-2-2A5.81,5.81,0,0,0,22.71,70.55Zm52.78,4H75v-9a2.13,2.13,0,0,0-.68-1.67,2.35,2.35,0,0,0-1.62-.6,2.59,2.59,0,0,0-1.12.26,2.31,2.31,0,0,0-.88.76l-7.16,10.2A2.85,2.85,0,0,0,63,76.17a1.93,1.93,0,0,0,.52,1.38,1.9,1.9,0,0,0,1.43.55h5.57V79a2.22,2.22,0,0,0,.61,1.7,2.29,2.29,0,0,0,1.62.57,2.32,2.32,0,0,0,1.62-.57A2.2,2.2,0,0,0,75,79V78.1h.54c1.46,0,2.18-.59,2.18-1.78S77,74.6,75.49,74.6Zm-8,0,3-4.33V74.6Zm17.65,6.7a5.85,5.85,0,0,0,5-2.33q1.72-2.32,1.72-6.72c0-2.92-.57-5.15-1.73-6.7a6.52,6.52,0,0,0-10,0q-1.73,2.33-1.72,6.7T80.12,79A5.85,5.85,0,0,0,85.12,81.3Zm0-3.48a1.77,1.77,0,0,1-1.72-1.3,12.13,12.13,0,0,1-.53-4.27A12,12,0,0,1,83.4,68a1.79,1.79,0,0,1,3.44,0,12.08,12.08,0,0,1,.53,4.25,12.13,12.13,0,0,1-.53,4.27A1.78,1.78,0,0,1,85.12,77.82Z"/></svg>