<svg id="Layer_1" data-name="Layer 1" xmlns="http://www.w3.org/2000/svg" viewBox="0 0 200 150"><title>l1_1_1</title><path d="M193,110.5a17.5,17.5,0,1,1-29.56-12.66l-11-16.27a17.26,17.26,0,0,1-9.52-.08L131.7,98.14h0a17.64,17.64,0,1,1-5.84-3.85l10.81-16.09a17.48,17.48,0,0,1-2.11-24.89L113.92,39.6a17.5,17.5,0,0,1-28.87,0v0L63.58,53.88a17.46,17.46,0,0,1-2.74,24.58L71.43,94.23a17.23,17.23,0,0,1,6.12-1.13,17.54,17.54,0,1,1-12.06,4.84l-11-16.27A17.26,17.26,0,0,1,45,81.59L33.81,98.24h0A17.55,17.55,0,1,1,28,94.38l10.8-16.09a17.49,17.49,0,0,1,19.29-29L82.3,32.94A17.17,17.17,0,0,1,82,29.71a17.5,17.5,0,1,1,35,0,17,17,0,0,1-.31,3.21l23.65,16a17.48,17.48,0,0,1,18.41,29.46l10.58,15.76A17.47,17.47,0,0,1,193,110.5Zm-86-46.82h-6.3v-6.3a2.85,2.85,0,0,0-.85-2.1,2.82,2.82,0,0,0-2.1-.85,2.85,2.85,0,0,0-2.1.85,2.89,2.89,0,0,0-.85,2.1v6.3H88.4a2.85,2.85,0,0,0-2.1.85,2.89,2.89,0,0,0-.85,2.1,3,3,0,0,0,.85,2.12,2.8,2.8,0,0,0,2.1.88h6.3v6.25a2.89,2.89,0,0,0,.85,2.1,3.06,3.06,0,0,0,4.23,0,2.9,2.9,0,0,0,.82-2.1V69.63h6.3a2.77,2.77,0,0,0,2.1-.88,2.91,2.91,0,0,0,.85-2.12,2.85,2.85,0,0,0-.85-2.1A2.82,2.82,0,0,0,106.9,63.68ZM96.73,35.52h-2V23.67A2.17,2.17,0,0,0,94.06,22a2.2,2.2,0,0,0-1.61-.6,4.18,4.18,0,0,0-2.07.63l-4,2.32a1.69,1.69,0,0,0-.88,1.55A2.1,2.1,0,0,0,86,27.3a1.5,1.5,0,0,0,1.2.62,1.81,1.81,0,0,0,.88-.25l2-1.18v9h-2A2.5,2.5,0,0,0,86.4,36a1.68,1.68,0,0,0-.52,1.35c0,1.23.72,1.85,2.17,1.85h8.68c1.45,0,2.17-.62,2.17-1.85A1.68,1.68,0,0,0,98.38,36,2.5,2.5,0,0,0,96.73,35.52Zm14.75-14h-9.8A2.5,2.5,0,0,0,100,22a1.77,1.77,0,0,0-.53,1.39,1.71,1.71,0,0,0,.51,1.35,2.51,2.51,0,0,0,1.67.45h6.25l-6.43,11a2.4,2.4,0,0,0-.35,1.2,1.83,1.83,0,0,0,.68,1.43,2.24,2.24,0,0,0,1.55.59,2.07,2.07,0,0,0,1.06-.29,2.28,2.28,0,0,0,.86-.88l7.58-13.13a3.23,3.23,0,0,0,.47-1.65,1.93,1.93,0,0,0-.49-1.36A1.75,1.75,0,0,0,111.48,21.54Zm-54.36,72h-5v-5a2.32,2.32,0,0,0-2.36-2.36,2.32,2.32,0,0,0-2.36,2.36v5h-5a2.39,2.39,0,0,0-1.68,4.06,2.23,2.23,0,0,0,1.68.7h5v5A2.39,2.39,0,0,0,51.42,105a2.31,2.31,0,0,0,.66-1.68v-5h5a2.26,2.26,0,0,0,1.68-.7,2.35,2.35,0,0,0,.68-1.7,2.32,2.32,0,0,0-2.36-2.36ZM48.73,56.41a6.39,6.39,0,0,0-3.17.77,5.55,5.55,0,0,0-2.19,2.16,6.66,6.66,0,0,0-.1,6.1,5.13,5.13,0,0,0,1.89,2,5,5,0,0,0,2.7.74A4.79,4.79,0,0,0,50,67.77a4.08,4.08,0,0,0,1.54-1.26,6.7,6.7,0,0,1-.94,3.26,2.4,2.4,0,0,1-2.06,1.16,3.39,3.39,0,0,1-1.15-.2,13.18,13.18,0,0,1-1.38-.6l-.55-.27c-.32-.17-.57-.29-.75-.37a1.71,1.71,0,0,0-.62-.11,1.34,1.34,0,0,0-1.07.54,2,2,0,0,0-.43,1.31,1.94,1.94,0,0,0,.18.88,2.24,2.24,0,0,0,.62.67A8,8,0,0,0,45.87,74a9.68,9.68,0,0,0,2.86.45,6.76,6.76,0,0,0,3.89-1.12,7.23,7.23,0,0,0,2.57-3.22,12.07,12.07,0,0,0,.92-4.88q0-4.26-1.93-6.55A6.69,6.69,0,0,0,48.73,56.41ZM49,64.68A2,2,0,0,1,47.44,64a2.53,2.53,0,0,1-.56-1.73,2.48,2.48,0,0,1,.58-1.73A2,2,0,0,1,49,59.93a2,2,0,0,1,1.55.66,2.78,2.78,0,0,1,0,3.44A2,2,0,0,1,49,64.68ZM25.67,113.22h-.55v-9a2.11,2.11,0,0,0-.68-1.67,2.35,2.35,0,0,0-1.62-.6,2.45,2.45,0,0,0-1.12.26,2.23,2.23,0,0,0-.88.76l-7.15,10.2a2.79,2.79,0,0,0-.55,1.65,1.84,1.84,0,0,0,2,1.93h5.57v.85a2.22,2.22,0,0,0,.61,1.7,2.29,2.29,0,0,0,1.62.57,2.32,2.32,0,0,0,1.62-.57,2.2,2.2,0,0,0,.63-1.7v-.85h.55c1.45,0,2.17-.6,2.17-1.78S27.12,113.22,25.67,113.22Zm-8,0,3-4.33v4.33Zm61-5.06a6.28,6.28,0,0,0-2.48.45v-3.07h5.4c1.45,0,2.18-.58,2.18-1.75s-.73-1.73-2.18-1.73H73.82a1.92,1.92,0,0,0-2.12,2.15V111a1.4,1.4,0,0,0,.47,1.09,1.76,1.76,0,0,0,1.18.41,2.3,2.3,0,0,0,1.12-.28,10.36,10.36,0,0,1,1.44-.45,7.09,7.09,0,0,1,1.36-.12,2.83,2.83,0,0,1,2,.62,2.22,2.22,0,0,1,.7,1.75,2.19,2.19,0,0,1-.67,1.77,3.23,3.23,0,0,1-2.08.56,4.08,4.08,0,0,1-1.38-.23,13.84,13.84,0,0,1-1.42-.6l-.5-.25a8.12,8.12,0,0,0-.75-.37,1.58,1.58,0,0,0-.62-.1,1.28,1.28,0,0,0-1,.54,2.06,2.06,0,0,0-.43,1.31,1.91,1.91,0,0,0,.19.86,2.31,2.31,0,0,0,.59.69,8.37,8.37,0,0,0,2.56,1.25,10.46,10.46,0,0,0,3,.45,8.08,8.08,0,0,0,3.57-.75,5.54,5.54,0,0,0,2.4-2.13,5.85,5.85,0,0,0,.85-3.17,6,6,0,0,0-.71-3,5,5,0,0,0-2-2A5.77,5.77,0,0,0,78.65,108.16ZM155,93.45h-5v-5a2.25,2.25,0,0,0-.68-1.68,2.28,2.28,0,0,0-1.68-.68,2.32,2.32,0,0,0-1.68.68,2.28,2.28,0,0,0-.68,1.68v5h-5a2.32,2.32,0,0,0-2.36,2.36,2.35,2.35,0,0,0,.68,1.7,2.26,2.26,0,0,0,1.68.7h5v5a2.32,2.32,0,0,0,2.36,2.36,2.23,2.23,0,0,0,1.7-.68,2.31,2.31,0,0,0,.66-1.68v-5h5a2.23,2.23,0,0,0,1.68-.7,2.31,2.31,0,0,0,.68-1.7A2.32,2.32,0,0,0,155,93.45Zm-6.26-30.9a4.8,4.8,0,0,0-2.11.47,3.9,3.9,0,0,0-1.54,1.26A6.67,6.67,0,0,1,146,61a2.39,2.39,0,0,1,2.06-1.17,3.39,3.39,0,0,1,1.15.2q.56.21,1.38.6l.55.28a5.93,5.93,0,0,0,.75.36,1.52,1.52,0,0,0,.62.11,1.36,1.36,0,0,0,1.07-.53,2,2,0,0,0,.43-1.32,1.87,1.87,0,0,0-.18-.87,2.27,2.27,0,0,0-.62-.68,8,8,0,0,0-2.51-1.25,9.68,9.68,0,0,0-2.86-.45A6.79,6.79,0,0,0,144,57.43a7.2,7.2,0,0,0-2.57,3.21,12.09,12.09,0,0,0-.92,4.89,10,10,0,0,0,1.93,6.55,6.72,6.72,0,0,0,5.45,2.3,6.39,6.39,0,0,0,3.17-.78,5.42,5.42,0,0,0,2.19-2.16A6.18,6.18,0,0,0,154,68.3a6.27,6.27,0,0,0-.69-3,5.2,5.2,0,0,0-1.89-2.05A5.07,5.07,0,0,0,148.75,62.55Zm-1.15,8.3a2,2,0,0,1-1.55-.66,2.44,2.44,0,0,1-.6-1.71,2.5,2.5,0,0,1,.59-1.73,2.22,2.22,0,0,1,3.13,0,2.56,2.56,0,0,1,.56,1.74,2.45,2.45,0,0,1-.58,1.72A1.94,1.94,0,0,1,147.6,70.85Zm-25.24,38.66a4,4,0,0,0,2-1.51,4.2,4.2,0,0,0,.71-2.41,4.34,4.34,0,0,0-.76-2.55,4.82,4.82,0,0,0-2.18-1.7,8.24,8.24,0,0,0-3.26-.6,10,10,0,0,0-3,.45,8.14,8.14,0,0,0-2.54,1.25,2,2,0,0,0-.6.67,2.29,2.29,0,0,0,.25,2.19,1.31,1.31,0,0,0,1,.54,1.77,1.77,0,0,0,.63-.11c.18-.08.43-.2.75-.37l.52-.25a14.35,14.35,0,0,1,1.36-.6,3.81,3.81,0,0,1,1.32-.22,2.13,2.13,0,0,1,1.52.51,1.85,1.85,0,0,1,.55,1.44,1.4,1.4,0,0,1-.62,1.27,3.82,3.82,0,0,1-2,.4H117a1.45,1.45,0,0,0-1.18.53,2.07,2.07,0,0,0,0,2.5,1.44,1.44,0,0,0,1.18.52h1.55a3.7,3.7,0,0,1,2,.43,1.58,1.58,0,0,1,.62,1.4,1.73,1.73,0,0,1-.61,1.5,3.47,3.47,0,0,1-2,.45,4.55,4.55,0,0,1-1.44-.21,12.23,12.23,0,0,1-1.44-.62l-.31-.13-.24-.12q-.47-.24-.75-.36a1.71,1.71,0,0,0-.62-.11,1.28,1.28,0,0,0-1.05.54,2,2,0,0,0-.43,1.31,1.91,1.91,0,0,0,.18.86,1.89,1.89,0,0,0,.6.69,8,8,0,0,0,2.6,1.26,11.15,11.15,0,0,0,3.12.44,9.57,9.57,0,0,0,3.54-.61,5.27,5.27,0,0,0,2.34-1.74,4.37,4.37,0,0,0,.82-2.65,4.43,4.43,0,0,0-.84-2.73A4.23,4.23,0,0,0,122.36,109.51Zm56.14,0a4,4,0,0,0,2-1.51,4.13,4.13,0,0,0,.72-2.41,4.34,4.34,0,0,0-.77-2.55,4.85,4.85,0,0,0-2.17-1.7,8.28,8.28,0,0,0-3.26-.6,10.09,10.09,0,0,0-3,.45,8.09,8.09,0,0,0-2.53,1.25,1.84,1.84,0,0,0-.6.67,1.94,1.94,0,0,0-.18.88,2,2,0,0,0,.43,1.31,1.28,1.28,0,0,0,1,.54,1.52,1.52,0,0,0,.62-.12,7.63,7.63,0,0,0,.75-.36l.53-.25a13.31,13.31,0,0,1,1.36-.6,3.75,3.75,0,0,1,1.31-.22,2.18,2.18,0,0,1,1.53.51,1.89,1.89,0,0,1,.55,1.44,1.39,1.39,0,0,1-.63,1.27,3.79,3.79,0,0,1-2,.4h-1.1a1.42,1.42,0,0,0-1.17.53,2,2,0,0,0,0,2.5,1.41,1.41,0,0,0,1.17.52h1.55a3.7,3.7,0,0,1,2.05.43,1.56,1.56,0,0,1,.63,1.4,1.74,1.74,0,0,1-.62,1.5,3.47,3.47,0,0,1-2,.45,4.35,4.35,0,0,1-1.44-.22,10.5,10.5,0,0,1-1.43-.61,3.37,3.37,0,0,1-.32-.14,1.67,1.67,0,0,1-.23-.11c-.32-.16-.57-.29-.75-.36a1.61,1.61,0,0,0-.63-.11,1.3,1.3,0,0,0-1,.53,2.08,2.08,0,0,0-.42,1.32,1.91,1.91,0,0,0,.17.86,2.1,2.1,0,0,0,.6.69,8,8,0,0,0,2.6,1.26,11.17,11.17,0,0,0,3.13.44,9.31,9.31,0,0,0,3.53-.62,5.18,5.18,0,0,0,2.34-1.73,4.38,4.38,0,0,0,.83-2.65,4.43,4.43,0,0,0-.84-2.73A4.3,4.3,0,0,0,178.5,109.51Z"/></svg>