<svg id="Layer_1" data-name="Layer 1" xmlns="http://www.w3.org/2000/svg" viewBox="0 0 100 100"><title>l1_1_1</title><path d="M92.29,71.47A17.5,17.5,0,1,1,62.73,58.81l-11-16.27a17.51,17.51,0,0,1-4.61.63,17.71,17.71,0,0,1-4.91-.71L31,59.1h0a17.6,17.6,0,1,1-5.83-3.85L36,39.15a17.5,17.5,0,1,1,22.07.18L68.66,55.09A17.47,17.47,0,0,1,92.29,71.47Zm-37.93-16h-5v-5a2.28,2.28,0,0,0-.68-1.68A2.32,2.32,0,0,0,47,48a2.28,2.28,0,0,0-1.68.68,2.25,2.25,0,0,0-.68,1.68v5h-5a2.28,2.28,0,0,0-1.68.68,2.25,2.25,0,0,0-.68,1.68,2.32,2.32,0,0,0,.68,1.7,2.23,2.23,0,0,0,1.68.7h5v5a2.25,2.25,0,0,0,.68,1.68,2.44,2.44,0,0,0,3.38,0,2.31,2.31,0,0,0,.66-1.68v-5h5a2.26,2.26,0,0,0,1.68-.7,2.36,2.36,0,0,0,.68-1.7A2.28,2.28,0,0,0,56,56.1,2.32,2.32,0,0,0,54.36,55.42Zm-14-32.82a6.22,6.22,0,0,0-2.47.45V20h5.4c1.45,0,2.17-.58,2.17-1.75s-.72-1.72-2.17-1.72H35.5a1.92,1.92,0,0,0-2.13,2.15v6.77a1.38,1.38,0,0,0,.48,1.09,1.72,1.72,0,0,0,1.17.41,2.44,2.44,0,0,0,1.13-.27,8.41,8.41,0,0,1,1.43-.45A6.44,6.44,0,0,1,39,26.07a2.82,2.82,0,0,1,1.95.63,2.24,2.24,0,0,1,.7,1.75,2.17,2.17,0,0,1-.68,1.76,3.22,3.22,0,0,1-2.07.56,4.14,4.14,0,0,1-1.39-.22,12.87,12.87,0,0,1-1.41-.6l-.5-.25c-.34-.19-.59-.31-.75-.38a1.89,1.89,0,0,0-.63-.1,1.29,1.29,0,0,0-1.05.54,2.06,2.06,0,0,0-.42,1.31,1.88,1.88,0,0,0,.18.86,2.09,2.09,0,0,0,.59.69A8.15,8.15,0,0,0,36,33.87a10.51,10.51,0,0,0,3,.45,8.16,8.16,0,0,0,3.58-.75,5.7,5.7,0,0,0,2.4-2.12,6.41,6.41,0,0,0,.13-6.14,5,5,0,0,0-2-2A5.71,5.71,0,0,0,40.32,22.6Zm15,0a6.22,6.22,0,0,0-2.47.45V20h5.4c1.45,0,2.17-.58,2.17-1.75s-.72-1.72-2.17-1.72H50.5a1.92,1.92,0,0,0-2.13,2.15v6.77a1.38,1.38,0,0,0,.48,1.09,1.72,1.72,0,0,0,1.17.41,2.44,2.44,0,0,0,1.13-.27,8.41,8.41,0,0,1,1.43-.45A6.44,6.44,0,0,1,54,26.07a2.82,2.82,0,0,1,1.95.63,2.24,2.24,0,0,1,.7,1.75,2.17,2.17,0,0,1-.68,1.76,3.22,3.22,0,0,1-2.07.56,4.14,4.14,0,0,1-1.39-.22,12.87,12.87,0,0,1-1.41-.6l-.5-.25c-.34-.19-.59-.31-.75-.38a1.89,1.89,0,0,0-.63-.1,1.29,1.29,0,0,0-1.05.54,2.06,2.06,0,0,0-.42,1.31,1.88,1.88,0,0,0,.18.86,2.09,2.09,0,0,0,.59.69A8.15,8.15,0,0,0,51,33.87a10.51,10.51,0,0,0,3,.45,8.16,8.16,0,0,0,3.58-.75,5.7,5.7,0,0,0,2.4-2.12,6.41,6.41,0,0,0,.13-6.14,5,5,0,0,0-2-2A5.71,5.71,0,0,0,55.32,22.6ZM19.75,69a6.26,6.26,0,0,0-2.47.45V66.41h5.4c1.45,0,2.18-.59,2.18-1.75s-.73-1.73-2.18-1.73H14.93a2.1,2.1,0,0,0-1.57.55,2.16,2.16,0,0,0-.55,1.6v6.78a1.33,1.33,0,0,0,.47,1.08,1.71,1.71,0,0,0,1.17.42,2.42,2.42,0,0,0,1.13-.28A8.21,8.21,0,0,1,17,72.63a7.09,7.09,0,0,1,1.36-.12,2.82,2.82,0,0,1,1.95.62,2.22,2.22,0,0,1,.7,1.75,2.15,2.15,0,0,1-.67,1.76,3.19,3.19,0,0,1-2.08.57A4.18,4.18,0,0,1,16.89,77a14.76,14.76,0,0,1-1.41-.6l-.5-.25a6.14,6.14,0,0,0-.75-.37,1.61,1.61,0,0,0-.62-.1,1.3,1.3,0,0,0-1,.53,2,2,0,0,0-.43,1.32,1.79,1.79,0,0,0,.19.86,2.18,2.18,0,0,0,.59.69,8.26,8.26,0,0,0,2.56,1.25,10.39,10.39,0,0,0,3,.45A8.09,8.09,0,0,0,22.08,80a5.66,5.66,0,0,0,2.4-2.13,5.88,5.88,0,0,0,.85-3.17,6.1,6.1,0,0,0-.71-3,5.21,5.21,0,0,0-2-2A5.81,5.81,0,0,0,19.75,69Zm48.64,0a6.28,6.28,0,0,0-2.48.45V66.41h5.4c1.45,0,2.18-.59,2.18-1.75s-.73-1.73-2.18-1.73H63.56a2.1,2.1,0,0,0-1.57.55,2.16,2.16,0,0,0-.55,1.6v6.78a1.36,1.36,0,0,0,.47,1.08,1.72,1.72,0,0,0,1.18.42,2.41,2.41,0,0,0,1.12-.28,8.21,8.21,0,0,1,1.44-.45A7.09,7.09,0,0,1,67,72.51a2.79,2.79,0,0,1,1.95.62,2.22,2.22,0,0,1,.7,1.75A2.15,2.15,0,0,1,69,76.64a3.17,3.17,0,0,1-2.08.57A4.08,4.08,0,0,1,65.53,77a13.84,13.84,0,0,1-1.42-.6l-.5-.25a6.14,6.14,0,0,0-.75-.37,1.58,1.58,0,0,0-.62-.1,1.27,1.27,0,0,0-1.05.53,2,2,0,0,0-.43,1.32,1.91,1.91,0,0,0,.19.86,2.31,2.31,0,0,0,.59.69,8.37,8.37,0,0,0,2.56,1.25,10.41,10.41,0,0,0,3,.45A8.08,8.08,0,0,0,70.71,80a5.54,5.54,0,0,0,2.4-2.13A5.88,5.88,0,0,0,74,74.71a6,6,0,0,0-.71-3,5.05,5.05,0,0,0-2-2A5.87,5.87,0,0,0,68.39,69ZM82.16,80.78a5.83,5.83,0,0,0,5-2.32c1.15-1.55,1.73-3.8,1.73-6.73s-.58-5.15-1.74-6.7a6.54,6.54,0,0,0-10,0q-1.72,2.32-1.72,6.7c0,2.93.57,5.18,1.72,6.73A5.84,5.84,0,0,0,82.16,80.78Zm0-3.47A1.79,1.79,0,0,1,80.44,76a12.48,12.48,0,0,1-.53-4.28,12.31,12.31,0,0,1,.53-4.26,1.8,1.8,0,0,1,3.45,0,12.37,12.37,0,0,1,.52,4.25A12.53,12.53,0,0,1,83.89,76,1.81,1.81,0,0,1,82.16,77.31Z"/></svg>