<svg id="Layer_1" data-name="Layer 1" xmlns="http://www.w3.org/2000/svg" viewBox="0 0 200 150"><title>l1_1_1</title><path d="M193.31,110.39a17.5,17.5,0,1,1-29.56-12.65l-11-16.28a17.1,17.1,0,0,1-9.51-.07L132.07,98h0a17.55,17.55,0,1,1-5.83-3.86L137,78.08a17.46,17.46,0,0,1-2.1-24.89L114.29,39.5a17.49,17.49,0,0,1-28.87,0v0L64,53.77a17.47,17.47,0,0,1-2.74,24.59L71.79,94.12a17.54,17.54,0,1,1-5.93,3.72l-11-16.28a17.11,17.11,0,0,1-4.61.64,17.66,17.66,0,0,1-4.91-.71L34.17,98.13h0a17.64,17.64,0,1,1-5.84-3.85l10.81-16.1a17.5,17.5,0,0,1,19.29-29L82.67,32.84a17.25,17.25,0,0,1-.31-3.23,17.5,17.5,0,0,1,35,0,17.91,17.91,0,0,1-.31,3.21l23.65,16a17.49,17.49,0,0,1,18.41,29.46L169.69,94a17.32,17.32,0,0,1,6.12-1.13A17.5,17.5,0,0,1,193.31,110.39Zm-86-46.82H101v-6.3a2.85,2.85,0,0,0-.85-2.1,3,3,0,0,0-4.2,0,2.85,2.85,0,0,0-.85,2.1v6.3h-6.3a2.89,2.89,0,0,0-2.1.85,2.85,2.85,0,0,0-.85,2.1,2.92,2.92,0,0,0,.85,2.13,2.83,2.83,0,0,0,2.1.87h6.3v6.25a2.82,2.82,0,0,0,.85,2.1,2.94,2.94,0,0,0,5-2.1V69.52h6.3a2.83,2.83,0,0,0,2.1-.87,2.92,2.92,0,0,0,.85-2.13,2.85,2.85,0,0,0-.85-2.1A2.89,2.89,0,0,0,107.27,63.57Zm-6.75-36A6.28,6.28,0,0,0,98,28V24.91h5.4c1.45,0,2.18-.58,2.18-1.75s-.73-1.72-2.18-1.72H95.69a2.1,2.1,0,0,0-1.57.55,2.16,2.16,0,0,0-.55,1.6v6.77A1.39,1.39,0,0,0,94,31.45a1.72,1.72,0,0,0,1.18.41,2.4,2.4,0,0,0,1.12-.27,8.21,8.21,0,0,1,1.44-.45A6.34,6.34,0,0,1,99.14,31a2.79,2.79,0,0,1,2,.63,2.2,2.2,0,0,1,.7,1.75,2.15,2.15,0,0,1-.67,1.76,3.17,3.17,0,0,1-2.08.56,4.18,4.18,0,0,1-1.39-.22,14.76,14.76,0,0,1-1.41-.6l-.5-.25a6.58,6.58,0,0,0-.75-.38,1.79,1.79,0,0,0-.62-.1,1.28,1.28,0,0,0-1.05.54A2,2,0,0,0,92.89,36a1.83,1.83,0,0,0,.19.87,2,2,0,0,0,.59.68,8,8,0,0,0,2.56,1.25,10.41,10.41,0,0,0,3,.45,8.08,8.08,0,0,0,3.57-.75,5.64,5.64,0,0,0,2.4-2.12,5.91,5.91,0,0,0,.85-3.18,6.08,6.08,0,0,0-.71-3,5.08,5.08,0,0,0-2-2A5.8,5.8,0,0,0,100.52,27.54Zm-43,65.91h-5v-5a2.25,2.25,0,0,0-.68-1.68,2.28,2.28,0,0,0-1.68-.68,2.32,2.32,0,0,0-1.68.68,2.28,2.28,0,0,0-.68,1.68v5h-5a2.32,2.32,0,0,0-1.68.68,2.28,2.28,0,0,0-.68,1.68,2.36,2.36,0,0,0,.68,1.7,2.26,2.26,0,0,0,1.68.7h5v5a2.28,2.28,0,0,0,.68,1.68,2.32,2.32,0,0,0,1.68.68,2.27,2.27,0,0,0,1.7-.68,2.31,2.31,0,0,0,.66-1.68v-5h5a2.23,2.23,0,0,0,1.68-.7,2.32,2.32,0,0,0,.68-1.7,2.25,2.25,0,0,0-.68-1.68A2.28,2.28,0,0,0,57.48,93.45ZM52.9,65.08a4.07,4.07,0,0,0,2-1.52,4.17,4.17,0,0,0,.71-2.41,4.38,4.38,0,0,0-.76-2.55,5,5,0,0,0-2.18-1.7,8.28,8.28,0,0,0-3.26-.6,10,10,0,0,0-3,.45A8.37,8.37,0,0,0,43.9,58a2.07,2.07,0,0,0-.6.68,1.87,1.87,0,0,0-.18.87,2,2,0,0,0,.43,1.31,1.28,1.28,0,0,0,1.05.54,1.71,1.71,0,0,0,.62-.11q.28-.12.75-.36l.53-.25a13.31,13.31,0,0,1,1.36-.6,3.8,3.8,0,0,1,1.31-.23,2.18,2.18,0,0,1,1.53.51,1.88,1.88,0,0,1,.55,1.44,1.4,1.4,0,0,1-.63,1.28,3.87,3.87,0,0,1-2,.4h-1.1a1.41,1.41,0,0,0-1.17.52,2,2,0,0,0-.43,1.25,1.93,1.93,0,0,0,.43,1.25,1.42,1.42,0,0,0,1.17.53h1.55a3.78,3.78,0,0,1,2,.42,1.57,1.57,0,0,1,.63,1.4,1.76,1.76,0,0,1-.61,1.5,3.49,3.49,0,0,1-2,.45,4.53,4.53,0,0,1-1.43-.21A11.37,11.37,0,0,1,46.25,70l-.31-.14-.24-.11c-.32-.17-.57-.29-.75-.37a1.73,1.73,0,0,0-.63-.11,1.31,1.31,0,0,0-1,.54,2.08,2.08,0,0,0-.42,1.31A2,2,0,0,0,43,72a1.92,1.92,0,0,0,.6.69,8.07,8.07,0,0,0,2.6,1.26,10.86,10.86,0,0,0,3.13.44,9.37,9.37,0,0,0,3.54-.61A5.24,5.24,0,0,0,55.22,72a4.36,4.36,0,0,0,.83-2.65,4.42,4.42,0,0,0-.84-2.72A4.25,4.25,0,0,0,52.9,65.08ZM26.3,114.94h-5l3.55-3.63a11.82,11.82,0,0,0,2.09-2.81,6.27,6.27,0,0,0,.61-2.79,4.57,4.57,0,0,0-.76-2.61,4.9,4.9,0,0,0-2.16-1.75,8.05,8.05,0,0,0-3.25-.61,9.77,9.77,0,0,0-2.89.45,9.45,9.45,0,0,0-2.64,1.25,1.62,1.62,0,0,0-.61.65,2.1,2.1,0,0,0-.16.9,2.15,2.15,0,0,0,.42,1.33,1.26,1.26,0,0,0,1,.57,1.51,1.51,0,0,0,.48-.08,2.83,2.83,0,0,0,.51-.24l.39-.21.5-.25a12.53,12.53,0,0,1,1.41-.61,4.09,4.09,0,0,1,1.34-.21,1.94,1.94,0,0,1,1.38.45A1.66,1.66,0,0,1,23,106a4.87,4.87,0,0,1-1.65,3.17l-5.3,5.53a2.71,2.71,0,0,0-.85,2,1.84,1.84,0,0,0,2,1.9H26.3a2.5,2.5,0,0,0,1.63-.45,1.72,1.72,0,0,0,.54-1.4,1.67,1.67,0,0,0-.54-1.37A2.56,2.56,0,0,0,26.3,114.94ZM82.1,116h-2V104.19a2.18,2.18,0,0,0-.61-1.63,2.21,2.21,0,0,0-1.61-.6,4.21,4.21,0,0,0-2.08.63l-4,2.32a1.7,1.7,0,0,0-.87,1.55,2.09,2.09,0,0,0,.5,1.37,1.49,1.49,0,0,0,1.2.61,1.65,1.65,0,0,0,.87-.25l2-1.18v9h-2a2.55,2.55,0,0,0-1.66.45,1.71,1.71,0,0,0-.52,1.35c0,1.23.73,1.85,2.18,1.85H82.1c1.45,0,2.17-.62,2.17-1.85a1.68,1.68,0,0,0-.52-1.35A2.5,2.5,0,0,0,82.1,116Zm73.28-22.69h-5v-5a2.28,2.28,0,0,0-.68-1.68,2.42,2.42,0,0,0-3.36,0,2.28,2.28,0,0,0-.68,1.68v5h-5a2.32,2.32,0,0,0-2.36,2.36,2.34,2.34,0,0,0,.68,1.7,2.26,2.26,0,0,0,1.68.7h5v5a2.32,2.32,0,0,0,.68,1.68,2.44,2.44,0,0,0,3.38,0,2.34,2.34,0,0,0,.66-1.68v-5h5a2.26,2.26,0,0,0,1.68-.7,2.38,2.38,0,0,0,.68-1.7,2.28,2.28,0,0,0-.68-1.68A2.25,2.25,0,0,0,155.38,93.35ZM152.26,70.4h-5l3.55-3.63A11.55,11.55,0,0,0,152.87,64a6.27,6.27,0,0,0,.61-2.79,4.57,4.57,0,0,0-.76-2.61,4.9,4.9,0,0,0-2.16-1.75,8.05,8.05,0,0,0-3.25-.61,9.77,9.77,0,0,0-2.89.45,10,10,0,0,0-2.64,1.25,1.68,1.68,0,0,0-.61.65,2.1,2.1,0,0,0-.16.9,2.18,2.18,0,0,0,.42,1.34,1.3,1.3,0,0,0,1,.56,1.51,1.51,0,0,0,.48-.08,2.72,2.72,0,0,0,.51-.23l.39-.22.5-.25a12.53,12.53,0,0,1,1.41-.61,4.09,4.09,0,0,1,1.34-.21,2,2,0,0,1,1.39.45,1.69,1.69,0,0,1,.48,1.3,4.85,4.85,0,0,1-1.65,3.17L142,70.2a2.75,2.75,0,0,0-.85,2,1.84,1.84,0,0,0,1.95,1.9h9.13a2.48,2.48,0,0,0,1.63-.45,1.72,1.72,0,0,0,.54-1.4,1.64,1.64,0,0,0-.54-1.36A2.54,2.54,0,0,0,152.26,70.4Zm-28.41,45.43h-2V104a2.16,2.16,0,0,0-.61-1.62,2.2,2.2,0,0,0-1.61-.6,4.32,4.32,0,0,0-2.08.62l-4,2.33a1.7,1.7,0,0,0-.87,1.55,2.12,2.12,0,0,0,.5,1.36,1.49,1.49,0,0,0,1.2.61,1.65,1.65,0,0,0,.87-.25l2-1.17v9h-2a2.5,2.5,0,0,0-1.65.45,1.68,1.68,0,0,0-.53,1.35c0,1.24.73,1.85,2.18,1.85h8.67c1.45,0,2.18-.61,2.18-1.85a1.68,1.68,0,0,0-.53-1.35A2.5,2.5,0,0,0,123.85,115.83Zm57.14-1h-2.05V103a2.19,2.19,0,0,0-.61-1.62,2.22,2.22,0,0,0-1.62-.6,4.26,4.26,0,0,0-2.07.62l-4,2.33a1.68,1.68,0,0,0-.88,1.55,2.12,2.12,0,0,0,.5,1.36,1.51,1.51,0,0,0,1.2.61,1.71,1.71,0,0,0,.88-.25l2-1.17v9h-2a2.5,2.5,0,0,0-1.65.45,1.68,1.68,0,0,0-.52,1.35c0,1.24.72,1.85,2.17,1.85H181c1.45,0,2.17-.61,2.17-1.85a1.68,1.68,0,0,0-.52-1.35A2.5,2.5,0,0,0,181,114.83Z"/></svg>