<svg id="Layer_1" data-name="Layer 1" xmlns="http://www.w3.org/2000/svg" viewBox="0 0 200 150"><title>l1_1_1</title><path d="M192,110.39a17.5,17.5,0,1,1-29.56-12.65l-11-16.28a17.51,17.51,0,0,1-4.61.64,17.71,17.71,0,0,1-4.91-.71L130.74,98h0a17.55,17.55,0,1,1-5.83-3.86l10.8-16.09a17.48,17.48,0,0,1-2.11-24.89L113,39.5a17.49,17.49,0,0,1-28.87,0v0L62.62,53.77a17.48,17.48,0,0,1-2.73,24.59L70.47,94.12a17.5,17.5,0,1,1-5.94,3.72l-11-16.28A17.24,17.24,0,0,1,49,82.2a17.64,17.64,0,0,1-4.9-.71L32.85,98.13h0A17.6,17.6,0,1,1,27,94.28l10.8-16.1a17.5,17.5,0,0,1,19.3-29L81.34,32.84A18.14,18.14,0,0,1,81,29.61a17.5,17.5,0,1,1,35,0,17.91,17.91,0,0,1-.3,3.21l23.64,16a17.48,17.48,0,0,1,18.41,29.46L168.36,94A17.45,17.45,0,0,1,192,110.39ZM106,63.57h-6.3v-6.3a3,3,0,0,0-5.05-2.1,2.85,2.85,0,0,0-.85,2.1v6.3h-6.3a2.9,2.9,0,0,0-3,2.95,2.92,2.92,0,0,0,.85,2.13,2.81,2.81,0,0,0,2.1.87h6.3v6.25a3,3,0,0,0,5.07,2.1,2.88,2.88,0,0,0,.83-2.1V69.52H106a2.83,2.83,0,0,0,2.1-.87,3,3,0,0,0,.85-2.13,2.9,2.9,0,0,0-3-2.95Zm-10-29.86H94.06V22.8a2,2,0,0,0-.57-1.49A2,2,0,0,0,92,20.76a3.93,3.93,0,0,0-1.91.57l-3.68,2.14a1.57,1.57,0,0,0-.8,1.43,1.92,1.92,0,0,0,.46,1.25,1.35,1.35,0,0,0,1.1.56,1.51,1.51,0,0,0,.81-.23l1.84-1.08v8.31H88a2.25,2.25,0,0,0-1.51.41A1.53,1.53,0,0,0,86,35.36c0,1.14.67,1.7,2,1.7h8c1.34,0,2-.56,2-1.7a1.56,1.56,0,0,0-.49-1.24A2.28,2.28,0,0,0,95.94,33.71Zm11.85-5a3.72,3.72,0,0,0,1.83-1.39,3.77,3.77,0,0,0,.65-2.22,4,4,0,0,0-.7-2.34,4.48,4.48,0,0,0-2-1.57,7.79,7.79,0,0,0-3-.55,9.14,9.14,0,0,0-2.73.42,7.36,7.36,0,0,0-2.33,1.15,1.66,1.66,0,0,0-.55.62,1.73,1.73,0,0,0-.16.8,1.89,1.89,0,0,0,.39,1.21,1.18,1.18,0,0,0,1,.49,1.5,1.5,0,0,0,.58-.1q.26-.11.69-.33l.48-.23c.46-.23.88-.42,1.25-.56a3.7,3.7,0,0,1,1.21-.2,2,2,0,0,1,1.41.47,1.73,1.73,0,0,1,.5,1.32,1.28,1.28,0,0,1-.57,1.17,3.5,3.5,0,0,1-1.84.37h-1a1.29,1.29,0,0,0-1.08.49,1.76,1.76,0,0,0-.39,1.15,1.8,1.8,0,0,0,.39,1.15,1.31,1.31,0,0,0,1.08.48h1.43a3.51,3.51,0,0,1,1.89.39,1.45,1.45,0,0,1,.57,1.29,1.62,1.62,0,0,1-.56,1.38,3.24,3.24,0,0,1-1.85.41,4.23,4.23,0,0,1-1.33-.19,9.73,9.73,0,0,1-1.32-.57l-.29-.12-.21-.11-.69-.33a1.54,1.54,0,0,0-.58-.1,1.19,1.19,0,0,0-1,.49,1.89,1.89,0,0,0-.39,1.21,1.58,1.58,0,0,0,.72,1.42,7.3,7.3,0,0,0,2.39,1.17,10.53,10.53,0,0,0,2.87.4,8.56,8.56,0,0,0,3.26-.57,4.79,4.79,0,0,0,2.15-1.59,4.07,4.07,0,0,0,.76-2.44,4.11,4.11,0,0,0-.77-2.51A4,4,0,0,0,107.79,28.71ZM56.16,93.45h-5v-5a2.36,2.36,0,1,0-4.72,0v5h-5A2.32,2.32,0,0,0,39,95.81a2.36,2.36,0,0,0,.68,1.7,2.23,2.23,0,0,0,1.68.7h5v5a2.39,2.39,0,0,0,4.06,1.68,2.31,2.31,0,0,0,.66-1.68v-5h5a2.23,2.23,0,0,0,1.68-.7,2.36,2.36,0,0,0,.68-1.7,2.32,2.32,0,0,0-2.36-2.36ZM47.78,57.3a6.4,6.4,0,0,0-3.18.78,5.55,5.55,0,0,0-2.19,2.16,6.28,6.28,0,0,0-.78,3.14,6.39,6.39,0,0,0,.68,3,5.2,5.2,0,0,0,1.89,2,5.07,5.07,0,0,0,2.7.74A4.77,4.77,0,0,0,49,68.66a3.83,3.83,0,0,0,1.54-1.26,6.57,6.57,0,0,1-.94,3.26,2.38,2.38,0,0,1-2.06,1.17,3.43,3.43,0,0,1-1.15-.2c-.37-.14-.82-.34-1.37-.6l-.55-.28c-.32-.16-.57-.29-.75-.36a1.61,1.61,0,0,0-.63-.11,1.33,1.33,0,0,0-1.06.53,2,2,0,0,0-.44,1.32,1.75,1.75,0,0,0,.19.87,2.11,2.11,0,0,0,.61.68,8.08,8.08,0,0,0,2.51,1.25,9.74,9.74,0,0,0,2.87.45,6.74,6.74,0,0,0,3.88-1.13A7.29,7.29,0,0,0,54.24,71a12.09,12.09,0,0,0,.91-4.89,10,10,0,0,0-1.92-6.55A6.73,6.73,0,0,0,47.78,57.3Zm.27,8.28a2,2,0,0,1-1.56-.64,2.93,2.93,0,0,1,0-3.46,1.94,1.94,0,0,1,1.55-.65,2,2,0,0,1,1.55.66,2.44,2.44,0,0,1,.6,1.71,2.5,2.5,0,0,1-.59,1.73A2,2,0,0,1,48.05,65.58ZM24.71,113.11h-.55v-9a2.16,2.16,0,0,0-.67-1.68,2.38,2.38,0,0,0-1.63-.6,2.58,2.58,0,0,0-1.11.26,2.28,2.28,0,0,0-.89.77L12.71,113a2.75,2.75,0,0,0-.55,1.65,2,2,0,0,0,.52,1.37,1.89,1.89,0,0,0,1.43.55h5.57v.85a2.21,2.21,0,0,0,.62,1.7,2.27,2.27,0,0,0,1.61.58,2.34,2.34,0,0,0,1.63-.58,2.21,2.21,0,0,0,.62-1.7v-.85h.55c1.45,0,2.17-.59,2.17-1.77S26.16,113.11,24.71,113.11Zm-8,0,3-4.32v4.32Zm61-4.15a6.22,6.22,0,0,0-2.47.45v-3.08h5.4c1.45,0,2.17-.58,2.17-1.75s-.72-1.72-2.17-1.72H72.87a2.14,2.14,0,0,0-1.58.55,2.2,2.2,0,0,0-.55,1.6v6.77a1.36,1.36,0,0,0,.48,1.09,1.69,1.69,0,0,0,1.17.41,2.44,2.44,0,0,0,1.13-.27,8.21,8.21,0,0,1,1.44-.45,7,7,0,0,1,1.36-.13,2.82,2.82,0,0,1,2,.63,2.25,2.25,0,0,1,.7,1.75,2.16,2.16,0,0,1-.68,1.76,3.16,3.16,0,0,1-2.07.56,4.18,4.18,0,0,1-1.39-.22,14.76,14.76,0,0,1-1.41-.6l-.5-.25c-.34-.18-.59-.31-.75-.38a1.89,1.89,0,0,0-.63-.1,1.31,1.31,0,0,0-1.05.54,2.08,2.08,0,0,0-.42,1.31,1.83,1.83,0,0,0,.19.87,2.13,2.13,0,0,0,.58.68,8.1,8.1,0,0,0,2.57,1.25,10.39,10.39,0,0,0,3,.45,8.16,8.16,0,0,0,3.58-.75,5.63,5.63,0,0,0,2.4-2.12,6,6,0,0,0,.85-3.18,6.08,6.08,0,0,0-.71-3,5.14,5.14,0,0,0-2-2A5.81,5.81,0,0,0,77.69,109Zm76.37-15.61h-5v-5A2.32,2.32,0,0,0,146.66,86a2.32,2.32,0,0,0-2.36,2.36v5h-5.05a2.32,2.32,0,0,0-2.35,2.36,2.34,2.34,0,0,0,.68,1.7,2.26,2.26,0,0,0,1.67.7h5.05v5a2.39,2.39,0,0,0,4.06,1.68,2.34,2.34,0,0,0,.66-1.68v-5h5a2.3,2.3,0,0,0,1.68-.7,2.38,2.38,0,0,0,.68-1.7,2.32,2.32,0,0,0-2.36-2.36Zm-3.39-25.78h-.55v-9a2.13,2.13,0,0,0-.67-1.68,2.38,2.38,0,0,0-1.63-.6,2.45,2.45,0,0,0-1.11.27,2.25,2.25,0,0,0-.89.76l-7.15,10.2a2.79,2.79,0,0,0-.55,1.65,1.89,1.89,0,0,0,.53,1.37,1.85,1.85,0,0,0,1.42.55h5.58v.85a2.06,2.06,0,0,0,2.22,2.28,2.29,2.29,0,0,0,1.63-.58,2.21,2.21,0,0,0,.62-1.7v-.85h.55c1.45,0,2.18-.59,2.18-1.77S152.12,67.57,150.67,67.57Zm-8,0,3-4.32v4.32Zm-20.12,48.26h-2V104a2.16,2.16,0,0,0-.61-1.62,2.21,2.21,0,0,0-1.61-.6,4.29,4.29,0,0,0-2.08.62l-4,2.33a1.7,1.7,0,0,0-.87,1.55,2.06,2.06,0,0,0,.5,1.36,1.49,1.49,0,0,0,1.2.61,1.65,1.65,0,0,0,.87-.25l2-1.17v9h-2a2.5,2.5,0,0,0-1.65.45,1.68,1.68,0,0,0-.53,1.35c0,1.24.73,1.85,2.18,1.85h8.67c1.45,0,2.18-.61,2.18-1.85a1.68,1.68,0,0,0-.53-1.35A2.5,2.5,0,0,0,122.53,115.83Zm55-5.42a4.11,4.11,0,0,0,2-1.51,4.23,4.23,0,0,0,.71-2.42,4.45,4.45,0,0,0-.76-2.55,5,5,0,0,0-2.18-1.7,8.28,8.28,0,0,0-3.26-.6,10,10,0,0,0-3,.45,8.37,8.37,0,0,0-2.54,1.25,2.18,2.18,0,0,0-.6.68,1.87,1.87,0,0,0-.18.87,2,2,0,0,0,.43,1.32,1.3,1.3,0,0,0,1.05.53,1.52,1.52,0,0,0,.62-.11,5.93,5.93,0,0,0,.75-.36l.53-.25a13.31,13.31,0,0,1,1.36-.6,3.8,3.8,0,0,1,1.31-.23,2.13,2.13,0,0,1,1.53.52,1.85,1.85,0,0,1,.55,1.43,1.4,1.4,0,0,1-.63,1.28,3.77,3.77,0,0,1-2,.4h-1.1a1.41,1.41,0,0,0-1.17.52,2,2,0,0,0-.43,1.25,1.93,1.93,0,0,0,.43,1.25,1.42,1.42,0,0,0,1.17.53h1.55a3.78,3.78,0,0,1,2,.42,1.57,1.57,0,0,1,.63,1.4,1.76,1.76,0,0,1-.61,1.5,3.49,3.49,0,0,1-2,.45,4.53,4.53,0,0,1-1.43-.21,11.37,11.37,0,0,1-1.44-.61l-.31-.14-.24-.11a7.63,7.63,0,0,0-.75-.36,1.57,1.57,0,0,0-.63-.12,1.31,1.31,0,0,0-1.05.54,2.08,2.08,0,0,0-.42,1.31,2.11,2.11,0,0,0,.17.87,2,2,0,0,0,.6.68,8.29,8.29,0,0,0,2.6,1.27,11.16,11.16,0,0,0,3.13.43,9.37,9.37,0,0,0,3.54-.61,5.3,5.3,0,0,0,2.33-1.74,4.36,4.36,0,0,0,.83-2.65,4.42,4.42,0,0,0-.84-2.72A4.25,4.25,0,0,0,177.54,110.41Z"/></svg>