<svg id="Layer_1" data-name="Layer 1" xmlns="http://www.w3.org/2000/svg" viewBox="0 0 200 150"><title>l1_1_1</title><path d="M193.65,112.65A17.5,17.5,0,1,1,164.09,100l-11-16.27a17.51,17.51,0,0,1-4.61.64,17.3,17.3,0,0,1-4.91-.72L132.4,100.29h0a17.6,17.6,0,1,1-5.84-3.86l10.81-16.09a17.48,17.48,0,0,1-2.11-24.89L114.62,41.76a17.48,17.48,0,0,1-28.86,0v0L64.28,56a17.48,17.48,0,0,1-2.73,24.59L72.13,96.38a17.52,17.52,0,1,1-5.94,3.72l-11-16.28a17.1,17.1,0,0,1-9.51-.07L34.51,100.39h0a17.5,17.5,0,1,1-12.38-5.13,17.6,17.6,0,0,1,6.55,1.27l10.8-16.09a17.5,17.5,0,0,1,19.3-29L83,35.1a18.14,18.14,0,0,1-.31-3.23,17.5,17.5,0,0,1,35,0,17,17,0,0,1-.31,3.21q11.84,8,23.65,16a17.48,17.48,0,0,1,18.41,29.46L170,96.28a17.33,17.33,0,0,1,6.13-1.13A17.51,17.51,0,0,1,193.65,112.65ZM109.92,65h-6.3v-6.3a3,3,0,1,0-5.91,0V65H91.42a2.92,2.92,0,0,0-3,3,2.94,2.94,0,0,0,.86,2.13,2.8,2.8,0,0,0,2.1.87h6.29v6.25a3,3,0,0,0,5.08,2.1,2.88,2.88,0,0,0,.83-2.1V70.92h6.3a2.79,2.79,0,0,0,2.09-.87,2.94,2.94,0,0,0,.86-2.13,2.92,2.92,0,0,0-3-3ZM92.5,22.47a6.39,6.39,0,0,0-3.17.78,5.48,5.48,0,0,0-2.19,2.16,6.66,6.66,0,0,0-.1,6.1,5.13,5.13,0,0,0,1.89,2.05,5.07,5.07,0,0,0,2.7.74,4.94,4.94,0,0,0,2.11-.46,4,4,0,0,0,1.54-1.27,6.75,6.75,0,0,1-.94,3.27A2.39,2.39,0,0,1,92.28,37a3.39,3.39,0,0,1-1.15-.2q-.55-.21-1.38-.6l-.55-.28q-.47-.24-.75-.36a1.71,1.71,0,0,0-.62-.11,1.31,1.31,0,0,0-1.06.54,1.94,1.94,0,0,0-.44,1.31,1.75,1.75,0,0,0,.19.87,2,2,0,0,0,.61.68,8,8,0,0,0,2.51,1.25,9.68,9.68,0,0,0,2.86.45,6.77,6.77,0,0,0,3.89-1.13A7.29,7.29,0,0,0,99,36.21a12.26,12.26,0,0,0,.91-4.89A9.92,9.92,0,0,0,98,24.77,6.72,6.72,0,0,0,92.5,22.47Zm.28,8.28a1.94,1.94,0,0,1-1.56-.64,2.5,2.5,0,0,1-.57-1.74,2.47,2.47,0,0,1,.58-1.72A1.94,1.94,0,0,1,92.78,26a2,2,0,0,1,1.55.66,2.44,2.44,0,0,1,.6,1.71,2.5,2.5,0,0,1-.59,1.73A2,2,0,0,1,92.78,30.75Zm15.35,9.8a5.85,5.85,0,0,0,5-2.33q1.73-2.32,1.72-6.72t-1.74-6.7a6.51,6.51,0,0,0-10,0q-1.72,2.32-1.73,6.7t1.73,6.72A5.84,5.84,0,0,0,108.13,40.55Zm0-3.48a1.79,1.79,0,0,1-1.73-1.3,12.43,12.43,0,0,1-.52-4.27,12.28,12.28,0,0,1,.52-4.26,1.8,1.8,0,0,1,3.45,0,12.28,12.28,0,0,1,.53,4.25,12.37,12.37,0,0,1-.53,4.27A1.78,1.78,0,0,1,108.13,37.07ZM56.82,96.71h-5v-5a2.38,2.38,0,0,0-4-1.68,2.25,2.25,0,0,0-.68,1.68v5H42a2.28,2.28,0,0,0-1.68.68,2.25,2.25,0,0,0-.68,1.68,2.32,2.32,0,0,0,.68,1.7,2.23,2.23,0,0,0,1.68.7h5v5a2.25,2.25,0,0,0,.68,1.68,2.44,2.44,0,0,0,3.38,0,2.31,2.31,0,0,0,.66-1.68v-5h5a2.26,2.26,0,0,0,1.68-.7,2.36,2.36,0,0,0,.68-1.7,2.28,2.28,0,0,0-.68-1.68A2.32,2.32,0,0,0,56.82,96.71ZM46.73,66.34a4,4,0,0,0,2-1.52,4.1,4.1,0,0,0,.71-2.41,4.34,4.34,0,0,0-.76-2.55,4.92,4.92,0,0,0-2.17-1.7,8.3,8.3,0,0,0-3.27-.6,10,10,0,0,0-3,.45,8.48,8.48,0,0,0-2.54,1.25,2.07,2.07,0,0,0-.6.68,2,2,0,0,0-.17.87,2,2,0,0,0,.42,1.31,1.31,1.31,0,0,0,1,.54,1.73,1.73,0,0,0,.63-.11l.75-.36.53-.25a13.31,13.31,0,0,1,1.36-.6A3.76,3.76,0,0,1,43,61.11a2.13,2.13,0,0,1,1.52.51,1.88,1.88,0,0,1,.56,1.44,1.41,1.41,0,0,1-.63,1.28,3.9,3.9,0,0,1-2,.4h-1.1a1.44,1.44,0,0,0-1.18.52,2.07,2.07,0,0,0,0,2.5,1.45,1.45,0,0,0,1.18.53h1.55a3.8,3.8,0,0,1,2.05.42,1.56,1.56,0,0,1,.63,1.4,1.74,1.74,0,0,1-.62,1.5,3.47,3.47,0,0,1-2,.45,4.64,4.64,0,0,1-1.44-.21,11.94,11.94,0,0,1-1.43-.61l-.32-.14L39.53,71a8.3,8.3,0,0,0-.75-.37,1.71,1.71,0,0,0-.62-.11,1.28,1.28,0,0,0-1,.54,2.06,2.06,0,0,0-.43,1.31,1.91,1.91,0,0,0,.18.86,2,2,0,0,0,.6.69,8,8,0,0,0,2.6,1.26,10.79,10.79,0,0,0,3.12.44A9.37,9.37,0,0,0,46.72,75a5.27,5.27,0,0,0,2.34-1.74,4.35,4.35,0,0,0,.82-2.65,4.42,4.42,0,0,0-.83-2.72A4.24,4.24,0,0,0,46.73,66.34Zm11.83,9.3a5.85,5.85,0,0,0,5-2.33q1.72-2.32,1.72-6.72c0-2.92-.57-5.15-1.73-6.7a5.86,5.86,0,0,0-5-2.33,5.85,5.85,0,0,0-5,2.33q-1.73,2.32-1.72,6.7t1.72,6.72A5.85,5.85,0,0,0,58.56,75.64Zm0-3.48a1.77,1.77,0,0,1-1.72-1.3,12.17,12.17,0,0,1-.53-4.27,12.09,12.09,0,0,1,.53-4.27,1.79,1.79,0,0,1,3.44,0,12.28,12.28,0,0,1,.53,4.25,12.41,12.41,0,0,1-.53,4.27A1.78,1.78,0,0,1,58.56,72.16Zm-38.43,45h-5l3.55-3.63a11.74,11.74,0,0,0,2.08-2.81,6.28,6.28,0,0,0,.62-2.79,4.58,4.58,0,0,0-.77-2.61,4.9,4.9,0,0,0-2.16-1.75,8,8,0,0,0-3.25-.61,9.82,9.82,0,0,0-2.89.45,9.53,9.53,0,0,0-2.63,1.25,1.65,1.65,0,0,0-.62.65,2.27,2.27,0,0,0-.16.9,2.1,2.1,0,0,0,.43,1.33,1.26,1.26,0,0,0,1,.57,1.5,1.5,0,0,0,.47-.08,2.83,2.83,0,0,0,.51-.24l.39-.21.5-.25a10.92,10.92,0,0,1,1.41-.61,4.14,4.14,0,0,1,1.34-.21,2,2,0,0,1,1.39.45,1.7,1.7,0,0,1,.49,1.3,4.87,4.87,0,0,1-1.65,3.17L9.91,117a2.71,2.71,0,0,0-.85,2,1.86,1.86,0,0,0,.52,1.36,1.91,1.91,0,0,0,1.43.54h9.12a2.53,2.53,0,0,0,1.64-.45,1.72,1.72,0,0,0,.54-1.4,1.66,1.66,0,0,0-.54-1.37A2.59,2.59,0,0,0,20.13,117.2Zm10.38,3.87a5.84,5.84,0,0,0,5-2.32c1.15-1.55,1.72-3.8,1.72-6.73s-.58-5.15-1.74-6.7a5.83,5.83,0,0,0-5-2.32,5.83,5.83,0,0,0-5,2.32q-1.73,2.33-1.73,6.7c0,2.93.58,5.18,1.73,6.73A5.83,5.83,0,0,0,30.51,121.07Zm0-3.47a1.81,1.81,0,0,1-1.73-1.3,12.53,12.53,0,0,1-.52-4.28,12.36,12.36,0,0,1,.52-4.26,1.8,1.8,0,0,1,3.45,0,12.32,12.32,0,0,1,.53,4.25,12.48,12.48,0,0,1-.53,4.28A1.79,1.79,0,0,1,30.51,117.6Zm45.42.6H73.88V106.35a2.1,2.1,0,0,0-2.23-2.23,4.18,4.18,0,0,0-2.07.63l-4,2.32a1.69,1.69,0,0,0-.88,1.55,2.12,2.12,0,0,0,.5,1.36,1.53,1.53,0,0,0,1.2.62,1.81,1.81,0,0,0,.88-.25l2-1.18v9h-2a2.5,2.5,0,0,0-1.65.45,1.68,1.68,0,0,0-.52,1.35c0,1.23.72,1.85,2.17,1.85h8.68c1.45,0,2.17-.62,2.17-1.85a1.68,1.68,0,0,0-.52-1.35A2.5,2.5,0,0,0,75.93,118.2Zm9.7,3.87a5.84,5.84,0,0,0,5-2.32c1.15-1.55,1.72-3.8,1.72-6.73s-.58-5.15-1.74-6.7a6.53,6.53,0,0,0-10,0q-1.72,2.33-1.73,6.7c0,2.93.58,5.18,1.73,6.73A5.83,5.83,0,0,0,85.63,122.07Zm0-3.47a1.81,1.81,0,0,1-1.73-1.3,12.53,12.53,0,0,1-.52-4.28,12.36,12.36,0,0,1,.52-4.26,1.8,1.8,0,0,1,3.45,0,12.32,12.32,0,0,1,.53,4.25,12.48,12.48,0,0,1-.53,4.28A1.79,1.79,0,0,1,85.63,118.6Zm69.08-22h-5v-5a2.32,2.32,0,0,0-2.36-2.36A2.32,2.32,0,0,0,145,91.57v5h-5A2.32,2.32,0,0,0,137.55,99a2.38,2.38,0,0,0,.68,1.7,2.3,2.3,0,0,0,1.68.7h5v5a2.32,2.32,0,0,0,2.36,2.36,2.27,2.27,0,0,0,1.7-.68,2.34,2.34,0,0,0,.66-1.68v-5h5a2.26,2.26,0,0,0,1.68-.7,2.34,2.34,0,0,0,.68-1.7,2.32,2.32,0,0,0-2.36-2.36ZM143,63.71a4.81,4.81,0,0,0-2.12.46,4,4,0,0,0-1.53,1.26,6.71,6.71,0,0,1,.93-3.26A2.42,2.42,0,0,1,142.31,61a3.43,3.43,0,0,1,1.15.2,14.15,14.15,0,0,1,1.37.6l.55.27c.32.17.57.29.75.37a1.73,1.73,0,0,0,.63.11,1.33,1.33,0,0,0,1.06-.54,2,2,0,0,0,.44-1.31,1.94,1.94,0,0,0-.19-.88,2.33,2.33,0,0,0-.61-.67,8,8,0,0,0-2.52-1.25,9.68,9.68,0,0,0-2.86-.45,6.79,6.79,0,0,0-3.89,1.12,7.25,7.25,0,0,0-2.57,3.22,12.07,12.07,0,0,0-.91,4.88,9.94,9.94,0,0,0,1.92,6.55,6.69,6.69,0,0,0,5.45,2.3,6.45,6.45,0,0,0,3.18-.77,5.59,5.59,0,0,0,2.18-2.16,6.66,6.66,0,0,0,.1-6.1,5.11,5.11,0,0,0-1.88-2A5,5,0,0,0,143,63.71ZM141.81,72a2,2,0,0,1-1.55-.66,2.8,2.8,0,0,1,0-3.44,2,2,0,0,1,1.57-.65,2,2,0,0,1,1.56.64,2.93,2.93,0,0,1,0,3.46A2,2,0,0,1,141.81,72Zm14.65,3.52a5.84,5.84,0,0,0,5-2.32q1.72-2.33,1.72-6.73c0-2.91-.58-5.15-1.74-6.7a6.53,6.53,0,0,0-10,0c-1.15,1.55-1.73,3.79-1.73,6.7s.58,5.18,1.73,6.73A5.83,5.83,0,0,0,156.46,75.53Zm0-3.47a1.79,1.79,0,0,1-1.73-1.3,12.49,12.49,0,0,1-.52-4.28,12.36,12.36,0,0,1,.52-4.26,1.8,1.8,0,0,1,3.45,0,12.36,12.36,0,0,1,.53,4.25,12.44,12.44,0,0,1-.53,4.28A1.78,1.78,0,0,1,156.46,72.06Zm-39.9,39.61a4,4,0,0,0,2-1.51,4.15,4.15,0,0,0,.71-2.42,4.38,4.38,0,0,0-.76-2.55,4.92,4.92,0,0,0-2.17-1.7,8.3,8.3,0,0,0-3.27-.6,10,10,0,0,0-3,.45,8.48,8.48,0,0,0-2.54,1.25,2.18,2.18,0,0,0-.6.68,2,2,0,0,0-.17.87,2.08,2.08,0,0,0,.42,1.32,1.33,1.33,0,0,0,1.05.53,1.54,1.54,0,0,0,.63-.11,7.63,7.63,0,0,0,.75-.36l.53-.25a13.31,13.31,0,0,1,1.36-.6,3.76,3.76,0,0,1,1.31-.23,2.09,2.09,0,0,1,1.52.52,1.85,1.85,0,0,1,.56,1.43,1.4,1.4,0,0,1-.63,1.28,3.79,3.79,0,0,1-2,.4h-1.1a1.44,1.44,0,0,0-1.18.52,2.07,2.07,0,0,0,0,2.5,1.45,1.45,0,0,0,1.18.53h1.55a3.8,3.8,0,0,1,2.05.42,1.57,1.57,0,0,1,.63,1.4,1.74,1.74,0,0,1-.62,1.5,3.47,3.47,0,0,1-2,.45,4.64,4.64,0,0,1-1.44-.21,10.5,10.5,0,0,1-1.43-.61l-.32-.14-.24-.11a5.93,5.93,0,0,0-.75-.36,1.52,1.52,0,0,0-.62-.12,1.28,1.28,0,0,0-1,.54,2.08,2.08,0,0,0-.43,1.31,1.75,1.75,0,0,0,.78,1.55,8.19,8.19,0,0,0,2.6,1.27,11.14,11.14,0,0,0,3.12.43,9.37,9.37,0,0,0,3.54-.61,5.27,5.27,0,0,0,2.34-1.74,4.35,4.35,0,0,0,.82-2.65,4.42,4.42,0,0,0-.83-2.72A4.24,4.24,0,0,0,116.56,111.67Zm11.83,9.3a5.85,5.85,0,0,0,5-2.33q1.73-2.33,1.72-6.72c0-2.92-.57-5.15-1.73-6.7a6.52,6.52,0,0,0-10,0q-1.73,2.32-1.72,6.7t1.72,6.72A5.85,5.85,0,0,0,128.39,121Zm0-3.48a1.77,1.77,0,0,1-1.72-1.3,12.13,12.13,0,0,1-.53-4.27,12,12,0,0,1,.53-4.26,1.79,1.79,0,0,1,3.44,0,12.32,12.32,0,0,1,.53,4.25,12.37,12.37,0,0,1-.53,4.27A1.78,1.78,0,0,1,128.39,117.49Zm43.31-4.82a4.11,4.11,0,0,0,2-1.51,4.23,4.23,0,0,0,.71-2.42,4.45,4.45,0,0,0-.76-2.55,5,5,0,0,0-2.18-1.7,8.28,8.28,0,0,0-3.26-.6,10,10,0,0,0-3,.45,8.25,8.25,0,0,0-2.54,1.25,1.75,1.75,0,0,0-.78,1.55,2,2,0,0,0,.43,1.32,1.3,1.3,0,0,0,1.05.53,1.52,1.52,0,0,0,.62-.11,7.76,7.76,0,0,0,.75-.36l.53-.25a13.31,13.31,0,0,1,1.36-.6,3.8,3.8,0,0,1,1.31-.23,2.13,2.13,0,0,1,1.53.52,1.88,1.88,0,0,1,.55,1.43,1.4,1.4,0,0,1-.63,1.28,3.87,3.87,0,0,1-2,.4h-1.1a1.41,1.41,0,0,0-1.17.52,2,2,0,0,0,0,2.5,1.42,1.42,0,0,0,1.17.53h1.55a3.78,3.78,0,0,1,2,.42,1.57,1.57,0,0,1,.63,1.4,1.76,1.76,0,0,1-.61,1.5,3.49,3.49,0,0,1-2,.45,4.53,4.53,0,0,1-1.43-.21,11.37,11.37,0,0,1-1.44-.61l-.31-.14-.24-.11a7.63,7.63,0,0,0-.75-.36,1.57,1.57,0,0,0-.63-.12,1.31,1.31,0,0,0-1.05.54,2.08,2.08,0,0,0-.42,1.31,2.11,2.11,0,0,0,.17.87,2,2,0,0,0,.6.68,8.29,8.29,0,0,0,2.6,1.27,11.16,11.16,0,0,0,3.13.43,9.37,9.37,0,0,0,3.54-.61,5.3,5.3,0,0,0,2.33-1.74,4.36,4.36,0,0,0,.83-2.65,4.42,4.42,0,0,0-.84-2.72A4.25,4.25,0,0,0,171.7,112.67Zm11.82,9.3a5.84,5.84,0,0,0,5-2.33q1.72-2.33,1.73-6.72t-1.74-6.7a6.52,6.52,0,0,0-10,0q-1.72,2.32-1.72,6.7t1.72,6.72A5.85,5.85,0,0,0,183.52,122Zm0-3.48a1.78,1.78,0,0,1-1.72-1.3,12.37,12.37,0,0,1-.53-4.27,12.23,12.23,0,0,1,.53-4.26,1.8,1.8,0,0,1,3.45,0,12.33,12.33,0,0,1,.52,4.25,12.43,12.43,0,0,1-.52,4.27A1.79,1.79,0,0,1,183.52,118.49Z"/></svg>