<svg id="Layer_1" data-name="Layer 1" xmlns="http://www.w3.org/2000/svg" viewBox="0 0 100 100"><title>l1_2_1</title><path d="M95.57,71.9A17.5,17.5,0,1,1,66,59.24L55.05,43a17.57,17.57,0,0,1-4.61.63,17.3,17.3,0,0,1-4.91-.71L34.32,59.54h0a17.64,17.64,0,1,1-5.84-3.85l10.8-16.09a17.52,17.52,0,1,1,22.08.17L71.94,55.52A17.47,17.47,0,0,1,95.57,71.9Zm-42-11.69,4.32-4.28a2.34,2.34,0,0,0,.72-1.72,2.1,2.1,0,0,0-.72-1.64,2.21,2.21,0,0,0-1.68-.72,2.3,2.3,0,0,0-1.68.72l-4.32,4.32-4.32-4.32a2.33,2.33,0,0,0-1.68-.76,2.1,2.1,0,0,0-1.64.72,2.34,2.34,0,0,0-.72,1.72,2.49,2.49,0,0,0,.68,1.68l4.32,4.28-4.32,4.32a2.32,2.32,0,0,0,0,3.36,2.49,2.49,0,0,0,1.68.68,2.28,2.28,0,0,0,1.68-.68l4.32-4.32,4.32,4.32a2.36,2.36,0,0,0,4-1.68,2.22,2.22,0,0,0-.68-1.68ZM48.75,28.08H48.2v-9a2.13,2.13,0,0,0-.68-1.67,2.35,2.35,0,0,0-1.62-.6,2.59,2.59,0,0,0-1.12.26,2.38,2.38,0,0,0-.88.76L36.75,28a2.79,2.79,0,0,0-.55,1.65,1.84,1.84,0,0,0,1.95,1.93h5.57v.85A2.06,2.06,0,0,0,46,34.7a2.31,2.31,0,0,0,1.62-.57,2.2,2.2,0,0,0,.63-1.7v-.85h.55c1.45,0,2.17-.59,2.17-1.78S50.2,28.08,48.75,28.08Zm-8,0,3-4.33v4.33Zm17.65,6.7a5.84,5.84,0,0,0,5-2.33q1.73-2.33,1.73-6.72T63.36,19a5.86,5.86,0,0,0-5-2.33,5.85,5.85,0,0,0-5,2.33q-1.73,2.32-1.72,6.7t1.72,6.72A5.85,5.85,0,0,0,58.37,34.78Zm0-3.48A1.78,1.78,0,0,1,56.65,30a12.37,12.37,0,0,1-.53-4.27,12.23,12.23,0,0,1,.53-4.26,1.8,1.8,0,0,1,3.45,0,12.33,12.33,0,0,1,.52,4.25A12.43,12.43,0,0,1,60.1,30,1.79,1.79,0,0,1,58.37,31.3ZM25.77,72.91a3.73,3.73,0,0,0,2-1.47,4.33,4.33,0,0,0,.72-2.5,4.14,4.14,0,0,0-1.74-3.52A7.86,7.86,0,0,0,22,64.14a7.84,7.84,0,0,0-4.72,1.28,4.13,4.13,0,0,0-1.75,3.52,4.21,4.21,0,0,0,.7,2.43,4,4,0,0,0,2,1.54,4.15,4.15,0,0,0-2.35,1.49A4.4,4.4,0,0,0,15,77.14a4.31,4.31,0,0,0,1.86,3.71A8.61,8.61,0,0,0,22,82.19a8.59,8.59,0,0,0,5.09-1.34,4.31,4.31,0,0,0,1.86-3.71,4.36,4.36,0,0,0-.81-2.69A4.31,4.31,0,0,0,25.77,72.91ZM22,78.71c-1.81,0-2.72-.65-2.72-1.95s.91-2,2.72-2,2.73.65,2.73,2S23.79,78.71,22,78.71Zm0-11.1a2.7,2.7,0,0,1,1.68.44,1.71,1.71,0,0,1,.55,1.41,1.77,1.77,0,0,1-.55,1.43,2.63,2.63,0,0,1-1.68.45,2.58,2.58,0,0,1-1.67-.45,1.74,1.74,0,0,1-.55-1.43,1.68,1.68,0,0,1,.55-1.41A2.65,2.65,0,0,1,22,67.61Zm57.19,2.85a6.22,6.22,0,0,0-2.47.45V67.84h5.4c1.45,0,2.17-.59,2.17-1.75s-.72-1.73-2.17-1.73H74.34a1.92,1.92,0,0,0-2.13,2.15v6.78a1.34,1.34,0,0,0,.48,1.08,1.71,1.71,0,0,0,1.17.42A2.34,2.34,0,0,0,75,74.51a10.36,10.36,0,0,1,1.44-.45,7,7,0,0,1,1.36-.12,2.87,2.87,0,0,1,1.95.62,2.22,2.22,0,0,1,.7,1.75,2.16,2.16,0,0,1-.68,1.76,3.16,3.16,0,0,1-2.07.57,4.18,4.18,0,0,1-1.39-.23,14.76,14.76,0,0,1-1.41-.6l-.5-.25a6.14,6.14,0,0,0-.75-.37,1.67,1.67,0,0,0-.63-.1,1.33,1.33,0,0,0-1.05.53,2.08,2.08,0,0,0-.42,1.32,1.79,1.79,0,0,0,.19.86,2.27,2.27,0,0,0,.58.69,8.32,8.32,0,0,0,2.57,1.25,10.39,10.39,0,0,0,3,.45,8.12,8.12,0,0,0,3.58-.75,5.66,5.66,0,0,0,2.4-2.13,5.85,5.85,0,0,0,.85-3.17,6.1,6.1,0,0,0-.71-3,5.21,5.21,0,0,0-2-2A5.81,5.81,0,0,0,79.16,70.46Z"/></svg>