<svg id="Layer_1" data-name="Layer 1" xmlns="http://www.w3.org/2000/svg" viewBox="0 0 100 100"><title>l1_2_1</title><path d="M94.67,71.28A17.5,17.5,0,1,1,65.11,58.62l-11-16.27a17.26,17.26,0,0,1-9.52-.08L33.42,58.92h0a17.6,17.6,0,1,1-5.83-3.85L38.39,39a17.51,17.51,0,1,1,22.07.17L71,54.9A17.47,17.47,0,0,1,94.67,71.28Zm-42-11.69L57,55.31a2.31,2.31,0,0,0,.73-1.72A2.07,2.07,0,0,0,57,52a2.2,2.2,0,0,0-1.67-.72,2.29,2.29,0,0,0-1.68.72l-4.32,4.32L45,52a2.29,2.29,0,0,0-1.67-.76,2.08,2.08,0,0,0-1.64.72A2.31,2.31,0,0,0,41,53.63a2.46,2.46,0,0,0,.69,1.68L46,59.59l-4.31,4.32a2.3,2.3,0,0,0,0,3.36,2.45,2.45,0,0,0,1.68.68A2.28,2.28,0,0,0,45,67.27L49.34,63l4.32,4.32a2.31,2.31,0,0,0,3.35,0,2.25,2.25,0,0,0,.69-1.68A2.19,2.19,0,0,0,57,63.91ZM46.76,30.28h-2V18.43a2.16,2.16,0,0,0-.61-1.62,2.2,2.2,0,0,0-1.61-.6,4.32,4.32,0,0,0-2.08.62l-4,2.33a1.69,1.69,0,0,0-.87,1.55,2.12,2.12,0,0,0,.5,1.36,1.49,1.49,0,0,0,1.2.61,1.65,1.65,0,0,0,.87-.25l2-1.17v9h-2a2.5,2.5,0,0,0-1.65.45,1.68,1.68,0,0,0-.53,1.35c0,1.24.73,1.85,2.18,1.85h8.67c1.45,0,2.18-.61,2.18-1.85a1.68,1.68,0,0,0-.53-1.35A2.5,2.5,0,0,0,46.76,30.28Zm14.35,0h-5l3.55-3.62a12,12,0,0,0,2.09-2.81,6.48,6.48,0,0,0,.61-2.79,4.53,4.53,0,0,0-.76-2.61,4.81,4.81,0,0,0-2.17-1.75,8,8,0,0,0-3.25-.62,10.19,10.19,0,0,0-5.52,1.7,1.61,1.61,0,0,0-.61.65,2.16,2.16,0,0,0-.17.9,2.11,2.11,0,0,0,.43,1.34,1.25,1.25,0,0,0,1.05.56,1.49,1.49,0,0,0,.47-.07,3.24,3.24,0,0,0,.52-.24l.38-.21.5-.25a11.62,11.62,0,0,1,1.42-.61A3.79,3.79,0,0,1,56,19.63a2,2,0,0,1,1.39.45,1.67,1.67,0,0,1,.49,1.3,4.87,4.87,0,0,1-1.65,3.18l-5.3,5.52A2.75,2.75,0,0,0,50,32a1.89,1.89,0,0,0,.52,1.37,1.94,1.94,0,0,0,1.43.53h9.12a2.51,2.51,0,0,0,1.64-.45,1.71,1.71,0,0,0,.54-1.4,1.65,1.65,0,0,0-.54-1.36A2.57,2.57,0,0,0,61.11,30.28ZM22.41,68.77a4.76,4.76,0,0,0-2.11.46,4,4,0,0,0-1.54,1.26,6.6,6.6,0,0,1,.94-3.26,2.37,2.37,0,0,1,2.06-1.16,3.2,3.2,0,0,1,1.15.2,13.18,13.18,0,0,1,1.38.6l.55.27a8.3,8.3,0,0,0,.75.37,1.71,1.71,0,0,0,.62.11,1.31,1.31,0,0,0,1.06-.54,2,2,0,0,0,.44-1.31,1.82,1.82,0,0,0-.19-.88,2.09,2.09,0,0,0-.61-.67A7.87,7.87,0,0,0,24.4,63a9.73,9.73,0,0,0-2.86-.45,6.76,6.76,0,0,0-3.89,1.12,7.29,7.29,0,0,0-2.58,3.21,12.16,12.16,0,0,0-.91,4.89q0,4.26,1.93,6.55a6.69,6.69,0,0,0,5.45,2.3,6.5,6.5,0,0,0,3.17-.77,5.64,5.64,0,0,0,2.19-2.17,6.66,6.66,0,0,0,.1-6.1,5.17,5.17,0,0,0-1.89-2A5,5,0,0,0,22.41,68.77Zm-1.15,8.3a2,2,0,0,1-1.55-.67,2.44,2.44,0,0,1-.6-1.71A2.48,2.48,0,0,1,19.7,73a2.22,2.22,0,0,1,3.12,0,2.95,2.95,0,0,1,0,3.47A2,2,0,0,1,21.26,77.07Zm59.43-5.16a4,4,0,0,0,2-1.51A4.13,4.13,0,0,0,83.39,68a4.34,4.34,0,0,0-.77-2.55,4.79,4.79,0,0,0-2.17-1.7,8.28,8.28,0,0,0-3.26-.6,10.09,10.09,0,0,0-3,.45,8.09,8.09,0,0,0-2.53,1.25,1.84,1.84,0,0,0-.6.67,1.94,1.94,0,0,0-.18.88,2,2,0,0,0,.43,1.31,1.28,1.28,0,0,0,1,.54,1.52,1.52,0,0,0,.62-.12,5.93,5.93,0,0,0,.75-.36l.53-.25a13.31,13.31,0,0,1,1.36-.6A3.79,3.79,0,0,1,77,66.69a2.18,2.18,0,0,1,1.53.51A1.89,1.89,0,0,1,79,68.64a1.39,1.39,0,0,1-.63,1.27,3.77,3.77,0,0,1-2,.4h-1.1a1.42,1.42,0,0,0-1.17.53,2,2,0,0,0,0,2.5,1.41,1.41,0,0,0,1.17.52h1.55a3.68,3.68,0,0,1,2,.43,1.56,1.56,0,0,1,.63,1.4,1.74,1.74,0,0,1-.62,1.5,3.45,3.45,0,0,1-2,.45,4.35,4.35,0,0,1-1.44-.22A10.5,10.5,0,0,1,74,76.81l-.32-.14-.23-.11c-.32-.16-.57-.29-.75-.36a1.61,1.61,0,0,0-.63-.11,1.31,1.31,0,0,0-1,.53,2.08,2.08,0,0,0-.42,1.32,2.06,2.06,0,0,0,.17.86,2.1,2.1,0,0,0,.6.69A8,8,0,0,0,74,80.75a11.17,11.17,0,0,0,3.13.44,9.28,9.28,0,0,0,3.53-.62A5.18,5.18,0,0,0,83,78.84a4.38,4.38,0,0,0,.83-2.65A4.43,4.43,0,0,0,83,73.46,4.25,4.25,0,0,0,80.69,71.91Z"/></svg>