<svg id="Layer_1" data-name="Layer 1" xmlns="http://www.w3.org/2000/svg" viewBox="0 0 100 100"><title>l1_2_1</title><path d="M95.71,72.28A17.5,17.5,0,1,1,66.15,59.62l-11-16.27a17.57,17.57,0,0,1-4.61.63,17.3,17.3,0,0,1-4.91-.71L34.46,59.92h0a17.64,17.64,0,1,1-5.84-3.85L39.42,40a17.52,17.52,0,1,1,22.08.17L72.08,55.9A17.47,17.47,0,0,1,95.71,72.28Zm-42-11.69,4.32-4.28a2.34,2.34,0,0,0,.72-1.72A2.11,2.11,0,0,0,58.05,53a2.21,2.21,0,0,0-1.68-.72,2.3,2.3,0,0,0-1.68.72l-4.32,4.32L46.05,53a2.37,2.37,0,0,0-1.68-.76,2.1,2.1,0,0,0-1.64.72A2.36,2.36,0,0,0,42,54.63a2.45,2.45,0,0,0,.68,1.68L47,60.59l-4.32,4.32a2.32,2.32,0,0,0,0,3.36,2.44,2.44,0,0,0,1.68.68,2.25,2.25,0,0,0,1.68-.68L50.37,64l4.32,4.32a2.36,2.36,0,0,0,4-1.68,2.22,2.22,0,0,0-.68-1.68ZM46.31,25.86a3.8,3.8,0,0,0,2-1.48,4.3,4.3,0,0,0,.72-2.5,4.14,4.14,0,0,0-1.74-3.51,7.8,7.8,0,0,0-4.74-1.29,7.77,7.77,0,0,0-4.72,1.29A4.12,4.12,0,0,0,36,21.88a4.22,4.22,0,0,0,.7,2.44,4.06,4.06,0,0,0,2,1.54,4.15,4.15,0,0,0-2.35,1.49,4.37,4.37,0,0,0-.83,2.73,4.33,4.33,0,0,0,1.86,3.72,8.61,8.61,0,0,0,5.09,1.33A8.59,8.59,0,0,0,47.6,33.8a4.33,4.33,0,0,0,1.86-3.72,4.35,4.35,0,0,0-.81-2.68A4.31,4.31,0,0,0,46.31,25.86Zm-3.8,5.8c-1.81,0-2.72-.65-2.72-1.95s.91-1.95,2.72-1.95,2.73.65,2.73,1.95S44.33,31.66,42.51,31.66Zm0-11.1a2.63,2.63,0,0,1,1.68.44,1.71,1.71,0,0,1,.55,1.41,1.75,1.75,0,0,1-.55,1.42,2.63,2.63,0,0,1-1.68.45,2.58,2.58,0,0,1-1.67-.45,1.71,1.71,0,0,1-.55-1.42A1.68,1.68,0,0,1,40.84,21,2.58,2.58,0,0,1,42.51,20.56Zm20.3,10.72H60.76V19.43a2.16,2.16,0,0,0-.61-1.62,2.21,2.21,0,0,0-1.61-.6,4.32,4.32,0,0,0-2.08.62l-4,2.33a1.7,1.7,0,0,0-.87,1.55,2.06,2.06,0,0,0,.5,1.36,1.49,1.49,0,0,0,1.2.61,1.65,1.65,0,0,0,.87-.25l2-1.17v9h-2a2.5,2.5,0,0,0-1.65.45A1.68,1.68,0,0,0,52,33.08c0,1.24.73,1.85,2.18,1.85h8.67c1.45,0,2.18-.61,2.18-1.85a1.68,1.68,0,0,0-.53-1.35A2.5,2.5,0,0,0,62.81,31.28ZM20.32,63.52a6.5,6.5,0,0,0-3.17.77A5.51,5.51,0,0,0,15,66.46a6.17,6.17,0,0,0-.79,3.13,6.31,6.31,0,0,0,.69,3,5.27,5.27,0,0,0,1.89,2,5.06,5.06,0,0,0,2.7.73,4.79,4.79,0,0,0,2.11-.46,4.08,4.08,0,0,0,1.54-1.26,6.67,6.67,0,0,1-.94,3.26A2.38,2.38,0,0,1,20.1,78a3.16,3.16,0,0,1-1.15-.2,13.18,13.18,0,0,1-1.38-.6L17,77a7.63,7.63,0,0,0-.75-.36,1.52,1.52,0,0,0-.62-.12,1.33,1.33,0,0,0-1.07.54,2,2,0,0,0-.43,1.31,1.94,1.94,0,0,0,.18.88,2.13,2.13,0,0,0,.62.67,7.77,7.77,0,0,0,2.51,1.25,9.68,9.68,0,0,0,2.86.45,6.79,6.79,0,0,0,3.89-1.12,7.27,7.27,0,0,0,2.57-3.21,12.15,12.15,0,0,0,.92-4.89,9.94,9.94,0,0,0-1.93-6.55A6.69,6.69,0,0,0,20.32,63.52Zm.28,8.27A2,2,0,0,1,19,71.16a2.58,2.58,0,0,1-.56-1.74,2.5,2.5,0,0,1,.58-1.73,2.15,2.15,0,0,1,3.1,0,2.44,2.44,0,0,1,.6,1.71,2.48,2.48,0,0,1-.59,1.72A2,2,0,0,1,20.6,71.79Zm56.85-8.27a6.5,6.5,0,0,0-3.17.77,5.68,5.68,0,0,0-2.19,2.16,6.34,6.34,0,0,0-.79,3.14,6.24,6.24,0,0,0,.69,3,5.13,5.13,0,0,0,1.89,2,5,5,0,0,0,2.7.74,4.76,4.76,0,0,0,2.11-.46,4,4,0,0,0,1.54-1.26,6.6,6.6,0,0,1-.94,3.26A2.37,2.37,0,0,1,77.23,78a3.2,3.2,0,0,1-1.15-.2,13.18,13.18,0,0,1-1.38-.6L74.15,77a8.3,8.3,0,0,0-.75-.37,1.71,1.71,0,0,0-.62-.11,1.31,1.31,0,0,0-1.06.54,2,2,0,0,0-.44,1.31,1.82,1.82,0,0,0,.19.88,2.09,2.09,0,0,0,.61.67,7.87,7.87,0,0,0,2.51,1.25,9.73,9.73,0,0,0,2.86.45,6.76,6.76,0,0,0,3.89-1.12,7.29,7.29,0,0,0,2.58-3.21,12.33,12.33,0,0,0,.91-4.89q0-4.26-1.93-6.55A6.69,6.69,0,0,0,77.45,63.52Zm.28,8.27a2,2,0,0,1-1.56-.63,2.91,2.91,0,0,1,0-3.47A2,2,0,0,1,77.73,67a2,2,0,0,1,1.55.66,2.78,2.78,0,0,1,0,3.44A2,2,0,0,1,77.73,71.79Z"/></svg>