<svg id="Layer_1" data-name="Layer 1" xmlns="http://www.w3.org/2000/svg" viewBox="0 0 100 100"><title>l1_2_1</title><path d="M94.57,74.71A17.5,17.5,0,1,1,65,62.05l-11-16.27a17.57,17.57,0,0,1-4.61.63,17.3,17.3,0,0,1-4.91-.71L33.32,62.35h0a17.64,17.64,0,1,1-5.84-3.85L38.28,42.4a17.52,17.52,0,1,1,22.08.17L70.94,58.33A17.47,17.47,0,0,1,94.57,74.71ZM52.59,63l4.32-4.28A2.34,2.34,0,0,0,57.63,57a2.11,2.11,0,0,0-.72-1.64,2.21,2.21,0,0,0-1.68-.72,2.3,2.3,0,0,0-1.68.72L49.23,59.7l-4.32-4.32a2.37,2.37,0,0,0-1.68-.76,2.1,2.1,0,0,0-1.64.72,2.34,2.34,0,0,0-.72,1.72,2.45,2.45,0,0,0,.68,1.68L45.87,63l-4.32,4.32a2.32,2.32,0,0,0,0,3.36,2.44,2.44,0,0,0,1.68.68,2.25,2.25,0,0,0,1.68-.68l4.32-4.32,4.32,4.32a2.36,2.36,0,0,0,4-1.68,2.22,2.22,0,0,0-.68-1.68ZM46,33.71H41l3.55-3.62a11.55,11.55,0,0,0,2.09-2.81,6.33,6.33,0,0,0,.61-2.79,4.53,4.53,0,0,0-.76-2.61,4.83,4.83,0,0,0-2.16-1.75,8,8,0,0,0-3.25-.62,9.82,9.82,0,0,0-2.89.45,10,10,0,0,0-2.64,1.25,1.68,1.68,0,0,0-.61.65,2.44,2.44,0,0,0,.26,2.24,1.28,1.28,0,0,0,1,.56,1.51,1.51,0,0,0,.48-.07,2.83,2.83,0,0,0,.51-.24l.39-.21.5-.25a10.92,10.92,0,0,1,1.41-.61,3.88,3.88,0,0,1,1.34-.22,2,2,0,0,1,1.39.45,1.71,1.71,0,0,1,.48,1.3A4.87,4.87,0,0,1,41.08,28l-5.3,5.52a2.79,2.79,0,0,0-.85,2,1.89,1.89,0,0,0,.53,1.37,1.92,1.92,0,0,0,1.43.53H46a2.53,2.53,0,0,0,1.64-.45,1.71,1.71,0,0,0,.53-1.4,1.65,1.65,0,0,0-.53-1.36A2.59,2.59,0,0,0,46,33.71Zm15.75-2.82h-.55v-9a2.15,2.15,0,0,0-.67-1.67,2.38,2.38,0,0,0-1.63-.6,2.58,2.58,0,0,0-1.11.26,2.34,2.34,0,0,0-.89.76l-7.15,10.2a2.79,2.79,0,0,0-.55,1.65,2,2,0,0,0,.52,1.38,1.93,1.93,0,0,0,1.43.55h5.57v.85a2.21,2.21,0,0,0,.62,1.7,2.26,2.26,0,0,0,1.61.57,2.33,2.33,0,0,0,1.63-.57,2.21,2.21,0,0,0,.62-1.7v-.85h.55c1.45,0,2.17-.59,2.17-1.78S63.21,30.89,61.76,30.89Zm-8,0,3-4.33v4.33ZM22.31,72.2a4.84,4.84,0,0,0-2.12.46,4,4,0,0,0-1.53,1.26,6.71,6.71,0,0,1,.93-3.26,2.42,2.42,0,0,1,2.07-1.16,3.2,3.2,0,0,1,1.15.2,14.15,14.15,0,0,1,1.37.6l.55.27c.32.17.57.29.75.37a1.73,1.73,0,0,0,.63.11,1.33,1.33,0,0,0,1.06-.54,2,2,0,0,0,.44-1.31,1.94,1.94,0,0,0-.19-.88,2.21,2.21,0,0,0-.61-.67,7.82,7.82,0,0,0-2.52-1.25A9.68,9.68,0,0,0,21.43,66a6.79,6.79,0,0,0-3.89,1.12A7.25,7.25,0,0,0,15,70.29a12.07,12.07,0,0,0-.91,4.88A9.94,9.94,0,0,0,16,81.72,6.69,6.69,0,0,0,21.43,84a6.56,6.56,0,0,0,3.18-.77,5.59,5.59,0,0,0,2.18-2.16,6.66,6.66,0,0,0,.1-6.1,5.11,5.11,0,0,0-1.88-2A5,5,0,0,0,22.31,72.2Zm-1.15,8.3a2,2,0,0,1-1.55-.66,2.8,2.8,0,0,1,0-3.44,2,2,0,0,1,1.57-.65,2,2,0,0,1,1.56.64,2.93,2.93,0,0,1,0,3.46A2,2,0,0,1,21.16,80.5Zm61.15-3.18h-.55v-9a2.13,2.13,0,0,0-.67-1.68,2.35,2.35,0,0,0-1.62-.6,2.59,2.59,0,0,0-1.12.26,2.25,2.25,0,0,0-.88.77l-7.16,10.2a2.82,2.82,0,0,0-.55,1.65,1.89,1.89,0,0,0,.53,1.37,1.86,1.86,0,0,0,1.43.55h5.57v.85a2.21,2.21,0,0,0,.61,1.7,2.24,2.24,0,0,0,1.61.58,2.29,2.29,0,0,0,1.63-.58,2.18,2.18,0,0,0,.62-1.7v-.85h.55c1.45,0,2.18-.59,2.18-1.77S83.76,77.32,82.31,77.32Zm-8,0,3-4.32v4.32Z"/></svg>