<svg id="Layer_1" data-name="Layer 1" xmlns="http://www.w3.org/2000/svg" viewBox="0 0 189.03 115.89"><title>l1_2_1</title><path d="M189,98.29a17.5,17.5,0,1,1-29.56-12.66l-11-16.28a17.13,17.13,0,0,1-9.52-.07L127.78,85.92h0a17.53,17.53,0,1,1-5.84-3.86L132.75,66a17.48,17.48,0,0,1-2.11-24.89L110,27.39a17.5,17.5,0,0,1-28.87,0v0L59.66,41.66a17.47,17.47,0,0,1-2.74,24.59L67.51,82a17.52,17.52,0,1,1-5.94,3.72l-11-16.27a17.22,17.22,0,0,1-9.51-.08L29.89,86h0a17.6,17.6,0,1,1-5.83-3.85l10.8-16.09a17.49,17.49,0,0,1,19.29-29L78.38,20.73a17.25,17.25,0,0,1-.31-3.23,17.5,17.5,0,0,1,35,0,17,17,0,0,1-.31,3.21q11.83,8,23.65,16a17.48,17.48,0,0,1,18.41,29.46L165.4,81.91A17.47,17.47,0,0,1,189,98.29ZM98.9,54l5.4-5.35a2.94,2.94,0,0,0,.9-2.15,2.62,2.62,0,0,0-.9-2,2.78,2.78,0,0,0-2.1-.9,2.88,2.88,0,0,0-2.1.9l-5.4,5.4-5.4-5.4a2.93,2.93,0,0,0-2.1-1,2.6,2.6,0,0,0-2,.9,2.94,2.94,0,0,0-.9,2.15,3.05,3.05,0,0,0,.85,2.1L90.5,54l-5.4,5.4a2.9,2.9,0,0,0,0,4.2,3.05,3.05,0,0,0,2.1.85,2.85,2.85,0,0,0,2.1-.85l5.4-5.4,5.4,5.4a3,3,0,0,0,5.05-2.1,2.76,2.76,0,0,0-.85-2.1ZM49.16,85.7l4.32-4.28a2.34,2.34,0,0,0,.72-1.72,2.11,2.11,0,0,0-.72-1.64,2.24,2.24,0,0,0-1.68-.72,2.3,2.3,0,0,0-1.68.72L45.8,82.38l-4.32-4.32a2.37,2.37,0,0,0-1.68-.76,2.08,2.08,0,0,0-1.64.72,2.36,2.36,0,0,0-.72,1.72,2.41,2.41,0,0,0,.68,1.68l4.32,4.28L38.12,90a2.32,2.32,0,0,0,0,3.36,2.41,2.41,0,0,0,1.68.68,2.28,2.28,0,0,0,1.68-.68l4.32-4.32,4.32,4.32a2.36,2.36,0,0,0,4-1.68A2.22,2.22,0,0,0,53.48,90ZM43.81,44.19a6.39,6.39,0,0,0-3.17.78,5.68,5.68,0,0,0-2.19,2.16,6.31,6.31,0,0,0-.79,3.14,6.24,6.24,0,0,0,.69,3,5.13,5.13,0,0,0,1.89,2.05,5.07,5.07,0,0,0,2.7.74,4.76,4.76,0,0,0,2.11-.46,3.94,3.94,0,0,0,1.54-1.27,6.64,6.64,0,0,1-.94,3.27,2.39,2.39,0,0,1-2.06,1.16,3.39,3.39,0,0,1-1.15-.2,13.18,13.18,0,0,1-1.38-.6l-.55-.28q-.46-.24-.75-.36a1.71,1.71,0,0,0-.62-.11,1.31,1.31,0,0,0-1.06.54A2,2,0,0,0,37.64,59a1.75,1.75,0,0,0,.19.87,2.11,2.11,0,0,0,.61.68A8.08,8.08,0,0,0,41,61.82a9.73,9.73,0,0,0,2.86.45,6.77,6.77,0,0,0,3.89-1.13,7.29,7.29,0,0,0,2.58-3.21A12.26,12.26,0,0,0,51.19,53a9.92,9.92,0,0,0-1.93-6.55A6.72,6.72,0,0,0,43.81,44.19Zm.28,8.28a1.94,1.94,0,0,1-1.56-.64,2.89,2.89,0,0,1,0-3.46,2,2,0,0,1,1.55-.65,2,2,0,0,1,1.55.66,2.44,2.44,0,0,1,.6,1.71,2.49,2.49,0,0,1-.59,1.73A2,2,0,0,1,44.09,52.47ZM92.81,22.92h-2V11.07a2.16,2.16,0,0,0-.62-1.62,2.2,2.2,0,0,0-1.61-.6,4.26,4.26,0,0,0-2.07.62l-4,2.33a1.69,1.69,0,0,0-.88,1.55,2.12,2.12,0,0,0,.5,1.36,1.49,1.49,0,0,0,1.2.61,1.71,1.71,0,0,0,.88-.25l2-1.17v9h-2a2.5,2.5,0,0,0-1.65.45A1.68,1.68,0,0,0,82,24.72c0,1.24.72,1.85,2.17,1.85h8.68c1.45,0,2.17-.61,2.17-1.85a1.68,1.68,0,0,0-.52-1.35A2.5,2.5,0,0,0,92.81,22.92Zm13.5-5.42a3.78,3.78,0,0,0,2-1.48,4.37,4.37,0,0,0,.71-2.5A4.14,4.14,0,0,0,107.24,10a9.32,9.32,0,0,0-9.46,0A4.12,4.12,0,0,0,96,13.52a4.22,4.22,0,0,0,.7,2.44,4.11,4.11,0,0,0,2,1.54A4.15,4.15,0,0,0,96.38,19a4.37,4.37,0,0,0-.82,2.73,4.32,4.32,0,0,0,1.86,3.72,10.39,10.39,0,0,0,10.17,0,4.31,4.31,0,0,0,1.87-3.72,4.14,4.14,0,0,0-3.15-4.22Zm-3.8,5.8q-2.73,0-2.73-1.95t2.73-2c1.81,0,2.72.65,2.72,2S104.32,23.3,102.51,23.3Zm0-11.1a2.6,2.6,0,0,1,1.67.44,1.68,1.68,0,0,1,.55,1.41,1.71,1.71,0,0,1-.55,1.42,2.6,2.6,0,0,1-1.67.45,2.63,2.63,0,0,1-1.68-.45,1.71,1.71,0,0,1-.55-1.42,1.68,1.68,0,0,1,.55-1.41A2.63,2.63,0,0,1,102.51,12.2Zm-83,86.2a4,4,0,0,0,2-1.51,4.11,4.11,0,0,0,.72-2.41,4.34,4.34,0,0,0-.77-2.55,4.86,4.86,0,0,0-2.17-1.7,8.28,8.28,0,0,0-3.26-.6,10,10,0,0,0-3,.45,8.25,8.25,0,0,0-2.54,1.25,1.72,1.72,0,0,0-.78,1.55,2,2,0,0,0,.43,1.31,1.28,1.28,0,0,0,1.05.54,1.71,1.71,0,0,0,.62-.11,8.3,8.3,0,0,0,.75-.37l.53-.25a13.31,13.31,0,0,1,1.36-.6,3.79,3.79,0,0,1,1.31-.22,2.18,2.18,0,0,1,1.53.51,1.89,1.89,0,0,1,.55,1.44,1.39,1.39,0,0,1-.63,1.27,3.77,3.77,0,0,1-2,.4h-1.1a1.42,1.42,0,0,0-1.17.53,2,2,0,0,0,0,2.5,1.41,1.41,0,0,0,1.17.52h1.55a3.77,3.77,0,0,1,2,.43,1.56,1.56,0,0,1,.63,1.4,1.74,1.74,0,0,1-.62,1.5,3.43,3.43,0,0,1-2,.45,4.53,4.53,0,0,1-1.43-.21,11.56,11.56,0,0,1-1.44-.62l-.31-.13a2.65,2.65,0,0,1-.24-.12l-.75-.36a1.77,1.77,0,0,0-.63-.11,1.31,1.31,0,0,0-1.05.54,2,2,0,0,0-.42,1.31,2.06,2.06,0,0,0,.17.86,2.1,2.1,0,0,0,.6.69,8.07,8.07,0,0,0,2.6,1.26,11.17,11.17,0,0,0,3.13.44,9.48,9.48,0,0,0,3.53-.61,5.27,5.27,0,0,0,2.34-1.74,4.36,4.36,0,0,0,.83-2.65,4.43,4.43,0,0,0-.84-2.73A4.3,4.3,0,0,0,19.55,98.4Zm57.13,0a4,4,0,0,0,2-1.51,4.17,4.17,0,0,0,.71-2.41,4.34,4.34,0,0,0-.76-2.55,4.88,4.88,0,0,0-2.18-1.7,8.28,8.28,0,0,0-3.26-.6,10,10,0,0,0-3,.45,8.37,8.37,0,0,0-2.54,1.25,2.15,2.15,0,0,0-.6.67,2,2,0,0,0-.17.88,2.06,2.06,0,0,0,.42,1.31,1.28,1.28,0,0,0,1,.54,1.81,1.81,0,0,0,.63-.11c.18-.08.43-.2.75-.37l.52-.25a13.31,13.31,0,0,1,1.36-.6A3.81,3.81,0,0,1,73,93.18a2.15,2.15,0,0,1,1.52.51A1.85,1.85,0,0,1,75,95.13a1.4,1.4,0,0,1-.62,1.27,3.82,3.82,0,0,1-2,.4h-1.1a1.44,1.44,0,0,0-1.18.53,2.07,2.07,0,0,0,0,2.5,1.43,1.43,0,0,0,1.18.52h1.55a3.7,3.7,0,0,1,2,.43,1.58,1.58,0,0,1,.62,1.4,1.73,1.73,0,0,1-.61,1.5,3.47,3.47,0,0,1-2,.45,4.55,4.55,0,0,1-1.44-.21A11.56,11.56,0,0,1,70,103.3l-.31-.13-.24-.12-.75-.36a1.71,1.71,0,0,0-.62-.11,1.28,1.28,0,0,0-1,.54,2,2,0,0,0-.43,1.31,1.91,1.91,0,0,0,.18.86,1.89,1.89,0,0,0,.6.69,8,8,0,0,0,2.6,1.26,11.15,11.15,0,0,0,3.12.44,9.57,9.57,0,0,0,3.54-.61A5.27,5.27,0,0,0,79,105.33a4.37,4.37,0,0,0,.82-2.65A4.43,4.43,0,0,0,79,100,4.3,4.3,0,0,0,76.68,98.4Zm70.37-12.8,4.32-4.28a2.34,2.34,0,0,0,.72-1.72,2.1,2.1,0,0,0-.72-1.64,2.21,2.21,0,0,0-1.68-.72A2.3,2.3,0,0,0,148,78l-4.32,4.32L139.37,78a2.3,2.3,0,0,0-1.68-.76,2.11,2.11,0,0,0-1.64.72,2.34,2.34,0,0,0-.72,1.72,2.49,2.49,0,0,0,.68,1.68l4.32,4.28L136,89.92a2.32,2.32,0,0,0,0,3.36,2.49,2.49,0,0,0,1.68.68,2.28,2.28,0,0,0,1.68-.68L143.69,89,148,93.28a2.32,2.32,0,0,0,3.36,0,2.25,2.25,0,0,0,.68-1.68,2.19,2.19,0,0,0-.68-1.68ZM148,58.29h-5l3.55-3.62a11.77,11.77,0,0,0,2.08-2.82,6.27,6.27,0,0,0,.62-2.78,4.59,4.59,0,0,0-.77-2.62,5,5,0,0,0-2.16-1.75,8.16,8.16,0,0,0-3.25-.61,10.13,10.13,0,0,0-5.52,1.7,1.72,1.72,0,0,0-.62.65,2.3,2.3,0,0,0-.16.9,2.13,2.13,0,0,0,.43,1.34,1.28,1.28,0,0,0,1,.56,1.49,1.49,0,0,0,.47-.07,2.83,2.83,0,0,0,.51-.24l.39-.21.5-.25a13.67,13.67,0,0,1,1.41-.62,4.14,4.14,0,0,1,1.34-.21,2,2,0,0,1,1.39.45,1.71,1.71,0,0,1,.49,1.3,4.87,4.87,0,0,1-1.65,3.18l-5.3,5.52A2.73,2.73,0,0,0,136.9,60a1.85,1.85,0,0,0,.52,1.36,1.91,1.91,0,0,0,1.43.54H148a2.53,2.53,0,0,0,1.64-.45,1.71,1.71,0,0,0,.54-1.4,1.65,1.65,0,0,0-.54-1.36A2.59,2.59,0,0,0,148,58.29Zm-28.4,45.44h-2V91.88a2.08,2.08,0,0,0-2.23-2.23,4.18,4.18,0,0,0-2.07.63l-4,2.32a1.69,1.69,0,0,0-.88,1.55,2.1,2.1,0,0,0,.5,1.36,1.53,1.53,0,0,0,1.2.62,1.81,1.81,0,0,0,.88-.25l2-1.18v9h-2a2.5,2.5,0,0,0-1.65.45,1.68,1.68,0,0,0-.52,1.35c0,1.23.72,1.85,2.17,1.85h8.68c1.45,0,2.17-.62,2.17-1.85a1.68,1.68,0,0,0-.52-1.35A2.5,2.5,0,0,0,119.57,103.73Zm56.47,0h-5l3.55-3.63a11.55,11.55,0,0,0,2.09-2.81,6.27,6.27,0,0,0,.61-2.79,4.57,4.57,0,0,0-.76-2.61,4.9,4.9,0,0,0-2.16-1.75,8,8,0,0,0-3.25-.61,10.19,10.19,0,0,0-5.53,1.7,1.62,1.62,0,0,0-.61.65,2.1,2.1,0,0,0-.16.9,2.15,2.15,0,0,0,.42,1.33,1.29,1.29,0,0,0,1,.57,1.51,1.51,0,0,0,.48-.08,2.83,2.83,0,0,0,.51-.24l.39-.21.5-.25a10.92,10.92,0,0,1,1.41-.61,4.14,4.14,0,0,1,1.34-.21,2,2,0,0,1,1.39.45,1.69,1.69,0,0,1,.48,1.3A4.87,4.87,0,0,1,171.11,98l-5.3,5.53a2.75,2.75,0,0,0-.85,2,1.84,1.84,0,0,0,1.95,1.9H176a2.53,2.53,0,0,0,1.64-.45,1.75,1.75,0,0,0,.53-1.4,1.69,1.69,0,0,0-.53-1.37A2.59,2.59,0,0,0,176,103.73Z"/></svg>