<svg id="Layer_1" data-name="Layer 1" xmlns="http://www.w3.org/2000/svg" viewBox="0 0 100 100"><title>l1_2_1</title><path d="M94.57,71.9A17.5,17.5,0,1,1,65,59.24L54.05,43a17.57,17.57,0,0,1-4.61.63,17.3,17.3,0,0,1-4.91-.71L33.32,59.54h0a17.64,17.64,0,1,1-5.84-3.85l10.8-16.09a17.52,17.52,0,1,1,22.08.17L70.94,55.52A17.47,17.47,0,0,1,94.57,71.9Zm-42-11.69,4.32-4.28a2.34,2.34,0,0,0,.72-1.72,2.1,2.1,0,0,0-.72-1.64,2.21,2.21,0,0,0-1.68-.72,2.3,2.3,0,0,0-1.68.72l-4.32,4.32-4.32-4.32a2.33,2.33,0,0,0-1.68-.76,2.1,2.1,0,0,0-1.64.72,2.34,2.34,0,0,0-.72,1.72,2.49,2.49,0,0,0,.68,1.68l4.32,4.28-4.32,4.32a2.32,2.32,0,0,0,0,3.36,2.49,2.49,0,0,0,1.68.68,2.28,2.28,0,0,0,1.68-.68l4.32-4.32,4.32,4.32a2.36,2.36,0,0,0,4-1.68,2.22,2.22,0,0,0-.68-1.68ZM46,30.9H41l3.55-3.62a11.74,11.74,0,0,0,2.09-2.81,6.33,6.33,0,0,0,.61-2.79,4.53,4.53,0,0,0-.76-2.61,4.83,4.83,0,0,0-2.16-1.75,8,8,0,0,0-3.25-.62,9.82,9.82,0,0,0-2.89.45,10,10,0,0,0-2.64,1.25,1.68,1.68,0,0,0-.61.65,2.44,2.44,0,0,0,.26,2.24,1.3,1.3,0,0,0,1,.56,1.51,1.51,0,0,0,.48-.07,2.83,2.83,0,0,0,.51-.24l.39-.21.5-.25a10.92,10.92,0,0,1,1.41-.61,3.88,3.88,0,0,1,1.34-.22,2,2,0,0,1,1.39.45,1.71,1.71,0,0,1,.48,1.3,4.87,4.87,0,0,1-1.65,3.18l-5.3,5.52a2.79,2.79,0,0,0-.85,1.95A1.85,1.85,0,0,0,35.46,34a1.89,1.89,0,0,0,1.43.54H46a2.53,2.53,0,0,0,1.64-.45,1.71,1.71,0,0,0,.53-1.4,1.65,1.65,0,0,0-.53-1.36A2.59,2.59,0,0,0,46,30.9Zm15.42-14H51.64a2.49,2.49,0,0,0-1.66.46,1.79,1.79,0,0,0-.52,1.39A1.71,1.71,0,0,0,50,20.13a2.51,2.51,0,0,0,1.67.45h6.25l-6.43,11a2.4,2.4,0,0,0-.35,1.2,1.84,1.84,0,0,0,.68,1.44,2.27,2.27,0,0,0,1.55.59,2.17,2.17,0,0,0,1.06-.29,2.31,2.31,0,0,0,.86-.89l7.58-13.12a3.29,3.29,0,0,0,.47-1.65,1.91,1.91,0,0,0-.49-1.36A1.76,1.76,0,0,0,61.43,16.93ZM19.18,63.14a6.5,6.5,0,0,0-3.17.77,5.55,5.55,0,0,0-2.19,2.16,6.66,6.66,0,0,0-.1,6.1,5.13,5.13,0,0,0,1.89,2,5,5,0,0,0,2.7.74,4.79,4.79,0,0,0,2.11-.46A4.08,4.08,0,0,0,22,73.24,6.7,6.7,0,0,1,21,76.5,2.4,2.4,0,0,1,19,77.66a3.16,3.16,0,0,1-1.15-.2,13.18,13.18,0,0,1-1.38-.6l-.55-.27c-.32-.17-.57-.29-.75-.37a1.71,1.71,0,0,0-.62-.11,1.33,1.33,0,0,0-1.07.54A2,2,0,0,0,13,78a1.94,1.94,0,0,0,.18.88,2.13,2.13,0,0,0,.62.67,7.77,7.77,0,0,0,2.51,1.25,9.68,9.68,0,0,0,2.86.45,6.79,6.79,0,0,0,3.89-1.12,7.25,7.25,0,0,0,2.57-3.22A12.07,12.07,0,0,0,26.56,72a9.94,9.94,0,0,0-1.93-6.55A6.69,6.69,0,0,0,19.18,63.14Zm.28,8.27a2,2,0,0,1-1.57-.64A2.53,2.53,0,0,1,17.33,69a2.5,2.5,0,0,1,.58-1.73,2,2,0,0,1,1.55-.65,2,2,0,0,1,1.55.66,2.78,2.78,0,0,1,0,3.44A2,2,0,0,1,19.46,71.41Zm60.65.5a4,4,0,0,0,2-1.51A4.12,4.12,0,0,0,82.81,68a4.34,4.34,0,0,0-.76-2.55,4.85,4.85,0,0,0-2.17-1.7,8.3,8.3,0,0,0-3.27-.6,10,10,0,0,0-3,.45,8.25,8.25,0,0,0-2.54,1.25,2,2,0,0,0-.6.67,2.29,2.29,0,0,0,.25,2.19,1.31,1.31,0,0,0,1,.54,1.54,1.54,0,0,0,.63-.12,7.63,7.63,0,0,0,.75-.36l.53-.25a13.31,13.31,0,0,1,1.36-.6,3.75,3.75,0,0,1,1.31-.22,2.13,2.13,0,0,1,1.52.51,1.86,1.86,0,0,1,.56,1.44,1.39,1.39,0,0,1-.63,1.27,3.79,3.79,0,0,1-2,.4h-1.1a1.45,1.45,0,0,0-1.18.53,2.07,2.07,0,0,0,0,2.5,1.44,1.44,0,0,0,1.18.52h1.55a3.7,3.7,0,0,1,2,.43,1.56,1.56,0,0,1,.63,1.4,1.74,1.74,0,0,1-.62,1.5,3.47,3.47,0,0,1-2,.45,4.35,4.35,0,0,1-1.44-.22,10.5,10.5,0,0,1-1.43-.61,3.37,3.37,0,0,1-.32-.14l-.24-.11a7.76,7.76,0,0,0-.75-.36,1.52,1.52,0,0,0-.62-.11,1.3,1.3,0,0,0-1.05.53,2.09,2.09,0,0,0-.43,1.32,1.91,1.91,0,0,0,.18.86,2.1,2.1,0,0,0,.6.69,8,8,0,0,0,2.6,1.26,11.15,11.15,0,0,0,3.12.44,9.37,9.37,0,0,0,3.54-.62,5.18,5.18,0,0,0,2.34-1.73,4.37,4.37,0,0,0,.82-2.65,4.43,4.43,0,0,0-.83-2.73A4.29,4.29,0,0,0,80.11,71.91Z"/></svg>