<svg id="Layer_1" data-name="Layer 1" xmlns="http://www.w3.org/2000/svg" viewBox="0 0 100 100"><title>l1_2_1</title><path d="M94,73.57A17.5,17.5,0,1,1,64.42,60.91l-11-16.27a17.51,17.51,0,0,1-4.61.63,17.3,17.3,0,0,1-4.91-.71L32.73,61.21h0a17.6,17.6,0,1,1-5.84-3.86L37.7,41.26a17.51,17.51,0,1,1,22.07.17L70.35,57.2a17.33,17.33,0,0,1,6.13-1.13A17.51,17.51,0,0,1,94,73.57ZM52,61.88l4.32-4.28A2.34,2.34,0,0,0,57,55.88a2.11,2.11,0,0,0-.72-1.64,2.21,2.21,0,0,0-1.68-.72,2.3,2.3,0,0,0-1.68.72l-4.32,4.32-4.32-4.32a2.34,2.34,0,0,0-1.68-.76A2.11,2.11,0,0,0,41,54.2a2.36,2.36,0,0,0-.72,1.72A2.45,2.45,0,0,0,41,57.6l4.32,4.28L41,66.2a2.32,2.32,0,0,0,0,3.36,2.44,2.44,0,0,0,1.68.68,2.25,2.25,0,0,0,1.68-.68l4.32-4.32L53,69.56a2.32,2.32,0,0,0,3.36,0A2.25,2.25,0,0,0,57,67.88a2.19,2.19,0,0,0-.68-1.68ZM47.16,29.75h-.55v-9a2.15,2.15,0,0,0-.67-1.67,2.38,2.38,0,0,0-1.63-.6,2.58,2.58,0,0,0-1.11.26,2.34,2.34,0,0,0-.89.76L35.16,29.68a2.75,2.75,0,0,0-.55,1.65,2,2,0,0,0,.52,1.37,1.89,1.89,0,0,0,1.43.55h5.57v.85a2.21,2.21,0,0,0,.62,1.7,2.26,2.26,0,0,0,1.61.57A2.33,2.33,0,0,0,46,35.8a2.21,2.21,0,0,0,.62-1.7v-.85h.55c1.45,0,2.17-.59,2.17-1.78S48.61,29.75,47.16,29.75Zm-8,0,3-4.32v4.32Zm17.66,6.7a5.84,5.84,0,0,0,5-2.33c1.15-1.54,1.72-3.79,1.72-6.72s-.58-5.15-1.74-6.7a5.85,5.85,0,0,0-5-2.33,5.84,5.84,0,0,0-5,2.33c-1.16,1.55-1.73,3.78-1.73,6.7s.57,5.18,1.73,6.72A5.81,5.81,0,0,0,56.79,36.45Zm0-3.48a1.8,1.8,0,0,1-1.73-1.29,12.53,12.53,0,0,1-.52-4.28,12.36,12.36,0,0,1,.52-4.26,1.8,1.8,0,0,1,3.45,0A12.32,12.32,0,0,1,59,27.4a12.48,12.48,0,0,1-.53,4.28A1.79,1.79,0,0,1,56.79,33ZM21.44,71.13a6.22,6.22,0,0,0-2.47.45V68.51h5.4c1.45,0,2.17-.58,2.17-1.75S25.82,65,24.37,65H16.62a2.18,2.18,0,0,0-1.58.55,2.2,2.2,0,0,0-.55,1.6V74A1.38,1.38,0,0,0,15,75.05a1.76,1.76,0,0,0,1.17.41,2.34,2.34,0,0,0,1.13-.28,10.36,10.36,0,0,1,1.44-.45,7,7,0,0,1,1.36-.12,2.87,2.87,0,0,1,1.95.62,2.22,2.22,0,0,1,.7,1.75A2.19,2.19,0,0,1,22,78.75a3.22,3.22,0,0,1-2.07.56,4.18,4.18,0,0,1-1.39-.23,14.76,14.76,0,0,1-1.41-.6l-.5-.25c-.34-.18-.59-.3-.75-.37a1.67,1.67,0,0,0-.63-.1,1.31,1.31,0,0,0-1,.54,2.06,2.06,0,0,0-.42,1.31,1.79,1.79,0,0,0,.19.86,2.27,2.27,0,0,0,.58.69,8.32,8.32,0,0,0,2.57,1.25,10.39,10.39,0,0,0,3,.45,8.12,8.12,0,0,0,3.58-.75A5.66,5.66,0,0,0,26.17,80,5.85,5.85,0,0,0,27,76.81a6.06,6.06,0,0,0-.71-3,5.08,5.08,0,0,0-2-2A5.71,5.71,0,0,0,21.44,71.13Zm58.71,2.45a3.75,3.75,0,0,0,2-1.47,4.37,4.37,0,0,0,.71-2.5,4.13,4.13,0,0,0-1.74-3.51,7.8,7.8,0,0,0-4.74-1.29,7.77,7.77,0,0,0-4.72,1.29,4.11,4.11,0,0,0-1.75,3.51,4.24,4.24,0,0,0,.7,2.44,4,4,0,0,0,2,1.53,4.2,4.2,0,0,0-2.35,1.49,4.42,4.42,0,0,0-.83,2.74,4.31,4.31,0,0,0,1.86,3.71,8.61,8.61,0,0,0,5.09,1.34,8.59,8.59,0,0,0,5.09-1.34,4.31,4.31,0,0,0,1.86-3.71,4.11,4.11,0,0,0-3.15-4.23Zm-3.8,5.8c-1.81,0-2.72-.65-2.72-1.95s.91-2,2.72-2,2.73.65,2.73,2S78.17,79.38,76.35,79.38Zm0-11.1a2.7,2.7,0,0,1,1.68.44,1.71,1.71,0,0,1,.55,1.41A1.77,1.77,0,0,1,78,71.56a2.63,2.63,0,0,1-1.68.45,2.58,2.58,0,0,1-1.67-.45,1.74,1.74,0,0,1-.55-1.43,1.68,1.68,0,0,1,.55-1.41A2.65,2.65,0,0,1,76.35,68.28Z"/></svg>