<svg id="Layer_1" data-name="Layer 1" xmlns="http://www.w3.org/2000/svg" viewBox="0 0 100 100"><title>l1_2_1</title><path d="M93.18,73.57A17.5,17.5,0,1,1,63.62,60.91l-11-16.27a17.26,17.26,0,0,1-9.52-.08L31.94,61.21h0a17.55,17.55,0,1,1-5.83-3.86L36.9,41.26A17.51,17.51,0,1,1,59,41.43L69.55,57.2A17.45,17.45,0,0,1,93.18,73.57Zm-42-11.69,4.32-4.28a2.34,2.34,0,0,0,.72-1.72,2.11,2.11,0,0,0-.72-1.64,2.24,2.24,0,0,0-1.68-.72,2.3,2.3,0,0,0-1.68.72l-4.32,4.32-4.32-4.32a2.37,2.37,0,0,0-1.68-.76,2.08,2.08,0,0,0-1.64.72,2.36,2.36,0,0,0-.72,1.72,2.41,2.41,0,0,0,.68,1.68l4.32,4.28L40.17,66.2a2.32,2.32,0,0,0,0,3.36,2.41,2.41,0,0,0,1.68.68,2.28,2.28,0,0,0,1.68-.68l4.32-4.32,4.32,4.32a2.36,2.36,0,0,0,4-1.68,2.22,2.22,0,0,0-.68-1.68ZM45.36,29.75h-.55v-9a2.13,2.13,0,0,0-.67-1.68,2.36,2.36,0,0,0-1.63-.6,2.58,2.58,0,0,0-1.11.26,2.28,2.28,0,0,0-.89.77l-7.15,10.2a2.75,2.75,0,0,0-.55,1.65,1.91,1.91,0,0,0,.53,1.37,1.85,1.85,0,0,0,1.42.55h5.58v.85A2.21,2.21,0,0,0,41,35.8a2.29,2.29,0,0,0,1.61.58,2.34,2.34,0,0,0,1.63-.58,2.21,2.21,0,0,0,.62-1.7v-.85h.55c1.45,0,2.18-.59,2.18-1.77S46.81,29.75,45.36,29.75Zm-8,0,3-4.32v4.32Zm21.45-2.6a3.77,3.77,0,0,0,2-1.47,4.4,4.4,0,0,0,.71-2.5,4.14,4.14,0,0,0-1.74-3.52A7.74,7.74,0,0,0,55,18.38a7.8,7.8,0,0,0-4.73,1.28,4.15,4.15,0,0,0-1.75,3.52,4.21,4.21,0,0,0,.7,2.43,4.15,4.15,0,0,0,2,1.54,4.18,4.18,0,0,0-2.35,1.49A4.4,4.4,0,0,0,48,31.38a4.31,4.31,0,0,0,1.86,3.71A8.59,8.59,0,0,0,55,36.43a8.61,8.61,0,0,0,5.09-1.34,4.31,4.31,0,0,0,1.86-3.71,4.14,4.14,0,0,0-3.15-4.23ZM55,33q-2.73,0-2.73-2T55,29.05c1.81,0,2.72.65,2.72,1.95S56.8,33,55,33Zm0-11.1a2.65,2.65,0,0,1,1.67.44,1.68,1.68,0,0,1,.55,1.41,1.74,1.74,0,0,1-.55,1.43,2.58,2.58,0,0,1-1.67.45,2.63,2.63,0,0,1-1.68-.45,1.77,1.77,0,0,1-.55-1.43,1.71,1.71,0,0,1,.55-1.41A2.7,2.7,0,0,1,55,21.85ZM20.92,71.06a4.79,4.79,0,0,0-2.11.46,4.08,4.08,0,0,0-1.54,1.26,6.6,6.6,0,0,1,.94-3.26,2.39,2.39,0,0,1,2.06-1.16,3.43,3.43,0,0,1,1.15.2,13.18,13.18,0,0,1,1.38.6l.55.27a8.3,8.3,0,0,0,.75.37,1.71,1.71,0,0,0,.62.11,1.31,1.31,0,0,0,1.06-.54,2,2,0,0,0,.44-1.31,1.82,1.82,0,0,0-.19-.88,2.2,2.2,0,0,0-.61-.67,8.08,8.08,0,0,0-2.51-1.25,9.73,9.73,0,0,0-2.86-.45,6.76,6.76,0,0,0-3.89,1.12,7.32,7.32,0,0,0-2.58,3.22A12.24,12.24,0,0,0,12.67,74q0,4.26,1.93,6.55a6.69,6.69,0,0,0,5.45,2.3,6.39,6.39,0,0,0,3.17-.77A5.61,5.61,0,0,0,25.41,80a6.31,6.31,0,0,0,.79-3.14,6.24,6.24,0,0,0-.69-3,5.13,5.13,0,0,0-1.89-2A5.07,5.07,0,0,0,20.92,71.06Zm-1.15,8.3a2,2,0,0,1-1.55-.66,2.78,2.78,0,0,1,0-3.44,2,2,0,0,1,1.56-.65,1.94,1.94,0,0,1,1.56.64,2.89,2.89,0,0,1,0,3.46A2,2,0,0,1,19.77,79.36Zm59.58-6.78a3.75,3.75,0,0,0,2-1.47,4.37,4.37,0,0,0,.71-2.5,4.14,4.14,0,0,0-1.74-3.51,7.8,7.8,0,0,0-4.74-1.29,7.79,7.79,0,0,0-4.72,1.29,4.12,4.12,0,0,0-1.75,3.51,4.24,4.24,0,0,0,.7,2.44,4.09,4.09,0,0,0,2,1.53,4.2,4.2,0,0,0-2.35,1.49,4.42,4.42,0,0,0-.83,2.74,4.32,4.32,0,0,0,1.87,3.71,8.56,8.56,0,0,0,5.08,1.34,8.59,8.59,0,0,0,5.09-1.34,4.31,4.31,0,0,0,1.86-3.71,4.11,4.11,0,0,0-3.15-4.23Zm-3.8,5.8c-1.81,0-2.72-.65-2.72-1.95s.91-2,2.72-2,2.73.65,2.73,2S77.37,78.38,75.55,78.38Zm0-11.1a2.7,2.7,0,0,1,1.68.44,1.68,1.68,0,0,1,.55,1.41,1.74,1.74,0,0,1-.55,1.43,2.63,2.63,0,0,1-1.68.45,2.6,2.6,0,0,1-1.67-.45,1.74,1.74,0,0,1-.55-1.43,1.68,1.68,0,0,1,.55-1.41A2.67,2.67,0,0,1,75.55,67.28Z"/></svg>