<svg id="Layer_1" data-name="Layer 1" xmlns="http://www.w3.org/2000/svg" viewBox="0 0 100 100"><title>l1_2_1</title><path d="M94.57,71.9A17.5,17.5,0,1,1,65,59.24L54.05,43a17.57,17.57,0,0,1-4.61.63,17.3,17.3,0,0,1-4.91-.71L33.32,59.54h0a17.64,17.64,0,1,1-5.84-3.85l10.8-16.09a17.52,17.52,0,1,1,22.08.17L70.94,55.52A17.47,17.47,0,0,1,94.57,71.9Zm-42-11.69,4.32-4.28a2.34,2.34,0,0,0,.72-1.72,2.1,2.1,0,0,0-.72-1.64,2.21,2.21,0,0,0-1.68-.72,2.3,2.3,0,0,0-1.68.72l-4.32,4.32-4.32-4.32a2.33,2.33,0,0,0-1.68-.76,2.1,2.1,0,0,0-1.64.72,2.34,2.34,0,0,0-.72,1.72,2.49,2.49,0,0,0,.68,1.68l4.32,4.28-4.32,4.32a2.32,2.32,0,0,0,0,3.36,2.49,2.49,0,0,0,1.68.68,2.28,2.28,0,0,0,1.68-.68l4.32-4.32,4.32,4.32a2.36,2.36,0,0,0,4-1.68,2.22,2.22,0,0,0-.68-1.68ZM46.67,30.9H44.62V19.05A2.16,2.16,0,0,0,44,17.43a2.21,2.21,0,0,0-1.61-.6,4.22,4.22,0,0,0-2.08.62l-4,2.33a1.69,1.69,0,0,0-.87,1.55,2.06,2.06,0,0,0,.5,1.36,1.49,1.49,0,0,0,1.2.61,1.65,1.65,0,0,0,.87-.25l2-1.17v9H38a2.5,2.5,0,0,0-1.65.45,1.68,1.68,0,0,0-.53,1.35c0,1.24.73,1.85,2.18,1.85h8.67c1.45,0,2.18-.61,2.18-1.85a1.68,1.68,0,0,0-.53-1.35A2.5,2.5,0,0,0,46.67,30.9Zm13.5-5.42a3.82,3.82,0,0,0,2-1.48,4.37,4.37,0,0,0,.71-2.5A4.14,4.14,0,0,0,61.11,18a7.8,7.8,0,0,0-4.74-1.29A7.77,7.77,0,0,0,51.65,18,4.12,4.12,0,0,0,49.9,21.5a4.22,4.22,0,0,0,.7,2.44,4.12,4.12,0,0,0,2,1.54A4.13,4.13,0,0,0,50.25,27a4.42,4.42,0,0,0-.83,2.74,4.31,4.31,0,0,0,1.86,3.71,8.54,8.54,0,0,0,5.09,1.34,8.52,8.52,0,0,0,5.09-1.34,4.31,4.31,0,0,0,1.86-3.71,4.09,4.09,0,0,0-3.15-4.22Zm-3.8,5.8c-1.81,0-2.72-.65-2.72-2s.91-1.95,2.72-1.95,2.73.65,2.73,1.95S58.19,31.28,56.37,31.28Zm0-11.1a2.7,2.7,0,0,1,1.68.43A1.75,1.75,0,0,1,58.6,22a1.75,1.75,0,0,1-.55,1.42,2.63,2.63,0,0,1-1.68.45,2.58,2.58,0,0,1-1.67-.45A1.71,1.71,0,0,1,54.15,22a1.71,1.71,0,0,1,.55-1.42A2.65,2.65,0,0,1,56.37,20.18ZM24.86,63.36h-9.8a2.5,2.5,0,0,0-1.65.46,1.76,1.76,0,0,0-.53,1.39,1.71,1.71,0,0,0,.51,1.35,2.51,2.51,0,0,0,1.67.45h6.25L14.88,78a2.4,2.4,0,0,0-.35,1.2,1.83,1.83,0,0,0,.68,1.43,2.29,2.29,0,0,0,1.55.59,2.17,2.17,0,0,0,1.06-.29,2.28,2.28,0,0,0,.86-.88l7.58-13.13a3.23,3.23,0,0,0,.47-1.65,1.93,1.93,0,0,0-.49-1.36A1.75,1.75,0,0,0,24.86,63.36Zm55.25,8.55a4,4,0,0,0,2-1.51A4.12,4.12,0,0,0,82.81,68a4.34,4.34,0,0,0-.76-2.55,4.85,4.85,0,0,0-2.17-1.7,8.3,8.3,0,0,0-3.27-.6,10,10,0,0,0-3,.45,8.25,8.25,0,0,0-2.54,1.25,1.68,1.68,0,0,0-.77,1.55,2.08,2.08,0,0,0,.42,1.31,1.31,1.31,0,0,0,1,.54,1.54,1.54,0,0,0,.63-.12,7.63,7.63,0,0,0,.75-.36l.53-.25a13.31,13.31,0,0,1,1.36-.6,3.75,3.75,0,0,1,1.31-.22,2.13,2.13,0,0,1,1.52.51,1.86,1.86,0,0,1,.56,1.44,1.4,1.4,0,0,1-.63,1.27,3.79,3.79,0,0,1-2,.4h-1.1a1.45,1.45,0,0,0-1.18.53,2.07,2.07,0,0,0,0,2.5,1.44,1.44,0,0,0,1.18.52h1.55a3.7,3.7,0,0,1,2,.43,1.56,1.56,0,0,1,.63,1.4,1.74,1.74,0,0,1-.62,1.5,3.47,3.47,0,0,1-2,.45,4.63,4.63,0,0,1-1.44-.22,10.5,10.5,0,0,1-1.43-.61l-.32-.14-.24-.11a5.93,5.93,0,0,0-.75-.36,1.52,1.52,0,0,0-.62-.11,1.27,1.27,0,0,0-1.05.53,2.09,2.09,0,0,0-.43,1.32,1.91,1.91,0,0,0,.18.86,2.1,2.1,0,0,0,.6.69,8,8,0,0,0,2.6,1.26,11.15,11.15,0,0,0,3.12.44,9.37,9.37,0,0,0,3.54-.62,5.26,5.26,0,0,0,2.34-1.73,4.37,4.37,0,0,0,.82-2.65,4.43,4.43,0,0,0-.83-2.73A4.24,4.24,0,0,0,80.11,71.91Z"/></svg>