<svg id="Layer_1" data-name="Layer 1" xmlns="http://www.w3.org/2000/svg" viewBox="0 0 100 100"><title>l1_2_1</title><path d="M95.57,71.9A17.5,17.5,0,1,1,66,59.24L55.05,43a17.57,17.57,0,0,1-4.61.63,17.3,17.3,0,0,1-4.91-.71L34.32,59.54h0a17.64,17.64,0,1,1-5.84-3.85l10.8-16.09a17.52,17.52,0,1,1,22.08.17L71.94,55.52A17.47,17.47,0,0,1,95.57,71.9Zm-42-11.69,4.32-4.28a2.34,2.34,0,0,0,.72-1.72,2.1,2.1,0,0,0-.72-1.64,2.21,2.21,0,0,0-1.68-.72,2.3,2.3,0,0,0-1.68.72l-4.32,4.32-4.32-4.32a2.33,2.33,0,0,0-1.68-.76,2.1,2.1,0,0,0-1.64.72,2.34,2.34,0,0,0-.72,1.72,2.49,2.49,0,0,0,.68,1.68l4.32,4.28-4.32,4.32a2.32,2.32,0,0,0,0,3.36,2.49,2.49,0,0,0,1.68.68,2.28,2.28,0,0,0,1.68-.68l4.32-4.32,4.32,4.32a2.36,2.36,0,0,0,4-1.68,2.22,2.22,0,0,0-.68-1.68ZM48.75,28.08H48.2v-9a2.13,2.13,0,0,0-.68-1.67,2.35,2.35,0,0,0-1.62-.6,2.45,2.45,0,0,0-1.12.26,2.38,2.38,0,0,0-.88.76L36.75,28a2.79,2.79,0,0,0-.55,1.65,1.84,1.84,0,0,0,1.95,1.93h5.57v.85A2.06,2.06,0,0,0,46,34.7a2.31,2.31,0,0,0,1.62-.57,2.2,2.2,0,0,0,.63-1.7v-.85h.55c1.45,0,2.17-.59,2.17-1.78S50.2,28.08,48.75,28.08Zm-8,0,3-4.33v4.33ZM59.6,23a6.28,6.28,0,0,0-2.48.45V20.4h5.4c1.45,0,2.18-.58,2.18-1.75s-.73-1.72-2.18-1.72H54.77a2.1,2.1,0,0,0-1.57.55,2.14,2.14,0,0,0-.55,1.6v6.77a1.4,1.4,0,0,0,.47,1.09,1.72,1.72,0,0,0,1.18.41,2.4,2.4,0,0,0,1.12-.27,8.21,8.21,0,0,1,1.44-.45,6.34,6.34,0,0,1,1.36-.13,2.79,2.79,0,0,1,2,.63,2.2,2.2,0,0,1,.7,1.75,2.16,2.16,0,0,1-.67,1.76,3.23,3.23,0,0,1-2.08.56A4.18,4.18,0,0,1,56.73,31a14.76,14.76,0,0,1-1.41-.6l-.5-.25a6.58,6.58,0,0,0-.75-.38,1.79,1.79,0,0,0-.62-.1,1.28,1.28,0,0,0-1.05.54A2,2,0,0,0,52,31.5a1.76,1.76,0,0,0,.19.86,2,2,0,0,0,.59.69,8,8,0,0,0,2.56,1.25,10.41,10.41,0,0,0,3,.45A8.08,8.08,0,0,0,61.92,34a5.58,5.58,0,0,0,2.4-2.12,5.91,5.91,0,0,0,.85-3.18,6.08,6.08,0,0,0-.71-3,5.08,5.08,0,0,0-2-2A5.7,5.7,0,0,0,59.6,23ZM21.35,64.14a6.51,6.51,0,0,0-3.18.77A5.68,5.68,0,0,0,16,67.07a6.74,6.74,0,0,0-.1,6.1,5.13,5.13,0,0,0,1.89,2,5,5,0,0,0,2.7.74,4.76,4.76,0,0,0,2.11-.46,3.93,3.93,0,0,0,1.54-1.26,6.6,6.6,0,0,1-.94,3.26,2.39,2.39,0,0,1-2.06,1.16,3.43,3.43,0,0,1-1.15-.2,13.16,13.16,0,0,1-1.37-.6l-.55-.27c-.32-.17-.57-.29-.75-.37a1.77,1.77,0,0,0-.63-.11,1.33,1.33,0,0,0-1.06.54A2,2,0,0,0,15.17,79a1.82,1.82,0,0,0,.19.88,2.09,2.09,0,0,0,.61.67,7.87,7.87,0,0,0,2.51,1.25,9.74,9.74,0,0,0,2.87.45,6.73,6.73,0,0,0,3.88-1.12,7.26,7.26,0,0,0,2.58-3.22A12.07,12.07,0,0,0,28.72,73a9.94,9.94,0,0,0-1.92-6.55A6.7,6.7,0,0,0,21.35,64.14Zm.27,8.27a2,2,0,0,1-1.56-.64A2.49,2.49,0,0,1,19.5,70a2.54,2.54,0,0,1,.57-1.73,2.16,2.16,0,0,1,3.1,0,2.49,2.49,0,0,1,.6,1.72,2.43,2.43,0,0,1-.59,1.72A2,2,0,0,1,21.62,72.41Zm57.54-2a6.22,6.22,0,0,0-2.47.45V67.84h5.4c1.45,0,2.17-.59,2.17-1.75s-.72-1.73-2.17-1.73H74.34a1.92,1.92,0,0,0-2.13,2.15v6.78a1.34,1.34,0,0,0,.48,1.08,1.71,1.71,0,0,0,1.17.42A2.34,2.34,0,0,0,75,74.51a10.36,10.36,0,0,1,1.44-.45,7,7,0,0,1,1.36-.12,2.87,2.87,0,0,1,1.95.62,2.22,2.22,0,0,1,.7,1.75,2.16,2.16,0,0,1-.68,1.76,3.16,3.16,0,0,1-2.07.57,4.18,4.18,0,0,1-1.39-.23,14.76,14.76,0,0,1-1.41-.6l-.5-.25a6.14,6.14,0,0,0-.75-.37,1.67,1.67,0,0,0-.63-.1,1.33,1.33,0,0,0-1.05.53,2.08,2.08,0,0,0-.42,1.32,1.79,1.79,0,0,0,.19.86,2.27,2.27,0,0,0,.58.69,8.32,8.32,0,0,0,2.57,1.25,10.39,10.39,0,0,0,3,.45,8.12,8.12,0,0,0,3.58-.75,5.66,5.66,0,0,0,2.4-2.13,5.85,5.85,0,0,0,.85-3.17,6.1,6.1,0,0,0-.71-3,5.21,5.21,0,0,0-2-2A5.81,5.81,0,0,0,79.16,70.46Z"/></svg>