<svg id="Layer_1" data-name="Layer 1" xmlns="http://www.w3.org/2000/svg" viewBox="0 0 100 100"><title>l1_2_1</title><path d="M95.57,71.9A17.5,17.5,0,1,1,66,59.24L55.05,43a17.57,17.57,0,0,1-4.61.63,17.3,17.3,0,0,1-4.91-.71L34.32,59.54h0a17.64,17.64,0,1,1-5.84-3.85l10.8-16.09a17.52,17.52,0,1,1,22.08.17L71.94,55.52A17.47,17.47,0,0,1,95.57,71.9Zm-42-11.69,4.32-4.28a2.34,2.34,0,0,0,.72-1.72,2.1,2.1,0,0,0-.72-1.64,2.21,2.21,0,0,0-1.68-.72,2.3,2.3,0,0,0-1.68.72l-4.32,4.32-4.32-4.32a2.33,2.33,0,0,0-1.68-.76,2.1,2.1,0,0,0-1.64.72,2.34,2.34,0,0,0-.72,1.72,2.49,2.49,0,0,0,.68,1.68l4.32,4.28-4.32,4.32a2.32,2.32,0,0,0,0,3.36,2.49,2.49,0,0,0,1.68.68,2.28,2.28,0,0,0,1.68-.68l4.32-4.32,4.32,4.32a2.36,2.36,0,0,0,4-1.68,2.22,2.22,0,0,0-.68-1.68ZM43.6,23a6.28,6.28,0,0,0-2.48.45V20.4h5.4c1.45,0,2.18-.58,2.18-1.75s-.73-1.72-2.18-1.72H38.77a2.1,2.1,0,0,0-1.57.55,2.14,2.14,0,0,0-.55,1.6v6.77a1.4,1.4,0,0,0,.47,1.09,1.72,1.72,0,0,0,1.18.41,2.4,2.4,0,0,0,1.12-.27,8.21,8.21,0,0,1,1.44-.45,6.34,6.34,0,0,1,1.36-.13,2.79,2.79,0,0,1,2,.63,2.2,2.2,0,0,1,.7,1.75,2.16,2.16,0,0,1-.67,1.76,3.23,3.23,0,0,1-2.08.56A4.18,4.18,0,0,1,40.73,31a14.76,14.76,0,0,1-1.41-.6l-.5-.25a6.58,6.58,0,0,0-.75-.38,1.79,1.79,0,0,0-.62-.1,1.28,1.28,0,0,0-1.05.54A2,2,0,0,0,36,31.5a1.76,1.76,0,0,0,.19.86,2,2,0,0,0,.59.69,8,8,0,0,0,2.56,1.25,10.41,10.41,0,0,0,3,.45A8.08,8.08,0,0,0,45.92,34a5.58,5.58,0,0,0,2.4-2.12,5.91,5.91,0,0,0,.85-3.18,6.08,6.08,0,0,0-.71-3,5.08,5.08,0,0,0-2-2A5.7,5.7,0,0,0,43.6,23ZM58.87,23a4.94,4.94,0,0,0-2.11.46,4,4,0,0,0-1.54,1.27,6.64,6.64,0,0,1,.94-3.27,2.39,2.39,0,0,1,2.06-1.16,3.39,3.39,0,0,1,1.15.2q.56.21,1.38.6l.55.28q.47.24.75.36a1.71,1.71,0,0,0,.62.11,1.31,1.31,0,0,0,1.06-.54A1.94,1.94,0,0,0,64.17,20a1.75,1.75,0,0,0-.19-.87,2,2,0,0,0-.61-.68,8,8,0,0,0-2.51-1.25A9.73,9.73,0,0,0,58,16.7a6.77,6.77,0,0,0-3.89,1.13A7.29,7.29,0,0,0,51.53,21a12.26,12.26,0,0,0-.91,4.89,9.92,9.92,0,0,0,1.93,6.55A6.72,6.72,0,0,0,58,34.78,6.39,6.39,0,0,0,61.17,34a5.48,5.48,0,0,0,2.19-2.16,6.31,6.31,0,0,0,.79-3.14,6.24,6.24,0,0,0-.69-3,5.13,5.13,0,0,0-1.89-2A5.07,5.07,0,0,0,58.87,23Zm-1.15,8.3a2,2,0,0,1-1.55-.66,2.44,2.44,0,0,1-.6-1.71,2.5,2.5,0,0,1,.59-1.73,2,2,0,0,1,1.56-.65,2,2,0,0,1,1.56.64,2.52,2.52,0,0,1,.57,1.74,2.47,2.47,0,0,1-.58,1.72A1.94,1.94,0,0,1,57.72,31.25ZM25.86,63.36h-9.8a2.5,2.5,0,0,0-1.65.46,1.77,1.77,0,0,0-.53,1.39,1.71,1.71,0,0,0,.51,1.35,2.53,2.53,0,0,0,1.67.45h6.25L15.88,78a2.4,2.4,0,0,0-.35,1.2,1.83,1.83,0,0,0,.68,1.43,2.24,2.24,0,0,0,1.55.59,2.07,2.07,0,0,0,1.06-.29,2.28,2.28,0,0,0,.86-.88l7.58-13.13a3.23,3.23,0,0,0,.47-1.65,1.93,1.93,0,0,0-.49-1.36A1.75,1.75,0,0,0,25.86,63.36Zm55.88,8.55a3.73,3.73,0,0,0,2-1.47,4.32,4.32,0,0,0,.71-2.5,4.13,4.13,0,0,0-1.73-3.52,7.86,7.86,0,0,0-4.74-1.28,7.84,7.84,0,0,0-4.72,1.28,4.13,4.13,0,0,0-1.75,3.52,4.28,4.28,0,0,0,.69,2.43,4.1,4.1,0,0,0,2,1.54,4.18,4.18,0,0,0-2.35,1.49A4.4,4.4,0,0,0,71,76.14a4.31,4.31,0,0,0,1.86,3.71,8.59,8.59,0,0,0,5.09,1.34A8.59,8.59,0,0,0,83,79.85a4.31,4.31,0,0,0,1.86-3.71,4.36,4.36,0,0,0-.81-2.69A4.31,4.31,0,0,0,81.74,71.91Zm-3.8,5.8c-1.82,0-2.72-.65-2.72-1.95s.9-2,2.72-2,2.72.65,2.72,2S79.76,77.71,77.94,77.71Zm0-11.1a2.65,2.65,0,0,1,1.67.44,1.68,1.68,0,0,1,.55,1.41,1.74,1.74,0,0,1-.55,1.43,2.58,2.58,0,0,1-1.67.45,2.63,2.63,0,0,1-1.68-.45,1.76,1.76,0,0,1-.54-1.43,1.71,1.71,0,0,1,.54-1.41A2.7,2.7,0,0,1,77.94,66.61Z"/></svg>