<svg id="Layer_1" data-name="Layer 1" xmlns="http://www.w3.org/2000/svg" viewBox="0 0 100 100"><title>l1_2_1</title><path d="M94.57,71.9A17.5,17.5,0,1,1,65,59.24L54.05,43a17.57,17.57,0,0,1-4.61.63,17.3,17.3,0,0,1-4.91-.71L33.32,59.54h0a17.64,17.64,0,1,1-5.84-3.85l10.8-16.09a17.52,17.52,0,1,1,22.08.17L70.94,55.52A17.47,17.47,0,0,1,94.57,71.9Zm-42-11.69,4.32-4.28a2.34,2.34,0,0,0,.72-1.72,2.1,2.1,0,0,0-.72-1.64,2.21,2.21,0,0,0-1.68-.72,2.3,2.3,0,0,0-1.68.72l-4.32,4.32-4.32-4.32a2.33,2.33,0,0,0-1.68-.76,2.1,2.1,0,0,0-1.64.72,2.34,2.34,0,0,0-.72,1.72,2.49,2.49,0,0,0,.68,1.68l4.32,4.28-4.32,4.32a2.32,2.32,0,0,0,0,3.36,2.49,2.49,0,0,0,1.68.68,2.28,2.28,0,0,0,1.68-.68l4.32-4.32,4.32,4.32a2.36,2.36,0,0,0,4-1.68,2.22,2.22,0,0,0-.68-1.68ZM46,30.9H41l3.55-3.62a11.58,11.58,0,0,0,2.09-2.82,6.26,6.26,0,0,0,.61-2.78,4.58,4.58,0,0,0-.76-2.62,5,5,0,0,0-2.16-1.75,8.19,8.19,0,0,0-3.25-.61,9.82,9.82,0,0,0-2.89.45,10,10,0,0,0-2.64,1.25,1.68,1.68,0,0,0-.61.65,2.13,2.13,0,0,0-.16.9,2.18,2.18,0,0,0,.42,1.34,1.3,1.3,0,0,0,1,.56,1.51,1.51,0,0,0,.48-.07,2.83,2.83,0,0,0,.51-.24l.39-.21.5-.25a12.78,12.78,0,0,1,1.41-.62,4.14,4.14,0,0,1,1.34-.21,2,2,0,0,1,1.39.45,1.71,1.71,0,0,1,.48,1.3,4.87,4.87,0,0,1-1.65,3.18l-5.3,5.52a2.77,2.77,0,0,0-.85,1.95A1.85,1.85,0,0,0,35.46,34a1.89,1.89,0,0,0,1.43.54H46a2.53,2.53,0,0,0,1.64-.45,1.71,1.71,0,0,0,.53-1.4,1.65,1.65,0,0,0-.53-1.36A2.59,2.59,0,0,0,46,30.9Zm14.17-5.42a3.82,3.82,0,0,0,2-1.48,4.37,4.37,0,0,0,.71-2.5A4.14,4.14,0,0,0,61.12,18a7.76,7.76,0,0,0-4.73-1.29A7.81,7.81,0,0,0,51.66,18a4.12,4.12,0,0,0-1.75,3.51,4.22,4.22,0,0,0,.7,2.44,4.17,4.17,0,0,0,2,1.54A4.13,4.13,0,0,0,50.26,27a4.42,4.42,0,0,0-.83,2.74,4.32,4.32,0,0,0,1.87,3.71,8.5,8.5,0,0,0,5.09,1.34,8.48,8.48,0,0,0,5.08-1.34,4.32,4.32,0,0,0,1.87-3.71,4.11,4.11,0,0,0-3.16-4.22Zm-3.79,5.8q-2.73,0-2.73-2t2.73-1.95c1.81,0,2.72.65,2.72,1.95S58.2,31.28,56.39,31.28Zm0-11.1a2.67,2.67,0,0,1,1.67.43A1.71,1.71,0,0,1,58.61,22a1.71,1.71,0,0,1-.55,1.42,2.6,2.6,0,0,1-1.67.45,2.63,2.63,0,0,1-1.68-.45A1.71,1.71,0,0,1,54.16,22a1.71,1.71,0,0,1,.55-1.42A2.7,2.7,0,0,1,56.39,20.18ZM25.86,63.36h-9.8a2.5,2.5,0,0,0-1.65.46,1.76,1.76,0,0,0-.53,1.39,1.71,1.71,0,0,0,.51,1.35,2.51,2.51,0,0,0,1.67.45h6.25L15.88,78a2.4,2.4,0,0,0-.35,1.2,1.83,1.83,0,0,0,.68,1.43,2.29,2.29,0,0,0,1.55.59,2.17,2.17,0,0,0,1.06-.29,2.28,2.28,0,0,0,.86-.88l7.58-13.13a3.23,3.23,0,0,0,.47-1.65,1.93,1.93,0,0,0-.49-1.36A1.75,1.75,0,0,0,25.86,63.36ZM82.31,74.51h-.55v-9a2.13,2.13,0,0,0-.67-1.68,2.35,2.35,0,0,0-1.62-.6,2.59,2.59,0,0,0-1.12.26,2.25,2.25,0,0,0-.88.77l-7.16,10.2a2.82,2.82,0,0,0-.55,1.65,1.91,1.91,0,0,0,.53,1.37,1.86,1.86,0,0,0,1.43.55h5.57v.85a2.21,2.21,0,0,0,.61,1.7,2.29,2.29,0,0,0,1.61.58,2.34,2.34,0,0,0,1.63-.58,2.18,2.18,0,0,0,.62-1.7V78h.55c1.45,0,2.18-.59,2.18-1.77S83.76,74.51,82.31,74.51Zm-8,0,3-4.32v4.32Z"/></svg>