<svg id="Layer_1" data-name="Layer 1" xmlns="http://www.w3.org/2000/svg" viewBox="0 0 100 100"><title>l1_2_1</title><path d="M93.75,72.05A17.5,17.5,0,1,1,64.19,59.4l-11-16.28a17.13,17.13,0,0,1-9.52-.07L32.5,59.69h0a17.6,17.6,0,1,1-5.84-3.86L37.47,39.74a17.5,17.5,0,1,1,22.07.18L70.12,55.68a17.33,17.33,0,0,1,6.13-1.13A17.51,17.51,0,0,1,93.75,72.05Zm-42-11.68,4.32-4.28a2.36,2.36,0,0,0,.72-1.72,2.08,2.08,0,0,0-.72-1.64A2.21,2.21,0,0,0,54.41,52a2.3,2.3,0,0,0-1.68.72l-4.32,4.32-4.32-4.32A2.3,2.3,0,0,0,42.41,52a2.11,2.11,0,0,0-1.64.72,2.34,2.34,0,0,0-.72,1.72,2.49,2.49,0,0,0,.68,1.68l4.32,4.28-4.32,4.32a2.32,2.32,0,0,0,0,3.36,2.49,2.49,0,0,0,1.68.68,2.28,2.28,0,0,0,1.68-.68l4.32-4.32,4.32,4.32a2.32,2.32,0,0,0,3.36,0,2.28,2.28,0,0,0,.68-1.68,2.16,2.16,0,0,0-.68-1.68ZM42.05,23.11a4.79,4.79,0,0,0-2.11.46,4.08,4.08,0,0,0-1.54,1.26,6.7,6.7,0,0,1,.94-3.26,2.4,2.4,0,0,1,2.06-1.16,3.16,3.16,0,0,1,1.15.2,13.18,13.18,0,0,1,1.38.6l.55.27a8.3,8.3,0,0,0,.75.37,1.71,1.71,0,0,0,.62.11,1.34,1.34,0,0,0,1.07-.54,2,2,0,0,0,.43-1.31,1.94,1.94,0,0,0-.18-.88,2.13,2.13,0,0,0-.62-.67A7.77,7.77,0,0,0,44,17.31a9.68,9.68,0,0,0-2.86-.45A6.79,6.79,0,0,0,37.29,18a7.18,7.18,0,0,0-2.57,3.22,12.07,12.07,0,0,0-.92,4.88,9.94,9.94,0,0,0,1.93,6.55,6.69,6.69,0,0,0,5.45,2.3,6.5,6.5,0,0,0,3.17-.77A5.55,5.55,0,0,0,46.54,32a6.66,6.66,0,0,0,.1-6.1,5.13,5.13,0,0,0-1.89-2A5,5,0,0,0,42.05,23.11Zm-1.15,8.3a2,2,0,0,1-1.55-.66,2.78,2.78,0,0,1,0-3.44,2.22,2.22,0,0,1,3.13,0A2.53,2.53,0,0,1,43,29a2.5,2.5,0,0,1-.58,1.73A2,2,0,0,1,40.9,31.41Zm14.65,3.52a5.83,5.83,0,0,0,5-2.32q1.73-2.33,1.73-6.73c0-2.91-.58-5.15-1.74-6.7a5.85,5.85,0,0,0-5-2.32,5.84,5.84,0,0,0-5,2.32c-1.15,1.55-1.72,3.79-1.72,6.7s.57,5.18,1.72,6.73A5.84,5.84,0,0,0,55.55,34.93Zm0-3.47a1.79,1.79,0,0,1-1.72-1.3,12.44,12.44,0,0,1-.53-4.28,12.31,12.31,0,0,1,.53-4.26,1.78,1.78,0,0,1,1.72-1.29,1.81,1.81,0,0,1,1.73,1.3,12.41,12.41,0,0,1,.52,4.25,12.49,12.49,0,0,1-.52,4.28A1.81,1.81,0,0,1,55.55,31.46ZM20.49,69.54a5,5,0,0,0-2.12.46,3.9,3.9,0,0,0-1.53,1.27A6.75,6.75,0,0,1,17.77,68a2.42,2.42,0,0,1,2.07-1.16A3.43,3.43,0,0,1,21,67c.36.14.82.34,1.37.6l.55.28.75.36a1.77,1.77,0,0,0,.63.11,1.33,1.33,0,0,0,1.06-.54,2,2,0,0,0,.44-1.31,1.87,1.87,0,0,0-.19-.87A2.24,2.24,0,0,0,25,65a8,8,0,0,0-2.52-1.25,9.63,9.63,0,0,0-2.86-.45,6.79,6.79,0,0,0-3.89,1.13,7.34,7.34,0,0,0-2.57,3.21,12.09,12.09,0,0,0-.91,4.89,10,10,0,0,0,1.92,6.55,6.73,6.73,0,0,0,5.45,2.3,6.43,6.43,0,0,0,3.18-.78A5.52,5.52,0,0,0,25,78.43a6.21,6.21,0,0,0,.79-3.14,6.36,6.36,0,0,0-.68-3,5.13,5.13,0,0,0-1.89-2A5.07,5.07,0,0,0,20.49,69.54Zm-1.15,8.3a2,2,0,0,1-1.55-.66,2.44,2.44,0,0,1-.6-1.71,2.5,2.5,0,0,1,.58-1.73,2,2,0,0,1,1.57-.65,2,2,0,0,1,1.56.64,2.56,2.56,0,0,1,.56,1.74,2.51,2.51,0,0,1-.57,1.72A2,2,0,0,1,19.34,77.84Zm54.58-.35h-2V65.64A2.16,2.16,0,0,0,71.26,64a2.21,2.21,0,0,0-1.61-.6,4.29,4.29,0,0,0-2.08.62l-4,2.33a1.69,1.69,0,0,0-.87,1.55,2.06,2.06,0,0,0,.5,1.36,1.49,1.49,0,0,0,1.2.61,1.65,1.65,0,0,0,.87-.25l2-1.17v9h-2a2.5,2.5,0,0,0-1.65.45,1.68,1.68,0,0,0-.53,1.35c0,1.24.73,1.85,2.18,1.85h8.67c1.45,0,2.18-.61,2.18-1.85a1.68,1.68,0,0,0-.53-1.35A2.5,2.5,0,0,0,73.92,77.49Zm9.7,3.88a5.85,5.85,0,0,0,5-2.33q1.72-2.33,1.73-6.72t-1.74-6.7a6.52,6.52,0,0,0-10,0q-1.73,2.32-1.72,6.7T78.62,79A5.85,5.85,0,0,0,83.62,81.37Zm0-3.48a1.78,1.78,0,0,1-1.72-1.3,12.37,12.37,0,0,1-.53-4.27,12.33,12.33,0,0,1,.53-4.27,1.8,1.8,0,0,1,3.45,0,12.33,12.33,0,0,1,.52,4.25,12.43,12.43,0,0,1-.52,4.27A1.79,1.79,0,0,1,83.62,77.89Z"/></svg>