<svg id="Layer_1" data-name="Layer 1" xmlns="http://www.w3.org/2000/svg" viewBox="0 0 100 100"><title>l1_2_1</title><path d="M94.18,73.57A17.5,17.5,0,1,1,64.62,60.91l-11-16.27a17.26,17.26,0,0,1-9.52-.08L32.94,61.21h0a17.55,17.55,0,1,1-5.83-3.86L37.9,41.26A17.51,17.51,0,1,1,60,41.43L70.55,57.2A17.45,17.45,0,0,1,94.18,73.57Zm-42-11.69,4.32-4.28a2.34,2.34,0,0,0,.72-1.72,2.11,2.11,0,0,0-.72-1.64,2.24,2.24,0,0,0-1.68-.72,2.3,2.3,0,0,0-1.68.72l-4.32,4.32-4.32-4.32a2.37,2.37,0,0,0-1.68-.76,2.08,2.08,0,0,0-1.64.72,2.36,2.36,0,0,0-.72,1.72,2.41,2.41,0,0,0,.68,1.68l4.32,4.28L41.17,66.2a2.32,2.32,0,0,0,0,3.36,2.41,2.41,0,0,0,1.68.68,2.28,2.28,0,0,0,1.68-.68l4.32-4.32,4.32,4.32a2.36,2.36,0,0,0,4-1.68,2.22,2.22,0,0,0-.68-1.68Zm-6.59-29.3h-5L44.15,29a11.82,11.82,0,0,0,2.09-2.81,6.27,6.27,0,0,0,.61-2.79,4.57,4.57,0,0,0-.76-2.61A4.87,4.87,0,0,0,43.92,19a8,8,0,0,0-3.25-.61,9.71,9.71,0,0,0-2.88.45,9.45,9.45,0,0,0-2.64,1.25,1.62,1.62,0,0,0-.61.65,2.09,2.09,0,0,0-.17.9A2.16,2.16,0,0,0,34.8,23a1.26,1.26,0,0,0,1.05.57,1.45,1.45,0,0,0,.47-.08,2.89,2.89,0,0,0,.52-.24l.38-.21.5-.25a11.62,11.62,0,0,1,1.42-.61,4,4,0,0,1,1.33-.21,2,2,0,0,1,1.39.45,1.66,1.66,0,0,1,.49,1.3,4.87,4.87,0,0,1-1.65,3.17l-5.3,5.53a2.71,2.71,0,0,0-.85,1.95,1.86,1.86,0,0,0,.52,1.36,1.91,1.91,0,0,0,1.43.54h9.12a2.51,2.51,0,0,0,1.64-.45,1.72,1.72,0,0,0,.54-1.4A1.66,1.66,0,0,0,47.26,33,2.57,2.57,0,0,0,45.62,32.58ZM59.8,27.15a3.73,3.73,0,0,0,2-1.47,4.32,4.32,0,0,0,.71-2.5,4.13,4.13,0,0,0-1.73-3.52A7.8,7.8,0,0,0,56,18.38a7.77,7.77,0,0,0-4.72,1.28,4.13,4.13,0,0,0-1.75,3.52,4.28,4.28,0,0,0,.69,2.43,4.15,4.15,0,0,0,2,1.54,4.18,4.18,0,0,0-2.35,1.49,4.46,4.46,0,0,0-.82,2.74,4.31,4.31,0,0,0,1.86,3.71A8.59,8.59,0,0,0,56,36.43a8.59,8.59,0,0,0,5.09-1.34A4.31,4.31,0,0,0,63,31.38a4.36,4.36,0,0,0-.81-2.69A4.31,4.31,0,0,0,59.8,27.15ZM56,33c-1.82,0-2.72-.65-2.72-2s.9-1.95,2.72-1.95,2.72.65,2.72,1.95S57.82,33,56,33Zm0-11.1a2.65,2.65,0,0,1,1.67.44,1.68,1.68,0,0,1,.55,1.41,1.74,1.74,0,0,1-.55,1.43,3.32,3.32,0,0,1-3.34,0,1.74,1.74,0,0,1-.55-1.43,1.68,1.68,0,0,1,.55-1.41A2.65,2.65,0,0,1,56,21.85ZM24.8,75.18h-.55v-9a2.1,2.1,0,0,0-.68-1.67A2.32,2.32,0,0,0,22,63.88a2.46,2.46,0,0,0-1.12.27,2.23,2.23,0,0,0-.88.76L12.8,75.11a2.79,2.79,0,0,0-.55,1.65,1.84,1.84,0,0,0,1.95,1.92h5.57v.85a2.25,2.25,0,0,0,.61,1.71,2.29,2.29,0,0,0,1.62.57,2.32,2.32,0,0,0,1.62-.57,2.22,2.22,0,0,0,.63-1.71v-.85h.55c1.45,0,2.17-.59,2.17-1.77S26.25,75.18,24.8,75.18Zm-8,0,3-4.32v4.32ZM82.6,65H72.8a2.44,2.44,0,0,0-1.65.47,1.74,1.74,0,0,0-.52,1.38,1.71,1.71,0,0,0,.51,1.35,2.5,2.5,0,0,0,1.66.45h6.25l-6.42,11a2.4,2.4,0,0,0-.35,1.2A1.83,1.83,0,0,0,73,82.3a2.3,2.3,0,0,0,1.55.58,2.17,2.17,0,0,0,1.07-.28,2.31,2.31,0,0,0,.86-.89L84,68.58a3.15,3.15,0,0,0,.48-1.65A1.93,1.93,0,0,0,84,65.57,1.77,1.77,0,0,0,82.6,65Z"/></svg>