<svg id="Layer_1" data-name="Layer 1" xmlns="http://www.w3.org/2000/svg" viewBox="0 0 189.03 115.89"><title>l1_2_1</title><path d="M189,98.29a17.5,17.5,0,1,1-29.56-12.66l-11-16.28a17.13,17.13,0,0,1-9.52-.07L127.78,85.92h0a17.53,17.53,0,1,1-5.84-3.86L132.75,66a17.48,17.48,0,0,1-2.11-24.89L110,27.39a17.5,17.5,0,0,1-28.87,0v0L59.66,41.66a17.47,17.47,0,0,1-2.74,24.59L67.51,82a17.52,17.52,0,1,1-5.94,3.72l-11-16.27a17.22,17.22,0,0,1-9.51-.08L29.89,86h0a17.6,17.6,0,1,1-5.83-3.85l10.8-16.09a17.49,17.49,0,0,1,19.29-29L78.38,20.73a17.25,17.25,0,0,1-.31-3.23,17.5,17.5,0,0,1,35,0,17,17,0,0,1-.31,3.21q11.83,8,23.65,16a17.48,17.48,0,0,1,18.41,29.46L165.4,81.91A17.47,17.47,0,0,1,189,98.29ZM98.9,54l5.4-5.35a2.94,2.94,0,0,0,.9-2.15,2.62,2.62,0,0,0-.9-2,2.78,2.78,0,0,0-2.1-.9,2.88,2.88,0,0,0-2.1.9l-5.4,5.4-5.4-5.4a3,3,0,0,0-2.1-1,2.6,2.6,0,0,0-2,.9,2.94,2.94,0,0,0-.9,2.15,3.05,3.05,0,0,0,.85,2.1L90.5,54l-5.4,5.4a2.9,2.9,0,0,0,0,4.2,3.05,3.05,0,0,0,2.1.85,2.85,2.85,0,0,0,2.1-.85l5.4-5.4,5.4,5.4a3,3,0,0,0,5.05-2.1,2.76,2.76,0,0,0-.85-2.1ZM92.79,22.43H90.74V10.58A2.16,2.16,0,0,0,90.13,9a2.21,2.21,0,0,0-1.61-.6A4.32,4.32,0,0,0,86.44,9l-4,2.33a1.7,1.7,0,0,0-.87,1.55,2.06,2.06,0,0,0,.5,1.36,1.49,1.49,0,0,0,1.2.61,1.65,1.65,0,0,0,.87-.25l2-1.17v9h-2a2.5,2.5,0,0,0-1.65.45,1.68,1.68,0,0,0-.53,1.35c0,1.24.73,1.85,2.18,1.85h8.67c1.45,0,2.18-.61,2.18-1.85a1.68,1.68,0,0,0-.53-1.35A2.5,2.5,0,0,0,92.79,22.43Zm14.35,0h-5l3.55-3.62A11.82,11.82,0,0,0,107.76,16a6.41,6.41,0,0,0,.61-2.79,4.65,4.65,0,0,0-.76-2.61,4.87,4.87,0,0,0-2.17-1.75,8,8,0,0,0-3.25-.62,10.19,10.19,0,0,0-5.52,1.7,1.61,1.61,0,0,0-.61.65,2.16,2.16,0,0,0-.17.9,2.11,2.11,0,0,0,.43,1.34,1.25,1.25,0,0,0,1.05.56,1.49,1.49,0,0,0,.47-.07,3.24,3.24,0,0,0,.52-.24l.38-.21.5-.25a11.62,11.62,0,0,1,1.42-.61,4,4,0,0,1,1.33-.22,2,2,0,0,1,1.39.45,1.67,1.67,0,0,1,.49,1.3,4.87,4.87,0,0,1-1.65,3.18l-5.3,5.52a2.75,2.75,0,0,0-.85,1.95,1.81,1.81,0,0,0,2,1.9h9.12a2.51,2.51,0,0,0,1.64-.45,1.71,1.71,0,0,0,.54-1.4,1.65,1.65,0,0,0-.54-1.36A2.57,2.57,0,0,0,107.14,22.43Zm-58,63.27,4.32-4.28a2.34,2.34,0,0,0,.72-1.72,2.11,2.11,0,0,0-.72-1.64,2.24,2.24,0,0,0-1.68-.72,2.3,2.3,0,0,0-1.68.72L45.8,82.38l-4.32-4.32a2.37,2.37,0,0,0-1.68-.76,2.08,2.08,0,0,0-1.64.72,2.36,2.36,0,0,0-.72,1.72,2.41,2.41,0,0,0,.68,1.68l4.32,4.28L38.12,90a2.32,2.32,0,0,0,0,3.36,2.41,2.41,0,0,0,1.68.68,2.28,2.28,0,0,0,1.68-.68l4.32-4.32,4.32,4.32a2.36,2.36,0,0,0,4-1.68A2.22,2.22,0,0,0,53.48,90ZM49.61,53a4.06,4.06,0,0,0,2-1.51A4.13,4.13,0,0,0,52.31,49a4.38,4.38,0,0,0-.76-2.55,4.92,4.92,0,0,0-2.17-1.7,8.33,8.33,0,0,0-3.27-.6,10,10,0,0,0-3,.45,8.48,8.48,0,0,0-2.54,1.25,2.18,2.18,0,0,0-.6.68,2,2,0,0,0-.17.87,2.08,2.08,0,0,0,.42,1.32,1.3,1.3,0,0,0,1.05.53,1.54,1.54,0,0,0,.63-.11,7.63,7.63,0,0,0,.75-.36l.52-.25a13.4,13.4,0,0,1,1.37-.6,3.72,3.72,0,0,1,1.31-.23,2.14,2.14,0,0,1,1.52.52A1.85,1.85,0,0,1,48,49.69,1.4,1.4,0,0,1,47.34,51a3.79,3.79,0,0,1-2,.4h-1.1a1.44,1.44,0,0,0-1.18.52,2.07,2.07,0,0,0,0,2.5,1.45,1.45,0,0,0,1.18.53h1.55a3.8,3.8,0,0,1,2.05.42,1.57,1.57,0,0,1,.62,1.4,1.73,1.73,0,0,1-.61,1.5,3.47,3.47,0,0,1-2,.45,4.59,4.59,0,0,1-1.44-.21A11.13,11.13,0,0,1,43,57.87l-.31-.14-.24-.11a5.93,5.93,0,0,0-.75-.36,1.52,1.52,0,0,0-.62-.12,1.28,1.28,0,0,0-1,.54A2.08,2.08,0,0,0,39.56,59a1.93,1.93,0,0,0,.18.87,1.79,1.79,0,0,0,.6.68,8,8,0,0,0,2.6,1.27,11.14,11.14,0,0,0,3.12.43,9.37,9.37,0,0,0,3.54-.61,5.27,5.27,0,0,0,2.34-1.74,4.35,4.35,0,0,0,.82-2.65,4.48,4.48,0,0,0-.83-2.72A4.24,4.24,0,0,0,49.61,53Zm-29,45.94a4.11,4.11,0,0,0,2-1.51A4.2,4.2,0,0,0,23.33,95a4.45,4.45,0,0,0-.76-2.55,5,5,0,0,0-2.18-1.7,8.28,8.28,0,0,0-3.26-.6,10,10,0,0,0-3,.45,8.37,8.37,0,0,0-2.54,1.25,2.18,2.18,0,0,0-.6.68,1.87,1.87,0,0,0-.18.87,2,2,0,0,0,.43,1.32,1.27,1.27,0,0,0,1.05.53,1.52,1.52,0,0,0,.62-.11,5.93,5.93,0,0,0,.75-.36l.53-.25a13.31,13.31,0,0,1,1.36-.6,3.8,3.8,0,0,1,1.31-.23,2.18,2.18,0,0,1,1.53.52A1.85,1.85,0,0,1,19,95.63a1.4,1.4,0,0,1-.63,1.28,3.77,3.77,0,0,1-2,.4h-1.1a1.41,1.41,0,0,0-1.17.52,2,2,0,0,0-.43,1.25,1.93,1.93,0,0,0,.43,1.25,1.42,1.42,0,0,0,1.17.53H16.8a3.78,3.78,0,0,1,2.05.42,1.57,1.57,0,0,1,.63,1.4,1.76,1.76,0,0,1-.61,1.5,3.49,3.49,0,0,1-2,.45,4.53,4.53,0,0,1-1.43-.21,10.07,10.07,0,0,1-1.44-.61l-.31-.14-.24-.11a7.63,7.63,0,0,0-.75-.36,1.57,1.57,0,0,0-.63-.12,1.31,1.31,0,0,0-1.05.54,2.28,2.28,0,0,0-.25,2.18,2,2,0,0,0,.6.68,8.08,8.08,0,0,0,2.6,1.27,11.16,11.16,0,0,0,3.13.43,9.37,9.37,0,0,0,3.54-.61A5.3,5.3,0,0,0,23,105.83a4.36,4.36,0,0,0,.83-2.65,4.42,4.42,0,0,0-.84-2.72A4.25,4.25,0,0,0,20.63,98.91Zm58.18,4.92h-2V92a2.1,2.1,0,0,0-2.23-2.23,4.18,4.18,0,0,0-2.07.63l-4,2.32a1.69,1.69,0,0,0-.88,1.55,2.14,2.14,0,0,0,.5,1.37,1.52,1.52,0,0,0,1.2.61,1.71,1.71,0,0,0,.88-.25l2-1.18v9h-2a2.5,2.5,0,0,0-1.65.45,1.68,1.68,0,0,0-.52,1.35c0,1.23.72,1.85,2.17,1.85h8.68c1.45,0,2.17-.62,2.17-1.85a1.68,1.68,0,0,0-.52-1.35A2.5,2.5,0,0,0,78.81,103.83ZM147.05,85.6l4.32-4.28a2.34,2.34,0,0,0,.72-1.72,2.1,2.1,0,0,0-.72-1.64,2.21,2.21,0,0,0-1.68-.72A2.3,2.3,0,0,0,148,78l-4.32,4.32L139.37,78a2.3,2.3,0,0,0-1.68-.76,2.11,2.11,0,0,0-1.64.72,2.34,2.34,0,0,0-.72,1.72,2.49,2.49,0,0,0,.68,1.68l4.32,4.28L136,89.92a2.32,2.32,0,0,0,0,3.36,2.49,2.49,0,0,0,1.68.68,2.28,2.28,0,0,0,1.68-.68L143.69,89,148,93.28a2.32,2.32,0,0,0,3.36,0,2.25,2.25,0,0,0,.68-1.68,2.19,2.19,0,0,0-.68-1.68Zm2.66-31h-.55v-9a2.13,2.13,0,0,0-.68-1.67,2.35,2.35,0,0,0-1.62-.6,2.55,2.55,0,0,0-1.11.26,2.34,2.34,0,0,0-.89.76l-7.15,10.2a2.79,2.79,0,0,0-.55,1.65,1.93,1.93,0,0,0,.52,1.38,1.88,1.88,0,0,0,1.43.55h5.57v.85a2.21,2.21,0,0,0,.62,1.7,2.26,2.26,0,0,0,1.61.57,2.29,2.29,0,0,0,1.62-.57,2.18,2.18,0,0,0,.63-1.7v-.85h.55c1.45,0,2.17-.59,2.17-1.78S151.16,54.57,149.71,54.57Zm-8,0,3-4.33v4.33Zm-21.77,49.16h-5l3.55-3.63a11.82,11.82,0,0,0,2.09-2.81,6.27,6.27,0,0,0,.61-2.79,4.57,4.57,0,0,0-.76-2.61,4.9,4.9,0,0,0-2.16-1.75,8.05,8.05,0,0,0-3.25-.61,9.77,9.77,0,0,0-2.89.45,9.45,9.45,0,0,0-2.64,1.25,1.62,1.62,0,0,0-.61.65,2.1,2.1,0,0,0-.16.9,2.15,2.15,0,0,0,.42,1.33,1.26,1.26,0,0,0,1,.57,1.51,1.51,0,0,0,.48-.08,2.83,2.83,0,0,0,.51-.24l.39-.21.5-.25a12.53,12.53,0,0,1,1.41-.61,4.09,4.09,0,0,1,1.34-.21,1.94,1.94,0,0,1,1.38.45,1.66,1.66,0,0,1,.49,1.3A4.87,4.87,0,0,1,115,98l-5.3,5.53a2.71,2.71,0,0,0-.85,2,1.84,1.84,0,0,0,2,1.9h9.13a2.5,2.5,0,0,0,1.63-.45,1.72,1.72,0,0,0,.54-1.4,1.67,1.67,0,0,0-.54-1.37A2.56,2.56,0,0,0,119.91,103.73Zm56.13-1h-5l3.55-3.63a11.55,11.55,0,0,0,2.09-2.81,6.27,6.27,0,0,0,.61-2.79,4.57,4.57,0,0,0-.76-2.61,4.9,4.9,0,0,0-2.16-1.75,8,8,0,0,0-3.25-.61,10.19,10.19,0,0,0-5.53,1.7,1.62,1.62,0,0,0-.61.65,2.1,2.1,0,0,0-.16.9,2.15,2.15,0,0,0,.42,1.33,1.29,1.29,0,0,0,1,.57,1.51,1.51,0,0,0,.48-.08,2.83,2.83,0,0,0,.51-.24l.39-.21.5-.25a10.92,10.92,0,0,1,1.41-.61,4.14,4.14,0,0,1,1.34-.21,2,2,0,0,1,1.39.45,1.69,1.69,0,0,1,.48,1.3A4.87,4.87,0,0,1,171.11,97l-5.3,5.53a2.75,2.75,0,0,0-.85,2,1.84,1.84,0,0,0,1.95,1.9H176a2.53,2.53,0,0,0,1.64-.45,1.75,1.75,0,0,0,.53-1.4,1.7,1.7,0,0,0-.53-1.37A2.59,2.59,0,0,0,176,102.73Z"/></svg>