<svg id="Layer_1" data-name="Layer 1" xmlns="http://www.w3.org/2000/svg" viewBox="0 0 147.04 126.8"><title>l1_2_1</title><path d="M147,109.3a17.5,17.5,0,1,1-29.56-12.66l-11-16.27A17.26,17.26,0,0,1,97,80.29L85.79,96.94h0A17.64,17.64,0,1,1,80,93.08L90.76,77a17.45,17.45,0,0,1-3.09-23.62c.1-.15.21-.29.32-.43s.35-.48.54-.7A17,17,0,0,1,90,50.64L79,34.37a17.26,17.26,0,0,1-9.52-.08L58.3,50.94h0a17.63,17.63,0,0,1-1.39,26.21,24.29,24.29,0,0,1-3.24,1.94,23.42,23.42,0,0,1-3.07,1.27,17.13,17.13,0,0,1-9.52-.07L29.88,96.93h0A17.53,17.53,0,1,1,24,93.07L34.84,77a17.54,17.54,0,0,1,17.62-29.9L63.27,31a17.51,17.51,0,1,1,22.07.17L95.92,46.92a17.56,17.56,0,0,1,16.91,30.24l10.58,15.76A17.47,17.47,0,0,1,147,109.3ZM77.57,50.61l4.32-4.28a2.34,2.34,0,0,0,.72-1.72A2.1,2.1,0,0,0,81.89,43a2.21,2.21,0,0,0-1.68-.72,2.3,2.3,0,0,0-1.68.72l-4.32,4.32L69.89,43a2.3,2.3,0,0,0-1.68-.76,2.11,2.11,0,0,0-1.64.72,2.34,2.34,0,0,0-.72,1.72,2.49,2.49,0,0,0,.68,1.68l4.32,4.28-4.32,4.32a2.32,2.32,0,0,0,0,3.36,2.49,2.49,0,0,0,1.68.68,2.28,2.28,0,0,0,1.68-.68L74.21,54l4.32,4.32a2.32,2.32,0,0,0,3.36,0,2.25,2.25,0,0,0,.68-1.68,2.19,2.19,0,0,0-.68-1.68ZM48.86,95.43l4.32-4.28a2.34,2.34,0,0,0,.72-1.72,2.1,2.1,0,0,0-.72-1.64,2.24,2.24,0,0,0-1.68-.72,2.3,2.3,0,0,0-1.68.72L45.5,92.11l-4.32-4.32A2.33,2.33,0,0,0,39.5,87a2.08,2.08,0,0,0-1.64.72,2.34,2.34,0,0,0-.72,1.72,2.44,2.44,0,0,0,.68,1.68l4.32,4.28-4.32,4.32a2.32,2.32,0,0,0,0,3.36,2.45,2.45,0,0,0,1.68.68,2.32,2.32,0,0,0,1.68-.68l4.32-4.32,4.32,4.32a2.36,2.36,0,0,0,4-1.68,2.22,2.22,0,0,0-.68-1.68Zm56.07,0,4.32-4.28a2.34,2.34,0,0,0,.72-1.72,2.1,2.1,0,0,0-.72-1.64,2.21,2.21,0,0,0-1.68-.72,2.3,2.3,0,0,0-1.68.72l-4.32,4.32-4.32-4.32A2.33,2.33,0,0,0,95.57,87a2.1,2.1,0,0,0-1.64.72,2.34,2.34,0,0,0-.72,1.72,2.49,2.49,0,0,0,.68,1.68l4.32,4.28-4.32,4.32a2.32,2.32,0,0,0,0,3.36,2.49,2.49,0,0,0,1.68.68,2.28,2.28,0,0,0,1.68-.68l4.32-4.32,4.32,4.32a2.36,2.36,0,0,0,4-1.68,2.22,2.22,0,0,0-.68-1.68ZM72,21.3H67l3.55-3.62a11.74,11.74,0,0,0,2.09-2.81,6.33,6.33,0,0,0,.61-2.79,4.53,4.53,0,0,0-.76-2.61,4.83,4.83,0,0,0-2.16-1.75A8,8,0,0,0,67,7.1a9.82,9.82,0,0,0-2.89.45A10,10,0,0,0,61.5,8.8a1.68,1.68,0,0,0-.61.65,2.16,2.16,0,0,0-.16.9,2.18,2.18,0,0,0,.42,1.34,1.3,1.3,0,0,0,1.05.56,1.51,1.51,0,0,0,.48-.07,2.83,2.83,0,0,0,.51-.24l.39-.21.5-.25a10.92,10.92,0,0,1,1.41-.61,3.88,3.88,0,0,1,1.34-.22,2,2,0,0,1,1.39.45,1.71,1.71,0,0,1,.48,1.3,4.87,4.87,0,0,1-1.65,3.18l-5.3,5.52a2.79,2.79,0,0,0-.85,1.95,1.85,1.85,0,0,0,.53,1.36,1.88,1.88,0,0,0,1.42.54H72a2.53,2.53,0,0,0,1.64-.45,1.74,1.74,0,0,0,.53-1.4,1.68,1.68,0,0,0-.53-1.36A2.59,2.59,0,0,0,72,21.3Zm15,0H82l3.55-3.62a12,12,0,0,0,2.09-2.81,6.33,6.33,0,0,0,.61-2.79,4.53,4.53,0,0,0-.76-2.61A4.81,4.81,0,0,0,85.3,7.72a8,8,0,0,0-3.25-.62,10.19,10.19,0,0,0-5.52,1.7,1.68,1.68,0,0,0-.61.65,2.16,2.16,0,0,0-.16.9,2.18,2.18,0,0,0,.42,1.34,1.28,1.28,0,0,0,1,.56,1.45,1.45,0,0,0,.47-.07,2.89,2.89,0,0,0,.52-.24l.38-.21.5-.25a11.62,11.62,0,0,1,1.42-.61,3.83,3.83,0,0,1,1.33-.22,2,2,0,0,1,1.39.45,1.67,1.67,0,0,1,.49,1.3,4.87,4.87,0,0,1-1.65,3.18l-5.3,5.52a2.75,2.75,0,0,0-.85,1.95,1.85,1.85,0,0,0,.52,1.36,1.91,1.91,0,0,0,1.43.54H87a2.5,2.5,0,0,0,1.63-.45,1.71,1.71,0,0,0,.54-1.4,1.65,1.65,0,0,0-.54-1.36A2.56,2.56,0,0,0,87,21.3ZM99.37,67.81H97.32V56a2.16,2.16,0,0,0-.61-1.62,2.21,2.21,0,0,0-1.61-.6,4.32,4.32,0,0,0-2.08.62l-4,2.33a1.7,1.7,0,0,0-.87,1.55,2.06,2.06,0,0,0,.5,1.36,1.49,1.49,0,0,0,1.2.61,1.65,1.65,0,0,0,.87-.25l2-1.17v9h-2a2.5,2.5,0,0,0-1.65.45,1.68,1.68,0,0,0-.53,1.35c0,1.24.73,1.85,2.18,1.85h8.67c1.45,0,2.18-.61,2.18-1.85a1.68,1.68,0,0,0-.53-1.35A2.5,2.5,0,0,0,99.37,67.81Zm15,0h-2.05V56a2.16,2.16,0,0,0-.61-1.62,2.21,2.21,0,0,0-1.61-.6,4.32,4.32,0,0,0-2.08.62l-4,2.33a1.7,1.7,0,0,0-.87,1.55,2.06,2.06,0,0,0,.5,1.36,1.49,1.49,0,0,0,1.2.61,1.65,1.65,0,0,0,.87-.25l2-1.17v9h-2a2.5,2.5,0,0,0-1.65.45,1.68,1.68,0,0,0-.53,1.35c0,1.24.73,1.85,2.18,1.85h8.67c1.45,0,2.18-.61,2.18-1.85a1.68,1.68,0,0,0-.53-1.35A2.5,2.5,0,0,0,114.37,67.81ZM77.82,115h-2V103.17a2.16,2.16,0,0,0-.61-1.62,2.22,2.22,0,0,0-1.62-.6,4.26,4.26,0,0,0-2.07.62l-4,2.33a1.71,1.71,0,0,0-.88,1.55,2.12,2.12,0,0,0,.5,1.36,1.51,1.51,0,0,0,1.2.61,1.68,1.68,0,0,0,.88-.25l2-1.17v9h-2a2.5,2.5,0,0,0-1.65.45,1.68,1.68,0,0,0-.52,1.35c0,1.24.72,1.85,2.17,1.85h8.68c1.45,0,2.17-.61,2.17-1.85a1.68,1.68,0,0,0-.52-1.35A2.5,2.5,0,0,0,77.82,115Zm-56.31-1h-5L20,110.4a11.74,11.74,0,0,0,2.08-2.81,6.31,6.31,0,0,0,.62-2.79,4.56,4.56,0,0,0-.77-2.61,4.83,4.83,0,0,0-2.16-1.75,8,8,0,0,0-3.25-.62,10.13,10.13,0,0,0-5.52,1.7,1.72,1.72,0,0,0-.62.65,2.34,2.34,0,0,0-.16.9,2.11,2.11,0,0,0,.43,1.34,1.25,1.25,0,0,0,1.05.56,1.49,1.49,0,0,0,.47-.07,2.83,2.83,0,0,0,.51-.24l.39-.21.5-.25a11.55,11.55,0,0,1,1.41-.61,3.88,3.88,0,0,1,1.34-.22,2,2,0,0,1,1.39.45,1.71,1.71,0,0,1,.49,1.3,4.87,4.87,0,0,1-1.65,3.18l-5.3,5.52a2.75,2.75,0,0,0-.85,2,1.89,1.89,0,0,0,.52,1.37,1.94,1.94,0,0,0,1.43.53h9.12a2.53,2.53,0,0,0,1.64-.45,1.71,1.71,0,0,0,.54-1.4,1.65,1.65,0,0,0-.54-1.36A2.59,2.59,0,0,0,21.51,114ZM50.13,68.81h-5l3.55-3.62a11.82,11.82,0,0,0,2.09-2.81,6.41,6.41,0,0,0,.61-2.79A4.62,4.62,0,0,0,50.6,57a4.81,4.81,0,0,0-2.17-1.75,8,8,0,0,0-3.25-.62,10.19,10.19,0,0,0-5.52,1.7,1.61,1.61,0,0,0-.61.65,2.16,2.16,0,0,0-.17.9,2.11,2.11,0,0,0,.43,1.34,1.25,1.25,0,0,0,1,.56,1.49,1.49,0,0,0,.47-.07,3.24,3.24,0,0,0,.52-.24l.38-.21.5-.25a11.62,11.62,0,0,1,1.42-.61A3.79,3.79,0,0,1,45,58.16a2,2,0,0,1,1.39.45,1.67,1.67,0,0,1,.49,1.3,4.87,4.87,0,0,1-1.65,3.18l-5.3,5.52a2.75,2.75,0,0,0-.85,2A1.81,1.81,0,0,0,41,72.46h9.12A2.51,2.51,0,0,0,51.77,72a1.71,1.71,0,0,0,.54-1.4,1.65,1.65,0,0,0-.54-1.36A2.57,2.57,0,0,0,50.13,68.81ZM126.53,114h-2V102.17a2.16,2.16,0,0,0-.61-1.62,2.2,2.2,0,0,0-1.61-.6,4.32,4.32,0,0,0-2.08.62l-4,2.33a1.7,1.7,0,0,0-.87,1.55,2.06,2.06,0,0,0,.5,1.36,1.49,1.49,0,0,0,1.2.61,1.65,1.65,0,0,0,.87-.25l2-1.17v9h-2a2.5,2.5,0,0,0-1.65.45,1.68,1.68,0,0,0-.53,1.35c0,1.24.73,1.85,2.18,1.85h8.67c1.45,0,2.18-.61,2.18-1.85a1.68,1.68,0,0,0-.53-1.35A2.5,2.5,0,0,0,126.53,114Zm15,0h-2.05V102.17a2.16,2.16,0,0,0-.61-1.62,2.2,2.2,0,0,0-1.61-.6,4.32,4.32,0,0,0-2.08.62l-4,2.33a1.7,1.7,0,0,0-.87,1.55,2.06,2.06,0,0,0,.5,1.36,1.49,1.49,0,0,0,1.2.61,1.65,1.65,0,0,0,.87-.25l2-1.17v9h-2a2.5,2.5,0,0,0-1.65.45,1.68,1.68,0,0,0-.53,1.35c0,1.24.73,1.85,2.18,1.85h8.67c1.45,0,2.18-.61,2.18-1.85a1.68,1.68,0,0,0-.53-1.35A2.5,2.5,0,0,0,141.53,114Z"/></svg>