<svg id="Layer_1" data-name="Layer 1" xmlns="http://www.w3.org/2000/svg" viewBox="0 0 100 100"><title>l1_2_1</title><path d="M93.18,73.57A17.5,17.5,0,1,1,63.62,60.91l-11-16.27a17.26,17.26,0,0,1-9.52-.08L31.94,61.21h0a17.55,17.55,0,1,1-5.83-3.86L36.9,41.26A17.51,17.51,0,1,1,59,41.43L69.55,57.2A17.45,17.45,0,0,1,93.18,73.57Zm-42-11.69,4.32-4.28a2.34,2.34,0,0,0,.72-1.72,2.11,2.11,0,0,0-.72-1.64,2.24,2.24,0,0,0-1.68-.72,2.3,2.3,0,0,0-1.68.72l-4.32,4.32-4.32-4.32a2.37,2.37,0,0,0-1.68-.76,2.08,2.08,0,0,0-1.64.72,2.36,2.36,0,0,0-.72,1.72,2.41,2.41,0,0,0,.68,1.68l4.32,4.28L40.17,66.2a2.32,2.32,0,0,0,0,3.36,2.41,2.41,0,0,0,1.68.68,2.28,2.28,0,0,0,1.68-.68l4.32-4.32,4.32,4.32a2.36,2.36,0,0,0,4-1.68,2.22,2.22,0,0,0-.68-1.68Zm-3.35-43.5a6.39,6.39,0,0,0-3.17.77,5.55,5.55,0,0,0-2.19,2.16,6.66,6.66,0,0,0-.1,6.1,5.13,5.13,0,0,0,1.89,2.05,5.07,5.07,0,0,0,2.7.74,4.79,4.79,0,0,0,2.11-.46,4.08,4.08,0,0,0,1.54-1.26,6.7,6.7,0,0,1-.94,3.26,2.4,2.4,0,0,1-2.06,1.16,3.39,3.39,0,0,1-1.15-.2,13.18,13.18,0,0,1-1.38-.6l-.55-.27c-.32-.17-.57-.29-.75-.37a1.71,1.71,0,0,0-.62-.11,1.34,1.34,0,0,0-1.07.54,2,2,0,0,0-.43,1.31,1.94,1.94,0,0,0,.18.88,2.24,2.24,0,0,0,.62.67A8,8,0,0,0,45,36a9.68,9.68,0,0,0,2.86.45,6.76,6.76,0,0,0,3.89-1.12,7.32,7.32,0,0,0,2.58-3.22,12.24,12.24,0,0,0,.91-4.88q0-4.26-1.93-6.55A6.69,6.69,0,0,0,47.86,18.38Zm.28,8.27A1.94,1.94,0,0,1,46.58,26,2.49,2.49,0,0,1,46,24.28a2.48,2.48,0,0,1,.58-1.73,2,2,0,0,1,1.55-.65,2,2,0,0,1,1.55.66,2.78,2.78,0,0,1,0,3.44A2,2,0,0,1,48.14,26.65ZM22.6,73.58a4,4,0,0,0,2-1.51,4.11,4.11,0,0,0,.72-2.41,4.34,4.34,0,0,0-.77-2.55,4.92,4.92,0,0,0-2.17-1.7,8.28,8.28,0,0,0-3.26-.6,10.09,10.09,0,0,0-3,.45,8.31,8.31,0,0,0-2.53,1.25,1.72,1.72,0,0,0-.78,1.55,2,2,0,0,0,.43,1.31,1.28,1.28,0,0,0,1.05.54,1.71,1.71,0,0,0,.62-.11c.18-.08.43-.2.75-.37l.53-.25c.5-.25.95-.44,1.36-.6a3.75,3.75,0,0,1,1.31-.22,2.18,2.18,0,0,1,1.53.51A1.89,1.89,0,0,1,21,70.31a1.39,1.39,0,0,1-.63,1.27,3.78,3.78,0,0,1-2,.41h-1.1a1.41,1.41,0,0,0-1.17.52,2,2,0,0,0,0,2.5,1.41,1.41,0,0,0,1.17.52h1.55a3.79,3.79,0,0,1,2.05.43,1.56,1.56,0,0,1,.63,1.4,1.74,1.74,0,0,1-.62,1.5,3.45,3.45,0,0,1-2,.45,4.64,4.64,0,0,1-1.44-.21A11.94,11.94,0,0,1,16,78.49l-.32-.14-.23-.11c-.32-.17-.57-.29-.75-.37a1.81,1.81,0,0,0-.63-.11,1.28,1.28,0,0,0-1,.54,2.06,2.06,0,0,0-.42,1.31,1.91,1.91,0,0,0,.17.86,2.1,2.1,0,0,0,.6.69,8,8,0,0,0,2.6,1.26,11.17,11.17,0,0,0,3.13.44,9.28,9.28,0,0,0,3.53-.61,5.27,5.27,0,0,0,2.34-1.74,4.36,4.36,0,0,0,.83-2.65,4.43,4.43,0,0,0-.84-2.73A4.3,4.3,0,0,0,22.6,73.58Zm56.13,1a4,4,0,0,0,2-1.51,4.17,4.17,0,0,0,.71-2.41,4.34,4.34,0,0,0-.76-2.55,5,5,0,0,0-2.18-1.7,8.28,8.28,0,0,0-3.26-.6,10,10,0,0,0-3,.45,8.37,8.37,0,0,0-2.54,1.25,2.15,2.15,0,0,0-.6.67,1.94,1.94,0,0,0-.18.88,2.06,2.06,0,0,0,.43,1.31,1.28,1.28,0,0,0,1.05.54,1.71,1.71,0,0,0,.62-.11,8.3,8.3,0,0,0,.75-.37l.53-.25a13.31,13.31,0,0,1,1.36-.6A3.79,3.79,0,0,1,75,69.36a2.18,2.18,0,0,1,1.53.51,1.85,1.85,0,0,1,.55,1.44,1.39,1.39,0,0,1-.63,1.27,3.77,3.77,0,0,1-2,.4h-1.1a1.42,1.42,0,0,0-1.17.53,2,2,0,0,0,0,2.5,1.41,1.41,0,0,0,1.17.52H74.9A3.77,3.77,0,0,1,77,77a1.56,1.56,0,0,1,.63,1.4,1.76,1.76,0,0,1-.61,1.5,3.49,3.49,0,0,1-2,.45,4.53,4.53,0,0,1-1.43-.21,10.23,10.23,0,0,1-1.44-.62l-.31-.13-.24-.12-.75-.36a1.73,1.73,0,0,0-.63-.11,1.31,1.31,0,0,0-1.05.54,2.26,2.26,0,0,0-.25,2.17,2.1,2.1,0,0,0,.6.69,8.07,8.07,0,0,0,2.6,1.26,11.22,11.22,0,0,0,3.13.44,9.37,9.37,0,0,0,3.54-.61,5.24,5.24,0,0,0,2.33-1.74,4.36,4.36,0,0,0,.83-2.65A4.43,4.43,0,0,0,81,76.13,4.3,4.3,0,0,0,78.73,74.58Z"/></svg>