<svg id="Layer_1" data-name="Layer 1" xmlns="http://www.w3.org/2000/svg" viewBox="0 0 100 100"><title>l1_2_1</title><path d="M94.57,71.9A17.5,17.5,0,1,1,65,59.24L54.05,43a17.57,17.57,0,0,1-4.61.63,17.3,17.3,0,0,1-4.91-.71L33.32,59.54h0a17.64,17.64,0,1,1-5.84-3.85l10.8-16.09a17.52,17.52,0,1,1,22.08.17L70.94,55.52A17.47,17.47,0,0,1,94.57,71.9Zm-42-11.69,4.32-4.28a2.34,2.34,0,0,0,.72-1.72,2.1,2.1,0,0,0-.72-1.64,2.21,2.21,0,0,0-1.68-.72,2.3,2.3,0,0,0-1.68.72l-4.32,4.32-4.32-4.32a2.33,2.33,0,0,0-1.68-.76,2.1,2.1,0,0,0-1.64.72,2.34,2.34,0,0,0-.72,1.72,2.49,2.49,0,0,0,.68,1.68l4.32,4.28-4.32,4.32a2.32,2.32,0,0,0,0,3.36,2.49,2.49,0,0,0,1.68.68,2.28,2.28,0,0,0,1.68-.68l4.32-4.32,4.32,4.32a2.36,2.36,0,0,0,4-1.68,2.22,2.22,0,0,0-.68-1.68ZM44.53,25.48a4,4,0,0,0,2-1.51,4.15,4.15,0,0,0,.71-2.42A4.38,4.38,0,0,0,46.47,19a4.92,4.92,0,0,0-2.17-1.7A8.3,8.3,0,0,0,41,16.7a10,10,0,0,0-3,.45,8.48,8.48,0,0,0-2.54,1.25,2.07,2.07,0,0,0-.6.68,2,2,0,0,0-.17.87,2,2,0,0,0,.42,1.31,1.31,1.31,0,0,0,1,.54,1.73,1.73,0,0,0,.63-.11c.18-.07.43-.2.75-.36l.53-.25a13.31,13.31,0,0,1,1.36-.6,3.76,3.76,0,0,1,1.31-.23,2.13,2.13,0,0,1,1.52.51,1.89,1.89,0,0,1,.56,1.44,1.4,1.4,0,0,1-.63,1.28,3.9,3.9,0,0,1-2,.4h-1.1A1.44,1.44,0,0,0,38,24.4a2.07,2.07,0,0,0,0,2.5,1.45,1.45,0,0,0,1.18.53h1.55a3.8,3.8,0,0,1,2,.42,1.57,1.57,0,0,1,.63,1.4,1.74,1.74,0,0,1-.62,1.5,3.47,3.47,0,0,1-2,.45A4.64,4.64,0,0,1,39.32,31a11.94,11.94,0,0,1-1.43-.61l-.32-.14-.24-.11a8.3,8.3,0,0,0-.75-.37,1.71,1.71,0,0,0-.62-.11,1.28,1.28,0,0,0-1.05.54,2.08,2.08,0,0,0-.43,1.31,1.75,1.75,0,0,0,.78,1.55,8.19,8.19,0,0,0,2.6,1.27,11.14,11.14,0,0,0,3.12.43,9.37,9.37,0,0,0,3.54-.61,5.27,5.27,0,0,0,2.34-1.74,4.35,4.35,0,0,0,.82-2.65A4.42,4.42,0,0,0,46.85,27,4.24,4.24,0,0,0,44.53,25.48ZM61,30.9H56l3.55-3.62a11.74,11.74,0,0,0,2.09-2.81,6.33,6.33,0,0,0,.61-2.79,4.53,4.53,0,0,0-.76-2.61,4.83,4.83,0,0,0-2.16-1.75,8,8,0,0,0-3.25-.62,9.82,9.82,0,0,0-2.89.45,10,10,0,0,0-2.64,1.25,1.68,1.68,0,0,0-.61.65,2.44,2.44,0,0,0,.26,2.24,1.3,1.3,0,0,0,1,.56,1.51,1.51,0,0,0,.48-.07,2.83,2.83,0,0,0,.51-.24l.39-.21.5-.25a10.92,10.92,0,0,1,1.41-.61,3.88,3.88,0,0,1,1.34-.22,2,2,0,0,1,1.39.45,1.71,1.71,0,0,1,.48,1.3,4.87,4.87,0,0,1-1.65,3.18l-5.3,5.52a2.79,2.79,0,0,0-.85,1.95A1.85,1.85,0,0,0,50.46,34a1.89,1.89,0,0,0,1.43.54H61a2.53,2.53,0,0,0,1.64-.45,1.71,1.71,0,0,0,.53-1.4,1.65,1.65,0,0,0-.53-1.36A2.59,2.59,0,0,0,61,30.9Zm-36.4,41a3.77,3.77,0,0,0,2-1.47,4.4,4.4,0,0,0,.71-2.5,4.14,4.14,0,0,0-1.74-3.52,7.81,7.81,0,0,0-4.73-1.28,7.87,7.87,0,0,0-4.73,1.28,4.13,4.13,0,0,0-1.75,3.52,4.21,4.21,0,0,0,.7,2.43,4.05,4.05,0,0,0,2,1.54,4.15,4.15,0,0,0-2.35,1.49,4.4,4.4,0,0,0-.82,2.74,4.31,4.31,0,0,0,1.86,3.71,8.59,8.59,0,0,0,5.09,1.34,8.56,8.56,0,0,0,5.08-1.34,4.3,4.3,0,0,0,1.87-3.71,4.37,4.37,0,0,0-.82-2.69A4.32,4.32,0,0,0,24.61,71.91Zm-3.8,5.8q-2.73,0-2.73-1.95t2.73-2c1.81,0,2.72.65,2.72,2S22.62,77.71,20.81,77.71Zm0-11.1a2.67,2.67,0,0,1,1.67.44A1.68,1.68,0,0,1,23,68.46a1.74,1.74,0,0,1-.55,1.43,2.6,2.6,0,0,1-1.67.45,2.63,2.63,0,0,1-1.68-.45,1.74,1.74,0,0,1-.55-1.43,1.68,1.68,0,0,1,.55-1.41A2.7,2.7,0,0,1,20.81,66.61Zm61.5,7.9h-.55v-9a2.13,2.13,0,0,0-.67-1.68,2.36,2.36,0,0,0-1.63-.6,2.58,2.58,0,0,0-1.11.26,2.35,2.35,0,0,0-.89.77l-7.15,10.2a2.82,2.82,0,0,0-.55,1.65,1.89,1.89,0,0,0,.53,1.37,1.85,1.85,0,0,0,1.42.55h5.58v.85a2.21,2.21,0,0,0,.61,1.7,2.24,2.24,0,0,0,1.61.58,2.29,2.29,0,0,0,1.63-.58,2.18,2.18,0,0,0,.62-1.7V78h.55c1.45,0,2.18-.59,2.18-1.77S83.76,74.51,82.31,74.51Zm-8,0,3-4.32v4.32Z"/></svg>