<svg id="Layer_1" data-name="Layer 1" xmlns="http://www.w3.org/2000/svg" viewBox="0 0 100 100"><title>l1_2_1</title><path d="M94,73.57A17.5,17.5,0,1,1,64.42,60.91l-11-16.27a17.51,17.51,0,0,1-4.61.63,17.3,17.3,0,0,1-4.91-.71L32.73,61.21h0a17.6,17.6,0,1,1-5.84-3.86L37.7,41.26a17.51,17.51,0,1,1,22.07.17L70.35,57.2a17.33,17.33,0,0,1,6.13-1.13A17.51,17.51,0,0,1,94,73.57ZM52,61.88l4.32-4.28A2.34,2.34,0,0,0,57,55.88a2.11,2.11,0,0,0-.72-1.64,2.21,2.21,0,0,0-1.68-.72,2.3,2.3,0,0,0-1.68.72l-4.32,4.32-4.32-4.32a2.34,2.34,0,0,0-1.68-.76A2.11,2.11,0,0,0,41,54.2a2.36,2.36,0,0,0-.72,1.72A2.45,2.45,0,0,0,41,57.6l4.32,4.28L41,66.2a2.32,2.32,0,0,0,0,3.36,2.44,2.44,0,0,0,1.68.68,2.25,2.25,0,0,0,1.68-.68l4.32-4.32L53,69.56a2.32,2.32,0,0,0,3.36,0A2.25,2.25,0,0,0,57,67.88a2.19,2.19,0,0,0-.68-1.68ZM42.29,24.62a4.81,4.81,0,0,0-2.12.47,4.08,4.08,0,0,0-1.54,1.26,6.78,6.78,0,0,1,.94-3.26,2.39,2.39,0,0,1,2.06-1.16,3.44,3.44,0,0,1,1.16.19c.36.14.82.34,1.37.6l.55.28a7.63,7.63,0,0,0,.75.36,1.52,1.52,0,0,0,.62.11,1.32,1.32,0,0,0,1.07-.53,2,2,0,0,0,.43-1.32,1.87,1.87,0,0,0-.18-.87,2.21,2.21,0,0,0-.61-.67,7.72,7.72,0,0,0-2.52-1.25,9.38,9.38,0,0,0-2.86-.46,6.79,6.79,0,0,0-3.89,1.13A7.27,7.27,0,0,0,35,22.71,12.09,12.09,0,0,0,34,27.6,10,10,0,0,0,36,34.15a6.72,6.72,0,0,0,5.45,2.3,6.5,6.5,0,0,0,3.17-.77,5.51,5.51,0,0,0,2.19-2.17,6.18,6.18,0,0,0,.79-3.14,6.27,6.27,0,0,0-.69-3A5.18,5.18,0,0,0,45,25.36,5.07,5.07,0,0,0,42.29,24.62Zm-1.16,8.31a2,2,0,0,1-1.55-.67A2.48,2.48,0,0,1,39,30.55a2.45,2.45,0,0,1,.58-1.72,2.23,2.23,0,0,1,3.13,0,2.58,2.58,0,0,1,.56,1.74,2.5,2.5,0,0,1-.57,1.72A2,2,0,0,1,41.13,32.93ZM59,27.15a4.11,4.11,0,0,0,2-1.51,4.2,4.2,0,0,0,.71-2.42,4.33,4.33,0,0,0-.76-2.54A4.9,4.9,0,0,0,58.72,19a8.46,8.46,0,0,0-3.26-.6,9.68,9.68,0,0,0-3,.46A7.93,7.93,0,0,0,50,20.08a2,2,0,0,0-.6.67,1.88,1.88,0,0,0-.17.87,2.08,2.08,0,0,0,.42,1.32,1.27,1.27,0,0,0,1,.53,1.61,1.61,0,0,0,.63-.11A7.63,7.63,0,0,0,52,23l.52-.25a13.31,13.31,0,0,1,1.36-.6,3.81,3.81,0,0,1,1.32-.22,2.17,2.17,0,0,1,1.52.51,1.85,1.85,0,0,1,.55,1.43,1.42,1.42,0,0,1-.62,1.28,3.82,3.82,0,0,1-2,.4H53.58a1.39,1.39,0,0,0-1.17.53A1.93,1.93,0,0,0,52,27.33a2,2,0,0,0,.42,1.25,1.41,1.41,0,0,0,1.17.52h1.55a3.84,3.84,0,0,1,2.06.42,1.6,1.6,0,0,1,.62,1.41,1.76,1.76,0,0,1-.61,1.5,3.56,3.56,0,0,1-2,.44,4.55,4.55,0,0,1-1.44-.21,10.07,10.07,0,0,1-1.44-.61L52,31.91l-.24-.11a7.63,7.63,0,0,0-.75-.36,1.54,1.54,0,0,0-.63-.11,1.3,1.3,0,0,0-1.05.53,2.08,2.08,0,0,0-.42,1.32,2.06,2.06,0,0,0,.17.86,1.91,1.91,0,0,0,.61.68A8,8,0,0,0,52.29,36a11.15,11.15,0,0,0,3.12.44A9.37,9.37,0,0,0,59,35.81a5.26,5.26,0,0,0,2.34-1.73,4.77,4.77,0,0,0,0-5.38A4.25,4.25,0,0,0,59,27.15ZM19.59,64.81a6.5,6.5,0,0,0-3.17.77,5.64,5.64,0,0,0-2.19,2.17,6.66,6.66,0,0,0-.1,6.1A5.2,5.2,0,0,0,16,75.9a5.06,5.06,0,0,0,2.7.73,4.76,4.76,0,0,0,2.11-.46,4,4,0,0,0,1.54-1.26,6.57,6.57,0,0,1-.94,3.26,2.37,2.37,0,0,1-2.06,1.16,3.16,3.16,0,0,1-1.15-.2,13.18,13.18,0,0,1-1.38-.6l-.55-.27a5.93,5.93,0,0,0-.75-.36,1.52,1.52,0,0,0-.62-.12,1.31,1.31,0,0,0-1.06.54,2,2,0,0,0-.44,1.31,1.79,1.79,0,0,0,.19.88,2.09,2.09,0,0,0,.61.67,7.87,7.87,0,0,0,2.51,1.25,9.73,9.73,0,0,0,2.86.45,6.76,6.76,0,0,0,3.89-1.12,7.29,7.29,0,0,0,2.58-3.21A12.26,12.26,0,0,0,27,73.66c0-2.83-.64-5-1.93-6.55A6.72,6.72,0,0,0,19.59,64.81Zm.28,8.27a2,2,0,0,1-1.56-.63,2.91,2.91,0,0,1,0-3.47,2,2,0,0,1,1.55-.65,2,2,0,0,1,1.55.67,2.77,2.77,0,0,1,0,3.43A2,2,0,0,1,19.87,73.08ZM81.4,65H71.6A2.44,2.44,0,0,0,70,65.5a1.74,1.74,0,0,0-.52,1.38,1.71,1.71,0,0,0,.51,1.35,2.5,2.5,0,0,0,1.66.45h6.25l-6.42,11a2.3,2.3,0,0,0-.35,1.2,1.83,1.83,0,0,0,.67,1.44,2.3,2.3,0,0,0,1.55.58,2.19,2.19,0,0,0,1.07-.28,2.38,2.38,0,0,0,.86-.89L82.8,68.58a3.15,3.15,0,0,0,.48-1.65,1.93,1.93,0,0,0-.49-1.36A1.79,1.79,0,0,0,81.4,65Z"/></svg>