<svg id="Layer_1" data-name="Layer 1" xmlns="http://www.w3.org/2000/svg" viewBox="0 0 100 100"><title>l1_2_1</title><path d="M95.57,71.9A17.5,17.5,0,1,1,66,59.24L55.05,43a17.57,17.57,0,0,1-4.61.63,17.3,17.3,0,0,1-4.91-.71L34.32,59.54h0a17.64,17.64,0,1,1-5.84-3.85l10.8-16.09a17.52,17.52,0,1,1,22.08.17L71.94,55.52A17.47,17.47,0,0,1,95.57,71.9Zm-42-11.69,4.32-4.28a2.34,2.34,0,0,0,.72-1.72,2.1,2.1,0,0,0-.72-1.64,2.21,2.21,0,0,0-1.68-.72,2.3,2.3,0,0,0-1.68.72l-4.32,4.32-4.32-4.32a2.33,2.33,0,0,0-1.68-.76,2.1,2.1,0,0,0-1.64.72,2.34,2.34,0,0,0-.72,1.72,2.49,2.49,0,0,0,.68,1.68l4.32,4.28-4.32,4.32a2.32,2.32,0,0,0,0,3.36,2.49,2.49,0,0,0,1.68.68,2.28,2.28,0,0,0,1.68-.68l4.32-4.32,4.32,4.32a2.36,2.36,0,0,0,4-1.68,2.22,2.22,0,0,0-.68-1.68Zm-7-34.73a4,4,0,0,0,2-1.51,4.16,4.16,0,0,0,.72-2.42A4.39,4.39,0,0,0,48.48,19a4.86,4.86,0,0,0-2.17-1.7,8.28,8.28,0,0,0-3.26-.6,10,10,0,0,0-3,.45,8.25,8.25,0,0,0-2.54,1.25A1.75,1.75,0,0,0,36.77,20a2,2,0,0,0,.43,1.31,1.28,1.28,0,0,0,1,.54,1.71,1.71,0,0,0,.62-.11q.29-.12.75-.36l.53-.25a13.31,13.31,0,0,1,1.36-.6,3.8,3.8,0,0,1,1.31-.23,2.18,2.18,0,0,1,1.53.51,1.92,1.92,0,0,1,.55,1.44,1.4,1.4,0,0,1-.63,1.28,3.87,3.87,0,0,1-2,.4h-1.1A1.41,1.41,0,0,0,40,24.4a2,2,0,0,0,0,2.5,1.42,1.42,0,0,0,1.17.53h1.55a3.78,3.78,0,0,1,2.05.42,1.57,1.57,0,0,1,.63,1.4,1.74,1.74,0,0,1-.62,1.5,3.43,3.43,0,0,1-2,.45A4.53,4.53,0,0,1,41.34,31a11.37,11.37,0,0,1-1.44-.61l-.31-.14-.24-.11c-.32-.17-.57-.29-.75-.37a1.77,1.77,0,0,0-.63-.11,1.31,1.31,0,0,0-1,.54,2.08,2.08,0,0,0-.42,1.31,2,2,0,0,0,.17.86,1.92,1.92,0,0,0,.6.69,8.29,8.29,0,0,0,2.6,1.27,11.16,11.16,0,0,0,3.13.43,9.28,9.28,0,0,0,3.53-.61,5.27,5.27,0,0,0,2.34-1.74,4.36,4.36,0,0,0,.83-2.65A4.42,4.42,0,0,0,48.86,27,4.25,4.25,0,0,0,46.55,25.48Zm11.82,9.3a5.84,5.84,0,0,0,5-2.33q1.73-2.33,1.73-6.72T63.36,19a5.86,5.86,0,0,0-5-2.33,5.85,5.85,0,0,0-5,2.33q-1.73,2.32-1.72,6.7t1.72,6.72A5.85,5.85,0,0,0,58.37,34.78Zm0-3.48A1.78,1.78,0,0,1,56.65,30a12.37,12.37,0,0,1-.53-4.27,12.23,12.23,0,0,1,.53-4.26,1.8,1.8,0,0,1,3.45,0,12.33,12.33,0,0,1,.52,4.25A12.43,12.43,0,0,1,60.1,30,1.79,1.79,0,0,1,58.37,31.3ZM23.47,70.39a4.79,4.79,0,0,0-2.11.46,4.08,4.08,0,0,0-1.54,1.26,6.57,6.57,0,0,1,.94-3.26,2.37,2.37,0,0,1,2.06-1.16,3.2,3.2,0,0,1,1.15.2,13.18,13.18,0,0,1,1.38.6l.55.27a5.93,5.93,0,0,0,.75.36,1.52,1.52,0,0,0,.62.12,1.31,1.31,0,0,0,1.06-.54,2,2,0,0,0,.44-1.31,1.82,1.82,0,0,0-.19-.88,2,2,0,0,0-.61-.67,7.87,7.87,0,0,0-2.51-1.25,9.73,9.73,0,0,0-2.86-.45,6.76,6.76,0,0,0-3.89,1.12,7.29,7.29,0,0,0-2.58,3.21,12.33,12.33,0,0,0-.91,4.89c0,2.83.64,5,1.93,6.55a6.72,6.72,0,0,0,5.45,2.3,6.5,6.5,0,0,0,3.17-.77A5.57,5.57,0,0,0,28,79.27a6.66,6.66,0,0,0,.1-6.1,5.27,5.27,0,0,0-1.89-2A5.06,5.06,0,0,0,23.47,70.39Zm-1.15,8.3A2,2,0,0,1,20.77,78a2.77,2.77,0,0,1,0-3.43,2.22,2.22,0,0,1,3.12,0,2.53,2.53,0,0,1,.57,1.74A2.5,2.5,0,0,1,23.87,78,2,2,0,0,1,22.32,78.69Zm56.84-8.23a6.22,6.22,0,0,0-2.47.45V67.84h5.4c1.45,0,2.17-.59,2.17-1.75s-.72-1.73-2.17-1.73H74.34a1.92,1.92,0,0,0-2.13,2.15v6.78a1.34,1.34,0,0,0,.48,1.08,1.71,1.71,0,0,0,1.17.42A2.45,2.45,0,0,0,75,74.51a10.36,10.36,0,0,1,1.44-.45,7,7,0,0,1,1.36-.12,2.87,2.87,0,0,1,1.95.62,2.22,2.22,0,0,1,.7,1.75,2.16,2.16,0,0,1-.68,1.76,3.16,3.16,0,0,1-2.07.57,4.18,4.18,0,0,1-1.39-.23,14.76,14.76,0,0,1-1.41-.6l-.5-.25a6.14,6.14,0,0,0-.75-.37,1.67,1.67,0,0,0-.63-.1,1.33,1.33,0,0,0-1.05.53,2.08,2.08,0,0,0-.42,1.32,1.79,1.79,0,0,0,.19.86,2.27,2.27,0,0,0,.58.69,8.32,8.32,0,0,0,2.57,1.25,10.39,10.39,0,0,0,3,.45,8.12,8.12,0,0,0,3.58-.75,5.66,5.66,0,0,0,2.4-2.13,5.85,5.85,0,0,0,.85-3.17,6.1,6.1,0,0,0-.71-3,5.21,5.21,0,0,0-2-2A5.81,5.81,0,0,0,79.16,70.46Z"/></svg>