<svg id="Layer_1" data-name="Layer 1" xmlns="http://www.w3.org/2000/svg" viewBox="0 0 100 100"><title>l1_2_1</title><path d="M94.67,71.28A17.5,17.5,0,1,1,65.11,58.62l-11-16.27a17.26,17.26,0,0,1-9.52-.08L33.42,58.92h0a17.6,17.6,0,1,1-5.83-3.85L38.39,39a17.51,17.51,0,1,1,22.07.17L71,54.9A17.47,17.47,0,0,1,94.67,71.28Zm-42-11.69L57,55.31a2.31,2.31,0,0,0,.73-1.72A2.09,2.09,0,0,0,57,52a2.2,2.2,0,0,0-1.67-.72,2.29,2.29,0,0,0-1.68.72l-4.32,4.32L45,52a2.33,2.33,0,0,0-1.67-.76,2.08,2.08,0,0,0-1.64.72A2.31,2.31,0,0,0,41,53.63a2.46,2.46,0,0,0,.69,1.68L46,59.59l-4.31,4.32a2.3,2.3,0,0,0,0,3.36,2.45,2.45,0,0,0,1.68.68A2.28,2.28,0,0,0,45,67.27L49.34,63l4.32,4.32a2.31,2.31,0,0,0,3.35,0,2.25,2.25,0,0,0,.69-1.68A2.19,2.19,0,0,0,57,63.91ZM46.78,30.28H44.73V18.43a2.1,2.1,0,0,0-2.23-2.22,4.26,4.26,0,0,0-2.07.62l-4,2.33a1.68,1.68,0,0,0-.88,1.55,2.12,2.12,0,0,0,.5,1.36,1.5,1.5,0,0,0,1.2.61,1.71,1.71,0,0,0,.88-.25l2-1.17v9h-2a2.5,2.5,0,0,0-1.65.45,1.68,1.68,0,0,0-.52,1.35c0,1.24.72,1.85,2.17,1.85h8.68c1.45,0,2.17-.61,2.17-1.85a1.68,1.68,0,0,0-.52-1.35A2.5,2.5,0,0,0,46.78,30.28Zm11.2-8a4.84,4.84,0,0,0-2.12.47,3.8,3.8,0,0,0-1.53,1.26,6.67,6.67,0,0,1,.93-3.26,2.41,2.41,0,0,1,2.07-1.17,3.43,3.43,0,0,1,1.15.2c.36.14.82.34,1.37.6l.55.28c.32.16.57.29.75.36a1.57,1.57,0,0,0,.63.11,1.34,1.34,0,0,0,1.06-.53,2,2,0,0,0,.44-1.32,1.87,1.87,0,0,0-.19-.87,2.24,2.24,0,0,0-.61-.68A8,8,0,0,0,60,16.53a9.63,9.63,0,0,0-2.86-.45,6.79,6.79,0,0,0-3.89,1.13,7.34,7.34,0,0,0-2.57,3.21,12.09,12.09,0,0,0-.91,4.89,10,10,0,0,0,1.92,6.55,6.72,6.72,0,0,0,5.45,2.3,6.43,6.43,0,0,0,3.18-.78,5.46,5.46,0,0,0,2.18-2.16,6.18,6.18,0,0,0,.79-3.14,6.27,6.27,0,0,0-.69-3A5,5,0,0,0,58,22.33Zm-1.15,8.3A2,2,0,0,1,55.28,30a2.44,2.44,0,0,1-.6-1.71,2.5,2.5,0,0,1,.58-1.73,2,2,0,0,1,1.57-.65,2,2,0,0,1,1.56.64A2.56,2.56,0,0,1,59,28.26,2.51,2.51,0,0,1,58.38,30,2,2,0,0,1,56.83,30.63ZM24.71,71.29a3.73,3.73,0,0,0,2-1.47,4.32,4.32,0,0,0,.71-2.5,4.13,4.13,0,0,0-1.73-3.52,7.86,7.86,0,0,0-4.74-1.28,7.84,7.84,0,0,0-4.72,1.28,4.13,4.13,0,0,0-1.75,3.52,4.33,4.33,0,0,0,.69,2.44,4.14,4.14,0,0,0,2,1.53,4.15,4.15,0,0,0-2.34,1.49A4.42,4.42,0,0,0,14,75.52a4.31,4.31,0,0,0,1.86,3.71,8.59,8.59,0,0,0,5.09,1.34A8.59,8.59,0,0,0,26,79.23a4.31,4.31,0,0,0,1.86-3.71,4.36,4.36,0,0,0-.81-2.69A4.31,4.31,0,0,0,24.71,71.29Zm-3.8,5.8c-1.82,0-2.72-.65-2.72-2s.9-2,2.72-2,2.72.65,2.72,2S22.73,77.09,20.91,77.09Zm0-11.1a2.7,2.7,0,0,1,1.68.44,1.71,1.71,0,0,1,.54,1.41,1.76,1.76,0,0,1-.54,1.43,2.63,2.63,0,0,1-1.68.45,2.58,2.58,0,0,1-1.67-.45,1.74,1.74,0,0,1-.55-1.43,1.68,1.68,0,0,1,.55-1.41A2.65,2.65,0,0,1,20.91,66ZM82.15,77.34h-5l3.55-3.63a11.55,11.55,0,0,0,2.09-2.81,6.27,6.27,0,0,0,.61-2.79,4.57,4.57,0,0,0-.76-2.61,4.9,4.9,0,0,0-2.16-1.75,8,8,0,0,0-3.25-.61,10.19,10.19,0,0,0-5.53,1.7,1.62,1.62,0,0,0-.61.65,2.1,2.1,0,0,0-.16.9,2.15,2.15,0,0,0,.42,1.33,1.29,1.29,0,0,0,1.05.57,1.51,1.51,0,0,0,.48-.08,2.83,2.83,0,0,0,.51-.24l.39-.21.5-.25a12.53,12.53,0,0,1,1.41-.61A4.14,4.14,0,0,1,77,66.69a2,2,0,0,1,1.39.45,1.69,1.69,0,0,1,.48,1.3,4.87,4.87,0,0,1-1.65,3.17l-5.3,5.53a2.75,2.75,0,0,0-.85,2A1.84,1.84,0,0,0,73,81h9.13a2.53,2.53,0,0,0,1.64-.45,1.75,1.75,0,0,0,.53-1.4,1.7,1.7,0,0,0-.53-1.37A2.59,2.59,0,0,0,82.15,77.34Z"/></svg>