<svg id="Layer_1" data-name="Layer 1" xmlns="http://www.w3.org/2000/svg" viewBox="0 0 100 100"><title>l1_2_1</title><path d="M94.67,71.28A17.5,17.5,0,1,1,65.11,58.62l-11-16.27a17.26,17.26,0,0,1-9.52-.08L33.42,58.92h0a17.6,17.6,0,1,1-5.83-3.85L38.39,39a17.51,17.51,0,1,1,22.07.17L71,54.9A17.47,17.47,0,0,1,94.67,71.28Zm-42-11.69L57,55.31a2.31,2.31,0,0,0,.73-1.72A2.09,2.09,0,0,0,57,52a2.21,2.21,0,0,0-1.68-.72,2.28,2.28,0,0,0-1.67.72l-4.33,4.32L45,52a2.34,2.34,0,0,0-1.68-.76,2.07,2.07,0,0,0-1.63.72A2.31,2.31,0,0,0,41,53.63a2.46,2.46,0,0,0,.69,1.68L46,59.59l-4.31,4.32a2.3,2.3,0,0,0,0,3.36,2.45,2.45,0,0,0,1.67.68A2.28,2.28,0,0,0,45,67.27L49.33,63l4.33,4.32a2.31,2.31,0,0,0,3.35,0,2.25,2.25,0,0,0,.69-1.68A2.19,2.19,0,0,0,57,63.91ZM44.65,24.86a4.11,4.11,0,0,0,2-1.51,4.23,4.23,0,0,0,.71-2.42,4.38,4.38,0,0,0-.76-2.55,4.89,4.89,0,0,0-2.18-1.7,8.28,8.28,0,0,0-3.26-.6,10,10,0,0,0-3,.45,8.37,8.37,0,0,0-2.54,1.25,2.07,2.07,0,0,0-.6.68,1.88,1.88,0,0,0-.17.87,2.08,2.08,0,0,0,.42,1.32,1.3,1.3,0,0,0,1.05.53,1.61,1.61,0,0,0,.63-.11c.18-.07.43-.2.75-.36l.52-.25a14.35,14.35,0,0,1,1.36-.6,3.81,3.81,0,0,1,1.32-.23,2.11,2.11,0,0,1,1.52.52A1.85,1.85,0,0,1,43,21.58a1.42,1.42,0,0,1-.62,1.28,3.92,3.92,0,0,1-2,.4h-1.1a1.43,1.43,0,0,0-1.18.52,2.07,2.07,0,0,0,0,2.5,1.44,1.44,0,0,0,1.18.53h1.55a3.8,3.8,0,0,1,2.05.42,1.59,1.59,0,0,1,.62,1.4,1.73,1.73,0,0,1-.61,1.5,3.47,3.47,0,0,1-2,.45,4.55,4.55,0,0,1-1.44-.21A12,12,0,0,1,38,29.76l-.31-.14-.24-.11a7.63,7.63,0,0,0-.75-.36,1.52,1.52,0,0,0-.62-.12,1.28,1.28,0,0,0-1,.54,2,2,0,0,0-.43,1.31,2,2,0,0,0,.18.87,1.79,1.79,0,0,0,.6.68A8.19,8.19,0,0,0,38,33.7a11.14,11.14,0,0,0,3.12.43,9.37,9.37,0,0,0,3.54-.61A5.27,5.27,0,0,0,47,31.78a4.35,4.35,0,0,0,.82-2.65A4.42,4.42,0,0,0,47,26.41,4.21,4.21,0,0,0,44.65,24.86ZM58,22.33a4.84,4.84,0,0,0-2.12.47,3.8,3.8,0,0,0-1.53,1.26,6.67,6.67,0,0,1,.93-3.26,2.41,2.41,0,0,1,2.07-1.17,3.43,3.43,0,0,1,1.15.2c.36.14.82.34,1.37.6l.55.28c.32.16.57.29.75.36a1.54,1.54,0,0,0,.63.11,1.34,1.34,0,0,0,1.06-.53,2,2,0,0,0,.44-1.32,1.87,1.87,0,0,0-.19-.87,2.24,2.24,0,0,0-.61-.68A8,8,0,0,0,60,16.53a9.63,9.63,0,0,0-2.86-.45,6.79,6.79,0,0,0-3.89,1.13,7.34,7.34,0,0,0-2.57,3.21,12.09,12.09,0,0,0-.91,4.89,10,10,0,0,0,1.92,6.55,6.72,6.72,0,0,0,5.45,2.3,6.43,6.43,0,0,0,3.18-.78,5.46,5.46,0,0,0,2.18-2.16,6.18,6.18,0,0,0,.79-3.14,6.27,6.27,0,0,0-.69-3A5,5,0,0,0,58,22.33Zm-1.15,8.3A2,2,0,0,1,55.28,30a2.44,2.44,0,0,1-.6-1.71,2.5,2.5,0,0,1,.58-1.73,2,2,0,0,1,1.57-.65,2,2,0,0,1,1.56.64A2.56,2.56,0,0,1,59,28.26,2.51,2.51,0,0,1,58.38,30,2,2,0,0,1,56.83,30.63ZM20.29,62.52a6.51,6.51,0,0,0-3.18.77,5.68,5.68,0,0,0-2.19,2.16,6.34,6.34,0,0,0-.79,3.14,6.24,6.24,0,0,0,.69,3,5.13,5.13,0,0,0,1.89,2,5,5,0,0,0,2.7.74,4.76,4.76,0,0,0,2.11-.46,4,4,0,0,0,1.54-1.26,6.6,6.6,0,0,1-.94,3.26A2.37,2.37,0,0,1,20.06,77a3.2,3.2,0,0,1-1.15-.2,12.29,12.29,0,0,1-1.37-.6L17,76c-.32-.17-.57-.29-.75-.37a1.81,1.81,0,0,0-.63-.11,1.31,1.31,0,0,0-1.06.54,2,2,0,0,0-.44,1.31,1.82,1.82,0,0,0,.19.88,2.09,2.09,0,0,0,.61.67,7.87,7.87,0,0,0,2.51,1.25,9.74,9.74,0,0,0,2.87.45,6.75,6.75,0,0,0,3.88-1.12,7.29,7.29,0,0,0,2.58-3.21,12.16,12.16,0,0,0,.91-4.89,9.94,9.94,0,0,0-1.92-6.55A6.71,6.71,0,0,0,20.29,62.52Zm.27,8.27A2,2,0,0,1,19,70.16a2.95,2.95,0,0,1,0-3.47A2,2,0,0,1,20.56,66a2,2,0,0,1,1.55.66,2.78,2.78,0,0,1,0,3.44A2,2,0,0,1,20.56,70.79Zm61.86,4.1h-.55v-9a2.13,2.13,0,0,0-.68-1.68,2.35,2.35,0,0,0-1.62-.6,2.55,2.55,0,0,0-1.11.26,2.28,2.28,0,0,0-.89.77l-7.15,10.2a2.75,2.75,0,0,0-.55,1.65,1.84,1.84,0,0,0,1.95,1.92h5.57v.85a2.08,2.08,0,0,0,2.23,2.28,2.25,2.25,0,0,0,1.62-.58,2.18,2.18,0,0,0,.63-1.7v-.85h.55c1.45,0,2.17-.59,2.17-1.77S83.87,74.89,82.42,74.89Zm-8,0,3-4.32v4.32Z"/></svg>