<svg id="Layer_1" data-name="Layer 1" xmlns="http://www.w3.org/2000/svg" viewBox="0 0 189.03 115.89"><title>l1_2_1</title><path d="M189,98.29a17.5,17.5,0,1,1-29.56-12.66l-11-16.28a17.13,17.13,0,0,1-9.52-.07L127.78,85.92h0a17.53,17.53,0,1,1-5.84-3.86L132.75,66a17.48,17.48,0,0,1-2.11-24.89L110,27.39a17.5,17.5,0,0,1-28.87,0v0L59.66,41.66a17.47,17.47,0,0,1-2.74,24.59L67.51,82a17.52,17.52,0,1,1-5.94,3.72l-11-16.27a17.22,17.22,0,0,1-9.51-.08L29.89,86h0a17.6,17.6,0,1,1-5.83-3.85l10.8-16.09a17.49,17.49,0,0,1,19.29-29L78.38,20.73a17.25,17.25,0,0,1-.31-3.23,17.5,17.5,0,0,1,35,0,17,17,0,0,1-.31,3.21q11.83,8,23.65,16a17.48,17.48,0,0,1,18.41,29.46L165.4,81.91A17.47,17.47,0,0,1,189,98.29ZM98.9,54l5.4-5.35a2.94,2.94,0,0,0,.9-2.15,2.62,2.62,0,0,0-.9-2,2.78,2.78,0,0,0-2.1-.9,2.88,2.88,0,0,0-2.1.9l-5.4,5.4-5.4-5.4a3,3,0,0,0-2.1-1,2.6,2.6,0,0,0-2,.9,2.94,2.94,0,0,0-.9,2.15,3.05,3.05,0,0,0,.85,2.1L90.5,54l-5.4,5.4a2.9,2.9,0,0,0,0,4.2,3.05,3.05,0,0,0,2.1.85,2.85,2.85,0,0,0,2.1-.85l5.4-5.4,5.4,5.4a3,3,0,0,0,5.05-2.1,2.76,2.76,0,0,0-.85-2.1ZM49.16,85.7l4.32-4.28a2.34,2.34,0,0,0,.72-1.72,2.11,2.11,0,0,0-.72-1.64,2.24,2.24,0,0,0-1.68-.72,2.3,2.3,0,0,0-1.68.72L45.8,82.38l-4.32-4.32a2.37,2.37,0,0,0-1.68-.76,2.08,2.08,0,0,0-1.64.72,2.36,2.36,0,0,0-.72,1.72,2.41,2.41,0,0,0,.68,1.68l4.32,4.28L38.12,90a2.32,2.32,0,0,0,0,3.36,2.41,2.41,0,0,0,1.68.68,2.28,2.28,0,0,0,1.68-.68l4.32-4.32,4.32,4.32a2.36,2.36,0,0,0,4-1.68A2.22,2.22,0,0,0,53.48,90ZM43.81,44.19a6.39,6.39,0,0,0-3.17.78,5.68,5.68,0,0,0-2.19,2.16,6.31,6.31,0,0,0-.79,3.14,6.24,6.24,0,0,0,.69,3,5.13,5.13,0,0,0,1.89,2.05,5.07,5.07,0,0,0,2.7.74,4.76,4.76,0,0,0,2.11-.46,3.94,3.94,0,0,0,1.54-1.27,6.64,6.64,0,0,1-.94,3.27,2.39,2.39,0,0,1-2.06,1.16,3.39,3.39,0,0,1-1.15-.2,13.18,13.18,0,0,1-1.38-.6l-.55-.28q-.46-.24-.75-.36a1.71,1.71,0,0,0-.62-.11,1.31,1.31,0,0,0-1.06.54A2,2,0,0,0,37.64,59a1.75,1.75,0,0,0,.19.87,2.11,2.11,0,0,0,.61.68A8.08,8.08,0,0,0,41,61.82a9.73,9.73,0,0,0,2.86.45,6.77,6.77,0,0,0,3.89-1.13,7.29,7.29,0,0,0,2.58-3.21A12.26,12.26,0,0,0,51.19,53a9.92,9.92,0,0,0-1.93-6.55A6.72,6.72,0,0,0,43.81,44.19Zm.28,8.28a1.94,1.94,0,0,1-1.56-.64,2.89,2.89,0,0,1,0-3.46,2,2,0,0,1,1.55-.65,2,2,0,0,1,1.55.66,2.44,2.44,0,0,1,.6,1.71,2.49,2.49,0,0,1-.59,1.73A2,2,0,0,1,44.09,52.47ZM92.88,20.1h-.55v-9a2.12,2.12,0,0,0-.67-1.67A2.38,2.38,0,0,0,90,8.8a2.58,2.58,0,0,0-1.11.26,2.34,2.34,0,0,0-.89.76L80.88,20a2.79,2.79,0,0,0-.55,1.65,1.93,1.93,0,0,0,.53,1.38,1.85,1.85,0,0,0,1.42.55h5.58v.85a2.21,2.21,0,0,0,.61,1.7,2.26,2.26,0,0,0,1.61.57,2.33,2.33,0,0,0,1.63-.57,2.21,2.21,0,0,0,.62-1.7V23.6h.55c1.45,0,2.18-.59,2.18-1.78S94.33,20.1,92.88,20.1Zm-8,0,3-4.33V20.1Zm17.65,6.7a5.85,5.85,0,0,0,5-2.33q1.72-2.32,1.72-6.72t-1.74-6.7a6.51,6.51,0,0,0-10,0q-1.73,2.32-1.73,6.7t1.73,6.72A5.84,5.84,0,0,0,102.51,26.8Zm0-3.48a1.79,1.79,0,0,1-1.73-1.3,12.43,12.43,0,0,1-.52-4.27,12.32,12.32,0,0,1,.52-4.26,1.8,1.8,0,0,1,3.45,0,12.32,12.32,0,0,1,.53,4.25,12.37,12.37,0,0,1-.53,4.27A1.78,1.78,0,0,1,102.51,23.32Zm-83,75.08a4,4,0,0,0,2-1.51,4.11,4.11,0,0,0,.72-2.41,4.34,4.34,0,0,0-.77-2.55,4.86,4.86,0,0,0-2.17-1.7,8.28,8.28,0,0,0-3.26-.6,10.09,10.09,0,0,0-3,.45,8.31,8.31,0,0,0-2.53,1.25,1.72,1.72,0,0,0-.78,1.55,2,2,0,0,0,.43,1.31,1.28,1.28,0,0,0,1.05.54,1.71,1.71,0,0,0,.62-.11,8.3,8.3,0,0,0,.75-.37l.53-.25a13.31,13.31,0,0,1,1.36-.6,3.79,3.79,0,0,1,1.31-.22,2.18,2.18,0,0,1,1.53.51,1.89,1.89,0,0,1,.55,1.44,1.39,1.39,0,0,1-.63,1.27,3.77,3.77,0,0,1-2,.4h-1.1a1.42,1.42,0,0,0-1.17.53,2,2,0,0,0,0,2.5,1.41,1.41,0,0,0,1.17.52h1.55a3.77,3.77,0,0,1,2,.43,1.56,1.56,0,0,1,.63,1.4,1.74,1.74,0,0,1-.62,1.5,3.43,3.43,0,0,1-2,.45,4.64,4.64,0,0,1-1.44-.21,12.16,12.16,0,0,1-1.43-.62l-.32-.13-.23-.12-.75-.36a1.77,1.77,0,0,0-.63-.11,1.31,1.31,0,0,0-1.05.54,2,2,0,0,0-.42,1.31,2.06,2.06,0,0,0,.17.86,2.1,2.1,0,0,0,.6.69,8,8,0,0,0,2.6,1.26,11.17,11.17,0,0,0,3.13.44,9.48,9.48,0,0,0,3.53-.61,5.27,5.27,0,0,0,2.34-1.74,4.36,4.36,0,0,0,.83-2.65,4.43,4.43,0,0,0-.84-2.73A4.3,4.3,0,0,0,19.55,98.4Zm57.13,0a4,4,0,0,0,2-1.51,4.17,4.17,0,0,0,.71-2.41,4.34,4.34,0,0,0-.76-2.55,4.88,4.88,0,0,0-2.18-1.7,8.28,8.28,0,0,0-3.26-.6,10,10,0,0,0-3,.45,8.37,8.37,0,0,0-2.54,1.25,2.15,2.15,0,0,0-.6.67,2,2,0,0,0-.17.88,2.06,2.06,0,0,0,.42,1.31,1.28,1.28,0,0,0,1,.54,1.81,1.81,0,0,0,.63-.11c.18-.08.43-.2.75-.37l.52-.25a13.31,13.31,0,0,1,1.36-.6A3.81,3.81,0,0,1,73,93.18a2.15,2.15,0,0,1,1.52.51A1.85,1.85,0,0,1,75,95.13a1.4,1.4,0,0,1-.62,1.27,3.82,3.82,0,0,1-2,.4h-1.1a1.44,1.44,0,0,0-1.18.53,2.07,2.07,0,0,0,0,2.5,1.43,1.43,0,0,0,1.18.52h1.55a3.7,3.7,0,0,1,2,.43,1.58,1.58,0,0,1,.62,1.4,1.73,1.73,0,0,1-.61,1.5,3.47,3.47,0,0,1-2,.45,4.55,4.55,0,0,1-1.44-.21A11.56,11.56,0,0,1,70,103.3l-.31-.13-.24-.12-.75-.36a1.71,1.71,0,0,0-.62-.11,1.28,1.28,0,0,0-1,.54,2,2,0,0,0-.43,1.31,1.91,1.91,0,0,0,.18.86,1.89,1.89,0,0,0,.6.69,8,8,0,0,0,2.6,1.26,11.15,11.15,0,0,0,3.12.44,9.57,9.57,0,0,0,3.54-.61A5.27,5.27,0,0,0,79,105.33a4.37,4.37,0,0,0,.82-2.65A4.43,4.43,0,0,0,79,100,4.3,4.3,0,0,0,76.68,98.4Zm70.37-12.8,4.32-4.28a2.34,2.34,0,0,0,.72-1.72,2.1,2.1,0,0,0-.72-1.64,2.21,2.21,0,0,0-1.68-.72A2.3,2.3,0,0,0,148,78l-4.32,4.32L139.37,78a2.3,2.3,0,0,0-1.68-.76,2.11,2.11,0,0,0-1.64.72,2.34,2.34,0,0,0-.72,1.72,2.49,2.49,0,0,0,.68,1.68l4.32,4.28L136,89.92a2.32,2.32,0,0,0,0,3.36,2.49,2.49,0,0,0,1.68.68,2.28,2.28,0,0,0,1.68-.68L143.69,89,148,93.28a2.32,2.32,0,0,0,3.36,0,2.25,2.25,0,0,0,.68-1.68,2.19,2.19,0,0,0-.68-1.68Zm-2.49-35.18a6.28,6.28,0,0,0-2.48.45V47.79h5.4c1.45,0,2.18-.58,2.18-1.75s-.73-1.72-2.18-1.72h-7.75a2.12,2.12,0,0,0-1.57.55,2.14,2.14,0,0,0-.55,1.6v6.77a1.4,1.4,0,0,0,.47,1.09,1.76,1.76,0,0,0,1.18.41,2.4,2.4,0,0,0,1.12-.27,8.21,8.21,0,0,1,1.44-.45,6.34,6.34,0,0,1,1.36-.13,2.79,2.79,0,0,1,1.95.63,2.2,2.2,0,0,1,.7,1.75,2.16,2.16,0,0,1-.67,1.76,3.23,3.23,0,0,1-2.08.56,4.08,4.08,0,0,1-1.38-.22,13.84,13.84,0,0,1-1.42-.6l-.5-.25a6.58,6.58,0,0,0-.75-.38,1.79,1.79,0,0,0-.62-.1,1.28,1.28,0,0,0-1,.54,2.08,2.08,0,0,0-.43,1.31,1.88,1.88,0,0,0,.19.86,2.09,2.09,0,0,0,.59.69,8.15,8.15,0,0,0,2.56,1.25,10.46,10.46,0,0,0,3,.45,8.08,8.08,0,0,0,3.57-.75,5.58,5.58,0,0,0,2.4-2.12,5.91,5.91,0,0,0,.85-3.18,6,6,0,0,0-.71-3,5,5,0,0,0-2-2A5.76,5.76,0,0,0,144.56,50.42Zm-25,53.31h-2V91.88a2.08,2.08,0,0,0-2.23-2.23,4.18,4.18,0,0,0-2.07.63l-4,2.32a1.69,1.69,0,0,0-.88,1.55,2.1,2.1,0,0,0,.5,1.36,1.53,1.53,0,0,0,1.2.62,1.81,1.81,0,0,0,.88-.25l2-1.18v9h-2a2.5,2.5,0,0,0-1.65.45,1.68,1.68,0,0,0-.52,1.35c0,1.23.72,1.85,2.17,1.85h8.68c1.45,0,2.17-.62,2.17-1.85a1.68,1.68,0,0,0-.52-1.35A2.5,2.5,0,0,0,119.57,103.73Zm53.06-7.88a6.28,6.28,0,0,0-2.48.45V93.23h5.4c1.45,0,2.18-.59,2.18-1.75s-.73-1.73-2.18-1.73H167.8a2.1,2.1,0,0,0-1.57.55,2.16,2.16,0,0,0-.55,1.6v6.78a1.33,1.33,0,0,0,.47,1.08,1.72,1.72,0,0,0,1.18.42,2.41,2.41,0,0,0,1.12-.28,8.21,8.21,0,0,1,1.44-.45,7.09,7.09,0,0,1,1.36-.12,2.82,2.82,0,0,1,1.95.62,2.22,2.22,0,0,1,.7,1.75,2.15,2.15,0,0,1-.67,1.76,3.19,3.19,0,0,1-2.08.57,4.18,4.18,0,0,1-1.39-.23,14.76,14.76,0,0,1-1.41-.6l-.5-.25a6.14,6.14,0,0,0-.75-.37,1.61,1.61,0,0,0-.62-.1,1.27,1.27,0,0,0-1,.53,2,2,0,0,0-.43,1.32,1.79,1.79,0,0,0,.19.86,2.18,2.18,0,0,0,.59.69,8.26,8.26,0,0,0,2.56,1.25,10.41,10.41,0,0,0,3,.45,8.08,8.08,0,0,0,3.57-.75,5.66,5.66,0,0,0,2.4-2.13,5.88,5.88,0,0,0,.85-3.17,6.1,6.1,0,0,0-.71-3,5.08,5.08,0,0,0-2-2A5.8,5.8,0,0,0,172.63,95.85Z"/></svg>