<svg id="Layer_1" data-name="Layer 1" xmlns="http://www.w3.org/2000/svg" viewBox="0 0 100 100"><title>l1_2_1</title><path d="M94.67,71.28A17.5,17.5,0,1,1,65.11,58.62l-11-16.27a17.26,17.26,0,0,1-9.52-.08L33.42,58.92h0a17.6,17.6,0,1,1-5.83-3.85L38.39,39a17.51,17.51,0,1,1,22.07.17L71,54.9A17.47,17.47,0,0,1,94.67,71.28Zm-42-11.69L57,55.31a2.31,2.31,0,0,0,.73-1.72A2.07,2.07,0,0,0,57,52a2.2,2.2,0,0,0-1.67-.72,2.29,2.29,0,0,0-1.68.72l-4.32,4.32L45,52a2.29,2.29,0,0,0-1.67-.76,2.08,2.08,0,0,0-1.64.72A2.31,2.31,0,0,0,41,53.63a2.46,2.46,0,0,0,.69,1.68L46,59.59l-4.31,4.32a2.3,2.3,0,0,0,0,3.36,2.45,2.45,0,0,0,1.68.68A2.28,2.28,0,0,0,45,67.27L49.34,63l4.32,4.32a2.31,2.31,0,0,0,3.35,0,2.25,2.25,0,0,0,.69-1.68A2.19,2.19,0,0,0,57,63.91ZM46.78,30.28H44.73V18.43a2.1,2.1,0,0,0-2.23-2.22,4.26,4.26,0,0,0-2.07.62l-4,2.33a1.68,1.68,0,0,0-.88,1.55,2.12,2.12,0,0,0,.5,1.36,1.5,1.5,0,0,0,1.2.61,1.71,1.71,0,0,0,.88-.25l2-1.17v9h-2a2.5,2.5,0,0,0-1.65.45,1.68,1.68,0,0,0-.52,1.35c0,1.24.72,1.85,2.17,1.85h8.68c1.45,0,2.17-.61,2.17-1.85a1.68,1.68,0,0,0-.52-1.35A2.5,2.5,0,0,0,46.78,30.28Zm15.07-2.82H61.3v-9a2.12,2.12,0,0,0-.67-1.67,2.38,2.38,0,0,0-1.63-.6,2.44,2.44,0,0,0-1.11.26,2.25,2.25,0,0,0-.89.76l-7.15,10.2A2.79,2.79,0,0,0,49.3,29a1.93,1.93,0,0,0,.53,1.38,1.89,1.89,0,0,0,1.42.55h5.58v.85a2.22,2.22,0,0,0,.61,1.7,2.26,2.26,0,0,0,1.61.57,2.33,2.33,0,0,0,1.63-.57,2.23,2.23,0,0,0,.62-1.7V31h.55C63.3,31,64,30.37,64,29.18S63.3,27.46,61.85,27.46Zm-8,0,3-4.33v4.33ZM26,62.74h-9.8a2.5,2.5,0,0,0-1.65.46A1.75,1.75,0,0,0,14,64.59a1.71,1.71,0,0,0,.51,1.35,2.48,2.48,0,0,0,1.66.45h6.25L16,77.37a2.32,2.32,0,0,0-.36,1.2A1.83,1.83,0,0,0,16.31,80a2.26,2.26,0,0,0,1.55.59,2,2,0,0,0,1.06-.29,2.37,2.37,0,0,0,.87-.88l7.57-13.13a3.15,3.15,0,0,0,.48-1.65,2,2,0,0,0-.49-1.36A1.79,1.79,0,0,0,26,62.74Zm56.19,14.6h-5l3.55-3.63a11.55,11.55,0,0,0,2.09-2.81,6.27,6.27,0,0,0,.61-2.79,4.57,4.57,0,0,0-.76-2.61,4.9,4.9,0,0,0-2.16-1.75,8,8,0,0,0-3.25-.61,10.19,10.19,0,0,0-5.53,1.7,1.62,1.62,0,0,0-.61.65,2.1,2.1,0,0,0-.16.9,2.15,2.15,0,0,0,.42,1.33,1.29,1.29,0,0,0,1.05.57,1.51,1.51,0,0,0,.48-.08,2.83,2.83,0,0,0,.51-.24l.39-.21.5-.25a10.92,10.92,0,0,1,1.41-.61A4.14,4.14,0,0,1,77,66.69a2,2,0,0,1,1.39.45,1.69,1.69,0,0,1,.48,1.3,4.87,4.87,0,0,1-1.65,3.17l-5.3,5.53a2.75,2.75,0,0,0-.85,2A1.84,1.84,0,0,0,73,81h9.13a2.53,2.53,0,0,0,1.64-.45,1.75,1.75,0,0,0,.53-1.4,1.69,1.69,0,0,0-.53-1.37A2.59,2.59,0,0,0,82.15,77.34Z"/></svg>