<svg id="Layer_1" data-name="Layer 1" xmlns="http://www.w3.org/2000/svg" viewBox="0 0 100 100"><title>l1_2_1</title><path d="M94.75,72.05A17.5,17.5,0,1,1,65.19,59.4l-11-16.28a17.13,17.13,0,0,1-9.52-.07L33.5,59.69h0a17.6,17.6,0,1,1-5.84-3.86L38.47,39.74a17.5,17.5,0,1,1,22.07.18L71.12,55.68a17.33,17.33,0,0,1,6.13-1.13A17.51,17.51,0,0,1,94.75,72.05Zm-42-11.68,4.32-4.28a2.36,2.36,0,0,0,.72-1.72,2.08,2.08,0,0,0-.72-1.64A2.21,2.21,0,0,0,55.41,52a2.3,2.3,0,0,0-1.68.72l-4.32,4.32-4.32-4.32A2.3,2.3,0,0,0,43.41,52a2.11,2.11,0,0,0-1.64.72,2.34,2.34,0,0,0-.72,1.72,2.49,2.49,0,0,0,.68,1.68l4.32,4.28-4.32,4.32a2.32,2.32,0,0,0,0,3.36,2.49,2.49,0,0,0,1.68.68,2.28,2.28,0,0,0,1.68-.68l4.32-4.32,4.32,4.32a2.32,2.32,0,0,0,3.36,0,2.28,2.28,0,0,0,.68-1.68,2.16,2.16,0,0,0-.68-1.68ZM46.93,28.23h-.55v-9a2.13,2.13,0,0,0-.68-1.68,2.35,2.35,0,0,0-1.62-.6A2.42,2.42,0,0,0,43,17.2a2.18,2.18,0,0,0-.89.76l-7.15,10.2a2.75,2.75,0,0,0-.55,1.65,1.84,1.84,0,0,0,1.95,1.92H41.9v.85a2.08,2.08,0,0,0,2.23,2.28,2.27,2.27,0,0,0,1.62-.58,2.18,2.18,0,0,0,.63-1.7v-.85h.55c1.45,0,2.17-.59,2.17-1.77S48.38,28.23,46.93,28.23Zm-8,0,3-4.32v4.32Zm18.88-5.05a6.28,6.28,0,0,0-2.48.45V20.56h5.4c1.45,0,2.18-.59,2.18-1.75s-.73-1.73-2.18-1.73H53a1.92,1.92,0,0,0-2.12,2.15V26a1.4,1.4,0,0,0,.47,1.09,1.76,1.76,0,0,0,1.18.41,2.3,2.3,0,0,0,1.12-.28A10.36,10.36,0,0,1,55,26.78a7.09,7.09,0,0,1,1.36-.12,2.83,2.83,0,0,1,2,.62,2.22,2.22,0,0,1,.7,1.75,2.19,2.19,0,0,1-.67,1.77,3.23,3.23,0,0,1-2.08.56,4.08,4.08,0,0,1-1.38-.23,13.84,13.84,0,0,1-1.42-.6l-.5-.25a6.14,6.14,0,0,0-.75-.37,1.58,1.58,0,0,0-.62-.1,1.28,1.28,0,0,0-1.05.54,2,2,0,0,0-.43,1.31,1.91,1.91,0,0,0,.19.86,2.31,2.31,0,0,0,.59.69,8.37,8.37,0,0,0,2.56,1.25,10.41,10.41,0,0,0,3,.45,8.08,8.08,0,0,0,3.57-.75A5.54,5.54,0,0,0,62.5,32a5.85,5.85,0,0,0,.85-3.17,5.92,5.92,0,0,0-.71-3,5,5,0,0,0-2-2A5.77,5.77,0,0,0,57.78,23.18ZM20.36,63.29a6.39,6.39,0,0,0-3.17.78A5.42,5.42,0,0,0,15,66.23a6.21,6.21,0,0,0-.79,3.14,6.27,6.27,0,0,0,.69,3,5.2,5.2,0,0,0,1.89,2,5.07,5.07,0,0,0,2.7.74,4.94,4.94,0,0,0,2.11-.46,4,4,0,0,0,1.54-1.27,6.75,6.75,0,0,1-.94,3.27,2.4,2.4,0,0,1-2.06,1.16,3.39,3.39,0,0,1-1.15-.2q-.55-.21-1.38-.6l-.55-.28c-.32-.16-.57-.29-.75-.36a1.52,1.52,0,0,0-.62-.11,1.36,1.36,0,0,0-1.07.53,2,2,0,0,0-.43,1.32,1.87,1.87,0,0,0,.18.87,2.16,2.16,0,0,0,.62.68,8,8,0,0,0,2.51,1.25,9.68,9.68,0,0,0,2.86.45,6.77,6.77,0,0,0,3.89-1.13A7.29,7.29,0,0,0,26.83,77a12.26,12.26,0,0,0,.91-4.89,9.92,9.92,0,0,0-1.93-6.55A6.72,6.72,0,0,0,20.36,63.29Zm.28,8.28a2,2,0,0,1-1.56-.64,2.52,2.52,0,0,1-.57-1.74,2.47,2.47,0,0,1,.58-1.72,1.94,1.94,0,0,1,1.55-.65,2,2,0,0,1,1.55.66,2.44,2.44,0,0,1,.6,1.71,2.5,2.5,0,0,1-.59,1.73A2,2,0,0,1,20.64,71.57Zm57.71-.95a6.28,6.28,0,0,0-2.48.45V68h5.4c1.45,0,2.18-.58,2.18-1.75s-.73-1.72-2.18-1.72H73.52a2.1,2.1,0,0,0-1.57.55,2.14,2.14,0,0,0-.55,1.6v6.77a1.37,1.37,0,0,0,.47,1.09,1.76,1.76,0,0,0,1.18.41,2.4,2.4,0,0,0,1.12-.27,8.21,8.21,0,0,1,1.44-.45A6.34,6.34,0,0,1,77,74.09a2.82,2.82,0,0,1,2,.63,2.2,2.2,0,0,1,.7,1.75A2.16,2.16,0,0,1,79,78.23a3.25,3.25,0,0,1-2.08.56,4.18,4.18,0,0,1-1.39-.22,14.76,14.76,0,0,1-1.41-.6l-.5-.25a6.58,6.58,0,0,0-.75-.38,1.83,1.83,0,0,0-.62-.1,1.28,1.28,0,0,0-1,.54,2,2,0,0,0-.43,1.31,1.76,1.76,0,0,0,.19.86,2,2,0,0,0,.59.69,8,8,0,0,0,2.56,1.25,10.41,10.41,0,0,0,3,.45,8.08,8.08,0,0,0,3.57-.75,5.7,5.7,0,0,0,2.4-2.12,5.91,5.91,0,0,0,.85-3.18,6.08,6.08,0,0,0-.71-3,5,5,0,0,0-2-2A5.7,5.7,0,0,0,78.35,70.62Z"/></svg>