<svg id="Layer_1" data-name="Layer 1" xmlns="http://www.w3.org/2000/svg" viewBox="0 0 100 100"><title>l1_2_1</title><path d="M93.75,72.05A17.5,17.5,0,1,1,64.19,59.4l-11-16.28a17.13,17.13,0,0,1-9.52-.07L32.5,59.69h0a17.6,17.6,0,1,1-5.84-3.86L37.47,39.74a17.5,17.5,0,1,1,22.07.18L70.12,55.68a17.33,17.33,0,0,1,6.13-1.13A17.51,17.51,0,0,1,93.75,72.05Zm-42-11.68,4.32-4.28a2.36,2.36,0,0,0,.72-1.72,2.08,2.08,0,0,0-.72-1.64A2.21,2.21,0,0,0,54.41,52a2.3,2.3,0,0,0-1.68.72l-4.32,4.32-4.32-4.32A2.3,2.3,0,0,0,42.41,52a2.11,2.11,0,0,0-1.64.72,2.34,2.34,0,0,0-.72,1.72,2.49,2.49,0,0,0,.68,1.68l4.32,4.28-4.32,4.32a2.32,2.32,0,0,0,0,3.36,2.49,2.49,0,0,0,1.68.68,2.28,2.28,0,0,0,1.68-.68l4.32-4.32,4.32,4.32a2.32,2.32,0,0,0,3.36,0,2.28,2.28,0,0,0,.68-1.68,2.16,2.16,0,0,0-.68-1.68ZM46.19,31.06h-5l3.55-3.63a11.74,11.74,0,0,0,2.08-2.81,6.28,6.28,0,0,0,.62-2.79,4.58,4.58,0,0,0-.77-2.61,4.9,4.9,0,0,0-2.16-1.75,8,8,0,0,0-3.25-.61,9.82,9.82,0,0,0-2.89.45,9.53,9.53,0,0,0-2.63,1.25,1.65,1.65,0,0,0-.62.65,2.1,2.1,0,0,0-.16.9,2.15,2.15,0,0,0,.43,1.34,1.28,1.28,0,0,0,1.05.56,1.5,1.5,0,0,0,.47-.08,3.57,3.57,0,0,0,.51-.23l.39-.22.5-.25a12.53,12.53,0,0,1,1.41-.61A4.14,4.14,0,0,1,41,20.41a2,2,0,0,1,1.39.45,1.7,1.7,0,0,1,.49,1.3,4.87,4.87,0,0,1-1.65,3.17L36,30.86a2.71,2.71,0,0,0-.85,2,1.86,1.86,0,0,0,.52,1.36,1.91,1.91,0,0,0,1.43.54h9.12a2.53,2.53,0,0,0,1.64-.45,1.72,1.72,0,0,0,.54-1.4,1.64,1.64,0,0,0-.54-1.36A2.53,2.53,0,0,0,46.19,31.06Zm11.6-7.88a6.22,6.22,0,0,0-2.47.45V20.56h5.4c1.45,0,2.17-.59,2.17-1.75s-.72-1.73-2.17-1.73H53a1.92,1.92,0,0,0-2.13,2.15V26a1.38,1.38,0,0,0,.48,1.09,1.72,1.72,0,0,0,1.17.41,2.34,2.34,0,0,0,1.13-.28,10.71,10.71,0,0,1,1.43-.45,7.2,7.2,0,0,1,1.37-.12,2.87,2.87,0,0,1,1.95.62,2.25,2.25,0,0,1,.7,1.75,2.19,2.19,0,0,1-.68,1.77,3.22,3.22,0,0,1-2.07.56,4.14,4.14,0,0,1-1.39-.23,12.87,12.87,0,0,1-1.41-.6l-.5-.25a8,8,0,0,0-.75-.37,1.67,1.67,0,0,0-.63-.1,1.28,1.28,0,0,0-1,.54,2,2,0,0,0-.42,1.31,1.91,1.91,0,0,0,.18.86,2.31,2.31,0,0,0,.59.69,8.37,8.37,0,0,0,2.56,1.25,10.46,10.46,0,0,0,3,.45,8.16,8.16,0,0,0,3.58-.75A5.66,5.66,0,0,0,62.52,32a6.39,6.39,0,0,0,.13-6.13,5,5,0,0,0-2-2A5.74,5.74,0,0,0,57.79,23.18ZM21.38,69.92a6.28,6.28,0,0,0-2.48.45V67.29h5.4c1.45,0,2.18-.58,2.18-1.75s-.73-1.72-2.18-1.72H16.55a2.12,2.12,0,0,0-1.57.55,2.14,2.14,0,0,0-.55,1.6v6.77a1.4,1.4,0,0,0,.47,1.09,1.76,1.76,0,0,0,1.18.41A2.4,2.4,0,0,0,17.2,74a8.21,8.21,0,0,1,1.44-.45A6.34,6.34,0,0,1,20,73.39,2.79,2.79,0,0,1,22,74a2.2,2.2,0,0,1,.7,1.75A2.16,2.16,0,0,1,22,77.53a3.23,3.23,0,0,1-2.08.56,4.08,4.08,0,0,1-1.38-.22,13.84,13.84,0,0,1-1.42-.6L16.6,77a6.58,6.58,0,0,0-.75-.38,1.58,1.58,0,0,0-.62-.1,1.28,1.28,0,0,0-1.05.54,2,2,0,0,0-.43,1.31,1.91,1.91,0,0,0,.19.86,2.2,2.2,0,0,0,.59.69,8.37,8.37,0,0,0,2.56,1.25,10.46,10.46,0,0,0,3,.45,8.08,8.08,0,0,0,3.57-.75,5.58,5.58,0,0,0,2.4-2.12,6.45,6.45,0,0,0,.14-6.14,5,5,0,0,0-2-2A5.76,5.76,0,0,0,21.38,69.92Zm56,.7a6.28,6.28,0,0,0-2.48.45V68h5.4c1.45,0,2.18-.58,2.18-1.75s-.73-1.72-2.18-1.72H72.52a2.1,2.1,0,0,0-1.57.55,2.14,2.14,0,0,0-.55,1.6v6.77a1.37,1.37,0,0,0,.47,1.09,1.76,1.76,0,0,0,1.18.41,2.4,2.4,0,0,0,1.12-.27,8.21,8.21,0,0,1,1.44-.45A6.34,6.34,0,0,1,76,74.09a2.82,2.82,0,0,1,2,.63,2.2,2.2,0,0,1,.7,1.75A2.16,2.16,0,0,1,78,78.23a3.25,3.25,0,0,1-2.08.56,4.18,4.18,0,0,1-1.39-.22,14.76,14.76,0,0,1-1.41-.6l-.5-.25a6.58,6.58,0,0,0-.75-.38,1.83,1.83,0,0,0-.62-.1,1.28,1.28,0,0,0-1,.54,2,2,0,0,0-.43,1.31,1.76,1.76,0,0,0,.19.86,2,2,0,0,0,.59.69,8,8,0,0,0,2.56,1.25,10.41,10.41,0,0,0,3,.45,8.08,8.08,0,0,0,3.57-.75,5.7,5.7,0,0,0,2.4-2.12,5.91,5.91,0,0,0,.85-3.18,6.08,6.08,0,0,0-.71-3,5,5,0,0,0-2-2A5.7,5.7,0,0,0,77.35,70.62Z"/></svg>