<svg id="Layer_1" data-name="Layer 1" xmlns="http://www.w3.org/2000/svg" viewBox="0 0 147.04 126.8"><title>l1_2_1</title><path d="M147,109.3a17.5,17.5,0,1,1-29.56-12.66l-11-16.27A17.26,17.26,0,0,1,97,80.29L85.79,96.94h0A17.64,17.64,0,1,1,80,93.08L90.76,77a17.45,17.45,0,0,1-3.09-23.62c.1-.15.21-.29.32-.43s.35-.48.54-.7A17,17,0,0,1,90,50.64L79,34.37a17.26,17.26,0,0,1-9.52-.08L58.3,50.94h0a17.63,17.63,0,0,1-1.39,26.21,24.29,24.29,0,0,1-3.24,1.94,23.42,23.42,0,0,1-3.07,1.27,17.13,17.13,0,0,1-9.52-.07L29.88,96.93h0A17.53,17.53,0,1,1,24,93.07L34.84,77a17.54,17.54,0,0,1,17.62-29.9L63.27,31a17.51,17.51,0,1,1,22.07.17L95.92,46.92a17.56,17.56,0,0,1,16.91,30.24l10.58,15.76A17.47,17.47,0,0,1,147,109.3ZM77.57,50.61l4.32-4.28a2.34,2.34,0,0,0,.72-1.72A2.11,2.11,0,0,0,81.89,43a2.21,2.21,0,0,0-1.68-.72,2.3,2.3,0,0,0-1.68.72l-4.32,4.32L69.89,43a2.34,2.34,0,0,0-1.68-.76,2.11,2.11,0,0,0-1.64.72,2.34,2.34,0,0,0-.72,1.72,2.47,2.47,0,0,0,.68,1.68l4.32,4.28-4.32,4.32a2.32,2.32,0,0,0,0,3.36,2.49,2.49,0,0,0,1.68.68,2.28,2.28,0,0,0,1.68-.68L74.21,54l4.32,4.32a2.32,2.32,0,0,0,3.36,0,2.25,2.25,0,0,0,.68-1.68,2.19,2.19,0,0,0-.68-1.68ZM48.86,95.43l4.32-4.28a2.34,2.34,0,0,0,.72-1.72,2.1,2.1,0,0,0-.72-1.64,2.24,2.24,0,0,0-1.68-.72,2.3,2.3,0,0,0-1.68.72L45.5,92.11l-4.32-4.32A2.33,2.33,0,0,0,39.5,87a2.08,2.08,0,0,0-1.64.72,2.34,2.34,0,0,0-.72,1.72,2.44,2.44,0,0,0,.68,1.68l4.32,4.28-4.32,4.32a2.32,2.32,0,0,0,0,3.36,2.45,2.45,0,0,0,1.68.68,2.32,2.32,0,0,0,1.68-.68l4.32-4.32,4.32,4.32a2.36,2.36,0,0,0,4-1.68,2.22,2.22,0,0,0-.68-1.68Zm56.07,0,4.32-4.28a2.34,2.34,0,0,0,.72-1.72,2.1,2.1,0,0,0-.72-1.64,2.21,2.21,0,0,0-1.68-.72,2.3,2.3,0,0,0-1.68.72l-4.32,4.32-4.32-4.32A2.33,2.33,0,0,0,95.57,87a2.1,2.1,0,0,0-1.64.72,2.34,2.34,0,0,0-.72,1.72,2.49,2.49,0,0,0,.68,1.68l4.32,4.28-4.32,4.32a2.32,2.32,0,0,0,0,3.36,2.49,2.49,0,0,0,1.68.68,2.28,2.28,0,0,0,1.68-.68l4.32-4.32,4.32,4.32a2.36,2.36,0,0,0,4-1.68,2.22,2.22,0,0,0-.68-1.68ZM72,21.3H67l3.55-3.62a11.66,11.66,0,0,0,2.08-2.81,6.34,6.34,0,0,0,.62-2.79,4.53,4.53,0,0,0-.77-2.61,4.78,4.78,0,0,0-2.16-1.75A8,8,0,0,0,67,7.1a10.13,10.13,0,0,0-5.52,1.7,1.72,1.72,0,0,0-.62.65,2.34,2.34,0,0,0-.16.9,2.11,2.11,0,0,0,.43,1.34,1.25,1.25,0,0,0,1,.56,1.49,1.49,0,0,0,.47-.07,2.83,2.83,0,0,0,.51-.24l.39-.21.5-.25a12.26,12.26,0,0,1,1.41-.61,3.88,3.88,0,0,1,1.34-.22,2,2,0,0,1,1.39.45,1.71,1.71,0,0,1,.49,1.3,4.87,4.87,0,0,1-1.65,3.18l-5.3,5.52a2.75,2.75,0,0,0-.85,1.95,1.89,1.89,0,0,0,.52,1.37,1.94,1.94,0,0,0,1.43.53H72a2.53,2.53,0,0,0,1.64-.45,1.71,1.71,0,0,0,.54-1.4,1.65,1.65,0,0,0-.54-1.36A2.59,2.59,0,0,0,72,21.3Zm15.75-2.82h-.55v-9a2.12,2.12,0,0,0-.67-1.67,2.36,2.36,0,0,0-1.63-.6,2.58,2.58,0,0,0-1.11.26,2.41,2.41,0,0,0-.89.76L75.74,18.4a2.86,2.86,0,0,0-.55,1.65,1.93,1.93,0,0,0,.53,1.38,1.89,1.89,0,0,0,1.42.55h5.58v.85a2.22,2.22,0,0,0,.61,1.7,2.28,2.28,0,0,0,1.61.57,2.33,2.33,0,0,0,1.63-.57,2.23,2.23,0,0,0,.62-1.7V22h.55c1.45,0,2.18-.59,2.18-1.78S89.19,18.48,87.74,18.48Zm-8,0,3-4.33v4.33Zm25.65,44.91a3.74,3.74,0,0,0,2-1.48,4.3,4.3,0,0,0,.72-2.5,4.14,4.14,0,0,0-1.74-3.51,9.32,9.32,0,0,0-9.46,0,4.12,4.12,0,0,0-1.75,3.51,4.22,4.22,0,0,0,.7,2.44,4.06,4.06,0,0,0,2,1.54,4.15,4.15,0,0,0-2.35,1.49,4.37,4.37,0,0,0-.83,2.73,4.32,4.32,0,0,0,1.86,3.72,10.4,10.4,0,0,0,10.18,0,4.4,4.4,0,0,0-1.29-7.94Zm-3.8,5.8c-1.81,0-2.72-.65-2.72-2s.91-1.95,2.72-1.95,2.73.65,2.73,1.95S103.39,69.19,101.57,69.19Zm0-11.1a2.7,2.7,0,0,1,1.68.44,1.71,1.71,0,0,1,.55,1.41,1.75,1.75,0,0,1-.55,1.42,2.63,2.63,0,0,1-1.68.45,2.58,2.58,0,0,1-1.67-.45,1.71,1.71,0,0,1-.55-1.42,1.68,1.68,0,0,1,.55-1.41A2.65,2.65,0,0,1,101.57,58.09ZM77.89,112.2h-.55v-9a2.12,2.12,0,0,0-.67-1.67,2.36,2.36,0,0,0-1.63-.6,2.58,2.58,0,0,0-1.11.26,2.41,2.41,0,0,0-.89.76l-7.15,10.2a2.86,2.86,0,0,0-.55,1.65,1.93,1.93,0,0,0,.53,1.38,1.85,1.85,0,0,0,1.42.55h5.58v.85a2.21,2.21,0,0,0,.61,1.7,2.28,2.28,0,0,0,1.61.57,2.33,2.33,0,0,0,1.63-.57,2.18,2.18,0,0,0,.62-1.7v-.85h.55c1.45,0,2.18-.59,2.18-1.78S79.34,112.2,77.89,112.2Zm-8,0,3-4.33v4.33Zm-48.82-2.6a4.11,4.11,0,0,0,2-1.51,4.2,4.2,0,0,0,.71-2.42,4.45,4.45,0,0,0-.76-2.55,5,5,0,0,0-2.18-1.7,8.28,8.28,0,0,0-3.26-.6,10,10,0,0,0-3,.45,8.37,8.37,0,0,0-2.54,1.25,2.18,2.18,0,0,0-.6.68,1.87,1.87,0,0,0-.18.87,2,2,0,0,0,.43,1.32,1.27,1.27,0,0,0,1.05.53,1.52,1.52,0,0,0,.62-.11,5.93,5.93,0,0,0,.75-.36l.53-.25a13.31,13.31,0,0,1,1.36-.6,3.8,3.8,0,0,1,1.31-.23,2.18,2.18,0,0,1,1.53.52,1.85,1.85,0,0,1,.55,1.43,1.4,1.4,0,0,1-.63,1.28,3.77,3.77,0,0,1-2,.4h-1.1a1.41,1.41,0,0,0-1.17.52,2,2,0,0,0-.43,1.25A1.93,1.93,0,0,0,14.5,111a1.42,1.42,0,0,0,1.17.53h1.55a3.78,3.78,0,0,1,2.05.42,1.57,1.57,0,0,1,.63,1.4,1.76,1.76,0,0,1-.61,1.5,3.49,3.49,0,0,1-2,.45,4.53,4.53,0,0,1-1.43-.21,10.07,10.07,0,0,1-1.44-.61l-.31-.14-.24-.11a7.63,7.63,0,0,0-.75-.36,1.57,1.57,0,0,0-.63-.12,1.31,1.31,0,0,0-1.05.54,2.28,2.28,0,0,0-.25,2.18,2,2,0,0,0,.6.68,8.08,8.08,0,0,0,2.6,1.27,11.16,11.16,0,0,0,3.13.43,9.37,9.37,0,0,0,3.54-.61,5.3,5.3,0,0,0,2.33-1.74,4.36,4.36,0,0,0,.83-2.65,4.42,4.42,0,0,0-.84-2.72A4.25,4.25,0,0,0,21.05,109.6ZM48.67,63.39a4.11,4.11,0,0,0,2-1.51,4.2,4.2,0,0,0,.71-2.42,4.38,4.38,0,0,0-.76-2.55,4.89,4.89,0,0,0-2.18-1.7,8.28,8.28,0,0,0-3.26-.6,10,10,0,0,0-3,.45,8.37,8.37,0,0,0-2.54,1.25,2.18,2.18,0,0,0-.6.68,1.88,1.88,0,0,0-.17.87,2.08,2.08,0,0,0,.42,1.32,1.27,1.27,0,0,0,1,.53A1.61,1.61,0,0,0,41,59.6a7.63,7.63,0,0,0,.75-.36l.52-.25a13.31,13.31,0,0,1,1.36-.6A3.81,3.81,0,0,1,45,58.16a2.15,2.15,0,0,1,1.52.52A1.85,1.85,0,0,1,47,60.11a1.42,1.42,0,0,1-.62,1.28,3.82,3.82,0,0,1-2,.4H43.3a1.43,1.43,0,0,0-1.18.52,2.07,2.07,0,0,0,0,2.5,1.44,1.44,0,0,0,1.18.53h1.55a3.8,3.8,0,0,1,2,.42,1.59,1.59,0,0,1,.62,1.4,1.73,1.73,0,0,1-.61,1.5,3.47,3.47,0,0,1-2,.45,4.55,4.55,0,0,1-1.44-.21A10.07,10.07,0,0,1,42,68.29l-.31-.14L41.47,68a7.63,7.63,0,0,0-.75-.36,1.52,1.52,0,0,0-.62-.12,1.28,1.28,0,0,0-1.05.54,2,2,0,0,0-.43,1.31,1.93,1.93,0,0,0,.18.87,1.79,1.79,0,0,0,.6.68A8,8,0,0,0,42,72.23a11.14,11.14,0,0,0,3.12.43,9.37,9.37,0,0,0,3.54-.61A5.27,5.27,0,0,0,51,70.31a4.35,4.35,0,0,0,.82-2.65A4.42,4.42,0,0,0,51,64.94,4.25,4.25,0,0,0,48.67,63.39ZM134.37,115h-5l3.55-3.62a11.74,11.74,0,0,0,2.08-2.81,6.28,6.28,0,0,0,.62-2.79,4.58,4.58,0,0,0-.77-2.61,4.9,4.9,0,0,0-2.16-1.75,8,8,0,0,0-3.25-.62,10.13,10.13,0,0,0-5.52,1.7,1.72,1.72,0,0,0-.62.65,2.16,2.16,0,0,0-.16.9,2.11,2.11,0,0,0,.43,1.34,1.25,1.25,0,0,0,1,.56,1.49,1.49,0,0,0,.47-.07,2.83,2.83,0,0,0,.51-.24l.39-.21.5-.25a10.92,10.92,0,0,1,1.41-.61,4.14,4.14,0,0,1,1.34-.22,2,2,0,0,1,1.39.45,1.71,1.71,0,0,1,.49,1.3,4.87,4.87,0,0,1-1.65,3.18l-5.3,5.52a2.75,2.75,0,0,0-.85,2,1.81,1.81,0,0,0,2,1.9h9.12a2.53,2.53,0,0,0,1.64-.45,1.71,1.71,0,0,0,.54-1.4,1.65,1.65,0,0,0-.54-1.36A2.59,2.59,0,0,0,134.37,115Z"/></svg>