<svg id="Layer_1" data-name="Layer 1" xmlns="http://www.w3.org/2000/svg" viewBox="0 0 100 100"><title>l1_2_1</title><path d="M94,73.57A17.5,17.5,0,1,1,64.42,60.91l-11-16.27a17.51,17.51,0,0,1-4.61.63,17.3,17.3,0,0,1-4.91-.71L32.73,61.21h0a17.6,17.6,0,1,1-5.84-3.86L37.7,41.26a17.51,17.51,0,1,1,22.07.17L70.35,57.2a17.33,17.33,0,0,1,6.13-1.13A17.51,17.51,0,0,1,94,73.57ZM52,61.88l4.32-4.28A2.34,2.34,0,0,0,57,55.88a2.11,2.11,0,0,0-.72-1.64,2.21,2.21,0,0,0-1.68-.72,2.3,2.3,0,0,0-1.68.72l-4.32,4.32-4.32-4.32a2.34,2.34,0,0,0-1.68-.76A2.11,2.11,0,0,0,41,54.2a2.36,2.36,0,0,0-.72,1.72A2.45,2.45,0,0,0,41,57.6l4.32,4.28L41,66.2a2.32,2.32,0,0,0,0,3.36,2.44,2.44,0,0,0,1.68.68,2.25,2.25,0,0,0,1.68-.68l4.32-4.32L53,69.56a2.32,2.32,0,0,0,3.36,0A2.25,2.25,0,0,0,57,67.88a2.19,2.19,0,0,0-.68-1.68ZM46.15,29.75H45.6v-9a2.13,2.13,0,0,0-.68-1.67,2.35,2.35,0,0,0-1.62-.6,2.59,2.59,0,0,0-1.12.26,2.38,2.38,0,0,0-.88.76L34.15,29.68a2.75,2.75,0,0,0-.55,1.65,1.92,1.92,0,0,0,.52,1.37,1.88,1.88,0,0,0,1.43.55h5.57v.85a2.21,2.21,0,0,0,.62,1.7,2.25,2.25,0,0,0,1.61.57A2.31,2.31,0,0,0,45,35.8a2.18,2.18,0,0,0,.63-1.7v-.85h.55c1.45,0,2.17-.59,2.17-1.78S47.6,29.75,46.15,29.75Zm-8,0,3-4.32v4.32Zm22.3,2.83h-5L59,29A11.82,11.82,0,0,0,61,26.14a6.41,6.41,0,0,0,.61-2.79,4.58,4.58,0,0,0-.77-2.61A4.79,4.79,0,0,0,58.72,19a8,8,0,0,0-3.25-.62,9.52,9.52,0,0,0-2.89.46A9.25,9.25,0,0,0,50,20.08a1.63,1.63,0,0,0-.62.64,2.34,2.34,0,0,0-.16.9A2.11,2.11,0,0,0,49.6,23a1.25,1.25,0,0,0,1,.56,1.49,1.49,0,0,0,.47-.07,2.83,2.83,0,0,0,.51-.24L52,23l.5-.25a12.26,12.26,0,0,1,1.41-.61,4.14,4.14,0,0,1,1.34-.21,2,2,0,0,1,1.39.44,1.7,1.7,0,0,1,.49,1.31,4.87,4.87,0,0,1-1.65,3.17l-5.3,5.52a2.75,2.75,0,0,0-.85,2,1.88,1.88,0,0,0,.52,1.36,1.9,1.9,0,0,0,1.43.53h9.12a2.45,2.45,0,0,0,1.64-.45,1.71,1.71,0,0,0,.54-1.4A1.65,1.65,0,0,0,62.06,33,2.57,2.57,0,0,0,60.42,32.58ZM21.72,71.06a4.76,4.76,0,0,0-2.11.46,3.93,3.93,0,0,0-1.54,1.26A6.6,6.6,0,0,1,19,69.52a2.39,2.39,0,0,1,2.06-1.16,3.43,3.43,0,0,1,1.15.2,14.15,14.15,0,0,1,1.37.6l.55.27c.32.17.57.29.75.37a1.81,1.81,0,0,0,.63.11,1.31,1.31,0,0,0,1.06-.54A2,2,0,0,0,27,68.06a1.82,1.82,0,0,0-.19-.88,2.2,2.2,0,0,0-.61-.67,8.08,8.08,0,0,0-2.51-1.25,9.74,9.74,0,0,0-2.87-.45A6.73,6.73,0,0,0,17,65.93a7.32,7.32,0,0,0-2.58,3.22A12.07,12.07,0,0,0,13.47,74a9.94,9.94,0,0,0,1.92,6.55,6.7,6.7,0,0,0,5.45,2.3A6.43,6.43,0,0,0,24,82.11,5.68,5.68,0,0,0,26.21,80a6.74,6.74,0,0,0,.1-6.1,5.13,5.13,0,0,0-1.89-2A5.07,5.07,0,0,0,21.72,71.06Zm-1.15,8.3A2,2,0,0,1,19,78.7a2.47,2.47,0,0,1-.6-1.72A2.43,2.43,0,0,1,19,75.26a2,2,0,0,1,1.56-.65,1.94,1.94,0,0,1,1.56.64A2.49,2.49,0,0,1,22.69,77a2.52,2.52,0,0,1-.57,1.73A2,2,0,0,1,20.57,79.36ZM81.4,66H71.6A2.44,2.44,0,0,0,70,66.5a1.74,1.74,0,0,0-.52,1.38,1.71,1.71,0,0,0,.51,1.35,2.5,2.5,0,0,0,1.66.45h6.25l-6.42,11a2.3,2.3,0,0,0-.35,1.2,1.83,1.83,0,0,0,.67,1.44,2.3,2.3,0,0,0,1.55.58,2.19,2.19,0,0,0,1.07-.28,2.38,2.38,0,0,0,.86-.89L82.8,69.58a3.15,3.15,0,0,0,.48-1.65,1.93,1.93,0,0,0-.49-1.36A1.79,1.79,0,0,0,81.4,66Z"/></svg>