<svg id="Layer_1" data-name="Layer 1" xmlns="http://www.w3.org/2000/svg" viewBox="0 0 200 150"><title>l1_3_1</title><path d="M196.18,112.34a17.5,17.5,0,1,1-29.56-12.66l-11-16.27a17.51,17.51,0,0,1-4.61.63,17.28,17.28,0,0,1-4.9-.71L134.94,100h0a17.55,17.55,0,1,1-5.83-3.86L139.9,80a17.46,17.46,0,0,1-2.1-24.89l-20.64-13.7a17.48,17.48,0,0,1-28.87,0v0L66.82,55.72a17.47,17.47,0,0,1-2.74,24.59L74.66,96.07a17.33,17.33,0,0,1,6.13-1.13,17.55,17.55,0,1,1-12.06,4.85l-11-16.28a17.13,17.13,0,0,1-9.52-.07L37,100.08h0a17.6,17.6,0,1,1-5.84-3.86L42,80.13a17.5,17.5,0,0,1,19.29-29L85.54,34.78a17.07,17.07,0,0,1-.31-3.22,17.5,17.5,0,0,1,35,0,17.8,17.8,0,0,1-.31,3.2q11.82,8,23.65,16A17.49,17.49,0,0,1,162,80.2L172.56,96a17.32,17.32,0,0,1,6.12-1.13A17.5,17.5,0,0,1,196.18,112.34ZM112.45,64.66h-6.3v-6.3a2.89,2.89,0,0,0-.85-2.1,3,3,0,0,0-5,2.1v6.3H94a2.9,2.9,0,0,0-3,3,3,3,0,0,0,.85,2.13,2.81,2.81,0,0,0,2.1.87h6.3v6.25a2.9,2.9,0,0,0,3,3,2.8,2.8,0,0,0,2.12-.85,2.91,2.91,0,0,0,.83-2.1V70.61h6.3a2.83,2.83,0,0,0,2.1-.87,3,3,0,0,0,.85-2.13,2.89,2.89,0,0,0-.85-2.1A2.85,2.85,0,0,0,112.45,64.66Zm-16-32.91a3,3,0,0,0,1.57-1.18,3.46,3.46,0,0,0,.57-2,3.31,3.31,0,0,0-1.39-2.81,7.47,7.47,0,0,0-7.57,0,3.32,3.32,0,0,0-1.4,2.81,3.41,3.41,0,0,0,.56,1.95,3.22,3.22,0,0,0,1.6,1.23,3.38,3.38,0,0,0-1.88,1.19,3.52,3.52,0,0,0-.66,2.19,3.45,3.45,0,0,0,1.49,3,8.28,8.28,0,0,0,8.14,0,3.43,3.43,0,0,0,1.49-3A3.52,3.52,0,0,0,98.35,33,3.44,3.44,0,0,0,96.48,31.75Zm-3,4.64c-1.45,0-2.18-.52-2.18-1.56s.73-1.56,2.18-1.56,2.18.52,2.18,1.56S94.9,36.39,93.44,36.39Zm0-8.88a2.15,2.15,0,0,1,1.34.35A1.38,1.38,0,0,1,95.22,29a1.4,1.4,0,0,1-.44,1.14,2.67,2.67,0,0,1-2.68,0A1.4,1.4,0,0,1,91.66,29a1.38,1.38,0,0,1,.44-1.13A2.17,2.17,0,0,1,93.44,27.51Zm8.72,11.62a1.82,1.82,0,0,0,1.37-.56,1.87,1.87,0,0,0,.55-1.38,1.9,1.9,0,0,0-.55-1.38,1.85,1.85,0,0,0-1.37-.56,2,2,0,0,0-1.39,3.32A1.85,1.85,0,0,0,102.16,39.13Zm9.7-9.34a5,5,0,0,0-2,.36V27.69h4.32c1.16,0,1.74-.46,1.74-1.4s-.58-1.38-1.74-1.38H108a1.71,1.71,0,0,0-1.26.44,1.76,1.76,0,0,0-.44,1.28v5.42a1.11,1.11,0,0,0,.38.87,1.38,1.38,0,0,0,.94.33,1.87,1.87,0,0,0,.9-.22,7.69,7.69,0,0,1,1.15-.36,6,6,0,0,1,1.09-.1,2.27,2.27,0,0,1,1.56.5,1.8,1.8,0,0,1,.56,1.4,1.73,1.73,0,0,1-.54,1.41,2.55,2.55,0,0,1-1.66.45,3.31,3.31,0,0,1-1.11-.18,10.83,10.83,0,0,1-1.13-.48l-.4-.2-.6-.3a1.41,1.41,0,0,0-.5-.08,1.06,1.06,0,0,0-.84.43,1.63,1.63,0,0,0-.34,1,1.47,1.47,0,0,0,.15.69,1.71,1.71,0,0,0,.47.55,6.53,6.53,0,0,0,2.05,1,8.31,8.31,0,0,0,2.43.36,6.5,6.5,0,0,0,2.86-.6,4.42,4.42,0,0,0,1.92-1.7,4.75,4.75,0,0,0,.68-2.54,4.83,4.83,0,0,0-.57-2.37,4.12,4.12,0,0,0-1.58-1.6A4.6,4.6,0,0,0,111.86,29.79ZM60.35,96.4h-5v-5a2.25,2.25,0,0,0-.68-1.68A2.28,2.28,0,0,0,53,89a2.32,2.32,0,0,0-1.68.68,2.28,2.28,0,0,0-.68,1.68v5h-5a2.32,2.32,0,0,0-1.68.68,2.28,2.28,0,0,0-.68,1.68,2.36,2.36,0,0,0,.68,1.7,2.26,2.26,0,0,0,1.68.7h5v5a2.28,2.28,0,0,0,.68,1.68,2.32,2.32,0,0,0,1.68.68,2.27,2.27,0,0,0,1.7-.68,2.31,2.31,0,0,0,.66-1.68v-5h5a2.23,2.23,0,0,0,1.68-.7,2.32,2.32,0,0,0,.68-1.7A2.25,2.25,0,0,0,62,97.08,2.28,2.28,0,0,0,60.35,96.4ZM46.07,64.82a3.84,3.84,0,0,0-1.69.37,3.22,3.22,0,0,0-1.23,1,5.32,5.32,0,0,1,.75-2.61,1.91,1.91,0,0,1,1.65-.93,2.58,2.58,0,0,1,.92.16c.3.11.66.27,1.1.48l.44.22.6.29a1.35,1.35,0,0,0,.5.09,1,1,0,0,0,.85-.43,1.59,1.59,0,0,0,.35-1,1.48,1.48,0,0,0-.15-.7,1.63,1.63,0,0,0-.49-.54,6.31,6.31,0,0,0-2-1,7.75,7.75,0,0,0-2.29-.36,5.44,5.44,0,0,0-3.11.9,5.91,5.91,0,0,0-2.06,2.57,9.81,9.81,0,0,0-.73,3.91A8,8,0,0,0,41,72.44a5.36,5.36,0,0,0,4.36,1.84,5.16,5.16,0,0,0,2.54-.62,4.41,4.41,0,0,0,1.75-1.73,5.35,5.35,0,0,0,.08-4.88,4,4,0,0,0-3.67-2.23Zm-.92,6.64a1.62,1.62,0,0,1-1.24-.53,2,2,0,0,1-.48-1.37,2,2,0,0,1,.47-1.38,1.6,1.6,0,0,1,1.25-.52,1.57,1.57,0,0,1,1.25.51,2.34,2.34,0,0,1,0,2.77A1.55,1.55,0,0,1,45.15,71.46Zm8.44,2.76A1.84,1.84,0,0,0,55,73.66a2,2,0,0,0,0-2.76,1.84,1.84,0,0,0-1.37-.56,1.88,1.88,0,0,0-1.39.56,2,2,0,0,0,0,2.76A1.88,1.88,0,0,0,53.59,74.22Zm9.7-9.34a5,5,0,0,0-2,.36V62.78h4.32c1.16,0,1.74-.47,1.74-1.4S66.79,60,65.63,60h-6.2a1.54,1.54,0,0,0-1.7,1.72v5.42a1.11,1.11,0,0,0,.38.87,1.4,1.4,0,0,0,.94.33,1.87,1.87,0,0,0,.9-.22,8.07,8.07,0,0,1,1.15-.36,5.25,5.25,0,0,1,1.09-.1,2.27,2.27,0,0,1,1.56.5,1.75,1.75,0,0,1,.56,1.4A1.73,1.73,0,0,1,63.77,71a2.55,2.55,0,0,1-1.66.45A3.31,3.31,0,0,1,61,71.24a11.82,11.82,0,0,1-1.13-.48l-.4-.2a4.08,4.08,0,0,0-.6-.3,1.41,1.41,0,0,0-.5-.08,1,1,0,0,0-.84.43,1.69,1.69,0,0,0-.34,1,1.47,1.47,0,0,0,.15.69,1.82,1.82,0,0,0,.47.55,6.64,6.64,0,0,0,2,1,8.41,8.41,0,0,0,2.43.36,6.47,6.47,0,0,0,2.86-.6A4.49,4.49,0,0,0,67.07,72a4.66,4.66,0,0,0,.68-2.54,4.83,4.83,0,0,0-.57-2.37,4,4,0,0,0-1.58-1.6A4.6,4.6,0,0,0,63.29,64.88ZM17,110.26a3.8,3.8,0,0,0-1.69.37,3.07,3.07,0,0,0-1.23,1,5.32,5.32,0,0,1,.75-2.61,1.91,1.91,0,0,1,1.65-.93,2.62,2.62,0,0,1,.92.16,9.48,9.48,0,0,1,1.1.48L19,109c.25.13.45.23.6.29a1.28,1.28,0,0,0,.5.09,1.09,1.09,0,0,0,.85-.43,1.64,1.64,0,0,0,.35-1,1.45,1.45,0,0,0-.15-.7,1.74,1.74,0,0,0-.49-.54,6.31,6.31,0,0,0-2-1,7.8,7.8,0,0,0-2.29-.36,5.39,5.39,0,0,0-3.11.9,5.72,5.72,0,0,0-2.06,2.57,9.61,9.61,0,0,0-.73,3.91A8,8,0,0,0,12,117.88a5.39,5.39,0,0,0,4.36,1.84,5.22,5.22,0,0,0,2.54-.62,4.55,4.55,0,0,0,1.75-1.73,5,5,0,0,0,.63-2.51,5.11,5.11,0,0,0-.55-2.37,4.13,4.13,0,0,0-1.51-1.64A4,4,0,0,0,17,110.26Zm-.92,6.64a1.6,1.6,0,0,1-1.24-.53,2,2,0,0,1-.48-1.37,1.93,1.93,0,0,1,.47-1.38,1.77,1.77,0,0,1,2.5,0,2,2,0,0,1,.45,1.39,2.05,2.05,0,0,1-.46,1.38A1.6,1.6,0,0,1,16.09,116.9Zm8.44,2.76a1.87,1.87,0,0,0,1.37-.56,1.9,1.9,0,0,0,.55-1.38,1.87,1.87,0,0,0-.55-1.38,2,2,0,0,0-2.76,0,1.87,1.87,0,0,0-.55,1.38,1.9,1.9,0,0,0,.55,1.38A1.87,1.87,0,0,0,24.53,119.66Zm8.72.06a4.68,4.68,0,0,0,4-1.86,8.94,8.94,0,0,0,1.38-5.38,8.87,8.87,0,0,0-1.39-5.36,4.69,4.69,0,0,0-4-1.86,4.67,4.67,0,0,0-4,1.86,8.88,8.88,0,0,0-1.38,5.36,8.94,8.94,0,0,0,1.38,5.38A4.67,4.67,0,0,0,33.25,119.72Zm0-2.78a1.44,1.44,0,0,1-1.38-1,10,10,0,0,1-.42-3.42,9.83,9.83,0,0,1,.42-3.41,1.44,1.44,0,0,1,2.76,0,9.84,9.84,0,0,1,.42,3.4,10,10,0,0,1-.42,3.42A1.44,1.44,0,0,1,33.25,116.94Zm38.69,3.78a4.68,4.68,0,0,0,4-1.87,8.92,8.92,0,0,0,1.38-5.38,8.82,8.82,0,0,0-1.39-5.36,5.24,5.24,0,0,0-8,0,8.9,8.9,0,0,0-1.38,5.36,8.92,8.92,0,0,0,1.38,5.38A4.68,4.68,0,0,0,71.94,120.72Zm0-2.79a1.43,1.43,0,0,1-1.38-1,14.09,14.09,0,0,1,0-6.83,1.44,1.44,0,0,1,2.76,0,14.05,14.05,0,0,1,0,6.82A1.43,1.43,0,0,1,71.94,117.93Zm8.72,2.73a1.83,1.83,0,0,0,1.37-.57,1.86,1.86,0,0,0,.55-1.37,1.91,1.91,0,0,0-.55-1.39,1.85,1.85,0,0,0-1.37-.55,1.88,1.88,0,0,0-1.39.55,1.91,1.91,0,0,0-.55,1.39,1.91,1.91,0,0,0,1.94,1.94Zm9.7-9.35a4.83,4.83,0,0,0-2,.37v-2.46H92.7q1.74,0,1.74-1.41t-1.74-1.38H86.5a1.71,1.71,0,0,0-1.26.44,1.77,1.77,0,0,0-.44,1.29v5.41a1.14,1.14,0,0,0,.38.88,1.43,1.43,0,0,0,.94.33,1.88,1.88,0,0,0,.9-.23,6.55,6.55,0,0,1,1.15-.35,5.22,5.22,0,0,1,1.09-.11,2.27,2.27,0,0,1,1.56.5,1.8,1.8,0,0,1,.56,1.4,1.77,1.77,0,0,1-.54,1.42,2.61,2.61,0,0,1-1.66.44,3.59,3.59,0,0,1-1.11-.17c-.34-.13-.72-.29-1.13-.48l-.4-.21c-.27-.14-.47-.24-.6-.29a1.21,1.21,0,0,0-.5-.09,1.06,1.06,0,0,0-.84.43,1.63,1.63,0,0,0-.34,1,1.47,1.47,0,0,0,.15.69,1.71,1.71,0,0,0,.47.55,6.53,6.53,0,0,0,2.05,1,8.32,8.32,0,0,0,2.43.37,6.5,6.5,0,0,0,2.86-.61,4.36,4.36,0,0,0,1.92-1.7,5.12,5.12,0,0,0,.11-4.9,4.08,4.08,0,0,0-1.58-1.61A4.71,4.71,0,0,0,90.36,111.31Zm67.89-15h-5v-5a2.32,2.32,0,0,0-2.36-2.36,2.32,2.32,0,0,0-2.36,2.36v5h-5a2.32,2.32,0,0,0-2.36,2.36,2.34,2.34,0,0,0,.68,1.7,2.26,2.26,0,0,0,1.68.7h5v5a2.39,2.39,0,0,0,4.06,1.68,2.34,2.34,0,0,0,.66-1.68v-5h5a2.3,2.3,0,0,0,1.68-.7,2.38,2.38,0,0,0,.68-1.7,2.32,2.32,0,0,0-2.36-2.36ZM146.48,71.08h-4l2.84-2.9A9.49,9.49,0,0,0,147,65.93a5,5,0,0,0,.49-2.23,3.64,3.64,0,0,0-.61-2.09,3.9,3.9,0,0,0-1.73-1.4,6.38,6.38,0,0,0-2.6-.49,7.83,7.83,0,0,0-2.31.36,7.74,7.74,0,0,0-2.11,1,1.33,1.33,0,0,0-.49.52,1.69,1.69,0,0,0-.13.72,1.71,1.71,0,0,0,.34,1.07,1,1,0,0,0,.84.45,1.21,1.21,0,0,0,.38-.06,2.07,2.07,0,0,0,.41-.19l.31-.17.4-.2a9.68,9.68,0,0,1,1.13-.49,3.08,3.08,0,0,1,1.07-.17,1.58,1.58,0,0,1,1.11.36,1.35,1.35,0,0,1,.39,1,3.9,3.9,0,0,1-1.32,2.54l-4.24,4.42a2.2,2.2,0,0,0-.68,1.56A1.46,1.46,0,0,0,139.18,74h7.3a2,2,0,0,0,1.31-.36,1.36,1.36,0,0,0,.43-1.12,1.31,1.31,0,0,0-.43-1.09A2.07,2.07,0,0,0,146.48,71.08Zm5,3a1.94,1.94,0,1,0,0-3.88,1.94,1.94,0,1,0,0,3.88Zm8.72.06a4.67,4.67,0,0,0,4-1.86,8.92,8.92,0,0,0,1.38-5.38,8.82,8.82,0,0,0-1.39-5.36,5.22,5.22,0,0,0-8,0,8.9,8.9,0,0,0-1.38,5.36,8.92,8.92,0,0,0,1.38,5.38A4.67,4.67,0,0,0,160.22,74.18Zm0-2.78a1.44,1.44,0,0,1-1.38-1,9.93,9.93,0,0,1-.42-3.42,9.86,9.86,0,0,1,.42-3.41,1.44,1.44,0,0,1,2.76,0,9.84,9.84,0,0,1,.42,3.4,9.93,9.93,0,0,1-.42,3.42A1.44,1.44,0,0,1,160.22,71.4Zm-42.28,45.11H116.3V107a1.67,1.67,0,0,0-1.78-1.78,3.43,3.43,0,0,0-1.66.5l-3.2,1.86a1.38,1.38,0,0,0-.7,1.24,1.71,1.71,0,0,0,.4,1.09,1.2,1.2,0,0,0,1,.49,1.29,1.29,0,0,0,.7-.2l1.6-.94v7.22H111a2,2,0,0,0-1.32.36,1.34,1.34,0,0,0-.42,1.08c0,1,.58,1.48,1.74,1.48h6.94c1.16,0,1.74-.49,1.74-1.48a1.34,1.34,0,0,0-.42-1.08A2,2,0,0,0,117.94,116.51Zm4.48,3a1.8,1.8,0,0,0,1.37-.56,1.87,1.87,0,0,0,.55-1.38,1.9,1.9,0,0,0-.55-1.38,1.84,1.84,0,0,0-1.37-.56,1.88,1.88,0,0,0-1.39.56,1.94,1.94,0,0,0-.55,1.38A1.91,1.91,0,0,0,121,119,1.85,1.85,0,0,0,122.42,119.55Zm11.26-7.38a3.19,3.19,0,0,0,1.59-1.21,3.3,3.3,0,0,0,.57-1.93,3.48,3.48,0,0,0-.61-2,3.88,3.88,0,0,0-1.74-1.36,6.61,6.61,0,0,0-2.61-.48,8,8,0,0,0-2.37.36,6.87,6.87,0,0,0-2,1,1.94,1.94,0,0,0-.48.54,1.62,1.62,0,0,0-.14.7,1.65,1.65,0,0,0,.34,1,1,1,0,0,0,.84.43,1.28,1.28,0,0,0,.5-.09,5.1,5.1,0,0,0,.6-.29l.42-.2a11.5,11.5,0,0,1,1.09-.48,3,3,0,0,1,1-.18,1.73,1.73,0,0,1,1.22.41,1.49,1.49,0,0,1,.44,1.15,1.1,1.1,0,0,1-.5,1,3,3,0,0,1-1.6.32h-.88a1.15,1.15,0,0,0-.94.42,1.59,1.59,0,0,0-.34,1,1.57,1.57,0,0,0,.34,1,1.15,1.15,0,0,0,.94.42h1.24a3.06,3.06,0,0,1,1.64.34,1.24,1.24,0,0,1,.5,1.12,1.38,1.38,0,0,1-.49,1.2,2.75,2.75,0,0,1-1.61.36,3.47,3.47,0,0,1-1.15-.17,7.87,7.87,0,0,1-1.15-.49l-.25-.11-.19-.09c-.25-.13-.45-.23-.6-.29a1.28,1.28,0,0,0-.5-.09,1.06,1.06,0,0,0-.84.43,1.69,1.69,0,0,0-.34,1,1.6,1.6,0,0,0,.14.69,1.63,1.63,0,0,0,.48.55,6.4,6.4,0,0,0,2.08,1,8.68,8.68,0,0,0,2.5.35,7.42,7.42,0,0,0,2.83-.49,4.14,4.14,0,0,0,1.87-1.39,3.47,3.47,0,0,0,.66-2.12,3.53,3.53,0,0,0-.67-2.18A3.38,3.38,0,0,0,133.68,112.17Zm36.16,8.44a4.68,4.68,0,0,0,4-1.86,8.92,8.92,0,0,0,1.38-5.38,8.89,8.89,0,0,0-1.39-5.36,5.22,5.22,0,0,0-8,0,8.9,8.9,0,0,0-1.38,5.36,8.92,8.92,0,0,0,1.38,5.38A4.67,4.67,0,0,0,169.84,120.61Zm0-2.78a1.43,1.43,0,0,1-1.38-1,14.09,14.09,0,0,1,0-6.83,1.44,1.44,0,0,1,2.76,0,14.05,14.05,0,0,1,0,6.82A1.43,1.43,0,0,1,169.84,117.83Zm8.72,2.72a1.83,1.83,0,0,0,1.37-.56,1.91,1.91,0,0,0,.55-1.38,1.94,1.94,0,0,0-.55-1.38,2,2,0,0,0-2.76,0,1.9,1.9,0,0,0-.55,1.38,1.87,1.87,0,0,0,.55,1.38A1.83,1.83,0,0,0,178.56,120.55Zm12.76-14.22h-7.84a2,2,0,0,0-1.32.37,1.41,1.41,0,0,0-.42,1.11,1.34,1.34,0,0,0,.41,1.08,2,2,0,0,0,1.33.36h5L183.34,118a1.86,1.86,0,0,0-.28,1,1.45,1.45,0,0,0,.54,1.15,1.8,1.8,0,0,0,1.24.47,1.67,1.67,0,0,0,.85-.23,1.89,1.89,0,0,0,.69-.71l6.06-10.5a2.55,2.55,0,0,0,.38-1.32,1.57,1.57,0,0,0-.39-1.09A1.45,1.45,0,0,0,191.32,106.33Z"/></svg>