<svg id="Layer_1" data-name="Layer 1" xmlns="http://www.w3.org/2000/svg" viewBox="0 0 200 150"><title>l1_3_1</title><path d="M197,115.34a17.5,17.5,0,1,1-29.57-12.66l-11-16.27a17.62,17.62,0,0,1-4.61.63,17.3,17.3,0,0,1-4.91-.71L135.72,103h0a17.6,17.6,0,1,1-5.84-3.86L140.68,83a17.49,17.49,0,0,1-2.1-24.89l-20.64-13.7a17.48,17.48,0,0,1-28.87,0v0L67.6,58.72a17.47,17.47,0,0,1-2.74,24.59L75.44,99.07a17.33,17.33,0,0,1,6.13-1.13,17.55,17.55,0,1,1-12.06,4.85l-11-16.28A17.13,17.13,0,0,1,49,86.44L37.82,103.08h0A17.6,17.6,0,1,1,32,99.22L42.79,83.13a17.5,17.5,0,0,1,19.29-29L86.32,37.78A17.07,17.07,0,0,1,86,34.56a17.5,17.5,0,0,1,35,0,17.8,17.8,0,0,1-.31,3.2l23.65,16A17.48,17.48,0,0,1,162.76,83.2L173.34,99a17.33,17.33,0,0,1,6.13-1.13A17.51,17.51,0,0,1,197,115.34ZM113.23,67.66h-6.3v-6.3a3,3,0,1,0-5.9,0v6.3h-6.3a2.9,2.9,0,0,0-3,3,2.91,2.91,0,0,0,.85,2.12,2.8,2.8,0,0,0,2.1.88H101v6.25a3,3,0,0,0,5.08,2.1,2.9,2.9,0,0,0,.82-2.1V73.61h6.3a2.8,2.8,0,0,0,2.1-.88,2.91,2.91,0,0,0,.85-2.12,2.9,2.9,0,0,0-3-3ZM97.93,39.09h-4l2.84-2.9a9.22,9.22,0,0,0,1.67-2.25,5,5,0,0,0,.49-2.23,3.64,3.64,0,0,0-.61-2.09,3.85,3.85,0,0,0-1.73-1.4,6.35,6.35,0,0,0-2.6-.49,7.83,7.83,0,0,0-2.31.36,7.74,7.74,0,0,0-2.11,1,1.33,1.33,0,0,0-.49.52,1.85,1.85,0,0,0-.13.72,1.77,1.77,0,0,0,.34,1.07,1,1,0,0,0,.84.45,1.16,1.16,0,0,0,.38-.06,2.07,2.07,0,0,0,.41-.19l.31-.17.4-.2a10.47,10.47,0,0,1,1.13-.49,3.38,3.38,0,0,1,1.07-.17,1.58,1.58,0,0,1,1.11.36,1.35,1.35,0,0,1,.39,1A3.9,3.9,0,0,1,94,34.51l-4.24,4.42a2.22,2.22,0,0,0-.68,1.56A1.46,1.46,0,0,0,90.63,42h7.3a2,2,0,0,0,1.31-.36,1.36,1.36,0,0,0,.43-1.12,1.31,1.31,0,0,0-.43-1.09A2.05,2.05,0,0,0,97.93,39.09Zm5,3a1.84,1.84,0,0,0,1.37-.56,2,2,0,0,0,0-2.76,1.84,1.84,0,0,0-1.37-.56,1.88,1.88,0,0,0-1.39.56,2,2,0,0,0,0,2.76A1.88,1.88,0,0,0,103,42.13Zm8.72.06a4.67,4.67,0,0,0,4-1.86A8.92,8.92,0,0,0,117.05,35a8.82,8.82,0,0,0-1.39-5.36,5.22,5.22,0,0,0-8,0A8.9,8.9,0,0,0,106.29,35a8.92,8.92,0,0,0,1.38,5.38A4.68,4.68,0,0,0,111.67,42.19Zm0-2.78a1.44,1.44,0,0,1-1.38-1,9.93,9.93,0,0,1-.42-3.42,9.86,9.86,0,0,1,.42-3.41,1.44,1.44,0,0,1,2.76,0,9.88,9.88,0,0,1,.42,3.4,9.93,9.93,0,0,1-.42,3.42A1.44,1.44,0,0,1,111.67,39.41Zm-50.54,60h-5v-5A2.32,2.32,0,0,0,53.73,92a2.32,2.32,0,0,0-2.36,2.36v5h-5A2.32,2.32,0,0,0,44,101.76a2.38,2.38,0,0,0,.68,1.7,2.3,2.3,0,0,0,1.68.7h5v5a2.32,2.32,0,0,0,2.36,2.36,2.27,2.27,0,0,0,1.7-.68,2.34,2.34,0,0,0,.66-1.68v-5h5a2.26,2.26,0,0,0,1.68-.7,2.34,2.34,0,0,0,.68-1.7,2.32,2.32,0,0,0-2.36-2.36ZM49.9,74.18H48.25V64.7a1.75,1.75,0,0,0-.48-1.3,1.77,1.77,0,0,0-1.29-.48,3.4,3.4,0,0,0-1.66.5l-3.2,1.86a1.35,1.35,0,0,0-.7,1.24,1.67,1.67,0,0,0,.4,1.09,1.18,1.18,0,0,0,1,.49,1.41,1.41,0,0,0,.7-.2l1.6-.94v7.22H43a2,2,0,0,0-1.32.36,1.35,1.35,0,0,0-.43,1.08c0,1,.58,1.48,1.75,1.48H49.9c1.16,0,1.74-.49,1.74-1.48a1.32,1.32,0,0,0-.43-1.08A2,2,0,0,0,49.9,74.18Zm4.48,3a1.87,1.87,0,0,0,1.37-.56,2,2,0,0,0,0-2.76,2,2,0,1,0-1.37,3.32Zm8.71.06a4.67,4.67,0,0,0,4-1.86A8.92,8.92,0,0,0,68.47,70a8.82,8.82,0,0,0-1.39-5.36,5.22,5.22,0,0,0-8,0A8.9,8.9,0,0,0,57.71,70a8.92,8.92,0,0,0,1.38,5.38A4.68,4.68,0,0,0,63.09,77.28Zm0-2.78a1.45,1.45,0,0,1-1.38-1A9.93,9.93,0,0,1,61.29,70a9.86,9.86,0,0,1,.42-3.41,1.44,1.44,0,0,1,2.76,0,9.88,9.88,0,0,1,.42,3.4,9.93,9.93,0,0,1-.42,3.42A1.44,1.44,0,0,1,63.09,74.5Zm-46.5,49.21a4.67,4.67,0,0,0,4-1.86A8.92,8.92,0,0,0,22,116.47a8.82,8.82,0,0,0-1.39-5.36,4.69,4.69,0,0,0-4-1.86,4.67,4.67,0,0,0-4,1.86,11.14,11.14,0,0,0,0,10.74A4.67,4.67,0,0,0,16.59,123.71Zm0-2.78a1.43,1.43,0,0,1-1.38-1,14.09,14.09,0,0,1,0-6.83,1.44,1.44,0,0,1,2.76,0,14.05,14.05,0,0,1,0,6.82A1.43,1.43,0,0,1,16.59,120.93Zm8.72,2.72a1.82,1.82,0,0,0,1.37-.56,1.87,1.87,0,0,0,.55-1.38,1.9,1.9,0,0,0-.55-1.38,1.85,1.85,0,0,0-1.37-.56,2,2,0,0,0-1.39,3.32A1.85,1.85,0,0,0,25.31,123.65Zm9.7-9.34a5,5,0,0,0-2,.36v-2.46h4.32c1.16,0,1.74-.46,1.74-1.4s-.58-1.38-1.74-1.38h-6.2a1.71,1.71,0,0,0-1.26.44,1.76,1.76,0,0,0-.44,1.28v5.42a1.11,1.11,0,0,0,.38.87,1.38,1.38,0,0,0,.94.33,1.87,1.87,0,0,0,.9-.22,7.69,7.69,0,0,1,1.15-.36,6,6,0,0,1,1.09-.1,2.27,2.27,0,0,1,1.56.5A1.8,1.8,0,0,1,36,119a1.73,1.73,0,0,1-.54,1.41,2.55,2.55,0,0,1-1.66.45,3.31,3.31,0,0,1-1.11-.18,10.83,10.83,0,0,1-1.13-.48l-.4-.2-.6-.3a1.41,1.41,0,0,0-.5-.08,1.06,1.06,0,0,0-.84.43,1.63,1.63,0,0,0-.34,1,1.47,1.47,0,0,0,.15.69,1.71,1.71,0,0,0,.47.55,6.53,6.53,0,0,0,2,1,8.31,8.31,0,0,0,2.43.36,6.5,6.5,0,0,0,2.86-.6,4.42,4.42,0,0,0,1.92-1.7,4.75,4.75,0,0,0,.68-2.54,4.83,4.83,0,0,0-.57-2.37,4.12,4.12,0,0,0-1.58-1.6A4.6,4.6,0,0,0,35,114.31Zm37.71,9.4a4.67,4.67,0,0,0,4-1.86,8.92,8.92,0,0,0,1.38-5.38,8.82,8.82,0,0,0-1.39-5.36,5.22,5.22,0,0,0-8,0,11.14,11.14,0,0,0,0,10.74A4.68,4.68,0,0,0,72.72,123.71Zm0-2.78a1.43,1.43,0,0,1-1.38-1,14.09,14.09,0,0,1,0-6.83,1.44,1.44,0,0,1,2.76,0,14.05,14.05,0,0,1,0,6.82A1.43,1.43,0,0,1,72.72,120.93Zm8.72,2.72a1.8,1.8,0,0,0,1.37-.56,1.87,1.87,0,0,0,.55-1.38,1.9,1.9,0,0,0-.55-1.38,1.84,1.84,0,0,0-1.37-.56,1.88,1.88,0,0,0-1.39.56,1.94,1.94,0,0,0-.55,1.38,1.91,1.91,0,0,0,.55,1.38A1.85,1.85,0,0,0,81.44,123.65Zm9.7-9.34a5,5,0,0,0-2,.36v-2.46h4.32c1.16,0,1.74-.46,1.74-1.4s-.58-1.38-1.74-1.38h-6.2a1.74,1.74,0,0,0-1.26.44,1.76,1.76,0,0,0-.44,1.28v5.42a1.11,1.11,0,0,0,.38.87,1.38,1.38,0,0,0,.94.33,1.87,1.87,0,0,0,.9-.22,8.07,8.07,0,0,1,1.15-.36,6,6,0,0,1,1.09-.1,2.27,2.27,0,0,1,1.56.5,1.77,1.77,0,0,1,.56,1.4,1.73,1.73,0,0,1-.54,1.41,2.55,2.55,0,0,1-1.66.45,3.31,3.31,0,0,1-1.11-.18,10.83,10.83,0,0,1-1.13-.48l-.4-.2q-.39-.21-.6-.3a1.41,1.41,0,0,0-.5-.08,1.06,1.06,0,0,0-.84.43,1.69,1.69,0,0,0-.34,1,1.47,1.47,0,0,0,.15.69,1.71,1.71,0,0,0,.47.55,6.64,6.64,0,0,0,2,1,8.36,8.36,0,0,0,2.43.36,6.5,6.5,0,0,0,2.86-.6,4.42,4.42,0,0,0,1.92-1.7,4.66,4.66,0,0,0,.68-2.54,4.83,4.83,0,0,0-.57-2.37,4.05,4.05,0,0,0-1.58-1.6A4.6,4.6,0,0,0,91.14,114.31ZM159,99.3h-5v-5a2.28,2.28,0,0,0-.68-1.68,2.42,2.42,0,0,0-3.36,0,2.28,2.28,0,0,0-.68,1.68v5h-5a2.25,2.25,0,0,0-1.68.68,2.28,2.28,0,0,0-.68,1.68,2.38,2.38,0,0,0,.68,1.7,2.26,2.26,0,0,0,1.68.7h5v5a2.32,2.32,0,0,0,.68,1.68,2.44,2.44,0,0,0,3.38,0,2.34,2.34,0,0,0,.66-1.68v-5h5a2.26,2.26,0,0,0,1.68-.7,2.38,2.38,0,0,0,.68-1.7,2.28,2.28,0,0,0-.68-1.68A2.25,2.25,0,0,0,159,99.3ZM147.79,74.08h-1.64V64.6a1.72,1.72,0,0,0-.49-1.3,1.76,1.76,0,0,0-1.29-.48,3.32,3.32,0,0,0-1.66.5l-3.2,1.86a1.35,1.35,0,0,0-.7,1.24,1.73,1.73,0,0,0,.4,1.09,1.23,1.23,0,0,0,1,.49,1.41,1.41,0,0,0,.7-.2l1.6-.94v7.22h-1.62a2,2,0,0,0-1.32.36,1.34,1.34,0,0,0-.42,1.08c0,1,.58,1.48,1.74,1.48h6.94c1.16,0,1.74-.5,1.74-1.48a1.34,1.34,0,0,0-.42-1.08A2,2,0,0,0,147.79,74.08Zm4.48,3a1.85,1.85,0,0,0,1.37-.56,1.9,1.9,0,0,0,.55-1.38,1.87,1.87,0,0,0-.55-1.38,1.82,1.82,0,0,0-1.37-.56,1.85,1.85,0,0,0-1.39.56,1.87,1.87,0,0,0-.55,1.38,1.9,1.9,0,0,0,1.94,1.94Zm8.72.06a4.67,4.67,0,0,0,4-1.86,8.94,8.94,0,0,0,1.38-5.38A8.8,8.8,0,0,0,165,64.58a5.22,5.22,0,0,0-8,0,8.88,8.88,0,0,0-1.38,5.36A8.94,8.94,0,0,0,157,75.32,4.67,4.67,0,0,0,161,77.18Zm0-2.78a1.44,1.44,0,0,1-1.38-1,10,10,0,0,1-.42-3.42,9.83,9.83,0,0,1,.42-3.41,1.44,1.44,0,0,1,2.76,0,9.84,9.84,0,0,1,.42,3.4,10,10,0,0,1-.42,3.42A1.44,1.44,0,0,1,161,74.4Zm-46.5,48.21a4.68,4.68,0,0,0,4-1.86,11.1,11.1,0,0,0,0-10.74,5.22,5.22,0,0,0-8,0,8.9,8.9,0,0,0-1.38,5.36,8.92,8.92,0,0,0,1.38,5.38A4.67,4.67,0,0,0,114.49,122.61Zm0-2.78a1.44,1.44,0,0,1-1.38-1,14.09,14.09,0,0,1,0-6.83,1.43,1.43,0,0,1,1.38-1,1.45,1.45,0,0,1,1.38,1,14.05,14.05,0,0,1,0,6.82A1.45,1.45,0,0,1,114.49,119.83Zm8.72,2.72a1.83,1.83,0,0,0,1.37-.56,2,2,0,0,0,0-2.76,2,2,0,0,0-2.76,2.76A1.83,1.83,0,0,0,123.21,122.55Zm11.25-7.38a3.19,3.19,0,0,0,1.59-1.21,3.31,3.31,0,0,0,.58-1.93,3.49,3.49,0,0,0-.62-2,3.88,3.88,0,0,0-1.74-1.36,6.59,6.59,0,0,0-2.6-.48,8.13,8.13,0,0,0-2.38.36,6.64,6.64,0,0,0-2,1,1.64,1.64,0,0,0-.47.54,1.48,1.48,0,0,0-.15.7,1.67,1.67,0,0,0,.34,1,1,1,0,0,0,.85.43,1.35,1.35,0,0,0,.5-.09l.59-.29.42-.2c.41-.2.77-.36,1.09-.48a3,3,0,0,1,1-.18,1.77,1.77,0,0,1,1.23.41,1.52,1.52,0,0,1,.43,1.15,1.1,1.1,0,0,1-.5,1,3,3,0,0,1-1.6.32h-.87a1.15,1.15,0,0,0-.95.42,1.59,1.59,0,0,0-.34,1,1.57,1.57,0,0,0,.34,1,1.15,1.15,0,0,0,.95.42h1.24a3,3,0,0,1,1.63.34,1.24,1.24,0,0,1,.5,1.12,1.38,1.38,0,0,1-.49,1.2,2.75,2.75,0,0,1-1.61.36,3.47,3.47,0,0,1-1.15-.17,8.36,8.36,0,0,1-1.15-.49l-.25-.11-.18-.09c-.26-.13-.46-.23-.61-.29a1.28,1.28,0,0,0-.5-.09,1.06,1.06,0,0,0-.84.43,1.69,1.69,0,0,0-.34,1,1.6,1.6,0,0,0,.14.69,1.73,1.73,0,0,0,.48.55,6.45,6.45,0,0,0,2.09,1,8.94,8.94,0,0,0,2.5.35,7.45,7.45,0,0,0,2.83-.49,4.33,4.33,0,0,0,1.87-1.39,3.83,3.83,0,0,0,0-4.3A3.38,3.38,0,0,0,134.46,115.17Zm36.16,7.54a4.67,4.67,0,0,0,4-1.86,8.92,8.92,0,0,0,1.38-5.38,8.82,8.82,0,0,0-1.39-5.36,5.22,5.22,0,0,0-8,0,8.9,8.9,0,0,0-1.38,5.36,8.92,8.92,0,0,0,1.38,5.38A4.67,4.67,0,0,0,170.62,122.71Zm0-2.78a1.43,1.43,0,0,1-1.38-1,14.09,14.09,0,0,1,0-6.83,1.44,1.44,0,0,1,2.76,0,14.05,14.05,0,0,1,0,6.82A1.43,1.43,0,0,1,170.62,119.93Zm8.72,2.72a1.82,1.82,0,0,0,1.37-.56,1.87,1.87,0,0,0,.55-1.38,1.9,1.9,0,0,0-.55-1.38,1.85,1.85,0,0,0-1.37-.56,2,2,0,0,0-1.39,3.32A1.85,1.85,0,0,0,179.34,122.65Zm12.76-14.22h-7.84a2,2,0,0,0-1.32.37,1.41,1.41,0,0,0-.42,1.11,1.37,1.37,0,0,0,.41,1.08,2,2,0,0,0,1.33.36h5l-5.14,8.78a1.86,1.86,0,0,0-.28,1,1.45,1.45,0,0,0,.54,1.15,1.8,1.8,0,0,0,1.24.47,1.65,1.65,0,0,0,.85-.23,1.89,1.89,0,0,0,.69-.71l6.06-10.5a2.55,2.55,0,0,0,.38-1.32,1.57,1.57,0,0,0-.39-1.09A1.45,1.45,0,0,0,192.1,108.43Z"/></svg>