<svg id="Layer_1" data-name="Layer 1" xmlns="http://www.w3.org/2000/svg" viewBox="0 0 100 100"><title>l1_3_1</title><path d="M95.57,72.9A17.5,17.5,0,1,1,66,60.24L55.05,44a17.57,17.57,0,0,1-4.61.63,17.3,17.3,0,0,1-4.91-.71L34.32,60.54h0a17.64,17.64,0,1,1-5.84-3.85l10.8-16.09a17.52,17.52,0,1,1,22.08.17L71.94,56.52A17.47,17.47,0,0,1,95.57,72.9ZM57.63,58.85h-5v-5a2.36,2.36,0,1,0-4.72,0v5h-5a2.32,2.32,0,0,0-2.36,2.36,2.36,2.36,0,0,0,.68,1.7,2.23,2.23,0,0,0,1.68.7h5v5a2.39,2.39,0,0,0,4.06,1.68,2.31,2.31,0,0,0,.66-1.68v-5h5a2.23,2.23,0,0,0,1.68-.7,2.36,2.36,0,0,0,.68-1.7,2.32,2.32,0,0,0-2.36-2.36ZM38.83,33a3.5,3.5,0,0,0,3-1.39,6.71,6.71,0,0,0,1-4,6.6,6.6,0,0,0-1-4,3.5,3.5,0,0,0-3-1.39,3.5,3.5,0,0,0-3,1.39,6.67,6.67,0,0,0-1,4,6.71,6.71,0,0,0,1,4A3.5,3.5,0,0,0,38.83,33Zm0-2.08a1.07,1.07,0,0,1-1-.78,7.47,7.47,0,0,1-.32-2.57,7.3,7.3,0,0,1,.32-2.55,1.07,1.07,0,0,1,1-.78,1.08,1.08,0,0,1,1,.78,7.43,7.43,0,0,1,.31,2.55,7.53,7.53,0,0,1-.31,2.57A1.08,1.08,0,0,1,38.83,31Zm6.54,2a1.4,1.4,0,0,0,1-.42,1.41,1.41,0,0,0,.41-1,1.46,1.46,0,0,0-2.48-1,1.43,1.43,0,0,0-.41,1,1.45,1.45,0,0,0,.41,1A1.39,1.39,0,0,0,45.37,33Zm6.54,0a3.5,3.5,0,0,0,3-1.39,6.71,6.71,0,0,0,1-4,6.6,6.6,0,0,0-1.05-4,3.92,3.92,0,0,0-6,0,6.67,6.67,0,0,0-1,4,6.71,6.71,0,0,0,1,4A3.5,3.5,0,0,0,51.91,33Zm0-2.08a1.07,1.07,0,0,1-1-.78,7.47,7.47,0,0,1-.32-2.57,7.3,7.3,0,0,1,.32-2.55,1.07,1.07,0,0,1,1-.78,1.08,1.08,0,0,1,1,.78,7.43,7.43,0,0,1,.31,2.55A7.53,7.53,0,0,1,53,30.17,1.08,1.08,0,0,1,51.91,31Zm10.91-3.5a2.46,2.46,0,0,0,1.19-.9,2.55,2.55,0,0,0,.43-1.45A2.66,2.66,0,0,0,64,23.57a3,3,0,0,0-1.31-1,4.92,4.92,0,0,0-2-.36,6,6,0,0,0-1.78.27,4.91,4.91,0,0,0-1.52.75,1,1,0,0,0-.47.93,1.25,1.25,0,0,0,.26.79.79.79,0,0,0,.63.32.87.87,0,0,0,.37-.07,4.36,4.36,0,0,0,.45-.22l.32-.15a8.57,8.57,0,0,1,.81-.36,2.3,2.3,0,0,1,.79-.13,1.28,1.28,0,0,1,.92.31,1.11,1.11,0,0,1,.33.86.84.84,0,0,1-.38.76,2.3,2.3,0,0,1-1.2.24h-.66a.85.85,0,0,0-.7.32,1.21,1.21,0,0,0,0,1.5.84.84,0,0,0,.7.31h.93a2.25,2.25,0,0,1,1.23.26.94.94,0,0,1,.38.84,1.06,1.06,0,0,1-.37.9,2.1,2.1,0,0,1-1.21.27,2.55,2.55,0,0,1-.86-.13,5.85,5.85,0,0,1-.86-.37l-.19-.08a.91.91,0,0,1-.14-.07,3.92,3.92,0,0,0-.45-.21.92.92,0,0,0-.38-.07.79.79,0,0,0-.63.32,1.24,1.24,0,0,0-.25.79,1.21,1.21,0,0,0,.1.52,1.22,1.22,0,0,0,.36.41,4.93,4.93,0,0,0,1.56.76,6.88,6.88,0,0,0,1.88.26,5.54,5.54,0,0,0,2.12-.37,3.13,3.13,0,0,0,1.4-1,2.62,2.62,0,0,0,.5-1.59,2.65,2.65,0,0,0-.51-1.64A2.51,2.51,0,0,0,62.82,27.45ZM10.76,79.12a3.5,3.5,0,0,0,3-1.39,6.71,6.71,0,0,0,1-4,6.6,6.6,0,0,0-1-4,3.5,3.5,0,0,0-3-1.39,3.5,3.5,0,0,0-3,1.39,6.67,6.67,0,0,0-1,4,6.71,6.71,0,0,0,1,4A3.5,3.5,0,0,0,10.76,79.12Zm0-2.08a1.08,1.08,0,0,1-1-.78,7.53,7.53,0,0,1-.31-2.57,7.46,7.46,0,0,1,.31-2.56,1.08,1.08,0,0,1,1-.77,1.07,1.07,0,0,1,1,.78,7.38,7.38,0,0,1,.32,2.55,7.47,7.47,0,0,1-.32,2.57A1.07,1.07,0,0,1,10.76,77Zm6.54,2a1.4,1.4,0,0,0,1-.42,1.45,1.45,0,0,0,.41-1,1.43,1.43,0,0,0-.41-1,1.46,1.46,0,0,0-2.49,1,1.42,1.42,0,0,0,.42,1A1.39,1.39,0,0,0,17.3,79.08Zm6.54,0a3.5,3.5,0,0,0,3-1.39,6.71,6.71,0,0,0,1-4,6.6,6.6,0,0,0-1-4,3.5,3.5,0,0,0-3-1.39,3.5,3.5,0,0,0-3,1.39,6.67,6.67,0,0,0-1,4,6.71,6.71,0,0,0,1,4A3.5,3.5,0,0,0,23.84,79.12Zm0-2.08a1.08,1.08,0,0,1-1-.78,7.53,7.53,0,0,1-.31-2.57,7.46,7.46,0,0,1,.31-2.56,1.08,1.08,0,0,1,1-.77,1.07,1.07,0,0,1,1,.78,7.38,7.38,0,0,1,.32,2.55,7.47,7.47,0,0,1-.32,2.57A1.07,1.07,0,0,1,23.84,77Zm11.79-.24h-3l2.13-2.18A7.12,7.12,0,0,0,36,72.93a3.82,3.82,0,0,0,.36-1.67,2.8,2.8,0,0,0-.45-1.57,3,3,0,0,0-1.3-1,4.92,4.92,0,0,0-2-.36,6.16,6.16,0,0,0-3.32,1,.93.93,0,0,0-.36.39,1.21,1.21,0,0,0-.1.54,1.29,1.29,0,0,0,.25.8.78.78,0,0,0,.63.34.93.93,0,0,0,.29-.05,2.56,2.56,0,0,0,.31-.14l.23-.13.3-.15a7.87,7.87,0,0,1,.85-.37,2.53,2.53,0,0,1,.8-.12,1.17,1.17,0,0,1,.83.27,1,1,0,0,1,.29.78,2.91,2.91,0,0,1-1,1.9l-3.18,3.32A1.64,1.64,0,0,0,29,77.85a1.1,1.1,0,0,0,.32.81,1.11,1.11,0,0,0,.85.33h5.48a1.49,1.49,0,0,0,1-.27,1,1,0,0,0,.32-.84,1,1,0,0,0-.32-.82A1.49,1.49,0,0,0,35.63,76.8ZM66.9,79.12a3.5,3.5,0,0,0,3-1.39,6.71,6.71,0,0,0,1-4,6.6,6.6,0,0,0-1-4,3.92,3.92,0,0,0-6,0,6.67,6.67,0,0,0-1,4,6.71,6.71,0,0,0,1,4A3.5,3.5,0,0,0,66.9,79.12Zm0-2.08a1.08,1.08,0,0,1-1-.78,7.53,7.53,0,0,1-.31-2.57,7.46,7.46,0,0,1,.31-2.56,1.08,1.08,0,0,1,1-.77,1.07,1.07,0,0,1,1,.78,7.38,7.38,0,0,1,.32,2.55,7.47,7.47,0,0,1-.32,2.57A1.07,1.07,0,0,1,66.9,77Zm6.54,2a1.4,1.4,0,0,0,1-.42,1.45,1.45,0,0,0,.41-1,1.43,1.43,0,0,0-.41-1,1.46,1.46,0,0,0-2.49,1,1.42,1.42,0,0,0,.42,1A1.39,1.39,0,0,0,73.44,79.08Zm6.54,0a3.5,3.5,0,0,0,3-1.39,6.71,6.71,0,0,0,1-4,6.6,6.6,0,0,0-1-4,3.92,3.92,0,0,0-6,0,6.67,6.67,0,0,0-1,4,6.71,6.71,0,0,0,1,4A3.5,3.5,0,0,0,80,79.12ZM80,77a1.08,1.08,0,0,1-1-.78,7.53,7.53,0,0,1-.31-2.57,7.46,7.46,0,0,1,.31-2.56,1.08,1.08,0,0,1,1-.77,1.07,1.07,0,0,1,1,.78,7.38,7.38,0,0,1,.32,2.55A7.47,7.47,0,0,1,81,76.26,1.07,1.07,0,0,1,80,77Zm12.18-.24H90.93V69.69a1.3,1.3,0,0,0-.37-1,1.34,1.34,0,0,0-1-.36,2.53,2.53,0,0,0-1.24.38L86,70.12a1,1,0,0,0-.53.93,1.28,1.28,0,0,0,.3.82.92.92,0,0,0,.72.37,1,1,0,0,0,.53-.15l1.2-.71V76.8H87a1.5,1.5,0,0,0-1,.27,1,1,0,0,0-.31.81c0,.74.43,1.11,1.3,1.11h5.21c.87,0,1.3-.37,1.3-1.11a1,1,0,0,0-.31-.81A1.5,1.5,0,0,0,92.16,76.8Z"/></svg>