<svg id="Layer_1" data-name="Layer 1" xmlns="http://www.w3.org/2000/svg" viewBox="0 0 200 150"><title>l1_3_1</title><path d="M193,112.34A17.5,17.5,0,1,1,163.4,99.68l-11-16.27a17.51,17.51,0,0,1-4.61.63,17.3,17.3,0,0,1-4.91-.71L131.71,100h0a17.6,17.6,0,1,1-5.84-3.86L136.68,80a17.48,17.48,0,0,1-2.11-24.89l-20.64-13.7a17.48,17.48,0,0,1-28.87,0v0L63.59,55.72a17.47,17.47,0,0,1-2.74,24.59L71.44,96.07a17.23,17.23,0,0,1,6.12-1.13A17.55,17.55,0,1,1,65.5,99.79l-11-16.28a17.51,17.51,0,0,1-4.61.64A17.71,17.71,0,0,1,45,83.44l-11.2,16.64h0A17.55,17.55,0,1,1,28,96.22l10.8-16.09a17.5,17.5,0,0,1,19.29-29L82.31,34.78A17.07,17.07,0,0,1,82,31.56a17.5,17.5,0,0,1,35,0,16.94,16.94,0,0,1-.31,3.2l23.65,16A17.48,17.48,0,0,1,158.75,80.2L169.33,96a17.33,17.33,0,0,1,6.13-1.13A17.51,17.51,0,0,1,193,112.34ZM109.22,64.66h-6.3v-6.3a2.85,2.85,0,0,0-.85-2.1,2.82,2.82,0,0,0-2.1-.85,2.85,2.85,0,0,0-2.1.85,2.89,2.89,0,0,0-.85,2.1v6.3h-6.3a2.85,2.85,0,0,0-2.1.85,2.89,2.89,0,0,0-.85,2.1,3,3,0,0,0,.85,2.13,2.83,2.83,0,0,0,2.1.87H97v6.25a2.89,2.89,0,0,0,.85,2.1,3.06,3.06,0,0,0,4.23,0,2.9,2.9,0,0,0,.82-2.1V70.61h6.3a2.8,2.8,0,0,0,2.1-.87,3,3,0,0,0,.85-2.13,2.85,2.85,0,0,0-.85-2.1A2.82,2.82,0,0,0,109.22,64.66ZM93.93,36.09h-4l2.84-2.9a9.37,9.37,0,0,0,1.67-2.25,5.1,5.1,0,0,0,.49-2.23,3.74,3.74,0,0,0-.61-2.09,4,4,0,0,0-1.73-1.4,6.59,6.59,0,0,0-2.6-.49,8.14,8.14,0,0,0-4.42,1.36,1.32,1.32,0,0,0-.49.52,1.93,1.93,0,0,0,.21,1.79,1,1,0,0,0,.84.45,1.21,1.21,0,0,0,.38-.06,2.37,2.37,0,0,0,.41-.19l.31-.17.4-.2a10.77,10.77,0,0,1,1.13-.49,3.29,3.29,0,0,1,1.07-.17,1.58,1.58,0,0,1,1.11.36,1.35,1.35,0,0,1,.39,1A3.88,3.88,0,0,1,90,31.51l-4.24,4.42a2.17,2.17,0,0,0-.68,1.56,1.49,1.49,0,0,0,.42,1.09,1.51,1.51,0,0,0,1.14.43h7.3a2,2,0,0,0,1.31-.36,1.4,1.4,0,0,0,.43-1.12,1.36,1.36,0,0,0-.43-1.09A2.09,2.09,0,0,0,93.93,36.09Zm5,3a1.8,1.8,0,0,0,1.37-.56,1.87,1.87,0,0,0,.55-1.38,1.9,1.9,0,0,0-.55-1.38,1.84,1.84,0,0,0-1.37-.56,1.86,1.86,0,0,0-1.38.56A1.9,1.9,0,0,0,97,37.19a1.87,1.87,0,0,0,.55,1.38A1.82,1.82,0,0,0,98.94,39.13Zm12.77-14.22h-7.84a2,2,0,0,0-1.32.37,1.41,1.41,0,0,0-.42,1.11,1.34,1.34,0,0,0,.41,1.08,2,2,0,0,0,1.33.36h5l-5.14,8.78a1.86,1.86,0,0,0-.28,1,1.45,1.45,0,0,0,.54,1.15,1.8,1.8,0,0,0,1.24.47,1.67,1.67,0,0,0,.85-.23,1.89,1.89,0,0,0,.69-.71l6.06-10.5a2.55,2.55,0,0,0,.38-1.32,1.57,1.57,0,0,0-.39-1.09A1.45,1.45,0,0,0,111.71,24.91ZM57.13,96.4h-5v-5a2.28,2.28,0,0,0-.68-1.68A2.32,2.32,0,0,0,49.73,89a2.28,2.28,0,0,0-1.68.68,2.25,2.25,0,0,0-.68,1.68v5h-5a2.28,2.28,0,0,0-1.68.68A2.25,2.25,0,0,0,40,98.76a2.32,2.32,0,0,0,.68,1.7,2.23,2.23,0,0,0,1.68.7h5v5a2.25,2.25,0,0,0,.68,1.68,2.44,2.44,0,0,0,3.38,0,2.31,2.31,0,0,0,.66-1.68v-5h5a2.26,2.26,0,0,0,1.68-.7,2.36,2.36,0,0,0,.68-1.7,2.28,2.28,0,0,0-.68-1.68A2.32,2.32,0,0,0,57.13,96.4ZM45.36,71.18h-4l2.84-2.9A9.78,9.78,0,0,0,45.85,66a5.13,5.13,0,0,0,.49-2.23,3.72,3.72,0,0,0-.61-2.09A4,4,0,0,0,44,60.31a6.42,6.42,0,0,0-2.6-.49,7.83,7.83,0,0,0-2.31.36,7.61,7.61,0,0,0-2.11,1,1.26,1.26,0,0,0-.49.52,1.69,1.69,0,0,0-.13.72,1.71,1.71,0,0,0,.34,1.07,1,1,0,0,0,.84.45,1.21,1.21,0,0,0,.38-.06,2.37,2.37,0,0,0,.41-.19l.31-.17.4-.2a9,9,0,0,1,1.13-.49,3.29,3.29,0,0,1,1.07-.17,1.58,1.58,0,0,1,1.11.36,1.35,1.35,0,0,1,.39,1,3.9,3.9,0,0,1-1.32,2.54L37.18,71a2.22,2.22,0,0,0-.68,1.56,1.46,1.46,0,0,0,1.56,1.52h7.3a2,2,0,0,0,1.31-.36,1.4,1.4,0,0,0,.43-1.12,1.34,1.34,0,0,0-.43-1.09A2.09,2.09,0,0,0,45.36,71.18Zm5,3a1.87,1.87,0,0,0,1.37-.56,2,2,0,0,0,0-2.76,2,2,0,1,0-1.37,3.32Zm8.72.06a4.68,4.68,0,0,0,4-1.86A8.92,8.92,0,0,0,64.48,67a8.82,8.82,0,0,0-1.39-5.36,5.22,5.22,0,0,0-8,0A8.9,8.9,0,0,0,53.72,67a8.92,8.92,0,0,0,1.38,5.38A4.67,4.67,0,0,0,59.1,74.28Zm0-2.78a1.44,1.44,0,0,1-1.38-1A9.93,9.93,0,0,1,57.3,67a9.86,9.86,0,0,1,.42-3.41,1.44,1.44,0,0,1,2.76,0A9.88,9.88,0,0,1,60.9,67a9.93,9.93,0,0,1-.42,3.42A1.44,1.44,0,0,1,59.1,71.5ZM16.82,116.62H15.18v-9.48a1.72,1.72,0,0,0-.49-1.3,1.76,1.76,0,0,0-1.29-.48,3.32,3.32,0,0,0-1.66.5l-3.2,1.86a1.35,1.35,0,0,0-.7,1.24,1.73,1.73,0,0,0,.4,1.09,1.23,1.23,0,0,0,1,.49,1.41,1.41,0,0,0,.7-.2l1.6-.94v7.22H9.88a2,2,0,0,0-1.32.36,1.34,1.34,0,0,0-.42,1.08c0,1,.58,1.48,1.74,1.48h6.94c1.16,0,1.74-.5,1.74-1.48a1.34,1.34,0,0,0-.42-1.08A2,2,0,0,0,16.82,116.62Zm4.48,3a1.85,1.85,0,0,0,1.37-.56,1.9,1.9,0,0,0,.55-1.38,1.87,1.87,0,0,0-.55-1.38,1.82,1.82,0,0,0-1.37-.56,1.85,1.85,0,0,0-1.39.56,1.87,1.87,0,0,0-.55,1.38,1.9,1.9,0,0,0,1.94,1.94Zm8.72.06a4.67,4.67,0,0,0,4-1.86,8.94,8.94,0,0,0,1.38-5.38A8.8,8.8,0,0,0,34,107.12a4.69,4.69,0,0,0-4-1.86,4.67,4.67,0,0,0-4,1.86,8.88,8.88,0,0,0-1.38,5.36A8.94,8.94,0,0,0,26,117.86,4.67,4.67,0,0,0,30,119.72Zm0-2.78a1.44,1.44,0,0,1-1.38-1,10,10,0,0,1-.42-3.42,9.83,9.83,0,0,1,.42-3.41,1.44,1.44,0,0,1,2.76,0,9.84,9.84,0,0,1,.42,3.4,10,10,0,0,1-.42,3.42A1.44,1.44,0,0,1,30,116.94Zm42.94.67H71.31v-9.48a1.65,1.65,0,0,0-1.77-1.78,3.4,3.4,0,0,0-1.66.5l-3.2,1.87A1.33,1.33,0,0,0,64,110a1.65,1.65,0,0,0,.4,1.09,1.18,1.18,0,0,0,1,.49,1.31,1.31,0,0,0,.7-.2l1.6-.94v7.22H66a2.06,2.06,0,0,0-1.32.36,1.36,1.36,0,0,0-.43,1.08c0,1,.58,1.48,1.75,1.48H73c1.16,0,1.74-.49,1.74-1.48a1.33,1.33,0,0,0-.43-1.08A2,2,0,0,0,73,117.61Zm4.48,3a1.84,1.84,0,0,0,1.37-.57,1.89,1.89,0,0,0,.54-1.37,1.94,1.94,0,0,0-.54-1.39,2,2,0,0,0-2.76,0,1.91,1.91,0,0,0-.55,1.39,1.86,1.86,0,0,0,.55,1.37A1.84,1.84,0,0,0,77.44,120.66Zm8.71.06a4.68,4.68,0,0,0,4-1.87,8.92,8.92,0,0,0,1.38-5.38,8.82,8.82,0,0,0-1.39-5.36,5.24,5.24,0,0,0-8,0,8.9,8.9,0,0,0-1.38,5.36,8.92,8.92,0,0,0,1.38,5.38A4.69,4.69,0,0,0,86.15,120.72Zm0-2.79a1.44,1.44,0,0,1-1.38-1,14.09,14.09,0,0,1,0-6.83,1.46,1.46,0,0,1,1.38-1,1.44,1.44,0,0,1,1.38,1,14.05,14.05,0,0,1,0,6.82A1.43,1.43,0,0,1,86.15,117.93ZM155,96.3h-5v-5a2.32,2.32,0,0,0-2.36-2.36,2.32,2.32,0,0,0-2.36,2.36v5h-5a2.32,2.32,0,0,0-2.36,2.36,2.38,2.38,0,0,0,.68,1.7,2.3,2.3,0,0,0,1.68.7h5v5a2.32,2.32,0,0,0,2.36,2.36,2.27,2.27,0,0,0,1.7-.68,2.34,2.34,0,0,0,.66-1.68v-5h5a2.26,2.26,0,0,0,1.68-.7,2.34,2.34,0,0,0,.68-1.7A2.32,2.32,0,0,0,155,96.3ZM139.54,74.18a4.67,4.67,0,0,0,4-1.86,8.92,8.92,0,0,0,1.38-5.38,8.82,8.82,0,0,0-1.39-5.36,5.22,5.22,0,0,0-8,0,8.9,8.9,0,0,0-1.38,5.36,8.92,8.92,0,0,0,1.38,5.38A4.68,4.68,0,0,0,139.54,74.18Zm0-2.78a1.44,1.44,0,0,1-1.38-1,9.93,9.93,0,0,1-.42-3.42,9.86,9.86,0,0,1,.42-3.41,1.44,1.44,0,0,1,2.76,0,9.84,9.84,0,0,1,.42,3.4,9.93,9.93,0,0,1-.42,3.42A1.44,1.44,0,0,1,139.54,71.4Zm8.72,2.72a1.84,1.84,0,0,0,1.37-.56,2,2,0,0,0,0-2.76,1.84,1.84,0,0,0-1.37-.56,1.88,1.88,0,0,0-1.39.56,2,2,0,0,0,0,2.76A1.88,1.88,0,0,0,148.26,74.12ZM161,59.9h-7.84a2,2,0,0,0-1.32.37,1.4,1.4,0,0,0-.42,1.11,1.37,1.37,0,0,0,.41,1.08,2,2,0,0,0,1.33.36h5L153,71.6a2,2,0,0,0-.28,1,1.47,1.47,0,0,0,.54,1.15,1.86,1.86,0,0,0,1.24.47,1.72,1.72,0,0,0,.85-.23,1.75,1.75,0,0,0,.69-.71l6.06-10.5a2.51,2.51,0,0,0,.38-1.32,1.55,1.55,0,0,0-.39-1.09A1.41,1.41,0,0,0,161,59.9Zm-50.58,60.71a4.68,4.68,0,0,0,4-1.86,8.92,8.92,0,0,0,1.38-5.38,8.89,8.89,0,0,0-1.39-5.36,5.22,5.22,0,0,0-8,0,8.9,8.9,0,0,0-1.38,5.36,8.92,8.92,0,0,0,1.38,5.38A4.67,4.67,0,0,0,110.44,120.61Zm0-2.78a1.43,1.43,0,0,1-1.38-1,14.09,14.09,0,0,1,0-6.83,1.44,1.44,0,0,1,2.76,0,14.05,14.05,0,0,1,0,6.82A1.43,1.43,0,0,1,110.44,117.83Zm8.72,2.72a1.83,1.83,0,0,0,1.37-.56,1.91,1.91,0,0,0,.55-1.38,1.94,1.94,0,0,0-.55-1.38,2,2,0,0,0-2.76,0,1.9,1.9,0,0,0-.55,1.38,1.87,1.87,0,0,0,.55,1.38A1.83,1.83,0,0,0,119.16,120.55Zm9.7-9.34a5,5,0,0,0-2,.36v-2.46h4.32c1.16,0,1.74-.46,1.74-1.4s-.58-1.38-1.74-1.38H125a1.54,1.54,0,0,0-1.7,1.72v5.42a1.08,1.08,0,0,0,.38.87,1.37,1.37,0,0,0,.94.33,1.87,1.87,0,0,0,.9-.22,7.69,7.69,0,0,1,1.15-.36,6,6,0,0,1,1.09-.1,2.3,2.3,0,0,1,1.56.5,1.8,1.8,0,0,1,.56,1.4,1.73,1.73,0,0,1-.54,1.41,2.57,2.57,0,0,1-1.66.45,3.31,3.31,0,0,1-1.11-.18,10.83,10.83,0,0,1-1.13-.48l-.4-.2-.6-.3a1.46,1.46,0,0,0-.5-.08,1,1,0,0,0-.84.43,1.63,1.63,0,0,0-.34,1,1.47,1.47,0,0,0,.15.69,1.59,1.59,0,0,0,.47.55,6.43,6.43,0,0,0,2.05,1,8.31,8.31,0,0,0,2.43.36,6.5,6.5,0,0,0,2.86-.6,4.54,4.54,0,0,0,1.92-1.7,4.75,4.75,0,0,0,.68-2.54,4.83,4.83,0,0,0-.57-2.37,4.12,4.12,0,0,0-1.58-1.6A4.65,4.65,0,0,0,128.86,111.21Zm37.74,9.4a4.67,4.67,0,0,0,4-1.86,8.92,8.92,0,0,0,1.38-5.38,8.82,8.82,0,0,0-1.39-5.36,5.22,5.22,0,0,0-8,0,8.9,8.9,0,0,0-1.38,5.36,8.92,8.92,0,0,0,1.38,5.38A4.67,4.67,0,0,0,166.6,120.61Zm0-2.78a1.43,1.43,0,0,1-1.38-1,14.09,14.09,0,0,1,0-6.83,1.44,1.44,0,0,1,2.76,0,14.05,14.05,0,0,1,0,6.82A1.43,1.43,0,0,1,166.6,117.83Zm8.72,2.72a1.82,1.82,0,0,0,1.37-.56,1.87,1.87,0,0,0,.55-1.38,1.9,1.9,0,0,0-.55-1.38,1.85,1.85,0,0,0-1.37-.56,2,2,0,0,0-1.39,3.32A1.85,1.85,0,0,0,175.32,120.55Zm12.44-3h-4l2.84-2.9a9.11,9.11,0,0,0,1.67-2.25,5,5,0,0,0,.49-2.23,3.66,3.66,0,0,0-.61-2.09,4,4,0,0,0-1.73-1.4,6.55,6.55,0,0,0-2.6-.49,7.83,7.83,0,0,0-2.31.36,8,8,0,0,0-2.11,1,1.4,1.4,0,0,0-.49.52,1.93,1.93,0,0,0,.21,1.79,1,1,0,0,0,.84.45,1.21,1.21,0,0,0,.38-.06,2.07,2.07,0,0,0,.41-.19l.31-.17.4-.2a11.75,11.75,0,0,1,1.13-.49,3.33,3.33,0,0,1,1.07-.17,1.58,1.58,0,0,1,1.11.36,1.35,1.35,0,0,1,.39,1,3.88,3.88,0,0,1-1.32,2.54l-4.24,4.42a2.22,2.22,0,0,0-.68,1.56,1.49,1.49,0,0,0,.42,1.09,1.51,1.51,0,0,0,1.14.43h7.3a2,2,0,0,0,1.31-.36,1.36,1.36,0,0,0,.43-1.12,1.33,1.33,0,0,0-.43-1.09A2.07,2.07,0,0,0,187.76,117.51Z"/></svg>