<svg id="Layer_1" data-name="Layer 1" xmlns="http://www.w3.org/2000/svg" viewBox="0 0 100 100"><title>l1_3_1</title><path d="M95,73A17.5,17.5,0,1,1,65.47,60.35l-11-16.27A17.22,17.22,0,0,1,45,44L33.79,60.65h0A17.6,17.6,0,1,1,28,56.79L38.75,40.7a17.51,17.51,0,1,1,22.07.17L71.41,56.63A17.47,17.47,0,0,1,95,73ZM57.1,59h-5v-5a2.28,2.28,0,0,0-.68-1.68,2.32,2.32,0,0,0-1.68-.68,2.28,2.28,0,0,0-1.68.68,2.25,2.25,0,0,0-.68,1.68v5h-5a2.28,2.28,0,0,0-1.68.68,2.25,2.25,0,0,0-.68,1.68,2.32,2.32,0,0,0,.68,1.7,2.23,2.23,0,0,0,1.68.7h5v5A2.25,2.25,0,0,0,48,70.4a2.44,2.44,0,0,0,3.38,0,2.31,2.31,0,0,0,.66-1.68v-5h5a2.26,2.26,0,0,0,1.68-.7,2.36,2.36,0,0,0,.68-1.7,2.28,2.28,0,0,0-.68-1.68A2.32,2.32,0,0,0,57.1,59Zm-16-28.14h-3l2.13-2.18A7.22,7.22,0,0,0,41.45,27a3.9,3.9,0,0,0,.37-1.68,2.75,2.75,0,0,0-.46-1.56,2.9,2.9,0,0,0-1.3-1,4.74,4.74,0,0,0-2-.37,5.83,5.83,0,0,0-1.73.27,5.76,5.76,0,0,0-1.58.75,1,1,0,0,0-.37.39,1.21,1.21,0,0,0-.1.54,1.28,1.28,0,0,0,.26.8.75.75,0,0,0,.63.34.87.87,0,0,0,.28-.05,1.59,1.59,0,0,0,.31-.14l.23-.13.3-.15a6.1,6.1,0,0,1,.85-.36,2.28,2.28,0,0,1,.8-.13,1.17,1.17,0,0,1,.83.27,1,1,0,0,1,.3.78,2.91,2.91,0,0,1-1,1.9L35,30.7a1.64,1.64,0,0,0-.51,1.17,1.13,1.13,0,0,0,.31.82,1.17,1.17,0,0,0,.86.32h5.47a1.49,1.49,0,0,0,1-.27,1,1,0,0,0,.33-.84,1,1,0,0,0-.33-.82A1.55,1.55,0,0,0,41.08,30.82Zm8.51-3.26a2.21,2.21,0,0,0,1.17-.88,2.57,2.57,0,0,0,.43-1.5,2.5,2.5,0,0,0-1-2.11,4.71,4.71,0,0,0-2.84-.77,4.73,4.73,0,0,0-2.84.77,2.49,2.49,0,0,0-1,2.11,2.53,2.53,0,0,0,.42,1.46,2.44,2.44,0,0,0,1.2.92,2.48,2.48,0,0,0-1.41.9,2.87,2.87,0,0,0,.62,3.87,5.22,5.22,0,0,0,3.06.8,5.18,5.18,0,0,0,3-.8,2.65,2.65,0,0,0-.77-4.77ZM47.31,31c-1.09,0-1.64-.39-1.64-1.17s.55-1.17,1.64-1.17,1.63.39,1.63,1.17S48.4,31,47.31,31Zm0-6.66a1.55,1.55,0,0,1,1,.27,1,1,0,0,1,.33.84,1.05,1.05,0,0,1-.33.86,1.55,1.55,0,0,1-1,.27,1.58,1.58,0,0,1-1-.27,1.05,1.05,0,0,1-.33-.86,1,1,0,0,1,.33-.84A1.58,1.58,0,0,1,47.31,24.38Zm6.54,8.72a1.36,1.36,0,0,0,1-.42,1.42,1.42,0,0,0,.42-1,1.4,1.4,0,0,0-.42-1,1.36,1.36,0,0,0-1-.42,1.42,1.42,0,0,0-1.46,1.45,1.45,1.45,0,0,0,.41,1A1.42,1.42,0,0,0,53.85,33.1Zm7.27-7a3.72,3.72,0,0,0-1.48.27V24.52h3.24c.87,0,1.3-.35,1.3-1.05s-.43-1-1.3-1H58.23A1.16,1.16,0,0,0,57,23.72v4.07a.81.81,0,0,0,.29.65,1,1,0,0,0,.7.25,1.46,1.46,0,0,0,.68-.17,5.15,5.15,0,0,1,.86-.27,4.11,4.11,0,0,1,.82-.07,1.69,1.69,0,0,1,1.17.37,1.33,1.33,0,0,1,.42,1.05,1.3,1.3,0,0,1-.41,1.06,1.87,1.87,0,0,1-1.24.34,2.55,2.55,0,0,1-.84-.14,8.8,8.8,0,0,1-.84-.36l-.3-.15a4.27,4.27,0,0,0-.45-.22,1,1,0,0,0-.38-.06.79.79,0,0,0-.63.32,1.24,1.24,0,0,0-.25.79,1.08,1.08,0,0,0,.11.52,1.3,1.3,0,0,0,.35.41,4.91,4.91,0,0,0,1.54.75,6.22,6.22,0,0,0,1.82.27,4.89,4.89,0,0,0,2.15-.45A3.39,3.39,0,0,0,64,31.4a3.53,3.53,0,0,0,.51-1.9A3.69,3.69,0,0,0,64,27.72a3.12,3.12,0,0,0-1.19-1.2A3.49,3.49,0,0,0,61.12,26.09ZM13,76.91H10l2.13-2.18A6.78,6.78,0,0,0,13.38,73a3.69,3.69,0,0,0,.37-1.67,2.73,2.73,0,0,0-.46-1.57,2.92,2.92,0,0,0-1.3-1,4.9,4.9,0,0,0-1.94-.36,6.09,6.09,0,0,0-3.32,1,1,1,0,0,0-.37.39,1.38,1.38,0,0,0-.09.54,1.29,1.29,0,0,0,.25.8.78.78,0,0,0,.63.34.82.82,0,0,0,.28,0,2,2,0,0,0,.31-.14L8,71.16l.3-.15c.33-.16.61-.28.85-.37a2.64,2.64,0,0,1,.81-.12,1.2,1.2,0,0,1,.83.27,1,1,0,0,1,.29.78,2.91,2.91,0,0,1-1,1.9L6.88,76.79A1.64,1.64,0,0,0,6.37,78a1.09,1.09,0,0,0,.31.81,1.14,1.14,0,0,0,.86.33H13a1.53,1.53,0,0,0,1-.27,1,1,0,0,0,.32-.84,1,1,0,0,0-.32-.82A1.53,1.53,0,0,0,13,76.91Zm8.12-3.26a2.45,2.45,0,0,0,1.2-.91,2.5,2.5,0,0,0,.43-1.44,2.66,2.66,0,0,0-.46-1.53,3,3,0,0,0-1.31-1,5,5,0,0,0-2-.36,5.94,5.94,0,0,0-1.77.27,5,5,0,0,0-1.53.75,1.24,1.24,0,0,0-.21,1.71.77.77,0,0,0,.63.33,1.12,1.12,0,0,0,.38-.07l.45-.22.32-.15a7.57,7.57,0,0,1,.81-.36,2.3,2.3,0,0,1,.79-.13,1.3,1.3,0,0,1,.91.3,1.15,1.15,0,0,1,.33.87.83.83,0,0,1-.37.76,2.3,2.3,0,0,1-1.2.24h-.66a.87.87,0,0,0-.71.32,1.25,1.25,0,0,0,0,1.5.86.86,0,0,0,.71.31h.93a2.25,2.25,0,0,1,1.23.26.94.94,0,0,1,.37.84,1.05,1.05,0,0,1-.36.9,2.1,2.1,0,0,1-1.21.27A2.83,2.83,0,0,1,18,77a7.25,7.25,0,0,1-.87-.37L17,76.51l-.15-.07-.45-.22a1.06,1.06,0,0,0-.37-.06.76.76,0,0,0-.63.32,1.23,1.23,0,0,0-.26.79,1.13,1.13,0,0,0,.11.51,1.16,1.16,0,0,0,.36.42,4.71,4.71,0,0,0,1.56.75,6.47,6.47,0,0,0,1.88.27,5.77,5.77,0,0,0,2.12-.37,3.21,3.21,0,0,0,1.4-1A2.61,2.61,0,0,0,23,76.22a2.64,2.64,0,0,0-.5-1.64A2.54,2.54,0,0,0,21.14,73.65Zm4.64,5.54a1.4,1.4,0,0,0,1-.42,1.45,1.45,0,0,0,.41-1,1.43,1.43,0,0,0-.41-1,1.46,1.46,0,0,0-2.49,1,1.42,1.42,0,0,0,.42,1A1.39,1.39,0,0,0,25.78,79.19Zm7.28-7a3.74,3.74,0,0,0-1.49.27V70.61h3.24c.87,0,1.3-.35,1.3-1s-.43-1-1.3-1H30.16a1.14,1.14,0,0,0-1.27,1.29v4.07a.82.82,0,0,0,.28.65,1.07,1.07,0,0,0,.7.25,1.46,1.46,0,0,0,.68-.17,5.45,5.45,0,0,1,.86-.27,4.18,4.18,0,0,1,.82-.07,1.69,1.69,0,0,1,1.17.37,1.33,1.33,0,0,1,.42,1,1.31,1.31,0,0,1-.41,1.06,1.93,1.93,0,0,1-1.24.34,2.45,2.45,0,0,1-.83-.14,7.93,7.93,0,0,1-.85-.36l-.3-.15a4.27,4.27,0,0,0-.45-.22,1,1,0,0,0-.38-.06.76.76,0,0,0-.63.32,1.22,1.22,0,0,0-.25.79,1.13,1.13,0,0,0,.11.51,1.35,1.35,0,0,0,.35.42,5,5,0,0,0,1.54.75,6.29,6.29,0,0,0,1.83.27,4.88,4.88,0,0,0,2.14-.45,3.39,3.39,0,0,0,1.44-1.28A3.84,3.84,0,0,0,36,73.81a3,3,0,0,0-1.18-1.2A3.44,3.44,0,0,0,33.06,72.18Zm36.61-1.3a5,5,0,0,0-2,.36V68.78H72c1.16,0,1.74-.47,1.74-1.4S73.17,66,72,66h-6.2a1.67,1.67,0,0,0-1.26.44,1.7,1.7,0,0,0-.44,1.28v5.42a1.08,1.08,0,0,0,.38.87,1.37,1.37,0,0,0,.94.33,2,2,0,0,0,.9-.22,5.9,5.9,0,0,1,1.15-.36,5.19,5.19,0,0,1,1.09-.1,2.25,2.25,0,0,1,1.56.5,1.79,1.79,0,0,1,.56,1.4A1.73,1.73,0,0,1,70.15,77a2.57,2.57,0,0,1-1.66.45,3.31,3.31,0,0,1-1.11-.18,10.83,10.83,0,0,1-1.13-.48l-.4-.2a5.39,5.39,0,0,0-.6-.3,1.25,1.25,0,0,0-.5-.08,1,1,0,0,0-.84.43,1.6,1.6,0,0,0-.34,1,1.52,1.52,0,0,0,.15.69,1.79,1.79,0,0,0,.47.55,6.64,6.64,0,0,0,2,1,8.31,8.31,0,0,0,2.43.36,6.5,6.5,0,0,0,2.86-.6A4.6,4.6,0,0,0,73.45,78a5.14,5.14,0,0,0,.11-4.91A4.05,4.05,0,0,0,72,71.45,4.65,4.65,0,0,0,69.67,70.88Zm7.74,9.34a1.87,1.87,0,0,0,1.37-.56,1.94,1.94,0,0,0,.55-1.38,1.91,1.91,0,0,0-.55-1.38,2,2,0,0,0-2.76,0,1.87,1.87,0,0,0-.55,1.38A1.9,1.9,0,0,0,76,79.66,1.87,1.87,0,0,0,77.41,80.22Zm8.72.06a4.68,4.68,0,0,0,4-1.86A8.94,8.94,0,0,0,91.51,73a8.87,8.87,0,0,0-1.39-5.36,5.22,5.22,0,0,0-8,0A8.88,8.88,0,0,0,80.75,73a8.94,8.94,0,0,0,1.38,5.38A4.67,4.67,0,0,0,86.13,80.28Zm0-2.78a1.44,1.44,0,0,1-1.38-1A10,10,0,0,1,84.33,73a9.83,9.83,0,0,1,.42-3.41,1.44,1.44,0,0,1,2.76,0,9.84,9.84,0,0,1,.42,3.4,10,10,0,0,1-.42,3.42A1.45,1.45,0,0,1,86.13,77.5Z"/></svg>