<svg id="Layer_1" data-name="Layer 1" xmlns="http://www.w3.org/2000/svg" viewBox="0 0 100 100"><title>l1_3_1</title><path d="M94.62,72.06A17.5,17.5,0,1,1,65.06,59.4l-11-16.27a17.51,17.51,0,0,1-4.61.64,17.3,17.3,0,0,1-4.91-.72L33.37,59.7h0a17.6,17.6,0,1,1-5.84-3.86L38.34,39.75a17.5,17.5,0,1,1,22.07.18L71,55.69a17.33,17.33,0,0,1,6.13-1.13A17.51,17.51,0,0,1,94.62,72.06ZM56.69,58h-5V53a2.37,2.37,0,1,0-4.73,0v5h-5a2.31,2.31,0,0,0-2.35,2.36,2.37,2.37,0,0,0,.67,1.7,2.3,2.3,0,0,0,1.68.7h5v5A2.4,2.4,0,0,0,51,69.46a2.38,2.38,0,0,0,.66-1.68v-5h5a2.3,2.3,0,0,0,1.68-.7,2.37,2.37,0,0,0,.67-1.7A2.31,2.31,0,0,0,56.69,58Zm-16-28.15h-3l2.13-2.17A7.12,7.12,0,0,0,41,26a3.82,3.82,0,0,0,.36-1.67A2.8,2.8,0,0,0,41,22.77a3,3,0,0,0-1.3-1.05,4.91,4.91,0,0,0-1.95-.37,6.16,6.16,0,0,0-3.32,1,.93.93,0,0,0-.36.39,1.24,1.24,0,0,0-.1.54,1.32,1.32,0,0,0,.25.81.77.77,0,0,0,.63.33.92.92,0,0,0,.29,0,2.56,2.56,0,0,0,.31-.14l.23-.13.3-.15a7.87,7.87,0,0,1,.85-.37,2.53,2.53,0,0,1,.8-.13,1.17,1.17,0,0,1,.83.27,1,1,0,0,1,.29.78,2.93,2.93,0,0,1-1,1.91l-3.18,3.31A1.64,1.64,0,0,0,34,30.92a1.12,1.12,0,0,0,.32.82,1.11,1.11,0,0,0,.85.32h5.48a1.49,1.49,0,0,0,1-.27A1,1,0,0,0,42,31a1,1,0,0,0-.32-.81A1.49,1.49,0,0,0,40.67,29.87Zm6.22,2.33a3.51,3.51,0,0,0,3-1.4,6.68,6.68,0,0,0,1-4,6.67,6.67,0,0,0-1-4,3.91,3.91,0,0,0-6,0,6.67,6.67,0,0,0-1,4,6.68,6.68,0,0,0,1,4A3.51,3.51,0,0,0,46.89,32.2Zm0-2.09a1.07,1.07,0,0,1-1-.78,7.41,7.41,0,0,1-.32-2.56,7.41,7.41,0,0,1,.32-2.56,1.08,1.08,0,0,1,2.07,0,7.43,7.43,0,0,1,.31,2.55,7.46,7.46,0,0,1-.31,2.56A1.08,1.08,0,0,1,46.89,30.11Zm6.54,2a1.42,1.42,0,0,0,1.44-1.45,1.41,1.41,0,0,0-.41-1,1.38,1.38,0,0,0-1-.42,1.4,1.4,0,0,0-1,.42,1.45,1.45,0,0,0-.41,1,1.43,1.43,0,0,0,.41,1A1.4,1.4,0,0,0,53.43,32.15Zm7.28-7a3.78,3.78,0,0,0-1.49.27V23.57h3.24c.87,0,1.31-.35,1.31-1.05s-.44-1-1.31-1H57.81a1.27,1.27,0,0,0-.94.33,1.3,1.3,0,0,0-.33,1v4.06a.84.84,0,0,0,.28.66,1.07,1.07,0,0,0,.71.24,1.41,1.41,0,0,0,.67-.16,5.22,5.22,0,0,1,.87-.27,4,4,0,0,1,.81-.08,1.7,1.7,0,0,1,1.17.38,1.33,1.33,0,0,1,.42,1.05,1.31,1.31,0,0,1-.4,1.06,2,2,0,0,1-1.25.33,2.49,2.49,0,0,1-.83-.13,8.89,8.89,0,0,1-.85-.36l-.3-.15a4.9,4.9,0,0,0-.45-.23,1,1,0,0,0-.37-.06.77.77,0,0,0-.63.33,1.22,1.22,0,0,0-.26.78,1.05,1.05,0,0,0,.12.52,1.2,1.2,0,0,0,.35.41,4.91,4.91,0,0,0,1.54.75,6.22,6.22,0,0,0,1.82.27,4.85,4.85,0,0,0,2.14-.45,3.37,3.37,0,0,0,1.44-1.27,3.57,3.57,0,0,0,.51-1.91,3.62,3.62,0,0,0-.42-1.77,3,3,0,0,0-1.19-1.2A3.39,3.39,0,0,0,60.71,25.15ZM12.6,76h-3l2.13-2.17A7,7,0,0,0,13,72.1a3.72,3.72,0,0,0,.37-1.67,2.71,2.71,0,0,0-.46-1.57,2.84,2.84,0,0,0-1.3-1,4.68,4.68,0,0,0-2-.37,6.09,6.09,0,0,0-3.31,1,1,1,0,0,0-.37.39,1.38,1.38,0,0,0-.09.54,1.27,1.27,0,0,0,.25.8.75.75,0,0,0,.63.34.92.92,0,0,0,.29,0,1.39,1.39,0,0,0,.3-.15l.23-.12.31-.15a6.81,6.81,0,0,1,.84-.37,2.33,2.33,0,0,1,.81-.13,1.18,1.18,0,0,1,.83.27,1,1,0,0,1,.29.78,2.93,2.93,0,0,1-1,1.91L6.46,75.84A1.64,1.64,0,0,0,6,77a1.1,1.1,0,0,0,.32.82,1.13,1.13,0,0,0,.85.32H12.6a1.51,1.51,0,0,0,1-.27A1,1,0,0,0,13.9,77a1,1,0,0,0-.32-.82A1.57,1.57,0,0,0,12.6,76Zm6.22,2.33a3.51,3.51,0,0,0,3-1.4,6.68,6.68,0,0,0,1-4,6.6,6.6,0,0,0-1.05-4,3.5,3.5,0,0,0-3-1.4,3.51,3.51,0,0,0-3,1.4,6.67,6.67,0,0,0-1,4,6.68,6.68,0,0,0,1,4A3.51,3.51,0,0,0,18.82,78.29Zm0-2.09a1.06,1.06,0,0,1-1-.78,7.17,7.17,0,0,1-.32-2.56,7.13,7.13,0,0,1,.32-2.56,1.05,1.05,0,0,1,1-.77,1.09,1.09,0,0,1,1,.78,10.68,10.68,0,0,1,0,5.11A1.09,1.09,0,0,1,18.82,76.2Zm6.54,2a1.4,1.4,0,0,0,1-.42,1.43,1.43,0,0,0,.41-1,1.45,1.45,0,0,0-.41-1,1.49,1.49,0,0,0-2.07,0,1.42,1.42,0,0,0-.42,1,1.43,1.43,0,0,0,1.46,1.45ZM34.69,76h-3l2.12-2.17a7.33,7.33,0,0,0,1.26-1.69,3.86,3.86,0,0,0,.37-1.67A2.79,2.79,0,0,0,35,68.86a2.9,2.9,0,0,0-1.3-1,4.74,4.74,0,0,0-2-.37,6.16,6.16,0,0,0-3.32,1,.93.93,0,0,0-.36.39,1.21,1.21,0,0,0-.1.54,1.28,1.28,0,0,0,.26.8.74.74,0,0,0,.62.34.92.92,0,0,0,.29,0,1.71,1.71,0,0,0,.31-.15l.23-.12.3-.15a6.28,6.28,0,0,1,.85-.37,2.28,2.28,0,0,1,.8-.13,1.17,1.17,0,0,1,.83.27,1,1,0,0,1,.29.78,2.93,2.93,0,0,1-1,1.91l-3.18,3.31A1.64,1.64,0,0,0,28,77a1.14,1.14,0,0,0,.32.82,1.16,1.16,0,0,0,.85.32h5.48a1.49,1.49,0,0,0,1-.27A1,1,0,0,0,36,77a1,1,0,0,0-.32-.82A1.55,1.55,0,0,0,34.69,76Zm33.58,3.37a4.67,4.67,0,0,0,4-1.86,8.92,8.92,0,0,0,1.38-5.38,8.82,8.82,0,0,0-1.39-5.36,5.22,5.22,0,0,0-8,0,8.9,8.9,0,0,0-1.38,5.36,8.92,8.92,0,0,0,1.38,5.38A4.68,4.68,0,0,0,68.27,79.33Zm0-2.78a1.43,1.43,0,0,1-1.38-1,9.93,9.93,0,0,1-.42-3.42,9.9,9.9,0,0,1,.42-3.41,1.44,1.44,0,0,1,2.76,0,9.92,9.92,0,0,1,.42,3.4,9.93,9.93,0,0,1-.42,3.42A1.43,1.43,0,0,1,68.27,76.55ZM77,79.27a1.8,1.8,0,0,0,1.37-.56,1.87,1.87,0,0,0,.55-1.38A1.9,1.9,0,0,0,78.36,76,1.84,1.84,0,0,0,77,75.39,1.88,1.88,0,0,0,75.6,76a1.94,1.94,0,0,0-.55,1.38,1.91,1.91,0,0,0,.55,1.38A1.85,1.85,0,0,0,77,79.27Zm11.26-7.38a3.19,3.19,0,0,0,1.59-1.21,3.3,3.3,0,0,0,.57-1.93,3.48,3.48,0,0,0-.61-2,3.88,3.88,0,0,0-1.74-1.36,6.61,6.61,0,0,0-2.61-.48,8,8,0,0,0-2.37.36,6.87,6.87,0,0,0-2,1,1.94,1.94,0,0,0-.48.54,1.62,1.62,0,0,0-.14.7,1.65,1.65,0,0,0,.34,1,1,1,0,0,0,.84.43,1.28,1.28,0,0,0,.5-.09,5.1,5.1,0,0,0,.6-.29l.42-.2a11.5,11.5,0,0,1,1.09-.48,3,3,0,0,1,1-.18,1.73,1.73,0,0,1,1.22.41,1.49,1.49,0,0,1,.44,1.15,1.1,1.1,0,0,1-.5,1,3,3,0,0,1-1.6.32H84A1.15,1.15,0,0,0,83,71a1.59,1.59,0,0,0-.34,1A1.57,1.57,0,0,0,83,73a1.15,1.15,0,0,0,.94.42h1.24a3.06,3.06,0,0,1,1.64.34,1.24,1.24,0,0,1,.5,1.12,1.38,1.38,0,0,1-.49,1.2,2.75,2.75,0,0,1-1.61.36,3.47,3.47,0,0,1-1.15-.17,7.87,7.87,0,0,1-1.15-.49l-.25-.11-.19-.09c-.25-.13-.45-.23-.6-.29a1.28,1.28,0,0,0-.5-.09,1.06,1.06,0,0,0-.84.43,1.69,1.69,0,0,0-.34,1,1.6,1.6,0,0,0,.14.69,1.63,1.63,0,0,0,.48.55,6.4,6.4,0,0,0,2.08,1,8.68,8.68,0,0,0,2.5.35,7.42,7.42,0,0,0,2.83-.49,4.14,4.14,0,0,0,1.87-1.39,3.47,3.47,0,0,0,.66-2.12,3.53,3.53,0,0,0-.67-2.18A3.38,3.38,0,0,0,88.25,71.89Z"/></svg>