<svg id="Layer_1" data-name="Layer 1" xmlns="http://www.w3.org/2000/svg" viewBox="0 0 100 100"><title>l1_3_1</title><path d="M94.89,72.9A17.5,17.5,0,1,1,65.33,60.24L54.37,44a17.51,17.51,0,0,1-4.61.63,17.3,17.3,0,0,1-4.91-.71L33.64,60.54h0a17.64,17.64,0,1,1-5.84-3.85L38.61,40.59a17.51,17.51,0,1,1,22.07.17L71.26,56.52A17.47,17.47,0,0,1,94.89,72.9ZM57,58.85h-5v-5a2.25,2.25,0,0,0-.68-1.68,2.28,2.28,0,0,0-1.68-.68,2.32,2.32,0,0,0-1.68.68,2.28,2.28,0,0,0-.68,1.68v5h-5a2.32,2.32,0,0,0-1.68.68,2.28,2.28,0,0,0-.68,1.68,2.36,2.36,0,0,0,.68,1.7,2.26,2.26,0,0,0,1.68.7h5v5a2.28,2.28,0,0,0,.68,1.68,2.32,2.32,0,0,0,1.68.68,2.27,2.27,0,0,0,1.7-.68,2.31,2.31,0,0,0,.66-1.68v-5h5a2.23,2.23,0,0,0,1.68-.7,2.32,2.32,0,0,0,.68-1.7,2.25,2.25,0,0,0-.68-1.68A2.28,2.28,0,0,0,57,58.85ZM38.15,33a3.5,3.5,0,0,0,3-1.39,6.71,6.71,0,0,0,1-4,6.6,6.6,0,0,0-1-4,3.5,3.5,0,0,0-3-1.39,3.5,3.5,0,0,0-3,1.39,6.67,6.67,0,0,0-1,4,6.71,6.71,0,0,0,1,4A3.5,3.5,0,0,0,38.15,33Zm0-2.08a1.08,1.08,0,0,1-1-.78,7.53,7.53,0,0,1-.31-2.57,7.36,7.36,0,0,1,.31-2.55,1.08,1.08,0,0,1,1-.78,1.07,1.07,0,0,1,1,.78,7.38,7.38,0,0,1,.32,2.55,7.47,7.47,0,0,1-.32,2.57A1.07,1.07,0,0,1,38.15,31Zm6.54,2a1.4,1.4,0,0,0,1-.42,1.45,1.45,0,0,0,.41-1,1.43,1.43,0,0,0-.41-1,1.46,1.46,0,0,0-2.49,1,1.42,1.42,0,0,0,.42,1A1.39,1.39,0,0,0,44.69,33ZM54,30.71H51l2.13-2.18a7.3,7.3,0,0,0,1.26-1.68,3.9,3.9,0,0,0,.36-1.68,2.75,2.75,0,0,0-.45-1.56A2.9,2.9,0,0,0,53,22.56a4.74,4.74,0,0,0-2-.37,6.16,6.16,0,0,0-3.32,1,.93.93,0,0,0-.36.39,1.21,1.21,0,0,0-.1.54,1.27,1.27,0,0,0,.25.8.75.75,0,0,0,.63.34.93.93,0,0,0,.29-.05,1.59,1.59,0,0,0,.31-.14L49,25l.3-.15a6.1,6.1,0,0,1,.85-.36,2.28,2.28,0,0,1,.8-.13,1.17,1.17,0,0,1,.83.27,1,1,0,0,1,.29.78,2.91,2.91,0,0,1-1,1.9l-3.18,3.32a1.64,1.64,0,0,0-.51,1.17,1.1,1.1,0,0,0,1.17,1.14H54a1.49,1.49,0,0,0,1-.27,1,1,0,0,0,.32-.84A1,1,0,0,0,55,31,1.55,1.55,0,0,0,54,30.71ZM61,26a3.78,3.78,0,0,0-1.49.27V24.41h3.24c.87,0,1.31-.35,1.31-1.05s-.44-1-1.31-1H58.08a1.27,1.27,0,0,0-.94.33,1.3,1.3,0,0,0-.33,1v4.07a.81.81,0,0,0,.28.65,1,1,0,0,0,.71.25,1.42,1.42,0,0,0,.67-.17,5.22,5.22,0,0,1,.87-.27,4,4,0,0,1,.81-.07,1.69,1.69,0,0,1,1.17.37,1.33,1.33,0,0,1,.42,1,1.3,1.3,0,0,1-.4,1.06,1.9,1.9,0,0,1-1.25.34,2.49,2.49,0,0,1-.83-.14,8.89,8.89,0,0,1-.85-.36l-.3-.15a4.27,4.27,0,0,0-.45-.22,1,1,0,0,0-.37-.06.79.79,0,0,0-.63.32,1.25,1.25,0,0,0-.26.79,1.08,1.08,0,0,0,.12.52,1.3,1.3,0,0,0,.35.41,4.91,4.91,0,0,0,1.54.75,6.22,6.22,0,0,0,1.82.27,4.85,4.85,0,0,0,2.14-.45,3.39,3.39,0,0,0,1.44-1.28,3.53,3.53,0,0,0,.51-1.9,3.69,3.69,0,0,0-.42-1.78,3.12,3.12,0,0,0-1.19-1.2A3.49,3.49,0,0,0,61,26ZM10.08,79.12a3.5,3.5,0,0,0,3-1.39,6.71,6.71,0,0,0,1-4,6.6,6.6,0,0,0-1-4,3.5,3.5,0,0,0-3-1.39,3.5,3.5,0,0,0-3,1.39,6.67,6.67,0,0,0-1,4,6.71,6.71,0,0,0,1,4A3.5,3.5,0,0,0,10.08,79.12Zm0-2.08a1.07,1.07,0,0,1-1-.78,7.47,7.47,0,0,1-.32-2.57,7.41,7.41,0,0,1,.32-2.56,1.08,1.08,0,0,1,2.07,0,7.43,7.43,0,0,1,.31,2.55,7.53,7.53,0,0,1-.31,2.57A1.08,1.08,0,0,1,10.08,77Zm6.54,2a1.4,1.4,0,0,0,1-.42,1.41,1.41,0,0,0,.41-1,1.45,1.45,0,1,0-2.89,0,1.41,1.41,0,0,0,.41,1A1.39,1.39,0,0,0,16.62,79.08ZM26,76.8h-3l2.13-2.18a7,7,0,0,0,1.25-1.69,3.82,3.82,0,0,0,.37-1.67,2.81,2.81,0,0,0-.46-1.57,3,3,0,0,0-1.3-1A4.92,4.92,0,0,0,23,68.28a6.09,6.09,0,0,0-3.31,1,1,1,0,0,0-.37.39,1.21,1.21,0,0,0-.1.54,1.3,1.3,0,0,0,.26.8.78.78,0,0,0,.63.34.87.87,0,0,0,.28-.05,2.56,2.56,0,0,0,.31-.14l.23-.13.3-.15a7.87,7.87,0,0,1,.85-.37,2.53,2.53,0,0,1,.8-.12,1.17,1.17,0,0,1,.83.27,1,1,0,0,1,.3.78,2.91,2.91,0,0,1-1,1.9l-3.18,3.32a1.64,1.64,0,0,0-.51,1.17,1.09,1.09,0,0,0,.31.81,1.14,1.14,0,0,0,.86.33H26a1.49,1.49,0,0,0,1-.27,1,1,0,0,0,.33-.84,1,1,0,0,0-.33-.82A1.49,1.49,0,0,0,26,76.8Zm6.23,2.32a3.5,3.5,0,0,0,3-1.39,6.71,6.71,0,0,0,1-4,6.67,6.67,0,0,0-1-4,3.51,3.51,0,0,0-3-1.39,3.5,3.5,0,0,0-3,1.39,6.67,6.67,0,0,0-1,4,6.71,6.71,0,0,0,1,4A3.5,3.5,0,0,0,32.18,79.12Zm0-2.08a1.08,1.08,0,0,1-1-.78,7.53,7.53,0,0,1-.31-2.57,7.46,7.46,0,0,1,.31-2.56,1.08,1.08,0,0,1,1-.77,1.07,1.07,0,0,1,1,.78,7.38,7.38,0,0,1,.32,2.55,7.47,7.47,0,0,1-.32,2.57A1.07,1.07,0,0,1,32.18,77Zm34,2.08a3.5,3.5,0,0,0,3-1.39,6.71,6.71,0,0,0,1-4,6.6,6.6,0,0,0-1.05-4,3.92,3.92,0,0,0-6,0,6.67,6.67,0,0,0-1,4,6.71,6.71,0,0,0,1,4A3.5,3.5,0,0,0,66.22,79.12Zm0-2.08a1.07,1.07,0,0,1-1-.78,7.47,7.47,0,0,1-.32-2.57,7.41,7.41,0,0,1,.32-2.56,1.08,1.08,0,0,1,2.07,0,7.43,7.43,0,0,1,.31,2.55,7.53,7.53,0,0,1-.31,2.57A1.08,1.08,0,0,1,66.22,77Zm6.54,2a1.4,1.4,0,0,0,1-.42,1.45,1.45,0,0,0,.41-1,1.43,1.43,0,0,0-.41-1,1.45,1.45,0,0,0-2.48,1,1.41,1.41,0,0,0,.41,1A1.39,1.39,0,0,0,72.76,79.08Zm6.54,0a3.5,3.5,0,0,0,3-1.39,6.71,6.71,0,0,0,1-4,6.6,6.6,0,0,0-1-4,3.92,3.92,0,0,0-6,0,6.67,6.67,0,0,0-1,4,6.71,6.71,0,0,0,1,4A3.5,3.5,0,0,0,79.3,79.12Zm0-2.08a1.07,1.07,0,0,1-1-.78A7.47,7.47,0,0,1,78,73.69a7.41,7.41,0,0,1,.32-2.56,1.08,1.08,0,0,1,2.07,0,7.43,7.43,0,0,1,.31,2.55,7.53,7.53,0,0,1-.31,2.57A1.08,1.08,0,0,1,79.3,77Zm9.74-5a3.78,3.78,0,0,0-1.49.27V70.5h3.24c.87,0,1.31-.35,1.31-1s-.44-1-1.31-1H86.14a1.27,1.27,0,0,0-.94.33,1.3,1.3,0,0,0-.33,1v4.07a.82.82,0,0,0,.28.65,1.08,1.08,0,0,0,.71.25,1.42,1.42,0,0,0,.67-.17,5.45,5.45,0,0,1,.86-.27,4.18,4.18,0,0,1,.82-.07,1.69,1.69,0,0,1,1.17.37,1.33,1.33,0,0,1,.42,1,1.31,1.31,0,0,1-.4,1.06,2,2,0,0,1-1.25.34,2.45,2.45,0,0,1-.83-.14,7.93,7.93,0,0,1-.85-.36l-.3-.15a4.27,4.27,0,0,0-.45-.22,1,1,0,0,0-.37-.06.76.76,0,0,0-.63.32,1.23,1.23,0,0,0-.26.79,1.13,1.13,0,0,0,.11.51,1.39,1.39,0,0,0,.36.42,5,5,0,0,0,1.53.75,6.34,6.34,0,0,0,1.83.27,4.85,4.85,0,0,0,2.14-.45,3.39,3.39,0,0,0,1.44-1.28A3.84,3.84,0,0,0,92,73.7a3,3,0,0,0-1.18-1.2A3.42,3.42,0,0,0,89,72.07Z"/></svg>