<svg id="Layer_1" data-name="Layer 1" xmlns="http://www.w3.org/2000/svg" viewBox="0 0 100 100"><title>l1_3_1</title><path d="M95.57,72.9A17.5,17.5,0,1,1,66,60.24L55.05,44a17.57,17.57,0,0,1-4.61.63,17.3,17.3,0,0,1-4.91-.71L34.32,60.54h0a17.64,17.64,0,1,1-5.84-3.85l10.8-16.09a17.52,17.52,0,1,1,22.08.17L71.94,56.52A17.47,17.47,0,0,1,95.57,72.9ZM57.63,58.85h-5v-5a2.36,2.36,0,1,0-4.72,0v5h-5a2.32,2.32,0,0,0-2.36,2.36,2.36,2.36,0,0,0,.68,1.7,2.24,2.24,0,0,0,1.68.7h5v5a2.39,2.39,0,0,0,4.06,1.68,2.31,2.31,0,0,0,.66-1.68v-5h5a2.23,2.23,0,0,0,1.68-.7,2.36,2.36,0,0,0,.68-1.7,2.32,2.32,0,0,0-2.36-2.36ZM38.83,33a3.5,3.5,0,0,0,3-1.39,6.71,6.71,0,0,0,1-4,6.6,6.6,0,0,0-1-4,3.5,3.5,0,0,0-3-1.39,3.5,3.5,0,0,0-3,1.39,6.67,6.67,0,0,0-1,4,6.71,6.71,0,0,0,1,4A3.5,3.5,0,0,0,38.83,33Zm0-2.08a1.07,1.07,0,0,1-1-.78,7.47,7.47,0,0,1-.32-2.57,7.3,7.3,0,0,1,.32-2.55,1.07,1.07,0,0,1,1-.78,1.08,1.08,0,0,1,1,.78,7.43,7.43,0,0,1,.31,2.55,7.53,7.53,0,0,1-.31,2.57A1.08,1.08,0,0,1,38.83,31Zm6.54,2a1.4,1.4,0,0,0,1-.42,1.41,1.41,0,0,0,.41-1,1.45,1.45,0,1,0-2.89,0,1.41,1.41,0,0,0,.41,1A1.39,1.39,0,0,0,45.37,33Zm9.72-2.28H53.86V23.6a1.26,1.26,0,0,0-1.33-1.34,2.56,2.56,0,0,0-1.25.38L48.88,24a1,1,0,0,0-.52.93,1.26,1.26,0,0,0,.3.82.89.89,0,0,0,.72.37A1,1,0,0,0,49.9,26l1.2-.71v5.42H49.89a1.5,1.5,0,0,0-1,.27,1,1,0,0,0-.32.81c0,.74.44,1.11,1.31,1.11h5.2c.87,0,1.31-.37,1.31-1.11a1,1,0,0,0-.32-.81A1.5,1.5,0,0,0,55.09,30.71Zm9-1.7h-.33V23.6a1.29,1.29,0,0,0-.41-1,1.4,1.4,0,0,0-1-.36,1.57,1.57,0,0,0-.67.16,1.39,1.39,0,0,0-.53.46L56.94,29a1.68,1.68,0,0,0-.33,1,1.1,1.1,0,0,0,1.17,1.15h3.34v.51a1.32,1.32,0,0,0,.37,1,1.36,1.36,0,0,0,1,.35,1.37,1.37,0,0,0,1-.35,1.32,1.32,0,0,0,.38-1v-.51h.33c.87,0,1.3-.35,1.3-1.06S65,29,64.14,29Zm-4.82,0,1.8-2.59V29ZM10.77,79.12a3.5,3.5,0,0,0,3-1.39,6.71,6.71,0,0,0,1-4,6.67,6.67,0,0,0-1-4,3.51,3.51,0,0,0-3-1.39,3.5,3.5,0,0,0-3,1.39,6.67,6.67,0,0,0-1,4,6.71,6.71,0,0,0,1,4A3.5,3.5,0,0,0,10.77,79.12Zm0-2.08a1.08,1.08,0,0,1-1-.78,7.53,7.53,0,0,1-.31-2.57,7.46,7.46,0,0,1,.31-2.56,1.08,1.08,0,0,1,1-.77,1.07,1.07,0,0,1,1,.78,7.38,7.38,0,0,1,.32,2.55,7.47,7.47,0,0,1-.32,2.57A1.07,1.07,0,0,1,10.77,77Zm6.54,2a1.36,1.36,0,0,0,1-.42,1.42,1.42,0,0,0,.42-1,1.4,1.4,0,0,0-.42-1,1.36,1.36,0,0,0-1-.42,1.42,1.42,0,0,0-1.46,1.45,1.45,1.45,0,0,0,.41,1A1.42,1.42,0,0,0,17.31,79.08Zm6.54,0a3.5,3.5,0,0,0,3-1.39,6.71,6.71,0,0,0,1-4,6.67,6.67,0,0,0-1-4,3.51,3.51,0,0,0-3-1.39,3.5,3.5,0,0,0-3,1.39,6.67,6.67,0,0,0-1,4,6.71,6.71,0,0,0,1,4A3.5,3.5,0,0,0,23.85,79.12Zm0-2.08a1.08,1.08,0,0,1-1-.78,7.53,7.53,0,0,1-.31-2.57,7.46,7.46,0,0,1,.31-2.56,1.08,1.08,0,0,1,1-.77,1.07,1.07,0,0,1,1,.78,7.38,7.38,0,0,1,.32,2.55,7.47,7.47,0,0,1-.32,2.57A1.07,1.07,0,0,1,23.85,77Zm12-8.63H30a1.45,1.45,0,0,0-1,.28,1,1,0,0,0-.32.83,1,1,0,0,0,.31.81,1.48,1.48,0,0,0,1,.27h3.75l-3.86,6.59a1.42,1.42,0,0,0-.21.72,1.08,1.08,0,0,0,.41.86,1.37,1.37,0,0,0,.92.35,1.33,1.33,0,0,0,.64-.17,1.39,1.39,0,0,0,.52-.53l4.55-7.88a2,2,0,0,0,.28-1,1.21,1.21,0,0,0-.29-.82A1.1,1.1,0,0,0,35.88,68.41Zm31,10.71a3.5,3.5,0,0,0,3-1.39,6.71,6.71,0,0,0,1-4,6.6,6.6,0,0,0-1-4,3.92,3.92,0,0,0-6,0,6.67,6.67,0,0,0-1,4,6.71,6.71,0,0,0,1,4A3.5,3.5,0,0,0,66.9,79.12Zm0-2.08a1.08,1.08,0,0,1-1-.78,7.53,7.53,0,0,1-.31-2.57,7.46,7.46,0,0,1,.31-2.56,1.08,1.08,0,0,1,1-.77,1.07,1.07,0,0,1,1,.78,7.38,7.38,0,0,1,.32,2.55,7.47,7.47,0,0,1-.32,2.57A1.07,1.07,0,0,1,66.9,77Zm6.54,2a1.4,1.4,0,0,0,1-.42,1.45,1.45,0,0,0,.41-1,1.43,1.43,0,0,0-.41-1,1.46,1.46,0,0,0-2.49,1,1.42,1.42,0,0,0,.42,1A1.39,1.39,0,0,0,73.44,79.08Zm6.54,0a3.5,3.5,0,0,0,3-1.39,6.71,6.71,0,0,0,1-4,6.6,6.6,0,0,0-1-4,3.92,3.92,0,0,0-6,0,6.67,6.67,0,0,0-1,4,6.71,6.71,0,0,0,1,4A3.5,3.5,0,0,0,80,79.12ZM80,77a1.08,1.08,0,0,1-1-.78,7.53,7.53,0,0,1-.31-2.57,7.46,7.46,0,0,1,.31-2.56,1.08,1.08,0,0,1,1-.77,1.07,1.07,0,0,1,1,.78,7.38,7.38,0,0,1,.32,2.55A7.47,7.47,0,0,1,81,76.26,1.07,1.07,0,0,1,80,77Zm12-8.63H86.13a1.45,1.45,0,0,0-1,.28,1.22,1.22,0,0,0,0,1.64,1.51,1.51,0,0,0,1,.27h3.75L86,77.19a1.42,1.42,0,0,0-.21.72,1.11,1.11,0,0,0,.41.86,1.4,1.4,0,0,0,.93.35,1.36,1.36,0,0,0,.64-.17,1.45,1.45,0,0,0,.51-.53l4.55-7.88a1.91,1.91,0,0,0,.28-1,1.16,1.16,0,0,0-.29-.82A1.07,1.07,0,0,0,92,68.41Z"/></svg>