<svg id="Layer_1" data-name="Layer 1" xmlns="http://www.w3.org/2000/svg" viewBox="0 0 100 100"><title>l1_3_1</title><path d="M95.57,72.9A17.5,17.5,0,1,1,66,60.24L55.05,44a17.57,17.57,0,0,1-4.61.63,17.3,17.3,0,0,1-4.91-.71L34.32,60.54h0a17.64,17.64,0,1,1-5.84-3.85l10.8-16.09a17.52,17.52,0,1,1,22.08.17L71.94,56.52A17.47,17.47,0,0,1,95.57,72.9ZM57.63,58.85h-5v-5a2.36,2.36,0,1,0-4.72,0v5h-5a2.32,2.32,0,0,0-2.36,2.36,2.36,2.36,0,0,0,.68,1.7,2.23,2.23,0,0,0,1.68.7h5v5a2.39,2.39,0,0,0,4.06,1.68,2.31,2.31,0,0,0,.66-1.68v-5h5a2.23,2.23,0,0,0,1.68-.7,2.36,2.36,0,0,0,.68-1.7,2.32,2.32,0,0,0-2.36-2.36ZM45.39,31H43.75V21.5a1.72,1.72,0,0,0-.49-1.3A1.74,1.74,0,0,0,42,19.72a3.43,3.43,0,0,0-1.66.5l-3.2,1.86a1.37,1.37,0,0,0-.7,1.24,1.73,1.73,0,0,0,.4,1.09,1.2,1.2,0,0,0,1,.49,1.38,1.38,0,0,0,.7-.2l1.6-.94V31H38.45a2,2,0,0,0-1.32.36,1.34,1.34,0,0,0-.42,1.08c0,1,.58,1.48,1.74,1.48h6.94c1.16,0,1.74-.49,1.74-1.48a1.34,1.34,0,0,0-.42-1.08A2,2,0,0,0,45.39,31Zm4.48,3a1.84,1.84,0,0,0,1.37-.56,2,2,0,0,0,0-2.76,1.84,1.84,0,0,0-1.37-.56,1.88,1.88,0,0,0-1.39.56,2,2,0,0,0,0,2.76A1.88,1.88,0,0,0,49.87,34Zm9.7-9.34a5,5,0,0,0-2,.36V22.58h4.32c1.16,0,1.74-.47,1.74-1.4s-.58-1.38-1.74-1.38h-6.2A1.54,1.54,0,0,0,54,21.52v5.42a1.11,1.11,0,0,0,.38.87,1.38,1.38,0,0,0,.94.33,1.87,1.87,0,0,0,.9-.22,7.69,7.69,0,0,1,1.15-.36,5.25,5.25,0,0,1,1.09-.1A2.27,2.27,0,0,1,60,28a1.75,1.75,0,0,1,.56,1.4,1.73,1.73,0,0,1-.54,1.41,2.55,2.55,0,0,1-1.66.45A3.31,3.31,0,0,1,57.28,31a10.83,10.83,0,0,1-1.13-.48l-.4-.2a4.08,4.08,0,0,0-.6-.3,1.41,1.41,0,0,0-.5-.08,1,1,0,0,0-.84.43,1.69,1.69,0,0,0-.34,1.05,1.47,1.47,0,0,0,.15.69,1.82,1.82,0,0,0,.47.55,6.64,6.64,0,0,0,2,1,8.36,8.36,0,0,0,2.43.36,6.5,6.5,0,0,0,2.86-.6,4.49,4.49,0,0,0,1.92-1.7A4.75,4.75,0,0,0,64,29.22a4.83,4.83,0,0,0-.57-2.37,4.05,4.05,0,0,0-1.58-1.6A4.6,4.6,0,0,0,59.57,24.68ZM13.09,80.17a4.68,4.68,0,0,0,4-1.86,8.94,8.94,0,0,0,1.38-5.38,8.87,8.87,0,0,0-1.39-5.36,4.69,4.69,0,0,0-4-1.86,4.67,4.67,0,0,0-4,1.86,8.88,8.88,0,0,0-1.38,5.36,8.94,8.94,0,0,0,1.38,5.38A4.67,4.67,0,0,0,13.09,80.17Zm0-2.78a1.44,1.44,0,0,1-1.38-1,10,10,0,0,1-.42-3.42,9.83,9.83,0,0,1,.42-3.41,1.44,1.44,0,0,1,2.76,0,9.84,9.84,0,0,1,.42,3.4,10,10,0,0,1-.42,3.42A1.44,1.44,0,0,1,13.09,77.39Zm8.72,2.72a1.87,1.87,0,0,0,1.37-.56,1.94,1.94,0,0,0,.55-1.38,1.91,1.91,0,0,0-.55-1.38,2,2,0,0,0-2.76,0,1.87,1.87,0,0,0-.55,1.38,1.9,1.9,0,0,0,.55,1.38A1.87,1.87,0,0,0,21.81,80.11ZM30,65.71a5.06,5.06,0,0,0-2.54.62,4.41,4.41,0,0,0-1.75,1.73,5.35,5.35,0,0,0-.08,4.88,4.12,4.12,0,0,0,1.51,1.64,4.07,4.07,0,0,0,2.16.59A4,4,0,0,0,31,74.8a3.32,3.32,0,0,0,1.23-1,5.32,5.32,0,0,1-.75,2.61,1.91,1.91,0,0,1-1.65.93,2.82,2.82,0,0,1-.92-.16c-.3-.11-.66-.27-1.1-.48l-.44-.22c-.26-.14-.46-.23-.6-.29a1.35,1.35,0,0,0-.5-.09,1,1,0,0,0-.85.43,1.55,1.55,0,0,0-.35,1,1.48,1.48,0,0,0,.15.7,1.84,1.84,0,0,0,.49.54,6.52,6.52,0,0,0,2,1,7.75,7.75,0,0,0,2.29.36,5.44,5.44,0,0,0,3.11-.9A5.91,5.91,0,0,0,35.2,76.7a9.85,9.85,0,0,0,.73-3.91,8,8,0,0,0-1.54-5.24A5.36,5.36,0,0,0,30,65.71Zm.22,6.62A1.57,1.57,0,0,1,29,71.82a2,2,0,0,1-.45-1.39A2,2,0,0,1,29,69.05a1.55,1.55,0,0,1,1.24-.52,1.58,1.58,0,0,1,1.24.53A2,2,0,0,1,32,70.43a2,2,0,0,1-.47,1.38A1.64,1.64,0,0,1,30.25,72.33Zm39,8.84a4.67,4.67,0,0,0,4-1.86,8.94,8.94,0,0,0,1.38-5.38,8.8,8.8,0,0,0-1.39-5.36,5.22,5.22,0,0,0-8,0,8.88,8.88,0,0,0-1.38,5.36,8.94,8.94,0,0,0,1.38,5.38A4.67,4.67,0,0,0,69.22,81.17Zm0-2.78a1.44,1.44,0,0,1-1.38-1,10,10,0,0,1-.42-3.42,9.83,9.83,0,0,1,.42-3.41,1.44,1.44,0,0,1,2.76,0,9.84,9.84,0,0,1,.42,3.4,10,10,0,0,1-.42,3.42A1.44,1.44,0,0,1,69.22,78.39Zm8.72,2.72a1.85,1.85,0,0,0,1.37-.56,1.9,1.9,0,0,0,.55-1.38,1.87,1.87,0,0,0-.55-1.38,1.82,1.82,0,0,0-1.37-.56,1.85,1.85,0,0,0-1.39.56A1.87,1.87,0,0,0,76,79.17a1.9,1.9,0,0,0,1.94,1.94Zm9.92-9.4a3.8,3.8,0,0,0-1.69.37,3.07,3.07,0,0,0-1.23,1,5.32,5.32,0,0,1,.75-2.61,1.91,1.91,0,0,1,1.65-.93,2.58,2.58,0,0,1,.92.16,9.48,9.48,0,0,1,1.1.48l.44.22c.25.13.45.23.6.29a1.31,1.31,0,0,0,.5.09,1.08,1.08,0,0,0,.85-.43,1.64,1.64,0,0,0,.35-1,1.45,1.45,0,0,0-.15-.7,1.63,1.63,0,0,0-.49-.54,6.31,6.31,0,0,0-2-1,7.8,7.8,0,0,0-2.29-.36,5.42,5.42,0,0,0-3.11.9A5.72,5.72,0,0,0,82,70.18a9.61,9.61,0,0,0-.73,3.91,8,8,0,0,0,1.54,5.24,5.39,5.39,0,0,0,4.36,1.84,5.19,5.19,0,0,0,2.54-.62,4.48,4.48,0,0,0,1.75-1.73,5,5,0,0,0,.63-2.51,5.11,5.11,0,0,0-.55-2.37A4.13,4.13,0,0,0,90,72.3,4,4,0,0,0,87.86,71.71Zm-.92,6.64a1.6,1.6,0,0,1-1.24-.53,2.23,2.23,0,0,1,0-2.75,1.77,1.77,0,0,1,2.5,0,2,2,0,0,1,.45,1.39,2.05,2.05,0,0,1-.46,1.38A1.6,1.6,0,0,1,86.94,78.35Z"/></svg>