<svg id="Layer_1" data-name="Layer 1" xmlns="http://www.w3.org/2000/svg" viewBox="0 0 100 100"><title>l1_3_1</title><path d="M94.86,74.63A17.5,17.5,0,1,1,65.3,62l-11-16.28a17.13,17.13,0,0,1-9.52-.07L33.61,62.26h0a17.53,17.53,0,1,1-5.84-3.86l10.8-16.09a17.51,17.51,0,1,1,22.08.18L71.23,58.25a17.32,17.32,0,0,1,6.13-1.12A17.5,17.5,0,0,1,94.86,74.63Zm-37.94-14h-5v-5a2.28,2.28,0,0,0-.68-1.68,2.42,2.42,0,0,0-3.36,0,2.28,2.28,0,0,0-.68,1.68v5h-5a2.25,2.25,0,0,0-1.68.68,2.28,2.28,0,0,0-.68,1.68,2.38,2.38,0,0,0,.68,1.7,2.26,2.26,0,0,0,1.68.7h5v5A2.32,2.32,0,0,0,47.84,72a2.44,2.44,0,0,0,3.38,0,2.34,2.34,0,0,0,.66-1.68v-5h5a2.26,2.26,0,0,0,1.68-.7,2.38,2.38,0,0,0,.68-1.7,2.28,2.28,0,0,0-.68-1.68A2.25,2.25,0,0,0,56.92,60.58ZM38.12,34.76a3.5,3.5,0,0,0,3-1.39,6.71,6.71,0,0,0,1-4,6.6,6.6,0,0,0-1-4,3.5,3.5,0,0,0-3-1.39,3.5,3.5,0,0,0-3,1.39,6.67,6.67,0,0,0-1,4,6.71,6.71,0,0,0,1,4A3.5,3.5,0,0,0,38.12,34.76Zm0-2.08a1.07,1.07,0,0,1-1-.78,7.47,7.47,0,0,1-.32-2.57,7.41,7.41,0,0,1,.32-2.56,1.08,1.08,0,0,1,2.07,0,7.43,7.43,0,0,1,.31,2.55,7.53,7.53,0,0,1-.31,2.57A1.08,1.08,0,0,1,38.12,32.68Zm6.54,2a1.4,1.4,0,0,0,1-.42,1.41,1.41,0,0,0,.41-1,1.45,1.45,0,1,0-2.89,0,1.41,1.41,0,0,0,.41,1A1.39,1.39,0,0,0,44.66,34.72Zm6.54,0a3.5,3.5,0,0,0,3-1.39,6.71,6.71,0,0,0,1-4,6.6,6.6,0,0,0-1.05-4,3.92,3.92,0,0,0-6,0,6.67,6.67,0,0,0-1,4,6.71,6.71,0,0,0,1,4A3.5,3.5,0,0,0,51.2,34.76Zm0-2.08a1.07,1.07,0,0,1-1-.78,7.47,7.47,0,0,1-.32-2.57,7.41,7.41,0,0,1,.32-2.56,1.08,1.08,0,0,1,2.07,0,7.43,7.43,0,0,1,.31,2.55,7.53,7.53,0,0,1-.31,2.57A1.08,1.08,0,0,1,51.2,32.68Zm9.74-5a3.78,3.78,0,0,0-1.49.27V26.14h3.24c.87,0,1.31-.35,1.31-1.05s-.44-1-1.31-1H58a1.27,1.27,0,0,0-.94.33,1.3,1.3,0,0,0-.33,1v4.07a.82.82,0,0,0,.28.65,1.08,1.08,0,0,0,.71.25,1.42,1.42,0,0,0,.67-.17,5.45,5.45,0,0,1,.86-.27,4.18,4.18,0,0,1,.82-.07,1.69,1.69,0,0,1,1.17.37,1.33,1.33,0,0,1,.42,1,1.31,1.31,0,0,1-.4,1.06,2,2,0,0,1-1.25.34,2.45,2.45,0,0,1-.83-.14,7.93,7.93,0,0,1-.85-.36l-.3-.15a4.27,4.27,0,0,0-.45-.22,1,1,0,0,0-.37-.06.76.76,0,0,0-.63.32,1.23,1.23,0,0,0-.26.79,1.13,1.13,0,0,0,.11.51,1.39,1.39,0,0,0,.36.42,5,5,0,0,0,1.53.75,6.34,6.34,0,0,0,1.83.27,4.85,4.85,0,0,0,2.14-.45A3.39,3.39,0,0,0,63.77,33a3.84,3.84,0,0,0,.08-3.68,3,3,0,0,0-1.18-1.2A3.42,3.42,0,0,0,60.94,27.71ZM10.06,80.85a3.51,3.51,0,0,0,3-1.4,6.68,6.68,0,0,0,1-4,6.67,6.67,0,0,0-1-4,3.52,3.52,0,0,0-3-1.4,3.51,3.51,0,0,0-3,1.4,6.67,6.67,0,0,0-1,4,6.68,6.68,0,0,0,1,4A3.51,3.51,0,0,0,10.06,80.85Zm0-2.09A1.08,1.08,0,0,1,9,78a7.46,7.46,0,0,1-.31-2.56A7.46,7.46,0,0,1,9,72.86a1.08,1.08,0,0,1,1-.77,1.07,1.07,0,0,1,1,.78,10.36,10.36,0,0,1,0,5.11A1.07,1.07,0,0,1,10.06,78.76Zm6.54,2a1.36,1.36,0,0,0,1-.42,1.4,1.4,0,0,0,.42-1,1.42,1.42,0,0,0-.42-1,1.36,1.36,0,0,0-1-.42,1.42,1.42,0,0,0-1.05.42,1.45,1.45,0,0,0-.41,1A1.42,1.42,0,0,0,16.6,80.8Zm6.54,0a3.51,3.51,0,0,0,3-1.4,6.68,6.68,0,0,0,1-4,6.67,6.67,0,0,0-1-4,3.52,3.52,0,0,0-3-1.4,3.51,3.51,0,0,0-3,1.4,6.67,6.67,0,0,0-1,4,6.68,6.68,0,0,0,1,4A3.51,3.51,0,0,0,23.14,80.85Zm0-2.09a1.08,1.08,0,0,1-1-.78,7.46,7.46,0,0,1-.31-2.56,7.46,7.46,0,0,1,.31-2.56,1.08,1.08,0,0,1,1-.77,1.07,1.07,0,0,1,1,.78,10.36,10.36,0,0,1,0,5.11A1.07,1.07,0,0,1,23.14,78.76ZM34,75.27a2.38,2.38,0,0,0,1.19-.91,2.46,2.46,0,0,0,.43-1.45,2.59,2.59,0,0,0-.46-1.53,2.92,2.92,0,0,0-1.3-1,5,5,0,0,0-2-.36,6.05,6.05,0,0,0-1.78.27,5,5,0,0,0-1.52.75,1.22,1.22,0,0,0-.36.41,1.14,1.14,0,0,0-.11.52,1.23,1.23,0,0,0,.26.79.76.76,0,0,0,.63.32,1.06,1.06,0,0,0,.37-.06l.45-.22.32-.15a7.65,7.65,0,0,1,.82-.36,2.21,2.21,0,0,1,.78-.14,1.33,1.33,0,0,1,.92.31,1.12,1.12,0,0,1,.33.86.85.85,0,0,1-.38.77,2.3,2.3,0,0,1-1.2.24h-.66a.84.84,0,0,0-.7.31,1.21,1.21,0,0,0,0,1.5.85.85,0,0,0,.7.32h.94a2.25,2.25,0,0,1,1.22.25.94.94,0,0,1,.38.84,1,1,0,0,1-.37.9,2.06,2.06,0,0,1-1.21.27,2.93,2.93,0,0,1-.86-.12,7.94,7.94,0,0,1-.86-.37l-.19-.08-.14-.07-.45-.22a1.07,1.07,0,0,0-.38-.07.77.77,0,0,0-.63.33,1.2,1.2,0,0,0-.25.78,1.17,1.17,0,0,0,.11.52,1,1,0,0,0,.35.41,4.78,4.78,0,0,0,1.57.76,6.4,6.4,0,0,0,1.87.26A5.7,5.7,0,0,0,34,80.47a3.17,3.17,0,0,0,1.4-1,2.62,2.62,0,0,0,.5-1.59,2.68,2.68,0,0,0-.5-1.63A2.58,2.58,0,0,0,34,75.27Zm32.14,5.58a3.51,3.51,0,0,0,3-1.4,6.68,6.68,0,0,0,1-4,6.6,6.6,0,0,0-1-4,3.9,3.9,0,0,0-6,0,6.67,6.67,0,0,0-1,4,6.68,6.68,0,0,0,1,4A3.51,3.51,0,0,0,66.18,80.85Zm0-2.09a1.07,1.07,0,0,1-1-.78,10.4,10.4,0,0,1,0-5.12,1.08,1.08,0,0,1,2.07,0,7.43,7.43,0,0,1,.31,2.55A7.46,7.46,0,0,1,67.22,78,1.08,1.08,0,0,1,66.18,78.76Zm6.54,2a1.42,1.42,0,0,0,1.44-1.45,1.41,1.41,0,0,0-.41-1,1.49,1.49,0,0,0-2.07,0,1.45,1.45,0,0,0-.41,1,1.43,1.43,0,0,0,.41,1A1.4,1.4,0,0,0,72.72,80.8Zm6.54,0a3.51,3.51,0,0,0,3-1.4,6.68,6.68,0,0,0,1-4,6.67,6.67,0,0,0-1-4,3.91,3.91,0,0,0-6,0,6.67,6.67,0,0,0-1,4,6.68,6.68,0,0,0,1,4A3.51,3.51,0,0,0,79.26,80.85Zm0-2.09a1.07,1.07,0,0,1-1-.78,10.4,10.4,0,0,1,0-5.12,1.08,1.08,0,0,1,2.07,0,7.43,7.43,0,0,1,.31,2.55A7.46,7.46,0,0,1,80.3,78,1.08,1.08,0,0,1,79.26,78.76Zm11.79-.24H88l2.13-2.17a7,7,0,0,0,1.25-1.69A3.82,3.82,0,0,0,91.79,73a2.81,2.81,0,0,0-.46-1.57,3,3,0,0,0-1.3-1,4.91,4.91,0,0,0-2-.37,5.83,5.83,0,0,0-1.73.27,5.76,5.76,0,0,0-1.58.75,1,1,0,0,0-.37.39,1.21,1.21,0,0,0-.1.54,1.33,1.33,0,0,0,.26.81.77.77,0,0,0,.63.33.86.86,0,0,0,.28,0,2.56,2.56,0,0,0,.31-.14l.23-.13.3-.15a7.87,7.87,0,0,1,.85-.37,2.53,2.53,0,0,1,.8-.13,1.17,1.17,0,0,1,.83.27,1,1,0,0,1,.3.78,2.93,2.93,0,0,1-1,1.91L84.92,78.4a1.64,1.64,0,0,0-.51,1.17,1.12,1.12,0,0,0,.31.82,1.13,1.13,0,0,0,.86.32h5.47a1.49,1.49,0,0,0,1-.27,1,1,0,0,0,.33-.84,1,1,0,0,0-.33-.81A1.49,1.49,0,0,0,91.05,78.52Z"/></svg>