<svg id="Layer_1" data-name="Layer 1" xmlns="http://www.w3.org/2000/svg" viewBox="0 0 200 150"><title>l1_3_1</title><path d="M195.51,112.34A17.5,17.5,0,1,1,166,99.68L155,83.41a17.51,17.51,0,0,1-4.61.63,17.28,17.28,0,0,1-4.9-.71L134.27,100h0a17.55,17.55,0,1,1-5.83-3.86L139.23,80a17.46,17.46,0,0,1-2.1-24.89l-20.64-13.7a17.48,17.48,0,0,1-28.87,0v0L66.15,55.72a17.47,17.47,0,0,1-2.74,24.59L74,96.07a17.33,17.33,0,0,1,6.13-1.13,17.55,17.55,0,1,1-12.06,4.85l-11-16.28a17.13,17.13,0,0,1-9.52-.07L36.37,100.08h0a17.6,17.6,0,1,1-5.84-3.86L41.34,80.13a17.5,17.5,0,0,1,19.29-29L84.87,34.78a17.07,17.07,0,0,1-.31-3.22,17.5,17.5,0,0,1,35,0,17.8,17.8,0,0,1-.31,3.2q11.82,8,23.65,16A17.49,17.49,0,0,1,161.31,80.2L171.89,96A17.32,17.32,0,0,1,178,94.84,17.5,17.5,0,0,1,195.51,112.34ZM111.78,64.66h-6.3v-6.3a3,3,0,1,0-5.9,0v6.3h-6.3a2.9,2.9,0,0,0-3,3,3,3,0,0,0,.85,2.13,2.83,2.83,0,0,0,2.1.87h6.3v6.25a2.9,2.9,0,0,0,3,3,2.8,2.8,0,0,0,2.12-.85,2.91,2.91,0,0,0,.83-2.1V70.61h6.3a2.83,2.83,0,0,0,2.1-.87,3,3,0,0,0,.85-2.13,2.9,2.9,0,0,0-3-3ZM97.07,33.83h-.44V26.61a1.7,1.7,0,0,0-.54-1.34,1.88,1.88,0,0,0-1.3-.48,2,2,0,0,0-.89.21,1.9,1.9,0,0,0-.71.61l-5.72,8.16A2.29,2.29,0,0,0,87,35.09a1.52,1.52,0,0,0,.42,1.1,1.48,1.48,0,0,0,1.14.44h4.46v.68a1.65,1.65,0,0,0,1.78,1.82,1.83,1.83,0,0,0,1.3-.46,1.72,1.72,0,0,0,.5-1.36v-.68h.44c1.16,0,1.74-.47,1.74-1.42S98.23,33.83,97.07,33.83Zm-6.42,0,2.4-3.46v3.46Zm10.84,5.3a1.82,1.82,0,0,0,1.37-.56,1.87,1.87,0,0,0,.55-1.38,1.9,1.9,0,0,0-.55-1.38,1.85,1.85,0,0,0-1.37-.56,2,2,0,0,0-1.39,3.32A1.85,1.85,0,0,0,101.49,39.13Zm8.22-14.4a5.19,5.19,0,0,0-2.54.62,4.48,4.48,0,0,0-1.75,1.73,5.35,5.35,0,0,0-.08,4.88,4.13,4.13,0,0,0,1.51,1.64,4,4,0,0,0,2.16.59,3.8,3.8,0,0,0,1.69-.37,3.13,3.13,0,0,0,1.23-1,5.32,5.32,0,0,1-.75,2.61,1.91,1.91,0,0,1-1.65.93,2.58,2.58,0,0,1-.92-.16,9.48,9.48,0,0,1-1.1-.48l-.44-.22c-.25-.13-.45-.23-.6-.29a1.31,1.31,0,0,0-.5-.09,1.08,1.08,0,0,0-.85.43,1.64,1.64,0,0,0-.35,1.05,1.45,1.45,0,0,0,.15.7,1.63,1.63,0,0,0,.49.54,6.31,6.31,0,0,0,2,1,7.75,7.75,0,0,0,2.29.36,5.42,5.42,0,0,0,3.11-.9,5.79,5.79,0,0,0,2.06-2.57,9.61,9.61,0,0,0,.73-3.91,8,8,0,0,0-1.54-5.24A5.39,5.39,0,0,0,109.71,24.73Zm.22,6.62a1.58,1.58,0,0,1-1.25-.51,2.34,2.34,0,0,1,0-2.77,1.73,1.73,0,0,1,2.48,0,2.23,2.23,0,0,1,0,2.75A1.59,1.59,0,0,1,109.93,31.35ZM58.68,96.4h-5v-5A2.25,2.25,0,0,0,53,89.68,2.28,2.28,0,0,0,51.28,89a2.32,2.32,0,0,0-1.68.68,2.28,2.28,0,0,0-.68,1.68v5h-5a2.32,2.32,0,0,0-1.68.68,2.28,2.28,0,0,0-.68,1.68,2.36,2.36,0,0,0,.68,1.7,2.26,2.26,0,0,0,1.68.7h5v5a2.28,2.28,0,0,0,.68,1.68,2.32,2.32,0,0,0,1.68.68,2.27,2.27,0,0,0,1.7-.68,2.31,2.31,0,0,0,.66-1.68v-5h5a2.23,2.23,0,0,0,1.68-.7,2.32,2.32,0,0,0,.68-1.7,2.25,2.25,0,0,0-.68-1.68A2.28,2.28,0,0,0,58.68,96.4ZM48.5,68.92h-.44V61.7a1.7,1.7,0,0,0-.54-1.34,1.88,1.88,0,0,0-1.3-.48,2,2,0,0,0-.89.21,1.89,1.89,0,0,0-.71.61L38.9,68.86a2.25,2.25,0,0,0-.44,1.32A1.47,1.47,0,0,0,40,71.72h4.46v.68a1.86,1.86,0,0,0,3.08,1.36,1.74,1.74,0,0,0,.5-1.36v-.68h.44c1.16,0,1.74-.47,1.74-1.42S49.66,68.92,48.5,68.92Zm-6.42,0,2.4-3.46v3.46Zm10.84,5.3a1.84,1.84,0,0,0,1.37-.56,2,2,0,0,0,0-2.76,1.84,1.84,0,0,0-1.37-.56,1.88,1.88,0,0,0-1.39.56,2,2,0,0,0,0,2.76A1.88,1.88,0,0,0,52.92,74.22Zm8.72.06a4.67,4.67,0,0,0,4-1.86A8.92,8.92,0,0,0,67,67a8.82,8.82,0,0,0-1.39-5.36,5.22,5.22,0,0,0-8,0A8.9,8.9,0,0,0,56.26,67a8.92,8.92,0,0,0,1.38,5.38A4.68,4.68,0,0,0,61.64,74.28Zm0-2.78a1.44,1.44,0,0,1-1.38-1A9.93,9.93,0,0,1,59.84,67a9.86,9.86,0,0,1,.42-3.41,1.44,1.44,0,0,1,2.76,0,9.88,9.88,0,0,1,.42,3.4A9.93,9.93,0,0,1,63,70.46,1.44,1.44,0,0,1,61.64,71.5Zm-44,41.78a3.3,3.3,0,0,0,1.59-1.21,3.35,3.35,0,0,0,.57-1.93,3.51,3.51,0,0,0-.61-2,3.93,3.93,0,0,0-1.74-1.36,6.68,6.68,0,0,0-2.61-.48,8,8,0,0,0-2.37.36,6.53,6.53,0,0,0-2,1,1.49,1.49,0,0,0-.48.54,1.46,1.46,0,0,0-.14.7,1.63,1.63,0,0,0,.34,1,1,1,0,0,0,.84.43,1.31,1.31,0,0,0,.5-.09c.15-.06.34-.16.6-.29l.42-.2a10.48,10.48,0,0,1,1.09-.48,3,3,0,0,1,1-.18,1.7,1.7,0,0,1,1.22.41,1.49,1.49,0,0,1,.44,1.15,1.14,1.14,0,0,1-.5,1,3.12,3.12,0,0,1-1.6.32h-.88a1.13,1.13,0,0,0-.94.42,1.52,1.52,0,0,0-.34,1,1.53,1.53,0,0,0,.34,1,1.13,1.13,0,0,0,.94.42h1.24a3,3,0,0,1,1.64.34,1.26,1.26,0,0,1,.5,1.12,1.38,1.38,0,0,1-.49,1.2,2.8,2.8,0,0,1-1.61.36,3.71,3.71,0,0,1-1.15-.17,10.09,10.09,0,0,1-1.15-.49l-.25-.11-.19-.09c-.26-.14-.46-.23-.6-.29a1.35,1.35,0,0,0-.5-.09,1,1,0,0,0-.84.43,1.6,1.6,0,0,0-.34,1,1.67,1.67,0,0,0,.14.69,1.59,1.59,0,0,0,.48.55,6.6,6.6,0,0,0,2.08,1,9,9,0,0,0,2.5.35,7.65,7.65,0,0,0,2.83-.49,4.21,4.21,0,0,0,1.87-1.39,3.81,3.81,0,0,0,0-4.3A3.4,3.4,0,0,0,17.68,113.28Zm6.18,7.38a1.87,1.87,0,0,0,1.37-.56,1.9,1.9,0,0,0,.55-1.38,1.87,1.87,0,0,0-.55-1.38,2,2,0,0,0-2.76,0,1.87,1.87,0,0,0-.55,1.38,1.9,1.9,0,0,0,.55,1.38A1.87,1.87,0,0,0,23.86,120.66Zm9.7-9.34a5,5,0,0,0-2,.36v-2.46H35.9c1.16,0,1.74-.47,1.74-1.4s-.58-1.38-1.74-1.38H29.7a1.67,1.67,0,0,0-1.26.44,1.7,1.7,0,0,0-.44,1.28v5.42a1.08,1.08,0,0,0,.38.87,1.37,1.37,0,0,0,.94.33,2,2,0,0,0,.9-.22,5.9,5.9,0,0,1,1.15-.36,5.19,5.19,0,0,1,1.09-.1,2.25,2.25,0,0,1,1.56.5,1.79,1.79,0,0,1,.56,1.4,1.73,1.73,0,0,1-.54,1.41,2.57,2.57,0,0,1-1.66.45,3.31,3.31,0,0,1-1.11-.18,10.83,10.83,0,0,1-1.13-.48l-.4-.2a5.39,5.39,0,0,0-.6-.3,1.25,1.25,0,0,0-.5-.08,1,1,0,0,0-.84.43,1.6,1.6,0,0,0-.34,1,1.52,1.52,0,0,0,.15.69,1.79,1.79,0,0,0,.47.55,6.64,6.64,0,0,0,2.05,1,8.31,8.31,0,0,0,2.43.36,6.5,6.5,0,0,0,2.86-.6,4.6,4.6,0,0,0,1.92-1.7,5.14,5.14,0,0,0,.11-4.91,4.05,4.05,0,0,0-1.58-1.6A4.65,4.65,0,0,0,33.56,111.32Zm37.71,9.4a4.67,4.67,0,0,0,4-1.86,8.94,8.94,0,0,0,1.38-5.38,8.8,8.8,0,0,0-1.39-5.36,5.22,5.22,0,0,0-8,0,8.88,8.88,0,0,0-1.38,5.36,8.94,8.94,0,0,0,1.38,5.38A4.67,4.67,0,0,0,71.27,120.72Zm0-2.78a1.44,1.44,0,0,1-1.38-1,10,10,0,0,1-.42-3.42,9.83,9.83,0,0,1,.42-3.41,1.44,1.44,0,0,1,2.76,0,9.84,9.84,0,0,1,.42,3.4,10,10,0,0,1-.42,3.42A1.44,1.44,0,0,1,71.27,117.94ZM80,120.66a1.85,1.85,0,0,0,1.37-.56,1.9,1.9,0,0,0,.55-1.38,1.87,1.87,0,0,0-.55-1.38,1.82,1.82,0,0,0-1.37-.56,1.85,1.85,0,0,0-1.39.56,1.87,1.87,0,0,0-.55,1.38A1.9,1.9,0,0,0,80,120.66Zm9.7-9.34a5,5,0,0,0-2,.36v-2.46H92c1.16,0,1.74-.47,1.74-1.4s-.58-1.38-1.74-1.38h-6.2a1.67,1.67,0,0,0-1.26.44,1.74,1.74,0,0,0-.44,1.28v5.42a1.11,1.11,0,0,0,.38.87,1.38,1.38,0,0,0,.94.33,2,2,0,0,0,.9-.22,5.9,5.9,0,0,1,1.15-.36,5.25,5.25,0,0,1,1.09-.1,2.22,2.22,0,0,1,1.56.5,1.79,1.79,0,0,1,.56,1.4,1.73,1.73,0,0,1-.54,1.41,2.55,2.55,0,0,1-1.66.45,3.31,3.31,0,0,1-1.11-.18,10.83,10.83,0,0,1-1.13-.48l-.4-.2a5.39,5.39,0,0,0-.6-.3,1.22,1.22,0,0,0-.5-.08,1,1,0,0,0-.84.43,1.6,1.6,0,0,0-.34,1,1.52,1.52,0,0,0,.15.69,1.94,1.94,0,0,0,.47.55,6.75,6.75,0,0,0,2.05,1,8.31,8.31,0,0,0,2.43.36,6.5,6.5,0,0,0,2.86-.6,4.49,4.49,0,0,0,1.92-1.7,5.14,5.14,0,0,0,.11-4.91,4.05,4.05,0,0,0-1.58-1.6A4.6,4.6,0,0,0,89.69,111.32Zm67.89-15h-5v-5a2.28,2.28,0,0,0-.68-1.68,2.42,2.42,0,0,0-3.36,0,2.28,2.28,0,0,0-.68,1.68v5h-5a2.32,2.32,0,0,0-2.36,2.36,2.34,2.34,0,0,0,.68,1.7,2.26,2.26,0,0,0,1.68.7h5v5a2.32,2.32,0,0,0,.68,1.68,2.44,2.44,0,0,0,3.38,0,2.34,2.34,0,0,0,.66-1.68v-5h5a2.26,2.26,0,0,0,1.68-.7,2.38,2.38,0,0,0,.68-1.7,2.28,2.28,0,0,0-.68-1.68A2.25,2.25,0,0,0,157.58,96.3ZM142.1,74.18a4.67,4.67,0,0,0,4-1.86,8.92,8.92,0,0,0,1.38-5.38,8.82,8.82,0,0,0-1.39-5.36,5.22,5.22,0,0,0-8,0,8.9,8.9,0,0,0-1.38,5.36,8.92,8.92,0,0,0,1.38,5.38A4.67,4.67,0,0,0,142.1,74.18Zm0-2.78a1.44,1.44,0,0,1-1.38-1,9.93,9.93,0,0,1-.42-3.42,9.86,9.86,0,0,1,.42-3.41,1.44,1.44,0,0,1,2.76,0,9.84,9.84,0,0,1,.42,3.4,9.93,9.93,0,0,1-.42,3.42A1.44,1.44,0,0,1,142.1,71.4Zm8.72,2.72a1.94,1.94,0,1,0,0-3.88,1.94,1.94,0,1,0,0,3.88ZM159,59.72a5.19,5.19,0,0,0-2.54.62,4.41,4.41,0,0,0-1.75,1.73,5.35,5.35,0,0,0-.08,4.88,4.13,4.13,0,0,0,1.51,1.64,4.07,4.07,0,0,0,2.16.59,4,4,0,0,0,1.69-.37,3.22,3.22,0,0,0,1.23-1,5.32,5.32,0,0,1-.75,2.61,1.91,1.91,0,0,1-1.65.93,2.58,2.58,0,0,1-.92-.16c-.29-.11-.66-.27-1.1-.48l-.44-.22a5.1,5.1,0,0,0-.6-.29,1.31,1.31,0,0,0-.5-.09,1.05,1.05,0,0,0-.85.43,1.64,1.64,0,0,0-.35,1,1.48,1.48,0,0,0,.15.7,1.63,1.63,0,0,0,.49.54,6.31,6.31,0,0,0,2,1,7.75,7.75,0,0,0,2.29.36,5.42,5.42,0,0,0,3.11-.9,5.84,5.84,0,0,0,2.06-2.57,9.67,9.67,0,0,0,.73-3.91,7.93,7.93,0,0,0-1.54-5.24A5.36,5.36,0,0,0,159,59.72Zm.22,6.62a1.58,1.58,0,0,1-1.25-.51,2,2,0,0,1-.45-1.39,2,2,0,0,1,.46-1.38,1.57,1.57,0,0,1,1.24-.52,1.6,1.6,0,0,1,1.24.53,2,2,0,0,1,.48,1.37,2,2,0,0,1-.47,1.38A1.59,1.59,0,0,1,159.26,66.34ZM113,119.72a4.67,4.67,0,0,0,4-1.86,8.94,8.94,0,0,0,1.38-5.38,8.8,8.8,0,0,0-1.39-5.36,5.22,5.22,0,0,0-8,0,8.88,8.88,0,0,0-1.38,5.36,8.94,8.94,0,0,0,1.38,5.38A4.68,4.68,0,0,0,113,119.72Zm0-2.78a1.44,1.44,0,0,1-1.38-1,10,10,0,0,1-.42-3.42,9.83,9.83,0,0,1,.42-3.41,1.44,1.44,0,0,1,2.76,0,9.84,9.84,0,0,1,.42,3.4,10,10,0,0,1-.42,3.42A1.44,1.44,0,0,1,113,116.94Zm8.72,2.72a1.84,1.84,0,0,0,1.37-.56,1.9,1.9,0,0,0,.55-1.38,1.87,1.87,0,0,0-.55-1.38,1.8,1.8,0,0,0-1.37-.56,1.85,1.85,0,0,0-1.39.56,1.91,1.91,0,0,0-.55,1.38,1.94,1.94,0,0,0,.55,1.38A1.88,1.88,0,0,0,121.75,119.66Zm9.7-9.34a5,5,0,0,0-2,.36v-2.46h4.32c1.16,0,1.74-.47,1.74-1.4s-.58-1.38-1.74-1.38h-6.2a1.7,1.7,0,0,0-1.26.44,1.74,1.74,0,0,0-.44,1.28v5.42a1.11,1.11,0,0,0,.38.87,1.4,1.4,0,0,0,.94.33,2,2,0,0,0,.9-.22,6.11,6.11,0,0,1,1.15-.36,5.25,5.25,0,0,1,1.09-.1,2.22,2.22,0,0,1,1.56.5,1.75,1.75,0,0,1,.56,1.4,1.73,1.73,0,0,1-.54,1.41,2.55,2.55,0,0,1-1.66.45,3.31,3.31,0,0,1-1.11-.18,11.82,11.82,0,0,1-1.13-.48l-.4-.2a4.08,4.08,0,0,0-.6-.3,1.22,1.22,0,0,0-.5-.08,1,1,0,0,0-.84.43,1.65,1.65,0,0,0-.34,1,1.52,1.52,0,0,0,.15.69,1.94,1.94,0,0,0,.47.55,6.87,6.87,0,0,0,2.05,1,8.41,8.41,0,0,0,2.43.36,6.47,6.47,0,0,0,2.86-.6,4.49,4.49,0,0,0,1.92-1.7,4.69,4.69,0,0,0,.68-2.54,4.78,4.78,0,0,0-.57-2.37,4,4,0,0,0-1.58-1.6A4.6,4.6,0,0,0,131.45,110.32Zm37.72,9.4a4.68,4.68,0,0,0,4-1.86,8.94,8.94,0,0,0,1.38-5.38,8.87,8.87,0,0,0-1.39-5.36,5.22,5.22,0,0,0-8,0,8.88,8.88,0,0,0-1.38,5.36,8.94,8.94,0,0,0,1.38,5.38A4.67,4.67,0,0,0,169.17,119.72Zm0-2.78a1.44,1.44,0,0,1-1.38-1,10,10,0,0,1-.42-3.42,9.83,9.83,0,0,1,.42-3.41,1.44,1.44,0,0,1,2.76,0,9.84,9.84,0,0,1,.42,3.4,10,10,0,0,1-.42,3.42A1.44,1.44,0,0,1,169.17,116.94Zm8.72,2.72a1.87,1.87,0,0,0,1.37-.56,1.94,1.94,0,0,0,.55-1.38,1.91,1.91,0,0,0-.55-1.38,2,2,0,0,0-2.76,0,1.87,1.87,0,0,0-.55,1.38,1.9,1.9,0,0,0,.55,1.38A1.87,1.87,0,0,0,177.89,119.66Zm13-5.3h-.44v-7.22a1.69,1.69,0,0,0-.54-1.34,1.9,1.9,0,0,0-1.3-.48,2,2,0,0,0-.89.21,1.75,1.75,0,0,0-.71.61l-5.72,8.16a2.18,2.18,0,0,0-.44,1.32,1.54,1.54,0,0,0,.42,1.1,1.51,1.51,0,0,0,1.14.44h4.46v.68a1.77,1.77,0,0,0,.49,1.36,1.82,1.82,0,0,0,1.29.46,1.89,1.89,0,0,0,1.3-.46,1.77,1.77,0,0,0,.5-1.36v-.68h.44c1.16,0,1.74-.48,1.74-1.42S192.07,114.36,190.91,114.36Zm-6.42,0,2.4-3.46v3.46Z"/></svg>