<svg id="Layer_1" data-name="Layer 1" xmlns="http://www.w3.org/2000/svg" viewBox="0 0 100 100"><title>l1_3_1</title><path d="M95.57,72.9A17.5,17.5,0,1,1,66,60.24L55.05,44a17.57,17.57,0,0,1-4.61.63,17.3,17.3,0,0,1-4.91-.71L34.32,60.54h0a17.64,17.64,0,1,1-5.84-3.85l10.8-16.09a17.52,17.52,0,1,1,22.08.17L71.94,56.52A17.47,17.47,0,0,1,95.57,72.9ZM57.63,58.85h-5v-5a2.36,2.36,0,1,0-4.72,0v5h-5a2.32,2.32,0,0,0-2.36,2.36,2.36,2.36,0,0,0,.68,1.7,2.23,2.23,0,0,0,1.68.7h5v5a2.39,2.39,0,0,0,4.06,1.68,2.31,2.31,0,0,0,.66-1.68v-5h5a2.23,2.23,0,0,0,1.68-.7,2.36,2.36,0,0,0,.68-1.7,2.32,2.32,0,0,0-2.36-2.36ZM44.19,26.64a3,3,0,0,0,1.57-1.18,3.48,3.48,0,0,0,.57-2,3.3,3.3,0,0,0-1.39-2.81,6.2,6.2,0,0,0-3.79-1,6.25,6.25,0,0,0-3.78,1A3.31,3.31,0,0,0,36,23.46a3.41,3.41,0,0,0,.56,1.95,3.38,3.38,0,0,0,1.6,1.23,3.32,3.32,0,0,0-1.88,1.19A3.52,3.52,0,0,0,35.59,30a3.45,3.45,0,0,0,1.49,3,6.9,6.9,0,0,0,4.07,1.07A6.87,6.87,0,0,0,45.22,33a3.52,3.52,0,0,0-1-6.35Zm-3,4.64c-1.45,0-2.18-.52-2.18-1.56s.73-1.56,2.18-1.56,2.18.52,2.18,1.56S42.61,31.28,41.15,31.28Zm0-8.88a2.15,2.15,0,0,1,1.34.35,1.33,1.33,0,0,1,.44,1.13A1.37,1.37,0,0,1,42.49,25a2.67,2.67,0,0,1-2.68,0,1.4,1.4,0,0,1-.44-1.14,1.36,1.36,0,0,1,.44-1.13A2.17,2.17,0,0,1,41.15,22.4ZM49.87,34a1.84,1.84,0,0,0,1.37-.56,2,2,0,0,0,0-2.76,1.84,1.84,0,0,0-1.37-.56,1.88,1.88,0,0,0-1.39.56,2,2,0,0,0,0,2.76A1.88,1.88,0,0,0,49.87,34Zm11.76-7.38a3,3,0,0,0,1.57-1.18,3.48,3.48,0,0,0,.57-2,3.3,3.3,0,0,0-1.39-2.81,6.2,6.2,0,0,0-3.79-1,6.25,6.25,0,0,0-3.78,1,3.31,3.31,0,0,0-1.4,2.81A3.41,3.41,0,0,0,54,25.41a3.38,3.38,0,0,0,1.6,1.23,3.32,3.32,0,0,0-1.88,1.19A3.52,3.52,0,0,0,53,30a3.45,3.45,0,0,0,1.49,3,6.9,6.9,0,0,0,4.07,1.07A6.87,6.87,0,0,0,62.66,33a3.43,3.43,0,0,0,1.49-3,3.52,3.52,0,0,0-.65-2.15A3.44,3.44,0,0,0,61.63,26.64Zm-3,4.64c-1.45,0-2.18-.52-2.18-1.56s.73-1.56,2.18-1.56,2.18.52,2.18,1.56S60.05,31.28,58.59,31.28Zm0-8.88a2.15,2.15,0,0,1,1.34.35,1.36,1.36,0,0,1,.44,1.13A1.4,1.4,0,0,1,59.93,25a2.67,2.67,0,0,1-2.68,0,1.4,1.4,0,0,1-.44-1.14,1.36,1.36,0,0,1,.44-1.13A2.17,2.17,0,0,1,58.59,22.4ZM16.13,72.73a3.06,3.06,0,0,0,1.57-1.18,3.48,3.48,0,0,0,.57-2,3.31,3.31,0,0,0-1.39-2.81,6.22,6.22,0,0,0-3.79-1,6.21,6.21,0,0,0-3.78,1,3.27,3.27,0,0,0-1.4,2.81,3.38,3.38,0,0,0,.56,2,3.28,3.28,0,0,0,1.6,1.23,3.29,3.29,0,0,0-1.88,1.19,3.52,3.52,0,0,0-.66,2.19,3.45,3.45,0,0,0,1.49,3,6.87,6.87,0,0,0,4.07,1.07,6.9,6.9,0,0,0,4.07-1.07A3.77,3.77,0,0,0,18,74,3.51,3.51,0,0,0,16.13,72.73Zm-3,4.64c-1.46,0-2.18-.52-2.18-1.56s.72-1.56,2.18-1.56,2.18.52,2.18,1.56S14.54,77.37,13.09,77.37Zm0-8.88a2.1,2.1,0,0,1,1.34.35A1.36,1.36,0,0,1,14.87,70a1.4,1.4,0,0,1-.44,1.14,2.1,2.1,0,0,1-1.34.36,2.08,2.08,0,0,1-1.34-.36A1.37,1.37,0,0,1,11.31,70a1.33,1.33,0,0,1,.44-1.13A2.08,2.08,0,0,1,13.09,68.49Zm8.72,11.62a1.87,1.87,0,0,0,1.37-.56,1.94,1.94,0,0,0,.55-1.38,1.91,1.91,0,0,0-.55-1.38,2,2,0,0,0-2.76,0,1.87,1.87,0,0,0-.55,1.38,1.9,1.9,0,0,0,.55,1.38A1.87,1.87,0,0,0,21.81,80.11Zm9.7-9.34a5,5,0,0,0-2,.36V68.67h4.32c1.16,0,1.74-.47,1.74-1.4s-.58-1.38-1.74-1.38h-6.2a1.67,1.67,0,0,0-1.26.44A1.7,1.7,0,0,0,26,67.61V73a1.08,1.08,0,0,0,.38.87,1.37,1.37,0,0,0,.94.33,2,2,0,0,0,.9-.22,5.9,5.9,0,0,1,1.15-.36,5.19,5.19,0,0,1,1.09-.1,2.25,2.25,0,0,1,1.56.5,1.79,1.79,0,0,1,.56,1.4A1.73,1.73,0,0,1,32,76.86a2.57,2.57,0,0,1-1.66.45,3.31,3.31,0,0,1-1.11-.18,10.83,10.83,0,0,1-1.13-.48l-.4-.2a5.39,5.39,0,0,0-.6-.3,1.25,1.25,0,0,0-.5-.08,1,1,0,0,0-.84.43,1.6,1.6,0,0,0-.34,1,1.52,1.52,0,0,0,.15.69,1.79,1.79,0,0,0,.47.55,6.64,6.64,0,0,0,2,1,8.31,8.31,0,0,0,2.43.36,6.5,6.5,0,0,0,2.86-.6,4.6,4.6,0,0,0,1.92-1.7,5.14,5.14,0,0,0,.11-4.91,4.05,4.05,0,0,0-1.58-1.6A4.65,4.65,0,0,0,31.51,70.77Zm37.71,10.4a4.67,4.67,0,0,0,4-1.86,8.94,8.94,0,0,0,1.38-5.38,8.8,8.8,0,0,0-1.39-5.36,5.22,5.22,0,0,0-8,0,8.88,8.88,0,0,0-1.38,5.36,8.94,8.94,0,0,0,1.38,5.38A4.67,4.67,0,0,0,69.22,81.17Zm0-2.78a1.44,1.44,0,0,1-1.38-1,10,10,0,0,1-.42-3.42,9.83,9.83,0,0,1,.42-3.41,1.44,1.44,0,0,1,2.76,0,9.84,9.84,0,0,1,.42,3.4,10,10,0,0,1-.42,3.42A1.44,1.44,0,0,1,69.22,78.39Zm8.72,2.72a1.85,1.85,0,0,0,1.37-.56,1.9,1.9,0,0,0,.55-1.38,1.87,1.87,0,0,0-.55-1.38,1.82,1.82,0,0,0-1.37-.56,1.85,1.85,0,0,0-1.39.56A1.87,1.87,0,0,0,76,79.17a1.9,1.9,0,0,0,1.94,1.94ZM89.2,73.73a3.3,3.3,0,0,0,1.59-1.21,3.35,3.35,0,0,0,.57-1.93,3.51,3.51,0,0,0-.61-2A3.93,3.93,0,0,0,89,67.19a6.61,6.61,0,0,0-2.61-.48,8,8,0,0,0-2.37.36,6.53,6.53,0,0,0-2,1,1.49,1.49,0,0,0-.48.54,1.58,1.58,0,0,0-.14.7,1.63,1.63,0,0,0,.34,1,1,1,0,0,0,.84.43,1.31,1.31,0,0,0,.5-.09c.15-.06.34-.16.6-.29l.42-.2a10.48,10.48,0,0,1,1.09-.48,3,3,0,0,1,1-.18,1.7,1.7,0,0,1,1.22.41,1.49,1.49,0,0,1,.44,1.15,1.14,1.14,0,0,1-.5,1,3.1,3.1,0,0,1-1.6.32H84.9a1.13,1.13,0,0,0-.94.42,1.52,1.52,0,0,0-.34,1,1.53,1.53,0,0,0,.34,1,1.13,1.13,0,0,0,.94.42h1.24a3,3,0,0,1,1.64.34,1.26,1.26,0,0,1,.5,1.12,1.38,1.38,0,0,1-.49,1.2,2.77,2.77,0,0,1-1.61.36A3.71,3.71,0,0,1,85,78.14a10.92,10.92,0,0,1-1.15-.49l-.25-.11-.19-.09c-.26-.14-.46-.23-.6-.29a1.35,1.35,0,0,0-.5-.09,1,1,0,0,0-.84.43,1.6,1.6,0,0,0-.34,1,1.67,1.67,0,0,0,.14.69,1.59,1.59,0,0,0,.48.55,6.6,6.6,0,0,0,2.08,1,9,9,0,0,0,2.5.35,7.65,7.65,0,0,0,2.83-.49,4.21,4.21,0,0,0,1.87-1.39,3.81,3.81,0,0,0,0-4.3A3.4,3.4,0,0,0,89.2,73.73Z"/></svg>