<svg id="Layer_1" data-name="Layer 1" xmlns="http://www.w3.org/2000/svg" viewBox="0 0 100 100"><title>l1_3_1</title><path d="M94.94,72A17.5,17.5,0,1,1,65.38,59.29L54.42,43a17.51,17.51,0,0,1-4.61.64,17.3,17.3,0,0,1-4.91-.72L33.69,59.59h0a17.6,17.6,0,1,1-5.84-3.86L38.66,39.64a17.5,17.5,0,1,1,22.07.18L71.31,55.58A17.45,17.45,0,0,1,94.94,72ZM57,57.91H52v-5a2.37,2.37,0,1,0-4.73,0v5h-5a2.31,2.31,0,0,0-2.35,2.36,2.37,2.37,0,0,0,.67,1.7,2.3,2.3,0,0,0,1.68.7h5v5a2.4,2.4,0,0,0,4.07,1.68A2.38,2.38,0,0,0,52,67.67v-5h5a2.26,2.26,0,0,0,1.67-.7,2.34,2.34,0,0,0,.68-1.7A2.32,2.32,0,0,0,57,57.91ZM41.39,29.77H40.16V22.66a1.26,1.26,0,0,0-1.34-1.34,2.53,2.53,0,0,0-1.24.38l-2.4,1.39a1,1,0,0,0-.53.93,1.28,1.28,0,0,0,.3.82.92.92,0,0,0,.72.37,1,1,0,0,0,.53-.15l1.2-.71v5.42H36.18a1.5,1.5,0,0,0-1,.27,1,1,0,0,0-.31.81c0,.74.43,1.11,1.3,1.11h5.21c.87,0,1.3-.37,1.3-1.11a1,1,0,0,0-.31-.81A1.5,1.5,0,0,0,41.39,29.77Zm9-1.7H50.1V22.66a1.28,1.28,0,0,0-.4-1,1.43,1.43,0,0,0-1-.36,1.47,1.47,0,0,0-.67.16,1.37,1.37,0,0,0-.53.46L43.23,28a1.68,1.68,0,0,0-.33,1,1.14,1.14,0,0,0,.32.82,1.11,1.11,0,0,0,.85.33h3.35v.51a1.35,1.35,0,0,0,.36,1,1.52,1.52,0,0,0,1.94,0,1.32,1.32,0,0,0,.38-1v-.51h.33c.87,0,1.31-.35,1.31-1.06S51.3,28.07,50.43,28.07Zm-4.81,0,1.8-2.59v2.59Zm8.13,4a1.36,1.36,0,0,0,1-.42,1.42,1.42,0,0,0,.42-1,1.4,1.4,0,0,0-.42-1,1.36,1.36,0,0,0-1-.42,1.42,1.42,0,0,0-1.46,1.45,1.45,1.45,0,0,0,.41,1A1.42,1.42,0,0,0,53.75,32.05Zm8.44-5.54a2.38,2.38,0,0,0,1.19-.91,2.43,2.43,0,0,0,.43-1.44,2.59,2.59,0,0,0-.46-1.53,2.92,2.92,0,0,0-1.3-1,5,5,0,0,0-2-.36,6.05,6.05,0,0,0-1.78.27,5,5,0,0,0-1.52.75A1.21,1.21,0,0,0,56.58,24a.77.77,0,0,0,.63.33,1.06,1.06,0,0,0,.37-.07L58,24l.31-.15a7.65,7.65,0,0,1,.82-.36,2.22,2.22,0,0,1,.79-.13,1.31,1.31,0,0,1,.91.3,1.15,1.15,0,0,1,.33.87.84.84,0,0,1-.38.76,2.28,2.28,0,0,1-1.19.24H59a.86.86,0,0,0-.71.32,1.21,1.21,0,0,0,0,1.5.85.85,0,0,0,.71.31h.92a2.27,2.27,0,0,1,1.24.26.94.94,0,0,1,.37.84,1,1,0,0,1-.37.9,2.08,2.08,0,0,1-1.21.27,2.93,2.93,0,0,1-.86-.13,7.94,7.94,0,0,1-.86-.37L58,29.37l-.14-.07-.45-.22a1.06,1.06,0,0,0-.37-.06.78.78,0,0,0-.64.32,1.22,1.22,0,0,0-.25.79,1.13,1.13,0,0,0,.11.51,1.07,1.07,0,0,0,.36.42,4.53,4.53,0,0,0,1.56.75,6.46,6.46,0,0,0,1.87.27,5.7,5.7,0,0,0,2.12-.37,3.15,3.15,0,0,0,1.4-1,2.62,2.62,0,0,0,.5-1.59,2.71,2.71,0,0,0-.5-1.64A2.58,2.58,0,0,0,62.19,26.51ZM13.31,75.85H12.08V68.74a1.31,1.31,0,0,0-.36-1,1.34,1.34,0,0,0-1-.36,2.54,2.54,0,0,0-1.25.37l-2.4,1.4a1,1,0,0,0-.52.93,1.28,1.28,0,0,0,.3.82.91.91,0,0,0,.72.36,1,1,0,0,0,.52-.15l1.2-.7v5.41H8.11a1.5,1.5,0,0,0-1,.27,1,1,0,0,0-.32.81c0,.74.44,1.11,1.31,1.11h5.2c.87,0,1.31-.37,1.31-1.11a1,1,0,0,0-.32-.81A1.5,1.5,0,0,0,13.31,75.85Zm8.61,0h-3L21,73.68A6.78,6.78,0,0,0,22.29,72a3.69,3.69,0,0,0,.37-1.67,2.73,2.73,0,0,0-.46-1.57,3,3,0,0,0-1.3-1A4.91,4.91,0,0,0,19,67.33a6.09,6.09,0,0,0-3.31,1,1,1,0,0,0-.37.39,1.37,1.37,0,0,0-.1.54,1.33,1.33,0,0,0,.26.81.77.77,0,0,0,.63.33.86.86,0,0,0,.28,0,2,2,0,0,0,.31-.14l.23-.13.3-.15a8.83,8.83,0,0,1,.85-.37,2.58,2.58,0,0,1,.8-.13,1.21,1.21,0,0,1,.84.27,1,1,0,0,1,.29.78,2.93,2.93,0,0,1-1,1.91l-3.18,3.31a1.64,1.64,0,0,0-.51,1.17,1.12,1.12,0,0,0,.31.82,1.13,1.13,0,0,0,.86.32h5.47a1.54,1.54,0,0,0,1-.27,1,1,0,0,0,.32-.84,1,1,0,0,0-.32-.82A1.6,1.6,0,0,0,21.92,75.85Zm3.77,2.28a1.4,1.4,0,0,0,1-.42,1.43,1.43,0,0,0,.41-1,1.45,1.45,0,0,0-.41-1,1.4,1.4,0,0,0-1-.42,1.42,1.42,0,0,0-1.05.42,1.45,1.45,0,0,0-.41,1,1.42,1.42,0,0,0,1.46,1.45Zm9.72-2.28H34.18V68.74a1.27,1.27,0,0,0-.37-1,1.34,1.34,0,0,0-1-.36,2.51,2.51,0,0,0-1.24.37l-2.4,1.4a1,1,0,0,0-.53.93,1.28,1.28,0,0,0,.3.82.91.91,0,0,0,.72.36,1,1,0,0,0,.53-.15l1.2-.7v5.41H30.2a1.5,1.5,0,0,0-1,.27,1,1,0,0,0-.31.81c0,.74.43,1.11,1.3,1.11h5.21c.87,0,1.3-.37,1.3-1.11a1,1,0,0,0-.31-.81A1.5,1.5,0,0,0,35.41,75.85Zm36.88.27h-4l2.84-2.9A8.86,8.86,0,0,0,72.78,71a5,5,0,0,0,.49-2.23,3.66,3.66,0,0,0-.61-2.09,3.92,3.92,0,0,0-1.73-1.4,6.52,6.52,0,0,0-2.6-.49,7.83,7.83,0,0,0-2.31.36,8,8,0,0,0-2.11,1,1.4,1.4,0,0,0-.49.52,1.85,1.85,0,0,0-.13.72,1.75,1.75,0,0,0,.34,1.07,1,1,0,0,0,.84.45,1.16,1.16,0,0,0,.38-.06,2.07,2.07,0,0,0,.41-.19l.31-.17.4-.2c.43-.21.81-.37,1.13-.49a3.38,3.38,0,0,1,1.07-.17,1.58,1.58,0,0,1,1.11.36,1.35,1.35,0,0,1,.39,1,3.88,3.88,0,0,1-1.32,2.54L64.11,76a2.22,2.22,0,0,0-.68,1.56,1.49,1.49,0,0,0,.42,1.09A1.51,1.51,0,0,0,65,79h7.3a2,2,0,0,0,1.31-.36A1.36,1.36,0,0,0,74,77.56a1.33,1.33,0,0,0-.43-1.09A2.05,2.05,0,0,0,72.29,76.12Zm5,3a1.82,1.82,0,0,0,1.37-.56,1.87,1.87,0,0,0,.55-1.38,1.9,1.9,0,0,0-.55-1.38,1.85,1.85,0,0,0-1.37-.56,1.88,1.88,0,0,0-1.39.56,1.94,1.94,0,0,0-.55,1.38,1.91,1.91,0,0,0,.55,1.38A1.85,1.85,0,0,0,77.31,79.16Zm12.44-3h-4l2.84-2.9A8.86,8.86,0,0,0,90.24,71a5,5,0,0,0,.49-2.23,3.66,3.66,0,0,0-.61-2.09,3.92,3.92,0,0,0-1.73-1.4,6.52,6.52,0,0,0-2.6-.49,7.83,7.83,0,0,0-2.31.36,8,8,0,0,0-2.11,1,1.4,1.4,0,0,0-.49.52,1.85,1.85,0,0,0-.13.72,1.75,1.75,0,0,0,.34,1.07,1,1,0,0,0,.84.45,1.16,1.16,0,0,0,.38-.06,2.07,2.07,0,0,0,.41-.19l.31-.17.4-.2c.43-.21.81-.37,1.13-.49a3.38,3.38,0,0,1,1.07-.17,1.58,1.58,0,0,1,1.11.36,1.35,1.35,0,0,1,.39,1,3.88,3.88,0,0,1-1.32,2.54L81.57,76a2.22,2.22,0,0,0-.68,1.56,1.49,1.49,0,0,0,.42,1.09,1.51,1.51,0,0,0,1.14.43h7.3a2,2,0,0,0,1.31-.36,1.36,1.36,0,0,0,.43-1.12,1.33,1.33,0,0,0-.43-1.09A2.05,2.05,0,0,0,89.75,76.12Z"/></svg>