<svg id="Layer_1" data-name="Layer 1" xmlns="http://www.w3.org/2000/svg" viewBox="0 0 100 100"><title>l1_3_1</title><path d="M95.57,72.9A17.5,17.5,0,1,1,66,60.24L55.05,44a17.57,17.57,0,0,1-4.61.63,17.3,17.3,0,0,1-4.91-.71L34.32,60.54h0a17.64,17.64,0,1,1-5.84-3.85l10.8-16.09a17.52,17.52,0,1,1,22.08.17L71.94,56.52A17.47,17.47,0,0,1,95.57,72.9ZM57.63,58.85h-5v-5a2.32,2.32,0,0,0-.68-1.68,2.42,2.42,0,0,0-3.36,0,2.32,2.32,0,0,0-.68,1.68v5h-5a2.28,2.28,0,0,0-1.68.68,2.32,2.32,0,0,0-.68,1.68,2.35,2.35,0,0,0,.68,1.7,2.23,2.23,0,0,0,1.68.7h5v5a2.28,2.28,0,0,0,.68,1.68,2.44,2.44,0,0,0,3.38,0,2.31,2.31,0,0,0,.66-1.68v-5h5a2.23,2.23,0,0,0,1.68-.7,2.35,2.35,0,0,0,.68-1.7,2.32,2.32,0,0,0-.68-1.68A2.28,2.28,0,0,0,57.63,58.85ZM42,30.71H40.78V23.6a1.27,1.27,0,0,0-.37-1,1.3,1.3,0,0,0-1-.36,2.54,2.54,0,0,0-1.25.37L35.8,24a1,1,0,0,0-.52.93,1.23,1.23,0,0,0,.3.81.89.89,0,0,0,.72.37,1,1,0,0,0,.52-.15l1.2-.7v5.41H36.81a1.5,1.5,0,0,0-1,.27,1,1,0,0,0-.32.81c0,.74.44,1.11,1.31,1.11H42c.87,0,1.31-.37,1.31-1.11A1,1,0,0,0,43,31,1.5,1.5,0,0,0,42,30.71ZM51.06,29h-.33V23.6a1.27,1.27,0,0,0-.41-1,1.4,1.4,0,0,0-1-.36,1.56,1.56,0,0,0-.67.15,1.46,1.46,0,0,0-.53.46L43.86,29a1.68,1.68,0,0,0-.33,1,1.16,1.16,0,0,0,.31.83,1.14,1.14,0,0,0,.86.33H48v.51a1.32,1.32,0,0,0,.37,1,1.35,1.35,0,0,0,1,.34,1.37,1.37,0,0,0,1-.34,1.32,1.32,0,0,0,.38-1v-.51h.33c.87,0,1.3-.36,1.3-1.07S51.93,29,51.06,29Zm-4.82,0,1.8-2.6V29Zm8.13,4a1.42,1.42,0,0,0,1.44-1.45,1.41,1.41,0,0,0-.41-1,1.49,1.49,0,0,0-2.07,0,1.45,1.45,0,0,0-.41,1,1.43,1.43,0,0,0,.41,1A1.39,1.39,0,0,0,54.37,33Zm8.45-5.53A2.48,2.48,0,0,0,64,26.55a2.55,2.55,0,0,0,.43-1.45A2.66,2.66,0,0,0,64,23.57a3,3,0,0,0-1.31-1,4.92,4.92,0,0,0-2-.36,6,6,0,0,0-1.78.27,4.91,4.91,0,0,0-1.52.75,1.22,1.22,0,0,0-.36.41,1.14,1.14,0,0,0-.11.52,1.25,1.25,0,0,0,.26.79.79.79,0,0,0,.63.32.87.87,0,0,0,.37-.07,3.92,3.92,0,0,0,.45-.21l.32-.15a8.57,8.57,0,0,1,.81-.36,2.3,2.3,0,0,1,.79-.14,1.28,1.28,0,0,1,.92.31,1.11,1.11,0,0,1,.33.86.85.85,0,0,1-.38.77,2.3,2.3,0,0,1-1.2.24h-.66a.84.84,0,0,0-.7.31,1.21,1.21,0,0,0,0,1.5.85.85,0,0,0,.7.32h.93a2.26,2.26,0,0,1,1.23.25.94.94,0,0,1,.38.84,1.06,1.06,0,0,1-.37.9,2.1,2.1,0,0,1-1.21.27,2.55,2.55,0,0,1-.86-.13,5.7,5.7,0,0,1-.86-.36l-.19-.09-.14-.06a4.36,4.36,0,0,0-.45-.22.92.92,0,0,0-.38-.07.79.79,0,0,0-.63.32,1.24,1.24,0,0,0-.25.79,1.21,1.21,0,0,0,.1.52,1.22,1.22,0,0,0,.36.41,4.93,4.93,0,0,0,1.56.76,6.88,6.88,0,0,0,1.88.26,5.54,5.54,0,0,0,2.12-.37,3.13,3.13,0,0,0,1.4-1,2.82,2.82,0,0,0,0-3.22A2.51,2.51,0,0,0,62.82,27.46ZM13.94,76.8H12.71V69.69a1.3,1.3,0,0,0-.37-1,1.32,1.32,0,0,0-1-.36,2.53,2.53,0,0,0-1.24.38l-2.4,1.39a1,1,0,0,0-.53.93,1.26,1.26,0,0,0,.3.82.89.89,0,0,0,.72.37,1,1,0,0,0,.53-.15l1.2-.71V76.8H8.73a1.5,1.5,0,0,0-1,.27,1,1,0,0,0-.31.81c0,.74.43,1.11,1.3,1.11h5.21c.87,0,1.3-.37,1.3-1.11a1,1,0,0,0-.31-.81A1.5,1.5,0,0,0,13.94,76.8Zm8.61,0h-3l2.13-2.18a7.3,7.3,0,0,0,1.26-1.68,3.9,3.9,0,0,0,.36-1.68,2.75,2.75,0,0,0-.45-1.56,2.9,2.9,0,0,0-1.3-1,4.74,4.74,0,0,0-2-.37,6.16,6.16,0,0,0-3.32,1,.93.93,0,0,0-.36.39,1.21,1.21,0,0,0-.1.54,1.27,1.27,0,0,0,.25.8.75.75,0,0,0,.63.34.93.93,0,0,0,.29-.05,1.59,1.59,0,0,0,.31-.14l.23-.13.3-.15a6.1,6.1,0,0,1,.85-.36,2.28,2.28,0,0,1,.8-.13,1.17,1.17,0,0,1,.83.27,1,1,0,0,1,.29.78,2.91,2.91,0,0,1-1,1.9l-3.18,3.32a1.64,1.64,0,0,0-.51,1.17A1.1,1.1,0,0,0,17.07,79h5.48a1.49,1.49,0,0,0,1-.27,1,1,0,0,0,.32-.84,1,1,0,0,0-.32-.82A1.55,1.55,0,0,0,22.55,76.8Zm3.76,2.28a1.38,1.38,0,0,0,1-.42,1.41,1.41,0,0,0,.41-1,1.42,1.42,0,0,0-1.44-1.45,1.4,1.4,0,0,0-1,.42,1.43,1.43,0,0,0-.41,1,1.45,1.45,0,0,0,.41,1A1.4,1.4,0,0,0,26.31,79.08ZM36,76.8H34.8V69.69a1.24,1.24,0,0,0-1.33-1.34,2.56,2.56,0,0,0-1.25.38l-2.4,1.39a1,1,0,0,0-.52.93,1.26,1.26,0,0,0,.3.82.89.89,0,0,0,.72.37,1,1,0,0,0,.52-.15l1.2-.71V76.8H30.83a1.5,1.5,0,0,0-1,.27,1,1,0,0,0-.32.81c0,.74.44,1.11,1.31,1.11H36c.87,0,1.31-.37,1.31-1.11a1,1,0,0,0-.32-.81A1.5,1.5,0,0,0,36,76.8Zm36.89.27h-4l2.84-2.9a9.49,9.49,0,0,0,1.67-2.25,5,5,0,0,0,.49-2.23,3.62,3.62,0,0,0-.61-2.09,3.9,3.9,0,0,0-1.73-1.4,6.38,6.38,0,0,0-2.6-.49,7.83,7.83,0,0,0-2.31.36,7.74,7.74,0,0,0-2.11,1,1.33,1.33,0,0,0-.49.52,1.66,1.66,0,0,0-.13.72,1.71,1.71,0,0,0,.34,1.07,1,1,0,0,0,.84.45,1.21,1.21,0,0,0,.38-.06,2.86,2.86,0,0,0,.41-.19l.31-.17.4-.2a8.23,8.23,0,0,1,1.13-.49,3.08,3.08,0,0,1,1.07-.17,1.58,1.58,0,0,1,1.11.36,1.34,1.34,0,0,1,.39,1A3.9,3.9,0,0,1,69,72.49l-4.24,4.42a2.18,2.18,0,0,0-.68,1.56,1.5,1.5,0,0,0,.42,1.09,1.55,1.55,0,0,0,1.14.43h7.3a2,2,0,0,0,1.31-.36,1.38,1.38,0,0,0,.43-1.12,1.3,1.3,0,0,0-.43-1.09A2,2,0,0,0,72.92,77.07Zm5,3a2,2,0,0,0,1.37-3.32,1.82,1.82,0,0,0-1.37-.56,1.85,1.85,0,0,0-1.39.56,1.94,1.94,0,0,0,1.39,3.32Zm12.44-3h-4l2.84-2.9a9.49,9.49,0,0,0,1.67-2.25,5,5,0,0,0,.49-2.23,3.62,3.62,0,0,0-.61-2.09A3.9,3.9,0,0,0,89,66.2a6.38,6.38,0,0,0-2.6-.49,7.83,7.83,0,0,0-2.31.36,7.74,7.74,0,0,0-2.11,1,1.33,1.33,0,0,0-.49.52,1.66,1.66,0,0,0-.13.72,1.71,1.71,0,0,0,.34,1.07,1,1,0,0,0,.84.45,1.21,1.21,0,0,0,.38-.06,2.86,2.86,0,0,0,.41-.19l.31-.17.4-.2a8.23,8.23,0,0,1,1.13-.49,3.08,3.08,0,0,1,1.07-.17,1.58,1.58,0,0,1,1.11.36,1.34,1.34,0,0,1,.39,1,3.9,3.9,0,0,1-1.32,2.54L82.2,76.91a2.18,2.18,0,0,0-.68,1.56,1.5,1.5,0,0,0,.42,1.09,1.55,1.55,0,0,0,1.14.43h7.3a2,2,0,0,0,1.31-.36,1.38,1.38,0,0,0,.43-1.12,1.3,1.3,0,0,0-.43-1.09A2,2,0,0,0,90.38,77.07Z"/></svg>