<svg id="Layer_1" data-name="Layer 1" xmlns="http://www.w3.org/2000/svg" viewBox="0 0 200 150"><title>l1_3_1</title><path d="M193,112.34A17.5,17.5,0,1,1,163.4,99.68l-11-16.27a17.51,17.51,0,0,1-4.61.63,17.3,17.3,0,0,1-4.91-.71L131.71,100h0a17.6,17.6,0,1,1-5.84-3.86L136.68,80a17.48,17.48,0,0,1-2.11-24.89l-20.64-13.7a17.48,17.48,0,0,1-28.87,0v0L63.59,55.72a17.47,17.47,0,0,1-2.74,24.59L71.44,96.07a17.23,17.23,0,0,1,6.12-1.13A17.55,17.55,0,1,1,65.5,99.79l-11-16.28a17.51,17.51,0,0,1-4.61.64A17.71,17.71,0,0,1,45,83.44l-11.2,16.64h0A17.55,17.55,0,1,1,28,96.22l10.8-16.09a17.5,17.5,0,0,1,19.29-29L82.31,34.78A17.07,17.07,0,0,1,82,31.56a17.5,17.5,0,0,1,35,0,16.94,16.94,0,0,1-.31,3.2l23.65,16A17.48,17.48,0,0,1,158.75,80.2L169.33,96a17.33,17.33,0,0,1,6.13-1.13A17.51,17.51,0,0,1,193,112.34ZM109.22,64.66h-6.3v-6.3a2.85,2.85,0,0,0-.85-2.1,2.82,2.82,0,0,0-2.1-.85,2.85,2.85,0,0,0-2.1.85,2.89,2.89,0,0,0-.85,2.1v6.3h-6.3a2.85,2.85,0,0,0-2.1.85,2.89,2.89,0,0,0-.85,2.1,3,3,0,0,0,.85,2.12,2.8,2.8,0,0,0,2.1.88H97v6.25a2.89,2.89,0,0,0,.85,2.1,3.06,3.06,0,0,0,4.23,0,2.9,2.9,0,0,0,.82-2.1V70.61h6.3a2.77,2.77,0,0,0,2.1-.88,2.91,2.91,0,0,0,.85-2.12,2.85,2.85,0,0,0-.85-2.1A2.82,2.82,0,0,0,109.22,64.66ZM94.46,36.09H92.81V26.61a1.75,1.75,0,0,0-.48-1.3A1.77,1.77,0,0,0,91,24.83a3.4,3.4,0,0,0-1.66.5l-3.2,1.86a1.35,1.35,0,0,0-.7,1.24,1.67,1.67,0,0,0,.4,1.09,1.18,1.18,0,0,0,1,.49,1.41,1.41,0,0,0,.7-.2l1.6-.94v7.22H87.52a2,2,0,0,0-1.32.36,1.35,1.35,0,0,0-.43,1.08c0,1,.58,1.48,1.75,1.48h6.94c1.16,0,1.74-.49,1.74-1.48a1.32,1.32,0,0,0-.43-1.08A2,2,0,0,0,94.46,36.09Zm4.48,3a1.87,1.87,0,0,0,1.37-.56,2,2,0,0,0,0-2.76,2,2,0,1,0-1.37,3.32Zm8.71.06a4.67,4.67,0,0,0,4-1.86A8.92,8.92,0,0,0,113,32a8.82,8.82,0,0,0-1.39-5.36,5.22,5.22,0,0,0-8,0A8.9,8.9,0,0,0,102.27,32a8.92,8.92,0,0,0,1.38,5.38A4.68,4.68,0,0,0,107.65,39.19Zm0-2.78a1.45,1.45,0,0,1-1.38-1,9.93,9.93,0,0,1-.42-3.42,9.86,9.86,0,0,1,.42-3.41,1.44,1.44,0,0,1,2.76,0,9.88,9.88,0,0,1,.42,3.4,9.93,9.93,0,0,1-.42,3.42A1.44,1.44,0,0,1,107.65,36.41Zm-50.52,60h-5v-5A2.32,2.32,0,0,0,49.73,89a2.32,2.32,0,0,0-2.36,2.36v5h-5A2.32,2.32,0,0,0,40,98.76a2.34,2.34,0,0,0,.68,1.7,2.26,2.26,0,0,0,1.68.7h5v5a2.39,2.39,0,0,0,4.06,1.68,2.34,2.34,0,0,0,.66-1.68v-5h5a2.3,2.3,0,0,0,1.68-.7,2.38,2.38,0,0,0,.68-1.7,2.32,2.32,0,0,0-2.36-2.36ZM41.64,74.28a4.68,4.68,0,0,0,4-1.86A8.92,8.92,0,0,0,47,67a8.82,8.82,0,0,0-1.39-5.36,4.69,4.69,0,0,0-4-1.86,4.67,4.67,0,0,0-4,1.86A8.9,8.9,0,0,0,36.26,67a8.92,8.92,0,0,0,1.38,5.38A4.67,4.67,0,0,0,41.64,74.28Zm0-2.78a1.44,1.44,0,0,1-1.38-1A9.93,9.93,0,0,1,39.84,67a9.86,9.86,0,0,1,.42-3.41,1.44,1.44,0,0,1,2.76,0,9.88,9.88,0,0,1,.42,3.4A9.93,9.93,0,0,1,43,70.46,1.44,1.44,0,0,1,41.64,71.5Zm8.72,2.72A1.9,1.9,0,1,0,49,73.66,1.87,1.87,0,0,0,50.36,74.22Zm12.44-3h-4l2.84-2.9A9.78,9.78,0,0,0,63.29,66a5.13,5.13,0,0,0,.49-2.23,3.72,3.72,0,0,0-.61-2.09,4,4,0,0,0-1.73-1.4,6.42,6.42,0,0,0-2.6-.49,7.83,7.83,0,0,0-2.31.36,7.61,7.61,0,0,0-2.11,1,1.26,1.26,0,0,0-.49.52,1.69,1.69,0,0,0-.13.72,1.71,1.71,0,0,0,.34,1.07,1,1,0,0,0,.84.45,1.21,1.21,0,0,0,.38-.06,2.37,2.37,0,0,0,.41-.19l.31-.17.4-.2a9,9,0,0,1,1.13-.49,3.29,3.29,0,0,1,1.07-.17,1.58,1.58,0,0,1,1.11.36,1.35,1.35,0,0,1,.39,1,3.9,3.9,0,0,1-1.32,2.54L54.62,71a2.17,2.17,0,0,0-.68,1.56A1.46,1.46,0,0,0,55.5,74.1h7.3a2,2,0,0,0,1.31-.36,1.4,1.4,0,0,0,.43-1.12,1.34,1.34,0,0,0-.43-1.09A2.09,2.09,0,0,0,62.8,71.18ZM12.58,119.71a4.67,4.67,0,0,0,4-1.86A8.92,8.92,0,0,0,18,112.47a8.82,8.82,0,0,0-1.39-5.36,4.69,4.69,0,0,0-4-1.86,4.67,4.67,0,0,0-4,1.86,8.9,8.9,0,0,0-1.38,5.36,8.92,8.92,0,0,0,1.38,5.38A4.67,4.67,0,0,0,12.58,119.71Zm0-2.78a1.43,1.43,0,0,1-1.38-1,14.09,14.09,0,0,1,0-6.83,1.44,1.44,0,0,1,2.76,0,14.05,14.05,0,0,1,0,6.82A1.43,1.43,0,0,1,12.58,116.93Zm8.72,2.72a1.82,1.82,0,0,0,1.37-.56,1.87,1.87,0,0,0,.55-1.38,1.9,1.9,0,0,0-.55-1.38,1.85,1.85,0,0,0-1.37-.56,2,2,0,0,0-1.39,3.32A1.85,1.85,0,0,0,21.3,119.65Zm13-3H32.62v-9.48a1.73,1.73,0,0,0-.49-1.3,1.77,1.77,0,0,0-1.29-.48,3.43,3.43,0,0,0-1.66.5L26,107.71a1.36,1.36,0,0,0-.7,1.24,1.65,1.65,0,0,0,.4,1.09,1.2,1.2,0,0,0,1,.49,1.31,1.31,0,0,0,.7-.2l1.6-.94v7.22H27.32A2,2,0,0,0,26,117a1.34,1.34,0,0,0-.42,1.08c0,1,.58,1.48,1.74,1.48h6.94c1.16,0,1.74-.49,1.74-1.48a1.34,1.34,0,0,0-.42-1.08A2,2,0,0,0,34.26,116.61Zm34.46,4.1a4.68,4.68,0,0,0,4-1.86,8.92,8.92,0,0,0,1.38-5.38,8.89,8.89,0,0,0-1.39-5.36,5.22,5.22,0,0,0-8,0,8.9,8.9,0,0,0-1.38,5.36,8.92,8.92,0,0,0,1.38,5.38A4.67,4.67,0,0,0,68.72,120.71Zm0-2.78a1.43,1.43,0,0,1-1.38-1,14.09,14.09,0,0,1,0-6.83,1.44,1.44,0,0,1,1.38-1,1.45,1.45,0,0,1,1.38,1,14.05,14.05,0,0,1,0,6.82A1.44,1.44,0,0,1,68.72,117.93Zm8.72,2.72a1.83,1.83,0,0,0,1.37-.56,1.9,1.9,0,0,0,.54-1.38,1.93,1.93,0,0,0-.54-1.38,2,2,0,0,0-2.76,0,1.9,1.9,0,0,0-.55,1.38,1.87,1.87,0,0,0,.55,1.38A1.83,1.83,0,0,0,77.44,120.65Zm13-3H88.75v-9.48A1.65,1.65,0,0,0,87,106.35a3.43,3.43,0,0,0-1.67.5l-3.2,1.86a1.38,1.38,0,0,0-.7,1.24,1.71,1.71,0,0,0,.4,1.09,1.2,1.2,0,0,0,1,.49,1.32,1.32,0,0,0,.71-.2l1.59-.94v7.22H83.45a2,2,0,0,0-1.31.36,1.32,1.32,0,0,0-.43,1.08c0,1,.58,1.48,1.74,1.48h6.94c1.17,0,1.75-.49,1.75-1.48a1.35,1.35,0,0,0-.43-1.08A2,2,0,0,0,90.39,117.61ZM155,96.3h-5v-5a2.32,2.32,0,0,0-2.36-2.36,2.32,2.32,0,0,0-2.36,2.36v5h-5a2.32,2.32,0,0,0-2.36,2.36,2.38,2.38,0,0,0,.68,1.7,2.3,2.3,0,0,0,1.68.7h5v5a2.32,2.32,0,0,0,2.36,2.36,2.27,2.27,0,0,0,1.7-.68,2.34,2.34,0,0,0,.66-1.68v-5h5a2.26,2.26,0,0,0,1.68-.7,2.34,2.34,0,0,0,.68-1.7A2.32,2.32,0,0,0,155,96.3ZM139.54,74.18a4.67,4.67,0,0,0,4-1.86,8.94,8.94,0,0,0,1.38-5.38,8.8,8.8,0,0,0-1.39-5.36,5.22,5.22,0,0,0-8,0,8.88,8.88,0,0,0-1.38,5.36,8.94,8.94,0,0,0,1.38,5.38A4.68,4.68,0,0,0,139.54,74.18Zm0-2.78a1.44,1.44,0,0,1-1.38-1,10,10,0,0,1-.42-3.42,9.83,9.83,0,0,1,.42-3.41,1.44,1.44,0,0,1,2.76,0,9.84,9.84,0,0,1,.42,3.4,10,10,0,0,1-.42,3.42A1.44,1.44,0,0,1,139.54,71.4Zm8.72,2.72a1.84,1.84,0,0,0,1.37-.56,1.9,1.9,0,0,0,.55-1.38,1.87,1.87,0,0,0-.55-1.38,1.8,1.8,0,0,0-1.37-.56,1.85,1.85,0,0,0-1.39.56,1.91,1.91,0,0,0-.55,1.38,1.94,1.94,0,0,0,.55,1.38A1.88,1.88,0,0,0,148.26,74.12ZM160,66.74a3,3,0,0,0,1.57-1.18,3.48,3.48,0,0,0,.57-2,3.29,3.29,0,0,0-1.39-2.81,7.47,7.47,0,0,0-7.57,0,3.3,3.3,0,0,0-1.4,2.81,3.46,3.46,0,0,0,.56,2,3.38,3.38,0,0,0,1.6,1.23,3.32,3.32,0,0,0-1.88,1.19,3.52,3.52,0,0,0-.66,2.19,3.48,3.48,0,0,0,1.49,3,8.28,8.28,0,0,0,8.14,0,3.52,3.52,0,0,0-1-6.35Zm-3,4.64c-1.45,0-2.18-.52-2.18-1.56s.73-1.56,2.18-1.56,2.18.52,2.18,1.56S158.44,71.38,157,71.38Zm0-8.88a2.08,2.08,0,0,1,1.34.35,1.33,1.33,0,0,1,.44,1.13,1.37,1.37,0,0,1-.44,1.14,2.67,2.67,0,0,1-2.68,0A1.4,1.4,0,0,1,155.2,64a1.36,1.36,0,0,1,.44-1.13A2.1,2.1,0,0,1,157,62.5Zm-45.5,57.11a4.68,4.68,0,0,0,4-1.86,8.92,8.92,0,0,0,1.38-5.38,8.89,8.89,0,0,0-1.39-5.36,5.22,5.22,0,0,0-8,0,8.9,8.9,0,0,0-1.38,5.36,8.92,8.92,0,0,0,1.38,5.38A4.67,4.67,0,0,0,111.48,119.61Zm0-2.78a1.44,1.44,0,0,1-1.38-1,14.09,14.09,0,0,1,0-6.83,1.44,1.44,0,0,1,2.76,0,14.05,14.05,0,0,1,0,6.82A1.44,1.44,0,0,1,111.48,116.83Zm8.72,2.72a1.83,1.83,0,0,0,1.37-.56,1.93,1.93,0,1,0-2.76,0A1.83,1.83,0,0,0,120.2,119.55Zm13-3h-1.64V107a1.76,1.76,0,0,0-.49-1.3,1.77,1.77,0,0,0-1.29-.48,3.4,3.4,0,0,0-1.66.5l-3.2,1.86a1.36,1.36,0,0,0-.7,1.24,1.65,1.65,0,0,0,.4,1.09,1.18,1.18,0,0,0,1,.49,1.31,1.31,0,0,0,.7-.2l1.6-.94v7.22h-1.62a2,2,0,0,0-1.32.36,1.34,1.34,0,0,0-.42,1.08c0,1,.58,1.48,1.74,1.48h6.94c1.16,0,1.74-.49,1.74-1.48a1.34,1.34,0,0,0-.42-1.08A2,2,0,0,0,133.16,116.51Zm33.45,4.1a4.67,4.67,0,0,0,4-1.86,8.92,8.92,0,0,0,1.38-5.38A8.82,8.82,0,0,0,170.6,108a5.22,5.22,0,0,0-8,0,8.9,8.9,0,0,0-1.38,5.36,8.92,8.92,0,0,0,1.38,5.38A4.67,4.67,0,0,0,166.61,120.61Zm0-2.78a1.44,1.44,0,0,1-1.38-1,14.09,14.09,0,0,1,0-6.83,1.44,1.44,0,0,1,2.76,0,14.05,14.05,0,0,1,0,6.82A1.44,1.44,0,0,1,166.61,117.83Zm8.72,2.72a1.94,1.94,0,1,0,0-3.88,1.94,1.94,0,1,0,0,3.88Zm12.76-14.22h-7.84a2,2,0,0,0-1.32.37,1.41,1.41,0,0,0-.42,1.11,1.37,1.37,0,0,0,.41,1.08,2,2,0,0,0,1.33.36h5L180.11,118a1.86,1.86,0,0,0-.28,1,1.47,1.47,0,0,0,.54,1.15,1.84,1.84,0,0,0,1.24.47,1.75,1.75,0,0,0,.85-.23,1.89,1.89,0,0,0,.69-.71l6.06-10.5a2.6,2.6,0,0,0,.38-1.32,1.57,1.57,0,0,0-.39-1.09A1.41,1.41,0,0,0,188.09,106.33Z"/></svg>