<svg id="Layer_1" data-name="Layer 1" xmlns="http://www.w3.org/2000/svg" viewBox="0 0 100 100"><title>l1_3_1</title><path d="M95.57,72.9A17.5,17.5,0,1,1,66,60.24L55.05,44a17.57,17.57,0,0,1-4.61.63,17.3,17.3,0,0,1-4.91-.71L34.32,60.54h0a17.64,17.64,0,1,1-5.84-3.85l10.8-16.09a17.52,17.52,0,1,1,22.08.17L71.94,56.52A17.47,17.47,0,0,1,95.57,72.9ZM57.63,58.85h-5v-5a2.36,2.36,0,1,0-4.72,0v5h-5a2.32,2.32,0,0,0-2.36,2.36,2.36,2.36,0,0,0,.68,1.7,2.23,2.23,0,0,0,1.68.7h5v5a2.39,2.39,0,0,0,4.06,1.68,2.31,2.31,0,0,0,.66-1.68v-5h5a2.23,2.23,0,0,0,1.68-.7,2.36,2.36,0,0,0,.68-1.7,2.32,2.32,0,0,0-2.36-2.36ZM44.86,31h-4l2.84-2.9a9.22,9.22,0,0,0,1.67-2.25,5,5,0,0,0,.49-2.23,3.64,3.64,0,0,0-.61-2.09,3.85,3.85,0,0,0-1.73-1.4,6.35,6.35,0,0,0-2.6-.49,7.83,7.83,0,0,0-2.31.36,7.74,7.74,0,0,0-2.11,1,1.33,1.33,0,0,0-.49.52,1.85,1.85,0,0,0-.13.72,1.77,1.77,0,0,0,.34,1.07,1,1,0,0,0,.84.45,1.16,1.16,0,0,0,.38-.06,2.07,2.07,0,0,0,.41-.19l.31-.17.4-.2a10.47,10.47,0,0,1,1.13-.49,3.38,3.38,0,0,1,1.07-.17,1.58,1.58,0,0,1,1.11.36,1.35,1.35,0,0,1,.39,1,3.9,3.9,0,0,1-1.32,2.54l-4.24,4.42A2.22,2.22,0,0,0,36,32.38a1.46,1.46,0,0,0,1.56,1.52h7.3a2,2,0,0,0,1.31-.36,1.36,1.36,0,0,0,.43-1.12,1.31,1.31,0,0,0-.43-1.09A2.05,2.05,0,0,0,44.86,31Zm5,3a1.94,1.94,0,1,0,0-3.88,1.94,1.94,0,1,0,0,3.88Zm9.7-9.34a5,5,0,0,0-2,.36V22.58h4.32c1.16,0,1.74-.47,1.74-1.4s-.58-1.38-1.74-1.38h-6.2A1.54,1.54,0,0,0,54,21.52v5.42a1.11,1.11,0,0,0,.38.87,1.4,1.4,0,0,0,.94.33,1.87,1.87,0,0,0,.9-.22,8.07,8.07,0,0,1,1.15-.36,5.25,5.25,0,0,1,1.09-.1A2.27,2.27,0,0,1,60,28a1.75,1.75,0,0,1,.56,1.4,1.73,1.73,0,0,1-.54,1.41,2.55,2.55,0,0,1-1.66.45A3.31,3.31,0,0,1,57.29,31a11.82,11.82,0,0,1-1.13-.48l-.4-.2a4.08,4.08,0,0,0-.6-.3,1.41,1.41,0,0,0-.5-.08,1,1,0,0,0-.84.43,1.69,1.69,0,0,0-.34,1.05,1.47,1.47,0,0,0,.15.69,1.82,1.82,0,0,0,.47.55,6.64,6.64,0,0,0,2,1,8.41,8.41,0,0,0,2.43.36,6.47,6.47,0,0,0,2.86-.6,4.49,4.49,0,0,0,1.92-1.7A4.66,4.66,0,0,0,64,29.22a4.83,4.83,0,0,0-.57-2.37,4,4,0,0,0-1.58-1.6A4.6,4.6,0,0,0,59.58,24.68ZM16.8,77.07h-4l2.84-2.9a9.78,9.78,0,0,0,1.67-2.25,5.17,5.17,0,0,0,.49-2.23,3.69,3.69,0,0,0-.61-2.09,3.89,3.89,0,0,0-1.73-1.4,6.42,6.42,0,0,0-2.6-.49,7.83,7.83,0,0,0-2.31.36,7.61,7.61,0,0,0-2.11,1,1.26,1.26,0,0,0-.49.52,1.63,1.63,0,0,0-.13.72,1.71,1.71,0,0,0,.34,1.07,1,1,0,0,0,.84.45,1.21,1.21,0,0,0,.38-.06,3.47,3.47,0,0,0,.41-.19,2.17,2.17,0,0,1,.31-.17l.4-.2a7.73,7.73,0,0,1,1.13-.49,3,3,0,0,1,1.07-.17,1.58,1.58,0,0,1,1.11.36,1.34,1.34,0,0,1,.39,1,3.9,3.9,0,0,1-1.32,2.54L8.62,76.91a2.14,2.14,0,0,0-.68,1.56,1.5,1.5,0,0,0,.42,1.09A1.55,1.55,0,0,0,9.5,80h7.3a2,2,0,0,0,1.31-.36,1.41,1.41,0,0,0,.43-1.12,1.33,1.33,0,0,0-.43-1.09A2,2,0,0,0,16.8,77.07Zm5,3a1.87,1.87,0,0,0,1.37-.56,1.94,1.94,0,0,0,.55-1.38,1.91,1.91,0,0,0-.55-1.38,2,2,0,0,0-2.76,0,1.87,1.87,0,0,0-.55,1.38,1.9,1.9,0,0,0,.55,1.38A1.87,1.87,0,0,0,21.82,80.11Zm8.72.06a4.68,4.68,0,0,0,4-1.86,8.94,8.94,0,0,0,1.38-5.38,8.87,8.87,0,0,0-1.39-5.36,4.69,4.69,0,0,0-4-1.86,4.67,4.67,0,0,0-4,1.86,8.88,8.88,0,0,0-1.38,5.36,8.94,8.94,0,0,0,1.38,5.38A4.67,4.67,0,0,0,30.54,80.17Zm0-2.78a1.44,1.44,0,0,1-1.38-1,10,10,0,0,1-.42-3.42,9.83,9.83,0,0,1,.42-3.41,1.44,1.44,0,0,1,2.76,0,9.84,9.84,0,0,1,.42,3.4,10,10,0,0,1-.42,3.42A1.44,1.44,0,0,1,30.54,77.39Zm38.68,3.78a4.67,4.67,0,0,0,4-1.86,8.94,8.94,0,0,0,1.38-5.38,8.8,8.8,0,0,0-1.39-5.36,5.22,5.22,0,0,0-8,0,8.88,8.88,0,0,0-1.38,5.36,8.94,8.94,0,0,0,1.38,5.38A4.67,4.67,0,0,0,69.22,81.17Zm0-2.78a1.44,1.44,0,0,1-1.38-1,10,10,0,0,1-.42-3.42,9.83,9.83,0,0,1,.42-3.41,1.44,1.44,0,0,1,2.76,0,9.84,9.84,0,0,1,.42,3.4,10,10,0,0,1-.42,3.42A1.44,1.44,0,0,1,69.22,78.39Zm8.72,2.72a1.85,1.85,0,0,0,1.37-.56,1.9,1.9,0,0,0,.55-1.38,1.87,1.87,0,0,0-.55-1.38,1.82,1.82,0,0,0-1.37-.56,1.85,1.85,0,0,0-1.39.56A1.87,1.87,0,0,0,76,79.17a1.9,1.9,0,0,0,1.94,1.94Zm9.7-9.34a5,5,0,0,0-2,.36V69.67H90c1.16,0,1.74-.47,1.74-1.4s-.58-1.38-1.74-1.38h-6.2a1.67,1.67,0,0,0-1.26.44,1.74,1.74,0,0,0-.44,1.28V74a1.11,1.11,0,0,0,.38.87,1.38,1.38,0,0,0,.94.33,2,2,0,0,0,.9-.22,5.9,5.9,0,0,1,1.15-.36,5.25,5.25,0,0,1,1.09-.1,2.22,2.22,0,0,1,1.56.5,1.79,1.79,0,0,1,.56,1.4,1.73,1.73,0,0,1-.54,1.41,2.55,2.55,0,0,1-1.66.45,3.31,3.31,0,0,1-1.11-.18,10.83,10.83,0,0,1-1.13-.48l-.4-.2a5.39,5.39,0,0,0-.6-.3,1.22,1.22,0,0,0-.5-.08,1,1,0,0,0-.84.43,1.6,1.6,0,0,0-.34,1,1.52,1.52,0,0,0,.15.69,1.94,1.94,0,0,0,.47.55,6.75,6.75,0,0,0,2,1,8.31,8.31,0,0,0,2.43.36,6.5,6.5,0,0,0,2.86-.6,4.49,4.49,0,0,0,1.92-1.7,5.14,5.14,0,0,0,.11-4.91A4.05,4.05,0,0,0,90,72.34,4.6,4.6,0,0,0,87.64,71.77Z"/></svg>