<svg id="Layer_1" data-name="Layer 1" xmlns="http://www.w3.org/2000/svg" viewBox="0 0 100 100"><title>l1_3_1</title><path d="M95.57,72.9A17.5,17.5,0,1,1,66,60.24L55.05,44a17.57,17.57,0,0,1-4.61.63,17.3,17.3,0,0,1-4.91-.71L34.32,60.54h0a17.64,17.64,0,1,1-5.84-3.85l10.8-16.09a17.52,17.52,0,1,1,22.08.17L71.94,56.52A17.47,17.47,0,0,1,95.57,72.9ZM57.63,58.85h-5v-5a2.36,2.36,0,1,0-4.72,0v5h-5a2.32,2.32,0,0,0-2.36,2.36,2.36,2.36,0,0,0,.68,1.7,2.23,2.23,0,0,0,1.68.7h5v5a2.39,2.39,0,0,0,4.06,1.68,2.31,2.31,0,0,0,.66-1.68v-5h5a2.23,2.23,0,0,0,1.68-.7,2.36,2.36,0,0,0,.68-1.7,2.32,2.32,0,0,0-2.36-2.36ZM42.35,24.62a3.84,3.84,0,0,0-1.69.37,3.22,3.22,0,0,0-1.23,1,5.32,5.32,0,0,1,.75-2.61,1.91,1.91,0,0,1,1.65-.93,2.58,2.58,0,0,1,.92.16c.3.11.66.27,1.1.48l.44.22.6.29a1.35,1.35,0,0,0,.5.09,1,1,0,0,0,.85-.43,1.59,1.59,0,0,0,.35-1.05,1.48,1.48,0,0,0-.15-.7A1.63,1.63,0,0,0,46,21a6.31,6.31,0,0,0-2-1,7.75,7.75,0,0,0-2.29-.36,5.44,5.44,0,0,0-3.11.9,5.91,5.91,0,0,0-2.06,2.57A9.81,9.81,0,0,0,35.75,27a8,8,0,0,0,1.54,5.24,5.36,5.36,0,0,0,4.36,1.84,5.16,5.16,0,0,0,2.54-.62,4.41,4.41,0,0,0,1.75-1.73A5.35,5.35,0,0,0,46,26.85a4,4,0,0,0-3.67-2.23Zm-.92,6.64a1.62,1.62,0,0,1-1.24-.53,2,2,0,0,1-.48-1.37A2,2,0,0,1,40.18,28a1.6,1.6,0,0,1,1.25-.52,1.57,1.57,0,0,1,1.25.51,2.34,2.34,0,0,1,0,2.77A1.55,1.55,0,0,1,41.43,31.26ZM49.87,34a1.84,1.84,0,0,0,1.37-.56,2,2,0,0,0,0-2.76,1.84,1.84,0,0,0-1.37-.56,1.88,1.88,0,0,0-1.39.56,2,2,0,0,0,0,2.76A1.88,1.88,0,0,0,49.87,34Zm9.7-9.34a5,5,0,0,0-2,.36V22.58h4.32c1.16,0,1.74-.47,1.74-1.4s-.58-1.38-1.74-1.38h-6.2A1.54,1.54,0,0,0,54,21.52v5.42a1.11,1.11,0,0,0,.38.87,1.38,1.38,0,0,0,.94.33,1.87,1.87,0,0,0,.9-.22,7.69,7.69,0,0,1,1.15-.36,5.25,5.25,0,0,1,1.09-.1A2.27,2.27,0,0,1,60,28a1.75,1.75,0,0,1,.56,1.4,1.73,1.73,0,0,1-.54,1.41,2.55,2.55,0,0,1-1.66.45A3.31,3.31,0,0,1,57.28,31a10.83,10.83,0,0,1-1.13-.48l-.4-.2a4.08,4.08,0,0,0-.6-.3,1.41,1.41,0,0,0-.5-.08,1,1,0,0,0-.84.43,1.69,1.69,0,0,0-.34,1.05,1.47,1.47,0,0,0,.15.69,1.82,1.82,0,0,0,.47.55,6.64,6.64,0,0,0,2,1,8.36,8.36,0,0,0,2.43.36,6.5,6.5,0,0,0,2.86-.6,4.49,4.49,0,0,0,1.92-1.7A4.75,4.75,0,0,0,64,29.22a4.83,4.83,0,0,0-.57-2.37,4.05,4.05,0,0,0-1.58-1.6A4.6,4.6,0,0,0,59.57,24.68Zm-45.28,46a3.77,3.77,0,0,0-1.69.37,3,3,0,0,0-1.23,1,5.32,5.32,0,0,1,.75-2.61,1.91,1.91,0,0,1,1.65-.93,2.62,2.62,0,0,1,.92.16,9.48,9.48,0,0,1,1.1.48l.44.22c.25.13.45.23.6.29a1.28,1.28,0,0,0,.5.09,1.09,1.09,0,0,0,.85-.43,1.64,1.64,0,0,0,.35-1,1.45,1.45,0,0,0-.15-.7,1.74,1.74,0,0,0-.49-.54,6.31,6.31,0,0,0-2-1,7.8,7.8,0,0,0-2.29-.36,5.39,5.39,0,0,0-3.11.9,5.72,5.72,0,0,0-2.06,2.57,9.61,9.61,0,0,0-.73,3.91,8,8,0,0,0,1.54,5.24,5.38,5.38,0,0,0,4.36,1.84,5.22,5.22,0,0,0,2.54-.62,4.55,4.55,0,0,0,1.75-1.73,5,5,0,0,0,.63-2.51A5.11,5.11,0,0,0,18,72.94a4.13,4.13,0,0,0-1.51-1.64A4,4,0,0,0,14.29,70.71Zm-.92,6.64a1.6,1.6,0,0,1-1.24-.53,2,2,0,0,1-.48-1.37,1.93,1.93,0,0,1,.47-1.38,1.59,1.59,0,0,1,1.25-.52,1.58,1.58,0,0,1,1.25.51,2,2,0,0,1,.45,1.39,2.05,2.05,0,0,1-.46,1.38A1.6,1.6,0,0,1,13.37,77.35Zm8.44,2.76a1.87,1.87,0,0,0,1.37-.56,1.94,1.94,0,0,0,.55-1.38,1.91,1.91,0,0,0-.55-1.38,2,2,0,0,0-2.76,0,1.87,1.87,0,0,0-.55,1.38,1.9,1.9,0,0,0,.55,1.38A1.87,1.87,0,0,0,21.81,80.11Zm8.72.06a4.68,4.68,0,0,0,4-1.86,8.94,8.94,0,0,0,1.38-5.38,8.87,8.87,0,0,0-1.39-5.36,4.69,4.69,0,0,0-4-1.86,4.67,4.67,0,0,0-4,1.86,8.88,8.88,0,0,0-1.38,5.36,8.94,8.94,0,0,0,1.38,5.38A4.67,4.67,0,0,0,30.53,80.17Zm0-2.78a1.44,1.44,0,0,1-1.38-1,10,10,0,0,1-.42-3.42,9.83,9.83,0,0,1,.42-3.41,1.44,1.44,0,0,1,2.76,0,9.84,9.84,0,0,1,.42,3.4,10,10,0,0,1-.42,3.42A1.44,1.44,0,0,1,30.53,77.39Zm38.69,3.78a4.67,4.67,0,0,0,4-1.86,8.94,8.94,0,0,0,1.38-5.38,8.8,8.8,0,0,0-1.39-5.36,5.22,5.22,0,0,0-8,0,8.88,8.88,0,0,0-1.38,5.36,8.94,8.94,0,0,0,1.38,5.38A4.67,4.67,0,0,0,69.22,81.17Zm0-2.78a1.44,1.44,0,0,1-1.38-1,10,10,0,0,1-.42-3.42,9.83,9.83,0,0,1,.42-3.41,1.44,1.44,0,0,1,2.76,0,9.84,9.84,0,0,1,.42,3.4,10,10,0,0,1-.42,3.42A1.44,1.44,0,0,1,69.22,78.39Zm8.72,2.72a1.85,1.85,0,0,0,1.37-.56,1.9,1.9,0,0,0,.55-1.38,1.87,1.87,0,0,0-.55-1.38,1.82,1.82,0,0,0-1.37-.56,1.85,1.85,0,0,0-1.39.56A1.87,1.87,0,0,0,76,79.17a1.9,1.9,0,0,0,1.94,1.94Zm9.7-9.34a5,5,0,0,0-2,.36V69.67H90c1.16,0,1.74-.47,1.74-1.4s-.58-1.38-1.74-1.38h-6.2a1.67,1.67,0,0,0-1.26.44,1.74,1.74,0,0,0-.44,1.28V74a1.11,1.11,0,0,0,.38.87,1.38,1.38,0,0,0,.94.33,2,2,0,0,0,.9-.22,5.9,5.9,0,0,1,1.15-.36,5.25,5.25,0,0,1,1.09-.1,2.22,2.22,0,0,1,1.56.5,1.79,1.79,0,0,1,.56,1.4,1.73,1.73,0,0,1-.54,1.41,2.55,2.55,0,0,1-1.66.45,3.31,3.31,0,0,1-1.11-.18,10.83,10.83,0,0,1-1.13-.48l-.4-.2a5.39,5.39,0,0,0-.6-.3,1.22,1.22,0,0,0-.5-.08,1,1,0,0,0-.84.43,1.6,1.6,0,0,0-.34,1,1.52,1.52,0,0,0,.15.69,1.94,1.94,0,0,0,.47.55,6.75,6.75,0,0,0,2,1,8.31,8.31,0,0,0,2.43.36,6.5,6.5,0,0,0,2.86-.6,4.49,4.49,0,0,0,1.92-1.7,5.14,5.14,0,0,0,.11-4.91A4.05,4.05,0,0,0,90,72.34,4.6,4.6,0,0,0,87.64,71.77Z"/></svg>