<svg id="Layer_1" data-name="Layer 1" xmlns="http://www.w3.org/2000/svg" viewBox="0 0 200 150"><title>l1_3_1</title><path d="M194.51,115.24A17.5,17.5,0,1,1,165,102.58L154,86.31a17.51,17.51,0,0,1-4.61.63,17.28,17.28,0,0,1-4.9-.71l-11.21,16.65h0A17.6,17.6,0,1,1,127.43,99l10.8-16.09A17.46,17.46,0,0,1,136.13,58l-20.64-13.7a17.5,17.5,0,0,1-28.87,0v0L65.15,58.62A17.46,17.46,0,0,1,62.41,83.2L73,99a17.33,17.33,0,0,1,6.13-1.13,17.54,17.54,0,1,1-12.06,4.84l-11-16.27a17.51,17.51,0,0,1-4.61.63,17.3,17.3,0,0,1-4.91-.71L35.37,103h0a17.6,17.6,0,1,1-5.84-3.86L40.34,83a17.49,17.49,0,0,1,19.29-29L83.87,37.68a17.17,17.17,0,0,1-.31-3.23,17.5,17.5,0,0,1,35,0,17.82,17.82,0,0,1-.31,3.21l23.65,16A17.49,17.49,0,0,1,160.31,83.1l10.58,15.76a17.47,17.47,0,0,1,23.62,16.38ZM110.78,67.56h-6.3v-6.3a3,3,0,1,0-5.9,0v6.3h-6.3a2.9,2.9,0,0,0-3,3,2.91,2.91,0,0,0,.85,2.12,2.8,2.8,0,0,0,2.1.88h6.3v6.25a2.9,2.9,0,0,0,3,2.95,2.8,2.8,0,0,0,2.12-.85,2.91,2.91,0,0,0,.83-2.1V73.51h6.3a2.8,2.8,0,0,0,2.1-.88,2.91,2.91,0,0,0,.85-2.12,2.9,2.9,0,0,0-3-3ZM92.63,37.72H91.4V30.61a1.27,1.27,0,0,0-.37-1,1.3,1.3,0,0,0-1-.36,2.54,2.54,0,0,0-1.25.37l-2.4,1.4a1,1,0,0,0-.52.93,1.23,1.23,0,0,0,.3.81.89.89,0,0,0,.72.37,1,1,0,0,0,.52-.15l1.2-.7v5.41H87.43a1.5,1.5,0,0,0-1,.27,1,1,0,0,0-.32.81c0,.74.44,1.11,1.31,1.11h5.2c.87,0,1.31-.37,1.31-1.11a1,1,0,0,0-.32-.81A1.5,1.5,0,0,0,92.63,37.72ZM99.19,33a3.78,3.78,0,0,0-1.49.27V31.42h3.24c.87,0,1.31-.35,1.31-1.05s-.44-1-1.31-1H96.29a1.27,1.27,0,0,0-.94.33,1.3,1.3,0,0,0-.33,1v4.06a.81.81,0,0,0,.28.65,1,1,0,0,0,.71.25,1.41,1.41,0,0,0,.67-.16,5.45,5.45,0,0,1,.86-.27,4.15,4.15,0,0,1,.82-.08,1.7,1.7,0,0,1,1.17.38,1.33,1.33,0,0,1,.42,1,1.27,1.27,0,0,1-.4,1.05,1.9,1.9,0,0,1-1.25.34,2.45,2.45,0,0,1-.83-.13,7.93,7.93,0,0,1-.85-.36l-.3-.15a4.9,4.9,0,0,0-.45-.23A1,1,0,0,0,95.5,37a.79.79,0,0,0-.63.32,1.25,1.25,0,0,0-.26.79,1.21,1.21,0,0,0,.11.52,1.49,1.49,0,0,0,.36.41,5,5,0,0,0,1.53.75,6.34,6.34,0,0,0,1.83.27,4.85,4.85,0,0,0,2.14-.45A3.37,3.37,0,0,0,102,38.31a3.86,3.86,0,0,0,.08-3.69,3.09,3.09,0,0,0-1.18-1.2A3.52,3.52,0,0,0,99.19,33Zm5.8,7a1.4,1.4,0,0,0,1-.42,1.43,1.43,0,0,0,.41-1,1.45,1.45,0,0,0-.41-1,1.49,1.49,0,0,0-2.07,0,1.41,1.41,0,0,0-.41,1A1.42,1.42,0,0,0,105,40Zm7.28-7a3.78,3.78,0,0,0-1.49.27V31.42H114c.87,0,1.31-.35,1.31-1.05s-.44-1-1.31-1h-4.65a1.27,1.27,0,0,0-.94.33,1.3,1.3,0,0,0-.33,1v4.06a.81.81,0,0,0,.28.65,1,1,0,0,0,.71.25,1.41,1.41,0,0,0,.67-.16,5.45,5.45,0,0,1,.86-.27,4.15,4.15,0,0,1,.82-.08,1.7,1.7,0,0,1,1.17.38,1.33,1.33,0,0,1,.42,1,1.27,1.27,0,0,1-.4,1.05,1.9,1.9,0,0,1-1.25.34,2.45,2.45,0,0,1-.83-.13,7.93,7.93,0,0,1-.85-.36l-.3-.15A4.9,4.9,0,0,0,109,37a1,1,0,0,0-.37-.06.79.79,0,0,0-.63.32,1.25,1.25,0,0,0-.26.79,1.21,1.21,0,0,0,.11.52,1.49,1.49,0,0,0,.36.41,5,5,0,0,0,1.53.75,6.34,6.34,0,0,0,1.83.27,4.85,4.85,0,0,0,2.14-.45,3.37,3.37,0,0,0,1.44-1.27,3.86,3.86,0,0,0,.08-3.69,3.09,3.09,0,0,0-1.18-1.2A3.52,3.52,0,0,0,112.27,33ZM58.68,99.3h-5v-5a2.32,2.32,0,0,0-2.36-2.36,2.32,2.32,0,0,0-2.36,2.36v5h-5a2.32,2.32,0,0,0-2.36,2.36,2.38,2.38,0,0,0,.68,1.7,2.3,2.3,0,0,0,1.68.7h5v5a2.32,2.32,0,0,0,2.36,2.36,2.27,2.27,0,0,0,1.7-.68,2.34,2.34,0,0,0,.66-1.68v-5h5a2.26,2.26,0,0,0,1.68-.7,2.34,2.34,0,0,0,.68-1.7,2.32,2.32,0,0,0-2.36-2.36ZM44.06,73.81H42.83V66.7a1.26,1.26,0,0,0-1.34-1.34,2.53,2.53,0,0,0-1.24.38l-2.4,1.39a1,1,0,0,0-.53.93,1.26,1.26,0,0,0,.3.82.89.89,0,0,0,.72.37,1,1,0,0,0,.53-.15l1.2-.71v5.42H38.85a1.5,1.5,0,0,0-1,.27,1,1,0,0,0-.31.81c0,.74.43,1.11,1.3,1.11h5.21c.87,0,1.3-.37,1.3-1.11a1,1,0,0,0-.31-.81A1.5,1.5,0,0,0,44.06,73.81Zm8.61,0h-3l2.13-2.18A6.94,6.94,0,0,0,53,70a3.76,3.76,0,0,0,.37-1.68,2.68,2.68,0,0,0-.46-1.56,2.82,2.82,0,0,0-1.29-1,4.74,4.74,0,0,0-1.95-.37,6.16,6.16,0,0,0-3.32,1,.93.93,0,0,0-.36.39,1.21,1.21,0,0,0-.1.54,1.27,1.27,0,0,0,.25.8.75.75,0,0,0,.63.34.93.93,0,0,0,.29,0,1.31,1.31,0,0,0,.3-.14l.24-.13.3-.15a6.58,6.58,0,0,1,.84-.36,2.37,2.37,0,0,1,.81-.13,1.17,1.17,0,0,1,.83.27,1,1,0,0,1,.29.78,2.91,2.91,0,0,1-1,1.9l-3.18,3.32A1.64,1.64,0,0,0,46,74.86,1.1,1.1,0,0,0,47.19,76h5.48a1.49,1.49,0,0,0,1-.27,1,1,0,0,0,.32-.84,1,1,0,0,0-.32-.82A1.55,1.55,0,0,0,52.67,73.81Zm3.76,2.28a1.4,1.4,0,0,0,1-.42,1.45,1.45,0,0,0,.41-1,1.43,1.43,0,0,0-.41-1,1.45,1.45,0,0,0-2.48,1,1.41,1.41,0,0,0,.41,1A1.39,1.39,0,0,0,56.43,76.09Zm7.28-7a3.78,3.78,0,0,0-1.49.27V67.51h3.24c.87,0,1.31-.35,1.31-1.05s-.44-1-1.31-1H60.81a1.27,1.27,0,0,0-.94.33,1.3,1.3,0,0,0-.33,1v4.07a.81.81,0,0,0,.28.65,1,1,0,0,0,.71.25,1.42,1.42,0,0,0,.67-.17,5.45,5.45,0,0,1,.86-.27,4.18,4.18,0,0,1,.82-.07,1.69,1.69,0,0,1,1.17.37,1.33,1.33,0,0,1,.42,1,1.3,1.3,0,0,1-.4,1.06,1.9,1.9,0,0,1-1.25.34,2.45,2.45,0,0,1-.83-.14,7.93,7.93,0,0,1-.85-.36l-.3-.15a4.27,4.27,0,0,0-.45-.22,1,1,0,0,0-.37-.06.79.79,0,0,0-.63.32,1.25,1.25,0,0,0-.26.79,1.21,1.21,0,0,0,.11.52,1.49,1.49,0,0,0,.36.41,5,5,0,0,0,1.53.75,6.34,6.34,0,0,0,1.83.27,4.85,4.85,0,0,0,2.14-.45,3.39,3.39,0,0,0,1.44-1.28,3.53,3.53,0,0,0,.51-1.9,3.58,3.58,0,0,0-.43-1.78,3.09,3.09,0,0,0-1.18-1.2A3.49,3.49,0,0,0,63.71,69.08ZM15,119.24H13.76v-7.11a1.27,1.27,0,0,0-.37-1,1.3,1.3,0,0,0-1-.36,2.54,2.54,0,0,0-1.25.37l-2.4,1.4a1,1,0,0,0-.52.93,1.28,1.28,0,0,0,.3.82.91.91,0,0,0,.72.36,1,1,0,0,0,.52-.15l1.2-.7v5.41H9.79a1.5,1.5,0,0,0-1,.27,1,1,0,0,0-.32.81c0,.74.44,1.11,1.31,1.11H15c.87,0,1.31-.37,1.31-1.11a1,1,0,0,0-.32-.81A1.5,1.5,0,0,0,15,119.24Zm5.82,2.33a3.51,3.51,0,0,0,3-1.4,6.68,6.68,0,0,0,1-4,6.6,6.6,0,0,0-1.05-4,3.5,3.5,0,0,0-3-1.4,3.51,3.51,0,0,0-3,1.4,8.38,8.38,0,0,0,0,8A3.51,3.51,0,0,0,20.81,121.57Zm0-2.09a1.07,1.07,0,0,1-1-.78,10.4,10.4,0,0,1,0-5.12,1.08,1.08,0,0,1,2.07,0,10.68,10.68,0,0,1,0,5.11A1.08,1.08,0,0,1,20.81,119.48Zm6.54,2a1.4,1.4,0,0,0,1-.42,1.43,1.43,0,0,0,.41-1,1.45,1.45,0,0,0-.41-1,1.49,1.49,0,0,0-2.07,0,1.41,1.41,0,0,0-.41,1,1.42,1.42,0,0,0,1.45,1.45Zm9.33-2.28h-3l2.13-2.17a7,7,0,0,0,1.25-1.69,3.82,3.82,0,0,0,.37-1.67,2.81,2.81,0,0,0-.46-1.57,3,3,0,0,0-1.3-1,4.91,4.91,0,0,0-1.95-.37,6.16,6.16,0,0,0-3.32,1,1,1,0,0,0-.36.39,1.21,1.21,0,0,0-.1.54,1.33,1.33,0,0,0,.26.81.74.74,0,0,0,.62.33.92.92,0,0,0,.29,0,2.56,2.56,0,0,0,.31-.14l.23-.13.3-.15a7.87,7.87,0,0,1,.85-.37,2.53,2.53,0,0,1,.8-.13,1.17,1.17,0,0,1,.83.27,1,1,0,0,1,.3.78,2.93,2.93,0,0,1-1,1.91l-3.18,3.31a1.61,1.61,0,0,0-.52,1.17,1.1,1.1,0,0,0,1.18,1.14h5.47a1.49,1.49,0,0,0,1-.27,1,1,0,0,0,.32-.84,1,1,0,0,0-.32-.81A1.49,1.49,0,0,0,36.68,119.24ZM74,120.51H70l2.84-2.9a9.11,9.11,0,0,0,1.67-2.25,5,5,0,0,0,.49-2.23,3.66,3.66,0,0,0-.61-2.09,3.92,3.92,0,0,0-1.73-1.4,6.52,6.52,0,0,0-2.6-.49,7.83,7.83,0,0,0-2.31.36,8,8,0,0,0-2.11,1,1.4,1.4,0,0,0-.49.52,1.69,1.69,0,0,0-.13.72,1.75,1.75,0,0,0,.34,1.07,1,1,0,0,0,.84.45,1.16,1.16,0,0,0,.38-.06A2.07,2.07,0,0,0,67,113l.31-.17.4-.2c.43-.21.81-.37,1.13-.49a3.38,3.38,0,0,1,1.07-.17,1.58,1.58,0,0,1,1.11.36,1.35,1.35,0,0,1,.39,1A3.88,3.88,0,0,1,70,115.93l-4.24,4.42a2.22,2.22,0,0,0-.68,1.56,1.49,1.49,0,0,0,.42,1.09,1.51,1.51,0,0,0,1.14.43H74a2,2,0,0,0,1.31-.36,1.36,1.36,0,0,0,.43-1.12,1.33,1.33,0,0,0-.43-1.09A2.05,2.05,0,0,0,74,120.51Zm5,3a1.82,1.82,0,0,0,1.37-.56,1.87,1.87,0,0,0,.55-1.38,1.9,1.9,0,0,0-.55-1.38,1.85,1.85,0,0,0-1.37-.56A2,2,0,0,0,77.61,123,1.85,1.85,0,0,0,79,123.55Zm11.26-7.38A3.19,3.19,0,0,0,91.85,115a3.3,3.3,0,0,0,.57-1.93,3.48,3.48,0,0,0-.61-2,3.88,3.88,0,0,0-1.74-1.36,6.61,6.61,0,0,0-2.61-.48,8,8,0,0,0-2.37.36,6.87,6.87,0,0,0-2,1,1.94,1.94,0,0,0-.48.54,1.62,1.62,0,0,0-.14.7,1.65,1.65,0,0,0,.34,1,1,1,0,0,0,.84.43,1.28,1.28,0,0,0,.5-.09,5.1,5.1,0,0,0,.6-.29l.42-.2a11.5,11.5,0,0,1,1.09-.48,3,3,0,0,1,1-.18,1.73,1.73,0,0,1,1.22.41,1.49,1.49,0,0,1,.44,1.15,1.12,1.12,0,0,1-.5,1,3,3,0,0,1-1.6.32H86a1.15,1.15,0,0,0-.94.42,1.59,1.59,0,0,0-.34,1,1.57,1.57,0,0,0,.34,1,1.15,1.15,0,0,0,.94.42H87.2a3.06,3.06,0,0,1,1.64.34,1.24,1.24,0,0,1,.5,1.12,1.38,1.38,0,0,1-.49,1.2,2.77,2.77,0,0,1-1.61.36,3.43,3.43,0,0,1-1.15-.17,7.87,7.87,0,0,1-1.15-.49l-.25-.11-.19-.09c-.25-.13-.45-.23-.6-.29a1.28,1.28,0,0,0-.5-.09,1.06,1.06,0,0,0-.84.43,1.69,1.69,0,0,0-.34,1,1.6,1.6,0,0,0,.14.69,1.63,1.63,0,0,0,.48.55,6.4,6.4,0,0,0,2.08,1,8.68,8.68,0,0,0,2.5.35,7.45,7.45,0,0,0,2.83-.49,4.14,4.14,0,0,0,1.87-1.39,3.47,3.47,0,0,0,.66-2.12,3.53,3.53,0,0,0-.67-2.18A3.38,3.38,0,0,0,90.26,116.17Zm66.32-17h-5v-5a2.32,2.32,0,0,0-.68-1.68,2.42,2.42,0,0,0-3.36,0,2.32,2.32,0,0,0-.68,1.68v5h-5a2.39,2.39,0,0,0-1.68,4.06,2.23,2.23,0,0,0,1.68.7h5v5a2.28,2.28,0,0,0,.68,1.68,2.44,2.44,0,0,0,3.38,0,2.31,2.31,0,0,0,.66-1.68v-5h5a2.23,2.23,0,0,0,1.68-.7,2.35,2.35,0,0,0,.68-1.7,2.32,2.32,0,0,0-.68-1.68A2.28,2.28,0,0,0,156.58,99.19ZM143.64,69.64a3.3,3.3,0,0,0,1.59-1.21,3.35,3.35,0,0,0,.57-1.93,3.44,3.44,0,0,0-.61-2,3.93,3.93,0,0,0-1.74-1.36,6.61,6.61,0,0,0-2.61-.48,8,8,0,0,0-2.37.36,6.53,6.53,0,0,0-2,1,1.49,1.49,0,0,0-.48.54,1.58,1.58,0,0,0-.14.7,1.63,1.63,0,0,0,.34,1,1.06,1.06,0,0,0,.84.43,1.31,1.31,0,0,0,.5-.09c.15-.06.35-.16.6-.29l.42-.2a10.48,10.48,0,0,1,1.09-.48,3,3,0,0,1,1-.18,1.69,1.69,0,0,1,1.22.41,1.49,1.49,0,0,1,.44,1.15,1.14,1.14,0,0,1-.5,1,3.1,3.1,0,0,1-1.6.32h-.88a1.15,1.15,0,0,0-.94.42,1.52,1.52,0,0,0-.34,1,1.53,1.53,0,0,0,.34,1,1.15,1.15,0,0,0,.94.42h1.24a3,3,0,0,1,1.64.34,1.26,1.26,0,0,1,.5,1.12,1.38,1.38,0,0,1-.49,1.2,2.77,2.77,0,0,1-1.61.36,3.71,3.71,0,0,1-1.15-.17,10.92,10.92,0,0,1-1.15-.49l-.25-.11-.19-.09a5.1,5.1,0,0,0-.6-.29,1.31,1.31,0,0,0-.5-.09,1,1,0,0,0-.84.43,1.6,1.6,0,0,0-.34,1,1.67,1.67,0,0,0,.14.69,1.59,1.59,0,0,0,.48.55,6.6,6.6,0,0,0,2.08,1,9,9,0,0,0,2.5.35,7.65,7.65,0,0,0,2.83-.49,4.21,4.21,0,0,0,1.87-1.39,3.81,3.81,0,0,0,0-4.3A3.37,3.37,0,0,0,143.64,69.64ZM149.82,77a1.85,1.85,0,0,0,1.37-.56,1.9,1.9,0,0,0,.55-1.38,1.87,1.87,0,0,0-.55-1.38,1.82,1.82,0,0,0-1.37-.56,1.85,1.85,0,0,0-1.39.56,1.87,1.87,0,0,0-.55,1.38A1.9,1.9,0,0,0,149.82,77Zm8.72.06a4.67,4.67,0,0,0,4-1.86,8.94,8.94,0,0,0,1.38-5.38,8.8,8.8,0,0,0-1.39-5.36,5.22,5.22,0,0,0-8,0,8.88,8.88,0,0,0-1.38,5.36,8.94,8.94,0,0,0,1.38,5.38A4.67,4.67,0,0,0,158.54,77.08Zm0-2.78a1.44,1.44,0,0,1-1.38-1,10,10,0,0,1-.42-3.42,9.83,9.83,0,0,1,.42-3.41,1.44,1.44,0,0,1,2.76,0,9.84,9.84,0,0,1,.42,3.4,10,10,0,0,1-.42,3.42A1.44,1.44,0,0,1,158.54,74.3Zm-42.31,46.11h-1.64v-9.48a1.72,1.72,0,0,0-.49-1.3,1.74,1.74,0,0,0-1.29-.48,3.43,3.43,0,0,0-1.66.5l-3.2,1.86a1.37,1.37,0,0,0-.7,1.24,1.73,1.73,0,0,0,.4,1.09,1.2,1.2,0,0,0,1,.49,1.38,1.38,0,0,0,.7-.2l1.6-.94v7.22h-1.62a2,2,0,0,0-1.32.36,1.34,1.34,0,0,0-.42,1.08c0,1,.58,1.48,1.74,1.48h6.94c1.16,0,1.74-.49,1.74-1.48a1.34,1.34,0,0,0-.42-1.08A2,2,0,0,0,116.23,120.41Zm4.48,3a1.84,1.84,0,0,0,1.37-.56,2,2,0,0,0,0-2.76,1.84,1.84,0,0,0-1.37-.56,1.88,1.88,0,0,0-1.39.56,2,2,0,0,0,0,2.76A1.88,1.88,0,0,0,120.71,123.45Zm9.7-9.34a5,5,0,0,0-2,.36V112h4.32c1.16,0,1.74-.47,1.74-1.4s-.58-1.38-1.74-1.38h-6.2a1.54,1.54,0,0,0-1.7,1.72v5.42a1.11,1.11,0,0,0,.38.87,1.38,1.38,0,0,0,.94.33,1.87,1.87,0,0,0,.9-.22,7.69,7.69,0,0,1,1.15-.36,5.25,5.25,0,0,1,1.09-.1,2.27,2.27,0,0,1,1.56.5,1.75,1.75,0,0,1,.56,1.4,1.73,1.73,0,0,1-.54,1.41,2.55,2.55,0,0,1-1.66.45,3.31,3.31,0,0,1-1.11-.18A10.83,10.83,0,0,1,127,120l-.4-.2a4.08,4.08,0,0,0-.6-.3,1.41,1.41,0,0,0-.5-.08,1,1,0,0,0-.84.43,1.69,1.69,0,0,0-.34,1,1.47,1.47,0,0,0,.15.69,1.82,1.82,0,0,0,.47.55,6.64,6.64,0,0,0,2,1,8.36,8.36,0,0,0,2.43.36,6.5,6.5,0,0,0,2.86-.6,4.49,4.49,0,0,0,1.92-1.7,4.75,4.75,0,0,0,.68-2.54,4.83,4.83,0,0,0-.57-2.37,4.05,4.05,0,0,0-1.58-1.6A4.6,4.6,0,0,0,130.41,114.11Zm42,6.3h-1.64v-9.48a1.76,1.76,0,0,0-.49-1.3,1.77,1.77,0,0,0-1.29-.48,3.4,3.4,0,0,0-1.66.5l-3.2,1.86a1.35,1.35,0,0,0-.7,1.24,1.67,1.67,0,0,0,.4,1.09,1.18,1.18,0,0,0,1,.49,1.41,1.41,0,0,0,.7-.2l1.6-.94v7.22h-1.62a2,2,0,0,0-1.32.36,1.34,1.34,0,0,0-.42,1.08c0,1,.58,1.48,1.74,1.48h6.94c1.16,0,1.74-.49,1.74-1.48a1.34,1.34,0,0,0-.42-1.08A2,2,0,0,0,172.41,120.41Zm4.48,3a1.87,1.87,0,0,0,1.37-.56,2,2,0,0,0,0-2.76,2,2,0,1,0-1.37,3.32Zm9.7-9.34a5,5,0,0,0-2,.36V112h4.32c1.16,0,1.74-.47,1.74-1.4s-.58-1.38-1.74-1.38h-6.2A1.54,1.54,0,0,0,181,111v5.42a1.08,1.08,0,0,0,.38.87,1.37,1.37,0,0,0,.94.33,1.87,1.87,0,0,0,.9-.22,7.69,7.69,0,0,1,1.15-.36,5.19,5.19,0,0,1,1.09-.1,2.3,2.3,0,0,1,1.56.5,1.79,1.79,0,0,1,.56,1.4,1.73,1.73,0,0,1-.54,1.41,2.57,2.57,0,0,1-1.66.45,3.31,3.31,0,0,1-1.11-.18,10.83,10.83,0,0,1-1.13-.48l-.4-.2a5.39,5.39,0,0,0-.6-.3,1.46,1.46,0,0,0-.5-.08,1,1,0,0,0-.84.43,1.63,1.63,0,0,0-.34,1,1.47,1.47,0,0,0,.15.69,1.69,1.69,0,0,0,.47.55,6.43,6.43,0,0,0,2,1,8.31,8.31,0,0,0,2.43.36,6.5,6.5,0,0,0,2.86-.6,4.6,4.6,0,0,0,1.92-1.7,4.75,4.75,0,0,0,.68-2.54,4.83,4.83,0,0,0-.57-2.37,4.05,4.05,0,0,0-1.58-1.6A4.65,4.65,0,0,0,186.59,114.11Z"/></svg>