<svg id="Layer_1" data-name="Layer 1" xmlns="http://www.w3.org/2000/svg" viewBox="0 0 200 150"><title>l1_3_1</title><path d="M193.63,117.36a17.5,17.5,0,1,1-29.56-12.65l-11-16.28a17.51,17.51,0,0,1-4.61.64,17.3,17.3,0,0,1-4.91-.72L132.38,105h0a17.6,17.6,0,1,1-5.84-3.86l10.81-16.09a17.48,17.48,0,0,1-2.11-24.89L114.6,46.47a17.48,17.48,0,0,1-28.86,0v0L64.26,60.74a17.48,17.48,0,0,1-2.73,24.59l10.58,15.76a17.52,17.52,0,1,1-5.94,3.72l-11-16.28a17.11,17.11,0,0,1-4.61.64,17.59,17.59,0,0,1-4.9-.71L34.49,105.1h0a17.6,17.6,0,1,1-5.83-3.85l10.8-16.1a17.5,17.5,0,0,1,19.3-29L83,39.81a18.14,18.14,0,0,1-.31-3.23,17.5,17.5,0,0,1,35,0,17,17,0,0,1-.31,3.21q11.83,8,23.65,16a17.48,17.48,0,0,1,18.41,29.46L170,101a17.33,17.33,0,0,1,6.13-1.13A17.51,17.51,0,0,1,193.63,117.36ZM109.89,69.68h-6.3v-6.3a2.9,2.9,0,0,0-3-3,2.9,2.9,0,0,0-3,3v6.3h-6.3a2.9,2.9,0,0,0-3,2.95,3,3,0,0,0,.85,2.13,2.83,2.83,0,0,0,2.1.87h6.3v6.25a2.9,2.9,0,0,0,3,3,2.82,2.82,0,0,0,2.13-.85,2.87,2.87,0,0,0,.82-2.1V75.63h6.3a2.8,2.8,0,0,0,2.1-.87,2.92,2.92,0,0,0,.85-2.13,2.9,2.9,0,0,0-3-2.95ZM91.35,39.85h-3l2.13-2.18A7,7,0,0,0,91.72,36a3.82,3.82,0,0,0,.37-1.67,2.81,2.81,0,0,0-.46-1.57,3,3,0,0,0-1.3-1.05,4.92,4.92,0,0,0-2-.36,5.52,5.52,0,0,0-1.73.27,5.76,5.76,0,0,0-1.58.75,1,1,0,0,0-.37.39,1.21,1.21,0,0,0-.1.54,1.3,1.3,0,0,0,.26.8.77.77,0,0,0,.63.33.9.9,0,0,0,.28,0,2.56,2.56,0,0,0,.31-.14l.23-.13.3-.15a7.87,7.87,0,0,1,.85-.37,2.53,2.53,0,0,1,.8-.12,1.12,1.12,0,0,1,.83.27,1,1,0,0,1,.3.78,2.91,2.91,0,0,1-1,1.9l-3.18,3.32a1.6,1.6,0,0,0-.51,1.16,1.1,1.1,0,0,0,.31.82,1.14,1.14,0,0,0,.86.33h5.47a1.49,1.49,0,0,0,1-.27,1,1,0,0,0,.33-.84,1,1,0,0,0-.33-.82A1.49,1.49,0,0,0,91.35,39.85Zm8.51-3.26a2.26,2.26,0,0,0,1.17-.88,2.57,2.57,0,0,0,.43-1.5,2.49,2.49,0,0,0-1-2.11,5.62,5.62,0,0,0-5.68,0,2.48,2.48,0,0,0-1,2.11,2.56,2.56,0,0,0,.42,1.46,2.49,2.49,0,0,0,1.2.92,2.52,2.52,0,0,0-1.41.89,2.66,2.66,0,0,0-.49,1.64,2.58,2.58,0,0,0,1.11,2.23,6.17,6.17,0,0,0,6.11,0,2.59,2.59,0,0,0,1.12-2.23,2.47,2.47,0,0,0-1.89-2.53Zm-2.28,3.48c-1.09,0-1.64-.39-1.64-1.17s.55-1.17,1.64-1.17,1.63.39,1.63,1.17S98.67,40.07,97.58,40.07Zm0-6.66a1.62,1.62,0,0,1,1,.26,1,1,0,0,1,.33.85,1,1,0,0,1-.33.85,2,2,0,0,1-2,0,1,1,0,0,1-.33-.85,1,1,0,0,1,.33-.85A1.63,1.63,0,0,1,97.58,33.41Zm6.54,8.71a1.35,1.35,0,0,0,1-.41,1.42,1.42,0,0,0,.42-1,1.38,1.38,0,0,0-.42-1,1.36,1.36,0,0,0-1-.42,1.42,1.42,0,0,0-1.05.42,1.41,1.41,0,0,0-.41,1,1.45,1.45,0,0,0,.41,1A1.42,1.42,0,0,0,104.12,42.12Zm8.82-5.53a2.26,2.26,0,0,0,1.17-.88,2.57,2.57,0,0,0,.43-1.5,2.49,2.49,0,0,0-1-2.11,5.62,5.62,0,0,0-5.68,0,2.48,2.48,0,0,0-1,2.11,2.56,2.56,0,0,0,.42,1.46,2.49,2.49,0,0,0,1.2.92,2.52,2.52,0,0,0-1.41.89,2.66,2.66,0,0,0-.49,1.64,2.58,2.58,0,0,0,1.11,2.23,6.17,6.17,0,0,0,6.11,0,2.59,2.59,0,0,0,1.12-2.23,2.47,2.47,0,0,0-1.89-2.53Zm-2.28,3.48c-1.09,0-1.64-.39-1.64-1.17s.55-1.17,1.64-1.17,1.63.39,1.63,1.17S111.75,40.07,110.66,40.07Zm0-6.66a1.62,1.62,0,0,1,1,.26,1,1,0,0,1,.33.85,1,1,0,0,1-.33.85,1.49,1.49,0,0,1-1,.27,1.52,1.52,0,0,1-1-.27,1,1,0,0,1-.33-.85,1,1,0,0,1,.33-.85A1.65,1.65,0,0,1,110.66,33.41Zm-52.86,68h-5v-5A2.32,2.32,0,0,0,50.4,94,2.32,2.32,0,0,0,48,96.38v5H43a2.39,2.39,0,0,0-1.68,4.06,2.23,2.23,0,0,0,1.68.7h5v5a2.39,2.39,0,0,0,4.06,1.68,2.31,2.31,0,0,0,.66-1.68v-5h5a2.26,2.26,0,0,0,1.68-.7,2.35,2.35,0,0,0,.68-1.7,2.32,2.32,0,0,0-2.36-2.36Zm-15-25.49h-3l2.13-2.17a7,7,0,0,0,1.25-1.69,3.82,3.82,0,0,0,.37-1.67,2.81,2.81,0,0,0-.46-1.57,3,3,0,0,0-1.3-1,4.91,4.91,0,0,0-1.95-.37,6.09,6.09,0,0,0-3.31,1,1,1,0,0,0-.37.39,1.21,1.21,0,0,0-.1.54,1.33,1.33,0,0,0,.26.81.77.77,0,0,0,.63.33.86.86,0,0,0,.28,0,2.56,2.56,0,0,0,.31-.14l.23-.13L38,70a7.87,7.87,0,0,1,.85-.37,2.53,2.53,0,0,1,.8-.13,1.17,1.17,0,0,1,.83.27,1,1,0,0,1,.3.78,2.93,2.93,0,0,1-1,1.91l-3.18,3.31A1.64,1.64,0,0,0,36.14,77a1.12,1.12,0,0,0,.31.82,1.13,1.13,0,0,0,.86.32h5.47a1.49,1.49,0,0,0,1-.27,1,1,0,0,0,.33-.84,1,1,0,0,0-.33-.81A1.49,1.49,0,0,0,42.78,75.93ZM52,67.55H46.16a1.45,1.45,0,0,0-1,.28,1,1,0,0,0-.32.83,1,1,0,0,0,.31.81,1.5,1.5,0,0,0,1,.27h3.75l-3.86,6.58a1.42,1.42,0,0,0-.21.72,1.13,1.13,0,0,0,.41.87,1.4,1.4,0,0,0,.93.35,1.29,1.29,0,0,0,.63-.17,1.42,1.42,0,0,0,.52-.54l4.55-7.87a1.91,1.91,0,0,0,.28-1,1.21,1.21,0,0,0-.29-.82A1.08,1.08,0,0,0,52,67.55Zm3.51,10.66a1.36,1.36,0,0,0,1-.42,1.4,1.4,0,0,0,.42-1,1.42,1.42,0,0,0-.42-1,1.36,1.36,0,0,0-1-.42,1.42,1.42,0,0,0-1,.42,1.45,1.45,0,0,0-.41,1,1.42,1.42,0,0,0,1.46,1.45Zm7.27-7a3.72,3.72,0,0,0-1.48.27V69.63h3.24c.87,0,1.3-.35,1.3-1s-.43-1-1.3-1H59.93a1.16,1.16,0,0,0-1.28,1.29V72.9a.85.85,0,0,0,.29.66,1,1,0,0,0,.7.24,1.45,1.45,0,0,0,.68-.16,5.15,5.15,0,0,1,.86-.27,4.07,4.07,0,0,1,.82-.08,1.7,1.7,0,0,1,1.17.38,1.33,1.33,0,0,1,.42,1,1.31,1.31,0,0,1-.41,1.06,1.93,1.93,0,0,1-1.24.33A2.55,2.55,0,0,1,61.1,76a8.8,8.8,0,0,1-.84-.36l-.3-.15a4.9,4.9,0,0,0-.45-.23,1,1,0,0,0-.38-.06.77.77,0,0,0-.63.33,1.2,1.2,0,0,0-.25.78,1.05,1.05,0,0,0,.11.52,1.2,1.2,0,0,0,.35.41,4.91,4.91,0,0,0,1.54.75,6.22,6.22,0,0,0,1.82.27,4.89,4.89,0,0,0,2.15-.45,3.37,3.37,0,0,0,1.44-1.27,3.57,3.57,0,0,0,.51-1.91,3.62,3.62,0,0,0-.43-1.77,3,3,0,0,0-1.19-1.2A3.39,3.39,0,0,0,62.82,71.21ZM13.71,121.37h-3l2.13-2.18a7.3,7.3,0,0,0,1.26-1.68,3.9,3.9,0,0,0,.36-1.68,2.75,2.75,0,0,0-.45-1.56,2.9,2.9,0,0,0-1.3-1,4.74,4.74,0,0,0-1.95-.37,6.16,6.16,0,0,0-3.32,1,.93.93,0,0,0-.36.39,1.21,1.21,0,0,0-.1.54,1.27,1.27,0,0,0,.25.8.75.75,0,0,0,.63.34.93.93,0,0,0,.29,0,1.59,1.59,0,0,0,.31-.14l.23-.13.3-.15a6.1,6.1,0,0,1,.85-.36,2.28,2.28,0,0,1,.8-.13,1.17,1.17,0,0,1,.83.27,1,1,0,0,1,.29.78,2.91,2.91,0,0,1-1,1.9l-3.18,3.32a1.64,1.64,0,0,0-.51,1.17,1.1,1.1,0,0,0,1.17,1.14h5.48a1.49,1.49,0,0,0,1-.27,1,1,0,0,0,.32-.84,1,1,0,0,0-.32-.82A1.55,1.55,0,0,0,13.71,121.37Zm6.22,2.32a3.5,3.5,0,0,0,3-1.39,8.33,8.33,0,0,0,0-8.06,3.53,3.53,0,0,0-3-1.39,3.5,3.5,0,0,0-3,1.39,8.4,8.4,0,0,0,0,8.06A3.5,3.5,0,0,0,19.93,123.69Zm0-2.08a1.07,1.07,0,0,1-1-.78,7.47,7.47,0,0,1-.32-2.57,7.3,7.3,0,0,1,.32-2.55,1.07,1.07,0,0,1,1-.78,1.08,1.08,0,0,1,1,.78,7.43,7.43,0,0,1,.31,2.55,7.53,7.53,0,0,1-.31,2.57A1.08,1.08,0,0,1,19.93,121.61Zm6.54,2a1.38,1.38,0,0,0,1-.42,1.41,1.41,0,0,0,.41-1,1.42,1.42,0,0,0-1.44-1.45,1.4,1.4,0,0,0-1,.42,1.43,1.43,0,0,0-.41,1,1.45,1.45,0,0,0,.41,1A1.4,1.4,0,0,0,26.47,123.65Zm9.33-2.28h-3l2.13-2.18a6.94,6.94,0,0,0,1.25-1.68,3.76,3.76,0,0,0,.37-1.68,2.68,2.68,0,0,0-.46-1.56,2.84,2.84,0,0,0-1.3-1,4.74,4.74,0,0,0-2-.37,6.09,6.09,0,0,0-3.31,1,1,1,0,0,0-.37.39,1.37,1.37,0,0,0-.1.54,1.28,1.28,0,0,0,.26.8.75.75,0,0,0,.63.34.87.87,0,0,0,.28,0,1.36,1.36,0,0,0,.31-.14l.23-.13.3-.15a6.65,6.65,0,0,1,.85-.36,2.32,2.32,0,0,1,.8-.13,1.21,1.21,0,0,1,.84.27,1,1,0,0,1,.29.78,2.91,2.91,0,0,1-1,1.9l-3.18,3.32a1.64,1.64,0,0,0-.51,1.17,1.13,1.13,0,0,0,.31.82,1.17,1.17,0,0,0,.86.32H35.8a1.54,1.54,0,0,0,1-.27,1,1,0,0,0,.32-.84,1,1,0,0,0-.32-.82A1.6,1.6,0,0,0,35.8,121.37Zm37.63-9.91H65.59a2,2,0,0,0-1.32.37,1.38,1.38,0,0,0-.42,1.11,1.34,1.34,0,0,0,.41,1.08,2,2,0,0,0,1.33.36h5l-5.14,8.78a1.86,1.86,0,0,0-.28,1,1.48,1.48,0,0,0,.54,1.15,1.84,1.84,0,0,0,1.24.47,1.78,1.78,0,0,0,.85-.23,2,2,0,0,0,.69-.71l6.06-10.5a2.6,2.6,0,0,0,.38-1.32,1.55,1.55,0,0,0-.39-1.09A1.41,1.41,0,0,0,73.43,111.46Zm4.68,14.22a1.87,1.87,0,0,0,1.37-.56,1.94,1.94,0,0,0,.55-1.38,1.91,1.91,0,0,0-.55-1.38,2,2,0,0,0-2.76,0,1.87,1.87,0,0,0-.55,1.38,1.9,1.9,0,0,0,.55,1.38A1.87,1.87,0,0,0,78.11,125.68Zm11.26-7.38A3.3,3.3,0,0,0,91,117.09a3.35,3.35,0,0,0,.57-1.93,3.51,3.51,0,0,0-.61-2,3.93,3.93,0,0,0-1.74-1.36,6.68,6.68,0,0,0-2.61-.48,8,8,0,0,0-2.37.36,6.53,6.53,0,0,0-2,1,1.49,1.49,0,0,0-.48.54,1.46,1.46,0,0,0-.14.7,1.63,1.63,0,0,0,.34,1.05,1,1,0,0,0,.84.43,1.35,1.35,0,0,0,.5-.09l.6-.29.42-.2a10.48,10.48,0,0,1,1.09-.48,3,3,0,0,1,1-.18,1.7,1.7,0,0,1,1.22.41,1.49,1.49,0,0,1,.44,1.15,1.14,1.14,0,0,1-.5,1A3.12,3.12,0,0,1,86,117h-.88a1.13,1.13,0,0,0-.94.42,1.52,1.52,0,0,0-.34,1,1.53,1.53,0,0,0,.34,1,1.13,1.13,0,0,0,.94.42h1.24a3,3,0,0,1,1.64.34,1.26,1.26,0,0,1,.5,1.12,1.41,1.41,0,0,1-.49,1.2,2.8,2.8,0,0,1-1.61.36,3.71,3.71,0,0,1-1.15-.17,10.09,10.09,0,0,1-1.15-.49l-.25-.11-.19-.09c-.26-.14-.46-.23-.6-.29a1.35,1.35,0,0,0-.5-.09,1,1,0,0,0-.84.43,1.6,1.6,0,0,0-.34,1.05,1.52,1.52,0,0,0,.14.69,1.59,1.59,0,0,0,.48.55,6.5,6.5,0,0,0,2.08,1,9,9,0,0,0,2.5.35,7.65,7.65,0,0,0,2.83-.49,4.27,4.27,0,0,0,1.87-1.39,3.49,3.49,0,0,0,.66-2.12,3.58,3.58,0,0,0-.67-2.18A3.4,3.4,0,0,0,89.37,118.3Zm66.32-17h-5v-5A2.25,2.25,0,0,0,150,94.6a2.28,2.28,0,0,0-1.68-.68,2.32,2.32,0,0,0-1.68.68,2.28,2.28,0,0,0-.68,1.68v5h-5a2.32,2.32,0,0,0-1.68.68,2.28,2.28,0,0,0-.68,1.68,2.36,2.36,0,0,0,.68,1.7,2.26,2.26,0,0,0,1.68.7h5v5a2.28,2.28,0,0,0,.68,1.68,2.32,2.32,0,0,0,1.68.68,2.27,2.27,0,0,0,1.7-.68,2.31,2.31,0,0,0,.66-1.68v-5h5a2.23,2.23,0,0,0,1.68-.7,2.32,2.32,0,0,0,.68-1.7,2.25,2.25,0,0,0-.68-1.68A2.28,2.28,0,0,0,155.69,101.32ZM144.46,76.1h-1.64V66.62a1.76,1.76,0,0,0-.49-1.3,1.77,1.77,0,0,0-1.29-.48,3.4,3.4,0,0,0-1.66.5l-3.2,1.86a1.35,1.35,0,0,0-.7,1.24,1.67,1.67,0,0,0,.4,1.09,1.18,1.18,0,0,0,1,.49,1.41,1.41,0,0,0,.7-.2l1.6-.94V76.1h-1.62a2,2,0,0,0-1.32.36,1.34,1.34,0,0,0-.42,1.08c0,1,.58,1.48,1.74,1.48h6.94c1.16,0,1.74-.49,1.74-1.48a1.34,1.34,0,0,0-.42-1.08A2,2,0,0,0,144.46,76.1Zm4.48,3a1.87,1.87,0,0,0,1.37-.56,2,2,0,0,0,0-2.76,2,2,0,1,0-1.37,3.32Zm11.26-7.38a3.29,3.29,0,0,0,1.59-1.21,3.33,3.33,0,0,0,.57-1.93,3.56,3.56,0,0,0-.61-2A3.9,3.9,0,0,0,160,65.22a6.59,6.59,0,0,0-2.6-.48,8,8,0,0,0-2.37.36,6.53,6.53,0,0,0-2,1,1.41,1.41,0,0,0-.63,1.24,1.69,1.69,0,0,0,.34,1,1,1,0,0,0,.85.43,1.35,1.35,0,0,0,.5-.09l.6-.29.42-.2a10.48,10.48,0,0,1,1.09-.48,3,3,0,0,1,1-.18,1.76,1.76,0,0,1,1.23.41,1.5,1.5,0,0,1,.43,1.15,1.1,1.1,0,0,1-.5,1,3.05,3.05,0,0,1-1.59.32h-.88a1.13,1.13,0,0,0-.94.42,1.64,1.64,0,0,0,0,2,1.13,1.13,0,0,0,.94.42h1.24a3,3,0,0,1,1.64.34,1.27,1.27,0,0,1,.5,1.12,1.41,1.41,0,0,1-.49,1.2,2.81,2.81,0,0,1-1.62.36,3.69,3.69,0,0,1-1.14-.17,9.22,9.22,0,0,1-1.16-.49l-.25-.11-.18-.09c-.26-.13-.46-.23-.61-.29a1.28,1.28,0,0,0-.5-.09,1,1,0,0,0-.83.43,1.63,1.63,0,0,0-.34,1,1.6,1.6,0,0,0,.13.69,1.65,1.65,0,0,0,.49.55,6.3,6.3,0,0,0,2.08,1,9,9,0,0,0,2.5.35,7.45,7.45,0,0,0,2.83-.49,4.27,4.27,0,0,0,1.87-1.39,3.49,3.49,0,0,0,.65-2.12A3.53,3.53,0,0,0,162,73,3.39,3.39,0,0,0,160.2,71.76Zm-44.85,50.78h-1.64v-9.48a1.8,1.8,0,0,0-.49-1.31,1.82,1.82,0,0,0-1.29-.48,3.4,3.4,0,0,0-1.66.5l-3.2,1.87a1.33,1.33,0,0,0-.7,1.23,1.65,1.65,0,0,0,.4,1.09,1.19,1.19,0,0,0,1,.5,1.32,1.32,0,0,0,.7-.21l1.6-.94v7.23h-1.62a2.06,2.06,0,0,0-1.32.35,1.38,1.38,0,0,0-.42,1.09c0,1,.58,1.48,1.74,1.48h6.94c1.16,0,1.74-.5,1.74-1.48a1.38,1.38,0,0,0-.42-1.09A2.06,2.06,0,0,0,115.35,122.54Zm4.48,3a1.87,1.87,0,0,0,1.37-.56,2,2,0,0,0,0-2.77,2,2,0,0,0-2.76,0,2,2,0,0,0,0,2.77A1.87,1.87,0,0,0,119.83,125.58Zm13-3h-1.64v-9.48a1.8,1.8,0,0,0-.49-1.31,1.82,1.82,0,0,0-1.29-.48,3.4,3.4,0,0,0-1.66.5l-3.2,1.87a1.33,1.33,0,0,0-.7,1.23,1.65,1.65,0,0,0,.4,1.09,1.19,1.19,0,0,0,1,.5,1.32,1.32,0,0,0,.7-.21l1.6-.94v7.23h-1.62a2.06,2.06,0,0,0-1.32.35,1.38,1.38,0,0,0-.42,1.09c0,1,.58,1.48,1.74,1.48h6.94c1.16,0,1.74-.5,1.74-1.48a1.38,1.38,0,0,0-.42-1.09A2.06,2.06,0,0,0,132.79,122.54Zm34.48,3.1a4.65,4.65,0,0,0,4-1.87,8.9,8.9,0,0,0,1.38-5.38,8.77,8.77,0,0,0-1.39-5.35,5.22,5.22,0,0,0-8,0,11.12,11.12,0,0,0,0,10.73A4.66,4.66,0,0,0,167.27,125.64Zm0-2.79a1.43,1.43,0,0,1-1.38-1,14.09,14.09,0,0,1,0-6.83,1.44,1.44,0,0,1,2.76,0,9.81,9.81,0,0,1,.42,3.39,9.93,9.93,0,0,1-.42,3.42A1.43,1.43,0,0,1,167.27,122.85Zm8.72,2.73a1.84,1.84,0,0,0,1.37-.56,2,2,0,0,0,0-2.77,1.83,1.83,0,0,0-1.37-.55,1.88,1.88,0,0,0-1.39.55,2,2,0,0,0,0,2.77A1.88,1.88,0,0,0,176,125.58Zm12.44-3h-4l2.84-2.9a9.22,9.22,0,0,0,1.67-2.25,5,5,0,0,0,.49-2.23,3.67,3.67,0,0,0-.61-2.1,3.92,3.92,0,0,0-1.73-1.4,6.52,6.52,0,0,0-2.6-.48,8.14,8.14,0,0,0-4.42,1.36,1.33,1.33,0,0,0-.49.52,1.77,1.77,0,0,0-.13.71,1.8,1.8,0,0,0,.34,1.08,1,1,0,0,0,.84.44,1.16,1.16,0,0,0,.38-.06,1.62,1.62,0,0,0,.41-.19l.31-.17.4-.19a8.79,8.79,0,0,1,1.13-.49,3.12,3.12,0,0,1,1.07-.17,1.62,1.62,0,0,1,1.11.35,1.36,1.36,0,0,1,.39,1,3.9,3.9,0,0,1-1.32,2.55l-4.24,4.41a2.22,2.22,0,0,0-.68,1.57A1.48,1.48,0,0,0,180,125a1.51,1.51,0,0,0,1.14.44h7.3a2,2,0,0,0,1.31-.36,1.39,1.39,0,0,0,.43-1.12,1.3,1.3,0,0,0-.43-1.09A2,2,0,0,0,188.43,122.54Z"/></svg>