<svg id="Layer_1" data-name="Layer 1" xmlns="http://www.w3.org/2000/svg" viewBox="0 0 100 100"><title>l1_3_1</title><path d="M95,74.63A17.5,17.5,0,1,1,65.47,62l-11-16.28A17.13,17.13,0,0,1,45,45.62L33.78,62.26h0a17.53,17.53,0,1,1-5.84-3.86L38.75,42.31a17.5,17.5,0,1,1,22.07.18L71.4,58.25a17.32,17.32,0,0,1,6.13-1.12A17.5,17.5,0,0,1,95,74.63Zm-37.94-14h-5v-5a2.32,2.32,0,0,0-2.36-2.36,2.32,2.32,0,0,0-2.36,2.36v5h-5a2.32,2.32,0,0,0-2.36,2.36,2.38,2.38,0,0,0,.68,1.7,2.3,2.3,0,0,0,1.68.7h5v5a2.32,2.32,0,0,0,2.36,2.36,2.27,2.27,0,0,0,1.7-.68,2.34,2.34,0,0,0,.66-1.68v-5h5a2.26,2.26,0,0,0,1.68-.7,2.34,2.34,0,0,0,.68-1.7,2.32,2.32,0,0,0-2.36-2.36ZM38.3,34.76a3.53,3.53,0,0,0,3-1.39,6.71,6.71,0,0,0,1-4,6.67,6.67,0,0,0-1-4,3.52,3.52,0,0,0-3-1.39,3.49,3.49,0,0,0-3,1.39,6.6,6.6,0,0,0-1,4,6.64,6.64,0,0,0,1,4A3.49,3.49,0,0,0,38.3,34.76Zm0-2.08a1.07,1.07,0,0,1-1-.78A7.53,7.53,0,0,1,37,29.33a7.46,7.46,0,0,1,.31-2.56,1.08,1.08,0,0,1,2.07,0,7.43,7.43,0,0,1,.31,2.55,7.53,7.53,0,0,1-.31,2.57A1.07,1.07,0,0,1,38.3,32.68Zm6.54,2a1.36,1.36,0,0,0,1-.42,1.42,1.42,0,0,0,.42-1,1.4,1.4,0,0,0-.42-1,1.36,1.36,0,0,0-1-.42,1.42,1.42,0,0,0-1.46,1.45,1.45,1.45,0,0,0,.41,1A1.42,1.42,0,0,0,44.84,34.72Zm9.71-2.28H53.33V25.33A1.26,1.26,0,0,0,52,24a2.5,2.5,0,0,0-1.24.38l-2.41,1.39a1,1,0,0,0-.52.93,1.28,1.28,0,0,0,.3.82.92.92,0,0,0,.72.37,1,1,0,0,0,.53-.15l1.2-.71v5.42H49.35a1.5,1.5,0,0,0-1,.27,1,1,0,0,0-.31.81c0,.74.43,1.11,1.3,1.11h5.2c.87,0,1.31-.37,1.31-1.11a1,1,0,0,0-.31-.81A1.51,1.51,0,0,0,54.55,32.44Zm8.85-8.39H57.52a1.45,1.45,0,0,0-1,.28,1,1,0,0,0-.31.83,1,1,0,0,0,.31.81,1.47,1.47,0,0,0,1,.27h3.75l-3.85,6.59a1.42,1.42,0,0,0-.21.72,1.1,1.1,0,0,0,.4.86,1.4,1.4,0,0,0,.93.35,1.33,1.33,0,0,0,.64-.17,1.39,1.39,0,0,0,.52-.53l4.54-7.88a1.92,1.92,0,0,0,.29-1,1.21,1.21,0,0,0-.29-.82A1.11,1.11,0,0,0,63.4,24.05ZM10.23,80.85a3.51,3.51,0,0,0,3-1.4,6.68,6.68,0,0,0,1-4,6.6,6.6,0,0,0-1-4,3.5,3.5,0,0,0-3-1.4,3.51,3.51,0,0,0-3,1.4,6.67,6.67,0,0,0-1,4,6.68,6.68,0,0,0,1,4A3.51,3.51,0,0,0,10.23,80.85Zm0-2.09a1.08,1.08,0,0,1-1-.78,7.46,7.46,0,0,1-.31-2.56,7.46,7.46,0,0,1,.31-2.56,1.08,1.08,0,0,1,1-.77,1.07,1.07,0,0,1,1,.78,10.36,10.36,0,0,1,0,5.11A1.07,1.07,0,0,1,10.23,78.76Zm6.54,2a1.4,1.4,0,0,0,1-.42,1.43,1.43,0,0,0,.41-1,1.45,1.45,0,0,0-.41-1,1.49,1.49,0,0,0-2.07,0,1.42,1.42,0,0,0-.42,1,1.43,1.43,0,0,0,1.46,1.45Zm9.72-2.28H25.26V71.41a1.27,1.27,0,0,0-.37-1,1.32,1.32,0,0,0-1-.36,2.51,2.51,0,0,0-1.24.37l-2.4,1.4a1,1,0,0,0-.53.93,1.28,1.28,0,0,0,.3.82.91.91,0,0,0,.72.36,1,1,0,0,0,.53-.15l1.2-.7v5.41H21.28a1.5,1.5,0,0,0-1,.27,1,1,0,0,0-.31.81c0,.74.43,1.11,1.3,1.11h5.21c.87,0,1.3-.37,1.3-1.11a1,1,0,0,0-.31-.81A1.5,1.5,0,0,0,26.49,78.52Zm7.72-3.25a2.45,2.45,0,0,0,1.2-.91,2.52,2.52,0,0,0,.42-1.45,2.65,2.65,0,0,0-.45-1.53,3,3,0,0,0-1.31-1,5,5,0,0,0-2-.36,5.94,5.94,0,0,0-1.77.27,5,5,0,0,0-1.53.75,1.22,1.22,0,0,0-.36.41,1.15,1.15,0,0,0-.1.52,1.22,1.22,0,0,0,.25.79.76.76,0,0,0,.63.32,1.12,1.12,0,0,0,.38-.06l.45-.22.31-.15a8.64,8.64,0,0,1,.82-.36,2.26,2.26,0,0,1,.79-.14,1.3,1.3,0,0,1,.91.31,1.12,1.12,0,0,1,.33.86.85.85,0,0,1-.37.77,2.3,2.3,0,0,1-1.2.24H31a.86.86,0,0,0-.71.31,1.25,1.25,0,0,0,0,1.5.87.87,0,0,0,.71.32h.93a2.26,2.26,0,0,1,1.23.25.94.94,0,0,1,.37.84,1.05,1.05,0,0,1-.36.9A2.1,2.1,0,0,1,32,78.7a2.84,2.84,0,0,1-.86-.12,7.25,7.25,0,0,1-.87-.37L30,78.13l-.15-.07-.45-.22a1.06,1.06,0,0,0-.37-.07.77.77,0,0,0-.63.33,1.2,1.2,0,0,0-.26.78,1.17,1.17,0,0,0,.11.52,1.13,1.13,0,0,0,.36.41,4.73,4.73,0,0,0,1.56.76,6.81,6.81,0,0,0,1.87.26,5.8,5.8,0,0,0,2.13-.36,3.23,3.23,0,0,0,1.4-1,2.61,2.61,0,0,0,.49-1.59,2.68,2.68,0,0,0-.5-1.63A2.58,2.58,0,0,0,34.21,75.27Zm32.15,5.58a3.51,3.51,0,0,0,3-1.4,6.68,6.68,0,0,0,1-4,6.6,6.6,0,0,0-1.05-4,3.9,3.9,0,0,0-6,0,6.67,6.67,0,0,0-1,4,6.68,6.68,0,0,0,1,4A3.51,3.51,0,0,0,66.36,80.85Zm0-2.09a1.07,1.07,0,0,1-1-.78,10.4,10.4,0,0,1,0-5.12,1.08,1.08,0,0,1,2.07,0,7.43,7.43,0,0,1,.31,2.55A7.46,7.46,0,0,1,67.4,78,1.08,1.08,0,0,1,66.36,78.76Zm6.54,2a1.42,1.42,0,0,0,1.44-1.45,1.41,1.41,0,0,0-.41-1,1.49,1.49,0,0,0-2.07,0,1.45,1.45,0,0,0-.41,1,1.43,1.43,0,0,0,.41,1A1.39,1.39,0,0,0,72.9,80.8Zm6.54,0a3.51,3.51,0,0,0,3-1.4,6.68,6.68,0,0,0,1-4,6.6,6.6,0,0,0-1-4,3.9,3.9,0,0,0-6,0,6.67,6.67,0,0,0-1,4,6.68,6.68,0,0,0,1,4A3.51,3.51,0,0,0,79.44,80.85Zm0-2.09a1.07,1.07,0,0,1-1-.78,10.4,10.4,0,0,1,0-5.12,1.08,1.08,0,0,1,2.07,0,7.43,7.43,0,0,1,.31,2.55A7.46,7.46,0,0,1,80.48,78,1.08,1.08,0,0,1,79.44,78.76Zm12.23-1.93h-.33V71.41a1.27,1.27,0,0,0-.41-1,1.4,1.4,0,0,0-1-.36,1.44,1.44,0,0,0-.67.16,1.28,1.28,0,0,0-.53.45l-4.29,6.12a1.68,1.68,0,0,0-.33,1,1.16,1.16,0,0,0,.31.83,1.14,1.14,0,0,0,.86.33h3.34v.51a1.32,1.32,0,0,0,.37,1,1.35,1.35,0,0,0,1,.34,1.37,1.37,0,0,0,1-.34,1.32,1.32,0,0,0,.38-1v-.51h.33c.87,0,1.3-.36,1.3-1.07S92.54,76.83,91.67,76.83Zm-4.82,0,1.8-2.6v2.6Z"/></svg>