<svg id="Layer_1" data-name="Layer 1" xmlns="http://www.w3.org/2000/svg" viewBox="0 0 200 150"><title>l1_3_1</title><path d="M195.05,110.26A17.5,17.5,0,1,1,165.49,97.6l-11-16.27a17.51,17.51,0,0,1-4.61.63,17.23,17.23,0,0,1-4.9-.71L133.81,97.9h0A17.55,17.55,0,1,1,128,94L138.77,78a17.46,17.46,0,0,1-2.1-24.89L116,39.36a17.48,17.48,0,0,1-28.87,0v0L65.69,53.64A17.47,17.47,0,0,1,63,78.23L73.53,94a17.33,17.33,0,0,1,6.13-1.13A17.55,17.55,0,1,1,67.6,97.71l-11-16.28a17.13,17.13,0,0,1-9.52-.07L35.91,98h0a17.6,17.6,0,1,1-5.84-3.86l10.8-16.09a17.5,17.5,0,0,1,19.3-29L84.4,32.7a17.94,17.94,0,0,1-.3-3.22,17.5,17.5,0,0,1,35,0,17.8,17.8,0,0,1-.31,3.2q11.82,8,23.65,16a17.49,17.49,0,0,1,18.41,29.46l10.58,15.77a17.27,17.27,0,0,1,6.12-1.13A17.5,17.5,0,0,1,195.05,110.26ZM111.32,62.58H105v-6.3a2.89,2.89,0,0,0-.85-2.1,3,3,0,0,0-5,2.1v6.3h-6.3a2.9,2.9,0,0,0-2.95,3,3,3,0,0,0,.85,2.13,2.81,2.81,0,0,0,2.1.87h6.3v6.25a3,3,0,0,0,5.07,2.1,2.9,2.9,0,0,0,.83-2.1V68.53h6.3a2.83,2.83,0,0,0,2.1-.87,3,3,0,0,0,.85-2.13,2.89,2.89,0,0,0-.85-2.1A2.85,2.85,0,0,0,111.32,62.58ZM91.81,22.65a5.19,5.19,0,0,0-2.54.62A4.48,4.48,0,0,0,87.52,25a5.35,5.35,0,0,0-.08,4.88A4.13,4.13,0,0,0,89,31.52a4,4,0,0,0,2.16.59,3.8,3.8,0,0,0,1.69-.37,3.13,3.13,0,0,0,1.23-1,5.32,5.32,0,0,1-.75,2.61,1.91,1.91,0,0,1-1.65.93,2.58,2.58,0,0,1-.92-.16,9.48,9.48,0,0,1-1.1-.48l-.44-.22c-.25-.13-.45-.23-.6-.29a1.31,1.31,0,0,0-.5-.09,1.09,1.09,0,0,0-.85.43,1.64,1.64,0,0,0-.35,1,1.45,1.45,0,0,0,.15.7,1.63,1.63,0,0,0,.49.54,6.31,6.31,0,0,0,2,1,7.75,7.75,0,0,0,2.29.36,5.42,5.42,0,0,0,3.11-.9A5.72,5.72,0,0,0,97,33.64a9.61,9.61,0,0,0,.73-3.91,8,8,0,0,0-1.54-5.24A5.39,5.39,0,0,0,91.81,22.65ZM92,29.27a1.58,1.58,0,0,1-1.25-.51,2.34,2.34,0,0,1,0-2.77,1.73,1.73,0,0,1,2.48,0,2.23,2.23,0,0,1,0,2.75A1.59,1.59,0,0,1,92,29.27Zm9,7.78a1.82,1.82,0,0,0,1.37-.56,1.87,1.87,0,0,0,.55-1.38,1.9,1.9,0,0,0-.55-1.38,1.85,1.85,0,0,0-1.37-.56,2,2,0,0,0-1.39,3.32A1.85,1.85,0,0,0,101,37.05Zm11.26-7.38a3.19,3.19,0,0,0,1.59-1.21,3.3,3.3,0,0,0,.57-1.93,3.48,3.48,0,0,0-.61-2,4,4,0,0,0-1.74-1.36,6.61,6.61,0,0,0-2.61-.48,8,8,0,0,0-2.37.36,6.75,6.75,0,0,0-2,1,1.67,1.67,0,0,0-.48.54,1.62,1.62,0,0,0-.14.7,1.6,1.6,0,0,0,.34,1.05,1,1,0,0,0,.84.43,1.31,1.31,0,0,0,.5-.09,5.1,5.1,0,0,0,.6-.29l.42-.2a10.48,10.48,0,0,1,1.09-.48,3,3,0,0,1,1-.18,1.73,1.73,0,0,1,1.22.41,1.52,1.52,0,0,1,.44,1.15,1.12,1.12,0,0,1-.5,1,3,3,0,0,1-1.6.32H108a1.15,1.15,0,0,0-.94.42,1.53,1.53,0,0,0-.34,1,1.52,1.52,0,0,0,.34,1,1.15,1.15,0,0,0,.94.42h1.24a3.06,3.06,0,0,1,1.64.34,1.27,1.27,0,0,1,.5,1.12,1.38,1.38,0,0,1-.49,1.2,2.77,2.77,0,0,1-1.61.36,3.43,3.43,0,0,1-1.15-.17,7.87,7.87,0,0,1-1.15-.49l-.25-.11-.19-.09c-.25-.13-.45-.23-.6-.29a1.31,1.31,0,0,0-.5-.09,1.06,1.06,0,0,0-.84.43,1.63,1.63,0,0,0-.34,1.05,1.6,1.6,0,0,0,.14.69,1.44,1.44,0,0,0,.48.55,6.4,6.4,0,0,0,2.08,1,8.63,8.63,0,0,0,2.5.35,7.45,7.45,0,0,0,2.83-.49,4.14,4.14,0,0,0,1.87-1.39,3.47,3.47,0,0,0,.66-2.12,3.53,3.53,0,0,0-.67-2.18A3.42,3.42,0,0,0,112.29,29.67ZM59.22,94.32h-5v-5a2.25,2.25,0,0,0-.68-1.68,2.28,2.28,0,0,0-1.68-.68,2.32,2.32,0,0,0-1.68.68,2.28,2.28,0,0,0-.68,1.68v5h-5a2.32,2.32,0,0,0-1.68.68,2.28,2.28,0,0,0-.68,1.68,2.36,2.36,0,0,0,.68,1.7,2.26,2.26,0,0,0,1.68.7h5v5a2.28,2.28,0,0,0,.68,1.68,2.32,2.32,0,0,0,1.68.68,2.27,2.27,0,0,0,1.7-.68,2.31,2.31,0,0,0,.66-1.68v-5h5a2.23,2.23,0,0,0,1.68-.7,2.32,2.32,0,0,0,.68-1.7A2.25,2.25,0,0,0,60.9,95,2.28,2.28,0,0,0,59.22,94.32Zm-16-36.58a5.22,5.22,0,0,0-2.54.62A4.48,4.48,0,0,0,39,60.09a5,5,0,0,0-.63,2.51A5.11,5.11,0,0,0,38.87,65a4.13,4.13,0,0,0,1.51,1.64,4.07,4.07,0,0,0,2.16.59,3.77,3.77,0,0,0,1.69-.37,3.08,3.08,0,0,0,1.23-1,5.32,5.32,0,0,1-.75,2.61,1.91,1.91,0,0,1-1.65.93,2.62,2.62,0,0,1-.92-.16c-.29-.11-.66-.27-1.1-.48l-.44-.22c-.25-.13-.45-.23-.6-.29a1.28,1.28,0,0,0-.5-.09,1.06,1.06,0,0,0-.85.43,1.64,1.64,0,0,0-.35,1,1.48,1.48,0,0,0,.15.7,1.74,1.74,0,0,0,.49.54,6.31,6.31,0,0,0,2,1,7.8,7.8,0,0,0,2.29.36,5.39,5.39,0,0,0,3.11-.9,5.77,5.77,0,0,0,2.06-2.57,9.64,9.64,0,0,0,.73-3.91,7.93,7.93,0,0,0-1.54-5.24A5.35,5.35,0,0,0,43.24,57.74Zm.22,6.62a1.58,1.58,0,0,1-1.25-.51,2,2,0,0,1-.45-1.39,2.05,2.05,0,0,1,.46-1.38,1.57,1.57,0,0,1,1.24-.52,1.6,1.6,0,0,1,1.24.53,2.23,2.23,0,0,1,0,2.75A1.59,1.59,0,0,1,43.46,64.36Zm9,7.78a1.84,1.84,0,0,0,1.37-.56,2,2,0,0,0,0-2.76,1.84,1.84,0,0,0-1.37-.56,1.88,1.88,0,0,0-1.39.56,2,2,0,0,0,0,2.76A1.88,1.88,0,0,0,52.46,72.14Zm8.72.06a4.67,4.67,0,0,0,4-1.86A8.92,8.92,0,0,0,66.56,65a8.82,8.82,0,0,0-1.39-5.36,5.22,5.22,0,0,0-8,0A8.9,8.9,0,0,0,55.8,65a8.92,8.92,0,0,0,1.38,5.38A4.68,4.68,0,0,0,61.18,72.2Zm0-2.78a1.44,1.44,0,0,1-1.38-1A9.93,9.93,0,0,1,59.38,65a9.86,9.86,0,0,1,.42-3.41,1.44,1.44,0,0,1,2.76,0A9.88,9.88,0,0,1,63,65a9.93,9.93,0,0,1-.42,3.42A1.44,1.44,0,0,1,61.18,69.42ZM15.66,109.24a5,5,0,0,0-2,.36v-2.46H18c1.16,0,1.74-.47,1.74-1.4s-.58-1.38-1.74-1.38H11.8a1.67,1.67,0,0,0-1.26.44,1.7,1.7,0,0,0-.44,1.28v5.42a1.08,1.08,0,0,0,.38.87,1.37,1.37,0,0,0,.94.33,2,2,0,0,0,.9-.22,5.9,5.9,0,0,1,1.15-.36,5.19,5.19,0,0,1,1.09-.1,2.25,2.25,0,0,1,1.56.5,1.79,1.79,0,0,1,.56,1.4,1.73,1.73,0,0,1-.54,1.41,2.57,2.57,0,0,1-1.66.45,3.31,3.31,0,0,1-1.11-.18,10.83,10.83,0,0,1-1.13-.48l-.4-.2a5.39,5.39,0,0,0-.6-.3,1.25,1.25,0,0,0-.5-.08,1,1,0,0,0-.84.43,1.6,1.6,0,0,0-.34,1,1.52,1.52,0,0,0,.15.69,1.79,1.79,0,0,0,.47.55,6.64,6.64,0,0,0,2.05,1,8.31,8.31,0,0,0,2.43.36,6.5,6.5,0,0,0,2.86-.6,4.6,4.6,0,0,0,1.92-1.7,5.14,5.14,0,0,0,.11-4.91,4.05,4.05,0,0,0-1.58-1.6A4.65,4.65,0,0,0,15.66,109.24Zm7.74,9.34a1.87,1.87,0,0,0,1.37-.56,1.94,1.94,0,0,0,.55-1.38,1.91,1.91,0,0,0-.55-1.38,2,2,0,0,0-2.76,0,1.87,1.87,0,0,0-.55,1.38A1.9,1.9,0,0,0,22,118,1.87,1.87,0,0,0,23.4,118.58Zm8.72.06a4.68,4.68,0,0,0,4-1.86,8.94,8.94,0,0,0,1.38-5.38A8.87,8.87,0,0,0,36.11,106a4.69,4.69,0,0,0-4-1.86,4.67,4.67,0,0,0-4,1.86,8.88,8.88,0,0,0-1.38,5.36,8.94,8.94,0,0,0,1.38,5.38A4.67,4.67,0,0,0,32.12,118.64Zm0-2.78a1.44,1.44,0,0,1-1.38-1,10,10,0,0,1-.42-3.42,9.83,9.83,0,0,1,.42-3.41,1.44,1.44,0,0,1,2.76,0,9.84,9.84,0,0,1,.42,3.4,10,10,0,0,1-.42,3.42A1.44,1.44,0,0,1,32.12,115.86Zm43-2.58h-.44v-7.22a1.69,1.69,0,0,0-.54-1.34,1.88,1.88,0,0,0-1.3-.48,2,2,0,0,0-.89.21,1.81,1.81,0,0,0-.71.61l-5.72,8.16a2.25,2.25,0,0,0-.44,1.32,1.54,1.54,0,0,0,.42,1.1,1.51,1.51,0,0,0,1.14.44h4.46v.68a1.77,1.77,0,0,0,.49,1.36,1.85,1.85,0,0,0,1.29.46,1.88,1.88,0,0,0,1.3-.46,1.77,1.77,0,0,0,.5-1.36v-.68h.44c1.16,0,1.74-.48,1.74-1.42S76.27,113.28,75.11,113.28Zm-6.42,0,2.4-3.46v3.46Zm10.84,5.3A1.85,1.85,0,0,0,80.9,118a1.9,1.9,0,0,0,.55-1.38,1.87,1.87,0,0,0-.55-1.38,1.82,1.82,0,0,0-1.37-.56,1.85,1.85,0,0,0-1.39.56,1.87,1.87,0,0,0-.55,1.38,1.9,1.9,0,0,0,1.94,1.94Zm8.72.06a4.67,4.67,0,0,0,4-1.86,8.94,8.94,0,0,0,1.38-5.38A8.8,8.8,0,0,0,92.24,106a5.22,5.22,0,0,0-8,0,8.88,8.88,0,0,0-1.38,5.36,8.94,8.94,0,0,0,1.38,5.38A4.67,4.67,0,0,0,88.25,118.64Zm0-2.78a1.44,1.44,0,0,1-1.38-1,10,10,0,0,1-.42-3.42,9.83,9.83,0,0,1,.42-3.41,1.44,1.44,0,0,1,2.76,0,9.84,9.84,0,0,1,.42,3.4,10,10,0,0,1-.42,3.42A1.44,1.44,0,0,1,88.25,115.86Zm68.87-21.64h-5v-5a2.32,2.32,0,0,0-2.36-2.36,2.32,2.32,0,0,0-2.36,2.36v5h-5A2.32,2.32,0,0,0,140,96.58a2.34,2.34,0,0,0,.68,1.7,2.26,2.26,0,0,0,1.68.7h5v5a2.39,2.39,0,0,0,4.06,1.68,2.34,2.34,0,0,0,.66-1.68V99h5a2.3,2.3,0,0,0,1.68-.7,2.38,2.38,0,0,0,.68-1.7,2.32,2.32,0,0,0-2.36-2.36ZM141.64,72.1a4.67,4.67,0,0,0,4-1.86A8.92,8.92,0,0,0,147,64.86a8.82,8.82,0,0,0-1.39-5.36,5.22,5.22,0,0,0-8,0,8.9,8.9,0,0,0-1.38,5.36,8.92,8.92,0,0,0,1.38,5.38A4.67,4.67,0,0,0,141.64,72.1Zm0-2.78a1.44,1.44,0,0,1-1.38-1,9.93,9.93,0,0,1-.42-3.42,9.86,9.86,0,0,1,.42-3.41,1.44,1.44,0,0,1,2.76,0,9.88,9.88,0,0,1,.42,3.4,9.93,9.93,0,0,1-.42,3.42A1.44,1.44,0,0,1,141.64,69.32ZM150.36,72a1.94,1.94,0,1,0,0-3.88,1.94,1.94,0,1,0,0,3.88Zm11.26-7.38a3.24,3.24,0,0,0,1.59-1.21,3.33,3.33,0,0,0,.57-1.93,3.48,3.48,0,0,0-.61-2,3.93,3.93,0,0,0-1.74-1.36,6.61,6.61,0,0,0-2.61-.48,8,8,0,0,0-2.37.36,6.53,6.53,0,0,0-2,1,1.49,1.49,0,0,0-.48.54,1.62,1.62,0,0,0-.14.7,1.63,1.63,0,0,0,.34,1,1,1,0,0,0,.84.43,1.31,1.31,0,0,0,.5-.09c.15-.06.35-.16.6-.29l.42-.2a10.48,10.48,0,0,1,1.09-.48,3,3,0,0,1,1-.18,1.73,1.73,0,0,1,1.22.41A1.51,1.51,0,0,1,160.3,62a1.12,1.12,0,0,1-.5,1,3.1,3.1,0,0,1-1.6.32h-.88a1.15,1.15,0,0,0-.94.42,1.64,1.64,0,0,0,0,2,1.15,1.15,0,0,0,.94.42h1.24a3,3,0,0,1,1.64.34,1.27,1.27,0,0,1,.5,1.12,1.38,1.38,0,0,1-.49,1.2,2.77,2.77,0,0,1-1.61.36,3.71,3.71,0,0,1-1.15-.17,9.14,9.14,0,0,1-1.15-.49l-.25-.11-.19-.09c-.25-.13-.45-.23-.6-.29a1.31,1.31,0,0,0-.5-.09,1,1,0,0,0-.84.43,1.63,1.63,0,0,0-.34,1,1.6,1.6,0,0,0,.14.69,1.51,1.51,0,0,0,.48.55,6.4,6.4,0,0,0,2.08,1,9,9,0,0,0,2.5.35,7.45,7.45,0,0,0,2.83-.49,4.21,4.21,0,0,0,1.87-1.39,3.49,3.49,0,0,0,.66-2.12,3.53,3.53,0,0,0-.67-2.18A3.42,3.42,0,0,0,161.62,64.66Zm-49.05,52.87a4.67,4.67,0,0,0,4-1.86,8.92,8.92,0,0,0,1.38-5.38,8.82,8.82,0,0,0-1.39-5.36,5.22,5.22,0,0,0-8,0,8.9,8.9,0,0,0-1.38,5.36,8.92,8.92,0,0,0,1.38,5.38A4.68,4.68,0,0,0,112.57,117.53Zm0-2.78a1.43,1.43,0,0,1-1.38-1,14.09,14.09,0,0,1,0-6.83,1.44,1.44,0,0,1,2.76,0,14.05,14.05,0,0,1,0,6.82A1.43,1.43,0,0,1,112.57,114.75Zm8.72,2.72a1.8,1.8,0,0,0,1.37-.56,1.87,1.87,0,0,0,.55-1.38,1.9,1.9,0,0,0-.55-1.38,1.84,1.84,0,0,0-1.37-.56,1.88,1.88,0,0,0-1.39.56,1.94,1.94,0,0,0-.55,1.38,1.91,1.91,0,0,0,.55,1.38A1.85,1.85,0,0,0,121.29,117.47Zm13-3h-1.64V105a1.67,1.67,0,0,0-1.78-1.78,3.43,3.43,0,0,0-1.66.5l-3.2,1.86a1.38,1.38,0,0,0-.7,1.24,1.71,1.71,0,0,0,.4,1.09,1.2,1.2,0,0,0,1,.49,1.29,1.29,0,0,0,.7-.2l1.6-.94v7.22h-1.62a2,2,0,0,0-1.32.36,1.34,1.34,0,0,0-.42,1.08c0,1,.58,1.48,1.74,1.48h6.94c1.16,0,1.74-.49,1.74-1.48a1.34,1.34,0,0,0-.42-1.08A2,2,0,0,0,134.25,114.43Zm34.45,3.21a4.68,4.68,0,0,0,4-1.86,8.94,8.94,0,0,0,1.38-5.38,8.87,8.87,0,0,0-1.39-5.36,5.22,5.22,0,0,0-8,0,8.88,8.88,0,0,0-1.38,5.36,8.94,8.94,0,0,0,1.38,5.38A4.67,4.67,0,0,0,168.7,117.64Zm0-2.78a1.44,1.44,0,0,1-1.38-1,10,10,0,0,1-.42-3.42,9.83,9.83,0,0,1,.42-3.41,1.44,1.44,0,0,1,2.76,0,9.84,9.84,0,0,1,.42,3.4,10,10,0,0,1-.42,3.42A1.44,1.44,0,0,1,168.7,114.86Zm8.72,2.72a1.87,1.87,0,0,0,1.37-.56,1.94,1.94,0,0,0,.55-1.38,1.91,1.91,0,0,0-.55-1.38,2,2,0,0,0-2.76,0,1.87,1.87,0,0,0-.55,1.38A1.9,1.9,0,0,0,176,117,1.87,1.87,0,0,0,177.42,117.58Zm12.44-3h-4l2.84-2.9a9.78,9.78,0,0,0,1.67-2.25,5.17,5.17,0,0,0,.49-2.23,3.69,3.69,0,0,0-.61-2.09,3.89,3.89,0,0,0-1.73-1.4,6.42,6.42,0,0,0-2.6-.49,7.83,7.83,0,0,0-2.31.36,7.61,7.61,0,0,0-2.11,1,1.26,1.26,0,0,0-.49.52,1.63,1.63,0,0,0-.13.72,1.71,1.71,0,0,0,.34,1.07,1,1,0,0,0,.84.45,1.21,1.21,0,0,0,.38-.06,3.47,3.47,0,0,0,.41-.19,2.17,2.17,0,0,1,.31-.17l.4-.2a7.73,7.73,0,0,1,1.13-.49,3,3,0,0,1,1.07-.17,1.58,1.58,0,0,1,1.11.36,1.34,1.34,0,0,1,.39,1,3.9,3.9,0,0,1-1.32,2.54l-4.24,4.42a2.14,2.14,0,0,0-.68,1.56,1.5,1.5,0,0,0,.42,1.09,1.55,1.55,0,0,0,1.14.43h7.3a2,2,0,0,0,1.31-.36,1.41,1.41,0,0,0,.43-1.12,1.33,1.33,0,0,0-.43-1.09A2,2,0,0,0,189.86,114.54Z"/></svg>