<svg id="Layer_1" data-name="Layer 1" xmlns="http://www.w3.org/2000/svg" viewBox="0 0 200 150"><title>l1_3_1</title><path d="M193,112.34A17.5,17.5,0,1,1,163.4,99.68l-11-16.27a17.51,17.51,0,0,1-4.61.63,17.3,17.3,0,0,1-4.91-.71L131.71,100h0a17.6,17.6,0,1,1-5.84-3.86L136.68,80a17.48,17.48,0,0,1-2.11-24.89l-20.64-13.7a17.48,17.48,0,0,1-28.87,0v0L63.59,55.72a17.47,17.47,0,0,1-2.74,24.59L71.44,96.07a17.23,17.23,0,0,1,6.12-1.13A17.55,17.55,0,1,1,65.5,99.79l-11-16.28a17.51,17.51,0,0,1-4.61.64A17.71,17.71,0,0,1,45,83.44l-11.2,16.64h0A17.55,17.55,0,1,1,28,96.22l10.8-16.09a17.5,17.5,0,0,1,19.29-29L82.31,34.78A17.07,17.07,0,0,1,82,31.56a17.5,17.5,0,0,1,35,0,16.94,16.94,0,0,1-.31,3.2l23.65,16A17.48,17.48,0,0,1,158.75,80.2L169.33,96a17.33,17.33,0,0,1,6.13-1.13A17.51,17.51,0,0,1,193,112.34ZM109.22,64.66h-6.3v-6.3a2.85,2.85,0,0,0-.85-2.1,2.82,2.82,0,0,0-2.1-.85,2.85,2.85,0,0,0-2.1.85,2.89,2.89,0,0,0-.85,2.1v6.3h-6.3a2.85,2.85,0,0,0-2.1.85,2.89,2.89,0,0,0-.85,2.1,3,3,0,0,0,.85,2.13,2.83,2.83,0,0,0,2.1.87H97v6.25a2.89,2.89,0,0,0,.85,2.1,3.06,3.06,0,0,0,4.23,0,2.9,2.9,0,0,0,.82-2.1V70.61h6.3a2.8,2.8,0,0,0,2.1-.87,3,3,0,0,0,.85-2.13,2.85,2.85,0,0,0-.85-2.1A2.82,2.82,0,0,0,109.22,64.66ZM91.07,34.82H89.85V27.71a1.31,1.31,0,0,0-.37-1,1.34,1.34,0,0,0-1-.36,2.48,2.48,0,0,0-1.24.37l-2.41,1.4a1,1,0,0,0-.52.93,1.23,1.23,0,0,0,.3.81.89.89,0,0,0,.72.37,1,1,0,0,0,.53-.15l1.2-.7v5.41H85.87a1.5,1.5,0,0,0-1,.27,1,1,0,0,0-.32.81c0,.74.44,1.11,1.31,1.11h5.2c.87,0,1.31-.37,1.31-1.11a1,1,0,0,0-.32-.81A1.5,1.5,0,0,0,91.07,34.82Zm7.73-3.25a2.38,2.38,0,0,0,1.19-.91,2.46,2.46,0,0,0,.43-1.45,2.59,2.59,0,0,0-.46-1.53,2.92,2.92,0,0,0-1.3-1,5,5,0,0,0-2-.36,6.05,6.05,0,0,0-1.78.27,5,5,0,0,0-1.52.75,1.22,1.22,0,0,0-.36.41,1.15,1.15,0,0,0-.1.52,1.22,1.22,0,0,0,.25.79.76.76,0,0,0,.63.32,1.06,1.06,0,0,0,.37-.06l.45-.22.32-.15a7.65,7.65,0,0,1,.82-.36,2.21,2.21,0,0,1,.78-.14,1.33,1.33,0,0,1,.92.31,1.12,1.12,0,0,1,.33.86.85.85,0,0,1-.37.77,2.34,2.34,0,0,1-1.21.24h-.66a.84.84,0,0,0-.7.31,1.21,1.21,0,0,0,0,1.5.85.85,0,0,0,.7.32h.94a2.25,2.25,0,0,1,1.22.25.94.94,0,0,1,.38.84,1,1,0,0,1-.37.9,2.06,2.06,0,0,1-1.21.27,2.63,2.63,0,0,1-.86-.13,6.17,6.17,0,0,1-.86-.36l-.19-.08-.14-.07L94,34.14a1.07,1.07,0,0,0-.38-.07.79.79,0,0,0-.63.32,1.24,1.24,0,0,0-.25.79,1.17,1.17,0,0,0,.11.52,1,1,0,0,0,.35.41,4.78,4.78,0,0,0,1.57.76,6.76,6.76,0,0,0,1.87.26,5.7,5.7,0,0,0,2.12-.36,3.17,3.17,0,0,0,1.4-1.05,2.62,2.62,0,0,0,.5-1.59,2.68,2.68,0,0,0-.5-1.63A2.58,2.58,0,0,0,98.8,31.57Zm4.64,5.53a1.36,1.36,0,0,0,1-.42,1.4,1.4,0,0,0,.42-1,1.42,1.42,0,0,0-.42-1,1.36,1.36,0,0,0-1-.42,1.42,1.42,0,0,0-1,.42,1.45,1.45,0,0,0-.41,1,1.42,1.42,0,0,0,1.46,1.45Zm8.44-5.53a2.38,2.38,0,0,0,1.19-.91,2.46,2.46,0,0,0,.43-1.45,2.59,2.59,0,0,0-.46-1.53,2.92,2.92,0,0,0-1.3-1,5,5,0,0,0-2-.36,6.05,6.05,0,0,0-1.78.27,5,5,0,0,0-1.52.75,1.22,1.22,0,0,0-.36.41,1.14,1.14,0,0,0-.11.52,1.23,1.23,0,0,0,.26.79.76.76,0,0,0,.63.32,1.06,1.06,0,0,0,.37-.06l.45-.22.32-.15a7.65,7.65,0,0,1,.82-.36,2.21,2.21,0,0,1,.78-.14,1.33,1.33,0,0,1,.92.31,1.12,1.12,0,0,1,.33.86.85.85,0,0,1-.38.77,2.3,2.3,0,0,1-1.2.24h-.66a.84.84,0,0,0-.7.31,1.21,1.21,0,0,0,0,1.5.85.85,0,0,0,.7.32h.93a2.26,2.26,0,0,1,1.23.25.94.94,0,0,1,.38.84,1,1,0,0,1-.37.9,2.08,2.08,0,0,1-1.21.27,2.59,2.59,0,0,1-.86-.13,6.17,6.17,0,0,1-.86-.36l-.19-.08-.14-.07-.45-.22a1.12,1.12,0,0,0-.38-.07.79.79,0,0,0-.63.32,1.24,1.24,0,0,0-.25.79,1.18,1.18,0,0,0,.1.52,1.13,1.13,0,0,0,.36.41,4.73,4.73,0,0,0,1.56.76,6.88,6.88,0,0,0,1.88.26,5.7,5.7,0,0,0,2.12-.36,3.17,3.17,0,0,0,1.4-1.05,2.62,2.62,0,0,0,.5-1.59,2.68,2.68,0,0,0-.5-1.63A2.58,2.58,0,0,0,111.88,31.57ZM57.13,96.4h-5v-5a2.28,2.28,0,0,0-.68-1.68A2.32,2.32,0,0,0,49.73,89a2.28,2.28,0,0,0-1.68.68,2.25,2.25,0,0,0-.68,1.68v5h-5a2.28,2.28,0,0,0-1.68.68A2.25,2.25,0,0,0,40,98.76a2.32,2.32,0,0,0,.68,1.7,2.23,2.23,0,0,0,1.68.7h5v5a2.25,2.25,0,0,0,.68,1.68,2.44,2.44,0,0,0,3.38,0,2.31,2.31,0,0,0,.66-1.68v-5h5a2.26,2.26,0,0,0,1.68-.7,2.36,2.36,0,0,0,.68-1.7,2.28,2.28,0,0,0-.68-1.68A2.32,2.32,0,0,0,57.13,96.4ZM42.5,70.91H41.27V63.8a1.27,1.27,0,0,0-.37-1,1.3,1.3,0,0,0-1-.36,2.54,2.54,0,0,0-1.25.37l-2.4,1.4a1,1,0,0,0-.52.93,1.23,1.23,0,0,0,.3.81.89.89,0,0,0,.72.37,1,1,0,0,0,.52-.15l1.2-.7v5.41H37.3a1.5,1.5,0,0,0-1,.27A1,1,0,0,0,36,72c0,.74.44,1.11,1.31,1.11h5.2c.87,0,1.31-.37,1.31-1.11a1,1,0,0,0-.32-.81A1.5,1.5,0,0,0,42.5,70.91Zm9,0H50.27V63.8a1.27,1.27,0,0,0-.37-1,1.3,1.3,0,0,0-1-.36,2.54,2.54,0,0,0-1.25.37l-2.4,1.4a1,1,0,0,0-.52.93,1.23,1.23,0,0,0,.3.81.89.89,0,0,0,.72.37,1,1,0,0,0,.52-.15l1.2-.7v5.41H46.3a1.5,1.5,0,0,0-1,.27A1,1,0,0,0,45,72c0,.74.44,1.11,1.31,1.11h5.2c.87,0,1.31-.37,1.31-1.11a1,1,0,0,0-.32-.81A1.5,1.5,0,0,0,51.5,70.91Zm3.36,2.28a1.4,1.4,0,0,0,1-.42,1.43,1.43,0,0,0,.41-1,1.45,1.45,0,0,0-.41-1,1.49,1.49,0,0,0-2.07,0,1.41,1.41,0,0,0-.41,1,1.42,1.42,0,0,0,1.45,1.45Zm9.33-2.28h-3l2.13-2.17a7.55,7.55,0,0,0,1.25-1.69,3.86,3.86,0,0,0,.37-1.67,2.79,2.79,0,0,0-.46-1.57,2.9,2.9,0,0,0-1.3-1.05,4.74,4.74,0,0,0-2-.37,6.16,6.16,0,0,0-3.32,1,1,1,0,0,0-.36.39,1.21,1.21,0,0,0-.1.54,1.27,1.27,0,0,0,.25.8.75.75,0,0,0,.63.34.92.92,0,0,0,.29,0,1.71,1.71,0,0,0,.31-.15l.23-.12.3-.15a6.28,6.28,0,0,1,.85-.37,2.28,2.28,0,0,1,.8-.13,1.17,1.17,0,0,1,.83.27,1,1,0,0,1,.3.78,3,3,0,0,1-1,1.91l-3.17,3.31A1.61,1.61,0,0,0,57.54,72a1.14,1.14,0,0,0,.32.82,1.15,1.15,0,0,0,.86.32h5.47a1.49,1.49,0,0,0,1-.27,1,1,0,0,0,.32-.84,1,1,0,0,0-.32-.82A1.55,1.55,0,0,0,64.19,70.91ZM13.43,116.35H12.2v-7.11a1.24,1.24,0,0,0-1.33-1.34,2.56,2.56,0,0,0-1.25.38l-2.4,1.39a1,1,0,0,0-.52.93,1.28,1.28,0,0,0,.3.82.92.92,0,0,0,.72.37,1,1,0,0,0,.52-.15l1.2-.71v5.42H8.23a1.5,1.5,0,0,0-1,.27,1,1,0,0,0-.32.81c0,.74.44,1.11,1.31,1.11h5.2c.87,0,1.31-.37,1.31-1.11a1,1,0,0,0-.32-.81A1.5,1.5,0,0,0,13.43,116.35Zm5.82,2.32a3.5,3.5,0,0,0,3-1.39,8.33,8.33,0,0,0,0-8.06,3.53,3.53,0,0,0-3-1.39,3.5,3.5,0,0,0-3,1.39,8.4,8.4,0,0,0,0,8.06A3.5,3.5,0,0,0,19.25,118.67Zm0-2.08a1.07,1.07,0,0,1-1-.78,10.44,10.44,0,0,1,0-5.13,1.08,1.08,0,0,1,2.07,0,7.43,7.43,0,0,1,.31,2.55,7.53,7.53,0,0,1-.31,2.57A1.08,1.08,0,0,1,19.25,116.59Zm6.54,2a1.38,1.38,0,0,0,1-.42,1.41,1.41,0,0,0,.41-1,1.42,1.42,0,0,0-1.44-1.45,1.4,1.4,0,0,0-1,.42,1.43,1.43,0,0,0-.41,1,1.45,1.45,0,0,0,.41,1A1.4,1.4,0,0,0,25.79,118.63Zm9.33-2.28h-3l2.13-2.18a6.78,6.78,0,0,0,1.25-1.69,3.69,3.69,0,0,0,.37-1.67,2.73,2.73,0,0,0-.46-1.57,3,3,0,0,0-1.3-1,4.92,4.92,0,0,0-2-.36,6.09,6.09,0,0,0-3.31,1,1,1,0,0,0-.37.39,1.37,1.37,0,0,0-.1.54,1.3,1.3,0,0,0,.26.8.78.78,0,0,0,.63.34.87.87,0,0,0,.28,0,2,2,0,0,0,.31-.14l.23-.13.3-.15a8.83,8.83,0,0,1,.85-.37A2.58,2.58,0,0,1,32,110a1.21,1.21,0,0,1,.84.27,1,1,0,0,1,.29.78,2.91,2.91,0,0,1-1,1.9L29,116.23a1.64,1.64,0,0,0-.51,1.17,1.09,1.09,0,0,0,.31.81,1.14,1.14,0,0,0,.86.33h5.47a1.54,1.54,0,0,0,1-.27,1,1,0,0,0,.32-.84,1,1,0,0,0-.32-.82A1.54,1.54,0,0,0,35.12,116.35ZM73,117.62H71.31v-9.48a1.79,1.79,0,0,0-.48-1.31,1.82,1.82,0,0,0-1.29-.48,3.4,3.4,0,0,0-1.66.5l-3.2,1.87A1.35,1.35,0,0,0,64,110a1.64,1.64,0,0,0,.4,1.08,1.19,1.19,0,0,0,1,.5,1.32,1.32,0,0,0,.7-.21l1.6-.94v7.23H66a2,2,0,0,0-1.32.36,1.35,1.35,0,0,0-.43,1.08c0,1,.58,1.48,1.75,1.48H73c1.16,0,1.74-.5,1.74-1.48a1.32,1.32,0,0,0-.43-1.08A2,2,0,0,0,73,117.62Zm4.48,3a1.87,1.87,0,0,0,1.37-.56,2,2,0,0,0,0-2.77,2,2,0,0,0-2.76,0,2,2,0,0,0,0,2.77A1.87,1.87,0,0,0,77.44,120.66Zm8.71.06a4.65,4.65,0,0,0,4-1.87,8.89,8.89,0,0,0,1.38-5.37,8.78,8.78,0,0,0-1.39-5.36,5.22,5.22,0,0,0-8,0,8.85,8.85,0,0,0-1.38,5.36,8.89,8.89,0,0,0,1.38,5.37A4.66,4.66,0,0,0,86.15,120.72Zm0-2.78a1.45,1.45,0,0,1-1.38-1,14.09,14.09,0,0,1,0-6.83,1.45,1.45,0,0,1,1.38-1,1.43,1.43,0,0,1,1.38,1,14,14,0,0,1,0,6.81A1.43,1.43,0,0,1,86.15,117.94ZM155,96.3h-5v-5a2.32,2.32,0,0,0-2.36-2.36,2.32,2.32,0,0,0-2.36,2.36v5h-5a2.32,2.32,0,0,0-2.36,2.36,2.38,2.38,0,0,0,.68,1.7,2.3,2.3,0,0,0,1.68.7h5v5a2.32,2.32,0,0,0,2.36,2.36,2.27,2.27,0,0,0,1.7-.68,2.34,2.34,0,0,0,.66-1.68v-5h5a2.26,2.26,0,0,0,1.68-.7,2.34,2.34,0,0,0,.68-1.7A2.32,2.32,0,0,0,155,96.3ZM143.25,71.08h-4l2.84-2.9a9.22,9.22,0,0,0,1.67-2.25,5,5,0,0,0,.49-2.23,3.64,3.64,0,0,0-.61-2.09,3.85,3.85,0,0,0-1.73-1.4,6.35,6.35,0,0,0-2.6-.49,7.83,7.83,0,0,0-2.31.36,7.74,7.74,0,0,0-2.11,1,1.33,1.33,0,0,0-.49.52,1.85,1.85,0,0,0-.13.72,1.77,1.77,0,0,0,.34,1.07,1,1,0,0,0,.84.45,1.16,1.16,0,0,0,.38-.06,2.07,2.07,0,0,0,.41-.19l.31-.17.4-.2a10.47,10.47,0,0,1,1.13-.49,3.38,3.38,0,0,1,1.07-.17,1.58,1.58,0,0,1,1.11.36,1.35,1.35,0,0,1,.39,1,3.9,3.9,0,0,1-1.32,2.54l-4.24,4.42a2.22,2.22,0,0,0-.68,1.56A1.46,1.46,0,0,0,136,74h7.3a2,2,0,0,0,1.31-.36,1.36,1.36,0,0,0,.43-1.12,1.31,1.31,0,0,0-.43-1.09A2.05,2.05,0,0,0,143.25,71.08Zm5,3a1.84,1.84,0,0,0,1.37-.56,2,2,0,0,0,0-2.76,1.84,1.84,0,0,0-1.37-.56,1.88,1.88,0,0,0-1.39.56,2,2,0,0,0,0,2.76A1.88,1.88,0,0,0,148.27,74.12Zm13-3h-1.64V61.6a1.72,1.72,0,0,0-.49-1.3,1.74,1.74,0,0,0-1.29-.48,3.43,3.43,0,0,0-1.66.5L153,62.18a1.37,1.37,0,0,0-.7,1.24,1.73,1.73,0,0,0,.4,1.09,1.2,1.2,0,0,0,1,.49,1.38,1.38,0,0,0,.7-.2l1.6-.94v7.22h-1.62a2,2,0,0,0-1.32.36,1.34,1.34,0,0,0-.42,1.08c0,1,.58,1.48,1.74,1.48h6.94c1.16,0,1.74-.49,1.74-1.48a1.34,1.34,0,0,0-.42-1.08A2,2,0,0,0,161.23,71.08Zm-46.55,46.43H113V108a1.67,1.67,0,0,0-1.78-1.78,3.4,3.4,0,0,0-1.66.5l-3.2,1.86a1.36,1.36,0,0,0-.7,1.24,1.65,1.65,0,0,0,.4,1.09,1.18,1.18,0,0,0,1,.49,1.31,1.31,0,0,0,.7-.2l1.6-.94v7.22h-1.62a2,2,0,0,0-1.32.36A1.34,1.34,0,0,0,106,119c0,1,.58,1.48,1.74,1.48h6.94c1.16,0,1.74-.49,1.74-1.48a1.34,1.34,0,0,0-.42-1.08A2,2,0,0,0,114.68,117.51Zm4.48,3a1.83,1.83,0,0,0,1.37-.56,1.91,1.91,0,0,0,.55-1.38,1.94,1.94,0,0,0-.55-1.38,2,2,0,0,0-2.76,0,1.9,1.9,0,0,0-.55,1.38,1.87,1.87,0,0,0,.55,1.38A1.83,1.83,0,0,0,119.16,120.55Zm8.72.06a4.68,4.68,0,0,0,4-1.86,8.92,8.92,0,0,0,1.38-5.38,8.89,8.89,0,0,0-1.39-5.36,5.22,5.22,0,0,0-8,0,8.9,8.9,0,0,0-1.38,5.36,8.92,8.92,0,0,0,1.38,5.38A4.67,4.67,0,0,0,127.88,120.61Zm0-2.78a1.43,1.43,0,0,1-1.38-1,14.09,14.09,0,0,1,0-6.83,1.44,1.44,0,0,1,2.76,0,14.05,14.05,0,0,1,0,6.82A1.43,1.43,0,0,1,127.88,117.83Zm43-.32h-1.64V108a1.73,1.73,0,0,0-.49-1.3,1.77,1.77,0,0,0-1.29-.48,3.43,3.43,0,0,0-1.66.5l-3.2,1.86a1.36,1.36,0,0,0-.7,1.24,1.65,1.65,0,0,0,.4,1.09,1.2,1.2,0,0,0,1,.49,1.31,1.31,0,0,0,.7-.2l1.6-.94v7.22h-1.62a2,2,0,0,0-1.32.36,1.34,1.34,0,0,0-.42,1.08c0,1,.58,1.48,1.74,1.48h6.94c1.16,0,1.74-.49,1.74-1.48a1.34,1.34,0,0,0-.42-1.08A2,2,0,0,0,170.85,117.51Zm4.48,3a1.82,1.82,0,0,0,1.37-.56,1.87,1.87,0,0,0,.55-1.38,1.9,1.9,0,0,0-.55-1.38,1.85,1.85,0,0,0-1.37-.56,2,2,0,0,0-1.39,3.32A1.85,1.85,0,0,0,175.33,120.55Zm13-3h-1.64V108a1.73,1.73,0,0,0-.49-1.3,1.77,1.77,0,0,0-1.29-.48,3.43,3.43,0,0,0-1.66.5l-3.2,1.86a1.36,1.36,0,0,0-.7,1.24,1.65,1.65,0,0,0,.4,1.09,1.2,1.2,0,0,0,1,.49,1.31,1.31,0,0,0,.7-.2l1.6-.94v7.22h-1.62a2,2,0,0,0-1.32.36,1.34,1.34,0,0,0-.42,1.08c0,1,.58,1.48,1.74,1.48h6.94c1.16,0,1.74-.49,1.74-1.48a1.34,1.34,0,0,0-.42-1.08A2,2,0,0,0,188.29,117.51Z"/></svg>