<svg id="Layer_1" data-name="Layer 1" xmlns="http://www.w3.org/2000/svg" viewBox="0 0 100 100"><title>l1_3_1</title><path d="M95.57,72.9A17.5,17.5,0,1,1,66,60.24L55.05,44a17.57,17.57,0,0,1-4.61.63,17.3,17.3,0,0,1-4.91-.71L34.32,60.54h0a17.64,17.64,0,1,1-5.84-3.85l10.8-16.09a17.52,17.52,0,1,1,22.08.17L71.94,56.52A17.47,17.47,0,0,1,95.57,72.9ZM57.63,58.85h-5v-5a2.36,2.36,0,1,0-4.72,0v5h-5a2.32,2.32,0,0,0-2.36,2.36,2.36,2.36,0,0,0,.68,1.7,2.23,2.23,0,0,0,1.68.7h5v5a2.39,2.39,0,0,0,4.06,1.68,2.31,2.31,0,0,0,.66-1.68v-5h5a2.23,2.23,0,0,0,1.68-.7,2.36,2.36,0,0,0,.68-1.7,2.32,2.32,0,0,0-2.36-2.36ZM41.15,34.08a4.67,4.67,0,0,0,4-1.86,8.92,8.92,0,0,0,1.38-5.38,8.82,8.82,0,0,0-1.39-5.36,4.66,4.66,0,0,0-4-1.86,4.67,4.67,0,0,0-4,1.86,8.9,8.9,0,0,0-1.38,5.36,8.92,8.92,0,0,0,1.38,5.38A4.67,4.67,0,0,0,41.15,34.08Zm0-2.78a1.44,1.44,0,0,1-1.38-1,9.93,9.93,0,0,1-.42-3.42,9.86,9.86,0,0,1,.42-3.41,1.44,1.44,0,0,1,2.76,0,9.88,9.88,0,0,1,.42,3.4,9.93,9.93,0,0,1-.42,3.42A1.44,1.44,0,0,1,41.15,31.3ZM49.87,34a1.84,1.84,0,0,0,1.37-.56,2,2,0,0,0,0-2.76,1.84,1.84,0,0,0-1.37-.56,1.88,1.88,0,0,0-1.39.56,2,2,0,0,0,0,2.76A1.88,1.88,0,0,0,49.87,34Zm11.76-7.38a3,3,0,0,0,1.57-1.18,3.48,3.48,0,0,0,.57-2,3.3,3.3,0,0,0-1.39-2.81,6.2,6.2,0,0,0-3.79-1,6.21,6.21,0,0,0-3.78,1,3.31,3.31,0,0,0-1.4,2.81A3.41,3.41,0,0,0,54,25.41a3.33,3.33,0,0,0,1.6,1.23,3.32,3.32,0,0,0-1.88,1.19A3.52,3.52,0,0,0,53,30a3.45,3.45,0,0,0,1.49,3,6.87,6.87,0,0,0,4.07,1.07A6.87,6.87,0,0,0,62.66,33a3.45,3.45,0,0,0,1.49-3,3.52,3.52,0,0,0-.65-2.15A3.44,3.44,0,0,0,61.63,26.64Zm-3,4.64c-1.45,0-2.18-.52-2.18-1.56s.73-1.56,2.18-1.56,2.18.52,2.18,1.56S60.05,31.28,58.59,31.28Zm0-8.88a2.15,2.15,0,0,1,1.34.35,1.33,1.33,0,0,1,.44,1.13A1.37,1.37,0,0,1,59.93,25a2.67,2.67,0,0,1-2.68,0,1.4,1.4,0,0,1-.44-1.14,1.36,1.36,0,0,1,.44-1.13A2.17,2.17,0,0,1,58.59,22.4ZM13.09,80.17a4.68,4.68,0,0,0,4-1.86,8.94,8.94,0,0,0,1.38-5.38,8.87,8.87,0,0,0-1.39-5.36,4.69,4.69,0,0,0-4-1.86,4.67,4.67,0,0,0-4,1.86,8.88,8.88,0,0,0-1.38,5.36,8.94,8.94,0,0,0,1.38,5.38A4.67,4.67,0,0,0,13.09,80.17Zm0-2.78a1.44,1.44,0,0,1-1.38-1,10,10,0,0,1-.42-3.42,9.83,9.83,0,0,1,.42-3.41,1.44,1.44,0,0,1,2.76,0,9.84,9.84,0,0,1,.42,3.4,10,10,0,0,1-.42,3.42A1.44,1.44,0,0,1,13.09,77.39Zm8.72,2.72a1.87,1.87,0,0,0,1.37-.56,1.94,1.94,0,0,0,.55-1.38,1.91,1.91,0,0,0-.55-1.38,2,2,0,0,0-2.76,0,1.87,1.87,0,0,0-.55,1.38,1.9,1.9,0,0,0,.55,1.38A1.87,1.87,0,0,0,21.81,80.11Zm13-5.3h-.44V67.59a1.69,1.69,0,0,0-.54-1.34,1.9,1.9,0,0,0-1.3-.48,2,2,0,0,0-.89.21,1.75,1.75,0,0,0-.71.61l-5.72,8.16a2.18,2.18,0,0,0-.44,1.32,1.54,1.54,0,0,0,.42,1.1,1.51,1.51,0,0,0,1.14.44h4.46v.68a1.77,1.77,0,0,0,.49,1.36,1.82,1.82,0,0,0,1.29.46,1.89,1.89,0,0,0,1.3-.46,1.77,1.77,0,0,0,.5-1.36v-.68h.44c1.16,0,1.74-.48,1.74-1.42S36,74.81,34.83,74.81Zm-6.42,0,2.4-3.46v3.46Zm40.81,6.36a4.67,4.67,0,0,0,4-1.86,8.94,8.94,0,0,0,1.38-5.38,8.8,8.8,0,0,0-1.39-5.36,5.22,5.22,0,0,0-8,0,8.88,8.88,0,0,0-1.38,5.36,8.94,8.94,0,0,0,1.38,5.38A4.67,4.67,0,0,0,69.22,81.17Zm0-2.78a1.44,1.44,0,0,1-1.38-1,10,10,0,0,1-.42-3.42,9.83,9.83,0,0,1,.42-3.41,1.44,1.44,0,0,1,2.76,0,9.84,9.84,0,0,1,.42,3.4,10,10,0,0,1-.42,3.42A1.44,1.44,0,0,1,69.22,78.39Zm8.72,2.72a1.85,1.85,0,0,0,1.37-.56,1.9,1.9,0,0,0,.55-1.38,1.87,1.87,0,0,0-.55-1.38,1.82,1.82,0,0,0-1.37-.56,1.85,1.85,0,0,0-1.39.56A1.87,1.87,0,0,0,76,79.17a1.9,1.9,0,0,0,1.94,1.94Zm13-5.3h-.44V68.59A1.69,1.69,0,0,0,90,67.25a1.88,1.88,0,0,0-1.3-.48,2,2,0,0,0-.89.21,1.81,1.81,0,0,0-.71.61l-5.72,8.16a2.25,2.25,0,0,0-.44,1.32,1.54,1.54,0,0,0,.42,1.1,1.51,1.51,0,0,0,1.14.44h4.46v.68a1.77,1.77,0,0,0,.49,1.36,1.85,1.85,0,0,0,1.29.46,1.88,1.88,0,0,0,1.3-.46,1.77,1.77,0,0,0,.5-1.36v-.68H91c1.16,0,1.74-.48,1.74-1.42S92.12,75.81,91,75.81Zm-6.42,0,2.4-3.46v3.46Z"/></svg>