<svg id="Layer_1" data-name="Layer 1" xmlns="http://www.w3.org/2000/svg" viewBox="0 0 100 100"><title>l1_3_1</title><path d="M95.31,72.9A17.5,17.5,0,1,1,65.75,60.24L54.79,44a17.26,17.26,0,0,1-9.52-.08L34.06,60.54h0a17.6,17.6,0,1,1-5.83-3.85L39,40.59a17.51,17.51,0,1,1,22.07.17L71.68,56.52A17.47,17.47,0,0,1,95.31,72.9ZM57.38,58.85h-5v-5a2.25,2.25,0,0,0-.69-1.68,2.4,2.4,0,0,0-3.35,0,2.25,2.25,0,0,0-.68,1.68v5h-5a2.32,2.32,0,0,0-1.68.68,2.28,2.28,0,0,0-.67,1.68,2.35,2.35,0,0,0,.67,1.7,2.26,2.26,0,0,0,1.68.7h5v5a2.25,2.25,0,0,0,.68,1.68A2.28,2.28,0,0,0,50,71a2.29,2.29,0,0,0,2.37-2.36v-5h5a2.26,2.26,0,0,0,1.68-.7,2.35,2.35,0,0,0,.67-1.7,2.28,2.28,0,0,0-.67-1.68A2.32,2.32,0,0,0,57.38,58.85ZM38.58,33a3.5,3.5,0,0,0,3-1.39,6.71,6.71,0,0,0,1-4,6.67,6.67,0,0,0-1-4,3.51,3.51,0,0,0-3-1.39,3.5,3.5,0,0,0-3,1.39,6.67,6.67,0,0,0-1,4,6.71,6.71,0,0,0,1,4A3.5,3.5,0,0,0,38.58,33Zm0-2.08a1.08,1.08,0,0,1-1-.78,7.53,7.53,0,0,1-.31-2.57,7.36,7.36,0,0,1,.31-2.55,1.08,1.08,0,0,1,1-.78,1.07,1.07,0,0,1,1,.78,7.38,7.38,0,0,1,.32,2.55,7.47,7.47,0,0,1-.32,2.57A1.07,1.07,0,0,1,38.58,31Zm6.54,2a1.36,1.36,0,0,0,1-.42,1.42,1.42,0,0,0,.42-1,1.4,1.4,0,0,0-.42-1,1.36,1.36,0,0,0-1-.42,1.42,1.42,0,0,0-1.46,1.45,1.45,1.45,0,0,0,.41,1A1.42,1.42,0,0,0,45.12,33Zm9.72-2.28H53.61V23.6a1.26,1.26,0,0,0-1.34-1.34,2.53,2.53,0,0,0-1.24.38L48.63,24a1,1,0,0,0-.53.93,1.26,1.26,0,0,0,.3.82.89.89,0,0,0,.72.37,1,1,0,0,0,.53-.15l1.2-.71v5.42H49.63a1.5,1.5,0,0,0-1,.27,1,1,0,0,0-.31.81c0,.74.43,1.11,1.3,1.11h5.21c.87,0,1.3-.37,1.3-1.11a1,1,0,0,0-.31-.81A1.5,1.5,0,0,0,54.84,30.71ZM60.66,33a3.5,3.5,0,0,0,3-1.39,6.71,6.71,0,0,0,1-4,6.67,6.67,0,0,0-1-4,3.92,3.92,0,0,0-6,0,6.67,6.67,0,0,0-1,4,6.71,6.71,0,0,0,1,4A3.5,3.5,0,0,0,60.66,33Zm0-2.08a1.08,1.08,0,0,1-1-.78,7.53,7.53,0,0,1-.31-2.57,7.36,7.36,0,0,1,.31-2.55,1.08,1.08,0,0,1,1-.78,1.07,1.07,0,0,1,1,.78A7.38,7.38,0,0,1,62,27.6a7.47,7.47,0,0,1-.32,2.57A1.07,1.07,0,0,1,60.66,31ZM10.51,79.12a3.5,3.5,0,0,0,3-1.39,6.71,6.71,0,0,0,1-4,6.6,6.6,0,0,0-1.05-4,3.5,3.5,0,0,0-3-1.39,3.5,3.5,0,0,0-3,1.39,6.67,6.67,0,0,0-1,4,6.71,6.71,0,0,0,1,4A3.5,3.5,0,0,0,10.51,79.12Zm0-2.08a1.08,1.08,0,0,1-1-.78,10.77,10.77,0,0,1,0-5.13,1.09,1.09,0,0,1,2.08,0,7.43,7.43,0,0,1,.31,2.55,7.53,7.53,0,0,1-.31,2.57A1.08,1.08,0,0,1,10.51,77Zm6.54,2a1.4,1.4,0,0,0,1-.42,1.45,1.45,0,0,0,.41-1,1.43,1.43,0,0,0-.41-1,1.45,1.45,0,0,0-2.48,1,1.41,1.41,0,0,0,.41,1A1.39,1.39,0,0,0,17.05,79.08Zm6.54,0a3.5,3.5,0,0,0,3-1.39,6.71,6.71,0,0,0,1-4,6.6,6.6,0,0,0-1.05-4,3.5,3.5,0,0,0-3-1.39,3.5,3.5,0,0,0-3,1.39,6.67,6.67,0,0,0-1,4,6.71,6.71,0,0,0,1,4A3.5,3.5,0,0,0,23.59,79.12Zm0-2.08a1.07,1.07,0,0,1-1-.78,7.47,7.47,0,0,1-.32-2.57,7.41,7.41,0,0,1,.32-2.56,1.08,1.08,0,0,1,2.07,0,7.43,7.43,0,0,1,.31,2.55,7.53,7.53,0,0,1-.31,2.57A1.08,1.08,0,0,1,23.59,77Zm11.28-3.5a2.28,2.28,0,0,0,1.18-.88,2.64,2.64,0,0,0,.42-1.5,2.47,2.47,0,0,0-1-2.11,4.63,4.63,0,0,0-2.84-.77,4.67,4.67,0,0,0-2.84.77,2.48,2.48,0,0,0-1.05,2.11,2.56,2.56,0,0,0,.42,1.46,2.49,2.49,0,0,0,1.2.92,2.52,2.52,0,0,0-1.41.89,2.67,2.67,0,0,0-.49,1.65,2.56,2.56,0,0,0,1.12,2.22,5.09,5.09,0,0,0,3.05.81,5.09,5.09,0,0,0,3-.81,2.56,2.56,0,0,0,1.12-2.22,2.47,2.47,0,0,0-1.89-2.54ZM32.59,77C31.5,77,31,76.63,31,75.85s.55-1.17,1.64-1.17,1.63.39,1.63,1.17S33.68,77,32.59,77Zm0-6.66a1.62,1.62,0,0,1,1,.26,1,1,0,0,1,.33.85,1.05,1.05,0,0,1-.33.86,1.55,1.55,0,0,1-1,.27,1.58,1.58,0,0,1-1-.27,1.05,1.05,0,0,1-.33-.86,1,1,0,0,1,.33-.85A1.65,1.65,0,0,1,32.59,70.36Zm34.05,8.76a3.5,3.5,0,0,0,3-1.39,6.71,6.71,0,0,0,1-4,6.67,6.67,0,0,0-1-4,3.92,3.92,0,0,0-6,0,6.67,6.67,0,0,0-1,4,6.71,6.71,0,0,0,1,4A3.5,3.5,0,0,0,66.64,79.12Zm0-2.08a1.08,1.08,0,0,1-1-.78,7.53,7.53,0,0,1-.31-2.57,7.46,7.46,0,0,1,.31-2.56,1.08,1.08,0,0,1,1-.77,1.07,1.07,0,0,1,1,.78A7.38,7.38,0,0,1,68,73.69a7.47,7.47,0,0,1-.32,2.57A1.07,1.07,0,0,1,66.64,77Zm6.54,2a1.36,1.36,0,0,0,1-.42,1.42,1.42,0,0,0,.42-1,1.4,1.4,0,0,0-.42-1,1.36,1.36,0,0,0-1-.42,1.42,1.42,0,0,0-1.46,1.45,1.45,1.45,0,0,0,.41,1A1.42,1.42,0,0,0,73.18,79.08Zm6.54,0a3.5,3.5,0,0,0,3-1.39,6.71,6.71,0,0,0,1-4,6.67,6.67,0,0,0-1-4,3.92,3.92,0,0,0-6,0,6.67,6.67,0,0,0-1,4,6.71,6.71,0,0,0,1,4A3.5,3.5,0,0,0,79.72,79.12Zm0-2.08a1.08,1.08,0,0,1-1-.78,7.53,7.53,0,0,1-.31-2.57,7.46,7.46,0,0,1,.31-2.56,1.08,1.08,0,0,1,1-.77,1.07,1.07,0,0,1,1,.78,7.38,7.38,0,0,1,.32,2.55,7.47,7.47,0,0,1-.32,2.57A1.07,1.07,0,0,1,79.72,77Zm11.79-.24h-3l2.13-2.18a6.78,6.78,0,0,0,1.25-1.69,3.69,3.69,0,0,0,.37-1.67,2.73,2.73,0,0,0-.46-1.57,3,3,0,0,0-1.29-1,4.92,4.92,0,0,0-1.95-.36,6.09,6.09,0,0,0-3.32,1,1,1,0,0,0-.37.39,1.38,1.38,0,0,0-.09.54A1.29,1.29,0,0,0,85,71a.78.78,0,0,0,.63.34.93.93,0,0,0,.29-.05,1.94,1.94,0,0,0,.3-.14l.24-.13.3-.15a8.77,8.77,0,0,1,.84-.37,2.64,2.64,0,0,1,.81-.12,1.18,1.18,0,0,1,.83.27,1,1,0,0,1,.29.78,2.91,2.91,0,0,1-1,1.9l-3.18,3.32a1.64,1.64,0,0,0-.51,1.17,1.1,1.1,0,0,0,.32.81A1.11,1.11,0,0,0,86,79h5.48a1.51,1.51,0,0,0,1-.27,1,1,0,0,0,.32-.84,1,1,0,0,0-.32-.82A1.51,1.51,0,0,0,91.51,76.8Z"/></svg>