<svg id="Layer_1" data-name="Layer 1" xmlns="http://www.w3.org/2000/svg" viewBox="0 0 100 100"><title>l1_3_1</title><path d="M95.35,72.9A17.5,17.5,0,1,1,65.79,60.24L54.83,44a17.22,17.22,0,0,1-9.51-.08L34.11,60.54h0a17.6,17.6,0,1,1-5.83-3.85l10.8-16.09a17.51,17.51,0,1,1,22.07.17L71.73,56.52A17.47,17.47,0,0,1,95.35,72.9ZM57.42,58.85h-5v-5a2.28,2.28,0,0,0-.68-1.68A2.32,2.32,0,0,0,50,51.45a2.28,2.28,0,0,0-1.68.68,2.25,2.25,0,0,0-.68,1.68v5h-5a2.28,2.28,0,0,0-1.68.68,2.25,2.25,0,0,0-.68,1.68,2.32,2.32,0,0,0,.68,1.7,2.23,2.23,0,0,0,1.68.7h5v5a2.25,2.25,0,0,0,.68,1.68,2.44,2.44,0,0,0,3.38,0,2.31,2.31,0,0,0,.66-1.68v-5h5a2.26,2.26,0,0,0,1.68-.7,2.36,2.36,0,0,0,.68-1.7,2.28,2.28,0,0,0-.68-1.68A2.32,2.32,0,0,0,57.42,58.85Zm-16-28.14h-3l2.13-2.18a7.22,7.22,0,0,0,1.25-1.68,3.9,3.9,0,0,0,.37-1.68,2.75,2.75,0,0,0-.46-1.56,2.9,2.9,0,0,0-1.3-1.05,4.74,4.74,0,0,0-2-.37,5.83,5.83,0,0,0-1.73.27,5.76,5.76,0,0,0-1.58.75,1,1,0,0,0-.37.39,1.21,1.21,0,0,0-.1.54,1.28,1.28,0,0,0,.26.8.75.75,0,0,0,.63.34.87.87,0,0,0,.28-.05,1.59,1.59,0,0,0,.31-.14l.23-.13.3-.15a7.61,7.61,0,0,1,.85-.36,2.28,2.28,0,0,1,.8-.13,1.17,1.17,0,0,1,.83.27,1,1,0,0,1,.3.78,2.91,2.91,0,0,1-1,1.9l-3.18,3.32a1.64,1.64,0,0,0-.51,1.17,1.13,1.13,0,0,0,.31.82,1.17,1.17,0,0,0,.86.32H41.4a1.49,1.49,0,0,0,1-.27,1,1,0,0,0,.33-.84,1,1,0,0,0-.33-.82A1.55,1.55,0,0,0,41.4,30.71Zm7-4.73a3.72,3.72,0,0,0-1.48.27V24.41h3.24c.87,0,1.3-.35,1.3-1.05s-.43-1-1.3-1H45.47a1.16,1.16,0,0,0-1.28,1.29v4.07a.81.81,0,0,0,.29.65,1,1,0,0,0,.7.25,1.46,1.46,0,0,0,.68-.17,5.15,5.15,0,0,1,.86-.27,4.11,4.11,0,0,1,.82-.07,1.69,1.69,0,0,1,1.17.37,1.33,1.33,0,0,1,.42,1,1.3,1.3,0,0,1-.41,1.06,1.87,1.87,0,0,1-1.24.34,2.55,2.55,0,0,1-.84-.14,8.8,8.8,0,0,1-.84-.36l-.3-.15a4.27,4.27,0,0,0-.45-.22,1,1,0,0,0-.38-.06.79.79,0,0,0-.63.32,1.24,1.24,0,0,0-.25.79,1.08,1.08,0,0,0,.11.52,1.3,1.3,0,0,0,.35.41,4.91,4.91,0,0,0,1.54.75,6.22,6.22,0,0,0,1.82.27,4.89,4.89,0,0,0,2.15-.45,3.39,3.39,0,0,0,1.44-1.28,3.53,3.53,0,0,0,.51-1.9,3.69,3.69,0,0,0-.43-1.78,3.12,3.12,0,0,0-1.19-1.2A3.49,3.49,0,0,0,48.36,26Zm5.81,7a1.36,1.36,0,0,0,1-.42,1.42,1.42,0,0,0,.42-1,1.4,1.4,0,0,0-.42-1,1.36,1.36,0,0,0-1-.42,1.42,1.42,0,0,0-1.46,1.45,1.45,1.45,0,0,0,.41,1A1.42,1.42,0,0,0,54.17,33ZM63,27.45a2.21,2.21,0,0,0,1.17-.88,2.57,2.57,0,0,0,.43-1.5,2.5,2.5,0,0,0-1-2.11,5.62,5.62,0,0,0-5.68,0,2.49,2.49,0,0,0-1,2.11,2.53,2.53,0,0,0,.42,1.46,2.44,2.44,0,0,0,1.2.92,2.48,2.48,0,0,0-1.41.9,2.87,2.87,0,0,0,.62,3.87,6.23,6.23,0,0,0,6.11,0A2.65,2.65,0,0,0,63,27.45Zm-2.28,3.48c-1.09,0-1.64-.39-1.64-1.17s.55-1.17,1.64-1.17,1.63.39,1.63,1.17S61.8,30.93,60.71,30.93Zm0-6.66a1.55,1.55,0,0,1,1,.27,1,1,0,0,1,.33.84,1.05,1.05,0,0,1-.33.86,1.55,1.55,0,0,1-1,.27,1.58,1.58,0,0,1-1-.27,1.05,1.05,0,0,1-.33-.86,1,1,0,0,1,.33-.84A1.58,1.58,0,0,1,60.71,24.27ZM13.33,76.8h-3l2.13-2.18a6.78,6.78,0,0,0,1.25-1.69,3.69,3.69,0,0,0,.37-1.67,2.73,2.73,0,0,0-.46-1.57,3,3,0,0,0-1.3-1,4.9,4.9,0,0,0-1.94-.36,6.09,6.09,0,0,0-3.32,1,1,1,0,0,0-.37.39,1.37,1.37,0,0,0-.1.54,1.3,1.3,0,0,0,.26.8.78.78,0,0,0,.63.34.87.87,0,0,0,.28-.05,2,2,0,0,0,.31-.14l.23-.13.3-.15a8.83,8.83,0,0,1,.85-.37,2.6,2.6,0,0,1,.81-.12,1.2,1.2,0,0,1,.83.27,1,1,0,0,1,.29.78,2.91,2.91,0,0,1-1,1.9L7.2,76.68a1.64,1.64,0,0,0-.51,1.17,1.09,1.09,0,0,0,.31.81,1.14,1.14,0,0,0,.86.33h5.47a1.54,1.54,0,0,0,1-.27,1,1,0,0,0,.32-.84,1,1,0,0,0-.32-.82A1.54,1.54,0,0,0,13.33,76.8Zm8.13-3.26a2.45,2.45,0,0,0,1.2-.91,2.49,2.49,0,0,0,.42-1.44,2.65,2.65,0,0,0-.45-1.53,3,3,0,0,0-1.31-1,5,5,0,0,0-2-.36,5.94,5.94,0,0,0-1.77.27,5,5,0,0,0-1.53.75A1.24,1.24,0,0,0,15.85,71a.77.77,0,0,0,.63.33,1.12,1.12,0,0,0,.38-.07l.45-.22.31-.15a8.64,8.64,0,0,1,.82-.36,2.3,2.3,0,0,1,.79-.13,1.3,1.3,0,0,1,.91.3,1.15,1.15,0,0,1,.33.87.83.83,0,0,1-.37.76,2.3,2.3,0,0,1-1.2.24h-.66a.87.87,0,0,0-.71.32,1.25,1.25,0,0,0,0,1.5.86.86,0,0,0,.71.31h.93A2.25,2.25,0,0,1,20.4,75a.94.94,0,0,1,.37.84,1.05,1.05,0,0,1-.36.9A2.1,2.1,0,0,1,19.2,77a2.83,2.83,0,0,1-.86-.13,7.25,7.25,0,0,1-.87-.37l-.18-.08-.15-.07-.45-.22a1.06,1.06,0,0,0-.37-.06.76.76,0,0,0-.63.32,1.23,1.23,0,0,0-.26.79,1.13,1.13,0,0,0,.11.51,1.16,1.16,0,0,0,.36.42,4.71,4.71,0,0,0,1.56.75,6.46,6.46,0,0,0,1.87.27,5.79,5.79,0,0,0,2.13-.37,3.21,3.21,0,0,0,1.4-1,2.61,2.61,0,0,0,.49-1.59,2.64,2.64,0,0,0-.5-1.64A2.54,2.54,0,0,0,21.46,73.54Zm4.64,5.54a1.4,1.4,0,0,0,1-.42,1.45,1.45,0,0,0,.41-1,1.43,1.43,0,0,0-.41-1,1.46,1.46,0,0,0-2.49,1,1.42,1.42,0,0,0,.42,1A1.39,1.39,0,0,0,26.1,79.08Zm6.54,0a3.5,3.5,0,0,0,3-1.39,6.71,6.71,0,0,0,1-4,6.6,6.6,0,0,0-1-4,3.5,3.5,0,0,0-3-1.39,3.5,3.5,0,0,0-3,1.39,6.67,6.67,0,0,0-1,4,6.71,6.71,0,0,0,1,4A3.5,3.5,0,0,0,32.64,79.12Zm0-2.08a1.08,1.08,0,0,1-1-.78,7.53,7.53,0,0,1-.31-2.57,7.46,7.46,0,0,1,.31-2.56,1.08,1.08,0,0,1,1-.77,1.07,1.07,0,0,1,1,.78A7.38,7.38,0,0,1,34,73.69a7.47,7.47,0,0,1-.32,2.57A1.07,1.07,0,0,1,32.64,77Zm40.08,0h-4l2.84-2.9a9.78,9.78,0,0,0,1.67-2.25,5.17,5.17,0,0,0,.49-2.23,3.69,3.69,0,0,0-.61-2.09,3.89,3.89,0,0,0-1.73-1.4,6.42,6.42,0,0,0-2.6-.49,7.83,7.83,0,0,0-2.31.36,7.61,7.61,0,0,0-2.11,1,1.26,1.26,0,0,0-.49.52,1.63,1.63,0,0,0-.13.72,1.71,1.71,0,0,0,.34,1.07,1,1,0,0,0,.84.45,1.21,1.21,0,0,0,.38-.06,3.47,3.47,0,0,0,.41-.19,2.17,2.17,0,0,1,.31-.17l.4-.2a7.73,7.73,0,0,1,1.13-.49,3,3,0,0,1,1.07-.17,1.58,1.58,0,0,1,1.11.36,1.34,1.34,0,0,1,.39,1,3.9,3.9,0,0,1-1.32,2.54l-4.24,4.42a2.14,2.14,0,0,0-.68,1.56,1.5,1.5,0,0,0,.42,1.09,1.55,1.55,0,0,0,1.14.43h7.3A2,2,0,0,0,74,79.63a1.41,1.41,0,0,0,.43-1.12A1.33,1.33,0,0,0,74,77.42,2,2,0,0,0,72.72,77.07Zm5,3a1.87,1.87,0,0,0,1.37-.56,1.94,1.94,0,0,0,.55-1.38,1.91,1.91,0,0,0-.55-1.38,2,2,0,0,0-2.76,0,1.87,1.87,0,0,0-.55,1.38,1.9,1.9,0,0,0,.55,1.38A1.87,1.87,0,0,0,77.74,80.11ZM89.5,72.73a3.06,3.06,0,0,0,1.57-1.18,3.48,3.48,0,0,0,.57-2,3.31,3.31,0,0,0-1.39-2.81,7.47,7.47,0,0,0-7.57,0,3.27,3.27,0,0,0-1.4,2.81,3.38,3.38,0,0,0,.56,2,3.28,3.28,0,0,0,1.6,1.23,3.29,3.29,0,0,0-1.88,1.19,3.52,3.52,0,0,0-.66,2.19,3.45,3.45,0,0,0,1.49,3,8.28,8.28,0,0,0,8.14,0A3.77,3.77,0,0,0,91.37,74,3.51,3.51,0,0,0,89.5,72.73Zm-3,4.64c-1.46,0-2.18-.52-2.18-1.56s.72-1.56,2.18-1.56,2.18.52,2.18,1.56S87.91,77.37,86.46,77.37Zm0-8.88a2.1,2.1,0,0,1,1.34.35A1.36,1.36,0,0,1,88.24,70a1.4,1.4,0,0,1-.44,1.14,2.67,2.67,0,0,1-2.68,0A1.37,1.37,0,0,1,84.68,70a1.33,1.33,0,0,1,.44-1.13A2.08,2.08,0,0,1,86.46,68.49Z"/></svg>