<svg id="Layer_1" data-name="Layer 1" xmlns="http://www.w3.org/2000/svg" viewBox="0 0 200 150"><title>l1_3_1</title><path d="M191.94,114.79a17.5,17.5,0,1,1-29.56-12.66l-11-16.27a17.51,17.51,0,0,1-4.61.63,17.23,17.23,0,0,1-4.9-.71L130.7,102.43h0a17.6,17.6,0,1,1-5.83-3.85l10.8-16.09a17.46,17.46,0,0,1-2.1-24.89l-20.64-13.7a17.5,17.5,0,0,1-28.87,0v0L62.58,58.17a17.46,17.46,0,0,1-2.74,24.58L70.42,98.52a17.33,17.33,0,0,1,6.13-1.13,17.54,17.54,0,1,1-12.06,4.84L53.53,86a17.51,17.51,0,0,1-4.61.63A17.3,17.3,0,0,1,44,85.88L32.8,102.53h0A17.6,17.6,0,1,1,27,98.67l10.8-16.09a17.5,17.5,0,0,1,19.3-29L81.29,37.23A18,18,0,0,1,81,34a17.5,17.5,0,0,1,35,0,17.82,17.82,0,0,1-.3,3.21l23.65,16a17.49,17.49,0,0,1,18.41,29.46l10.58,15.76a17.47,17.47,0,0,1,23.62,16.38ZM108.21,67.11h-6.3v-6.3a2.89,2.89,0,0,0-.85-2.1,3,3,0,0,0-5,2.1v6.3h-6.3a2.9,2.9,0,0,0-2.95,3,2.91,2.91,0,0,0,.85,2.12,2.79,2.79,0,0,0,2.1.88H96v6.25a2.9,2.9,0,0,0,2.95,3,2.82,2.82,0,0,0,2.12-.85,2.91,2.91,0,0,0,.83-2.1V73.06h6.3a2.8,2.8,0,0,0,2.1-.88,3,3,0,0,0,.85-2.12,2.89,2.89,0,0,0-.85-2.1A2.85,2.85,0,0,0,108.21,67.11ZM89.66,37.27h-3l2.13-2.18A6.76,6.76,0,0,0,90,33.41a3.73,3.73,0,0,0,.37-1.68,2.68,2.68,0,0,0-.46-1.56,2.84,2.84,0,0,0-1.3-1.05,4.74,4.74,0,0,0-2-.37,6.09,6.09,0,0,0-3.31,1,1,1,0,0,0-.37.39,1.37,1.37,0,0,0-.1.54,1.28,1.28,0,0,0,.26.8.75.75,0,0,0,.63.34.66.66,0,0,0,.28-.05,1,1,0,0,0,.31-.14l.23-.13.3-.15a8.49,8.49,0,0,1,.85-.36,2.32,2.32,0,0,1,.8-.13,1.21,1.21,0,0,1,.84.27,1,1,0,0,1,.29.78,2.91,2.91,0,0,1-1,1.9l-3.18,3.32A1.64,1.64,0,0,0,83,38.32a1.13,1.13,0,0,0,.31.82,1.17,1.17,0,0,0,.86.32h5.47a1.54,1.54,0,0,0,1-.27,1,1,0,0,0,.32-.84,1,1,0,0,0-.32-.82A1.6,1.6,0,0,0,89.66,37.27Zm7-4.73a3.72,3.72,0,0,0-1.48.27V31h3.24c.87,0,1.3-.35,1.3-1s-.43-1-1.3-1H93.73a1.33,1.33,0,0,0-1,.33,1.32,1.32,0,0,0-.33,1v4.07a.81.81,0,0,0,.29.65,1,1,0,0,0,.7.25,1.58,1.58,0,0,0,.68-.16,4.57,4.57,0,0,1,.86-.27,4.15,4.15,0,0,1,.82-.08A1.69,1.69,0,0,1,97,35a1.34,1.34,0,0,1,.42,1.06,1.28,1.28,0,0,1-.41,1,1.87,1.87,0,0,1-1.24.34,2.45,2.45,0,0,1-.83-.14,7.71,7.71,0,0,1-.85-.35l-.3-.15a3.2,3.2,0,0,0-.45-.23,1,1,0,0,0-.38-.06.79.79,0,0,0-.63.32,1.24,1.24,0,0,0-.25.79,1.21,1.21,0,0,0,.11.52,1.45,1.45,0,0,0,.35.41,5,5,0,0,0,1.54.75,6.27,6.27,0,0,0,1.82.27A4.89,4.89,0,0,0,98,39.13a3.32,3.32,0,0,0,1.44-1.28A3.51,3.51,0,0,0,100,36a3.58,3.58,0,0,0-.43-1.78A3.09,3.09,0,0,0,98.36,33,3.56,3.56,0,0,0,96.62,32.54Zm5.81,7a1.4,1.4,0,0,0,1-.42,1.51,1.51,0,0,0,0-2.07,1.49,1.49,0,0,0-2.07,0,1.49,1.49,0,0,0,0,2.07A1.39,1.39,0,0,0,102.43,39.55Zm7.27-7a3.72,3.72,0,0,0-1.48.27V31h3.24c.87,0,1.3-.35,1.3-1s-.43-1-1.3-1h-4.65a1.33,1.33,0,0,0-1,.33,1.32,1.32,0,0,0-.33,1v4.07a.81.81,0,0,0,.29.65,1,1,0,0,0,.7.25,1.58,1.58,0,0,0,.68-.16,4.57,4.57,0,0,1,.86-.27,4.15,4.15,0,0,1,.82-.08,1.69,1.69,0,0,1,1.17.37,1.34,1.34,0,0,1,.42,1.06,1.28,1.28,0,0,1-.41,1,1.87,1.87,0,0,1-1.24.34,2.45,2.45,0,0,1-.83-.14,7.71,7.71,0,0,1-.85-.35l-.3-.15a3.2,3.2,0,0,0-.45-.23,1,1,0,0,0-.38-.06.79.79,0,0,0-.63.32,1.24,1.24,0,0,0-.25.79,1.21,1.21,0,0,0,.11.52,1.45,1.45,0,0,0,.35.41,5,5,0,0,0,1.54.75,6.27,6.27,0,0,0,1.82.27,4.89,4.89,0,0,0,2.15-.45,3.32,3.32,0,0,0,1.44-1.28,3.51,3.51,0,0,0,.51-1.9,3.58,3.58,0,0,0-.43-1.78,3.09,3.09,0,0,0-1.18-1.2A3.56,3.56,0,0,0,109.7,32.54ZM56.11,98.85h-5v-5a2.28,2.28,0,0,0-.68-1.68,2.42,2.42,0,0,0-3.36,0,2.28,2.28,0,0,0-.68,1.68v5h-5A2.32,2.32,0,0,0,39,101.21a2.38,2.38,0,0,0,.68,1.7,2.28,2.28,0,0,0,1.68.7h5v5a2.32,2.32,0,0,0,.68,1.68,2.44,2.44,0,0,0,3.38,0,2.34,2.34,0,0,0,.66-1.68v-5h5a2.26,2.26,0,0,0,1.68-.7,2.38,2.38,0,0,0,.68-1.7,2.28,2.28,0,0,0-.68-1.68A2.25,2.25,0,0,0,56.11,98.85Zm-15-25.49h-3l2.13-2.18a6.94,6.94,0,0,0,1.25-1.68,3.76,3.76,0,0,0,.37-1.68,2.68,2.68,0,0,0-.46-1.56,2.82,2.82,0,0,0-1.29-1.05,4.74,4.74,0,0,0-1.95-.37,6.09,6.09,0,0,0-3.32,1,1,1,0,0,0-.37.39,1.38,1.38,0,0,0-.09.54,1.27,1.27,0,0,0,.25.8.75.75,0,0,0,.63.34.93.93,0,0,0,.29-.05,1.31,1.31,0,0,0,.3-.14l.24-.13.3-.15a6.58,6.58,0,0,1,.84-.36A2.37,2.37,0,0,1,38,67a1.18,1.18,0,0,1,.83.27,1,1,0,0,1,.29.78,2.91,2.91,0,0,1-1,1.9L35,73.24a1.64,1.64,0,0,0-.51,1.17,1.1,1.1,0,0,0,1.17,1.14H41.1a1.51,1.51,0,0,0,1-.27,1,1,0,0,0,.32-.84,1,1,0,0,0-.32-.82A1.57,1.57,0,0,0,41.1,73.36Zm6.22,2.32a3.5,3.5,0,0,0,3-1.39,6.71,6.71,0,0,0,1-4,6.6,6.6,0,0,0-1-4,3.92,3.92,0,0,0-6,0,6.67,6.67,0,0,0-1,4,6.71,6.71,0,0,0,1,4A3.5,3.5,0,0,0,47.32,75.68Zm0-2.08a1.07,1.07,0,0,1-1-.78A7.47,7.47,0,0,1,46,70.25a7.3,7.3,0,0,1,.32-2.55,1.07,1.07,0,0,1,1-.78,1.08,1.08,0,0,1,1,.78,7.43,7.43,0,0,1,.31,2.55,7.53,7.53,0,0,1-.31,2.57A1.08,1.08,0,0,1,47.32,73.6Zm6.54,2a1.4,1.4,0,0,0,1-.42,1.45,1.45,0,0,0,.41-1,1.43,1.43,0,0,0-.41-1,1.45,1.45,0,0,0-2.48,1,1.41,1.41,0,0,0,.41,1A1.39,1.39,0,0,0,53.86,75.64Zm7.28-7a3.78,3.78,0,0,0-1.49.27V67.06h3.24c.87,0,1.31-.35,1.31-1s-.44-1-1.31-1H58.24a1.27,1.27,0,0,0-.94.33,1.3,1.3,0,0,0-.33,1v4.07a.81.81,0,0,0,.28.65,1,1,0,0,0,.71.25,1.42,1.42,0,0,0,.67-.17,5.45,5.45,0,0,1,.86-.27,4.18,4.18,0,0,1,.82-.07,1.69,1.69,0,0,1,1.17.37,1.33,1.33,0,0,1,.42,1,1.3,1.3,0,0,1-.4,1.06,1.9,1.9,0,0,1-1.25.34,2.45,2.45,0,0,1-.83-.14,7.93,7.93,0,0,1-.85-.36l-.3-.15a4.27,4.27,0,0,0-.45-.22,1,1,0,0,0-.37-.06.79.79,0,0,0-.63.32,1.25,1.25,0,0,0-.26.79,1.21,1.21,0,0,0,.11.52,1.49,1.49,0,0,0,.36.41,5,5,0,0,0,1.53.75,6.34,6.34,0,0,0,1.83.27,4.85,4.85,0,0,0,2.14-.45A3.39,3.39,0,0,0,64,73.94a3.53,3.53,0,0,0,.51-1.9,3.58,3.58,0,0,0-.43-1.78,3.09,3.09,0,0,0-1.18-1.2A3.52,3.52,0,0,0,61.14,68.63ZM12.42,118.79H11.19v-7.11a1.27,1.27,0,0,0-.37-1,1.31,1.31,0,0,0-1-.36,2.51,2.51,0,0,0-1.25.37l-2.4,1.4a1,1,0,0,0-.52.93,1.27,1.27,0,0,0,.29.82.92.92,0,0,0,.72.36,1,1,0,0,0,.53-.15l1.2-.7v5.41H7.21a1.49,1.49,0,0,0-1,.27,1,1,0,0,0-.32.81c0,.74.44,1.11,1.3,1.11h5.21c.87,0,1.31-.37,1.31-1.11a1,1,0,0,0-.32-.81A1.5,1.5,0,0,0,12.42,118.79Zm5.82,2.33a3.51,3.51,0,0,0,3-1.4,6.68,6.68,0,0,0,1-4,6.6,6.6,0,0,0-1-4,3.5,3.5,0,0,0-3-1.4,3.51,3.51,0,0,0-3,1.4,8.31,8.31,0,0,0,0,8A3.51,3.51,0,0,0,18.24,121.12Zm0-2.09a1.08,1.08,0,0,1-1-.78,10.73,10.73,0,0,1,0-5.12,1.08,1.08,0,0,1,1-.77,1.06,1.06,0,0,1,1,.78,10.36,10.36,0,0,1,0,5.11A1.06,1.06,0,0,1,18.24,119Zm6.54,2a1.4,1.4,0,0,0,1-.42,1.43,1.43,0,0,0,.41-1,1.45,1.45,0,0,0-.41-1,1.49,1.49,0,0,0-2.07,0,1.42,1.42,0,0,0-.42,1,1.43,1.43,0,0,0,1.46,1.45Zm9.33-2.28h-3l2.13-2.17a7.12,7.12,0,0,0,1.26-1.69,3.82,3.82,0,0,0,.36-1.67,2.8,2.8,0,0,0-.45-1.57,3,3,0,0,0-1.3-1,4.91,4.91,0,0,0-2-.37,6.16,6.16,0,0,0-3.32,1,.93.93,0,0,0-.36.39,1.21,1.21,0,0,0-.1.54,1.32,1.32,0,0,0,.25.81.77.77,0,0,0,.63.33.92.92,0,0,0,.29,0,2.56,2.56,0,0,0,.31-.14l.23-.13.3-.15a7.87,7.87,0,0,1,.85-.37,2.53,2.53,0,0,1,.8-.13,1.17,1.17,0,0,1,.83.27,1,1,0,0,1,.29.78,2.93,2.93,0,0,1-1,1.91L28,118.67a1.64,1.64,0,0,0-.51,1.17,1.12,1.12,0,0,0,.32.82,1.11,1.11,0,0,0,.85.32h5.48a1.49,1.49,0,0,0,1-.27,1,1,0,0,0,.32-.84,1,1,0,0,0-.32-.81A1.49,1.49,0,0,0,34.11,118.79Zm37.83,1.27H70.3v-9.48a1.73,1.73,0,0,0-.49-1.3,1.77,1.77,0,0,0-1.29-.48,3.43,3.43,0,0,0-1.66.5l-3.2,1.86a1.36,1.36,0,0,0-.7,1.24,1.65,1.65,0,0,0,.4,1.09,1.2,1.2,0,0,0,1,.49,1.31,1.31,0,0,0,.7-.2l1.6-.94v7.22H65a2,2,0,0,0-1.32.36,1.34,1.34,0,0,0-.42,1.08c0,1,.58,1.48,1.74,1.48h6.94c1.16,0,1.74-.49,1.74-1.48a1.34,1.34,0,0,0-.42-1.08A2,2,0,0,0,71.94,120.06Zm4.48,3a1.82,1.82,0,0,0,1.37-.56,1.87,1.87,0,0,0,.55-1.38,1.9,1.9,0,0,0-.55-1.38,1.85,1.85,0,0,0-1.37-.56A2,2,0,0,0,75,122.54,1.85,1.85,0,0,0,76.42,123.1Zm8.72.06a4.67,4.67,0,0,0,4-1.86,8.92,8.92,0,0,0,1.38-5.38,8.82,8.82,0,0,0-1.39-5.36,5.22,5.22,0,0,0-8,0,11.14,11.14,0,0,0,0,10.74A4.67,4.67,0,0,0,85.14,123.16Zm0-2.78a1.43,1.43,0,0,1-1.38-1,14.09,14.09,0,0,1,0-6.83,1.44,1.44,0,0,1,2.76,0,14.05,14.05,0,0,1,0,6.82A1.43,1.43,0,0,1,85.14,120.38ZM154,98.74h-5v-5a2.32,2.32,0,0,0-2.36-2.36,2.32,2.32,0,0,0-2.36,2.36v5h-5a2.39,2.39,0,0,0-1.68,4.06,2.23,2.23,0,0,0,1.68.7h5v5a2.39,2.39,0,0,0,4.06,1.68,2.31,2.31,0,0,0,.66-1.68v-5h5a2.26,2.26,0,0,0,1.68-.7,2.35,2.35,0,0,0,.68-1.7A2.32,2.32,0,0,0,154,98.74Zm-14.5-31.51a5,5,0,0,0-2,.36V65.13h4.32c1.16,0,1.74-.47,1.74-1.4s-.58-1.38-1.74-1.38h-6.2a1.67,1.67,0,0,0-1.26.44,1.74,1.74,0,0,0-.44,1.28v5.42a1.11,1.11,0,0,0,.38.87,1.38,1.38,0,0,0,.94.33,2,2,0,0,0,.9-.22,5.9,5.9,0,0,1,1.15-.36,5.25,5.25,0,0,1,1.09-.1,2.22,2.22,0,0,1,1.56.5,1.79,1.79,0,0,1,.56,1.4,1.73,1.73,0,0,1-.54,1.41,2.55,2.55,0,0,1-1.66.45,3.31,3.31,0,0,1-1.11-.18,10.83,10.83,0,0,1-1.13-.48l-.4-.2a5.39,5.39,0,0,0-.6-.3,1.22,1.22,0,0,0-.5-.08,1,1,0,0,0-.84.43,1.6,1.6,0,0,0-.34,1.05,1.52,1.52,0,0,0,.15.69,1.94,1.94,0,0,0,.47.55,6.75,6.75,0,0,0,2.05,1,8.31,8.31,0,0,0,2.43.36,6.5,6.5,0,0,0,2.86-.6,4.49,4.49,0,0,0,1.92-1.7,5.14,5.14,0,0,0,.11-4.91,4.05,4.05,0,0,0-1.58-1.6A4.6,4.6,0,0,0,139.51,67.23Zm7.74,9.34a1.85,1.85,0,0,0,1.37-.56,1.9,1.9,0,0,0,.55-1.38,1.87,1.87,0,0,0-.55-1.38,1.82,1.82,0,0,0-1.37-.56,1.85,1.85,0,0,0-1.39.56,1.87,1.87,0,0,0-.55,1.38,1.9,1.9,0,0,0,1.94,1.94Zm8.72.06a4.68,4.68,0,0,0,4-1.86,8.94,8.94,0,0,0,1.38-5.38A8.8,8.8,0,0,0,160,64a5.22,5.22,0,0,0-8,0,8.88,8.88,0,0,0-1.38,5.36A8.94,8.94,0,0,0,152,74.77,4.67,4.67,0,0,0,156,76.63Zm0-2.78a1.44,1.44,0,0,1-1.38-1,10,10,0,0,1-.42-3.42,9.83,9.83,0,0,1,.42-3.41,1.44,1.44,0,0,1,2.76,0,9.84,9.84,0,0,1,.42,3.4,10,10,0,0,1-.42,3.42A1.44,1.44,0,0,1,156,73.85Zm-44,41.77a3.24,3.24,0,0,0,1.59-1.21,3.33,3.33,0,0,0,.57-1.93,3.48,3.48,0,0,0-.61-2,3.87,3.87,0,0,0-1.74-1.36,6.61,6.61,0,0,0-2.61-.48,8,8,0,0,0-2.37.36,6.53,6.53,0,0,0-2,1,1.49,1.49,0,0,0-.48.54,1.62,1.62,0,0,0-.14.7,1.63,1.63,0,0,0,.34,1,1,1,0,0,0,.84.43,1.31,1.31,0,0,0,.5-.09c.15-.06.35-.16.6-.29l.42-.2a11.5,11.5,0,0,1,1.09-.48,3,3,0,0,1,1-.18,1.73,1.73,0,0,1,1.22.41,1.51,1.51,0,0,1,.44,1.15,1.12,1.12,0,0,1-.5,1,3.1,3.1,0,0,1-1.6.32h-.88a1.15,1.15,0,0,0-.94.42,1.64,1.64,0,0,0,0,2,1.15,1.15,0,0,0,.94.42h1.24a3,3,0,0,1,1.64.34,1.27,1.27,0,0,1,.5,1.12,1.38,1.38,0,0,1-.49,1.2,2.77,2.77,0,0,1-1.61.36,3.71,3.71,0,0,1-1.15-.17,9.14,9.14,0,0,1-1.15-.49l-.25-.11-.19-.09c-.25-.13-.45-.23-.6-.29a1.31,1.31,0,0,0-.5-.09,1,1,0,0,0-.84.43,1.63,1.63,0,0,0-.34,1,1.4,1.4,0,0,0,.62,1.24,6.4,6.4,0,0,0,2.08,1,9,9,0,0,0,2.5.35,7.45,7.45,0,0,0,2.83-.49,4.21,4.21,0,0,0,1.87-1.39,3.49,3.49,0,0,0,.66-2.12,3.53,3.53,0,0,0-.67-2.18A3.42,3.42,0,0,0,112,115.62Zm6.18,7.38a1.94,1.94,0,1,0,0-3.88,1.94,1.94,0,1,0,0,3.88Zm8.72.06a4.67,4.67,0,0,0,4-1.86,8.92,8.92,0,0,0,1.38-5.38,8.82,8.82,0,0,0-1.39-5.36,5.22,5.22,0,0,0-8,0,11.14,11.14,0,0,0,0,10.74A4.67,4.67,0,0,0,126.86,123.06Zm0-2.78a1.44,1.44,0,0,1-1.38-1,14.09,14.09,0,0,1,0-6.83,1.44,1.44,0,0,1,2.76,0,14.05,14.05,0,0,1,0,6.82A1.44,1.44,0,0,1,126.86,120.28Zm42.45-.32h-4l2.84-2.9a9.78,9.78,0,0,0,1.67-2.25,5.13,5.13,0,0,0,.49-2.23,3.72,3.72,0,0,0-.61-2.09,4,4,0,0,0-1.73-1.4,6.42,6.42,0,0,0-2.6-.49A7.83,7.83,0,0,0,163,109a7.61,7.61,0,0,0-2.11,1,1.26,1.26,0,0,0-.49.52,1.69,1.69,0,0,0-.13.72,1.71,1.71,0,0,0,.34,1.07,1,1,0,0,0,.84.45,1.21,1.21,0,0,0,.38-.06,2.37,2.37,0,0,0,.41-.19l.31-.17.4-.2a9,9,0,0,1,1.13-.49,3.29,3.29,0,0,1,1.07-.17,1.58,1.58,0,0,1,1.11.36,1.35,1.35,0,0,1,.39,1,3.9,3.9,0,0,1-1.32,2.54l-4.24,4.42a2.17,2.17,0,0,0-.68,1.56,1.46,1.46,0,0,0,1.56,1.52h7.3a2,2,0,0,0,1.31-.36,1.4,1.4,0,0,0,.43-1.12,1.34,1.34,0,0,0-.43-1.09A2.09,2.09,0,0,0,169.31,120Zm5,3a1.87,1.87,0,0,0,1.37-.56,2,2,0,0,0,0-2.76,2,2,0,1,0-1.37,3.32Zm8.72.06a4.68,4.68,0,0,0,4-1.86,11.1,11.1,0,0,0,0-10.74,5.22,5.22,0,0,0-8,0,11.14,11.14,0,0,0,0,10.74A4.67,4.67,0,0,0,183.05,123.06Zm0-2.78a1.44,1.44,0,0,1-1.38-1,14.09,14.09,0,0,1,0-6.83,1.44,1.44,0,0,1,2.76,0,14.05,14.05,0,0,1,0,6.82A1.44,1.44,0,0,1,183.05,120.28Z"/></svg>