<svg id="Layer_1" data-name="Layer 1" xmlns="http://www.w3.org/2000/svg" viewBox="0 0 100 100"><title>l1_3_1</title><path d="M95.57,72.9A17.5,17.5,0,1,1,66,60.24L55.05,44a17.57,17.57,0,0,1-4.61.63,17.3,17.3,0,0,1-4.91-.71L34.32,60.54h0a17.64,17.64,0,1,1-5.84-3.85l10.8-16.09a17.52,17.52,0,1,1,22.08.17L71.94,56.52A17.47,17.47,0,0,1,95.57,72.9ZM57.63,58.85h-5v-5a2.36,2.36,0,1,0-4.72,0v5h-5a2.32,2.32,0,0,0-2.36,2.36,2.36,2.36,0,0,0,.68,1.7,2.23,2.23,0,0,0,1.68.7h5v5a2.39,2.39,0,0,0,4.06,1.68,2.31,2.31,0,0,0,.66-1.68v-5h5a2.23,2.23,0,0,0,1.68-.7,2.36,2.36,0,0,0,.68-1.7,2.32,2.32,0,0,0-2.36-2.36ZM45.39,31H43.75V21.5a1.72,1.72,0,0,0-.49-1.3A1.74,1.74,0,0,0,42,19.72a3.43,3.43,0,0,0-1.66.5l-3.2,1.86a1.37,1.37,0,0,0-.7,1.24,1.73,1.73,0,0,0,.4,1.09,1.2,1.2,0,0,0,1,.49,1.38,1.38,0,0,0,.7-.2l1.6-.94V31H38.45a2,2,0,0,0-1.32.36,1.34,1.34,0,0,0-.42,1.08c0,1,.58,1.48,1.74,1.48h6.94c1.16,0,1.74-.49,1.74-1.48a1.34,1.34,0,0,0-.42-1.08A2,2,0,0,0,45.39,31Zm4.48,3a1.84,1.84,0,0,0,1.37-.56,2,2,0,0,0,0-2.76,1.84,1.84,0,0,0-1.37-.56,1.88,1.88,0,0,0-1.39.56,2,2,0,0,0,0,2.76A1.88,1.88,0,0,0,49.87,34Zm8.72.06a4.67,4.67,0,0,0,4-1.86A8.92,8.92,0,0,0,64,26.84a8.82,8.82,0,0,0-1.39-5.36,5.22,5.22,0,0,0-8,0,8.9,8.9,0,0,0-1.38,5.36,8.92,8.92,0,0,0,1.38,5.38A4.68,4.68,0,0,0,58.59,34.08Zm0-2.78a1.44,1.44,0,0,1-1.38-1,9.93,9.93,0,0,1-.42-3.42,9.86,9.86,0,0,1,.42-3.41,1.44,1.44,0,0,1,2.76,0,9.88,9.88,0,0,1,.42,3.4A9.93,9.93,0,0,1,60,30.26,1.44,1.44,0,0,1,58.59,31.3ZM13.09,80.17a4.68,4.68,0,0,0,4-1.86,8.94,8.94,0,0,0,1.38-5.38,8.87,8.87,0,0,0-1.39-5.36,4.69,4.69,0,0,0-4-1.86,4.67,4.67,0,0,0-4,1.86,8.88,8.88,0,0,0-1.38,5.36,8.94,8.94,0,0,0,1.38,5.38A4.67,4.67,0,0,0,13.09,80.17Zm0-2.78a1.44,1.44,0,0,1-1.38-1,10,10,0,0,1-.42-3.42,9.83,9.83,0,0,1,.42-3.41,1.44,1.44,0,0,1,2.76,0,9.84,9.84,0,0,1,.42,3.4,10,10,0,0,1-.42,3.42A1.44,1.44,0,0,1,13.09,77.39Zm8.72,2.72a1.87,1.87,0,0,0,1.37-.56,1.94,1.94,0,0,0,.55-1.38,1.91,1.91,0,0,0-.55-1.38,2,2,0,0,0-2.76,0,1.87,1.87,0,0,0-.55,1.38,1.9,1.9,0,0,0,.55,1.38A1.87,1.87,0,0,0,21.81,80.11Zm11.76-7.38a3.06,3.06,0,0,0,1.57-1.18,3.48,3.48,0,0,0,.57-2,3.31,3.31,0,0,0-1.39-2.81,6.22,6.22,0,0,0-3.79-1,6.21,6.21,0,0,0-3.78,1,3.27,3.27,0,0,0-1.4,2.81,3.38,3.38,0,0,0,.56,2,3.28,3.28,0,0,0,1.6,1.23,3.29,3.29,0,0,0-1.88,1.19A3.52,3.52,0,0,0,25,76.11a3.45,3.45,0,0,0,1.49,3,6.87,6.87,0,0,0,4.07,1.07,6.9,6.9,0,0,0,4.07-1.07A3.77,3.77,0,0,0,35.44,74,3.51,3.51,0,0,0,33.57,72.73Zm-3,4.64c-1.46,0-2.18-.52-2.18-1.56s.72-1.56,2.18-1.56,2.18.52,2.18,1.56S32,77.37,30.53,77.37Zm0-8.88a2.1,2.1,0,0,1,1.34.35A1.36,1.36,0,0,1,32.31,70a1.4,1.4,0,0,1-.44,1.14,2.1,2.1,0,0,1-1.34.36,2.08,2.08,0,0,1-1.34-.36A1.37,1.37,0,0,1,28.75,70a1.33,1.33,0,0,1,.44-1.13A2.08,2.08,0,0,1,30.53,68.49ZM69.21,81.17a4.67,4.67,0,0,0,4-1.86,8.94,8.94,0,0,0,1.38-5.38,8.8,8.8,0,0,0-1.39-5.36,5.22,5.22,0,0,0-8,0,8.88,8.88,0,0,0-1.38,5.36,8.94,8.94,0,0,0,1.38,5.38A4.67,4.67,0,0,0,69.21,81.17Zm0-2.78a1.44,1.44,0,0,1-1.38-1,10,10,0,0,1-.42-3.42,9.83,9.83,0,0,1,.42-3.41,1.44,1.44,0,0,1,2.76,0,9.84,9.84,0,0,1,.42,3.4,10,10,0,0,1-.42,3.42A1.44,1.44,0,0,1,69.21,78.39Zm8.72,2.72a1.85,1.85,0,0,0,1.37-.56,1.9,1.9,0,0,0,.55-1.38,1.87,1.87,0,0,0-.55-1.38,1.82,1.82,0,0,0-1.37-.56,1.85,1.85,0,0,0-1.39.56A1.87,1.87,0,0,0,76,79.17a1.9,1.9,0,0,0,1.94,1.94Zm12.44-3h-4l2.84-2.9a9.49,9.49,0,0,0,1.67-2.25,5,5,0,0,0,.49-2.23,3.69,3.69,0,0,0-.61-2.09A3.84,3.84,0,0,0,89,67.2a6.42,6.42,0,0,0-2.6-.49,7.83,7.83,0,0,0-2.31.36,7.74,7.74,0,0,0-2.11,1,1.33,1.33,0,0,0-.49.52,1.63,1.63,0,0,0-.13.72,1.71,1.71,0,0,0,.34,1.07,1,1,0,0,0,.84.45,1.21,1.21,0,0,0,.38-.06,2.86,2.86,0,0,0,.41-.19l.31-.17.4-.2a8.23,8.23,0,0,1,1.13-.49,3.08,3.08,0,0,1,1.07-.17,1.58,1.58,0,0,1,1.11.36,1.34,1.34,0,0,1,.39,1,3.9,3.9,0,0,1-1.32,2.54l-4.24,4.42a2.18,2.18,0,0,0-.68,1.56,1.5,1.5,0,0,0,.42,1.09,1.55,1.55,0,0,0,1.14.43h7.3a2,2,0,0,0,1.31-.36,1.38,1.38,0,0,0,.43-1.12,1.3,1.3,0,0,0-.43-1.09A2,2,0,0,0,90.37,78.07Z"/></svg>