<svg id="Layer_1" data-name="Layer 1" xmlns="http://www.w3.org/2000/svg" viewBox="0 0 200 150"><title>l1_3_1</title><path d="M195.51,112.34A17.5,17.5,0,1,1,166,99.68L155,83.41a17.51,17.51,0,0,1-4.61.63,17.28,17.28,0,0,1-4.9-.71L134.27,100h0a17.55,17.55,0,1,1-5.83-3.86L139.23,80a17.46,17.46,0,0,1-2.1-24.89l-20.64-13.7a17.48,17.48,0,0,1-28.87,0v0L66.15,55.72a17.47,17.47,0,0,1-2.74,24.59L74,96.07a17.33,17.33,0,0,1,6.13-1.13,17.55,17.55,0,1,1-12.06,4.85l-11-16.28a17.13,17.13,0,0,1-9.52-.07L36.37,100.08h0a17.6,17.6,0,1,1-5.84-3.86L41.34,80.13a17.5,17.5,0,0,1,19.29-29L84.87,34.78a17.07,17.07,0,0,1-.31-3.22,17.5,17.5,0,0,1,35,0,17.8,17.8,0,0,1-.31,3.2q11.82,8,23.65,16A17.49,17.49,0,0,1,161.31,80.2L171.89,96A17.32,17.32,0,0,1,178,94.84,17.5,17.5,0,0,1,195.51,112.34ZM111.78,64.66h-6.3v-6.3a3,3,0,1,0-5.9,0v6.3h-6.3a2.9,2.9,0,0,0-3,3,2.91,2.91,0,0,0,.85,2.12,2.8,2.8,0,0,0,2.1.88h6.3v6.25a2.9,2.9,0,0,0,3,3,2.8,2.8,0,0,0,2.12-.85,2.91,2.91,0,0,0,.83-2.1V70.61h6.3a2.8,2.8,0,0,0,2.1-.88,2.91,2.91,0,0,0,.85-2.12,2.9,2.9,0,0,0-3-3ZM97,36.09H95.37V26.61a1.72,1.72,0,0,0-.49-1.3,1.74,1.74,0,0,0-1.29-.48,3.43,3.43,0,0,0-1.66.5l-3.2,1.86a1.37,1.37,0,0,0-.7,1.24,1.73,1.73,0,0,0,.4,1.09,1.2,1.2,0,0,0,1,.49,1.41,1.41,0,0,0,.7-.2l1.6-.94v7.22H90.07a2,2,0,0,0-1.32.36,1.34,1.34,0,0,0-.42,1.08c0,1,.58,1.48,1.74,1.48H97c1.16,0,1.74-.49,1.74-1.48a1.34,1.34,0,0,0-.42-1.08A2,2,0,0,0,97,36.09Zm4.48,3a1.94,1.94,0,1,0,0-3.88,1.94,1.94,0,1,0,0,3.88Zm9.7-9.34a5,5,0,0,0-2,.36V27.69h4.32c1.16,0,1.74-.47,1.74-1.4s-.58-1.38-1.74-1.38h-6.2a1.71,1.71,0,0,0-1.26.44,1.74,1.74,0,0,0-.44,1.28v5.42a1.11,1.11,0,0,0,.38.87,1.38,1.38,0,0,0,.94.33,1.87,1.87,0,0,0,.9-.22,7.69,7.69,0,0,1,1.15-.36,5.25,5.25,0,0,1,1.09-.1,2.27,2.27,0,0,1,1.56.5,1.79,1.79,0,0,1,.56,1.4,1.73,1.73,0,0,1-.54,1.41,2.55,2.55,0,0,1-1.66.45,3.31,3.31,0,0,1-1.11-.18,10.83,10.83,0,0,1-1.13-.48l-.4-.2a5.39,5.39,0,0,0-.6-.3,1.41,1.41,0,0,0-.5-.08,1,1,0,0,0-.84.43,1.63,1.63,0,0,0-.34,1,1.47,1.47,0,0,0,.15.69,1.82,1.82,0,0,0,.47.55,6.53,6.53,0,0,0,2.05,1,8.31,8.31,0,0,0,2.43.36,6.5,6.5,0,0,0,2.86-.6,4.49,4.49,0,0,0,1.92-1.7,4.75,4.75,0,0,0,.68-2.54,4.83,4.83,0,0,0-.57-2.37,4.05,4.05,0,0,0-1.58-1.6A4.6,4.6,0,0,0,111.19,29.79ZM58.68,96.4h-5v-5A2.32,2.32,0,0,0,51.28,89a2.32,2.32,0,0,0-2.36,2.36v5h-5a2.32,2.32,0,0,0-2.36,2.36,2.38,2.38,0,0,0,.68,1.7,2.3,2.3,0,0,0,1.68.7h5v5a2.32,2.32,0,0,0,2.36,2.36,2.27,2.27,0,0,0,1.7-.68,2.34,2.34,0,0,0,.66-1.68v-5h5a2.26,2.26,0,0,0,1.68-.7,2.34,2.34,0,0,0,.68-1.7,2.32,2.32,0,0,0-2.36-2.36ZM48.44,71.18H46.8V61.7a1.72,1.72,0,0,0-.49-1.3A1.74,1.74,0,0,0,45,59.92a3.43,3.43,0,0,0-1.66.5l-3.2,1.86a1.37,1.37,0,0,0-.7,1.24,1.73,1.73,0,0,0,.4,1.09,1.2,1.2,0,0,0,1,.49,1.38,1.38,0,0,0,.7-.2l1.6-.94v7.22H41.5a2,2,0,0,0-1.31.36,1.32,1.32,0,0,0-.43,1.08c0,1,.58,1.48,1.74,1.48h6.94c1.16,0,1.75-.49,1.75-1.48a1.35,1.35,0,0,0-.43-1.08A2,2,0,0,0,48.44,71.18Zm4.48,3a1.84,1.84,0,0,0,1.37-.56,2,2,0,0,0,0-2.76,1.84,1.84,0,0,0-1.37-.56,1.88,1.88,0,0,0-1.39.56,2,2,0,0,0,0,2.76A1.88,1.88,0,0,0,52.92,74.22Zm8.72.06a4.67,4.67,0,0,0,4-1.86A8.92,8.92,0,0,0,67,67a8.82,8.82,0,0,0-1.39-5.36,5.22,5.22,0,0,0-8,0A8.9,8.9,0,0,0,56.26,67a8.92,8.92,0,0,0,1.38,5.38A4.68,4.68,0,0,0,61.64,74.28Zm0-2.78a1.44,1.44,0,0,1-1.38-1A9.93,9.93,0,0,1,59.84,67a9.86,9.86,0,0,1,.42-3.41,1.44,1.44,0,0,1,2.76,0,9.88,9.88,0,0,1,.42,3.4A9.93,9.93,0,0,1,63,70.46,1.44,1.44,0,0,1,61.64,71.5Zm-46.5,49.21a4.68,4.68,0,0,0,4-1.86,8.92,8.92,0,0,0,1.38-5.38,8.82,8.82,0,0,0-1.39-5.36,4.69,4.69,0,0,0-4-1.86,4.67,4.67,0,0,0-4,1.86,8.9,8.9,0,0,0-1.38,5.36,8.92,8.92,0,0,0,1.38,5.38A4.67,4.67,0,0,0,15.14,120.71Zm0-2.78a1.43,1.43,0,0,1-1.38-1,14.09,14.09,0,0,1,0-6.83,1.44,1.44,0,0,1,2.76,0,14.05,14.05,0,0,1,0,6.82A1.43,1.43,0,0,1,15.14,117.93Zm8.72,2.72a1.83,1.83,0,0,0,1.37-.56,1.87,1.87,0,0,0,.55-1.38,1.9,1.9,0,0,0-.55-1.38,2,2,0,0,0-2.76,0,1.9,1.9,0,0,0-.55,1.38,1.87,1.87,0,0,0,.55,1.38A1.83,1.83,0,0,0,23.86,120.65Zm9.7-9.34a5,5,0,0,0-2,.36v-2.46H35.9c1.16,0,1.74-.46,1.74-1.4s-.58-1.38-1.74-1.38H29.7a1.54,1.54,0,0,0-1.7,1.72v5.42a1.08,1.08,0,0,0,.38.87,1.37,1.37,0,0,0,.94.33,1.87,1.87,0,0,0,.9-.22,7.69,7.69,0,0,1,1.15-.36,6,6,0,0,1,1.09-.1,2.3,2.3,0,0,1,1.56.5,1.8,1.8,0,0,1,.56,1.4A1.73,1.73,0,0,1,34,117.4a2.57,2.57,0,0,1-1.66.45,3.31,3.31,0,0,1-1.11-.18,10.83,10.83,0,0,1-1.13-.48l-.4-.2-.6-.3a1.46,1.46,0,0,0-.5-.08,1,1,0,0,0-.84.43,1.63,1.63,0,0,0-.34,1,1.47,1.47,0,0,0,.15.69,1.59,1.59,0,0,0,.47.55,6.43,6.43,0,0,0,2.05,1,8.31,8.31,0,0,0,2.43.36,6.5,6.5,0,0,0,2.86-.6,4.54,4.54,0,0,0,1.92-1.7,4.75,4.75,0,0,0,.68-2.54,4.83,4.83,0,0,0-.57-2.37,4.12,4.12,0,0,0-1.58-1.6A4.65,4.65,0,0,0,33.56,111.31Zm37.71,9.4a4.67,4.67,0,0,0,4-1.86,8.92,8.92,0,0,0,1.38-5.38,8.82,8.82,0,0,0-1.39-5.36,5.22,5.22,0,0,0-8,0,8.9,8.9,0,0,0-1.38,5.36,8.92,8.92,0,0,0,1.38,5.38A4.67,4.67,0,0,0,71.27,120.71Zm0-2.78a1.43,1.43,0,0,1-1.38-1,14.09,14.09,0,0,1,0-6.83,1.44,1.44,0,0,1,2.76,0,14.05,14.05,0,0,1,0,6.82A1.43,1.43,0,0,1,71.27,117.93ZM80,120.65a1.82,1.82,0,0,0,1.37-.56,1.87,1.87,0,0,0,.55-1.38,1.9,1.9,0,0,0-.55-1.38,1.85,1.85,0,0,0-1.37-.56,2,2,0,0,0-1.39,3.32A1.85,1.85,0,0,0,80,120.65Zm9.7-9.34a5,5,0,0,0-2,.36v-2.46H92c1.16,0,1.74-.46,1.74-1.4s-.58-1.38-1.74-1.38h-6.2a1.71,1.71,0,0,0-1.26.44,1.76,1.76,0,0,0-.44,1.28v5.42a1.11,1.11,0,0,0,.38.87,1.38,1.38,0,0,0,.94.33,1.87,1.87,0,0,0,.9-.22,7.69,7.69,0,0,1,1.15-.36,6,6,0,0,1,1.09-.1,2.27,2.27,0,0,1,1.56.5,1.8,1.8,0,0,1,.56,1.4,1.73,1.73,0,0,1-.54,1.41,2.55,2.55,0,0,1-1.66.45,3.31,3.31,0,0,1-1.11-.18,10.83,10.83,0,0,1-1.13-.48l-.4-.2-.6-.3a1.41,1.41,0,0,0-.5-.08,1.06,1.06,0,0,0-.84.43,1.63,1.63,0,0,0-.34,1,1.47,1.47,0,0,0,.15.69,1.71,1.71,0,0,0,.47.55,6.53,6.53,0,0,0,2.05,1,8.31,8.31,0,0,0,2.43.36,6.5,6.5,0,0,0,2.86-.6,4.42,4.42,0,0,0,1.92-1.7,4.75,4.75,0,0,0,.68-2.54,4.83,4.83,0,0,0-.57-2.37,4.12,4.12,0,0,0-1.58-1.6A4.6,4.6,0,0,0,89.69,111.31Zm67.89-15h-5v-5a2.28,2.28,0,0,0-.68-1.68,2.42,2.42,0,0,0-3.36,0,2.28,2.28,0,0,0-.68,1.68v5h-5a2.32,2.32,0,0,0-2.36,2.36,2.34,2.34,0,0,0,.68,1.7,2.26,2.26,0,0,0,1.68.7h5v5a2.32,2.32,0,0,0,.68,1.68,2.44,2.44,0,0,0,3.38,0,2.34,2.34,0,0,0,.66-1.68v-5h5a2.26,2.26,0,0,0,1.68-.7,2.38,2.38,0,0,0,.68-1.7,2.28,2.28,0,0,0-.68-1.68A2.25,2.25,0,0,0,157.58,96.3ZM142.1,74.18a4.67,4.67,0,0,0,4-1.86,8.94,8.94,0,0,0,1.38-5.38,8.8,8.8,0,0,0-1.39-5.36,5.22,5.22,0,0,0-8,0,8.88,8.88,0,0,0-1.38,5.36,8.94,8.94,0,0,0,1.38,5.38A4.67,4.67,0,0,0,142.1,74.18Zm0-2.78a1.44,1.44,0,0,1-1.38-1,10,10,0,0,1-.42-3.42,9.83,9.83,0,0,1,.42-3.41,1.44,1.44,0,0,1,2.76,0,9.84,9.84,0,0,1,.42,3.4,10,10,0,0,1-.42,3.42A1.44,1.44,0,0,1,142.1,71.4Zm8.72,2.72a1.85,1.85,0,0,0,1.37-.56,1.9,1.9,0,0,0,.55-1.38,1.87,1.87,0,0,0-.55-1.38,1.82,1.82,0,0,0-1.37-.56,1.85,1.85,0,0,0-1.39.56,1.87,1.87,0,0,0-.55,1.38,1.9,1.9,0,0,0,1.94,1.94Zm9.7-9.34a5,5,0,0,0-2,.36V62.68h4.32c1.16,0,1.74-.47,1.74-1.4s-.58-1.38-1.74-1.38h-6.2a1.67,1.67,0,0,0-1.26.44,1.74,1.74,0,0,0-.44,1.28V67a1.11,1.11,0,0,0,.38.87,1.38,1.38,0,0,0,.94.33,2,2,0,0,0,.9-.22,5.9,5.9,0,0,1,1.15-.36,5.25,5.25,0,0,1,1.09-.1,2.22,2.22,0,0,1,1.56.5,1.79,1.79,0,0,1,.56,1.4,1.73,1.73,0,0,1-.54,1.41,2.55,2.55,0,0,1-1.66.45,3.31,3.31,0,0,1-1.11-.18,10.83,10.83,0,0,1-1.13-.48l-.4-.2a5.39,5.39,0,0,0-.6-.3,1.22,1.22,0,0,0-.5-.08,1,1,0,0,0-.84.43,1.6,1.6,0,0,0-.34,1,1.52,1.52,0,0,0,.15.69,1.94,1.94,0,0,0,.47.55,6.75,6.75,0,0,0,2.05,1,8.31,8.31,0,0,0,2.43.36,6.5,6.5,0,0,0,2.86-.6,4.49,4.49,0,0,0,1.92-1.7,5.14,5.14,0,0,0,.11-4.91,4.05,4.05,0,0,0-1.58-1.6A4.6,4.6,0,0,0,160.52,64.78ZM113,119.61a4.67,4.67,0,0,0,4-1.86,8.92,8.92,0,0,0,1.38-5.38A8.9,8.9,0,0,0,117,107a5.23,5.23,0,0,0-8,0,8.9,8.9,0,0,0-1.38,5.36,8.92,8.92,0,0,0,1.38,5.38A4.68,4.68,0,0,0,113,119.61Zm0-2.78a1.45,1.45,0,0,1-1.38-1,14.43,14.43,0,0,1,0-6.83,1.44,1.44,0,0,1,2.76,0,14.05,14.05,0,0,1,0,6.82A1.44,1.44,0,0,1,113,116.83Zm8.72,2.72a1.8,1.8,0,0,0,1.37-.56,2,2,0,0,0,0-2.76,1.84,1.84,0,0,0-1.37-.56,2,2,0,0,0-1.39,3.32A1.86,1.86,0,0,0,121.74,119.55Zm12.44-3h-4l2.84-2.9a8.86,8.86,0,0,0,1.67-2.25,5,5,0,0,0,.49-2.23,3.66,3.66,0,0,0-.61-2.09,3.85,3.85,0,0,0-1.73-1.4,6.35,6.35,0,0,0-2.6-.49,7.83,7.83,0,0,0-2.31.36,7.74,7.74,0,0,0-2.11,1,1.4,1.4,0,0,0-.49.52,1.85,1.85,0,0,0-.13.72,1.77,1.77,0,0,0,.34,1.07,1,1,0,0,0,.84.45,1.16,1.16,0,0,0,.38-.06,2.07,2.07,0,0,0,.41-.19l.31-.17.4-.2a10.47,10.47,0,0,1,1.13-.49,3.38,3.38,0,0,1,1.07-.17,1.58,1.58,0,0,1,1.11.36,1.35,1.35,0,0,1,.39,1,3.9,3.9,0,0,1-1.32,2.54L126,116.35a2.22,2.22,0,0,0-.68,1.56,1.46,1.46,0,0,0,1.56,1.52h7.3a2,2,0,0,0,1.31-.36,1.36,1.36,0,0,0,.43-1.12,1.33,1.33,0,0,0-.43-1.09A2.05,2.05,0,0,0,134.18,116.51Zm35,3.2a4.68,4.68,0,0,0,4-1.86,8.92,8.92,0,0,0,1.38-5.38,8.89,8.89,0,0,0-1.39-5.36,5.22,5.22,0,0,0-8,0,8.9,8.9,0,0,0-1.38,5.36,8.92,8.92,0,0,0,1.38,5.38A4.67,4.67,0,0,0,169.17,119.71Zm0-2.78a1.43,1.43,0,0,1-1.38-1,14.09,14.09,0,0,1,0-6.83,1.44,1.44,0,0,1,2.76,0,14.05,14.05,0,0,1,0,6.82A1.43,1.43,0,0,1,169.17,116.93Zm8.72,2.72a1.83,1.83,0,0,0,1.37-.56,1.91,1.91,0,0,0,.55-1.38,1.94,1.94,0,0,0-.55-1.38,2,2,0,0,0-2.76,0,1.9,1.9,0,0,0-.55,1.38,1.87,1.87,0,0,0,.55,1.38A1.83,1.83,0,0,0,177.89,119.65Zm11.26-7.38a3.19,3.19,0,0,0,1.59-1.21,3.3,3.3,0,0,0,.57-1.93,3.56,3.56,0,0,0-.61-2,4,4,0,0,0-1.74-1.36,6.68,6.68,0,0,0-2.61-.48,8,8,0,0,0-2.37.36,6.75,6.75,0,0,0-2,1,1.67,1.67,0,0,0-.48.54,1.48,1.48,0,0,0-.14.7,1.6,1.6,0,0,0,.34,1.05,1,1,0,0,0,.84.43,1.35,1.35,0,0,0,.5-.09c.14-.06.34-.15.6-.29l.42-.2a10.48,10.48,0,0,1,1.09-.48,3,3,0,0,1,1-.18,1.75,1.75,0,0,1,1.22.41,1.52,1.52,0,0,1,.44,1.15,1.12,1.12,0,0,1-.5,1,3,3,0,0,1-1.6.32h-.88a1.13,1.13,0,0,0-.94.42,1.53,1.53,0,0,0-.34,1,1.52,1.52,0,0,0,.34,1,1.13,1.13,0,0,0,.94.42h1.24a3.09,3.09,0,0,1,1.64.34,1.27,1.27,0,0,1,.5,1.12,1.41,1.41,0,0,1-.49,1.2,2.8,2.8,0,0,1-1.61.36,3.43,3.43,0,0,1-1.15-.17,7.43,7.43,0,0,1-1.15-.49l-.25-.11-.19-.09-.6-.29a1.35,1.35,0,0,0-.5-.09,1,1,0,0,0-.84.43,1.63,1.63,0,0,0-.34,1,1.47,1.47,0,0,0,.14.69,1.44,1.44,0,0,0,.48.55,6.3,6.3,0,0,0,2.08,1,8.63,8.63,0,0,0,2.5.35,7.45,7.45,0,0,0,2.83-.49,4.19,4.19,0,0,0,1.87-1.39,3.47,3.47,0,0,0,.66-2.12,3.6,3.6,0,0,0-.67-2.18A3.46,3.46,0,0,0,189.15,112.27Z"/></svg>