<svg id="Layer_1" data-name="Layer 1" xmlns="http://www.w3.org/2000/svg" viewBox="0 0 200 150"><title>l1_3_1</title><path d="M196.18,112.34a17.5,17.5,0,1,1-29.56-12.66l-11-16.27a17.51,17.51,0,0,1-4.61.63,17.28,17.28,0,0,1-4.9-.71L134.94,100h0a17.55,17.55,0,1,1-5.83-3.86L139.9,80a17.46,17.46,0,0,1-2.1-24.89l-20.64-13.7a17.48,17.48,0,0,1-28.87,0v0L66.82,55.72a17.47,17.47,0,0,1-2.74,24.59L74.66,96.07a17.33,17.33,0,0,1,6.13-1.13,17.55,17.55,0,1,1-12.06,4.85l-11-16.28a17.13,17.13,0,0,1-9.52-.07L37,100.08h0a17.6,17.6,0,1,1-5.84-3.86L42,80.13a17.5,17.5,0,0,1,19.29-29L85.54,34.78a17.07,17.07,0,0,1-.31-3.22,17.5,17.5,0,0,1,35,0,17.8,17.8,0,0,1-.31,3.2q11.82,8,23.65,16A17.49,17.49,0,0,1,162,80.2L172.56,96a17.32,17.32,0,0,1,6.12-1.13A17.5,17.5,0,0,1,196.18,112.34ZM112.45,64.66h-6.3v-6.3a2.89,2.89,0,0,0-.85-2.1,3,3,0,0,0-5,2.1v6.3H94a2.9,2.9,0,0,0-3,3,2.91,2.91,0,0,0,.85,2.12,2.79,2.79,0,0,0,2.1.88h6.3v6.25a2.9,2.9,0,0,0,3,3,2.8,2.8,0,0,0,2.12-.85,2.91,2.91,0,0,0,.83-2.1V70.61h6.3a2.8,2.8,0,0,0,2.1-.88,3,3,0,0,0,.85-2.12,2.89,2.89,0,0,0-.85-2.1A2.85,2.85,0,0,0,112.45,64.66ZM97.68,36.09H96V26.61a1.72,1.72,0,0,0-.49-1.3,1.74,1.74,0,0,0-1.29-.48,3.43,3.43,0,0,0-1.66.5l-3.2,1.86a1.37,1.37,0,0,0-.7,1.24,1.73,1.73,0,0,0,.4,1.09,1.2,1.2,0,0,0,1,.49,1.41,1.41,0,0,0,.7-.2l1.6-.94v7.22H90.74a2,2,0,0,0-1.32.36A1.34,1.34,0,0,0,89,37.53c0,1,.58,1.48,1.74,1.48h6.94c1.16,0,1.74-.49,1.74-1.48A1.34,1.34,0,0,0,99,36.45,2,2,0,0,0,97.68,36.09Zm4.48,3a1.94,1.94,0,1,0,0-3.88,1.94,1.94,0,1,0,0,3.88Zm11.76-7.38a3,3,0,0,0,1.57-1.18,3.48,3.48,0,0,0,.57-2,3.3,3.3,0,0,0-1.39-2.81,7.47,7.47,0,0,0-7.57,0,3.31,3.31,0,0,0-1.4,2.81,3.41,3.41,0,0,0,.56,1.95,3.33,3.33,0,0,0,1.6,1.23A3.32,3.32,0,0,0,106,32.94a3.52,3.52,0,0,0-.66,2.19,3.45,3.45,0,0,0,1.49,3,8.28,8.28,0,0,0,8.14,0,3.45,3.45,0,0,0,1.49-3,3.52,3.52,0,0,0-.65-2.15A3.47,3.47,0,0,0,113.92,31.75Zm-3,4.64c-1.45,0-2.18-.52-2.18-1.56s.73-1.56,2.18-1.56,2.18.52,2.18,1.56S112.33,36.39,110.88,36.39Zm0-8.88a2.15,2.15,0,0,1,1.34.35,1.36,1.36,0,0,1,.44,1.13,1.4,1.4,0,0,1-.44,1.14,2.67,2.67,0,0,1-2.68,0A1.4,1.4,0,0,1,109.1,29a1.36,1.36,0,0,1,.44-1.13A2.15,2.15,0,0,1,110.88,27.51ZM60.35,96.4h-5v-5A2.32,2.32,0,0,0,53,89a2.32,2.32,0,0,0-2.36,2.36v5h-5a2.32,2.32,0,0,0-2.36,2.36,2.38,2.38,0,0,0,.68,1.7,2.3,2.3,0,0,0,1.68.7h5v5A2.32,2.32,0,0,0,53,108.52a2.27,2.27,0,0,0,1.7-.68,2.34,2.34,0,0,0,.66-1.68v-5h5a2.26,2.26,0,0,0,1.68-.7,2.34,2.34,0,0,0,.68-1.7,2.32,2.32,0,0,0-2.36-2.36ZM44.87,74.28a4.67,4.67,0,0,0,4-1.86A8.92,8.92,0,0,0,50.25,67a8.82,8.82,0,0,0-1.39-5.36,4.66,4.66,0,0,0-4-1.86,4.68,4.68,0,0,0-4,1.86A8.9,8.9,0,0,0,39.49,67a8.92,8.92,0,0,0,1.38,5.38A4.68,4.68,0,0,0,44.87,74.28Zm0-2.78a1.44,1.44,0,0,1-1.38-1A9.93,9.93,0,0,1,43.07,67a9.86,9.86,0,0,1,.42-3.41,1.44,1.44,0,0,1,2.76,0,9.88,9.88,0,0,1,.42,3.4,9.93,9.93,0,0,1-.42,3.42A1.44,1.44,0,0,1,44.87,71.5Zm8.72,2.72A1.84,1.84,0,0,0,55,73.66a2,2,0,0,0,0-2.76,1.84,1.84,0,0,0-1.37-.56,1.88,1.88,0,0,0-1.39.56,2,2,0,0,0,0,2.76A1.88,1.88,0,0,0,53.59,74.22Zm11.76-7.38a3,3,0,0,0,1.57-1.18,3.48,3.48,0,0,0,.57-2,3.3,3.3,0,0,0-1.39-2.81,6.2,6.2,0,0,0-3.79-1,6.25,6.25,0,0,0-3.78,1,3.31,3.31,0,0,0-1.4,2.81,3.41,3.41,0,0,0,.56,2,3.38,3.38,0,0,0,1.6,1.23A3.32,3.32,0,0,0,57.41,68a3.52,3.52,0,0,0-.66,2.19,3.45,3.45,0,0,0,1.49,3,6.9,6.9,0,0,0,4.07,1.07,6.87,6.87,0,0,0,4.07-1.07,3.52,3.52,0,0,0-1-6.35Zm-3,4.64c-1.45,0-2.18-.52-2.18-1.56s.73-1.56,2.18-1.56,2.18.52,2.18,1.56S63.77,71.48,62.31,71.48Zm0-8.88a2.15,2.15,0,0,1,1.34.35,1.33,1.33,0,0,1,.44,1.13,1.37,1.37,0,0,1-.44,1.14,2.67,2.67,0,0,1-2.68,0,1.4,1.4,0,0,1-.44-1.14A1.36,1.36,0,0,1,61,63,2.17,2.17,0,0,1,62.31,62.6Zm-46.5,57.11a4.68,4.68,0,0,0,4-1.86,8.92,8.92,0,0,0,1.38-5.38,8.82,8.82,0,0,0-1.39-5.36,4.69,4.69,0,0,0-4-1.86,4.67,4.67,0,0,0-4,1.86,8.9,8.9,0,0,0-1.38,5.36,8.92,8.92,0,0,0,1.38,5.38A4.67,4.67,0,0,0,15.81,119.71Zm0-2.78a1.43,1.43,0,0,1-1.38-1,14.09,14.09,0,0,1,0-6.83,1.44,1.44,0,0,1,2.76,0,14.05,14.05,0,0,1,0,6.82A1.43,1.43,0,0,1,15.81,116.93Zm8.72,2.72a1.83,1.83,0,0,0,1.37-.56,1.87,1.87,0,0,0,.55-1.38,1.9,1.9,0,0,0-.55-1.38,2,2,0,0,0-2.76,0,1.9,1.9,0,0,0-.55,1.38,1.87,1.87,0,0,0,.55,1.38A1.83,1.83,0,0,0,24.53,119.65Zm13-5.3h-.44v-7.22a1.7,1.7,0,0,0-.54-1.34,1.9,1.9,0,0,0-1.3-.48,2,2,0,0,0-.89.21,1.83,1.83,0,0,0-.71.61L28,114.29a2.22,2.22,0,0,0-.44,1.32,1.52,1.52,0,0,0,.42,1.1,1.48,1.48,0,0,0,1.14.44h4.46v.68a1.65,1.65,0,0,0,1.78,1.82,1.85,1.85,0,0,0,1.3-.46,1.76,1.76,0,0,0,.5-1.36v-.68h.44c1.16,0,1.74-.47,1.74-1.42S38.71,114.35,37.55,114.35Zm-6.42,0,2.4-3.46v3.46Zm40.81,6.36a4.67,4.67,0,0,0,4-1.86,8.92,8.92,0,0,0,1.38-5.38,8.82,8.82,0,0,0-1.39-5.36,5.22,5.22,0,0,0-8,0,8.9,8.9,0,0,0-1.38,5.36,8.92,8.92,0,0,0,1.38,5.38A4.67,4.67,0,0,0,71.94,120.71Zm0-2.78a1.43,1.43,0,0,1-1.38-1,14.09,14.09,0,0,1,0-6.83,1.44,1.44,0,0,1,2.76,0,14.05,14.05,0,0,1,0,6.82A1.43,1.43,0,0,1,71.94,117.93Zm8.72,2.72a1.82,1.82,0,0,0,1.37-.56,1.87,1.87,0,0,0,.55-1.38,1.9,1.9,0,0,0-.55-1.38,1.85,1.85,0,0,0-1.37-.56,2,2,0,0,0-1.39,3.32A1.85,1.85,0,0,0,80.66,120.65Zm13-5.3h-.44v-7.22a1.7,1.7,0,0,0-.54-1.34,1.88,1.88,0,0,0-1.3-.48,2,2,0,0,0-.89.21,1.9,1.9,0,0,0-.71.61l-5.72,8.16a2.29,2.29,0,0,0-.44,1.32,1.52,1.52,0,0,0,.42,1.1,1.48,1.48,0,0,0,1.14.44h4.46v.68a1.76,1.76,0,0,0,.49,1.36,1.8,1.8,0,0,0,1.29.46,1.83,1.83,0,0,0,1.3-.46,1.76,1.76,0,0,0,.5-1.36v-.68h.44c1.16,0,1.74-.47,1.74-1.42S94.84,115.35,93.68,115.35Zm-6.42,0,2.4-3.46v3.46Zm71-19h-5v-5a2.32,2.32,0,0,0-2.36-2.36,2.32,2.32,0,0,0-2.36,2.36v5h-5a2.32,2.32,0,0,0-2.36,2.36,2.34,2.34,0,0,0,.68,1.7,2.26,2.26,0,0,0,1.68.7h5v5a2.39,2.39,0,0,0,4.06,1.68,2.34,2.34,0,0,0,.66-1.68v-5h5a2.3,2.3,0,0,0,1.68-.7,2.38,2.38,0,0,0,.68-1.7,2.32,2.32,0,0,0-2.36-2.36ZM147,71.08h-1.64V61.6a1.72,1.72,0,0,0-.49-1.3,1.77,1.77,0,0,0-1.29-.48,3.32,3.32,0,0,0-1.66.5l-3.2,1.86a1.35,1.35,0,0,0-.7,1.24,1.67,1.67,0,0,0,.4,1.09,1.23,1.23,0,0,0,1,.49,1.41,1.41,0,0,0,.7-.2l1.6-.94v7.22h-1.62a2,2,0,0,0-1.32.36,1.34,1.34,0,0,0-.42,1.08c0,1,.58,1.48,1.74,1.48H147c1.16,0,1.74-.5,1.74-1.48a1.34,1.34,0,0,0-.42-1.08A2,2,0,0,0,147,71.08Zm4.48,3a1.85,1.85,0,0,0,1.37-.56,1.9,1.9,0,0,0,.55-1.38,1.87,1.87,0,0,0-.55-1.38,1.82,1.82,0,0,0-1.37-.56,1.85,1.85,0,0,0-1.39.56,1.87,1.87,0,0,0-.55,1.38,1.9,1.9,0,0,0,1.94,1.94Zm8.72.06a4.67,4.67,0,0,0,4-1.86,8.94,8.94,0,0,0,1.38-5.38,8.8,8.8,0,0,0-1.39-5.36,5.22,5.22,0,0,0-8,0,8.88,8.88,0,0,0-1.38,5.36,8.94,8.94,0,0,0,1.38,5.38A4.67,4.67,0,0,0,160.21,74.18Zm0-2.78a1.44,1.44,0,0,1-1.38-1,10,10,0,0,1-.42-3.42,9.83,9.83,0,0,1,.42-3.41,1.44,1.44,0,0,1,2.76,0,9.84,9.84,0,0,1,.42,3.4,10,10,0,0,1-.42,3.42A1.44,1.44,0,0,1,160.21,71.4ZM114.7,119.61a4.67,4.67,0,0,0,4-1.86,8.92,8.92,0,0,0,1.38-5.38,8.82,8.82,0,0,0-1.39-5.36,5.22,5.22,0,0,0-8,0,8.9,8.9,0,0,0-1.38,5.36,8.92,8.92,0,0,0,1.38,5.38A4.68,4.68,0,0,0,114.7,119.61Zm0-2.78a1.44,1.44,0,0,1-1.38-1,14.09,14.09,0,0,1,0-6.83,1.44,1.44,0,0,1,2.76,0,14.05,14.05,0,0,1,0,6.82A1.44,1.44,0,0,1,114.7,116.83Zm8.72,2.72a1.8,1.8,0,0,0,1.37-.56,2,2,0,0,0,0-2.76,1.84,1.84,0,0,0-1.37-.56,1.88,1.88,0,0,0-1.39.56,2,2,0,0,0,0,2.76A1.85,1.85,0,0,0,123.42,119.55Zm11.76-7.38a3,3,0,0,0,1.57-1.18,3.46,3.46,0,0,0,.57-2,3.31,3.31,0,0,0-1.39-2.81,7.47,7.47,0,0,0-7.57,0A3.32,3.32,0,0,0,127,109a3.41,3.41,0,0,0,.56,2,3.26,3.26,0,0,0,1.6,1.23,3.38,3.38,0,0,0-1.88,1.19,3.52,3.52,0,0,0-.66,2.19,3.45,3.45,0,0,0,1.49,3,8.28,8.28,0,0,0,8.14,0,3.52,3.52,0,0,0-1-6.35Zm-3,4.64c-1.45,0-2.18-.52-2.18-1.56s.73-1.56,2.18-1.56,2.18.52,2.18,1.56S133.6,116.81,132.14,116.81Zm0-8.88a2.15,2.15,0,0,1,1.34.35,1.35,1.35,0,0,1,.44,1.13,1.37,1.37,0,0,1-.44,1.14,2.67,2.67,0,0,1-2.68,0,1.4,1.4,0,0,1-.44-1.14,1.38,1.38,0,0,1,.44-1.13A2.17,2.17,0,0,1,132.14,107.93Zm37.69,12.68a4.68,4.68,0,0,0,4-1.86,8.92,8.92,0,0,0,1.38-5.38,8.89,8.89,0,0,0-1.39-5.36,5.22,5.22,0,0,0-8,0,8.9,8.9,0,0,0-1.38,5.36,8.92,8.92,0,0,0,1.38,5.38A4.67,4.67,0,0,0,169.83,120.61Zm0-2.78a1.44,1.44,0,0,1-1.38-1,14.09,14.09,0,0,1,0-6.83,1.44,1.44,0,0,1,2.76,0,14.05,14.05,0,0,1,0,6.82A1.44,1.44,0,0,1,169.83,117.83Zm8.72,2.72a1.87,1.87,0,0,0,1.37-.56,2,2,0,0,0,0-2.76,2,2,0,1,0-1.37,3.32Zm12.44-3h-4l2.84-2.9a9.78,9.78,0,0,0,1.67-2.25,5.13,5.13,0,0,0,.49-2.23,3.72,3.72,0,0,0-.61-2.09,4,4,0,0,0-1.73-1.4,6.42,6.42,0,0,0-2.6-.49,7.83,7.83,0,0,0-2.31.36,7.61,7.61,0,0,0-2.11,1,1.26,1.26,0,0,0-.49.52,1.69,1.69,0,0,0-.13.72,1.71,1.71,0,0,0,.34,1.07,1,1,0,0,0,.84.45,1.21,1.21,0,0,0,.38-.06A2.37,2.37,0,0,0,184,110l.31-.17.4-.2a9,9,0,0,1,1.13-.49,3.29,3.29,0,0,1,1.07-.17,1.58,1.58,0,0,1,1.11.36,1.35,1.35,0,0,1,.39,1,3.9,3.9,0,0,1-1.32,2.54l-4.24,4.42a2.17,2.17,0,0,0-.68,1.56,1.46,1.46,0,0,0,1.56,1.52H191a2,2,0,0,0,1.31-.36,1.4,1.4,0,0,0,.43-1.12,1.34,1.34,0,0,0-.43-1.09A2.09,2.09,0,0,0,191,117.51Z"/></svg>