<svg id="Layer_1" data-name="Layer 1" xmlns="http://www.w3.org/2000/svg" viewBox="0 0 100 100"><title>l1_3_1</title><path d="M95.57,72.9A17.5,17.5,0,1,1,66,60.24L55.05,44a17.57,17.57,0,0,1-4.61.63,17.3,17.3,0,0,1-4.91-.71L34.32,60.54h0a17.64,17.64,0,1,1-5.84-3.85l10.8-16.09a17.52,17.52,0,1,1,22.08.17L71.94,56.52A17.47,17.47,0,0,1,95.57,72.9ZM57.63,58.85h-5v-5a2.36,2.36,0,1,0-4.72,0v5h-5a2.32,2.32,0,0,0-2.36,2.36,2.36,2.36,0,0,0,.68,1.7,2.23,2.23,0,0,0,1.68.7h5v5a2.39,2.39,0,0,0,4.06,1.68,2.31,2.31,0,0,0,.66-1.68v-5h5a2.23,2.23,0,0,0,1.68-.7,2.36,2.36,0,0,0,.68-1.7,2.32,2.32,0,0,0-2.36-2.36ZM45.45,28.72H45V21.5a1.7,1.7,0,0,0-.54-1.34,1.88,1.88,0,0,0-1.3-.48,2,2,0,0,0-.89.21,1.89,1.89,0,0,0-.71.61l-5.72,8.16A2.25,2.25,0,0,0,35.41,30,1.47,1.47,0,0,0,37,31.52h4.46v.68a1.86,1.86,0,0,0,3.08,1.36A1.74,1.74,0,0,0,45,32.2v-.68h.44c1.16,0,1.74-.47,1.74-1.42S46.61,28.72,45.45,28.72Zm-6.42,0,2.4-3.46v3.46ZM49.87,34a1.84,1.84,0,0,0,1.37-.56,2,2,0,0,0,0-2.76,1.84,1.84,0,0,0-1.37-.56,1.88,1.88,0,0,0-1.39.56,2,2,0,0,0,0,2.76A1.88,1.88,0,0,0,49.87,34Zm9.92-9.4A3.84,3.84,0,0,0,58.1,25a3.22,3.22,0,0,0-1.23,1,5.32,5.32,0,0,1,.75-2.61,1.91,1.91,0,0,1,1.65-.93,2.58,2.58,0,0,1,.92.16c.3.11.66.27,1.1.48l.44.22.6.29a1.31,1.31,0,0,0,.5.09,1,1,0,0,0,.85-.43A1.59,1.59,0,0,0,64,22.22a1.48,1.48,0,0,0-.15-.7,1.63,1.63,0,0,0-.49-.54,6.31,6.31,0,0,0-2-1,7.75,7.75,0,0,0-2.29-.36,5.44,5.44,0,0,0-3.11.9,5.91,5.91,0,0,0-2.06,2.57A9.81,9.81,0,0,0,53.19,27a8,8,0,0,0,1.54,5.24,5.36,5.36,0,0,0,4.36,1.84,5.16,5.16,0,0,0,2.54-.62,4.41,4.41,0,0,0,1.75-1.73,5.35,5.35,0,0,0,.08-4.88,4,4,0,0,0-3.67-2.23Zm-.92,6.64a1.62,1.62,0,0,1-1.24-.53,2,2,0,0,1-.48-1.37A2,2,0,0,1,57.62,28a1.6,1.6,0,0,1,1.25-.52,1.57,1.57,0,0,1,1.25.51,2.34,2.34,0,0,1,0,2.77A1.55,1.55,0,0,1,58.87,31.26ZM17.39,74.81H17V67.59a1.69,1.69,0,0,0-.54-1.34,1.9,1.9,0,0,0-1.3-.48,2,2,0,0,0-.89.21,1.75,1.75,0,0,0-.71.61L7.79,74.75a2.18,2.18,0,0,0-.44,1.32,1.54,1.54,0,0,0,.42,1.1,1.51,1.51,0,0,0,1.14.44h4.46v.68a1.77,1.77,0,0,0,.49,1.36,1.82,1.82,0,0,0,1.29.46,1.89,1.89,0,0,0,1.3-.46,1.77,1.77,0,0,0,.5-1.36v-.68h.44c1.16,0,1.74-.48,1.74-1.42S18.55,74.81,17.39,74.81Zm-6.42,0,2.4-3.46v3.46Zm10.84,5.3a1.87,1.87,0,0,0,1.37-.56,1.94,1.94,0,0,0,.55-1.38,1.91,1.91,0,0,0-.55-1.38,2,2,0,0,0-2.76,0,1.87,1.87,0,0,0-.55,1.38,1.9,1.9,0,0,0,.55,1.38A1.87,1.87,0,0,0,21.81,80.11Zm9.7-9.34a5,5,0,0,0-2,.36V68.67h4.32c1.16,0,1.74-.47,1.74-1.4s-.58-1.38-1.74-1.38h-6.2a1.67,1.67,0,0,0-1.26.44A1.7,1.7,0,0,0,26,67.61V73a1.08,1.08,0,0,0,.38.87,1.37,1.37,0,0,0,.94.33,2,2,0,0,0,.9-.22,5.9,5.9,0,0,1,1.15-.36,5.19,5.19,0,0,1,1.09-.1,2.25,2.25,0,0,1,1.56.5,1.79,1.79,0,0,1,.56,1.4A1.73,1.73,0,0,1,32,76.86a2.57,2.57,0,0,1-1.66.45,3.31,3.31,0,0,1-1.11-.18,10.83,10.83,0,0,1-1.13-.48l-.4-.2a5.39,5.39,0,0,0-.6-.3,1.25,1.25,0,0,0-.5-.08,1,1,0,0,0-.84.43,1.6,1.6,0,0,0-.34,1,1.52,1.52,0,0,0,.15.69,1.79,1.79,0,0,0,.47.55,6.64,6.64,0,0,0,2,1,8.31,8.31,0,0,0,2.43.36,6.5,6.5,0,0,0,2.86-.6,4.6,4.6,0,0,0,1.92-1.7,5.14,5.14,0,0,0,.11-4.91,4.05,4.05,0,0,0-1.58-1.6A4.65,4.65,0,0,0,31.51,70.77Zm37.71,10.4a4.67,4.67,0,0,0,4-1.86,8.94,8.94,0,0,0,1.38-5.38,8.8,8.8,0,0,0-1.39-5.36,5.22,5.22,0,0,0-8,0,8.88,8.88,0,0,0-1.38,5.36,8.94,8.94,0,0,0,1.38,5.38A4.67,4.67,0,0,0,69.22,81.17Zm0-2.78a1.44,1.44,0,0,1-1.38-1,10,10,0,0,1-.42-3.42,9.83,9.83,0,0,1,.42-3.41,1.44,1.44,0,0,1,2.76,0,9.84,9.84,0,0,1,.42,3.4,10,10,0,0,1-.42,3.42A1.44,1.44,0,0,1,69.22,78.39Zm8.72,2.72a1.85,1.85,0,0,0,1.37-.56,1.9,1.9,0,0,0,.55-1.38,1.87,1.87,0,0,0-.55-1.38,1.82,1.82,0,0,0-1.37-.56,1.85,1.85,0,0,0-1.39.56A1.87,1.87,0,0,0,76,79.17a1.9,1.9,0,0,0,1.94,1.94Zm13-3H89.26V68.59a1.72,1.72,0,0,0-.49-1.3,1.77,1.77,0,0,0-1.29-.48,3.29,3.29,0,0,0-1.66.5l-3.2,1.86a1.35,1.35,0,0,0-.7,1.24,1.67,1.67,0,0,0,.4,1.09,1.22,1.22,0,0,0,1,.49,1.41,1.41,0,0,0,.7-.2l1.6-.94v7.22H84a2,2,0,0,0-1.32.36,1.34,1.34,0,0,0-.42,1.08c0,1,.58,1.48,1.74,1.48H90.9c1.16,0,1.74-.5,1.74-1.48a1.34,1.34,0,0,0-.42-1.08A2,2,0,0,0,90.9,78.07Z"/></svg>