<svg id="Layer_1" data-name="Layer 1" xmlns="http://www.w3.org/2000/svg" viewBox="0 0 100 100"><title>l1_3_1</title><path d="M95.31,72.9A17.5,17.5,0,1,1,65.75,60.24L54.79,44a17.26,17.26,0,0,1-9.52-.08L34.06,60.54h0a17.6,17.6,0,1,1-5.83-3.85L39,40.59a17.51,17.51,0,1,1,22.07.17L71.68,56.52A17.47,17.47,0,0,1,95.31,72.9ZM57.38,58.85h-5v-5a2.28,2.28,0,0,0-.68-1.68A2.32,2.32,0,0,0,50,51.45a2.28,2.28,0,0,0-1.68.68,2.25,2.25,0,0,0-.68,1.68v5h-5a2.28,2.28,0,0,0-1.68.68,2.25,2.25,0,0,0-.68,1.68,2.32,2.32,0,0,0,.68,1.7,2.23,2.23,0,0,0,1.68.7h5v5a2.25,2.25,0,0,0,.68,1.68,2.44,2.44,0,0,0,3.38,0,2.31,2.31,0,0,0,.66-1.68v-5h5a2.26,2.26,0,0,0,1.68-.7,2.36,2.36,0,0,0,.68-1.7,2.28,2.28,0,0,0-.68-1.68A2.32,2.32,0,0,0,57.38,58.85ZM38.58,33a3.5,3.5,0,0,0,3-1.39,6.71,6.71,0,0,0,1-4,6.67,6.67,0,0,0-1-4,3.51,3.51,0,0,0-3-1.39,3.5,3.5,0,0,0-3,1.39,6.67,6.67,0,0,0-1,4,6.71,6.71,0,0,0,1,4A3.5,3.5,0,0,0,38.58,33Zm0-2.08a1.08,1.08,0,0,1-1-.78,7.53,7.53,0,0,1-.31-2.57,7.36,7.36,0,0,1,.31-2.55,1.08,1.08,0,0,1,1-.78,1.07,1.07,0,0,1,1,.78,7.38,7.38,0,0,1,.32,2.55,7.47,7.47,0,0,1-.32,2.57A1.07,1.07,0,0,1,38.58,31Zm6.54,2a1.36,1.36,0,0,0,1-.42,1.42,1.42,0,0,0,.42-1,1.4,1.4,0,0,0-.42-1,1.36,1.36,0,0,0-1-.42,1.42,1.42,0,0,0-1.46,1.45,1.45,1.45,0,0,0,.41,1A1.42,1.42,0,0,0,45.12,33Zm8.44-5.54a2.42,2.42,0,0,0,1.19-.9,2.48,2.48,0,0,0,.43-1.45,2.59,2.59,0,0,0-.46-1.53,2.92,2.92,0,0,0-1.3-1,5,5,0,0,0-2-.36,6.05,6.05,0,0,0-1.78.27,5,5,0,0,0-1.52.75,1,1,0,0,0-.46.93,1.24,1.24,0,0,0,.25.79.79.79,0,0,0,.63.32.92.92,0,0,0,.38-.07,4.36,4.36,0,0,0,.45-.22l.31-.15a7.65,7.65,0,0,1,.82-.36,2.26,2.26,0,0,1,.79-.13,1.26,1.26,0,0,1,.91.31,1.11,1.11,0,0,1,.33.86.83.83,0,0,1-.37.76,2.3,2.3,0,0,1-1.2.24h-.66a.87.87,0,0,0-.71.32,1.25,1.25,0,0,0,0,1.5.86.86,0,0,0,.71.31h.93a2.25,2.25,0,0,1,1.23.26.94.94,0,0,1,.37.84,1,1,0,0,1-.37.9,2,2,0,0,1-1.2.27,2.65,2.65,0,0,1-.87-.13,6.35,6.35,0,0,1-.86-.37l-.19-.08-.14-.07a3.92,3.92,0,0,0-.45-.21.87.87,0,0,0-.37-.07.79.79,0,0,0-.63.32,1.25,1.25,0,0,0-.26.79,1.21,1.21,0,0,0,.11.52A1.22,1.22,0,0,0,48,32a4.93,4.93,0,0,0,1.56.76,6.81,6.81,0,0,0,1.87.26,5.5,5.5,0,0,0,2.12-.37,3.11,3.11,0,0,0,1.41-1A2.61,2.61,0,0,0,55.45,30a2.71,2.71,0,0,0-.5-1.64A2.58,2.58,0,0,0,53.56,27.45ZM60.66,33a3.5,3.5,0,0,0,3-1.39,6.71,6.71,0,0,0,1-4,6.67,6.67,0,0,0-1-4,3.92,3.92,0,0,0-6,0,6.67,6.67,0,0,0-1,4,6.71,6.71,0,0,0,1,4A3.5,3.5,0,0,0,60.66,33Zm0-2.08a1.08,1.08,0,0,1-1-.78,7.53,7.53,0,0,1-.31-2.57,7.36,7.36,0,0,1,.31-2.55,1.08,1.08,0,0,1,1-.78,1.07,1.07,0,0,1,1,.78A7.38,7.38,0,0,1,62,27.6a7.47,7.47,0,0,1-.32,2.57A1.07,1.07,0,0,1,60.66,31ZM10.51,79.12a3.5,3.5,0,0,0,3-1.39,6.71,6.71,0,0,0,1-4,6.6,6.6,0,0,0-1.05-4,3.5,3.5,0,0,0-3-1.39,3.5,3.5,0,0,0-3,1.39,6.67,6.67,0,0,0-1,4,6.71,6.71,0,0,0,1,4A3.5,3.5,0,0,0,10.51,79.12Zm0-2.08a1.07,1.07,0,0,1-1-.78,7.47,7.47,0,0,1-.32-2.57,7.41,7.41,0,0,1,.32-2.56,1.08,1.08,0,0,1,2.07,0,7.43,7.43,0,0,1,.31,2.55,7.53,7.53,0,0,1-.31,2.57A1.08,1.08,0,0,1,10.51,77Zm6.54,2a1.4,1.4,0,0,0,1-.42,1.45,1.45,0,0,0,.41-1,1.43,1.43,0,0,0-.41-1,1.45,1.45,0,0,0-2.48,1,1.41,1.41,0,0,0,.41,1A1.39,1.39,0,0,0,17.05,79.08Zm9.72-2.28H25.54V69.69a1.3,1.3,0,0,0-.37-1,1.31,1.31,0,0,0-1-.36,2.53,2.53,0,0,0-1.25.38l-2.4,1.39a1,1,0,0,0-.52.93,1.28,1.28,0,0,0,.3.82.91.91,0,0,0,.72.37,1,1,0,0,0,.52-.15l1.2-.71V76.8H21.56a1.49,1.49,0,0,0-1,.27,1,1,0,0,0-.32.81c0,.74.44,1.11,1.3,1.11h5.21c.87,0,1.31-.37,1.31-1.11a1,1,0,0,0-.32-.81A1.5,1.5,0,0,0,26.77,76.8Zm6.55-4.73a3.72,3.72,0,0,0-1.48.27V70.5h3.24c.87,0,1.3-.35,1.3-1s-.43-1-1.3-1H30.43a1.16,1.16,0,0,0-1.28,1.29v4.07a.83.83,0,0,0,.29.65,1.05,1.05,0,0,0,.7.25,1.46,1.46,0,0,0,.68-.17,5.45,5.45,0,0,1,.86-.27,4.18,4.18,0,0,1,.82-.07,1.69,1.69,0,0,1,1.17.37,1.33,1.33,0,0,1,.42,1,1.31,1.31,0,0,1-.41,1.06,1.93,1.93,0,0,1-1.24.34,2.45,2.45,0,0,1-.83-.14,7.93,7.93,0,0,1-.85-.36l-.3-.15a4.27,4.27,0,0,0-.45-.22,1,1,0,0,0-.38-.06.76.76,0,0,0-.63.32,1.22,1.22,0,0,0-.25.79,1.13,1.13,0,0,0,.11.51,1.35,1.35,0,0,0,.35.42,5,5,0,0,0,1.54.75,6.27,6.27,0,0,0,1.82.27,4.89,4.89,0,0,0,2.15-.45,3.39,3.39,0,0,0,1.44-1.28,3.84,3.84,0,0,0,.08-3.68,3,3,0,0,0-1.18-1.2A3.45,3.45,0,0,0,33.32,72.07Zm33.32,7.05a3.5,3.5,0,0,0,3-1.39,6.71,6.71,0,0,0,1-4,6.67,6.67,0,0,0-1-4,3.93,3.93,0,0,0-6,0,6.67,6.67,0,0,0-1,4,6.71,6.71,0,0,0,1,4A3.5,3.5,0,0,0,66.64,79.12Zm0-2.08a1.07,1.07,0,0,1-1-.78,7.47,7.47,0,0,1-.32-2.57,7.41,7.41,0,0,1,.32-2.56,1.08,1.08,0,0,1,2.07,0A7.43,7.43,0,0,1,68,73.69a7.53,7.53,0,0,1-.31,2.57A1.08,1.08,0,0,1,66.64,77Zm6.54,2a1.38,1.38,0,0,0,1-.42,1.41,1.41,0,0,0,.41-1,1.42,1.42,0,0,0-1.44-1.45,1.4,1.4,0,0,0-1,.42,1.43,1.43,0,0,0-.41,1,1.45,1.45,0,0,0,.41,1A1.4,1.4,0,0,0,73.18,79.08ZM82.9,76.8H81.67V69.69a1.24,1.24,0,0,0-1.33-1.34,2.56,2.56,0,0,0-1.25.38l-2.4,1.39a1,1,0,0,0-.52.93,1.28,1.28,0,0,0,.3.82.92.92,0,0,0,.72.37,1,1,0,0,0,.52-.15l1.2-.71V76.8H77.7a1.5,1.5,0,0,0-1,.27,1,1,0,0,0-.32.81c0,.74.44,1.11,1.31,1.11h5.2c.87,0,1.31-.37,1.31-1.11a1,1,0,0,0-.32-.81A1.5,1.5,0,0,0,82.9,76.8Zm6.56-4.73a3.78,3.78,0,0,0-1.49.27V70.5h3.24c.87,0,1.31-.35,1.31-1s-.44-1-1.31-1H86.56a1.27,1.27,0,0,0-.94.33,1.3,1.3,0,0,0-.33,1v4.07a.82.82,0,0,0,.28.65,1.08,1.08,0,0,0,.71.25A1.42,1.42,0,0,0,87,74.5a5.22,5.22,0,0,1,.87-.27,4,4,0,0,1,.81-.07,1.69,1.69,0,0,1,1.17.37,1.33,1.33,0,0,1,.42,1,1.31,1.31,0,0,1-.4,1.06,2,2,0,0,1-1.25.34,2.49,2.49,0,0,1-.83-.14,8.89,8.89,0,0,1-.85-.36l-.3-.15a4.27,4.27,0,0,0-.45-.22,1,1,0,0,0-.37-.06.76.76,0,0,0-.63.32,1.23,1.23,0,0,0-.26.79,1,1,0,0,0,.12.51,1.23,1.23,0,0,0,.35.42,4.91,4.91,0,0,0,1.54.75,6.22,6.22,0,0,0,1.82.27,4.85,4.85,0,0,0,2.14-.45,3.39,3.39,0,0,0,1.44-1.28,3.53,3.53,0,0,0,.51-1.9,3.66,3.66,0,0,0-.42-1.78,3,3,0,0,0-1.19-1.2A3.39,3.39,0,0,0,89.46,72.07Z"/></svg>