<svg id="Layer_1" data-name="Layer 1" xmlns="http://www.w3.org/2000/svg" viewBox="0 0 100 100"><title>l1_3_1</title><path d="M95.57,72.9A17.5,17.5,0,1,1,66,60.24L55.05,44a17.57,17.57,0,0,1-4.61.63,17.3,17.3,0,0,1-4.91-.71L34.32,60.54h0a17.64,17.64,0,1,1-5.84-3.85l10.8-16.09a17.52,17.52,0,1,1,22.08.17L71.94,56.52A17.47,17.47,0,0,1,95.57,72.9ZM57.63,58.85h-5v-5a2.36,2.36,0,1,0-4.72,0v5h-5a2.32,2.32,0,0,0-2.36,2.36,2.36,2.36,0,0,0,.68,1.7,2.23,2.23,0,0,0,1.68.7h5v5a2.39,2.39,0,0,0,4.06,1.68,2.31,2.31,0,0,0,.66-1.68v-5h5a2.23,2.23,0,0,0,1.68-.7,2.36,2.36,0,0,0,.68-1.7,2.32,2.32,0,0,0-2.36-2.36ZM41.15,34.08a4.67,4.67,0,0,0,4-1.86,8.92,8.92,0,0,0,1.38-5.38,8.82,8.82,0,0,0-1.39-5.36,4.66,4.66,0,0,0-4-1.86,4.68,4.68,0,0,0-4,1.86,8.9,8.9,0,0,0-1.38,5.36,8.92,8.92,0,0,0,1.38,5.38A4.68,4.68,0,0,0,41.15,34.08Zm0-2.78a1.44,1.44,0,0,1-1.38-1,9.93,9.93,0,0,1-.42-3.42,9.86,9.86,0,0,1,.42-3.41,1.44,1.44,0,0,1,2.76,0,9.88,9.88,0,0,1,.42,3.4,9.93,9.93,0,0,1-.42,3.42A1.44,1.44,0,0,1,41.15,31.3ZM49.87,34a1.84,1.84,0,0,0,1.37-.56,2,2,0,0,0,0-2.76,1.84,1.84,0,0,0-1.37-.56,1.88,1.88,0,0,0-1.39.56,2,2,0,0,0,0,2.76A1.88,1.88,0,0,0,49.87,34Zm9.92-9.4A3.84,3.84,0,0,0,58.1,25a3.22,3.22,0,0,0-1.23,1,5.32,5.32,0,0,1,.75-2.61,1.91,1.91,0,0,1,1.65-.93,2.58,2.58,0,0,1,.92.16c.3.11.66.27,1.1.48l.44.22c.26.13.45.23.6.29a1.31,1.31,0,0,0,.5.09,1,1,0,0,0,.85-.43A1.59,1.59,0,0,0,64,22.22a1.48,1.48,0,0,0-.15-.7,1.63,1.63,0,0,0-.49-.54,6.31,6.31,0,0,0-2-1,7.75,7.75,0,0,0-2.29-.36,5.44,5.44,0,0,0-3.11.9,5.91,5.91,0,0,0-2.06,2.57A9.64,9.64,0,0,0,53.19,27a8,8,0,0,0,1.54,5.24,5.36,5.36,0,0,0,4.36,1.84,5.16,5.16,0,0,0,2.54-.62,4.41,4.41,0,0,0,1.75-1.73,5.35,5.35,0,0,0,.08-4.88,4,4,0,0,0-3.67-2.23Zm-.92,6.64a1.62,1.62,0,0,1-1.24-.53,2,2,0,0,1-.48-1.37A2,2,0,0,1,57.62,28a1.59,1.59,0,0,1,1.25-.52,1.57,1.57,0,0,1,1.25.51,2.34,2.34,0,0,1,0,2.77A1.55,1.55,0,0,1,58.87,31.26ZM13.09,80.17a4.68,4.68,0,0,0,4-1.86,8.94,8.94,0,0,0,1.38-5.38,8.87,8.87,0,0,0-1.39-5.36,4.69,4.69,0,0,0-4-1.86,4.67,4.67,0,0,0-4,1.86,8.88,8.88,0,0,0-1.38,5.36,8.94,8.94,0,0,0,1.38,5.38A4.67,4.67,0,0,0,13.09,80.17Zm0-2.78a1.44,1.44,0,0,1-1.38-1,10,10,0,0,1-.42-3.42,9.83,9.83,0,0,1,.42-3.41,1.44,1.44,0,0,1,2.76,0,9.84,9.84,0,0,1,.42,3.4,10,10,0,0,1-.42,3.42A1.44,1.44,0,0,1,13.09,77.39Zm8.72,2.72a1.87,1.87,0,0,0,1.37-.56,1.94,1.94,0,0,0,.55-1.38,1.91,1.91,0,0,0-.55-1.38,2,2,0,0,0-2.76,0,1.87,1.87,0,0,0-.55,1.38,1.9,1.9,0,0,0,.55,1.38A1.87,1.87,0,0,0,21.81,80.11Zm11.26-7.38a3.3,3.3,0,0,0,1.59-1.21,3.35,3.35,0,0,0,.57-1.93,3.51,3.51,0,0,0-.61-2,3.93,3.93,0,0,0-1.74-1.36,6.68,6.68,0,0,0-2.61-.48,8,8,0,0,0-2.37.36,6.53,6.53,0,0,0-2,1,1.49,1.49,0,0,0-.48.54,1.46,1.46,0,0,0-.14.7,1.63,1.63,0,0,0,.34,1,1,1,0,0,0,.84.43,1.35,1.35,0,0,0,.5-.09l.6-.29.42-.2A10.48,10.48,0,0,1,29,68.73a3,3,0,0,1,1.05-.18,1.7,1.7,0,0,1,1.22.41,1.49,1.49,0,0,1,.44,1.15,1.14,1.14,0,0,1-.5,1,3.12,3.12,0,0,1-1.6.32h-.88a1.13,1.13,0,0,0-.94.42,1.52,1.52,0,0,0-.34,1,1.53,1.53,0,0,0,.34,1,1.13,1.13,0,0,0,.94.42H30a3,3,0,0,1,1.64.34,1.26,1.26,0,0,1,.5,1.12,1.41,1.41,0,0,1-.49,1.2,2.8,2.8,0,0,1-1.61.36,3.71,3.71,0,0,1-1.15-.17,10.09,10.09,0,0,1-1.15-.49l-.25-.11-.19-.09c-.26-.14-.46-.23-.6-.29a1.35,1.35,0,0,0-.5-.09,1,1,0,0,0-.84.43,1.6,1.6,0,0,0-.34,1,1.52,1.52,0,0,0,.14.69,1.59,1.59,0,0,0,.48.55,6.5,6.5,0,0,0,2.08,1,9,9,0,0,0,2.5.35,7.65,7.65,0,0,0,2.83-.49,4.27,4.27,0,0,0,1.87-1.39,3.49,3.49,0,0,0,.66-2.12A3.58,3.58,0,0,0,34.92,74,3.4,3.4,0,0,0,33.07,72.73Zm36.15,8.44a4.67,4.67,0,0,0,4-1.86,8.94,8.94,0,0,0,1.38-5.38,8.8,8.8,0,0,0-1.39-5.36,5.22,5.22,0,0,0-8,0,8.88,8.88,0,0,0-1.38,5.36,8.94,8.94,0,0,0,1.38,5.38A4.67,4.67,0,0,0,69.22,81.17Zm0-2.78a1.44,1.44,0,0,1-1.38-1,10,10,0,0,1-.42-3.42,9.83,9.83,0,0,1,.42-3.41,1.44,1.44,0,0,1,2.76,0,9.84,9.84,0,0,1,.42,3.4,10,10,0,0,1-.42,3.42A1.44,1.44,0,0,1,69.22,78.39Zm8.72,2.72a1.85,1.85,0,0,0,1.37-.56,1.9,1.9,0,0,0,.55-1.38,1.87,1.87,0,0,0-.55-1.38,1.82,1.82,0,0,0-1.37-.56,1.85,1.85,0,0,0-1.39.56A1.87,1.87,0,0,0,76,79.17a1.9,1.9,0,0,0,1.94,1.94ZM89.2,73.73a3.3,3.3,0,0,0,1.59-1.21,3.35,3.35,0,0,0,.57-1.93,3.51,3.51,0,0,0-.61-2A3.93,3.93,0,0,0,89,67.19a6.61,6.61,0,0,0-2.61-.48,8,8,0,0,0-2.37.36,6.53,6.53,0,0,0-2,1,1.49,1.49,0,0,0-.48.54,1.58,1.58,0,0,0-.14.7,1.63,1.63,0,0,0,.34,1,1,1,0,0,0,.84.43,1.31,1.31,0,0,0,.5-.09c.15-.06.34-.16.6-.29l.42-.2a10.48,10.48,0,0,1,1.09-.48,3,3,0,0,1,1-.18,1.7,1.7,0,0,1,1.22.41,1.49,1.49,0,0,1,.44,1.15,1.14,1.14,0,0,1-.5,1,3.1,3.1,0,0,1-1.6.32H84.9a1.13,1.13,0,0,0-.94.42,1.52,1.52,0,0,0-.34,1,1.53,1.53,0,0,0,.34,1,1.13,1.13,0,0,0,.94.42h1.24a3,3,0,0,1,1.64.34,1.26,1.26,0,0,1,.5,1.12,1.38,1.38,0,0,1-.49,1.2,2.77,2.77,0,0,1-1.61.36A3.71,3.71,0,0,1,85,78.14a10.92,10.92,0,0,1-1.15-.49l-.25-.11-.19-.09c-.26-.14-.46-.23-.6-.29a1.35,1.35,0,0,0-.5-.09,1,1,0,0,0-.84.43,1.6,1.6,0,0,0-.34,1,1.67,1.67,0,0,0,.14.69,1.59,1.59,0,0,0,.48.55,6.6,6.6,0,0,0,2.08,1,9,9,0,0,0,2.5.35,7.65,7.65,0,0,0,2.83-.49,4.21,4.21,0,0,0,1.87-1.39,3.81,3.81,0,0,0,0-4.3A3.4,3.4,0,0,0,89.2,73.73Z"/></svg>