<svg id="Layer_1" data-name="Layer 1" xmlns="http://www.w3.org/2000/svg" viewBox="0 0 100 100"><title>l1_3_1</title><path d="M95.57,72.9A17.5,17.5,0,1,1,66,60.24L55.05,44a17.57,17.57,0,0,1-4.61.63,17.3,17.3,0,0,1-4.91-.71L34.32,60.54h0a17.64,17.64,0,1,1-5.84-3.85l10.8-16.09a17.52,17.52,0,1,1,22.08.17L71.94,56.52A17.47,17.47,0,0,1,95.57,72.9ZM57.63,58.85h-5v-5a2.36,2.36,0,1,0-4.72,0v5h-5a2.32,2.32,0,0,0-2.36,2.36,2.36,2.36,0,0,0,.68,1.7,2.23,2.23,0,0,0,1.68.7h5v5a2.39,2.39,0,0,0,4.06,1.68,2.31,2.31,0,0,0,.66-1.68v-5h5a2.23,2.23,0,0,0,1.68-.7,2.36,2.36,0,0,0,.68-1.7,2.32,2.32,0,0,0-2.36-2.36ZM41.15,34.08a4.67,4.67,0,0,0,4-1.86,8.92,8.92,0,0,0,1.38-5.38,8.82,8.82,0,0,0-1.39-5.36,4.66,4.66,0,0,0-4-1.86,4.67,4.67,0,0,0-4,1.86,8.9,8.9,0,0,0-1.38,5.36,8.92,8.92,0,0,0,1.38,5.38A4.67,4.67,0,0,0,41.15,34.08Zm0-2.78a1.44,1.44,0,0,1-1.38-1,9.93,9.93,0,0,1-.42-3.42,9.86,9.86,0,0,1,.42-3.41,1.44,1.44,0,0,1,2.76,0,9.88,9.88,0,0,1,.42,3.4,9.93,9.93,0,0,1-.42,3.42A1.44,1.44,0,0,1,41.15,31.3ZM49.87,34a1.84,1.84,0,0,0,1.37-.56,2,2,0,0,0,0-2.76,1.84,1.84,0,0,0-1.37-.56,1.88,1.88,0,0,0-1.39.56,2,2,0,0,0,0,2.76A1.88,1.88,0,0,0,49.87,34Zm13-5.3h-.44V21.5a1.7,1.7,0,0,0-.54-1.34,1.88,1.88,0,0,0-1.3-.48,2,2,0,0,0-.89.21,1.81,1.81,0,0,0-.71.61l-5.72,8.16A2.25,2.25,0,0,0,52.85,30a1.47,1.47,0,0,0,1.56,1.54h4.46v.68A1.65,1.65,0,0,0,60.65,34a1.83,1.83,0,0,0,1.3-.46,1.74,1.74,0,0,0,.5-1.36v-.68h.44c1.16,0,1.74-.47,1.74-1.42S64.05,28.72,62.89,28.72Zm-6.42,0,2.4-3.46v3.46ZM13.08,80.17a4.68,4.68,0,0,0,4-1.86,8.94,8.94,0,0,0,1.38-5.38,8.87,8.87,0,0,0-1.39-5.36,4.69,4.69,0,0,0-4-1.86,4.67,4.67,0,0,0-4,1.86A8.88,8.88,0,0,0,7.7,72.93a8.94,8.94,0,0,0,1.38,5.38A4.67,4.67,0,0,0,13.08,80.17Zm0-2.78a1.44,1.44,0,0,1-1.38-1,10,10,0,0,1-.42-3.42,9.83,9.83,0,0,1,.42-3.41,1.44,1.44,0,0,1,2.76,0,9.84,9.84,0,0,1,.42,3.4,10,10,0,0,1-.42,3.42A1.44,1.44,0,0,1,13.08,77.39Zm8.72,2.72a1.87,1.87,0,0,0,1.37-.56,1.94,1.94,0,0,0,.55-1.38,1.91,1.91,0,0,0-.55-1.38,2,2,0,0,0-2.76,0,1.87,1.87,0,0,0-.55,1.38,1.9,1.9,0,0,0,.55,1.38A1.87,1.87,0,0,0,21.8,80.11Zm12.44-3h-4l2.84-2.9a9.78,9.78,0,0,0,1.67-2.25,5.17,5.17,0,0,0,.49-2.23,3.69,3.69,0,0,0-.61-2.09,3.89,3.89,0,0,0-1.73-1.4,6.42,6.42,0,0,0-2.6-.49,7.83,7.83,0,0,0-2.31.36,7.61,7.61,0,0,0-2.11,1,1.26,1.26,0,0,0-.49.52,1.63,1.63,0,0,0-.13.72,1.71,1.71,0,0,0,.34,1.07,1,1,0,0,0,.84.45,1.21,1.21,0,0,0,.38-.06,3.47,3.47,0,0,0,.41-.19,2.17,2.17,0,0,1,.31-.17l.4-.2a7.73,7.73,0,0,1,1.13-.49,3,3,0,0,1,1.07-.17,1.58,1.58,0,0,1,1.11.36,1.34,1.34,0,0,1,.39,1,3.9,3.9,0,0,1-1.32,2.54l-4.24,4.42a2.14,2.14,0,0,0-.68,1.56,1.5,1.5,0,0,0,.42,1.09,1.55,1.55,0,0,0,1.14.43h7.3a2,2,0,0,0,1.31-.36A1.41,1.41,0,0,0,36,78.51a1.33,1.33,0,0,0-.43-1.09A2,2,0,0,0,34.24,77.07Zm35,4.1a4.67,4.67,0,0,0,4-1.86,8.94,8.94,0,0,0,1.38-5.38,8.8,8.8,0,0,0-1.39-5.36,5.22,5.22,0,0,0-8,0,8.88,8.88,0,0,0-1.38,5.36,8.94,8.94,0,0,0,1.38,5.38A4.67,4.67,0,0,0,69.21,81.17Zm0-2.78a1.44,1.44,0,0,1-1.38-1,10,10,0,0,1-.42-3.42,9.83,9.83,0,0,1,.42-3.41,1.44,1.44,0,0,1,2.76,0,9.84,9.84,0,0,1,.42,3.4,10,10,0,0,1-.42,3.42A1.44,1.44,0,0,1,69.21,78.39Zm8.72,2.72a1.85,1.85,0,0,0,1.37-.56,1.9,1.9,0,0,0,.55-1.38,1.87,1.87,0,0,0-.55-1.38,1.82,1.82,0,0,0-1.37-.56,1.85,1.85,0,0,0-1.39.56A1.87,1.87,0,0,0,76,79.17a1.9,1.9,0,0,0,1.94,1.94Zm12.44-3h-4l2.84-2.9a9.49,9.49,0,0,0,1.67-2.25,5,5,0,0,0,.49-2.23,3.62,3.62,0,0,0-.61-2.09A3.84,3.84,0,0,0,89,67.2a6.38,6.38,0,0,0-2.6-.49,7.83,7.83,0,0,0-2.31.36,7.74,7.74,0,0,0-2.11,1,1.33,1.33,0,0,0-.49.52,1.63,1.63,0,0,0-.13.72,1.71,1.71,0,0,0,.34,1.07,1,1,0,0,0,.84.45,1.21,1.21,0,0,0,.38-.06,2.86,2.86,0,0,0,.41-.19l.31-.17.4-.2a8.23,8.23,0,0,1,1.13-.49,3.08,3.08,0,0,1,1.07-.17,1.58,1.58,0,0,1,1.11.36,1.34,1.34,0,0,1,.39,1,3.9,3.9,0,0,1-1.32,2.54l-4.24,4.42a2.18,2.18,0,0,0-.68,1.56,1.5,1.5,0,0,0,.42,1.09,1.55,1.55,0,0,0,1.14.43h7.3a2,2,0,0,0,1.31-.36,1.38,1.38,0,0,0,.43-1.12,1.3,1.3,0,0,0-.43-1.09A2,2,0,0,0,90.37,78.07Z"/></svg>