<svg id="Layer_1" data-name="Layer 1" xmlns="http://www.w3.org/2000/svg" viewBox="0 0 100 100"><title>l1_3_1</title><path d="M94.86,74.63A17.5,17.5,0,1,1,65.3,62l-11-16.28a17.13,17.13,0,0,1-9.52-.07L33.61,62.26h0a17.53,17.53,0,1,1-5.84-3.86l10.8-16.09a17.51,17.51,0,1,1,22.08.18L71.23,58.25a17.32,17.32,0,0,1,6.13-1.12A17.5,17.5,0,0,1,94.86,74.63Zm-37.94-14h-5v-5a2.28,2.28,0,0,0-.68-1.68,2.42,2.42,0,0,0-3.36,0,2.28,2.28,0,0,0-.68,1.68v5h-5a2.32,2.32,0,0,0-2.36,2.36,2.38,2.38,0,0,0,.68,1.7,2.28,2.28,0,0,0,1.68.7h5v5A2.32,2.32,0,0,0,47.84,72a2.44,2.44,0,0,0,3.38,0,2.34,2.34,0,0,0,.66-1.68v-5h5a2.26,2.26,0,0,0,1.68-.7,2.38,2.38,0,0,0,.68-1.7,2.28,2.28,0,0,0-.68-1.68A2.25,2.25,0,0,0,56.92,60.58ZM38.12,34.76a3.5,3.5,0,0,0,3-1.39,6.71,6.71,0,0,0,1-4,6.6,6.6,0,0,0-1-4,3.5,3.5,0,0,0-3-1.39,3.5,3.5,0,0,0-3,1.39,6.67,6.67,0,0,0-1,4,6.71,6.71,0,0,0,1,4A3.5,3.5,0,0,0,38.12,34.76Zm0-2.08a1.07,1.07,0,0,1-1-.78,7.47,7.47,0,0,1-.32-2.57,7.41,7.41,0,0,1,.32-2.56,1.08,1.08,0,0,1,2.07,0,7.43,7.43,0,0,1,.31,2.55,7.53,7.53,0,0,1-.31,2.57A1.08,1.08,0,0,1,38.12,32.68Zm6.54,2a1.4,1.4,0,0,0,1-.42,1.45,1.45,0,0,0,.41-1,1.43,1.43,0,0,0-.41-1,1.45,1.45,0,0,0-2.48,1,1.41,1.41,0,0,0,.41,1A1.39,1.39,0,0,0,44.66,34.72Zm9.72-2.28H53.15V25.33A1.26,1.26,0,0,0,51.82,24a2.56,2.56,0,0,0-1.25.38l-2.4,1.39a1,1,0,0,0-.52.93,1.28,1.28,0,0,0,.3.82.92.92,0,0,0,.72.37,1,1,0,0,0,.52-.15l1.2-.71v5.42H49.18a1.5,1.5,0,0,0-1,.27,1,1,0,0,0-.32.81c0,.74.44,1.11,1.31,1.11h5.2c.87,0,1.31-.37,1.31-1.11a1,1,0,0,0-.32-.81A1.5,1.5,0,0,0,54.38,32.44Zm6.72-4.77a3,3,0,0,0-1.27.27,2.46,2.46,0,0,0-.92.76,4.07,4.07,0,0,1,.56-2,1.45,1.45,0,0,1,1.24-.69,2,2,0,0,1,.69.12c.22.08.5.2.83.36l.33.16.45.22a1.06,1.06,0,0,0,.37.07.8.8,0,0,0,.64-.33,1.2,1.2,0,0,0,.26-.78,1.19,1.19,0,0,0-.11-.53,1.36,1.36,0,0,0-.37-.4,4.74,4.74,0,0,0-1.51-.75,5.75,5.75,0,0,0-1.71-.27,4.09,4.09,0,0,0-2.34.67,4.34,4.34,0,0,0-1.54,1.93,7.16,7.16,0,0,0-.55,2.93,6,6,0,0,0,1.16,3.93,4,4,0,0,0,3.27,1.38,3.84,3.84,0,0,0,1.9-.46A3.34,3.34,0,0,0,63.79,33a4,4,0,0,0,.06-3.66,3,3,0,0,0-2.75-1.67Zm-.69,5a1.22,1.22,0,0,1-.93-.4,1.67,1.67,0,0,1,0-2.06,1.21,1.21,0,0,1,.94-.39,1.18,1.18,0,0,1,.94.38,1.74,1.74,0,0,1,0,2.08A1.18,1.18,0,0,1,60.41,32.65ZM10.06,80.85a3.51,3.51,0,0,0,3-1.4,6.68,6.68,0,0,0,1-4,6.67,6.67,0,0,0-1-4,3.52,3.52,0,0,0-3-1.4,3.51,3.51,0,0,0-3,1.4,6.67,6.67,0,0,0-1,4,6.68,6.68,0,0,0,1,4A3.51,3.51,0,0,0,10.06,80.85Zm0-2.09A1.08,1.08,0,0,1,9,78a7.46,7.46,0,0,1-.31-2.56A7.46,7.46,0,0,1,9,72.86a1.08,1.08,0,0,1,1-.77,1.07,1.07,0,0,1,1,.78,10.36,10.36,0,0,1,0,5.11A1.07,1.07,0,0,1,10.06,78.76Zm6.54,2a1.36,1.36,0,0,0,1-.42,1.4,1.4,0,0,0,.42-1,1.42,1.42,0,0,0-.42-1,1.36,1.36,0,0,0-1-.42,1.42,1.42,0,0,0-1.05.42,1.45,1.45,0,0,0-.41,1A1.42,1.42,0,0,0,16.6,80.8Zm9.72-2.28H25.09V71.41a1.31,1.31,0,0,0-.37-1,1.34,1.34,0,0,0-1-.36,2.51,2.51,0,0,0-1.24.37l-2.4,1.4a1,1,0,0,0-.53.93,1.28,1.28,0,0,0,.3.82.91.91,0,0,0,.72.36,1,1,0,0,0,.53-.15l1.2-.7v5.41H21.11a1.5,1.5,0,0,0-1,.27,1,1,0,0,0-.31.81c0,.74.43,1.11,1.3,1.11h5.21c.87,0,1.3-.37,1.3-1.11a1,1,0,0,0-.31-.81A1.5,1.5,0,0,0,26.32,78.52Zm5.82,2.33a3.51,3.51,0,0,0,3-1.4,6.68,6.68,0,0,0,1-4,6.67,6.67,0,0,0-1-4,3.52,3.52,0,0,0-3-1.4,3.51,3.51,0,0,0-3,1.4,6.67,6.67,0,0,0-1,4,6.68,6.68,0,0,0,1,4A3.51,3.51,0,0,0,32.14,80.85Zm0-2.09a1.08,1.08,0,0,1-1-.78,7.46,7.46,0,0,1-.31-2.56,7.46,7.46,0,0,1,.31-2.56,1.08,1.08,0,0,1,1-.77,1.07,1.07,0,0,1,1,.78,10.36,10.36,0,0,1,0,5.11A1.07,1.07,0,0,1,32.14,78.76Zm34.05,2.09a3.51,3.51,0,0,0,3-1.4,6.68,6.68,0,0,0,1-4,6.6,6.6,0,0,0-1-4,3.9,3.9,0,0,0-6,0,6.67,6.67,0,0,0-1,4,6.68,6.68,0,0,0,1,4A3.51,3.51,0,0,0,66.19,80.85Zm0-2.09a1.08,1.08,0,0,1-1-.78,7.46,7.46,0,0,1-.31-2.56,7.46,7.46,0,0,1,.31-2.56,1.08,1.08,0,0,1,1-.77,1.07,1.07,0,0,1,1,.78,10.36,10.36,0,0,1,0,5.11A1.07,1.07,0,0,1,66.19,78.76Zm6.54,2a1.4,1.4,0,0,0,1-.42,1.43,1.43,0,0,0,.41-1,1.45,1.45,0,0,0-.41-1,1.49,1.49,0,0,0-2.07,0,1.42,1.42,0,0,0-.42,1,1.43,1.43,0,0,0,1.46,1.45Zm6.54,0a3.51,3.51,0,0,0,3-1.4,6.68,6.68,0,0,0,1-4,6.6,6.6,0,0,0-1-4,3.9,3.9,0,0,0-6,0,6.67,6.67,0,0,0-1,4,6.68,6.68,0,0,0,1,4A3.51,3.51,0,0,0,79.27,80.85Zm0-2.09a1.08,1.08,0,0,1-1-.78,7.46,7.46,0,0,1-.31-2.56,7.46,7.46,0,0,1,.31-2.56,1.08,1.08,0,0,1,1-.77,1.07,1.07,0,0,1,1,.78,10.36,10.36,0,0,1,0,5.11A1.07,1.07,0,0,1,79.27,78.76Zm9.9-5A3,3,0,0,0,87.9,74a2.46,2.46,0,0,0-.92.76,4.07,4.07,0,0,1,.56-2,1.46,1.46,0,0,1,1.24-.7,2,2,0,0,1,.69.12c.22.08.49.2.82.36l.33.17.45.22a1.12,1.12,0,0,0,.38.06.79.79,0,0,0,.64-.32,1.23,1.23,0,0,0,.26-.79,1.14,1.14,0,0,0-.11-.52,1.39,1.39,0,0,0-.37-.41,4.74,4.74,0,0,0-1.51-.75A5.81,5.81,0,0,0,88.64,70a4.07,4.07,0,0,0-2.33.68,4.34,4.34,0,0,0-1.54,1.93,7.16,7.16,0,0,0-.55,2.93,6,6,0,0,0,1.15,3.93,4,4,0,0,0,3.27,1.38,3.89,3.89,0,0,0,1.91-.47,3.32,3.32,0,0,0,1.31-1.29,3.73,3.73,0,0,0,.47-1.89,3.67,3.67,0,0,0-.41-1.77,3,3,0,0,0-2.75-1.68Zm-.69,5a1.21,1.21,0,0,1-.93-.39,1.49,1.49,0,0,1-.36-1,1.52,1.52,0,0,1,.35-1,1.21,1.21,0,0,1,.94-.39,1.19,1.19,0,0,1,.94.39,1.53,1.53,0,0,1,.33,1,1.49,1.49,0,0,1-.34,1A1.18,1.18,0,0,1,88.48,78.73Z"/></svg>