<svg id="Layer_1" data-name="Layer 1" xmlns="http://www.w3.org/2000/svg" viewBox="0 0 100 100"><title>l1_3_1</title><path d="M95.8,73A17.5,17.5,0,1,1,66.24,60.35l-11-16.27a17.51,17.51,0,0,1-4.61.63A17.3,17.3,0,0,1,45.76,44L34.55,60.65h0a17.64,17.64,0,1,1-5.84-3.85L39.51,40.7a17.52,17.52,0,1,1,22.08.17L72.17,56.63A17.47,17.47,0,0,1,95.8,73ZM57.86,59h-5v-5a2.32,2.32,0,0,0-.68-1.68,2.28,2.28,0,0,0-1.68-.68,2.32,2.32,0,0,0-2.36,2.36v5h-5a2.32,2.32,0,0,0-2.36,2.36,2.35,2.35,0,0,0,.68,1.7,2.26,2.26,0,0,0,1.68.7h5v5a2.32,2.32,0,0,0,2.36,2.36,2.23,2.23,0,0,0,1.7-.68,2.31,2.31,0,0,0,.66-1.68v-5h5a2.23,2.23,0,0,0,1.68-.7,2.31,2.31,0,0,0,.68-1.7A2.32,2.32,0,0,0,57.86,59Zm-16-28.14h-3L41,28.65A7,7,0,0,0,42.21,27a3.72,3.72,0,0,0,.37-1.67,2.71,2.71,0,0,0-.46-1.57,2.82,2.82,0,0,0-1.29-1,4.74,4.74,0,0,0-1.95-.37,6.09,6.09,0,0,0-3.32,1,1,1,0,0,0-.37.39,1.38,1.38,0,0,0-.09.54,1.27,1.27,0,0,0,.25.8.75.75,0,0,0,.63.34.92.92,0,0,0,.29,0,1.39,1.39,0,0,0,.3-.15l.24-.12.3-.15a6.81,6.81,0,0,1,.84-.37,2.37,2.37,0,0,1,.81-.13,1.18,1.18,0,0,1,.83.27,1,1,0,0,1,.29.78,2.93,2.93,0,0,1-1,1.91L35.71,30.7a1.64,1.64,0,0,0-.51,1.17A1.1,1.1,0,0,0,36.37,33h5.48a1.51,1.51,0,0,0,1-.27,1,1,0,0,0,.32-.84,1,1,0,0,0-.32-.82A1.57,1.57,0,0,0,41.85,30.82Zm6.22,2.33a3.51,3.51,0,0,0,3-1.4,6.68,6.68,0,0,0,1-4,6.6,6.6,0,0,0-1-4,3.9,3.9,0,0,0-6,0,6.67,6.67,0,0,0-1,4,6.68,6.68,0,0,0,1,4A3.51,3.51,0,0,0,48.07,33.15Zm0-2.09a1.07,1.07,0,0,1-1-.78,7.41,7.41,0,0,1-.32-2.56A7.37,7.37,0,0,1,47,25.16a1.06,1.06,0,0,1,1-.77,1.08,1.08,0,0,1,1,.78,7.43,7.43,0,0,1,.31,2.55,7.46,7.46,0,0,1-.31,2.56A1.08,1.08,0,0,1,48.07,31.06Zm6.54,2a1.4,1.4,0,0,0,1-.42,1.43,1.43,0,0,0,.41-1,1.45,1.45,0,0,0-.41-1,1.49,1.49,0,0,0-2.07,0,1.41,1.41,0,0,0-.41,1,1.42,1.42,0,0,0,1.45,1.45Zm7.28-7a3.78,3.78,0,0,0-1.49.27V24.52h3.24c.87,0,1.31-.35,1.31-1.05s-.44-1-1.31-1H59a1.27,1.27,0,0,0-.94.33,1.3,1.3,0,0,0-.33,1v4.06a.81.81,0,0,0,.28.65,1,1,0,0,0,.71.25,1.41,1.41,0,0,0,.67-.16,5.45,5.45,0,0,1,.86-.27,4.15,4.15,0,0,1,.82-.08,1.7,1.7,0,0,1,1.17.38,1.33,1.33,0,0,1,.42,1.05,1.27,1.27,0,0,1-.4,1.05A1.9,1.9,0,0,1,61,31a2.45,2.45,0,0,1-.83-.13,7.93,7.93,0,0,1-.85-.36l-.3-.15a4.9,4.9,0,0,0-.45-.23,1,1,0,0,0-.37-.06.79.79,0,0,0-.63.32,1.25,1.25,0,0,0-.26.79,1.21,1.21,0,0,0,.11.52,1.49,1.49,0,0,0,.36.41,5,5,0,0,0,1.53.75,6.34,6.34,0,0,0,1.83.27,4.85,4.85,0,0,0,2.14-.45,3.37,3.37,0,0,0,1.44-1.27,3.86,3.86,0,0,0,.08-3.69,3.09,3.09,0,0,0-1.18-1.2A3.52,3.52,0,0,0,61.89,26.1ZM13.77,76.91h-3l2.13-2.18a7.22,7.22,0,0,0,1.25-1.68,3.9,3.9,0,0,0,.37-1.68,2.75,2.75,0,0,0-.46-1.56,2.84,2.84,0,0,0-1.3-1,4.74,4.74,0,0,0-1.95-.37,6.09,6.09,0,0,0-3.31,1,1,1,0,0,0-.37.39,1.21,1.21,0,0,0-.1.54,1.28,1.28,0,0,0,.26.8.75.75,0,0,0,.63.34.87.87,0,0,0,.28,0,1.59,1.59,0,0,0,.31-.14l.23-.13L9,71a6.1,6.1,0,0,1,.85-.36,2.32,2.32,0,0,1,.8-.13,1.17,1.17,0,0,1,.83.27,1,1,0,0,1,.3.78,2.91,2.91,0,0,1-1,1.9L7.64,76.79A1.64,1.64,0,0,0,7.13,78a1.13,1.13,0,0,0,.31.82,1.17,1.17,0,0,0,.86.32h5.47a1.54,1.54,0,0,0,1-.27,1,1,0,0,0,.32-.84,1,1,0,0,0-.32-.82A1.6,1.6,0,0,0,13.77,76.91ZM20,79.23a3.5,3.5,0,0,0,3-1.39,6.71,6.71,0,0,0,1-4,6.67,6.67,0,0,0-1-4,3.51,3.51,0,0,0-3-1.39,3.5,3.5,0,0,0-3,1.39,6.67,6.67,0,0,0-1,4,6.71,6.71,0,0,0,1,4A3.5,3.5,0,0,0,20,79.23Zm0-2.08a1.08,1.08,0,0,1-1-.78,7.53,7.53,0,0,1-.31-2.57A7.36,7.36,0,0,1,19,71.25a1.08,1.08,0,0,1,1-.78,1.07,1.07,0,0,1,1,.78,7.38,7.38,0,0,1,.32,2.55A7.47,7.47,0,0,1,21,76.37,1.07,1.07,0,0,1,20,77.15Zm6.54,2a1.36,1.36,0,0,0,1-.42,1.42,1.42,0,0,0,.42-1,1.4,1.4,0,0,0-.42-1,1.36,1.36,0,0,0-1-.42,1.42,1.42,0,0,0-1.46,1.45,1.45,1.45,0,0,0,.41,1A1.42,1.42,0,0,0,26.54,79.19Zm9.33-2.28h-3L35,74.73a6.94,6.94,0,0,0,1.25-1.68,3.76,3.76,0,0,0,.37-1.68,2.68,2.68,0,0,0-.46-1.56,2.82,2.82,0,0,0-1.29-1,4.74,4.74,0,0,0-2-.37,6.16,6.16,0,0,0-3.32,1,.93.93,0,0,0-.36.39,1.21,1.21,0,0,0-.1.54,1.27,1.27,0,0,0,.25.8.75.75,0,0,0,.63.34.93.93,0,0,0,.29,0,1.31,1.31,0,0,0,.3-.14l.24-.13.3-.15a6.58,6.58,0,0,1,.84-.36,2.37,2.37,0,0,1,.81-.13,1.17,1.17,0,0,1,.83.27,1,1,0,0,1,.29.78,2.91,2.91,0,0,1-1,1.9l-3.18,3.32A1.64,1.64,0,0,0,29.22,78a1.1,1.1,0,0,0,1.17,1.14h5.48a1.51,1.51,0,0,0,1-.27,1,1,0,0,0,.32-.84,1,1,0,0,0-.32-.82A1.57,1.57,0,0,0,35.87,76.91Zm33.58,3.37a4.67,4.67,0,0,0,4-1.86A8.94,8.94,0,0,0,74.83,73a8.8,8.8,0,0,0-1.39-5.36,5.22,5.22,0,0,0-8,0A8.88,8.88,0,0,0,64.07,73a8.94,8.94,0,0,0,1.38,5.38A4.67,4.67,0,0,0,69.45,80.28Zm0-2.78a1.44,1.44,0,0,1-1.38-1A10,10,0,0,1,67.65,73a9.83,9.83,0,0,1,.42-3.41,1.44,1.44,0,0,1,2.76,0,9.84,9.84,0,0,1,.42,3.4,10,10,0,0,1-.42,3.42A1.44,1.44,0,0,1,69.45,77.5Zm8.72,2.72a1.85,1.85,0,0,0,1.37-.56,1.9,1.9,0,0,0,.55-1.38,1.87,1.87,0,0,0-.55-1.38,1.82,1.82,0,0,0-1.37-.56,1.85,1.85,0,0,0-1.39.56,1.87,1.87,0,0,0-.55,1.38,1.9,1.9,0,0,0,1.94,1.94Zm11.26-7.38A3.3,3.3,0,0,0,91,71.63a3.35,3.35,0,0,0,.57-1.93,3.44,3.44,0,0,0-.61-2,3.93,3.93,0,0,0-1.74-1.36,6.61,6.61,0,0,0-2.61-.48,8,8,0,0,0-2.37.36,6.53,6.53,0,0,0-2,1,1.49,1.49,0,0,0-.48.54,1.58,1.58,0,0,0-.14.7,1.63,1.63,0,0,0,.34,1,1.06,1.06,0,0,0,.84.43,1.31,1.31,0,0,0,.5-.09c.15-.06.35-.16.6-.29l.42-.2a10.48,10.48,0,0,1,1.09-.48,3,3,0,0,1,1-.18,1.69,1.69,0,0,1,1.22.41,1.49,1.49,0,0,1,.44,1.15,1.14,1.14,0,0,1-.5,1,3.1,3.1,0,0,1-1.6.32h-.88a1.15,1.15,0,0,0-.94.42,1.52,1.52,0,0,0-.34,1,1.53,1.53,0,0,0,.34,1,1.15,1.15,0,0,0,.94.42h1.24a3,3,0,0,1,1.64.34,1.26,1.26,0,0,1,.5,1.12,1.38,1.38,0,0,1-.49,1.2,2.77,2.77,0,0,1-1.61.36,3.71,3.71,0,0,1-1.15-.17,10.92,10.92,0,0,1-1.15-.49l-.25-.11-.19-.09a5.1,5.1,0,0,0-.6-.29,1.31,1.31,0,0,0-.5-.09,1,1,0,0,0-.84.43,1.6,1.6,0,0,0-.34,1,1.67,1.67,0,0,0,.14.69,1.59,1.59,0,0,0,.48.55,6.6,6.6,0,0,0,2.08,1,9,9,0,0,0,2.5.35,7.65,7.65,0,0,0,2.83-.49,4.21,4.21,0,0,0,1.87-1.39,3.81,3.81,0,0,0,0-4.3A3.37,3.37,0,0,0,89.43,72.84Z"/></svg>