<svg id="Layer_1" data-name="Layer 1" xmlns="http://www.w3.org/2000/svg" viewBox="0 0 100 100"><title>l1_4_1</title><path d="M99.38,57.7V91.31A6.37,6.37,0,0,1,93,97.67H73a6.36,6.36,0,0,1-6.36-6.36V57.48l-6.4-9.42h-20L34,57.41v33.9a6.36,6.36,0,0,1-6.36,6.36h-20a6.37,6.37,0,0,1-6.37-6.36V57.7a6.37,6.37,0,0,1,6.37-6.37H26.22L34,39.94V8.08a6.37,6.37,0,0,1,6.37-6.37h20a6.37,6.37,0,0,1,6.37,6.37V40l7.68,11.32H93A6.37,6.37,0,0,1,99.38,57.7Zm-53-46.31A3.24,3.24,0,0,0,48,10.17a3.36,3.36,0,0,0,.58-1.94A3.5,3.5,0,0,0,48,6.18,3.92,3.92,0,0,0,46.2,4.81a6.66,6.66,0,0,0-2.62-.48,8.15,8.15,0,0,0-2.39.36,6.93,6.93,0,0,0-2,1,1.59,1.59,0,0,0-.48.55,1.58,1.58,0,0,0-.14.7A1.64,1.64,0,0,0,38.87,8a1,1,0,0,0,.85.43,1.35,1.35,0,0,0,.5-.09c.15-.06.35-.16.6-.29l.42-.2a11.88,11.88,0,0,1,1.1-.49,3.06,3.06,0,0,1,1.06-.18,1.73,1.73,0,0,1,1.22.41,1.51,1.51,0,0,1,.45,1.16,1.14,1.14,0,0,1-.51,1A3.11,3.11,0,0,1,43,10.1h-.88a1.17,1.17,0,0,0-1,.42,1.6,1.6,0,0,0-.34,1,1.57,1.57,0,0,0,.34,1,1.17,1.17,0,0,0,1,.43h1.25A3,3,0,0,1,45,13.3a1.26,1.26,0,0,1,.5,1.12A1.42,1.42,0,0,1,45,15.63a2.81,2.81,0,0,1-1.62.36,3.49,3.49,0,0,1-1.16-.17A9.22,9.22,0,0,1,41,15.33l-.25-.11-.19-.09a5.1,5.1,0,0,0-.6-.29,1.19,1.19,0,0,0-.51-.09,1,1,0,0,0-.84.43,1.63,1.63,0,0,0-.34,1.05,1.68,1.68,0,0,0,.14.7,1.51,1.51,0,0,0,.48.55,6.68,6.68,0,0,0,2.09,1,9.18,9.18,0,0,0,2.52.35,7.71,7.71,0,0,0,2.84-.49A4.2,4.2,0,0,0,48.26,17a3.49,3.49,0,0,0,.67-2.13,3.6,3.6,0,0,0-.68-2.2A3.39,3.39,0,0,0,46.39,11.39Zm10.72-2a3.89,3.89,0,0,0-1.7.38,3.22,3.22,0,0,0-1.23,1,5.36,5.36,0,0,1,.75-2.62,1.92,1.92,0,0,1,1.66-.94,2.93,2.93,0,0,1,.93.16c.29.11.66.27,1.1.49l.44.22c.26.13.46.23.61.29a1.31,1.31,0,0,0,.5.09A1.07,1.07,0,0,0,61,8a1.65,1.65,0,0,0,.35-1.06,1.45,1.45,0,0,0-.15-.7,1.8,1.8,0,0,0-.5-.55,6.47,6.47,0,0,0-2-1,7.81,7.81,0,0,0-2.3-.36,5.48,5.48,0,0,0-3.13.9,5.92,5.92,0,0,0-2.07,2.59,9.74,9.74,0,0,0-.73,3.93A8,8,0,0,0,52,17a5.4,5.4,0,0,0,4.38,1.85A5.13,5.13,0,0,0,59,18.24a4.4,4.4,0,0,0,1.76-1.74A4.92,4.92,0,0,0,61.36,14a5,5,0,0,0-.56-2.38,4.06,4.06,0,0,0-3.69-2.25ZM56.19,16a1.62,1.62,0,0,1-1.25-.53,2,2,0,0,1-.48-1.38,2,2,0,0,1,.47-1.39,1.66,1.66,0,0,1,1.26-.52,1.62,1.62,0,0,1,1.26.51,2.07,2.07,0,0,1,.45,1.4,2.06,2.06,0,0,1-.46,1.39A1.59,1.59,0,0,1,56.19,16ZM53.65,40.21h-4l2.85-2.91A9.09,9.09,0,0,0,54.14,35a5,5,0,0,0,.5-2.24,3.68,3.68,0,0,0-.62-2.1,3.9,3.9,0,0,0-1.74-1.41,6.43,6.43,0,0,0-2.61-.49,7.89,7.89,0,0,0-2.32.36,7.75,7.75,0,0,0-2.13,1,1.33,1.33,0,0,0-.49.52,1.69,1.69,0,0,0-.13.72,1.72,1.72,0,0,0,.34,1.08,1,1,0,0,0,.85.45,1.21,1.21,0,0,0,.38-.06,2.07,2.07,0,0,0,.41-.19l.31-.17.41-.2a9.93,9.93,0,0,1,1.13-.5,3.4,3.4,0,0,1,1.08-.17,1.54,1.54,0,0,1,1.11.37,1.32,1.32,0,0,1,.4,1,4,4,0,0,1-1.33,2.56l-4.26,4.44a2.19,2.19,0,0,0-.69,1.57,1.52,1.52,0,0,0,.42,1.1,1.59,1.59,0,0,0,1.15.43h7.34A2,2,0,0,0,55,42.79a1.4,1.4,0,0,0,.43-1.13,1.33,1.33,0,0,0-.43-1.1A2.1,2.1,0,0,0,53.65,40.21ZM86.91,64.1h-.44V56.83a1.71,1.71,0,0,0-.55-1.34,1.89,1.89,0,0,0-1.3-.49,1.93,1.93,0,0,0-.9.22,1.75,1.75,0,0,0-.71.61L77.25,64a2.25,2.25,0,0,0-.44,1.32,1.48,1.48,0,0,0,1.57,1.55h4.49v.69A1.77,1.77,0,0,0,83.36,69,2,2,0,0,0,86,69a1.74,1.74,0,0,0,.51-1.36v-.69h.44c1.16,0,1.75-.47,1.75-1.43S88.07,64.1,86.91,64.1Zm-6.46,0,2.42-3.48V64.1Zm4.74,22.36a3.31,3.31,0,0,0,1.6-1.21,3.38,3.38,0,0,0,.57-1.94,3.56,3.56,0,0,0-.61-2A4,4,0,0,0,85,79.89a6.74,6.74,0,0,0-2.63-.48,8.08,8.08,0,0,0-2.38.36,6.47,6.47,0,0,0-2,1,1.75,1.75,0,0,0-.49.55,1.58,1.58,0,0,0-.14.7,1.7,1.7,0,0,0,.34,1.06,1.07,1.07,0,0,0,.85.43,1.31,1.31,0,0,0,.5-.09c.15-.06.35-.16.61-.29l.42-.21a11.5,11.5,0,0,1,1.09-.48,3.06,3.06,0,0,1,1.06-.18,1.77,1.77,0,0,1,1.23.41,1.53,1.53,0,0,1,.44,1.16,1.15,1.15,0,0,1-.5,1,3.14,3.14,0,0,1-1.61.32h-.89a1.15,1.15,0,0,0-.94.42,1.62,1.62,0,0,0,0,2,1.15,1.15,0,0,0,.94.42h1.25a3,3,0,0,1,1.65.35,1.26,1.26,0,0,1,.5,1.12,1.4,1.4,0,0,1-.49,1.21,2.81,2.81,0,0,1-1.62.36A3.77,3.77,0,0,1,81,90.9a9.14,9.14,0,0,1-1.15-.49l-.26-.11-.19-.09a5.49,5.49,0,0,0-.6-.3,1.31,1.31,0,0,0-.5-.09,1,1,0,0,0-.85.44,1.62,1.62,0,0,0-.34,1,1.68,1.68,0,0,0,.14.7,1.73,1.73,0,0,0,.48.55,6.41,6.41,0,0,0,2.1,1,8.7,8.7,0,0,0,2.51.36,7.52,7.52,0,0,0,2.85-.5A4.17,4.17,0,0,0,87.06,92a3.86,3.86,0,0,0,0-4.33A3.46,3.46,0,0,0,85.19,86.46ZM16.67,54.86a5,5,0,0,0-2.47.6,4.41,4.41,0,0,0-1.71,1.69,5.18,5.18,0,0,0-.08,4.76,4.06,4.06,0,0,0,1.47,1.6,4,4,0,0,0,2.11.58,3.63,3.63,0,0,0,1.65-.37,3.06,3.06,0,0,0,1.2-1,5.17,5.17,0,0,1-.73,2.54,1.86,1.86,0,0,1-1.61.91,2.74,2.74,0,0,1-.9-.15c-.29-.11-.64-.26-1.07-.47l-.43-.22c-.25-.13-.44-.22-.59-.28A1.21,1.21,0,0,0,13,65a1,1,0,0,0-.83.42,1.56,1.56,0,0,0-.34,1,1.4,1.4,0,0,0,.14.68,1.65,1.65,0,0,0,.48.52,6.11,6.11,0,0,0,2,1,7.72,7.72,0,0,0,2.23.35,5.28,5.28,0,0,0,3-.88,5.65,5.65,0,0,0,2-2.5,9.4,9.4,0,0,0,.72-3.82,7.71,7.71,0,0,0-1.51-5.11A5.24,5.24,0,0,0,16.67,54.86Zm.22,6.46a1.55,1.55,0,0,1-1.22-.5,2,2,0,0,1-.44-1.36,1.94,1.94,0,0,1,.45-1.34,1.53,1.53,0,0,1,1.21-.51,1.56,1.56,0,0,1,1.21.52,1.91,1.91,0,0,1,.47,1.33,2,2,0,0,1-.46,1.35A1.58,1.58,0,0,1,16.89,61.32Zm2.87,25.14a3.22,3.22,0,0,0,1.6-1.21,3.38,3.38,0,0,0,.57-1.94,3.49,3.49,0,0,0-.61-2,3.92,3.92,0,0,0-1.75-1.37A6.69,6.69,0,0,0,17,79.41a8.15,8.15,0,0,0-2.39.36,6.69,6.69,0,0,0-2,1,1.59,1.59,0,0,0-.48.55,1.46,1.46,0,0,0-.14.7,1.64,1.64,0,0,0,.34,1.06,1.06,1.06,0,0,0,.84.43,1.36,1.36,0,0,0,.51-.09l.6-.29.42-.21a11.58,11.58,0,0,1,1.1-.48,3.06,3.06,0,0,1,1.06-.18,1.73,1.73,0,0,1,1.22.41,1.49,1.49,0,0,1,.44,1.16,1.13,1.13,0,0,1-.5,1,3.11,3.11,0,0,1-1.61.32h-.88a1.15,1.15,0,0,0-.95.42,1.66,1.66,0,0,0,0,2,1.15,1.15,0,0,0,.95.42h1.24a3,3,0,0,1,1.65.35,1.24,1.24,0,0,1,.51,1.12,1.41,1.41,0,0,1-.5,1.21,2.77,2.77,0,0,1-1.62.36,3.75,3.75,0,0,1-1.15-.17,9.22,9.22,0,0,1-1.16-.49l-.25-.11L14,90.21q-.39-.21-.6-.3a1.36,1.36,0,0,0-.51-.09,1,1,0,0,0-.84.44,1.62,1.62,0,0,0-.34,1,1.54,1.54,0,0,0,.14.7,1.51,1.51,0,0,0,.48.55,6.45,6.45,0,0,0,2.09,1,8.77,8.77,0,0,0,2.52.36,7.5,7.5,0,0,0,2.84-.5A4.17,4.17,0,0,0,21.63,92a3.81,3.81,0,0,0,0-4.33A3.46,3.46,0,0,0,19.76,86.46ZM64,23.68h0a2.14,2.14,0,0,0-2.15-2.14H38.73a2.14,2.14,0,0,0-2.15,2.14h0a2.15,2.15,0,0,0,2.15,2.15H61.89A2.15,2.15,0,0,0,64,23.68ZM30.93,74.19h0A2.14,2.14,0,0,0,28.79,72H5.62a2.14,2.14,0,0,0-2.14,2.15h0a2.14,2.14,0,0,0,2.14,2.14H28.79A2.14,2.14,0,0,0,30.93,74.19Zm66.43,0h0A2.15,2.15,0,0,0,95.21,72H72.05a2.14,2.14,0,0,0-2.14,2.15h0a2.14,2.14,0,0,0,2.14,2.14H95.21A2.14,2.14,0,0,0,97.36,74.19ZM60.66,71h-7V63.9a3.3,3.3,0,1,0-6.6,0V71H40a3.26,3.26,0,0,0-3.3,3.3,3.25,3.25,0,0,0,1,2.37,3.13,3.13,0,0,0,2.34,1h7v7a3.25,3.25,0,0,0,3.3,3.3,3.16,3.16,0,0,0,2.38-1,3.26,3.26,0,0,0,.92-2.35v-7h7a3.17,3.17,0,0,0,2.35-1,3.28,3.28,0,0,0,1-2.37,3.25,3.25,0,0,0-3.3-3.3Z"/></svg>