<svg id="Layer_1" data-name="Layer 1" xmlns="http://www.w3.org/2000/svg" viewBox="0 0 98.14 95.96"><title>l1_4_13</title><path d="M61.76,70.71a3.19,3.19,0,0,1,1,2.35,3.27,3.27,0,0,1-1,2.38,3.13,3.13,0,0,1-2.34,1H52.37v7a3.28,3.28,0,0,1-.92,2.35,3.32,3.32,0,0,1-5.68-2.35v-7H38.72a3.17,3.17,0,0,1-2.35-1,3.31,3.31,0,0,1-.95-2.38,3.25,3.25,0,0,1,3.3-3.3h7.05v-7a3.3,3.3,0,1,1,6.6,0v7h7.05A3.18,3.18,0,0,1,61.76,70.71Z"/><path d="M98.14,56V89.59A6.37,6.37,0,0,1,91.77,96h-20a6.37,6.37,0,0,1-6.37-6.37V55.76L59,46.34h-20L32.71,55.7V89.59A6.37,6.37,0,0,1,26.34,96h-20A6.37,6.37,0,0,1,0,89.59V56a6.37,6.37,0,0,1,6.37-6.36H25l7.73-11.39V6.37A6.37,6.37,0,0,1,39.08,0h20a6.37,6.37,0,0,1,6.36,6.37V38.29l7.69,11.33H91.77A6.37,6.37,0,0,1,98.14,56ZM57,31.2H53.69v-19a3.45,3.45,0,0,0-1-2.6,3.52,3.52,0,0,0-2.58-1,6.75,6.75,0,0,0-3.32,1l-6.4,3.72A2.73,2.73,0,0,0,39,15.88a3.38,3.38,0,0,0,.8,2.18,2.43,2.43,0,0,0,1.92,1,2.69,2.69,0,0,0,1.4-.4l3.2-1.88V31.2H43.09a4,4,0,0,0-2.64.72,2.69,2.69,0,0,0-.84,2.16q0,3,3.48,3H57q3.48,0,3.48-3a2.69,2.69,0,0,0-.84-2.16A4,4,0,0,0,57,31.2Zm-36.92,33h-1.6V55a1.62,1.62,0,0,0-1.73-1.74,3.34,3.34,0,0,0-1.62.49L12,55.54a1.32,1.32,0,0,0-.68,1.21,1.66,1.66,0,0,0,.39,1.07,1.18,1.18,0,0,0,.93.47,1.3,1.3,0,0,0,.68-.19l1.56-.92v7H13.28a2,2,0,0,0-1.28.35,1.31,1.31,0,0,0-.41,1.06c0,1,.56,1.44,1.69,1.44h6.77c1.13,0,1.7-.48,1.7-1.44a1.34,1.34,0,0,0-.41-1.06A2,2,0,0,0,20.05,64.22ZM18.52,84.75a3.23,3.23,0,0,0,1.6-1.22,3.34,3.34,0,0,0,.57-1.94,3.49,3.49,0,0,0-.61-2,3.92,3.92,0,0,0-1.75-1.37,6.71,6.71,0,0,0-2.63-.48,8.08,8.08,0,0,0-2.38.36,6.6,6.6,0,0,0-2,1,1.41,1.41,0,0,0-.63,1.25,1.64,1.64,0,0,0,.35,1,1,1,0,0,0,.84.43,1.36,1.36,0,0,0,.51-.09c.14-.06.34-.15.6-.29l.42-.2a10.56,10.56,0,0,1,1.1-.48,3,3,0,0,1,1-.18,1.71,1.71,0,0,1,1.23.41,1.51,1.51,0,0,1,.44,1.16,1.13,1.13,0,0,1-.5,1,3,3,0,0,1-1.61.32h-.89a1.13,1.13,0,0,0-.94.43,1.52,1.52,0,0,0-.34,1,1.56,1.56,0,0,0,.34,1,1.15,1.15,0,0,0,.94.42h1.25a3,3,0,0,1,1.65.34,1.25,1.25,0,0,1,.5,1.13A1.38,1.38,0,0,1,17.1,89a2.73,2.73,0,0,1-1.62.37,3.71,3.71,0,0,1-1.15-.17,8.81,8.81,0,0,1-1.16-.5l-.25-.11-.19-.09c-.26-.13-.46-.23-.61-.29a1.28,1.28,0,0,0-.5-.09,1,1,0,0,0-.84.43,1.65,1.65,0,0,0-.35,1.06,1.6,1.6,0,0,0,.14.69,1.56,1.56,0,0,0,.49.55,6.27,6.27,0,0,0,2.09,1,9.06,9.06,0,0,0,2.51.35,7.53,7.53,0,0,0,2.85-.49,4.19,4.19,0,0,0,1.88-1.4,3.5,3.5,0,0,0,.66-2.13A3.54,3.54,0,0,0,20.38,86,3.41,3.41,0,0,0,18.52,84.75Zm10.8-12.61a2,2,0,0,0-1.86-1.75H5a2.18,2.18,0,0,0-2.35,2.25A2.15,2.15,0,0,0,5,74.25H27.46A2,2,0,0,0,29.32,72.14ZM81.08,77a2,2,0,0,0,1.28-.42A1.88,1.88,0,0,0,83,75.37,3.14,3.14,0,0,1,83.83,74a14.94,14.94,0,0,1,1.76-1.63c.82-.72,1.48-1.34,2-1.86a7.07,7.07,0,0,0,1.31-1.85,5.27,5.27,0,0,0,.54-2.38,5.18,5.18,0,0,0-1-3.13,6.77,6.77,0,0,0-2.8-2.17,9.9,9.9,0,0,0-4.06-.79,13.13,13.13,0,0,0-4,.65,12.34,12.34,0,0,0-3.59,1.8,3.09,3.09,0,0,0-.86.94,2.67,2.67,0,0,0-.26,1.23,2.82,2.82,0,0,0,.61,1.84,1.86,1.86,0,0,0,1.49.75,4.19,4.19,0,0,0,1.92-.67l.84-.42a13.81,13.81,0,0,1,1.77-.85,4.48,4.48,0,0,1,1.59-.3,2.37,2.37,0,0,1,1.54.45,1.5,1.5,0,0,1,.56,1.23,2.54,2.54,0,0,1-.4,1.4,11.16,11.16,0,0,1-1.21,1.5A11.92,11.92,0,0,0,79.78,72a5.48,5.48,0,0,0-.63,2.75,2.52,2.52,0,0,0,.51,1.68A1.75,1.75,0,0,0,81.08,77Zm.07,8.37a3.27,3.27,0,0,0,2.43-1,3.52,3.52,0,0,0,0-4.83,3.27,3.27,0,0,0-2.43-1,3.23,3.23,0,0,0-2.4,1,3.52,3.52,0,0,0,0,4.83A3.23,3.23,0,0,0,81.15,85.35Z"/></svg>