<svg id="Layer_1" data-name="Layer 1" xmlns="http://www.w3.org/2000/svg" viewBox="0 0 100 100"><title>l1_4_1</title><path d="M99.22,58.31V91.92a6.37,6.37,0,0,1-6.37,6.37h-20a6.37,6.37,0,0,1-6.37-6.37V58.09l-6.4-9.42h-20L33.8,58v33.9a6.37,6.37,0,0,1-6.37,6.37h-20a6.38,6.38,0,0,1-6.37-6.37V58.31a6.37,6.37,0,0,1,6.37-6.37H26.07L33.8,40.56V8.69a6.36,6.36,0,0,1,6.36-6.36h20a6.37,6.37,0,0,1,6.37,6.36V40.62L74.2,51.94H92.85A6.37,6.37,0,0,1,99.22,58.31ZM47.93,16.36H46.28V6.83a1.74,1.74,0,0,0-.49-1.31A1.78,1.78,0,0,0,44.49,5a3.43,3.43,0,0,0-1.66.5L39.61,7.41a1.37,1.37,0,0,0-.71,1.25,1.71,1.71,0,0,0,.4,1.09,1.23,1.23,0,0,0,1,.5,1.38,1.38,0,0,0,.7-.2l1.61-1v7.26H41a2,2,0,0,0-1.32.36,1.37,1.37,0,0,0-.43,1.09c0,1,.59,1.49,1.75,1.49h7c1.17,0,1.75-.5,1.75-1.49a1.37,1.37,0,0,0-.42-1.09A2,2,0,0,0,47.93,16.36Zm11.55,0h-4l2.85-2.92A9.4,9.4,0,0,0,60,11.18a5,5,0,0,0,.49-2.24,3.67,3.67,0,0,0-.61-2.1,4,4,0,0,0-1.74-1.41,6.43,6.43,0,0,0-2.61-.49,8,8,0,0,0-2.33.36,8.12,8.12,0,0,0-2.12,1,1.34,1.34,0,0,0-.49.53,1.69,1.69,0,0,0-.13.72,1.72,1.72,0,0,0,.34,1.08,1,1,0,0,0,.84.45A1.23,1.23,0,0,0,52,9a2.37,2.37,0,0,0,.41-.19l.31-.17.4-.2A10,10,0,0,1,54.26,8a3.4,3.4,0,0,1,1.08-.17,1.54,1.54,0,0,1,1.11.37,1.35,1.35,0,0,1,.39,1,3.94,3.94,0,0,1-1.32,2.56L51.25,16.2a2.22,2.22,0,0,0-.68,1.57,1.52,1.52,0,0,0,.42,1.1,1.55,1.55,0,0,0,1.15.43h7.34a2,2,0,0,0,1.32-.36,1.43,1.43,0,0,0,.43-1.13,1.37,1.37,0,0,0-.43-1.1A2.1,2.1,0,0,0,59.48,16.36Zm-7.16,20.1a3.24,3.24,0,0,0,2.17-3.16,3.56,3.56,0,0,0-.61-2,4,4,0,0,0-1.75-1.37,6.74,6.74,0,0,0-2.63-.48,8.08,8.08,0,0,0-2.38.36,6.49,6.49,0,0,0-2,1A1.35,1.35,0,0,0,44.45,32a1.7,1.7,0,0,0,.34,1.06,1,1,0,0,0,.85.43,1.31,1.31,0,0,0,.5-.09c.15-.06.35-.16.6-.29l.43-.2a10.48,10.48,0,0,1,1.09-.48,2.85,2.85,0,0,1,1.06-.19,1.73,1.73,0,0,1,1.23.42A1.51,1.51,0,0,1,51,33.82a1.15,1.15,0,0,1-.5,1,3.16,3.16,0,0,1-1.61.32H48a1.13,1.13,0,0,0-.94.42,1.55,1.55,0,0,0-.35,1,1.52,1.52,0,0,0,.35,1A1.11,1.11,0,0,0,48,38h1.25a3,3,0,0,1,1.65.34,1.27,1.27,0,0,1,.5,1.13,1.38,1.38,0,0,1-.49,1.2,2.81,2.81,0,0,1-1.62.36,3.49,3.49,0,0,1-1.16-.17A8.56,8.56,0,0,1,47,40.4l-.26-.11-.19-.09c-.25-.13-.45-.23-.6-.29a1.35,1.35,0,0,0-.5-.09,1,1,0,0,0-.85.43,1.64,1.64,0,0,0-.34,1.06,1.67,1.67,0,0,0,.14.69,1.73,1.73,0,0,0,.48.55,6.63,6.63,0,0,0,2.1,1,9.06,9.06,0,0,0,2.51.35,7.56,7.56,0,0,0,2.85-.49A4.32,4.32,0,0,0,54.19,42a3.5,3.5,0,0,0,.66-2.13,3.59,3.59,0,0,0-.67-2.2A3.45,3.45,0,0,0,52.32,36.46ZM86.16,67h-4L85,64.06a9.4,9.4,0,0,0,1.68-2.26,5,5,0,0,0,.49-2.24,3.67,3.67,0,0,0-.61-2.1,4,4,0,0,0-1.74-1.41,6.43,6.43,0,0,0-2.61-.5,8,8,0,0,0-2.33.37,7.81,7.81,0,0,0-2.12,1,1.28,1.28,0,0,0-.49.53,1.63,1.63,0,0,0-.13.72,1.74,1.74,0,0,0,.34,1.08,1,1,0,0,0,.84.45,1.27,1.27,0,0,0,.39-.06,3.47,3.47,0,0,0,.41-.19l.31-.17.4-.21a11.82,11.82,0,0,1,1.14-.49A3.33,3.33,0,0,1,82,58.41a1.59,1.59,0,0,1,1.12.36,1.36,1.36,0,0,1,.39,1,3.87,3.87,0,0,1-1.33,2.55l-4.26,4.45a2.18,2.18,0,0,0-.68,1.57,1.5,1.5,0,0,0,.42,1.09,1.52,1.52,0,0,0,1.15.44h7.34a2,2,0,0,0,1.31-.37,1.37,1.37,0,0,0,.44-1.12,1.34,1.34,0,0,0-.44-1.1A2.05,2.05,0,0,0,86.16,67ZM85,87.08a3.29,3.29,0,0,0,1.6-1.22,3.36,3.36,0,0,0,.57-1.94,3.49,3.49,0,0,0-.61-2,4,4,0,0,0-1.75-1.37A6.74,6.74,0,0,0,82.21,80a8.08,8.08,0,0,0-2.38.36,6.47,6.47,0,0,0-2,1,1.75,1.75,0,0,0-.49.55,1.58,1.58,0,0,0-.14.7,1.65,1.65,0,0,0,.35,1.06,1,1,0,0,0,.84.43,1.28,1.28,0,0,0,.5-.09c.15-.06.35-.16.61-.29l.42-.2A9.62,9.62,0,0,1,81,83.05,3.11,3.11,0,0,1,82,82.87a1.77,1.77,0,0,1,1.23.41,1.53,1.53,0,0,1,.44,1.16,1.15,1.15,0,0,1-.5,1,3.14,3.14,0,0,1-1.61.32H80.7a1.15,1.15,0,0,0-.94.42,1.54,1.54,0,0,0-.34,1,1.52,1.52,0,0,0,.34,1,1.15,1.15,0,0,0,.94.42H82A3,3,0,0,1,83.6,89a1.26,1.26,0,0,1,.5,1.12,1.39,1.39,0,0,1-.49,1.21,2.81,2.81,0,0,1-1.62.36,3.82,3.82,0,0,1-1.16-.17A9.14,9.14,0,0,1,79.68,91l-.25-.11-.19-.09a6,6,0,0,0-.61-.29,1.15,1.15,0,0,0-.5-.1,1,1,0,0,0-.85.44,1.8,1.8,0,0,0-.2,1.75,1.65,1.65,0,0,0,.49.55,6.57,6.57,0,0,0,2.09,1,9.06,9.06,0,0,0,2.51.35A7.52,7.52,0,0,0,85,94a4.17,4.17,0,0,0,1.88-1.39,3.86,3.86,0,0,0,0-4.33A3.39,3.39,0,0,0,85,87.08ZM18.17,60.35a3.76,3.76,0,0,0-1.65.36,3.15,3.15,0,0,0-1.2,1,5.17,5.17,0,0,1,.74-2.54,1.85,1.85,0,0,1,1.61-.91,2.42,2.42,0,0,1,.89.16c.29.1.65.26,1.08.46l.42.22c.25.13.45.22.59.28a1.22,1.22,0,0,0,.49.09A1,1,0,0,0,22,59a1.61,1.61,0,0,0,.34-1,1.44,1.44,0,0,0-.15-.69,1.77,1.77,0,0,0-.48-.52,6.21,6.21,0,0,0-2-1,7.67,7.67,0,0,0-2.23-.35,5.22,5.22,0,0,0-3,.88,5.6,5.6,0,0,0-2,2.5,9.4,9.4,0,0,0-.71,3.82,7.77,7.77,0,0,0,1.5,5.11,5.25,5.25,0,0,0,4.25,1.79A5.08,5.08,0,0,0,20,69a4.45,4.45,0,0,0,1.7-1.69,5.18,5.18,0,0,0,.08-4.76,4.13,4.13,0,0,0-1.47-1.6A4,4,0,0,0,18.17,60.35Zm-.9,6.47a1.53,1.53,0,0,1-1.2-.52A1.85,1.85,0,0,1,15.6,65a1.92,1.92,0,0,1,.46-1.35,1.57,1.57,0,0,1,1.21-.5,1.53,1.53,0,0,1,1.22.49A2,2,0,0,1,18.93,65a1.92,1.92,0,0,1-.45,1.34A1.53,1.53,0,0,1,17.27,66.82ZM19.6,87.08a3.24,3.24,0,0,0,1.6-1.22,3.36,3.36,0,0,0,.58-1.94,3.5,3.5,0,0,0-.62-2,3.92,3.92,0,0,0-1.75-1.37A6.69,6.69,0,0,0,16.79,80a8.15,8.15,0,0,0-2.39.36,6.69,6.69,0,0,0-2,1,1.4,1.4,0,0,0-.62,1.25,1.64,1.64,0,0,0,.34,1.06,1,1,0,0,0,.85.43,1.35,1.35,0,0,0,.5-.09c.15-.06.35-.16.6-.29l.42-.2a9.7,9.7,0,0,1,1.1-.49,3.06,3.06,0,0,1,1.06-.18,1.73,1.73,0,0,1,1.22.41,1.5,1.5,0,0,1,.45,1.16,1.14,1.14,0,0,1-.51,1,3.11,3.11,0,0,1-1.61.32h-.88a1.17,1.17,0,0,0-.95.42,1.6,1.6,0,0,0-.34,1,1.57,1.57,0,0,0,.34,1,1.17,1.17,0,0,0,.95.42h1.25a3,3,0,0,1,1.65.35,1.26,1.26,0,0,1,.5,1.12,1.39,1.39,0,0,1-.5,1.21,2.75,2.75,0,0,1-1.61.36,3.77,3.77,0,0,1-1.16-.17A9.22,9.22,0,0,1,14.25,91L14,90.91l-.19-.09a6,6,0,0,0-.6-.29,1.19,1.19,0,0,0-.51-.1,1,1,0,0,0-.84.44,1.63,1.63,0,0,0-.34,1,1.54,1.54,0,0,0,.14.7,1.51,1.51,0,0,0,.48.55,6.68,6.68,0,0,0,2.09,1,9.18,9.18,0,0,0,2.52.35,7.5,7.5,0,0,0,2.84-.5,4.17,4.17,0,0,0,1.88-1.39,3.5,3.5,0,0,0,.67-2.14,3.59,3.59,0,0,0-.68-2.19A3.39,3.39,0,0,0,19.6,87.08ZM63.88,24.29h0a2.14,2.14,0,0,0-2.14-2.14H38.57a2.14,2.14,0,0,0-2.14,2.14h0a2.14,2.14,0,0,0,2.14,2.15H61.74A2.14,2.14,0,0,0,63.88,24.29ZM30.78,74.8h0a2.14,2.14,0,0,0-2.15-2.14H5.47A2.14,2.14,0,0,0,3.32,74.8h0a2.14,2.14,0,0,0,2.15,2.14H28.63A2.14,2.14,0,0,0,30.78,74.8Zm66.42,0h0a2.14,2.14,0,0,0-2.14-2.14H71.89a2.14,2.14,0,0,0-2.14,2.14h0a2.14,2.14,0,0,0,2.14,2.14H95.06A2.14,2.14,0,0,0,97.2,74.8ZM60.5,71.56h-7v-7a3.25,3.25,0,0,0-3.3-3.3,3.25,3.25,0,0,0-3.3,3.3v7h-7a3.25,3.25,0,0,0-3.3,3.3,3.24,3.24,0,0,0,1,2.37,3.1,3.1,0,0,0,2.35,1h7v7a3.25,3.25,0,0,0,3.3,3.3,3.14,3.14,0,0,0,2.38-1,3.2,3.2,0,0,0,.92-2.35v-7h7a3.12,3.12,0,0,0,2.35-1,3.28,3.28,0,0,0,.95-2.37,3.25,3.25,0,0,0-3.3-3.3Z"/></svg>