<svg id="Layer_1" data-name="Layer 1" xmlns="http://www.w3.org/2000/svg" viewBox="0 0 100 100"><title>l1_4_1</title><path d="M99,58v33.6A6.37,6.37,0,0,1,92.66,98h-20a6.37,6.37,0,0,1-6.37-6.37V57.78l-6.4-9.42H40l-6.35,9.36V91.61A6.37,6.37,0,0,1,27.24,98h-20A6.37,6.37,0,0,1,.89,91.61V58a6.37,6.37,0,0,1,6.37-6.37H25.88l7.73-11.39V8.39A6.37,6.37,0,0,1,40,2H60a6.37,6.37,0,0,1,6.37,6.37V40.31L74,51.64H92.66A6.37,6.37,0,0,1,99,58Zm-53-46.32a3.2,3.2,0,0,0,1.59-1.22,3.27,3.27,0,0,0,.58-1.94,3.52,3.52,0,0,0-.62-2,3.93,3.93,0,0,0-1.75-1.37,6.66,6.66,0,0,0-2.62-.48A8.08,8.08,0,0,0,40.85,5a6.71,6.71,0,0,0-2,1,1.63,1.63,0,0,0-.49.54,1.63,1.63,0,0,0-.14.71,1.69,1.69,0,0,0,.34,1.05,1,1,0,0,0,.85.43,1.31,1.31,0,0,0,.5-.09,5.1,5.1,0,0,0,.6-.29l.43-.2A10.48,10.48,0,0,1,42,7.67a3.06,3.06,0,0,1,1.06-.18,1.77,1.77,0,0,1,1.23.41,1.53,1.53,0,0,1,.44,1.16,1.12,1.12,0,0,1-.5,1,3.06,3.06,0,0,1-1.61.32h-.89a1.11,1.11,0,0,0-.94.43,1.52,1.52,0,0,0-.35,1,1.55,1.55,0,0,0,.35,1,1.13,1.13,0,0,0,.94.42H43a3,3,0,0,1,1.65.34,1.29,1.29,0,0,1,.5,1.13,1.41,1.41,0,0,1-.49,1.21A2.81,2.81,0,0,1,43,16.3a3.77,3.77,0,0,1-1.16-.17,8.74,8.74,0,0,1-1.15-.5l-.26-.11-.19-.09c-.25-.13-.45-.23-.6-.29a1.35,1.35,0,0,0-.5-.09,1,1,0,0,0-.85.43A1.64,1.64,0,0,0,38,16.54a1.6,1.6,0,0,0,.14.69,1.64,1.64,0,0,0,.48.56,6.41,6.41,0,0,0,2.1,1,8.7,8.7,0,0,0,2.51.35A7.56,7.56,0,0,0,46,18.66a4.24,4.24,0,0,0,1.88-1.4,3.5,3.5,0,0,0,.66-2.13,3.61,3.61,0,0,0-.67-2.19A3.46,3.46,0,0,0,46.05,11.69Zm9.51,7.48a4.69,4.69,0,0,0,4-1.87A8.93,8.93,0,0,0,61,11.89a8.92,8.92,0,0,0-1.4-5.39,5.25,5.25,0,0,0-8,0,8.92,8.92,0,0,0-1.39,5.39,8.93,8.93,0,0,0,1.39,5.41A4.68,4.68,0,0,0,55.56,19.17Zm0-2.79a1.45,1.45,0,0,1-1.39-1,10.06,10.06,0,0,1-.42-3.44,10,10,0,0,1,.42-3.43,1.45,1.45,0,0,1,2.78,0,10,10,0,0,1,.42,3.42A10.06,10.06,0,0,1,57,15.33,1.45,1.45,0,0,1,55.56,16.38ZM53.3,40.52h-4l2.86-2.92a9.4,9.4,0,0,0,1.68-2.26,5.07,5.07,0,0,0,.49-2.24A3.76,3.76,0,0,0,53.68,31a3.87,3.87,0,0,0-1.74-1.4,6.51,6.51,0,0,0-2.62-.5,7.89,7.89,0,0,0-2.32.36,8,8,0,0,0-2.12,1,1.43,1.43,0,0,0-.5.52,1.87,1.87,0,0,0-.13.73,1.72,1.72,0,0,0,.35,1.07,1,1,0,0,0,.84.46,1.21,1.21,0,0,0,.38-.06,2.17,2.17,0,0,0,.41-.2l.32-.17.4-.2a10.47,10.47,0,0,1,1.13-.49A3.4,3.4,0,0,1,49.16,32a1.6,1.6,0,0,1,1.12.36,1.36,1.36,0,0,1,.39,1,3.89,3.89,0,0,1-1.33,2.55l-4.26,4.45a2.19,2.19,0,0,0-.69,1.57A1.47,1.47,0,0,0,44.82,43a1.51,1.51,0,0,0,1.14.43H53.3a2,2,0,0,0,1.32-.36A1.36,1.36,0,0,0,55.05,42a1.32,1.32,0,0,0-.43-1.1A2,2,0,0,0,53.3,40.52ZM83.44,60.28a3.88,3.88,0,0,0-1.7.37,3.17,3.17,0,0,0-1.23,1A5.37,5.37,0,0,1,81.26,59a1.93,1.93,0,0,1,1.66-.93,2.68,2.68,0,0,1,.93.16,9.48,9.48,0,0,1,1.1.48l.44.22c.26.13.46.23.61.29a1.28,1.28,0,0,0,.5.09,1,1,0,0,0,.85-.43,1.6,1.6,0,0,0,.36-1.06,1.48,1.48,0,0,0-.15-.7,1.67,1.67,0,0,0-.5-.54,6.27,6.27,0,0,0-2-1,7.81,7.81,0,0,0-2.3-.36,5.48,5.48,0,0,0-3.13.9,5.92,5.92,0,0,0-2.07,2.59,9.74,9.74,0,0,0-.73,3.93,8,8,0,0,0,1.54,5.27,5.43,5.43,0,0,0,4.39,1.85,5.23,5.23,0,0,0,2.55-.62,4.53,4.53,0,0,0,1.76-1.74,5,5,0,0,0,.64-2.53,5,5,0,0,0-.56-2.38,4,4,0,0,0-3.69-2.24ZM82.52,67a1.6,1.6,0,0,1-1.25-.54A2,2,0,0,1,80.79,65a2,2,0,0,1,.47-1.38,1.63,1.63,0,0,1,1.26-.53,1.56,1.56,0,0,1,1.25.52A2,2,0,0,1,84.23,65a2.06,2.06,0,0,1-.46,1.39A1.59,1.59,0,0,1,82.52,67Zm2.32,19.81a3.23,3.23,0,0,0,1.6-1.22A3.34,3.34,0,0,0,87,83.61a3.51,3.51,0,0,0-.61-2,4,4,0,0,0-1.75-1.37A6.71,6.71,0,0,0,82,79.71a8.08,8.08,0,0,0-2.38.36,6.49,6.49,0,0,0-2,1A1.41,1.41,0,0,0,77,82.33a1.64,1.64,0,0,0,.35,1,1,1,0,0,0,.84.43,1.28,1.28,0,0,0,.5-.09,6,6,0,0,0,.61-.29l.42-.2a10.56,10.56,0,0,1,1.1-.48,3,3,0,0,1,1-.18,1.73,1.73,0,0,1,1.23.41,1.51,1.51,0,0,1,.44,1.16,1.12,1.12,0,0,1-.5,1,3,3,0,0,1-1.61.32h-.89a1.13,1.13,0,0,0-.94.43,1.52,1.52,0,0,0-.34,1,1.54,1.54,0,0,0,.34,1,1.15,1.15,0,0,0,.94.42h1.25a3,3,0,0,1,1.65.34,1.25,1.25,0,0,1,.5,1.13,1.38,1.38,0,0,1-.49,1.2,2.73,2.73,0,0,1-1.62.37,3.82,3.82,0,0,1-1.16-.17,9.35,9.35,0,0,1-1.15-.5l-.25-.11-.19-.09c-.26-.13-.46-.23-.61-.29a1.28,1.28,0,0,0-.5-.09,1,1,0,0,0-.84.43,1.65,1.65,0,0,0-.35,1.06,1.6,1.6,0,0,0,.14.69,1.56,1.56,0,0,0,.49.55,6.18,6.18,0,0,0,2.09,1,9.06,9.06,0,0,0,2.51.35,7.53,7.53,0,0,0,2.85-.49,4.19,4.19,0,0,0,1.88-1.4,3.5,3.5,0,0,0,.66-2.13A3.54,3.54,0,0,0,86.7,88,3.41,3.41,0,0,0,84.84,86.77ZM17.77,60.1a4.93,4.93,0,0,0-1.93.35v-2.4h4.21c1.13,0,1.7-.45,1.7-1.36s-.57-1.35-1.7-1.35H14a1.66,1.66,0,0,0-1.23.43A1.72,1.72,0,0,0,12.35,57V62.3a1.06,1.06,0,0,0,.37.85,1.3,1.3,0,0,0,.91.32,1.87,1.87,0,0,0,.88-.21,6.32,6.32,0,0,1,1.12-.35,5.06,5.06,0,0,1,1.07-.1,2.19,2.19,0,0,1,1.52.49,1.73,1.73,0,0,1,.54,1.36A1.69,1.69,0,0,1,18.24,66a2.51,2.51,0,0,1-1.62.44,3.14,3.14,0,0,1-1.08-.18,10.42,10.42,0,0,1-1.11-.47L14,65.64a6.07,6.07,0,0,0-.58-.29,1.17,1.17,0,0,0-.49-.08,1,1,0,0,0-.82.42,1.6,1.6,0,0,0-.33,1,1.38,1.38,0,0,0,.15.67,1.71,1.71,0,0,0,.45.54,6.55,6.55,0,0,0,2,1,8.34,8.34,0,0,0,2.37.35,6.3,6.3,0,0,0,2.79-.59A4.32,4.32,0,0,0,21.45,67a4.53,4.53,0,0,0,.67-2.47,4.7,4.7,0,0,0-.56-2.31A3.92,3.92,0,0,0,20,60.66,4.42,4.42,0,0,0,17.77,60.1Zm1.64,26.67A3.19,3.19,0,0,0,21,85.55a3.34,3.34,0,0,0,.58-1.94,3.52,3.52,0,0,0-.62-2,3.92,3.92,0,0,0-1.75-1.37,6.66,6.66,0,0,0-2.62-.48,8.15,8.15,0,0,0-2.39.36,6.71,6.71,0,0,0-2,1,1.49,1.49,0,0,0-.48.54,1.82,1.82,0,0,0,.2,1.76,1,1,0,0,0,.85.43,1.35,1.35,0,0,0,.5-.09,5.1,5.1,0,0,0,.6-.29l.43-.2a10.48,10.48,0,0,1,1.09-.48,3.06,3.06,0,0,1,1.06-.18,1.69,1.69,0,0,1,1.22.41,1.48,1.48,0,0,1,.45,1.16,1.11,1.11,0,0,1-.51,1,3,3,0,0,1-1.6.32h-.89a1.15,1.15,0,0,0-.95.43,1.57,1.57,0,0,0-.34,1,1.6,1.6,0,0,0,.34,1,1.17,1.17,0,0,0,.95.42h1.25a3,3,0,0,1,1.65.34,1.27,1.27,0,0,1,.5,1.13A1.41,1.41,0,0,1,18,91a2.73,2.73,0,0,1-1.62.37,3.77,3.77,0,0,1-1.16-.17,9.42,9.42,0,0,1-1.16-.5l-.25-.11-.19-.09c-.25-.13-.45-.23-.6-.29a1.35,1.35,0,0,0-.5-.09,1,1,0,0,0-.85.43,1.64,1.64,0,0,0-.34,1.06,1.6,1.6,0,0,0,.14.69,1.44,1.44,0,0,0,.48.55,6.27,6.27,0,0,0,2.09,1,9.18,9.18,0,0,0,2.52.35,7.51,7.51,0,0,0,2.84-.49,4.13,4.13,0,0,0,1.88-1.4A3.45,3.45,0,0,0,22,90.21,3.55,3.55,0,0,0,21.27,88,3.41,3.41,0,0,0,19.41,86.77ZM63.69,24h0a2.14,2.14,0,0,0-2.14-2.14H38.38A2.14,2.14,0,0,0,36.24,24h0a2.14,2.14,0,0,0,2.14,2.14H61.55A2.14,2.14,0,0,0,63.69,24Zm-33.1,50.5h0a2.14,2.14,0,0,0-2.15-2.14H5.28a2.14,2.14,0,0,0-2.15,2.14h0a2.15,2.15,0,0,0,2.15,2.15H28.44A2.15,2.15,0,0,0,30.59,74.49Zm66.42,0h0a2.14,2.14,0,0,0-2.14-2.14H71.7a2.14,2.14,0,0,0-2.14,2.14h0a2.14,2.14,0,0,0,2.14,2.15H94.87A2.14,2.14,0,0,0,97,74.49Zm-36.7-3.24H53.26v-7A3.25,3.25,0,0,0,50,60.9a3.25,3.25,0,0,0-3.3,3.3v7h-7a3.25,3.25,0,0,0-3.3,3.3,3.27,3.27,0,0,0,1,2.38,3.14,3.14,0,0,0,2.35,1h7v7A3.25,3.25,0,0,0,50,88.2a3.18,3.18,0,0,0,2.38-1,3.24,3.24,0,0,0,.92-2.35v-7h7.05a3.15,3.15,0,0,0,2.35-1,3.31,3.31,0,0,0,1-2.38,3.25,3.25,0,0,0-3.3-3.3Z"/></svg>