<svg id="Layer_1" data-name="Layer 1" xmlns="http://www.w3.org/2000/svg" viewBox="0 0 98.14 95.96"><title>l1_4_13</title><path d="M61.77,70.71a3.22,3.22,0,0,1,.95,2.35,3.31,3.31,0,0,1-.95,2.38,3.17,3.17,0,0,1-2.35,1H52.37v7a3.28,3.28,0,0,1-.92,2.35,3.32,3.32,0,0,1-5.68-2.35v-7H38.72a3.17,3.17,0,0,1-2.35-1,3.31,3.31,0,0,1-.95-2.38,3.25,3.25,0,0,1,3.3-3.3h7.05v-7a3.3,3.3,0,1,1,6.6,0v7h7.05A3.22,3.22,0,0,1,61.77,70.71Z"/><path d="M98.14,56V89.59A6.37,6.37,0,0,1,91.77,96h-20a6.37,6.37,0,0,1-6.37-6.37V55.76L59,46.34h-20L32.71,55.7V89.59A6.37,6.37,0,0,1,26.35,96h-20A6.37,6.37,0,0,1,0,89.59V56a6.37,6.37,0,0,1,6.37-6.36H25l7.73-11.39V6.37A6.37,6.37,0,0,1,39.08,0h20a6.37,6.37,0,0,1,6.36,6.37V38.29l7.69,11.33H91.77A6.37,6.37,0,0,1,98.14,56ZM55.91,31.2h-8l5.68-5.8a18.33,18.33,0,0,0,3.34-4.5,10,10,0,0,0,1-4.46,7.28,7.28,0,0,0-1.22-4.18,7.75,7.75,0,0,0-3.46-2.8,12.9,12.9,0,0,0-5.2-1,16.28,16.28,0,0,0-8.84,2.72,2.72,2.72,0,0,0-1,1,3.47,3.47,0,0,0-.26,1.44,3.46,3.46,0,0,0,.68,2.14,2.06,2.06,0,0,0,1.68.9A2.37,2.37,0,0,0,41,16.6a4.81,4.81,0,0,0,.82-.38l.62-.34.8-.4a20.12,20.12,0,0,1,2.26-1,6.45,6.45,0,0,1,2.14-.34,3.15,3.15,0,0,1,2.22.72A2.69,2.69,0,0,1,50.67,17q0,2.33-2.64,5.08l-8.48,8.84A4.4,4.4,0,0,0,38.19,34,3,3,0,0,0,39,36.18a3.05,3.05,0,0,0,2.28.86h14.6a4,4,0,0,0,2.62-.72,2.74,2.74,0,0,0,.86-2.24,2.63,2.63,0,0,0-.86-2.18A4.06,4.06,0,0,0,55.91,31.2ZM20.11,62h-.43V55a1.66,1.66,0,0,0-.52-1.31,1.86,1.86,0,0,0-1.27-.47,1.92,1.92,0,0,0-.87.21,1.71,1.71,0,0,0-.69.59l-5.58,8a2.15,2.15,0,0,0-.43,1.29,1.49,1.49,0,0,0,.41,1.07,1.44,1.44,0,0,0,1.11.43h4.35v.66a1.73,1.73,0,0,0,.48,1.33,1.77,1.77,0,0,0,1.26.45,1.81,1.81,0,0,0,1.27-.45,1.73,1.73,0,0,0,.48-1.33v-.66h.43c1.13,0,1.7-.46,1.7-1.38S21.24,62,20.11,62Zm-6.26,0,2.34-3.37V62Zm4.67,22.73a3.23,3.23,0,0,0,1.6-1.22,3.34,3.34,0,0,0,.57-1.94,3.49,3.49,0,0,0-.61-2,3.92,3.92,0,0,0-1.75-1.37,6.71,6.71,0,0,0-2.63-.48,8.13,8.13,0,0,0-2.38.36,6.71,6.71,0,0,0-2,1,1.38,1.38,0,0,0-.62,1.25,1.63,1.63,0,0,0,.34,1,1,1,0,0,0,.84.43,1.36,1.36,0,0,0,.51-.09c.14-.06.34-.15.6-.29l.42-.2a10.56,10.56,0,0,1,1.1-.48,3,3,0,0,1,1-.18,1.71,1.71,0,0,1,1.23.41,1.51,1.51,0,0,1,.44,1.16,1.13,1.13,0,0,1-.5,1,3,3,0,0,1-1.61.32H14.2a1.13,1.13,0,0,0-.95.43,1.52,1.52,0,0,0-.34,1,1.56,1.56,0,0,0,.34,1,1.15,1.15,0,0,0,.95.42h1.24a3,3,0,0,1,1.65.34,1.25,1.25,0,0,1,.5,1.13A1.38,1.38,0,0,1,17.1,89a2.73,2.73,0,0,1-1.62.37,3.71,3.71,0,0,1-1.15-.17,8.81,8.81,0,0,1-1.16-.5l-.25-.11-.19-.09c-.26-.13-.46-.23-.61-.29a1.28,1.28,0,0,0-.5-.09,1,1,0,0,0-.84.43,1.65,1.65,0,0,0-.35,1.06,1.47,1.47,0,0,0,.15.69,1.44,1.44,0,0,0,.48.55,6.27,6.27,0,0,0,2.09,1,9.06,9.06,0,0,0,2.51.35,7.53,7.53,0,0,0,2.85-.49,4.19,4.19,0,0,0,1.88-1.4,3.5,3.5,0,0,0,.66-2.13A3.54,3.54,0,0,0,20.38,86,3.41,3.41,0,0,0,18.52,84.75Zm10.8-12.61a2,2,0,0,0-1.86-1.75H5a2.18,2.18,0,0,0-2.35,2.25A2.15,2.15,0,0,0,5,74.25H27.46A2,2,0,0,0,29.32,72.14ZM81.08,77a2,2,0,0,0,1.28-.42A1.83,1.83,0,0,0,83,75.37,3.24,3.24,0,0,1,83.83,74a14.94,14.94,0,0,1,1.76-1.63c.82-.72,1.49-1.34,2-1.86a7.07,7.07,0,0,0,1.31-1.85,5.27,5.27,0,0,0,.54-2.38,5.12,5.12,0,0,0-1-3.13,6.77,6.77,0,0,0-2.8-2.17,9.9,9.9,0,0,0-4.06-.79,13.13,13.13,0,0,0-4,.65,12.34,12.34,0,0,0-3.59,1.8,3.09,3.09,0,0,0-.86.94,2.67,2.67,0,0,0-.26,1.23,2.82,2.82,0,0,0,.61,1.84,1.86,1.86,0,0,0,1.49.75,4.19,4.19,0,0,0,1.92-.67l.84-.42a13.81,13.81,0,0,1,1.77-.85,4.48,4.48,0,0,1,1.59-.3,2.37,2.37,0,0,1,1.54.45,1.5,1.5,0,0,1,.56,1.23,2.54,2.54,0,0,1-.4,1.4,11.16,11.16,0,0,1-1.21,1.5A11.92,11.92,0,0,0,79.78,72a5.48,5.48,0,0,0-.63,2.75,2.52,2.52,0,0,0,.51,1.68A1.75,1.75,0,0,0,81.08,77Zm.07,8.37a3.27,3.27,0,0,0,2.43-1,3.52,3.52,0,0,0,0-4.83,3.27,3.27,0,0,0-2.43-1,3.23,3.23,0,0,0-2.4,1,3.52,3.52,0,0,0,0,4.83A3.23,3.23,0,0,0,81.15,85.35Z"/></svg>