<svg id="Layer_1" data-name="Layer 1" xmlns="http://www.w3.org/2000/svg" viewBox="0 0 100 100"><title>l1_4_1</title><path d="M99.19,57.85V91.46a6.37,6.37,0,0,1-6.36,6.37h-20a6.37,6.37,0,0,1-6.37-6.37V57.63l-6.39-9.42h-20l-6.35,9.36V91.46a6.37,6.37,0,0,1-6.37,6.37h-20a6.37,6.37,0,0,1-6.37-6.37V57.85a6.37,6.37,0,0,1,6.37-6.36H26L33.77,40.1V8.23a6.37,6.37,0,0,1,6.37-6.36h20a6.37,6.37,0,0,1,6.37,6.36V40.16l7.69,11.33H92.83A6.36,6.36,0,0,1,99.19,57.85ZM47.39,15.9h-4L46.2,13a9.43,9.43,0,0,0,1.68-2.27,5,5,0,0,0,.49-2.24,3.67,3.67,0,0,0-.61-2.1A4,4,0,0,0,46,5a6.45,6.45,0,0,0-2.62-.49A8.11,8.11,0,0,0,39,5.85a1.26,1.26,0,0,0-.49.52,1.68,1.68,0,0,0-.14.72,1.73,1.73,0,0,0,.35,1.08,1,1,0,0,0,.84.45,1.16,1.16,0,0,0,.38-.06,2.42,2.42,0,0,0,.42-.19l.31-.17L41,8a8.29,8.29,0,0,1,1.14-.49,3,3,0,0,1,1.07-.17,1.6,1.6,0,0,1,1.12.36,1.35,1.35,0,0,1,.39,1,3.91,3.91,0,0,1-1.33,2.56l-4.26,4.44a2.18,2.18,0,0,0-.68,1.57,1.52,1.52,0,0,0,.42,1.1,1.51,1.51,0,0,0,1.14.43h7.35a2,2,0,0,0,1.31-.36,1.39,1.39,0,0,0,.43-1.13,1.31,1.31,0,0,0-.43-1.09A2,2,0,0,0,47.39,15.9ZM59.8,4.66H51.91A2,2,0,0,0,50.58,5a1.42,1.42,0,0,0-.42,1.12,1.37,1.37,0,0,0,.41,1.08,2,2,0,0,0,1.34.37h5l-5.17,8.83a1.86,1.86,0,0,0-.28,1A1.49,1.49,0,0,0,52,18.55a1.87,1.87,0,0,0,1.25.47,1.75,1.75,0,0,0,.85-.23,1.84,1.84,0,0,0,.7-.71L60.92,7.52a2.54,2.54,0,0,0,.38-1.33,1.59,1.59,0,0,0-.39-1.1A1.41,1.41,0,0,0,59.8,4.66Zm-6.33,35.7h-4l2.86-2.91A9.6,9.6,0,0,0,54,35.19a5.08,5.08,0,0,0,.49-2.25,3.67,3.67,0,0,0-.61-2.1,4,4,0,0,0-1.74-1.41,6.43,6.43,0,0,0-2.61-.49,8,8,0,0,0-2.33.36,7.83,7.83,0,0,0-2.12,1,1.26,1.26,0,0,0-.49.52,1.95,1.95,0,0,0,.21,1.8,1,1,0,0,0,.84.45A1.27,1.27,0,0,0,46,33a2.37,2.37,0,0,0,.41-.19l.31-.17.4-.2A9.75,9.75,0,0,1,48.25,32a3.08,3.08,0,0,1,1.07-.17,1.59,1.59,0,0,1,1.12.36,1.35,1.35,0,0,1,.39,1,3.94,3.94,0,0,1-1.32,2.56L45.24,40.2a2.24,2.24,0,0,0-.68,1.57,1.46,1.46,0,0,0,1.57,1.53h7.34a2,2,0,0,0,1.32-.36,1.42,1.42,0,0,0,.43-1.13,1.34,1.34,0,0,0-.43-1.09A2,2,0,0,0,53.47,40.36ZM85,62.16a3.24,3.24,0,0,0,1.6-1.22A3.29,3.29,0,0,0,87.13,59a3.5,3.5,0,0,0-.62-2,3.92,3.92,0,0,0-1.75-1.37,6.66,6.66,0,0,0-2.62-.48,8,8,0,0,0-2.38.36,6.87,6.87,0,0,0-2.05,1,1.84,1.84,0,0,0-.48.55,1.62,1.62,0,0,0-.14.7,1.64,1.64,0,0,0,.34,1.06,1,1,0,0,0,.85.43,1.31,1.31,0,0,0,.5-.09c.15-.06.35-.16.6-.29l.43-.2a10.72,10.72,0,0,1,1.09-.49A3.06,3.06,0,0,1,82,58a1.69,1.69,0,0,1,1.22.42,1.48,1.48,0,0,1,.45,1.15,1.14,1.14,0,0,1-.51,1,3.1,3.1,0,0,1-1.6.32h-.89a1.17,1.17,0,0,0-.95.42,1.6,1.6,0,0,0-.34,1,1.57,1.57,0,0,0,.34,1,1.17,1.17,0,0,0,.95.43h1.25a3,3,0,0,1,1.65.34,1.27,1.27,0,0,1,.5,1.12,1.39,1.39,0,0,1-.49,1.21,2.81,2.81,0,0,1-1.62.36,3.49,3.49,0,0,1-1.16-.17,9.22,9.22,0,0,1-1.16-.49L79.35,66l-.19-.09a5.1,5.1,0,0,0-.6-.29,1.35,1.35,0,0,0-.5-.09,1,1,0,0,0-.85.43,1.63,1.63,0,0,0-.34,1,1.68,1.68,0,0,0,.14.7,1.51,1.51,0,0,0,.48.55,6.68,6.68,0,0,0,2.09,1,9.18,9.18,0,0,0,2.52.35,7.71,7.71,0,0,0,2.84-.49,4.29,4.29,0,0,0,1.89-1.4,3.55,3.55,0,0,0,.66-2.13,3.66,3.66,0,0,0-.67-2.2A3.38,3.38,0,0,0,85,62.16ZM86.18,91h-4L85,88.07a9.62,9.62,0,0,0,1.68-2.27,5,5,0,0,0,.5-2.24,3.68,3.68,0,0,0-.62-2.1,4,4,0,0,0-1.74-1.41,6.43,6.43,0,0,0-2.61-.49,8,8,0,0,0-2.33.36,7.83,7.83,0,0,0-2.12,1,1.33,1.33,0,0,0-.49.52,1.69,1.69,0,0,0-.13.72,1.72,1.72,0,0,0,.34,1.08,1,1,0,0,0,.85.45,1.21,1.21,0,0,0,.38-.06,2.07,2.07,0,0,0,.41-.19l.31-.17.4-.2A8.29,8.29,0,0,1,81,82.59,3.14,3.14,0,0,1,82,82.41a1.54,1.54,0,0,1,1.11.37,1.36,1.36,0,0,1,.4,1,4,4,0,0,1-1.33,2.56L78,90.82a2.22,2.22,0,0,0-.68,1.57,1.52,1.52,0,0,0,.42,1.1,1.57,1.57,0,0,0,1.15.43h7.34a2,2,0,0,0,1.32-.36,1.39,1.39,0,0,0,.43-1.13,1.33,1.33,0,0,0-.43-1.1A2.1,2.1,0,0,0,86.18,91ZM16.49,55a5,5,0,0,0-2.48.61A4.38,4.38,0,0,0,12.3,57.3a5,5,0,0,0-.61,2.45,4.86,4.86,0,0,0,.54,2.31,4,4,0,0,0,1.47,1.6,3.89,3.89,0,0,0,2.11.58,3.75,3.75,0,0,0,1.64-.36,3.08,3.08,0,0,0,1.2-1,5.14,5.14,0,0,1-.73,2.55,1.86,1.86,0,0,1-1.61.9,2.64,2.64,0,0,1-.89-.15c-.29-.11-.65-.26-1.08-.47l-.43-.21c-.24-.13-.44-.23-.58-.29a1.26,1.26,0,0,0-.49-.08,1,1,0,0,0-.83.41,1.64,1.64,0,0,0-.34,1,1.4,1.4,0,0,0,.15.68,1.66,1.66,0,0,0,.48.53,6.2,6.2,0,0,0,2,1,7.35,7.35,0,0,0,2.23.35,5.29,5.29,0,0,0,3-.87,5.63,5.63,0,0,0,2-2.51,9.39,9.39,0,0,0,.71-3.81,7.75,7.75,0,0,0-1.5-5.11A5.23,5.23,0,0,0,16.49,55Zm.21,6.46a1.56,1.56,0,0,1-1.22-.5,2.31,2.31,0,0,1,0-2.7,1.54,1.54,0,0,1,1.21-.51,1.56,1.56,0,0,1,1.21.52,2.16,2.16,0,0,1,0,2.68A1.55,1.55,0,0,1,16.7,61.47ZM20.76,91H16.71l2.86-2.91a9.62,9.62,0,0,0,1.68-2.27,5,5,0,0,0,.49-2.24,3.67,3.67,0,0,0-.61-2.1,4,4,0,0,0-1.74-1.41,6.48,6.48,0,0,0-2.62-.49,8.11,8.11,0,0,0-4.44,1.37,1.36,1.36,0,0,0-.5.52,1.85,1.85,0,0,0-.13.72,1.73,1.73,0,0,0,.35,1.08,1,1,0,0,0,.84.45,1.21,1.21,0,0,0,.38-.06,2.07,2.07,0,0,0,.41-.19l.32-.17.4-.2a8.29,8.29,0,0,1,1.14-.49,3,3,0,0,1,1.07-.18,1.56,1.56,0,0,1,1.12.37,1.35,1.35,0,0,1,.39,1,3.91,3.91,0,0,1-1.33,2.56l-4.26,4.44a2.19,2.19,0,0,0-.69,1.57,1.48,1.48,0,0,0,1.57,1.53h7.35a2,2,0,0,0,1.31-.36,1.39,1.39,0,0,0,.43-1.13,1.33,1.33,0,0,0-.43-1.1A2.09,2.09,0,0,0,20.76,91ZM63.85,23.84h0a2.14,2.14,0,0,0-2.14-2.15H38.54a2.14,2.14,0,0,0-2.14,2.15h0A2.14,2.14,0,0,0,38.54,26H61.71A2.14,2.14,0,0,0,63.85,23.84Zm-33.1,50.5h0a2.14,2.14,0,0,0-2.14-2.14H5.44A2.14,2.14,0,0,0,3.3,74.34h0a2.14,2.14,0,0,0,2.14,2.14H28.61A2.14,2.14,0,0,0,30.75,74.34Zm66.42,0h0A2.14,2.14,0,0,0,95,72.2H71.86a2.14,2.14,0,0,0-2.14,2.14h0a2.14,2.14,0,0,0,2.14,2.14H95A2.14,2.14,0,0,0,97.17,74.34ZM60.47,71.1h-7v-7a3.32,3.32,0,0,0-5.65-2.35,3.18,3.18,0,0,0-1,2.35v7h-7a3.25,3.25,0,0,0-3.3,3.3,3.32,3.32,0,0,0,1,2.38,3.16,3.16,0,0,0,2.35,1h7v7a3.34,3.34,0,0,0,5.68,2.34,3.24,3.24,0,0,0,.92-2.34v-7h7a3.13,3.13,0,0,0,2.35-1,3.28,3.28,0,0,0,1-2.38,3.25,3.25,0,0,0-3.3-3.3Z"/></svg>