<svg id="Layer_1" data-name="Layer 1" xmlns="http://www.w3.org/2000/svg" viewBox="0 0 100 100"><title>l1_4_1</title><path d="M99.07,58v33.6A6.37,6.37,0,0,1,92.7,98h-20a6.37,6.37,0,0,1-6.36-6.37V57.78L60,48.36H40l-6.36,9.36V91.61A6.37,6.37,0,0,1,27.28,98H7.3A6.37,6.37,0,0,1,.93,91.61V58A6.37,6.37,0,0,1,7.3,51.64H25.91l7.73-11.39V8.39A6.37,6.37,0,0,1,40,2H60a6.37,6.37,0,0,1,6.37,6.37V40.31L74,51.64H92.7A6.37,6.37,0,0,1,99.07,58ZM47.79,16.06H46.14V6.52a1.72,1.72,0,0,0-.49-1.3,1.75,1.75,0,0,0-1.3-.49,3.38,3.38,0,0,0-1.67.51L39.47,7.11a1.36,1.36,0,0,0-.71,1.24,1.73,1.73,0,0,0,.4,1.1,1.21,1.21,0,0,0,1,.49,1.38,1.38,0,0,0,.7-.2l1.61-.94v7.26H40.81a2,2,0,0,0-1.32.36,1.32,1.32,0,0,0-.43,1.08c0,1,.59,1.49,1.75,1.49h7c1.17,0,1.75-.49,1.75-1.49a1.34,1.34,0,0,0-.42-1.08A2,2,0,0,0,47.79,16.06Zm12.13-2.28h-.44V6.52a1.74,1.74,0,0,0-.54-1.35,1.93,1.93,0,0,0-1.31-.48,2,2,0,0,0-.9.21,1.84,1.84,0,0,0-.71.62l-5.75,8.2a2.24,2.24,0,0,0-.45,1.33,1.53,1.53,0,0,0,.43,1.11,1.51,1.51,0,0,0,1.14.44h4.49v.68a1.78,1.78,0,0,0,.49,1.37,1.81,1.81,0,0,0,1.3.46A1.87,1.87,0,0,0,59,18.65a1.78,1.78,0,0,0,.5-1.37V16.6h.44c1.17,0,1.75-.48,1.75-1.43S61.09,13.78,59.92,13.78Zm-6.46,0,2.42-3.48v3.48Zm-.12,26.74h-4l2.85-2.92a9.14,9.14,0,0,0,1.68-2.26,5.08,5.08,0,0,0,.5-2.24A3.69,3.69,0,0,0,53.71,31,3.87,3.87,0,0,0,52,29.59a6.43,6.43,0,0,0-2.61-.5,7.54,7.54,0,0,0-2.32.37,7.73,7.73,0,0,0-2.13,1,1.4,1.4,0,0,0-.49.52,1.95,1.95,0,0,0,.21,1.8,1,1,0,0,0,.85.46,1.21,1.21,0,0,0,.38-.06,2.17,2.17,0,0,0,.41-.2l.31-.17.41-.2a9,9,0,0,1,1.13-.49A3.4,3.4,0,0,1,49.2,32a1.58,1.58,0,0,1,1.11.36,1.33,1.33,0,0,1,.4,1,3.94,3.94,0,0,1-1.33,2.55l-4.27,4.45a2.22,2.22,0,0,0-.68,1.57A1.5,1.5,0,0,0,44.85,43a1.53,1.53,0,0,0,1.15.43h7.34a2,2,0,0,0,1.32-.36A1.36,1.36,0,0,0,55.09,42a1.32,1.32,0,0,0-.43-1.1A2,2,0,0,0,53.34,40.52ZM86,66.67H82l2.86-2.91a9.43,9.43,0,0,0,1.68-2.27A5,5,0,0,0,87,59.25a3.67,3.67,0,0,0-.61-2.1,4,4,0,0,0-1.74-1.41A6.45,6.45,0,0,0,82,55.25a8.11,8.11,0,0,0-4.44,1.37,1.36,1.36,0,0,0-.5.52,1.85,1.85,0,0,0-.13.72,1.73,1.73,0,0,0,.35,1.08,1,1,0,0,0,.84.45,1.16,1.16,0,0,0,.38-.06,2.42,2.42,0,0,0,.42-.19l.31-.17.4-.2a9.75,9.75,0,0,1,1.14-.49,3,3,0,0,1,1.07-.17,1.6,1.6,0,0,1,1.12.36,1.35,1.35,0,0,1,.39,1A3.91,3.91,0,0,1,82,62.07l-4.26,4.44a2.2,2.2,0,0,0-.68,1.57,1.52,1.52,0,0,0,.42,1.1,1.51,1.51,0,0,0,1.14.43H86a2,2,0,0,0,1.31-.36,1.39,1.39,0,0,0,.43-1.13A1.31,1.31,0,0,0,87.32,67,2,2,0,0,0,86,66.67Zm0,24.47H82l2.86-2.92A9.6,9.6,0,0,0,86.55,86,5.22,5.22,0,0,0,87,83.71a3.75,3.75,0,0,0-.61-2.1,4,4,0,0,0-1.74-1.41,6.51,6.51,0,0,0-2.62-.49,7.89,7.89,0,0,0-2.32.36,7.69,7.69,0,0,0-2.12,1,1.29,1.29,0,0,0-.5.52,1.87,1.87,0,0,0-.13.73,1.77,1.77,0,0,0,.34,1.07,1,1,0,0,0,.85.45,1.21,1.21,0,0,0,.38-.06A2.07,2.07,0,0,0,79,83.6l.31-.17.41-.2a9.68,9.68,0,0,1,1.13-.49,3.14,3.14,0,0,1,1.08-.17,1.62,1.62,0,0,1,1.12.36,1.35,1.35,0,0,1,.39,1,3.91,3.91,0,0,1-1.33,2.56L77.83,91a2.21,2.21,0,0,0-.69,1.57,1.48,1.48,0,0,0,.43,1.1,1.51,1.51,0,0,0,1.14.43h7.34a2,2,0,0,0,1.32-.36,1.39,1.39,0,0,0,.43-1.13,1.31,1.31,0,0,0-.43-1.09A2,2,0,0,0,86.05,91.14ZM20.79,55.34H13.14a1.9,1.9,0,0,0-1.28.36,1.62,1.62,0,0,0,0,2.14,2,2,0,0,0,1.29.35H18l-5,8.56a1.85,1.85,0,0,0-.27.94,1.43,1.43,0,0,0,.52,1.12,1.83,1.83,0,0,0,1.21.46A1.68,1.68,0,0,0,15.3,69a1.78,1.78,0,0,0,.67-.69l5.91-10.24a2.49,2.49,0,0,0,.37-1.29,1.48,1.48,0,0,0-.38-1.06A1.37,1.37,0,0,0,20.79,55.34Zm-.16,35.8h-4l2.85-2.92A9.6,9.6,0,0,0,21.12,86a5.08,5.08,0,0,0,.49-2.25,3.67,3.67,0,0,0-.61-2.1,4,4,0,0,0-1.74-1.41,6.43,6.43,0,0,0-2.61-.49,8,8,0,0,0-2.33.36,7.83,7.83,0,0,0-2.12,1,1.26,1.26,0,0,0-.49.52,1.95,1.95,0,0,0,.21,1.8,1,1,0,0,0,.84.45,1.23,1.23,0,0,0,.39-.06,2.37,2.37,0,0,0,.41-.19l.31-.17.4-.2a9.75,9.75,0,0,1,1.14-.49,3.14,3.14,0,0,1,1.08-.17,1.58,1.58,0,0,1,1.11.36A1.35,1.35,0,0,1,18,84a3.94,3.94,0,0,1-1.32,2.56L12.4,91a2.24,2.24,0,0,0-.68,1.57,1.46,1.46,0,0,0,1.57,1.53h7.34A2,2,0,0,0,22,93.71a1.42,1.42,0,0,0,.43-1.13A1.34,1.34,0,0,0,22,91.49,2,2,0,0,0,20.63,91.14ZM63.73,24h0a2.14,2.14,0,0,0-2.15-2.14H38.42A2.14,2.14,0,0,0,36.27,24h0a2.14,2.14,0,0,0,2.15,2.14H61.58A2.14,2.14,0,0,0,63.73,24ZM30.62,74.49h0a2.14,2.14,0,0,0-2.14-2.14H5.31a2.14,2.14,0,0,0-2.14,2.14h0a2.14,2.14,0,0,0,2.14,2.15H28.48A2.14,2.14,0,0,0,30.62,74.49Zm66.43,0h0a2.14,2.14,0,0,0-2.15-2.14H71.74a2.14,2.14,0,0,0-2.14,2.14h0a2.14,2.14,0,0,0,2.14,2.15H94.9A2.15,2.15,0,0,0,97.05,74.49Zm-36.7-3.24H53.3v-7a3.3,3.3,0,1,0-6.6,0v7H39.65a3.26,3.26,0,0,0-3.3,3.3,3.27,3.27,0,0,0,1,2.38,3.13,3.13,0,0,0,2.34,1H46.7v7a3.34,3.34,0,0,0,5.68,2.35,3.28,3.28,0,0,0,.92-2.35v-7h7.05a3.17,3.17,0,0,0,2.35-1,3.31,3.31,0,0,0,.95-2.38,3.25,3.25,0,0,0-3.3-3.3Z"/></svg>