<svg id="Layer_1" data-name="Layer 1" xmlns="http://www.w3.org/2000/svg" viewBox="0 0 100 100"><title>l1_4_1</title><path d="M99.35,58.16V91.77A6.37,6.37,0,0,1,93,98.13H73a6.37,6.37,0,0,1-6.37-6.36V57.94l-6.39-9.43h-20l-6.35,9.36v33.9a6.36,6.36,0,0,1-6.36,6.36h-20a6.37,6.37,0,0,1-6.37-6.36V58.16a6.37,6.37,0,0,1,6.37-6.37H26.19L33.92,40.4V8.54a6.37,6.37,0,0,1,6.37-6.37h20a6.37,6.37,0,0,1,6.36,6.37V40.47l7.69,11.32H93A6.37,6.37,0,0,1,99.35,58.16ZM47.54,16.21h-4l2.86-2.92A9.4,9.4,0,0,0,48,11a5,5,0,0,0,.49-2.24,3.67,3.67,0,0,0-.61-2.1,4,4,0,0,0-1.74-1.41,6.43,6.43,0,0,0-2.61-.5,8,8,0,0,0-2.33.37,7.81,7.81,0,0,0-2.12,1,1.28,1.28,0,0,0-.49.53,1.63,1.63,0,0,0-.13.72,1.74,1.74,0,0,0,.34,1.08,1,1,0,0,0,.84.45,1.27,1.27,0,0,0,.39-.06,3.47,3.47,0,0,0,.41-.19l.31-.17.4-.21a11.82,11.82,0,0,1,1.14-.49,3.33,3.33,0,0,1,1.07-.17A1.59,1.59,0,0,1,44.51,8a1.36,1.36,0,0,1,.39,1.05,3.9,3.9,0,0,1-1.32,2.55l-4.27,4.45a2.22,2.22,0,0,0-.68,1.57,1.5,1.5,0,0,0,.42,1.09,1.52,1.52,0,0,0,1.15.44h7.34a2,2,0,0,0,1.32-.37,1.4,1.4,0,0,0,.43-1.12,1.37,1.37,0,0,0-.43-1.1A2.1,2.1,0,0,0,47.54,16.21Zm8.34,3.12a4.73,4.73,0,0,0,4-1.87,9,9,0,0,0,1.38-5.41A8.88,8.88,0,0,0,59.9,6.66a5.24,5.24,0,0,0-8,0,9,9,0,0,0-1.39,5.39,9,9,0,0,0,1.39,5.41A4.73,4.73,0,0,0,55.88,19.33Zm0-2.8a1.43,1.43,0,0,1-1.38-1.05,9.7,9.7,0,0,1-.43-3.43,9.66,9.66,0,0,1,.43-3.43,1.44,1.44,0,0,1,2.77,0,9.93,9.93,0,0,1,.42,3.42,10,10,0,0,1-.42,3.43A1.44,1.44,0,0,1,55.88,16.53ZM53.62,40.67h-4l2.85-2.92a9.4,9.4,0,0,0,1.68-2.26,5,5,0,0,0,.5-2.24,3.68,3.68,0,0,0-.62-2.1,4,4,0,0,0-1.74-1.41,6.43,6.43,0,0,0-2.61-.49,8,8,0,0,0-2.33.36,7.81,7.81,0,0,0-2.12,1,1.35,1.35,0,0,0-.49.53,1.66,1.66,0,0,0-.13.72,1.74,1.74,0,0,0,.34,1.08,1,1,0,0,0,.85.45,1.21,1.21,0,0,0,.38-.06,2.86,2.86,0,0,0,.41-.19l.31-.17.4-.2a10,10,0,0,1,1.14-.5,3.4,3.4,0,0,1,1.08-.17,1.58,1.58,0,0,1,1.11.36,1.38,1.38,0,0,1,.4,1,3.92,3.92,0,0,1-1.33,2.55l-4.27,4.45a2.22,2.22,0,0,0-.68,1.57,1.49,1.49,0,0,0,.42,1.09,1.54,1.54,0,0,0,1.15.44h7.34a2,2,0,0,0,1.32-.37,1.36,1.36,0,0,0,.43-1.12,1.33,1.33,0,0,0-.43-1.1A2.1,2.1,0,0,0,53.62,40.67ZM86.88,64.55h-.45V57.29A1.7,1.7,0,0,0,85.89,56a1.87,1.87,0,0,0-1.31-.49,2,2,0,0,0-.89.21,1.87,1.87,0,0,0-.72.62l-5.75,8.2a2.3,2.3,0,0,0-.44,1.33,1.57,1.57,0,0,0,.42,1.11,1.54,1.54,0,0,0,1.15.44h4.48v.68a1.78,1.78,0,0,0,.5,1.37,1.8,1.8,0,0,0,1.29.46,1.84,1.84,0,0,0,1.31-.46,1.75,1.75,0,0,0,.5-1.37v-.68h.45c1.16,0,1.75-.48,1.75-1.43S88,64.55,86.88,64.55Zm-6.46,0,2.41-3.48v3.48Zm5.91,26.74h-4l2.85-2.92a8.89,8.89,0,0,0,1.68-2.26,5.08,5.08,0,0,0,.5-2.24,3.69,3.69,0,0,0-.62-2.11A3.87,3.87,0,0,0,85,80.36a6.43,6.43,0,0,0-2.61-.5,7.54,7.54,0,0,0-2.32.37,7.73,7.73,0,0,0-2.13,1,1.4,1.4,0,0,0-.49.52,1.95,1.95,0,0,0,.21,1.8,1,1,0,0,0,.85.46,1.21,1.21,0,0,0,.38-.06,2.86,2.86,0,0,0,.41-.19l.31-.18.41-.2a9.68,9.68,0,0,1,1.13-.49,3.4,3.4,0,0,1,1.08-.17,1.58,1.58,0,0,1,1.11.36,1.33,1.33,0,0,1,.4,1,3.92,3.92,0,0,1-1.33,2.55l-4.26,4.45a2.19,2.19,0,0,0-.69,1.57,1.5,1.5,0,0,0,.42,1.09,1.53,1.53,0,0,0,1.15.43h7.34a2,2,0,0,0,1.32-.36,1.36,1.36,0,0,0,.43-1.12,1.32,1.32,0,0,0-.43-1.1A2.1,2.1,0,0,0,86.33,91.29Zm-68.25-31a5,5,0,0,0-1.93.35V58.2h4.22c1.13,0,1.69-.45,1.69-1.36s-.56-1.35-1.69-1.35H14.32a1.7,1.7,0,0,0-1.23.43,1.68,1.68,0,0,0-.43,1.25v5.29a1,1,0,0,0,.37.84,1.33,1.33,0,0,0,.92.33,1.82,1.82,0,0,0,.88-.22A7.28,7.28,0,0,1,16,63.06,5.7,5.7,0,0,1,17,63a2.22,2.22,0,0,1,1.52.49,1.73,1.73,0,0,1,.55,1.37,1.69,1.69,0,0,1-.53,1.37,2.51,2.51,0,0,1-1.62.44,3.14,3.14,0,0,1-1.08-.18,10.1,10.1,0,0,1-1.1-.46l-.39-.2a6,6,0,0,0-.59-.29,1.34,1.34,0,0,0-.48-.08,1,1,0,0,0-.82.42,1.6,1.6,0,0,0-.33,1,1.45,1.45,0,0,0,.14.68,1.72,1.72,0,0,0,.46.53,6.55,6.55,0,0,0,2,1,8.24,8.24,0,0,0,2.37.35,6.36,6.36,0,0,0,2.79-.59,4.42,4.42,0,0,0,1.87-1.65,4.64,4.64,0,0,0,.66-2.48,4.7,4.7,0,0,0-.55-2.31,4,4,0,0,0-1.54-1.56A4.54,4.54,0,0,0,18.08,60.25Zm2.83,31H16.86l2.86-2.92a9.4,9.4,0,0,0,1.68-2.26,5.07,5.07,0,0,0,.49-2.24,3.68,3.68,0,0,0-.61-2.11,3.87,3.87,0,0,0-1.74-1.4,6.44,6.44,0,0,0-2.62-.5,7.64,7.64,0,0,0-2.32.37,7.81,7.81,0,0,0-2.12,1,1.32,1.32,0,0,0-.49.52,1.95,1.95,0,0,0,.21,1.8A1,1,0,0,0,13,84a1.16,1.16,0,0,0,.38-.06,2.93,2.93,0,0,0,.42-.19l.31-.18.4-.2a9.75,9.75,0,0,1,1.14-.49,3.33,3.33,0,0,1,1.07-.17,1.59,1.59,0,0,1,1.12.36,1.36,1.36,0,0,1,.39,1,3.87,3.87,0,0,1-1.33,2.55l-4.26,4.45A2.18,2.18,0,0,0,12,92.7a1.46,1.46,0,0,0,1.57,1.52h7.34a2,2,0,0,0,1.31-.36,1.37,1.37,0,0,0,.44-1.12,1.33,1.33,0,0,0-.44-1.1A2.05,2.05,0,0,0,20.91,91.29ZM64,24.14h0A2.14,2.14,0,0,0,61.86,22H38.7a2.14,2.14,0,0,0-2.15,2.14h0a2.14,2.14,0,0,0,2.15,2.14H61.86A2.14,2.14,0,0,0,64,24.14ZM30.9,74.65h0a2.14,2.14,0,0,0-2.14-2.15H5.59a2.14,2.14,0,0,0-2.14,2.15h0a2.14,2.14,0,0,0,2.14,2.14H28.76A2.14,2.14,0,0,0,30.9,74.65Zm66.43,0h0a2.15,2.15,0,0,0-2.15-2.15H72a2.15,2.15,0,0,0-2.15,2.15h0A2.14,2.14,0,0,0,72,76.79H95.18A2.14,2.14,0,0,0,97.33,74.65ZM60.63,71.4H53.58v-7a3.3,3.3,0,1,0-6.6,0v7h-7a3.25,3.25,0,0,0-3.3,3.3,3.29,3.29,0,0,0,.95,2.38,3.17,3.17,0,0,0,2.35,1h7v7a3.34,3.34,0,0,0,5.68,2.35,3.26,3.26,0,0,0,.92-2.35v-7h7.05a3.17,3.17,0,0,0,2.35-1,3.29,3.29,0,0,0,1-2.38,3.25,3.25,0,0,0-3.3-3.3Z"/></svg>