<svg id="Layer_1" data-name="Layer 1" xmlns="http://www.w3.org/2000/svg" viewBox="0 0 98.14 95.96"><title>l1_4_13</title><path d="M61.76,70.71a3.18,3.18,0,0,1,1,2.35,3.27,3.27,0,0,1-1,2.38,3.14,3.14,0,0,1-2.35,1h-7v7a3.24,3.24,0,0,1-.93,2.35,3.16,3.16,0,0,1-2.37.95,3.25,3.25,0,0,1-3.3-3.3v-7H38.72a3.17,3.17,0,0,1-2.35-1,3.31,3.31,0,0,1-.95-2.38,3.25,3.25,0,0,1,3.3-3.3h7.05v-7a3.32,3.32,0,0,1,5.65-2.35,3.19,3.19,0,0,1,.95,2.35v7h7A3.19,3.19,0,0,1,61.76,70.71Z"/><path d="M98.14,56V89.59A6.37,6.37,0,0,1,91.77,96h-20a6.37,6.37,0,0,1-6.37-6.37V55.76L59,46.34h-20L32.71,55.7V89.59A6.37,6.37,0,0,1,26.34,96h-20A6.37,6.37,0,0,1,0,89.59V56a6.37,6.37,0,0,1,6.37-6.36H25l7.73-11.39V6.37A6.37,6.37,0,0,1,39.08,0h20a6.37,6.37,0,0,1,6.36,6.37V38.29l7.69,11.33H91.77A6.37,6.37,0,0,1,98.14,56ZM55.91,31.2h-8l5.68-5.8a18.33,18.33,0,0,0,3.34-4.5,10,10,0,0,0,1-4.46,7.28,7.28,0,0,0-1.22-4.18,7.75,7.75,0,0,0-3.46-2.8,12.9,12.9,0,0,0-5.2-1,16.28,16.28,0,0,0-8.84,2.72,2.72,2.72,0,0,0-1,1,3.47,3.47,0,0,0-.26,1.44,3.46,3.46,0,0,0,.68,2.14,2.06,2.06,0,0,0,1.68.9A2.37,2.37,0,0,0,41,16.6a4.81,4.81,0,0,0,.82-.38l.62-.34.8-.4a20.12,20.12,0,0,1,2.26-1,6.45,6.45,0,0,1,2.14-.34,3.15,3.15,0,0,1,2.22.72A2.69,2.69,0,0,1,50.67,17q0,2.33-2.64,5.08l-8.48,8.84A4.4,4.4,0,0,0,38.19,34,3,3,0,0,0,39,36.18a3.05,3.05,0,0,0,2.28.86h14.6a4,4,0,0,0,2.62-.72,2.74,2.74,0,0,0,.86-2.24,2.63,2.63,0,0,0-.86-2.18A4.06,4.06,0,0,0,55.91,31.2Zm-36.37,33H15.61l2.77-2.82A9.13,9.13,0,0,0,20,59.2,4.9,4.9,0,0,0,20.49,57a3.62,3.62,0,0,0-.59-2,3.85,3.85,0,0,0-1.69-1.37,6.26,6.26,0,0,0-2.54-.48,7.44,7.44,0,0,0-2.25.36,7.66,7.66,0,0,0-2.06,1,1.31,1.31,0,0,0-.47.51,1.56,1.56,0,0,0-.13.7,1.68,1.68,0,0,0,.33,1,1,1,0,0,0,.82.44,1.15,1.15,0,0,0,.37-.06,1.92,1.92,0,0,0,.4-.18l.3-.17.39-.19a9.24,9.24,0,0,1,1.1-.48,3.21,3.21,0,0,1,1-.17,1.5,1.5,0,0,1,1.08.36,1.31,1.31,0,0,1,.38,1,3.81,3.81,0,0,1-1.29,2.48l-4.13,4.31a2.13,2.13,0,0,0-.66,1.52,1.46,1.46,0,0,0,.4,1.06,1.51,1.51,0,0,0,1.12.42h7.12a2,2,0,0,0,1.27-.35,1.34,1.34,0,0,0,.42-1.09,1.31,1.31,0,0,0-.42-1.07A2,2,0,0,0,19.54,64.22Zm.16,24.89h-4l2.86-2.91a9.6,9.6,0,0,0,1.68-2.26,5.08,5.08,0,0,0,.49-2.25,3.67,3.67,0,0,0-.61-2.1,4,4,0,0,0-1.74-1.41,6.45,6.45,0,0,0-2.62-.49,8.11,8.11,0,0,0-4.44,1.37,1.26,1.26,0,0,0-.49.52,1.69,1.69,0,0,0-.14.73A1.72,1.72,0,0,0,11,81.38a1,1,0,0,0,.84.45,1.16,1.16,0,0,0,.38-.06,2.42,2.42,0,0,0,.42-.19l.31-.17.4-.2a9.75,9.75,0,0,1,1.14-.49,3,3,0,0,1,1.07-.17,1.6,1.6,0,0,1,1.12.36,1.35,1.35,0,0,1,.39,1,3.91,3.91,0,0,1-1.33,2.56L11.47,89a2.2,2.2,0,0,0-.68,1.57,1.46,1.46,0,0,0,1.56,1.53H19.7A2,2,0,0,0,21,91.69a1.39,1.39,0,0,0,.43-1.13A1.31,1.31,0,0,0,21,89.47,2,2,0,0,0,19.7,89.11Zm9.62-17a2,2,0,0,0-1.86-1.75H5a2.18,2.18,0,0,0-2.35,2.25A2.15,2.15,0,0,0,5,74.25H27.46A2,2,0,0,0,29.32,72.14ZM81.08,77a2,2,0,0,0,1.28-.42A1.88,1.88,0,0,0,83,75.37,3.21,3.21,0,0,1,83.82,74a16,16,0,0,1,1.77-1.63c.82-.72,1.48-1.34,2-1.86a7.07,7.07,0,0,0,1.31-1.85,5.27,5.27,0,0,0,.54-2.38,5.18,5.18,0,0,0-1-3.13,6.77,6.77,0,0,0-2.8-2.17,9.9,9.9,0,0,0-4.06-.79,13.13,13.13,0,0,0-4,.65,12.34,12.34,0,0,0-3.59,1.8,3,3,0,0,0-.86.94,2.55,2.55,0,0,0-.26,1.23,2.82,2.82,0,0,0,.61,1.84,1.86,1.86,0,0,0,1.49.75,4.19,4.19,0,0,0,1.92-.67l.84-.42a13.2,13.2,0,0,1,1.77-.85,4.48,4.48,0,0,1,1.59-.3,2.39,2.39,0,0,1,1.54.45,1.5,1.5,0,0,1,.56,1.23,2.54,2.54,0,0,1-.4,1.4,11.16,11.16,0,0,1-1.21,1.5A11.92,11.92,0,0,0,79.78,72a5.48,5.48,0,0,0-.63,2.75,2.52,2.52,0,0,0,.51,1.68A1.75,1.75,0,0,0,81.08,77Zm.07,8.37a3.27,3.27,0,0,0,2.43-1,3.52,3.52,0,0,0,0-4.83,3.27,3.27,0,0,0-2.43-1,3.23,3.23,0,0,0-2.4,1,3.52,3.52,0,0,0,0,4.83A3.23,3.23,0,0,0,81.15,85.35Z"/></svg>