<svg id="Layer_1" data-name="Layer 1" xmlns="http://www.w3.org/2000/svg" viewBox="0 0 98.14 95.96"><title>l1_5_1</title><path d="M59.82,81.22a3.06,3.06,0,0,1,1,2.35,3.33,3.33,0,0,1-3.3,3.35,3.23,3.23,0,0,1-2.35-1l-6-6-6,6a3.19,3.19,0,0,1-2.35,1,3.48,3.48,0,0,1-2.35-1,3.26,3.26,0,0,1,0-4.7l6-6-6-6a3.44,3.44,0,0,1-1-2.35,3.28,3.28,0,0,1,1-2.4,2.94,2.94,0,0,1,2.29-1A3.26,3.26,0,0,1,43,64.5l6,6,6-6a3.2,3.2,0,0,1,2.35-1,3.07,3.07,0,0,1,2.35,1,2.92,2.92,0,0,1,1,2.29,3.28,3.28,0,0,1-1,2.4l-6,6Z"/><path d="M98.14,56V89.63A6.37,6.37,0,0,1,91.77,96h-20a6.37,6.37,0,0,1-6.37-6.36V55.8L59,46.38h-20l-6.35,9.35v33.9A6.37,6.37,0,0,1,26.34,96h-20A6.37,6.37,0,0,1,0,89.63V56a6.37,6.37,0,0,1,6.37-6.37H25l7.73-11.39V6.4A6.37,6.37,0,0,1,39.08,0h20A6.37,6.37,0,0,1,65.42,6.4V38.33l7.69,11.32H91.77A6.37,6.37,0,0,1,98.14,56ZM52.89,14.07H51.24V4.54a1.74,1.74,0,0,0-.49-1.31,1.78,1.78,0,0,0-1.3-.48,3.32,3.32,0,0,0-1.66.5L44.57,5.12a1.37,1.37,0,0,0-.71,1.25,1.68,1.68,0,0,0,.41,1.09,1.19,1.19,0,0,0,1,.49,1.34,1.34,0,0,0,.71-.2l1.6-.94v7.26H45.91a2,2,0,0,0-1.32.36,1.36,1.36,0,0,0-.43,1.09c0,1,.59,1.49,1.75,1.49h7c1.17,0,1.75-.5,1.75-1.49a1.35,1.35,0,0,0-.42-1.09A2,2,0,0,0,52.89,14.07ZM85.61,64.69H84V55.15a1.7,1.7,0,0,0-1.79-1.79,3.35,3.35,0,0,0-1.67.51l-3.22,1.87a1.35,1.35,0,0,0-.7,1.24,1.68,1.68,0,0,0,.4,1.1,1.2,1.2,0,0,0,1,.49,1.34,1.34,0,0,0,.71-.2l1.61-.94v7.26H78.63a2,2,0,0,0-1.33.36,1.35,1.35,0,0,0-.42,1.09c0,1,.58,1.48,1.75,1.48h7c1.16,0,1.75-.49,1.75-1.48a1.33,1.33,0,0,0-.43-1.09A2,2,0,0,0,85.61,64.69Zm-.49,24.46h-4l2.85-2.92A8.89,8.89,0,0,0,85.61,84a5.08,5.08,0,0,0,.5-2.24,3.74,3.74,0,0,0-.62-2.11,3.93,3.93,0,0,0-1.74-1.4,6.43,6.43,0,0,0-2.61-.5,7.54,7.54,0,0,0-2.32.37,7.73,7.73,0,0,0-2.13,1,1.4,1.4,0,0,0-.49.52,1.95,1.95,0,0,0,.21,1.8,1,1,0,0,0,.85.46,1.21,1.21,0,0,0,.38-.06,2.86,2.86,0,0,0,.41-.19l.31-.18.41-.2a10.77,10.77,0,0,1,1.13-.49A3.4,3.4,0,0,1,81,80.58a1.58,1.58,0,0,1,1.11.36,1.33,1.33,0,0,1,.4,1,3.92,3.92,0,0,1-1.33,2.55L76.9,89a2.19,2.19,0,0,0-.69,1.57,1.5,1.5,0,0,0,.42,1.09,1.53,1.53,0,0,0,1.15.43h7.34a2,2,0,0,0,1.32-.36,1.36,1.36,0,0,0,.43-1.12,1.33,1.33,0,0,0-.43-1.1A2.1,2.1,0,0,0,85.12,89.15ZM20.05,64.26h-1.6V55a1.61,1.61,0,0,0-1.73-1.73,3.32,3.32,0,0,0-1.62.48L12,55.58a1.3,1.3,0,0,0-.68,1.21,1.64,1.64,0,0,0,.39,1.06,1.17,1.17,0,0,0,.93.48,1.31,1.31,0,0,0,.68-.2l1.56-.91v7H13.28a1.9,1.9,0,0,0-1.28.35,1.31,1.31,0,0,0-.41,1c0,1,.56,1.44,1.69,1.44h6.77c1.13,0,1.7-.48,1.7-1.44a1.31,1.31,0,0,0-.41-1A1.91,1.91,0,0,0,20.05,64.26ZM14.2,89.15H12.55V79.61a1.74,1.74,0,0,0-.5-1.3,1.77,1.77,0,0,0-1.29-.49,3.35,3.35,0,0,0-1.67.51L5.87,80.2a1.36,1.36,0,0,0-.7,1.24,1.68,1.68,0,0,0,.4,1.1,1.2,1.2,0,0,0,1,.49,1.34,1.34,0,0,0,.71-.2l1.61-.94v7.26H7.22a2,2,0,0,0-1.33.36,1.35,1.35,0,0,0-.42,1.09c0,1,.58,1.48,1.75,1.48h7c1.16,0,1.75-.49,1.75-1.48a1.33,1.33,0,0,0-.43-1.09A2,2,0,0,0,14.2,89.15Zm12.12-2.27h-.44V79.61a1.7,1.7,0,0,0-.54-1.34A1.92,1.92,0,0,0,24,77.78a1.86,1.86,0,0,0-.89.22,1.84,1.84,0,0,0-.72.61l-5.75,8.21a2.18,2.18,0,0,0-.44,1.32,1.55,1.55,0,0,0,.42,1.11,1.52,1.52,0,0,0,1.15.44h4.48v.69a1.77,1.77,0,0,0,.49,1.36,1.82,1.82,0,0,0,1.3.47,1.86,1.86,0,0,0,1.31-.47,1.77,1.77,0,0,0,.5-1.36v-.69h.44c1.17,0,1.75-.47,1.75-1.43S27.49,86.88,26.32,86.88Zm-6.45,0,2.41-3.48v3.48ZM62.79,22h0a2.14,2.14,0,0,0-2.14-2.14H37.48A2.14,2.14,0,0,0,35.34,22h0a2.14,2.14,0,0,0,2.14,2.15H60.65A2.14,2.14,0,0,0,62.79,22ZM29.69,72.51h0a2.14,2.14,0,0,0-2.14-2.15H4.38a2.14,2.14,0,0,0-2.14,2.15h0a2.14,2.14,0,0,0,2.14,2.14H27.55A2.14,2.14,0,0,0,29.69,72.51Zm66.43,0h0A2.15,2.15,0,0,0,94,70.36H70.81a2.15,2.15,0,0,0-2.15,2.15h0a2.14,2.14,0,0,0,2.15,2.14H94A2.14,2.14,0,0,0,96.12,72.51ZM46.33,39.07h-4l2.86-2.92a9.4,9.4,0,0,0,1.68-2.26,5,5,0,0,0,.49-2.24,3.67,3.67,0,0,0-.61-2.1A4,4,0,0,0,45,28.14a6.43,6.43,0,0,0-2.61-.49A8,8,0,0,0,40,28a7.81,7.81,0,0,0-2.12,1,1.28,1.28,0,0,0-.49.53,1.66,1.66,0,0,0-.13.72,1.74,1.74,0,0,0,.34,1.08,1,1,0,0,0,.84.45,1.27,1.27,0,0,0,.39-.06,3.47,3.47,0,0,0,.41-.19l.31-.17.4-.2a10,10,0,0,1,1.14-.5,3.33,3.33,0,0,1,1.07-.17,1.59,1.59,0,0,1,1.12.36,1.36,1.36,0,0,1,.39,1.05,3.87,3.87,0,0,1-1.33,2.55L38.1,38.91a2.22,2.22,0,0,0-.68,1.57,1.49,1.49,0,0,0,.42,1.09A1.52,1.52,0,0,0,39,42h7.34a2,2,0,0,0,1.32-.37,1.4,1.4,0,0,0,.43-1.12,1.37,1.37,0,0,0-.43-1.1A2.1,2.1,0,0,0,46.33,39.07Zm11.4-4.36a3.06,3.06,0,0,0,1.58-1.19,3.49,3.49,0,0,0,.57-2,3.33,3.33,0,0,0-1.39-2.83,6.32,6.32,0,0,0-3.82-1,6.29,6.29,0,0,0-3.8,1,3.32,3.32,0,0,0-1.41,2.83,3.4,3.4,0,0,0,.57,2,3.33,3.33,0,0,0,1.61,1.24,3.32,3.32,0,0,0-1.89,1.19,3.51,3.51,0,0,0-.67,2.2,3.47,3.47,0,0,0,1.5,3,6.87,6.87,0,0,0,4.09,1.08,6.9,6.9,0,0,0,4.1-1.08,3.47,3.47,0,0,0,1.5-3,3.51,3.51,0,0,0-.66-2.16A3.46,3.46,0,0,0,57.73,34.71Zm-3.06,4.66c-1.46,0-2.19-.52-2.19-1.57s.73-1.57,2.19-1.57,2.2.53,2.2,1.57S56.14,39.37,54.67,39.37Zm0-8.93a2.16,2.16,0,0,1,1.35.35,1.37,1.37,0,0,1,.44,1.14A1.4,1.4,0,0,1,56,33.08a2.69,2.69,0,0,1-2.69,0,1.41,1.41,0,0,1-.45-1.15,1.37,1.37,0,0,1,.45-1.14A2.15,2.15,0,0,1,54.67,30.44Z"/></svg>