<svg id="Layer_1" data-name="Layer 1" xmlns="http://www.w3.org/2000/svg" viewBox="0 0 98.14 95.96"><title>l1_5_1</title><path d="M59.82,81.22a3.07,3.07,0,0,1,1,2.35,3.29,3.29,0,0,1-5.65,2.35l-6-6-6.05,6a3.18,3.18,0,0,1-2.34,1,3.44,3.44,0,0,1-2.35-1,3.24,3.24,0,0,1,0-4.7l6-6-6-6a3.4,3.4,0,0,1-1-2.35,3.27,3.27,0,0,1,1-2.4,2.94,2.94,0,0,1,2.3-1A3.24,3.24,0,0,1,43,64.5l6.05,6,6-6a3.18,3.18,0,0,1,2.35-1,3.05,3.05,0,0,1,2.34,1,2.89,2.89,0,0,1,1,2.29,3.24,3.24,0,0,1-1,2.4l-6,6Z"/><path d="M98.14,56V89.63A6.37,6.37,0,0,1,91.77,96h-20a6.36,6.36,0,0,1-6.36-6.36V55.8L59,46.38h-20l-6.36,9.35v33.9A6.36,6.36,0,0,1,26.35,96h-20A6.37,6.37,0,0,1,0,89.63V56a6.37,6.37,0,0,1,6.37-6.37H25l7.73-11.39V6.4A6.37,6.37,0,0,1,39.08,0h20A6.37,6.37,0,0,1,65.43,6.4V38.33l7.68,11.32H91.77A6.37,6.37,0,0,1,98.14,56ZM52.9,14.07H51.25V4.54a1.75,1.75,0,0,0-.5-1.31,1.77,1.77,0,0,0-1.29-.48,3.33,3.33,0,0,0-1.67.5L44.57,5.12a1.36,1.36,0,0,0-.7,1.25,1.67,1.67,0,0,0,.4,1.09,1.2,1.2,0,0,0,1,.49,1.34,1.34,0,0,0,.71-.2l1.61-.94v7.26H45.92a2,2,0,0,0-1.33.36,1.35,1.35,0,0,0-.42,1.09c0,1,.58,1.49,1.75,1.49h7c1.16,0,1.75-.5,1.75-1.49a1.36,1.36,0,0,0-.43-1.09A2,2,0,0,0,52.9,14.07ZM85.61,64.69H84V55.15a1.68,1.68,0,0,0-1.79-1.79,3.38,3.38,0,0,0-1.67.51l-3.22,1.87a1.35,1.35,0,0,0-.7,1.24,1.68,1.68,0,0,0,.4,1.1,1.2,1.2,0,0,0,1,.49,1.32,1.32,0,0,0,.71-.2l1.61-.94v7.26H78.63a2,2,0,0,0-1.33.36,1.35,1.35,0,0,0-.42,1.09c0,1,.58,1.48,1.75,1.48h7c1.16,0,1.75-.49,1.75-1.48a1.33,1.33,0,0,0-.43-1.09A2,2,0,0,0,85.61,64.69ZM82.38,82.81a5,5,0,0,0-2,.36V80.7h4.34c1.17,0,1.75-.47,1.75-1.41s-.58-1.39-1.75-1.39H78.5a1.55,1.55,0,0,0-1.71,1.73v5.46a1.08,1.08,0,0,0,.38.87,1.38,1.38,0,0,0,.94.33,1.91,1.91,0,0,0,.91-.22,8.07,8.07,0,0,1,1.15-.36,5.35,5.35,0,0,1,1.1-.1,2.31,2.31,0,0,1,1.57.5,1.82,1.82,0,0,1,.56,1.41,1.75,1.75,0,0,1-.54,1.42,2.58,2.58,0,0,1-1.67.45,3.42,3.42,0,0,1-1.12-.18,10.83,10.83,0,0,1-1.13-.48l-.4-.21-.61-.3a1.41,1.41,0,0,0-.5-.08,1,1,0,0,0-.85.44,1.67,1.67,0,0,0-.34,1,1.47,1.47,0,0,0,.15.69,1.75,1.75,0,0,0,.48.56,6.48,6.48,0,0,0,2.06,1,8.11,8.11,0,0,0,2.44.37,6.56,6.56,0,0,0,2.88-.61,4.53,4.53,0,0,0,1.93-1.71,4.79,4.79,0,0,0,.68-2.55A4.84,4.84,0,0,0,86.29,85a4,4,0,0,0-1.59-1.61A4.57,4.57,0,0,0,82.38,82.81ZM20.05,64.26H18.46V55A1.71,1.71,0,0,0,18,53.74a1.73,1.73,0,0,0-1.26-.46,3.32,3.32,0,0,0-1.62.48L12,55.58a1.3,1.3,0,0,0-.68,1.21,1.64,1.64,0,0,0,.39,1.06,1.17,1.17,0,0,0,.93.48,1.37,1.37,0,0,0,.69-.2l1.56-.91v7H13.29a1.91,1.91,0,0,0-1.29.35,1.31,1.31,0,0,0-.41,1c0,1,.57,1.44,1.7,1.44h6.76c1.14,0,1.7-.48,1.7-1.44a1.27,1.27,0,0,0-.41-1A1.91,1.91,0,0,0,20.05,64.26ZM20,77.9H12.15a2,2,0,0,0-1.33.38,1.41,1.41,0,0,0-.42,1.11,1.35,1.35,0,0,0,.41,1.09,2,2,0,0,0,1.34.36h5L12,89.67a2,2,0,0,0-.28,1,1.45,1.45,0,0,0,.55,1.15,1.81,1.81,0,0,0,1.24.48,1.7,1.7,0,0,0,.86-.24,1.89,1.89,0,0,0,.69-.71l6.1-10.56a2.61,2.61,0,0,0,.38-1.33,1.57,1.57,0,0,0-.39-1.09A1.45,1.45,0,0,0,20,77.9ZM62.8,22h0a2.14,2.14,0,0,0-2.15-2.14H37.49A2.14,2.14,0,0,0,35.34,22h0a2.15,2.15,0,0,0,2.15,2.15H60.65A2.15,2.15,0,0,0,62.8,22ZM29.69,72.51h0a2.14,2.14,0,0,0-2.14-2.15H4.38a2.14,2.14,0,0,0-2.14,2.15h0a2.14,2.14,0,0,0,2.14,2.14H27.55A2.14,2.14,0,0,0,29.69,72.51Zm66.43,0h0A2.15,2.15,0,0,0,94,70.36H70.81a2.15,2.15,0,0,0-2.15,2.15h0a2.14,2.14,0,0,0,2.15,2.14H94A2.14,2.14,0,0,0,96.12,72.51Zm-51-37.8a3.3,3.3,0,0,0,1.6-1.22,3.36,3.36,0,0,0,.58-1.94,3.5,3.5,0,0,0-.62-2.05A3.92,3.92,0,0,0,45,28.13a6.69,6.69,0,0,0-2.62-.48A8.15,8.15,0,0,0,40,28a6.69,6.69,0,0,0-2,1,1.59,1.59,0,0,0-.48.55,1.46,1.46,0,0,0-.14.7,1.64,1.64,0,0,0,.34,1.06,1.07,1.07,0,0,0,.85.43,1.35,1.35,0,0,0,.5-.09c.15-.06.35-.16.6-.29l.42-.2a9.7,9.7,0,0,1,1.1-.49,3.06,3.06,0,0,1,1.06-.18,1.73,1.73,0,0,1,1.22.41,1.5,1.5,0,0,1,.45,1.16,1.14,1.14,0,0,1-.51,1,3.11,3.11,0,0,1-1.61.32h-.88a1.17,1.17,0,0,0-.95.42,1.6,1.6,0,0,0-.34,1,1.57,1.57,0,0,0,.34,1,1.17,1.17,0,0,0,.95.42h1.25a3,3,0,0,1,1.65.35,1.26,1.26,0,0,1,.5,1.12A1.42,1.42,0,0,1,43.74,39a2.81,2.81,0,0,1-1.62.36A3.77,3.77,0,0,1,41,39.14a9.22,9.22,0,0,1-1.16-.49l-.25-.11-.19-.09c-.25-.14-.45-.23-.6-.3a1.36,1.36,0,0,0-.51-.09,1,1,0,0,0-.84.44,1.63,1.63,0,0,0-.34,1,1.54,1.54,0,0,0,.14.7,1.51,1.51,0,0,0,.48.55,6.68,6.68,0,0,0,2.09,1,9.13,9.13,0,0,0,2.52.35,7.5,7.5,0,0,0,2.84-.5A4.17,4.17,0,0,0,47,40.28a3.5,3.5,0,0,0,.67-2.14A3.59,3.59,0,0,0,47,36,3.39,3.39,0,0,0,45.15,34.71Zm10.5-2a4.87,4.87,0,0,0-2,.37V30.62H58c1.17,0,1.75-.47,1.75-1.41s-.58-1.38-1.75-1.38H51.77a1.71,1.71,0,0,0-1.27.44,1.75,1.75,0,0,0-.44,1.29V35a1.11,1.11,0,0,0,.38.87,1.41,1.41,0,0,0,1,.33,1.87,1.87,0,0,0,.9-.22,8.15,8.15,0,0,1,1.16-.36,5.29,5.29,0,0,1,1.1-.1,2.27,2.27,0,0,1,1.56.5,1.79,1.79,0,0,1,.57,1.41,1.73,1.73,0,0,1-.55,1.42,2.55,2.55,0,0,1-1.66.45,3.33,3.33,0,0,1-1.12-.18,11.91,11.91,0,0,1-1.14-.48l-.4-.2c-.27-.15-.47-.25-.6-.31a1.47,1.47,0,0,0-.51-.08,1,1,0,0,0-.84.44,1.63,1.63,0,0,0-.34,1,1.54,1.54,0,0,0,.15.7,1.82,1.82,0,0,0,.47.55,6.94,6.94,0,0,0,2.06,1,8.5,8.5,0,0,0,2.45.36,6.41,6.41,0,0,0,2.87-.61,4.47,4.47,0,0,0,1.93-1.71,4.68,4.68,0,0,0,.69-2.55,4.74,4.74,0,0,0-.58-2.38A4.08,4.08,0,0,0,58,33.31,4.71,4.71,0,0,0,55.65,32.73Z"/></svg>