<svg id="Layer_1" data-name="Layer 1" xmlns="http://www.w3.org/2000/svg" viewBox="0 0 98.14 95.96"><title>l1_5_1</title><path d="M60.18,78.82a3.06,3.06,0,0,1,1,2.35,3.33,3.33,0,0,1-3.3,3.35,3.23,3.23,0,0,1-2.35-1l-6-6-6,6a3.19,3.19,0,0,1-2.35,1,3.48,3.48,0,0,1-2.35-1,3.26,3.26,0,0,1,0-4.7l6-6-6-6a3.44,3.44,0,0,1-1-2.35,3.28,3.28,0,0,1,1-2.4,2.94,2.94,0,0,1,2.29-1A3.26,3.26,0,0,1,43.4,62.1l6,6,6-6a3.2,3.2,0,0,1,2.35-1,3.07,3.07,0,0,1,2.35,1,2.92,2.92,0,0,1,1,2.29,3.28,3.28,0,0,1-1,2.4l-6,6Z"/><path d="M98.14,56V89.59A6.37,6.37,0,0,1,91.77,96h-20a6.37,6.37,0,0,1-6.37-6.37V55.76L59,46.34h-20L32.71,55.7V89.59A6.37,6.37,0,0,1,26.35,96h-20A6.37,6.37,0,0,1,0,89.59V56a6.37,6.37,0,0,1,6.37-6.36H25l7.73-11.39V6.37A6.37,6.37,0,0,1,39.08,0h20a6.37,6.37,0,0,1,6.36,6.37V38.29l7.69,11.33H91.77A6.37,6.37,0,0,1,98.14,56ZM20.05,64.22h-1.6V55a1.62,1.62,0,0,0-1.73-1.74,3.34,3.34,0,0,0-1.62.49L12,55.54a1.33,1.33,0,0,0-.69,1.21,1.62,1.62,0,0,0,.4,1.07,1.18,1.18,0,0,0,.93.47,1.3,1.3,0,0,0,.68-.19l1.56-.92v7H13.28a2,2,0,0,0-1.28.35,1.31,1.31,0,0,0-.41,1.06c0,1,.56,1.44,1.69,1.44h6.77c1.13,0,1.7-.48,1.7-1.44a1.34,1.34,0,0,0-.41-1.06A2,2,0,0,0,20.05,64.22ZM18.52,84.75a3.23,3.23,0,0,0,1.6-1.22,3.34,3.34,0,0,0,.57-1.94,3.49,3.49,0,0,0-.61-2,4,4,0,0,0-1.75-1.37,6.71,6.71,0,0,0-2.63-.48,8.08,8.08,0,0,0-2.38.36,6.49,6.49,0,0,0-2,1,1.41,1.41,0,0,0-.63,1.24A1.65,1.65,0,0,0,11,81.36a1,1,0,0,0,.84.43,1.28,1.28,0,0,0,.5-.09,6,6,0,0,0,.61-.29l.42-.2a10.56,10.56,0,0,1,1.1-.48,3,3,0,0,1,1-.18,1.73,1.73,0,0,1,1.23.41,1.51,1.51,0,0,1,.44,1.16,1.13,1.13,0,0,1-.5,1,3,3,0,0,1-1.61.32h-.89a1.13,1.13,0,0,0-.94.43,1.52,1.52,0,0,0-.34,1,1.56,1.56,0,0,0,.34,1,1.15,1.15,0,0,0,.94.42h1.25a3,3,0,0,1,1.65.34,1.25,1.25,0,0,1,.5,1.13A1.38,1.38,0,0,1,17.1,89a2.73,2.73,0,0,1-1.62.37,3.43,3.43,0,0,1-1.15-.18,7.51,7.51,0,0,1-1.16-.49l-.25-.11-.19-.09c-.26-.13-.46-.23-.61-.29a1.28,1.28,0,0,0-.5-.09,1,1,0,0,0-.84.43,1.65,1.65,0,0,0-.35,1.06,1.6,1.6,0,0,0,.14.69,1.56,1.56,0,0,0,.49.55,6.18,6.18,0,0,0,2.09,1,9.06,9.06,0,0,0,2.51.35,7.53,7.53,0,0,0,2.85-.49,4.26,4.26,0,0,0,1.88-1.4,3.5,3.5,0,0,0,.66-2.13A3.54,3.54,0,0,0,20.38,86,3.41,3.41,0,0,0,18.52,84.75Zm10.8-12.61a2,2,0,0,0-1.86-1.75H5a2.18,2.18,0,0,0-2.35,2.25A2.15,2.15,0,0,0,5,74.25H27.46A2,2,0,0,0,29.32,72.14ZM83.49,69a6.65,6.65,0,0,0-3,.65,5.58,5.58,0,0,0-2.15,1.76,9.31,9.31,0,0,1,1.31-4.56,3.35,3.35,0,0,1,2.89-1.63,4.58,4.58,0,0,1,1.61.28,18.3,18.3,0,0,1,1.92.84l.77.38a11.51,11.51,0,0,0,1.05.51,2.23,2.23,0,0,0,.88.16,1.87,1.87,0,0,0,1.49-.75,2.89,2.89,0,0,0,.61-1.84,2.67,2.67,0,0,0-.26-1.23,3.09,3.09,0,0,0-.86-.94,11.05,11.05,0,0,0-3.52-1.75,13.56,13.56,0,0,0-4-.63,9.48,9.48,0,0,0-5.44,1.57,10.18,10.18,0,0,0-3.6,4.5,17,17,0,0,0-1.28,6.84q0,6,2.69,9.17a9.39,9.39,0,0,0,7.63,3.22,9.08,9.08,0,0,0,4.45-1.08,7.75,7.75,0,0,0,3.06-3,8.67,8.67,0,0,0,1.1-4.39,8.85,8.85,0,0,0-1-4.15A7.25,7.25,0,0,0,87.27,70,7.06,7.06,0,0,0,83.49,69ZM81.88,80.62a2.79,2.79,0,0,1-2.17-.93,3.9,3.9,0,0,1,0-4.81A2.8,2.8,0,0,1,81.88,74a2.76,2.76,0,0,1,2.19.89,3.58,3.58,0,0,1,.78,2.43,3.5,3.5,0,0,1-.8,2.42A2.78,2.78,0,0,1,81.88,80.62Zm-31.34-73A3.76,3.76,0,0,0,48.89,8a3.15,3.15,0,0,0-1.2,1,5.17,5.17,0,0,1,.73-2.54A1.86,1.86,0,0,1,50,5.51a2.51,2.51,0,0,1,.9.16c.29.1.64.26,1.07.46l.43.22c.25.13.44.22.59.28a1.21,1.21,0,0,0,.48.09,1,1,0,0,0,.83-.42,1.55,1.55,0,0,0,.34-1,1.44,1.44,0,0,0-.14-.69,1.77,1.77,0,0,0-.48-.52,6.32,6.32,0,0,0-2-1,7.67,7.67,0,0,0-2.23-.35,5.28,5.28,0,0,0-3,.88,5.65,5.65,0,0,0-2,2.5,9.4,9.4,0,0,0-.72,3.82,7.71,7.71,0,0,0,1.51,5.11,5.24,5.24,0,0,0,4.25,1.79,5,5,0,0,0,2.47-.6A4.34,4.34,0,0,0,54,14.55a4.87,4.87,0,0,0,.62-2.45,4.86,4.86,0,0,0-.54-2.31,4.13,4.13,0,0,0-1.47-1.6A4,4,0,0,0,50.54,7.62Zm-.9,6.47a1.59,1.59,0,0,1-1.21-.51A1.93,1.93,0,0,1,48,12.24a2,2,0,0,1,.45-1.35,1.61,1.61,0,0,1,1.22-.5,1.54,1.54,0,0,1,1.22.49,2,2,0,0,1,.44,1.36,2,2,0,0,1-.45,1.35A1.55,1.55,0,0,1,49.64,14.09ZM52,34.35a3.24,3.24,0,0,0,1.6-1.22,3.36,3.36,0,0,0,.57-1.94,3.49,3.49,0,0,0-.61-2.05,3.92,3.92,0,0,0-1.75-1.37,6.69,6.69,0,0,0-2.62-.48,8.15,8.15,0,0,0-2.39.36,6.93,6.93,0,0,0-2,1,1.59,1.59,0,0,0-.48.55,1.48,1.48,0,0,0-.14.7A1.64,1.64,0,0,0,44.45,31a1,1,0,0,0,.84.43,1.36,1.36,0,0,0,.51-.09l.6-.29.42-.2a10.81,10.81,0,0,1,1.1-.49,3,3,0,0,1,1-.18,1.74,1.74,0,0,1,1.23.41,1.51,1.51,0,0,1,.44,1.16,1.13,1.13,0,0,1-.5,1,3.11,3.11,0,0,1-1.61.32h-.88a1.15,1.15,0,0,0-.95.42,1.54,1.54,0,0,0-.34,1,1.52,1.52,0,0,0,.34,1,1.16,1.16,0,0,0,.95.43h1.24a3,3,0,0,1,1.65.34,1.25,1.25,0,0,1,.51,1.12,1.39,1.39,0,0,1-.5,1.21,2.81,2.81,0,0,1-1.62.36,3.43,3.43,0,0,1-1.15-.17,9.22,9.22,0,0,1-1.16-.49l-.25-.11-.19-.09c-.26-.14-.46-.23-.6-.29a1.36,1.36,0,0,0-.51-.09,1,1,0,0,0-.84.43,1.63,1.63,0,0,0-.34,1,1.54,1.54,0,0,0,.14.7,1.51,1.51,0,0,0,.48.55,6.68,6.68,0,0,0,2.09,1,9.13,9.13,0,0,0,2.52.35A7.71,7.71,0,0,0,52,41.32a4.26,4.26,0,0,0,1.88-1.4,3.55,3.55,0,0,0,.67-2.13,3.6,3.6,0,0,0-.68-2.2A3.39,3.39,0,0,0,52,34.35Zm10.8-12.62A2,2,0,0,0,60.91,20H38.42a2.19,2.19,0,0,0-2.35,2.26,2.15,2.15,0,0,0,2.35,1.6H60.91A2,2,0,0,0,62.77,21.73Z"/></svg>