<svg id="Layer_1" data-name="Layer 1" xmlns="http://www.w3.org/2000/svg" viewBox="0 0 98.14 95.96"><title>l1_5_1</title><path d="M59.82,81.22a3.06,3.06,0,0,1,1,2.35,3.28,3.28,0,0,1-5.64,2.35l-6-6-6.05,6a3.18,3.18,0,0,1-2.34,1,3.44,3.44,0,0,1-2.35-1,3.24,3.24,0,0,1,0-4.7l6-6-6-6a3.4,3.4,0,0,1-1-2.35,3.27,3.27,0,0,1,1-2.4,2.94,2.94,0,0,1,2.3-1A3.24,3.24,0,0,1,43,64.5l6.05,6,6-6a3.18,3.18,0,0,1,2.35-1,3.05,3.05,0,0,1,2.34,1,2.89,2.89,0,0,1,1,2.29,3.24,3.24,0,0,1-1,2.4l-6,6Z"/><path d="M98.14,56V89.63A6.37,6.37,0,0,1,91.77,96h-20a6.36,6.36,0,0,1-6.36-6.36V55.8L59,46.38h-20l-6.36,9.35v33.9A6.36,6.36,0,0,1,26.35,96h-20A6.37,6.37,0,0,1,0,89.63V56a6.37,6.37,0,0,1,6.37-6.37H25l7.73-11.39V6.4A6.37,6.37,0,0,1,39.08,0h20A6.37,6.37,0,0,1,65.43,6.4V38.33l7.68,11.32H91.77A6.37,6.37,0,0,1,98.14,56ZM52.9,14.07H51.25V4.54a1.75,1.75,0,0,0-.5-1.31,1.76,1.76,0,0,0-1.29-.48,3.33,3.33,0,0,0-1.67.5L44.57,5.12a1.36,1.36,0,0,0-.7,1.25,1.67,1.67,0,0,0,.4,1.09,1.2,1.2,0,0,0,1,.49,1.34,1.34,0,0,0,.71-.2l1.61-.94v7.26H45.92a2,2,0,0,0-1.33.36,1.35,1.35,0,0,0-.42,1.09c0,1,.58,1.49,1.75,1.49h7c1.16,0,1.75-.5,1.75-1.49a1.33,1.33,0,0,0-.43-1.09A2,2,0,0,0,52.9,14.07ZM85.61,64.69H84V55.15a1.68,1.68,0,0,0-1.79-1.79,3.38,3.38,0,0,0-1.67.51l-3.22,1.87a1.35,1.35,0,0,0-.7,1.24,1.68,1.68,0,0,0,.4,1.1,1.2,1.2,0,0,0,1,.49,1.32,1.32,0,0,0,.71-.2l1.61-.94v7.26H78.63a2,2,0,0,0-1.33.36,1.35,1.35,0,0,0-.42,1.09c0,1,.58,1.48,1.75,1.48h7c1.16,0,1.75-.49,1.75-1.48a1.33,1.33,0,0,0-.43-1.09A2,2,0,0,0,85.61,64.69Zm.11,22.19h-.45V79.61a1.7,1.7,0,0,0-.54-1.34,1.92,1.92,0,0,0-1.31-.49,1.89,1.89,0,0,0-.89.22,1.84,1.84,0,0,0-.72.61l-5.75,8.21a2.25,2.25,0,0,0-.44,1.32,1.48,1.48,0,0,0,1.57,1.55h4.48v.69a1.77,1.77,0,0,0,.5,1.36,1.79,1.79,0,0,0,1.29.47,1.84,1.84,0,0,0,1.31-.47,1.74,1.74,0,0,0,.5-1.36v-.69h.45c1.16,0,1.75-.47,1.75-1.43S86.88,86.88,85.72,86.88Zm-6.46,0,2.41-3.48v3.48ZM20.05,64.26H18.46V55A1.71,1.71,0,0,0,18,53.74a1.73,1.73,0,0,0-1.26-.46,3.32,3.32,0,0,0-1.62.48L12,55.58a1.3,1.3,0,0,0-.68,1.21,1.64,1.64,0,0,0,.39,1.06,1.17,1.17,0,0,0,.93.48,1.34,1.34,0,0,0,.69-.2l1.56-.91v7H13.29a1.91,1.91,0,0,0-1.29.35,1.31,1.31,0,0,0-.41,1c0,1,.57,1.44,1.7,1.44h6.76c1.14,0,1.7-.48,1.7-1.44a1.27,1.27,0,0,0-.41-1A1.91,1.91,0,0,0,20.05,64.26Zm.24,22.62h-.44V79.61a1.7,1.7,0,0,0-.54-1.34A2,2,0,0,0,17.1,78a1.81,1.81,0,0,0-.71.61l-5.75,8.21a2.19,2.19,0,0,0-.45,1.32,1.56,1.56,0,0,0,.43,1.11,1.51,1.51,0,0,0,1.14.44h4.49v.69a1.77,1.77,0,0,0,.49,1.36,1.82,1.82,0,0,0,1.3.47,1.88,1.88,0,0,0,1.31-.47,1.77,1.77,0,0,0,.5-1.36v-.69h.44c1.17,0,1.75-.47,1.75-1.43S21.46,86.88,20.29,86.88Zm-6.45,0,2.41-3.48v3.48ZM62.8,22h0a2.14,2.14,0,0,0-2.15-2.14H37.49A2.14,2.14,0,0,0,35.34,22h0a2.15,2.15,0,0,0,2.15,2.15H60.65A2.15,2.15,0,0,0,62.8,22ZM29.69,72.51h0a2.14,2.14,0,0,0-2.14-2.15H4.38a2.14,2.14,0,0,0-2.14,2.15h0a2.14,2.14,0,0,0,2.14,2.14H27.55A2.14,2.14,0,0,0,29.69,72.51Zm66.43,0h0A2.15,2.15,0,0,0,94,70.36H70.81a2.15,2.15,0,0,0-2.15,2.15h0a2.14,2.14,0,0,0,2.15,2.14H94A2.14,2.14,0,0,0,96.12,72.51ZM46.86,39.07H45.21V29.54a1.74,1.74,0,0,0-.49-1.31,1.78,1.78,0,0,0-1.3-.48,3.36,3.36,0,0,0-1.67.5l-3.21,1.87a1.37,1.37,0,0,0-.71,1.25,1.73,1.73,0,0,0,.4,1.09,1.22,1.22,0,0,0,1,.5,1.3,1.3,0,0,0,.7-.21l1.61-.94v7.26H39.88a2,2,0,0,0-1.32.36,1.34,1.34,0,0,0-.43,1.09c0,1,.59,1.49,1.75,1.49h7c1.17,0,1.75-.5,1.75-1.49a1.37,1.37,0,0,0-.42-1.09A2,2,0,0,0,46.86,39.07Zm9-6.4a3.89,3.89,0,0,0-1.7.38,3.07,3.07,0,0,0-1.23,1,5.36,5.36,0,0,1,.75-2.62,1.92,1.92,0,0,1,1.66-.94,2.82,2.82,0,0,1,.92.16,11,11,0,0,1,1.11.49l.44.22c.26.13.46.23.61.29a1.28,1.28,0,0,0,.5.09,1.08,1.08,0,0,0,.85-.43,1.6,1.6,0,0,0,.36-1.06,1.45,1.45,0,0,0-.15-.7,1.94,1.94,0,0,0-.5-.55,6.26,6.26,0,0,0-2-1,7.81,7.81,0,0,0-2.3-.36,5.46,5.46,0,0,0-3.13.9A5.86,5.86,0,0,0,50,31.14a9.71,9.71,0,0,0-.73,3.93,8,8,0,0,0,1.54,5.27,5.43,5.43,0,0,0,4.39,1.85,5.13,5.13,0,0,0,2.55-.63,4.4,4.4,0,0,0,1.76-1.74,4.92,4.92,0,0,0,.64-2.52,5,5,0,0,0-.56-2.38,4.06,4.06,0,0,0-3.69-2.25ZM55,39.35a1.62,1.62,0,0,1-1.25-.53,2.26,2.26,0,0,1,0-2.77A1.62,1.62,0,0,1,55,35.53,1.58,1.58,0,0,1,56.2,36a2.32,2.32,0,0,1,0,2.79A1.55,1.55,0,0,1,55,39.35Z"/></svg>