<svg id="Layer_1" data-name="Layer 1" xmlns="http://www.w3.org/2000/svg" viewBox="0 0 98.14 95.96"><title>l1_5_1</title><path d="M60.18,78.82a3.06,3.06,0,0,1,1,2.35,3.33,3.33,0,0,1-3.3,3.35,3.23,3.23,0,0,1-2.35-1l-6-6-6,6a3.19,3.19,0,0,1-2.35,1,3.48,3.48,0,0,1-2.35-1,3.26,3.26,0,0,1,0-4.7l6-6-6-6a3.44,3.44,0,0,1-1-2.35,3.28,3.28,0,0,1,1-2.4,2.94,2.94,0,0,1,2.29-1A3.26,3.26,0,0,1,43.4,62.1l6,6,6-6a3.2,3.2,0,0,1,2.35-1,3.07,3.07,0,0,1,2.35,1,2.92,2.92,0,0,1,1,2.29,3.28,3.28,0,0,1-1,2.4l-6,6Z"/><path d="M98.14,56V89.59A6.37,6.37,0,0,1,91.77,96h-20a6.37,6.37,0,0,1-6.37-6.37V55.76L59,46.34h-20L32.71,55.7V89.59A6.37,6.37,0,0,1,26.35,96h-20A6.37,6.37,0,0,1,0,89.59V56a6.37,6.37,0,0,1,6.37-6.36H25l7.73-11.39V6.37A6.37,6.37,0,0,1,39.08,0h20a6.37,6.37,0,0,1,6.36,6.37V38.29l7.69,11.33H91.77A6.37,6.37,0,0,1,98.14,56Zm-78,6h-.43V55a1.66,1.66,0,0,0-.52-1.31,1.88,1.88,0,0,0-1.27-.47,1.92,1.92,0,0,0-.87.21,1.71,1.71,0,0,0-.69.59l-5.58,8a2.15,2.15,0,0,0-.43,1.29,1.49,1.49,0,0,0,.41,1.07,1.44,1.44,0,0,0,1.11.43h4.35v.66a1.73,1.73,0,0,0,.48,1.33,2,2,0,0,0,2.52,0,1.7,1.7,0,0,0,.49-1.33v-.66h.43c1.13,0,1.7-.46,1.7-1.38S21.24,62,20.11,62Zm-6.26,0,2.34-3.37V62Zm4.67,22.73a3.23,3.23,0,0,0,1.6-1.22,3.34,3.34,0,0,0,.57-1.94,3.49,3.49,0,0,0-.61-2,3.92,3.92,0,0,0-1.75-1.37,6.74,6.74,0,0,0-2.63-.48,8.08,8.08,0,0,0-2.38.36,6.49,6.49,0,0,0-2,1,1.41,1.41,0,0,0-.63,1.25,1.64,1.64,0,0,0,.35,1,1,1,0,0,0,.84.43,1.28,1.28,0,0,0,.5-.09,6,6,0,0,0,.61-.29l.42-.2a10.56,10.56,0,0,1,1.1-.48,3,3,0,0,1,1-.18,1.73,1.73,0,0,1,1.23.41,1.51,1.51,0,0,1,.44,1.16,1.13,1.13,0,0,1-.5,1,3,3,0,0,1-1.61.32h-.89a1.13,1.13,0,0,0-.94.43,1.52,1.52,0,0,0-.34,1,1.56,1.56,0,0,0,.34,1,1.15,1.15,0,0,0,.94.42h1.25a3,3,0,0,1,1.65.34,1.25,1.25,0,0,1,.5,1.13A1.38,1.38,0,0,1,17.1,89a2.73,2.73,0,0,1-1.62.37,3.43,3.43,0,0,1-1.15-.18,7.51,7.51,0,0,1-1.16-.49l-.25-.11-.19-.09c-.26-.13-.46-.23-.61-.29a1.28,1.28,0,0,0-.5-.09,1,1,0,0,0-.85.43,1.7,1.7,0,0,0-.34,1.06,1.6,1.6,0,0,0,.14.69,1.56,1.56,0,0,0,.49.55,6.18,6.18,0,0,0,2.09,1,9.06,9.06,0,0,0,2.51.35,7.53,7.53,0,0,0,2.85-.49,4.26,4.26,0,0,0,1.88-1.4,3.5,3.5,0,0,0,.66-2.13A3.54,3.54,0,0,0,20.38,86,3.41,3.41,0,0,0,18.52,84.75Zm10.8-12.61a2,2,0,0,0-1.86-1.75H5a2.18,2.18,0,0,0-2.35,2.25A2.15,2.15,0,0,0,5,74.25H27.46A2,2,0,0,0,29.32,72.14ZM56.05,31.27H48l5.68-5.8A18.59,18.59,0,0,0,57,21a10.13,10.13,0,0,0,1-4.46,7.36,7.36,0,0,0-1.22-4.18,7.81,7.81,0,0,0-3.46-2.8,12.93,12.93,0,0,0-5.2-1,16.28,16.28,0,0,0-8.84,2.72,2.65,2.65,0,0,0-1,1,3.47,3.47,0,0,0-.26,1.44,3.46,3.46,0,0,0,.68,2.14,2,2,0,0,0,1.68.9,2.37,2.37,0,0,0,.76-.12,5.19,5.19,0,0,0,.82-.38c.31-.17.51-.29.62-.34l.8-.4a19.36,19.36,0,0,1,2.26-1,6.4,6.4,0,0,1,2.14-.34A3.15,3.15,0,0,1,50,15,2.69,2.69,0,0,1,50.81,17q0,2.32-2.64,5.08L39.69,31a4.36,4.36,0,0,0-1.36,3.12,3,3,0,0,0,.84,2.18,3.05,3.05,0,0,0,2.28.86h14.6a4,4,0,0,0,2.62-.72,2.77,2.77,0,0,0,.86-2.24A2.66,2.66,0,0,0,58.67,32,4.08,4.08,0,0,0,56.05,31.27ZM81.21,77.08a2,2,0,0,0,1.28-.42,1.89,1.89,0,0,0,.69-1.19A3.12,3.12,0,0,1,84,74.06a16,16,0,0,1,1.77-1.63c.82-.73,1.48-1.34,2-1.86A6.87,6.87,0,0,0,89,68.72a5.3,5.3,0,0,0,.54-2.38,5.13,5.13,0,0,0-1-3.13A6.62,6.62,0,0,0,85.76,61a9.87,9.87,0,0,0-4.06-.79,12.88,12.88,0,0,0-4,.65,12.47,12.47,0,0,0-3.59,1.8,3,3,0,0,0-.85.94A2.54,2.54,0,0,0,73,64.87a2.84,2.84,0,0,0,.62,1.84,1.84,1.84,0,0,0,1.48.75A4.25,4.25,0,0,0,77,66.79l.84-.42a12.81,12.81,0,0,1,1.77-.86,4.61,4.61,0,0,1,1.59-.29,2.41,2.41,0,0,1,1.54.45,1.52,1.52,0,0,1,.56,1.23,2.62,2.62,0,0,1-.4,1.4,11.16,11.16,0,0,1-1.21,1.5,11.52,11.52,0,0,0-1.75,2.26,5.48,5.48,0,0,0-.63,2.75,2.52,2.52,0,0,0,.51,1.68A1.76,1.76,0,0,0,81.21,77.08Zm.07,8.37a3.29,3.29,0,0,0,2.44-1,3.52,3.52,0,0,0,0-4.83,3.26,3.26,0,0,0-2.44-1,3.19,3.19,0,0,0-2.39,1,3.52,3.52,0,0,0,0,4.83A3.23,3.23,0,0,0,81.28,85.45Z"/></svg>