<svg id="Layer_1" data-name="Layer 1" xmlns="http://www.w3.org/2000/svg" viewBox="0 0 98.14 95.96"><title>l1_5_1</title><path d="M59.81,81.22a3.1,3.1,0,0,1,.95,2.35,3.29,3.29,0,0,1-5.65,2.35l-6-6-6,6a3.2,3.2,0,0,1-2.35,1,3.46,3.46,0,0,1-2.35-1,3.26,3.26,0,0,1,0-4.7l6-6-6-6a3.44,3.44,0,0,1-.95-2.35,3.28,3.28,0,0,1,1-2.4,2.92,2.92,0,0,1,2.29-1A3.26,3.26,0,0,1,43,64.5l6,6,6-6a3.18,3.18,0,0,1,2.35-1,3.09,3.09,0,0,1,2.35,1,2.92,2.92,0,0,1,1,2.29,3.28,3.28,0,0,1-1,2.4l-6,6Z"/><path d="M98.12,56V89.63A6.37,6.37,0,0,1,91.75,96h-20a6.37,6.37,0,0,1-6.37-6.36V55.8L59,46.38h-20L32.7,55.73v33.9A6.37,6.37,0,0,1,26.33,96h-20A6.36,6.36,0,0,1,0,89.63V56a6.37,6.37,0,0,1,6.36-6.37H25L32.7,38.26V6.4A6.37,6.37,0,0,1,39.07,0H59A6.37,6.37,0,0,1,65.41,6.4V38.33L73.1,49.65H91.75A6.37,6.37,0,0,1,98.12,56ZM52.88,14.07H51.23V4.54a1.74,1.74,0,0,0-.49-1.31,1.78,1.78,0,0,0-1.3-.48,3.36,3.36,0,0,0-1.67.5L44.55,5.12a1.36,1.36,0,0,0-.7,1.25,1.67,1.67,0,0,0,.4,1.09,1.21,1.21,0,0,0,1,.49,1.31,1.31,0,0,0,.7-.2l1.61-.94v7.26H45.9a2,2,0,0,0-1.33.36,1.35,1.35,0,0,0-.42,1.09c0,1,.58,1.49,1.75,1.49h7c1.17,0,1.75-.5,1.75-1.49a1.35,1.35,0,0,0-.42-1.09A2,2,0,0,0,52.88,14.07ZM85.59,64.69H83.94V55.15a1.72,1.72,0,0,0-.49-1.3,1.75,1.75,0,0,0-1.3-.49,3.38,3.38,0,0,0-1.67.51l-3.22,1.87a1.37,1.37,0,0,0-.7,1.24,1.73,1.73,0,0,0,.4,1.1,1.21,1.21,0,0,0,1,.49,1.31,1.31,0,0,0,.7-.2l1.61-.94v7.26H78.61a2,2,0,0,0-1.32.36,1.33,1.33,0,0,0-.43,1.09c0,1,.59,1.48,1.75,1.48h7c1.17,0,1.75-.49,1.75-1.48a1.35,1.35,0,0,0-.42-1.09A2,2,0,0,0,85.59,64.69Zm.11,22.19h-.44V79.61a1.7,1.7,0,0,0-.54-1.34A2,2,0,0,0,82.51,78a1.81,1.81,0,0,0-.71.61l-5.75,8.21a2.19,2.19,0,0,0-.45,1.32,1.49,1.49,0,0,0,1.57,1.55h4.49v.69a1.77,1.77,0,0,0,.49,1.36,1.82,1.82,0,0,0,1.3.47,1.88,1.88,0,0,0,1.31-.47,1.77,1.77,0,0,0,.5-1.36v-.69h.44c1.17,0,1.75-.47,1.75-1.43S86.87,86.88,85.7,86.88Zm-6.46,0,2.42-3.48v3.48ZM20,64.26h-1.6V55A1.71,1.71,0,0,0,18,53.74a1.73,1.73,0,0,0-1.26-.46,3.32,3.32,0,0,0-1.61.48L12,55.58a1.32,1.32,0,0,0-.68,1.21,1.64,1.64,0,0,0,.39,1.06,1.17,1.17,0,0,0,.94.48,1.34,1.34,0,0,0,.68-.2l1.56-.91v7H13.27a2,2,0,0,0-1.29.35,1.31,1.31,0,0,0-.41,1c0,1,.57,1.44,1.7,1.44H20c1.13,0,1.7-.48,1.7-1.44a1.31,1.31,0,0,0-.41-1A2,2,0,0,0,20,64.26Zm-.36,24.89h-4l2.86-2.92A9.4,9.4,0,0,0,20.18,84a5.21,5.21,0,0,0,.49-2.24,3.74,3.74,0,0,0-.62-2.11,3.82,3.82,0,0,0-1.74-1.4,6.43,6.43,0,0,0-2.61-.5,7.59,7.59,0,0,0-2.32.37,7.54,7.54,0,0,0-2.12,1,1.35,1.35,0,0,0-.5.52,1.87,1.87,0,0,0-.13.73A1.77,1.77,0,0,0,11,81.41a1,1,0,0,0,.85.46,1.21,1.21,0,0,0,.38-.06,2.86,2.86,0,0,0,.41-.19l.31-.18.41-.2a11.75,11.75,0,0,1,1.13-.49,3.4,3.4,0,0,1,1.08-.17,1.62,1.62,0,0,1,1.12.36,1.36,1.36,0,0,1,.39,1,3.92,3.92,0,0,1-1.33,2.55L11.46,89a2.19,2.19,0,0,0-.69,1.57,1.5,1.5,0,0,0,.42,1.09,1.55,1.55,0,0,0,1.15.43h7.34A2,2,0,0,0,21,91.72a1.36,1.36,0,0,0,.43-1.12A1.33,1.33,0,0,0,21,89.5,2.1,2.1,0,0,0,19.68,89.15ZM62.78,22h0a2.14,2.14,0,0,0-2.14-2.14H37.47A2.14,2.14,0,0,0,35.33,22h0a2.14,2.14,0,0,0,2.14,2.15H60.64A2.14,2.14,0,0,0,62.78,22ZM29.68,72.51h0a2.15,2.15,0,0,0-2.15-2.15H4.37a2.15,2.15,0,0,0-2.15,2.15h0a2.14,2.14,0,0,0,2.15,2.14H27.53A2.14,2.14,0,0,0,29.68,72.51Zm66.42,0h0A2.14,2.14,0,0,0,94,70.36H70.79a2.14,2.14,0,0,0-2.14,2.15h0a2.14,2.14,0,0,0,2.14,2.14H94A2.14,2.14,0,0,0,96.1,72.51ZM51.67,34.71a3.06,3.06,0,0,0,1.58-1.19,3.5,3.5,0,0,0,.58-2,3.33,3.33,0,0,0-1.4-2.83,6.27,6.27,0,0,0-3.81-1,6.25,6.25,0,0,0-3.8,1,3.32,3.32,0,0,0-1.41,2.83,3.39,3.39,0,0,0,.56,2,3.33,3.33,0,0,0,1.61,1.24,3.32,3.32,0,0,0-1.89,1.19A3.58,3.58,0,0,0,43,38.1a3.47,3.47,0,0,0,1.5,3,6.9,6.9,0,0,0,4.1,1.08,6.87,6.87,0,0,0,4.09-1.08,3.47,3.47,0,0,0,1.5-3,3.51,3.51,0,0,0-.66-2.16A3.46,3.46,0,0,0,51.67,34.71Zm-3.05,4.66c-1.46,0-2.19-.52-2.19-1.57s.73-1.57,2.19-1.57,2.19.53,2.19,1.57S50.08,39.37,48.62,39.37Zm0-8.93a2.15,2.15,0,0,1,1.34.35,1.37,1.37,0,0,1,.45,1.14A1.41,1.41,0,0,1,50,33.08a2.69,2.69,0,0,1-2.69,0,1.4,1.4,0,0,1-.44-1.15,1.37,1.37,0,0,1,.44-1.14A2.16,2.16,0,0,1,48.62,30.44Z"/></svg>