<svg id="Layer_1" data-name="Layer 1" xmlns="http://www.w3.org/2000/svg" viewBox="0 0 98.14 95.96"><title>l1_5_1</title><path d="M59.18,79.1a3.06,3.06,0,0,1,1,2.35,3.17,3.17,0,0,1-1,2.35,3.24,3.24,0,0,1-4.7,0l-6-6-6,6a3.15,3.15,0,0,1-2.35,1,3.43,3.43,0,0,1-2.35-1,3.26,3.26,0,0,1,0-4.7l6-6-6-6a3.46,3.46,0,0,1-1-2.35,3.3,3.3,0,0,1,1-2.41,2.93,2.93,0,0,1,2.29-1,3.25,3.25,0,0,1,2.35,1.06l6,6,6-6a3.24,3.24,0,0,1,2.35-1,3.11,3.11,0,0,1,2.35,1,2.94,2.94,0,0,1,1,2.29,3.29,3.29,0,0,1-1,2.41l-6,6Z"/><path d="M98.14,56V89.59A6.37,6.37,0,0,1,91.77,96h-20a6.37,6.37,0,0,1-6.37-6.37V55.76L59,46.34h-20L32.71,55.7V89.59A6.37,6.37,0,0,1,26.34,96h-20A6.37,6.37,0,0,1,0,89.59V56a6.37,6.37,0,0,1,6.37-6.36H25l7.73-11.39V6.37A6.37,6.37,0,0,1,39.08,0h20a6.37,6.37,0,0,1,6.36,6.37V38.29l7.69,11.33H91.77A6.37,6.37,0,0,1,98.14,56ZM20.05,64.22h-1.6V55a1.62,1.62,0,0,0-1.73-1.74,3.34,3.34,0,0,0-1.62.49L12,55.54a1.32,1.32,0,0,0-.68,1.21,1.66,1.66,0,0,0,.39,1.07,1.18,1.18,0,0,0,.93.47,1.3,1.3,0,0,0,.68-.19l1.56-.92v7H13.28a2,2,0,0,0-1.28.35,1.31,1.31,0,0,0-.41,1.06c0,1,.56,1.44,1.69,1.44h6.77c1.13,0,1.7-.48,1.7-1.44a1.34,1.34,0,0,0-.41-1.06A2,2,0,0,0,20.05,64.22Zm-2.88,18.5a3.85,3.85,0,0,0-1.7.37,3.17,3.17,0,0,0-1.23,1A5.4,5.4,0,0,1,15,81.48a1.93,1.93,0,0,1,1.66-.93,2.58,2.58,0,0,1,.92.16,10.62,10.62,0,0,1,1.11.48l.44.22a6,6,0,0,0,.61.29,1.28,1.28,0,0,0,.5.09,1.05,1.05,0,0,0,.85-.43,1.6,1.6,0,0,0,.36-1.06,1.48,1.48,0,0,0-.16-.7,1.63,1.63,0,0,0-.49-.54,6.38,6.38,0,0,0-2-1,7.81,7.81,0,0,0-2.3-.36,5.39,5.39,0,0,0-3.13.91,5.83,5.83,0,0,0-2.07,2.58,9.74,9.74,0,0,0-.74,3.93,8,8,0,0,0,1.55,5.27,5.4,5.4,0,0,0,4.39,1.85A5.23,5.23,0,0,0,19,91.61a4.53,4.53,0,0,0,1.76-1.74A5.33,5.33,0,0,0,20.86,85a4.18,4.18,0,0,0-1.52-1.65A4.08,4.08,0,0,0,17.17,82.72Zm-.92,6.68A1.6,1.6,0,0,1,15,88.86a2.24,2.24,0,0,1,0-2.76,1.76,1.76,0,0,1,2.51,0,2.05,2.05,0,0,1,.46,1.4,2,2,0,0,1-.47,1.38A1.57,1.57,0,0,1,16.25,89.4ZM29.32,72.14a2,2,0,0,0-1.86-1.75H5a2.18,2.18,0,0,0-2.35,2.25A2.15,2.15,0,0,0,5,74.25H27.46A2,2,0,0,0,29.32,72.14Zm59-11.68H74.6a3.44,3.44,0,0,0-2.31.65,2.45,2.45,0,0,0-.73,1.94,2.41,2.41,0,0,0,.71,1.89,3.51,3.51,0,0,0,2.33.63h8.75l-9,15.37a3.28,3.28,0,0,0-.49,1.68,2.57,2.57,0,0,0,.94,2,3.21,3.21,0,0,0,2.17.82,3,3,0,0,0,1.49-.4,3.28,3.28,0,0,0,1.21-1.24l10.6-18.38A4.38,4.38,0,0,0,91,63.12a2.69,2.69,0,0,0-.69-1.9A2.49,2.49,0,0,0,88.32,60.46ZM53,3.37H45.32A1.86,1.86,0,0,0,44,3.74a1.37,1.37,0,0,0-.41,1.08,1.3,1.3,0,0,0,.4,1,1.93,1.93,0,0,0,1.3.35h4.87l-5,8.56a1.9,1.9,0,0,0-.27.94,1.42,1.42,0,0,0,.52,1.12,1.78,1.78,0,0,0,1.21.46,1.64,1.64,0,0,0,.83-.22,1.74,1.74,0,0,0,.67-.7L54.05,6.14a2.44,2.44,0,0,0,.38-1.28,1.56,1.56,0,0,0-.38-1.07A1.41,1.41,0,0,0,53,3.37ZM51.62,34.8a3.22,3.22,0,0,0,1.6-1.21,3.39,3.39,0,0,0,.58-1.94,3.55,3.55,0,0,0-.62-2.06,3.9,3.9,0,0,0-1.75-1.36,6.65,6.65,0,0,0-2.62-.49,8.16,8.16,0,0,0-2.39.37,6.69,6.69,0,0,0-2,1,1.4,1.4,0,0,0-.62,1.25,1.66,1.66,0,0,0,.34,1.06,1.07,1.07,0,0,0,.85.43,1.35,1.35,0,0,0,.5-.09c.15-.06.35-.16.6-.29l.42-.21a11.58,11.58,0,0,1,1.1-.48,3.06,3.06,0,0,1,1.06-.18,1.73,1.73,0,0,1,1.22.41,1.5,1.5,0,0,1,.45,1.16,1.14,1.14,0,0,1-.51,1,3.11,3.11,0,0,1-1.61.32H47.3a1.17,1.17,0,0,0-.95.42,1.66,1.66,0,0,0,0,2,1.17,1.17,0,0,0,.95.42h1.25a3.13,3.13,0,0,1,1.65.34,1.29,1.29,0,0,1,.5,1.13,1.43,1.43,0,0,1-.49,1.21,2.81,2.81,0,0,1-1.62.36,3.77,3.77,0,0,1-1.16-.17,9.22,9.22,0,0,1-1.16-.49L46,38.64l-.19-.09a5.49,5.49,0,0,0-.6-.3,1.36,1.36,0,0,0-.51-.09,1,1,0,0,0-.84.44,1.62,1.62,0,0,0-.34,1,1.68,1.68,0,0,0,.14.7,1.59,1.59,0,0,0,.48.55,6.45,6.45,0,0,0,2.09,1,8.82,8.82,0,0,0,2.52.36,7.5,7.5,0,0,0,2.84-.5,4.19,4.19,0,0,0,1.88-1.39,3.5,3.5,0,0,0,.67-2.14,3.57,3.57,0,0,0-.68-2.19A3.46,3.46,0,0,0,51.62,34.8Zm10.8-12.61a2,2,0,0,0-1.86-1.75H38.08a2.19,2.19,0,0,0-2.36,2.26,2.16,2.16,0,0,0,2.36,1.6H60.56A2,2,0,0,0,62.42,22.19Z"/></svg>