<svg id="Layer_1" data-name="Layer 1" xmlns="http://www.w3.org/2000/svg" viewBox="0 0 98.14 95.96"><title>l1_5_1</title><path d="M59.81,79.68A3.1,3.1,0,0,1,60.76,82a3.29,3.29,0,0,1-5.65,2.35l-6-6-6,6a3.22,3.22,0,0,1-2.35,1,3.46,3.46,0,0,1-2.35-1,3.24,3.24,0,0,1,0-4.7l6-6-6-6a3.44,3.44,0,0,1-.95-2.34,3.25,3.25,0,0,1,1-2.41,2.92,2.92,0,0,1,2.29-1A3.26,3.26,0,0,1,43,63l6,6,6-6a3.22,3.22,0,0,1,2.35-1,3.12,3.12,0,0,1,2.35,1,2.92,2.92,0,0,1,1,2.29,3.27,3.27,0,0,1-1,2.4l-6,6Z"/><path d="M98.14,56V89.59A6.37,6.37,0,0,1,91.77,96h-20a6.37,6.37,0,0,1-6.37-6.37V55.76L59,46.34h-20L32.71,55.7V89.59A6.37,6.37,0,0,1,26.34,96h-20A6.37,6.37,0,0,1,0,89.59V56a6.37,6.37,0,0,1,6.37-6.36H25l7.73-11.39V6.37A6.37,6.37,0,0,1,39.08,0h20a6.37,6.37,0,0,1,6.36,6.37V38.29l7.69,11.33H91.77A6.37,6.37,0,0,1,98.14,56ZM20.05,64.22h-1.6V55a1.63,1.63,0,0,0-1.73-1.74,3.34,3.34,0,0,0-1.62.49L12,55.54a1.33,1.33,0,0,0-.69,1.21,1.66,1.66,0,0,0,.39,1.07,1.2,1.2,0,0,0,.94.47,1.32,1.32,0,0,0,.68-.19l1.56-.92v7H13.28a2,2,0,0,0-1.28.35,1.31,1.31,0,0,0-.41,1.06c0,1,.56,1.44,1.69,1.44h6.77c1.13,0,1.7-.48,1.7-1.44a1.34,1.34,0,0,0-.41-1.06A2,2,0,0,0,20.05,64.22ZM18.52,84.75a3.23,3.23,0,0,0,1.6-1.22,3.34,3.34,0,0,0,.57-1.94,3.49,3.49,0,0,0-.61-2,4,4,0,0,0-1.75-1.37,6.74,6.74,0,0,0-2.63-.48,8.08,8.08,0,0,0-2.38.36,6.49,6.49,0,0,0-2,1,1.41,1.41,0,0,0-.63,1.24A1.65,1.65,0,0,0,11,81.36a1,1,0,0,0,.84.43,1.28,1.28,0,0,0,.5-.09,6,6,0,0,0,.61-.29l.42-.2a10.56,10.56,0,0,1,1.1-.48,3,3,0,0,1,1-.18,1.73,1.73,0,0,1,1.23.41,1.51,1.51,0,0,1,.44,1.16,1.13,1.13,0,0,1-.5,1,3,3,0,0,1-1.61.32h-.89a1.13,1.13,0,0,0-.94.43,1.52,1.52,0,0,0-.34,1,1.56,1.56,0,0,0,.34,1,1.15,1.15,0,0,0,.94.42h1.25a3,3,0,0,1,1.65.34,1.25,1.25,0,0,1,.5,1.13A1.38,1.38,0,0,1,17.1,89a2.73,2.73,0,0,1-1.62.37,3.53,3.53,0,0,1-1.16-.18,7.87,7.87,0,0,1-1.15-.49l-.25-.11-.19-.09c-.26-.13-.46-.23-.61-.29a1.31,1.31,0,0,0-.5-.09,1,1,0,0,0-.85.43,1.7,1.7,0,0,0-.34,1.06,1.6,1.6,0,0,0,.14.69,1.56,1.56,0,0,0,.49.55,6.18,6.18,0,0,0,2.09,1,9.06,9.06,0,0,0,2.51.35,7.53,7.53,0,0,0,2.85-.49,4.26,4.26,0,0,0,1.88-1.4,3.5,3.5,0,0,0,.66-2.13A3.54,3.54,0,0,0,20.38,86,3.41,3.41,0,0,0,18.52,84.75Zm10.8-12.61a2,2,0,0,0-1.86-1.75H5a2.18,2.18,0,0,0-2.35,2.25A2.15,2.15,0,0,0,5,74.25H27.46A2,2,0,0,0,29.32,72.14ZM53.16,14.28h-1.6V5a1.71,1.71,0,0,0-.48-1.27,1.73,1.73,0,0,0-1.26-.46,3.35,3.35,0,0,0-1.62.48L45.08,5.6a1.32,1.32,0,0,0-.68,1.21,1.64,1.64,0,0,0,.39,1.06,1.17,1.17,0,0,0,.94.48,1.34,1.34,0,0,0,.68-.2L48,7.24v7H46.39a1.93,1.93,0,0,0-1.29.35,1.31,1.31,0,0,0-.41,1c0,1,.57,1.45,1.7,1.45h6.77c1.13,0,1.69-.49,1.69-1.45a1.27,1.27,0,0,0-.41-1A1.9,1.9,0,0,0,53.16,14.28ZM51.62,34.8a3.22,3.22,0,0,0,1.6-1.21,3.39,3.39,0,0,0,.58-1.94,3.55,3.55,0,0,0-.62-2.06,3.9,3.9,0,0,0-1.75-1.36,6.65,6.65,0,0,0-2.62-.49,8.16,8.16,0,0,0-2.39.37,6.69,6.69,0,0,0-2,1,1.4,1.4,0,0,0-.62,1.25,1.66,1.66,0,0,0,.34,1.06,1.07,1.07,0,0,0,.85.43,1.35,1.35,0,0,0,.5-.09c.15-.06.35-.16.6-.29l.42-.21a11.58,11.58,0,0,1,1.1-.48,3.06,3.06,0,0,1,1.06-.18,1.73,1.73,0,0,1,1.22.41,1.5,1.5,0,0,1,.45,1.16,1.14,1.14,0,0,1-.51,1,3.11,3.11,0,0,1-1.61.32H47.3a1.17,1.17,0,0,0-.95.42,1.66,1.66,0,0,0,0,2,1.17,1.17,0,0,0,.95.42h1.25a3.13,3.13,0,0,1,1.65.34,1.29,1.29,0,0,1,.5,1.13,1.43,1.43,0,0,1-.49,1.21,2.81,2.81,0,0,1-1.62.36,3.77,3.77,0,0,1-1.16-.17,9.22,9.22,0,0,1-1.16-.49L46,38.64l-.19-.09a5.49,5.49,0,0,0-.6-.3,1.36,1.36,0,0,0-.51-.09,1,1,0,0,0-.84.44,1.62,1.62,0,0,0-.34,1,1.68,1.68,0,0,0,.14.7,1.59,1.59,0,0,0,.48.55,6.45,6.45,0,0,0,2.09,1,8.82,8.82,0,0,0,2.52.36,7.5,7.5,0,0,0,2.84-.5,4.19,4.19,0,0,0,1.88-1.39,3.5,3.5,0,0,0,.67-2.14,3.57,3.57,0,0,0-.68-2.19A3.46,3.46,0,0,0,51.62,34.8Zm10.8-12.61a2,2,0,0,0-1.86-1.75H38.08a2.19,2.19,0,0,0-2.36,2.26,2.16,2.16,0,0,0,2.36,1.6H60.56A2,2,0,0,0,62.42,22.19ZM83,69a8.78,8.78,0,0,0-3.47.63v-4.3h7.56c2,0,3-.82,3-2.45s-1-2.42-3-2.42H76.21a2.69,2.69,0,0,0-3,3V73a1.91,1.91,0,0,0,.66,1.52,2.39,2.39,0,0,0,1.65.58,3.29,3.29,0,0,0,1.57-.39,13.13,13.13,0,0,1,2-.63A10.2,10.2,0,0,1,81,73.87a4,4,0,0,1,2.73.87,3.1,3.1,0,0,1,1,2.45,3,3,0,0,1-.94,2.47,4.46,4.46,0,0,1-2.91.79A5.76,5.76,0,0,1,79,80.13a19.68,19.68,0,0,1-2-.84l-.7-.35a10.74,10.74,0,0,0-1-.52,2.4,2.4,0,0,0-.87-.14,1.79,1.79,0,0,0-1.47.75,2.87,2.87,0,0,0-.6,1.84,2.67,2.67,0,0,0,.26,1.21,3,3,0,0,0,.83,1A11.44,11.44,0,0,0,77,84.79a14.53,14.53,0,0,0,4.25.63,11.32,11.32,0,0,0,5-1,7.81,7.81,0,0,0,3.36-3A8.2,8.2,0,0,0,90.77,77a8.39,8.39,0,0,0-1-4.15A7.08,7.08,0,0,0,87,70,8.15,8.15,0,0,0,83,69Z"/></svg>