<svg id="Layer_1" data-name="Layer 1" xmlns="http://www.w3.org/2000/svg" viewBox="0 0 98.14 95.96"><title>l1_5_1</title><path d="M59.81,81.22a3.1,3.1,0,0,1,.95,2.35,3.29,3.29,0,0,1-5.65,2.35l-6-6-6,6a3.2,3.2,0,0,1-2.35,1,3.46,3.46,0,0,1-2.35-1,3.26,3.26,0,0,1,0-4.7l6-6-6-6a3.44,3.44,0,0,1-.95-2.35,3.28,3.28,0,0,1,1-2.4,2.92,2.92,0,0,1,2.29-1A3.26,3.26,0,0,1,43,64.5l6,6,6-6a3.18,3.18,0,0,1,2.35-1,3.09,3.09,0,0,1,2.35,1,2.92,2.92,0,0,1,1,2.29,3.28,3.28,0,0,1-1,2.4l-6,6Z"/><path d="M98.12,56V89.63A6.37,6.37,0,0,1,91.75,96h-20a6.37,6.37,0,0,1-6.37-6.36V55.8L59,46.38h-20L32.7,55.73v33.9A6.37,6.37,0,0,1,26.33,96h-20A6.36,6.36,0,0,1,0,89.63V56a6.37,6.37,0,0,1,6.36-6.37H25L32.7,38.26V6.4A6.37,6.37,0,0,1,39.07,0H59A6.37,6.37,0,0,1,65.41,6.4V38.33L73.1,49.65H91.75A6.37,6.37,0,0,1,98.12,56ZM52.88,14.07H51.23V4.54a1.74,1.74,0,0,0-.49-1.31,1.78,1.78,0,0,0-1.3-.48,3.36,3.36,0,0,0-1.67.5L44.55,5.12a1.36,1.36,0,0,0-.7,1.25,1.67,1.67,0,0,0,.4,1.09,1.21,1.21,0,0,0,1,.49,1.31,1.31,0,0,0,.7-.2l1.61-.94v7.26H45.9a2,2,0,0,0-1.33.36,1.35,1.35,0,0,0-.42,1.09c0,1,.59,1.49,1.75,1.49h7c1.17,0,1.75-.5,1.75-1.49a1.35,1.35,0,0,0-.42-1.09A2,2,0,0,0,52.88,14.07ZM85.59,64.69H83.94V55.15a1.72,1.72,0,0,0-.49-1.3,1.75,1.75,0,0,0-1.3-.49,3.38,3.38,0,0,0-1.67.51l-3.22,1.87a1.37,1.37,0,0,0-.7,1.24,1.73,1.73,0,0,0,.4,1.1,1.21,1.21,0,0,0,1,.49,1.29,1.29,0,0,0,.7-.2l1.61-.94v7.26H78.61a2,2,0,0,0-1.32.36,1.33,1.33,0,0,0-.43,1.09c0,1,.59,1.48,1.75,1.48h7c1.17,0,1.75-.49,1.75-1.48a1.35,1.35,0,0,0-.42-1.09A2,2,0,0,0,85.59,64.69ZM82.36,82.81a5.05,5.05,0,0,0-2,.36V80.7h4.35c1.16,0,1.75-.47,1.75-1.41s-.59-1.39-1.75-1.39H78.48a1.71,1.71,0,0,0-1.27.45,1.74,1.74,0,0,0-.44,1.28v5.46a1.11,1.11,0,0,0,.38.87,1.41,1.41,0,0,0,.95.33,1.87,1.87,0,0,0,.9-.22,8.15,8.15,0,0,1,1.16-.36,5.25,5.25,0,0,1,1.09-.1,2.32,2.32,0,0,1,1.58.5,1.82,1.82,0,0,1,.56,1.41,1.73,1.73,0,0,1-.55,1.42,2.56,2.56,0,0,1-1.67.45,3.31,3.31,0,0,1-1.11-.18,11.91,11.91,0,0,1-1.14-.48l-.4-.21-.6-.3a1.52,1.52,0,0,0-.51-.08,1,1,0,0,0-.84.44,1.62,1.62,0,0,0-.34,1,1.47,1.47,0,0,0,.15.69,1.85,1.85,0,0,0,.47.56,6.59,6.59,0,0,0,2.06,1,8.13,8.13,0,0,0,2.45.37,6.55,6.55,0,0,0,2.87-.61,4.47,4.47,0,0,0,1.93-1.71A5.11,5.11,0,0,0,86.27,85a4,4,0,0,0-1.59-1.61A4.54,4.54,0,0,0,82.36,82.81ZM20,64.26h-1.6V55A1.71,1.71,0,0,0,18,53.74a1.73,1.73,0,0,0-1.26-.46,3.38,3.38,0,0,0-1.62.48L12,55.58a1.32,1.32,0,0,0-.68,1.21,1.64,1.64,0,0,0,.39,1.06,1.17,1.17,0,0,0,.94.48,1.34,1.34,0,0,0,.68-.2l1.56-.91v7H13.27a2,2,0,0,0-1.29.35,1.3,1.3,0,0,0-.4,1c0,1,.56,1.44,1.69,1.44H20c1.13,0,1.7-.48,1.7-1.44a1.31,1.31,0,0,0-.41-1A2,2,0,0,0,20,64.26Zm-3.1,18.55a5,5,0,0,0-2,.36V80.7h4.34c1.17,0,1.75-.47,1.75-1.41s-.58-1.39-1.75-1.39H13.06a1.68,1.68,0,0,0-1.27.45,1.71,1.71,0,0,0-.45,1.28v5.46a1.08,1.08,0,0,0,.39.87,1.38,1.38,0,0,0,.94.33,1.88,1.88,0,0,0,.91-.22,7.78,7.78,0,0,1,1.16-.36,5.19,5.19,0,0,1,1.09-.1,2.31,2.31,0,0,1,1.57.5A1.82,1.82,0,0,1,18,87.52a1.75,1.75,0,0,1-.54,1.42,2.58,2.58,0,0,1-1.67.45,3.42,3.42,0,0,1-1.12-.18,10.83,10.83,0,0,1-1.13-.48l-.41-.21q-.39-.21-.6-.3a1.41,1.41,0,0,0-.5-.08,1,1,0,0,0-.85.44,1.67,1.67,0,0,0-.34,1,1.47,1.47,0,0,0,.15.69,1.75,1.75,0,0,0,.48.56,6.48,6.48,0,0,0,2.06,1,8.11,8.11,0,0,0,2.44.37,6.56,6.56,0,0,0,2.88-.61,4.53,4.53,0,0,0,1.93-1.71,4.79,4.79,0,0,0,.68-2.55A4.84,4.84,0,0,0,20.85,85a4,4,0,0,0-1.59-1.61A4.57,4.57,0,0,0,16.94,82.81ZM62.78,22h0a2.14,2.14,0,0,0-2.14-2.14H37.47A2.14,2.14,0,0,0,35.33,22h0a2.14,2.14,0,0,0,2.14,2.15H60.64A2.14,2.14,0,0,0,62.78,22ZM29.68,72.51h0a2.15,2.15,0,0,0-2.15-2.15H4.37a2.15,2.15,0,0,0-2.15,2.15h0a2.14,2.14,0,0,0,2.15,2.14H27.53A2.14,2.14,0,0,0,29.68,72.51Zm66.42,0h0A2.14,2.14,0,0,0,94,70.36H70.79a2.14,2.14,0,0,0-2.14,2.15h0a2.14,2.14,0,0,0,2.14,2.14H94A2.14,2.14,0,0,0,96.1,72.51ZM46.31,39.07h-4l2.86-2.92a9.4,9.4,0,0,0,1.68-2.26,5,5,0,0,0,.49-2.24,3.75,3.75,0,0,0-.61-2.1A4,4,0,0,0,45,28.14a6.48,6.48,0,0,0-2.62-.49A7.89,7.89,0,0,0,40,28a7.67,7.67,0,0,0-2.12,1,1.38,1.38,0,0,0-.5.53,1.82,1.82,0,0,0-.13.72,1.75,1.75,0,0,0,.35,1.08,1,1,0,0,0,.84.45,1.21,1.21,0,0,0,.38-.06,2.86,2.86,0,0,0,.41-.19,2.76,2.76,0,0,1,.32-.17l.4-.2a10.77,10.77,0,0,1,1.13-.5,3.4,3.4,0,0,1,1.08-.17,1.6,1.6,0,0,1,1.12.36,1.36,1.36,0,0,1,.39,1.05,3.87,3.87,0,0,1-1.33,2.55l-4.26,4.45a2.19,2.19,0,0,0-.69,1.57,1.45,1.45,0,0,0,.43,1.09A1.51,1.51,0,0,0,39,42h7.34a2,2,0,0,0,1.32-.37,1.36,1.36,0,0,0,.43-1.12,1.33,1.33,0,0,0-.43-1.1A2.1,2.1,0,0,0,46.31,39.07Zm9.34-6.34a4.84,4.84,0,0,0-2,.37V30.62H58c1.17,0,1.75-.47,1.75-1.41s-.58-1.38-1.75-1.38H51.76a1.67,1.67,0,0,0-1.26.44,1.71,1.71,0,0,0-.45,1.29V35a1.08,1.08,0,0,0,.39.87,1.38,1.38,0,0,0,.94.33,1.91,1.91,0,0,0,.91-.22,8.07,8.07,0,0,1,1.15-.36,5.35,5.35,0,0,1,1.1-.1,2.31,2.31,0,0,1,1.57.5,1.82,1.82,0,0,1,.56,1.41,1.75,1.75,0,0,1-.54,1.42,2.58,2.58,0,0,1-1.67.45,3.42,3.42,0,0,1-1.12-.18,10.83,10.83,0,0,1-1.13-.48l-.41-.2c-.26-.15-.47-.25-.6-.31a1.41,1.41,0,0,0-.5-.08,1,1,0,0,0-.85.44,1.69,1.69,0,0,0-.34,1,1.54,1.54,0,0,0,.15.7,1.73,1.73,0,0,0,.48.55,6.71,6.71,0,0,0,2.06,1,8.43,8.43,0,0,0,2.44.36,6.42,6.42,0,0,0,2.88-.61,4.53,4.53,0,0,0,1.93-1.71,4.76,4.76,0,0,0,.68-2.55,4.84,4.84,0,0,0-.57-2.38A4,4,0,0,0,58,33.31,4.67,4.67,0,0,0,55.65,32.73Z"/></svg>