<svg id="Layer_1" data-name="Layer 1" xmlns="http://www.w3.org/2000/svg" viewBox="0 0 98.14 95.96"><title>l1_5_1</title><path d="M59.56,78.24a3.1,3.1,0,0,1,.95,2.35,3.28,3.28,0,0,1-5.65,2.35l-6-6-6,6a3.22,3.22,0,0,1-2.35,1,3.46,3.46,0,0,1-2.35-1,3.24,3.24,0,0,1,0-4.7l6-6-6-6a3.46,3.46,0,0,1-.95-2.35,3.26,3.26,0,0,1,1-2.41,2.92,2.92,0,0,1,2.29-1,3.25,3.25,0,0,1,2.35,1.06l6,6,6-6a3.22,3.22,0,0,1,2.35-1,3.12,3.12,0,0,1,2.35,1,2.93,2.93,0,0,1,1,2.29,3.29,3.29,0,0,1-1,2.41l-6,6Z"/><path d="M98.14,56V89.59A6.37,6.37,0,0,1,91.77,96h-20a6.37,6.37,0,0,1-6.37-6.37V55.76L59,46.34h-20L32.71,55.7V89.59A6.37,6.37,0,0,1,26.34,96h-20A6.37,6.37,0,0,1,0,89.59V56a6.37,6.37,0,0,1,6.37-6.36H25l7.73-11.39V6.37A6.37,6.37,0,0,1,39.08,0h20a6.37,6.37,0,0,1,6.36,6.37V38.29l7.69,11.33H91.77A6.37,6.37,0,0,1,98.14,56Zm-78.6,8.24H15.62l2.76-2.82A8.86,8.86,0,0,0,20,59.2,4.9,4.9,0,0,0,20.49,57a3.62,3.62,0,0,0-.59-2,3.85,3.85,0,0,0-1.69-1.37,6.26,6.26,0,0,0-2.54-.48,7.44,7.44,0,0,0-2.25.36,7.66,7.66,0,0,0-2.06,1,1.31,1.31,0,0,0-.47.51,1.56,1.56,0,0,0-.13.7,1.68,1.68,0,0,0,.33,1,1,1,0,0,0,.82.44,1.15,1.15,0,0,0,.37-.06,1.92,1.92,0,0,0,.4-.18l.3-.17.39-.19a10,10,0,0,1,1.1-.48,3.21,3.21,0,0,1,1-.17,1.5,1.5,0,0,1,1.08.36,1.31,1.31,0,0,1,.38,1,3.81,3.81,0,0,1-1.29,2.48l-4.13,4.31a2.13,2.13,0,0,0-.66,1.52,1.46,1.46,0,0,0,.4,1.06,1.51,1.51,0,0,0,1.12.42h7.12a2,2,0,0,0,1.27-.35,1.34,1.34,0,0,0,.42-1.09,1.31,1.31,0,0,0-.42-1.07A2,2,0,0,0,19.54,64.22Zm.16,24.89h-4l2.86-2.91a9.6,9.6,0,0,0,1.68-2.26,5.08,5.08,0,0,0,.49-2.25,3.67,3.67,0,0,0-.61-2.1,4,4,0,0,0-1.74-1.41,6.45,6.45,0,0,0-2.62-.49,8.11,8.11,0,0,0-4.44,1.37,1.26,1.26,0,0,0-.49.52,1.69,1.69,0,0,0-.14.73A1.72,1.72,0,0,0,11,81.38a1,1,0,0,0,.84.45,1.16,1.16,0,0,0,.38-.06,2.42,2.42,0,0,0,.42-.19l.31-.17.4-.2a9.75,9.75,0,0,1,1.14-.49,3,3,0,0,1,1.07-.17,1.59,1.59,0,0,1,1.12.36,1.35,1.35,0,0,1,.39,1,3.91,3.91,0,0,1-1.33,2.56L11.47,89a2.2,2.2,0,0,0-.68,1.57,1.52,1.52,0,0,0,.42,1.1,1.51,1.51,0,0,0,1.14.43H19.7A2,2,0,0,0,21,91.69a1.39,1.39,0,0,0,.44-1.13A1.32,1.32,0,0,0,21,89.47,2,2,0,0,0,19.7,89.11Zm9.62-17a2,2,0,0,0-1.86-1.75H5a2.18,2.18,0,0,0-2.35,2.25A2.15,2.15,0,0,0,5,74.25H27.46A2,2,0,0,0,29.32,72.14ZM56.05,31.27H48l5.68-5.8A18.59,18.59,0,0,0,57,21a10.13,10.13,0,0,0,1-4.46,7.36,7.36,0,0,0-1.22-4.18,7.81,7.81,0,0,0-3.46-2.8,12.93,12.93,0,0,0-5.2-1,16.28,16.28,0,0,0-8.84,2.72,2.65,2.65,0,0,0-1,1,3.47,3.47,0,0,0-.26,1.44,3.46,3.46,0,0,0,.68,2.14,2,2,0,0,0,1.68.9,2.37,2.37,0,0,0,.76-.12,5.19,5.19,0,0,0,.82-.38c.31-.17.51-.29.62-.34l.8-.4a19.36,19.36,0,0,1,2.26-1,6.4,6.4,0,0,1,2.14-.34A3.15,3.15,0,0,1,50,15,2.69,2.69,0,0,1,50.81,17q0,2.32-2.64,5.08L39.69,31a4.36,4.36,0,0,0-1.36,3.12,3,3,0,0,0,.84,2.18,3.05,3.05,0,0,0,2.28.86h14.6a4,4,0,0,0,2.62-.72,2.77,2.77,0,0,0,.86-2.24A2.66,2.66,0,0,0,58.67,32,4.08,4.08,0,0,0,56.05,31.27ZM81.21,77.08a2,2,0,0,0,1.28-.42,1.83,1.83,0,0,0,.68-1.19A3.33,3.33,0,0,1,84,74.05a17.17,17.17,0,0,1,1.77-1.62c.82-.73,1.48-1.34,2-1.86A7.09,7.09,0,0,0,89,68.72a5.3,5.3,0,0,0,.54-2.38,5.18,5.18,0,0,0-1-3.14A6.78,6.78,0,0,0,85.76,61a10,10,0,0,0-4.06-.78,13.16,13.16,0,0,0-4,.64,12.75,12.75,0,0,0-3.59,1.81,3,3,0,0,0-.85.94A2.54,2.54,0,0,0,73,64.87a2.8,2.8,0,0,0,.62,1.83,1.82,1.82,0,0,0,1.48.76A4.22,4.22,0,0,0,77,66.79l.84-.42a12.81,12.81,0,0,1,1.77-.86,4.61,4.61,0,0,1,1.59-.29,2.39,2.39,0,0,1,1.54.45,1.52,1.52,0,0,1,.56,1.23,2.62,2.62,0,0,1-.4,1.4,11.16,11.16,0,0,1-1.21,1.5,11.23,11.23,0,0,0-1.75,2.26,5.46,5.46,0,0,0-.63,2.75,2.52,2.52,0,0,0,.51,1.68A1.76,1.76,0,0,0,81.21,77.08Zm.07,8.37a3.29,3.29,0,0,0,2.44-1,3.52,3.52,0,0,0,0-4.83,3.26,3.26,0,0,0-2.44-1,3.19,3.19,0,0,0-2.39,1,3.49,3.49,0,0,0,0,4.83A3.23,3.23,0,0,0,81.28,85.45Z"/></svg>