<svg id="Layer_1" data-name="Layer 1" xmlns="http://www.w3.org/2000/svg" viewBox="0 0 100 100"><title>s1_1</title><path d="M83.51,100H16.44A16.47,16.47,0,0,1,0,83.5V16.44A16.47,16.47,0,0,1,16.44,0H83.51A16.46,16.46,0,0,1,100,16.44V83.5A16.46,16.46,0,0,1,83.51,100Zm-8.39-58.6H56.85V23.1A8.61,8.61,0,0,0,42.21,17a8.24,8.24,0,0,0-2.47,6.09V41.37H21.47a8.4,8.4,0,0,0-8.55,8.55,8.53,8.53,0,0,0,2.46,6.17,8.17,8.17,0,0,0,6.09,2.53H39.74V76.75A8.42,8.42,0,0,0,48.3,85.3a8.21,8.21,0,0,0,6.16-2.46,8.37,8.37,0,0,0,2.39-6.09V58.62H75.12a8.14,8.14,0,0,0,6.09-2.53,8.5,8.5,0,0,0,2.47-6.17,8.42,8.42,0,0,0-8.56-8.55Z"/></svg>