<svg id="Layer_1" data-name="Layer 1" xmlns="http://www.w3.org/2000/svg" viewBox="0 0 100 100"><title>s1_1</title><path d="M83.53,100H16.47A16.47,16.47,0,0,1,0,83.5V16.44A16.47,16.47,0,0,1,16.47,0H83.53A16.47,16.47,0,0,1,100,16.44V83.5A16.47,16.47,0,0,1,83.53,100ZM61.94,50.64,77.6,35.12a8.51,8.51,0,0,0,2.61-6.23,7.61,7.61,0,0,0-2.61-5.95,8.06,8.06,0,0,0-6.09-2.61,8.35,8.35,0,0,0-6.09,2.61L49.76,38.6,34.1,22.94A8.49,8.49,0,0,0,28,20.19a7.61,7.61,0,0,0-6,2.61A8.51,8.51,0,0,0,19.45,29a8.93,8.93,0,0,0,2.47,6.09L37.58,50.64,21.92,66.3a8.41,8.41,0,0,0,0,12.18A8.92,8.92,0,0,0,28,80.94a8.3,8.3,0,0,0,6.09-2.46L49.76,62.82,65.42,78.48a8.55,8.55,0,0,0,14.64-6.09A8,8,0,0,0,77.6,66.3Z"/></svg>