<svg id="Layer_1" data-name="Layer 1" xmlns="http://www.w3.org/2000/svg" viewBox="0 0 100 100"><title>s1_3</title><path d="M83.53,100H16.47A16.47,16.47,0,0,1,0,83.53V16.47A16.47,16.47,0,0,1,16.47,0H83.53A16.47,16.47,0,0,1,100,16.47V83.53A16.47,16.47,0,0,1,83.53,100ZM52.6,41.7a8.36,8.36,0,0,0,7.15-3.33q2.46-3.32,2.47-9.62t-2.49-9.58a8.37,8.37,0,0,0-7.13-3.33,8.37,8.37,0,0,0-7.16,3.33Q43,22.49,43,28.75t2.47,9.62A8.37,8.37,0,0,0,52.6,41.7Zm0-5a2.56,2.56,0,0,1-2.47-1.86,17.85,17.85,0,0,1-.75-6.12,17.71,17.71,0,0,1,.75-6.1,2.57,2.57,0,0,1,4.93,0,17.65,17.65,0,0,1,.76,6.08,17.79,17.79,0,0,1-.76,6.12A2.56,2.56,0,0,1,52.6,36.73Zm15.59,4.86a3.29,3.29,0,0,0,2.45-1,3.59,3.59,0,0,0,0-4.93,3.3,3.3,0,0,0-2.45-1,3.4,3.4,0,0,0-3.47,3.47,3.41,3.41,0,0,0,1,2.47A3.35,3.35,0,0,0,68.19,41.59Zm17.35-16.7a8.92,8.92,0,0,0-3.54.64v-4.4h7.72c2.08,0,3.11-.83,3.11-2.5s-1-2.47-3.11-2.47H78.63a3,3,0,0,0-2.25.79,3.12,3.12,0,0,0-.79,2.29v9.69a2,2,0,0,0,.68,1.56,2.51,2.51,0,0,0,1.68.59,3.31,3.31,0,0,0,1.61-.4A12.94,12.94,0,0,1,81.62,30a9.66,9.66,0,0,1,1.95-.18,4,4,0,0,1,2.79.9,3.16,3.16,0,0,1,1,2.5,3.12,3.12,0,0,1-1,2.52,4.58,4.58,0,0,1-3,.81,5.81,5.81,0,0,1-2-.33,20.31,20.31,0,0,1-2-.85l-.71-.36q-.72-.39-1.08-.54a2.52,2.52,0,0,0-.89-.14,1.81,1.81,0,0,0-1.5.77A2.91,2.91,0,0,0,74.63,37a2.65,2.65,0,0,0,.27,1.23,3.12,3.12,0,0,0,.84,1A11.57,11.57,0,0,0,79.4,41a14.92,14.92,0,0,0,4.35.64,11.53,11.53,0,0,0,5.11-1.07,8,8,0,0,0,3.44-3A8.44,8.44,0,0,0,93.51,33a8.61,8.61,0,0,0-1-4.24,7.25,7.25,0,0,0-2.82-2.86A8.27,8.27,0,0,0,85.54,24.89ZM54.13,60.68H39.85V46.41a6.58,6.58,0,0,0-6.68-6.69,6.59,6.59,0,0,0-6.69,6.69V60.68H12.21a6.59,6.59,0,0,0-6.69,6.69,6.62,6.62,0,0,0,1.93,4.81,6.34,6.34,0,0,0,4.76,2H26.48V88.33A6.58,6.58,0,0,0,33.17,95,6.41,6.41,0,0,0,38,93.09a6.56,6.56,0,0,0,1.87-4.76V74.17H54.13a6.36,6.36,0,0,0,4.76-2,6.65,6.65,0,0,0,1.92-4.81,6.58,6.58,0,0,0-6.68-6.69Z"/></svg>