<svg id="Layer_1" data-name="Layer 1" xmlns="http://www.w3.org/2000/svg" viewBox="0 0 100 100"><title>s1_3</title><path d="M83.69,100H16.62A16.47,16.47,0,0,1,.15,83.53V16.47A16.47,16.47,0,0,1,16.62,0H83.69a16.46,16.46,0,0,1,16.46,16.47V83.53A16.46,16.46,0,0,1,83.69,100Zm-2-74.49H78.76v-17a3.09,3.09,0,0,0-.88-2.33,3.15,3.15,0,0,0-2.3-.86,6,6,0,0,0-3,.9L66.88,9.59a2.44,2.44,0,0,0-1.25,2.22,3,3,0,0,0,.72,1.95,2.13,2.13,0,0,0,1.71.88,2.47,2.47,0,0,0,1.26-.36l2.86-1.68V25.51h-2.9a3.64,3.64,0,0,0-2.36.64,2.42,2.42,0,0,0-.75,1.94c0,1.76,1,2.64,3.11,2.64H81.69c2.08,0,3.11-.88,3.11-2.64a2.42,2.42,0,0,0-.75-1.94A3.62,3.62,0,0,0,81.69,25.51Zm-.87,38.54H73.64l5.07-5.19a16.67,16.67,0,0,0,3-4,9.05,9.05,0,0,0,.88-4,6.59,6.59,0,0,0-1.09-3.73,7,7,0,0,0-3.1-2.51,11.55,11.55,0,0,0-4.65-.87,14.47,14.47,0,0,0-7.9,2.43,2.23,2.23,0,0,0-.87.93,3,3,0,0,0-.24,1.29,3.07,3.07,0,0,0,.61,1.91,1.85,1.85,0,0,0,1.5.8,2.15,2.15,0,0,0,.68-.1,5.09,5.09,0,0,0,.73-.34l.56-.31.71-.36a17.78,17.78,0,0,1,2-.87,5.94,5.94,0,0,1,1.92-.31,2.79,2.79,0,0,1,2,.65,2.39,2.39,0,0,1,.7,1.86q0,2.07-2.36,4.54l-7.58,7.9A3.93,3.93,0,0,0,65,66.55a2.67,2.67,0,0,0,.75,2,2.73,2.73,0,0,0,2,.77h13a3.62,3.62,0,0,0,2.35-.65,2.46,2.46,0,0,0,.76-2,2.38,2.38,0,0,0-.76-2A3.75,3.75,0,0,0,80.82,64.05ZM54.28,60.68H40V46.41a6.58,6.58,0,0,0-6.68-6.69,6.59,6.59,0,0,0-6.69,6.69V60.68H12.36a6.59,6.59,0,0,0-6.69,6.69A6.62,6.62,0,0,0,7.6,72.18a6.34,6.34,0,0,0,4.76,2H26.63V88.33A6.58,6.58,0,0,0,33.32,95a6.45,6.45,0,0,0,4.82-1.92A6.6,6.6,0,0,0,40,88.33V74.17H54.28a6.36,6.36,0,0,0,4.76-2A6.66,6.66,0,0,0,61,67.37a6.59,6.59,0,0,0-6.69-6.69Zm40.8-23.84h0a2.67,2.67,0,0,0-2.67-2.68H57.27a2.68,2.68,0,0,0-2.68,2.68h0a2.67,2.67,0,0,0,2.68,2.67H92.41A2.66,2.66,0,0,0,95.08,36.84Z"/></svg>