<svg id="Layer_1" data-name="Layer 1" xmlns="http://www.w3.org/2000/svg" viewBox="0 0 100 100"><title>s1_3</title><path d="M83.53,100H16.47A16.47,16.47,0,0,1,0,83.53V16.47A16.47,16.47,0,0,1,16.47,0H83.53A16.47,16.47,0,0,1,100,16.47V83.53A16.47,16.47,0,0,1,83.53,100Zm-2-74.49H78.61v-17a3.13,3.13,0,0,0-.88-2.33,3.16,3.16,0,0,0-2.31-.86,6,6,0,0,0-3,.9L66.73,9.59a2.44,2.44,0,0,0-1.25,2.22,3,3,0,0,0,.71,1.95,2.15,2.15,0,0,0,1.72.88,2.4,2.4,0,0,0,1.25-.36L72,12.6V25.51h-2.9a3.62,3.62,0,0,0-2.36.64A2.42,2.42,0,0,0,66,28.09c0,1.76,1,2.64,3.11,2.64H81.54c2.07,0,3.11-.88,3.11-2.64a2.42,2.42,0,0,0-.75-1.94A3.64,3.64,0,0,0,81.54,25.51Zm-.87,38.54H73.48l5.08-5.19a16.94,16.94,0,0,0,3-4,9,9,0,0,0,.87-4,6.51,6.51,0,0,0-1.09-3.73,7,7,0,0,0-3.09-2.51,11.58,11.58,0,0,0-4.65-.87,14.47,14.47,0,0,0-7.9,2.43,2.33,2.33,0,0,0-.88.93,3.14,3.14,0,0,0-.23,1.29,3.07,3.07,0,0,0,.61,1.91,1.82,1.82,0,0,0,1.5.8,2.2,2.2,0,0,0,.68-.1,5.64,5.64,0,0,0,.73-.34l.56-.31.71-.36a17,17,0,0,1,2-.87,5.88,5.88,0,0,1,1.91-.31,2.84,2.84,0,0,1,2,.65,2.43,2.43,0,0,1,.7,1.86q0,2.07-2.36,4.54l-7.58,7.9a3.93,3.93,0,0,0-1.22,2.79,2.67,2.67,0,0,0,.75,2,2.73,2.73,0,0,0,2,.77h13A3.57,3.57,0,0,0,83,68.62a2.43,2.43,0,0,0,.77-2,2.35,2.35,0,0,0-.77-2A3.7,3.7,0,0,0,80.67,64.05Zm-38,3.32L54.92,55.24a6.63,6.63,0,0,0,2-4.87,5.94,5.94,0,0,0-2-4.64,6.28,6.28,0,0,0-4.76-2,6.53,6.53,0,0,0-4.76,2L33.17,58,20.93,45.73a6.6,6.6,0,0,0-4.76-2.16,5.91,5.91,0,0,0-4.64,2,6.66,6.66,0,0,0-2,4.88,7,7,0,0,0,1.92,4.75L23.65,67.37,11.41,79.61a6.56,6.56,0,0,0,0,9.51,7,7,0,0,0,4.76,1.93,6.44,6.44,0,0,0,4.76-1.93L33.17,76.89,45.4,89.12a6.69,6.69,0,0,0,11.45-4.76,6.22,6.22,0,0,0-1.93-4.75ZM94.93,36.84h0a2.68,2.68,0,0,0-2.67-2.68H57.12a2.68,2.68,0,0,0-2.68,2.68h0a2.67,2.67,0,0,0,2.68,2.67H92.26A2.67,2.67,0,0,0,94.93,36.84Z"/></svg>