<svg id="Layer_1" data-name="Layer 1" xmlns="http://www.w3.org/2000/svg" viewBox="0 0 200 150"><title>g18</title><path d="M146.74,46H53.36a6.64,6.64,0,0,1-6.64-6.65V8.83a6.64,6.64,0,0,1,6.64-6.65h93.38a6.64,6.64,0,0,1,6.64,6.65V39.32A6.64,6.64,0,0,1,146.74,46ZM106.6,32h-3.36V12.58a3.58,3.58,0,0,0-1-2.67,3.63,3.63,0,0,0-2.64-1,6.93,6.93,0,0,0-3.4,1l-6.56,3.82a2.78,2.78,0,0,0-1.44,2.54A3.42,3.42,0,0,0,89,18.54a2.47,2.47,0,0,0,2,1,2.8,2.8,0,0,0,1.43-.41l3.28-1.93V32H92.37a4.09,4.09,0,0,0-2.7.74A2.73,2.73,0,0,0,88.81,35c0,2,1.18,3,3.56,3H106.6q3.57,0,3.57-3a2.76,2.76,0,0,0-.86-2.21A4.14,4.14,0,0,0,106.6,32Z"/><path d="M170,96.3H30.7a7.18,7.18,0,0,1-7.17-7.18V59.68A7.18,7.18,0,0,1,30.7,52.5H170a7.18,7.18,0,0,1,7.17,7.18V89.12A7.18,7.18,0,0,1,170,96.3ZM105.51,82.43H97.27l5.82-5.94a19.18,19.18,0,0,0,3.43-4.62,10.31,10.31,0,0,0,1-4.57A7.53,7.53,0,0,0,106.27,63a8,8,0,0,0-3.55-2.87,13.16,13.16,0,0,0-5.33-1,16.75,16.75,0,0,0-9.06,2.79,2.7,2.7,0,0,0-1,1.07,3.91,3.91,0,0,0,.43,3.66,2.08,2.08,0,0,0,1.72.93,2.28,2.28,0,0,0,.78-.13,4.93,4.93,0,0,0,.84-.38c.31-.18.53-.3.64-.35l.82-.41a18.77,18.77,0,0,1,2.31-1,6.72,6.72,0,0,1,2.2-.35,3.23,3.23,0,0,1,2.27.74,2.77,2.77,0,0,1,.8,2.13q0,2.39-2.7,5.21l-8.7,9.06a4.48,4.48,0,0,0-1.39,3.2,3.06,3.06,0,0,0,.86,2.23,3.1,3.1,0,0,0,2.34.89h15a4.13,4.13,0,0,0,2.69-.74,2.82,2.82,0,0,0,.88-2.3,2.7,2.7,0,0,0-.88-2.23A4.2,4.2,0,0,0,105.51,82.43Z"/><path d="M193,146.62H7a7,7,0,0,1-7-7V109.79a7,7,0,0,1,7-7H193a7,7,0,0,1,7,7v29.88A7,7,0,0,1,193,146.62Zm-89.93-20.86a6.65,6.65,0,0,0,3.26-2.48,6.84,6.84,0,0,0,1.17-4,7.18,7.18,0,0,0-1.25-4.18,8,8,0,0,0-3.57-2.79,13.48,13.48,0,0,0-5.35-1,16.44,16.44,0,0,0-4.85.73,14,14,0,0,0-4.17,2.05,3.41,3.41,0,0,0-1,1.11,3.21,3.21,0,0,0-.29,1.44,3.4,3.4,0,0,0,.7,2.15,2.11,2.11,0,0,0,1.72.88,2.78,2.78,0,0,0,1-.18c.3-.13.71-.32,1.23-.6l.86-.41a20.69,20.69,0,0,1,2.23-1,6.13,6.13,0,0,1,2.16-.37,3.53,3.53,0,0,1,2.5.84,3.07,3.07,0,0,1,.9,2.36,2.3,2.3,0,0,1-1,2.09,6.33,6.33,0,0,1-3.28.65H94.3a2.37,2.37,0,0,0-1.93.86,3.19,3.19,0,0,0-.69,2.05,3.16,3.16,0,0,0,.69,2,2.35,2.35,0,0,0,1.93.87h2.54a6.2,6.2,0,0,1,3.36.69,2.57,2.57,0,0,1,1,2.3,2.85,2.85,0,0,1-1,2.46,5.7,5.7,0,0,1-3.3.74,7.44,7.44,0,0,1-2.35-.35,17.35,17.35,0,0,1-2.36-1l-.51-.22a3.6,3.6,0,0,1-.39-.19c-.52-.27-.93-.47-1.23-.59a2.78,2.78,0,0,0-1-.19,2.12,2.12,0,0,0-1.72.89,3.31,3.31,0,0,0-.7,2.15,2.9,2.9,0,0,0,1.27,2.54,13.37,13.37,0,0,0,4.27,2.07,18.15,18.15,0,0,0,5.12.72,15.34,15.34,0,0,0,5.8-1,8.6,8.6,0,0,0,3.84-2.85,7.14,7.14,0,0,0,1.35-4.34,7.31,7.31,0,0,0-1.37-4.47A7,7,0,0,0,103.11,125.76Z"/></svg>