<svg id="Layer_1" data-name="Layer 1" xmlns="http://www.w3.org/2000/svg" viewBox="0 0 100 100"><title>l20_3_1</title><path d="M85.12,100H15A14.92,14.92,0,0,1,.05,85.07V14.93A14.92,14.92,0,0,1,15,0H85.12a14.93,14.93,0,0,1,14.93,14.93V85.07A14.93,14.93,0,0,1,85.12,100ZM30.26,62.4H20L27.25,55a23.85,23.85,0,0,0,4.26-5.73,12.8,12.8,0,0,0,1.25-5.69,9.4,9.4,0,0,0-1.55-5.33,10,10,0,0,0-4.41-3.57,16.51,16.51,0,0,0-6.63-1.25,20,20,0,0,0-5.89.92A19.84,19.84,0,0,0,8.89,36.9a3.39,3.39,0,0,0-1.24,1.32,4.26,4.26,0,0,0-.34,1.84,4.41,4.41,0,0,0,.87,2.73,2.61,2.61,0,0,0,2.14,1.15,3.08,3.08,0,0,0,1-.16,5.83,5.83,0,0,0,1.05-.48c.39-.22.65-.37.79-.43l1-.52A24,24,0,0,1,17,41.11a8.23,8.23,0,0,1,2.73-.44,4,4,0,0,1,2.83.92,3.44,3.44,0,0,1,1,2.65q0,3-3.36,6.48L9.4,62a5.61,5.61,0,0,0-1.73,4,3.71,3.71,0,0,0,4,3.87H30.26a5.12,5.12,0,0,0,3.34-.91,3.54,3.54,0,0,0,1.1-2.86,3.38,3.38,0,0,0-1.1-2.78A5.25,5.25,0,0,0,30.26,62.4Zm31.62.86-6.32-6.32,5.81-5.71a4.19,4.19,0,0,0,1.28-3,3.82,3.82,0,0,0-1.2-2.78,3.87,3.87,0,0,0-2.83-1.2,4.07,4.07,0,0,0-3,1.38L50.1,51.23l-5.45-5.56a3.93,3.93,0,0,0-3-1.43,3.8,3.8,0,0,0-2.83,1.23,3.93,3.93,0,0,0-1.2,2.85,4,4,0,0,0,1.27,2.91l5.82,5.71-6.33,6.32a4,4,0,0,0-1.27,2.91A3.89,3.89,0,0,0,38.32,69a4,4,0,0,0,2.86,1.22,4.09,4.09,0,0,0,3-1.38L50.1,62.6l6,6.22a4.07,4.07,0,0,0,3,1.38A3.91,3.91,0,0,0,61.93,69a3.86,3.86,0,0,0,1.23-2.81A4,4,0,0,0,61.88,63.26Zm28.36-.86H86.06V38.22a4.43,4.43,0,0,0-1.25-3.31,4.5,4.5,0,0,0-3.29-1.23A8.59,8.59,0,0,0,77.29,35L69.13,39.7a3.48,3.48,0,0,0-1.79,3.17,4.28,4.28,0,0,0,1,2.77,3.05,3.05,0,0,0,2.45,1.25,3.44,3.44,0,0,0,1.78-.51L76.67,44V62.4H72.54a5,5,0,0,0-3.36.92,3.4,3.4,0,0,0-1.07,2.75c0,2.52,1.47,3.77,4.43,3.77h17.7c3,0,4.44-1.25,4.44-3.77a3.43,3.43,0,0,0-1.07-2.75A5.08,5.08,0,0,0,90.24,62.4Z"/></svg>