<svg id="Layer_1" data-name="Layer 1" xmlns="http://www.w3.org/2000/svg" viewBox="0 0 100 100"><title>l20_3_1</title><path d="M85.12,100H15A14.92,14.92,0,0,1,.05,85.07V14.93A14.92,14.92,0,0,1,15,0H85.12a14.93,14.93,0,0,1,14.93,14.93V85.07A14.93,14.93,0,0,1,85.12,100ZM33.73,33.89h-20a5,5,0,0,0-3.37.94A3.6,3.6,0,0,0,9.3,37.66a3.48,3.48,0,0,0,1,2.76,5.09,5.09,0,0,0,3.39.92H26.49L13.38,63.72a4.91,4.91,0,0,0-.71,2.45,3.72,3.72,0,0,0,1.38,2.93,4.65,4.65,0,0,0,3.16,1.2,4.32,4.32,0,0,0,2.16-.58,4.72,4.72,0,0,0,1.76-1.81L36.59,41.13a6.58,6.58,0,0,0,1-3.37,3.93,3.93,0,0,0-1-2.77A3.58,3.58,0,0,0,33.73,33.89Zm11.58,25.8H54.9a4.61,4.61,0,0,0,3.18-.94,3.34,3.34,0,0,0,1.05-2.62,3.29,3.29,0,0,0-1.05-2.61,4.72,4.72,0,0,0-3.18-.91H45.31q-4.23,0-4.23,3.52T45.31,59.69ZM79.84,46.18a9.76,9.76,0,0,0-4.31.94,8.08,8.08,0,0,0-3.14,2.58A13.53,13.53,0,0,1,74.3,43a4.89,4.89,0,0,1,4.21-2.37,6.87,6.87,0,0,1,2.35.41c.74.27,1.68.68,2.8,1.22l1.12.57c.65.34,1.16.58,1.53.73a3.25,3.25,0,0,0,1.28.23,2.68,2.68,0,0,0,2.16-1.09,4.09,4.09,0,0,0,.9-2.68,3.73,3.73,0,0,0-.39-1.79A4.44,4.44,0,0,0,89,36.9a16.21,16.21,0,0,0-5.13-2.55,19.89,19.89,0,0,0-5.84-.92,13.79,13.79,0,0,0-7.93,2.29,14.86,14.86,0,0,0-5.25,6.56,24.74,24.74,0,0,0-1.86,10q0,8.67,3.92,13.36T78.05,70.3a13.12,13.12,0,0,0,6.48-1.58A11.33,11.33,0,0,0,89,64.31a13.58,13.58,0,0,0,.2-12.44,10.47,10.47,0,0,0-3.85-4.19A10.3,10.3,0,0,0,79.84,46.18ZM77.49,63.11a4.06,4.06,0,0,1-3.16-1.35,5,5,0,0,1-1.23-3.49,5,5,0,0,1,1.2-3.52,4.53,4.53,0,0,1,6.38,0,5.2,5.2,0,0,1,1.14,3.55,5.14,5.14,0,0,1-1.17,3.52A4,4,0,0,1,77.49,63.11Z"/></svg>