<svg id="Layer_1" data-name="Layer 1" xmlns="http://www.w3.org/2000/svg" viewBox="0 0 100 100"><title>l20_3_1</title><path d="M85.12,100H15A14.92,14.92,0,0,1,.05,85.07V14.93A14.92,14.92,0,0,1,15,0H85.12a14.93,14.93,0,0,1,14.93,14.93V85.07A14.93,14.93,0,0,1,85.12,100ZM30.47,56.63H29.35V38.22A4.31,4.31,0,0,0,28,34.81a4.81,4.81,0,0,0-3.32-1.23,5.11,5.11,0,0,0-2.27.54,4.74,4.74,0,0,0-1.81,1.55L6,56.48a5.72,5.72,0,0,0-1.12,3.37,3.86,3.86,0,0,0,1.07,2.8,3.8,3.8,0,0,0,2.9,1.12H20.22v1.74A4.51,4.51,0,0,0,21.47,69a4.61,4.61,0,0,0,3.29,1.17A4.7,4.7,0,0,0,28.07,69a4.48,4.48,0,0,0,1.28-3.47V63.77h1.12c3,0,4.44-1.2,4.44-3.62S33.43,56.63,30.47,56.63Zm-16.37,0,6.12-8.82v8.82Zm45.44-4.48H53.11V45.72a3,3,0,1,0-6,0v6.43H40.67a3,3,0,0,0-3,3,3,3,0,0,0,.87,2.16,2.84,2.84,0,0,0,2.14.9h6.42v6.37a3,3,0,0,0,5.18,2.14,2.94,2.94,0,0,0,.84-2.14V58.22h6.43a2.85,2.85,0,0,0,2.14-.9,3,3,0,0,0,.87-2.16,3,3,0,0,0-3-3ZM83.2,46.33a12.79,12.79,0,0,0-5,.92V41h11q4.44,0,4.44-3.57t-4.44-3.52H73.36A4.31,4.31,0,0,0,70.15,35,4.42,4.42,0,0,0,69,38.27V52.1a2.81,2.81,0,0,0,1,2.21,3.51,3.51,0,0,0,2.4.85,4.8,4.8,0,0,0,2.29-.57,18.23,18.23,0,0,1,2.94-.91,13.91,13.91,0,0,1,2.78-.26,5.74,5.74,0,0,1,4,1.28,4.51,4.51,0,0,1,1.43,3.57,4.42,4.42,0,0,1-1.37,3.59A6.51,6.51,0,0,1,80.19,63a8.36,8.36,0,0,1-2.83-.46,26.41,26.41,0,0,1-2.88-1.22l-1-.51a15.39,15.39,0,0,0-1.53-.77,3.6,3.6,0,0,0-1.27-.2,2.63,2.63,0,0,0-2.15,1.09,4.2,4.2,0,0,0-.86,2.68A3.72,3.72,0,0,0,68,65.38a4.28,4.28,0,0,0,1.2,1.4,16.72,16.72,0,0,0,5.22,2.55,21.07,21.07,0,0,0,6.2.92,16.49,16.49,0,0,0,7.29-1.53,11.49,11.49,0,0,0,4.9-4.33,12,12,0,0,0,1.73-6.48,12.24,12.24,0,0,0-1.45-6,10.34,10.34,0,0,0-4-4.08A11.77,11.77,0,0,0,83.2,46.33Z"/></svg>