<svg id="Layer_1" data-name="Layer 1" xmlns="http://www.w3.org/2000/svg" viewBox="0 0 100 100"><title>l20_2_1</title><path d="M85.12,100H15A14.92,14.92,0,0,1,.05,85.07V14.93A14.92,14.92,0,0,1,15,0H85.12a14.93,14.93,0,0,1,14.93,14.93V85.07A14.93,14.93,0,0,1,85.12,100ZM23.94,74.38q7.86,0,12-5.58t4.14-16.14q0-10.5-4.17-16.08T23.94,31q-7.86,0-12,5.58T7.8,52.66q0,10.56,4.14,16.14T23.94,74.38Zm0-8.34q-2.88,0-4.14-3.12T18.54,52.66q0-7.14,1.26-10.23t4.14-3.09c1.92,0,3.3,1,4.14,3.12s1.26,5.48,1.26,10.2-.42,8.19-1.26,10.26S25.86,66,23.94,66ZM50.1,74.2a5.53,5.53,0,0,0,4.11-1.68,6,6,0,0,0,0-8.28,5.53,5.53,0,0,0-4.11-1.68,5.6,5.6,0,0,0-4.17,1.68,6,6,0,0,0,0,8.28A5.6,5.6,0,0,0,50.1,74.2ZM89,65.08H84.06V36.64a5.21,5.21,0,0,0-1.47-3.9,5.29,5.29,0,0,0-3.87-1.44,10.14,10.14,0,0,0-5,1.5l-9.6,5.58A4.07,4.07,0,0,0,62,42.1a5,5,0,0,0,1.2,3.27,3.61,3.61,0,0,0,2.88,1.47,4.09,4.09,0,0,0,2.1-.6L73,43.42V65.08H68.16a6,6,0,0,0-4,1.08,4,4,0,0,0-1.26,3.24q0,4.44,5.22,4.44H89q5.22,0,5.22-4.44a4,4,0,0,0-1.26-3.24A6,6,0,0,0,89,65.08Z"/></svg>