<svg id="Layer_1" data-name="Layer 1" xmlns="http://www.w3.org/2000/svg" viewBox="0 0 100 100"><title>l20_2_1</title><path d="M85.64,100H15.5A14.92,14.92,0,0,1,.57,85.07V14.93A14.92,14.92,0,0,1,15.5,0H85.64a14.92,14.92,0,0,1,14.93,14.93V85.07A14.92,14.92,0,0,1,85.64,100ZM34.87,64.08H30V35.64a5.25,5.25,0,0,0-1.47-3.9,5.32,5.32,0,0,0-3.87-1.44,10.11,10.11,0,0,0-5,1.5L10,37.38a4.06,4.06,0,0,0-2.1,3.72,5,5,0,0,0,1.2,3.27A3.58,3.58,0,0,0,12,45.84a4.12,4.12,0,0,0,2.1-.6l4.8-2.82V64.08H14.06a6,6,0,0,0-4,1.08A4,4,0,0,0,8.83,68.4c0,3,1.75,4.44,5.23,4.44H34.87q5.24,0,5.23-4.44a4,4,0,0,0-1.27-3.24A6,6,0,0,0,34.87,64.08ZM47.71,74.76,61.33,32a6.5,6.5,0,0,0,.24-1.32,3.5,3.5,0,0,0-1.29-2.82,4.49,4.49,0,0,0-3-1.08,4,4,0,0,0-2.31.72,4.08,4.08,0,0,0-1.53,2.16L39.85,72.42a4.26,4.26,0,0,0-.24,1.38,3.47,3.47,0,0,0,1.26,2.76,4.38,4.38,0,0,0,2.94,1.08,4,4,0,0,0,3.9-2.88Zm39-23.7a9.73,9.73,0,0,0,4.77-3.63,10,10,0,0,0,1.71-5.79,10.48,10.48,0,0,0-1.83-6.12,11.74,11.74,0,0,0-5.22-4.08A19.89,19.89,0,0,0,78.31,30a24.05,24.05,0,0,0-7.11,1.08,19.91,19.91,0,0,0-6.09,3,4.84,4.84,0,0,0-1.44,1.62,4.68,4.68,0,0,0-.42,2.1,4.92,4.92,0,0,0,1,3.15,3.1,3.1,0,0,0,2.52,1.29,3.93,3.93,0,0,0,1.5-.27q.66-.27,1.8-.87l1.26-.6a32.39,32.39,0,0,1,3.27-1.44,9.06,9.06,0,0,1,3.15-.54,5.16,5.16,0,0,1,3.66,1.23,4.48,4.48,0,0,1,1.32,3.45,3.36,3.36,0,0,1-1.5,3.06,9.19,9.19,0,0,1-4.8,1H73.81A3.43,3.43,0,0,0,71,48.48a4.92,4.92,0,0,0,0,6,3.43,3.43,0,0,0,2.82,1.26h3.72a9,9,0,0,1,4.92,1A3.77,3.77,0,0,1,84,60.12a4.17,4.17,0,0,1-1.47,3.6Q81,64.8,77.65,64.8a10.88,10.88,0,0,1-3.45-.51,26.83,26.83,0,0,1-3.45-1.47L70,62.49l-.57-.27q-1.14-.6-1.8-.87a3.93,3.93,0,0,0-1.5-.27,3.1,3.1,0,0,0-2.52,1.29,4.92,4.92,0,0,0-1,3.15,4.2,4.2,0,0,0,1.86,3.72,19.29,19.29,0,0,0,6.24,3,26.65,26.65,0,0,0,7.5,1,22.52,22.52,0,0,0,8.49-1.47,12.62,12.62,0,0,0,5.61-4.17,10.46,10.46,0,0,0,2-6.36,10.64,10.64,0,0,0-2-6.54A10.21,10.21,0,0,0,86.71,51.06Z"/></svg>