<svg id="Layer_1" data-name="Layer 1" xmlns="http://www.w3.org/2000/svg" viewBox="0 0 100 100"><title>l20_3_1</title><path d="M85.12,100H15A14.92,14.92,0,0,1,.05,85.07V14.93A14.92,14.92,0,0,1,15,0H85.12a14.93,14.93,0,0,1,14.93,14.93V85.07A14.93,14.93,0,0,1,85.12,100ZM29.8,33.89h-20a5,5,0,0,0-3.36.94,3.55,3.55,0,0,0-1.07,2.83,3.48,3.48,0,0,0,1,2.76,5.11,5.11,0,0,0,3.39.91H22.56L9.46,63.72a4.8,4.8,0,0,0-.72,2.45,3.72,3.72,0,0,0,1.38,2.93,4.67,4.67,0,0,0,3.16,1.2,4.39,4.39,0,0,0,2.17-.58,4.75,4.75,0,0,0,1.76-1.82L32.66,41.13a6.48,6.48,0,0,0,1-3.37,4,4,0,0,0-1-2.78A3.65,3.65,0,0,0,29.8,33.89ZM41,58.22H59.84a2.88,2.88,0,0,0,2.15-.9,3,3,0,0,0,.86-2.17,2.94,2.94,0,0,0-3-3H41a2.85,2.85,0,0,0-2.14.89A3,3,0,0,0,38,55.21a3,3,0,0,0,3,3Zm9.18-9.59a3.12,3.12,0,0,0,2.32-1,3.25,3.25,0,0,0,1-2.35,3.17,3.17,0,0,0-1-2.29,3.26,3.26,0,0,0-4.61,0,3.21,3.21,0,0,0-.92,2.32,3.31,3.31,0,0,0,.92,2.35A3.05,3.05,0,0,0,50.15,48.63Zm0,19.68a3.08,3.08,0,0,0,2.32-1,3.17,3.17,0,0,0,1-2.29,3.25,3.25,0,0,0-1-2.35,3.12,3.12,0,0,0-2.32-1,3.05,3.05,0,0,0-2.29,1,3.31,3.31,0,0,0-.92,2.35,3.21,3.21,0,0,0,.92,2.32A3.06,3.06,0,0,0,50.15,68.31ZM83.76,46.18a9.82,9.82,0,0,0-4.31.94,8.05,8.05,0,0,0-3.13,2.58A13.53,13.53,0,0,1,78.23,43a4.88,4.88,0,0,1,4.21-2.37,6.86,6.86,0,0,1,2.34.41c.75.27,1.69.68,2.81,1.22l1.12.56c.64.34,1.16.59,1.53.74a3.2,3.2,0,0,0,1.27.23,2.7,2.7,0,0,0,2.17-1.09,4.09,4.09,0,0,0,.89-2.68,3.73,3.73,0,0,0-.38-1.79,4.36,4.36,0,0,0-1.25-1.37,16.16,16.16,0,0,0-5.12-2.55A19.57,19.57,0,0,0,82,33.43a13.79,13.79,0,0,0-7.93,2.29,14.88,14.88,0,0,0-5.26,6.56,24.74,24.74,0,0,0-1.86,10q0,8.67,3.93,13.36T82,70.3a13.06,13.06,0,0,0,6.47-1.58,11.29,11.29,0,0,0,4.47-4.41,13.66,13.66,0,0,0,.2-12.44,10.54,10.54,0,0,0-3.85-4.19A10.33,10.33,0,0,0,83.76,46.18ZM81.42,63.11a4.08,4.08,0,0,1-3.17-1.35,5.68,5.68,0,0,1,0-7,4.07,4.07,0,0,1,3.19-1.33,4,4,0,0,1,3.18,1.3,6,6,0,0,1,0,7.07A4,4,0,0,1,81.42,63.11Z"/></svg>