<svg id="Layer_1" data-name="Layer 1" xmlns="http://www.w3.org/2000/svg" viewBox="0 0 100 100"><title>l20_2_1</title><path d="M85.64,100H15.5A14.92,14.92,0,0,1,.57,85.07V14.93A14.92,14.92,0,0,1,15.5,0H85.64a14.92,14.92,0,0,1,14.93,14.93V85.07A14.92,14.92,0,0,1,85.64,100ZM39.77,49.13h-9.7V39.42a4.58,4.58,0,0,0-7.78-3.23A4.4,4.4,0,0,0,21,39.42v9.71h-9.7a4.46,4.46,0,0,0-4.54,4.54,4.5,4.5,0,0,0,1.31,3.27,4.32,4.32,0,0,0,3.23,1.35H21v9.62a4.47,4.47,0,0,0,4.54,4.55,4.38,4.38,0,0,0,3.28-1.31,4.51,4.51,0,0,0,1.27-3.24V58.29h9.7A4.32,4.32,0,0,0,43,56.94a4.5,4.5,0,0,0,1.31-3.27,4.46,4.46,0,0,0-4.54-4.54ZM81.5,47.89a12.45,12.45,0,0,0,6.13-4.66,12.81,12.81,0,0,0,2.19-7.43A13.42,13.42,0,0,0,87.47,28a15.15,15.15,0,0,0-6.7-5.24,25.56,25.56,0,0,0-10-1.84,30.94,30.94,0,0,0-9.12,1.38,25.84,25.84,0,0,0-7.82,3.85,6.12,6.12,0,0,0-1.84,2.08,6,6,0,0,0-.54,2.7,6.26,6.26,0,0,0,1.31,4,4,4,0,0,0,3.23,1.65,5,5,0,0,0,1.92-.34c.57-.23,1.34-.61,2.31-1.12l1.62-.77A43.29,43.29,0,0,1,66,32.49a11.66,11.66,0,0,1,4-.69,6.65,6.65,0,0,1,4.7,1.58,5.75,5.75,0,0,1,1.69,4.43,4.32,4.32,0,0,1-1.92,3.92c-1.29.82-3.34,1.24-6.16,1.24H65a4.39,4.39,0,0,0-3.62,1.61,6.31,6.31,0,0,0,0,7.7A4.4,4.4,0,0,0,65,53.9h4.77c2.93,0,5,.44,6.32,1.31A4.83,4.83,0,0,1,78,59.52q0,3.24-1.89,4.62c-1.25.92-3.32,1.39-6.19,1.39a13.84,13.84,0,0,1-4.43-.66A32.31,32.31,0,0,1,61,63l-1-.42-.73-.34c-1-.52-1.75-.89-2.31-1.12a5.11,5.11,0,0,0-1.93-.35,4,4,0,0,0-3.23,1.66,6.26,6.26,0,0,0-1.31,4,6.07,6.07,0,0,0,.54,2.66,6,6,0,0,0,1.85,2.11,24.35,24.35,0,0,0,8,3.89,34.16,34.16,0,0,0,9.63,1.35,28.89,28.89,0,0,0,10.9-1.89,16.11,16.11,0,0,0,7.19-5.35,13.39,13.39,0,0,0,2.55-8.16,13.66,13.66,0,0,0-2.58-8.39A13.16,13.16,0,0,0,81.5,47.89Z"/></svg>