<svg id="Layer_1" data-name="Layer 1" xmlns="http://www.w3.org/2000/svg" viewBox="0 0 100 100"><title>l20_3_1</title><path d="M85.27,100H15.13A14.92,14.92,0,0,1,.2,85.07V14.93A14.92,14.92,0,0,1,15.13,0H85.27A14.93,14.93,0,0,1,100.2,14.93V85.07A14.93,14.93,0,0,1,85.27,100ZM28.71,50.33a7.68,7.68,0,0,0,4-3,8.86,8.86,0,0,0,1.45-5.1,8.44,8.44,0,0,0-3.54-7.16Q27.08,32.44,21,32.43t-9.64,2.63a8.42,8.42,0,0,0-3.57,7.16,8.66,8.66,0,0,0,1.42,5,8.42,8.42,0,0,0,4.08,3.14,8.47,8.47,0,0,0-4.79,3A9,9,0,0,0,6.78,59a8.78,8.78,0,0,0,3.8,7.57q3.8,2.73,10.38,2.73t10.37-2.73A8.78,8.78,0,0,0,35.13,59a8.38,8.38,0,0,0-6.42-8.62ZM21,62.16c-3.71,0-5.56-1.32-5.56-4s1.85-4,5.56-4,5.56,1.32,5.56,4S24.66,62.16,21,62.16Zm0-22.64a5.45,5.45,0,0,1,3.41.89,3.47,3.47,0,0,1,1.12,2.88,3.53,3.53,0,0,1-1.12,2.91,5.32,5.32,0,0,1-3.41.92,5.35,5.35,0,0,1-3.42-.92,3.53,3.53,0,0,1-1.12-2.91,3.47,3.47,0,0,1,1.12-2.88A5.48,5.48,0,0,1,21,39.52ZM62,62.26l-6.32-6.32,5.81-5.71a4.18,4.18,0,0,0,1.27-3,3.81,3.81,0,0,0-1.19-2.78,3.88,3.88,0,0,0-2.83-1.2,4.06,4.06,0,0,0-3,1.38l-5.51,5.56-5.46-5.56a3.92,3.92,0,0,0-3-1.43,3.84,3.84,0,0,0-2.83,1.23,3.93,3.93,0,0,0-1.2,2.85A4,4,0,0,0,39,50.23l5.81,5.71L38.5,62.26a4,4,0,0,0-1.28,2.91A3.86,3.86,0,0,0,38.45,68,3.92,3.92,0,0,0,41.3,69.2a4.06,4.06,0,0,0,3-1.38l5.92-6.22,6,6.22a4.06,4.06,0,0,0,3,1.38A3.92,3.92,0,0,0,62.06,68a3.86,3.86,0,0,0,1.23-2.81A4,4,0,0,0,62,62.26ZM89.86,32.89h-20a5,5,0,0,0-3.36.94,3.57,3.57,0,0,0-1.07,2.83,3.51,3.51,0,0,0,1,2.76,5.11,5.11,0,0,0,3.39.91H82.61L69.51,62.72a4.83,4.83,0,0,0-.72,2.45,3.72,3.72,0,0,0,1.38,2.93,4.67,4.67,0,0,0,3.16,1.2,4.39,4.39,0,0,0,2.17-.58,4.79,4.79,0,0,0,1.76-1.81L92.71,40.13a6.48,6.48,0,0,0,1-3.37,4,4,0,0,0-1-2.77A3.61,3.61,0,0,0,89.86,32.89Z"/></svg>