<svg id="Layer_1" data-name="Layer 1" xmlns="http://www.w3.org/2000/svg" viewBox="0 0 100 100"><title>l20_3_1</title><path d="M85.27,100H15.13A14.92,14.92,0,0,1,.2,85.07V14.93A14.92,14.92,0,0,1,15.13,0H85.27A14.93,14.93,0,0,1,100.2,14.93V85.07A14.93,14.93,0,0,1,85.27,100ZM24,45.18a9.76,9.76,0,0,0-4.31.94,8.08,8.08,0,0,0-3.14,2.58A13.53,13.53,0,0,1,18.48,42a4.89,4.89,0,0,1,4.21-2.37,6.87,6.87,0,0,1,2.35.41c.74.27,1.68.68,2.8,1.22l1.12.57c.65.33,1.16.58,1.53.73a3.25,3.25,0,0,0,1.28.23,2.68,2.68,0,0,0,2.16-1.09,4.09,4.09,0,0,0,.9-2.68,3.73,3.73,0,0,0-.39-1.79A4.44,4.44,0,0,0,33.2,35.9a16.21,16.21,0,0,0-5.13-2.55,19.89,19.89,0,0,0-5.84-.92,13.79,13.79,0,0,0-7.93,2.29,14.86,14.86,0,0,0-5.25,6.56,24.74,24.74,0,0,0-1.86,10q0,8.67,3.92,13.36T22.23,69.3a13.12,13.12,0,0,0,6.48-1.58,11.33,11.33,0,0,0,4.46-4.41,13.58,13.58,0,0,0,.2-12.44,10.47,10.47,0,0,0-3.85-4.19A10.3,10.3,0,0,0,24,45.18ZM21.67,62.11a4.06,4.06,0,0,1-3.16-1.35,5,5,0,0,1-1.23-3.49,5,5,0,0,1,1.2-3.52,4.07,4.07,0,0,1,3.19-1.33,4.06,4.06,0,0,1,3.19,1.3A5.2,5.2,0,0,1,26,57.27a5.14,5.14,0,0,1-1.17,3.52A4,4,0,0,1,21.67,62.11ZM62,62.26l-6.32-6.32,5.81-5.71a4.18,4.18,0,0,0,1.27-3,3.81,3.81,0,0,0-1.19-2.78,3.88,3.88,0,0,0-2.83-1.2,4.06,4.06,0,0,0-3,1.38l-5.51,5.56-5.46-5.56a3.92,3.92,0,0,0-3-1.43,3.84,3.84,0,0,0-2.83,1.23,3.93,3.93,0,0,0-1.2,2.85A4,4,0,0,0,39,50.23l5.81,5.71L38.5,62.26a4,4,0,0,0-1.28,2.91A3.86,3.86,0,0,0,38.45,68,3.92,3.92,0,0,0,41.3,69.2a4.06,4.06,0,0,0,3-1.38l5.92-6.22,6,6.22a4.06,4.06,0,0,0,3,1.38A3.92,3.92,0,0,0,62.06,68a3.86,3.86,0,0,0,1.23-2.81A4,4,0,0,0,62,62.26Zm20-16.93a12.79,12.79,0,0,0-5,.92V40H88q4.44,0,4.44-3.57T88,32.89H72.21A4.31,4.31,0,0,0,69,34a4.42,4.42,0,0,0-1.13,3.26V51.1a2.81,2.81,0,0,0,1,2.21,3.56,3.56,0,0,0,2.4.85,4.84,4.84,0,0,0,2.3-.57,17.85,17.85,0,0,1,2.93-.91,13.91,13.91,0,0,1,2.78-.26,5.74,5.74,0,0,1,4,1.28,4.51,4.51,0,0,1,1.43,3.57,4.42,4.42,0,0,1-1.37,3.59A6.51,6.51,0,0,1,79,62a8.36,8.36,0,0,1-2.83-.46,30.62,30.62,0,0,1-2.88-1.22l-1-.51a15.39,15.39,0,0,0-1.53-.77,3.56,3.56,0,0,0-1.27-.2,2.65,2.65,0,0,0-2.15,1.09,4.26,4.26,0,0,0-.86,2.68,3.72,3.72,0,0,0,.38,1.76,4.52,4.52,0,0,0,1.2,1.4,16.67,16.67,0,0,0,5.23,2.55,21,21,0,0,0,6.19.92,16.57,16.57,0,0,0,7.3-1.53,11.52,11.52,0,0,0,4.89-4.33,12,12,0,0,0,1.74-6.48,12.24,12.24,0,0,0-1.46-6,10.27,10.27,0,0,0-4-4.08A11.75,11.75,0,0,0,82.05,45.33Z"/></svg>