<svg id="Layer_1" data-name="Layer 1" xmlns="http://www.w3.org/2000/svg" viewBox="0 0 100 100"><title>l20_2_1</title><path d="M85.12,100H15A14.92,14.92,0,0,1,.05,85.07V14.93A14.92,14.92,0,0,1,15,0H85.12a14.93,14.93,0,0,1,14.93,14.93V85.07A14.93,14.93,0,0,1,85.12,100ZM17.73,61.52H32.2A7,7,0,0,0,37,60.1a5.06,5.06,0,0,0,1.58-4A4.94,4.94,0,0,0,37,52.2a7.14,7.14,0,0,0-4.81-1.38H17.73c-4.27,0-6.39,1.77-6.39,5.31S13.46,61.52,17.73,61.52ZM79.56,65.6H64.08L75,54.44a36.09,36.09,0,0,0,6.43-8.67,19.35,19.35,0,0,0,1.89-8.58,14.1,14.1,0,0,0-2.35-8,15,15,0,0,0-6.66-5.39,24.73,24.73,0,0,0-10-1.88,31.32,31.32,0,0,0-17,5.23,5.16,5.16,0,0,0-1.88,2,6.55,6.55,0,0,0-.5,2.78A6.56,6.56,0,0,0,46.22,36a3.91,3.91,0,0,0,3.23,1.74,4.7,4.7,0,0,0,1.46-.23,9.67,9.67,0,0,0,1.58-.73c.59-.34,1-.56,1.19-.66l1.54-.77a38.68,38.68,0,0,1,4.36-1.89,12.61,12.61,0,0,1,4.11-.65A6.1,6.1,0,0,1,68,34.18a5.2,5.2,0,0,1,1.5,4q0,4.47-5.08,9.78L48.06,65a8.45,8.45,0,0,0-2.61,6,5.77,5.77,0,0,0,1.61,4.2,5.87,5.87,0,0,0,4.39,1.65H79.56a7.74,7.74,0,0,0,5-1.38,5.34,5.34,0,0,0,1.66-4.32A5.11,5.11,0,0,0,84.6,67,7.86,7.86,0,0,0,79.56,65.6Z"/></svg>