<svg id="Layer_1" data-name="Layer 1" xmlns="http://www.w3.org/2000/svg" viewBox="0 0 100 100"><title>l20_2_1</title><path d="M85,100.09H14.84A14.94,14.94,0,0,1-.09,85.16V15A14.93,14.93,0,0,1,14.84.09H85A14.92,14.92,0,0,1,99.91,15V85.16A14.93,14.93,0,0,1,85,100.09ZM32.63,65.17H20.57l8.52-8.7a28.08,28.08,0,0,0,5-6.75A15.12,15.12,0,0,0,35.57,43a11,11,0,0,0-1.83-6.27,11.71,11.71,0,0,0-5.19-4.2,19.31,19.31,0,0,0-7.8-1.47,23.48,23.48,0,0,0-6.93,1.08,23.39,23.39,0,0,0-6.33,3A4,4,0,0,0,6,36.73a5.78,5.78,0,0,0,.63,5.37,3.06,3.06,0,0,0,2.52,1.35,3.58,3.58,0,0,0,1.14-.18,7.18,7.18,0,0,0,1.23-.57l.93-.51,1.2-.6a29,29,0,0,1,3.39-1.47,9.73,9.73,0,0,1,3.21-.51,4.73,4.73,0,0,1,3.33,1.08,4,4,0,0,1,1.17,3.12q0,3.48-4,7.62L8.09,64.69a6.57,6.57,0,0,0-2,4.68,4.49,4.49,0,0,0,1.26,3.27,4.56,4.56,0,0,0,3.42,1.29h21.9a6,6,0,0,0,3.93-1.08,4.14,4.14,0,0,0,1.29-3.36,4,4,0,0,0-1.29-3.27A6.15,6.15,0,0,0,32.63,65.17ZM47.09,75.85,60.71,33.07A6.62,6.62,0,0,0,61,31.75a3.5,3.5,0,0,0-1.29-2.82,4.49,4.49,0,0,0-3-1.08,4,4,0,0,0-2.31.72,4.08,4.08,0,0,0-1.53,2.16L39.23,73.51A4,4,0,0,0,39,74.89a3.47,3.47,0,0,0,1.26,2.76,4.38,4.38,0,0,0,2.94,1.08,4,4,0,0,0,3.9-2.88Zm39-23.7a9.73,9.73,0,0,0,4.77-3.63,10,10,0,0,0,1.71-5.79,10.48,10.48,0,0,0-1.83-6.12,11.74,11.74,0,0,0-5.22-4.08,19.89,19.89,0,0,0-7.83-1.44,24.05,24.05,0,0,0-7.11,1.08,19.91,19.91,0,0,0-6.09,3,4.84,4.84,0,0,0-1.44,1.62,4.68,4.68,0,0,0-.42,2.1,4.92,4.92,0,0,0,1,3.15,3.1,3.1,0,0,0,2.52,1.29,3.93,3.93,0,0,0,1.5-.27q.66-.27,1.8-.87l1.26-.6A32.39,32.39,0,0,1,74,40.15a9.06,9.06,0,0,1,3.15-.54,5.16,5.16,0,0,1,3.66,1.23,4.48,4.48,0,0,1,1.32,3.45,3.36,3.36,0,0,1-1.5,3.06,9.19,9.19,0,0,1-4.8,1H73.19a3.43,3.43,0,0,0-2.82,1.26,4.92,4.92,0,0,0,0,6,3.43,3.43,0,0,0,2.82,1.26h3.72a9,9,0,0,1,4.92,1,3.77,3.77,0,0,1,1.5,3.36,4.17,4.17,0,0,1-1.47,3.6Q80.39,65.89,77,65.89a10.88,10.88,0,0,1-3.45-.51,26.83,26.83,0,0,1-3.45-1.47l-.75-.33-.57-.27q-1.14-.6-1.8-.87a3.93,3.93,0,0,0-1.5-.27A3.1,3.1,0,0,0,63,63.46a4.92,4.92,0,0,0-1,3.15,4.2,4.2,0,0,0,1.86,3.72,19.29,19.29,0,0,0,6.24,3,26.65,26.65,0,0,0,7.5,1,22.52,22.52,0,0,0,8.49-1.47,12.62,12.62,0,0,0,5.61-4.17,10.46,10.46,0,0,0,2-6.36,10.64,10.64,0,0,0-2-6.54A10.21,10.21,0,0,0,86.09,52.15Z"/></svg>