<svg id="Layer_1" data-name="Layer 1" xmlns="http://www.w3.org/2000/svg" viewBox="0 0 100 100"><title>l20_3_1</title><path d="M85.34,100.36H15.19A14.92,14.92,0,0,1,.27,85.43V15.29A14.92,14.92,0,0,1,15.19.36H85.34a14.93,14.93,0,0,1,14.93,14.93V85.43A14.93,14.93,0,0,1,85.34,100.36ZM19.19,39.64H6.64a3.11,3.11,0,0,0-2.11.6A2.21,2.21,0,0,0,3.86,42a2.17,2.17,0,0,0,.66,1.73,3.18,3.18,0,0,0,2.12.58h8l-8.22,14A3.06,3.06,0,0,0,6,59.9a2.33,2.33,0,0,0,.87,1.84,2.91,2.91,0,0,0,2,.75,2.7,2.7,0,0,0,1.36-.37A2.92,2.92,0,0,0,11.28,61L21,44.19a4.14,4.14,0,0,0,.61-2.11A2.49,2.49,0,0,0,21,40.33,2.25,2.25,0,0,0,19.19,39.64ZM38.48,58.08l-4-4,3.64-3.59a2.57,2.57,0,0,0,.8-1.85,2.56,2.56,0,0,0-2.53-2.5,2.53,2.53,0,0,0-1.88.87l-3.46,3.48L27.67,47a2.47,2.47,0,0,0-1.89-.9,2.42,2.42,0,0,0-1.78.77,2.48,2.48,0,0,0-.75,1.79,2.52,2.52,0,0,0,.8,1.82l3.65,3.59-4,4a2.52,2.52,0,0,0-.8,1.82,2.43,2.43,0,0,0,.77,1.76,2.46,2.46,0,0,0,1.79.77,2.57,2.57,0,0,0,1.89-.87l3.71-3.9,3.74,3.9a2.57,2.57,0,0,0,1.89.87,2.5,2.5,0,0,0,1.8-.77,2.42,2.42,0,0,0,.76-1.76A2.48,2.48,0,0,0,38.48,58.08Zm15.87-7.49a4.8,4.8,0,0,0,2.52-1.89,5.55,5.55,0,0,0,.91-3.2A5.31,5.31,0,0,0,55.56,41a10,10,0,0,0-6.07-1.64A10,10,0,0,0,43.44,41a5.3,5.3,0,0,0-2.24,4.5,5.45,5.45,0,0,0,.9,3.12,5.27,5.27,0,0,0,2.56,2,5.3,5.3,0,0,0-3,1.9,5.67,5.67,0,0,0-1,3.51A5.52,5.52,0,0,0,43,60.75a11,11,0,0,0,6.51,1.71A11,11,0,0,0,56,60.75a5.63,5.63,0,0,0-1.65-10.16ZM49.49,58C47.17,58,46,57.18,46,55.52S47.17,53,49.49,53s3.49.83,3.49,2.5S51.82,58,49.49,58Zm0-14.21a3.45,3.45,0,0,1,2.15.56,2.22,2.22,0,0,1,.7,1.81,2.27,2.27,0,0,1-.7,1.83,3.39,3.39,0,0,1-2.15.57A3.36,3.36,0,0,1,47.35,48a2.25,2.25,0,0,1-.71-1.83,2.19,2.19,0,0,1,.71-1.81A3.42,3.42,0,0,1,49.49,43.8ZM63,54.91H74.8a1.83,1.83,0,0,0,1.35-.56A1.89,1.89,0,0,0,76.69,53,1.85,1.85,0,0,0,74.8,51.1H63a1.8,1.8,0,0,0-1.34.56A1.9,1.9,0,0,0,61.07,53a1.83,1.83,0,0,0,.55,1.34A1.8,1.8,0,0,0,63,54.91Zm5.76-6a2,2,0,0,0,1.46-.61,2.09,2.09,0,0,0,0-2.91,2,2,0,0,0-1.46-.61,1.93,1.93,0,0,0-1.44.6,2,2,0,0,0-.57,1.45,2.05,2.05,0,0,0,.57,1.47A1.9,1.9,0,0,0,68.72,48.89Zm0,12.35a2,2,0,0,0,1.46-.6,2,2,0,0,0,.59-1.44,2.07,2.07,0,0,0-.59-1.48,2,2,0,0,0-1.46-.6,1.93,1.93,0,0,0-1.44.6,2.09,2.09,0,0,0-.57,1.48,2,2,0,0,0,.57,1.45A1.92,1.92,0,0,0,68.72,61.24Zm25.12-3.71H87.41L92,52.89a15.1,15.1,0,0,0,2.68-3.6,8.12,8.12,0,0,0,.78-3.57,5.88,5.88,0,0,0-1-3.34,6.23,6.23,0,0,0-2.76-2.24,10.39,10.39,0,0,0-4.16-.78,12.66,12.66,0,0,0-3.7.57,12.84,12.84,0,0,0-3.38,1.6,2.16,2.16,0,0,0-.78.83,2.77,2.77,0,0,0-.21,1.16A2.72,2.72,0,0,0,80,45.23a1.62,1.62,0,0,0,1.34.72,1.77,1.77,0,0,0,.61-.1,3.29,3.29,0,0,0,.65-.3l.5-.27.64-.32a13.51,13.51,0,0,1,1.81-.79,5.2,5.2,0,0,1,1.71-.27,2.51,2.51,0,0,1,1.78.58,2.15,2.15,0,0,1,.62,1.66q0,1.86-2.11,4.06l-6.79,7.08a3.49,3.49,0,0,0-1.08,2.49,2.32,2.32,0,0,0,2.49,2.43H93.84a3.25,3.25,0,0,0,2.1-.57,2.21,2.21,0,0,0,.69-1.79,2.13,2.13,0,0,0-.69-1.75A3.31,3.31,0,0,0,93.84,57.53Z"/></svg>