<svg id="Layer_1" data-name="Layer 1" xmlns="http://www.w3.org/2000/svg" viewBox="0 0 100 100"><title>l20_2_1</title><path d="M85.12,100H15A14.92,14.92,0,0,1,.05,85.07V14.93A14.92,14.92,0,0,1,15,0H85.12a14.93,14.93,0,0,1,14.93,14.93V85.07A14.93,14.93,0,0,1,85.12,100ZM34.32,65.08H29.4V36.64a5.21,5.21,0,0,0-1.47-3.9,5.29,5.29,0,0,0-3.87-1.44,10.14,10.14,0,0,0-5,1.5l-9.6,5.58a4.07,4.07,0,0,0-2.1,3.72,5,5,0,0,0,1.2,3.27,3.61,3.61,0,0,0,2.88,1.47,4.09,4.09,0,0,0,2.1-.6l4.8-2.82V65.08H13.5a6,6,0,0,0-4,1.08A4,4,0,0,0,8.28,69.4q0,4.44,5.22,4.44H34.32q5.22,0,5.22-4.44a4,4,0,0,0-1.26-3.24A6,6,0,0,0,34.32,65.08ZM47.16,75.76,60.78,33A6.5,6.5,0,0,0,61,31.66a3.5,3.5,0,0,0-1.29-2.82,4.49,4.49,0,0,0-3-1.08,4,4,0,0,0-2.31.72,4.08,4.08,0,0,0-1.53,2.16L39.3,73.42a4,4,0,0,0-.24,1.38,3.47,3.47,0,0,0,1.26,2.76,4.38,4.38,0,0,0,2.94,1.08,4,4,0,0,0,3.9-2.88ZM89.7,65.08H77.64l8.52-8.7a28.08,28.08,0,0,0,5-6.75,15.12,15.12,0,0,0,1.47-6.69,11,11,0,0,0-1.83-6.27,11.71,11.71,0,0,0-5.19-4.2A19.31,19.31,0,0,0,77.82,31a24.42,24.42,0,0,0-13.26,4.08,4,4,0,0,0-1.47,1.56A5.78,5.78,0,0,0,63.72,42a3.06,3.06,0,0,0,2.52,1.35,3.58,3.58,0,0,0,1.14-.18,7.18,7.18,0,0,0,1.23-.57l.93-.51,1.2-.6A29,29,0,0,1,74.13,40a9.73,9.73,0,0,1,3.21-.51,4.73,4.73,0,0,1,3.33,1.08,4,4,0,0,1,1.17,3.12q0,3.48-4,7.62L65.16,64.6a6.57,6.57,0,0,0-2,4.68,4.49,4.49,0,0,0,1.26,3.27,4.56,4.56,0,0,0,3.42,1.29H89.7a6,6,0,0,0,3.93-1.08,4.12,4.12,0,0,0,1.29-3.36,4,4,0,0,0-1.29-3.27A6.15,6.15,0,0,0,89.7,65.08Z"/></svg>