<svg id="Layer_1" data-name="Layer 1" xmlns="http://www.w3.org/2000/svg" viewBox="0 0 100 100"><title>l20_1_1</title><path d="M85.07,100H14.93A14.92,14.92,0,0,1,0,85.07V14.93A14.92,14.92,0,0,1,14.93,0H85.07A14.92,14.92,0,0,1,100,14.93V85.07A14.92,14.92,0,0,1,85.07,100ZM48.93,62q0-5.33-2.59-8.48A15.11,15.11,0,0,0,40.19,49a63,63,0,0,0-9.11-2.7,36.67,36.67,0,0,1-7.57-2.4,3.84,3.84,0,0,1-2.4-3.6,4.58,4.58,0,0,1,2.1-3.94,9.41,9.41,0,0,1,5.47-1.46,16.87,16.87,0,0,1,4.39.56,20.09,20.09,0,0,1,3.86,1.5c1.2.63,2,1,2.33,1.24a21.5,21.5,0,0,0,2.4,1.12,5,5,0,0,0,1.72.3,4,4,0,0,0,3.15-1.65A6,6,0,0,0,47.88,34a5.81,5.81,0,0,0-.56-2.66,5.59,5.59,0,0,0-1.91-2,31.83,31.83,0,0,0-12.15-4.72V21.14a5,5,0,0,0-1.47-3.75A5.17,5.17,0,0,0,28,16a5.18,5.18,0,0,0-3.75,1.46,5,5,0,0,0-1.5,3.71v3.75a20.58,20.58,0,0,0-11.1,5.85,14.66,14.66,0,0,0-4.2,10.43,12.53,12.53,0,0,0,2.62,8.36,15.91,15.91,0,0,0,6.23,4.58A73.12,73.12,0,0,0,25.53,57q3.52.9,5.37,1.5A9.31,9.31,0,0,1,34,60.11a3.19,3.19,0,0,1,1.24,2.58,4.36,4.36,0,0,1-2.06,3.94,11.31,11.31,0,0,1-6,1.31A23.83,23.83,0,0,1,21,67.19a27.78,27.78,0,0,1-6.15-2.55,13.35,13.35,0,0,0-2.32-1.12,5.66,5.66,0,0,0-1.8-.3,3.87,3.87,0,0,0-3.11,1.65,6.05,6.05,0,0,0-1.32,3.9,5.79,5.79,0,0,0,.57,2.77,5.06,5.06,0,0,0,1.91,1.88,33.69,33.69,0,0,0,14.25,4.87v3.38a5,5,0,0,0,1.46,3.75,5.19,5.19,0,0,0,3.79,1.42,5.17,5.17,0,0,0,3.78-1.42,5,5,0,0,0,1.47-3.75V78a20.57,20.57,0,0,0,11.21-5.62A14.31,14.31,0,0,0,48.93,62Zm33.15-11.4a12.11,12.11,0,0,0,6-4.54,12.43,12.43,0,0,0,2.14-7.24,13.06,13.06,0,0,0-2.29-7.65,14.66,14.66,0,0,0-6.52-5.1,24.89,24.89,0,0,0-9.79-1.8,30.1,30.1,0,0,0-8.89,1.35,24.93,24.93,0,0,0-7.61,3.75,6.06,6.06,0,0,0-1.8,2A5.82,5.82,0,0,0,52.76,34,6.15,6.15,0,0,0,54,38a3.86,3.86,0,0,0,3.15,1.61,5,5,0,0,0,1.88-.33c.55-.23,1.3-.59,2.25-1.09l1.57-.75A40,40,0,0,1,67,35.62a11.33,11.33,0,0,1,3.94-.68,6.46,6.46,0,0,1,4.57,1.54,5.61,5.61,0,0,1,1.65,4.31,4.21,4.21,0,0,1-1.87,3.83q-1.87,1.2-6,1.2H66a4.29,4.29,0,0,0-3.53,1.57,6.17,6.17,0,0,0,0,7.5A4.3,4.3,0,0,0,66,56.47h4.65q4.27,0,6.15,1.27a4.71,4.71,0,0,1,1.87,4.2q0,3.15-1.84,4.5t-6,1.35a13.82,13.82,0,0,1-4.32-.63,34.6,34.6,0,0,1-4.31-1.84l-.94-.41-.71-.34c-.95-.5-1.7-.86-2.25-1.09a5,5,0,0,0-1.87-.34,3.87,3.87,0,0,0-3.15,1.62,6.12,6.12,0,0,0-1.28,3.93,5.27,5.27,0,0,0,2.33,4.65,24,24,0,0,0,7.8,3.79,33.1,33.1,0,0,0,9.37,1.31A28.23,28.23,0,0,0,82,76.61a15.82,15.82,0,0,0,7-5.22,13.07,13.07,0,0,0,2.47-8A13.32,13.32,0,0,0,89,55.27,12.78,12.78,0,0,0,82.08,50.62Z"/></svg>