<svg id="Layer_1" data-name="Layer 1" xmlns="http://www.w3.org/2000/svg" viewBox="0 0 100 100"><title>l20_3_1</title><path d="M85.12,100H15A14.92,14.92,0,0,1,.05,85.07V14.93A14.92,14.92,0,0,1,15,0H85.12a14.93,14.93,0,0,1,14.93,14.93V85.07A14.93,14.93,0,0,1,85.12,100ZM30.29,62.4H26.11V38.22a4.43,4.43,0,0,0-1.25-3.31,4.5,4.5,0,0,0-3.29-1.23A8.59,8.59,0,0,0,17.34,35L9.18,39.7a3.48,3.48,0,0,0-1.79,3.17,4.28,4.28,0,0,0,1,2.77,3.05,3.05,0,0,0,2.45,1.25,3.44,3.44,0,0,0,1.78-.51L16.72,44V62.4H12.59a5,5,0,0,0-3.36.92,3.4,3.4,0,0,0-1.07,2.75c0,2.52,1.47,3.77,4.43,3.77h17.7c3,0,4.44-1.25,4.44-3.77a3.43,3.43,0,0,0-1.07-2.75A5.08,5.08,0,0,0,30.29,62.4ZM59.51,52.15H53.09V45.72a3,3,0,1,0-6,0v6.43H40.64a3,3,0,0,0-3,3,3,3,0,0,0,.87,2.16,2.85,2.85,0,0,0,2.14.9h6.43v6.37a3,3,0,0,0,5.18,2.14,2.94,2.94,0,0,0,.84-2.14V58.22h6.42a2.84,2.84,0,0,0,2.14-.9,3,3,0,0,0,.87-2.16,3,3,0,0,0-3-3ZM90.16,62.4H79.91L87.15,55a23.85,23.85,0,0,0,4.26-5.73,12.8,12.8,0,0,0,1.25-5.69,9.4,9.4,0,0,0-1.55-5.33,10,10,0,0,0-4.41-3.57,16.51,16.51,0,0,0-6.63-1.25A20.78,20.78,0,0,0,68.79,36.9a3.39,3.39,0,0,0-1.24,1.32,4.26,4.26,0,0,0-.34,1.84,4.41,4.41,0,0,0,.87,2.73,2.61,2.61,0,0,0,2.14,1.15,3.13,3.13,0,0,0,1-.16,6.16,6.16,0,0,0,1-.48c.39-.22.65-.37.79-.43l1-.52a22.67,22.67,0,0,1,2.88-1.24,8.23,8.23,0,0,1,2.73-.44,4,4,0,0,1,2.83.92,3.44,3.44,0,0,1,1,2.65q0,3-3.36,6.48L69.3,62a5.61,5.61,0,0,0-1.73,4,3.71,3.71,0,0,0,4,3.87H90.16a5.12,5.12,0,0,0,3.34-.91,3.54,3.54,0,0,0,1.1-2.86,3.38,3.38,0,0,0-1.1-2.78A5.25,5.25,0,0,0,90.16,62.4Z"/></svg>