<svg id="Layer_1" data-name="Layer 1" xmlns="http://www.w3.org/2000/svg" viewBox="0 0 100 100"><title>l20_3_1</title><path d="M85.27,100H15.13A14.92,14.92,0,0,1,.2,85.07V14.93A14.92,14.92,0,0,1,15.13,0H85.27A14.93,14.93,0,0,1,100.2,14.93V85.07A14.93,14.93,0,0,1,85.27,100ZM22.72,45.18a9.76,9.76,0,0,0-4.31.94,8.08,8.08,0,0,0-3.14,2.58A13.53,13.53,0,0,1,17.18,42a4.88,4.88,0,0,1,4.21-2.37,6.82,6.82,0,0,1,2.34.41c.75.27,1.69.68,2.81,1.22l1.12.56c.65.34,1.16.59,1.53.74a3.25,3.25,0,0,0,1.28.23,2.68,2.68,0,0,0,2.16-1.09,4.09,4.09,0,0,0,.9-2.68,3.73,3.73,0,0,0-.39-1.79,4.36,4.36,0,0,0-1.25-1.37,16.05,16.05,0,0,0-5.12-2.55,19.57,19.57,0,0,0-5.84-.92A13.79,13.79,0,0,0,13,34.72a14.86,14.86,0,0,0-5.25,6.56,24.74,24.74,0,0,0-1.86,10q0,8.67,3.92,13.36T20.93,69.3a13.12,13.12,0,0,0,6.48-1.58,11.33,11.33,0,0,0,4.46-4.41,13.58,13.58,0,0,0,.2-12.44,10.54,10.54,0,0,0-3.85-4.19A10.3,10.3,0,0,0,22.72,45.18ZM20.37,62.11a4.06,4.06,0,0,1-3.16-1.35A5,5,0,0,1,16,57.27a5,5,0,0,1,1.2-3.52,4.07,4.07,0,0,1,3.19-1.33,4,4,0,0,1,3.19,1.3,5.2,5.2,0,0,1,1.14,3.55,5.14,5.14,0,0,1-1.17,3.52A4,4,0,0,1,20.37,62.11Zm20.76-4.89H60a2.85,2.85,0,0,0,2.14-.9A3,3,0,0,0,63,54.15a2.94,2.94,0,0,0-3-3H41.13A2.85,2.85,0,0,0,39,52a3,3,0,0,0-.86,2.17,3,3,0,0,0,3,3Zm9.18-9.59a3.15,3.15,0,0,0,2.32-1,3.29,3.29,0,0,0,.94-2.35A3.2,3.2,0,0,0,52.63,42a3.11,3.11,0,0,0-2.32-1A3.07,3.07,0,0,0,48,42a3.21,3.21,0,0,0-.92,2.32A3.31,3.31,0,0,0,48,46.66,3.06,3.06,0,0,0,50.31,47.63Zm0,19.68a3.11,3.11,0,0,0,2.32-1,3.2,3.2,0,0,0,.94-2.29,3.29,3.29,0,0,0-.94-2.35,3.15,3.15,0,0,0-2.32-1,3.06,3.06,0,0,0-2.3,1,3.31,3.31,0,0,0-.92,2.35A3.21,3.21,0,0,0,48,66.37,3.07,3.07,0,0,0,50.31,67.31Zm33-22a12.82,12.82,0,0,0-5,.92V40h11q4.44,0,4.44-3.57t-4.44-3.52H73.51A4.33,4.33,0,0,0,70.3,34a4.42,4.42,0,0,0-1.12,3.26V51.1a2.8,2.8,0,0,0,1,2.21,3.55,3.55,0,0,0,2.4.84,4.83,4.83,0,0,0,2.3-.56,17.85,17.85,0,0,1,2.93-.91,13.91,13.91,0,0,1,2.78-.26,5.79,5.79,0,0,1,4,1.28A4.54,4.54,0,0,1,86,57.27a4.39,4.39,0,0,1-1.37,3.59A6.51,6.51,0,0,1,80.34,62a8.36,8.36,0,0,1-2.83-.46,30.62,30.62,0,0,1-2.88-1.22l-1-.51a15.39,15.39,0,0,0-1.53-.77,3.56,3.56,0,0,0-1.27-.2,2.62,2.62,0,0,0-2.14,1.09,4.21,4.21,0,0,0-.87,2.68,3.84,3.84,0,0,0,.38,1.76,4.52,4.52,0,0,0,1.2,1.4,16.67,16.67,0,0,0,5.23,2.55,21.29,21.29,0,0,0,6.19.92,16.57,16.57,0,0,0,7.3-1.53A11.47,11.47,0,0,0,93,63.39a12,12,0,0,0,1.74-6.48,12.24,12.24,0,0,0-1.46-6,10.21,10.21,0,0,0-4-4.08A11.75,11.75,0,0,0,83.35,45.33Z"/></svg>