<svg id="Layer_1" data-name="Layer 1" xmlns="http://www.w3.org/2000/svg" viewBox="0 0 100 100"><title>l20_1_1</title><path d="M85.07,100H14.93A14.92,14.92,0,0,1,0,85.07V14.93A14.92,14.92,0,0,1,14.93,0H85.07A14.92,14.92,0,0,1,100,14.93V85.07A14.92,14.92,0,0,1,85.07,100ZM48.93,62q0-5.33-2.59-8.48A15.11,15.11,0,0,0,40.19,49a63,63,0,0,0-9.11-2.7,36.67,36.67,0,0,1-7.57-2.4,3.84,3.84,0,0,1-2.4-3.6,4.58,4.58,0,0,1,2.1-3.94,9.41,9.41,0,0,1,5.47-1.46,16.87,16.87,0,0,1,4.39.56,20.09,20.09,0,0,1,3.86,1.5c1.2.63,2,1,2.33,1.24a21.5,21.5,0,0,0,2.4,1.12,5,5,0,0,0,1.72.3,4,4,0,0,0,3.15-1.65A6,6,0,0,0,47.88,34a5.81,5.81,0,0,0-.56-2.66,5.59,5.59,0,0,0-1.91-2,31.83,31.83,0,0,0-12.15-4.72V21.14a5,5,0,0,0-1.47-3.75A5.17,5.17,0,0,0,28,16a5.18,5.18,0,0,0-3.75,1.46,5,5,0,0,0-1.5,3.71v3.75a20.58,20.58,0,0,0-11.1,5.85,14.66,14.66,0,0,0-4.2,10.43,12.53,12.53,0,0,0,2.62,8.36,15.91,15.91,0,0,0,6.23,4.58A73.12,73.12,0,0,0,25.53,57q3.52.9,5.36,1.5A9.36,9.36,0,0,1,34,60.11a3.19,3.19,0,0,1,1.24,2.58,4.35,4.35,0,0,1-2.07,3.94,11.25,11.25,0,0,1-6,1.31A23.83,23.83,0,0,1,21,67.19a27.78,27.78,0,0,1-6.15-2.55,13.35,13.35,0,0,0-2.32-1.12,5.66,5.66,0,0,0-1.8-.3,3.9,3.9,0,0,0-3.12,1.65,6.1,6.1,0,0,0-1.31,3.9,5.92,5.92,0,0,0,.56,2.77,5.17,5.17,0,0,0,1.92,1.88,33.69,33.69,0,0,0,14.25,4.87v3.38a5,5,0,0,0,1.46,3.75,5.19,5.19,0,0,0,3.79,1.42,5.17,5.17,0,0,0,3.78-1.42,5,5,0,0,0,1.47-3.75V78a20.57,20.57,0,0,0,11.21-5.62A14.31,14.31,0,0,0,48.93,62Zm39.53,4.87H82.31V31.34a6.52,6.52,0,0,0-1.84-4.87,6.63,6.63,0,0,0-4.84-1.8,12.65,12.65,0,0,0-6.22,1.87l-12,7a5.1,5.1,0,0,0-2.63,4.65,6.32,6.32,0,0,0,1.5,4.09,4.52,4.52,0,0,0,3.6,1.83,5.13,5.13,0,0,0,2.63-.75l6-3.52V66.89H62.43q-3.37,0-5,1.35a5,5,0,0,0-1.57,4.05q0,5.55,6.52,5.55h26q6.53,0,6.52-5.55a5,5,0,0,0-1.57-4.05Q91.84,66.89,88.46,66.89Z"/></svg>