<svg id="Layer_1" data-name="Layer 1" xmlns="http://www.w3.org/2000/svg" viewBox="0 0 100 100"><title>l20_3_1</title><path d="M85.27,100H15.13A14.92,14.92,0,0,1,.2,85.07V14.93A14.92,14.92,0,0,1,15.13,0H85.27A14.93,14.93,0,0,1,100.2,14.93V85.07A14.93,14.93,0,0,1,85.27,100ZM31.33,50.33a7.7,7.7,0,0,0,4-3,8.86,8.86,0,0,0,1.45-5.1,8.44,8.44,0,0,0-3.54-7.16q-3.55-2.62-9.67-2.63t-9.64,2.63a8.42,8.42,0,0,0-3.57,7.16,8.67,8.67,0,0,0,1.43,5,8.33,8.33,0,0,0,4.08,3.14,8.52,8.52,0,0,0-4.79,3A8.91,8.91,0,0,0,9.4,59a8.79,8.79,0,0,0,3.8,7.57Q17,69.25,23.58,69.25T34,66.52A8.79,8.79,0,0,0,37.76,59a8.4,8.4,0,0,0-6.43-8.62ZM23.58,62.16c-3.7,0-5.56-1.32-5.56-4s1.86-4,5.56-4,5.56,1.32,5.56,4S27.29,62.16,23.58,62.16Zm0-22.64a5.48,5.48,0,0,1,3.42.89,3.47,3.47,0,0,1,1.12,2.88A3.53,3.53,0,0,1,27,46.2a5.35,5.35,0,0,1-3.42.92,5.35,5.35,0,0,1-3.42-.92A3.56,3.56,0,0,1,19,43.29a3.5,3.5,0,0,1,1.12-2.88A5.48,5.48,0,0,1,23.58,39.52ZM45.46,58.69h9.59a4.64,4.64,0,0,0,3.19-.94,3.37,3.37,0,0,0,1-2.62,3.32,3.32,0,0,0-1-2.61,4.75,4.75,0,0,0-3.19-.91H45.46q-4.23,0-4.23,3.52T45.46,58.69Zm41.77-25.8h-20a5,5,0,0,0-3.37.94,3.6,3.6,0,0,0-1.07,2.83,3.48,3.48,0,0,0,1.05,2.76,5.07,5.07,0,0,0,3.39.92H80L66.88,62.72a4.81,4.81,0,0,0-.71,2.45,3.74,3.74,0,0,0,1.37,2.93,4.68,4.68,0,0,0,3.17,1.2,4.35,4.35,0,0,0,2.16-.58,4.72,4.72,0,0,0,1.76-1.81L90.09,40.13a6.56,6.56,0,0,0,1-3.37,4,4,0,0,0-1-2.77A3.6,3.6,0,0,0,87.23,32.89Z"/></svg>