<svg id="Layer_1" data-name="Layer 1" xmlns="http://www.w3.org/2000/svg" viewBox="0 0 100 100"><title>l20_3_1</title><path d="M85.12,100H15A14.92,14.92,0,0,1,.05,85.07V14.93A14.92,14.92,0,0,1,15,0H85.12a14.93,14.93,0,0,1,14.93,14.93V85.07A14.93,14.93,0,0,1,85.12,100ZM27.26,52.33a8.2,8.2,0,0,0,4-3.09,8.46,8.46,0,0,0,1.45-4.92,9,9,0,0,0-1.55-5.2,10.08,10.08,0,0,0-4.44-3.47,17,17,0,0,0-6.66-1.22,20.49,20.49,0,0,0-6,.92A16.93,16.93,0,0,0,8.89,37.9a4.23,4.23,0,0,0-1.22,1.37,4,4,0,0,0-.36,1.79,4.19,4.19,0,0,0,.87,2.68,2.63,2.63,0,0,0,2.14,1.09,3.25,3.25,0,0,0,1.28-.23c.37-.15.88-.4,1.53-.73l1.07-.52A27.65,27.65,0,0,1,17,42.13a7.58,7.58,0,0,1,2.68-.46,4.39,4.39,0,0,1,3.11,1,3.82,3.82,0,0,1,1.12,2.93,2.86,2.86,0,0,1-1.28,2.6,7.84,7.84,0,0,1-4.08.82H16.29a2.91,2.91,0,0,0-2.4,1.07,4.21,4.21,0,0,0,0,5.1,2.93,2.93,0,0,0,2.4,1.07h3.16a7.63,7.63,0,0,1,4.18.87A3.19,3.19,0,0,1,24.91,60a3.55,3.55,0,0,1-1.25,3.06,7.09,7.09,0,0,1-4.11.92,9.25,9.25,0,0,1-2.93-.43,23.46,23.46,0,0,1-2.93-1.25l-.64-.28-.48-.23c-.65-.34-1.16-.59-1.53-.74a3.25,3.25,0,0,0-1.28-.23,2.63,2.63,0,0,0-2.14,1.09,4.21,4.21,0,0,0-.87,2.68,4,4,0,0,0,.36,1.76,4.11,4.11,0,0,0,1.22,1.4,16.42,16.42,0,0,0,5.31,2.58,22.8,22.8,0,0,0,6.37.89A19,19,0,0,0,27.23,70,10.67,10.67,0,0,0,32,66.46a8.9,8.9,0,0,0,1.68-5.41A9.06,9.06,0,0,0,32,55.49,8.69,8.69,0,0,0,27.26,52.33ZM61.83,64.26l-6.32-6.32,5.81-5.71a4.19,4.19,0,0,0,1.28-3,3.82,3.82,0,0,0-1.2-2.78,3.87,3.87,0,0,0-2.83-1.2,4.07,4.07,0,0,0-3,1.38l-5.51,5.56-5.46-5.56a3.91,3.91,0,0,0-3-1.43,3.8,3.8,0,0,0-2.83,1.23,3.93,3.93,0,0,0-1.2,2.85,4,4,0,0,0,1.27,2.91l5.82,5.71-6.33,6.32a4,4,0,0,0-1.27,2.91A3.85,3.85,0,0,0,38.27,70a4,4,0,0,0,2.86,1.22,4.09,4.09,0,0,0,3-1.38l5.91-6.22,6,6.22a4.07,4.07,0,0,0,3,1.38A3.91,3.91,0,0,0,61.88,70a3.86,3.86,0,0,0,1.23-2.81A4,4,0,0,0,61.83,64.26Zm27-.86H78.61L85.85,56a23.85,23.85,0,0,0,4.26-5.73,12.93,12.93,0,0,0,1.25-5.69,9.4,9.4,0,0,0-1.55-5.33,9.92,9.92,0,0,0-4.42-3.57,16.42,16.42,0,0,0-6.62-1.25A20.78,20.78,0,0,0,67.49,37.9a3.51,3.51,0,0,0-1.25,1.32,4.93,4.93,0,0,0,.54,4.57,2.61,2.61,0,0,0,2.14,1.15,3.13,3.13,0,0,0,1-.16,6.16,6.16,0,0,0,1-.48c.39-.22.65-.37.79-.43l1-.52a22.67,22.67,0,0,1,2.88-1.24,8.23,8.23,0,0,1,2.73-.44,4,4,0,0,1,2.83.92,3.44,3.44,0,0,1,1,2.65q0,3-3.36,6.48L68,63a5.61,5.61,0,0,0-1.73,4,3.71,3.71,0,0,0,4,3.87H88.86a5.12,5.12,0,0,0,3.34-.91,3.54,3.54,0,0,0,1.1-2.86,3.38,3.38,0,0,0-1.1-2.78A5.25,5.25,0,0,0,88.86,63.4Z"/></svg>