<svg id="Layer_1" data-name="Layer 1" xmlns="http://www.w3.org/2000/svg" viewBox="0 0 100 100"><title>l20_1_1</title><path d="M85.12,100H15A14.92,14.92,0,0,1,.05,85.07V14.93A14.92,14.92,0,0,1,15,0H85.12a14.93,14.93,0,0,1,14.93,14.93V85.07A14.93,14.93,0,0,1,85.12,100ZM66.77,31.56a13.76,13.76,0,0,0-6.84,1.69,13.14,13.14,0,0,0-4.82,4.57q-2.59-6.27-10.3-6.26-7.28,0-10.8,5.32A4.82,4.82,0,0,0,32.25,33,6.61,6.61,0,0,0,28,31.7a7.22,7.22,0,0,0-4.57,1.48,5.09,5.09,0,0,0-1.91,4.28V62.37a5.35,5.35,0,0,0,1.84,4.43A7.08,7.08,0,0,0,28,68.28a7.06,7.06,0,0,0,4.57-1.48,5.32,5.32,0,0,0,1.84-4.43V48.12a7.57,7.57,0,0,1,1.48-5,4.88,4.88,0,0,1,4-1.8,3.69,3.69,0,0,1,2.95,1.15c.68.77,1,2.11,1,4V62.37a5.32,5.32,0,0,0,1.84,4.43,7.08,7.08,0,0,0,4.57,1.48,7.06,7.06,0,0,0,4.61-1.48,5.39,5.39,0,0,0,1.8-4.43V48.12a7.47,7.47,0,0,1,1.51-5,5,5,0,0,1,4-1.8,3.69,3.69,0,0,1,3,1.15c.68.77,1,2.11,1,4V62.37A5.32,5.32,0,0,0,68,66.8a7.8,7.8,0,0,0,9.14,0,5.32,5.32,0,0,0,1.84-4.43V46.82q0-8.28-3.17-11.77T66.77,31.56Z"/></svg>