<svg id="Layer_1" data-name="Layer 1" xmlns="http://www.w3.org/2000/svg" viewBox="0 0 100 100"><title>l20_3_1</title><path d="M85.23,100H15.08A14.92,14.92,0,0,1,.16,85.07V14.93A14.92,14.92,0,0,1,15.08,0H85.23a14.93,14.93,0,0,1,14.93,14.93V85.07A14.93,14.93,0,0,1,85.23,100ZM19.51,53.56h-.7V42a2.71,2.71,0,0,0-.87-2.14,3,3,0,0,0-2.08-.77,3.12,3.12,0,0,0-1.42.34,3,3,0,0,0-1.14,1L4.15,53.46a3.59,3.59,0,0,0-.71,2.11,2.45,2.45,0,0,0,.68,1.76A2.39,2.39,0,0,0,5.94,58h7.14v1.08a2.86,2.86,0,0,0,.78,2.18,2.9,2.9,0,0,0,2.07.74A2.93,2.93,0,0,0,18,61.3a2.8,2.8,0,0,0,.81-2.18V58h.7c1.85,0,2.78-.76,2.78-2.28S21.36,53.56,19.51,53.56Zm-10.27,0L13.08,48v5.54Zm28.51-2.82h-4v-4a1.87,1.87,0,0,0-.55-1.35,1.82,1.82,0,0,0-1.34-.54,1.85,1.85,0,0,0-1.89,1.89v4h-4A1.85,1.85,0,0,0,24,52.63,1.9,1.9,0,0,0,24.56,54a1.83,1.83,0,0,0,1.35.56h4v4a1.85,1.85,0,0,0,1.89,1.88,1.79,1.79,0,0,0,1.36-.54,1.86,1.86,0,0,0,.53-1.34v-4h4A1.8,1.8,0,0,0,39.09,54a1.91,1.91,0,0,0,.55-1.36,1.87,1.87,0,0,0-.55-1.35A1.82,1.82,0,0,0,37.75,50.74ZM52.6,47.09a7.87,7.87,0,0,0-3.17.58V43.73h6.91c1.85,0,2.78-.74,2.78-2.24s-.93-2.21-2.78-2.21H46.42a2.73,2.73,0,0,0-2,.71,2.77,2.77,0,0,0-.7,2v8.67a1.74,1.74,0,0,0,.61,1.39,2.2,2.2,0,0,0,1.5.53,3,3,0,0,0,1.44-.36,12.72,12.72,0,0,1,1.84-.57,8.48,8.48,0,0,1,1.75-.16,3.63,3.63,0,0,1,2.49.8,2.84,2.84,0,0,1,.9,2.24,2.79,2.79,0,0,1-.87,2.26,4.07,4.07,0,0,1-2.65.72,5.4,5.4,0,0,1-1.78-.29,17.7,17.7,0,0,1-1.81-.77l-.64-.32a7,7,0,0,0-1-.48,2.06,2.06,0,0,0-.8-.13,1.65,1.65,0,0,0-1.34.69,2.64,2.64,0,0,0-.54,1.68,2.35,2.35,0,0,0,.24,1.1,2.76,2.76,0,0,0,.75.88,10.24,10.24,0,0,0,3.28,1.6A13.14,13.14,0,0,0,51,62.1a10.37,10.37,0,0,0,4.57-1,7.2,7.2,0,0,0,3.07-2.72,7.53,7.53,0,0,0,1.09-4.07,7.7,7.7,0,0,0-.91-3.79A6.49,6.49,0,0,0,56.29,48,7.47,7.47,0,0,0,52.6,47.09ZM76.79,57.72l-4-4,3.65-3.59a2.61,2.61,0,0,0,.8-1.85,2.56,2.56,0,0,0-2.53-2.5,2.57,2.57,0,0,0-1.89.87L69.4,50.16,66,46.68a2.44,2.44,0,0,0-1.89-.9,2.4,2.4,0,0,0-1.77.77,2.49,2.49,0,0,0,0,3.61L66,53.75l-4,4a2.48,2.48,0,0,0-.8,1.82A2.42,2.42,0,0,0,62,61.3a2.48,2.48,0,0,0,1.8.77,2.53,2.53,0,0,0,1.88-.87l3.72-3.9,3.74,3.9a2.54,2.54,0,0,0,1.89.87,2.46,2.46,0,0,0,1.79-.77,2.43,2.43,0,0,0,.77-1.76A2.52,2.52,0,0,0,76.79,57.72ZM89.72,47a6.08,6.08,0,0,0-2.71.59,5.06,5.06,0,0,0-2,1.61A8.52,8.52,0,0,1,86.24,45a3.09,3.09,0,0,1,2.64-1.49,4.08,4.08,0,0,1,1.48.26c.46.17,1,.42,1.76.76l.7.36c.41.21.72.36,1,.46a2,2,0,0,0,.8.14,1.71,1.71,0,0,0,1.36-.68,2.6,2.6,0,0,0,.56-1.68A2.35,2.35,0,0,0,96.26,42a2.82,2.82,0,0,0-.78-.87,10.44,10.44,0,0,0-3.22-1.6A12.55,12.55,0,0,0,88.6,39a8.75,8.75,0,0,0-5,1.43,9.41,9.41,0,0,0-3.3,4.12,15.49,15.49,0,0,0-1.16,6.25q0,5.45,2.46,8.39a8.6,8.6,0,0,0,7,2.94,8.27,8.27,0,0,0,4.06-1,7.1,7.1,0,0,0,2.8-2.77,8,8,0,0,0,1-4,8.14,8.14,0,0,0-.88-3.79,6.59,6.59,0,0,0-2.42-2.62A6.43,6.43,0,0,0,89.72,47ZM88.24,57.62a2.53,2.53,0,0,1-2-.85,3.13,3.13,0,0,1-.77-2.19,3.18,3.18,0,0,1,.75-2.21,2.58,2.58,0,0,1,2-.83,2.53,2.53,0,0,1,2,.81A3.27,3.27,0,0,1,91,54.58a3.22,3.22,0,0,1-.73,2.21A2.53,2.53,0,0,1,88.24,57.62Z"/></svg>