<svg id="Layer_1" data-name="Layer 1" xmlns="http://www.w3.org/2000/svg" viewBox="0 0 100 100"><title>l20_3_1</title><path d="M85.64,100H15.5A14.92,14.92,0,0,1,.57,85.07V14.93A14.92,14.92,0,0,1,15.5,0H85.64a14.92,14.92,0,0,1,14.93,14.93V85.07A14.92,14.92,0,0,1,85.64,100ZM26.5,51.33a8.22,8.22,0,0,0,4.06-3.08A8.5,8.5,0,0,0,32,43.32a8.89,8.89,0,0,0-1.56-5.2A10,10,0,0,0,26,34.65a17,17,0,0,0-6.66-1.22,20.49,20.49,0,0,0-6,.92A16.82,16.82,0,0,0,8.14,36.9a4.12,4.12,0,0,0-1.22,1.37,4,4,0,0,0-.36,1.79,4.19,4.19,0,0,0,.87,2.68,2.63,2.63,0,0,0,2.14,1.09,3.25,3.25,0,0,0,1.28-.23c.37-.15.88-.39,1.53-.73l1.07-.52a27.65,27.65,0,0,1,2.78-1.22,7.8,7.8,0,0,1,2.67-.46,4.35,4.35,0,0,1,3.11,1,3.79,3.79,0,0,1,1.13,2.93,2.86,2.86,0,0,1-1.28,2.6,7.74,7.74,0,0,1-4.08.82H15.54a2.91,2.91,0,0,0-2.4,1.07,4.17,4.17,0,0,0,0,5.1,2.93,2.93,0,0,0,2.4,1.07H18.7a7.63,7.63,0,0,1,4.18.87A3.19,3.19,0,0,1,24.16,59a3.55,3.55,0,0,1-1.25,3.06A7.13,7.13,0,0,1,18.8,63a9.21,9.21,0,0,1-2.93-.43,22.85,22.85,0,0,1-2.93-1.25l-.64-.28-.49-.23a16.33,16.33,0,0,0-1.53-.74A3.2,3.2,0,0,0,9,59.85a2.62,2.62,0,0,0-2.14,1.09A4.21,4.21,0,0,0,6,63.62a4,4,0,0,0,.36,1.76,3.83,3.83,0,0,0,1.22,1.4,16.42,16.42,0,0,0,5.31,2.58,22.8,22.8,0,0,0,6.37.89A19.05,19.05,0,0,0,26.48,69a10.7,10.7,0,0,0,4.76-3.54,8.85,8.85,0,0,0,1.69-5.41,9.06,9.06,0,0,0-1.71-5.56A8.68,8.68,0,0,0,26.5,51.33Zm33.56.82H53.63V45.72a3,3,0,0,0-3-3,3,3,0,0,0-3,3v6.43H41.19a3,3,0,0,0-3,3,3,3,0,0,0,.87,2.16,2.85,2.85,0,0,0,2.14.9h6.43v6.37a3,3,0,0,0,5.17,2.14,2.94,2.94,0,0,0,.84-2.14V58.22h6.43a2.85,2.85,0,0,0,2.14-.9,3,3,0,0,0,.87-2.16,3,3,0,0,0-3-3Zm32.13,4.48H91.07V38.22a4.31,4.31,0,0,0-1.38-3.41,4.8,4.8,0,0,0-3.31-1.23,5.05,5.05,0,0,0-2.27.54,4.6,4.6,0,0,0-1.81,1.55L67.71,56.48a5.72,5.72,0,0,0-1.12,3.37,3.86,3.86,0,0,0,1.07,2.8,3.8,3.8,0,0,0,2.9,1.12H81.94v1.74A4.51,4.51,0,0,0,83.19,69a4.61,4.61,0,0,0,3.29,1.17A4.7,4.7,0,0,0,89.79,69a4.48,4.48,0,0,0,1.28-3.47V63.77h1.12c3,0,4.44-1.2,4.44-3.62S95.15,56.63,92.19,56.63Zm-16.37,0,6.12-8.82v8.82Z"/></svg>