<svg id="Layer_1" data-name="Layer 1" xmlns="http://www.w3.org/2000/svg" viewBox="0 0 100 100"><title>l20_2_1</title><path d="M85.12,100H15A14.92,14.92,0,0,1,.05,85.07V14.93A14.92,14.92,0,0,1,15,0H85.12a14.93,14.93,0,0,1,14.93,14.93V85.07A14.93,14.93,0,0,1,85.12,100ZM39.25,49.13h-9.7V39.42A4.47,4.47,0,0,0,25,34.88a4.47,4.47,0,0,0-4.54,4.54v9.71h-9.7a4.46,4.46,0,0,0-4.55,4.54,4.54,4.54,0,0,0,1.31,3.27,4.34,4.34,0,0,0,3.24,1.35h9.7v9.62A4.47,4.47,0,0,0,25,72.46a4.38,4.38,0,0,0,3.28-1.31,4.51,4.51,0,0,0,1.27-3.24V58.29h9.7a4.32,4.32,0,0,0,3.23-1.35,4.54,4.54,0,0,0,1.31-3.27,4.46,4.46,0,0,0-4.54-4.54ZM87.53,64.6H81.21V28.1a6.7,6.7,0,0,0-1.88-5,6.82,6.82,0,0,0-5-1.85A13,13,0,0,0,68,23.18L55.65,30.34A5.23,5.23,0,0,0,53,35.11a6.52,6.52,0,0,0,1.54,4.2,4.63,4.63,0,0,0,3.7,1.88,5.17,5.17,0,0,0,2.69-.77L67,36.8V64.6H60.81c-2.31,0-4,.46-5.08,1.39a5.17,5.17,0,0,0-1.62,4.16q0,5.7,6.7,5.69H87.53q6.69,0,6.7-5.69A5.17,5.17,0,0,0,92.61,66Q91,64.6,87.53,64.6Z"/></svg>