<svg id="Layer_1" data-name="Layer 1" xmlns="http://www.w3.org/2000/svg" viewBox="0 0 100 100"><title>l20_1_1</title><path d="M85.12,100H15A14.92,14.92,0,0,1,.05,85.07V14.93A14.92,14.92,0,0,1,15,0H85.12a14.93,14.93,0,0,1,14.93,14.93V85.07A14.93,14.93,0,0,1,85.12,100ZM35,34.3,27.39,50.86,19.76,34.3a5.75,5.75,0,0,0-2.27-2.7,6,6,0,0,0-3.2-.9,7,7,0,0,0-4.53,1.62,4.87,4.87,0,0,0-2,3.92,5.85,5.85,0,0,0,.57,2.31L20.55,63l-4.68,9.43A5.6,5.6,0,0,0,15.23,75a4.77,4.77,0,0,0,1.83,3.78,6.37,6.37,0,0,0,4.21,1.55,5.67,5.67,0,0,0,3.06-.87,6,6,0,0,0,2.27-2.66L45.68,38.55a5.19,5.19,0,0,0,.58-2.38,4.84,4.84,0,0,0-1.87-3.81,6.4,6.4,0,0,0-4.25-1.59,5.52,5.52,0,0,0-3,.87A5.77,5.77,0,0,0,35,34.3ZM80.39,15.72a6.67,6.67,0,0,0-4.58,1.51,5.19,5.19,0,0,0-1.69,4V35.6a11,11,0,0,0-4.43-3.68,14.17,14.17,0,0,0-6.22-1.36,15.07,15.07,0,0,0-8.18,2.23,14.91,14.91,0,0,0-5.54,6.37,22,22,0,0,0-2,9.61,22.31,22.31,0,0,0,2,9.72,15.69,15.69,0,0,0,5.58,6.59,15.16,15.16,0,0,0,14.54.9,10.39,10.39,0,0,0,4.43-4,5.36,5.36,0,0,0,1.91,3.85,7.45,7.45,0,0,0,9-.18,5.56,5.56,0,0,0,1.73-4.32V21.48a5.26,5.26,0,0,0-1.84-4.14A6.84,6.84,0,0,0,80.39,15.72Zm-13,42.12a6,6,0,0,1-5.07-2.37,10.72,10.72,0,0,1-1.84-6.7,10,10,0,0,1,1.8-6.41,6.22,6.22,0,0,1,5.11-2.23,6.24,6.24,0,0,1,5.19,2.27q1.8,2.26,1.8,6.52c0,2.88-.6,5.08-1.8,6.62A6.18,6.18,0,0,1,67.35,57.84Z"/></svg>