<svg id="Layer_1" data-name="Layer 1" xmlns="http://www.w3.org/2000/svg" viewBox="0 0 100 100"><title>l20_4_1</title><path d="M85.12,100H15A14.92,14.92,0,0,1,.05,85.07V14.93A14.92,14.92,0,0,1,15,0H85.12a14.93,14.93,0,0,1,14.93,14.93V85.07A14.93,14.93,0,0,1,85.12,100ZM31.23,63.26l-6.32-6.32,5.81-5.71a4.19,4.19,0,0,0,1.28-3,3.82,3.82,0,0,0-1.2-2.78A3.87,3.87,0,0,0,28,44.29a4.07,4.07,0,0,0-3,1.38l-5.51,5.56L14,45.67a3.92,3.92,0,0,0-3-1.43,3.84,3.84,0,0,0-2.83,1.23A4,4,0,0,0,7,48.32a4,4,0,0,0,1.27,2.91l5.82,5.71L7.72,63.26a4,4,0,0,0-1.27,2.91A3.85,3.85,0,0,0,7.67,69a4,4,0,0,0,2.86,1.22,4.09,4.09,0,0,0,3-1.38l5.91-6.22,6,6.22a4.07,4.07,0,0,0,3,1.38A3.91,3.91,0,0,0,31.28,69a3.86,3.86,0,0,0,1.23-2.81A4,4,0,0,0,31.23,63.26Zm27-11.11H51.79V45.72a3,3,0,1,0-6,0v6.43H39.34a3,3,0,0,0-3,3,3,3,0,0,0,.87,2.16,2.85,2.85,0,0,0,2.14.9h6.43v6.37a3,3,0,0,0,5.17,2.14,3,3,0,0,0,.85-2.14V58.22h6.42a2.84,2.84,0,0,0,2.14-.9,3,3,0,0,0,.87-2.16,3,3,0,0,0-3-3ZM88.86,62.4H78.61L85.85,55a23.85,23.85,0,0,0,4.26-5.73,12.93,12.93,0,0,0,1.25-5.69,9.4,9.4,0,0,0-1.55-5.33,9.92,9.92,0,0,0-4.42-3.57,16.44,16.44,0,0,0-6.63-1.25A20.78,20.78,0,0,0,67.49,36.9a3.51,3.51,0,0,0-1.25,1.32,4.93,4.93,0,0,0,.54,4.57,2.61,2.61,0,0,0,2.14,1.15,3.13,3.13,0,0,0,1-.16,6.16,6.16,0,0,0,1-.48c.39-.22.65-.37.79-.43l1-.52a22.67,22.67,0,0,1,2.88-1.24,8.23,8.23,0,0,1,2.73-.44,4,4,0,0,1,2.83.92,3.44,3.44,0,0,1,1,2.65q0,3-3.37,6.48L68,62a5.61,5.61,0,0,0-1.73,4,3.71,3.71,0,0,0,4,3.87H88.86a5.12,5.12,0,0,0,3.34-.91,3.54,3.54,0,0,0,1.1-2.86,3.38,3.38,0,0,0-1.1-2.78A5.25,5.25,0,0,0,88.86,62.4Z"/></svg>