<svg id="Layer_1" data-name="Layer 1" xmlns="http://www.w3.org/2000/svg" viewBox="0 0 100 100"><title>l20_1_1</title><path d="M85.07,100H14.93A14.92,14.92,0,0,1,0,85.07V14.93A14.92,14.92,0,0,1,14.93,0H85.07A14.92,14.92,0,0,1,100,14.93V85.07A14.92,14.92,0,0,1,85.07,100ZM49.94,58.56,36.62,44.88l12.3-12.06a5,5,0,0,0,1.74-3.66,4.68,4.68,0,0,0-1.5-3.45,4.76,4.76,0,0,0-7,.15l-16.86,17V29.64a5.25,5.25,0,0,0-1.5-3.93,5.58,5.58,0,0,0-4.08-1.47,5.39,5.39,0,0,0-4,1.47,5.31,5.31,0,0,0-1.47,3.93v32.1a5.39,5.39,0,0,0,1.47,4,5.39,5.39,0,0,0,4,1.47,5.58,5.58,0,0,0,4.08-1.47,5.33,5.33,0,0,0,1.5-4V47.58L42.38,65.1A5.6,5.6,0,0,0,46.46,67,4.84,4.84,0,0,0,50,65.52,4.77,4.77,0,0,0,51.5,62,4.69,4.69,0,0,0,49.94,58.56ZM81.32,36.72a5.59,5.59,0,0,0-3.69,1.17A4.3,4.3,0,0,0,76.1,41.1a9,9,0,0,0-3.78-3.3,12.15,12.15,0,0,0-5.4-1.2,12.87,12.87,0,0,0-6.84,1.83,12.43,12.43,0,0,0-4.68,5.19,17.09,17.09,0,0,0-1.68,7.74,16.9,16.9,0,0,0,1.68,7.71,12.26,12.26,0,0,0,4.68,5.13A13,13,0,0,0,66.92,66a12.27,12.27,0,0,0,5.34-1.17A9.11,9.11,0,0,0,76,61.68V64q0,3.3-1.71,4.83T69,70.32A13.12,13.12,0,0,1,66,70q-1.44-.33-3.3-.93a15.63,15.63,0,0,0-3.9-.9,2.76,2.76,0,0,0-2.25,1.08,4.36,4.36,0,0,0-.87,2.82,3.85,3.85,0,0,0,.63,2.16A4.78,4.78,0,0,0,58,75.78a17.28,17.28,0,0,0,5,1.74,31.17,31.17,0,0,0,6.24.6q8.52,0,12.93-3.78t4.41-11.1V41.64a4.66,4.66,0,0,0-1.44-3.57A5.39,5.39,0,0,0,81.32,36.72ZM70.16,58a5.48,5.48,0,0,1-4.29-1.77,7.05,7.05,0,0,1-1.59-4.89,7.33,7.33,0,0,1,1.56-5,6.19,6.19,0,0,1,8.7,0,7.36,7.36,0,0,1,1.56,5,7.12,7.12,0,0,1-1.56,4.92A5.58,5.58,0,0,1,70.16,58Z"/></svg>