<svg id="Layer_1" data-name="Layer 1" xmlns="http://www.w3.org/2000/svg" viewBox="0 0 100 100"><title>l20_3_1</title><path d="M85.12,100H15A14.92,14.92,0,0,1,.05,85.07V14.93A14.92,14.92,0,0,1,15,0H85.12a14.93,14.93,0,0,1,14.93,14.93V85.07A14.93,14.93,0,0,1,85.12,100ZM29,63.4H18.71L26,56a23.85,23.85,0,0,0,4.26-5.73,12.8,12.8,0,0,0,1.25-5.69,9.4,9.4,0,0,0-1.55-5.33,10,10,0,0,0-4.41-3.57,16.51,16.51,0,0,0-6.63-1.25,20,20,0,0,0-5.89.92A19.84,19.84,0,0,0,7.59,37.9a3.39,3.39,0,0,0-1.24,1.32A4.26,4.26,0,0,0,6,41.06a4.41,4.41,0,0,0,.87,2.73A2.61,2.61,0,0,0,9,44.94a3.08,3.08,0,0,0,1-.16,5.83,5.83,0,0,0,1-.48c.39-.22.65-.37.79-.43l1-.52a24,24,0,0,1,2.88-1.24,8.23,8.23,0,0,1,2.73-.44,4,4,0,0,1,2.83.92,3.44,3.44,0,0,1,1,2.65q0,3-3.36,6.48L8.1,63a5.61,5.61,0,0,0-1.73,4,3.83,3.83,0,0,0,1.07,2.78,3.88,3.88,0,0,0,2.91,1.09H29a5.12,5.12,0,0,0,3.34-.91,3.54,3.54,0,0,0,1.1-2.86,3.38,3.38,0,0,0-1.1-2.78A5.25,5.25,0,0,0,29,63.4Zm30.6-10.25H53.14V46.72a3,3,0,1,0-6,0v6.43H40.69a3,3,0,0,0-2.14,5.17,2.85,2.85,0,0,0,2.14.9h6.43v6.37a3,3,0,0,0,5.18,2.14,2.94,2.94,0,0,0,.84-2.14V59.22h6.42a2.88,2.88,0,0,0,2.15-.9,3,3,0,0,0,.86-2.16,2.94,2.94,0,0,0-3-3Zm27.65-.82a8.24,8.24,0,0,0,4.05-3.08,8.5,8.5,0,0,0,1.45-4.93,8.89,8.89,0,0,0-1.55-5.2,10.08,10.08,0,0,0-4.44-3.47,17,17,0,0,0-6.65-1.22,20.56,20.56,0,0,0-6,.92,16.76,16.76,0,0,0-5.17,2.55,4.16,4.16,0,0,0-1.23,1.37,4,4,0,0,0-.36,1.79,4.19,4.19,0,0,0,.87,2.68,2.63,2.63,0,0,0,2.14,1.09,3.25,3.25,0,0,0,1.28-.23c.37-.15.88-.39,1.53-.73l1.07-.52a28.68,28.68,0,0,1,2.78-1.22,7.81,7.81,0,0,1,2.68-.46,4.39,4.39,0,0,1,3.11,1,3.82,3.82,0,0,1,1.12,2.93,2.86,2.86,0,0,1-1.28,2.6,7.74,7.74,0,0,1-4.08.82H76.24a2.91,2.91,0,0,0-2.4,1.07,4.21,4.21,0,0,0,0,5.1,2.93,2.93,0,0,0,2.4,1.07H79.4a7.63,7.63,0,0,1,4.18.87A3.19,3.19,0,0,1,84.86,60a3.55,3.55,0,0,1-1.25,3.06A7.09,7.09,0,0,1,79.5,64a9.25,9.25,0,0,1-2.93-.43,23.46,23.46,0,0,1-2.93-1.25L73,62.05l-.48-.23c-.65-.34-1.16-.59-1.53-.74a3.25,3.25,0,0,0-1.28-.23,2.63,2.63,0,0,0-2.14,1.09,4.21,4.21,0,0,0-.87,2.68,4,4,0,0,0,.36,1.76,4,4,0,0,0,1.22,1.4,16.42,16.42,0,0,0,5.31,2.58,22.8,22.8,0,0,0,6.37.89A19,19,0,0,0,87.18,70,10.67,10.67,0,0,0,92,66.46a8.9,8.9,0,0,0,1.68-5.41,9.06,9.06,0,0,0-1.71-5.56A8.69,8.69,0,0,0,87.21,52.33Z"/></svg>