<svg id="Layer_1" data-name="Layer 1" xmlns="http://www.w3.org/2000/svg" viewBox="0 0 100 100"><title>l20_3_1</title><path d="M85.12,100H15A14.92,14.92,0,0,1,.05,85.07V14.93A14.92,14.92,0,0,1,15,0H85.12a14.93,14.93,0,0,1,14.93,14.93V85.07A14.93,14.93,0,0,1,85.12,100ZM32.89,62.4H22.64L29.88,55a23.85,23.85,0,0,0,4.26-5.73,12.93,12.93,0,0,0,1.25-5.69,9.33,9.33,0,0,0-1.56-5.33,9.84,9.84,0,0,0-4.41-3.57,16.44,16.44,0,0,0-6.63-1.25,20,20,0,0,0-5.89.92,19.77,19.77,0,0,0-5.38,2.55,3.43,3.43,0,0,0-1.25,1.32,4.93,4.93,0,0,0,.54,4.57A2.6,2.6,0,0,0,13,43.94a3.13,3.13,0,0,0,1-.16,6.11,6.11,0,0,0,1-.48c.39-.22.66-.37.79-.43l1-.52a23.37,23.37,0,0,1,2.89-1.24,8.21,8.21,0,0,1,2.72-.44,4,4,0,0,1,2.83.92,3.41,3.41,0,0,1,1,2.65q0,3-3.37,6.48L12,62a5.57,5.57,0,0,0-1.73,4,3.79,3.79,0,0,0,1.07,2.78,3.86,3.86,0,0,0,2.9,1.09H32.89a5.12,5.12,0,0,0,3.34-.91,3.54,3.54,0,0,0,1.1-2.86,3.38,3.38,0,0,0-1.1-2.78A5.25,5.25,0,0,0,32.89,62.4Zm12.44-2.71h9.59a4.64,4.64,0,0,0,3.19-.94,3.35,3.35,0,0,0,1-2.63,3.28,3.28,0,0,0-1-2.6,4.75,4.75,0,0,0-3.19-.91H45.33q-4.23,0-4.23,3.51T45.33,59.69ZM87.61,62.4H83.43V38.22a4.39,4.39,0,0,0-1.25-3.31,4.48,4.48,0,0,0-3.29-1.23A8.62,8.62,0,0,0,74.66,35L66.5,39.7a3.48,3.48,0,0,0-1.79,3.17,4.28,4.28,0,0,0,1,2.77,3.05,3.05,0,0,0,2.45,1.25A3.51,3.51,0,0,0,70,46.38L74.05,44V62.4H69.92a5.06,5.06,0,0,0-3.37.92,3.43,3.43,0,0,0-1.07,2.75c0,2.52,1.48,3.77,4.44,3.77H87.61c3,0,4.44-1.25,4.44-3.77A3.43,3.43,0,0,0,91,63.32,5.06,5.06,0,0,0,87.61,62.4Z"/></svg>