<svg id="Layer_1" data-name="Layer 1" xmlns="http://www.w3.org/2000/svg" viewBox="0 0 100 100"><title>l20_3_1</title><path d="M85.12,100H15A14.92,14.92,0,0,1,.05,85.07V14.93A14.92,14.92,0,0,1,15,0H85.12a14.93,14.93,0,0,1,14.93,14.93V85.07A14.93,14.93,0,0,1,85.12,100ZM26,52.33A8.26,8.26,0,0,0,30,49.24a8.46,8.46,0,0,0,1.45-4.92,9,9,0,0,0-1.55-5.2,10.08,10.08,0,0,0-4.44-3.47,17,17,0,0,0-6.66-1.22,20.17,20.17,0,0,0-6,.92A16.76,16.76,0,0,0,7.6,37.9a4.16,4.16,0,0,0-1.23,1.37A4,4,0,0,0,6,41.06a4.19,4.19,0,0,0,.87,2.68A2.63,2.63,0,0,0,9,44.83a3.25,3.25,0,0,0,1.28-.23c.37-.15.88-.4,1.53-.74l1.07-.51a28.68,28.68,0,0,1,2.78-1.22,7.58,7.58,0,0,1,2.68-.46,4.39,4.39,0,0,1,3.11,1,3.82,3.82,0,0,1,1.12,2.93,2.86,2.86,0,0,1-1.28,2.6,7.84,7.84,0,0,1-4.08.82H15a2.91,2.91,0,0,0-2.4,1.07,4.21,4.21,0,0,0,0,5.1A2.93,2.93,0,0,0,15,56.31h3.16a7.63,7.63,0,0,1,4.18.87A3.19,3.19,0,0,1,23.61,60a3.55,3.55,0,0,1-1.25,3.06,7.09,7.09,0,0,1-4.11.92,9.55,9.55,0,0,1-2.93-.43,23.46,23.46,0,0,1-2.93-1.25l-.64-.28-.48-.23c-.65-.34-1.16-.59-1.53-.74a3.25,3.25,0,0,0-1.28-.23,2.63,2.63,0,0,0-2.14,1.09,4.21,4.21,0,0,0-.87,2.68,4,4,0,0,0,.36,1.76A4.11,4.11,0,0,0,7,67.78a16.62,16.62,0,0,0,5.31,2.58,22.8,22.8,0,0,0,6.37.89A19,19,0,0,0,25.93,70a10.67,10.67,0,0,0,4.77-3.54,8.9,8.9,0,0,0,1.68-5.41,9.06,9.06,0,0,0-1.71-5.56A8.69,8.69,0,0,0,26,52.33Zm15,6.89H59.82a2.85,2.85,0,0,0,2.14-.9,3,3,0,0,0,.87-2.17,3,3,0,0,0-3-3H41a2.83,2.83,0,0,0-2.14.89,3,3,0,0,0-.87,2.17,3,3,0,0,0,3,3Zm9.18-9.59a3.13,3.13,0,0,0,2.32-1,3.24,3.24,0,0,0,.94-2.35A3.16,3.16,0,0,0,52.45,44a3.27,3.27,0,0,0-4.62,0,3.2,3.2,0,0,0-.91,2.32,3.3,3.3,0,0,0,.91,2.35A3.07,3.07,0,0,0,50.13,49.63Zm0,19.68a3.1,3.1,0,0,0,2.32-1,3.16,3.16,0,0,0,.94-2.29,3.24,3.24,0,0,0-.94-2.35,3.13,3.13,0,0,0-2.32-1,3.07,3.07,0,0,0-2.3,1,3.3,3.3,0,0,0-.91,2.35,3.2,3.2,0,0,0,.91,2.32A3.08,3.08,0,0,0,50.13,69.31Zm40-5.91H79.91L87.15,56a23.85,23.85,0,0,0,4.26-5.73,12.8,12.8,0,0,0,1.25-5.69,9.4,9.4,0,0,0-1.55-5.33,10,10,0,0,0-4.41-3.57,16.51,16.51,0,0,0-6.63-1.25A20.85,20.85,0,0,0,68.79,37.9a3.39,3.39,0,0,0-1.24,1.32,4.26,4.26,0,0,0-.34,1.84,4.41,4.41,0,0,0,.87,2.73,2.6,2.6,0,0,0,2.14,1.14,3.08,3.08,0,0,0,1-.15,5.83,5.83,0,0,0,1-.48l.79-.44,1-.51a26,26,0,0,1,2.88-1.25,8.49,8.49,0,0,1,2.73-.43,4,4,0,0,1,2.83.92,3.44,3.44,0,0,1,1,2.65q0,3-3.36,6.48L69.3,63a5.61,5.61,0,0,0-1.73,4,3.71,3.71,0,0,0,4,3.87H90.16a5.12,5.12,0,0,0,3.34-.91,3.54,3.54,0,0,0,1.1-2.86,3.38,3.38,0,0,0-1.1-2.78A5.19,5.19,0,0,0,90.16,63.4Z"/></svg>