<svg id="Layer_1" data-name="Layer 1" xmlns="http://www.w3.org/2000/svg" viewBox="0 0 100 100"><title>l20_2_1</title><path d="M85,100.09H14.84A14.94,14.94,0,0,1-.09,85.16V15A14.93,14.93,0,0,1,14.84.09H85A14.92,14.92,0,0,1,99.91,15V85.16A14.93,14.93,0,0,1,85,100.09ZM29.12,51.15a9.73,9.73,0,0,0,4.77-3.63,10,10,0,0,0,1.71-5.79,10.48,10.48,0,0,0-1.83-6.12,11.74,11.74,0,0,0-5.22-4.08,19.89,19.89,0,0,0-7.83-1.44,24.05,24.05,0,0,0-7.11,1.08,19.91,19.91,0,0,0-6.09,3,4.84,4.84,0,0,0-1.44,1.62,4.68,4.68,0,0,0-.42,2.1,4.92,4.92,0,0,0,1,3.15A3.1,3.1,0,0,0,9.2,42.33a3.93,3.93,0,0,0,1.5-.27q.66-.27,1.8-.87l1.26-.6A32.39,32.39,0,0,1,17,39.15a9.06,9.06,0,0,1,3.15-.54,5.16,5.16,0,0,1,3.66,1.23,4.48,4.48,0,0,1,1.32,3.45,3.36,3.36,0,0,1-1.5,3.06,9.19,9.19,0,0,1-4.8,1H16.22a3.43,3.43,0,0,0-2.82,1.26,4.92,4.92,0,0,0,0,6,3.43,3.43,0,0,0,2.82,1.26h3.72a9,9,0,0,1,4.92,1,3.77,3.77,0,0,1,1.5,3.36,4.17,4.17,0,0,1-1.47,3.6q-1.47,1.08-4.83,1.08a10.88,10.88,0,0,1-3.45-.51,26.83,26.83,0,0,1-3.45-1.47l-.75-.33-.57-.27q-1.14-.6-1.8-.87a3.93,3.93,0,0,0-1.5-.27A3.1,3.1,0,0,0,6,62.46a4.92,4.92,0,0,0-1,3.15,4.72,4.72,0,0,0,.42,2.07,4.73,4.73,0,0,0,1.44,1.65,19.29,19.29,0,0,0,6.24,3,26.65,26.65,0,0,0,7.5,1,22.52,22.52,0,0,0,8.49-1.47,12.62,12.62,0,0,0,5.61-4.17,10.46,10.46,0,0,0,2-6.36,10.64,10.64,0,0,0-2-6.54A10.21,10.21,0,0,0,29.12,51.15Zm17.94,23.7L60.68,32.07a6.62,6.62,0,0,0,.24-1.32,3.5,3.5,0,0,0-1.29-2.82,4.49,4.49,0,0,0-3-1.08,4,4,0,0,0-2.31.72,4.08,4.08,0,0,0-1.53,2.16L39.2,72.51A4,4,0,0,0,39,73.89a3.47,3.47,0,0,0,1.26,2.76,4.38,4.38,0,0,0,2.94,1.08,4,4,0,0,0,3.9-2.88ZM91.34,57.39H90V35.73a5.1,5.1,0,0,0-1.62-4,5.67,5.67,0,0,0-3.9-1.44,6,6,0,0,0-2.67.63,5.52,5.52,0,0,0-2.13,1.83L62.54,57.21a6.72,6.72,0,0,0-1.32,4,4.59,4.59,0,0,0,1.26,3.3,4.5,4.5,0,0,0,3.42,1.32H79.28v2a5.33,5.33,0,0,0,1.47,4.08,5.42,5.42,0,0,0,3.87,1.38,5.53,5.53,0,0,0,3.9-1.38A5.27,5.27,0,0,0,90,67.83v-2h1.32q5.22,0,5.22-4.26T91.34,57.39Zm-19.26,0L79.28,47V57.39Z"/></svg>