<svg id="Layer_1" data-name="Layer 1" xmlns="http://www.w3.org/2000/svg" viewBox="0 0 100 100"><title>l20_2_1</title><path d="M85.23,99.58H15.08A14.93,14.93,0,0,1,.16,84.65V14.51A14.92,14.92,0,0,1,15.08-.42H85.23a14.93,14.93,0,0,1,14.93,14.93V84.65A14.94,14.94,0,0,1,85.23,99.58ZM34.64,56.88H33.32V35.22a5.1,5.1,0,0,0-1.62-4,5.67,5.67,0,0,0-3.9-1.44,6,6,0,0,0-2.67.63A5.52,5.52,0,0,0,23,32.22L5.84,56.7a6.72,6.72,0,0,0-1.32,4A4.59,4.59,0,0,0,5.78,64,4.5,4.5,0,0,0,9.2,65.28H22.58v2a5.33,5.33,0,0,0,1.47,4.08,5.42,5.42,0,0,0,3.87,1.38,5.53,5.53,0,0,0,3.9-1.38,5.27,5.27,0,0,0,1.5-4.08v-2h1.32q5.22,0,5.22-4.26T34.64,56.88Zm-19.26,0,7.2-10.38V56.88ZM47.3,74.34,60.92,31.56a6.62,6.62,0,0,0,.24-1.32,3.5,3.5,0,0,0-1.29-2.82,4.49,4.49,0,0,0-3-1.08,4,4,0,0,0-2.31.72,4.08,4.08,0,0,0-1.53,2.16L39.44,72a4,4,0,0,0-.24,1.38,3.47,3.47,0,0,0,1.26,2.76,4.38,4.38,0,0,0,2.94,1.08,4,4,0,0,0,3.9-2.88ZM81.62,44.76a15,15,0,0,0-5.94,1.08V38.46h13q5.22,0,5.22-4.2t-5.22-4.14H70a5.12,5.12,0,0,0-3.78,1.32,5.2,5.2,0,0,0-1.32,3.84V51.54a3.29,3.29,0,0,0,1.14,2.61,4.15,4.15,0,0,0,2.82,1,5.73,5.73,0,0,0,2.7-.66,21.25,21.25,0,0,1,3.45-1.08,16.4,16.4,0,0,1,3.27-.3A6.78,6.78,0,0,1,83,54.6a5.34,5.34,0,0,1,1.68,4.2A5.2,5.2,0,0,1,83.06,63a7.67,7.67,0,0,1-5,1.35,9.94,9.94,0,0,1-3.33-.54,33.43,33.43,0,0,1-3.39-1.44l-1.2-.6a18.27,18.27,0,0,0-1.8-.9,4.06,4.06,0,0,0-1.5-.24A3.1,3.1,0,0,0,64.34,62a4.92,4.92,0,0,0-1,3.15,4.45,4.45,0,0,0,.45,2.07,5.32,5.32,0,0,0,1.41,1.65,19.81,19.81,0,0,0,6.15,3,25,25,0,0,0,7.29,1.08,19.47,19.47,0,0,0,8.58-1.8A13.51,13.51,0,0,0,93,66a14.19,14.19,0,0,0,2-7.62,14.44,14.44,0,0,0-1.71-7.11,12.16,12.16,0,0,0-4.74-4.8A13.85,13.85,0,0,0,81.62,44.76Z"/></svg>