<svg id="Layer_1" data-name="Layer 1" xmlns="http://www.w3.org/2000/svg" viewBox="0 0 100 100"><title>l20_2_1</title><path d="M85.64,100H15.5A14.92,14.92,0,0,1,.57,85.07V14.93A14.92,14.92,0,0,1,15.5,0H85.64a14.92,14.92,0,0,1,14.93,14.93V85.07A14.92,14.92,0,0,1,85.64,100ZM24.47,74.38c5.23,0,9.24-1.86,12-5.58s4.14-9.1,4.14-16.14S39.22,40.3,36.44,36.58,29.66,31,24.47,31s-9.24,1.86-12,5.58S8.33,45.66,8.33,52.66,9.71,65.08,12.47,68.8,19.23,74.38,24.47,74.38Zm0-8.34q-2.88,0-4.14-3.12T19.07,52.66q0-7.14,1.26-10.23t4.14-3.09q2.88,0,4.14,3.12t1.26,10.2q0,7.16-1.26,10.26T24.47,66ZM50.62,74.2a5.53,5.53,0,0,0,4.11-1.68,6,6,0,0,0,0-8.28,5.53,5.53,0,0,0-4.11-1.68,5.61,5.61,0,0,0-4.17,1.68,6,6,0,0,0,0,8.28A5.61,5.61,0,0,0,50.62,74.2ZM84.4,52.06a9.73,9.73,0,0,0,4.77-3.63,10,10,0,0,0,1.71-5.79,10.48,10.48,0,0,0-1.83-6.12,11.74,11.74,0,0,0-5.22-4.08A19.89,19.89,0,0,0,76,31a24.05,24.05,0,0,0-7.11,1.08,19.91,19.91,0,0,0-6.09,3,4.84,4.84,0,0,0-1.44,1.62,4.68,4.68,0,0,0-.42,2.1A4.92,4.92,0,0,0,62,42a3.1,3.1,0,0,0,2.52,1.29A3.93,3.93,0,0,0,66,43q.66-.27,1.8-.87L69,41.5a32.39,32.39,0,0,1,3.27-1.44,9.06,9.06,0,0,1,3.15-.54,5.16,5.16,0,0,1,3.66,1.23,4.48,4.48,0,0,1,1.32,3.45,3.36,3.36,0,0,1-1.5,3.06,9.19,9.19,0,0,1-4.8,1H71.5a3.43,3.43,0,0,0-2.82,1.26,4.92,4.92,0,0,0,0,6,3.43,3.43,0,0,0,2.82,1.26h3.72a9,9,0,0,1,4.92,1,3.77,3.77,0,0,1,1.5,3.36,4.17,4.17,0,0,1-1.47,3.6Q78.7,65.8,75.34,65.8a10.88,10.88,0,0,1-3.45-.51,26.83,26.83,0,0,1-3.45-1.47l-.75-.33-.57-.27q-1.14-.6-1.8-.87a3.93,3.93,0,0,0-1.5-.27,3.1,3.1,0,0,0-2.52,1.29,4.92,4.92,0,0,0-1,3.15,4.2,4.2,0,0,0,1.86,3.72,19.29,19.29,0,0,0,6.24,3,26.65,26.65,0,0,0,7.5,1,22.52,22.52,0,0,0,8.49-1.47A12.62,12.62,0,0,0,90,68.68a10.46,10.46,0,0,0,2-6.36,10.64,10.64,0,0,0-2-6.54A10.21,10.21,0,0,0,84.4,52.06Z"/></svg>