<svg id="Layer_1" data-name="Layer 1" xmlns="http://www.w3.org/2000/svg" viewBox="0 0 100 100"><title>l20_3_1</title><path d="M85.12,100H15A14.92,14.92,0,0,1,.05,85.07V14.93A14.92,14.92,0,0,1,15,0H85.12a14.93,14.93,0,0,1,14.93,14.93V85.07A14.93,14.93,0,0,1,85.12,100ZM29,62.4H18.71L26,55a23.85,23.85,0,0,0,4.26-5.73,12.8,12.8,0,0,0,1.25-5.69,9.4,9.4,0,0,0-1.55-5.33,10,10,0,0,0-4.41-3.57,16.51,16.51,0,0,0-6.63-1.25,19.64,19.64,0,0,0-5.89.92A19.84,19.84,0,0,0,7.59,36.9a3.39,3.39,0,0,0-1.24,1.32A4.26,4.26,0,0,0,6,40.06a4.41,4.41,0,0,0,.87,2.73A2.6,2.6,0,0,0,9,43.93a3.08,3.08,0,0,0,1-.15,5.83,5.83,0,0,0,1-.48l.79-.44,1-.51a26,26,0,0,1,2.88-1.25,8.49,8.49,0,0,1,2.73-.43,4,4,0,0,1,2.83.92,3.44,3.44,0,0,1,1,2.65q0,3-3.36,6.48L8.1,62a5.61,5.61,0,0,0-1.73,4,3.83,3.83,0,0,0,1.07,2.78,3.88,3.88,0,0,0,2.91,1.09H29a5.12,5.12,0,0,0,3.34-.91,3.51,3.51,0,0,0,1.1-2.86,3.35,3.35,0,0,0-1.1-2.78A5.19,5.19,0,0,0,29,62.4Zm12-4.18H59.87a2.85,2.85,0,0,0,2.14-.9,3,3,0,0,0,.87-2.17,3,3,0,0,0-3-3H41a2.85,2.85,0,0,0-2.14.89A3,3,0,0,0,38,55.21a3,3,0,0,0,3,3Zm9.18-9.59a3.13,3.13,0,0,0,2.32-1,3.24,3.24,0,0,0,.94-2.35A3.16,3.16,0,0,0,52.5,43a3.27,3.27,0,0,0-4.62,0A3.2,3.2,0,0,0,47,45.31a3.3,3.3,0,0,0,.91,2.35A3.07,3.07,0,0,0,50.18,48.63Zm0,19.68a3.1,3.1,0,0,0,2.32-1,3.16,3.16,0,0,0,.94-2.29,3.24,3.24,0,0,0-.94-2.35,3.13,3.13,0,0,0-2.32-1,3.07,3.07,0,0,0-2.3,1A3.3,3.3,0,0,0,47,65.05a3.2,3.2,0,0,0,.91,2.32A3.08,3.08,0,0,0,50.18,68.31ZM91.54,62.4H87.36V38.22a4.43,4.43,0,0,0-1.25-3.31,4.48,4.48,0,0,0-3.29-1.23A8.59,8.59,0,0,0,78.59,35L70.43,39.7a3.48,3.48,0,0,0-1.79,3.16,4.28,4.28,0,0,0,1,2.78,3.05,3.05,0,0,0,2.45,1.25,3.44,3.44,0,0,0,1.78-.51L78,44V62.4H73.84a5.09,5.09,0,0,0-3.36.91,3.44,3.44,0,0,0-1.07,2.76c0,2.52,1.48,3.77,4.43,3.77h17.7c3,0,4.44-1.25,4.44-3.77a3.47,3.47,0,0,0-1.07-2.76A5.14,5.14,0,0,0,91.54,62.4Z"/></svg>