<svg id="Layer_1" data-name="Layer 1" xmlns="http://www.w3.org/2000/svg" viewBox="0 0 100 100"><title>l20_3_1</title><path d="M85.27,100H15.13A14.92,14.92,0,0,1,.2,85.07V14.93A14.92,14.92,0,0,1,15.13,0H85.27A14.93,14.93,0,0,1,100.2,14.93V85.07A14.93,14.93,0,0,1,85.27,100ZM26.64,45.18a9.82,9.82,0,0,0-4.31.94A8.05,8.05,0,0,0,19.2,48.7,13.53,13.53,0,0,1,21.11,42a4.88,4.88,0,0,1,4.21-2.37,6.86,6.86,0,0,1,2.34.41c.75.27,1.68.68,2.81,1.22l1.12.57a15.79,15.79,0,0,0,1.53.73,3.2,3.2,0,0,0,1.27.23,2.7,2.7,0,0,0,2.17-1.09,4.09,4.09,0,0,0,.89-2.68,3.73,3.73,0,0,0-.38-1.79,4.36,4.36,0,0,0-1.25-1.37,16.27,16.27,0,0,0-5.12-2.55,19.89,19.89,0,0,0-5.84-.92,13.79,13.79,0,0,0-7.93,2.29,14.81,14.81,0,0,0-5.26,6.56,24.74,24.74,0,0,0-1.86,10q0,8.67,3.93,13.36T24.86,69.3a13.06,13.06,0,0,0,6.47-1.58,11.35,11.35,0,0,0,4.47-4.41A13.66,13.66,0,0,0,36,50.87a10.61,10.61,0,0,0-3.85-4.19A10.33,10.33,0,0,0,26.64,45.18ZM24.29,62.11a4.08,4.08,0,0,1-3.16-1.35,5.68,5.68,0,0,1,0-7,4.06,4.06,0,0,1,3.18-1.33,4,4,0,0,1,3.19,1.3,6,6,0,0,1,0,7.07A4,4,0,0,1,24.29,62.11Zm21.17-3.42h9.59a4.64,4.64,0,0,0,3.19-.94,3.38,3.38,0,0,0,1-2.63,3.31,3.31,0,0,0-1-2.6,4.75,4.75,0,0,0-3.19-.91H45.46q-4.23,0-4.23,3.51T45.46,58.69Zm34-13.36a12.76,12.76,0,0,0-5.05.92V40h11q4.44,0,4.44-3.57t-4.44-3.52H69.58A4.34,4.34,0,0,0,66.37,34a4.42,4.42,0,0,0-1.12,3.26V51.1a2.78,2.78,0,0,0,1,2.21,3.51,3.51,0,0,0,2.39.85,4.81,4.81,0,0,0,2.3-.57,18.15,18.15,0,0,1,2.93-.91,13.91,13.91,0,0,1,2.78-.26,5.77,5.77,0,0,1,4,1.28A4.55,4.55,0,0,1,82,57.27a4.4,4.4,0,0,1-1.38,3.59A6.49,6.49,0,0,1,76.42,62a8.32,8.32,0,0,1-2.83-.46,26.41,26.41,0,0,1-2.88-1.22l-1-.51a16.72,16.72,0,0,0-1.52-.77,3.66,3.66,0,0,0-1.28-.2,2.63,2.63,0,0,0-2.14,1.09,4.21,4.21,0,0,0-.87,2.68,3.84,3.84,0,0,0,.38,1.76,4.65,4.65,0,0,0,1.2,1.4,16.78,16.78,0,0,0,5.23,2.55,21,21,0,0,0,6.2.92,16.56,16.56,0,0,0,7.29-1.53,11.49,11.49,0,0,0,4.9-4.33,12.12,12.12,0,0,0,1.73-6.48,12.35,12.35,0,0,0-1.45-6,10.34,10.34,0,0,0-4-4.08A11.77,11.77,0,0,0,79.43,45.33Z"/></svg>