<svg id="Layer_1" data-name="Layer 1" xmlns="http://www.w3.org/2000/svg" viewBox="0 0 100 100"><title>l20_2_1</title><path d="M85.12,100H15A14.92,14.92,0,0,1,.05,85.07V14.93A14.92,14.92,0,0,1,15,0H85.12a14.93,14.93,0,0,1,14.93,14.93V85.07A14.93,14.93,0,0,1,85.12,100ZM23.91,75.38q7.86,0,12-5.58t4.14-16.14q0-10.5-4.17-16.08T23.91,32q-7.86,0-12,5.58T7.77,53.66q0,10.56,4.14,16.14T23.91,75.38Zm0-8.34Q21,67,19.77,63.92T18.51,53.66q0-7.14,1.26-10.23t4.14-3.09q2.88,0,4.14,3.12t1.26,10.2q0,7.16-1.26,10.26T23.91,67ZM50.07,75.2a5.53,5.53,0,0,0,4.11-1.68,6,6,0,0,0,0-8.28,5.53,5.53,0,0,0-4.11-1.68,5.6,5.6,0,0,0-4.17,1.68,6,6,0,0,0,0,8.28A5.6,5.6,0,0,0,50.07,75.2Zm37.32-9.12H75.33l8.52-8.7a28.08,28.08,0,0,0,5-6.75,15.12,15.12,0,0,0,1.47-6.69,11,11,0,0,0-1.83-6.27,11.71,11.71,0,0,0-5.19-4.2A19.31,19.31,0,0,0,75.51,32a24.42,24.42,0,0,0-13.26,4.08,4,4,0,0,0-1.47,1.56A5.78,5.78,0,0,0,61.41,43a3.06,3.06,0,0,0,2.52,1.35,3.58,3.58,0,0,0,1.14-.18,7.18,7.18,0,0,0,1.23-.57l.93-.51,1.2-.6A29,29,0,0,1,71.82,41,9.73,9.73,0,0,1,75,40.52a4.73,4.73,0,0,1,3.33,1.08,4,4,0,0,1,1.17,3.12q0,3.48-4,7.62L62.85,65.6a6.57,6.57,0,0,0-2,4.68,4.49,4.49,0,0,0,1.26,3.27,4.56,4.56,0,0,0,3.42,1.29h21.9a6,6,0,0,0,3.93-1.08,4.12,4.12,0,0,0,1.29-3.36,4,4,0,0,0-1.29-3.27A6.15,6.15,0,0,0,87.39,66.08Z"/></svg>