<svg id="Layer_1" data-name="Layer 1" xmlns="http://www.w3.org/2000/svg" viewBox="0 0 100 100"><title>l20_1_1</title><path d="M85.64,100H15.5A14.92,14.92,0,0,1,.57,85.07V14.93A14.92,14.92,0,0,1,15.5,0H85.64a14.92,14.92,0,0,1,14.93,14.93V85.07A14.92,14.92,0,0,1,85.64,100ZM39.14,36.6a13,13,0,0,0-5.4,1.08,10.39,10.39,0,0,0-4,3.18v-12a4.24,4.24,0,0,0-1.44-3.36,5.53,5.53,0,0,0-3.78-1.26,5.68,5.68,0,0,0-4,1.35A4.43,4.43,0,0,0,19,29V62.28a4.63,4.63,0,0,0,1.44,3.6,5.53,5.53,0,0,0,3.9,1.32,5.55,5.55,0,0,0,3.9-1.32,4.63,4.63,0,0,0,1.44-3.6V50.4a5.83,5.83,0,0,1,1.41-4.11,4.91,4.91,0,0,1,3.81-1.53q3.72,0,3.72,4.32v13.2a4.63,4.63,0,0,0,1.44,3.6A5.55,5.55,0,0,0,44,67.2a5.55,5.55,0,0,0,3.9-1.32,4.63,4.63,0,0,0,1.44-3.6v-13q0-6.42-2.52-9.57T39.14,36.6Zm29.94,0a30.58,30.58,0,0,0-6.24.66A20.66,20.66,0,0,0,57.56,39a4.73,4.73,0,0,0-1.75,1.5,4,4,0,0,0-.54,2.16,4.26,4.26,0,0,0,.91,2.82,2.94,2.94,0,0,0,2.4,1.08,7.47,7.47,0,0,0,2.34-.48,24.09,24.09,0,0,1,7.2-1.68,4.58,4.58,0,0,1,3.24.93,4.12,4.12,0,0,1,1,3v.72H70.7a44.59,44.59,0,0,0-9.72.84,9.65,9.65,0,0,0-5.25,2.73,7.39,7.39,0,0,0-1.65,5.07,9,9,0,0,0,1.4,5,9.49,9.49,0,0,0,3.88,3.42,12.14,12.14,0,0,0,5.52,1.23,9,9,0,0,0,4.74-1.2,6.69,6.69,0,0,0,2.82-3.36A4.49,4.49,0,0,0,73.91,66a4.94,4.94,0,0,0,3.45,1.2,5.22,5.22,0,0,0,3.75-1.29,4.7,4.7,0,0,0,1.35-3.57V49.8c0-4.44-1.1-7.74-3.27-9.93S73.64,36.6,69.08,36.6ZM67.4,60.18a3,3,0,0,1-2.25-.9A3.1,3.1,0,0,1,64.27,57a2.37,2.37,0,0,1,1.63-2.31A15.28,15.28,0,0,1,71.36,54h1v.72a5.64,5.64,0,0,1-1.37,3.93A4.55,4.55,0,0,1,67.4,60.18Z"/></svg>