<svg id="Layer_1" data-name="Layer 1" xmlns="http://www.w3.org/2000/svg" viewBox="0 0 100 100"><title>l20_3_1</title><path d="M85.12,100H15A14.92,14.92,0,0,1,.05,85.07V14.93A14.92,14.92,0,0,1,15,0H85.12a14.93,14.93,0,0,1,14.93,14.93V85.07A14.93,14.93,0,0,1,85.12,100ZM25.93,46.33a12.79,12.79,0,0,0-5.05.92V41h11q4.43,0,4.43-3.57T31.9,33.89H16.09A4.35,4.35,0,0,0,12.87,35a4.46,4.46,0,0,0-1.12,3.26V52.1a2.78,2.78,0,0,0,1,2.21,3.56,3.56,0,0,0,2.4.85,4.8,4.8,0,0,0,2.29-.57,18.15,18.15,0,0,1,2.93-.91,14,14,0,0,1,2.78-.26,5.77,5.77,0,0,1,4,1.28,4.55,4.55,0,0,1,1.43,3.57,4.4,4.4,0,0,1-1.38,3.59A6.48,6.48,0,0,1,22.92,63a8.36,8.36,0,0,1-2.83-.46,26.41,26.41,0,0,1-2.88-1.22l-1-.51a15.39,15.39,0,0,0-1.53-.77,3.62,3.62,0,0,0-1.28-.2,2.63,2.63,0,0,0-2.14,1.09,4.21,4.21,0,0,0-.87,2.68,3.72,3.72,0,0,0,.39,1.76,4.39,4.39,0,0,0,1.2,1.4,16.72,16.72,0,0,0,5.22,2.55,21.07,21.07,0,0,0,6.2.92,16.56,16.56,0,0,0,7.29-1.53,11.49,11.49,0,0,0,4.9-4.33,13.14,13.14,0,0,0,.28-12.52,10.27,10.27,0,0,0-4-4.08A11.77,11.77,0,0,0,25.93,46.33ZM45.31,59.69H54.9a4.61,4.61,0,0,0,3.18-.94,3.35,3.35,0,0,0,1.05-2.63,3.28,3.28,0,0,0-1.05-2.6,4.72,4.72,0,0,0-3.18-.91H45.31q-4.23,0-4.23,3.51T45.31,59.69Zm42.43-3.06H86.62V38.22a4.31,4.31,0,0,0-1.38-3.41,4.8,4.8,0,0,0-3.31-1.23,5.05,5.05,0,0,0-2.27.54,4.67,4.67,0,0,0-1.81,1.55L63.26,56.48a5.72,5.72,0,0,0-1.12,3.37,3.9,3.9,0,0,0,1.07,2.8,3.81,3.81,0,0,0,2.91,1.12H77.49v1.74A4.55,4.55,0,0,0,78.74,69,4.61,4.61,0,0,0,82,70.15,4.7,4.7,0,0,0,85.34,69a4.48,4.48,0,0,0,1.28-3.47V63.77h1.12c3,0,4.44-1.2,4.44-3.62S90.7,56.63,87.74,56.63Zm-16.37,0,6.12-8.82v8.82Z"/></svg>