<svg id="Layer_1" data-name="Layer 1" xmlns="http://www.w3.org/2000/svg" viewBox="0 0 100 100"><title>l20_3_1</title><path d="M85.64,100H15.5A14.92,14.92,0,0,1,.57,85.07V14.93A14.92,14.92,0,0,1,15.5,0H85.64a14.92,14.92,0,0,1,14.93,14.93V85.07A14.92,14.92,0,0,1,85.64,100ZM31,56.63H29.87V38.22a4.31,4.31,0,0,0-1.38-3.41,4.8,4.8,0,0,0-3.31-1.23,5.05,5.05,0,0,0-2.27.54,4.67,4.67,0,0,0-1.81,1.55L6.51,56.48a5.72,5.72,0,0,0-1.12,3.37,3.91,3.91,0,0,0,1.07,2.8,3.81,3.81,0,0,0,2.91,1.12H20.74v1.74A4.56,4.56,0,0,0,22,69a4.61,4.61,0,0,0,3.29,1.17A4.7,4.7,0,0,0,28.59,69a4.5,4.5,0,0,0,1.28-3.47V63.77H31c3,0,4.44-1.2,4.44-3.62S34,56.63,31,56.63Zm-16.37,0,6.12-8.82v8.82ZM41.5,58.22H60.37a2.85,2.85,0,0,0,2.14-.9,3,3,0,0,0,.87-2.17,3,3,0,0,0-3-3H41.5a2.87,2.87,0,0,0-2.15.89,3,3,0,0,0-.86,2.17,3,3,0,0,0,3,3Zm9.18-9.59a3.15,3.15,0,0,0,2.32-1,3.24,3.24,0,0,0,.94-2.35A3.16,3.16,0,0,0,53,43a3.11,3.11,0,0,0-2.32-1,3.07,3.07,0,0,0-2.3.94,3.21,3.21,0,0,0-.92,2.32,3.31,3.31,0,0,0,.92,2.35A3.06,3.06,0,0,0,50.68,48.63Zm0,19.68a3.11,3.11,0,0,0,2.32-1,3.16,3.16,0,0,0,.94-2.29A3.24,3.24,0,0,0,53,62.7a3.15,3.15,0,0,0-2.32-1,3.06,3.06,0,0,0-2.3,1,3.31,3.31,0,0,0-.92,2.35,3.21,3.21,0,0,0,.92,2.32A3.07,3.07,0,0,0,50.68,68.31Zm37-17a8.24,8.24,0,0,0,4.06-3.09,8.46,8.46,0,0,0,1.45-4.92,8.89,8.89,0,0,0-1.56-5.2,10,10,0,0,0-4.43-3.47,17,17,0,0,0-6.66-1.22,20.17,20.17,0,0,0-6,.92,16.82,16.82,0,0,0-5.18,2.55,4.12,4.12,0,0,0-1.22,1.37,4,4,0,0,0-.36,1.79,4.19,4.19,0,0,0,.87,2.68,2.63,2.63,0,0,0,2.14,1.09,3.25,3.25,0,0,0,1.28-.23c.37-.15.88-.4,1.53-.74l1.07-.51a27.65,27.65,0,0,1,2.78-1.22,7.57,7.57,0,0,1,2.67-.46,4.35,4.35,0,0,1,3.11,1,3.79,3.79,0,0,1,1.13,2.93,2.86,2.86,0,0,1-1.28,2.6,7.84,7.84,0,0,1-4.08.82H76.74a2.91,2.91,0,0,0-2.4,1.07,4.17,4.17,0,0,0,0,5.1,2.93,2.93,0,0,0,2.4,1.07H79.9a7.63,7.63,0,0,1,4.18.87A3.19,3.19,0,0,1,85.36,59a3.55,3.55,0,0,1-1.25,3.06A7.13,7.13,0,0,1,80,63a9.5,9.5,0,0,1-2.93-.43,22.85,22.85,0,0,1-2.93-1.25l-.64-.28L73,60.82a16.33,16.33,0,0,0-1.53-.74,3.2,3.2,0,0,0-1.27-.23,2.62,2.62,0,0,0-2.14,1.09,4.21,4.21,0,0,0-.87,2.68,4,4,0,0,0,.36,1.76,3.91,3.91,0,0,0,1.22,1.4,16.62,16.62,0,0,0,5.31,2.58,22.8,22.8,0,0,0,6.37.89A19.05,19.05,0,0,0,87.68,69a10.7,10.7,0,0,0,4.76-3.54,8.85,8.85,0,0,0,1.69-5.41,9.06,9.06,0,0,0-1.71-5.56A8.68,8.68,0,0,0,87.7,51.33Z"/></svg>