<svg id="Layer_1" data-name="Layer 1" xmlns="http://www.w3.org/2000/svg" viewBox="0 0 100 100"><title>l20_3_1</title><path d="M85.27,100H15.13A14.92,14.92,0,0,1,.2,85.07V14.93A14.92,14.92,0,0,1,15.13,0H85.27A14.93,14.93,0,0,1,100.2,14.93V85.07A14.93,14.93,0,0,1,85.27,100ZM22.15,45.33a12.74,12.74,0,0,0-5,.92V40h11q4.44,0,4.44-3.57t-4.44-3.52H12.31A4.34,4.34,0,0,0,9.1,34,4.42,4.42,0,0,0,8,37.27V51.1a2.8,2.8,0,0,0,1,2.21,3.51,3.51,0,0,0,2.4.85,4.84,4.84,0,0,0,2.3-.57,18.15,18.15,0,0,1,2.93-.91,13.91,13.91,0,0,1,2.78-.26,5.79,5.79,0,0,1,4,1.28,4.55,4.55,0,0,1,1.43,3.57,4.4,4.4,0,0,1-1.38,3.59A6.49,6.49,0,0,1,19.15,62a8.28,8.28,0,0,1-2.83-.46,27.35,27.35,0,0,1-2.89-1.22l-1-.51a15.39,15.39,0,0,0-1.53-.77,3.56,3.56,0,0,0-1.27-.2,2.62,2.62,0,0,0-2.14,1.09,4.21,4.21,0,0,0-.87,2.68A3.84,3.84,0,0,0,7,64.38a4.54,4.54,0,0,0,1.2,1.4,16.67,16.67,0,0,0,5.23,2.55,21,21,0,0,0,6.19.92,16.57,16.57,0,0,0,7.3-1.53,11.47,11.47,0,0,0,4.89-4.33,12,12,0,0,0,1.74-6.48,12.24,12.24,0,0,0-1.46-6,10.34,10.34,0,0,0-4-4.08A11.75,11.75,0,0,0,22.15,45.33Zm37.54,5.82H53.26V44.72a3,3,0,0,0-3-3,3,3,0,0,0-3,3v6.43H40.82a3,3,0,0,0-3,3,3,3,0,0,0,.87,2.16,2.85,2.85,0,0,0,2.14.9h6.43v6.37a3,3,0,0,0,5.17,2.14,2.94,2.94,0,0,0,.84-2.14V57.22h6.43a2.85,2.85,0,0,0,2.14-.9,3,3,0,0,0,.87-2.16,3,3,0,0,0-3-3Zm24.22-6a9.75,9.75,0,0,0-4.3.94,8.08,8.08,0,0,0-3.14,2.58A13.53,13.53,0,0,1,78.38,42a4.88,4.88,0,0,1,4.21-2.37,6.82,6.82,0,0,1,2.34.41c.75.27,1.69.68,2.81,1.22l1.12.57c.65.34,1.16.58,1.53.73a3.25,3.25,0,0,0,1.28.23,2.68,2.68,0,0,0,2.16-1.09,4.09,4.09,0,0,0,.9-2.68,3.73,3.73,0,0,0-.39-1.79,4.36,4.36,0,0,0-1.25-1.37A16.05,16.05,0,0,0,88,33.35a19.89,19.89,0,0,0-5.84-.92,13.79,13.79,0,0,0-7.93,2.29A14.91,14.91,0,0,0,69,41.28a24.57,24.57,0,0,0-1.87,10q0,8.67,3.93,13.36T82.13,69.3a13.12,13.12,0,0,0,6.48-1.58,11.33,11.33,0,0,0,4.46-4.41,13.58,13.58,0,0,0,.2-12.44,10.54,10.54,0,0,0-3.85-4.19A10.33,10.33,0,0,0,83.91,45.18ZM81.57,62.11a4.06,4.06,0,0,1-3.16-1.35,5,5,0,0,1-1.23-3.49,5,5,0,0,1,1.2-3.52,4.53,4.53,0,0,1,6.38,0,5.2,5.2,0,0,1,1.14,3.55,5.14,5.14,0,0,1-1.17,3.52A4,4,0,0,1,81.57,62.11Z"/></svg>