<svg id="Layer_1" data-name="Layer 1" xmlns="http://www.w3.org/2000/svg" viewBox="0 0 100 100"><title>l20_1_1</title><path d="M85.07,100H14.93A14.92,14.92,0,0,1,0,85.07V14.93A14.92,14.92,0,0,1,14.93,0H85.07A14.92,14.92,0,0,1,100,14.93V85.07A14.92,14.92,0,0,1,85.07,100ZM48.89,62q0-5.33-2.58-8.48A15.24,15.24,0,0,0,40.16,49,63.56,63.56,0,0,0,31,46.27a36.67,36.67,0,0,1-7.57-2.4,3.84,3.84,0,0,1-2.4-3.6,4.58,4.58,0,0,1,2.1-3.94,9.41,9.41,0,0,1,5.47-1.46,16.81,16.81,0,0,1,4.39.56,19.84,19.84,0,0,1,3.86,1.5c1.2.63,2,1,2.33,1.24a21.5,21.5,0,0,0,2.4,1.12,5,5,0,0,0,1.72.3,4,4,0,0,0,3.15-1.65A6,6,0,0,0,47.84,34a5.69,5.69,0,0,0-.56-2.66,5.51,5.51,0,0,0-1.91-2,31.83,31.83,0,0,0-12.15-4.72V21.14a5,5,0,0,0-1.46-3.75A5.21,5.21,0,0,0,28,16a5.18,5.18,0,0,0-3.75,1.46,5,5,0,0,0-1.5,3.71v3.75a20.58,20.58,0,0,0-11.1,5.85,14.66,14.66,0,0,0-4.2,10.43A12.53,12.53,0,0,0,10,49.53a15.91,15.91,0,0,0,6.23,4.58A73.12,73.12,0,0,0,25.49,57q3.53.9,5.37,1.5a9.31,9.31,0,0,1,3.07,1.62,3.16,3.16,0,0,1,1.24,2.58,4.36,4.36,0,0,1-2.06,3.94,11.31,11.31,0,0,1-6,1.31A23.83,23.83,0,0,1,21,67.19a27.78,27.78,0,0,1-6.15-2.55,13.35,13.35,0,0,0-2.32-1.12,5.66,5.66,0,0,0-1.8-.3,3.87,3.87,0,0,0-3.11,1.65,6.05,6.05,0,0,0-1.32,3.9,5.79,5.79,0,0,0,.57,2.77,5.06,5.06,0,0,0,1.91,1.88A33.69,33.69,0,0,0,23,78.29v3.38a5,5,0,0,0,1.46,3.75,5.21,5.21,0,0,0,3.79,1.42,5.21,5.21,0,0,0,3.79-1.42,5,5,0,0,0,1.46-3.75V78a20.54,20.54,0,0,0,11.21-5.62A14.27,14.27,0,0,0,48.89,62Zm37.58,4.87H71.39L82,56a35.21,35.21,0,0,0,6.27-8.44,18.94,18.94,0,0,0,1.83-8.36,13.8,13.8,0,0,0-2.28-7.84,14.74,14.74,0,0,0-6.49-5.25,24.23,24.23,0,0,0-9.75-1.84A30.58,30.58,0,0,0,55,29.39a4.91,4.91,0,0,0-1.83,1.95,6.36,6.36,0,0,0-.49,2.7,6.49,6.49,0,0,0,1.27,4,3.83,3.83,0,0,0,3.15,1.68,4.51,4.51,0,0,0,1.43-.22,9.54,9.54,0,0,0,1.54-.71c.57-.33,1-.54,1.16-.64l1.5-.75A36.87,36.87,0,0,1,67,35.58a12.26,12.26,0,0,1,4-.64,5.9,5.9,0,0,1,4.16,1.35,5,5,0,0,1,1.46,3.9q0,4.35-5,9.53L55.79,66.29a8.21,8.21,0,0,0-2.55,5.85,5.61,5.61,0,0,0,1.58,4.09,5.67,5.67,0,0,0,4.27,1.61H86.47a7.51,7.51,0,0,0,4.91-1.35A5.15,5.15,0,0,0,93,72.29a4.92,4.92,0,0,0-1.61-4.08A7.64,7.64,0,0,0,86.47,66.89Z"/></svg>