<svg id="Layer_1" data-name="Layer 1" xmlns="http://www.w3.org/2000/svg" viewBox="0 0 100 100"><title>l20_1_1</title><path d="M85.07,100H14.93A14.92,14.92,0,0,1,0,85.07V14.93A14.92,14.92,0,0,1,14.93,0H85.07A14.92,14.92,0,0,1,100,14.93V85.07A14.92,14.92,0,0,1,85.07,100Zm-40-65.4A11.47,11.47,0,0,0,39.38,36a11,11,0,0,0-4,3.81Q33.2,34.6,26.78,34.6q-6.06,0-9,4.44a4,4,0,0,0-1.47-3.21,5.5,5.5,0,0,0-3.51-1.11A6,6,0,0,0,9,36,4.24,4.24,0,0,0,7.4,39.52V60.28A4.45,4.45,0,0,0,8.93,64a5.89,5.89,0,0,0,3.81,1.23A5.89,5.89,0,0,0,16.55,64a4.45,4.45,0,0,0,1.53-3.69V48.4a6.35,6.35,0,0,1,1.23-4.14,4.08,4.08,0,0,1,3.33-1.5,3.09,3.09,0,0,1,2.46,1,5.15,5.15,0,0,1,.84,3.36v13.2A4.45,4.45,0,0,0,27.47,64a5.89,5.89,0,0,0,3.81,1.23A5.86,5.86,0,0,0,35.12,64a4.49,4.49,0,0,0,1.5-3.69V48.4a6.24,6.24,0,0,1,1.26-4.14,4.17,4.17,0,0,1,3.36-1.5,3.09,3.09,0,0,1,2.46,1,5.15,5.15,0,0,1,.84,3.36v13.2A4.45,4.45,0,0,0,46.07,64a6.52,6.52,0,0,0,7.62,0,4.45,4.45,0,0,0,1.53-3.69v-13q0-6.9-2.64-9.81T45.08,34.6Zm42.36.12a5.59,5.59,0,0,0-3.69,1.17,4.3,4.3,0,0,0-1.53,3.21,9,9,0,0,0-3.78-3.3A12.15,12.15,0,0,0,73,34.6a12.87,12.87,0,0,0-6.84,1.83,12.43,12.43,0,0,0-4.68,5.19,17.09,17.09,0,0,0-1.68,7.74,16.9,16.9,0,0,0,1.68,7.71A12.26,12.26,0,0,0,66.2,62.2,13,13,0,0,0,73,64a12.27,12.27,0,0,0,5.34-1.17,9.11,9.11,0,0,0,3.78-3.15V62q0,3.3-1.71,4.83t-5.37,1.53A13.12,13.12,0,0,1,72.14,68q-1.44-.33-3.3-.93a15.63,15.63,0,0,0-3.9-.9,2.76,2.76,0,0,0-2.25,1.08,4.36,4.36,0,0,0-.87,2.82,3.85,3.85,0,0,0,.63,2.16,4.78,4.78,0,0,0,1.71,1.56,17.28,17.28,0,0,0,5,1.74,31.17,31.17,0,0,0,6.24.6q8.52,0,12.93-3.78t4.41-11.1V39.64a4.66,4.66,0,0,0-1.44-3.57A5.39,5.39,0,0,0,87.44,34.72ZM76.28,56A5.48,5.48,0,0,1,72,54.25a7.05,7.05,0,0,1-1.59-4.89,7.33,7.33,0,0,1,1.56-5,6.19,6.19,0,0,1,8.7,0,7.36,7.36,0,0,1,1.56,5,7.12,7.12,0,0,1-1.56,4.92A5.58,5.58,0,0,1,76.28,56Z"/></svg>