<svg id="Layer_1" data-name="Layer 1" xmlns="http://www.w3.org/2000/svg" viewBox="0 0 100 100"><title>l20_1_1</title><path d="M85.64,100H15.5A14.92,14.92,0,0,1,.57,85.07V14.93A14.92,14.92,0,0,1,15.5,0H85.64a14.92,14.92,0,0,1,14.93,14.93V85.07A14.92,14.92,0,0,1,85.64,100ZM40.17,29l2.27-.18a6.75,6.75,0,0,0,4.28-1.61,5.24,5.24,0,0,0,1.57-4.07,4.94,4.94,0,0,0-1.66-4c-1.11-.94-2.91-1.4-5.42-1.4a15,15,0,0,0-1.83.09L37.11,18Q28.8,18.56,24,23.32t-5,13.15H16.41c-4.67,0-7,1.89-7,5.68s2.32,5.76,7,5.76h2.53V72.64a6.58,6.58,0,0,0,2.23,5.41,8.38,8.38,0,0,0,5.54,1.84,8.39,8.39,0,0,0,5.55-1.84,6.58,6.58,0,0,0,2.23-5.41V47.91h4.8q7,0,7-5.76t-7-5.68h-4.8v-1a7.41,7.41,0,0,1,1.26-4.5C36.6,29.79,38.07,29.13,40.17,29ZM81,68.88l-2.53-.18a3.53,3.53,0,0,1-2.58-1.22,4,4,0,0,1-1-2.79V47.91h4.8q7,0,7-5.76t-7-5.68h-4.8V30.79a6.88,6.88,0,0,0-2.1-5.28,8,8,0,0,0-5.68-2,8,8,0,0,0-5.68,2,6.91,6.91,0,0,0-2.09,5.28v5.68H56.76q-7,0-7,5.68t7,5.76H59.3V63.38q0,7.42,4.06,11.57t11.92,4.76l2.45.18q4.36.26,6.73-1.23a5,5,0,0,0,2.36-4.54C86.82,70.86,84.86,69.11,81,68.88Z"/></svg>