<svg id="Layer_1" data-name="Layer 1" xmlns="http://www.w3.org/2000/svg" viewBox="0 0 100 100"><title>l20_3_1</title><path d="M85.12,100H15A14.92,14.92,0,0,1,.05,85.07V14.93A14.92,14.92,0,0,1,15,0H85.12a14.93,14.93,0,0,1,14.93,14.93V85.07A14.93,14.93,0,0,1,85.12,100ZM29.88,52.33a8.22,8.22,0,0,0,4.06-3.08,8.52,8.52,0,0,0,1.45-4.93,8.89,8.89,0,0,0-1.56-5.2,10,10,0,0,0-4.43-3.47,17,17,0,0,0-6.66-1.22,20.49,20.49,0,0,0-6,.92,16.82,16.82,0,0,0-5.18,2.55,4.12,4.12,0,0,0-1.22,1.37,4,4,0,0,0-.36,1.79,4.19,4.19,0,0,0,.87,2.68A2.62,2.62,0,0,0,13,44.83a3.2,3.2,0,0,0,1.27-.23,16.93,16.93,0,0,0,1.54-.73l1.07-.52a27.65,27.65,0,0,1,2.78-1.22,7.8,7.8,0,0,1,2.67-.46,4.35,4.35,0,0,1,3.11,1,3.79,3.79,0,0,1,1.13,2.93,2.86,2.86,0,0,1-1.28,2.6,7.84,7.84,0,0,1-4.08.82H18.92a2.91,2.91,0,0,0-2.4,1.07,4.17,4.17,0,0,0,0,5.1,2.93,2.93,0,0,0,2.4,1.07h3.16a7.63,7.63,0,0,1,4.18.87A3.19,3.19,0,0,1,27.54,60a3.55,3.55,0,0,1-1.25,3.06,7.13,7.13,0,0,1-4.11.92,9.21,9.21,0,0,1-2.93-.43,22.85,22.85,0,0,1-2.93-1.25l-.64-.28-.49-.23a16.33,16.33,0,0,0-1.53-.74,3.2,3.2,0,0,0-1.27-.23,2.62,2.62,0,0,0-2.14,1.09,4.21,4.21,0,0,0-.87,2.68,4,4,0,0,0,.36,1.76A3.91,3.91,0,0,0,11,67.78a16.36,16.36,0,0,0,5.3,2.58,22.87,22.87,0,0,0,6.38.89A19.05,19.05,0,0,0,29.86,70a10.7,10.7,0,0,0,4.76-3.54,8.85,8.85,0,0,0,1.69-5.41,9.06,9.06,0,0,0-1.71-5.56A8.68,8.68,0,0,0,29.88,52.33Zm15.4,8.36h9.59a4.64,4.64,0,0,0,3.19-.94,3.34,3.34,0,0,0,1-2.63,3.28,3.28,0,0,0-1-2.6,4.75,4.75,0,0,0-3.19-.91H45.28q-4.23,0-4.23,3.51T45.28,60.69Zm41,2.71H76L83.23,56a24.4,24.4,0,0,0,4.26-5.73,12.93,12.93,0,0,0,1.25-5.69,9.33,9.33,0,0,0-1.56-5.33,10,10,0,0,0-4.41-3.57,16.51,16.51,0,0,0-6.63-1.25,20,20,0,0,0-5.89.92,19.63,19.63,0,0,0-5.38,2.55,3.43,3.43,0,0,0-1.25,1.32,5,5,0,0,0,.53,4.57,2.63,2.63,0,0,0,2.15,1.15,3.07,3.07,0,0,0,1-.16,5.83,5.83,0,0,0,1-.48c.39-.22.65-.37.79-.43l1-.52A24,24,0,0,1,73,42.11a8.23,8.23,0,0,1,2.73-.44,4,4,0,0,1,2.83.92,3.44,3.44,0,0,1,1,2.65c0,2-1.13,4.13-3.37,6.48L65.38,63a5.58,5.58,0,0,0-1.74,4,3.83,3.83,0,0,0,1.07,2.78,3.9,3.9,0,0,0,2.91,1.09H86.24a5.16,5.16,0,0,0,3.34-.91,3.54,3.54,0,0,0,1.09-2.86,3.38,3.38,0,0,0-1.09-2.78A5.28,5.28,0,0,0,86.24,63.4Z"/></svg>