<svg id="Layer_1" data-name="Layer 1" xmlns="http://www.w3.org/2000/svg" viewBox="0 0 100 100"><title>l20_3_1</title><path d="M85.64,100H15.5A14.92,14.92,0,0,1,.57,85.07V14.93A14.92,14.92,0,0,1,15.5,0H85.64a14.92,14.92,0,0,1,14.93,14.93V85.07A14.92,14.92,0,0,1,85.64,100ZM32.29,56.63H31.17V38.22a4.31,4.31,0,0,0-1.38-3.41,4.8,4.8,0,0,0-3.31-1.23,5.08,5.08,0,0,0-2.27.54,4.67,4.67,0,0,0-1.81,1.55L7.81,56.48a5.72,5.72,0,0,0-1.12,3.37,3.9,3.9,0,0,0,1.07,2.8,3.81,3.81,0,0,0,2.91,1.12H22v1.74A4.55,4.55,0,0,0,23.29,69a4.61,4.61,0,0,0,3.29,1.17A4.7,4.7,0,0,0,29.89,69a4.48,4.48,0,0,0,1.28-3.47V63.77h1.12c3,0,4.44-1.2,4.44-3.62S35.25,56.63,32.29,56.63Zm-16.37,0L22,47.81v8.82Zm46.46,6.63-6.32-6.32,5.81-5.71a4.19,4.19,0,0,0,1.28-3A3.82,3.82,0,0,0,62,45.49a3.87,3.87,0,0,0-2.83-1.2,4.07,4.07,0,0,0-3,1.38L50.6,51.23l-5.46-5.56a3.92,3.92,0,0,0-3-1.43,3.84,3.84,0,0,0-2.83,1.23,3.93,3.93,0,0,0-1.2,2.85,4,4,0,0,0,1.28,2.91l5.81,5.71-6.32,6.32a4,4,0,0,0-1.28,2.91A3.86,3.86,0,0,0,38.82,69a3.92,3.92,0,0,0,2.85,1.22,4.06,4.06,0,0,0,3-1.38L50.6,62.6l6,6.22a4.06,4.06,0,0,0,3,1.38A3.92,3.92,0,0,0,62.43,69a3.86,3.86,0,0,0,1.23-2.81A4,4,0,0,0,62.38,63.26Zm24-11.93a8.23,8.23,0,0,0,4.06-3.09,8.54,8.54,0,0,0,1.45-4.92,8.89,8.89,0,0,0-1.56-5.2,10,10,0,0,0-4.43-3.47,17,17,0,0,0-6.66-1.22,20.49,20.49,0,0,0-6,.92A16.82,16.82,0,0,0,68,36.9a3.5,3.5,0,0,0-1.58,3.16,4.19,4.19,0,0,0,.87,2.68,2.62,2.62,0,0,0,2.14,1.09,3.2,3.2,0,0,0,1.27-.23c.38-.15.89-.4,1.53-.73l1.07-.52a28.76,28.76,0,0,1,2.79-1.22,7.57,7.57,0,0,1,2.67-.46,4.35,4.35,0,0,1,3.11,1A3.79,3.79,0,0,1,83,44.65a2.86,2.86,0,0,1-1.28,2.6,7.84,7.84,0,0,1-4.08.82H75.44A2.91,2.91,0,0,0,73,49.14a4.17,4.17,0,0,0,0,5.1,2.93,2.93,0,0,0,2.4,1.07H78.6a7.63,7.63,0,0,1,4.18.87A3.19,3.19,0,0,1,84.05,59a3.54,3.54,0,0,1-1.24,3.06A7.13,7.13,0,0,1,78.7,63a9.17,9.17,0,0,1-2.93-.43,22.85,22.85,0,0,1-2.93-1.25l-.64-.28-.49-.23a16.33,16.33,0,0,0-1.53-.74,3.2,3.2,0,0,0-1.27-.23,2.62,2.62,0,0,0-2.14,1.09,4.21,4.21,0,0,0-.87,2.68,4,4,0,0,0,.36,1.76,3.91,3.91,0,0,0,1.22,1.4,16.36,16.36,0,0,0,5.3,2.58,22.87,22.87,0,0,0,6.38.89A19.05,19.05,0,0,0,86.38,69a10.7,10.7,0,0,0,4.76-3.54,8.85,8.85,0,0,0,1.69-5.41,9.06,9.06,0,0,0-1.71-5.56A8.68,8.68,0,0,0,86.4,51.33Z"/></svg>