<svg id="Layer_1" data-name="Layer 1" xmlns="http://www.w3.org/2000/svg" viewBox="0 0 100 100"><title>l20_1_1</title><path d="M85.07,100H14.93A14.92,14.92,0,0,1,0,85.07V14.93A14.92,14.92,0,0,1,14.93,0H85.07A14.92,14.92,0,0,1,100,14.93V85.07A14.92,14.92,0,0,1,85.07,100ZM66.58,46H53.38a5.82,5.82,0,0,0-4.08,1.32A4.79,4.79,0,0,0,47.86,51a4.79,4.79,0,0,0,1.44,3.72,5.82,5.82,0,0,0,4.08,1.32h5.76V66.56a36,36,0,0,1-7.6.8q-8,0-11.88-4.36T35.78,49.6q0-8.79,3.72-13t11.32-4.24a21.14,21.14,0,0,1,5.64.72A27.55,27.55,0,0,1,62,35.36a15.38,15.38,0,0,0,2.36,1.24,6,6,0,0,0,2.2.36,4.06,4.06,0,0,0,3.28-1.72A6.57,6.57,0,0,0,71.22,31a6.09,6.09,0,0,0-.6-2.88,6.35,6.35,0,0,0-2-2.08,28.17,28.17,0,0,0-8.28-4,35.24,35.24,0,0,0-10-1.32,32.73,32.73,0,0,0-15.52,3.52,24.65,24.65,0,0,0-10.24,10A31.23,31.23,0,0,0,21,49.6a31.51,31.51,0,0,0,3.6,15.48,24.17,24.17,0,0,0,10.36,10,34.4,34.4,0,0,0,16,3.48A60.49,60.49,0,0,0,58,78.12a50.59,50.59,0,0,0,6.92-1.24,13.92,13.92,0,0,0,4.68-2.08,6.14,6.14,0,0,0,2.16-3.32,23.76,23.76,0,0,0,.6-6.12V51.44a5.21,5.21,0,0,0-1.56-4A5.88,5.88,0,0,0,66.58,46Z"/></svg>