<svg id="Layer_1" data-name="Layer 1" xmlns="http://www.w3.org/2000/svg" viewBox="0 0 100 100"><title>l20_3_1</title><path d="M85.12,100H15A14.92,14.92,0,0,1,.05,85.07V14.93A14.92,14.92,0,0,1,15,0H85.12a14.93,14.93,0,0,1,14.93,14.93V85.07A14.93,14.93,0,0,1,85.12,100ZM22,46.33a12.79,12.79,0,0,0-5.05.92V41H28q4.44,0,4.44-3.57T28,33.89H12.16A4.31,4.31,0,0,0,9,35a4.42,4.42,0,0,0-1.13,3.26V52.1a2.81,2.81,0,0,0,1,2.21,3.55,3.55,0,0,0,2.4.84,4.76,4.76,0,0,0,2.29-.56,18.23,18.23,0,0,1,2.94-.91,13.91,13.91,0,0,1,2.78-.26,5.74,5.74,0,0,1,4,1.28,4.51,4.51,0,0,1,1.43,3.57,4.42,4.42,0,0,1-1.37,3.59A6.51,6.51,0,0,1,19,63a8.36,8.36,0,0,1-2.83-.46,29.54,29.54,0,0,1-2.88-1.22l-1-.51a15.39,15.39,0,0,0-1.53-.77,3.56,3.56,0,0,0-1.27-.2,2.65,2.65,0,0,0-2.15,1.09,4.2,4.2,0,0,0-.86,2.68,3.72,3.72,0,0,0,.38,1.76A4.39,4.39,0,0,0,8,66.78a16.67,16.67,0,0,0,5.23,2.55,21.29,21.29,0,0,0,6.19.92,16.49,16.49,0,0,0,7.29-1.53,11.49,11.49,0,0,0,4.9-4.33,12,12,0,0,0,1.73-6.48,12.24,12.24,0,0,0-1.45-6,10.21,10.21,0,0,0-4-4.08A11.75,11.75,0,0,0,22,46.33ZM41,58.22H59.84a2.84,2.84,0,0,0,2.14-.9,3,3,0,0,0,.87-2.17A2.92,2.92,0,0,0,62,53a2.88,2.88,0,0,0-2.14-.86H41a2.85,2.85,0,0,0-2.14.89A3,3,0,0,0,38,55.21a3,3,0,0,0,3,3Zm9.18-9.59a3.13,3.13,0,0,0,2.32-1,3.25,3.25,0,0,0,1-2.35,3.17,3.17,0,0,0-1-2.29,3.1,3.1,0,0,0-2.32-1,3,3,0,0,0-2.29.94,3.21,3.21,0,0,0-.92,2.32,3.31,3.31,0,0,0,.92,2.35A3,3,0,0,0,50.15,48.63Zm0,19.68a3.1,3.1,0,0,0,2.32-1,3.17,3.17,0,0,0,1-2.29,3.25,3.25,0,0,0-1-2.35,3.13,3.13,0,0,0-2.32-1,3,3,0,0,0-2.29,1,3.31,3.31,0,0,0-.92,2.35,3.21,3.21,0,0,0,.92,2.32A3,3,0,0,0,50.15,68.31ZM91.67,56.63H90.54V38.22a4.3,4.3,0,0,0-1.37-3.41,4.81,4.81,0,0,0-3.32-1.23,5.08,5.08,0,0,0-2.27.54,4.74,4.74,0,0,0-1.81,1.55L67.19,56.48a5.72,5.72,0,0,0-1.12,3.37,3.87,3.87,0,0,0,1.07,2.8A3.8,3.8,0,0,0,70,63.77H81.42v1.74A4.52,4.52,0,0,0,82.67,69,4.59,4.59,0,0,0,86,70.15,4.72,4.72,0,0,0,89.27,69a4.5,4.5,0,0,0,1.27-3.47V63.77h1.13c3,0,4.43-1.2,4.43-3.62S94.62,56.63,91.67,56.63Zm-16.37,0,6.12-8.82v8.82Z"/></svg>