<svg id="Layer_1" data-name="Layer 1" xmlns="http://www.w3.org/2000/svg" viewBox="0 0 100 100"><title>l20_3_1</title><path d="M85.12,100H15A14.92,14.92,0,0,1,.05,85.07V14.93A14.92,14.92,0,0,1,15,0H85.12a14.93,14.93,0,0,1,14.93,14.93V85.07A14.93,14.93,0,0,1,85.12,100ZM23.3,46.33a12.79,12.79,0,0,0-5.05.92V41h11q4.44,0,4.44-3.57t-4.44-3.52H13.46A4.31,4.31,0,0,0,10.25,35a4.42,4.42,0,0,0-1.13,3.26V52.1a2.81,2.81,0,0,0,1,2.21,3.56,3.56,0,0,0,2.4.85,4.84,4.84,0,0,0,2.3-.57,17.85,17.85,0,0,1,2.93-.91,13.91,13.91,0,0,1,2.78-.26,5.79,5.79,0,0,1,4,1.28,4.54,4.54,0,0,1,1.42,3.57,4.42,4.42,0,0,1-1.37,3.59A6.51,6.51,0,0,1,20.29,63a8.36,8.36,0,0,1-2.83-.46,30.62,30.62,0,0,1-2.88-1.22l-1-.51A15.39,15.39,0,0,0,12,60.05a3.56,3.56,0,0,0-1.27-.2,2.65,2.65,0,0,0-2.15,1.09,4.26,4.26,0,0,0-.86,2.68,3.72,3.72,0,0,0,.38,1.76,4.52,4.52,0,0,0,1.2,1.4,16.67,16.67,0,0,0,5.23,2.55,21,21,0,0,0,6.19.92,16.57,16.57,0,0,0,7.3-1.53,11.52,11.52,0,0,0,4.89-4.33,12,12,0,0,0,1.74-6.48,12.24,12.24,0,0,0-1.46-6,10.27,10.27,0,0,0-4-4.08A11.75,11.75,0,0,0,23.3,46.33ZM61.86,63.26l-6.33-6.32,5.82-5.71a4.18,4.18,0,0,0,1.27-3,4.1,4.1,0,0,0-4-4,4.05,4.05,0,0,0-3,1.38l-5.51,5.56-5.46-5.56a3.92,3.92,0,0,0-3-1.43,3.82,3.82,0,0,0-2.83,1.23,3.93,3.93,0,0,0-1.2,2.85,4,4,0,0,0,1.28,2.91l5.81,5.71-6.32,6.32a4,4,0,0,0-1.28,2.91A3.86,3.86,0,0,0,38.3,69a3.91,3.91,0,0,0,2.85,1.22,4.07,4.07,0,0,0,3-1.38l5.92-6.22,6,6.22a4.09,4.09,0,0,0,3,1.38A4,4,0,0,0,61.91,69a3.85,3.85,0,0,0,1.22-2.81A4,4,0,0,0,61.86,63.26Zm28.51-6.63H89.24V38.22a4.34,4.34,0,0,0-1.37-3.41,4.82,4.82,0,0,0-3.32-1.23,5.08,5.08,0,0,0-2.27.54,4.74,4.74,0,0,0-1.81,1.55L65.89,56.48a5.73,5.73,0,0,0-1.13,3.37,3.86,3.86,0,0,0,1.08,2.8,3.8,3.8,0,0,0,2.9,1.12H80.11v1.74A4.55,4.55,0,0,0,81.36,69a4.63,4.63,0,0,0,3.29,1.17A4.72,4.72,0,0,0,88,69a4.48,4.48,0,0,0,1.27-3.47V63.77h1.13c2.95,0,4.43-1.2,4.43-3.62S93.32,56.63,90.37,56.63ZM74,56.63l6.12-8.82v8.82Z"/></svg>