<svg id="Layer_1" data-name="Layer 1" xmlns="http://www.w3.org/2000/svg" viewBox="0 0 100 100"><title>l20_3_1</title><path d="M85.12,100H15A14.92,14.92,0,0,1,.05,85.07V14.93A14.92,14.92,0,0,1,15,0H85.12a14.93,14.93,0,0,1,14.93,14.93V85.07A14.93,14.93,0,0,1,85.12,100Zm-54-66.11h-20a5,5,0,0,0-3.36.94,3.57,3.57,0,0,0-1.07,2.83,3.51,3.51,0,0,0,1,2.76,5.11,5.11,0,0,0,3.39.91H23.86L10.76,63.72A4.83,4.83,0,0,0,10,66.17a3.72,3.72,0,0,0,1.38,2.93,4.67,4.67,0,0,0,3.16,1.2,4.39,4.39,0,0,0,2.17-.58,4.79,4.79,0,0,0,1.76-1.81L34,41.13a6.48,6.48,0,0,0,1-3.37,4,4,0,0,0-1-2.77A3.61,3.61,0,0,0,31.11,33.89ZM61.86,63.26l-6.33-6.32,5.82-5.71a4.18,4.18,0,0,0,1.27-3,4.08,4.08,0,0,0-4-4,4.05,4.05,0,0,0-3,1.38l-5.51,5.56-5.46-5.56a3.92,3.92,0,0,0-3-1.43,3.82,3.82,0,0,0-2.83,1.23,3.93,3.93,0,0,0-1.2,2.85,4,4,0,0,0,1.28,2.91l5.81,5.71-6.32,6.32a4,4,0,0,0-1.28,2.91A3.86,3.86,0,0,0,38.3,69a3.91,3.91,0,0,0,2.85,1.22,4.07,4.07,0,0,0,3-1.38l5.92-6.22,6,6.22a4.05,4.05,0,0,0,3,1.38A4,4,0,0,0,61.91,69a3.85,3.85,0,0,0,1.22-2.81A4,4,0,0,0,61.86,63.26Zm20.6-17.08a9.82,9.82,0,0,0-4.31.94A8.05,8.05,0,0,0,75,49.7,13.53,13.53,0,0,1,76.93,43a4.88,4.88,0,0,1,4.21-2.37,6.86,6.86,0,0,1,2.34.41c.75.27,1.69.68,2.81,1.22l1.12.57c.64.33,1.15.58,1.53.73a3.2,3.2,0,0,0,1.27.23,2.7,2.7,0,0,0,2.17-1.09,4.09,4.09,0,0,0,.89-2.68,3.73,3.73,0,0,0-.38-1.79,4.36,4.36,0,0,0-1.25-1.37,16.16,16.16,0,0,0-5.12-2.55,19.89,19.89,0,0,0-5.84-.92,13.79,13.79,0,0,0-7.93,2.29,14.81,14.81,0,0,0-5.26,6.56,24.74,24.74,0,0,0-1.86,10q0,8.67,3.93,13.36T80.68,70.3a13.06,13.06,0,0,0,6.47-1.58,11.29,11.29,0,0,0,4.47-4.41,13.66,13.66,0,0,0,.2-12.44A10.61,10.61,0,0,0,88,47.68,10.33,10.33,0,0,0,82.46,46.18ZM80.12,63.11A4.08,4.08,0,0,1,77,61.76a5.68,5.68,0,0,1,0-7,4.51,4.51,0,0,1,6.37,0,6,6,0,0,1,0,7.07A4,4,0,0,1,80.12,63.11Z"/></svg>