<svg id="Layer_1" data-name="Layer 1" xmlns="http://www.w3.org/2000/svg" viewBox="0 0 100 100"><title>l20_1_1</title><path d="M85.12,100H15A14.92,14.92,0,0,1,.05,85.07V14.93A14.92,14.92,0,0,1,15,0H85.12a14.93,14.93,0,0,1,14.93,14.93V85.07A14.93,14.93,0,0,1,85.12,100ZM25.53,65.32A19,19,0,0,0,35.61,62.8a3.34,3.34,0,0,0,1.32-1.41,4.45,4.45,0,0,0,.48-2.07,5,5,0,0,0-.87-3,2.68,2.68,0,0,0-2.25-1.17,4.84,4.84,0,0,0-1.65.27q-.75.27-1.95.81a13.16,13.16,0,0,1-2,.81,6.35,6.35,0,0,1-1.89.27,5.34,5.34,0,0,1-4.41-1.89,8.55,8.55,0,0,1-1.53-5.49q0-7.26,5.94-7.26a6.06,6.06,0,0,1,1.86.27,20.21,20.21,0,0,1,2,.81,11.68,11.68,0,0,0,1.86.81,5.65,5.65,0,0,0,1.74.27,2.68,2.68,0,0,0,2.25-1.17,5,5,0,0,0,.87-3,3.8,3.8,0,0,0-1.86-3.48,16,16,0,0,0-4.44-1.86,19.82,19.82,0,0,0-5-.66,18,18,0,0,0-8.43,1.92A13.9,13.9,0,0,0,12,42a16.07,16.07,0,0,0-2,8.16q0,7,4.2,11.1C16.93,64,20.73,65.32,25.53,65.32ZM79,34.6A11.47,11.47,0,0,0,73.29,36a11,11,0,0,0-4,3.81q-2.16-5.22-8.58-5.22-6.06,0-9,4.44a4,4,0,0,0-1.47-3.21,5.5,5.5,0,0,0-3.51-1.11A6.1,6.1,0,0,0,42.9,36a4.24,4.24,0,0,0-1.59,3.57V60.28A4.44,4.44,0,0,0,42.84,64a6.52,6.52,0,0,0,7.62,0A4.44,4.44,0,0,0,52,60.28V48.4a6.35,6.35,0,0,1,1.23-4.14,4.08,4.08,0,0,1,3.33-1.5,3.09,3.09,0,0,1,2.46,1,5.15,5.15,0,0,1,.84,3.36v13.2A4.44,4.44,0,0,0,61.38,64,6.56,6.56,0,0,0,69,64a4.48,4.48,0,0,0,1.5-3.69V48.4a6.24,6.24,0,0,1,1.26-4.14,4.17,4.17,0,0,1,3.36-1.5,3.09,3.09,0,0,1,2.46,1,5.15,5.15,0,0,1,.84,3.36v13.2A4.44,4.44,0,0,0,80,64a6.52,6.52,0,0,0,7.62,0,4.44,4.44,0,0,0,1.53-3.69v-13q0-6.9-2.64-9.81T79,34.6Z"/></svg>