<svg id="Layer_1" data-name="Layer 1" xmlns="http://www.w3.org/2000/svg" viewBox="0 0 100 100"><title>l20_3_1</title><path d="M85.12,100H15A14.92,14.92,0,0,1,.05,85.07V14.93A14.92,14.92,0,0,1,15,0H85.12a14.93,14.93,0,0,1,14.93,14.93V85.07A14.93,14.93,0,0,1,85.12,100ZM20,57h-2.7V41.38a2.86,2.86,0,0,0-.81-2.14,2.91,2.91,0,0,0-2.13-.79,5.57,5.57,0,0,0-2.74.82L6.36,42.34a2.24,2.24,0,0,0-1.15,2,2.74,2.74,0,0,0,.66,1.79A2,2,0,0,0,7.45,47a2.27,2.27,0,0,0,1.16-.33l2.64-1.55V57H8.57a3.3,3.3,0,0,0-2.18.6A2.23,2.23,0,0,0,5.7,59.4c0,1.63,1,2.44,2.87,2.44H20c1.92,0,2.87-.81,2.87-2.44a2.23,2.23,0,0,0-.69-1.78A3.28,3.28,0,0,0,20,57Zm18.91-6.63H34.77V46.23a1.91,1.91,0,0,0-1.94-1.94,1.91,1.91,0,0,0-1.95,1.94v4.16H26.72a1.91,1.91,0,0,0-1.94,2,1.9,1.9,0,0,0,.56,1.4,1.82,1.82,0,0,0,1.38.58h4.16v4.12a1.88,1.88,0,0,0,.56,1.39,1.92,1.92,0,0,0,1.39.56,1.88,1.88,0,0,0,1.4-.56,1.91,1.91,0,0,0,.54-1.39V54.32h4.16a1.86,1.86,0,0,0,1.39-.58,1.94,1.94,0,0,0,.56-1.4,1.91,1.91,0,0,0-2-2ZM58.77,57H52.13l4.69-4.78a15.05,15.05,0,0,0,2.75-3.71,8.31,8.31,0,0,0,.81-3.68,6,6,0,0,0-1-3.45,6.48,6.48,0,0,0-2.86-2.31,10.59,10.59,0,0,0-4.29-.81,12.82,12.82,0,0,0-3.81.6,12.68,12.68,0,0,0-3.48,1.64,2.24,2.24,0,0,0-.81.86,2.92,2.92,0,0,0-.21,1.19,2.83,2.83,0,0,0,.56,1.77,1.68,1.68,0,0,0,1.38.74,1.89,1.89,0,0,0,.63-.1,3.87,3.87,0,0,0,.68-.31,5.45,5.45,0,0,1,.51-.28l.66-.33a13.49,13.49,0,0,1,1.86-.81A5.3,5.3,0,0,1,52,43a2.63,2.63,0,0,1,1.83.59,2.23,2.23,0,0,1,.64,1.72c0,1.27-.72,2.67-2.18,4.19l-7,7.29a3.61,3.61,0,0,0-1.12,2.58,2.4,2.4,0,0,0,2.57,2.5H58.77a3.31,3.31,0,0,0,2.16-.59,2.29,2.29,0,0,0,.71-1.85,2.21,2.21,0,0,0-.71-1.8A3.44,3.44,0,0,0,58.77,57Zm8-1.74H73a3,3,0,0,0,2.06-.61,2.16,2.16,0,0,0,.68-1.7,2.11,2.11,0,0,0-.68-1.69A3.07,3.07,0,0,0,73,50.69h-6.2c-1.83,0-2.74.76-2.74,2.28S65,55.28,66.82,55.28Zm24.55-5.42a5.28,5.28,0,0,0,2.62-2,5.48,5.48,0,0,0,.94-3.19,5.76,5.76,0,0,0-1-3.36,6.47,6.47,0,0,0-2.87-2.25,11.12,11.12,0,0,0-4.31-.79,13.12,13.12,0,0,0-3.91.6,10.79,10.79,0,0,0-3.35,1.64,2.69,2.69,0,0,0-.79.9,2.46,2.46,0,0,0-.23,1.15A2.66,2.66,0,0,0,79,44.3a1.67,1.67,0,0,0,1.38.71,2.16,2.16,0,0,0,.83-.15,9.73,9.73,0,0,0,1-.47l.69-.33a16.06,16.06,0,0,1,1.8-.79,5,5,0,0,1,1.73-.3,2.82,2.82,0,0,1,2,.67,2.47,2.47,0,0,1,.73,1.9,1.84,1.84,0,0,1-.82,1.68,5,5,0,0,1-2.64.53H84.27a1.9,1.9,0,0,0-1.55.69,2.73,2.73,0,0,0,0,3.31,1.9,1.9,0,0,0,1.55.69h2A5,5,0,0,1,89,53a2.07,2.07,0,0,1,.82,1.85,2.3,2.3,0,0,1-.81,2,4.61,4.61,0,0,1-2.65.59,5.89,5.89,0,0,1-1.9-.28,15.35,15.35,0,0,1-1.9-.81l-.41-.18a2.26,2.26,0,0,1-.31-.15q-.63-.33-1-.48a2.41,2.41,0,0,0-.83-.14,1.7,1.7,0,0,0-1.39.71,2.72,2.72,0,0,0-.56,1.73,2.27,2.27,0,0,0,1,2,10.35,10.35,0,0,0,3.43,1.67,14.44,14.44,0,0,0,4.12.58,12.37,12.37,0,0,0,4.67-.81A7,7,0,0,0,94.44,59a6.28,6.28,0,0,0,0-7.1A5.65,5.65,0,0,0,91.37,49.86Z"/></svg>