<svg id="Layer_1" data-name="Layer 1" xmlns="http://www.w3.org/2000/svg" viewBox="0 0 100 100"><title>l20_3_1</title><path d="M85.64,100H15.5A14.92,14.92,0,0,1,.57,85.07V14.93A14.92,14.92,0,0,1,15.5,0H85.64a14.92,14.92,0,0,1,14.93,14.93V85.07A14.92,14.92,0,0,1,85.64,100ZM34.92,56.63H33.79V38.22a4.3,4.3,0,0,0-1.37-3.41,4.81,4.81,0,0,0-3.32-1.23,5.08,5.08,0,0,0-2.27.54A4.74,4.74,0,0,0,25,35.67L10.44,56.48a5.72,5.72,0,0,0-1.12,3.37,3.86,3.86,0,0,0,1.07,2.8,3.8,3.8,0,0,0,2.9,1.12H24.67v1.74A4.51,4.51,0,0,0,25.92,69a4.6,4.6,0,0,0,3.29,1.17A4.71,4.71,0,0,0,32.52,69a4.48,4.48,0,0,0,1.27-3.47V63.77h1.13c2.95,0,4.43-1.2,4.43-3.62S37.87,56.63,34.92,56.63Zm-16.37,0,6.12-8.82v8.82Zm27.28,3.06h9.59a4.64,4.64,0,0,0,3.19-.94,3.38,3.38,0,0,0,1-2.63,3.31,3.31,0,0,0-1-2.6,4.75,4.75,0,0,0-3.19-.91H45.83q-4.23,0-4.23,3.51T45.83,59.69Zm38-8.36a8.24,8.24,0,0,0,4-3.08,8.52,8.52,0,0,0,1.45-4.93,9,9,0,0,0-1.55-5.2,10.08,10.08,0,0,0-4.44-3.47,17,17,0,0,0-6.66-1.22,20.49,20.49,0,0,0-6,.92,16.93,16.93,0,0,0-5.18,2.55,4.23,4.23,0,0,0-1.22,1.37,4,4,0,0,0-.36,1.79,4.19,4.19,0,0,0,.87,2.68,2.63,2.63,0,0,0,2.14,1.09,3.25,3.25,0,0,0,1.28-.23c.37-.15.88-.39,1.53-.73l1.07-.52a27.65,27.65,0,0,1,2.78-1.22,7.81,7.81,0,0,1,2.68-.46,4.39,4.39,0,0,1,3.11,1,3.82,3.82,0,0,1,1.12,2.93,2.86,2.86,0,0,1-1.28,2.6,7.84,7.84,0,0,1-4.08.82H72.81a2.91,2.91,0,0,0-2.4,1.07,4.21,4.21,0,0,0,0,5.1,2.93,2.93,0,0,0,2.4,1.07H76a7.63,7.63,0,0,1,4.18.87A3.19,3.19,0,0,1,81.43,59a3.55,3.55,0,0,1-1.25,3.06,7.09,7.09,0,0,1-4.11.92,9.25,9.25,0,0,1-2.93-.43,23.46,23.46,0,0,1-2.93-1.25l-.64-.28-.48-.23c-.65-.34-1.16-.59-1.53-.74a3.25,3.25,0,0,0-1.28-.23,2.63,2.63,0,0,0-2.14,1.09,4.21,4.21,0,0,0-.87,2.68,4,4,0,0,0,.36,1.76,4.11,4.11,0,0,0,1.22,1.4,16.42,16.42,0,0,0,5.31,2.58,22.8,22.8,0,0,0,6.37.89A19,19,0,0,0,83.75,69a10.67,10.67,0,0,0,4.77-3.54,8.9,8.9,0,0,0,1.68-5.41,9.06,9.06,0,0,0-1.71-5.56A8.69,8.69,0,0,0,83.78,51.33Z"/></svg>