<svg id="Layer_1" data-name="Layer 1" xmlns="http://www.w3.org/2000/svg" viewBox="0 0 100 100"><title>l20_2_1</title><path d="M85.12,100H15A14.92,14.92,0,0,1,.05,85.07V14.93A14.92,14.92,0,0,1,15,0H85.12a14.93,14.93,0,0,1,14.93,14.93V85.07A14.93,14.93,0,0,1,85.12,100ZM39.21,50.13h-9.7V40.42A4.47,4.47,0,0,0,25,35.88a4.47,4.47,0,0,0-4.54,4.54v9.71h-9.7a4.46,4.46,0,0,0-4.54,4.54,4.5,4.5,0,0,0,1.31,3.27,4.32,4.32,0,0,0,3.23,1.35h9.7v9.62A4.47,4.47,0,0,0,25,73.46a4.38,4.38,0,0,0,3.28-1.31,4.51,4.51,0,0,0,1.27-3.24V59.29h9.7a4.32,4.32,0,0,0,3.23-1.35,4.5,4.5,0,0,0,1.31-3.27,4.46,4.46,0,0,0-4.54-4.54ZM85.49,65.6H70L80.94,54.44a35.89,35.89,0,0,0,6.43-8.67,19.35,19.35,0,0,0,1.89-8.58,14.1,14.1,0,0,0-2.35-8,15.13,15.13,0,0,0-6.66-5.39,24.93,24.93,0,0,0-10-1.88,31.32,31.32,0,0,0-17,5.23,5.16,5.16,0,0,0-1.88,2,6.55,6.55,0,0,0-.5,2.78A6.66,6.66,0,0,0,52.14,36a4,4,0,0,0,3.24,1.73,4.7,4.7,0,0,0,1.46-.23,10.07,10.07,0,0,0,1.58-.73c.59-.34,1-.56,1.19-.66l1.54-.77a38.61,38.61,0,0,1,4.35-1.89,12.67,12.67,0,0,1,4.12-.65,6.06,6.06,0,0,1,4.28,1.39,5.17,5.17,0,0,1,1.5,4q0,4.47-5.08,9.78L54,65a8.44,8.44,0,0,0-2.62,6A5.75,5.75,0,0,0,53,75.19a5.87,5.87,0,0,0,4.39,1.65H85.49a7.77,7.77,0,0,0,5-1.38,5.32,5.32,0,0,0,1.65-4.31A5.11,5.11,0,0,0,90.53,67,7.9,7.9,0,0,0,85.49,65.6Z"/></svg>