<svg id="Layer_1" data-name="Layer 1" xmlns="http://www.w3.org/2000/svg" viewBox="0 0 150 100"><title>s20_1</title><path d="M106.28.19H46.42a6.9,6.9,0,0,0-6.9,6.9V23.53a6.9,6.9,0,0,0,6.9,6.9h59.86a6.9,6.9,0,0,0,6.9-6.9V7.09A6.9,6.9,0,0,0,106.28.19Zm-24,24.12H72.57c-1.62,0-2.44-.69-2.44-2.07a1.88,1.88,0,0,1,.59-1.51,2.78,2.78,0,0,1,1.85-.51h2.27V10.11L72.6,11.43a1.9,1.9,0,0,1-1,.28A1.7,1.7,0,0,1,70.27,11a2.34,2.34,0,0,1-.56-1.52,1.91,1.91,0,0,1,1-1.74l4.48-2.6a4.71,4.71,0,0,1,2.33-.7,2.45,2.45,0,0,1,1.8.67A2.43,2.43,0,0,1,80,7V20.22h2.3a2.75,2.75,0,0,1,1.84.51,1.85,1.85,0,0,1,.59,1.51Q84.72,24.31,82.29,24.31Z"/><path d="M122.21,34.94H30.49a7.18,7.18,0,0,0-7.17,7.18V58a7.17,7.17,0,0,0,7.17,7.17h91.72A7.17,7.17,0,0,0,129.38,58V42.12A7.18,7.18,0,0,0,122.21,34.94ZM81.38,59.08a2.83,2.83,0,0,1-1.84.5H69.32a2,2,0,0,1-2.18-2.12,3.1,3.1,0,0,1,1-2.19L74,49.08a5.44,5.44,0,0,0,1.85-3.55,1.91,1.91,0,0,0-.55-1.46,2.23,2.23,0,0,0-1.56-.5,4.44,4.44,0,0,0-1.49.24,13.46,13.46,0,0,0-1.59.68l-.55.28L69.7,45a3.56,3.56,0,0,1-.57.27,1.89,1.89,0,0,1-.53.08,1.43,1.43,0,0,1-1.18-.63,2.4,2.4,0,0,1-.48-1.5,2.3,2.3,0,0,1,.19-1,1.77,1.77,0,0,1,.68-.72,10.7,10.7,0,0,1,3-1.4A10.89,10.89,0,0,1,74,39.59a9,9,0,0,1,3.64.69,5.51,5.51,0,0,1,2.42,2,5.12,5.12,0,0,1,.86,2.92,7.08,7.08,0,0,1-.69,3.13,13.34,13.34,0,0,1-2.34,3.15l-4,4.06h5.62a2.89,2.89,0,0,1,1.84.49,1.83,1.83,0,0,1,.6,1.52A1.94,1.94,0,0,1,81.38,59.08Z"/><path d="M135.88,69.7H16.82a9.53,9.53,0,0,0-9.53,9.52V90.41a9.53,9.53,0,0,0,9.53,9.53H135.88a9.53,9.53,0,0,0,9.52-9.53V79.22A9.52,9.52,0,0,0,135.88,69.7ZM80.51,91.86a5.85,5.85,0,0,1-2.62,1.94,10.46,10.46,0,0,1-4,.69,12.33,12.33,0,0,1-3.5-.49,9.17,9.17,0,0,1-2.91-1.41,2,2,0,0,1-.87-1.74,2.28,2.28,0,0,1,.48-1.47,1.42,1.42,0,0,1,1.17-.6,1.9,1.9,0,0,1,.7.12c.21.09.49.22.84.41l.27.13.35.15a12.52,12.52,0,0,0,1.61.69,5,5,0,0,0,1.61.23,3.86,3.86,0,0,0,2.25-.5,2,2,0,0,0,.69-1.68,1.78,1.78,0,0,0-.7-1.57,4.2,4.2,0,0,0-2.3-.47H71.89a1.62,1.62,0,0,1-1.32-.59,2.28,2.28,0,0,1,0-2.8,1.62,1.62,0,0,1,1.32-.59h1.23a4.3,4.3,0,0,0,2.24-.45,1.58,1.58,0,0,0,.7-1.43,2.11,2.11,0,0,0-.62-1.61,2.42,2.42,0,0,0-1.71-.57,4.2,4.2,0,0,0-1.47.25,16.28,16.28,0,0,0-1.52.67l-.59.28c-.36.19-.64.33-.84.41a1.94,1.94,0,0,1-.7.13,1.44,1.44,0,0,1-1.18-.61A2.33,2.33,0,0,1,67,77.91a1.87,1.87,0,0,1,.87-1.73,9.08,9.08,0,0,1,2.84-1.4A11.1,11.1,0,0,1,74,74.27a9.25,9.25,0,0,1,3.65.68,5.47,5.47,0,0,1,2.44,1.9,5,5,0,0,1,.85,2.86,4.69,4.69,0,0,1-.8,2.7,4.52,4.52,0,0,1-2.22,1.69,4.81,4.81,0,0,1,2.59,1.74,5,5,0,0,1,.93,3A4.86,4.86,0,0,1,80.51,91.86Z"/></svg>