<svg id="Layer_1" data-name="Layer 1" xmlns="http://www.w3.org/2000/svg" viewBox="0 0 150 100"><title>s20_1</title><path d="M135.88,99.94H16.82a9.53,9.53,0,0,1-9.53-9.53V79.22a9.53,9.53,0,0,1,9.53-9.52H135.88a9.52,9.52,0,0,1,9.52,9.52V90.41A9.53,9.53,0,0,1,135.88,99.94Zm1.45-17.25c-2.58-2.4-5.23-4.72-7.92-7a2.91,2.91,0,0,0-4.27.24c-1,1.24-.85,2.82.47,4.12.49.49,1,.94,1.83,1.66H25.16C26,81,26.5,80.54,27,80.05c1.31-1.3,1.48-2.88.46-4.12a2.91,2.91,0,0,0-4.27-.24c-2.69,2.28-5.34,4.6-7.91,7a2.73,2.73,0,0,0,0,4.38c2.65,2.41,5.38,4.75,8.15,7a2.84,2.84,0,0,0,4-.32,2.93,2.93,0,0,0-.17-4,9.21,9.21,0,0,0-1.72-1.84H127.1a9,9,0,0,0-1.73,1.84,2.93,2.93,0,0,0-.17,4,2.85,2.85,0,0,0,4,.32c2.77-2.27,5.5-4.61,8.14-7A2.73,2.73,0,0,0,137.33,82.69Z"/><path d="M122.21,65.18H30.49A7.17,7.17,0,0,1,23.32,58V42.12a7.18,7.18,0,0,1,7.17-7.18h91.72a7.18,7.18,0,0,1,7.17,7.18V58A7.17,7.17,0,0,1,122.21,65.18Zm-.8-17.24c-2.57-2.4-5.22-4.73-7.91-7a2.91,2.91,0,0,0-4.27.24c-1,1.24-.85,2.82.46,4.12.49.49,1,.93,1.84,1.66H41.83c.81-.73,1.35-1.17,1.84-1.66,1.31-1.3,1.48-2.88.46-4.12a2.91,2.91,0,0,0-4.27-.24c-2.69,2.27-5.34,4.6-7.91,7a2.74,2.74,0,0,0,0,4.38c2.65,2.41,5.38,4.74,8.15,7a2.85,2.85,0,0,0,4-.32,3,3,0,0,0-.18-4,8.94,8.94,0,0,0-1.72-1.84h69A8.94,8.94,0,0,0,109.46,55a3,3,0,0,0-.18,4,2.85,2.85,0,0,0,4,.32c2.77-2.28,5.5-4.61,8.15-7A2.74,2.74,0,0,0,121.41,47.94Z"/><path d="M106.28,30.43H46.42a6.9,6.9,0,0,1-6.9-6.9V7.09a6.9,6.9,0,0,1,6.9-6.9h59.86a6.9,6.9,0,0,1,6.9,6.9V23.53A6.9,6.9,0,0,1,106.28,30.43Zm-.43-17.24c-2.57-2.41-5.22-4.73-7.91-7a2.89,2.89,0,0,0-4.27.24c-1,1.23-.85,2.82.46,4.12.5.49,1,.93,1.84,1.66H56.55c.8-.73,1.34-1.17,1.83-1.66,1.32-1.3,1.49-2.89.46-4.12a2.89,2.89,0,0,0-4.27-.24c-2.69,2.27-5.34,4.59-7.91,7a2.74,2.74,0,0,0,0,4.38c2.65,2.41,5.38,4.74,8.15,7a2.86,2.86,0,0,0,4-.32,3,3,0,0,0-.18-4,8.7,8.7,0,0,0-1.72-1.84H95.62a8.7,8.7,0,0,0-1.72,1.84,2.93,2.93,0,0,0-.17,4,2.85,2.85,0,0,0,4,.32c2.77-2.28,5.5-4.61,8.15-7A2.74,2.74,0,0,0,105.85,13.19Z"/></svg>