<svg id="Layer_1" data-name="Layer 1" xmlns="http://www.w3.org/2000/svg" viewBox="0 0 150 100"><title>s20_1</title><path d="M106.28.19H46.42a6.9,6.9,0,0,0-6.9,6.9V23.53a6.9,6.9,0,0,0,6.9,6.9h59.86a6.9,6.9,0,0,0,6.9-6.9V7.09A6.9,6.9,0,0,0,106.28.19ZM86.56,17.26a2.51,2.51,0,0,1-1.89.79H79v5.63a2.59,2.59,0,0,1-.74,1.89,2.53,2.53,0,0,1-1.91.76,2.61,2.61,0,0,1-2.66-2.65V18.05H68a2.51,2.51,0,0,1-1.89-.79,2.62,2.62,0,0,1-.76-1.91A2.6,2.6,0,0,1,68,12.7h5.67V7A2.66,2.66,0,1,1,79,7V12.7h5.67a2.61,2.61,0,0,1,2.66,2.65A2.63,2.63,0,0,1,86.56,17.26Z"/><path d="M122.21,34.94H30.49a7.18,7.18,0,0,0-7.17,7.18V58a7.17,7.17,0,0,0,7.17,7.17h91.72A7.17,7.17,0,0,0,129.38,58V42.12A7.18,7.18,0,0,0,122.21,34.94ZM85,54.49a2.47,2.47,0,0,1,.76,1.89A2.56,2.56,0,0,1,85,58.27a2.61,2.61,0,0,1-3.78,0l-4.86-4.86-4.86,4.86A2.57,2.57,0,0,1,69.6,59a2.78,2.78,0,0,1-1.89-.77,2.61,2.61,0,0,1,0-3.78l4.86-4.86-4.86-4.81a2.78,2.78,0,0,1-.77-1.89A2.65,2.65,0,0,1,67.75,41a2.37,2.37,0,0,1,1.85-.81,2.63,2.63,0,0,1,1.89.86l4.86,4.86L81.21,41a2.59,2.59,0,0,1,1.89-.81A2.5,2.5,0,0,1,85,41a2.35,2.35,0,0,1,.81,1.84A2.65,2.65,0,0,1,85,44.82l-4.86,4.81Z"/><path d="M135.88,69.7H16.82a9.53,9.53,0,0,0-9.53,9.52V90.41a9.53,9.53,0,0,0,9.53,9.53H135.88a9.53,9.53,0,0,0,9.52-9.53V79.22A9.52,9.52,0,0,0,135.88,69.7ZM74.37,74.57a2.71,2.71,0,0,1,2-.83,2.88,2.88,0,0,1,2.88,2.88,2.84,2.84,0,0,1-.83,2.07,2.75,2.75,0,0,1-2,.86,2.67,2.67,0,0,1-2-.86,2.9,2.9,0,0,1-.81-2.07A2.84,2.84,0,0,1,74.37,74.57Zm4.07,21.49a2.75,2.75,0,0,1-2,.86,2.69,2.69,0,0,1-2-.84,2.8,2.8,0,0,1-.81-2A2.9,2.9,0,0,1,74.37,92a2.67,2.67,0,0,1,2-.86,2.75,2.75,0,0,1,2,.86A2.84,2.84,0,0,1,79.27,94,2.77,2.77,0,0,1,78.44,96.06Zm8.39-8.84a2.55,2.55,0,0,1-1.89.79H68.29a2.61,2.61,0,0,1-2.65-2.66,2.62,2.62,0,0,1,.76-1.91,2.51,2.51,0,0,1,1.89-.79H84.94a2.63,2.63,0,0,1,2.66,2.66A2.65,2.65,0,0,1,86.83,87.22Z"/></svg>