<svg id="Layer_1" data-name="Layer 1" xmlns="http://www.w3.org/2000/svg" viewBox="0 0 150 100"><title>s20_1</title><path d="M106.6.06H46.73A6.9,6.9,0,0,0,39.83,7V23.41a6.89,6.89,0,0,0,6.9,6.89H106.6a6.88,6.88,0,0,0,6.89-6.89V7A6.89,6.89,0,0,0,106.6.06ZM84.77,23.59a2.7,2.7,0,0,1-2,.84,2.82,2.82,0,0,1-2.07-.95l-4.09-4.27-4.06,4.27a2.82,2.82,0,0,1-2.07.95,2.68,2.68,0,0,1-2-.84,2.65,2.65,0,0,1-.84-1.93,2.72,2.72,0,0,1,.88-2l4.34-4.34-4-3.92a2.73,2.73,0,0,1-.88-2,2.76,2.76,0,0,1,.82-2,2.64,2.64,0,0,1,2-.84,2.69,2.69,0,0,1,2.06,1l3.75,3.82,3.78-3.82a2.77,2.77,0,0,1,2.06-.94,2.62,2.62,0,0,1,1.94.82,2.63,2.63,0,0,1,.83,1.91,2.84,2.84,0,0,1-.88,2l-4,3.92,4.34,4.34a2.76,2.76,0,0,1,.88,2A2.65,2.65,0,0,1,84.77,23.59Z"/><path d="M122.52,34.82H30.8A7.17,7.17,0,0,0,23.63,42V57.88a7.18,7.18,0,0,0,7.17,7.18h91.72a7.19,7.19,0,0,0,7.18-7.18V42A7.18,7.18,0,0,0,122.52,34.82ZM84.45,43.68l-8,15.93a2.56,2.56,0,0,1-1,1.11,2.37,2.37,0,0,1-1.27.36,2.66,2.66,0,0,1-1.76-.65,2,2,0,0,1-.76-1.57,2.34,2.34,0,0,1,.27-1l2-3.93-5.1-10.2a2.41,2.41,0,0,1-.24-1,2,2,0,0,1,.84-1.64,2.93,2.93,0,0,1,1.89-.67,2.5,2.5,0,0,1,1.33.37,2.43,2.43,0,0,1,1,1.13l3.18,6.9L80,41.91a2.41,2.41,0,0,1,.9-1.11,2.31,2.31,0,0,1,1.26-.36,2.67,2.67,0,0,1,1.77.66,2,2,0,0,1,.78,1.59A2.19,2.19,0,0,1,84.45,43.68Z"/><path d="M136.19,69.57H17.13A9.52,9.52,0,0,0,7.61,79.1V90.28a9.53,9.53,0,0,0,9.52,9.53H136.19a9.53,9.53,0,0,0,9.53-9.53V79.1A9.53,9.53,0,0,0,136.19,69.57ZM49.71,90.63a2.3,2.3,0,0,1-1.68.72,2.4,2.4,0,0,1-1.77-.81l-3.51-3.66-3.48,3.66a2.4,2.4,0,0,1-1.77.81,2.3,2.3,0,0,1-1.68-.72A2.27,2.27,0,0,1,35.1,89a2.36,2.36,0,0,1,.75-1.71l3.72-3.72-3.42-3.36a2.36,2.36,0,0,1-.75-1.71,2.32,2.32,0,0,1,.7-1.68,2.26,2.26,0,0,1,1.67-.72,2.3,2.3,0,0,1,1.77.84l3.21,3.27L46,76.92a2.4,2.4,0,0,1,1.77-.81,2.41,2.41,0,0,1,2.37,2.34,2.45,2.45,0,0,1-.75,1.74L46,83.55l3.72,3.72A2.36,2.36,0,0,1,50.43,89,2.27,2.27,0,0,1,49.71,90.63Zm17.1-6.86a1.69,1.69,0,0,1-1.26.53H61.77v3.75a1.74,1.74,0,0,1-.5,1.26,1.69,1.69,0,0,1-1.27.51,1.74,1.74,0,0,1-1.77-1.77V84.3H54.45a1.69,1.69,0,0,1-1.26-.53,1.75,1.75,0,0,1-.51-1.27,1.74,1.74,0,0,1,1.77-1.77h3.78V77a1.77,1.77,0,1,1,3.54,0v3.78h3.78a1.74,1.74,0,0,1,1.77,1.77A1.75,1.75,0,0,1,66.81,83.77ZM84.9,79.35,77,95.28a2.56,2.56,0,0,1-1,1.11,2.37,2.37,0,0,1-1.27.36A2.66,2.66,0,0,1,73,96.1a2,2,0,0,1-.76-1.57,2.34,2.34,0,0,1,.27-1l2-3.93-5.1-10.2a2.41,2.41,0,0,1-.24-1,2,2,0,0,1,.84-1.64,2.93,2.93,0,0,1,1.89-.67,2.5,2.5,0,0,1,1.33.37,2.43,2.43,0,0,1,.95,1.13l3.18,6.9,3.15-6.9a2.41,2.41,0,0,1,.9-1.11,2.31,2.31,0,0,1,1.26-.36,2.67,2.67,0,0,1,1.77.66,2,2,0,0,1,.78,1.59A2.19,2.19,0,0,1,84.9,79.35Zm16.32,7.42a1.69,1.69,0,0,1-1.26.53H88.86a1.74,1.74,0,0,1-1.77-1.77,1.77,1.77,0,0,1,.51-1.28,1.68,1.68,0,0,1,1.26-.52H100a1.74,1.74,0,0,1,1.77,1.77A1.75,1.75,0,0,1,101.22,86.77Zm0-6a1.69,1.69,0,0,1-1.26.53H88.86a1.74,1.74,0,0,1-1.77-1.77,1.77,1.77,0,0,1,.51-1.28,1.68,1.68,0,0,1,1.26-.52H100a1.74,1.74,0,0,1,1.77,1.77A1.75,1.75,0,0,1,101.22,80.77ZM116,91.14h-9.45a2.31,2.31,0,0,1-1.71-.66,2.17,2.17,0,0,1-.66-1.59,2.7,2.7,0,0,1,.75-1.83l6.3-6.75h-4.83q-2.4,0-2.4-2t2.4-2h9.09a2.31,2.31,0,0,1,1.71.66,2.17,2.17,0,0,1,.66,1.59,2.66,2.66,0,0,1-.75,1.8l-6.33,6.78H116q2.4,0,2.4,2T116,91.14Z"/></svg>