<svg id="Layer_1" data-name="Layer 1" xmlns="http://www.w3.org/2000/svg" viewBox="0 0 200 150"><defs><style>.cls-1{fill:#020202;}</style></defs><title>g25</title><path class="cls-1" d="M187.66,76A12.34,12.34,0,0,1,200,88.34V120.6A12.35,12.35,0,0,1,187.66,133H111.72A12.34,12.34,0,0,1,100,124.47,12.34,12.34,0,0,1,88.28,133H12.34A12.35,12.35,0,0,1,0,120.6V88.34A12.34,12.34,0,0,1,12.34,76,12.35,12.35,0,0,1,0,63.65V31.39A12.35,12.35,0,0,1,12.34,19H88.28A12.34,12.34,0,0,1,100,27.52,12.34,12.34,0,0,1,111.72,19h75.94A12.35,12.35,0,0,1,200,31.39V63.65A12.35,12.35,0,0,1,187.66,76ZM55.07,57.5H46l6.45-6.58a21.65,21.65,0,0,0,3.79-5.1,11.48,11.48,0,0,0,1.11-5.06A8.29,8.29,0,0,0,55.91,36,9,9,0,0,0,52,32.83a14.65,14.65,0,0,0-5.9-1.11,17.55,17.55,0,0,0-5.24.82,17.35,17.35,0,0,0-4.79,2.27A3,3,0,0,0,34.94,36a4,4,0,0,0-.29,1.63,3.94,3.94,0,0,0,.77,2.43,2.31,2.31,0,0,0,1.91,1,2.71,2.71,0,0,0,.86-.13,5.38,5.38,0,0,0,.93-.44l.7-.38.91-.45a21.2,21.2,0,0,1,2.57-1.12,7.53,7.53,0,0,1,2.42-.38,3.6,3.6,0,0,1,2.52.81,3.08,3.08,0,0,1,.89,2.36q0,2.64-3,5.77l-9.62,10A5,5,0,0,0,35,60.68a3.4,3.4,0,0,0,1,2.47,3.47,3.47,0,0,0,2.59,1H55.07a4.53,4.53,0,0,0,3-.82,3.12,3.12,0,0,0,1-2.54,3,3,0,0,0-1-2.47A4.65,4.65,0,0,0,55.07,57.5ZM42.38,113.43H38.66V91.92a3.8,3.8,0,0,0-4-4A7.65,7.65,0,0,0,30.85,89l-7.26,4.22A3.07,3.07,0,0,0,22,96.05a3.78,3.78,0,0,0,.91,2.47,2.7,2.7,0,0,0,2.17,1.12,3,3,0,0,0,1.59-.46l3.63-2.13v16.38H26.63a4.59,4.59,0,0,0-3,.82,3.07,3.07,0,0,0-.95,2.45q0,3.36,3.95,3.36H42.38q3.94,0,3.95-3.36a3,3,0,0,0-1-2.45A4.54,4.54,0,0,0,42.38,113.43Zm17.61,7q5.94,0,9.08-4.22c2.08-2.82,3.13-6.88,3.13-12.21s-1-9.35-3.16-12.16A10.6,10.6,0,0,0,60,87.65q-6,0-9.08,4.23T47.78,104c0,5.33,1,9.39,3.13,12.21S56,120.47,60,120.47Zm0-6.31a3.25,3.25,0,0,1-3.13-2.36q-1-2.35-1-7.76t1-7.74a3.26,3.26,0,0,1,6.26,0,22.62,22.62,0,0,1,.95,7.72q0,5.4-.95,7.76A3.26,3.26,0,0,1,60,114.16ZM71.25,75.22v-.4a3.62,3.62,0,0,0-3.62-3.62H25.68a3.62,3.62,0,0,0-3.62,3.62v.4a3.62,3.62,0,0,0,3.62,3.62H67.63A3.62,3.62,0,0,0,71.25,75.22Zm84.8-32a11.39,11.39,0,0,0-4.49.81V38.44h9.8q3.94,0,3.95-3.18t-3.95-3.13H147.29a3.85,3.85,0,0,0-2.86,1,3.91,3.91,0,0,0-1,2.9v12.3a2.51,2.51,0,0,0,.86,2,3.16,3.16,0,0,0,2.14.75,4.39,4.39,0,0,0,2-.5,16.42,16.42,0,0,1,2.61-.82,12.43,12.43,0,0,1,2.47-.23,5.09,5.09,0,0,1,3.54,1.14,4,4,0,0,1,1.27,3.18,3.92,3.92,0,0,1-1.22,3.2,5.81,5.81,0,0,1-3.77,1,7.57,7.57,0,0,1-2.52-.41,25,25,0,0,1-2.56-1.09l-.91-.45c-.61-.34-1.06-.56-1.36-.69a3.13,3.13,0,0,0-1.14-.18,2.34,2.34,0,0,0-1.9,1,3.68,3.68,0,0,0-.77,2.38,3.34,3.34,0,0,0,.34,1.57,4,4,0,0,0,1.06,1.25,15.22,15.22,0,0,0,4.66,2.27,19,19,0,0,0,5.51.81,14.71,14.71,0,0,0,6.49-1.36,10.19,10.19,0,0,0,4.36-3.86,10.7,10.7,0,0,0,1.54-5.76,11,11,0,0,0-1.29-5.38,9.22,9.22,0,0,0-3.59-3.63A10.49,10.49,0,0,0,156.05,43.21Zm-6.5,70.22h-3.72V91.92a3.8,3.8,0,0,0-4-4A7.65,7.65,0,0,0,138,89l-7.26,4.22a3.07,3.07,0,0,0-1.59,2.81,3.78,3.78,0,0,0,.91,2.47,2.7,2.7,0,0,0,2.17,1.12,3,3,0,0,0,1.59-.46l3.63-2.13v16.38H133.8a4.59,4.59,0,0,0-3,.82,3.07,3.07,0,0,0-1,2.45c0,2.24,1.31,3.36,4,3.36h15.75q3.94,0,3.95-3.36a3,3,0,0,0-1-2.45A4.54,4.54,0,0,0,149.55,113.43Zm19.83-14.29a11.43,11.43,0,0,0-4.49.81V94.37h9.8q3.94,0,3.95-3.18c0-2.08-1.32-3.13-3.95-3.13H160.62a3.9,3.9,0,0,0-2.86,1,4,4,0,0,0-1,2.91v12.3a2.48,2.48,0,0,0,.87,2,3.11,3.11,0,0,0,2.13.75,4.34,4.34,0,0,0,2-.5,16.42,16.42,0,0,1,2.61-.82,12.54,12.54,0,0,1,2.47-.22,5.13,5.13,0,0,1,3.55,1.13,4.08,4.08,0,0,1,1.27,3.18,3.93,3.93,0,0,1-1.23,3.2,5.81,5.81,0,0,1-3.77,1,7.65,7.65,0,0,1-2.52-.41,23.77,23.77,0,0,1-2.56-1.09l-.91-.45a13.91,13.91,0,0,0-1.36-.68,3.08,3.08,0,0,0-1.13-.18,2.34,2.34,0,0,0-1.91,1,3.7,3.7,0,0,0-.77,2.38,3.34,3.34,0,0,0,.34,1.57,4.16,4.16,0,0,0,1.06,1.25,15.21,15.21,0,0,0,4.66,2.27,19.09,19.09,0,0,0,5.51.81,14.68,14.68,0,0,0,6.49-1.36A10.13,10.13,0,0,0,178,115.2a10.7,10.7,0,0,0,1.54-5.76,11,11,0,0,0-1.29-5.38,9.15,9.15,0,0,0-3.59-3.63A10.49,10.49,0,0,0,169.38,99.14Zm9-23.92v-.4a3.62,3.62,0,0,0-3.62-3.62h-42a3.62,3.62,0,0,0-3.62,3.62v.4a3.62,3.62,0,0,0,3.62,3.62h42A3.62,3.62,0,0,0,178.42,75.22ZM114.1,71.1h-9.6V61.5a4.5,4.5,0,1,0-9,0v9.6H85.9a4.44,4.44,0,0,0-4.5,4.5,4.46,4.46,0,0,0,1.3,3.24,4.27,4.27,0,0,0,3.2,1.33h9.6V89.7a4.56,4.56,0,0,0,7.74,3.2,4.42,4.42,0,0,0,1.26-3.2V80.17h9.6a4.27,4.27,0,0,0,3.2-1.33,4.49,4.49,0,0,0,1.29-3.24,4.42,4.42,0,0,0-4.49-4.5Z"/></svg>