<svg id="Layer_1" data-name="Layer 1" xmlns="http://www.w3.org/2000/svg" viewBox="0 0 100 100"><title>l25_3_1</title><path d="M83.53,99.89H16.47A16.47,16.47,0,0,1,0,83.42V16.35A16.46,16.46,0,0,1,16.47-.11H83.53A16.46,16.46,0,0,1,100,16.35V83.42A16.47,16.47,0,0,1,83.53,99.89Zm-1-74.5H79.61v-17a3.14,3.14,0,0,0-.88-2.33,3.15,3.15,0,0,0-2.31-.85,6,6,0,0,0-3,.89L67.73,9.48a2.43,2.43,0,0,0-1.25,2.21,3,3,0,0,0,.72,2,2.11,2.11,0,0,0,1.71.88,2.4,2.4,0,0,0,1.25-.36L73,12.48V25.39h-2.9a3.56,3.56,0,0,0-2.36.65A2.4,2.4,0,0,0,67,28c0,1.76,1,2.65,3.11,2.65H82.54c2.07,0,3.11-.89,3.11-2.65A2.4,2.4,0,0,0,84.9,26,3.58,3.58,0,0,0,82.54,25.39Zm-.87,38.54H74.48l5.08-5.19a16.56,16.56,0,0,0,3-4,9,9,0,0,0,.87-4A6.51,6.51,0,0,0,82.33,47a6.89,6.89,0,0,0-3.09-2.5,11.41,11.41,0,0,0-4.65-.88,14.47,14.47,0,0,0-7.9,2.43,2.47,2.47,0,0,0-.88.93,3.14,3.14,0,0,0-.23,1.29,3.05,3.05,0,0,0,.61,1.91,1.79,1.79,0,0,0,1.5.8,2.15,2.15,0,0,0,.68-.1,4.56,4.56,0,0,0,.73-.34l.56-.31.71-.35a17.28,17.28,0,0,1,2-.88,5.88,5.88,0,0,1,1.91-.3,2.83,2.83,0,0,1,2,.64A2.43,2.43,0,0,1,77,51.2c0,1.38-.79,2.9-2.36,4.54l-7.58,7.9a3.94,3.94,0,0,0-1.22,2.79,2.67,2.67,0,0,0,.75,1.95,2.73,2.73,0,0,0,2,.77h13A3.63,3.63,0,0,0,84,68.51a2.46,2.46,0,0,0,.77-2A2.32,2.32,0,0,0,84,64.56,3.63,3.63,0,0,0,81.67,63.93ZM54.13,60.56H39.85V46.29a6.58,6.58,0,0,0-6.68-6.69,6.59,6.59,0,0,0-6.69,6.69V60.56H12.21a6.59,6.59,0,0,0-6.69,6.69,6.62,6.62,0,0,0,1.93,4.81,6.34,6.34,0,0,0,4.76,2H26.48V88.21a6.59,6.59,0,0,0,6.69,6.69A6.38,6.38,0,0,0,38,93a6.55,6.55,0,0,0,1.87-4.76V74.05H54.13a6.36,6.36,0,0,0,4.76-2,6.65,6.65,0,0,0,1.92-4.81,6.58,6.58,0,0,0-6.68-6.69Zm41.8-23.84h0a2.68,2.68,0,0,0-2.67-2.67H58.12a2.68,2.68,0,0,0-2.68,2.67h0a2.68,2.68,0,0,0,2.68,2.68H93.26A2.68,2.68,0,0,0,95.93,36.72Z"/></svg>