<svg id="Layer_1" data-name="Layer 1" xmlns="http://www.w3.org/2000/svg" viewBox="0 0 100 100"><title>l25_1_1</title><path d="M89.4,61.47V92a7.94,7.94,0,0,1-7.94,7.94h-64A7.94,7.94,0,0,1,9.48,92V61.47a8,8,0,0,1,7.94-7.94h64A8,8,0,0,1,89.4,61.47ZM34,80.92h-.93V65.76a3.56,3.56,0,0,0-1.13-2.82,4,4,0,0,0-2.73-1,4.15,4.15,0,0,0-1.87.45,3.83,3.83,0,0,0-1.49,1.28l-12,17.13a4.68,4.68,0,0,0-.93,2.77,3.19,3.19,0,0,0,.89,2.31,3.12,3.12,0,0,0,2.39.93h9.37v1.43a3.73,3.73,0,0,0,1,2.85,3.78,3.78,0,0,0,2.71,1,3.85,3.85,0,0,0,2.73-1,3.67,3.67,0,0,0,1-2.85V86.8H34q3.65,0,3.65-3C37.63,81.88,36.41,80.92,34,80.92Zm-13.48,0,5-7.27v7.27ZM53.67,79.7l4.54-4.49A2.5,2.5,0,0,0,59,73.4a2.22,2.22,0,0,0-.76-1.72,2.31,2.31,0,0,0-1.76-.76,2.41,2.41,0,0,0-1.77.76l-4.53,4.53-4.54-4.53a2.45,2.45,0,0,0-1.76-.8,2.17,2.17,0,0,0-1.72.76,2.43,2.43,0,0,0-.76,1.8,2.61,2.61,0,0,0,.71,1.77l4.54,4.49-4.54,4.54a2.44,2.44,0,0,0,0,3.52,2.57,2.57,0,0,0,1.77.72,2.38,2.38,0,0,0,1.76-.72l4.54-4.53,4.53,4.53a2.43,2.43,0,0,0,3.53,0A2.36,2.36,0,0,0,58.92,86a2.27,2.27,0,0,0-.71-1.76Zm29.49,6H74.72l6-6.09a19.79,19.79,0,0,0,3.51-4.72,10.67,10.67,0,0,0,1-4.68,7.7,7.7,0,0,0-1.28-4.39,8.16,8.16,0,0,0-3.64-2.94,13.47,13.47,0,0,0-5.46-1,16.59,16.59,0,0,0-4.85.75,16.76,16.76,0,0,0-4.43,2.1,2.79,2.79,0,0,0-1,1.1A4.06,4.06,0,0,0,65,69.51a2.16,2.16,0,0,0,1.77.95,2.3,2.3,0,0,0,.79-.13,4.3,4.3,0,0,0,.87-.4l.65-.35.84-.42a19.62,19.62,0,0,1,2.37-1,6.76,6.76,0,0,1,2.25-.36,3.3,3.3,0,0,1,2.33.76,2.83,2.83,0,0,1,.82,2.18c0,1.63-.93,3.4-2.78,5.34L66,85.33a4.6,4.6,0,0,0-1.43,3.27,3.07,3.07,0,0,0,3.28,3.2H83.16A4.24,4.24,0,0,0,85.91,91a2.9,2.9,0,0,0,.9-2.35,2.78,2.78,0,0,0-.9-2.29A4.3,4.3,0,0,0,83.16,85.66Z"/><path d="M72.27,8v30.5a7.94,7.94,0,0,1-7.94,7.94H33.83a8,8,0,0,1-7.94-7.94V8A7.94,7.94,0,0,1,33.83.09h30.5A7.93,7.93,0,0,1,72.27,8ZM54.47,23.1a6.27,6.27,0,0,0,3.29-2.47,7.3,7.3,0,0,0,1.2-4.2A6.93,6.93,0,0,0,56,10.53q-2.92-2.17-8-2.17a13.07,13.07,0,0,0-7.94,2.17,6.92,6.92,0,0,0-2.94,5.9,7.15,7.15,0,0,0,1.18,4.09,6.82,6.82,0,0,0,3.36,2.58,7.06,7.06,0,0,0-4,2.5,7.42,7.42,0,0,0-1.38,4.6,7.25,7.25,0,0,0,3.13,6.24q3.12,2.25,8.54,2.25t8.55-2.25a7.27,7.27,0,0,0,3.13-6.24,6.94,6.94,0,0,0-5.29-7.1Zm-6.39,9.75q-4.57,0-4.57-3.28t4.57-3.27q4.58,0,4.58,3.27T48.08,32.85Zm0-18.65a4.5,4.5,0,0,1,2.82.74,2.86,2.86,0,0,1,.92,2.37,2.92,2.92,0,0,1-.92,2.39,4.38,4.38,0,0,1-2.82.76,4.33,4.33,0,0,1-2.81-.76,2.89,2.89,0,0,1-.93-2.39,2.84,2.84,0,0,1,.93-2.37A4.45,4.45,0,0,1,48.08,14.2Z"/></svg>