<svg id="Layer_1" data-name="Layer 1" xmlns="http://www.w3.org/2000/svg" viewBox="0 0 100 100"><title>l25_3_1</title><path d="M83.23,99.89H16.17A16.47,16.47,0,0,1-.3,83.42V16.35A16.46,16.46,0,0,1,16.17-.11H83.23A16.46,16.46,0,0,1,99.7,16.35V83.42A16.47,16.47,0,0,1,83.23,99.89Zm-4-82.26A5.7,5.7,0,0,0,82,15.47a5.94,5.94,0,0,0,1-3.45A6.22,6.22,0,0,0,82,8.37a7,7,0,0,0-3.11-2.44,11.9,11.9,0,0,0-4.67-.85A14.34,14.34,0,0,0,70,5.72a11.89,11.89,0,0,0-3.62,1.79,2.79,2.79,0,0,0-.86,1,2.8,2.8,0,0,0-.25,1.26,2.93,2.93,0,0,0,.6,1.87,1.84,1.84,0,0,0,1.51.77,2.28,2.28,0,0,0,.89-.16c.26-.11.62-.28,1.07-.52l.75-.35A18.68,18.68,0,0,1,72,10.48a5.31,5.31,0,0,1,1.88-.32,3.06,3.06,0,0,1,2.18.73A2.65,2.65,0,0,1,76.84,13,2,2,0,0,1,76,14.77a5.52,5.52,0,0,1-2.87.57H71.51a2.06,2.06,0,0,0-1.68.75,2.93,2.93,0,0,0,0,3.58,2.06,2.06,0,0,0,1.68.75h2.22a5.31,5.31,0,0,1,2.93.61,2.23,2.23,0,0,1,.9,2,2.51,2.51,0,0,1-.88,2.15,5,5,0,0,1-2.88.64,6.61,6.61,0,0,1-2.06-.3,16.15,16.15,0,0,1-2-.88l-.45-.19-.34-.17c-.45-.23-.81-.41-1.07-.51a2.33,2.33,0,0,0-.9-.17,1.87,1.87,0,0,0-1.5.77,3,3,0,0,0-.61,1.88,2.49,2.49,0,0,0,1.11,2.22,11.51,11.51,0,0,0,3.72,1.81,16.14,16.14,0,0,0,4.47.62A13.3,13.3,0,0,0,79.18,30a7.5,7.5,0,0,0,3.35-2.48,6.28,6.28,0,0,0,1.18-3.79,6.33,6.33,0,0,0-1.2-3.9A6.13,6.13,0,0,0,79.2,17.63Zm3.23,42.26h-.79V47a3.08,3.08,0,0,0-1-2.4,3.4,3.4,0,0,0-2.33-.85,3.56,3.56,0,0,0-1.59.37,3.41,3.41,0,0,0-1.27,1.09L65.26,59.78a4,4,0,0,0-.78,2.36,2.75,2.75,0,0,0,.75,2,2.7,2.7,0,0,0,2,.78h8v1.22a3.16,3.16,0,0,0,.88,2.43,3.21,3.21,0,0,0,2.3.82,3.3,3.3,0,0,0,2.33-.82,3.16,3.16,0,0,0,.89-2.43V64.89h.79c2.07,0,3.11-.84,3.11-2.53S84.5,59.89,82.43,59.89ZM71,59.89l4.29-6.19v6.19Zm-17.12.67H39.55V46.29a6.58,6.58,0,0,0-6.68-6.69,6.59,6.59,0,0,0-6.69,6.69V60.56H11.91a6.59,6.59,0,0,0-6.69,6.69,6.62,6.62,0,0,0,1.93,4.81,6.34,6.34,0,0,0,4.76,2H26.18V88.21a6.59,6.59,0,0,0,6.69,6.69A6.38,6.38,0,0,0,37.68,93a6.55,6.55,0,0,0,1.87-4.76V74.05H53.83a6.36,6.36,0,0,0,4.76-2,6.66,6.66,0,0,0,1.93-4.81,6.59,6.59,0,0,0-6.69-6.69Zm41.8-23.84h0A2.67,2.67,0,0,0,93,34.05H57.82a2.68,2.68,0,0,0-2.68,2.67h0a2.68,2.68,0,0,0,2.68,2.68H93A2.67,2.67,0,0,0,95.63,36.72Z"/></svg>