<svg id="Layer_1" data-name="Layer 1" xmlns="http://www.w3.org/2000/svg" viewBox="0 0 100 100"><title>l25_3_1</title><path d="M83.53,100H16.47A16.47,16.47,0,0,1,0,83.53V16.47A16.47,16.47,0,0,1,16.47,0H83.53A16.47,16.47,0,0,1,100,16.47V83.53A16.47,16.47,0,0,1,83.53,100ZM81.32,16.15a4.9,4.9,0,0,0,2.37-1.8,5,5,0,0,0,.85-2.88,5.2,5.2,0,0,0-.91-3.05,5.89,5.89,0,0,0-2.6-2,10,10,0,0,0-3.89-.71,12,12,0,0,0-3.54.54,9.74,9.74,0,0,0-3,1.49,2.57,2.57,0,0,0-.71.8,2.34,2.34,0,0,0-.21,1.05,2.4,2.4,0,0,0,.51,1.56,1.52,1.52,0,0,0,1.25.65,2,2,0,0,0,.75-.14c.21-.09.51-.23.89-.43l.63-.3a16.07,16.07,0,0,1,1.62-.72,4.74,4.74,0,0,1,1.57-.26,2.55,2.55,0,0,1,1.82.61,2.22,2.22,0,0,1,.66,1.71,1.65,1.65,0,0,1-.75,1.52,4.55,4.55,0,0,1-2.39.48H74.9a1.69,1.69,0,0,0-1.4.63,2.43,2.43,0,0,0,0,3,1.69,1.69,0,0,0,1.4.63h1.85A4.5,4.5,0,0,1,79.2,19a1.88,1.88,0,0,1,.74,1.67,2.08,2.08,0,0,1-.73,1.79,4.13,4.13,0,0,1-2.4.54,5.4,5.4,0,0,1-1.72-.26A13.82,13.82,0,0,1,73.38,22L73,21.84l-.29-.14c-.38-.2-.67-.34-.89-.43a2,2,0,0,0-.75-.14,1.54,1.54,0,0,0-1.25.65,2.42,2.42,0,0,0-.51,1.56,2.09,2.09,0,0,0,.93,1.85,9.53,9.53,0,0,0,3.1,1.51,13.18,13.18,0,0,0,3.73.52,11.13,11.13,0,0,0,4.22-.73,6.37,6.37,0,0,0,2.79-2.07,5.2,5.2,0,0,0,1-3.17,5.34,5.34,0,0,0-1-3.25A5.14,5.14,0,0,0,81.32,16.15ZM72.43,48.3a4.81,4.81,0,0,0,2.37-1.8,5,5,0,0,0,.86-2.88,5.18,5.18,0,0,0-.92-3,5.72,5.72,0,0,0-2.59-2,9.82,9.82,0,0,0-3.89-.72,11.93,11.93,0,0,0-3.54.54,9.8,9.8,0,0,0-3,1.49,2.42,2.42,0,0,0-.72.81,2.26,2.26,0,0,0-.21,1,2.45,2.45,0,0,0,.51,1.57,1.55,1.55,0,0,0,1.25.64,2,2,0,0,0,.75-.14c.21-.09.51-.23.89-.43l.63-.3a13.88,13.88,0,0,1,1.62-.71A4.5,4.5,0,0,1,68,42.07a2.57,2.57,0,0,1,1.82.61,2.22,2.22,0,0,1,.65,1.71,1.68,1.68,0,0,1-.74,1.53,4.67,4.67,0,0,1-2.39.47H66a1.69,1.69,0,0,0-1.4.63,2.43,2.43,0,0,0,0,3,1.69,1.69,0,0,0,1.4.63h1.85a4.5,4.5,0,0,1,2.45.51,1.87,1.87,0,0,1,.74,1.67,2.08,2.08,0,0,1-.73,1.79,4.22,4.22,0,0,1-2.4.53,5.41,5.41,0,0,1-1.72-.25,13.21,13.21,0,0,1-1.71-.73L64.13,54l-.29-.13c-.38-.2-.67-.34-.89-.43a2,2,0,0,0-.75-.14,1.54,1.54,0,0,0-1.25.65,2.42,2.42,0,0,0-.51,1.56,2.09,2.09,0,0,0,.93,1.85,9.53,9.53,0,0,0,3.1,1.51,13.5,13.5,0,0,0,3.73.52,11.17,11.17,0,0,0,4.22-.73,6.31,6.31,0,0,0,2.79-2.08,5.21,5.21,0,0,0,1-3.16,5.28,5.28,0,0,0-1-3.25A5.07,5.07,0,0,0,72.43,48.3ZM86.54,59.4a7,7,0,0,0,6-2.78q2.05-2.77,2.06-8t-2.08-8a7.77,7.77,0,0,0-11.91,0c-1.38,1.85-2.06,4.51-2.06,8s.68,6.17,2.06,8A7,7,0,0,0,86.54,59.4Zm0-4.15a2.14,2.14,0,0,1-2.06-1.55,15,15,0,0,1-.62-5.1,15,15,0,0,1,.62-5.09,2.15,2.15,0,0,1,4.12,0,14.62,14.62,0,0,1,.63,5.07,14.74,14.74,0,0,1-.63,5.1A2.13,2.13,0,0,1,86.54,55.25ZM54.13,60.68H39.85V46.4a6.58,6.58,0,0,0-6.68-6.68,6.58,6.58,0,0,0-6.69,6.68V60.68H12.2a6.59,6.59,0,0,0-6.68,6.68,6.64,6.64,0,0,0,1.93,4.82,6.36,6.36,0,0,0,4.75,2H26.48V88.33A6.58,6.58,0,0,0,33.17,95,6.41,6.41,0,0,0,38,93.09a6.56,6.56,0,0,0,1.87-4.76V74.16H54.13a6.4,6.4,0,0,0,4.76-2,6.67,6.67,0,0,0,1.92-4.82,6.58,6.58,0,0,0-6.68-6.68ZM95,32.14V32a2.17,2.17,0,0,0-2.17-2.17H63.42A2.17,2.17,0,0,0,61.25,32v.12a2.17,2.17,0,0,0,2.17,2.17H92.85A2.17,2.17,0,0,0,95,32.14Z"/></svg>