<svg id="Layer_1" data-name="Layer 1" xmlns="http://www.w3.org/2000/svg" viewBox="0 0 100 100"><defs><style>.cls-1{fill:#020202;}</style></defs><title>l25_2_1</title><path class="cls-1" d="M88.75,49.89c3.12,0,5.64,4.83,5.64,10.79V88.89c0,6-2.52,10.8-5.64,10.8H8.64C5.53,99.69,3,94.85,3,88.89V60.68c0-6,2.53-10.79,5.64-10.79C5.53,49.89,3,45.05,3,39.09V10.88C3,4.92,5.53.09,8.64.09H88.75c3.12,0,5.64,4.83,5.64,10.79V39.09C94.39,45.05,91.87,49.89,88.75,49.89Zm-33.85-26a7.32,7.32,0,0,0,3.61-2.74,7.58,7.58,0,0,0,1.29-4.38,7.93,7.93,0,0,0-1.38-4.63,8.91,8.91,0,0,0-4-3.09,15,15,0,0,0-5.92-1.09,18,18,0,0,0-5.38.82A14.93,14.93,0,0,0,38.56,11a3.68,3.68,0,0,0-1.09,1.22,3.6,3.6,0,0,0-.32,1.59,3.68,3.68,0,0,0,.78,2.38,2.32,2.32,0,0,0,1.9,1A3.13,3.13,0,0,0,41,17c.33-.14.78-.36,1.36-.66l1-.46a26.73,26.73,0,0,1,2.48-1.09,6.87,6.87,0,0,1,2.38-.4,3.92,3.92,0,0,1,2.77.93,3.41,3.41,0,0,1,1,2.61,2.53,2.53,0,0,1-1.14,2.31,6.88,6.88,0,0,1-3.63.73h-2a2.6,2.6,0,0,0-2.13,1,3.73,3.73,0,0,0,0,4.54,2.58,2.58,0,0,0,2.13.95H48a6.88,6.88,0,0,1,3.72.77,2.86,2.86,0,0,1,1.13,2.55,3.15,3.15,0,0,1-1.11,2.72,6.25,6.25,0,0,1-3.65.82,8.13,8.13,0,0,1-2.61-.39,20,20,0,0,1-2.61-1.11l-.57-.25-.43-.2a14.11,14.11,0,0,0-1.36-.66,2.93,2.93,0,0,0-1.14-.21,2.34,2.34,0,0,0-1.9,1,3.68,3.68,0,0,0-.78,2.38A3.6,3.6,0,0,0,37,36.38a3.66,3.66,0,0,0,1.09,1.25,14.61,14.61,0,0,0,4.72,2.29,20.19,20.19,0,0,0,5.68.79,17.05,17.05,0,0,0,6.42-1.11,9.54,9.54,0,0,0,4.24-3.15,7.93,7.93,0,0,0,1.5-4.81,8.07,8.07,0,0,0-1.52-4.95A7.74,7.74,0,0,0,54.9,23.87Zm20.79,26h0A2.66,2.66,0,0,0,73,47.22H22.83a2.66,2.66,0,0,0-2.67,2.67h0a2.66,2.66,0,0,0,2.67,2.66H73A2.66,2.66,0,0,0,75.69,49.89Zm-1.07,9.83-.6-.85a1.77,1.77,0,0,0-2.47-.43L59.72,66.71a13,13,0,0,0-2.1-3.58C55.28,60.35,52,59,47.72,59A11.65,11.65,0,0,0,42,60.37a10.07,10.07,0,0,0-4,3.92,12.14,12.14,0,0,0-.18,11.08,9.35,9.35,0,0,0,3.43,3.72c.14.09.29.15.44.23L24.94,91a1.78,1.78,0,0,0-.43,2.47l.59.85a1.78,1.78,0,0,0,2.47.44L37.24,88a4.74,4.74,0,0,0,.72.68A14.53,14.53,0,0,0,42.52,91a17.82,17.82,0,0,0,5.2.82,12.24,12.24,0,0,0,7.06-2,13.16,13.16,0,0,0,4.67-5.83A21.9,21.9,0,0,0,61.11,75a28.65,28.65,0,0,0-.21-3.56l13.28-9.28A1.78,1.78,0,0,0,74.62,59.72ZM48.22,74a3.59,3.59,0,0,1-2.84-1.15,4.64,4.64,0,0,1-1-3.16,4.54,4.54,0,0,1,1-3.13,3.54,3.54,0,0,1,2.81-1.18A3.61,3.61,0,0,1,51,66.56a4.44,4.44,0,0,1,1.09,3.11,4.55,4.55,0,0,1-1,3l-1.45,1A4.2,4.2,0,0,1,48.22,74ZM50,79.59a7.34,7.34,0,0,0,2.79-2.29,12.09,12.09,0,0,1-1.7,5.92,4.35,4.35,0,0,1-3.75,2.11A6.17,6.17,0,0,1,45.22,85c-.6-.22-1.36-.55-2.24-1l5.58-3.9A7.92,7.92,0,0,0,50,79.59Z"/></svg>