<svg id="Layer_1" data-name="Layer 1" xmlns="http://www.w3.org/2000/svg" viewBox="0 0 100 100"><title>l25_3_1</title><path d="M83.53,100.43H16.47A16.47,16.47,0,0,1,0,84V16.9A16.47,16.47,0,0,1,16.47.43H83.53A16.47,16.47,0,0,1,100,16.9V84A16.47,16.47,0,0,1,83.53,100.43ZM81.59,25.94H74.4l5.08-5.19a16.94,16.94,0,0,0,3-4,9.08,9.08,0,0,0,.87-4A6.55,6.55,0,0,0,82.25,9a7,7,0,0,0-3.09-2.5,11.62,11.62,0,0,0-4.65-.88A14.66,14.66,0,0,0,66.6,8.06a2.34,2.34,0,0,0-.87.92,3,3,0,0,0-.23,1.29,3.14,3.14,0,0,0,.6,1.92,1.85,1.85,0,0,0,1.51.8,1.94,1.94,0,0,0,.68-.11,3.83,3.83,0,0,0,.73-.34l.55-.3.72-.36a17,17,0,0,1,2-.87,5.59,5.59,0,0,1,1.91-.31,2.84,2.84,0,0,1,2,.65,2.4,2.4,0,0,1,.7,1.86q0,2.07-2.36,4.54L67,25.65a3.93,3.93,0,0,0-1.21,2.79,2.67,2.67,0,0,0,.75,1.95,2.73,2.73,0,0,0,2,.77h13a3.57,3.57,0,0,0,2.34-.64,2.46,2.46,0,0,0,.77-2,2.35,2.35,0,0,0-.77-2A3.7,3.7,0,0,0,81.59,25.94Zm-2,30.78a5.82,5.82,0,0,0,2.84-2.17,5.94,5.94,0,0,0,1-3.45,6.24,6.24,0,0,0-1.09-3.65A7.11,7.11,0,0,0,79.24,45a11.9,11.9,0,0,0-4.67-.85,14.23,14.23,0,0,0-4.23.64,11.62,11.62,0,0,0-3.63,1.79,2.79,2.79,0,0,0-.86,1,2.76,2.76,0,0,0-.25,1.25,2.91,2.91,0,0,0,.61,1.88,1.84,1.84,0,0,0,1.5.77,2.28,2.28,0,0,0,.89-.16c.26-.11.62-.28,1.08-.52l.75-.36a19.87,19.87,0,0,1,1.94-.86,5.54,5.54,0,0,1,1.88-.32,3.06,3.06,0,0,1,2.18.74A2.63,2.63,0,0,1,77.22,52a2,2,0,0,1-.89,1.82,5.39,5.39,0,0,1-2.86.58H71.89a2.06,2.06,0,0,0-1.68.75,2.92,2.92,0,0,0,0,3.57,2.06,2.06,0,0,0,1.68.75h2.22a5.42,5.42,0,0,1,2.93.61,2.23,2.23,0,0,1,.89,2,2.49,2.49,0,0,1-.87,2.15,5,5,0,0,1-2.88.64,6.61,6.61,0,0,1-2.06-.3,14.82,14.82,0,0,1-2.05-.88l-.45-.19-.34-.16c-.45-.24-.81-.41-1.07-.52a2.29,2.29,0,0,0-.9-.16,1.84,1.84,0,0,0-1.5.77,2.93,2.93,0,0,0-.6,1.87,2.51,2.51,0,0,0,1.1,2.22A11.51,11.51,0,0,0,70,69.36,16.14,16.14,0,0,0,74.5,70a13.5,13.5,0,0,0,5.06-.87,7.56,7.56,0,0,0,3.34-2.49,6.22,6.22,0,0,0,1.18-3.79,6.43,6.43,0,0,0-1.19-3.9A6.06,6.06,0,0,0,79.58,56.72ZM54.13,61.11H39.85V46.83a6.58,6.58,0,0,0-6.68-6.68,6.59,6.59,0,0,0-6.69,6.68V61.11H12.21A6.59,6.59,0,0,0,5.52,67.8a6.63,6.63,0,0,0,1.93,4.81,6.37,6.37,0,0,0,4.76,2H26.48V88.76a6.58,6.58,0,0,0,6.69,6.68A6.41,6.41,0,0,0,38,93.52a6.56,6.56,0,0,0,1.87-4.76V74.59H54.13a6.38,6.38,0,0,0,4.76-2,6.66,6.66,0,0,0,1.92-4.81,6.58,6.58,0,0,0-6.68-6.69Zm41.8-23.84h0a2.67,2.67,0,0,0-2.67-2.67H58.12a2.67,2.67,0,0,0-2.68,2.67h0A2.68,2.68,0,0,0,58.12,40H93.26A2.68,2.68,0,0,0,95.93,37.27Z"/></svg>