<svg id="Layer_1" data-name="Layer 1" xmlns="http://www.w3.org/2000/svg" viewBox="0 0 100 100"><title>l25_3_1</title><path d="M83.53,99.89H16.47A16.47,16.47,0,0,1,0,83.42V16.35A16.46,16.46,0,0,1,16.47-.11H83.53A16.46,16.46,0,0,1,100,16.35V83.42A16.47,16.47,0,0,1,83.53,99.89Zm-.47-77.38h-6l4.24-4.32a14.36,14.36,0,0,0,2.49-3.36,7.46,7.46,0,0,0,.73-3.33,5.47,5.47,0,0,0-.91-3.12A5.72,5.72,0,0,0,81,6.3a9.52,9.52,0,0,0-3.88-.74,11.58,11.58,0,0,0-3.44.54,11.73,11.73,0,0,0-3.15,1.49,2,2,0,0,0-.73.78,2.55,2.55,0,0,0-.2,1.07,2.57,2.57,0,0,0,.51,1.6,1.52,1.52,0,0,0,1.25.67,1.79,1.79,0,0,0,.57-.09,3.5,3.5,0,0,0,.61-.28l.47-.26.59-.29a14.36,14.36,0,0,1,1.69-.73,4.82,4.82,0,0,1,1.59-.26,2.35,2.35,0,0,1,1.66.54,2,2,0,0,1,.58,1.55,5.78,5.78,0,0,1-2,3.79l-6.32,6.59a3.28,3.28,0,0,0-1,2.33,2.18,2.18,0,0,0,2.33,2.27H83.06a3,3,0,0,0,2-.54,2.08,2.08,0,0,0,.64-1.67A2,2,0,0,0,85,23,3.06,3.06,0,0,0,83.06,22.51ZM75,54.66H72.52V40.52a2.59,2.59,0,0,0-.73-1.94,2.66,2.66,0,0,0-1.92-.71,5.12,5.12,0,0,0-2.48.74l-4.77,2.78a2,2,0,0,0-1,1.85,2.49,2.49,0,0,0,.59,1.62,1.79,1.79,0,0,0,1.43.73,2,2,0,0,0,1.05-.3L67,43.89V54.66H64.62a3,3,0,0,0-2,.54A2,2,0,0,0,62,56.81c0,1.47.87,2.21,2.6,2.21H75c1.73,0,2.59-.74,2.59-2.21a2,2,0,0,0-.62-1.61A3,3,0,0,0,75,54.66Zm11.57,4.62a7,7,0,0,0,6-2.77q2.05-2.77,2.06-8t-2.08-8a7.79,7.79,0,0,0-11.91,0c-1.38,1.85-2.06,4.52-2.06,8s.68,6.17,2.06,8A7,7,0,0,0,86.54,59.28Zm0-4.14a2.15,2.15,0,0,1-2.06-1.55,15.12,15.12,0,0,1-.62-5.1,15,15,0,0,1,.62-5.09,2.14,2.14,0,0,1,4.12,0,14.62,14.62,0,0,1,.63,5.07,14.81,14.81,0,0,1-.63,5.1A2.14,2.14,0,0,1,86.54,55.14ZM54.13,60.57H39.85V46.29a6.56,6.56,0,0,0-6.68-6.68,6.58,6.58,0,0,0-6.69,6.68V60.57H12.2a6.58,6.58,0,0,0-6.68,6.68,6.64,6.64,0,0,0,1.93,4.82,6.36,6.36,0,0,0,4.75,2H26.48V88.21a6.59,6.59,0,0,0,6.69,6.69A6.38,6.38,0,0,0,38,93a6.55,6.55,0,0,0,1.87-4.76V74.05H54.13a6.4,6.4,0,0,0,4.76-2,6.67,6.67,0,0,0,1.92-4.82,6.56,6.56,0,0,0-6.68-6.68ZM95,32v-.11a2.18,2.18,0,0,0-2.17-2.18H63.42a2.18,2.18,0,0,0-2.17,2.18V32a2.18,2.18,0,0,0,2.17,2.18H92.85A2.18,2.18,0,0,0,95,32Z"/></svg>