<svg id="Layer_1" data-name="Layer 1" xmlns="http://www.w3.org/2000/svg" viewBox="0 0 100 100"><defs><style>.cls-1{fill:#020202;}</style></defs><title>l25_2_1</title><path class="cls-1" d="M88.75,49.89c3.12,0,5.64,4.83,5.64,10.79V88.89c0,6-2.52,10.8-5.64,10.8H8.64C5.53,99.69,3,94.85,3,88.89V60.68c0-6,2.53-10.79,5.64-10.79C5.53,49.89,3,45.05,3,39.09V10.88C3,4.92,5.53.09,8.64.09H88.75c3.12,0,5.64,4.83,5.64,10.79V39.09C94.39,45.05,91.87,49.89,88.75,49.89ZM51.36,19.42a11.42,11.42,0,0,0-4.49.82V14.66h9.8q3.94,0,3.95-3.18T56.67,8.35H42.6a3.86,3.86,0,0,0-2.86,1,3.94,3.94,0,0,0-1,2.9v12.3a2.51,2.51,0,0,0,.86,2,3.16,3.16,0,0,0,2.14.75,4.34,4.34,0,0,0,2-.5A15.45,15.45,0,0,1,46.39,26a12.5,12.5,0,0,1,2.47-.23,5.13,5.13,0,0,1,3.55,1.14,4,4,0,0,1,1.27,3.18,3.93,3.93,0,0,1-1.23,3.2,5.81,5.81,0,0,1-3.77,1,7.65,7.65,0,0,1-2.52-.41,26,26,0,0,1-2.56-1.09l-.91-.45a14.57,14.57,0,0,0-1.36-.69,3.08,3.08,0,0,0-1.13-.18,2.35,2.35,0,0,0-1.91,1,3.68,3.68,0,0,0-.77,2.38,3.34,3.34,0,0,0,.34,1.57,4,4,0,0,0,1.06,1.25,15.33,15.33,0,0,0,4.66,2.27,19.09,19.09,0,0,0,5.51.81,14.68,14.68,0,0,0,6.49-1.36,10.19,10.19,0,0,0,4.36-3.86,10.7,10.7,0,0,0,1.54-5.76,11,11,0,0,0-1.29-5.38,9.15,9.15,0,0,0-3.59-3.63A10.47,10.47,0,0,0,51.36,19.42ZM75.69,49.89h0A2.66,2.66,0,0,0,73,47.22H22.83a2.66,2.66,0,0,0-2.67,2.67h0a2.66,2.66,0,0,0,2.67,2.66H73A2.66,2.66,0,0,0,75.69,49.89ZM70,71.74a10.39,10.39,0,0,0-5.24-1.3,13.2,13.2,0,0,0-2.75.28l7.23-5H70q3.94,0,4-3.18c0-.06,0-.1,0-.16l.21-.15a1.78,1.78,0,0,0,.44-2.47l-.6-.85a1.77,1.77,0,0,0-2.47-.43l-1.34.94H56a3.85,3.85,0,0,0-2.86,1,3.9,3.9,0,0,0-1,2.9V72L35.88,83.37,41,78.16a21.4,21.4,0,0,0,3.79-5.11A11.45,11.45,0,0,0,45.88,68a8.3,8.3,0,0,0-1.38-4.74,8.85,8.85,0,0,0-3.93-3.18A14.61,14.61,0,0,0,34.67,59a17.91,17.91,0,0,0-5.24.81A18.09,18.09,0,0,0,24.64,62a3,3,0,0,0-1.11,1.18,3.88,3.88,0,0,0-.3,1.64A3.94,3.94,0,0,0,24,67.29a2.32,2.32,0,0,0,1.91,1,2.72,2.72,0,0,0,.86-.14,5,5,0,0,0,.93-.43c.35-.2.59-.32.71-.38l.9-.46a23.45,23.45,0,0,1,2.57-1.11,7.29,7.29,0,0,1,2.43-.39,3.6,3.6,0,0,1,2.52.82,3,3,0,0,1,.88,2.36q0,2.64-3,5.77l-9.63,10a5,5,0,0,0-1.54,3.54,3.21,3.21,0,0,0,1.59,3l-.2.13a1.77,1.77,0,0,0-.43,2.47l.59.85a1.78,1.78,0,0,0,2.47.44l4.87-3.4H43.66a4.58,4.58,0,0,0,3-.82,3.12,3.12,0,0,0,1-2.54,3,3,0,0,0-1-2.48,4.64,4.64,0,0,0-3-.79H41.92l10.75-7.51a2.89,2.89,0,0,0,.29.32,3.2,3.2,0,0,0,2.14.74,4.28,4.28,0,0,0,2-.5A16.26,16.26,0,0,1,59.75,77a12.5,12.5,0,0,1,2.47-.23,5.09,5.09,0,0,1,3.54,1.14A4,4,0,0,1,67,81.06a3.91,3.91,0,0,1-1.22,3.2,5.81,5.81,0,0,1-3.77,1,7.57,7.57,0,0,1-2.52-.41c-.77-.28-1.62-.64-2.56-1.09l-.91-.46a15.15,15.15,0,0,0-1.36-.68,3.13,3.13,0,0,0-1.14-.18,2.34,2.34,0,0,0-1.9,1,3.68,3.68,0,0,0-.77,2.38,3.34,3.34,0,0,0,.34,1.57,4,4,0,0,0,1.06,1.24,14.83,14.83,0,0,0,4.65,2.27,18.83,18.83,0,0,0,5.52.82,14.71,14.71,0,0,0,6.49-1.36,10.26,10.26,0,0,0,4.36-3.86,10.72,10.72,0,0,0,1.54-5.76,11,11,0,0,0-1.29-5.38A9.15,9.15,0,0,0,70,71.74Zm-9.73-6.06h1l-1,.67Z"/></svg>