<svg id="Layer_1" data-name="Layer 1" xmlns="http://www.w3.org/2000/svg" viewBox="0 0 100 100"><title>l25_1_1</title><path d="M91,61.51V92A8,8,0,0,1,83,100H19A8,8,0,0,1,11,92V61.51A8,8,0,0,1,19,53.57H83A8,8,0,0,1,91,61.51ZM35.55,81h-.93V65.8A3.58,3.58,0,0,0,33.49,63a4,4,0,0,0-2.73-1,4.11,4.11,0,0,0-1.87.44A3.83,3.83,0,0,0,27.4,63.7l-12,17.14a4.66,4.66,0,0,0-.93,2.77,3.26,3.26,0,0,0,.88,2.31,3.19,3.19,0,0,0,2.4.92H27.1v1.43a3.77,3.77,0,0,0,1,2.86,3.82,3.82,0,0,0,2.71,1,3.89,3.89,0,0,0,2.73-1,3.71,3.71,0,0,0,1-2.86V86.84h.93q3.64,0,3.65-3T35.55,81ZM22.06,81l5-7.26V81Zm33.18-1.22,4.54-4.49a2.49,2.49,0,0,0,.76-1.81,2.22,2.22,0,0,0-.76-1.72A2.34,2.34,0,0,0,58,71a2.44,2.44,0,0,0-1.77.75l-4.53,4.54-4.54-4.54a2.45,2.45,0,0,0-1.76-.8,2.24,2.24,0,0,0-1.73.76,2.48,2.48,0,0,0-.75,1.81,2.6,2.6,0,0,0,.71,1.76l4.54,4.49-4.54,4.54a2.45,2.45,0,0,0,0,3.53,2.61,2.61,0,0,0,1.77.71,2.41,2.41,0,0,0,1.76-.71l4.54-4.54,4.53,4.54a2.45,2.45,0,0,0,3.53,0A2.4,2.4,0,0,0,60.49,86a2.3,2.3,0,0,0-.71-1.76Zm27-3.15a6.81,6.81,0,0,0,3.34-2.54,7,7,0,0,0,1.2-4,7.29,7.29,0,0,0-1.29-4.28,8.13,8.13,0,0,0-3.65-2.86,14,14,0,0,0-5.48-1,16.68,16.68,0,0,0-5,.76,13.68,13.68,0,0,0-4.26,2.1,3.37,3.37,0,0,0-1,1.13,3.21,3.21,0,0,0-.29,1.47,3.5,3.5,0,0,0,.71,2.21,2.19,2.19,0,0,0,1.77.9,2.69,2.69,0,0,0,1-.19c.3-.13.72-.33,1.26-.61l.88-.42a24.25,24.25,0,0,1,2.29-1,6.36,6.36,0,0,1,2.2-.38,3.58,3.58,0,0,1,2.56.87,3.12,3.12,0,0,1,.93,2.41,2.34,2.34,0,0,1-1,2.14,6.4,6.4,0,0,1-3.36.68H73.22a2.38,2.38,0,0,0-2,.88,3.42,3.42,0,0,0,0,4.2,2.38,2.38,0,0,0,2,.88h2.6a6.39,6.39,0,0,1,3.45.71,2.64,2.64,0,0,1,1,2.35,3,3,0,0,1-1,2.53,5.87,5.87,0,0,1-3.38.75,7.6,7.6,0,0,1-2.42-.36,18.45,18.45,0,0,1-2.41-1l-.53-.24-.4-.18a13.3,13.3,0,0,0-1.26-.61,2.62,2.62,0,0,0-1-.19,2.17,2.17,0,0,0-1.76.9,3.43,3.43,0,0,0-.71,2.21,3.19,3.19,0,0,0,.29,1.44,3.26,3.26,0,0,0,1,1.16A13.58,13.58,0,0,0,71,91.44a18.61,18.61,0,0,0,5.25.74,15.92,15.92,0,0,0,5.94-1,8.93,8.93,0,0,0,3.93-2.92,8,8,0,0,0,0-9A7.14,7.14,0,0,0,82.25,76.59Z"/><path d="M73.82,8.07v30.5a7.93,7.93,0,0,1-7.94,7.94H35.38a7.93,7.93,0,0,1-7.94-7.94V8.07A7.93,7.93,0,0,1,35.38.13h30.5A7.93,7.93,0,0,1,73.82,8.07ZM46.44,31.14H43.49V14.07a3.13,3.13,0,0,0-.88-2.34,3.2,3.2,0,0,0-2.32-.86,6.09,6.09,0,0,0-3,.9l-5.76,3.35a2.44,2.44,0,0,0-1.26,2.23,3,3,0,0,0,.72,2,2.16,2.16,0,0,0,1.73.88A2.47,2.47,0,0,0,34,19.83l2.88-1.69v13H34a3.53,3.53,0,0,0-2.37.65,2.4,2.4,0,0,0-.76,1.94c0,1.78,1,2.66,3.13,2.66H46.44c2.09,0,3.14-.88,3.14-2.66a2.43,2.43,0,0,0-.76-1.94A3.56,3.56,0,0,0,46.44,31.14Zm20.67,0H59.87L65,25.92a16.91,16.91,0,0,0,3-4.05,9,9,0,0,0,.88-4,6.62,6.62,0,0,0-1.1-3.76,7.05,7.05,0,0,0-3.11-2.52A11.56,11.56,0,0,0,60,10.69a14.19,14.19,0,0,0-4.16.65,14,14,0,0,0-3.8,1.8,2.47,2.47,0,0,0-.88.93,3.22,3.22,0,0,0-.23,1.3,3.11,3.11,0,0,0,.61,1.93,1.83,1.83,0,0,0,1.51.81,2.15,2.15,0,0,0,.68-.11,4.25,4.25,0,0,0,.74-.34l.56-.31.72-.36a17.41,17.41,0,0,1,2-.88,5.65,5.65,0,0,1,1.92-.31,2.85,2.85,0,0,1,2,.65,2.41,2.41,0,0,1,.7,1.87c0,1.39-.79,2.92-2.37,4.57l-7.64,8a4,4,0,0,0-1.22,2.81A2.63,2.63,0,0,0,54,36.39H67.11a3.6,3.6,0,0,0,2.35-.64,2.49,2.49,0,0,0,.78-2,2.37,2.37,0,0,0-.78-2A3.66,3.66,0,0,0,67.11,31.14Z"/></svg>