<svg id="Layer_1" data-name="Layer 1" xmlns="http://www.w3.org/2000/svg" viewBox="0 0 100 100"><title>l25_1_1</title><path d="M87.92,61.39v30.5A7.94,7.94,0,0,1,80,99.83H16A7.94,7.94,0,0,1,8,91.89V61.39a7.94,7.94,0,0,1,7.94-8H80A7.94,7.94,0,0,1,87.92,61.39ZM31.26,85.58H22.82l6-6.09a19.55,19.55,0,0,0,3.51-4.73,10.5,10.5,0,0,0,1-4.68A7.75,7.75,0,0,0,32,65.69a8.29,8.29,0,0,0-3.64-2.94,13.4,13.4,0,0,0-5.46-1,16.28,16.28,0,0,0-4.85.76,16.3,16.3,0,0,0-4.43,2.1,2.84,2.84,0,0,0-1,1.09,4.08,4.08,0,0,0,.44,3.76,2.15,2.15,0,0,0,1.77.94,2.63,2.63,0,0,0,.8-.12,5.73,5.73,0,0,0,.86-.4l.65-.36.84-.42a21.09,21.09,0,0,1,2.37-1,7.07,7.07,0,0,1,2.25-.36,3.33,3.33,0,0,1,2.33.76,2.82,2.82,0,0,1,.82,2.19q0,2.43-2.77,5.33l-8.91,9.28a4.61,4.61,0,0,0-1.43,3.28,3.07,3.07,0,0,0,3.28,3.19H31.26A4.18,4.18,0,0,0,34,91a2.89,2.89,0,0,0,.91-2.35A2.8,2.8,0,0,0,34,86.31,4.3,4.3,0,0,0,31.26,85.58Zm21-6,4.54-4.49a2.48,2.48,0,0,0,.75-1.81,2.21,2.21,0,0,0-.75-1.72A2.36,2.36,0,0,0,55,70.84a2.41,2.41,0,0,0-1.76.75l-4.54,4.54-4.53-4.54a2.49,2.49,0,0,0-1.77-.8,2.22,2.22,0,0,0-1.72.76,2.49,2.49,0,0,0-.76,1.81,2.57,2.57,0,0,0,.72,1.76l4.53,4.49-4.53,4.54a2.43,2.43,0,0,0,0,3.53,2.6,2.6,0,0,0,1.76.71,2.44,2.44,0,0,0,1.77-.71l4.53-4.54,4.54,4.54a2.41,2.41,0,0,0,1.76.75,2.49,2.49,0,0,0,2.48-2.52,2.34,2.34,0,0,0-.71-1.76Zm29.48,6H73.26l6-6.09a19.29,19.29,0,0,0,3.51-4.73,10.5,10.5,0,0,0,1-4.68,7.75,7.75,0,0,0-1.28-4.39,8.26,8.26,0,0,0-3.63-2.94,13.47,13.47,0,0,0-5.46-1,17.14,17.14,0,0,0-9.28,2.86,2.7,2.7,0,0,0-1,1.09,3.48,3.48,0,0,0-.28,1.51,3.61,3.61,0,0,0,.72,2.25,2.12,2.12,0,0,0,1.76.94,2.63,2.63,0,0,0,.8-.12,5.73,5.73,0,0,0,.86-.4l.65-.36.84-.42a21.09,21.09,0,0,1,2.37-1,7.07,7.07,0,0,1,2.25-.36,3.32,3.32,0,0,1,2.33.76,2.82,2.82,0,0,1,.82,2.19q0,2.43-2.77,5.33l-8.9,9.28a4.57,4.57,0,0,0-1.43,3.28A3.15,3.15,0,0,0,64,90.81a3.19,3.19,0,0,0,2.39.9H81.7A4.18,4.18,0,0,0,84.45,91a2.86,2.86,0,0,0,.91-2.35,2.77,2.77,0,0,0-.91-2.29A4.3,4.3,0,0,0,81.7,85.58Z"/><path d="M70.8,7.94v30.5a7.94,7.94,0,0,1-7.94,7.94H32.36a7.93,7.93,0,0,1-7.94-7.94V7.94A7.94,7.94,0,0,1,32.36,0h30.5A8,8,0,0,1,70.8,7.94ZM55.64,27.39h-.93V12.22a3.58,3.58,0,0,0-1.13-2.81,4,4,0,0,0-2.73-1A4.24,4.24,0,0,0,49,8.84a3.91,3.91,0,0,0-1.49,1.28l-12,17.14A4.68,4.68,0,0,0,34.55,30a3.23,3.23,0,0,0,.88,2.31,3.16,3.16,0,0,0,2.4.93h9.36v1.42a3.76,3.76,0,0,0,1,2.86,3.83,3.83,0,0,0,2.71,1,3.89,3.89,0,0,0,2.73-1,3.69,3.69,0,0,0,1.05-2.86V33.27h.93q3.64,0,3.65-3T55.64,27.39Zm-13.49,0,5-7.27v7.27Z"/></svg>