<svg id="Layer_1" data-name="Layer 1" xmlns="http://www.w3.org/2000/svg" viewBox="0 0 100 100"><title>l25_1_1</title><path d="M88.65,61.52V92A8,8,0,0,1,80.71,100h-64A7.94,7.94,0,0,1,8.74,92V61.52a7.94,7.94,0,0,1,7.94-8h64A8,8,0,0,1,88.65,61.52Zm-56,.71H16.22a4.11,4.11,0,0,0-2.77.78,2.93,2.93,0,0,0-.88,2.33,2.85,2.85,0,0,0,.86,2.27,4.2,4.2,0,0,0,2.79.75h10.5L15.93,86.8a3.88,3.88,0,0,0-.59,2,3.09,3.09,0,0,0,1.13,2.41,3.85,3.85,0,0,0,2.61,1,3.52,3.52,0,0,0,1.78-.49,3.85,3.85,0,0,0,1.45-1.49L35,68.19a5.35,5.35,0,0,0,.79-2.77A3.28,3.28,0,0,0,35,63.13,3,3,0,0,0,32.68,62.23ZM52.93,79.74l4.53-4.49a2.45,2.45,0,0,0,.76-1.81,2.18,2.18,0,0,0-.76-1.72A2.32,2.32,0,0,0,55.7,71a2.45,2.45,0,0,0-1.77.75L49.4,76.26l-4.54-4.54a2.45,2.45,0,0,0-1.76-.8,2.2,2.2,0,0,0-1.72.76,2.45,2.45,0,0,0-.76,1.81,2.6,2.6,0,0,0,.71,1.76l4.54,4.49-4.54,4.54a2.45,2.45,0,0,0,0,3.53,2.63,2.63,0,0,0,1.77.71,2.4,2.4,0,0,0,1.76-.71l4.54-4.54,4.53,4.54a2.45,2.45,0,0,0,1.77.75A2.51,2.51,0,0,0,58.18,86a2.31,2.31,0,0,0-.72-1.76Zm29.48,6H74l6-6.09a19.82,19.82,0,0,0,3.51-4.73,10.64,10.64,0,0,0,1-4.68,7.75,7.75,0,0,0-1.28-4.39,8.29,8.29,0,0,0-3.64-2.94,13.57,13.57,0,0,0-5.46-1,17.14,17.14,0,0,0-9.28,2.86,2.77,2.77,0,0,0-1,1.09,4.08,4.08,0,0,0,.44,3.76A2.15,2.15,0,0,0,66,70.5a2.67,2.67,0,0,0,.8-.12,5.73,5.73,0,0,0,.86-.4l.65-.36.84-.42a19.62,19.62,0,0,1,2.37-1,7.07,7.07,0,0,1,2.25-.35,3.33,3.33,0,0,1,2.33.75,2.86,2.86,0,0,1,.82,2.19c0,1.62-.93,3.4-2.77,5.33l-8.91,9.28a4.61,4.61,0,0,0-1.43,3.28,3.07,3.07,0,0,0,3.28,3.19H82.41a4.18,4.18,0,0,0,2.75-.76,2.88,2.88,0,0,0,.9-2.35,2.79,2.79,0,0,0-.9-2.29A4.3,4.3,0,0,0,82.41,85.71Z"/><path d="M71.53,8.07v30.5a7.94,7.94,0,0,1-7.94,7.94H33.08a7.94,7.94,0,0,1-7.94-7.94V8.07A8,8,0,0,1,33.08.13H63.59A8,8,0,0,1,71.53,8.07ZM45.17,31.14h-3V14.07a3.13,3.13,0,0,0-.88-2.34A3.2,3.2,0,0,0,39,10.87a6.09,6.09,0,0,0-3,.9l-5.76,3.35A2.44,2.44,0,0,0,29,17.35a3,3,0,0,0,.72,2,2.16,2.16,0,0,0,1.73.88,2.47,2.47,0,0,0,1.26-.36l2.88-1.69v13H32.67a3.53,3.53,0,0,0-2.37.65,2.4,2.4,0,0,0-.76,1.94c0,1.78,1.05,2.66,3.13,2.66h12.5c2.08,0,3.13-.88,3.13-2.66a2.4,2.4,0,0,0-.76-1.94A3.53,3.53,0,0,0,45.17,31.14Zm21.7-4.07h-.79v-13a3.06,3.06,0,0,0-1-2.41,3.43,3.43,0,0,0-2.34-.86,3.49,3.49,0,0,0-1.6.38,3.28,3.28,0,0,0-1.28,1.09L49.59,27a4.11,4.11,0,0,0-.79,2.38,2.74,2.74,0,0,0,.76,2,2.69,2.69,0,0,0,2,.79h8v1.22a3.19,3.19,0,0,0,.88,2.45,3.26,3.26,0,0,0,2.32.83,3.33,3.33,0,0,0,2.34-.83,3.16,3.16,0,0,0,.9-2.45V32.11h.79c2.09,0,3.14-.85,3.14-2.56S69,27.07,66.87,27.07Zm-11.55,0,4.32-6.23v6.23Z"/></svg>