<svg id="Layer_1" data-name="Layer 1" xmlns="http://www.w3.org/2000/svg" viewBox="0 0 100 100"><defs><style>.cls-1{fill:#020202;}</style></defs><title>l25_2_1</title><path class="cls-1" d="M88.75,49.89c3.12,0,5.64,4.83,5.64,10.79V88.89c0,6-2.52,10.8-5.64,10.8H8.64C5.53,99.69,3,94.85,3,88.89V60.68c0-6,2.53-10.79,5.64-10.79C5.53,49.89,3,45.05,3,39.09V10.88C3,4.92,5.53.09,8.64.09H88.75c3.12,0,5.64,4.83,5.64,10.79V39.09C94.39,45.05,91.87,49.89,88.75,49.89ZM58.9,28.59h-1V12.21a3.84,3.84,0,0,0-1.23-3,4.26,4.26,0,0,0-3-1.09,4.67,4.67,0,0,0-2,.47,4.15,4.15,0,0,0-1.61,1.39l-13,18.52a5,5,0,0,0-1,3,3.51,3.51,0,0,0,1,2.5,3.4,3.4,0,0,0,2.59,1H49.77v1.54a4,4,0,0,0,1.12,3.09,4.11,4.11,0,0,0,2.92,1,4.2,4.2,0,0,0,2.95-1,4,4,0,0,0,1.14-3.09V35h1c2.63,0,4-1.08,4-3.22S61.53,28.59,58.9,28.59Zm-14.57,0,5.44-7.85v7.85Zm31.36,21.3h0A2.66,2.66,0,0,0,73,47.22H22.83a2.66,2.66,0,0,0-2.67,2.67h0a2.66,2.66,0,0,0,2.67,2.66H73A2.66,2.66,0,0,0,75.69,49.89Zm-1.51,12.3a1.78,1.78,0,0,0,.44-2.47l-.6-.85a1.77,1.77,0,0,0-2.47-.43l-3,2.06A11.66,11.66,0,0,0,62.5,59q-6,0-9.08,4.22-2.72,3.65-3.07,10.08L35.88,83.37,41,78.16a21.13,21.13,0,0,0,3.79-5.11A11.45,11.45,0,0,0,45.88,68a8.3,8.3,0,0,0-1.38-4.74,8.85,8.85,0,0,0-3.93-3.18A14.61,14.61,0,0,0,34.67,59a17.91,17.91,0,0,0-5.24.81A18.09,18.09,0,0,0,24.64,62a3,3,0,0,0-1.11,1.18,3.88,3.88,0,0,0-.3,1.64A3.94,3.94,0,0,0,24,67.29a2.32,2.32,0,0,0,1.91,1,2.72,2.72,0,0,0,.86-.14,4.68,4.68,0,0,0,.93-.43c.35-.2.59-.32.71-.38l.91-.46a22.58,22.58,0,0,1,2.56-1.11,7.29,7.29,0,0,1,2.43-.39,3.6,3.6,0,0,1,2.52.82,3,3,0,0,1,.88,2.36q0,2.64-3,5.77l-9.63,10a5,5,0,0,0-1.54,3.54,3.21,3.21,0,0,0,1.59,3l-.2.13a1.77,1.77,0,0,0-.43,2.47l.59.85a1.78,1.78,0,0,0,2.47.44l4.87-3.4H43.66a4.58,4.58,0,0,0,3-.82,3.12,3.12,0,0,0,1-2.54,3,3,0,0,0-1-2.48,4.64,4.64,0,0,0-3-.79H41.92l8.53-6a17.37,17.37,0,0,0,3,8.78q3.13,4.23,9.08,4.23t9.07-4.23q3.14-4.22,3.14-12.21c0-5-.94-8.8-2.77-11.58Zm-12.57,3.2L60,66.55A2.91,2.91,0,0,1,61.61,65.39Zm5,10c0,3.61-.32,6.19-1,7.77a3.26,3.26,0,0,1-6.27,0c-.63-1.58-1-4.16-1-7.77,0-.77,0-1.48.05-2.16l7.32-5.12A24.72,24.72,0,0,1,66.58,75.34Z"/></svg>