<svg id="Layer_1" data-name="Layer 1" xmlns="http://www.w3.org/2000/svg" viewBox="0 0 100 100"><title>l25_3_1</title><path d="M83.53,100H16.47A16.47,16.47,0,0,1,0,83.53V16.47A16.47,16.47,0,0,1,16.47,0H83.53A16.47,16.47,0,0,1,100,16.47V83.53A16.47,16.47,0,0,1,83.53,100Zm-.47-77.37h-6L81.3,18.3a14,14,0,0,0,2.49-3.36,7.45,7.45,0,0,0,.73-3.32,5.42,5.42,0,0,0-.91-3.12A5.74,5.74,0,0,0,81,6.41a9.53,9.53,0,0,0-3.88-.73,11.58,11.58,0,0,0-3.44.54,11.16,11.16,0,0,0-3.15,1.49,2,2,0,0,0-.73.77,2.57,2.57,0,0,0-.2,1.08,2.52,2.52,0,0,0,.51,1.59,1.53,1.53,0,0,0,1.25.68,1.79,1.79,0,0,0,.57-.09,3.62,3.62,0,0,0,.61-.29L73,11.2l.59-.3a14.36,14.36,0,0,1,1.69-.73,4.82,4.82,0,0,1,1.59-.25,2.4,2.4,0,0,1,1.66.53A2,2,0,0,1,79.15,12a5.76,5.76,0,0,1-2,3.79l-6.32,6.6a3.26,3.26,0,0,0-1,2.33,2.22,2.22,0,0,0,.63,1.62,2.25,2.25,0,0,0,1.7.64H83.06a3,3,0,0,0,2-.53,2.09,2.09,0,0,0,.64-1.67A2,2,0,0,0,85,23.15,3.06,3.06,0,0,0,83.06,22.63ZM75,54.77H72.52V40.64a2.56,2.56,0,0,0-.73-1.94A2.63,2.63,0,0,0,69.87,38a5,5,0,0,0-2.48.75L62.62,41.5a2,2,0,0,0-1,1.85A2.5,2.5,0,0,0,62.17,45a1.82,1.82,0,0,0,1.43.73,2,2,0,0,0,1.05-.3L67,44V54.77H64.62a3,3,0,0,0-2,.54A2,2,0,0,0,62,56.92c0,1.48.87,2.21,2.6,2.21H75c1.73,0,2.59-.73,2.59-2.21a2,2,0,0,0-.62-1.61A3,3,0,0,0,75,54.77ZM86.54,59.4a7,7,0,0,0,6-2.78q2.05-2.77,2.06-8t-2.08-8a7.77,7.77,0,0,0-11.91,0c-1.38,1.85-2.06,4.51-2.06,8s.68,6.17,2.06,8A7,7,0,0,0,86.54,59.4Zm0-4.15a2.14,2.14,0,0,1-2.06-1.55,15,15,0,0,1-.62-5.1,14.87,14.87,0,0,1,.62-5.08,2.15,2.15,0,0,1,4.12,0,14.62,14.62,0,0,1,.63,5.07,14.74,14.74,0,0,1-.63,5.1A2.13,2.13,0,0,1,86.54,55.25ZM54.13,60.68H39.85V46.4a6.58,6.58,0,0,0-6.68-6.68,6.59,6.59,0,0,0-6.69,6.68V60.68H12.2a6.59,6.59,0,0,0-6.68,6.69,6.63,6.63,0,0,0,1.93,4.81,6.36,6.36,0,0,0,4.75,2H26.48V88.33A6.58,6.58,0,0,0,33.17,95,6.41,6.41,0,0,0,38,93.09a6.56,6.56,0,0,0,1.87-4.76V74.16H54.13a6.4,6.4,0,0,0,4.76-2,6.66,6.66,0,0,0,1.92-4.81,6.58,6.58,0,0,0-6.68-6.69ZM95,32.14V32a2.17,2.17,0,0,0-2.17-2.17H63.42A2.17,2.17,0,0,0,61.25,32v.12a2.17,2.17,0,0,0,2.17,2.17H92.85A2.17,2.17,0,0,0,95,32.14Z"/></svg>