<svg id="Layer_1" data-name="Layer 1" xmlns="http://www.w3.org/2000/svg" viewBox="0 0 100 100"><title>l25_1_1</title><path d="M88.51,61.47V92a7.94,7.94,0,0,1-7.94,7.94h-64A7.94,7.94,0,0,1,8.59,92V61.47a8,8,0,0,1,7.94-7.94h64A8,8,0,0,1,88.51,61.47ZM29.41,76.55A6.81,6.81,0,0,0,32.75,74,7,7,0,0,0,34,70a7.36,7.36,0,0,0-1.28-4.29A8.27,8.27,0,0,0,29,62.82a13.77,13.77,0,0,0-5.48-1,17,17,0,0,0-5,.75,14.24,14.24,0,0,0-4.26,2.1,3.49,3.49,0,0,0-1,1.14A3.35,3.35,0,0,0,13,67.27a3.45,3.45,0,0,0,.71,2.2,2.17,2.17,0,0,0,1.77.91,2.89,2.89,0,0,0,1-.19c.3-.13.72-.33,1.26-.61l.88-.42a21.91,21.91,0,0,1,2.29-1,6.36,6.36,0,0,1,2.2-.38,3.62,3.62,0,0,1,2.56.86,3.14,3.14,0,0,1,.93,2.42,2.35,2.35,0,0,1-1.05,2.14,6.41,6.41,0,0,1-3.36.67H20.38a2.41,2.41,0,0,0-2,.88,3.22,3.22,0,0,0-.72,2.1,3.19,3.19,0,0,0,.72,2.1,2.38,2.38,0,0,0,2,.89H23a6.3,6.3,0,0,1,3.45.71,2.64,2.64,0,0,1,1.05,2.35,2.9,2.9,0,0,1-1,2.52,5.78,5.78,0,0,1-3.38.76,7.6,7.6,0,0,1-2.42-.36,18.64,18.64,0,0,1-2.41-1l-.53-.23-.4-.19c-.53-.28-.95-.48-1.26-.61A2.81,2.81,0,0,0,15,83.56a2.18,2.18,0,0,0-1.76.91,3.42,3.42,0,0,0-.71,2.2,3.24,3.24,0,0,0,.29,1.45,3.35,3.35,0,0,0,1,1.16A13.58,13.58,0,0,0,18.2,91.4a18.65,18.65,0,0,0,5.25.73,15.69,15.69,0,0,0,5.94-1,8.85,8.85,0,0,0,3.93-2.92,7.34,7.34,0,0,0,1.38-4.45,7.51,7.51,0,0,0-1.4-4.58A7.19,7.19,0,0,0,29.41,76.55ZM52.8,79.7l4.54-4.49a2.5,2.5,0,0,0,.76-1.81,2.22,2.22,0,0,0-.76-1.72,2.31,2.31,0,0,0-1.76-.76,2.41,2.41,0,0,0-1.77.76l-4.53,4.53-4.54-4.53a2.45,2.45,0,0,0-1.76-.8,2.2,2.2,0,0,0-1.73.76,2.45,2.45,0,0,0-.75,1.8,2.61,2.61,0,0,0,.71,1.77l4.54,4.49-4.54,4.54a2.44,2.44,0,0,0,0,3.52,2.57,2.57,0,0,0,1.77.72,2.38,2.38,0,0,0,1.76-.72l4.54-4.53,4.53,4.53a2.43,2.43,0,0,0,3.53,0A2.36,2.36,0,0,0,58.05,86a2.27,2.27,0,0,0-.71-1.76Zm27-3.15A6.81,6.81,0,0,0,83.15,74,7,7,0,0,0,84.35,70a7.36,7.36,0,0,0-1.28-4.29,8.27,8.27,0,0,0-3.66-2.85,13.77,13.77,0,0,0-5.48-1,17,17,0,0,0-5,.75,14.24,14.24,0,0,0-4.26,2.1,3.49,3.49,0,0,0-1,1.14,3.35,3.35,0,0,0-.29,1.47,3.45,3.45,0,0,0,.71,2.2,2.17,2.17,0,0,0,1.77.91,2.89,2.89,0,0,0,1-.19c.3-.13.72-.33,1.26-.61l.88-.42a21.91,21.91,0,0,1,2.29-1,6.36,6.36,0,0,1,2.2-.38,3.62,3.62,0,0,1,2.56.86A3.14,3.14,0,0,1,77,71.05,2.35,2.35,0,0,1,76,73.19a6.41,6.41,0,0,1-3.36.67H70.78a2.41,2.41,0,0,0-2,.88,3.22,3.22,0,0,0-.72,2.1,3.19,3.19,0,0,0,.72,2.1,2.38,2.38,0,0,0,2,.89h2.6a6.3,6.3,0,0,1,3.45.71,2.64,2.64,0,0,1,1,2.35,2.9,2.9,0,0,1-1,2.52,5.78,5.78,0,0,1-3.38.76,7.6,7.6,0,0,1-2.42-.36,18.64,18.64,0,0,1-2.41-1l-.53-.23-.4-.19c-.53-.28-.95-.48-1.26-.61a2.81,2.81,0,0,0-1-.19,2.18,2.18,0,0,0-1.76.91,3.42,3.42,0,0,0-.71,2.2,3.24,3.24,0,0,0,.29,1.45,3.35,3.35,0,0,0,1,1.16A13.58,13.58,0,0,0,68.6,91.4a18.65,18.65,0,0,0,5.25.73,15.72,15.72,0,0,0,5.94-1,8.85,8.85,0,0,0,3.93-2.92,7.34,7.34,0,0,0,1.38-4.45,7.51,7.51,0,0,0-1.4-4.58A7.19,7.19,0,0,0,79.81,76.55Z"/><path d="M71.38,8v30.5a7.94,7.94,0,0,1-7.94,7.94H32.94A8,8,0,0,1,25,38.53V8A7.94,7.94,0,0,1,32.94.09h30.5A7.93,7.93,0,0,1,71.38,8Zm-24.24.33a10.79,10.79,0,0,0-5.33,1.31,9.25,9.25,0,0,0-3.68,3.63,10.49,10.49,0,0,0-1.32,5.27,10.57,10.57,0,0,0,1.15,5A8.71,8.71,0,0,0,41.13,27a8.48,8.48,0,0,0,4.54,1.24,8.06,8.06,0,0,0,3.55-.78,6.59,6.59,0,0,0,2.58-2.12,11.21,11.21,0,0,1-1.57,5.48,4,4,0,0,1-3.47,1.95,5.71,5.71,0,0,1-1.93-.33,23.14,23.14,0,0,1-2.31-1L41.6,31c-.54-.28-1-.48-1.26-.61a2.69,2.69,0,0,0-1.05-.19,2.24,2.24,0,0,0-1.79.9,3.4,3.4,0,0,0-.73,2.21,3.08,3.08,0,0,0,.31,1.47,3.57,3.57,0,0,0,1,1.13A13.24,13.24,0,0,0,42.33,38a16.12,16.12,0,0,0,4.81.76,11.37,11.37,0,0,0,6.53-1.89A12.23,12.23,0,0,0,58,31.44a20.39,20.39,0,0,0,1.53-8.21q0-7.14-3.23-11T47.14,8.36Zm.46,13.9A3.29,3.29,0,0,1,45,21.19,4.24,4.24,0,0,1,44,18.27a4.18,4.18,0,0,1,1-2.89,3.29,3.29,0,0,1,2.6-1.1,3.37,3.37,0,0,1,2.61,1.12,4.11,4.11,0,0,1,1,2.87,4.14,4.14,0,0,1-1,2.9A3.37,3.37,0,0,1,47.6,22.26Z"/></svg>