<svg id="Layer_1" data-name="Layer 1" xmlns="http://www.w3.org/2000/svg" viewBox="0 0 100 100"><defs><style>.cls-1{fill:#020202;}</style></defs><title>l25_2_1</title><path class="cls-1" d="M88.75,49.89c3.12,0,5.64,4.83,5.64,10.79V88.89c0,6-2.52,10.8-5.64,10.8H8.64C5.53,99.69,3,94.85,3,88.89V60.68c0-6,2.53-10.79,5.64-10.79C5.53,49.89,3,45.05,3,39.09V10.88C3,4.92,5.53.09,8.64.09H88.75c3.12,0,5.64,4.83,5.64,10.79V39.09C94.39,45.05,91.87,49.89,88.75,49.89ZM58.9,28.59h-1V12.21a3.84,3.84,0,0,0-1.23-3,4.27,4.27,0,0,0-3-1.09,4.67,4.67,0,0,0-2,.47,4.15,4.15,0,0,0-1.61,1.39l-13,18.52a5,5,0,0,0-1,3,3.51,3.51,0,0,0,1,2.5,3.4,3.4,0,0,0,2.59,1H49.77v1.54a4.05,4.05,0,0,0,1.11,3.09,4.15,4.15,0,0,0,2.93,1,4.2,4.2,0,0,0,2.95-1,4,4,0,0,0,1.14-3.09V35h1c2.63,0,3.94-1.08,3.94-3.22S61.53,28.59,58.9,28.59Zm-14.57,0,5.44-7.85v7.85Zm31.36,21.3h0A2.66,2.66,0,0,0,73,47.22H22.83a2.66,2.66,0,0,0-2.67,2.67h0a2.66,2.66,0,0,0,2.67,2.66H73A2.66,2.66,0,0,0,75.69,49.89Zm-1.07,9.83-.6-.85a1.77,1.77,0,0,0-2.47-.43L60.48,66.17a7.37,7.37,0,0,0-3-4.87c-2.11-1.56-5-2.34-8.61-2.34s-6.46.78-8.57,2.34a7.47,7.47,0,0,0-3.18,6.37,7.71,7.71,0,0,0,1.27,4.43A7.5,7.5,0,0,0,42,74.89a7.57,7.57,0,0,0-4.27,2.7,8,8,0,0,0-1.49,5c0,.19,0,.36,0,.54L24.94,91a1.77,1.77,0,0,0-.43,2.47l.59.85a1.78,1.78,0,0,0,2.47.44l10.27-7.18a8.29,8.29,0,0,0,1.78,1.71q3.38,2.43,9.23,2.43t9.24-2.43a7.81,7.81,0,0,0,3.38-6.74A8,8,0,0,0,60,77.68,7.84,7.84,0,0,0,55.92,75l.49-.34a6.69,6.69,0,0,0,2.24-1.56L74.18,62.19A1.78,1.78,0,0,0,74.62,59.72ZM45.81,66.06a4.85,4.85,0,0,1,3-.79,4.86,4.86,0,0,1,3,.79,3.11,3.11,0,0,1,1,2.57,3.14,3.14,0,0,1-1,2.58,4.73,4.73,0,0,1-3,.82,4.71,4.71,0,0,1-3-.82,3.15,3.15,0,0,1-1-2.58A3.11,3.11,0,0,1,45.81,66.06Zm8,15.82q0,3.54-4.95,3.54c-2.61,0-4.17-.75-4.71-2.23l6.67-4.66C52.8,78.94,53.8,80.05,53.8,81.88Z"/></svg>