<svg id="Layer_1" data-name="Layer 1" xmlns="http://www.w3.org/2000/svg" viewBox="0 0 100 100"><defs><style>.cls-1{fill:#020202;}</style></defs><title>l25_2_1</title><path class="cls-1" d="M88.75,49.89c3.12,0,5.64,4.83,5.64,10.79V88.89c0,6-2.52,10.8-5.64,10.8H8.64C5.53,99.69,3,94.85,3,88.89V60.68c0-6,2.53-10.79,5.64-10.79C5.53,49.89,3,45.05,3,39.09V10.88C3,4.92,5.53.09,8.64.09H88.75c3.12,0,5.64,4.83,5.64,10.79V39.09C94.39,45.05,91.87,49.89,88.75,49.89ZM57.56,33.72H48.43l6.45-6.58A21.4,21.4,0,0,0,58.67,22,11.42,11.42,0,0,0,59.78,17a8.35,8.35,0,0,0-1.38-4.74,8.85,8.85,0,0,0-3.93-3.18,14.61,14.61,0,0,0-5.9-1.11,18.52,18.52,0,0,0-10,3.09,2.86,2.86,0,0,0-1.11,1.18,3.83,3.83,0,0,0-.3,1.63,3.94,3.94,0,0,0,.77,2.43,2.32,2.32,0,0,0,1.91,1,2.46,2.46,0,0,0,.86-.14,5.25,5.25,0,0,0,.93-.43l.71-.38.9-.46a23.45,23.45,0,0,1,2.57-1.11,7.29,7.29,0,0,1,2.43-.38,3.6,3.6,0,0,1,2.52.81,3.07,3.07,0,0,1,.88,2.36q0,2.64-3,5.77L39,33.36a5,5,0,0,0-1.54,3.54,3.4,3.4,0,0,0,.95,2.47,3.47,3.47,0,0,0,2.59,1H57.56a4.52,4.52,0,0,0,3-.82,3.12,3.12,0,0,0,1-2.54,3,3,0,0,0-1-2.47A4.64,4.64,0,0,0,57.56,33.72ZM75.69,49.89h0A2.66,2.66,0,0,0,73,47.22H22.83a2.66,2.66,0,0,0-2.67,2.67h0a2.66,2.66,0,0,0,2.67,2.66H73A2.66,2.66,0,0,0,75.69,49.89Zm-1.07,9.83-.6-.85a1.77,1.77,0,0,0-2.47-.43L61.1,65.74a4.16,4.16,0,0,0,.1-.88,3.28,3.28,0,0,0-.34-1.59A4.15,4.15,0,0,0,59.75,62a14.75,14.75,0,0,0-4.56-2.27A17.8,17.8,0,0,0,50,59a12.31,12.31,0,0,0-7.06,2,13.21,13.21,0,0,0-4.67,5.83,22,22,0,0,0-1.66,8.88,24.87,24.87,0,0,0,.81,6.59L24.94,91a1.77,1.77,0,0,0-.43,2.47l.59.85a1.78,1.78,0,0,0,2.47.44l11.75-8.21c.24.36.5.71.77,1q3.49,4.17,9.9,4.18a11.65,11.65,0,0,0,5.76-1.41,10.16,10.16,0,0,0,4-3.93,12.12,12.12,0,0,0,.18-11.07,9.86,9.86,0,0,0-1.51-2.15l15.78-11A1.78,1.78,0,0,0,74.62,59.72Zm-23,10.59a8.78,8.78,0,0,0-3.84.84A7.25,7.25,0,0,0,45,73.44a12.13,12.13,0,0,1,1.7-5.93A4.38,4.38,0,0,1,50.4,65.4a5.94,5.94,0,0,1,2.09.37A26.25,26.25,0,0,1,55,66.86l1,.5c.58.3,1,.52,1.36.65a2.15,2.15,0,0,0,.36.11l-3.59,2.51A10,10,0,0,0,51.58,70.31Zm.75,7.6a5.32,5.32,0,0,1,0,6.29,3.91,3.91,0,0,1-5.63,0,4.1,4.1,0,0,1-1-2.06l6.36-4.45A3.15,3.15,0,0,1,52.33,77.91Z"/></svg>