<svg id="Layer_1" data-name="Layer 1" xmlns="http://www.w3.org/2000/svg" viewBox="0 0 100 100"><title>l25_3_1</title><path d="M83.23,99.89H16.17A16.47,16.47,0,0,1-.3,83.42V16.35A16.46,16.46,0,0,1,16.17-.11H83.23A16.46,16.46,0,0,1,99.7,16.35V83.42A16.47,16.47,0,0,1,83.23,99.89Zm.41-80.75H83V8.37a2.53,2.53,0,0,0-.81-2,2.79,2.79,0,0,0-1.94-.72A3,3,0,0,0,78.92,6a2.67,2.67,0,0,0-1.06.91L69.32,19.05a3.32,3.32,0,0,0-.65,2A2.2,2.2,0,0,0,71,23.32h6.66v1a2.64,2.64,0,0,0,.73,2,2.69,2.69,0,0,0,1.92.69,2.74,2.74,0,0,0,1.94-.69,2.61,2.61,0,0,0,.75-2v-1h.65c1.74,0,2.6-.71,2.6-2.12S85.38,19.14,83.64,19.14Zm-9.57,0L77.65,14v5.16Zm.69,32.15H74.1V40.52a2.54,2.54,0,0,0-.8-2,2.85,2.85,0,0,0-1.94-.71,3,3,0,0,0-1.33.31A2.74,2.74,0,0,0,69,39L60.44,51.2a3.39,3.39,0,0,0-.65,2,2.31,2.31,0,0,0,.62,1.64,2.24,2.24,0,0,0,1.7.66h6.65v1a2.46,2.46,0,0,0,2.66,2.71,2.74,2.74,0,0,0,1.94-.68,2.61,2.61,0,0,0,.74-2v-1h.66c1.73,0,2.6-.71,2.6-2.12S76.49,51.29,74.76,51.29Zm-9.57,0,3.57-5.16v5.16Zm21.06,8a7,7,0,0,0,6-2.77q2.06-2.77,2.06-8t-2.07-8a7.8,7.8,0,0,0-11.92,0q-2.06,2.77-2.06,8t2.06,8A7,7,0,0,0,86.25,59.28Zm0-4.14a2.13,2.13,0,0,1-2.06-1.55,14.81,14.81,0,0,1-.63-5.1,14.67,14.67,0,0,1,.63-5.09,2.14,2.14,0,0,1,4.11,0,14.62,14.62,0,0,1,.63,5.07,14.81,14.81,0,0,1-.63,5.1A2.13,2.13,0,0,1,86.25,55.14ZM53.83,60.57H39.55V46.29a6.58,6.58,0,0,0-6.68-6.69,6.59,6.59,0,0,0-6.69,6.69V60.57H11.91a6.58,6.58,0,0,0-6.69,6.68,6.64,6.64,0,0,0,1.93,4.82,6.37,6.37,0,0,0,4.76,2H26.18V88.21a6.59,6.59,0,0,0,6.69,6.69A6.38,6.38,0,0,0,37.68,93a6.55,6.55,0,0,0,1.87-4.76V74.05H53.83a6.38,6.38,0,0,0,4.76-2,6.67,6.67,0,0,0,1.92-4.82,6.56,6.56,0,0,0-6.68-6.68ZM94.73,32v-.11a2.19,2.19,0,0,0-2.18-2.18H63.12A2.18,2.18,0,0,0,61,31.91V32a2.18,2.18,0,0,0,2.17,2.18H92.55A2.19,2.19,0,0,0,94.73,32Z"/></svg>