<svg id="Layer_1" data-name="Layer 1" xmlns="http://www.w3.org/2000/svg" viewBox="0 0 100 100"><defs><style>.cls-1{fill:#020202;}</style></defs><title>l25_2_1</title><path class="cls-1" d="M88.75,49.89c3.12,0,5.64,4.83,5.64,10.79V88.89c0,6-2.52,10.8-5.64,10.8H8.64C5.53,99.69,3,94.85,3,88.89V60.68c0-6,2.53-10.79,5.64-10.79C5.53,49.89,3,45.05,3,39.09V10.88C3,4.92,5.53.09,8.64.09H88.75c3.12,0,5.64,4.83,5.64,10.79V39.09C94.39,45.05,91.87,49.89,88.75,49.89Zm-33.85-26a7.32,7.32,0,0,0,3.61-2.74,7.58,7.58,0,0,0,1.29-4.38,7.93,7.93,0,0,0-1.38-4.63,8.91,8.91,0,0,0-4-3.09,15,15,0,0,0-5.92-1.09,18,18,0,0,0-5.38.82A14.93,14.93,0,0,0,38.56,11a3.68,3.68,0,0,0-1.09,1.22,3.6,3.6,0,0,0-.32,1.59,3.68,3.68,0,0,0,.78,2.38,2.34,2.34,0,0,0,1.9,1A3.13,3.13,0,0,0,41,17c.33-.14.78-.36,1.36-.66l1-.46a26.73,26.73,0,0,1,2.48-1.09,6.87,6.87,0,0,1,2.38-.4,3.92,3.92,0,0,1,2.77.93,3.41,3.41,0,0,1,1,2.61,2.53,2.53,0,0,1-1.14,2.31,6.88,6.88,0,0,1-3.63.73h-2a2.6,2.6,0,0,0-2.13,1,3.73,3.73,0,0,0,0,4.54,2.58,2.58,0,0,0,2.13.95H48a6.88,6.88,0,0,1,3.72.77,2.86,2.86,0,0,1,1.13,2.55,3.15,3.15,0,0,1-1.11,2.72,6.25,6.25,0,0,1-3.65.82,8.13,8.13,0,0,1-2.61-.39,21.51,21.51,0,0,1-2.61-1.11l-.57-.25-.43-.2a14.11,14.11,0,0,0-1.36-.66,2.93,2.93,0,0,0-1.14-.21,2.34,2.34,0,0,0-1.9,1,3.68,3.68,0,0,0-.77,2.38A3.61,3.61,0,0,0,37,36.38a3.66,3.66,0,0,0,1.09,1.25,14.82,14.82,0,0,0,4.72,2.29,20.19,20.19,0,0,0,5.68.79,17.05,17.05,0,0,0,6.42-1.11,9.48,9.48,0,0,0,4.24-3.15,7.94,7.94,0,0,0,1.5-4.82,8,8,0,0,0-1.52-4.94A7.74,7.74,0,0,0,54.9,23.87Zm20.79,26h0A2.66,2.66,0,0,0,73,47.22H22.83a2.66,2.66,0,0,0-2.67,2.67h0a2.66,2.66,0,0,0,2.67,2.66H73A2.66,2.66,0,0,0,75.69,49.89ZM69.94,71.74a10.42,10.42,0,0,0-5.24-1.3,12.74,12.74,0,0,0-2.71.28l7.21-5H70Q74,65.68,74,62.5s0-.09,0-.14l.23-.17a1.78,1.78,0,0,0,.44-2.47l-.6-.85a1.77,1.77,0,0,0-2.47-.43l-1.34.94H55.94a3.85,3.85,0,0,0-2.86,1,3.9,3.9,0,0,0-1,2.9v8.78L41.14,79.69V63.22A4,4,0,0,0,40,60.27a4,4,0,0,0-2.93-1.09,7.65,7.65,0,0,0-3.77,1.14l-7.26,4.22a3.09,3.09,0,0,0-1.59,2.82,3.8,3.8,0,0,0,.91,2.47,2.72,2.72,0,0,0,2.18,1.11,3.15,3.15,0,0,0,1.59-.45l3.63-2.14V84.74H29.11a4.49,4.49,0,0,0-3,.82,3,3,0,0,0-1,2.45,3.21,3.21,0,0,0,.79,2.3l-1,.7a1.77,1.77,0,0,0-.43,2.47l.59.85a1.78,1.78,0,0,0,2.47.44l4.87-3.4H44.86q3.95,0,4-3.36a3.06,3.06,0,0,0-1-2.45,4.54,4.54,0,0,0-3-.82H41.92l10.73-7.5a4.11,4.11,0,0,0,.29.31,3.19,3.19,0,0,0,2.13.74,4.29,4.29,0,0,0,2-.5A16,16,0,0,1,59.73,77a12.43,12.43,0,0,1,2.47-.23,5.12,5.12,0,0,1,3.54,1.14A4,4,0,0,1,67,81.06a3.94,3.94,0,0,1-1.22,3.2,5.83,5.83,0,0,1-3.77,1,7.57,7.57,0,0,1-2.52-.41,27.46,27.46,0,0,1-2.56-1.09L56,83.33a15.15,15.15,0,0,0-1.36-.68,3.17,3.17,0,0,0-1.14-.18,2.36,2.36,0,0,0-1.91,1,3.73,3.73,0,0,0-.77,2.38,3.46,3.46,0,0,0,.34,1.57,4.18,4.18,0,0,0,1.07,1.24,14.83,14.83,0,0,0,4.65,2.27,18.78,18.78,0,0,0,5.52.82,14.71,14.71,0,0,0,6.49-1.36,10.31,10.31,0,0,0,4.36-3.86,10.81,10.81,0,0,0,1.54-5.76,11,11,0,0,0-1.29-5.38A9.22,9.22,0,0,0,69.94,71.74ZM60.2,65.68h1l-1,.69Z"/></svg>