<svg id="Layer_1" data-name="Layer 1" xmlns="http://www.w3.org/2000/svg" viewBox="0 0 100 100"><title>l25_1_1</title><path d="M88.91,61.43v30.5A8,8,0,0,1,81,99.87h-64a8,8,0,0,1-8-7.94V61.43a7.94,7.94,0,0,1,8-7.94H81A7.94,7.94,0,0,1,88.91,61.43Zm-62.39,11a10.37,10.37,0,0,0-4.16.76V68h9.07c2.44,0,3.65-1,3.65-2.94s-1.21-2.9-3.65-2.9h-13a3.54,3.54,0,0,0-2.64.93,3.61,3.61,0,0,0-.93,2.68V77.14a2.3,2.3,0,0,0,.8,1.82,2.86,2.86,0,0,0,2,.7,4,4,0,0,0,1.89-.47,15.29,15.29,0,0,1,2.42-.75,11.45,11.45,0,0,1,2.29-.21,4.72,4.72,0,0,1,3.27,1,3.72,3.72,0,0,1,1.18,2.94,3.66,3.66,0,0,1-1.13,3,5.39,5.39,0,0,1-3.49.94,7,7,0,0,1-2.33-.37,25.06,25.06,0,0,1-2.38-1l-.84-.42a13.12,13.12,0,0,0-1.25-.63,2.92,2.92,0,0,0-1-.17,2.19,2.19,0,0,0-1.77.9,3.44,3.44,0,0,0-.71,2.21A3.13,3.13,0,0,0,14,88.08a3.72,3.72,0,0,0,1,1.15,13.69,13.69,0,0,0,4.3,2.1,17.38,17.38,0,0,0,5.11.76,13.58,13.58,0,0,0,6-1.26,9.41,9.41,0,0,0,4-3.57,9.88,9.88,0,0,0,1.43-5.34,10.18,10.18,0,0,0-1.19-5,8.58,8.58,0,0,0-3.32-3.36A9.69,9.69,0,0,0,26.52,72.39Zm26.67,7.27,4.53-4.5a2.43,2.43,0,0,0,.76-1.8,2.2,2.2,0,0,0-.76-1.73A2.32,2.32,0,0,0,56,70.88a2.45,2.45,0,0,0-1.77.75l-4.53,4.54-4.54-4.54a2.44,2.44,0,0,0-1.76-.79,2.19,2.19,0,0,0-1.72.75,2.46,2.46,0,0,0-.76,1.81,2.6,2.6,0,0,0,.71,1.76l4.54,4.5-4.54,4.53a2.45,2.45,0,0,0,0,3.53,2.58,2.58,0,0,0,1.77.71,2.36,2.36,0,0,0,1.76-.71l4.54-4.54,4.53,4.54a2.46,2.46,0,0,0,1.77.76,2.43,2.43,0,0,0,1.76-.76A2.38,2.38,0,0,0,58.44,86a2.31,2.31,0,0,0-.72-1.77Zm29.48,6H74.23l6-6.09a20,20,0,0,0,3.51-4.72,10.71,10.71,0,0,0,1-4.69,7.75,7.75,0,0,0-1.28-4.39,8.29,8.29,0,0,0-3.64-2.94,13.6,13.6,0,0,0-5.46-1,16.61,16.61,0,0,0-4.85.76,16.16,16.16,0,0,0-4.43,2.1,2.84,2.84,0,0,0-1,1.09,4.08,4.08,0,0,0,.44,3.76,2.16,2.16,0,0,0,1.77,1,2.68,2.68,0,0,0,.8-.13,5.23,5.23,0,0,0,.86-.4l.65-.36.84-.42a19.4,19.4,0,0,1,2.37-1A6.76,6.76,0,0,1,74,67.73a3.33,3.33,0,0,1,2.33.75,2.87,2.87,0,0,1,.82,2.19c0,1.62-.93,3.4-2.77,5.33l-8.91,9.28a4.64,4.64,0,0,0-1.43,3.28,3.07,3.07,0,0,0,3.28,3.19H82.67A4.24,4.24,0,0,0,85.42,91a2.92,2.92,0,0,0,.9-2.36,2.81,2.81,0,0,0-.9-2.29A4.36,4.36,0,0,0,82.67,85.62Z"/><path d="M71.79,8v30.5a8,8,0,0,1-8,8H33.34a8,8,0,0,1-7.94-8V8A8,8,0,0,1,33.34,0h30.5A8,8,0,0,1,71.79,8ZM44.43,31.05h-3V14a3.1,3.1,0,0,0-.88-2.34,3.16,3.16,0,0,0-2.32-.87,6.09,6.09,0,0,0-3,.9L29.52,15a2.44,2.44,0,0,0-1.26,2.23,3,3,0,0,0,.72,2,2.17,2.17,0,0,0,1.73.89A2.47,2.47,0,0,0,32,19.75l2.88-1.69v13H31.93a3.59,3.59,0,0,0-2.37.65,2.4,2.4,0,0,0-.76,1.94c0,1.78,1.05,2.67,3.13,2.67h12.5c2.08,0,3.13-.89,3.13-2.67a2.4,2.4,0,0,0-.76-1.94A3.59,3.59,0,0,0,44.43,31.05Zm14,5.58a8.38,8.38,0,0,0,7.2-3.35q2.49-3.34,2.49-9.68T65.58,14a8.45,8.45,0,0,0-7.19-3.35A8.43,8.43,0,0,0,51.19,14q-2.47,3.35-2.48,9.65t2.48,9.68A8.4,8.4,0,0,0,58.39,36.63Zm0-5a2.58,2.58,0,0,1-2.48-1.87,17.77,17.77,0,0,1-.76-6.16,17.6,17.6,0,0,1,.76-6.14,2.59,2.59,0,0,1,5,0,17.93,17.93,0,0,1,.75,6.12,18.08,18.08,0,0,1-.75,6.16A2.59,2.59,0,0,1,58.39,31.63Z"/></svg>