<svg id="Layer_1" data-name="Layer 1" xmlns="http://www.w3.org/2000/svg" viewBox="0 0 100 100"><title>l25_3_1</title><path d="M83.23,99.89H16.17A16.47,16.47,0,0,1-.3,83.42V16.35A16.46,16.46,0,0,1,16.17-.11H83.23A16.46,16.46,0,0,1,99.7,16.35V83.42A16.47,16.47,0,0,1,83.23,99.89Zm.41-80.75H83V8.37a2.53,2.53,0,0,0-.81-2,2.79,2.79,0,0,0-1.94-.72A3,3,0,0,0,78.92,6a2.67,2.67,0,0,0-1.06.91L69.32,19.05a3.32,3.32,0,0,0-.65,2A2.2,2.2,0,0,0,71,23.32h6.66v1a2.64,2.64,0,0,0,.73,2,2.69,2.69,0,0,0,1.92.69,2.74,2.74,0,0,0,1.94-.69,2.61,2.61,0,0,0,.75-2v-1h.65c1.74,0,2.6-.71,2.6-2.12S85.38,19.14,83.64,19.14Zm-9.57,0L77.65,14v5.16Zm.6,35.52H72.23V40.52a2.6,2.6,0,0,0-.74-1.94,2.63,2.63,0,0,0-1.92-.71,5.09,5.09,0,0,0-2.47.74l-4.78,2.78a2,2,0,0,0-1,1.85,2.55,2.55,0,0,0,.59,1.62,1.8,1.8,0,0,0,1.44.73,2,2,0,0,0,1-.3l2.39-1.4V54.66H64.32a3,3,0,0,0-2,.54,2,2,0,0,0-.62,1.61c0,1.47.86,2.21,2.59,2.21H74.67c1.73,0,2.6-.74,2.6-2.21a2,2,0,0,0-.63-1.61A3,3,0,0,0,74.67,54.66ZM88,45.18a5.74,5.74,0,0,0-2.52.55,4.84,4.84,0,0,0-1.83,1.5,7.91,7.91,0,0,1,1.12-3.89A2.88,2.88,0,0,1,87.26,42a4,4,0,0,1,1.37.24,17,17,0,0,1,1.64.72l.66.33c.38.2.67.34.89.43a2,2,0,0,0,.75.13,1.58,1.58,0,0,0,1.27-.64,2.44,2.44,0,0,0,.52-1.56,2.33,2.33,0,0,0-.22-1.05,2.6,2.6,0,0,0-.74-.8,9.43,9.43,0,0,0-3-1.5A11.91,11.91,0,0,0,87,37.72a8.11,8.11,0,0,0-4.64,1.34,8.75,8.75,0,0,0-3.07,3.83,14.42,14.42,0,0,0-1.09,5.84q0,5.07,2.3,7.81A8,8,0,0,0,87,59.28a7.65,7.65,0,0,0,3.79-.92,6.74,6.74,0,0,0,2.61-2.58A7.4,7.4,0,0,0,94.33,52a7.48,7.48,0,0,0-.82-3.54,6.17,6.17,0,0,0-2.25-2.44A6,6,0,0,0,88,45.18Zm-1.37,9.9a2.42,2.42,0,0,1-1.85-.79,3,3,0,0,1-.71-2,2.92,2.92,0,0,1,.7-2.05,2.64,2.64,0,0,1,3.73,0,3.07,3.07,0,0,1,.67,2.07,3,3,0,0,1-.69,2.06A2.34,2.34,0,0,1,86.66,55.08ZM53.83,60.57H39.55V46.29a6.56,6.56,0,0,0-6.68-6.68,6.58,6.58,0,0,0-6.69,6.68V60.57H11.91a6.58,6.58,0,0,0-6.69,6.68,6.64,6.64,0,0,0,1.93,4.82,6.37,6.37,0,0,0,4.76,2H26.18V88.21a6.59,6.59,0,0,0,6.69,6.69A6.38,6.38,0,0,0,37.68,93a6.55,6.55,0,0,0,1.87-4.76V74.05H53.83a6.38,6.38,0,0,0,4.76-2,6.67,6.67,0,0,0,1.92-4.82,6.56,6.56,0,0,0-6.68-6.68ZM94.73,32v-.11a2.19,2.19,0,0,0-2.18-2.18H63.12A2.18,2.18,0,0,0,61,31.91V32a2.18,2.18,0,0,0,2.17,2.18H92.55A2.19,2.19,0,0,0,94.73,32Z"/></svg>