<svg id="Layer_1" data-name="Layer 1" xmlns="http://www.w3.org/2000/svg" viewBox="0 0 150 100"><defs><style>.cls-1{fill:#020202;}</style></defs><title>s25_1</title><path class="cls-1" d="M140.75,50A9.27,9.27,0,0,1,150,59.26v24.2a9.26,9.26,0,0,1-9.26,9.25H83.8A9.25,9.25,0,0,1,75,86.35a9.25,9.25,0,0,1-8.79,6.36H9.27A9.25,9.25,0,0,1,0,83.46V59.26A9.26,9.26,0,0,1,9.27,50,9.26,9.26,0,0,1,0,40.74V16.54A9.25,9.25,0,0,1,9.27,7.29h57A9.26,9.26,0,0,1,75,13.64,9.26,9.26,0,0,1,83.8,7.29h57A9.26,9.26,0,0,1,150,16.54v24.2A9.27,9.27,0,0,1,140.75,50ZM119.38,29.66h-.7V18.1a2.74,2.74,0,0,0-.86-2.14,3,3,0,0,0-2.08-.77,3.13,3.13,0,0,0-1.43.34,2.87,2.87,0,0,0-1.13,1L104,29.56a3.58,3.58,0,0,0-.7,2.11,2.37,2.37,0,0,0,2.5,2.47H113v1.08a2.83,2.83,0,0,0,.79,2.18,2.89,2.89,0,0,0,2.06.74,3,3,0,0,0,2.08-.74,2.83,2.83,0,0,0,.8-2.18V34.14h.7q2.79,0,2.79-2.28C122.17,30.39,121.24,29.66,119.38,29.66Zm-10.27,0L113,24.12v5.54Zm7.46,45.14a5.17,5.17,0,0,0,2.54-1.93,5.33,5.33,0,0,0,.91-3.09,5.6,5.6,0,0,0-1-3.27,6.21,6.21,0,0,0-2.79-2.17,10.59,10.59,0,0,0-4.17-.77,12.9,12.9,0,0,0-3.79.57,10.51,10.51,0,0,0-3.25,1.61,2.54,2.54,0,0,0-.77.86,2.48,2.48,0,0,0-.22,1.12,2.64,2.64,0,0,0,.54,1.68,1.65,1.65,0,0,0,1.34.69,2,2,0,0,0,.8-.15,9.49,9.49,0,0,0,1-.46l.68-.32a17.11,17.11,0,0,1,1.74-.77,4.86,4.86,0,0,1,1.68-.29,2.74,2.74,0,0,1,2,.66,2.4,2.4,0,0,1,.71,1.84,1.79,1.79,0,0,1-.8,1.63,4.94,4.94,0,0,1-2.56.51h-1.41a1.87,1.87,0,0,0-1.51.67,2.66,2.66,0,0,0,0,3.21,1.87,1.87,0,0,0,1.51.67h2a4.87,4.87,0,0,1,2.63.54,2,2,0,0,1,.8,1.79,2.22,2.22,0,0,1-.79,1.92,4.37,4.37,0,0,1-2.57.58,5.79,5.79,0,0,1-1.84-.27,13.91,13.91,0,0,1-1.84-.79l-.4-.17-.31-.15a9.49,9.49,0,0,0-1-.46,2,2,0,0,0-.8-.15,1.65,1.65,0,0,0-1.34.69,2.65,2.65,0,0,0-.55,1.68,2.53,2.53,0,0,0,.23,1.11,2.48,2.48,0,0,0,.77.88A10.17,10.17,0,0,0,108,86.11a14,14,0,0,0,4,.56,12.07,12.07,0,0,0,4.53-.78,6.68,6.68,0,0,0,3-2.22,5.57,5.57,0,0,0,1.06-3.4,5.69,5.69,0,0,0-1.07-3.48A5.45,5.45,0,0,0,116.57,74.8ZM32.31,57.22H28.62V35.89A3.91,3.91,0,0,0,27.52,33a4,4,0,0,0-2.91-1.08A7.58,7.58,0,0,0,20.88,33l-7.2,4.19A3.06,3.06,0,0,0,12.1,40a3.77,3.77,0,0,0,.9,2.45,2.72,2.72,0,0,0,2.16,1.1,3.09,3.09,0,0,0,1.58-.45L20.34,41V57.22H16.69a4.5,4.5,0,0,0-3,.81,3,3,0,0,0-.94,2.43q0,3.33,3.91,3.33H32.31q3.91,0,3.91-3.33A3,3,0,0,0,35.28,58,4.5,4.5,0,0,0,32.31,57.22Zm25.83,0h-9l6.39-6.52a20.87,20.87,0,0,0,3.76-5.07,11.22,11.22,0,0,0,1.1-5A8.24,8.24,0,0,0,59,35.91a8.81,8.81,0,0,0-3.89-3.15,14.57,14.57,0,0,0-5.85-1.1,18.33,18.33,0,0,0-9.95,3.06,3,3,0,0,0-1.1,1.17,4,4,0,0,0-.29,1.62,3.89,3.89,0,0,0,.76,2.41,2.3,2.3,0,0,0,1.89,1,2.71,2.71,0,0,0,.86-.13,4.89,4.89,0,0,0,.92-.43L43,40l.9-.45a23.26,23.26,0,0,1,2.54-1.11,7.47,7.47,0,0,1,2.41-.38,3.56,3.56,0,0,1,2.5.81,3,3,0,0,1,.87,2.34q0,2.61-3,5.72l-9.54,9.94a4.93,4.93,0,0,0-1.53,3.51,3.36,3.36,0,0,0,.95,2.45,3.39,3.39,0,0,0,2.56,1H58.14a4.54,4.54,0,0,0,3-.81,3.12,3.12,0,0,0,1-2.52,3,3,0,0,0-1-2.45A4.66,4.66,0,0,0,58.14,57.22ZM70.89,47.07H86.36a2.34,2.34,0,0,0,1.76-.73,2.48,2.48,0,0,0,.71-1.78,2.44,2.44,0,0,0-2.47-2.47H70.89a2.35,2.35,0,0,0-1.76.74,2.43,2.43,0,0,0-.71,1.77,2.43,2.43,0,0,0,2.47,2.47Zm0,8.37H86.36a2.38,2.38,0,0,0,1.76-.73,2.48,2.48,0,0,0,.71-1.78,2.43,2.43,0,0,0-2.47-2.47H70.89a2.38,2.38,0,0,0-1.76.73A2.44,2.44,0,0,0,68.42,53a2.43,2.43,0,0,0,2.47,2.47ZM115,50.58l3.46-3.43a1.87,1.87,0,0,0,.57-1.37,1.7,1.7,0,0,0-.57-1.32,1.8,1.8,0,0,0-1.35-.57,1.84,1.84,0,0,0-1.34.57l-3.46,3.46-3.45-3.46a1.9,1.9,0,0,0-1.35-.6,1.68,1.68,0,0,0-1.31.57,1.92,1.92,0,0,0-.58,1.38,2,2,0,0,0,.55,1.34l3.45,3.43L106.13,54a1.83,1.83,0,0,0-.58,1.35,1.81,1.81,0,0,0,.58,1.34,2,2,0,0,0,1.34.54,1.85,1.85,0,0,0,1.35-.54l3.45-3.46,3.46,3.46a1.85,1.85,0,0,0,1.34.58,1.89,1.89,0,0,0,1.35-.58,1.82,1.82,0,0,0,.54-1.34,1.77,1.77,0,0,0-.54-1.35Z"/></svg>