<svg id="Layer_1" data-name="Layer 1" xmlns="http://www.w3.org/2000/svg" viewBox="0 0 150 100"><defs><style>.cls-1{fill:#020202;}</style></defs><title>s25_1</title><path class="cls-1" d="M126.26,49.92c4,0,7.23,4.85,7.23,10.84V89.1c0,6-3.24,10.84-7.23,10.84H23.61c-4,0-7.23-4.85-7.23-10.84V60.76c0-6,3.24-10.84,7.23-10.84-4,0-7.23-4.86-7.23-10.85V10.74c0-6,3.24-10.85,7.23-10.85H126.26c4,0,7.23,4.86,7.23,10.85V39.07C133.49,45.06,130.25,49.92,126.26,49.92ZM84.81,33.68H75.64l6.48-6.61a21.46,21.46,0,0,0,3.8-5.13A11.45,11.45,0,0,0,87,16.85a8.32,8.32,0,0,0-1.39-4.76,8.88,8.88,0,0,0-4-3.19,14.54,14.54,0,0,0-5.92-1.12,18.55,18.55,0,0,0-10.08,3.1,3,3,0,0,0-1.12,1.19,4,4,0,0,0-.29,1.64,4,4,0,0,0,.77,2.44,2.34,2.34,0,0,0,1.92,1,2.71,2.71,0,0,0,.86-.13,5.11,5.11,0,0,0,.94-.44l.71-.38.91-.46A21.9,21.9,0,0,1,73,14.64a7.39,7.39,0,0,1,2.44-.39,3.57,3.57,0,0,1,2.53.83,3,3,0,0,1,.89,2.37q0,2.64-3,5.79L66.16,33.31a5,5,0,0,0-1.55,3.56,3.32,3.32,0,0,0,3.55,3.47H84.81a4.61,4.61,0,0,0,3-.82,3.14,3.14,0,0,0,1-2.56,3,3,0,0,0-1-2.48A4.67,4.67,0,0,0,84.81,33.68ZM103,49.92h0a2.68,2.68,0,0,0-2.68-2.68H49.92a2.68,2.68,0,0,0-2.68,2.68h0a2.68,2.68,0,0,0,2.68,2.67h50.42A2.68,2.68,0,0,0,103,49.92Zm-1.83,35.8a4.7,4.7,0,0,0-3-.79H89l6.47-6.61a21.81,21.81,0,0,0,3.81-5.13,11.58,11.58,0,0,0,1.11-5.09,8.37,8.37,0,0,0-1.12-4.29l1.77-1.23a2.31,2.31,0,0,0-2.64-3.78l-2.52,1.77a7.91,7.91,0,0,0-.82-.42A14.59,14.59,0,0,0,89.17,59a18.55,18.55,0,0,0-10.07,3.1A3,3,0,0,0,78,63.31a4.38,4.38,0,0,0,.48,4.09,2.31,2.31,0,0,0,1.91,1,2.48,2.48,0,0,0,.87-.14,5.25,5.25,0,0,0,.93-.43l.71-.39.91-.45a21.27,21.27,0,0,1,2.58-1.12,7.35,7.35,0,0,1,2.44-.39h0L68.29,79.87V63.31a3.94,3.94,0,0,0-1.12-3,4,4,0,0,0-2.94-1.09,7.69,7.69,0,0,0-3.78,1.14l-7.3,4.24a3.1,3.1,0,0,0-1.59,2.82A3.83,3.83,0,0,0,52.47,70a2.77,2.77,0,0,0,2.19,1.12,3.16,3.16,0,0,0,1.59-.46l3.65-2.14V84.93H56.21a4.55,4.55,0,0,0-3,.82,3.05,3.05,0,0,0-1,2.46,3.25,3.25,0,0,0,.8,2.32l-.57.4a2.3,2.3,0,1,0,2.64,3.77l4.47-3.12H72q4,0,4-3.37A3,3,0,0,0,75,85.75a4.55,4.55,0,0,0-3-.82H69.1L92.22,68.77q0,2.61-3,5.72L79.55,84.56A5,5,0,0,0,78,88.12a3.39,3.39,0,0,0,1,2.48,3.44,3.44,0,0,0,2.6,1H98.2a4.58,4.58,0,0,0,3-.82,3.13,3.13,0,0,0,1-2.55A3.06,3.06,0,0,0,101.19,85.72Z"/></svg>