<svg id="Layer_1" data-name="Layer 1" xmlns="http://www.w3.org/2000/svg" viewBox="0 0 150 100"><title>s25_1</title><path d="M108.16,100H41.09A16.46,16.46,0,0,1,24.63,83.53V16.47A16.46,16.46,0,0,1,41.09,0h67.07a16.47,16.47,0,0,1,16.47,16.47V83.53A16.47,16.47,0,0,1,108.16,100Zm-4-82.25A5.79,5.79,0,0,0,107,15.59a6,6,0,0,0,1-3.46,6.28,6.28,0,0,0-1.09-3.64,7.11,7.11,0,0,0-3.11-2.44,11.93,11.93,0,0,0-4.67-.85,14.3,14.3,0,0,0-4.24.64,12,12,0,0,0-3.63,1.79,2.9,2.9,0,0,0-.86,1,2.77,2.77,0,0,0-.25,1.26,2.9,2.9,0,0,0,.61,1.87,1.83,1.83,0,0,0,1.5.77,2.36,2.36,0,0,0,.9-.16c.26-.11.61-.28,1.07-.52l.75-.35a17,17,0,0,1,2-.86,5.27,5.27,0,0,1,1.88-.33A3.08,3.08,0,0,1,101,11a2.68,2.68,0,0,1,.78,2.05,2,2,0,0,1-.89,1.83,5.5,5.5,0,0,1-2.86.57H96.44a2.06,2.06,0,0,0-1.69.75,3,3,0,0,0,0,3.58,2.06,2.06,0,0,0,1.69.75h2.21a5.37,5.37,0,0,1,2.94.61,2.25,2.25,0,0,1,.89,2,2.48,2.48,0,0,1-.88,2.15,4.93,4.93,0,0,1-2.87.64,6.56,6.56,0,0,1-2.06-.3,17.11,17.11,0,0,1-2.06-.88l-.45-.2-.34-.16c-.45-.24-.81-.41-1.07-.52a2.48,2.48,0,0,0-.89-.16,1.84,1.84,0,0,0-1.5.77,2.93,2.93,0,0,0-.61,1.88A2.73,2.73,0,0,0,90,27.6a2.69,2.69,0,0,0,.86,1,11.55,11.55,0,0,0,3.71,1.8,15.9,15.9,0,0,0,4.48.63,13.34,13.34,0,0,0,5.06-.88,7.52,7.52,0,0,0,3.34-2.48,6.24,6.24,0,0,0,1.18-3.79,6.33,6.33,0,0,0-1.2-3.9A6,6,0,0,0,104.13,17.75ZM107.35,60h-.78V47.1a3.07,3.07,0,0,0-1-2.4,3.37,3.37,0,0,0-2.32-.85,3.56,3.56,0,0,0-1.59.37,3.19,3.19,0,0,0-1.27,1.09L90.19,59.9a4,4,0,0,0-.79,2.36,2.75,2.75,0,0,0,.75,2,2.7,2.7,0,0,0,2,.78h8v1.22a3.2,3.2,0,0,0,.88,2.43,3.23,3.23,0,0,0,2.31.82,3.27,3.27,0,0,0,2.32-.82,3.13,3.13,0,0,0,.9-2.43V65h.78c2.08,0,3.11-.84,3.11-2.54S109.43,60,107.35,60ZM95.87,60l4.29-6.19V60Zm-17.11.67H64.48V46.41a6.59,6.59,0,0,0-6.69-6.69,6.58,6.58,0,0,0-6.68,6.69V60.68H36.83a6.58,6.58,0,0,0-6.68,6.69,6.65,6.65,0,0,0,1.92,4.81,6.36,6.36,0,0,0,4.76,2H51.11V88.33a6.77,6.77,0,0,0,11.5,4.76,6.56,6.56,0,0,0,1.87-4.76V74.17H78.76a6.33,6.33,0,0,0,4.75-2,6.62,6.62,0,0,0,1.93-4.81,6.59,6.59,0,0,0-6.68-6.69Zm41.8-23.84h0a2.68,2.68,0,0,0-2.68-2.68H82.74a2.68,2.68,0,0,0-2.67,2.68h0a2.67,2.67,0,0,0,2.67,2.67h35.14A2.67,2.67,0,0,0,120.56,36.84Z"/></svg>