<svg id="Layer_1" data-name="Layer 1" xmlns="http://www.w3.org/2000/svg" viewBox="0 0 200 150"><title>g9</title><path d="M101.18,26.13C70,26.19,48.81,41.58,40.74,47.63,3.21,75.78.82,116.28,1.25,121.1a10.77,10.77,0,0,0,2.86,6.84,9.31,9.31,0,0,0,5.94,2.13l77.6.17C110.53,86.31,125.25,58,125.29,58v0s.06-.11.12-.21a6.2,6.2,0,0,1,.85-1.18,5.63,5.63,0,0,1,1.36-1.11c.37-.3,7.8-6.24,9.45-7.07a1.34,1.34,0,0,1,1.15-.16,1.31,1.31,0,0,1,.54,1c.32,1.77-.12,11.33-.14,11.89a6.92,6.92,0,0,1-.69,3l-.08.15c-.23.44-9.81,19.72-32.84,66.12l88.26-.32a8,8,0,0,0,4.33-2.52,8.45,8.45,0,0,0,1.85-6.71c-.42-7.11-3.3-43.27-33.88-70.1C158.65,44.62,135.52,26.07,101.18,26.13ZM153,111.74v0ZM56.12,107A4.38,4.38,0,1,1,53,115.11L23.79,104a4.36,4.36,0,1,1,3.12-8.15ZM72.5,84.51a4.38,4.38,0,1,1-5.9,6.42q-11.52-10.58-23-21.17a4.36,4.36,0,1,1,5.9-6.42Zm89.75-17.06a4.36,4.36,0,1,1,5.64,6.66L144,94.32a4.38,4.38,0,1,1-5.64-6.66Zm17.19,31.77a4.37,4.37,0,1,1,3.11,8.16l-29.22,11.16a4.38,4.38,0,1,1-3.11-8.16ZM99.09,73.7A4.38,4.38,0,1,1,90.66,76q-4.05-15.09-8.11-30.2A4.36,4.36,0,1,1,91,43.5Q95,58.59,99.09,73.7Z"/></svg>