<svg id="Layer_1" data-name="Layer 1" xmlns="http://www.w3.org/2000/svg" viewBox="0 0 122 122"><title>l10_1_1</title><path d="M120.3,108.26a.44.44,0,0,0,.08-.11,7.76,7.76,0,0,0,1.17-2.68.64.64,0,0,1,0-.07l.09-.52c0-.09,0-.18,0-.26s0-.27,0-.4,0-.27,0-.4,0-.06,0-.09,0-.17,0-.26,0-.29,0-.44,0-.25,0-.37l-.06-.39c0-.14-.06-.28-.1-.42a2.81,2.81,0,0,0-.08-.31c-.05-.17-.1-.33-.16-.49l-.09-.24c-.07-.17-.15-.34-.23-.51s0-.11-.07-.16l-.07-.14h0L72.55,6A7.84,7.84,0,0,0,62,2.63h0a7.85,7.85,0,0,0-3.4,10.57l42.46,82.68H8.1a7.85,7.85,0,1,0,0,15.7H114.16c.15,0,.29,0,.43,0l.4,0,.36-.06.46-.1.27-.07.53-.18.19-.07.58-.26.1-.05,0,0c.2-.1.38-.21.56-.32l.14-.08.46-.34a1.09,1.09,0,0,0,.17-.13c.13-.1.25-.21.37-.32l.21-.19c.11-.11.22-.23.32-.35l.19-.21C120.06,108.59,120.18,108.43,120.3,108.26Z"/><path d="M91.88,90.46l-91,.13A86.42,86.42,0,0,1,16.39,39.07,85.79,85.79,0,0,1,51,10.61Q71.44,50.54,91.88,90.46ZM29.29,69.52h-.81V56.22a3.14,3.14,0,0,0-1-2.47,3.48,3.48,0,0,0-2.4-.89,3.62,3.62,0,0,0-1.63.39,3.38,3.38,0,0,0-1.31,1.12l-10.54,15a4.12,4.12,0,0,0-.81,2.43,2.83,2.83,0,0,0,.77,2,2.75,2.75,0,0,0,2.1.82h8.22v1.25a3.27,3.27,0,0,0,.9,2.5,3.32,3.32,0,0,0,2.38.85,3.36,3.36,0,0,0,2.39-.85,3.21,3.21,0,0,0,.93-2.5V74.68h.81c2.13,0,3.2-.88,3.2-2.62S31.42,69.52,29.29,69.52Zm-11.83,0,4.42-6.38v6.38Zm27.82-7.45a9.08,9.08,0,0,0-3.65.67V58.2h8c2.14,0,3.2-.86,3.2-2.57s-1.06-2.55-3.2-2.55H38.17a3.16,3.16,0,0,0-2.33.81A3.2,3.2,0,0,0,35,56.25v10a2,2,0,0,0,.7,1.6,2.55,2.55,0,0,0,1.74.61A3.48,3.48,0,0,0,39.12,68a12.71,12.71,0,0,1,2.12-.66,10.28,10.28,0,0,1,2-.18,4.15,4.15,0,0,1,2.88.92,3.29,3.29,0,0,1,1,2.58,3.15,3.15,0,0,1-1,2.59,4.66,4.66,0,0,1-3.06.83,6.1,6.1,0,0,1-2-.33A19.38,19.38,0,0,1,39,72.91l-.74-.37A9.06,9.06,0,0,0,37.13,72a2.42,2.42,0,0,0-.92-.15,1.88,1.88,0,0,0-1.54.79A3,3,0,0,0,34,74.57a2.8,2.8,0,0,0,.27,1.27,3.48,3.48,0,0,0,.87,1A12.1,12.1,0,0,0,39,78.69a15.44,15.44,0,0,0,4.48.67,11.9,11.9,0,0,0,5.26-1.11,8.25,8.25,0,0,0,3.54-3.13,8.67,8.67,0,0,0,1.25-4.68,8.89,8.89,0,0,0-1.05-4.37,7.51,7.51,0,0,0-2.91-2.95A8.5,8.5,0,0,0,45.28,62.07Zm16,2.07a6,6,0,0,0,2.94-.72,5.32,5.32,0,0,0,2.09-2,5.89,5.89,0,0,0,0-5.75,5.41,5.41,0,0,0-2.09-2,5.84,5.84,0,0,0-2.94-.74,5.78,5.78,0,0,0-2.91.74,5.41,5.41,0,0,0-2.09,2,5.89,5.89,0,0,0,0,5.75,5.33,5.33,0,0,0,2.07,2A6,6,0,0,0,61.31,64.14Zm0-3.13a2.24,2.24,0,0,1-1.68-.71A2.38,2.38,0,0,1,59,58.54a2.47,2.47,0,0,1,.68-1.81,2.23,2.23,0,0,1,1.68-.7,2.3,2.3,0,0,1,1.69.7,2.44,2.44,0,0,1,.7,1.81A2.36,2.36,0,0,1,63,60.3,2.3,2.3,0,0,1,61.31,61Z"/></svg>