<svg id="Layer_1" data-name="Layer 1" xmlns="http://www.w3.org/2000/svg" viewBox="0 0 122 122"><title>l10_1_1</title><path d="M118.67,30.44a5.41,5.41,0,0,0-7.39,2L76.37,92.9H6.29A5.41,5.41,0,0,0,.88,98.31h0a5.41,5.41,0,0,0,5.41,5.41h73A5.43,5.43,0,0,0,84.18,101l36.48-63.18A5.41,5.41,0,0,0,118.67,30.44Z"/><path d="M72.36,89H2.42c.59-4.51,5.26-35.88,34.3-54.5,32.72-21,67.53-7.29,70.69-6Q89.89,58.79,72.36,89ZM36.06,65.58H33.91V53.11a2.28,2.28,0,0,0-.65-1.71,2.31,2.31,0,0,0-1.69-.63,4.44,4.44,0,0,0-2.19.66l-4.21,2.44a1.8,1.8,0,0,0-.92,1.63,2.23,2.23,0,0,0,.53,1.44,1.57,1.57,0,0,0,1.26.64,1.74,1.74,0,0,0,.92-.26l2.11-1.24v9.5H26.93a2.61,2.61,0,0,0-1.73.48,1.75,1.75,0,0,0-.55,1.42c0,1.3.76,1.94,2.28,1.94h9.13c1.53,0,2.29-.64,2.29-1.94a1.75,1.75,0,0,0-.55-1.42A2.62,2.62,0,0,0,36.06,65.58Zm10.21,4.08a6.14,6.14,0,0,0,5.27-2.45q1.82-2.44,1.81-7.07t-1.83-7.06a6.16,6.16,0,0,0-5.25-2.44A6.15,6.15,0,0,0,41,53.08q-1.82,2.46-1.81,7.06T41,67.21A6.13,6.13,0,0,0,46.27,69.66Zm0-3.66a1.88,1.88,0,0,1-1.81-1.36,13.14,13.14,0,0,1-.55-4.5,13,13,0,0,1,.55-4.49,1.89,1.89,0,0,1,3.63,0,13,13,0,0,1,.55,4.48,13.14,13.14,0,0,1-.55,4.5A1.88,1.88,0,0,1,46.27,66Zm15.79,3.66a6.12,6.12,0,0,0,5.26-2.45c1.22-1.63,1.82-4,1.82-7.07s-.61-5.42-1.83-7.06a6.16,6.16,0,0,0-5.25-2.44,6.14,6.14,0,0,0-5.26,2.44Q55,55.54,55,60.14t1.82,7.07A6.12,6.12,0,0,0,62.06,69.66Zm0-3.66a1.87,1.87,0,0,1-1.81-1.36,13.08,13.08,0,0,1-.56-4.5,12.9,12.9,0,0,1,.56-4.49,1.89,1.89,0,0,1,3.63,0,13,13,0,0,1,.55,4.48,13.14,13.14,0,0,1-.55,4.5A1.89,1.89,0,0,1,62.06,66ZM74.8,58.77a4.25,4.25,0,0,0,2.1-.52,3.73,3.73,0,0,0,1.49-1.43,4.16,4.16,0,0,0,0-4.1,3.85,3.85,0,0,0-1.49-1.45,4.25,4.25,0,0,0-2.1-.53,4.21,4.21,0,0,0-2.08.53,3.85,3.85,0,0,0-1.49,1.45,4.16,4.16,0,0,0,0,4.1,3.7,3.7,0,0,0,1.48,1.43A4.18,4.18,0,0,0,74.8,58.77Zm0-2.24a1.61,1.61,0,0,1-1.2-.5,1.74,1.74,0,0,1-.49-1.26,1.78,1.78,0,0,1,.49-1.29,1.61,1.61,0,0,1,1.2-.5,1.68,1.68,0,0,1,1.21.5,1.75,1.75,0,0,1,.5,1.29A1.71,1.71,0,0,1,76,56,1.68,1.68,0,0,1,74.8,56.53Z"/></svg>