<svg id="Layer_1" data-name="Layer 1" xmlns="http://www.w3.org/2000/svg" viewBox="0 0 122 122"><title>l10_2_1</title><path d="M117.55,61.15A55.6,55.6,0,1,1,62,5.56,55.6,55.6,0,0,1,117.55,61.15ZM39.64,69.27H31.82l5.53-5.64a18,18,0,0,0,3.24-4.38,9.76,9.76,0,0,0,1-4.34,7.16,7.16,0,0,0-1.19-4.07A7.61,7.61,0,0,0,37,48.12a12.65,12.65,0,0,0-5.06-.95,15.86,15.86,0,0,0-8.6,2.64,2.6,2.6,0,0,0-1,1,3.56,3.56,0,0,0-.25,1.41,3.38,3.38,0,0,0,.66,2.08,2,2,0,0,0,1.64.87,2.6,2.6,0,0,0,.74-.11A4.51,4.51,0,0,0,26,54.7l.61-.33.78-.39a18.42,18.42,0,0,1,2.19-1,6.36,6.36,0,0,1,2.09-.33,3.12,3.12,0,0,1,2.16.7,2.64,2.64,0,0,1,.75,2q0,2.25-2.56,4.94L23.73,69a4.24,4.24,0,0,0-1.33,3,2.91,2.91,0,0,0,.82,2.12,3,3,0,0,0,2.22.84h14.2a3.9,3.9,0,0,0,2.55-.7A2.68,2.68,0,0,0,43,72.07,2.56,2.56,0,0,0,42.19,70,4,4,0,0,0,39.64,69.27Zm24-21.75H48.4a3.81,3.81,0,0,0-2.57.72A2.71,2.71,0,0,0,45,50.4a2.66,2.66,0,0,0,.8,2.1,3.91,3.91,0,0,0,2.59.7h9.72l-10,17.08a3.68,3.68,0,0,0-.54,1.87,2.87,2.87,0,0,0,1.05,2.24A3.6,3.6,0,0,0,51,75.3a3.37,3.37,0,0,0,1.66-.45A3.71,3.71,0,0,0,54,73.47L65.83,53a5,5,0,0,0,.74-2.57,3.08,3.08,0,0,0-.76-2.12A2.8,2.8,0,0,0,63.65,47.52ZM79.14,75.3a9.11,9.11,0,0,0,7.78-3.62q2.68-3.62,2.68-10.47T86.9,50.79a9.09,9.09,0,0,0-7.76-3.62,9.09,9.09,0,0,0-7.79,3.62q-2.68,3.62-2.68,10.42t2.68,10.47A9.11,9.11,0,0,0,79.14,75.3Zm0-5.41a2.79,2.79,0,0,1-2.69-2,19.51,19.51,0,0,1-.82-6.66,19.31,19.31,0,0,1,.82-6.63,2.8,2.8,0,0,1,5.37,0,19.29,19.29,0,0,1,.82,6.61,19.51,19.51,0,0,1-.82,6.66A2.79,2.79,0,0,1,79.14,69.89ZM98,59.19a6.37,6.37,0,0,0,3.11-.76,5.54,5.54,0,0,0,2.2-2.12,6.16,6.16,0,0,0,0-6.07,5.73,5.73,0,0,0-2.2-2.14,6.53,6.53,0,0,0-6.19,0,5.8,5.8,0,0,0-2.2,2.14,6.22,6.22,0,0,0,0,6.07,5.62,5.62,0,0,0,2.18,2.12A6.3,6.3,0,0,0,98,59.19Zm0-3.31a2.35,2.35,0,0,1-1.77-.74,2.55,2.55,0,0,1-.72-1.86,2.62,2.62,0,0,1,.72-1.91A2.39,2.39,0,0,1,98,50.63a2.46,2.46,0,0,1,1.79.74,2.59,2.59,0,0,1,.74,1.91,2.52,2.52,0,0,1-.74,1.86A2.42,2.42,0,0,1,98,55.88Z"/></svg>