<svg id="Layer_1" data-name="Layer 1" xmlns="http://www.w3.org/2000/svg" viewBox="0 0 122 122"><title>l10_3_1</title><path d="M116.79,63.32a55.6,55.6,0,1,1-55.6-55.6A55.6,55.6,0,0,1,116.79,63.32ZM38.88,71.43H31.06l5.53-5.64a18.37,18.37,0,0,0,3.25-4.37,9.9,9.9,0,0,0,.95-4.34A7.16,7.16,0,0,0,39.6,53a7.54,7.54,0,0,0-3.36-2.72,12.48,12.48,0,0,0-5.06-1A15.82,15.82,0,0,0,22.58,52a2.56,2.56,0,0,0-.95,1,3.33,3.33,0,0,0-.26,1.4A3.28,3.28,0,0,0,22,56.47a2,2,0,0,0,1.63.88,2.25,2.25,0,0,0,.74-.12,4.92,4.92,0,0,0,.8-.37c.29-.17.5-.28.6-.33l.78-.39a19.21,19.21,0,0,1,2.2-1,6.3,6.3,0,0,1,2.08-.33,3.07,3.07,0,0,1,2.16.7,2.64,2.64,0,0,1,.76,2c0,1.51-.86,3.15-2.57,4.94L23,71.12a4.27,4.27,0,0,0-1.32,3,2.94,2.94,0,0,0,.81,2.12,3,3,0,0,0,2.22.84h14.2a4,4,0,0,0,2.55-.7,2.69,2.69,0,0,0,.84-2.18,2.56,2.56,0,0,0-.84-2.12A4,4,0,0,0,38.88,71.43ZM57.37,59.06a7.48,7.48,0,0,0-3.29.72,6.12,6.12,0,0,0-2.39,2,10.35,10.35,0,0,1,1.45-5.08,3.72,3.72,0,0,1,3.21-1.81,5.11,5.11,0,0,1,1.79.31c.57.21,1.29.52,2.14.93l.86.43q.73.39,1.17.57a2.66,2.66,0,0,0,1,.17,2.06,2.06,0,0,0,1.65-.83,3.12,3.12,0,0,0,.69-2,2.79,2.79,0,0,0-.3-1.36A3.38,3.38,0,0,0,64.37,52,12.46,12.46,0,0,0,60.46,50a15.34,15.34,0,0,0-4.46-.7,10.62,10.62,0,0,0-6,1.75,11.35,11.35,0,0,0-4,5,18.86,18.86,0,0,0-1.42,7.61q0,6.61,3,10.2A10.47,10.47,0,0,0,56,77.47a10.11,10.11,0,0,0,5-1.21,8.67,8.67,0,0,0,3.4-3.37A9.67,9.67,0,0,0,65.58,68a9.82,9.82,0,0,0-1.07-4.61,8.1,8.1,0,0,0-2.94-3.19A7.84,7.84,0,0,0,57.37,59.06ZM55.58,72a3.12,3.12,0,0,1-2.42-1,4.35,4.35,0,0,1,0-5.35,3.46,3.46,0,0,1,4.87,0A4.57,4.57,0,0,1,58,71,3.07,3.07,0,0,1,55.58,72Zm22.8,5.49a9.09,9.09,0,0,0,7.78-3.62C88,71.43,88.84,68,88.84,63.38s-.9-8-2.7-10.43a9.11,9.11,0,0,0-7.76-3.62A9.09,9.09,0,0,0,70.6,53q-2.68,3.61-2.69,10.43c0,4.57.9,8.05,2.69,10.47A9.09,9.09,0,0,0,78.38,77.47Zm0-5.41a2.8,2.8,0,0,1-2.69-2,19.46,19.46,0,0,1-.81-6.65,19.29,19.29,0,0,1,.81-6.63,2.79,2.79,0,0,1,5.37,0,19,19,0,0,1,.82,6.61A19.15,19.15,0,0,1,81.06,70,2.79,2.79,0,0,1,78.38,72.06Zm18.83-10.7a6.48,6.48,0,0,0,3.11-.76,5.54,5.54,0,0,0,2.2-2.12,6.16,6.16,0,0,0,0-6.07,5.66,5.66,0,0,0-2.2-2.14,6.27,6.27,0,0,0-3.11-.78,6.17,6.17,0,0,0-3.07.78,5.66,5.66,0,0,0-2.2,2.14,6.16,6.16,0,0,0,0,6.07,5.56,5.56,0,0,0,2.18,2.12A6.37,6.37,0,0,0,97.21,61.36Zm0-3.31a2.39,2.39,0,0,1-1.77-.74,2.83,2.83,0,0,1,0-3.77,2.35,2.35,0,0,1,1.77-.74,2.41,2.41,0,0,1,1.79.74,2.77,2.77,0,0,1,0,3.77A2.45,2.45,0,0,1,97.21,58.05Z"/></svg>