<svg id="Layer_1" data-name="Layer 1" xmlns="http://www.w3.org/2000/svg" viewBox="0 0 122 122"><title>l10_2_1</title><path d="M61.8,30.16c-18.54,0-31.11,9.18-35.91,12.78C2.9,60.19,2.23,85.14,2.43,86.59a7.4,7.4,0,0,0,1.7,4.06,5,5,0,0,0,1.87,1,6.28,6.28,0,0,0,1.66.25c1.45,0,16.71,0,37.63,0H89.43l27.1,0a4.85,4.85,0,0,0,2.57-1.5,5.06,5.06,0,0,0,1.1-4c-.26-4.23-2-25.71-20.13-41.65C96,41.15,82.21,30.13,61.8,30.16ZM92.58,81h0ZM42.25,77.75A2.76,2.76,0,0,1,43.11,80q0,3-3.57,3H25.31c-2.38,0-3.56-1-3.56-3a2.73,2.73,0,0,1,.86-2.21,4.09,4.09,0,0,1,2.7-.74h3.32V62.21l-3.28,1.93a2.8,2.8,0,0,1-1.43.41,2.47,2.47,0,0,1-2-1,3.42,3.42,0,0,1-.82-2.23,2.79,2.79,0,0,1,1.43-2.54L29.13,55a6.93,6.93,0,0,1,3.4-1,3.63,3.63,0,0,1,2.64,1,3.58,3.58,0,0,1,1,2.67V77h3.36A4.14,4.14,0,0,1,42.25,77.75Zm23.26-7.11a7.7,7.7,0,0,1-1.72,10.49c-2,1.46-4.82,2.2-8.34,2.2s-6.31-.74-8.35-2.2A7.08,7.08,0,0,1,44.05,75a7.24,7.24,0,0,1,1.35-4.49,6.83,6.83,0,0,1,3.86-2.44A6.61,6.61,0,0,1,46,65.59a6.91,6.91,0,0,1-1.15-4,6.76,6.76,0,0,1,2.87-5.77,12.84,12.84,0,0,1,7.75-2.11,12.84,12.84,0,0,1,7.77,2.11,6.8,6.8,0,0,1,2.85,5.77,7.14,7.14,0,0,1-1.17,4.1,6.17,6.17,0,0,1-3.22,2.41A7.16,7.16,0,0,1,65.51,70.64Zm-5.59,3.79q0-3.2-4.47-3.2T51,74.43q0,3.19,4.47,3.2T59.92,74.43ZM52.7,60.14a2.79,2.79,0,0,0-.9,2.32,2.84,2.84,0,0,0,.9,2.33,4.24,4.24,0,0,0,2.75.74,4.21,4.21,0,0,0,2.74-.74,2.84,2.84,0,0,0,.91-2.33,2.8,2.8,0,0,0-.91-2.32,4.33,4.33,0,0,0-2.74-.72A4.37,4.37,0,0,0,52.7,60.14ZM71.85,79.55Q69,75.74,69,68.52t2.83-11a9.56,9.56,0,0,1,8.2-3.82,9.58,9.58,0,0,1,8.18,3.82q2.85,3.81,2.85,11t-2.83,11a9.57,9.57,0,0,1-8.2,3.82A9.56,9.56,0,0,1,71.85,79.55Zm11-4a20.58,20.58,0,0,0,.86-7,20.41,20.41,0,0,0-.86-7,2.95,2.95,0,0,0-5.66,0,20.1,20.1,0,0,0-.86,7,20.33,20.33,0,0,0,.86,7,2.95,2.95,0,0,0,5.66,0Zm13.75-10a5.87,5.87,0,0,1-2.3-2.23,6.52,6.52,0,0,1,0-6.4,6,6,0,0,1,2.32-2.25,6.53,6.53,0,0,1,3.24-.82,6.6,6.6,0,0,1,3.28.82A6,6,0,0,1,105.49,57a6.52,6.52,0,0,1,0,6.4,5.86,5.86,0,0,1-2.32,2.23,6.69,6.69,0,0,1-3.28.8A6.59,6.59,0,0,1,96.63,65.59Zm5.15-3.46a2.72,2.72,0,0,0,.78-2,2.76,2.76,0,0,0-.78-2,2.57,2.57,0,0,0-1.89-.78,2.51,2.51,0,0,0-1.87.78,2.78,2.78,0,0,0-.75,2,2.73,2.73,0,0,0,.75,2,2.51,2.51,0,0,0,1.87.78A2.57,2.57,0,0,0,101.78,62.13Z"/></svg>