<svg id="Layer_1" data-name="Layer 1" xmlns="http://www.w3.org/2000/svg" viewBox="0 0 122 122"><title>l10_1_1</title><path d="M116.6,61A55.6,55.6,0,1,1,61,5.4,55.6,55.6,0,0,1,116.6,61ZM38.72,69.11H35.53V50.67a3.36,3.36,0,0,0-1-2.53,3.44,3.44,0,0,0-2.51-.93,6.56,6.56,0,0,0-3.23,1L22.62,51.8a2.64,2.64,0,0,0-1.37,2.41A3.25,3.25,0,0,0,22,56.33a2.33,2.33,0,0,0,1.87,1,2.62,2.62,0,0,0,1.36-.38l3.11-1.83v14H25.22a4,4,0,0,0-2.57.7,2.64,2.64,0,0,0-.81,2.11c0,1.92,1.13,2.87,3.38,2.87h13.5c2.26,0,3.39-1,3.39-2.87a2.62,2.62,0,0,0-.82-2.11A3.93,3.93,0,0,0,38.72,69.11Zm21-8.44a5.88,5.88,0,0,0,3-2.3,6.74,6.74,0,0,0,1.11-3.89A6.42,6.42,0,0,0,61.19,49a12.1,12.1,0,0,0-7.37-2,12.09,12.09,0,0,0-7.35,2,6.41,6.41,0,0,0-2.73,5.46,6.68,6.68,0,0,0,1.09,3.8A6.48,6.48,0,0,0,48,60.67,6.46,6.46,0,0,0,44.29,63,6.79,6.79,0,0,0,43,67.25,6.71,6.71,0,0,0,45.9,73a13.36,13.36,0,0,0,7.92,2.09A13.32,13.32,0,0,0,61.74,73a6.71,6.71,0,0,0,2.9-5.77,6.41,6.41,0,0,0-4.9-6.58Zm-5.92,9q-4.24,0-4.24-3t4.24-3q4.24,0,4.24,3T53.82,69.7Zm0-17.28a4.18,4.18,0,0,1,2.61.68,2.66,2.66,0,0,1,.85,2.2,2.71,2.71,0,0,1-.85,2.22,4,4,0,0,1-2.61.7,4,4,0,0,1-2.61-.7,2.71,2.71,0,0,1-.85-2.22,2.66,2.66,0,0,1,.85-2.2A4.18,4.18,0,0,1,53.82,52.42ZM77.17,75.14A9.09,9.09,0,0,0,85,71.53c1.79-2.42,2.68-5.9,2.68-10.47s-.9-8-2.7-10.43A9.11,9.11,0,0,0,77.17,47a9.09,9.09,0,0,0-7.78,3.62Q66.7,54.25,66.7,61.06c0,4.57.9,8,2.69,10.47A9.09,9.09,0,0,0,77.17,75.14Zm0-5.4a2.8,2.8,0,0,1-2.69-2,19.5,19.5,0,0,1-.81-6.65,19.29,19.29,0,0,1,.81-6.63,2.8,2.8,0,0,1,5.37,0,19.11,19.11,0,0,1,.82,6.62,19.19,19.19,0,0,1-.82,6.65A2.79,2.79,0,0,1,77.17,69.74ZM96,59a6.48,6.48,0,0,0,3.11-.76,5.61,5.61,0,0,0,2.2-2.12,6.16,6.16,0,0,0,0-6.07A5.66,5.66,0,0,0,99.11,48,6.27,6.27,0,0,0,96,47.17a6.17,6.17,0,0,0-3.07.78,5.66,5.66,0,0,0-2.2,2.14,6.16,6.16,0,0,0,0,6.07,5.69,5.69,0,0,0,2.18,2.12A6.37,6.37,0,0,0,96,59Zm0-3.31A2.39,2.39,0,0,1,94.23,55a2.83,2.83,0,0,1,0-3.77A2.35,2.35,0,0,1,96,50.48a2.41,2.41,0,0,1,1.79.74,2.77,2.77,0,0,1,0,3.77A2.45,2.45,0,0,1,96,55.73Z"/></svg>