<svg id="Layer_1" data-name="Layer 1" xmlns="http://www.w3.org/2000/svg" viewBox="0 0 122 122"><title>l10_1_1</title><path d="M118.55,33.4a5.41,5.41,0,0,0-7.4,2L76.24,95.86H6.16a5.41,5.41,0,0,0-5.41,5.41h0a5.41,5.41,0,0,0,5.41,5.41h73A5.41,5.41,0,0,0,84.05,104l36.48-63.18A5.42,5.42,0,0,0,118.55,33.4Z"/><path d="M72.23,92H2.29c.59-4.51,5.26-35.87,34.3-54.5,32.72-21,67.53-7.29,70.69-6Q89.76,61.75,72.23,92ZM35.94,68.54H33.78V56.07a2.28,2.28,0,0,0-.65-1.71,2.31,2.31,0,0,0-1.69-.63,4.44,4.44,0,0,0-2.19.66L25,56.83a1.81,1.81,0,0,0-.92,1.64,2.22,2.22,0,0,0,.53,1.43,1.57,1.57,0,0,0,1.26.64,1.74,1.74,0,0,0,.92-.26L28.94,59v9.5H26.81a2.62,2.62,0,0,0-1.74.48,1.75,1.75,0,0,0-.55,1.42c0,1.3.76,2,2.29,2h9.13c1.52,0,2.29-.65,2.29-2A1.76,1.76,0,0,0,37.67,69,2.57,2.57,0,0,0,35.94,68.54Zm11.78-8.36a5.15,5.15,0,0,0-2.22.48A4.34,4.34,0,0,0,43.88,62a7,7,0,0,1,1-3.43A2.52,2.52,0,0,1,47,57.33a3.54,3.54,0,0,1,1.21.21c.39.15.87.36,1.45.64l.58.29c.33.17.59.3.79.38a1.67,1.67,0,0,0,.65.12,1.38,1.38,0,0,0,1.12-.57A2.11,2.11,0,0,0,53.3,57a1.93,1.93,0,0,0-.19-.92,2.36,2.36,0,0,0-.65-.71,8.6,8.6,0,0,0-2.64-1.32,10.43,10.43,0,0,0-3-.47,7.12,7.12,0,0,0-4.09,1.18A7.73,7.73,0,0,0,40,58.16a12.79,12.79,0,0,0-1,5.15q0,4.47,2,6.89a7,7,0,0,0,5.73,2.42,6.86,6.86,0,0,0,3.35-.81,5.93,5.93,0,0,0,2.3-2.28,7,7,0,0,0,.1-6.42,5.28,5.28,0,0,0-4.83-2.93Zm-1.21,8.73a2.12,2.12,0,0,1-1.63-.69,2.93,2.93,0,0,1,0-3.62,2.33,2.33,0,0,1,3.29,0,2.7,2.7,0,0,1,.59,1.83,2.66,2.66,0,0,1-.6,1.82A2.1,2.1,0,0,1,46.51,68.91Zm15.42,3.71a6.16,6.16,0,0,0,5.27-2.44c1.21-1.64,1.81-4,1.81-7.08s-.61-5.42-1.83-7.05a6.14,6.14,0,0,0-5.25-2.45,6.13,6.13,0,0,0-5.26,2.45q-1.81,2.45-1.81,7.05c0,3.09.6,5.44,1.81,7.08A6.15,6.15,0,0,0,61.93,72.62Zm0-3.66a1.88,1.88,0,0,1-1.81-1.36,13.1,13.1,0,0,1-.55-4.5,13,13,0,0,1,.55-4.49,1.89,1.89,0,0,1,3.63,0,13,13,0,0,1,.55,4.48,13.1,13.1,0,0,1-.55,4.5A1.88,1.88,0,0,1,61.93,69Zm12.74-7.23a4.35,4.35,0,0,0,2.1-.51,3.75,3.75,0,0,0,1.49-1.44,4.16,4.16,0,0,0,0-4.1,3.78,3.78,0,0,0-1.49-1.45,4.39,4.39,0,0,0-4.18,0,3.85,3.85,0,0,0-1.49,1.45,4.16,4.16,0,0,0,0,4.1,3.79,3.79,0,0,0,1.48,1.44A4.28,4.28,0,0,0,74.67,61.73Zm0-2.24a1.6,1.6,0,0,1-1.2-.5A1.74,1.74,0,0,1,73,57.73a1.77,1.77,0,0,1,.48-1.29,1.64,1.64,0,0,1,1.2-.5,1.66,1.66,0,0,1,1.21.5,1.75,1.75,0,0,1,.5,1.29,1.71,1.71,0,0,1-.5,1.26A1.62,1.62,0,0,1,74.67,59.49Z"/></svg>