<svg id="Layer_1" data-name="Layer 1" xmlns="http://www.w3.org/2000/svg" viewBox="0 0 122 122"><title>l10_4_1</title><path d="M61.11,25.16C42.57,25.19,30,34.33,25.2,37.93,2.2,55.18,1.54,80.13,1.73,81.58a7.36,7.36,0,0,0,1.71,4.06,4.62,4.62,0,0,0,1.87,1A5.82,5.82,0,0,0,7,86.91c1.46,0,16.71,0,37.64,0H88.74l27.09,0a4.73,4.73,0,0,0,2.58-1.49,5,5,0,0,0,1.09-4c-.25-4.22-2-25.71-20.12-41.65C95.25,36.14,81.51,25.12,61.11,25.16ZM91.89,76h0v0Zm-62-17.3q0-11.86,14.28-11.87H76.49q7.22,0,10.75,3.1t3.52,8.77q0,5.69-3.52,8.86T76.49,70.76H44.15Q29.87,70.76,29.87,58.72Z"/></svg>