<svg id="Layer_1" data-name="Layer 1" xmlns="http://www.w3.org/2000/svg" viewBox="0 0 122 122"><title>l10_2_1</title><path d="M116.55,62A55.6,55.6,0,1,1,61,6.4,55.6,55.6,0,0,1,116.55,62ZM39.67,70.11H36.48V51.67a3.4,3.4,0,0,0-.95-2.53A3.44,3.44,0,0,0,33,48.21a6.56,6.56,0,0,0-3.23,1L23.56,52.8a2.65,2.65,0,0,0-1.36,2.41A3.25,3.25,0,0,0,23,57.33a2.33,2.33,0,0,0,1.87,1,2.64,2.64,0,0,0,1.36-.38l3.11-1.83v14H26.17a4,4,0,0,0-2.57.7,2.64,2.64,0,0,0-.81,2.11c0,1.92,1.12,2.87,3.38,2.87h13.5c2.26,0,3.39-1,3.39-2.87a2.62,2.62,0,0,0-.82-2.11A3.93,3.93,0,0,0,39.67,70.11Zm23-21.75H47.38a3.81,3.81,0,0,0-2.57.72A2.71,2.71,0,0,0,44,51.24a2.63,2.63,0,0,0,.8,2.1,3.86,3.86,0,0,0,2.59.7H57.1l-10,17.09A3.68,3.68,0,0,0,46.56,73a2.85,2.85,0,0,0,1,2.24,3.55,3.55,0,0,0,2.41.91,3.36,3.36,0,0,0,1.66-.44A3.71,3.71,0,0,0,53,74.32L64.81,53.89a5,5,0,0,0,.74-2.57,3.06,3.06,0,0,0-.76-2.12A2.77,2.77,0,0,0,62.63,48.36ZM78.12,76.14a9.1,9.1,0,0,0,7.78-3.61c1.79-2.42,2.68-5.9,2.68-10.47s-.9-8-2.7-10.43A9.12,9.12,0,0,0,78.12,48a9.11,9.11,0,0,0-7.79,3.62q-2.68,3.61-2.68,10.43c0,4.57.89,8,2.68,10.47A9.11,9.11,0,0,0,78.12,76.14Zm0-5.4a2.8,2.8,0,0,1-2.69-2,19.44,19.44,0,0,1-.82-6.65,19.23,19.23,0,0,1,.82-6.63,2.8,2.8,0,0,1,5.37,0,19.11,19.11,0,0,1,.82,6.62,19.19,19.19,0,0,1-.82,6.65A2.79,2.79,0,0,1,78.12,70.74ZM97,60a6.48,6.48,0,0,0,3.11-.76,5.68,5.68,0,0,0,2.2-2.12,6.16,6.16,0,0,0,0-6.07,5.73,5.73,0,0,0-2.2-2.14,6.53,6.53,0,0,0-6.19,0,5.7,5.7,0,0,0-2.19,2.14,6.16,6.16,0,0,0,0,6.07,5.67,5.67,0,0,0,2.17,2.12A6.41,6.41,0,0,0,97,60Zm0-3.31A2.39,2.39,0,0,1,95.18,56a2.83,2.83,0,0,1,0-3.77A2.35,2.35,0,0,1,97,51.48a2.42,2.42,0,0,1,1.79.74,2.77,2.77,0,0,1,0,3.77A2.46,2.46,0,0,1,97,56.73Z"/></svg>