<svg id="Layer_1" data-name="Layer 1" xmlns="http://www.w3.org/2000/svg" viewBox="0 0 122 122"><title>l10_4_1</title><path d="M118,61.4A55.6,55.6,0,1,1,62.38,5.81,55.6,55.6,0,0,1,118,61.4ZM89.78,51.24H70.63V32.09a9,9,0,0,0-15.35-6.38,8.64,8.64,0,0,0-2.59,6.38V51.24H33.54a8.85,8.85,0,0,0-9,9,8.9,8.9,0,0,0,2.59,6.46,8.55,8.55,0,0,0,6.38,2.66H52.69v19a8.85,8.85,0,0,0,9,9,8.57,8.57,0,0,0,6.46-2.59,8.81,8.81,0,0,0,2.51-6.38v-19H89.78a8.59,8.59,0,0,0,6.39-2.66,8.94,8.94,0,0,0,2.58-6.46,8.83,8.83,0,0,0-9-9Z"/></svg>