<svg id="Layer_1" data-name="Layer 1" xmlns="http://www.w3.org/2000/svg" viewBox="0 0 122 122"><title>l10_3_1</title><path d="M115.22,61.19A55.6,55.6,0,1,1,59.62,5.6,55.6,55.6,0,0,1,115.22,61.19ZM38.34,69.31H35.15V50.86a3.24,3.24,0,0,0-3.46-3.46,6.66,6.66,0,0,0-3.23,1L22.23,52a2.66,2.66,0,0,0-1.36,2.41,3.25,3.25,0,0,0,.78,2.12,2.34,2.34,0,0,0,1.87,1,2.63,2.63,0,0,0,1.36-.39L28,55.26V69.31H24.84a3.89,3.89,0,0,0-2.57.7,2.61,2.61,0,0,0-.81,2.1C21.46,74,22.58,75,24.84,75h13.5q3.39,0,3.39-2.88a2.58,2.58,0,0,0-.82-2.1A3.87,3.87,0,0,0,38.34,69.31Zm21-8.45a5.85,5.85,0,0,0,3.06-2.29,6.77,6.77,0,0,0,1.11-3.89,6.44,6.44,0,0,0-2.71-5.47,12.1,12.1,0,0,0-7.37-2,12.09,12.09,0,0,0-7.35,2,6.43,6.43,0,0,0-2.73,5.47,6.67,6.67,0,0,0,1.09,3.79,6.44,6.44,0,0,0,3.11,2.39,6.47,6.47,0,0,0-3.65,2.32,6.83,6.83,0,0,0-1.29,4.26,6.73,6.73,0,0,0,2.9,5.78q2.9,2.09,7.92,2.08t7.92-2.08a6.86,6.86,0,0,0-2-12.36Zm-5.91,9q-4.24,0-4.24-3t4.24-3q4.25,0,4.24,3T53.44,69.89Zm0-17.28a4.11,4.11,0,0,1,2.61.69,2.62,2.62,0,0,1,.85,2.19,2.7,2.7,0,0,1-.85,2.22,4,4,0,0,1-2.61.7,4,4,0,0,1-2.61-.7A2.7,2.7,0,0,1,50,55.49a2.62,2.62,0,0,1,.85-2.19A4.11,4.11,0,0,1,53.44,52.61ZM76.79,75.34a9.11,9.11,0,0,0,7.78-3.62q2.69-3.61,2.68-10.47t-2.7-10.43a9.1,9.1,0,0,0-7.76-3.61A9.11,9.11,0,0,0,69,50.82q-2.69,3.63-2.68,10.43T69,71.72A9.11,9.11,0,0,0,76.79,75.34Zm0-5.41a2.79,2.79,0,0,1-2.69-2,19.51,19.51,0,0,1-.82-6.66,19.27,19.27,0,0,1,.82-6.63,2.79,2.79,0,0,1,5.37,0,19,19,0,0,1,.82,6.61,19.26,19.26,0,0,1-.82,6.66A2.78,2.78,0,0,1,76.79,69.93Zm18.83-10.7a6.37,6.37,0,0,0,3.11-.76,5.61,5.61,0,0,0,2.2-2.12,6.16,6.16,0,0,0,0-6.07,5.73,5.73,0,0,0-2.2-2.14,6.53,6.53,0,0,0-6.19,0,5.7,5.7,0,0,0-2.19,2.14,6.16,6.16,0,0,0,0,6.07,5.6,5.6,0,0,0,2.17,2.12A6.33,6.33,0,0,0,95.62,59.23Zm0-3.31a2.35,2.35,0,0,1-1.77-.74,2.56,2.56,0,0,1-.72-1.87,2.61,2.61,0,0,1,.72-1.9,2.39,2.39,0,0,1,1.77-.74,2.45,2.45,0,0,1,1.79.74,2.59,2.59,0,0,1,.74,1.9,2.53,2.53,0,0,1-.74,1.87A2.41,2.41,0,0,1,95.62,55.92Z"/></svg>