<svg id="Layer_1" data-name="Layer 1" xmlns="http://www.w3.org/2000/svg" viewBox="0 0 122 122"><title>l10_1_1</title><path d="M29.56,119a4.23,4.23,0,0,0,5.78-1.55l27.3-47.28h54.79a4.24,4.24,0,0,0,4.23-4.23h0a4.23,4.23,0,0,0-4.23-4.23H60.33a4.24,4.24,0,0,0-3.8,2.11L28,113.19A4.23,4.23,0,0,0,29.56,119Z"/><path d="M54.17,56.88,24.08,107.74C4.59,93.51-4,69.09,2.46,47.19,10,21.39,36.24,6.67,61.19,8.64c25.69,2,47.32,21.53,52.3,47.59ZM29.42,41.71H24.31L27.92,38a12,12,0,0,0,2.13-2.86,6.45,6.45,0,0,0,.62-2.83,4.62,4.62,0,0,0-.78-2.65,4.83,4.83,0,0,0-2.2-1.78,8.06,8.06,0,0,0-3.3-.63A10.44,10.44,0,0,0,18.77,29a1.81,1.81,0,0,0-.62.66,2.23,2.23,0,0,0-.16.92,2.19,2.19,0,0,0,.43,1.36,1.3,1.3,0,0,0,1.07.57,1.51,1.51,0,0,0,.48-.08,2.89,2.89,0,0,0,.52-.24l.39-.21.51-.26a11.33,11.33,0,0,1,1.44-.62,4,4,0,0,1,1.36-.22,2,2,0,0,1,1.41.46,1.71,1.71,0,0,1,.49,1.32,5,5,0,0,1-1.67,3.23L19,41.51a2.75,2.75,0,0,0-.86,2,1.86,1.86,0,0,0,.53,1.38,1.91,1.91,0,0,0,1.45.55h9.27A2.54,2.54,0,0,0,31.09,45a1.75,1.75,0,0,0,.54-1.42,1.7,1.7,0,0,0-.54-1.39A2.67,2.67,0,0,0,29.42,41.71Zm12.07-8.08a4.76,4.76,0,0,0-2.14.47,4,4,0,0,0-1.57,1.28,6.81,6.81,0,0,1,1-3.32,2.44,2.44,0,0,1,2.09-1.18,3.28,3.28,0,0,1,1.17.21,14.64,14.64,0,0,1,1.4.61L44,32c.32.16.57.29.76.36a1.62,1.62,0,0,0,.64.12,1.34,1.34,0,0,0,1.08-.55,2.07,2.07,0,0,0,.44-1.33,1.83,1.83,0,0,0-.19-.89,2.18,2.18,0,0,0-.62-.69,8.18,8.18,0,0,0-2.56-1.27,10,10,0,0,0-2.91-.46,6.92,6.92,0,0,0-4,1.15A7.37,7.37,0,0,0,34,31.68a12.31,12.31,0,0,0-.93,5q0,4.32,2,6.66a6.84,6.84,0,0,0,5.54,2.34,6.6,6.6,0,0,0,3.23-.79,5.75,5.75,0,0,0,2.23-2.2,6.38,6.38,0,0,0,.8-3.19,6.45,6.45,0,0,0-.7-3,5.29,5.29,0,0,0-1.92-2.08A5.14,5.14,0,0,0,41.49,33.63Zm-1.17,8.43a2,2,0,0,1-1.57-.67,2.82,2.82,0,0,1,0-3.49,2.26,2.26,0,0,1,3.17,0,2.6,2.6,0,0,1,.57,1.77,2.53,2.53,0,0,1-.58,1.75A2,2,0,0,1,40.32,42.06Zm14.9,3.59a5.93,5.93,0,0,0,5.08-2.37q1.76-2.36,1.75-6.83t-1.76-6.81a6,6,0,0,0-5.07-2.37,6,6,0,0,0-5.09,2.37Q48.38,32,48.38,36.45t1.75,6.83A6,6,0,0,0,55.22,45.65Zm0-3.54a1.83,1.83,0,0,1-1.76-1.32,12.8,12.8,0,0,1-.53-4.34,12.76,12.76,0,0,1,.53-4.34,1.83,1.83,0,0,1,3.51,0,12.46,12.46,0,0,1,.53,4.32A12.55,12.55,0,0,1,57,40.79,1.82,1.82,0,0,1,55.22,42.11Zm12.3-7a4.21,4.21,0,0,0,2-.5A3.68,3.68,0,0,0,71,33.25a4,4,0,0,0,0-4,3.8,3.8,0,0,0-1.44-1.4,4.21,4.21,0,0,0-2-.5,4.16,4.16,0,0,0-2,.5,3.8,3.8,0,0,0-1.44,1.4,4,4,0,0,0,0,4,3.65,3.65,0,0,0,1.43,1.38A4.12,4.12,0,0,0,67.52,35.13Zm0-2.16a1.53,1.53,0,0,1-1.16-.49,1.67,1.67,0,0,1-.47-1.22A1.72,1.72,0,0,1,66.36,30a1.55,1.55,0,0,1,1.16-.48,1.62,1.62,0,0,1,1.17.48,1.69,1.69,0,0,1,.48,1.24,1.64,1.64,0,0,1-.48,1.22A1.59,1.59,0,0,1,67.52,33Z"/></svg>