<svg id="Layer_1" data-name="Layer 1" xmlns="http://www.w3.org/2000/svg" viewBox="0 0 122 122"><title>l10_2_1</title><path d="M62.1,30.16C43.56,30.2,31,39.34,26.19,42.94,3.2,60.19,2.53,85.14,2.73,86.59a7.31,7.31,0,0,0,1.7,4.06,5,5,0,0,0,1.87,1A6.28,6.28,0,0,0,8,91.92c1.45,0,16.71,0,37.63,0H89.73l27.1,0a4.85,4.85,0,0,0,2.57-1.5,5.06,5.06,0,0,0,1.1-4c-.26-4.23-2-25.71-20.13-41.65C96.25,41.15,82.51,30.13,62.1,30.16ZM92.88,81h0ZM51.36,57.5q3.15,3.77,3.16,10.74a19.81,19.81,0,0,1-1.5,8,12,12,0,0,1-4.22,5.27,11.13,11.13,0,0,1-6.38,1.85,16,16,0,0,1-4.69-.74,13,13,0,0,1-4.12-2,3.66,3.66,0,0,1-1-1.11A3.06,3.06,0,0,1,32.29,78,3.31,3.31,0,0,1,33,75.88,2.2,2.2,0,0,1,34.75,75a2.56,2.56,0,0,1,1,.19c.3.12.71.32,1.23.59l.9.45a23.57,23.57,0,0,0,2.26,1,5.42,5.42,0,0,0,1.88.32,3.91,3.91,0,0,0,3.38-1.9A10.78,10.78,0,0,0,47,70.29a6.61,6.61,0,0,1-2.52,2.07,8,8,0,0,1-3.46.76,8.35,8.35,0,0,1-4.43-1.21,8.49,8.49,0,0,1-3.1-3.37,11,11,0,0,1,.17-10A9.12,9.12,0,0,1,37.21,55a10.69,10.69,0,0,1,5.21-1.27C46.28,53.72,49.25,55,51.36,57.5Zm-5.93,8.73a4.55,4.55,0,0,0,0-5.64,3.27,3.27,0,0,0-2.54-1.09,3.23,3.23,0,0,0-2.54,1.07,4.1,4.1,0,0,0-.94,2.83,4.14,4.14,0,0,0,.92,2.85,3.22,3.22,0,0,0,2.56,1A3.27,3.27,0,0,0,45.43,66.23ZM59.85,79.55Q57,75.74,57,68.52t2.83-11a9.55,9.55,0,0,1,8.2-3.82,9.58,9.58,0,0,1,8.18,3.82c1.89,2.54,2.85,6.2,2.85,11s-1,8.49-2.83,11a9.57,9.57,0,0,1-8.2,3.82A9.55,9.55,0,0,1,59.85,79.55Zm11-4a20.28,20.28,0,0,0,.87-7,20.1,20.1,0,0,0-.87-7,2.94,2.94,0,0,0-5.65,0,20.1,20.1,0,0,0-.86,7,20.33,20.33,0,0,0,.86,7,2.94,2.94,0,0,0,5.65,0Zm13.76-10a5.87,5.87,0,0,1-2.3-2.23,6.52,6.52,0,0,1,0-6.4,6,6,0,0,1,2.32-2.25,6.5,6.5,0,0,1,3.24-.82,6.6,6.6,0,0,1,3.28.82A6,6,0,0,1,93.49,57a6.52,6.52,0,0,1,0,6.4,5.86,5.86,0,0,1-2.32,2.23,6.69,6.69,0,0,1-3.28.8A6.59,6.59,0,0,1,84.63,65.59Zm5.15-3.46a2.71,2.71,0,0,0,.77-2,2.75,2.75,0,0,0-.77-2,2.57,2.57,0,0,0-1.89-.78,2.51,2.51,0,0,0-1.87.78,2.78,2.78,0,0,0-.75,2,2.73,2.73,0,0,0,.75,2,2.51,2.51,0,0,0,1.87.78A2.57,2.57,0,0,0,89.78,62.13Z"/></svg>