<svg id="Layer_1" data-name="Layer 1" xmlns="http://www.w3.org/2000/svg" viewBox="0 0 122 122"><title>l10_1_1</title><path d="M120.05,108a.76.76,0,0,0,.08-.11,7.73,7.73,0,0,0,1.17-2.69.25.25,0,0,1,0-.07c0-.17.06-.34.08-.52a2,2,0,0,0,0-.26c0-.13,0-.26,0-.39s0-.27,0-.41,0-.05,0-.08a2.11,2.11,0,0,0,0-.26,3.17,3.17,0,0,0,0-.44c0-.13,0-.25,0-.37l-.06-.39c0-.14-.06-.29-.1-.43s-.05-.2-.08-.31-.1-.32-.16-.48l-.09-.24c-.07-.18-.15-.35-.23-.52s0-.1-.07-.15l-.08-.15h0L72.3,5.75A7.84,7.84,0,0,0,61.74,2.36h0a7.84,7.84,0,0,0-3.4,10.56L100.8,95.61H7.85a7.85,7.85,0,1,0,0,15.7h105.8l.26,0,.43,0,.4,0,.36,0,.46-.11.27-.07a4.72,4.72,0,0,0,.53-.18l.19-.07a4.29,4.29,0,0,0,.58-.26l.1,0,0,0,.56-.32L118,110c.16-.11.32-.22.47-.34l.17-.13c.13-.1.25-.22.37-.33l.21-.19.32-.34c.06-.08.13-.14.19-.21S119.93,108.15,120.05,108Z"/><path d="M91.62,90.19l-91,.13A86.42,86.42,0,0,1,16.14,38.8,85.75,85.75,0,0,1,50.75,10.34ZM25.79,65.41a6,6,0,0,0,2.93-2.23,6.11,6.11,0,0,0,1.05-3.55,6.42,6.42,0,0,0-1.12-3.76,7.23,7.23,0,0,0-3.21-2.51,12.21,12.21,0,0,0-4.81-.88,14.78,14.78,0,0,0-4.36.66A12.21,12.21,0,0,0,12.53,55a2.91,2.91,0,0,0-.89,1,2.87,2.87,0,0,0-.26,1.29A3,3,0,0,0,12,59.2a1.9,1.9,0,0,0,1.55.79,2.43,2.43,0,0,0,.92-.16,11.7,11.7,0,0,0,1.1-.54l.78-.36a19,19,0,0,1,2-.89,5.55,5.55,0,0,1,1.93-.33,3.14,3.14,0,0,1,2.25.76,2.74,2.74,0,0,1,.81,2.11,2.07,2.07,0,0,1-.92,1.88,5.6,5.6,0,0,1-3,.59H17.87a2.09,2.09,0,0,0-1.73.78,3,3,0,0,0,0,3.68,2.09,2.09,0,0,0,1.73.77h2.28a5.56,5.56,0,0,1,3,.63A2.33,2.33,0,0,1,24.1,71a2.56,2.56,0,0,1-.91,2.22,5.12,5.12,0,0,1-3,.66,7,7,0,0,1-2.12-.31A15.85,15.85,0,0,1,16,72.63l-.46-.2-.35-.17c-.47-.24-.84-.42-1.11-.53a2.4,2.4,0,0,0-.92-.17,1.89,1.89,0,0,0-1.54.8A3,3,0,0,0,11,74.29a2.77,2.77,0,0,0,.26,1.27,2.83,2.83,0,0,0,.88,1A11.88,11.88,0,0,0,16,78.44a16.4,16.4,0,0,0,4.61.64,13.83,13.83,0,0,0,5.21-.9,7.76,7.76,0,0,0,3.45-2.56,6.44,6.44,0,0,0,1.21-3.91,6.53,6.53,0,0,0-1.23-4A6.26,6.26,0,0,0,25.79,65.41ZM43.22,79.12a8.59,8.59,0,0,0,7.37-3.43q2.55-3.42,2.54-9.91T50.57,55.9a8.63,8.63,0,0,0-7.35-3.42,8.62,8.62,0,0,0-7.37,3.42q-2.54,3.43-2.54,9.88t2.54,9.91A8.6,8.6,0,0,0,43.22,79.12Zm0-5.12a2.63,2.63,0,0,1-2.54-1.92,18.22,18.22,0,0,1-.78-6.3,18,18,0,0,1,.78-6.28,2.64,2.64,0,0,1,5.08,0,18,18,0,0,1,.78,6.26,18.22,18.22,0,0,1-.78,6.3A2.63,2.63,0,0,1,43.22,74ZM61.06,63.86A6,6,0,0,0,64,63.14a5.14,5.14,0,0,0,2.08-2,5.82,5.82,0,0,0,0-5.75,5.34,5.34,0,0,0-2.08-2,6.17,6.17,0,0,0-5.86,0,5.48,5.48,0,0,0-2.08,2,5.89,5.89,0,0,0,0,5.75,5.24,5.24,0,0,0,2.07,2A5.94,5.94,0,0,0,61.06,63.86Zm0-3.13a2.23,2.23,0,0,1-1.68-.7,2.4,2.4,0,0,1-.68-1.77,2.44,2.44,0,0,1,.68-1.8,2.23,2.23,0,0,1,1.68-.7,2.3,2.3,0,0,1,1.69.7,2.42,2.42,0,0,1,.7,1.8,2.38,2.38,0,0,1-.7,1.77A2.3,2.3,0,0,1,61.06,60.73Z"/></svg>