<svg id="Layer_1" data-name="Layer 1" xmlns="http://www.w3.org/2000/svg" viewBox="0 0 122 122"><title>l10_4_1</title><path d="M61.47,24.19c-18.54,0-31.11,9.18-35.91,12.77C2.57,54.21,1.9,79.16,2.1,80.61a7.4,7.4,0,0,0,1.7,4.07,4.78,4.78,0,0,0,1.87,1A6.44,6.44,0,0,0,7.33,86C8.78,86,24,86,45,86H89.1l27.1,0a4.85,4.85,0,0,0,2.57-1.5,5.08,5.08,0,0,0,1.1-4c-.25-4.22-2-25.71-20.13-41.65C95.62,35.18,81.88,24.15,61.47,24.19ZM92.25,75.05h0v0ZM81.11,51.32a5.14,5.14,0,0,1,1.53,3.78,5.3,5.3,0,0,1-1.53,3.83,5.06,5.06,0,0,1-3.78,1.57H66V71.75a5.21,5.21,0,0,1-1.48,3.78,5.34,5.34,0,0,1-9.14-3.78V60.5H44a5.06,5.06,0,0,1-3.78-1.57,5.3,5.3,0,0,1-1.53-3.83A5.23,5.23,0,0,1,44,49.79H55.37V38.45a5.31,5.31,0,1,1,10.62,0V49.79H77.33A5.14,5.14,0,0,1,81.11,51.32Z"/></svg>