<svg id="Layer_1" data-name="Layer 1" xmlns="http://www.w3.org/2000/svg" viewBox="0 0 122 122"><title>l10_2_1</title><path d="M117.12,61.15A55.6,55.6,0,1,1,61.52,5.56,55.6,55.6,0,0,1,117.12,61.15Zm-80.18-.33A6.27,6.27,0,0,0,40,58.47a6.47,6.47,0,0,0,1.11-3.75,6.79,6.79,0,0,0-1.19-4,7.62,7.62,0,0,0-3.38-2.65,13,13,0,0,0-5.08-.93,15.49,15.49,0,0,0-4.61.7,12.67,12.67,0,0,0-3.95,1.94,3.17,3.17,0,0,0-.93,1,3,3,0,0,0-.28,1.37,3.2,3.2,0,0,0,.66,2,2,2,0,0,0,1.64.84,2.47,2.47,0,0,0,1-.18c.29-.12.68-.3,1.17-.56L27,54A21.18,21.18,0,0,1,29.1,53a5.91,5.91,0,0,1,2-.35,3.35,3.35,0,0,1,2.37.8,2.92,2.92,0,0,1,.86,2.24,2.18,2.18,0,0,1-1,2,5.94,5.94,0,0,1-3.12.62H28.57a2.24,2.24,0,0,0-1.83.82,3,3,0,0,0-.66,2A3,3,0,0,0,26.74,63a2.21,2.21,0,0,0,1.83.82H31a5.84,5.84,0,0,1,3.19.66,2.45,2.45,0,0,1,1,2.18,2.68,2.68,0,0,1-1,2.33,5.35,5.35,0,0,1-3.13.71,6.84,6.84,0,0,1-2.24-.34,16.62,16.62,0,0,1-2.23-1l-.49-.21-.37-.18a11.24,11.24,0,0,0-1.17-.56,2.47,2.47,0,0,0-1-.18,2,2,0,0,0-1.63.84,3.21,3.21,0,0,0-.67,2,3,3,0,0,0,.28,1.34,3,3,0,0,0,.93,1.07,12.33,12.33,0,0,0,4.05,2,17.35,17.35,0,0,0,4.86.68,14.75,14.75,0,0,0,5.51-1,8.23,8.23,0,0,0,3.64-2.71,6.8,6.8,0,0,0,1.28-4.12,6.94,6.94,0,0,0-1.3-4.24A6.67,6.67,0,0,0,36.94,60.82ZM57.68,56.9a7.48,7.48,0,0,0-3.29.71,6.22,6.22,0,0,0-2.4,2,10.48,10.48,0,0,1,1.46-5.08,3.75,3.75,0,0,1,3.21-1.81,5.34,5.34,0,0,1,1.79.31,22.6,22.6,0,0,1,2.14.94l.86.43c.49.26.88.44,1.17.56a2.47,2.47,0,0,0,1,.18,2,2,0,0,0,1.65-.84,3.1,3.1,0,0,0,.68-2,2.84,2.84,0,0,0-.29-1.37,3.38,3.38,0,0,0-.95-1,12.23,12.23,0,0,0-3.91-1.94,15,15,0,0,0-4.46-.7,10.52,10.52,0,0,0-6.05,1.75,11.3,11.3,0,0,0-4,5,18.77,18.77,0,0,0-1.42,7.6c0,4.42,1,7.81,3,10.2s4.83,3.58,8.48,3.58a10,10,0,0,0,4.95-1.21,8.65,8.65,0,0,0,3.4-3.36,9.71,9.71,0,0,0,1.23-4.89,9.85,9.85,0,0,0-1.07-4.61A8.16,8.16,0,0,0,61.88,58,7.92,7.92,0,0,0,57.68,56.9ZM55.89,69.81a3.12,3.12,0,0,1-2.42-1,3.82,3.82,0,0,1-.93-2.66,3.86,3.86,0,0,1,.91-2.69,3.14,3.14,0,0,1,2.44-1,3.09,3.09,0,0,1,2.43,1,4,4,0,0,1,.87,2.71,3.92,3.92,0,0,1-.89,2.68A3,3,0,0,1,55.89,69.81Zm22.8,5.49a9.09,9.09,0,0,0,7.78-3.62q2.69-3.62,2.68-10.47t-2.7-10.42a9.08,9.08,0,0,0-7.76-3.62,9.07,9.07,0,0,0-7.78,3.62q-2.68,3.62-2.69,10.42t2.69,10.47A9.09,9.09,0,0,0,78.69,75.3Zm0-5.41a2.79,2.79,0,0,1-2.69-2,19.56,19.56,0,0,1-.81-6.66A19.36,19.36,0,0,1,76,54.58a2.8,2.8,0,0,1,5.37,0,19,19,0,0,1,.82,6.61,19.26,19.26,0,0,1-.82,6.66A2.78,2.78,0,0,1,78.69,69.89Zm18.83-10.7a6.37,6.37,0,0,0,3.11-.76,5.48,5.48,0,0,0,2.2-2.12,6.16,6.16,0,0,0,0-6.07,5.66,5.66,0,0,0-2.2-2.14,6.27,6.27,0,0,0-3.11-.78,6.17,6.17,0,0,0-3.07.78,5.66,5.66,0,0,0-2.2,2.14,6.16,6.16,0,0,0,0,6.07,5.49,5.49,0,0,0,2.18,2.12A6.26,6.26,0,0,0,97.52,59.19Zm0-3.31a2.35,2.35,0,0,1-1.77-.74A2.55,2.55,0,0,1,95,53.28a2.62,2.62,0,0,1,.72-1.91,2.39,2.39,0,0,1,1.77-.74,2.45,2.45,0,0,1,1.79.74,2.59,2.59,0,0,1,.74,1.91,2.52,2.52,0,0,1-.74,1.86A2.41,2.41,0,0,1,97.52,55.88Z"/></svg>