<svg id="Layer_1" data-name="Layer 1" xmlns="http://www.w3.org/2000/svg" viewBox="0 0 122 122"><title>l10_1_1</title><path d="M110.75,2.45h0A7.58,7.58,0,0,0,103.17,10v94.58H8.58A7.59,7.59,0,0,0,1,112.19H1a7.58,7.58,0,0,0,7.58,7.58H110.75a7.58,7.58,0,0,0,7.58-7.58h0V10A7.58,7.58,0,0,0,110.75,2.45Z"/><path d="M95.94,97.84H6.69c.84-8.52,5-40.38,32-66.1A105.8,105.8,0,0,1,95.94,4.07ZM44.26,64.56a5.55,5.55,0,0,0,2.89-2.17A6.41,6.41,0,0,0,48.2,58.7a6.08,6.08,0,0,0-2.56-5.17,11.45,11.45,0,0,0-7-1.9,11.45,11.45,0,0,0-7,1.9,6.07,6.07,0,0,0-2.58,5.17,6.27,6.27,0,0,0,1,3.6,6,6,0,0,0,3,2.26,6.22,6.22,0,0,0-3.47,2.19,6.51,6.51,0,0,0-1.21,4,6.35,6.35,0,0,0,2.74,5.47,12.6,12.6,0,0,0,7.5,2,12.6,12.6,0,0,0,7.5-2,6.35,6.35,0,0,0,2.74-5.47,6.49,6.49,0,0,0-1.19-4A6.4,6.4,0,0,0,44.26,64.56Zm-5.6,8.55q-4,0-4-2.87t4-2.88q4,0,4,2.88T38.66,73.11Zm0-16.36a3.94,3.94,0,0,1,2.47.65,2.5,2.5,0,0,1,.81,2.08,2.55,2.55,0,0,1-.81,2.1,3.87,3.87,0,0,1-2.47.66,3.86,3.86,0,0,1-2.47-.66,2.55,2.55,0,0,1-.81-2.1,2.5,2.5,0,0,1,.81-2.08A3.92,3.92,0,0,1,38.66,56.75ZM60.77,78.27a8.6,8.6,0,0,0,7.37-3.43q2.53-3.42,2.54-9.91t-2.56-9.87a8.62,8.62,0,0,0-7.35-3.43,8.59,8.59,0,0,0-7.37,3.43q-2.55,3.42-2.54,9.87t2.54,9.91A8.59,8.59,0,0,0,60.77,78.27Zm0-5.12a2.63,2.63,0,0,1-2.54-1.92,18.22,18.22,0,0,1-.78-6.3,18,18,0,0,1,.78-6.28,2.64,2.64,0,0,1,5.08,0,18.05,18.05,0,0,1,.77,6.26,18.28,18.28,0,0,1-.77,6.3A2.64,2.64,0,0,1,60.77,73.15ZM78.6,63a6.07,6.07,0,0,0,3-.71,5.29,5.29,0,0,0,2.08-2,5.82,5.82,0,0,0,0-5.75,5.41,5.41,0,0,0-2.08-2,6.24,6.24,0,0,0-5.86,0,5.41,5.41,0,0,0-2.08,2,5.82,5.82,0,0,0,0,5.75,5.31,5.31,0,0,0,2.06,2A6,6,0,0,0,78.6,63Zm0-3.13a2.22,2.22,0,0,1-1.67-.7,2.4,2.4,0,0,1-.69-1.77,2.45,2.45,0,0,1,.69-1.8,2.22,2.22,0,0,1,1.67-.7,2.3,2.3,0,0,1,1.7.7,2.46,2.46,0,0,1,.7,1.8,2.4,2.4,0,0,1-.7,1.77A2.3,2.3,0,0,1,78.6,59.88Z"/></svg>