<svg id="Layer_1" data-name="Layer 1" xmlns="http://www.w3.org/2000/svg" viewBox="0 0 122 122"><title>l10_2_1</title><path d="M117.12,61.28a55.6,55.6,0,1,1-55.6-55.6A55.6,55.6,0,0,1,117.12,61.28ZM36.94,61A6.27,6.27,0,0,0,40,58.6a6.48,6.48,0,0,0,1.11-3.76,6.84,6.84,0,0,0-1.19-4,7.6,7.6,0,0,0-3.38-2.64,13,13,0,0,0-5.08-.94,15.5,15.5,0,0,0-4.61.71,12.67,12.67,0,0,0-3.95,1.94A3.17,3.17,0,0,0,22,51a2.92,2.92,0,0,0-.28,1.36,3.21,3.21,0,0,0,.66,2,2,2,0,0,0,1.64.83,2.66,2.66,0,0,0,1-.17q.44-.18,1.17-.57L27,54.1a20.93,20.93,0,0,1,2.12-.93,5.91,5.91,0,0,1,2-.35,3.35,3.35,0,0,1,2.37.8,2.92,2.92,0,0,1,.86,2.24,2.19,2.19,0,0,1-1,2,6,6,0,0,1-3.12.62H28.57a2.21,2.21,0,0,0-1.83.82,3.2,3.2,0,0,0,0,3.89,2.21,2.21,0,0,0,1.83.82H31a5.84,5.84,0,0,1,3.19.66,2.45,2.45,0,0,1,1,2.18,2.68,2.68,0,0,1-1,2.33,5.36,5.36,0,0,1-3.13.7,7.12,7.12,0,0,1-2.24-.33,18,18,0,0,1-2.23-1l-.49-.22-.37-.17a11.24,11.24,0,0,0-1.17-.56,2.47,2.47,0,0,0-1-.18,2,2,0,0,0-1.63.84,3.19,3.19,0,0,0-.67,2,3,3,0,0,0,.28,1.34,3,3,0,0,0,.93,1.07,12.53,12.53,0,0,0,4.05,2,17.35,17.35,0,0,0,4.86.68,14.54,14.54,0,0,0,5.51-1,8.14,8.14,0,0,0,3.64-2.7,6.82,6.82,0,0,0,1.28-4.12,7,7,0,0,0-1.3-4.25A6.66,6.66,0,0,0,36.94,61Zm26.77,4h-.86V51a3.3,3.3,0,0,0-1.05-2.6,3.64,3.64,0,0,0-2.53-.94,3.93,3.93,0,0,0-1.73.41A3.52,3.52,0,0,0,56.16,49L45,64.88a4.38,4.38,0,0,0-.86,2.57A3,3,0,0,0,45,69.59a2.93,2.93,0,0,0,2.22.86h8.68v1.32a3.45,3.45,0,0,0,1,2.65,3.53,3.53,0,0,0,2.51.89,3.62,3.62,0,0,0,2.53-.89,3.42,3.42,0,0,0,1-2.65V70.45h.86q3.37,0,3.38-2.77T63.71,65ZM51.22,65l4.67-6.73V65ZM78.69,75.43a9.09,9.09,0,0,0,7.78-3.62q2.69-3.61,2.68-10.47t-2.7-10.43a9.11,9.11,0,0,0-7.76-3.62,9.09,9.09,0,0,0-7.78,3.62q-2.68,3.63-2.69,10.43t2.69,10.47A9.09,9.09,0,0,0,78.69,75.43Zm0-5.41A2.8,2.8,0,0,1,76,68a19.56,19.56,0,0,1-.81-6.66A19.29,19.29,0,0,1,76,54.71a2.79,2.79,0,0,1,5.37,0,19,19,0,0,1,.82,6.61A19.26,19.26,0,0,1,81.37,68,2.79,2.79,0,0,1,78.69,70Zm18.83-10.7a6.37,6.37,0,0,0,3.11-.76,5.54,5.54,0,0,0,2.2-2.12,6.16,6.16,0,0,0,0-6.07,5.66,5.66,0,0,0-2.2-2.14,6.27,6.27,0,0,0-3.11-.78,6.17,6.17,0,0,0-3.07.78,5.66,5.66,0,0,0-2.2,2.14,6.16,6.16,0,0,0,0,6.07,5.56,5.56,0,0,0,2.18,2.12A6.26,6.26,0,0,0,97.52,59.32Zm0-3.31a2.39,2.39,0,0,1-1.77-.74A2.56,2.56,0,0,1,95,53.4a2.61,2.61,0,0,1,.72-1.9,2.35,2.35,0,0,1,1.77-.74,2.41,2.41,0,0,1,1.79.74,2.59,2.59,0,0,1,.74,1.9,2.53,2.53,0,0,1-.74,1.87A2.45,2.45,0,0,1,97.52,56Z"/></svg>