<svg id="Layer_1" data-name="Layer 1" xmlns="http://www.w3.org/2000/svg" viewBox="0 0 122 122"><title>l10_3_1</title><path d="M64.42,34.05c-18.54,0-31.11,9.18-35.91,12.78C5.51,64.07,4.85,89,5.05,90.47a7.32,7.32,0,0,0,1.7,4.07,4.72,4.72,0,0,0,1.87,1,6,6,0,0,0,1.66.26c1.45,0,16.71,0,37.63,0H92.05l27.1,0a4.85,4.85,0,0,0,2.57-1.5,5,5,0,0,0,1.09-4c-.25-4.23-2-25.72-20.12-41.66C98.57,45,84.83,34,64.42,34.05ZM95.2,84.92h0v0ZM45.37,81.76a2.69,2.69,0,0,1,.84,2.16c0,2-1.16,3-3.48,3H28.85c-2.32,0-3.48-1-3.48-3a2.69,2.69,0,0,1,.84-2.16A4,4,0,0,1,28.85,81h3.24V66.6l-3.2,1.88a2.69,2.69,0,0,1-1.4.4,2.38,2.38,0,0,1-1.92-1,3.38,3.38,0,0,1-.8-2.18,2.73,2.73,0,0,1,1.4-2.48l6.4-3.72a6.82,6.82,0,0,1,3.32-1,3.34,3.34,0,0,1,3.56,3.56V81h3.28A4,4,0,0,1,45.37,81.76ZM67,74.84a7.13,7.13,0,0,1,1.34,4.36,7,7,0,0,1-1.32,4.24,8.41,8.41,0,0,1-3.74,2.78,14.87,14.87,0,0,1-5.66,1,17.66,17.66,0,0,1-5-.7,12.7,12.7,0,0,1-4.16-2,3.13,3.13,0,0,1-1-1.1A3.06,3.06,0,0,1,47.25,82a3.33,3.33,0,0,1,.68-2.1A2.07,2.07,0,0,1,49.61,79a2.62,2.62,0,0,1,1,.18c.29.12.69.32,1.2.58a3.43,3.43,0,0,0,.38.18l.5.22a16.4,16.4,0,0,0,2.3,1,7.17,7.17,0,0,0,2.3.34,5.55,5.55,0,0,0,3.22-.72,2.79,2.79,0,0,0,1-2.4,2.51,2.51,0,0,0-1-2.24,6.05,6.05,0,0,0-3.28-.68H54.73a2.28,2.28,0,0,1-1.88-.84,3.28,3.28,0,0,1,0-4,2.28,2.28,0,0,1,1.88-.84h1.76a6.09,6.09,0,0,0,3.2-.64,2.22,2.22,0,0,0,1-2,3,3,0,0,0-.88-2.3A3.48,3.48,0,0,0,57.37,64a6,6,0,0,0-2.1.36,21.93,21.93,0,0,0-2.18,1l-.84.4c-.51.27-.91.46-1.2.58a2.62,2.62,0,0,1-1,.18,2,2,0,0,1-1.68-.86,3.29,3.29,0,0,1-.68-2.1,3.09,3.09,0,0,1,.28-1.4,3.37,3.37,0,0,1,1-1.08A13.39,13.39,0,0,1,53,59a16,16,0,0,1,4.74-.72,13.28,13.28,0,0,1,5.22,1A7.81,7.81,0,0,1,66.43,62a7,7,0,0,1,1.22,4.08,6.63,6.63,0,0,1-1.14,3.86,6.43,6.43,0,0,1-3.18,2.42A6.84,6.84,0,0,1,67,74.84Zm21.8-5.26A8.11,8.11,0,0,1,92,72.78a9.66,9.66,0,0,1,1.14,4.74,9.42,9.42,0,0,1-1.36,5.08A9,9,0,0,1,87.93,86a13,13,0,0,1-5.72,1.2,16.73,16.73,0,0,1-4.86-.72,13.06,13.06,0,0,1-4.1-2,3.39,3.39,0,0,1-.94-1.1A2.93,2.93,0,0,1,72,82a3.33,3.33,0,0,1,.68-2.1A2.07,2.07,0,0,1,74.37,79a2.87,2.87,0,0,1,1,.16,13,13,0,0,1,1.2.6l.8.4a22.61,22.61,0,0,0,2.26,1,6.63,6.63,0,0,0,2.22.36,5.12,5.12,0,0,0,3.32-.9,3.47,3.47,0,0,0,1.08-2.82A3.55,3.55,0,0,0,85.13,75,4.57,4.57,0,0,0,82,74a11.16,11.16,0,0,0-2.18.2,15.75,15.75,0,0,0-2.3.72,3.75,3.75,0,0,1-1.8.44,2.77,2.77,0,0,1-1.88-.66A2.18,2.18,0,0,1,73.09,73V62.12a3.08,3.08,0,0,1,3.4-3.44h12.4q3.48,0,3.48,2.76t-3.48,2.8H80.25v4.92a10,10,0,0,1,4-.72A9.25,9.25,0,0,1,88.83,69.58Zm9.6.32a5.72,5.72,0,0,1-2.24-2.18,6.1,6.1,0,0,1,2.26-8.44,6.42,6.42,0,0,1,3.16-.8,6.52,6.52,0,0,1,3.2.8,6,6,0,0,1,2.26,2.2,6.35,6.35,0,0,1,0,6.24,5.71,5.71,0,0,1-2.26,2.18,6.62,6.62,0,0,1-3.2.78A6.49,6.49,0,0,1,98.43,69.9Zm5-3.38a2.57,2.57,0,0,0,.76-1.92,2.64,2.64,0,0,0-.76-2,2.54,2.54,0,0,0-1.84-.76,2.46,2.46,0,0,0-1.82.76,2.67,2.67,0,0,0-.74,2,2.59,2.59,0,0,0,.74,1.92,2.42,2.42,0,0,0,1.82.76A2.5,2.5,0,0,0,103.45,66.52Z"/></svg>