<svg id="Layer_1" data-name="Layer 1" xmlns="http://www.w3.org/2000/svg" viewBox="0 0 122 122"><title>l10_3_1</title><path d="M62.27,31.18c-18.54,0-31.12,9.18-35.91,12.77C3.36,61.2,2.7,86.15,2.9,87.6a7.32,7.32,0,0,0,1.7,4.07,4.72,4.72,0,0,0,1.87,1,6.38,6.38,0,0,0,1.66.26c1.45,0,16.7,0,37.63,0H89.9c8.78,0,18.31,0,27.09,0a4.73,4.73,0,0,0,2.58-1.49,5,5,0,0,0,1.09-4c-.25-4.22-2-25.71-20.12-41.65C96.41,42.17,82.68,31.14,62.27,31.18ZM93.05,82h0v0ZM43.22,78.89a2.69,2.69,0,0,1,.84,2.16c0,2-1.16,3-3.48,3H26.7c-2.32,0-3.48-1-3.48-3a2.69,2.69,0,0,1,.84-2.16,4,4,0,0,1,2.64-.72h3.24V63.73l-3.2,1.88a2.71,2.71,0,0,1-1.4.4,2.38,2.38,0,0,1-1.92-1,3.32,3.32,0,0,1-.8-2.18A2.71,2.71,0,0,1,24,60.37l6.4-3.72a6.82,6.82,0,0,1,3.32-1,3.53,3.53,0,0,1,2.58,1,3.49,3.49,0,0,1,1,2.6v19h3.28A4,4,0,0,1,43.22,78.89Zm4.88,1.76q-2.76-3.72-2.76-10.76T48.1,59.17a9.34,9.34,0,0,1,8-3.72,9.38,9.38,0,0,1,8,3.72q2.78,3.72,2.78,10.72T64.1,80.65a9.35,9.35,0,0,1-8,3.72A9.34,9.34,0,0,1,48.1,80.65Zm10.76-3.92a19.86,19.86,0,0,0,.84-6.84,19.79,19.79,0,0,0-.84-6.8,2.88,2.88,0,0,0-5.52,0,19.77,19.77,0,0,0-.84,6.82,19.86,19.86,0,0,0,.84,6.84,2.87,2.87,0,0,0,5.52,0Zm27.82-10a8.17,8.17,0,0,1,3.16,3.2A9.66,9.66,0,0,1,91,74.65a9.5,9.5,0,0,1-1.36,5.08,9,9,0,0,1-3.84,3.4,13,13,0,0,1-5.72,1.2,16.63,16.63,0,0,1-4.86-.72,13,13,0,0,1-4.1-2,3.39,3.39,0,0,1-.94-1.1,2.93,2.93,0,0,1-.3-1.38,3.27,3.27,0,0,1,.68-2.1,2.07,2.07,0,0,1,1.68-.86,2.87,2.87,0,0,1,1,.16q.39.17,1.2.6l.8.4a21.66,21.66,0,0,0,2.26,1,6.63,6.63,0,0,0,2.22.36,5.12,5.12,0,0,0,3.32-.9,3.47,3.47,0,0,0,1.08-2.82A3.59,3.59,0,0,0,83,72.13a4.57,4.57,0,0,0-3.12-1,11.16,11.16,0,0,0-2.18.2,15.39,15.39,0,0,0-2.3.72,3.75,3.75,0,0,1-1.8.44,2.75,2.75,0,0,1-1.88-.66,2.18,2.18,0,0,1-.76-1.74V59.25a3.46,3.46,0,0,1,.88-2.56,3.42,3.42,0,0,1,2.52-.88h12.4q3.48,0,3.48,2.76t-3.48,2.8H78.1v4.92a10,10,0,0,1,4-.72A9.25,9.25,0,0,1,86.68,66.71Zm9.6.32A5.66,5.66,0,0,1,94,64.85a6.35,6.35,0,0,1,0-6.24,5.9,5.9,0,0,1,2.26-2.2,6.42,6.42,0,0,1,3.16-.8,6.52,6.52,0,0,1,3.2.8,6,6,0,0,1,2.26,2.2,6.35,6.35,0,0,1,0,6.24A5.71,5.71,0,0,1,102.66,67a6.62,6.62,0,0,1-3.2.78A6.46,6.46,0,0,1,96.28,67Zm5-3.38a2.61,2.61,0,0,0,.76-1.92,2.68,2.68,0,0,0-.76-2A2.54,2.54,0,0,0,99.46,59a2.46,2.46,0,0,0-1.82.76,2.67,2.67,0,0,0-.74,2,2.59,2.59,0,0,0,.74,1.92,2.42,2.42,0,0,0,1.82.76A2.5,2.5,0,0,0,101.3,63.65Z"/></svg>