<svg id="Layer_1" data-name="Layer 1" xmlns="http://www.w3.org/2000/svg" viewBox="0 0 122 122"><title>l10_1_1</title><path d="M117.1,62.07A55.6,55.6,0,1,1,61.5,6.47,55.59,55.59,0,0,1,117.1,62.07ZM39.23,70.18H36V51.74a3.39,3.39,0,0,0-.95-2.53,3.43,3.43,0,0,0-2.51-.94,6.55,6.55,0,0,0-3.23,1l-6.23,3.61a2.65,2.65,0,0,0-1.36,2.42,3.27,3.27,0,0,0,.78,2.12,2.35,2.35,0,0,0,1.86,1A2.69,2.69,0,0,0,25.77,58l3.11-1.83V70.18H25.73a3.87,3.87,0,0,0-2.57.7,2.61,2.61,0,0,0-.82,2.1q0,2.88,3.39,2.88h13.5c2.26,0,3.38-1,3.38-2.88a2.63,2.63,0,0,0-.81-2.1A3.89,3.89,0,0,0,39.23,70.18ZM56.66,57.81a7.51,7.51,0,0,0-3.29.72,6.17,6.17,0,0,0-2.39,2,10.38,10.38,0,0,1,1.46-5.08,3.75,3.75,0,0,1,3.21-1.81,5.15,5.15,0,0,1,1.79.32,20.8,20.8,0,0,1,2.14.93l.86.43c.49.26.88.44,1.16.56a2.5,2.5,0,0,0,1,.18,2.08,2.08,0,0,0,1.66-.84,3.16,3.16,0,0,0,.68-2,2.88,2.88,0,0,0-.29-1.36,3.46,3.46,0,0,0-1-1.06,12.44,12.44,0,0,0-3.91-1.94,15,15,0,0,0-4.45-.7,10.5,10.5,0,0,0-6,1.75,11.31,11.31,0,0,0-4,5,18.82,18.82,0,0,0-1.42,7.61q0,6.61,3,10.19t8.48,3.58A10,10,0,0,0,60.24,75a8.67,8.67,0,0,0,3.41-3.36,10.44,10.44,0,0,0,.15-9.5A8,8,0,0,0,60.86,59,7.88,7.88,0,0,0,56.66,57.81ZM54.87,70.72a3.08,3.08,0,0,1-2.41-1A3.81,3.81,0,0,1,51.52,67a3.87,3.87,0,0,1,.92-2.69,3.13,3.13,0,0,1,2.43-1,3.06,3.06,0,0,1,2.43,1A4,4,0,0,1,58.18,67a3.88,3.88,0,0,1-.9,2.68A3,3,0,0,1,54.87,70.72Zm22.8,5.49a9.09,9.09,0,0,0,7.78-3.62Q88.14,69,88.14,62.13T85.43,51.7a9.08,9.08,0,0,0-7.76-3.62,9.07,9.07,0,0,0-7.78,3.62q-2.69,3.61-2.68,10.43t2.68,10.46A9.09,9.09,0,0,0,77.67,76.21Zm0-5.41a2.78,2.78,0,0,1-2.68-2,19.23,19.23,0,0,1-.82-6.65A19.09,19.09,0,0,1,75,55.49a2.8,2.8,0,0,1,5.37,0,19.38,19.38,0,0,1,.81,6.62,19.54,19.54,0,0,1-.81,6.65A2.79,2.79,0,0,1,77.67,70.8ZM96.5,60.1a6.4,6.4,0,0,0,3.12-.76,5.6,5.6,0,0,0,2.2-2.12,6.22,6.22,0,0,0,0-6.07A5.8,5.8,0,0,0,99.62,49a6.31,6.31,0,0,0-3.12-.78,6.2,6.2,0,0,0-3.07.78,5.73,5.73,0,0,0-2.2,2.14,6.16,6.16,0,0,0,0,6.07,5.55,5.55,0,0,0,2.18,2.12A6.26,6.26,0,0,0,96.5,60.1Zm0-3.31a2.38,2.38,0,0,1-1.77-.73A2.59,2.59,0,0,1,94,54.19a2.62,2.62,0,0,1,.72-1.91,2.39,2.39,0,0,1,1.77-.74,2.45,2.45,0,0,1,1.79.74A2.55,2.55,0,0,1,99,54.19a2.52,2.52,0,0,1-.74,1.87A2.44,2.44,0,0,1,96.5,56.79Z"/></svg>