<svg id="Layer_1" data-name="Layer 1" xmlns="http://www.w3.org/2000/svg" viewBox="0 0 122 122"><title>l10_2_1</title><path d="M61.8,30.16c-18.54,0-31.11,9.18-35.91,12.78C2.9,60.19,2.23,85.14,2.43,86.59a7.4,7.4,0,0,0,1.7,4.06,5,5,0,0,0,1.87,1,6.28,6.28,0,0,0,1.66.25c1.45,0,16.71,0,37.63,0H89.43l27.1,0a4.85,4.85,0,0,0,2.57-1.5,5.06,5.06,0,0,0,1.1-4c-.26-4.23-2-25.71-20.13-41.65C96,41.15,82.21,30.13,61.8,30.16ZM92.58,81h0Zm-51.44-3.3A2.7,2.7,0,0,1,42,80a2.82,2.82,0,0,1-.88,2.3,4.15,4.15,0,0,1-2.69.74h-15a3.15,3.15,0,0,1-2.34-.88,3.1,3.1,0,0,1-.86-2.24,4.5,4.5,0,0,1,1.39-3.2l8.7-9.06c1.8-1.88,2.7-3.62,2.7-5.2a2.78,2.78,0,0,0-.8-2.14A3.23,3.23,0,0,0,30,59.54a6.72,6.72,0,0,0-2.2.35,20.44,20.44,0,0,0-2.31,1l-.82.41c-.11,0-.33.17-.64.35a6,6,0,0,1-.84.39,2.54,2.54,0,0,1-.78.12,2.09,2.09,0,0,1-1.72-.92,3.53,3.53,0,0,1-.7-2.2,3.45,3.45,0,0,1,.27-1.47,2.7,2.7,0,0,1,1-1.07,16.75,16.75,0,0,1,9.06-2.79,13.16,13.16,0,0,1,5.33,1,8,8,0,0,1,3.55,2.87,7.53,7.53,0,0,1,1.25,4.28,10.31,10.31,0,0,1-1,4.57A19.18,19.18,0,0,1,36,71.07L30.21,77h8.24A4.21,4.21,0,0,1,41.14,77.73Zm6.13,1.82q-2.84-3.81-2.83-11t2.83-11a9.56,9.56,0,0,1,8.2-3.82,9.58,9.58,0,0,1,8.18,3.82q2.85,3.81,2.85,11t-2.83,11a9.57,9.57,0,0,1-8.2,3.82A9.56,9.56,0,0,1,47.27,79.55Zm11-4a20.58,20.58,0,0,0,.86-7,20.41,20.41,0,0,0-.86-7,2.95,2.95,0,0,0-5.66,0,20.1,20.1,0,0,0-.86,7,20.33,20.33,0,0,0,.86,7,2.95,2.95,0,0,0,5.66,0Zm13.57,4Q69,75.74,69,68.52t2.83-11a9.56,9.56,0,0,1,8.2-3.82,9.58,9.58,0,0,1,8.18,3.82q2.85,3.81,2.85,11t-2.83,11a9.57,9.57,0,0,1-8.2,3.82A9.56,9.56,0,0,1,71.87,79.55Zm11-4a20.58,20.58,0,0,0,.86-7,20.41,20.41,0,0,0-.86-7,2.95,2.95,0,0,0-5.66,0,20.1,20.1,0,0,0-.86,7,20.33,20.33,0,0,0,.86,7,2.95,2.95,0,0,0,5.66,0Zm13.75-10a6,6,0,0,1-2.3-2.23,6.58,6.58,0,0,1,0-6.4,6.11,6.11,0,0,1,2.32-2.25,6.89,6.89,0,0,1,6.52,0A6,6,0,0,1,105.51,57a6.52,6.52,0,0,1,0,6.4,5.86,5.86,0,0,1-2.32,2.23,6.69,6.69,0,0,1-3.28.8A6.59,6.59,0,0,1,96.65,65.59Zm5.15-3.46a2.68,2.68,0,0,0,.78-2,2.72,2.72,0,0,0-.78-2,2.57,2.57,0,0,0-1.89-.78,2.48,2.48,0,0,0-1.86.78,2.75,2.75,0,0,0-.76,2,2.7,2.7,0,0,0,.76,2,2.48,2.48,0,0,0,1.86.78A2.57,2.57,0,0,0,101.8,62.13Z"/></svg>