<svg id="Layer_1" data-name="Layer 1" xmlns="http://www.w3.org/2000/svg" viewBox="0 0 122 122"><title>l10_1_1</title><path d="M111.68,2.45h0A7.58,7.58,0,0,0,104.1,10v94.58H9.51a7.58,7.58,0,0,0-7.58,7.58h0a7.58,7.58,0,0,0,7.58,7.58H111.68a7.58,7.58,0,0,0,7.58-7.58h0V10A7.58,7.58,0,0,0,111.68,2.45Z"/><path d="M96.87,97.84H7.62c.83-8.52,5-40.38,32-66.1A105.8,105.8,0,0,1,96.87,4.07ZM38.67,51.63A9.48,9.48,0,0,0,34,52.77,8.19,8.19,0,0,0,30.76,56a9.82,9.82,0,0,0-.14,9,7.52,7.52,0,0,0,2.78,3,7.39,7.39,0,0,0,4,1.09,7.12,7.12,0,0,0,3.11-.68,6,6,0,0,0,2.27-1.86,9.83,9.83,0,0,1-1.38,4.8,3.53,3.53,0,0,1-3,1.72,4.87,4.87,0,0,1-1.7-.3,21.19,21.19,0,0,1-2-.88l-.81-.41c-.46-.24-.83-.42-1.1-.53a2.43,2.43,0,0,0-.92-.17,2,2,0,0,0-1.57.8,2.94,2.94,0,0,0-.64,1.93,2.74,2.74,0,0,0,.27,1.29,3.2,3.2,0,0,0,.91,1,11.78,11.78,0,0,0,3.7,1.85,14.37,14.37,0,0,0,4.22.66,10,10,0,0,0,5.73-1.66,10.66,10.66,0,0,0,3.79-4.73,17.84,17.84,0,0,0,1.35-7.21q0-6.26-2.84-9.65A9.89,9.89,0,0,0,38.67,51.63Zm.4,12.2a2.93,2.93,0,0,1-2.3-.94,3.76,3.76,0,0,1-.83-2.57,3.68,3.68,0,0,1,.85-2.54,2.87,2.87,0,0,1,2.28-1,3,3,0,0,1,2.29,1,3.6,3.6,0,0,1,.88,2.52,3.69,3.69,0,0,1-.86,2.55A3,3,0,0,1,39.07,63.83ZM61.7,78.27a8.6,8.6,0,0,0,7.37-3.43q2.54-3.42,2.54-9.91t-2.56-9.87a8.62,8.62,0,0,0-7.35-3.43,8.59,8.59,0,0,0-7.37,3.43q-2.55,3.42-2.55,9.87t2.55,9.91A8.59,8.59,0,0,0,61.7,78.27Zm0-5.12a2.65,2.65,0,0,1-2.55-1.92,18.53,18.53,0,0,1-.77-6.3,18.32,18.32,0,0,1,.77-6.28,2.65,2.65,0,0,1,5.09,0A18.05,18.05,0,0,1,65,64.93a18.28,18.28,0,0,1-.77,6.3A2.64,2.64,0,0,1,61.7,73.15ZM79.53,63a6.1,6.1,0,0,0,3-.71,5.29,5.29,0,0,0,2.08-2,5.82,5.82,0,0,0,0-5.75,5.41,5.41,0,0,0-2.08-2,6,6,0,0,0-3-.73,5.88,5.88,0,0,0-2.91.73,5.41,5.41,0,0,0-2.08,2,5.82,5.82,0,0,0,0,5.75,5.31,5.31,0,0,0,2.06,2A6,6,0,0,0,79.53,63Zm0-3.13a2.26,2.26,0,0,1-1.68-.7,2.43,2.43,0,0,1-.68-1.77,2.48,2.48,0,0,1,.68-1.8,2.26,2.26,0,0,1,1.68-.7,2.32,2.32,0,0,1,1.7.7,2.46,2.46,0,0,1,.7,1.8,2.4,2.4,0,0,1-.7,1.77A2.32,2.32,0,0,1,79.53,59.88Z"/></svg>