<svg id="Layer_1" data-name="Layer 1" xmlns="http://www.w3.org/2000/svg" viewBox="0 0 122 122"><title>l10_2_1</title><path d="M61.65,27.29c-18.54,0-31.11,9.18-35.91,12.78C2.74,57.31,2.08,82.27,2.28,83.71A7.32,7.32,0,0,0,4,87.78a5,5,0,0,0,1.87,1,6.28,6.28,0,0,0,1.66.25c1.45,0,16.71,0,37.63,0H89.28l27.1,0a4.85,4.85,0,0,0,2.57-1.5,5,5,0,0,0,1.09-4c-.25-4.23-2-25.72-20.12-41.66C95.8,38.28,82.06,27.25,61.65,27.29ZM92.43,78.16h0v0ZM42.09,74.88A2.73,2.73,0,0,1,43,77.09c0,2-1.18,3-3.56,3H25.16q-3.57,0-3.57-3a2.76,2.76,0,0,1,.86-2.21,4.08,4.08,0,0,1,2.71-.74h3.32V59.34L25.2,61.26a2.71,2.71,0,0,1-1.43.41,2.46,2.46,0,0,1-2-1A3.42,3.42,0,0,1,21,58.44a2.8,2.8,0,0,1,1.43-2.55L29,52.08a7,7,0,0,1,3.41-1A3.42,3.42,0,0,1,36,54.7V74.14h3.36A4,4,0,0,1,42.09,74.88Zm5,1.8q-2.84-3.81-2.83-11t2.83-11a9.57,9.57,0,0,1,8.2-3.81,9.57,9.57,0,0,1,8.17,3.81q2.85,3.83,2.85,11t-2.82,11a9.59,9.59,0,0,1-8.2,3.81A9.57,9.57,0,0,1,47.1,76.68Zm11-4a20.21,20.21,0,0,0,.87-7,20.07,20.07,0,0,0-.87-7,2.94,2.94,0,0,0-5.65,0,20.1,20.1,0,0,0-.86,7,20.27,20.27,0,0,0,.86,7,2.94,2.94,0,0,0,5.65,0Zm13.58,4q-2.83-3.81-2.83-11t2.83-11a9.56,9.56,0,0,1,8.19-3.81,9.59,9.59,0,0,1,8.18,3.81q2.85,3.83,2.85,11t-2.82,11a9.6,9.6,0,0,1-8.21,3.81A9.56,9.56,0,0,1,71.7,76.68Zm11-4a20.21,20.21,0,0,0,.87-7,20.07,20.07,0,0,0-.87-7,2.94,2.94,0,0,0-5.65,0,20,20,0,0,0-.87,7,20.21,20.21,0,0,0,.87,7,2.94,2.94,0,0,0,5.65,0Zm13.76-9.94a5.94,5.94,0,0,1-2.3-2.23,6.52,6.52,0,0,1,0-6.4,6.07,6.07,0,0,1,2.32-2.26A6.61,6.61,0,0,1,99.74,51a6.73,6.73,0,0,1,3.28.82,6.14,6.14,0,0,1,2.32,2.26,6.52,6.52,0,0,1,0,6.4A6,6,0,0,1,103,62.72a6.83,6.83,0,0,1-3.28.8A6.7,6.7,0,0,1,96.48,62.72Zm5.14-3.46a2.68,2.68,0,0,0,.78-2,2.72,2.72,0,0,0-.78-2,2.64,2.64,0,0,0-3.75,0,2.79,2.79,0,0,0-.76,2,2.74,2.74,0,0,0,.76,2,2.67,2.67,0,0,0,3.75,0Z"/></svg>