<svg id="Layer_1" data-name="Layer 1" xmlns="http://www.w3.org/2000/svg" viewBox="0 0 122 122"><title>l10_1_1</title><path d="M29.92,119.15a4.23,4.23,0,0,0,5.78-1.55L63,70.32h54.79A4.24,4.24,0,0,0,122,66.08h0a4.24,4.24,0,0,0-4.23-4.23H60.69A4.22,4.22,0,0,0,56.89,64l-28.52,49.4A4.23,4.23,0,0,0,29.92,119.15Z"/><path d="M54.53,57.05,24.44,107.92C5,93.68-3.62,69.26,2.82,47.37,10.4,21.57,36.6,6.85,61.55,8.81c25.69,2,47.32,21.54,52.3,47.6ZM29.78,41.89h-5.1l3.6-3.69a12,12,0,0,0,2.13-2.86A6.45,6.45,0,0,0,31,32.51a4.65,4.65,0,0,0-.78-2.66,5,5,0,0,0-2.19-1.78,8.28,8.28,0,0,0-3.31-.62,10.38,10.38,0,0,0-5.61,1.73,1.63,1.63,0,0,0-.63.66,2.47,2.47,0,0,0,.27,2.27,1.28,1.28,0,0,0,1.07.58,1.51,1.51,0,0,0,.48-.08,2.89,2.89,0,0,0,.52-.24l.4-.22.5-.25a12,12,0,0,1,1.44-.62,4,4,0,0,1,1.36-.22,2,2,0,0,1,1.41.46,1.69,1.69,0,0,1,.49,1.32,4.94,4.94,0,0,1-1.67,3.23l-5.39,5.61a2.78,2.78,0,0,0-.86,2,1.88,1.88,0,0,0,.53,1.39,2,2,0,0,0,1.45.55h9.27a2.6,2.6,0,0,0,1.67-.46A1.77,1.77,0,0,0,32,43.72a1.7,1.7,0,0,0-.54-1.39A2.6,2.6,0,0,0,29.78,41.89Zm10.55,3.93a5.92,5.92,0,0,0,5.08-2.36q1.76-2.35,1.76-6.83T45.4,29.81a6,6,0,0,0-5.07-2.36,6,6,0,0,0-5.08,2.36q-1.76,2.37-1.76,6.82t1.76,6.83A5.92,5.92,0,0,0,40.33,45.82Zm0-3.53A1.81,1.81,0,0,1,38.58,41,12.5,12.5,0,0,1,38,36.63a12.46,12.46,0,0,1,.54-4.34,1.82,1.82,0,0,1,3.5,0,12.51,12.51,0,0,1,.54,4.33A12.5,12.5,0,0,1,42.08,41,1.81,1.81,0,0,1,40.33,42.29Zm15.25,3.53a5.92,5.92,0,0,0,5.08-2.36q1.76-2.35,1.75-6.83t-1.76-6.82a6,6,0,0,0-5.07-2.36,5.93,5.93,0,0,0-5.08,2.36q-1.76,2.37-1.76,6.82t1.76,6.83A5.91,5.91,0,0,0,55.58,45.82Zm0-3.53A1.83,1.83,0,0,1,53.82,41a12.8,12.8,0,0,1-.53-4.34,12.76,12.76,0,0,1,.53-4.34,1.83,1.83,0,0,1,3.51,0,12.56,12.56,0,0,1,.53,4.33A12.55,12.55,0,0,1,57.33,41,1.81,1.81,0,0,1,55.58,42.29Zm12.3-7a4.2,4.2,0,0,0,2-.49,3.63,3.63,0,0,0,1.44-1.39,4,4,0,0,0,0-4,3.8,3.8,0,0,0-1.44-1.4,4.11,4.11,0,0,0-2-.51,4.06,4.06,0,0,0-2,.51,3.8,3.8,0,0,0-1.44,1.4,4,4,0,0,0,0,4,3.67,3.67,0,0,0,1.43,1.39A4.11,4.11,0,0,0,67.88,35.3Zm0-2.16a1.55,1.55,0,0,1-1.16-.48,1.84,1.84,0,0,1,0-2.46,1.53,1.53,0,0,1,1.16-.49,1.59,1.59,0,0,1,1.17.49,1.82,1.82,0,0,1,0,2.46A1.62,1.62,0,0,1,67.88,33.14Z"/></svg>