<svg id="Layer_1" data-name="Layer 1" xmlns="http://www.w3.org/2000/svg" viewBox="0 0 122 122"><title>l10_4_1</title><path d="M61.26,25.16c-18.55,0-31.12,9.17-35.91,12.77C2.35,55.18,1.69,80.13,1.88,81.58a7.36,7.36,0,0,0,1.71,4.06,4.62,4.62,0,0,0,1.87,1,5.82,5.82,0,0,0,1.65.25c1.46,0,16.71,0,37.64,0H88.88l27.1,0a4.68,4.68,0,0,0,2.57-1.49,5,5,0,0,0,1.1-4c-.25-4.22-2-25.71-20.13-41.65C95.4,36.14,81.66,25.12,61.26,25.16ZM92,76h0v0ZM30,58.72Q30,46.86,44.3,46.85H76.63q7.23,0,10.75,3.1t3.53,8.77q0,5.69-3.53,8.86T76.63,70.76H44.3Q30,70.76,30,58.72Z"/></svg>