<svg id="Layer_1" data-name="Layer 1" xmlns="http://www.w3.org/2000/svg" viewBox="0 0 122 122"><title>l10_4_1</title><path d="M61,24c-18.54,0-31.12,9.18-35.91,12.77C2.06,54.05,1.4,79,1.59,80.45A7.36,7.36,0,0,0,3.3,84.51a4.62,4.62,0,0,0,1.87,1,5.82,5.82,0,0,0,1.65.25c1.46,0,16.71,0,37.64,0H88.6l27.09,0a4.73,4.73,0,0,0,2.58-1.49,5.05,5.05,0,0,0,1.09-4c-.25-4.22-2-25.71-20.13-41.65C95.11,35,81.37,24,61,24ZM91.75,74.89h0v0ZM80.61,51.16a5.14,5.14,0,0,1,1.53,3.78,5.3,5.3,0,0,1-1.53,3.83,5.06,5.06,0,0,1-3.78,1.57H65.49V71.59A5.22,5.22,0,0,1,64,75.37a5.33,5.33,0,0,1-9.13-3.78V60.34H43.53a5.06,5.06,0,0,1-3.78-1.57,5.3,5.3,0,0,1-1.53-3.83,5.23,5.23,0,0,1,5.31-5.31H54.87V38.29a5.31,5.31,0,1,1,10.62,0V49.63H76.83A5.14,5.14,0,0,1,80.61,51.16Z"/></svg>