<svg id="Layer_1" data-name="Layer 1" xmlns="http://www.w3.org/2000/svg" viewBox="0 0 122 122"><title>l10_1_1</title><path d="M120.3,108.26a.44.44,0,0,0,.08-.11,7.76,7.76,0,0,0,1.17-2.68.64.64,0,0,1,0-.07l.09-.52c0-.09,0-.18,0-.26s0-.27,0-.4,0-.27,0-.4,0-.06,0-.09,0-.17,0-.26,0-.29,0-.44,0-.25,0-.37l-.06-.39c0-.14-.06-.28-.1-.42a2.81,2.81,0,0,0-.08-.31c-.05-.17-.1-.33-.16-.49l-.09-.24c-.07-.17-.15-.34-.23-.51s0-.11-.07-.16l-.07-.14h0L72.55,6A7.84,7.84,0,0,0,62,2.63h0a7.85,7.85,0,0,0-3.4,10.57l42.46,82.68H8.1a7.85,7.85,0,1,0,0,15.7H114.16c.15,0,.29,0,.43,0l.4,0,.36-.06.46-.1.27-.07.53-.18.19-.07.58-.26.1-.05,0,0c.2-.1.38-.21.56-.32l.14-.08.46-.34a1.09,1.09,0,0,0,.17-.13c.13-.1.25-.21.37-.32l.21-.19c.11-.11.22-.23.32-.35l.19-.21C120.06,108.59,120.18,108.43,120.3,108.26Z"/><path d="M91.88,90.46l-91,.13A86.42,86.42,0,0,1,16.39,39.07,85.79,85.79,0,0,1,51,10.61Q71.44,50.54,91.88,90.46ZM23.57,62a7.15,7.15,0,0,0-3.11.68,5.9,5.9,0,0,0-2.27,1.87,9.73,9.73,0,0,1,1.39-4.81,3.5,3.5,0,0,1,3-1.72,4.81,4.81,0,0,1,1.69.3c.54.2,1.22.49,2,.88l.81.41c.47.24.83.42,1.1.53a2.45,2.45,0,0,0,.93.17,2,2,0,0,0,1.56-.79,3,3,0,0,0,.65-1.94,2.8,2.8,0,0,0-.28-1.29,3.26,3.26,0,0,0-.9-1,11.83,11.83,0,0,0-3.71-1.85,14.32,14.32,0,0,0-4.22-.66,10,10,0,0,0-5.73,1.66,10.73,10.73,0,0,0-3.79,4.73,17.87,17.87,0,0,0-1.35,7.21q0,6.25,2.84,9.65a9.89,9.89,0,0,0,8,3.39A9.48,9.48,0,0,0,27,78.25a8.13,8.13,0,0,0,3.23-3.19,9.21,9.21,0,0,0,1.16-4.62,9.35,9.35,0,0,0-1-4.37,7.68,7.68,0,0,0-2.79-3A7.45,7.45,0,0,0,23.57,62ZM21.88,74.2a3,3,0,0,1-2.29-1,4.11,4.11,0,0,1,0-5.07,3,3,0,0,1,2.3-1,2.89,2.89,0,0,1,2.3.94,4.29,4.29,0,0,1,0,5.1A2.87,2.87,0,0,1,21.88,74.2Zm21.59,5.19A8.61,8.61,0,0,0,50.84,76q2.55-3.43,2.54-9.92t-2.56-9.87a8.59,8.59,0,0,0-7.35-3.43,8.6,8.6,0,0,0-7.37,3.43q-2.54,3.42-2.54,9.87T36.1,76A8.62,8.62,0,0,0,43.47,79.39Zm0-5.12a2.64,2.64,0,0,1-2.54-1.92,18.2,18.2,0,0,1-.77-6.3,18.11,18.11,0,0,1,.77-6.28,2.64,2.64,0,0,1,5.08,0,18.08,18.08,0,0,1,.78,6.26,18.15,18.15,0,0,1-.78,6.3A2.63,2.63,0,0,1,43.47,74.27ZM61.31,64.14a6,6,0,0,0,2.94-.72,5.32,5.32,0,0,0,2.09-2,5.89,5.89,0,0,0,0-5.75,5.41,5.41,0,0,0-2.09-2,5.84,5.84,0,0,0-2.94-.74,5.78,5.78,0,0,0-2.91.74,5.41,5.41,0,0,0-2.09,2,5.89,5.89,0,0,0,0,5.75,5.33,5.33,0,0,0,2.07,2A6,6,0,0,0,61.31,64.14Zm0-3.13a2.24,2.24,0,0,1-1.68-.71A2.38,2.38,0,0,1,59,58.54a2.47,2.47,0,0,1,.68-1.81,2.23,2.23,0,0,1,1.68-.7,2.3,2.3,0,0,1,1.69.7,2.44,2.44,0,0,1,.7,1.81A2.36,2.36,0,0,1,63,60.3,2.3,2.3,0,0,1,61.31,61Z"/></svg>