<svg id="Layer_1" data-name="Layer 1" xmlns="http://www.w3.org/2000/svg" viewBox="0 0 122 122"><title>l10_1_1</title><path d="M119.11,30.53a5.4,5.4,0,0,0-7.39,2L76.8,93H6.73A5.42,5.42,0,0,0,1.31,98.4h0a5.42,5.42,0,0,0,5.42,5.41h73a5.39,5.39,0,0,0,4.85-2.71l36.48-63.18A5.4,5.4,0,0,0,119.11,30.53Z"/><path d="M72.8,89.12H2.86c.59-4.51,5.26-35.88,34.29-54.5,32.73-21,67.53-7.29,70.7-6ZM36.5,65.67H34.35V53.2a2.28,2.28,0,0,0-.65-1.71,2.32,2.32,0,0,0-1.7-.63,4.43,4.43,0,0,0-2.18.66L25.61,54a1.81,1.81,0,0,0-.92,1.64A2.17,2.17,0,0,0,25.22,57a1.57,1.57,0,0,0,1.26.64,1.76,1.76,0,0,0,.92-.26l2.1-1.24v9.5H27.37a2.59,2.59,0,0,0-1.73.48,1.76,1.76,0,0,0-.56,1.42c0,1.3.77,2,2.29,2H36.5c1.53,0,2.29-.65,2.29-2a1.75,1.75,0,0,0-.55-1.42A2.62,2.62,0,0,0,36.5,65.67Zm15.87-3h-.58V53.2a2.21,2.21,0,0,0-.71-1.76,2.48,2.48,0,0,0-1.71-.63,2.7,2.7,0,0,0-1.17.27,2.34,2.34,0,0,0-.93.81L39.74,62.62a2.93,2.93,0,0,0-.58,1.74,2.06,2.06,0,0,0,.55,1.45,2,2,0,0,0,1.5.57h5.87v.9a2.35,2.35,0,0,0,.65,1.79,2.38,2.38,0,0,0,1.69.6,2.41,2.41,0,0,0,1.71-.6,2.32,2.32,0,0,0,.66-1.79v-.9h.58c1.53,0,2.29-.62,2.29-1.86S53.9,62.7,52.37,62.7Zm-8.45,0,3.16-4.55V62.7Zm19.87-5.32a6.45,6.45,0,0,0-2.6.48V54.62h5.68c1.53,0,2.29-.61,2.29-1.84S68.4,51,66.87,51H58.71a2.28,2.28,0,0,0-1.66.58,2.32,2.32,0,0,0-.57,1.69v7.13A1.42,1.42,0,0,0,57,61.5a1.8,1.8,0,0,0,1.23.44,2.58,2.58,0,0,0,1.19-.29,9.15,9.15,0,0,1,1.51-.48A7.83,7.83,0,0,1,62.34,61a3,3,0,0,1,2.06.66,2.34,2.34,0,0,1,.73,1.84,2.28,2.28,0,0,1-.71,1.86,3.38,3.38,0,0,1-2.18.59,4.26,4.26,0,0,1-1.46-.24,15.25,15.25,0,0,1-1.49-.63l-.53-.26c-.35-.19-.61-.33-.78-.4a1.83,1.83,0,0,0-.66-.1,1.38,1.38,0,0,0-1.11.56,2.16,2.16,0,0,0-.45,1.38,1.94,1.94,0,0,0,.2.91,2.3,2.3,0,0,0,.62.73,8.49,8.49,0,0,0,2.7,1.31,10.82,10.82,0,0,0,3.19.48,8.64,8.64,0,0,0,3.77-.79,6,6,0,0,0,2.52-2.24,6.21,6.21,0,0,0,.9-3.34,6.32,6.32,0,0,0-.75-3.12,5.41,5.41,0,0,0-2.08-2.11A6.09,6.09,0,0,0,63.79,57.38Zm11.45,1.48a4.35,4.35,0,0,0,2.1-.51,3.82,3.82,0,0,0,1.49-1.44,4.16,4.16,0,0,0,0-4.1,3.85,3.85,0,0,0-1.49-1.45,4.25,4.25,0,0,0-2.1-.53,4.21,4.21,0,0,0-2.08.53,3.85,3.85,0,0,0-1.49,1.45,4.16,4.16,0,0,0,0,4.1,3.84,3.84,0,0,0,1.47,1.44A4.32,4.32,0,0,0,75.24,58.86Zm0-2.24a1.57,1.57,0,0,1-1.2-.5,1.7,1.7,0,0,1-.49-1.26A1.74,1.74,0,0,1,74,53.57a1.61,1.61,0,0,1,1.2-.5,1.68,1.68,0,0,1,1.21.5,1.75,1.75,0,0,1,.5,1.29,1.71,1.71,0,0,1-.5,1.26A1.64,1.64,0,0,1,75.24,56.62Z"/></svg>