<svg id="Layer_1" data-name="Layer 1" xmlns="http://www.w3.org/2000/svg" viewBox="0 0 122 122"><title>l10_1_1</title><path d="M29.23,116.82A4.23,4.23,0,0,0,35,115.28L62.31,68h54.78a4.23,4.23,0,0,0,4.23-4.23h0a4.23,4.23,0,0,0-4.23-4.23H60a4.24,4.24,0,0,0-3.8,2.12L27.68,111A4.22,4.22,0,0,0,29.23,116.82Z"/><path d="M53.83,54.73q-15,25.44-30.08,50.87C4.25,91.36-4.31,66.94,2.12,45.05,9.71,19.24,35.91,4.52,60.85,6.49c25.69,2,47.32,21.54,52.31,47.59ZM29.09,39.56H24l3.61-3.68A11.83,11.83,0,0,0,29.71,33a6.36,6.36,0,0,0,.62-2.84,4.63,4.63,0,0,0-.77-2.65,5,5,0,0,0-2.2-1.78,8.27,8.27,0,0,0-3.3-.62,10.1,10.1,0,0,0-2.94.45,9.9,9.9,0,0,0-2.68,1.28,1.67,1.67,0,0,0-.62.66,2.14,2.14,0,0,0-.17.91,2.17,2.17,0,0,0,.44,1.36,1.28,1.28,0,0,0,1.06.57,1.61,1.61,0,0,0,.49-.07,2.66,2.66,0,0,0,.52-.25l.39-.21.51-.26A13,13,0,0,1,22.5,29a4.15,4.15,0,0,1,1.35-.21,2.05,2.05,0,0,1,1.42.45,1.72,1.72,0,0,1,.49,1.32,4.94,4.94,0,0,1-1.68,3.23L18.7,39.36a2.76,2.76,0,0,0-.87,2,1.85,1.85,0,0,0,2,1.93h9.28a2.51,2.51,0,0,0,1.66-.46,1.71,1.71,0,0,0,.55-1.42A1.64,1.64,0,0,0,30.75,40,2.57,2.57,0,0,0,29.09,39.56Zm13.77-5.51a4.09,4.09,0,0,0,2-1.54,4.17,4.17,0,0,0,.73-2.45,4.38,4.38,0,0,0-.78-2.59,4.85,4.85,0,0,0-2.21-1.73,8.35,8.35,0,0,0-3.31-.61,10.43,10.43,0,0,0-3,.45,8.42,8.42,0,0,0-2.58,1.28,2.11,2.11,0,0,0-.61.68,2.14,2.14,0,0,0-.17.89,2.09,2.09,0,0,0,.43,1.34,1.32,1.32,0,0,0,1.07.54,1.77,1.77,0,0,0,.63-.11c.19-.08.44-.2.76-.37l.54-.26c.51-.25,1-.45,1.38-.61a3.92,3.92,0,0,1,1.34-.22,2.19,2.19,0,0,1,1.55.52,1.89,1.89,0,0,1,.56,1.46A1.43,1.43,0,0,1,40.55,32a3.78,3.78,0,0,1-2,.41H37.4a1.44,1.44,0,0,0-1.19.53,2.07,2.07,0,0,0,0,2.55A1.44,1.44,0,0,0,37.4,36H39a3.8,3.8,0,0,1,2.08.43,1.6,1.6,0,0,1,.63,1.42,1.76,1.76,0,0,1-.62,1.53,3.55,3.55,0,0,1-2,.46,4.5,4.5,0,0,1-1.47-.22A11.47,11.47,0,0,1,36.1,39l-.31-.14-.25-.12c-.32-.16-.57-.29-.76-.36a1.57,1.57,0,0,0-.63-.12,1.3,1.3,0,0,0-1.07.55,2.06,2.06,0,0,0-.43,1.33,2,2,0,0,0,.18.88,2,2,0,0,0,.61.7A8.11,8.11,0,0,0,36.08,43a11.09,11.09,0,0,0,3.17.45,9.42,9.42,0,0,0,3.6-.63,5.3,5.3,0,0,0,2.38-1.76,4.45,4.45,0,0,0,.84-2.7,4.52,4.52,0,0,0-.86-2.77A4.31,4.31,0,0,0,42.86,34.05Zm12,9.45A6,6,0,0,0,60,41.14q1.76-2.37,1.75-6.84T60,27.49a5.94,5.94,0,0,0-5.07-2.36,6,6,0,0,0-5.08,2.36Q48,29.86,48.05,34.3t1.75,6.84A6,6,0,0,0,54.88,43.5Zm0-3.53a1.82,1.82,0,0,1-1.75-1.32,12.58,12.58,0,0,1-.53-4.35A12.45,12.45,0,0,1,53.13,30a1.83,1.83,0,0,1,3.51,0,12.71,12.71,0,0,1,.53,4.32,12.83,12.83,0,0,1-.53,4.35A1.83,1.83,0,0,1,54.88,40Zm12.3-7a4.22,4.22,0,0,0,2-.5,3.65,3.65,0,0,0,1.43-1.38,3.8,3.8,0,0,0,.52-2,3.86,3.86,0,0,0-.52-2,3.74,3.74,0,0,0-1.43-1.39,4.12,4.12,0,0,0-2-.51,4,4,0,0,0-2,.51,3.77,3.77,0,0,0-1.44,1.39,3.86,3.86,0,0,0-.52,2,3.8,3.8,0,0,0,.52,2,3.69,3.69,0,0,0,1.42,1.38A4.14,4.14,0,0,0,67.18,33Zm0-2.16A1.55,1.55,0,0,1,66,30.34a1.65,1.65,0,0,1-.47-1.22A1.69,1.69,0,0,1,66,27.87a1.55,1.55,0,0,1,1.15-.48,1.59,1.59,0,0,1,1.17.48,1.7,1.7,0,0,1,.48,1.25,1.66,1.66,0,0,1-.48,1.22A1.59,1.59,0,0,1,67.18,30.82Z"/></svg>