<svg id="Layer_1" data-name="Layer 1" xmlns="http://www.w3.org/2000/svg" viewBox="0 0 172 122.3"><title>s10_1</title><path d="M85.73,11.31c-27.06,0-45.41,13.4-52.41,18.65C-.24,55.13-1.21,91.55-.93,93.66a10.76,10.76,0,0,0,2.49,5.93,8.12,8.12,0,0,0,5.15,1.86c30.49.11,52.79.1,54.92,0A3.62,3.62,0,0,0,64,100.6a3.58,3.58,0,0,0,1.06-2,15.31,15.31,0,0,1,16-14.87,4.53,4.53,0,0,0,4.13-1.86c6.43-12.91,21.34-42.8,21.42-43l.11-.2a5.77,5.77,0,0,1,.74-1,4.94,4.94,0,0,1,1.19-1c.32-.26,6.76-5.41,8.18-6.13a1.17,1.17,0,0,1,1-.14,1.13,1.13,0,0,1,.47.84c.28,1.53-.1,9.82-.12,10.31a5.75,5.75,0,0,1-.18,1.49,6.57,6.57,0,0,1-.48,1.28c-.51,1-9.36,18.65-21.54,43a2.93,2.93,0,0,0-.21,1.75,3,3,0,0,0,.75,1.49A12.79,12.79,0,0,1,98.92,94a13.14,13.14,0,0,1,1.26,6,1.78,1.78,0,0,0,1.71,1.51h24.16l39.55,0a7,7,0,0,0,3.76-2.18,7.36,7.36,0,0,0,1.6-5.82c-.37-6.17-2.86-37.53-29.38-60.79C135.57,27.35,115.51,11.26,85.73,11.31Zm44.92,74.24h0v0Zm-94.47-17a2.07,2.07,0,0,1,.64,1.64c0,1.5-.88,2.24-2.64,2.24H23.66c-1.76,0-2.64-.74-2.64-2.24a2,2,0,0,1,.64-1.64,3,3,0,0,1,2-.54h2.46v-11l-2.43,1.43a2.08,2.08,0,0,1-1.06.3,1.85,1.85,0,0,1-1.46-.74,2.58,2.58,0,0,1-.6-1.65,2,2,0,0,1,1.06-1.88l4.85-2.82A5.09,5.09,0,0,1,29,51a2.65,2.65,0,0,1,1.95.73,2.6,2.6,0,0,1,.74,2V68h2.49A3,3,0,0,1,36.18,68.57Zm17.39,0a2,2,0,0,1,.65,1.65,2.11,2.11,0,0,1-.65,1.7,3.09,3.09,0,0,1-2,.54H40.52a2.28,2.28,0,0,1-1.73-.65,2.23,2.23,0,0,1-.64-1.65,3.32,3.32,0,0,1,1-2.37l6.43-6.7a5.89,5.89,0,0,0,2-3.85A2,2,0,0,0,47,55.66a2.38,2.38,0,0,0-1.68-.55,5,5,0,0,0-1.63.26,15.52,15.52,0,0,0-1.71.74l-.61.31-.47.25a3,3,0,0,1-.62.29,1.79,1.79,0,0,1-.57.09,1.54,1.54,0,0,1-1.28-.68,2.63,2.63,0,0,1-.51-1.62,2.44,2.44,0,0,1,.2-1.09,1.89,1.89,0,0,1,.74-.79,11.82,11.82,0,0,1,3.2-1.52,12,12,0,0,1,3.5-.54,9.85,9.85,0,0,1,3.94.74,6,6,0,0,1,2.62,2.12,5.55,5.55,0,0,1,.93,3.17,7.58,7.58,0,0,1-.75,3.38,14.06,14.06,0,0,1-2.53,3.41L45.49,68h6.09A3.09,3.09,0,0,1,53.57,68.56Zm4.53,1.35C56.7,68,56,65.31,56,61.75s.69-6.24,2.09-8.12a7.07,7.07,0,0,1,6.06-2.82,7.1,7.1,0,0,1,6,2.82c1.4,1.88,2.11,4.58,2.11,8.12s-.7,6.28-2.09,8.16a7.1,7.1,0,0,1-6.07,2.82A7.07,7.07,0,0,1,58.1,69.91Zm8.15-3a15,15,0,0,0,.64-5.19,14.81,14.81,0,0,0-.64-5.15,2.18,2.18,0,0,0-4.18,0,15.07,15.07,0,0,0-.64,5.17,15.24,15.24,0,0,0,.64,5.19,2.18,2.18,0,0,0,4.18,0Zm10.17-7.36a4.32,4.32,0,0,1-1.69-1.65,4.75,4.75,0,0,1,0-4.73,4.33,4.33,0,0,1,1.71-1.66,4.8,4.8,0,0,1,2.39-.61,4.87,4.87,0,0,1,2.43.61A4.33,4.33,0,0,1,83,53.2a4.82,4.82,0,0,1,0,4.73,4.24,4.24,0,0,1-1.71,1.65,5,5,0,0,1-2.43.6A4.87,4.87,0,0,1,76.42,59.58ZM80.23,57a2,2,0,0,0,.58-1.45,2,2,0,0,0-.58-1.49,1.92,1.92,0,0,0-1.4-.57,1.84,1.84,0,0,0-1.37.57,2,2,0,0,0-.57,1.49A2,2,0,0,0,77.46,57a1.81,1.81,0,0,0,1.37.58A1.89,1.89,0,0,0,80.23,57Z"/></svg>