<svg id="Layer_1" data-name="Layer 1" xmlns="http://www.w3.org/2000/svg" viewBox="0 0 172 122.3"><title>s10_1</title><path d="M86.91,12.7C59.85,12.75,41.5,26.1,34.5,31.35.94,56.52,0,92.94.25,95.05A10.76,10.76,0,0,0,2.74,101a8.12,8.12,0,0,0,5.15,1.86c30.49.11,52.79.1,54.92,0A3.31,3.31,0,0,0,66.25,100a15.31,15.31,0,0,1,16-14.87,4.58,4.58,0,0,0,2.66-.56,4.66,4.66,0,0,0,1.47-1.3c6.43-12.91,21.34-42.8,21.43-43l.1-.21a5.43,5.43,0,0,1,.74-1,4.94,4.94,0,0,1,1.19-1c.32-.26,6.76-5.41,8.18-6.14a1.17,1.17,0,0,1,1-.13,1.11,1.11,0,0,1,.47.84c.28,1.53-.1,9.82-.12,10.31a5.79,5.79,0,0,1-.18,1.49,6.57,6.57,0,0,1-.48,1.28c-.51,1-9.36,18.65-21.54,43A2.95,2.95,0,0,0,97.73,92a13,13,0,0,1,3.63,9.38,1.78,1.78,0,0,0,1.71,1.51h24.16l39.55,0a7,7,0,0,0,3.76-2.19,7.34,7.34,0,0,0,1.6-5.82c-.37-6.16-2.86-37.52-29.38-60.79C136.75,28.73,116.7,12.64,86.91,12.7Zm44.92,74.24h0v0Zm-84-4.15a3.8,3.8,0,1,1-2.7,7.07L19.81,80.18a3.78,3.78,0,1,1,2.7-7.07ZM62.05,63.32a3.8,3.8,0,1,1-5.13,5.57L37,50.53A3.78,3.78,0,1,1,42.08,45Zm77.83-14.79a3.78,3.78,0,1,1,4.89,5.77l-20.7,17.53a3.8,3.8,0,1,1-4.89-5.77Zm14.9,27.55a3.78,3.78,0,1,1,2.7,7.07l-25.34,9.68a3.8,3.8,0,1,1-2.7-7.07ZM85.1,54a3.8,3.8,0,1,1-7.31,2q-3.51-13.09-7-26.19a3.78,3.78,0,1,1,7.3-2Q81.58,40.86,85.1,54Z"/></svg>