<svg id="Layer_1" data-name="Layer 1" xmlns="http://www.w3.org/2000/svg" viewBox="0 0 172 122.3"><title>s10_1</title><path d="M86.77,15c-27.09.05-45.46,13.49-52.46,18.78C.71,59.12-.25,95.79,0,97.92a10.85,10.85,0,0,0,2.49,6,8.08,8.08,0,0,0,5.15,1.87c30.52.11,52.84.1,55,0a3.62,3.62,0,0,0,2.37-.85,3.53,3.53,0,0,0,1.06-2,15.93,15.93,0,0,1,5.18-11.12,15.61,15.61,0,0,1,10.86-3.85,4.62,4.62,0,0,0,2.67-.56A4.5,4.5,0,0,0,86.25,86c6.44-13,21.36-43.09,21.45-43.26s0-.1.11-.21a5.16,5.16,0,0,1,.73-1,5.3,5.3,0,0,1,1.19-1c.32-.26,6.77-5.44,8.2-6.17a1.17,1.17,0,0,1,1-.14c.35.18.43.66.47.85.27,1.54-.11,9.89-.13,10.38a5.77,5.77,0,0,1-.17,1.5,6.53,6.53,0,0,1-.49,1.29c-.5,1-9.37,18.78-21.56,43.26a3,3,0,0,0,.54,3.26A12.79,12.79,0,0,1,100,98.24a13.34,13.34,0,0,1,1.27,6,1.77,1.77,0,0,0,1.71,1.52h24.19l39.58,0a7.09,7.09,0,0,0,3.76-2.2,7.44,7.44,0,0,0,1.6-5.86c-.37-6.21-2.86-37.78-29.4-61.21C136.65,31.15,116.58,15,86.77,15Zm45,74.75h0v0ZM51,72.77a4.26,4.26,0,0,1,1.25,3.11A4.37,4.37,0,0,1,51,79a4.13,4.13,0,0,1-3.1,1.3H38.6V89.6a4.32,4.32,0,0,1-1.22,3.11A4.15,4.15,0,0,1,34.25,94a4.21,4.21,0,0,1-3.1-1.26A4.26,4.26,0,0,1,29.9,89.6V80.33H20.62a4.12,4.12,0,0,1-3.1-1.3,4.33,4.33,0,0,1-1.25-3.15,4.29,4.29,0,0,1,4.35-4.37H29.9V62.17a4.27,4.27,0,0,1,1.25-3.12,4.36,4.36,0,0,1,7.45,3.12v9.34h9.28A4.21,4.21,0,0,1,51,72.77Zm99.68,12.1A4.11,4.11,0,0,1,151.91,88a4.42,4.42,0,0,1-4.35,4.45,4.21,4.21,0,0,1-3.09-1.34l-8-8-8,8a4.21,4.21,0,0,1-3.1,1.26,4.51,4.51,0,0,1-3.09-1.26,4.31,4.31,0,0,1,0-6.23l8-8-8-7.94a4.52,4.52,0,0,1-1.25-3.11,4.39,4.39,0,0,1,1.32-3.19,3.85,3.85,0,0,1,3-1.33,4.3,4.3,0,0,1,3.1,1.41l8,8,8-8a4.21,4.21,0,0,1,3.09-1.34,4.09,4.09,0,0,1,3.1,1.34,3.9,3.9,0,0,1,1.32,3,4.37,4.37,0,0,1-1.32,3.18l-8,7.94ZM55,50.29a4.21,4.21,0,0,1-1.25-3.11A4.36,4.36,0,0,1,55,44a4.13,4.13,0,0,1,3.09-1.3H85.34A4.21,4.21,0,0,1,88.44,44a4.27,4.27,0,0,1,1.25,3.12,4.4,4.4,0,0,1-1.25,3.15,4.16,4.16,0,0,1-3.1,1.29H58.07A4.13,4.13,0,0,1,55,50.29ZM68,36.21A4.82,4.82,0,0,1,66.7,32.8,4.69,4.69,0,0,1,68,29.42a4.7,4.7,0,0,1,6.67,0,4.64,4.64,0,0,1,1.37,3.34,4.73,4.73,0,0,1-1.37,3.41,4.49,4.49,0,0,1-3.35,1.41A4.38,4.38,0,0,1,68,36.21Zm0,28.65a4.67,4.67,0,0,1-1.32-3.37A4.8,4.8,0,0,1,68,58.08a4.38,4.38,0,0,1,3.32-1.41,4.49,4.49,0,0,1,3.35,1.41,4.72,4.72,0,0,1,1.37,3.41,4.62,4.62,0,0,1-1.37,3.33,4.49,4.49,0,0,1-3.35,1.41A4.41,4.41,0,0,1,68,64.86Z"/></svg>