<svg id="Layer_1" data-name="Layer 1" xmlns="http://www.w3.org/2000/svg" viewBox="0 0 172 122.3"><title>s10_1</title><path d="M86.68,13.67c-26.85.05-45.05,13.3-52,18.5C1.38,57.15.42,93.28.7,95.38a10.66,10.66,0,0,0,2.47,5.89,8.1,8.1,0,0,0,5.11,1.84c30.25.11,52.37.1,54.49,0a3.64,3.64,0,0,0,2.36-.84,3.5,3.5,0,0,0,1.05-2,15.2,15.2,0,0,1,15.9-14.75A4.66,4.66,0,0,0,84.72,85a4.43,4.43,0,0,0,1.45-1.3l21.26-42.63s0-.11.11-.21a5.61,5.61,0,0,1,.73-1,4.74,4.74,0,0,1,1.18-1c.32-.25,6.71-5.37,8.12-6.08a1.19,1.19,0,0,1,1-.14,1.13,1.13,0,0,1,.47.84c.27,1.52-.1,9.74-.12,10.22a5.64,5.64,0,0,1-.18,1.48,5.77,5.77,0,0,1-.48,1.27c-.5,1-9.28,18.51-21.37,42.64a3,3,0,0,0-.21,1.73,3.07,3.07,0,0,0,.75,1.48,12.9,12.9,0,0,1,2.35,3.38,13.09,13.09,0,0,1,1.25,5.92,1.77,1.77,0,0,0,.66,1.13,1.83,1.83,0,0,0,1,.37h24l39.24,0a7,7,0,0,0,3.73-2.17,7.31,7.31,0,0,0,1.59-5.77c-.37-6.12-2.84-37.24-29.15-60.32C136.13,29.58,116.23,13.62,86.68,13.67Zm44.57,73.66h0v0ZM87.44,44.71a15,15,0,1,1-15-15A15,15,0,0,1,87.44,44.71ZM54.37,72.38a15,15,0,1,1-15-15A15,15,0,0,1,54.37,72.38Zm95.67,0a15,15,0,1,1-15-15A15,15,0,0,1,150,72.38Z"/></svg>