<svg id="Layer_1" data-name="Layer 1" xmlns="http://www.w3.org/2000/svg" viewBox="0 0 200 150"><defs><style>.cls-1{fill:#020202;}</style></defs><title>g26</title><path class="cls-1" d="M193.31,74h-78a6.69,6.69,0,1,0,0,13.38h32.07v19.88H50.67V87.37H84.72a6.69,6.69,0,0,0,0-13.38h-78a6.69,6.69,0,1,0,0,13.38H36.78V135A6.94,6.94,0,0,0,43.72,142h0a7,7,0,0,0,7-6.94V121.77h96.68V135a7,7,0,0,0,7,6.94h0a6.94,6.94,0,0,0,6.94-6.94V87.37h32.07a6.69,6.69,0,0,0,0-13.38Z"/><path class="cls-1" d="M58.29,65.92H29.15A10.39,10.39,0,0,1,18.77,55.53V26.4A10.39,10.39,0,0,1,29.15,16H58.29A10.39,10.39,0,0,1,68.68,26.4V55.53A10.39,10.39,0,0,1,58.29,65.92Zm.57-17.14-8.14-8.14,7.48-7.35a5.4,5.4,0,0,0,1.64-3.81A4.9,4.9,0,0,0,58.3,25.9a5,5,0,0,0-3.65-1.54,5.26,5.26,0,0,0-3.87,1.77l-7.09,7.16-7-7.16a5.08,5.08,0,0,0-3.88-1.84,4.93,4.93,0,0,0-3.64,1.58,5.07,5.07,0,0,0-1.54,3.67,5.14,5.14,0,0,0,1.64,3.75l7.48,7.35-8.14,8.14A5.16,5.16,0,0,0,27,52.52a4.93,4.93,0,0,0,1.58,3.61,5,5,0,0,0,3.67,1.58,5.26,5.26,0,0,0,3.88-1.77l7.61-8,7.68,8a5.26,5.26,0,0,0,3.88,1.77,5,5,0,0,0,3.67-1.58,5,5,0,0,0,1.58-3.61A5.16,5.16,0,0,0,58.86,48.78Z"/><path class="cls-1" d="M168.86,65.92H139.73a10.39,10.39,0,0,1-10.39-10.39V26.4A10.39,10.39,0,0,1,139.73,16h29.13A10.39,10.39,0,0,1,179.25,26.4V55.53A10.39,10.39,0,0,1,168.86,65.92Zm-3.55-14.44h-4.26V26.85a4.51,4.51,0,0,0-1.27-3.38,4.6,4.6,0,0,0-3.35-1.25,8.89,8.89,0,0,0-4.32,1.3l-8.31,4.84A3.51,3.51,0,0,0,142,31.58a4.33,4.33,0,0,0,1,2.83,3.11,3.11,0,0,0,2.49,1.27,3.5,3.5,0,0,0,1.82-.52l4.16-2.44V51.48h-4.21a5.22,5.22,0,0,0-3.43.94,3.48,3.48,0,0,0-1.09,2.81c0,2.56,1.5,3.84,4.52,3.84h18q4.53,0,4.53-3.84a3.49,3.49,0,0,0-1.1-2.81A5.21,5.21,0,0,0,165.31,51.48Z"/></svg>