<svg id="Layer_1" data-name="Layer 1" xmlns="http://www.w3.org/2000/svg" viewBox="0 0 100 100"><defs><style>.cls-1{fill:#020202;}</style></defs><title>l26_1_1</title><path class="cls-1" d="M29.76,40.24H10.3A10.38,10.38,0,0,1-.08,29.86V10.41A10.39,10.39,0,0,1,10.3,0H29.76A10.39,10.39,0,0,1,40.14,10.41V29.86A10.38,10.38,0,0,1,29.76,40.24Zm-12-14.53-4-4,3.65-3.59a2.61,2.61,0,0,0,.8-1.85,2.58,2.58,0,0,0-2.53-2.5,2.54,2.54,0,0,0-1.89.87l-3.46,3.48L7,14.67a2.44,2.44,0,0,0-1.89-.9,2.4,2.4,0,0,0-1.77.77,2.45,2.45,0,0,0-.76,1.79,2.52,2.52,0,0,0,.8,1.82L7,21.74l-4,4a2.52,2.52,0,0,0-.8,1.82A2.43,2.43,0,0,0,3,29.29a2.46,2.46,0,0,0,1.79.77,2.54,2.54,0,0,0,1.89-.87l3.71-3.9,3.75,3.9a2.54,2.54,0,0,0,1.89.87,2.46,2.46,0,0,0,1.79-.77,2.43,2.43,0,0,0,.77-1.76A2.52,2.52,0,0,0,17.81,25.71Zm16.92-7h-4v-4a1.86,1.86,0,0,0-.54-1.35,1.95,1.95,0,0,0-2.69,0,1.86,1.86,0,0,0-.54,1.35v4h-4a1.82,1.82,0,0,0-1.34.54A1.86,1.86,0,0,0,21,20.62,1.89,1.89,0,0,0,21.55,22a1.8,1.8,0,0,0,1.34.56h4v4a1.82,1.82,0,0,0,.54,1.34,1.93,1.93,0,0,0,2.7,0,1.82,1.82,0,0,0,.53-1.34v-4h4A1.81,1.81,0,0,0,36.08,22a1.89,1.89,0,0,0,.54-1.36,1.86,1.86,0,0,0-.54-1.35A1.83,1.83,0,0,0,34.73,18.73Z"/><path class="cls-1" d="M89.65,40.29H70.2A10.38,10.38,0,0,1,59.82,29.91V10.46A10.39,10.39,0,0,1,70.2.07H89.65A10.39,10.39,0,0,1,100,10.46V29.91A10.39,10.39,0,0,1,89.65,40.29ZM83.76,19.53a5.23,5.23,0,0,0,2.54-1.94,5.29,5.29,0,0,0,.91-3.09,5.59,5.59,0,0,0-1-3.26,6.3,6.3,0,0,0-2.79-2.18,10.59,10.59,0,0,0-4.17-.76,13,13,0,0,0-3.8.57,10.78,10.78,0,0,0-3.24,1.6,2.54,2.54,0,0,0-.77.87,2.48,2.48,0,0,0-.23,1.12,2.65,2.65,0,0,0,.55,1.68,1.66,1.66,0,0,0,1.34.68,2,2,0,0,0,.8-.14c.24-.1.56-.25,1-.46l.67-.32a17.19,17.19,0,0,1,1.75-.77A4.86,4.86,0,0,1,79,12.84a2.74,2.74,0,0,1,2,.66,2.37,2.37,0,0,1,.7,1.84,1.78,1.78,0,0,1-.8,1.63,4.89,4.89,0,0,1-2.56.51h-1.4a1.84,1.84,0,0,0-1.51.67,2.64,2.64,0,0,0,0,3.2,1.84,1.84,0,0,0,1.51.67h2a4.8,4.8,0,0,1,2.62.55,2,2,0,0,1,.8,1.79,2.22,2.22,0,0,1-.78,1.92,4.46,4.46,0,0,1-2.58.58,5.87,5.87,0,0,1-1.84-.28,14.93,14.93,0,0,1-1.84-.78l-.4-.18-.3-.14a9.49,9.49,0,0,0-1-.46,2,2,0,0,0-.8-.15,1.65,1.65,0,0,0-1.34.69,2.59,2.59,0,0,0-.55,1.68,2.28,2.28,0,0,0,1,2,10.13,10.13,0,0,0,3.33,1.62,14.37,14.37,0,0,0,4,.56,12.07,12.07,0,0,0,4.53-.78,6.77,6.77,0,0,0,3-2.23A5.54,5.54,0,0,0,87.79,25a5.72,5.72,0,0,0-1.07-3.49A5.44,5.44,0,0,0,83.76,19.53Z"/><path class="cls-1" d="M95.18,45.19H64.68a4.86,4.86,0,0,0-4.86,4.86v1.06A4.86,4.86,0,0,0,64.68,56h9.65v15.1H25.62V55.92h9.66a4.87,4.87,0,0,0,4.86-4.86V50a4.87,4.87,0,0,0-4.86-4.86H4.78A4.87,4.87,0,0,0-.08,50v1.06a4.87,4.87,0,0,0,4.86,4.86h9.66v39a5,5,0,0,0,5,5.05h1.1a5,5,0,0,0,5-5.05V82.26H74.33V94.93a5,5,0,0,0,5,5h1.1a5,5,0,0,0,5-5V56h9.66A4.87,4.87,0,0,0,100,51.11V50.05A4.87,4.87,0,0,0,95.18,45.19Z"/></svg>