<svg id="Layer_1" data-name="Layer 1" xmlns="http://www.w3.org/2000/svg" viewBox="0 0 100 100"><defs><style>.cls-1{fill:#020202;}</style></defs><title>l26_3_1</title><path class="cls-1" d="M29.84,40.24H10.38A10.38,10.38,0,0,1,0,29.86V10.41A10.39,10.39,0,0,1,10.38,0H29.84A10.39,10.39,0,0,1,40.22,10.41V29.86A10.38,10.38,0,0,1,29.84,40.24Zm1.8-12.86-6.21-6.2,5.71-5.6a4.09,4.09,0,0,0,1.25-2.9A3.75,3.75,0,0,0,31.21,10a3.81,3.81,0,0,0-2.78-1.18,4,4,0,0,0-2.95,1.35l-5.39,5.45-5.36-5.45a3.83,3.83,0,0,0-2.94-1.4A3.76,3.76,0,0,0,9,9.93a3.9,3.9,0,0,0,.08,5.65l5.7,5.6-6.2,6.2a3.92,3.92,0,0,0-1.25,2.85A3.73,3.73,0,0,0,8.54,33a3.83,3.83,0,0,0,2.8,1.2,4,4,0,0,0,2.95-1.35l5.8-6.1,5.84,6.1a4,4,0,0,0,3,1.35,4.12,4.12,0,0,0,4-3.95A4,4,0,0,0,31.64,27.38Z"/><path class="cls-1" d="M89.73,40.29H70.28A10.38,10.38,0,0,1,59.9,29.91V10.46A10.39,10.39,0,0,1,70.28.07H89.73a10.39,10.39,0,0,1,10.39,10.39V29.91A10.39,10.39,0,0,1,89.73,40.29Zm-5.4-20a4.53,4.53,0,0,0,2.36-1.77,5.21,5.21,0,0,0,.85-3,5,5,0,0,0-2.08-4.21,9.37,9.37,0,0,0-5.69-1.55,9.37,9.37,0,0,0-5.67,1.55A4.94,4.94,0,0,0,72,15.48a5.12,5.12,0,0,0,.84,2.93,4.93,4.93,0,0,0,2.4,1.84A5,5,0,0,0,72.42,22a5.27,5.27,0,0,0-1,3.28,5.19,5.19,0,0,0,2.24,4.46,10.27,10.27,0,0,0,6.1,1.6,10.3,10.3,0,0,0,6.11-1.6,5.18,5.18,0,0,0,2.23-4.46,4.93,4.93,0,0,0-3.78-5.07Zm-4.56,7q-3.27,0-3.27-2.34t3.27-2.34q3.27,0,3.27,2.34T79.77,27.21Zm0-13.32a3.2,3.2,0,0,1,2,.53,2,2,0,0,1,.66,1.69,2.08,2.08,0,0,1-.66,1.71,4,4,0,0,1-4,0,2.08,2.08,0,0,1-.66-1.71,2,2,0,0,1,.66-1.69A3.2,3.2,0,0,1,79.77,13.89Z"/><path class="cls-1" d="M95.26,45.19H64.76a4.86,4.86,0,0,0-4.86,4.86v1.06A4.86,4.86,0,0,0,64.76,56h9.65v15.1H25.7V55.92h9.66a4.87,4.87,0,0,0,4.86-4.86V50a4.87,4.87,0,0,0-4.86-4.86H4.86A4.87,4.87,0,0,0,0,50v1.06a4.87,4.87,0,0,0,4.86,4.86h9.65v39a5,5,0,0,0,5,5.05h1.1a5,5,0,0,0,5-5.05V82.26H74.41V94.93a5,5,0,0,0,5,5h1.1a5,5,0,0,0,5-5V56h9.66a4.87,4.87,0,0,0,4.86-4.86V50.05A4.87,4.87,0,0,0,95.26,45.19Z"/></svg>