<svg id="Layer_1" data-name="Layer 1" xmlns="http://www.w3.org/2000/svg" viewBox="0 0 100 100"><defs><style>.cls-1{fill:#020202;}</style></defs><title>l26_3_1</title><path class="cls-1" d="M29.84,40.24H10.38A10.38,10.38,0,0,1,0,29.86V10.41A10.39,10.39,0,0,1,10.38,0H29.84A10.39,10.39,0,0,1,40.22,10.41V29.86A10.38,10.38,0,0,1,29.84,40.24Zm1.79-12.86-6.2-6.2,5.7-5.6a4,4,0,0,0,1.25-2.9A3.74,3.74,0,0,0,31.21,10a3.81,3.81,0,0,0-2.78-1.18,4,4,0,0,0-2.95,1.35l-5.39,5.45-5.36-5.45a3.83,3.83,0,0,0-2.94-1.4A3.76,3.76,0,0,0,9,9.93a3.9,3.9,0,0,0,.08,5.65l5.7,5.6-6.2,6.2a3.92,3.92,0,0,0-1.25,2.85A3.73,3.73,0,0,0,8.54,33a3.83,3.83,0,0,0,2.8,1.2,4,4,0,0,0,2.95-1.35l5.8-6.1,5.84,6.1a4,4,0,0,0,2.95,1.35,3.83,3.83,0,0,0,2.8-1.2,3.77,3.77,0,0,0,1.2-2.75A3.92,3.92,0,0,0,31.63,27.38Z"/><path class="cls-1" d="M89.73,40.29H70.28A10.38,10.38,0,0,1,59.9,29.91V10.46A10.39,10.39,0,0,1,70.28.07H89.73a10.39,10.39,0,0,1,10.39,10.39V29.91A10.39,10.39,0,0,1,89.73,40.29Zm-8.49-23a7.5,7.5,0,0,0-3,.54V14.16h6.48q2.61,0,2.61-2.1T84.75,10h-9.3a2.56,2.56,0,0,0-1.89.66,2.6,2.6,0,0,0-.66,1.92V20.7A1.65,1.65,0,0,0,73.47,22a2.07,2.07,0,0,0,1.41.49,2.87,2.87,0,0,0,1.35-.33A10.66,10.66,0,0,1,78,21.63a8.15,8.15,0,0,1,1.63-.15,3.39,3.39,0,0,1,2.34.75,2.67,2.67,0,0,1,.84,2.1A2.61,2.61,0,0,1,82,26.45a3.84,3.84,0,0,1-2.49.67,4.94,4.94,0,0,1-1.66-.27,16.76,16.76,0,0,1-1.7-.72l-.6-.3a9.13,9.13,0,0,0-.9-.45,2,2,0,0,0-.75-.12,1.56,1.56,0,0,0-1.26.65,2.45,2.45,0,0,0-.51,1.57,2.25,2.25,0,0,0,.23,1,2.62,2.62,0,0,0,.7.82,9.93,9.93,0,0,0,3.08,1.5,12.49,12.49,0,0,0,3.64.54,9.74,9.74,0,0,0,4.29-.9,6.75,6.75,0,0,0,2.88-2.55,7.1,7.1,0,0,0,1-3.81,7.2,7.2,0,0,0-.85-3.55,6.08,6.08,0,0,0-2.37-2.4A7,7,0,0,0,81.24,17.31Z"/><path class="cls-1" d="M95.26,45.19H64.76a4.86,4.86,0,0,0-4.86,4.86v1.06A4.86,4.86,0,0,0,64.76,56h9.65v15.1H25.7V55.92h9.66a4.87,4.87,0,0,0,4.86-4.86V50a4.87,4.87,0,0,0-4.86-4.86H4.86A4.87,4.87,0,0,0,0,50v1.06a4.87,4.87,0,0,0,4.86,4.86h9.65v39a5,5,0,0,0,5,5.05h1.1a5,5,0,0,0,5-5.05V82.26H74.41V94.93a5,5,0,0,0,5,5h1.1a5,5,0,0,0,5-5V56h9.66a4.87,4.87,0,0,0,4.86-4.86V50.05A4.87,4.87,0,0,0,95.26,45.19Z"/></svg>