<svg id="Layer_1" data-name="Layer 1" xmlns="http://www.w3.org/2000/svg" viewBox="0 0 100 100"><defs><style>.cls-1{fill:#020202;}</style></defs><title>l26_1_1</title><path class="cls-1" d="M29.78,40.24H10.32A10.38,10.38,0,0,1-.06,29.86V10.41A10.39,10.39,0,0,1,10.32,0H29.78A10.39,10.39,0,0,1,40.16,10.41V29.86A10.38,10.38,0,0,1,29.78,40.24Zm-14.45-22a5.21,5.21,0,0,0,2.55-1.94,5.36,5.36,0,0,0,.91-3.09,5.6,5.6,0,0,0-1-3.26A6.33,6.33,0,0,0,15,7.75,10.68,10.68,0,0,0,10.85,7a13,13,0,0,0-3.79.57,10.84,10.84,0,0,0-3.25,1.6A2.65,2.65,0,0,0,3,10a2.48,2.48,0,0,0-.22,1.12,2.64,2.64,0,0,0,.54,1.68,1.65,1.65,0,0,0,1.35.68,2,2,0,0,0,.8-.14c.23-.1.55-.25,1-.46l.67-.32a17.11,17.11,0,0,1,1.74-.77,4.94,4.94,0,0,1,1.68-.29,2.77,2.77,0,0,1,2,.66,2.41,2.41,0,0,1,.7,1.84,1.8,1.8,0,0,1-.8,1.63,4.92,4.92,0,0,1-2.56.51H8.45a1.81,1.81,0,0,0-1.5.67A2.6,2.6,0,0,0,7,20a1.81,1.81,0,0,0,1.5.67h2a4.84,4.84,0,0,1,2.63.55,2,2,0,0,1,.8,1.79A2.22,2.22,0,0,1,13.08,25a4.51,4.51,0,0,1-2.58.58,5.56,5.56,0,0,1-1.84-.28,14.31,14.31,0,0,1-1.84-.78l-.4-.18-.3-.14c-.41-.21-.73-.37-1-.46a2.07,2.07,0,0,0-.8-.15A1.65,1.65,0,0,0,3,24.25a2.64,2.64,0,0,0-.54,1.68A2.48,2.48,0,0,0,2.69,27a2.49,2.49,0,0,0,.77.88,10.13,10.13,0,0,0,3.33,1.62,14.32,14.32,0,0,0,4,.56,12.11,12.11,0,0,0,4.53-.78,6.83,6.83,0,0,0,3-2.23,5.6,5.6,0,0,0,1.05-3.39,5.66,5.66,0,0,0-1.07-3.49A5.4,5.4,0,0,0,15.33,18.22ZM37,25.71l-4-4,3.65-3.59a2.61,2.61,0,0,0,.8-1.85A2.58,2.58,0,0,0,35,13.8a2.54,2.54,0,0,0-1.89.87l-3.46,3.48-3.42-3.48a2.44,2.44,0,0,0-1.89-.9,2.4,2.4,0,0,0-1.77.77,2.48,2.48,0,0,0,0,3.61l3.65,3.59-4,4a2.52,2.52,0,0,0-.8,1.82,2.43,2.43,0,0,0,.77,1.76,2.46,2.46,0,0,0,1.79.77,2.54,2.54,0,0,0,1.89-.87l3.71-3.9,3.75,3.9a2.54,2.54,0,0,0,1.89.87,2.46,2.46,0,0,0,1.79-.77,2.43,2.43,0,0,0,.77-1.76A2.52,2.52,0,0,0,37,25.71Z"/><path class="cls-1" d="M89.68,40.29H70.22A10.38,10.38,0,0,1,59.84,29.91V10.46A10.39,10.39,0,0,1,70.22.07H89.68a10.39,10.39,0,0,1,10.38,10.39V29.91A10.38,10.38,0,0,1,89.68,40.29ZM86.59,22.86h-.7V11.3A2.74,2.74,0,0,0,85,9.16,3,3,0,0,0,83,8.39a3.13,3.13,0,0,0-1.43.34,2.87,2.87,0,0,0-1.13,1L71.23,22.76a3.58,3.58,0,0,0-.7,2.11A2.37,2.37,0,0,0,73,27.34h7.13v1.08A2.83,2.83,0,0,0,81,30.6a2.89,2.89,0,0,0,2.06.74,3,3,0,0,0,2.08-.74,2.83,2.83,0,0,0,.8-2.18V27.34h.7q2.79,0,2.79-2.28C89.38,23.59,88.45,22.86,86.59,22.86Zm-10.27,0,3.84-5.54v5.54Z"/><path class="cls-1" d="M95.2,45.19H64.7a4.87,4.87,0,0,0-4.86,4.86v1.06A4.87,4.87,0,0,0,64.7,56h9.65v15.1H25.65V55.92H35.3a4.87,4.87,0,0,0,4.86-4.86V50a4.87,4.87,0,0,0-4.86-4.86H4.8A4.87,4.87,0,0,0-.06,50v1.06A4.87,4.87,0,0,0,4.8,55.92h9.66v39a5,5,0,0,0,5,5.05h1.1a5,5,0,0,0,5-5.05V82.26h48.7V94.93a5,5,0,0,0,5.05,5h1.1a5,5,0,0,0,5-5V56H95.2a4.87,4.87,0,0,0,4.86-4.86V50.05A4.87,4.87,0,0,0,95.2,45.19Z"/></svg>