<svg id="Layer_1" data-name="Layer 1" xmlns="http://www.w3.org/2000/svg" viewBox="0 0 100 100"><defs><style>.cls-1{fill:#020202;}</style></defs><title>l26_2_1</title><path class="cls-1" d="M29.84,40.24H10.38A10.38,10.38,0,0,1,0,29.86V10.41A10.39,10.39,0,0,1,10.38,0H29.84A10.39,10.39,0,0,1,40.22,10.41V29.86A10.38,10.38,0,0,1,29.84,40.24ZM16.43,18.94a4.53,4.53,0,0,0,2.36-1.77,5.21,5.21,0,0,0,.85-3A5,5,0,0,0,17.56,10a9.35,9.35,0,0,0-5.69-1.55A9.34,9.34,0,0,0,6.21,10a4.92,4.92,0,0,0-2.1,4.21A5,5,0,0,0,5,17.1a4.86,4.86,0,0,0,2.39,1.84,4.94,4.94,0,0,0-2.81,1.79,5.27,5.27,0,0,0-1,3.28,5.18,5.18,0,0,0,2.23,4.46,10.27,10.27,0,0,0,6.1,1.6A10.28,10.28,0,0,0,18,28.47,5.18,5.18,0,0,0,20.21,24a4.93,4.93,0,0,0-3.78-5.07Zm-4.56,7c-2.17,0-3.26-.78-3.26-2.34s1.09-2.34,3.26-2.34,3.27.78,3.27,2.34S14.05,25.9,11.87,25.9Zm0-13.32a3.16,3.16,0,0,1,2,.53,2,2,0,0,1,.66,1.69,2.08,2.08,0,0,1-.66,1.71,3.09,3.09,0,0,1-2,.54,3.08,3.08,0,0,1-2-.54,2.05,2.05,0,0,1-.66-1.71,2,2,0,0,1,.66-1.69A3.15,3.15,0,0,1,11.87,12.58ZM36,26,32.3,22.24l3.42-3.36a2.45,2.45,0,0,0,.75-1.74,2.23,2.23,0,0,0-.7-1.63,2.27,2.27,0,0,0-1.66-.71,2.42,2.42,0,0,0-1.78.81l-3.24,3.27-3.21-3.27a2.3,2.3,0,0,0-1.76-.84,2.25,2.25,0,0,0-1.67.72,2.34,2.34,0,0,0,.05,3.39l3.41,3.36L22.2,26a2.36,2.36,0,0,0-.75,1.71,2.26,2.26,0,0,0,.71,1.65,2.32,2.32,0,0,0,1.68.72,2.44,2.44,0,0,0,1.78-.81l3.47-3.66,3.52,3.66a2.36,2.36,0,0,0,1.76.81,2.29,2.29,0,0,0,1.68-.72,2.24,2.24,0,0,0,.73-1.65A2.39,2.39,0,0,0,36,26Z"/><path class="cls-1" d="M89.73,40.29H70.28A10.38,10.38,0,0,1,59.9,29.91V10.46A10.39,10.39,0,0,1,70.28.07H89.73a10.39,10.39,0,0,1,10.39,10.39V29.91A10.39,10.39,0,0,1,89.73,40.29ZM77.13,26.76H74.67V12.54a2.6,2.6,0,0,0-.73-1.95A2.66,2.66,0,0,0,72,9.87a5.07,5.07,0,0,0-2.49.75l-4.8,2.79a2,2,0,0,0-1,1.86,2.54,2.54,0,0,0,.6,1.64,1.8,1.8,0,0,0,1.44.73,2,2,0,0,0,1-.3l2.4-1.41V26.76H66.72a3,3,0,0,0-2,.54,2,2,0,0,0-.63,1.62q0,2.22,2.61,2.22H77.13q2.61,0,2.61-2.22a2,2,0,0,0-.63-1.62A3,3,0,0,0,77.13,26.76Zm13.44-9.54a5.76,5.76,0,0,0-2.53.56,4.77,4.77,0,0,0-1.85,1.51,8,8,0,0,1,1.13-3.91A2.87,2.87,0,0,1,89.79,14a4,4,0,0,1,1.38.24q.66.24,1.65.72l.66.33c.38.2.68.35.9.44a2,2,0,0,0,.75.13,1.59,1.59,0,0,0,1.28-.64,2.42,2.42,0,0,0,.52-1.58,2.21,2.21,0,0,0-.22-1,2.62,2.62,0,0,0-.74-.81,9.54,9.54,0,0,0-3-1.5,11.68,11.68,0,0,0-3.44-.54,8.11,8.11,0,0,0-4.66,1.35,8.75,8.75,0,0,0-3.09,3.86,14.52,14.52,0,0,0-1.1,5.86q0,5.1,2.31,7.86a8.05,8.05,0,0,0,6.54,2.76,7.73,7.73,0,0,0,3.81-.93A6.68,6.68,0,0,0,96,27.89a7.51,7.51,0,0,0,.94-3.77,7.52,7.52,0,0,0-.82-3.55,6.2,6.2,0,0,0-2.27-2.46A6.07,6.07,0,0,0,90.57,17.22Zm-1.38,10a2.39,2.39,0,0,1-1.86-.79,3,3,0,0,1-.72-2.06,3,3,0,0,1,.71-2.07,2.66,2.66,0,0,1,3.75,0,3,3,0,0,1,.67,2.08,3,3,0,0,1-.69,2.07A2.36,2.36,0,0,1,89.19,27.18Z"/><path class="cls-1" d="M95.26,45.19H64.76a4.86,4.86,0,0,0-4.86,4.86v1.06A4.86,4.86,0,0,0,64.76,56h9.65v15.1H25.7V55.92h9.66a4.87,4.87,0,0,0,4.86-4.86V50a4.87,4.87,0,0,0-4.86-4.86H4.86A4.87,4.87,0,0,0,0,50v1.06a4.87,4.87,0,0,0,4.86,4.86h9.65v39a5,5,0,0,0,5,5.05h1.1a5,5,0,0,0,5-5.05V82.26H74.41V94.93a5,5,0,0,0,5,5h1.1a5,5,0,0,0,5-5V56h9.66a4.87,4.87,0,0,0,4.86-4.86V50.05A4.87,4.87,0,0,0,95.26,45.19Z"/></svg>