<svg id="Layer_1" data-name="Layer 1" xmlns="http://www.w3.org/2000/svg" viewBox="0 0 100 100"><defs><style>.cls-1{fill:#020202;}</style></defs><title>l26_1_1</title><path class="cls-1" d="M29.84,40.24H10.38A10.38,10.38,0,0,1,0,29.86V10.41A10.39,10.39,0,0,1,10.38,0H29.84A10.39,10.39,0,0,1,40.22,10.41V29.86A10.38,10.38,0,0,1,29.84,40.24ZM17.26,25.16H10.83l4.54-4.64a15.1,15.1,0,0,0,2.68-3.6,8.09,8.09,0,0,0,.78-3.57,5.88,5.88,0,0,0-1-3.34,6.23,6.23,0,0,0-2.76-2.24A10.39,10.39,0,0,0,10.93,7a12.66,12.66,0,0,0-3.7.57,12.84,12.84,0,0,0-3.38,1.6,2.23,2.23,0,0,0-.78.83,2.77,2.77,0,0,0-.21,1.16,2.72,2.72,0,0,0,.55,1.71,1.62,1.62,0,0,0,1.34.72,1.77,1.77,0,0,0,.61-.1,3.29,3.29,0,0,0,.65-.3l.5-.27.64-.32A14.93,14.93,0,0,1,9,11.8a5.2,5.2,0,0,1,1.71-.27,2.51,2.51,0,0,1,1.78.58,2.16,2.16,0,0,1,.62,1.66q0,1.86-2.11,4.06L4.17,24.91A3.5,3.5,0,0,0,3.09,27.4a2.32,2.32,0,0,0,2.49,2.43H17.26a3.25,3.25,0,0,0,2.1-.57,2.21,2.21,0,0,0,.69-1.79,2.13,2.13,0,0,0-.69-1.75A3.31,3.31,0,0,0,17.26,25.16Zm19.84.55-4-4,3.65-3.59a2.61,2.61,0,0,0,.8-1.85,2.56,2.56,0,0,0-2.53-2.5,2.53,2.53,0,0,0-1.88.87l-3.46,3.48-3.42-3.48a2.47,2.47,0,0,0-1.89-.9,2.42,2.42,0,0,0-1.78.77,2.48,2.48,0,0,0-.75,1.79,2.52,2.52,0,0,0,.8,1.82l3.65,3.59-4,4a2.52,2.52,0,0,0-.8,1.82,2.43,2.43,0,0,0,.77,1.76,2.46,2.46,0,0,0,1.79.77A2.57,2.57,0,0,0,26,29.19l3.71-3.9,3.74,3.9a2.57,2.57,0,0,0,1.89.87,2.46,2.46,0,0,0,1.79-.77,2.39,2.39,0,0,0,.77-1.76A2.48,2.48,0,0,0,37.1,25.71Z"/><path class="cls-1" d="M89.73,40.29H70.28A10.38,10.38,0,0,1,59.9,29.91V10.46A10.39,10.39,0,0,1,70.28.07H89.73a10.39,10.39,0,0,1,10.39,10.39V29.91A10.39,10.39,0,0,1,89.73,40.29ZM83.84,19.53a5.23,5.23,0,0,0,2.54-1.94,5.29,5.29,0,0,0,.91-3.09,5.53,5.53,0,0,0-1-3.26,6.27,6.27,0,0,0-2.78-2.18,10.64,10.64,0,0,0-4.18-.76,13,13,0,0,0-3.79.57,10.84,10.84,0,0,0-3.25,1.6,2.61,2.61,0,0,0-.76.87,2.48,2.48,0,0,0-.23,1.12,2.59,2.59,0,0,0,.55,1.68,1.66,1.66,0,0,0,1.34.68,2,2,0,0,0,.8-.14c.24-.1.56-.25,1-.46l.67-.32a16.27,16.27,0,0,1,1.75-.77,4.86,4.86,0,0,1,1.68-.29,2.74,2.74,0,0,1,2,.66,2.37,2.37,0,0,1,.7,1.84,1.78,1.78,0,0,1-.8,1.63,4.89,4.89,0,0,1-2.56.51H77a1.82,1.82,0,0,0-1.51.67,2.64,2.64,0,0,0,0,3.2A1.82,1.82,0,0,0,77,22h2a4.8,4.8,0,0,1,2.62.55,2,2,0,0,1,.8,1.79,2.22,2.22,0,0,1-.78,1.92,4.46,4.46,0,0,1-2.58.58,5.87,5.87,0,0,1-1.84-.28,14.93,14.93,0,0,1-1.84-.78l-.4-.18-.3-.14c-.41-.21-.73-.37-1-.46a2,2,0,0,0-.8-.15,1.65,1.65,0,0,0-1.34.69A2.59,2.59,0,0,0,71,27.24a2.48,2.48,0,0,0,.23,1.1,2.36,2.36,0,0,0,.76.88,10.13,10.13,0,0,0,3.33,1.62,14.32,14.32,0,0,0,4,.56,12.07,12.07,0,0,0,4.53-.78,6.77,6.77,0,0,0,3-2.23A5.54,5.54,0,0,0,87.87,25a5.72,5.72,0,0,0-1.07-3.49A5.47,5.47,0,0,0,83.84,19.53Z"/><path class="cls-1" d="M95.26,45.19H64.76a4.86,4.86,0,0,0-4.86,4.86v1.06A4.86,4.86,0,0,0,64.76,56h9.65v15.1H25.7V55.92h9.66a4.87,4.87,0,0,0,4.86-4.86V50a4.87,4.87,0,0,0-4.86-4.86H4.86A4.87,4.87,0,0,0,0,50v1.06a4.87,4.87,0,0,0,4.86,4.86h9.65v39a5,5,0,0,0,5,5.05h1.1a5,5,0,0,0,5-5.05V82.26H74.41V94.93a5,5,0,0,0,5,5h1.1a5,5,0,0,0,5-5V56h9.66a4.87,4.87,0,0,0,4.86-4.86V50.05A4.87,4.87,0,0,0,95.26,45.19Z"/></svg>