<svg id="Layer_1" data-name="Layer 1" xmlns="http://www.w3.org/2000/svg" viewBox="0 0 100 100"><defs><style>.cls-1{fill:#020202;}</style></defs><title>l26_2_1</title><path class="cls-1" d="M29.86,40.24H10.4A10.38,10.38,0,0,1,0,29.86V10.41A10.39,10.39,0,0,1,10.4,0H29.86A10.39,10.39,0,0,1,40.24,10.41V29.86A10.38,10.38,0,0,1,29.86,40.24ZM18.35,22.06h-.66V11.23a2.55,2.55,0,0,0-.81-2,2.83,2.83,0,0,0-1.95-.72,3,3,0,0,0-1.34.32,2.74,2.74,0,0,0-1.06.91L4,22a3.36,3.36,0,0,0-.66,2,2.3,2.3,0,0,0,.63,1.65,2.25,2.25,0,0,0,1.71.66h6.69v1a2.66,2.66,0,0,0,.73,2A2.72,2.72,0,0,0,15,30a2.77,2.77,0,0,0,2-.69,2.64,2.64,0,0,0,.75-2v-1h.66q2.61,0,2.61-2.13T18.35,22.06Zm-9.63,0,3.6-5.19v5.19ZM36.05,26l-3.72-3.72,3.42-3.36a2.45,2.45,0,0,0,.75-1.74,2.24,2.24,0,0,0-.71-1.63,2.27,2.27,0,0,0-1.66-.71,2.4,2.4,0,0,0-1.77.81l-3.24,3.27-3.21-3.27a2.3,2.3,0,0,0-1.77-.84,2.26,2.26,0,0,0-1.67.72,2.34,2.34,0,0,0,.05,3.39l3.42,3.36L22.22,26a2.36,2.36,0,0,0-.75,1.71,2.27,2.27,0,0,0,.72,1.65,2.3,2.3,0,0,0,1.68.72,2.4,2.4,0,0,0,1.77-.81l3.48-3.66,3.51,3.66A2.4,2.4,0,0,0,34.4,30a2.3,2.3,0,0,0,1.68-.72,2.27,2.27,0,0,0,.72-1.65A2.36,2.36,0,0,0,36.05,26Z"/><path class="cls-1" d="M89.76,40.29H70.3A10.38,10.38,0,0,1,59.92,29.91V10.46A10.39,10.39,0,0,1,70.3.07H89.76a10.39,10.39,0,0,1,10.38,10.39V29.91A10.38,10.38,0,0,1,89.76,40.29Zm-5.41-20a4.53,4.53,0,0,0,2.36-1.77,5.21,5.21,0,0,0,.85-3,5,5,0,0,0-2.08-4.21,9.37,9.37,0,0,0-5.69-1.55,9.37,9.37,0,0,0-5.67,1.55A4.94,4.94,0,0,0,72,15.48a5.12,5.12,0,0,0,.84,2.93,4.93,4.93,0,0,0,2.4,1.84A5,5,0,0,0,72.44,22a5.27,5.27,0,0,0-1,3.28,5.19,5.19,0,0,0,2.24,4.46,10.27,10.27,0,0,0,6.1,1.6,10.3,10.3,0,0,0,6.11-1.6,5.18,5.18,0,0,0,2.23-4.46,4.93,4.93,0,0,0-3.78-5.07Zm-4.56,7q-3.27,0-3.27-2.34t3.27-2.34q3.27,0,3.27,2.34T79.79,27.21Zm0-13.32a3.2,3.2,0,0,1,2,.53,2,2,0,0,1,.66,1.69,2.08,2.08,0,0,1-.66,1.71,4,4,0,0,1-4,0,2.08,2.08,0,0,1-.66-1.71,2,2,0,0,1,.66-1.69A3.2,3.2,0,0,1,79.79,13.89Z"/><path class="cls-1" d="M95.28,45.19H64.78a4.87,4.87,0,0,0-4.86,4.86v1.06A4.87,4.87,0,0,0,64.78,56h9.65v15.1H25.72V55.92h9.66a4.87,4.87,0,0,0,4.86-4.86V50a4.87,4.87,0,0,0-4.86-4.86H4.88A4.87,4.87,0,0,0,0,50v1.06a4.87,4.87,0,0,0,4.86,4.86h9.66v39a5,5,0,0,0,5,5.05h1.1a5,5,0,0,0,5-5.05V82.26H74.43V94.93a5,5,0,0,0,5,5h1.1a5,5,0,0,0,5-5V56h9.66a4.87,4.87,0,0,0,4.86-4.86V50.05A4.87,4.87,0,0,0,95.28,45.19Z"/></svg>