<svg id="Layer_1" data-name="Layer 1" xmlns="http://www.w3.org/2000/svg" viewBox="0 0 100 100"><defs><style>.cls-1{fill:#020202;}</style></defs><title>l26_3_1</title><path class="cls-1" d="M29.78,40.24H10.32A10.38,10.38,0,0,1-.06,29.86V10.41A10.39,10.39,0,0,1,10.32,0H29.78A10.39,10.39,0,0,1,40.16,10.41V29.86A10.38,10.38,0,0,1,29.78,40.24Zm1.8-12.86-6.2-6.2,5.7-5.6a4.09,4.09,0,0,0,1.25-2.9A3.75,3.75,0,0,0,31.15,10a3.81,3.81,0,0,0-2.77-1.18,4,4,0,0,0-2.95,1.35L20,15.58l-5.35-5.45a3.86,3.86,0,0,0-2.95-1.4A3.76,3.76,0,0,0,9,9.93,3.9,3.9,0,0,0,9,15.58l5.7,5.6-6.2,6.2a3.92,3.92,0,0,0-1.25,2.85A3.77,3.77,0,0,0,8.48,33a3.83,3.83,0,0,0,2.8,1.2,4,4,0,0,0,3-1.35l5.8-6.1,5.85,6.1a4,4,0,0,0,2.95,1.35,3.85,3.85,0,0,0,2.8-1.2,3.77,3.77,0,0,0,1.2-2.75A4,4,0,0,0,31.58,27.38Z"/><path class="cls-1" d="M89.68,40.29H70.22A10.38,10.38,0,0,1,59.84,29.91V10.46A10.39,10.39,0,0,1,70.22.07H89.68a10.39,10.39,0,0,1,10.38,10.39V29.91A10.38,10.38,0,0,1,89.68,40.29ZM79,9.72a7.73,7.73,0,0,0-3.81.93,6.68,6.68,0,0,0-2.62,2.6,7.48,7.48,0,0,0-1,3.76,7.57,7.57,0,0,0,.83,3.56A6.18,6.18,0,0,0,74.67,23a6.06,6.06,0,0,0,3.24.88,5.79,5.79,0,0,0,2.54-.55,4.76,4.76,0,0,0,1.84-1.52,8,8,0,0,1-1.12,3.92,2.87,2.87,0,0,1-2.48,1.39,4,4,0,0,1-1.38-.24q-.66-.24-1.65-.72L75,25.86c-.38-.2-.68-.34-.9-.43a2,2,0,0,0-.75-.14,1.59,1.59,0,0,0-1.27.65,2.4,2.4,0,0,0-.53,1.57,2.2,2.2,0,0,0,.23,1,2.58,2.58,0,0,0,.73.81,9.59,9.59,0,0,0,3,1.5,11.61,11.61,0,0,0,3.43.54,8.14,8.14,0,0,0,4.67-1.35,8.72,8.72,0,0,0,3.09-3.85,14.57,14.57,0,0,0,1.09-5.87q0-5.1-2.31-7.86A8.05,8.05,0,0,0,79,9.72Zm.33,9.93a2.36,2.36,0,0,1-1.87-.76,3.06,3.06,0,0,1-.68-2.09,3,3,0,0,1,.69-2.07A2.36,2.36,0,0,1,79.29,14a2.4,2.4,0,0,1,1.86.8,2.93,2.93,0,0,1,.72,2.05,3,3,0,0,1-.7,2.07A2.42,2.42,0,0,1,79.29,19.65Z"/><path class="cls-1" d="M95.2,45.19H64.7a4.87,4.87,0,0,0-4.86,4.86v1.06A4.87,4.87,0,0,0,64.7,56h9.65v15.1H25.65V55.92H35.3a4.87,4.87,0,0,0,4.86-4.86V50a4.87,4.87,0,0,0-4.86-4.86H4.8A4.87,4.87,0,0,0-.06,50v1.06A4.87,4.87,0,0,0,4.8,55.92h9.66v39a5,5,0,0,0,5,5.05h1.1a5,5,0,0,0,5-5.05V82.26h48.7V94.93a5,5,0,0,0,5.05,5h1.1a5,5,0,0,0,5-5V56H95.2a4.87,4.87,0,0,0,4.86-4.86V50.05A4.87,4.87,0,0,0,95.2,45.19Z"/></svg>