<svg id="Layer_1" data-name="Layer 1" xmlns="http://www.w3.org/2000/svg" viewBox="0 0 100 100"><defs><style>.cls-1{fill:#020202;}</style></defs><title>l26_2_1</title><path class="cls-1" d="M29.86,40.24H10.4A10.38,10.38,0,0,1,0,29.86V10.41A10.39,10.39,0,0,1,10.4,0H29.86A10.39,10.39,0,0,1,40.24,10.41V29.86A10.38,10.38,0,0,1,29.86,40.24ZM18.05,25l-3.72-3.72,3.42-3.36a2.45,2.45,0,0,0,.75-1.74,2.43,2.43,0,0,0-2.37-2.34,2.4,2.4,0,0,0-1.77.81l-3.24,3.27L7.91,14.61a2.32,2.32,0,0,0-1.77-.83,2.25,2.25,0,0,0-1.67.71,2.34,2.34,0,0,0,0,3.39l3.42,3.36L4.22,25a2.36,2.36,0,0,0-.75,1.71,2.27,2.27,0,0,0,.72,1.65A2.3,2.3,0,0,0,5.87,29a2.39,2.39,0,0,0,1.77-.8l3.48-3.67,3.51,3.67a2.39,2.39,0,0,0,1.77.8,2.3,2.3,0,0,0,1.68-.72,2.27,2.27,0,0,0,.72-1.65A2.36,2.36,0,0,0,18.05,25ZM23,19H34.1a1.71,1.71,0,0,0,1.26-.52,1.78,1.78,0,0,0-1.26-3H23a1.69,1.69,0,0,0-1.26.53,1.73,1.73,0,0,0-.51,1.27,1.68,1.68,0,0,0,.51,1.27A1.74,1.74,0,0,0,23,19Zm0,6H34.1a1.71,1.71,0,0,0,1.26-.52,1.78,1.78,0,0,0-1.26-3H23a1.69,1.69,0,0,0-1.26.53,1.73,1.73,0,0,0-.51,1.27,1.68,1.68,0,0,0,.51,1.27A1.74,1.74,0,0,0,23,25Z"/><path class="cls-1" d="M89.76,40.29H70.3A10.38,10.38,0,0,1,59.92,29.91V10.46A10.39,10.39,0,0,1,70.3.07H89.76a10.39,10.39,0,0,1,10.38,10.39V29.91A10.38,10.38,0,0,1,89.76,40.29ZM86.15,26.76H83.69V12.54A2.6,2.6,0,0,0,83,10.59,2.66,2.66,0,0,0,81,9.87a5.07,5.07,0,0,0-2.49.75l-4.8,2.79a2,2,0,0,0-1,1.86,2.54,2.54,0,0,0,.6,1.64,1.8,1.8,0,0,0,1.44.73,2,2,0,0,0,1-.3l2.4-1.41V26.76H75.74a3,3,0,0,0-2,.54,2,2,0,0,0-.63,1.62q0,2.22,2.61,2.22H86.15q2.61,0,2.61-2.22a2,2,0,0,0-.63-1.62A3,3,0,0,0,86.15,26.76Z"/><path class="cls-1" d="M95.28,45.19H64.78a4.87,4.87,0,0,0-4.86,4.86v1.06A4.87,4.87,0,0,0,64.78,56h9.65v15.1H25.72V55.92h9.66a4.87,4.87,0,0,0,4.86-4.86V50a4.87,4.87,0,0,0-4.86-4.86H4.88A4.87,4.87,0,0,0,0,50v1.06a4.87,4.87,0,0,0,4.86,4.86h9.66v39a5,5,0,0,0,5,5.05h1.1a5,5,0,0,0,5-5.05V82.26H74.43V94.93a5,5,0,0,0,5,5h1.1a5,5,0,0,0,5-5V56h9.66a4.87,4.87,0,0,0,4.86-4.86V50.05A4.87,4.87,0,0,0,95.28,45.19Z"/></svg>