<svg id="Layer_1" data-name="Layer 1" xmlns="http://www.w3.org/2000/svg" viewBox="0 0 100 100"><defs><style>.cls-1{fill:#020202;}</style></defs><title>l26_3_1</title><path class="cls-1" d="M29.86,40.24H10.4A10.38,10.38,0,0,1,0,29.86V10.41A10.39,10.39,0,0,1,10.4,0H29.86A10.39,10.39,0,0,1,40.24,10.41V29.86A10.38,10.38,0,0,1,29.86,40.24Zm1.8-12.86-6.2-6.2,5.7-5.6a4.09,4.09,0,0,0,1.25-2.9A3.75,3.75,0,0,0,31.23,10a3.8,3.8,0,0,0-2.77-1.17,4,4,0,0,0-2.95,1.34l-5.4,5.45-5.35-5.45a3.85,3.85,0,0,0-2.95-1.39A3.75,3.75,0,0,0,9,9.93a3.9,3.9,0,0,0,.08,5.65l5.7,5.6-6.2,6.2a3.93,3.93,0,0,0-1.25,2.86A3.81,3.81,0,0,0,8.56,33a3.82,3.82,0,0,0,2.8,1.19,4,4,0,0,0,3-1.35l5.8-6.09L26,32.83a4,4,0,0,0,2.95,1.35,4.09,4.09,0,0,0,4-3.94A4,4,0,0,0,31.66,27.38Z"/><path class="cls-1" d="M89.76,40.29H70.3A10.38,10.38,0,0,1,59.92,29.91V10.46A10.39,10.39,0,0,1,70.3.07H89.76a10.39,10.39,0,0,1,10.38,10.39V29.91A10.38,10.38,0,0,1,89.76,40.29ZM86.15,26.76H83.69V12.54A2.6,2.6,0,0,0,83,10.59,2.66,2.66,0,0,0,81,9.87a5.07,5.07,0,0,0-2.49.75l-4.8,2.79a2,2,0,0,0-1,1.86,2.54,2.54,0,0,0,.6,1.64,1.8,1.8,0,0,0,1.44.73,2,2,0,0,0,1-.3l2.4-1.41V26.76H75.74a3,3,0,0,0-2,.54,2,2,0,0,0-.63,1.62c0,1.49.87,2.22,2.61,2.22H86.15c1.74,0,2.61-.73,2.61-2.22a2,2,0,0,0-.63-1.62A3,3,0,0,0,86.15,26.76Z"/><path class="cls-1" d="M95.28,45.19H64.78a4.87,4.87,0,0,0-4.86,4.86v1.06A4.87,4.87,0,0,0,64.78,56h9.65v15.1H25.72V55.92h9.66a4.87,4.87,0,0,0,4.86-4.86V50a4.87,4.87,0,0,0-4.86-4.86H4.88A4.87,4.87,0,0,0,0,50v1.06a4.87,4.87,0,0,0,4.86,4.86h9.66v39a5,5,0,0,0,5,5.05h1.1a5,5,0,0,0,5-5.05V82.26H74.43V94.93a5,5,0,0,0,5,5h1.1a5,5,0,0,0,5-5V56h9.66a4.87,4.87,0,0,0,4.86-4.86V50.05A4.87,4.87,0,0,0,95.28,45.19Z"/></svg>