<svg id="Layer_1" data-name="Layer 1" xmlns="http://www.w3.org/2000/svg" viewBox="0 0 100 100"><defs><style>.cls-1{fill:#020202;}</style></defs><title>l26_2_1</title><path class="cls-1" d="M29.84,40.24H10.38A10.38,10.38,0,0,1,0,29.86V10.41A10.39,10.39,0,0,1,10.38,0H29.84A10.39,10.39,0,0,1,40.22,10.41V29.86A10.38,10.38,0,0,1,29.84,40.24ZM13.34,16a7.5,7.5,0,0,0-3,.54V12.85h6.49c1.73,0,2.6-.7,2.6-2.1s-.87-2.07-2.6-2.07H7.55a2.56,2.56,0,0,0-1.89.66A2.6,2.6,0,0,0,5,11.26v8.13a1.69,1.69,0,0,0,.57,1.31A2.08,2.08,0,0,0,7,21.19a2.86,2.86,0,0,0,1.34-.33,10.66,10.66,0,0,1,1.73-.54,8.18,8.18,0,0,1,1.64-.15,3.36,3.36,0,0,1,2.33.75,2.67,2.67,0,0,1,.84,2.1,2.61,2.61,0,0,1-.8,2.12,3.85,3.85,0,0,1-2.5.67,4.94,4.94,0,0,1-1.66-.27,16.76,16.76,0,0,1-1.7-.72l-.6-.3a9.13,9.13,0,0,0-.9-.45A2,2,0,0,0,6,24a1.56,1.56,0,0,0-1.26.65,2.44,2.44,0,0,0-.5,1.57,2.25,2.25,0,0,0,.22,1,2.62,2.62,0,0,0,.7.82,9.93,9.93,0,0,0,3.08,1.5,12.49,12.49,0,0,0,3.64.54,9.74,9.74,0,0,0,4.29-.9A6.75,6.75,0,0,0,19,26.62a7.1,7.1,0,0,0,1-3.81,7.2,7.2,0,0,0-.85-3.55,6.08,6.08,0,0,0-2.37-2.4A7,7,0,0,0,13.34,16ZM36,26,32.3,22.24l3.42-3.36a2.45,2.45,0,0,0,.75-1.74,2.23,2.23,0,0,0-.7-1.63,2.29,2.29,0,0,0-1.66-.71,2.42,2.42,0,0,0-1.78.81l-3.24,3.27-3.21-3.27a2.3,2.3,0,0,0-1.77-.84,2.24,2.24,0,0,0-1.66.72,2.33,2.33,0,0,0,0,3.39l3.42,3.36L22.2,26a2.36,2.36,0,0,0-.75,1.71,2.26,2.26,0,0,0,.71,1.65,2.3,2.3,0,0,0,1.68.72,2.4,2.4,0,0,0,1.77-.81l3.48-3.66,3.52,3.66a2.36,2.36,0,0,0,1.76.81,2.48,2.48,0,0,0,2.41-2.37A2.39,2.39,0,0,0,36,26Z"/><path class="cls-1" d="M89.73,40.29H70.28A10.38,10.38,0,0,1,59.9,29.91V10.46A10.39,10.39,0,0,1,70.28.07H89.73a10.39,10.39,0,0,1,10.39,10.39V29.91A10.39,10.39,0,0,1,89.73,40.29ZM77.13,26.76H74.67V12.54a2.6,2.6,0,0,0-.73-1.95A2.66,2.66,0,0,0,72,9.87a5.07,5.07,0,0,0-2.49.75l-4.8,2.79a2,2,0,0,0-1,1.86,2.54,2.54,0,0,0,.6,1.64,1.8,1.8,0,0,0,1.44.73,2,2,0,0,0,1-.3l2.4-1.41V26.76H66.72a3,3,0,0,0-2,.54,2,2,0,0,0-.63,1.62q0,2.22,2.61,2.22H77.13q2.61,0,2.61-2.22a2,2,0,0,0-.63-1.62A3,3,0,0,0,77.13,26.76Zm11.64,4.65a7,7,0,0,0,6-2.79q2.07-2.79,2.07-8.07t-2.08-8a7.84,7.84,0,0,0-12,0q-2.07,2.79-2.07,8t2.07,8.07A7,7,0,0,0,88.77,31.41Zm0-4.17a2.15,2.15,0,0,1-2.07-1.56,14.94,14.94,0,0,1-.63-5.13,14.76,14.76,0,0,1,.63-5.11,2.16,2.16,0,0,1,4.14,0,14.81,14.81,0,0,1,.63,5.1,14.94,14.94,0,0,1-.63,5.13A2.15,2.15,0,0,1,88.77,27.24Z"/><path class="cls-1" d="M95.26,45.19H64.76a4.86,4.86,0,0,0-4.86,4.86v1.06A4.86,4.86,0,0,0,64.76,56h9.65v15.1H25.7V55.92h9.66a4.87,4.87,0,0,0,4.86-4.86V50a4.87,4.87,0,0,0-4.86-4.86H4.86A4.87,4.87,0,0,0,0,50v1.06a4.87,4.87,0,0,0,4.86,4.86h9.65v39a5,5,0,0,0,5,5.05h1.1a5,5,0,0,0,5-5.05V82.26H74.41V94.93a5,5,0,0,0,5,5h1.1a5,5,0,0,0,5-5V56h9.66a4.87,4.87,0,0,0,4.86-4.86V50.05A4.87,4.87,0,0,0,95.26,45.19Z"/></svg>