<svg id="Layer_1" data-name="Layer 1" xmlns="http://www.w3.org/2000/svg" viewBox="0 0 100 100"><defs><style>.cls-1{fill:#020202;}</style></defs><title>l26_1_1</title><path class="cls-1" d="M29.72,40.23H10.27A10.39,10.39,0,0,1-.12,29.85V10.39A10.39,10.39,0,0,1,10.27,0H29.72A10.38,10.38,0,0,1,40.1,10.39V29.85A10.38,10.38,0,0,1,29.72,40.23Zm-.48-22.76h-6.3v-6.3a2.85,2.85,0,0,0-.85-2.1A2.82,2.82,0,0,0,20,8.22a2.85,2.85,0,0,0-2.1.85,2.89,2.89,0,0,0-.85,2.1v6.3h-6.3a2.85,2.85,0,0,0-2.1.85,2.89,2.89,0,0,0-.85,2.1,3,3,0,0,0,.85,2.12,2.8,2.8,0,0,0,2.1.88H17v6.25a2.89,2.89,0,0,0,.85,2.1,3.06,3.06,0,0,0,4.23,0,2.9,2.9,0,0,0,.82-2.1V23.42h6.3a2.77,2.77,0,0,0,2.1-.88,2.91,2.91,0,0,0,.85-2.12,2.85,2.85,0,0,0-.85-2.1A2.82,2.82,0,0,0,29.24,17.47Z"/><path class="cls-1" d="M89.62,40.28H70.16A10.39,10.39,0,0,1,59.78,29.89V10.44A10.38,10.38,0,0,1,70.16.06H89.62A10.38,10.38,0,0,1,100,10.44V29.89A10.39,10.39,0,0,1,89.62,40.28Zm-4-13.82H79.16l4.54-4.64a15.14,15.14,0,0,0,2.67-3.6,8,8,0,0,0,.79-3.57,5.91,5.91,0,0,0-1-3.35,6.27,6.27,0,0,0-2.77-2.24,10.33,10.33,0,0,0-4.16-.78,12.34,12.34,0,0,0-3.69.58,12.11,12.11,0,0,0-3.38,1.6,2.09,2.09,0,0,0-.78.83,2.72,2.72,0,0,0-.21,1.15,2.77,2.77,0,0,0,.54,1.71,1.66,1.66,0,0,0,1.35.72,2.1,2.1,0,0,0,.61-.09,4.13,4.13,0,0,0,.65-.31l.5-.27.64-.32a14.72,14.72,0,0,1,1.81-.78A5.2,5.2,0,0,1,79,12.83a2.51,2.51,0,0,1,1.77.57,2.15,2.15,0,0,1,.63,1.66c0,1.24-.71,2.6-2.11,4.07L72.5,26.2a3.54,3.54,0,0,0-1.09,2.5,2.35,2.35,0,0,0,2.5,2.43H85.59a3.19,3.19,0,0,0,2.1-.58,2.22,2.22,0,0,0,.68-1.79A2.13,2.13,0,0,0,87.69,27,3.25,3.25,0,0,0,85.59,26.46Z"/><path class="cls-1" d="M95.14,45.18H64.64A4.86,4.86,0,0,0,59.78,50v1.05A4.87,4.87,0,0,0,64.64,56H74.3v15.1H25.59V55.91h9.65A4.86,4.86,0,0,0,40.1,51V50a4.85,4.85,0,0,0-4.86-4.86H4.74A4.86,4.86,0,0,0-.12,50v1a4.87,4.87,0,0,0,4.86,4.87H14.4v39a5,5,0,0,0,5,5h1.1a5,5,0,0,0,5.05-5V82.25H74.3V94.91a5,5,0,0,0,5,5h1.1a5,5,0,0,0,5-5V56h9.65A4.87,4.87,0,0,0,100,51.09V50A4.86,4.86,0,0,0,95.14,45.18Z"/></svg>