<svg id="Layer_1" data-name="Layer 1" xmlns="http://www.w3.org/2000/svg" viewBox="0 0 100 100"><defs><style>.cls-1{fill:#020202;}</style></defs><title>l26_1_1</title><path class="cls-1" d="M29.84,40.24H10.38A10.38,10.38,0,0,1,0,29.86V10.41A10.39,10.39,0,0,1,10.38,0H29.84A10.39,10.39,0,0,1,40.22,10.41V29.86A10.38,10.38,0,0,1,29.84,40.24ZM17.89,25.71l-4-4,3.65-3.59a2.61,2.61,0,0,0,.8-1.85,2.58,2.58,0,0,0-2.53-2.5,2.54,2.54,0,0,0-1.89.87l-3.46,3.48L7.07,14.67a2.44,2.44,0,0,0-1.89-.9,2.4,2.4,0,0,0-1.77.77,2.45,2.45,0,0,0-.76,1.79,2.52,2.52,0,0,0,.8,1.82L7.1,21.74l-4,4a2.52,2.52,0,0,0-.8,1.82,2.43,2.43,0,0,0,.77,1.76,2.46,2.46,0,0,0,1.79.77,2.54,2.54,0,0,0,1.89-.87l3.71-3.9,3.75,3.9a2.54,2.54,0,0,0,1.89.87,2.46,2.46,0,0,0,1.79-.77,2.43,2.43,0,0,0,.77-1.76A2.52,2.52,0,0,0,17.89,25.71Zm16.92-7h-4v-4a1.86,1.86,0,0,0-.54-1.35,1.95,1.95,0,0,0-2.69,0A1.86,1.86,0,0,0,27,14.7v4H23a1.82,1.82,0,0,0-1.34.54,1.86,1.86,0,0,0-.54,1.35A1.89,1.89,0,0,0,21.63,22a1.8,1.8,0,0,0,1.34.56h4v4a1.82,1.82,0,0,0,.54,1.34,1.93,1.93,0,0,0,2.7,0,1.82,1.82,0,0,0,.53-1.34v-4h4A1.81,1.81,0,0,0,36.16,22a1.89,1.89,0,0,0,.54-1.36,1.86,1.86,0,0,0-.54-1.35A1.83,1.83,0,0,0,34.81,18.73Z"/><path class="cls-1" d="M89.73,40.29H70.28A10.38,10.38,0,0,1,59.9,29.91V10.46A10.39,10.39,0,0,1,70.28.07H89.73a10.39,10.39,0,0,1,10.39,10.39V29.91A10.39,10.39,0,0,1,89.73,40.29ZM86.56,26.47H83.93V11.3a2.81,2.81,0,0,0-.78-2.08,2.83,2.83,0,0,0-2.07-.76,5.33,5.33,0,0,0-2.65.8l-5.12,3a2.17,2.17,0,0,0-1.12,2A2.66,2.66,0,0,0,72.83,16a1.92,1.92,0,0,0,1.53.78,2.1,2.1,0,0,0,1.12-.32L78,14.92V26.47H75.45a3.17,3.17,0,0,0-2.11.58,2.14,2.14,0,0,0-.67,1.73c0,1.57.93,2.36,2.78,2.36H86.56c1.85,0,2.78-.79,2.78-2.36a2.14,2.14,0,0,0-.67-1.73A3.17,3.17,0,0,0,86.56,26.47Z"/><path class="cls-1" d="M95.26,45.19H64.76a4.86,4.86,0,0,0-4.86,4.86v1.06A4.86,4.86,0,0,0,64.76,56h9.65v15.1H25.7V55.92h9.66a4.87,4.87,0,0,0,4.86-4.86V50a4.87,4.87,0,0,0-4.86-4.86H4.86A4.87,4.87,0,0,0,0,50v1.06a4.87,4.87,0,0,0,4.86,4.86h9.65v39a5,5,0,0,0,5,5.05h1.1a5,5,0,0,0,5-5.05V82.26H74.41V94.93a5,5,0,0,0,5,5h1.1a5,5,0,0,0,5-5V56h9.66a4.87,4.87,0,0,0,4.86-4.86V50.05A4.87,4.87,0,0,0,95.26,45.19Z"/></svg>