<svg id="Layer_1" data-name="Layer 1" xmlns="http://www.w3.org/2000/svg" viewBox="0 0 100 100"><defs><style>.cls-1{fill:#020202;}</style></defs><title>l26_2_1</title><path class="cls-1" d="M29.78,40.24H10.32A10.38,10.38,0,0,1-.06,29.86V10.41A10.39,10.39,0,0,1,10.32,0H29.78A10.39,10.39,0,0,1,40.16,10.41V29.86A10.38,10.38,0,0,1,29.78,40.24ZM13.62,15.91a5.8,5.8,0,0,0-2.54.56A4.73,4.73,0,0,0,9.24,18a8,8,0,0,1,1.12-3.91,2.88,2.88,0,0,1,2.48-1.4,4,4,0,0,1,1.38.24q.66.24,1.65.72l.66.33c.38.2.68.35.9.44a2,2,0,0,0,.75.13,1.58,1.58,0,0,0,1.27-.64A2.43,2.43,0,0,0,20,12.31a2.2,2.2,0,0,0-.23-1.05,2.58,2.58,0,0,0-.73-.81A9.59,9.59,0,0,0,16,9a11.61,11.61,0,0,0-3.43-.54A8.14,8.14,0,0,0,7.9,9.76a8.75,8.75,0,0,0-3.09,3.86,14.52,14.52,0,0,0-1.09,5.86c0,3.41.77,6,2.31,7.86a8.05,8.05,0,0,0,6.54,2.76,7.73,7.73,0,0,0,3.81-.93A6.66,6.66,0,0,0,19,26.58a8,8,0,0,0,.12-7.32,6.18,6.18,0,0,0-2.26-2.46A6.07,6.07,0,0,0,13.62,15.91Zm-1.38,10a2.39,2.39,0,0,1-1.86-.79A3,3,0,0,1,9.66,23a3,3,0,0,1,.7-2.07,2.42,2.42,0,0,1,1.88-.78,2.36,2.36,0,0,1,1.87.77A3,3,0,0,1,14.79,23a3,3,0,0,1-.69,2.07A2.36,2.36,0,0,1,12.24,25.87ZM36,26l-3.72-3.72,3.42-3.36a2.45,2.45,0,0,0,.75-1.74,2.24,2.24,0,0,0-.71-1.63,2.27,2.27,0,0,0-1.66-.71,2.4,2.4,0,0,0-1.77.81L29,18.88l-3.21-3.27a2.3,2.3,0,0,0-1.77-.84,2.26,2.26,0,0,0-1.67.72,2.34,2.34,0,0,0,.05,3.39l3.42,3.36L22.14,26a2.36,2.36,0,0,0-.75,1.71,2.27,2.27,0,0,0,.72,1.65,2.3,2.3,0,0,0,1.68.72,2.4,2.4,0,0,0,1.77-.81L29,25.57l3.51,3.66a2.4,2.4,0,0,0,1.77.81A2.3,2.3,0,0,0,36,29.32a2.27,2.27,0,0,0,.72-1.65A2.36,2.36,0,0,0,36,26Z"/><path class="cls-1" d="M89.68,40.29H70.22A10.38,10.38,0,0,1,59.84,29.91V10.46A10.39,10.39,0,0,1,70.22.07H89.68a10.39,10.39,0,0,1,10.38,10.39V29.91A10.38,10.38,0,0,1,89.68,40.29ZM77.06,26.76H74.6V12.54a2.61,2.61,0,0,0-.74-1.95,2.63,2.63,0,0,0-1.93-.72,5.07,5.07,0,0,0-2.49.75l-4.8,2.79a2,2,0,0,0-1,1.86,2.54,2.54,0,0,0,.6,1.64,1.8,1.8,0,0,0,1.44.73,2,2,0,0,0,1.05-.3l2.4-1.41V26.76H66.65a3,3,0,0,0-2,.54A2,2,0,0,0,64,28.92q0,2.22,2.61,2.22H77.06q2.61,0,2.61-2.22A2,2,0,0,0,79,27.3,3,3,0,0,0,77.06,26.76Zm17.22,0h-6l4.26-4.35A14,14,0,0,0,95,19a7.59,7.59,0,0,0,.74-3.35,5.49,5.49,0,0,0-.92-3.13,5.84,5.84,0,0,0-2.59-2.1,9.66,9.66,0,0,0-3.9-.74,12.18,12.18,0,0,0-6.63,2,2,2,0,0,0-.74.78,2.58,2.58,0,0,0-.19,1.08,2.6,2.6,0,0,0,.51,1.61,1.52,1.52,0,0,0,1.26.67,1.79,1.79,0,0,0,.57-.09,3.5,3.5,0,0,0,.61-.28l.47-.26.6-.3a14.36,14.36,0,0,1,1.69-.73A4.9,4.9,0,0,1,88.1,14a2.35,2.35,0,0,1,1.66.54,2,2,0,0,1,.59,1.56,5.84,5.84,0,0,1-2,3.81L82,26.52a3.29,3.29,0,0,0-1,2.34,2.18,2.18,0,0,0,2.34,2.28h11a3,3,0,0,0,2-.54,2.07,2.07,0,0,0,.65-1.68,2,2,0,0,0-.65-1.63A3.06,3.06,0,0,0,94.28,26.76Z"/><path class="cls-1" d="M95.2,45.19H64.7a4.87,4.87,0,0,0-4.86,4.86v1.06A4.87,4.87,0,0,0,64.7,56h9.65v15.1H25.65V55.92H35.3a4.87,4.87,0,0,0,4.86-4.86V50a4.87,4.87,0,0,0-4.86-4.86H4.8A4.87,4.87,0,0,0-.06,50v1.06A4.87,4.87,0,0,0,4.8,55.92h9.66v39a5,5,0,0,0,5,5.05h1.1a5,5,0,0,0,5-5.05V82.26h48.7V94.93a5,5,0,0,0,5.05,5h1.1a5,5,0,0,0,5-5V56H95.2a4.87,4.87,0,0,0,4.86-4.86V50.05A4.87,4.87,0,0,0,95.2,45.19Z"/></svg>