<svg id="Layer_1" data-name="Layer 1" xmlns="http://www.w3.org/2000/svg" viewBox="0 0 100 100"><defs><style>.cls-1{fill:#020202;}</style></defs><title>l26_2_1</title><path class="cls-1" d="M29.78,40.24H10.32A10.38,10.38,0,0,1-.06,29.86V10.41A10.39,10.39,0,0,1,10.32,0H29.78A10.39,10.39,0,0,1,40.16,10.41V29.86A10.38,10.38,0,0,1,29.78,40.24ZM11.07,8.41a7.73,7.73,0,0,0-3.81.93,6.71,6.71,0,0,0-2.63,2.6,7.47,7.47,0,0,0-.94,3.76,7.56,7.56,0,0,0,.82,3.56,6.2,6.2,0,0,0,2.27,2.46A6.06,6.06,0,0,0,10,22.6a5.75,5.75,0,0,0,2.53-.55,4.79,4.79,0,0,0,1.85-1.52,8,8,0,0,1-1.13,3.92,2.86,2.86,0,0,1-2.47,1.39,4,4,0,0,1-1.38-.24q-.66-.24-1.65-.72l-.66-.33c-.38-.2-.68-.34-.9-.43A2,2,0,0,0,5.46,24a1.61,1.61,0,0,0-1.28.65,2.4,2.4,0,0,0-.52,1.57,2.21,2.21,0,0,0,.22,1.05,2.62,2.62,0,0,0,.74.81,9.54,9.54,0,0,0,3,1.5,11.68,11.68,0,0,0,3.44.54,8.11,8.11,0,0,0,4.66-1.35,8.72,8.72,0,0,0,3.09-3.85A14.57,14.57,0,0,0,19.92,19q0-5.1-2.31-7.86A8.05,8.05,0,0,0,11.07,8.41Zm.33,9.93a2.38,2.38,0,0,1-1.88-.76,3.05,3.05,0,0,1-.67-2.09,3,3,0,0,1,.69-2.07,2.36,2.36,0,0,1,1.86-.78,2.4,2.4,0,0,1,1.86.8A2.93,2.93,0,0,1,14,15.49a3,3,0,0,1-.71,2.07A2.39,2.39,0,0,1,11.4,18.34ZM36,26l-3.72-3.72,3.42-3.36a2.45,2.45,0,0,0,.75-1.74,2.24,2.24,0,0,0-.71-1.63,2.27,2.27,0,0,0-1.66-.71,2.4,2.4,0,0,0-1.77.81L29,18.88l-3.21-3.27a2.3,2.3,0,0,0-1.77-.84,2.26,2.26,0,0,0-1.67.72,2.34,2.34,0,0,0,.05,3.39l3.42,3.36L22.14,26a2.36,2.36,0,0,0-.75,1.71,2.27,2.27,0,0,0,.72,1.65,2.3,2.3,0,0,0,1.68.72,2.4,2.4,0,0,0,1.77-.81L29,25.57l3.51,3.66a2.4,2.4,0,0,0,1.77.81A2.3,2.3,0,0,0,36,29.32a2.27,2.27,0,0,0,.72-1.65A2.36,2.36,0,0,0,36,26Z"/><path class="cls-1" d="M89.68,40.29H70.22A10.38,10.38,0,0,1,59.84,29.91V10.46A10.39,10.39,0,0,1,70.22.07H89.68a10.39,10.39,0,0,1,10.38,10.39V29.91A10.38,10.38,0,0,1,89.68,40.29ZM77.07,26.76H74.61V12.54a2.6,2.6,0,0,0-.73-1.95,2.66,2.66,0,0,0-1.94-.72,5.07,5.07,0,0,0-2.49.75l-4.8,2.79a2,2,0,0,0-1.05,1.86,2.54,2.54,0,0,0,.6,1.64,1.8,1.8,0,0,0,1.44.73,2,2,0,0,0,1-.3l2.4-1.41V26.76H66.66a3,3,0,0,0-2,.54,2,2,0,0,0-.63,1.62q0,2.22,2.61,2.22H77.07q2.61,0,2.61-2.22a2,2,0,0,0-.63-1.62A3,3,0,0,0,77.07,26.76Zm16.2-6.51a4.53,4.53,0,0,0,2.36-1.77,5.21,5.21,0,0,0,.85-3,5,5,0,0,0-2.08-4.21,9.37,9.37,0,0,0-5.69-1.55A9.37,9.37,0,0,0,83,11.27a4.94,4.94,0,0,0-2.1,4.21,5.12,5.12,0,0,0,.84,2.93,4.93,4.93,0,0,0,2.4,1.84A5,5,0,0,0,81.36,22a5.27,5.27,0,0,0-1,3.28,5.19,5.19,0,0,0,2.24,4.46,10.27,10.27,0,0,0,6.1,1.6,10.3,10.3,0,0,0,6.11-1.6,5.18,5.18,0,0,0,2.23-4.46,4.93,4.93,0,0,0-3.78-5.07Zm-4.56,7q-3.27,0-3.27-2.34t3.27-2.34q3.27,0,3.27,2.34T88.71,27.21Zm0-13.32a3.2,3.2,0,0,1,2,.53,2,2,0,0,1,.66,1.69,2.08,2.08,0,0,1-.66,1.71,4,4,0,0,1-4,0A2.08,2.08,0,0,1,86,16.11a2,2,0,0,1,.66-1.69A3.2,3.2,0,0,1,88.71,13.89Z"/><path class="cls-1" d="M95.2,45.19H64.7a4.87,4.87,0,0,0-4.86,4.86v1.06A4.87,4.87,0,0,0,64.7,56h9.65v15.1H25.65V55.92H35.3a4.87,4.87,0,0,0,4.86-4.86V50a4.87,4.87,0,0,0-4.86-4.86H4.8A4.87,4.87,0,0,0-.06,50v1.06A4.87,4.87,0,0,0,4.8,55.92h9.66v39a5,5,0,0,0,5,5.05h1.1a5,5,0,0,0,5-5.05V82.26h48.7V94.93a5,5,0,0,0,5.05,5h1.1a5,5,0,0,0,5-5V56H95.2a4.87,4.87,0,0,0,4.86-4.86V50.05A4.87,4.87,0,0,0,95.2,45.19Z"/></svg>