<svg id="Layer_1" data-name="Layer 1" xmlns="http://www.w3.org/2000/svg" viewBox="0 0 100 100"><defs><style>.cls-1{fill:#020202;}</style></defs><title>l26_3_1</title><path class="cls-1" d="M29.78,40.24H10.32A10.38,10.38,0,0,1-.06,29.86V10.41A10.39,10.39,0,0,1,10.32,0H29.78A10.39,10.39,0,0,1,40.16,10.41V29.86A10.38,10.38,0,0,1,29.78,40.24Zm1.8-12.86-6.2-6.2,5.7-5.6a4.09,4.09,0,0,0,1.25-2.9A3.75,3.75,0,0,0,31.15,10a3.8,3.8,0,0,0-2.77-1.17,4,4,0,0,0-2.95,1.34L20,15.58l-5.35-5.45a3.85,3.85,0,0,0-2.95-1.39A3.75,3.75,0,0,0,9,9.93,3.9,3.9,0,0,0,9,15.58l5.7,5.6-6.2,6.2a3.93,3.93,0,0,0-1.25,2.86A3.81,3.81,0,0,0,8.48,33a3.82,3.82,0,0,0,2.8,1.19,4,4,0,0,0,3-1.35L20,26.74l5.85,6.09a4,4,0,0,0,2.95,1.35,4.09,4.09,0,0,0,4-3.94A4,4,0,0,0,31.58,27.38Z"/><path class="cls-1" d="M89.68,40.29H70.22A10.38,10.38,0,0,1,59.84,29.91V10.46A10.39,10.39,0,0,1,70.22.07H89.68a10.39,10.39,0,0,1,10.38,10.39V29.91A10.38,10.38,0,0,1,89.68,40.29Zm-6.16-20a4.87,4.87,0,0,0,2.39-1.81,5,5,0,0,0,.85-2.9,5.26,5.26,0,0,0-.91-3.06,5.87,5.87,0,0,0-2.61-2,10,10,0,0,0-3.92-.72,12,12,0,0,0-3.55.54,10,10,0,0,0-3,1.5,2.42,2.42,0,0,0-.72.81,2.34,2.34,0,0,0-.21,1,2.47,2.47,0,0,0,.51,1.58,1.54,1.54,0,0,0,1.26.64,2,2,0,0,0,.75-.13c.22-.09.52-.24.9-.44l.63-.3a16.24,16.24,0,0,1,1.64-.72A4.5,4.5,0,0,1,79.05,14a2.58,2.58,0,0,1,1.83.62,2.23,2.23,0,0,1,.66,1.72,1.67,1.67,0,0,1-.75,1.53,4.59,4.59,0,0,1-2.4.48H77.07a1.71,1.71,0,0,0-1.41.63,2.46,2.46,0,0,0,0,3,1.71,1.71,0,0,0,1.41.63h1.86a4.51,4.51,0,0,1,2.46.51,1.89,1.89,0,0,1,.75,1.68,2.08,2.08,0,0,1-.73,1.8,4.18,4.18,0,0,1-2.42.54,5.41,5.41,0,0,1-1.72-.25,13.55,13.55,0,0,1-1.73-.74L75.17,26l-.29-.14c-.38-.2-.68-.34-.9-.43a2,2,0,0,0-.75-.14,1.56,1.56,0,0,0-1.26.65,2.47,2.47,0,0,0-.51,1.57,2.38,2.38,0,0,0,.21,1,2.35,2.35,0,0,0,.72.82,9.65,9.65,0,0,0,3.12,1.52,13.32,13.32,0,0,0,3.75.52,11.29,11.29,0,0,0,4.25-.73,6.3,6.3,0,0,0,2.8-2.09,5.23,5.23,0,0,0,1-3.18,5.32,5.32,0,0,0-1-3.27A5.12,5.12,0,0,0,83.52,20.25Z"/><path class="cls-1" d="M95.2,45.19H64.7a4.87,4.87,0,0,0-4.86,4.86v1.06A4.87,4.87,0,0,0,64.7,56h9.65v15.1H25.65V55.92H35.3a4.87,4.87,0,0,0,4.86-4.86V50a4.87,4.87,0,0,0-4.86-4.86H4.8A4.87,4.87,0,0,0-.06,50v1.06A4.87,4.87,0,0,0,4.8,55.92h9.66v39a5,5,0,0,0,5,5.05h1.1a5,5,0,0,0,5-5.05V82.26h48.7V94.93a5,5,0,0,0,5.05,5h1.1a5,5,0,0,0,5-5V56H95.2a4.87,4.87,0,0,0,4.86-4.86V50.05A4.87,4.87,0,0,0,95.2,45.19Z"/></svg>