<svg id="Layer_1" data-name="Layer 1" xmlns="http://www.w3.org/2000/svg" viewBox="0 0 100 100"><defs><style>.cls-1{fill:#020202;}</style></defs><title>l26_1_1</title><path class="cls-1" d="M29.72,40.22H10.27A10.39,10.39,0,0,1-.12,29.84V10.38A10.39,10.39,0,0,1,10.27,0H29.72A10.38,10.38,0,0,1,40.1,10.38V29.84A10.38,10.38,0,0,1,29.72,40.22Zm-.48-22.76h-6.3v-6.3a2.85,2.85,0,0,0-.85-2.1A2.82,2.82,0,0,0,20,8.21a2.85,2.85,0,0,0-2.1.85,2.89,2.89,0,0,0-.85,2.1v6.3h-6.3a2.85,2.85,0,0,0-2.1.85,2.89,2.89,0,0,0-.85,2.1,3,3,0,0,0,.85,2.12,2.8,2.8,0,0,0,2.1.88H17v6.25a2.89,2.89,0,0,0,.85,2.1,3.06,3.06,0,0,0,4.23,0,2.9,2.9,0,0,0,.82-2.1V23.41h6.3a2.77,2.77,0,0,0,2.1-.88,2.91,2.91,0,0,0,.85-2.12,2.85,2.85,0,0,0-.85-2.1A2.82,2.82,0,0,0,29.24,17.46Z"/><path class="cls-1" d="M89.62,40.27H70.16A10.38,10.38,0,0,1,59.78,29.89V10.43A10.38,10.38,0,0,1,70.16.05H89.62A10.38,10.38,0,0,1,100,10.43V29.89A10.38,10.38,0,0,1,89.62,40.27ZM86.44,26.45H83.82V11.28A2.68,2.68,0,0,0,81,8.43a5.47,5.47,0,0,0-2.66.8l-5.12,3a2.17,2.17,0,0,0-1.12,2,2.7,2.7,0,0,0,.64,1.75,1.94,1.94,0,0,0,1.54.78,2.25,2.25,0,0,0,1.12-.32l2.56-1.5V26.45H75.34a3.26,3.26,0,0,0-2.12.57,2.19,2.19,0,0,0-.67,1.73q0,2.37,2.79,2.37h11.1c1.86,0,2.78-.79,2.78-2.37A2.15,2.15,0,0,0,88.55,27,3.22,3.22,0,0,0,86.44,26.45Z"/><path class="cls-1" d="M95.14,45.17H64.64A4.86,4.86,0,0,0,59.78,50v1A4.87,4.87,0,0,0,64.64,56H74.3v15.1H25.59V55.9h9.65A4.86,4.86,0,0,0,40.1,51V50a4.85,4.85,0,0,0-4.86-4.86H4.74A4.86,4.86,0,0,0-.12,50V51A4.87,4.87,0,0,0,4.74,55.9H14.4v39a5,5,0,0,0,5,5h1.1a5,5,0,0,0,5.05-5V82.24H74.3V94.91a5,5,0,0,0,5,5h1.1a5,5,0,0,0,5-5V56h9.65A4.87,4.87,0,0,0,100,51.08V50A4.86,4.86,0,0,0,95.14,45.17Z"/></svg>