<svg id="Layer_1" data-name="Layer 1" xmlns="http://www.w3.org/2000/svg" viewBox="0 0 100 100"><defs><style>.cls-1{fill:#020202;}</style></defs><title>l26_1_1</title><path class="cls-1" d="M29.76,40.24H10.3A10.38,10.38,0,0,1-.08,29.86V10.41A10.39,10.39,0,0,1,10.3,0H29.76A10.39,10.39,0,0,1,40.14,10.41V29.86A10.38,10.38,0,0,1,29.76,40.24Zm-12-14.53-4-4,3.65-3.59a2.61,2.61,0,0,0,.8-1.85,2.58,2.58,0,0,0-2.53-2.5,2.54,2.54,0,0,0-1.89.87l-3.46,3.48L7,14.67a2.44,2.44,0,0,0-1.89-.9,2.4,2.4,0,0,0-1.77.77,2.45,2.45,0,0,0-.76,1.79,2.52,2.52,0,0,0,.8,1.82L7,21.74l-4,4a2.52,2.52,0,0,0-.8,1.82A2.43,2.43,0,0,0,3,29.29a2.46,2.46,0,0,0,1.79.77A2.56,2.56,0,0,0,6.7,29.2l3.71-3.91,3.75,3.91a2.56,2.56,0,0,0,1.89.86,2.46,2.46,0,0,0,1.79-.77,2.43,2.43,0,0,0,.77-1.76A2.52,2.52,0,0,0,17.81,25.71Zm16.92-7h-4v-4a1.86,1.86,0,0,0-.54-1.35,1.95,1.95,0,0,0-2.69,0,1.86,1.86,0,0,0-.54,1.35v4h-4a1.8,1.8,0,0,0-1.34.55A1.82,1.82,0,0,0,21,20.62,1.89,1.89,0,0,0,21.55,22a1.8,1.8,0,0,0,1.34.56h4v4a1.82,1.82,0,0,0,.54,1.34,1.93,1.93,0,0,0,2.7,0,1.82,1.82,0,0,0,.53-1.34v-4h4A1.81,1.81,0,0,0,36.08,22a1.89,1.89,0,0,0,.54-1.36,1.82,1.82,0,0,0-.54-1.34A1.8,1.8,0,0,0,34.73,18.73Z"/><path class="cls-1" d="M89.65,40.29H70.2A10.38,10.38,0,0,1,59.82,29.91V10.46A10.39,10.39,0,0,1,70.2.07H89.65A10.39,10.39,0,0,1,100,10.46V29.91A10.39,10.39,0,0,1,89.65,40.29Zm-8-24a6.07,6.07,0,0,0-2.7.59,5.06,5.06,0,0,0-2,1.61,8.52,8.52,0,0,1,1.2-4.17,3.06,3.06,0,0,1,2.64-1.49,4.29,4.29,0,0,1,1.47.26,18.67,18.67,0,0,1,1.76.76l.71.36c.4.21.72.36,1,.46a2,2,0,0,0,.8.14,1.7,1.7,0,0,0,1.36-.68,2.6,2.6,0,0,0,.56-1.68,2.35,2.35,0,0,0-.24-1.12,2.74,2.74,0,0,0-.79-.87,10.38,10.38,0,0,0-3.21-1.6,12.56,12.56,0,0,0-3.67-.57,8.65,8.65,0,0,0-5,1.44,9.33,9.33,0,0,0-3.3,4.11,15.49,15.49,0,0,0-1.17,6.25q0,5.45,2.47,8.39a8.58,8.58,0,0,0,7,2.94,8.29,8.29,0,0,0,4.07-1,7.17,7.17,0,0,0,2.8-2.77,8,8,0,0,0,1-4,8,8,0,0,0-.88-3.8,6.57,6.57,0,0,0-2.41-2.62A6.49,6.49,0,0,0,81.61,16.3ZM80.14,26.92a2.53,2.53,0,0,1-2-.85,3.08,3.08,0,0,1-.77-2.19,3.18,3.18,0,0,1,.75-2.21,2.58,2.58,0,0,1,2-.83,2.52,2.52,0,0,1,2,.82,3.22,3.22,0,0,1,.72,2.22,3.23,3.23,0,0,1-.74,2.21A2.52,2.52,0,0,1,80.14,26.92Z"/><path class="cls-1" d="M95.18,45.19H64.68a4.86,4.86,0,0,0-4.86,4.86v1.06A4.86,4.86,0,0,0,64.68,56h9.65v15.1H25.62V55.92h9.66a4.87,4.87,0,0,0,4.86-4.86V50a4.87,4.87,0,0,0-4.86-4.86H4.78A4.87,4.87,0,0,0-.08,50v1.06a4.87,4.87,0,0,0,4.86,4.86h9.66v39a5,5,0,0,0,5,5.05h1.1a5,5,0,0,0,5-5.05V82.26H74.33V94.93a5,5,0,0,0,5,5h1.1a5,5,0,0,0,5-5V56h9.66A4.87,4.87,0,0,0,100,51.11V50.05A4.87,4.87,0,0,0,95.18,45.19Z"/></svg>