<svg id="Layer_1" data-name="Layer 1" xmlns="http://www.w3.org/2000/svg" viewBox="0 0 100 100"><defs><style>.cls-1{fill:#020202;}</style></defs><title>l26_2_1</title><path class="cls-1" d="M29.78,40.24H10.32A10.38,10.38,0,0,1-.06,29.86V10.41A10.39,10.39,0,0,1,10.32,0H29.78A10.39,10.39,0,0,1,40.16,10.41V29.86A10.38,10.38,0,0,1,29.78,40.24ZM18,25l-3.72-3.72,3.42-3.36a2.45,2.45,0,0,0,.75-1.74,2.43,2.43,0,0,0-2.37-2.34,2.4,2.4,0,0,0-1.77.81L11,17.88,7.83,14.61a2.32,2.32,0,0,0-1.77-.83,2.25,2.25,0,0,0-1.67.71,2.34,2.34,0,0,0,.05,3.39l3.42,3.36L4.14,25a2.36,2.36,0,0,0-.75,1.71,2.27,2.27,0,0,0,.72,1.65A2.3,2.3,0,0,0,5.79,29a2.39,2.39,0,0,0,1.77-.8L11,24.57l3.51,3.67a2.39,2.39,0,0,0,1.77.8A2.3,2.3,0,0,0,18,28.32a2.27,2.27,0,0,0,.72-1.65A2.36,2.36,0,0,0,18,25Zm5-6H34a1.68,1.68,0,0,0,1.26-.52,1.84,1.84,0,0,0,0-2.54A1.71,1.71,0,0,0,34,15.42H22.92a1.69,1.69,0,0,0-1.26.53,1.77,1.77,0,0,0-.51,1.27,1.72,1.72,0,0,0,.51,1.27A1.74,1.74,0,0,0,22.92,19Zm0,6H34a1.68,1.68,0,0,0,1.26-.52,1.84,1.84,0,0,0,0-2.54A1.71,1.71,0,0,0,34,21.42H22.92a1.69,1.69,0,0,0-1.26.53,1.77,1.77,0,0,0-.51,1.27,1.72,1.72,0,0,0,.51,1.27A1.74,1.74,0,0,0,22.92,25Z"/><path class="cls-1" d="M89.68,40.29H70.22A10.38,10.38,0,0,1,59.84,29.91V10.46A10.39,10.39,0,0,1,70.22.07H89.68a10.39,10.39,0,0,1,10.38,10.39V29.91A10.38,10.38,0,0,1,89.68,40.29Zm-6.16-20a4.87,4.87,0,0,0,2.39-1.81,5,5,0,0,0,.85-2.9,5.23,5.23,0,0,0-.91-3.06,5.87,5.87,0,0,0-2.61-2,10,10,0,0,0-3.92-.72,12,12,0,0,0-3.55.54,10,10,0,0,0-3,1.5,2.42,2.42,0,0,0-.72.81,2.34,2.34,0,0,0-.21,1,2.47,2.47,0,0,0,.51,1.58,1.54,1.54,0,0,0,1.26.64,2,2,0,0,0,.75-.13c.22-.09.52-.24.9-.44l.63-.3a16.24,16.24,0,0,1,1.64-.72A4.5,4.5,0,0,1,79.05,14a2.58,2.58,0,0,1,1.83.62,2.23,2.23,0,0,1,.66,1.72,1.68,1.68,0,0,1-.75,1.53,4.59,4.59,0,0,1-2.4.48H77.07a1.71,1.71,0,0,0-1.41.63,2.46,2.46,0,0,0,0,3,1.71,1.71,0,0,0,1.41.63h1.86a4.51,4.51,0,0,1,2.46.51,1.89,1.89,0,0,1,.75,1.68,2.08,2.08,0,0,1-.73,1.8,4.18,4.18,0,0,1-2.42.54,5.41,5.41,0,0,1-1.72-.25,13.55,13.55,0,0,1-1.73-.74L75.17,26l-.29-.14c-.38-.2-.68-.34-.9-.43a2,2,0,0,0-.75-.14,1.56,1.56,0,0,0-1.26.65,2.45,2.45,0,0,0-.51,1.57,2.38,2.38,0,0,0,.21,1,2.35,2.35,0,0,0,.72.82,9.65,9.65,0,0,0,3.12,1.52,13.32,13.32,0,0,0,3.75.52,11.29,11.29,0,0,0,4.25-.73,6.3,6.3,0,0,0,2.8-2.09,5.23,5.23,0,0,0,1-3.18,5.32,5.32,0,0,0-1-3.27A5.12,5.12,0,0,0,83.52,20.25Z"/><path class="cls-1" d="M95.2,45.19H64.7a4.87,4.87,0,0,0-4.86,4.86v1.06A4.87,4.87,0,0,0,64.7,56h9.65v15.1H25.65V55.92H35.3a4.87,4.87,0,0,0,4.86-4.86V50a4.87,4.87,0,0,0-4.86-4.86H4.8A4.87,4.87,0,0,0-.06,50v1.06A4.87,4.87,0,0,0,4.8,55.92h9.66v39a5,5,0,0,0,5,5.05h1.1a5,5,0,0,0,5-5.05V82.26h48.7V94.93a5,5,0,0,0,5.05,5h1.1a5,5,0,0,0,5-5V56H95.2a4.87,4.87,0,0,0,4.86-4.86V50.05A4.87,4.87,0,0,0,95.2,45.19Z"/></svg>