<svg id="Layer_1" data-name="Layer 1" xmlns="http://www.w3.org/2000/svg" viewBox="0 0 100 100"><defs><style>.cls-1{fill:#020202;}</style></defs><title>l26_1_1</title><path class="cls-1" d="M29.81,40.24H10.36A10.38,10.38,0,0,1,0,29.86V10.41A10.39,10.39,0,0,1,10.36,0H29.81A10.39,10.39,0,0,1,40.2,10.41V29.86A10.39,10.39,0,0,1,29.81,40.24ZM17.86,25.71l-4-4,3.64-3.59a2.57,2.57,0,0,0,.8-1.85,2.56,2.56,0,0,0-2.52-2.5,2.54,2.54,0,0,0-1.89.87l-3.46,3.48L7.05,14.67a2.44,2.44,0,0,0-3.67-.13,2.48,2.48,0,0,0-.75,1.79,2.52,2.52,0,0,0,.8,1.82l3.65,3.59-4,4a2.52,2.52,0,0,0-.8,1.82,2.43,2.43,0,0,0,.77,1.76,2.46,2.46,0,0,0,1.79.77,2.56,2.56,0,0,0,1.89-.86l3.71-3.91,3.75,3.91a2.56,2.56,0,0,0,1.89.86,2.48,2.48,0,0,0,1.79-.77,2.42,2.42,0,0,0,.76-1.76A2.48,2.48,0,0,0,17.86,25.71Zm16.93-7h-4v-4a1.85,1.85,0,0,0-1.89-1.89,1.82,1.82,0,0,0-1.34.54A1.86,1.86,0,0,0,27,14.7v4H23a1.8,1.8,0,0,0-1.34.55,1.82,1.82,0,0,0-.54,1.34A1.89,1.89,0,0,0,21.61,22a1.8,1.8,0,0,0,1.34.56h4v4a1.82,1.82,0,0,0,.54,1.34,1.93,1.93,0,0,0,2.7,0,1.86,1.86,0,0,0,.53-1.34v-4h4A1.83,1.83,0,0,0,36.14,22a1.89,1.89,0,0,0,.54-1.36,1.86,1.86,0,0,0-1.89-1.89Z"/><path class="cls-1" d="M89.71,40.29H70.26A10.38,10.38,0,0,1,59.88,29.91V10.46A10.39,10.39,0,0,1,70.26.07H89.71A10.39,10.39,0,0,1,100.1,10.46V29.91A10.39,10.39,0,0,1,89.71,40.29Zm-8.39-23.9a7.9,7.9,0,0,0-3.17.58V13h6.91c1.86,0,2.79-.74,2.79-2.24s-.93-2.21-2.79-2.21H75.14a2.72,2.72,0,0,0-2,.71,2.77,2.77,0,0,0-.71,2.05V20A1.77,1.77,0,0,0,73,21.4a2.24,2.24,0,0,0,1.5.53A3.14,3.14,0,0,0,76,21.58,11.12,11.12,0,0,1,77.82,21a8.45,8.45,0,0,1,1.74-.16,3.64,3.64,0,0,1,2.5.8A2.86,2.86,0,0,1,83,23.88a2.8,2.8,0,0,1-.86,2.26,4.1,4.1,0,0,1-2.66.72,5.4,5.4,0,0,1-1.78-.29,17.61,17.61,0,0,1-1.8-.77l-.64-.32q-.64-.35-1-.48a2.31,2.31,0,0,0-.8-.13,1.66,1.66,0,0,0-1.35.69,2.64,2.64,0,0,0-.54,1.68,2.35,2.35,0,0,0,.24,1.1,2.76,2.76,0,0,0,.75.88,10.34,10.34,0,0,0,3.28,1.6,13.19,13.19,0,0,0,3.89.58,10.34,10.34,0,0,0,4.57-1,7.23,7.23,0,0,0,3.08-2.72,7.6,7.6,0,0,0,1.08-4.06,7.71,7.71,0,0,0-.91-3.8A6.53,6.53,0,0,0,85,17.3,7.49,7.49,0,0,0,81.32,16.39Z"/><path class="cls-1" d="M95.23,45.19H64.74a4.86,4.86,0,0,0-4.86,4.86v1.06A4.86,4.86,0,0,0,64.74,56h9.65v15.1H25.68V55.92h9.66a4.87,4.87,0,0,0,4.86-4.86V50a4.87,4.87,0,0,0-4.86-4.86H4.84A4.87,4.87,0,0,0,0,50v1.06a4.87,4.87,0,0,0,4.86,4.86h9.65v39a5,5,0,0,0,5,5.05h1.1a5,5,0,0,0,5-5.05V82.26H74.39V94.93a5,5,0,0,0,5,5h1.1a5,5,0,0,0,5-5V56h9.65a4.86,4.86,0,0,0,4.86-4.86V50.05A4.86,4.86,0,0,0,95.23,45.19Z"/></svg>