<svg id="Layer_1" data-name="Layer 1" xmlns="http://www.w3.org/2000/svg" viewBox="0 0 100 100"><defs><style>.cls-1{fill:#020202;}</style></defs><title>l26_2_1</title><path class="cls-1" d="M29.84,40.24H10.38A10.38,10.38,0,0,1,0,29.86V10.41A10.39,10.39,0,0,1,10.38,0H29.84A10.39,10.39,0,0,1,40.22,10.41V29.86A10.38,10.38,0,0,1,29.84,40.24ZM18,25,14.3,21.24l3.42-3.36a2.45,2.45,0,0,0,.75-1.74,2.24,2.24,0,0,0-.7-1.63,2.29,2.29,0,0,0-1.66-.71,2.42,2.42,0,0,0-1.78.81l-3.24,3.27L7.88,14.61a2.32,2.32,0,0,0-1.77-.83,2.23,2.23,0,0,0-1.66.71,2.33,2.33,0,0,0,0,3.39l3.42,3.36L4.2,25a2.36,2.36,0,0,0-.75,1.71,2.26,2.26,0,0,0,.71,1.65A2.3,2.3,0,0,0,5.84,29a2.39,2.39,0,0,0,1.77-.8l3.48-3.67,3.52,3.67a2.35,2.35,0,0,0,1.76.8,2.48,2.48,0,0,0,2.41-2.37A2.39,2.39,0,0,0,18,25ZM23,19h11.1a1.68,1.68,0,0,0,1.26-.52,1.84,1.84,0,0,0,0-2.54,1.71,1.71,0,0,0-1.26-.51H23a1.69,1.69,0,0,0-1.26.53,1.77,1.77,0,0,0-.51,1.27,1.72,1.72,0,0,0,.51,1.27A1.74,1.74,0,0,0,23,19Zm0,6h11.1a1.68,1.68,0,0,0,1.26-.52,1.84,1.84,0,0,0,0-2.54,1.71,1.71,0,0,0-1.26-.51H23a1.69,1.69,0,0,0-1.26.53,1.77,1.77,0,0,0-.51,1.27,1.72,1.72,0,0,0,.51,1.27A1.74,1.74,0,0,0,23,25Z"/><path class="cls-1" d="M89.73,40.29H70.28A10.38,10.38,0,0,1,59.9,29.91V10.46A10.39,10.39,0,0,1,70.28.07H89.73a10.39,10.39,0,0,1,10.39,10.39V29.91A10.39,10.39,0,0,1,89.73,40.29ZM85.34,26.76h-6l4.26-4.35A14,14,0,0,0,86.07,19a7.59,7.59,0,0,0,.74-3.35,5.49,5.49,0,0,0-.92-3.13,5.84,5.84,0,0,0-2.59-2.1,9.66,9.66,0,0,0-3.9-.74,12.18,12.18,0,0,0-6.63,2,2,2,0,0,0-.74.78,2.58,2.58,0,0,0-.19,1.08,2.6,2.6,0,0,0,.51,1.61,1.52,1.52,0,0,0,1.26.67,1.79,1.79,0,0,0,.57-.09,3.5,3.5,0,0,0,.61-.28l.47-.26.6-.3a14.36,14.36,0,0,1,1.69-.73A4.9,4.9,0,0,1,79.16,14a2.35,2.35,0,0,1,1.66.54,2,2,0,0,1,.59,1.56,5.84,5.84,0,0,1-2,3.81l-6.36,6.63a3.29,3.29,0,0,0-1,2.34,2.18,2.18,0,0,0,2.34,2.28h11a3,3,0,0,0,2-.54A2.07,2.07,0,0,0,88,28.92a2,2,0,0,0-.65-1.63A3.06,3.06,0,0,0,85.34,26.76Z"/><path class="cls-1" d="M95.26,45.19H64.76a4.86,4.86,0,0,0-4.86,4.86v1.06A4.86,4.86,0,0,0,64.76,56h9.65v15.1H25.7V55.92h9.66a4.87,4.87,0,0,0,4.86-4.86V50a4.87,4.87,0,0,0-4.86-4.86H4.86A4.87,4.87,0,0,0,0,50v1.06a4.87,4.87,0,0,0,4.86,4.86h9.65v39a5,5,0,0,0,5,5.05h1.1a5,5,0,0,0,5-5.05V82.26H74.41V94.93a5,5,0,0,0,5,5h1.1a5,5,0,0,0,5-5V56h9.66a4.87,4.87,0,0,0,4.86-4.86V50.05A4.87,4.87,0,0,0,95.26,45.19Z"/></svg>