<svg id="Layer_1" data-name="Layer 1" xmlns="http://www.w3.org/2000/svg" viewBox="0 0 100 100"><defs><style>.cls-1{fill:#020202;}</style></defs><title>l26_2_1</title><path class="cls-1" d="M29.78,40.24H10.32A10.38,10.38,0,0,1-.06,29.86V10.41A10.39,10.39,0,0,1,10.32,0H29.78A10.39,10.39,0,0,1,40.16,10.41V29.86A10.38,10.38,0,0,1,29.78,40.24Zm-14.45-21a5.21,5.21,0,0,0,2.55-1.94,5.35,5.35,0,0,0,.91-3.08,5.61,5.61,0,0,0-1-3.27A6.33,6.33,0,0,0,15,8.75,10.68,10.68,0,0,0,10.85,8a13,13,0,0,0-3.79.57,10.84,10.84,0,0,0-3.25,1.6A2.65,2.65,0,0,0,3,11a2.48,2.48,0,0,0-.22,1.12,2.64,2.64,0,0,0,.54,1.68,1.65,1.65,0,0,0,1.35.68,2,2,0,0,0,.8-.14c.23-.09.55-.25,1-.46l.67-.32a17.11,17.11,0,0,1,1.74-.77,4.94,4.94,0,0,1,1.68-.29,2.75,2.75,0,0,1,2,.66,2.37,2.37,0,0,1,.7,1.84,1.8,1.8,0,0,1-.8,1.63,4.92,4.92,0,0,1-2.56.51H8.45a1.81,1.81,0,0,0-1.5.67A2.6,2.6,0,0,0,7,21a1.81,1.81,0,0,0,1.5.67h2a4.82,4.82,0,0,1,2.62.55,2,2,0,0,1,.8,1.79A2.22,2.22,0,0,1,13.08,26a4.51,4.51,0,0,1-2.58.58,5.84,5.84,0,0,1-1.84-.27,16.12,16.12,0,0,1-1.84-.79l-.4-.17-.3-.15c-.41-.21-.73-.37-1-.46a2.07,2.07,0,0,0-.8-.15A1.65,1.65,0,0,0,3,25.25a2.64,2.64,0,0,0-.54,1.68A2.53,2.53,0,0,0,2.69,28a2.56,2.56,0,0,0,.77.87,10.13,10.13,0,0,0,3.33,1.62,14.32,14.32,0,0,0,4,.56,12.07,12.07,0,0,0,4.53-.78,6.83,6.83,0,0,0,3-2.23,5.6,5.6,0,0,0,1.05-3.39,5.66,5.66,0,0,0-1.07-3.49A5.4,5.4,0,0,0,15.33,19.22ZM37,26.71l-4-4,3.65-3.58a2.65,2.65,0,0,0,.8-1.86A2.58,2.58,0,0,0,35,14.8a2.57,2.57,0,0,0-1.89.87l-3.46,3.49-3.42-3.49a2.44,2.44,0,0,0-1.89-.9,2.4,2.4,0,0,0-1.77.77,2.49,2.49,0,0,0-.76,1.79,2.55,2.55,0,0,0,.8,1.83l3.65,3.58-4,4a2.48,2.48,0,0,0-.8,1.82,2.42,2.42,0,0,0,.76,1.76,2.46,2.46,0,0,0,1.79.77,2.56,2.56,0,0,0,1.89-.86l3.71-3.91,3.75,3.91a2.56,2.56,0,0,0,1.89.86,2.46,2.46,0,0,0,1.79-.77,2.43,2.43,0,0,0,.77-1.76A2.52,2.52,0,0,0,37,26.71Z"/><path class="cls-1" d="M89.68,40.29H70.22A10.38,10.38,0,0,1,59.84,29.91V10.46A10.39,10.39,0,0,1,70.22.07H89.68a10.39,10.39,0,0,1,10.38,10.39V29.91A10.38,10.38,0,0,1,89.68,40.29Zm-8.05-24a6.07,6.07,0,0,0-2.7.59,5.06,5.06,0,0,0-2,1.61,8.52,8.52,0,0,1,1.2-4.17,3.06,3.06,0,0,1,2.64-1.49,4.29,4.29,0,0,1,1.47.26,18.67,18.67,0,0,1,1.76.76l.71.36c.4.21.72.36,1,.46a2,2,0,0,0,.8.14,1.7,1.7,0,0,0,1.36-.68,2.6,2.6,0,0,0,.56-1.68,2.35,2.35,0,0,0-.24-1.12,2.74,2.74,0,0,0-.79-.87,10.27,10.27,0,0,0-3.21-1.6,12.56,12.56,0,0,0-3.67-.57,8.65,8.65,0,0,0-5,1.44,9.33,9.33,0,0,0-3.3,4.11,15.49,15.49,0,0,0-1.17,6.25c0,3.63.83,6.43,2.47,8.39a8.59,8.59,0,0,0,7,2.94,8.29,8.29,0,0,0,4.07-1,7.1,7.1,0,0,0,2.8-2.77,8,8,0,0,0,1-4,8.16,8.16,0,0,0-.88-3.8,6.66,6.66,0,0,0-2.42-2.62A6.46,6.46,0,0,0,81.63,16.3ZM80.16,26.92a2.53,2.53,0,0,1-2-.85,3.13,3.13,0,0,1-.77-2.19,3.18,3.18,0,0,1,.75-2.21,2.58,2.58,0,0,1,2-.83,2.5,2.5,0,0,1,2,.82,3.22,3.22,0,0,1,.72,2.22,3.22,3.22,0,0,1-.73,2.21A2.56,2.56,0,0,1,80.16,26.92Z"/><path class="cls-1" d="M95.2,45.19H64.7a4.87,4.87,0,0,0-4.86,4.86v1.06A4.87,4.87,0,0,0,64.7,56h9.65v15.1H25.65V55.92H35.3a4.87,4.87,0,0,0,4.86-4.86V50a4.87,4.87,0,0,0-4.86-4.86H4.8A4.87,4.87,0,0,0-.06,50v1.06A4.87,4.87,0,0,0,4.8,55.92h9.66v39a5,5,0,0,0,5,5.05h1.1a5,5,0,0,0,5-5.05V82.26h48.7V94.93a5,5,0,0,0,5.05,5h1.1a5,5,0,0,0,5-5V56H95.2a4.87,4.87,0,0,0,4.86-4.86V50.05A4.87,4.87,0,0,0,95.2,45.19Z"/></svg>