<svg id="Layer_1" data-name="Layer 1" xmlns="http://www.w3.org/2000/svg" viewBox="0 0 100 100"><defs><style>.cls-1{fill:#020202;}</style></defs><title>l26_2_1</title><path class="cls-1" d="M29.86,40.24H10.4A10.38,10.38,0,0,1,0,29.86V10.41A10.39,10.39,0,0,1,10.4,0H29.86A10.39,10.39,0,0,1,40.24,10.41V29.86A10.38,10.38,0,0,1,29.86,40.24ZM17.13,26.16H14.51V11a2.67,2.67,0,0,0-2.85-2.84A5.36,5.36,0,0,0,9,9l-5.12,3a2.17,2.17,0,0,0-1.12,2,2.66,2.66,0,0,0,.64,1.74,1.94,1.94,0,0,0,1.54.78,2.2,2.2,0,0,0,1.12-.31l2.56-1.51V26.16H6a3.2,3.2,0,0,0-2.12.58,2.17,2.17,0,0,0-.67,1.73c0,1.58.93,2.36,2.79,2.36h11.1c1.86,0,2.78-.78,2.78-2.36a2.14,2.14,0,0,0-.67-1.73A3.17,3.17,0,0,0,17.13,26.16Zm19,.55-4-4,3.65-3.58a2.65,2.65,0,0,0,.8-1.86,2.58,2.58,0,0,0-2.53-2.5,2.54,2.54,0,0,0-1.89.87l-3.46,3.49-3.42-3.49a2.44,2.44,0,0,0-1.89-.9,2.4,2.4,0,0,0-1.77.77,2.45,2.45,0,0,0-.76,1.79,2.55,2.55,0,0,0,.8,1.83l3.65,3.58-4,4a2.52,2.52,0,0,0-.8,1.82,2.43,2.43,0,0,0,.77,1.76,2.46,2.46,0,0,0,1.79.77A2.56,2.56,0,0,0,25,30.2l3.71-3.91,3.75,3.91a2.56,2.56,0,0,0,1.89.86,2.46,2.46,0,0,0,1.79-.77,2.43,2.43,0,0,0,.77-1.76A2.52,2.52,0,0,0,36.11,26.71Z"/><path class="cls-1" d="M89.76,40.29H70.3A10.38,10.38,0,0,1,59.92,29.91V10.46A10.39,10.39,0,0,1,70.3.07H89.76a10.39,10.39,0,0,1,10.38,10.39V29.91A10.38,10.38,0,0,1,89.76,40.29Zm-4-13.82H79.3l4.54-4.64a14.75,14.75,0,0,0,2.67-3.6,8.06,8.06,0,0,0,.79-3.57,5.88,5.88,0,0,0-1-3.34,6.21,6.21,0,0,0-2.77-2.24,10.33,10.33,0,0,0-4.16-.78,13,13,0,0,0-7.07,2.17,2.15,2.15,0,0,0-.78.83,2.77,2.77,0,0,0-.21,1.16,2.77,2.77,0,0,0,.54,1.71,1.63,1.63,0,0,0,1.35.72,1.72,1.72,0,0,0,.6-.1,3.35,3.35,0,0,0,.66-.3c.24-.14.41-.23.5-.27l.64-.32a15.58,15.58,0,0,1,1.8-.79,5.3,5.3,0,0,1,1.72-.27,2.49,2.49,0,0,1,1.77.58,2.13,2.13,0,0,1,.63,1.66q0,1.86-2.12,4.06l-6.78,7.08a3.48,3.48,0,0,0-1.09,2.49,2.32,2.32,0,0,0,2.5,2.43H85.73a3.2,3.2,0,0,0,2.09-.57,2.21,2.21,0,0,0,.69-1.79A2.13,2.13,0,0,0,87.82,27,3.26,3.26,0,0,0,85.73,26.47Z"/><path class="cls-1" d="M95.28,45.19H64.78a4.87,4.87,0,0,0-4.86,4.86v1.06A4.87,4.87,0,0,0,64.78,56h9.65v15.1H25.72V55.92h9.66a4.87,4.87,0,0,0,4.86-4.86V50a4.87,4.87,0,0,0-4.86-4.86H4.88A4.87,4.87,0,0,0,0,50v1.06a4.87,4.87,0,0,0,4.86,4.86h9.66v39a5,5,0,0,0,5,5.05h1.1a5,5,0,0,0,5-5.05V82.26H74.43V94.93a5,5,0,0,0,5,5h1.1a5,5,0,0,0,5-5V56h9.66a4.87,4.87,0,0,0,4.86-4.86V50.05A4.87,4.87,0,0,0,95.28,45.19Z"/></svg>