<svg id="Layer_1" data-name="Layer 1" xmlns="http://www.w3.org/2000/svg" viewBox="0 0 100 100"><defs><style>.cls-1{fill:#020202;}</style></defs><title>l26_2_1</title><path class="cls-1" d="M29.86,40.24H10.4A10.38,10.38,0,0,1,0,29.86V10.41A10.39,10.39,0,0,1,10.4,0H29.86A10.39,10.39,0,0,1,40.24,10.41V29.86A10.38,10.38,0,0,1,29.86,40.24ZM18,9.68H6.2a2.94,2.94,0,0,0-2,.56,2.09,2.09,0,0,0-.63,1.66,2,2,0,0,0,.61,1.62,3,3,0,0,0,2,.54h7.5L6,27.23a2.84,2.84,0,0,0-.42,1.44,2.21,2.21,0,0,0,.81,1.73,2.75,2.75,0,0,0,1.86.7,2.55,2.55,0,0,0,1.27-.34,2.82,2.82,0,0,0,1-1.07l9.09-15.75a3.83,3.83,0,0,0,.57-2,2.33,2.33,0,0,0-.59-1.63A2.12,2.12,0,0,0,18,9.68ZM36.05,27l-3.72-3.72,3.42-3.36a2.45,2.45,0,0,0,.75-1.74,2.24,2.24,0,0,0-.71-1.63,2.27,2.27,0,0,0-1.66-.71,2.4,2.4,0,0,0-1.77.81l-3.24,3.27-3.21-3.27a2.3,2.3,0,0,0-1.77-.84,2.26,2.26,0,0,0-1.67.72,2.34,2.34,0,0,0,.05,3.39l3.42,3.36L22.22,27a2.36,2.36,0,0,0-.75,1.71,2.27,2.27,0,0,0,.72,1.65,2.3,2.3,0,0,0,1.68.72,2.4,2.4,0,0,0,1.77-.81l3.48-3.66,3.51,3.66A2.4,2.4,0,0,0,34.4,31a2.3,2.3,0,0,0,1.68-.72,2.27,2.27,0,0,0,.72-1.65A2.36,2.36,0,0,0,36.05,27Z"/><path class="cls-1" d="M89.76,40.29H70.3A10.38,10.38,0,0,1,59.92,29.91V10.46A10.39,10.39,0,0,1,70.3.07H89.76a10.39,10.39,0,0,1,10.38,10.39V29.91A10.38,10.38,0,0,1,89.76,40.29ZM77.15,26.76H74.69V12.54A2.6,2.6,0,0,0,74,10.59,2.66,2.66,0,0,0,72,9.87a5.07,5.07,0,0,0-2.49.75l-4.8,2.79a2,2,0,0,0-1.05,1.86,2.54,2.54,0,0,0,.6,1.64,1.8,1.8,0,0,0,1.44.73,2,2,0,0,0,1-.3l2.4-1.41V26.76H66.74a3,3,0,0,0-2,.54,2,2,0,0,0-.63,1.62q0,2.22,2.61,2.22H77.15q2.61,0,2.61-2.22a2,2,0,0,0-.63-1.62A3,3,0,0,0,77.15,26.76Zm18.09-3.39h-.66V12.54a2.55,2.55,0,0,0-.81-2,2.83,2.83,0,0,0-2-.72,3,3,0,0,0-1.33.32,2.76,2.76,0,0,0-1.07.91L80.84,23.28a3.36,3.36,0,0,0-.66,2,2.3,2.3,0,0,0,.63,1.65,2.25,2.25,0,0,0,1.71.66h6.69v1a2.67,2.67,0,0,0,.74,2,2.7,2.7,0,0,0,1.93.69,2.77,2.77,0,0,0,2-.69,2.64,2.64,0,0,0,.75-2v-1h.66q2.61,0,2.61-2.13T95.24,23.37Zm-9.63,0,3.6-5.19v5.19Z"/><path class="cls-1" d="M95.28,45.19H64.78a4.87,4.87,0,0,0-4.86,4.86v1.06A4.87,4.87,0,0,0,64.78,56h9.65v15.1H25.72V55.92h9.66a4.87,4.87,0,0,0,4.86-4.86V50a4.87,4.87,0,0,0-4.86-4.86H4.88A4.87,4.87,0,0,0,0,50v1.06a4.87,4.87,0,0,0,4.86,4.86h9.66v39a5,5,0,0,0,5,5.05h1.1a5,5,0,0,0,5-5.05V82.26H74.43V94.93a5,5,0,0,0,5,5h1.1a5,5,0,0,0,5-5V56h9.66a4.87,4.87,0,0,0,4.86-4.86V50.05A4.87,4.87,0,0,0,95.28,45.19Z"/></svg>