<svg id="Layer_1" data-name="Layer 1" xmlns="http://www.w3.org/2000/svg" viewBox="0 0 100 100"><defs><style>.cls-1{fill:#020202;}</style></defs><title>l26_3_1</title><path class="cls-1" d="M29.84,40.24H10.38A10.38,10.38,0,0,1,0,29.86V10.41A10.39,10.39,0,0,1,10.38,0H29.84A10.39,10.39,0,0,1,40.22,10.41V29.86A10.38,10.38,0,0,1,29.84,40.24Zm1.79-12.86-6.2-6.2,5.7-5.6a4,4,0,0,0,1.25-2.9A3.74,3.74,0,0,0,31.21,10a3.8,3.8,0,0,0-2.78-1.17,4,4,0,0,0-2.95,1.34l-5.39,5.45-5.36-5.45a3.82,3.82,0,0,0-2.94-1.39A3.75,3.75,0,0,0,9,9.93a3.9,3.9,0,0,0,.08,5.65l5.7,5.6-6.2,6.2a3.93,3.93,0,0,0-1.25,2.86A3.77,3.77,0,0,0,8.54,33a3.82,3.82,0,0,0,2.8,1.19,4,4,0,0,0,2.95-1.35l5.8-6.09,5.84,6.09a4,4,0,0,0,2.95,1.35,4.09,4.09,0,0,0,4-3.94A3.93,3.93,0,0,0,31.63,27.38Z"/><path class="cls-1" d="M89.73,40.29H70.28A10.38,10.38,0,0,1,59.9,29.91V10.46A10.39,10.39,0,0,1,70.28.07H89.73a10.39,10.39,0,0,1,10.39,10.39V29.91A10.39,10.39,0,0,1,89.73,40.29ZM85.34,26.76h-6l4.26-4.35A14,14,0,0,0,86.07,19a7.59,7.59,0,0,0,.74-3.35,5.49,5.49,0,0,0-.92-3.13,5.84,5.84,0,0,0-2.59-2.1,9.66,9.66,0,0,0-3.9-.74,12.18,12.18,0,0,0-6.63,2,2,2,0,0,0-.74.78,2.61,2.61,0,0,0-.19,1.08,2.6,2.6,0,0,0,.51,1.61,1.52,1.52,0,0,0,1.26.67,1.79,1.79,0,0,0,.57-.09,3.5,3.5,0,0,0,.61-.28l.47-.26.6-.3a16.27,16.27,0,0,1,1.69-.73A4.9,4.9,0,0,1,79.16,14a2.35,2.35,0,0,1,1.66.54,2,2,0,0,1,.59,1.56,5.84,5.84,0,0,1-2,3.81l-6.36,6.63a3.29,3.29,0,0,0-1,2.34,2.18,2.18,0,0,0,2.34,2.28h11a3,3,0,0,0,2-.54A2.07,2.07,0,0,0,88,28.92a2,2,0,0,0-.65-1.63A3.06,3.06,0,0,0,85.34,26.76Z"/><path class="cls-1" d="M95.26,45.19H64.76a4.86,4.86,0,0,0-4.86,4.86v1.06A4.86,4.86,0,0,0,64.76,56h9.65v15.1H25.7V55.92h9.66a4.87,4.87,0,0,0,4.86-4.86V50a4.87,4.87,0,0,0-4.86-4.86H4.86A4.87,4.87,0,0,0,0,50v1.06a4.87,4.87,0,0,0,4.86,4.86h9.65v39a5,5,0,0,0,5,5.05h1.1a5,5,0,0,0,5-5.05V82.26H74.41V94.93a5,5,0,0,0,5,5h1.1a5,5,0,0,0,5-5V56h9.66a4.87,4.87,0,0,0,4.86-4.86V50.05A4.87,4.87,0,0,0,95.26,45.19Z"/></svg>