<svg id="Layer_1" data-name="Layer 1" xmlns="http://www.w3.org/2000/svg" viewBox="0 0 100 100"><defs><style>.cls-1{fill:#020202;}</style></defs><title>l26_1_1</title><path class="cls-1" d="M29.86,40.24H10.4A10.38,10.38,0,0,1,0,29.86V10.41A10.39,10.39,0,0,1,10.4,0H29.86A10.39,10.39,0,0,1,40.24,10.41V29.86A10.38,10.38,0,0,1,29.86,40.24ZM18.13,25.16H15.51V10a2.77,2.77,0,0,0-.79-2.08,2.82,2.82,0,0,0-2.06-.76A5.36,5.36,0,0,0,10,8l-5.12,3a2.19,2.19,0,0,0-1.12,2,2.71,2.71,0,0,0,.64,1.74,1.94,1.94,0,0,0,1.54.78,2.12,2.12,0,0,0,1.12-.32l2.56-1.5V25.16H7a3.15,3.15,0,0,0-2.11.58,2.14,2.14,0,0,0-.68,1.73c0,1.58.93,2.36,2.79,2.36h11.1c1.86,0,2.79-.78,2.79-2.36a2.14,2.14,0,0,0-.68-1.73A3.17,3.17,0,0,0,18.13,25.16Zm19,.55-4-4,3.65-3.59a2.61,2.61,0,0,0,.8-1.85,2.58,2.58,0,0,0-2.53-2.5,2.54,2.54,0,0,0-1.89.87l-3.46,3.48-3.42-3.48a2.44,2.44,0,0,0-1.89-.9,2.4,2.4,0,0,0-1.77.77,2.45,2.45,0,0,0-.76,1.79,2.52,2.52,0,0,0,.8,1.82l3.65,3.59-4,4a2.52,2.52,0,0,0-.8,1.82,2.43,2.43,0,0,0,.77,1.76,2.46,2.46,0,0,0,1.79.77A2.54,2.54,0,0,0,26,29.19l3.71-3.9,3.75,3.9a2.54,2.54,0,0,0,1.89.87,2.46,2.46,0,0,0,1.79-.77,2.43,2.43,0,0,0,.77-1.76A2.52,2.52,0,0,0,37.11,25.71Z"/><path class="cls-1" d="M89.76,40.29H70.3A10.38,10.38,0,0,1,59.92,29.91V10.46A10.39,10.39,0,0,1,70.3.07H89.76a10.39,10.39,0,0,1,10.38,10.39V29.91A10.38,10.38,0,0,1,89.76,40.29Zm-4-13.82H79.3l4.54-4.64a14.75,14.75,0,0,0,2.67-3.6,8,8,0,0,0,.79-3.57,5.88,5.88,0,0,0-1-3.34,6.21,6.21,0,0,0-2.77-2.24,10.33,10.33,0,0,0-4.16-.78,13,13,0,0,0-7.07,2.17,2.15,2.15,0,0,0-.78.83,2.77,2.77,0,0,0-.21,1.16,2.77,2.77,0,0,0,.54,1.71,1.64,1.64,0,0,0,1.35.72,1.81,1.81,0,0,0,.61-.1,3.29,3.29,0,0,0,.65-.3l.5-.27.64-.32a14,14,0,0,1,1.8-.79,5.3,5.3,0,0,1,1.72-.27,2.49,2.49,0,0,1,1.77.58,2.12,2.12,0,0,1,.63,1.66q0,1.86-2.12,4.06l-6.78,7.08a3.52,3.52,0,0,0-1.09,2.49,2.32,2.32,0,0,0,2.5,2.43H85.73a3.25,3.25,0,0,0,2.1-.57,2.24,2.24,0,0,0,.68-1.79A2.16,2.16,0,0,0,87.83,27,3.31,3.31,0,0,0,85.73,26.47Z"/><path class="cls-1" d="M95.28,45.19H64.78a4.87,4.87,0,0,0-4.86,4.86v1.06A4.87,4.87,0,0,0,64.78,56h9.65v15.1H25.72V55.92h9.66a4.87,4.87,0,0,0,4.86-4.86V50a4.87,4.87,0,0,0-4.86-4.86H4.88A4.87,4.87,0,0,0,0,50v1.06a4.87,4.87,0,0,0,4.86,4.86h9.66v39a5,5,0,0,0,5,5.05h1.1a5,5,0,0,0,5-5.05V82.26H74.43V94.93a5,5,0,0,0,5,5h1.1a5,5,0,0,0,5-5V56h9.66a4.87,4.87,0,0,0,4.86-4.86V50.05A4.87,4.87,0,0,0,95.28,45.19Z"/></svg>