<svg id="Layer_1" data-name="Layer 1" xmlns="http://www.w3.org/2000/svg" viewBox="0 0 100 100"><defs><style>.cls-1{fill:#020202;}</style></defs><title>l26_1_1</title><path class="cls-1" d="M29.81,40.24H10.36A10.38,10.38,0,0,1,0,29.86V10.41A10.39,10.39,0,0,1,10.36,0H29.81A10.39,10.39,0,0,1,40.2,10.41V29.86A10.39,10.39,0,0,1,29.81,40.24ZM17.86,25.71l-4-4,3.64-3.59a2.57,2.57,0,0,0,.8-1.85,2.56,2.56,0,0,0-2.52-2.5,2.54,2.54,0,0,0-1.89.87l-3.46,3.48L7.05,14.67a2.44,2.44,0,0,0-3.67-.13,2.48,2.48,0,0,0-.75,1.79,2.52,2.52,0,0,0,.8,1.82l3.65,3.59-4,4a2.52,2.52,0,0,0-.8,1.82,2.43,2.43,0,0,0,.77,1.76,2.46,2.46,0,0,0,1.79.77,2.54,2.54,0,0,0,1.89-.87l3.71-3.9,3.75,3.9a2.54,2.54,0,0,0,1.89.87,2.48,2.48,0,0,0,1.79-.77,2.42,2.42,0,0,0,.76-1.76A2.48,2.48,0,0,0,17.86,25.71Zm16.93-7h-4v-4a1.85,1.85,0,0,0-1.89-1.89,1.82,1.82,0,0,0-1.34.54A1.86,1.86,0,0,0,27,14.7v4H23a1.82,1.82,0,0,0-1.34.54,1.86,1.86,0,0,0-.54,1.35A1.89,1.89,0,0,0,21.61,22a1.8,1.8,0,0,0,1.34.56h4v4a1.82,1.82,0,0,0,.54,1.34,1.93,1.93,0,0,0,2.7,0,1.86,1.86,0,0,0,.53-1.34v-4h4A1.83,1.83,0,0,0,36.14,22a1.89,1.89,0,0,0,.54-1.36,1.85,1.85,0,0,0-1.89-1.89Z"/><path class="cls-1" d="M89.71,40.29H70.26A10.38,10.38,0,0,1,59.88,29.91V10.46A10.39,10.39,0,0,1,70.26.07H89.71A10.39,10.39,0,0,1,100.1,10.46V29.91A10.39,10.39,0,0,1,89.71,40.29Zm-4-13.82H79.25l4.55-4.64a14.75,14.75,0,0,0,2.67-3.6,8.09,8.09,0,0,0,.78-3.57,5.87,5.87,0,0,0-1-3.34,6.26,6.26,0,0,0-2.77-2.24,10.33,10.33,0,0,0-4.16-.78,12.91,12.91,0,0,0-7.07,2.17,2.19,2.19,0,0,0-.79.83,3,3,0,0,0-.2,1.16,2.77,2.77,0,0,0,.54,1.71,1.62,1.62,0,0,0,1.34.72,1.74,1.74,0,0,0,.61-.1,3.63,3.63,0,0,0,.66-.3l.49-.27.64-.32a14.72,14.72,0,0,1,1.81-.79,5.24,5.24,0,0,1,1.71-.27,2.51,2.51,0,0,1,1.78.58,2.11,2.11,0,0,1,.62,1.66q0,1.86-2.11,4.06L72.6,26.22a3.48,3.48,0,0,0-1.09,2.49,2.39,2.39,0,0,0,.67,1.75,2.44,2.44,0,0,0,1.83.68H85.69a3.24,3.24,0,0,0,2.09-.57,2.21,2.21,0,0,0,.69-1.79A2.13,2.13,0,0,0,87.78,27,3.3,3.3,0,0,0,85.69,26.47Z"/><path class="cls-1" d="M95.23,45.19H64.74a4.86,4.86,0,0,0-4.86,4.86v1.06A4.86,4.86,0,0,0,64.74,56h9.65v15.1H25.68V55.92h9.66a4.87,4.87,0,0,0,4.86-4.86V50a4.87,4.87,0,0,0-4.86-4.86H4.84A4.87,4.87,0,0,0,0,50v1.06a4.87,4.87,0,0,0,4.86,4.86h9.65v39a5,5,0,0,0,5,5.05h1.1a5,5,0,0,0,5-5.05V82.26H74.39V94.93a5,5,0,0,0,5,5h1.1a5,5,0,0,0,5-5V56h9.65a4.86,4.86,0,0,0,4.86-4.86V50.05A4.86,4.86,0,0,0,95.23,45.19Z"/></svg>