<svg id="Layer_1" data-name="Layer 1" xmlns="http://www.w3.org/2000/svg" viewBox="0 0 150 100"><defs><style>.cls-1{fill:#020202;}</style></defs><title>s26_1</title><path class="cls-1" d="M135.79,100.08H14.21A14.21,14.21,0,0,1,0,85.87V14.13A14.21,14.21,0,0,1,14.21-.08H135.79A14.21,14.21,0,0,1,150,14.13V85.87A14.21,14.21,0,0,1,135.79,100.08ZM48.36,63.18l-8.93-8.93,8.21-8.07A5.86,5.86,0,0,0,49.44,42a5.35,5.35,0,0,0-1.69-3.92,5.47,5.47,0,0,0-4-1.7,5.76,5.76,0,0,0-4.25,2l-7.77,7.84L24,38.34a5.5,5.5,0,0,0-4.24-2,5.42,5.42,0,0,0-4,1.73,5.61,5.61,0,0,0,.11,8.13l8.21,8.07-8.93,8.93a5.65,5.65,0,0,0-1.8,4.1,5.41,5.41,0,0,0,1.73,4,5.52,5.52,0,0,0,4,1.73,5.76,5.76,0,0,0,4.25-2l8.35-8.78L40.15,71a5.76,5.76,0,0,0,4.25,2,5.52,5.52,0,0,0,4-1.73,5.45,5.45,0,0,0,1.73-4A5.65,5.65,0,0,0,48.36,63.18ZM60.24,48.85H86.88a4,4,0,0,0,3-1.26,4.22,4.22,0,0,0,1.23-3.06,4.2,4.2,0,0,0-4.25-4.25H60.24a4,4,0,0,0-3,1.26A4.22,4.22,0,0,0,56,44.6a4.18,4.18,0,0,0,4.25,4.25Zm0,14.4H86.88a4,4,0,0,0,3-1.26,4.22,4.22,0,0,0,1.23-3.06,4.2,4.2,0,0,0-4.25-4.25H60.24a4,4,0,0,0-3,1.26A4.22,4.22,0,0,0,56,59a4.2,4.2,0,0,0,4.25,4.25ZM129.72,62H115.25l10.22-10.44a33.35,33.35,0,0,0,6-8.1,18.07,18.07,0,0,0,1.77-8,13.24,13.24,0,0,0-2.2-7.53,14.08,14.08,0,0,0-6.23-5,23.29,23.29,0,0,0-9.36-1.76A29.26,29.26,0,0,0,99.55,26a4.76,4.76,0,0,0-1.76,1.88,6,6,0,0,0-.47,2.59,6.23,6.23,0,0,0,1.22,3.85,3.69,3.69,0,0,0,3,1.62,4.08,4.08,0,0,0,1.36-.22,8.12,8.12,0,0,0,1.48-.68c.55-.31.92-.52,1.12-.61l1.44-.72A34.94,34.94,0,0,1,111,31.89a11.92,11.92,0,0,1,3.86-.61,5.64,5.64,0,0,1,4,1.3,4.82,4.82,0,0,1,1.41,3.74c0,2.79-1.59,5.83-4.76,9.15L100.27,61.38A7.89,7.89,0,0,0,97.82,67a5.38,5.38,0,0,0,1.52,3.93,5.46,5.46,0,0,0,4.1,1.55h26.28a7.23,7.23,0,0,0,4.71-1.3,4.94,4.94,0,0,0,1.55-4,4.75,4.75,0,0,0-1.55-3.93A7.36,7.36,0,0,0,129.72,62Z"/></svg>