<svg id="Layer_1" data-name="Layer 1" xmlns="http://www.w3.org/2000/svg" viewBox="0 0 150 100"><defs><style>.cls-1{fill:#020202;}</style></defs><title>s26_1</title><path class="cls-1" d="M135.79,100.08H14.21A14.21,14.21,0,0,1,0,85.87V14.13A14.21,14.21,0,0,1,14.21-.08H135.79A14.21,14.21,0,0,1,150,14.13V85.87A14.21,14.21,0,0,1,135.79,100.08ZM68.59,62H54.12L64.34,51.51a33.42,33.42,0,0,0,6-8.1,18.2,18.2,0,0,0,1.76-8,13.17,13.17,0,0,0-2.2-7.53,14.11,14.11,0,0,0-6.22-5,23.29,23.29,0,0,0-9.36-1.76A29.26,29.26,0,0,0,38.42,26a4.76,4.76,0,0,0-1.76,1.88,6.18,6.18,0,0,0-.47,2.59,6.18,6.18,0,0,0,1.23,3.85,3.65,3.65,0,0,0,3,1.62,4.14,4.14,0,0,0,1.37-.22A8.38,8.38,0,0,0,43.28,35c.56-.31.93-.52,1.12-.61l1.44-.72a35,35,0,0,1,4.07-1.77,11.86,11.86,0,0,1,3.85-.61,5.67,5.67,0,0,1,4,1.3,4.85,4.85,0,0,1,1.4,3.74c0,2.79-1.58,5.83-4.75,9.15L39.14,61.38A7.88,7.88,0,0,0,36.7,67a5.38,5.38,0,0,0,1.51,3.93,5.47,5.47,0,0,0,4.1,1.55H68.59a7.26,7.26,0,0,0,4.72-1.3,5,5,0,0,0,1.55-4,4.78,4.78,0,0,0-1.55-3.93A7.39,7.39,0,0,0,68.59,62Zm44.64,1.23-8.93-8.93,8.21-8.06a5.9,5.9,0,0,0,1.8-4.18,5.35,5.35,0,0,0-1.69-3.92,5.47,5.47,0,0,0-4-1.7,5.73,5.73,0,0,0-4.24,2L96.6,46.19l-7.7-7.85a5.53,5.53,0,0,0-4.25-2,5.42,5.42,0,0,0-4,1.73,5.58,5.58,0,0,0-1.69,4,5.66,5.66,0,0,0,1.8,4.11L89,54.25,80,63.18a5.65,5.65,0,0,0-1.8,4.1,5.45,5.45,0,0,0,1.73,4A5.52,5.52,0,0,0,84,73,5.79,5.79,0,0,0,88.25,71l8.35-8.79L105,71A5.79,5.79,0,0,0,109.27,73a5.52,5.52,0,0,0,4-1.73,5.41,5.41,0,0,0,1.73-4A5.65,5.65,0,0,0,113.23,63.18Z"/></svg>