<svg id="Layer_1" data-name="Layer 1" xmlns="http://www.w3.org/2000/svg" viewBox="0 0 200 150"><title>g16</title><path d="M4.34,100.66c0-3.81,1.76-6.75,5.67-10L29.42,74C37.33,67.23,39.58,64.15,39.58,60c0-4.45-3.42-7.53-8.45-7.53-3.72,0-6.26,1.71-8.9,5.52C19.49,62,17,63.42,13,63.42c-5.28,0-8.5-3.08-8.5-8.07a11.28,11.28,0,0,1,.93-4.59c3.71-8.41,13.63-13.64,26-13.64,17.15,0,28.1,8.65,28.1,21.46,0,9.48-4.89,14.42-15.83,23.9L30.83,93.57V94H53.22c5.18,0,8.11,3.08,8.11,7.82s-2.93,7.82-8.11,7.82H14C7.28,109.6,4.34,105.84,4.34,100.66Z"/><path d="M112.46,104.62,79.76,92.69c-6.3-2.29-9.24-6.11-9.24-11.87s3-9.44,9.24-11.73L112.46,57a17.71,17.71,0,0,1,7.08-1.52,8.17,8.17,0,0,1,8.26,8.36c0,4.3-2,7.28-7,8.7L93.35,80.38v.53l27.42,7.78c5,1.41,7,4.83,7,8.94a8.28,8.28,0,0,1-8.26,8.5A18.59,18.59,0,0,1,112.46,104.62Z"/><path d="M138.37,97a11.34,11.34,0,0,1-.64-3.66c0-5.13,3.42-8.31,9-8.31,3.86,0,6.41,1.27,8.46,4.25,2.64,3.86,5.23,6.16,11.39,6.16,5.18,0,8.89-3.13,8.89-7.48,0-5-3.86-7.72-11-7.72h-.49c-4.84,0-7.29-2.69-7.29-6.84,0-4,2.45-6.8,7.29-6.8h.49c6.4,0,10.11-2.78,10.11-7.33,0-4.35-3.22-7.08-8.45-7.08a9.76,9.76,0,0,0-9.19,5.22c-2.35,4.16-4.89,5.67-9.38,5.67-5.67,0-8.46-3.32-8.46-7.91a10.7,10.7,0,0,1,.68-3.82c2.5-6.79,11.1-14.27,26.25-14.27,15.69,0,27.61,6.65,27.61,19.21,0,9.14-6.69,14.81-14.46,16.37v.39c10.75,1.13,17.4,7,17.4,16.43,0,13.49-11.59,22-30.45,22C149.66,111.56,140.76,103.74,138.37,97Z"/></svg>