<svg id="Layer_1" data-name="Layer 1" xmlns="http://www.w3.org/2000/svg" viewBox="0 0 100 100"><defs><style>.cls-1{fill:#020202;}</style></defs><title>l16_2_1</title><path class="cls-1" d="M85.94,100H14.35A14.21,14.21,0,0,1,.15,85.79V14.21A14.21,14.21,0,0,1,14.35,0H85.94a14.21,14.21,0,0,1,14.21,14.21V85.79A14.21,14.21,0,0,1,85.94,100ZM23.46,72.16q8,0,12.2-5.68t4.21-16.4q0-10.68-4.24-16.35T23.46,28.05q-8,0-12.2,5.68T7.05,50.08q0,10.72,4.21,16.4T23.46,72.16Zm0-8.48q-2.92,0-4.21-3.17C18.4,58.39,18,54.92,18,50.08s.43-8.31,1.28-10.4,2.26-3.15,4.21-3.15,3.36,1.06,4.21,3.18S29,45.28,29,50.08s-.43,8.31-1.28,10.43S25.41,63.68,23.46,63.68ZM50.06,72a5.63,5.63,0,0,0,4.18-1.71,6.14,6.14,0,0,0,0-8.42,6,6,0,0,0-8.42,0,6.12,6.12,0,0,0,0,8.42A5.69,5.69,0,0,0,50.06,72ZM75.13,28.05A15.75,15.75,0,0,0,67.38,30,13.6,13.6,0,0,0,62,35.22a15.26,15.26,0,0,0-1.92,7.66,15.35,15.35,0,0,0,1.68,7.23,12.63,12.63,0,0,0,4.6,5A12.35,12.35,0,0,0,73,56.91a11.82,11.82,0,0,0,5.16-1.13A9.74,9.74,0,0,0,81.9,52.7a16.3,16.3,0,0,1-2.29,8,5.84,5.84,0,0,1-5,2.84A8.31,8.31,0,0,1,71.77,63c-.89-.33-2-.82-3.35-1.47l-1.35-.67c-.77-.4-1.38-.7-1.83-.88a4,4,0,0,0-1.52-.28A3.22,3.22,0,0,0,61.13,61a4.91,4.91,0,0,0-1.07,3.2,4.42,4.42,0,0,0,.46,2.13A5.24,5.24,0,0,0,62,68a19.45,19.45,0,0,0,6.13,3,23.77,23.77,0,0,0,7,1.1,16.49,16.49,0,0,0,9.48-2.75,17.76,17.76,0,0,0,6.29-7.84,29.62,29.62,0,0,0,2.22-11.92q0-10.36-4.69-16T75.13,28.05Zm.67,20.2A4.8,4.8,0,0,1,72,46.69a6.17,6.17,0,0,1-1.38-4.24A6.11,6.11,0,0,1,72,38.24a4.8,4.8,0,0,1,3.78-1.58,4.9,4.9,0,0,1,3.78,1.61A6,6,0,0,1,81,42.45a6,6,0,0,1-1.43,4.21A4.89,4.89,0,0,1,75.8,48.25Z"/></svg>