<svg id="Layer_1" data-name="Layer 1" xmlns="http://www.w3.org/2000/svg" viewBox="0 0 100 100"><defs><style>.cls-1{fill:#020202;}</style></defs><title>s16_1</title><path class="cls-1" d="M84.51,99.85h-69A15.39,15.39,0,0,1,.1,84.45v-69A15.39,15.39,0,0,1,15.49.05h69A15.39,15.39,0,0,1,99.9,15.44v69A15.39,15.39,0,0,1,84.51,99.85ZM9.2,56.62h7.71a3.74,3.74,0,0,0,2.57-.76,2.73,2.73,0,0,0,.84-2.11,2.67,2.67,0,0,0-.84-2.09,3.85,3.85,0,0,0-2.57-.74H9.2c-2.26,0-3.4.95-3.4,2.83S6.94,56.62,9.2,56.62ZM42.13,58.8H33.89l5.82-5.95a19.15,19.15,0,0,0,3.42-4.61,10.35,10.35,0,0,0,1-4.57,7.56,7.56,0,0,0-1.25-4.29,8.08,8.08,0,0,0-3.55-2.87,13.2,13.2,0,0,0-5.33-1A16.68,16.68,0,0,0,25,38.3a2.72,2.72,0,0,0-1,1.06,3.67,3.67,0,0,0-.26,1.48A3.53,3.53,0,0,0,24.37,43,2.09,2.09,0,0,0,26.1,44a2.54,2.54,0,0,0,.78-.12,5,5,0,0,0,.84-.39l.63-.35.82-.41a21,21,0,0,1,2.32-1,6.7,6.7,0,0,1,2.19-.35,3.26,3.26,0,0,1,2.28.74,2.76,2.76,0,0,1,.8,2.13c0,1.59-.9,3.32-2.71,5.21l-8.69,9.06a4.48,4.48,0,0,0-1.4,3.2,3,3,0,0,0,.87,2.23,3.09,3.09,0,0,0,2.33.88h15A4,4,0,0,0,44.81,64a2.8,2.8,0,0,0,.88-2.29,2.72,2.72,0,0,0-.88-2.24A4.23,4.23,0,0,0,42.13,58.8Zm25.62-1.15L55.58,53,67.75,48.3a2.08,2.08,0,0,0,1-.78,2.13,2.13,0,0,0,.37-1.23,2.47,2.47,0,0,0-2.55-2.58,4,4,0,0,0-1.27.24L51.68,49.24a4.15,4.15,0,0,0-1.87,1.5A3.9,3.9,0,0,0,49.14,53a4,4,0,0,0,.67,2.3,3.89,3.89,0,0,0,1.87,1.43L65.33,62a3.75,3.75,0,0,0,1.27.25,2.48,2.48,0,0,0,1.83-.72,2.52,2.52,0,0,0,.72-1.86,2,2,0,0,0-.37-1.21A2.45,2.45,0,0,0,67.75,57.65ZM91.37,58.8H83.13L89,52.85a19.15,19.15,0,0,0,3.42-4.61,10.35,10.35,0,0,0,1-4.57,7.56,7.56,0,0,0-1.25-4.29,8.08,8.08,0,0,0-3.55-2.87,13.2,13.2,0,0,0-5.33-1,16.68,16.68,0,0,0-9.06,2.79,2.72,2.72,0,0,0-1,1.06,3.67,3.67,0,0,0-.26,1.48A3.53,3.53,0,0,0,73.61,43a2.09,2.09,0,0,0,1.73.92,2.54,2.54,0,0,0,.78-.12,5,5,0,0,0,.84-.39l.63-.35.82-.41a21,21,0,0,1,2.32-1,6.7,6.7,0,0,1,2.19-.35,3.26,3.26,0,0,1,2.28.74A2.76,2.76,0,0,1,86,44.2c0,1.59-.9,3.32-2.71,5.21L74.6,58.47a4.48,4.48,0,0,0-1.4,3.2,3,3,0,0,0,.87,2.23,3.09,3.09,0,0,0,2.33.88h15A4,4,0,0,0,94.05,64a2.81,2.81,0,0,0,.89-2.29,2.73,2.73,0,0,0-.89-2.24A4.23,4.23,0,0,0,91.37,58.8Z"/></svg>