<svg id="Layer_1" data-name="Layer 1" xmlns="http://www.w3.org/2000/svg" viewBox="0 0 100 100"><defs><style>.cls-1{fill:#020202;}</style></defs><title>l16_5_1</title><path class="cls-1" d="M85.76,100H14.18A14.21,14.21,0,0,1,0,85.79V14.21A14.21,14.21,0,0,1,14.18,0H85.76A14.21,14.21,0,0,1,100,14.21V85.79A14.21,14.21,0,0,1,85.76,100ZM72.48,20Q68,20,65.42,25L50.05,54.07,34.59,25a10.14,10.14,0,0,0-3.11-3.74A7,7,0,0,0,27.37,20a7,7,0,0,0-5.25,2.1,7.48,7.48,0,0,0-2.06,5.46v45.7a6.71,6.71,0,0,0,1.89,5,6.59,6.59,0,0,0,4.83,1.85,6.63,6.63,0,0,0,4.91-1.89,6.74,6.74,0,0,0,1.89-5V49l9.5,17.14a10.9,10.9,0,0,0,3,3.82,6.89,6.89,0,0,0,7.56,0,10.9,10.9,0,0,0,3-3.82l9.58-17.64v24.7a6.71,6.71,0,0,0,1.89,5,7.28,7.28,0,0,0,9.7,0,6.8,6.8,0,0,0,1.85-5V27.53a7.53,7.53,0,0,0-2-5.46A6.89,6.89,0,0,0,72.48,20Z"/></svg>