<svg id="Layer_1" data-name="Layer 1" xmlns="http://www.w3.org/2000/svg" viewBox="0 0 100 100"><defs><style>.cls-1{fill:#020202;}</style></defs><title>s16_1</title><path class="cls-1" d="M84.49,100h-69A15.39,15.39,0,0,1,.09,84.56v-69A15.39,15.39,0,0,1,15.48.15h69a15.39,15.39,0,0,1,15.4,15.4v69A15.39,15.39,0,0,1,84.49,100ZM9.07,60.73h7.7A3.72,3.72,0,0,0,19.34,60a2.69,2.69,0,0,0,.84-2.11,2.63,2.63,0,0,0-.84-2.09A3.83,3.83,0,0,0,16.77,55H9.07q-3.41,0-3.41,2.83T9.07,60.73ZM36.37,50a10.11,10.11,0,0,0-4.06.74v-5h8.86c2.38,0,3.57-1,3.57-2.87S43.55,40,41.17,40H28.46a3.46,3.46,0,0,0-2.58.91A3.55,3.55,0,0,0,25,43.51V54.62a2.23,2.23,0,0,0,.78,1.78,2.86,2.86,0,0,0,1.93.68,4,4,0,0,0,1.85-.45,14.29,14.29,0,0,1,2.35-.74,11,11,0,0,1,2.24-.2,4.67,4.67,0,0,1,3.2,1,3.66,3.66,0,0,1,1.14,2.87,3.57,3.57,0,0,1-1.1,2.89,5.24,5.24,0,0,1-3.41.92A6.93,6.93,0,0,1,31.68,63a24,24,0,0,1-2.32-1l-.82-.41A13.26,13.26,0,0,0,27.31,61a2.71,2.71,0,0,0-1-.17,2.15,2.15,0,0,0-1.73.88,3.41,3.41,0,0,0-.69,2.16,3.12,3.12,0,0,0,.3,1.41,3.71,3.71,0,0,0,1,1.13,13.48,13.48,0,0,0,4.2,2,17.21,17.21,0,0,0,5,.74A13.33,13.33,0,0,0,40.19,68a9.28,9.28,0,0,0,3.93-3.49,9.69,9.69,0,0,0,1.4-5.21,9.81,9.81,0,0,0-1.17-4.85,8.25,8.25,0,0,0-3.24-3.28A9.46,9.46,0,0,0,36.37,50Zm31.2,11.76L55.4,57.08l12.17-4.67a2.2,2.2,0,0,0,1-.78A2.17,2.17,0,0,0,69,50.4a2.52,2.52,0,0,0-.72-1.87,2.48,2.48,0,0,0-1.83-.72,4,4,0,0,0-1.27.25L51.5,53.35a4.07,4.07,0,0,0-1.86,1.5A3.84,3.84,0,0,0,49,57.08a3.84,3.84,0,0,0,2.54,3.73L65.15,66.1a4,4,0,0,0,1.27.25,2.48,2.48,0,0,0,1.83-.72A2.52,2.52,0,0,0,69,63.76a2.09,2.09,0,0,0-.37-1.21A2.54,2.54,0,0,0,67.57,61.75ZM85.57,50a10.11,10.11,0,0,0-4.06.74v-5h8.86c2.38,0,3.57-1,3.57-2.87S92.75,40,90.37,40H77.66a3.46,3.46,0,0,0-2.58.91,3.51,3.51,0,0,0-.91,2.62V54.62A2.23,2.23,0,0,0,75,56.4a2.84,2.84,0,0,0,1.93.68,3.88,3.88,0,0,0,1.84-.45,14.67,14.67,0,0,1,2.36-.74,11,11,0,0,1,2.24-.2,4.63,4.63,0,0,1,3.19,1,3.63,3.63,0,0,1,1.15,2.87,3.57,3.57,0,0,1-1.1,2.89,5.24,5.24,0,0,1-3.41.92A6.88,6.88,0,0,1,80.88,63a24,24,0,0,1-2.32-1l-.82-.41A13.26,13.26,0,0,0,76.51,61a2.71,2.71,0,0,0-1-.17,2.15,2.15,0,0,0-1.73.88,3.41,3.41,0,0,0-.69,2.16,3.12,3.12,0,0,0,.3,1.41,3.71,3.71,0,0,0,1,1.13,13.48,13.48,0,0,0,4.2,2,17.21,17.21,0,0,0,5,.74A13.26,13.26,0,0,0,89.38,68a9.25,9.25,0,0,0,3.94-3.49,9.69,9.69,0,0,0,1.39-5.21,9.8,9.8,0,0,0-1.16-4.85,8.25,8.25,0,0,0-3.24-3.28A9.46,9.46,0,0,0,85.57,50Z"/></svg>