<svg id="Layer_1" data-name="Layer 1" xmlns="http://www.w3.org/2000/svg" viewBox="0 0 100 100"><defs><style>.cls-1{fill:#020202;}</style></defs><title>l16_2_1</title><path class="cls-1" d="M85.8,100.18H14.22A14.21,14.21,0,0,1,0,86V14.39A14.21,14.21,0,0,1,14.22.18H85.8A14.21,14.21,0,0,1,100,14.39V86A14.21,14.21,0,0,1,85.8,100.18ZM23.32,72.34q8,0,12.21-5.68t4.2-16.41q0-10.66-4.24-16.34T23.32,28.23q-8,0-12.2,5.68T6.92,50.25q0,10.74,4.2,16.41T23.32,72.34Zm0-8.48q-2.92,0-4.2-3.17T17.83,50.25q0-7.24,1.29-10.4t4.2-3.14q2.94,0,4.21,3.17t1.29,10.37q0,7.26-1.29,10.44T23.32,63.86Zm26.6,8.29a5.65,5.65,0,0,0,4.18-1.7,6.12,6.12,0,0,0,0-8.42,5.62,5.62,0,0,0-4.18-1.71A5.69,5.69,0,0,0,45.68,62a5.91,5.91,0,0,0,4.24,10.12ZM84.26,49.64A9.84,9.84,0,0,0,89.11,46a10.11,10.11,0,0,0,1.74-5.88A10.65,10.65,0,0,0,89,33.85a11.88,11.88,0,0,0-5.31-4.15,20.11,20.11,0,0,0-8-1.47,24.53,24.53,0,0,0-7.23,1.1,20.22,20.22,0,0,0-6.19,3.05A4.88,4.88,0,0,0,60.84,34a4.67,4.67,0,0,0-.43,2.13,5,5,0,0,0,1,3.21A3.15,3.15,0,0,0,64,40.68a3.9,3.9,0,0,0,1.53-.28c.44-.18,1-.47,1.83-.88l1.28-.61A33.6,33.6,0,0,1,72,37.44a9.35,9.35,0,0,1,3.2-.54,5.2,5.2,0,0,1,3.72,1.25,4.53,4.53,0,0,1,1.35,3.5,3.41,3.41,0,0,1-1.53,3.11,9.22,9.22,0,0,1-4.88,1H71.15A3.5,3.5,0,0,0,68.28,47a5,5,0,0,0,0,6.1,3.47,3.47,0,0,0,2.87,1.28h3.78a9.18,9.18,0,0,1,5,1,3.82,3.82,0,0,1,1.53,3.41A4.26,4.26,0,0,1,80,62.52q-1.48,1.09-4.91,1.09a11,11,0,0,1-3.51-.52A26.77,26.77,0,0,1,68,61.6l-.77-.34L66.69,61a19.64,19.64,0,0,0-1.83-.88,3.82,3.82,0,0,0-1.52-.28,3.15,3.15,0,0,0-2.56,1.31,5,5,0,0,0-1,3.21,4.71,4.71,0,0,0,.43,2.1,4.77,4.77,0,0,0,1.46,1.68A19.66,19.66,0,0,0,68,71.21a27.13,27.13,0,0,0,7.62,1.06,22.83,22.83,0,0,0,8.63-1.49,12.92,12.92,0,0,0,5.71-4.24,10.63,10.63,0,0,0,2-6.46,10.82,10.82,0,0,0-2-6.65A10.48,10.48,0,0,0,84.26,49.64Z"/></svg>