<svg id="Layer_1" data-name="Layer 1" xmlns="http://www.w3.org/2000/svg" viewBox="0 0 100 100"><defs><style>.cls-1{fill:#020202;}</style></defs><title>l16_5_1</title><path class="cls-1" d="M86.2,100H14.62A14.21,14.21,0,0,1,.41,85.79V14.21A14.21,14.21,0,0,1,14.62,0H86.2a14.21,14.21,0,0,1,14.21,14.21V85.79A14.21,14.21,0,0,1,86.2,100ZM70,20a7.09,7.09,0,0,0-7.56,7.56V43.4H38.23V27.53A7.09,7.09,0,0,0,30.67,20a7.09,7.09,0,0,0-7.56,7.56V72.47a7.5,7.5,0,0,0,2.06,5.58,7.39,7.39,0,0,0,5.5,2.06,7.35,7.35,0,0,0,5.5-2.1,7.57,7.57,0,0,0,2.06-5.54V55.67H62.42v16.8a7.54,7.54,0,0,0,2.06,5.58A7.39,7.39,0,0,0,70,80.11a7.34,7.34,0,0,0,5.5-2.1,7.57,7.57,0,0,0,2.06-5.54V27.53A7.09,7.09,0,0,0,70,20Z"/></svg>