<svg id="Layer_1" data-name="Layer 1" xmlns="http://www.w3.org/2000/svg" viewBox="0 0 100 100"><defs><style>.cls-1{fill:#020202;}</style></defs><title>l16_3_1</title><path class="cls-1" d="M85.79,100H14.21A14.21,14.21,0,0,1,0,85.79V14.21A14.21,14.21,0,0,1,14.21,0H85.79A14.21,14.21,0,0,1,100,14.21V85.79A14.21,14.21,0,0,1,85.79,100ZM40.74,51.05H32.55V42.86a3.84,3.84,0,1,0-7.67,0v8.19H16.69a3.79,3.79,0,0,0-3.84,3.84A3.81,3.81,0,0,0,14,57.65a3.63,3.63,0,0,0,2.73,1.14h8.19v8.12a3.88,3.88,0,0,0,6.6,2.73,3.76,3.76,0,0,0,1.07-2.73V58.79h8.19a3.66,3.66,0,0,0,2.73-1.14,3.84,3.84,0,0,0,1.1-2.76,3.77,3.77,0,0,0-3.83-3.84ZM81.49,64.12H76.16V33.31a5.66,5.66,0,0,0-1.59-4.23,5.73,5.73,0,0,0-4.19-1.56A11.06,11.06,0,0,0,65,29.15l-10.4,6a4.41,4.41,0,0,0-2.27,4,5.46,5.46,0,0,0,1.3,3.55,3.89,3.89,0,0,0,3.12,1.59A4.43,4.43,0,0,0,59,43.71l5.2-3.06V64.12H58.94a6.51,6.51,0,0,0-4.29,1.17,4.37,4.37,0,0,0-1.37,3.51q0,4.82,5.66,4.81H81.49q5.66,0,5.66-4.81a4.37,4.37,0,0,0-1.37-3.51A6.51,6.51,0,0,0,81.49,64.12Z"/></svg>