<svg id="Layer_1" data-name="Layer 1" xmlns="http://www.w3.org/2000/svg" viewBox="0 0 100 100"><defs><style>.cls-1{fill:#020202;}</style></defs><title>s16_1</title><path class="cls-1" d="M84.87,99.9h-69A15.39,15.39,0,0,1,.46,84.51v-69A15.39,15.39,0,0,1,15.86.1h69a15.39,15.39,0,0,1,15.39,15.39v69A15.39,15.39,0,0,1,84.87,99.9ZM31.45,51a6.61,6.61,0,0,0,3.26-2.49,6.79,6.79,0,0,0,1.17-4,7.16,7.16,0,0,0-1.25-4.18,7.89,7.89,0,0,0-3.57-2.79,13.51,13.51,0,0,0-5.35-1,16.52,16.52,0,0,0-4.86.74,13.7,13.7,0,0,0-4.16,2,3.41,3.41,0,0,0-1,1.11,3.19,3.19,0,0,0-.29,1.43,3.35,3.35,0,0,0,.7,2.16,2.13,2.13,0,0,0,1.72.88,2.63,2.63,0,0,0,1-.19c.3-.12.71-.32,1.23-.59l.86-.41a20.69,20.69,0,0,1,2.23-1,6.11,6.11,0,0,1,2.15-.37,3.52,3.52,0,0,1,2.5.84,3,3,0,0,1,.91,2.35,2.32,2.32,0,0,1-1,2.1,6.36,6.36,0,0,1-3.28.65h-1.8a2.35,2.35,0,0,0-1.93.86,3.2,3.2,0,0,0-.7,2,3.16,3.16,0,0,0,.7,2.05,2.33,2.33,0,0,0,1.93.86h2.54a6.18,6.18,0,0,1,3.36.7,2.59,2.59,0,0,1,1,2.3,2.87,2.87,0,0,1-1,2.46,5.71,5.71,0,0,1-3.3.73,7.56,7.56,0,0,1-2.36-.34,19.28,19.28,0,0,1-2.35-1L20,58.82l-.39-.19c-.52-.27-.93-.47-1.23-.59a2.54,2.54,0,0,0-1-.19,2.13,2.13,0,0,0-1.72.88,3.35,3.35,0,0,0-.7,2.16,2.9,2.9,0,0,0,1.27,2.54A13.31,13.31,0,0,0,20.5,65.5a18.22,18.22,0,0,0,5.13.72,15.37,15.37,0,0,0,5.8-1,8.71,8.71,0,0,0,3.84-2.85A7.16,7.16,0,0,0,36.62,58a7.31,7.31,0,0,0-1.37-4.47A7,7,0,0,0,31.45,51Zm28,7.74L47.28,54.08l12.18-4.67a2.22,2.22,0,0,0,1-.78,2.1,2.1,0,0,0,.37-1.23,2.52,2.52,0,0,0-.72-1.87,2.47,2.47,0,0,0-1.82-.72,3.91,3.91,0,0,0-1.27.25L43.38,50.35a4.07,4.07,0,0,0-1.86,1.5,3.91,3.91,0,0,0-.68,2.23,4,4,0,0,0,.68,2.3,3.88,3.88,0,0,0,1.86,1.43L57,63.1a3.91,3.91,0,0,0,1.27.25,2.47,2.47,0,0,0,1.82-.72,2.52,2.52,0,0,0,.72-1.87,2,2,0,0,0-.37-1.21A2.57,2.57,0,0,0,59.46,58.75Zm24.8-3.48h-.9V40.47a3.49,3.49,0,0,0-1.11-2.75,3.86,3.86,0,0,0-2.66-1,4.1,4.1,0,0,0-1.83.43,3.64,3.64,0,0,0-1.45,1.25L64.58,55.15a4.58,4.58,0,0,0-.9,2.7,3.12,3.12,0,0,0,.86,2.26,3.07,3.07,0,0,0,2.34.9H76V62.4a3.65,3.65,0,0,0,1,2.79,3.7,3.7,0,0,0,2.65.94,3.76,3.76,0,0,0,2.66-.94,3.59,3.59,0,0,0,1-2.79V61h.9q3.57,0,3.57-2.91T84.26,55.27Zm-13.16,0L76,48.18v7.09Z"/></svg>