<svg id="Layer_1" data-name="Layer 1" xmlns="http://www.w3.org/2000/svg" viewBox="0 0 100 100"><defs><style>.cls-1{fill:#020202;}</style></defs><title>l16_4_1</title><path class="cls-1" d="M85.93,100H14.34A14.2,14.2,0,0,1,.14,85.79V14.2A14.21,14.21,0,0,1,14.34,0H85.93A14.21,14.21,0,0,1,100.14,14.2V85.79A14.21,14.21,0,0,1,85.93,100ZM64.86,35.35a12.22,12.22,0,0,0-6.07,1.5,11.57,11.57,0,0,0-4.29,4.07q-2.31-5.58-9.15-5.57-6.47,0-9.6,4.73a4.29,4.29,0,0,0-1.57-3.42,5.88,5.88,0,0,0-3.75-1.18,6.4,6.4,0,0,0-4.06,1.31,4.52,4.52,0,0,0-1.7,3.81V62.74a4.73,4.73,0,0,0,1.64,3.93A6.23,6.23,0,0,0,30.37,68a6.23,6.23,0,0,0,4.06-1.32,4.72,4.72,0,0,0,1.63-3.93V50.07a6.75,6.75,0,0,1,1.32-4.42,4.32,4.32,0,0,1,3.55-1.6,3.26,3.26,0,0,1,2.62,1,5.45,5.45,0,0,1,.9,3.58V62.74a4.72,4.72,0,0,0,1.63,3.93,7,7,0,0,0,8.16,0,4.76,4.76,0,0,0,1.6-3.93V50.07a6.7,6.7,0,0,1,1.34-4.42,4.44,4.44,0,0,1,3.59-1.6,3.26,3.26,0,0,1,2.62,1,5.45,5.45,0,0,1,.9,3.58V62.74a4.72,4.72,0,0,0,1.63,3.93,6.92,6.92,0,0,0,8.13,0,4.72,4.72,0,0,0,1.63-3.93V48.92q0-7.37-2.82-10.47T64.86,35.35Z"/></svg>