<svg id="Layer_1" data-name="Layer 1" xmlns="http://www.w3.org/2000/svg" viewBox="0 0 100 100"><defs><style>.cls-1{fill:#020202;}</style></defs><title>l16_2_1</title><path class="cls-1" d="M85.7,100H14.11A14.21,14.21,0,0,1-.1,85.79V14.21A14.21,14.21,0,0,1,14.11,0H85.7A14.21,14.21,0,0,1,99.9,14.21V85.79A14.21,14.21,0,0,1,85.7,100ZM23.22,72.16q8,0,12.2-5.68t4.21-16.4q0-10.68-4.24-16.35T23.22,28.05q-8,0-12.2,5.68T6.81,50.08q0,10.72,4.21,16.4T23.22,72.16Zm0-8.48c-1.95,0-3.36-1.06-4.21-3.17s-1.28-5.59-1.28-10.43.43-8.31,1.28-10.4,2.26-3.15,4.21-3.15,3.35,1.06,4.21,3.18,1.28,5.57,1.28,10.37-.43,8.31-1.28,10.43S25.17,63.68,23.22,63.68ZM49.81,72A5.62,5.62,0,0,0,54,70.27a6.12,6.12,0,0,0,0-8.42,6,6,0,0,0-8.41,0,6.12,6.12,0,0,0,0,8.42A5.67,5.67,0,0,0,49.81,72ZM80.07,43.3a11.82,11.82,0,0,0-5.16,1.13,9.83,9.83,0,0,0-3.75,3.08,16.3,16.3,0,0,1,2.29-8,5.83,5.83,0,0,1,5-2.83,8.07,8.07,0,0,1,2.81.49,35.84,35.84,0,0,1,3.35,1.46l1.35.67a19.64,19.64,0,0,0,1.83.88,3.82,3.82,0,0,0,1.52.28,3.23,3.23,0,0,0,2.59-1.31A4.93,4.93,0,0,0,93,36a4.42,4.42,0,0,0-.46-2.13,5.24,5.24,0,0,0-1.49-1.65,19.45,19.45,0,0,0-6.13-3.05,23.77,23.77,0,0,0-7-1.1,16.49,16.49,0,0,0-9.48,2.75,17.67,17.67,0,0,0-6.28,7.84,29.45,29.45,0,0,0-2.23,11.92q0,10.38,4.7,16t13.29,5.61a15.74,15.74,0,0,0,7.75-1.89A13.56,13.56,0,0,0,91,65a16.3,16.3,0,0,0,.24-14.88,12.6,12.6,0,0,0-4.6-5A12.42,12.42,0,0,0,80.07,43.3ZM77.26,63.56a4.87,4.87,0,0,1-3.78-1.62,6.81,6.81,0,0,1,0-8.39A4.92,4.92,0,0,1,77.26,52a4.86,4.86,0,0,1,3.82,1.55,6.21,6.21,0,0,1,1.37,4.24A6.11,6.11,0,0,1,81,62,4.77,4.77,0,0,1,77.26,63.56Z"/></svg>