<svg id="Layer_1" data-name="Layer 1" xmlns="http://www.w3.org/2000/svg" viewBox="0 0 100 100"><defs><style>.cls-1{fill:#020202;}</style></defs><title>l16_5_1</title><path class="cls-1" d="M86,100H14.44A14.21,14.21,0,0,1,.23,85.79V14.21A14.21,14.21,0,0,1,14.44,0H86a14.21,14.21,0,0,1,14.2,14.21V85.79A14.21,14.21,0,0,1,86,100ZM65,22.4,50.15,40,35.28,22.4a6.65,6.65,0,0,0-5.13-2.52A7,7,0,0,0,25.2,22,6.58,6.58,0,0,0,23,26.86,7,7,0,0,0,25,31.56L42.42,52v20.5a7.28,7.28,0,0,0,2.18,5.67,8.06,8.06,0,0,0,5.63,2,7.78,7.78,0,0,0,5.5-2,7.33,7.33,0,0,0,2.14-5.67V52L75.52,31.56a7,7,0,0,0,1.84-4.62A6.64,6.64,0,0,0,75.14,22a7,7,0,0,0-5-2.15A6.61,6.61,0,0,0,65,22.4Z"/></svg>