<svg id="Layer_1" data-name="Layer 1" xmlns="http://www.w3.org/2000/svg" viewBox="0 0 100 100"><defs><style>.cls-1{fill:#020202;}</style></defs><title>s16_1</title><path class="cls-1" d="M84.85,100h-69A15.39,15.39,0,0,1,.45,84.56v-69A15.39,15.39,0,0,1,15.84.15h69a15.39,15.39,0,0,1,15.4,15.4v69A15.39,15.39,0,0,1,84.85,100ZM9.42,59.73h7.71A3.74,3.74,0,0,0,19.7,59a2.73,2.73,0,0,0,.84-2.11,2.67,2.67,0,0,0-.84-2.09A3.85,3.85,0,0,0,17.13,54H9.42C7.16,54,6,55,6,56.86S7.16,59.73,9.42,59.73ZM37.18,48.86a7.94,7.94,0,0,0-3.46.76,6.46,6.46,0,0,0-2.52,2.07,10.89,10.89,0,0,1,1.53-5.35,3.92,3.92,0,0,1,3.39-1.9,5.67,5.67,0,0,1,1.88.32c.6.22,1.35.55,2.26,1l.9.45c.52.27.93.47,1.23.59a2.54,2.54,0,0,0,1,.19,2.2,2.2,0,0,0,1.75-.88,3.36,3.36,0,0,0,.71-2.16,3.06,3.06,0,0,0-.3-1.43,3.66,3.66,0,0,0-1-1.11,13.14,13.14,0,0,0-4.12-2,16,16,0,0,0-4.69-.74,11.11,11.11,0,0,0-6.38,1.85,12,12,0,0,0-4.22,5.27,19.81,19.81,0,0,0-1.5,8q0,7,3.16,10.75t8.94,3.77A10.62,10.62,0,0,0,41,67a9.15,9.15,0,0,0,3.59-3.55,10.95,10.95,0,0,0,.16-10,8.47,8.47,0,0,0-3.09-3.37A8.35,8.35,0,0,0,37.18,48.86ZM35.3,62.48a3.31,3.31,0,0,1-2.55-1.09,4.58,4.58,0,0,1,0-5.64,3.29,3.29,0,0,1,2.57-1.06,3.23,3.23,0,0,1,2.56,1,4.19,4.19,0,0,1,.92,2.85,4.1,4.1,0,0,1-.94,2.83A3.23,3.23,0,0,1,35.3,62.48Zm32.63-1.73L55.75,56.08l12.18-4.67a2.2,2.2,0,0,0,1-.78,2.17,2.17,0,0,0,.36-1.23,2.52,2.52,0,0,0-.71-1.87,2.48,2.48,0,0,0-1.83-.72,4,4,0,0,0-1.27.25L51.86,52.35A4.15,4.15,0,0,0,50,53.85a3.9,3.9,0,0,0-.67,2.23,3.81,3.81,0,0,0,2.54,3.73L65.51,65.1a4,4,0,0,0,1.27.25,2.48,2.48,0,0,0,1.83-.72,2.52,2.52,0,0,0,.71-1.87A2.08,2.08,0,0,0,69,61.55,2.54,2.54,0,0,0,67.93,60.75ZM86.38,48.86a7.94,7.94,0,0,0-3.46.76,6.46,6.46,0,0,0-2.52,2.07,10.89,10.89,0,0,1,1.53-5.35,3.92,3.92,0,0,1,3.39-1.9,5.67,5.67,0,0,1,1.88.32c.6.22,1.35.55,2.26,1l.9.45c.52.27.93.47,1.23.59a2.54,2.54,0,0,0,1,.19,2.2,2.2,0,0,0,1.75-.88,3.36,3.36,0,0,0,.71-2.16,3.06,3.06,0,0,0-.3-1.43,3.66,3.66,0,0,0-1-1.11,13.14,13.14,0,0,0-4.12-2A16,16,0,0,0,85,38.61a11.11,11.11,0,0,0-6.38,1.85,11.88,11.88,0,0,0-4.22,5.27,19.81,19.81,0,0,0-1.5,8q0,7,3.16,10.75T85,68.26A10.62,10.62,0,0,0,90.15,67a9.15,9.15,0,0,0,3.59-3.55,10.95,10.95,0,0,0,.16-10,8.47,8.47,0,0,0-3.09-3.37A8.35,8.35,0,0,0,86.38,48.86ZM84.49,62.48A3.3,3.3,0,0,1,82,61.39a4.58,4.58,0,0,1,0-5.64,3.28,3.28,0,0,1,2.56-1.06,3.24,3.24,0,0,1,2.57,1A4.19,4.19,0,0,1,88,58.58,4.1,4.1,0,0,1,87,61.41,3.24,3.24,0,0,1,84.49,62.48Z"/></svg>