<svg id="Layer_1" data-name="Layer 1" xmlns="http://www.w3.org/2000/svg" viewBox="0 0 100 100"><defs><style>.cls-1{fill:#020202;}</style></defs><title>l16_3_1</title><path class="cls-1" d="M85.79,100H14.21A14.21,14.21,0,0,1,0,85.79V14.21A14.21,14.21,0,0,1,14.21,0H85.79A14.21,14.21,0,0,1,100,14.21V85.79A14.21,14.21,0,0,1,85.79,100ZM33.07,54.89l7-7a3.81,3.81,0,0,0,1.17-2.79,3.43,3.43,0,0,0-1.17-2.67,3.62,3.62,0,0,0-2.73-1.17,3.74,3.74,0,0,0-2.73,1.17l-7,7-7-7a3.82,3.82,0,0,0-2.73-1.23,3.42,3.42,0,0,0-2.67,1.17A3.81,3.81,0,0,0,14,45.2a4,4,0,0,0,1.11,2.73l7,7-7,7a3.77,3.77,0,0,0,0,5.46,4,4,0,0,0,2.73,1.1,3.7,3.7,0,0,0,2.73-1.1l7-7,7,7a3.77,3.77,0,0,0,5.46,0,3.7,3.7,0,0,0,1.1-2.73,3.55,3.55,0,0,0-1.1-2.73Zm47.32,9.23H75.06V33.31a5.62,5.62,0,0,0-1.6-4.23,5.73,5.73,0,0,0-4.19-1.56,11,11,0,0,0-5.39,1.63l-10.4,6a4.42,4.42,0,0,0-2.28,4,5.46,5.46,0,0,0,1.3,3.55,3.92,3.92,0,0,0,3.12,1.59,4.49,4.49,0,0,0,2.28-.65l5.2-3.06V64.12H57.83a6.51,6.51,0,0,0-4.29,1.17,4.37,4.37,0,0,0-1.36,3.51q0,4.82,5.65,4.81H80.39Q86,73.61,86,68.8a4.37,4.37,0,0,0-1.36-3.51A6.51,6.51,0,0,0,80.39,64.12Z"/></svg>