<svg id="Layer_1" data-name="Layer 1" xmlns="http://www.w3.org/2000/svg" viewBox="0 0 100 100"><defs><style>.cls-1{fill:#020202;}</style></defs><title>l16_3_1</title><path class="cls-1" d="M85.79,99.84H14.21A14.21,14.21,0,0,1,0,85.63V14.05A14.21,14.21,0,0,1,14.21-.16H85.79A14.21,14.21,0,0,1,100,14.05V85.63A14.21,14.21,0,0,1,85.79,99.84ZM55.19,71.39H38.25l12-12.22a39.3,39.3,0,0,0,7-9.48,21.21,21.21,0,0,0,2.07-9.4,15.41,15.41,0,0,0-2.58-8.81,16.48,16.48,0,0,0-7.29-5.9,27.21,27.21,0,0,0-11-2.06A33,33,0,0,0,28.77,25a32.7,32.7,0,0,0-8.89,4.22,5.59,5.59,0,0,0-2.07,2.19,7.34,7.34,0,0,0-.54,3A7.21,7.21,0,0,0,18.7,39a4.27,4.27,0,0,0,3.54,1.9,5,5,0,0,0,1.6-.25,10.6,10.6,0,0,0,1.73-.8c.64-.37,1.08-.61,1.3-.72l1.69-.84a41.79,41.79,0,0,1,4.76-2.07,13.89,13.89,0,0,1,4.51-.71A6.67,6.67,0,0,1,42.51,37a5.67,5.67,0,0,1,1.64,4.39q0,4.88-5.56,10.7L20.72,70.72a9.21,9.21,0,0,0-2.86,6.57,6.31,6.31,0,0,0,1.77,4.6,6.43,6.43,0,0,0,4.8,1.81H55.19q3.72,0,5.53-1.52a5.83,5.83,0,0,0,1.81-4.72,5.59,5.59,0,0,0-1.81-4.59Q58.91,71.38,55.19,71.39ZM79.4,34.05H71.7l5.44-5.56a17.9,17.9,0,0,0,3.2-4.31,9.72,9.72,0,0,0,.94-4.27,7,7,0,0,0-1.17-4,7.51,7.51,0,0,0-3.31-2.68,12.43,12.43,0,0,0-5-.94,15.54,15.54,0,0,0-8.47,2.61,2.58,2.58,0,0,0-.94,1,3.17,3.17,0,0,0-.25,1.37,3.3,3.3,0,0,0,.65,2,2,2,0,0,0,1.61.87,2.19,2.19,0,0,0,.73-.12,5.16,5.16,0,0,0,.78-.36l.6-.33.76-.38a18.76,18.76,0,0,1,2.17-.94,6.12,6.12,0,0,1,2.05-.33,3,3,0,0,1,2.12.69,2.59,2.59,0,0,1,.75,2q0,2.22-2.53,4.86l-8.12,8.47a4.18,4.18,0,0,0-1.3,3,2.9,2.9,0,0,0,.8,2.09,3,3,0,0,0,2.19.82h14A3.86,3.86,0,0,0,81.91,39a2.65,2.65,0,0,0,.82-2.15,2.51,2.51,0,0,0-.82-2.08A3.92,3.92,0,0,0,79.4,34.05Z"/></svg>