<svg id="Layer_1" data-name="Layer 1" xmlns="http://www.w3.org/2000/svg" viewBox="0 0 100 100"><defs><style>.cls-1{fill:#020202;}</style></defs><title>l16_3_1</title><path class="cls-1" d="M85.79,100H14.21A14.21,14.21,0,0,1,0,85.79V14.21A14.21,14.21,0,0,1,14.21,0H85.79A14.21,14.21,0,0,1,100,14.21V85.79A14.21,14.21,0,0,1,85.79,100ZM43.33,45.19A20.91,20.91,0,0,0,35,46.71V36.34h18.2q7.34,0,7.34-5.9t-7.34-5.82H27.06a7.18,7.18,0,0,0-5.31,1.86,7.31,7.31,0,0,0-1.85,5.39V54.71a4.62,4.62,0,0,0,1.6,3.67,5.82,5.82,0,0,0,4,1.39,8.06,8.06,0,0,0,3.8-.93,29.72,29.72,0,0,1,4.84-1.51,22.42,22.42,0,0,1,4.6-.43A9.53,9.53,0,0,1,45.27,59a7.52,7.52,0,0,1,2.36,5.9q0,4.05-2.28,5.94t-7,1.9A13.84,13.84,0,0,1,33.68,72a46.31,46.31,0,0,1-4.76-2l-1.69-.85a27.2,27.2,0,0,0-2.53-1.26,5.77,5.77,0,0,0-2.1-.34,4.34,4.34,0,0,0-3.54,1.82,6.86,6.86,0,0,0-1.44,4.42,6.16,6.16,0,0,0,.64,2.91,7.49,7.49,0,0,0,2,2.32,27.61,27.61,0,0,0,8.64,4.21,35.18,35.18,0,0,0,10.24,1.52,27.27,27.27,0,0,0,12.05-2.53A19,19,0,0,0,59.26,75a20,20,0,0,0,2.87-10.71,20.34,20.34,0,0,0-2.4-10,17.2,17.2,0,0,0-6.66-6.74A19.51,19.51,0,0,0,43.33,45.19ZM79,34.39h-7.7l5.44-5.55A18.09,18.09,0,0,0,80,24.53a9.62,9.62,0,0,0,.94-4.27,7,7,0,0,0-1.17-4,7.51,7.51,0,0,0-3.31-2.68,12.26,12.26,0,0,0-5-.94A15.54,15.54,0,0,0,63,15.24a2.56,2.56,0,0,0-.94,1,3.24,3.24,0,0,0-.25,1.38,3.32,3.32,0,0,0,.65,2.05,1.94,1.94,0,0,0,1.61.86,2.19,2.19,0,0,0,.73-.11,4.87,4.87,0,0,0,.79-.37l.59-.32.77-.38a16.5,16.5,0,0,1,2.16-.94,6.16,6.16,0,0,1,2.05-.33,3,3,0,0,1,2.13.69,2.61,2.61,0,0,1,.74,2q0,2.23-2.53,4.87l-8.12,8.47a4.18,4.18,0,0,0-1.3,3,2.88,2.88,0,0,0,.8,2.09,2.93,2.93,0,0,0,2.19.83H79a3.84,3.84,0,0,0,2.51-.69,2.65,2.65,0,0,0,.83-2.15,2.55,2.55,0,0,0-.83-2.09A4,4,0,0,0,79,34.39Z"/></svg>