<svg id="Layer_1" data-name="Layer 1" xmlns="http://www.w3.org/2000/svg" viewBox="0 0 100 100"><defs><style>.cls-1{fill:#020202;}</style></defs><title>s16_1</title><path class="cls-1" d="M85.06,99.85h-69A15.39,15.39,0,0,1,.66,84.45v-69A15.39,15.39,0,0,1,16.05.05h69a15.39,15.39,0,0,1,15.4,15.39v69A15.39,15.39,0,0,1,85.06,99.85ZM9.64,59.62h7.7a3.72,3.72,0,0,0,2.57-.76,2.69,2.69,0,0,0,.84-2.11,2.63,2.63,0,0,0-.84-2.09,3.83,3.83,0,0,0-2.57-.74H9.64c-2.27,0-3.41.95-3.41,2.83S7.37,59.62,9.64,59.62Zm34.11-2.46h-.9V42.36a3.5,3.5,0,0,0-1.11-2.75,3.91,3.91,0,0,0-2.67-1,4.05,4.05,0,0,0-1.82.43,3.91,3.91,0,0,0-1.46,1.25L24.07,57a4.61,4.61,0,0,0-.9,2.71A3.1,3.1,0,0,0,24,62a3.07,3.07,0,0,0,2.33.9h9.15v1.4a3.65,3.65,0,0,0,1,2.79,3.75,3.75,0,0,0,2.65.94,3.81,3.81,0,0,0,2.66-.94,3.62,3.62,0,0,0,1-2.79V62.9h.9c2.38,0,3.56-1,3.56-2.91S46.13,57.16,43.75,57.16Zm-13.16,0,4.92-7.09v7.09Zm37.55,3.49L56,56,68.14,51.3a2.08,2.08,0,0,0,1-.78,2.13,2.13,0,0,0,.37-1.23A2.47,2.47,0,0,0,67,46.71a4,4,0,0,0-1.27.24L52.07,52.24a4.15,4.15,0,0,0-1.87,1.5A3.9,3.9,0,0,0,49.53,56a4,4,0,0,0,.67,2.3,3.89,3.89,0,0,0,1.87,1.43L65.72,65a3.75,3.75,0,0,0,1.27.25,2.48,2.48,0,0,0,1.83-.72,2.52,2.52,0,0,0,.72-1.86,2,2,0,0,0-.37-1.21A2.45,2.45,0,0,0,68.14,60.65ZM93,57.16H92V42.36a3.49,3.49,0,0,0-1.1-2.75,3.91,3.91,0,0,0-2.67-1,4.05,4.05,0,0,0-1.82.43A3.83,3.83,0,0,0,85,40.31L73.27,57a4.55,4.55,0,0,0-.91,2.71A3.14,3.14,0,0,0,73.22,62a3.1,3.1,0,0,0,2.34.9h9.15v1.4a3.65,3.65,0,0,0,1,2.79,3.74,3.74,0,0,0,2.64.94A3.81,3.81,0,0,0,91,67.09a3.62,3.62,0,0,0,1-2.79V62.9H93q3.55,0,3.56-2.91C96.51,58.11,95.32,57.16,93,57.16Zm-13.16,0,4.92-7.09v7.09Z"/></svg>