<svg id="Layer_1" data-name="Layer 1" xmlns="http://www.w3.org/2000/svg" viewBox="0 0 100 100"><defs><style>.cls-1{fill:#020202;}</style></defs><title>s16_1</title><path class="cls-1" d="M84.45,100h-69A15.4,15.4,0,0,1,0,84.61v-69A15.4,15.4,0,0,1,15.44.2h69A15.4,15.4,0,0,1,99.84,15.6v69A15.4,15.4,0,0,1,84.45,100ZM27.83,47.09a10.32,10.32,0,0,0-4.06.74v-5h8.86q3.57,0,3.57-2.87t-3.57-2.83H19.92a3.49,3.49,0,0,0-2.58.9,3.57,3.57,0,0,0-.9,2.63V51.73a2.25,2.25,0,0,0,.78,1.78,2.82,2.82,0,0,0,1.92.68A4,4,0,0,0,21,53.74,13.39,13.39,0,0,1,23.34,53a11,11,0,0,1,2.24-.21,4.61,4.61,0,0,1,3.2,1,3.66,3.66,0,0,1,1.15,2.87,3.56,3.56,0,0,1-1.11,2.89,5.28,5.28,0,0,1-3.41.92,6.71,6.71,0,0,1-2.27-.37,21.46,21.46,0,0,1-2.32-1L20,58.74a11.67,11.67,0,0,0-1.23-.62,2.73,2.73,0,0,0-1-.16,2.09,2.09,0,0,0-1.72.88,3.35,3.35,0,0,0-.7,2.15,3,3,0,0,0,.31,1.42,3.51,3.51,0,0,0,1,1.12,13.37,13.37,0,0,0,4.2,2,16.88,16.88,0,0,0,5,.74,13.33,13.33,0,0,0,5.87-1.23,9.26,9.26,0,0,0,3.93-3.48A9.72,9.72,0,0,0,37,56.4a9.87,9.87,0,0,0-1.17-4.86,8.31,8.31,0,0,0-3.24-3.28A9.46,9.46,0,0,0,27.83,47.09ZM59,58.86,46.86,54.19,59,49.51a2.08,2.08,0,0,0,1-.78,2.06,2.06,0,0,0,.37-1.23,2.52,2.52,0,0,0-.72-1.86,2.47,2.47,0,0,0-1.82-.72,3.66,3.66,0,0,0-1.27.25L43,50.46A4,4,0,0,0,41.1,52a4.11,4.11,0,0,0,0,4.53A3.83,3.83,0,0,0,43,57.92l13.66,5.29a3.88,3.88,0,0,0,1.27.24,2.47,2.47,0,0,0,1.82-.72,2.5,2.5,0,0,0,.72-1.86,2,2,0,0,0-.37-1.21A2.45,2.45,0,0,0,59,58.86ZM77.48,47a7.83,7.83,0,0,0-3.46.76A6.43,6.43,0,0,0,71.5,49.8,10.75,10.75,0,0,1,73,44.45a3.92,3.92,0,0,1,3.38-1.91,5.43,5.43,0,0,1,1.88.33c.6.22,1.36.55,2.26,1l.9.46c.52.27.93.47,1.23.59a2.74,2.74,0,0,0,1,.18,2.17,2.17,0,0,0,1.74-.88,3.27,3.27,0,0,0,.72-2.15,3.06,3.06,0,0,0-.31-1.43,3.45,3.45,0,0,0-1-1.11,12.82,12.82,0,0,0-4.12-2,15.91,15.91,0,0,0-4.69-.74,11.12,11.12,0,0,0-6.38,1.84,12,12,0,0,0-4.22,5.27,19.89,19.89,0,0,0-1.5,8q0,7,3.16,10.74c2.11,2.52,5.08,3.77,8.94,3.77a10.55,10.55,0,0,0,5.21-1.27,9.1,9.1,0,0,0,3.58-3.54,10.93,10.93,0,0,0,.17-10,8.53,8.53,0,0,0-3.1-3.36A8.26,8.26,0,0,0,77.48,47ZM75.6,60.58a3.27,3.27,0,0,1-2.54-1.08,4.55,4.55,0,0,1,0-5.64,3.28,3.28,0,0,1,2.56-1.07,3.22,3.22,0,0,1,2.56,1.05,4.8,4.8,0,0,1,0,5.68A3.23,3.23,0,0,1,75.6,60.58Z"/></svg>