<svg id="Layer_1" data-name="Layer 1" xmlns="http://www.w3.org/2000/svg" viewBox="0 0 100 100"><defs><style>.cls-1{fill:#020202;}</style></defs><title>l16_3_1</title><path class="cls-1" d="M85.79,100H14.21A14.21,14.21,0,0,1,0,85.79V14.21A14.21,14.21,0,0,1,14.21,0H85.79A14.21,14.21,0,0,1,100,14.21V85.79A14.21,14.21,0,0,1,85.79,100ZM22.93,60.67H35.15a5.91,5.91,0,0,0,4.06-1.2,4.27,4.27,0,0,0,1.33-3.35,4.16,4.16,0,0,0-1.33-3.31,6,6,0,0,0-4.06-1.17H22.93q-5.4,0-5.4,4.48C17.53,59.16,19.33,60.67,22.93,60.67Zm53.88,3.45H71.48V33.31a5.66,5.66,0,0,0-1.59-4.23,5.73,5.73,0,0,0-4.19-1.56,11.06,11.06,0,0,0-5.4,1.63l-10.4,6a4.43,4.43,0,0,0-2.27,4,5.46,5.46,0,0,0,1.3,3.55,3.89,3.89,0,0,0,3.12,1.59,4.43,4.43,0,0,0,2.27-.65l5.2-3.06V64.12H54.26A6.51,6.51,0,0,0,50,65.29,4.37,4.37,0,0,0,48.6,68.8q0,4.82,5.66,4.81H76.81q5.66,0,5.66-4.81a4.37,4.37,0,0,0-1.37-3.51A6.51,6.51,0,0,0,76.81,64.12Z"/></svg>