<svg id="Layer_1" data-name="Layer 1" xmlns="http://www.w3.org/2000/svg" viewBox="0 0 100 100"><defs><style>.cls-1{fill:#020202;}</style></defs><title>l16_5_1</title><path class="cls-1" d="M86.13,100H14.55A14.21,14.21,0,0,1,.34,85.79V14.21A14.21,14.21,0,0,1,14.55,0H86.13a14.21,14.21,0,0,1,14.21,14.21V85.79A14.21,14.21,0,0,1,86.13,100ZM30.3,79.61h17a37.87,37.87,0,0,0,17-3.53,24.67,24.67,0,0,0,10.84-10.2A32.14,32.14,0,0,0,78.86,50a31.36,31.36,0,0,0-3.78-15.79A25.24,25.24,0,0,0,64.2,24a37.32,37.32,0,0,0-16.93-3.57h-17A7.17,7.17,0,0,0,25,22.24a7.16,7.16,0,0,0-1.85,5.29V72.47A7.16,7.16,0,0,0,25,77.76,7.17,7.17,0,0,0,30.3,79.61Zm8.32-12.43V32.82h7.56q8.66,0,13,4.2T63.48,50q0,8.73-4.32,13t-13,4.24Z"/></svg>