<svg id="Layer_1" data-name="Layer 1" xmlns="http://www.w3.org/2000/svg" viewBox="0 0 100 100"><defs><style>.cls-1{fill:#020202;}</style></defs><title>l16_4_1</title><path class="cls-1" d="M85.51,100H13.92A14.21,14.21,0,0,1-.29,85.79V14.2A14.21,14.21,0,0,1,13.92,0H85.51a14.2,14.2,0,0,1,14.2,14.2V85.79A14.21,14.21,0,0,1,85.51,100ZM31.22,63.09l-6.68-6.41,5.88-5.82a4.28,4.28,0,0,0,1.4-3.07,4.13,4.13,0,0,0-1.32-3,4.18,4.18,0,0,0-6.17.08L14.36,55V36.75A4.08,4.08,0,0,0,13,33.41a5.19,5.19,0,0,0-3.42-1.14,5.2,5.2,0,0,0-3.43,1.14,4.08,4.08,0,0,0-1.37,3.34V66.32a4.08,4.08,0,0,0,1.37,3.34,5.19,5.19,0,0,0,3.43,1.13A5.18,5.18,0,0,0,13,69.66a4.08,4.08,0,0,0,1.37-3.34V59.05L25.3,69.45a4.53,4.53,0,0,0,3,1.34,4,4,0,0,0,3.05-1.4,4.61,4.61,0,0,0,1.26-3.18A4.19,4.19,0,0,0,31.22,63.09ZM69.85,43.37a10.26,10.26,0,0,0-5.12,1.27,9.8,9.8,0,0,0-3.61,3.42q-1.93-4.7-7.7-4.69-5.45,0-8.08,4A3.6,3.6,0,0,0,44,44.48a4.93,4.93,0,0,0-3.15-1,5.45,5.45,0,0,0-3.42,1.1A3.8,3.8,0,0,0,36,47.79V66.43a4,4,0,0,0,1.37,3.31,5.82,5.82,0,0,0,6.84,0,4,4,0,0,0,1.38-3.31V55.76a5.64,5.64,0,0,1,1.1-3.71,3.66,3.66,0,0,1,3-1.35,2.79,2.79,0,0,1,2.21.86,4.66,4.66,0,0,1,.75,3V66.43A4,4,0,0,0,54,69.74a5.87,5.87,0,0,0,6.87,0,4,4,0,0,0,1.34-3.31V55.76a5.59,5.59,0,0,1,1.13-3.71,3.75,3.75,0,0,1,3-1.35,2.79,2.79,0,0,1,2.21.86,4.66,4.66,0,0,1,.75,3V66.43a4,4,0,0,0,1.38,3.31,5.82,5.82,0,0,0,6.84,0A4,4,0,0,0,79,66.43V54.79q0-6.19-2.37-8.8A8.59,8.59,0,0,0,69.85,43.37Zm21.79-11a5.51,5.51,0,0,0,2.69-2,5.66,5.66,0,0,0,1-3.26,5.88,5.88,0,0,0-1-3.45,6.65,6.65,0,0,0-2.94-2.3,11.19,11.19,0,0,0-4.41-.81,13.46,13.46,0,0,0-4,.61,11.1,11.1,0,0,0-3.43,1.69,2.7,2.7,0,0,0-.81.91,2.58,2.58,0,0,0-.24,1.18A2.82,2.82,0,0,0,79,26.65a1.74,1.74,0,0,0,1.42.72,2.24,2.24,0,0,0,.84-.15,10.66,10.66,0,0,0,1-.49l.71-.34a19,19,0,0,1,1.84-.81,5.14,5.14,0,0,1,1.77-.3,2.94,2.94,0,0,1,2.07.69,2.54,2.54,0,0,1,.74,1.94,1.89,1.89,0,0,1-.85,1.73,5.16,5.16,0,0,1-2.7.54H84.37a2,2,0,0,0-1.59.71,2.79,2.79,0,0,0,0,3.38,2,2,0,0,0,1.59.71h2.1a5.11,5.11,0,0,1,2.77.57,2.15,2.15,0,0,1,.85,1.9,2.34,2.34,0,0,1-.83,2,4.65,4.65,0,0,1-2.72.61,6.25,6.25,0,0,1-2-.28A16.78,16.78,0,0,1,82.65,39l-.42-.19a2.44,2.44,0,0,1-.32-.15,10.66,10.66,0,0,0-1-.49,2.24,2.24,0,0,0-.84-.15,1.74,1.74,0,0,0-1.42.72,2.76,2.76,0,0,0-.58,1.78,2.66,2.66,0,0,0,.24,1.17,2.73,2.73,0,0,0,.81.92,10.59,10.59,0,0,0,3.52,1.71,14.79,14.79,0,0,0,4.22.59,12.69,12.69,0,0,0,4.78-.82,7.14,7.14,0,0,0,3.16-2.35,5.88,5.88,0,0,0,1.12-3.59,6,6,0,0,0-1.13-3.68A5.79,5.79,0,0,0,91.64,32.34Z"/></svg>