<svg id="Layer_1" data-name="Layer 1" xmlns="http://www.w3.org/2000/svg" viewBox="0 0 100 100"><defs><style>.cls-1{fill:#020202;}</style></defs><title>l16_2_1</title><path class="cls-1" d="M86,100.51H14.41A14.21,14.21,0,0,1,.21,86.3V14.71A14.2,14.2,0,0,1,14.41.51H86a14.21,14.21,0,0,1,14.21,14.2V86.3A14.21,14.21,0,0,1,86,100.51ZM60.11,32h-4V8.77a4.28,4.28,0,0,0-1.2-3.19,4.33,4.33,0,0,0-3.16-1.17,8.34,8.34,0,0,0-4.07,1.22l-7.84,4.56a3.33,3.33,0,0,0-1.71,3,4.08,4.08,0,0,0,1,2.67,2.93,2.93,0,0,0,2.35,1.2,3.37,3.37,0,0,0,1.71-.49l3.92-2.31V32h-4a4.89,4.89,0,0,0-3.23.89,3.27,3.27,0,0,0-1,2.64q0,3.63,4.26,3.63h17q4.26,0,4.26-3.63a3.27,3.27,0,0,0-1-2.64A4.87,4.87,0,0,0,60.11,32ZM52.39,69.81a9.37,9.37,0,0,0-4.14.91,7.74,7.74,0,0,0-3,2.47,13.06,13.06,0,0,1,1.83-6.39,4.7,4.7,0,0,1,4-2.28,6.57,6.57,0,0,1,2.25.39,27.71,27.71,0,0,1,2.7,1.18l1.07.54c.62.32,1.11.56,1.47.71a3.37,3.37,0,0,0,1.23.22,2.59,2.59,0,0,0,2.08-1.06,4,4,0,0,0,.86-2.57,3.56,3.56,0,0,0-.37-1.72,4.39,4.39,0,0,0-1.2-1.32,15.75,15.75,0,0,0-4.92-2.45,19.05,19.05,0,0,0-5.62-.88,13.25,13.25,0,0,0-7.61,2.21A14.12,14.12,0,0,0,38,66.06a23.8,23.8,0,0,0-1.79,9.58Q36.22,84,40,88.48T50.67,93a12.69,12.69,0,0,0,6.23-1.52,10.93,10.93,0,0,0,4.29-4.24,13.11,13.11,0,0,0,.19-12,10.1,10.1,0,0,0-3.7-4A9.85,9.85,0,0,0,52.39,69.81ZM50.14,86.08a3.88,3.88,0,0,1-3-1.3,4.79,4.79,0,0,1-1.18-3.36A4.89,4.89,0,0,1,47.07,78a3.93,3.93,0,0,1,3.07-1.27A3.86,3.86,0,0,1,53.2,78a5,5,0,0,1,1.1,3.4,4.91,4.91,0,0,1-1.13,3.38A3.84,3.84,0,0,1,50.14,86.08ZM73.2,47.55h0a3.64,3.64,0,0,0-3.65-3.65H29.88a3.64,3.64,0,0,0-3.64,3.65h0a3.64,3.64,0,0,0,3.64,3.64H69.55A3.64,3.64,0,0,0,73.2,47.55Z"/></svg>