<svg id="Layer_1" data-name="Layer 1" xmlns="http://www.w3.org/2000/svg" viewBox="0 0 100 100"><defs><style>.cls-1{fill:#020202;}</style></defs><title>l16_4_1</title><path class="cls-1" d="M85.79,100H14.21A14.21,14.21,0,0,1,0,85.79V14.2A14.21,14.21,0,0,1,14.21,0H85.79A14.21,14.21,0,0,1,100,14.2V85.79A14.21,14.21,0,0,1,85.79,100Zm-49-62.14a15.35,15.35,0,0,0-6.37,1.28,12.22,12.22,0,0,0-4.74,3.75V28.73a5,5,0,0,0-1.7-4,6.53,6.53,0,0,0-4.46-1.49,6.71,6.71,0,0,0-4.67,1.59,5.24,5.24,0,0,0-1.77,4.07V68.16a5.45,5.45,0,0,0,1.7,4.25A6.52,6.52,0,0,0,19.35,74,6.54,6.54,0,0,0,24,72.41a5.48,5.48,0,0,0,1.7-4.25v-14a6.86,6.86,0,0,1,1.66-4.85,5.8,5.8,0,0,1,4.5-1.81c2.92,0,4.39,1.7,4.39,5.1V68.16a5.48,5.48,0,0,0,1.69,4.25A6.57,6.57,0,0,0,42.5,74a6.54,6.54,0,0,0,4.6-1.56,5.48,5.48,0,0,0,1.7-4.25V52.87q0-7.57-3-11.29T36.76,37.86Zm35.33,0a36.23,36.23,0,0,0-7.37.78A24.6,24.6,0,0,0,58.5,40.7a5.57,5.57,0,0,0-2.06,1.77A4.67,4.67,0,0,0,55.8,45a5,5,0,0,0,1.07,3.33,3.49,3.49,0,0,0,2.83,1.28,8.68,8.68,0,0,0,2.76-.57,28.17,28.17,0,0,1,8.49-2,5.43,5.43,0,0,1,3.83,1.09,4.86,4.86,0,0,1,1.13,3.58v.85H74a52.64,52.64,0,0,0-11.47,1,11.37,11.37,0,0,0-6.19,3.22,8.77,8.77,0,0,0-2,6,10.54,10.54,0,0,0,1.66,5.84,11.29,11.29,0,0,0,4.57,4,14.29,14.29,0,0,0,6.51,1.45,10.51,10.51,0,0,0,5.59-1.42,7.8,7.8,0,0,0,3.33-4,5.29,5.29,0,0,0,1.74,3.82A5.85,5.85,0,0,0,81.86,74a6.16,6.16,0,0,0,4.42-1.52,5.57,5.57,0,0,0,1.59-4.22V53.44q0-7.86-3.85-11.72T72.09,37.86Zm-2,27.83a3.52,3.52,0,0,1-2.65-1.07,3.71,3.71,0,0,1-1-2.69,2.79,2.79,0,0,1,1.92-2.72,18,18,0,0,1,6.44-.82h1.13v.85a6.64,6.64,0,0,1-1.63,4.64A5.38,5.38,0,0,1,70.1,65.69Z"/></svg>