<svg id="Layer_1" data-name="Layer 1" xmlns="http://www.w3.org/2000/svg" viewBox="0 0 100 100"><defs><style>.cls-1{fill:#020202;}</style></defs><title>l16_2_1</title><path class="cls-1" d="M86.29,100.51H14.7A14.21,14.21,0,0,1,.49,86.3V14.71A14.21,14.21,0,0,1,14.7.51H86.29a14.2,14.2,0,0,1,14.2,14.2V86.3A14.21,14.21,0,0,1,86.29,100.51ZM60.4,32h-4V8.77a4.28,4.28,0,0,0-1.2-3.19A4.34,4.34,0,0,0,52,4.41,8.34,8.34,0,0,0,48,5.63l-7.84,4.56a3.33,3.33,0,0,0-1.72,3,4.14,4.14,0,0,0,1,2.67,3,3,0,0,0,2.36,1.2,3.4,3.4,0,0,0,1.71-.49l3.92-2.31V32h-4a4.87,4.87,0,0,0-3.23.89,3.27,3.27,0,0,0-1,2.64q0,3.63,4.26,3.63h17q4.26,0,4.26-3.63a3.3,3.3,0,0,0-1-2.64A4.91,4.91,0,0,0,60.4,32Zm-.76,26H40.43a4.8,4.8,0,0,0-3.24.91,3.45,3.45,0,0,0-1,2.72,3.32,3.32,0,0,0,1,2.64,4.87,4.87,0,0,0,3.26.88H52.68L40.08,86.67A4.66,4.66,0,0,0,39.4,89a3.61,3.61,0,0,0,1.32,2.82,4.54,4.54,0,0,0,3,1.15,4.15,4.15,0,0,0,2.08-.57,4.5,4.5,0,0,0,1.69-1.74L62.38,65a6.26,6.26,0,0,0,.93-3.23,3.85,3.85,0,0,0-1-2.68A3.47,3.47,0,0,0,59.64,58ZM73.49,47.55h0a3.64,3.64,0,0,0-3.65-3.65H30.17a3.64,3.64,0,0,0-3.64,3.65h0a3.64,3.64,0,0,0,3.64,3.64H69.84A3.64,3.64,0,0,0,73.49,47.55Z"/></svg>