<svg id="Layer_1" data-name="Layer 1" xmlns="http://www.w3.org/2000/svg" viewBox="0 0 100 100"><defs><style>.cls-1{fill:#020202;}</style></defs><title>l16_4_1</title><path class="cls-1" d="M86.68,100H15.09A14.21,14.21,0,0,1,.89,85.79V14.21A14.21,14.21,0,0,1,15.09,0H86.68a14.21,14.21,0,0,1,14.21,14.21V85.79A14.21,14.21,0,0,1,86.68,100ZM24.59,68.12a20.23,20.23,0,0,0,10.75-2.69,3.53,3.53,0,0,0,1.41-1.5,4.76,4.76,0,0,0,.51-2.21,5.26,5.26,0,0,0-.93-3.23,2.85,2.85,0,0,0-2.4-1.25,5.24,5.24,0,0,0-1.76.29c-.53.19-1.22.48-2.08.86a13.93,13.93,0,0,1-2.08.87,6.78,6.78,0,0,1-2,.28,5.72,5.72,0,0,1-4.71-2,9.17,9.17,0,0,1-1.63-5.86q0-7.74,6.34-7.74a6.23,6.23,0,0,1,2,.29,22.3,22.3,0,0,1,2.18.86,12.26,12.26,0,0,0,2,.86,5.83,5.83,0,0,0,1.86.29A2.85,2.85,0,0,0,36.4,45a5.24,5.24,0,0,0,.93-3.23,4,4,0,0,0-2-3.71,17,17,0,0,0-4.73-2,21.21,21.21,0,0,0-5.38-.71,19.24,19.24,0,0,0-9,2,14.75,14.75,0,0,0-6.11,5.83A17.08,17.08,0,0,0,8,51.93q0,7.49,4.48,11.84T24.59,68.12Zm57-32.77a12.12,12.12,0,0,0-6.07,1.51,11.54,11.54,0,0,0-4.29,4.06q-2.31-5.56-9.16-5.57c-4.3,0-7.51,1.58-9.59,4.74a4.29,4.29,0,0,0-1.57-3.42,5.88,5.88,0,0,0-3.75-1.19,6.46,6.46,0,0,0-4.06,1.31,4.54,4.54,0,0,0-1.7,3.81V62.75a4.75,4.75,0,0,0,1.63,3.93,7,7,0,0,0,8.13,0,4.72,4.72,0,0,0,1.63-3.93V50.07a6.73,6.73,0,0,1,1.32-4.41,4.32,4.32,0,0,1,3.55-1.6,3.29,3.29,0,0,1,2.62,1,5.49,5.49,0,0,1,.9,3.59V62.75a4.72,4.72,0,0,0,1.63,3.93,7,7,0,0,0,8.16,0,4.76,4.76,0,0,0,1.6-3.93V50.07a6.67,6.67,0,0,1,1.34-4.41,4.44,4.44,0,0,1,3.59-1.6,3.3,3.3,0,0,1,2.62,1,5.49,5.49,0,0,1,.9,3.59V62.75a4.72,4.72,0,0,0,1.63,3.93,7,7,0,0,0,8.13,0,4.72,4.72,0,0,0,1.63-3.93V48.92q0-7.37-2.82-10.46T81.61,35.35Z"/></svg>