<svg id="Layer_1" data-name="Layer 1" xmlns="http://www.w3.org/2000/svg" viewBox="0 0 100 100"><defs><style>.cls-1{fill:#020202;}</style></defs><title>l16_4_1</title><path class="cls-1" d="M86,100H14.45A14.21,14.21,0,0,1,.24,85.79V14.2A14.21,14.21,0,0,1,14.45,0H86a14.21,14.21,0,0,1,14.21,14.2V85.79A14.21,14.21,0,0,1,86,100ZM31.75,63.09l-6.68-6.41,5.87-5.82a4.28,4.28,0,0,0,1.4-3.07,4.13,4.13,0,0,0-1.32-3,4.17,4.17,0,0,0-3-1.32,4.23,4.23,0,0,0-3.13,1.4L14.89,55V36.75a4.05,4.05,0,0,0-1.38-3.34,5.15,5.15,0,0,0-3.42-1.14,5.19,5.19,0,0,0-3.42,1.14A4,4,0,0,0,5.3,36.75V66.32a4,4,0,0,0,1.37,3.34,5.18,5.18,0,0,0,3.42,1.13,5.15,5.15,0,0,0,3.42-1.13,4.05,4.05,0,0,0,1.38-3.34V59.05l10.93,10.4a4.55,4.55,0,0,0,3,1.34,3.93,3.93,0,0,0,3-1.4,4.58,4.58,0,0,0,1.27-3.18A4.23,4.23,0,0,0,31.75,63.09ZM70.37,43.37a10.22,10.22,0,0,0-5.11,1.27,9.72,9.72,0,0,0-3.61,3.42c-1.3-3.13-3.86-4.69-7.71-4.69q-5.43,0-8.08,4a3.54,3.54,0,0,0-1.32-2.88,4.89,4.89,0,0,0-3.15-1A5.45,5.45,0,0,0,38,44.58a3.83,3.83,0,0,0-1.43,3.21V66.43a4,4,0,0,0,1.38,3.31,5.82,5.82,0,0,0,6.84,0,4,4,0,0,0,1.37-3.31V55.76a5.64,5.64,0,0,1,1.11-3.71,3.65,3.65,0,0,1,3-1.35,2.8,2.8,0,0,1,2.21.86,4.66,4.66,0,0,1,.75,3V66.43a4,4,0,0,0,1.37,3.31,5.87,5.87,0,0,0,6.87,0,4,4,0,0,0,1.35-3.31V55.76a5.59,5.59,0,0,1,1.13-3.71,3.73,3.73,0,0,1,3-1.35,2.8,2.8,0,0,1,2.21.86,4.66,4.66,0,0,1,.75,3V66.43a4,4,0,0,0,1.37,3.31,5.84,5.84,0,0,0,6.85,0,4,4,0,0,0,1.37-3.31V54.79q0-6.19-2.37-8.8A8.62,8.62,0,0,0,70.37,43.37Zm23.77-3.69H87.35l4.8-4.9A15.77,15.77,0,0,0,95,31a8.51,8.51,0,0,0,.83-3.77,6.2,6.2,0,0,0-1-3.53,6.62,6.62,0,0,0-2.92-2.36,10.79,10.79,0,0,0-4.4-.83A13.81,13.81,0,0,0,80,22.78a2.21,2.21,0,0,0-.83.88,3,3,0,0,0-.22,1.21,2.88,2.88,0,0,0,.58,1.81,1.7,1.7,0,0,0,1.42.76,2,2,0,0,0,.64-.1,4.05,4.05,0,0,0,.69-.32l.53-.29.67-.34a16.07,16.07,0,0,1,1.91-.82,5.29,5.29,0,0,1,1.81-.29,2.66,2.66,0,0,1,1.88.61,2.25,2.25,0,0,1,.66,1.75q0,2-2.24,4.3l-7.16,7.47A3.69,3.69,0,0,0,79.17,42a2.46,2.46,0,0,0,2.64,2.57H94.14A3.38,3.38,0,0,0,96.36,44a2.32,2.32,0,0,0,.72-1.89,2.24,2.24,0,0,0-.72-1.84A3.5,3.5,0,0,0,94.14,39.68Z"/></svg>