<svg id="Layer_1" data-name="Layer 1" xmlns="http://www.w3.org/2000/svg" viewBox="0 0 100 100"><defs><style>.cls-1{fill:#020202;}</style></defs><title>l16_2_1</title><path class="cls-1" d="M86.06,100H14.47A14.21,14.21,0,0,1,.27,85.79V14.21A14.21,14.21,0,0,1,14.47,0H86.06a14.21,14.21,0,0,1,14.21,14.21V85.79A14.21,14.21,0,0,1,86.06,100ZM23.58,72.16q8,0,12.2-5.68T40,50.08q0-10.68-4.24-16.35T23.58,28.05q-8,0-12.2,5.68T7.17,50.08q0,10.72,4.21,16.4T23.58,72.16Zm0-8.48q-2.92,0-4.21-3.17c-.85-2.12-1.28-5.59-1.28-10.43s.43-8.31,1.28-10.4,2.26-3.15,4.21-3.15,3.36,1.06,4.21,3.18,1.28,5.57,1.28,10.37-.42,8.31-1.28,10.43S25.53,63.68,23.58,63.68ZM50.18,72a5.62,5.62,0,0,0,4.18-1.71,6.14,6.14,0,0,0,0-8.42,5.62,5.62,0,0,0-4.18-1.71,5.69,5.69,0,0,0-4.24,1.71,6.12,6.12,0,0,0,0,8.42A5.69,5.69,0,0,0,50.18,72ZM89.1,28.6H65.18a6,6,0,0,0-4,1.13,4.27,4.27,0,0,0-1.28,3.39,4.12,4.12,0,0,0,1.25,3.29,6.07,6.07,0,0,0,4.05,1.1H80.43L64.76,64.29a5.75,5.75,0,0,0-.86,2.93,4.46,4.46,0,0,0,1.65,3.5,5.58,5.58,0,0,0,3.78,1.44,5.28,5.28,0,0,0,2.59-.7A5.65,5.65,0,0,0,74,69.29l18.48-32a7.86,7.86,0,0,0,1.16-4,4.76,4.76,0,0,0-1.19-3.32A4.31,4.31,0,0,0,89.1,28.6Z"/></svg>