<svg id="Layer_1" data-name="Layer 1" xmlns="http://www.w3.org/2000/svg" viewBox="0 0 100 100"><defs><style>.cls-1{fill:#020202;}</style></defs><title>l16_2_1</title><path class="cls-1" d="M86.09,100.51H14.51A14.21,14.21,0,0,1,.3,86.3V14.71A14.21,14.21,0,0,1,14.51.51H86.09a14.21,14.21,0,0,1,14.21,14.2V86.3A14.21,14.21,0,0,1,86.09,100.51ZM60.2,32h-4V8.77A4.28,4.28,0,0,0,55,5.58a4.33,4.33,0,0,0-3.16-1.17,8.37,8.37,0,0,0-4.07,1.22l-7.84,4.56a3.33,3.33,0,0,0-1.71,3,4.08,4.08,0,0,0,1,2.67,3,3,0,0,0,2.35,1.2,3.37,3.37,0,0,0,1.71-.49l3.92-2.31V32h-4a4.92,4.92,0,0,0-3.24.89,3.3,3.3,0,0,0-1,2.64q0,3.63,4.27,3.63h17q4.26,0,4.26-3.63a3.27,3.27,0,0,0-1-2.64A4.87,4.87,0,0,0,60.2,32ZM57,74.76a7.43,7.43,0,0,0,3.85-2.89A8.53,8.53,0,0,0,62.23,67a8.12,8.12,0,0,0-3.4-6.89q-3.4-2.52-9.29-2.52c-3.89,0-7,.84-9.26,2.52A8.1,8.1,0,0,0,36.85,67a8.39,8.39,0,0,0,1.37,4.78,8.09,8.09,0,0,0,3.92,3,8.14,8.14,0,0,0-4.6,2.91A8.64,8.64,0,0,0,35.92,83a8.48,8.48,0,0,0,3.65,7.28q3.65,2.61,10,2.62t10-2.62A8.46,8.46,0,0,0,63.16,83,8,8,0,0,0,57,74.76ZM49.54,86.13q-5.34,0-5.34-3.83c0-2.54,1.78-3.82,5.34-3.82s5.34,1.28,5.34,3.82S53.1,86.13,49.54,86.13Zm0-21.76a5.26,5.26,0,0,1,3.29.86A3.34,3.34,0,0,1,53.9,68a3.43,3.43,0,0,1-1.07,2.79,5.13,5.13,0,0,1-3.29.88,5.1,5.1,0,0,1-3.28-.88A3.4,3.4,0,0,1,45.18,68a3.32,3.32,0,0,1,1.08-2.77A5.23,5.23,0,0,1,49.54,64.37ZM73.29,47.55h0a3.64,3.64,0,0,0-3.64-3.65H30a3.64,3.64,0,0,0-3.65,3.65h0A3.64,3.64,0,0,0,30,51.19H69.65A3.64,3.64,0,0,0,73.29,47.55Z"/></svg>