<svg id="Layer_1" data-name="Layer 1" xmlns="http://www.w3.org/2000/svg" viewBox="0 0 100 100"><defs><style>.cls-1{fill:#020202;}</style></defs><title>l16_5_1</title><path class="cls-1" d="M85.79,100H14.21A14.21,14.21,0,0,1,0,85.79V14.21A14.21,14.21,0,0,1,14.21,0H85.79A14.21,14.21,0,0,1,100,14.21V85.79A14.21,14.21,0,0,1,85.79,100ZM72.51,20q-4.45,0-7.06,5L50.08,54.07,34.62,25a10.22,10.22,0,0,0-3.1-3.74A7,7,0,0,0,27.4,20a7,7,0,0,0-5.25,2.1,7.48,7.48,0,0,0-2.06,5.46v45.7a6.71,6.71,0,0,0,1.89,5,6.59,6.59,0,0,0,4.83,1.85,6.66,6.66,0,0,0,4.92-1.89,6.74,6.74,0,0,0,1.89-5V49l9.49,17.14a10.9,10.9,0,0,0,3,3.82,6.89,6.89,0,0,0,7.56,0,11,11,0,0,0,3-3.82l9.57-17.64v24.7a6.71,6.71,0,0,0,1.89,5,7.28,7.28,0,0,0,9.7,0,6.8,6.8,0,0,0,1.85-5V27.53a7.57,7.57,0,0,0-2-5.46A6.91,6.91,0,0,0,72.51,20Z"/></svg>