<svg id="Layer_1" data-name="Layer 1" xmlns="http://www.w3.org/2000/svg" viewBox="0 0 100 100"><defs><style>.cls-1{fill:#020202;}</style></defs><title>l16_2_1</title><path class="cls-1" d="M85.86,100.53H14.27A14.21,14.21,0,0,1,.06,86.32V14.73A14.21,14.21,0,0,1,14.27.53H85.86a14.2,14.2,0,0,1,14.2,14.2V86.32A14.21,14.21,0,0,1,85.86,100.53ZM60,32H56V8.79a4.28,4.28,0,0,0-1.2-3.19,4.34,4.34,0,0,0-3.16-1.17,8.34,8.34,0,0,0-4.07,1.22l-7.84,4.56a3.34,3.34,0,0,0-1.72,3,4.14,4.14,0,0,0,1,2.67,3,3,0,0,0,2.36,1.2A3.3,3.3,0,0,0,43,16.63l3.92-2.3V32H43a4.87,4.87,0,0,0-3.23.88,3.28,3.28,0,0,0-1,2.64q0,3.63,4.26,3.63H60q4.26,0,4.26-3.63a3.28,3.28,0,0,0-1-2.64A4.91,4.91,0,0,0,60,32ZM45,85.41H41V62.19A4.28,4.28,0,0,0,39.78,59a4.34,4.34,0,0,0-3.16-1.17,8.34,8.34,0,0,0-4.07,1.22l-7.84,4.56a3.33,3.33,0,0,0-1.71,3,4.08,4.08,0,0,0,1,2.67,2.93,2.93,0,0,0,2.35,1.2A3.37,3.37,0,0,0,28,70L32,67.73V85.41H28a4.89,4.89,0,0,0-3.23.89,3.27,3.27,0,0,0-1,2.64q0,3.63,4.26,3.63H45q4.26,0,4.26-3.63a3.27,3.27,0,0,0-1-2.64A4.89,4.89,0,0,0,45,85.41ZM64,93q6.42,0,9.8-4.56t3.38-13.18q0-8.58-3.41-13.13T64,57.58q-6.42,0-9.8,4.56T50.83,75.27q0,8.63,3.38,13.18T64,93Zm0-6.81a3.5,3.5,0,0,1-3.38-2.55q-1-2.55-1-8.38t1-8.35a3.52,3.52,0,0,1,6.76,0c.68,1.7,1,4.48,1,8.33s-.35,6.68-1,8.38A3.51,3.51,0,0,1,64,86.2Zm9-38.63h0a3.64,3.64,0,0,0-3.65-3.65H29.74a3.64,3.64,0,0,0-3.64,3.65h0a3.64,3.64,0,0,0,3.64,3.64H69.41A3.64,3.64,0,0,0,73.06,47.57Z"/></svg>