<svg id="Layer_1" data-name="Layer 1" xmlns="http://www.w3.org/2000/svg" viewBox="0 0 100 100"><defs><style>.cls-1{fill:#020202;}</style></defs><title>l16_2_1</title><path class="cls-1" d="M86.15,100.53H14.56A14.21,14.21,0,0,1,.35,86.32V14.73A14.21,14.21,0,0,1,14.56.53H86.15a14.2,14.2,0,0,1,14.2,14.2V86.32A14.21,14.21,0,0,1,86.15,100.53ZM60.25,32h-4V8.79A4.28,4.28,0,0,0,55,5.6a4.33,4.33,0,0,0-3.16-1.17,8.31,8.31,0,0,0-4.06,1.22L40,10.21a3.33,3.33,0,0,0-1.72,3,4.14,4.14,0,0,0,1,2.67,3,3,0,0,0,2.35,1.2,3.33,3.33,0,0,0,1.72-.49l3.92-2.3V32h-4A4.87,4.87,0,0,0,40,32.9a3.28,3.28,0,0,0-1,2.64q0,3.63,4.26,3.63h17c2.84,0,4.27-1.21,4.27-3.63a3.31,3.31,0,0,0-1-2.64A4.92,4.92,0,0,0,60.25,32Zm-15,53.39h-4V62.19A4.28,4.28,0,0,0,40,59a4.33,4.33,0,0,0-3.16-1.17,8.37,8.37,0,0,0-4.07,1.22L25,63.61a3.33,3.33,0,0,0-1.71,3,4.08,4.08,0,0,0,1,2.67,3,3,0,0,0,2.35,1.2A3.43,3.43,0,0,0,28.31,70l3.92-2.3V85.41h-4A4.92,4.92,0,0,0,25,86.3a3.3,3.3,0,0,0-1,2.64q0,3.63,4.27,3.63h17q4.26,0,4.26-3.63a3.27,3.27,0,0,0-1-2.64A4.87,4.87,0,0,0,45.26,85.41Zm28.13,0H63.54l6.95-7.1a23.27,23.27,0,0,0,4.1-5.51,12.36,12.36,0,0,0,1.2-5.47,9,9,0,0,0-1.5-5.12,9.62,9.62,0,0,0-4.24-3.43,15.77,15.77,0,0,0-6.37-1.2,19.93,19.93,0,0,0-10.83,3.33,3.41,3.41,0,0,0-1.2,1.28,4.69,4.69,0,0,0,.52,4.38,2.48,2.48,0,0,0,2.06,1.11,2.92,2.92,0,0,0,.93-.15,5.43,5.43,0,0,0,1-.47c.38-.21.63-.35.76-.41l1-.49A21.7,21.7,0,0,1,60.67,65a7.87,7.87,0,0,1,2.62-.42,3.85,3.85,0,0,1,2.72.88A3.3,3.3,0,0,1,67,68c0,1.89-1.08,4-3.24,6.22L53.34,85a5.38,5.38,0,0,0-1.66,3.82,3.59,3.59,0,0,0,3.82,3.73H73.39a5,5,0,0,0,3.2-.88,3.38,3.38,0,0,0,1.06-2.75,3.22,3.22,0,0,0-1.06-2.67A5,5,0,0,0,73.39,85.41Zm0-37.84h0a3.65,3.65,0,0,0-3.65-3.65H30a3.65,3.65,0,0,0-3.65,3.65h0A3.65,3.65,0,0,0,30,51.21H69.7A3.65,3.65,0,0,0,73.35,47.57Z"/></svg>