<svg id="Layer_1" data-name="Layer 1" xmlns="http://www.w3.org/2000/svg" viewBox="0 0 100 100"><defs><style>.cls-1{fill:#020202;}</style></defs><title>l16_4_1</title><path class="cls-1" d="M85.25,100H13.66A14.21,14.21,0,0,1-.55,85.79V14.2A14.21,14.21,0,0,1,13.66,0H85.25a14.2,14.2,0,0,1,14.2,14.2V85.79A14.21,14.21,0,0,1,85.25,100ZM60.59,38.43a13.7,13.7,0,0,0-6.83,1.69,13.19,13.19,0,0,0-4.82,4.56q-2.58-6.26-10.28-6.25-7.26,0-10.78,5.32a4.82,4.82,0,0,0-1.76-3.85,6.58,6.58,0,0,0-4.21-1.33A7.27,7.27,0,0,0,17.34,40a5.09,5.09,0,0,0-1.9,4.28V69.2a5.33,5.33,0,0,0,1.83,4.42,7.08,7.08,0,0,0,4.57,1.48,7.05,7.05,0,0,0,4.56-1.48,5.3,5.3,0,0,0,1.84-4.42V55a7.62,7.62,0,0,1,1.47-5,4.91,4.91,0,0,1,4-1.8,3.71,3.71,0,0,1,2.95,1.16c.67.76,1,2.11,1,4V69.2a5.33,5.33,0,0,0,1.83,4.42,7.05,7.05,0,0,0,4.56,1.48,7.06,7.06,0,0,0,4.61-1.48,5.39,5.39,0,0,0,1.79-4.42V55A7.52,7.52,0,0,1,52,50a5,5,0,0,1,4-1.8,3.71,3.71,0,0,1,2.95,1.16c.67.76,1,2.11,1,4V69.2a5.33,5.33,0,0,0,1.84,4.42,7.78,7.78,0,0,0,9.13,0,5.33,5.33,0,0,0,1.83-4.42V53.67q0-8.27-3.16-11.76T60.59,38.43ZM87.06,28a5.84,5.84,0,0,0,2.86-2.18,6,6,0,0,0,1-3.47,6.31,6.31,0,0,0-1.1-3.67,7.11,7.11,0,0,0-3.13-2.44A11.82,11.82,0,0,0,82,15.4a14.43,14.43,0,0,0-4.26.64,12.32,12.32,0,0,0-3.65,1.8,2.92,2.92,0,0,0-.86,1A2.8,2.8,0,0,0,73,20.07,3,3,0,0,0,73.62,22a1.87,1.87,0,0,0,1.51.77,2.36,2.36,0,0,0,.9-.16c.26-.11.62-.28,1.08-.52l.75-.36a17.88,17.88,0,0,1,2-.86,5.33,5.33,0,0,1,1.89-.33,3.1,3.1,0,0,1,2.19.74,2.68,2.68,0,0,1,.79,2.07,2,2,0,0,1-.9,1.83,5.54,5.54,0,0,1-2.87.57H79.33a2.07,2.07,0,0,0-1.69.76,2.95,2.95,0,0,0,0,3.59,2,2,0,0,0,1.69.76h2.23a5.39,5.39,0,0,1,3,.61,2.26,2.26,0,0,1,.9,2,2.49,2.49,0,0,1-.88,2.16,5,5,0,0,1-2.9.65,6.32,6.32,0,0,1-2.06-.31,15,15,0,0,1-2.07-.88l-.45-.2-.34-.16c-.46-.24-.82-.41-1.08-.52a2.29,2.29,0,0,0-.9-.16,1.87,1.87,0,0,0-1.51.77,3,3,0,0,0-.61,1.89,3,3,0,0,0,.25,1.24,2.83,2.83,0,0,0,.87,1,11.57,11.57,0,0,0,3.73,1.81,16,16,0,0,0,4.5.63A13.41,13.41,0,0,0,87,40.47,7.52,7.52,0,0,0,90.41,38a6.23,6.23,0,0,0,1.18-3.81,6.41,6.41,0,0,0-1.2-3.92A6.12,6.12,0,0,0,87.06,28Z"/></svg>