<svg id="Layer_1" data-name="Layer 1" xmlns="http://www.w3.org/2000/svg" viewBox="0 0 100 100"><defs><style>.cls-1{fill:#020202;}</style></defs><title>l16_4_1</title><path class="cls-1" d="M86.11,100H14.53A14.21,14.21,0,0,1,.32,85.8V14.21A14.21,14.21,0,0,1,14.53,0H86.11a14.21,14.21,0,0,1,14.21,14.21V85.8A14.21,14.21,0,0,1,86.11,100ZM70.73,46.18H56.87a6.1,6.1,0,0,0-4.29,1.39,5,5,0,0,0-1.51,3.9,5.08,5.08,0,0,0,1.51,3.91,6.15,6.15,0,0,0,4.29,1.38h6.05v11a38.35,38.35,0,0,1-8,.84q-8.4,0-12.48-4.58T38.39,50q0-9.24,3.9-13.69t11.89-4.45a22.27,22.27,0,0,1,5.92.75A28.63,28.63,0,0,1,65.94,35a17,17,0,0,0,2.48,1.3,6.35,6.35,0,0,0,2.31.38,4.25,4.25,0,0,0,3.44-1.81,6.89,6.89,0,0,0,1.43-4.41,6.36,6.36,0,0,0-.63-3,6.59,6.59,0,0,0-2.06-2.19A29.71,29.71,0,0,0,64.22,21a37.13,37.13,0,0,0-10.54-1.38,34.36,34.36,0,0,0-16.3,3.69A25.88,25.88,0,0,0,26.63,33.87,32.79,32.79,0,0,0,22.85,50a33.1,33.1,0,0,0,3.78,16.25,25.31,25.31,0,0,0,10.88,10.5,36.07,36.07,0,0,0,16.75,3.66,66.77,66.77,0,0,0,7.44-.46A54.72,54.72,0,0,0,69,78.6a14.61,14.61,0,0,0,4.92-2.18,6.47,6.47,0,0,0,2.27-3.49,24.91,24.91,0,0,0,.63-6.42V51.89a5.49,5.49,0,0,0-1.64-4.16A6.16,6.16,0,0,0,70.73,46.18Z"/></svg>