<svg id="Layer_1" data-name="Layer 1" xmlns="http://www.w3.org/2000/svg" viewBox="0 0 100 100"><defs><style>.cls-1{fill:#020202;}</style></defs><title>l16_2_1</title><path class="cls-1" d="M86,99.9H14.44A14.21,14.21,0,0,1,.23,85.69V14.11A14.21,14.21,0,0,1,14.44-.1H86a14.21,14.21,0,0,1,14.21,14.21V85.69A14.21,14.21,0,0,1,86,99.9ZM60.13,31.39h-4V8.16A4.24,4.24,0,0,0,54.91,5,4.29,4.29,0,0,0,51.75,3.8,8.29,8.29,0,0,0,47.68,5L39.84,9.58a3.34,3.34,0,0,0-1.71,3,4.08,4.08,0,0,0,1,2.67,2.93,2.93,0,0,0,2.35,1.2A3.27,3.27,0,0,0,43.17,16l3.92-2.3V31.39h-4a4.92,4.92,0,0,0-3.24.88,3.32,3.32,0,0,0-1,2.65q0,3.61,4.27,3.62h17q4.26,0,4.26-3.62a3.29,3.29,0,0,0-1-2.65A4.87,4.87,0,0,0,60.13,31.39ZM55.69,74.15a7.9,7.9,0,0,0,3.9-3A8.16,8.16,0,0,0,61,66.46a8.56,8.56,0,0,0-1.5-5,9.59,9.59,0,0,0-4.26-3.33A16.35,16.35,0,0,0,48.83,57a19.54,19.54,0,0,0-5.8.89,16.09,16.09,0,0,0-5,2.45,3.93,3.93,0,0,0-1.17,1.32,3.8,3.8,0,0,0-.34,1.71,4,4,0,0,0,.83,2.58,2.53,2.53,0,0,0,2.06,1,3.16,3.16,0,0,0,1.22-.22c.36-.15.85-.38,1.47-.71l1-.49a28,28,0,0,1,2.67-1.18,7.5,7.5,0,0,1,2.57-.44,4.21,4.21,0,0,1,3,1,3.65,3.65,0,0,1,1.08,2.81,2.75,2.75,0,0,1-1.22,2.5,7.45,7.45,0,0,1-3.92.79H45.16a2.78,2.78,0,0,0-2.3,1A3.74,3.74,0,0,0,42,74.5,3.77,3.77,0,0,0,42.86,77a2.8,2.8,0,0,0,2.3,1h3a7.35,7.35,0,0,1,4,.83,3.08,3.08,0,0,1,1.22,2.74,3.41,3.41,0,0,1-1.2,2.94,6.79,6.79,0,0,1-3.94.88A8.81,8.81,0,0,1,45.48,85a22.5,22.5,0,0,1-2.82-1.2l-.61-.27-.47-.22a15,15,0,0,0-1.47-.71,3.16,3.16,0,0,0-1.22-.22,2.53,2.53,0,0,0-2.06,1A4,4,0,0,0,36,86a3.8,3.8,0,0,0,.34,1.69A3.76,3.76,0,0,0,37.52,89a15.79,15.79,0,0,0,5.09,2.48,21.82,21.82,0,0,0,6.13.85,18.42,18.42,0,0,0,6.93-1.2,10.28,10.28,0,0,0,4.58-3.4,8.54,8.54,0,0,0,1.62-5.2,8.72,8.72,0,0,0-1.64-5.34A8.39,8.39,0,0,0,55.69,74.15ZM73.22,46.94h0a3.65,3.65,0,0,0-3.64-3.65H29.91a3.65,3.65,0,0,0-3.65,3.65h0a3.65,3.65,0,0,0,3.65,3.65H69.58A3.65,3.65,0,0,0,73.22,46.94Z"/></svg>