<svg id="Layer_1" data-name="Layer 1" xmlns="http://www.w3.org/2000/svg" viewBox="0 0 100 100"><defs><style>.cls-1{fill:#020202;}</style></defs><title>l16_4_1</title><path class="cls-1" d="M86.52,100H14.93A14.2,14.2,0,0,1,.73,85.8V14.21A14.21,14.21,0,0,1,14.93,0H86.52a14.21,14.21,0,0,1,14.21,14.21V85.8A14.21,14.21,0,0,1,86.52,100ZM21.76,68a16.14,16.14,0,0,0,8.56-2.14,2.86,2.86,0,0,0,1.13-1.2,3.8,3.8,0,0,0,.4-1.76,4.2,4.2,0,0,0-.74-2.58,2.28,2.28,0,0,0-1.91-1,4.15,4.15,0,0,0-1.4.23c-.43.15-1,.38-1.66.69a12.34,12.34,0,0,1-1.66.69,5.47,5.47,0,0,1-1.6.23,4.56,4.56,0,0,1-3.75-1.61,7.26,7.26,0,0,1-1.3-4.67q0-6.16,5.05-6.17a5.29,5.29,0,0,1,1.58.23,16.17,16.17,0,0,1,1.73.69,10.57,10.57,0,0,0,1.58.69,4.92,4.92,0,0,0,1.48.23,2.26,2.26,0,0,0,1.91-1A4.15,4.15,0,0,0,31.9,47a3.22,3.22,0,0,0-1.58-3,13.28,13.28,0,0,0-3.77-1.58,16.61,16.61,0,0,0-4.28-.56,15.28,15.28,0,0,0-7.17,1.63,11.72,11.72,0,0,0-4.87,4.64A13.62,13.62,0,0,0,8.5,55.12q0,6,3.57,9.43T21.76,68ZM67.2,41.91a9.74,9.74,0,0,0-4.85,1.2,9.31,9.31,0,0,0-3.42,3.23q-1.83-4.43-7.29-4.43-5.14,0-7.65,3.77A3.39,3.39,0,0,0,42.74,43a4.66,4.66,0,0,0-3-.94,5.17,5.17,0,0,0-3.24,1,3.62,3.62,0,0,0-1.35,3V63.74a3.76,3.76,0,0,0,1.3,3.13,5.52,5.52,0,0,0,6.48,0,3.79,3.79,0,0,0,1.3-3.13V53.64a5.37,5.37,0,0,1,1-3.52,3.47,3.47,0,0,1,2.83-1.28,2.63,2.63,0,0,1,2.09.82,4.36,4.36,0,0,1,.72,2.86V63.74a3.76,3.76,0,0,0,1.3,3.13,5.55,5.55,0,0,0,6.5,0A3.8,3.8,0,0,0,60,63.74V53.64a5.27,5.27,0,0,1,1.07-3.52,3.53,3.53,0,0,1,2.85-1.28,2.63,2.63,0,0,1,2.09.82,4.36,4.36,0,0,1,.72,2.86V63.74A3.76,3.76,0,0,0,68,66.87a5.51,5.51,0,0,0,6.47,0,3.76,3.76,0,0,0,1.31-3.13v-11q0-5.86-2.25-8.34A8.15,8.15,0,0,0,67.2,41.91ZM90.59,38.4H84.16l4.54-4.64a14.75,14.75,0,0,0,2.67-3.6,8.05,8.05,0,0,0,.79-3.56,5.89,5.89,0,0,0-1-3.35A6.27,6.27,0,0,0,88.41,21a10.33,10.33,0,0,0-4.16-.78,13,13,0,0,0-7.07,2.17,2.1,2.1,0,0,0-.78.84,2.72,2.72,0,0,0-.21,1.15,2.77,2.77,0,0,0,.54,1.71,1.63,1.63,0,0,0,1.35.72,1.72,1.72,0,0,0,.6-.1,3.35,3.35,0,0,0,.66-.3c.24-.14.41-.23.5-.27l.64-.32a17.54,17.54,0,0,1,1.8-.79A5.3,5.3,0,0,1,84,24.77a2.49,2.49,0,0,1,1.77.58A2.13,2.13,0,0,1,86.4,27c0,1.24-.71,2.59-2.12,4.07L77.5,38.15a3.49,3.49,0,0,0-1.09,2.49,2.34,2.34,0,0,0,2.5,2.44H90.59a3.2,3.2,0,0,0,2.09-.58,2.19,2.19,0,0,0,.69-1.79A2.13,2.13,0,0,0,92.68,39,3.26,3.26,0,0,0,90.59,38.4Z"/></svg>