<svg id="Layer_1" data-name="Layer 1" xmlns="http://www.w3.org/2000/svg" viewBox="0 0 100 100"><defs><style>.cls-1{fill:#020202;}</style></defs><title>l16_2_1</title><path class="cls-1" d="M85.79,100H14.21A14.21,14.21,0,0,1,0,85.79V14.21A14.21,14.21,0,0,1,14.21,0H85.79A14.21,14.21,0,0,1,100,14.21V85.79A14.21,14.21,0,0,1,85.79,100ZM23.32,72.16q8,0,12.2-5.68t4.21-16.4q0-10.68-4.24-16.35T23.32,28.05q-8,0-12.2,5.68T6.91,50.08q0,10.72,4.21,16.4T23.32,72.16Zm0-8.48q-2.94,0-4.21-3.17c-.86-2.12-1.28-5.59-1.28-10.43s.42-8.31,1.28-10.4,2.25-3.15,4.21-3.15,3.35,1.06,4.2,3.18,1.29,5.57,1.29,10.37-.43,8.31-1.29,10.43S25.27,63.68,23.32,63.68ZM49.91,72a5.62,5.62,0,0,0,4.18-1.71,6.12,6.12,0,0,0,0-8.42,5.62,5.62,0,0,0-4.18-1.71,5.69,5.69,0,0,0-4.24,1.71,6.12,6.12,0,0,0,0,8.42A5.69,5.69,0,0,0,49.91,72ZM79.5,43.49a15.08,15.08,0,0,0-6,1.1V37.08H86.63q5.31,0,5.31-4.27c0-2.8-1.77-4.21-5.31-4.21H67.72A5.16,5.16,0,0,0,63.88,30a5.25,5.25,0,0,0-1.34,3.9V50.38A3.31,3.31,0,0,0,63.7,53a4.15,4.15,0,0,0,2.86,1,5.82,5.82,0,0,0,2.75-.67,22,22,0,0,1,3.51-1.1,16.85,16.85,0,0,1,3.32-.3,6.94,6.94,0,0,1,4.76,1.52,5.43,5.43,0,0,1,1.71,4.27A5.27,5.27,0,0,1,81,62.06a7.78,7.78,0,0,1-5.06,1.38,10.3,10.3,0,0,1-3.39-.55,34.74,34.74,0,0,1-3.45-1.47l-1.22-.61A16.54,16.54,0,0,0,66,59.9a3.93,3.93,0,0,0-1.52-.25A3.15,3.15,0,0,0,61.93,61a5,5,0,0,0-1,3.21,4.46,4.46,0,0,0,.46,2.1A5.35,5.35,0,0,0,62.78,68,20.12,20.12,0,0,0,69,71a25.54,25.54,0,0,0,7.42,1.1,19.79,19.79,0,0,0,8.72-1.83A13.7,13.7,0,0,0,91,65.08a14.36,14.36,0,0,0,2.08-7.75,14.64,14.64,0,0,0-1.74-7.22,12.36,12.36,0,0,0-4.82-4.88A14.05,14.05,0,0,0,79.5,43.49Z"/></svg>