<svg id="Layer_1" data-name="Layer 1" xmlns="http://www.w3.org/2000/svg" viewBox="0 0 100 100"><defs><style>.cls-1{fill:#020202;}</style></defs><title>l16_4_1</title><path class="cls-1" d="M86.19,100H14.6A14.2,14.2,0,0,1,.4,85.79V14.2A14.21,14.21,0,0,1,14.6,0H86.19A14.21,14.21,0,0,1,100.4,14.2V85.79A14.21,14.21,0,0,1,86.19,100ZM37.8,58.77l-7.94-7.62,7-6.91A5.06,5.06,0,0,0,38.5,40.6,4.9,4.9,0,0,0,36.93,37a5,5,0,0,0-7.32.1l-11.84,12V27.48a4.84,4.84,0,0,0-1.64-4,6.14,6.14,0,0,0-4.06-1.35A6.14,6.14,0,0,0,8,23.51a4.84,4.84,0,0,0-1.64,4V62.61a4.85,4.85,0,0,0,1.64,4,6.13,6.13,0,0,0,4.06,1.34,6.13,6.13,0,0,0,4.06-1.34,4.85,4.85,0,0,0,1.64-4V54l13,12.35a5.4,5.4,0,0,0,3.58,1.6A4.72,4.72,0,0,0,38,66.26a5.49,5.49,0,0,0,1.5-3.78A5,5,0,0,0,37.8,58.77ZM83.68,35.35a12.22,12.22,0,0,0-6.07,1.5,11.57,11.57,0,0,0-4.29,4.07Q71,35.34,64.16,35.35c-4.3,0-7.51,1.58-9.59,4.73A4.29,4.29,0,0,0,53,36.66a5.88,5.88,0,0,0-3.75-1.18,6.4,6.4,0,0,0-4.06,1.31,4.52,4.52,0,0,0-1.7,3.81V62.74a4.75,4.75,0,0,0,1.63,3.93,6.92,6.92,0,0,0,8.13,0,4.72,4.72,0,0,0,1.63-3.93V50.07a6.75,6.75,0,0,1,1.32-4.42,4.32,4.32,0,0,1,3.55-1.6,3.26,3.26,0,0,1,2.62,1,5.45,5.45,0,0,1,.9,3.58V62.74a4.72,4.72,0,0,0,1.63,3.93,7,7,0,0,0,8.16,0,4.76,4.76,0,0,0,1.6-3.93V50.07A6.7,6.7,0,0,1,76,45.65a4.44,4.44,0,0,1,3.59-1.6,3.28,3.28,0,0,1,2.62,1,5.45,5.45,0,0,1,.9,3.58V62.74a4.72,4.72,0,0,0,1.63,3.93,6.92,6.92,0,0,0,8.13,0,4.72,4.72,0,0,0,1.63-3.93V48.92q0-7.37-2.82-10.47T83.68,35.35Z"/></svg>