<svg id="Layer_1" data-name="Layer 1" xmlns="http://www.w3.org/2000/svg" viewBox="0 0 100 100"><defs><style>.cls-1{fill:#020202;}</style></defs><title>l16_4_1</title><path class="cls-1" d="M85.77,100H14.19A14.21,14.21,0,0,1,0,85.79V14.2A14.21,14.21,0,0,1,14.19,0H85.77A14.21,14.21,0,0,1,100,14.2V85.79A14.21,14.21,0,0,1,85.77,100ZM61.12,38.43a13.7,13.7,0,0,0-6.83,1.69,13.12,13.12,0,0,0-4.82,4.56q-2.59-6.26-10.28-6.25-7.26,0-10.79,5.32a4.79,4.79,0,0,0-1.76-3.85,6.58,6.58,0,0,0-4.21-1.33A7.24,7.24,0,0,0,17.87,40,5.1,5.1,0,0,0,16,44.32V69.2a5.3,5.3,0,0,0,1.84,4.42,7.05,7.05,0,0,0,4.56,1.48,7.08,7.08,0,0,0,4.57-1.48,5.33,5.33,0,0,0,1.83-4.42V55a7.58,7.58,0,0,1,1.48-5,4.9,4.9,0,0,1,4-1.79,3.68,3.68,0,0,1,2.94,1.15c.68.76,1,2.11,1,4V69.2A5.33,5.33,0,0,0,40,73.62a7.1,7.1,0,0,0,4.57,1.48,7,7,0,0,0,4.6-1.48A5.37,5.37,0,0,0,51,69.2V55a7.48,7.48,0,0,1,1.51-5,5,5,0,0,1,4-1.79,3.69,3.69,0,0,1,3,1.15c.67.76,1,2.11,1,4V69.2a5.33,5.33,0,0,0,1.83,4.42,7.78,7.78,0,0,0,9.13,0,5.3,5.3,0,0,0,1.84-4.42V53.67q0-8.27-3.17-11.76T61.12,38.43Zm28.57-2.61H82.47l5.1-5.22a16.88,16.88,0,0,0,3-4,9,9,0,0,0,.88-4,6.63,6.63,0,0,0-1.09-3.76,7,7,0,0,0-3.11-2.51,11.56,11.56,0,0,0-4.68-.88,14.1,14.1,0,0,0-4.15.64,14.56,14.56,0,0,0-3.79,1.8,2.34,2.34,0,0,0-.88.94,3,3,0,0,0-.24,1.29A3.07,3.07,0,0,0,74.13,22a1.82,1.82,0,0,0,1.51.81,2.24,2.24,0,0,0,.68-.1,4.71,4.71,0,0,0,.73-.35l.56-.3.72-.36a17.35,17.35,0,0,1,2-.88,5.7,5.7,0,0,1,1.93-.31,2.84,2.84,0,0,1,2,.65A2.4,2.4,0,0,1,85,23q0,2.09-2.37,4.56l-7.62,8a3.91,3.91,0,0,0-1.22,2.8,2.69,2.69,0,0,0,.75,2,2.72,2.72,0,0,0,2,.78H89.69a3.63,3.63,0,0,0,2.36-.65,2.49,2.49,0,0,0,.77-2,2.39,2.39,0,0,0-.77-2A3.7,3.7,0,0,0,89.69,35.82Z"/></svg>