<svg id="Layer_1" data-name="Layer 1" xmlns="http://www.w3.org/2000/svg" viewBox="0 0 100 100"><defs><style>.cls-1{fill:#020202;}</style></defs><title>l16_4_1</title><path class="cls-1" d="M85.91,100H14.32A14.2,14.2,0,0,1,.12,85.8V14.21A14.21,14.21,0,0,1,14.32,0H85.91a14.21,14.21,0,0,1,14.21,14.21V85.8A14.21,14.21,0,0,1,85.91,100ZM32.09,44.18a9,9,0,0,0-4.45,1.1,8.5,8.5,0,0,0-3.13,3q-1.7-4.06-6.7-4.07a7.83,7.83,0,0,0-7,3.46,3.12,3.12,0,0,0-1.14-2.5,4.3,4.3,0,0,0-2.74-.87,4.68,4.68,0,0,0-3,1A3.31,3.31,0,0,0,2.7,48V64.21a3.46,3.46,0,0,0,1.19,2.88,4.57,4.57,0,0,0,3,1,4.57,4.57,0,0,0,3-1A3.47,3.47,0,0,0,11,64.21V54.94a5,5,0,0,1,1-3.23,3.2,3.2,0,0,1,2.59-1.17,2.39,2.39,0,0,1,1.92.75,4,4,0,0,1,.66,2.62v10.3a3.49,3.49,0,0,0,1.19,2.88,4.6,4.6,0,0,0,3,1,4.57,4.57,0,0,0,3-1,3.51,3.51,0,0,0,1.17-2.88V54.94a4.92,4.92,0,0,1,1-3.23,3.29,3.29,0,0,1,2.62-1.17,2.39,2.39,0,0,1,1.92.75,4,4,0,0,1,.66,2.62v10.3a3.49,3.49,0,0,0,1.19,2.88,5.09,5.09,0,0,0,6,0A3.49,3.49,0,0,0,40,64.21V54.1q0-5.39-2.06-7.65A7.5,7.5,0,0,0,32.09,44.18Zm42,0a9,9,0,0,0-4.44,1.1,8.53,8.53,0,0,0-3.14,3q-1.68-4.06-6.69-4.07a7.82,7.82,0,0,0-7,3.46,3.13,3.13,0,0,0-1.15-2.5,4.28,4.28,0,0,0-2.74-.87,4.72,4.72,0,0,0-3,1A3.31,3.31,0,0,0,44.68,48V64.21a3.49,3.49,0,0,0,1.19,2.88,5.09,5.09,0,0,0,6,0A3.49,3.49,0,0,0,53,64.21V54.94a5,5,0,0,1,1-3.23,3.21,3.21,0,0,1,2.6-1.17,2.42,2.42,0,0,1,1.92.75,4.08,4.08,0,0,1,.65,2.62v10.3a3.47,3.47,0,0,0,1.2,2.88,5.11,5.11,0,0,0,6,0,3.51,3.51,0,0,0,1.17-2.88V54.94a4.87,4.87,0,0,1,1-3.23,3.26,3.26,0,0,1,2.62-1.17,2.42,2.42,0,0,1,1.92.75,4.08,4.08,0,0,1,.65,2.62v10.3a3.49,3.49,0,0,0,1.19,2.88,5.09,5.09,0,0,0,6,0A3.46,3.46,0,0,0,82,64.21V54.1c0-3.59-.68-6.14-2.06-7.65A7.5,7.5,0,0,0,74.07,44.18Zm20.55-4.1H88.71l4.17-4.26a13.77,13.77,0,0,0,2.46-3.3,7.41,7.41,0,0,0,.72-3.28,5.38,5.38,0,0,0-.9-3.07,5.72,5.72,0,0,0-2.54-2.05,9.47,9.47,0,0,0-3.82-.72,11.24,11.24,0,0,0-3.39.53,11.49,11.49,0,0,0-3.1,1.46,2,2,0,0,0-.72.77,2.43,2.43,0,0,0-.19,1.05,2.57,2.57,0,0,0,.5,1.58,1.49,1.49,0,0,0,1.23.66,1.69,1.69,0,0,0,.56-.09,3.13,3.13,0,0,0,.6-.28l.46-.25.59-.29A11.92,11.92,0,0,1,87,27.82a4.66,4.66,0,0,1,1.57-.25,2.3,2.3,0,0,1,1.63.53,2,2,0,0,1,.57,1.52,5.72,5.72,0,0,1-1.94,3.73l-6.22,6.49a3.21,3.21,0,0,0-1,2.29,2.15,2.15,0,0,0,2.29,2.24H94.62a3,3,0,0,0,1.92-.53,2,2,0,0,0,.63-1.65,2,2,0,0,0-.63-1.6A3,3,0,0,0,94.62,40.08Z"/></svg>