<svg id="Layer_1" data-name="Layer 1" xmlns="http://www.w3.org/2000/svg" viewBox="0 0 100 100"><defs><style>.cls-1{fill:#020202;}</style></defs><title>s16_1</title><path class="cls-1" d="M84.7,99.85h-69A15.4,15.4,0,0,1,.29,84.45v-69A15.4,15.4,0,0,1,15.69.05h69a15.4,15.4,0,0,1,15.4,15.39v69A15.4,15.4,0,0,1,84.7,99.85ZM9.27,56.62H17a3.7,3.7,0,0,0,2.56-.76,2.69,2.69,0,0,0,.84-2.11,2.63,2.63,0,0,0-.84-2.09A3.8,3.8,0,0,0,17,50.92H9.27c-2.27,0-3.4.95-3.4,2.83S7,56.62,9.27,56.62Zm34,2.18H39.9V39.36a3.54,3.54,0,0,0-1-2.66,3.62,3.62,0,0,0-2.65-1,6.87,6.87,0,0,0-3.4,1l-6.56,3.81a2.78,2.78,0,0,0-1.44,2.54,3.5,3.5,0,0,0,.82,2.24,2.48,2.48,0,0,0,2,1,2.77,2.77,0,0,0,1.44-.41L32.36,44V58.8H29a4.12,4.12,0,0,0-2.71.73,2.78,2.78,0,0,0-.86,2.22q0,3,3.57,3H43.26q3.57,0,3.57-3A2.78,2.78,0,0,0,46,59.53,4.14,4.14,0,0,0,43.26,58.8Zm24.52-1.15L55.6,53,67.78,48.3a2,2,0,0,0,1-.78,2.06,2.06,0,0,0,.37-1.23,2.53,2.53,0,0,0-.71-1.86,2.48,2.48,0,0,0-1.83-.72,4,4,0,0,0-1.27.24L51.71,49.24a4,4,0,0,0-1.87,1.5A3.9,3.9,0,0,0,49.17,53a4,4,0,0,0,.67,2.3,3.8,3.8,0,0,0,1.87,1.43L65.36,62a3.75,3.75,0,0,0,1.27.25,2.48,2.48,0,0,0,1.83-.72,2.55,2.55,0,0,0,.71-1.86,2,2,0,0,0-.37-1.21A2.36,2.36,0,0,0,67.78,57.65ZM92.46,58.8H89.1V39.36a3.57,3.57,0,0,0-1-2.66,3.64,3.64,0,0,0-2.65-1,6.84,6.84,0,0,0-3.4,1l-6.56,3.81a2.78,2.78,0,0,0-1.44,2.54,3.5,3.5,0,0,0,.82,2.24,2.48,2.48,0,0,0,2,1,2.77,2.77,0,0,0,1.44-.41L81.56,44V58.8H78.23a4.09,4.09,0,0,0-2.7.73,2.75,2.75,0,0,0-.86,2.22q0,3,3.56,3H92.46q3.57,0,3.57-3a2.78,2.78,0,0,0-.86-2.22A4.14,4.14,0,0,0,92.46,58.8Z"/></svg>