<svg id="Layer_1" data-name="Layer 1" xmlns="http://www.w3.org/2000/svg" viewBox="0 0 100 100"><defs><style>.cls-1{fill:#020202;}</style></defs><title>s16_1</title><path class="cls-1" d="M84.51,99.9h-69A15.39,15.39,0,0,1,.1,84.51v-69A15.39,15.39,0,0,1,15.49.1h69A15.39,15.39,0,0,1,99.9,15.49v69A15.39,15.39,0,0,1,84.51,99.9Zm-51-40H25.25L31.07,54a19.18,19.18,0,0,0,3.42-4.62,10.32,10.32,0,0,0,1-4.57,7.53,7.53,0,0,0-1.25-4.28,8.08,8.08,0,0,0-3.55-2.87,13.2,13.2,0,0,0-5.33-1,16.75,16.75,0,0,0-9.06,2.79,2.81,2.81,0,0,0-1,1.07A3.62,3.62,0,0,0,15,41.94a3.53,3.53,0,0,0,.7,2.2,2.08,2.08,0,0,0,1.72.92,2.54,2.54,0,0,0,.78-.12,5.92,5.92,0,0,0,.84-.39c.31-.18.52-.3.63-.35l.82-.41a21.32,21.32,0,0,1,2.32-1A6.7,6.7,0,0,1,25,42.44a3.24,3.24,0,0,1,2.28.73,2.8,2.8,0,0,1,.8,2.14c0,1.58-.9,3.32-2.71,5.2l-8.69,9.06a4.5,4.5,0,0,0-1.39,3.2A3.06,3.06,0,0,0,16.19,65a3.13,3.13,0,0,0,2.33.88h15a4.1,4.1,0,0,0,2.68-.74,2.83,2.83,0,0,0,.89-2.3,2.7,2.7,0,0,0-.89-2.23A4.16,4.16,0,0,0,33.49,59.9Zm25.62-1.15L46.94,54.08l12.17-4.67a2.2,2.2,0,0,0,1-.78,2.17,2.17,0,0,0,.37-1.23,2.52,2.52,0,0,0-.72-1.87A2.47,2.47,0,0,0,58,44.81a4,4,0,0,0-1.28.25L43,50.35a4.07,4.07,0,0,0-1.86,1.5,3.84,3.84,0,0,0-.68,2.23A3.84,3.84,0,0,0,43,57.81L56.69,63.1a4,4,0,0,0,1.28.25,2.47,2.47,0,0,0,1.82-.72,2.52,2.52,0,0,0,.72-1.87,2.09,2.09,0,0,0-.37-1.21A2.54,2.54,0,0,0,59.11,58.75ZM80.31,51a6.66,6.66,0,0,0,3.26-2.49,6.79,6.79,0,0,0,1.17-4,7.16,7.16,0,0,0-1.25-4.18,8,8,0,0,0-3.57-2.79,13.51,13.51,0,0,0-5.35-1,16.52,16.52,0,0,0-4.86.74,13.59,13.59,0,0,0-4.16,2,3.41,3.41,0,0,0-1,1.11,3.06,3.06,0,0,0-.29,1.43A3.35,3.35,0,0,0,65,44.1,2.12,2.12,0,0,0,66.7,45a2.54,2.54,0,0,0,1-.19c.3-.12.71-.32,1.23-.59l.86-.41a20.77,20.77,0,0,1,2.24-1,6.11,6.11,0,0,1,2.15-.37,3.52,3.52,0,0,1,2.5.84,3.05,3.05,0,0,1,.9,2.35,2.32,2.32,0,0,1-1,2.1,6.36,6.36,0,0,1-3.28.65H71.5a2.35,2.35,0,0,0-1.93.86,3.15,3.15,0,0,0-.7,2,3.11,3.11,0,0,0,.7,2.05,2.33,2.33,0,0,0,1.93.86H74a6.21,6.21,0,0,1,3.36.7,2.59,2.59,0,0,1,1,2.3,2.87,2.87,0,0,1-1,2.46,5.71,5.71,0,0,1-3.3.73,7.51,7.51,0,0,1-2.36-.34,19.35,19.35,0,0,1-2.36-1l-.51-.22-.39-.19c-.52-.27-.93-.47-1.23-.59a2.54,2.54,0,0,0-1-.19,2.15,2.15,0,0,0-1.73.88,3.41,3.41,0,0,0-.69,2.16,3.26,3.26,0,0,0,.28,1.41,3.3,3.3,0,0,0,1,1.13,13.21,13.21,0,0,0,4.26,2.07,18.17,18.17,0,0,0,5.13.72,15.37,15.37,0,0,0,5.8-1,8.62,8.62,0,0,0,3.83-2.85A7.16,7.16,0,0,0,85.48,58a7.25,7.25,0,0,0-1.38-4.47A6.93,6.93,0,0,0,80.31,51Z"/></svg>