<svg id="Layer_1" data-name="Layer 1" xmlns="http://www.w3.org/2000/svg" viewBox="0 0 100 100"><defs><style>.cls-1{fill:#020202;}</style></defs><title>l16_2_1</title><path class="cls-1" d="M85.86,99.82H14.27A14.21,14.21,0,0,1,.06,85.61V14A14.21,14.21,0,0,1,14.27-.18H85.86A14.21,14.21,0,0,1,100.06,14V85.61A14.21,14.21,0,0,1,85.86,99.82ZM60,31.31H56V8.08a4.24,4.24,0,0,0-1.2-3.18,4.31,4.31,0,0,0-3.16-1.18,8.34,8.34,0,0,0-4.07,1.22L39.68,9.5a3.34,3.34,0,0,0-1.72,3,4.14,4.14,0,0,0,1,2.67,3,3,0,0,0,2.36,1.2A3.3,3.3,0,0,0,43,15.92l3.92-2.3V31.31H43a4.87,4.87,0,0,0-3.23.88,3.28,3.28,0,0,0-1,2.64q0,3.63,4.26,3.63H60q4.26,0,4.26-3.63a3.31,3.31,0,0,0-1-2.64A4.91,4.91,0,0,0,60,31.31ZM58.4,84.71H48.55l7-7.11a23.19,23.19,0,0,0,4.09-5.51,12.36,12.36,0,0,0,1.2-5.47,9,9,0,0,0-1.5-5.12,9.6,9.6,0,0,0-4.23-3.43,15.81,15.81,0,0,0-6.37-1.2,19.39,19.39,0,0,0-5.66.88,18.85,18.85,0,0,0-5.17,2.46,3.17,3.17,0,0,0-1.2,1.27,4.1,4.1,0,0,0-.32,1.76,4.16,4.16,0,0,0,.83,2.62A2.5,2.5,0,0,0,39.24,67a2.88,2.88,0,0,0,.93-.15,5.43,5.43,0,0,0,1-.47c.38-.21.63-.35.76-.41l1-.49a25,25,0,0,1,2.77-1.2,7.91,7.91,0,0,1,2.62-.42,3.88,3.88,0,0,1,2.72.88,3.3,3.3,0,0,1,1,2.55q0,2.85-3.24,6.22L38.36,84.31a5.39,5.39,0,0,0-1.67,3.82,3.68,3.68,0,0,0,1,2.68,3.74,3.74,0,0,0,2.79,1H58.4A4.94,4.94,0,0,0,61.61,91a3.4,3.4,0,0,0,1-2.75,3.26,3.26,0,0,0-1-2.67A5.06,5.06,0,0,0,58.4,84.71ZM73.06,46.86h0a3.65,3.65,0,0,0-3.65-3.65H29.74a3.65,3.65,0,0,0-3.64,3.65h0a3.65,3.65,0,0,0,3.64,3.65H69.41A3.65,3.65,0,0,0,73.06,46.86Z"/></svg>