<svg id="Layer_1" data-name="Layer 1" xmlns="http://www.w3.org/2000/svg" viewBox="0 0 100 100"><defs><style>.cls-1{fill:#020202;}</style></defs><title>l16_2_1</title><path class="cls-1" d="M85.83,99.82H14.24A14.21,14.21,0,0,1,0,85.61V14A14.21,14.21,0,0,1,14.24-.18H85.83A14.21,14.21,0,0,1,100,14V85.61A14.21,14.21,0,0,1,85.83,99.82ZM59.93,31.31h-4V8.08a4.24,4.24,0,0,0-1.2-3.18,4.29,4.29,0,0,0-3.16-1.18,8.31,8.31,0,0,0-4.06,1.22L39.65,9.5a3.33,3.33,0,0,0-1.72,3,4.14,4.14,0,0,0,1,2.67,3,3,0,0,0,2.35,1.2A3.33,3.33,0,0,0,43,15.92l3.92-2.3V31.31h-4a4.92,4.92,0,0,0-3.24.88,3.31,3.31,0,0,0-1,2.64q0,3.63,4.26,3.63h17q4.26,0,4.26-3.63a3.31,3.31,0,0,0-1-2.64A4.92,4.92,0,0,0,59.93,31.31Zm-8.25,38a12.26,12.26,0,0,0-4.86.88v-6H57.41q4.26,0,4.26-3.44t-4.26-3.38H42.22a4.18,4.18,0,0,0-3.09,1.08,4.26,4.26,0,0,0-1.08,3.14V74.81A2.69,2.69,0,0,0,39,76.94a3.41,3.41,0,0,0,2.31.81,4.65,4.65,0,0,0,2.2-.54,16.59,16.59,0,0,1,2.82-.88A12.89,12.89,0,0,1,49,76.08a5.52,5.52,0,0,1,3.82,1.23,4.33,4.33,0,0,1,1.37,3.43,4.24,4.24,0,0,1-1.32,3.45,6.24,6.24,0,0,1-4.07,1.1,7.94,7.94,0,0,1-2.71-.44,25.46,25.46,0,0,1-2.77-1.17l-1-.49c-.66-.36-1.15-.61-1.47-.74a3.37,3.37,0,0,0-1.23-.2,2.56,2.56,0,0,0-2.06,1.06,4,4,0,0,0-.83,2.57,3.57,3.57,0,0,0,.37,1.69,4.3,4.3,0,0,0,1.15,1.35,16.32,16.32,0,0,0,5,2.45,20.43,20.43,0,0,0,6,.88,15.87,15.87,0,0,0,7-1.47,11,11,0,0,0,4.71-4.16,11.61,11.61,0,0,0,1.66-6.23,11.77,11.77,0,0,0-1.39-5.8,9.93,9.93,0,0,0-3.87-3.92A11.34,11.34,0,0,0,51.68,69.27ZM73,46.86h0a3.66,3.66,0,0,0-3.65-3.65H29.71a3.66,3.66,0,0,0-3.65,3.65h0a3.66,3.66,0,0,0,3.65,3.65H69.38A3.66,3.66,0,0,0,73,46.86Z"/></svg>