<svg id="Layer_1" data-name="Layer 1" xmlns="http://www.w3.org/2000/svg" viewBox="0 0 100 100"><defs><style>.cls-1{fill:#020202;}</style></defs><title>s16_1</title><path class="cls-1" d="M84.51,99.9h-69A15.39,15.39,0,0,1,.1,84.51v-69A15.39,15.39,0,0,1,15.49.1h69A15.39,15.39,0,0,1,99.9,15.49v69A15.39,15.39,0,0,1,84.51,99.9Zm-50-40H31.19V40.47a3.57,3.57,0,0,0-1-2.67,3.64,3.64,0,0,0-2.65-1,7,7,0,0,0-3.4,1l-6.56,3.82a2.77,2.77,0,0,0-1.43,2.54A3.42,3.42,0,0,0,17,46.43a2.45,2.45,0,0,0,2,1A2.84,2.84,0,0,0,20.37,47l3.28-1.93V59.9H20.33a4.14,4.14,0,0,0-2.71.74,2.76,2.76,0,0,0-.86,2.21q0,3,3.57,3H34.55q3.57,0,3.57-3a2.76,2.76,0,0,0-.86-2.21A4.12,4.12,0,0,0,34.55,59.9Zm24.52-1.15L46.9,54.08l12.17-4.67a2.2,2.2,0,0,0,1-.78,2.17,2.17,0,0,0,.37-1.23,2.52,2.52,0,0,0-.72-1.87,2.48,2.48,0,0,0-1.83-.72,4,4,0,0,0-1.27.25L43,50.35a4.15,4.15,0,0,0-1.87,1.5,3.9,3.9,0,0,0-.67,2.23A3.81,3.81,0,0,0,43,57.81L56.65,63.1a4,4,0,0,0,1.27.25,2.48,2.48,0,0,0,1.83-.72,2.52,2.52,0,0,0,.72-1.87,2.09,2.09,0,0,0-.37-1.21A2.54,2.54,0,0,0,59.07,58.75ZM82.69,59.9H74.45L80.27,54a19.18,19.18,0,0,0,3.42-4.62,10.32,10.32,0,0,0,1-4.57,7.53,7.53,0,0,0-1.25-4.28,8.08,8.08,0,0,0-3.55-2.87,13.2,13.2,0,0,0-5.33-1,16.68,16.68,0,0,0-9.06,2.79,2.81,2.81,0,0,0-1,1.07,4,4,0,0,0,.43,3.67,2.11,2.11,0,0,0,1.73.92,2.54,2.54,0,0,0,.78-.12,5.92,5.92,0,0,0,.84-.39c.31-.18.52-.3.63-.35l.82-.41a21.32,21.32,0,0,1,2.32-1,6.7,6.7,0,0,1,2.19-.34,3.25,3.25,0,0,1,2.28.73,2.8,2.8,0,0,1,.8,2.14c0,1.58-.91,3.32-2.71,5.2l-8.69,9.06a4.51,4.51,0,0,0-1.4,3.2A3.07,3.07,0,0,0,65.39,65a3.13,3.13,0,0,0,2.33.88h15a4.1,4.1,0,0,0,2.68-.74,2.82,2.82,0,0,0,.88-2.3,2.7,2.7,0,0,0-.88-2.23A4.16,4.16,0,0,0,82.69,59.9Z"/></svg>