<svg id="Layer_1" data-name="Layer 1" xmlns="http://www.w3.org/2000/svg" viewBox="0 0 100 100"><defs><style>.cls-1{fill:#020202;}</style></defs><title>s16_1</title><path class="cls-1" d="M84.87,99.9h-69A15.39,15.39,0,0,1,.46,84.51v-69A15.39,15.39,0,0,1,15.86.1h69a15.39,15.39,0,0,1,15.39,15.39v69A15.39,15.39,0,0,1,84.87,99.9ZM35.06,55.27h-.9V40.47a3.49,3.49,0,0,0-1.11-2.75,3.86,3.86,0,0,0-2.66-1,4.1,4.1,0,0,0-1.83.43,3.64,3.64,0,0,0-1.45,1.25L15.38,55.15a4.58,4.58,0,0,0-.9,2.7,3.12,3.12,0,0,0,.86,2.26,3.07,3.07,0,0,0,2.34.9h9.14V62.4a3.65,3.65,0,0,0,1,2.79,3.7,3.7,0,0,0,2.65.94,3.76,3.76,0,0,0,2.66-.94,3.59,3.59,0,0,0,1-2.79V61h.9q3.57,0,3.57-2.91T35.06,55.27Zm-13.16,0,4.92-7.09v7.09Zm37.55,3.48L47.28,54.08l12.17-4.67a2.2,2.2,0,0,0,1-.78,2.17,2.17,0,0,0,.37-1.23,2.52,2.52,0,0,0-.72-1.87,2.47,2.47,0,0,0-1.82-.72,3.91,3.91,0,0,0-1.27.25L43.38,50.35a4.07,4.07,0,0,0-1.86,1.5,3.91,3.91,0,0,0-.68,2.23,4,4,0,0,0,.68,2.3,3.88,3.88,0,0,0,1.86,1.43L57,63.1a3.91,3.91,0,0,0,1.27.25,2.47,2.47,0,0,0,1.82-.72,2.52,2.52,0,0,0,.72-1.87,2.09,2.09,0,0,0-.37-1.21A2.54,2.54,0,0,0,59.45,58.75ZM77.45,47a10.11,10.11,0,0,0-4.06.74v-5h8.86c2.38,0,3.57-1,3.57-2.87S84.63,37,82.25,37H69.54a3.46,3.46,0,0,0-2.58.91,3.54,3.54,0,0,0-.9,2.62V51.62a2.23,2.23,0,0,0,.77,1.78,2.86,2.86,0,0,0,1.93.68,4,4,0,0,0,1.85-.45A14.29,14.29,0,0,1,73,52.89a11,11,0,0,1,2.24-.2,4.67,4.67,0,0,1,3.2,1,3.66,3.66,0,0,1,1.14,2.87,3.54,3.54,0,0,1-1.1,2.89,5.24,5.24,0,0,1-3.41.92A6.93,6.93,0,0,1,72.76,60a24,24,0,0,1-2.32-1l-.82-.41A13.26,13.26,0,0,0,68.39,58a2.71,2.71,0,0,0-1-.17,2.15,2.15,0,0,0-1.73.88A3.41,3.41,0,0,0,65,60.89a3,3,0,0,0,.31,1.41,3.54,3.54,0,0,0,1,1.13,13.59,13.59,0,0,0,4.2,2.05,17.21,17.21,0,0,0,5,.74A13.33,13.33,0,0,0,81.27,65,9.28,9.28,0,0,0,85.2,61.5a9.69,9.69,0,0,0,1.4-5.21,9.81,9.81,0,0,0-1.17-4.85,8.25,8.25,0,0,0-3.24-3.28A9.46,9.46,0,0,0,77.45,47Z"/></svg>