<svg id="Layer_1" data-name="Layer 1" xmlns="http://www.w3.org/2000/svg" viewBox="0 0 100 100"><defs><style>.cls-1{fill:#020202;}</style></defs><title>l16_5_1</title><path class="cls-1" d="M85.79,100H14.21A14.21,14.21,0,0,1,0,85.79V14.21A14.21,14.21,0,0,1,14.21,0H85.79A14.21,14.21,0,0,1,100,14.21V85.79A14.21,14.21,0,0,1,85.79,100ZM49.66,80.36a33.61,33.61,0,0,0,13-2.31,19.79,19.79,0,0,0,8.69-6.55,16.11,16.11,0,0,0,3.11-9.78A14.91,14.91,0,0,0,72.51,54,16.23,16.23,0,0,0,66,48.23,50.37,50.37,0,0,0,53.27,44a50.66,50.66,0,0,1-7.47-2,9.22,9.22,0,0,1-3.45-2,3.7,3.7,0,0,1-.92-2.6A5,5,0,0,1,44,33.11a12.82,12.82,0,0,1,6.89-1.63,24.77,24.77,0,0,1,5.75.63,19.19,19.19,0,0,1,4.62,1.68c1.32.7,2.12,1.13,2.4,1.3a13.62,13.62,0,0,0,2.6,1.3,6.53,6.53,0,0,0,2,.3,4.35,4.35,0,0,0,3.48-1.85,6.81,6.81,0,0,0,1.47-4.37,6.41,6.41,0,0,0-.63-3,6.83,6.83,0,0,0-2.14-2.31A27.14,27.14,0,0,0,61.76,21a40.39,40.39,0,0,0-10.92-1.35,30.67,30.67,0,0,0-12.56,2.48A21.25,21.25,0,0,0,29.5,29a16.1,16.1,0,0,0-3.19,9.74,15.94,15.94,0,0,0,1.89,8,15.45,15.45,0,0,0,6.59,5.76,53.46,53.46,0,0,0,13,4.2q6.72,1.34,9.12,2.73c1.59.92,2.39,2,2.39,3.32a4.7,4.7,0,0,1-2.56,4.32q-2.57,1.47-7.52,1.47a32.17,32.17,0,0,1-7.69-.84,27.38,27.38,0,0,1-6.84-2.77,12.69,12.69,0,0,0-2.52-1.26,6.69,6.69,0,0,0-2.1-.34,4.47,4.47,0,0,0-3.53,1.85,6.67,6.67,0,0,0-1.51,4.37,6.36,6.36,0,0,0,.63,3,7.16,7.16,0,0,0,2.06,2.27,28.47,28.47,0,0,0,9.45,4.08A50.72,50.72,0,0,0,49.66,80.36Z"/></svg>