<svg id="Layer_1" data-name="Layer 1" xmlns="http://www.w3.org/2000/svg" viewBox="0 0 100 100"><defs><style>.cls-1{fill:#020202;}</style></defs><title>l16_2_1</title><path class="cls-1" d="M86,100H14.44A14.21,14.21,0,0,1,.23,85.79V14.21A14.21,14.21,0,0,1,14.44,0H86a14.21,14.21,0,0,1,14.21,14.21V85.79A14.21,14.21,0,0,1,86,100ZM23.55,72.16q8,0,12.2-5.68T40,50.08q0-10.68-4.24-16.35T23.55,28.05q-8,0-12.2,5.68T7.14,50.08q0,10.72,4.21,16.4T23.55,72.16Zm0-8.48q-2.94,0-4.21-3.17c-.86-2.12-1.28-5.59-1.28-10.43s.42-8.31,1.28-10.4,2.25-3.15,4.21-3.15,3.35,1.06,4.21,3.18S29,45.28,29,50.08s-.43,8.31-1.28,10.43S25.5,63.68,23.55,63.68ZM50.14,72a5.62,5.62,0,0,0,4.18-1.71,6.12,6.12,0,0,0,0-8.42,5.62,5.62,0,0,0-4.18-1.71,5.69,5.69,0,0,0-4.24,1.71,6.12,6.12,0,0,0,0,8.42A5.69,5.69,0,0,0,50.14,72ZM86,49.47a9.3,9.3,0,0,0,4.79-3.6,10.6,10.6,0,0,0,1.74-6.1A10.11,10.11,0,0,0,88.3,31.2q-4.24-3.15-11.56-3.15T65.21,31.2a10.06,10.06,0,0,0-4.27,8.57,10.35,10.35,0,0,0,1.71,5.94,10,10,0,0,0,4.88,3.76,10.16,10.16,0,0,0-5.74,3.63,10.71,10.71,0,0,0-2,6.67,10.51,10.51,0,0,0,4.54,9.06q4.55,3.27,12.42,3.27t12.41-3.27a10.51,10.51,0,0,0,4.54-9.06A10,10,0,0,0,86,49.47ZM76.74,63.62c-4.44,0-6.65-1.59-6.65-4.76s2.21-4.76,6.65-4.76,6.65,1.59,6.65,4.76S81.17,63.62,76.74,63.62Zm0-27.09a6.48,6.48,0,0,1,4.08,1.07,4.13,4.13,0,0,1,1.35,3.45,4.21,4.21,0,0,1-1.35,3.47,6.29,6.29,0,0,1-4.08,1.1,6.32,6.32,0,0,1-4.09-1.1,4.24,4.24,0,0,1-1.34-3.47,4.16,4.16,0,0,1,1.34-3.45A6.51,6.51,0,0,1,76.74,36.53Z"/></svg>