<svg id="Layer_1" data-name="Layer 1" xmlns="http://www.w3.org/2000/svg" viewBox="0 0 100 100"><defs><style>.cls-1{fill:#020202;}</style></defs><title>l16_2_1</title><path class="cls-1" d="M85.83,100H14.24A14.21,14.21,0,0,1,0,85.79V14.21A14.21,14.21,0,0,1,14.24,0H85.83A14.21,14.21,0,0,1,100,14.21V85.79A14.21,14.21,0,0,1,85.83,100ZM23.35,72.16q8,0,12.2-5.68t4.21-16.4q0-10.68-4.24-16.35T23.35,28.05q-8,0-12.2,5.68T6.94,50.08q0,10.72,4.21,16.4T23.35,72.16Zm0-8.48q-2.93,0-4.21-3.17c-.85-2.12-1.28-5.59-1.28-10.43s.43-8.31,1.28-10.4,2.26-3.15,4.21-3.15,3.36,1.06,4.21,3.18,1.28,5.57,1.28,10.37-.42,8.31-1.28,10.43S25.31,63.68,23.35,63.68ZM50,72a5.62,5.62,0,0,0,4.18-1.71,6.12,6.12,0,0,0,0-8.42A5.62,5.62,0,0,0,50,60.14a5.69,5.69,0,0,0-4.24,1.71,6.12,6.12,0,0,0,0,8.42A5.69,5.69,0,0,0,50,72ZM89.48,62.7h-5V33.79a5.29,5.29,0,0,0-1.49-4A5.42,5.42,0,0,0,79,28.36,10.38,10.38,0,0,0,74,29.88l-9.76,5.68a4.13,4.13,0,0,0-2.13,3.78,5.07,5.07,0,0,0,1.22,3.32,3.66,3.66,0,0,0,2.92,1.5,4.12,4.12,0,0,0,2.14-.61l4.88-2.87v22H68.31a6.14,6.14,0,0,0-4,1.1A4.11,4.11,0,0,0,63,67.09q0,4.51,5.31,4.52H89.48q5.3,0,5.3-4.52A4.07,4.07,0,0,0,93.5,63.8,6.09,6.09,0,0,0,89.48,62.7Z"/></svg>