<svg id="Layer_1" data-name="Layer 1" xmlns="http://www.w3.org/2000/svg" viewBox="0 0 100 100"><defs><style>.cls-1{fill:#020202;}</style></defs><title>s16_1</title><path class="cls-1" d="M84.51,99.9h-69A15.39,15.39,0,0,1,.1,84.51v-69A15.39,15.39,0,0,1,15.49.1h69A15.39,15.39,0,0,1,99.9,15.49v69A15.39,15.39,0,0,1,84.51,99.9Zm-56.17-53a8,8,0,0,0-3.46.76,6.61,6.61,0,0,0-2.52,2.07,10.89,10.89,0,0,1,1.53-5.35,3.94,3.94,0,0,1,3.39-1.9,5.67,5.67,0,0,1,1.88.32c.6.22,1.36.55,2.26,1l.9.45c.52.27.93.47,1.23.59a2.56,2.56,0,0,0,1,.19,2.2,2.2,0,0,0,1.74-.88A3.31,3.31,0,0,0,37,41.94a3.06,3.06,0,0,0-.31-1.43,3.66,3.66,0,0,0-1-1.11,13,13,0,0,0-4.12-2,16,16,0,0,0-4.69-.74,11.11,11.11,0,0,0-6.38,1.85,12,12,0,0,0-4.22,5.27,19.81,19.81,0,0,0-1.5,8q0,7,3.16,10.75t8.94,3.77A10.69,10.69,0,0,0,32.12,65a9.12,9.12,0,0,0,3.58-3.55,11,11,0,0,0,.17-10,8.56,8.56,0,0,0-3.1-3.37A8.35,8.35,0,0,0,28.34,46.86ZM26.46,60.48a3.27,3.27,0,0,1-2.54-1.09,4,4,0,0,1-1-2.81,4.08,4.08,0,0,1,1-2.83,3.31,3.31,0,0,1,2.57-1.06,3.23,3.23,0,0,1,2.56,1,4.14,4.14,0,0,1,.92,2.85A4.1,4.1,0,0,1,29,59.41,3.23,3.23,0,0,1,26.46,60.48Zm32.63-1.73L46.92,54.08l12.17-4.67a2.2,2.2,0,0,0,1-.78,2.17,2.17,0,0,0,.37-1.23,2.52,2.52,0,0,0-.72-1.87,2.48,2.48,0,0,0-1.83-.72,4,4,0,0,0-1.27.25L43,50.35a4.07,4.07,0,0,0-1.86,1.5,3.84,3.84,0,0,0-.68,2.23A3.84,3.84,0,0,0,43,57.81L56.67,63.1a4,4,0,0,0,1.27.25,2.48,2.48,0,0,0,1.83-.72,2.52,2.52,0,0,0,.72-1.87,2.09,2.09,0,0,0-.37-1.21A2.54,2.54,0,0,0,59.09,58.75ZM83.36,37H67.29a4,4,0,0,0-2.7.76A2.87,2.87,0,0,0,63.73,40a2.79,2.79,0,0,0,.84,2.21,4.1,4.1,0,0,0,2.72.74H77.54L67,61a3.8,3.8,0,0,0-.58,2,3,3,0,0,0,1.11,2.35,3.72,3.72,0,0,0,2.54,1,3.55,3.55,0,0,0,1.74-.47,3.91,3.91,0,0,0,1.42-1.46L85.66,42.81a5.25,5.25,0,0,0,.78-2.71,3.23,3.23,0,0,0-.8-2.24A2.94,2.94,0,0,0,83.36,37Z"/></svg>