<svg id="Layer_1" data-name="Layer 1" xmlns="http://www.w3.org/2000/svg" viewBox="0 0 100 100"><defs><style>.cls-1{fill:#020202;}</style></defs><title>l16_3_1</title><path class="cls-1" d="M85.79,100H14.21A14.21,14.21,0,0,1,0,85.8V14.21A14.21,14.21,0,0,1,14.21,0H85.79A14.21,14.21,0,0,1,100,14.21V85.8A14.21,14.21,0,0,1,85.79,100ZM50.71,53.39a13.65,13.65,0,0,0,6.7-5.1,14,14,0,0,0,2.4-8.13,14.77,14.77,0,0,0-2.57-8.6,16.56,16.56,0,0,0-7.33-5.73,28,28,0,0,0-11-2,33.81,33.81,0,0,0-10,1.51,28.17,28.17,0,0,0-8.56,4.22,6.85,6.85,0,0,0-2,2.27,6.62,6.62,0,0,0-.59,2.95,6.94,6.94,0,0,0,1.43,4.43A4.36,4.36,0,0,0,22.72,41a5.4,5.4,0,0,0,2.11-.38c.62-.25,1.46-.66,2.53-1.22l1.77-.84a45.1,45.1,0,0,1,4.59-2,12.88,12.88,0,0,1,4.43-.75,7.26,7.26,0,0,1,5.14,1.72,6.34,6.34,0,0,1,1.85,4.85,4.73,4.73,0,0,1-2.1,4.3Q40.93,48,36.29,48h-3.7a4.83,4.83,0,0,0-4,1.77,6.93,6.93,0,0,0,0,8.43,4.83,4.83,0,0,0,4,1.77h5.22c3.2,0,5.51.47,6.91,1.43a5.29,5.29,0,0,1,2.11,4.72q0,3.54-2.07,5.06T38,72.69A15.26,15.26,0,0,1,33.13,72a37.62,37.62,0,0,1-4.84-2.07l-1.06-.46-.8-.38c-1.07-.56-1.91-1-2.53-1.22a5.38,5.38,0,0,0-2.1-.38,4.33,4.33,0,0,0-3.54,1.81,6.89,6.89,0,0,0-1.44,4.43,5.9,5.9,0,0,0,2.62,5.22,26.89,26.89,0,0,0,8.76,4.26,37.54,37.54,0,0,0,10.54,1.47A31.55,31.55,0,0,0,50.66,82.6a17.8,17.8,0,0,0,7.89-5.86,14.73,14.73,0,0,0,2.78-8.93,14.91,14.91,0,0,0-2.83-9.19A14.36,14.36,0,0,0,50.71,53.39Zm29.13-19h-7.7l5.44-5.56a17.63,17.63,0,0,0,3.2-4.31,9.59,9.59,0,0,0,.94-4.27,7,7,0,0,0-1.17-4,7.46,7.46,0,0,0-3.31-2.69,12.43,12.43,0,0,0-5-.93,15,15,0,0,0-4.43.69,14.6,14.6,0,0,0-4,1.91,2.58,2.58,0,0,0-.94,1,3.34,3.34,0,0,0-.25,1.38,3.34,3.34,0,0,0,.65,2.05,2,2,0,0,0,1.61.86,2.19,2.19,0,0,0,.73-.12,4,4,0,0,0,.79-.36l.59-.33.77-.38a18,18,0,0,1,2.16-.94A6.16,6.16,0,0,1,72,18a3,3,0,0,1,2.13.69,2.6,2.6,0,0,1,.74,2q0,2.22-2.52,4.86L64.17,34a4.18,4.18,0,0,0-1.3,3,2.8,2.8,0,0,0,3,2.91h14a3.84,3.84,0,0,0,2.51-.69,2.63,2.63,0,0,0,.83-2.14A2.52,2.52,0,0,0,82.35,35,3.9,3.9,0,0,0,79.84,34.34Z"/></svg>