<svg id="Layer_1" data-name="Layer 1" xmlns="http://www.w3.org/2000/svg" viewBox="0 0 100 100"><defs><style>.cls-1{fill:#020202;}</style></defs><title>l16_4_1</title><path class="cls-1" d="M85.62,100H14A14.21,14.21,0,0,1-.17,85.79V14.2A14.21,14.21,0,0,1,14,0H85.62A14.21,14.21,0,0,1,99.83,14.2V85.79A14.21,14.21,0,0,1,85.62,100ZM49.74,80A7.86,7.86,0,0,0,55.41,78a7.27,7.27,0,0,0,2.14-5.5V32.9H69.4c2.46,0,4.3-.52,5.5-1.55a6,6,0,0,0,1.81-4.75,5.8,5.8,0,0,0-1.81-4.7c-1.2-1-3-1.51-5.5-1.51H30.09c-2.47,0-4.3.5-5.51,1.51a5.79,5.79,0,0,0-1.8,4.7,6,6,0,0,0,1.8,4.75c1.21,1,3,1.55,5.51,1.55H41.93V72.47A7.27,7.27,0,0,0,44.07,78,7.86,7.86,0,0,0,49.74,80Z"/></svg>