<svg id="Layer_1" data-name="Layer 1" xmlns="http://www.w3.org/2000/svg" viewBox="0 0 100 100"><defs><style>.cls-1{fill:#020202;}</style></defs><title>l16_4_1</title><path class="cls-1" d="M85.36,100H13.78A14.21,14.21,0,0,1-.43,85.79V14.2A14.21,14.21,0,0,1,13.78,0H85.36A14.21,14.21,0,0,1,99.57,14.2V85.79A14.21,14.21,0,0,1,85.36,100ZM45.44,61.22,37,53.13l7.42-7.34a5.42,5.42,0,0,0,1.76-3.88,5.2,5.2,0,0,0-1.66-3.77,5.27,5.27,0,0,0-7.79.1L24.15,51V28a5.18,5.18,0,0,0-1.73-4.22,6.59,6.59,0,0,0-4.32-1.42,6.59,6.59,0,0,0-4.32,1.42A5.18,5.18,0,0,0,12.05,28V65.3a5.16,5.16,0,0,0,1.73,4.22A6.6,6.6,0,0,0,18.1,71a6.6,6.6,0,0,0,4.32-1.43,5.16,5.16,0,0,0,1.73-4.22V56.12L38,69.25a5.76,5.76,0,0,0,3.8,1.7,5,5,0,0,0,3.85-1.77,5.85,5.85,0,0,0,1.59-4A5.32,5.32,0,0,0,45.44,61.22ZM80.93,36.47a6.31,6.31,0,0,0-4.18,1.33A4.83,4.83,0,0,0,75,41.43a10.28,10.28,0,0,0-4.29-3.74,13.87,13.87,0,0,0-6.12-1.36,14.62,14.62,0,0,0-7.75,2.08,14,14,0,0,0-5.3,5.88,19.35,19.35,0,0,0-1.91,8.77,19.16,19.16,0,0,0,1.91,8.74,13.84,13.84,0,0,0,5.3,5.81,14.78,14.78,0,0,0,7.75,2,13.91,13.91,0,0,0,6-1.32A10.44,10.44,0,0,0,75,64.76v2.58c0,2.5-.65,4.32-1.94,5.48s-3.32,1.73-6.09,1.73a15.45,15.45,0,0,1-3.33-.37c-1.09-.25-2.33-.61-3.74-1.06a17.67,17.67,0,0,0-4.42-1,3.13,3.13,0,0,0-2.55,1.23,4.9,4.9,0,0,0-1,3.19A4.34,4.34,0,0,0,52.61,79a5.53,5.53,0,0,0,1.94,1.77,19.5,19.5,0,0,0,5.64,2,35.56,35.56,0,0,0,7.07.68q9.66,0,14.66-4.28t5-12.58V42.05a5.29,5.29,0,0,0-1.64-4A6.09,6.09,0,0,0,80.93,36.47ZM68.28,60.61a6.2,6.2,0,0,1-4.86-2,8,8,0,0,1-1.8-5.54,8.31,8.31,0,0,1,1.77-5.68,7,7,0,0,1,9.86,0A8.32,8.32,0,0,1,75,53.06a8.07,8.07,0,0,1-1.77,5.58A6.35,6.35,0,0,1,68.28,60.61Z"/></svg>