<svg id="Layer_1" data-name="Layer 1" xmlns="http://www.w3.org/2000/svg" viewBox="0 0 100 100"><defs><style>.cls-1{fill:#020202;}</style></defs><title>l16_2_1</title><path class="cls-1" d="M86,99.82H14.43A14.21,14.21,0,0,1,.23,85.61V14A14.21,14.21,0,0,1,14.43-.18H86A14.21,14.21,0,0,1,100.23,14V85.61A14.21,14.21,0,0,1,86,99.82ZM60.13,31.31h-4V8.08a4.24,4.24,0,0,0-1.2-3.18,4.29,4.29,0,0,0-3.16-1.18,8.34,8.34,0,0,0-4.07,1.22L39.84,9.5a3.34,3.34,0,0,0-1.71,3,4.08,4.08,0,0,0,1,2.67,2.93,2.93,0,0,0,2.35,1.2,3.27,3.27,0,0,0,1.71-.49l3.92-2.3V31.31h-4a4.92,4.92,0,0,0-3.24.88,3.31,3.31,0,0,0-1,2.64q0,3.63,4.27,3.63h17q4.26,0,4.26-3.63a3.28,3.28,0,0,0-1-2.64A4.87,4.87,0,0,0,60.13,31.31ZM60,79.17H58.93V61.48A4.12,4.12,0,0,0,57.6,58.2,4.59,4.59,0,0,0,54.42,57a4.94,4.94,0,0,0-2.18.51A4.65,4.65,0,0,0,50.5,59l-14,20a5.47,5.47,0,0,0-1.08,3.23,3.74,3.74,0,0,0,1,2.7A3.65,3.65,0,0,0,39.23,86H50.16v1.66A4.37,4.37,0,0,0,51.36,91a4.42,4.42,0,0,0,3.16,1.12A4.51,4.51,0,0,0,57.7,91a4.31,4.31,0,0,0,1.23-3.34V86H60q4.26,0,4.26-3.48T60,79.17Zm-15.73,0,5.88-8.48v8.48ZM73.22,46.86h0a3.65,3.65,0,0,0-3.65-3.65H29.9a3.65,3.65,0,0,0-3.64,3.65h0a3.65,3.65,0,0,0,3.64,3.65H69.57A3.65,3.65,0,0,0,73.22,46.86Z"/></svg>