<svg id="Layer_1" data-name="Layer 1" xmlns="http://www.w3.org/2000/svg" viewBox="0 0 100 100"><defs><style>.cls-1{fill:#020202;}</style></defs><title>s16_1</title><path class="cls-1" d="M85.06,99.85h-69A15.39,15.39,0,0,1,.66,84.45v-69A15.39,15.39,0,0,1,16.05.05h69a15.39,15.39,0,0,1,15.4,15.39v69A15.39,15.39,0,0,1,85.06,99.85ZM9.63,59.62h7.71a3.74,3.74,0,0,0,2.57-.76,2.73,2.73,0,0,0,.84-2.11,2.67,2.67,0,0,0-.84-2.09,3.85,3.85,0,0,0-2.57-.74H9.63c-2.26,0-3.4.95-3.4,2.83S7.37,59.62,9.63,59.62ZM40.14,52.9a6.7,6.7,0,0,0,3.26-2.48,6.82,6.82,0,0,0,1.17-4,7.18,7.18,0,0,0-1.25-4.18,8.14,8.14,0,0,0-3.57-2.79,13.69,13.69,0,0,0-5.35-1,16.19,16.19,0,0,0-4.86.74,13.36,13.36,0,0,0-4.16,2,3.33,3.33,0,0,0-1,1.1,3.24,3.24,0,0,0-.28,1.44A3.38,3.38,0,0,0,24.8,46a2.12,2.12,0,0,0,1.73.88,2.73,2.73,0,0,0,1-.18c.3-.13.71-.32,1.23-.6l.86-.41a20.77,20.77,0,0,1,2.24-1A6.07,6.07,0,0,1,34,44.33a3.52,3.52,0,0,1,2.5.84,3.07,3.07,0,0,1,.9,2.36,2.31,2.31,0,0,1-1,2.09,6.27,6.27,0,0,1-3.28.66H31.32a2.31,2.31,0,0,0-1.92.86,3.11,3.11,0,0,0-.7,2,3.15,3.15,0,0,0,.7,2.05,2.33,2.33,0,0,0,1.92.86h2.55a6.24,6.24,0,0,1,3.36.69,2.59,2.59,0,0,1,1,2.3,2.84,2.84,0,0,1-1,2.46,5.7,5.7,0,0,1-3.3.74,7.5,7.5,0,0,1-2.36-.35,17.9,17.9,0,0,1-2.36-1l-.51-.22-.39-.18a12.91,12.91,0,0,0-1.23-.6,2.73,2.73,0,0,0-1-.18,2.12,2.12,0,0,0-1.73.88,3.38,3.38,0,0,0-.69,2.15,3.2,3.2,0,0,0,.28,1.41,3.12,3.12,0,0,0,1,1.13,13.21,13.21,0,0,0,4.26,2.07,18.17,18.17,0,0,0,5.13.72,15.42,15.42,0,0,0,5.8-1A8.62,8.62,0,0,0,44,64.26a7.17,7.17,0,0,0,1.35-4.35,7.24,7.24,0,0,0-1.37-4.47A6.93,6.93,0,0,0,40.14,52.9Zm28,7.75L56,56,68.14,51.3a2.08,2.08,0,0,0,1-.78,2.13,2.13,0,0,0,.37-1.23A2.47,2.47,0,0,0,67,46.71a4,4,0,0,0-1.27.24L52.07,52.24a4.15,4.15,0,0,0-1.87,1.5A3.9,3.9,0,0,0,49.53,56a4,4,0,0,0,.67,2.3,3.89,3.89,0,0,0,1.87,1.43L65.72,65a3.75,3.75,0,0,0,1.27.25,2.48,2.48,0,0,0,1.83-.72,2.52,2.52,0,0,0,.72-1.86,2,2,0,0,0-.37-1.21A2.45,2.45,0,0,0,68.14,60.65Zm21.2-7.75a6.7,6.7,0,0,0,3.26-2.48,6.82,6.82,0,0,0,1.17-4,7.18,7.18,0,0,0-1.25-4.18A8.14,8.14,0,0,0,89,39.49a13.72,13.72,0,0,0-5.35-1,16.19,16.19,0,0,0-4.86.74,13.36,13.36,0,0,0-4.16,2,3.33,3.33,0,0,0-1,1.1,3.24,3.24,0,0,0-.28,1.44A3.38,3.38,0,0,0,74,46a2.12,2.12,0,0,0,1.73.88,2.73,2.73,0,0,0,1-.18c.3-.13.71-.32,1.23-.6l.86-.41a20.77,20.77,0,0,1,2.24-1,6.07,6.07,0,0,1,2.15-.37,3.53,3.53,0,0,1,2.5.84,3.07,3.07,0,0,1,.9,2.36,2.31,2.31,0,0,1-1,2.09,6.27,6.27,0,0,1-3.28.66H80.52a2.31,2.31,0,0,0-1.92.86,3.11,3.11,0,0,0-.7,2,3.15,3.15,0,0,0,.7,2.05,2.33,2.33,0,0,0,1.92.86h2.55a6.24,6.24,0,0,1,3.36.69,2.59,2.59,0,0,1,1,2.3,2.84,2.84,0,0,1-1,2.46,5.7,5.7,0,0,1-3.3.74,7.5,7.5,0,0,1-2.36-.35,17.9,17.9,0,0,1-2.36-1l-.51-.22-.39-.18a12.91,12.91,0,0,0-1.23-.6,2.73,2.73,0,0,0-1-.18,2.12,2.12,0,0,0-1.73.88,3.38,3.38,0,0,0-.69,2.15,3.2,3.2,0,0,0,.28,1.41,3.12,3.12,0,0,0,1,1.13,13.21,13.21,0,0,0,4.26,2.07,18.17,18.17,0,0,0,5.13.72,15.42,15.42,0,0,0,5.8-1,8.62,8.62,0,0,0,3.83-2.85,7.17,7.17,0,0,0,1.35-4.35,7.24,7.24,0,0,0-1.37-4.47A7,7,0,0,0,89.34,52.9Z"/></svg>