<svg id="Layer_1" data-name="Layer 1" xmlns="http://www.w3.org/2000/svg" viewBox="0 0 100 100"><defs><style>.cls-1{fill:#020202;}</style></defs><title>l16_2_1</title><path class="cls-1" d="M85.91,100.53H14.32A14.21,14.21,0,0,1,.12,86.32V14.73A14.2,14.2,0,0,1,14.32.53H85.91a14.21,14.21,0,0,1,14.21,14.2V86.32A14.21,14.21,0,0,1,85.91,100.53ZM60,32H56V8.79A4.28,4.28,0,0,0,54.8,5.6a4.34,4.34,0,0,0-3.16-1.17,8.34,8.34,0,0,0-4.07,1.22l-7.84,4.56a3.34,3.34,0,0,0-1.71,3,4.08,4.08,0,0,0,1,2.67,2.93,2.93,0,0,0,2.35,1.2,3.27,3.27,0,0,0,1.71-.49L47,14.33V32H43a4.89,4.89,0,0,0-3.23.88,3.28,3.28,0,0,0-1,2.64q0,3.63,4.26,3.63H60q4.26,0,4.26-3.63a3.28,3.28,0,0,0-1-2.64A4.89,4.89,0,0,0,60,32ZM48.13,57.58a12.65,12.65,0,0,0-6.22,1.52,10.93,10.93,0,0,0-4.29,4.24,12.21,12.21,0,0,0-1.54,6.15,12.35,12.35,0,0,0,1.35,5.81,10.1,10.1,0,0,0,3.7,4,9.85,9.85,0,0,0,5.29,1.45,9.37,9.37,0,0,0,4.14-.91,7.74,7.74,0,0,0,3-2.47,13.06,13.06,0,0,1-1.83,6.39,4.7,4.7,0,0,1-4.05,2.28,6.57,6.57,0,0,1-2.25-.39,27.71,27.71,0,0,1-2.7-1.18l-1.07-.54c-.63-.32-1.11-.56-1.47-.71A3.37,3.37,0,0,0,39,83a2.57,2.57,0,0,0-2.08,1.06A4,4,0,0,0,36,86.64a3.52,3.52,0,0,0,.37,1.71,4.17,4.17,0,0,0,1.2,1.33,15.75,15.75,0,0,0,4.92,2.45,19.27,19.27,0,0,0,5.61.88,13.26,13.26,0,0,0,7.62-2.21,14.17,14.17,0,0,0,5-6.29,23.8,23.8,0,0,0,1.79-9.58c0-5.56-1.26-9.83-3.77-12.84S52.74,57.58,48.13,57.58Zm.54,16.22a3.89,3.89,0,0,1-3.06-1.25,5.75,5.75,0,0,1,0-6.79,4.24,4.24,0,0,1,6.08,0,4.79,4.79,0,0,1,1.18,3.36,4.89,4.89,0,0,1-1.15,3.38A3.93,3.93,0,0,1,48.67,73.8ZM73.11,47.57h0a3.64,3.64,0,0,0-3.65-3.65H29.79a3.64,3.64,0,0,0-3.64,3.65h0a3.64,3.64,0,0,0,3.64,3.64H69.46A3.64,3.64,0,0,0,73.11,47.57Z"/></svg>