<svg id="Layer_1" data-name="Layer 1" xmlns="http://www.w3.org/2000/svg" viewBox="0 0 100 100"><defs><style>.cls-1{fill:#020202;}</style></defs><title>l16_2_1</title><path class="cls-1" d="M85.79,100H14.21A14.21,14.21,0,0,1,0,85.79V14.21A14.21,14.21,0,0,1,14.21,0H85.79A14.21,14.21,0,0,1,100,14.21V85.79A14.21,14.21,0,0,1,85.79,100ZM23.32,72.16q8,0,12.2-5.68t4.21-16.4q0-10.68-4.24-16.35T23.32,28.05q-8,0-12.2,5.68T6.91,50.08q0,10.72,4.21,16.4T23.32,72.16Zm0-8.48q-2.94,0-4.21-3.17c-.86-2.12-1.28-5.59-1.28-10.43s.42-8.31,1.28-10.4,2.25-3.15,4.21-3.15,3.35,1.06,4.21,3.18,1.28,5.57,1.28,10.37-.43,8.31-1.28,10.43S25.27,63.68,23.32,63.68ZM49.91,72a5.62,5.62,0,0,0,4.18-1.71,6.12,6.12,0,0,0,0-8.42,5.62,5.62,0,0,0-4.18-1.71,5.69,5.69,0,0,0-4.24,1.71,6.14,6.14,0,0,0,0,8.42A5.69,5.69,0,0,0,49.91,72ZM89.62,55.81H88.28v-22a5.19,5.19,0,0,0-1.65-4.09,5.77,5.77,0,0,0-4-1.46,6.1,6.1,0,0,0-2.72.64,5.69,5.69,0,0,0-2.16,1.86L60.34,55.63a6.85,6.85,0,0,0-1.34,4A4.69,4.69,0,0,0,60.28,63a4.59,4.59,0,0,0,3.48,1.34h13.6v2.07a5.41,5.41,0,0,0,1.5,4.15A5.47,5.47,0,0,0,82.79,72a5.58,5.58,0,0,0,4-1.41,5.35,5.35,0,0,0,1.53-4.15V64.35h1.34q5.31,0,5.31-4.33T89.62,55.81ZM70,55.81l7.32-10.55V55.81Z"/></svg>