<svg id="Layer_1" data-name="Layer 1" xmlns="http://www.w3.org/2000/svg" viewBox="0 0 100 100"><defs><style>.cls-1{fill:#020202;}</style></defs><title>l16_3_1</title><path class="cls-1" d="M85.79,100H14.21A14.21,14.21,0,0,1,0,85.79V14.21A14.21,14.21,0,0,1,14.21,0H85.79A14.21,14.21,0,0,1,100,14.21V85.79A14.21,14.21,0,0,1,85.79,100Zm-62-39.33H36a5.94,5.94,0,0,0,4.07-1.2,4.31,4.31,0,0,0,1.33-3.35,4.19,4.19,0,0,0-1.33-3.31A6,6,0,0,0,36,51.64H23.77q-5.39,0-5.39,4.48C18.38,59.16,20.18,60.67,23.77,60.67ZM76,64.12H62.9l9.23-9.43a30.14,30.14,0,0,0,5.43-7.31,16.4,16.4,0,0,0,1.59-7.25,11.93,11.93,0,0,0-2-6.79,12.71,12.71,0,0,0-5.62-4.55A21,21,0,0,0,63.1,27.2a26.48,26.48,0,0,0-14.37,4.42,4.26,4.26,0,0,0-1.59,1.69,6.3,6.3,0,0,0,.68,5.82,3.33,3.33,0,0,0,2.73,1.46,3.93,3.93,0,0,0,1.24-.2,7.85,7.85,0,0,0,1.33-.61l1-.56,1.3-.65A31.87,31.87,0,0,1,59.1,37a10.5,10.5,0,0,1,3.48-.55,5.14,5.14,0,0,1,3.61,1.17A4.39,4.39,0,0,1,67.45,41q0,3.77-4.29,8.25L49.38,63.6a7.14,7.14,0,0,0-2.21,5.07,4.86,4.86,0,0,0,1.37,3.54,4.94,4.94,0,0,0,3.7,1.4H76a6.56,6.56,0,0,0,4.26-1.17,4.48,4.48,0,0,0,1.39-3.64,4.3,4.3,0,0,0-1.39-3.54A6.69,6.69,0,0,0,76,64.12Z"/></svg>