<svg id="Layer_1" data-name="Layer 1" xmlns="http://www.w3.org/2000/svg" viewBox="0 0 100 100"><defs><style>.cls-1{fill:#020202;}</style></defs><title>l16_5_1</title><path class="cls-1" d="M85.94,100H14.35A14.21,14.21,0,0,1,.14,85.79V14.21A14.21,14.21,0,0,1,14.35,0H85.94a14.21,14.21,0,0,1,14.2,14.21V85.79A14.21,14.21,0,0,1,85.94,100Zm-5.7-75.12-12,33.85L56.8,25A7,7,0,0,0,50,20a7.33,7.33,0,0,0-4.16,1.26,7,7,0,0,0-2.73,3.62L30.93,58,19.42,24.88a6.69,6.69,0,0,0-2.81-3.66A8.12,8.12,0,0,0,12.28,20a8,8,0,0,0-5.17,1.81,6,6,0,0,0-2.22,4.91,9.51,9.51,0,0,0,.59,3.2l17,45.69a6.82,6.82,0,0,0,3,3.66,9.39,9.39,0,0,0,4.87,1.3,9.29,9.29,0,0,0,4.79-1.3,7.29,7.29,0,0,0,3.11-3.66L49.66,44.45,60.58,75.61a6.84,6.84,0,0,0,3,3.66,9.43,9.43,0,0,0,4.88,1.3,9.64,9.64,0,0,0,4.91-1.3,6.79,6.79,0,0,0,3.06-3.66L93.34,29.92A11,11,0,0,0,94,26.56,6,6,0,0,0,92,21.77,7.17,7.17,0,0,0,87.12,20,7.37,7.37,0,0,0,83,21.26,7,7,0,0,0,80.24,24.88Z"/></svg>