<svg id="Layer_1" data-name="Layer 1" xmlns="http://www.w3.org/2000/svg" viewBox="0 0 100 100"><defs><style>.cls-1{fill:#020202;}</style></defs><title>l16_3_1</title><path class="cls-1" d="M85.79,100H14.21A14.21,14.21,0,0,1,0,85.79V14.21A14.21,14.21,0,0,1,14.21,0H85.79A14.21,14.21,0,0,1,100,14.21V85.79A14.21,14.21,0,0,1,85.79,100ZM58.63,62.09H56.78V31.66A7.14,7.14,0,0,0,54.5,26,8,8,0,0,0,49,24a8.47,8.47,0,0,0-3.75.89,7.64,7.64,0,0,0-3,2.57L18.17,61.84a9.46,9.46,0,0,0-1.85,5.56A6.47,6.47,0,0,0,18.09,72a6.34,6.34,0,0,0,4.8,1.85h18.8v2.87a7.52,7.52,0,0,0,2.06,5.73,7.64,7.64,0,0,0,5.44,1.94,7.79,7.79,0,0,0,5.48-1.94,7.43,7.43,0,0,0,2.11-5.73V73.89h1.85q7.34,0,7.33-6Q66,62.09,58.63,62.09Zm-27.06,0L41.69,47.51V62.09ZM80.35,34.27h-7.7l5.44-5.56a17.9,17.9,0,0,0,3.2-4.31,9.72,9.72,0,0,0,.94-4.27,7,7,0,0,0-1.17-4,7.47,7.47,0,0,0-3.32-2.68,12.26,12.26,0,0,0-5-.94,15.64,15.64,0,0,0-8.46,2.6,2.51,2.51,0,0,0-.94,1,3.24,3.24,0,0,0-.25,1.38,3.34,3.34,0,0,0,.65,2.05,2,2,0,0,0,1.61.86,2.53,2.53,0,0,0,.73-.11,4.45,4.45,0,0,0,.78-.37l.6-.32.76-.39a18.76,18.76,0,0,1,2.17-.94,6.39,6.39,0,0,1,2-.32,3,3,0,0,1,2.12.69,2.56,2.56,0,0,1,.75,2q0,2.22-2.53,4.87L64.68,34a4.2,4.2,0,0,0-1.3,3,2.78,2.78,0,0,0,3,2.91h14a3.86,3.86,0,0,0,2.51-.69A2.63,2.63,0,0,0,83.68,37a2.53,2.53,0,0,0-.82-2.09A3.92,3.92,0,0,0,80.35,34.27Z"/></svg>