<svg id="Layer_1" data-name="Layer 1" xmlns="http://www.w3.org/2000/svg" viewBox="0 0 100 100"><defs><style>.cls-1{fill:#020202;}</style></defs><title>l16_4_1</title><path class="cls-1" d="M86.07,100H14.48A14.21,14.21,0,0,1,.27,85.79V14.21A14.21,14.21,0,0,1,14.48,0H86.07a14.21,14.21,0,0,1,14.2,14.21V85.79A14.21,14.21,0,0,1,86.07,100ZM38.47,39.39a10.38,10.38,0,0,0-5.13,1.27,9.94,9.94,0,0,0-3.62,3.43q-1.93-4.7-7.72-4.7-5.46,0-8.1,4a3.63,3.63,0,0,0-1.32-2.89,4.94,4.94,0,0,0-3.16-1A5.43,5.43,0,0,0,6,40.61a3.8,3.8,0,0,0-1.43,3.21V62.5a4,4,0,0,0,1.37,3.33,5.34,5.34,0,0,0,3.43,1.1,5.34,5.34,0,0,0,3.43-1.1,4,4,0,0,0,1.38-3.33V51.81a5.69,5.69,0,0,1,1.11-3.72,3.65,3.65,0,0,1,3-1.35,2.81,2.81,0,0,1,2.22.86,4.68,4.68,0,0,1,.75,3V62.5a4,4,0,0,0,1.38,3.33,5.34,5.34,0,0,0,3.43,1.1,5.35,5.35,0,0,0,3.46-1.1,4.09,4.09,0,0,0,1.35-3.33V51.81A5.59,5.59,0,0,1,32,48.09a3.75,3.75,0,0,1,3-1.35,2.81,2.81,0,0,1,2.22.86,4.68,4.68,0,0,1,.75,3V62.5a4,4,0,0,0,1.38,3.33,5.9,5.9,0,0,0,6.86,0,4,4,0,0,0,1.37-3.33V50.84q0-6.21-2.37-8.83A8.66,8.66,0,0,0,38.47,39.39Zm48.44,0a10.38,10.38,0,0,0-5.13,1.27,9.86,9.86,0,0,0-3.62,3.43q-1.95-4.7-7.72-4.7-5.46,0-8.1,4A3.61,3.61,0,0,0,61,40.5a4.92,4.92,0,0,0-3.16-1,5.4,5.4,0,0,0-3.42,1.11A3.81,3.81,0,0,0,53,43.82V62.5a4,4,0,0,0,1.38,3.33,5.9,5.9,0,0,0,6.86,0,4,4,0,0,0,1.38-3.33V51.81a5.75,5.75,0,0,1,1.1-3.72,3.68,3.68,0,0,1,3-1.35,2.83,2.83,0,0,1,2.22.86,4.68,4.68,0,0,1,.75,3V62.5a4,4,0,0,0,1.38,3.33,5.93,5.93,0,0,0,6.88,0,4.06,4.06,0,0,0,1.35-3.33V51.81a5.59,5.59,0,0,1,1.14-3.72,3.73,3.73,0,0,1,3-1.35,2.79,2.79,0,0,1,2.21.86,4.61,4.61,0,0,1,.76,3V62.5a4,4,0,0,0,1.38,3.33,5.9,5.9,0,0,0,6.86,0A4,4,0,0,0,96,62.5V50.84q0-6.21-2.37-8.83A8.69,8.69,0,0,0,86.91,39.39Z"/></svg>