<svg id="Layer_1" data-name="Layer 1" xmlns="http://www.w3.org/2000/svg" viewBox="0 0 100 100"><defs><style>.cls-1{fill:#020202;}</style></defs><title>l16_3_1</title><path class="cls-1" d="M85.79,100H14.21A14.21,14.21,0,0,1,0,85.79V14.21A14.21,14.21,0,0,1,14.21,0H85.79A14.21,14.21,0,0,1,100,14.21V85.79A14.21,14.21,0,0,1,85.79,100ZM41.58,51.05H33.39V42.86a3.84,3.84,0,1,0-7.67,0v8.19H17.53a3.77,3.77,0,0,0-3.83,3.84,3.84,3.84,0,0,0,1.1,2.76,3.66,3.66,0,0,0,2.73,1.14h8.19v8.12a3.88,3.88,0,0,0,6.6,2.73,3.72,3.72,0,0,0,1.07-2.73V58.79h8.19a3.63,3.63,0,0,0,2.73-1.14,3.81,3.81,0,0,0,1.11-2.76,3.79,3.79,0,0,0-3.84-3.84ZM80.65,64.12H67.58l9.23-9.43a30.14,30.14,0,0,0,5.43-7.31,16.4,16.4,0,0,0,1.59-7.25,11.93,11.93,0,0,0-2-6.79,12.71,12.71,0,0,0-5.62-4.55,21,21,0,0,0-8.45-1.59,26.48,26.48,0,0,0-14.37,4.42,4.26,4.26,0,0,0-1.59,1.69,6.3,6.3,0,0,0,.68,5.82,3.33,3.33,0,0,0,2.73,1.46,3.93,3.93,0,0,0,1.24-.2,7.85,7.85,0,0,0,1.33-.61l1-.56,1.3-.65A31.87,31.87,0,0,1,63.78,37a10.5,10.5,0,0,1,3.48-.55,5.1,5.1,0,0,1,3.6,1.17A4.36,4.36,0,0,1,72.13,41q0,3.77-4.29,8.25L54.06,63.6a7.14,7.14,0,0,0-2.21,5.07,4.86,4.86,0,0,0,1.37,3.54,4.94,4.94,0,0,0,3.7,1.4H80.65a6.51,6.51,0,0,0,4.25-1.17,4.45,4.45,0,0,0,1.4-3.64,4.28,4.28,0,0,0-1.4-3.54A6.64,6.64,0,0,0,80.65,64.12Z"/></svg>