<svg id="Layer_1" data-name="Layer 1" xmlns="http://www.w3.org/2000/svg" viewBox="0 0 150 100"><defs><style>.cls-1{fill:#020202;}</style></defs><title>s16_1</title><path class="cls-1" d="M113.1,100H41.52A14.21,14.21,0,0,1,27.31,85.79V14.21A14.21,14.21,0,0,1,41.52,0H113.1a14.21,14.21,0,0,1,14.21,14.21V85.79A14.21,14.21,0,0,1,113.1,100ZM69.82,61.37l-12.65-13L68.85,36.91a4.76,4.76,0,0,0,1.65-3.47,4.43,4.43,0,0,0-1.42-3.28,4.52,4.52,0,0,0-6.67.14l-16,16.13V33.89A5,5,0,0,0,45,30.16a5.3,5.3,0,0,0-3.88-1.4,5.13,5.13,0,0,0-3.79,1.4,5,5,0,0,0-1.39,3.73v30.5a4.8,4.8,0,0,0,5.18,5.18A5.3,5.3,0,0,0,45,68.18a5.07,5.07,0,0,0,1.42-3.79V50.93L62.64,67.58a5.3,5.3,0,0,0,3.87,1.82A4.6,4.6,0,0,0,69.88,68a4.53,4.53,0,0,0,1.42-3.31A4.44,4.44,0,0,0,69.82,61.37Zm41-20.87a10.91,10.91,0,0,0-5.41,1.34,10.46,10.46,0,0,0-3.82,3.62q-2.05-5-8.15-5-5.76,0-8.55,4.22a3.83,3.83,0,0,0-1.4-3,5.22,5.22,0,0,0-3.33-1.05,5.71,5.71,0,0,0-3.62,1.17A4,4,0,0,0,75,45.18V64.9a4.2,4.2,0,0,0,1.45,3.5,6.19,6.19,0,0,0,7.24,0,4.2,4.2,0,0,0,1.45-3.5V53.61a6,6,0,0,1,1.17-3.93,3.87,3.87,0,0,1,3.17-1.42,2.92,2.92,0,0,1,2.33.91,4.9,4.9,0,0,1,.8,3.19V64.9a4.2,4.2,0,0,0,1.45,3.5,6.23,6.23,0,0,0,7.27,0,4.25,4.25,0,0,0,1.43-3.5V53.61A6,6,0,0,1,104,49.68a4,4,0,0,1,3.2-1.42,2.92,2.92,0,0,1,2.33.91,4.9,4.9,0,0,1,.8,3.19V64.9a4.2,4.2,0,0,0,1.45,3.5,6.19,6.19,0,0,0,7.24,0,4.2,4.2,0,0,0,1.46-3.5V52.59q0-6.56-2.51-9.32A9.15,9.15,0,0,0,110.8,40.5Z"/></svg>