<svg id="Layer_1" data-name="Layer 1" xmlns="http://www.w3.org/2000/svg" viewBox="0 0 150 100"><defs><style>.cls-1{fill:#020202;}</style></defs><title>s16_1</title><path class="cls-1" d="M111.06,100H39.48A14.21,14.21,0,0,1,25.27,85.79V14.21A14.21,14.21,0,0,1,39.48,0h71.58a14.21,14.21,0,0,1,14.21,14.21V85.79A14.21,14.21,0,0,1,111.06,100ZM85.17,33.49h-4V10.26A4.24,4.24,0,0,0,80,7.08,4.29,4.29,0,0,0,76.79,5.9a8.29,8.29,0,0,0-4.07,1.23l-7.84,4.55a3.34,3.34,0,0,0-1.71,3,4.08,4.08,0,0,0,1,2.67,2.93,2.93,0,0,0,2.35,1.2,3.27,3.27,0,0,0,1.71-.49l3.92-2.3V33.49h-4a4.92,4.92,0,0,0-3.24.88,3.32,3.32,0,0,0-1,2.65q0,3.61,4.27,3.62h17q4.26,0,4.26-3.62a3.29,3.29,0,0,0-1-2.65A4.87,4.87,0,0,0,85.17,33.49ZM83.6,86.89H73.75l7-7.11a22.73,22.73,0,0,0,4.09-5.51A12.35,12.35,0,0,0,86,68.81a9,9,0,0,0-1.49-5.12,9.56,9.56,0,0,0-4.24-3.43,15.77,15.77,0,0,0-6.37-1.21,19.13,19.13,0,0,0-5.66.89,18.81,18.81,0,0,0-5.17,2.45,3.17,3.17,0,0,0-1.2,1.27,4.73,4.73,0,0,0,.51,4.39,2.51,2.51,0,0,0,2.06,1.1,2.83,2.83,0,0,0,.93-.15,6.11,6.11,0,0,0,1-.46c.37-.22.63-.35.76-.42l1-.49a23.47,23.47,0,0,1,2.77-1.2A7.87,7.87,0,0,1,73.51,66a3.92,3.92,0,0,1,2.72.88,3.33,3.33,0,0,1,1,2.55c0,1.9-1.08,4-3.23,6.23L63.56,86.49a5.39,5.39,0,0,0-1.67,3.83,3.7,3.7,0,0,0,1,2.67A3.75,3.75,0,0,0,65.72,94H83.6a4.9,4.9,0,0,0,3.21-.88,3.39,3.39,0,0,0,1-2.75,3.27,3.27,0,0,0-1-2.67A5,5,0,0,0,83.6,86.89ZM98.26,50h0a3.65,3.65,0,0,0-3.64-3.65H55A3.65,3.65,0,0,0,51.3,50h0A3.65,3.65,0,0,0,55,53.69H94.62A3.65,3.65,0,0,0,98.26,50Z"/></svg>