<svg id="Layer_1" data-name="Layer 1" xmlns="http://www.w3.org/2000/svg" viewBox="0 0 150 100"><defs><style>.cls-1{fill:#020202;}</style></defs><title>s16_3</title><path class="cls-1" d="M149.94,24.34V77A11.47,11.47,0,0,1,138.48,88.5H85.78A11.47,11.47,0,0,1,75,80.89,11.47,11.47,0,0,1,64.22,88.5H11.52A11.47,11.47,0,0,1,.06,77V24.34A11.46,11.46,0,0,1,11.52,12.88h52.7A11.46,11.46,0,0,1,75,20.48a11.46,11.46,0,0,1,10.78-7.6h52.7A11.46,11.46,0,0,1,149.94,24.34Zm-50.7,36h21.62q4.83,0,7.19-2.13a7.57,7.57,0,0,0,2.36-5.92,7.41,7.41,0,0,0-2.36-5.87q-2.36-2.07-7.19-2.07H99.24q-9.54,0-9.54,7.94T99.24,60.3ZM59.2,44H44.71V29.48a6.84,6.84,0,0,0-11.62-4.83,6.59,6.59,0,0,0-2,4.83V44H16.65a6.69,6.69,0,0,0-6.79,6.79,6.73,6.73,0,0,0,2,4.89,6.46,6.46,0,0,0,4.83,2H31.14V72a6.68,6.68,0,0,0,6.78,6.79,6.49,6.49,0,0,0,4.89-2A6.68,6.68,0,0,0,44.71,72V57.66H59.2a6.49,6.49,0,0,0,4.83-2,6.76,6.76,0,0,0,2-4.89A6.68,6.68,0,0,0,59.2,44Z"/></svg>