<svg id="Layer_1" data-name="Layer 1" xmlns="http://www.w3.org/2000/svg" viewBox="0 0 150 100"><defs><style>.cls-1{fill:#020202;}</style></defs><title>s16_1</title><path class="cls-1" d="M150,23.79V76.48A11.47,11.47,0,0,1,138.54,88H85.84a11.47,11.47,0,0,1-10.78-7.61A11.46,11.46,0,0,1,64.28,88H11.59A11.47,11.47,0,0,1,.12,76.48V23.79A11.46,11.46,0,0,1,11.59,12.33H64.28a11.45,11.45,0,0,1,10.78,7.6,11.46,11.46,0,0,1,10.78-7.6h52.7A11.46,11.46,0,0,1,150,23.79ZM134.27,63.62,100.11,50.51,134.27,37.4a5.83,5.83,0,0,0,3.91-5.63,7.12,7.12,0,0,0-2-5.24,6.92,6.92,0,0,0-5.11-2,10.79,10.79,0,0,0-3.57.69L89.19,40.05A11.43,11.43,0,0,0,84,44.24,11.63,11.63,0,0,0,84,57a10.89,10.89,0,0,0,5.24,4l38.29,14.83a10.79,10.79,0,0,0,3.57.69,6.92,6.92,0,0,0,5.11-2,7.09,7.09,0,0,0,2-5.23,5.67,5.67,0,0,0-1-3.4A6.92,6.92,0,0,0,134.27,63.62ZM58.91,40.74,20.62,25.91a10.83,10.83,0,0,0-3.57-.69,7,7,0,0,0-5.12,2,7.09,7.09,0,0,0-2,5.23,5.85,5.85,0,0,0,3.91,5.64L48,51.21,13.83,64.32A6.84,6.84,0,0,0,11,66.56a5.66,5.66,0,0,0-1,3.39,7.09,7.09,0,0,0,2,5.24,7,7,0,0,0,5.12,2,10.17,10.17,0,0,0,3.57-.69L58.91,61.67a10.74,10.74,0,0,0,5.23-4A11.06,11.06,0,0,0,66,51.21a11,11,0,0,0-1.9-6.27A11.31,11.31,0,0,0,58.91,40.74Z"/></svg>