<svg id="Layer_1" data-name="Layer 1" xmlns="http://www.w3.org/2000/svg" viewBox="0 0 200 150"><defs><style>.cls-1{fill:#020202;}</style></defs><title>g18</title><path class="cls-1" d="M187.66,77.22A12.35,12.35,0,0,1,200,89.56v32.27a12.34,12.34,0,0,1-12.34,12.34H111.72A12.33,12.33,0,0,1,100,125.69a12.33,12.33,0,0,1-11.72,8.48H12.34A12.34,12.34,0,0,1,0,121.83V89.56A12.35,12.35,0,0,1,12.34,77.22,12.35,12.35,0,0,1,0,64.88V32.61A12.34,12.34,0,0,1,12.34,20.27H88.28A12.33,12.33,0,0,1,100,28.75a12.33,12.33,0,0,1,11.72-8.48h75.94A12.34,12.34,0,0,1,200,32.61V64.88A12.35,12.35,0,0,1,187.66,77.22ZM55.08,58.73H46l6.45-6.58A21.4,21.4,0,0,0,56.19,47,11.48,11.48,0,0,0,57.3,42a8.23,8.23,0,0,0-1.39-4.74A8.82,8.82,0,0,0,52,34.06,14.65,14.65,0,0,0,46.09,33a17.86,17.86,0,0,0-5.24.81A18.09,18.09,0,0,0,36.06,36,3,3,0,0,0,35,37.21a3.88,3.88,0,0,0-.3,1.64,3.94,3.94,0,0,0,.77,2.43,2.32,2.32,0,0,0,1.91,1,2.72,2.72,0,0,0,.86-.14,5.25,5.25,0,0,0,.93-.43c.35-.2.58-.33.71-.39l.9-.45a23.45,23.45,0,0,1,2.57-1.11,7.29,7.29,0,0,1,2.43-.39,3.55,3.55,0,0,1,2.51.82,3,3,0,0,1,.89,2.36c0,1.75-1,3.68-3,5.76l-9.62,10A5,5,0,0,0,35,61.9a3.43,3.43,0,0,0,1,2.48,3.46,3.46,0,0,0,2.59,1H55.08a4.58,4.58,0,0,0,3-.81A3.13,3.13,0,0,0,59,62a3,3,0,0,0-1-2.48A4.64,4.64,0,0,0,55.08,58.73Zm1.05,50.8h-1V93.14a3.88,3.88,0,0,0-1.22-3A4.32,4.32,0,0,0,51,89a4.51,4.51,0,0,0-2,.48,4.15,4.15,0,0,0-1.61,1.39l-13,18.51a5.07,5.07,0,0,0-1,3,3.47,3.47,0,0,0,.95,2.49,3.4,3.4,0,0,0,2.59,1H47v1.55a4,4,0,0,0,1.11,3.08,4.09,4.09,0,0,0,2.93,1,4.18,4.18,0,0,0,3-1,4,4,0,0,0,1.13-3.08v-1.55h1q3.94,0,3.95-3.22T56.13,109.53Zm-14.57,0L47,101.68v7.85ZM71.25,76.45V76a3.62,3.62,0,0,0-3.62-3.61H25.68A3.62,3.62,0,0,0,22.06,76v.41a3.62,3.62,0,0,0,3.62,3.61H67.63A3.62,3.62,0,0,0,71.25,76.45Zm92.2-17.72h-3.72V37.21a3.92,3.92,0,0,0-1.12-3,4,4,0,0,0-2.92-1.09,7.65,7.65,0,0,0-3.77,1.14l-7.26,4.22a3.08,3.08,0,0,0-1.59,2.81,3.8,3.8,0,0,0,.91,2.48,2.72,2.72,0,0,0,2.17,1.11,3.09,3.09,0,0,0,1.59-.45l3.63-2.14V58.73H147.7a4.6,4.6,0,0,0-3,.81,3.09,3.09,0,0,0-.95,2.46q0,3.34,3.95,3.35h15.75q3.95,0,4-3.35a3.07,3.07,0,0,0-1-2.46A4.55,4.55,0,0,0,163.45,58.73Zm-10.14,52a2.59,2.59,0,0,0,1.66-.55,2.43,2.43,0,0,0,.89-1.54,4.25,4.25,0,0,1,1-1.84,21.36,21.36,0,0,1,2.29-2.11c1.06-.93,1.92-1.74,2.59-2.4a9.38,9.38,0,0,0,1.7-2.41,7,7,0,0,0-.61-7.15,8.81,8.81,0,0,0-3.64-2.81,12.89,12.89,0,0,0-5.26-1,17,17,0,0,0-5.24.84,16.35,16.35,0,0,0-4.65,2.33,4.06,4.06,0,0,0-1.12,1.23,3.4,3.4,0,0,0-.34,1.59,3.64,3.64,0,0,0,.8,2.38,2.41,2.41,0,0,0,1.93,1,5.52,5.52,0,0,0,2.49-.87l1.09-.54a17.36,17.36,0,0,1,2.29-1.11,5.75,5.75,0,0,1,2.07-.39,3.11,3.11,0,0,1,2,.59A2,2,0,0,1,156,97.5a3.3,3.3,0,0,1-.52,1.82,15.33,15.33,0,0,1-1.57,2,15.29,15.29,0,0,0-2.27,2.93,7.13,7.13,0,0,0-.81,3.56,3.26,3.26,0,0,0,.66,2.18A2.28,2.28,0,0,0,153.31,110.71Zm.1,10.85a4.25,4.25,0,0,0,3.15-1.27,4.56,4.56,0,0,0,0-6.27,4.25,4.25,0,0,0-3.15-1.27A4.19,4.19,0,0,0,150.3,114a4.56,4.56,0,0,0,0,6.27A4.19,4.19,0,0,0,153.41,121.56Zm25-45.11V76a3.62,3.62,0,0,0-3.62-3.61h-42A3.62,3.62,0,0,0,129.23,76v.41a3.62,3.62,0,0,0,3.62,3.61h42A3.62,3.62,0,0,0,178.42,76.45ZM86.36,73.77h28.2a4.29,4.29,0,0,0,3.2-1.33,4.49,4.49,0,0,0,1.29-3.24,4.42,4.42,0,0,0-4.49-4.5H86.36A4.28,4.28,0,0,0,83.16,66a4.46,4.46,0,0,0-1.3,3.24,4.42,4.42,0,0,0,4.5,4.49Zm0,15.24h28.2a4.29,4.29,0,0,0,3.2-1.33,4.49,4.49,0,0,0,1.29-3.24A4.41,4.41,0,0,0,114.56,80H86.36a4.27,4.27,0,0,0-3.2,1.33,4.46,4.46,0,0,0-1.3,3.24A4.42,4.42,0,0,0,86.36,89Z"/></svg>