<svg id="Layer_1" data-name="Layer 1" xmlns="http://www.w3.org/2000/svg" viewBox="0 0 100 100"><defs><style>.cls-1{fill:#020202;}</style></defs><title>l18_3_1</title><path class="cls-1" d="M100.23,60.65V82.73c0,4.66-2.76,8.44-6.17,8.44h-38c-2.73,0-5.05-2.43-5.86-5.8-.81,3.37-3.12,5.8-5.86,5.8h-38C3,91.17.23,87.39.23,82.73v-61C.23,17,3,13.23,6.41,13.23h38c2.74,0,5.05,2.43,5.86,5.8.81-3.37,3.13-5.8,5.86-5.8h38c3.41,0,6.17,3.78,6.17,8.45v39Zm-73-30.33A5.28,5.28,0,0,0,30,28.23a6.17,6.17,0,0,0,1-3.54,5.85,5.85,0,0,0-2.46-5,11,11,0,0,0-6.71-1.82,11,11,0,0,0-6.69,1.82,5.81,5.81,0,0,0-2.48,5,6,6,0,0,0,1,3.46,5.78,5.78,0,0,0,2.83,2.17,5.9,5.9,0,0,0-3.33,2.11A6.24,6.24,0,0,0,12,36.31a6.13,6.13,0,0,0,2.64,5.26,12.17,12.17,0,0,0,7.21,1.89,12.16,12.16,0,0,0,7.2-1.89,6.13,6.13,0,0,0,2.64-5.26,5.83,5.83,0,0,0-4.46-6Zm-5.38,8.22c-2.58,0-3.86-.92-3.86-2.76S19.27,33,21.85,33s3.86.93,3.86,2.77S24.42,38.54,21.85,38.54Zm0-15.72a3.73,3.73,0,0,1,2.37.62,2.4,2.4,0,0,1,.78,2,2.43,2.43,0,0,1-.78,2,3.66,3.66,0,0,1-2.37.64,3.65,3.65,0,0,1-2.37-.64,2.43,2.43,0,0,1-.78-2,2.4,2.4,0,0,1,.78-2A3.71,3.71,0,0,1,21.85,22.82Zm7.41,51.44h-.78V61.47a3,3,0,0,0-1-2.37,3.35,3.35,0,0,0-2.3-.85,3.48,3.48,0,0,0-1.57.37,3.28,3.28,0,0,0-1.26,1.08L12.26,74.15a4,4,0,0,0-.78,2.34,2.68,2.68,0,0,0,.75,1.94,2.64,2.64,0,0,0,2,.78h7.9v1.21A3.16,3.16,0,0,0,23,82.83a3.21,3.21,0,0,0,2.28.81,3.26,3.26,0,0,0,2.3-.81,3.13,3.13,0,0,0,.89-2.41V79.21h.78c2,0,3.08-.83,3.08-2.51S31.31,74.26,29.26,74.26Zm-11.37,0,4.25-6.13v6.13ZM44.54,50.8H57.16a1.89,1.89,0,0,0,1.43-.6,2,2,0,0,0,.58-1.45,2,2,0,0,0-2-2H44.54a1.93,1.93,0,0,0-1.44.6,2,2,0,0,0-.58,1.45,2,2,0,0,0,2,2Zm0,6.82H57.16A1.89,1.89,0,0,0,58.59,57a2,2,0,0,0,.58-1.45,2,2,0,0,0-2-2H44.54a1.92,1.92,0,0,0-1.44.59,2,2,0,0,0-.58,1.45,2,2,0,0,0,2,2Zm-6-6.57h0A2.54,2.54,0,0,0,36,48.51H6A2.54,2.54,0,0,0,3.5,51.05h0A2.54,2.54,0,0,0,6,53.58H36A2.54,2.54,0,0,0,38.49,51.05ZM85.44,30.32a5.25,5.25,0,0,0,2.77-2.09,6.09,6.09,0,0,0,1-3.54,5.85,5.85,0,0,0-2.46-5,11,11,0,0,0-6.71-1.82,11,11,0,0,0-6.69,1.82,5.84,5.84,0,0,0-2.48,5,6,6,0,0,0,1,3.46,5.8,5.8,0,0,0,2.84,2.17,5.9,5.9,0,0,0-3.33,2.11,6.24,6.24,0,0,0-1.17,3.88,6.13,6.13,0,0,0,2.64,5.26,12.16,12.16,0,0,0,7.2,1.89,12.17,12.17,0,0,0,7.21-1.89,6.13,6.13,0,0,0,2.64-5.26,5.83,5.83,0,0,0-4.46-6Zm-5.39,8.22q-3.85,0-3.86-2.76c0-1.84,1.29-2.77,3.86-2.77s3.86.93,3.86,2.77S82.63,38.54,80.05,38.54Zm0-15.72a3.74,3.74,0,0,1,2.38.62,2.42,2.42,0,0,1,.77,2,2.46,2.46,0,0,1-.77,2,4.73,4.73,0,0,1-4.75,0,2.43,2.43,0,0,1-.78-2,2.4,2.4,0,0,1,.78-2A3.73,3.73,0,0,1,80.05,22.82Zm-.38,52.36a2,2,0,0,0,1.3-.43,1.91,1.91,0,0,0,.69-1.2,3.23,3.23,0,0,1,.79-1.44,16.46,16.46,0,0,1,1.79-1.64c.83-.73,1.5-1.36,2-1.88a7.13,7.13,0,0,0,1.33-1.88,5.36,5.36,0,0,0,.55-2.4,5.25,5.25,0,0,0-1-3.17,6.84,6.84,0,0,0-2.83-2.2,10.15,10.15,0,0,0-4.11-.79,13.19,13.19,0,0,0-4.09.65,12.61,12.61,0,0,0-3.63,1.82,3.19,3.19,0,0,0-.87,1,2.68,2.68,0,0,0-.26,1.24,2.82,2.82,0,0,0,.62,1.86,1.86,1.86,0,0,0,1.5.76,4.28,4.28,0,0,0,2-.67l.85-.43A12,12,0,0,1,78,63.47a4.5,4.5,0,0,1,1.61-.3,2.46,2.46,0,0,1,1.56.46,1.54,1.54,0,0,1,.56,1.24,2.61,2.61,0,0,1-.4,1.42,12.23,12.23,0,0,1-1.23,1.52,11.9,11.9,0,0,0-1.77,2.29,5.56,5.56,0,0,0-.63,2.77,2.59,2.59,0,0,0,.51,1.71A1.78,1.78,0,0,0,79.67,75.18Zm.07,8.46a3.28,3.28,0,0,0,2.46-1,3.54,3.54,0,0,0,0-4.89,3.5,3.5,0,0,0-4.88,0,3.54,3.54,0,0,0,0,4.89A3.27,3.27,0,0,0,79.74,83.64Zm18-32.59h0a2.54,2.54,0,0,0-2.53-2.54H65.24a2.54,2.54,0,0,0-2.53,2.54h0a2.53,2.53,0,0,0,2.53,2.53H95.16A2.53,2.53,0,0,0,97.69,51.05Z"/></svg>