<svg id="Layer_1" data-name="Layer 1" xmlns="http://www.w3.org/2000/svg" viewBox="0 0 100 100"><defs><style>.cls-1{fill:#020202;}</style></defs><title>l18_2_1</title><path class="cls-1" d="M100.23,60.65V82.73c0,4.66-2.76,8.44-6.17,8.44h-38c-2.73,0-5.05-2.43-5.86-5.8-.81,3.37-3.12,5.8-5.86,5.8h-38C3,91.17.23,87.39.23,82.73v-61C.23,17,3,13.23,6.41,13.23h38c2.74,0,5.05,2.43,5.86,5.8.81-3.37,3.13-5.8,5.86-5.8h38c3.41,0,6.17,3.78,6.17,8.45v39ZM29.46,34h-.78V21.22a3,3,0,0,0-.95-2.37A3.4,3.4,0,0,0,25.42,18a3.65,3.65,0,0,0-1.57.37,3.28,3.28,0,0,0-1.26,1.08L12.46,33.9a4,4,0,0,0-.77,2.34A2.61,2.61,0,0,0,14.45,39h7.89v1.21a3.16,3.16,0,0,0,.87,2.41,3.21,3.21,0,0,0,2.28.81,3.29,3.29,0,0,0,2.31-.81,3.13,3.13,0,0,0,.88-2.41V39h.78c2.05,0,3.08-.83,3.08-2.51S31.51,34,29.46,34ZM18.09,34l4.25-6.13V34Zm.74,44.74H16.2V63.59a2.78,2.78,0,0,0-.78-2.08,2.82,2.82,0,0,0-2.06-.77,5.44,5.44,0,0,0-2.66.8l-5.12,3a2.17,2.17,0,0,0-1.12,2,2.66,2.66,0,0,0,.64,1.74A1.92,1.92,0,0,0,6.64,69a2.25,2.25,0,0,0,1.12-.32l2.56-1.51V78.75H7.73a3.25,3.25,0,0,0-2.12.58,2.14,2.14,0,0,0-.67,1.73q0,2.37,2.79,2.37h11.1c1.86,0,2.78-.79,2.78-2.37a2.14,2.14,0,0,0-.67-1.73A3.22,3.22,0,0,0,18.83,78.75Zm12.41,5a7.48,7.48,0,0,0,6.4-3c1.48-2,2.21-4.85,2.21-8.61s-.74-6.59-2.22-8.58a7.49,7.49,0,0,0-6.39-3,7.5,7.5,0,0,0-6.4,3q-2.2,3-2.2,8.58c0,3.76.73,6.62,2.2,8.61A7.5,7.5,0,0,0,31.24,83.71Zm0-4.44A2.29,2.29,0,0,1,29,77.6a15.82,15.82,0,0,1-.68-5.47A15.72,15.72,0,0,1,29,66.67a2.3,2.3,0,0,1,4.41,0,15.76,15.76,0,0,1,.67,5.44,15.88,15.88,0,0,1-.67,5.47A2.3,2.3,0,0,1,31.24,79.27ZM44.54,50.8H57.16a1.92,1.92,0,0,0,1.43-.59,2,2,0,0,0,.58-1.46,2,2,0,0,0-2-2H44.54a1.93,1.93,0,0,0-1.44.6,2,2,0,0,0-.58,1.45,2,2,0,0,0,2,2Zm0,6.83H57.16a1.89,1.89,0,0,0,1.43-.6,2,2,0,0,0,.58-1.45,2,2,0,0,0-2-2H44.54a1.92,1.92,0,0,0-1.44.59,2,2,0,0,0-.58,1.45,2,2,0,0,0,2,2Zm-6-6.58h0A2.54,2.54,0,0,0,36,48.51H6A2.54,2.54,0,0,0,3.5,51.05h0A2.54,2.54,0,0,0,6,53.58H36A2.54,2.54,0,0,0,38.49,51.05ZM87.67,34h-.78V21.22a3,3,0,0,0-1-2.37,3.37,3.37,0,0,0-2.3-.85,3.69,3.69,0,0,0-1.58.37,3.33,3.33,0,0,0-1.25,1.08L70.67,33.9a4,4,0,0,0-.78,2.34,2.7,2.7,0,0,0,.74,1.94,2.67,2.67,0,0,0,2,.78h7.9v1.21a3.16,3.16,0,0,0,.87,2.41,3.2,3.2,0,0,0,2.28.81,3.28,3.28,0,0,0,2.3-.81,3.13,3.13,0,0,0,.89-2.41V39h.78c2,0,3.08-.83,3.08-2.51S89.72,34,87.67,34ZM76.3,34l4.25-6.13V34Zm3.37,41.17a2,2,0,0,0,1.3-.43,1.91,1.91,0,0,0,.69-1.2,3.23,3.23,0,0,1,.79-1.44,15.56,15.56,0,0,1,1.79-1.64c.83-.73,1.5-1.36,2-1.88a7.13,7.13,0,0,0,1.33-1.88,5.36,5.36,0,0,0,.55-2.4,5.25,5.25,0,0,0-1-3.17,6.92,6.92,0,0,0-2.83-2.2,10.15,10.15,0,0,0-4.11-.79,13.19,13.19,0,0,0-4.09.65,12.61,12.61,0,0,0-3.63,1.82,3.19,3.19,0,0,0-.87,1,2.56,2.56,0,0,0-.26,1.24,2.82,2.82,0,0,0,.62,1.86,1.86,1.86,0,0,0,1.5.76,4.28,4.28,0,0,0,2-.67l.85-.43A12,12,0,0,1,78,63.47a4.5,4.5,0,0,1,1.61-.3,2.41,2.41,0,0,1,1.55.46,1.51,1.51,0,0,1,.57,1.24,2.61,2.61,0,0,1-.4,1.42,12.23,12.23,0,0,1-1.23,1.52,11.9,11.9,0,0,0-1.77,2.29,5.58,5.58,0,0,0-.63,2.78,2.57,2.57,0,0,0,.51,1.7A1.78,1.78,0,0,0,79.67,75.18Zm.07,8.46a3.29,3.29,0,0,0,2.46-1,3.54,3.54,0,0,0,0-4.89,3.29,3.29,0,0,0-2.46-1,3.25,3.25,0,0,0-2.42,1,3.54,3.54,0,0,0,0,4.89A3.25,3.25,0,0,0,79.74,83.64Zm18-32.59h0a2.54,2.54,0,0,0-2.53-2.54H65.24a2.54,2.54,0,0,0-2.53,2.54h0a2.53,2.53,0,0,0,2.53,2.53H95.16A2.53,2.53,0,0,0,97.69,51.05Z"/></svg>