<svg id="Layer_1" data-name="Layer 1" xmlns="http://www.w3.org/2000/svg" viewBox="0 0 100 100"><defs><style>.cls-1{fill:#020202;}</style></defs><title>l18_2_1</title><path class="cls-1" d="M100.23,60.65V82.73c0,4.66-2.76,8.44-6.17,8.44h-38c-2.73,0-5.05-2.43-5.86-5.8-.81,3.37-3.12,5.8-5.86,5.8h-38C3,91.17.23,87.39.23,82.73v-61C.23,17,3,13.23,6.41,13.23h38c2.74,0,5.05,2.43,5.86,5.8.81-3.37,3.13-5.8,5.86-5.8h38c3.41,0,6.17,3.78,6.17,8.45v39ZM26.34,30.32a5.66,5.66,0,0,0,2.82-2.14,5.92,5.92,0,0,0,1-3.42,6.2,6.2,0,0,0-1.08-3.61A6.88,6.88,0,0,0,26,18.75a11.72,11.72,0,0,0-4.62-.85,14.35,14.35,0,0,0-4.2.63A11.92,11.92,0,0,0,13.6,20.3a2.86,2.86,0,0,0-.85,1,2.69,2.69,0,0,0-.25,1.24,2.92,2.92,0,0,0,.6,1.86,1.83,1.83,0,0,0,1.49.76,2.23,2.23,0,0,0,.88-.16c.26-.11.62-.28,1.07-.51l.74-.36a19.51,19.51,0,0,1,1.93-.85,5.42,5.42,0,0,1,1.86-.32,3.07,3.07,0,0,1,2.16.73,2.64,2.64,0,0,1,.78,2,2,2,0,0,1-.89,1.8,5.38,5.38,0,0,1-2.83.57H18.73a2,2,0,0,0-1.66.74,2.76,2.76,0,0,0-.61,1.77,2.72,2.72,0,0,0,.61,1.77,2,2,0,0,0,1.66.74h2.2a5.33,5.33,0,0,1,2.9.61,2.21,2.21,0,0,1,.88,2,2.44,2.44,0,0,1-.86,2.12,4.88,4.88,0,0,1-2.85.64,6.44,6.44,0,0,1-2-.3,15.23,15.23,0,0,1-2-.87l-.45-.19-.33-.16a10.28,10.28,0,0,0-1.07-.51,2.23,2.23,0,0,0-.88-.16,1.83,1.83,0,0,0-1.49.76,2.92,2.92,0,0,0-.6,1.86,2.48,2.48,0,0,0,1.1,2.19,11.27,11.27,0,0,0,3.68,1.79,15.86,15.86,0,0,0,4.43.62,13.27,13.27,0,0,0,5-.87,7.52,7.52,0,0,0,3.31-2.46,6.15,6.15,0,0,0,1.17-3.75,6.29,6.29,0,0,0-1.19-3.86A6.07,6.07,0,0,0,26.34,30.32Zm-3,36.78a8.92,8.92,0,0,0-3.5.64V63.39h7.64c2.06,0,3.08-.83,3.08-2.48s-1-2.45-3.08-2.45h-11a3,3,0,0,0-2.23.78,3.08,3.08,0,0,0-.78,2.27V71.1a1.92,1.92,0,0,0,.67,1.54,2.44,2.44,0,0,0,1.66.59,3.41,3.41,0,0,0,1.6-.39,12.4,12.4,0,0,1,2-.64A9.56,9.56,0,0,1,21.43,72a4,4,0,0,1,2.77.88,3.16,3.16,0,0,1,1,2.48,3.09,3.09,0,0,1-1,2.5,4.55,4.55,0,0,1-2.94.79,5.64,5.64,0,0,1-2-.32,17.24,17.24,0,0,1-2-.85l-.71-.35a10,10,0,0,0-1.07-.53,2.26,2.26,0,0,0-.88-.14,1.83,1.83,0,0,0-1.49.76,2.92,2.92,0,0,0-.6,1.86,2.58,2.58,0,0,0,.27,1.22,3,3,0,0,0,.83,1,11.38,11.38,0,0,0,3.63,1.77,14.59,14.59,0,0,0,4.3.64,11.45,11.45,0,0,0,5.06-1.06,7.92,7.92,0,0,0,3.4-3,8.33,8.33,0,0,0,1.21-4.5,8.52,8.52,0,0,0-1-4.19,7.28,7.28,0,0,0-2.8-2.84A8.21,8.21,0,0,0,23.38,67.1ZM44.54,50.8H57.16a1.92,1.92,0,0,0,1.43-.59,2,2,0,0,0,.58-1.46,2,2,0,0,0-2-2H44.54a1.93,1.93,0,0,0-1.44.6,2,2,0,0,0-.58,1.45,2,2,0,0,0,2,2Zm0,6.83H57.16a1.89,1.89,0,0,0,1.43-.6,2,2,0,0,0,.58-1.45,2,2,0,0,0-2-2H44.54a1.92,1.92,0,0,0-1.44.59,2,2,0,0,0-.58,1.45,2,2,0,0,0,2,2Zm-6-6.58h0A2.54,2.54,0,0,0,36,48.51H6A2.54,2.54,0,0,0,3.5,51.05h0A2.54,2.54,0,0,0,6,53.58H36A2.54,2.54,0,0,0,38.49,51.05ZM84.55,30.32a5.75,5.75,0,0,0,2.82-2.14,5.91,5.91,0,0,0,1-3.42,6.2,6.2,0,0,0-1.08-3.61,6.82,6.82,0,0,0-3.08-2.4,11.65,11.65,0,0,0-4.62-.85,14.33,14.33,0,0,0-4.19.63,12.1,12.1,0,0,0-3.6,1.77,3,3,0,0,0-.85,1,2.83,2.83,0,0,0-.24,1.24,2.92,2.92,0,0,0,.6,1.86,1.81,1.81,0,0,0,1.49.76,2.23,2.23,0,0,0,.88-.16c.26-.11.61-.28,1.06-.51l.75-.36a18.54,18.54,0,0,1,1.93-.85,5.33,5.33,0,0,1,1.85-.32,3.07,3.07,0,0,1,2.16.73,2.64,2.64,0,0,1,.78,2,2,2,0,0,1-.88,1.8,5.4,5.4,0,0,1-2.83.57H76.94a2,2,0,0,0-1.67.74,2.75,2.75,0,0,0-.6,1.77,2.71,2.71,0,0,0,.6,1.77,2,2,0,0,0,1.67.74h2.19a5.34,5.34,0,0,1,2.91.61,2.21,2.21,0,0,1,.88,2,2.45,2.45,0,0,1-.87,2.12,4.86,4.86,0,0,1-2.85.64,6.42,6.42,0,0,1-2-.3,15.88,15.88,0,0,1-2-.87l-.44-.19-.34-.16a10.31,10.31,0,0,0-1.06-.51,2.23,2.23,0,0,0-.88-.16,1.81,1.81,0,0,0-1.49.76,2.92,2.92,0,0,0-.6,1.86,2.85,2.85,0,0,0,.24,1.22,2.81,2.81,0,0,0,.85,1,11.32,11.32,0,0,0,3.69,1.79,15.79,15.79,0,0,0,4.42.62,13.27,13.27,0,0,0,5-.87,7.47,7.47,0,0,0,3.31-2.46A6.15,6.15,0,0,0,89,36.38a6.28,6.28,0,0,0-1.18-3.86A6.15,6.15,0,0,0,84.55,30.32ZM79.67,75.18a2,2,0,0,0,1.3-.43,1.91,1.91,0,0,0,.69-1.2,3.23,3.23,0,0,1,.79-1.44,16.46,16.46,0,0,1,1.79-1.64c.83-.73,1.5-1.36,2-1.88a7.13,7.13,0,0,0,1.33-1.88,5.36,5.36,0,0,0,.55-2.4,5.25,5.25,0,0,0-1-3.17,6.92,6.92,0,0,0-2.83-2.2,10.15,10.15,0,0,0-4.11-.79,13.19,13.19,0,0,0-4.09.65,12.61,12.61,0,0,0-3.63,1.82,3.19,3.19,0,0,0-.87,1,2.68,2.68,0,0,0-.26,1.24,2.82,2.82,0,0,0,.62,1.86,1.86,1.86,0,0,0,1.5.76,4.28,4.28,0,0,0,2-.67l.85-.43A12.52,12.52,0,0,1,78,63.47a4.5,4.5,0,0,1,1.61-.3,2.46,2.46,0,0,1,1.56.46,1.54,1.54,0,0,1,.56,1.24,2.61,2.61,0,0,1-.4,1.42,12.23,12.23,0,0,1-1.23,1.52,11.9,11.9,0,0,0-1.77,2.29,5.58,5.58,0,0,0-.63,2.78,2.57,2.57,0,0,0,.51,1.7A1.78,1.78,0,0,0,79.67,75.18Zm.07,8.46a3.32,3.32,0,0,0,2.47-1,3.57,3.57,0,0,0,0-4.89,3.32,3.32,0,0,0-2.47-1,3.27,3.27,0,0,0-2.42,1,3.54,3.54,0,0,0,0,4.89A3.27,3.27,0,0,0,79.74,83.64Zm18-32.59h0a2.54,2.54,0,0,0-2.53-2.54H65.24a2.54,2.54,0,0,0-2.53,2.54h0a2.53,2.53,0,0,0,2.53,2.53H95.16A2.53,2.53,0,0,0,97.69,51.05Z"/></svg>