<svg id="Layer_1" data-name="Layer 1" xmlns="http://www.w3.org/2000/svg" viewBox="0 0 100 100"><defs><style>.cls-1{fill:#020202;}</style></defs><title>l18_3_1</title><path class="cls-1" d="M100.23,60.65V82.73c0,4.66-2.76,8.44-6.17,8.44h-38c-2.73,0-5.05-2.43-5.86-5.8-.81,3.37-3.12,5.8-5.86,5.8h-38C3,91.17.23,87.39.23,82.73v-61C.23,17,3,13.23,6.41,13.23h38c2.74,0,5.05,2.43,5.86,5.8.81-3.37,3.13-5.8,5.86-5.8h38c3.41,0,6.17,3.78,6.17,8.45v39Zm-73-30.33A5.28,5.28,0,0,0,30,28.23a6.17,6.17,0,0,0,1-3.54,5.85,5.85,0,0,0-2.46-5,11,11,0,0,0-6.71-1.82,11,11,0,0,0-6.69,1.82,5.81,5.81,0,0,0-2.48,5,6,6,0,0,0,1,3.46,5.78,5.78,0,0,0,2.83,2.17,5.9,5.9,0,0,0-3.33,2.11A6.24,6.24,0,0,0,12,36.31a6.13,6.13,0,0,0,2.64,5.26,12.17,12.17,0,0,0,7.21,1.89,12.16,12.16,0,0,0,7.2-1.89,6.13,6.13,0,0,0,2.64-5.26,5.83,5.83,0,0,0-4.46-6Zm-5.38,8.22c-2.58,0-3.86-.92-3.86-2.76S19.27,33,21.85,33s3.86.93,3.86,2.77S24.42,38.54,21.85,38.54Zm0-15.72a3.73,3.73,0,0,1,2.37.62,2.4,2.4,0,0,1,.78,2,2.47,2.47,0,0,1-.78,2,3.73,3.73,0,0,1-2.37.63,3.71,3.71,0,0,1-2.37-.63,2.47,2.47,0,0,1-.78-2,2.4,2.4,0,0,1,.78-2A3.71,3.71,0,0,1,21.85,22.82ZM18,78.75H11.55l4.54-4.63a15.33,15.33,0,0,0,2.68-3.61A8,8,0,0,0,19.55,67a5.89,5.89,0,0,0-1-3.35,6.3,6.3,0,0,0-2.76-2.24,10.39,10.39,0,0,0-4.16-.78,12.66,12.66,0,0,0-3.7.57,12.84,12.84,0,0,0-3.38,1.6,2.18,2.18,0,0,0-.78.84,3,3,0,0,0,.34,2.86,1.62,1.62,0,0,0,1.34.72,2,2,0,0,0,.61-.09,4.13,4.13,0,0,0,.65-.31l.5-.27.64-.32a16.7,16.7,0,0,1,1.81-.79,5.2,5.2,0,0,1,1.71-.27,2.51,2.51,0,0,1,1.78.58,2.16,2.16,0,0,1,.62,1.66q0,1.86-2.11,4.07L4.89,78.5A3.53,3.53,0,0,0,3.81,81a2.38,2.38,0,0,0,.67,1.74,2.42,2.42,0,0,0,1.82.69H18a3.25,3.25,0,0,0,2.1-.58,2.19,2.19,0,0,0,.69-1.79,2.13,2.13,0,0,0-.69-1.75A3.31,3.31,0,0,0,18,78.75Zm13.28,5a7.48,7.48,0,0,0,6.4-3c1.47-2,2.21-4.85,2.21-8.61s-.74-6.59-2.22-8.58a7.52,7.52,0,0,0-6.39-3,7.49,7.49,0,0,0-6.4,3q-2.2,3-2.21,8.58c0,3.76.74,6.62,2.21,8.61A7.49,7.49,0,0,0,31.26,83.71Zm0-4.44a2.31,2.31,0,0,1-2.21-1.67,16.13,16.13,0,0,1-.67-5.47,16,16,0,0,1,.67-5.46,2.31,2.31,0,0,1,4.42,0,15.76,15.76,0,0,1,.67,5.44,15.88,15.88,0,0,1-.67,5.47A2.3,2.3,0,0,1,31.26,79.27ZM44.54,50.8H57.16a1.92,1.92,0,0,0,1.43-.59,2,2,0,0,0,.58-1.46,2,2,0,0,0-2-2H44.54a1.93,1.93,0,0,0-1.44.6,2,2,0,0,0-.58,1.45,2,2,0,0,0,2,2Zm0,6.83H57.16a1.89,1.89,0,0,0,1.43-.6,2,2,0,0,0,.58-1.45,2,2,0,0,0-2-2H44.54a1.92,1.92,0,0,0-1.44.59,2,2,0,0,0-.58,1.45,2,2,0,0,0,2,2Zm-6-6.58h0A2.54,2.54,0,0,0,36,48.51H6A2.54,2.54,0,0,0,3.5,51.05h0A2.54,2.54,0,0,0,6,53.58H36A2.54,2.54,0,0,0,38.49,51.05ZM85.44,30.32a5.29,5.29,0,0,0,2.77-2.09,6.09,6.09,0,0,0,1-3.54,5.85,5.85,0,0,0-2.46-5,11,11,0,0,0-6.71-1.82,11,11,0,0,0-6.69,1.82,5.84,5.84,0,0,0-2.48,5,6,6,0,0,0,1,3.46,5.8,5.8,0,0,0,2.84,2.17,5.9,5.9,0,0,0-3.33,2.11,6.24,6.24,0,0,0-1.17,3.88,6.13,6.13,0,0,0,2.64,5.26,12.16,12.16,0,0,0,7.2,1.89,12.17,12.17,0,0,0,7.21-1.89,6.13,6.13,0,0,0,2.64-5.26,5.83,5.83,0,0,0-4.46-6Zm-5.39,8.22q-3.85,0-3.86-2.76c0-1.84,1.29-2.77,3.86-2.77s3.86.93,3.86,2.77S82.63,38.54,80.05,38.54Zm0-15.72a3.76,3.76,0,0,1,2.38.62,2.42,2.42,0,0,1,.77,2,2.49,2.49,0,0,1-.77,2,4.79,4.79,0,0,1-4.75,0,2.47,2.47,0,0,1-.78-2,2.4,2.4,0,0,1,.78-2A3.73,3.73,0,0,1,80.05,22.82Zm-.38,52.36a2,2,0,0,0,1.3-.43,1.91,1.91,0,0,0,.69-1.2,3.23,3.23,0,0,1,.79-1.44,15.56,15.56,0,0,1,1.79-1.64c.83-.73,1.5-1.36,2-1.88a7.13,7.13,0,0,0,1.33-1.88,5.36,5.36,0,0,0,.55-2.4,5.25,5.25,0,0,0-1-3.17,6.92,6.92,0,0,0-2.83-2.2,10.15,10.15,0,0,0-4.11-.79,13.19,13.19,0,0,0-4.09.65,12.61,12.61,0,0,0-3.63,1.82,3.19,3.19,0,0,0-.87,1,2.56,2.56,0,0,0-.26,1.24,2.82,2.82,0,0,0,.62,1.86,1.86,1.86,0,0,0,1.5.76,4.28,4.28,0,0,0,2-.67l.85-.43A12,12,0,0,1,78,63.47a4.5,4.5,0,0,1,1.61-.3,2.41,2.41,0,0,1,1.55.46,1.51,1.51,0,0,1,.57,1.24,2.61,2.61,0,0,1-.4,1.42,12.23,12.23,0,0,1-1.23,1.52,11.9,11.9,0,0,0-1.77,2.29,5.58,5.58,0,0,0-.63,2.78,2.57,2.57,0,0,0,.51,1.7A1.78,1.78,0,0,0,79.67,75.18Zm.07,8.46a3.28,3.28,0,0,0,2.46-1,3.54,3.54,0,0,0,0-4.89,3.5,3.5,0,0,0-4.88,0,3.54,3.54,0,0,0,0,4.89A3.27,3.27,0,0,0,79.74,83.64Zm18-32.59h0a2.54,2.54,0,0,0-2.53-2.54H65.24a2.54,2.54,0,0,0-2.53,2.54h0a2.53,2.53,0,0,0,2.53,2.53H95.16A2.53,2.53,0,0,0,97.69,51.05Z"/></svg>