<svg id="Layer_1" data-name="Layer 1" xmlns="http://www.w3.org/2000/svg" viewBox="0 0 100 100"><defs><style>.cls-1{fill:#020202;}</style></defs><title>l18_2_1</title><path class="cls-1" d="M100.23,60.65V82.73c0,4.66-2.76,8.44-6.17,8.44h-38c-2.73,0-5.05-2.43-5.86-5.8-.81,3.37-3.12,5.8-5.86,5.8h-38C3,91.17.23,87.39.23,82.73v-61C.23,17,3,13.23,6.41,13.23h38c2.74,0,5.05,2.43,5.86,5.8.81-3.37,3.13-5.8,5.86-5.8h38c3.41,0,6.17,3.78,6.17,8.45v39ZM29.46,34h-.78V21.22a3,3,0,0,0-.95-2.37A3.4,3.4,0,0,0,25.42,18a3.65,3.65,0,0,0-1.57.37,3.28,3.28,0,0,0-1.26,1.08L12.46,33.9a4,4,0,0,0-.77,2.34A2.61,2.61,0,0,0,14.45,39h7.89v1.21a3.16,3.16,0,0,0,.87,2.41,3.21,3.21,0,0,0,2.28.81,3.29,3.29,0,0,0,2.31-.81,3.13,3.13,0,0,0,.88-2.41V39h.78c2.05,0,3.08-.83,3.08-2.51S31.51,34,29.46,34ZM18.09,34l4.25-6.13V34ZM28.8,58.46H14.92a3.48,3.48,0,0,0-2.34.66,2.5,2.5,0,0,0-.74,2A2.45,2.45,0,0,0,12.56,63a3.58,3.58,0,0,0,2.36.63h8.85l-9.1,15.55a3.33,3.33,0,0,0-.5,1.7,2.58,2.58,0,0,0,1,2,3.24,3.24,0,0,0,2.2.84,3.05,3.05,0,0,0,1.5-.41,3.29,3.29,0,0,0,1.22-1.26L30.78,63.49a4.47,4.47,0,0,0,.67-2.33,2.75,2.75,0,0,0-.69-1.93A2.5,2.5,0,0,0,28.8,58.46ZM44.54,50.8H57.16a1.92,1.92,0,0,0,1.43-.59,2,2,0,0,0,.58-1.46,2,2,0,0,0-2-2H44.54a1.93,1.93,0,0,0-1.44.6,2,2,0,0,0-.58,1.45,2,2,0,0,0,2,2Zm0,6.83H57.16a1.89,1.89,0,0,0,1.43-.6,2,2,0,0,0,.58-1.45,2,2,0,0,0-2-2H44.54a1.92,1.92,0,0,0-1.44.59,2,2,0,0,0-.58,1.45,2,2,0,0,0,2,2Zm-6-6.58h0A2.54,2.54,0,0,0,36,48.51H6A2.54,2.54,0,0,0,3.5,51.05h0A2.54,2.54,0,0,0,6,53.58H36A2.54,2.54,0,0,0,38.49,51.05ZM87.67,34h-.78V21.22a3,3,0,0,0-1-2.37,3.37,3.37,0,0,0-2.3-.85,3.69,3.69,0,0,0-1.58.37,3.33,3.33,0,0,0-1.25,1.08L70.67,33.9a4,4,0,0,0-.78,2.34,2.7,2.7,0,0,0,.74,1.94,2.67,2.67,0,0,0,2,.78h7.9v1.21a3.16,3.16,0,0,0,.87,2.41,3.2,3.2,0,0,0,2.28.81,3.28,3.28,0,0,0,2.3-.81,3.13,3.13,0,0,0,.89-2.41V39h.78c2,0,3.08-.83,3.08-2.51S89.72,34,87.67,34ZM76.3,34l4.25-6.13V34Zm3.37,41.17a2,2,0,0,0,1.3-.43,1.91,1.91,0,0,0,.69-1.2,3.23,3.23,0,0,1,.79-1.44,15.56,15.56,0,0,1,1.79-1.64c.83-.73,1.5-1.36,2-1.88a7.13,7.13,0,0,0,1.33-1.88,5.36,5.36,0,0,0,.55-2.4,5.25,5.25,0,0,0-1-3.17,6.92,6.92,0,0,0-2.83-2.2,10.15,10.15,0,0,0-4.11-.79,13.19,13.19,0,0,0-4.09.65,12.61,12.61,0,0,0-3.63,1.82,3.19,3.19,0,0,0-.87,1,2.68,2.68,0,0,0-.26,1.24,2.82,2.82,0,0,0,.62,1.86,1.86,1.86,0,0,0,1.5.76,4.28,4.28,0,0,0,2-.67l.85-.43A12,12,0,0,1,78,63.47a4.5,4.5,0,0,1,1.61-.3,2.46,2.46,0,0,1,1.56.46,1.54,1.54,0,0,1,.56,1.24,2.61,2.61,0,0,1-.4,1.42,12.23,12.23,0,0,1-1.23,1.52,11.9,11.9,0,0,0-1.77,2.29,5.58,5.58,0,0,0-.63,2.78,2.57,2.57,0,0,0,.51,1.7A1.78,1.78,0,0,0,79.67,75.18Zm.07,8.46a3.28,3.28,0,0,0,2.46-1,3.54,3.54,0,0,0,0-4.89,3.5,3.5,0,0,0-4.88,0,3.54,3.54,0,0,0,0,4.89A3.27,3.27,0,0,0,79.74,83.64Zm18-32.59h0a2.54,2.54,0,0,0-2.53-2.54H65.24a2.54,2.54,0,0,0-2.53,2.54h0a2.53,2.53,0,0,0,2.53,2.53H95.16A2.53,2.53,0,0,0,97.69,51.05Z"/></svg>