<svg id="Layer_1" data-name="Layer 1" xmlns="http://www.w3.org/2000/svg" viewBox="0 0 100 100"><defs><style>.cls-1{fill:#020202;}</style></defs><title>l18_1_1</title><path class="cls-1" d="M100.23,60.65V82.73c0,4.66-2.76,8.44-6.17,8.44h-38c-2.73,0-5.05-2.43-5.86-5.8-.81,3.37-3.12,5.8-5.86,5.8h-38C3,91.17.23,87.39.23,82.73v-61C.23,17,3,13.23,6.41,13.23h38c2.74,0,5.05,2.43,5.86,5.8.81-3.37,3.13-5.8,5.86-5.8h38c3.41,0,6.17,3.78,6.17,8.45v39ZM29.35,38h-2.9V21.22a3.07,3.07,0,0,0-.87-2.3,3.11,3.11,0,0,0-2.28-.85,6,6,0,0,0-2.94.89l-5.67,3.29a2.42,2.42,0,0,0-1.23,2.2,3,3,0,0,0,.7,1.93,2.16,2.16,0,0,0,1.7.86,2.45,2.45,0,0,0,1.24-.35l2.84-1.67V38H17.07a3.6,3.6,0,0,0-2.34.63A2.39,2.39,0,0,0,14,40.56c0,1.74,1,2.62,3.08,2.62H29.35c2.06,0,3.09-.88,3.09-2.62a2.39,2.39,0,0,0-.75-1.92A3.58,3.58,0,0,0,29.35,38ZM28.21,78.26H21.1l5-5.14a16.41,16.41,0,0,0,3-4,8.9,8.9,0,0,0,.87-4,6.49,6.49,0,0,0-1.08-3.7A7,7,0,0,0,25.81,59a11.42,11.42,0,0,0-4.61-.87,14.41,14.41,0,0,0-7.82,2.41,2.27,2.27,0,0,0-.87.92,3.12,3.12,0,0,0-.23,1.28,3,3,0,0,0,.6,1.89,1.81,1.81,0,0,0,1.49.8,2.14,2.14,0,0,0,.67-.11,4.42,4.42,0,0,0,.73-.33,5.13,5.13,0,0,1,.55-.3l.7-.36a17.65,17.65,0,0,1,2-.87,5.78,5.78,0,0,1,1.9-.3,2.8,2.8,0,0,1,2,.64,2.38,2.38,0,0,1,.69,1.84q0,2.05-2.34,4.5L13.73,78a3.89,3.89,0,0,0-1.2,2.76,2.66,2.66,0,0,0,.74,1.93,2.7,2.7,0,0,0,2,.77H28.21a3.59,3.59,0,0,0,2.32-.64,2.44,2.44,0,0,0,.76-2,2.32,2.32,0,0,0-.76-1.93A3.59,3.59,0,0,0,28.21,78.26ZM44.54,50.8H57.16a1.89,1.89,0,0,0,1.43-.6,2,2,0,0,0,.58-1.45,2,2,0,0,0-.58-1.43,1.91,1.91,0,0,0-1.43-.58H44.54a1.93,1.93,0,0,0-1.44.6,2,2,0,0,0-.58,1.45,2,2,0,0,0,2,2Zm0,6.82H57.16A1.89,1.89,0,0,0,58.59,57a2,2,0,0,0,.58-1.45,2,2,0,0,0-2-2H44.54a1.93,1.93,0,0,0-1.44.6,2,2,0,0,0-.58,1.45,2,2,0,0,0,2,2Zm-6-6.57h0A2.54,2.54,0,0,0,36,48.51H6A2.54,2.54,0,0,0,3.5,51.05h0A2.54,2.54,0,0,0,6,53.58H36A2.54,2.54,0,0,0,38.49,51.05ZM87.56,38h-2.9V21.22a3.07,3.07,0,0,0-.87-2.3,3.12,3.12,0,0,0-2.29-.85,5.94,5.94,0,0,0-2.93.89L72.9,22.25a2.41,2.41,0,0,0-1.24,2.2,3,3,0,0,0,.71,1.93,2.14,2.14,0,0,0,1.7.86,2.48,2.48,0,0,0,1.24-.35l2.83-1.67V38H75.27a3.55,3.55,0,0,0-2.33.63,2.39,2.39,0,0,0-.75,1.92c0,1.74,1,2.62,3.08,2.62H87.56c2,0,3.08-.88,3.08-2.62a2.42,2.42,0,0,0-.74-1.92A3.6,3.6,0,0,0,87.56,38ZM79.67,75.18a2.09,2.09,0,0,0,1.3-.43,1.91,1.91,0,0,0,.69-1.2,3.23,3.23,0,0,1,.79-1.44,15.56,15.56,0,0,1,1.79-1.64c.83-.73,1.5-1.36,2-1.88a7.13,7.13,0,0,0,1.33-1.88,5.36,5.36,0,0,0,.55-2.4,5.25,5.25,0,0,0-1-3.17,6.84,6.84,0,0,0-2.83-2.2,10.15,10.15,0,0,0-4.11-.8,13.2,13.2,0,0,0-4.09.66,12.61,12.61,0,0,0-3.63,1.82,3.19,3.19,0,0,0-.87,1,2.56,2.56,0,0,0-.26,1.24,2.82,2.82,0,0,0,.62,1.86,1.88,1.88,0,0,0,1.5.76,4.4,4.4,0,0,0,2-.67l.85-.43A12,12,0,0,1,78,63.47a4.5,4.5,0,0,1,1.61-.3,2.41,2.41,0,0,1,1.55.46,1.51,1.51,0,0,1,.57,1.24,2.53,2.53,0,0,1-.41,1.42,11.17,11.17,0,0,1-1.22,1.52,12.17,12.17,0,0,0-1.77,2.28,5.6,5.6,0,0,0-.63,2.78,2.54,2.54,0,0,0,.51,1.7A1.76,1.76,0,0,0,79.67,75.18Zm.07,8.46a3.29,3.29,0,0,0,2.46-1,3.54,3.54,0,0,0,0-4.89,3.29,3.29,0,0,0-2.46-1,3.25,3.25,0,0,0-2.42,1,3.54,3.54,0,0,0,0,4.89A3.25,3.25,0,0,0,79.74,83.64Zm18-32.59h0a2.54,2.54,0,0,0-2.53-2.54H65.24a2.54,2.54,0,0,0-2.53,2.54h0a2.53,2.53,0,0,0,2.53,2.53H95.16A2.53,2.53,0,0,0,97.69,51.05Z"/></svg>