<svg id="Layer_1" data-name="Layer 1" xmlns="http://www.w3.org/2000/svg" viewBox="0 0 100 100"><defs><style>.cls-1{fill:#020202;}</style></defs><title>l18_1_1</title><path class="cls-1" d="M100,58.65V80.73c0,4.66-2.77,8.44-6.18,8.44h-38c-2.74,0-5.05-2.43-5.86-5.8-.81,3.37-3.13,5.8-5.86,5.8h-38C2.78,89.17,0,85.39,0,80.73v-61C0,15,2.78,11.23,6.19,11.23h38c2.73,0,5.05,2.43,5.86,5.8.81-3.37,3.12-5.8,5.86-5.8h38c3.41,0,6.18,3.78,6.18,8.45v39ZM28.2,36H21.08l5-5.14a16.68,16.68,0,0,0,3-4,8.9,8.9,0,0,0,.87-3.95,6.51,6.51,0,0,0-1.08-3.7,7,7,0,0,0-3.07-2.48,11.34,11.34,0,0,0-4.6-.86,14,14,0,0,0-4.09.63,14.17,14.17,0,0,0-3.74,1.77,2.38,2.38,0,0,0-.86.92,3,3,0,0,0-.23,1.28,3,3,0,0,0,.6,1.89,1.81,1.81,0,0,0,1.49.8,2.14,2.14,0,0,0,.67-.11,4.82,4.82,0,0,0,.73-.33q.41-.24.54-.3l.71-.36a16.91,16.91,0,0,1,2-.87,5.78,5.78,0,0,1,1.9-.3,2.8,2.8,0,0,1,2,.64,2.39,2.39,0,0,1,.69,1.84q0,2.05-2.33,4.5l-7.51,7.82a3.91,3.91,0,0,0-1.21,2.77,2.62,2.62,0,0,0,.75,1.92,2.68,2.68,0,0,0,2,.77H28.2a3.59,3.59,0,0,0,2.32-.64,2.44,2.44,0,0,0,.76-2,2.32,2.32,0,0,0-.76-1.93A3.59,3.59,0,0,0,28.2,36ZM29,72.26h-.78V59.47a3,3,0,0,0-1-2.37,3.39,3.39,0,0,0-2.3-.85,3.52,3.52,0,0,0-1.58.37,3.28,3.28,0,0,0-1.26,1.08L12.05,72.15a4,4,0,0,0-.78,2.34A2.71,2.71,0,0,0,12,76.43a2.67,2.67,0,0,0,2,.78h7.9v1.21a2.9,2.9,0,0,0,3.15,3.22,3.28,3.28,0,0,0,2.3-.81,3.13,3.13,0,0,0,.88-2.41V77.21H29c2.06,0,3.08-.83,3.08-2.51S31.1,72.26,29,72.26Zm-11.36,0,4.25-6.13v6.13ZM44.32,48.8H57a1.93,1.93,0,0,0,1.43-.6A2,2,0,0,0,59,46.75a2,2,0,0,0-2-2H44.32a1.91,1.91,0,0,0-1.43.6,2,2,0,0,0-.58,1.45,2,2,0,0,0,2,2Zm0,6.82H57A1.92,1.92,0,0,0,58.38,55,2,2,0,0,0,59,53.58a2,2,0,0,0-2-2H44.32a1.9,1.9,0,0,0-1.43.59,2,2,0,0,0-.58,1.45,2,2,0,0,0,2,2Zm-6-6.57h0a2.54,2.54,0,0,0-2.53-2.54H5.82a2.54,2.54,0,0,0-2.53,2.54h0a2.53,2.53,0,0,0,2.53,2.53H35.74A2.53,2.53,0,0,0,38.27,49.05ZM86.41,36H79.29l5-5.14a16.6,16.6,0,0,0,3-4,8.9,8.9,0,0,0,.87-3.95,6.51,6.51,0,0,0-1.08-3.7A7,7,0,0,0,84,16.76a11.39,11.39,0,0,0-4.61-.86,14.29,14.29,0,0,0-7.82,2.4,2.41,2.41,0,0,0-.87.92,3.12,3.12,0,0,0-.23,1.28,3,3,0,0,0,.6,1.89,1.81,1.81,0,0,0,1.49.8,2.09,2.09,0,0,0,.67-.11,4.08,4.08,0,0,0,.73-.33,5.13,5.13,0,0,1,.55-.3l.71-.36a16.22,16.22,0,0,1,2-.87,5.76,5.76,0,0,1,1.89-.3,2.83,2.83,0,0,1,2,.64,2.39,2.39,0,0,1,.69,1.84q0,2.05-2.34,4.5l-7.51,7.82a3.9,3.9,0,0,0-1.2,2.77,2.65,2.65,0,0,0,.74,1.92,2.7,2.7,0,0,0,2,.77H86.41a3.56,3.56,0,0,0,2.31-.64,2.45,2.45,0,0,0,.77-2,2.33,2.33,0,0,0-.77-1.93A3.56,3.56,0,0,0,86.41,36Zm-7,37.17a2,2,0,0,0,1.29-.43,1.83,1.83,0,0,0,.69-1.2,3.26,3.26,0,0,1,.8-1.44A15.56,15.56,0,0,1,84,68.47c.82-.73,1.49-1.36,2-1.88a6.9,6.9,0,0,0,1.33-1.88,5.44,5.44,0,0,0-.48-5.57,6.78,6.78,0,0,0-2.83-2.2A10.08,10.08,0,0,0,80,56.15a13.19,13.19,0,0,0-4.09.65,12.88,12.88,0,0,0-3.63,1.82,3,3,0,0,0-.86,1,2.56,2.56,0,0,0-.27,1.24,2.88,2.88,0,0,0,.62,1.86,1.86,1.86,0,0,0,1.51.76,4.28,4.28,0,0,0,1.94-.67l.85-.43a12.52,12.52,0,0,1,1.79-.87,4.54,4.54,0,0,1,1.61-.3,2.46,2.46,0,0,1,1.56.46,1.51,1.51,0,0,1,.57,1.24,2.61,2.61,0,0,1-.41,1.42,12,12,0,0,1-1.22,1.52,11.15,11.15,0,0,0-1.77,2.29,5.46,5.46,0,0,0-.64,2.77A2.59,2.59,0,0,0,78,72.58,1.8,1.8,0,0,0,79.46,73.18Zm.07,8.46a3.31,3.31,0,0,0,2.46-1,3.57,3.57,0,0,0,0-4.89,3.31,3.31,0,0,0-2.46-1,3.27,3.27,0,0,0-2.43,1,3.57,3.57,0,0,0,0,4.89A3.27,3.27,0,0,0,79.53,81.64Zm18-32.59h0a2.54,2.54,0,0,0-2.54-2.54H65a2.54,2.54,0,0,0-2.54,2.54h0A2.54,2.54,0,0,0,65,51.58H94.94A2.54,2.54,0,0,0,97.48,49.05Z"/></svg>