<svg id="Layer_1" data-name="Layer 1" xmlns="http://www.w3.org/2000/svg" viewBox="0 0 100 100"><defs><style>.cls-1{fill:#020202;}</style></defs><title>l18_1_1</title><path class="cls-1" d="M100,60.65V82.73c0,4.66-2.76,8.44-6.17,8.44h-38c-2.73,0-5-2.43-5.86-5.8-.81,3.37-3.13,5.8-5.86,5.8h-38C2.76,91.17,0,87.39,0,82.73v-61C0,17,2.76,13.23,6.17,13.23h38c2.73,0,5,2.43,5.86,5.8.81-3.37,3.13-5.8,5.86-5.8h38c3.41,0,6.17,3.78,6.17,8.45v39ZM28.18,38H21.07l5-5.14a16.41,16.41,0,0,0,3-4,8.9,8.9,0,0,0,.87-3.95,6.51,6.51,0,0,0-1.08-3.7,7,7,0,0,0-3.06-2.48,11.42,11.42,0,0,0-4.61-.86,14.29,14.29,0,0,0-7.82,2.4,2.34,2.34,0,0,0-.87.92,3.12,3.12,0,0,0-.23,1.28,3,3,0,0,0,.6,1.89,1.81,1.81,0,0,0,1.49.8,2.14,2.14,0,0,0,.67-.11,4.42,4.42,0,0,0,.73-.33,5.13,5.13,0,0,1,.55-.3l.7-.36a17.65,17.65,0,0,1,2-.87,5.78,5.78,0,0,1,1.9-.3,2.8,2.8,0,0,1,2,.64,2.4,2.4,0,0,1,.7,1.84q0,2.05-2.34,4.5L13.7,37.72a3.9,3.9,0,0,0-1.2,2.77,2.65,2.65,0,0,0,.74,1.92,2.7,2.7,0,0,0,2,.77H28.18a3.59,3.59,0,0,0,2.32-.64,2.44,2.44,0,0,0,.76-2,2.32,2.32,0,0,0-.76-1.93A3.59,3.59,0,0,0,28.18,38Zm-5,29.09a8.94,8.94,0,0,0-3.51.64V63.39h7.65c2.05,0,3.08-.83,3.08-2.48s-1-2.45-3.08-2.45h-11a3,3,0,0,0-2.23.78,3.08,3.08,0,0,0-.78,2.27V71.1A1.92,1.92,0,0,0,14,72.64a2.44,2.44,0,0,0,1.66.59,3.34,3.34,0,0,0,1.59-.39,12.48,12.48,0,0,1,2-.64A9.56,9.56,0,0,1,21.2,72a4,4,0,0,1,2.76.88,3.16,3.16,0,0,1,1,2.48,3.08,3.08,0,0,1-.95,2.5,4.55,4.55,0,0,1-2.94.79,5.73,5.73,0,0,1-2-.32,18,18,0,0,1-2-.85l-.7-.35a10,10,0,0,0-1.07-.53,2.26,2.26,0,0,0-.88-.14,1.83,1.83,0,0,0-1.49.76,2.92,2.92,0,0,0-.6,1.86,2.71,2.71,0,0,0,.26,1.22,3.12,3.12,0,0,0,.84,1,11.38,11.38,0,0,0,3.63,1.77,14.54,14.54,0,0,0,4.3.64,11.45,11.45,0,0,0,5.06-1.06,8,8,0,0,0,3.4-3A9.11,9.11,0,0,0,30,71a7.19,7.19,0,0,0-2.79-2.84A8.21,8.21,0,0,0,23.15,67.1ZM44.3,50.8H56.93a1.91,1.91,0,0,0,1.43-.6,2,2,0,0,0,.58-1.45,2,2,0,0,0-.58-1.43,2,2,0,0,0-1.43-.58H44.3a1.93,1.93,0,0,0-1.43.6,2,2,0,0,0-.58,1.45,2,2,0,0,0,2,2Zm0,6.82H56.93A1.9,1.9,0,0,0,58.36,57a2,2,0,0,0,.58-1.45,2,2,0,0,0-2-2H44.3a1.92,1.92,0,0,0-1.43.59,2,2,0,0,0-.58,1.45A1.91,1.91,0,0,0,42.87,57,2,2,0,0,0,44.3,57.62Zm-6-6.57h0a2.54,2.54,0,0,0-2.53-2.54H5.8a2.54,2.54,0,0,0-2.53,2.54h0A2.53,2.53,0,0,0,5.8,53.58H35.72A2.53,2.53,0,0,0,38.25,51.05ZM86.39,38H79.27l5-5.14a16.68,16.68,0,0,0,3-4,9,9,0,0,0,.86-3.95A6.51,6.51,0,0,0,87,21.24,7,7,0,0,0,84,18.76a11.37,11.37,0,0,0-4.6-.86,14,14,0,0,0-4.09.63,14.17,14.17,0,0,0-3.74,1.77,2.38,2.38,0,0,0-.86.92,3,3,0,0,0-.24,1.28,3,3,0,0,0,.61,1.89,1.8,1.8,0,0,0,1.48.8,2.2,2.2,0,0,0,.68-.11,4.36,4.36,0,0,0,.72-.33c.27-.16.46-.26.55-.3l.71-.36a16.22,16.22,0,0,1,2-.87,5.76,5.76,0,0,1,1.89-.3,2.83,2.83,0,0,1,2,.64,2.39,2.39,0,0,1,.69,1.84q0,2.05-2.34,4.5l-7.5,7.82a3.87,3.87,0,0,0-1.21,2.77,2.62,2.62,0,0,0,.75,1.92,2.66,2.66,0,0,0,2,.77H86.39a3.59,3.59,0,0,0,2.32-.64,2.44,2.44,0,0,0,.76-2,2.32,2.32,0,0,0-.76-1.93A3.59,3.59,0,0,0,86.39,38Zm-7,37.17a2,2,0,0,0,1.29-.43,1.83,1.83,0,0,0,.69-1.2,3.36,3.36,0,0,1,.8-1.44A15.56,15.56,0,0,1,84,70.47c.82-.73,1.5-1.36,2-1.88a6.88,6.88,0,0,0,1.32-1.88,5.47,5.47,0,0,0-.47-5.57A6.81,6.81,0,0,0,84,58.94a10.06,10.06,0,0,0-4.1-.79,13.14,13.14,0,0,0-4.09.65,12.61,12.61,0,0,0-3.63,1.82,3.06,3.06,0,0,0-.87,1,2.56,2.56,0,0,0-.27,1.24,2.88,2.88,0,0,0,.62,1.86,1.89,1.89,0,0,0,1.51.76,4.35,4.35,0,0,0,2-.67l.85-.43a12.46,12.46,0,0,1,1.78-.87,4.54,4.54,0,0,1,1.61-.3,2.42,2.42,0,0,1,1.56.46,1.51,1.51,0,0,1,.57,1.24,2.61,2.61,0,0,1-.41,1.42,12,12,0,0,1-1.22,1.52,11.9,11.9,0,0,0-1.77,2.29,5.56,5.56,0,0,0-.64,2.77A2.53,2.53,0,0,0,78,74.58,1.78,1.78,0,0,0,79.44,75.18Zm.07,8.46a3.31,3.31,0,0,0,2.46-1,3.54,3.54,0,0,0,0-4.89,3.31,3.31,0,0,0-2.46-1,3.23,3.23,0,0,0-2.42,1,3.54,3.54,0,0,0,0,4.89A3.23,3.23,0,0,0,79.51,83.64ZM97.46,51.05h0a2.54,2.54,0,0,0-2.53-2.54H65a2.54,2.54,0,0,0-2.53,2.54h0A2.53,2.53,0,0,0,65,53.58H94.93A2.53,2.53,0,0,0,97.46,51.05Z"/></svg>