<svg id="Layer_1" data-name="Layer 1" xmlns="http://www.w3.org/2000/svg" viewBox="0 0 150 100"><defs><style>.cls-1{fill:#020202;}</style></defs><title>s18_1</title><path class="cls-1" d="M141,50.9a9.27,9.27,0,0,1,9.26,9.26v24.2A9.27,9.27,0,0,1,141,93.62H84.06a9.26,9.26,0,0,1-8.79-6.36,9.26,9.26,0,0,1-8.79,6.36H9.53A9.26,9.26,0,0,1,.27,84.36V60.16A9.26,9.26,0,0,1,9.53,50.9,9.25,9.25,0,0,1,.27,41.64V17.45A9.25,9.25,0,0,1,9.53,8.19h57a9.26,9.26,0,0,1,8.79,6.36,9.26,9.26,0,0,1,8.79-6.36H141a9.26,9.26,0,0,1,9.26,9.26V41.64A9.26,9.26,0,0,1,141,50.9ZM109.24,36H106v-19a3.44,3.44,0,0,0-1-2.6,3.52,3.52,0,0,0-2.58-1,6.75,6.75,0,0,0-3.32,1l-6.4,3.72a2.72,2.72,0,0,0-1.4,2.48,3.38,3.38,0,0,0,.8,2.18,2.43,2.43,0,0,0,1.92,1,2.69,2.69,0,0,0,1.4-.4l3.2-1.88V36H95.36a4,4,0,0,0-2.64.72,2.69,2.69,0,0,0-.84,2.16q0,3,3.48,3h13.88q3.48,0,3.48-3a2.69,2.69,0,0,0-.84-2.16A4,4,0,0,0,109.24,36Zm15.52,6.2a9.34,9.34,0,0,0,8-3.72q2.76-3.72,2.76-10.76T132.74,17a10.44,10.44,0,0,0-16,0Q114,20.73,114,27.73t2.76,10.76A9.35,9.35,0,0,0,124.76,42.21Zm0-5.56A2.87,2.87,0,0,1,122,34.57a19.94,19.94,0,0,1-.84-6.84,19.69,19.69,0,0,1,.84-6.82,2.88,2.88,0,0,1,5.52,0,19.71,19.71,0,0,1,.84,6.8,19.94,19.94,0,0,1-.84,6.84A2.87,2.87,0,0,1,124.76,36.65ZM112.33,78a2.31,2.31,0,0,0,1.46-.48,2.06,2.06,0,0,0,.78-1.36,3.87,3.87,0,0,1,.9-1.62,19,19,0,0,1,2-1.86c.94-.83,1.7-1.53,2.28-2.12a7.92,7.92,0,0,0,1.5-2.12,6.18,6.18,0,0,0-.54-6.3,7.74,7.74,0,0,0-3.2-2.48,11.36,11.36,0,0,0-4.64-.9,15.17,15.17,0,0,0-4.62.74,14.22,14.22,0,0,0-4.1,2.06,3.59,3.59,0,0,0-1,1.08,2.93,2.93,0,0,0-.3,1.4,3.24,3.24,0,0,0,.7,2.1,2.14,2.14,0,0,0,1.7.86,4.82,4.82,0,0,0,2.2-.76l1-.48a14.62,14.62,0,0,1,2-1,5.06,5.06,0,0,1,1.82-.34,2.68,2.68,0,0,1,1.76.52,1.7,1.7,0,0,1,.64,1.4,2.88,2.88,0,0,1-.46,1.6,12.25,12.25,0,0,1-1.38,1.72,13.26,13.26,0,0,0-2,2.58,6.26,6.26,0,0,0-.72,3.14,2.9,2.9,0,0,0,.58,1.92A2,2,0,0,0,112.33,78Zm.08,9.56a3.72,3.72,0,0,0,2.78-1.12,4,4,0,0,0,0-5.52,4,4,0,0,0-5.52,0,4,4,0,0,0,0,5.52A3.69,3.69,0,0,0,112.41,87.56ZM38,32.53a2.33,2.33,0,0,0,1.46-.48,2.17,2.17,0,0,0,.78-1.36,3.67,3.67,0,0,1,.9-1.62,18.05,18.05,0,0,1,2-1.86c.93-.83,1.69-1.53,2.28-2.12A7.92,7.92,0,0,0,46.94,23a6.07,6.07,0,0,0,.62-2.72,5.9,5.9,0,0,0-1.16-3.58,7.73,7.73,0,0,0-3.2-2.48,11.4,11.4,0,0,0-4.64-.9,14.78,14.78,0,0,0-4.62.74,14.22,14.22,0,0,0-4.1,2.06,3.35,3.35,0,0,0-1,1.08,2.93,2.93,0,0,0-.3,1.4,3.23,3.23,0,0,0,.7,2.1,2.12,2.12,0,0,0,1.7.86,5,5,0,0,0,2.2-.76l1-.48a13.55,13.55,0,0,1,2-1A5,5,0,0,1,38,19a2.7,2.7,0,0,1,1.76.52,1.73,1.73,0,0,1,.64,1.4,2.9,2.9,0,0,1-.46,1.6,13.92,13.92,0,0,1-1.38,1.72,13.26,13.26,0,0,0-2,2.58,6.26,6.26,0,0,0-.72,3.14,2.86,2.86,0,0,0,.58,1.92A2,2,0,0,0,38,32.53Zm.08,9.56A3.73,3.73,0,0,0,40.86,41a4,4,0,0,0,0-5.52,3.73,3.73,0,0,0-2.78-1.12,3.67,3.67,0,0,0-2.74,1.12,4,4,0,0,0,0,5.52A3.67,3.67,0,0,0,38.08,42.09ZM34.45,81.48H31.17v-19a3.49,3.49,0,0,0-1-2.6,3.53,3.53,0,0,0-2.58-1,6.72,6.72,0,0,0-3.32,1l-6.4,3.72a2.73,2.73,0,0,0-1.4,2.48,3.32,3.32,0,0,0,.8,2.18,2.41,2.41,0,0,0,1.92,1,2.69,2.69,0,0,0,1.4-.4L23.81,67V81.48H20.57a4,4,0,0,0-2.64.72,2.69,2.69,0,0,0-.84,2.16q0,3,3.48,3H34.45q3.48,0,3.48-3a2.69,2.69,0,0,0-.84-2.16A4,4,0,0,0,34.45,81.48Zm17.48-12.6a10,10,0,0,0-4,.72V64.68h8.64q3.48,0,3.48-2.8t-3.48-2.76H44.21a3.41,3.41,0,0,0-2.52.88,3.46,3.46,0,0,0-.88,2.56V73.4a2.18,2.18,0,0,0,.76,1.74,2.77,2.77,0,0,0,1.88.66,3.86,3.86,0,0,0,1.8-.44,13.35,13.35,0,0,1,2.3-.72,11.16,11.16,0,0,1,2.18-.2,4.52,4.52,0,0,1,3.12,1A3.59,3.59,0,0,1,54,78.24a3.47,3.47,0,0,1-1.08,2.82,5.12,5.12,0,0,1-3.32.9,6.63,6.63,0,0,1-2.22-.36,22.61,22.61,0,0,1-2.26-1l-.8-.4c-.54-.29-.93-.49-1.2-.6a2.65,2.65,0,0,0-1-.16,2.07,2.07,0,0,0-1.68.86,3.29,3.29,0,0,0-.68,2.1,3,3,0,0,0,.3,1.38,3.5,3.5,0,0,0,.94,1.1,13.28,13.28,0,0,0,4.1,2,16.73,16.73,0,0,0,4.86.72,13,13,0,0,0,5.72-1.2A9,9,0,0,0,59.49,83a10.29,10.29,0,0,0,.22-9.82A8.17,8.17,0,0,0,56.55,70,9.25,9.25,0,0,0,51.93,68.88ZM67.78,48H83.26A2.36,2.36,0,0,0,85,47.24a2.45,2.45,0,0,0,.71-1.77A2.43,2.43,0,0,0,83.26,43H67.78a2.33,2.33,0,0,0-1.75.73,2.44,2.44,0,0,0-.71,1.78A2.34,2.34,0,0,0,66,47.26,2.36,2.36,0,0,0,67.78,48Zm0,8.36H83.26A2.35,2.35,0,0,0,85,55.61a2.48,2.48,0,0,0,.71-1.78,2.44,2.44,0,0,0-2.47-2.47H67.78A2.34,2.34,0,0,0,66,52.1a2.41,2.41,0,0,0-.71,1.77A2.36,2.36,0,0,0,66,55.63,2.39,2.39,0,0,0,67.78,56.34ZM57,50.74h0a2.86,2.86,0,0,0-2.86-2.86H20.33a2.86,2.86,0,0,0-2.86,2.86h0a2.86,2.86,0,0,0,2.86,2.86h33.8A2.86,2.86,0,0,0,57,50.74Zm76.71,0h0a2.86,2.86,0,0,0-2.86-2.86H97a2.86,2.86,0,0,0-2.86,2.86h0A2.86,2.86,0,0,0,97,53.6h33.8A2.86,2.86,0,0,0,133.7,50.74Z"/></svg>