<svg id="Layer_1" data-name="Layer 1" xmlns="http://www.w3.org/2000/svg" viewBox="0 0 150 100"><defs><style>.cls-1{fill:#020202;}</style></defs><title>s18_1</title><path class="cls-1" d="M141,50.74A9.26,9.26,0,0,1,150.23,60V84.2A9.25,9.25,0,0,1,141,93.45H84a9.25,9.25,0,0,1-8.79-6.36,9.24,9.24,0,0,1-8.79,6.36H9.49A9.26,9.26,0,0,1,.23,84.2V60a9.27,9.27,0,0,1,9.26-9.26A9.27,9.27,0,0,1,.23,41.48V17.28A9.26,9.26,0,0,1,9.49,8h57a9.25,9.25,0,0,1,8.79,6.35A9.26,9.26,0,0,1,84,8h57a9.25,9.25,0,0,1,9.26,9.25v24.2A9.26,9.26,0,0,1,141,50.74Zm-26.28-27.5a9.82,9.82,0,0,0-4,.73V19.05h8.64q3.48,0,3.48-2.81t-3.48-2.76H107a3.45,3.45,0,0,0-2.52.88,3.47,3.47,0,0,0-.88,2.57V27.76a2.22,2.22,0,0,0,.76,1.75,2.82,2.82,0,0,0,1.88.66,3.75,3.75,0,0,0,1.8-.45,14.15,14.15,0,0,1,2.3-.71,10.41,10.41,0,0,1,2.18-.21,4.57,4.57,0,0,1,3.12,1,3.59,3.59,0,0,1,1.12,2.8,3.49,3.49,0,0,1-1.08,2.83,5.18,5.18,0,0,1-3.32.89,6.89,6.89,0,0,1-2.22-.35c-.68-.25-1.44-.57-2.26-1l-.8-.41a11.22,11.22,0,0,0-1.2-.59,2.64,2.64,0,0,0-1-.17,2.07,2.07,0,0,0-1.68.86,3.33,3.33,0,0,0-.68,2.1,2.93,2.93,0,0,0,.3,1.38,3.39,3.39,0,0,0,.94,1.1,13.06,13.06,0,0,0,4.1,2,16.74,16.74,0,0,0,4.86.73,13,13,0,0,0,5.72-1.21,9,9,0,0,0,3.84-3.4,9.5,9.5,0,0,0,1.36-5.08,9.6,9.6,0,0,0-1.14-4.73,8,8,0,0,0-3.16-3.2A9.26,9.26,0,0,0,114.69,23.24ZM109,81.32H105.7v-19a3.48,3.48,0,0,0-1-2.6,3.55,3.55,0,0,0-2.58-1,6.72,6.72,0,0,0-3.32,1l-6.4,3.72A2.7,2.7,0,0,0,91,66a3.34,3.34,0,0,0,.8,2.18,2.41,2.41,0,0,0,1.92,1,2.81,2.81,0,0,0,1.4-.4l3.2-1.88V81.32H95.1a4,4,0,0,0-2.64.72,2.69,2.69,0,0,0-.84,2.16q0,3,3.48,3H109q3.48,0,3.48-3a2.69,2.69,0,0,0-.84-2.16A4,4,0,0,0,109,81.32Zm17.48-12.6a10,10,0,0,0-4,.72V64.52h8.64c2.32,0,3.48-.94,3.48-2.8S133.46,59,131.14,59h-12.4a3.38,3.38,0,0,0-2.52.88,3.44,3.44,0,0,0-.88,2.56V73.24A2.18,2.18,0,0,0,116.1,75a2.75,2.75,0,0,0,1.88.66,3.86,3.86,0,0,0,1.8-.44,13.35,13.35,0,0,1,2.3-.72,10.44,10.44,0,0,1,2.18-.2,4.52,4.52,0,0,1,3.12,1,3.57,3.57,0,0,1,1.12,2.8,3.47,3.47,0,0,1-1.08,2.82,5.12,5.12,0,0,1-3.32.9,6.63,6.63,0,0,1-2.22-.36,21.66,21.66,0,0,1-2.26-1l-.8-.4a10.79,10.79,0,0,0-1.2-.6,2.65,2.65,0,0,0-1-.16,2,2,0,0,0-1.68.86,3.23,3.23,0,0,0-.68,2.1,3,3,0,0,0,.3,1.38,3.61,3.61,0,0,0,.94,1.1,13.17,13.17,0,0,0,4.1,2,16.63,16.63,0,0,0,4.86.72,13,13,0,0,0,5.72-1.2,9.09,9.09,0,0,0,3.84-3.4,10.29,10.29,0,0,0,.22-9.82,8.11,8.11,0,0,0-3.16-3.2A9.25,9.25,0,0,0,126.46,68.72Zm-89.22-8a4.18,4.18,0,0,0,2.6-.85,3.81,3.81,0,0,0,1.38-2.42,6.64,6.64,0,0,1,1.6-2.87,31.87,31.87,0,0,1,3.58-3.31c1.66-1.46,3-2.72,4.05-3.76a14.19,14.19,0,0,0,2.66-3.76,10.58,10.58,0,0,0,1.1-4.83,10.4,10.4,0,0,0-2.06-6.35,13.73,13.73,0,0,0-5.68-4.41,20.27,20.27,0,0,0-8.23-1.59A26.47,26.47,0,0,0,30,27.89a25.26,25.26,0,0,0-7.28,3.66A6.11,6.11,0,0,0,21,33.46,5.31,5.31,0,0,0,20.49,36a5.71,5.71,0,0,0,1.24,3.73,3.78,3.78,0,0,0,3,1.52,8.67,8.67,0,0,0,3.9-1.35L30.36,39a25,25,0,0,1,3.58-1.74,9.14,9.14,0,0,1,3.23-.6,4.86,4.86,0,0,1,3.13.92,3.07,3.07,0,0,1,1.13,2.49,5.22,5.22,0,0,1-.81,2.84A23.53,23.53,0,0,1,38.17,46a23,23,0,0,0-3.55,4.58,11,11,0,0,0-1.28,5.57,5.07,5.07,0,0,0,1,3.41A3.54,3.54,0,0,0,37.24,60.73Zm.15,17a6.65,6.65,0,0,0,4.93-2,7.13,7.13,0,0,0,0-9.8,6.65,6.65,0,0,0-4.93-2,6.56,6.56,0,0,0-4.87,2,7.13,7.13,0,0,0,0,9.8A6.56,6.56,0,0,0,37.39,77.7ZM67.18,46.77H83.83A2.51,2.51,0,0,0,85.72,46a2.62,2.62,0,0,0,.76-1.91,2.6,2.6,0,0,0-2.65-2.65H67.18a2.51,2.51,0,0,0-1.89.79,2.63,2.63,0,0,0-.77,1.91,2.61,2.61,0,0,0,2.66,2.65Zm0,9H83.83A2.51,2.51,0,0,0,85.72,55a2.62,2.62,0,0,0,.76-1.91,2.6,2.6,0,0,0-2.65-2.65H67.18a2.51,2.51,0,0,0-1.89.79,2.63,2.63,0,0,0-.77,1.91,2.61,2.61,0,0,0,2.66,2.65Zm66.48-5.19h0a2.86,2.86,0,0,0-2.86-2.86H97a2.86,2.86,0,0,0-2.86,2.86h0A2.86,2.86,0,0,0,97,53.44H130.8A2.86,2.86,0,0,0,133.66,50.58Z"/></svg>