<svg id="Layer_1" data-name="Layer 1" xmlns="http://www.w3.org/2000/svg" viewBox="0 0 150 100"><defs><style>.cls-1{fill:#020202;}</style></defs><title>s18_1</title><path class="cls-1" d="M141,50.9a9.26,9.26,0,0,1,9.26,9.26v24.2A9.26,9.26,0,0,1,141,93.62H84a9.26,9.26,0,0,1-8.79-6.36,9.25,9.25,0,0,1-8.79,6.36H9.49A9.27,9.27,0,0,1,.23,84.36V60.16A9.27,9.27,0,0,1,9.49,50.9,9.26,9.26,0,0,1,.23,41.64V17.45A9.26,9.26,0,0,1,9.49,8.19h57a9.25,9.25,0,0,1,8.79,6.36A9.26,9.26,0,0,1,84,8.19h57a9.25,9.25,0,0,1,9.26,9.26V41.64A9.25,9.25,0,0,1,141,50.9ZM121.33,31.49h-.88V17.05a3.39,3.39,0,0,0-1.08-2.68,3.78,3.78,0,0,0-2.6-1,4,4,0,0,0-1.78.42,3.71,3.71,0,0,0-1.42,1.22L102.13,31.37a4.47,4.47,0,0,0-.88,2.64,3.07,3.07,0,0,0,.84,2.2,3,3,0,0,0,2.28.88h8.92v1.36a3.56,3.56,0,0,0,1,2.72,3.62,3.62,0,0,0,2.58.92,3.7,3.7,0,0,0,2.6-.92,3.5,3.5,0,0,0,1-2.72V37.09h.88q3.48,0,3.48-2.84T121.33,31.49Zm-12.84,0,4.8-6.92v6.92ZM112.3,78a2.31,2.31,0,0,0,1.46-.48,2.15,2.15,0,0,0,.78-1.36,3.67,3.67,0,0,1,.9-1.62,18.05,18.05,0,0,1,2-1.86c.93-.82,1.69-1.53,2.28-2.12a7.92,7.92,0,0,0,1.5-2.12,6,6,0,0,0,.62-2.72,5.94,5.94,0,0,0-1.16-3.58,7.74,7.74,0,0,0-3.2-2.48,11.4,11.4,0,0,0-4.64-.9,15.07,15.07,0,0,0-4.62.74,14.48,14.48,0,0,0-4.1,2.06,3.59,3.59,0,0,0-1,1.08,2.93,2.93,0,0,0-.3,1.4,3.19,3.19,0,0,0,.7,2.1,2.09,2.09,0,0,0,1.7.86,4.86,4.86,0,0,0,2.2-.76l1-.48a15.87,15.87,0,0,1,2-1,5,5,0,0,1,1.82-.34A2.75,2.75,0,0,1,114,65a1.74,1.74,0,0,1,.64,1.4,2.88,2.88,0,0,1-.46,1.6,13.92,13.92,0,0,1-1.38,1.72,13.26,13.26,0,0,0-2,2.58,6.26,6.26,0,0,0-.72,3.14,2.84,2.84,0,0,0,.58,1.92A2,2,0,0,0,112.3,78Zm.08,9.56a3.72,3.72,0,0,0,2.78-1.12,3.88,3.88,0,0,0-2.78-6.64,3.71,3.71,0,0,0-2.74,1.12,4,4,0,0,0,0,5.52A3.67,3.67,0,0,0,112.38,87.56ZM45.58,36h-8l5.68-5.8a18.33,18.33,0,0,0,3.34-4.5,10,10,0,0,0,1-4.46,7.28,7.28,0,0,0-1.22-4.18,7.75,7.75,0,0,0-3.46-2.8,12.9,12.9,0,0,0-5.2-1A16.28,16.28,0,0,0,28.82,16a2.72,2.72,0,0,0-1,1,3.47,3.47,0,0,0-.26,1.44,3.46,3.46,0,0,0,.68,2.14,2.06,2.06,0,0,0,1.68.9,2.37,2.37,0,0,0,.76-.12,4.81,4.81,0,0,0,.82-.38l.62-.34.8-.4a20.12,20.12,0,0,1,2.26-1A6.45,6.45,0,0,1,37.34,19a3.15,3.15,0,0,1,2.22.72,2.69,2.69,0,0,1,.78,2.08q0,2.32-2.64,5.08l-8.48,8.84a4.4,4.4,0,0,0-1.36,3.12A3,3,0,0,0,28.7,41a3.05,3.05,0,0,0,2.28.86h14.6a4,4,0,0,0,2.62-.72,2.74,2.74,0,0,0,.86-2.24,2.63,2.63,0,0,0-.86-2.18A4.06,4.06,0,0,0,45.58,36ZM43,72.8a6.43,6.43,0,0,0,3.18-2.42,6.63,6.63,0,0,0,1.14-3.86,6.94,6.94,0,0,0-1.22-4.08,7.81,7.81,0,0,0-3.48-2.72,13.21,13.21,0,0,0-5.22-1,16,16,0,0,0-4.74.72,13.39,13.39,0,0,0-4.06,2,3.37,3.37,0,0,0-1,1.08,3.2,3.2,0,0,0-.28,1.4,3.29,3.29,0,0,0,.68,2.1,2.07,2.07,0,0,0,1.68.86,2.59,2.59,0,0,0,1-.18,12.11,12.11,0,0,0,1.2-.58l.84-.4a21.93,21.93,0,0,1,2.18-1,6.1,6.1,0,0,1,2.1-.36,3.46,3.46,0,0,1,2.44.82,3,3,0,0,1,.88,2.3,2.22,2.22,0,0,1-1,2,6.07,6.07,0,0,1-3.2.64H34.41a2.29,2.29,0,0,0-1.88.84,3.28,3.28,0,0,0,0,4,2.29,2.29,0,0,0,1.88.84h2.48a6,6,0,0,1,3.28.68,2.5,2.5,0,0,1,1,2.24,2.76,2.76,0,0,1-1,2.4A5.53,5.53,0,0,1,37,82a7.17,7.17,0,0,1-2.3-.34,16.92,16.92,0,0,1-2.3-1l-.5-.22-.38-.18a12.11,12.11,0,0,0-1.2-.58,2.59,2.59,0,0,0-1-.18,2.09,2.09,0,0,0-1.68.86,3.33,3.33,0,0,0-.68,2.1,3.27,3.27,0,0,0,.28,1.38,3.13,3.13,0,0,0,1,1.1,13,13,0,0,0,4.16,2,17.66,17.66,0,0,0,5,.7,14.87,14.87,0,0,0,5.66-1,8.35,8.35,0,0,0,3.74-2.78,7,7,0,0,0,1.32-4.24,7,7,0,0,0-1.34-4.36A6.8,6.8,0,0,0,43,72.8ZM67.75,48H83.22A2.38,2.38,0,0,0,85,47.25a2.45,2.45,0,0,0,.71-1.78A2.36,2.36,0,0,0,85,43.71,2.4,2.4,0,0,0,83.22,43H67.75a2.35,2.35,0,0,0-1.76.73,2.48,2.48,0,0,0-.71,1.78A2.43,2.43,0,0,0,67.75,48Zm0,8.36H83.22A2.34,2.34,0,0,0,85,55.61a2.44,2.44,0,0,0,.71-1.78,2.43,2.43,0,0,0-2.47-2.46H67.75A2.35,2.35,0,0,0,66,52.1a2.47,2.47,0,0,0-.71,1.77,2.43,2.43,0,0,0,2.47,2.47ZM57,50.74h0a2.86,2.86,0,0,0-2.86-2.86H20.3a2.86,2.86,0,0,0-2.86,2.86h0A2.86,2.86,0,0,0,20.3,53.6H54.1A2.86,2.86,0,0,0,57,50.74Zm76.7,0h0a2.86,2.86,0,0,0-2.86-2.86H97a2.86,2.86,0,0,0-2.86,2.86h0A2.86,2.86,0,0,0,97,53.6H130.8A2.86,2.86,0,0,0,133.66,50.74Z"/></svg>