<svg id="Layer_1" data-name="Layer 1" xmlns="http://www.w3.org/2000/svg" viewBox="0 0 200 150"><title>g13</title><path d="M171.65,68.39H110.14V6.87a6.61,6.61,0,0,0-6.6-6.6h0a6.6,6.6,0,0,0-6.6,6.6V68.39H35.42a6.6,6.6,0,0,0,0,13.2H96.94v61.52a6.6,6.6,0,0,0,6.6,6.6h0a6.61,6.61,0,0,0,6.6-6.6V81.59h61.51a6.6,6.6,0,0,0,0-13.2Z"/><path d="M84.16,135.15a5.59,5.59,0,0,1-1.88,4.17,6,6,0,0,1-4.21,1.78,5.6,5.6,0,0,1-4.33-2.1L61.56,124.58,49.16,139a5.54,5.54,0,0,1-4.26,2.1,5.91,5.91,0,0,1-4.21-1.82,5.65,5.65,0,0,1-1.88-4.2,5.75,5.75,0,0,1,1.49-3.78l13.6-15.54L40.65,100.57a5.75,5.75,0,0,1-1.56-3.78A5.57,5.57,0,0,1,41,92.63a6.05,6.05,0,0,1,4.29-1.79,5.59,5.59,0,0,1,4.32,2.1l12,14,11.9-14a5.19,5.19,0,0,1,4.18-2.1,6.05,6.05,0,0,1,4.29,1.79,5.57,5.57,0,0,1,1.88,4.16,5.75,5.75,0,0,1-1.49,3.78L69.07,115.76,82.6,131.3A5.67,5.67,0,0,1,84.16,135.15Z"/><path d="M158.69,10.75a6,6,0,0,1,4.22,1.78,5.51,5.51,0,0,1,1.87,4.1,5.89,5.89,0,0,1-1.55,3.85l-14.88,17V54.57a6.07,6.07,0,0,1-1.81,4.72,6.62,6.62,0,0,1-4.64,1.65,6.85,6.85,0,0,1-4.75-1.65,6,6,0,0,1-1.84-4.72V37.49l-14.74-17a5.78,5.78,0,0,1-1.63-3.92,5.42,5.42,0,0,1,1.84-4.06A5.9,5.9,0,0,1,125,10.75a5.59,5.59,0,0,1,4.32,2.1l12.55,14.7,12.54-14.7A5.59,5.59,0,0,1,158.69,10.75Z"/></svg>