<svg id="Layer_1" data-name="Layer 1" xmlns="http://www.w3.org/2000/svg" viewBox="0 0 130 130"><title>l13_1_1</title><path d="M124.26,59.16H70.74V5.64a5.74,5.74,0,1,0-11.48,0V59.16H5.74a5.74,5.74,0,0,0,0,11.48H59.26v53.52a5.74,5.74,0,1,0,11.48,0V70.64h53.52a5.74,5.74,0,0,0,0-11.48Z"/><path d="M5.7,100.73c0-2.16,1.31-3.24,4-3.24h8.94a4.41,4.41,0,0,1,3,.85,3,3,0,0,1,1,2.39,3.07,3.07,0,0,1-1,2.42,4.35,4.35,0,0,1-3,.87H9.65C7,104,5.7,102.93,5.7,100.73Z"/><path d="M51,107.34a3.08,3.08,0,0,1,1,2.56,3.22,3.22,0,0,1-1,2.63,4.84,4.84,0,0,1-3.12.85H30.49a3.63,3.63,0,0,1-2.72-1,3.5,3.5,0,0,1-1-2.56,5.12,5.12,0,0,1,1.62-3.66L38.48,95.75q3.14-3.24,3.14-6a3.13,3.13,0,0,0-.93-2.44,3.76,3.76,0,0,0-2.64-.85,8,8,0,0,0-2.55.4A24.15,24.15,0,0,0,32.82,88l-.95.47-.74.4a5.79,5.79,0,0,1-1,.45,2.93,2.93,0,0,1-.9.14,2.43,2.43,0,0,1-2-1.06,4,4,0,0,1-.81-2.51,3.9,3.9,0,0,1,.31-1.69A3.21,3.21,0,0,1,27.92,83a19.47,19.47,0,0,1,10.51-3.19A15.47,15.47,0,0,1,44.62,81a9.28,9.28,0,0,1,4.11,3.29,8.52,8.52,0,0,1,1.45,4.91A11.81,11.81,0,0,1,49,94.41a21.92,21.92,0,0,1-4,5.29l-6.75,6.81h9.56A4.91,4.91,0,0,1,51,107.34Z"/><path d="M110.9,39.35a3.09,3.09,0,0,1,1,2.56,3.22,3.22,0,0,1-1,2.63,4.83,4.83,0,0,1-3.11.85H90.42a3.64,3.64,0,0,1-2.71-1,3.5,3.5,0,0,1-1-2.57,5.12,5.12,0,0,1,1.62-3.66L98.41,27.76c2.1-2.16,3.14-4.15,3.14-6a3.16,3.16,0,0,0-.92-2.44A3.77,3.77,0,0,0,98,18.5a8,8,0,0,0-2.54.4,24.22,24.22,0,0,0-2.69,1.15l-1,.47-.74.4a5,5,0,0,1-1,.45,3,3,0,0,1-.91.14,2.43,2.43,0,0,1-2-1.06,4,4,0,0,1-.8-2.51,3.93,3.93,0,0,1,.31-1.69A3.1,3.1,0,0,1,87.85,15a19.47,19.47,0,0,1,10.52-3.19A15.45,15.45,0,0,1,104.55,13a9.26,9.26,0,0,1,4.12,3.29,8.6,8.6,0,0,1,1.45,4.91A11.68,11.68,0,0,1,109,26.42a22.11,22.11,0,0,1-4,5.29l-6.76,6.81h9.57A4.89,4.89,0,0,1,110.9,39.35Z"/><circle cx="98.96" cy="95.86" r="15.68"/><circle cx="30.16" cy="29.7" r="15.68"/></svg>