<svg id="Layer_1" data-name="Layer 1" xmlns="http://www.w3.org/2000/svg" viewBox="0 0 130 130"><title>l13_3_1</title><path d="M107.08,114.63H22.92A22.92,22.92,0,0,1,0,91.71V42.25A22.92,22.92,0,0,1,22.92,19.33h84.16A22.92,22.92,0,0,1,130,42.25V91.71A22.92,22.92,0,0,1,107.08,114.63ZM68.47,59.23a17.88,17.88,0,0,0-7,1.26V51.88h15.3q6.17,0,6.17-4.9t-6.17-4.83h-22a6.12,6.12,0,0,0-4.47,1.54,6,6,0,0,0-1.56,4.48v19a3.82,3.82,0,0,0,1.35,3,4.94,4.94,0,0,0,3.33,1.15,6.77,6.77,0,0,0,3.19-.77,26.67,26.67,0,0,1,4.07-1.26A19.91,19.91,0,0,1,64.57,69a8.1,8.1,0,0,1,5.53,1.75,6.21,6.21,0,0,1,2,4.9,6,6,0,0,1-1.92,4.94q-1.9,1.58-5.88,1.57a11.82,11.82,0,0,1-3.93-.63,38.78,38.78,0,0,1-4-1.68l-1.42-.7q-1.42-.77-2.13-1A5,5,0,0,0,51,77.78a3.68,3.68,0,0,0-3,1.51A5.7,5.7,0,0,0,46.86,83a5.21,5.21,0,0,0,.53,2.42,6.25,6.25,0,0,0,1.67,1.92,23.34,23.34,0,0,0,7.26,3.5,29.9,29.9,0,0,0,8.61,1.26A23.21,23.21,0,0,0,75.06,90,15.82,15.82,0,0,0,81.86,84a16.36,16.36,0,0,0,2.41-8.89,16.63,16.63,0,0,0-2-8.29,14.2,14.2,0,0,0-5.59-5.6A16.56,16.56,0,0,0,68.47,59.23Z"/></svg>