<svg id="Layer_1" data-name="Layer 1" xmlns="http://www.w3.org/2000/svg" viewBox="0 0 130 130"><title>l13_3_1</title><path d="M119.46,108.65H34.83a14.64,14.64,0,0,1-10.51-4.94,13.92,13.92,0,0,1-3.13-7.42V10.53a10.55,10.55,0,0,0-21.09,0v98.12a20.83,20.83,0,0,0,6.16,15.41,20.72,20.72,0,0,0,14.93,5.64h98.27a10.53,10.53,0,1,0,0-21Z"/><path d="M105.94,100.53H48A16.38,16.38,0,0,1,31.65,84.15V26.24A16.39,16.39,0,0,1,48,9.86h57.91a16.38,16.38,0,0,1,16.38,16.38V84.15A16.38,16.38,0,0,1,105.94,100.53ZM88.26,67.16H76.05l8.62-8.7a28,28,0,0,0,5.07-6.75A15,15,0,0,0,91.23,45a10.94,10.94,0,0,0-1.85-6.27,11.86,11.86,0,0,0-5.26-4.2,19.69,19.69,0,0,0-7.89-1.47,24.89,24.89,0,0,0-13.42,4.08,4,4,0,0,0-1.49,1.56,5,5,0,0,0-.4,2.16,5.13,5.13,0,0,0,1,3.21,3.08,3.08,0,0,0,2.55,1.35,3.64,3.64,0,0,0,1.15-.18,7.65,7.65,0,0,0,1.25-.57c.46-.26.77-.43.94-.51l1.21-.6a30,30,0,0,1,3.43-1.47,10,10,0,0,1,3.25-.51,4.82,4.82,0,0,1,3.37,1.08A4,4,0,0,1,80.3,45.8q0,3.48-4,7.62L63.41,66.68a6.55,6.55,0,0,0-2.06,4.68,4.46,4.46,0,0,0,1.27,3.27,4.66,4.66,0,0,0,3.47,1.29H88.26a6.13,6.13,0,0,0,4-1.08,4.12,4.12,0,0,0,1.31-3.36,4,4,0,0,0-1.31-3.27A6.26,6.26,0,0,0,88.26,67.16Z"/></svg>