<svg id="Layer_1" data-name="Layer 1" xmlns="http://www.w3.org/2000/svg" viewBox="0 0 130 130"><title>l13_4_1</title><path d="M107.08,130H22.92A22.92,22.92,0,0,1,0,107.08V22.92A22.92,22.92,0,0,1,22.92,0h84.16A22.92,22.92,0,0,1,130,22.92v84.16A22.92,22.92,0,0,1,107.08,130ZM49.69,63.52a11.29,11.29,0,0,0,7.66-11,12.11,12.11,0,0,0-2.16-7.14A13.92,13.92,0,0,0,49,40.63,23.74,23.74,0,0,0,39.77,39a28.68,28.68,0,0,0-8.39,1.26,23.61,23.61,0,0,0-7.19,3.5,5.69,5.69,0,0,0-1.71,1.89A5.4,5.4,0,0,0,22,48.05a5.68,5.68,0,0,0,1.2,3.67,3.68,3.68,0,0,0,3,1.51,4.69,4.69,0,0,0,1.77-.32c.52-.21,1.23-.54,2.13-1l1.48-.7a38.58,38.58,0,0,1,3.87-1.68,10.76,10.76,0,0,1,3.72-.63,6.17,6.17,0,0,1,4.32,1.43,5.21,5.21,0,0,1,1.56,4,3.92,3.92,0,0,1-1.77,3.57c-1.18.75-3.08,1.12-5.67,1.12H34.46a4.06,4.06,0,0,0-3.33,1.47,5.67,5.67,0,0,0,0,7A4.06,4.06,0,0,0,34.46,69h4.39c2.7,0,4.63.4,5.81,1.19a4.37,4.37,0,0,1,1.77,3.92c0,2-.57,3.36-1.73,4.2s-3.06,1.26-5.7,1.26a12.87,12.87,0,0,1-4.08-.6,30.55,30.55,0,0,1-4.07-1.71L30,76.85c-.26-.11-.48-.22-.67-.31q-1.35-.71-2.13-1a4.69,4.69,0,0,0-1.77-.31,3.7,3.7,0,0,0-3,1.5,5.73,5.73,0,0,0-1.2,3.68,5.29,5.29,0,0,0,.5,2.41,5.47,5.47,0,0,0,1.7,1.93,22.62,22.62,0,0,0,7.37,3.53,31.64,31.64,0,0,0,8.85,1.23,26.77,26.77,0,0,0,10-1.72,14.78,14.78,0,0,0,6.62-4.86,12.09,12.09,0,0,0,2.34-7.42,12.32,12.32,0,0,0-2.37-7.63A12,12,0,0,0,49.69,63.52Zm57.68,16.1L93.84,64.08l13.25-15.19a5.75,5.75,0,0,0,1.49-3.78,5.59,5.59,0,0,0-1.88-4.17,6,6,0,0,0-4.29-1.78,5.2,5.2,0,0,0-4.18,2.1l-11.9,14-12-14A5.59,5.59,0,0,0,70,39.16a6,6,0,0,0-4.29,1.78,5.58,5.58,0,0,0-1.87,4.17,5.73,5.73,0,0,0,1.55,3.78L78.67,64.08,65.07,79.62a5.75,5.75,0,0,0-1.49,3.78,5.68,5.68,0,0,0,1.88,4.2,5.93,5.93,0,0,0,4.22,1.82,5.53,5.53,0,0,0,4.25-2.1L86.33,72.9,98.52,87.32a5.57,5.57,0,0,0,4.32,2.1,6,6,0,0,0,4.21-1.79,5.53,5.53,0,0,0,1.88-4.16A5.67,5.67,0,0,0,107.37,79.62Z"/></svg>