<svg id="Layer_1" data-name="Layer 1" xmlns="http://www.w3.org/2000/svg" viewBox="0 0 130 130"><title>l13_4_1</title><path d="M129.67,64.88a11.66,11.66,0,0,1-3.38,8.38Q99.6,100,72.88,126.61c-4.64,4.59-10.62,4.5-15.31-.16Q30.68,99.74,4,72.83C-.93,67.93-.87,62,4.06,57Q30.67,30.26,57.44,3.65c4.91-4.89,10.87-4.86,15.81.05q26.52,26.37,52.91,52.88A11.86,11.86,0,0,1,129.67,64.88ZM57.86,67.07H56.52V45.41a5.08,5.08,0,0,0-1.64-4,5.78,5.78,0,0,0-4-1.44,6.14,6.14,0,0,0-2.7.63,5.61,5.61,0,0,0-2.16,1.83L28.7,66.89a6.67,6.67,0,0,0-1.33,4,4.44,4.44,0,0,0,4.73,4.62H45.65v2a5.27,5.27,0,0,0,1.49,4.08A5.51,5.51,0,0,0,51.05,83a5.64,5.64,0,0,0,4-1.38,5.25,5.25,0,0,0,1.52-4.08v-2h1.34q5.28,0,5.28-4.26T57.86,67.07Zm-19.5,0,7.29-10.38V67.07ZM102,74.63,90.35,61.31l11.36-13A4.9,4.9,0,0,0,103,45.05a4.76,4.76,0,0,0-1.61-3.57A5.18,5.18,0,0,0,97.7,40a4.44,4.44,0,0,0-3.58,1.8l-10.21,12-10.26-12A4.81,4.81,0,0,0,69.94,40a5.17,5.17,0,0,0-3.67,1.53,4.76,4.76,0,0,0-1.61,3.57A4.94,4.94,0,0,0,66,48.29l11.36,13L65.69,74.63A4.79,4.79,0,0,0,66,81.47,5.09,5.09,0,0,0,69.64,83a4.73,4.73,0,0,0,3.64-1.8L83.91,68.87,94.36,81.23a4.78,4.78,0,0,0,3.7,1.8,5.14,5.14,0,0,0,3.62-1.53,4.79,4.79,0,0,0,1.61-3.57A4.86,4.86,0,0,0,102,74.63Z"/></svg>