<svg id="Layer_1" data-name="Layer 1" xmlns="http://www.w3.org/2000/svg" viewBox="0 0 130 130"><title>l13_3_1</title><path d="M64.74,121.84c-15.08,0-30.15,0-45.22,0C4,121.77-4.56,107.18,3.19,93.61Q25.81,54,48.78,14.51C56.5,1.23,73.51.93,81.29,14.17Q104.66,53.9,127.36,94c7.59,13.42-1.13,27.73-16.51,27.78S80.11,121.84,64.74,121.84Zm16-37.13H63.92l11.85-12a38.29,38.29,0,0,0,7-9.27,20.43,20.43,0,0,0,2-9.19,15,15,0,0,0-2.55-8.61A16.24,16.24,0,0,0,75,39.91a27.27,27.27,0,0,0-10.85-2,33,33,0,0,0-9.64,1.49,32.5,32.5,0,0,0-8.8,4.12,5.46,5.46,0,0,0-2,2.14A7.88,7.88,0,0,0,44.57,53a4.26,4.26,0,0,0,3.5,1.85,4.89,4.89,0,0,0,1.58-.25,9.16,9.16,0,0,0,1.71-.78c.64-.36,1.07-.59,1.3-.7l1.67-.83a41,41,0,0,1,4.71-2,13.59,13.59,0,0,1,4.46-.7,6.6,6.6,0,0,1,4.63,1.48,5.49,5.49,0,0,1,1.63,4.28q0,4.78-5.51,10.47L46.57,84.05a9,9,0,0,0-2.84,6.42A6.12,6.12,0,0,0,45.48,95a6.41,6.41,0,0,0,4.76,1.77H80.69a8.52,8.52,0,0,0,5.47-1.48A5.67,5.67,0,0,0,88,90.64a5.43,5.43,0,0,0-1.79-4.49Q84.36,84.71,80.69,84.71Z"/></svg>