<svg id="Layer_1" data-name="Layer 1" xmlns="http://www.w3.org/2000/svg" viewBox="0 0 130 130"><title>l13_1_1</title><path d="M119.41,108.19H34.79a14.62,14.62,0,0,1-10.51-4.94,13.93,13.93,0,0,1-3.14-7.42V10.07a10.54,10.54,0,0,0-21.08,0v98.12a20.84,20.84,0,0,0,6.16,15.42,20.8,20.8,0,0,0,14.92,5.64h98.27a10.53,10.53,0,1,0,0-21.06Z"/><path d="M29,58a29.59,29.59,0,0,1,5-17.12,5.5,5.5,0,0,1,1.8-1.82,3.86,3.86,0,0,1,2-.64,2.49,2.49,0,0,1,1.76.64,2.3,2.3,0,0,1,.69,1.78,4.17,4.17,0,0,1-.32,1.54A38.55,38.55,0,0,0,37.72,50,46.64,46.64,0,0,0,37.05,58a45.2,45.2,0,0,0,.67,8,41,41,0,0,0,2.18,7.54,4.17,4.17,0,0,1,.32,1.54,2.27,2.27,0,0,1-.69,1.74,2.49,2.49,0,0,1-1.76.64,4,4,0,0,1-2-.62,5.34,5.34,0,0,1-1.8-1.8A29.71,29.71,0,0,1,29,58Z"/><path d="M65.45,56.37a7.77,7.77,0,0,1,1.49,4.79,7.62,7.62,0,0,1-1.47,4.67,9.37,9.37,0,0,1-4.17,3.06A16.83,16.83,0,0,1,55,70a19.82,19.82,0,0,1-5.57-.77A14.32,14.32,0,0,1,44.8,67a3.06,3.06,0,0,1-1.38-2.73,3.59,3.59,0,0,1,.76-2.31A2.3,2.3,0,0,1,46.05,61a2.75,2.75,0,0,1,1.11.2c.33.13.78.34,1.34.63l.42.2.56.24A19.9,19.9,0,0,0,52,63.34a8.15,8.15,0,0,0,2.56.38,6.24,6.24,0,0,0,3.59-.8,3,3,0,0,0,1.09-2.64,2.75,2.75,0,0,0-1.11-2.46,6.78,6.78,0,0,0-3.66-.75H51.75a2.56,2.56,0,0,1-2.09-.92,3.56,3.56,0,0,1,0-4.4,2.54,2.54,0,0,1,2.09-.93h2a6.88,6.88,0,0,0,3.56-.7,2.45,2.45,0,0,0,1.12-2.24,3.27,3.27,0,0,0-1-2.53,3.89,3.89,0,0,0-2.72-.91,6.93,6.93,0,0,0-2.34.4,24.07,24.07,0,0,0-2.43,1.06l-.93.44c-.57.29-1,.5-1.34.63a2.75,2.75,0,0,1-1.11.2,2.3,2.3,0,0,1-1.87-.94,3.55,3.55,0,0,1-.76-2.31,3.49,3.49,0,0,1,.31-1.54,3.64,3.64,0,0,1,1.07-1.19A15,15,0,0,1,49.81,39a18,18,0,0,1,5.28-.79,15,15,0,0,1,5.81,1,8.77,8.77,0,0,1,3.88,3,7.69,7.69,0,0,1,1.36,4.49,7.09,7.09,0,0,1-4.81,6.91A7.62,7.62,0,0,1,65.45,56.37Z"/><path d="M78.14,62.75a5.89,5.89,0,0,1,1.23,4,12.33,12.33,0,0,1-3.7,8.89,2.17,2.17,0,0,1-1.56.66,2.32,2.32,0,0,1-1.56-.59,1.8,1.8,0,0,1-.67-1.35,1.77,1.77,0,0,1,.58-1.27,8.9,8.9,0,0,0,2.14-3.52,4.2,4.2,0,0,1-2.76-1.21,3.76,3.76,0,0,1-1.07-2.75,4.19,4.19,0,0,1,1.2-3,4.27,4.27,0,0,1,6.17.18Z"/><path d="M103,38.33a3.73,3.73,0,0,1,2.65,1.12A3.46,3.46,0,0,1,106.8,42a3.66,3.66,0,0,1-1,2.42l-9.35,10.7V65.87a3.81,3.81,0,0,1-1.14,3,4.15,4.15,0,0,1-2.91,1,4.32,4.32,0,0,1-3-1,3.78,3.78,0,0,1-1.16-3V55.14L79,44.44A3.64,3.64,0,0,1,78,42a3.42,3.42,0,0,1,1.16-2.55,3.73,3.73,0,0,1,2.63-1.1,3.53,3.53,0,0,1,2.72,1.32l7.88,9.24,7.89-9.24A3.5,3.5,0,0,1,103,38.33Z"/><path d="M115.29,76.87a4.09,4.09,0,0,1-2.07.62,2.41,2.41,0,0,1-1.72-.64,2.27,2.27,0,0,1-.69-1.74,4.15,4.15,0,0,1,.31-1.54A40.22,40.22,0,0,0,113.3,66a44.28,44.28,0,0,0,.67-8A45.67,45.67,0,0,0,113.3,50a37.87,37.87,0,0,0-2.18-7.55,4.15,4.15,0,0,1-.31-1.54,2.27,2.27,0,0,1,.69-1.74,2.52,2.52,0,0,1,1.76-.64,4,4,0,0,1,2,.62,5.43,5.43,0,0,1,1.8,1.8,29.59,29.59,0,0,1,5,17.12,29.71,29.71,0,0,1-5,17A5.43,5.43,0,0,1,115.29,76.87Z"/></svg>