<svg id="Layer_1" data-name="Layer 1" xmlns="http://www.w3.org/2000/svg" viewBox="0 0 130 130"><title>l13_4_1</title><path d="M107.08,120.74H22.92A22.92,22.92,0,0,1,0,97.82V48.37A22.93,22.93,0,0,1,22.92,25.44h84.16A22.93,22.93,0,0,1,130,48.37V97.82A22.92,22.92,0,0,1,107.08,120.74ZM55.93,79.49H54.37V54.21a5.92,5.92,0,0,0-1.91-4.68,6.75,6.75,0,0,0-4.61-1.68,7.13,7.13,0,0,0-3.15.73,6.49,6.49,0,0,0-2.52,2.13L21.92,79.28a7.75,7.75,0,0,0-1.56,4.62,5.26,5.26,0,0,0,1.49,3.84,5.34,5.34,0,0,0,4,1.54h15.8v2.38a6.18,6.18,0,0,0,1.73,4.76A6.43,6.43,0,0,0,48,98a6.56,6.56,0,0,0,4.61-1.61,6.09,6.09,0,0,0,1.77-4.76V89.28h1.56q6.16,0,6.16-5T55.93,79.49Zm-22.75,0,8.51-12.12V79.49Zm74.19,8.82L93.84,72.77l13.25-15.2a5.71,5.71,0,0,0,1.49-3.78,5.59,5.59,0,0,0-1.88-4.16,6,6,0,0,0-4.29-1.78A5.17,5.17,0,0,0,98.23,50L86.33,64l-12-14A5.56,5.56,0,0,0,70,47.85a6,6,0,0,0-4.29,1.78,5.59,5.59,0,0,0-1.88,4.16,5.75,5.75,0,0,0,1.56,3.78l13.25,15.2L65.07,88.31a5.58,5.58,0,0,0,.39,8,5.9,5.9,0,0,0,4.22,1.83A5.51,5.51,0,0,0,73.93,96l12.4-14.42L98.52,96a5.55,5.55,0,0,0,4.32,2.11,6,6,0,0,0,4.21-1.79,5.55,5.55,0,0,0,1.88-4.16A5.63,5.63,0,0,0,107.37,88.31Z"/></svg>