<svg id="Layer_1" data-name="Layer 1" xmlns="http://www.w3.org/2000/svg" viewBox="0 0 130 130"><title>l13_3_1</title><path d="M130,65A65,65,0,1,1,65,0,65,65,0,0,1,130,65ZM80.23,72.63H78.68V47.36a5.9,5.9,0,0,0-1.92-4.69A6.73,6.73,0,0,0,72.16,41a7.2,7.2,0,0,0-3.16.73,6.47,6.47,0,0,0-2.51,2.14L46.22,72.42A7.75,7.75,0,0,0,44.66,77a5.2,5.2,0,0,0,5.53,5.39H66v2.38a6.18,6.18,0,0,0,1.74,4.76,6.45,6.45,0,0,0,4.57,1.61,6.58,6.58,0,0,0,4.6-1.61,6.13,6.13,0,0,0,1.78-4.76V82.43h1.55q6.17,0,6.17-5T80.23,72.63Zm-22.74,0L66,60.52V72.63Z"/></svg>