<svg id="Layer_1" data-name="Layer 1" xmlns="http://www.w3.org/2000/svg" viewBox="0 0 130 130"><title>l13_4_1</title><path d="M127.07,95.91Q104.39,55.79,81,16.05c-7.78-13.24-24.8-12.94-32.51.34Q25.57,55.86,2.9,95.49c-7.74,13.57.8,28.16,16.34,28.21,15.07,0,30.14,0,45.21,0,15.37,0,30.74,0,46.11,0S134.66,109.34,127.07,95.91ZM58,98.37a12.71,12.71,0,0,1-5.68,4.17A23,23,0,0,1,43.77,104,27.29,27.29,0,0,1,36.18,103a19.61,19.61,0,0,1-6.32-3,4.73,4.73,0,0,1-1.46-1.66A4.66,4.66,0,0,1,28,96.21a4.86,4.86,0,0,1,1-3.14,3.14,3.14,0,0,1,2.55-1.3,4,4,0,0,1,1.52.27c.44.19,1.05.48,1.82.87a6.42,6.42,0,0,0,.58.28l.76.33A26.94,26.94,0,0,0,39.73,95a11.09,11.09,0,0,0,3.49.51q3.41,0,4.89-1.08a4.15,4.15,0,0,0,1.49-3.59,3.77,3.77,0,0,0-1.52-3.37c-1-.68-2.67-1-5-1H39.33a3.47,3.47,0,0,1-2.85-1.27,4.55,4.55,0,0,1-1-3,4.61,4.61,0,0,1,1-3,3.49,3.49,0,0,1,2.85-1.26H42a9.27,9.27,0,0,0,4.85-1,3.31,3.31,0,0,0,1.52-3,4.49,4.49,0,0,0-1.33-3.46,5.32,5.32,0,0,0-3.71-1.23,9.58,9.58,0,0,0-3.19.54,33.73,33.73,0,0,0-3.31,1.44l-1.27.6c-.77.4-1.38.69-1.82.87a4.07,4.07,0,0,1-1.52.28,3.14,3.14,0,0,1-2.55-1.29,4.92,4.92,0,0,1-1-3.16,4.63,4.63,0,0,1,.43-2.09,4.93,4.93,0,0,1,1.46-1.63,20.2,20.2,0,0,1,6.16-3,24.64,24.64,0,0,1,7.2-1.08,20.36,20.36,0,0,1,7.93,1.44,11.92,11.92,0,0,1,5.28,4.08A10.46,10.46,0,0,1,59,72.33a9.9,9.9,0,0,1-1.73,5.79,9.74,9.74,0,0,1-4.83,3.63A10.37,10.37,0,0,1,58,85.48a10.51,10.51,0,0,1,2,6.54A10.35,10.35,0,0,1,58,98.37Zm43.52,4A5.12,5.12,0,0,1,97.94,104a4.76,4.76,0,0,1-3.7-1.8L83.79,89.79,73.16,102.15a4.69,4.69,0,0,1-3.64,1.8,5,5,0,0,1-3.61-1.55,4.87,4.87,0,0,1-1.61-3.61,4.94,4.94,0,0,1,1.27-3.24L77.23,82.23l-11.35-13A4.86,4.86,0,0,1,64.54,66a4.78,4.78,0,0,1,1.61-3.58,5.18,5.18,0,0,1,3.67-1.53,4.84,4.84,0,0,1,3.71,1.8l10.26,12L94,62.67a4.46,4.46,0,0,1,3.58-1.8,5.17,5.17,0,0,1,3.67,1.53A4.78,4.78,0,0,1,102.86,66a4.86,4.86,0,0,1-1.27,3.23l-11.36,13,11.6,13.32a4.89,4.89,0,0,1,1.34,3.31A4.77,4.77,0,0,1,101.56,102.42Z"/></svg>