<svg id="Layer_1" data-name="Layer 1" xmlns="http://www.w3.org/2000/svg" viewBox="0 0 130 130"><title>l13_3_1</title><path d="M119.46,109.27H34.83a14.66,14.66,0,0,1-10.51-5,13.87,13.87,0,0,1-3.13-7.41V11.14a10.55,10.55,0,0,0-21.09,0v98.13a20.84,20.84,0,0,0,6.16,15.41,20.72,20.72,0,0,0,14.93,5.64h98.27a10.53,10.53,0,1,0,0-21Z"/><path d="M121.81,54.28a47.7,47.7,0,1,1-47.7-47.7A47.7,47.7,0,0,1,121.81,54.28ZM85.38,65.39H73.17l8.63-8.7a28.28,28.28,0,0,0,5.07-6.75,15,15,0,0,0,1.49-6.69A10.87,10.87,0,0,0,86.5,37a11.77,11.77,0,0,0-5.25-4.2,19.78,19.78,0,0,0-7.9-1.47,24,24,0,0,0-7,1.08,23.76,23.76,0,0,0-6.41,3A4,4,0,0,0,58.44,37a5.75,5.75,0,0,0,.64,5.37,3.11,3.11,0,0,0,2.55,1.35,3.71,3.71,0,0,0,1.16-.18A7.6,7.6,0,0,0,64,42.92l.94-.51,1.22-.6a29.31,29.31,0,0,1,3.43-1.47,9.93,9.93,0,0,1,3.25-.51,4.82,4.82,0,0,1,3.37,1.08A4,4,0,0,1,77.42,44c0,2.32-1.33,4.86-4,7.62L60.54,64.91a6.53,6.53,0,0,0-2.07,4.68,4.46,4.46,0,0,0,1.28,3.27,4.64,4.64,0,0,0,3.46,1.29H85.38a6.16,6.16,0,0,0,4-1.08,4.11,4.11,0,0,0,1.3-3.36,3.94,3.94,0,0,0-1.3-3.27A6.29,6.29,0,0,0,85.38,65.39Z"/></svg>