<svg id="Layer_1" data-name="Layer 1" xmlns="http://www.w3.org/2000/svg" viewBox="0 0 130 130"><title>l13_1_1</title><path d="M119.41,108.79H34.79a14.62,14.62,0,0,1-10.51-4.94,14,14,0,0,1-3.14-7.42V10.67a10.54,10.54,0,0,0-21.08,0v98.12A20.83,20.83,0,0,0,6.22,124.2a20.7,20.7,0,0,0,14.92,5.64h98.27a10.53,10.53,0,1,0,0-21Z"/><path d="M27,58.64a29.59,29.59,0,0,1,5-17.12,5.5,5.5,0,0,1,1.8-1.82,3.88,3.88,0,0,1,2-.64,2.48,2.48,0,0,1,1.76.64,2.3,2.3,0,0,1,.69,1.78A4.36,4.36,0,0,1,38,43a38,38,0,0,0-2.18,7.54,45.79,45.79,0,0,0-.67,8.08,44.16,44.16,0,0,0,.67,8A40.31,40.31,0,0,0,38,74.17a4.36,4.36,0,0,1,.31,1.54,2.27,2.27,0,0,1-.69,1.74,2.52,2.52,0,0,1-1.76.64,4,4,0,0,1-2-.62,5.34,5.34,0,0,1-1.8-1.8A29.71,29.71,0,0,1,27,58.64Z"/><path d="M70.35,66.78a3.53,3.53,0,0,1-1.18,2.62,3.79,3.79,0,0,1-2.65,1.12A3.52,3.52,0,0,1,63.8,69.2l-7.66-9.07-7.8,9.07a3.47,3.47,0,0,1-2.67,1.32A3.7,3.7,0,0,1,43,69.37a3.59,3.59,0,0,1-1.18-2.64,3.55,3.55,0,0,1,.94-2.37l8.55-9.77L43,45a3.62,3.62,0,0,1-1-2.37,3.5,3.5,0,0,1,1.18-2.62,3.79,3.79,0,0,1,2.69-1.12,3.52,3.52,0,0,1,2.72,1.32l7.53,8.8,7.48-8.8a3.26,3.26,0,0,1,2.63-1.32,3.77,3.77,0,0,1,2.69,1.12,3.51,3.51,0,0,1,1.19,2.62A3.6,3.6,0,0,1,69.19,45l-8.33,9.55,8.51,9.77A3.57,3.57,0,0,1,70.35,66.78Z"/><path d="M80.92,63.35a5.89,5.89,0,0,1,1.23,4,12.29,12.29,0,0,1-3.7,8.89,2.13,2.13,0,0,1-1.56.66,2.28,2.28,0,0,1-1.56-.6A1.76,1.76,0,0,1,74.67,75a1.73,1.73,0,0,1,.58-1.27,8.76,8.76,0,0,0,2.13-3.52A4.2,4.2,0,0,1,74.62,69a3.76,3.76,0,0,1-1.07-2.75,4.15,4.15,0,0,1,1.21-3,4.26,4.26,0,0,1,6.16.18Z"/><path d="M110.75,61.85c0,2.08-1.3,3.12-3.88,3.12h-1v1.5a3.84,3.84,0,0,1-1.11,3,4.13,4.13,0,0,1-2.9,1,4,4,0,0,1-2.87-1,3.86,3.86,0,0,1-1.09-3V65H88a3.26,3.26,0,0,1-3.47-3.38,4.92,4.92,0,0,1,1-2.91l12.74-18a4,4,0,0,1,1.58-1.34,4.49,4.49,0,0,1,2-.46,4.26,4.26,0,0,1,2.9,1,3.74,3.74,0,0,1,1.2,3V58.81h1C109.45,58.81,110.75,59.83,110.75,61.85Zm-12.83-3V51.2l-5.35,7.61Z"/><path d="M117.22,77.47a4,4,0,0,1-2.07.62,2.45,2.45,0,0,1-1.71-.64,2.27,2.27,0,0,1-.69-1.74,4.15,4.15,0,0,1,.31-1.54,40.31,40.31,0,0,0,2.18-7.55,44.16,44.16,0,0,0,.67-8,45.79,45.79,0,0,0-.67-8.08A38,38,0,0,0,113.06,43a4.15,4.15,0,0,1-.31-1.54,2.27,2.27,0,0,1,.69-1.74,2.52,2.52,0,0,1,1.76-.64,4,4,0,0,1,2,.62,5.45,5.45,0,0,1,1.81,1.8,29.67,29.67,0,0,1,5,17.12,29.78,29.78,0,0,1-5,17A5.45,5.45,0,0,1,117.22,77.47Z"/></svg>