<svg id="Layer_1" data-name="Layer 1" xmlns="http://www.w3.org/2000/svg" viewBox="0 0 130 130"><title>l13_4_1</title><path d="M107.08,130H22.92A22.92,22.92,0,0,1,0,107.08V22.92A22.92,22.92,0,0,1,22.92,0h84.16A22.92,22.92,0,0,1,130,22.92v84.16A22.92,22.92,0,0,1,107.08,130ZM55.93,70.8H54.37V45.53a5.92,5.92,0,0,0-1.91-4.69,6.75,6.75,0,0,0-4.61-1.68,7.13,7.13,0,0,0-3.15.73A6.52,6.52,0,0,0,42.18,42L21.92,70.59a7.79,7.79,0,0,0-1.56,4.62,5.2,5.2,0,0,0,5.53,5.39h15.8V83a6.2,6.2,0,0,0,1.73,4.76A6.47,6.47,0,0,0,48,89.35a6.61,6.61,0,0,0,4.61-1.61A6.11,6.11,0,0,0,54.37,83V80.6h1.56q6.16,0,6.16-5T55.93,70.8Zm-22.75,0,8.51-12.11V70.8Zm74.19,8.82L93.84,64.08l13.25-15.19a5.75,5.75,0,0,0,1.49-3.78,5.59,5.59,0,0,0-1.88-4.17,6,6,0,0,0-4.29-1.78,5.2,5.2,0,0,0-4.18,2.1l-11.9,14-12-14A5.59,5.59,0,0,0,70,39.16a6,6,0,0,0-4.29,1.78,5.58,5.58,0,0,0-1.87,4.17,5.73,5.73,0,0,0,1.55,3.78L78.67,64.08,65.07,79.62a5.75,5.75,0,0,0-1.49,3.78,5.68,5.68,0,0,0,1.88,4.2,5.93,5.93,0,0,0,4.22,1.82,5.53,5.53,0,0,0,4.25-2.1L86.33,72.9,98.52,87.32a5.57,5.57,0,0,0,4.32,2.1,6,6,0,0,0,4.21-1.79,5.53,5.53,0,0,0,1.88-4.16A5.67,5.67,0,0,0,107.37,79.62Z"/></svg>