<svg id="Layer_1" data-name="Layer 1" xmlns="http://www.w3.org/2000/svg" viewBox="0 0 130 130"><title>l13_3_1</title><path d="M107.08,130H22.92A22.92,22.92,0,0,1,0,107.08V22.92A22.92,22.92,0,0,1,22.92,0h84.16A22.92,22.92,0,0,1,130,22.92v84.16A22.92,22.92,0,0,1,107.08,130ZM68.47,56.66a17.88,17.88,0,0,0-7,1.26V49.31h15.3q6.17,0,6.17-4.9t-6.17-4.83h-22a6.08,6.08,0,0,0-4.47,1.54,6,6,0,0,0-1.56,4.48v19a3.8,3.8,0,0,0,1.35,3,5,5,0,0,0,3.33,1.16A6.89,6.89,0,0,0,56.64,68a24.88,24.88,0,0,1,4.07-1.26,19.94,19.94,0,0,1,3.87-.35,8,8,0,0,1,5.52,1.75,6.21,6.21,0,0,1,2,4.9A6,6,0,0,1,70.17,78q-1.9,1.57-5.88,1.58a11.82,11.82,0,0,1-3.93-.63,38.78,38.78,0,0,1-4-1.68l-1.42-.7q-1.42-.77-2.13-1.05A4.76,4.76,0,0,0,51,75.21a3.7,3.7,0,0,0-3,1.5,5.73,5.73,0,0,0-1.2,3.68,5.16,5.16,0,0,0,.53,2.41,6.28,6.28,0,0,0,1.67,1.93,23.57,23.57,0,0,0,7.26,3.5,29.9,29.9,0,0,0,8.61,1.26,23.21,23.21,0,0,0,10.13-2.1,15.82,15.82,0,0,0,6.8-6,16.38,16.38,0,0,0,2.41-8.89,16.67,16.67,0,0,0-2-8.3,14.27,14.27,0,0,0-5.59-5.6A16.55,16.55,0,0,0,68.47,56.66Z"/></svg>