<svg id="Layer_1" data-name="Layer 1" xmlns="http://www.w3.org/2000/svg" viewBox="0 0 130 130"><title>l13_3_1</title><path d="M64.32,121.71c-15,0-30.08,0-45.12,0-15.51,0-24-14.61-16.3-28.15Q25.48,54,48.4,14.61c7.7-13.25,24.67-13.54,32.44-.34q23.31,39.66,46,79.7c7.58,13.4-1.12,27.68-16.47,27.73S79.65,121.71,64.32,121.71Zm18.12-37H75.62v-39a7.11,7.11,0,0,0-2-5.35,7.38,7.38,0,0,0-5.37-2,14.17,14.17,0,0,0-6.91,2L48,48.06a5.56,5.56,0,0,0-2.92,5.1,6.85,6.85,0,0,0,1.67,4.48,5,5,0,0,0,4,2,5.85,5.85,0,0,0,2.92-.82L60.3,55V84.66H53.55q-3.73,0-5.49,1.48a5.49,5.49,0,0,0-1.75,4.44q0,6.09,7.24,6.09H82.44q7.25,0,7.25-6.09a5.52,5.52,0,0,0-1.75-4.44Q86.19,84.66,82.44,84.66Z"/></svg>