<svg id="Layer_1" data-name="Layer 1" xmlns="http://www.w3.org/2000/svg" viewBox="0 0 130 130"><title>l13_4_1</title><path d="M107.08,120.74H22.92A22.92,22.92,0,0,1,0,97.82V48.37A22.93,22.93,0,0,1,22.92,25.44h84.16A22.93,22.93,0,0,1,130,48.37V97.82A22.92,22.92,0,0,1,107.08,120.74ZM49.69,72.2A11.44,11.44,0,0,0,55.33,68a11.6,11.6,0,0,0,2-6.76,12.15,12.15,0,0,0-2.16-7.14A13.9,13.9,0,0,0,49,49.32a23.74,23.74,0,0,0-9.25-1.69,28.7,28.7,0,0,0-8.39,1.27,23.55,23.55,0,0,0-7.2,3.5,5.64,5.64,0,0,0-1.7,1.88A5.44,5.44,0,0,0,22,56.74a5.7,5.7,0,0,0,1.2,3.67,3.7,3.7,0,0,0,3,1.5,4.69,4.69,0,0,0,1.77-.31q.78-.32,2.13-1l1.48-.7a41,41,0,0,1,3.87-1.68,10.76,10.76,0,0,1,3.72-.63A6.13,6.13,0,0,1,43.46,59,5.2,5.2,0,0,1,45,63a3.92,3.92,0,0,1-1.77,3.58,11.08,11.08,0,0,1-5.67,1.12H34.46a4,4,0,0,0-3.33,1.47,5.28,5.28,0,0,0-1.21,3.5,5.34,5.34,0,0,0,1.21,3.5,4.08,4.08,0,0,0,3.33,1.46h4.39c2.7,0,4.63.4,5.81,1.2a4.36,4.36,0,0,1,1.77,3.92A4.87,4.87,0,0,1,44.7,87Q43,88.24,39,88.24a12.85,12.85,0,0,1-4.07-.6,32.13,32.13,0,0,1-4.07-1.72L30,85.54l-.67-.31q-1.35-.7-2.13-1a4.69,4.69,0,0,0-1.77-.31,3.7,3.7,0,0,0-3,1.5,5.7,5.7,0,0,0-1.2,3.67,4.85,4.85,0,0,0,2.19,4.34A23,23,0,0,0,30.77,97a31.76,31.76,0,0,0,8.86,1.22,27,27,0,0,0,10-1.71,14.83,14.83,0,0,0,6.62-4.86,12.14,12.14,0,0,0,2.34-7.43,12.36,12.36,0,0,0-2.37-7.63A12.15,12.15,0,0,0,49.69,72.2Zm57.68,16.11L93.84,72.77l13.25-15.2a5.71,5.71,0,0,0,1.49-3.78,5.59,5.59,0,0,0-1.88-4.16,6,6,0,0,0-4.29-1.78A5.17,5.17,0,0,0,98.23,50L86.33,64l-12-14A5.56,5.56,0,0,0,70,47.85a6,6,0,0,0-4.29,1.78,5.59,5.59,0,0,0-1.88,4.16,5.75,5.75,0,0,0,1.56,3.78l13.25,15.2L65.07,88.31a5.58,5.58,0,0,0,.39,8,5.9,5.9,0,0,0,4.22,1.83A5.51,5.51,0,0,0,73.93,96l12.4-14.42L98.51,96a5.58,5.58,0,0,0,4.33,2.11,6,6,0,0,0,4.21-1.79,5.55,5.55,0,0,0,1.88-4.16A5.63,5.63,0,0,0,107.37,88.31Z"/></svg>