<svg id="Layer_1" data-name="Layer 1" xmlns="http://www.w3.org/2000/svg" viewBox="0 0 130 130"><title>l13_3_1</title><path d="M107.08,130H22.92A22.92,22.92,0,0,1,0,107.08V22.92A22.92,22.92,0,0,1,22.92,0h84.16A22.92,22.92,0,0,1,130,22.92v84.16A22.92,22.92,0,0,1,107.08,130ZM80,78.71H74.21V45.53A6.07,6.07,0,0,0,72.48,41a6.31,6.31,0,0,0-4.57-1.68A12.06,12.06,0,0,0,62,41.05L50.69,47.56a4.73,4.73,0,0,0-2.48,4.34,5.84,5.84,0,0,0,1.41,3.81A4.27,4.27,0,0,0,53,57.43a4.84,4.84,0,0,0,2.48-.7l5.67-3.29V78.71H55.43A7.14,7.14,0,0,0,50.76,80a4.68,4.68,0,0,0-1.49,3.78q0,5.18,6.16,5.18H80q6.17,0,6.17-5.18A4.68,4.68,0,0,0,84.7,80,7.15,7.15,0,0,0,80,78.71Z"/></svg>