<svg id="Layer_1" data-name="Layer 1" xmlns="http://www.w3.org/2000/svg" viewBox="0 0 130 130"><title>l13_1_1</title><path d="M124.26,59.16H70.74V5.64a5.74,5.74,0,1,0-11.48,0V59.16H5.74a5.74,5.74,0,0,0,0,11.48H59.26v53.52a5.74,5.74,0,1,0,11.48,0V70.64h53.52a5.74,5.74,0,0,0,0-11.48Z"/><path d="M5.72,100.73q0-3.24,4-3.24h8.94a4.42,4.42,0,0,1,3,.85,3,3,0,0,1,1,2.39,3.06,3.06,0,0,1-1,2.42,4.36,4.36,0,0,1-3,.87H9.67C7,104,5.72,102.93,5.72,100.73Z"/><path d="M50.71,99.2a8.81,8.81,0,0,1-2,12q-3.55,2.51-9.68,2.51c-4.1,0-7.32-.84-9.69-2.51a8.1,8.1,0,0,1-3.54-7,8.18,8.18,0,0,1,1.57-5.15,8,8,0,0,1,4.47-2.79,7.8,7.8,0,0,1-3.8-2.9,7.9,7.9,0,0,1-1.34-4.58A7.72,7.72,0,0,1,30,82.24c2.22-1.62,5.22-2.42,9-2.42s6.81.8,9,2.42a7.73,7.73,0,0,1,3.31,6.6A8,8,0,0,1,50,93.54a7.18,7.18,0,0,1-3.73,2.78A8.31,8.31,0,0,1,50.71,99.2Zm-6.5,4.35q0-3.66-5.18-3.66t-5.19,3.66q0,3.67,5.19,3.67T44.21,103.55ZM35.84,87.17a3.18,3.18,0,0,0-1.05,2.66,3.25,3.25,0,0,0,1.05,2.68,5,5,0,0,0,3.19.84,5,5,0,0,0,3.18-.84,3.25,3.25,0,0,0,1-2.68,3.18,3.18,0,0,0-1-2.66A5.17,5.17,0,0,0,39,86.35,5.18,5.18,0,0,0,35.84,87.17Z"/><path d="M110.64,31.22a8.12,8.12,0,0,1,1.55,5.05,8.1,8.1,0,0,1-3.55,7Q105.1,45.76,99,45.76t-9.68-2.51a8.1,8.1,0,0,1-3.55-7,8.24,8.24,0,0,1,1.57-5.15,8,8,0,0,1,4.48-2.79,7.6,7.6,0,0,1-5.14-7.48A7.72,7.72,0,0,1,90,14.25q3.33-2.41,9-2.42c3.81,0,6.81.81,9,2.42a7.74,7.74,0,0,1,3.3,6.6,8.1,8.1,0,0,1-1.35,4.7,7.21,7.21,0,0,1-3.74,2.78A8.19,8.19,0,0,1,110.64,31.22Zm-6.49,4.34q0-3.66-5.19-3.66t-5.19,3.66q0,3.67,5.19,3.67T104.15,35.56ZM95.77,19.18a3.21,3.21,0,0,0-1,2.66,3.28,3.28,0,0,0,1,2.68,6.48,6.48,0,0,0,6.38,0,3.25,3.25,0,0,0,1-2.68,3.18,3.18,0,0,0-1-2.66,6.61,6.61,0,0,0-6.38,0Z"/><circle cx="98.96" cy="95.86" r="15.68"/><circle cx="30.16" cy="29.7" r="15.68"/></svg>