<svg id="Layer_1" data-name="Layer 1" xmlns="http://www.w3.org/2000/svg" viewBox="0 0 130 130"><title>l13_3_1</title><path d="M119.41,108.79H34.79a14.62,14.62,0,0,1-10.51-4.94,14,14,0,0,1-3.14-7.42V10.67a10.54,10.54,0,0,0-21.08,0v98.12A20.83,20.83,0,0,0,6.22,124.2a20.7,20.7,0,0,0,14.92,5.64h98.27a10.53,10.53,0,1,0,0-21Z"/><path d="M103,100.53H45.11A16.38,16.38,0,0,1,28.73,84.15V26.24A16.39,16.39,0,0,1,45.11,9.86H103A16.38,16.38,0,0,1,119.4,26.24V84.15A16.38,16.38,0,0,1,103,100.53ZM81.78,54.14a9.8,9.8,0,0,0,4.83-3.63,9.92,9.92,0,0,0,1.73-5.79,10.42,10.42,0,0,0-1.85-6.12,11.89,11.89,0,0,0-5.29-4.08,20.31,20.31,0,0,0-7.92-1.44,24.64,24.64,0,0,0-7.2,1.08,20.2,20.2,0,0,0-6.16,3,4.81,4.81,0,0,0-1.46,1.62,4.54,4.54,0,0,0-.43,2.1,4.88,4.88,0,0,0,1,3.15,3.13,3.13,0,0,0,2.55,1.29,4,4,0,0,0,1.51-.27q.67-.27,1.83-.87l1.27-.6a33.73,33.73,0,0,1,3.31-1.44,9.29,9.29,0,0,1,3.19-.54,5.29,5.29,0,0,1,3.71,1.23,4.45,4.45,0,0,1,1.33,3.45,3.34,3.34,0,0,1-1.52,3.06,9.37,9.37,0,0,1-4.85,1H68.72a3.49,3.49,0,0,0-2.85,1.26,4.88,4.88,0,0,0,0,6,3.49,3.49,0,0,0,2.85,1.26h3.77a9.21,9.21,0,0,1,5,1A3.76,3.76,0,0,1,79,63.2a4.15,4.15,0,0,1-1.49,3.6Q76,67.88,72.61,67.88a11.09,11.09,0,0,1-3.49-.51,27.21,27.21,0,0,1-3.5-1.47l-.75-.33-.58-.27c-.77-.4-1.38-.69-1.82-.87A4.07,4.07,0,0,0,61,64.16a3.15,3.15,0,0,0-2.55,1.29,4.88,4.88,0,0,0-1,3.15,4.2,4.2,0,0,0,1.89,3.72,19.57,19.57,0,0,0,6.31,3,27.3,27.3,0,0,0,7.6,1.05,23,23,0,0,0,8.59-1.47,12.78,12.78,0,0,0,5.68-4.17,10.35,10.35,0,0,0,2-6.36,10.53,10.53,0,0,0-2-6.54A10.35,10.35,0,0,0,81.78,54.14Z"/></svg>