<svg id="Layer_1" data-name="Layer 1" xmlns="http://www.w3.org/2000/svg" viewBox="0 0 130 130"><title>l13_1_1</title><path d="M124.26,60.55H70.74V7A5.74,5.74,0,1,0,59.26,7V60.55H5.74A5.74,5.74,0,0,0,5.74,72H59.26v53.52a5.74,5.74,0,1,0,11.48,0V72h53.52a5.74,5.74,0,0,0,0-11.48Z"/><path d="M39.74,81.35a4,4,0,0,1,2.83,1.19,3.71,3.71,0,0,1,1.26,2.75,3.91,3.91,0,0,1-1,2.59l-10,11.42v11.47a4.05,4.05,0,0,1-1.21,3.17,4.45,4.45,0,0,1-3.12,1.11,4.61,4.61,0,0,1-3.19-1.11A4,4,0,0,1,24,110.77V99.3l-9.9-11.42a3.86,3.86,0,0,1-1.09-2.63,3.67,3.67,0,0,1,1.23-2.73,4,4,0,0,1,2.81-1.17A3.74,3.74,0,0,1,20,82.76l8.43,9.87,8.42-9.87A3.74,3.74,0,0,1,39.74,81.35Z"/><path d="M113.33,37.84q0,3.34-4.14,3.34h-1v1.6A4.1,4.1,0,0,1,107,46a4.41,4.41,0,0,1-3.09,1.08A4.34,4.34,0,0,1,100.79,46a4.16,4.16,0,0,1-1.16-3.2v-1.6H89a3.47,3.47,0,0,1-3.71-3.62,5.21,5.21,0,0,1,1-3.1L100,15.28a4.41,4.41,0,0,1,1.69-1.43,4.8,4.8,0,0,1,2.12-.49,4.5,4.5,0,0,1,3.09,1.13,4,4,0,0,1,1.28,3.14v17h1Q113.33,34.6,113.33,37.84ZM99.63,34.6V26.47L93.92,34.6Z"/><circle cx="98.96" cy="97.25" r="15.68"/><circle cx="30.15" cy="31.09" r="15.68"/></svg>