<svg id="Layer_1" data-name="Layer 1" xmlns="http://www.w3.org/2000/svg" viewBox="0 0 130 130"><title>l13_1_1</title><path d="M124.26,59.16H70.74V5.64a5.74,5.74,0,1,0-11.48,0V59.16H5.74a5.74,5.74,0,0,0,0,11.48H59.26v53.52a5.74,5.74,0,1,0,11.48,0V70.64h53.52a5.74,5.74,0,0,0,0-11.48Z"/><path d="M5.72,100.73q0-3.24,4-3.24h8.94a4.42,4.42,0,0,1,3,.85,3,3,0,0,1,1,2.39,3.06,3.06,0,0,1-1,2.42,4.36,4.36,0,0,1-3,.87H9.67C7,104,5.72,102.93,5.72,100.73Z"/><path d="M46.85,93.05a9.51,9.51,0,0,1,3.76,3.76A11.24,11.24,0,0,1,52,102.38a11,11,0,0,1-1.62,6,10.68,10.68,0,0,1-4.57,4,15.59,15.59,0,0,1-6.8,1.41,20.16,20.16,0,0,1-5.78-.84,15.93,15.93,0,0,1-4.88-2.35,4.17,4.17,0,0,1-1.12-1.3,3.4,3.4,0,0,1-.35-1.62,3.84,3.84,0,0,1,.8-2.47,2.49,2.49,0,0,1,2-1,3.37,3.37,0,0,1,1.19.19,15,15,0,0,1,1.43.71l.95.47a25.65,25.65,0,0,0,2.69,1.12,7.78,7.78,0,0,0,2.64.43,6.11,6.11,0,0,0,4-1.06,4.06,4.06,0,0,0,1.28-3.31,4.14,4.14,0,0,0-1.33-3.29,5.38,5.38,0,0,0-3.71-1.18,12.82,12.82,0,0,0-2.59.24,17,17,0,0,0-2.74.84,4.51,4.51,0,0,1-2.14.52A3.32,3.32,0,0,1,29,99.06a2.54,2.54,0,0,1-.9-2V84.28a4,4,0,0,1,1.05-3,4.06,4.06,0,0,1,3-1H46.92q4.14,0,4.14,3.24c0,2.2-1.38,3.29-4.14,3.29H36.65v5.78a12.08,12.08,0,0,1,4.71-.84A11,11,0,0,1,46.85,93.05Z"/><path d="M106.79,25.06a9.64,9.64,0,0,1,3.76,3.76,11.23,11.23,0,0,1,1.35,5.57,11,11,0,0,1-1.62,6,10.65,10.65,0,0,1-4.56,4,15.64,15.64,0,0,1-6.81,1.41,20.26,20.26,0,0,1-5.78-.84,16,16,0,0,1-4.87-2.35,4.17,4.17,0,0,1-1.12-1.3,3.4,3.4,0,0,1-.36-1.62,3.79,3.79,0,0,1,.81-2.46,2.47,2.47,0,0,1,2-1,3.41,3.41,0,0,1,1.19.19c.31.13.79.36,1.43.71l1,.47c1,.47,1.88.84,2.68,1.13a8,8,0,0,0,2.65.42A6.08,6.08,0,0,0,102.43,38a4,4,0,0,0,1.29-3.31,4.18,4.18,0,0,0-1.33-3.29,5.41,5.41,0,0,0-3.72-1.18,12.89,12.89,0,0,0-2.59.24,16.65,16.65,0,0,0-2.73.84,4.54,4.54,0,0,1-2.14.52A3.3,3.3,0,0,1,89,31.07a2.54,2.54,0,0,1-.9-2V16.29a4,4,0,0,1,1-3,4.1,4.1,0,0,1,3-1h14.75q4.14,0,4.14,3.24c0,2.2-1.38,3.29-4.14,3.29H96.58v5.79a11.9,11.9,0,0,1,4.71-.85A11.14,11.14,0,0,1,106.79,25.06Z"/><circle cx="98.96" cy="95.86" r="15.68"/><circle cx="30.16" cy="29.7" r="15.68"/></svg>