<svg id="Layer_1" data-name="Layer 1" xmlns="http://www.w3.org/2000/svg" viewBox="0 0 130 130"><title>l13_3_1</title><path d="M119.84,109.74H35.21A14.65,14.65,0,0,1,24.7,104.8a14,14,0,0,1-3.13-7.42V11.62a10.54,10.54,0,0,0-21.08,0v98.12a20.84,20.84,0,0,0,6.16,15.42,20.8,20.8,0,0,0,14.92,5.64h98.27a10.53,10.53,0,1,0,0-21.06Z"/><path d="M122.2,54.76A47.7,47.7,0,1,1,74.5,7.06,47.7,47.7,0,0,1,122.2,54.76ZM77.47,47a15.36,15.36,0,0,0-6,1.08V40.67H84.58q5.28,0,5.28-4.2t-5.28-4.14H65.75a5.2,5.2,0,0,0-3.82,1.32,5.13,5.13,0,0,0-1.34,3.84V53.75a3.27,3.27,0,0,0,1.15,2.61,4.24,4.24,0,0,0,2.86,1,5.85,5.85,0,0,0,2.73-.66,21.87,21.87,0,0,1,3.49-1.08,16.82,16.82,0,0,1,3.31-.3,6.91,6.91,0,0,1,4.74,1.5,5.32,5.32,0,0,1,1.7,4.2,5.18,5.18,0,0,1-1.64,4.23,7.82,7.82,0,0,1-5,1.35,10.18,10.18,0,0,1-3.37-.54,33.79,33.79,0,0,1-3.43-1.44L65.87,64a18.07,18.07,0,0,0-1.82-.9,4.14,4.14,0,0,0-1.52-.24A3.15,3.15,0,0,0,60,64.16a4.87,4.87,0,0,0-1,3.15,4.45,4.45,0,0,0,.45,2.07A5.4,5.4,0,0,0,60.83,71a20.16,20.16,0,0,0,6.23,3,25.65,25.65,0,0,0,7.38,1.08,19.89,19.89,0,0,0,8.68-1.8A13.58,13.58,0,0,0,89,68.21,14,14,0,0,0,91,60.59a14.34,14.34,0,0,0-1.73-7.11,12.31,12.31,0,0,0-4.8-4.8A14.17,14.17,0,0,0,77.47,47Z"/></svg>