<svg id="Layer_1" data-name="Layer 1" xmlns="http://www.w3.org/2000/svg" viewBox="0 0 130 130"><title>l13_1_1</title><path d="M119.41,108.79H34.79a14.62,14.62,0,0,1-10.51-4.94,14,14,0,0,1-3.14-7.42V10.67a10.54,10.54,0,0,0-21.08,0v98.12A20.83,20.83,0,0,0,6.22,124.2a20.7,20.7,0,0,0,14.92,5.64h98.27a10.53,10.53,0,1,0,0-21Z"/><path d="M29,58.64a29.59,29.59,0,0,1,5-17.12,5.5,5.5,0,0,1,1.8-1.82,3.86,3.86,0,0,1,2-.64,2.48,2.48,0,0,1,1.76.64,2.3,2.3,0,0,1,.69,1.78A4.36,4.36,0,0,1,39.91,43a38.7,38.7,0,0,0-2.19,7.54,46.76,46.76,0,0,0-.67,8.08,45.17,45.17,0,0,0,.67,8,41.13,41.13,0,0,0,2.19,7.55,4.36,4.36,0,0,1,.31,1.54,2.27,2.27,0,0,1-.69,1.74,2.52,2.52,0,0,1-1.76.64,4,4,0,0,1-2-.62,5.34,5.34,0,0,1-1.8-1.8A29.71,29.71,0,0,1,29,58.64Z"/><path d="M63,51.18a9,9,0,0,1,3.52,3.52,10.55,10.55,0,0,1,1.27,5.21,10.29,10.29,0,0,1-1.52,5.59A9.94,9.94,0,0,1,62,69.24a14.62,14.62,0,0,1-6.37,1.32,18.69,18.69,0,0,1-5.41-.79,14.82,14.82,0,0,1-4.57-2.2,3.89,3.89,0,0,1-1-1.21,3.25,3.25,0,0,1-.33-1.52A3.55,3.55,0,0,1,45,62.53a2.29,2.29,0,0,1,1.87-.94,3.24,3.24,0,0,1,1.11.17c.3.12.74.34,1.34.66l.89.44c.92.44,1.76.79,2.51,1.06a7.63,7.63,0,0,0,2.48.39,5.73,5.73,0,0,0,3.69-1,3.79,3.79,0,0,0,1.21-3.1,3.91,3.91,0,0,0-1.25-3.08A5.1,5.1,0,0,0,55.4,56a12.71,12.71,0,0,0-2.42.22,16.29,16.29,0,0,0-2.56.79,4.27,4.27,0,0,1-2,.49,3.06,3.06,0,0,1-2.09-.73,2.37,2.37,0,0,1-.85-1.91V43a3.41,3.41,0,0,1,3.79-3.78H63.07q3.87,0,3.87,3t-3.87,3.08H53.44v5.41a11.24,11.24,0,0,1,4.41-.79A10.36,10.36,0,0,1,63,51.18Z"/><path d="M78.14,63.35a5.89,5.89,0,0,1,1.23,4,12.35,12.35,0,0,1-3.7,8.89,2.17,2.17,0,0,1-1.56.66,2.28,2.28,0,0,1-1.56-.6,1.68,1.68,0,0,1-.09-2.61,8.9,8.9,0,0,0,2.14-3.52A4.24,4.24,0,0,1,71.84,69a3.76,3.76,0,0,1-1.07-2.75,4.18,4.18,0,0,1,1.2-3,4.27,4.27,0,0,1,6.17.18Z"/><path d="M103,38.93a3.73,3.73,0,0,1,2.65,1.12,3.44,3.44,0,0,1,1.18,2.57,3.63,3.63,0,0,1-1,2.42L96.47,55.73V66.47a3.81,3.81,0,0,1-1.14,3,4.14,4.14,0,0,1-2.91,1,4.31,4.31,0,0,1-3-1,3.78,3.78,0,0,1-1.16-3V55.73L79,45a3.63,3.63,0,0,1-1-2.46A3.41,3.41,0,0,1,79.14,40a3.71,3.71,0,0,1,2.63-1.1,3.52,3.52,0,0,1,2.72,1.32l7.88,9.24,7.89-9.24A3.5,3.5,0,0,1,103,38.93Z"/><path d="M115.29,77.47a4.09,4.09,0,0,1-2.07.62,2.46,2.46,0,0,1-1.72-.64,2.27,2.27,0,0,1-.69-1.74,4.36,4.36,0,0,1,.31-1.54,41.13,41.13,0,0,0,2.19-7.55,45.2,45.2,0,0,0,.66-8,46.79,46.79,0,0,0-.66-8.08A38.7,38.7,0,0,0,111.12,43a4.36,4.36,0,0,1-.31-1.54,2.27,2.27,0,0,1,.69-1.74,2.52,2.52,0,0,1,1.76-.64,4,4,0,0,1,2,.62,5.43,5.43,0,0,1,1.8,1.8,29.59,29.59,0,0,1,5,17.12,29.71,29.71,0,0,1-5,17A5.43,5.43,0,0,1,115.29,77.47Z"/></svg>