<svg id="Layer_1" data-name="Layer 1" xmlns="http://www.w3.org/2000/svg" viewBox="0 0 130 130"><title>l13_1_1</title><path d="M124.26,59.26H70.74V5.74a5.74,5.74,0,1,0-11.48,0V59.26H5.74a5.74,5.74,0,0,0,0,11.48H59.26v53.52a5.74,5.74,0,1,0,11.48,0V70.74h53.52a5.74,5.74,0,0,0,0-11.48Z"/><path d="M5.72,100.84q0-3.25,4-3.25h8.94a4.42,4.42,0,0,1,3,.85,3,3,0,0,1,1,2.4,3.08,3.08,0,0,1-1,2.42,4.36,4.36,0,0,1-3,.87H9.67Q5.73,104.13,5.72,100.84Z"/><path d="M49.47,99.33a8.28,8.28,0,0,1,1.59,5.12,8.11,8.11,0,0,1-1.57,5A10,10,0,0,1,45,112.7a18,18,0,0,1-6.73,1.15,21.37,21.37,0,0,1-6-.82,15.42,15.42,0,0,1-4.94-2.37,3.88,3.88,0,0,1-1.15-1.29,3.73,3.73,0,0,1-.33-1.63,3.79,3.79,0,0,1,.81-2.46,2.46,2.46,0,0,1,2-1,3.19,3.19,0,0,1,1.19.21c.35.14.82.37,1.43.68l.45.21.59.26a20.94,20.94,0,0,0,2.74,1.15,8.61,8.61,0,0,0,2.73.4,6.59,6.59,0,0,0,3.83-.85,3.23,3.23,0,0,0,1.17-2.82,3,3,0,0,0-1.19-2.63,7.23,7.23,0,0,0-3.9-.8H34.84a2.76,2.76,0,0,1-2.24-1,3.61,3.61,0,0,1-.81-2.35,3.57,3.57,0,0,1,.81-2.35,2.74,2.74,0,0,1,2.24-1h2.09a7.4,7.4,0,0,0,3.81-.75,2.63,2.63,0,0,0,1.19-2.4,3.47,3.47,0,0,0-1-2.7,4.13,4.13,0,0,0-2.9-1,7.1,7.1,0,0,0-2.5.43,27.07,27.07,0,0,0-2.59,1.12l-1,.47a15.4,15.4,0,0,1-1.43.69,3.16,3.16,0,0,1-1.19.21,2.49,2.49,0,0,1-2-1A3.84,3.84,0,0,1,26.46,86a3.59,3.59,0,0,1,.34-1.64,3.69,3.69,0,0,1,1.14-1.27,15.52,15.52,0,0,1,4.83-2.35,19,19,0,0,1,5.64-.85,16,16,0,0,1,6.21,1.13,9.35,9.35,0,0,1,4.14,3.19A8.2,8.2,0,0,1,50.21,89a7.6,7.6,0,0,1-5.14,7.38A8.07,8.07,0,0,1,49.47,99.33Z"/><path d="M114.19,41.82a3.76,3.76,0,0,1-1.27,2.8,4,4,0,0,1-2.83,1.2,3.76,3.76,0,0,1-2.9-1.41L99,34.73l-8.33,9.68a3.69,3.69,0,0,1-2.85,1.41A4,4,0,0,1,85,44.6a3.76,3.76,0,0,1-.26-5.36L93.87,28.8,85,18.6a3.84,3.84,0,0,1-1-2.53,3.75,3.75,0,0,1,1.26-2.8,4.06,4.06,0,0,1,2.88-1.2A3.77,3.77,0,0,1,91,13.48l8,9.4,8-9.4a3.49,3.49,0,0,1,2.81-1.41,4.06,4.06,0,0,1,2.88,1.2,3.75,3.75,0,0,1,1.26,2.8,3.85,3.85,0,0,1-1,2.53l-8.9,10.2,9.09,10.44A3.78,3.78,0,0,1,114.19,41.82Z"/><circle cx="98.96" cy="95.96" r="15.68"/><circle cx="30.16" cy="29.8" r="15.68"/></svg>