<svg id="Layer_1" data-name="Layer 1" xmlns="http://www.w3.org/2000/svg" viewBox="0 0 130 130"><title>l13_3_1</title><path d="M107.08,130H22.92A22.92,22.92,0,0,1,0,107.08V22.92A22.92,22.92,0,0,1,22.92,0h84.16A22.92,22.92,0,0,1,130,22.92v84.16A22.92,22.92,0,0,1,107.08,130ZM74,63.52a11.29,11.29,0,0,0,7.65-11,12.11,12.11,0,0,0-2.16-7.14,13.89,13.89,0,0,0-6.16-4.76A23.78,23.78,0,0,0,64.08,39a28.75,28.75,0,0,0-8.4,1.26,23.72,23.72,0,0,0-7.19,3.5,5.76,5.76,0,0,0-1.7,1.89,5.4,5.4,0,0,0-.5,2.45,5.63,5.63,0,0,0,1.21,3.67,3.65,3.65,0,0,0,3,1.51,4.75,4.75,0,0,0,1.78-.32c.51-.21,1.22-.54,2.12-1l1.49-.7a38.49,38.49,0,0,1,3.86-1.68,10.84,10.84,0,0,1,3.72-.63,6.17,6.17,0,0,1,4.32,1.43,5.21,5.21,0,0,1,1.56,4,3.92,3.92,0,0,1-1.77,3.57Q65.78,59,61.88,59H58.76a4.09,4.09,0,0,0-3.33,1.47,5.7,5.7,0,0,0,0,7A4.09,4.09,0,0,0,58.76,69h4.4q4,0,5.81,1.19a4.37,4.37,0,0,1,1.77,3.92A4.83,4.83,0,0,1,69,78.29c-1.15.84-3.06,1.26-5.7,1.26a13,13,0,0,1-4.08-.6,30.55,30.55,0,0,1-4.07-1.71l-.89-.39-.67-.31c-.9-.47-1.6-.81-2.12-1a4.71,4.71,0,0,0-1.78-.31,3.67,3.67,0,0,0-3,1.5,5.68,5.68,0,0,0-1.21,3.68A5.42,5.42,0,0,0,46,82.8a5.57,5.57,0,0,0,1.7,1.93,22.82,22.82,0,0,0,7.37,3.53,31.71,31.71,0,0,0,8.86,1.23,26.71,26.71,0,0,0,10-1.72,14.86,14.86,0,0,0,6.63-4.86,12.09,12.09,0,0,0,2.34-7.42,12.26,12.26,0,0,0-2.38-7.63A12,12,0,0,0,74,63.52Z"/></svg>