<svg id="Layer_1" data-name="Layer 1" xmlns="http://www.w3.org/2000/svg" viewBox="0 0 130 130"><title>l13_1_1</title><path d="M119.23,108.79H34.6a14.64,14.64,0,0,1-10.51-4.94A13.92,13.92,0,0,1,21,96.43V10.67a10.55,10.55,0,0,0-21.09,0v98.12A20.83,20.83,0,0,0,6,124.2,20.72,20.72,0,0,0,21,129.84h98.27a10.53,10.53,0,1,0,0-21Z"/><path d="M29.16,58.64a29.59,29.59,0,0,1,5-17.12A5.69,5.69,0,0,1,36,39.7a3.88,3.88,0,0,1,2-.64,2.48,2.48,0,0,1,1.76.64,2.3,2.3,0,0,1,.69,1.78A4.15,4.15,0,0,1,40.12,43a38,38,0,0,0-2.18,7.54,45.79,45.79,0,0,0-.67,8.08,44.16,44.16,0,0,0,.67,8,40.31,40.31,0,0,0,2.18,7.55,4.15,4.15,0,0,1,.31,1.54,2.27,2.27,0,0,1-.69,1.74,2.52,2.52,0,0,1-1.76.64,4,4,0,0,1-2-.62,5.52,5.52,0,0,1-1.8-1.8A29.71,29.71,0,0,1,29.16,58.64Z"/><path d="M68.27,64.58A3,3,0,0,1,69.2,67c0,2.18-1.29,3.26-3.87,3.26H49.87C47.29,70.21,46,69.13,46,67a3,3,0,0,1,.93-2.37,4.51,4.51,0,0,1,2.94-.79h3.61V47.9L49.92,50a3.13,3.13,0,0,1-1.56.44,2.69,2.69,0,0,1-2.14-1.08,3.7,3.7,0,0,1-.89-2.4,3,3,0,0,1,1.56-2.72L54,40.11A7.58,7.58,0,0,1,57.71,39a4,4,0,0,1,2.88,1.06,3.82,3.82,0,0,1,1.09,2.86V63.79h3.65A4.49,4.49,0,0,1,68.27,64.58Z"/><path d="M78.36,63.35a5.94,5.94,0,0,1,1.22,4,12.29,12.29,0,0,1-3.7,8.89,2.13,2.13,0,0,1-1.56.66,2.24,2.24,0,0,1-1.55-.6,1.68,1.68,0,0,1-.09-2.61,8.76,8.76,0,0,0,2.13-3.52A4.24,4.24,0,0,1,72.05,69,3.76,3.76,0,0,1,71,66.21a4.19,4.19,0,0,1,1.21-3,4,4,0,0,1,3-1.23A4,4,0,0,1,78.36,63.35Z"/><path d="M105.93,64.56a2.9,2.9,0,0,1,.95,2.39,3,3,0,0,1-.95,2.47,4.5,4.5,0,0,1-2.92.79H86.75a3.39,3.39,0,0,1-2.54-.95,3.27,3.27,0,0,1-.93-2.39,4.81,4.81,0,0,1,1.51-3.44l9.44-9.72c2-2,2.94-3.89,2.94-5.59a3,3,0,0,0-.86-2.29A3.6,3.6,0,0,0,93.83,45a7.29,7.29,0,0,0-2.38.38,22.28,22.28,0,0,0-2.51,1.07l-.9.44-.69.38a5.43,5.43,0,0,1-.91.42,3,3,0,0,1-.85.13,2.29,2.29,0,0,1-1.87-1A3.8,3.8,0,0,1,83,44.51a3.63,3.63,0,0,1,.29-1.58,2.85,2.85,0,0,1,1.09-1.14,17.07,17.07,0,0,1,4.7-2.2,17.52,17.52,0,0,1,5.14-.8A14.45,14.45,0,0,1,100,39.87,8.69,8.69,0,0,1,103.83,43a8,8,0,0,1,1.36,4.6,11,11,0,0,1-1.09,4.91,20.79,20.79,0,0,1-3.72,4.95l-6.32,6.38h9A4.57,4.57,0,0,1,105.93,64.56Z"/><path d="M114.7,77.47a4.09,4.09,0,0,1-2.07.62,2.45,2.45,0,0,1-1.71-.64,2.23,2.23,0,0,1-.69-1.74,4.15,4.15,0,0,1,.31-1.54,41.07,41.07,0,0,0,2.18-7.55,45.09,45.09,0,0,0,.67-8,46.76,46.76,0,0,0-.67-8.08A38.66,38.66,0,0,0,110.54,43a4.15,4.15,0,0,1-.31-1.54,2.23,2.23,0,0,1,.69-1.74,2.5,2.5,0,0,1,1.75-.64,4,4,0,0,1,2,.62,5.45,5.45,0,0,1,1.81,1.8,29.66,29.66,0,0,1,5,17.12,29.78,29.78,0,0,1-5,17A5.45,5.45,0,0,1,114.7,77.47Z"/></svg>