<svg id="Layer_1" data-name="Layer 1" xmlns="http://www.w3.org/2000/svg" viewBox="0 0 130 130"><title>l13_1_1</title><path d="M124,59.26H70.45V5.74A5.74,5.74,0,0,0,59,5.74V59.26H5.45a5.74,5.74,0,0,0,0,11.48H59v53.52a5.74,5.74,0,0,0,11.48,0V70.74H124a5.74,5.74,0,1,0,0-11.48Z"/><path d="M5.43,100.84c0-2.17,1.31-3.25,4-3.25h8.94a4.41,4.41,0,0,1,3,.85,3,3,0,0,1,1,2.4,3.08,3.08,0,0,1-1,2.42,4.35,4.35,0,0,1-3,.87H9.38C6.74,104.13,5.43,103,5.43,100.84Z"/><path d="M46.56,93.15a9.64,9.64,0,0,1,3.76,3.76,11.23,11.23,0,0,1,1.35,5.57,11.07,11.07,0,0,1-1.61,6,10.73,10.73,0,0,1-4.57,4,15.64,15.64,0,0,1-6.81,1.41A20.26,20.26,0,0,1,32.9,113,16,16,0,0,1,28,110.66a4.25,4.25,0,0,1-1.12-1.29,3.47,3.47,0,0,1-.36-1.63,3.79,3.79,0,0,1,.81-2.46,2.46,2.46,0,0,1,2-1,3.43,3.43,0,0,1,1.19.18,15,15,0,0,1,1.43.71l.95.47a28.27,28.27,0,0,0,2.69,1.13,7.94,7.94,0,0,0,2.64.42,6.13,6.13,0,0,0,4-1.06,4.06,4.06,0,0,0,1.28-3.31,4.18,4.18,0,0,0-1.33-3.29,5.45,5.45,0,0,0-3.71-1.18,13,13,0,0,0-2.6.24,17.42,17.42,0,0,0-2.73.85,4.65,4.65,0,0,1-2.14.51,3.35,3.35,0,0,1-2.24-.77,2.58,2.58,0,0,1-.9-2V84.39a3.64,3.64,0,0,1,4-4H46.63q4.14,0,4.14,3.25t-4.14,3.29H36.35v5.78a12,12,0,0,1,4.71-.85A11.12,11.12,0,0,1,46.56,93.15Z"/><path d="M113.89,41.82a3.75,3.75,0,0,1-1.26,2.8,4,4,0,0,1-2.83,1.2,3.74,3.74,0,0,1-2.9-1.41l-8.19-9.68-8.32,9.68a3.73,3.73,0,0,1-2.86,1.41A4,4,0,0,1,84.7,44.6a3.76,3.76,0,0,1-.26-5.36L93.58,28.8l-8.9-10.2a3.85,3.85,0,0,1-1.05-2.53,3.75,3.75,0,0,1,1.26-2.8,4.06,4.06,0,0,1,2.88-1.2,3.74,3.74,0,0,1,2.9,1.41l8,9.4,8-9.4a3.48,3.48,0,0,1,2.81-1.41,4.05,4.05,0,0,1,2.87,1.2,3.75,3.75,0,0,1,1.26,2.8,3.84,3.84,0,0,1-1,2.53l-8.9,10.2,9.09,10.44A3.81,3.81,0,0,1,113.89,41.82Z"/><circle cx="98.67" cy="95.96" r="15.68"/><circle cx="29.86" cy="29.8" r="15.68"/></svg>