<svg id="Layer_1" data-name="Layer 1" xmlns="http://www.w3.org/2000/svg" viewBox="0 0 130 130"><title>l13_1_1</title><path d="M123.92,59.26H70.4V5.74a5.74,5.74,0,0,0-11.48,0V59.26H5.4a5.74,5.74,0,0,0,0,11.48H58.92v53.52a5.74,5.74,0,0,0,11.48,0V70.74h53.52a5.74,5.74,0,0,0,0-11.48Z"/><path d="M5.38,100.84q0-3.25,4-3.25h9a4.41,4.41,0,0,1,3,.85,3,3,0,0,1,1,2.4,3.08,3.08,0,0,1-1,2.42,4.35,4.35,0,0,1-3,.87h-9Q5.39,104.13,5.38,100.84Z"/><path d="M50.94,81.35a3.65,3.65,0,0,1,.93,2.56A5.92,5.92,0,0,1,51,87L36.55,111.69a4.46,4.46,0,0,1-1.64,1.67,4.14,4.14,0,0,1-2,.54,4.43,4.43,0,0,1-3-1.1,3.46,3.46,0,0,1-1.28-2.71,4.33,4.33,0,0,1,.67-2.25L41.54,87.2H29.65a4.83,4.83,0,0,1-3.17-.84,3.17,3.17,0,0,1-1-2.54,3.26,3.26,0,0,1,1-2.61,4.69,4.69,0,0,1,3.14-.87H48.3A3.42,3.42,0,0,1,50.94,81.35Z"/><path d="M113.85,41.82a3.75,3.75,0,0,1-1.26,2.8,4,4,0,0,1-2.83,1.2,3.78,3.78,0,0,1-2.91-1.41l-8.18-9.68-8.32,9.68a3.73,3.73,0,0,1-2.86,1.41,4,4,0,0,1-2.83-1.22,3.76,3.76,0,0,1-.26-5.36L93.53,28.8,84.64,18.6a3.85,3.85,0,0,1-1-2.53,3.75,3.75,0,0,1,1.26-2.8,4.06,4.06,0,0,1,2.88-1.2,3.74,3.74,0,0,1,2.9,1.41l8,9.4,8-9.4a3.5,3.5,0,0,1,2.81-1.41,4.06,4.06,0,0,1,2.88,1.2,3.75,3.75,0,0,1,1.26,2.8,3.8,3.8,0,0,1-1,2.53l-8.89,10.2,9.08,10.44A3.78,3.78,0,0,1,113.85,41.82Z"/><circle cx="98.62" cy="95.96" r="15.68"/><circle cx="29.82" cy="29.8" r="15.68"/></svg>