<svg id="Layer_1" data-name="Layer 1" xmlns="http://www.w3.org/2000/svg" viewBox="0 0 130 130"><title>l13_1_1</title><path d="M124.26,59.16H70.74V5.64a5.74,5.74,0,1,0-11.48,0V59.16H5.74a5.74,5.74,0,0,0,0,11.48H59.26v53.52a5.74,5.74,0,1,0,11.48,0V70.64h53.52a5.74,5.74,0,0,0,0-11.48Z"/><path d="M5.72,100.73q0-3.24,4-3.24h8.94a4.42,4.42,0,0,1,3,.85,3,3,0,0,1,1,2.39,3.06,3.06,0,0,1-1,2.42,4.36,4.36,0,0,1-3,.87H9.67C7,104,5.72,102.93,5.72,100.73Z"/><path d="M47,93a9.77,9.77,0,0,1,3.59,3.86,12.42,12.42,0,0,1-.19,11.47,10.55,10.55,0,0,1-4.16,4.06,12.42,12.42,0,0,1-6,1.46q-6.7,0-10.37-4.33T26.18,97.16A22.52,22.52,0,0,1,27.92,88a13.7,13.7,0,0,1,4.9-6,13,13,0,0,1,7.39-2.11,18.77,18.77,0,0,1,5.45.84A15.35,15.35,0,0,1,50.44,83a4.14,4.14,0,0,1,1.17,1.27A3.41,3.41,0,0,1,52,85.93a3.75,3.75,0,0,1-.84,2.47,2.54,2.54,0,0,1-2,1,3,3,0,0,1-1.19-.22,14.89,14.89,0,0,1-1.42-.68l-1-.51a26.78,26.78,0,0,0-2.62-1.13,6.47,6.47,0,0,0-2.19-.38,4.57,4.57,0,0,0-3.92,2.19,12.34,12.34,0,0,0-1.79,6.13,7.57,7.57,0,0,1,2.93-2.37,9.24,9.24,0,0,1,4-.87A9.75,9.75,0,0,1,47,93Zm-4.38,13a4.68,4.68,0,0,0,1.1-3.24,4.75,4.75,0,0,0-1.07-3.27,4.26,4.26,0,0,0-6,0,5.2,5.2,0,0,0,0,6.47,3.82,3.82,0,0,0,2.95,1.24A3.77,3.77,0,0,0,42.64,106Z"/><path d="M107,25a9.79,9.79,0,0,1,3.6,3.86,11.71,11.71,0,0,1,1.3,5.57,11.73,11.73,0,0,1-1.49,5.9,10.51,10.51,0,0,1-4.17,4.06,12.38,12.38,0,0,1-6,1.46q-6.7,0-10.37-4.33T86.12,29.17A22.53,22.53,0,0,1,87.85,20a13.77,13.77,0,0,1,4.9-6,13,13,0,0,1,7.4-2.11,18.82,18.82,0,0,1,5.45.84A15.46,15.46,0,0,1,110.38,15a4.09,4.09,0,0,1,1.16,1.27,3.41,3.41,0,0,1,.36,1.65,3.8,3.8,0,0,1-.83,2.47,2.55,2.55,0,0,1-2,1,3,3,0,0,1-1.19-.22,14.84,14.84,0,0,1-1.43-.68L105.38,20c-1-.5-1.92-.88-2.61-1.13a6.47,6.47,0,0,0-2.19-.38,4.57,4.57,0,0,0-3.93,2.19,12.38,12.38,0,0,0-1.78,6.13,7.54,7.54,0,0,1,2.92-2.37,9.32,9.32,0,0,1,4-.87A9.71,9.71,0,0,1,107,25Zm-4.37,13a4.65,4.65,0,0,0,1.09-3.24,4.75,4.75,0,0,0-1.07-3.27,3.78,3.78,0,0,0-3-1.2,3.87,3.87,0,0,0-3,1.22,4.66,4.66,0,0,0-1.11,3.25,4.59,4.59,0,0,0,1.14,3.22,3.81,3.81,0,0,0,2.95,1.24A3.75,3.75,0,0,0,102.58,38Z"/><circle cx="98.96" cy="95.86" r="15.68"/><circle cx="30.16" cy="29.7" r="15.68"/></svg>