<svg id="Layer_1" data-name="Layer 1" xmlns="http://www.w3.org/2000/svg" viewBox="0 0 130 130"><title>l13_3_1</title><path d="M119.31,108.43H34.68a14.66,14.66,0,0,1-10.51-5A13.87,13.87,0,0,1,21,96.07V10.3A10.55,10.55,0,0,0,0,10.3v98.13a20.84,20.84,0,0,0,6.16,15.41A20.77,20.77,0,0,0,21,129.48h98.27a10.53,10.53,0,1,0,0-21Z"/><path d="M102.91,87.56H45A16.38,16.38,0,0,1,28.63,71.18V35.42A16.38,16.38,0,0,1,45,19h57.9A16.39,16.39,0,0,1,119.3,35.42V71.18A16.38,16.38,0,0,1,102.91,87.56Zm-26-41.91a15.38,15.38,0,0,0-6,1.08V39.35H84q5.29,0,5.29-4.2T84,31H65.21a5.2,5.2,0,0,0-3.82,1.32,5.17,5.17,0,0,0-1.34,3.84V52.43A3.27,3.27,0,0,0,61.21,55a4.23,4.23,0,0,0,2.85,1,5.85,5.85,0,0,0,2.73-.66,21.64,21.64,0,0,1,3.5-1.08A16.74,16.74,0,0,1,73.6,54a6.9,6.9,0,0,1,4.73,1.5,5.29,5.29,0,0,1,1.7,4.2,5.17,5.17,0,0,1-1.63,4.23,7.87,7.87,0,0,1-5.05,1.35A10.22,10.22,0,0,1,70,64.73a34.77,34.77,0,0,1-3.43-1.44l-1.21-.6a18,18,0,0,0-1.83-.9A4.12,4.12,0,0,0,62,61.55a3.16,3.16,0,0,0-2.56,1.29,4.93,4.93,0,0,0-1,3.15,4.33,4.33,0,0,0,.46,2.07,5.27,5.27,0,0,0,1.43,1.65,20.1,20.1,0,0,0,6.22,3,25.65,25.65,0,0,0,7.38,1.08A20,20,0,0,0,82.59,72a13.64,13.64,0,0,0,5.83-5.1,14.12,14.12,0,0,0,2.06-7.62,14.34,14.34,0,0,0-1.73-7.11,12.18,12.18,0,0,0-4.8-4.8A14.13,14.13,0,0,0,76.94,45.65Z"/></svg>