<svg id="Layer_1" data-name="Layer 1" xmlns="http://www.w3.org/2000/svg" viewBox="0 0 130 130"><title>l13_3_1</title><path d="M130,65A65,65,0,1,1,65,0,65,65,0,0,1,130,65ZM78.19,80.54H64L74,70.39a32.89,32.89,0,0,0,5.92-7.88,17.54,17.54,0,0,0,1.73-7.8,12.74,12.74,0,0,0-2.16-7.32,13.84,13.84,0,0,0-6.13-4.9,23.11,23.11,0,0,0-9.21-1.71A28,28,0,0,0,56,42a27.51,27.51,0,0,0-7.48,3.5,4.65,4.65,0,0,0-1.74,1.82,6,6,0,0,0-.46,2.52,6,6,0,0,0,1.21,3.74,3.62,3.62,0,0,0,3,1.58A4.33,4.33,0,0,0,51.83,55a8.14,8.14,0,0,0,1.45-.67c.54-.3.91-.5,1.1-.59L55.8,53a34.3,34.3,0,0,1,4-1.72,11.81,11.81,0,0,1,3.79-.59A5.62,5.62,0,0,1,67.52,52a4.65,4.65,0,0,1,1.39,3.64q0,4.05-4.68,8.89L49.21,80a7.6,7.6,0,0,0-2.41,5.46,5.15,5.15,0,0,0,1.49,3.81,5.38,5.38,0,0,0,4,1.51H78.19a7.18,7.18,0,0,0,4.64-1.26,4.79,4.79,0,0,0,1.52-3.92,4.6,4.6,0,0,0-1.52-3.82A7.37,7.37,0,0,0,78.19,80.54Z"/></svg>