<svg id="Layer_1" data-name="Layer 1" xmlns="http://www.w3.org/2000/svg" viewBox="0 0 130 130"><title>l13_3_1</title><path d="M119.37,108.29H34.74a14.66,14.66,0,0,1-10.51-5,13.86,13.86,0,0,1-3.13-7.42V10.16A10.55,10.55,0,0,0,0,10.16v98.13A20.88,20.88,0,0,0,6.17,123.7a20.78,20.78,0,0,0,14.93,5.64h98.27a10.53,10.53,0,1,0,0-21Z"/><path d="M103,87.42H45.07A16.38,16.38,0,0,1,28.69,71V35.28A16.38,16.38,0,0,1,45.07,18.9H103a16.39,16.39,0,0,1,16.38,16.38V71A16.38,16.38,0,0,1,103,87.42ZM87.08,57.63H85.75V36a5.08,5.08,0,0,0-1.64-4,5.79,5.79,0,0,0-4-1.44,6.18,6.18,0,0,0-2.71.63A5.58,5.58,0,0,0,75.3,33L57.93,57.45a6.68,6.68,0,0,0-1.34,4A4.46,4.46,0,0,0,61.33,66H74.87v2a5.3,5.3,0,0,0,1.49,4.08,5.53,5.53,0,0,0,3.92,1.38,5.66,5.66,0,0,0,4-1.38,5.25,5.25,0,0,0,1.52-4.08V66h1.33c3.52,0,5.29-1.42,5.29-4.26S90.6,57.63,87.08,57.63Zm-19.49,0,7.28-10.38V57.63Z"/></svg>