<svg id="Layer_1" data-name="Layer 1" xmlns="http://www.w3.org/2000/svg" viewBox="0 0 130 130"><title>l13_3_1</title><path d="M119.52,108.79H34.89a14.65,14.65,0,0,1-10.51-4.94,14,14,0,0,1-3.13-7.42V10.67a10.55,10.55,0,0,0-21.09,0v98.12A20.85,20.85,0,0,0,6.33,124.2a20.7,20.7,0,0,0,14.92,5.64h98.27a10.53,10.53,0,1,0,0-21Z"/><path d="M73.83,92c-11,0-21.95,0-32.92,0C29.6,91.9,23.38,81.28,29,71.4Q45.49,42.54,62.21,13.81c5.62-9.66,18-9.88,23.67-.24q17,28.92,33.53,58.14c5.53,9.77-.82,20.19-12,20.23S85,92,73.83,92Zm13.22-27h-5V36.48a5.18,5.18,0,0,0-1.49-3.9,5.39,5.39,0,0,0-3.91-1.44,10.41,10.41,0,0,0-5,1.5l-9.71,5.58a4.06,4.06,0,0,0-2.13,3.72A5,5,0,0,0,61,45.21a3.66,3.66,0,0,0,2.91,1.47,4.2,4.2,0,0,0,2.13-.6l4.86-2.82V64.92H66A6.12,6.12,0,0,0,62,66a4,4,0,0,0-1.28,3.23q0,4.45,5.29,4.45H87.05c3.52,0,5.29-1.48,5.29-4.45A4,4,0,0,0,91.06,66,6.14,6.14,0,0,0,87.05,64.92Z"/></svg>