<svg id="Layer_1" data-name="Layer 1" xmlns="http://www.w3.org/2000/svg" viewBox="0 0 130 130"><title>l13_4_1</title><path d="M107.08,115.08H22.92A22.92,22.92,0,0,1,0,92.16V42.7A22.92,22.92,0,0,1,22.92,19.78h84.16A22.92,22.92,0,0,1,130,42.7V92.16A22.92,22.92,0,0,1,107.08,115.08ZM55,42.6H27.23a7,7,0,0,0-4.67,1.3,4.84,4.84,0,0,0-1.49,3.88,4.73,4.73,0,0,0,1.45,3.78q1.45,1.26,4.71,1.26H45L26.74,83.55a6.49,6.49,0,0,0-1,3.36,5.12,5.12,0,0,0,1.92,4,6.56,6.56,0,0,0,4.39,1.64,6.2,6.2,0,0,0,3-.8,6.66,6.66,0,0,0,2.45-2.49L59,52.54a8.9,8.9,0,0,0,1.34-4.62,5.41,5.41,0,0,0-1.38-3.81A5.08,5.08,0,0,0,55,42.6Zm52.36,40L93.84,67.1l13.25-15.19a5.71,5.71,0,0,0,1.49-3.78A5.59,5.59,0,0,0,106.7,44a6.05,6.05,0,0,0-4.29-1.79,5.2,5.2,0,0,0-4.18,2.1l-11.9,14-12-14A5.59,5.59,0,0,0,70,42.18,6.05,6.05,0,0,0,65.74,44a5.59,5.59,0,0,0-1.88,4.16,5.75,5.75,0,0,0,1.56,3.78L78.67,67.1,65.07,82.64a5.75,5.75,0,0,0-1.49,3.78,5.68,5.68,0,0,0,1.88,4.2,5.89,5.89,0,0,0,4.22,1.82,5.53,5.53,0,0,0,4.25-2.1l12.4-14.42L98.52,90.34a5.57,5.57,0,0,0,4.32,2.1,6,6,0,0,0,4.21-1.78,5.55,5.55,0,0,0,1.88-4.17A5.67,5.67,0,0,0,107.37,82.64Z"/></svg>