<svg id="Layer_1" data-name="Layer 1" xmlns="http://www.w3.org/2000/svg" viewBox="0 0 130 130"><title>l13_3_1</title><path d="M119.41,108.79H34.79a14.62,14.62,0,0,1-10.51-4.94,14,14,0,0,1-3.14-7.42V10.67a10.54,10.54,0,0,0-21.08,0v98.12A20.83,20.83,0,0,0,6.22,124.2a20.7,20.7,0,0,0,14.92,5.64h98.27a10.53,10.53,0,1,0,0-21Z"/><path d="M103,87.93H45.11A16.39,16.39,0,0,1,28.73,71.55V35.79A16.38,16.38,0,0,1,45.11,19.41H103A16.38,16.38,0,0,1,119.4,35.79V71.55A16.38,16.38,0,0,1,103,87.93Zm-21.24-36a9.8,9.8,0,0,0,4.83-3.63,9.92,9.92,0,0,0,1.73-5.79,10.42,10.42,0,0,0-1.85-6.12,11.89,11.89,0,0,0-5.29-4.08,20.31,20.31,0,0,0-7.92-1.44,24.64,24.64,0,0,0-7.2,1.08,20.2,20.2,0,0,0-6.16,3,4.81,4.81,0,0,0-1.46,1.62,4.67,4.67,0,0,0-.43,2.1,4.88,4.88,0,0,0,1,3.15,3.14,3.14,0,0,0,2.55,1.29,4.07,4.07,0,0,0,1.52-.27c.44-.18,1-.47,1.82-.87l1.27-.6a33.73,33.73,0,0,1,3.31-1.44,9.29,9.29,0,0,1,3.19-.54,5.27,5.27,0,0,1,3.71,1.23A4.45,4.45,0,0,1,77.77,44a3.34,3.34,0,0,1-1.52,3.06,9.37,9.37,0,0,1-4.85,1H68.72a3.49,3.49,0,0,0-2.85,1.26,4.88,4.88,0,0,0,0,6,3.49,3.49,0,0,0,2.85,1.26h3.77a9.21,9.21,0,0,1,5,1A3.76,3.76,0,0,1,79,61a4.15,4.15,0,0,1-1.49,3.6Q76,65.64,72.61,65.64a11.09,11.09,0,0,1-3.49-.51,27.13,27.13,0,0,1-3.49-1.47l-.76-.33-.58-.27c-.77-.4-1.38-.69-1.82-.87A4,4,0,0,0,61,61.92a3.15,3.15,0,0,0-2.55,1.29,4.87,4.87,0,0,0-1,3.15,4.16,4.16,0,0,0,1.88,3.72,19.63,19.63,0,0,0,6.32,3,27.55,27.55,0,0,0,7.59,1,23,23,0,0,0,8.59-1.47,12.78,12.78,0,0,0,5.68-4.17,10.36,10.36,0,0,0,2-6.36,10.54,10.54,0,0,0-2-6.54A10.35,10.35,0,0,0,81.78,51.9Z"/></svg>