<svg id="Layer_1" data-name="Layer 1" xmlns="http://www.w3.org/2000/svg" viewBox="0 0 130 130"><title>l13_1_1</title><path d="M119.37,108.79H34.74a14.64,14.64,0,0,1-10.51-4.94,13.92,13.92,0,0,1-3.13-7.42V10.67A10.55,10.55,0,0,0,0,10.67v98.12A20.87,20.87,0,0,0,6.17,124.2a20.73,20.73,0,0,0,14.93,5.64h98.27a10.53,10.53,0,1,0,0-21Z"/><path d="M29.33,58.64a29.66,29.66,0,0,1,5-17.12,5.62,5.62,0,0,1,1.81-1.82,3.82,3.82,0,0,1,2-.64,2.46,2.46,0,0,1,1.76.64,2.3,2.3,0,0,1,.69,1.78A4.15,4.15,0,0,1,40.28,43a38.66,38.66,0,0,0-2.18,7.54,45.79,45.79,0,0,0-.67,8.08,44.24,44.24,0,0,0,.67,8,41.07,41.07,0,0,0,2.18,7.55,4.15,4.15,0,0,1,.31,1.54,2.27,2.27,0,0,1-.69,1.74,2.5,2.5,0,0,1-1.76.64,4,4,0,0,1-2-.62,5.45,5.45,0,0,1-1.81-1.8A29.78,29.78,0,0,1,29.33,58.64Z"/><path d="M63.38,51.18a8.93,8.93,0,0,1,3.51,3.52,10.44,10.44,0,0,1,1.27,5.21,10.29,10.29,0,0,1-1.51,5.59,10,10,0,0,1-4.28,3.74A14.59,14.59,0,0,1,56,70.56a18.74,18.74,0,0,1-5.41-.79A14.76,14.76,0,0,1,46,67.57,3.76,3.76,0,0,1,45,66.36a3.25,3.25,0,0,1-.33-1.52,3.6,3.6,0,0,1,.75-2.31,2.32,2.32,0,0,1,1.87-.94,3.26,3.26,0,0,1,1.12.17,14.18,14.18,0,0,1,1.33.66l.89.44c.93.44,1.76.79,2.52,1.06a7.57,7.57,0,0,0,2.47.39,5.74,5.74,0,0,0,3.7-1,3.79,3.79,0,0,0,1.2-3.1,3.9,3.9,0,0,0-1.24-3.08A5.11,5.11,0,0,0,55.78,56a12.9,12.9,0,0,0-2.43.22,16.61,16.61,0,0,0-2.56.79,4.2,4.2,0,0,1-2,.49,3.06,3.06,0,0,1-2.09-.73,2.37,2.37,0,0,1-.85-1.91V43a3.41,3.41,0,0,1,3.79-3.78h13.8q3.89,0,3.88,3t-3.88,3.08H53.82v5.41a11.24,11.24,0,0,1,4.41-.79A10.36,10.36,0,0,1,63.38,51.18Z"/><path d="M78.52,63.35a5.89,5.89,0,0,1,1.22,4,12.34,12.34,0,0,1-3.69,8.89,2.17,2.17,0,0,1-1.56.66,2.24,2.24,0,0,1-1.56-.6,1.68,1.68,0,0,1-.09-2.61A8.9,8.9,0,0,0,75,70.17,4.24,4.24,0,0,1,72.22,69a3.72,3.72,0,0,1-1.07-2.75,4.18,4.18,0,0,1,1.2-3,4.27,4.27,0,0,1,6.17.18Z"/><path d="M102.37,51.09a9.08,9.08,0,0,1,3.36,3.61,11.6,11.6,0,0,1-.18,10.74,9.87,9.87,0,0,1-3.89,3.8A11.62,11.62,0,0,1,96,70.61q-6.28,0-9.71-4T82.86,55a21,21,0,0,1,1.63-8.6,12.85,12.85,0,0,1,4.58-5.66,12.2,12.2,0,0,1,6.93-2,17.46,17.46,0,0,1,5.1.8,14.09,14.09,0,0,1,4.48,2.2A4,4,0,0,1,106.67,43a3.25,3.25,0,0,1,.33,1.54,3.51,3.51,0,0,1-.78,2.31,2.35,2.35,0,0,1-1.89,1,2.93,2.93,0,0,1-1.11-.2,13.28,13.28,0,0,1-1.34-.64l-1-.48c-1-.47-1.8-.82-2.45-1.06a6.13,6.13,0,0,0-2-.35,4.26,4.26,0,0,0-3.67,2.05,11.46,11.46,0,0,0-1.67,5.74,6.94,6.94,0,0,1,2.74-2.22,8.67,8.67,0,0,1,3.76-.82A9.15,9.15,0,0,1,102.37,51.09Zm-4.1,12.17a5.07,5.07,0,0,0,0-6.1,4,4,0,0,0-5.56,0,4.85,4.85,0,0,0,0,6.05,3.59,3.59,0,0,0,2.76,1.16A3.52,3.52,0,0,0,98.27,63.26Z"/><path d="M114.82,77.47a4.09,4.09,0,0,1-2.07.62,2.46,2.46,0,0,1-1.72-.64,2.27,2.27,0,0,1-.69-1.74,4.36,4.36,0,0,1,.31-1.54,41.13,41.13,0,0,0,2.19-7.55,45.2,45.2,0,0,0,.66-8,46.79,46.79,0,0,0-.66-8.08A38.7,38.7,0,0,0,110.65,43a4.36,4.36,0,0,1-.31-1.54,2.27,2.27,0,0,1,.69-1.74,2.52,2.52,0,0,1,1.76-.64,4,4,0,0,1,2,.62,5.34,5.34,0,0,1,1.8,1.8,29.59,29.59,0,0,1,5,17.12,29.71,29.71,0,0,1-5,17A5.34,5.34,0,0,1,114.82,77.47Z"/></svg>