<svg id="Layer_1" data-name="Layer 1" xmlns="http://www.w3.org/2000/svg" viewBox="0 0 130 130"><title>l13_1_1</title><path d="M124.26,59.26H70.74V5.74a5.74,5.74,0,1,0-11.48,0V59.26H5.74a5.74,5.74,0,0,0,0,11.48H59.26v53.52a5.74,5.74,0,1,0,11.48,0V70.74h53.52a5.74,5.74,0,0,0,0-11.48Z"/><path d="M39.74,80.06a4,4,0,0,1,2.83,1.2A3.69,3.69,0,0,1,43.83,84a3.89,3.89,0,0,1-1,2.58L32.79,98v11.47a4.09,4.09,0,0,1-1.21,3.18,4.49,4.49,0,0,1-3.12,1.1,4.65,4.65,0,0,1-3.19-1.1A4.06,4.06,0,0,1,24,109.48V98l-9.9-11.42A3.86,3.86,0,0,1,13.05,84a3.65,3.65,0,0,1,1.23-2.72,4,4,0,0,1,2.81-1.18A3.74,3.74,0,0,1,20,81.47l8.43,9.87,8.42-9.87A3.74,3.74,0,0,1,39.74,80.06Z"/><path d="M110.9,39.45a3.09,3.09,0,0,1,1,2.56,3.22,3.22,0,0,1-1,2.63,4.77,4.77,0,0,1-3.11.85H90.42a3.64,3.64,0,0,1-2.71-1,3.49,3.49,0,0,1-1-2.56,5.12,5.12,0,0,1,1.62-3.67L98.41,27.86c2.1-2.16,3.14-4.15,3.14-6a3.16,3.16,0,0,0-.92-2.44A3.82,3.82,0,0,0,98,18.6a8,8,0,0,0-2.54.4,22.7,22.7,0,0,0-2.69,1.16l-1,.47-.74.39a5,5,0,0,1-1,.45,2.75,2.75,0,0,1-.91.14,2.43,2.43,0,0,1-2-1.06,4,4,0,0,1-.8-2.51,3.93,3.93,0,0,1,.31-1.69,3,3,0,0,1,1.16-1.22,18.24,18.24,0,0,1,5-2.35,18.68,18.68,0,0,1,5.5-.85,15.45,15.45,0,0,1,6.18,1.15,9.32,9.32,0,0,1,4.12,3.29,8.6,8.6,0,0,1,1.45,4.91A11.65,11.65,0,0,1,109,26.52a21.92,21.92,0,0,1-4,5.29l-6.76,6.82h9.57A4.9,4.9,0,0,1,110.9,39.45Z"/><circle cx="98.96" cy="95.96" r="15.68"/><circle cx="30.16" cy="29.8" r="15.68"/></svg>