<svg id="Layer_1" data-name="Layer 1" xmlns="http://www.w3.org/2000/svg" viewBox="0 0 130 130"><title>l13_3_1</title><path d="M107,130H22.85A22.92,22.92,0,0,1-.07,107.08V22.92A22.92,22.92,0,0,1,22.85,0H107a22.92,22.92,0,0,1,22.92,22.92v84.16A22.92,22.92,0,0,1,107,130ZM80.17,70.8H78.61V45.53a5.9,5.9,0,0,0-1.92-4.69,6.73,6.73,0,0,0-4.6-1.68,7.13,7.13,0,0,0-3.15.73A6.52,6.52,0,0,0,66.42,42L46.15,70.59a7.79,7.79,0,0,0-1.56,4.62,5.2,5.2,0,0,0,5.53,5.39h15.8V83a6.17,6.17,0,0,0,1.74,4.76,6.47,6.47,0,0,0,4.57,1.61,6.62,6.62,0,0,0,4.61-1.61A6.11,6.11,0,0,0,78.61,83V80.6h1.56q6.17,0,6.16-5T80.17,70.8Zm-22.75,0,8.5-12.11V70.8Z"/></svg>