<svg id="Layer_1" data-name="Layer 1" xmlns="http://www.w3.org/2000/svg" viewBox="0 0 130 130"><title>l13_3_1</title><path d="M107.12,112.65H23A22.93,22.93,0,0,1,0,89.73V40.27A22.93,22.93,0,0,1,23,17.35h84.15A22.92,22.92,0,0,1,130,40.27V89.73A22.92,22.92,0,0,1,107.12,112.65ZM78.19,79.3H64L74,69.15a32.86,32.86,0,0,0,5.92-7.87,17.58,17.58,0,0,0,1.73-7.81,12.71,12.71,0,0,0-2.16-7.31,13.7,13.7,0,0,0-6.13-4.9,22.93,22.93,0,0,0-9.21-1.72A29.13,29.13,0,0,0,48.5,44.3a4.72,4.72,0,0,0-1.74,1.82,6.1,6.1,0,0,0-.46,2.52,6,6,0,0,0,1.21,3.75,3.61,3.61,0,0,0,3,1.57,4.33,4.33,0,0,0,1.35-.21,8.78,8.78,0,0,0,1.45-.66c.54-.31.91-.5,1.1-.6l1.42-.7a34.06,34.06,0,0,1,4-1.71,11.54,11.54,0,0,1,3.79-.6,5.62,5.62,0,0,1,3.93,1.26,4.66,4.66,0,0,1,1.39,3.64q0,4.07-4.68,8.89l-15,15.47A7.63,7.63,0,0,0,46.8,84.2,5.19,5.19,0,0,0,48.29,88a5.42,5.42,0,0,0,4,1.5H78.19a7.18,7.18,0,0,0,4.64-1.26,4.77,4.77,0,0,0,1.52-3.92,4.58,4.58,0,0,0-1.52-3.81A7.31,7.31,0,0,0,78.19,79.3Z"/></svg>