<svg id="Layer_1" data-name="Layer 1" xmlns="http://www.w3.org/2000/svg" viewBox="0 0 130 130"><title>l13_1_1</title><path d="M119.41,108.79H34.79a14.62,14.62,0,0,1-10.51-4.94,14,14,0,0,1-3.14-7.42V10.67a10.54,10.54,0,0,0-21.08,0v98.12A20.83,20.83,0,0,0,6.22,124.2a20.7,20.7,0,0,0,14.92,5.64h98.27a10.53,10.53,0,1,0,0-21Z"/><path d="M29.37,58.64a29.59,29.59,0,0,1,5-17.12,5.5,5.5,0,0,1,1.8-1.82,3.88,3.88,0,0,1,2-.64A2.48,2.48,0,0,1,40,39.7a2.3,2.3,0,0,1,.69,1.78A4.36,4.36,0,0,1,40.33,43a38.7,38.7,0,0,0-2.19,7.54,46.79,46.79,0,0,0-.66,8.08,45.12,45.12,0,0,0,.66,8,41.13,41.13,0,0,0,2.19,7.55,4.36,4.36,0,0,1,.31,1.54A2.27,2.27,0,0,1,40,77.45a2.52,2.52,0,0,1-1.76.64,4,4,0,0,1-2-.62,5.34,5.34,0,0,1-1.8-1.8A29.71,29.71,0,0,1,29.37,58.64Z"/><path d="M67.56,40.14a3.4,3.4,0,0,1,.87,2.39,5.61,5.61,0,0,1-.84,2.91l-13.5,23.1a4.19,4.19,0,0,1-1.54,1.56,3.83,3.83,0,0,1-1.89.51,4.11,4.11,0,0,1-2.76-1A3.21,3.21,0,0,1,46.7,67a4.07,4.07,0,0,1,.62-2.11L58.77,45.61H47.63a4.46,4.46,0,0,1-3-.79,3,3,0,0,1-.91-2.37A3.09,3.09,0,0,1,44.69,40a4.43,4.43,0,0,1,2.94-.81H65.09A3.19,3.19,0,0,1,67.56,40.14Z"/><path d="M78.56,63.35a5.89,5.89,0,0,1,1.23,4,12.29,12.29,0,0,1-3.7,8.89,2.13,2.13,0,0,1-1.56.66A2.28,2.28,0,0,1,73,76.3a1.69,1.69,0,0,1-.09-2.61A8.78,8.78,0,0,0,75,70.17,4.2,4.2,0,0,1,72.26,69a3.76,3.76,0,0,1-1.07-2.75,4.18,4.18,0,0,1,1.2-3,4.27,4.27,0,0,1,6.17.18Z"/><path d="M105.87,56.94a7.67,7.67,0,0,1,1.44,4.73A7.57,7.57,0,0,1,104,68.21q-3.33,2.36-9.07,2.35t-9.06-2.35A8.29,8.29,0,0,1,84,56.86a7.42,7.42,0,0,1,4.19-2.62,7.31,7.31,0,0,1-3.57-2.71,7.39,7.39,0,0,1-1.24-4.29,7.25,7.25,0,0,1,3.11-6.18,14.06,14.06,0,0,1,8.42-2.27q5.35,0,8.44,2.27a7.24,7.24,0,0,1,3.1,6.18,7.55,7.55,0,0,1-1.27,4.4,6.73,6.73,0,0,1-3.5,2.6A7.82,7.82,0,0,1,105.87,56.94ZM99.79,61c0-2.28-1.62-3.43-4.86-3.43S90.08,58.73,90.08,61s1.62,3.44,4.85,3.44S99.79,63.3,99.79,61ZM92,45.68a3,3,0,0,0-1,2.49,3,3,0,0,0,1,2.5,6,6,0,0,0,6,0,3,3,0,0,0,1-2.5,3,3,0,0,0-1-2.49,6.17,6.17,0,0,0-6,0Z"/><path d="M114.86,77.47a4,4,0,0,1-2.07.62,2.45,2.45,0,0,1-1.71-.64,2.27,2.27,0,0,1-.69-1.74,4.15,4.15,0,0,1,.31-1.54,40.31,40.31,0,0,0,2.18-7.55,44.16,44.16,0,0,0,.67-8,45.79,45.79,0,0,0-.67-8.08A38,38,0,0,0,110.7,43a4.15,4.15,0,0,1-.31-1.54,2.27,2.27,0,0,1,.69-1.74,2.5,2.5,0,0,1,1.76-.64,4,4,0,0,1,2,.62,5.45,5.45,0,0,1,1.81,1.8,29.67,29.67,0,0,1,5,17.12,29.78,29.78,0,0,1-5,17A5.45,5.45,0,0,1,114.86,77.47Z"/></svg>