<svg id="Layer_1" data-name="Layer 1" xmlns="http://www.w3.org/2000/svg" viewBox="0 0 130 130"><title>l13_4_1</title><path d="M107.08,115.08H22.92A22.92,22.92,0,0,1,0,92.16V42.7A22.92,22.92,0,0,1,22.92,19.78h84.16A22.92,22.92,0,0,1,130,42.7V92.16A22.92,22.92,0,0,1,107.08,115.08ZM44.17,59.68a17.93,17.93,0,0,0-7,1.26V52.33H52.46q6.16,0,6.16-4.9T52.46,42.6h-22A6.1,6.1,0,0,0,26,44.14a6,6,0,0,0-1.56,4.48v19a3.84,3.84,0,0,0,1.34,3,5,5,0,0,0,3.34,1.15A6.73,6.73,0,0,0,32.33,71a26.75,26.75,0,0,1,4.08-1.26,19.76,19.76,0,0,1,3.86-.35,8.13,8.13,0,0,1,5.53,1.75,6.2,6.2,0,0,1,2,4.9A6.05,6.05,0,0,1,45.87,81Q44,82.57,40,82.57a11.92,11.92,0,0,1-3.94-.63,39.73,39.73,0,0,1-4-1.68l-1.42-.7a23.13,23.13,0,0,0-2.12-1,5.05,5.05,0,0,0-1.77-.28,3.65,3.65,0,0,0-3,1.51,5.7,5.7,0,0,0-1.2,3.67,5.09,5.09,0,0,0,.53,2.42,6.21,6.21,0,0,0,1.66,1.92A23.34,23.34,0,0,0,32,91.25a29.9,29.9,0,0,0,8.61,1.26,23.26,23.26,0,0,0,10.14-2.1,15.88,15.88,0,0,0,6.8-6A16.44,16.44,0,0,0,60,75.57a16.63,16.63,0,0,0-2-8.29,14.23,14.23,0,0,0-5.6-5.6A16.49,16.49,0,0,0,44.17,59.68Zm63.2,23L93.84,67.1l13.25-15.19a5.71,5.71,0,0,0,1.49-3.78A5.59,5.59,0,0,0,106.7,44a6.05,6.05,0,0,0-4.29-1.79,5.2,5.2,0,0,0-4.18,2.1l-11.9,14-12-14A5.59,5.59,0,0,0,70,42.18,6.05,6.05,0,0,0,65.74,44a5.59,5.59,0,0,0-1.88,4.16,5.75,5.75,0,0,0,1.56,3.78L78.67,67.1,65.07,82.64a5.75,5.75,0,0,0-1.49,3.78,5.68,5.68,0,0,0,1.88,4.2,5.89,5.89,0,0,0,4.22,1.82,5.53,5.53,0,0,0,4.25-2.1l12.4-14.42L98.52,90.34a5.57,5.57,0,0,0,4.32,2.1,6,6,0,0,0,4.21-1.78,5.55,5.55,0,0,0,1.88-4.17A5.67,5.67,0,0,0,107.37,82.64Z"/></svg>