<svg id="Layer_1" data-name="Layer 1" xmlns="http://www.w3.org/2000/svg" viewBox="0 0 130 130"><title>l13_1_1</title><path d="M124.26,59.16H70.74V5.64a5.74,5.74,0,1,0-11.48,0V59.16H5.74a5.74,5.74,0,0,0,0,11.48H59.26v53.52a5.74,5.74,0,1,0,11.48,0V70.64h53.52a5.74,5.74,0,0,0,0-11.48Z"/><path d="M5.72,100.73q0-3.24,4-3.24h8.94a4.42,4.42,0,0,1,3,.85,3,3,0,0,1,1,2.39,3.06,3.06,0,0,1-1,2.42,4.36,4.36,0,0,1-3,.87H9.67C7,104,5.72,102.93,5.72,100.73Z"/><path d="M51.28,81.25a3.69,3.69,0,0,1,.92,2.56,5.94,5.94,0,0,1-.9,3.1L36.88,111.59a4.39,4.39,0,0,1-1.64,1.67,4.11,4.11,0,0,1-2,.54,4.39,4.39,0,0,1-2.95-1.11A3.4,3.4,0,0,1,29,110a4.41,4.41,0,0,1,.66-2.25L41.88,87.1H30a4.83,4.83,0,0,1-3.17-.84,3.19,3.19,0,0,1-1-2.54,3.26,3.26,0,0,1,1-2.61A4.69,4.69,0,0,1,30,80.24H48.64A3.42,3.42,0,0,1,51.28,81.25Z"/><path d="M111.21,13.26a3.65,3.65,0,0,1,.93,2.56,6,6,0,0,1-.9,3.11L96.82,43.6a4.39,4.39,0,0,1-1.64,1.67,4.14,4.14,0,0,1-2,.54,4.37,4.37,0,0,1-3-1.11A3.41,3.41,0,0,1,88.92,42a4.33,4.33,0,0,1,.67-2.25l12.23-20.64H89.92a4.8,4.8,0,0,1-3.16-.84,3.19,3.19,0,0,1-1-2.54,3.3,3.3,0,0,1,1-2.61,4.71,4.71,0,0,1,3.14-.87h18.65A3.42,3.42,0,0,1,111.21,13.26Z"/><circle cx="98.96" cy="95.86" r="15.68"/><circle cx="30.16" cy="29.7" r="15.68"/></svg>