<svg id="Layer_1" data-name="Layer 1" xmlns="http://www.w3.org/2000/svg" viewBox="0 0 130 130"><title>l13_3_1</title><path d="M119.8,108.93H35.17A14.64,14.64,0,0,1,24.66,104a13.92,13.92,0,0,1-3.13-7.42V10.81a10.55,10.55,0,0,0-21.09,0v98.12A20.86,20.86,0,0,0,6.6,124.35,20.82,20.82,0,0,0,21.53,130H119.8a10.53,10.53,0,1,0,0-21.06Z"/><path d="M122.15,54a47.7,47.7,0,1,1-47.7-47.7A47.7,47.7,0,0,1,122.15,54ZM78.1,46A11.75,11.75,0,0,0,73,47.09a9.61,9.61,0,0,0-3.74,3,15.73,15.73,0,0,1,2.28-7.83,5.82,5.82,0,0,1,5-2.79,8.18,8.18,0,0,1,2.79.48c.89.32,2,.8,3.34,1.44l1.34.66c.77.4,1.37.69,1.82.87a4,4,0,0,0,1.52.27,3.24,3.24,0,0,0,2.58-1.29A4.78,4.78,0,0,0,91,38.78a4.41,4.41,0,0,0-.45-2.1A5.29,5.29,0,0,0,89,35.06a19.53,19.53,0,0,0-6.1-3A23.87,23.87,0,0,0,76,31a16.58,16.58,0,0,0-9.44,2.7,17.49,17.49,0,0,0-6.26,7.71,28.75,28.75,0,0,0-2.22,11.73q0,10.2,4.68,15.72T76,74.36a15.83,15.83,0,0,0,7.72-1.86A13.52,13.52,0,0,0,89,67.31a15.88,15.88,0,0,0,.24-14.64A12.28,12.28,0,0,0,78.1,46ZM75.3,65.9a4.86,4.86,0,0,1-3.76-1.59,6.61,6.61,0,0,1,0-8.25,5.43,5.43,0,0,1,7.59,0,6,6,0,0,1,1.37,4.17,6,6,0,0,1-1.4,4.14A4.81,4.81,0,0,1,75.3,65.9Z"/></svg>