<svg id="Layer_1" data-name="Layer 1" xmlns="http://www.w3.org/2000/svg" viewBox="0 0 130 130"><title>l13_3_1</title><path d="M119.26,108.43H34.63a14.68,14.68,0,0,1-10.51-5A14,14,0,0,1,21,96.07V10.3a10.54,10.54,0,0,0-21.08,0v98.13a20.84,20.84,0,0,0,6.16,15.41A20.75,20.75,0,0,0,21,129.48h98.27a10.53,10.53,0,1,0,0-21Z"/><path d="M102.87,87.56H45A16.38,16.38,0,0,1,28.58,71.18V35.42A16.39,16.39,0,0,1,45,19h57.91a16.38,16.38,0,0,1,16.38,16.38V71.18A16.38,16.38,0,0,1,102.87,87.56ZM77.56,45.33a11.82,11.82,0,0,0-5.13,1.11,9.61,9.61,0,0,0-3.74,3A15.94,15.94,0,0,1,71,41.64a5.84,5.84,0,0,1,5-2.79,8.28,8.28,0,0,1,2.8.48c.88.32,2,.8,3.34,1.44l1.33.66c.77.4,1.38.69,1.82.87a4,4,0,0,0,1.52.27,3.24,3.24,0,0,0,2.58-1.29,4.79,4.79,0,0,0,1.07-3.15A4.41,4.41,0,0,0,90,36a5.17,5.17,0,0,0-1.49-1.62,19.42,19.42,0,0,0-6.1-3,23.87,23.87,0,0,0-7-1.08A16.58,16.58,0,0,0,66,33a17.55,17.55,0,0,0-6.26,7.71,28.92,28.92,0,0,0-2.21,11.73q0,10.2,4.67,15.72t13.24,5.52a15.83,15.83,0,0,0,7.72-1.86,13.39,13.39,0,0,0,5.31-5.19,14.8,14.8,0,0,0,1.92-7.53A15,15,0,0,0,88.71,52a12.53,12.53,0,0,0-4.59-4.92A12.38,12.38,0,0,0,77.56,45.33ZM74.77,65.25A4.88,4.88,0,0,1,71,63.66a6.61,6.61,0,0,1,0-8.25,4.9,4.9,0,0,1,3.8-1.56,4.81,4.81,0,0,1,3.79,1.53,6,6,0,0,1,1.37,4.17,6,6,0,0,1-1.4,4.14A4.79,4.79,0,0,1,74.77,65.25Z"/></svg>