<svg id="Layer_1" data-name="Layer 1" xmlns="http://www.w3.org/2000/svg" viewBox="0 0 130 130"><title>l13_3_1</title><path d="M107.08,112.65H22.92A22.92,22.92,0,0,1,0,89.73V40.27A22.92,22.92,0,0,1,22.92,17.35h84.16A22.92,22.92,0,0,1,130,40.27V89.73A22.92,22.92,0,0,1,107.08,112.65ZM69.25,57a13.72,13.72,0,0,0-6,1.3,11.12,11.12,0,0,0-4.35,3.53q.42-5.88,2.65-9.13a6.81,6.81,0,0,1,5.85-3.26,9.67,9.67,0,0,1,3.26.56q1.56.57,3.9,1.68l1.55.77q1.35.7,2.13,1a4.69,4.69,0,0,0,1.77.31,3.77,3.77,0,0,0,3-1.5,5.59,5.59,0,0,0,1.24-3.68,5,5,0,0,0-.53-2.45A6.13,6.13,0,0,0,82,44.3a22.82,22.82,0,0,0-7.13-3.5,27.75,27.75,0,0,0-8.11-1.26,19.37,19.37,0,0,0-11,3.15,20.48,20.48,0,0,0-7.3,9,33.63,33.63,0,0,0-2.58,13.68q0,11.91,5.45,18.34t15.45,6.44a18.44,18.44,0,0,0,9-2.17,15.62,15.62,0,0,0,6.2-6,18.51,18.51,0,0,0,.28-17.08,14.36,14.36,0,0,0-13-7.81ZM66,80.28a5.7,5.7,0,0,1-4.39-1.85,6.81,6.81,0,0,1-1.7-4.8,6.9,6.9,0,0,1,1.66-4.83A5.73,5.73,0,0,1,66,67a5.63,5.63,0,0,1,4.43,1.79,8.07,8.07,0,0,1,0,9.69A5.6,5.6,0,0,1,66,80.28Z"/></svg>