<svg id="Layer_1" data-name="Layer 1" xmlns="http://www.w3.org/2000/svg" viewBox="0 0 130 130"><title>l13_1_1</title><path d="M119.41,108.79H34.79a14.62,14.62,0,0,1-10.51-4.94,14,14,0,0,1-3.14-7.42V10.67a10.54,10.54,0,0,0-21.08,0v98.12A20.83,20.83,0,0,0,6.22,124.2a20.7,20.7,0,0,0,14.92,5.64h98.27a10.53,10.53,0,1,0,0-21Z"/><path d="M29,58.64a29.59,29.59,0,0,1,5-17.12,5.5,5.5,0,0,1,1.8-1.82,3.86,3.86,0,0,1,2-.64,2.49,2.49,0,0,1,1.76.64,2.3,2.3,0,0,1,.69,1.78A4.17,4.17,0,0,1,39.9,43a38.66,38.66,0,0,0-2.18,7.54,46.76,46.76,0,0,0-.67,8.08,45.17,45.17,0,0,0,.67,8,41.07,41.07,0,0,0,2.18,7.55,4.17,4.17,0,0,1,.32,1.54,2.27,2.27,0,0,1-.69,1.74,2.54,2.54,0,0,1-1.76.64,4,4,0,0,1-2-.62,5.34,5.34,0,0,1-1.8-1.8A29.71,29.71,0,0,1,29,58.64Z"/><path d="M67.14,40.14A3.4,3.4,0,0,1,68,42.53a5.53,5.53,0,0,1-.85,2.91L53.67,68.54a4.19,4.19,0,0,1-1.54,1.56,3.83,3.83,0,0,1-1.89.51,4.11,4.11,0,0,1-2.76-1A3.19,3.19,0,0,1,46.27,67a4.09,4.09,0,0,1,.63-2.11L58.34,45.61H47.21a4.44,4.44,0,0,1-3-.79,3,3,0,0,1-.92-2.37A3.07,3.07,0,0,1,44.27,40a4.41,4.41,0,0,1,2.94-.81H64.67A3.19,3.19,0,0,1,67.14,40.14Z"/><path d="M78.14,63.35a5.89,5.89,0,0,1,1.23,4,12.35,12.35,0,0,1-3.7,8.89,2.17,2.17,0,0,1-1.56.66,2.28,2.28,0,0,1-1.56-.6,1.68,1.68,0,0,1-.09-2.61,8.9,8.9,0,0,0,2.14-3.52A4.24,4.24,0,0,1,71.84,69a3.76,3.76,0,0,1-1.07-2.75,4.18,4.18,0,0,1,1.2-3,4.27,4.27,0,0,1,6.17.18Z"/><path d="M103,38.93a3.73,3.73,0,0,1,2.65,1.12,3.44,3.44,0,0,1,1.18,2.57,3.68,3.68,0,0,1-1,2.42L96.47,55.73V66.47a3.81,3.81,0,0,1-1.14,3,4.14,4.14,0,0,1-2.91,1,4.31,4.31,0,0,1-3-1,3.78,3.78,0,0,1-1.16-3V55.73L79,45a3.64,3.64,0,0,1-1-2.46A3.42,3.42,0,0,1,79.14,40a3.69,3.69,0,0,1,2.63-1.1,3.52,3.52,0,0,1,2.72,1.32l7.88,9.24,7.89-9.24A3.5,3.5,0,0,1,103,38.93Z"/><path d="M115.29,77.47a4.09,4.09,0,0,1-2.07.62,2.46,2.46,0,0,1-1.72-.64,2.27,2.27,0,0,1-.69-1.74,4.15,4.15,0,0,1,.31-1.54,40.31,40.31,0,0,0,2.18-7.55,44.24,44.24,0,0,0,.67-8,45.79,45.79,0,0,0-.67-8.08A38,38,0,0,0,111.12,43a4.15,4.15,0,0,1-.31-1.54,2.27,2.27,0,0,1,.69-1.74,2.52,2.52,0,0,1,1.76-.64,4,4,0,0,1,2,.62,5.43,5.43,0,0,1,1.8,1.8,29.59,29.59,0,0,1,5,17.12,29.71,29.71,0,0,1-5,17A5.43,5.43,0,0,1,115.29,77.47Z"/></svg>