<svg id="Layer_1" data-name="Layer 1" xmlns="http://www.w3.org/2000/svg" viewBox="0 0 130 130"><title>l13_3_1</title><path d="M119.52,108.65H34.89a14.65,14.65,0,0,1-10.51-4.94,14,14,0,0,1-3.13-7.42V10.53a10.55,10.55,0,0,0-21.09,0v98.12a20.85,20.85,0,0,0,6.17,15.41,20.7,20.7,0,0,0,14.92,5.64h98.27a10.53,10.53,0,1,0,0-21Z"/><path d="M103.13,87.79H45.22A16.38,16.38,0,0,1,28.84,71.41V35.65A16.38,16.38,0,0,1,45.22,19.27h57.91a16.38,16.38,0,0,1,16.38,16.38V71.41A16.38,16.38,0,0,1,103.13,87.79Zm-16.08-23h-5V36.33a5.18,5.18,0,0,0-1.49-3.89A5.4,5.4,0,0,0,76.66,31a10.38,10.38,0,0,0-5,1.5l-9.71,5.58a4.06,4.06,0,0,0-2.13,3.71A5,5,0,0,0,61,45.07a3.7,3.7,0,0,0,2.92,1.47,4.2,4.2,0,0,0,2.13-.6l4.86-2.82V64.78H66a6.06,6.06,0,0,0-4,1.08,4,4,0,0,0-1.28,3.23q0,4.45,5.29,4.45H87.05q5.28,0,5.28-4.45a4,4,0,0,0-1.27-3.23A6.08,6.08,0,0,0,87.05,64.78Z"/></svg>