<svg id="Layer_1" data-name="Layer 1" xmlns="http://www.w3.org/2000/svg" viewBox="0 0 130 130"><title>l13_4_1</title><path d="M107.08,130H22.92A22.92,22.92,0,0,1,0,107.08V22.92A22.92,22.92,0,0,1,22.92,0h84.16A22.92,22.92,0,0,1,130,22.92v84.16A22.92,22.92,0,0,1,107.08,130ZM53.84,78.71H39.6L49.66,68.56a32.69,32.69,0,0,0,5.92-7.88,17.51,17.51,0,0,0,1.73-7.8,12.76,12.76,0,0,0-2.16-7.32A13.84,13.84,0,0,0,49,40.66,23.07,23.07,0,0,0,39.81,39a29.13,29.13,0,0,0-15.66,4.76,4.72,4.72,0,0,0-1.74,1.82A6,6,0,0,0,22,48.05a5.93,5.93,0,0,0,1.21,3.74,3.62,3.62,0,0,0,3,1.58,4.24,4.24,0,0,0,1.35-.21,7.83,7.83,0,0,0,1.45-.67c.55-.3.91-.5,1.1-.59l1.42-.7a34.3,34.3,0,0,1,4-1.72,11.81,11.81,0,0,1,3.79-.59,5.67,5.67,0,0,1,3.94,1.26,4.68,4.68,0,0,1,1.38,3.64q0,4.07-4.68,8.89l-15,15.47a7.6,7.6,0,0,0-2.41,5.46,5.19,5.19,0,0,0,1.49,3.81,5.4,5.4,0,0,0,4,1.51H53.84a7.18,7.18,0,0,0,4.64-1.26A4.79,4.79,0,0,0,60,83.75a4.6,4.6,0,0,0-1.52-3.82A7.37,7.37,0,0,0,53.84,78.71Zm53.57.91L93.88,64.08l13.25-15.19a5.75,5.75,0,0,0,1.49-3.78,5.59,5.59,0,0,0-1.88-4.17,6,6,0,0,0-4.29-1.78,5.19,5.19,0,0,0-4.18,2.1l-11.9,14-12-14a5.59,5.59,0,0,0-4.32-2.1,6,6,0,0,0-4.29,1.78,5.59,5.59,0,0,0-1.88,4.17,5.75,5.75,0,0,0,1.56,3.78L78.71,64.08,65.11,79.62a5.75,5.75,0,0,0-1.49,3.78,5.65,5.65,0,0,0,1.88,4.2,5.91,5.91,0,0,0,4.21,1.82A5.51,5.51,0,0,0,74,87.32L86.37,72.9,98.55,87.32a5.6,5.6,0,0,0,4.33,2.1,6,6,0,0,0,4.21-1.79A5.57,5.57,0,0,0,109,83.47,5.67,5.67,0,0,0,107.41,79.62Z"/></svg>