<svg id="Layer_1" data-name="Layer 1" xmlns="http://www.w3.org/2000/svg" viewBox="0 0 130 130"><title>l13_4_1</title><path d="M129.67,64.88a11.66,11.66,0,0,1-3.38,8.38Q99.6,100,72.88,126.61c-4.64,4.59-10.62,4.5-15.31-.16Q30.68,99.74,4,72.83C-.93,67.93-.87,62,4.06,57Q30.67,30.26,57.44,3.65c4.91-4.89,10.87-4.86,15.81.05q26.52,26.37,52.91,52.88A11.86,11.86,0,0,1,129.67,64.88Zm-77.16-4a9.8,9.8,0,0,0,4.83-3.63,9.92,9.92,0,0,0,1.73-5.79,10.42,10.42,0,0,0-1.85-6.12,11.89,11.89,0,0,0-5.29-4.08A20.31,20.31,0,0,0,44,39.77a24.64,24.64,0,0,0-7.2,1.08,20.2,20.2,0,0,0-6.16,3,4.81,4.81,0,0,0-1.46,1.62,4.54,4.54,0,0,0-.43,2.1,4.93,4.93,0,0,0,1,3.15A3.16,3.16,0,0,0,32.35,52a4,4,0,0,0,1.51-.27q.68-.27,1.83-.87l1.27-.6a33.73,33.73,0,0,1,3.31-1.44,9.29,9.29,0,0,1,3.19-.54,5.29,5.29,0,0,1,3.71,1.23A4.45,4.45,0,0,1,48.5,53,3.36,3.36,0,0,1,47,56a9.39,9.39,0,0,1-4.86,1H39.45a3.49,3.49,0,0,0-2.85,1.26,4.88,4.88,0,0,0,0,6,3.49,3.49,0,0,0,2.85,1.26h3.77a9.21,9.21,0,0,1,5,1,3.76,3.76,0,0,1,1.52,3.36,4.15,4.15,0,0,1-1.49,3.6q-1.48,1.08-4.89,1.08a11.09,11.09,0,0,1-3.49-.51,27.21,27.21,0,0,1-3.5-1.47l-.75-.33L35,72c-.77-.4-1.38-.69-1.82-.87a4.07,4.07,0,0,0-1.52-.27,3.14,3.14,0,0,0-2.55,1.29,4.88,4.88,0,0,0-1,3.15A4.2,4.2,0,0,0,30,79a19.57,19.57,0,0,0,6.31,3,27.3,27.3,0,0,0,7.6,1,23,23,0,0,0,8.59-1.47,12.78,12.78,0,0,0,5.68-4.17,10.41,10.41,0,0,0,2-6.36,10.53,10.53,0,0,0-2-6.54A10.35,10.35,0,0,0,52.51,60.83ZM102,74.63,90.35,61.31l11.36-13A4.9,4.9,0,0,0,103,45.05a4.76,4.76,0,0,0-1.61-3.57A5.18,5.18,0,0,0,97.7,40a4.47,4.47,0,0,0-3.59,1.8l-10.2,12-10.26-12A4.81,4.81,0,0,0,69.94,40a5.17,5.17,0,0,0-3.67,1.53,4.76,4.76,0,0,0-1.61,3.57A4.94,4.94,0,0,0,66,48.29l11.36,13L65.69,74.63A4.79,4.79,0,0,0,66,81.47,5.09,5.09,0,0,0,69.64,83a4.73,4.73,0,0,0,3.64-1.8L83.91,68.87,94.36,81.23a4.78,4.78,0,0,0,3.7,1.8,5.14,5.14,0,0,0,3.62-1.53,4.79,4.79,0,0,0,1.61-3.57A4.86,4.86,0,0,0,102,74.63Z"/></svg>