<svg id="Layer_1" data-name="Layer 1" xmlns="http://www.w3.org/2000/svg" viewBox="0 0 130 130"><title>l13_3_1</title><path d="M130,65A65,65,0,1,1,65,0,65,65,0,0,1,130,65ZM69.25,58.28a13.85,13.85,0,0,0-6,1.29,11.22,11.22,0,0,0-4.35,3.54c.28-3.92,1.17-7,2.65-9.14a6.8,6.8,0,0,1,5.85-3.25,9.43,9.43,0,0,1,3.26.56A41.47,41.47,0,0,1,74.57,53l1.56.77c.89.46,1.6.8,2.12,1a4.69,4.69,0,0,0,1.77.32,3.75,3.75,0,0,0,3-1.51,5.56,5.56,0,0,0,1.24-3.67,5,5,0,0,0-.53-2.45A5.91,5.91,0,0,0,82,45.54,22.66,22.66,0,0,0,74.89,42a27.87,27.87,0,0,0-8.12-1.26,19.37,19.37,0,0,0-11,3.15,20.51,20.51,0,0,0-7.3,9,33.68,33.68,0,0,0-2.58,13.69q0,11.9,5.45,18.34t15.45,6.44a18.49,18.49,0,0,0,9-2.17A15.71,15.71,0,0,0,82,83.16a18.51,18.51,0,0,0,.28-17.08,14.33,14.33,0,0,0-13-7.8ZM66,81.52a5.68,5.68,0,0,1-4.39-1.86,7.73,7.73,0,0,1,0-9.62A5.7,5.7,0,0,1,66,68.22,5.63,5.63,0,0,1,70.42,70a8.09,8.09,0,0,1,0,9.7A5.64,5.64,0,0,1,66,81.52Z"/></svg>