<svg id="Layer_1" data-name="Layer 1" xmlns="http://www.w3.org/2000/svg" viewBox="0 0 130 130"><title>l13_1_1</title><path d="M119.41,108.79H34.79a14.62,14.62,0,0,1-10.51-4.94,14,14,0,0,1-3.14-7.42V10.67a10.54,10.54,0,0,0-21.08,0v98.12A20.83,20.83,0,0,0,6.22,124.2a20.7,20.7,0,0,0,14.92,5.64h98.27a10.53,10.53,0,1,0,0-21Z"/><path d="M29.37,58.64a29.59,29.59,0,0,1,5-17.12,5.5,5.5,0,0,1,1.8-1.82,3.88,3.88,0,0,1,2-.64A2.48,2.48,0,0,1,40,39.7a2.3,2.3,0,0,1,.69,1.78A4.36,4.36,0,0,1,40.33,43a38,38,0,0,0-2.18,7.54,45.79,45.79,0,0,0-.67,8.08,44.16,44.16,0,0,0,.67,8,40.31,40.31,0,0,0,2.18,7.55,4.36,4.36,0,0,1,.31,1.54A2.27,2.27,0,0,1,40,77.45a2.52,2.52,0,0,1-1.76.64,4,4,0,0,1-2-.62,5.34,5.34,0,0,1-1.8-1.8A29.71,29.71,0,0,1,29.37,58.64Z"/><path d="M67,56.94a7.67,7.67,0,0,1,1.45,4.73,7.58,7.58,0,0,1-3.32,6.54c-2.21,1.57-5.24,2.35-9.07,2.35s-6.85-.78-9.06-2.35a8.29,8.29,0,0,1-1.85-11.35,7.42,7.42,0,0,1,4.19-2.62,7.58,7.58,0,0,1-1.69-13.18c2.07-1.51,4.88-2.27,8.41-2.27s6.38.76,8.44,2.27a7.24,7.24,0,0,1,3.1,6.18,7.55,7.55,0,0,1-1.27,4.4,6.73,6.73,0,0,1-3.5,2.6A7.82,7.82,0,0,1,67,56.94ZM61,61c0-2.28-1.62-3.43-4.86-3.43S51.24,58.73,51.24,61s1.62,3.44,4.85,3.44S61,63.3,61,61ZM53.11,45.68a3,3,0,0,0-1,2.49,3,3,0,0,0,1,2.5,4.67,4.67,0,0,0,3,.8,4.7,4.7,0,0,0,3-.8,3,3,0,0,0,1-2.5,3,3,0,0,0-1-2.49,4.84,4.84,0,0,0-3-.77A4.81,4.81,0,0,0,53.11,45.68Z"/><path d="M78.56,63.35a5.89,5.89,0,0,1,1.23,4,12.29,12.29,0,0,1-3.7,8.89,2.13,2.13,0,0,1-1.56.66A2.28,2.28,0,0,1,73,76.3,1.76,1.76,0,0,1,72.31,75a1.73,1.73,0,0,1,.58-1.27A8.87,8.87,0,0,0,75,70.17,4.2,4.2,0,0,1,72.26,69a3.76,3.76,0,0,1-1.07-2.75,4.15,4.15,0,0,1,1.21-3,4.26,4.26,0,0,1,6.16.18Z"/><path d="M103.53,42.84q3.43,4,3.43,11.53a21,21,0,0,1-1.63,8.6,12.85,12.85,0,0,1-4.58,5.66,12.2,12.2,0,0,1-6.93,2,17.46,17.46,0,0,1-5.1-.8,14.09,14.09,0,0,1-4.48-2.2,3.82,3.82,0,0,1-1.09-1.18,3.25,3.25,0,0,1-.33-1.54,3.51,3.51,0,0,1,.78-2.31,2.38,2.38,0,0,1,1.89-.95,2.93,2.93,0,0,1,1.11.2,13.28,13.28,0,0,1,1.34.64l1,.48c1,.47,1.8.82,2.45,1.06a6.13,6.13,0,0,0,2,.35,4.26,4.26,0,0,0,3.67-2,11.46,11.46,0,0,0,1.67-5.74A6.94,6.94,0,0,1,96,58.79a8.53,8.53,0,0,1-3.76.82,9,9,0,0,1-8.17-4.91A11.63,11.63,0,0,1,84.26,44a10,10,0,0,1,3.9-3.8,11.62,11.62,0,0,1,5.66-1.37Q100.11,38.79,103.53,42.84Zm-6.44,9.37a4.85,4.85,0,0,0,0-6.05A3.59,3.59,0,0,0,94.31,45a3.52,3.52,0,0,0-2.76,1.14,4.38,4.38,0,0,0-1,3,4.43,4.43,0,0,0,1,3.06,4,4,0,0,0,5.56,0Z"/><path d="M114.86,77.47a4,4,0,0,1-2.07.62,2.45,2.45,0,0,1-1.71-.64,2.27,2.27,0,0,1-.69-1.74,4.15,4.15,0,0,1,.31-1.54,40.31,40.31,0,0,0,2.18-7.55,44.16,44.16,0,0,0,.67-8,45.79,45.79,0,0,0-.67-8.08A38,38,0,0,0,110.7,43a4.15,4.15,0,0,1-.31-1.54,2.27,2.27,0,0,1,.69-1.74,2.5,2.5,0,0,1,1.76-.64,4,4,0,0,1,2,.62,5.45,5.45,0,0,1,1.81,1.8,29.67,29.67,0,0,1,5,17.12,29.78,29.78,0,0,1-5,17A5.45,5.45,0,0,1,114.86,77.47Z"/></svg>