<svg id="Layer_1" data-name="Layer 1" xmlns="http://www.w3.org/2000/svg" viewBox="0 0 130 130"><title>l13_1_1</title><path d="M124.26,59.26H70.74V5.74a5.74,5.74,0,1,0-11.48,0V59.26H5.74a5.74,5.74,0,0,0,0,11.48H59.26v53.52a5.74,5.74,0,1,0,11.48,0V70.74h53.52a5.74,5.74,0,0,0,0-11.48Z"/><path d="M39.74,80.06a4,4,0,0,1,2.83,1.2A3.69,3.69,0,0,1,43.83,84a3.89,3.89,0,0,1-1,2.58L32.79,98v11.47a4.09,4.09,0,0,1-1.21,3.18,4.49,4.49,0,0,1-3.12,1.1,4.65,4.65,0,0,1-3.19-1.1A4.06,4.06,0,0,1,24,109.48V98l-9.9-11.42A3.86,3.86,0,0,1,13.05,84a3.65,3.65,0,0,1,1.23-2.72,4,4,0,0,1,2.81-1.18A3.74,3.74,0,0,1,20,81.47l8.43,9.87,8.42-9.87A3.74,3.74,0,0,1,39.74,80.06Z"/><path d="M107,25.07a9.76,9.76,0,0,1,3.6,3.85,11.74,11.74,0,0,1,1.3,5.57,11.73,11.73,0,0,1-1.49,5.9,10.51,10.51,0,0,1-4.17,4.06,12.27,12.27,0,0,1-6,1.46q-6.7,0-10.37-4.32T86.12,29.27a22.44,22.44,0,0,1,1.73-9.18A13.79,13.79,0,0,1,92.75,14a13.09,13.09,0,0,1,7.4-2.11,18.5,18.5,0,0,1,5.45.85,15,15,0,0,1,4.78,2.35,4,4,0,0,1,1.17,1.27A3.46,3.46,0,0,1,111.9,18a3.8,3.8,0,0,1-.83,2.47,2.55,2.55,0,0,1-2,1,3.16,3.16,0,0,1-1.19-.21c-.35-.14-.83-.37-1.43-.68l-1.05-.52c-1-.5-1.92-.88-2.61-1.13a6.47,6.47,0,0,0-2.19-.38,4.57,4.57,0,0,0-3.93,2.19,12.38,12.38,0,0,0-1.78,6.13,7.5,7.5,0,0,1,2.93-2.37,9.24,9.24,0,0,1,4-.87A9.63,9.63,0,0,1,107,25.07Zm-4.37,13a4.65,4.65,0,0,0,1.09-3.24,4.75,4.75,0,0,0-1.07-3.27,3.78,3.78,0,0,0-3-1.2,3.84,3.84,0,0,0-3,1.23,4.62,4.62,0,0,0-1.11,3.24A4.58,4.58,0,0,0,96.68,38a3.81,3.81,0,0,0,2.95,1.24A3.75,3.75,0,0,0,102.58,38.06Z"/><circle cx="98.96" cy="95.96" r="15.68"/><circle cx="30.15" cy="29.8" r="15.68"/></svg>