<svg id="Layer_1" data-name="Layer 1" xmlns="http://www.w3.org/2000/svg" viewBox="0 0 130 130"><title>l13_4_1</title><path d="M130,65A65,65,0,1,1,65,0,65,65,0,0,1,130,65ZM44.17,58.49a17.93,17.93,0,0,0-7,1.26V51.14H52.46c4.11,0,6.16-1.64,6.16-4.9s-2-4.83-6.16-4.83h-22A6.06,6.06,0,0,0,26,43a6,6,0,0,0-1.56,4.48v19a3.82,3.82,0,0,0,1.34,3,5,5,0,0,0,3.34,1.16,6.85,6.85,0,0,0,3.18-.77,24.66,24.66,0,0,1,4.08-1.26,19.09,19.09,0,0,1,3.86-.35A8.08,8.08,0,0,1,45.8,70a6.19,6.19,0,0,1,2,4.9,6,6,0,0,1-1.91,4.93Q44,81.38,40,81.38a11.92,11.92,0,0,1-3.94-.63,39.73,39.73,0,0,1-4-1.68l-1.42-.7a18.8,18.8,0,0,0-2.12-1.05A4.8,4.8,0,0,0,26.74,77a3.67,3.67,0,0,0-3,1.5,5.73,5.73,0,0,0-1.2,3.68,5,5,0,0,0,.53,2.41,6.23,6.23,0,0,0,1.66,1.93A23.57,23.57,0,0,0,32,90.06a30,30,0,0,0,8.62,1.26,23.24,23.24,0,0,0,10.13-2.1,15.94,15.94,0,0,0,6.8-6A16.38,16.38,0,0,0,60,74.38a16.67,16.67,0,0,0-2-8.3,14.29,14.29,0,0,0-5.6-5.6A16.49,16.49,0,0,0,44.17,58.49Zm63.2,23L93.84,65.91l13.25-15.19a5.75,5.75,0,0,0,1.49-3.78,5.59,5.59,0,0,0-1.88-4.17A6,6,0,0,0,102.41,41a5.2,5.2,0,0,0-4.18,2.1l-11.9,14-12-14A5.59,5.59,0,0,0,70,41a6,6,0,0,0-4.29,1.78,5.58,5.58,0,0,0-1.87,4.17,5.82,5.82,0,0,0,1.55,3.78L78.68,65.91,65.07,81.45a5.59,5.59,0,0,0,.39,8,5.93,5.93,0,0,0,4.22,1.82,5.53,5.53,0,0,0,4.25-2.1l12.4-14.42L98.52,89.15a5.57,5.57,0,0,0,4.32,2.1,6,6,0,0,0,4.21-1.79,5.55,5.55,0,0,0,1.88-4.16A5.65,5.65,0,0,0,107.37,81.45Z"/></svg>