<svg id="Layer_1" data-name="Layer 1" xmlns="http://www.w3.org/2000/svg" viewBox="0 0 130 130"><title>l13_1_1</title><path d="M119.41,108.19H34.79a14.62,14.62,0,0,1-10.51-4.94,13.93,13.93,0,0,1-3.14-7.42V10.07a10.54,10.54,0,0,0-21.08,0v98.12a20.84,20.84,0,0,0,6.16,15.42,20.8,20.8,0,0,0,14.92,5.64h98.27a10.53,10.53,0,1,0,0-21.06Z"/><path d="M27,58a29.59,29.59,0,0,1,5-17.12,5.5,5.5,0,0,1,1.8-1.82,3.86,3.86,0,0,1,2-.64,2.49,2.49,0,0,1,1.76.64,2.3,2.3,0,0,1,.69,1.78,4.17,4.17,0,0,1-.32,1.54A38.55,38.55,0,0,0,35.76,50,46.64,46.64,0,0,0,35.09,58a45.2,45.2,0,0,0,.67,8,41,41,0,0,0,2.18,7.54,4.17,4.17,0,0,1,.32,1.54,2.25,2.25,0,0,1-.69,1.74,2.49,2.49,0,0,1-1.76.64,4,4,0,0,1-2-.62,5.34,5.34,0,0,1-1.8-1.8A29.71,29.71,0,0,1,27,58Z"/><path d="M70.32,66.18a3.5,3.5,0,0,1-1.18,2.62,3.73,3.73,0,0,1-2.65,1.12,3.5,3.5,0,0,1-2.71-1.32l-7.66-9.06-7.8,9.06a3.47,3.47,0,0,1-2.67,1.32A3.73,3.73,0,0,1,43,68.78a3.53,3.53,0,0,1-.25-5L51.31,54,43,44.44a3.57,3.57,0,0,1-1-2.37,3.5,3.5,0,0,1,1.18-2.62,3.77,3.77,0,0,1,2.69-1.12,3.52,3.52,0,0,1,2.72,1.32l7.53,8.8,7.48-8.8a3.26,3.26,0,0,1,2.63-1.32,3.79,3.79,0,0,1,2.69,1.12,3.5,3.5,0,0,1,1.18,2.62,3.59,3.59,0,0,1-.93,2.37L60.84,54l8.5,9.77A3.52,3.52,0,0,1,70.32,66.18Z"/><path d="M80.9,62.75a5.89,5.89,0,0,1,1.23,4,12.33,12.33,0,0,1-3.7,8.89,2.17,2.17,0,0,1-1.56.66,2.32,2.32,0,0,1-1.56-.59,1.8,1.8,0,0,1-.67-1.35,1.77,1.77,0,0,1,.58-1.27,8.9,8.9,0,0,0,2.14-3.52,4.2,4.2,0,0,1-2.76-1.21,3.76,3.76,0,0,1-1.07-2.75,4.19,4.19,0,0,1,1.2-3,4.27,4.27,0,0,1,6.17.18Z"/><path d="M108.47,64a2.88,2.88,0,0,1,1,2.4,3,3,0,0,1-1,2.46,4.5,4.5,0,0,1-2.92.79H89.3a3.4,3.4,0,0,1-2.54-.94,3.25,3.25,0,0,1-.94-2.4,4.78,4.78,0,0,1,1.52-3.43l9.44-9.73q2.94-3,2.94-5.59a2.92,2.92,0,0,0-.87-2.28,3.53,3.53,0,0,0-2.47-.8,7.24,7.24,0,0,0-2.38.38,21.57,21.57,0,0,0-2.52,1.08l-.89.44-.69.37a5.81,5.81,0,0,1-.91.42,2.65,2.65,0,0,1-.85.13,2.27,2.27,0,0,1-1.87-1,3.72,3.72,0,0,1-.76-2.35,3.8,3.8,0,0,1,.29-1.59,2.92,2.92,0,0,1,1.09-1.14,18.27,18.27,0,0,1,9.85-3,14.69,14.69,0,0,1,5.79,1.07,8.75,8.75,0,0,1,3.85,3.08,8.06,8.06,0,0,1,1.36,4.6,11.09,11.09,0,0,1-1.09,4.91,20.79,20.79,0,0,1-3.72,5L96.6,63.19h9A4.63,4.63,0,0,1,108.47,64Z"/><path d="M117.25,76.87a4.09,4.09,0,0,1-2.07.62,2.41,2.41,0,0,1-1.72-.64,2.25,2.25,0,0,1-.69-1.74,4.15,4.15,0,0,1,.31-1.54A40.22,40.22,0,0,0,115.26,66a44.28,44.28,0,0,0,.67-8,45.67,45.67,0,0,0-.67-8.07,37.87,37.87,0,0,0-2.18-7.55,4.15,4.15,0,0,1-.31-1.54,2.27,2.27,0,0,1,.69-1.74,2.52,2.52,0,0,1,1.76-.64,4,4,0,0,1,2,.62,5.43,5.43,0,0,1,1.8,1.8A29.59,29.59,0,0,1,124,58a29.71,29.71,0,0,1-5,17A5.43,5.43,0,0,1,117.25,76.87Z"/></svg>