<svg id="Layer_1" data-name="Layer 1" xmlns="http://www.w3.org/2000/svg" viewBox="0 0 130 130"><title>l13_4_1</title><path d="M107.08,115.08H22.92A22.92,22.92,0,0,1,0,92.16V42.7A22.92,22.92,0,0,1,22.92,19.78h84.16A22.92,22.92,0,0,1,130,42.7V92.16A22.92,22.92,0,0,1,107.08,115.08ZM45,59.47a13.68,13.68,0,0,0-6,1.3A11.23,11.23,0,0,0,34.6,64.3q.42-5.88,2.66-9.13a6.8,6.8,0,0,1,5.84-3.26,9.63,9.63,0,0,1,3.26.56q1.56.57,3.9,1.68l1.56.77q1.35.7,2.13,1a4.69,4.69,0,0,0,1.77.31,3.78,3.78,0,0,0,3-1.5A5.65,5.65,0,0,0,60,51.07a5.16,5.16,0,0,0-.53-2.45,6.3,6.3,0,0,0-1.74-1.89,22.76,22.76,0,0,0-7.12-3.5A27.8,27.8,0,0,0,42.47,42a19.35,19.35,0,0,0-11,3.15,20.41,20.41,0,0,0-7.3,9A33.49,33.49,0,0,0,21.56,67.8q0,11.91,5.46,18.34t15.45,6.44a18.44,18.44,0,0,0,9-2.17,15.69,15.69,0,0,0,6.2-6A18.51,18.51,0,0,0,58,67.28a14.36,14.36,0,0,0-13-7.81ZM41.69,82.71a5.72,5.72,0,0,1-4.4-1.85,7.72,7.72,0,0,1,0-9.63,5.72,5.72,0,0,1,4.43-1.82,5.65,5.65,0,0,1,4.43,1.79,7,7,0,0,1,1.59,4.86,6.94,6.94,0,0,1-1.63,4.83A5.58,5.58,0,0,1,41.69,82.71Zm65.68-.07L93.84,67.1l13.25-15.19a5.71,5.71,0,0,0,1.49-3.78A5.59,5.59,0,0,0,106.7,44a6.05,6.05,0,0,0-4.29-1.79,5.2,5.2,0,0,0-4.18,2.1l-11.9,14-12-14A5.59,5.59,0,0,0,70,42.18,6.05,6.05,0,0,0,65.74,44a5.59,5.59,0,0,0-1.88,4.16,5.75,5.75,0,0,0,1.56,3.78L78.67,67.1,65.07,82.64a5.75,5.75,0,0,0-1.49,3.78,5.68,5.68,0,0,0,1.88,4.2,5.89,5.89,0,0,0,4.22,1.82,5.53,5.53,0,0,0,4.25-2.1l12.4-14.42L98.52,90.34a5.57,5.57,0,0,0,4.32,2.1,6,6,0,0,0,4.21-1.78,5.55,5.55,0,0,0,1.88-4.17A5.67,5.67,0,0,0,107.37,82.64Z"/></svg>