<svg id="Layer_1" data-name="Layer 1" xmlns="http://www.w3.org/2000/svg" viewBox="0 0 130 130"><title>l13_3_1</title><path d="M107.08,130H22.92A22.92,22.92,0,0,1,0,107.08V22.92A22.92,22.92,0,0,1,22.92,0h84.16A22.92,22.92,0,0,1,130,22.92v84.16A22.92,22.92,0,0,1,107.08,130ZM69.25,56.45a13.85,13.85,0,0,0-6,1.29,11.3,11.3,0,0,0-4.35,3.54c.28-3.92,1.17-7,2.65-9.14a6.8,6.8,0,0,1,5.85-3.25,9.67,9.67,0,0,1,3.26.56,41.47,41.47,0,0,1,3.9,1.68l1.56.77c.89.47,1.6.8,2.12,1a4.69,4.69,0,0,0,1.77.32,3.75,3.75,0,0,0,3-1.51,5.55,5.55,0,0,0,1.24-3.67,5,5,0,0,0-.53-2.45A6.13,6.13,0,0,0,82,43.71a22.87,22.87,0,0,0-7.12-3.5A27.87,27.87,0,0,0,66.77,39a19.37,19.37,0,0,0-11,3.15,20.51,20.51,0,0,0-7.3,9,33.68,33.68,0,0,0-2.58,13.69q0,11.89,5.45,18.34t15.45,6.44a18.38,18.38,0,0,0,9-2.17A15.71,15.71,0,0,0,82,81.33a17.27,17.27,0,0,0,2.23-8.78,17.44,17.44,0,0,0-2-8.3,14.33,14.33,0,0,0-13-7.8ZM66,79.69a5.68,5.68,0,0,1-4.39-1.86,7.73,7.73,0,0,1,0-9.62A5.73,5.73,0,0,1,66,66.39a5.63,5.63,0,0,1,4.43,1.78A7.07,7.07,0,0,1,72,73a7,7,0,0,1-1.63,4.83A5.64,5.64,0,0,1,66,79.69Z"/></svg>