<svg id="Layer_1" data-name="Layer 1" xmlns="http://www.w3.org/2000/svg" viewBox="0 0 130 130"><title>l13_4_1</title><path d="M130,65A65,65,0,1,1,65,0,65,65,0,0,1,130,65ZM45,58.28a13.82,13.82,0,0,0-6,1.29,11.25,11.25,0,0,0-4.36,3.54Q35,57.23,37.26,54a6.8,6.8,0,0,1,5.84-3.25,9.39,9.39,0,0,1,3.26.56A41.47,41.47,0,0,1,50.26,53l1.56.77c.9.46,1.61.8,2.13,1a4.69,4.69,0,0,0,1.77.32,3.76,3.76,0,0,0,3-1.51A5.62,5.62,0,0,0,60,49.88a5.14,5.14,0,0,0-.53-2.45,6.07,6.07,0,0,0-1.74-1.89A22.55,22.55,0,0,0,50.58,42a27.8,27.8,0,0,0-8.11-1.26,19.35,19.35,0,0,0-11,3.15,20.44,20.44,0,0,0-7.3,9,33.51,33.51,0,0,0-2.59,13.69Q21.56,78.51,27,85t15.45,6.44a18.55,18.55,0,0,0,9-2.17,15.78,15.78,0,0,0,6.2-6.06A18.51,18.51,0,0,0,58,66.08a14.33,14.33,0,0,0-13-7.8ZM41.69,81.52a5.7,5.7,0,0,1-4.4-1.86,7.71,7.71,0,0,1,0-9.62,5.68,5.68,0,0,1,4.43-1.82A5.64,5.64,0,0,1,46.12,70a7.05,7.05,0,0,1,1.59,4.87,7,7,0,0,1-1.63,4.83A5.62,5.62,0,0,1,41.69,81.52Zm65.68-.07L93.84,65.91l13.25-15.19a5.75,5.75,0,0,0,1.49-3.78,5.59,5.59,0,0,0-1.88-4.17A6,6,0,0,0,102.41,41a5.2,5.2,0,0,0-4.18,2.1l-11.9,14-12-14A5.59,5.59,0,0,0,70,41a6,6,0,0,0-4.29,1.78,5.58,5.58,0,0,0-1.87,4.17,5.77,5.77,0,0,0,1.55,3.78L78.67,65.91,65.07,81.45a5.59,5.59,0,0,0,.39,8,5.93,5.93,0,0,0,4.22,1.82,5.53,5.53,0,0,0,4.25-2.1l12.4-14.42L98.52,89.15a5.57,5.57,0,0,0,4.32,2.1,6,6,0,0,0,4.21-1.79,5.55,5.55,0,0,0,1.88-4.16A5.65,5.65,0,0,0,107.37,81.45Z"/></svg>