<svg id="Layer_1" data-name="Layer 1" xmlns="http://www.w3.org/2000/svg" viewBox="0 0 130 130"><title>l13_4_1</title><path d="M107.08,120.74H22.92A22.92,22.92,0,0,1,0,97.82V48.37A22.93,22.93,0,0,1,22.92,25.44h84.16A22.93,22.93,0,0,1,130,48.37V97.82A22.92,22.92,0,0,1,107.08,120.74ZM53.84,87.4H39.6L49.66,77.24a32.67,32.67,0,0,0,5.92-7.87,17.57,17.57,0,0,0,1.73-7.8,12.72,12.72,0,0,0-2.16-7.32A13.77,13.77,0,0,0,49,49.35a23.07,23.07,0,0,0-9.21-1.72,28,28,0,0,0-8.18,1.27,27.51,27.51,0,0,0-7.48,3.5,4.63,4.63,0,0,0-1.74,1.81A6.12,6.12,0,0,0,22,56.74a6,6,0,0,0,1.21,3.74,3.62,3.62,0,0,0,3,1.58,4.29,4.29,0,0,0,1.35-.21,9.86,9.86,0,0,0,1.45-.67l1.1-.6,1.42-.7a35.85,35.85,0,0,1,4-1.71,11.54,11.54,0,0,1,3.79-.6,5.67,5.67,0,0,1,3.94,1.26,4.7,4.7,0,0,1,1.38,3.65c0,2.7-1.56,5.67-4.68,8.88l-15,15.47a7.63,7.63,0,0,0-2.41,5.46,5.18,5.18,0,0,0,1.49,3.82,5.42,5.42,0,0,0,4,1.5H53.84a7.18,7.18,0,0,0,4.64-1.25A4.79,4.79,0,0,0,60,92.44a4.6,4.6,0,0,0-1.52-3.82A7.31,7.31,0,0,0,53.84,87.4Zm53.57.91L93.88,72.77l13.25-15.2a5.7,5.7,0,0,0,1.48-3.78,5.57,5.57,0,0,0-1.87-4.16,6.06,6.06,0,0,0-4.29-1.78A5.16,5.16,0,0,0,98.27,50L86.36,64l-12-14a5.56,5.56,0,0,0-4.32-2.1,6,6,0,0,0-4.29,1.78,5.59,5.59,0,0,0-1.88,4.16,5.75,5.75,0,0,0,1.56,3.78l13.25,15.2L65.11,88.31a5.58,5.58,0,0,0,.39,8,5.88,5.88,0,0,0,4.21,1.83A5.5,5.5,0,0,0,74,96l12.4-14.42L98.55,96a5.57,5.57,0,0,0,4.32,2.11,6,6,0,0,0,4.22-1.79,5.54,5.54,0,0,0,.32-8Z"/></svg>