<svg id="Layer_1" data-name="Layer 1" xmlns="http://www.w3.org/2000/svg" viewBox="0 0 130 130"><title>l13_3_1</title><path d="M107.28,112.65H23.12A22.92,22.92,0,0,1,.2,89.73V40.27A22.92,22.92,0,0,1,23.12,17.35h84.16A22.92,22.92,0,0,1,130.2,40.27V89.73A22.92,22.92,0,0,1,107.28,112.65ZM80.44,71.39H78.88V46.12A5.91,5.91,0,0,0,77,41.43a6.73,6.73,0,0,0-4.6-1.68,7.21,7.21,0,0,0-3.16.74,6.53,6.53,0,0,0-2.51,2.13L46.42,71.18a7.79,7.79,0,0,0-1.56,4.62,5.2,5.2,0,0,0,5.53,5.39h15.8v2.38a6.17,6.17,0,0,0,1.74,4.76,6.41,6.41,0,0,0,4.57,1.61,6.54,6.54,0,0,0,4.6-1.61,6.11,6.11,0,0,0,1.78-4.76V81.19h1.56c4.1,0,6.16-1.65,6.16-5S84.54,71.39,80.44,71.39Zm-22.75,0,8.5-12.11V71.39Z"/></svg>