<svg id="Layer_1" data-name="Layer 1" xmlns="http://www.w3.org/2000/svg" viewBox="0 0 130 130"><title>l13_4_1</title><path d="M107.08,130H22.92A22.92,22.92,0,0,1,0,107.08V22.92A22.92,22.92,0,0,1,22.92,0h84.16A22.92,22.92,0,0,1,130,22.92v84.16A22.92,22.92,0,0,1,107.08,130ZM44.17,56.66a17.93,17.93,0,0,0-7,1.26V49.31H52.46q6.16,0,6.16-4.9t-6.16-4.83h-22A6.06,6.06,0,0,0,26,41.12a6,6,0,0,0-1.56,4.48v19a3.82,3.82,0,0,0,1.34,3,5,5,0,0,0,3.34,1.16A6.85,6.85,0,0,0,32.33,68a24.66,24.66,0,0,1,4.08-1.26,19.83,19.83,0,0,1,3.86-.35,8.08,8.08,0,0,1,5.53,1.75,6.2,6.2,0,0,1,2,4.9A6,6,0,0,1,45.87,78Q44,79.54,40,79.55a11.92,11.92,0,0,1-3.94-.63,39.73,39.73,0,0,1-4-1.68l-1.42-.7a23.13,23.13,0,0,0-2.12-1.05,4.8,4.8,0,0,0-1.77-.28,3.67,3.67,0,0,0-3,1.5,5.73,5.73,0,0,0-1.2,3.68,5,5,0,0,0,.53,2.41,6.23,6.23,0,0,0,1.66,1.93A23.57,23.57,0,0,0,32,88.23a30,30,0,0,0,8.62,1.26,23.24,23.24,0,0,0,10.13-2.1,15.88,15.88,0,0,0,6.8-6A16.38,16.38,0,0,0,60,72.55a16.67,16.67,0,0,0-2-8.3,14.29,14.29,0,0,0-5.6-5.6A16.49,16.49,0,0,0,44.17,56.66Zm63.2,23L93.84,64.08l13.25-15.19a5.75,5.75,0,0,0,1.49-3.78,5.59,5.59,0,0,0-1.88-4.17,6,6,0,0,0-4.29-1.78,5.2,5.2,0,0,0-4.18,2.1l-11.9,14-12-14A5.59,5.59,0,0,0,70,39.16a6,6,0,0,0-4.29,1.78,5.58,5.58,0,0,0-1.87,4.17,5.73,5.73,0,0,0,1.55,3.78L78.67,64.08,65.07,79.62a5.75,5.75,0,0,0-1.49,3.78,5.68,5.68,0,0,0,1.88,4.2,5.93,5.93,0,0,0,4.22,1.82,5.53,5.53,0,0,0,4.25-2.1L86.33,72.9,98.52,87.32a5.57,5.57,0,0,0,4.32,2.1,6,6,0,0,0,4.21-1.79,5.53,5.53,0,0,0,1.88-4.16A5.67,5.67,0,0,0,107.37,79.62Z"/></svg>