<svg id="Layer_1" data-name="Layer 1" xmlns="http://www.w3.org/2000/svg" viewBox="0 0 130 130"><title>l13_1_1</title><path d="M119.08,108.79H34.45a14.64,14.64,0,0,1-10.51-4.94,14,14,0,0,1-3.14-7.42V10.67a10.54,10.54,0,0,0-21.08,0v98.12A20.83,20.83,0,0,0,5.88,124.2a20.71,20.71,0,0,0,14.92,5.64h98.28a10.53,10.53,0,1,0,0-21Z"/><path d="M29,58.64a29.67,29.67,0,0,1,5-17.12,5.62,5.62,0,0,1,1.81-1.82,3.82,3.82,0,0,1,2-.64,2.46,2.46,0,0,1,1.76.64,2.3,2.3,0,0,1,.69,1.78A4.15,4.15,0,0,1,40,43a38,38,0,0,0-2.18,7.54,45.79,45.79,0,0,0-.67,8.08,44.16,44.16,0,0,0,.67,8A40.31,40.31,0,0,0,40,74.17a4.15,4.15,0,0,1,.31,1.54,2.27,2.27,0,0,1-.69,1.74,2.5,2.5,0,0,1-1.76.64,4,4,0,0,1-2-.62A5.45,5.45,0,0,1,34,75.67,29.78,29.78,0,0,1,29,58.64Z"/><path d="M65.53,57A7.71,7.71,0,0,1,67,61.76a7.62,7.62,0,0,1-1.47,4.67,9.28,9.28,0,0,1-4.17,3,16.89,16.89,0,0,1-6.3,1.08,20.14,20.14,0,0,1-5.57-.77,14.32,14.32,0,0,1-4.63-2.22,3.06,3.06,0,0,1-1.38-2.73,3.55,3.55,0,0,1,.76-2.31,2.29,2.29,0,0,1,1.87-.94,3,3,0,0,1,1.11.19c.33.14.77.35,1.34.64l.42.2.56.24a19.9,19.9,0,0,0,2.56,1.08,8.11,8.11,0,0,0,2.56.37,6.2,6.2,0,0,0,3.58-.79,3,3,0,0,0,1.09-2.64,2.75,2.75,0,0,0-1.11-2.46,6.74,6.74,0,0,0-3.65-.75H51.84a2.59,2.59,0,0,1-2.1-.92,3.6,3.6,0,0,1,0-4.4,2.57,2.57,0,0,1,2.1-.93h2a6.88,6.88,0,0,0,3.56-.7,2.47,2.47,0,0,0,1.11-2.25,3.26,3.26,0,0,0-1-2.53,3.84,3.84,0,0,0-2.71-.9,6.69,6.69,0,0,0-2.34.4A22.88,22.88,0,0,0,50,46.49l-.93.44a14.41,14.41,0,0,1-1.34.64,3,3,0,0,1-1.11.2,2.27,2.27,0,0,1-1.87-1A3.55,3.55,0,0,1,44,44.51,3.41,3.41,0,0,1,44.31,43a3.51,3.51,0,0,1,1.07-1.18,14.64,14.64,0,0,1,4.52-2.2,18,18,0,0,1,5.28-.8A15,15,0,0,1,61,39.85a8.7,8.7,0,0,1,3.88,3,7.66,7.66,0,0,1,1.35,4.49,7.09,7.09,0,0,1-4.81,6.91A7.55,7.55,0,0,1,65.53,57Z"/><path d="M78.23,63.35a5.94,5.94,0,0,1,1.22,4,12.32,12.32,0,0,1-3.69,8.89,2.17,2.17,0,0,1-1.56.66,2.24,2.24,0,0,1-1.56-.6,1.68,1.68,0,0,1-.09-2.61,8.9,8.9,0,0,0,2.14-3.52A4.24,4.24,0,0,1,71.92,69a3.75,3.75,0,0,1-1.06-2.75,4.18,4.18,0,0,1,1.2-3,4.27,4.27,0,0,1,6.17.18Z"/><path d="M108.05,61.85q0,3.12-3.88,3.12h-1v1.5a3.84,3.84,0,0,1-1.11,3,4.12,4.12,0,0,1-2.9,1,4,4,0,0,1-2.87-1,3.86,3.86,0,0,1-1.09-3V65H85.29a3.38,3.38,0,0,1-2.54-1,3.34,3.34,0,0,1-.94-2.42,4.92,4.92,0,0,1,1-2.91l12.74-18a4.09,4.09,0,0,1,1.58-1.34,4.49,4.49,0,0,1,2-.46,4.26,4.26,0,0,1,2.9,1,3.74,3.74,0,0,1,1.2,3V58.81h1C106.76,58.81,108.05,59.83,108.05,61.85Zm-12.83-3V51.2l-5.35,7.61Z"/><path d="M114.53,77.47a4.09,4.09,0,0,1-2.07.62,2.46,2.46,0,0,1-1.72-.64,2.27,2.27,0,0,1-.69-1.74,4.15,4.15,0,0,1,.31-1.54,41.13,41.13,0,0,0,2.19-7.55,45.12,45.12,0,0,0,.66-8,46.79,46.79,0,0,0-.66-8.08A38.7,38.7,0,0,0,110.36,43a4.15,4.15,0,0,1-.31-1.54,2.27,2.27,0,0,1,.69-1.74,2.52,2.52,0,0,1,1.76-.64,4,4,0,0,1,2,.62,5.43,5.43,0,0,1,1.8,1.8,29.59,29.59,0,0,1,5,17.12,29.71,29.71,0,0,1-5,17A5.43,5.43,0,0,1,114.53,77.47Z"/></svg>