<svg id="Layer_1" data-name="Layer 1" xmlns="http://www.w3.org/2000/svg" viewBox="0 0 130 130"><title>l13_3_1</title><path d="M130,65A65,65,0,1,1,65,0,65,65,0,0,1,130,65ZM68.47,58.49a17.88,17.88,0,0,0-7,1.26V51.14h15.3c4.11,0,6.17-1.64,6.17-4.9s-2.06-4.83-6.17-4.83h-22A6.08,6.08,0,0,0,50.33,43a6,6,0,0,0-1.56,4.48v19a3.8,3.8,0,0,0,1.35,3,5,5,0,0,0,3.33,1.16,6.89,6.89,0,0,0,3.19-.77,24.59,24.59,0,0,1,4.07-1.26,19.15,19.15,0,0,1,3.86-.35A8,8,0,0,1,70.1,70a6.19,6.19,0,0,1,2,4.9,6,6,0,0,1-1.92,4.93q-1.9,1.58-5.88,1.58a11.82,11.82,0,0,1-3.93-.63,39.82,39.82,0,0,1-4-1.68l-1.41-.7a19.61,19.61,0,0,0-2.13-1.05A4.76,4.76,0,0,0,51,77a3.7,3.7,0,0,0-3,1.5,5.73,5.73,0,0,0-1.2,3.68,5.16,5.16,0,0,0,.53,2.41,6.28,6.28,0,0,0,1.67,1.93,23.57,23.57,0,0,0,7.26,3.5,29.9,29.9,0,0,0,8.61,1.26,23.21,23.21,0,0,0,10.13-2.1,15.88,15.88,0,0,0,6.8-6,16.38,16.38,0,0,0,2.41-8.89,16.67,16.67,0,0,0-2-8.3,14.27,14.27,0,0,0-5.59-5.6A16.55,16.55,0,0,0,68.47,58.49Z"/></svg>