<svg id="Layer_1" data-name="Layer 1" xmlns="http://www.w3.org/2000/svg" viewBox="0 0 130 130"><title>l13_4_1</title><path d="M130,65.18a65,65,0,1,1-65-65A65,65,0,0,1,130,65.18Zm-80.31.35a11.26,11.26,0,0,0,7.66-11,12.13,12.13,0,0,0-2.16-7.14A13.92,13.92,0,0,0,49,42.64,23.74,23.74,0,0,0,39.77,41a28.68,28.68,0,0,0-8.39,1.26,23.61,23.61,0,0,0-7.19,3.5,5.69,5.69,0,0,0-1.71,1.89A5.43,5.43,0,0,0,22,50.06a5.73,5.73,0,0,0,1.2,3.68,3.7,3.7,0,0,0,3,1.5,4.69,4.69,0,0,0,1.77-.31q.78-.32,2.13-1l1.48-.7a38.58,38.58,0,0,1,3.87-1.68,10.76,10.76,0,0,1,3.72-.63,6.13,6.13,0,0,1,4.32,1.44,5.18,5.18,0,0,1,1.56,4,3.91,3.91,0,0,1-1.77,3.57c-1.18.75-3.08,1.12-5.67,1.12H34.46a4.06,4.06,0,0,0-3.33,1.47,5.67,5.67,0,0,0,0,7A4.06,4.06,0,0,0,34.46,71h4.39c2.7,0,4.63.4,5.81,1.19a4.38,4.38,0,0,1,1.77,3.92c0,2-.57,3.36-1.73,4.2S41.64,81.56,39,81.56A13.15,13.15,0,0,1,34.92,81a32.13,32.13,0,0,1-4.07-1.72L30,78.87l-.67-.32c-.9-.46-1.61-.8-2.13-1a4.69,4.69,0,0,0-1.77-.32,3.68,3.68,0,0,0-3,1.51,5.68,5.68,0,0,0-1.2,3.67,4.83,4.83,0,0,0,2.2,4.34,22.84,22.84,0,0,0,7.37,3.54,32,32,0,0,0,8.85,1.22,27,27,0,0,0,10-1.71,14.87,14.87,0,0,0,6.62-4.87,12.09,12.09,0,0,0,2.34-7.42,12.34,12.34,0,0,0-2.37-7.63A12,12,0,0,0,49.69,65.53Zm57.68,16.1L93.84,66.09,107.09,50.9a5.73,5.73,0,0,0,1.49-3.78A5.57,5.57,0,0,0,106.7,43a6.05,6.05,0,0,0-4.29-1.79,5.2,5.2,0,0,0-4.18,2.1l-11.9,14-12-14A5.59,5.59,0,0,0,70,41.17,6.05,6.05,0,0,0,65.74,43a5.56,5.56,0,0,0-1.87,4.16,5.73,5.73,0,0,0,1.55,3.78L78.67,66.09,65.07,81.63a5.75,5.75,0,0,0-1.49,3.78,5.68,5.68,0,0,0,1.88,4.2,5.93,5.93,0,0,0,4.22,1.82,5.53,5.53,0,0,0,4.25-2.1l12.4-14.42L98.52,89.33a5.57,5.57,0,0,0,4.32,2.1,6,6,0,0,0,4.21-1.78,5.55,5.55,0,0,0,1.88-4.17A5.67,5.67,0,0,0,107.37,81.63Z"/></svg>