<svg id="Layer_1" data-name="Layer 1" xmlns="http://www.w3.org/2000/svg" viewBox="0 0 130 130"><title>l13_1_1</title><path d="M119.12,108.79H34.49A14.65,14.65,0,0,1,24,103.85a14,14,0,0,1-3.13-7.42V10.67a10.55,10.55,0,0,0-21.09,0v98.12A20.85,20.85,0,0,0,5.93,124.2a20.7,20.7,0,0,0,14.92,5.64h98.27a10.53,10.53,0,1,0,0-21Z"/><path d="M29.06,58.64a29.66,29.66,0,0,1,5-17.12,5.62,5.62,0,0,1,1.81-1.82,3.85,3.85,0,0,1,2-.64,2.46,2.46,0,0,1,1.76.64,2.3,2.3,0,0,1,.69,1.78A4.15,4.15,0,0,1,40,43a38.66,38.66,0,0,0-2.18,7.54,46.76,46.76,0,0,0-.67,8.08,45.09,45.09,0,0,0,.67,8A41.07,41.07,0,0,0,40,74.17a4.15,4.15,0,0,1,.31,1.54,2.27,2.27,0,0,1-.69,1.74,2.5,2.5,0,0,1-1.76.64,4,4,0,0,1-2-.62A5.45,5.45,0,0,1,34,75.67,29.78,29.78,0,0,1,29.06,58.64Z"/><path d="M67,64.56a2.88,2.88,0,0,1,1,2.39,3,3,0,0,1-1,2.47,4.5,4.5,0,0,1-2.92.79H47.81a3.37,3.37,0,0,1-2.54-.95,3.24,3.24,0,0,1-.94-2.39,4.82,4.82,0,0,1,1.52-3.44l9.44-9.72c2-2,2.94-3.89,2.94-5.59a3,3,0,0,0-.87-2.29A3.57,3.57,0,0,0,54.89,45a7.24,7.24,0,0,0-2.38.38A23.16,23.16,0,0,0,50,46.49l-.89.44-.69.38a5.49,5.49,0,0,1-.92.42,2.89,2.89,0,0,1-.84.13,2.27,2.27,0,0,1-1.87-1,4.19,4.19,0,0,1-.47-3.94,2.92,2.92,0,0,1,1.09-1.14,17.21,17.21,0,0,1,4.7-2.2,17.57,17.57,0,0,1,5.14-.8A14.53,14.53,0,0,1,61,39.87,8.75,8.75,0,0,1,64.89,43a8.06,8.06,0,0,1,1.36,4.6,11.12,11.12,0,0,1-1.09,4.91,20.79,20.79,0,0,1-3.72,4.95l-6.33,6.38h9A4.57,4.57,0,0,1,67,64.56Z"/><path d="M78.29,63.35a5.89,5.89,0,0,1,1.23,4,12.29,12.29,0,0,1-3.7,8.89,2.13,2.13,0,0,1-1.56.66,2.28,2.28,0,0,1-1.56-.6A1.76,1.76,0,0,1,72,75a1.73,1.73,0,0,1,.58-1.27,8.87,8.87,0,0,0,2.13-3.52A4.2,4.2,0,0,1,72,69a3.76,3.76,0,0,1-1.07-2.75,4.15,4.15,0,0,1,1.21-3,4.26,4.26,0,0,1,6.16.18Z"/><path d="M104.44,57a7.77,7.77,0,0,1,1.49,4.79,7.62,7.62,0,0,1-1.47,4.67,9.3,9.3,0,0,1-4.16,3A16.89,16.89,0,0,1,94,70.56a20.09,20.09,0,0,1-5.57-.77,14.22,14.22,0,0,1-4.63-2.22,3.31,3.31,0,0,1-1.07-1.21,3.38,3.38,0,0,1-.32-1.52,3.61,3.61,0,0,1,.76-2.31A2.32,2.32,0,0,1,85,61.59a3,3,0,0,1,1.12.19c.32.14.77.35,1.33.64l.43.2.55.24A20.51,20.51,0,0,0,91,63.94a8.16,8.16,0,0,0,2.56.37,6.23,6.23,0,0,0,3.59-.79,3,3,0,0,0,1.09-2.64,2.75,2.75,0,0,0-1.11-2.46,6.74,6.74,0,0,0-3.65-.75H90.74a2.56,2.56,0,0,1-2.09-.92,3.56,3.56,0,0,1,0-4.4,2.54,2.54,0,0,1,2.09-.93h2a6.92,6.92,0,0,0,3.57-.7,2.47,2.47,0,0,0,1.11-2.25,3.3,3.3,0,0,0-1-2.53,3.86,3.86,0,0,0-2.72-.9,6.59,6.59,0,0,0-2.33.4,22.88,22.88,0,0,0-2.43,1.05l-.94.44a14.47,14.47,0,0,1-1.33.64,3,3,0,0,1-1.12.2,2.3,2.3,0,0,1-1.87-1,3.61,3.61,0,0,1-.76-2.31,3,3,0,0,1,1.39-2.72,14.53,14.53,0,0,1,4.52-2.2,17.92,17.92,0,0,1,5.27-.8,15,15,0,0,1,5.82,1.06,8.67,8.67,0,0,1,3.87,3,7.59,7.59,0,0,1,1.36,4.49,7.09,7.09,0,0,1-4.81,6.91A7.62,7.62,0,0,1,104.44,57Z"/><path d="M114.59,77.47a4,4,0,0,1-2.07.62,2.45,2.45,0,0,1-1.71-.64,2.27,2.27,0,0,1-.69-1.74,4.15,4.15,0,0,1,.31-1.54,40.31,40.31,0,0,0,2.18-7.55,44.16,44.16,0,0,0,.67-8,45.79,45.79,0,0,0-.67-8.08A38,38,0,0,0,110.43,43a4.15,4.15,0,0,1-.31-1.54,2.27,2.27,0,0,1,.69-1.74,2.5,2.5,0,0,1,1.76-.64,4,4,0,0,1,2,.62,5.45,5.45,0,0,1,1.81,1.8,29.67,29.67,0,0,1,5,17.12,29.78,29.78,0,0,1-5,17A5.45,5.45,0,0,1,114.59,77.47Z"/></svg>