<svg id="Layer_1" data-name="Layer 1" xmlns="http://www.w3.org/2000/svg" viewBox="0 0 130 130"><title>l13_4_1</title><path d="M130,65A65,65,0,1,1,65,0,65,65,0,0,1,130,65ZM55,41.41H27.23a7,7,0,0,0-4.67,1.29,4.86,4.86,0,0,0-1.49,3.89,4.73,4.73,0,0,0,1.45,3.78q1.45,1.26,4.71,1.26H45L26.74,82.36a6.49,6.49,0,0,0-1,3.36,5.1,5.1,0,0,0,1.92,4,6.52,6.52,0,0,0,4.39,1.65,6.1,6.1,0,0,0,3-.81,6.56,6.56,0,0,0,2.45-2.48L59,51.35a9,9,0,0,0,1.34-4.62,5.45,5.45,0,0,0-1.38-3.82A5.07,5.07,0,0,0,55,41.41Zm52.36,40L93.84,65.91l13.25-15.19a5.75,5.75,0,0,0,1.49-3.78,5.59,5.59,0,0,0-1.88-4.17A6,6,0,0,0,102.41,41a5.2,5.2,0,0,0-4.18,2.1l-11.9,14-12-14A5.59,5.59,0,0,0,70,41a6,6,0,0,0-4.29,1.78,5.59,5.59,0,0,0-1.88,4.17,5.79,5.79,0,0,0,1.56,3.78L78.67,65.91,65.07,81.45a5.59,5.59,0,0,0,.39,8,5.93,5.93,0,0,0,4.22,1.82,5.53,5.53,0,0,0,4.25-2.1l12.4-14.42L98.51,89.15a5.6,5.6,0,0,0,4.33,2.1,6,6,0,0,0,4.21-1.79,5.55,5.55,0,0,0,1.88-4.16A5.65,5.65,0,0,0,107.37,81.45Z"/></svg>