<svg id="Layer_1" data-name="Layer 1" xmlns="http://www.w3.org/2000/svg" viewBox="0 0 130 130"><title>l13_3_1</title><path d="M119.23,108.79H34.6a14.65,14.65,0,0,1-10.51-4.94A14,14,0,0,1,21,96.43V10.67a10.55,10.55,0,0,0-21.09,0v98.12A20.85,20.85,0,0,0,6,124.2,20.7,20.7,0,0,0,21,129.84h98.27a10.53,10.53,0,1,0,0-21Z"/><polygon points="74.73 58.14 74.73 47.76 67.45 58.14 74.73 58.14"/><path d="M73.88,6.11a47.7,47.7,0,1,0,47.71,47.7A47.7,47.7,0,0,0,73.88,6.11ZM86.94,66.54H85.61v2a5.25,5.25,0,0,1-1.52,4.08,5.64,5.64,0,0,1-4,1.38,5.53,5.53,0,0,1-3.92-1.38,5.3,5.3,0,0,1-1.49-4.08v-2H61.19a4.46,4.46,0,0,1-4.74-4.62,6.68,6.68,0,0,1,1.34-4L75.16,33.48a5.54,5.54,0,0,1,2.16-1.83A6.14,6.14,0,0,1,80,31a5.79,5.79,0,0,1,4,1.44,5.08,5.08,0,0,1,1.64,4V58.14h1.33q5.3,0,5.29,4.14T86.94,66.54Z"/></svg>