<svg id="Layer_1" data-name="Layer 1" xmlns="http://www.w3.org/2000/svg" viewBox="0 0 130 130"><title>l13_1_1</title><path d="M124.26,59.16H70.74V5.64a5.74,5.74,0,1,0-11.48,0V59.16H5.74a5.74,5.74,0,0,0,0,11.48H59.26v53.52a5.74,5.74,0,1,0,11.48,0V70.64h53.52a5.74,5.74,0,0,0,0-11.48Z"/><path d="M5.72,100.73q0-3.24,4-3.24h8.94a4.42,4.42,0,0,1,3,.85,3,3,0,0,1,1,2.39,3.06,3.06,0,0,1-1,2.42,4.36,4.36,0,0,1-3,.87H9.67C7,104,5.72,102.93,5.72,100.73Z"/><path d="M53.39,104.45q0,3.33-4.14,3.33h-1v1.6a4.12,4.12,0,0,1-1.19,3.2,4.44,4.44,0,0,1-3.09,1.08,4.32,4.32,0,0,1-3.07-1.08,4.15,4.15,0,0,1-1.17-3.2v-1.6H29.08a3.48,3.48,0,0,1-3.71-3.62,5.22,5.22,0,0,1,1.05-3.1L40,81.89a4.42,4.42,0,0,1,1.69-1.44A4.8,4.8,0,0,1,43.83,80a4.46,4.46,0,0,1,3.09,1.13,4,4,0,0,1,1.29,3.15v17h1Q53.39,101.2,53.39,104.45Zm-13.7-3.25V93.07L34,101.2Z"/><path d="M113.33,36.46q0,3.33-4.14,3.33h-1v1.6a4.09,4.09,0,0,1-1.19,3.2,4.41,4.41,0,0,1-3.09,1.08,4.34,4.34,0,0,1-3.07-1.08,4.14,4.14,0,0,1-1.16-3.2v-1.6H89a3.47,3.47,0,0,1-3.71-3.62,5.21,5.21,0,0,1,1-3.1L100,13.9a4.35,4.35,0,0,1,1.69-1.44,4.8,4.8,0,0,1,2.12-.49,4.55,4.55,0,0,1,3.09,1.13,4,4,0,0,1,1.28,3.15v17h1Q113.33,33.21,113.33,36.46Zm-13.7-3.25V25.08l-5.71,8.13Z"/><circle cx="98.96" cy="95.86" r="15.68"/><circle cx="30.16" cy="29.7" r="15.68"/></svg>