<svg id="Layer_1" data-name="Layer 1" xmlns="http://www.w3.org/2000/svg" viewBox="0 0 130 130"><title>l13_2_13</title><circle cx="93.66" cy="36.29" r="17.19"/><circle cx="100.45" cy="101.72" r="17.19"/><circle cx="25.81" cy="27.28" r="17.19"/><path d="M130,36.29A36.29,36.29,0,1,1,93.66,0,36.29,36.29,0,0,1,130,36.29ZM93.67,13.09a23.21,23.21,0,1,0,23.2,23.2A23.21,23.21,0,0,0,93.67,13.09Z"/><circle cx="36.29" cy="93.71" r="17.19"/><path d="M72.58,93.71A36.29,36.29,0,1,1,36.29,57.42,36.29,36.29,0,0,1,72.58,93.71ZM36.29,70.51A23.21,23.21,0,1,0,59.5,93.71,23.2,23.2,0,0,0,36.29,70.51Z"/></svg>