<svg id="Layer_1" data-name="Layer 1" xmlns="http://www.w3.org/2000/svg" viewBox="0 0 130 130"><title>l13_4_1</title><path d="M130,65.18a65,65,0,1,1-65-65A65,65,0,0,1,130,65.18ZM55.93,72.81H54.37V47.54a5.92,5.92,0,0,0-1.91-4.69,6.75,6.75,0,0,0-4.61-1.68,7.14,7.14,0,0,0-3.15.74A6.49,6.49,0,0,0,42.18,44L21.92,72.6a7.79,7.79,0,0,0-1.56,4.62,5.28,5.28,0,0,0,1.49,3.85,5.34,5.34,0,0,0,4,1.54h15.8V85a6.2,6.2,0,0,0,1.73,4.76A6.47,6.47,0,0,0,48,91.36a6.61,6.61,0,0,0,4.61-1.61A6.11,6.11,0,0,0,54.37,85V82.61h1.56q6.16,0,6.16-5T55.93,72.81Zm-22.75,0L41.69,60.7V72.81Zm74.19,8.82L93.84,66.09,107.09,50.9a5.73,5.73,0,0,0,1.49-3.78A5.57,5.57,0,0,0,106.7,43a6.05,6.05,0,0,0-4.29-1.79,5.2,5.2,0,0,0-4.18,2.1l-11.9,14-12-14A5.59,5.59,0,0,0,70,41.17,6.05,6.05,0,0,0,65.74,43a5.56,5.56,0,0,0-1.87,4.16,5.73,5.73,0,0,0,1.55,3.78L78.67,66.09,65.07,81.63a5.75,5.75,0,0,0-1.49,3.78,5.68,5.68,0,0,0,1.88,4.2,5.93,5.93,0,0,0,4.22,1.82,5.53,5.53,0,0,0,4.25-2.1l12.4-14.42L98.52,89.33a5.57,5.57,0,0,0,4.32,2.1,6,6,0,0,0,4.21-1.78,5.55,5.55,0,0,0,1.88-4.17A5.67,5.67,0,0,0,107.37,81.63Z"/></svg>