<svg id="Layer_1" data-name="Layer 1" xmlns="http://www.w3.org/2000/svg" viewBox="0 0 130 130"><title>l13_4_1</title><path d="M127.07,95.91Q104.39,55.79,81,16.05c-7.78-13.24-24.8-12.94-32.51.34Q25.57,55.86,2.9,95.49c-7.74,13.57.8,28.16,16.34,28.21,15.07,0,30.14,0,45.21,0,15.37,0,30.74,0,46.11,0S134.66,109.34,127.07,95.91Zm-67.15,6.54a6.13,6.13,0,0,1-4,1.08H33.78a4.62,4.62,0,0,1-3.47-1.29A4.43,4.43,0,0,1,29,99a6.58,6.58,0,0,1,2.06-4.69L44,81q4-4.14,4-7.62a4,4,0,0,0-1.19-3.12,4.82,4.82,0,0,0-3.37-1.08,10,10,0,0,0-3.25.52,31.68,31.68,0,0,0-3.43,1.46l-1.21.6-.94.51a6.89,6.89,0,0,1-1.25.57,3.64,3.64,0,0,1-1.15.18,3.06,3.06,0,0,1-2.55-1.35,5.13,5.13,0,0,1-1-3.21,5.05,5.05,0,0,1,.4-2.16,4,4,0,0,1,1.49-1.56,23.69,23.69,0,0,1,6.4-3,24.06,24.06,0,0,1,7-1.08,19.9,19.9,0,0,1,7.89,1.47,12,12,0,0,1,5.26,4.2,11,11,0,0,1,1.85,6.27,15,15,0,0,1-1.49,6.69,27.63,27.63,0,0,1-5.07,6.75l-8.62,8.7H56a6.32,6.32,0,0,1,4,1,4,4,0,0,1,1.31,3.27A4.1,4.1,0,0,1,59.92,102.45Zm41.67,0A5.12,5.12,0,0,1,98,104a4.76,4.76,0,0,1-3.7-1.8L83.82,89.79,73.19,102.15a4.69,4.69,0,0,1-3.64,1.8,5,5,0,0,1-3.61-1.55,4.87,4.87,0,0,1-1.61-3.61,4.94,4.94,0,0,1,1.27-3.24L77.26,82.23l-11.35-13a4.68,4.68,0,0,1,.27-6.81,5.18,5.18,0,0,1,3.67-1.53,4.84,4.84,0,0,1,3.71,1.8l10.26,12L94,62.67a4.46,4.46,0,0,1,3.58-1.8,5.17,5.17,0,0,1,3.67,1.53A4.78,4.78,0,0,1,102.89,66a4.86,4.86,0,0,1-1.27,3.23l-11.36,13,11.6,13.32a4.89,4.89,0,0,1,1.34,3.31A4.77,4.77,0,0,1,101.59,102.42Z"/></svg>