<svg id="Layer_1" data-name="Layer 1" xmlns="http://www.w3.org/2000/svg" viewBox="0 0 130 130"><title>l13_3_1</title><path d="M119.52,108.32H34.89a14.68,14.68,0,0,1-10.51-4.95A14,14,0,0,1,21.25,96V10.19a10.55,10.55,0,0,0-21.09,0v98.13a20.86,20.86,0,0,0,6.17,15.41,20.8,20.8,0,0,0,14.92,5.64h98.27a10.53,10.53,0,1,0,0-21.05Z"/><path d="M121.88,53.33a47.71,47.71,0,1,1-47.7-47.7A47.7,47.7,0,0,1,121.88,53.33ZM87.05,64.44h-5V36a5.18,5.18,0,0,0-1.49-3.9,5.39,5.39,0,0,0-3.91-1.44,10.41,10.41,0,0,0-5,1.5l-9.71,5.58a4.06,4.06,0,0,0-2.13,3.72A5,5,0,0,0,61,44.73a3.66,3.66,0,0,0,2.91,1.47A4.2,4.2,0,0,0,66,45.6l4.86-2.82V64.44H66a6.12,6.12,0,0,0-4,1.08,4,4,0,0,0-1.28,3.24q0,4.44,5.29,4.44H87.05c3.52,0,5.29-1.48,5.29-4.44a4,4,0,0,0-1.28-3.24A6.14,6.14,0,0,0,87.05,64.44Z"/></svg>