<svg id="Layer_1" data-name="Layer 1" xmlns="http://www.w3.org/2000/svg" viewBox="0 0 130 130"><title>l13_4_1</title><path d="M130,65.18a65,65,0,1,1-65-65A65,65,0,0,1,130,65.18ZM53.84,80.72H39.6L49.66,70.57a32.86,32.86,0,0,0,5.92-7.87,17.58,17.58,0,0,0,1.73-7.81,12.71,12.71,0,0,0-2.16-7.31A13.7,13.7,0,0,0,49,42.68,22.9,22.9,0,0,0,39.81,41a29.13,29.13,0,0,0-15.66,4.76,4.72,4.72,0,0,0-1.74,1.82A6,6,0,0,0,22,50.06a6,6,0,0,0,1.21,3.75,3.61,3.61,0,0,0,3,1.57,4.24,4.24,0,0,0,1.35-.21,8.42,8.42,0,0,0,1.45-.66l1.1-.6,1.42-.7a34.06,34.06,0,0,1,4-1.71,11.54,11.54,0,0,1,3.79-.6,5.67,5.67,0,0,1,3.94,1.26,4.69,4.69,0,0,1,1.38,3.64q0,4.06-4.68,8.89l-15,15.47a7.61,7.61,0,0,0-2.41,5.46,5.23,5.23,0,0,0,1.49,3.82,5.43,5.43,0,0,0,4,1.5H53.84a7.18,7.18,0,0,0,4.64-1.26A4.79,4.79,0,0,0,60,85.76,4.57,4.57,0,0,0,58.48,82,7.31,7.31,0,0,0,53.84,80.72Zm53.57.91L93.88,66.09,107.13,50.9a5.73,5.73,0,0,0,1.49-3.78A5.57,5.57,0,0,0,106.74,43a6.05,6.05,0,0,0-4.29-1.79,5.19,5.19,0,0,0-4.18,2.1l-11.9,14-12-14a5.59,5.59,0,0,0-4.32-2.1A6.05,6.05,0,0,0,65.78,43a5.57,5.57,0,0,0-1.88,4.16,5.75,5.75,0,0,0,1.56,3.78L78.71,66.09,65.11,81.63a5.75,5.75,0,0,0-1.49,3.78,5.65,5.65,0,0,0,1.88,4.2,5.91,5.91,0,0,0,4.21,1.82A5.51,5.51,0,0,0,74,89.33L86.37,74.91,98.55,89.33a5.59,5.59,0,0,0,4.32,2.1,6,6,0,0,0,4.22-1.78A5.59,5.59,0,0,0,109,85.48,5.67,5.67,0,0,0,107.41,81.63Z"/></svg>