<svg id="Layer_1" data-name="Layer 1" xmlns="http://www.w3.org/2000/svg" viewBox="0 0 130 130"><title>l13_1_1</title><path d="M119.41,108.79H34.79a14.62,14.62,0,0,1-10.51-4.94,14,14,0,0,1-3.14-7.42V10.67a10.54,10.54,0,0,0-21.08,0v98.12A20.83,20.83,0,0,0,6.22,124.2a20.7,20.7,0,0,0,14.92,5.64h98.27a10.53,10.53,0,1,0,0-21Z"/><path d="M29.37,58.64a29.59,29.59,0,0,1,5-17.12,5.5,5.5,0,0,1,1.8-1.82,3.88,3.88,0,0,1,2-.64A2.48,2.48,0,0,1,40,39.7a2.3,2.3,0,0,1,.69,1.78A4.36,4.36,0,0,1,40.33,43a38.7,38.7,0,0,0-2.19,7.54,46.79,46.79,0,0,0-.66,8.08,45.12,45.12,0,0,0,.66,8,41.13,41.13,0,0,0,2.19,7.55,4.36,4.36,0,0,1,.31,1.54A2.27,2.27,0,0,1,40,77.45a2.52,2.52,0,0,1-1.76.64,4,4,0,0,1-2-.62,5.34,5.34,0,0,1-1.8-1.8A29.71,29.71,0,0,1,29.37,58.64Z"/><path d="M69.55,61.85c0,2.08-1.3,3.12-3.88,3.12h-1v1.5a3.84,3.84,0,0,1-1.11,3,4.13,4.13,0,0,1-2.9,1,4,4,0,0,1-2.87-1,3.86,3.86,0,0,1-1.09-3V65H46.78a3.26,3.26,0,0,1-3.47-3.38,4.92,4.92,0,0,1,1-2.91L57,40.73a4,4,0,0,1,1.58-1.34,4.49,4.49,0,0,1,2-.46,4.26,4.26,0,0,1,2.9,1,3.74,3.74,0,0,1,1.2,3V58.81h1C68.25,58.81,69.55,59.83,69.55,61.85Zm-12.83-3V51.2l-5.35,7.61Z"/><path d="M78.56,63.35a5.89,5.89,0,0,1,1.23,4,12.29,12.29,0,0,1-3.7,8.89,2.13,2.13,0,0,1-1.56.66A2.28,2.28,0,0,1,73,76.3,1.76,1.76,0,0,1,72.31,75a1.73,1.73,0,0,1,.58-1.27A8.87,8.87,0,0,0,75,70.17,4.2,4.2,0,0,1,72.26,69a3.76,3.76,0,0,1-1.07-2.75,4.18,4.18,0,0,1,1.2-3,4.27,4.27,0,0,1,6.17.18Z"/><path d="M102.26,51.18a9,9,0,0,1,3.52,3.52,10.55,10.55,0,0,1,1.27,5.21,10.29,10.29,0,0,1-1.52,5.59,9.94,9.94,0,0,1-4.27,3.74,14.62,14.62,0,0,1-6.37,1.32,18.69,18.69,0,0,1-5.41-.79,14.82,14.82,0,0,1-4.57-2.2,4,4,0,0,1-1-1.21,3.25,3.25,0,0,1-.33-1.52,3.55,3.55,0,0,1,.76-2.31,2.3,2.3,0,0,1,1.87-.94,3.24,3.24,0,0,1,1.11.17c.3.12.74.34,1.34.66l.89.44c.92.44,1.76.79,2.51,1.06a7.63,7.63,0,0,0,2.48.39,5.73,5.73,0,0,0,3.69-1,3.76,3.76,0,0,0,1.21-3.1,3.91,3.91,0,0,0-1.25-3.08A5.09,5.09,0,0,0,94.67,56a12.82,12.82,0,0,0-2.43.22,16.29,16.29,0,0,0-2.56.79,4.24,4.24,0,0,1-2,.49,3.06,3.06,0,0,1-2.09-.73,2.37,2.37,0,0,1-.85-1.91V43a3.78,3.78,0,0,1,1-2.81,3.82,3.82,0,0,1,2.81-1h13.81q3.87,0,3.87,3t-3.87,3.08H92.71v5.41a11.17,11.17,0,0,1,4.41-.79A10.33,10.33,0,0,1,102.26,51.18Z"/><path d="M114.86,77.47a4,4,0,0,1-2.07.62,2.45,2.45,0,0,1-1.71-.64,2.27,2.27,0,0,1-.69-1.74,4.15,4.15,0,0,1,.31-1.54,40.31,40.31,0,0,0,2.18-7.55,44.16,44.16,0,0,0,.67-8,45.79,45.79,0,0,0-.67-8.08A38,38,0,0,0,110.7,43a4.15,4.15,0,0,1-.31-1.54,2.27,2.27,0,0,1,.69-1.74,2.5,2.5,0,0,1,1.76-.64,4,4,0,0,1,2,.62,5.45,5.45,0,0,1,1.81,1.8,29.67,29.67,0,0,1,5,17.12,29.78,29.78,0,0,1-5,17A5.45,5.45,0,0,1,114.86,77.47Z"/></svg>