<svg id="Layer_1" data-name="Layer 1" xmlns="http://www.w3.org/2000/svg" viewBox="0 0 130 130"><title>l13_3_1</title><path d="M107.08,112.65H22.92A22.92,22.92,0,0,1,0,89.73V40.27A22.92,22.92,0,0,1,22.92,17.35h84.16A22.92,22.92,0,0,1,130,40.27V89.73A22.92,22.92,0,0,1,107.08,112.65ZM80,79.3H74.21V46.12a6.07,6.07,0,0,0-1.73-4.55,6.32,6.32,0,0,0-4.58-1.68A12.17,12.17,0,0,0,62,41.64L50.69,48.15a4.73,4.73,0,0,0-2.48,4.34,5.89,5.89,0,0,0,1.41,3.82A4.29,4.29,0,0,0,53,58a4.84,4.84,0,0,0,2.48-.7L61.17,54V79.3H55.43a7.14,7.14,0,0,0-4.67,1.26,4.68,4.68,0,0,0-1.49,3.78c0,3.46,2,5.18,6.16,5.18H80c4.11,0,6.17-1.72,6.17-5.18a4.68,4.68,0,0,0-1.49-3.78A7.15,7.15,0,0,0,80,79.3Z"/></svg>