<svg id="Layer_1" data-name="Layer 1" xmlns="http://www.w3.org/2000/svg" viewBox="0 0 130 130"><title>l13_1_1</title><path d="M124.26,59.16H70.74V5.64a5.74,5.74,0,1,0-11.48,0V59.16H5.74a5.74,5.74,0,0,0,0,11.48H59.26v53.52a5.74,5.74,0,1,0,11.48,0V70.64h53.52a5.74,5.74,0,0,0,0-11.48Z"/><path d="M5.72,100.73q0-3.24,4-3.24h8.94a4.42,4.42,0,0,1,3,.85,3,3,0,0,1,1,2.39,3.06,3.06,0,0,1-1,2.42,4.36,4.36,0,0,1-3,.87H9.67C7,104,5.72,102.93,5.72,100.73Z"/><path d="M49.47,99.23a8.28,8.28,0,0,1,1.59,5.12,8.1,8.1,0,0,1-1.57,5A10,10,0,0,1,45,112.6a18,18,0,0,1-6.73,1.15,21.37,21.37,0,0,1-6-.82,15.42,15.42,0,0,1-4.94-2.37,3.82,3.82,0,0,1-1.15-1.3,3.66,3.66,0,0,1-.33-1.62,3.84,3.84,0,0,1,.81-2.47,2.49,2.49,0,0,1,2-1,3.19,3.19,0,0,1,1.19.21c.35.15.82.37,1.43.69l.45.21.59.26a22.41,22.41,0,0,0,2.74,1.15,8.9,8.9,0,0,0,2.73.4,6.59,6.59,0,0,0,3.83-.85,3.23,3.23,0,0,0,1.17-2.82,2.94,2.94,0,0,0-1.19-2.63,7.23,7.23,0,0,0-3.9-.8H34.84a2.74,2.74,0,0,1-2.24-1,3.57,3.57,0,0,1-.81-2.35,3.61,3.61,0,0,1,.81-2.35,2.76,2.76,0,0,1,2.24-1h2.09a7.28,7.28,0,0,0,3.81-.76,2.63,2.63,0,0,0,1.19-2.39,3.51,3.51,0,0,0-1-2.71,4.13,4.13,0,0,0-2.9-1,7.33,7.33,0,0,0-2.5.42A27.36,27.36,0,0,0,32.89,88l-1,.47a14.84,14.84,0,0,1-1.43.68,3,3,0,0,1-1.19.22,2.49,2.49,0,0,1-2-1,3.84,3.84,0,0,1-.8-2.47,3.67,3.67,0,0,1,.33-1.65A3.78,3.78,0,0,1,27.94,83a16,16,0,0,1,4.83-2.35,19.37,19.37,0,0,1,5.64-.84A15.85,15.85,0,0,1,44.62,81a9.28,9.28,0,0,1,4.14,3.19,8.2,8.2,0,0,1,1.45,4.8,7.6,7.6,0,0,1-5.14,7.38A8.07,8.07,0,0,1,49.47,99.23Z"/><path d="M109.4,31.24a8.23,8.23,0,0,1,1.6,5.12,8.17,8.17,0,0,1-1.57,5A10,10,0,0,1,105,44.61a18,18,0,0,1-6.73,1.15,21.27,21.27,0,0,1-6-.82,15.58,15.58,0,0,1-5-2.37,3.3,3.3,0,0,1-1.47-2.92,3.79,3.79,0,0,1,.81-2.46,2.44,2.44,0,0,1,2-1,3,3,0,0,1,1.19.22,14.84,14.84,0,0,1,1.43.68l.45.21.6.26a21.7,21.7,0,0,0,2.73,1.15,8.63,8.63,0,0,0,2.74.4,6.63,6.63,0,0,0,3.83-.85,3.23,3.23,0,0,0,1.16-2.82,2.93,2.93,0,0,0-1.18-2.63,7.3,7.3,0,0,0-3.91-.8h-3a2.72,2.72,0,0,1-2.23-1,3.57,3.57,0,0,1-.81-2.35,3.61,3.61,0,0,1,.81-2.35,2.74,2.74,0,0,1,2.23-1h2.1a7.35,7.35,0,0,0,3.8-.75,2.62,2.62,0,0,0,1.19-2.4,3.5,3.5,0,0,0-1-2.7,4.11,4.11,0,0,0-2.91-1,7,7,0,0,0-2.49.43,24.84,24.84,0,0,0-2.6,1.12l-1,.47a14.89,14.89,0,0,1-1.42.68,3,3,0,0,1-1.19.22,2.47,2.47,0,0,1-2-1,3.84,3.84,0,0,1-.81-2.47,3.67,3.67,0,0,1,.33-1.65A4,4,0,0,1,87.88,15a16,16,0,0,1,4.82-2.35,19.47,19.47,0,0,1,5.64-.84A15.78,15.78,0,0,1,104.55,13a9.28,9.28,0,0,1,4.14,3.19,8.13,8.13,0,0,1,1.45,4.8A7.57,7.57,0,0,1,105,28.33,8.07,8.07,0,0,1,109.4,31.24Z"/><circle cx="98.96" cy="95.86" r="15.68"/><circle cx="30.16" cy="29.7" r="15.68"/></svg>