<svg id="Layer_1" data-name="Layer 1" xmlns="http://www.w3.org/2000/svg" viewBox="0 0 130 130"><title>l13_4_1</title><path d="M107.08,130H22.92A22.92,22.92,0,0,1,0,107.08V22.92A22.92,22.92,0,0,1,22.92,0h84.16A22.92,22.92,0,0,1,130,22.92v84.16A22.92,22.92,0,0,1,107.08,130ZM55,39.58H27.23a7,7,0,0,0-4.67,1.29,4.86,4.86,0,0,0-1.49,3.89,4.73,4.73,0,0,0,1.45,3.78Q24,49.8,27.23,49.8H45L26.74,80.53a6.49,6.49,0,0,0-1,3.36,5.08,5.08,0,0,0,1.92,4,6.52,6.52,0,0,0,4.39,1.65,6.1,6.1,0,0,0,3-.81,6.56,6.56,0,0,0,2.45-2.48L59,49.52a8.9,8.9,0,0,0,1.34-4.62,5.45,5.45,0,0,0-1.38-3.82A5.07,5.07,0,0,0,55,39.58Zm52.36,40L93.84,64.08l13.25-15.19a5.75,5.75,0,0,0,1.49-3.78,5.59,5.59,0,0,0-1.88-4.17,6,6,0,0,0-4.29-1.78,5.2,5.2,0,0,0-4.18,2.1l-11.9,14-12-14A5.59,5.59,0,0,0,70,39.16a6,6,0,0,0-4.29,1.78,5.58,5.58,0,0,0-1.87,4.17,5.73,5.73,0,0,0,1.55,3.78L78.67,64.08,65.07,79.62a5.75,5.75,0,0,0-1.49,3.78,5.68,5.68,0,0,0,1.88,4.2,5.93,5.93,0,0,0,4.22,1.82,5.53,5.53,0,0,0,4.25-2.1L86.33,72.9,98.52,87.32a5.57,5.57,0,0,0,4.32,2.1,6,6,0,0,0,4.21-1.79,5.53,5.53,0,0,0,1.88-4.16A5.67,5.67,0,0,0,107.37,79.62Z"/></svg>