<svg id="Layer_1" data-name="Layer 1" xmlns="http://www.w3.org/2000/svg" viewBox="0 0 130 130"><title>l13_1_1</title><path d="M119.41,108.79H34.79a14.62,14.62,0,0,1-10.51-4.94,14,14,0,0,1-3.14-7.42V10.67a10.54,10.54,0,0,0-21.08,0v98.12A20.83,20.83,0,0,0,6.22,124.2a20.7,20.7,0,0,0,14.92,5.64h98.27a10.53,10.53,0,1,0,0-21Z"/><path d="M29.37,58.64a29.59,29.59,0,0,1,5-17.12,5.5,5.5,0,0,1,1.8-1.82,3.88,3.88,0,0,1,2-.64A2.48,2.48,0,0,1,40,39.7a2.3,2.3,0,0,1,.69,1.78A4.36,4.36,0,0,1,40.33,43a38,38,0,0,0-2.18,7.54,45.79,45.79,0,0,0-.67,8.08,44.24,44.24,0,0,0,.67,8,40.31,40.31,0,0,0,2.18,7.55,4.36,4.36,0,0,1,.31,1.54A2.27,2.27,0,0,1,40,77.45a2.52,2.52,0,0,1-1.76.64,4,4,0,0,1-2-.62,5.34,5.34,0,0,1-1.8-1.8A29.71,29.71,0,0,1,29.37,58.64Z"/><path d="M63.58,51.09a9.22,9.22,0,0,1,3.36,3.61,11.68,11.68,0,0,1-.18,10.74,9.83,9.83,0,0,1-3.9,3.8,11.55,11.55,0,0,1-5.65,1.37q-6.28,0-9.71-4T44.07,55a21.18,21.18,0,0,1,1.62-8.6,12.93,12.93,0,0,1,4.59-5.66,12.18,12.18,0,0,1,6.93-2,17.46,17.46,0,0,1,5.1.8,14,14,0,0,1,4.47,2.2A3.71,3.71,0,0,1,67.87,43a3.13,3.13,0,0,1,.34,1.54,3.51,3.51,0,0,1-.78,2.31,2.35,2.35,0,0,1-1.89,1,3,3,0,0,1-1.12-.2,14.47,14.47,0,0,1-1.33-.64l-1-.48c-1-.47-1.8-.82-2.45-1.06a6.18,6.18,0,0,0-2-.35,4.27,4.27,0,0,0-3.68,2.05,11.66,11.66,0,0,0-1.67,5.74A7.09,7.09,0,0,1,55,50.61a8.74,8.74,0,0,1,3.77-.82A9.15,9.15,0,0,1,63.58,51.09Zm-4.1,12.17a5.11,5.11,0,0,0,0-6.1,4,4,0,0,0-5.57,0,4.34,4.34,0,0,0-1,3,4.28,4.28,0,0,0,1.07,3,3.59,3.59,0,0,0,2.76,1.16A3.52,3.52,0,0,0,59.48,63.26Z"/><path d="M78.56,63.35a5.89,5.89,0,0,1,1.23,4,12.31,12.31,0,0,1-3.7,8.89,2.13,2.13,0,0,1-1.56.66A2.28,2.28,0,0,1,73,76.3,1.76,1.76,0,0,1,72.31,75a1.73,1.73,0,0,1,.58-1.27A8.87,8.87,0,0,0,75,70.17,4.24,4.24,0,0,1,72.26,69a3.76,3.76,0,0,1-1.07-2.75,4.15,4.15,0,0,1,1.21-3,4.26,4.26,0,0,1,6.16.18Z"/><path d="M106.4,40.14a3.4,3.4,0,0,1,.87,2.39,5.53,5.53,0,0,1-.85,2.91L92.93,68.54a4.19,4.19,0,0,1-1.54,1.56,3.83,3.83,0,0,1-1.89.51,4.11,4.11,0,0,1-2.76-1A3.22,3.22,0,0,1,85.53,67a4.09,4.09,0,0,1,.63-2.11L97.6,45.61H86.47a4.46,4.46,0,0,1-3-.79,3,3,0,0,1-.92-2.37A3.1,3.1,0,0,1,83.53,40a4.41,4.41,0,0,1,2.94-.81h17.46A3.19,3.19,0,0,1,106.4,40.14Z"/><path d="M114.86,77.47a4,4,0,0,1-2.07.62,2.45,2.45,0,0,1-1.71-.64,2.27,2.27,0,0,1-.69-1.74,4.15,4.15,0,0,1,.31-1.54,40.31,40.31,0,0,0,2.18-7.55,44.24,44.24,0,0,0,.67-8,45.79,45.79,0,0,0-.67-8.08A38,38,0,0,0,110.7,43a4.15,4.15,0,0,1-.31-1.54,2.27,2.27,0,0,1,.69-1.74,2.5,2.5,0,0,1,1.76-.64,4,4,0,0,1,2,.62,5.45,5.45,0,0,1,1.81,1.8,29.67,29.67,0,0,1,5,17.12,29.78,29.78,0,0,1-5,17A5.45,5.45,0,0,1,114.86,77.47Z"/></svg>