<svg id="Layer_1" data-name="Layer 1" xmlns="http://www.w3.org/2000/svg" viewBox="0 0 130 130"><title>l13_3_1</title><path d="M107.12,130H23A22.93,22.93,0,0,1,0,107.08V22.92A22.93,22.93,0,0,1,23,0h84.15A22.92,22.92,0,0,1,130,22.92v84.16A22.92,22.92,0,0,1,107.12,130ZM78.19,78.71H64L74,68.56a32.69,32.69,0,0,0,5.92-7.88,17.51,17.51,0,0,0,1.73-7.8,12.76,12.76,0,0,0-2.16-7.32,13.84,13.84,0,0,0-6.13-4.9A23.11,23.11,0,0,0,64.16,39,29.13,29.13,0,0,0,48.5,43.71a4.72,4.72,0,0,0-1.74,1.82,6,6,0,0,0-.46,2.52,5.93,5.93,0,0,0,1.21,3.74,3.62,3.62,0,0,0,3,1.58,4.33,4.33,0,0,0,1.35-.21,8.14,8.14,0,0,0,1.45-.67c.54-.3.91-.5,1.1-.59l1.42-.7a34.3,34.3,0,0,1,4-1.72,11.81,11.81,0,0,1,3.79-.59,5.62,5.62,0,0,1,3.93,1.26,4.65,4.65,0,0,1,1.39,3.64q0,4.07-4.68,8.89l-15,15.47a7.6,7.6,0,0,0-2.41,5.46,5.15,5.15,0,0,0,1.49,3.81,5.38,5.38,0,0,0,4,1.51H78.19a7.18,7.18,0,0,0,4.64-1.26,4.79,4.79,0,0,0,1.52-3.92,4.6,4.6,0,0,0-1.52-3.82A7.37,7.37,0,0,0,78.19,78.71Z"/></svg>