<svg id="Layer_1" data-name="Layer 1" xmlns="http://www.w3.org/2000/svg" viewBox="0 0 130 130"><title>l13_4_1</title><path d="M107.08,130H22.92A22.92,22.92,0,0,1,0,107.08V22.92A22.92,22.92,0,0,1,22.92,0h84.16A22.92,22.92,0,0,1,130,22.92v84.16A22.92,22.92,0,0,1,107.08,130ZM45,56.45a13.82,13.82,0,0,0-6,1.29,11.34,11.34,0,0,0-4.36,3.54q.42-5.88,2.66-9.14a6.8,6.8,0,0,1,5.84-3.25,9.63,9.63,0,0,1,3.26.56,41.47,41.47,0,0,1,3.9,1.68l1.56.77c.9.47,1.61.8,2.13,1a4.69,4.69,0,0,0,1.77.32,3.76,3.76,0,0,0,3-1.51A5.6,5.6,0,0,0,60,48.05a5.14,5.14,0,0,0-.53-2.45,6.3,6.3,0,0,0-1.74-1.89,22.76,22.76,0,0,0-7.12-3.5A27.8,27.8,0,0,0,42.47,39a19.35,19.35,0,0,0-11,3.15,20.44,20.44,0,0,0-7.3,9,33.51,33.51,0,0,0-2.59,13.69q0,11.89,5.46,18.34t15.45,6.44a18.44,18.44,0,0,0,9-2.17,15.78,15.78,0,0,0,6.2-6.06A18.51,18.51,0,0,0,58,64.25a14.33,14.33,0,0,0-13-7.8ZM41.69,79.69a5.7,5.7,0,0,1-4.4-1.86,7.71,7.71,0,0,1,0-9.62,5.72,5.72,0,0,1,4.43-1.82,5.64,5.64,0,0,1,4.43,1.78A7.07,7.07,0,0,1,47.71,73a6.94,6.94,0,0,1-1.63,4.83A5.62,5.62,0,0,1,41.69,79.69Zm65.68-.07L93.84,64.08l13.25-15.19a5.75,5.75,0,0,0,1.49-3.78,5.59,5.59,0,0,0-1.88-4.17,6,6,0,0,0-4.29-1.78,5.2,5.2,0,0,0-4.18,2.1l-11.9,14-12-14A5.59,5.59,0,0,0,70,39.16a6,6,0,0,0-4.29,1.78,5.58,5.58,0,0,0-1.87,4.17,5.73,5.73,0,0,0,1.55,3.78L78.67,64.08,65.07,79.62a5.75,5.75,0,0,0-1.49,3.78,5.68,5.68,0,0,0,1.88,4.2,5.93,5.93,0,0,0,4.22,1.82,5.53,5.53,0,0,0,4.25-2.1L86.33,72.9,98.52,87.32a5.57,5.57,0,0,0,4.32,2.1,6,6,0,0,0,4.21-1.79,5.53,5.53,0,0,0,1.88-4.16A5.67,5.67,0,0,0,107.37,79.62Z"/></svg>