<svg id="Layer_1" data-name="Layer 1" xmlns="http://www.w3.org/2000/svg" viewBox="0 0 130 130"><title>l13_3_1</title><path d="M130,65A65,65,0,1,1,65,0,65,65,0,0,1,130,65ZM80,80.54H74.21V47.36a6.05,6.05,0,0,0-1.73-4.55,6.31,6.31,0,0,0-4.57-1.68A12.06,12.06,0,0,0,62,42.88L50.69,49.39a4.72,4.72,0,0,0-2.48,4.34,5.84,5.84,0,0,0,1.41,3.81A4.27,4.27,0,0,0,53,59.26a4.93,4.93,0,0,0,2.48-.7l5.67-3.29V80.54H55.43a7.14,7.14,0,0,0-4.67,1.26,4.68,4.68,0,0,0-1.49,3.78q0,5.17,6.16,5.18H80q6.17,0,6.17-5.18A4.68,4.68,0,0,0,84.7,81.8,7.15,7.15,0,0,0,80,80.54Z"/></svg>