<svg id="Layer_1" data-name="Layer 1" xmlns="http://www.w3.org/2000/svg" viewBox="0 0 130 130"><title>l13_1_1</title><path d="M119.41,108.79H34.79a14.62,14.62,0,0,1-10.51-4.94,14,14,0,0,1-3.14-7.42V10.67a10.54,10.54,0,0,0-21.08,0v98.12A20.83,20.83,0,0,0,6.22,124.2a20.7,20.7,0,0,0,14.92,5.64h98.27a10.53,10.53,0,1,0,0-21Z"/><path d="M27,58.64a29.59,29.59,0,0,1,5-17.12,5.5,5.5,0,0,1,1.8-1.82,3.86,3.86,0,0,1,2-.64,2.48,2.48,0,0,1,1.76.64,2.3,2.3,0,0,1,.69,1.78A4.36,4.36,0,0,1,38,43a38.7,38.7,0,0,0-2.19,7.54,46.79,46.79,0,0,0-.66,8.08,45.12,45.12,0,0,0,.66,8A41.13,41.13,0,0,0,38,74.17a4.36,4.36,0,0,1,.31,1.54,2.27,2.27,0,0,1-.69,1.74,2.52,2.52,0,0,1-1.76.64,4,4,0,0,1-2-.62,5.34,5.34,0,0,1-1.8-1.8A29.71,29.71,0,0,1,27,58.64Z"/><path d="M70.35,66.78a3.53,3.53,0,0,1-1.18,2.62,3.79,3.79,0,0,1-2.65,1.12A3.52,3.52,0,0,1,63.8,69.2l-7.66-9.07-7.8,9.07a3.47,3.47,0,0,1-2.67,1.32A3.7,3.7,0,0,1,43,69.37a3.5,3.5,0,0,1-.24-5l8.55-9.77L43,45a3.62,3.62,0,0,1-1-2.37,3.5,3.5,0,0,1,1.18-2.62,3.79,3.79,0,0,1,2.69-1.12,3.52,3.52,0,0,1,2.72,1.32l7.53,8.8,7.48-8.8a3.26,3.26,0,0,1,2.63-1.32,3.77,3.77,0,0,1,2.69,1.12,3.5,3.5,0,0,1,1.18,2.62A3.59,3.59,0,0,1,69.19,45l-8.33,9.55,8.51,9.77A3.57,3.57,0,0,1,70.35,66.78Z"/><path d="M80.92,63.35a5.89,5.89,0,0,1,1.23,4,12.29,12.29,0,0,1-3.7,8.89,2.13,2.13,0,0,1-1.56.66,2.28,2.28,0,0,1-1.56-.6A1.76,1.76,0,0,1,74.67,75a1.73,1.73,0,0,1,.58-1.27,8.87,8.87,0,0,0,2.13-3.52A4.2,4.2,0,0,1,74.62,69a3.76,3.76,0,0,1-1.07-2.75,4.15,4.15,0,0,1,1.21-3,4.26,4.26,0,0,1,6.16.18Z"/><path d="M104.78,51.09a9.22,9.22,0,0,1,3.36,3.61A11.68,11.68,0,0,1,108,65.44a9.9,9.9,0,0,1-3.9,3.8,11.58,11.58,0,0,1-5.65,1.37q-6.28,0-9.71-4T85.27,55a21.18,21.18,0,0,1,1.62-8.6,12.93,12.93,0,0,1,4.59-5.66,12.18,12.18,0,0,1,6.93-2,17.46,17.46,0,0,1,5.1.8,14,14,0,0,1,4.47,2.2A3.71,3.71,0,0,1,109.07,43a3.13,3.13,0,0,1,.34,1.54,3.51,3.51,0,0,1-.78,2.31,2.35,2.35,0,0,1-1.89,1,3,3,0,0,1-1.12-.2,14.47,14.47,0,0,1-1.33-.64l-1-.48c-1-.47-1.8-.82-2.45-1.06a6.18,6.18,0,0,0-2-.35,4.27,4.27,0,0,0-3.68,2.05,11.66,11.66,0,0,0-1.67,5.74,7,7,0,0,1,2.74-2.22,8.71,8.71,0,0,1,3.77-.82A9.15,9.15,0,0,1,104.78,51.09Zm-4.1,12.17a5.11,5.11,0,0,0,0-6.1,4,4,0,0,0-5.57,0,4.86,4.86,0,0,0,0,6.05,3.59,3.59,0,0,0,2.76,1.16A3.55,3.55,0,0,0,100.68,63.26Z"/><path d="M117.22,77.47a4,4,0,0,1-2.07.62,2.45,2.45,0,0,1-1.71-.64,2.27,2.27,0,0,1-.69-1.74,4.15,4.15,0,0,1,.31-1.54,40.31,40.31,0,0,0,2.18-7.55,44.16,44.16,0,0,0,.67-8,45.79,45.79,0,0,0-.67-8.08A38,38,0,0,0,113.06,43a4.15,4.15,0,0,1-.31-1.54,2.27,2.27,0,0,1,.69-1.74,2.5,2.5,0,0,1,1.76-.64,4,4,0,0,1,2,.62,5.45,5.45,0,0,1,1.81,1.8,29.67,29.67,0,0,1,5,17.12,29.78,29.78,0,0,1-5,17A5.45,5.45,0,0,1,117.22,77.47Z"/></svg>