<svg id="Layer_1" data-name="Layer 1" xmlns="http://www.w3.org/2000/svg" viewBox="0 0 130 130"><title>l13_3_1</title><path d="M130,65A65,65,0,1,1,65,0,65,65,0,0,1,130,65Zm-56,.35a11.29,11.29,0,0,0,7.65-11,12.11,12.11,0,0,0-2.16-7.14,13.82,13.82,0,0,0-6.16-4.76,23.78,23.78,0,0,0-9.25-1.68A28.7,28.7,0,0,0,55.68,42a23.49,23.49,0,0,0-7.19,3.5,5.47,5.47,0,0,0-1.7,1.89,5.4,5.4,0,0,0-.5,2.45,5.65,5.65,0,0,0,1.21,3.67,3.65,3.65,0,0,0,3,1.51,4.69,4.69,0,0,0,1.77-.32c.52-.21,1.23-.55,2.13-1l1.49-.7a38.49,38.49,0,0,1,3.86-1.68,10.84,10.84,0,0,1,3.72-.63,6.17,6.17,0,0,1,4.32,1.43,5.21,5.21,0,0,1,1.56,4,3.92,3.92,0,0,1-1.77,3.57c-1.18.74-3.07,1.12-5.67,1.12H58.76a4.09,4.09,0,0,0-3.33,1.47,5.7,5.7,0,0,0,0,7,4.09,4.09,0,0,0,3.33,1.47h4.4c2.69,0,4.63.39,5.81,1.19a4.37,4.37,0,0,1,1.77,3.92A4.83,4.83,0,0,1,69,80.12c-1.15.84-3.06,1.26-5.7,1.26a13,13,0,0,1-4.08-.6,31.94,31.94,0,0,1-4.07-1.71l-.89-.39-.67-.31c-.9-.47-1.61-.81-2.12-1A4.78,4.78,0,0,0,49.69,77a3.67,3.67,0,0,0-3,1.5,5.68,5.68,0,0,0-1.21,3.68,5.42,5.42,0,0,0,.5,2.41,5.57,5.57,0,0,0,1.7,1.93,22.72,22.72,0,0,0,7.37,3.53,31.71,31.71,0,0,0,8.86,1.23A26.75,26.75,0,0,0,74,89.6a14.86,14.86,0,0,0,6.63-4.86,12.11,12.11,0,0,0,2.34-7.42,12.26,12.26,0,0,0-2.38-7.63A12,12,0,0,0,74,65.35Z"/></svg>