<svg id="Layer_1" data-name="Layer 1" xmlns="http://www.w3.org/2000/svg" viewBox="0 0 130 130"><title>l13_3_1</title><path d="M119.41,108.46H34.79a14.65,14.65,0,0,1-10.51-4.95,13.9,13.9,0,0,1-3.14-7.42V10.33a10.54,10.54,0,0,0-21.08,0v98.13a20.84,20.84,0,0,0,6.16,15.41,20.75,20.75,0,0,0,14.92,5.64h98.27a10.53,10.53,0,1,0,0-21Z"/><path d="M121.77,53.47a47.7,47.7,0,1,1-47.7-47.7A47.7,47.7,0,0,1,121.77,53.47Zm-40-1.91a9.66,9.66,0,0,0,6.56-9.42A10.42,10.42,0,0,0,86.49,36a11.92,11.92,0,0,0-5.28-4.08,20.36,20.36,0,0,0-7.93-1.44,24.64,24.64,0,0,0-7.2,1.08,20.2,20.2,0,0,0-6.16,3,4.81,4.81,0,0,0-1.46,1.62A4.67,4.67,0,0,0,58,38.3a4.88,4.88,0,0,0,1,3.15,3.15,3.15,0,0,0,2.55,1.29,4,4,0,0,0,1.52-.27c.44-.18,1-.47,1.82-.87l1.27-.6a33.73,33.73,0,0,1,3.31-1.44A9.33,9.33,0,0,1,72.73,39a5.27,5.27,0,0,1,3.71,1.23,4.45,4.45,0,0,1,1.33,3.45,3.35,3.35,0,0,1-1.51,3.06,9.44,9.44,0,0,1-4.86,1H68.72A3.49,3.49,0,0,0,65.87,49a4.88,4.88,0,0,0,0,6,3.49,3.49,0,0,0,2.85,1.26h3.77a9.21,9.21,0,0,1,5,1A3.76,3.76,0,0,1,79,60.62a4.15,4.15,0,0,1-1.49,3.6Q76,65.3,72.61,65.3a11.14,11.14,0,0,1-3.49-.51,27.13,27.13,0,0,1-3.49-1.47L64.87,63l-.58-.27c-.77-.4-1.38-.69-1.82-.87A4,4,0,0,0,61,61.58a3.15,3.15,0,0,0-2.55,1.29,4.87,4.87,0,0,0-1,3.15,4.16,4.16,0,0,0,1.88,3.72,19.63,19.63,0,0,0,6.32,3,27.28,27.28,0,0,0,7.59,1,23,23,0,0,0,8.59-1.47,12.73,12.73,0,0,0,5.68-4.17,10.36,10.36,0,0,0,2-6.36,10.54,10.54,0,0,0-2-6.54A10.35,10.35,0,0,0,81.78,51.56Z"/></svg>