<svg id="Layer_1" data-name="Layer 1" xmlns="http://www.w3.org/2000/svg" viewBox="0 0 180 130"><title>s13_1</title><path d="M149,59.27H129.3V45.11a10.4,10.4,0,0,0-10.4-10.4H95.72V5.85a5.72,5.72,0,1,0-11.44,0V34.71H61.1a10.4,10.4,0,0,0-10.4,10.4V59.27H31a5.73,5.73,0,0,0,0,11.46H50.7V84.89a10.4,10.4,0,0,0,10.4,10.4H84.28v28.86a5.72,5.72,0,0,0,11.44,0V95.29H118.9a10.4,10.4,0,0,0,10.4-10.4V70.73H149a5.73,5.73,0,0,0,0-11.46ZM119.28,41.72a3.08,3.08,0,0,1,3.08,3.08V59.27H95.72V41.72ZM57.75,44.8a3.08,3.08,0,0,1,3.08-3.08H84.28V59.27H57.75Zm3.08,43.46a3.08,3.08,0,0,1-3.08-3.08V70.73H84.28V88.26Zm61.53-3.08a3.08,3.08,0,0,1-3.08,3.08H95.72V70.73h26.64Z"/></svg>