<svg id="Layer_1" data-name="Layer 1" xmlns="http://www.w3.org/2000/svg" viewBox="0 0 180 130"><title>s13_1</title><rect x="24.6" y="59.27" width="129.46" height="11.46" rx="5.73"/><rect x="24.46" y="59.28" width="129.73" height="11.43" rx="5.72" transform="translate(154.32 -24.33) rotate(90)"/><circle cx="125.75" cy="29.98" r="13.18"/><path d="M150.72,29.93a25,25,0,1,1-25-25A25,25,0,0,1,150.72,29.93Zm-25-18a18,18,0,1,0,18,18A18,18,0,0,0,125.75,11.92Z"/><circle cx="52.41" cy="29.98" r="13.18"/><path d="M77.38,29.93a25,25,0,1,1-25-25A25,25,0,0,1,77.38,29.93Zm-25-18a18,18,0,1,0,18,18A18,18,0,0,0,52.41,11.92Z"/><circle cx="126.67" cy="100.12" r="13.18"/><path d="M151.63,100.06a25,25,0,1,1-25-25A25,25,0,0,1,151.63,100.06Zm-25-18a18,18,0,1,0,18,18A18,18,0,0,0,126.67,82.05Z"/><circle cx="53.33" cy="100.12" r="13.18"/><path d="M78.3,100.06a25,25,0,1,1-25-25A25,25,0,0,1,78.3,100.06Zm-25-18a18,18,0,1,0,18,18A18,18,0,0,0,53.33,82.05Z"/></svg>