<svg id="Layer_1" data-name="Layer 1" xmlns="http://www.w3.org/2000/svg" viewBox="0 0 180 130"><title>s13_1</title><path d="M149.63,59.19H96.18V5.73A5.74,5.74,0,0,0,90.44,0h0a5.73,5.73,0,0,0-5.73,5.73V59.19H31.25a5.73,5.73,0,0,0-5.73,5.74h0a5.73,5.73,0,0,0,5.73,5.73H84.71v53.46a5.72,5.72,0,0,0,5.73,5.73h0a5.73,5.73,0,0,0,5.74-5.73V70.66h53.45a5.74,5.74,0,0,0,5.74-5.73h0A5.74,5.74,0,0,0,149.63,59.19Z"/><path d="M71.57,115.09a4.31,4.31,0,0,1-1.47,3.24,4.63,4.63,0,0,1-3.28,1.39,4.36,4.36,0,0,1-3.37-1.63L54,106.85l-9.66,11.24A4.29,4.29,0,0,1,41,119.72a4.61,4.61,0,0,1-3.28-1.41,4.35,4.35,0,0,1-.31-6.22L48,100,37.67,88.15a4.51,4.51,0,0,1-1.22-3A4.32,4.32,0,0,1,37.92,82a4.68,4.68,0,0,1,3.34-1.39,4.34,4.34,0,0,1,3.36,1.63L54,93.11,63.23,82.2a4,4,0,0,1,3.26-1.63A4.71,4.71,0,0,1,69.83,82a4.35,4.35,0,0,1,1.46,3.24,4.48,4.48,0,0,1-1.16,3L59.81,100l10.54,12.11A4.42,4.42,0,0,1,71.57,115.09Z"/><path d="M127.58,10.2A4.57,4.57,0,0,1,130,9.51a5.22,5.22,0,0,1,3.45,1.27A3.88,3.88,0,0,1,135,13.84a4.21,4.21,0,0,1-.47,1.91L119.05,46.41a4.9,4.9,0,0,1-1.84,2.14,4.72,4.72,0,0,1-2.49.69A5.2,5.2,0,0,1,111.3,48a3.82,3.82,0,0,1-1.49-3,4.48,4.48,0,0,1,.53-2l3.8-7.57L104.2,15.75a4.62,4.62,0,0,1-.47-1.85,3.92,3.92,0,0,1,1.64-3.15,5.81,5.81,0,0,1,3.68-1.3,4.87,4.87,0,0,1,2.6.73,4.58,4.58,0,0,1,1.84,2.16l6.2,13.28,6.14-13.28A4.72,4.72,0,0,1,127.58,10.2Z"/><path d="M51.24,33.63a4.1,4.1,0,0,1-.85-2.77,9,9,0,0,1,1-4.54,19.31,19.31,0,0,1,2.93-3.72,18.69,18.69,0,0,0,2-2.49,4.14,4.14,0,0,0,.68-2.31,2.48,2.48,0,0,0-.94-2A4,4,0,0,0,53.55,15a7.72,7.72,0,0,0-2.66.49,20.91,20.91,0,0,0-3,1.42l-1.41.69a7.19,7.19,0,0,1-3.21,1.1,3.13,3.13,0,0,1-2.49-1.24,4.63,4.63,0,0,1-1-3,4.22,4.22,0,0,1,.44-2,5,5,0,0,1,1.43-1.56,20.84,20.84,0,0,1,6-3,22.23,22.23,0,0,1,6.75-1.07,16.78,16.78,0,0,1,6.79,1.3,11.35,11.35,0,0,1,4.67,3.58,8.44,8.44,0,0,1,1.7,5.17,8.54,8.54,0,0,1-.91,3.93,11.6,11.6,0,0,1-2.19,3.06q-1.29,1.26-3.33,3.06a26.72,26.72,0,0,0-2.95,2.68A5.34,5.34,0,0,0,56.88,32a3.13,3.13,0,0,1-1.14,2,3.42,3.42,0,0,1-2.13.69A3,3,0,0,1,51.24,33.63ZM49.72,46.79a5.6,5.6,0,0,1,4-9.58,5.51,5.51,0,0,1,4.07,1.62,5.75,5.75,0,0,1,0,8,5.51,5.51,0,0,1-4.07,1.62A5.4,5.4,0,0,1,49.72,46.79Z"/><path d="M116.71,104.91a4.11,4.11,0,0,1-.85-2.78,8.93,8.93,0,0,1,1-4.53,19.31,19.31,0,0,1,2.93-3.72,19.35,19.35,0,0,0,2-2.49,4.14,4.14,0,0,0,.68-2.31,2.48,2.48,0,0,0-.94-2,4,4,0,0,0-2.57-.75,7.49,7.49,0,0,0-2.66.49,20.91,20.91,0,0,0-3,1.42l-1.41.69a7.19,7.19,0,0,1-3.21,1.1,3.11,3.11,0,0,1-2.49-1.25,4.59,4.59,0,0,1-1-3,4.22,4.22,0,0,1,.44-2,5,5,0,0,1,1.43-1.56,21,21,0,0,1,6-3,22.3,22.3,0,0,1,6.76-1.07,16.77,16.77,0,0,1,6.78,1.3A11.21,11.21,0,0,1,131.35,83a8.79,8.79,0,0,1,.79,9.09A11.49,11.49,0,0,1,130,95.15q-1.29,1.26-3.33,3.06a26.72,26.72,0,0,0-3,2.68,5.34,5.34,0,0,0-1.32,2.34,3,3,0,0,1-1.14,2,3.35,3.35,0,0,1-2.13.7A3,3,0,0,1,116.71,104.91Zm-1.52,13.16a5.6,5.6,0,0,1,4-9.58,5.54,5.54,0,0,1,4.07,1.61,5.74,5.74,0,0,1,0,8,5.51,5.51,0,0,1-4.07,1.62A5.41,5.41,0,0,1,115.19,118.07Z"/></svg>