<svg id="Layer_1" data-name="Layer 1" xmlns="http://www.w3.org/2000/svg" viewBox="0 0 200 150"><defs><style>.cls-1{fill:#020202;}</style></defs><title>g15</title><path class="cls-1" d="M52.56,108.14H11.24A11.44,11.44,0,0,1-.2,96.7V55.38A11.44,11.44,0,0,1,11.24,43.94H52.56A11.44,11.44,0,0,1,64,55.38V96.7A11.44,11.44,0,0,1,52.56,108.14ZM45.19,89.35H39.7V57.6a5.84,5.84,0,0,0-1.64-4.36,5.94,5.94,0,0,0-4.32-1.61,11.29,11.29,0,0,0-5.56,1.68L17.46,59.54a4.54,4.54,0,0,0-2.35,4.15,5.69,5.69,0,0,0,1.34,3.66A4,4,0,0,0,19.67,69,4.63,4.63,0,0,0,22,68.32l5.36-3.15V89.35H22a6.76,6.76,0,0,0-4.43,1.21,4.52,4.52,0,0,0-1.4,3.62c0,3.3,1.94,5,5.83,5H45.19c3.89,0,5.83-1.66,5.83-5a4.52,4.52,0,0,0-1.4-3.62A6.76,6.76,0,0,0,45.19,89.35Z"/><path d="M36.78,144.3a6,6,0,0,1-8.84,0Q21,132.69,14,121.08a3.87,3.87,0,0,1,.07-4.75,5.24,5.24,0,0,1,4-1.67H44.76c1-.08,3.47-.15,4.73,1.22s1,3.58.1,5.2Z"/><path d="M26,7.78a6,6,0,0,1,8.84,0L48.77,31a3.87,3.87,0,0,1-.08,4.76,5.21,5.21,0,0,1-4,1.67H18c-1,.08-3.48.14-4.73-1.22s-1-3.58-.11-5.21Z"/><path class="cls-1" d="M120.16,108.06H78.84A11.44,11.44,0,0,1,67.4,96.62V55.3A11.44,11.44,0,0,1,78.84,43.86h41.32A11.44,11.44,0,0,1,131.6,55.3V96.62A11.44,11.44,0,0,1,120.16,108.06ZM112,88.35H98.54l9.52-9.71a31.29,31.29,0,0,0,5.59-7.54,16.77,16.77,0,0,0,1.64-7.47,12.3,12.3,0,0,0-2-7,13,13,0,0,0-5.8-4.69,21.62,21.62,0,0,0-8.71-1.64,27.21,27.21,0,0,0-14.8,4.55A4.4,4.4,0,0,0,82.3,56.6a6.42,6.42,0,0,0,.7,6,3.41,3.41,0,0,0,2.81,1.51,4.13,4.13,0,0,0,1.28-.2,7.71,7.71,0,0,0,1.37-.64c.51-.29.86-.48,1-.57L90.84,62a33.62,33.62,0,0,1,3.78-1.64,10.9,10.9,0,0,1,3.59-.57A5.26,5.26,0,0,1,101.93,61a4.49,4.49,0,0,1,1.3,3.48q0,3.89-4.42,8.51L84.61,87.82A7.32,7.32,0,0,0,82.33,93a5,5,0,0,0,1.41,3.66,5.08,5.08,0,0,0,3.82,1.44H112a6.75,6.75,0,0,0,4.39-1.21,4.61,4.61,0,0,0,1.44-3.75,4.43,4.43,0,0,0-1.44-3.65A6.87,6.87,0,0,0,112,88.35Z"/><path d="M104.38,144.22a6,6,0,0,1-8.84,0L81.61,121a3.87,3.87,0,0,1,.08-4.76,5.21,5.21,0,0,1,4-1.67h26.63c1-.08,3.48-.14,4.73,1.22s1,3.58.11,5.21Z"/><path d="M93.6,7.7a6,6,0,0,1,8.84,0l13.93,23.22a3.87,3.87,0,0,1-.07,4.75,5.24,5.24,0,0,1-4,1.67H85.62c-1,.08-3.48.15-4.73-1.22s-1-3.58-.1-5.2Z"/><path class="cls-1" d="M187.76,108.06H146.44A11.44,11.44,0,0,1,135,96.62V55.3a11.44,11.44,0,0,1,11.44-11.44h41.32A11.44,11.44,0,0,1,199.2,55.3V96.62A11.44,11.44,0,0,1,187.76,108.06ZM175.69,74.82A10.83,10.83,0,0,0,181,70.76a11.15,11.15,0,0,0,1.91-6.46,11.74,11.74,0,0,0-2-6.84,13.18,13.18,0,0,0-5.83-4.55,22.1,22.1,0,0,0-8.75-1.61,27,27,0,0,0-7.94,1.2,22.61,22.61,0,0,0-6.8,3.35,5.48,5.48,0,0,0-1.6,1.81A5.15,5.15,0,0,0,149.5,60a5.51,5.51,0,0,0,1.14,3.52A3.44,3.44,0,0,0,153.45,65a4.21,4.21,0,0,0,1.67-.31,21.05,21.05,0,0,0,2-1l1.41-.67a35.92,35.92,0,0,1,3.65-1.6,10,10,0,0,1,3.52-.61,5.75,5.75,0,0,1,4.09,1.38A5,5,0,0,1,171.27,66a3.78,3.78,0,0,1-1.67,3.42,10.33,10.33,0,0,1-5.36,1.07h-3a3.85,3.85,0,0,0-3.15,1.4,5.49,5.49,0,0,0,0,6.7A3.83,3.83,0,0,0,161.29,80h4.15q3.83,0,5.5,1.14a4.22,4.22,0,0,1,1.67,3.75A4.66,4.66,0,0,1,171,89c-1.1.81-2.89,1.21-5.39,1.21a12.19,12.19,0,0,1-3.86-.57A31.25,31.25,0,0,1,157.87,88l-.84-.37-.63-.3c-.85-.45-1.52-.77-2-1a4.41,4.41,0,0,0-1.68-.31,3.46,3.46,0,0,0-2.81,1.44A5.53,5.53,0,0,0,148.76,91a4.72,4.72,0,0,0,2.08,4.16,21.49,21.49,0,0,0,7,3.38,29.92,29.92,0,0,0,8.38,1.17A25,25,0,0,0,175.66,98a14,14,0,0,0,6.26-4.66,11.63,11.63,0,0,0,2.22-7.1,11.85,11.85,0,0,0-2.25-7.3A11.4,11.4,0,0,0,175.69,74.82Z"/><path d="M172,144.22a6,6,0,0,1-8.85,0q-7-11.61-13.93-23.22a3.87,3.87,0,0,1,.08-4.76,5.23,5.23,0,0,1,4-1.67H180c1-.08,3.47-.14,4.72,1.22s1,3.58.11,5.21Z"/><path d="M161.2,7.7a6,6,0,0,1,8.84,0Q177,19.31,184,30.92a3.87,3.87,0,0,1-.07,4.75,5.24,5.24,0,0,1-4.05,1.67H153.22c-1,.08-3.47.15-4.73-1.22s-1-3.58-.1-5.2Z"/></svg>