<svg id="Layer_1" data-name="Layer 1" xmlns="http://www.w3.org/2000/svg" viewBox="0 0 130 130"><title>l15_3_1</title><path d="M118.1,64.37H12a12,12,0,0,1-12-12V19.22a12,12,0,0,1,12-12H118.1a12,12,0,0,1,12,12V52.4A12,12,0,0,1,118.1,64.37ZM50,42.24a2.82,2.82,0,0,0,1.78-.58,2.62,2.62,0,0,0,1-1.67,4.48,4.48,0,0,1,1.1-2,22.16,22.16,0,0,1,2.48-2.28c1.14-1,2.07-1.88,2.79-2.6A9.87,9.87,0,0,0,61,30.53a7.41,7.41,0,0,0,.76-3.33,7.26,7.26,0,0,0-1.42-4.38,9.5,9.5,0,0,0-3.92-3,13.92,13.92,0,0,0-5.69-1.11,18.55,18.55,0,0,0-5.66.91,17.54,17.54,0,0,0-5,2.53,4,4,0,0,0-1.2,1.32,3.55,3.55,0,0,0-.37,1.71,4,4,0,0,0,.86,2.58,2.59,2.59,0,0,0,2.08,1.05,6,6,0,0,0,2.7-.93l1.17-.59a18.31,18.31,0,0,1,2.48-1.2A6.17,6.17,0,0,1,50,25.63a3.34,3.34,0,0,1,2.15.64A2.12,2.12,0,0,1,52.91,28a3.56,3.56,0,0,1-.57,2,15.77,15.77,0,0,1-1.69,2.1,16.4,16.4,0,0,0-2.45,3.16,7.64,7.64,0,0,0-.88,3.85A3.53,3.53,0,0,0,48,41.41,2.46,2.46,0,0,0,50,42.24ZM50.11,54a4.57,4.57,0,0,0,3.41-1.38,4.75,4.75,0,0,0-3.41-8.13,4.5,4.5,0,0,0-3.35,1.37,4.91,4.91,0,0,0,0,6.76A4.47,4.47,0,0,0,50.11,54ZM75.2,42.24A2.85,2.85,0,0,0,77,41.66a2.61,2.61,0,0,0,1-1.67,4.5,4.5,0,0,1,1.11-2,21.92,21.92,0,0,1,2.47-2.28c1.14-1,2.08-1.88,2.79-2.6a9.64,9.64,0,0,0,1.84-2.6,7.28,7.28,0,0,0,.76-3.33,7.2,7.2,0,0,0-1.42-4.38,9.44,9.44,0,0,0-3.92-3,13.87,13.87,0,0,0-5.68-1.11,18.46,18.46,0,0,0-5.66.91,17.73,17.73,0,0,0-5,2.53A4.29,4.29,0,0,0,64,23.43a3.67,3.67,0,0,0-.36,1.71,4,4,0,0,0,.85,2.58,2.62,2.62,0,0,0,2.09,1.05,6,6,0,0,0,2.69-.93l1.18-.59a18.25,18.25,0,0,1,2.47-1.2,6.25,6.25,0,0,1,2.23-.42,3.37,3.37,0,0,1,2.16.64A2.11,2.11,0,0,1,78.09,28a3.64,3.64,0,0,1-.56,2,16.62,16.62,0,0,1-1.69,2.1,16,16,0,0,0-2.45,3.16,7.64,7.64,0,0,0-.88,3.85,3.47,3.47,0,0,0,.71,2.35A2.44,2.44,0,0,0,75.2,42.24ZM75.3,54a4.54,4.54,0,0,0,3.4-1.38,4.91,4.91,0,0,0,0-6.76,4.85,4.85,0,0,0-6.76,0,4.93,4.93,0,0,0,0,6.76A4.51,4.51,0,0,0,75.3,54Z"/><path d="M118.1,126.25H12a12,12,0,0,1-12-12V81.1a12,12,0,0,1,12-12H118.1a12,12,0,0,1,12,12v33.18A12,12,0,0,1,118.1,126.25ZM52.48,104.71a2.85,2.85,0,0,0,1.79-.58,2.65,2.65,0,0,0,.95-1.67,4.5,4.5,0,0,1,1.11-2A21.92,21.92,0,0,1,58.8,98.2c1.14-1,2.08-1.88,2.79-2.6A9.64,9.64,0,0,0,63.43,93a7.28,7.28,0,0,0,.76-3.33,7.2,7.2,0,0,0-1.42-4.38,9.44,9.44,0,0,0-3.92-3,13.87,13.87,0,0,0-5.68-1.11,18.46,18.46,0,0,0-5.66.91,17.6,17.6,0,0,0-5,2.53,4.29,4.29,0,0,0-1.2,1.32,3.67,3.67,0,0,0-.36,1.71,4,4,0,0,0,.85,2.58,2.62,2.62,0,0,0,2.09,1,6,6,0,0,0,2.69-.93l1.18-.59a18.25,18.25,0,0,1,2.47-1.2,6.25,6.25,0,0,1,2.23-.42,3.37,3.37,0,0,1,2.16.64,2.11,2.11,0,0,1,.78,1.72,3.64,3.64,0,0,1-.56,2,16.62,16.62,0,0,1-1.69,2.1,16,16,0,0,0-2.45,3.16,7.64,7.64,0,0,0-.88,3.85,3.47,3.47,0,0,0,.71,2.35A2.44,2.44,0,0,0,52.48,104.71Zm.1,11.71a4.54,4.54,0,0,0,3.4-1.37,4.75,4.75,0,0,0-3.4-8.13,4.54,4.54,0,0,0-3.36,1.37,4.91,4.91,0,0,0,0,6.76A4.5,4.5,0,0,0,52.58,116.42Zm25.09-11.71a2.82,2.82,0,0,0,1.78-.58,2.62,2.62,0,0,0,1-1.67,4.48,4.48,0,0,1,1.1-2A22.16,22.16,0,0,1,84,98.2c1.14-1,2.07-1.88,2.79-2.6A9.87,9.87,0,0,0,88.62,93a7.41,7.41,0,0,0,.76-3.33A7.26,7.26,0,0,0,88,85.29a9.5,9.5,0,0,0-3.92-3,13.92,13.92,0,0,0-5.69-1.11,18.55,18.55,0,0,0-5.66.91,17.54,17.54,0,0,0-5,2.53,4,4,0,0,0-1.2,1.32,3.55,3.55,0,0,0-.37,1.71A4,4,0,0,0,67,90.19a2.59,2.59,0,0,0,2.08,1,6,6,0,0,0,2.7-.93l1.17-.59a18.31,18.31,0,0,1,2.48-1.2,6.17,6.17,0,0,1,2.23-.42,3.34,3.34,0,0,1,2.15.64,2.12,2.12,0,0,1,.79,1.72,3.56,3.56,0,0,1-.57,2,15.77,15.77,0,0,1-1.69,2.1,16.4,16.4,0,0,0-2.45,3.16,7.75,7.75,0,0,0-.88,3.85,3.53,3.53,0,0,0,.71,2.35A2.46,2.46,0,0,0,77.67,104.71Zm.09,11.71a4.55,4.55,0,0,0,3.41-1.37,4.75,4.75,0,0,0-3.41-8.13,4.52,4.52,0,0,0-3.35,1.37,4.91,4.91,0,0,0,0,6.76A4.48,4.48,0,0,0,77.76,116.42Z"/></svg>