<svg id="Layer_1" data-name="Layer 1" xmlns="http://www.w3.org/2000/svg" viewBox="0 0 130 130"><defs><style>.cls-1{fill:#020202;}</style></defs><title>l15_2_1</title><path class="cls-1" d="M47.58,94.8H12.5A11.44,11.44,0,0,1,1.07,83.36V48.28A11.44,11.44,0,0,1,12.5,36.84H47.58A11.44,11.44,0,0,1,59,48.28V83.36A11.44,11.44,0,0,1,47.58,94.8ZM41.76,71H40.57V51.45a4.59,4.59,0,0,0-1.46-3.62,5.11,5.11,0,0,0-3.52-1.3,5.4,5.4,0,0,0-2.41.57,4.87,4.87,0,0,0-1.93,1.65L15.76,70.85a6.07,6.07,0,0,0-1.19,3.57,4.14,4.14,0,0,0,1.14,3,4.09,4.09,0,0,0,3.09,1.19H30.88v1.84a4.81,4.81,0,0,0,1.32,3.68,4.87,4.87,0,0,0,3.5,1.25,5,5,0,0,0,3.52-1.25,4.75,4.75,0,0,0,1.35-3.68V78.59h1.19q4.71,0,4.71-3.85T41.76,71ZM24.38,71l6.5-9.37V71Z"/><path d="M34.45,124.73a5.42,5.42,0,0,1-8,0l-12.58-21A3.5,3.5,0,0,1,14,99.48,4.72,4.72,0,0,1,17.61,98h24c.93-.07,3.14-.13,4.27,1.1s.9,3.23.09,4.7Z"/><path d="M24.71,6.91a5.43,5.43,0,0,1,8,0l12.57,21a3.5,3.5,0,0,1-.07,4.29,4.72,4.72,0,0,1-3.65,1.51h-24c-.93.07-3.14.13-4.27-1.1s-.9-3.23-.09-4.7Z"/><path class="cls-1" d="M117.6,94.8H82.53A11.44,11.44,0,0,1,71.09,83.36V48.28A11.44,11.44,0,0,1,82.53,36.84H117.6A11.44,11.44,0,0,1,129,48.28V83.36A11.44,11.44,0,0,1,117.6,94.8ZM111.79,71H110.6V51.45a4.57,4.57,0,0,0-1.47-3.62,5.09,5.09,0,0,0-3.52-1.3,5.43,5.43,0,0,0-2.41.57,4.91,4.91,0,0,0-1.92,1.65L85.79,70.85a6,6,0,0,0-1.19,3.57,4.14,4.14,0,0,0,1.14,3,4.05,4.05,0,0,0,3.08,1.19H100.9v1.84a4.78,4.78,0,0,0,1.33,3.68,4.85,4.85,0,0,0,3.49,1.25,4.94,4.94,0,0,0,3.52-1.25,4.76,4.76,0,0,0,1.36-3.68V78.59h1.19q4.71,0,4.71-3.85T111.79,71ZM94.4,71l6.5-9.37V71Z"/><path d="M104.47,124.73a5.42,5.42,0,0,1-8,0l-12.57-21A3.5,3.5,0,0,1,84,99.48,4.73,4.73,0,0,1,87.64,98h24c.93-.07,3.13-.13,4.26,1.1s.91,3.23.1,4.7Z"/><path d="M94.74,6.91a5.42,5.42,0,0,1,8,0l12.58,21a3.5,3.5,0,0,1-.07,4.29,4.72,4.72,0,0,1-3.65,1.51h-24c-.93.07-3.13.13-4.26-1.1s-.91-3.23-.1-4.7Z"/></svg>