<svg id="Layer_1" data-name="Layer 1" xmlns="http://www.w3.org/2000/svg" viewBox="0 0 130 130"><defs><style>.cls-1{fill:#020202;}</style></defs><title>l15_3_1</title><path class="cls-1" d="M47.58,92.8H12.5A11.44,11.44,0,0,1,1.07,81.36V46.28A11.44,11.44,0,0,1,12.5,34.84H47.58A11.44,11.44,0,0,1,59,46.28V81.36A11.44,11.44,0,0,1,47.58,92.8ZM33.37,57.9a10.42,10.42,0,0,0-4.58,1,8.55,8.55,0,0,0-3.33,2.73,14.43,14.43,0,0,1,2-7.07A5.18,5.18,0,0,1,32,52.06a7.16,7.16,0,0,1,2.49.43c.79.29,1.79.72,3,1.3l1.19.59a17.14,17.14,0,0,0,1.63.79,3.54,3.54,0,0,0,1.35.24,2.88,2.88,0,0,0,2.3-1.16,4.39,4.39,0,0,0,1-2.85,4,4,0,0,0-.41-1.89,4.65,4.65,0,0,0-1.32-1.46,17.17,17.17,0,0,0-5.45-2.71,21,21,0,0,0-6.2-1,14.7,14.7,0,0,0-8.42,2.44,15.85,15.85,0,0,0-5.58,7,26.26,26.26,0,0,0-2,10.59q0,9.21,4.17,14.19t11.81,5a14,14,0,0,0,6.88-1.68,12.05,12.05,0,0,0,4.74-4.68,13.52,13.52,0,0,0,1.71-6.8,13.69,13.69,0,0,0-1.49-6.42,11.32,11.32,0,0,0-4.09-4.44A11,11,0,0,0,33.37,57.9Zm-2.49,18a4.3,4.3,0,0,1-3.36-1.44,5.3,5.3,0,0,1-1.3-3.71A5.37,5.37,0,0,1,27.49,67a4.34,4.34,0,0,1,3.39-1.4A4.27,4.27,0,0,1,34.26,67a6.31,6.31,0,0,1,0,7.5A4.25,4.25,0,0,1,30.88,75.89Z"/><path d="M34.45,122.73a5.42,5.42,0,0,1-8,0l-12.58-21A3.5,3.5,0,0,1,14,97.48,4.72,4.72,0,0,1,17.61,96h24c.93-.07,3.14-.13,4.27,1.1s.9,3.23.09,4.7Z"/><path d="M24.71,4.91a5.43,5.43,0,0,1,8,0l12.57,21a3.5,3.5,0,0,1-.07,4.29,4.72,4.72,0,0,1-3.65,1.51h-24c-.93.07-3.14.13-4.27-1.1s-.9-3.23-.09-4.7Z"/><path class="cls-1" d="M117.6,92.8H82.53A11.44,11.44,0,0,1,71.09,81.36V46.28A11.44,11.44,0,0,1,82.53,34.84H117.6A11.44,11.44,0,0,1,129,46.28V81.36A11.44,11.44,0,0,1,117.6,92.8ZM103.39,57.9a10.38,10.38,0,0,0-4.57,1,8.59,8.59,0,0,0-3.34,2.73,14.42,14.42,0,0,1,2-7.07A5.15,5.15,0,0,1,102,52.06a7.26,7.26,0,0,1,2.5.43c.79.29,1.78.72,3,1.3l1.2.59a16.08,16.08,0,0,0,1.62.79,3.62,3.62,0,0,0,1.36.24,2.9,2.9,0,0,0,2.3-1.16,4.39,4.39,0,0,0,.94-2.85,4,4,0,0,0-.4-1.89,4.58,4.58,0,0,0-1.33-1.46,17.12,17.12,0,0,0-5.44-2.71,21,21,0,0,0-6.2-1,14.74,14.74,0,0,0-8.43,2.44,15.77,15.77,0,0,0-5.57,7,26.26,26.26,0,0,0-2,10.59q0,9.21,4.17,14.19t11.81,5a14,14,0,0,0,6.88-1.68,12,12,0,0,0,4.73-4.68,13.52,13.52,0,0,0,1.71-6.8,13.69,13.69,0,0,0-1.49-6.42,11.18,11.18,0,0,0-4.09-4.44A11,11,0,0,0,103.39,57.9Zm-2.49,18a4.33,4.33,0,0,1-3.36-1.44,6,6,0,0,1,0-7.45,4.82,4.82,0,0,1,6.77,0,6.35,6.35,0,0,1,0,7.5A4.26,4.26,0,0,1,100.9,75.89Z"/><path d="M104.47,122.73a5.42,5.42,0,0,1-8,0l-12.57-21A3.5,3.5,0,0,1,84,97.48,4.73,4.73,0,0,1,87.64,96h24c.93-.07,3.13-.13,4.26,1.1s.91,3.23.1,4.7Z"/><path d="M94.74,4.91a5.42,5.42,0,0,1,8,0l12.58,21a3.5,3.5,0,0,1-.07,4.29,4.72,4.72,0,0,1-3.65,1.51h-24c-.93.07-3.13.13-4.26-1.1s-.91-3.23-.1-4.7Z"/></svg>