<svg id="Layer_1" data-name="Layer 1" xmlns="http://www.w3.org/2000/svg" viewBox="0 0 130 130"><title>l15_2_1</title><path d="M118.13,62.62H12.07a12,12,0,0,1-12-12V17.47a12,12,0,0,1,12-12H118.13a12,12,0,0,1,12,12V50.65A12,12,0,0,1,118.13,62.62ZM50.05,40.49a2.82,2.82,0,0,0,1.78-.58,2.62,2.62,0,0,0,1-1.67,4.48,4.48,0,0,1,1.1-2A22.16,22.16,0,0,1,56.37,34c1.14-1,2.07-1.88,2.79-2.6A9.87,9.87,0,0,0,61,28.78a7.41,7.41,0,0,0,.76-3.33,7.26,7.26,0,0,0-1.42-4.38,9.5,9.5,0,0,0-3.92-3,13.89,13.89,0,0,0-5.69-1.1,18.54,18.54,0,0,0-5.66.9,17.54,17.54,0,0,0-5,2.53,4,4,0,0,0-1.2,1.32,3.55,3.55,0,0,0-.37,1.71A4,4,0,0,0,39.34,26,2.6,2.6,0,0,0,41.42,27a6,6,0,0,0,2.7-.93l1.17-.59a18.31,18.31,0,0,1,2.48-1.2A6.17,6.17,0,0,1,50,23.88a3.34,3.34,0,0,1,2.15.64,2.12,2.12,0,0,1,.79,1.72,3.56,3.56,0,0,1-.57,2,15.77,15.77,0,0,1-1.69,2.1,16.4,16.4,0,0,0-2.45,3.16,7.75,7.75,0,0,0-.88,3.85,3.53,3.53,0,0,0,.71,2.35A2.46,2.46,0,0,0,50.05,40.49Zm.09,11.72a4.56,4.56,0,0,0,3.41-1.38,4.75,4.75,0,0,0-3.41-8.13,4.52,4.52,0,0,0-3.35,1.37,4.91,4.91,0,0,0,0,6.76A4.49,4.49,0,0,0,50.14,52.21ZM75.23,40.49A2.85,2.85,0,0,0,77,39.91a2.66,2.66,0,0,0,1-1.67,4.48,4.48,0,0,1,1.1-2A21.92,21.92,0,0,1,81.55,34c1.15-1,2.08-1.88,2.8-2.6a9.84,9.84,0,0,0,1.83-2.6,7.28,7.28,0,0,0,.76-3.33,7.2,7.2,0,0,0-1.42-4.38,9.44,9.44,0,0,0-3.92-3,13.84,13.84,0,0,0-5.68-1.1,18.49,18.49,0,0,0-5.66.9,17.54,17.54,0,0,0-5,2.53A4.21,4.21,0,0,0,64,21.68a3.67,3.67,0,0,0-.36,1.71A3.92,3.92,0,0,0,64.53,26,2.59,2.59,0,0,0,66.61,27a6,6,0,0,0,2.69-.93l1.18-.59A18.25,18.25,0,0,1,73,24.3a6.25,6.25,0,0,1,2.23-.42,3.35,3.35,0,0,1,2.16.64,2.11,2.11,0,0,1,.78,1.72,3.64,3.64,0,0,1-.56,2,16.62,16.62,0,0,1-1.69,2.1,16,16,0,0,0-2.45,3.16,7.64,7.64,0,0,0-.88,3.85,3.47,3.47,0,0,0,.71,2.35A2.44,2.44,0,0,0,75.23,40.49Zm.1,11.72a4.57,4.57,0,0,0,3.41-1.38,4.93,4.93,0,0,0,0-6.76,4.6,4.6,0,0,0-3.41-1.37A4.54,4.54,0,0,0,72,44.07a4.93,4.93,0,0,0,0,6.76A4.51,4.51,0,0,0,75.33,52.21Z"/><path d="M118.13,124.5H12.07a12,12,0,0,1-12-12V79.35a12,12,0,0,1,12-12H118.13a12,12,0,0,1,12,12v33.18A12,12,0,0,1,118.13,124.5ZM52.51,103a2.85,2.85,0,0,0,1.79-.58,2.65,2.65,0,0,0,1-1.67,4.5,4.5,0,0,1,1.11-2,21.92,21.92,0,0,1,2.47-2.28c1.14-1,2.07-1.88,2.79-2.6a9.87,9.87,0,0,0,1.84-2.6,7.28,7.28,0,0,0,.76-3.33,7.2,7.2,0,0,0-1.42-4.38,9.44,9.44,0,0,0-3.92-3,13.87,13.87,0,0,0-5.68-1.1,18.44,18.44,0,0,0-5.66.9,17.6,17.6,0,0,0-5,2.53,4.29,4.29,0,0,0-1.2,1.32A3.67,3.67,0,0,0,41,85.86a4,4,0,0,0,.85,2.58,2.61,2.61,0,0,0,2.09,1,6,6,0,0,0,2.69-.93L47.76,88a18.25,18.25,0,0,1,2.47-1.2,6.25,6.25,0,0,1,2.23-.42,3.39,3.39,0,0,1,2.16.64,2.11,2.11,0,0,1,.78,1.72,3.64,3.64,0,0,1-.56,2,16.62,16.62,0,0,1-1.69,2.1,15.64,15.64,0,0,0-2.45,3.16,7.64,7.64,0,0,0-.88,3.85,3.47,3.47,0,0,0,.71,2.35A2.44,2.44,0,0,0,52.51,103Zm.1,11.72A4.55,4.55,0,0,0,56,113.3a4.75,4.75,0,0,0-3.4-8.13,4.54,4.54,0,0,0-3.36,1.37,4.91,4.91,0,0,0,0,6.76A4.51,4.51,0,0,0,52.61,114.68ZM77.7,103a2.82,2.82,0,0,0,1.78-.58,2.62,2.62,0,0,0,1-1.67,4.48,4.48,0,0,1,1.1-2A22.16,22.16,0,0,1,84,96.45c1.14-1,2.07-1.88,2.79-2.6a9.87,9.87,0,0,0,1.84-2.6,7.41,7.41,0,0,0,.76-3.33A7.26,7.26,0,0,0,88,83.54a9.5,9.5,0,0,0-3.92-3,13.92,13.92,0,0,0-5.69-1.1,18.54,18.54,0,0,0-5.66.9,17.54,17.54,0,0,0-5,2.53,4,4,0,0,0-1.2,1.32,3.55,3.55,0,0,0-.37,1.71A4,4,0,0,0,67,88.44a2.59,2.59,0,0,0,2.08,1,6,6,0,0,0,2.7-.93L72.94,88a18.31,18.31,0,0,1,2.48-1.2,6.17,6.17,0,0,1,2.23-.42A3.34,3.34,0,0,1,79.8,87a2.12,2.12,0,0,1,.79,1.72,3.56,3.56,0,0,1-.57,2,15.77,15.77,0,0,1-1.69,2.1,16.4,16.4,0,0,0-2.45,3.16A7.64,7.64,0,0,0,75,99.78a3.53,3.53,0,0,0,.71,2.35A2.46,2.46,0,0,0,77.7,103Zm.09,11.72a4.57,4.57,0,0,0,3.41-1.38,4.75,4.75,0,0,0-3.41-8.13,4.5,4.5,0,0,0-3.35,1.37,4.91,4.91,0,0,0,0,6.76A4.47,4.47,0,0,0,77.79,114.68Z"/></svg>