<svg id="Layer_1" data-name="Layer 1" xmlns="http://www.w3.org/2000/svg" viewBox="0 0 130 130"><title>l15_1_1</title><path d="M118,64.22H12a12,12,0,0,1-12-12V19.06a12,12,0,0,1,12-12H118a12,12,0,0,1,12,12V52.25A12,12,0,0,1,118,64.22ZM49.94,42.09a2.78,2.78,0,0,0,1.79-.59,2.57,2.57,0,0,0,1-1.66,4.56,4.56,0,0,1,1.1-2,23.24,23.24,0,0,1,2.48-2.27c1.14-1,2.07-1.88,2.79-2.6a10,10,0,0,0,1.84-2.6,7.41,7.41,0,0,0,.76-3.33,7.23,7.23,0,0,0-1.43-4.39,9.35,9.35,0,0,0-3.92-3,13.84,13.84,0,0,0-5.68-1.11,18.55,18.55,0,0,0-5.66.91A17.52,17.52,0,0,0,40,22a4.17,4.17,0,0,0-1.2,1.33A3.52,3.52,0,0,0,38.38,25a4,4,0,0,0,.86,2.57,2.57,2.57,0,0,0,2.08,1.06,6,6,0,0,0,2.7-.93l1.17-.59a18.31,18.31,0,0,1,2.48-1.2,6.17,6.17,0,0,1,2.23-.42,3.28,3.28,0,0,1,2.15.64,2.09,2.09,0,0,1,.79,1.71,3.51,3.51,0,0,1-.57,2,15.76,15.76,0,0,1-1.69,2.11,16.4,16.4,0,0,0-2.45,3.16,7.64,7.64,0,0,0-.88,3.85A3.55,3.55,0,0,0,48,41.26,2.44,2.44,0,0,0,49.94,42.09ZM50,53.8a4.57,4.57,0,0,0,3.41-1.37A4.75,4.75,0,0,0,50,44.3a4.5,4.5,0,0,0-3.35,1.37,4.91,4.91,0,0,0,0,6.76A4.46,4.46,0,0,0,50,53.8ZM75.13,42.09a2.8,2.8,0,0,0,1.79-.59,2.6,2.6,0,0,0,1-1.66,4.59,4.59,0,0,1,1.11-2,23,23,0,0,1,2.47-2.27c1.14-1,2.08-1.88,2.79-2.6a9.8,9.8,0,0,0,1.84-2.6,7.57,7.57,0,0,0-.66-7.72,9.42,9.42,0,0,0-3.92-3,13.87,13.87,0,0,0-5.68-1.11,18.46,18.46,0,0,0-5.66.91,17.58,17.58,0,0,0-5,2.52,4.43,4.43,0,0,0-1.2,1.33A3.64,3.64,0,0,0,63.57,25a3.94,3.94,0,0,0,.85,2.57,2.6,2.6,0,0,0,2.09,1.06,6,6,0,0,0,2.69-.93l1.18-.59a18.25,18.25,0,0,1,2.47-1.2,6.25,6.25,0,0,1,2.23-.42,3.31,3.31,0,0,1,2.16.64A2.08,2.08,0,0,1,78,27.83a3.59,3.59,0,0,1-.56,2,16.61,16.61,0,0,1-1.69,2.11,16,16,0,0,0-2.45,3.16,7.64,7.64,0,0,0-.88,3.85,3.49,3.49,0,0,0,.71,2.35A2.44,2.44,0,0,0,75.13,42.09Zm.1,11.71a4.54,4.54,0,0,0,3.4-1.37,4.75,4.75,0,0,0-3.4-8.13,4.54,4.54,0,0,0-3.36,1.37,4.91,4.91,0,0,0,0,6.76A4.5,4.5,0,0,0,75.23,53.8Z"/><path d="M118,126.1H12a12,12,0,0,1-12-12V80.94A12,12,0,0,1,12,69H118a12,12,0,0,1,12,12v33.19A12,12,0,0,1,118,126.1ZM52.41,104.56A2.8,2.8,0,0,0,54.2,104a2.6,2.6,0,0,0,.95-1.66,4.59,4.59,0,0,1,1.11-2,23,23,0,0,1,2.47-2.27c1.14-1,2.07-1.88,2.79-2.6a10,10,0,0,0,1.84-2.6,7.57,7.57,0,0,0-.66-7.72,9.42,9.42,0,0,0-3.92-3A13.87,13.87,0,0,0,53.1,81a18.46,18.46,0,0,0-5.66.91,17.58,17.58,0,0,0-5,2.52,4.43,4.43,0,0,0-1.2,1.33,3.64,3.64,0,0,0-.36,1.71A3.94,3.94,0,0,0,41.7,90a2.59,2.59,0,0,0,2.09,1.06,6,6,0,0,0,2.69-.93l1.18-.59a18.25,18.25,0,0,1,2.47-1.2A6.25,6.25,0,0,1,52.36,88a3.33,3.33,0,0,1,2.16.64,2.08,2.08,0,0,1,.78,1.71,3.59,3.59,0,0,1-.56,2,16.61,16.61,0,0,1-1.69,2.11,15.64,15.64,0,0,0-2.45,3.16,7.64,7.64,0,0,0-.89,3.85,3.55,3.55,0,0,0,.71,2.35A2.5,2.5,0,0,0,52.41,104.56Zm.1,11.71a4.54,4.54,0,0,0,3.4-1.37,4.75,4.75,0,0,0-3.4-8.13,4.54,4.54,0,0,0-3.36,1.37,4.91,4.91,0,0,0,0,6.76A4.5,4.5,0,0,0,52.51,116.27Zm25.08-11.71a2.78,2.78,0,0,0,1.79-.59,2.57,2.57,0,0,0,1-1.66,4.56,4.56,0,0,1,1.1-2,23.24,23.24,0,0,1,2.48-2.27c1.14-1,2.07-1.88,2.79-2.6a10,10,0,0,0,1.84-2.6,7.41,7.41,0,0,0,.76-3.33,7.23,7.23,0,0,0-1.43-4.39,9.35,9.35,0,0,0-3.92-3A13.84,13.84,0,0,0,78.28,81a18.55,18.55,0,0,0-5.66.91,17.52,17.52,0,0,0-5,2.52,4.17,4.17,0,0,0-1.2,1.33A3.52,3.52,0,0,0,66,87.46,4,4,0,0,0,66.89,90,2.57,2.57,0,0,0,69,91.09a6,6,0,0,0,2.7-.93l1.17-.59a18.31,18.31,0,0,1,2.48-1.2A6.17,6.17,0,0,1,77.55,88a3.28,3.28,0,0,1,2.15.64,2.09,2.09,0,0,1,.79,1.71,3.51,3.51,0,0,1-.57,2,15.76,15.76,0,0,1-1.69,2.11,16.4,16.4,0,0,0-2.45,3.16,7.64,7.64,0,0,0-.88,3.85,3.55,3.55,0,0,0,.71,2.35A2.48,2.48,0,0,0,77.59,104.56Zm.1,11.71a4.57,4.57,0,0,0,3.41-1.37,4.75,4.75,0,0,0-3.41-8.13,4.5,4.5,0,0,0-3.35,1.37,4.91,4.91,0,0,0,0,6.76A4.46,4.46,0,0,0,77.69,116.27Z"/></svg>