<svg id="Layer_1" data-name="Layer 1" xmlns="http://www.w3.org/2000/svg" viewBox="0 0 130 130"><title>l15_3_1</title><path d="M118.41,63.12H12.34a12,12,0,0,1-12-12V18a12,12,0,0,1,12-12H118.41a12,12,0,0,1,12,12V51.15A12,12,0,0,1,118.41,63.12Zm-89-17.86h-4V22a4.24,4.24,0,0,0-1.2-3.18,4.29,4.29,0,0,0-3.16-1.18A8.29,8.29,0,0,0,17,18.9L9.16,23.45a3.34,3.34,0,0,0-1.71,3,4.08,4.08,0,0,0,1,2.67,2.93,2.93,0,0,0,2.35,1.2,3.27,3.27,0,0,0,1.71-.49l3.92-2.3V45.26h-4a4.92,4.92,0,0,0-3.24.88,3.31,3.31,0,0,0-1,2.64q0,3.63,4.27,3.63h17q4.26,0,4.26-3.63a3.28,3.28,0,0,0-1-2.64A4.87,4.87,0,0,0,29.45,45.26Zm19,7.59q6.42,0,9.8-4.56t3.38-13.18q0-8.57-3.4-13.13t-9.78-4.56q-6.42,0-9.8,4.56T35.28,35.11q0,8.63,3.38,13.18T48.46,52.85Zm0-6.81a3.5,3.5,0,0,1-3.38-2.55q-1-2.55-1-8.38c0-3.88.34-6.67,1-8.35a3.52,3.52,0,0,1,6.76,0q1,2.55,1,8.33t-1,8.38A3.51,3.51,0,0,1,48.46,46Zm29.4,6.81q6.42,0,9.8-4.56T91,35.11Q91,26.55,87.63,22t-9.77-4.56q-6.42,0-9.8,4.56T64.68,35.11q0,8.63,3.38,13.18T77.86,52.85Zm0-6.81a3.5,3.5,0,0,1-3.38-2.55q-1-2.55-1-8.38c0-3.88.34-6.67,1-8.35a3.52,3.52,0,0,1,6.76,0q1,2.55,1,8.33t-1,8.38A3.51,3.51,0,0,1,77.86,46Zm29.4,6.81q6.42,0,9.8-4.56t3.38-13.18q0-8.57-3.41-13.13t-9.77-4.56q-6.42,0-9.8,4.56T94.08,35.11q0,8.63,3.38,13.18T107.26,52.85Zm0-6.81a3.5,3.5,0,0,1-3.38-2.55q-1-2.55-1-8.38c0-3.88.34-6.67,1-8.35a3.52,3.52,0,0,1,6.76,0q1,2.55,1,8.33t-1,8.38A3.51,3.51,0,0,1,107.26,46Z"/><path d="M118.41,125H12.34a12,12,0,0,1-12-12V79.84a12,12,0,0,1,12-12H118.41a12,12,0,0,1,12,12V113A12,12,0,0,1,118.41,125Zm-71.8-17.27h-4V84.5a4.28,4.28,0,0,0-1.2-3.19,4.33,4.33,0,0,0-3.16-1.17,8.31,8.31,0,0,0-4.06,1.22l-7.84,4.56a3.33,3.33,0,0,0-1.72,3,4.14,4.14,0,0,0,1,2.67,3,3,0,0,0,2.35,1.2,3.33,3.33,0,0,0,1.72-.49L33.58,90v17.69h-4a4.92,4.92,0,0,0-3.24.88,3.31,3.31,0,0,0-1,2.64q0,3.63,4.26,3.63h17q4.26,0,4.26-3.63a3.31,3.31,0,0,0-1-2.64A4.92,4.92,0,0,0,46.61,107.73Zm19,7.59q6.42,0,9.8-4.56T78.8,97.58q0-8.56-3.4-13.13t-9.78-4.56q-6.42,0-9.8,4.56T52.44,97.58q0,8.63,3.38,13.18T65.62,115.32Zm0-6.81A3.51,3.51,0,0,1,62.24,106c-.68-1.7-1-4.49-1-8.38s.35-6.67,1-8.35a3.52,3.52,0,0,1,6.76,0q1,2.55,1,8.33T69,106A3.5,3.5,0,0,1,65.62,108.51ZM95,115.32q6.42,0,9.8-4.56t3.38-13.18q0-8.56-3.4-13.13T95,79.89q-6.42,0-9.8,4.56T81.84,97.58q0,8.63,3.38,13.18T95,115.32Zm0-6.81A3.51,3.51,0,0,1,91.64,106c-.68-1.7-1-4.49-1-8.38s.35-6.67,1-8.35a3.52,3.52,0,0,1,6.76,0q1,2.55,1,8.33t-1,8.38A3.5,3.5,0,0,1,95,108.51Z"/></svg>