<svg id="Layer_1" data-name="Layer 1" xmlns="http://www.w3.org/2000/svg" viewBox="0 0 130 130"><defs><style>.cls-1{fill:#020202;}</style></defs><title>l15_2_7</title><path class="cls-1" d="M30.42,86.26h-19A11.44,11.44,0,0,1,0,74.83v-19A11.44,11.44,0,0,1,11.44,44.41h19A11.44,11.44,0,0,1,41.85,55.85v19A11.43,11.43,0,0,1,30.42,86.26ZM28.74,69.08h-.86V55a3.31,3.31,0,0,0-1.06-2.62,3.66,3.66,0,0,0-2.54-.94,4,4,0,0,0-1.74.41A3.71,3.71,0,0,0,21.15,53L10,69a4.42,4.42,0,0,0-.86,2.59,3,3,0,0,0,.82,2.15,3,3,0,0,0,2.23.86h8.73v1.33a3.47,3.47,0,0,0,.95,2.66,3.54,3.54,0,0,0,2.53.9,3.6,3.6,0,0,0,2.54-.9,3.45,3.45,0,0,0,1-2.66V74.56h.86q3.41,0,3.4-2.78T28.74,69.08Zm-12.56,0,4.7-6.76v6.76Z"/><path d="M24.11,109.88a3.93,3.93,0,0,1-5.77,0L9.26,94.74a2.52,2.52,0,0,1,.05-3.09A3.39,3.39,0,0,1,12,90.56H29.31c.68,0,2.27-.09,3.08.8a3,3,0,0,1,.07,3.39Z"/><path d="M17.08,20.79a3.92,3.92,0,0,1,5.76,0l9.09,15.14a2.53,2.53,0,0,1-.05,3.1,3.48,3.48,0,0,1-2.64,1.09H11.88c-.68,0-2.27.1-3.08-.8a3,3,0,0,1-.07-3.39Z"/><path class="cls-1" d="M74.49,86.26h-19A11.44,11.44,0,0,1,44.07,74.83v-19A11.44,11.44,0,0,1,55.51,44.41h19A11.44,11.44,0,0,1,85.93,55.85v19A11.44,11.44,0,0,1,74.49,86.26Zm-1-17.18H72.6V55a3.34,3.34,0,0,0-1-2.62A3.69,3.69,0,0,0,69,51.4a4,4,0,0,0-1.74.41A3.6,3.6,0,0,0,65.88,53L54.69,69a4.35,4.35,0,0,0-.86,2.59,2.88,2.88,0,0,0,3.05,3H65.6v1.33a3.48,3.48,0,0,0,1,2.66,3.54,3.54,0,0,0,2.52.9,3.63,3.63,0,0,0,2.55-.9,3.45,3.45,0,0,0,1-2.66V74.56h.86q3.41,0,3.41-2.78T73.46,69.08Zm-12.55,0,4.69-6.76v6.76Z"/><path d="M68.18,109.88a3.92,3.92,0,0,1-5.76,0q-4.55-7.56-9.08-15.14a2.49,2.49,0,0,1,0-3.09A3.38,3.38,0,0,1,56,90.56H73.39c.67,0,2.26-.09,3.08.8a3,3,0,0,1,.07,3.39Z"/><path d="M61.15,20.79a3.93,3.93,0,0,1,5.77,0Q71.45,28.37,76,35.93A2.53,2.53,0,0,1,76,39a3.47,3.47,0,0,1-2.64,1.09H56c-.67,0-2.27.1-3.08-.8a3,3,0,0,1-.07-3.39Z"/><path class="cls-1" d="M118.56,86.26h-19A11.43,11.43,0,0,1,88.15,74.83v-19A11.44,11.44,0,0,1,99.58,44.41h19A11.44,11.44,0,0,1,130,55.85v19A11.44,11.44,0,0,1,118.56,86.26Zm-1-17.18h-.86V55a3.3,3.3,0,0,0-1.06-2.62,3.66,3.66,0,0,0-2.54-.94,4,4,0,0,0-1.74.41A3.63,3.63,0,0,0,110,53L98.76,69a4.42,4.42,0,0,0-.86,2.59,3,3,0,0,0,.82,2.15,3,3,0,0,0,2.23.86h8.73v1.33a3.47,3.47,0,0,0,.95,2.66,3.54,3.54,0,0,0,2.53.9,3.6,3.6,0,0,0,2.54-.9,3.45,3.45,0,0,0,1-2.66V74.56h.86q3.4,0,3.4-2.78T117.54,69.08Zm-12.56,0,4.7-6.77v6.77Z"/><path d="M112.26,109.88a4.06,4.06,0,0,1-3,1.26,4,4,0,0,1-2.8-1.26q-4.55-7.56-9.08-15.14a2.51,2.51,0,0,1,0-3.09,3.39,3.39,0,0,1,2.64-1.09h17.36c.67,0,2.26-.09,3.08.8a3,3,0,0,1,.07,3.39Z"/><path d="M105.23,20.79a3.92,3.92,0,0,1,5.76,0q4.55,7.58,9.08,15.14a2.52,2.52,0,0,1,0,3.1,3.46,3.46,0,0,1-2.63,1.09H100c-.67,0-2.26.1-3.08-.8a3,3,0,0,1-.07-3.39Z"/></svg>