<svg id="Layer_1" data-name="Layer 1" xmlns="http://www.w3.org/2000/svg" viewBox="0 0 130 130"><title>l15_1_1</title><path d="M118,62.62H12a12,12,0,0,1-12-12V17.47a12,12,0,0,1,12-12H118a12,12,0,0,1,12,12V50.65A12,12,0,0,1,118,62.62ZM58.47,44.76h-4V21.53a4.24,4.24,0,0,0-1.2-3.18,4.29,4.29,0,0,0-3.16-1.18A8.29,8.29,0,0,0,46,18.4L38.18,23a3.34,3.34,0,0,0-1.71,3,4.14,4.14,0,0,0,1,2.67,3,3,0,0,0,2.35,1.2,3.33,3.33,0,0,0,1.72-.49l3.92-2.3V44.76h-4a4.92,4.92,0,0,0-3.24.88,3.31,3.31,0,0,0-1,2.65q0,3.62,4.26,3.62h17q4.26,0,4.26-3.62a3.31,3.31,0,0,0-1-2.65A4.92,4.92,0,0,0,58.47,44.76Zm19,7.59q6.42,0,9.8-4.55t3.38-13.19q0-8.57-3.4-13.13t-9.78-4.55q-6.42,0-9.8,4.55T64.3,34.61q0,8.63,3.38,13.19T77.48,52.35Zm0-6.81A3.51,3.51,0,0,1,74.1,43c-.68-1.69-1-4.49-1-8.38s.35-6.67,1-8.35a3.52,3.52,0,0,1,6.76,0q1,2.55,1,8.33c0,3.89-.34,6.69-1,8.38A3.5,3.5,0,0,1,77.48,45.54Z"/><path d="M118,124.5H12a12,12,0,0,1-12-12V79.35a12,12,0,0,1,12-12H118a12,12,0,0,1,12,12v33.18A12,12,0,0,1,118,124.5Zm-42.4-17.27h-4V84a4.24,4.24,0,0,0-1.2-3.18,4.31,4.31,0,0,0-3.16-1.18,8.26,8.26,0,0,0-4.07,1.23l-7.84,4.55a3.34,3.34,0,0,0-1.72,3,4.14,4.14,0,0,0,1,2.67A3,3,0,0,0,57,92.33a3.3,3.3,0,0,0,1.71-.49l3.92-2.3v17.69h-4a4.87,4.87,0,0,0-3.23.88,3.29,3.29,0,0,0-1,2.65q0,3.61,4.26,3.62h17q4.28,0,4.27-3.62a3.32,3.32,0,0,0-1-2.65A4.92,4.92,0,0,0,75.63,107.23Z"/></svg>