<svg id="Layer_1" data-name="Layer 1" xmlns="http://www.w3.org/2000/svg" viewBox="0 0 130 130"><defs><style>.cls-1{fill:#020202;}</style></defs><title>l15_1_5</title><path class="cls-1" d="M30.42,86.55h-19A11.44,11.44,0,0,1,0,75.11v-19A11.44,11.44,0,0,1,11.44,44.69h19A11.44,11.44,0,0,1,41.85,56.13v19A11.44,11.44,0,0,1,30.42,86.55Zm-1.8-12.76H25.41V55.25a3.26,3.26,0,0,0-3.48-3.49,6.61,6.61,0,0,0-3.24,1l-6.26,3.64a2.65,2.65,0,0,0-1.37,2.43,3.3,3.3,0,0,0,.78,2.13,2.35,2.35,0,0,0,1.88,1,2.61,2.61,0,0,0,1.37-.4l3.13-1.83V73.79H15.05a3.88,3.88,0,0,0-2.58.7,2.63,2.63,0,0,0-.83,2.11q0,2.9,3.41,2.9H28.62q3.4,0,3.41-2.9a2.63,2.63,0,0,0-.83-2.11A3.9,3.9,0,0,0,28.62,73.79Z"/><path d="M24.11,111.17a3.93,3.93,0,0,1-5.77,0Q13.81,103.6,9.26,96a2.53,2.53,0,0,1,.05-3.1A3.39,3.39,0,0,1,12,91.84H29.31c.68-.06,2.27-.1,3.08.79A3,3,0,0,1,32.46,96Z"/><path d="M17.08,20.07a3.92,3.92,0,0,1,5.76,0l9.09,15.14a2.53,2.53,0,0,1-.05,3.1,3.4,3.4,0,0,1-2.64,1.09H11.88c-.68.06-2.27.1-3.08-.79a3,3,0,0,1-.07-3.39Z"/><path class="cls-1" d="M74.49,86.55h-19A11.44,11.44,0,0,1,44.07,75.11v-19A11.44,11.44,0,0,1,55.51,44.69h19A11.44,11.44,0,0,1,85.93,56.13v19A11.44,11.44,0,0,1,74.49,86.55ZM73.35,73.79H70.14V55.25a3.42,3.42,0,0,0-1-2.55,3.47,3.47,0,0,0-2.52-.94,6.65,6.65,0,0,0-3.25,1l-6.26,3.64a2.67,2.67,0,0,0-1.37,2.43,3.25,3.25,0,0,0,.79,2.13,2.34,2.34,0,0,0,1.87,1,2.59,2.59,0,0,0,1.37-.4l3.13-1.83V73.79H59.77a3.92,3.92,0,0,0-2.58.7,2.63,2.63,0,0,0-.82,2.11q0,2.9,3.4,2.9H73.35q3.41,0,3.4-2.9a2.63,2.63,0,0,0-.82-2.11A3.92,3.92,0,0,0,73.35,73.79Z"/><path d="M68.18,111.17a3.92,3.92,0,0,1-5.76,0L53.34,96a2.51,2.51,0,0,1,0-3.1A3.38,3.38,0,0,1,56,91.84H73.39c.67-.06,2.26-.1,3.08.79A3,3,0,0,1,76.54,96Z"/><path d="M61.15,20.07a4.14,4.14,0,0,1,3-1.26,4.1,4.1,0,0,1,2.8,1.26Q71.45,27.65,76,35.21a2.53,2.53,0,0,1,0,3.1,3.39,3.39,0,0,1-2.64,1.09H56c-.67.06-2.27.1-3.08-.79a3,3,0,0,1-.07-3.39Z"/><path class="cls-1" d="M118.56,86.55h-19A11.44,11.44,0,0,1,88.15,75.11v-19A11.44,11.44,0,0,1,99.58,44.69h19A11.44,11.44,0,0,1,130,56.13v19A11.44,11.44,0,0,1,118.56,86.55Zm-1.78-12.76h-3.21V55.25a3.42,3.42,0,0,0-1-2.55,3.47,3.47,0,0,0-2.52-.94,6.65,6.65,0,0,0-3.25,1l-6.26,3.64a2.67,2.67,0,0,0-1.37,2.43,3.3,3.3,0,0,0,.78,2.13,2.37,2.37,0,0,0,1.88,1,2.59,2.59,0,0,0,1.37-.4l3.13-1.83V73.79H103.2a3.92,3.92,0,0,0-2.58.7,2.63,2.63,0,0,0-.82,2.11q0,2.9,3.4,2.9h13.58c2.26,0,3.4-1,3.4-2.9a2.66,2.66,0,0,0-.82-2.11A3.92,3.92,0,0,0,116.78,73.79Z"/><path d="M112.26,111.17a4.1,4.1,0,0,1-3,1.26,4.05,4.05,0,0,1-2.8-1.26Q101.95,103.6,97.41,96a2.52,2.52,0,0,1,0-3.1,3.39,3.39,0,0,1,2.64-1.09h17.36c.67-.06,2.26-.1,3.08.79a3,3,0,0,1,.07,3.39Z"/><path d="M105.23,20.07a3.92,3.92,0,0,1,5.76,0l9.08,15.14a2.52,2.52,0,0,1,0,3.1,3.38,3.38,0,0,1-2.63,1.09H100c-.67.06-2.26.1-3.08-.79a3,3,0,0,1-.07-3.39Z"/></svg>