<svg id="Layer_1" data-name="Layer 1" xmlns="http://www.w3.org/2000/svg" viewBox="0 0 130 130"><title>l15_2_1</title><path d="M118.31,62.62H12.24a12,12,0,0,1-12-12V17.47a12,12,0,0,1,12-12H118.31a12,12,0,0,1,12,12V50.65A12,12,0,0,1,118.31,62.62Zm-89-17.86h-4V21.53a4.24,4.24,0,0,0-1.2-3.18A4.31,4.31,0,0,0,21,17.17,8.26,8.26,0,0,0,16.9,18.4L9.06,23a3.34,3.34,0,0,0-1.71,3,4.08,4.08,0,0,0,1,2.67,2.93,2.93,0,0,0,2.35,1.2,3.27,3.27,0,0,0,1.71-.49l3.92-2.3V44.76h-4a4.89,4.89,0,0,0-3.23.88,3.29,3.29,0,0,0-1,2.65q0,3.62,4.26,3.62h17q4.26,0,4.26-3.62a3.29,3.29,0,0,0-1-2.65A4.89,4.89,0,0,0,29.35,44.76Zm19,7.59q6.42,0,9.8-4.55t3.38-13.19q0-8.57-3.41-13.13t-9.77-4.55q-6.42,0-9.8,4.55T35.18,34.61q0,8.63,3.38,13.19T48.36,52.35Zm0-6.81A3.5,3.5,0,0,1,45,43c-.69-1.69-1-4.49-1-8.38s.34-6.67,1-8.35a3.52,3.52,0,0,1,6.76,0c.68,1.7,1,4.48,1,8.33s-.35,6.69-1,8.38A3.51,3.51,0,0,1,48.36,45.54Zm29.4,6.81q6.42,0,9.8-4.55t3.38-13.19q0-8.57-3.41-13.13t-9.77-4.55q-6.42,0-9.8,4.55T64.58,34.61q0,8.63,3.38,13.19T77.76,52.35Zm0-6.81A3.5,3.5,0,0,1,74.38,43c-.69-1.69-1-4.49-1-8.38s.34-6.67,1-8.35a3.52,3.52,0,0,1,6.76,0c.68,1.7,1,4.48,1,8.33s-.35,6.69-1,8.38A3.51,3.51,0,0,1,77.76,45.54Zm29.4,6.81q6.42,0,9.8-4.55t3.38-13.19q0-8.57-3.41-13.13t-9.77-4.55q-6.42,0-9.8,4.55T94,34.61q0,8.63,3.38,13.19T107.16,52.35Zm0-6.81A3.5,3.5,0,0,1,103.78,43c-.69-1.69-1-4.49-1-8.38s.34-6.67,1-8.35a3.52,3.52,0,0,1,6.76,0c.68,1.7,1,4.48,1,8.33s-.35,6.69-1,8.38A3.52,3.52,0,0,1,107.16,45.54Z"/><path d="M118.31,124.5H12.24a12,12,0,0,1-12-12V79.35a12,12,0,0,1,12-12H118.31a12,12,0,0,1,12,12v33.18A12,12,0,0,1,118.31,124.5Zm-71.8-17.27h-4V84a4.24,4.24,0,0,0-1.2-3.18,4.29,4.29,0,0,0-3.16-1.18,8.29,8.29,0,0,0-4.07,1.23l-7.84,4.55a3.34,3.34,0,0,0-1.71,3,4.14,4.14,0,0,0,1,2.67,3,3,0,0,0,2.35,1.2,3.33,3.33,0,0,0,1.72-.49l3.92-2.3v17.69h-4a4.92,4.92,0,0,0-3.24.88,3.32,3.32,0,0,0-1,2.65c0,2.41,1.43,3.62,4.27,3.62h17q4.26,0,4.26-3.62a3.29,3.29,0,0,0-1-2.65A4.87,4.87,0,0,0,46.51,107.23Zm19,7.59q6.42,0,9.8-4.55T78.7,97.08q0-8.56-3.4-13.13T65.52,79.4q-6.42,0-9.8,4.55T52.34,97.08q0,8.63,3.38,13.19T65.52,114.82Zm0-6.81a3.51,3.51,0,0,1-3.38-2.55c-.69-1.69-1-4.49-1-8.38s.34-6.67,1-8.35a3.52,3.52,0,0,1,6.76,0q1,2.55,1,8.33c0,3.89-.34,6.69-1,8.38A3.5,3.5,0,0,1,65.52,108Zm29.4,6.81q6.42,0,9.8-4.55t3.38-13.19q0-8.56-3.4-13.13T94.92,79.4q-6.42,0-9.8,4.55T81.74,97.08q0,8.63,3.38,13.19T94.92,114.82Zm0-6.81a3.51,3.51,0,0,1-3.38-2.55c-.69-1.69-1-4.49-1-8.38s.34-6.67,1-8.35a3.52,3.52,0,0,1,6.76,0q1,2.55,1,8.33c0,3.89-.34,6.69-1,8.38A3.5,3.5,0,0,1,94.92,108Z"/></svg>