<svg id="Layer_1" data-name="Layer 1" xmlns="http://www.w3.org/2000/svg" viewBox="0 0 130 130"><defs><style>.cls-1{fill:#020202;}</style></defs><title>l15_2_1</title><path class="cls-1" d="M47.89,96.69H12.82A11.44,11.44,0,0,1,1.38,85.25V50.18A11.44,11.44,0,0,1,12.82,38.74H47.89A11.44,11.44,0,0,1,59.33,50.18V85.25A11.44,11.44,0,0,1,47.89,96.69ZM37.31,67.27A8.82,8.82,0,0,0,41.62,64a9.07,9.07,0,0,0,1.54-5.22,9.47,9.47,0,0,0-1.65-5.53,10.55,10.55,0,0,0-4.72-3.68,17.86,17.86,0,0,0-7.06-1.3,21.69,21.69,0,0,0-6.42,1,18.11,18.11,0,0,0-5.5,2.71,4.44,4.44,0,0,0-1.3,1.46,4.29,4.29,0,0,0-.38,1.9,4.44,4.44,0,0,0,.92,2.84,2.8,2.8,0,0,0,2.28,1.17,3.42,3.42,0,0,0,1.35-.25c.4-.16.94-.42,1.63-.78l1.13-.54a26.68,26.68,0,0,1,3-1.3A8,8,0,0,1,29.24,56a4.64,4.64,0,0,1,3.3,1.11,4,4,0,0,1,1.2,3.11,3.06,3.06,0,0,1-1.36,2.77,8.38,8.38,0,0,1-4.33.86H25.67a3.09,3.09,0,0,0-2.55,1.14,4.45,4.45,0,0,0,0,5.42,3.11,3.11,0,0,0,2.55,1.13H29a8.16,8.16,0,0,1,4.44.92,3.4,3.4,0,0,1,1.36,3,3.76,3.76,0,0,1-1.33,3.25,7.51,7.51,0,0,1-4.36,1A9.73,9.73,0,0,1,26,79.21a24.56,24.56,0,0,1-3.12-1.32l-.67-.3-.52-.25q-1-.54-1.62-.78a3.62,3.62,0,0,0-1.36-.25,2.78,2.78,0,0,0-2.27,1.17,4.4,4.4,0,0,0-.92,2.84,4.13,4.13,0,0,0,.38,1.87,4.22,4.22,0,0,0,1.3,1.49,17.48,17.48,0,0,0,5.63,2.74,24.07,24.07,0,0,0,6.77.94A20.41,20.41,0,0,0,37.28,86a11.38,11.38,0,0,0,5.07-3.77,9.44,9.44,0,0,0,1.78-5.74,9.58,9.58,0,0,0-1.81-5.9A9.17,9.17,0,0,0,37.31,67.27Z"/><path d="M34.76,126.63a5.44,5.44,0,0,1-8,0l-12.57-21a3.5,3.5,0,0,1,.06-4.29,4.77,4.77,0,0,1,3.66-1.51H42c.93-.07,3.13-.13,4.26,1.11s.91,3.23.1,4.69Z"/><path d="M25,8.8a5.64,5.64,0,0,1,4.11-1.74A5.57,5.57,0,0,1,33,8.8q6.29,10.48,12.58,21a3.5,3.5,0,0,1-.07,4.29,4.76,4.76,0,0,1-3.65,1.51h-24c-.93.07-3.13.13-4.26-1.11s-.91-3.23-.1-4.69Z"/><path class="cls-1" d="M117.92,96.69H82.84A11.44,11.44,0,0,1,71.4,85.25V50.18A11.44,11.44,0,0,1,82.84,38.74h35.08a11.44,11.44,0,0,1,11.44,11.44V85.25A11.44,11.44,0,0,1,117.92,96.69ZM107.33,67.27A8.78,8.78,0,0,0,111.64,64a9,9,0,0,0,1.54-5.22,9.47,9.47,0,0,0-1.65-5.53,10.52,10.52,0,0,0-4.71-3.68,17.91,17.91,0,0,0-7.07-1.3,21.78,21.78,0,0,0-6.42,1,18.06,18.06,0,0,0-5.49,2.71,4.32,4.32,0,0,0-1.3,1.46,4.15,4.15,0,0,0-.38,1.9,4.38,4.38,0,0,0,.92,2.84,2.78,2.78,0,0,0,2.27,1.17,3.44,3.44,0,0,0,1.36-.25c.39-.16.94-.42,1.62-.78l1.14-.54a26.6,26.6,0,0,1,3-1.3A8.07,8.07,0,0,1,99.26,56a4.68,4.68,0,0,1,3.31,1.11,4.06,4.06,0,0,1,1.19,3.11,3,3,0,0,1-1.35,2.77,8.42,8.42,0,0,1-4.34.86H95.69a3.11,3.11,0,0,0-2.55,1.14,4.45,4.45,0,0,0,0,5.42,3.13,3.13,0,0,0,2.55,1.13h3.36a8.16,8.16,0,0,1,4.44.92,3.42,3.42,0,0,1,1.35,3,3.78,3.78,0,0,1-1.32,3.25,7.53,7.53,0,0,1-4.36,1A9.75,9.75,0,0,1,96,79.21a23.89,23.89,0,0,1-3.11-1.32l-.68-.3c-.2-.09-.37-.17-.51-.25-.69-.36-1.23-.62-1.63-.78a3.61,3.61,0,0,0-1.35-.25,2.8,2.8,0,0,0-2.28,1.17,4.46,4.46,0,0,0-.92,2.84,4.27,4.27,0,0,0,.38,1.87,4.32,4.32,0,0,0,1.3,1.49,17.69,17.69,0,0,0,5.63,2.74,24.17,24.17,0,0,0,6.77.94A20.46,20.46,0,0,0,107.31,86a11.4,11.4,0,0,0,5.06-3.77,9.45,9.45,0,0,0,1.79-5.74,9.65,9.65,0,0,0-1.81-5.9A9.2,9.2,0,0,0,107.33,67.27Z"/><path d="M104.79,126.63a5.68,5.68,0,0,1-4.12,1.74,5.57,5.57,0,0,1-3.86-1.74q-6.3-10.48-12.58-21a3.5,3.5,0,0,1,.07-4.29A4.76,4.76,0,0,1,88,99.86h24c.93-.07,3.14-.13,4.27,1.11s.9,3.23.09,4.69Z"/><path d="M95.05,8.8a5.45,5.45,0,0,1,8,0l12.57,21a3.5,3.5,0,0,1-.07,4.29,4.76,4.76,0,0,1-3.65,1.51h-24c-.93.07-3.14.13-4.27-1.11s-.9-3.23-.09-4.69Z"/></svg>