<svg id="Layer_1" data-name="Layer 1" xmlns="http://www.w3.org/2000/svg" viewBox="0 0 130 130"><defs><style>.cls-1{fill:#020202;}</style></defs><title>l15_3_7</title><path class="cls-1" d="M30.42,84.55h-19A11.44,11.44,0,0,1,0,73.11v-19A11.44,11.44,0,0,1,11.44,42.69h19A11.44,11.44,0,0,1,41.85,54.13v19A11.44,11.44,0,0,1,30.42,84.55Zm-7.75-25.2a7.56,7.56,0,0,0-3.3.72,6.19,6.19,0,0,0-2.41,2,10.5,10.5,0,0,1,1.47-5.11,3.75,3.75,0,0,1,3.23-1.82,5.25,5.25,0,0,1,1.8.32c.57.21,1.29.52,2.15.94l.86.43a12.3,12.3,0,0,0,1.17.56,2.52,2.52,0,0,0,1,.18,2.06,2.06,0,0,0,1.66-.84A3.15,3.15,0,0,0,31,54.65a2.79,2.79,0,0,0-.3-1.36,3.3,3.3,0,0,0-1-1.06,12.48,12.48,0,0,0-3.93-2,15.19,15.19,0,0,0-4.48-.7,10.63,10.63,0,0,0-6.09,1.76,11.45,11.45,0,0,0-4,5A18.94,18.94,0,0,0,9.77,64q0,6.66,3,10.25t8.53,3.6a10,10,0,0,0,5-1.21,8.8,8.8,0,0,0,3.43-3.39,10.44,10.44,0,0,0,.15-9.54,8,8,0,0,0-3-3.21A7.9,7.9,0,0,0,22.67,59.35Zm-1.79,13a3.13,3.13,0,0,1-2.43-1,3.83,3.83,0,0,1-.94-2.68,3.89,3.89,0,0,1,.92-2.7,3.13,3.13,0,0,1,2.45-1,3.11,3.11,0,0,1,2.44,1,4.57,4.57,0,0,1,0,5.42A3.07,3.07,0,0,1,20.88,72.34Z"/><path d="M24.11,108.17a3.93,3.93,0,0,1-5.77,0Q13.81,100.6,9.26,93a2.53,2.53,0,0,1,.05-3.1A3.39,3.39,0,0,1,12,88.84H29.31c.68-.06,2.27-.1,3.08.79A3,3,0,0,1,32.46,93Z"/><path d="M17.08,19.07a3.92,3.92,0,0,1,5.76,0l9.09,15.14a2.53,2.53,0,0,1-.05,3.1,3.4,3.4,0,0,1-2.64,1.09H11.88c-.68.06-2.27.1-3.08-.79a3,3,0,0,1-.07-3.39Z"/><path class="cls-1" d="M74.49,84.55h-19A11.44,11.44,0,0,1,44.07,73.11v-19A11.44,11.44,0,0,1,55.51,42.69h19A11.44,11.44,0,0,1,85.93,54.13v19A11.44,11.44,0,0,1,74.49,84.55ZM67.4,59.35a7.6,7.6,0,0,0-3.31.72,6.16,6.16,0,0,0-2.4,2,10.39,10.39,0,0,1,1.47-5.11,3.74,3.74,0,0,1,3.22-1.82,5.17,5.17,0,0,1,1.8.32,22.62,22.62,0,0,1,2.15.94l.87.43a11.24,11.24,0,0,0,1.17.56,2.52,2.52,0,0,0,1,.18A2.08,2.08,0,0,0,75,56.71a3.19,3.19,0,0,0,.68-2.06,2.79,2.79,0,0,0-.29-1.36,3.46,3.46,0,0,0-1-1.06,12.27,12.27,0,0,0-3.93-2,15.19,15.19,0,0,0-4.48-.7A10.6,10.6,0,0,0,60,51.33a11.32,11.32,0,0,0-4,5A18.94,18.94,0,0,0,54.49,64q0,6.66,3,10.25T66,77.85a10.08,10.08,0,0,0,5-1.21,8.71,8.71,0,0,0,3.42-3.39,10.48,10.48,0,0,0,.16-9.54,8.06,8.06,0,0,0-3-3.21A7.89,7.89,0,0,0,67.4,59.35Zm-1.8,13a3.11,3.11,0,0,1-2.42-1,4.36,4.36,0,0,1,0-5.38,3.46,3.46,0,0,1,4.89,0,4,4,0,0,1,.88,2.72,3.93,3.93,0,0,1-.9,2.7A3.08,3.08,0,0,1,65.6,72.34Z"/><path d="M68.18,108.17a3.92,3.92,0,0,1-5.76,0L53.34,93a2.51,2.51,0,0,1,0-3.1A3.38,3.38,0,0,1,56,88.84H73.39c.67-.06,2.26-.1,3.08.79A3,3,0,0,1,76.54,93Z"/><path d="M61.15,19.07a4.14,4.14,0,0,1,3-1.26,4.1,4.1,0,0,1,2.8,1.26Q71.45,26.65,76,34.21a2.53,2.53,0,0,1,0,3.1,3.39,3.39,0,0,1-2.64,1.09H56c-.67.06-2.27.1-3.08-.79a3,3,0,0,1-.07-3.39Z"/><path class="cls-1" d="M118.56,84.55h-19A11.44,11.44,0,0,1,88.15,73.11v-19A11.44,11.44,0,0,1,99.58,42.69h19A11.44,11.44,0,0,1,130,54.13v19A11.44,11.44,0,0,1,118.56,84.55Zm-7.09-25.2a7.56,7.56,0,0,0-3.3.72,6.19,6.19,0,0,0-2.41,2,10.5,10.5,0,0,1,1.47-5.11,3.75,3.75,0,0,1,3.23-1.82,5.25,5.25,0,0,1,1.8.32c.57.21,1.29.52,2.15.94l.86.43a12.3,12.3,0,0,0,1.17.56,2.52,2.52,0,0,0,1,.18,2.06,2.06,0,0,0,1.66-.84,3.15,3.15,0,0,0,.69-2.06,2.79,2.79,0,0,0-.3-1.36,3.3,3.3,0,0,0-1-1.06,12.43,12.43,0,0,0-3.94-2,15.07,15.07,0,0,0-4.47-.7A10.63,10.63,0,0,0,104,51.33a11.45,11.45,0,0,0-4,5A18.94,18.94,0,0,0,98.57,64q0,6.66,3,10.25t8.53,3.6a10,10,0,0,0,5-1.21,8.8,8.8,0,0,0,3.43-3.39,10.44,10.44,0,0,0,.15-9.54,8,8,0,0,0-3-3.21A7.9,7.9,0,0,0,111.47,59.35Zm-1.79,13a3.13,3.13,0,0,1-2.43-1,3.83,3.83,0,0,1-.94-2.68,3.89,3.89,0,0,1,.92-2.7,3.46,3.46,0,0,1,4.89,0,4.57,4.57,0,0,1,0,5.42A3.07,3.07,0,0,1,109.68,72.34Z"/><path d="M112.26,108.17a4.1,4.1,0,0,1-3,1.26,4.05,4.05,0,0,1-2.8-1.26Q101.95,100.6,97.41,93a2.52,2.52,0,0,1,0-3.1,3.39,3.39,0,0,1,2.64-1.09h17.36c.67-.06,2.26-.1,3.08.79a3,3,0,0,1,.07,3.39Z"/><path d="M105.23,19.07a3.92,3.92,0,0,1,5.76,0l9.08,15.14a2.52,2.52,0,0,1,0,3.1,3.38,3.38,0,0,1-2.63,1.09H100c-.67.06-2.26.1-3.08-.79a3,3,0,0,1-.07-3.39Z"/></svg>