<svg id="Layer_1" data-name="Layer 1" xmlns="http://www.w3.org/2000/svg" viewBox="0 0 130 130"><title>l15_2_1</title><path d="M118,62.62H11.94a12,12,0,0,1-12-12V17.47a12,12,0,0,1,12-12H118a12,12,0,0,1,12,12V50.65A12,12,0,0,1,118,62.62ZM24.24,42.92H20.88V23.49a3.54,3.54,0,0,0-1-2.66,3.61,3.61,0,0,0-2.65-1,6.87,6.87,0,0,0-3.4,1L7.27,24.68a2.77,2.77,0,0,0-1.43,2.54,3.44,3.44,0,0,0,.82,2.24,2.44,2.44,0,0,0,2,1,2.84,2.84,0,0,0,1.44-.41l3.28-1.93v14.8H10a4.14,4.14,0,0,0-2.71.74,2.78,2.78,0,0,0-.86,2.22q0,3,3.57,3H24.24q3.57,0,3.57-3A2.75,2.75,0,0,0,27,43.66,4.12,4.12,0,0,0,24.24,42.92Zm15.91,6.36a9.58,9.58,0,0,0,8.2-3.81q2.84-3.82,2.83-11t-2.85-11a9.6,9.6,0,0,0-8.18-3.81A9.59,9.59,0,0,0,32,23.45q-2.82,3.81-2.83,11t2.83,11A9.59,9.59,0,0,0,40.15,49.28Zm0-5.7a3,3,0,0,1-2.83-2.13,20.52,20.52,0,0,1-.86-7,20.34,20.34,0,0,1,.86-7,2.95,2.95,0,0,1,5.66,0,20.08,20.08,0,0,1,.86,7,20.27,20.27,0,0,1-.86,7A2.94,2.94,0,0,1,40.15,43.58Zm24.6,5.7A9.58,9.58,0,0,0,73,45.47q2.83-3.82,2.83-11t-2.85-11a9.6,9.6,0,0,0-8.18-3.81,9.59,9.59,0,0,0-8.2,3.81q-2.82,3.81-2.83,11t2.83,11A9.59,9.59,0,0,0,64.75,49.28Zm0-5.7a3,3,0,0,1-2.83-2.13,20.52,20.52,0,0,1-.86-7,20.34,20.34,0,0,1,.86-7,2.95,2.95,0,0,1,5.66,0,20.08,20.08,0,0,1,.86,7,20.27,20.27,0,0,1-.86,7A2.94,2.94,0,0,1,64.75,43.58Zm24.6,5.7a9.58,9.58,0,0,0,8.2-3.81q2.83-3.82,2.83-11t-2.85-11a9.6,9.6,0,0,0-8.18-3.81,9.59,9.59,0,0,0-8.2,3.81q-2.82,3.81-2.83,11t2.83,11A9.59,9.59,0,0,0,89.35,49.28Zm0-5.7a3,3,0,0,1-2.83-2.13,20.52,20.52,0,0,1-.86-7,20.34,20.34,0,0,1,.86-7,2.95,2.95,0,0,1,5.66,0,20.33,20.33,0,0,1,.86,7,20.52,20.52,0,0,1-.86,7A2.94,2.94,0,0,1,89.35,43.58Zm24.6,5.7a9.58,9.58,0,0,0,8.2-3.81q2.84-3.82,2.83-11t-2.85-11a10.71,10.71,0,0,0-16.38,0q-2.82,3.81-2.83,11t2.83,11A9.59,9.59,0,0,0,114,49.28Zm0-5.7a3,3,0,0,1-2.83-2.13,20.52,20.52,0,0,1-.86-7,20.34,20.34,0,0,1,.86-7,2.95,2.95,0,0,1,5.66,0,20.33,20.33,0,0,1,.86,7,20.52,20.52,0,0,1-.86,7A2.94,2.94,0,0,1,114,43.58Z"/><path d="M118,124.5H11.94a12,12,0,0,1-12-12V79.35a12,12,0,0,1,12-12H118a12,12,0,0,1,12,12v33.18A12,12,0,0,1,118,124.5ZM31.5,107.23h-4V84a4.24,4.24,0,0,0-1.2-3.18,4.31,4.31,0,0,0-3.16-1.18,8.26,8.26,0,0,0-4.07,1.23l-7.84,4.55a3.34,3.34,0,0,0-1.72,3,4.14,4.14,0,0,0,1,2.67,3,3,0,0,0,2.36,1.2,3.33,3.33,0,0,0,1.71-.49l3.92-2.3v17.69h-4a4.87,4.87,0,0,0-3.23.88,3.28,3.28,0,0,0-1,2.64q0,3.63,4.26,3.63h17q4.28,0,4.27-3.63a3.31,3.31,0,0,0-1-2.64A4.92,4.92,0,0,0,31.5,107.23Zm19,7.59q6.42,0,9.8-4.56T63.7,97.08q0-8.56-3.41-13.13t-9.77-4.56q-6.42,0-9.8,4.56T37.33,97.08q0,8.63,3.39,13.18T50.52,114.82Zm0-6.81a3.5,3.5,0,0,1-3.38-2.55q-1-2.55-1-8.38c0-3.88.34-6.67,1-8.35a3.52,3.52,0,0,1,6.76,0c.68,1.7,1,4.48,1,8.33s-.35,6.68-1,8.38A3.52,3.52,0,0,1,50.52,108Zm29.4,6.81q6.42,0,9.8-4.56T93.1,97.08q0-8.56-3.41-13.13t-9.77-4.56q-6.42,0-9.8,4.56T66.73,97.08q0,8.63,3.39,13.18T79.92,114.82Zm0-6.81a3.52,3.52,0,0,1-3.39-2.55q-1-2.55-1-8.38c0-3.88.34-6.67,1-8.35a3.53,3.53,0,0,1,6.77,0c.68,1.7,1,4.48,1,8.33s-.35,6.68-1,8.38A3.52,3.52,0,0,1,79.92,108Zm29.4,6.81q6.41,0,9.8-4.56t3.38-13.18q0-8.56-3.41-13.13t-9.77-4.56q-6.43,0-9.8,4.56T96.13,97.08q0,8.63,3.39,13.18T109.32,114.82Zm0-6.81a3.52,3.52,0,0,1-3.39-2.55q-1-2.55-1-8.38c0-3.88.34-6.67,1-8.35a3.53,3.53,0,0,1,6.77,0c.68,1.7,1,4.48,1,8.33s-.35,6.68-1,8.38A3.52,3.52,0,0,1,109.32,108Z"/></svg>