<svg id="Layer_1" data-name="Layer 1" xmlns="http://www.w3.org/2000/svg" viewBox="0 0 130 130"><title>l15_2_1</title><path d="M117.76,64.37H11.69a12,12,0,0,1-12-12V19.22a12,12,0,0,1,12-12H117.76a12,12,0,0,1,12,12V52.4A12,12,0,0,1,117.76,64.37ZM49.67,42.24a2.87,2.87,0,0,0,1.79-.58A2.65,2.65,0,0,0,52.41,40a4.48,4.48,0,0,1,1.1-2A22.16,22.16,0,0,1,56,35.73c1.14-1,2.07-1.88,2.79-2.6a9.87,9.87,0,0,0,1.84-2.6,7.41,7.41,0,0,0,.76-3.33A7.26,7.26,0,0,0,60,22.82a9.5,9.5,0,0,0-3.92-3,13.89,13.89,0,0,0-5.69-1.11,18.55,18.55,0,0,0-5.66.91,17.54,17.54,0,0,0-5,2.53,4.29,4.29,0,0,0-1.2,1.32,3.67,3.67,0,0,0-.37,1.71A4,4,0,0,0,39,27.72,2.6,2.6,0,0,0,41,28.77a6,6,0,0,0,2.7-.93l1.17-.59a18.31,18.31,0,0,1,2.48-1.2,6.21,6.21,0,0,1,2.23-.42,3.34,3.34,0,0,1,2.15.64A2.09,2.09,0,0,1,52.56,28,3.56,3.56,0,0,1,52,30a15,15,0,0,1-1.69,2.1,16.4,16.4,0,0,0-2.45,3.16A7.75,7.75,0,0,0,47,39.06a3.53,3.53,0,0,0,.71,2.35A2.47,2.47,0,0,0,49.67,42.24ZM49.77,54a4.55,4.55,0,0,0,3.4-1.38,4.75,4.75,0,0,0-3.4-8.13,4.54,4.54,0,0,0-3.36,1.37,4.91,4.91,0,0,0,0,6.76A4.51,4.51,0,0,0,49.77,54ZM74.85,42.24a2.85,2.85,0,0,0,1.79-.58,2.62,2.62,0,0,0,1-1.67,4.48,4.48,0,0,1,1.1-2,22.84,22.84,0,0,1,2.47-2.28c1.15-1,2.08-1.88,2.8-2.6a9.84,9.84,0,0,0,1.83-2.6,7.28,7.28,0,0,0,.76-3.33,7.2,7.2,0,0,0-1.42-4.38,9.37,9.37,0,0,0-3.92-3,13.84,13.84,0,0,0-5.68-1.11,18.5,18.5,0,0,0-5.66.91,17.54,17.54,0,0,0-5,2.53,4,4,0,0,0-1.2,1.32,3.55,3.55,0,0,0-.37,1.71,3.92,3.92,0,0,0,.86,2.58,2.59,2.59,0,0,0,2.08,1.05,6,6,0,0,0,2.69-.93l1.18-.59a18.25,18.25,0,0,1,2.47-1.2,6.25,6.25,0,0,1,2.23-.42,3.35,3.35,0,0,1,2.16.64A2.11,2.11,0,0,1,77.74,28a3.55,3.55,0,0,1-.56,2,16.62,16.62,0,0,1-1.69,2.1A16,16,0,0,0,73,35.21a7.64,7.64,0,0,0-.88,3.85,3.47,3.47,0,0,0,.71,2.35A2.44,2.44,0,0,0,74.85,42.24ZM75,54a4.57,4.57,0,0,0,3.41-1.38,4.93,4.93,0,0,0,0-6.76A4.6,4.6,0,0,0,75,44.45a4.54,4.54,0,0,0-3.36,1.37,4.93,4.93,0,0,0,0,6.76A4.51,4.51,0,0,0,75,54Z"/><path d="M117.76,126.25H11.69a12,12,0,0,1-12-12V81.1a12,12,0,0,1,12-12H117.76a12,12,0,0,1,12,12v33.18A12,12,0,0,1,117.76,126.25ZM52.13,104.71a2.85,2.85,0,0,0,1.79-.58,2.61,2.61,0,0,0,.95-1.67,4.6,4.6,0,0,1,1.11-2,21.92,21.92,0,0,1,2.47-2.28c1.14-1,2.08-1.88,2.79-2.6A9.64,9.64,0,0,0,63.08,93a7.28,7.28,0,0,0,.76-3.33,7.2,7.2,0,0,0-1.42-4.38,9.44,9.44,0,0,0-3.92-3,13.87,13.87,0,0,0-5.68-1.11,18.46,18.46,0,0,0-5.66.91,17.73,17.73,0,0,0-5,2.53,4.29,4.29,0,0,0-1.2,1.32,3.67,3.67,0,0,0-.36,1.71,4,4,0,0,0,.85,2.58,2.62,2.62,0,0,0,2.09,1,6,6,0,0,0,2.69-.93l1.18-.59a18.25,18.25,0,0,1,2.47-1.2,6.25,6.25,0,0,1,2.23-.42,3.37,3.37,0,0,1,2.16.64A2.11,2.11,0,0,1,55,90.46a3.64,3.64,0,0,1-.56,2,16.62,16.62,0,0,1-1.69,2.1,16,16,0,0,0-2.45,3.16,7.64,7.64,0,0,0-.88,3.85,3.47,3.47,0,0,0,.71,2.35A2.44,2.44,0,0,0,52.13,104.71Zm.1,11.71a4.53,4.53,0,0,0,3.4-1.37,4.91,4.91,0,0,0,0-6.76,4.85,4.85,0,0,0-6.76,0,4.93,4.93,0,0,0,0,6.76A4.5,4.5,0,0,0,52.23,116.42Zm25.09-11.71a2.87,2.87,0,0,0,1.79-.58,2.65,2.65,0,0,0,1-1.67,4.48,4.48,0,0,1,1.1-2,22.16,22.16,0,0,1,2.48-2.28c1.14-1,2.07-1.88,2.79-2.6A9.87,9.87,0,0,0,88.27,93,7.41,7.41,0,0,0,89,89.67a7.26,7.26,0,0,0-1.42-4.38,9.5,9.5,0,0,0-3.92-3A13.89,13.89,0,0,0,78,81.14a18.55,18.55,0,0,0-5.66.91,17.54,17.54,0,0,0-5,2.53,4.16,4.16,0,0,0-1.2,1.32,3.55,3.55,0,0,0-.37,1.71,4,4,0,0,0,.86,2.58,2.6,2.6,0,0,0,2.08,1,6,6,0,0,0,2.7-.93l1.17-.59A18.31,18.31,0,0,1,75,88.52a6.21,6.21,0,0,1,2.23-.42,3.34,3.34,0,0,1,2.15.64,2.09,2.09,0,0,1,.79,1.72,3.56,3.56,0,0,1-.57,2A15.77,15.77,0,0,1,78,94.52a16.4,16.4,0,0,0-2.45,3.16,7.75,7.75,0,0,0-.88,3.85,3.53,3.53,0,0,0,.71,2.35A2.47,2.47,0,0,0,77.32,104.71Zm.09,11.71a4.55,4.55,0,0,0,3.41-1.37,4.75,4.75,0,0,0-3.41-8.13,4.53,4.53,0,0,0-3.35,1.37,4.91,4.91,0,0,0,0,6.76A4.49,4.49,0,0,0,77.41,116.42Z"/></svg>