<svg id="Layer_1" data-name="Layer 1" xmlns="http://www.w3.org/2000/svg" viewBox="0 0 130 130"><title>l15_3_1</title><path d="M117.73,63.12H11.66a12,12,0,0,1-12-12V18a12,12,0,0,1,12-12H117.73a12,12,0,0,1,12,12V51.15A12,12,0,0,1,117.73,63.12ZM24,43.42H20.61V24a3.54,3.54,0,0,0-1-2.66,3.6,3.6,0,0,0-2.64-1,6.84,6.84,0,0,0-3.4,1L7,25.18a2.78,2.78,0,0,0-1.44,2.54A3.44,3.44,0,0,0,6.38,30a2.46,2.46,0,0,0,2,1,2.8,2.8,0,0,0,1.43-.41l3.28-1.93v14.8H9.74a4.09,4.09,0,0,0-2.7.74,2.74,2.74,0,0,0-.86,2.22c0,2,1.18,3,3.56,3H24q3.57,0,3.57-3a2.77,2.77,0,0,0-.86-2.22A4.14,4.14,0,0,0,24,43.42Zm15.91,6.36A9.59,9.59,0,0,0,48.08,46q2.82-3.82,2.83-11T48.06,24a9.6,9.6,0,0,0-8.18-3.81A9.58,9.58,0,0,0,31.68,24q-2.84,3.81-2.83,11t2.83,11A9.58,9.58,0,0,0,39.88,49.78Zm0-5.7A2.94,2.94,0,0,1,37.05,42a20.27,20.27,0,0,1-.86-7,20,20,0,0,1,.86-7,2.95,2.95,0,0,1,5.66,0,20.33,20.33,0,0,1,.86,7,20.52,20.52,0,0,1-.86,7A3,3,0,0,1,39.88,44.08Zm24.6,5.7A9.59,9.59,0,0,0,72.68,46q2.82-3.82,2.83-11T72.66,24a9.6,9.6,0,0,0-8.18-3.81A9.58,9.58,0,0,0,56.28,24q-2.84,3.81-2.83,11t2.83,11A9.58,9.58,0,0,0,64.48,49.78Zm0-5.7A2.94,2.94,0,0,1,61.65,42a20.27,20.27,0,0,1-.86-7,20,20,0,0,1,.86-7,2.95,2.95,0,0,1,5.66,0,20.33,20.33,0,0,1,.86,7,20.52,20.52,0,0,1-.86,7A3,3,0,0,1,64.48,44.08Zm24.6,5.7A9.59,9.59,0,0,0,97.28,46q2.82-3.82,2.83-11T97.26,24a9.6,9.6,0,0,0-8.18-3.81A9.58,9.58,0,0,0,80.88,24q-2.84,3.81-2.83,11t2.83,11A9.58,9.58,0,0,0,89.08,49.78Zm0-5.7A2.94,2.94,0,0,1,86.25,42a20.27,20.27,0,0,1-.86-7,20,20,0,0,1,.86-7,2.95,2.95,0,0,1,5.66,0,20.33,20.33,0,0,1,.86,7,20.52,20.52,0,0,1-.86,7A3,3,0,0,1,89.08,44.08Zm24.6,5.7a9.59,9.59,0,0,0,8.2-3.81q2.82-3.82,2.83-11t-2.85-11a10.71,10.71,0,0,0-16.38,0q-2.83,3.81-2.83,11t2.83,11A9.58,9.58,0,0,0,113.68,49.78Zm0-5.7A2.93,2.93,0,0,1,110.85,42a20.27,20.27,0,0,1-.86-7,20,20,0,0,1,.86-7,2.95,2.95,0,0,1,5.66,0,20.33,20.33,0,0,1,.86,7,20.52,20.52,0,0,1-.86,7A3,3,0,0,1,113.68,44.08Z"/><path d="M117.73,125H11.66a12,12,0,0,1-12-12V79.84a12,12,0,0,1,12-12H117.73a12,12,0,0,1,12,12V113A12,12,0,0,1,117.73,125Zm-86.5-17.27h-4V84.5A4.28,4.28,0,0,0,26,81.31a4.33,4.33,0,0,0-3.16-1.17,8.37,8.37,0,0,0-4.07,1.22l-7.84,4.56a3.34,3.34,0,0,0-1.71,3,4.14,4.14,0,0,0,1,2.67,3,3,0,0,0,2.35,1.2,3.33,3.33,0,0,0,1.72-.49L18.2,90v17.69h-4a4.92,4.92,0,0,0-3.24.88,3.31,3.31,0,0,0-1,2.64c0,2.42,1.43,3.63,4.27,3.63h17q4.26,0,4.26-3.63a3.28,3.28,0,0,0-1-2.64A4.87,4.87,0,0,0,31.23,107.73Zm19,7.59q6.42,0,9.8-4.56t3.38-13.18q0-8.56-3.4-13.13t-9.78-4.56q-6.42,0-9.8,4.56T37.06,97.58q0,8.63,3.38,13.18T50.24,115.32Zm0-6.81A3.51,3.51,0,0,1,46.86,106q-1-2.55-1-8.38c0-3.88.34-6.67,1-8.35a3.52,3.52,0,0,1,6.76,0q1,2.55,1,8.33t-1,8.38A3.5,3.5,0,0,1,50.24,108.51Zm29.4,6.81q6.42,0,9.8-4.56t3.38-13.18q0-8.56-3.4-13.13t-9.78-4.56q-6.42,0-9.8,4.56T66.46,97.58q0,8.63,3.38,13.18T79.64,115.32Zm0-6.81A3.51,3.51,0,0,1,76.26,106q-1-2.55-1-8.38c0-3.88.34-6.67,1-8.35a3.52,3.52,0,0,1,6.76,0q1,2.55,1,8.33T83,106A3.5,3.5,0,0,1,79.64,108.51Zm29.4,6.81q6.42,0,9.8-4.56t3.38-13.18q0-8.56-3.4-13.13T109,79.89q-6.42,0-9.8,4.56T95.86,97.58q0,8.63,3.38,13.18T109,115.32Zm0-6.81a3.51,3.51,0,0,1-3.38-2.55q-1-2.55-1-8.38c0-3.88.34-6.67,1-8.35a3.52,3.52,0,0,1,6.76,0q1,2.55,1,8.33t-1,8.38A3.51,3.51,0,0,1,109,108.51Z"/></svg>