<svg id="Layer_1" data-name="Layer 1" xmlns="http://www.w3.org/2000/svg" viewBox="0 0 130 130"><defs><style>.cls-1{fill:#020202;}</style></defs><title>l15_1_1</title><path class="cls-1" d="M47.53,94.48H12.45A11.44,11.44,0,0,1,1,83V48A11.44,11.44,0,0,1,12.45,36.52H47.53A11.44,11.44,0,0,1,59,48V83A11.44,11.44,0,0,1,47.53,94.48ZM40.11,76.81H29.22L36.91,69a25,25,0,0,0,4.53-6.09,13.71,13.71,0,0,0,1.32-6,10,10,0,0,0-1.65-5.66,10.61,10.61,0,0,0-4.68-3.79,17.54,17.54,0,0,0-7-1.33,21.21,21.21,0,0,0-6.26,1,20.89,20.89,0,0,0-5.71,2.71,3.56,3.56,0,0,0-1.33,1.4A5.24,5.24,0,0,0,16.66,56a2.76,2.76,0,0,0,2.27,1.22A3.17,3.17,0,0,0,20,57a6,6,0,0,0,1.11-.52l.84-.46L23,55.52a25.64,25.64,0,0,1,3.06-1.33A8.93,8.93,0,0,1,29,53.73a4.28,4.28,0,0,1,3,1A3.66,3.66,0,0,1,33,57.53c0,2.09-1.2,4.38-3.58,6.87L18,76.37a6,6,0,0,0-1.84,4.23,3.95,3.95,0,0,0,4.22,4.12H40.11a5.45,5.45,0,0,0,3.55-1,3.75,3.75,0,0,0,1.16-3,3.59,3.59,0,0,0-1.16-2.95A5.51,5.51,0,0,0,40.11,76.81Z"/><path d="M34.4,125.41a5.43,5.43,0,0,1-8,0l-12.57-21a3.5,3.5,0,0,1,.07-4.29,4.72,4.72,0,0,1,3.65-1.51h24c.93-.07,3.13-.13,4.27,1.1s.9,3.23.09,4.7Z"/><path d="M24.66,4.59a5.42,5.42,0,0,1,8,0l12.58,21a3.5,3.5,0,0,1-.07,4.29,4.72,4.72,0,0,1-3.65,1.51h-24c-.94.07-3.14.13-4.27-1.1s-.9-3.23-.1-4.7Z"/><path class="cls-1" d="M117.55,94.48H82.47A11.44,11.44,0,0,1,71,83V48A11.44,11.44,0,0,1,82.47,36.52h35.08A11.44,11.44,0,0,1,129,48V83A11.44,11.44,0,0,1,117.55,94.48Zm-7.41-17.67H99.25L106.94,69a24.92,24.92,0,0,0,4.52-6.09,13.58,13.58,0,0,0,1.33-6,10,10,0,0,0-1.65-5.66,10.59,10.59,0,0,0-4.69-3.79,17.51,17.51,0,0,0-7-1.33,22.13,22.13,0,0,0-12,3.69,3.63,3.63,0,0,0-1.33,1.4,4.76,4.76,0,0,0-.35,1.95,4.69,4.69,0,0,0,.92,2.9A2.79,2.79,0,0,0,89,57.2,3.22,3.22,0,0,0,90,57a6.61,6.61,0,0,0,1.11-.52l.84-.46L93,55.52a27.13,27.13,0,0,1,3.06-1.33,9,9,0,0,1,2.9-.46,4.25,4.25,0,0,1,3,1A3.63,3.63,0,0,1,103,57.53q0,3.13-3.57,6.87L88,76.37a6,6,0,0,0-1.84,4.23,4,4,0,0,0,1.14,3,4.12,4.12,0,0,0,3.09,1.17h19.77a5.42,5.42,0,0,0,3.54-1,3.72,3.72,0,0,0,1.17-3,3.56,3.56,0,0,0-1.17-2.95A5.48,5.48,0,0,0,110.14,76.81Z"/><path d="M104.42,125.41a5.42,5.42,0,0,1-8,0l-12.58-21a3.5,3.5,0,0,1,.07-4.29,4.72,4.72,0,0,1,3.65-1.51h24c.94-.07,3.14-.13,4.27,1.1s.9,3.23.1,4.7Z"/><path d="M94.68,4.59a5.43,5.43,0,0,1,8,0l12.57,21a3.48,3.48,0,0,1-.07,4.29,4.72,4.72,0,0,1-3.65,1.51h-24c-.93.07-3.13.13-4.27-1.1s-.9-3.23-.09-4.7Z"/></svg>