<svg id="Layer_1" data-name="Layer 1" xmlns="http://www.w3.org/2000/svg" viewBox="0 0 130 130"><defs><style>.cls-1{fill:#020202;}</style></defs><title>l15_3_1</title><path class="cls-1" d="M47.41,97.36l-35.08-.13A11.44,11.44,0,0,1,.94,85.74l.13-35.07A11.44,11.44,0,0,1,12.56,39.28l35.07.13A11.44,11.44,0,0,1,59,50.9L58.89,86A11.44,11.44,0,0,1,47.41,97.36ZM32.73,62.58a13.58,13.58,0,0,0-5.36,1l0-6.66,11.7.05q4.71,0,4.73-3.78t-4.7-3.75l-16.79-.07a4.62,4.62,0,0,0-3.41,1.18A4.69,4.69,0,0,0,17.71,54l-.06,14.68a3,3,0,0,0,1,2.36,3.72,3.72,0,0,0,2.54.9,5.13,5.13,0,0,0,2.44-.58,19.44,19.44,0,0,1,3.12-1,15.72,15.72,0,0,1,2.95-.26,6.1,6.1,0,0,1,4.22,1.38,4.82,4.82,0,0,1,1.51,3.79A4.67,4.67,0,0,1,34,79.07a7,7,0,0,1-4.5,1.21,9.09,9.09,0,0,1-3-.5,30,30,0,0,1-3.05-1.32l-1.08-.54a17.6,17.6,0,0,0-1.62-.82,3.59,3.59,0,0,0-1.36-.22A2.79,2.79,0,0,0,17.07,78a4.53,4.53,0,0,0-.93,2.84,4,4,0,0,0,.4,1.87,4.71,4.71,0,0,0,1.27,1.5A17.81,17.81,0,0,0,23.35,87a22.56,22.56,0,0,0,6.57,1,17.56,17.56,0,0,0,7.76-1.6,12.13,12.13,0,0,0,5.21-4.58,12.76,12.76,0,0,0,1.87-6.87,12.91,12.91,0,0,0-1.52-6.42A10.88,10.88,0,0,0,39,64.15,12.47,12.47,0,0,0,32.73,62.58Z"/><path d="M34.39,127.23A5.67,5.67,0,0,1,30.27,129a5.6,5.6,0,0,1-3.86-1.75l-12.58-21A3.5,3.5,0,0,1,13.9,102a4.72,4.72,0,0,1,3.65-1.51h24c.93-.07,3.14-.13,4.27,1.1s.9,3.23.09,4.7Z"/><path d="M24.65,9.41a5.43,5.43,0,0,1,8,0l12.57,21a3.5,3.5,0,0,1-.07,4.29,4.72,4.72,0,0,1-3.65,1.51h-24c-.93.07-3.14.13-4.27-1.1s-.9-3.23-.09-4.7Z"/><path class="cls-1" d="M117.54,97.3H82.47A11.44,11.44,0,0,1,71,85.86V50.78A11.44,11.44,0,0,1,82.47,39.34h35.07A11.44,11.44,0,0,1,129,50.78V85.86A11.44,11.44,0,0,1,117.54,97.3Zm-14.8-34.73a13.59,13.59,0,0,0-5.37,1V56.88h11.7c3.14,0,4.72-1.26,4.72-3.79s-1.58-3.74-4.72-3.74H92.28a4.62,4.62,0,0,0-3.41,1.19A4.73,4.73,0,0,0,87.68,54V68.69a2.94,2.94,0,0,0,1,2.35,3.71,3.71,0,0,0,2.54.9,5.15,5.15,0,0,0,2.44-.6,18.84,18.84,0,0,1,3.12-1,14.75,14.75,0,0,1,3-.27A6.13,6.13,0,0,1,104,71.45a4.82,4.82,0,0,1,1.52,3.79A4.71,4.71,0,0,1,104,79.06a7,7,0,0,1-4.5,1.22,8.92,8.92,0,0,1-3-.49,29.56,29.56,0,0,1-3.06-1.3L92.39,78a14.79,14.79,0,0,0-1.62-.81,3.62,3.62,0,0,0-1.36-.22,2.8,2.8,0,0,0-2.27,1.16,4.43,4.43,0,0,0-.92,2.85,4.06,4.06,0,0,0,.4,1.87,4.84,4.84,0,0,0,1.28,1.49A17.94,17.94,0,0,0,93.45,87,22.61,22.61,0,0,0,100,88a17.48,17.48,0,0,0,7.74-1.63,12.14,12.14,0,0,0,5.2-4.6,12.78,12.78,0,0,0,1.84-6.88,13,13,0,0,0-1.54-6.42A11,11,0,0,0,109,64.11,12.48,12.48,0,0,0,102.74,62.57Z"/><path d="M104.41,127.23a5.42,5.42,0,0,1-8,0l-12.57-21a3.5,3.5,0,0,1,.06-4.29,4.73,4.73,0,0,1,3.65-1.51h24.05c.93-.07,3.13-.13,4.26,1.1s.91,3.23.1,4.7Z"/><path d="M94.68,9.41a5.42,5.42,0,0,1,8,0l12.57,21a3.5,3.5,0,0,1-.06,4.29,4.73,4.73,0,0,1-3.65,1.51h-24c-.93.07-3.13.13-4.26-1.1s-.91-3.23-.1-4.7Z"/></svg>