<svg id="Layer_1" data-name="Layer 1" xmlns="http://www.w3.org/2000/svg" viewBox="0 0 130 130"><defs><style>.cls-1{fill:#020202;}</style></defs><title>l15_1_1</title><path class="cls-1" d="M47.17,94H12.09A11.44,11.44,0,0,1,.65,82.54V47.46A11.44,11.44,0,0,1,12.09,36H47.17A11.44,11.44,0,0,1,58.61,47.46V82.54A11.44,11.44,0,0,1,47.17,94Zm-6-17.67H36.75V50.63a4.69,4.69,0,0,0-1.33-3.52,4.81,4.81,0,0,0-3.49-1.3,9.21,9.21,0,0,0-4.5,1.36l-8.66,5a3.65,3.65,0,0,0-1.9,3.35,4.58,4.58,0,0,0,1.08,3,3.28,3.28,0,0,0,2.6,1.32,3.73,3.73,0,0,0,1.9-.54l4.33-2.54V76.31H22.39a5.42,5.42,0,0,0-3.57,1,3.65,3.65,0,0,0-1.14,2.93q0,4,4.71,4h18.8q4.71,0,4.71-4a3.65,3.65,0,0,0-1.14-2.93A5.4,5.4,0,0,0,41.19,76.31Z"/><path d="M34,124.91a5.43,5.43,0,0,1-8,0L13.48,104a3.5,3.5,0,0,1,.07-4.29,4.72,4.72,0,0,1,3.65-1.51h24c.93-.07,3.14-.13,4.27,1.1s.9,3.23.09,4.7Z"/><path d="M24.3,4.09a5.67,5.67,0,0,1,4.12-1.75,5.6,5.6,0,0,1,3.86,1.75l12.58,21a3.5,3.5,0,0,1-.07,4.29,4.72,4.72,0,0,1-3.65,1.51h-24c-.93.07-3.14.13-4.27-1.1s-.9-3.23-.09-4.7Z"/><path class="cls-1" d="M117.19,94H82.12A11.44,11.44,0,0,1,70.68,82.54V47.46A11.44,11.44,0,0,1,82.12,36h35.07a11.44,11.44,0,0,1,11.44,11.44V82.54A11.44,11.44,0,0,1,117.19,94Zm-6-17.67h-4.44V50.63a4.72,4.72,0,0,0-1.32-3.52,4.82,4.82,0,0,0-3.5-1.3,9.18,9.18,0,0,0-4.49,1.36l-8.67,5a3.67,3.67,0,0,0-1.9,3.35,4.59,4.59,0,0,0,1.09,3,3.26,3.26,0,0,0,2.6,1.32,3.67,3.67,0,0,0,1.89-.54l4.34-2.54V76.31H92.42a5.38,5.38,0,0,0-3.57,1,3.65,3.65,0,0,0-1.14,2.93q0,4,4.71,4h18.79c3.14,0,4.72-1.34,4.72-4a3.65,3.65,0,0,0-1.14-2.93A5.43,5.43,0,0,0,111.21,76.31Z"/><path d="M104.06,124.91a5.42,5.42,0,0,1-8,0L83.5,104a3.5,3.5,0,0,1,.07-4.29,4.72,4.72,0,0,1,3.65-1.51h24c.93-.07,3.13-.13,4.26,1.1s.91,3.23.1,4.7Z"/><path d="M94.33,4.09a5.42,5.42,0,0,1,8,0l12.57,21a3.5,3.5,0,0,1-.06,4.29,4.73,4.73,0,0,1-3.66,1.51h-24c-.93.07-3.13.13-4.26-1.1s-.91-3.23-.1-4.7Z"/></svg>