<svg id="Layer_1" data-name="Layer 1" xmlns="http://www.w3.org/2000/svg" viewBox="0 0 130 130"><title>l15_1_1</title><path d="M118,62.62H12a12,12,0,0,1-12-12V17.47a12,12,0,0,1,12-12H118a12,12,0,0,1,12,12V50.65A12,12,0,0,1,118,62.62ZM49.94,40.49a2.83,2.83,0,0,0,1.79-.58,2.62,2.62,0,0,0,1-1.67,4.48,4.48,0,0,1,1.1-2A22.16,22.16,0,0,1,56.27,34c1.14-1,2.07-1.88,2.79-2.6a9.87,9.87,0,0,0,1.84-2.6,7.41,7.41,0,0,0,.76-3.33,7.2,7.2,0,0,0-1.43-4.38,9.37,9.37,0,0,0-3.92-3,13.84,13.84,0,0,0-5.68-1.1,18.54,18.54,0,0,0-5.66.9,17.54,17.54,0,0,0-5,2.53,4,4,0,0,0-1.2,1.32,3.55,3.55,0,0,0-.37,1.71A4,4,0,0,0,39.24,26,2.59,2.59,0,0,0,41.32,27a6,6,0,0,0,2.7-.93l1.17-.59a18.31,18.31,0,0,1,2.48-1.2,6.17,6.17,0,0,1,2.23-.42,3.34,3.34,0,0,1,2.15.64,2.12,2.12,0,0,1,.79,1.72,3.56,3.56,0,0,1-.57,2,15.77,15.77,0,0,1-1.69,2.1,16.4,16.4,0,0,0-2.45,3.16,7.64,7.64,0,0,0-.88,3.85A3.53,3.53,0,0,0,48,39.66,2.44,2.44,0,0,0,49.94,40.49ZM50,52.21a4.57,4.57,0,0,0,3.41-1.38A4.75,4.75,0,0,0,50,42.7a4.5,4.5,0,0,0-3.35,1.37,4.91,4.91,0,0,0,0,6.76A4.47,4.47,0,0,0,50,52.21ZM75.13,40.49a2.85,2.85,0,0,0,1.79-.58,2.65,2.65,0,0,0,1-1.67,4.5,4.5,0,0,1,1.11-2A21.92,21.92,0,0,1,81.45,34c1.14-1,2.08-1.88,2.79-2.6a9.64,9.64,0,0,0,1.84-2.6,7.28,7.28,0,0,0,.76-3.33,7.2,7.2,0,0,0-1.42-4.38,9.44,9.44,0,0,0-3.92-3,13.87,13.87,0,0,0-5.68-1.1,18.44,18.44,0,0,0-5.66.9,17.6,17.6,0,0,0-5,2.53,4.29,4.29,0,0,0-1.2,1.32,3.67,3.67,0,0,0-.36,1.71A4,4,0,0,0,64.42,26,2.62,2.62,0,0,0,66.51,27a6,6,0,0,0,2.69-.93l1.18-.59a18.25,18.25,0,0,1,2.47-1.2,6.25,6.25,0,0,1,2.23-.42,3.37,3.37,0,0,1,2.16.64A2.11,2.11,0,0,1,78,26.24a3.64,3.64,0,0,1-.56,2,16.62,16.62,0,0,1-1.69,2.1,16,16,0,0,0-2.45,3.16,7.64,7.64,0,0,0-.88,3.85,3.47,3.47,0,0,0,.71,2.35A2.44,2.44,0,0,0,75.13,40.49Zm.1,11.72a4.55,4.55,0,0,0,3.4-1.38,4.75,4.75,0,0,0-3.4-8.13,4.54,4.54,0,0,0-3.36,1.37,4.91,4.91,0,0,0,0,6.76A4.51,4.51,0,0,0,75.23,52.21Z"/><path d="M118,124.5H12a12,12,0,0,1-12-12V79.35a12,12,0,0,1,12-12H118a12,12,0,0,1,12,12v33.18A12,12,0,0,1,118,124.5ZM52.41,103a2.85,2.85,0,0,0,1.79-.58,2.65,2.65,0,0,0,.95-1.67,4.5,4.5,0,0,1,1.11-2,21.92,21.92,0,0,1,2.47-2.28c1.14-1,2.07-1.88,2.79-2.6a9.87,9.87,0,0,0,1.84-2.6,7.28,7.28,0,0,0,.76-3.33,7.2,7.2,0,0,0-1.42-4.38,9.44,9.44,0,0,0-3.92-3,13.87,13.87,0,0,0-5.68-1.1,18.44,18.44,0,0,0-5.66.9,17.6,17.6,0,0,0-5,2.53,4.29,4.29,0,0,0-1.2,1.32,3.67,3.67,0,0,0-.36,1.71,4,4,0,0,0,.85,2.58,2.61,2.61,0,0,0,2.09,1,6,6,0,0,0,2.69-.93L47.66,88a18.25,18.25,0,0,1,2.47-1.2,6.25,6.25,0,0,1,2.23-.42,3.39,3.39,0,0,1,2.16.64,2.11,2.11,0,0,1,.78,1.72,3.64,3.64,0,0,1-.56,2,16.62,16.62,0,0,1-1.69,2.1,15.64,15.64,0,0,0-2.45,3.16,7.64,7.64,0,0,0-.89,3.85,3.53,3.53,0,0,0,.71,2.35A2.47,2.47,0,0,0,52.41,103Zm.1,11.72a4.55,4.55,0,0,0,3.4-1.38,4.75,4.75,0,0,0-3.4-8.13,4.54,4.54,0,0,0-3.36,1.37,4.91,4.91,0,0,0,0,6.76A4.51,4.51,0,0,0,52.51,114.68ZM77.59,103a2.83,2.83,0,0,0,1.79-.58,2.62,2.62,0,0,0,1-1.67,4.48,4.48,0,0,1,1.1-2,22.16,22.16,0,0,1,2.48-2.28c1.14-1,2.07-1.88,2.79-2.6a9.87,9.87,0,0,0,1.84-2.6,7.41,7.41,0,0,0,.76-3.33,7.2,7.2,0,0,0-1.43-4.38,9.37,9.37,0,0,0-3.92-3,13.84,13.84,0,0,0-5.68-1.1,18.54,18.54,0,0,0-5.66.9,17.54,17.54,0,0,0-5,2.53,4,4,0,0,0-1.2,1.32A3.55,3.55,0,0,0,66,85.86a4,4,0,0,0,.86,2.58,2.59,2.59,0,0,0,2.08,1,6,6,0,0,0,2.7-.93L72.84,88a18.31,18.31,0,0,1,2.48-1.2,6.17,6.17,0,0,1,2.23-.42A3.34,3.34,0,0,1,79.7,87a2.12,2.12,0,0,1,.79,1.72,3.56,3.56,0,0,1-.57,2,15.77,15.77,0,0,1-1.69,2.1,16.4,16.4,0,0,0-2.45,3.16,7.64,7.64,0,0,0-.88,3.85,3.53,3.53,0,0,0,.71,2.35A2.45,2.45,0,0,0,77.59,103Zm.1,11.72a4.57,4.57,0,0,0,3.41-1.38,4.75,4.75,0,0,0-3.41-8.13,4.5,4.5,0,0,0-3.35,1.37,4.91,4.91,0,0,0,0,6.76A4.47,4.47,0,0,0,77.69,114.68Z"/></svg>