<svg id="Layer_1" data-name="Layer 1" xmlns="http://www.w3.org/2000/svg" viewBox="0 0 130 130"><defs><style>.cls-1{fill:#020202;}</style></defs><title>l15_3_5</title><path class="cls-1" d="M30.42,86.87h-19A11.44,11.44,0,0,1,0,75.43v-19A11.44,11.44,0,0,1,11.44,45h19A11.44,11.44,0,0,1,41.85,56.45v19A11.44,11.44,0,0,1,30.42,86.87ZM22.25,61.79a9.81,9.81,0,0,0-3.88.7V57.68h8.45q3.41,0,3.4-2.74t-3.4-2.7H14.7a3.36,3.36,0,0,0-2.47.86,3.4,3.4,0,0,0-.86,2.5V66.21a2.16,2.16,0,0,0,.74,1.7,2.71,2.71,0,0,0,1.84.64,3.7,3.7,0,0,0,1.76-.43,13.62,13.62,0,0,1,2.25-.7,10.71,10.71,0,0,1,2.13-.2,4.42,4.42,0,0,1,3.05,1,3.49,3.49,0,0,1,1.1,2.74,3.38,3.38,0,0,1-1.06,2.76,5,5,0,0,1-3.24.88,6.29,6.29,0,0,1-2.17-.36,19.7,19.7,0,0,1-2.21-.93l-.79-.4a12,12,0,0,0-1.17-.58,2.54,2.54,0,0,0-1-.16A2,2,0,0,0,11,73a3.24,3.24,0,0,0-.67,2.06,2.86,2.86,0,0,0,.3,1.35,3.44,3.44,0,0,0,.92,1.07,12.71,12.71,0,0,0,4,2,16.26,16.26,0,0,0,4.75.7A12.7,12.7,0,0,0,25.88,79a8.78,8.78,0,0,0,3.76-3.33,10,10,0,0,0,.21-9.6,7.89,7.89,0,0,0-3.09-3.13A9,9,0,0,0,22.25,61.79Z"/><path d="M24.11,110.49a3.93,3.93,0,0,1-5.77,0q-4.53-7.58-9.08-15.14a2.53,2.53,0,0,1,.05-3.1A3.39,3.39,0,0,1,12,91.16H29.31c.68-.06,2.27-.1,3.08.79a3,3,0,0,1,.07,3.39Z"/><path d="M17.08,21.39a3.92,3.92,0,0,1,5.76,0l9.09,15.14a2.53,2.53,0,0,1-.05,3.1,3.4,3.4,0,0,1-2.64,1.09H11.88c-.68.06-2.27.1-3.08-.79a3,3,0,0,1-.07-3.39Z"/><path class="cls-1" d="M74.49,86.87h-19A11.44,11.44,0,0,1,44.07,75.43v-19A11.44,11.44,0,0,1,55.51,45h19A11.44,11.44,0,0,1,85.93,56.45v19A11.44,11.44,0,0,1,74.49,86.87ZM67,61.79a9.73,9.73,0,0,0-3.87.7V57.68h8.45q3.4,0,3.4-2.74t-3.4-2.7H59.42A3,3,0,0,0,56.1,55.6V66.21a2.13,2.13,0,0,0,.74,1.7,2.7,2.7,0,0,0,1.84.64,3.72,3.72,0,0,0,1.76-.43,13.62,13.62,0,0,1,2.25-.7,10.71,10.71,0,0,1,2.13-.2,4.44,4.44,0,0,1,3.05,1A3.49,3.49,0,0,1,69,70.94a3.42,3.42,0,0,1-1.06,2.76,5,5,0,0,1-3.25.88,6.37,6.37,0,0,1-2.17-.36,21.39,21.39,0,0,1-2.21-.93l-.78-.4a12,12,0,0,0-1.17-.58,2.58,2.58,0,0,0-1-.16A2,2,0,0,0,55.7,73,3.24,3.24,0,0,0,55,75.05a3,3,0,0,0,.29,1.35,3.73,3.73,0,0,0,.92,1.07,12.82,12.82,0,0,0,4,2,16.31,16.31,0,0,0,4.75.7A12.74,12.74,0,0,0,70.61,79a8.75,8.75,0,0,0,3.75-3.33,9.2,9.2,0,0,0,1.33-5A9.45,9.45,0,0,0,74.58,66a7.89,7.89,0,0,0-3.09-3.13A9.07,9.07,0,0,0,67,61.79Z"/><path d="M68.18,110.49a3.92,3.92,0,0,1-5.76,0L53.34,95.35a2.51,2.51,0,0,1,0-3.1A3.38,3.38,0,0,1,56,91.16H73.39c.67-.06,2.26-.1,3.08.79a3,3,0,0,1,.07,3.39Z"/><path d="M61.15,21.39a4.14,4.14,0,0,1,3-1.26,4.1,4.1,0,0,1,2.8,1.26Q71.45,29,76,36.53a2.53,2.53,0,0,1,0,3.1,3.39,3.39,0,0,1-2.64,1.09H56c-.67.06-2.27.1-3.08-.79a3,3,0,0,1-.07-3.39Z"/><path class="cls-1" d="M118.56,86.87h-19A11.44,11.44,0,0,1,88.15,75.43v-19A11.44,11.44,0,0,1,99.58,45h19A11.44,11.44,0,0,1,130,56.45v19A11.44,11.44,0,0,1,118.56,86.87ZM111,61.79a9.8,9.8,0,0,0-3.87.7V57.68h8.45q3.41,0,3.4-2.74t-3.4-2.7H103.49a3.33,3.33,0,0,0-2.46.86,3.4,3.4,0,0,0-.86,2.5V66.21a2.16,2.16,0,0,0,.74,1.7,2.71,2.71,0,0,0,1.84.64,3.7,3.7,0,0,0,1.76-.43,13.62,13.62,0,0,1,2.25-.7,10.71,10.71,0,0,1,2.13-.2,4.42,4.42,0,0,1,3,1,3.49,3.49,0,0,1,1.1,2.74A3.38,3.38,0,0,1,112,73.7a5,5,0,0,1-3.24.88,6.39,6.39,0,0,1-2.18-.36,21.39,21.39,0,0,1-2.21-.93l-.78-.4a12,12,0,0,0-1.17-.58,2.54,2.54,0,0,0-1-.16,2,2,0,0,0-1.64.84,3.19,3.19,0,0,0-.67,2.06,2.86,2.86,0,0,0,.3,1.35,3.44,3.44,0,0,0,.92,1.07,12.71,12.71,0,0,0,4,2,16.26,16.26,0,0,0,4.75.7A12.73,12.73,0,0,0,114.68,79a8.78,8.78,0,0,0,3.76-3.33,10,10,0,0,0,.21-9.6,7.89,7.89,0,0,0-3.09-3.13A9.07,9.07,0,0,0,111,61.79Z"/><path d="M112.26,110.49a4.1,4.1,0,0,1-3,1.26,4.05,4.05,0,0,1-2.8-1.26q-4.55-7.58-9.08-15.14a2.52,2.52,0,0,1,0-3.1,3.39,3.39,0,0,1,2.64-1.09h17.36c.67-.06,2.26-.1,3.08.79a3,3,0,0,1,.07,3.39Z"/><path d="M105.23,21.39a3.92,3.92,0,0,1,5.76,0l9.08,15.14a2.52,2.52,0,0,1,0,3.1,3.38,3.38,0,0,1-2.63,1.09H100c-.67.06-2.26.1-3.08-.79a3,3,0,0,1-.07-3.39Z"/></svg>