<svg id="Layer_1" data-name="Layer 1" xmlns="http://www.w3.org/2000/svg" viewBox="0 0 130 130"><defs><style>.cls-1{fill:#020202;}</style></defs><title>l15_2_5</title><path class="cls-1" d="M30.42,86.26h-19A11.44,11.44,0,0,1,0,74.83v-19A11.44,11.44,0,0,1,11.44,44.41h19A11.44,11.44,0,0,1,41.85,55.85v19A11.43,11.43,0,0,1,30.42,86.26ZM25.3,65a6.34,6.34,0,0,0,3.11-2.36,6.52,6.52,0,0,0,1.11-3.78,6.88,6.88,0,0,0-1.19-4,7.74,7.74,0,0,0-3.41-2.66,13,13,0,0,0-5.1-.94,15.69,15.69,0,0,0-4.64.71,13.13,13.13,0,0,0-4,1.95A3.36,3.36,0,0,0,10.27,55,3.1,3.1,0,0,0,10,56.37a3.16,3.16,0,0,0,.67,2.05,2,2,0,0,0,1.64.84,2.55,2.55,0,0,0,1-.17q.42-.18,1.17-.57l.82-.39a22.32,22.32,0,0,1,2.13-.94,6.06,6.06,0,0,1,2.06-.35,3.37,3.37,0,0,1,2.38.8,2.92,2.92,0,0,1,.86,2.25,2.18,2.18,0,0,1-1,2,6,6,0,0,1-3.13.63H16.89a2.22,2.22,0,0,0-1.84.82,3.19,3.19,0,0,0,0,3.91,2.22,2.22,0,0,0,1.84.83h2.42a5.92,5.92,0,0,1,3.21.66,2.45,2.45,0,0,1,1,2.19,2.72,2.72,0,0,1-1,2.35,5.43,5.43,0,0,1-3.15.7,7.1,7.1,0,0,1-2.25-.33,16.41,16.41,0,0,1-2.25-1l-.49-.21L14,72.29q-.75-.39-1.17-.57a2.76,2.76,0,0,0-1-.17,2,2,0,0,0-1.64.84,3.16,3.16,0,0,0-.67,2,3.13,3.13,0,0,0,.27,1.35,3.21,3.21,0,0,0,.94,1.08,12.53,12.53,0,0,0,4.07,2,17.3,17.3,0,0,0,4.89.69,14.71,14.71,0,0,0,5.54-1,8.28,8.28,0,0,0,3.65-2.72,6.83,6.83,0,0,0,1.29-4.15,6.9,6.9,0,0,0-1.31-4.26A6.71,6.71,0,0,0,25.3,65Z"/><path d="M24.11,109.88a3.93,3.93,0,0,1-5.77,0L9.26,94.74a2.52,2.52,0,0,1,.05-3.09A3.39,3.39,0,0,1,12,90.56H29.31c.68,0,2.27-.09,3.08.8a3,3,0,0,1,.07,3.39Z"/><path d="M17.08,20.79a3.92,3.92,0,0,1,5.76,0l9.09,15.14a2.53,2.53,0,0,1-.05,3.1,3.48,3.48,0,0,1-2.64,1.09H11.88c-.68,0-2.27.1-3.08-.8a3,3,0,0,1-.07-3.39Z"/><path class="cls-1" d="M74.49,86.26h-19A11.44,11.44,0,0,1,44.07,74.83v-19A11.44,11.44,0,0,1,55.51,44.41h19A11.44,11.44,0,0,1,85.93,55.85v19A11.44,11.44,0,0,1,74.49,86.26ZM70,65a6.3,6.3,0,0,0,3.11-2.36,6.53,6.53,0,0,0,1.12-3.78,6.81,6.81,0,0,0-1.2-4,7.71,7.71,0,0,0-3.4-2.66,13.08,13.08,0,0,0-5.11-.94,15.68,15.68,0,0,0-4.63.71,13,13,0,0,0-4,1.95,2.68,2.68,0,0,0-1.21,2.43,3.21,3.21,0,0,0,.66,2.05,2,2,0,0,0,1.64.84,2.49,2.49,0,0,0,1-.17c.29-.12.68-.31,1.18-.57l.82-.39a22.32,22.32,0,0,1,2.13-.94,6,6,0,0,1,2-.35,3.4,3.4,0,0,1,2.39.8,3,3,0,0,1,.86,2.25,2.19,2.19,0,0,1-1,2,5.94,5.94,0,0,1-3.13.63H61.61a2.24,2.24,0,0,0-1.84.82,3.23,3.23,0,0,0,0,3.91,2.25,2.25,0,0,0,1.84.83H64a5.9,5.9,0,0,1,3.2.66,2.43,2.43,0,0,1,1,2.19,2.72,2.72,0,0,1-1,2.35,5.41,5.41,0,0,1-3.15.7,7.08,7.08,0,0,1-2.24-.33,16.41,16.41,0,0,1-2.25-1l-.49-.21-.37-.18c-.5-.26-.89-.45-1.18-.57a2.72,2.72,0,0,0-1-.17,2,2,0,0,0-1.64.84,3.21,3.21,0,0,0-.66,2,2.74,2.74,0,0,0,1.21,2.43,12.44,12.44,0,0,0,4.07,2,17.2,17.2,0,0,0,4.89.69,14.65,14.65,0,0,0,5.53-1,8.25,8.25,0,0,0,3.66-2.72A6.83,6.83,0,0,0,75,71.7a7,7,0,0,0-1.31-4.26A6.7,6.7,0,0,0,70,65Z"/><path d="M68.18,109.88a3.92,3.92,0,0,1-5.76,0q-4.55-7.56-9.08-15.14a2.49,2.49,0,0,1,0-3.09A3.38,3.38,0,0,1,56,90.56H73.39c.67,0,2.26-.09,3.08.8a3,3,0,0,1,.07,3.39Z"/><path d="M61.15,20.79a3.93,3.93,0,0,1,5.77,0Q71.45,28.37,76,35.93A2.53,2.53,0,0,1,76,39a3.47,3.47,0,0,1-2.64,1.09H56c-.67,0-2.27.1-3.08-.8a3,3,0,0,1-.07-3.39Z"/><path class="cls-1" d="M118.56,86.26h-19A11.43,11.43,0,0,1,88.15,74.83v-19A11.44,11.44,0,0,1,99.58,44.41h19A11.44,11.44,0,0,1,130,55.85v19A11.44,11.44,0,0,1,118.56,86.26Zm-4.46-21a6.29,6.29,0,0,0,3.1-2.37,6.45,6.45,0,0,0,1.12-3.77,6.88,6.88,0,0,0-1.19-4,7.6,7.6,0,0,0-3.41-2.66,12.85,12.85,0,0,0-5.1-.94,15.68,15.68,0,0,0-4.64.7,12.92,12.92,0,0,0-4,2,3.25,3.25,0,0,0-.94,1.06,3.05,3.05,0,0,0-.27,1.36,3.19,3.19,0,0,0,.67,2.06,2,2,0,0,0,1.64.84,2.55,2.55,0,0,0,1-.18c.28-.11.67-.3,1.17-.56l.82-.39a18.2,18.2,0,0,1,2.13-.94,5.83,5.83,0,0,1,2.06-.36,3.33,3.33,0,0,1,2.38.81,2.88,2.88,0,0,1,.86,2.24,2.2,2.2,0,0,1-1,2,6,6,0,0,1-3.13.63h-1.72a2.22,2.22,0,0,0-1.84.82,3.19,3.19,0,0,0,0,3.91,2.22,2.22,0,0,0,1.84.82h2.42a5.81,5.81,0,0,1,3.21.67,2.45,2.45,0,0,1,1,2.19,2.71,2.71,0,0,1-1,2.34,5.42,5.42,0,0,1-3.15.71,6.82,6.82,0,0,1-2.25-.34,17.57,17.57,0,0,1-2.25-1l-.49-.22-.37-.17c-.5-.27-.89-.45-1.17-.57a2.55,2.55,0,0,0-1-.18,2,2,0,0,0-1.64.84,3.19,3.19,0,0,0-.67,2.06,3.13,3.13,0,0,0,.27,1.35,3.18,3.18,0,0,0,.94,1.07,12.76,12.76,0,0,0,4.07,2,17.66,17.66,0,0,0,4.89.68,14.71,14.71,0,0,0,5.54-1,8.21,8.21,0,0,0,3.65-2.72A6.8,6.8,0,0,0,119,72a6.93,6.93,0,0,0-1.31-4.27A6.64,6.64,0,0,0,114.1,65.3Z"/><path d="M112.26,109.88a4.06,4.06,0,0,1-3,1.26,4,4,0,0,1-2.8-1.26q-4.55-7.56-9.08-15.14a2.51,2.51,0,0,1,0-3.09,3.39,3.39,0,0,1,2.64-1.09h17.36c.67,0,2.26-.09,3.08.8a3,3,0,0,1,.07,3.39Z"/><path d="M105.23,20.79a3.92,3.92,0,0,1,5.76,0q4.55,7.58,9.08,15.14a2.52,2.52,0,0,1,0,3.1,3.46,3.46,0,0,1-2.63,1.09H100c-.67,0-2.26.1-3.08-.8a3,3,0,0,1-.07-3.39Z"/></svg>