<svg id="Layer_1" data-name="Layer 1" xmlns="http://www.w3.org/2000/svg" viewBox="0 0 180 130"><defs><style>.cls-1{fill:#020202;}</style></defs><title>s15_1</title><path class="cls-1" d="M72.53,94.48H37.45A11.44,11.44,0,0,1,26,83V48A11.44,11.44,0,0,1,37.45,36.52H72.53A11.44,11.44,0,0,1,84,48V83A11.44,11.44,0,0,1,72.53,94.48ZM65.11,76.81H54.22L61.91,69a25,25,0,0,0,4.53-6.09,13.68,13.68,0,0,0,1.32-6,10,10,0,0,0-1.65-5.66,10.61,10.61,0,0,0-4.68-3.79,17.54,17.54,0,0,0-7-1.33,21.21,21.21,0,0,0-6.26,1,20.89,20.89,0,0,0-5.71,2.71,3.56,3.56,0,0,0-1.33,1.4A5.24,5.24,0,0,0,41.66,56a2.73,2.73,0,0,0,2.27,1.22A3.17,3.17,0,0,0,45,57a6,6,0,0,0,1.11-.52l.84-.46L48,55.52a26.05,26.05,0,0,1,3-1.32,8.77,8.77,0,0,1,2.9-.46,4.27,4.27,0,0,1,3,1,3.66,3.66,0,0,1,1,2.82q0,3.13-3.57,6.88L43,76.38a5.91,5.91,0,0,0-1.84,4.22,4.07,4.07,0,0,0,1.13,3,4.12,4.12,0,0,0,3.09,1.17H65.11a5.45,5.45,0,0,0,3.55-1,3.75,3.75,0,0,0,1.16-3,3.59,3.59,0,0,0-1.16-2.95A5.57,5.57,0,0,0,65.11,76.81Z"/><path d="M59.4,125.41a5.43,5.43,0,0,1-8,0l-12.57-21a3.5,3.5,0,0,1,.07-4.29,4.72,4.72,0,0,1,3.65-1.51h24c.93-.07,3.13-.13,4.27,1.1s.9,3.23.09,4.7Z"/><path d="M49.66,4.59a5.42,5.42,0,0,1,8,0l12.58,21a3.5,3.5,0,0,1-.07,4.29,4.72,4.72,0,0,1-3.65,1.51h-24c-.94.07-3.14.13-4.27-1.1s-.9-3.23-.1-4.7Z"/><path class="cls-1" d="M142.55,94.48H107.47A11.44,11.44,0,0,1,96,83V48a11.44,11.44,0,0,1,11.43-11.44h35.08A11.44,11.44,0,0,1,154,48V83A11.44,11.44,0,0,1,142.55,94.48ZM132,65.05a8.72,8.72,0,0,0,4.3-3.27,9,9,0,0,0,1.55-5.23A9.46,9.46,0,0,0,136.17,51a10.7,10.7,0,0,0-4.72-3.69,18.05,18.05,0,0,0-7.07-1.3A21.68,21.68,0,0,0,118,47a17.78,17.78,0,0,0-5.5,2.71,4.23,4.23,0,0,0-1.3,1.46,4.29,4.29,0,0,0-.38,1.9,4.46,4.46,0,0,0,.92,2.84A2.78,2.78,0,0,0,114,57.09a3.61,3.61,0,0,0,1.35-.24,16.08,16.08,0,0,0,1.62-.79l1.14-.54a31,31,0,0,1,3-1.3,8.36,8.36,0,0,1,2.85-.48,4.64,4.64,0,0,1,3.3,1.11A4,4,0,0,1,128.39,58,3,3,0,0,1,127,60.72a8.26,8.26,0,0,1-4.33.87h-2.39a3.08,3.08,0,0,0-2.54,1.14,4.44,4.44,0,0,0,0,5.41,3.08,3.08,0,0,0,2.54,1.14h3.36a8.16,8.16,0,0,1,4.44.92,3.41,3.41,0,0,1,1.36,3,3.78,3.78,0,0,1-1.33,3.25,7.53,7.53,0,0,1-4.36,1,10,10,0,0,1-3.12-.46,24.68,24.68,0,0,1-3.11-1.33l-.68-.3-.51-.24c-.69-.36-1.23-.62-1.63-.79a3.57,3.57,0,0,0-1.35-.24,2.83,2.83,0,0,0-2.28,1.16,4.49,4.49,0,0,0-.92,2.85,4.33,4.33,0,0,0,.38,1.87,4.43,4.43,0,0,0,1.3,1.49,17.42,17.42,0,0,0,5.64,2.73,24.08,24.08,0,0,0,6.77,1,20.21,20.21,0,0,0,7.66-1.33A11.39,11.39,0,0,0,137,80.06a9.4,9.4,0,0,0,1.79-5.74A9.63,9.63,0,0,0,137,68.41,9.28,9.28,0,0,0,132,65.05Z"/><path d="M129.42,125.41a5.42,5.42,0,0,1-8,0l-12.58-21a3.5,3.5,0,0,1,.07-4.29,4.72,4.72,0,0,1,3.65-1.51h24c.94-.07,3.14-.13,4.27,1.1s.9,3.23.1,4.7Z"/><path d="M119.68,4.59a5.43,5.43,0,0,1,8,0l12.57,21a3.48,3.48,0,0,1-.07,4.29,4.72,4.72,0,0,1-3.65,1.51h-24c-.93.07-3.13.13-4.27-1.1s-.9-3.23-.09-4.7Z"/></svg>