<svg id="Layer_1" data-name="Layer 1" xmlns="http://www.w3.org/2000/svg" viewBox="0 0 180 130"><defs><style>.cls-1{fill:#020202;}</style></defs><title>s15_1</title><path class="cls-1" d="M72.56,94.48H37.48A11.44,11.44,0,0,1,26,83V48A11.44,11.44,0,0,1,37.48,36.52H72.56A11.44,11.44,0,0,1,84,48V83A11.44,11.44,0,0,1,72.56,94.48Zm-6-17.67H62.13V51.13a4.74,4.74,0,0,0-1.32-3.52,4.82,4.82,0,0,0-3.5-1.3,9.21,9.21,0,0,0-4.49,1.36l-8.67,5a3.66,3.66,0,0,0-1.89,3.35,4.58,4.58,0,0,0,1.08,3,3.26,3.26,0,0,0,2.6,1.32,3.73,3.73,0,0,0,1.9-.54l4.33-2.54V76.81H47.78a5.42,5.42,0,0,0-3.57,1,3.65,3.65,0,0,0-1.14,2.93q0,4,4.71,4h18.8q4.71,0,4.71-4a3.65,3.65,0,0,0-1.14-2.93A5.42,5.42,0,0,0,66.58,76.81Z"/><path d="M59.43,125.41a5.43,5.43,0,0,1-8,0l-12.57-21a3.48,3.48,0,0,1,.07-4.29,4.71,4.71,0,0,1,3.65-1.51h24c.93-.07,3.13-.13,4.26,1.1s.91,3.23.1,4.7Z"/><path d="M49.69,4.59a5.42,5.42,0,0,1,8,0l12.58,21a3.5,3.5,0,0,1-.07,4.29,4.72,4.72,0,0,1-3.65,1.51h-24c-.94.07-3.14.13-4.27-1.1s-.9-3.23-.1-4.7Z"/><path class="cls-1" d="M142.58,94.48H107.5A11.44,11.44,0,0,1,96.07,83V48A11.44,11.44,0,0,1,107.5,36.52h35.08A11.44,11.44,0,0,1,154,48V83A11.44,11.44,0,0,1,142.58,94.48Zm-7.41-17.67H124.28L132,69a24.92,24.92,0,0,0,4.52-6.09,13.55,13.55,0,0,0,1.33-6,10,10,0,0,0-1.65-5.66,10.59,10.59,0,0,0-4.69-3.79,17.51,17.51,0,0,0-7-1.33,22.13,22.13,0,0,0-12,3.69,3.63,3.63,0,0,0-1.33,1.4,4.78,4.78,0,0,0-.35,2,4.66,4.66,0,0,0,.92,2.89A2.76,2.76,0,0,0,114,57.2a3.22,3.22,0,0,0,1-.16,6.61,6.61,0,0,0,1.11-.52l.84-.46,1.08-.54a26.86,26.86,0,0,1,3.06-1.32,8.73,8.73,0,0,1,2.9-.46,4.25,4.25,0,0,1,3,1,3.63,3.63,0,0,1,1.06,2.82q0,3.13-3.57,6.88L113,76.38a6,6,0,0,0-1.84,4.22,4,4,0,0,0,1.14,3,4.12,4.12,0,0,0,3.09,1.17h19.77a5.42,5.42,0,0,0,3.54-1,3.72,3.72,0,0,0,1.17-3,3.56,3.56,0,0,0-1.17-2.95A5.54,5.54,0,0,0,135.17,76.81Z"/><path d="M129.45,125.41a5.42,5.42,0,0,1-8,0l-12.58-21a3.5,3.5,0,0,1,.07-4.29,4.72,4.72,0,0,1,3.65-1.51h24c.93-.07,3.14-.13,4.27,1.1s.9,3.23.1,4.7Z"/><path d="M119.71,4.59a5.43,5.43,0,0,1,8,0l12.57,21a3.5,3.5,0,0,1-.07,4.29,4.72,4.72,0,0,1-3.65,1.51h-24c-.93.07-3.14.13-4.27-1.1s-.9-3.23-.09-4.7Z"/></svg>