<svg id="Layer_1" data-name="Layer 1" xmlns="http://www.w3.org/2000/svg" viewBox="0 0 180 130"><defs><style>.cls-1{fill:#020202;}</style></defs><title>s15_1</title><path class="cls-1" d="M46.51,94H11.44A11.44,11.44,0,0,1,0,82.54V47.46A11.44,11.44,0,0,1,11.44,36H46.51A11.44,11.44,0,0,1,58,47.46V82.54A11.44,11.44,0,0,1,46.51,94ZM39.63,76.31H35.19V50.63a4.7,4.7,0,0,0-1.33-3.52,4.8,4.8,0,0,0-3.49-1.3,9.21,9.21,0,0,0-4.5,1.36l-8.66,5a3.65,3.65,0,0,0-1.9,3.35,4.58,4.58,0,0,0,1.08,3A3.28,3.28,0,0,0,19,59.84a3.7,3.7,0,0,0,1.89-.54l4.33-2.54V76.31H20.84a5.43,5.43,0,0,0-3.58,1,3.65,3.65,0,0,0-1.14,2.93q0,4,4.72,4H39.63q4.71,0,4.71-4a3.68,3.68,0,0,0-1.13-2.93A5.43,5.43,0,0,0,39.63,76.31Z"/><path d="M33.38,125.91a5.42,5.42,0,0,1-8,0L12.83,105a3.5,3.5,0,0,1,.06-4.29,4.73,4.73,0,0,1,3.66-1.51h24c.93-.07,3.13-.13,4.26,1.1s.91,3.23.1,4.7Z"/><path d="M23.65,4.09a5.42,5.42,0,0,1,8,0l12.58,21a3.5,3.5,0,0,1-.07,4.29,4.72,4.72,0,0,1-3.65,1.51h-24c-.93.07-3.13.13-4.26-1.1s-.91-3.23-.1-4.7Z"/><path class="cls-1" d="M107.54,94H72.46A11.44,11.44,0,0,1,61,82.54V47.46A11.44,11.44,0,0,1,72.46,36h35.08A11.44,11.44,0,0,1,119,47.46V82.54A11.44,11.44,0,0,1,107.54,94Zm-7.42-17.67H89.24l7.69-7.86a25.18,25.18,0,0,0,4.52-6.09,13.69,13.69,0,0,0,1.33-6,10,10,0,0,0-1.65-5.66,10.7,10.7,0,0,0-4.69-3.79,17.51,17.51,0,0,0-7-1.33,21.26,21.26,0,0,0-6.26,1,21,21,0,0,0-5.71,2.71,3.63,3.63,0,0,0-1.33,1.4,4.78,4.78,0,0,0-.35,2,4.66,4.66,0,0,0,.92,2.89A2.74,2.74,0,0,0,79,56.7a3.11,3.11,0,0,0,1-.16A6.32,6.32,0,0,0,81.09,56l.83-.46L83,55a25.42,25.42,0,0,1,3.06-1.32,8.69,8.69,0,0,1,2.9-.46,4.25,4.25,0,0,1,3,1A3.63,3.63,0,0,1,93,57q0,3.13-3.58,6.88L78,75.88a5.91,5.91,0,0,0-1.84,4.22,4,4,0,0,0,1.14,3,4.08,4.08,0,0,0,3.08,1.17h19.77a5.45,5.45,0,0,0,3.55-1,3.72,3.72,0,0,0,1.17-3,3.56,3.56,0,0,0-1.17-2.95A5.57,5.57,0,0,0,100.12,76.31Z"/><path d="M94.41,125.91a5.67,5.67,0,0,1-4.12,1.75,5.6,5.6,0,0,1-3.86-1.75L73.85,105a3.5,3.5,0,0,1,.07-4.29,4.72,4.72,0,0,1,3.65-1.51h24c.93-.07,3.14-.13,4.27,1.1s.9,3.23.09,4.7Z"/><path d="M84.67,4.09a5.43,5.43,0,0,1,8,0l12.57,21a3.5,3.5,0,0,1-.07,4.29,4.72,4.72,0,0,1-3.65,1.51h-24c-.93.07-3.14.13-4.27-1.1s-.9-3.23-.09-4.7Z"/><path class="cls-1" d="M168.56,94H133.49a11.44,11.44,0,0,1-11.44-11.44V47.46A11.44,11.44,0,0,1,133.49,36h35.07A11.44,11.44,0,0,1,180,47.46V82.54A11.44,11.44,0,0,1,168.56,94ZM158,64.55a8.75,8.75,0,0,0,4.31-3.27,9.08,9.08,0,0,0,1.54-5.23,9.46,9.46,0,0,0-1.65-5.52,10.61,10.61,0,0,0-4.71-3.69,18.09,18.09,0,0,0-7.07-1.3,21.7,21.7,0,0,0-6.42,1,17.89,17.89,0,0,0-5.5,2.71,4.34,4.34,0,0,0-1.3,1.46,4.29,4.29,0,0,0-.38,1.9,4.46,4.46,0,0,0,.92,2.84A2.81,2.81,0,0,0,140,56.59a3.61,3.61,0,0,0,1.35-.24,17.14,17.14,0,0,0,1.63-.79l1.13-.54a31,31,0,0,1,3-1.3,8.26,8.26,0,0,1,2.84-.48,4.64,4.64,0,0,1,3.3,1.11,4,4,0,0,1,1.2,3.11,3,3,0,0,1-1.36,2.76,8.26,8.26,0,0,1-4.33.87h-2.38a3.09,3.09,0,0,0-2.55,1.14,4.44,4.44,0,0,0,0,5.41,3.09,3.09,0,0,0,2.55,1.14h3.35a8.23,8.23,0,0,1,4.45.92,3.4,3.4,0,0,1,1.35,3A3.75,3.75,0,0,1,154.16,76a7.5,7.5,0,0,1-4.36,1,10,10,0,0,1-3.11-.46,24.76,24.76,0,0,1-3.12-1.33l-.67-.3-.52-.24c-.69-.36-1.23-.62-1.62-.79a3.62,3.62,0,0,0-1.36-.24,2.8,2.8,0,0,0-2.27,1.16,4.43,4.43,0,0,0-.92,2.85A3.8,3.8,0,0,0,137.89,81a17.26,17.26,0,0,0,5.63,2.73,24.08,24.08,0,0,0,6.77,1A20.21,20.21,0,0,0,158,83.32,11.36,11.36,0,0,0,163,79.56a9.47,9.47,0,0,0,1.79-5.74A9.64,9.64,0,0,0,163,67.91,9.28,9.28,0,0,0,158,64.55Z"/><path d="M155.43,125.91a5.42,5.42,0,0,1-8,0l-12.58-21a3.5,3.5,0,0,1,.07-4.29,4.72,4.72,0,0,1,3.65-1.51h24c.93-.07,3.13-.13,4.26,1.1s.91,3.23.1,4.7Z"/><path d="M145.7,4.09a5.42,5.42,0,0,1,8,0l12.57,21a3.5,3.5,0,0,1-.06,4.29,4.73,4.73,0,0,1-3.66,1.51h-24c-.93.07-3.13.13-4.26-1.1s-.91-3.23-.1-4.7Z"/></svg>