<svg id="Layer_1" data-name="Layer 1" xmlns="http://www.w3.org/2000/svg" viewBox="0 0 200 150"><title>g8</title><path d="M188.07,78.17H169.52a3.88,3.88,0,0,0,.4-.49c1.34-2,2.63-4.06,3.93-6.1q4.36-6.83,8.71-13.66c1-1.52.28-2.74-1.64-3a12.63,12.63,0,0,0-1.38-.06c-1.77,0-3.56-.06-5.33,0a57,57,0,0,0-11.23-23C140,4.23,89.59,3.64,57.36,27.19c-21.42,15.66-30.11,38.55-33.58,51H11.49A11.49,11.49,0,0,0,0,89.66v37.42a11.48,11.48,0,0,0,11.49,11.49h36.2a11.49,11.49,0,0,0,11.49-11.49V89.66A11.5,11.5,0,0,0,47.69,78.17H37.17A80.16,80.16,0,0,1,56.33,44.91c3.07-3.16,23.38-23.41,53.74-22.42,7.09.23,30.32,1,43.87,19.16a45.23,45.23,0,0,1,6.73,13.22h-1.76c-1.15,0-2.3,0-3.45,0-2.5.08-3.28,1.34-2,3.31q6.21,9.75,12.47,19.48a3.33,3.33,0,0,0,.39.5H152.55A11.83,11.83,0,0,0,140.72,90v36.75a11.83,11.83,0,0,0,11.83,11.82h35.52a11.83,11.83,0,0,0,11.83-11.82V90A11.83,11.83,0,0,0,188.07,78.17ZM27.9,123.51a4.36,4.36,0,0,1-2.84.78H9.24a3.29,3.29,0,0,1-2.47-.93A3.23,3.23,0,0,1,5.86,121a4.77,4.77,0,0,1,1.47-3.39L16.52,108q2.86-3,2.86-5.5a3,3,0,0,0-.84-2.26,3.44,3.44,0,0,0-2.41-.78,7.19,7.19,0,0,0-2.32.37,20.86,20.86,0,0,0-2.45,1.07l-.86.43-.68.37a4.86,4.86,0,0,1-.89.41,2.47,2.47,0,0,1-.82.13,2.22,2.22,0,0,1-1.82-1,4.13,4.13,0,0,1-.45-3.88A2.78,2.78,0,0,1,6.9,96.29a16.76,16.76,0,0,1,4.57-2.17,17,17,0,0,1,5-.78,13.89,13.89,0,0,1,5.63,1.06,8.43,8.43,0,0,1,3.75,3A7.93,7.93,0,0,1,27.18,102a10.89,10.89,0,0,1-1.06,4.83,20.37,20.37,0,0,1-3.62,4.88L16.35,118h8.71a4.42,4.42,0,0,1,2.84.76,2.87,2.87,0,0,1,.93,2.36A3,3,0,0,1,27.9,123.51Zm10.47-20,4.68,4.68,4.68-4.68a2.5,2.5,0,0,1,1.82-.78,2.39,2.39,0,0,1,1.82.78,2.26,2.26,0,0,1,.78,1.77,2.55,2.55,0,0,1-.78,1.87l-4.68,4.64,4.68,4.68a2.35,2.35,0,0,1,.74,1.82,2.44,2.44,0,0,1-.74,1.82,2.51,2.51,0,0,1-3.64,0l-4.68-4.68-4.68,4.68a2.48,2.48,0,0,1-1.82.74,2.67,2.67,0,0,1-1.82-.74,2.51,2.51,0,0,1,0-3.64l4.68-4.68-4.68-4.64a2.69,2.69,0,0,1-.74-1.82,2.55,2.55,0,0,1,.78-1.87,2.28,2.28,0,0,1,1.78-.78A2.54,2.54,0,0,1,38.37,103.53Zm144.74,13.14a3.78,3.78,0,0,1,1.16,2.87,4,4,0,0,1-6.91,2.87L170,115l-7.39,7.38a3.89,3.89,0,0,1-2.87,1.17,4.18,4.18,0,0,1-2.87-1.17,4,4,0,0,1,0-5.74l7.38-7.39L156.85,102a4.22,4.22,0,0,1-1.17-2.88,4,4,0,0,1,1.23-2.94,3.6,3.6,0,0,1,2.81-1.23,4,4,0,0,1,2.87,1.3l7.39,7.39,7.38-7.39A3.94,3.94,0,0,1,180.23,95a3.82,3.82,0,0,1,2.88,1.23,3.59,3.59,0,0,1,1.23,2.8,4.05,4.05,0,0,1-1.23,3l-7.39,7.31Z"/><path d="M83.14,109a2.5,2.5,0,0,1,.74,1.83,2.56,2.56,0,0,1-.74,1.84,2.46,2.46,0,0,1-1.82.76H75.86v5.42a2.52,2.52,0,0,1-.72,1.82,2.66,2.66,0,0,1-3.66,0,2.5,2.5,0,0,1-.74-1.82v-5.42H65.28a2.46,2.46,0,0,1-1.82-.76,2.56,2.56,0,0,1-.74-1.84,2.5,2.5,0,0,1,.74-1.83,2.47,2.47,0,0,1,1.82-.73h5.46v-5.46a2.56,2.56,0,1,1,5.12,0v5.46h5.46A2.47,2.47,0,0,1,83.14,109Z"/><path d="M111.36,117.74a2.9,2.9,0,0,1,.91,2.34q0,3.21-3.77,3.21h-15q-3.78,0-3.78-3.21a2.93,2.93,0,0,1,.91-2.34,4.36,4.36,0,0,1,2.87-.78H97V101.31l-3.47,2a3,3,0,0,1-1.52.43,2.6,2.6,0,0,1-2.08-1.06,3.63,3.63,0,0,1-.87-2.36,3,3,0,0,1,1.52-2.69l6.94-4a7.34,7.34,0,0,1,3.59-1.08,3.8,3.8,0,0,1,2.8,1,3.74,3.74,0,0,1,1.06,2.81V117h3.56A4.34,4.34,0,0,1,111.36,117.74Z"/><path d="M115.74,108.33a2.47,2.47,0,0,1-.74-1.82,2.56,2.56,0,0,1,.74-1.84,2.44,2.44,0,0,1,1.82-.76h16a2.51,2.51,0,0,1,2.55,2.56,2.53,2.53,0,0,1-.73,1.84,2.42,2.42,0,0,1-1.82.76h-16A2.43,2.43,0,0,1,115.74,108.33Zm0,8.67a2.47,2.47,0,0,1-.74-1.82,2.56,2.56,0,0,1,.74-1.84,2.44,2.44,0,0,1,1.82-.76h16a2.51,2.51,0,0,1,2.55,2.56,2.53,2.53,0,0,1-.73,1.84,2.42,2.42,0,0,1-1.82.76h-16A2.43,2.43,0,0,1,115.74,117Z"/></svg>