<svg id="Layer_1" data-name="Layer 1" xmlns="http://www.w3.org/2000/svg" viewBox="0 0 122.3 122.3"><title>l8_1_1</title><path d="M104.68,122.3H17.62A17.62,17.62,0,0,1,0,104.68V17.62A17.62,17.62,0,0,1,17.62,0h87.06A17.62,17.62,0,0,1,122.3,17.62v87.06A17.62,17.62,0,0,1,104.68,122.3Zm-27.13-80L67,30.07,77.33,18.12a4.5,4.5,0,0,0,1.16-3A4.43,4.43,0,0,0,77,11.87a4.68,4.68,0,0,0-3.33-1.4,4,4,0,0,0-3.25,1.65l-9.24,11-9.31-11a4.31,4.31,0,0,0-3.35-1.65,4.68,4.68,0,0,0-3.33,1.4,4.4,4.4,0,0,0-1.46,3.28,4.53,4.53,0,0,0,1.21,3l10.29,12L44.69,42.29a4.5,4.5,0,0,0-1.15,3A4.45,4.45,0,0,0,45,48.56,4.53,4.53,0,0,0,48.27,50a4.26,4.26,0,0,0,3.3-1.65L61.21,37l9.46,11.34A4.34,4.34,0,0,0,74,50a4.66,4.66,0,0,0,3.28-1.4,4.38,4.38,0,0,0,.24-6.3ZM73,98.48H71.77V78.61a4.68,4.68,0,0,0-1.48-3.69,5.21,5.21,0,0,0-3.58-1.32,5.48,5.48,0,0,0-2.45.58,4.93,4.93,0,0,0-2,1.68L46.56,98.31A6.23,6.23,0,0,0,45.35,102a4.19,4.19,0,0,0,1.16,3,4.13,4.13,0,0,0,3.14,1.21H61.92v1.88a4.88,4.88,0,0,0,1.35,3.74,5,5,0,0,0,3.55,1.27,5.1,5.1,0,0,0,3.58-1.27,4.81,4.81,0,0,0,1.37-3.74v-1.88H73q4.79,0,4.78-3.9C77.77,99.74,76.18,98.48,73,98.48Zm-17.67,0L61.92,89v9.52ZM93.06,61.77h0A3.79,3.79,0,0,0,89.27,58H33a3.78,3.78,0,0,0-3.78,3.79h0A3.78,3.78,0,0,0,33,65.55H89.27A3.79,3.79,0,0,0,93.06,61.77Z"/></svg>