<svg id="Layer_1" data-name="Layer 1" xmlns="http://www.w3.org/2000/svg" viewBox="0 0 122.3 122.3"><title>l8_1_1</title><path d="M104.68,122.3H17.62A17.62,17.62,0,0,1,0,104.68V17.62A17.62,17.62,0,0,1,17.62,0h87.06A17.62,17.62,0,0,1,122.3,17.62v87.06A17.62,17.62,0,0,1,104.68,122.3Zm-47.56-50-7.19-7.19,6.61-6.5A4.71,4.71,0,0,0,58,55.22a4.33,4.33,0,0,0-1.36-3.16,4.39,4.39,0,0,0-3.22-1.36A4.63,4.63,0,0,0,50,52.26l-6.27,6.32-6.2-6.32a4.47,4.47,0,0,0-3.43-1.62A4.33,4.33,0,0,0,30.88,52a4.5,4.5,0,0,0-1.37,3.25A4.55,4.55,0,0,0,31,58.58l6.61,6.5-7.19,7.19a4.59,4.59,0,0,0-1.45,3.31,4.75,4.75,0,0,0,4.64,4.58A4.6,4.6,0,0,0,37,78.59l6.73-7.07,6.79,7.07a4.6,4.6,0,0,0,3.42,1.57,4.45,4.45,0,0,0,3.25-1.39,4.38,4.38,0,0,0,1.39-3.19A4.55,4.55,0,0,0,57.12,72.27Zm32.42-7.54H88.27V43.79a4.94,4.94,0,0,0-1.57-3.88,5.46,5.46,0,0,0-3.77-1.39,5.75,5.75,0,0,0-2.58.61,5.3,5.3,0,0,0-2.06,1.76L61.7,64.56a6.49,6.49,0,0,0-1.27,3.83,4.45,4.45,0,0,0,1.21,3.19A4.38,4.38,0,0,0,65,72.85H77.88v2a5.16,5.16,0,0,0,1.43,4,5.22,5.22,0,0,0,3.74,1.33,5.36,5.36,0,0,0,3.77-1.33,5.13,5.13,0,0,0,1.45-4v-2h1.27q5.05,0,5-4.12C94.59,66.07,92.91,64.73,89.54,64.73Zm-18.62,0,7-10v10Z"/></svg>