<svg id="Layer_1" data-name="Layer 1" xmlns="http://www.w3.org/2000/svg" viewBox="0 0 122.3 122.3"><title>l8_1_1</title><path d="M104.68,122.3H17.62A17.62,17.62,0,0,1,0,104.68V17.62A17.62,17.62,0,0,1,17.62,0h87.06A17.62,17.62,0,0,1,122.3,17.62v87.06A17.62,17.62,0,0,1,104.68,122.3Zm-65-50L32.5,65.08l6.61-6.5a4.71,4.71,0,0,0,1.45-3.36,4.33,4.33,0,0,0-1.36-3.16A4.39,4.39,0,0,0,36,50.7a4.63,4.63,0,0,0-3.42,1.56l-6.27,6.32-6.2-6.32a4.46,4.46,0,0,0-3.42-1.62A4.35,4.35,0,0,0,13.45,52a4.5,4.5,0,0,0-1.37,3.25,4.55,4.55,0,0,0,1.45,3.3l6.62,6.5L13,72.27a4.59,4.59,0,0,0-1.45,3.31,4.39,4.39,0,0,0,1.4,3.19,4.42,4.42,0,0,0,3.24,1.39,4.64,4.64,0,0,0,3.43-1.57l6.72-7.07,6.79,7.07a4.63,4.63,0,0,0,3.42,1.57,4.45,4.45,0,0,0,3.25-1.39,4.38,4.38,0,0,0,1.39-3.19A4.55,4.55,0,0,0,39.69,72.27ZM70.37,59.63h-7.3V52.32a3.43,3.43,0,1,0-6.85,0v7.31H48.91a3.36,3.36,0,0,0-3.42,3.42,3.41,3.41,0,0,0,1,2.47,3.27,3.27,0,0,0,2.43,1h7.31v7.25a3.47,3.47,0,0,0,5.89,2.44,3.36,3.36,0,0,0,1-2.44V66.53h7.3a3.29,3.29,0,0,0,2.44-1,3.41,3.41,0,0,0,1-2.47,3.36,3.36,0,0,0-3.43-3.42Zm34.86,11.66H93.57l8.24-8.41a27.35,27.35,0,0,0,4.84-6.53,14.58,14.58,0,0,0,1.42-6.47,10.63,10.63,0,0,0-1.77-6.06,11.35,11.35,0,0,0-5-4.06,18.82,18.82,0,0,0-7.54-1.42,23.69,23.69,0,0,0-12.82,3.95,3.77,3.77,0,0,0-1.42,1.5,5.58,5.58,0,0,0,.61,5.2,2.94,2.94,0,0,0,2.43,1.3,3.57,3.57,0,0,0,1.1-.17,7.11,7.11,0,0,0,1.19-.55l.9-.5,1.16-.58a28.06,28.06,0,0,1,3.28-1.42,9.37,9.37,0,0,1,3.1-.49,4.6,4.6,0,0,1,3.22,1,3.89,3.89,0,0,1,1.13,3c0,2.24-1.27,4.7-3.82,7.36L81.51,70.82a6.34,6.34,0,0,0-2,4.53,4.31,4.31,0,0,0,1.22,3.16,4.4,4.4,0,0,0,3.3,1.24h21.17a5.8,5.8,0,0,0,3.8-1,4,4,0,0,0,1.25-3.25A3.85,3.85,0,0,0,109,72.3,6,6,0,0,0,105.23,71.29Z"/></svg>