<svg id="Layer_1" data-name="Layer 1" xmlns="http://www.w3.org/2000/svg" viewBox="0 0 122.3 122.3"><title>l8_1_1</title><path d="M104.68,122.3H17.62A17.62,17.62,0,0,1,0,104.68V17.62A17.62,17.62,0,0,1,17.62,0h87.06A17.62,17.62,0,0,1,122.3,17.62v87.06A17.62,17.62,0,0,1,104.68,122.3Zm-65-50-7.19-7.19,6.61-6.5a4.71,4.71,0,0,0,1.45-3.36,4.33,4.33,0,0,0-1.36-3.16A4.39,4.39,0,0,0,36,50.7a4.63,4.63,0,0,0-3.42,1.56l-6.27,6.32-6.2-6.32a4.46,4.46,0,0,0-3.42-1.62A4.33,4.33,0,0,0,13.48,52a4.5,4.5,0,0,0-1.37,3.25,4.55,4.55,0,0,0,1.45,3.3l6.62,6.5L13,72.27a4.59,4.59,0,0,0-1.45,3.31,4.39,4.39,0,0,0,1.4,3.19,4.42,4.42,0,0,0,3.24,1.39,4.64,4.64,0,0,0,3.43-1.57l6.72-7.07,6.79,7.07a4.62,4.62,0,0,0,3.42,1.57,4.45,4.45,0,0,0,3.25-1.39,4.38,4.38,0,0,0,1.39-3.19A4.55,4.55,0,0,0,39.72,72.27ZM70.4,59.63H63.09V52.32a3.3,3.3,0,0,0-1-2.44,3.43,3.43,0,0,0-5.86,2.44v7.31H48.94a3.36,3.36,0,0,0-3.42,3.42,3.41,3.41,0,0,0,1,2.47,3.27,3.27,0,0,0,2.43,1h7.31v7.25a3.47,3.47,0,0,0,5.89,2.44,3.36,3.36,0,0,0,1-2.44V66.53H70.4a3.29,3.29,0,0,0,2.44-1,3.4,3.4,0,0,0,1-2.47,3.3,3.3,0,0,0-1-2.44A3.34,3.34,0,0,0,70.4,59.63Zm31.44-.93a9.35,9.35,0,0,0,4.61-3.51,9.65,9.65,0,0,0,1.65-5.6,10.11,10.11,0,0,0-1.77-5.91,11.39,11.39,0,0,0-5-4,19.4,19.4,0,0,0-7.57-1.39,23.1,23.1,0,0,0-6.87,1A19,19,0,0,0,81,42.29a4.61,4.61,0,0,0-1.39,1.56,4.53,4.53,0,0,0-.41,2,4.75,4.75,0,0,0,1,3,3,3,0,0,0,2.43,1.24A3.68,3.68,0,0,0,84,49.91a18,18,0,0,0,1.74-.84L87,48.49a31.44,31.44,0,0,1,3.16-1.39,8.72,8.72,0,0,1,3-.52,5,5,0,0,1,3.53,1.19A4.32,4.32,0,0,1,98,51.1a3.24,3.24,0,0,1-1.45,3,8.86,8.86,0,0,1-4.64.93H89.37a3.3,3.3,0,0,0-2.73,1.22,4.78,4.78,0,0,0,0,5.8,3.33,3.33,0,0,0,2.73,1.21H93a8.7,8.7,0,0,1,4.76,1,3.64,3.64,0,0,1,1.45,3.25,4,4,0,0,1-1.42,3.48,8.1,8.1,0,0,1-4.67,1,10.41,10.41,0,0,1-3.33-.49,25.87,25.87,0,0,1-3.34-1.42l-.72-.32-.56-.26a18,18,0,0,0-1.74-.84,3.64,3.64,0,0,0-1.45-.26,3,3,0,0,0-2.43,1.24,4.77,4.77,0,0,0-1,3.05,4.57,4.57,0,0,0,.41,2,4.5,4.5,0,0,0,1.39,1.59,18.41,18.41,0,0,0,6,2.93,25.66,25.66,0,0,0,7.25,1,21.94,21.94,0,0,0,8.21-1.42,12.17,12.17,0,0,0,5.42-4,10.09,10.09,0,0,0,1.92-6.15,10.25,10.25,0,0,0-2-6.32A9.86,9.86,0,0,0,101.84,58.7Z"/></svg>