<svg id="Layer_1" data-name="Layer 1" xmlns="http://www.w3.org/2000/svg" viewBox="0 0 122.3 122.3"><title>l8_1_1</title><path d="M104.68,122.3H17.62A17.62,17.62,0,0,1,0,104.68V17.62A17.62,17.62,0,0,1,17.62,0h87.06A17.62,17.62,0,0,1,122.3,17.62v87.06A17.62,17.62,0,0,1,104.68,122.3Zm-27.13-80L67,30.07,77.33,18.12a4.5,4.5,0,0,0,1.16-3A4.43,4.43,0,0,0,77,11.87a4.68,4.68,0,0,0-3.33-1.4,4,4,0,0,0-3.25,1.65l-9.24,11-9.31-11a4.31,4.31,0,0,0-3.35-1.65,4.68,4.68,0,0,0-3.33,1.4,4.4,4.4,0,0,0-1.46,3.28,4.53,4.53,0,0,0,1.21,3l10.29,12L44.69,42.29a4.5,4.5,0,0,0-1.15,3A4.45,4.45,0,0,0,45,48.56,4.53,4.53,0,0,0,48.27,50a4.26,4.26,0,0,0,3.3-1.65L61.21,37l9.46,11.34A4.34,4.34,0,0,0,74,50a4.66,4.66,0,0,0,3.28-1.4,4.38,4.38,0,0,0,.24-6.3ZM71.36,104.7H60.3l7.81-8a25.67,25.67,0,0,0,4.6-6.2,13.81,13.81,0,0,0,1.35-6.13,10.12,10.12,0,0,0-1.68-5.76,10.84,10.84,0,0,0-4.76-3.85,17.72,17.72,0,0,0-7.16-1.35,21.48,21.48,0,0,0-6.35,1,21.2,21.2,0,0,0-5.81,2.76A3.62,3.62,0,0,0,47,78.61a5.27,5.27,0,0,0,.58,4.92,2.78,2.78,0,0,0,2.31,1.24,3.24,3.24,0,0,0,1-.16A6.18,6.18,0,0,0,52,84.08c.42-.23.71-.39.86-.46l1.1-.55a25.52,25.52,0,0,1,3.11-1.35A9,9,0,0,1,60,81.25a4.37,4.37,0,0,1,3.06,1,3.73,3.73,0,0,1,1.07,2.86q0,3.2-3.63,7L48.85,104.26A6,6,0,0,0,47,108.55a4.12,4.12,0,0,0,1.15,3,4.19,4.19,0,0,0,3.14,1.19H71.36a5.53,5.53,0,0,0,3.61-1,3.78,3.78,0,0,0,1.18-3.08,3.63,3.63,0,0,0-1.18-3A5.66,5.66,0,0,0,71.36,104.7Zm21.7-42.93h0A3.79,3.79,0,0,0,89.27,58H33a3.78,3.78,0,0,0-3.78,3.79h0A3.78,3.78,0,0,0,33,65.55H89.27A3.79,3.79,0,0,0,93.06,61.77Z"/></svg>