<svg id="Layer_1" data-name="Layer 1" xmlns="http://www.w3.org/2000/svg" viewBox="0 0 122.3 122.3"><title>l8_1_1</title><path d="M104.68,122.3H17.62A17.62,17.62,0,0,1,0,104.68V17.62A17.62,17.62,0,0,1,17.62,0h87.06A17.62,17.62,0,0,1,122.3,17.62v87.06A17.62,17.62,0,0,1,104.68,122.3Zm-65-50-7.19-7.19,6.61-6.5a4.71,4.71,0,0,0,1.45-3.36,4.33,4.33,0,0,0-1.36-3.16A4.39,4.39,0,0,0,36,50.7a4.63,4.63,0,0,0-3.42,1.56l-6.27,6.32-6.2-6.32a4.46,4.46,0,0,0-3.42-1.62A4.33,4.33,0,0,0,13.48,52a4.5,4.5,0,0,0-1.37,3.25,4.55,4.55,0,0,0,1.45,3.3l6.62,6.5L13,72.27a4.59,4.59,0,0,0-1.45,3.31,4.39,4.39,0,0,0,1.4,3.19,4.42,4.42,0,0,0,3.24,1.39,4.64,4.64,0,0,0,3.43-1.57l6.72-7.07,6.79,7.07a4.62,4.62,0,0,0,3.42,1.57,4.45,4.45,0,0,0,3.25-1.39,4.38,4.38,0,0,0,1.39-3.19A4.55,4.55,0,0,0,39.72,72.27ZM70.4,59.63H63.09V52.32a3.3,3.3,0,0,0-1-2.44,3.43,3.43,0,0,0-5.86,2.44v7.31H48.94a3.36,3.36,0,0,0-3.42,3.42,3.41,3.41,0,0,0,1,2.47,3.27,3.27,0,0,0,2.43,1h7.31v7.25a3.47,3.47,0,0,0,5.89,2.44,3.36,3.36,0,0,0,1-2.44V66.53H70.4a3.29,3.29,0,0,0,2.44-1,3.4,3.4,0,0,0,1-2.47,3.3,3.3,0,0,0-1-2.44A3.34,3.34,0,0,0,70.4,59.63Zm36.37,11.66H102V43.79A5,5,0,0,0,100.59,40a5.14,5.14,0,0,0-3.74-1.39A9.85,9.85,0,0,0,92,40.08l-9.28,5.4a3.92,3.92,0,0,0-2,3.59,4.83,4.83,0,0,0,1.16,3.16,3.47,3.47,0,0,0,2.78,1.42,3.92,3.92,0,0,0,2-.58l4.64-2.72V71.29h-4.7a5.8,5.8,0,0,0-3.83,1,3.91,3.91,0,0,0-1.21,3.13q0,4.29,5,4.29h20.13q5,0,5-4.29a3.91,3.91,0,0,0-1.21-3.13A5.8,5.8,0,0,0,106.77,71.29Z"/></svg>