<svg id="Layer_1" data-name="Layer 1" xmlns="http://www.w3.org/2000/svg" viewBox="0 0 122.3 122.3"><title>l8_1_1</title><path d="M104.68,122.3H17.62A17.62,17.62,0,0,1,0,104.68V17.62A17.62,17.62,0,0,1,17.62,0h87.06A17.62,17.62,0,0,1,122.3,17.62v87.06A17.62,17.62,0,0,1,104.68,122.3ZM96,41.93H91.47V15.66a4.83,4.83,0,0,0-1.35-3.6,4.89,4.89,0,0,0-3.58-1.33,9.41,9.41,0,0,0-4.6,1.38l-8.86,5.16a3.74,3.74,0,0,0-1.94,3.43,4.64,4.64,0,0,0,1.11,3,3.3,3.3,0,0,0,2.66,1.36,3.73,3.73,0,0,0,1.93-.55l4.44-2.61v20H76.79a5.6,5.6,0,0,0-3.66,1,3.77,3.77,0,0,0-1.16,3Q72,50,76.79,50H96q4.82,0,4.82-4.1a3.74,3.74,0,0,0-1.17-3A5.55,5.55,0,0,0,96,41.93ZM96.18,96H95V76a4.69,4.69,0,0,0-1.49-3.71A5.23,5.23,0,0,0,89.87,71a5.53,5.53,0,0,0-2.47.58,5.17,5.17,0,0,0-2,1.69L69.59,95.83a6.14,6.14,0,0,0-1.22,3.66,4.2,4.2,0,0,0,1.16,3,4.14,4.14,0,0,0,3.16,1.22H85.05v1.89a5,5,0,0,0,1.35,3.77A5,5,0,0,0,90,110.68a5.11,5.11,0,0,0,3.6-1.27A4.89,4.89,0,0,0,95,105.64v-1.89h1.22c3.22,0,4.82-1.31,4.82-3.93S99.4,96,96.18,96ZM78.4,96l6.65-9.59V96Zm31.76-34.62V60.6a3.42,3.42,0,0,0-3.42-3.42H62.57a3.42,3.42,0,0,0-3.42,3.42v.78a3.42,3.42,0,0,0,3.42,3.42h44.17A3.42,3.42,0,0,0,110.16,61.38ZM48.61,75.74,37.31,62.61,48.38,49.77a4.92,4.92,0,0,0,1.24-3.2,4.73,4.73,0,0,0-1.57-3.52,5.06,5.06,0,0,0-3.58-1.51A4.31,4.31,0,0,0,41,43.32L31,55.15,21,43.32a4.64,4.64,0,0,0-3.61-1.78,5,5,0,0,0-3.58,1.51,4.73,4.73,0,0,0-1.57,3.52,4.9,4.9,0,0,0,1.3,3.2L24.65,62.61,13.29,75.74a4.76,4.76,0,0,0,.32,6.75A4.9,4.9,0,0,0,17.13,84a4.57,4.57,0,0,0,3.55-1.78L31,70.06,41.22,82.25A4.61,4.61,0,0,0,44.83,84a5,5,0,0,0,3.52-1.51A4.76,4.76,0,0,0,49.91,79,4.83,4.83,0,0,0,48.61,75.74Z"/></svg>