<svg id="Layer_1" data-name="Layer 1" xmlns="http://www.w3.org/2000/svg" viewBox="0 0 122.3 122.3"><title>l8_2_1</title><path d="M104.68,122.3H17.62A17.62,17.62,0,0,1,0,104.68V17.62A17.62,17.62,0,0,1,17.62,0h87.06A17.62,17.62,0,0,1,122.3,17.62v87.06A17.62,17.62,0,0,1,104.68,122.3Zm-65-50-7.19-7.19,6.61-6.5a4.71,4.71,0,0,0,1.45-3.36,4.33,4.33,0,0,0-1.36-3.16A4.39,4.39,0,0,0,36,50.7a4.63,4.63,0,0,0-3.42,1.56l-6.27,6.32-6.2-6.32a4.46,4.46,0,0,0-3.42-1.62A4.33,4.33,0,0,0,13.48,52a4.5,4.5,0,0,0-1.37,3.25,4.55,4.55,0,0,0,1.45,3.3l6.62,6.5L13,72.27a4.59,4.59,0,0,0-1.45,3.31,4.39,4.39,0,0,0,1.4,3.19,4.42,4.42,0,0,0,3.24,1.39,4.64,4.64,0,0,0,3.43-1.57l6.72-7.07,6.79,7.07a4.62,4.62,0,0,0,3.42,1.57,4.45,4.45,0,0,0,3.25-1.39,4.38,4.38,0,0,0,1.39-3.19A4.55,4.55,0,0,0,39.72,72.27ZM70.4,59.63H63.09V52.32a3.3,3.3,0,0,0-1-2.44,3.43,3.43,0,0,0-5.86,2.44v7.31H48.94a3.36,3.36,0,0,0-3.42,3.42,3.41,3.41,0,0,0,1,2.47,3.27,3.27,0,0,0,2.43,1h7.31v7.25a3.47,3.47,0,0,0,5.89,2.44,3.36,3.36,0,0,0,1-2.44V66.53H70.4a3.29,3.29,0,0,0,2.44-1,3.4,3.4,0,0,0,1-2.47,3.3,3.3,0,0,0-1-2.44A3.34,3.34,0,0,0,70.4,59.63Zm35.79-20.77H83.45a5.69,5.69,0,0,0-3.83,1.08,4.06,4.06,0,0,0-1.21,3.22,3.93,3.93,0,0,0,1.19,3.13,5.79,5.79,0,0,0,3.85,1H98L83.05,72.79a5.43,5.43,0,0,0-.82,2.79,4.27,4.27,0,0,0,1.57,3.33,5.31,5.31,0,0,0,3.6,1.37,5,5,0,0,0,2.46-.67,5.36,5.36,0,0,0,2-2.06L109.44,47.1a7.45,7.45,0,0,0,1.1-3.83,4.55,4.55,0,0,0-1.13-3.16A4.14,4.14,0,0,0,106.19,38.86Z"/></svg>