<svg id="Layer_1" data-name="Layer 1" xmlns="http://www.w3.org/2000/svg" viewBox="0 0 122.3 122.3"><title>l8_2_1</title><path d="M104.68,122.3H17.62A17.62,17.62,0,0,1,0,104.68V17.62A17.62,17.62,0,0,1,17.62,0h87.06A17.62,17.62,0,0,1,122.3,17.62v87.06A17.62,17.62,0,0,1,104.68,122.3Zm-65-50-7.19-7.19,6.61-6.5a4.71,4.71,0,0,0,1.45-3.36,4.33,4.33,0,0,0-1.36-3.16A4.39,4.39,0,0,0,36,50.7a4.63,4.63,0,0,0-3.42,1.56l-6.27,6.32-6.2-6.32a4.46,4.46,0,0,0-3.42-1.62A4.33,4.33,0,0,0,13.48,52a4.5,4.5,0,0,0-1.37,3.25,4.55,4.55,0,0,0,1.45,3.3l6.62,6.5L13,72.27a4.59,4.59,0,0,0-1.45,3.31,4.39,4.39,0,0,0,1.4,3.19,4.41,4.41,0,0,0,3.24,1.39,4.64,4.64,0,0,0,3.43-1.57l6.72-7.07,6.79,7.07a4.62,4.62,0,0,0,3.42,1.57,4.45,4.45,0,0,0,3.25-1.39,4.38,4.38,0,0,0,1.39-3.19A4.55,4.55,0,0,0,39.72,72.27ZM70.4,59.63H63.09V52.32a3.3,3.3,0,0,0-1-2.44,3.43,3.43,0,0,0-5.86,2.44v7.31H48.94a3.36,3.36,0,0,0-3.42,3.42,3.41,3.41,0,0,0,1,2.47,3.27,3.27,0,0,0,2.43,1h7.31v7.25a3.47,3.47,0,0,0,5.89,2.44,3.36,3.36,0,0,0,1-2.44V66.53H70.4a3.29,3.29,0,0,0,2.44-1,3.4,3.4,0,0,0,1-2.47,3.3,3.3,0,0,0-1-2.44A3.34,3.34,0,0,0,70.4,59.63Zm32.89-.93a8.77,8.77,0,0,0,4.55-3.42,10.11,10.11,0,0,0,1.65-5.8,9.59,9.59,0,0,0-4-8.15q-4-3-11-3t-11,3a9.57,9.57,0,0,0-4.06,8.15,9.87,9.87,0,0,0,1.62,5.65,9.54,9.54,0,0,0,4.64,3.57,9.71,9.71,0,0,0-5.45,3.45,10.24,10.24,0,0,0-1.91,6.35,10,10,0,0,0,4.32,8.61q4.32,3.11,11.8,3.11t11.81-3.11a10,10,0,0,0,4.32-8.61,9.56,9.56,0,0,0-7.31-9.8ZM94.47,72.16q-6.31,0-6.32-4.53t6.32-4.52c4.22,0,6.32,1.51,6.32,4.52S98.69,72.16,94.47,72.16Zm0-25.76a6.17,6.17,0,0,1,3.89,1,4,4,0,0,1,1.27,3.28A4,4,0,0,1,98.36,54a7.71,7.71,0,0,1-7.77,0,4,4,0,0,1-1.28-3.3,4,4,0,0,1,1.28-3.28A6.14,6.14,0,0,1,94.47,46.4Z"/></svg>