<svg id="Layer_1" data-name="Layer 1" xmlns="http://www.w3.org/2000/svg" viewBox="0 0 122.3 122.3"><title>l8_2_1</title><path d="M104.68,122.82H17.62A17.62,17.62,0,0,1,0,105.19V18.13A17.62,17.62,0,0,1,17.62.51h87.06A17.62,17.62,0,0,1,122.3,18.13v87.06A17.62,17.62,0,0,1,104.68,122.82Zm-58.86-60a11.48,11.48,0,0,0,5.64-4.29,11.79,11.79,0,0,0,2-6.85,12.4,12.4,0,0,0-2.16-7.24,13.81,13.81,0,0,0-6.18-4.83,23.43,23.43,0,0,0-9.26-1.71,28.57,28.57,0,0,0-8.42,1.28,23.51,23.51,0,0,0-7.2,3.55,5.76,5.76,0,0,0-1.71,1.92,5.54,5.54,0,0,0-.49,2.48,5.85,5.85,0,0,0,1.2,3.73,3.67,3.67,0,0,0,3,1.53A4.71,4.71,0,0,0,24,52.1c.52-.22,1.23-.56,2.13-1l1.49-.71a39.38,39.38,0,0,1,3.87-1.71A10.86,10.86,0,0,1,35.24,48a6.11,6.11,0,0,1,4.33,1.45,5.31,5.31,0,0,1,1.56,4.08,4,4,0,0,1-1.77,3.62c-1.19.76-3.08,1.14-5.69,1.14H30.55a4.08,4.08,0,0,0-3.34,1.49,5.85,5.85,0,0,0,0,7.1,4.05,4.05,0,0,0,3.34,1.49H35c2.7,0,4.64.41,5.83,1.21a4.46,4.46,0,0,1,1.77,4,5,5,0,0,1-1.74,4.26q-1.74,1.27-5.71,1.27a13,13,0,0,1-4.09-.6,31.17,31.17,0,0,1-4.08-1.74L26,76.38l-.67-.32c-.9-.47-1.61-.82-2.13-1a4.71,4.71,0,0,0-1.78-.32,3.67,3.67,0,0,0-3,1.53A5.86,5.86,0,0,0,17.27,80a5,5,0,0,0,2.21,4.4A22.65,22.65,0,0,0,26.86,88a31.48,31.48,0,0,0,8.87,1.25,26.63,26.63,0,0,0,10.05-1.74,15,15,0,0,0,6.64-4.94A12.39,12.39,0,0,0,54.76,75a12.57,12.57,0,0,0-2.38-7.74A12.09,12.09,0,0,0,45.82,62.85Zm57.79,16.33L90.05,63.42,103.33,48a5.9,5.9,0,0,0,1.49-3.84A5.65,5.65,0,0,0,102.93,40a6,6,0,0,0-4.29-1.81,5.18,5.18,0,0,0-4.19,2.13L82.52,54.48l-12-14.2a5.57,5.57,0,0,0-4.33-2.13A6,6,0,0,0,61.9,40,5.64,5.64,0,0,0,60,44.18,5.89,5.89,0,0,0,61.58,48l13.27,15.4L61.22,79.18A5.9,5.9,0,0,0,59.73,83a5.81,5.81,0,0,0,1.88,4.26,5.91,5.91,0,0,0,4.23,1.84A5.51,5.51,0,0,0,70.1,87L82.52,72.37,94.73,87a5.59,5.59,0,0,0,4.34,2.13,5.92,5.92,0,0,0,4.22-1.81,5.68,5.68,0,0,0,1.88-4.22A5.81,5.81,0,0,0,103.61,79.18Z"/></svg>