<svg id="Layer_1" data-name="Layer 1" xmlns="http://www.w3.org/2000/svg" viewBox="0 0 122.3 122.3"><title>l8_2_1</title><path d="M104.68,122.3H17.62A17.62,17.62,0,0,1,0,104.68V17.62A17.62,17.62,0,0,1,17.62,0h87.06A17.62,17.62,0,0,1,122.3,17.62v87.06A17.62,17.62,0,0,1,104.68,122.3ZM96,41.93H91.47V15.66a4.83,4.83,0,0,0-1.35-3.6,4.89,4.89,0,0,0-3.58-1.33,9.41,9.41,0,0,0-4.6,1.38l-8.86,5.16a3.74,3.74,0,0,0-1.94,3.43,4.64,4.64,0,0,0,1.11,3,3.3,3.3,0,0,0,2.66,1.36,3.73,3.73,0,0,0,1.93-.55l4.44-2.61v20H76.79a5.6,5.6,0,0,0-3.66,1,3.77,3.77,0,0,0-1.16,3Q72,50,76.79,50H96q4.82,0,4.82-4.1a3.74,3.74,0,0,0-1.17-3A5.55,5.55,0,0,0,96,41.93Zm-1.47,60.33H83.41l7.87-8A26.17,26.17,0,0,0,95.91,88a14.06,14.06,0,0,0,1.35-6.18A10.13,10.13,0,0,0,95.57,76a10.8,10.8,0,0,0-4.79-3.88,17.92,17.92,0,0,0-7.2-1.36,22.62,22.62,0,0,0-12.25,3.77A3.74,3.74,0,0,0,70,76a5.32,5.32,0,0,0,.59,5,2.81,2.81,0,0,0,2.32,1.25A3.41,3.41,0,0,0,73.94,82a6.38,6.38,0,0,0,1.13-.52l.86-.48L77,80.48a27.58,27.58,0,0,1,3.13-1.36,9.05,9.05,0,0,1,3-.47,4.36,4.36,0,0,1,3.08,1,3.71,3.71,0,0,1,1.08,2.88q0,3.21-3.66,7L71.88,101.81A6.11,6.11,0,0,0,70,106.14a4.17,4.17,0,0,0,1.16,3,4.24,4.24,0,0,0,3.16,1.19H94.55a5.56,5.56,0,0,0,3.63-1,3.83,3.83,0,0,0,1.19-3.1,3.67,3.67,0,0,0-1.19-3A5.68,5.68,0,0,0,94.55,102.26Zm15.61-40.88V60.6a3.42,3.42,0,0,0-3.42-3.42H62.57a3.42,3.42,0,0,0-3.42,3.42v.78a3.42,3.42,0,0,0,3.42,3.42h44.17A3.42,3.42,0,0,0,110.16,61.38ZM48.61,75.74,37.31,62.61,48.38,49.77a4.92,4.92,0,0,0,1.24-3.2,4.73,4.73,0,0,0-1.57-3.52,5,5,0,0,0-3.58-1.51A4.33,4.33,0,0,0,41,43.32L31,55.15,21,43.32a4.67,4.67,0,0,0-3.61-1.78,5,5,0,0,0-3.58,1.51,4.73,4.73,0,0,0-1.57,3.52,4.9,4.9,0,0,0,1.3,3.2L24.65,62.61,13.29,75.74A4.9,4.9,0,0,0,12,78.94a4.85,4.85,0,0,0,1.57,3.55A4.9,4.9,0,0,0,17.13,84a4.57,4.57,0,0,0,3.55-1.78L31,70.06,41.22,82.25A4.61,4.61,0,0,0,44.83,84a5,5,0,0,0,3.52-1.51A4.76,4.76,0,0,0,49.91,79,4.83,4.83,0,0,0,48.61,75.74Z"/></svg>