<svg id="Layer_1" data-name="Layer 1" xmlns="http://www.w3.org/2000/svg" viewBox="0 0 122.3 122.3"><title>l8_2_1</title><path d="M104.68,122.3H17.62A17.62,17.62,0,0,1,0,104.68V17.62A17.62,17.62,0,0,1,17.62,0h87.06A17.62,17.62,0,0,1,122.3,17.62v87.06A17.62,17.62,0,0,1,104.68,122.3ZM96,41.93H91.47V15.66a4.83,4.83,0,0,0-1.35-3.6,4.89,4.89,0,0,0-3.58-1.33,9.41,9.41,0,0,0-4.6,1.38l-8.86,5.16a3.74,3.74,0,0,0-1.94,3.43,4.64,4.64,0,0,0,1.11,3,3.3,3.3,0,0,0,2.66,1.36,3.73,3.73,0,0,0,1.93-.55l4.44-2.61v20H76.79a5.6,5.6,0,0,0-3.66,1,3.77,3.77,0,0,0-1.16,3Q72,50,76.79,50H96q4.82,0,4.82-4.1a3.74,3.74,0,0,0-1.17-3A5.55,5.55,0,0,0,96,41.93Zm-4.71,48.3a9,9,0,0,0,4.4-3.35,9.17,9.17,0,0,0,1.58-5.35,9.66,9.66,0,0,0-1.69-5.65,10.9,10.9,0,0,0-4.82-3.77,18.5,18.5,0,0,0-7.23-1.33,22.38,22.38,0,0,0-6.57,1,18.56,18.56,0,0,0-5.62,2.77A4.44,4.44,0,0,0,70,76.05,4.27,4.27,0,0,0,69.64,78a4.56,4.56,0,0,0,.94,2.91,2.89,2.89,0,0,0,2.33,1.19,3.78,3.78,0,0,0,1.39-.25c.4-.17,1-.44,1.66-.81l1.16-.55a31,31,0,0,1,3-1.33,8.47,8.47,0,0,1,2.91-.5,4.75,4.75,0,0,1,3.38,1.14A4.15,4.15,0,0,1,87.65,83a3.1,3.1,0,0,1-1.39,2.83,8.47,8.47,0,0,1-4.43.89H79.39a3.16,3.16,0,0,0-2.6,1.16,4.55,4.55,0,0,0,0,5.54,3.16,3.16,0,0,0,2.6,1.17h3.44a8.31,8.31,0,0,1,4.54.94,3.46,3.46,0,0,1,1.39,3.1,3.83,3.83,0,0,1-1.36,3.32,7.63,7.63,0,0,1-4.46,1,10,10,0,0,1-3.19-.47,23.06,23.06,0,0,1-3.18-1.36l-.69-.3-.53-.25c-.7-.37-1.26-.64-1.66-.8a3.59,3.59,0,0,0-1.39-.25A2.86,2.86,0,0,0,70,100.68a4.52,4.52,0,0,0-.94,2.91A3.88,3.88,0,0,0,70.75,107a17.67,17.67,0,0,0,5.76,2.8,24.53,24.53,0,0,0,6.93,1,20.73,20.73,0,0,0,7.84-1.36,11.66,11.66,0,0,0,5.18-3.85,9.65,9.65,0,0,0,1.83-5.87,9.8,9.8,0,0,0-1.86-6A9.41,9.41,0,0,0,91.31,90.23Zm18.85-28.85V60.6a3.42,3.42,0,0,0-3.42-3.42H62.57a3.42,3.42,0,0,0-3.42,3.42v.78a3.42,3.42,0,0,0,3.42,3.42h44.17A3.42,3.42,0,0,0,110.16,61.38ZM48.61,75.74,37.31,62.61,48.38,49.77a4.92,4.92,0,0,0,1.24-3.2,4.73,4.73,0,0,0-1.57-3.52,5,5,0,0,0-3.58-1.51A4.33,4.33,0,0,0,41,43.32L31,55.15,21,43.32a4.67,4.67,0,0,0-3.61-1.78,5,5,0,0,0-3.58,1.51,4.73,4.73,0,0,0-1.57,3.52,5,5,0,0,0,1.3,3.2L24.65,62.61,13.29,75.74A4.9,4.9,0,0,0,12,78.94a4.85,4.85,0,0,0,1.57,3.55A4.9,4.9,0,0,0,17.13,84a4.57,4.57,0,0,0,3.55-1.78L31,70.06,41.22,82.25A4.61,4.61,0,0,0,44.83,84a5,5,0,0,0,3.52-1.51A4.76,4.76,0,0,0,49.91,79,4.83,4.83,0,0,0,48.61,75.74Z"/></svg>