<svg id="Layer_1" data-name="Layer 1" xmlns="http://www.w3.org/2000/svg" viewBox="0 0 122.3 122.3"><title>l8_2_1</title><path d="M104.68,122.82H17.62A17.62,17.62,0,0,1,0,105.19V18.13A17.62,17.62,0,0,1,17.62.51h87.06A17.62,17.62,0,0,1,122.3,18.13v87.06A17.62,17.62,0,0,1,104.68,122.82ZM52.06,70.24H50.5V44.61a6,6,0,0,0-1.92-4.76A6.66,6.66,0,0,0,44,38.15a7.21,7.21,0,0,0-3.16.74,6.51,6.51,0,0,0-2.52,2.17L18,70a7.94,7.94,0,0,0-1.56,4.68,5.46,5.46,0,0,0,1.49,3.91A5.36,5.36,0,0,0,22,80.18H37.79v2.41a6.31,6.31,0,0,0,1.74,4.83,6.42,6.42,0,0,0,4.58,1.63,6.57,6.57,0,0,0,4.62-1.63,6.25,6.25,0,0,0,1.77-4.83V80.18h1.56q6.18,0,6.18-5T52.06,70.24Zm-22.79,0L37.79,58V70.24Zm74.34,8.94L90.05,63.42,103.33,48a5.9,5.9,0,0,0,1.49-3.84A5.65,5.65,0,0,0,102.93,40a6,6,0,0,0-4.29-1.81,5.18,5.18,0,0,0-4.19,2.13L82.52,54.48l-12-14.2a5.57,5.57,0,0,0-4.33-2.13A6,6,0,0,0,61.9,40,5.65,5.65,0,0,0,60,44.18,5.91,5.91,0,0,0,61.58,48l13.27,15.4L61.22,79.18A5.9,5.9,0,0,0,59.73,83a5.81,5.81,0,0,0,1.88,4.26,5.9,5.9,0,0,0,4.23,1.84A5.51,5.51,0,0,0,70.1,87L82.52,72.37,94.73,87a5.58,5.58,0,0,0,4.33,2.13,5.94,5.94,0,0,0,4.23-1.81,5.68,5.68,0,0,0,1.88-4.22A5.81,5.81,0,0,0,103.61,79.18Z"/></svg>