<svg id="Layer_1" data-name="Layer 1" xmlns="http://www.w3.org/2000/svg" viewBox="0 0 122.3 122.3"><title>l8_2_1</title><path d="M104.68,122.3H17.62A17.62,17.62,0,0,1,0,104.68V17.62A17.62,17.62,0,0,1,17.62,0h87.06A17.62,17.62,0,0,1,122.3,17.62v87.06A17.62,17.62,0,0,1,104.68,122.3Zm-65-50-7.19-7.19,6.61-6.5a4.71,4.71,0,0,0,1.45-3.36,4.33,4.33,0,0,0-1.36-3.16A4.39,4.39,0,0,0,36,50.7a4.63,4.63,0,0,0-3.42,1.56l-6.27,6.32-6.2-6.32a4.46,4.46,0,0,0-3.42-1.62A4.33,4.33,0,0,0,13.48,52a4.5,4.5,0,0,0-1.37,3.25,4.55,4.55,0,0,0,1.45,3.3l6.62,6.5L13,72.27a4.59,4.59,0,0,0-1.45,3.31,4.39,4.39,0,0,0,1.4,3.19,4.41,4.41,0,0,0,3.24,1.39,4.64,4.64,0,0,0,3.43-1.57l6.72-7.07,6.79,7.07a4.62,4.62,0,0,0,3.42,1.57,4.45,4.45,0,0,0,3.25-1.39,4.38,4.38,0,0,0,1.39-3.19A4.55,4.55,0,0,0,39.72,72.27ZM70.4,59.63H63.09V52.32a3.3,3.3,0,0,0-1-2.44,3.43,3.43,0,0,0-5.86,2.44v7.31H48.94a3.36,3.36,0,0,0-3.42,3.42,3.41,3.41,0,0,0,1,2.47,3.27,3.27,0,0,0,2.43,1h7.31v7.25a3.47,3.47,0,0,0,5.89,2.44,3.36,3.36,0,0,0,1-2.44V66.53H70.4a3.29,3.29,0,0,0,2.44-1,3.4,3.4,0,0,0,1-2.47,3.3,3.3,0,0,0-1-2.44A3.34,3.34,0,0,0,70.4,59.63ZM98,52.84a11.1,11.1,0,0,0-4.9,1.08,9.21,9.21,0,0,0-3.57,2.92,15.52,15.52,0,0,1,2.18-7.57,5.56,5.56,0,0,1,4.78-2.69,7.73,7.73,0,0,1,2.67.46c.85.31,1.92.78,3.19,1.39l1.28.64a18,18,0,0,0,1.74.84,3.68,3.68,0,0,0,1.45.26,3.06,3.06,0,0,0,2.46-1.24,4.66,4.66,0,0,0,1-3,4.26,4.26,0,0,0-.44-2,5,5,0,0,0-1.42-1.56,18.19,18.19,0,0,0-5.83-2.9,22.36,22.36,0,0,0-6.64-1,15.71,15.71,0,0,0-9,2.61,16.92,16.92,0,0,0-6,7.45,28.15,28.15,0,0,0-2.12,11.34q0,9.87,4.47,15.2t12.64,5.34a15,15,0,0,0,7.37-1.8,12.88,12.88,0,0,0,5.07-5,14.47,14.47,0,0,0,1.83-7.28,14.62,14.62,0,0,0-1.59-6.87,12.07,12.07,0,0,0-4.38-4.76A11.76,11.76,0,0,0,98,52.84ZM95.28,72.1a4.6,4.6,0,0,1-3.59-1.54,6.46,6.46,0,0,1,0-8,4.64,4.64,0,0,1,3.62-1.51,4.58,4.58,0,0,1,3.63,1.48,6.79,6.79,0,0,1,0,8A4.55,4.55,0,0,1,95.28,72.1Z"/></svg>