<svg id="Layer_1" data-name="Layer 1" xmlns="http://www.w3.org/2000/svg" viewBox="0 0 122.3 122.3"><title>l8_2_1</title><path d="M104.68,122.82H17.62A17.62,17.62,0,0,1,0,105.19V18.13A17.62,17.62,0,0,1,17.62.51h87.06A17.62,17.62,0,0,1,122.3,18.13v87.06A17.62,17.62,0,0,1,104.68,122.82ZM50,78.26H35.7L45.78,68a33.44,33.44,0,0,0,5.93-8,17.9,17.9,0,0,0,1.74-7.92,13,13,0,0,0-2.17-7.42,13.86,13.86,0,0,0-6.14-5,22.86,22.86,0,0,0-9.23-1.74,27.84,27.84,0,0,0-8.2,1.28,27.67,27.67,0,0,0-7.49,3.55,4.71,4.71,0,0,0-1.74,1.85A6.84,6.84,0,0,0,19.23,51a3.59,3.59,0,0,0,3,1.6,4.33,4.33,0,0,0,1.35-.21A9.06,9.06,0,0,0,25,51.67c.55-.31.91-.51,1.1-.6l1.42-.71a33.88,33.88,0,0,1,4-1.74,11.6,11.6,0,0,1,3.8-.6,5.59,5.59,0,0,1,3.94,1.27A4.77,4.77,0,0,1,40.67,53q0,4.13-4.69,9l-15,15.69a7.79,7.79,0,0,0-2.41,5.54A5.29,5.29,0,0,0,20,87.1a5.37,5.37,0,0,0,4,1.53H50a7.15,7.15,0,0,0,4.65-1.28,4.89,4.89,0,0,0,1.53-4,4.7,4.7,0,0,0-1.53-3.87A7.34,7.34,0,0,0,50,78.26Zm53.68.92L90.08,63.42,103.36,48a5.85,5.85,0,0,0,1.49-3.84A5.68,5.68,0,0,0,103,40a6,6,0,0,0-4.29-1.81,5.17,5.17,0,0,0-4.19,2.13L82.56,54.48l-12-14.2a5.58,5.58,0,0,0-4.33-2.13A6,6,0,0,0,61.93,40a5.68,5.68,0,0,0-1.88,4.22A5.91,5.91,0,0,0,61.61,48l13.28,15.4L61.26,79.18A5.85,5.85,0,0,0,59.77,83a5.77,5.77,0,0,0,1.88,4.26,5.87,5.87,0,0,0,4.22,1.84A5.51,5.51,0,0,0,70.13,87L82.56,72.37,94.77,87a5.57,5.57,0,0,0,4.33,2.13,6,6,0,0,0,4.23-1.81,5.68,5.68,0,0,0,1.88-4.22A5.81,5.81,0,0,0,103.65,79.18Z"/></svg>