<svg id="Layer_1" data-name="Layer 1" xmlns="http://www.w3.org/2000/svg" viewBox="0 0 122.3 122.3"><title>l8_2_1</title><path d="M104.68,122.3H17.62A17.62,17.62,0,0,1,0,104.68V17.62A17.62,17.62,0,0,1,17.62,0h87.06A17.62,17.62,0,0,1,122.3,17.62v87.06A17.62,17.62,0,0,1,104.68,122.3Zm-27.13-80L67,30.07,77.33,18.12a4.5,4.5,0,0,0,1.16-3A4.43,4.43,0,0,0,77,11.87a4.68,4.68,0,0,0-3.33-1.4,4,4,0,0,0-3.25,1.65l-9.24,11-9.31-11a4.31,4.31,0,0,0-3.35-1.65,4.68,4.68,0,0,0-3.33,1.4,4.4,4.4,0,0,0-1.46,3.28,4.53,4.53,0,0,0,1.21,3l10.29,12L44.69,42.29a4.5,4.5,0,0,0-1.15,3A4.45,4.45,0,0,0,45,48.56,4.53,4.53,0,0,0,48.27,50a4.26,4.26,0,0,0,3.3-1.65L61.21,37l9.46,11.34A4.34,4.34,0,0,0,74,50a4.66,4.66,0,0,0,3.28-1.4,4.38,4.38,0,0,0,.24-6.3ZM72.82,104.7H68.31V78.61A4.77,4.77,0,0,0,67,75a4.86,4.86,0,0,0-3.55-1.32,9.37,9.37,0,0,0-4.57,1.37L50,80.2a3.75,3.75,0,0,0-1.92,3.42,4.6,4.6,0,0,0,1.1,3A3.29,3.29,0,0,0,51.85,88a3.75,3.75,0,0,0,1.93-.55l4.4-2.58V104.7H53.72a5.5,5.5,0,0,0-3.63,1,3.7,3.7,0,0,0-1.16,3q0,4.08,4.79,4.08h19.1q4.79,0,4.79-4.08a3.7,3.7,0,0,0-1.16-3A5.5,5.5,0,0,0,72.82,104.7Zm22-42.93h0A3.79,3.79,0,0,0,91,58H34.77A3.79,3.79,0,0,0,31,61.77h0a3.79,3.79,0,0,0,3.79,3.78H91A3.79,3.79,0,0,0,94.79,61.77Z"/></svg>