<svg id="Layer_1" data-name="Layer 1" xmlns="http://www.w3.org/2000/svg" viewBox="0 0 122.3 122.3"><title>l8_2_1</title><path d="M104.68,122.3H17.62A17.62,17.62,0,0,1,0,104.68V17.62A17.62,17.62,0,0,1,17.62,0h87.06A17.62,17.62,0,0,1,122.3,17.62v87.06A17.62,17.62,0,0,1,104.68,122.3Zm-27.13-80L67,30.07,77.33,18.12a4.5,4.5,0,0,0,1.16-3A4.43,4.43,0,0,0,77,11.87a4.68,4.68,0,0,0-3.33-1.4,4,4,0,0,0-3.25,1.65l-9.24,11-9.31-11a4.31,4.31,0,0,0-3.35-1.65,4.68,4.68,0,0,0-3.33,1.4,4.4,4.4,0,0,0-1.46,3.28,4.53,4.53,0,0,0,1.21,3l10.29,12L44.69,42.29a4.5,4.5,0,0,0-1.15,3A4.45,4.45,0,0,0,45,48.56,4.53,4.53,0,0,0,48.27,50a4.26,4.26,0,0,0,3.3-1.65L61.21,37l9.46,11.34A4.34,4.34,0,0,0,74,50a4.66,4.66,0,0,0,3.28-1.4,4.38,4.38,0,0,0,.24-6.3ZM68.14,92.75a8.88,8.88,0,0,0,4.38-3.33,9.18,9.18,0,0,0,1.57-5.31,9.58,9.58,0,0,0-1.68-5.61,10.76,10.76,0,0,0-4.79-3.75,18.25,18.25,0,0,0-7.18-1.32,22.1,22.1,0,0,0-6.53,1,18.09,18.09,0,0,0-5.58,2.76,3.72,3.72,0,0,0-1.71,3.41,4.48,4.48,0,0,0,.94,2.89,2.83,2.83,0,0,0,2.31,1.18,3.49,3.49,0,0,0,1.37-.25c.41-.16,1-.43,1.65-.79l1.16-.55a32.26,32.26,0,0,1,3-1.33,8.31,8.31,0,0,1,2.89-.49,4.76,4.76,0,0,1,3.36,1.13,4.14,4.14,0,0,1,1.21,3.16,3.09,3.09,0,0,1-1.38,2.81,8.39,8.39,0,0,1-4.4.88H56.31a3.15,3.15,0,0,0-2.59,1.16,4.49,4.49,0,0,0,0,5.5,3.15,3.15,0,0,0,2.59,1.16h3.41a8.29,8.29,0,0,1,4.51.93,3.46,3.46,0,0,1,1.38,3.09,3.82,3.82,0,0,1-1.35,3.3,7.65,7.65,0,0,1-4.43,1,10,10,0,0,1-3.16-.47,23.54,23.54,0,0,1-3.17-1.35l-.69-.3-.52-.25c-.7-.36-1.25-.63-1.65-.8a3.73,3.73,0,0,0-1.38-.24A2.83,2.83,0,0,0,47,103.13,4.54,4.54,0,0,0,46,106a4.29,4.29,0,0,0,.39,1.9,4.35,4.35,0,0,0,1.32,1.51,17.62,17.62,0,0,0,5.72,2.78,24.62,24.62,0,0,0,6.89,1,20.61,20.61,0,0,0,7.78-1.35A11.61,11.61,0,0,0,73.26,108a9.59,9.59,0,0,0,1.82-5.83,9.76,9.76,0,0,0-1.85-6A9.39,9.39,0,0,0,68.14,92.75Zm26.65-31h0A3.79,3.79,0,0,0,91,58H34.77A3.79,3.79,0,0,0,31,61.77h0a3.79,3.79,0,0,0,3.79,3.78H91A3.79,3.79,0,0,0,94.79,61.77Z"/></svg>