<svg id="Layer_1" data-name="Layer 1" xmlns="http://www.w3.org/2000/svg" viewBox="0 0 122.3 122.3"><title>l8_2_1</title><path d="M104.68,122.82H17.62A17.62,17.62,0,0,1,0,105.19V18.13A17.62,17.62,0,0,1,17.62.51h87.06A17.62,17.62,0,0,1,122.3,18.13v87.06A17.62,17.62,0,0,1,104.68,122.82ZM51.85,78.26H46V44.61A6.18,6.18,0,0,0,44.29,40a6.29,6.29,0,0,0-4.58-1.7,12,12,0,0,0-5.89,1.77L22.46,46.67A4.81,4.81,0,0,0,20,51.07a6,6,0,0,0,1.42,3.87,4.27,4.27,0,0,0,3.41,1.74A4.91,4.91,0,0,0,27.29,56L33,52.63V78.26H27.21a7.09,7.09,0,0,0-4.68,1.28A4.75,4.75,0,0,0,21,83.37q0,5.26,6.17,5.26H51.85q6.18,0,6.18-5.26a4.78,4.78,0,0,0-1.49-3.83A7.14,7.14,0,0,0,51.85,78.26Zm51.76.92L90.05,63.42,103.33,48a5.9,5.9,0,0,0,1.49-3.84A5.65,5.65,0,0,0,102.93,40a6,6,0,0,0-4.29-1.81,5.18,5.18,0,0,0-4.19,2.13L82.52,54.48l-12-14.2a5.57,5.57,0,0,0-4.33-2.13A6,6,0,0,0,61.9,40,5.64,5.64,0,0,0,60,44.18,5.91,5.91,0,0,0,61.58,48l13.27,15.4L61.22,79.18A5.9,5.9,0,0,0,59.73,83a5.81,5.81,0,0,0,1.88,4.26,5.91,5.91,0,0,0,4.23,1.84A5.51,5.51,0,0,0,70.1,87L82.52,72.37,94.73,87a5.59,5.59,0,0,0,4.34,2.13,5.92,5.92,0,0,0,4.22-1.81,5.68,5.68,0,0,0,1.88-4.22A5.81,5.81,0,0,0,103.61,79.18Z"/></svg>