<svg id="Layer_1" data-name="Layer 1" xmlns="http://www.w3.org/2000/svg" viewBox="0 0 122.3 122.3"><title>l8_2_1</title><path d="M104.68,122.3H17.62A17.62,17.62,0,0,1,0,104.68V17.62A17.62,17.62,0,0,1,17.62,0h87.06A17.62,17.62,0,0,1,122.3,17.62v87.06A17.62,17.62,0,0,1,104.68,122.3ZM96,41.93H91.47V15.66a4.83,4.83,0,0,0-1.35-3.6,4.89,4.89,0,0,0-3.58-1.33,9.41,9.41,0,0,0-4.6,1.38l-8.86,5.16a3.74,3.74,0,0,0-1.94,3.43,4.64,4.64,0,0,0,1.11,3,3.3,3.3,0,0,0,2.66,1.36,3.73,3.73,0,0,0,1.93-.55l4.44-2.61v20H76.79a5.6,5.6,0,0,0-3.66,1,3.77,3.77,0,0,0-1.16,3Q72,50,76.79,50H96q4.82,0,4.82-4.1a3.74,3.74,0,0,0-1.17-3A5.55,5.55,0,0,0,96,41.93ZM87,84.8a13.76,13.76,0,0,0-5.49,1V79h12q4.82,0,4.82-3.87t-4.82-3.83H76.29A4.74,4.74,0,0,0,72.8,72.5a4.82,4.82,0,0,0-1.22,3.55v15a3,3,0,0,0,1,2.41,3.83,3.83,0,0,0,2.61.92,5.24,5.24,0,0,0,2.49-.61,20.13,20.13,0,0,1,3.19-1,15.44,15.44,0,0,1,3-.28,6.3,6.3,0,0,1,4.32,1.39,4.94,4.94,0,0,1,1.55,3.88,4.85,4.85,0,0,1-1.49,3.91,7.12,7.12,0,0,1-4.6,1.24,9,9,0,0,1-3.08-.5,28.81,28.81,0,0,1-3.13-1.33l-1.11-.55a16.57,16.57,0,0,0-1.66-.83,3.72,3.72,0,0,0-1.39-.22A2.83,2.83,0,0,0,71,100.68a4.52,4.52,0,0,0-1,2.91,4.08,4.08,0,0,0,.42,1.91A5,5,0,0,0,71.8,107a18,18,0,0,0,5.68,2.77,23,23,0,0,0,6.73,1,18,18,0,0,0,7.93-1.66,12.52,12.52,0,0,0,5.32-4.71,13.16,13.16,0,0,0,1.88-7,13.31,13.31,0,0,0-1.58-6.57,11.22,11.22,0,0,0-4.37-4.43A12.84,12.84,0,0,0,87,84.8Zm23.17-23.42V60.6a3.42,3.42,0,0,0-3.42-3.42H62.57a3.42,3.42,0,0,0-3.42,3.42v.78a3.42,3.42,0,0,0,3.42,3.42h44.17A3.42,3.42,0,0,0,110.16,61.38ZM48.61,75.74,37.31,62.61,48.38,49.77a4.92,4.92,0,0,0,1.24-3.2,4.73,4.73,0,0,0-1.57-3.52,5,5,0,0,0-3.58-1.51A4.31,4.31,0,0,0,41,43.32L31,55.15,21,43.32a4.64,4.64,0,0,0-3.61-1.78,5,5,0,0,0-3.58,1.51,4.73,4.73,0,0,0-1.57,3.52,5,5,0,0,0,1.3,3.2L24.65,62.61,13.29,75.74a4.76,4.76,0,0,0,.32,6.75A4.9,4.9,0,0,0,17.13,84a4.57,4.57,0,0,0,3.55-1.78L31,70.06,41.22,82.25A4.61,4.61,0,0,0,44.83,84a5,5,0,0,0,3.52-1.51A4.76,4.76,0,0,0,49.91,79,4.83,4.83,0,0,0,48.61,75.74Z"/></svg>