<svg id="Layer_1" data-name="Layer 1" xmlns="http://www.w3.org/2000/svg" viewBox="0 0 122.3 122.3"><title>l8_2_1</title><path d="M104.68,122.3H17.62A17.62,17.62,0,0,1,0,104.68V17.62A17.62,17.62,0,0,1,17.62,0h87.06A17.62,17.62,0,0,1,122.3,17.62v87.06A17.62,17.62,0,0,1,104.68,122.3Zm-65-50-7.19-7.19,6.61-6.5a4.71,4.71,0,0,0,1.45-3.36,4.33,4.33,0,0,0-1.36-3.16A4.39,4.39,0,0,0,36,50.7a4.63,4.63,0,0,0-3.42,1.56l-6.27,6.32-6.2-6.32a4.46,4.46,0,0,0-3.42-1.62A4.33,4.33,0,0,0,13.48,52a4.5,4.5,0,0,0-1.37,3.25,4.55,4.55,0,0,0,1.45,3.3l6.62,6.5L13,72.27a4.59,4.59,0,0,0-1.45,3.31,4.39,4.39,0,0,0,1.4,3.19,4.42,4.42,0,0,0,3.24,1.39,4.64,4.64,0,0,0,3.43-1.57l6.72-7.07,6.79,7.07a4.62,4.62,0,0,0,3.42,1.57,4.45,4.45,0,0,0,3.25-1.39,4.38,4.38,0,0,0,1.39-3.19A4.55,4.55,0,0,0,39.72,72.27ZM70.4,59.63H63.09V52.32a3.3,3.3,0,0,0-1-2.44,3.43,3.43,0,0,0-5.86,2.44v7.31H48.94a3.36,3.36,0,0,0-3.42,3.42,3.41,3.41,0,0,0,1,2.47,3.27,3.27,0,0,0,2.43,1h7.31v7.25a3.47,3.47,0,0,0,5.89,2.44,3.36,3.36,0,0,0,1-2.44V66.53H70.4a3.29,3.29,0,0,0,2.44-1,3.4,3.4,0,0,0,1-2.47,3.3,3.3,0,0,0-1-2.44A3.34,3.34,0,0,0,70.4,59.63ZM97.31,53a14.45,14.45,0,0,0-5.74,1V46.93H104.1c3.36,0,5.05-1.36,5.05-4.06s-1.69-4-5.05-4h-18a4.93,4.93,0,0,0-3.65,1.28,5,5,0,0,0-1.28,3.71V59.57a3.18,3.18,0,0,0,1.1,2.52,4,4,0,0,0,2.73,1,5.48,5.48,0,0,0,2.61-.64,20.42,20.42,0,0,1,3.33-1,16.11,16.11,0,0,1,3.16-.29,6.54,6.54,0,0,1,4.53,1.45,5.17,5.17,0,0,1,1.62,4.06,5,5,0,0,1-1.56,4.09A7.44,7.44,0,0,1,93.89,72a9.58,9.58,0,0,1-3.22-.52,32.4,32.4,0,0,1-3.27-1.39l-1.16-.58a17,17,0,0,0-1.74-.87,3.84,3.84,0,0,0-1.45-.23,3,3,0,0,0-2.44,1.24,4.77,4.77,0,0,0-1,3.05,4.31,4.31,0,0,0,.44,2,5.07,5.07,0,0,0,1.36,1.59,19,19,0,0,0,6,2.9,24.07,24.07,0,0,0,7,1,18.83,18.83,0,0,0,8.3-1.74,13.06,13.06,0,0,0,5.57-4.93,13.77,13.77,0,0,0,2-7.37,14,14,0,0,0-1.65-6.87A11.77,11.77,0,0,0,104,54.67,13.39,13.39,0,0,0,97.31,53Z"/></svg>