<svg id="Layer_1" data-name="Layer 1" xmlns="http://www.w3.org/2000/svg" viewBox="0 0 122.3 122.3"><title>l8_3_1</title><path d="M104.68,122.3H17.62A17.62,17.62,0,0,1,0,104.68V17.62A17.62,17.62,0,0,1,17.62,0h87.06A17.62,17.62,0,0,1,122.3,17.62v87.06A17.62,17.62,0,0,1,104.68,122.3ZM45.57,24.07a10.76,10.76,0,0,0-4.65,1,8.76,8.76,0,0,0-3.38,2.78,14.7,14.7,0,0,1,2.06-7.18,5.27,5.27,0,0,1,4.54-2.56,7.5,7.5,0,0,1,2.54.44c.8.3,1.81.74,3,1.32l1.21.61c.7.37,1.25.63,1.66.8a3.68,3.68,0,0,0,1.37.24,2.91,2.91,0,0,0,2.34-1.18,4.44,4.44,0,0,0,1-2.89,4,4,0,0,0-.41-1.93,4.7,4.7,0,0,0-1.35-1.48A17.36,17.36,0,0,0,50,11.3a21.41,21.41,0,0,0-6.3-1,14.9,14.9,0,0,0-8.56,2.47,16,16,0,0,0-5.67,7.08,26.66,26.66,0,0,0-2,10.76Q27.41,40,31.65,45t12,5.06a14.29,14.29,0,0,0,7-1.7,12.26,12.26,0,0,0,4.81-4.77,13.66,13.66,0,0,0,1.74-6.9,13.85,13.85,0,0,0-1.52-6.53,11.38,11.38,0,0,0-4.15-4.51A11.14,11.14,0,0,0,45.57,24.07ZM43,42.34a4.4,4.4,0,0,1-3.41-1.46,5.4,5.4,0,0,1-1.32-3.77,5.47,5.47,0,0,1,1.29-3.8A4.42,4.42,0,0,1,43,31.88a4.33,4.33,0,0,1,3.44,1.41,5.54,5.54,0,0,1,1.24,3.82,5.49,5.49,0,0,1-1.27,3.8A4.33,4.33,0,0,1,43,42.34Zm51-.05L83.55,30.07l10.3-11.95a4.54,4.54,0,0,0,1.15-3,4.42,4.42,0,0,0-1.45-3.28,4.72,4.72,0,0,0-3.34-1.4A4,4,0,0,0,87,12.12l-9.25,11-9.3-11a4.34,4.34,0,0,0-3.36-1.65,4.68,4.68,0,0,0-3.33,1.4,4.43,4.43,0,0,0-1.46,3.28,4.53,4.53,0,0,0,1.21,3l10.29,12L61.21,42.29A4.74,4.74,0,0,0,64.78,50a4.29,4.29,0,0,0,3.31-1.65L77.72,37l9.47,11.34A4.32,4.32,0,0,0,90.55,50a4.62,4.62,0,0,0,3.27-1.4,4.43,4.43,0,0,0,1.46-3.28A4.49,4.49,0,0,0,94.07,42.29ZM64.45,87.19a10.63,10.63,0,0,0-4.65,1A8.76,8.76,0,0,0,56.42,91a14.7,14.7,0,0,1,2.06-7.18A5.27,5.27,0,0,1,63,81.25a7.5,7.5,0,0,1,2.54.44,32.32,32.32,0,0,1,3,1.32l1.21.61c.7.36,1.25.63,1.65.79a3.57,3.57,0,0,0,1.38.25,2.91,2.91,0,0,0,2.34-1.18,4.44,4.44,0,0,0,1-2.89,4,4,0,0,0-.41-1.93,4.59,4.59,0,0,0-1.35-1.48,17.37,17.37,0,0,0-5.53-2.76,21.41,21.41,0,0,0-6.3-1A14.91,14.91,0,0,0,54,75.91,16,16,0,0,0,48.3,83a26.72,26.72,0,0,0-2,10.76q0,9.36,4.24,14.43t12,5.06a14.19,14.19,0,0,0,7-1.71,12.17,12.17,0,0,0,4.81-4.76,13.69,13.69,0,0,0,1.74-6.91,13.84,13.84,0,0,0-1.52-6.52,11.38,11.38,0,0,0-4.15-4.51A11.15,11.15,0,0,0,64.45,87.19Zm-2.53,18.28A4.4,4.4,0,0,1,58.51,104a5.4,5.4,0,0,1-1.32-3.77,5.47,5.47,0,0,1,1.29-3.8A4.42,4.42,0,0,1,61.92,95a4.35,4.35,0,0,1,3.44,1.4,5.58,5.58,0,0,1,1.24,3.83,5.51,5.51,0,0,1-1.27,3.8A4.33,4.33,0,0,1,61.92,105.47ZM104,61.77h0A3.79,3.79,0,0,0,100.22,58H22.08a3.78,3.78,0,0,0-3.78,3.79h0a3.78,3.78,0,0,0,3.78,3.78h78.14A3.79,3.79,0,0,0,104,61.77Z"/></svg>