<svg id="Layer_1" data-name="Layer 1" xmlns="http://www.w3.org/2000/svg" viewBox="0 0 122.3 122.3"><title>l8_3_1</title><path d="M104.68,122.3H17.62A17.62,17.62,0,0,1,0,104.68V17.62A17.62,17.62,0,0,1,17.62,0h87.06A17.62,17.62,0,0,1,122.3,17.62v87.06A17.62,17.62,0,0,1,104.68,122.3ZM54.11,35.35H52.9V15.48a4.68,4.68,0,0,0-1.49-3.69,5.2,5.2,0,0,0-3.58-1.32,5.48,5.48,0,0,0-2.45.58,4.93,4.93,0,0,0-2,1.68L27.69,35.19a6.12,6.12,0,0,0-1.22,3.63,4.23,4.23,0,0,0,1.16,3,4.17,4.17,0,0,0,3.14,1.21H43v1.87a4.88,4.88,0,0,0,1.35,3.74,5,5,0,0,0,3.55,1.27,5.06,5.06,0,0,0,3.58-1.27,4.82,4.82,0,0,0,1.38-3.74V43.06h1.21c3.19,0,4.79-1.31,4.79-3.91S57.3,35.35,54.11,35.35Zm-17.67,0L43,25.83v9.52Zm57.63,6.94L83.55,30.07l10.3-11.95a4.54,4.54,0,0,0,1.15-3,4.42,4.42,0,0,0-1.45-3.28,4.72,4.72,0,0,0-3.34-1.4A4,4,0,0,0,87,12.12l-9.25,11-9.3-11a4.34,4.34,0,0,0-3.36-1.65,4.68,4.68,0,0,0-3.33,1.4,4.43,4.43,0,0,0-1.46,3.28,4.53,4.53,0,0,0,1.21,3l10.29,12L61.21,42.29A4.74,4.74,0,0,0,64.78,50a4.29,4.29,0,0,0,3.31-1.65L77.72,37l9.47,11.34A4.32,4.32,0,0,0,90.55,50a4.62,4.62,0,0,0,3.27-1.4,4.43,4.43,0,0,0,1.46-3.28A4.49,4.49,0,0,0,94.07,42.29ZM73,98.48H71.77V78.61a4.68,4.68,0,0,0-1.48-3.69,5.2,5.2,0,0,0-3.58-1.32,5.48,5.48,0,0,0-2.45.58,4.93,4.93,0,0,0-2,1.68L46.57,98.31A6.17,6.17,0,0,0,45.35,102a4.19,4.19,0,0,0,1.16,3,4.13,4.13,0,0,0,3.14,1.21H61.92v1.88a4.88,4.88,0,0,0,1.35,3.74,5,5,0,0,0,3.55,1.27,5.1,5.1,0,0,0,3.58-1.27,4.81,4.81,0,0,0,1.37-3.74v-1.88H73q4.79,0,4.78-3.9C77.77,99.74,76.18,98.48,73,98.48Zm-17.67,0L61.92,89v9.52ZM104,61.77h0A3.79,3.79,0,0,0,100.22,58H22.08a3.78,3.78,0,0,0-3.78,3.79h0a3.78,3.78,0,0,0,3.78,3.78h78.14A3.79,3.79,0,0,0,104,61.77Z"/></svg>