<svg id="Layer_1" data-name="Layer 1" xmlns="http://www.w3.org/2000/svg" viewBox="0 0 122.3 122.3"><title>l8_3_1</title><path d="M104.68,122.3H17.62A17.62,17.62,0,0,1,0,104.68V17.62A17.62,17.62,0,0,1,17.62,0h87.06A17.62,17.62,0,0,1,122.3,17.62v87.06A17.62,17.62,0,0,1,104.68,122.3ZM41.06,55.17a13.73,13.73,0,0,0-6,1.31,11.39,11.39,0,0,0-4.37,3.59c.29-4,1.17-7.07,2.67-9.27a6.79,6.79,0,0,1,5.85-3.3,9.45,9.45,0,0,1,3.27.57c1,.38,2.34,1,3.9,1.7l1.57.79a23.09,23.09,0,0,0,2.13,1,4.51,4.51,0,0,0,1.77.32,3.76,3.76,0,0,0,3-1.52,5.71,5.71,0,0,0,1.24-3.73,5.33,5.33,0,0,0-.53-2.49,6.23,6.23,0,0,0-1.74-1.91A22.52,22.52,0,0,0,46.7,38.7a27.64,27.64,0,0,0-8.13-1.28,19.24,19.24,0,0,0-11,3.2,20.74,20.74,0,0,0-7.31,9.12,34.38,34.38,0,0,0-2.59,13.88q0,12.08,5.47,18.6t15.47,6.53a18.29,18.29,0,0,0,9-2.2,15.74,15.74,0,0,0,6.21-6.14,19,19,0,0,0,.29-17.32,14.67,14.67,0,0,0-5.36-5.83A14.4,14.4,0,0,0,41.06,55.17ZM37.79,78.74a5.65,5.65,0,0,1-4.4-1.88,7.91,7.91,0,0,1,0-9.76,5.69,5.69,0,0,1,4.43-1.85,5.62,5.62,0,0,1,4.44,1.81A7.18,7.18,0,0,1,43.83,72a7.13,7.13,0,0,1-1.64,4.9A5.56,5.56,0,0,1,37.79,78.74Zm65.82-.07L90.05,62.91,103.33,47.5a5.86,5.86,0,0,0,1.49-3.83,5.69,5.69,0,0,0-1.89-4.23,6,6,0,0,0-4.29-1.81,5.18,5.18,0,0,0-4.19,2.13L82.52,54l-12-14.2a5.57,5.57,0,0,0-4.33-2.13,6,6,0,0,0-4.29,1.81A5.68,5.68,0,0,0,60,43.67a5.89,5.89,0,0,0,1.56,3.83L74.85,62.91,61.22,78.67a6.11,6.11,0,0,0,4.62,9.94,5.51,5.51,0,0,0,4.26-2.13L82.52,71.86,94.73,86.48a5.59,5.59,0,0,0,4.34,2.13,5.92,5.92,0,0,0,4.22-1.81,5.7,5.7,0,0,0,1.88-4.22A5.79,5.79,0,0,0,103.61,78.67Z"/></svg>