<svg id="Layer_1" data-name="Layer 1" xmlns="http://www.w3.org/2000/svg" viewBox="0 0 122.3 122.3"><title>l8_3_1</title><path d="M104.68,122.3H17.62A17.62,17.62,0,0,1,0,104.68V17.62A17.62,17.62,0,0,1,17.62,0h87.06A17.62,17.62,0,0,1,122.3,17.62v87.06A17.62,17.62,0,0,1,104.68,122.3ZM51.14,38.06H23.31a7,7,0,0,0-4.69,1.31,5,5,0,0,0-1.49,3.94,4.84,4.84,0,0,0,1.46,3.84c1,.85,2.54,1.28,4.72,1.28H41.06L22.81,79.59a6.77,6.77,0,0,0-1,3.41,5.22,5.22,0,0,0,1.91,4.08,6.49,6.49,0,0,0,4.41,1.67,6.1,6.1,0,0,0,3-.81,6.68,6.68,0,0,0,2.45-2.52L55.12,48.14a9.05,9.05,0,0,0,1.35-4.68,5.53,5.53,0,0,0-1.39-3.87A5,5,0,0,0,51.14,38.06Zm52.47,40.61L90.05,62.91,103.33,47.5a5.86,5.86,0,0,0,1.49-3.83,5.69,5.69,0,0,0-1.89-4.23,6,6,0,0,0-4.29-1.81,5.18,5.18,0,0,0-4.19,2.13L82.52,54l-12-14.2a5.57,5.57,0,0,0-4.33-2.13,6,6,0,0,0-4.29,1.81A5.68,5.68,0,0,0,60,43.67a5.89,5.89,0,0,0,1.56,3.83L74.85,62.91,61.22,78.67a6.11,6.11,0,0,0,4.62,9.94,5.51,5.51,0,0,0,4.26-2.13L82.52,71.86,94.73,86.48a5.58,5.58,0,0,0,4.33,2.13,5.93,5.93,0,0,0,4.23-1.81,5.7,5.7,0,0,0,1.88-4.22A5.79,5.79,0,0,0,103.61,78.67Z"/></svg>