<svg id="Layer_1" data-name="Layer 1" xmlns="http://www.w3.org/2000/svg" viewBox="0 0 122.3 122.3"><title>l8_3_1</title><path d="M104.68,122.3H17.62A17.62,17.62,0,0,1,0,104.68V17.62A17.62,17.62,0,0,1,17.62,0h87.06A17.62,17.62,0,0,1,122.3,17.62v87.06A17.62,17.62,0,0,1,104.68,122.3ZM45,24.23a13.78,13.78,0,0,0-5.45,1V18.45H51.41q4.79,0,4.79-3.85t-4.79-3.8H34.35A4.67,4.67,0,0,0,30.88,12a4.76,4.76,0,0,0-1.21,3.52V30.45a3,3,0,0,0,1,2.4,3.84,3.84,0,0,0,2.59.9,5.31,5.31,0,0,0,2.48-.6,18.77,18.77,0,0,1,3.16-1,14.57,14.57,0,0,1,3-.28,6.18,6.18,0,0,1,4.29,1.38,4.89,4.89,0,0,1,1.55,3.85A4.77,4.77,0,0,1,46.29,41a7,7,0,0,1-4.57,1.24,9.08,9.08,0,0,1-3-.49,29.82,29.82,0,0,1-3.11-1.33l-1.1-.55A18.36,18.36,0,0,0,32.8,39a3.61,3.61,0,0,0-1.37-.22A2.83,2.83,0,0,0,29.12,40a4.48,4.48,0,0,0-.94,2.89,4.13,4.13,0,0,0,.41,1.9,4.86,4.86,0,0,0,1.3,1.51,18,18,0,0,0,5.64,2.76,23,23,0,0,0,6.69,1,17.89,17.89,0,0,0,7.87-1.65,12.47,12.47,0,0,0,5.28-4.68,13,13,0,0,0,1.87-7,13.23,13.23,0,0,0-1.57-6.53,11.13,11.13,0,0,0-4.34-4.4A12.71,12.71,0,0,0,45,24.23Zm49.1,18.06L83.55,30.07l10.3-11.95a4.54,4.54,0,0,0,1.15-3,4.42,4.42,0,0,0-1.45-3.28,4.72,4.72,0,0,0-3.34-1.4A4,4,0,0,0,87,12.12l-9.25,11-9.3-11a4.34,4.34,0,0,0-3.36-1.65,4.68,4.68,0,0,0-3.33,1.4,4.43,4.43,0,0,0-1.46,3.28,4.53,4.53,0,0,0,1.21,3l10.3,12L61.21,42.29A4.74,4.74,0,0,0,64.78,50a4.29,4.29,0,0,0,3.31-1.65L77.72,37l9.47,11.34A4.32,4.32,0,0,0,90.55,50a4.62,4.62,0,0,0,3.27-1.4,4.43,4.43,0,0,0,1.46-3.28A4.49,4.49,0,0,0,94.07,42.29ZM63.85,87.36a13.78,13.78,0,0,0-5.45,1V81.58H70.29q4.78,0,4.79-3.85c0-2.54-1.6-3.8-4.79-3.8H53.23a4.67,4.67,0,0,0-3.47,1.21,4.76,4.76,0,0,0-1.21,3.52V93.58a3,3,0,0,0,1,2.39,3.79,3.79,0,0,0,2.59.91,5.31,5.31,0,0,0,2.48-.6,18.77,18.77,0,0,1,3.16-1,14.57,14.57,0,0,1,3-.28,6.18,6.18,0,0,1,4.29,1.38,4.88,4.88,0,0,1,1.55,3.85,4.78,4.78,0,0,1-1.49,3.88,7,7,0,0,1-4.57,1.24,9.08,9.08,0,0,1-3.05-.5,29.59,29.59,0,0,1-3.11-1.32l-1.1-.55a16,16,0,0,0-1.66-.82,3.61,3.61,0,0,0-1.37-.22A2.83,2.83,0,0,0,48,103.13a4.48,4.48,0,0,0-.94,2.89,4.16,4.16,0,0,0,.41,1.9,4.86,4.86,0,0,0,1.3,1.51,18,18,0,0,0,5.64,2.75,23,23,0,0,0,6.69,1A17.89,17.89,0,0,0,69,111.52a12.45,12.45,0,0,0,5.28-4.67,13,13,0,0,0,1.87-7,13.22,13.22,0,0,0-1.57-6.52,11.07,11.07,0,0,0-4.34-4.4A12.71,12.71,0,0,0,63.85,87.36ZM104,61.77h0A3.79,3.79,0,0,0,100.22,58H22.08a3.78,3.78,0,0,0-3.78,3.79h0a3.78,3.78,0,0,0,3.78,3.78h78.14A3.79,3.79,0,0,0,104,61.77Z"/></svg>