<svg id="Layer_1" data-name="Layer 1" xmlns="http://www.w3.org/2000/svg" viewBox="0 0 122.3 122.3"><title>l8_3_1</title><path d="M104.68,122.3H17.62A17.62,17.62,0,0,1,0,104.68V17.62A17.62,17.62,0,0,1,17.62,0h87.06A17.62,17.62,0,0,1,122.3,17.62v87.06A17.62,17.62,0,0,1,104.68,122.3ZM52.48,41.57H41.42l7.81-8a25.84,25.84,0,0,0,4.6-6.19,13.89,13.89,0,0,0,1.35-6.14,10.07,10.07,0,0,0-1.68-5.75,10.79,10.79,0,0,0-4.76-3.86,17.73,17.73,0,0,0-7.16-1.34,21.48,21.48,0,0,0-6.35,1,21.18,21.18,0,0,0-5.81,2.75,3.68,3.68,0,0,0-1.35,1.43,4.67,4.67,0,0,0-.36,2,4.73,4.73,0,0,0,.94,2.95A2.8,2.8,0,0,0,31,21.64a3.3,3.3,0,0,0,1-.16A6.32,6.32,0,0,0,33.13,21c.43-.24.71-.4.86-.47l1.1-.55a25.52,25.52,0,0,1,3.11-1.35,9,9,0,0,1,2.94-.47,4.37,4.37,0,0,1,3.06,1A3.73,3.73,0,0,1,45.27,22q0,3.2-3.63,7L30,41.13a6,6,0,0,0-1.87,4.29,4.12,4.12,0,0,0,1.15,3,4.19,4.19,0,0,0,3.14,1.19H52.48a5.54,5.54,0,0,0,3.61-1,3.8,3.8,0,0,0,1.18-3.09,3.66,3.66,0,0,0-1.18-3A5.66,5.66,0,0,0,52.48,41.57Zm41.62.72L83.58,30.07l10.3-11.95a4.54,4.54,0,0,0,1.15-3,4.43,4.43,0,0,0-1.46-3.28,4.68,4.68,0,0,0-3.33-1.4A4,4,0,0,0,87,12.12l-9.24,11-9.31-11a4.31,4.31,0,0,0-3.35-1.65,4.68,4.68,0,0,0-3.33,1.4,4.4,4.4,0,0,0-1.46,3.28,4.53,4.53,0,0,0,1.21,3l10.29,12L61.23,42.29a4.5,4.5,0,0,0-1.15,3,4.45,4.45,0,0,0,1.46,3.3A4.53,4.53,0,0,0,64.81,50a4.26,4.26,0,0,0,3.3-1.65L77.75,37l9.46,11.34A4.34,4.34,0,0,0,90.57,50a4.66,4.66,0,0,0,3.28-1.4,4.43,4.43,0,0,0,1.46-3.28A4.49,4.49,0,0,0,94.1,42.29ZM71.36,104.7H60.3l7.81-8a25.67,25.67,0,0,0,4.6-6.2,13.81,13.81,0,0,0,1.35-6.13,10.12,10.12,0,0,0-1.68-5.76,10.84,10.84,0,0,0-4.76-3.85,17.72,17.72,0,0,0-7.16-1.35,21.48,21.48,0,0,0-6.35,1,21.2,21.2,0,0,0-5.81,2.76A3.62,3.62,0,0,0,47,78.61a5.27,5.27,0,0,0,.58,4.92,2.78,2.78,0,0,0,2.31,1.24,3.3,3.3,0,0,0,1-.16A6.45,6.45,0,0,0,52,84.08c.43-.23.71-.39.86-.46l1.1-.55a25.52,25.52,0,0,1,3.11-1.35A9,9,0,0,1,60,81.25a4.37,4.37,0,0,1,3.06,1,3.73,3.73,0,0,1,1.07,2.86q0,3.2-3.63,7L48.85,104.26A6,6,0,0,0,47,108.55a4.12,4.12,0,0,0,1.15,3,4.18,4.18,0,0,0,3.14,1.18H71.36a5.54,5.54,0,0,0,3.61-1,3.78,3.78,0,0,0,1.18-3.08,3.63,3.63,0,0,0-1.18-3A5.66,5.66,0,0,0,71.36,104.7ZM104,61.77h0A3.79,3.79,0,0,0,100.22,58H22.08a3.78,3.78,0,0,0-3.78,3.79h0a3.78,3.78,0,0,0,3.78,3.78h78.14A3.79,3.79,0,0,0,104,61.77Z"/></svg>