<svg id="Layer_1" data-name="Layer 1" xmlns="http://www.w3.org/2000/svg" viewBox="0 0 122.3 122.3"><title>l8_3_1</title><path d="M104.68,122.3H17.62A17.62,17.62,0,0,1,0,104.68V17.62A17.62,17.62,0,0,1,17.62,0h87.06A17.62,17.62,0,0,1,122.3,17.62v87.06A17.62,17.62,0,0,1,104.68,122.3ZM53.94,41.57H49.43V15.48a4.79,4.79,0,0,0-1.35-3.58,4.86,4.86,0,0,0-3.55-1.32A9.28,9.28,0,0,0,40,12l-8.81,5.12a3.73,3.73,0,0,0-1.92,3.41,4.6,4.6,0,0,0,1.1,3A3.3,3.3,0,0,0,33,24.84a3.85,3.85,0,0,0,1.93-.55l4.4-2.59V41.57H34.84a5.5,5.5,0,0,0-3.63,1,3.7,3.7,0,0,0-1.16,3q0,4.08,4.79,4.08h19.1q4.79,0,4.79-4.08a3.7,3.7,0,0,0-1.16-3A5.5,5.5,0,0,0,53.94,41.57Zm40.13.72L83.55,30.07l10.3-11.95a4.54,4.54,0,0,0,1.15-3,4.42,4.42,0,0,0-1.45-3.28,4.72,4.72,0,0,0-3.34-1.4A4,4,0,0,0,87,12.12l-9.25,11-9.3-11a4.34,4.34,0,0,0-3.36-1.65,4.68,4.68,0,0,0-3.33,1.4,4.43,4.43,0,0,0-1.46,3.28,4.53,4.53,0,0,0,1.21,3l10.3,12L61.21,42.29A4.74,4.74,0,0,0,64.78,50a4.29,4.29,0,0,0,3.31-1.65L77.72,37l9.47,11.34A4.32,4.32,0,0,0,90.55,50a4.62,4.62,0,0,0,3.27-1.4,4.43,4.43,0,0,0,1.46-3.28A4.49,4.49,0,0,0,94.07,42.29ZM72.82,104.7H68.31V78.61A4.77,4.77,0,0,0,67,75a4.86,4.86,0,0,0-3.55-1.32,9.37,9.37,0,0,0-4.57,1.37L50,80.2a3.75,3.75,0,0,0-1.92,3.42,4.6,4.6,0,0,0,1.1,3A3.29,3.29,0,0,0,51.85,88a3.75,3.75,0,0,0,1.93-.55l4.4-2.58V104.7H53.72a5.5,5.5,0,0,0-3.63,1,3.7,3.7,0,0,0-1.16,3c0,2.72,1.6,4.07,4.79,4.07h19.1c3.19,0,4.79-1.35,4.79-4.07a3.7,3.7,0,0,0-1.16-3A5.5,5.5,0,0,0,72.82,104.7ZM104,61.77h0A3.79,3.79,0,0,0,100.22,58H22.08a3.78,3.78,0,0,0-3.78,3.79h0a3.78,3.78,0,0,0,3.78,3.78h78.14A3.79,3.79,0,0,0,104,61.77Z"/></svg>