<svg id="Layer_1" data-name="Layer 1" xmlns="http://www.w3.org/2000/svg" viewBox="0 0 122.3 122.3"><title>l8_3_1</title><path d="M104.68,122.3H17.62A17.62,17.62,0,0,1,0,104.68V17.62A17.62,17.62,0,0,1,17.62,0h87.06A17.62,17.62,0,0,1,122.3,17.62v87.06A17.62,17.62,0,0,1,104.68,122.3Zm-54-92.67A8.37,8.37,0,0,0,55,26.38a9.55,9.55,0,0,0,1.57-5.51,9.12,9.12,0,0,0-3.83-7.73q-3.83-2.84-10.43-2.83t-10.4,2.83A9.08,9.08,0,0,0,28,20.87a9.34,9.34,0,0,0,1.54,5.37A9.07,9.07,0,0,0,34,29.63a9.08,9.08,0,0,0-5.17,3.27,9.65,9.65,0,0,0-1.82,6,9.49,9.49,0,0,0,4.1,8.17q4.09,3,11.2,2.95t11.2-2.95a9.47,9.47,0,0,0,4.1-8.17,9.05,9.05,0,0,0-6.93-9.3ZM42.27,42.4c-4,0-6-1.44-6-4.3s2-4.29,6-4.29,6,1.43,6,4.29S46.27,42.4,42.27,42.4Zm0-24.44a5.9,5.9,0,0,1,3.69,1A3.73,3.73,0,0,1,47.17,22,3.82,3.82,0,0,1,46,25.17a5.77,5.77,0,0,1-3.69,1,5.77,5.77,0,0,1-3.69-1A3.85,3.85,0,0,1,37.37,22a3.76,3.76,0,0,1,1.21-3.11A5.9,5.9,0,0,1,42.27,18Zm51.8,24.33L83.55,30.07l10.3-11.95a4.54,4.54,0,0,0,1.15-3,4.42,4.42,0,0,0-1.45-3.28,4.72,4.72,0,0,0-3.34-1.4A4,4,0,0,0,87,12.12l-9.25,11-9.3-11a4.34,4.34,0,0,0-3.36-1.65,4.68,4.68,0,0,0-3.33,1.4,4.43,4.43,0,0,0-1.46,3.28,4.53,4.53,0,0,0,1.21,3l10.29,12L61.21,42.29A4.74,4.74,0,0,0,64.78,50a4.29,4.29,0,0,0,3.31-1.65L77.72,37l9.47,11.34A4.32,4.32,0,0,0,90.55,50a4.62,4.62,0,0,0,3.27-1.4,4.43,4.43,0,0,0,1.46-3.28A4.49,4.49,0,0,0,94.07,42.29ZM69.52,92.75a8.3,8.3,0,0,0,4.32-3.24A9.57,9.57,0,0,0,75.41,84a9.12,9.12,0,0,0-3.83-7.73q-3.83-2.83-10.43-2.84t-10.4,2.84A9.08,9.08,0,0,0,46.9,84a9.34,9.34,0,0,0,1.54,5.37,9,9,0,0,0,4.4,3.38A9.15,9.15,0,0,0,47.67,96a9.61,9.61,0,0,0-1.82,6,9.51,9.51,0,0,0,4.1,8.17q4.09,2.94,11.2,3t11.2-3a9.7,9.7,0,0,0-2.83-17.48Zm-8.37,12.77q-6,0-6-4.29t6-4.29q6,0,6,4.29T61.15,105.52Zm0-24.44a5.89,5.89,0,0,1,3.69,1,3.73,3.73,0,0,1,1.21,3.11,3.8,3.8,0,0,1-1.21,3.13,5.7,5.7,0,0,1-3.69,1,5.7,5.7,0,0,1-3.69-1,3.83,3.83,0,0,1-1.21-3.13,3.76,3.76,0,0,1,1.21-3.11A5.89,5.89,0,0,1,61.15,81.08ZM104,61.77h0A3.79,3.79,0,0,0,100.22,58H22.08a3.78,3.78,0,0,0-3.78,3.79h0a3.78,3.78,0,0,0,3.78,3.78h78.14A3.79,3.79,0,0,0,104,61.77Z"/></svg>