<svg id="Layer_1" data-name="Layer 1" xmlns="http://www.w3.org/2000/svg" viewBox="0 0 122.3 122.3"><title>l8_3_1</title><path d="M104.68,122.3H17.62A17.62,17.62,0,0,1,0,104.68V17.62A17.62,17.62,0,0,1,17.62,0h87.06A17.62,17.62,0,0,1,122.3,17.62v87.06A17.62,17.62,0,0,1,104.68,122.3Zm-57.09-60a10.61,10.61,0,0,0,5.57-4.19,12.33,12.33,0,0,0,2-7.1,11.75,11.75,0,0,0-4.94-10q-4.94-3.66-13.45-3.66T23.38,41.08a11.73,11.73,0,0,0-5,10,12,12,0,0,0,2,6.92,11.6,11.6,0,0,0,5.68,4.37,11.87,11.87,0,0,0-6.68,4.23,12.48,12.48,0,0,0-2.34,7.77,12.23,12.23,0,0,0,5.29,10.54q5.29,3.81,14.45,3.8t14.45-3.8a12.26,12.26,0,0,0,5.29-10.54,11.69,11.69,0,0,0-8.95-12ZM36.8,78.81q-7.74,0-7.74-5.53t7.74-5.54q7.74,0,7.74,5.54T36.8,78.81Zm0-31.52a7.59,7.59,0,0,1,4.76,1.24,4.83,4.83,0,0,1,1.56,4,4.93,4.93,0,0,1-1.56,4.05,7.45,7.45,0,0,1-4.76,1.28A7.43,7.43,0,0,1,32,56.59a4.93,4.93,0,0,1-1.56-4.05,4.83,4.83,0,0,1,1.56-4A7.57,7.57,0,0,1,36.8,47.29Zm66.81,31.38L90.05,62.91,103.33,47.5a5.86,5.86,0,0,0,1.49-3.83,5.69,5.69,0,0,0-1.89-4.23,6,6,0,0,0-4.29-1.81,5.18,5.18,0,0,0-4.19,2.13L82.52,54l-12-14.2a5.57,5.57,0,0,0-4.33-2.13,6,6,0,0,0-4.29,1.81A5.68,5.68,0,0,0,60,43.67a5.89,5.89,0,0,0,1.56,3.83L74.85,62.91,61.22,78.67a6.11,6.11,0,0,0,4.62,9.94,5.51,5.51,0,0,0,4.26-2.13L82.52,71.86,94.73,86.48a5.59,5.59,0,0,0,4.34,2.13,5.92,5.92,0,0,0,4.22-1.81,5.7,5.7,0,0,0,1.88-4.22A5.79,5.79,0,0,0,103.61,78.67Z"/></svg>