<svg id="Layer_1" data-name="Layer 1" xmlns="http://www.w3.org/2000/svg" viewBox="0 0 122.3 122.3"><title>l8_3_1</title><path d="M104.68,122.3H17.62A17.62,17.62,0,0,1,0,104.68V17.62A17.62,17.62,0,0,1,17.62,0h87.06A17.62,17.62,0,0,1,122.3,17.62v87.06A17.62,17.62,0,0,1,104.68,122.3Zm-58.86-60a11.54,11.54,0,0,0,5.64-4.29,11.82,11.82,0,0,0,2-6.86A12.44,12.44,0,0,0,51.32,44a14,14,0,0,0-6.18-4.83,23.61,23.61,0,0,0-9.26-1.7,28.57,28.57,0,0,0-8.42,1.28,23.29,23.29,0,0,0-7.2,3.55,4.84,4.84,0,0,0-2.2,4.4,5.85,5.85,0,0,0,1.2,3.73,3.66,3.66,0,0,0,3,1.52A4.71,4.71,0,0,0,24,51.59c.52-.22,1.23-.56,2.13-1l1.49-.71a39.38,39.38,0,0,1,3.87-1.71,10.86,10.86,0,0,1,3.73-.64A6.12,6.12,0,0,1,39.57,49,5.31,5.31,0,0,1,41.13,53a4,4,0,0,1-1.78,3.62q-1.77,1.14-5.68,1.14H30.55a4.05,4.05,0,0,0-3.34,1.49,5.85,5.85,0,0,0,0,7.1,4.08,4.08,0,0,0,3.34,1.49H35q4,0,5.82,1.21a4.44,4.44,0,0,1,1.78,4q0,3-1.74,4.26T35.1,78.6A13,13,0,0,1,31,78a31.17,31.17,0,0,1-4.08-1.74L26,75.87l-.67-.32a23.54,23.54,0,0,0-2.13-1,4.52,4.52,0,0,0-1.78-.32,3.69,3.69,0,0,0-3,1.52,5.88,5.88,0,0,0-1.21,3.73,5.58,5.58,0,0,0,.5,2.45,5.47,5.47,0,0,0,1.71,1.95,22.66,22.66,0,0,0,7.38,3.59,31.47,31.47,0,0,0,8.87,1.24,26.63,26.63,0,0,0,10.05-1.74A14.94,14.94,0,0,0,52.42,82a12.4,12.4,0,0,0,2.34-7.53,12.57,12.57,0,0,0-2.38-7.74A12.07,12.07,0,0,0,45.82,62.34Zm57.79,16.33L90.05,62.91,103.33,47.5a5.86,5.86,0,0,0,1.49-3.83,5.69,5.69,0,0,0-1.89-4.23,6,6,0,0,0-4.29-1.81,5.18,5.18,0,0,0-4.19,2.13L82.52,54l-12-14.2a5.57,5.57,0,0,0-4.33-2.13,6,6,0,0,0-4.29,1.81A5.68,5.68,0,0,0,60,43.67a5.89,5.89,0,0,0,1.56,3.83L74.85,62.91,61.22,78.67a6.11,6.11,0,0,0,4.62,9.94,5.51,5.51,0,0,0,4.26-2.13L82.52,71.86,94.73,86.48a5.58,5.58,0,0,0,4.33,2.13,5.93,5.93,0,0,0,4.23-1.81,5.7,5.7,0,0,0,1.88-4.22A5.81,5.81,0,0,0,103.61,78.67Z"/></svg>