<svg id="Layer_1" data-name="Layer 1" xmlns="http://www.w3.org/2000/svg" viewBox="0 0 122.3 122.3"><title>l8_3_1</title><path d="M104.68,122.3H17.62A17.62,17.62,0,0,1,0,104.68V17.62A17.62,17.62,0,0,1,17.62,0h87.06A17.62,17.62,0,0,1,122.3,17.62v87.06A17.62,17.62,0,0,1,104.68,122.3ZM49.26,29.63a9,9,0,0,0,4.38-3.33A9.23,9.23,0,0,0,55.21,21a9.6,9.6,0,0,0-1.68-5.61,10.75,10.75,0,0,0-4.79-3.74,18.25,18.25,0,0,0-7.18-1.32,22.1,22.1,0,0,0-6.53,1,18.07,18.07,0,0,0-5.58,2.75,4.49,4.49,0,0,0-1.33,1.48,4.42,4.42,0,0,0-.38,1.93,4.48,4.48,0,0,0,.94,2.89A2.83,2.83,0,0,0,31,21.53a3.68,3.68,0,0,0,1.37-.24c.41-.17,1-.43,1.66-.8l1.15-.55a29.55,29.55,0,0,1,3-1.32,8.32,8.32,0,0,1,2.89-.5,4.76,4.76,0,0,1,3.36,1.13,4.11,4.11,0,0,1,1.21,3.17,3.07,3.07,0,0,1-1.38,2.8,8.36,8.36,0,0,1-4.4.88H37.43a3.15,3.15,0,0,0-2.59,1.16,4.49,4.49,0,0,0,0,5.5,3.15,3.15,0,0,0,2.59,1.16h3.41a8.19,8.19,0,0,1,4.51.94,3.44,3.44,0,0,1,1.38,3.08,3.82,3.82,0,0,1-1.35,3.3,7.63,7.63,0,0,1-4.43,1,9.72,9.72,0,0,1-3.16-.47,23.54,23.54,0,0,1-3.17-1.35l-.69-.3-.52-.25c-.7-.36-1.25-.63-1.65-.79a3.54,3.54,0,0,0-1.38-.25A2.83,2.83,0,0,0,28.07,40a4.54,4.54,0,0,0-.94,2.89,4.26,4.26,0,0,0,.39,1.9,4.35,4.35,0,0,0,1.32,1.51,17.48,17.48,0,0,0,5.73,2.78,24.13,24.13,0,0,0,6.88,1,20.61,20.61,0,0,0,7.78-1.35,11.61,11.61,0,0,0,5.15-3.83A9.59,9.59,0,0,0,56.2,39a9.76,9.76,0,0,0-1.85-6A9.33,9.33,0,0,0,49.26,29.63ZM94.07,42.29,83.55,30.07l10.3-11.95a4.54,4.54,0,0,0,1.15-3,4.42,4.42,0,0,0-1.45-3.28,4.72,4.72,0,0,0-3.34-1.4A4,4,0,0,0,87,12.12l-9.25,11-9.3-11a4.34,4.34,0,0,0-3.36-1.65,4.68,4.68,0,0,0-3.33,1.4,4.43,4.43,0,0,0-1.46,3.28,4.53,4.53,0,0,0,1.21,3l10.3,12L61.21,42.29A4.74,4.74,0,0,0,64.78,50a4.29,4.29,0,0,0,3.31-1.65L77.72,37l9.47,11.34A4.32,4.32,0,0,0,90.55,50a4.62,4.62,0,0,0,3.27-1.4,4.43,4.43,0,0,0,1.46-3.28A4.49,4.49,0,0,0,94.07,42.29ZM68.14,92.75a8.88,8.88,0,0,0,4.38-3.33,9.18,9.18,0,0,0,1.57-5.31,9.58,9.58,0,0,0-1.68-5.61,10.76,10.76,0,0,0-4.79-3.75,18.25,18.25,0,0,0-7.18-1.32,22.1,22.1,0,0,0-6.53,1,18.09,18.09,0,0,0-5.58,2.76,3.72,3.72,0,0,0-1.71,3.41,4.48,4.48,0,0,0,.94,2.89,2.83,2.83,0,0,0,2.31,1.18,3.49,3.49,0,0,0,1.37-.25c.41-.16,1-.43,1.65-.79l1.16-.55a32.26,32.26,0,0,1,3-1.33,8.31,8.31,0,0,1,2.89-.49,4.76,4.76,0,0,1,3.36,1.13,4.14,4.14,0,0,1,1.21,3.16,3.09,3.09,0,0,1-1.38,2.81,8.36,8.36,0,0,1-4.4.88H56.31a3.15,3.15,0,0,0-2.59,1.16,4.49,4.49,0,0,0,0,5.5,3.15,3.15,0,0,0,2.59,1.16h3.41a8.29,8.29,0,0,1,4.51.93,3.46,3.46,0,0,1,1.38,3.09,3.82,3.82,0,0,1-1.35,3.3,7.63,7.63,0,0,1-4.43,1,10,10,0,0,1-3.16-.47,23.54,23.54,0,0,1-3.17-1.35l-.69-.3-.52-.25c-.7-.36-1.25-.63-1.65-.8a3.73,3.73,0,0,0-1.38-.24A2.83,2.83,0,0,0,47,103.13,4.54,4.54,0,0,0,46,106a4.29,4.29,0,0,0,.39,1.9,4.35,4.35,0,0,0,1.32,1.51,17.58,17.58,0,0,0,5.73,2.78,24.49,24.49,0,0,0,6.88,1,20.61,20.61,0,0,0,7.78-1.35A11.61,11.61,0,0,0,73.26,108a9.59,9.59,0,0,0,1.82-5.83,9.76,9.76,0,0,0-1.85-6A9.39,9.39,0,0,0,68.14,92.75Zm35.87-31h0A3.79,3.79,0,0,0,100.22,58H22.08a3.78,3.78,0,0,0-3.78,3.79h0a3.78,3.78,0,0,0,3.78,3.78h78.14A3.79,3.79,0,0,0,104,61.77Z"/></svg>