<svg id="Layer_1" data-name="Layer 1" xmlns="http://www.w3.org/2000/svg" viewBox="0 0 122.3 122.3"><title>l8_3_1</title><path d="M104.68,122.3H17.62A17.62,17.62,0,0,1,0,104.68V17.62A17.62,17.62,0,0,1,17.62,0h87.06A17.62,17.62,0,0,1,122.3,17.62v87.06A17.62,17.62,0,0,1,104.68,122.3ZM40.28,55.38a17.79,17.79,0,0,0-7,1.28V47.93H48.58q6.18,0,6.18-5t-6.18-4.9h-22a6.06,6.06,0,0,0-4.48,1.56,6.16,6.16,0,0,0-1.56,4.54V63.41a3.88,3.88,0,0,0,1.35,3.08,4.87,4.87,0,0,0,3.34,1.18,6.78,6.78,0,0,0,3.19-.78,24,24,0,0,1,4.08-1.28,19.15,19.15,0,0,1,3.87-.36A8,8,0,0,1,41.91,67a6.3,6.3,0,0,1,2,5q0,3.41-1.92,5t-5.89,1.6A11.67,11.67,0,0,1,32.15,78a37.23,37.23,0,0,1-4-1.7l-1.42-.71a23.08,23.08,0,0,0-2.13-1.07,4.85,4.85,0,0,0-1.78-.28,3.68,3.68,0,0,0-3,1.52,5.82,5.82,0,0,0-1.21,3.73,5.18,5.18,0,0,0,.54,2.45,6.18,6.18,0,0,0,1.66,1.95A23.31,23.31,0,0,0,28.1,87.4a29.38,29.38,0,0,0,8.63,1.28,23,23,0,0,0,10.15-2.13,16,16,0,0,0,6.82-6,16.81,16.81,0,0,0,2.41-9,17.07,17.07,0,0,0-2-8.41,14.39,14.39,0,0,0-5.61-5.68A16.4,16.4,0,0,0,40.28,55.38Zm63.33,23.29L90.05,62.91,103.33,47.5a5.86,5.86,0,0,0,1.49-3.83,5.69,5.69,0,0,0-1.89-4.23,6,6,0,0,0-4.29-1.81,5.18,5.18,0,0,0-4.19,2.13L82.52,54l-12-14.2a5.57,5.57,0,0,0-4.33-2.13,6,6,0,0,0-4.29,1.81A5.68,5.68,0,0,0,60,43.67a5.89,5.89,0,0,0,1.56,3.83L74.85,62.91,61.22,78.67a6.11,6.11,0,0,0,4.62,9.94,5.51,5.51,0,0,0,4.26-2.13L82.52,71.86,94.73,86.48a5.58,5.58,0,0,0,4.33,2.13,5.93,5.93,0,0,0,4.23-1.81,5.7,5.7,0,0,0,1.88-4.22A5.79,5.79,0,0,0,103.61,78.67Z"/></svg>