<svg id="Layer_1" data-name="Layer 1" xmlns="http://www.w3.org/2000/svg" viewBox="0 0 122.3 122.3"><title>l8_3_1</title><path d="M104.68,122.3H17.62A17.62,17.62,0,0,1,0,104.68V17.62A17.62,17.62,0,0,1,17.62,0h87.06A17.62,17.62,0,0,1,122.3,17.62v87.06A17.62,17.62,0,0,1,104.68,122.3ZM53.39,10.8H31.81a5.39,5.39,0,0,0-3.63,1,3.86,3.86,0,0,0-1.16,3,3.77,3.77,0,0,0,1.13,3,5.49,5.49,0,0,0,3.66,1H45.57L31.43,43a5.14,5.14,0,0,0-.77,2.64,4,4,0,0,0,1.48,3.17,5.06,5.06,0,0,0,3.42,1.29,4.78,4.78,0,0,0,2.34-.63,5.07,5.07,0,0,0,1.89-1.95l16.68-28.9A7,7,0,0,0,57.52,15a4.32,4.32,0,0,0-1.07-3A4,4,0,0,0,53.39,10.8ZM94.07,42.29,83.55,30.07l10.3-11.95a4.54,4.54,0,0,0,1.15-3,4.42,4.42,0,0,0-1.45-3.28,4.72,4.72,0,0,0-3.34-1.4A4,4,0,0,0,87,12.12l-9.25,11-9.3-11a4.34,4.34,0,0,0-3.36-1.65,4.68,4.68,0,0,0-3.33,1.4,4.43,4.43,0,0,0-1.46,3.28,4.53,4.53,0,0,0,1.21,3l10.3,12L61.21,42.29A4.74,4.74,0,0,0,64.78,50a4.29,4.29,0,0,0,3.31-1.65L77.72,37l9.47,11.34A4.32,4.32,0,0,0,90.55,50a4.62,4.62,0,0,0,3.27-1.4,4.43,4.43,0,0,0,1.46-3.28A4.49,4.49,0,0,0,94.07,42.29ZM72.27,73.93H50.69a5.39,5.39,0,0,0-3.63,1,3.85,3.85,0,0,0-1.16,3A3.75,3.75,0,0,0,47,81a5.49,5.49,0,0,0,3.66,1H64.45L50.31,106.13a5.14,5.14,0,0,0-.77,2.64A4.05,4.05,0,0,0,51,111.94a5.06,5.06,0,0,0,3.42,1.29,4.78,4.78,0,0,0,2.34-.63,5.1,5.1,0,0,0,1.89-2l16.68-28.9a7,7,0,0,0,1.05-3.63,4.32,4.32,0,0,0-1.07-3A3.93,3.93,0,0,0,72.27,73.93ZM104,61.77h0A3.79,3.79,0,0,0,100.22,58H22.08a3.78,3.78,0,0,0-3.78,3.79h0a3.78,3.78,0,0,0,3.78,3.78h78.14A3.79,3.79,0,0,0,104,61.77Z"/></svg>