<svg id="Layer_1" data-name="Layer 1" xmlns="http://www.w3.org/2000/svg" viewBox="0 0 122.3 122.3"><title>l8_3_1</title><path d="M104.68,122.3H17.62A17.62,17.62,0,0,1,0,104.68V17.62A17.62,17.62,0,0,1,17.62,0h87.06A17.62,17.62,0,0,1,122.3,17.62v87.06A17.62,17.62,0,0,1,104.68,122.3ZM50,77.75H35.7l10.08-10.3a33.22,33.22,0,0,0,5.93-8,17.9,17.9,0,0,0,1.74-7.92,13,13,0,0,0-2.17-7.42,13.86,13.86,0,0,0-6.14-5,22.86,22.86,0,0,0-9.23-1.74,27.84,27.84,0,0,0-8.2,1.28,27.38,27.38,0,0,0-7.49,3.55,4.75,4.75,0,0,0-1.74,1.84,6.85,6.85,0,0,0,.75,6.36,3.63,3.63,0,0,0,3,1.6,4.34,4.34,0,0,0,1.35-.22A8.14,8.14,0,0,0,25,51.16l1.1-.61,1.42-.71a34.68,34.68,0,0,1,4-1.73,11.24,11.24,0,0,1,3.79-.61,5.59,5.59,0,0,1,3.94,1.28,4.74,4.74,0,0,1,1.39,3.69q0,4.13-4.69,9l-15,15.69a7.77,7.77,0,0,0-2.41,5.54A5.29,5.29,0,0,0,20,86.59a5.37,5.37,0,0,0,4,1.52H50a7.15,7.15,0,0,0,4.65-1.27,4.91,4.91,0,0,0,1.53-4A4.7,4.7,0,0,0,54.62,79,7.27,7.27,0,0,0,50,77.75Zm53.68.92L90.08,62.91,103.36,47.5a5.81,5.81,0,0,0,1.49-3.83A5.72,5.72,0,0,0,103,39.44a6.05,6.05,0,0,0-4.29-1.81,5.17,5.17,0,0,0-4.19,2.13L82.56,54l-12-14.2a5.58,5.58,0,0,0-4.33-2.13,6.07,6.07,0,0,0-4.3,1.81,5.72,5.72,0,0,0-1.88,4.23,5.89,5.89,0,0,0,1.56,3.83L74.89,62.91,61.26,78.67a6.12,6.12,0,0,0,4.61,9.94,5.51,5.51,0,0,0,4.26-2.13L82.56,71.86,94.77,86.48a5.57,5.57,0,0,0,4.33,2.13,6,6,0,0,0,4.23-1.81,5.7,5.7,0,0,0,1.88-4.22A5.79,5.79,0,0,0,103.65,78.67Z"/></svg>