<svg id="Layer_1" data-name="Layer 1" xmlns="http://www.w3.org/2000/svg" viewBox="0 0 172.3 122.3"><title>s8_1</title><path d="M151.29,122.3H21a21,21,0,0,1-21-21V21A21,21,0,0,1,21,0H151.29a21,21,0,0,1,21,21v80.28A21,21,0,0,1,151.29,122.3ZM73.05,85h-8.2V37.61a8.7,8.7,0,0,0-2.45-6.5A8.81,8.81,0,0,0,56,28.71a17,17,0,0,0-8.3,2.5l-16,9.3a6.8,6.8,0,0,0-3.5,6.2,8.42,8.42,0,0,0,2,5.45A6,6,0,0,0,35,54.61a6.78,6.78,0,0,0,3.5-1l8-4.7V85h-8.1q-4.5,0-6.6,1.8a6.72,6.72,0,0,0-2.1,5.4q0,7.41,8.7,7.4h34.7q8.7,0,8.7-7.4a6.72,6.72,0,0,0-2.1-5.4Q77.55,85,73.05,85Zm72.9,1.3-19.1-22.2,18.7-21.7a8.21,8.21,0,0,0,2.1-5.4A8,8,0,0,0,145,31.06,8.49,8.49,0,0,0,139,28.51a7.3,7.3,0,0,0-5.9,3l-16.8,20-16.9-20a7.86,7.86,0,0,0-6.1-3,8.49,8.49,0,0,0-6,2.55A8,8,0,0,0,84.55,37a8.26,8.26,0,0,0,2.2,5.4l18.7,21.7-19.2,22.2a8.25,8.25,0,0,0-2.1,5.4,8.15,8.15,0,0,0,2.65,6,8.28,8.28,0,0,0,6,2.6,7.75,7.75,0,0,0,6-3l17.5-20.6,17.2,20.6a7.86,7.86,0,0,0,6.1,3,8.38,8.38,0,0,0,5.95-2.55,8,8,0,0,0,2.65-6A8.14,8.14,0,0,0,146,86.31Z"/></svg>