<svg id="Layer_1" data-name="Layer 1" xmlns="http://www.w3.org/2000/svg" viewBox="0 0 172.3 122.3"><title>s8_1</title><path d="M151.29,122.3H21a21,21,0,0,1-21-21V21A21,21,0,0,1,21,0H151.29a21,21,0,0,1,21,21v80.28A21,21,0,0,1,151.29,122.3ZM70.4,85H50.3l14.2-14.5a46.68,46.68,0,0,0,8.35-11.25A25.22,25.22,0,0,0,75.3,48.11a18.38,18.38,0,0,0-3-10.45,19.58,19.58,0,0,0-8.65-7,32.25,32.25,0,0,0-13-2.45A40.71,40.71,0,0,0,28.5,35a6.62,6.62,0,0,0-2.45,2.6,8.68,8.68,0,0,0-.65,3.6,8.63,8.63,0,0,0,1.7,5.35,5.09,5.09,0,0,0,4.2,2.25,6,6,0,0,0,1.9-.3,11.58,11.58,0,0,0,2-.95l1.55-.85,2-1a50.17,50.17,0,0,1,5.65-2.45,16.4,16.4,0,0,1,5.35-.85,7.89,7.89,0,0,1,5.55,1.8,6.74,6.74,0,0,1,1.95,5.2q0,5.81-6.6,12.7L29.5,84.21A11,11,0,0,0,26.1,92a7.47,7.47,0,0,0,2.1,5.45,7.58,7.58,0,0,0,5.7,2.15H70.4c2.93,0,5.12-.6,6.55-1.8s2.15-3.06,2.15-5.6-.72-4.28-2.15-5.45S73.33,85,70.4,85Zm75.6,1.3-19.1-22.2,18.7-21.7a8.21,8.21,0,0,0,2.1-5.4,8,8,0,0,0-2.65-5.95A8.49,8.49,0,0,0,139,28.51a7.3,7.3,0,0,0-5.9,3l-16.8,20-16.9-20a7.86,7.86,0,0,0-6.1-3,8.49,8.49,0,0,0-6,2.55A8,8,0,0,0,84.6,37a8.26,8.26,0,0,0,2.2,5.4l18.7,21.7L86.3,86.31a8.25,8.25,0,0,0-2.1,5.4,8.15,8.15,0,0,0,2.65,6,8.28,8.28,0,0,0,6,2.6,7.75,7.75,0,0,0,6-3l17.5-20.6,17.2,20.6a7.86,7.86,0,0,0,6.1,3,8.38,8.38,0,0,0,6-2.55,8,8,0,0,0,2.65-6A8.14,8.14,0,0,0,146,86.31Z"/></svg>