<svg id="Layer_1" data-name="Layer 1" xmlns="http://www.w3.org/2000/svg" viewBox="0 0 172.3 122.3"><title>s8_1</title><path d="M151.29,122.3H21a21,21,0,0,1-21-21V21A21,21,0,0,1,21,0H151.29a21,21,0,0,1,21,21v80.28A21,21,0,0,1,151.29,122.3Zm-86.74-59a16.16,16.16,0,0,0,8-6.05,16.61,16.61,0,0,0,2.85-9.65,17.51,17.51,0,0,0-3-10.2,19.55,19.55,0,0,0-8.7-6.8,33.17,33.17,0,0,0-13.05-2.4A40.08,40.08,0,0,0,38.7,30a33.3,33.3,0,0,0-10.15,5,8.21,8.21,0,0,0-2.4,2.7,7.77,7.77,0,0,0-.7,3.5,8.21,8.21,0,0,0,1.7,5.25,5.14,5.14,0,0,0,4.2,2.15,6.55,6.55,0,0,0,2.5-.45c.73-.3,1.73-.78,3-1.45l2.1-1a54.31,54.31,0,0,1,5.45-2.4,15.08,15.08,0,0,1,5.25-.9,8.64,8.64,0,0,1,6.1,2.05A7.48,7.48,0,0,1,58,50.21a5.59,5.59,0,0,1-2.5,5.1c-1.67,1.07-4.33,1.6-8,1.6h-4.4a5.71,5.71,0,0,0-4.7,2.1,8.2,8.2,0,0,0,0,10,5.71,5.71,0,0,0,4.7,2.1h6.2q5.7,0,8.2,1.7c1.67,1.14,2.5,3,2.5,5.6q0,4.2-2.45,6c-1.63,1.2-4.32,1.8-8,1.8a18.05,18.05,0,0,1-5.75-.85A43.15,43.15,0,0,1,38,82.91l-1.25-.55c-.37-.16-.68-.31-1-.45-1.27-.66-2.27-1.15-3-1.45a6.55,6.55,0,0,0-2.5-.45,5.17,5.17,0,0,0-4.2,2.15,8.25,8.25,0,0,0-1.7,5.25,7.78,7.78,0,0,0,.7,3.45,7.86,7.86,0,0,0,2.4,2.75,32,32,0,0,0,10.4,5,44.31,44.31,0,0,0,12.5,1.75A37.4,37.4,0,0,0,64.5,98,21,21,0,0,0,73.85,91a17.43,17.43,0,0,0,3.3-10.6,17.77,17.77,0,0,0-3.35-10.9A17,17,0,0,0,64.55,63.31Zm81.4,23-19.1-22.2,18.7-21.7a8.21,8.21,0,0,0,2.1-5.4A8,8,0,0,0,145,31.06,8.49,8.49,0,0,0,139,28.51a7.3,7.3,0,0,0-5.9,3l-16.8,20-16.9-20a7.86,7.86,0,0,0-6.1-3,8.49,8.49,0,0,0-6,2.55A8,8,0,0,0,84.55,37a8.26,8.26,0,0,0,2.2,5.4l18.7,21.7-19.2,22.2a8.25,8.25,0,0,0-2.1,5.4,8.15,8.15,0,0,0,2.65,6,8.28,8.28,0,0,0,6,2.6,7.75,7.75,0,0,0,6-3l17.5-20.6,17.2,20.6a7.86,7.86,0,0,0,6.1,3,8.38,8.38,0,0,0,5.95-2.55,8,8,0,0,0,2.65-6A8.14,8.14,0,0,0,146,86.31Z"/></svg>