<svg id="Layer_1" data-name="Layer 1" xmlns="http://www.w3.org/2000/svg" viewBox="0 0 200 150"><title>g5</title><path d="M185.17,124.69H15A14.83,14.83,0,0,1,.16,109.86V37.25A14.83,14.83,0,0,1,15,22.42H185.17A14.83,14.83,0,0,1,200,37.25v72.61A14.83,14.83,0,0,1,185.17,124.69ZM8,91.79H26.32a3.66,3.66,0,1,0,0-7.32H15.84v-.18l6-5.2c5.12-4.43,7.41-6.74,7.41-11.18,0-6-5.13-10-13.15-10-5.77,0-10.41,2.45-12.15,6.38a5.26,5.26,0,0,0-.43,2.15c0,2.33,1.5,3.77,4,3.77,1.85,0,3-.68,4.29-2.56S14.24,65,16,65c2.35,0,3.95,1.44,3.95,3.52S18.88,72,15.18,75.14L6.1,82.91c-1.83,1.54-2.66,2.91-2.66,4.69C3.44,90,4.82,91.79,8,91.79Zm31.62-1.63c1.67,0,2.34-.66,3.57-1.87L47.6,84,52,88.29c1.23,1.21,1.92,1.87,3.56,1.87a3.72,3.72,0,0,0,3.87-3.75A4.63,4.63,0,0,0,57.66,83L53,78.36l4.66-4.69a4.63,4.63,0,0,0,1.81-3.38,3.72,3.72,0,0,0-3.87-3.75c-1.64,0-2.33.66-3.56,1.87l-4.44,4.3-4.44-4.3c-1.23-1.21-1.9-1.87-3.57-1.87a3.72,3.72,0,0,0-3.86,3.75,4.65,4.65,0,0,0,1.8,3.38l4.67,4.69L37.53,83a4.65,4.65,0,0,0-1.8,3.38A3.72,3.72,0,0,0,39.59,90.16Zm39,9.68c1.82,0,3.24-1.17,3.24-2.61A4.76,4.76,0,0,0,81.23,95a39.67,39.67,0,0,1-3.77-16.19A35.79,35.79,0,0,1,81.05,63a5.58,5.58,0,0,0,.57-2.22c0-1.44-1.42-2.61-3.25-2.61-2.1,0-3.89,1.14-5.74,3.57-3.41,4.44-4.89,10.2-4.89,17.08s1.55,12.81,5.07,17.41C74.67,98.7,76.45,99.84,78.56,99.84Zm12.4-8H109.3a3.66,3.66,0,1,0,0-7.32H98.83v-.18l6-5.2c5.13-4.43,7.41-6.74,7.41-11.18,0-6-5.12-10-13.15-10-5.76,0-10.41,2.45-12.14,6.38a5.27,5.27,0,0,0-.44,2.15c0,2.33,1.51,3.77,4,3.77,1.85,0,3-.68,4.3-2.56S97.23,65,99,65c2.36,0,4,1.44,4,3.52s-1,3.41-4.76,6.59l-9.08,7.77c-1.83,1.54-2.65,2.91-2.65,4.69C86.43,90,87.8,91.79,91,91.79Zm39.62,0c2.61,0,4.12-1.6,4.12-4.39V82.32h4.83c2.67,0,4.23-1.47,4.23-4s-1.53-4-4.19-4H134.7v-5.1c0-2.79-1.51-4.39-4.12-4.39s-4.11,1.6-4.11,4.39v5.1h-4.9c-2.65,0-4.16,1.46-4.16,4s1.51,4,4.16,4h4.9v5.05C126.47,90.19,128,91.79,130.58,91.79Zm31.56.91c8.83,0,14.25-4,14.25-10.31,0-4.39-3.11-7.16-8.15-7.69v-.18c3.64-.73,6.77-3.39,6.77-7.66,0-5.88-5.58-9-12.92-9-7.09,0-11.11,3.5-12.28,6.68a4.86,4.86,0,0,0-.32,1.78c0,2.15,1.3,3.71,4,3.71a4.43,4.43,0,0,0,4.39-2.66,4.56,4.56,0,0,1,4.3-2.44c2.44,0,4,1.28,4,3.31s-1.73,3.43-4.73,3.43h-.23c-2.26,0-3.41,1.33-3.41,3.18s1.15,3.2,3.41,3.2h.23c3.36,0,5.17,1.26,5.17,3.62,0,2-1.74,3.5-4.16,3.5A5.58,5.58,0,0,1,157,82.3a4.31,4.31,0,0,0-4-2c-2.61,0-4.21,1.48-4.21,3.88a5.2,5.2,0,0,0,.3,1.72C150.29,89,154.45,92.7,162.14,92.7Zm21.76,7.14c2.1,0,3.89-1.14,5.74-3.57,3.52-4.6,5.08-10.52,5.08-17.41s-1.49-12.64-4.9-17.08c-1.85-2.43-3.63-3.57-5.74-3.57-1.83,0-3.25,1.17-3.25,2.61A5.76,5.76,0,0,0,181.4,63,35.81,35.81,0,0,1,185,78.82,39.52,39.52,0,0,1,181.22,95a4.89,4.89,0,0,0-.57,2.22C180.65,98.67,182.07,99.84,183.9,99.84Z"/></svg>