<svg id="Layer_1" data-name="Layer 1" xmlns="http://www.w3.org/2000/svg" viewBox="0 0 100 100"><title>l5_1_1</title><path d="M83.53,100H16.47A16.47,16.47,0,0,1,0,83.53V16.47A16.47,16.47,0,0,1,16.47,0H83.53A16.47,16.47,0,0,1,100,16.47V83.53A16.47,16.47,0,0,1,83.53,100ZM11.6,46.51a3.33,3.33,0,0,0,1.13,1.14A2.43,2.43,0,0,0,14,48a1.56,1.56,0,0,0,1.1-.41,1.45,1.45,0,0,0,.43-1.09,2.72,2.72,0,0,0-.2-1A26.24,26.24,0,0,1,14,40.8a28.45,28.45,0,0,1-.41-5,29.44,29.44,0,0,1,.41-5.1,24.53,24.53,0,0,1,1.36-4.76,2.72,2.72,0,0,0,.2-1,1.48,1.48,0,0,0-.43-1.12,1.56,1.56,0,0,0-1.1-.41,2.38,2.38,0,0,0-1.26.41,3.46,3.46,0,0,0-1.13,1.15A18.84,18.84,0,0,0,8.49,35.75,18.92,18.92,0,0,0,11.6,46.51ZM30.33,39H24.75l3.94-4A12.64,12.64,0,0,0,31,31.85a6.94,6.94,0,0,0,.68-3.1,5.15,5.15,0,0,0-.84-2.91,5.44,5.44,0,0,0-2.41-1.94,8.84,8.84,0,0,0-3.61-.68,11.29,11.29,0,0,0-6.14,1.89,1.77,1.77,0,0,0-.68.72,2.7,2.7,0,0,0,.29,2.49,1.41,1.41,0,0,0,1.16.62,1.78,1.78,0,0,0,.53-.08,3.43,3.43,0,0,0,.57-.26l.43-.24.56-.28a13.33,13.33,0,0,1,1.57-.68,4.44,4.44,0,0,1,1.49-.24,2.21,2.21,0,0,1,1.54.5,1.89,1.89,0,0,1,.54,1.45,5.43,5.43,0,0,1-1.83,3.53L19,38.78A3,3,0,0,0,18,41a2.05,2.05,0,0,0,.58,1.51,2.12,2.12,0,0,0,1.59.6H30.33a2.8,2.8,0,0,0,1.82-.5,1.91,1.91,0,0,0,.6-1.56,1.83,1.83,0,0,0-.6-1.51A2.87,2.87,0,0,0,30.33,39ZM47,33.42h-3.5V29.91a1.64,1.64,0,1,0-3.28,0v3.51H36.72a1.62,1.62,0,0,0-1.64,1.64,1.63,1.63,0,0,0,.48,1.18,1.55,1.55,0,0,0,1.16.48h3.51V40.2a1.66,1.66,0,0,0,2.82,1.17,1.66,1.66,0,0,0,.46-1.17V36.72H47a1.59,1.59,0,0,0,1.17-.48,1.66,1.66,0,0,0,.47-1.18A1.61,1.61,0,0,0,47,33.42ZM62.07,33a4.47,4.47,0,0,0,2.21-1.68,4.6,4.6,0,0,0,.79-2.68,4.9,4.9,0,0,0-.84-2.84,5.59,5.59,0,0,0-2.42-1.89,9.33,9.33,0,0,0-3.63-.66,10.9,10.9,0,0,0-3.29.5,8.85,8.85,0,0,0-2.82,1.39,2.19,2.19,0,0,0-.67.75,2.15,2.15,0,0,0-.2,1,2.27,2.27,0,0,0,.48,1.46,1.42,1.42,0,0,0,1.16.6,1.75,1.75,0,0,0,.7-.13c.2-.08.48-.22.83-.4l.59-.28a15.12,15.12,0,0,1,1.51-.67,4.39,4.39,0,0,1,1.46-.25,2.41,2.41,0,0,1,1.7.57,2.12,2.12,0,0,1,.61,1.6,1.55,1.55,0,0,1-.7,1.42,4.2,4.2,0,0,1-2.22.44H56.1a1.59,1.59,0,0,0-1.31.59,2.29,2.29,0,0,0,0,2.78,1.58,1.58,0,0,0,1.31.58h1.72a4.22,4.22,0,0,1,2.28.47,1.77,1.77,0,0,1,.69,1.56,1.93,1.93,0,0,1-.68,1.67,3.88,3.88,0,0,1-2.24.5,4.92,4.92,0,0,1-1.59-.24,11.7,11.7,0,0,1-1.6-.68l-.35-.15-.26-.13c-.35-.18-.63-.32-.84-.4a1.84,1.84,0,0,0-.69-.13,1.45,1.45,0,0,0-1.17.6,2.32,2.32,0,0,0-.47,1.46,2.19,2.19,0,0,0,.19,1,2.23,2.23,0,0,0,.67.76,9,9,0,0,0,2.89,1.41,12.48,12.48,0,0,0,3.47.48,10.32,10.32,0,0,0,3.94-.68,5.84,5.84,0,0,0,2.6-1.93,4.83,4.83,0,0,0,.91-3,4.91,4.91,0,0,0-.93-3A4.7,4.7,0,0,0,62.07,33Zm10,13.54a18.93,18.93,0,0,0,3.12-10.76A18.84,18.84,0,0,0,72.1,24.94,3.4,3.4,0,0,0,71,23.8a2.49,2.49,0,0,0-1.27-.39,1.56,1.56,0,0,0-1.09.4,1.43,1.43,0,0,0-.43,1.1,2.7,2.7,0,0,0,.19,1,24.53,24.53,0,0,1,1.36,4.76,29.41,29.41,0,0,1,.42,5.1,28.42,28.42,0,0,1-.42,5,26.24,26.24,0,0,1-1.36,4.76,2.7,2.7,0,0,0-.19,1,1.41,1.41,0,0,0,.43,1.09,1.49,1.49,0,0,0,1.07.41A2.53,2.53,0,0,0,71,47.65,3.4,3.4,0,0,0,72.1,46.51ZM91.42,33.42h-3.5V29.91a1.64,1.64,0,1,0-3.28,0v3.51h-3.5a1.57,1.57,0,0,0-1.17.47,1.59,1.59,0,0,0-.47,1.17A1.66,1.66,0,0,0,80,36.24a1.58,1.58,0,0,0,1.17.48h3.5V40.2a1.61,1.61,0,0,0,1.64,1.64,1.6,1.6,0,0,0,1.18-.47,1.61,1.61,0,0,0,.46-1.17V36.72h3.5a1.59,1.59,0,0,0,1.17-.48,1.66,1.66,0,0,0,.47-1.18,1.61,1.61,0,0,0-1.64-1.64ZM22.08,79.86A3.4,3.4,0,0,0,23.2,81a2.49,2.49,0,0,0,1.27.39,1.6,1.6,0,0,0,1.1-.4,1.47,1.47,0,0,0,.43-1.1,2.72,2.72,0,0,0-.2-1,26,26,0,0,1-1.36-4.76A28.42,28.42,0,0,1,24,69.1a29.41,29.41,0,0,1,.42-5.1,24.53,24.53,0,0,1,1.36-4.76,2.72,2.72,0,0,0,.2-1,1.48,1.48,0,0,0-.43-1.12,1.55,1.55,0,0,0-1.1-.4,2.42,2.42,0,0,0-1.27.4,3.53,3.53,0,0,0-1.12,1.15A18.84,18.84,0,0,0,19,69.1,18.91,18.91,0,0,0,22.08,79.86ZM39.17,66.32a4.47,4.47,0,0,0,2.21-1.68A4.6,4.6,0,0,0,42.17,62a4.8,4.8,0,0,0-.85-2.83,5.36,5.36,0,0,0-2.41-1.89,9.15,9.15,0,0,0-3.63-.67,11.22,11.22,0,0,0-3.29.5,9.06,9.06,0,0,0-2.82,1.39,2.19,2.19,0,0,0-.67.75,2.15,2.15,0,0,0-.2,1,2.25,2.25,0,0,0,.48,1.46,1.42,1.42,0,0,0,1.16.6,1.75,1.75,0,0,0,.7-.13,8.15,8.15,0,0,0,.83-.4l.59-.28a12.91,12.91,0,0,1,1.51-.66A4.11,4.11,0,0,1,35,60.52a2.37,2.37,0,0,1,1.69.57,2.06,2.06,0,0,1,.62,1.59,1.56,1.56,0,0,1-.7,1.42,4.19,4.19,0,0,1-2.22.45H33.19a1.57,1.57,0,0,0-1.3.58,2.29,2.29,0,0,0,0,2.78,1.57,1.57,0,0,0,1.3.58h1.73A4.26,4.26,0,0,1,37.2,69a1.77,1.77,0,0,1,.69,1.56,1.91,1.91,0,0,1-.68,1.67,3.88,3.88,0,0,1-2.24.5,4.92,4.92,0,0,1-1.59-.24,10.57,10.57,0,0,1-1.6-.68l-.35-.15-.26-.13c-.36-.18-.63-.32-.84-.4a1.85,1.85,0,0,0-.69-.12,1.44,1.44,0,0,0-1.17.59A2.26,2.26,0,0,0,28,73a2.19,2.19,0,0,0,.19,1,2.15,2.15,0,0,0,.67.77,8.84,8.84,0,0,0,2.89,1.4,12.49,12.49,0,0,0,3.47.49A10.35,10.35,0,0,0,39.16,76,5.82,5.82,0,0,0,41.76,74a4.83,4.83,0,0,0,.91-2.94,4.92,4.92,0,0,0-.93-3A4.74,4.74,0,0,0,39.17,66.32Zm8.39,4.56h5.23a2.55,2.55,0,0,0,1.74-.51,1.82,1.82,0,0,0,.57-1.43,1.79,1.79,0,0,0-.57-1.42,2.6,2.6,0,0,0-1.74-.5H47.56c-1.53,0-2.3.64-2.3,1.92S46,70.88,47.56,70.88Zm22.32,1.48H64.3l3.94-4a12.86,12.86,0,0,0,2.32-3.13,6.94,6.94,0,0,0,.68-3.1,5.11,5.11,0,0,0-.84-2.9,5.39,5.39,0,0,0-2.41-2,9,9,0,0,0-3.61-.68,11,11,0,0,0-3.21.5,10.71,10.71,0,0,0-2.93,1.39,1.77,1.77,0,0,0-.68.72,2.62,2.62,0,0,0,.29,2.49,1.39,1.39,0,0,0,1.16.62,1.51,1.51,0,0,0,.53-.08,2.77,2.77,0,0,0,.57-.26l.43-.24.56-.28a15.25,15.25,0,0,1,1.57-.68,4.44,4.44,0,0,1,1.49-.23,2.16,2.16,0,0,1,1.54.5,1.86,1.86,0,0,1,.54,1.44A5.41,5.41,0,0,1,64.41,66l-5.9,6.14a3,3,0,0,0-.94,2.17,2.09,2.09,0,0,0,.58,1.52,2.15,2.15,0,0,0,1.59.59H69.88a2.75,2.75,0,0,0,1.82-.5,1.9,1.9,0,0,0,.6-1.55,1.85,1.85,0,0,0-.6-1.52A2.87,2.87,0,0,0,69.88,72.36Zm8.42,7.5A18.91,18.91,0,0,0,81.42,69.1,18.84,18.84,0,0,0,78.3,58.29a3.4,3.4,0,0,0-1.12-1.14,2.49,2.49,0,0,0-1.27-.39,1.52,1.52,0,0,0-1.09.41,1.42,1.42,0,0,0-.44,1.09,2.72,2.72,0,0,0,.2,1A24.53,24.53,0,0,1,75.94,64a29.41,29.41,0,0,1,.42,5.1,28.42,28.42,0,0,1-.42,5.05,26,26,0,0,1-1.36,4.76,2.72,2.72,0,0,0-.2,1,1.44,1.44,0,0,0,.44,1.1,1.52,1.52,0,0,0,1.07.4A2.53,2.53,0,0,0,77.18,81,3.4,3.4,0,0,0,78.3,79.86Z"/></svg>