<svg id="Layer_1" data-name="Layer 1" xmlns="http://www.w3.org/2000/svg" viewBox="0 0 100 100"><title>l5_1_1</title><path d="M83.34,100H16.28A16.47,16.47,0,0,1-.19,83.53V16.47A16.47,16.47,0,0,1,16.28,0H83.34A16.47,16.47,0,0,1,99.81,16.47V83.53A16.47,16.47,0,0,1,83.34,100ZM18.52,49.54a3.4,3.4,0,0,0,1.12,1.14,2.49,2.49,0,0,0,1.27.39,1.6,1.6,0,0,0,1.1-.4,1.47,1.47,0,0,0,.43-1.1,2.63,2.63,0,0,0-.2-1,26.33,26.33,0,0,1-1.36-4.77,28.42,28.42,0,0,1-.42-5,29.41,29.41,0,0,1,.42-5.1,24.53,24.53,0,0,1,1.36-4.76,2.72,2.72,0,0,0,.2-1A1.48,1.48,0,0,0,22,26.82a1.55,1.55,0,0,0-1.1-.4,2.42,2.42,0,0,0-1.27.4A3.53,3.53,0,0,0,18.52,28a18.84,18.84,0,0,0-3.11,10.81A18.9,18.9,0,0,0,18.52,49.54ZM38.06,38.9h-.61v-10A2.36,2.36,0,0,0,36.7,27a2.67,2.67,0,0,0-1.81-.67,2.85,2.85,0,0,0-1.24.29,2.52,2.52,0,0,0-1,.85l-8,11.34a3.13,3.13,0,0,0-.62,1.84,2.07,2.07,0,0,0,2.17,2.14h6.2v.94a2.29,2.29,0,0,0,2.47,2.53,2.54,2.54,0,0,0,1.81-.64,2.45,2.45,0,0,0,.7-1.89v-.94h.61c1.61,0,2.42-.66,2.42-2S39.67,38.9,38.06,38.9Zm-8.92,0,3.33-4.81V38.9ZM53.9,36.45H50.4V33a1.64,1.64,0,1,0-3.28,0v3.5h-3.5a1.66,1.66,0,0,0-1.17,2.82,1.57,1.57,0,0,0,1.17.49h3.5v3.47a1.66,1.66,0,0,0,2.82,1.17,1.66,1.66,0,0,0,.46-1.17V39.76h3.5a1.6,1.6,0,0,0,1.17-.49,1.65,1.65,0,0,0,.47-1.18,1.61,1.61,0,0,0-1.64-1.64ZM70.6,42H65L69,38a12.86,12.86,0,0,0,2.32-3.13,6.94,6.94,0,0,0,.68-3.1,5.11,5.11,0,0,0-.84-2.9,5.39,5.39,0,0,0-2.41-1.95,9,9,0,0,0-3.61-.68A11.29,11.29,0,0,0,59,28.14a1.77,1.77,0,0,0-.68.72,2.7,2.7,0,0,0,.29,2.49,1.39,1.39,0,0,0,1.17.62,1.49,1.49,0,0,0,.52-.08,2.77,2.77,0,0,0,.57-.26l.43-.24.56-.28a15.25,15.25,0,0,1,1.57-.68,4.44,4.44,0,0,1,1.49-.23,2.16,2.16,0,0,1,1.54.5A1.86,1.86,0,0,1,67,32.14a5.41,5.41,0,0,1-1.83,3.53l-5.89,6.14a3,3,0,0,0-1,2.17,2.09,2.09,0,0,0,.58,1.52,2.15,2.15,0,0,0,1.59.59H70.6a2.75,2.75,0,0,0,1.82-.5A1.9,1.9,0,0,0,73,44a1.85,1.85,0,0,0-.6-1.52A2.87,2.87,0,0,0,70.6,42ZM79,49.54a18.91,18.91,0,0,0,3.12-10.76A18.84,18.84,0,0,0,79,28a3.4,3.4,0,0,0-1.12-1.14,2.49,2.49,0,0,0-1.27-.39,1.52,1.52,0,0,0-1.09.41,1.42,1.42,0,0,0-.44,1.09,2.72,2.72,0,0,0,.2,1,24.53,24.53,0,0,1,1.36,4.76,29.41,29.41,0,0,1,.42,5.1,28.42,28.42,0,0,1-.42,5A26.33,26.33,0,0,1,75.3,48.6a2.63,2.63,0,0,0-.2,1,1.44,1.44,0,0,0,.44,1.1,1.52,1.52,0,0,0,1.07.4,2.53,2.53,0,0,0,1.29-.39A3.4,3.4,0,0,0,79,49.54ZM37.82,73.91h5.23a2.54,2.54,0,0,0,1.73-.51A1.82,1.82,0,0,0,45.35,72a1.8,1.8,0,0,0-.57-1.42,2.59,2.59,0,0,0-1.73-.5H37.82q-2.31,0-2.31,1.92C35.51,73.27,36.28,73.91,37.82,73.91ZM58.5,69.36a4.47,4.47,0,0,0,3-4.37,4.8,4.8,0,0,0-.85-2.83,5.36,5.36,0,0,0-2.41-1.89,9.15,9.15,0,0,0-3.63-.67,11.34,11.34,0,0,0-3.3.5,9.29,9.29,0,0,0-2.82,1.39,2.26,2.26,0,0,0-.66.75,2.18,2.18,0,0,0-.2,1,2.28,2.28,0,0,0,.47,1.46,1.45,1.45,0,0,0,1.17.6,1.94,1.94,0,0,0,.7-.12c.2-.09.48-.22.83-.41l.58-.27a13.2,13.2,0,0,1,1.52-.67,4.11,4.11,0,0,1,1.46-.25,2.37,2.37,0,0,1,1.69.57,2.07,2.07,0,0,1,.61,1.6A1.55,1.55,0,0,1,56,67.13a4.19,4.19,0,0,1-2.22.45H52.52a1.57,1.57,0,0,0-1.3.58,2.29,2.29,0,0,0,0,2.78,1.57,1.57,0,0,0,1.3.58h1.73a4.16,4.16,0,0,1,2.28.48,1.73,1.73,0,0,1,.69,1.55,1.94,1.94,0,0,1-.68,1.67,3.88,3.88,0,0,1-2.24.5,5.33,5.33,0,0,1-1.6-.23,12.37,12.37,0,0,1-1.59-.69l-.35-.15-.26-.12c-.36-.19-.64-.32-.84-.41A1.85,1.85,0,0,0,49,74a1.42,1.42,0,0,0-1.17.6,2.23,2.23,0,0,0-.47,1.46,2.12,2.12,0,0,0,.19,1,2.15,2.15,0,0,0,.67.77,8.84,8.84,0,0,0,2.89,1.4,12.13,12.13,0,0,0,3.47.49A10.59,10.59,0,0,0,58.49,79a5.88,5.88,0,0,0,2.59-1.93,4.82,4.82,0,0,0,.92-3,4.92,4.92,0,0,0-.93-3A4.72,4.72,0,0,0,58.5,69.36Z"/></svg>