<svg id="Layer_1" data-name="Layer 1" xmlns="http://www.w3.org/2000/svg" viewBox="0 0 100 100"><title>l5_1_1</title><path d="M83.53,100H16.47A16.47,16.47,0,0,1,0,83.53V16.47A16.47,16.47,0,0,1,16.47,0H83.53A16.47,16.47,0,0,1,100,16.47V83.53A16.47,16.47,0,0,1,83.53,100ZM29.47,49a7,7,0,0,0,3.42-2.6,7.13,7.13,0,0,0,1.23-4.15,7.46,7.46,0,0,0-1.32-4.38,8.42,8.42,0,0,0-3.74-2.93,14.21,14.21,0,0,0-5.61-1,17.36,17.36,0,0,0-5.09.77A14.5,14.5,0,0,0,14,36.82,3.43,3.43,0,0,0,13,38a3.34,3.34,0,0,0-.3,1.5,3.52,3.52,0,0,0,.73,2.26,2.24,2.24,0,0,0,1.81.92,2.8,2.8,0,0,0,1.07-.19c.32-.13.75-.34,1.29-.62l.9-.43a23.17,23.17,0,0,1,2.35-1A6.64,6.64,0,0,1,23.06,40a3.7,3.7,0,0,1,2.63.88,3.21,3.21,0,0,1,.94,2.47,2.41,2.41,0,0,1-1.07,2.19,6.59,6.59,0,0,1-3.44.69H20.23a2.45,2.45,0,0,0-2,.9,3.32,3.32,0,0,0-.74,2.15,3.28,3.28,0,0,0,.74,2.15,2.43,2.43,0,0,0,2,.91h2.66a6.45,6.45,0,0,1,3.53.73,2.72,2.72,0,0,1,1.07,2.41,3,3,0,0,1-1,2.58,6,6,0,0,1-3.46.77,7.59,7.59,0,0,1-2.47-.37,18.19,18.19,0,0,1-2.48-1,5.46,5.46,0,0,1-.53-.24L17.09,57c-.55-.28-1-.49-1.29-.62a2.85,2.85,0,0,0-1.08-.2,2.21,2.21,0,0,0-1.8.93,3.52,3.52,0,0,0-.73,2.26,3.37,3.37,0,0,0,.3,1.48,3.28,3.28,0,0,0,1,1.18A13.69,13.69,0,0,0,18,64.19a18.81,18.81,0,0,0,5.38.76,16,16,0,0,0,6.08-1.06,9.07,9.07,0,0,0,4-3,7.45,7.45,0,0,0,1.42-4.55,7.63,7.63,0,0,0-1.44-4.69A7.35,7.35,0,0,0,29.47,49Zm28.3.69H52.35V44.26a2.48,2.48,0,0,0-.73-1.8,2.61,2.61,0,0,0-3.62,0,2.48,2.48,0,0,0-.73,1.8v5.42H41.85a2.48,2.48,0,0,0-1.8.73,2.45,2.45,0,0,0-.73,1.81,2.51,2.51,0,0,0,.73,1.83,2.42,2.42,0,0,0,1.8.75h5.42v5.37A2.49,2.49,0,0,0,48,62a2.63,2.63,0,0,0,3.64,0,2.51,2.51,0,0,0,.71-1.81V54.8h5.42a2.42,2.42,0,0,0,1.8-.75,2.51,2.51,0,0,0,.73-1.83,2.45,2.45,0,0,0-.73-1.81A2.48,2.48,0,0,0,57.77,49.68Zm27.08,3.79h-.94V37.94a3.67,3.67,0,0,0-1.16-2.88A4.07,4.07,0,0,0,80,34a4.32,4.32,0,0,0-1.91.45,4,4,0,0,0-1.53,1.31L64.21,53.34a4.8,4.8,0,0,0-.94,2.83,3.3,3.3,0,0,0,.9,2.37,3.23,3.23,0,0,0,2.45,1h9.59V61a3.79,3.79,0,0,0,1.06,2.92,3.87,3.87,0,0,0,2.77,1,3.93,3.93,0,0,0,2.79-1A3.76,3.76,0,0,0,83.91,61V59.49h.94q3.75,0,3.75-3.06C88.6,54.45,87.35,53.47,84.85,53.47Zm-13.8,0L76.21,46v7.44Z"/></svg>