<svg id="Layer_1" data-name="Layer 1" xmlns="http://www.w3.org/2000/svg" viewBox="0 0 100 100"><title>l5_1_1</title><path d="M83.53,100H16.47A16.47,16.47,0,0,1,0,83.53V16.47A16.47,16.47,0,0,1,16.47,0H83.53A16.47,16.47,0,0,1,100,16.47V83.53A16.47,16.47,0,0,1,83.53,100ZM10.36,56.05h8.08a3.91,3.91,0,0,0,2.69-.8A2.82,2.82,0,0,0,22,53a2.77,2.77,0,0,0-.88-2.2,4,4,0,0,0-2.69-.77H10.36q-3.57,0-3.57,3C6.79,55,8,56.05,10.36,56.05Zm32-7.06a7,7,0,0,0,3.42-2.6A7.19,7.19,0,0,0,47,42.24a7.45,7.45,0,0,0-1.31-4.38,8.42,8.42,0,0,0-3.74-2.93,14.21,14.21,0,0,0-5.61-1,17.47,17.47,0,0,0-5.1.77,14.56,14.56,0,0,0-4.36,2.15,3.43,3.43,0,0,0-1,1.17,3.34,3.34,0,0,0-.3,1.5,3.52,3.52,0,0,0,.73,2.26,2.22,2.22,0,0,0,1.8.92,2.85,2.85,0,0,0,1.08-.19c.31-.13.74-.34,1.29-.62l.9-.43a24.11,24.11,0,0,1,2.34-1A6.74,6.74,0,0,1,35.94,40a3.72,3.72,0,0,1,2.63.88,3.21,3.21,0,0,1,.94,2.47,2.41,2.41,0,0,1-1.07,2.19,6.59,6.59,0,0,1-3.44.69H33.1a2.46,2.46,0,0,0-2,.9,3.37,3.37,0,0,0-.73,2.15,3.33,3.33,0,0,0,.73,2.15,2.44,2.44,0,0,0,2,.91h2.67a6.48,6.48,0,0,1,3.53.73,2.72,2.72,0,0,1,1.07,2.41,3,3,0,0,1-1,2.58,6,6,0,0,1-3.46.77,7.94,7.94,0,0,1-2.48-.36,20.32,20.32,0,0,1-2.47-1.06l-.54-.23L30,57c-.55-.28-1-.49-1.29-.62a2.85,2.85,0,0,0-1.08-.2,2.22,2.22,0,0,0-1.81.93,3.58,3.58,0,0,0-.73,2.26,3.4,3.4,0,0,0,.3,1.48,3.32,3.32,0,0,0,1,1.18,13.69,13.69,0,0,0,4.47,2.17,18.79,18.79,0,0,0,5.37.76,16,16,0,0,0,6.09-1.06,9.07,9.07,0,0,0,4-3,7.51,7.51,0,0,0,1.42-4.55,7.63,7.63,0,0,0-1.44-4.69A7.35,7.35,0,0,0,42.35,49Zm13,7.06h8.09a3.93,3.93,0,0,0,2.69-.8A2.85,2.85,0,0,0,67,53a2.8,2.8,0,0,0-.88-2.2,4,4,0,0,0-2.69-.77H55.33q-3.55,0-3.56,3C51.77,55,53,56.05,55.33,56.05Zm34.53,2.27H81.22l6.11-6.23a20.38,20.38,0,0,0,3.59-4.84,10.85,10.85,0,0,0,1-4.79A8,8,0,0,0,90.66,38a8.54,8.54,0,0,0-3.72-3,13.9,13.9,0,0,0-5.59-1.05,17.41,17.41,0,0,0-9.5,2.92,2.92,2.92,0,0,0-1.06,1.12,3.8,3.8,0,0,0-.28,1.55,3.74,3.74,0,0,0,.73,2.3,2.19,2.19,0,0,0,1.81,1,2.47,2.47,0,0,0,.82-.13,5.12,5.12,0,0,0,.88-.41c.33-.18.55-.31.67-.36l.86-.43a20.72,20.72,0,0,1,2.43-1.06A7,7,0,0,1,81,40a3.36,3.36,0,0,1,2.38.77A2.9,2.9,0,0,1,84.23,43q0,2.49-2.84,5.46L72.28,58a4.69,4.69,0,0,0-1.47,3.35,3.14,3.14,0,0,0,3.36,3.27H89.86a4.35,4.35,0,0,0,2.82-.77,3,3,0,0,0,.93-2.41,2.83,2.83,0,0,0-.93-2.34A4.42,4.42,0,0,0,89.86,58.32Z"/></svg>