<svg id="Layer_1" data-name="Layer 1" xmlns="http://www.w3.org/2000/svg" viewBox="0 0 100 100"><title>l5_1_1</title><path d="M83.34,100H16.28A16.47,16.47,0,0,1-.19,83.53V16.47A16.47,16.47,0,0,1,16.28,0H83.34A16.47,16.47,0,0,1,99.81,16.47V83.53A16.47,16.47,0,0,1,83.34,100ZM15.69,46.51a3.33,3.33,0,0,0,1.13,1.14,2.43,2.43,0,0,0,1.26.39,1.56,1.56,0,0,0,1.1-.41,1.45,1.45,0,0,0,.43-1.09,2.72,2.72,0,0,0-.2-1,26.24,26.24,0,0,1-1.36-4.76,28.45,28.45,0,0,1-.41-5,29.44,29.44,0,0,1,.41-5.1,24.82,24.82,0,0,1,1.36-4.77,2.63,2.63,0,0,0,.2-1,1.48,1.48,0,0,0-.43-1.12,1.56,1.56,0,0,0-1.1-.41,2.38,2.38,0,0,0-1.26.41,3.46,3.46,0,0,0-1.13,1.15,18.84,18.84,0,0,0-3.11,10.81A18.92,18.92,0,0,0,15.69,46.51ZM34.42,39H28.84l3.94-4a12.83,12.83,0,0,0,2.32-3.12,6.94,6.94,0,0,0,.68-3.1,5.15,5.15,0,0,0-.84-2.91,5.44,5.44,0,0,0-2.41-1.94,8.84,8.84,0,0,0-3.61-.68,10.63,10.63,0,0,0-3.21.5,10.42,10.42,0,0,0-2.93,1.39,1.77,1.77,0,0,0-.68.72,2.7,2.7,0,0,0,.29,2.49,1.41,1.41,0,0,0,1.16.62,1.78,1.78,0,0,0,.53-.08,2.86,2.86,0,0,0,.57-.27l.43-.23.56-.28a13.33,13.33,0,0,1,1.57-.68,4.44,4.44,0,0,1,1.49-.24,2.21,2.21,0,0,1,1.54.5,1.89,1.89,0,0,1,.54,1.45A5.43,5.43,0,0,1,29,32.64l-5.9,6.14A3,3,0,0,0,22.11,41a2.05,2.05,0,0,0,.58,1.51,2.12,2.12,0,0,0,1.59.6H34.42a2.8,2.8,0,0,0,1.82-.5,1.91,1.91,0,0,0,.6-1.56,1.83,1.83,0,0,0-.6-1.51A2.87,2.87,0,0,0,34.42,39Zm6.78-1.47h5.23A2.55,2.55,0,0,0,48.17,37a1.85,1.85,0,0,0,.57-1.44,1.77,1.77,0,0,0-.57-1.41,2.55,2.55,0,0,0-1.74-.5H41.2c-1.53,0-2.3.64-2.3,1.91S39.67,37.53,41.2,37.53ZM61.88,33a4.47,4.47,0,0,0,2.21-1.68,4.6,4.6,0,0,0,.79-2.68A4.9,4.9,0,0,0,64,25.77a5.59,5.59,0,0,0-2.42-1.89A9.33,9.33,0,0,0,58,23.22a10.9,10.9,0,0,0-3.29.5,8.85,8.85,0,0,0-2.82,1.39,2.19,2.19,0,0,0-.67.75,2.15,2.15,0,0,0-.2,1,2.27,2.27,0,0,0,.48,1.46,1.42,1.42,0,0,0,1.16.6,1.94,1.94,0,0,0,.7-.13c.2-.08.48-.22.83-.4l.59-.28a15.12,15.12,0,0,1,1.51-.67,4.39,4.39,0,0,1,1.46-.25,2.41,2.41,0,0,1,1.7.57,2.12,2.12,0,0,1,.61,1.6,1.55,1.55,0,0,1-.7,1.42,4.2,4.2,0,0,1-2.22.44H55.91a1.6,1.6,0,0,0-1.31.59,2.29,2.29,0,0,0,0,2.78,1.59,1.59,0,0,0,1.31.58h1.72a4.22,4.22,0,0,1,2.28.47,1.77,1.77,0,0,1,.69,1.56,1.93,1.93,0,0,1-.68,1.67,3.87,3.87,0,0,1-2.23.5,4.94,4.94,0,0,1-1.6-.24,11.7,11.7,0,0,1-1.6-.68l-.35-.15-.26-.13c-.35-.18-.63-.32-.84-.4a1.84,1.84,0,0,0-.69-.13,1.45,1.45,0,0,0-1.17.6,2.32,2.32,0,0,0-.47,1.46,2.19,2.19,0,0,0,.19,1,2.23,2.23,0,0,0,.67.76,9,9,0,0,0,2.89,1.41,12.5,12.5,0,0,0,3.48.48,10.3,10.3,0,0,0,3.93-.68,5.84,5.84,0,0,0,2.6-1.93,4.83,4.83,0,0,0,.91-3,4.91,4.91,0,0,0-.93-3A4.7,4.7,0,0,0,61.88,33Zm10,13.54A19,19,0,0,0,75,35.75a18.91,18.91,0,0,0-3.11-10.81,3.52,3.52,0,0,0-1.13-1.14,2.49,2.49,0,0,0-1.27-.39,1.56,1.56,0,0,0-1.09.4,1.43,1.43,0,0,0-.43,1.1,2.61,2.61,0,0,0,.19,1,24.82,24.82,0,0,1,1.36,4.77,29.41,29.41,0,0,1,.42,5.1,28.42,28.42,0,0,1-.42,5,26.24,26.24,0,0,1-1.36,4.76,2.7,2.7,0,0,0-.19,1,1.41,1.41,0,0,0,.43,1.09A1.49,1.49,0,0,0,69.5,48a2.53,2.53,0,0,0,1.29-.39A3.52,3.52,0,0,0,71.92,46.51Zm9.42-9h5.22A2.55,2.55,0,0,0,88.3,37a1.85,1.85,0,0,0,.57-1.44,1.77,1.77,0,0,0-.57-1.41,2.55,2.55,0,0,0-1.74-.5H81.34c-1.54,0-2.31.64-2.31,1.91S79.8,37.53,81.34,37.53ZM19.75,79.86A3.4,3.4,0,0,0,20.87,81a2.49,2.49,0,0,0,1.27.39,1.6,1.6,0,0,0,1.1-.4,1.47,1.47,0,0,0,.43-1.1,2.72,2.72,0,0,0-.2-1,26,26,0,0,1-1.36-4.76,28.42,28.42,0,0,1-.42-5.05,29.41,29.41,0,0,1,.42-5.1,24.53,24.53,0,0,1,1.36-4.76,2.72,2.72,0,0,0,.2-1,1.48,1.48,0,0,0-.43-1.12,1.55,1.55,0,0,0-1.1-.4,2.42,2.42,0,0,0-1.27.4,3.53,3.53,0,0,0-1.12,1.15A18.84,18.84,0,0,0,16.63,69.1,18.91,18.91,0,0,0,19.75,79.86ZM36.84,66.32a4.47,4.47,0,0,0,2.21-1.68A4.6,4.6,0,0,0,39.84,62,4.8,4.8,0,0,0,39,59.13a5.36,5.36,0,0,0-2.41-1.89A9.15,9.15,0,0,0,33,56.57a11.22,11.22,0,0,0-3.29.5,9.23,9.23,0,0,0-2.83,1.39,2.26,2.26,0,0,0-.66.75,2.15,2.15,0,0,0-.2,1,2.25,2.25,0,0,0,.48,1.46,1.42,1.42,0,0,0,1.16.6,1.75,1.75,0,0,0,.7-.13,8.15,8.15,0,0,0,.83-.4l.58-.28a13.76,13.76,0,0,1,1.52-.66,4.11,4.11,0,0,1,1.46-.25,2.37,2.37,0,0,1,1.69.57A2,2,0,0,1,35,62.68a1.58,1.58,0,0,1-.7,1.42,4.19,4.19,0,0,1-2.22.45H30.86a1.57,1.57,0,0,0-1.3.58,2.29,2.29,0,0,0,0,2.78,1.57,1.57,0,0,0,1.3.58h1.73a4.26,4.26,0,0,1,2.28.47,1.77,1.77,0,0,1,.69,1.56,1.94,1.94,0,0,1-.68,1.67,3.88,3.88,0,0,1-2.24.5,5,5,0,0,1-1.6-.24,10.94,10.94,0,0,1-1.59-.68l-.35-.15-.26-.13c-.36-.18-.63-.32-.84-.4a1.85,1.85,0,0,0-.69-.12,1.44,1.44,0,0,0-1.17.59A2.26,2.26,0,0,0,25.67,73a2.19,2.19,0,0,0,.19,1,2.15,2.15,0,0,0,.67.77,8.84,8.84,0,0,0,2.89,1.4,12.49,12.49,0,0,0,3.47.49A10.39,10.39,0,0,0,36.83,76,5.74,5.74,0,0,0,39.42,74a4.77,4.77,0,0,0,.92-2.94,4.92,4.92,0,0,0-.93-3A4.74,4.74,0,0,0,36.84,66.32Zm18.29.45h-3.5v-3.5a1.64,1.64,0,1,0-3.28,0v3.5H44.84a1.62,1.62,0,0,0-1.64,1.64,1.61,1.61,0,0,0,.48,1.18,1.56,1.56,0,0,0,1.16.49h3.51v3.47a1.66,1.66,0,0,0,2.82,1.17,1.66,1.66,0,0,0,.46-1.17V70.08h3.5a1.56,1.56,0,0,0,1.16-.49,1.61,1.61,0,0,0,.48-1.18,1.62,1.62,0,0,0-1.64-1.64Zm16.7,5.59H66.24l4-4a13.13,13.13,0,0,0,2.32-3.13,6.94,6.94,0,0,0,.68-3.1,5.11,5.11,0,0,0-.84-2.9,5.39,5.39,0,0,0-2.41-2,9,9,0,0,0-3.61-.68,11,11,0,0,0-3.21.5,10.71,10.71,0,0,0-2.93,1.39,1.8,1.8,0,0,0-.69.72,2.67,2.67,0,0,0,.3,2.49,1.39,1.39,0,0,0,1.16.62,1.51,1.51,0,0,0,.53-.08,2.77,2.77,0,0,0,.57-.26l.43-.24.56-.28a14.36,14.36,0,0,1,1.57-.68,4.44,4.44,0,0,1,1.49-.23,2.16,2.16,0,0,1,1.54.5,1.86,1.86,0,0,1,.54,1.44A5.41,5.41,0,0,1,66.36,66l-5.9,6.14a3,3,0,0,0-.94,2.17,2.09,2.09,0,0,0,.58,1.52,2.15,2.15,0,0,0,1.59.59H71.83a2.75,2.75,0,0,0,1.82-.5,1.9,1.9,0,0,0,.6-1.55,1.85,1.85,0,0,0-.6-1.52A2.87,2.87,0,0,0,71.83,72.36Zm8.42,7.5A18.91,18.91,0,0,0,83.37,69.1a18.84,18.84,0,0,0-3.12-10.81,3.4,3.4,0,0,0-1.12-1.14,2.49,2.49,0,0,0-1.27-.39,1.56,1.56,0,0,0-1.1.41,1.45,1.45,0,0,0-.43,1.09,2.72,2.72,0,0,0,.2,1A24.53,24.53,0,0,1,77.89,64a29.41,29.41,0,0,1,.42,5.1,28.42,28.42,0,0,1-.42,5.05,26,26,0,0,1-1.36,4.76,2.72,2.72,0,0,0-.2,1,1.47,1.47,0,0,0,.43,1.1,1.56,1.56,0,0,0,1.07.4,2.54,2.54,0,0,0,1.3-.39A3.4,3.4,0,0,0,80.25,79.86Z"/></svg>