<svg id="Layer_1" data-name="Layer 1" xmlns="http://www.w3.org/2000/svg" viewBox="0 0 100 100"><title>l5_1_1</title><path d="M83.34,100H16.28A16.47,16.47,0,0,1-.19,83.53V16.47A16.47,16.47,0,0,1,16.28,0H83.34A16.47,16.47,0,0,1,99.81,16.47V83.53A16.47,16.47,0,0,1,83.34,100ZM18.56,49.05a3.4,3.4,0,0,0,1.12,1.14,2.49,2.49,0,0,0,1.27.39A1.52,1.52,0,0,0,22,50.17a1.4,1.4,0,0,0,.44-1.09,2.72,2.72,0,0,0-.2-1,26.24,26.24,0,0,1-1.36-4.76,28.42,28.42,0,0,1-.42-5.05,29.41,29.41,0,0,1,.42-5.1,24.53,24.53,0,0,1,1.36-4.76,2.72,2.72,0,0,0,.2-1A1.45,1.45,0,0,0,22,26.33,1.52,1.52,0,0,0,21,25.92a2.43,2.43,0,0,0-1.27.41,3.53,3.53,0,0,0-1.12,1.15,18.84,18.84,0,0,0-3.12,10.81A18.91,18.91,0,0,0,18.56,49.05ZM35.65,35.51a4.52,4.52,0,0,0,2.21-1.68,4.6,4.6,0,0,0,.79-2.68,4.8,4.8,0,0,0-.85-2.83,5.36,5.36,0,0,0-2.41-1.89,9.15,9.15,0,0,0-3.63-.67,11,11,0,0,0-3.3.5,9.29,9.29,0,0,0-2.82,1.39,2.26,2.26,0,0,0-.66.75,2.15,2.15,0,0,0-.2,1,2.3,2.3,0,0,0,.47,1.46,1.45,1.45,0,0,0,1.17.6,1.75,1.75,0,0,0,.7-.13,8.15,8.15,0,0,0,.83-.4l.58-.28A13,13,0,0,1,30.05,30a4.11,4.11,0,0,1,1.46-.26,2.41,2.41,0,0,1,1.69.57,2.08,2.08,0,0,1,.61,1.6,1.57,1.57,0,0,1-.69,1.42,4.19,4.19,0,0,1-2.22.45H29.67a1.57,1.57,0,0,0-1.3.58,2.25,2.25,0,0,0,0,2.78,1.57,1.57,0,0,0,1.3.58H31.4a4.26,4.26,0,0,1,2.28.47,1.77,1.77,0,0,1,.69,1.56,2,2,0,0,1-.68,1.67,3.88,3.88,0,0,1-2.24.5,5,5,0,0,1-1.6-.24A10.94,10.94,0,0,1,28.26,41l-.35-.15-.27-.13c-.35-.18-.63-.32-.83-.4a1.85,1.85,0,0,0-.69-.12,1.41,1.41,0,0,0-1.17.59,2.26,2.26,0,0,0-.47,1.46,2.19,2.19,0,0,0,.19,1,2.23,2.23,0,0,0,.67.77,9,9,0,0,0,2.89,1.4,12.48,12.48,0,0,0,3.47.48,10.39,10.39,0,0,0,3.94-.68,5.74,5.74,0,0,0,2.59-1.93,4.77,4.77,0,0,0,.92-2.94,4.92,4.92,0,0,0-.93-3A4.74,4.74,0,0,0,35.65,35.51ZM53.94,36h-3.5v-3.5a1.64,1.64,0,1,0-3.28,0V36H43.65A1.62,1.62,0,0,0,42,37.6a1.61,1.61,0,0,0,.48,1.18,1.56,1.56,0,0,0,1.16.49h3.51v3.47A1.66,1.66,0,0,0,50,43.91a1.66,1.66,0,0,0,.46-1.17V39.27h3.5a1.56,1.56,0,0,0,1.16-.49,1.61,1.61,0,0,0,.48-1.18A1.62,1.62,0,0,0,53.94,36Zm16.7,5.59H65.05l4-4a12.91,12.91,0,0,0,2.32-3.12,6.94,6.94,0,0,0,.68-3.1,5.17,5.17,0,0,0-.84-2.91,5.44,5.44,0,0,0-2.41-1.94,9,9,0,0,0-3.61-.68A11.29,11.29,0,0,0,59,27.65a1.8,1.8,0,0,0-.69.72,2.67,2.67,0,0,0,.3,2.49,1.39,1.39,0,0,0,1.16.62,1.55,1.55,0,0,0,.53-.08,3.43,3.43,0,0,0,.57-.26l.43-.24.56-.28a14.36,14.36,0,0,1,1.57-.68,4.44,4.44,0,0,1,1.49-.24,2.17,2.17,0,0,1,1.54.51A1.86,1.86,0,0,1,67,31.65a5.41,5.41,0,0,1-1.83,3.53l-5.9,6.14a3,3,0,0,0-.94,2.17A2.09,2.09,0,0,0,58.91,45a2.15,2.15,0,0,0,1.59.59H70.64a2.75,2.75,0,0,0,1.82-.5,1.9,1.9,0,0,0,.6-1.55,1.85,1.85,0,0,0-.6-1.52A2.87,2.87,0,0,0,70.64,41.55Zm8.42,7.5a18.9,18.9,0,0,0,3.11-10.76,18.84,18.84,0,0,0-3.11-10.81,3.4,3.4,0,0,0-1.12-1.14A2.49,2.49,0,0,0,76.67,26a1.56,1.56,0,0,0-1.1.41,1.43,1.43,0,0,0-.43,1.09,2.72,2.72,0,0,0,.2,1,24.53,24.53,0,0,1,1.36,4.76,29.41,29.41,0,0,1,.42,5.1,28.42,28.42,0,0,1-.42,5.05,26.24,26.24,0,0,1-1.36,4.76,2.72,2.72,0,0,0-.2,1,1.43,1.43,0,0,0,.43,1.09,1.52,1.52,0,0,0,1.07.41,2.54,2.54,0,0,0,1.3-.39A3.4,3.4,0,0,0,79.06,49.05ZM37.85,73.42h5.22a2.55,2.55,0,0,0,1.74-.51,1.82,1.82,0,0,0,.57-1.43,1.79,1.79,0,0,0-.57-1.42,2.6,2.6,0,0,0-1.74-.5H37.85q-2.31,0-2.31,1.92C35.54,72.78,36.31,73.42,37.85,73.42ZM60.16,74.9H54.58l3.94-4a12.67,12.67,0,0,0,2.32-3.13,7,7,0,0,0,.69-3.1,5.12,5.12,0,0,0-.85-2.9,5.46,5.46,0,0,0-2.41-2,9,9,0,0,0-3.61-.68A11.29,11.29,0,0,0,48.52,61a1.77,1.77,0,0,0-.68.72,2.42,2.42,0,0,0-.18,1,2.37,2.37,0,0,0,.47,1.49,1.4,1.4,0,0,0,1.17.63,1.5,1.5,0,0,0,.52-.09,2.77,2.77,0,0,0,.57-.26l.43-.24.56-.28A15.25,15.25,0,0,1,53,63.29a4.7,4.7,0,0,1,1.49-.23,2.16,2.16,0,0,1,1.54.5A1.86,1.86,0,0,1,56.52,65a5.41,5.41,0,0,1-1.83,3.53L48.8,74.67a3.07,3.07,0,0,0-.95,2.17A2,2,0,0,0,50,79H60.16a2.75,2.75,0,0,0,1.82-.5,1.9,1.9,0,0,0,.6-1.55,1.85,1.85,0,0,0-.6-1.52A2.87,2.87,0,0,0,60.16,74.9Z"/></svg>