<svg id="Layer_1" data-name="Layer 1" xmlns="http://www.w3.org/2000/svg" viewBox="0 0 100 100"><title>l5_1_1</title><path d="M83.53,100H16.47A16.47,16.47,0,0,1,0,83.53V16.47A16.47,16.47,0,0,1,16.47,0H83.53A16.47,16.47,0,0,1,100,16.47V83.53A16.47,16.47,0,0,1,83.53,100ZM10.38,56.05h8.08a3.91,3.91,0,0,0,2.69-.8A2.82,2.82,0,0,0,22,53a2.77,2.77,0,0,0-.88-2.2,4,4,0,0,0-2.69-.77H10.38q-3.57,0-3.57,3C6.81,55,8,56.05,10.38,56.05Zm35.77-2.58h-.94V37.94a3.67,3.67,0,0,0-1.16-2.88,4.07,4.07,0,0,0-2.8-1,4.32,4.32,0,0,0-1.91.45,4,4,0,0,0-1.53,1.31L25.51,53.34a4.8,4.8,0,0,0-.94,2.83,3.3,3.3,0,0,0,.9,2.37,3.23,3.23,0,0,0,2.45,1h9.59V61a3.79,3.79,0,0,0,1.06,2.92,3.87,3.87,0,0,0,2.77,1,4,4,0,0,0,2.79-1A3.76,3.76,0,0,0,45.21,61V59.49h.94q3.75,0,3.75-3.06C49.9,54.45,48.65,53.47,46.15,53.47Zm-13.8,0L37.51,46v7.44Zm23,2.58h8.08a3.93,3.93,0,0,0,2.69-.8A2.82,2.82,0,0,0,67,53a2.77,2.77,0,0,0-.88-2.2,4,4,0,0,0-2.69-.77H55.36q-3.57,0-3.57,3C51.79,55,53,56.05,55.36,56.05Zm32-7.06a7,7,0,0,0,3.42-2.6A7.19,7.19,0,0,0,92,42.24a7.52,7.52,0,0,0-1.31-4.38,8.42,8.42,0,0,0-3.74-2.93,14.21,14.21,0,0,0-5.61-1,17.47,17.47,0,0,0-5.1.77,14.56,14.56,0,0,0-4.36,2.15,3.43,3.43,0,0,0-1,1.17,3.34,3.34,0,0,0-.3,1.5,3.52,3.52,0,0,0,.73,2.26,2.22,2.22,0,0,0,1.8.92,2.85,2.85,0,0,0,1.08-.19c.31-.13.74-.34,1.29-.62l.9-.43a24.11,24.11,0,0,1,2.34-1A6.74,6.74,0,0,1,80.94,40a3.68,3.68,0,0,1,2.62.88,3.22,3.22,0,0,1,1,2.47,2.41,2.41,0,0,1-1.07,2.19,6.59,6.59,0,0,1-3.44.69H78.1a2.46,2.46,0,0,0-2,.9,3.31,3.31,0,0,0-.73,2.15,3.28,3.28,0,0,0,.73,2.15,2.44,2.44,0,0,0,2,.91h2.67a6.48,6.48,0,0,1,3.53.73,2.72,2.72,0,0,1,1.07,2.41,3,3,0,0,1-1.05,2.58,6,6,0,0,1-3.46.77,7.65,7.65,0,0,1-2.48-.37,18.66,18.66,0,0,1-2.47-1l-.54-.24L75,57c-.54-.28-1-.49-1.29-.62a2.76,2.76,0,0,0-1.07-.2,2.22,2.22,0,0,0-1.81.93,3.58,3.58,0,0,0-.73,2.26,3.37,3.37,0,0,0,.3,1.48,3.32,3.32,0,0,0,1,1.18,13.69,13.69,0,0,0,4.47,2.17,18.79,18.79,0,0,0,5.37.76,16,16,0,0,0,6.09-1.06,9.07,9.07,0,0,0,4-3,7.51,7.51,0,0,0,1.42-4.55,7.63,7.63,0,0,0-1.44-4.69A7.35,7.35,0,0,0,87.35,49Z"/></svg>