<svg id="Layer_1" data-name="Layer 1" xmlns="http://www.w3.org/2000/svg" viewBox="0 0 100 100"><title>l5_2_1</title><path d="M83.34,100H16.28A16.47,16.47,0,0,1-.19,83.53V16.47A16.47,16.47,0,0,1,16.28,0H83.34A16.47,16.47,0,0,1,99.81,16.47V83.53A16.47,16.47,0,0,1,83.34,100ZM18.16,47.28a3.31,3.31,0,0,0,1.12,1.14,2.49,2.49,0,0,0,1.27.39,1.55,1.55,0,0,0,1.1-.4,1.45,1.45,0,0,0,.43-1.1,2.67,2.67,0,0,0-.2-1,26.1,26.1,0,0,1-1.36-4.77,28.3,28.3,0,0,1-.42-5,29.24,29.24,0,0,1,.42-5.1,24.62,24.62,0,0,1,1.36-4.77,2.67,2.67,0,0,0,.2-1,1.51,1.51,0,0,0-.43-1.13,1.6,1.6,0,0,0-1.1-.4,2.51,2.51,0,0,0-1.27.4,3.56,3.56,0,0,0-1.12,1.16,18.82,18.82,0,0,0-3.11,10.81A18.87,18.87,0,0,0,18.16,47.28ZM35.25,33.75a4.47,4.47,0,0,0,2.21-1.68,4.6,4.6,0,0,0,.79-2.68,4.9,4.9,0,0,0-.84-2.84A5.59,5.59,0,0,0,35,24.66,9.33,9.33,0,0,0,31.36,24a11.22,11.22,0,0,0-3.29.5,9.29,9.29,0,0,0-2.82,1.39,2.39,2.39,0,0,0-.67.75,2.19,2.19,0,0,0-.2,1,2.27,2.27,0,0,0,.48,1.46,1.44,1.44,0,0,0,1.16.59,1.94,1.94,0,0,0,.7-.12c.2-.08.48-.22.83-.4l.59-.28a15.12,15.12,0,0,1,1.51-.67,4.15,4.15,0,0,1,1.46-.25,2.41,2.41,0,0,1,1.7.57,2.1,2.1,0,0,1,.61,1.6,1.55,1.55,0,0,1-.7,1.42A4.3,4.3,0,0,1,30.5,32H29.28a1.61,1.61,0,0,0-1.31.58,2.29,2.29,0,0,0,0,2.78,1.59,1.59,0,0,0,1.31.59H31a4.13,4.13,0,0,1,2.28.47A1.75,1.75,0,0,1,34,38a1.91,1.91,0,0,1-.68,1.66,3.8,3.8,0,0,1-2.24.5,4.92,4.92,0,0,1-1.59-.23,13.11,13.11,0,0,1-1.6-.68L27.51,39l-.26-.12a7.24,7.24,0,0,0-.84-.4,1.67,1.67,0,0,0-.69-.13,1.45,1.45,0,0,0-1.17.6,2.3,2.3,0,0,0-.47,1.46,2.19,2.19,0,0,0,.19,1,2.23,2.23,0,0,0,.67.76,8.94,8.94,0,0,0,2.89,1.4,12.13,12.13,0,0,0,3.47.49,10.51,10.51,0,0,0,3.94-.68,5.84,5.84,0,0,0,2.6-1.93,4.88,4.88,0,0,0,.91-3,5,5,0,0,0-.93-3A4.72,4.72,0,0,0,35.25,33.75Zm15.48,2.08,3-3a1.59,1.59,0,0,0,.5-1.19,1.42,1.42,0,0,0-.5-1.14,1.5,1.5,0,0,0-1.16-.5,1.57,1.57,0,0,0-1.17.5l-3,3-3-3A1.62,1.62,0,0,0,44.23,30a1.45,1.45,0,0,0-1.14.5,1.63,1.63,0,0,0-.5,1.19,1.73,1.73,0,0,0,.47,1.17l3,3-3,3a1.61,1.61,0,0,0,0,2.33,1.68,1.68,0,0,0,1.17.47,1.58,1.58,0,0,0,1.17-.47l3-3,3,3a1.61,1.61,0,0,0,2.33,0A1.56,1.56,0,0,0,54.21,40a1.49,1.49,0,0,0-.48-1.16Zm19.51,4H64.66l3.94-4a12.67,12.67,0,0,0,2.32-3.13,6.87,6.87,0,0,0,.69-3.09,5.13,5.13,0,0,0-.85-2.91,5.53,5.53,0,0,0-2.41-1.95A9,9,0,0,0,64.74,24a11,11,0,0,0-3.21.5,11.15,11.15,0,0,0-2.93,1.39,1.85,1.85,0,0,0-.68.73,2.39,2.39,0,0,0-.18,1,2.34,2.34,0,0,0,.47,1.48,1.4,1.4,0,0,0,1.17.63,1.77,1.77,0,0,0,.52-.08,3.56,3.56,0,0,0,.57-.27l.43-.23.56-.28A11.83,11.83,0,0,1,63,28.18a4.44,4.44,0,0,1,1.49-.24,2.21,2.21,0,0,1,1.54.5,1.88,1.88,0,0,1,.54,1.45,5.43,5.43,0,0,1-1.83,3.53l-5.89,6.14a3.05,3.05,0,0,0-1,2.17,2,2,0,0,0,2.17,2.11H70.24a2.8,2.8,0,0,0,1.82-.5,1.92,1.92,0,0,0,.6-1.56,1.83,1.83,0,0,0-.6-1.51A2.81,2.81,0,0,0,70.24,39.78Zm8.42,7.5a18.88,18.88,0,0,0,3.12-10.75,18.82,18.82,0,0,0-3.12-10.81,3.4,3.4,0,0,0-1.12-1.14,2.49,2.49,0,0,0-1.27-.39,1.51,1.51,0,0,0-1.09.4,1.43,1.43,0,0,0-.43,1.1,2.65,2.65,0,0,0,.19,1,24.62,24.62,0,0,1,1.36,4.77,29.24,29.24,0,0,1,.42,5.1,28.3,28.3,0,0,1-.42,5,26.1,26.1,0,0,1-1.36,4.77,2.65,2.65,0,0,0-.19,1,1.42,1.42,0,0,0,.43,1.1,1.48,1.48,0,0,0,1.07.4,2.53,2.53,0,0,0,1.29-.39A3.31,3.31,0,0,0,78.66,47.28ZM45.2,67.55H41.7V64a1.64,1.64,0,1,0-3.28,0v3.51h-3.5a1.57,1.57,0,0,0-1.17.47,1.59,1.59,0,0,0-.47,1.17,1.66,1.66,0,0,0,.47,1.18,1.58,1.58,0,0,0,1.17.48h3.5v3.48A1.61,1.61,0,0,0,40.06,76a1.58,1.58,0,0,0,1.18-.47,1.61,1.61,0,0,0,.46-1.17V70.85h3.5a1.59,1.59,0,0,0,1.17-.48,1.66,1.66,0,0,0,.47-1.18,1.61,1.61,0,0,0-1.64-1.64Zm16.71,5.58H56.32l4-4A13.38,13.38,0,0,0,62.59,66a7.08,7.08,0,0,0,.68-3.1A5.15,5.15,0,0,0,62.42,60,5.47,5.47,0,0,0,60,58a8.89,8.89,0,0,0-3.62-.68,10.72,10.72,0,0,0-3.21.5,10.56,10.56,0,0,0-2.93,1.39,1.84,1.84,0,0,0-.68.72,2.39,2.39,0,0,0-.18,1,2.45,2.45,0,0,0,.47,1.49,1.43,1.43,0,0,0,1.17.62,1.89,1.89,0,0,0,.53-.08,4.61,4.61,0,0,0,.57-.27l.43-.23.55-.28a14.08,14.08,0,0,1,1.57-.68,4.48,4.48,0,0,1,1.49-.24,2.19,2.19,0,0,1,1.54.5,1.89,1.89,0,0,1,.54,1.45,5.43,5.43,0,0,1-1.83,3.53l-5.89,6.14a3.05,3.05,0,0,0-.95,2.17,2.07,2.07,0,0,0,.59,1.51,2.1,2.1,0,0,0,1.58.6H61.91a2.82,2.82,0,0,0,1.82-.5,1.93,1.93,0,0,0,.59-1.56,1.85,1.85,0,0,0-.59-1.51A2.89,2.89,0,0,0,61.91,73.13Z"/></svg>