<svg id="Layer_1" data-name="Layer 1" xmlns="http://www.w3.org/2000/svg" viewBox="0 0 100 100"><title>l5_2_1</title><path d="M83.53,100H16.47A16.47,16.47,0,0,1,0,83.53V16.47A16.47,16.47,0,0,1,16.47,0H83.53A16.47,16.47,0,0,1,100,16.47V83.53A16.47,16.47,0,0,1,83.53,100ZM7.05,56.05h8.08a3.93,3.93,0,0,0,2.69-.8A2.82,2.82,0,0,0,18.7,53a2.77,2.77,0,0,0-.88-2.2,4,4,0,0,0-2.69-.77H7.05q-3.57,0-3.57,3C3.48,55,4.67,56.05,7.05,56.05ZM39,49a7,7,0,0,0,3.42-2.6,7.19,7.19,0,0,0,1.22-4.15,7.52,7.52,0,0,0-1.31-4.38,8.42,8.42,0,0,0-3.74-2.93,14.21,14.21,0,0,0-5.61-1,17.47,17.47,0,0,0-5.1.77,14.56,14.56,0,0,0-4.36,2.15,3.43,3.43,0,0,0-1,1.17,3.34,3.34,0,0,0-.3,1.5A3.52,3.52,0,0,0,23,41.75a2.22,2.22,0,0,0,1.8.92,2.85,2.85,0,0,0,1.08-.19c.31-.13.74-.34,1.29-.62l.9-.43a24.11,24.11,0,0,1,2.34-1A6.74,6.74,0,0,1,32.63,40a3.68,3.68,0,0,1,2.62.88,3.22,3.22,0,0,1,1,2.47,2.41,2.41,0,0,1-1.07,2.19,6.59,6.59,0,0,1-3.44.69h-1.9a2.46,2.46,0,0,0-2,.9A3.31,3.31,0,0,0,27,49.29a3.28,3.28,0,0,0,.73,2.15,2.44,2.44,0,0,0,2,.91h2.67a6.48,6.48,0,0,1,3.53.73,2.72,2.72,0,0,1,1.07,2.41A3,3,0,0,1,36,58.07a6,6,0,0,1-3.46.77,7.65,7.65,0,0,1-2.48-.37,18.66,18.66,0,0,1-2.47-1l-.54-.24L26.65,57c-.54-.28-1-.49-1.29-.62a2.76,2.76,0,0,0-1.07-.2,2.22,2.22,0,0,0-1.81.93,3.58,3.58,0,0,0-.73,2.26,3.37,3.37,0,0,0,.3,1.48,3.32,3.32,0,0,0,1,1.18,13.69,13.69,0,0,0,4.47,2.17,18.79,18.79,0,0,0,5.37.76A16,16,0,0,0,39,63.89a9.07,9.07,0,0,0,4-3,7.51,7.51,0,0,0,1.42-4.55A7.63,7.63,0,0,0,43,51.66,7.35,7.35,0,0,0,39,49Zm24,3.23,4.64-4.6a2.52,2.52,0,0,0,.78-1.85A2.22,2.22,0,0,0,67.63,44a2.36,2.36,0,0,0-1.8-.78A2.48,2.48,0,0,0,64,44l-4.64,4.64L54.73,44a2.47,2.47,0,0,0-1.8-.82,2.28,2.28,0,0,0-1.77.77,2.56,2.56,0,0,0-.77,1.85,2.65,2.65,0,0,0,.73,1.81l4.65,4.6-4.65,4.64a2.51,2.51,0,0,0-.77,1.81,2.47,2.47,0,0,0,.77,1.8,2.66,2.66,0,0,0,1.81.74,2.44,2.44,0,0,0,1.8-.74l4.65-4.64L64,60.47a2.48,2.48,0,0,0,1.81.78,2.44,2.44,0,0,0,1.8-.78,2.41,2.41,0,0,0,.73-1.8,2.36,2.36,0,0,0-.73-1.81Zm30.18,6.1H84.53l6.11-6.23a20.11,20.11,0,0,0,3.59-4.84,10.82,10.82,0,0,0,1-4.79A8,8,0,0,0,94,38a8.42,8.42,0,0,0-3.72-3,13.87,13.87,0,0,0-5.59-1.05,17.41,17.41,0,0,0-9.5,2.92,2.92,2.92,0,0,0-1.06,1.12,3.8,3.8,0,0,0-.28,1.55,3.68,3.68,0,0,0,.74,2.3,2.17,2.17,0,0,0,1.8,1,2.47,2.47,0,0,0,.82-.13,5.12,5.12,0,0,0,.88-.41c.33-.18.55-.31.67-.36l.86-.43A20.72,20.72,0,0,1,82,40.37a7,7,0,0,1,2.3-.36,3.41,3.41,0,0,1,2.38.77A2.9,2.9,0,0,1,87.54,43c0,1.66-.94,3.48-2.84,5.46L75.59,58a4.68,4.68,0,0,0-1.46,3.35,3.13,3.13,0,0,0,3.35,3.27H93.17A4.3,4.3,0,0,0,96,63.83a3,3,0,0,0,.93-2.41A2.83,2.83,0,0,0,96,59.08,4.42,4.42,0,0,0,93.17,58.32Z"/></svg>