<svg id="Layer_1" data-name="Layer 1" xmlns="http://www.w3.org/2000/svg" viewBox="0 0 100 100"><title>l5_2_1</title><path d="M83.34,100H16.28A16.47,16.47,0,0,1-.19,83.53V16.47A16.47,16.47,0,0,1,16.28,0H83.34A16.47,16.47,0,0,1,99.81,16.47V83.53A16.47,16.47,0,0,1,83.34,100ZM18.16,47.29a3.36,3.36,0,0,0,1.12,1.13,2.49,2.49,0,0,0,1.27.39,1.55,1.55,0,0,0,1.1-.4,1.45,1.45,0,0,0,.43-1.1,2.67,2.67,0,0,0-.2-1,26.1,26.1,0,0,1-1.36-4.77,28.22,28.22,0,0,1-.42-5,29.24,29.24,0,0,1,.42-5.1,24.62,24.62,0,0,1,1.36-4.77,2.67,2.67,0,0,0,.2-1,1.51,1.51,0,0,0-.43-1.13,1.6,1.6,0,0,0-1.1-.4,2.51,2.51,0,0,0-1.27.4,3.56,3.56,0,0,0-1.12,1.16,18.82,18.82,0,0,0-3.11,10.81A18.92,18.92,0,0,0,18.16,47.29ZM37.7,36.64h-.61v-10a2.38,2.38,0,0,0-.75-1.87,2.66,2.66,0,0,0-1.81-.66,2.85,2.85,0,0,0-1.24.29,2.44,2.44,0,0,0-1,.85l-8,11.34a3.07,3.07,0,0,0-.61,1.83,2.13,2.13,0,0,0,.58,1.53,2.08,2.08,0,0,0,1.58.61h6.2v.95a2.5,2.5,0,0,0,.68,1.89,2.55,2.55,0,0,0,1.79.64,2.58,2.58,0,0,0,1.81-.64,2.47,2.47,0,0,0,.7-1.89v-.95h.61c1.61,0,2.42-.66,2.42-2S39.31,36.64,37.7,36.64Zm-8.92,0,3.33-4.81v4.81Zm21.95-.81,3-3a1.59,1.59,0,0,0,.5-1.19,1.42,1.42,0,0,0-.5-1.14,1.5,1.5,0,0,0-1.16-.5,1.57,1.57,0,0,0-1.17.5l-3,3-3-3A1.62,1.62,0,0,0,44.23,30a1.45,1.45,0,0,0-1.14.5,1.63,1.63,0,0,0-.5,1.19,1.73,1.73,0,0,0,.47,1.17l3,3-3,3a1.61,1.61,0,0,0,0,2.33,1.68,1.68,0,0,0,1.17.47,1.58,1.58,0,0,0,1.17-.47l3-3,3,3a1.61,1.61,0,0,0,2.33,0A1.56,1.56,0,0,0,54.21,40a1.49,1.49,0,0,0-.48-1.16Zm19.51,4H64.66l3.94-4a12.67,12.67,0,0,0,2.32-3.13,6.87,6.87,0,0,0,.68-3.09,5.12,5.12,0,0,0-.84-2.91,5.44,5.44,0,0,0-2.41-1.94A8.84,8.84,0,0,0,64.74,24a11,11,0,0,0-3.21.5,11.15,11.15,0,0,0-2.93,1.39,1.85,1.85,0,0,0-.68.73,2.39,2.39,0,0,0-.18,1,2.34,2.34,0,0,0,.47,1.48,1.4,1.4,0,0,0,1.17.63,1.77,1.77,0,0,0,.52-.08,3.56,3.56,0,0,0,.57-.27l.43-.23.56-.28A11.83,11.83,0,0,1,63,28.18a4.44,4.44,0,0,1,1.49-.24,2.21,2.21,0,0,1,1.54.5,1.88,1.88,0,0,1,.54,1.45,5.43,5.43,0,0,1-1.83,3.53l-5.89,6.14a3.05,3.05,0,0,0-1,2.17,2.07,2.07,0,0,0,.58,1.51,2.12,2.12,0,0,0,1.59.6H70.24a2.8,2.8,0,0,0,1.82-.5,1.92,1.92,0,0,0,.6-1.56,1.83,1.83,0,0,0-.6-1.51A2.81,2.81,0,0,0,70.24,39.78Zm8.42,7.51a18.93,18.93,0,0,0,3.12-10.76,18.82,18.82,0,0,0-3.12-10.81,3.4,3.4,0,0,0-1.12-1.14,2.49,2.49,0,0,0-1.27-.39,1.51,1.51,0,0,0-1.09.4,1.43,1.43,0,0,0-.43,1.1,2.65,2.65,0,0,0,.19,1,24.62,24.62,0,0,1,1.36,4.77,29.24,29.24,0,0,1,.42,5.1,28.22,28.22,0,0,1-.42,5,26.1,26.1,0,0,1-1.36,4.77,2.65,2.65,0,0,0-.19,1,1.42,1.42,0,0,0,.43,1.1,1.48,1.48,0,0,0,1.07.4,2.53,2.53,0,0,0,1.29-.39A3.36,3.36,0,0,0,78.66,47.29ZM45.2,67.55H41.7V64a1.64,1.64,0,1,0-3.28,0v3.51h-3.5a1.57,1.57,0,0,0-1.17.47,1.59,1.59,0,0,0-.47,1.17,1.66,1.66,0,0,0,.47,1.18,1.58,1.58,0,0,0,1.17.48h3.5v3.48A1.61,1.61,0,0,0,40.06,76a1.58,1.58,0,0,0,1.18-.47,1.61,1.61,0,0,0,.46-1.17V70.85h3.5a1.59,1.59,0,0,0,1.17-.48,1.66,1.66,0,0,0,.47-1.18,1.61,1.61,0,0,0-1.64-1.64Zm16.71,5.58H56.32l4-4A13.38,13.38,0,0,0,62.59,66a7.08,7.08,0,0,0,.68-3.1A5.15,5.15,0,0,0,62.42,60,5.47,5.47,0,0,0,60,58a8.89,8.89,0,0,0-3.62-.68,10.72,10.72,0,0,0-3.21.5,10.56,10.56,0,0,0-2.93,1.39,1.84,1.84,0,0,0-.68.72,2.39,2.39,0,0,0-.18,1,2.45,2.45,0,0,0,.47,1.49,1.43,1.43,0,0,0,1.17.62,1.89,1.89,0,0,0,.53-.08,3.5,3.5,0,0,0,.57-.27l.43-.23.55-.28a14.08,14.08,0,0,1,1.57-.68,4.48,4.48,0,0,1,1.49-.24,2.19,2.19,0,0,1,1.54.5,1.89,1.89,0,0,1,.54,1.45,5.43,5.43,0,0,1-1.83,3.53l-5.89,6.14a3.05,3.05,0,0,0-.95,2.17,2.06,2.06,0,0,0,.59,1.51,2.1,2.1,0,0,0,1.58.6H61.91a2.82,2.82,0,0,0,1.82-.5,1.93,1.93,0,0,0,.59-1.56,1.85,1.85,0,0,0-.59-1.51A2.89,2.89,0,0,0,61.91,73.13Z"/></svg>