<svg id="Layer_1" data-name="Layer 1" xmlns="http://www.w3.org/2000/svg" viewBox="0 0 100 100"><title>l5_2_1</title><path d="M83.53,100H16.47A16.47,16.47,0,0,1,0,83.53V16.47A16.47,16.47,0,0,1,16.47,0H83.53A16.47,16.47,0,0,1,100,16.47V83.53A16.47,16.47,0,0,1,83.53,100Zm-71-53.52a3.42,3.42,0,0,0,1.13,1.14,2.46,2.46,0,0,0,1.26.39,1.54,1.54,0,0,0,1.1-.4,1.43,1.43,0,0,0,.43-1.1,2.61,2.61,0,0,0-.19-1,25.33,25.33,0,0,1-1.36-4.77,28.38,28.38,0,0,1-.42-5,29.24,29.24,0,0,1,.42-5.1,23.75,23.75,0,0,1,1.36-4.77,2.65,2.65,0,0,0,.19-1A1.47,1.47,0,0,0,16,23.76a1.54,1.54,0,0,0-1.1-.4,2.38,2.38,0,0,0-1.26.4,3.49,3.49,0,0,0-1.13,1.16A18.87,18.87,0,0,0,9.43,35.73,19,19,0,0,0,12.54,46.48ZM31.28,39H25.69l3.95-4A13.21,13.21,0,0,0,32,31.82a7,7,0,0,0,.68-3.1,5,5,0,0,0-.85-2.9,5.55,5.55,0,0,0-2.4-1.95,9.06,9.06,0,0,0-3.62-.68,11.29,11.29,0,0,0-6.14,1.89,1.9,1.9,0,0,0-.68.72,2.7,2.7,0,0,0,.29,2.49,1.43,1.43,0,0,0,1.17.63,1.6,1.6,0,0,0,.53-.09,3.35,3.35,0,0,0,.57-.26l.43-.24.55-.27a14.36,14.36,0,0,1,1.57-.69,4.75,4.75,0,0,1,1.49-.23,2.19,2.19,0,0,1,1.54.5,1.86,1.86,0,0,1,.54,1.44,5.39,5.39,0,0,1-1.83,3.53l-5.89,6.15A3,3,0,0,0,19,40.92,2,2,0,0,0,21.13,43H31.28a2.82,2.82,0,0,0,1.82-.5A2,2,0,0,0,33.69,41a1.87,1.87,0,0,0-.59-1.52A2.89,2.89,0,0,0,31.28,39Zm6.78-1.47h5.22A2.55,2.55,0,0,0,45,37a1.82,1.82,0,0,0,.57-1.43A1.8,1.8,0,0,0,45,34.14a2.6,2.6,0,0,0-1.74-.5H38.06q-2.31,0-2.31,1.92T38.06,37.51ZM58.74,33A4.58,4.58,0,0,0,61,31.27a4.71,4.71,0,0,0,.79-2.69,4.87,4.87,0,0,0-.85-2.83,5.39,5.39,0,0,0-2.42-1.89,9.11,9.11,0,0,0-3.63-.67,11.27,11.27,0,0,0-3.29.5,9.52,9.52,0,0,0-2.82,1.39,1.88,1.88,0,0,0-.86,1.72,2.28,2.28,0,0,0,.47,1.46,1.44,1.44,0,0,0,1.17.6,1.85,1.85,0,0,0,.69-.12c.21-.09.48-.22.84-.41l.58-.27a15.2,15.2,0,0,1,1.52-.67,4.09,4.09,0,0,1,1.45-.25,2.39,2.39,0,0,1,1.7.57,2.07,2.07,0,0,1,.61,1.6,1.54,1.54,0,0,1-.69,1.41,4.25,4.25,0,0,1-2.23.45H52.76a1.59,1.59,0,0,0-1.31.58,2.29,2.29,0,0,0,0,2.78,1.6,1.6,0,0,0,1.31.59h1.72a4.13,4.13,0,0,1,2.28.47,1.72,1.72,0,0,1,.7,1.55,1.94,1.94,0,0,1-.68,1.67,3.82,3.82,0,0,1-2.24.5,5.28,5.28,0,0,1-1.6-.23,13.07,13.07,0,0,1-1.6-.69L51,38.24l-.26-.12c-.35-.19-.63-.32-.83-.41a1.94,1.94,0,0,0-.7-.12,1.42,1.42,0,0,0-1.16.6,2.25,2.25,0,0,0-.48,1.46,2.12,2.12,0,0,0,.2,1,2.21,2.21,0,0,0,.66.77,8.89,8.89,0,0,0,2.9,1.4,12.08,12.08,0,0,0,3.47.49,10.5,10.5,0,0,0,3.93-.68,5.92,5.92,0,0,0,2.6-1.93,5.29,5.29,0,0,0,0-6A4.72,4.72,0,0,0,58.74,33Zm10,13.53a19,19,0,0,0,3.11-10.75,18.87,18.87,0,0,0-3.11-10.81,3.33,3.33,0,0,0-1.13-1.14,2.43,2.43,0,0,0-1.26-.39,1.54,1.54,0,0,0-1.1.4,1.42,1.42,0,0,0-.43,1.1,2.65,2.65,0,0,0,.19,1,24.46,24.46,0,0,1,1.37,4.77,30.28,30.28,0,0,1,.41,5.1,29.39,29.39,0,0,1-.41,5A26.16,26.16,0,0,1,65,45.54a2.61,2.61,0,0,0-.19,1,1.43,1.43,0,0,0,.43,1.1,1.5,1.5,0,0,0,1.07.4,2.48,2.48,0,0,0,1.29-.39A3.42,3.42,0,0,0,68.77,46.48ZM85.28,35l3-3a1.66,1.66,0,0,0,.5-1.2,1.48,1.48,0,0,0-.5-1.14,1.56,1.56,0,0,0-1.17-.5,1.6,1.6,0,0,0-1.16.5l-3,3-3-3a1.63,1.63,0,0,0-1.17-.53,1.45,1.45,0,0,0-1.14.51,1.63,1.63,0,0,0-.5,1.19,1.69,1.69,0,0,0,.48,1.17l3,3-3,3a1.62,1.62,0,0,0,0,2.34,1.72,1.72,0,0,0,1.16.47,1.59,1.59,0,0,0,1.17-.47l3-3,3,3a1.61,1.61,0,0,0,2.33,0,1.62,1.62,0,0,0,.47-1.17A1.56,1.56,0,0,0,88.28,38ZM18.74,79.83A3.33,3.33,0,0,0,19.87,81a2.43,2.43,0,0,0,1.26.39,1.54,1.54,0,0,0,1.1-.4,1.42,1.42,0,0,0,.43-1.1,2.65,2.65,0,0,0-.19-1,26.16,26.16,0,0,1-1.37-4.77,29.3,29.3,0,0,1-.41-5A30.28,30.28,0,0,1,21.1,64a24.66,24.66,0,0,1,1.37-4.77,2.65,2.65,0,0,0,.19-1,1.47,1.47,0,0,0-.43-1.13,1.58,1.58,0,0,0-1.1-.4,2.45,2.45,0,0,0-1.26.4,3.59,3.59,0,0,0-1.13,1.16,18.89,18.89,0,0,0-3.11,10.81A19,19,0,0,0,18.74,79.83Zm18.73-7.5H31.89l3.94-4a13,13,0,0,0,2.33-3.13,7,7,0,0,0,.68-3.1,5.12,5.12,0,0,0-.85-2.9,5.53,5.53,0,0,0-2.41-2A9,9,0,0,0,32,56.54a11,11,0,0,0-3.21.5,11.15,11.15,0,0,0-2.93,1.39,1.85,1.85,0,0,0-.68.73,2.39,2.39,0,0,0-.18,1,2.34,2.34,0,0,0,.47,1.48,1.4,1.4,0,0,0,1.17.63,1.77,1.77,0,0,0,.52-.08,3.56,3.56,0,0,0,.57-.27c.22-.12.36-.2.44-.23l.55-.28a11.83,11.83,0,0,1,1.57-.68,4.48,4.48,0,0,1,1.49-.24,2.19,2.19,0,0,1,1.54.5,1.88,1.88,0,0,1,.54,1.45A5.43,5.43,0,0,1,32,66l-5.89,6.14a3.05,3.05,0,0,0-.95,2.17,2,2,0,0,0,2.17,2.11H37.47a2.79,2.79,0,0,0,1.82-.5,1.92,1.92,0,0,0,.6-1.56,1.83,1.83,0,0,0-.6-1.51A2.79,2.79,0,0,0,37.47,72.33Zm16.68-5.59h-3.5v-3.5a1.64,1.64,0,1,0-3.28,0v3.5h-3.5a1.62,1.62,0,0,0-1.64,1.64,1.63,1.63,0,0,0,.47,1.19,1.56,1.56,0,0,0,1.17.48h3.5v3.48A1.62,1.62,0,0,0,49,75.17a1.61,1.61,0,0,0,1.64-1.64V70.05h3.5a1.59,1.59,0,0,0,1.17-.48,1.67,1.67,0,0,0,.47-1.19,1.62,1.62,0,0,0-1.64-1.64Zm15.06-.44a4.43,4.43,0,0,0,2.21-1.68,4.61,4.61,0,0,0,.8-2.68,4.91,4.91,0,0,0-.85-2.84A5.53,5.53,0,0,0,69,57.21a9.33,9.33,0,0,0-3.63-.67A11.22,11.22,0,0,0,62,57a9.4,9.4,0,0,0-2.82,1.39,1.89,1.89,0,0,0-.86,1.73,2.26,2.26,0,0,0,.47,1.46,1.44,1.44,0,0,0,1.17.59,1.85,1.85,0,0,0,.69-.12c.21-.08.48-.22.84-.4l.58-.28a16.2,16.2,0,0,1,1.51-.67,4.15,4.15,0,0,1,1.46-.25,2.39,2.39,0,0,1,1.7.57,2.07,2.07,0,0,1,.61,1.6,1.57,1.57,0,0,1-.69,1.42,4.37,4.37,0,0,1-2.23.44H63.24a1.59,1.59,0,0,0-1.31.58,2.29,2.29,0,0,0,0,2.78,1.6,1.6,0,0,0,1.31.59H65a4.13,4.13,0,0,1,2.28.47,1.76,1.76,0,0,1,.7,1.56,1.91,1.91,0,0,1-.69,1.66,3.79,3.79,0,0,1-2.23.5,5,5,0,0,1-1.6-.23,13.8,13.8,0,0,1-1.6-.68l-.35-.16-.26-.12a8.15,8.15,0,0,0-.83-.4,1.75,1.75,0,0,0-.7-.13,1.45,1.45,0,0,0-1.17.6A2.3,2.3,0,0,0,58,73a2,2,0,0,0,.86,1.72,8.94,8.94,0,0,0,2.89,1.4,12.2,12.2,0,0,0,3.48.49,10.5,10.5,0,0,0,3.93-.68A5.84,5.84,0,0,0,71.8,74a4.88,4.88,0,0,0,.92-3,5,5,0,0,0-.93-3A4.75,4.75,0,0,0,69.21,66.3Zm10,13.53a19,19,0,0,0,3.11-10.75,18.89,18.89,0,0,0-3.11-10.81,3.42,3.42,0,0,0-1.13-1.14,2.46,2.46,0,0,0-1.26-.39,1.54,1.54,0,0,0-1.1.4,1.43,1.43,0,0,0-.43,1.1,2.65,2.65,0,0,0,.19,1A23.94,23.94,0,0,1,76.88,64a29.24,29.24,0,0,1,.42,5.1,28.3,28.3,0,0,1-.42,5,25.33,25.33,0,0,1-1.36,4.77,2.65,2.65,0,0,0-.19,1,1.42,1.42,0,0,0,.43,1.1,1.5,1.5,0,0,0,1.07.4A2.48,2.48,0,0,0,78.12,81,3.33,3.33,0,0,0,79.25,79.83Z"/></svg>