<svg id="Layer_1" data-name="Layer 1" xmlns="http://www.w3.org/2000/svg" viewBox="0 0 100 100"><title>l5_2_1</title><path d="M83.53,100H16.47A16.47,16.47,0,0,1,0,83.53V16.47A16.47,16.47,0,0,1,16.47,0H83.53A16.47,16.47,0,0,1,100,16.47V83.53A16.47,16.47,0,0,1,83.53,100ZM32,58.32H23.34l6.11-6.23A20.11,20.11,0,0,0,33,47.25a10.85,10.85,0,0,0,1.05-4.79A7.87,7.87,0,0,0,32.78,38a8.42,8.42,0,0,0-3.72-3,13.87,13.87,0,0,0-5.59-1.05A17.48,17.48,0,0,0,14,36.82a2.81,2.81,0,0,0-1.05,1.12,4.15,4.15,0,0,0,.45,3.85,2.17,2.17,0,0,0,1.8,1,2.47,2.47,0,0,0,.82-.13,5.12,5.12,0,0,0,.88-.41c.33-.18.55-.31.67-.36l.86-.43a22.29,22.29,0,0,1,2.43-1.06,7.07,7.07,0,0,1,2.3-.36,3.34,3.34,0,0,1,2.38.77A2.9,2.9,0,0,1,26.35,43q0,2.49-2.83,5.46L14.4,58a4.68,4.68,0,0,0-1.46,3.35,3.13,3.13,0,0,0,3.35,3.27H32a4.32,4.32,0,0,0,2.81-.77,3,3,0,0,0,.93-2.41,2.83,2.83,0,0,0-.93-2.34A4.39,4.39,0,0,0,32,58.32Zm21.45-6.1,4.65-4.6a2.55,2.55,0,0,0,.77-1.85A2.25,2.25,0,0,0,58.09,44a2.38,2.38,0,0,0-1.81-.78,2.44,2.44,0,0,0-1.8.78l-4.65,4.64L45.19,44a2.51,2.51,0,0,0-1.81-.82,2.26,2.26,0,0,0-1.76.77,2.53,2.53,0,0,0-.78,1.85,2.66,2.66,0,0,0,.74,1.81l4.64,4.6-4.64,4.64a2.48,2.48,0,0,0-.78,1.81,2.44,2.44,0,0,0,.78,1.8,2.62,2.62,0,0,0,1.8.74,2.46,2.46,0,0,0,1.81-.74l4.64-4.64,4.65,4.64a2.44,2.44,0,0,0,1.8.78,2.48,2.48,0,0,0,1.81-.78,2.45,2.45,0,0,0,.73-1.8,2.39,2.39,0,0,0-.73-1.81ZM81.09,49a7,7,0,0,0,3.42-2.6,7.13,7.13,0,0,0,1.23-4.15,7.46,7.46,0,0,0-1.32-4.38,8.42,8.42,0,0,0-3.74-2.93,14.21,14.21,0,0,0-5.61-1,17.36,17.36,0,0,0-5.09.77,14.5,14.5,0,0,0-4.37,2.15,3.43,3.43,0,0,0-1,1.17,3.34,3.34,0,0,0-.3,1.5A3.52,3.52,0,0,0,65,41.75a2.24,2.24,0,0,0,1.81.92,2.76,2.76,0,0,0,1.07-.19c.32-.13.75-.34,1.29-.62l.9-.43a23.17,23.17,0,0,1,2.35-1A6.66,6.66,0,0,1,74.69,40a3.69,3.69,0,0,1,2.62.88,3.21,3.21,0,0,1,.94,2.47,2.39,2.39,0,0,1-1.07,2.19,6.57,6.57,0,0,1-3.44.69H71.85a2.45,2.45,0,0,0-2,.9,3.32,3.32,0,0,0-.74,2.15,3.28,3.28,0,0,0,.74,2.15,2.43,2.43,0,0,0,2,.91h2.66a6.45,6.45,0,0,1,3.53.73,2.69,2.69,0,0,1,1.07,2.41,3,3,0,0,1-1,2.58,6,6,0,0,1-3.46.77,7.87,7.87,0,0,1-2.47-.36,20.39,20.39,0,0,1-2.48-1.06l-.53-.23-.41-.2c-.55-.28-1-.49-1.29-.62a2.85,2.85,0,0,0-1.08-.2,2.21,2.21,0,0,0-1.8.93,3.52,3.52,0,0,0-.73,2.26,3.4,3.4,0,0,0,.3,1.48,3.28,3.28,0,0,0,1,1.18,13.69,13.69,0,0,0,4.47,2.17A18.81,18.81,0,0,0,75,65a16,16,0,0,0,6.08-1.06,9,9,0,0,0,4-3,7.45,7.45,0,0,0,1.42-4.55,7.63,7.63,0,0,0-1.44-4.69A7.35,7.35,0,0,0,81.09,49Z"/></svg>