<svg id="Layer_1" data-name="Layer 1" xmlns="http://www.w3.org/2000/svg" viewBox="0 0 100 100"><title>l5_2_1</title><path d="M83.53,100H16.47A16.47,16.47,0,0,1,0,83.53V16.47A16.47,16.47,0,0,1,16.47,0H83.53A16.47,16.47,0,0,1,100,16.47V83.53A16.47,16.47,0,0,1,83.53,100ZM33.26,53.47h-.95V37.94a3.67,3.67,0,0,0-1.16-2.88,4.07,4.07,0,0,0-2.8-1,4.32,4.32,0,0,0-1.91.45,4,4,0,0,0-1.53,1.31L12.62,53.34a4.75,4.75,0,0,0-.95,2.83,3.3,3.3,0,0,0,.9,2.37,3.23,3.23,0,0,0,2.45,1h9.59V61a3.79,3.79,0,0,0,1.06,2.92,3.87,3.87,0,0,0,2.77,1,3.93,3.93,0,0,0,2.79-1A3.76,3.76,0,0,0,32.31,61V59.49h.95q3.74,0,3.74-3.06C37,54.45,35.75,53.47,33.26,53.47Zm-13.81,0L24.61,46v7.44Zm34-1.25,4.65-4.6a2.55,2.55,0,0,0,.77-1.85A2.25,2.25,0,0,0,58.07,44a2.38,2.38,0,0,0-1.81-.78,2.48,2.48,0,0,0-1.81.78l-4.64,4.64L45.17,44a2.51,2.51,0,0,0-1.81-.82A2.26,2.26,0,0,0,41.6,44a2.53,2.53,0,0,0-.78,1.85,2.7,2.7,0,0,0,.73,1.81l4.65,4.6-4.65,4.64a2.51,2.51,0,0,0-.77,1.81,2.47,2.47,0,0,0,.77,1.8,2.66,2.66,0,0,0,1.81.74,2.46,2.46,0,0,0,1.81-.74l4.64-4.64,4.64,4.64a2.49,2.49,0,0,0,3.62,0,2.45,2.45,0,0,0,.73-1.8,2.39,2.39,0,0,0-.73-1.81ZM81.07,49a7,7,0,0,0,3.42-2.6,7.12,7.12,0,0,0,1.22-4.15,7.45,7.45,0,0,0-1.31-4.38,8.42,8.42,0,0,0-3.74-2.93,14.21,14.21,0,0,0-5.61-1,17.36,17.36,0,0,0-5.09.77,14.5,14.5,0,0,0-4.37,2.15,3.43,3.43,0,0,0-1,1.17,3.34,3.34,0,0,0-.3,1.5A3.52,3.52,0,0,0,65,41.75a2.24,2.24,0,0,0,1.8.92,2.81,2.81,0,0,0,1.08-.19c.31-.13.74-.34,1.29-.62l.9-.43a23.17,23.17,0,0,1,2.35-1A6.64,6.64,0,0,1,74.66,40a3.7,3.7,0,0,1,2.63.88,3.21,3.21,0,0,1,.94,2.47,2.41,2.41,0,0,1-1.07,2.19,6.59,6.59,0,0,1-3.44.69H71.83a2.48,2.48,0,0,0-2,.9,3.37,3.37,0,0,0-.73,2.15,3.33,3.33,0,0,0,.73,2.15,2.46,2.46,0,0,0,2,.91h2.66a6.45,6.45,0,0,1,3.53.73,2.72,2.72,0,0,1,1.07,2.41,3,3,0,0,1-1,2.58,6,6,0,0,1-3.46.77,7.59,7.59,0,0,1-2.47-.37,18.19,18.19,0,0,1-2.48-1,5.46,5.46,0,0,1-.53-.24L68.69,57c-.55-.28-1-.49-1.29-.62a2.85,2.85,0,0,0-1.08-.2,2.19,2.19,0,0,0-1.8.93,3.53,3.53,0,0,0-.74,2.26,3.23,3.23,0,0,0,.31,1.48,3.28,3.28,0,0,0,1,1.18,13.69,13.69,0,0,0,4.47,2.17A18.79,18.79,0,0,0,75,65a16,16,0,0,0,6.09-1.06,9.07,9.07,0,0,0,4-3,7.45,7.45,0,0,0,1.42-4.55,7.63,7.63,0,0,0-1.44-4.69A7.35,7.35,0,0,0,81.07,49Z"/></svg>