<svg id="Layer_1" data-name="Layer 1" xmlns="http://www.w3.org/2000/svg" viewBox="0 0 100 100"><title>l5_2_1</title><path d="M83.53,100H16.47A16.47,16.47,0,0,1,0,83.53V16.47A16.47,16.47,0,0,1,16.47,0H83.53A16.47,16.47,0,0,1,100,16.47V83.53A16.47,16.47,0,0,1,83.53,100ZM33.23,53.47h-.94V37.94a3.67,3.67,0,0,0-1.16-2.88,4.07,4.07,0,0,0-2.8-1,4.29,4.29,0,0,0-1.91.45,4,4,0,0,0-1.53,1.31L12.59,53.34a4.8,4.8,0,0,0-.94,2.83,3.3,3.3,0,0,0,.9,2.37,3.23,3.23,0,0,0,2.45,1h9.59V61a3.82,3.82,0,0,0,1.05,2.92,3.91,3.91,0,0,0,2.78,1,4,4,0,0,0,2.79-1A3.76,3.76,0,0,0,32.29,61V59.49h.94c2.5,0,3.74-1,3.74-3.06S35.73,53.47,33.23,53.47Zm-13.8,0L24.59,46v7.44Zm34-1.25L58,47.62a2.52,2.52,0,0,0,.78-1.85A2.22,2.22,0,0,0,58,44a2.36,2.36,0,0,0-1.8-.78,2.48,2.48,0,0,0-1.81.78l-4.64,4.64L45.14,44a2.47,2.47,0,0,0-1.8-.82,2.25,2.25,0,0,0-1.76.77,2.53,2.53,0,0,0-.78,1.85,2.65,2.65,0,0,0,.73,1.81l4.65,4.6-4.65,4.64a2.51,2.51,0,0,0-.77,1.81,2.47,2.47,0,0,0,.77,1.8,2.66,2.66,0,0,0,1.81.74,2.44,2.44,0,0,0,1.8-.74l4.65-4.64,4.64,4.64a2.48,2.48,0,0,0,1.81.78,2.6,2.6,0,0,0,2.54-2.58A2.37,2.37,0,0,0,58,56.86Zm30.19,6.1H74.94l6.11-6.23a20.11,20.11,0,0,0,3.59-4.84,10.85,10.85,0,0,0,1-4.79A7.87,7.87,0,0,0,84.38,38a8.42,8.42,0,0,0-3.72-3,13.87,13.87,0,0,0-5.59-1.05,17.48,17.48,0,0,0-9.5,2.92,2.81,2.81,0,0,0-1,1.12A4.15,4.15,0,0,0,65,41.79a2.17,2.17,0,0,0,1.8,1,2.47,2.47,0,0,0,.82-.13,5.12,5.12,0,0,0,.88-.41c.33-.18.55-.31.67-.36l.86-.43a21.48,21.48,0,0,1,2.43-1.06,7.07,7.07,0,0,1,2.3-.36,3.34,3.34,0,0,1,2.38.77A2.9,2.9,0,0,1,78,43c0,1.66-.94,3.48-2.84,5.46L66,58a4.68,4.68,0,0,0-1.46,3.35,3.13,3.13,0,0,0,3.35,3.27h15.7a4.32,4.32,0,0,0,2.81-.77,3,3,0,0,0,.93-2.41,2.83,2.83,0,0,0-.93-2.34A4.39,4.39,0,0,0,83.59,58.32Z"/></svg>