<svg id="Layer_1" data-name="Layer 1" xmlns="http://www.w3.org/2000/svg" viewBox="0 0 100 100"><title>l5_2_1</title><path d="M83.34,100H16.28A16.47,16.47,0,0,1-.19,83.53V16.47A16.47,16.47,0,0,1,16.28,0H83.34A16.47,16.47,0,0,1,99.81,16.47V83.53A16.47,16.47,0,0,1,83.34,100ZM10.21,46.48a3.42,3.42,0,0,0,1.13,1.14A2.46,2.46,0,0,0,12.6,48a1.54,1.54,0,0,0,1.1-.4,1.43,1.43,0,0,0,.43-1.1,2.61,2.61,0,0,0-.19-1,25.33,25.33,0,0,1-1.36-4.77,28.38,28.38,0,0,1-.42-5,29.24,29.24,0,0,1,.42-5.1,23.75,23.75,0,0,1,1.36-4.77,2.65,2.65,0,0,0,.19-1,1.47,1.47,0,0,0-.43-1.13,1.54,1.54,0,0,0-1.1-.4,2.38,2.38,0,0,0-1.26.4,3.55,3.55,0,0,0-1.13,1.15A18.92,18.92,0,0,0,7.1,35.73,19,19,0,0,0,10.21,46.48ZM29.75,35.84h-.61v-10a2.38,2.38,0,0,0-.75-1.86,2.65,2.65,0,0,0-1.81-.67,2.72,2.72,0,0,0-1.23.3,2.51,2.51,0,0,0-1,.84L16.41,35.75a3.12,3.12,0,0,0-.61,1.84A2,2,0,0,0,18,39.73h6.2v.94a2.43,2.43,0,0,0,.68,1.89,2.49,2.49,0,0,0,1.79.64,2.57,2.57,0,0,0,1.81-.64,2.43,2.43,0,0,0,.69-1.89v-.94h.61c1.61,0,2.42-.66,2.42-2S31.36,35.84,29.75,35.84Zm-8.92,0L24.17,31v4.81Zm22-.81,3-3a1.66,1.66,0,0,0,.5-1.2,1.48,1.48,0,0,0-.5-1.14,1.57,1.57,0,0,0-1.17-.5,1.64,1.64,0,0,0-1.17.5l-3,3-3-3a1.63,1.63,0,0,0-1.17-.53,1.45,1.45,0,0,0-1.14.51,1.63,1.63,0,0,0-.5,1.19,1.69,1.69,0,0,0,.48,1.17l3,3-3,3a1.62,1.62,0,0,0,0,2.34,1.72,1.72,0,0,0,1.16.47,1.59,1.59,0,0,0,1.17-.47l3-3,3,3a1.64,1.64,0,0,0,1.17.5,1.6,1.6,0,0,0,1.17-.5,1.62,1.62,0,0,0,.47-1.17A1.56,1.56,0,0,0,45.79,38ZM62.3,39H56.71l3.95-4A13.21,13.21,0,0,0,63,31.82a7,7,0,0,0,.68-3.1,5,5,0,0,0-.85-2.9,5.37,5.37,0,0,0-2.4-1.95,9,9,0,0,0-3.62-.68,11.29,11.29,0,0,0-6.14,1.89,1.84,1.84,0,0,0-.68.72,2.7,2.7,0,0,0,.29,2.49,1.43,1.43,0,0,0,1.17.63,1.55,1.55,0,0,0,.53-.09,2.77,2.77,0,0,0,.57-.26l.43-.24.55-.27a14.36,14.36,0,0,1,1.57-.69,4.75,4.75,0,0,1,1.49-.23,2.19,2.19,0,0,1,1.54.5,1.83,1.83,0,0,1,.55,1.44,5.43,5.43,0,0,1-1.84,3.53l-5.89,6.15A3,3,0,0,0,50,40.92a2.07,2.07,0,0,0,.58,1.52,2.11,2.11,0,0,0,1.58.6H62.3a2.82,2.82,0,0,0,1.82-.5,1.93,1.93,0,0,0,.6-1.56,1.85,1.85,0,0,0-.6-1.52A2.89,2.89,0,0,0,62.3,39Zm8.42,7.5a19,19,0,0,0,3.11-10.75,18.92,18.92,0,0,0-3.11-10.82,3.39,3.39,0,0,0-1.13-1.13,2.43,2.43,0,0,0-1.26-.39,1.54,1.54,0,0,0-1.1.4,1.42,1.42,0,0,0-.43,1.1,2.67,2.67,0,0,0,.2,1,24.42,24.42,0,0,1,1.36,4.77,30.28,30.28,0,0,1,.41,5.1,29.39,29.39,0,0,1-.41,5A26.1,26.1,0,0,1,67,45.54a2.63,2.63,0,0,0-.2,1,1.43,1.43,0,0,0,.43,1.1,1.51,1.51,0,0,0,1.07.4,2.48,2.48,0,0,0,1.29-.39A3.42,3.42,0,0,0,70.72,46.48ZM87.23,35l3-3a1.66,1.66,0,0,0,.5-1.2,1.48,1.48,0,0,0-.5-1.14,1.54,1.54,0,0,0-1.17-.5,1.6,1.6,0,0,0-1.16.5l-3,3-3-3a1.63,1.63,0,0,0-1.17-.53,1.45,1.45,0,0,0-1.14.51,1.63,1.63,0,0,0-.5,1.19,1.69,1.69,0,0,0,.48,1.17l3,3-3,3a1.62,1.62,0,0,0,0,2.34,1.72,1.72,0,0,0,1.16.47,1.59,1.59,0,0,0,1.17-.47l3-3,3,3a1.61,1.61,0,0,0,2.33,0,1.62,1.62,0,0,0,.47-1.17A1.56,1.56,0,0,0,90.23,38ZM18.54,79.83A3.4,3.4,0,0,0,19.66,81a2.49,2.49,0,0,0,1.27.39A1.51,1.51,0,0,0,22,81a1.42,1.42,0,0,0,.44-1.1,2.67,2.67,0,0,0-.2-1,26.1,26.1,0,0,1-1.36-4.77,28.3,28.3,0,0,1-.42-5A29.24,29.24,0,0,1,20.9,64a24.62,24.62,0,0,1,1.36-4.77,2.67,2.67,0,0,0,.2-1A1.48,1.48,0,0,0,22,57.11a1.56,1.56,0,0,0-1.09-.4,2.51,2.51,0,0,0-1.27.4,3.56,3.56,0,0,0-1.12,1.16,18.82,18.82,0,0,0-3.12,10.81A18.88,18.88,0,0,0,18.54,79.83Zm18.73-7.5H31.68l4-4A12.93,12.93,0,0,0,38,65.17a7,7,0,0,0,.68-3.1,5,5,0,0,0-.85-2.9,5.44,5.44,0,0,0-2.4-2,9,9,0,0,0-3.61-.68,11,11,0,0,0-3.21.5,11.07,11.07,0,0,0-2.94,1.39,1.92,1.92,0,0,0-.68.73,2.67,2.67,0,0,0,.29,2.48,1.43,1.43,0,0,0,1.17.63,1.84,1.84,0,0,0,.53-.08,3.56,3.56,0,0,0,.57-.27l.43-.23.56-.28a11.3,11.3,0,0,1,1.57-.68,4.42,4.42,0,0,1,1.48-.24,2.24,2.24,0,0,1,1.55.5,1.88,1.88,0,0,1,.54,1.45A5.4,5.4,0,0,1,31.79,66L25.9,72.11A3,3,0,0,0,25,74.28a2.07,2.07,0,0,0,.58,1.51,2.12,2.12,0,0,0,1.59.6H37.27a2.82,2.82,0,0,0,1.82-.5,1.92,1.92,0,0,0,.6-1.56,1.83,1.83,0,0,0-.6-1.51A2.82,2.82,0,0,0,37.27,72.33Zm13.87-4,3-3a1.64,1.64,0,0,0,.5-1.2,1.44,1.44,0,0,0-.5-1.13A1.52,1.52,0,0,0,53,62.57a1.57,1.57,0,0,0-1.16.51l-3,3-3-3a1.59,1.59,0,0,0-1.17-.53,1.41,1.41,0,0,0-1.13.5,1.59,1.59,0,0,0-.5,1.19,1.68,1.68,0,0,0,.47,1.17l3,3-3,3a1.61,1.61,0,0,0,0,2.33,1.68,1.68,0,0,0,1.16.47,1.55,1.55,0,0,0,1.17-.47l3-3,3,3a1.61,1.61,0,0,0,2.33,0,1.55,1.55,0,0,0,.47-1.17,1.49,1.49,0,0,0-.47-1.16Zm19.51,4H65.06l4-4a12.93,12.93,0,0,0,2.32-3.13,7,7,0,0,0,.68-3.1,5,5,0,0,0-.85-2.9,5.44,5.44,0,0,0-2.4-2,9,9,0,0,0-3.61-.68,11,11,0,0,0-3.21.5A11.07,11.07,0,0,0,59,58.43a1.92,1.92,0,0,0-.68.73,2.67,2.67,0,0,0,.29,2.48,1.43,1.43,0,0,0,1.17.63,1.84,1.84,0,0,0,.53-.08,3.56,3.56,0,0,0,.57-.27l.43-.23.56-.28a11.3,11.3,0,0,1,1.57-.68,4.42,4.42,0,0,1,1.48-.24,2.24,2.24,0,0,1,1.55.5A1.88,1.88,0,0,1,67,62.44,5.4,5.4,0,0,1,65.17,66l-5.89,6.14a3,3,0,0,0-.94,2.17,2.07,2.07,0,0,0,.58,1.51,2.11,2.11,0,0,0,1.58.6H70.65a2.82,2.82,0,0,0,1.82-.5,1.92,1.92,0,0,0,.6-1.56,1.83,1.83,0,0,0-.6-1.51A2.82,2.82,0,0,0,70.65,72.33Zm8.42,7.5a18.87,18.87,0,0,0,3.11-10.75,18.82,18.82,0,0,0-3.11-10.81A3.4,3.4,0,0,0,78,57.13a2.49,2.49,0,0,0-1.27-.39,1.55,1.55,0,0,0-1.1.4,1.43,1.43,0,0,0-.43,1.1,2.67,2.67,0,0,0,.2,1A24.62,24.62,0,0,1,76.71,64a29.24,29.24,0,0,1,.42,5.1,28.3,28.3,0,0,1-.42,5,26.1,26.1,0,0,1-1.36,4.77,2.67,2.67,0,0,0-.2,1,1.42,1.42,0,0,0,.43,1.1,1.51,1.51,0,0,0,1.07.4A2.54,2.54,0,0,0,78,81,3.4,3.4,0,0,0,79.07,79.83Z"/></svg>