<svg id="Layer_1" data-name="Layer 1" xmlns="http://www.w3.org/2000/svg" viewBox="0 0 100 100"><title>l5_3_1</title><path d="M83.53,100.44H16.47A16.47,16.47,0,0,1,0,84V16.91A16.47,16.47,0,0,1,16.47.44H83.53A16.47,16.47,0,0,1,100,16.91V84A16.47,16.47,0,0,1,83.53,100.44ZM18.76,51.49a3.42,3.42,0,0,0,1.13,1.14,2.43,2.43,0,0,0,1.26.39,1.58,1.58,0,0,0,1.1-.4,1.43,1.43,0,0,0,.43-1.1,2.83,2.83,0,0,0-.19-1,26.39,26.39,0,0,1-1.37-4.77,29.42,29.42,0,0,1-.41-5.05,30.46,30.46,0,0,1,.41-5.1,24.57,24.57,0,0,1,1.37-4.76,2.92,2.92,0,0,0,.19-1,1.46,1.46,0,0,0-.43-1.13,1.54,1.54,0,0,0-1.1-.4,2.36,2.36,0,0,0-1.26.4,3.55,3.55,0,0,0-1.13,1.15,18.91,18.91,0,0,0-3.11,10.81A19,19,0,0,0,18.76,51.49ZM31.63,28.2a7.21,7.21,0,0,0-3.53.86,6.19,6.19,0,0,0-2.43,2.41A6.85,6.85,0,0,0,24.79,35a7,7,0,0,0,.77,3.3,5.78,5.78,0,0,0,2.1,2.28,5.63,5.63,0,0,0,3,.82A5.43,5.43,0,0,0,33,40.83a4.35,4.35,0,0,0,1.7-1.4,7.37,7.37,0,0,1-1,3.63,2.66,2.66,0,0,1-2.29,1.29,3.91,3.91,0,0,1-1.28-.22c-.41-.15-.92-.38-1.53-.67L28,43.15c-.35-.18-.63-.32-.83-.4a1.94,1.94,0,0,0-.7-.13,1.47,1.47,0,0,0-1.18.6,2.28,2.28,0,0,0-.49,1.46,2,2,0,0,0,.21,1,2.46,2.46,0,0,0,.68.75,8.64,8.64,0,0,0,2.8,1.39,10.53,10.53,0,0,0,3.18.5A7.47,7.47,0,0,0,36,47a8,8,0,0,0,2.86-3.57,13.39,13.39,0,0,0,1-5.43c0-3.15-.72-5.58-2.14-7.28A7.46,7.46,0,0,0,31.63,28.2Zm.31,9.2a2.19,2.19,0,0,1-1.74-.71,3.24,3.24,0,0,1,0-3.85,2.2,2.2,0,0,1,1.73-.72,2.22,2.22,0,0,1,1.72.73,2.78,2.78,0,0,1,.67,1.91,2.75,2.75,0,0,1-.66,1.92A2.21,2.21,0,0,1,31.94,37.4ZM44,41.71H54.31a1.6,1.6,0,0,0,1.17-.49A1.65,1.65,0,0,0,56,40a1.61,1.61,0,0,0-1.64-1.64H44a1.53,1.53,0,0,0-1.17.49,1.59,1.59,0,0,0-.47,1.18A1.62,1.62,0,0,0,44,41.71Zm5-5.23A1.66,1.66,0,0,0,50.29,36a1.8,1.8,0,0,0,0-2.53,1.79,1.79,0,0,0-2.51,0,1.71,1.71,0,0,0-.5,1.27,1.74,1.74,0,0,0,.5,1.27A1.62,1.62,0,0,0,49,36.48Zm0,10.73a1.79,1.79,0,0,0,1.78-1.78,1.74,1.74,0,0,0-.52-1.28A1.68,1.68,0,0,0,49,43.63a1.65,1.65,0,0,0-1.25.52,1.76,1.76,0,0,0-.5,1.28,1.74,1.74,0,0,0,.5,1.27A1.67,1.67,0,0,0,49,47.21ZM69.21,38a4.52,4.52,0,0,0,2.2-1.69,4.61,4.61,0,0,0,.8-2.68,4.87,4.87,0,0,0-.85-2.83,5.39,5.39,0,0,0-2.42-1.89,9.11,9.11,0,0,0-3.63-.67,11.27,11.27,0,0,0-3.29.5,9.29,9.29,0,0,0-2.82,1.39,2.19,2.19,0,0,0-.67.75,2.15,2.15,0,0,0-.19,1,2.3,2.3,0,0,0,.47,1.46,1.45,1.45,0,0,0,1.17.6,1.67,1.67,0,0,0,.69-.13,7.24,7.24,0,0,0,.84-.4l.58-.28a14.94,14.94,0,0,1,1.52-.66,4.09,4.09,0,0,1,1.45-.25,2.39,2.39,0,0,1,1.7.57,2.06,2.06,0,0,1,.61,1.59,1.56,1.56,0,0,1-.69,1.42,4.25,4.25,0,0,1-2.23.45H63.23a1.59,1.59,0,0,0-1.31.58,2.29,2.29,0,0,0,0,2.78,1.59,1.59,0,0,0,1.31.58H65a4.11,4.11,0,0,1,2.28.48,1.72,1.72,0,0,1,.7,1.55,1.94,1.94,0,0,1-.68,1.67,3.9,3.9,0,0,1-2.24.5,5,5,0,0,1-1.6-.24,11.5,11.5,0,0,1-1.6-.68l-.34-.15-.27-.13c-.35-.18-.63-.32-.83-.4a1.94,1.94,0,0,0-.7-.12,1.44,1.44,0,0,0-1.16.59A2.27,2.27,0,0,0,58,44.65a2,2,0,0,0,.86,1.73,8.94,8.94,0,0,0,2.89,1.4,12.56,12.56,0,0,0,3.48.49,10.5,10.5,0,0,0,3.93-.68,5.86,5.86,0,0,0,2.6-1.94,4.83,4.83,0,0,0,.92-2.94,4.92,4.92,0,0,0-.93-3A4.67,4.67,0,0,0,69.21,38Zm10,13.53a19,19,0,0,0,3.11-10.76,18.91,18.91,0,0,0-3.11-10.81,3.42,3.42,0,0,0-1.13-1.14,2.43,2.43,0,0,0-1.26-.39,1.54,1.54,0,0,0-1.1.41,1.42,1.42,0,0,0-.43,1.1,2.69,2.69,0,0,0,.19,1,24.57,24.57,0,0,1,1.37,4.76,30.46,30.46,0,0,1,.41,5.1,29.42,29.42,0,0,1-.41,5.05,26.39,26.39,0,0,1-1.37,4.77,2.61,2.61,0,0,0-.19,1,1.43,1.43,0,0,0,.43,1.1,1.54,1.54,0,0,0,1.07.4,2.48,2.48,0,0,0,1.29-.39A3.42,3.42,0,0,0,79.24,51.49ZM38.05,75.87h5.23A2.54,2.54,0,0,0,45,75.35a1.82,1.82,0,0,0,.57-1.43A1.8,1.8,0,0,0,45,72.5a2.59,2.59,0,0,0-1.73-.5H38.05q-2.31,0-2.31,1.92T38.05,75.87Zm20.68-4.56a4.58,4.58,0,0,0,2.21-1.68,4.63,4.63,0,0,0,.79-2.69,4.8,4.8,0,0,0-.85-2.83,5.33,5.33,0,0,0-2.42-1.89,9.06,9.06,0,0,0-3.62-.67,11.34,11.34,0,0,0-3.3.5,9.52,9.52,0,0,0-2.82,1.39,2.26,2.26,0,0,0-.66.75,2.18,2.18,0,0,0-.2,1,2.28,2.28,0,0,0,.47,1.46,1.45,1.45,0,0,0,1.17.6,1.94,1.94,0,0,0,.7-.12c.2-.09.48-.22.83-.41l.58-.27a15.2,15.2,0,0,1,1.52-.67,4.11,4.11,0,0,1,1.46-.25,2.38,2.38,0,0,1,1.69.57,2.07,2.07,0,0,1,.61,1.6,1.55,1.55,0,0,1-.69,1.41,4.21,4.21,0,0,1-2.22.45H52.75a1.57,1.57,0,0,0-1.3.58,2.25,2.25,0,0,0,0,2.78,1.58,1.58,0,0,0,1.3.59h1.73a4.11,4.11,0,0,1,2.27.47,1.72,1.72,0,0,1,.7,1.55,1.94,1.94,0,0,1-.68,1.67,3.9,3.9,0,0,1-2.24.5,5.33,5.33,0,0,1-1.6-.23,13.07,13.07,0,0,1-1.6-.69L51,76.6l-.27-.12c-.35-.19-.63-.32-.83-.41A1.88,1.88,0,0,0,49.2,76a1.42,1.42,0,0,0-1.17.6A2.23,2.23,0,0,0,47.56,78a2.12,2.12,0,0,0,.19.95,2.15,2.15,0,0,0,.67.77,8.84,8.84,0,0,0,2.89,1.4,12.13,12.13,0,0,0,3.47.49,10.5,10.5,0,0,0,3.93-.68A5.92,5.92,0,0,0,61.31,79a5.29,5.29,0,0,0,0-6A4.72,4.72,0,0,0,58.73,71.31Z"/></svg>