<svg id="Layer_1" data-name="Layer 1" xmlns="http://www.w3.org/2000/svg" viewBox="0 0 100 100"><title>l5_3_1</title><path d="M83.36,100H16.29A16.47,16.47,0,0,1-.18,83.53V16.47A16.47,16.47,0,0,1,16.29,0H83.36A16.46,16.46,0,0,1,99.82,16.47V83.53A16.46,16.46,0,0,1,83.36,100ZM26.42,44.65a8.3,8.3,0,0,0-3.64.8,6.81,6.81,0,0,0-2.64,2.17A11.42,11.42,0,0,1,21.75,42a4.1,4.1,0,0,1,3.55-2,5.81,5.81,0,0,1,2,.34c.63.23,1.41.57,2.36,1l.95.48c.54.28,1,.49,1.29.62a2.76,2.76,0,0,0,1.07.19,2.29,2.29,0,0,0,1.83-.92,3.48,3.48,0,0,0,.75-2.26,3.2,3.2,0,0,0-.32-1.5,3.88,3.88,0,0,0-1.05-1.17,14,14,0,0,0-4.33-2.15,16.8,16.8,0,0,0-4.92-.77,11.67,11.67,0,0,0-6.69,1.94,12.51,12.51,0,0,0-4.42,5.52,20.79,20.79,0,0,0-1.58,8.41q0,7.31,3.32,11.26t9.37,4a11,11,0,0,0,5.46-1.33,9.54,9.54,0,0,0,3.76-3.72,10.67,10.67,0,0,0,1.36-5.4,11,11,0,0,0-1.18-5.1,8.91,8.91,0,0,0-3.25-3.52A8.67,8.67,0,0,0,26.42,44.65Zm-2,14.28a3.44,3.44,0,0,1-2.67-1.14,4.21,4.21,0,0,1-1-2.95,4.29,4.29,0,0,1,1-3,3.46,3.46,0,0,1,2.69-1.11,3.42,3.42,0,0,1,2.69,1.09,4.38,4.38,0,0,1,1,3,4.33,4.33,0,0,1-1,3A3.4,3.4,0,0,1,24.44,58.93Zm17.5-4.13H57.85a2.41,2.41,0,0,0,1.8-.75,2.53,2.53,0,0,0,.73-1.83,2.49,2.49,0,0,0-2.53-2.54H41.94a2.43,2.43,0,0,0-1.81.75,2.54,2.54,0,0,0-.73,1.83,2.49,2.49,0,0,0,2.54,2.54Zm7.74-8.09a2.63,2.63,0,0,0,2-.81,2.76,2.76,0,0,0,.8-2,2.7,2.7,0,0,0-.8-1.94,2.63,2.63,0,0,0-2-.81,2.59,2.59,0,0,0-1.94.79,2.73,2.73,0,0,0-.77,2,2.81,2.81,0,0,0,.77,2A2.57,2.57,0,0,0,49.68,46.71Zm0,16.6a2.63,2.63,0,0,0,2-.81,2.7,2.7,0,0,0,.8-1.94,2.76,2.76,0,0,0-.8-2,2.63,2.63,0,0,0-2-.81,2.57,2.57,0,0,0-1.94.81,2.81,2.81,0,0,0-.77,2,2.73,2.73,0,0,0,.77,2A2.59,2.59,0,0,0,49.68,63.31ZM80.9,49a6.9,6.9,0,0,0,3.41-2.6,7.13,7.13,0,0,0,1.23-4.15,7.52,7.52,0,0,0-1.31-4.38,8.47,8.47,0,0,0-3.74-2.93,14.21,14.21,0,0,0-5.61-1,17.47,17.47,0,0,0-5.1.77,14.44,14.44,0,0,0-4.36,2.15,3.47,3.47,0,0,0-1,1.17,3.34,3.34,0,0,0-.3,1.5,3.58,3.58,0,0,0,.73,2.26,2.24,2.24,0,0,0,1.81.92,2.85,2.85,0,0,0,1.08-.19c.31-.13.74-.34,1.28-.62l.91-.43a24.11,24.11,0,0,1,2.34-1A6.7,6.7,0,0,1,74.49,40a3.68,3.68,0,0,1,2.62.88,3.22,3.22,0,0,1,1,2.47A2.4,2.4,0,0,1,77,45.55a6.54,6.54,0,0,1-3.44.69H71.65a2.46,2.46,0,0,0-2,.9,3.31,3.31,0,0,0-.73,2.15,3.28,3.28,0,0,0,.73,2.15,2.44,2.44,0,0,0,2,.91h2.67a6.41,6.41,0,0,1,3.52.73,2.7,2.7,0,0,1,1.08,2.41,3,3,0,0,1-1.06,2.58,6,6,0,0,1-3.46.77,7.87,7.87,0,0,1-2.47-.36,20.32,20.32,0,0,1-2.47-1.06l-.54-.23-.41-.2c-.54-.28-1-.49-1.29-.62a2.76,2.76,0,0,0-1.07-.2,2.22,2.22,0,0,0-1.81.93,3.52,3.52,0,0,0-.73,2.26A3,3,0,0,0,64.94,62a13.79,13.79,0,0,0,4.47,2.17,18.86,18.86,0,0,0,5.38.76,16,16,0,0,0,6.08-1.06,9,9,0,0,0,4-3,7.45,7.45,0,0,0,1.42-4.55,7.63,7.63,0,0,0-1.44-4.69A7.32,7.32,0,0,0,80.9,49Z"/></svg>