<svg id="Layer_1" data-name="Layer 1" xmlns="http://www.w3.org/2000/svg" viewBox="0 0 100 100"><title>l5_3_1</title><path d="M83.53,100.22H16.47A16.47,16.47,0,0,1,0,83.75V16.69A16.47,16.47,0,0,1,16.47.22H83.53A16.47,16.47,0,0,1,100,16.69V83.75A16.47,16.47,0,0,1,83.53,100.22Zm-53-51a6.46,6.46,0,0,0,3.37-2.53,7.47,7.47,0,0,0,1.23-4.3,7.12,7.12,0,0,0-3-6c-2-1.48-4.71-2.22-8.15-2.22a13.42,13.42,0,0,0-8.13,2.22,7.11,7.11,0,0,0-3,6,7.27,7.27,0,0,0,1.21,4.19,7,7,0,0,0,3.44,2.64,7.23,7.23,0,0,0-4.05,2.56A7.62,7.62,0,0,0,12,56.48a7.43,7.43,0,0,0,3.21,6.39q3.2,2.3,8.75,2.3c3.7,0,6.61-.77,8.75-2.3a7.58,7.58,0,0,0-2.21-13.66ZM24,59.19q-4.69,0-4.69-3.35T24,52.48c3.12,0,4.69,1.12,4.69,3.36S27.11,59.19,24,59.19ZM24,40.1a4.59,4.59,0,0,1,2.88.75,2.92,2.92,0,0,1,.95,2.43,3,3,0,0,1-.95,2.45,4.46,4.46,0,0,1-2.88.78,4.46,4.46,0,0,1-2.88-.78,3,3,0,0,1-.95-2.45,2.92,2.92,0,0,1,.95-2.43A4.59,4.59,0,0,1,24,40.1ZM42.09,55H58a2.43,2.43,0,0,0,1.81-.75,2.55,2.55,0,0,0,.73-1.83A2.49,2.49,0,0,0,58,49.9H42.09a2.43,2.43,0,0,0-1.81.75,2.59,2.59,0,0,0-.73,1.83,2.49,2.49,0,0,0,.73,1.81A2.45,2.45,0,0,0,42.09,55Zm7.74-8.08a2.64,2.64,0,0,0,2-.82,2.75,2.75,0,0,0,.79-2,2.67,2.67,0,0,0-.79-1.93,2.6,2.6,0,0,0-2-.82,2.57,2.57,0,0,0-1.93.79,2.7,2.7,0,0,0-.78,2,2.78,2.78,0,0,0,.78,2A2.56,2.56,0,0,0,49.83,46.94Zm0,16.59a2.63,2.63,0,0,0,2-.81,2.69,2.69,0,0,0,.79-1.94,2.75,2.75,0,0,0-.79-2,2.63,2.63,0,0,0-2-.81,2.55,2.55,0,0,0-1.93.81,2.78,2.78,0,0,0-.78,2,2.68,2.68,0,0,0,.78,2A2.57,2.57,0,0,0,49.83,63.53Zm33.76-5H74.94l6.11-6.24a20.11,20.11,0,0,0,3.59-4.84,10.82,10.82,0,0,0,1-4.79,7.87,7.87,0,0,0-1.31-4.5,8.42,8.42,0,0,0-3.72-3,13.87,13.87,0,0,0-5.59-1.05,17.6,17.6,0,0,0-9.5,2.93,2.73,2.73,0,0,0-1,1.11A4.15,4.15,0,0,0,65,42a2.17,2.17,0,0,0,1.8,1,2.47,2.47,0,0,0,.82-.13,5.12,5.12,0,0,0,.88-.41c.33-.18.55-.31.67-.36l.86-.43a21.48,21.48,0,0,1,2.43-1.06,7.07,7.07,0,0,1,2.3-.36,3.39,3.39,0,0,1,2.38.77A2.9,2.9,0,0,1,78,43.24c0,1.66-.94,3.48-2.84,5.46L66,58.2a4.7,4.7,0,0,0-1.46,3.36,3.13,3.13,0,0,0,3.35,3.26h15.7a4.27,4.27,0,0,0,2.81-.77,3,3,0,0,0,.93-2.41,2.83,2.83,0,0,0-.93-2.34A4.39,4.39,0,0,0,83.59,58.55Z"/></svg>