<svg id="Layer_1" data-name="Layer 1" xmlns="http://www.w3.org/2000/svg" viewBox="0 0 100 100"><title>l5_3_1</title><path d="M83.55,100.44H16.48A16.47,16.47,0,0,1,0,84V16.91A16.47,16.47,0,0,1,16.48.44H83.55A16.46,16.46,0,0,1,100,16.91V84A16.46,16.46,0,0,1,83.55,100.44ZM33.25,53.91h-1V38.38a3.67,3.67,0,0,0-1.16-2.88,4,4,0,0,0-2.79-1,4.36,4.36,0,0,0-1.92.45,4.1,4.1,0,0,0-1.53,1.31L12.61,53.78a4.82,4.82,0,0,0-.95,2.84,3.29,3.29,0,0,0,.9,2.36,3.25,3.25,0,0,0,2.46,1H24.6v1.46a3.79,3.79,0,0,0,1.06,2.92,3.87,3.87,0,0,0,2.77,1,4,4,0,0,0,2.8-1,3.79,3.79,0,0,0,1.07-2.92V59.93h1q3.73,0,3.74-3.06T33.25,53.91Zm-13.81,0,5.16-7.44v7.44Zm22.67,1.33H58a2.43,2.43,0,0,0,1.81-.75,2.51,2.51,0,0,0,.73-1.83,2.45,2.45,0,0,0-.73-1.81A2.49,2.49,0,0,0,58,50.12H42.11a2.4,2.4,0,0,0-1.81.76,2.5,2.5,0,0,0-.73,1.82,2.49,2.49,0,0,0,2.54,2.54Zm7.73-8.08a2.64,2.64,0,0,0,2-.82,2.76,2.76,0,0,0,.8-2,2.68,2.68,0,0,0-.8-1.93,2.75,2.75,0,0,0-3.89,0,2.71,2.71,0,0,0-.77,2,2.77,2.77,0,0,0,.77,2A2.58,2.58,0,0,0,49.84,47.16Zm0,16.59a2.63,2.63,0,0,0,2-.81A2.7,2.7,0,0,0,52.6,61a2.76,2.76,0,0,0-.8-2,2.63,2.63,0,0,0-2-.81,2.57,2.57,0,0,0-1.93.81,2.77,2.77,0,0,0-.77,2,2.68,2.68,0,0,0,.77,2A2.59,2.59,0,0,0,49.84,63.75Zm33.76-5H75l6.1-6.24a20.11,20.11,0,0,0,3.59-4.84,10.69,10.69,0,0,0,1.06-4.79,7.9,7.9,0,0,0-1.31-4.49,8.4,8.4,0,0,0-3.72-3,13.73,13.73,0,0,0-5.59-1.06,16.71,16.71,0,0,0-5,.78,16.53,16.53,0,0,0-4.54,2.15,2.87,2.87,0,0,0-1,1.11A4.15,4.15,0,0,0,65,42.23a2.19,2.19,0,0,0,1.81,1,2.41,2.41,0,0,0,.81-.13,5.12,5.12,0,0,0,.88-.41l.67-.36.86-.43a22.29,22.29,0,0,1,2.43-1.06,7.07,7.07,0,0,1,2.3-.36,3.43,3.43,0,0,1,2.39.77A2.9,2.9,0,0,1,78,43.46q0,2.49-2.84,5.46L66,58.42a4.74,4.74,0,0,0-1.46,3.36,3.23,3.23,0,0,0,.9,2.34A3.26,3.26,0,0,0,67.9,65H83.6a4.31,4.31,0,0,0,2.82-.77,3,3,0,0,0,.92-2.41,2.85,2.85,0,0,0-.92-2.34A4.44,4.44,0,0,0,83.6,58.77Z"/></svg>