<svg id="Layer_1" data-name="Layer 1" xmlns="http://www.w3.org/2000/svg" viewBox="0 0 100 100"><title>l5_3_1</title><path d="M83.53,100H16.47A16.47,16.47,0,0,1,0,83.53V16.47A16.47,16.47,0,0,1,16.47,0H83.53A16.47,16.47,0,0,1,100,16.47V83.53A16.47,16.47,0,0,1,83.53,100Zm-71-53.52a3.4,3.4,0,0,0,1.12,1.14A2.49,2.49,0,0,0,15,48a1.55,1.55,0,0,0,1.1-.4,1.47,1.47,0,0,0,.43-1.1,2.63,2.63,0,0,0-.2-1,26.1,26.1,0,0,1-1.36-4.77,28.38,28.38,0,0,1-.42-5,29.24,29.24,0,0,1,.42-5.1,24.42,24.42,0,0,1,1.36-4.77,2.67,2.67,0,0,0,.2-1,1.51,1.51,0,0,0-.43-1.13,1.55,1.55,0,0,0-1.1-.4,2.42,2.42,0,0,0-1.27.4,3.47,3.47,0,0,0-1.12,1.16A18.8,18.8,0,0,0,9.44,35.73,18.9,18.9,0,0,0,12.56,46.48ZM30.35,33a4.23,4.23,0,0,0,2.18-1.64,4.83,4.83,0,0,0,.79-2.78,4.61,4.61,0,0,0-1.93-3.91,8.72,8.72,0,0,0-5.27-1.43,8.69,8.69,0,0,0-5.25,1.43,4.6,4.6,0,0,0-1.95,3.91,4.72,4.72,0,0,0,.78,2.71A4.58,4.58,0,0,0,21.92,33a4.56,4.56,0,0,0-2.61,1.65,4.91,4.91,0,0,0-.92,3,4.8,4.8,0,0,0,2.07,4.13,9.57,9.57,0,0,0,5.66,1.49,9.55,9.55,0,0,0,5.66-1.49A4.9,4.9,0,0,0,30.35,33ZM26.12,39.4c-2,0-3-.73-3-2.17s1-2.17,3-2.17,3,.72,3,2.17S28.14,39.4,26.12,39.4Zm0-12.34a3,3,0,0,1,1.86.48,1.89,1.89,0,0,1,.61,1.57A2,2,0,0,1,28,30.7a2.93,2.93,0,0,1-1.86.5,2.93,2.93,0,0,1-1.86-.5,2,2,0,0,1-.61-1.59,1.89,1.89,0,0,1,.61-1.57A3,3,0,0,1,26.12,27.06Zm11.7,9.64H48.1a1.53,1.53,0,0,0,1.17-.49,1.65,1.65,0,0,0-1.17-2.82H37.82a1.56,1.56,0,0,0-1.17.49,1.65,1.65,0,0,0-.47,1.18,1.61,1.61,0,0,0,1.64,1.64Zm5-5.23A1.7,1.7,0,0,0,44.09,31a1.79,1.79,0,0,0,.51-1.28,1.74,1.74,0,0,0-.51-1.25,1.79,1.79,0,0,0-2.52,0,1.78,1.78,0,0,0-.5,1.27,1.82,1.82,0,0,0,.5,1.28A1.66,1.66,0,0,0,42.82,31.47Zm0,10.73a1.68,1.68,0,0,0,1.27-.53,1.72,1.72,0,0,0,.51-1.25,1.75,1.75,0,0,0-.51-1.27,1.68,1.68,0,0,0-1.27-.53,1.63,1.63,0,0,0-1.25.53,1.86,1.86,0,0,0,0,2.54A1.69,1.69,0,0,0,42.82,42.2Zm22.63-6.36h-.61v-10a2.38,2.38,0,0,0-.75-1.86,2.67,2.67,0,0,0-1.81-.67,2.73,2.73,0,0,0-1.24.3,2.41,2.41,0,0,0-1,.84l-8,11.34a3.12,3.12,0,0,0-.61,1.84,2,2,0,0,0,2.16,2.14h6.2v.94a2.47,2.47,0,0,0,.68,1.89,2.85,2.85,0,0,0,3.6,0,2.44,2.44,0,0,0,.7-1.89v-.94h.61c1.61,0,2.42-.66,2.42-2S67.06,35.84,65.45,35.84Zm-8.92,0L59.86,31v4.81ZM73,46.48a19,19,0,0,0,3.11-10.75A18.87,18.87,0,0,0,73,24.92a3.42,3.42,0,0,0-1.13-1.14,2.49,2.49,0,0,0-1.27-.39,1.51,1.51,0,0,0-1.09.4,1.42,1.42,0,0,0-.43,1.1,2.65,2.65,0,0,0,.19,1,24.42,24.42,0,0,1,1.36,4.77,29.24,29.24,0,0,1,.42,5.1,28.38,28.38,0,0,1-.42,5,26.1,26.1,0,0,1-1.36,4.77,2.61,2.61,0,0,0-.19,1,1.43,1.43,0,0,0,.43,1.1,1.48,1.48,0,0,0,1.07.4,2.53,2.53,0,0,0,1.29-.39A3.52,3.52,0,0,0,73,46.48Zm9.42-9h5.22A2.55,2.55,0,0,0,89.42,37,1.82,1.82,0,0,0,90,35.56a1.8,1.8,0,0,0-.57-1.42,2.6,2.6,0,0,0-1.74-.5H82.46q-2.31,0-2.31,1.92T82.46,37.51ZM18.76,79.83A3.4,3.4,0,0,0,19.88,81a2.49,2.49,0,0,0,1.27.39,1.51,1.51,0,0,0,1.09-.4,1.42,1.42,0,0,0,.44-1.1,2.67,2.67,0,0,0-.2-1,26.1,26.1,0,0,1-1.36-4.77,28.3,28.3,0,0,1-.42-5,29.24,29.24,0,0,1,.42-5.1,24.62,24.62,0,0,1,1.36-4.77,2.67,2.67,0,0,0,.2-1,1.48,1.48,0,0,0-.44-1.13,1.56,1.56,0,0,0-1.09-.4,2.51,2.51,0,0,0-1.27.4,3.56,3.56,0,0,0-1.12,1.16,18.82,18.82,0,0,0-3.12,10.81A18.88,18.88,0,0,0,18.76,79.83ZM31.62,56.54a7.13,7.13,0,0,0-3.53.87,6.23,6.23,0,0,0-2.43,2.4,7.47,7.47,0,0,0-.11,6.78,5.78,5.78,0,0,0,2.1,2.28,5.59,5.59,0,0,0,3,.82A5.39,5.39,0,0,0,33,69.18a4.48,4.48,0,0,0,1.71-1.41,7.41,7.41,0,0,1-1,3.63,2.67,2.67,0,0,1-2.3,1.29,3.61,3.61,0,0,1-1.27-.22,16.08,16.08,0,0,1-1.53-.67L28,71.5c-.36-.19-.63-.32-.84-.41a1.85,1.85,0,0,0-.69-.12,1.45,1.45,0,0,0-1.18.6A2.19,2.19,0,0,0,24.76,73,2,2,0,0,0,25,74a2.34,2.34,0,0,0,.68.75,9.11,9.11,0,0,0,2.79,1.39,11,11,0,0,0,3.18.5A7.6,7.6,0,0,0,36,75.39a8.2,8.2,0,0,0,2.86-3.57,13.61,13.61,0,0,0,1-5.44c0-3.15-.71-5.57-2.14-7.28A7.46,7.46,0,0,0,31.62,56.54Zm.31,9.2A2.18,2.18,0,0,1,30.19,65a2.83,2.83,0,0,1-.62-1.93,2.76,2.76,0,0,1,.64-1.91,2.15,2.15,0,0,1,1.72-.73,2.22,2.22,0,0,1,1.72.74,2.69,2.69,0,0,1,.67,1.9A2.77,2.77,0,0,1,33.67,65,2.25,2.25,0,0,1,31.93,65.74ZM44,70.05H54.3a1.53,1.53,0,0,0,1.17-.49,1.59,1.59,0,0,0,.47-1.18,1.62,1.62,0,0,0-1.64-1.64H44a1.6,1.6,0,0,0-1.17.49,1.65,1.65,0,0,0-.47,1.18,1.61,1.61,0,0,0,.47,1.17A1.62,1.62,0,0,0,44,70.05Zm5-5.22a1.73,1.73,0,0,0,1.27-.53A1.77,1.77,0,0,0,50.8,63,1.78,1.78,0,0,0,49,61.24a1.67,1.67,0,0,0-1.25.51,1.78,1.78,0,0,0-.5,1.27,1.81,1.81,0,0,0,.5,1.28A1.65,1.65,0,0,0,49,64.83Zm0,10.72A1.72,1.72,0,0,0,50.29,75a1.75,1.75,0,0,0,.51-1.25,1.77,1.77,0,0,0-.51-1.28A1.73,1.73,0,0,0,49,72a1.65,1.65,0,0,0-1.25.53,1.81,1.81,0,0,0-.5,1.28,1.74,1.74,0,0,0,.5,1.26A1.67,1.67,0,0,0,49,75.55ZM69.2,66.3a4.52,4.52,0,0,0,2.21-1.68,4.6,4.6,0,0,0,.79-2.68,4.83,4.83,0,0,0-.85-2.84,5.5,5.5,0,0,0-2.41-1.89,9.33,9.33,0,0,0-3.63-.67A11.22,11.22,0,0,0,62,57a9.46,9.46,0,0,0-2.83,1.39,2.26,2.26,0,0,0-.66.75,2.19,2.19,0,0,0-.2,1,2.27,2.27,0,0,0,.48,1.46,1.44,1.44,0,0,0,1.16.59,1.94,1.94,0,0,0,.7-.12c.2-.09.48-.22.83-.4l.59-.28a15.12,15.12,0,0,1,1.51-.67,4.11,4.11,0,0,1,1.46-.25,2.37,2.37,0,0,1,1.69.57,2.07,2.07,0,0,1,.62,1.6,1.58,1.58,0,0,1-.7,1.42,4.3,4.3,0,0,1-2.22.44H63.23a1.58,1.58,0,0,0-1.31.58,2.29,2.29,0,0,0,0,2.78,1.59,1.59,0,0,0,1.31.59H65a4.17,4.17,0,0,1,2.28.47,1.74,1.74,0,0,1,.69,1.56,1.93,1.93,0,0,1-.68,1.66,3.8,3.8,0,0,1-2.24.5,4.92,4.92,0,0,1-1.59-.23,13.11,13.11,0,0,1-1.6-.68l-.35-.16-.26-.12a8.11,8.11,0,0,0-.84-.4,1.67,1.67,0,0,0-.69-.13,1.42,1.42,0,0,0-1.17.6A2.24,2.24,0,0,0,58,73a2.19,2.19,0,0,0,.19,1,2.13,2.13,0,0,0,.67.76,8.84,8.84,0,0,0,2.89,1.4,12.13,12.13,0,0,0,3.47.49,10.59,10.59,0,0,0,3.94-.68A5.81,5.81,0,0,0,71.78,74a4.82,4.82,0,0,0,.92-3,5,5,0,0,0-.93-3A4.72,4.72,0,0,0,69.2,66.3Zm10,13.53a18.88,18.88,0,0,0,3.12-10.75,18.82,18.82,0,0,0-3.12-10.81,3.4,3.4,0,0,0-1.12-1.14,2.49,2.49,0,0,0-1.27-.39,1.51,1.51,0,0,0-1.09.4,1.44,1.44,0,0,0-.44,1.1,2.67,2.67,0,0,0,.2,1A24.62,24.62,0,0,1,76.87,64a29.24,29.24,0,0,1,.42,5.1,28.3,28.3,0,0,1-.42,5,26.1,26.1,0,0,1-1.36,4.77,2.67,2.67,0,0,0-.2,1,1.42,1.42,0,0,0,.44,1.1,1.48,1.48,0,0,0,1.07.4A2.53,2.53,0,0,0,78.11,81,3.4,3.4,0,0,0,79.23,79.83Z"/></svg>