<svg id="Layer_1" data-name="Layer 1" xmlns="http://www.w3.org/2000/svg" viewBox="0 0 100 100"><title>l5_3_1</title><path d="M83.34,99.78H16.28A16.47,16.47,0,0,1-.19,83.31V16.25A16.47,16.47,0,0,1,16.28-.22H83.34A16.47,16.47,0,0,1,99.81,16.25V83.31A16.47,16.47,0,0,1,83.34,99.78Zm-57-55.35a8.26,8.26,0,0,0-3.63.8A6.77,6.77,0,0,0,20.1,47.4a11.42,11.42,0,0,1,1.61-5.61,4.12,4.12,0,0,1,3.55-2,5.72,5.72,0,0,1,2,.34,25.17,25.17,0,0,1,2.36,1l.95.47a14.27,14.27,0,0,0,1.29.63,2.81,2.81,0,0,0,1.08.19,2.29,2.29,0,0,0,1.82-.92,3.49,3.49,0,0,0,.76-2.26,3.15,3.15,0,0,0-.33-1.51,3.71,3.71,0,0,0-1.05-1.16,13.87,13.87,0,0,0-4.32-2.15,16.9,16.9,0,0,0-4.92-.77,11.62,11.62,0,0,0-6.69,1.93,12.56,12.56,0,0,0-4.43,5.53,20.79,20.79,0,0,0-1.57,8.41q0,7.31,3.31,11.26t9.38,4a11.2,11.2,0,0,0,5.46-1.33,9.61,9.61,0,0,0,3.76-3.72,11.54,11.54,0,0,0,.17-10.5A8.85,8.85,0,0,0,31,45.7,8.62,8.62,0,0,0,26.38,44.43Zm-2,14.28a3.41,3.41,0,0,1-2.66-1.14,4.23,4.23,0,0,1-1-3,4.29,4.29,0,0,1,1-3,3.47,3.47,0,0,1,2.69-1.11,3.4,3.4,0,0,1,2.69,1.09,4.39,4.39,0,0,1,1,3,4.33,4.33,0,0,1-1,3A3.41,3.41,0,0,1,24.4,58.71Zm17.5-4.13H57.81a2.43,2.43,0,0,0,1.81-.75A2.54,2.54,0,0,0,60.35,52a2.49,2.49,0,0,0-2.54-2.54H41.9a2.41,2.41,0,0,0-1.8.75A2.53,2.53,0,0,0,39.37,52a2.49,2.49,0,0,0,2.53,2.54Zm7.74-8.09a2.63,2.63,0,0,0,2-.81,2.75,2.75,0,0,0,.79-2,2.69,2.69,0,0,0-.79-1.94,2.63,2.63,0,0,0-2-.81,2.57,2.57,0,0,0-1.93.79,2.68,2.68,0,0,0-.78,2,2.78,2.78,0,0,0,.78,2A2.55,2.55,0,0,0,49.64,46.49Zm0,16.6a2.6,2.6,0,0,0,2-.82,2.65,2.65,0,0,0,.79-1.93,2.75,2.75,0,0,0-.79-2,2.64,2.64,0,0,0-2-.82,2.56,2.56,0,0,0-1.93.82,2.78,2.78,0,0,0-.78,2,2.7,2.7,0,0,0,.78,2A2.57,2.57,0,0,0,49.64,63.09Zm33.76-5H74.75l6.11-6.23A20.11,20.11,0,0,0,84.45,47a10.85,10.85,0,0,0,1-4.79,7.87,7.87,0,0,0-1.31-4.5,8.42,8.42,0,0,0-3.72-3,13.87,13.87,0,0,0-5.59-1,17.48,17.48,0,0,0-9.5,2.92,2.81,2.81,0,0,0-1,1.12,4.15,4.15,0,0,0,.45,3.85,2.18,2.18,0,0,0,1.8,1,2.76,2.76,0,0,0,.82-.13,5.12,5.12,0,0,0,.88-.41l.67-.37.86-.42a22.29,22.29,0,0,1,2.43-1.06,7.07,7.07,0,0,1,2.3-.36,3.39,3.39,0,0,1,2.39.77,2.93,2.93,0,0,1,.83,2.24q0,2.49-2.83,5.46l-9.12,9.5a4.72,4.72,0,0,0-1.46,3.35,3.24,3.24,0,0,0,.9,2.35,3.29,3.29,0,0,0,2.45.92H83.4a4.32,4.32,0,0,0,2.81-.77,3,3,0,0,0,.93-2.41,2.83,2.83,0,0,0-.93-2.34A4.33,4.33,0,0,0,83.4,58.1Z"/></svg>