<svg id="Layer_1" data-name="Layer 1" xmlns="http://www.w3.org/2000/svg" viewBox="0 0 100 100"><title>l5_3_1</title><path d="M83.55,100H16.48A16.47,16.47,0,0,1,0,83.53V16.47A16.47,16.47,0,0,1,16.48,0H83.55A16.46,16.46,0,0,1,100,16.47V83.53A16.46,16.46,0,0,1,83.55,100ZM19.76,51.05a3.42,3.42,0,0,0,1.13,1.14,2.43,2.43,0,0,0,1.26.39,1.54,1.54,0,0,0,1.1-.41,1.39,1.39,0,0,0,.43-1.09,2.93,2.93,0,0,0-.19-1,25.51,25.51,0,0,1-1.37-4.76,28.45,28.45,0,0,1-.41-5.05,29.44,29.44,0,0,1,.41-5.1,23.89,23.89,0,0,1,1.37-4.76,2.93,2.93,0,0,0,.19-1,1.45,1.45,0,0,0-.43-1.12,1.54,1.54,0,0,0-1.1-.41,2.38,2.38,0,0,0-1.26.41,3.55,3.55,0,0,0-1.13,1.15,18.91,18.91,0,0,0-3.11,10.81A19,19,0,0,0,19.76,51.05ZM37.55,37.51a4.18,4.18,0,0,0,2.18-1.64,4.79,4.79,0,0,0,.79-2.78,4.59,4.59,0,0,0-1.93-3.9,8.7,8.7,0,0,0-5.27-1.43,8.72,8.72,0,0,0-5.25,1.43,4.57,4.57,0,0,0-1.94,3.9,4.69,4.69,0,0,0,.77,2.71,4.56,4.56,0,0,0,2.23,1.71,4.68,4.68,0,0,0-2.62,1.66,4.88,4.88,0,0,0-.91,3,4.8,4.8,0,0,0,2.07,4.13,9.52,9.52,0,0,0,5.65,1.48A9.55,9.55,0,0,0,39,46.34a4.8,4.8,0,0,0,2.07-4.13,4.87,4.87,0,0,0-.9-3A4.93,4.93,0,0,0,37.55,37.51ZM33.32,44c-2,0-3-.72-3-2.17s1-2.16,3-2.16,3,.72,3,2.16S35.34,44,33.32,44Zm0-12.34a2.94,2.94,0,0,1,1.87.49,1.91,1.91,0,0,1,.61,1.57,1.94,1.94,0,0,1-.61,1.58,2.88,2.88,0,0,1-1.87.5,2.87,2.87,0,0,1-1.86-.5,1.91,1.91,0,0,1-.61-1.58,1.88,1.88,0,0,1,.61-1.57A2.93,2.93,0,0,1,33.32,31.62ZM45,41.27H55.31a1.6,1.6,0,0,0,1.17-.49A1.65,1.65,0,0,0,57,39.6,1.61,1.61,0,0,0,55.31,38H45a1.55,1.55,0,0,0-1.16.48,1.64,1.64,0,0,0-.48,1.19A1.64,1.64,0,0,0,45,41.27ZM50,36a1.69,1.69,0,0,0,1.26-.53,1.78,1.78,0,0,0,.52-1.28A1.76,1.76,0,0,0,51.29,33a1.79,1.79,0,0,0-2.51,0,1.7,1.7,0,0,0-.5,1.26,1.76,1.76,0,0,0,.5,1.28A1.65,1.65,0,0,0,50,36Zm0,10.73a1.69,1.69,0,0,0,1.26-.53A1.75,1.75,0,0,0,51.81,45a1.78,1.78,0,0,0-.52-1.28A1.69,1.69,0,0,0,50,43.18a1.65,1.65,0,0,0-1.25.53,1.76,1.76,0,0,0-.5,1.28,1.7,1.7,0,0,0,.5,1.26A1.65,1.65,0,0,0,50,46.77Zm21.81-3.23H66.26l3.95-4a13.18,13.18,0,0,0,2.32-3.12,7.08,7.08,0,0,0,.68-3.1,5.18,5.18,0,0,0-.85-2.91A5.47,5.47,0,0,0,70,28.44a9.06,9.06,0,0,0-3.62-.68,10.72,10.72,0,0,0-3.21.5,10.85,10.85,0,0,0-2.93,1.39,1.84,1.84,0,0,0-.68.72,2.39,2.39,0,0,0-.18,1,2.43,2.43,0,0,0,.47,1.49,1.43,1.43,0,0,0,1.17.62,1.59,1.59,0,0,0,.53-.08,4.37,4.37,0,0,0,.57-.26l.43-.24.55-.28a16.25,16.25,0,0,1,1.57-.68,4.48,4.48,0,0,1,1.49-.24,2.15,2.15,0,0,1,1.54.51,1.86,1.86,0,0,1,.54,1.44,5.41,5.41,0,0,1-1.83,3.53l-5.89,6.14a3.05,3.05,0,0,0-.95,2.17A2.06,2.06,0,0,0,60.12,47a2.08,2.08,0,0,0,1.58.6H71.84a2.78,2.78,0,0,0,1.83-.5,1.93,1.93,0,0,0,.59-1.55A1.87,1.87,0,0,0,73.67,44,2.9,2.9,0,0,0,71.84,43.54Zm8.43,7.51a19,19,0,0,0,3.11-10.76,18.91,18.91,0,0,0-3.11-10.81,3.42,3.42,0,0,0-1.13-1.14A2.46,2.46,0,0,0,77.88,28a1.53,1.53,0,0,0-1.1.41,1.39,1.39,0,0,0-.43,1.09,2.7,2.7,0,0,0,.19,1,23.85,23.85,0,0,1,1.36,4.76,29.41,29.41,0,0,1,.42,5.1,28.42,28.42,0,0,1-.42,5.05,25.46,25.46,0,0,1-1.36,4.76,2.7,2.7,0,0,0-.19,1,1.39,1.39,0,0,0,.43,1.09,1.49,1.49,0,0,0,1.07.41,2.5,2.5,0,0,0,1.29-.39A3.42,3.42,0,0,0,80.27,51.05ZM39.05,75.42h5.22A2.55,2.55,0,0,0,46,74.91a1.82,1.82,0,0,0,.57-1.43A1.79,1.79,0,0,0,46,72.06a2.6,2.6,0,0,0-1.74-.5H39.05q-2.31,0-2.31,1.92C36.74,74.78,37.51,75.42,39.05,75.42ZM61.37,76.9H55.78l3.95-4a13.21,13.21,0,0,0,2.32-3.13,7.08,7.08,0,0,0,.68-3.1,5,5,0,0,0-.85-2.9,5.43,5.43,0,0,0-2.4-2,9,9,0,0,0-3.62-.68,11.05,11.05,0,0,0-3.21.5A10.85,10.85,0,0,0,49.72,63a1.84,1.84,0,0,0-.68.72,2.7,2.7,0,0,0,.29,2.49,1.43,1.43,0,0,0,1.17.63,1.6,1.6,0,0,0,.53-.09,3,3,0,0,0,.57-.26l.43-.24.56-.28a14.36,14.36,0,0,1,1.57-.68,4.64,4.64,0,0,1,1.48-.23,2.15,2.15,0,0,1,1.54.5A1.83,1.83,0,0,1,57.73,67a5.38,5.38,0,0,1-1.84,3.53L50,76.67a3.07,3.07,0,0,0-1,2.17A2,2,0,0,0,51.22,81H61.37a2.76,2.76,0,0,0,1.82-.5,1.9,1.9,0,0,0,.6-1.55,1.85,1.85,0,0,0-.6-1.52A2.89,2.89,0,0,0,61.37,76.9Z"/></svg>