<svg id="Layer_1" data-name="Layer 1" xmlns="http://www.w3.org/2000/svg" viewBox="0 0 100 100"><title>l5_3_1</title><path d="M83.52,99.78H16.45A16.46,16.46,0,0,1,0,83.31V16.25A16.46,16.46,0,0,1,16.45-.22H83.52A16.47,16.47,0,0,1,100,16.25V83.31A16.47,16.47,0,0,1,83.52,99.78Zm-53-51a6.45,6.45,0,0,0,3.38-2.53,7.47,7.47,0,0,0,1.22-4.3,7.12,7.12,0,0,0-3-6A13.47,13.47,0,0,0,24,33.68a13.49,13.49,0,0,0-8.13,2.21,7.1,7.1,0,0,0-3,6,7.34,7.34,0,0,0,1.2,4.19,7.08,7.08,0,0,0,3.44,2.64,7.19,7.19,0,0,0-4,2.56A7.62,7.62,0,0,0,12,56a7.44,7.44,0,0,0,3.21,6.39q3.2,2.29,8.75,2.3t8.75-2.3a7.58,7.58,0,0,0-2.22-13.66ZM24,58.75q-4.69,0-4.69-3.35T24,52q4.68,0,4.68,3.36T24,58.75Zm0-19.09a4.59,4.59,0,0,1,2.88.75,2.92,2.92,0,0,1,.94,2.43,3,3,0,0,1-.94,2.45,4.46,4.46,0,0,1-2.88.77,4.46,4.46,0,0,1-2.88-.77,3,3,0,0,1-.95-2.45,2.89,2.89,0,0,1,.95-2.43A4.59,4.59,0,0,1,24,39.66ZM42.1,54.58H58a2.43,2.43,0,0,0,1.81-.75A2.59,2.59,0,0,0,60.55,52a2.49,2.49,0,0,0-.73-1.81A2.45,2.45,0,0,0,58,49.46H42.1a2.43,2.43,0,0,0-1.81.75A2.57,2.57,0,0,0,39.56,52a2.49,2.49,0,0,0,2.54,2.54Zm7.74-8.09a2.65,2.65,0,0,0,2-.81,2.75,2.75,0,0,0,.79-2,2.69,2.69,0,0,0-.79-1.94,2.65,2.65,0,0,0-2-.81,2.61,2.61,0,0,0-1.94.79,2.72,2.72,0,0,0-.77,2,2.81,2.81,0,0,0,.77,2A2.59,2.59,0,0,0,49.84,46.49Zm0,16.6a2.62,2.62,0,0,0,2-.82,2.65,2.65,0,0,0,.79-1.93,2.75,2.75,0,0,0-.79-2,2.66,2.66,0,0,0-2-.82,2.6,2.6,0,0,0-1.94.82,2.81,2.81,0,0,0-.77,2,2.73,2.73,0,0,0,.77,2A2.61,2.61,0,0,0,49.84,63.09Zm35-9.85H83.9V37.72a3.64,3.64,0,0,0-1.17-2.88,4,4,0,0,0-2.79-1,4.29,4.29,0,0,0-1.91.45,4,4,0,0,0-1.53,1.31L64.2,53.12A4.78,4.78,0,0,0,63.26,56a3.3,3.3,0,0,0,.9,2.37,3.22,3.22,0,0,0,2.45.94H76.2v1.47a3.82,3.82,0,0,0,1,2.92,3.89,3.89,0,0,0,2.78,1,4,4,0,0,0,2.79-1,3.76,3.76,0,0,0,1.08-2.92V59.26h.94c2.5,0,3.74-1,3.74-3S87.34,53.24,84.84,53.24Zm-13.8,0,5.16-7.43v7.43Z"/></svg>