<svg id="Layer_1" data-name="Layer 1" xmlns="http://www.w3.org/2000/svg" viewBox="0 0 100 100"><title>l5_3_1</title><path d="M83.53,100H16.47A16.47,16.47,0,0,1,0,83.53V16.47A16.47,16.47,0,0,1,16.47,0H83.53A16.47,16.47,0,0,1,100,16.47V83.53A16.47,16.47,0,0,1,83.53,100Zm-53-51a6.42,6.42,0,0,0,3.37-2.53,7.47,7.47,0,0,0,1.23-4.3,7.12,7.12,0,0,0-3-6q-3-2.22-8.15-2.22a13.42,13.42,0,0,0-8.13,2.22,7.11,7.11,0,0,0-3,6,7.27,7.27,0,0,0,1.21,4.19A7,7,0,0,0,17.52,49a7.17,7.17,0,0,0-4,2.56,7.56,7.56,0,0,0-1.42,4.71,7.43,7.43,0,0,0,3.2,6.39c2.14,1.53,5,2.3,8.75,2.3s6.62-.77,8.75-2.3A7.43,7.43,0,0,0,36,56.26,7.07,7.07,0,0,0,30.55,49ZM24,59c-3.12,0-4.69-1.12-4.69-3.35s1.57-3.36,4.69-3.36,4.69,1.12,4.69,3.36S27.14,59,24,59Zm0-19.09a4.59,4.59,0,0,1,2.88.75,2.92,2.92,0,0,1,.95,2.43,3,3,0,0,1-.95,2.45,4.46,4.46,0,0,1-2.88.77,4.46,4.46,0,0,1-2.88-.77,3,3,0,0,1-.95-2.45,2.92,2.92,0,0,1,.95-2.43A4.59,4.59,0,0,1,24,39.88ZM42.11,54.8H58a2.43,2.43,0,0,0,1.81-.75,2.53,2.53,0,0,0,.73-1.83,2.45,2.45,0,0,0-.73-1.81A2.49,2.49,0,0,0,58,49.68H42.11a2.41,2.41,0,0,0-1.8.75,2.54,2.54,0,0,0-.73,1.83,2.49,2.49,0,0,0,2.53,2.54Zm7.74-8.09a2.63,2.63,0,0,0,2-.81,2.76,2.76,0,0,0,.8-2,2.7,2.7,0,0,0-.8-1.94,2.63,2.63,0,0,0-2-.81,2.57,2.57,0,0,0-1.93.79,2.7,2.7,0,0,0-.78,2,2.78,2.78,0,0,0,.78,2A2.55,2.55,0,0,0,49.85,46.71Zm0,16.6a2.63,2.63,0,0,0,2-.81,2.7,2.7,0,0,0,.8-1.94,2.76,2.76,0,0,0-.8-2,2.63,2.63,0,0,0-2-.81,2.55,2.55,0,0,0-1.93.81,2.78,2.78,0,0,0-.78,2,2.7,2.7,0,0,0,.78,2A2.57,2.57,0,0,0,49.85,63.31Zm35-9.84h-1V37.94a3.67,3.67,0,0,0-1.16-2.88A4.07,4.07,0,0,0,80,34a4.32,4.32,0,0,0-1.91.45,4,4,0,0,0-1.53,1.31L64.22,53.34a4.75,4.75,0,0,0-.95,2.83,3.3,3.3,0,0,0,.9,2.37,3.23,3.23,0,0,0,2.45,1h9.59V61a3.79,3.79,0,0,0,1.06,2.92,3.87,3.87,0,0,0,2.77,1,3.93,3.93,0,0,0,2.79-1A3.76,3.76,0,0,0,83.91,61V59.49h1q3.73,0,3.74-3.06C88.6,54.45,87.35,53.47,84.86,53.47Zm-13.81,0L76.21,46v7.44Z"/></svg>