<svg id="Layer_1" data-name="Layer 1" xmlns="http://www.w3.org/2000/svg" viewBox="0 0 100 100"><title>l5_3_1</title><path d="M83.53,100H16.47A16.47,16.47,0,0,1,0,83.53V16.47A16.47,16.47,0,0,1,16.47,0H83.53A16.47,16.47,0,0,1,100,16.47V83.53A16.47,16.47,0,0,1,83.53,100Zm-71-53.52a3.4,3.4,0,0,0,1.12,1.14A2.49,2.49,0,0,0,15,48a1.51,1.51,0,0,0,1.09-.4,1.44,1.44,0,0,0,.44-1.1,2.63,2.63,0,0,0-.2-1,26.1,26.1,0,0,1-1.36-4.77,28.38,28.38,0,0,1-.42-5,29.24,29.24,0,0,1,.42-5.1,24.42,24.42,0,0,1,1.36-4.77,2.67,2.67,0,0,0,.2-1A1.48,1.48,0,0,0,16,23.76a1.51,1.51,0,0,0-1.09-.4,2.42,2.42,0,0,0-1.27.4,3.47,3.47,0,0,0-1.12,1.16A18.8,18.8,0,0,0,9.44,35.73,18.9,18.9,0,0,0,12.56,46.48ZM27.79,30.14a5.39,5.39,0,0,0-2.35.51,4.48,4.48,0,0,0-1.71,1.41,7.41,7.41,0,0,1,1-3.63,2.67,2.67,0,0,1,2.3-1.29,3.61,3.61,0,0,1,1.27.22,16.08,16.08,0,0,1,1.53.67l.61.3c.36.19.63.32.84.41a1.85,1.85,0,0,0,.69.12,1.45,1.45,0,0,0,1.18-.6,2.19,2.19,0,0,0,.49-1.46,2,2,0,0,0-.21-1,2.34,2.34,0,0,0-.68-.75A9.11,9.11,0,0,0,30,23.69a11,11,0,0,0-3.18-.5,7.6,7.6,0,0,0-4.33,1.25A8.2,8.2,0,0,0,19.63,28a13.44,13.44,0,0,0-1,5.44c0,3.15.71,5.57,2.14,7.28a7.46,7.46,0,0,0,6.06,2.56,7.07,7.07,0,0,0,3.52-.87A6.19,6.19,0,0,0,32.78,40a7.47,7.47,0,0,0,.11-6.78A5.78,5.78,0,0,0,30.79,31,5.59,5.59,0,0,0,27.79,30.14Zm-1.28,9.23a2.2,2.2,0,0,1-1.72-.74,2.69,2.69,0,0,1-.67-1.9,2.77,2.77,0,0,1,.65-1.92,2.25,2.25,0,0,1,1.74-.72,2.18,2.18,0,0,1,1.74.71,2.83,2.83,0,0,1,.62,1.93,2.8,2.8,0,0,1-.64,1.92A2.18,2.18,0,0,1,26.51,39.37ZM37.82,36.7H48.1a1.53,1.53,0,0,0,1.17-.49,1.65,1.65,0,0,0-1.17-2.82H37.82a1.56,1.56,0,0,0-1.17.49,1.65,1.65,0,0,0-.47,1.18,1.61,1.61,0,0,0,1.64,1.64Zm5-5.23A1.7,1.7,0,0,0,44.09,31a1.79,1.79,0,0,0,.51-1.28,1.74,1.74,0,0,0-.51-1.25,1.79,1.79,0,0,0-2.52,0,1.78,1.78,0,0,0-.5,1.27,1.82,1.82,0,0,0,.5,1.28A1.66,1.66,0,0,0,42.82,31.47Zm0,10.73a1.68,1.68,0,0,0,1.27-.53,1.72,1.72,0,0,0,.51-1.25,1.75,1.75,0,0,0-.51-1.27,1.68,1.68,0,0,0-1.27-.53,1.63,1.63,0,0,0-1.25.53,1.86,1.86,0,0,0,0,2.54A1.69,1.69,0,0,0,42.82,42.2ZM63,33a4.53,4.53,0,0,0,2.21-1.68A4.63,4.63,0,0,0,66,28.58a4.87,4.87,0,0,0-.84-2.83,5.44,5.44,0,0,0-2.42-1.89,9.15,9.15,0,0,0-3.63-.67,11.22,11.22,0,0,0-3.29.5A9.29,9.29,0,0,0,53,25.08a1.92,1.92,0,0,0-.87,1.72,2.23,2.23,0,0,0,.48,1.46,1.42,1.42,0,0,0,1.16.6,1.94,1.94,0,0,0,.7-.12c.2-.09.48-.22.83-.41l.59-.27a15.12,15.12,0,0,1,1.51-.67,4.15,4.15,0,0,1,1.46-.25,2.41,2.41,0,0,1,1.7.57,2.1,2.1,0,0,1,.61,1.6,1.53,1.53,0,0,1-.7,1.41,4.19,4.19,0,0,1-2.22.45H57a1.58,1.58,0,0,0-1.31.58,2.29,2.29,0,0,0,0,2.78,1.59,1.59,0,0,0,1.31.59h1.72a4.15,4.15,0,0,1,2.28.47,1.73,1.73,0,0,1,.69,1.55A1.91,1.91,0,0,1,61,38.81a3.8,3.8,0,0,1-2.24.5,5.21,5.21,0,0,1-1.59-.23,11.87,11.87,0,0,1-1.6-.69l-.35-.15L55,38.12c-.36-.19-.63-.32-.84-.41a1.85,1.85,0,0,0-.69-.12,1.44,1.44,0,0,0-1.17.6,2.28,2.28,0,0,0-.47,1.46,2.12,2.12,0,0,0,.19,1,2.15,2.15,0,0,0,.67.77,8.84,8.84,0,0,0,2.89,1.4,12.13,12.13,0,0,0,3.47.49A10.51,10.51,0,0,0,63,42.58a6,6,0,0,0,2.6-1.93,5.32,5.32,0,0,0,0-6A4.72,4.72,0,0,0,63,33ZM73,46.48a19,19,0,0,0,3.11-10.75A18.87,18.87,0,0,0,73,24.92a3.42,3.42,0,0,0-1.13-1.14,2.49,2.49,0,0,0-1.27-.39,1.51,1.51,0,0,0-1.09.4,1.42,1.42,0,0,0-.43,1.1,2.65,2.65,0,0,0,.19,1,24.42,24.42,0,0,1,1.36,4.77,29.24,29.24,0,0,1,.42,5.1,28.38,28.38,0,0,1-.42,5,26.1,26.1,0,0,1-1.36,4.77,2.61,2.61,0,0,0-.19,1,1.43,1.43,0,0,0,.43,1.1,1.48,1.48,0,0,0,1.07.4,2.53,2.53,0,0,0,1.29-.39A3.52,3.52,0,0,0,73,46.48Zm9.42-9h5.22A2.55,2.55,0,0,0,89.42,37,1.82,1.82,0,0,0,90,35.56a1.8,1.8,0,0,0-.57-1.42,2.6,2.6,0,0,0-1.74-.5H82.46q-2.31,0-2.31,1.92T82.46,37.51ZM18.74,79.83A3.42,3.42,0,0,0,19.87,81a2.43,2.43,0,0,0,1.26.39,1.54,1.54,0,0,0,1.1-.4,1.42,1.42,0,0,0,.43-1.1,2.65,2.65,0,0,0-.19-1,26.16,26.16,0,0,1-1.37-4.77,29.3,29.3,0,0,1-.41-5A30.28,30.28,0,0,1,21.1,64a24.66,24.66,0,0,1,1.37-4.77,2.65,2.65,0,0,0,.19-1,1.47,1.47,0,0,0-.43-1.13,1.58,1.58,0,0,0-1.1-.4,2.45,2.45,0,0,0-1.26.4,3.59,3.59,0,0,0-1.13,1.16,18.89,18.89,0,0,0-3.11,10.81A19,19,0,0,0,18.74,79.83ZM38.28,69.19h-.61v-10a2.38,2.38,0,0,0-.75-1.87,2.64,2.64,0,0,0-1.81-.66,2.75,2.75,0,0,0-1.24.29,2.58,2.58,0,0,0-1,.85L24.94,69.11a3.07,3.07,0,0,0-.61,1.83,2.13,2.13,0,0,0,.58,1.53,2.09,2.09,0,0,0,1.59.61h6.19v1a2.5,2.5,0,0,0,.68,1.89,2.85,2.85,0,0,0,3.6,0,2.43,2.43,0,0,0,.7-1.89v-1h.61c1.61,0,2.42-.66,2.42-2S39.89,69.19,38.28,69.19Zm-8.92,0,3.33-4.81v4.81ZM44,70.05H54.29a1.56,1.56,0,0,0,1.17-.49,1.63,1.63,0,0,0,.47-1.18,1.62,1.62,0,0,0-1.64-1.64H44a1.57,1.57,0,0,0-1.17.49,1.61,1.61,0,0,0-.47,1.18,1.57,1.57,0,0,0,.47,1.17A1.59,1.59,0,0,0,44,70.05Zm5-5.22a1.69,1.69,0,0,0,1.26-.53A1.74,1.74,0,0,0,50.79,63,1.79,1.79,0,0,0,49,61.24a1.67,1.67,0,0,0-1.25.51,1.74,1.74,0,0,0-.5,1.27,1.76,1.76,0,0,0,.5,1.28A1.65,1.65,0,0,0,49,64.83Zm0,10.72A1.68,1.68,0,0,0,50.27,75a1.72,1.72,0,0,0,.52-1.25,1.74,1.74,0,0,0-.52-1.28A1.69,1.69,0,0,0,49,72a1.65,1.65,0,0,0-1.25.53,1.76,1.76,0,0,0-.5,1.28,1.7,1.7,0,0,0,.5,1.26A1.67,1.67,0,0,0,49,75.55Zm21.82-3.22H65.24l4-4a13.21,13.21,0,0,0,2.32-3.13,7,7,0,0,0,.68-3.1,5,5,0,0,0-.85-2.9,5.55,5.55,0,0,0-2.4-2,9.06,9.06,0,0,0-3.62-.68,11.29,11.29,0,0,0-6.14,1.89,1.92,1.92,0,0,0-.68.73,2.67,2.67,0,0,0,.29,2.48,1.43,1.43,0,0,0,1.17.63,1.89,1.89,0,0,0,.53-.08,4.61,4.61,0,0,0,.57-.27,4.14,4.14,0,0,1,.43-.23l.55-.28a12.43,12.43,0,0,1,1.57-.68,4.48,4.48,0,0,1,1.49-.24,2.19,2.19,0,0,1,1.54.5,1.88,1.88,0,0,1,.54,1.45A5.43,5.43,0,0,1,65.35,66l-5.89,6.14a3.05,3.05,0,0,0-1,2.17,2.07,2.07,0,0,0,.59,1.51,2.1,2.1,0,0,0,1.58.6H70.83a2.82,2.82,0,0,0,1.82-.5,2,2,0,0,0,.59-1.56,1.85,1.85,0,0,0-.59-1.51A2.82,2.82,0,0,0,70.83,72.33Zm8.42,7.5a19,19,0,0,0,3.11-10.75,18.89,18.89,0,0,0-3.11-10.81,3.42,3.42,0,0,0-1.13-1.14,2.46,2.46,0,0,0-1.26-.39,1.54,1.54,0,0,0-1.1.4,1.43,1.43,0,0,0-.43,1.1,2.65,2.65,0,0,0,.19,1A23.94,23.94,0,0,1,76.88,64a29.24,29.24,0,0,1,.42,5.1,28.3,28.3,0,0,1-.42,5,25.33,25.33,0,0,1-1.36,4.77,2.65,2.65,0,0,0-.19,1,1.42,1.42,0,0,0,.43,1.1,1.5,1.5,0,0,0,1.07.4A2.48,2.48,0,0,0,78.12,81,3.42,3.42,0,0,0,79.25,79.83Z"/></svg>