<svg id="Layer_1" data-name="Layer 1" xmlns="http://www.w3.org/2000/svg" viewBox="0 0 100 100"><title>l5_4_1</title><path d="M83.53,99.78H16.47A16.47,16.47,0,0,1,0,83.31V16.25A16.47,16.47,0,0,1,16.47-.22H83.53A16.47,16.47,0,0,1,100,16.25V83.31A16.47,16.47,0,0,1,83.53,99.78ZM10.4,46.26a3.42,3.42,0,0,0,1.13,1.14,2.49,2.49,0,0,0,1.26.39,1.52,1.52,0,0,0,1.1-.4,1.43,1.43,0,0,0,.43-1.1,2.61,2.61,0,0,0-.19-1,25.33,25.33,0,0,1-1.36-4.77,28.38,28.38,0,0,1-.42-5,29.24,29.24,0,0,1,.42-5.1,23.75,23.75,0,0,1,1.36-4.77,2.65,2.65,0,0,0,.19-1,1.46,1.46,0,0,0-.43-1.13,1.52,1.52,0,0,0-1.1-.4,2.41,2.41,0,0,0-1.26.4,3.55,3.55,0,0,0-1.13,1.15A18.92,18.92,0,0,0,7.29,35.51,19,19,0,0,0,10.4,46.26Zm18.74-7.5H23.55l3.95-4a13.21,13.21,0,0,0,2.32-3.13,7,7,0,0,0,.68-3.1,5,5,0,0,0-.85-2.9,5.43,5.43,0,0,0-2.4-2A9,9,0,0,0,23.63,23a11.05,11.05,0,0,0-3.21.5,10.85,10.85,0,0,0-2.93,1.39,1.84,1.84,0,0,0-.68.72,2.7,2.7,0,0,0,.29,2.49,1.43,1.43,0,0,0,1.17.63,1.6,1.6,0,0,0,.53-.09,3.35,3.35,0,0,0,.57-.26l.43-.24.55-.28a16.25,16.25,0,0,1,1.57-.68,4.75,4.75,0,0,1,1.49-.23,2.15,2.15,0,0,1,1.54.5,1.86,1.86,0,0,1,.55,1.44,5.43,5.43,0,0,1-1.84,3.53l-5.89,6.15a3,3,0,0,0-.95,2.16A2,2,0,0,0,19,42.82H29.14A2.76,2.76,0,0,0,31,42.31a1.9,1.9,0,0,0,.6-1.55,1.85,1.85,0,0,0-.6-1.52A2.89,2.89,0,0,0,29.14,38.76Zm16.67-5.59h-3.5v-3.5a1.64,1.64,0,1,0-3.28,0v3.5h-3.5a1.61,1.61,0,0,0-1.64,1.64A1.65,1.65,0,0,0,34.36,36a1.56,1.56,0,0,0,1.17.49H39V40a1.61,1.61,0,0,0,1.64,1.64,1.54,1.54,0,0,0,1.18-.47A1.58,1.58,0,0,0,42.31,40V36.48h3.5A1.53,1.53,0,0,0,47,36a1.61,1.61,0,0,0,.47-1.18,1.61,1.61,0,0,0-1.64-1.64Zm15.07-.44A4.6,4.6,0,0,0,63.09,31a4.65,4.65,0,0,0,.79-2.68A4.8,4.8,0,0,0,63,25.53a5.33,5.33,0,0,0-2.42-1.89A9.06,9.06,0,0,0,57,23a11.29,11.29,0,0,0-3.3.5,9.29,9.29,0,0,0-2.82,1.39,2.3,2.3,0,0,0-.67.75,2.15,2.15,0,0,0-.19,1A2.28,2.28,0,0,0,50.48,28a1.45,1.45,0,0,0,1.17.6,1.85,1.85,0,0,0,.69-.12c.21-.09.49-.22.84-.41l.58-.28a14.94,14.94,0,0,1,1.52-.66,4.11,4.11,0,0,1,1.46-.25,2.38,2.38,0,0,1,1.69.57,2.07,2.07,0,0,1,.61,1.6,1.55,1.55,0,0,1-.69,1.41,4.25,4.25,0,0,1-2.23.45H54.9a1.57,1.57,0,0,0-1.3.58,2.25,2.25,0,0,0,0,2.78,1.57,1.57,0,0,0,1.3.58h1.72a4.11,4.11,0,0,1,2.28.48,1.72,1.72,0,0,1,.7,1.55,1.94,1.94,0,0,1-.68,1.67,3.9,3.9,0,0,1-2.24.5,5,5,0,0,1-1.6-.24,11.5,11.5,0,0,1-1.6-.68L53.14,38l-.27-.12c-.35-.19-.63-.32-.83-.41a1.94,1.94,0,0,0-.7-.12,1.42,1.42,0,0,0-1.16.6,2.22,2.22,0,0,0-.48,1.45,2,2,0,0,0,.87,1.73,8.74,8.74,0,0,0,2.89,1.4,12.13,12.13,0,0,0,3.47.49,10.5,10.5,0,0,0,3.93-.68,5.92,5.92,0,0,0,2.6-1.93,5.29,5.29,0,0,0,0-6A4.72,4.72,0,0,0,60.88,32.73Zm10,13.53A19,19,0,0,0,74,35.51a18.92,18.92,0,0,0-3.11-10.82,3.33,3.33,0,0,0-1.13-1.14,2.51,2.51,0,0,0-1.26-.38,1.55,1.55,0,0,0-1.1.4,1.42,1.42,0,0,0-.43,1.1,2.67,2.67,0,0,0,.2,1,24.42,24.42,0,0,1,1.36,4.77,29.28,29.28,0,0,1,.41,5.1,28.42,28.42,0,0,1-.41,5,26.1,26.1,0,0,1-1.36,4.77,2.63,2.63,0,0,0-.2,1,1.43,1.43,0,0,0,.43,1.1,1.51,1.51,0,0,0,1.07.4,2.48,2.48,0,0,0,1.29-.39A3.33,3.33,0,0,0,70.91,46.26ZM87.42,34.81l3-3a1.66,1.66,0,0,0,.5-1.2,1.48,1.48,0,0,0-.5-1.14,1.54,1.54,0,0,0-1.17-.5,1.6,1.6,0,0,0-1.16.5l-3,3-3-3A1.62,1.62,0,0,0,80.92,29a1.45,1.45,0,0,0-1.14.5,1.63,1.63,0,0,0-.5,1.2,1.68,1.68,0,0,0,.47,1.17l3,3-3,3a1.62,1.62,0,0,0,0,2.34,1.73,1.73,0,0,0,1.17.47,1.58,1.58,0,0,0,1.16-.47l3-3,3,3A1.64,1.64,0,0,0,90.89,39a1.52,1.52,0,0,0-.47-1.17ZM20.9,79.61A3.4,3.4,0,0,0,22,80.75a2.49,2.49,0,0,0,1.27.39,1.51,1.51,0,0,0,1.09-.4,1.43,1.43,0,0,0,.43-1.1,2.65,2.65,0,0,0-.19-1,26.1,26.1,0,0,1-1.36-4.77,28.3,28.3,0,0,1-.42-5,29.24,29.24,0,0,1,.42-5.1A24.42,24.42,0,0,1,24.62,59a2.65,2.65,0,0,0,.19-1,1.47,1.47,0,0,0-.43-1.13,1.51,1.51,0,0,0-1.09-.4,2.42,2.42,0,0,0-1.27.4,3.56,3.56,0,0,0-1.12,1.16,18.82,18.82,0,0,0-3.12,10.81A18.88,18.88,0,0,0,20.9,79.61ZM36.13,63.27a5.23,5.23,0,0,0-2.35.52,4.31,4.31,0,0,0-1.71,1.4,7.41,7.41,0,0,1,1-3.63,2.66,2.66,0,0,1,2.29-1.29,3.67,3.67,0,0,1,1.28.22,16.08,16.08,0,0,1,1.53.67l.61.3c.35.19.63.32.84.41a1.85,1.85,0,0,0,.69.12,1.49,1.49,0,0,0,1.18-.59A2.22,2.22,0,0,0,42,59.94a2.06,2.06,0,0,0-.21-1,2.46,2.46,0,0,0-.68-.75,9.11,9.11,0,0,0-2.79-1.39,11,11,0,0,0-3.19-.5,7.54,7.54,0,0,0-4.32,1.25A8.17,8.17,0,0,0,28,61.15a13.35,13.35,0,0,0-1,5.43c0,3.15.72,5.58,2.14,7.28a7.46,7.46,0,0,0,6.06,2.56,7.18,7.18,0,0,0,3.53-.86,6.19,6.19,0,0,0,2.43-2.41A6.88,6.88,0,0,0,42,69.66a7,7,0,0,0-.76-3.29,5.78,5.78,0,0,0-2.1-2.28A5.59,5.59,0,0,0,36.13,63.27ZM34.85,72.5a2.24,2.24,0,0,1-1.73-.74,2.73,2.73,0,0,1-.66-1.9,2.77,2.77,0,0,1,.65-1.92,2.25,2.25,0,0,1,1.74-.72,2.15,2.15,0,0,1,1.73.71,3.24,3.24,0,0,1,0,3.85A2.19,2.19,0,0,1,34.85,72.5Zm11.53-1.86h5.23a2.47,2.47,0,0,0,1.73-.52,1.82,1.82,0,0,0,.57-1.43,1.8,1.8,0,0,0-.57-1.42,2.57,2.57,0,0,0-1.73-.5H46.38q-2.31,0-2.31,1.92T46.38,70.64ZM69.51,69h-.62v-10a2.38,2.38,0,0,0-.75-1.87,2.63,2.63,0,0,0-1.8-.66,2.72,2.72,0,0,0-1.24.29,2.53,2.53,0,0,0-1,.85l-8,11.34a3.14,3.14,0,0,0-.61,1.83,2.14,2.14,0,0,0,.59,1.53,2.06,2.06,0,0,0,1.58.61h6.2v1a2.46,2.46,0,0,0,.68,1.88,2.49,2.49,0,0,0,1.79.64,2.55,2.55,0,0,0,1.81-.64,2.42,2.42,0,0,0,.69-1.88v-1h.62c1.61,0,2.41-.66,2.41-2S71.12,69,69.51,69Zm-8.93,0,3.34-4.81V69ZM77.09,79.61a18.88,18.88,0,0,0,3.12-10.75,18.82,18.82,0,0,0-3.12-10.81A3.4,3.4,0,0,0,76,56.91a2.49,2.49,0,0,0-1.27-.39,1.51,1.51,0,0,0-1.09.4,1.44,1.44,0,0,0-.44,1.1,2.67,2.67,0,0,0,.2,1,24.42,24.42,0,0,1,1.36,4.77,29.24,29.24,0,0,1,.42,5.1,28.3,28.3,0,0,1-.42,5,26.1,26.1,0,0,1-1.36,4.77,2.67,2.67,0,0,0-.2,1,1.44,1.44,0,0,0,.44,1.1,1.48,1.48,0,0,0,1.07.4A2.53,2.53,0,0,0,76,80.75,3.4,3.4,0,0,0,77.09,79.61Z"/></svg>