<svg id="Layer_1" data-name="Layer 1" xmlns="http://www.w3.org/2000/svg" viewBox="0 0 100 100"><title>l5_4_1</title><path d="M83.74,100.22H16.68A16.47,16.47,0,0,1,.21,83.75V16.69A16.47,16.47,0,0,1,16.68.22H83.74a16.47,16.47,0,0,1,16.47,16.47V83.75A16.47,16.47,0,0,1,83.74,100.22ZM20,48.27a3.42,3.42,0,0,0,1.13,1.14,2.46,2.46,0,0,0,1.26.39,1.58,1.58,0,0,0,1.1-.4,1.43,1.43,0,0,0,.43-1.1,2.7,2.7,0,0,0-.19-1,25.24,25.24,0,0,1-1.36-4.76,28.42,28.42,0,0,1-.42-5.05,29.41,29.41,0,0,1,.42-5.1,23.85,23.85,0,0,1,1.36-4.76,2.7,2.7,0,0,0,.19-1,1.45,1.45,0,0,0-.43-1.12,1.54,1.54,0,0,0-1.1-.4,2.38,2.38,0,0,0-1.26.4A3.55,3.55,0,0,0,20,26.7a18.91,18.91,0,0,0-3.11,10.81A19,19,0,0,0,20,48.27ZM35.2,31.93a5.35,5.35,0,0,0-2.34.51,4.31,4.31,0,0,0-1.71,1.4,7.3,7.3,0,0,1,1-3.62,2.66,2.66,0,0,1,2.29-1.29,3.67,3.67,0,0,1,1.28.22,16.08,16.08,0,0,1,1.53.67l.61.3a8.15,8.15,0,0,0,.83.4,1.75,1.75,0,0,0,.7.13,1.48,1.48,0,0,0,1.18-.6,2.26,2.26,0,0,0,.49-1.46,2,2,0,0,0-.21-1,2.46,2.46,0,0,0-.68-.75,8.84,8.84,0,0,0-2.8-1.39,10.86,10.86,0,0,0-3.18-.5,7.54,7.54,0,0,0-4.32,1.25,8,8,0,0,0-2.86,3.57,13.42,13.42,0,0,0-1,5.43q0,4.73,2.14,7.29a7.48,7.48,0,0,0,6.06,2.55,7.1,7.1,0,0,0,3.53-.86,6.1,6.1,0,0,0,2.43-2.4,6.88,6.88,0,0,0,.88-3.49A7,7,0,0,0,40.3,35a5.7,5.7,0,0,0-2.09-2.28A5.6,5.6,0,0,0,35.2,31.93Zm-1.27,9.22a2.23,2.23,0,0,1-1.73-.73,2.76,2.76,0,0,1-.67-1.91,2.72,2.72,0,0,1,.66-1.91,2.45,2.45,0,0,1,3.47,0,3.24,3.24,0,0,1,0,3.85A2.19,2.19,0,0,1,33.93,41.15Zm11.31-2.66H55.52A1.6,1.6,0,0,0,56.69,38a1.65,1.65,0,0,0,.47-1.18,1.61,1.61,0,0,0-1.64-1.64H45.24a1.53,1.53,0,0,0-1.17.49,1.59,1.59,0,0,0-.47,1.18,1.62,1.62,0,0,0,1.64,1.64Zm5-5.23a1.66,1.66,0,0,0,1.26-.53,1.8,1.8,0,0,0,0-2.53,1.79,1.79,0,0,0-2.51,0,1.74,1.74,0,0,0-.5,1.26,1.79,1.79,0,0,0,.5,1.28A1.62,1.62,0,0,0,50.24,33.26Zm0,10.73A1.79,1.79,0,0,0,52,42.21a1.74,1.74,0,0,0-.52-1.28,1.69,1.69,0,0,0-1.26-.53,1.65,1.65,0,0,0-1.25.53,1.81,1.81,0,0,0-.5,1.28,1.78,1.78,0,0,0,.5,1.27A1.67,1.67,0,0,0,50.24,44Zm20.18-9.26a4.52,4.52,0,0,0,2.21-1.68,4.67,4.67,0,0,0,.79-2.68,4.8,4.8,0,0,0-.85-2.83,5.33,5.33,0,0,0-2.42-1.89A9.06,9.06,0,0,0,66.53,25a11.29,11.29,0,0,0-3.3.5,9.29,9.29,0,0,0-2.82,1.39,2.3,2.3,0,0,0-.67.75,2.15,2.15,0,0,0-.19,1A2.3,2.3,0,0,0,60,30.05a1.45,1.45,0,0,0,1.17.6,1.75,1.75,0,0,0,.7-.13,8.15,8.15,0,0,0,.83-.4l.58-.28a13,13,0,0,1,1.52-.66,4.11,4.11,0,0,1,1.46-.25A2.38,2.38,0,0,1,68,29.5a2.06,2.06,0,0,1,.61,1.59,1.57,1.57,0,0,1-.69,1.42,4.25,4.25,0,0,1-2.23.45H64.44a1.57,1.57,0,0,0-1.3.58,2.25,2.25,0,0,0,0,2.78,1.57,1.57,0,0,0,1.3.58h1.72a4.22,4.22,0,0,1,2.28.47,1.75,1.75,0,0,1,.7,1.56,1.94,1.94,0,0,1-.68,1.67,3.9,3.9,0,0,1-2.24.5,5,5,0,0,1-1.6-.24,11.5,11.5,0,0,1-1.6-.68L62.68,40l-.27-.13c-.35-.18-.63-.32-.83-.4a1.94,1.94,0,0,0-.7-.12,1.44,1.44,0,0,0-1.16.59,2.27,2.27,0,0,0-.48,1.46,2.19,2.19,0,0,0,.2,1,2.15,2.15,0,0,0,.67.77A8.84,8.84,0,0,0,63,44.56a12.49,12.49,0,0,0,3.47.49,10.3,10.3,0,0,0,3.93-.69A5.77,5.77,0,0,0,73,42.43a4.83,4.83,0,0,0,.92-2.94,4.92,4.92,0,0,0-.93-3A4.74,4.74,0,0,0,70.42,34.73Zm10,13.54a18.9,18.9,0,0,0,3.11-10.76A18.84,18.84,0,0,0,80.45,26.7a3.33,3.33,0,0,0-1.13-1.14,2.43,2.43,0,0,0-1.26-.39,1.56,1.56,0,0,0-1.1.41,1.45,1.45,0,0,0-.43,1.09,2.72,2.72,0,0,0,.2,1,24.53,24.53,0,0,1,1.36,4.76,29.41,29.41,0,0,1,.42,5.1,28.42,28.42,0,0,1-.42,5.05,26,26,0,0,1-1.36,4.76,2.72,2.72,0,0,0-.2,1A1.47,1.47,0,0,0,77,49.4a1.56,1.56,0,0,0,1.07.4,2.48,2.48,0,0,0,1.29-.39A3.33,3.33,0,0,0,80.45,48.27ZM39.26,72.64h5.23a2.52,2.52,0,0,0,1.73-.51,1.82,1.82,0,0,0,.57-1.43,1.79,1.79,0,0,0-.57-1.42,2.57,2.57,0,0,0-1.73-.5H39.26Q37,68.78,37,70.7C37,72,37.72,72.64,39.26,72.64Zm18.82-7.36a5.39,5.39,0,0,0-2.35.51A4.48,4.48,0,0,0,54,67.2a7.41,7.41,0,0,1,1-3.63,2.67,2.67,0,0,1,2.3-1.29,3.61,3.61,0,0,1,1.27.22,16.08,16.08,0,0,1,1.53.67l.61.3c.36.19.63.32.84.41a1.85,1.85,0,0,0,.69.12,1.45,1.45,0,0,0,1.18-.6A2.2,2.2,0,0,0,64,61.94a2,2,0,0,0-.21-1,2.34,2.34,0,0,0-.68-.75,8.89,8.89,0,0,0-2.79-1.39,11,11,0,0,0-3.18-.5,7.6,7.6,0,0,0-4.33,1.25,8.2,8.2,0,0,0-2.86,3.57,13.44,13.44,0,0,0-1,5.44c0,3.15.71,5.57,2.14,7.28a7.46,7.46,0,0,0,6.06,2.56,7.07,7.07,0,0,0,3.52-.87,6.19,6.19,0,0,0,2.44-2.4,7.47,7.47,0,0,0,.11-6.78,5.78,5.78,0,0,0-2.1-2.28A5.59,5.59,0,0,0,58.08,65.28ZM56.8,74.51a2.22,2.22,0,0,1-1.72-.74,2.71,2.71,0,0,1-.67-1.9A2.77,2.77,0,0,1,55.06,70a2.25,2.25,0,0,1,1.74-.72,2.21,2.21,0,0,1,1.74.7,2.88,2.88,0,0,1,.62,1.94,2.76,2.76,0,0,1-.64,1.91A2.15,2.15,0,0,1,56.8,74.51Z"/></svg>