<svg id="Layer_1" data-name="Layer 1" xmlns="http://www.w3.org/2000/svg" viewBox="0 0 100 100"><title>l5_4_1</title><path d="M83.74,99.78H16.68A16.47,16.47,0,0,1,.21,83.31V16.25A16.47,16.47,0,0,1,16.68-.22H83.74a16.47,16.47,0,0,1,16.47,16.47V83.31A16.47,16.47,0,0,1,83.74,99.78ZM10.62,46.26a3.4,3.4,0,0,0,1.12,1.14,2.49,2.49,0,0,0,1.27.39,1.51,1.51,0,0,0,1.09-.4,1.44,1.44,0,0,0,.44-1.1,2.63,2.63,0,0,0-.2-1A26.1,26.1,0,0,1,13,40.55a28.38,28.38,0,0,1-.42-5,29.24,29.24,0,0,1,.42-5.1,24.42,24.42,0,0,1,1.36-4.77,2.67,2.67,0,0,0,.2-1,1.46,1.46,0,0,0-.44-1.13,1.51,1.51,0,0,0-1.09-.4,2.42,2.42,0,0,0-1.27.4,3.53,3.53,0,0,0-1.12,1.15A18.85,18.85,0,0,0,7.5,35.51,18.9,18.9,0,0,0,10.62,46.26ZM30.15,35.62h-.61v-10a2.38,2.38,0,0,0-.75-1.86,2.64,2.64,0,0,0-1.8-.67,2.73,2.73,0,0,0-1.24.3,2.51,2.51,0,0,0-1,.84l-8,11.34a3.19,3.19,0,0,0-.61,1.84,2.14,2.14,0,0,0,.59,1.53,2.1,2.1,0,0,0,1.58.61h6.2v.94A2.29,2.29,0,0,0,27,43a2.55,2.55,0,0,0,1.81-.64,2.43,2.43,0,0,0,.69-1.89v-.94h.61c1.62,0,2.42-.66,2.42-2S31.77,35.62,30.15,35.62Zm-8.92,0,3.34-4.81v4.81ZM46,33.17H42.49v-3.5a1.64,1.64,0,1,0-3.27,0v3.5H35.71a1.62,1.62,0,0,0-1.64,1.64A1.61,1.61,0,0,0,34.55,36a1.53,1.53,0,0,0,1.16.49h3.51V40A1.66,1.66,0,0,0,42,41.12,1.61,1.61,0,0,0,42.49,40V36.48H46A1.53,1.53,0,0,0,47.16,36a1.61,1.61,0,0,0,.48-1.18A1.62,1.62,0,0,0,46,33.17Zm16.7,5.59H57.11l4-4a12.93,12.93,0,0,0,2.32-3.13,6.91,6.91,0,0,0,.68-3.1,5,5,0,0,0-.85-2.9,5.37,5.37,0,0,0-2.4-2A9,9,0,0,0,57.2,23a11,11,0,0,0-3.21.5,10.71,10.71,0,0,0-2.93,1.39,1.8,1.8,0,0,0-.69.72,2.42,2.42,0,0,0-.18,1,2.37,2.37,0,0,0,.48,1.49,1.4,1.4,0,0,0,1.16.63,1.55,1.55,0,0,0,.53-.09,2.77,2.77,0,0,0,.57-.26l.43-.24.56-.27a12.86,12.86,0,0,1,1.57-.69A4.7,4.7,0,0,1,57,26.92a2.16,2.16,0,0,1,1.54.5,1.86,1.86,0,0,1,.54,1.44,5.41,5.41,0,0,1-1.83,3.53l-5.9,6.15a3,3,0,0,0-.94,2.16A2.09,2.09,0,0,0,51,42.22a2.12,2.12,0,0,0,1.59.6H62.7a2.8,2.8,0,0,0,1.82-.5,1.93,1.93,0,0,0,.6-1.56,1.85,1.85,0,0,0-.6-1.52A2.87,2.87,0,0,0,62.7,38.76Zm8.42,7.5a18.89,18.89,0,0,0,3.11-10.75,18.85,18.85,0,0,0-3.11-10.82A3.4,3.4,0,0,0,70,23.55a2.57,2.57,0,0,0-1.27-.38,1.55,1.55,0,0,0-1.1.4,1.45,1.45,0,0,0-.43,1.1,2.67,2.67,0,0,0,.2,1,24.42,24.42,0,0,1,1.36,4.77,29.24,29.24,0,0,1,.42,5.1,28.38,28.38,0,0,1-.42,5,26.1,26.1,0,0,1-1.36,4.77,2.63,2.63,0,0,0-.2,1,1.47,1.47,0,0,0,.43,1.1,1.51,1.51,0,0,0,1.07.4A2.54,2.54,0,0,0,70,47.4,3.4,3.4,0,0,0,71.12,46.26ZM87.63,34.81l3-3a1.62,1.62,0,0,0,.5-1.2,1.45,1.45,0,0,0-.5-1.14,1.54,1.54,0,0,0-1.16-.5,1.6,1.6,0,0,0-1.17.5l-3,3-3-3A1.62,1.62,0,0,0,81.13,29a1.45,1.45,0,0,0-1.14.5,1.63,1.63,0,0,0-.5,1.2A1.73,1.73,0,0,0,80,31.84l3,3-3,3a1.62,1.62,0,0,0,0,2.34,1.73,1.73,0,0,0,1.17.47,1.58,1.58,0,0,0,1.16-.47l3-3,3,3A1.65,1.65,0,0,0,91.11,39a1.53,1.53,0,0,0-.48-1.17ZM21.11,79.61a3.4,3.4,0,0,0,1.12,1.14,2.49,2.49,0,0,0,1.27.39,1.55,1.55,0,0,0,1.1-.4,1.47,1.47,0,0,0,.43-1.1,2.67,2.67,0,0,0-.2-1,26.1,26.1,0,0,1-1.36-4.77,28.3,28.3,0,0,1-.42-5,29.24,29.24,0,0,1,.42-5.1A24.62,24.62,0,0,1,24.83,59a2.67,2.67,0,0,0,.2-1,1.51,1.51,0,0,0-.43-1.13,1.55,1.55,0,0,0-1.1-.4,2.42,2.42,0,0,0-1.27.4,3.56,3.56,0,0,0-1.12,1.16A18.82,18.82,0,0,0,18,68.86,18.88,18.88,0,0,0,21.11,79.61ZM38.9,66.08a4.23,4.23,0,0,0,2.18-1.64,4.83,4.83,0,0,0,.79-2.78,4.61,4.61,0,0,0-1.93-3.91,8.72,8.72,0,0,0-5.27-1.43,8.69,8.69,0,0,0-5.25,1.43,4.6,4.6,0,0,0-2,3.91,4.72,4.72,0,0,0,.78,2.71,4.58,4.58,0,0,0,2.22,1.71,4.66,4.66,0,0,0-2.61,1.65,4.92,4.92,0,0,0-.92,3A4.78,4.78,0,0,0,29,74.9a9.57,9.57,0,0,0,5.66,1.49,9.55,9.55,0,0,0,5.66-1.49,4.9,4.9,0,0,0-1.43-8.82Zm-4.23,6.45c-2,0-3-.73-3-2.17s1-2.17,3-2.17,3,.72,3,2.17S36.69,72.53,34.67,72.53Zm0-12.34a3,3,0,0,1,1.86.48,1.89,1.89,0,0,1,.61,1.57,1.93,1.93,0,0,1-.61,1.59,2.93,2.93,0,0,1-1.86.5,2.93,2.93,0,0,1-1.86-.5,1.93,1.93,0,0,1-.61-1.59,1.89,1.89,0,0,1,.61-1.57A3,3,0,0,1,34.67,60.19ZM46.59,70.64h5.23a2.5,2.5,0,0,0,1.74-.52,1.82,1.82,0,0,0,.57-1.43,1.8,1.8,0,0,0-.57-1.42,2.6,2.6,0,0,0-1.74-.5H46.59c-1.53,0-2.3.64-2.3,1.92S45.06,70.64,46.59,70.64ZM69.72,69h-.61v-10a2.38,2.38,0,0,0-.75-1.87,2.66,2.66,0,0,0-1.81-.66,2.72,2.72,0,0,0-1.24.29,2.44,2.44,0,0,0-1,.85L56.38,68.89a3.07,3.07,0,0,0-.61,1.83,2.13,2.13,0,0,0,.58,1.53,2.08,2.08,0,0,0,1.58.61h6.2v1a2.46,2.46,0,0,0,.68,1.88,2.85,2.85,0,0,0,3.6,0,2.43,2.43,0,0,0,.7-1.88v-1h.61c1.61,0,2.42-.66,2.42-2S71.33,69,69.72,69ZM60.8,69l3.33-4.81V69ZM77.31,79.61a19,19,0,0,0,3.11-10.75,18.89,18.89,0,0,0-3.11-10.81,3.52,3.52,0,0,0-1.13-1.14,2.49,2.49,0,0,0-1.27-.39,1.51,1.51,0,0,0-1.09.4,1.43,1.43,0,0,0-.43,1.1,2.65,2.65,0,0,0,.19,1,24.62,24.62,0,0,1,1.36,4.77,29.24,29.24,0,0,1,.42,5.1,28.3,28.3,0,0,1-.42,5,26.1,26.1,0,0,1-1.36,4.77,2.65,2.65,0,0,0-.19,1,1.43,1.43,0,0,0,.43,1.1,1.48,1.48,0,0,0,1.07.4,2.53,2.53,0,0,0,1.29-.39A3.52,3.52,0,0,0,77.31,79.61Z"/></svg>