<svg id="Layer_1" data-name="Layer 1" xmlns="http://www.w3.org/2000/svg" viewBox="0 0 100 100"><title>l5_4_1</title><path d="M83.74,99.78H16.68A16.47,16.47,0,0,1,.21,83.31V16.25A16.47,16.47,0,0,1,16.68-.22H83.74a16.47,16.47,0,0,1,16.47,16.47V83.31A16.47,16.47,0,0,1,83.74,99.78ZM20,47.83A3.33,3.33,0,0,0,21.09,49a2.43,2.43,0,0,0,1.26.39,1.56,1.56,0,0,0,1.1-.41,1.43,1.43,0,0,0,.43-1.09,2.72,2.72,0,0,0-.2-1,26.24,26.24,0,0,1-1.36-4.76,28.42,28.42,0,0,1-.42-5,29.41,29.41,0,0,1,.42-5.1,24.53,24.53,0,0,1,1.36-4.76,2.72,2.72,0,0,0,.2-1,1.48,1.48,0,0,0-.43-1.12,1.56,1.56,0,0,0-1.1-.41,2.38,2.38,0,0,0-1.26.41A3.46,3.46,0,0,0,20,26.26a18.84,18.84,0,0,0-3.11,10.81A18.9,18.9,0,0,0,20,47.83ZM37.75,34.29a4.18,4.18,0,0,0,2.18-1.64,4.79,4.79,0,0,0,.79-2.78A4.58,4.58,0,0,0,38.79,26a8.63,8.63,0,0,0-5.27-1.43A8.65,8.65,0,0,0,28.27,26a4.57,4.57,0,0,0-1.95,3.9,4.7,4.7,0,0,0,.78,2.71,4.56,4.56,0,0,0,2.23,1.71A4.65,4.65,0,0,0,26.71,36a4.88,4.88,0,0,0-.91,3,4.8,4.8,0,0,0,2.07,4.13,9.52,9.52,0,0,0,5.65,1.48,9.55,9.55,0,0,0,5.66-1.48A4.8,4.8,0,0,0,41.25,39a4.87,4.87,0,0,0-.9-3A4.93,4.93,0,0,0,37.75,34.29Zm-4.23,6.45c-2,0-3-.72-3-2.17s1-2.16,3-2.16,3,.72,3,2.16S35.54,40.74,33.52,40.74Zm0-12.34a2.89,2.89,0,0,1,1.86.49A1.87,1.87,0,0,1,36,30.46,1.92,1.92,0,0,1,35.38,32a2.83,2.83,0,0,1-1.86.5,2.87,2.87,0,0,1-1.86-.5,1.91,1.91,0,0,1-.61-1.58,1.86,1.86,0,0,1,.61-1.57A2.93,2.93,0,0,1,33.52,28.4ZM45.22,38H55.51a1.55,1.55,0,0,0,1.16-.48,1.63,1.63,0,0,0,.48-1.18,1.62,1.62,0,0,0-1.64-1.64H45.22a1.55,1.55,0,0,0-1.16.48,1.64,1.64,0,0,0-.48,1.19A1.62,1.62,0,0,0,45.22,38Zm5-5.22a1.69,1.69,0,0,0,1.26-.53A1.77,1.77,0,0,0,52,31a1.74,1.74,0,0,0-.51-1.25,1.69,1.69,0,0,0-1.26-.53,1.72,1.72,0,0,0-1.26.52,1.74,1.74,0,0,0-.5,1.26,1.81,1.81,0,0,0,.5,1.28A1.69,1.69,0,0,0,50.23,32.82Zm0,10.73A1.69,1.69,0,0,0,51.49,43,1.74,1.74,0,0,0,52,41.77a1.77,1.77,0,0,0-.51-1.28,1.76,1.76,0,0,0-2.52,0,1.81,1.81,0,0,0-.5,1.28A1.74,1.74,0,0,0,49,43,1.68,1.68,0,0,0,50.23,43.55ZM72,40.32H66.46l3.94-4a12.64,12.64,0,0,0,2.32-3.12,7,7,0,0,0,.69-3.1,5.18,5.18,0,0,0-.85-2.91,5.44,5.44,0,0,0-2.41-1.94,8.81,8.81,0,0,0-3.61-.68,11.29,11.29,0,0,0-6.14,1.89,1.77,1.77,0,0,0-.68.72A2.7,2.7,0,0,0,60,29.64a1.42,1.42,0,0,0,1.17.62,1.77,1.77,0,0,0,.52-.08,3.43,3.43,0,0,0,.57-.26c.22-.13.36-.2.44-.24l.55-.28a15.25,15.25,0,0,1,1.57-.68,4.48,4.48,0,0,1,1.49-.24,2.21,2.21,0,0,1,1.54.5,1.89,1.89,0,0,1,.54,1.45A5.43,5.43,0,0,1,66.57,34L60.68,40.1a3.05,3.05,0,0,0-1,2.17,2.09,2.09,0,0,0,.58,1.51,2.12,2.12,0,0,0,1.59.6H72a2.79,2.79,0,0,0,1.82-.5,1.9,1.9,0,0,0,.6-1.55,1.83,1.83,0,0,0-.6-1.52A2.85,2.85,0,0,0,72,40.32Zm8.43,7.51a19,19,0,0,0,3.11-10.76,18.91,18.91,0,0,0-3.11-10.81,3.52,3.52,0,0,0-1.13-1.14,2.49,2.49,0,0,0-1.27-.39,1.56,1.56,0,0,0-1.09.4,1.43,1.43,0,0,0-.43,1.1,2.7,2.7,0,0,0,.19,1A24.53,24.53,0,0,1,78.1,32a29.41,29.41,0,0,1,.42,5.1,28.42,28.42,0,0,1-.42,5,26.24,26.24,0,0,1-1.36,4.76,2.7,2.7,0,0,0-.19,1A1.39,1.39,0,0,0,77,49a1.49,1.49,0,0,0,1.07.41A2.53,2.53,0,0,0,79.34,49,3.52,3.52,0,0,0,80.47,47.83ZM39.26,72.2h5.23a2.52,2.52,0,0,0,1.73-.51,1.82,1.82,0,0,0,.57-1.43,1.79,1.79,0,0,0-.57-1.42,2.57,2.57,0,0,0-1.73-.5H39.26c-1.54,0-2.3.64-2.3,1.92S37.72,72.2,39.26,72.2Zm23.13-1.66h-.62v-10A2.36,2.36,0,0,0,61,58.64a2.64,2.64,0,0,0-1.8-.67,2.85,2.85,0,0,0-1.24.29,2.62,2.62,0,0,0-1,.85L49.05,70.45a3.13,3.13,0,0,0-.62,1.84A2.14,2.14,0,0,0,49,73.82a2.1,2.1,0,0,0,1.58.61h6.2v.94a2.29,2.29,0,0,0,2.47,2.53,2.55,2.55,0,0,0,1.81-.64,2.43,2.43,0,0,0,.69-1.89v-.94h.62c1.61,0,2.41-.66,2.41-2S64,70.54,62.39,70.54Zm-8.92,0,3.33-4.81v4.81Z"/></svg>