<svg id="Layer_1" data-name="Layer 1" xmlns="http://www.w3.org/2000/svg" viewBox="0 0 100 100"><title>l5_4_1</title><path d="M83.08,100.22H16A16.46,16.46,0,0,1-.45,83.75V16.69A16.46,16.46,0,0,1,16,.22H83.08A16.47,16.47,0,0,1,99.55,16.69V83.75A16.47,16.47,0,0,1,83.08,100.22ZM19.29,48.27a3.42,3.42,0,0,0,1.13,1.14,2.46,2.46,0,0,0,1.26.39,1.58,1.58,0,0,0,1.1-.4,1.43,1.43,0,0,0,.43-1.1,2.7,2.7,0,0,0-.19-1,26.07,26.07,0,0,1-1.37-4.76,29.42,29.42,0,0,1-.41-5.05,30.46,30.46,0,0,1,.41-5.1A24.57,24.57,0,0,1,23,27.65a2.7,2.7,0,0,0,.19-1,1.45,1.45,0,0,0-.43-1.12,1.54,1.54,0,0,0-1.1-.4,2.38,2.38,0,0,0-1.26.4,3.55,3.55,0,0,0-1.13,1.15,18.91,18.91,0,0,0-3.11,10.81A19,19,0,0,0,19.29,48.27ZM34.52,31.93a5.42,5.42,0,0,0-2.35.51,4.35,4.35,0,0,0-1.7,1.4,7.3,7.3,0,0,1,1-3.62,2.66,2.66,0,0,1,2.29-1.29,3.71,3.71,0,0,1,1.28.22q.62.23,1.53.66l.61.31a8.15,8.15,0,0,0,.83.4,1.75,1.75,0,0,0,.7.13,1.48,1.48,0,0,0,1.18-.6,2.26,2.26,0,0,0,.49-1.46,2,2,0,0,0-.21-1,2.46,2.46,0,0,0-.68-.75,8.84,8.84,0,0,0-2.8-1.39,10.86,10.86,0,0,0-3.18-.5,7.54,7.54,0,0,0-4.32,1.25,8,8,0,0,0-2.86,3.57,13.42,13.42,0,0,0-1,5.43c0,3.15.72,5.58,2.14,7.29a7.48,7.48,0,0,0,6.06,2.55,7.1,7.1,0,0,0,3.53-.86,6.1,6.1,0,0,0,2.43-2.4,6.88,6.88,0,0,0,.88-3.49A7,7,0,0,0,39.62,35a5.7,5.7,0,0,0-2.09-2.28A5.6,5.6,0,0,0,34.52,31.93Zm-1.28,9.22a2.22,2.22,0,0,1-1.72-.73,2.76,2.76,0,0,1-.67-1.91,2.72,2.72,0,0,1,.66-1.91,2.45,2.45,0,0,1,3.47,0,3.24,3.24,0,0,1,0,3.85A2.2,2.2,0,0,1,33.24,41.15Zm11.32-2.66H54.84A1.6,1.6,0,0,0,56,38a1.65,1.65,0,0,0,.47-1.18,1.61,1.61,0,0,0-1.64-1.64H44.56a1.53,1.53,0,0,0-1.17.49,1.59,1.59,0,0,0-.47,1.18,1.62,1.62,0,0,0,1.64,1.64Zm5-5.23a1.66,1.66,0,0,0,1.26-.53,1.8,1.8,0,0,0,0-2.53,1.79,1.79,0,0,0-2.51,0,1.74,1.74,0,0,0-.5,1.26,1.79,1.79,0,0,0,.5,1.28A1.62,1.62,0,0,0,49.56,33.26Zm0,10.73a1.79,1.79,0,0,0,1.78-1.78,1.74,1.74,0,0,0-.52-1.28,1.69,1.69,0,0,0-1.26-.53,1.65,1.65,0,0,0-1.25.53,1.81,1.81,0,0,0-.5,1.28,1.78,1.78,0,0,0,.5,1.27A1.67,1.67,0,0,0,49.56,44Zm21.82-3.22H65.79l3.95-4a13.41,13.41,0,0,0,2.32-3.13,7.08,7.08,0,0,0,.68-3.1,5,5,0,0,0-.85-2.9,5.36,5.36,0,0,0-2.4-1.95A9.06,9.06,0,0,0,65.87,25a11.05,11.05,0,0,0-3.21.5,10.85,10.85,0,0,0-2.93,1.39,1.84,1.84,0,0,0-.68.72,2.39,2.39,0,0,0-.18,1,2.43,2.43,0,0,0,.47,1.49,1.42,1.42,0,0,0,1.17.62,1.59,1.59,0,0,0,.53-.08,3.35,3.35,0,0,0,.57-.26l.43-.24.55-.28a16.25,16.25,0,0,1,1.57-.68,4.48,4.48,0,0,1,1.49-.23,2.15,2.15,0,0,1,1.54.5,1.83,1.83,0,0,1,.55,1.44A5.43,5.43,0,0,1,65.9,34.4L60,40.54a3,3,0,0,0-.94,2.17,2.09,2.09,0,0,0,.58,1.52,2.14,2.14,0,0,0,1.58.59H71.38a2.76,2.76,0,0,0,1.82-.5,1.9,1.9,0,0,0,.6-1.55,1.85,1.85,0,0,0-.6-1.52A2.89,2.89,0,0,0,71.38,40.77Zm8.42,7.5a19,19,0,0,0,3.11-10.76A18.91,18.91,0,0,0,79.8,26.7a3.42,3.42,0,0,0-1.13-1.14,2.43,2.43,0,0,0-1.26-.39,1.54,1.54,0,0,0-1.1.41,1.41,1.41,0,0,0-.43,1.09,2.7,2.7,0,0,0,.19,1,24.57,24.57,0,0,1,1.37,4.76,30.46,30.46,0,0,1,.41,5.1,29.42,29.42,0,0,1-.41,5.05,26.07,26.07,0,0,1-1.37,4.76,2.7,2.7,0,0,0-.19,1,1.43,1.43,0,0,0,.43,1.1,1.54,1.54,0,0,0,1.07.4,2.48,2.48,0,0,0,1.29-.39A3.42,3.42,0,0,0,79.8,48.27ZM38.6,72.64h5.22a2.55,2.55,0,0,0,1.74-.51,1.82,1.82,0,0,0,.57-1.43,1.79,1.79,0,0,0-.57-1.42,2.6,2.6,0,0,0-1.74-.5H38.6q-2.31,0-2.31,1.92C36.29,72,37.06,72.64,38.6,72.64Zm18.81-7.36a5.42,5.42,0,0,0-2.35.51,4.48,4.48,0,0,0-1.71,1.41,7.41,7.41,0,0,1,1-3.63,2.65,2.65,0,0,1,2.29-1.29A3.71,3.71,0,0,1,58,62.5c.4.15.91.37,1.53.67l.61.3c.35.19.63.32.83.41a1.94,1.94,0,0,0,.7.12,1.48,1.48,0,0,0,1.18-.6,2.25,2.25,0,0,0,.48-1.46,2.15,2.15,0,0,0-.2-1,2.38,2.38,0,0,0-.69-.75,8.68,8.68,0,0,0-2.79-1.39,10.86,10.86,0,0,0-3.18-.5,7.54,7.54,0,0,0-4.32,1.25,8.15,8.15,0,0,0-2.87,3.57,13.61,13.61,0,0,0-1,5.44c0,3.15.71,5.57,2.14,7.28a7.49,7.49,0,0,0,6.06,2.56A7.13,7.13,0,0,0,60,77.56a6.1,6.1,0,0,0,2.43-2.4,7.39,7.39,0,0,0,.11-6.78,5.78,5.78,0,0,0-2.1-2.28A5.59,5.59,0,0,0,57.41,65.28Zm-1.28,9.23a2.22,2.22,0,0,1-1.72-.74,3.08,3.08,0,0,1,0-3.82,2.47,2.47,0,0,1,3.47,0,3.28,3.28,0,0,1,0,3.85A2.17,2.17,0,0,1,56.13,74.51Z"/></svg>