<svg id="Layer_1" data-name="Layer 1" xmlns="http://www.w3.org/2000/svg" viewBox="0 0 100 100"><title>l5_4_1</title><path d="M83.53,99.78H16.47A16.47,16.47,0,0,1,0,83.31V16.25A16.47,16.47,0,0,1,16.47-.22H83.53A16.47,16.47,0,0,1,100,16.25V83.31A16.47,16.47,0,0,1,83.53,99.78ZM19.75,47.83A3.4,3.4,0,0,0,20.87,49a2.49,2.49,0,0,0,1.27.39,1.56,1.56,0,0,0,1.1-.41,1.43,1.43,0,0,0,.43-1.09,2.72,2.72,0,0,0-.2-1,26.24,26.24,0,0,1-1.36-4.76,28.42,28.42,0,0,1-.42-5,29.41,29.41,0,0,1,.42-5.1,24.53,24.53,0,0,1,1.36-4.76,2.72,2.72,0,0,0,.2-1,1.48,1.48,0,0,0-.43-1.12,1.56,1.56,0,0,0-1.1-.41,2.43,2.43,0,0,0-1.27.41,3.53,3.53,0,0,0-1.12,1.15,18.84,18.84,0,0,0-3.12,10.81A18.91,18.91,0,0,0,19.75,47.83ZM39.29,37.18h-.62v-10a2.35,2.35,0,0,0-.75-1.86,2.59,2.59,0,0,0-1.8-.67,2.85,2.85,0,0,0-1.24.29,2.62,2.62,0,0,0-1,.85L25.94,37.1a3.16,3.16,0,0,0-.61,1.83,2.1,2.1,0,0,0,.59,1.53,2.06,2.06,0,0,0,1.58.61h6.2v1a2.29,2.29,0,0,0,2.47,2.53A2.55,2.55,0,0,0,38,43.91,2.46,2.46,0,0,0,38.67,42v-1h.62c1.61,0,2.41-.65,2.41-2S40.9,37.18,39.29,37.18Zm-8.93,0,3.34-4.8v4.8ZM45,38H55.29a1.56,1.56,0,0,0,1.17-.48,1.62,1.62,0,0,0,.47-1.18,1.57,1.57,0,0,0-.47-1.17,1.59,1.59,0,0,0-1.17-.47H45a1.59,1.59,0,0,0-1.17.48,1.67,1.67,0,0,0-.47,1.19A1.61,1.61,0,0,0,45,38Zm5-5.22a1.73,1.73,0,0,0,1.27-.53A1.77,1.77,0,0,0,51.79,31,1.78,1.78,0,0,0,50,29.23a1.7,1.7,0,0,0-1.25.52,1.74,1.74,0,0,0-.5,1.26,1.81,1.81,0,0,0,.5,1.28A1.67,1.67,0,0,0,50,32.82Zm0,10.73a1.78,1.78,0,0,0,1.78-1.78,1.77,1.77,0,0,0-.51-1.28A1.73,1.73,0,0,0,50,40a1.67,1.67,0,0,0-1.25.53,1.81,1.81,0,0,0-.5,1.28,1.74,1.74,0,0,0,.5,1.26A1.66,1.66,0,0,0,50,43.55Zm21.82-3.23H66.24l4-4a12.91,12.91,0,0,0,2.32-3.12,6.94,6.94,0,0,0,.68-3.1,5.17,5.17,0,0,0-.84-2.91,5.44,5.44,0,0,0-2.41-1.94,8.84,8.84,0,0,0-3.61-.68,10.63,10.63,0,0,0-3.21.5,10.42,10.42,0,0,0-2.93,1.39,1.77,1.77,0,0,0-.68.72,2.23,2.23,0,0,0-.19,1,2.37,2.37,0,0,0,.48,1.49,1.41,1.41,0,0,0,1.16.62,1.78,1.78,0,0,0,.53-.08,3.43,3.43,0,0,0,.57-.26c.21-.13.36-.2.43-.24l.56-.28a12.65,12.65,0,0,1,1.57-.68,4.44,4.44,0,0,1,1.49-.24,2.21,2.21,0,0,1,1.54.5,1.89,1.89,0,0,1,.54,1.45A5.43,5.43,0,0,1,66.36,34l-5.9,6.14a3,3,0,0,0-.94,2.17,2.05,2.05,0,0,0,.58,1.51,2.12,2.12,0,0,0,1.59.6H71.83a2.8,2.8,0,0,0,1.82-.5,1.9,1.9,0,0,0,.6-1.55,1.83,1.83,0,0,0-.6-1.52A2.87,2.87,0,0,0,71.83,40.32Zm8.42,7.51a18.91,18.91,0,0,0,3.12-10.76,18.84,18.84,0,0,0-3.12-10.81,3.4,3.4,0,0,0-1.12-1.14,2.49,2.49,0,0,0-1.27-.39,1.6,1.6,0,0,0-1.1.4,1.47,1.47,0,0,0-.43,1.1,2.72,2.72,0,0,0,.2,1A24.53,24.53,0,0,1,77.89,32a29.41,29.41,0,0,1,.42,5.1,28.42,28.42,0,0,1-.42,5,26.24,26.24,0,0,1-1.36,4.76,2.72,2.72,0,0,0-.2,1A1.43,1.43,0,0,0,76.76,49a1.52,1.52,0,0,0,1.07.41,2.54,2.54,0,0,0,1.3-.39A3.4,3.4,0,0,0,80.25,47.83ZM39.05,72.2h5.22A2.55,2.55,0,0,0,46,71.69a1.82,1.82,0,0,0,.57-1.43A1.79,1.79,0,0,0,46,68.84a2.6,2.6,0,0,0-1.74-.5H39.05q-2.31,0-2.31,1.92C36.74,71.55,37.51,72.2,39.05,72.2Zm23.12-1.66h-.61v-10a2.36,2.36,0,0,0-.75-1.86A2.64,2.64,0,0,0,59,58a2.85,2.85,0,0,0-1.24.29,2.62,2.62,0,0,0-1,.85l-8,11.34a3.12,3.12,0,0,0-.61,1.84,2.13,2.13,0,0,0,.58,1.52,2.09,2.09,0,0,0,1.59.62h6.2v.94a2.43,2.43,0,0,0,.68,1.89,2.49,2.49,0,0,0,1.79.64,2.57,2.57,0,0,0,1.81-.64,2.43,2.43,0,0,0,.69-1.89v-.94h.61c1.62,0,2.42-.66,2.42-2S63.79,70.54,62.17,70.54Zm-8.92,0,3.34-4.81v4.81Z"/></svg>