<svg id="Layer_1" data-name="Layer 1" xmlns="http://www.w3.org/2000/svg" viewBox="0 0 100 100"><title>l5_5_1</title><path d="M83.53,100H16.47A16.47,16.47,0,0,1,0,83.53V16.47A16.47,16.47,0,0,1,16.47,0H83.53A16.47,16.47,0,0,1,100,16.47V83.53A16.47,16.47,0,0,1,83.53,100ZM8.79,65.45a4,4,0,0,0,1.3,1.31,2.81,2.81,0,0,0,1.45.45,1.78,1.78,0,0,0,1.27-.47,1.64,1.64,0,0,0,.49-1.26,3.05,3.05,0,0,0-.22-1.12,29.68,29.68,0,0,1-1.57-5.49A32.91,32.91,0,0,1,11,53.06a34,34,0,0,1,.48-5.87,28,28,0,0,1,1.57-5.49,3,3,0,0,0,.22-1.12,1.68,1.68,0,0,0-.49-1.29,1.78,1.78,0,0,0-1.27-.47,2.76,2.76,0,0,0-1.45.47,4.1,4.1,0,0,0-1.3,1.32A21.76,21.76,0,0,0,5.21,53.06,21.84,21.84,0,0,0,8.79,65.45ZM28.47,49.86A5.19,5.19,0,0,0,31,47.93a5.4,5.4,0,0,0,.91-3.09,5.61,5.61,0,0,0-1-3.27,6.31,6.31,0,0,0-2.78-2.17A10.67,10.67,0,0,0,24,38.63a12.64,12.64,0,0,0-3.79.58A10.39,10.39,0,0,0,17,40.81a2.54,2.54,0,0,0-.77.86A2.48,2.48,0,0,0,16,42.79a2.64,2.64,0,0,0,.54,1.68,1.66,1.66,0,0,0,1.35.69,2.24,2.24,0,0,0,.8-.14c.23-.1.55-.26,1-.47l.67-.32A17.11,17.11,0,0,1,22,43.46a4.94,4.94,0,0,1,1.68-.28,2.75,2.75,0,0,1,2,.65,2.43,2.43,0,0,1,.7,1.84,1.79,1.79,0,0,1-.8,1.63,4.92,4.92,0,0,1-2.56.51H21.59a1.82,1.82,0,0,0-1.5.68,2.6,2.6,0,0,0,0,3.2,1.81,1.81,0,0,0,1.5.67h2a4.83,4.83,0,0,1,2.62.54,2,2,0,0,1,.8,1.79,2.22,2.22,0,0,1-.78,1.92,4.43,4.43,0,0,1-2.58.58,5.84,5.84,0,0,1-1.84-.27A14.31,14.31,0,0,1,20,56.14l-.4-.18-.3-.15c-.41-.21-.73-.36-1-.46a2.28,2.28,0,0,0-.8-.14,1.65,1.65,0,0,0-1.35.69,2.59,2.59,0,0,0-.54,1.67,2.53,2.53,0,0,0,.22,1.11,2.58,2.58,0,0,0,.77.88,10.54,10.54,0,0,0,3.33,1.62,14.31,14.31,0,0,0,4,.55A12.11,12.11,0,0,0,28.46,61a6.73,6.73,0,0,0,3-2.22,6.11,6.11,0,0,0,0-6.88A5.47,5.47,0,0,0,28.47,49.86Zm17.83,2.4,3.45-3.42a1.87,1.87,0,0,0,.58-1.38,1.66,1.66,0,0,0-.58-1.31,1.79,1.79,0,0,0-1.34-.58,1.89,1.89,0,0,0-1.35.58l-3.45,3.46-3.46-3.46a1.87,1.87,0,0,0-1.34-.61,1.68,1.68,0,0,0-1.32.58,1.87,1.87,0,0,0-.57,1.37,2,2,0,0,0,.54,1.35l3.46,3.42-3.46,3.46a1.84,1.84,0,0,0-.57,1.34,1.88,1.88,0,0,0,.57,1.35,2,2,0,0,0,1.35.54,1.82,1.82,0,0,0,1.34-.54L43.61,55l3.45,3.46a1.88,1.88,0,0,0,1.35.57,1.91,1.91,0,0,0,1.89-1.92,1.77,1.77,0,0,0-.55-1.34Zm22.46,4.55H62.33l4.54-4.64a15.14,15.14,0,0,0,2.67-3.6A8,8,0,0,0,70.33,45a5.91,5.91,0,0,0-1-3.35,6.27,6.27,0,0,0-2.77-2.24,10.33,10.33,0,0,0-4.16-.78,12.34,12.34,0,0,0-3.69.58,12.11,12.11,0,0,0-3.38,1.6,2.09,2.09,0,0,0-.78.83,2.72,2.72,0,0,0-.21,1.15,2.77,2.77,0,0,0,.54,1.71,1.64,1.64,0,0,0,1.35.72,2.1,2.1,0,0,0,.61-.09,4.13,4.13,0,0,0,.65-.31l.5-.27.64-.32a15.34,15.34,0,0,1,1.8-.78,5.3,5.3,0,0,1,1.72-.27,2.51,2.51,0,0,1,1.77.57,2.15,2.15,0,0,1,.63,1.66q0,1.86-2.12,4.07l-6.78,7.07a3.54,3.54,0,0,0-1.09,2.5,2.34,2.34,0,0,0,2.5,2.43H68.76a3.19,3.19,0,0,0,2.1-.58,2.22,2.22,0,0,0,.68-1.79,2.13,2.13,0,0,0-.68-1.74A3.25,3.25,0,0,0,68.76,56.81Zm9.69,8.64A21.84,21.84,0,0,0,82,53.06a21.76,21.76,0,0,0-3.59-12.45,3.94,3.94,0,0,0-1.29-1.31,2.84,2.84,0,0,0-1.46-.45,1.77,1.77,0,0,0-1.26.47,1.65,1.65,0,0,0-.5,1.26,3,3,0,0,0,.23,1.12,29.48,29.48,0,0,1,1.57,5.49,34.06,34.06,0,0,1,.47,5.87,33,33,0,0,1-.47,5.81,31.32,31.32,0,0,1-1.57,5.49,3.07,3.07,0,0,0-.23,1.12,1.65,1.65,0,0,0,.5,1.26,1.73,1.73,0,0,0,1.23.47,2.89,2.89,0,0,0,1.49-.45A3.94,3.94,0,0,0,78.45,65.45ZM94.32,43.26H89.51l3.4-3.47a11.35,11.35,0,0,0,2-2.69,6.08,6.08,0,0,0,.59-2.67,4.4,4.4,0,0,0-.73-2.5,4.68,4.68,0,0,0-2.07-1.68,7.79,7.79,0,0,0-3.12-.59,9.56,9.56,0,0,0-2.76.43,9.38,9.38,0,0,0-2.53,1.2,1.6,1.6,0,0,0-.58.62,2,2,0,0,0-.16.86A2.09,2.09,0,0,0,84,34.06a1.22,1.22,0,0,0,1,.53,1.43,1.43,0,0,0,.46-.07,2.61,2.61,0,0,0,.49-.23l.37-.2.48-.24a11.38,11.38,0,0,1,1.35-.58,3.78,3.78,0,0,1,1.28-.21,1.91,1.91,0,0,1,1.33.43,1.62,1.62,0,0,1,.47,1.25,4.68,4.68,0,0,1-1.58,3l-5.08,5.29a2.63,2.63,0,0,0-.81,1.87,1.8,1.8,0,0,0,.5,1.3,1.84,1.84,0,0,0,1.37.51h8.73a2.37,2.37,0,0,0,1.57-.43A1.65,1.65,0,0,0,96.41,45a1.59,1.59,0,0,0-.52-1.3A2.43,2.43,0,0,0,94.32,43.26Z"/></svg>