<svg id="Layer_1" data-name="Layer 1" xmlns="http://www.w3.org/2000/svg" viewBox="0 0 100 100"><title>l5_5_1</title><path d="M83.71,100H16.65A16.47,16.47,0,0,1,.18,83.53V16.47A16.47,16.47,0,0,1,16.65,0H83.71a16.47,16.47,0,0,1,16.47,16.47V83.53A16.47,16.47,0,0,1,83.71,100ZM11.56,65.58a3.94,3.94,0,0,0,1.29,1.31,2.92,2.92,0,0,0,1.46.44,1.76,1.76,0,0,0,1.26-.46,1.64,1.64,0,0,0,.49-1.26,3.05,3.05,0,0,0-.22-1.12A29.5,29.5,0,0,1,14.27,59a32.83,32.83,0,0,1-.47-5.8,33.82,33.82,0,0,1,.47-5.85,27.74,27.74,0,0,1,1.57-5.48,3,3,0,0,0,.22-1.11,1.69,1.69,0,0,0-.49-1.3A1.81,1.81,0,0,0,14.31,39a2.86,2.86,0,0,0-1.46.46,4,4,0,0,0-1.29,1.33A21.68,21.68,0,0,0,8,53.22,21.81,21.81,0,0,0,11.56,65.58ZM29.05,46.81a6.21,6.21,0,0,0-2.7.59,5,5,0,0,0-2,1.61,8.48,8.48,0,0,1,1.2-4.16,3.06,3.06,0,0,1,2.63-1.49,4.29,4.29,0,0,1,1.47.26,18.65,18.65,0,0,1,1.75.76l.71.35a10,10,0,0,0,1,.47,2.14,2.14,0,0,0,.79.14,1.7,1.7,0,0,0,1.36-.69A2.55,2.55,0,0,0,35.82,43a2.35,2.35,0,0,0-.24-1.12A2.79,2.79,0,0,0,34.8,41a10.49,10.49,0,0,0-3.21-1.6,12.5,12.5,0,0,0-3.66-.57,8.64,8.64,0,0,0-5,1.44,9.29,9.29,0,0,0-3.29,4.1,15.54,15.54,0,0,0-1.16,6.24c0,3.62.82,6.4,2.46,8.36a8.54,8.54,0,0,0,7,2.94,8.25,8.25,0,0,0,4.06-1,7.12,7.12,0,0,0,2.79-2.76,8,8,0,0,0,1-4,8.07,8.07,0,0,0-.88-3.78,6.64,6.64,0,0,0-2.41-2.62A6.43,6.43,0,0,0,29.05,46.81Zm-1.47,10.6a2.56,2.56,0,0,1-2-.85,3.12,3.12,0,0,1-.76-2.19,3.17,3.17,0,0,1,.75-2.2,2.84,2.84,0,0,1,4,0,3.73,3.73,0,0,1,0,4.43A2.52,2.52,0,0,1,27.58,57.41Zm13.25-2.14h6a2.9,2.9,0,0,0,2-.59A2.12,2.12,0,0,0,49.48,53a2.06,2.06,0,0,0-.66-1.63,3,3,0,0,0-2-.57h-6c-1.77,0-2.65.73-2.65,2.2S39.06,55.27,40.83,55.27ZM64.58,50a5.14,5.14,0,0,0,2.53-1.93A5.28,5.28,0,0,0,68,45a5.54,5.54,0,0,0-1-3.25,6.24,6.24,0,0,0-2.78-2.17,10.57,10.57,0,0,0-4.16-.77,13,13,0,0,0-3.79.57A10.72,10.72,0,0,0,53.09,41a2.52,2.52,0,0,0-.77.86A2.48,2.48,0,0,0,52.1,43a2.59,2.59,0,0,0,.54,1.67,1.65,1.65,0,0,0,1.34.69,2.24,2.24,0,0,0,.8-.14c.23-.1.55-.25.95-.47l.67-.31a17.11,17.11,0,0,1,1.74-.77,4.9,4.9,0,0,1,1.68-.29,2.74,2.74,0,0,1,2,.66,2.35,2.35,0,0,1,.7,1.83,1.79,1.79,0,0,1-.8,1.63,4.87,4.87,0,0,1-2.55.51H57.71a1.81,1.81,0,0,0-1.5.67,2.63,2.63,0,0,0,0,3.19,1.81,1.81,0,0,0,1.5.67h2a4.83,4.83,0,0,1,2.62.54,2,2,0,0,1,.8,1.79,2.23,2.23,0,0,1-.78,1.92,4.48,4.48,0,0,1-2.57.57,5.79,5.79,0,0,1-1.84-.27,14.24,14.24,0,0,1-1.83-.78,3.89,3.89,0,0,1-.4-.18L55.38,56c-.4-.21-.72-.37-1-.46a2,2,0,0,0-.8-.15,1.65,1.65,0,0,0-1.34.69,2.65,2.65,0,0,0-.55,1.68,2.25,2.25,0,0,0,1,2,10.38,10.38,0,0,0,3.32,1.62,14.29,14.29,0,0,0,4,.55,12,12,0,0,0,4.52-.78,6.65,6.65,0,0,0,3-2.22,5.49,5.49,0,0,0,1.06-3.38A5.69,5.69,0,0,0,67.53,52,5.47,5.47,0,0,0,64.58,50ZM76.1,65.58a21.81,21.81,0,0,0,3.57-12.36A21.68,21.68,0,0,0,76.1,40.81a3.94,3.94,0,0,0-1.29-1.31,2.84,2.84,0,0,0-1.46-.45,1.77,1.77,0,0,0-1.26.47,1.63,1.63,0,0,0-.49,1.26,3,3,0,0,0,.22,1.11,27.7,27.7,0,0,1,1.56,5.48,33.79,33.79,0,0,1,.48,5.85,32.8,32.8,0,0,1-.48,5.8,29.44,29.44,0,0,1-1.56,5.47,3.05,3.05,0,0,0-.22,1.12,1.64,1.64,0,0,0,.49,1.26,1.72,1.72,0,0,0,1.23.46,3,3,0,0,0,1.49-.44A4,4,0,0,0,76.1,65.58ZM93.39,43.4H88.58L92,39.93a11.45,11.45,0,0,0,2-2.7,6,6,0,0,0,.58-2.66,4.38,4.38,0,0,0-.73-2.51,4.73,4.73,0,0,0-2.07-1.67,7.7,7.7,0,0,0-3.11-.59,9.67,9.67,0,0,0-2.77.43,9.46,9.46,0,0,0-2.52,1.2,1.63,1.63,0,0,0-.59.62,2.14,2.14,0,0,0-.15.86,2,2,0,0,0,.4,1.28,1.22,1.22,0,0,0,1,.54,1.33,1.33,0,0,0,.45-.07,2.34,2.34,0,0,0,.49-.23l.38-.2.47-.24a12.76,12.76,0,0,1,1.36-.59,4,4,0,0,1,1.28-.2,2,2,0,0,1,1.33.43,1.62,1.62,0,0,1,.46,1.25,4.64,4.64,0,0,1-1.58,3L83.6,43.21a2.64,2.64,0,0,0-.82,1.86,1.78,1.78,0,0,0,.51,1.31,1.82,1.82,0,0,0,1.36.51h8.74A2.41,2.41,0,0,0,95,46.46a1.64,1.64,0,0,0,.51-1.34,1.58,1.58,0,0,0-.51-1.3A2.47,2.47,0,0,0,93.39,43.4Z"/></svg>