<svg id="Layer_1" data-name="Layer 1" xmlns="http://www.w3.org/2000/svg" viewBox="0 0 100 100"><title>l5_5_1</title><path d="M83.44,100H16.38A16.47,16.47,0,0,1-.09,83.53V16.47A16.47,16.47,0,0,1,16.38,0H83.44A16.47,16.47,0,0,1,99.91,16.47V83.53A16.47,16.47,0,0,1,83.44,100ZM11.29,65.58a4,4,0,0,0,1.3,1.31,2.89,2.89,0,0,0,1.45.44,1.76,1.76,0,0,0,1.26-.46,1.64,1.64,0,0,0,.49-1.26,3.05,3.05,0,0,0-.22-1.12A29.44,29.44,0,0,1,14,59a32.8,32.8,0,0,1-.48-5.8A33.79,33.79,0,0,1,14,47.37a27.7,27.7,0,0,1,1.56-5.48,3,3,0,0,0,.22-1.11,1.69,1.69,0,0,0-.49-1.3A1.81,1.81,0,0,0,14,39a2.83,2.83,0,0,0-1.45.46,4,4,0,0,0-1.3,1.33A21.68,21.68,0,0,0,7.72,53.22,21.81,21.81,0,0,0,11.29,65.58Zm22-26.46H20.8a3.08,3.08,0,0,0-2.1.59A2.21,2.21,0,0,0,18,41.48a2.15,2.15,0,0,0,.65,1.72,3.14,3.14,0,0,0,2.12.58h8l-8.2,14a3,3,0,0,0-.45,1.53A2.37,2.37,0,0,0,21,61.16a3,3,0,0,0,2,.75,2.81,2.81,0,0,0,1.36-.37,3,3,0,0,0,1.1-1.13L35.1,43.65a4,4,0,0,0,.61-2.11,2.52,2.52,0,0,0-.62-1.74A2.31,2.31,0,0,0,33.32,39.12Zm7.24,16.15h6a3,3,0,0,0,2-.59A2.15,2.15,0,0,0,49.21,53a2.09,2.09,0,0,0-.65-1.63,3,3,0,0,0-2-.57h-6c-1.77,0-2.65.74-2.65,2.2S38.79,55.27,40.56,55.27Zm26.55-1.92h-.7V41.83a2.7,2.7,0,0,0-.86-2.14,3,3,0,0,0-2.07-.76,3.21,3.21,0,0,0-1.42.33,3,3,0,0,0-1.14,1l-9.13,13a3.62,3.62,0,0,0-.7,2.1,2.47,2.47,0,0,0,.67,1.76,2.4,2.4,0,0,0,1.82.7H60.7v1.09a2.85,2.85,0,0,0,.78,2.17,2.88,2.88,0,0,0,2.06.73,2.93,2.93,0,0,0,2.07-.73,2.79,2.79,0,0,0,.8-2.17V57.82h.7c1.86,0,2.78-.75,2.78-2.27S69,53.35,67.11,53.35Zm-10.24,0,3.83-5.52v5.52Zm19,12.23A21.81,21.81,0,0,0,79.4,53.22a21.68,21.68,0,0,0-3.57-12.41,3.94,3.94,0,0,0-1.29-1.31,2.84,2.84,0,0,0-1.46-.45,1.77,1.77,0,0,0-1.26.47,1.63,1.63,0,0,0-.49,1.26,3,3,0,0,0,.22,1.11,27.7,27.7,0,0,1,1.56,5.48,33.79,33.79,0,0,1,.48,5.85,32.8,32.8,0,0,1-.48,5.8,29.44,29.44,0,0,1-1.56,5.47,3.05,3.05,0,0,0-.22,1.12,1.64,1.64,0,0,0,.49,1.26,1.72,1.72,0,0,0,1.23.46,3,3,0,0,0,1.49-.44A4,4,0,0,0,75.83,65.58ZM93.12,43.4H88.31l3.4-3.47a11.18,11.18,0,0,0,2-2.7,6,6,0,0,0,.58-2.66,4.33,4.33,0,0,0-.73-2.5,4.58,4.58,0,0,0-2.07-1.68,7.7,7.7,0,0,0-3.11-.59,9.67,9.67,0,0,0-2.77.43,9.46,9.46,0,0,0-2.52,1.2,1.63,1.63,0,0,0-.59.62,2.14,2.14,0,0,0-.15.86,2,2,0,0,0,.4,1.28,1.24,1.24,0,0,0,1,.54,1.33,1.33,0,0,0,.45-.07,2.66,2.66,0,0,0,.5-.23l.37-.2.48-.24a13.64,13.64,0,0,1,1.35-.59,4,4,0,0,1,1.28-.2,1.93,1.93,0,0,1,1.33.43A1.62,1.62,0,0,1,90,34.88a4.64,4.64,0,0,1-1.58,3l-5.07,5.29a2.62,2.62,0,0,0-.81,1.86,1.77,1.77,0,0,0,.5,1.31,1.82,1.82,0,0,0,1.36.51h8.74a2.41,2.41,0,0,0,1.57-.43,1.64,1.64,0,0,0,.51-1.34,1.58,1.58,0,0,0-.51-1.3A2.47,2.47,0,0,0,93.12,43.4Z"/></svg>