<svg id="Layer_1" data-name="Layer 1" xmlns="http://www.w3.org/2000/svg" viewBox="0 0 100 100"><title>l5_5_1</title><path d="M83.26,100H16.2A16.47,16.47,0,0,1-.27,83.53V16.47A16.47,16.47,0,0,1,16.2,0H83.26A16.47,16.47,0,0,1,99.73,16.47V83.53A16.47,16.47,0,0,1,83.26,100ZM8.57,65.59A3.94,3.94,0,0,0,9.86,66.9a2.84,2.84,0,0,0,1.46.45,1.77,1.77,0,0,0,1.26-.47,1.65,1.65,0,0,0,.5-1.26,3.07,3.07,0,0,0-.23-1.12A29.63,29.63,0,0,1,11.29,59a32,32,0,0,1-.49-5.81,33,33,0,0,1,.49-5.87,28,28,0,0,1,1.56-5.49,3,3,0,0,0,.23-1.12,1.69,1.69,0,0,0-.5-1.29A1.77,1.77,0,0,0,11.32,39a2.79,2.79,0,0,0-1.46.47,4.08,4.08,0,0,0-1.29,1.32A21.76,21.76,0,0,0,5,53.2,21.84,21.84,0,0,0,8.57,65.59ZM25.75,46.87a8.08,8.08,0,0,0-3.17.57V43.51h6.91c1.86,0,2.79-.75,2.79-2.24s-.93-2.21-2.79-2.21H19.57a2.72,2.72,0,0,0-2,.7,2.77,2.77,0,0,0-.71,2.05v8.67a1.76,1.76,0,0,0,.61,1.39,2.19,2.19,0,0,0,1.5.53,3,3,0,0,0,1.45-.35,10.12,10.12,0,0,1,1.84-.57A8.45,8.45,0,0,1,24,51.32a3.64,3.64,0,0,1,2.5.79,2.9,2.9,0,0,1,.89,2.25,2.78,2.78,0,0,1-.86,2.25,4.1,4.1,0,0,1-2.66.72A5.3,5.3,0,0,1,22.09,57a18.83,18.83,0,0,1-1.81-.76L19.64,56a9.69,9.69,0,0,0-1-.47,2.1,2.1,0,0,0-.8-.13,1.68,1.68,0,0,0-1.35.68A2.64,2.64,0,0,0,16,57.71a2.39,2.39,0,0,0,.24,1.11,2.87,2.87,0,0,0,.75.88,10.78,10.78,0,0,0,3.28,1.6,13.52,13.52,0,0,0,3.89.57,10.34,10.34,0,0,0,4.57-1,7.1,7.1,0,0,0,3.08-2.72,7.58,7.58,0,0,0,1.08-4.06A7.67,7.67,0,0,0,32,50.34a6.49,6.49,0,0,0-2.53-2.56A7.32,7.32,0,0,0,25.75,46.87ZM46.07,52.4,49.52,49a1.87,1.87,0,0,0,.58-1.38,1.66,1.66,0,0,0-.58-1.31,1.79,1.79,0,0,0-1.34-.58,1.85,1.85,0,0,0-1.34.58l-3.46,3.46-3.46-3.46a1.87,1.87,0,0,0-1.34-.61,1.66,1.66,0,0,0-1.31.58,1.84,1.84,0,0,0-.58,1.37A2,2,0,0,0,37.24,49l3.45,3.42-3.45,3.46a1.81,1.81,0,0,0-.58,1.34,1.85,1.85,0,0,0,.58,1.35,2,2,0,0,0,1.34.54,1.82,1.82,0,0,0,1.34-.54l3.46-3.46,3.46,3.46a1.86,1.86,0,0,0,2.68,0,1.82,1.82,0,0,0,.55-1.35,1.74,1.74,0,0,0-.55-1.34ZM66.64,50a5.19,5.19,0,0,0,2.55-1.93A5.33,5.33,0,0,0,70.1,45a5.61,5.61,0,0,0-1-3.27,6.31,6.31,0,0,0-2.78-2.17,10.67,10.67,0,0,0-4.18-.77,12.64,12.64,0,0,0-3.79.58A10.39,10.39,0,0,0,55.12,41a2.4,2.4,0,0,0-.76.86,2.48,2.48,0,0,0-.23,1.12,2.59,2.59,0,0,0,.55,1.68A1.65,1.65,0,0,0,56,45.3a2,2,0,0,0,.8-.15c.23-.09.55-.25,1-.46l.67-.32a16.27,16.27,0,0,1,1.75-.77,4.86,4.86,0,0,1,1.68-.28,2.74,2.74,0,0,1,1.95.65,2.39,2.39,0,0,1,.7,1.84,1.79,1.79,0,0,1-.8,1.63,4.92,4.92,0,0,1-2.56.51H59.76a1.82,1.82,0,0,0-1.5.68,2.64,2.64,0,0,0,0,3.2,1.81,1.81,0,0,0,1.5.67h2a4.83,4.83,0,0,1,2.62.54,2,2,0,0,1,.8,1.79,2.22,2.22,0,0,1-.78,1.92,4.41,4.41,0,0,1-2.58.58A5.88,5.88,0,0,1,60,57.06a14.31,14.31,0,0,1-1.84-.78l-.4-.18-.3-.15c-.41-.21-.73-.36-1-.46a2.24,2.24,0,0,0-.8-.14,1.68,1.68,0,0,0-1.35.68,2.64,2.64,0,0,0-.54,1.68A2.53,2.53,0,0,0,54,58.82a2.58,2.58,0,0,0,.77.88,10.54,10.54,0,0,0,3.33,1.62,14.31,14.31,0,0,0,4,.55,12.07,12.07,0,0,0,4.53-.78,6.68,6.68,0,0,0,3-2.22,6.06,6.06,0,0,0,0-6.88A5.47,5.47,0,0,0,66.64,50ZM78.2,65.59A21.84,21.84,0,0,0,81.78,53.2,21.76,21.76,0,0,0,78.2,40.75a4.07,4.07,0,0,0-1.3-1.31A2.84,2.84,0,0,0,75.44,39a1.77,1.77,0,0,0-1.26.47,1.65,1.65,0,0,0-.5,1.26,3,3,0,0,0,.23,1.12,28.73,28.73,0,0,1,1.57,5.49A33.94,33.94,0,0,1,76,53.2,32.91,32.91,0,0,1,75.48,59a30.48,30.48,0,0,1-1.57,5.49,3.07,3.07,0,0,0-.23,1.12,1.65,1.65,0,0,0,.5,1.26,1.73,1.73,0,0,0,1.23.47,2.89,2.89,0,0,0,1.49-.45A4.07,4.07,0,0,0,78.2,65.59ZM94.94,43.4H90.13l3.4-3.47a11.45,11.45,0,0,0,2-2.7,6,6,0,0,0,.58-2.66,4.33,4.33,0,0,0-.73-2.5,4.58,4.58,0,0,0-2.07-1.68,7.7,7.7,0,0,0-3.11-.59,9.67,9.67,0,0,0-2.77.43,9.46,9.46,0,0,0-2.52,1.2,1.63,1.63,0,0,0-.59.62,2.14,2.14,0,0,0-.15.86,2,2,0,0,0,.4,1.28,1.24,1.24,0,0,0,1,.54,1.33,1.33,0,0,0,.45-.07,2.66,2.66,0,0,0,.5-.23l.37-.2.48-.24a13.64,13.64,0,0,1,1.35-.59A4,4,0,0,1,90,33.2a1.93,1.93,0,0,1,1.33.43,1.62,1.62,0,0,1,.46,1.25,4.64,4.64,0,0,1-1.58,3l-5.07,5.29a2.62,2.62,0,0,0-.81,1.86,1.77,1.77,0,0,0,.5,1.31,1.82,1.82,0,0,0,1.36.51h8.74a2.41,2.41,0,0,0,1.57-.43A1.64,1.64,0,0,0,97,45.12a1.58,1.58,0,0,0-.51-1.3A2.47,2.47,0,0,0,94.94,43.4Z"/></svg>