<svg id="Layer_1" data-name="Layer 1" xmlns="http://www.w3.org/2000/svg" viewBox="0 0 100 100"><title>l5_5_1</title><path d="M83.26,100H16.2A16.47,16.47,0,0,1-.27,83.53V16.47A16.47,16.47,0,0,1,16.2,0H83.26A16.47,16.47,0,0,1,99.73,16.47V83.53A16.47,16.47,0,0,1,83.26,100ZM8.52,65.45a4.07,4.07,0,0,0,1.3,1.31,2.84,2.84,0,0,0,1.45.45,1.78,1.78,0,0,0,1.27-.47A1.64,1.64,0,0,0,13,65.48a3.05,3.05,0,0,0-.22-1.12,29.68,29.68,0,0,1-1.57-5.49,32.91,32.91,0,0,1-.48-5.81,34,34,0,0,1,.48-5.87,28,28,0,0,1,1.57-5.49A3,3,0,0,0,13,40.58a1.68,1.68,0,0,0-.49-1.29,1.78,1.78,0,0,0-1.27-.47,2.78,2.78,0,0,0-1.45.47,4.21,4.21,0,0,0-1.3,1.32A21.76,21.76,0,0,0,4.94,53.06,21.84,21.84,0,0,0,8.52,65.45ZM31,53.19h-.71V41.64a2.72,2.72,0,0,0-.86-2.15,3,3,0,0,0-2.08-.76,3.25,3.25,0,0,0-1.42.33,3,3,0,0,0-1.14,1L15.66,53.1A3.57,3.57,0,0,0,15,55.21,2.45,2.45,0,0,0,15.63,57a2.37,2.37,0,0,0,1.82.7h7.14v1.09a2.62,2.62,0,0,0,2.84,2.91,2.93,2.93,0,0,0,2.08-.73,2.81,2.81,0,0,0,.8-2.18V57.67H31c1.85,0,2.78-.76,2.78-2.27S32.87,53.19,31,53.19Zm-10.27,0,3.84-5.54v5.54ZM46,52.26l3.45-3.42a1.87,1.87,0,0,0,.58-1.38,1.66,1.66,0,0,0-.58-1.31,1.79,1.79,0,0,0-1.34-.58,1.89,1.89,0,0,0-1.35.58l-3.45,3.46-3.46-3.46a1.87,1.87,0,0,0-1.34-.61,1.65,1.65,0,0,0-1.31.58,1.84,1.84,0,0,0-.58,1.37,2,2,0,0,0,.54,1.35l3.46,3.42-3.46,3.46a1.84,1.84,0,0,0-.57,1.34,1.88,1.88,0,0,0,.57,1.35,2,2,0,0,0,1.35.54,1.82,1.82,0,0,0,1.34-.54L43.34,55l3.45,3.46a1.88,1.88,0,0,0,1.35.57A1.91,1.91,0,0,0,50,57.06a1.77,1.77,0,0,0-.55-1.34Zm22.46,4.55H62.06l4.54-4.64a15.14,15.14,0,0,0,2.67-3.6A8,8,0,0,0,70.06,45a5.91,5.91,0,0,0-1-3.35,6.27,6.27,0,0,0-2.77-2.24,10.33,10.33,0,0,0-4.16-.78,12.34,12.34,0,0,0-3.69.58,12.11,12.11,0,0,0-3.38,1.6,2.09,2.09,0,0,0-.78.83,2.72,2.72,0,0,0-.21,1.15,2.77,2.77,0,0,0,.54,1.71,1.64,1.64,0,0,0,1.35.72,2.1,2.1,0,0,0,.61-.09,4.13,4.13,0,0,0,.65-.31l.5-.27.64-.32a14.72,14.72,0,0,1,1.81-.78,5.2,5.2,0,0,1,1.71-.27,2.51,2.51,0,0,1,1.77.57,2.15,2.15,0,0,1,.63,1.66c0,1.24-.71,2.6-2.11,4.07L55.4,56.55a3.54,3.54,0,0,0-1.09,2.5,2.35,2.35,0,0,0,2.5,2.43H68.49a3.19,3.19,0,0,0,2.1-.58,2.22,2.22,0,0,0,.68-1.79,2.13,2.13,0,0,0-.68-1.74A3.25,3.25,0,0,0,68.49,56.81Zm9.7,8.64a21.91,21.91,0,0,0,3.58-12.39,21.83,21.83,0,0,0-3.58-12.45,4.07,4.07,0,0,0-1.3-1.31,2.83,2.83,0,0,0-1.46-.44,1.76,1.76,0,0,0-1.26.46,1.65,1.65,0,0,0-.5,1.26,3,3,0,0,0,.23,1.12,28.73,28.73,0,0,1,1.57,5.49A34,34,0,0,1,76,53.06a32.91,32.91,0,0,1-.48,5.81,30.48,30.48,0,0,1-1.57,5.49,3.07,3.07,0,0,0-.23,1.12,1.65,1.65,0,0,0,.5,1.26,1.73,1.73,0,0,0,1.23.47,2.89,2.89,0,0,0,1.49-.45A4.07,4.07,0,0,0,78.19,65.45ZM94.05,43.26H89.24l3.4-3.47a11.35,11.35,0,0,0,2-2.69,6.08,6.08,0,0,0,.59-2.67,4.4,4.4,0,0,0-.73-2.5,4.68,4.68,0,0,0-2.07-1.68,7.79,7.79,0,0,0-3.12-.59A9.73,9.73,0,0,0,84,31.29a1.6,1.6,0,0,0-.58.62,2,2,0,0,0-.16.87,2.08,2.08,0,0,0,.41,1.28,1.24,1.24,0,0,0,1,.53,1.39,1.39,0,0,0,.46-.07,2.61,2.61,0,0,0,.49-.23l.37-.2.48-.24a11.38,11.38,0,0,1,1.35-.58,3.78,3.78,0,0,1,1.28-.21,1.91,1.91,0,0,1,1.33.43,1.62,1.62,0,0,1,.47,1.25,4.68,4.68,0,0,1-1.58,3l-5.08,5.29a2.63,2.63,0,0,0-.81,1.87,1.8,1.8,0,0,0,.5,1.3,1.84,1.84,0,0,0,1.37.51h8.73a2.37,2.37,0,0,0,1.57-.43A1.62,1.62,0,0,0,96.14,45a1.56,1.56,0,0,0-.52-1.3A2.43,2.43,0,0,0,94.05,43.26Z"/></svg>