<svg id="Layer_1" data-name="Layer 1" xmlns="http://www.w3.org/2000/svg" viewBox="0 0 100 100"><title>l5_5_1</title><path d="M83.53,100H16.47A16.47,16.47,0,0,1,0,83.53V16.47A16.47,16.47,0,0,1,16.47,0H83.53A16.47,16.47,0,0,1,100,16.47V83.53A16.47,16.47,0,0,1,83.53,100ZM8.06,64.33a4,4,0,0,0,1.3,1.31,2.87,2.87,0,0,0,1.46.45,1.77,1.77,0,0,0,1.27-.46,1.64,1.64,0,0,0,.5-1.27,3.1,3.1,0,0,0-.22-1.13,29.7,29.7,0,0,1-1.58-5.51,33.14,33.14,0,0,1-.48-5.83,34.3,34.3,0,0,1,.48-5.9,27.86,27.86,0,0,1,1.58-5.51,3.14,3.14,0,0,0,.22-1.13,1.66,1.66,0,0,0-.5-1.3,1.78,1.78,0,0,0-1.27-.47,2.81,2.81,0,0,0-1.46.47,4,4,0,0,0-1.3,1.33,21.84,21.84,0,0,0-3.6,12.51A21.91,21.91,0,0,0,8.06,64.33ZM27.83,48.67a5.15,5.15,0,0,0,2.55-1.94,5.38,5.38,0,0,0,.92-3.11,5.61,5.61,0,0,0-1-3.27,6.21,6.21,0,0,0-2.8-2.19,10.72,10.72,0,0,0-4.19-.77,12.72,12.72,0,0,0-3.81.58,10.67,10.67,0,0,0-3.26,1.6,2.44,2.44,0,0,0-.77.87,2.4,2.4,0,0,0-.23,1.13,2.64,2.64,0,0,0,.55,1.69,1.65,1.65,0,0,0,1.35.69,2,2,0,0,0,.8-.15,9.49,9.49,0,0,0,1-.46L19.6,43c.64-.32,1.23-.57,1.75-.77A5,5,0,0,1,23,42a2.77,2.77,0,0,1,2,.66,2.42,2.42,0,0,1,.71,1.85,1.8,1.8,0,0,1-.81,1.64,4.93,4.93,0,0,1-2.57.51H20.92a1.82,1.82,0,0,0-1.51.68,2.62,2.62,0,0,0,0,3.21,1.82,1.82,0,0,0,1.51.68h2a4.81,4.81,0,0,1,2.64.55,2,2,0,0,1,.8,1.8,2.2,2.2,0,0,1-.79,1.92A4.42,4.42,0,0,1,23,56a5.84,5.84,0,0,1-1.84-.27A14,14,0,0,1,19.28,55l-.4-.17-.31-.15c-.41-.21-.73-.37-1-.47A2.29,2.29,0,0,0,16.8,54a1.68,1.68,0,0,0-1.35.69,2.65,2.65,0,0,0-.54,1.69,2.53,2.53,0,0,0,.22,1.11,2.58,2.58,0,0,0,.77.88A10.24,10.24,0,0,0,19.25,60a14,14,0,0,0,4,.57,11.94,11.94,0,0,0,4.55-.79,6.83,6.83,0,0,0,3-2.23,5.6,5.6,0,0,0,1.06-3.41,5.72,5.72,0,0,0-1.08-3.51A5.53,5.53,0,0,0,27.83,48.67ZM49,49.19h-4v-4a1.88,1.88,0,0,0-1.9-1.9,1.86,1.86,0,0,0-1.89,1.9v4h-4a1.86,1.86,0,0,0-1.9,1.89,1.88,1.88,0,0,0,.55,1.37,1.81,1.81,0,0,0,1.35.56h4v4a1.85,1.85,0,0,0,.54,1.35,1.87,1.87,0,0,0,1.35.55,1.84,1.84,0,0,0,1.37-.55A1.88,1.88,0,0,0,44.93,57V53h4a1.83,1.83,0,0,0,1.35-.56,1.92,1.92,0,0,0,.55-1.37,1.87,1.87,0,0,0-.55-1.35A1.85,1.85,0,0,0,49,49.19ZM68.3,55.65H61.84L66.4,51a15.15,15.15,0,0,0,2.69-3.62,8.16,8.16,0,0,0,.78-3.58,5.82,5.82,0,0,0-1-3.36,6.19,6.19,0,0,0-2.78-2.25,10.25,10.25,0,0,0-4.18-.79,12.41,12.41,0,0,0-3.71.58,12.6,12.6,0,0,0-3.39,1.6,2.14,2.14,0,0,0-.79.84,3.09,3.09,0,0,0,.34,2.88,1.63,1.63,0,0,0,1.35.72,1.77,1.77,0,0,0,.61-.1,3.63,3.63,0,0,0,.66-.3l.5-.27.64-.33A15.47,15.47,0,0,1,60,42.23,5,5,0,0,1,61.68,42a2.56,2.56,0,0,1,1.78.58,2.17,2.17,0,0,1,.63,1.67q0,1.88-2.12,4.09l-6.82,7.1a3.52,3.52,0,0,0-1.09,2.51,2.41,2.41,0,0,0,.67,1.75,2.45,2.45,0,0,0,1.84.69H68.3a3.19,3.19,0,0,0,2.1-.58,2.2,2.2,0,0,0,.69-1.8,2.12,2.12,0,0,0-.69-1.75A3.31,3.31,0,0,0,68.3,55.65ZM78,64.33a21.91,21.91,0,0,0,3.6-12.44A21.84,21.84,0,0,0,78,39.38a4,4,0,0,0-1.3-1.32,2.9,2.9,0,0,0-1.47-.45,1.81,1.81,0,0,0-1.27.47,1.65,1.65,0,0,0-.49,1.27,3.14,3.14,0,0,0,.22,1.13A28.55,28.55,0,0,1,75.31,46a34.3,34.3,0,0,1,.48,5.9,33.14,33.14,0,0,1-.48,5.83,30.5,30.5,0,0,1-1.58,5.51,3.1,3.1,0,0,0-.22,1.13A1.67,1.67,0,0,0,74,65.63a1.76,1.76,0,0,0,1.24.46,3,3,0,0,0,1.5-.45A4.07,4.07,0,0,0,78,64.33ZM93.75,42.12H88.94l3.4-3.47a11.1,11.1,0,0,0,2-2.7,5.87,5.87,0,0,0,.59-2.66,4.38,4.38,0,0,0-.73-2.51,4.73,4.73,0,0,0-2.07-1.67A7.7,7.7,0,0,0,89,28.52a9.67,9.67,0,0,0-2.77.43,9.46,9.46,0,0,0-2.52,1.2,1.63,1.63,0,0,0-.59.62,2.14,2.14,0,0,0-.15.86,2,2,0,0,0,.4,1.28,1.24,1.24,0,0,0,1,.54,1.33,1.33,0,0,0,.45-.07,2.34,2.34,0,0,0,.49-.23l.38-.2.47-.24a14.81,14.81,0,0,1,1.36-.59,4,4,0,0,1,1.28-.2,1.9,1.9,0,0,1,1.33.43,1.62,1.62,0,0,1,.46,1.25,4.64,4.64,0,0,1-1.58,3L84,41.93a2.6,2.6,0,0,0-.82,1.86,1.78,1.78,0,0,0,.51,1.31,1.82,1.82,0,0,0,1.36.51h8.74a2.41,2.41,0,0,0,1.57-.43,1.64,1.64,0,0,0,.51-1.34,1.58,1.58,0,0,0-.51-1.3A2.47,2.47,0,0,0,93.75,42.12Z"/></svg>