<svg id="Layer_1" data-name="Layer 1" xmlns="http://www.w3.org/2000/svg" viewBox="0 0 100 100"><title>l5_5_1</title><path d="M83.26,100H16.2A16.47,16.47,0,0,1-.27,83.53V16.47A16.47,16.47,0,0,1,16.2,0H83.26A16.47,16.47,0,0,1,99.73,16.47V83.53A16.47,16.47,0,0,1,83.26,100ZM8.08,64.3a3.94,3.94,0,0,0,1.29,1.31,2.92,2.92,0,0,0,1.45.44,1.77,1.77,0,0,0,1.27-.46,1.68,1.68,0,0,0,.49-1.26,3.09,3.09,0,0,0-.22-1.12,29.28,29.28,0,0,1-1.57-5.47A32.76,32.76,0,0,1,10.31,52a33.83,33.83,0,0,1,.48-5.86,27.65,27.65,0,0,1,1.57-5.47,3.09,3.09,0,0,0,.22-1.12,1.7,1.7,0,0,0-.49-1.29,1.78,1.78,0,0,0-1.27-.47,2.78,2.78,0,0,0-1.45.47,4,4,0,0,0-1.29,1.32A21.69,21.69,0,0,0,4.51,52,21.78,21.78,0,0,0,8.08,64.3ZM25.22,45.63a8,8,0,0,0-3.16.57V42.28H29c1.86,0,2.78-.75,2.78-2.24s-.92-2.2-2.78-2.2H19.06a2.72,2.72,0,0,0-2,.7,2.76,2.76,0,0,0-.7,2v8.65a1.75,1.75,0,0,0,.6,1.39,2.24,2.24,0,0,0,1.5.53,3.12,3.12,0,0,0,1.44-.35,11.34,11.34,0,0,1,1.83-.58,9.28,9.28,0,0,1,1.74-.16,3.6,3.6,0,0,1,2.49.8,2.84,2.84,0,0,1,.9,2.24A2.75,2.75,0,0,1,26,55.35a4.1,4.1,0,0,1-2.64.71,5.4,5.4,0,0,1-1.78-.28c-.54-.2-1.14-.45-1.8-.77l-.64-.32c-.42-.23-.74-.39-.95-.48a2.31,2.31,0,0,0-.8-.13,1.65,1.65,0,0,0-1.34.69,2.59,2.59,0,0,0-.55,1.68,2.38,2.38,0,0,0,.24,1.1,2.87,2.87,0,0,0,.75.88A10.54,10.54,0,0,0,19.75,60a13.34,13.34,0,0,0,3.87.58,10.34,10.34,0,0,0,4.57-1,7.16,7.16,0,0,0,3.06-2.71,7.61,7.61,0,0,0,1.09-4.06,7.77,7.77,0,0,0-.91-3.78,6.44,6.44,0,0,0-2.52-2.55A7.37,7.37,0,0,0,25.22,45.63Zm23.49,3.64h-4v-4a1.84,1.84,0,0,0-1.88-1.88,1.86,1.86,0,0,0-1.89,1.88v4h-4A1.84,1.84,0,0,0,35,51.15a1.86,1.86,0,0,0,.54,1.35,1.77,1.77,0,0,0,1.34.56h4v4a1.9,1.9,0,0,0,3.24,1.34,1.84,1.84,0,0,0,.53-1.34v-4h4a1.77,1.77,0,0,0,1.34-.56,1.86,1.86,0,0,0,.54-1.35,1.84,1.84,0,0,0-1.88-1.88Zm20.11,2.8h-.7V40.55a2.71,2.71,0,0,0-.87-2.14,3,3,0,0,0-2.07-.76,3.25,3.25,0,0,0-1.42.33,2.89,2.89,0,0,0-1.13,1L53.5,52a3.55,3.55,0,0,0-.7,2.1,2.43,2.43,0,0,0,.67,1.76,2.37,2.37,0,0,0,1.81.7H62.4v1.09a2.85,2.85,0,0,0,.78,2.17,2.9,2.9,0,0,0,2.06.73,3,3,0,0,0,2.08-.73,2.82,2.82,0,0,0,.8-2.17V56.54h.7c1.85,0,2.77-.75,2.77-2.26S70.67,52.07,68.82,52.07Zm-10.25,0,3.83-5.52v5.52Zm19,12.23A21.78,21.78,0,0,0,81.11,52a21.69,21.69,0,0,0-3.58-12.42,3.94,3.94,0,0,0-1.29-1.31,2.82,2.82,0,0,0-1.45-.44,1.77,1.77,0,0,0-1.27.46A1.64,1.64,0,0,0,73,39.5a3.09,3.09,0,0,0,.22,1.12,27.65,27.65,0,0,1,1.57,5.47A33.83,33.83,0,0,1,75.3,52a32.76,32.76,0,0,1-.48,5.79,29.28,29.28,0,0,1-1.57,5.47A3.09,3.09,0,0,0,73,64.33a1.64,1.64,0,0,0,.49,1.26,1.72,1.72,0,0,0,1.23.46,3,3,0,0,0,1.49-.44A3.94,3.94,0,0,0,77.53,64.3ZM93.22,42.12H88.41l3.4-3.47a11.18,11.18,0,0,0,2-2.7,6,6,0,0,0,.59-2.66,4.46,4.46,0,0,0-.73-2.51,4.73,4.73,0,0,0-2.07-1.67,7.75,7.75,0,0,0-3.12-.59,9.61,9.61,0,0,0-2.76.43,9.46,9.46,0,0,0-2.52,1.2,1.56,1.56,0,0,0-.59.62,2,2,0,0,0-.16.86,2,2,0,0,0,.41,1.28,1.22,1.22,0,0,0,1,.54,1.37,1.37,0,0,0,.45-.07,2.61,2.61,0,0,0,.49-.23l.37-.2.48-.24A13.64,13.64,0,0,1,87,32.12a4,4,0,0,1,1.28-.2,1.91,1.91,0,0,1,1.33.43,1.62,1.62,0,0,1,.47,1.25,4.68,4.68,0,0,1-1.58,3l-5.08,5.29a2.62,2.62,0,0,0-.81,1.86,1.81,1.81,0,0,0,.5,1.31,1.84,1.84,0,0,0,1.37.51h8.73a2.37,2.37,0,0,0,1.57-.43,1.62,1.62,0,0,0,.52-1.34,1.56,1.56,0,0,0-.52-1.3A2.43,2.43,0,0,0,93.22,42.12Z"/></svg>