<svg id="Layer_1" data-name="Layer 1" xmlns="http://www.w3.org/2000/svg" viewBox="0 0 100 100"><title>l5_5_1</title><path d="M83.53,100H16.47A16.47,16.47,0,0,1,0,83.53V16.47A16.47,16.47,0,0,1,16.47,0H83.53A16.47,16.47,0,0,1,100,16.47V83.53A16.47,16.47,0,0,1,83.53,100ZM8.82,65.59a3.94,3.94,0,0,0,1.29,1.31,2.84,2.84,0,0,0,1.46.45,1.77,1.77,0,0,0,1.26-.47,1.65,1.65,0,0,0,.5-1.26,3.27,3.27,0,0,0-.22-1.12A29.68,29.68,0,0,1,11.54,59a32.91,32.91,0,0,1-.48-5.81,33.94,33.94,0,0,1,.48-5.87,28,28,0,0,1,1.57-5.49,3.23,3.23,0,0,0,.22-1.12,1.69,1.69,0,0,0-.5-1.29A1.77,1.77,0,0,0,11.57,39a2.79,2.79,0,0,0-1.46.47,4.08,4.08,0,0,0-1.29,1.32A21.76,21.76,0,0,0,5.23,53.2,21.84,21.84,0,0,0,8.82,65.59ZM31.31,53.33h-.7V41.78a2.76,2.76,0,0,0-.86-2.15,3,3,0,0,0-2.08-.76,3.26,3.26,0,0,0-1.43.33,2.89,2.89,0,0,0-1.13,1L16,53.23a3.61,3.61,0,0,0-.7,2.12,2.45,2.45,0,0,0,.67,1.76,2.41,2.41,0,0,0,1.83.7h7.13V58.9a2.8,2.8,0,0,0,.79,2.17,2.85,2.85,0,0,0,2.06.74,2.91,2.91,0,0,0,2.08-.74,2.81,2.81,0,0,0,.8-2.17V57.81h.7c1.86,0,2.79-.76,2.79-2.27S33.17,53.33,31.31,53.33ZM21,53.33l3.84-5.54v5.54Zm25.28-.93L49.78,49a1.9,1.9,0,0,0,.57-1.38,1.68,1.68,0,0,0-.57-1.31,1.79,1.79,0,0,0-1.35-.58,1.85,1.85,0,0,0-1.34.58l-3.46,3.46-3.45-3.46a1.91,1.91,0,0,0-1.35-.61,1.66,1.66,0,0,0-1.31.58A1.87,1.87,0,0,0,37,47.63,2,2,0,0,0,37.49,49L41,52.4l-3.46,3.46a1.85,1.85,0,0,0-.58,1.34,1.89,1.89,0,0,0,.58,1.35,2,2,0,0,0,1.34.54,1.83,1.83,0,0,0,1.35-.54l3.45-3.46,3.46,3.46a1.84,1.84,0,0,0,1.34.57,1.89,1.89,0,0,0,1.89-1.92,1.76,1.76,0,0,0-.54-1.34ZM68.78,57H62.35l4.55-4.64a15.14,15.14,0,0,0,2.67-3.6,8.12,8.12,0,0,0,.78-3.57,5.9,5.9,0,0,0-1-3.35,6.33,6.33,0,0,0-2.77-2.24,10.36,10.36,0,0,0-4.16-.78,12.35,12.35,0,0,0-3.7.58A12,12,0,0,0,55.38,41a2.06,2.06,0,0,0-.79.83,2.73,2.73,0,0,0-.2,1.15,2.77,2.77,0,0,0,.54,1.71,1.62,1.62,0,0,0,1.34.72,2,2,0,0,0,.61-.09,4.65,4.65,0,0,0,.66-.31l.49-.27.64-.32a15.4,15.4,0,0,1,1.81-.78,5.2,5.2,0,0,1,1.71-.28,2.56,2.56,0,0,1,1.78.58,2.13,2.13,0,0,1,.62,1.66q0,1.86-2.11,4.07L55.7,56.69a3.5,3.5,0,0,0-1.09,2.5,2.38,2.38,0,0,0,.67,1.74,2.43,2.43,0,0,0,1.82.69H68.78a3.19,3.19,0,0,0,2.1-.58,2.19,2.19,0,0,0,.69-1.79,2.1,2.1,0,0,0-.69-1.74A3.25,3.25,0,0,0,68.78,57Zm9.7,8.64A21.84,21.84,0,0,0,82.07,53.2a21.76,21.76,0,0,0-3.59-12.45,3.88,3.88,0,0,0-1.3-1.31A2.81,2.81,0,0,0,75.73,39a1.77,1.77,0,0,0-1.26.47,1.61,1.61,0,0,0-.5,1.26,3,3,0,0,0,.22,1.12,28,28,0,0,1,1.57,5.49,33.94,33.94,0,0,1,.48,5.87A32.91,32.91,0,0,1,75.76,59a29.68,29.68,0,0,1-1.57,5.49A3.05,3.05,0,0,0,74,65.62a1.61,1.61,0,0,0,.5,1.26,1.73,1.73,0,0,0,1.23.47,2.85,2.85,0,0,0,1.48-.45A3.88,3.88,0,0,0,78.48,65.59ZM95.21,43.4H90.4l3.4-3.47a11.45,11.45,0,0,0,2-2.7,6,6,0,0,0,.58-2.66,4.38,4.38,0,0,0-.73-2.51,4.68,4.68,0,0,0-2.07-1.67,7.7,7.7,0,0,0-3.11-.59,9.67,9.67,0,0,0-2.77.43,9.46,9.46,0,0,0-2.52,1.2,1.63,1.63,0,0,0-.59.62,2.14,2.14,0,0,0-.15.86,2,2,0,0,0,.4,1.28,1.22,1.22,0,0,0,1,.54,1.33,1.33,0,0,0,.45-.07,2.34,2.34,0,0,0,.49-.23l.38-.2.47-.24A13.71,13.71,0,0,1,89,33.4a4,4,0,0,1,1.28-.2,2,2,0,0,1,1.33.43,1.62,1.62,0,0,1,.46,1.25,4.64,4.64,0,0,1-1.58,3l-5.07,5.29a2.64,2.64,0,0,0-.82,1.86,1.78,1.78,0,0,0,.51,1.31,1.82,1.82,0,0,0,1.36.51h8.74a2.41,2.41,0,0,0,1.57-.43,1.64,1.64,0,0,0,.51-1.34,1.58,1.58,0,0,0-.51-1.3A2.47,2.47,0,0,0,95.21,43.4Z"/></svg>