<svg id="Layer_1" data-name="Layer 1" xmlns="http://www.w3.org/2000/svg" viewBox="0 0 100 100"><title>l5_5_1</title><path d="M83.26,100H16.2A16.47,16.47,0,0,1-.27,83.53V16.47A16.47,16.47,0,0,1,16.2,0H83.26A16.47,16.47,0,0,1,99.73,16.47V83.53A16.47,16.47,0,0,1,83.26,100ZM7.81,64.33a4,4,0,0,0,1.3,1.31,2.84,2.84,0,0,0,1.46.45,1.77,1.77,0,0,0,1.27-.46,1.67,1.67,0,0,0,.5-1.27,3.33,3.33,0,0,0-.22-1.13,29.7,29.7,0,0,1-1.58-5.51,33.14,33.14,0,0,1-.48-5.83,34.3,34.3,0,0,1,.48-5.9,27.86,27.86,0,0,1,1.58-5.51,3.37,3.37,0,0,0,.22-1.13,1.69,1.69,0,0,0-.5-1.3,1.78,1.78,0,0,0-1.27-.47,2.79,2.79,0,0,0-1.46.47,4,4,0,0,0-1.3,1.33,21.84,21.84,0,0,0-3.6,12.51A21.91,21.91,0,0,0,7.81,64.33ZM30.4,52h-.7V40.41a2.72,2.72,0,0,0-.87-2.15,3,3,0,0,0-2.09-.78,3.3,3.3,0,0,0-1.43.34,3,3,0,0,0-1.14,1L15,51.92a3.59,3.59,0,0,0-.7,2.12,2.45,2.45,0,0,0,.67,1.77,2.43,2.43,0,0,0,1.84.71h7.16v1.09a2.65,2.65,0,0,0,2.86,2.92,2.92,2.92,0,0,0,2.09-.74,2.8,2.8,0,0,0,.81-2.18V56.52h.7c1.87,0,2.8-.77,2.8-2.29S32.27,52,30.4,52ZM20.09,52l3.85-5.57V52Zm28.64-2.83h-4v-4a1.84,1.84,0,0,0-.55-1.35,1.93,1.93,0,0,0-2.7,0,1.84,1.84,0,0,0-.55,1.35v4H36.83a1.85,1.85,0,0,0-1.89,1.89,1.91,1.91,0,0,0,.54,1.37,1.84,1.84,0,0,0,1.35.56h4.05v4a1.92,1.92,0,0,0,3.27,1.35A1.86,1.86,0,0,0,44.68,57V53h4a1.84,1.84,0,0,0,1.35-.56,1.91,1.91,0,0,0,.54-1.37,1.85,1.85,0,0,0-1.89-1.89Zm17.42-.52a5.15,5.15,0,0,0,2.55-1.94,5.3,5.3,0,0,0,.92-3.11,5.61,5.61,0,0,0-1-3.27,6.21,6.21,0,0,0-2.8-2.19,10.69,10.69,0,0,0-4.19-.77,12.72,12.72,0,0,0-3.81.58,10.67,10.67,0,0,0-3.26,1.6,2.44,2.44,0,0,0-.77.87,2.52,2.52,0,0,0-.23,1.13,2.64,2.64,0,0,0,.55,1.69,1.65,1.65,0,0,0,1.35.69,2,2,0,0,0,.8-.15,10.58,10.58,0,0,0,1-.46l.67-.33c.64-.32,1.23-.57,1.75-.77A5,5,0,0,1,61.36,42a2.75,2.75,0,0,1,2,.66A2.42,2.42,0,0,1,64,44.46a1.8,1.8,0,0,1-.81,1.64,4.93,4.93,0,0,1-2.57.51H59.24a1.84,1.84,0,0,0-1.51.68,2.46,2.46,0,0,0-.55,1.61,2.43,2.43,0,0,0,.55,1.6,1.84,1.84,0,0,0,1.51.68h2a4.81,4.81,0,0,1,2.64.55,2,2,0,0,1,.8,1.8,2.2,2.2,0,0,1-.79,1.92A4.39,4.39,0,0,1,61.3,56a5.86,5.86,0,0,1-1.85-.27A12.77,12.77,0,0,1,57.6,55l-.4-.17-.31-.15c-.41-.21-.73-.37-1-.47a2.29,2.29,0,0,0-.81-.14,1.68,1.68,0,0,0-1.35.69,2.65,2.65,0,0,0-.54,1.69,2.53,2.53,0,0,0,.22,1.11,2.58,2.58,0,0,0,.77.88A10.24,10.24,0,0,0,57.57,60a14,14,0,0,0,4,.57,11.94,11.94,0,0,0,4.55-.79,6.83,6.83,0,0,0,3-2.23,5.6,5.6,0,0,0,1.06-3.41,5.72,5.72,0,0,0-1.08-3.51A5.53,5.53,0,0,0,66.15,48.67Zm11.6,15.66a21.91,21.91,0,0,0,3.6-12.44,21.84,21.84,0,0,0-3.6-12.51,3.91,3.91,0,0,0-1.3-1.32A2.84,2.84,0,0,0,75,37.61a1.78,1.78,0,0,0-1.27.47,1.66,1.66,0,0,0-.5,1.27,3.17,3.17,0,0,0,.23,1.13A28.51,28.51,0,0,1,75,46a34.3,34.3,0,0,1,.48,5.9A33.14,33.14,0,0,1,75,57.72a30.44,30.44,0,0,1-1.57,5.51,3.12,3.12,0,0,0-.23,1.13,1.67,1.67,0,0,0,.5,1.27,1.73,1.73,0,0,0,1.24.46,2.89,2.89,0,0,0,1.49-.45A4,4,0,0,0,77.75,64.33ZM93.48,42.12H88.67l3.4-3.47a11.18,11.18,0,0,0,2-2.7,6,6,0,0,0,.58-2.66,4.38,4.38,0,0,0-.73-2.51,4.62,4.62,0,0,0-2.07-1.67,7.7,7.7,0,0,0-3.11-.59A9.56,9.56,0,0,0,86,29a9.38,9.38,0,0,0-2.53,1.2,1.63,1.63,0,0,0-.59.62,2.14,2.14,0,0,0-.15.86,2,2,0,0,0,.41,1.28,1.21,1.21,0,0,0,1,.54,1.43,1.43,0,0,0,.46-.07,2.93,2.93,0,0,0,.49-.23l.37-.2.48-.24a13.64,13.64,0,0,1,1.35-.59,4,4,0,0,1,1.28-.2,1.93,1.93,0,0,1,1.33.43,1.62,1.62,0,0,1,.46,1.25,4.64,4.64,0,0,1-1.58,3l-5.07,5.29a2.64,2.64,0,0,0-.82,1.86,1.78,1.78,0,0,0,.51,1.31,1.82,1.82,0,0,0,1.36.51h8.74a2.41,2.41,0,0,0,1.57-.43,1.64,1.64,0,0,0,.51-1.34,1.58,1.58,0,0,0-.51-1.3A2.47,2.47,0,0,0,93.48,42.12Z"/></svg>