<svg id="Layer_1" data-name="Layer 1" xmlns="http://www.w3.org/2000/svg" viewBox="0 0 100 100"><title>l5_5_1</title><path d="M83.26,100H16.2A16.47,16.47,0,0,1-.27,83.53V16.47A16.47,16.47,0,0,1,16.2,0H83.26A16.47,16.47,0,0,1,99.73,16.47V83.53A16.47,16.47,0,0,1,83.26,100ZM8.57,65.59A3.94,3.94,0,0,0,9.86,66.9a2.84,2.84,0,0,0,1.46.45,1.77,1.77,0,0,0,1.26-.47,1.65,1.65,0,0,0,.5-1.26,3.07,3.07,0,0,0-.23-1.12A30.42,30.42,0,0,1,11.29,59a32,32,0,0,1-.49-5.81,33,33,0,0,1,.49-5.87,28.69,28.69,0,0,1,1.56-5.49,3,3,0,0,0,.23-1.12,1.69,1.69,0,0,0-.5-1.29A1.77,1.77,0,0,0,11.32,39a2.79,2.79,0,0,0-1.46.47,4.08,4.08,0,0,0-1.29,1.32A21.76,21.76,0,0,0,5,53.2,21.84,21.84,0,0,0,8.57,65.59ZM29,50a4.8,4.8,0,0,0,2.52-1.89,5.53,5.53,0,0,0,.91-3.2,5.3,5.3,0,0,0-2.22-4.49,10,10,0,0,0-6.07-1.65,10,10,0,0,0-6.05,1.65,5.29,5.29,0,0,0-2.24,4.49,5.4,5.4,0,0,0,.9,3.12,5.21,5.21,0,0,0,2.56,2,5.31,5.31,0,0,0-3,1.91,5.62,5.62,0,0,0-1.05,3.5,5.51,5.51,0,0,0,2.38,4.75,11,11,0,0,0,6.51,1.71,11,11,0,0,0,6.51-1.71,5.52,5.52,0,0,0,2.39-4.75A5.26,5.26,0,0,0,29,50Zm-4.86,7.43c-2.32,0-3.49-.84-3.49-2.5s1.17-2.49,3.49-2.49,3.49.83,3.49,2.49S26.51,57.43,24.18,57.43Zm0-14.21a3.45,3.45,0,0,1,2.15.56,2.19,2.19,0,0,1,.7,1.81,2.24,2.24,0,0,1-.7,1.82,3.39,3.39,0,0,1-2.15.58A3.35,3.35,0,0,1,22,47.41a2.21,2.21,0,0,1-.71-1.82A2.16,2.16,0,0,1,22,43.78,3.42,3.42,0,0,1,24.18,43.22Zm13.47,11.1H49.49a1.79,1.79,0,0,0,1.35-.56,1.87,1.87,0,0,0,.54-1.36,1.82,1.82,0,0,0-.54-1.34,1.85,1.85,0,0,0-1.35-.54H37.65a1.8,1.8,0,0,0-1.34.55,1.91,1.91,0,0,0-.54,1.37,1.84,1.84,0,0,0,1.88,1.88Zm5.76-6a2,2,0,0,0,1.46-.61,2.06,2.06,0,0,0,.59-1.47,2,2,0,0,0-.59-1.44,2.05,2.05,0,0,0-2.9,0,2,2,0,0,0-.57,1.46A2.09,2.09,0,0,0,42,47.7,1.94,1.94,0,0,0,43.41,48.31Zm0,12.35a2,2,0,0,0,1.46-.61,2,2,0,0,0,.59-1.44,2,2,0,0,0-.59-1.47,2,2,0,0,0-1.46-.61,1.9,1.9,0,0,0-1.44.61,2.05,2.05,0,0,0-.57,1.47A2,2,0,0,0,42,60.07,2,2,0,0,0,43.41,60.66Zm26.05-7.33h-.7V41.78a2.73,2.73,0,0,0-.87-2.15,3,3,0,0,0-2.08-.76,3.25,3.25,0,0,0-1.42.33,3,3,0,0,0-1.14,1l-9.15,13a3.61,3.61,0,0,0-.7,2.12,2.45,2.45,0,0,0,.67,1.76,2.39,2.39,0,0,0,1.82.7H63V58.9a2.64,2.64,0,0,0,2.85,2.91A2.89,2.89,0,0,0,68,61.07a2.78,2.78,0,0,0,.81-2.17V57.81h.7c1.86,0,2.78-.76,2.78-2.27S71.32,53.33,69.46,53.33Zm-10.27,0L63,47.79v5.54Zm19,12.26A21.84,21.84,0,0,0,81.78,53.2,21.76,21.76,0,0,0,78.2,40.75a4.07,4.07,0,0,0-1.3-1.31A2.84,2.84,0,0,0,75.44,39a1.77,1.77,0,0,0-1.26.47,1.65,1.65,0,0,0-.5,1.26,3,3,0,0,0,.23,1.12,28.73,28.73,0,0,1,1.57,5.49A33.94,33.94,0,0,1,76,53.2,32.91,32.91,0,0,1,75.48,59a30.48,30.48,0,0,1-1.57,5.49,3.07,3.07,0,0,0-.23,1.12,1.65,1.65,0,0,0,.5,1.26,1.73,1.73,0,0,0,1.23.47,2.89,2.89,0,0,0,1.49-.45A4.07,4.07,0,0,0,78.2,65.59ZM94.94,43.4H90.13l3.4-3.47a11.45,11.45,0,0,0,2-2.7,6,6,0,0,0,.58-2.66,4.33,4.33,0,0,0-.73-2.5,4.63,4.63,0,0,0-2.07-1.68,7.7,7.7,0,0,0-3.11-.59,9.56,9.56,0,0,0-2.76.43,9.38,9.38,0,0,0-2.53,1.2,1.63,1.63,0,0,0-.59.62,2.14,2.14,0,0,0-.15.86,2,2,0,0,0,.4,1.28,1.24,1.24,0,0,0,1,.54,1.43,1.43,0,0,0,.46-.07,2.93,2.93,0,0,0,.49-.23l.37-.2.47-.24a14.81,14.81,0,0,1,1.36-.59A4,4,0,0,1,90,33.2a1.93,1.93,0,0,1,1.33.43,1.62,1.62,0,0,1,.46,1.25,4.64,4.64,0,0,1-1.58,3l-5.07,5.29a2.62,2.62,0,0,0-.81,1.86,1.77,1.77,0,0,0,.5,1.31,1.82,1.82,0,0,0,1.36.51h8.74a2.41,2.41,0,0,0,1.57-.43A1.64,1.64,0,0,0,97,45.12a1.58,1.58,0,0,0-.51-1.3A2.47,2.47,0,0,0,94.94,43.4Z"/></svg>