<svg id="Layer_1" data-name="Layer 1" xmlns="http://www.w3.org/2000/svg" viewBox="0 0 100 100"><title>l5_5_1</title><path d="M83.53,100H16.47A16.47,16.47,0,0,1,0,83.53V16.47A16.47,16.47,0,0,1,16.47,0H83.53A16.47,16.47,0,0,1,100,16.47V83.53A16.47,16.47,0,0,1,83.53,100ZM8.83,65.59a4.07,4.07,0,0,0,1.3,1.31,2.84,2.84,0,0,0,1.46.45,1.77,1.77,0,0,0,1.26-.47,1.65,1.65,0,0,0,.5-1.26,3.07,3.07,0,0,0-.23-1.12A30.48,30.48,0,0,1,11.55,59a32.91,32.91,0,0,1-.48-5.81,33.94,33.94,0,0,1,.48-5.87,28.73,28.73,0,0,1,1.57-5.49,3,3,0,0,0,.23-1.12,1.69,1.69,0,0,0-.5-1.29A1.77,1.77,0,0,0,11.59,39a2.79,2.79,0,0,0-1.46.47,4.21,4.21,0,0,0-1.3,1.32A21.76,21.76,0,0,0,5.25,53.2,21.84,21.84,0,0,0,8.83,65.59ZM26.37,46.77a6.21,6.21,0,0,0-2.7.59,5.09,5.09,0,0,0-2,1.62,8.57,8.57,0,0,1,1.2-4.18,3.06,3.06,0,0,1,2.64-1.49,4.29,4.29,0,0,1,1.47.26,19.14,19.14,0,0,1,1.76.77l.7.35c.41.21.73.37,1,.46a2,2,0,0,0,.8.15,1.68,1.68,0,0,0,1.36-.69,2.54,2.54,0,0,0,.56-1.68,2.35,2.35,0,0,0-.24-1.12,2.69,2.69,0,0,0-.78-.86,10,10,0,0,0-3.22-1.6,12.19,12.19,0,0,0-3.66-.58,8.68,8.68,0,0,0-5,1.44A9.31,9.31,0,0,0,17,44.32a15.5,15.5,0,0,0-1.17,6.26q0,5.45,2.46,8.38a8.59,8.59,0,0,0,7,2.95,8.15,8.15,0,0,0,4.06-1,7.08,7.08,0,0,0,2.8-2.76,8.55,8.55,0,0,0,.13-7.81,6.43,6.43,0,0,0-5.87-3.57ZM24.9,57.4a2.6,2.6,0,0,1-2-.85,3.58,3.58,0,0,1,0-4.4,2.82,2.82,0,0,1,4,0,3.24,3.24,0,0,1,.72,2.22,3.21,3.21,0,0,1-.74,2.21A2.5,2.5,0,0,1,24.9,57.4Zm13-3.08H49.76a1.8,1.8,0,0,0,1.35-.56,1.87,1.87,0,0,0,.54-1.36,1.82,1.82,0,0,0-.54-1.34,1.86,1.86,0,0,0-1.35-.54H37.92a1.8,1.8,0,0,0-1.34.55A1.88,1.88,0,0,0,36,52.44a1.8,1.8,0,0,0,.55,1.34A1.82,1.82,0,0,0,37.92,54.32Zm5.76-6a2,2,0,0,0,1.46-.61,2.06,2.06,0,0,0,.59-1.47,2,2,0,0,0-.59-1.44,2.05,2.05,0,0,0-2.9,0,2,2,0,0,0-.57,1.46,2.09,2.09,0,0,0,.57,1.47A1.94,1.94,0,0,0,43.68,48.31Zm0,12.35a2,2,0,0,0,1.46-.61,2,2,0,0,0,.59-1.44,2,2,0,0,0-.59-1.47,2,2,0,0,0-1.46-.61,1.9,1.9,0,0,0-1.44.61,2.05,2.05,0,0,0-.57,1.47,2,2,0,0,0,.57,1.46A2,2,0,0,0,43.68,60.66ZM66.91,50a5.19,5.19,0,0,0,2.55-1.93A5.33,5.33,0,0,0,70.37,45a5.61,5.61,0,0,0-1-3.27,6.31,6.31,0,0,0-2.78-2.17,10.67,10.67,0,0,0-4.18-.77,12.64,12.64,0,0,0-3.79.58A10.39,10.39,0,0,0,55.39,41a2.54,2.54,0,0,0-.77.86,2.63,2.63,0,0,0-.22,1.12A2.59,2.59,0,0,0,55,44.61a1.65,1.65,0,0,0,1.34.69,2,2,0,0,0,.8-.15c.23-.09.55-.25,1-.46l.67-.32a17.11,17.11,0,0,1,1.74-.77,5,5,0,0,1,1.69-.29A2.74,2.74,0,0,1,64.1,44a2.39,2.39,0,0,1,.7,1.84,1.79,1.79,0,0,1-.8,1.63,4.92,4.92,0,0,1-2.56.51H60a1.82,1.82,0,0,0-1.5.68,2.64,2.64,0,0,0,0,3.2,1.84,1.84,0,0,0,1.5.67h2a4.83,4.83,0,0,1,2.62.54,2,2,0,0,1,.8,1.79,2.22,2.22,0,0,1-.78,1.92,4.41,4.41,0,0,1-2.58.58,5.84,5.84,0,0,1-1.84-.27,13.18,13.18,0,0,1-1.84-.79L58,56.1,57.7,56c-.41-.21-.73-.36-1-.46a2.24,2.24,0,0,0-.8-.14,1.67,1.67,0,0,0-1.35.68,2.64,2.64,0,0,0-.54,1.68,2.53,2.53,0,0,0,.22,1.11,2.58,2.58,0,0,0,.77.88,10.32,10.32,0,0,0,3.33,1.61,14,14,0,0,0,4,.56,12.07,12.07,0,0,0,4.53-.78,6.73,6.73,0,0,0,3-2.22,6.06,6.06,0,0,0,0-6.88A5.47,5.47,0,0,0,66.91,50ZM78.46,65.59A21.84,21.84,0,0,0,82.05,53.2a21.76,21.76,0,0,0-3.59-12.45,3.94,3.94,0,0,0-1.29-1.31A2.84,2.84,0,0,0,75.71,39a1.77,1.77,0,0,0-1.26.47,1.65,1.65,0,0,0-.5,1.26,3,3,0,0,0,.23,1.12,28.69,28.69,0,0,1,1.56,5.49,33.94,33.94,0,0,1,.48,5.87A32.91,32.91,0,0,1,75.74,59a30.42,30.42,0,0,1-1.56,5.49A3.07,3.07,0,0,0,74,65.62a1.65,1.65,0,0,0,.5,1.26,1.73,1.73,0,0,0,1.23.47,2.89,2.89,0,0,0,1.49-.45A3.94,3.94,0,0,0,78.46,65.59ZM95.21,43.4H90.4l3.4-3.47a11.45,11.45,0,0,0,2-2.7,6,6,0,0,0,.58-2.66,4.38,4.38,0,0,0-.73-2.51,4.73,4.73,0,0,0-2.07-1.67,7.7,7.7,0,0,0-3.11-.59,9.67,9.67,0,0,0-2.77.43,9.46,9.46,0,0,0-2.52,1.2,1.63,1.63,0,0,0-.59.62,2.14,2.14,0,0,0-.15.86,2,2,0,0,0,.4,1.28,1.24,1.24,0,0,0,1,.54,1.33,1.33,0,0,0,.45-.07,2.34,2.34,0,0,0,.49-.23l.38-.2.47-.24A14.81,14.81,0,0,1,89,33.4a4,4,0,0,1,1.28-.2,2,2,0,0,1,1.33.43,1.62,1.62,0,0,1,.46,1.25,4.64,4.64,0,0,1-1.58,3l-5.07,5.29a2.64,2.64,0,0,0-.82,1.86,1.78,1.78,0,0,0,.51,1.31,1.82,1.82,0,0,0,1.36.51h8.74a2.41,2.41,0,0,0,1.57-.43,1.64,1.64,0,0,0,.51-1.34,1.58,1.58,0,0,0-.51-1.3A2.47,2.47,0,0,0,95.21,43.4Z"/></svg>