<svg id="Layer_1" data-name="Layer 1" xmlns="http://www.w3.org/2000/svg" viewBox="0 0 100 100"><title>l5_5_1</title><path d="M83.53,100H16.47A16.47,16.47,0,0,1,0,83.53V16.47A16.47,16.47,0,0,1,16.47,0H83.53A16.47,16.47,0,0,1,100,16.47V83.53A16.47,16.47,0,0,1,83.53,100ZM8.35,64.3a3.94,3.94,0,0,0,1.29,1.31,2.92,2.92,0,0,0,1.45.44,1.76,1.76,0,0,0,1.26-.46,1.65,1.65,0,0,0,.5-1.26,3.32,3.32,0,0,0-.22-1.12,29.28,29.28,0,0,1-1.57-5.47A32.76,32.76,0,0,1,10.58,52a33.83,33.83,0,0,1,.48-5.86,27.65,27.65,0,0,1,1.57-5.47,3.32,3.32,0,0,0,.22-1.12,1.67,1.67,0,0,0-.5-1.29,1.77,1.77,0,0,0-1.26-.47,2.78,2.78,0,0,0-1.45.47,4,4,0,0,0-1.29,1.32A21.69,21.69,0,0,0,4.77,52,21.78,21.78,0,0,0,8.35,64.3ZM30.79,52.07h-.71V40.55a2.7,2.7,0,0,0-.86-2.14,3,3,0,0,0-2.07-.76,3.21,3.21,0,0,0-1.42.33,3,3,0,0,0-1.14,1L15.47,52a3.56,3.56,0,0,0-.71,2.1,2.47,2.47,0,0,0,.67,1.76,2.4,2.4,0,0,0,1.82.7h7.12v1.09a2.85,2.85,0,0,0,.78,2.17,2.88,2.88,0,0,0,2.06.73,3,3,0,0,0,2.08-.73,2.82,2.82,0,0,0,.79-2.17V56.54h.71c1.85,0,2.77-.75,2.77-2.26S32.64,52.07,30.79,52.07Zm-10.25,0,3.83-5.52v5.52ZM49,49.27H45v-4a1.86,1.86,0,0,0-1.89-1.88,1.84,1.84,0,0,0-1.88,1.88v4h-4a1.84,1.84,0,0,0-1.88,1.88,1.86,1.86,0,0,0,.54,1.35,1.77,1.77,0,0,0,1.34.56h4v4a1.86,1.86,0,0,0,1.88,1.89,1.78,1.78,0,0,0,1.36-.55A1.84,1.84,0,0,0,45,57.05v-4h4a1.77,1.77,0,0,0,1.34-.56,1.86,1.86,0,0,0,.54-1.35A1.84,1.84,0,0,0,49,49.27Zm17.3-.52a5.08,5.08,0,0,0,2.53-1.93,5.28,5.28,0,0,0,.91-3.08,5.54,5.54,0,0,0-1-3.25A6.19,6.19,0,0,0,66,38.32a10.57,10.57,0,0,0-4.16-.77,12.52,12.52,0,0,0-3.78.58,10.43,10.43,0,0,0-3.24,1.59,2.73,2.73,0,0,0-.77.86,2.48,2.48,0,0,0-.22,1.12,2.64,2.64,0,0,0,.54,1.68,1.66,1.66,0,0,0,1.34.68,2,2,0,0,0,.8-.14c.23-.1.55-.25,1-.46l.67-.32a15.36,15.36,0,0,1,1.74-.77,4.84,4.84,0,0,1,1.67-.29,2.74,2.74,0,0,1,1.95.66,2.37,2.37,0,0,1,.7,1.83,1.79,1.79,0,0,1-.8,1.63,4.87,4.87,0,0,1-2.55.51h-1.4a1.87,1.87,0,0,0-1.51.67,2.48,2.48,0,0,0-.54,1.6,2.43,2.43,0,0,0,.54,1.59,1.84,1.84,0,0,0,1.51.67h2a4.8,4.8,0,0,1,2.62.55,2,2,0,0,1,.8,1.78A2.22,2.22,0,0,1,64,55.49a4.46,4.46,0,0,1-2.57.57,5.88,5.88,0,0,1-1.84-.27A14.24,14.24,0,0,1,57.79,55l-.4-.18-.3-.14c-.41-.21-.73-.37-1-.46a2,2,0,0,0-.8-.15,1.65,1.65,0,0,0-1.34.69,2.64,2.64,0,0,0-.54,1.68,2.51,2.51,0,0,0,.22,1.1,2.48,2.48,0,0,0,.77.88A10.17,10.17,0,0,0,57.76,60a14.18,14.18,0,0,0,4,.56,11.82,11.82,0,0,0,4.52-.79,6.79,6.79,0,0,0,3-2.21,5.6,5.6,0,0,0,1-3.39,5.69,5.69,0,0,0-1.07-3.48A5.52,5.52,0,0,0,66.28,48.75ZM77.8,64.3A21.78,21.78,0,0,0,81.37,52,21.69,21.69,0,0,0,77.8,39.53a3.94,3.94,0,0,0-1.29-1.31,2.84,2.84,0,0,0-1.46-.45,1.77,1.77,0,0,0-1.26.47,1.64,1.64,0,0,0-.49,1.26,3.09,3.09,0,0,0,.22,1.12,27.65,27.65,0,0,1,1.57,5.47A34.88,34.88,0,0,1,75.56,52a33.77,33.77,0,0,1-.47,5.79,29.28,29.28,0,0,1-1.57,5.47,3.09,3.09,0,0,0-.22,1.12,1.64,1.64,0,0,0,.49,1.26,1.72,1.72,0,0,0,1.23.46,3,3,0,0,0,1.49-.44A3.94,3.94,0,0,0,77.8,64.3ZM93.49,42.12H88.68l3.4-3.47a11.18,11.18,0,0,0,2-2.7,6,6,0,0,0,.59-2.66,4.46,4.46,0,0,0-.73-2.51,4.73,4.73,0,0,0-2.07-1.67,7.79,7.79,0,0,0-3.12-.59,9.73,9.73,0,0,0-5.29,1.63,1.6,1.6,0,0,0-.58.62,2,2,0,0,0-.16.86,2,2,0,0,0,.41,1.28,1.21,1.21,0,0,0,1,.54,1.39,1.39,0,0,0,.46-.07,2.61,2.61,0,0,0,.49-.23l.37-.2.48-.24a13.64,13.64,0,0,1,1.35-.59,4,4,0,0,1,1.28-.2,1.87,1.87,0,0,1,1.33.43,1.62,1.62,0,0,1,.47,1.25,4.68,4.68,0,0,1-1.58,3L83.7,41.93a2.62,2.62,0,0,0-.81,1.86,1.81,1.81,0,0,0,.5,1.31,1.84,1.84,0,0,0,1.37.51h8.73a2.37,2.37,0,0,0,1.57-.43,1.65,1.65,0,0,0,.52-1.34,1.59,1.59,0,0,0-.52-1.3A2.43,2.43,0,0,0,93.49,42.12Z"/></svg>