<svg id="Layer_1" data-name="Layer 1" xmlns="http://www.w3.org/2000/svg" viewBox="0 0 100 100"><title>l5_5_1</title><path d="M83.44,100H16.38A16.47,16.47,0,0,1-.09,83.53V16.47A16.47,16.47,0,0,1,16.38,0H83.44A16.47,16.47,0,0,1,99.91,16.47V83.53A16.47,16.47,0,0,1,83.44,100ZM11.27,65.44a3.94,3.94,0,0,0,1.29,1.31,2.89,2.89,0,0,0,1.45.44,1.76,1.76,0,0,0,1.26-.46,1.65,1.65,0,0,0,.5-1.26,3.07,3.07,0,0,0-.23-1.12A30.23,30.23,0,0,1,14,58.88a32.8,32.8,0,0,1-.48-5.8A33.79,33.79,0,0,1,14,47.23a28.39,28.39,0,0,1,1.56-5.48,3,3,0,0,0,.23-1.11,1.69,1.69,0,0,0-.5-1.3A1.81,1.81,0,0,0,14,38.88a2.83,2.83,0,0,0-1.45.46,4,4,0,0,0-1.29,1.33A21.61,21.61,0,0,0,7.69,53.08,21.74,21.74,0,0,0,11.27,65.44ZM28.41,46.77a8,8,0,0,0-3.16.57V43.41h6.89c1.85,0,2.78-.74,2.78-2.23S34,39,32.14,39H22.25a2.69,2.69,0,0,0-2,.7,2.76,2.76,0,0,0-.71,2v8.65a1.76,1.76,0,0,0,.61,1.39,2.2,2.2,0,0,0,1.5.53,3.12,3.12,0,0,0,1.44-.35,11.34,11.34,0,0,1,1.83-.58,9.2,9.2,0,0,1,1.74-.16,3.63,3.63,0,0,1,2.49.8A2.82,2.82,0,0,1,30,54.23a2.72,2.72,0,0,1-.86,2.25,4.07,4.07,0,0,1-2.65.72,5.06,5.06,0,0,1-1.77-.29,17.36,17.36,0,0,1-1.8-.76l-.64-.32q-.64-.34-1-.48a2.27,2.27,0,0,0-.8-.13,1.66,1.66,0,0,0-1.34.69,2.64,2.64,0,0,0-.54,1.68,2.38,2.38,0,0,0,.24,1.1,2.84,2.84,0,0,0,.75.87,10.39,10.39,0,0,0,3.27,1.6,13.45,13.45,0,0,0,3.88.57,10.33,10.33,0,0,0,4.56-.95,7.26,7.26,0,0,0,3.07-2.72,8.22,8.22,0,0,0,.17-7.83,6.31,6.31,0,0,0-2.52-2.55A7.3,7.3,0,0,0,28.41,46.77Zm12.12,8.36h6a2.93,2.93,0,0,0,2-.59,2.1,2.1,0,0,0,.65-1.65,2,2,0,0,0-.65-1.62,2.93,2.93,0,0,0-2-.58h-6c-1.76,0-2.64.74-2.64,2.2S38.77,55.13,40.53,55.13Zm23.75-5.24A5.11,5.11,0,0,0,66.82,48a5.35,5.35,0,0,0,.91-3.08,5.55,5.55,0,0,0-1-3.25A6.21,6.21,0,0,0,64,39.46a10.62,10.62,0,0,0-4.17-.77,12.57,12.57,0,0,0-3.78.58,10.65,10.65,0,0,0-3.24,1.59,2.64,2.64,0,0,0-.45,3.66,1.68,1.68,0,0,0,1.34.68,2.2,2.2,0,0,0,.8-.14c.24-.1.56-.25,1-.46l.67-.32a17.11,17.11,0,0,1,1.74-.77,4.84,4.84,0,0,1,1.67-.29,2.74,2.74,0,0,1,1.95.66,2.37,2.37,0,0,1,.7,1.83,1.79,1.79,0,0,1-.79,1.63,4.94,4.94,0,0,1-2.56.51h-1.4a1.81,1.81,0,0,0-1.5.67,2.48,2.48,0,0,0-.54,1.6,2.45,2.45,0,0,0,.54,1.59,1.81,1.81,0,0,0,1.5.67h2a4.69,4.69,0,0,1,2.61.55,2,2,0,0,1,.8,1.78A2.23,2.23,0,0,1,62,56.63a4.46,4.46,0,0,1-2.57.57,5.77,5.77,0,0,1-1.83-.27,13.74,13.74,0,0,1-1.84-.78l-.4-.18-.3-.14c-.41-.21-.73-.37-1-.46a2,2,0,0,0-.8-.15,1.65,1.65,0,0,0-1.34.69,2.64,2.64,0,0,0-.54,1.68,2.51,2.51,0,0,0,.22,1.1,2.56,2.56,0,0,0,.77.87,10.28,10.28,0,0,0,3.32,1.62,14.24,14.24,0,0,0,4,.55A12,12,0,0,0,64.26,61a6.68,6.68,0,0,0,3-2.22,5.55,5.55,0,0,0,1-3.38,5.63,5.63,0,0,0-1.07-3.48A5.43,5.43,0,0,0,64.28,49.89ZM75.8,65.44a21.81,21.81,0,0,0,3.58-12.36A21.68,21.68,0,0,0,75.8,40.67a3.85,3.85,0,0,0-1.29-1.31,2.84,2.84,0,0,0-1.45-.45,1.77,1.77,0,0,0-1.26.47,1.65,1.65,0,0,0-.5,1.26,3,3,0,0,0,.23,1.11,28.39,28.39,0,0,1,1.56,5.48,33.79,33.79,0,0,1,.48,5.85,32.8,32.8,0,0,1-.48,5.8,30.23,30.23,0,0,1-1.56,5.47,3.07,3.07,0,0,0-.23,1.12,1.65,1.65,0,0,0,.5,1.26,1.72,1.72,0,0,0,1.23.46,3,3,0,0,0,1.48-.44A3.94,3.94,0,0,0,75.8,65.44ZM94.23,43.26H89.42l3.4-3.47a11.35,11.35,0,0,0,2-2.69,6.08,6.08,0,0,0,.59-2.67,4.4,4.4,0,0,0-.73-2.5,4.68,4.68,0,0,0-2.07-1.68,7.79,7.79,0,0,0-3.12-.59,9.73,9.73,0,0,0-5.29,1.63,1.6,1.6,0,0,0-.58.62,2,2,0,0,0-.16.87,2.08,2.08,0,0,0,.41,1.28,1.24,1.24,0,0,0,1,.53,1.39,1.39,0,0,0,.46-.07,2.61,2.61,0,0,0,.49-.23l.37-.2.48-.24A11.38,11.38,0,0,1,88,33.27a3.78,3.78,0,0,1,1.28-.21,1.91,1.91,0,0,1,1.33.43,1.62,1.62,0,0,1,.47,1.25,4.68,4.68,0,0,1-1.58,3l-5.08,5.29a2.63,2.63,0,0,0-.81,1.87,1.8,1.8,0,0,0,.5,1.3,1.84,1.84,0,0,0,1.37.51h8.73a2.37,2.37,0,0,0,1.57-.43A1.62,1.62,0,0,0,96.32,45a1.56,1.56,0,0,0-.52-1.3A2.43,2.43,0,0,0,94.23,43.26Z"/></svg>