<svg id="Layer_1" data-name="Layer 1" xmlns="http://www.w3.org/2000/svg" viewBox="0 0 100 100"><title>l5_5_1</title><path d="M83.71,100H16.65A16.47,16.47,0,0,1,.18,83.53V16.47A16.47,16.47,0,0,1,16.65,0H83.71a16.47,16.47,0,0,1,16.47,16.47V83.53A16.47,16.47,0,0,1,83.71,100ZM11.52,65.44a3.94,3.94,0,0,0,1.29,1.31,2.92,2.92,0,0,0,1.45.44,1.76,1.76,0,0,0,1.26-.46,1.65,1.65,0,0,0,.5-1.26,3.27,3.27,0,0,0-.22-1.12,29.5,29.5,0,0,1-1.57-5.47,32.8,32.8,0,0,1-.48-5.8,33.79,33.79,0,0,1,.48-5.85,27.74,27.74,0,0,1,1.57-5.48A3.22,3.22,0,0,0,16,40.64a1.69,1.69,0,0,0-.5-1.3,1.81,1.81,0,0,0-1.26-.46,2.86,2.86,0,0,0-1.45.46,4,4,0,0,0-1.29,1.33A21.68,21.68,0,0,0,7.94,53.08,21.81,21.81,0,0,0,11.52,65.44ZM34,53.21h-.7V41.69a2.71,2.71,0,0,0-.87-2.14,3,3,0,0,0-2.07-.76,3.25,3.25,0,0,0-1.42.33,3,3,0,0,0-1.14,1l-9.12,13a3.56,3.56,0,0,0-.71,2.1A2.47,2.47,0,0,0,18.6,57a2.4,2.4,0,0,0,1.82.7h7.12v1.09a2.85,2.85,0,0,0,.78,2.17,2.88,2.88,0,0,0,2.06.73,3,3,0,0,0,2.08-.73,2.82,2.82,0,0,0,.8-2.17V57.68H34c1.85,0,2.77-.75,2.77-2.27S35.81,53.21,34,53.21Zm-10.25,0,3.83-5.52v5.52Zm17.08,1.92h6a2.9,2.9,0,0,0,2-.59,2.1,2.1,0,0,0,.66-1.65,2,2,0,0,0-.66-1.62,2.9,2.9,0,0,0-2-.58h-6c-1.77,0-2.65.74-2.65,2.2S39,55.13,40.79,55.13Zm25.63,1.69H60l4.53-4.63A14.73,14.73,0,0,0,67.2,48.6,8,8,0,0,0,68,45a5.84,5.84,0,0,0-1-3.33,6.23,6.23,0,0,0-2.76-2.24,10.34,10.34,0,0,0-4.15-.78,12.24,12.24,0,0,0-3.69.58A12.45,12.45,0,0,0,53,40.86a2.16,2.16,0,0,0-.78.83,3,3,0,0,0,.34,2.86,1.61,1.61,0,0,0,1.34.72,2,2,0,0,0,.6-.1,4.48,4.48,0,0,0,.66-.3l.49-.27.64-.32a15.58,15.58,0,0,1,1.8-.79,5.2,5.2,0,0,1,1.71-.27,2.47,2.47,0,0,1,1.77.58,2.11,2.11,0,0,1,.62,1.66q0,1.84-2.1,4l-6.77,7.05a3.52,3.52,0,0,0-1.08,2.49A2.35,2.35,0,0,0,53,60.79a2.4,2.4,0,0,0,1.82.69H66.42a3.18,3.18,0,0,0,2.09-.58,2.2,2.2,0,0,0,.68-1.78,2.13,2.13,0,0,0-.68-1.74A3.3,3.3,0,0,0,66.42,56.82Zm9.67,8.62a21.81,21.81,0,0,0,3.57-12.36,21.68,21.68,0,0,0-3.57-12.41,4,4,0,0,0-1.3-1.31,2.81,2.81,0,0,0-1.45-.45,1.77,1.77,0,0,0-1.26.47,1.64,1.64,0,0,0-.49,1.26,3,3,0,0,0,.22,1.11,28.39,28.39,0,0,1,1.56,5.48,33.79,33.79,0,0,1,.48,5.85,32.8,32.8,0,0,1-.48,5.8,30.23,30.23,0,0,1-1.56,5.47,3.05,3.05,0,0,0-.22,1.12,1.64,1.64,0,0,0,.49,1.26,1.72,1.72,0,0,0,1.23.46,2.93,2.93,0,0,0,1.48-.44A4.07,4.07,0,0,0,76.09,65.44ZM94.5,43.26H89.69l3.4-3.47a11.35,11.35,0,0,0,2-2.69,6.08,6.08,0,0,0,.59-2.67,4.4,4.4,0,0,0-.73-2.5,4.68,4.68,0,0,0-2.07-1.68,7.79,7.79,0,0,0-3.12-.59,9.56,9.56,0,0,0-2.76.43,9.38,9.38,0,0,0-2.53,1.2,1.6,1.6,0,0,0-.58.62,2,2,0,0,0-.16.86,2.09,2.09,0,0,0,.41,1.29,1.22,1.22,0,0,0,1,.53,1.43,1.43,0,0,0,.46-.07,2.61,2.61,0,0,0,.49-.23l.37-.2.48-.24a11.38,11.38,0,0,1,1.35-.58,3.78,3.78,0,0,1,1.28-.21,1.91,1.91,0,0,1,1.33.43,1.62,1.62,0,0,1,.47,1.25,4.68,4.68,0,0,1-1.58,3l-5.08,5.29a2.63,2.63,0,0,0-.81,1.87,1.8,1.8,0,0,0,.5,1.3,1.84,1.84,0,0,0,1.37.51H94.5a2.37,2.37,0,0,0,1.57-.43A1.65,1.65,0,0,0,96.59,45a1.59,1.59,0,0,0-.52-1.3A2.43,2.43,0,0,0,94.5,43.26Z"/></svg>