<svg id="Layer_1" data-name="Layer 1" xmlns="http://www.w3.org/2000/svg" viewBox="0 0 150 100"><title>s5_1</title><path d="M138,100H12A11.79,11.79,0,0,1,.25,88.21V11.79A11.79,11.79,0,0,1,12,0H138a11.79,11.79,0,0,1,11.79,11.79V88.21A11.79,11.79,0,0,1,138,100ZM69.8,41.14H53.25V24.58a7.75,7.75,0,1,0-15.5,0V41.14H21.19a7.62,7.62,0,0,0-7.75,7.75,7.7,7.7,0,0,0,2.23,5.58,7.37,7.37,0,0,0,5.52,2.3H37.75V73.2A7.62,7.62,0,0,0,45.5,81a7.43,7.43,0,0,0,5.58-2.23,7.6,7.6,0,0,0,2.17-5.52V56.77H69.8a7.37,7.37,0,0,0,5.52-2.3,7.7,7.7,0,0,0,2.24-5.58,7.63,7.63,0,0,0-7.76-7.75Zm32.06,19.44h24.7q5.52,0,8.22-2.43a8.65,8.65,0,0,0,2.69-6.76,8.45,8.45,0,0,0-2.69-6.7q-2.7-2.37-8.22-2.37h-24.7Q91,42.32,91,51.39T101.86,60.58Z"/></svg>