<svg id="Layer_1" data-name="Layer 1" xmlns="http://www.w3.org/2000/svg" viewBox="0 0 150 100"><title>s5_1</title><path d="M138,100H12A11.78,11.78,0,0,1,.22,88.21V11.79A11.78,11.78,0,0,1,12,0H138a11.78,11.78,0,0,1,11.78,11.79V88.21A11.78,11.78,0,0,1,138,100ZM91.34,51.38l18.23-18.07a9.87,9.87,0,0,0,3-7.26,8.83,8.83,0,0,0-3-6.92,9.35,9.35,0,0,0-7.09-3,9.71,9.71,0,0,0-7.09,3L77.16,37.36,58.92,19.13a9.84,9.84,0,0,0-7.09-3.21,8.86,8.86,0,0,0-6.92,3,9.91,9.91,0,0,0-3,7.26,10.37,10.37,0,0,0,2.87,7.09L63,51.38,44.74,69.61a9.79,9.79,0,0,0,0,14.18,10.37,10.37,0,0,0,7.09,2.87,9.61,9.61,0,0,0,7.09-2.87L77.16,65.56,95.39,83.79a10,10,0,0,0,17-7.09,9.3,9.3,0,0,0-2.87-7.09Z"/></svg>