<svg id="Layer_1" data-name="Layer 1" xmlns="http://www.w3.org/2000/svg" viewBox="0 0 150 100"><title>s5_1</title><path d="M137.66,100h-126A11.79,11.79,0,0,1-.13,88.21V11.79A11.79,11.79,0,0,1,11.66,0h126a11.79,11.79,0,0,1,11.78,11.79V88.21A11.79,11.79,0,0,1,137.66,100ZM44.15,60.6h62.47a9.5,9.5,0,0,0,7.09-3,9.92,9.92,0,0,0,2.87-7.17,9.8,9.8,0,0,0-10-10H44.15a9.5,9.5,0,0,0-7.09,3,9.92,9.92,0,0,0-2.87,7.17,9.8,9.8,0,0,0,10,10ZM74.54,28.86a10.29,10.29,0,0,0,7.68-3.21,10.71,10.71,0,0,0,3.13-7.77,10.52,10.52,0,0,0-3.13-7.6,10.32,10.32,0,0,0-7.68-3.2,10.18,10.18,0,0,0-7.6,3.12,10.6,10.6,0,0,0-3,7.68,10.91,10.91,0,0,0,3,7.77A10,10,0,0,0,74.54,28.86Zm0,65.16a10.28,10.28,0,0,0,7.68-3.2,10.5,10.5,0,0,0,3.13-7.6,10.71,10.71,0,0,0-3.13-7.77,10.32,10.32,0,0,0-7.68-3.2,10.07,10.07,0,0,0-7.6,3.2,10.91,10.91,0,0,0-3,7.77,10.6,10.6,0,0,0,3,7.68A10.18,10.18,0,0,0,74.54,94Z"/></svg>