<svg id="Layer_1" data-name="Layer 1" xmlns="http://www.w3.org/2000/svg" viewBox="0 0 150 100"><title>s5_1</title><path d="M138,100H12A11.78,11.78,0,0,1,.22,88.21V11.79A11.78,11.78,0,0,1,12,0H138a11.78,11.78,0,0,1,11.78,11.79V88.21A11.78,11.78,0,0,1,138,100ZM23.74,55.58H16.3l5.26-5.37a17.75,17.75,0,0,0,3.09-4.16,9.4,9.4,0,0,0,.9-4.13,6.71,6.71,0,0,0-1.13-3.86,7.14,7.14,0,0,0-3.2-2.59,11.79,11.79,0,0,0-4.81-.91,14.28,14.28,0,0,0-4.27.67,14.18,14.18,0,0,0-3.9,1.85,2.35,2.35,0,0,0-.91,1,3.16,3.16,0,0,0-.24,1.33,3.21,3.21,0,0,0,.63,2,1.89,1.89,0,0,0,1.55.83,2.28,2.28,0,0,0,.7-.11,3.83,3.83,0,0,0,.76-.35l.58-.32.74-.37a18.24,18.24,0,0,1,2.09-.9,6,6,0,0,1,2-.32,2.92,2.92,0,0,1,2.05.67,2.49,2.49,0,0,1,.72,1.92q0,2.15-2.44,4.7L8.61,55.28a4.05,4.05,0,0,0-1.26,2.89,2.75,2.75,0,0,0,.78,2,2.8,2.8,0,0,0,2.1.8H23.74a3.68,3.68,0,0,0,2.42-.67,2.54,2.54,0,0,0,.8-2.07,2.46,2.46,0,0,0-.8-2A3.8,3.8,0,0,0,23.74,55.58Zm22.2-7.44H41.28V43.48a2.19,2.19,0,1,0-4.37,0v4.66H32.25a2.08,2.08,0,0,0-1.55.63,2.11,2.11,0,0,0-.63,1.55,2.16,2.16,0,0,0,.63,1.57,2,2,0,0,0,1.55.65h4.66v4.63a2.21,2.21,0,0,0,3.76,1.55,2.18,2.18,0,0,0,.61-1.55V52.54h4.66a2.05,2.05,0,0,0,1.55-.65,2.16,2.16,0,0,0,.63-1.57,2.15,2.15,0,0,0-2.18-2.18ZM58,65.57a4.51,4.51,0,0,0,1.5,1.51,3.25,3.25,0,0,0,1.69.52,2.06,2.06,0,0,0,1.46-.54,1.89,1.89,0,0,0,.57-1.46,3.58,3.58,0,0,0-.26-1.29A34.51,34.51,0,0,1,61.11,58a38,38,0,0,1-.56-6.71,39.28,39.28,0,0,1,.56-6.79,32.43,32.43,0,0,1,1.81-6.35,3.58,3.58,0,0,0,.26-1.29,2,2,0,0,0-.57-1.5,2.06,2.06,0,0,0-1.46-.54,3.2,3.2,0,0,0-1.69.54A4.77,4.77,0,0,0,58,36.85a25.17,25.17,0,0,0-4.14,14.4A25.25,25.25,0,0,0,58,65.57ZM84,51.39h-.81V38a3.13,3.13,0,0,0-1-2.48,3.5,3.5,0,0,0-2.4-.89,3.7,3.7,0,0,0-1.65.39,3.32,3.32,0,0,0-1.31,1.13L66.21,51.28a4.18,4.18,0,0,0-.81,2.45,2.82,2.82,0,0,0,.78,2,2.79,2.79,0,0,0,2.11.81h8.25v1.26a3,3,0,0,0,3.29,3.37,3.37,3.37,0,0,0,2.4-.85,3.25,3.25,0,0,0,.93-2.52V56.57H84c2.15,0,3.22-.87,3.22-2.62S86.12,51.39,84,51.39Zm-11.87,0L76.54,45v6.4Zm33-3.25H100.4V43.48a2.12,2.12,0,0,0-.63-1.56,2.1,2.1,0,0,0-1.55-.63,2.12,2.12,0,0,0-1.56.63A2.15,2.15,0,0,0,96,43.48v4.66H91.37a2.15,2.15,0,0,0-2.18,2.18,2.16,2.16,0,0,0,.63,1.57,2.05,2.05,0,0,0,1.55.65H96v4.63a2.14,2.14,0,0,0,.62,1.55,2.12,2.12,0,0,0,1.56.63,2.09,2.09,0,0,0,1.57-.63,2.13,2.13,0,0,0,.61-1.55V52.54h4.66a2.06,2.06,0,0,0,1.56-.65,2.16,2.16,0,0,0,.63-1.57,2.15,2.15,0,0,0-2.19-2.18Zm17.17-4.22a9.13,9.13,0,0,0-3.66.67V40h8c2.15,0,3.22-.87,3.22-2.59s-1.07-2.56-3.22-2.56H115.09a3.12,3.12,0,0,0-2.33.82,3.2,3.2,0,0,0-.81,2.36v10a2,2,0,0,0,.7,1.61,2.55,2.55,0,0,0,1.74.61,3.43,3.43,0,0,0,1.66-.41,13.08,13.08,0,0,1,2.13-.66,10.35,10.35,0,0,1,2-.19,4.16,4.16,0,0,1,2.88.93,3.3,3.3,0,0,1,1,2.59,3.21,3.21,0,0,1-1,2.61,4.77,4.77,0,0,1-3.07.83,6.22,6.22,0,0,1-2.06-.33c-.62-.23-1.32-.52-2.09-.89l-.74-.37a11.44,11.44,0,0,0-1.11-.56,2.66,2.66,0,0,0-.92-.14,1.88,1.88,0,0,0-1.55.79,3,3,0,0,0-.63,1.94,2.81,2.81,0,0,0,.27,1.28,3.39,3.39,0,0,0,.87,1,12.35,12.35,0,0,0,3.8,1.85,15.49,15.49,0,0,0,4.49.66,12,12,0,0,0,5.29-1.11A8.24,8.24,0,0,0,129.22,57a8.74,8.74,0,0,0,1.26-4.7,8.92,8.92,0,0,0-1-4.38,7.56,7.56,0,0,0-2.92-3A8.52,8.52,0,0,0,122.23,43.92Zm16.24,21.65a25.18,25.18,0,0,0,4.15-14.32,25.1,25.1,0,0,0-4.15-14.4A4.58,4.58,0,0,0,137,35.34a3.28,3.28,0,0,0-1.69-.52,2.08,2.08,0,0,0-1.46.53,1.93,1.93,0,0,0-.57,1.47,3.38,3.38,0,0,0,.26,1.29,33.13,33.13,0,0,1,1.81,6.35,39.32,39.32,0,0,1,.55,6.79,38.05,38.05,0,0,1-.55,6.71,35.31,35.31,0,0,1-1.81,6.35,3.38,3.38,0,0,0-.26,1.29,1.89,1.89,0,0,0,.57,1.46,2,2,0,0,0,1.43.54,3.32,3.32,0,0,0,1.72-.52A4.58,4.58,0,0,0,138.47,65.57Z"/></svg>