<svg id="Layer_1" data-name="Layer 1" xmlns="http://www.w3.org/2000/svg" viewBox="0 0 150 100"><title>s5_1</title><path d="M138,100H12A11.78,11.78,0,0,1,.22,88.21V11.79A11.78,11.78,0,0,1,12,0H138a11.78,11.78,0,0,1,11.78,11.79V88.21A11.78,11.78,0,0,1,138,100ZM78.9,53.38a15.84,15.84,0,0,0,7.78-5.92A16.26,16.26,0,0,0,89.47,38a17.07,17.07,0,0,0-3-10A19.15,19.15,0,0,0,78,21.38,32.54,32.54,0,0,0,65.2,19a39.38,39.38,0,0,0-11.6,1.76,32.56,32.56,0,0,0-9.93,4.9,8,8,0,0,0-2.35,2.64,7.55,7.55,0,0,0-.68,3.42,8,8,0,0,0,1.66,5.14A5,5,0,0,0,46.41,39a6.52,6.52,0,0,0,2.45-.44c.71-.3,1.69-.77,2.93-1.42l2.06-1a52.29,52.29,0,0,1,5.33-2.35,14.72,14.72,0,0,1,5.14-.88,8.42,8.42,0,0,1,6,2,7.31,7.31,0,0,1,2.15,5.62,5.48,5.48,0,0,1-2.45,5q-2.44,1.58-7.83,1.57h-4.3a5.59,5.59,0,0,0-4.6,2.05,8,8,0,0,0,0,9.79A5.59,5.59,0,0,0,57.86,61h6.07q5.58,0,8,1.66c1.63,1.11,2.45,2.93,2.45,5.48q0,4.11-2.4,5.87c-1.6,1.17-4.22,1.76-7.88,1.76A17.52,17.52,0,0,1,58.5,75a42.13,42.13,0,0,1-5.63-2.4c-.46-.19-.87-.37-1.22-.54s-.67-.3-.93-.44q-1.86-1-2.94-1.41a6.3,6.3,0,0,0-2.45-.45,5.07,5.07,0,0,0-4.11,2.11A8,8,0,0,0,39.56,77a7.76,7.76,0,0,0,.68,3.37A7.64,7.64,0,0,0,42.59,83a31.56,31.56,0,0,0,10.18,5A43.54,43.54,0,0,0,65,89.69a36.71,36.71,0,0,0,13.85-2.4A20.52,20.52,0,0,0,88,80.49a17.08,17.08,0,0,0,3.23-10.37A17.32,17.32,0,0,0,88,59.45,16.61,16.61,0,0,0,78.9,53.38Zm38.53-16.51h-9.92l7-7.15a23,23,0,0,0,4.12-5.55,12.36,12.36,0,0,0,1.21-5.5,9.09,9.09,0,0,0-1.5-5.16,9.75,9.75,0,0,0-4.27-3.45,15.8,15.8,0,0,0-6.41-1.21,19.34,19.34,0,0,0-5.7.89,19,19,0,0,0-5.21,2.47,3.3,3.3,0,0,0-1.21,1.28,4.28,4.28,0,0,0-.32,1.77,4.25,4.25,0,0,0,.84,2.64A2.52,2.52,0,0,0,98.13,19a3.19,3.19,0,0,0,.94-.14,6.24,6.24,0,0,0,1-.47c.38-.22.64-.36.77-.42l1-.5a26,26,0,0,1,2.79-1.2,8,8,0,0,1,2.64-.42,3.89,3.89,0,0,1,2.74.88,3.34,3.34,0,0,1,1,2.57q0,2.86-3.25,6.27L97.25,36.48a5.39,5.39,0,0,0-1.68,3.85,3.7,3.7,0,0,0,1,2.69,3.76,3.76,0,0,0,2.82,1.06h18a5,5,0,0,0,3.23-.89,3.42,3.42,0,0,0,1.06-2.76,3.28,3.28,0,0,0-1.06-2.69A5,5,0,0,0,117.43,36.87Z"/></svg>